<?xml version="1.0" encoding="UTF-8"?>
<svg xmlns="http://www.w3.org/2000/svg" width="95" height="39" viewBox="0 0 95 39">
  <title>atom 2668 d:1</title>
  <metadata>{&quot;entityType&quot;:&quot;atom&quot;,&quot;entityId&quot;:&quot;2668&quot;,&quot;token&quot;:&quot;d:1&quot;,&quot;signature&quot;:&quot;d:1&quot;,&quot;imageName&quot;:&quot;page-094.jpg&quot;,&quot;imageId&quot;:94,&quot;bounds&quot;:{&quot;x&quot;:1586,&quot;y&quot;:509,&quot;w&quot;:95,&quot;h&quot;:39},&quot;atoms&quot;:[{&quot;id&quot;:2668,&quot;token&quot;:&quot;d:1&quot;,&quot;particle_id&quot;:&quot;img94-m4-p3&quot;,&quot;molecule_id&quot;:&quot;img94-m4&quot;,&quot;atom_order&quot;:7}]}</metadata>
  <rect x="0" y="0" width="95" height="39" fill="#f8f0d8"/>
  <image href="file:///C:/Users/HHHES/AppData/Roaming/com.voynichlab.datasetcreator/images/1/33b1988f-7aaa-4207-bfa8-f26b742ac4b1.jpg" x="-1586" y="-509" width="2932" height="3769" opacity="0.92"/>
  <rect x="0.5" y="0.5" width="94" height="38" fill="none" stroke="#111827" stroke-width="1" opacity="0.35"/>
  <polyline points="16,23 17,23 18,23 19,22 20,22 21,21 22,21 23,21 24,21 25,21 25,20 26,20 27,20 28,20 29,20 30,19 31,19 32,19 32,18 33,18 34,18 35,18 36,18 37,17 38,17 39,17 40,17 41,17 41,16 42,16 43,16 44,16 45,16 46,16 47,16 48,16 49,16 50,16 51,16 52,16 53,16 54,16 55,16 56,16 57,16 58,16 59,16 60,16 61,16 62,16 63,16 64,16 65,16 66,16 67,16 68,17 69,17 70,17 71,17 72,18 73,18 74,18 75,18 76,19 77,19 78,19 78,20 79,20" fill="none" stroke="#ff2d55" stroke-width="3" stroke-linecap="round" stroke-linejoin="round" opacity="0.95">
    <title>2668 d:1</title>
  </polyline>
</svg>
