<?xml version="1.0" encoding="UTF-8"?>
<svg xmlns="http://www.w3.org/2000/svg" width="50" height="42" viewBox="0 0 50 42">
  <title>atom 2685 d:1</title>
  <metadata>{&quot;entityType&quot;:&quot;atom&quot;,&quot;entityId&quot;:&quot;2685&quot;,&quot;token&quot;:&quot;d:1&quot;,&quot;signature&quot;:&quot;d:1&quot;,&quot;imageName&quot;:&quot;page-094.jpg&quot;,&quot;imageId&quot;:94,&quot;bounds&quot;:{&quot;x&quot;:2048,&quot;y&quot;:548,&quot;w&quot;:50,&quot;h&quot;:42},&quot;atoms&quot;:[{&quot;id&quot;:2685,&quot;token&quot;:&quot;d:1&quot;,&quot;particle_id&quot;:&quot;img94-m5-p1&quot;,&quot;molecule_id&quot;:&quot;img94-m5&quot;,&quot;atom_order&quot;:3}]}</metadata>
  <rect x="0" y="0" width="50" height="42" fill="#f8f0d8"/>
  <image href="file:///C:/Users/HHHES/AppData/Roaming/com.voynichlab.datasetcreator/images/1/33b1988f-7aaa-4207-bfa8-f26b742ac4b1.jpg" x="-2048" y="-548" width="2932" height="3769" opacity="0.92"/>
  <rect x="0.5" y="0.5" width="49" height="41" fill="none" stroke="#111827" stroke-width="1" opacity="0.35"/>
  <polyline points="22,26 21,26 20,26 20,25 19,25 18,25 18,24 17,24 16,23 16,22 16,21 16,20 17,20 17,19 18,19 19,19 19,18 20,18 20,17 21,17 21,16 22,16 23,16 24,16 25,16 26,16 27,16 28,16 28,17 29,17 30,17 30,18 31,18 32,18 32,19 33,20 33,21 34,21 34,22 33,22" fill="none" stroke="#ff2d55" stroke-width="3" stroke-linecap="round" stroke-linejoin="round" opacity="0.95">
    <title>2685 d:1</title>
  </polyline>
</svg>
