<?xml version="1.0" encoding="UTF-8"?>
<svg xmlns="http://www.w3.org/2000/svg" width="66" height="43" viewBox="0 0 66 43">
  <title>atom 2686 d:1</title>
  <metadata>{&quot;entityType&quot;:&quot;atom&quot;,&quot;entityId&quot;:&quot;2686&quot;,&quot;token&quot;:&quot;d:1&quot;,&quot;signature&quot;:&quot;d:1&quot;,&quot;imageName&quot;:&quot;page-094.jpg&quot;,&quot;imageId&quot;:94,&quot;bounds&quot;:{&quot;x&quot;:2113,&quot;y&quot;:546,&quot;w&quot;:66,&quot;h&quot;:43},&quot;atoms&quot;:[{&quot;id&quot;:2686,&quot;token&quot;:&quot;d:1&quot;,&quot;particle_id&quot;:&quot;img94-m5-p3&quot;,&quot;molecule_id&quot;:&quot;img94-m5&quot;,&quot;atom_order&quot;:3}]}</metadata>
  <rect x="0" y="0" width="66" height="43" fill="#f8f0d8"/>
  <image href="file:///C:/Users/HHHES/AppData/Roaming/com.voynichlab.datasetcreator/images/1/33b1988f-7aaa-4207-bfa8-f26b742ac4b1.jpg" x="-2113" y="-546" width="2932" height="3769" opacity="0.92"/>
  <rect x="0.5" y="0.5" width="65" height="42" fill="none" stroke="#111827" stroke-width="1" opacity="0.35"/>
  <polyline points="17,27 16,27 16,26 16,25 17,24 17,23 18,22 18,21 19,20 19,19 20,19 20,18 21,18 21,17 22,17 23,17 23,16 24,16 25,16 26,16 27,16 28,16 29,16 30,16 31,16 32,16 33,17 34,17 35,17 36,17 37,18 38,18 39,18 40,18 40,19 41,19 42,19 42,20 43,20 44,21 45,21 46,21 46,22 47,22 48,22 48,23 48,24 49,24 49,25 49,26 50,26 50,27" fill="none" stroke="#ff2d55" stroke-width="3" stroke-linecap="round" stroke-linejoin="round" opacity="0.95">
    <title>2686 d:1</title>
  </polyline>
</svg>
