<?xml version="1.0" encoding="UTF-8"?>
<svg xmlns="http://www.w3.org/2000/svg" width="112" height="42" viewBox="0 0 112 42">
  <title>atom 2744 d:1</title>
  <metadata>{&quot;entityType&quot;:&quot;atom&quot;,&quot;entityId&quot;:&quot;2744&quot;,&quot;token&quot;:&quot;d:1&quot;,&quot;signature&quot;:&quot;d:1&quot;,&quot;imageName&quot;:&quot;page-094.jpg&quot;,&quot;imageId&quot;:94,&quot;bounds&quot;:{&quot;x&quot;:1144,&quot;y&quot;:618,&quot;w&quot;:112,&quot;h&quot;:42},&quot;atoms&quot;:[{&quot;id&quot;:2744,&quot;token&quot;:&quot;d:1&quot;,&quot;particle_id&quot;:&quot;img94-m7-p1&quot;,&quot;molecule_id&quot;:&quot;img94-m7&quot;,&quot;atom_order&quot;:6}]}</metadata>
  <rect x="0" y="0" width="112" height="42" fill="#f8f0d8"/>
  <image href="file:///C:/Users/HHHES/AppData/Roaming/com.voynichlab.datasetcreator/images/1/33b1988f-7aaa-4207-bfa8-f26b742ac4b1.jpg" x="-1144" y="-618" width="2932" height="3769" opacity="0.92"/>
  <rect x="0.5" y="0.5" width="111" height="41" fill="none" stroke="#111827" stroke-width="1" opacity="0.35"/>
  <polyline points="16,22 17,22 17,21 18,21 19,21 20,20 21,20 22,20 23,20 24,19 25,19 26,19 27,19 28,19 29,19 30,19 31,18 32,18 33,18 34,18 35,17 36,17 37,17 38,17 39,17 40,17 41,17 42,17 43,17 44,17 45,17 46,17 47,17 48,17 49,17 50,16 51,16 52,16 53,16 54,16 55,16 56,16 57,16 58,16 59,16 60,16 61,16 62,16 63,16 64,16 65,16 66,16 67,16 67,17 68,17 69,17 70,17 71,17 72,17 73,17 74,17 75,17 75,18 76,18 77,18 78,18 79,18 80,18 81,18 82,19 83,19 84,19 85,20 86,20 87,20 87,21 88,21 89,21 90,21 90,22 91,22 92,22 92,23 93,23 93,24 94,24 94,25 95,25 96,26" fill="none" stroke="#ff2d55" stroke-width="3" stroke-linecap="round" stroke-linejoin="round" opacity="0.95">
    <title>2744 d:1</title>
  </polyline>
</svg>
