<?xml version="1.0" encoding="UTF-8"?>
<svg xmlns="http://www.w3.org/2000/svg" width="64" height="41" viewBox="0 0 64 41">
  <title>atom 2977 d:1</title>
  <metadata>{&quot;entityType&quot;:&quot;atom&quot;,&quot;entityId&quot;:&quot;2977&quot;,&quot;token&quot;:&quot;d:1&quot;,&quot;signature&quot;:&quot;d:1&quot;,&quot;imageName&quot;:&quot;page-094.jpg&quot;,&quot;imageId&quot;:94,&quot;bounds&quot;:{&quot;x&quot;:1416,&quot;y&quot;:860,&quot;w&quot;:64,&quot;h&quot;:41},&quot;atoms&quot;:[{&quot;id&quot;:2977,&quot;token&quot;:&quot;d:1&quot;,&quot;particle_id&quot;:&quot;img94-m33-p3&quot;,&quot;molecule_id&quot;:&quot;img94-m33&quot;,&quot;atom_order&quot;:3}]}</metadata>
  <rect x="0" y="0" width="64" height="41" fill="#f8f0d8"/>
  <image href="file:///C:/Users/HHHES/AppData/Roaming/com.voynichlab.datasetcreator/images/1/33b1988f-7aaa-4207-bfa8-f26b742ac4b1.jpg" x="-1416" y="-860" width="2932" height="3769" opacity="0.92"/>
  <rect x="0.5" y="0.5" width="63" height="40" fill="none" stroke="#111827" stroke-width="1" opacity="0.35"/>
  <polyline points="16,25 16,24 17,24 17,23 18,23 18,22 19,22 19,21 20,21 21,21 21,20 22,20 23,19 24,19 24,18 25,18 26,18 26,17 27,17 28,17 29,17 29,16 30,16 31,16 32,16 33,16 34,16 35,16 36,16 37,16 38,16 39,16 40,16 40,17 41,17 42,17 43,17 43,18 44,18 45,18 45,19 46,19 47,19 47,20 47,21 48,21" fill="none" stroke="#ff2d55" stroke-width="3" stroke-linecap="round" stroke-linejoin="round" opacity="0.95">
    <title>2977 d:1</title>
  </polyline>
</svg>
