<?xml version="1.0" encoding="UTF-8"?>
<svg xmlns="http://www.w3.org/2000/svg" width="56" height="49" viewBox="0 0 56 49">
  <title>atom 2982 d:1</title>
  <metadata>{&quot;entityType&quot;:&quot;atom&quot;,&quot;entityId&quot;:&quot;2982&quot;,&quot;token&quot;:&quot;d:1&quot;,&quot;signature&quot;:&quot;d:1&quot;,&quot;imageName&quot;:&quot;page-094.jpg&quot;,&quot;imageId&quot;:94,&quot;bounds&quot;:{&quot;x&quot;:2018,&quot;y&quot;:877,&quot;w&quot;:56,&quot;h&quot;:49},&quot;atoms&quot;:[{&quot;id&quot;:2982,&quot;token&quot;:&quot;d:1&quot;,&quot;particle_id&quot;:&quot;img94-m32-p1&quot;,&quot;molecule_id&quot;:&quot;img94-m32&quot;,&quot;atom_order&quot;:3}]}</metadata>
  <rect x="0" y="0" width="56" height="49" fill="#f8f0d8"/>
  <image href="file:///C:/Users/HHHES/AppData/Roaming/com.voynichlab.datasetcreator/images/1/33b1988f-7aaa-4207-bfa8-f26b742ac4b1.jpg" x="-2018" y="-877" width="2932" height="3769" opacity="0.92"/>
  <rect x="0.5" y="0.5" width="55" height="48" fill="none" stroke="#111827" stroke-width="1" opacity="0.35"/>
  <polyline points="18,33 17,32 17,31 17,30 17,29 16,29 16,28 16,27 16,26 16,25 16,24 16,23 16,22 17,21 17,20 18,20 18,19 19,19 19,18 20,18 21,17 22,17 23,16 24,16 25,16 26,16 27,16 28,16 29,16 30,16 31,16 31,17 32,17 33,17 34,17 34,18 35,18 35,19 36,19 36,20 37,20 38,20 38,21 39,21 39,22 40,22 40,23" fill="none" stroke="#ff2d55" stroke-width="3" stroke-linecap="round" stroke-linejoin="round" opacity="0.95">
    <title>2982 d:1</title>
  </polyline>
</svg>
