<?xml version="1.0" encoding="UTF-8"?>
<svg xmlns="http://www.w3.org/2000/svg" width="64" height="40" viewBox="0 0 64 40">
  <title>atom 3026 d:1</title>
  <metadata>{&quot;entityType&quot;:&quot;atom&quot;,&quot;entityId&quot;:&quot;3026&quot;,&quot;token&quot;:&quot;d:1&quot;,&quot;signature&quot;:&quot;d:1&quot;,&quot;imageName&quot;:&quot;page-094.jpg&quot;,&quot;imageId&quot;:94,&quot;bounds&quot;:{&quot;x&quot;:1196,&quot;y&quot;:942,&quot;w&quot;:64,&quot;h&quot;:40},&quot;atoms&quot;:[{&quot;id&quot;:3026,&quot;token&quot;:&quot;d:1&quot;,&quot;particle_id&quot;:&quot;img94-m38-p4&quot;,&quot;molecule_id&quot;:&quot;img94-m38&quot;,&quot;atom_order&quot;:3}]}</metadata>
  <rect x="0" y="0" width="64" height="40" fill="#f8f0d8"/>
  <image href="file:///C:/Users/HHHES/AppData/Roaming/com.voynichlab.datasetcreator/images/1/33b1988f-7aaa-4207-bfa8-f26b742ac4b1.jpg" x="-1196" y="-942" width="2932" height="3769" opacity="0.92"/>
  <rect x="0.5" y="0.5" width="63" height="39" fill="none" stroke="#111827" stroke-width="1" opacity="0.35"/>
  <polyline points="16,24 16,23 17,23 17,22 18,22 18,21 19,21 19,20 20,20 21,19 22,19 22,18 23,18 24,18 24,17 25,17 26,17 26,16 27,16 28,16 29,16 30,16 31,16 32,16 33,16 34,16 35,16 36,16 37,16 38,16 38,17 39,17 40,17 41,18 42,18 42,19 43,19 44,20 45,20 45,21 46,21 46,22 47,22 47,23 48,23" fill="none" stroke="#ff2d55" stroke-width="3" stroke-linecap="round" stroke-linejoin="round" opacity="0.95">
    <title>3026 d:1</title>
  </polyline>
</svg>
