<?xml version="1.0" encoding="UTF-8"?>
<svg xmlns="http://www.w3.org/2000/svg" width="58" height="46" viewBox="0 0 58 46">
  <title>atom 3027 d:1</title>
  <metadata>{&quot;entityType&quot;:&quot;atom&quot;,&quot;entityId&quot;:&quot;3027&quot;,&quot;token&quot;:&quot;d:1&quot;,&quot;signature&quot;:&quot;d:1&quot;,&quot;imageName&quot;:&quot;page-094.jpg&quot;,&quot;imageId&quot;:94,&quot;bounds&quot;:{&quot;x&quot;:1305,&quot;y&quot;:941,&quot;w&quot;:58,&quot;h&quot;:46},&quot;atoms&quot;:[{&quot;id&quot;:3027,&quot;token&quot;:&quot;d:1&quot;,&quot;particle_id&quot;:&quot;img94-m36-p1&quot;,&quot;molecule_id&quot;:&quot;img94-m36&quot;,&quot;atom_order&quot;:3}]}</metadata>
  <rect x="0" y="0" width="58" height="46" fill="#f8f0d8"/>
  <image href="file:///C:/Users/HHHES/AppData/Roaming/com.voynichlab.datasetcreator/images/1/33b1988f-7aaa-4207-bfa8-f26b742ac4b1.jpg" x="-1305" y="-941" width="2932" height="3769" opacity="0.92"/>
  <rect x="0.5" y="0.5" width="57" height="45" fill="none" stroke="#111827" stroke-width="1" opacity="0.35"/>
  <polyline points="16,30 16,27 17,23 18,21 19,20 19,19 20,19 21,18 22,18 22,17 23,17 24,17 25,17 26,16 27,16 28,16 29,16 30,16 31,16 32,16 32,17 33,17 34,17 35,17 36,17 36,18 37,18 38,18 39,18 39,19 40,19 40,20 41,20 41,21 42,21 42,22" fill="none" stroke="#ff2d55" stroke-width="3" stroke-linecap="round" stroke-linejoin="round" opacity="0.95">
    <title>3027 d:1</title>
  </polyline>
</svg>
