<?xml version="1.0" encoding="UTF-8"?>
<svg xmlns="http://www.w3.org/2000/svg" width="67" height="58" viewBox="0 0 67 58">
  <title>atom 4240 d:1</title>
  <metadata>{&quot;entityType&quot;:&quot;atom&quot;,&quot;entityId&quot;:&quot;4240&quot;,&quot;token&quot;:&quot;d:1&quot;,&quot;signature&quot;:&quot;d:1&quot;,&quot;imageName&quot;:&quot;page-094.jpg&quot;,&quot;imageId&quot;:94,&quot;bounds&quot;:{&quot;x&quot;:720,&quot;y&quot;:2422,&quot;w&quot;:67,&quot;h&quot;:58},&quot;atoms&quot;:[{&quot;id&quot;:4240,&quot;token&quot;:&quot;d:1&quot;,&quot;particle_id&quot;:&quot;img94-m40-p1&quot;,&quot;molecule_id&quot;:&quot;img94-m40&quot;,&quot;atom_order&quot;:7}]}</metadata>
  <rect x="0" y="0" width="67" height="58" fill="#f8f0d8"/>
  <image href="file:///C:/Users/HHHES/AppData/Roaming/com.voynichlab.datasetcreator/images/1/33b1988f-7aaa-4207-bfa8-f26b742ac4b1.jpg" x="-720" y="-2422" width="2932" height="3769" opacity="0.92"/>
  <rect x="0.5" y="0.5" width="66" height="57" fill="none" stroke="#111827" stroke-width="1" opacity="0.35"/>
  <polyline points="28,42 27,42 26,42 25,42 24,41 23,41 22,40 21,39 21,38 20,38 20,37 19,37 18,36 18,35 17,35 17,34 16,33 16,32 16,31 16,30 16,29 16,28 17,27 17,26 17,25 18,25 19,24 20,24 20,23 21,22 22,22 23,21 24,20 25,20 26,20 27,19 28,18 30,18 32,18 34,17 35,17 36,17 37,16 38,16 39,16 40,16 41,16 42,16 43,16 44,16 45,16 46,16 47,16 48,17 49,17 50,17 51,17" fill="none" stroke="#ff2d55" stroke-width="3" stroke-linecap="round" stroke-linejoin="round" opacity="0.95">
    <title>4240 d:1</title>
  </polyline>
</svg>
