<?xml version="1.0" encoding="UTF-8"?>
<svg xmlns="http://www.w3.org/2000/svg" width="84" height="42" viewBox="0 0 84 42">
  <title>atom 4256 d:1</title>
  <metadata>{&quot;entityType&quot;:&quot;atom&quot;,&quot;entityId&quot;:&quot;4256&quot;,&quot;token&quot;:&quot;d:1&quot;,&quot;signature&quot;:&quot;d:1&quot;,&quot;imageName&quot;:&quot;page-094.jpg&quot;,&quot;imageId&quot;:94,&quot;bounds&quot;:{&quot;x&quot;:940,&quot;y&quot;:2430,&quot;w&quot;:84,&quot;h&quot;:42},&quot;atoms&quot;:[{&quot;id&quot;:4256,&quot;token&quot;:&quot;d:1&quot;,&quot;particle_id&quot;:&quot;img94-m40-p2&quot;,&quot;molecule_id&quot;:&quot;img94-m40&quot;,&quot;atom_order&quot;:4}]}</metadata>
  <rect x="0" y="0" width="84" height="42" fill="#f8f0d8"/>
  <image href="file:///C:/Users/HHHES/AppData/Roaming/com.voynichlab.datasetcreator/images/1/33b1988f-7aaa-4207-bfa8-f26b742ac4b1.jpg" x="-940" y="-2430" width="2932" height="3769" opacity="0.92"/>
  <rect x="0.5" y="0.5" width="83" height="41" fill="none" stroke="#111827" stroke-width="1" opacity="0.35"/>
  <polyline points="16,26 16,25 17,24 18,24 19,24 19,23 20,23 21,22 22,22 23,22 23,21 24,21 25,20 26,20 27,19 28,19 29,18 31,18 32,17 33,17 34,17 35,16 36,16 37,16 38,16 39,16 41,16 43,16 45,16 46,16 47,16 48,16 49,16 51,16 52,16 53,17 54,17 55,17 56,17 57,18 58,18 59,18 59,19 60,19 61,19 61,20 62,20 63,21 64,22 65,22 65,23 66,23 66,24 67,24 67,25 67,26 68,26" fill="none" stroke="#ff2d55" stroke-width="3" stroke-linecap="round" stroke-linejoin="round" opacity="0.95">
    <title>4256 d:1</title>
  </polyline>
</svg>
