<?xml version="1.0" encoding="UTF-8"?>
<svg xmlns="http://www.w3.org/2000/svg" width="75" height="35" viewBox="0 0 75 35">
  <title>atom 4376 d:1</title>
  <metadata>{&quot;entityType&quot;:&quot;atom&quot;,&quot;entityId&quot;:&quot;4376&quot;,&quot;token&quot;:&quot;d:1&quot;,&quot;signature&quot;:&quot;d:1&quot;,&quot;imageName&quot;:&quot;page-094.jpg&quot;,&quot;imageId&quot;:94,&quot;bounds&quot;:{&quot;x&quot;:1680,&quot;y&quot;:2569,&quot;w&quot;:75,&quot;h&quot;:35},&quot;atoms&quot;:[{&quot;id&quot;:4376,&quot;token&quot;:&quot;d:1&quot;,&quot;particle_id&quot;:&quot;img94-m48-p2&quot;,&quot;molecule_id&quot;:&quot;img94-m48&quot;,&quot;atom_order&quot;:5}]}</metadata>
  <rect x="0" y="0" width="75" height="35" fill="#f8f0d8"/>
  <image href="file:///C:/Users/HHHES/AppData/Roaming/com.voynichlab.datasetcreator/images/1/33b1988f-7aaa-4207-bfa8-f26b742ac4b1.jpg" x="-1680" y="-2569" width="2932" height="3769" opacity="0.92"/>
  <rect x="0.5" y="0.5" width="74" height="34" fill="none" stroke="#111827" stroke-width="1" opacity="0.35"/>
  <polyline points="16,19 17,18 18,18 19,18 21,17 22,17 23,17 24,17 25,17 27,17 28,17 29,16 30,16 31,16 32,16 34,16 35,16 36,16 37,16 38,16 40,16 41,16 42,16 43,16 44,17 46,17 47,17 49,17 50,17 51,17 52,17 53,17 55,17 55,18 56,18 57,18 58,18 59,19" fill="none" stroke="#ff2d55" stroke-width="3" stroke-linecap="round" stroke-linejoin="round" opacity="0.95">
    <title>4376 d:1</title>
  </polyline>
</svg>
