<?xml version="1.0" encoding="UTF-8"?>
<svg xmlns="http://www.w3.org/2000/svg" width="76" height="42" viewBox="0 0 76 42">
  <title>atom 4636 d:1</title>
  <metadata>{&quot;entityType&quot;:&quot;atom&quot;,&quot;entityId&quot;:&quot;4636&quot;,&quot;token&quot;:&quot;d:1&quot;,&quot;signature&quot;:&quot;d:1&quot;,&quot;imageName&quot;:&quot;page-094.jpg&quot;,&quot;imageId&quot;:94,&quot;bounds&quot;:{&quot;x&quot;:1104,&quot;y&quot;:2834,&quot;w&quot;:76,&quot;h&quot;:42},&quot;atoms&quot;:[{&quot;id&quot;:4636,&quot;token&quot;:&quot;d:1&quot;,&quot;particle_id&quot;:&quot;img94-m70-p4&quot;,&quot;molecule_id&quot;:&quot;img94-m70&quot;,&quot;atom_order&quot;:3}]}</metadata>
  <rect x="0" y="0" width="76" height="42" fill="#f8f0d8"/>
  <image href="file:///C:/Users/HHHES/AppData/Roaming/com.voynichlab.datasetcreator/images/1/33b1988f-7aaa-4207-bfa8-f26b742ac4b1.jpg" x="-1104" y="-2834" width="2932" height="3769" opacity="0.92"/>
  <rect x="0.5" y="0.5" width="75" height="41" fill="none" stroke="#111827" stroke-width="1" opacity="0.35"/>
  <polyline points="16,21 17,21 17,20 18,20 18,19 19,19 20,18 21,18 22,17 23,17 24,17 25,17 26,16 27,16 28,16 29,16 31,16 32,16 34,16 35,16 37,16 40,16 41,16 42,16 43,16 45,16 46,16 47,16 48,17 49,17 50,17 51,18 52,18 52,19 53,19 54,19 54,20 55,20 56,21 57,22 57,23 58,23 58,24 59,25 59,26 60,26" fill="none" stroke="#ff2d55" stroke-width="3" stroke-linecap="round" stroke-linejoin="round" opacity="0.95">
    <title>4636 d:1</title>
  </polyline>
</svg>
