<?xml version="1.0" encoding="UTF-8"?>
<svg xmlns="http://www.w3.org/2000/svg" width="84" height="37" viewBox="0 0 84 37">
  <title>atom 5488 d:1</title>
  <metadata>{&quot;entityType&quot;:&quot;atom&quot;,&quot;entityId&quot;:&quot;5488&quot;,&quot;token&quot;:&quot;d:1&quot;,&quot;signature&quot;:&quot;d:1&quot;,&quot;imageName&quot;:&quot;page-094.jpg&quot;,&quot;imageId&quot;:94,&quot;bounds&quot;:{&quot;x&quot;:727,&quot;y&quot;:2424,&quot;w&quot;:84,&quot;h&quot;:37},&quot;atoms&quot;:[{&quot;id&quot;:5488,&quot;token&quot;:&quot;d:1&quot;,&quot;particle_id&quot;:&quot;img94-m40-p1&quot;,&quot;molecule_id&quot;:&quot;img94-m40&quot;,&quot;atom_order&quot;:8}]}</metadata>
  <rect x="0" y="0" width="84" height="37" fill="#f8f0d8"/>
  <image href="file:///C:/Users/HHHES/AppData/Roaming/com.voynichlab.datasetcreator/images/1/33b1988f-7aaa-4207-bfa8-f26b742ac4b1.jpg" x="-727" y="-2424" width="2932" height="3769" opacity="0.92"/>
  <rect x="0.5" y="0.5" width="83" height="36" fill="none" stroke="#111827" stroke-width="1" opacity="0.35"/>
  <polyline points="16,21 17,21 17,20 18,20 19,20 20,19 21,19 22,19 23,19 24,19 25,19 25,18 26,18 27,18 28,18 29,17 30,17 31,17 32,17 33,17 34,17 35,17 36,17 37,17 38,16 40,16 41,16 42,16 43,16 44,16 45,16 46,16 47,16 48,16 49,16 49,17 50,17 51,17 52,17 53,17 54,17 55,17 56,17 57,17 59,17 59,18 60,18 61,18 62,18 63,19 64,19 65,19 67,19 68,20" fill="none" stroke="#ff2d55" stroke-width="3" stroke-linecap="round" stroke-linejoin="round" opacity="0.95">
    <title>5488 d:1</title>
  </polyline>
</svg>
