<?xml version="1.0" encoding="UTF-8"?>
<svg xmlns="http://www.w3.org/2000/svg" width="82" height="88" viewBox="0 0 82 88">
  <title>atom 2670 j:1</title>
  <metadata>{&quot;entityType&quot;:&quot;atom&quot;,&quot;entityId&quot;:&quot;2670&quot;,&quot;token&quot;:&quot;j:1&quot;,&quot;signature&quot;:&quot;j:1&quot;,&quot;imageName&quot;:&quot;page-094.jpg&quot;,&quot;imageId&quot;:94,&quot;bounds&quot;:{&quot;x&quot;:1844,&quot;y&quot;:552,&quot;w&quot;:82,&quot;h&quot;:88},&quot;atoms&quot;:[{&quot;id&quot;:2670,&quot;token&quot;:&quot;j:1&quot;,&quot;particle_id&quot;:&quot;img94-m2-p3&quot;,&quot;molecule_id&quot;:&quot;img94-m2&quot;,&quot;atom_order&quot;:2}]}</metadata>
  <rect x="0" y="0" width="82" height="88" fill="#f8f0d8"/>
  
  <rect x="0.5" y="0.5" width="81" height="87" fill="none" stroke="#111827" stroke-width="1" opacity="0.35"/>
  <polyline points="44,22 45,21 46,21 46,20 47,20 47,19 48,19 49,19 49,18 50,18 51,18 51,17 52,17 53,17 54,17 55,16 56,16 57,16 58,16 59,16 60,16 61,16 62,16 63,16 64,16 65,16 65,17 65,18 66,18 66,19 66,20 66,21 66,22 66,23 66,24 66,25 66,26 66,27 66,28 65,29 65,30 64,31 64,32 63,32 63,33 62,33 62,34 61,34 61,35 60,35 60,36 59,36 59,37 58,37 58,38 57,38 56,39 56,40 55,40 55,41 54,41 54,42 53,42 53,43 52,43 52,44 51,44 51,45 50,45 49,46 48,47 47,48 46,48 46,49 45,49 44,50 43,50 43,51 42,52 41,52 41,53 40,53 40,54 39,54 38,55 37,55 37,56 36,56 35,57 35,58 34,58 33,59 32,60 31,60 31,61 30,61 29,62 28,62 27,63 26,63 26,64 25,64 25,65 24,65 23,66 22,67 21,67 21,68 20,69 19,69 19,70 18,70 18,71 17,71 16,72" fill="none" stroke="#4a9e6a" stroke-width="3" stroke-linecap="round" stroke-linejoin="round" opacity="0.95">
    <title>2670 j:1</title>
  </polyline>
</svg>
