<?xml version="1.0" encoding="UTF-8"?>
<svg xmlns="http://www.w3.org/2000/svg" width="51" height="56" viewBox="0 0 51 56">
  <title>atom 2687 e:1</title>
  <metadata>{&quot;entityType&quot;:&quot;atom&quot;,&quot;entityId&quot;:&quot;2687&quot;,&quot;token&quot;:&quot;e:1&quot;,&quot;signature&quot;:&quot;e:1&quot;,&quot;imageName&quot;:&quot;page-094.jpg&quot;,&quot;imageId&quot;:94,&quot;bounds&quot;:{&quot;x&quot;:825,&quot;y&quot;:639,&quot;w&quot;:51,&quot;h&quot;:56},&quot;atoms&quot;:[{&quot;id&quot;:2687,&quot;token&quot;:&quot;e:1&quot;,&quot;particle_id&quot;:&quot;img94-m9-p1&quot;,&quot;molecule_id&quot;:&quot;img94-m9&quot;,&quot;atom_order&quot;:1}]}</metadata>
  <rect x="0" y="0" width="51" height="56" fill="#f8f0d8"/>
  <image href="file:///C:/Users/HHHES/AppData/Roaming/com.voynichlab.datasetcreator/images/1/33b1988f-7aaa-4207-bfa8-f26b742ac4b1.jpg" x="-825" y="-639" width="2932" height="3769" opacity="0.92"/>
  <rect x="0.5" y="0.5" width="50" height="55" fill="none" stroke="#111827" stroke-width="1" opacity="0.35"/>
  <polyline points="35,35 35,36 34,36 34,37 33,37 33,38 32,38 31,39 30,39 30,40 29,40 28,40 27,40 26,40 25,40 24,40 23,39 22,39 22,38 21,38 21,37 20,37 20,36 19,36 18,36 18,35 17,35 17,34 17,33 16,33 16,32 16,31 16,30 16,29 16,28 16,27 17,27 17,26 17,25 18,25 18,24 18,23 19,23 19,22 19,21 20,21 20,20 20,19 21,19 21,18 22,18 23,17 24,17 25,17 25,16 26,16 27,16" fill="none" stroke="#f2e45c" stroke-width="3" stroke-linecap="round" stroke-linejoin="round" opacity="0.95">
    <title>2687 e:1</title>
  </polyline>
</svg>
