<?xml version="1.0" encoding="UTF-8"?>
<svg xmlns="http://www.w3.org/2000/svg" width="45" height="51" viewBox="0 0 45 51">
  <title>atom 2688 e:1</title>
  <metadata>{&quot;entityType&quot;:&quot;atom&quot;,&quot;entityId&quot;:&quot;2688&quot;,&quot;token&quot;:&quot;e:1&quot;,&quot;signature&quot;:&quot;e:1&quot;,&quot;imageName&quot;:&quot;page-094.jpg&quot;,&quot;imageId&quot;:94,&quot;bounds&quot;:{&quot;x&quot;:903,&quot;y&quot;:642,&quot;w&quot;:45,&quot;h&quot;:51},&quot;atoms&quot;:[{&quot;id&quot;:2688,&quot;token&quot;:&quot;e:1&quot;,&quot;particle_id&quot;:&quot;img94-m9-p4&quot;,&quot;molecule_id&quot;:&quot;img94-m9&quot;,&quot;atom_order&quot;:3}]}</metadata>
  <rect x="0" y="0" width="45" height="51" fill="#f8f0d8"/>
  <image href="file:///C:/Users/HHHES/AppData/Roaming/com.voynichlab.datasetcreator/images/1/33b1988f-7aaa-4207-bfa8-f26b742ac4b1.jpg" x="-903" y="-642" width="2932" height="3769" opacity="0.92"/>
  <rect x="0.5" y="0.5" width="44" height="50" fill="none" stroke="#111827" stroke-width="1" opacity="0.35"/>
  <polyline points="27,33 26,33 26,34 25,34 25,35 24,35 23,35 22,35 21,35 20,35 19,35 18,35 17,35 17,34 16,34 16,33 16,32 16,31 16,30 16,29 16,28 16,27 16,26 16,25 16,24 16,23 17,23 17,22 18,22 18,21 19,21 19,20 20,20 20,19 21,19 21,18 22,18 23,18 23,17 24,17 25,17 26,16 27,16 28,17 29,17 29,18 29,19" fill="none" stroke="#f2e45c" stroke-width="3" stroke-linecap="round" stroke-linejoin="round" opacity="0.95">
    <title>2688 e:1</title>
  </polyline>
</svg>
