<?xml version="1.0" encoding="UTF-8"?>
<svg xmlns="http://www.w3.org/2000/svg" width="50" height="54" viewBox="0 0 50 54">
  <title>atom 2812 e:1</title>
  <metadata>{&quot;entityType&quot;:&quot;atom&quot;,&quot;entityId&quot;:&quot;2812&quot;,&quot;token&quot;:&quot;e:1&quot;,&quot;signature&quot;:&quot;e:1&quot;,&quot;imageName&quot;:&quot;page-094.jpg&quot;,&quot;imageId&quot;:94,&quot;bounds&quot;:{&quot;x&quot;:2091,&quot;y&quot;:736,&quot;w&quot;:50,&quot;h&quot;:54},&quot;atoms&quot;:[{&quot;id&quot;:2812,&quot;token&quot;:&quot;e:1&quot;,&quot;particle_id&quot;:&quot;img94-m15-p2&quot;,&quot;molecule_id&quot;:&quot;img94-m15&quot;,&quot;atom_order&quot;:1}]}</metadata>
  <rect x="0" y="0" width="50" height="54" fill="#f8f0d8"/>
  <image href="file:///C:/Users/HHHES/AppData/Roaming/com.voynichlab.datasetcreator/images/1/33b1988f-7aaa-4207-bfa8-f26b742ac4b1.jpg" x="-2091" y="-736" width="2932" height="3769" opacity="0.92"/>
  <rect x="0.5" y="0.5" width="49" height="53" fill="none" stroke="#111827" stroke-width="1" opacity="0.35"/>
  <polyline points="29,36 29,37 28,37 27,37 26,38 25,38 24,38 23,38 22,38 21,38 21,37 20,37 19,37 18,37 17,36 17,35 16,34 16,33 16,32 16,31 16,30 16,29 16,28 16,27 17,26 17,25 17,24 18,24 18,23 18,22 19,22 19,21 20,21 20,20 21,20 21,19 22,19 23,18 24,18 25,17 26,17 27,17 27,16 28,16 29,16 30,16 31,16 32,16 33,16 34,16" fill="none" stroke="#f2e45c" stroke-width="3" stroke-linecap="round" stroke-linejoin="round" opacity="0.95">
    <title>2812 e:1</title>
  </polyline>
</svg>
