<?xml version="1.0" encoding="UTF-8"?>
<svg xmlns="http://www.w3.org/2000/svg" width="48" height="56" viewBox="0 0 48 56">
  <title>atom 2857 e:1</title>
  <metadata>{&quot;entityType&quot;:&quot;atom&quot;,&quot;entityId&quot;:&quot;2857&quot;,&quot;token&quot;:&quot;e:1&quot;,&quot;signature&quot;:&quot;e:1&quot;,&quot;imageName&quot;:&quot;page-094.jpg&quot;,&quot;imageId&quot;:94,&quot;bounds&quot;:{&quot;x&quot;:891,&quot;y&quot;:763,&quot;w&quot;:48,&quot;h&quot;:56},&quot;atoms&quot;:[{&quot;id&quot;:2857,&quot;token&quot;:&quot;e:1&quot;,&quot;particle_id&quot;:&quot;img94-m25-p2&quot;,&quot;molecule_id&quot;:&quot;img94-m25&quot;,&quot;atom_order&quot;:2}]}</metadata>
  <rect x="0" y="0" width="48" height="56" fill="#f8f0d8"/>
  <image href="file:///C:/Users/HHHES/AppData/Roaming/com.voynichlab.datasetcreator/images/1/33b1988f-7aaa-4207-bfa8-f26b742ac4b1.jpg" x="-891" y="-763" width="2932" height="3769" opacity="0.92"/>
  <rect x="0.5" y="0.5" width="47" height="55" fill="none" stroke="#111827" stroke-width="1" opacity="0.35"/>
  <polyline points="21,40 21,39 20,39 19,39 19,38 18,38 18,37 18,36 17,36 17,35 17,34 16,34 16,33 16,32 16,31 16,30 17,29 17,28 18,27 18,26 19,26 19,25 19,24 20,24 20,23 21,23 21,22 22,22 22,21 23,21 23,20 24,20 25,19 26,19 26,18 27,18 28,18 28,17 29,17 30,17 31,17 31,16 32,16" fill="none" stroke="#f2e45c" stroke-width="3" stroke-linecap="round" stroke-linejoin="round" opacity="0.95">
    <title>2857 e:1</title>
  </polyline>
</svg>
