<?xml version="1.0" encoding="UTF-8"?>
<svg xmlns="http://www.w3.org/2000/svg" width="52" height="50" viewBox="0 0 52 50">
  <title>atom 2912 e:1</title>
  <metadata>{&quot;entityType&quot;:&quot;atom&quot;,&quot;entityId&quot;:&quot;2912&quot;,&quot;token&quot;:&quot;e:1&quot;,&quot;signature&quot;:&quot;e:1&quot;,&quot;imageName&quot;:&quot;page-094.jpg&quot;,&quot;imageId&quot;:94,&quot;bounds&quot;:{&quot;x&quot;:1849,&quot;y&quot;:759,&quot;w&quot;:52,&quot;h&quot;:50},&quot;atoms&quot;:[{&quot;id&quot;:2912,&quot;token&quot;:&quot;e:1&quot;,&quot;particle_id&quot;:&quot;img94-m24-p2&quot;,&quot;molecule_id&quot;:&quot;img94-m24&quot;,&quot;atom_order&quot;:2}]}</metadata>
  <rect x="0" y="0" width="52" height="50" fill="#f8f0d8"/>
  <image href="file:///C:/Users/HHHES/AppData/Roaming/com.voynichlab.datasetcreator/images/1/33b1988f-7aaa-4207-bfa8-f26b742ac4b1.jpg" x="-1849" y="-759" width="2932" height="3769" opacity="0.92"/>
  <rect x="0.5" y="0.5" width="51" height="49" fill="none" stroke="#111827" stroke-width="1" opacity="0.35"/>
  <polyline points="19,34 19,33 18,33 18,32 17,32 17,31 16,30 16,29 16,28 16,27 16,26 16,25 16,24 17,24 17,23 18,23 18,22 19,22 19,21 20,21 20,20 21,20 22,19 23,19 24,18 25,18 25,17 26,17 27,17 27,16 28,16 29,16 30,16 31,16 32,16 33,16 34,16 35,16 36,16" fill="none" stroke="#f2e45c" stroke-width="3" stroke-linecap="round" stroke-linejoin="round" opacity="0.95">
    <title>2912 e:1</title>
  </polyline>
</svg>
