<?xml version="1.0" encoding="UTF-8"?>
<svg xmlns="http://www.w3.org/2000/svg" width="42" height="60" viewBox="0 0 42 60">
  <title>atom 2970 e:1</title>
  <metadata>{&quot;entityType&quot;:&quot;atom&quot;,&quot;entityId&quot;:&quot;2970&quot;,&quot;token&quot;:&quot;e:1&quot;,&quot;signature&quot;:&quot;e:1&quot;,&quot;imageName&quot;:&quot;page-094.jpg&quot;,&quot;imageId&quot;:94,&quot;bounds&quot;:{&quot;x&quot;:1554,&quot;y&quot;:869,&quot;w&quot;:42,&quot;h&quot;:60},&quot;atoms&quot;:[{&quot;id&quot;:2970,&quot;token&quot;:&quot;e:1&quot;,&quot;particle_id&quot;:&quot;img94-m31-p2&quot;,&quot;molecule_id&quot;:&quot;img94-m31&quot;,&quot;atom_order&quot;:1}]}</metadata>
  <rect x="0" y="0" width="42" height="60" fill="#f8f0d8"/>
  <image href="file:///C:/Users/HHHES/AppData/Roaming/com.voynichlab.datasetcreator/images/1/33b1988f-7aaa-4207-bfa8-f26b742ac4b1.jpg" x="-1554" y="-869" width="2932" height="3769" opacity="0.92"/>
  <rect x="0.5" y="0.5" width="41" height="59" fill="none" stroke="#111827" stroke-width="1" opacity="0.35"/>
  <polyline points="21,44 20,44 20,43 19,43 18,43 18,42 18,41 17,41 17,40 16,40 16,39 16,38 16,37 16,36 16,35 16,34 16,33 16,32 16,31 16,30 16,29 17,28 17,27 17,26 17,25 17,24 18,24 18,23 19,22 20,22 20,21 21,21 21,20 21,19 22,19 22,18 23,18 23,17 24,17 24,16 25,16 26,16" fill="none" stroke="#f2e45c" stroke-width="3" stroke-linecap="round" stroke-linejoin="round" opacity="0.95">
    <title>2970 e:1</title>
  </polyline>
</svg>
