<?xml version="1.0" encoding="UTF-8"?>
<svg xmlns="http://www.w3.org/2000/svg" width="48" height="57" viewBox="0 0 48 57">
  <title>atom 4332 e:1</title>
  <metadata>{&quot;entityType&quot;:&quot;atom&quot;,&quot;entityId&quot;:&quot;4332&quot;,&quot;token&quot;:&quot;e:1&quot;,&quot;signature&quot;:&quot;e:1&quot;,&quot;imageName&quot;:&quot;page-094.jpg&quot;,&quot;imageId&quot;:94,&quot;bounds&quot;:{&quot;x&quot;:1090,&quot;y&quot;:2495,&quot;w&quot;:48,&quot;h&quot;:57},&quot;atoms&quot;:[{&quot;id&quot;:4332,&quot;token&quot;:&quot;e:1&quot;,&quot;particle_id&quot;:&quot;img94-m47-p1&quot;,&quot;molecule_id&quot;:&quot;img94-m47&quot;,&quot;atom_order&quot;:2}]}</metadata>
  <rect x="0" y="0" width="48" height="57" fill="#f8f0d8"/>
  <image href="file:///C:/Users/HHHES/AppData/Roaming/com.voynichlab.datasetcreator/images/1/33b1988f-7aaa-4207-bfa8-f26b742ac4b1.jpg" x="-1090" y="-2495" width="2932" height="3769" opacity="0.92"/>
  <rect x="0.5" y="0.5" width="47" height="56" fill="none" stroke="#111827" stroke-width="1" opacity="0.35"/>
  <polyline points="32,16 31,17 30,17 30,18 29,18 29,19 28,20 27,20 27,21 25,21 24,22 23,22 23,23 22,23 21,23 20,24 20,25 19,25 18,25 18,26 17,27 17,28 16,29 16,30 16,31 16,32 16,33 16,34 16,35 16,36 16,37 17,37 17,38 18,39 19,40 20,40 21,40 21,41 22,41 23,41 24,41 25,41 26,41 26,40 27,40 28,40 29,40 29,39 30,39 30,38" fill="none" stroke="#f2e45c" stroke-width="3" stroke-linecap="round" stroke-linejoin="round" opacity="0.95">
    <title>4332 e:1</title>
  </polyline>
</svg>
