<?xml version="1.0" encoding="UTF-8"?>
<svg xmlns="http://www.w3.org/2000/svg" width="53" height="55" viewBox="0 0 53 55">
  <title>atom 4355 e:1</title>
  <metadata>{&quot;entityType&quot;:&quot;atom&quot;,&quot;entityId&quot;:&quot;4355&quot;,&quot;token&quot;:&quot;e:1&quot;,&quot;signature&quot;:&quot;e:1&quot;,&quot;imageName&quot;:&quot;page-094.jpg&quot;,&quot;imageId&quot;:94,&quot;bounds&quot;:{&quot;x&quot;:1136,&quot;y&quot;:2567,&quot;w&quot;:53,&quot;h&quot;:55},&quot;atoms&quot;:[{&quot;id&quot;:4355,&quot;token&quot;:&quot;e:1&quot;,&quot;particle_id&quot;:&quot;img94-m51-p3&quot;,&quot;molecule_id&quot;:&quot;img94-m51&quot;,&quot;atom_order&quot;:2}]}</metadata>
  <rect x="0" y="0" width="53" height="55" fill="#f8f0d8"/>
  <image href="file:///C:/Users/HHHES/AppData/Roaming/com.voynichlab.datasetcreator/images/1/33b1988f-7aaa-4207-bfa8-f26b742ac4b1.jpg" x="-1136" y="-2567" width="2932" height="3769" opacity="0.92"/>
  <rect x="0.5" y="0.5" width="52" height="54" fill="none" stroke="#111827" stroke-width="1" opacity="0.35"/>
  <polyline points="37,16 36,16 35,16 34,16 33,16 32,16 31,16 30,16 29,16 28,17 27,17 26,17 25,17 24,18 23,18 22,19 21,19 20,20 19,21 18,21 18,22 17,22 17,23 17,24 16,24 16,25 16,26 16,27 16,28 16,29 16,30 16,31 16,32 17,33 17,34 18,34 18,35 19,35 19,36 20,36 21,37 22,37 22,38 23,38 24,39 25,39 26,39 27,39 28,39 29,39" fill="none" stroke="#f2e45c" stroke-width="3" stroke-linecap="round" stroke-linejoin="round" opacity="0.95">
    <title>4355 e:1</title>
  </polyline>
</svg>
