<?xml version="1.0" encoding="UTF-8"?>
<svg xmlns="http://www.w3.org/2000/svg" width="56" height="55" viewBox="0 0 56 55">
  <title>atom 4624 e:1</title>
  <metadata>{&quot;entityType&quot;:&quot;atom&quot;,&quot;entityId&quot;:&quot;4624&quot;,&quot;token&quot;:&quot;e:1&quot;,&quot;signature&quot;:&quot;e:1&quot;,&quot;imageName&quot;:&quot;page-094.jpg&quot;,&quot;imageId&quot;:94,&quot;bounds&quot;:{&quot;x&quot;:1380,&quot;y&quot;:2893,&quot;w&quot;:56,&quot;h&quot;:55},&quot;atoms&quot;:[{&quot;id&quot;:4624,&quot;token&quot;:&quot;e:1&quot;,&quot;particle_id&quot;:&quot;img94-m80-p5&quot;,&quot;molecule_id&quot;:&quot;img94-m80&quot;,&quot;atom_order&quot;:2}]}</metadata>
  <rect x="0" y="0" width="56" height="55" fill="#f8f0d8"/>
  <image href="file:///C:/Users/HHHES/AppData/Roaming/com.voynichlab.datasetcreator/images/1/33b1988f-7aaa-4207-bfa8-f26b742ac4b1.jpg" x="-1380" y="-2893" width="2932" height="3769" opacity="0.92"/>
  <rect x="0.5" y="0.5" width="55" height="54" fill="none" stroke="#111827" stroke-width="1" opacity="0.35"/>
  <polyline points="40,16 39,16 38,16 37,16 37,17 36,17 35,17 34,18 33,18 32,18 31,19 30,19 29,19 28,20 27,20 26,21 25,21 25,22 24,22 23,22 22,23 21,23 21,24 20,24 20,25 19,25 19,26 19,27 18,27 18,28 17,28 17,29 17,30 16,31 16,32 16,33 16,34 16,35 17,35 17,36 18,36 19,37 20,37 21,37 22,38 23,39 24,39" fill="none" stroke="#f2e45c" stroke-width="3" stroke-linecap="round" stroke-linejoin="round" opacity="0.95">
    <title>4624 e:1</title>
  </polyline>
</svg>
