<?xml version="1.0" encoding="UTF-8"?>
<svg xmlns="http://www.w3.org/2000/svg" width="42" height="68" viewBox="0 0 42 68">
  <title>atom 5262 h:1</title>
  <metadata>{&quot;entityType&quot;:&quot;atom&quot;,&quot;entityId&quot;:&quot;5262&quot;,&quot;token&quot;:&quot;h:1&quot;,&quot;signature&quot;:&quot;h:1&quot;,&quot;imageName&quot;:&quot;page-004.jpg&quot;,&quot;imageId&quot;:4,&quot;bounds&quot;:{&quot;x&quot;:2421,&quot;y&quot;:2082,&quot;w&quot;:42,&quot;h&quot;:68},&quot;atoms&quot;:[{&quot;id&quot;:5262,&quot;token&quot;:&quot;h:1&quot;,&quot;particle_id&quot;:&quot;img4-m18-p4&quot;,&quot;molecule_id&quot;:&quot;img4-m18&quot;,&quot;atom_order&quot;:2}]}</metadata>
  <rect x="0" y="0" width="42" height="68" fill="#f8f0d8"/>
  <image href="file:///C:/Users/HHHES/AppData/Roaming/com.voynichlab.datasetcreator/images/1/aff30327-ced8-4ab4-8c9b-190205ebe022.jpg" x="-2421" y="-2082" width="2804" height="3797" opacity="0.92"/>
  <rect x="0.5" y="0.5" width="41" height="67" fill="none" stroke="#111827" stroke-width="1" opacity="0.35"/>
  <polyline points="17,16 18,17 19,17 20,18 21,18 21,19 22,19 22,20 23,21 24,22 24,23 24,24 25,24 25,25 25,26 25,27 26,28 26,29 26,30 26,31 26,32 25,33 25,34 25,35 25,36 25,37 24,38 24,39 24,40 23,41 23,42 23,43 23,44 22,45 22,46 21,47 21,48 20,48 19,49 18,50 17,51 17,52 16,52" fill="none" stroke="#ff8c00" stroke-width="3" stroke-linecap="round" stroke-linejoin="round" opacity="0.95">
    <title>5262 h:1</title>
  </polyline>
</svg>
