<?xml version="1.0" encoding="UTF-8"?>
<svg xmlns="http://www.w3.org/2000/svg" width="48" height="65" viewBox="0 0 48 65">
  <title>atom 5267 h:1</title>
  <metadata>{&quot;entityType&quot;:&quot;atom&quot;,&quot;entityId&quot;:&quot;5267&quot;,&quot;token&quot;:&quot;h:1&quot;,&quot;signature&quot;:&quot;h:1&quot;,&quot;imageName&quot;:&quot;page-004.jpg&quot;,&quot;imageId&quot;:4,&quot;bounds&quot;:{&quot;x&quot;:1006,&quot;y&quot;:2055,&quot;w&quot;:48,&quot;h&quot;:65},&quot;atoms&quot;:[{&quot;id&quot;:5267,&quot;token&quot;:&quot;h:1&quot;,&quot;particle_id&quot;:&quot;img4-m13-p4&quot;,&quot;molecule_id&quot;:&quot;img4-m13&quot;,&quot;atom_order&quot;:2}]}</metadata>
  <rect x="0" y="0" width="48" height="65" fill="#f8f0d8"/>
  <image href="file:///C:/Users/HHHES/AppData/Roaming/com.voynichlab.datasetcreator/images/1/aff30327-ced8-4ab4-8c9b-190205ebe022.jpg" x="-1006" y="-2055" width="2804" height="3797" opacity="0.92"/>
  <rect x="0.5" y="0.5" width="47" height="64" fill="none" stroke="#111827" stroke-width="1" opacity="0.35"/>
  <polyline points="16,16 17,16 18,16 19,17 20,17 21,18 22,18 22,19 23,19 24,20 25,21 25,22 26,22 26,23 27,23 27,24 28,25 28,26 29,26 29,27 29,28 30,28 30,29 31,30 31,31 31,32 32,33 32,34 32,35 32,36 32,37 32,38 32,39 32,40 32,41 32,42 32,43 32,44 32,45 32,46 31,46 31,47 31,48 31,49" fill="none" stroke="#ff8c00" stroke-width="3" stroke-linecap="round" stroke-linejoin="round" opacity="0.95">
    <title>5267 h:1</title>
  </polyline>
</svg>
