<?xml version="1.0" encoding="UTF-8"?>
<svg xmlns="http://www.w3.org/2000/svg" width="41" height="69" viewBox="0 0 41 69">
  <title>atom 5270 h:1</title>
  <metadata>{&quot;entityType&quot;:&quot;atom&quot;,&quot;entityId&quot;:&quot;5270&quot;,&quot;token&quot;:&quot;h:1&quot;,&quot;signature&quot;:&quot;h:1&quot;,&quot;imageName&quot;:&quot;page-004.jpg&quot;,&quot;imageId&quot;:4,&quot;bounds&quot;:{&quot;x&quot;:1811,&quot;y&quot;:2120,&quot;w&quot;:41,&quot;h&quot;:69},&quot;atoms&quot;:[{&quot;id&quot;:5270,&quot;token&quot;:&quot;h:1&quot;,&quot;particle_id&quot;:&quot;img4-m21-p7&quot;,&quot;molecule_id&quot;:&quot;img4-m21&quot;,&quot;atom_order&quot;:2}]}</metadata>
  <rect x="0" y="0" width="41" height="69" fill="#f8f0d8"/>
  <image href="file:///C:/Users/HHHES/AppData/Roaming/com.voynichlab.datasetcreator/images/1/aff30327-ced8-4ab4-8c9b-190205ebe022.jpg" x="-1811" y="-2120" width="2804" height="3797" opacity="0.92"/>
  <rect x="0.5" y="0.5" width="40" height="68" fill="none" stroke="#111827" stroke-width="1" opacity="0.35"/>
  <polyline points="16,16 17,17 18,18 19,19 20,20 21,21 21,22 22,22 22,23 23,23 23,24 24,24 24,25 25,26 25,27 25,28 25,29 25,30 25,31 25,32 25,33 25,34 25,35 25,37 25,38 25,39 24,40 24,41 24,42 24,43 23,44 22,46 21,47 21,48 20,48 20,49 19,49 19,50 18,51 18,52 17,52 17,53" fill="none" stroke="#ff8c00" stroke-width="3" stroke-linecap="round" stroke-linejoin="round" opacity="0.95">
    <title>5270 h:1</title>
  </polyline>
</svg>
