<?xml version="1.0" encoding="UTF-8"?>
<svg xmlns="http://www.w3.org/2000/svg" width="46" height="69" viewBox="0 0 46 69">
  <title>atom 5271 h:1</title>
  <metadata>{&quot;entityType&quot;:&quot;atom&quot;,&quot;entityId&quot;:&quot;5271&quot;,&quot;token&quot;:&quot;h:1&quot;,&quot;signature&quot;:&quot;h:1&quot;,&quot;imageName&quot;:&quot;page-004.jpg&quot;,&quot;imageId&quot;:4,&quot;bounds&quot;:{&quot;x&quot;:1978,&quot;y&quot;:2124,&quot;w&quot;:46,&quot;h&quot;:69},&quot;atoms&quot;:[{&quot;id&quot;:5271,&quot;token&quot;:&quot;h:1&quot;,&quot;particle_id&quot;:&quot;img4-m19-p2&quot;,&quot;molecule_id&quot;:&quot;img4-m19&quot;,&quot;atom_order&quot;:2}]}</metadata>
  <rect x="0" y="0" width="46" height="69" fill="#f8f0d8"/>
  <image href="file:///C:/Users/HHHES/AppData/Roaming/com.voynichlab.datasetcreator/images/1/aff30327-ced8-4ab4-8c9b-190205ebe022.jpg" x="-1978" y="-2124" width="2804" height="3797" opacity="0.92"/>
  <rect x="0.5" y="0.5" width="45" height="68" fill="none" stroke="#111827" stroke-width="1" opacity="0.35"/>
  <polyline points="16,16 17,16 18,16 19,17 20,17 21,18 22,18 23,19 24,20 25,21 26,22 27,23 27,24 28,25 28,26 29,27 29,28 30,28 30,29 30,30 30,31 30,32 30,33 30,34 30,35 30,36 30,37 30,38 29,39 29,40 29,41 28,42 28,43 28,44 27,44 27,45 27,46 26,46 26,47 25,48 24,49 24,50 23,50 23,51 22,51 21,52 20,52 20,53 19,53" fill="none" stroke="#ff8c00" stroke-width="3" stroke-linecap="round" stroke-linejoin="round" opacity="0.95">
    <title>5271 h:1</title>
  </polyline>
</svg>
