<?xml version="1.0" encoding="UTF-8"?>
<svg xmlns="http://www.w3.org/2000/svg" width="50" height="78" viewBox="0 0 50 78">
  <title>atom 5273 h:1</title>
  <metadata>{&quot;entityType&quot;:&quot;atom&quot;,&quot;entityId&quot;:&quot;5273&quot;,&quot;token&quot;:&quot;h:1&quot;,&quot;signature&quot;:&quot;h:1&quot;,&quot;imageName&quot;:&quot;page-004.jpg&quot;,&quot;imageId&quot;:4,&quot;bounds&quot;:{&quot;x&quot;:1981,&quot;y&quot;:2186,&quot;w&quot;:50,&quot;h&quot;:78},&quot;atoms&quot;:[{&quot;id&quot;:5273,&quot;token&quot;:&quot;h:1&quot;,&quot;particle_id&quot;:&quot;img4-m29-p4&quot;,&quot;molecule_id&quot;:&quot;img4-m29&quot;,&quot;atom_order&quot;:2}]}</metadata>
  <rect x="0" y="0" width="50" height="78" fill="#f8f0d8"/>
  <image href="file:///C:/Users/HHHES/AppData/Roaming/com.voynichlab.datasetcreator/images/1/aff30327-ced8-4ab4-8c9b-190205ebe022.jpg" x="-1981" y="-2186" width="2804" height="3797" opacity="0.92"/>
  <rect x="0.5" y="0.5" width="49" height="77" fill="none" stroke="#111827" stroke-width="1" opacity="0.35"/>
  <polyline points="25,16 25,17 25,18 26,18 26,19 27,19 27,20 28,20 28,21 29,21 29,22 30,22 30,23 31,24 32,25 32,26 32,27 32,28 33,29 33,30 34,30 34,31 34,32 34,33 34,34 34,35 34,36 34,37 34,38 34,39 33,41 32,42 32,43 31,44 31,45 30,46 30,47 29,49 28,50 27,51 26,52 25,53 24,54 23,55 22,56 22,57 21,57 21,58 19,59 18,60 17,61 16,62" fill="none" stroke="#ff8c00" stroke-width="3" stroke-linecap="round" stroke-linejoin="round" opacity="0.95">
    <title>5273 h:1</title>
  </polyline>
</svg>
