<?xml version="1.0" encoding="UTF-8"?>
<svg xmlns="http://www.w3.org/2000/svg" width="55" height="77" viewBox="0 0 55 77">
  <title>atom 5274 h:1</title>
  <metadata>{&quot;entityType&quot;:&quot;atom&quot;,&quot;entityId&quot;:&quot;5274&quot;,&quot;token&quot;:&quot;h:1&quot;,&quot;signature&quot;:&quot;h:1&quot;,&quot;imageName&quot;:&quot;page-004.jpg&quot;,&quot;imageId&quot;:4,&quot;bounds&quot;:{&quot;x&quot;:1704,&quot;y&quot;:2181,&quot;w&quot;:55,&quot;h&quot;:77},&quot;atoms&quot;:[{&quot;id&quot;:5274,&quot;token&quot;:&quot;h:1&quot;,&quot;particle_id&quot;:&quot;img4-m27-p5&quot;,&quot;molecule_id&quot;:&quot;img4-m27&quot;,&quot;atom_order&quot;:2}]}</metadata>
  <rect x="0" y="0" width="55" height="77" fill="#f8f0d8"/>
  <image href="file:///C:/Users/HHHES/AppData/Roaming/com.voynichlab.datasetcreator/images/1/aff30327-ced8-4ab4-8c9b-190205ebe022.jpg" x="-1704" y="-2181" width="2804" height="3797" opacity="0.92"/>
  <rect x="0.5" y="0.5" width="54" height="76" fill="none" stroke="#111827" stroke-width="1" opacity="0.35"/>
  <polyline points="31,16 32,16 33,17 34,17 34,18 35,18 35,19 36,19 36,20 37,21 37,22 38,23 38,24 38,25 38,26 39,27 39,28 39,29 39,30 39,31 39,32 39,33 39,34 39,35 38,36 38,37 37,39 37,40 36,41 35,42 35,43 34,43 34,45 33,45 33,46 32,47 32,48 31,48 30,50 29,51 28,52 27,52 26,52 25,53 25,54 24,54 23,55 22,56 21,56 21,57 20,58 19,59 18,60 17,61 16,61" fill="none" stroke="#ff8c00" stroke-width="3" stroke-linecap="round" stroke-linejoin="round" opacity="0.95">
    <title>5274 h:1</title>
  </polyline>
</svg>
