<?xml version="1.0" encoding="UTF-8"?>
<svg xmlns="http://www.w3.org/2000/svg" width="44" height="72" viewBox="0 0 44 72">
  <title>atom 5276 h:1</title>
  <metadata>{&quot;entityType&quot;:&quot;atom&quot;,&quot;entityId&quot;:&quot;5276&quot;,&quot;token&quot;:&quot;h:1&quot;,&quot;signature&quot;:&quot;h:1&quot;,&quot;imageName&quot;:&quot;page-004.jpg&quot;,&quot;imageId&quot;:4,&quot;bounds&quot;:{&quot;x&quot;:701,&quot;y&quot;:2317,&quot;w&quot;:44,&quot;h&quot;:72},&quot;atoms&quot;:[{&quot;id&quot;:5276,&quot;token&quot;:&quot;h:1&quot;,&quot;particle_id&quot;:&quot;img4-m30-p5&quot;,&quot;molecule_id&quot;:&quot;img4-m30&quot;,&quot;atom_order&quot;:2}]}</metadata>
  <rect x="0" y="0" width="44" height="72" fill="#f8f0d8"/>
  <image href="file:///C:/Users/HHHES/AppData/Roaming/com.voynichlab.datasetcreator/images/1/aff30327-ced8-4ab4-8c9b-190205ebe022.jpg" x="-701" y="-2317" width="2804" height="3797" opacity="0.92"/>
  <rect x="0.5" y="0.5" width="43" height="71" fill="none" stroke="#111827" stroke-width="1" opacity="0.35"/>
  <polyline points="16,16 17,16 18,17 19,17 20,18 21,19 22,20 23,21 24,22 25,23 26,24 26,25 26,26 27,27 27,28 27,29 28,30 28,31 28,33 28,34 28,35 28,37 28,38 28,39 28,40 28,41 28,42 28,43 28,45 28,46 28,47 28,48 27,50 27,51 26,52 26,53 25,53 24,54 24,55 23,55 22,56" fill="none" stroke="#ff8c00" stroke-width="3" stroke-linecap="round" stroke-linejoin="round" opacity="0.95">
    <title>5276 h:1</title>
  </polyline>
</svg>
