<?xml version="1.0" encoding="UTF-8"?>
<svg xmlns="http://www.w3.org/2000/svg" width="49" height="76" viewBox="0 0 49 76">
  <title>atom 5277 h:1</title>
  <metadata>{&quot;entityType&quot;:&quot;atom&quot;,&quot;entityId&quot;:&quot;5277&quot;,&quot;token&quot;:&quot;h:1&quot;,&quot;signature&quot;:&quot;h:1&quot;,&quot;imageName&quot;:&quot;page-004.jpg&quot;,&quot;imageId&quot;:4,&quot;bounds&quot;:{&quot;x&quot;:1752,&quot;y&quot;:2383,&quot;w&quot;:49,&quot;h&quot;:76},&quot;atoms&quot;:[{&quot;id&quot;:5277,&quot;token&quot;:&quot;h:1&quot;,&quot;particle_id&quot;:&quot;img4-m38-p3&quot;,&quot;molecule_id&quot;:&quot;img4-m38&quot;,&quot;atom_order&quot;:2}]}</metadata>
  <rect x="0" y="0" width="49" height="76" fill="#f8f0d8"/>
  <image href="file:///C:/Users/HHHES/AppData/Roaming/com.voynichlab.datasetcreator/images/1/aff30327-ced8-4ab4-8c9b-190205ebe022.jpg" x="-1752" y="-2383" width="2804" height="3797" opacity="0.92"/>
  <rect x="0.5" y="0.5" width="48" height="75" fill="none" stroke="#111827" stroke-width="1" opacity="0.35"/>
  <polyline points="21,16 22,16 22,17 23,17 24,18 25,18 26,19 27,20 29,20 30,21 30,22 31,22 31,23 31,24 32,24 32,25 33,26 33,27 33,28 33,29 33,30 33,31 33,32 33,33 33,34 33,35 32,36 32,37 32,38 32,39 31,39 31,40 30,41 30,42 29,42 29,44 28,44 28,45 27,46 26,47 26,48 25,48 25,49 25,50 24,51 23,52 23,53 22,54 21,55 20,56 19,57 18,57 18,58 17,58 17,59 16,59 16,60" fill="none" stroke="#ff8c00" stroke-width="3" stroke-linecap="round" stroke-linejoin="round" opacity="0.95">
    <title>5277 h:1</title>
  </polyline>
</svg>
