<?xml version="1.0" encoding="UTF-8"?>
<svg xmlns="http://www.w3.org/2000/svg" width="45" height="69" viewBox="0 0 45 69">
  <title>atom 5280 h:1</title>
  <metadata>{&quot;entityType&quot;:&quot;atom&quot;,&quot;entityId&quot;:&quot;5280&quot;,&quot;token&quot;:&quot;h:1&quot;,&quot;signature&quot;:&quot;h:1&quot;,&quot;imageName&quot;:&quot;page-004.jpg&quot;,&quot;imageId&quot;:4,&quot;bounds&quot;:{&quot;x&quot;:2433,&quot;y&quot;:2488,&quot;w&quot;:45,&quot;h&quot;:69},&quot;atoms&quot;:[{&quot;id&quot;:5280,&quot;token&quot;:&quot;h:1&quot;,&quot;particle_id&quot;:&quot;img4-m46-p2&quot;,&quot;molecule_id&quot;:&quot;img4-m46&quot;,&quot;atom_order&quot;:2}]}</metadata>
  <rect x="0" y="0" width="45" height="69" fill="#f8f0d8"/>
  <image href="file:///C:/Users/HHHES/AppData/Roaming/com.voynichlab.datasetcreator/images/1/aff30327-ced8-4ab4-8c9b-190205ebe022.jpg" x="-2433" y="-2488" width="2804" height="3797" opacity="0.92"/>
  <rect x="0.5" y="0.5" width="44" height="68" fill="none" stroke="#111827" stroke-width="1" opacity="0.35"/>
  <polyline points="17,16 18,16 19,16 19,17 20,17 21,18 22,18 22,19 23,19 23,20 23,21 24,21 25,22 25,23 26,24 26,25 27,26 27,27 28,28 28,29 28,30 29,31 29,32 29,33 29,34 28,35 28,36 28,37 26,39 26,40 26,41 25,43 24,43 24,44 23,45 23,46 22,47 21,47 21,48 20,49 19,49 18,50 18,51 17,51 16,52 16,53" fill="none" stroke="#ff8c00" stroke-width="3" stroke-linecap="round" stroke-linejoin="round" opacity="0.95">
    <title>5280 h:1</title>
  </polyline>
</svg>
