<?xml version="1.0" encoding="UTF-8"?>
<svg xmlns="http://www.w3.org/2000/svg" width="49" height="79" viewBox="0 0 49 79">
  <title>atom 5281 h:1</title>
  <metadata>{&quot;entityType&quot;:&quot;atom&quot;,&quot;entityId&quot;:&quot;5281&quot;,&quot;token&quot;:&quot;h:1&quot;,&quot;signature&quot;:&quot;h:1&quot;,&quot;imageName&quot;:&quot;page-004.jpg&quot;,&quot;imageId&quot;:4,&quot;bounds&quot;:{&quot;x&quot;:2241,&quot;y&quot;:2491,&quot;w&quot;:49,&quot;h&quot;:79},&quot;atoms&quot;:[{&quot;id&quot;:5281,&quot;token&quot;:&quot;h:1&quot;,&quot;particle_id&quot;:&quot;img4-m55-p2&quot;,&quot;molecule_id&quot;:&quot;img4-m55&quot;,&quot;atom_order&quot;:2}]}</metadata>
  <rect x="0" y="0" width="49" height="79" fill="#f8f0d8"/>
  <image href="file:///C:/Users/HHHES/AppData/Roaming/com.voynichlab.datasetcreator/images/1/aff30327-ced8-4ab4-8c9b-190205ebe022.jpg" x="-2241" y="-2491" width="2804" height="3797" opacity="0.92"/>
  <rect x="0.5" y="0.5" width="48" height="78" fill="none" stroke="#111827" stroke-width="1" opacity="0.35"/>
  <polyline points="16,16 17,16 18,17 19,17 20,18 21,18 22,19 24,19 26,21 28,22 29,22 30,23 31,23 31,24 32,25 33,26 33,27 33,28 33,29 33,30 33,32 33,33 33,35 33,37 32,37 32,38 32,39 32,40 32,41 31,42 30,44 30,45 30,46 29,48 29,49 28,50 28,51 27,53 27,54 26,54 25,56 24,57 24,58 23,58 23,59 22,60 21,60 20,61 19,62 18,62 18,63" fill="none" stroke="#ff8c00" stroke-width="3" stroke-linecap="round" stroke-linejoin="round" opacity="0.95">
    <title>5281 h:1</title>
  </polyline>
</svg>
