<?xml version="1.0" encoding="UTF-8"?>
<svg xmlns="http://www.w3.org/2000/svg" width="44" height="72" viewBox="0 0 44 72">
  <title>atom 5283 h:1</title>
  <metadata>{&quot;entityType&quot;:&quot;atom&quot;,&quot;entityId&quot;:&quot;5283&quot;,&quot;token&quot;:&quot;h:1&quot;,&quot;signature&quot;:&quot;h:1&quot;,&quot;imageName&quot;:&quot;page-004.jpg&quot;,&quot;imageId&quot;:4,&quot;bounds&quot;:{&quot;x&quot;:671,&quot;y&quot;:2396,&quot;w&quot;:44,&quot;h&quot;:72},&quot;atoms&quot;:[{&quot;id&quot;:5283,&quot;token&quot;:&quot;h:1&quot;,&quot;particle_id&quot;:&quot;img4-m39-p4&quot;,&quot;molecule_id&quot;:&quot;img4-m39&quot;,&quot;atom_order&quot;:2}]}</metadata>
  <rect x="0" y="0" width="44" height="72" fill="#f8f0d8"/>
  <image href="file:///C:/Users/HHHES/AppData/Roaming/com.voynichlab.datasetcreator/images/1/aff30327-ced8-4ab4-8c9b-190205ebe022.jpg" x="-671" y="-2396" width="2804" height="3797" opacity="0.92"/>
  <rect x="0.5" y="0.5" width="43" height="71" fill="none" stroke="#111827" stroke-width="1" opacity="0.35"/>
  <polyline points="16,16 17,16 17,17 18,17 19,17 20,17 20,18 21,18 21,19 22,19 23,20 23,21 24,21 24,22 25,22 25,23 25,24 26,25 26,26 27,26 27,27 27,28 28,28 28,29 28,30 28,31 28,32 28,33 28,34 28,35 28,36 28,37 28,38 27,39 27,40 27,41 26,43 26,44 25,45 25,46 23,48 23,49 22,50 21,51 21,52 20,52 20,53 19,54 19,55 18,56" fill="none" stroke="#ff8c00" stroke-width="3" stroke-linecap="round" stroke-linejoin="round" opacity="0.95">
    <title>5283 h:1</title>
  </polyline>
</svg>
