<?xml version="1.0" encoding="UTF-8"?>
<svg xmlns="http://www.w3.org/2000/svg" width="45" height="59" viewBox="0 0 45 59">
  <title>atom 5284 h:1</title>
  <metadata>{&quot;entityType&quot;:&quot;atom&quot;,&quot;entityId&quot;:&quot;5284&quot;,&quot;token&quot;:&quot;h:1&quot;,&quot;signature&quot;:&quot;h:1&quot;,&quot;imageName&quot;:&quot;page-004.jpg&quot;,&quot;imageId&quot;:4,&quot;bounds&quot;:{&quot;x&quot;:1372,&quot;y&quot;:2501,&quot;w&quot;:45,&quot;h&quot;:59},&quot;atoms&quot;:[{&quot;id&quot;:5284,&quot;token&quot;:&quot;h:1&quot;,&quot;particle_id&quot;:&quot;img4-m48-p3&quot;,&quot;molecule_id&quot;:&quot;img4-m48&quot;,&quot;atom_order&quot;:2}]}</metadata>
  <rect x="0" y="0" width="45" height="59" fill="#f8f0d8"/>
  <image href="file:///C:/Users/HHHES/AppData/Roaming/com.voynichlab.datasetcreator/images/1/aff30327-ced8-4ab4-8c9b-190205ebe022.jpg" x="-1372" y="-2501" width="2804" height="3797" opacity="0.92"/>
  <rect x="0.5" y="0.5" width="44" height="58" fill="none" stroke="#111827" stroke-width="1" opacity="0.35"/>
  <polyline points="16,16 17,16 18,16 19,17 20,17 21,17 22,17 22,18 23,18 24,18 25,19 26,20 26,21 27,22 28,22 28,23 28,24 28,25 29,25 29,26 29,27 29,28 29,29 29,30 29,31 29,32 29,33 28,34 28,35 28,36 28,37 28,38 27,39 27,40 26,41 26,42 26,43 25,43" fill="none" stroke="#ff8c00" stroke-width="3" stroke-linecap="round" stroke-linejoin="round" opacity="0.95">
    <title>5284 h:1</title>
  </polyline>
</svg>
