<?xml version="1.0" encoding="UTF-8"?>
<svg xmlns="http://www.w3.org/2000/svg" width="48" height="72" viewBox="0 0 48 72">
  <title>atom 5287 h:1</title>
  <metadata>{&quot;entityType&quot;:&quot;atom&quot;,&quot;entityId&quot;:&quot;5287&quot;,&quot;token&quot;:&quot;h:1&quot;,&quot;signature&quot;:&quot;h:1&quot;,&quot;imageName&quot;:&quot;page-004.jpg&quot;,&quot;imageId&quot;:4,&quot;bounds&quot;:{&quot;x&quot;:1990,&quot;y&quot;:2541,&quot;w&quot;:48,&quot;h&quot;:72},&quot;atoms&quot;:[{&quot;id&quot;:5287,&quot;token&quot;:&quot;h:1&quot;,&quot;particle_id&quot;:&quot;img4-m64-p1&quot;,&quot;molecule_id&quot;:&quot;img4-m64&quot;,&quot;atom_order&quot;:2}]}</metadata>
  <rect x="0" y="0" width="48" height="72" fill="#f8f0d8"/>
  <image href="file:///C:/Users/HHHES/AppData/Roaming/com.voynichlab.datasetcreator/images/1/aff30327-ced8-4ab4-8c9b-190205ebe022.jpg" x="-1990" y="-2541" width="2804" height="3797" opacity="0.92"/>
  <rect x="0.5" y="0.5" width="47" height="71" fill="none" stroke="#111827" stroke-width="1" opacity="0.35"/>
  <polyline points="21,16 22,16 22,17 23,17 24,17 25,18 26,18 27,18 27,19 28,19 28,20 29,20 30,21 30,22 31,23 31,24 31,25 31,26 32,26 32,27 32,28 32,29 32,30 32,31 32,32 32,33 32,34 32,35 31,36 31,37 31,38 30,39 30,40 29,41 28,42 28,43 27,44 27,45 26,46 25,47 25,48 24,49 23,50 22,51 21,52 21,53 20,53 19,54 18,55 17,55 17,56 16,56" fill="none" stroke="#ff8c00" stroke-width="3" stroke-linecap="round" stroke-linejoin="round" opacity="0.95">
    <title>5287 h:1</title>
  </polyline>
</svg>
