<?xml version="1.0" encoding="UTF-8"?>
<svg xmlns="http://www.w3.org/2000/svg" width="45" height="66" viewBox="0 0 45 66">
  <title>atom 5289 h:1</title>
  <metadata>{&quot;entityType&quot;:&quot;atom&quot;,&quot;entityId&quot;:&quot;5289&quot;,&quot;token&quot;:&quot;h:1&quot;,&quot;signature&quot;:&quot;h:1&quot;,&quot;imageName&quot;:&quot;page-004.jpg&quot;,&quot;imageId&quot;:4,&quot;bounds&quot;:{&quot;x&quot;:2036,&quot;y&quot;:2615,&quot;w&quot;:45,&quot;h&quot;:66},&quot;atoms&quot;:[{&quot;id&quot;:5289,&quot;token&quot;:&quot;h:1&quot;,&quot;particle_id&quot;:&quot;img4-m71-p4&quot;,&quot;molecule_id&quot;:&quot;img4-m71&quot;,&quot;atom_order&quot;:2}]}</metadata>
  <rect x="0" y="0" width="45" height="66" fill="#f8f0d8"/>
  <image href="file:///C:/Users/HHHES/AppData/Roaming/com.voynichlab.datasetcreator/images/1/aff30327-ced8-4ab4-8c9b-190205ebe022.jpg" x="-2036" y="-2615" width="2804" height="3797" opacity="0.92"/>
  <rect x="0.5" y="0.5" width="44" height="65" fill="none" stroke="#111827" stroke-width="1" opacity="0.35"/>
  <polyline points="16,16 17,16 18,17 19,17 20,17 21,18 22,18 23,19 24,19 24,20 25,20 26,21 26,22 27,22 27,23 28,23 28,24 28,25 28,26 29,26 29,27 29,28 28,29 28,30 28,31 28,32 28,33 27,34 27,35 27,36 26,37 26,38 26,39 25,40 25,41 24,42 23,43 23,44 22,45 21,46 21,47 20,47 20,48 19,48 19,49 18,49 18,50 17,50" fill="none" stroke="#ff8c00" stroke-width="3" stroke-linecap="round" stroke-linejoin="round" opacity="0.95">
    <title>5289 h:1</title>
  </polyline>
</svg>
