<?xml version="1.0" encoding="UTF-8"?>
<svg xmlns="http://www.w3.org/2000/svg" width="44" height="72" viewBox="0 0 44 72">
  <title>atom 5290 h:1</title>
  <metadata>{&quot;entityType&quot;:&quot;atom&quot;,&quot;entityId&quot;:&quot;5290&quot;,&quot;token&quot;:&quot;h:1&quot;,&quot;signature&quot;:&quot;h:1&quot;,&quot;imageName&quot;:&quot;page-004.jpg&quot;,&quot;imageId&quot;:4,&quot;bounds&quot;:{&quot;x&quot;:1383,&quot;y&quot;:2586,&quot;w&quot;:44,&quot;h&quot;:72},&quot;atoms&quot;:[{&quot;id&quot;:5290,&quot;token&quot;:&quot;h:1&quot;,&quot;particle_id&quot;:&quot;img4-m62-p2&quot;,&quot;molecule_id&quot;:&quot;img4-m62&quot;,&quot;atom_order&quot;:2}]}</metadata>
  <rect x="0" y="0" width="44" height="72" fill="#f8f0d8"/>
  <image href="file:///C:/Users/HHHES/AppData/Roaming/com.voynichlab.datasetcreator/images/1/aff30327-ced8-4ab4-8c9b-190205ebe022.jpg" x="-1383" y="-2586" width="2804" height="3797" opacity="0.92"/>
  <rect x="0.5" y="0.5" width="43" height="71" fill="none" stroke="#111827" stroke-width="1" opacity="0.35"/>
  <polyline points="18,16 19,16 20,17 21,17 22,18 23,18 23,19 24,19 24,20 25,20 26,21 26,22 27,22 27,23 28,24 28,25 28,26 28,27 28,28 28,29 28,30 28,31 28,32 28,33 28,35 28,36 28,37 28,38 28,39 28,40 28,41 27,41 27,42 27,43 26,44 26,45 25,46 24,47 24,48 23,49 23,50 22,50 22,51 21,52 20,53 20,54 19,55 18,55 17,56 16,56" fill="none" stroke="#ff8c00" stroke-width="3" stroke-linecap="round" stroke-linejoin="round" opacity="0.95">
    <title>5290 h:1</title>
  </polyline>
</svg>
