<?xml version="1.0" encoding="UTF-8"?>
<svg xmlns="http://www.w3.org/2000/svg" width="41" height="64" viewBox="0 0 41 64">
  <title>atom 5291 h:1</title>
  <metadata>{&quot;entityType&quot;:&quot;atom&quot;,&quot;entityId&quot;:&quot;5291&quot;,&quot;token&quot;:&quot;h:1&quot;,&quot;signature&quot;:&quot;h:1&quot;,&quot;imageName&quot;:&quot;page-004.jpg&quot;,&quot;imageId&quot;:4,&quot;bounds&quot;:{&quot;x&quot;:1137,&quot;y&quot;:2579,&quot;w&quot;:41,&quot;h&quot;:64},&quot;atoms&quot;:[{&quot;id&quot;:5291,&quot;token&quot;:&quot;h:1&quot;,&quot;particle_id&quot;:&quot;img4-m61-p4&quot;,&quot;molecule_id&quot;:&quot;img4-m61&quot;,&quot;atom_order&quot;:2}]}</metadata>
  <rect x="0" y="0" width="41" height="64" fill="#f8f0d8"/>
  <image href="file:///C:/Users/HHHES/AppData/Roaming/com.voynichlab.datasetcreator/images/1/aff30327-ced8-4ab4-8c9b-190205ebe022.jpg" x="-1137" y="-2579" width="2804" height="3797" opacity="0.92"/>
  <rect x="0.5" y="0.5" width="40" height="63" fill="none" stroke="#111827" stroke-width="1" opacity="0.35"/>
  <polyline points="16,16 17,16 18,17 19,17 20,17 20,18 21,18 21,19 22,20 23,21 23,22 24,23 24,24 25,24 25,25 25,26 25,27 25,28 25,29 25,30 25,31 25,32 25,33 24,34 24,35 24,36 23,37 23,38 22,39 22,40 21,41 21,42 20,43 19,44 19,45 18,45 18,46 17,47 16,48" fill="none" stroke="#ff8c00" stroke-width="3" stroke-linecap="round" stroke-linejoin="round" opacity="0.95">
    <title>5291 h:1</title>
  </polyline>
</svg>
