<?xml version="1.0" encoding="UTF-8"?>
<svg xmlns="http://www.w3.org/2000/svg" width="49" height="75" viewBox="0 0 49 75">
  <title>atom 5292 h:1</title>
  <metadata>{&quot;entityType&quot;:&quot;atom&quot;,&quot;entityId&quot;:&quot;5292&quot;,&quot;token&quot;:&quot;h:1&quot;,&quot;signature&quot;:&quot;h:1&quot;,&quot;imageName&quot;:&quot;page-004.jpg&quot;,&quot;imageId&quot;:4,&quot;bounds&quot;:{&quot;x&quot;:1269,&quot;y&quot;:2658,&quot;w&quot;:49,&quot;h&quot;:75},&quot;atoms&quot;:[{&quot;id&quot;:5292,&quot;token&quot;:&quot;h:1&quot;,&quot;particle_id&quot;:&quot;img4-m74-p5&quot;,&quot;molecule_id&quot;:&quot;img4-m74&quot;,&quot;atom_order&quot;:2}]}</metadata>
  <rect x="0" y="0" width="49" height="75" fill="#f8f0d8"/>
  <image href="file:///C:/Users/HHHES/AppData/Roaming/com.voynichlab.datasetcreator/images/1/aff30327-ced8-4ab4-8c9b-190205ebe022.jpg" x="-1269" y="-2658" width="2804" height="3797" opacity="0.92"/>
  <rect x="0.5" y="0.5" width="48" height="74" fill="none" stroke="#111827" stroke-width="1" opacity="0.35"/>
  <polyline points="22,16 23,16 24,16 25,17 26,17 26,18 27,18 28,19 28,20 29,20 29,21 30,22 30,23 31,24 31,25 31,26 32,26 32,27 32,28 32,29 32,30 33,31 33,32 33,33 32,34 32,36 31,36 31,37 31,38 31,39 30,40 30,41 29,42 28,43 28,44 27,45 27,46 26,46 26,47 25,48 25,49 24,50 24,51 23,52 22,52 22,53 20,54 19,55 18,56 17,57 16,58 16,59" fill="none" stroke="#ff8c00" stroke-width="3" stroke-linecap="round" stroke-linejoin="round" opacity="0.95">
    <title>5292 h:1</title>
  </polyline>
</svg>
