<?xml version="1.0" encoding="UTF-8"?>
<svg xmlns="http://www.w3.org/2000/svg" width="55" height="71" viewBox="0 0 55 71">
  <title>atom 5293 h:1</title>
  <metadata>{&quot;entityType&quot;:&quot;atom&quot;,&quot;entityId&quot;:&quot;5293&quot;,&quot;token&quot;:&quot;h:1&quot;,&quot;signature&quot;:&quot;h:1&quot;,&quot;imageName&quot;:&quot;page-004.jpg&quot;,&quot;imageId&quot;:4,&quot;bounds&quot;:{&quot;x&quot;:2410,&quot;y&quot;:2706,&quot;w&quot;:55,&quot;h&quot;:71},&quot;atoms&quot;:[{&quot;id&quot;:5293,&quot;token&quot;:&quot;h:1&quot;,&quot;particle_id&quot;:&quot;img4-m84-p5&quot;,&quot;molecule_id&quot;:&quot;img4-m84&quot;,&quot;atom_order&quot;:2}]}</metadata>
  <rect x="0" y="0" width="55" height="71" fill="#f8f0d8"/>
  <image href="file:///C:/Users/HHHES/AppData/Roaming/com.voynichlab.datasetcreator/images/1/aff30327-ced8-4ab4-8c9b-190205ebe022.jpg" x="-2410" y="-2706" width="2804" height="3797" opacity="0.92"/>
  <rect x="0.5" y="0.5" width="54" height="70" fill="none" stroke="#111827" stroke-width="1" opacity="0.35"/>
  <polyline points="26,16 27,16 28,16 28,17 29,17 30,17 32,18 33,18 35,19 36,20 36,21 37,21 38,22 38,23 38,25 38,26 38,27 39,27 39,28 39,29 39,30 38,31 38,32 38,33 38,34 37,35 37,36 36,37 35,38 35,39 35,40 34,41 34,42 33,43 32,45 31,46 30,47 28,49 26,50 24,51 23,51 21,52 20,53 18,54 17,54 17,55 16,55" fill="none" stroke="#ff8c00" stroke-width="3" stroke-linecap="round" stroke-linejoin="round" opacity="0.95">
    <title>5293 h:1</title>
  </polyline>
</svg>
