<?xml version="1.0" encoding="UTF-8"?>
<svg xmlns="http://www.w3.org/2000/svg" width="51" height="81" viewBox="0 0 51 81">
  <title>atom 5295 h:1</title>
  <metadata>{&quot;entityType&quot;:&quot;atom&quot;,&quot;entityId&quot;:&quot;5295&quot;,&quot;token&quot;:&quot;h:1&quot;,&quot;signature&quot;:&quot;h:1&quot;,&quot;imageName&quot;:&quot;page-004.jpg&quot;,&quot;imageId&quot;:4,&quot;bounds&quot;:{&quot;x&quot;:1369,&quot;y&quot;:2749,&quot;w&quot;:51,&quot;h&quot;:81},&quot;atoms&quot;:[{&quot;id&quot;:5295,&quot;token&quot;:&quot;h:1&quot;,&quot;particle_id&quot;:&quot;img4-m89-p4&quot;,&quot;molecule_id&quot;:&quot;img4-m89&quot;,&quot;atom_order&quot;:2}]}</metadata>
  <rect x="0" y="0" width="51" height="81" fill="#f8f0d8"/>
  <image href="file:///C:/Users/HHHES/AppData/Roaming/com.voynichlab.datasetcreator/images/1/aff30327-ced8-4ab4-8c9b-190205ebe022.jpg" x="-1369" y="-2749" width="2804" height="3797" opacity="0.92"/>
  <rect x="0.5" y="0.5" width="50" height="80" fill="none" stroke="#111827" stroke-width="1" opacity="0.35"/>
  <polyline points="22,16 23,16 23,17 24,17 25,17 26,18 27,18 28,19 29,20 30,21 31,21 31,22 32,23 32,24 33,25 33,26 33,27 33,28 34,29 34,31 35,32 35,33 35,35 35,37 35,38 35,39 34,41 34,42 33,44 33,45 32,46 31,47 31,48 30,50 29,50 28,52 26,55 24,57 23,59 21,60 21,61 20,61 19,62 18,63 17,64 17,65 16,65 17,65 18,64" fill="none" stroke="#ff8c00" stroke-width="3" stroke-linecap="round" stroke-linejoin="round" opacity="0.95">
    <title>5295 h:1</title>
  </polyline>
</svg>
