<?xml version="1.0" encoding="UTF-8"?>
<svg xmlns="http://www.w3.org/2000/svg" width="48" height="83" viewBox="0 0 48 83">
  <title>atom 5296 h:1</title>
  <metadata>{&quot;entityType&quot;:&quot;atom&quot;,&quot;entityId&quot;:&quot;5296&quot;,&quot;token&quot;:&quot;h:1&quot;,&quot;signature&quot;:&quot;h:1&quot;,&quot;imageName&quot;:&quot;page-004.jpg&quot;,&quot;imageId&quot;:4,&quot;bounds&quot;:{&quot;x&quot;:1005,&quot;y&quot;:2725,&quot;w&quot;:48,&quot;h&quot;:83},&quot;atoms&quot;:[{&quot;id&quot;:5296,&quot;token&quot;:&quot;h:1&quot;,&quot;particle_id&quot;:&quot;img4-m86-p6&quot;,&quot;molecule_id&quot;:&quot;img4-m86&quot;,&quot;atom_order&quot;:2}]}</metadata>
  <rect x="0" y="0" width="48" height="83" fill="#f8f0d8"/>
  <image href="file:///C:/Users/HHHES/AppData/Roaming/com.voynichlab.datasetcreator/images/1/aff30327-ced8-4ab4-8c9b-190205ebe022.jpg" x="-1005" y="-2725" width="2804" height="3797" opacity="0.92"/>
  <rect x="0.5" y="0.5" width="47" height="82" fill="none" stroke="#111827" stroke-width="1" opacity="0.35"/>
  <polyline points="19,16 20,16 20,17 21,17 22,18 23,18 23,19 24,19 25,20 26,20 26,21 27,22 28,22 29,23 30,24 31,26 31,27 31,28 31,29 32,31 32,32 32,33 32,34 32,35 32,36 32,37 32,38 32,39 32,40 31,40 31,42 31,43 31,45 30,47 29,48 29,50 28,51 28,52 27,53 26,55 25,56 23,58 22,60 21,61 20,62 19,64 18,65 17,66 16,66 16,67 16,66" fill="none" stroke="#ff8c00" stroke-width="3" stroke-linecap="round" stroke-linejoin="round" opacity="0.95">
    <title>5296 h:1</title>
  </polyline>
</svg>
