<?xml version="1.0" encoding="UTF-8"?>
<svg xmlns="http://www.w3.org/2000/svg" width="56" height="47" viewBox="0 0 56 47">
  <title>atom 2079 l:1</title>
  <metadata>{&quot;entityType&quot;:&quot;atom&quot;,&quot;entityId&quot;:&quot;2079&quot;,&quot;token&quot;:&quot;l:1&quot;,&quot;signature&quot;:&quot;l:1&quot;,&quot;imageName&quot;:&quot;page-003.jpg&quot;,&quot;imageId&quot;:3,&quot;bounds&quot;:{&quot;x&quot;:1909,&quot;y&quot;:1248,&quot;w&quot;:56,&quot;h&quot;:47},&quot;atoms&quot;:[{&quot;id&quot;:2079,&quot;token&quot;:&quot;l:1&quot;,&quot;particle_id&quot;:&quot;img3-m61-p3&quot;,&quot;molecule_id&quot;:&quot;img3-m61&quot;,&quot;atom_order&quot;:1}]}</metadata>
  <rect x="0" y="0" width="56" height="47" fill="#f8f0d8"/>
  <image href="file:///C:/Users/HHHES/AppData/Roaming/com.voynichlab.datasetcreator/images/1/35a70f63-88ab-4986-b441-b78046a10087.jpg" x="-1909" y="-1248" width="2972" height="3766" opacity="0.92"/>
  <rect x="0.5" y="0.5" width="55" height="46" fill="none" stroke="#111827" stroke-width="1" opacity="0.35"/>
  <polyline points="16,16 16,17 16,18 17,18 18,19 18,20 19,20 19,21 19,22 20,23 20,24 20,25 21,25 21,26 22,26 22,27 22,28 23,28 23,29 23,30 24,30 24,31 24,30 25,30 26,30 26,29 27,29 28,28 29,28 29,27 30,26 31,26 31,25 32,25 32,24 33,24 33,23 34,23 34,22 35,22 36,21 36,20 37,20 38,19 38,18 39,18 39,17 40,17 40,16" fill="none" stroke="#ff5f1f" stroke-width="3" stroke-linecap="round" stroke-linejoin="round" opacity="0.95">
    <title>2079 l:1</title>
  </polyline>
</svg>
