<?xml version="1.0" encoding="UTF-8"?>
<svg xmlns="http://www.w3.org/2000/svg" width="61" height="49" viewBox="0 0 61 49">
  <title>atom 2117 l:1</title>
  <metadata>{&quot;entityType&quot;:&quot;atom&quot;,&quot;entityId&quot;:&quot;2117&quot;,&quot;token&quot;:&quot;l:1&quot;,&quot;signature&quot;:&quot;l:1&quot;,&quot;imageName&quot;:&quot;page-003.jpg&quot;,&quot;imageId&quot;:3,&quot;bounds&quot;:{&quot;x&quot;:756,&quot;y&quot;:1502,&quot;w&quot;:61,&quot;h&quot;:49},&quot;atoms&quot;:[{&quot;id&quot;:2117,&quot;token&quot;:&quot;l:1&quot;,&quot;particle_id&quot;:&quot;img3-m72-p4&quot;,&quot;molecule_id&quot;:&quot;img3-m72&quot;,&quot;atom_order&quot;:1}]}</metadata>
  <rect x="0" y="0" width="61" height="49" fill="#f8f0d8"/>
  <image href="file:///C:/Users/HHHES/AppData/Roaming/com.voynichlab.datasetcreator/images/1/35a70f63-88ab-4986-b441-b78046a10087.jpg" x="-756" y="-1502" width="2972" height="3766" opacity="0.92"/>
  <rect x="0.5" y="0.5" width="60" height="48" fill="none" stroke="#111827" stroke-width="1" opacity="0.35"/>
  <polyline points="16,16 17,16 17,17 17,18 18,18 18,19 19,19 19,20 20,21 20,22 21,22 21,23 21,24 22,24 22,25 22,26 23,26 23,27 23,28 24,28 24,29 24,30 25,30 25,31 26,32 26,33 27,33 28,33 29,33 30,33 31,33 31,32 32,32 33,32 33,31 33,30 34,30 34,29 35,28 35,27 36,27 36,26 37,26 37,25 38,25 38,24 39,24 39,23 40,23 40,22 41,22 41,21 42,21 43,21 43,20 44,20 44,19 45,19" fill="none" stroke="#ff5f1f" stroke-width="3" stroke-linecap="round" stroke-linejoin="round" opacity="0.95">
    <title>2117 l:1</title>
  </polyline>
</svg>
