<?xml version="1.0" encoding="UTF-8"?>
<svg xmlns="http://www.w3.org/2000/svg" width="61" height="48" viewBox="0 0 61 48">
  <title>atom 2254 l:1</title>
  <metadata>{&quot;entityType&quot;:&quot;atom&quot;,&quot;entityId&quot;:&quot;2254&quot;,&quot;token&quot;:&quot;l:1&quot;,&quot;signature&quot;:&quot;l:1&quot;,&quot;imageName&quot;:&quot;page-003.jpg&quot;,&quot;imageId&quot;:3,&quot;bounds&quot;:{&quot;x&quot;:1111,&quot;y&quot;:1590,&quot;w&quot;:61,&quot;h&quot;:48},&quot;atoms&quot;:[{&quot;id&quot;:2254,&quot;token&quot;:&quot;l:1&quot;,&quot;particle_id&quot;:&quot;img3-m79-p4&quot;,&quot;molecule_id&quot;:&quot;img3-m79&quot;,&quot;atom_order&quot;:1}]}</metadata>
  <rect x="0" y="0" width="61" height="48" fill="#f8f0d8"/>
  <image href="file:///C:/Users/HHHES/AppData/Roaming/com.voynichlab.datasetcreator/images/1/35a70f63-88ab-4986-b441-b78046a10087.jpg" x="-1111" y="-1590" width="2972" height="3766" opacity="0.92"/>
  <rect x="0.5" y="0.5" width="60" height="47" fill="none" stroke="#111827" stroke-width="1" opacity="0.35"/>
  <polyline points="16,16 16,17 16,18 17,18 17,19 18,19 18,20 18,21 19,21 19,22 20,22 20,23 21,23 21,24 21,25 22,25 22,26 22,27 23,27 23,28 24,28 24,29 25,30 25,31 26,31 27,32 28,32 29,31 29,30 30,30 30,29 31,28 31,27 32,27 32,26 33,26 33,25 34,25 34,24 35,24 35,23 36,23 36,22 37,22 37,21 38,21 38,20 39,20 40,20 40,19 41,19 41,18 42,18 42,17 43,16 44,16 45,16" fill="none" stroke="#ff5f1f" stroke-width="3" stroke-linecap="round" stroke-linejoin="round" opacity="0.95">
    <title>2254 l:1</title>
  </polyline>
</svg>
