<?xml version="1.0" encoding="UTF-8"?>
<svg xmlns="http://www.w3.org/2000/svg" width="58" height="52" viewBox="0 0 58 52">
  <title>atom 2557 l:1</title>
  <metadata>{&quot;entityType&quot;:&quot;atom&quot;,&quot;entityId&quot;:&quot;2557&quot;,&quot;token&quot;:&quot;l:1&quot;,&quot;signature&quot;:&quot;l:1&quot;,&quot;imageName&quot;:&quot;page-003.jpg&quot;,&quot;imageId&quot;:3,&quot;bounds&quot;:{&quot;x&quot;:1447,&quot;y&quot;:1760,&quot;w&quot;:58,&quot;h&quot;:52},&quot;atoms&quot;:[{&quot;id&quot;:2557,&quot;token&quot;:&quot;l:1&quot;,&quot;particle_id&quot;:&quot;img3-m96-p5&quot;,&quot;molecule_id&quot;:&quot;img3-m96&quot;,&quot;atom_order&quot;:1}]}</metadata>
  <rect x="0" y="0" width="58" height="52" fill="#f8f0d8"/>
  <image href="file:///C:/Users/HHHES/AppData/Roaming/com.voynichlab.datasetcreator/images/1/35a70f63-88ab-4986-b441-b78046a10087.jpg" x="-1447" y="-1760" width="2972" height="3766" opacity="0.92"/>
  <rect x="0.5" y="0.5" width="57" height="51" fill="none" stroke="#111827" stroke-width="1" opacity="0.35"/>
  <polyline points="16,18 17,18 17,19 18,19 18,20 18,21 19,21 19,22 19,23 20,23 20,24 21,25 21,26 22,27 22,28 23,29 23,30 23,31 24,31 24,32 24,33 25,33 25,34 25,35 26,35 26,36 27,36 28,36 29,36 29,35 30,35 30,34 31,34 31,33 31,32 32,32 32,31 33,30 33,29 34,29 34,28 34,27 35,27 35,26 36,26 36,25 36,24 37,24 37,23 38,23 38,22 38,21 39,21 39,20 40,19 40,18 41,18 41,17 42,17 42,16" fill="none" stroke="#ff5f1f" stroke-width="3" stroke-linecap="round" stroke-linejoin="round" opacity="0.95">
    <title>2557 l:1</title>
  </polyline>
</svg>
