<?xml version="1.0" encoding="UTF-8"?>
<svg xmlns="http://www.w3.org/2000/svg" width="56" height="51" viewBox="0 0 56 51">
  <title>atom 2596 l:1</title>
  <metadata>{&quot;entityType&quot;:&quot;atom&quot;,&quot;entityId&quot;:&quot;2596&quot;,&quot;token&quot;:&quot;l:1&quot;,&quot;signature&quot;:&quot;l:1&quot;,&quot;imageName&quot;:&quot;page-003.jpg&quot;,&quot;imageId&quot;:3,&quot;bounds&quot;:{&quot;x&quot;:614,&quot;y&quot;:1772,&quot;w&quot;:56,&quot;h&quot;:51},&quot;atoms&quot;:[{&quot;id&quot;:2596,&quot;token&quot;:&quot;l:1&quot;,&quot;particle_id&quot;:&quot;img3-m91-p3&quot;,&quot;molecule_id&quot;:&quot;img3-m91&quot;,&quot;atom_order&quot;:1}]}</metadata>
  <rect x="0" y="0" width="56" height="51" fill="#f8f0d8"/>
  <image href="file:///C:/Users/HHHES/AppData/Roaming/com.voynichlab.datasetcreator/images/1/35a70f63-88ab-4986-b441-b78046a10087.jpg" x="-614" y="-1772" width="2972" height="3766" opacity="0.92"/>
  <rect x="0.5" y="0.5" width="55" height="50" fill="none" stroke="#111827" stroke-width="1" opacity="0.35"/>
  <polyline points="16,16 16,17 16,18 17,18 17,19 18,19 18,20 19,20 19,21 19,22 20,22 20,23 20,24 21,24 21,25 21,26 22,26 22,27 22,28 23,29 23,30 23,31 24,31 24,32 25,32 25,33 26,33 26,34 27,34 27,35 28,35 29,35 29,34 30,34 30,33 30,32 31,32 31,31 31,30 32,30 32,29 32,28 33,28 33,27 34,27 34,26 35,26 35,25 36,25 36,24 37,24 37,23 37,22 37,21 38,21 38,20 38,19 39,19 39,18 39,17 40,17 40,18" fill="none" stroke="#ff5f1f" stroke-width="3" stroke-linecap="round" stroke-linejoin="round" opacity="0.95">
    <title>2596 l:1</title>
  </polyline>
</svg>
