<?xml version="1.0" encoding="UTF-8"?>
<svg xmlns="http://www.w3.org/2000/svg" width="64" height="56" viewBox="0 0 64 56">
  <title>atom 3380 l:1</title>
  <metadata>{&quot;entityType&quot;:&quot;atom&quot;,&quot;entityId&quot;:&quot;3380&quot;,&quot;token&quot;:&quot;l:1&quot;,&quot;signature&quot;:&quot;l:1&quot;,&quot;imageName&quot;:&quot;page-003.jpg&quot;,&quot;imageId&quot;:3,&quot;bounds&quot;:{&quot;x&quot;:2115,&quot;y&quot;:2003,&quot;w&quot;:64,&quot;h&quot;:56},&quot;atoms&quot;:[{&quot;id&quot;:3380,&quot;token&quot;:&quot;l:1&quot;,&quot;particle_id&quot;:&quot;img3-m121-p2&quot;,&quot;molecule_id&quot;:&quot;img3-m121&quot;,&quot;atom_order&quot;:2}]}</metadata>
  <rect x="0" y="0" width="64" height="56" fill="#f8f0d8"/>
  <image href="file:///C:/Users/HHHES/AppData/Roaming/com.voynichlab.datasetcreator/images/1/35a70f63-88ab-4986-b441-b78046a10087.jpg" x="-2115" y="-2003" width="2972" height="3766" opacity="0.92"/>
  <rect x="0.5" y="0.5" width="63" height="55" fill="none" stroke="#111827" stroke-width="1" opacity="0.35"/>
  <polyline points="16,16 16,17 16,18 17,18 17,19 18,19 18,20 18,21 19,21 19,22 20,22 20,23 20,24 21,24 21,25 22,26 22,27 23,27 23,28 24,28 24,29 24,30 25,30 25,31 25,32 26,32 26,33 26,34 27,34 27,35 27,36 28,36 28,37 28,38 29,38 29,39 29,40 29,39 30,38 30,37 31,36 31,35 32,35 32,34 33,34 33,33 34,33 34,32 35,32 36,31 36,30 37,30 37,29 38,29 38,28 39,28 40,27 41,27 41,26 42,26 42,25 43,25 44,24 45,23 46,23 46,22 47,22 47,21 48,21" fill="none" stroke="#ff5f1f" stroke-width="3" stroke-linecap="round" stroke-linejoin="round" opacity="0.95">
    <title>3380 l:1</title>
  </polyline>
</svg>
