<?xml version="1.0" encoding="UTF-8"?>
<svg xmlns="http://www.w3.org/2000/svg" width="62" height="53" viewBox="0 0 62 53">
  <title>atom 3391 l:1</title>
  <metadata>{&quot;entityType&quot;:&quot;atom&quot;,&quot;entityId&quot;:&quot;3391&quot;,&quot;token&quot;:&quot;l:1&quot;,&quot;signature&quot;:&quot;l:1&quot;,&quot;imageName&quot;:&quot;page-003.jpg&quot;,&quot;imageId&quot;:3,&quot;bounds&quot;:{&quot;x&quot;:1149,&quot;y&quot;:1994,&quot;w&quot;:62,&quot;h&quot;:53},&quot;atoms&quot;:[{&quot;id&quot;:3391,&quot;token&quot;:&quot;l:1&quot;,&quot;particle_id&quot;:&quot;img3-m124-p5&quot;,&quot;molecule_id&quot;:&quot;img3-m124&quot;,&quot;atom_order&quot;:1}]}</metadata>
  <rect x="0" y="0" width="62" height="53" fill="#f8f0d8"/>
  <image href="file:///C:/Users/HHHES/AppData/Roaming/com.voynichlab.datasetcreator/images/1/35a70f63-88ab-4986-b441-b78046a10087.jpg" x="-1149" y="-1994" width="2972" height="3766" opacity="0.92"/>
  <rect x="0.5" y="0.5" width="61" height="52" fill="none" stroke="#111827" stroke-width="1" opacity="0.35"/>
  <polyline points="16,16 16,17 17,17 17,18 18,18 18,19 18,20 19,21 19,22 20,23 20,24 21,24 21,25 22,26 22,27 23,27 23,28 23,29 24,29 24,30 25,30 25,31 26,31 26,32 27,33 27,34 28,34 28,35 29,35 29,36 29,37 29,36 30,36 30,35 31,35 31,34 32,34 32,33 33,33 33,32 34,31 35,31 35,30 36,30 36,29 37,29 37,28 38,28 38,27 39,27 39,26 40,26 40,25 41,25 41,24 42,24 42,23 43,23 43,22 44,22 44,21 45,21 45,20 46,20" fill="none" stroke="#ff5f1f" stroke-width="3" stroke-linecap="round" stroke-linejoin="round" opacity="0.95">
    <title>3391 l:1</title>
  </polyline>
</svg>
