<?xml version="1.0" encoding="UTF-8"?>
<svg xmlns="http://www.w3.org/2000/svg" width="61" height="49" viewBox="0 0 61 49">
  <title>atom 3484 l:1</title>
  <metadata>{&quot;entityType&quot;:&quot;atom&quot;,&quot;entityId&quot;:&quot;3484&quot;,&quot;token&quot;:&quot;l:1&quot;,&quot;signature&quot;:&quot;l:1&quot;,&quot;imageName&quot;:&quot;page-003.jpg&quot;,&quot;imageId&quot;:3,&quot;bounds&quot;:{&quot;x&quot;:2017,&quot;y&quot;:2099,&quot;w&quot;:61,&quot;h&quot;:49},&quot;atoms&quot;:[{&quot;id&quot;:3484,&quot;token&quot;:&quot;l:1&quot;,&quot;particle_id&quot;:&quot;img3-m132-p3&quot;,&quot;molecule_id&quot;:&quot;img3-m132&quot;,&quot;atom_order&quot;:1}]}</metadata>
  <rect x="0" y="0" width="61" height="49" fill="#f8f0d8"/>
  <image href="file:///C:/Users/HHHES/AppData/Roaming/com.voynichlab.datasetcreator/images/1/35a70f63-88ab-4986-b441-b78046a10087.jpg" x="-2017" y="-2099" width="2972" height="3766" opacity="0.92"/>
  <rect x="0.5" y="0.5" width="60" height="48" fill="none" stroke="#111827" stroke-width="1" opacity="0.35"/>
  <polyline points="16,16 17,16 17,17 17,18 18,19 18,20 19,21 19,22 20,22 20,23 20,24 21,24 21,25 21,26 22,26 22,27 23,27 23,28 24,29 24,30 25,30 25,31 25,32 26,32 27,33 28,33 29,33 30,33 30,32 31,32 32,32 32,31 33,31 33,30 34,30 34,29 35,29 35,28 36,28 36,27 37,27 37,26 38,26 39,25 39,24 40,24 40,23 41,23 41,22 42,22 42,21 43,21 43,20 44,20 44,19 44,18 45,18 45,17 45,16" fill="none" stroke="#ff5f1f" stroke-width="3" stroke-linecap="round" stroke-linejoin="round" opacity="0.95">
    <title>3484 l:1</title>
  </polyline>
</svg>
