<?xml version="1.0" encoding="UTF-8"?>
<svg xmlns="http://www.w3.org/2000/svg" width="33" height="87" viewBox="0 0 33 87">
  <title>atom 1250 a:1</title>
  <metadata>{&quot;entityType&quot;:&quot;atom&quot;,&quot;entityId&quot;:&quot;1250&quot;,&quot;token&quot;:&quot;a:1&quot;,&quot;signature&quot;:&quot;a:1&quot;,&quot;imageName&quot;:&quot;page-003.jpg&quot;,&quot;imageId&quot;:3,&quot;bounds&quot;:{&quot;x&quot;:1886,&quot;y&quot;:566,&quot;w&quot;:33,&quot;h&quot;:87},&quot;atoms&quot;:[{&quot;id&quot;:1250,&quot;token&quot;:&quot;a:1&quot;,&quot;particle_id&quot;:&quot;img3-m10-p1&quot;,&quot;molecule_id&quot;:&quot;img3-m10&quot;,&quot;atom_order&quot;:5}]}</metadata>
  <rect x="0" y="0" width="33" height="87" fill="#f8f0d8"/>

  <rect x="0.5" y="0.5" width="32" height="86" fill="none" stroke="#111827" stroke-width="1" opacity="0.35"/>
  <polyline points="16,16 16,17 16,18 16,19 16,20 16,21 16,22 16,23 16,24 16,25 16,26 16,27 16,28 16,29 16,30 16,31 16,32 16,33 16,34 16,35 17,35 17,36 17,37 17,38 17,39 17,40 17,41 17,42 17,43 17,44 17,45 17,46 17,47 17,48 17,49 17,50 17,51 17,52 17,53 17,54 17,55 17,56 17,57 17,58 17,59 17,60 17,61 17,62 17,63 17,64 17,65 17,66 17,67 17,68 17,69 17,70 17,71" fill="none" stroke="#00f0b5" stroke-width="3" stroke-linecap="round" stroke-linejoin="round" opacity="0.95">
    <title>1250 a:1</title>
  </polyline>
</svg>
