<?xml version="1.0" encoding="UTF-8"?>
<svg xmlns="http://www.w3.org/2000/svg" width="42" height="211" viewBox="0 0 42 211">
  <title>atom 2610 a:1</title>
  <metadata>{&quot;entityType&quot;:&quot;atom&quot;,&quot;entityId&quot;:&quot;2610&quot;,&quot;token&quot;:&quot;a:1&quot;,&quot;signature&quot;:&quot;a:1&quot;,&quot;imageName&quot;:&quot;page-094.jpg&quot;,&quot;imageId&quot;:94,&quot;bounds&quot;:{&quot;x&quot;:824,&quot;y&quot;:389,&quot;w&quot;:42,&quot;h&quot;:211},&quot;atoms&quot;:[{&quot;id&quot;:2610,&quot;token&quot;:&quot;a:1&quot;,&quot;particle_id&quot;:&quot;img94-m1-p1&quot;,&quot;molecule_id&quot;:&quot;img94-m1&quot;,&quot;atom_order&quot;:2}]}</metadata>
  <rect x="0" y="0" width="42" height="211" fill="#f8f0d8"/>
  
  <rect x="0.5" y="0.5" width="41" height="210" fill="none" stroke="#111827" stroke-width="1" opacity="0.35"/>
  <polyline points="20,195 20,194 20,193 20,192 20,191 20,190 21,189 21,188 21,187 21,186 21,185 21,184 22,184 22,183 22,182 22,181 22,180 22,179 22,178 22,177 22,176 22,175 22,174 22,173 22,172 22,171 22,170 23,169 23,168 23,167 23,166 23,165 23,164 23,162 23,161 23,160 23,159 23,158 23,157 23,156 23,155 23,154 23,153 23,152 23,151 23,150 24,150 24,149 24,148 24,147 24,146 24,145 24,144 24,143 24,142 24,141 24,140 24,139 24,138 24,137 24,136 24,135 24,134 24,133 24,132 24,131 25,130 25,129 25,128 25,127 25,126 25,125 25,124 25,123 25,122 25,121 25,120 25,119 25,118 25,117 25,116 25,115 25,114 25,113 25,112 25,111 25,110 26,110 26,109 26,108 26,107 26,106 26,104 26,102 26,101 26,100 26,99 26,98 26,97 26,96 26,95 26,94 25,93 25,92 25,91 25,90 25,89 25,88 25,87 24,86 24,85 24,83 24,81 24,80 24,79 24,77 24,76 24,75 24,74 24,73 23,73 23,72 23,71 23,70 23,69 23,68 23,67 23,66 23,65 23,64 23,63 22,63 22,62 22,61 22,60 22,59 22,58 22,57 22,56 22,55 22,54 22,53 22,52 21,52 21,51 21,50 21,49 21,48 21,47 21,46 21,45 21,44 21,43 21,42 20,42 20,41 20,40 20,39 20,38 20,37 20,36 20,35 20,34 20,33 19,32 19,31 19,30 19,29 19,28 19,27 19,26 19,25 18,24 18,23 18,22 18,21 18,20 17,20 17,19 17,18 16,18 16,17 16,16" fill="none" stroke="#00f0b5" stroke-width="3" stroke-linecap="round" stroke-linejoin="round" opacity="0.95">
    <title>2610 a:1</title>
  </polyline>
</svg>
