<?xml version="1.0" encoding="UTF-8"?>
<svg xmlns="http://www.w3.org/2000/svg" width="36" height="84" viewBox="0 0 36 84">
  <title>atom 3220 a:1</title>
  <metadata>{&quot;entityType&quot;:&quot;atom&quot;,&quot;entityId&quot;:&quot;3220&quot;,&quot;token&quot;:&quot;a:1&quot;,&quot;signature&quot;:&quot;a:1&quot;,&quot;imageName&quot;:&quot;page-003.jpg&quot;,&quot;imageId&quot;:3,&quot;bounds&quot;:{&quot;x&quot;:1028,&quot;y&quot;:1805,&quot;w&quot;:36,&quot;h&quot;:84},&quot;atoms&quot;:[{&quot;id&quot;:3220,&quot;token&quot;:&quot;a:1&quot;,&quot;particle_id&quot;:&quot;img3-m100-p1&quot;,&quot;molecule_id&quot;:&quot;img3-m100&quot;,&quot;atom_order&quot;:2}]}</metadata>
  <rect x="0" y="0" width="36" height="84" fill="#f8f0d8"/>

  <rect x="0.5" y="0.5" width="35" height="83" fill="none" stroke="#111827" stroke-width="1" opacity="0.35"/>
  <polyline points="19,16 19,17 19,18 19,19 19,20 19,21 19,22 20,22 20,23 20,24 20,25 20,26 20,27 20,28 20,29 20,30 20,31 19,32 19,33 19,34 19,35 19,36 18,37 18,38 18,39 18,40 18,41 18,42 18,43 18,44 18,45 18,46 18,47 17,47 17,48 17,49 17,50 17,51 17,52 17,53 17,54 17,55 17,56 17,57 17,58 17,59 17,60 16,61 16,62 16,63 16,64 16,65 16,66 16,67 16,68" fill="none" stroke="#00f0b5" stroke-width="3" stroke-linecap="round" stroke-linejoin="round" opacity="0.95">
    <title>3220 a:1</title>
  </polyline>
</svg>
