<?xml version="1.0" encoding="UTF-8"?>
<svg xmlns="http://www.w3.org/2000/svg" width="35" height="87" viewBox="0 0 35 87">
  <title>atom 3221 a:1</title>
  <metadata>{&quot;entityType&quot;:&quot;atom&quot;,&quot;entityId&quot;:&quot;3221&quot;,&quot;token&quot;:&quot;a:1&quot;,&quot;signature&quot;:&quot;a:1&quot;,&quot;imageName&quot;:&quot;page-003.jpg&quot;,&quot;imageId&quot;:3,&quot;bounds&quot;:{&quot;x&quot;:1050,&quot;y&quot;:1806,&quot;w&quot;:35,&quot;h&quot;:87},&quot;atoms&quot;:[{&quot;id&quot;:3221,&quot;token&quot;:&quot;a:1&quot;,&quot;particle_id&quot;:&quot;img3-m100-p1&quot;,&quot;molecule_id&quot;:&quot;img3-m100&quot;,&quot;atom_order&quot;:5}]}</metadata>
  <rect x="0" y="0" width="35" height="87" fill="#f8f0d8"/>

  <rect x="0.5" y="0.5" width="34" height="86" fill="none" stroke="#111827" stroke-width="1" opacity="0.35"/>
  <polyline points="19,16 19,17 19,18 19,19 19,20 19,21 19,22 19,23 19,24 19,25 19,26 19,27 19,28 19,29 19,30 19,31 18,31 18,32 18,33 18,34 18,35 18,36 18,37 18,38 18,39 18,40 18,41 18,42 17,43 17,44 17,45 17,46 17,47 17,48 17,49 17,50 17,51 17,52 17,53 17,54 16,55 16,56 16,57 16,58 16,59 16,60 16,61 16,62 16,63 16,64 16,65 16,66 16,67 16,68 16,69 16,70 16,71" fill="none" stroke="#00f0b5" stroke-width="3" stroke-linecap="round" stroke-linejoin="round" opacity="0.95">
    <title>3221 a:1</title>
  </polyline>
</svg>
