<?xml version="1.0" encoding="UTF-8"?>
<svg xmlns="http://www.w3.org/2000/svg" width="35" height="123" viewBox="0 0 35 123">
  <title>atom 4655 a:1</title>
  <metadata>{&quot;entityType&quot;:&quot;atom&quot;,&quot;entityId&quot;:&quot;4655&quot;,&quot;token&quot;:&quot;a:1&quot;,&quot;signature&quot;:&quot;a:1&quot;,&quot;imageName&quot;:&quot;page-004.jpg&quot;,&quot;imageId&quot;:4,&quot;bounds&quot;:{&quot;x&quot;:595,&quot;y&quot;:1805,&quot;w&quot;:35,&quot;h&quot;:123},&quot;atoms&quot;:[{&quot;id&quot;:4655,&quot;token&quot;:&quot;a:1&quot;,&quot;particle_id&quot;:&quot;img4-m1-p1&quot;,&quot;molecule_id&quot;:&quot;img4-m1&quot;,&quot;atom_order&quot;:4}]}</metadata>
  <rect x="0" y="0" width="35" height="123" fill="#f8f0d8"/>

  <rect x="0.5" y="0.5" width="34" height="122" fill="none" stroke="#111827" stroke-width="1" opacity="0.35"/>
  <polyline points="19,16 19,17 19,18 19,19 19,20 19,21 19,22 18,23 18,24 18,25 18,26 18,27 18,28 18,29 18,30 18,31 18,32 18,33 18,34 18,35 18,36 18,37 18,38 18,39 18,40 18,41 18,42 18,43 18,44 18,45 17,46 17,47 17,48 17,49 17,50 17,51 17,52 17,53 17,54 17,55 17,56 17,57 17,58 17,59 17,60 16,61 16,62 16,63 16,64 16,65 16,66 16,67 16,68 16,69 16,70 16,71 16,72 16,73 16,74 16,75 16,76 16,77 16,78 16,79 16,80 17,82 17,83 17,84 17,85 18,86 18,87 18,88 18,89 18,90 19,90 19,91 19,92 19,93 19,94 19,95 19,96 19,97 19,98 19,99 19,100 19,101 19,102 18,103 18,104 18,105 18,106 17,106 17,107" fill="none" stroke="#00f0b5" stroke-width="3" stroke-linecap="round" stroke-linejoin="round" opacity="0.95">
    <title>4655 a:1</title>
  </polyline>
</svg>
