<?xml version="1.0" encoding="UTF-8"?>
<svg xmlns="http://www.w3.org/2000/svg" width="38" height="88" viewBox="0 0 38 88">
  <title>atom 4662 a:1</title>
  <metadata>{&quot;entityType&quot;:&quot;atom&quot;,&quot;entityId&quot;:&quot;4662&quot;,&quot;token&quot;:&quot;a:1&quot;,&quot;signature&quot;:&quot;a:1&quot;,&quot;imageName&quot;:&quot;page-004.jpg&quot;,&quot;imageId&quot;:4,&quot;bounds&quot;:{&quot;x&quot;:1889,&quot;y&quot;:2006,&quot;w&quot;:38,&quot;h&quot;:88},&quot;atoms&quot;:[{&quot;id&quot;:4662,&quot;token&quot;:&quot;a:1&quot;,&quot;particle_id&quot;:&quot;img4-m12-p1&quot;,&quot;molecule_id&quot;:&quot;img4-m12&quot;,&quot;atom_order&quot;:1}]}</metadata>
  <rect x="0" y="0" width="38" height="88" fill="#f8f0d8"/>
  
  <rect x="0.5" y="0.5" width="37" height="87" fill="none" stroke="#111827" stroke-width="1" opacity="0.35"/>
  <polyline points="16,72 16,71 16,70 16,69 16,68 17,68 17,67 17,66 17,65 17,64 17,63 17,62 18,61 18,60 18,59 18,58 18,57 18,56 18,55 18,54 18,53 18,52 18,51 18,50 18,49 18,48 18,47 18,46 18,45 18,44 18,43 18,42 18,41 19,40 19,39 19,38 19,37 19,36 20,36 20,35 20,34 20,33 21,32 21,31 21,30 21,29 21,28 21,27 21,26 22,26 22,25 22,24 22,23 22,22 22,21 22,20 22,19 22,18 22,17 22,16" fill="none" stroke="#00f0b5" stroke-width="3" stroke-linecap="round" stroke-linejoin="round" opacity="0.95">
    <title>4662 a:1</title>
  </polyline>
</svg>
