<?xml version="1.0" encoding="UTF-8"?>
<svg xmlns="http://www.w3.org/2000/svg" width="37" height="78" viewBox="0 0 37 78">
  <title>atom 4669 a:1</title>
  <metadata>{&quot;entityType&quot;:&quot;atom&quot;,&quot;entityId&quot;:&quot;4669&quot;,&quot;token&quot;:&quot;a:1&quot;,&quot;signature&quot;:&quot;a:1&quot;,&quot;imageName&quot;:&quot;page-004.jpg&quot;,&quot;imageId&quot;:4,&quot;bounds&quot;:{&quot;x&quot;:825,&quot;y&quot;:2015,&quot;w&quot;:37,&quot;h&quot;:78},&quot;atoms&quot;:[{&quot;id&quot;:4669,&quot;token&quot;:&quot;a:1&quot;,&quot;particle_id&quot;:&quot;img4-m13-p1&quot;,&quot;molecule_id&quot;:&quot;img4-m13&quot;,&quot;atom_order&quot;:4}]}</metadata>
  <rect x="0" y="0" width="37" height="78" fill="#f8f0d8"/>
  
  <rect x="0.5" y="0.5" width="36" height="77" fill="none" stroke="#111827" stroke-width="1" opacity="0.35"/>
  <polyline points="21,17 21,16 21,17 21,18 20,19 20,21 20,22 19,24 19,25 18,27 18,29 18,31 17,33 17,36 16,37 16,39 16,40 16,41 16,42 16,43 16,44 16,45 16,46 16,47 16,48 16,49 16,50 16,51 16,52 16,54 16,55 16,56 16,57 16,58 16,59 16,60 16,61 16,62" fill="none" stroke="#00f0b5" stroke-width="3" stroke-linecap="round" stroke-linejoin="round" opacity="0.95">
    <title>4669 a:1</title>
  </polyline>
</svg>
