<?xml version="1.0" encoding="UTF-8"?>
<svg xmlns="http://www.w3.org/2000/svg" width="37" height="131" viewBox="0 0 37 131">
  <title>atom 6514 a:1</title>
  <metadata>{&quot;entityType&quot;:&quot;atom&quot;,&quot;entityId&quot;:&quot;6514&quot;,&quot;token&quot;:&quot;a:1&quot;,&quot;signature&quot;:&quot;a:1&quot;,&quot;imageName&quot;:&quot;page-006.jpg&quot;,&quot;imageId&quot;:6,&quot;bounds&quot;:{&quot;x&quot;:734,&quot;y&quot;:587,&quot;w&quot;:37,&quot;h&quot;:131},&quot;atoms&quot;:[{&quot;id&quot;:6514,&quot;token&quot;:&quot;a:1&quot;,&quot;particle_id&quot;:&quot;img6-m1-p1&quot;,&quot;molecule_id&quot;:&quot;img6-m1&quot;,&quot;atom_order&quot;:1}]}</metadata>
  <rect x="0" y="0" width="37" height="131" fill="#f8f0d8"/>

  <rect x="0.5" y="0.5" width="36" height="130" fill="none" stroke="#111827" stroke-width="1" opacity="0.35"/>
  <polyline points="21,16 21,17 21,18 21,19 21,20 21,21 21,22 21,23 21,25 20,26 20,27 20,28 20,29 20,30 20,31 20,32 20,33 20,34 20,35 20,36 20,37 20,38 20,39 20,41 20,42 20,43 20,45 20,46 20,47 20,48 20,49 20,51 20,52 20,53 20,54 20,55 20,56 20,58 20,59 20,61 20,62 20,64 20,65 20,67 20,68 20,70 20,71 20,72 20,73 19,74 19,75 19,76 19,78 19,79 19,81 19,83 19,84 19,85 19,86 18,87 18,88 18,90 18,91 18,92 18,94 18,95 18,96 18,97 18,98 18,99 18,100 18,101 17,102 17,103 17,104 17,105 17,106 17,107 17,108 17,109 17,110 17,111 17,112 17,113 17,114 17,115 16,115" fill="none" stroke="#00f0b5" stroke-width="3" stroke-linecap="round" stroke-linejoin="round" opacity="0.95">
    <title>6514 a:1</title>
  </polyline>
</svg>
