<?xml version="1.0" encoding="UTF-8"?>
<svg xmlns="http://www.w3.org/2000/svg" width="40" height="96" viewBox="0 0 40 96">
  <title>atom 6527 a:1</title>
  <metadata>{&quot;entityType&quot;:&quot;atom&quot;,&quot;entityId&quot;:&quot;6527&quot;,&quot;token&quot;:&quot;a:1&quot;,&quot;signature&quot;:&quot;a:1&quot;,&quot;imageName&quot;:&quot;page-006.jpg&quot;,&quot;imageId&quot;:6,&quot;bounds&quot;:{&quot;x&quot;:1406,&quot;y&quot;:738,&quot;w&quot;:40,&quot;h&quot;:96},&quot;atoms&quot;:[{&quot;id&quot;:6527,&quot;token&quot;:&quot;a:1&quot;,&quot;particle_id&quot;:&quot;img6-m10-p2&quot;,&quot;molecule_id&quot;:&quot;img6-m10&quot;,&quot;atom_order&quot;:5}]}</metadata>
  <rect x="0" y="0" width="40" height="96" fill="#f8f0d8"/>

  <rect x="0.5" y="0.5" width="39" height="95" fill="none" stroke="#111827" stroke-width="1" opacity="0.35"/>
  <polyline points="24,16 24,17 24,18 23,19 23,20 23,21 23,22 22,23 22,24 21,25 21,26 21,27 20,28 20,29 20,30 20,31 20,33 20,34 20,35 20,37 20,38 20,40 20,41 20,42 20,43 19,44 19,45 19,46 19,47 19,48 19,49 19,51 19,52 19,53 18,54 18,55 18,56 18,57 18,58 18,59 18,60 18,62 18,63 18,64 18,65 18,66 18,67 17,68 17,69 17,71 17,72 17,73 17,75 16,75 16,76 16,77 16,78 16,79 16,80 16,79" fill="none" stroke="#00f0b5" stroke-width="3" stroke-linecap="round" stroke-linejoin="round" opacity="0.95">
    <title>6527 a:1</title>
  </polyline>
</svg>
