<?xml version="1.0" encoding="UTF-8"?>
<svg xmlns="http://www.w3.org/2000/svg" width="35" height="100" viewBox="0 0 35 100">
  <title>atom 6528 a:1</title>
  <metadata>{&quot;entityType&quot;:&quot;atom&quot;,&quot;entityId&quot;:&quot;6528&quot;,&quot;token&quot;:&quot;a:1&quot;,&quot;signature&quot;:&quot;a:1&quot;,&quot;imageName&quot;:&quot;page-006.jpg&quot;,&quot;imageId&quot;:6,&quot;bounds&quot;:{&quot;x&quot;:1389,&quot;y&quot;:734,&quot;w&quot;:35,&quot;h&quot;:100},&quot;atoms&quot;:[{&quot;id&quot;:6528,&quot;token&quot;:&quot;a:1&quot;,&quot;particle_id&quot;:&quot;img6-m10-p2&quot;,&quot;molecule_id&quot;:&quot;img6-m10&quot;,&quot;atom_order&quot;:1}]}</metadata>
  <rect x="0" y="0" width="35" height="100" fill="#f8f0d8"/>

  <rect x="0.5" y="0.5" width="34" height="99" fill="none" stroke="#111827" stroke-width="1" opacity="0.35"/>
  <polyline points="16,16 16,17 17,17 17,18 17,19 18,20 18,21 18,22 18,23 18,24 19,25 19,26 19,27 19,28 19,30 19,31 19,32 18,34 18,35 18,37 18,39 18,40 18,41 18,43 18,44 18,45 17,46 17,48 17,49 17,51 17,52 17,53 17,54 17,56 17,57 17,59 17,60 17,62 17,63 17,65 16,66 16,68 16,69 16,70 16,71 17,72 17,73 17,74 17,75 17,76 17,77 17,78 17,79 17,80 17,81 17,82 17,83 17,84" fill="none" stroke="#00f0b5" stroke-width="3" stroke-linecap="round" stroke-linejoin="round" opacity="0.95">
    <title>6528 a:1</title>
  </polyline>
</svg>
