<?xml version="1.0" encoding="UTF-8"?>
<svg xmlns="http://www.w3.org/2000/svg" width="36" height="68" viewBox="0 0 36 68">
  <title>atom 6529 a:1</title>
  <metadata>{&quot;entityType&quot;:&quot;atom&quot;,&quot;entityId&quot;:&quot;6529&quot;,&quot;token&quot;:&quot;a:1&quot;,&quot;signature&quot;:&quot;a:1&quot;,&quot;imageName&quot;:&quot;page-006.jpg&quot;,&quot;imageId&quot;:6,&quot;bounds&quot;:{&quot;x&quot;:1328,&quot;y&quot;:811,&quot;w&quot;:36,&quot;h&quot;:68},&quot;atoms&quot;:[{&quot;id&quot;:6529,&quot;token&quot;:&quot;a:1&quot;,&quot;particle_id&quot;:&quot;img6-m10-p1&quot;,&quot;molecule_id&quot;:&quot;img6-m10&quot;,&quot;atom_order&quot;:1}]}</metadata>
  <rect x="0" y="0" width="36" height="68" fill="#f8f0d8"/>

  <rect x="0.5" y="0.5" width="35" height="67" fill="none" stroke="#111827" stroke-width="1" opacity="0.35"/>
  <polyline points="16,52 16,51 16,50 16,49 16,48 16,47 16,46 16,45 17,44 17,43 17,42 17,41 17,40 18,40 18,39 18,38 18,37 18,36 18,35 18,34 18,33 18,32 18,31 19,31 19,30 19,29 19,28 19,27 19,26 19,25 19,24 19,23 19,22 20,21 20,20 20,19 20,18 20,17 20,16" fill="none" stroke="#00f0b5" stroke-width="3" stroke-linecap="round" stroke-linejoin="round" opacity="0.95">
    <title>6529 a:1</title>
  </polyline>
</svg>
