<?xml version="1.0" encoding="UTF-8"?>
<svg xmlns="http://www.w3.org/2000/svg" width="42" height="91" viewBox="0 0 42 91">
  <title>atom 1007 h:1</title>
  <metadata>{&quot;entityType&quot;:&quot;atom&quot;,&quot;entityId&quot;:&quot;1007&quot;,&quot;token&quot;:&quot;h:1&quot;,&quot;signature&quot;:&quot;h:1&quot;,&quot;imageName&quot;:&quot;page-003.jpg&quot;,&quot;imageId&quot;:3,&quot;bounds&quot;:{&quot;x&quot;:848,&quot;y&quot;:522,&quot;w&quot;:42,&quot;h&quot;:91},&quot;atoms&quot;:[{&quot;id&quot;:1007,&quot;token&quot;:&quot;h:1&quot;,&quot;particle_id&quot;:&quot;img3-m9-p1&quot;,&quot;molecule_id&quot;:&quot;img3-m9&quot;,&quot;atom_order&quot;:2}]}</metadata>
  <rect x="0" y="0" width="42" height="91" fill="#f8f0d8"/>
  <image href="file:///C:/Users/HHHES/AppData/Roaming/com.voynichlab.datasetcreator/images/1/35a70f63-88ab-4986-b441-b78046a10087.jpg" x="-848" y="-522" width="2972" height="3766" opacity="0.92"/>
  <rect x="0.5" y="0.5" width="41" height="90" fill="none" stroke="#111827" stroke-width="1" opacity="0.35"/>
  <polyline points="16,16 17,16 18,16 18,17 19,17 19,18 19,19 20,19 20,20 21,20 21,21 22,21 22,22 23,23 23,24 24,24 24,25 24,26 24,27 25,27 25,28 25,29 25,30 25,31 25,32 25,33 25,34 25,35 26,36 26,37 26,38 26,39 26,40 26,41 26,42 25,43 25,44 25,45 25,46 25,47 25,48 25,49 25,50 25,51 25,52 24,52 24,53 24,54 24,55 24,56 24,57 24,58 23,58 23,59 23,60 23,61 23,62 22,62 22,63 22,64 22,65 21,66 21,67 21,68 20,69 20,70 20,71 19,72 19,73 19,74 19,75 18,75" fill="none" stroke="#ff8c00" stroke-width="3" stroke-linecap="round" stroke-linejoin="round" opacity="0.95">
    <title>1007 h:1</title>
  </polyline>
</svg>
