<?xml version="1.0" encoding="UTF-8"?>
<svg xmlns="http://www.w3.org/2000/svg" width="46" height="95" viewBox="0 0 46 95">
  <title>atom 1034 h:1</title>
  <metadata>{&quot;entityType&quot;:&quot;atom&quot;,&quot;entityId&quot;:&quot;1034&quot;,&quot;token&quot;:&quot;h:1&quot;,&quot;signature&quot;:&quot;h:1&quot;,&quot;imageName&quot;:&quot;page-003.jpg&quot;,&quot;imageId&quot;:3,&quot;bounds&quot;:{&quot;x&quot;:691,&quot;y&quot;:625,&quot;w&quot;:46,&quot;h&quot;:95},&quot;atoms&quot;:[{&quot;id&quot;:1034,&quot;token&quot;:&quot;h:1&quot;,&quot;particle_id&quot;:&quot;img3-m15-p4&quot;,&quot;molecule_id&quot;:&quot;img3-m15&quot;,&quot;atom_order&quot;:2}]}</metadata>
  <rect x="0" y="0" width="46" height="95" fill="#f8f0d8"/>
  <image href="file:///C:/Users/HHHES/AppData/Roaming/com.voynichlab.datasetcreator/images/1/35a70f63-88ab-4986-b441-b78046a10087.jpg" x="-691" y="-625" width="2972" height="3766" opacity="0.92"/>
  <rect x="0.5" y="0.5" width="45" height="94" fill="none" stroke="#111827" stroke-width="1" opacity="0.35"/>
  <polyline points="16,16 17,16 17,17 18,18 18,19 19,19 19,20 20,20 20,21 21,21 21,22 22,22 22,23 23,24 23,25 24,25 24,26 24,27 24,28 25,28 25,29 25,30 26,30 26,31 26,32 26,33 27,33 27,34 27,35 28,35 28,36 28,37 28,38 28,39 29,39 29,40 29,41 29,42 29,43 30,43 30,44 30,45 30,46 30,47 30,48 30,49 30,50 30,51 30,52 30,53 30,54 30,55 30,56 30,57 30,58 30,59 30,60 29,61 29,62 29,63 28,64 28,65 28,66 27,66 27,67 27,68 26,69 26,70 26,71 25,72 25,73 24,74 24,75 23,75 23,76 22,76 22,77 21,77 21,78 20,78 20,79 19,79 18,79" fill="none" stroke="#ff8c00" stroke-width="3" stroke-linecap="round" stroke-linejoin="round" opacity="0.95">
    <title>1034 h:1</title>
  </polyline>
</svg>
