<?xml version="1.0" encoding="UTF-8"?>
<svg xmlns="http://www.w3.org/2000/svg" width="65" height="93" viewBox="0 0 65 93">
  <title>atom 1113 h:1</title>
  <metadata>{&quot;entityType&quot;:&quot;atom&quot;,&quot;entityId&quot;:&quot;1113&quot;,&quot;token&quot;:&quot;h:1&quot;,&quot;signature&quot;:&quot;h:1&quot;,&quot;imageName&quot;:&quot;page-003.jpg&quot;,&quot;imageId&quot;:3,&quot;bounds&quot;:{&quot;x&quot;:1976,&quot;y&quot;:517,&quot;w&quot;:65,&quot;h&quot;:93},&quot;atoms&quot;:[{&quot;id&quot;:1113,&quot;token&quot;:&quot;h:1&quot;,&quot;particle_id&quot;:&quot;img3-m7-p1&quot;,&quot;molecule_id&quot;:&quot;img3-m7&quot;,&quot;atom_order&quot;:2}]}</metadata>
  <rect x="0" y="0" width="65" height="93" fill="#f8f0d8"/>
  <image href="file:///C:/Users/HHHES/AppData/Roaming/com.voynichlab.datasetcreator/images/1/35a70f63-88ab-4986-b441-b78046a10087.jpg" x="-1976" y="-517" width="2972" height="3766" opacity="0.92"/>
  <rect x="0.5" y="0.5" width="64" height="92" fill="none" stroke="#111827" stroke-width="1" opacity="0.35"/>
  <polyline points="40,16 41,16 41,17 42,17 42,18 43,18 43,19 43,20 44,20 44,21 44,22 45,22 45,23 45,24 46,24 46,25 46,26 47,26 47,27 47,28 47,29 48,29 48,30 48,31 48,32 48,33 49,33 49,34 49,35 49,36 49,37 49,38 49,39 49,40 49,41 49,42 49,43 48,44 48,45 48,46 48,47 48,48 47,48 47,49 47,50 47,51 46,51 46,52 46,53 45,53 45,54 45,55 44,55 44,56 43,56 43,57 42,57 42,58 41,58 41,59 40,59 40,60 39,60 39,61 38,61 38,62 37,62 37,63 36,63 36,64 35,64 35,65 34,65 34,66 33,66 32,67 31,67 31,68 30,68 30,69 29,69 29,70 28,70 27,71 26,71 25,71 25,72 24,72 23,73 22,74 21,74 21,75 20,75 19,75 19,76 18,76 17,76 17,77 16,77" fill="none" stroke="#ff8c00" stroke-width="3" stroke-linecap="round" stroke-linejoin="round" opacity="0.95">
    <title>1113 h:1</title>
  </polyline>
</svg>
