<?xml version="1.0" encoding="UTF-8"?>
<svg xmlns="http://www.w3.org/2000/svg" width="44" height="79" viewBox="0 0 44 79">
  <title>atom 1359 h:1</title>
  <metadata>{&quot;entityType&quot;:&quot;atom&quot;,&quot;entityId&quot;:&quot;1359&quot;,&quot;token&quot;:&quot;h:1&quot;,&quot;signature&quot;:&quot;h:1&quot;,&quot;imageName&quot;:&quot;page-003.jpg&quot;,&quot;imageId&quot;:3,&quot;bounds&quot;:{&quot;x&quot;:957,&quot;y&quot;:705,&quot;w&quot;:44,&quot;h&quot;:79},&quot;atoms&quot;:[{&quot;id&quot;:1359,&quot;token&quot;:&quot;h:1&quot;,&quot;particle_id&quot;:&quot;img3-m27-p5&quot;,&quot;molecule_id&quot;:&quot;img3-m27&quot;,&quot;atom_order&quot;:2}]}</metadata>
  <rect x="0" y="0" width="44" height="79" fill="#f8f0d8"/>
  <image href="file:///C:/Users/HHHES/AppData/Roaming/com.voynichlab.datasetcreator/images/1/35a70f63-88ab-4986-b441-b78046a10087.jpg" x="-957" y="-705" width="2972" height="3766" opacity="0.92"/>
  <rect x="0.5" y="0.5" width="43" height="78" fill="none" stroke="#111827" stroke-width="1" opacity="0.35"/>
  <polyline points="20,16 20,17 21,17 21,18 22,18 22,19 23,19 23,20 23,21 24,22 24,23 25,23 25,24 25,25 26,25 26,26 26,27 27,27 27,28 27,29 27,30 27,31 28,32 28,33 28,34 28,35 28,36 28,37 28,38 28,39 28,40 28,41 28,42 27,43 27,44 27,45 27,46 26,46 26,47 26,48 25,48 25,49 24,50 24,51 24,52 23,52 23,53 23,54 22,54 22,55 22,56 21,56 21,57 21,58 20,58 20,59 20,60 19,60 19,61 18,61 18,62 17,63 16,63" fill="none" stroke="#ff8c00" stroke-width="3" stroke-linecap="round" stroke-linejoin="round" opacity="0.95">
    <title>1359 h:1</title>
  </polyline>
</svg>
