<?xml version="1.0" encoding="UTF-8"?>
<svg xmlns="http://www.w3.org/2000/svg" width="55" height="70" viewBox="0 0 55 70">
  <title>atom 1368 h:1</title>
  <metadata>{&quot;entityType&quot;:&quot;atom&quot;,&quot;entityId&quot;:&quot;1368&quot;,&quot;token&quot;:&quot;h:1&quot;,&quot;signature&quot;:&quot;h:1&quot;,&quot;imageName&quot;:&quot;page-003.jpg&quot;,&quot;imageId&quot;:3,&quot;bounds&quot;:{&quot;x&quot;:1113,&quot;y&quot;:705,&quot;w&quot;:55,&quot;h&quot;:70},&quot;atoms&quot;:[{&quot;id&quot;:1368,&quot;token&quot;:&quot;h:1&quot;,&quot;particle_id&quot;:&quot;img3-m26-p1&quot;,&quot;molecule_id&quot;:&quot;img3-m26&quot;,&quot;atom_order&quot;:2}]}</metadata>
  <rect x="0" y="0" width="55" height="70" fill="#f8f0d8"/>
  <image href="file:///C:/Users/HHHES/AppData/Roaming/com.voynichlab.datasetcreator/images/1/35a70f63-88ab-4986-b441-b78046a10087.jpg" x="-1113" y="-705" width="2972" height="3766" opacity="0.92"/>
  <rect x="0.5" y="0.5" width="54" height="69" fill="none" stroke="#111827" stroke-width="1" opacity="0.35"/>
  <polyline points="32,16 32,17 33,17 33,18 34,18 34,19 35,19 35,20 36,20 36,21 37,22 37,23 38,24 38,25 39,26 39,27 39,28 39,29 39,30 39,31 39,32 39,33 39,34 39,35 38,35 38,36 38,37 38,38 37,38 37,39 37,40 36,40 36,41 35,41 35,42 34,42 34,43 33,43 33,44 32,44 32,45 31,45 31,46 30,46 30,47 29,47 28,47 28,48 27,48 26,48 26,49 25,49 24,49 24,50 23,50 22,51 21,51 20,51 20,52 19,52 18,52 17,53 16,53 16,54" fill="none" stroke="#ff8c00" stroke-width="3" stroke-linecap="round" stroke-linejoin="round" opacity="0.95">
    <title>1368 h:1</title>
  </polyline>
</svg>
