<?xml version="1.0" encoding="UTF-8"?>
<svg xmlns="http://www.w3.org/2000/svg" width="60" height="87" viewBox="0 0 60 87">
  <title>atom 1638 h:1</title>
  <metadata>{&quot;entityType&quot;:&quot;atom&quot;,&quot;entityId&quot;:&quot;1638&quot;,&quot;token&quot;:&quot;h:1&quot;,&quot;signature&quot;:&quot;h:1&quot;,&quot;imageName&quot;:&quot;page-003.jpg&quot;,&quot;imageId&quot;:3,&quot;bounds&quot;:{&quot;x&quot;:685,&quot;y&quot;:892,&quot;w&quot;:60,&quot;h&quot;:87},&quot;atoms&quot;:[{&quot;id&quot;:1638,&quot;token&quot;:&quot;h:1&quot;,&quot;particle_id&quot;:&quot;img3-m41-p4&quot;,&quot;molecule_id&quot;:&quot;img3-m41&quot;,&quot;atom_order&quot;:2}]}</metadata>
  <rect x="0" y="0" width="60" height="87" fill="#f8f0d8"/>
  <image href="file:///C:/Users/HHHES/AppData/Roaming/com.voynichlab.datasetcreator/images/1/35a70f63-88ab-4986-b441-b78046a10087.jpg" x="-685" y="-892" width="2972" height="3766" opacity="0.92"/>
  <rect x="0.5" y="0.5" width="59" height="86" fill="none" stroke="#111827" stroke-width="1" opacity="0.35"/>
  <polyline points="34,16 34,17 35,17 36,17 37,18 37,19 38,19 38,20 39,20 39,21 39,22 40,22 40,23 40,24 41,24 41,25 41,26 42,26 42,27 42,28 43,28 43,29 43,30 43,31 44,32 44,33 44,34 44,35 44,36 44,37 44,38 44,39 44,40 44,41 44,42 44,43 44,44 44,45 44,46 44,47 43,47 43,48 43,49 43,50 42,50 42,51 42,52 41,52 41,53 41,54 40,55 40,56 39,56 39,57 39,58 38,58 38,59 37,59 37,60 36,60 36,61 35,61 34,62 33,63 32,64 31,65 30,65 30,66 29,66 28,67 27,67 27,68 26,68 25,68 25,69 24,69 23,69 23,70 22,70 21,70 20,70 19,70 19,71 18,71 17,71 16,71" fill="none" stroke="#ff8c00" stroke-width="3" stroke-linecap="round" stroke-linejoin="round" opacity="0.95">
    <title>1638 h:1</title>
  </polyline>
</svg>
