<?xml version="1.0" encoding="UTF-8"?>
<svg xmlns="http://www.w3.org/2000/svg" width="54" height="75" viewBox="0 0 54 75">
  <title>atom 1897 h:1</title>
  <metadata>{&quot;entityType&quot;:&quot;atom&quot;,&quot;entityId&quot;:&quot;1897&quot;,&quot;token&quot;:&quot;h:1&quot;,&quot;signature&quot;:&quot;h:1&quot;,&quot;imageName&quot;:&quot;page-003.jpg&quot;,&quot;imageId&quot;:3,&quot;bounds&quot;:{&quot;x&quot;:682,&quot;y&quot;:1171,&quot;w&quot;:54,&quot;h&quot;:75},&quot;atoms&quot;:[{&quot;id&quot;:1897,&quot;token&quot;:&quot;h:1&quot;,&quot;particle_id&quot;:&quot;img3-m58-p5&quot;,&quot;molecule_id&quot;:&quot;img3-m58&quot;,&quot;atom_order&quot;:2}]}</metadata>
  <rect x="0" y="0" width="54" height="75" fill="#f8f0d8"/>
  <image href="file:///C:/Users/HHHES/AppData/Roaming/com.voynichlab.datasetcreator/images/1/35a70f63-88ab-4986-b441-b78046a10087.jpg" x="-682" y="-1171" width="2972" height="3766" opacity="0.92"/>
  <rect x="0.5" y="0.5" width="53" height="74" fill="none" stroke="#111827" stroke-width="1" opacity="0.35"/>
  <polyline points="29,16 30,16 31,16 32,16 33,17 34,17 34,18 35,18 35,19 36,20 36,21 36,22 37,22 37,23 37,24 37,25 37,26 37,27 38,27 38,28 38,29 38,30 38,31 38,32 37,32 37,33 37,34 37,35 36,36 36,37 36,38 35,38 35,39 35,40 34,40 34,41 33,41 33,42 32,42 32,43 31,43 31,44 30,44 30,45 29,45 29,46 28,46 28,47 27,47 27,48 26,48 26,49 25,49 25,50 24,50 24,51 23,52 22,52 22,53 21,53 21,54 20,55 19,56 19,57 18,57 17,58 17,59 16,59" fill="none" stroke="#ff8c00" stroke-width="3" stroke-linecap="round" stroke-linejoin="round" opacity="0.95">
    <title>1897 h:1</title>
  </polyline>
</svg>
