<?xml version="1.0" encoding="UTF-8"?>
<svg xmlns="http://www.w3.org/2000/svg" width="51" height="78" viewBox="0 0 51 78">
  <title>atom 1946 h:1</title>
  <metadata>{&quot;entityType&quot;:&quot;atom&quot;,&quot;entityId&quot;:&quot;1946&quot;,&quot;token&quot;:&quot;h:1&quot;,&quot;signature&quot;:&quot;h:1&quot;,&quot;imageName&quot;:&quot;page-003.jpg&quot;,&quot;imageId&quot;:3,&quot;bounds&quot;:{&quot;x&quot;:892,&quot;y&quot;:1153,&quot;w&quot;:51,&quot;h&quot;:78},&quot;atoms&quot;:[{&quot;id&quot;:1946,&quot;token&quot;:&quot;h:1&quot;,&quot;particle_id&quot;:&quot;img3-m56-p5&quot;,&quot;molecule_id&quot;:&quot;img3-m56&quot;,&quot;atom_order&quot;:2}]}</metadata>
  <rect x="0" y="0" width="51" height="78" fill="#f8f0d8"/>
  <image href="file:///C:/Users/HHHES/AppData/Roaming/com.voynichlab.datasetcreator/images/1/35a70f63-88ab-4986-b441-b78046a10087.jpg" x="-892" y="-1153" width="2972" height="3766" opacity="0.92"/>
  <rect x="0.5" y="0.5" width="50" height="77" fill="none" stroke="#111827" stroke-width="1" opacity="0.35"/>
  <polyline points="30,16 31,16 31,17 32,17 32,18 32,19 32,20 33,20 33,21 33,22 33,23 33,24 34,24 34,25 34,26 34,27 34,28 35,28 35,29 35,30 35,31 35,32 35,33 35,34 35,35 35,36 35,37 34,38 34,39 34,40 33,41 33,42 32,43 32,44 32,45 31,45 31,46 31,47 30,47 30,48 30,49 29,49 29,50 29,51 28,51 28,52 27,52 27,53 27,54 26,54 26,55 25,56 24,57 23,57 23,58 22,58 21,58 21,59 20,59 19,60 18,61 17,61 17,62 16,62" fill="none" stroke="#ff8c00" stroke-width="3" stroke-linecap="round" stroke-linejoin="round" opacity="0.95">
    <title>1946 h:1</title>
  </polyline>
</svg>
