<?xml version="1.0" encoding="UTF-8"?>
<svg xmlns="http://www.w3.org/2000/svg" width="51" height="75" viewBox="0 0 51 75">
  <title>atom 1948 h:1</title>
  <metadata>{&quot;entityType&quot;:&quot;atom&quot;,&quot;entityId&quot;:&quot;1948&quot;,&quot;token&quot;:&quot;h:1&quot;,&quot;signature&quot;:&quot;h:1&quot;,&quot;imageName&quot;:&quot;page-003.jpg&quot;,&quot;imageId&quot;:3,&quot;bounds&quot;:{&quot;x&quot;:1609,&quot;y&quot;:1148,&quot;w&quot;:51,&quot;h&quot;:75},&quot;atoms&quot;:[{&quot;id&quot;:1948,&quot;token&quot;:&quot;h:1&quot;,&quot;particle_id&quot;:&quot;img3-m54-p4&quot;,&quot;molecule_id&quot;:&quot;img3-m54&quot;,&quot;atom_order&quot;:2}]}</metadata>
  <rect x="0" y="0" width="51" height="75" fill="#f8f0d8"/>
  <image href="file:///C:/Users/HHHES/AppData/Roaming/com.voynichlab.datasetcreator/images/1/35a70f63-88ab-4986-b441-b78046a10087.jpg" x="-1609" y="-1148" width="2972" height="3766" opacity="0.92"/>
  <rect x="0.5" y="0.5" width="50" height="74" fill="none" stroke="#111827" stroke-width="1" opacity="0.35"/>
  <polyline points="27,16 27,17 28,17 29,17 29,18 30,18 31,18 31,19 31,20 32,20 32,21 33,22 33,23 33,24 34,24 34,25 34,26 35,26 35,27 35,28 35,29 35,30 35,31 35,32 35,33 35,34 35,35 35,36 34,36 34,37 34,38 33,38 33,39 33,40 32,41 32,42 32,43 31,43 31,44 31,45 30,45 30,46 29,46 29,47 28,48 28,49 27,49 26,50 25,51 25,52 24,52 24,53 23,53 22,54 21,55 20,56 19,57 18,57 17,58 17,59 16,59" fill="none" stroke="#ff8c00" stroke-width="3" stroke-linecap="round" stroke-linejoin="round" opacity="0.95">
    <title>1948 h:1</title>
  </polyline>
</svg>
