<?xml version="1.0" encoding="UTF-8"?>
<svg xmlns="http://www.w3.org/2000/svg" width="68" height="96" viewBox="0 0 68 96">
  <title>atom 1949 h:1</title>
  <metadata>{&quot;entityType&quot;:&quot;atom&quot;,&quot;entityId&quot;:&quot;1949&quot;,&quot;token&quot;:&quot;h:1&quot;,&quot;signature&quot;:&quot;h:1&quot;,&quot;imageName&quot;:&quot;page-003.jpg&quot;,&quot;imageId&quot;:3,&quot;bounds&quot;:{&quot;x&quot;:1796,&quot;y&quot;:1155,&quot;w&quot;:68,&quot;h&quot;:96},&quot;atoms&quot;:[{&quot;id&quot;:1949,&quot;token&quot;:&quot;h:1&quot;,&quot;particle_id&quot;:&quot;img3-m52-p4&quot;,&quot;molecule_id&quot;:&quot;img3-m52&quot;,&quot;atom_order&quot;:2}]}</metadata>
  <rect x="0" y="0" width="68" height="96" fill="#f8f0d8"/>
  <image href="file:///C:/Users/HHHES/AppData/Roaming/com.voynichlab.datasetcreator/images/1/35a70f63-88ab-4986-b441-b78046a10087.jpg" x="-1796" y="-1155" width="2972" height="3766" opacity="0.92"/>
  <rect x="0.5" y="0.5" width="67" height="95" fill="none" stroke="#111827" stroke-width="1" opacity="0.35"/>
  <polyline points="45,16 45,17 46,17 47,17 47,18 48,18 48,19 49,20 50,21 50,22 51,23 51,24 51,25 51,26 52,26 52,27 52,28 52,29 52,30 52,31 52,32 52,33 52,34 52,35 52,36 52,37 52,38 51,39 51,40 51,41 51,42 50,43 50,44 50,45 49,46 48,47 48,48 47,48 47,49 47,50 46,50 46,51 45,51 45,52 45,53 44,53 43,54 43,55 42,56 42,57 41,57 41,58 40,58 39,59 39,60 38,60 38,61 37,61 37,62 36,62 36,63 35,63 35,64 34,64 34,65 33,65 33,66 32,66 31,67 30,67 30,68 29,68 28,69 27,70 26,70 25,71 25,72 24,72 23,73 22,74 21,74 21,75 20,76 19,76 19,77 18,78 17,79 17,80 16,80" fill="none" stroke="#ff8c00" stroke-width="3" stroke-linecap="round" stroke-linejoin="round" opacity="0.95">
    <title>1949 h:1</title>
  </polyline>
</svg>
