<?xml version="1.0" encoding="UTF-8"?>
<svg xmlns="http://www.w3.org/2000/svg" width="50" height="72" viewBox="0 0 50 72">
  <title>atom 2002 h:1</title>
  <metadata>{&quot;entityType&quot;:&quot;atom&quot;,&quot;entityId&quot;:&quot;2002&quot;,&quot;token&quot;:&quot;h:1&quot;,&quot;signature&quot;:&quot;h:1&quot;,&quot;imageName&quot;:&quot;page-003.jpg&quot;,&quot;imageId&quot;:3,&quot;bounds&quot;:{&quot;x&quot;:2323,&quot;y&quot;:1071,&quot;w&quot;:50,&quot;h&quot;:72},&quot;atoms&quot;:[{&quot;id&quot;:2002,&quot;token&quot;:&quot;h:1&quot;,&quot;particle_id&quot;:&quot;img3-m49-p7&quot;,&quot;molecule_id&quot;:&quot;img3-m49&quot;,&quot;atom_order&quot;:2}]}</metadata>
  <rect x="0" y="0" width="50" height="72" fill="#f8f0d8"/>
  <image href="file:///C:/Users/HHHES/AppData/Roaming/com.voynichlab.datasetcreator/images/1/35a70f63-88ab-4986-b441-b78046a10087.jpg" x="-2323" y="-1071" width="2972" height="3766" opacity="0.92"/>
  <rect x="0.5" y="0.5" width="49" height="71" fill="none" stroke="#111827" stroke-width="1" opacity="0.35"/>
  <polyline points="16,16 17,16 18,16 18,17 19,17 20,17 21,17 21,18 22,18 23,18 23,19 24,19 25,20 26,20 26,21 27,21 28,21 28,22 29,23 30,23 30,24 30,25 31,25 31,26 31,27 32,27 32,28 32,29 32,30 33,30 33,31 33,32 33,33 33,34 34,34 34,35 34,36 34,37 34,38 34,39 34,40 34,41 34,42 34,43 34,44 34,45 33,45 33,46 33,47 33,48 32,48 32,49 32,50 31,50 31,51 31,52 30,52 30,53 30,54 29,54 29,55 28,55 28,56 27,56" fill="none" stroke="#ff8c00" stroke-width="3" stroke-linecap="round" stroke-linejoin="round" opacity="0.95">
    <title>2002 h:1</title>
  </polyline>
</svg>
