<?xml version="1.0" encoding="UTF-8"?>
<svg xmlns="http://www.w3.org/2000/svg" width="49" height="94" viewBox="0 0 49 94">
  <title>atom 2058 h:1</title>
  <metadata>{&quot;entityType&quot;:&quot;atom&quot;,&quot;entityId&quot;:&quot;2058&quot;,&quot;token&quot;:&quot;h:1&quot;,&quot;signature&quot;:&quot;h:1&quot;,&quot;imageName&quot;:&quot;page-003.jpg&quot;,&quot;imageId&quot;:3,&quot;bounds&quot;:{&quot;x&quot;:1262,&quot;y&quot;:1240,&quot;w&quot;:49,&quot;h&quot;:94},&quot;atoms&quot;:[{&quot;id&quot;:2058,&quot;token&quot;:&quot;h:1&quot;,&quot;particle_id&quot;:&quot;img3-m62-p5&quot;,&quot;molecule_id&quot;:&quot;img3-m62&quot;,&quot;atom_order&quot;:2}]}</metadata>
  <rect x="0" y="0" width="49" height="94" fill="#f8f0d8"/>
  <image href="file:///C:/Users/HHHES/AppData/Roaming/com.voynichlab.datasetcreator/images/1/35a70f63-88ab-4986-b441-b78046a10087.jpg" x="-1262" y="-1240" width="2972" height="3766" opacity="0.92"/>
  <rect x="0.5" y="0.5" width="48" height="93" fill="none" stroke="#111827" stroke-width="1" opacity="0.35"/>
  <polyline points="32,16 32,17 33,17 33,18 33,19 33,20 33,21 33,22 33,23 33,24 33,25 33,26 33,27 33,28 33,29 33,30 33,31 33,32 33,33 33,34 33,35 33,36 33,37 33,38 33,39 32,40 32,41 32,42 32,43 31,43 31,44 31,45 31,46 31,47 30,47 30,48 30,49 30,50 30,51 30,52 29,52 29,53 29,54 29,55 28,56 28,57 28,58 28,59 27,60 27,61 27,62 26,63 26,64 26,65 26,66 25,66 25,67 25,68 24,68 24,69 24,70 23,70 23,71 22,71 22,72 21,73 20,74 20,75 19,75 19,76 18,76 18,77 17,77 17,78 16,78" fill="none" stroke="#ff8c00" stroke-width="3" stroke-linecap="round" stroke-linejoin="round" opacity="0.95">
    <title>2058 h:1</title>
  </polyline>
</svg>
