<?xml version="1.0" encoding="UTF-8"?>
<svg xmlns="http://www.w3.org/2000/svg" width="55" height="87" viewBox="0 0 55 87">
  <title>atom 2059 h:1</title>
  <metadata>{&quot;entityType&quot;:&quot;atom&quot;,&quot;entityId&quot;:&quot;2059&quot;,&quot;token&quot;:&quot;h:1&quot;,&quot;signature&quot;:&quot;h:1&quot;,&quot;imageName&quot;:&quot;page-003.jpg&quot;,&quot;imageId&quot;:3,&quot;bounds&quot;:{&quot;x&quot;:2249,&quot;y&quot;:1236,&quot;w&quot;:55,&quot;h&quot;:87},&quot;atoms&quot;:[{&quot;id&quot;:2059,&quot;token&quot;:&quot;h:1&quot;,&quot;particle_id&quot;:&quot;img3-m60-p5&quot;,&quot;molecule_id&quot;:&quot;img3-m60&quot;,&quot;atom_order&quot;:2}]}</metadata>
  <rect x="0" y="0" width="55" height="87" fill="#f8f0d8"/>
  <image href="file:///C:/Users/HHHES/AppData/Roaming/com.voynichlab.datasetcreator/images/1/35a70f63-88ab-4986-b441-b78046a10087.jpg" x="-2249" y="-1236" width="2972" height="3766" opacity="0.92"/>
  <rect x="0.5" y="0.5" width="54" height="86" fill="none" stroke="#111827" stroke-width="1" opacity="0.35"/>
  <polyline points="28,16 29,16 29,17 30,17 30,18 31,18 31,19 32,20 33,21 33,22 34,22 34,23 34,24 35,24 35,25 35,26 36,27 36,28 36,29 37,29 37,30 37,31 38,31 38,32 38,33 39,34 39,35 39,36 39,37 39,38 39,39 39,40 39,41 39,42 39,43 38,44 38,45 38,46 38,47 37,47 37,48 37,49 36,49 36,50 36,51 35,51 35,52 34,53 34,54 33,54 33,55 32,56 31,57 31,58 30,59 29,59 29,60 28,61 27,62 26,63 25,64 24,64 23,65 23,66 22,67 21,67 20,68 19,68 19,69 18,69 18,70 17,70 16,70 16,71" fill="none" stroke="#ff8c00" stroke-width="3" stroke-linecap="round" stroke-linejoin="round" opacity="0.95">
    <title>2059 h:1</title>
  </polyline>
</svg>
