<?xml version="1.0" encoding="UTF-8"?>
<svg xmlns="http://www.w3.org/2000/svg" width="41" height="84" viewBox="0 0 41 84">
  <title>atom 2098 h:1</title>
  <metadata>{&quot;entityType&quot;:&quot;atom&quot;,&quot;entityId&quot;:&quot;2098&quot;,&quot;token&quot;:&quot;h:1&quot;,&quot;signature&quot;:&quot;h:1&quot;,&quot;imageName&quot;:&quot;page-003.jpg&quot;,&quot;imageId&quot;:3,&quot;bounds&quot;:{&quot;x&quot;:666,&quot;y&quot;:1503,&quot;w&quot;:41,&quot;h&quot;:84},&quot;atoms&quot;:[{&quot;id&quot;:2098,&quot;token&quot;:&quot;h:1&quot;,&quot;particle_id&quot;:&quot;img3-m72-p1&quot;,&quot;molecule_id&quot;:&quot;img3-m72&quot;,&quot;atom_order&quot;:2}]}</metadata>
  <rect x="0" y="0" width="41" height="84" fill="#f8f0d8"/>
  <image href="file:///C:/Users/HHHES/AppData/Roaming/com.voynichlab.datasetcreator/images/1/35a70f63-88ab-4986-b441-b78046a10087.jpg" x="-666" y="-1503" width="2972" height="3766" opacity="0.92"/>
  <rect x="0.5" y="0.5" width="40" height="83" fill="none" stroke="#111827" stroke-width="1" opacity="0.35"/>
  <polyline points="17,16 17,17 18,17 19,17 19,18 20,18 20,19 21,19 21,20 22,20 22,21 23,22 23,23 23,24 24,24 24,25 24,26 24,27 24,28 24,29 24,30 25,31 25,32 25,33 25,34 25,35 25,36 25,37 25,38 25,39 25,40 25,41 25,42 25,43 25,44 25,45 25,46 25,47 25,48 25,49 25,50 24,50 24,51 24,52 24,53 24,54 23,54 23,55 23,56 22,57 22,58 21,59 21,60 21,61 20,62 20,63 19,63 19,64 18,65 18,66 17,66 17,67 16,67 16,68" fill="none" stroke="#ff8c00" stroke-width="3" stroke-linecap="round" stroke-linejoin="round" opacity="0.95">
    <title>2098 h:1</title>
  </polyline>
</svg>
