<?xml version="1.0" encoding="UTF-8"?>
<svg xmlns="http://www.w3.org/2000/svg" width="57" height="78" viewBox="0 0 57 78">
  <title>atom 2352 h:1</title>
  <metadata>{&quot;entityType&quot;:&quot;atom&quot;,&quot;entityId&quot;:&quot;2352&quot;,&quot;token&quot;:&quot;h:1&quot;,&quot;signature&quot;:&quot;h:1&quot;,&quot;imageName&quot;:&quot;page-003.jpg&quot;,&quot;imageId&quot;:3,&quot;bounds&quot;:{&quot;x&quot;:902,&quot;y&quot;:1681,&quot;w&quot;:57,&quot;h&quot;:78},&quot;atoms&quot;:[{&quot;id&quot;:2352,&quot;token&quot;:&quot;h:1&quot;,&quot;particle_id&quot;:&quot;img3-m83-p3&quot;,&quot;molecule_id&quot;:&quot;img3-m83&quot;,&quot;atom_order&quot;:2}]}</metadata>
  <rect x="0" y="0" width="57" height="78" fill="#f8f0d8"/>
  <image href="file:///C:/Users/HHHES/AppData/Roaming/com.voynichlab.datasetcreator/images/1/35a70f63-88ab-4986-b441-b78046a10087.jpg" x="-902" y="-1681" width="2972" height="3766" opacity="0.92"/>
  <rect x="0.5" y="0.5" width="56" height="77" fill="none" stroke="#111827" stroke-width="1" opacity="0.35"/>
  <polyline points="36,16 36,17 37,17 37,18 38,18 38,19 39,20 39,21 39,22 40,22 40,23 40,24 40,25 40,26 40,27 41,27 41,28 41,29 41,30 41,31 41,32 41,33 40,33 40,34 40,35 40,36 40,37 39,37 39,38 39,39 39,40 38,40 38,41 37,41 37,42 36,43 36,44 35,44 34,45 33,46 33,47 32,47 32,48 31,48 31,49 30,49 30,50 29,50 29,51 28,51 28,52 27,52 27,53 26,53 25,54 25,55 24,55 24,56 23,56 23,57 22,57 21,58 20,59 19,59 19,60 18,60 17,61 17,62 16,62" fill="none" stroke="#ff8c00" stroke-width="3" stroke-linecap="round" stroke-linejoin="round" opacity="0.95">
    <title>2352 h:1</title>
  </polyline>
</svg>
