<?xml version="1.0" encoding="UTF-8"?>
<svg xmlns="http://www.w3.org/2000/svg" width="46" height="75" viewBox="0 0 46 75">
  <title>atom 2393 h:1</title>
  <metadata>{&quot;entityType&quot;:&quot;atom&quot;,&quot;entityId&quot;:&quot;2393&quot;,&quot;token&quot;:&quot;h:1&quot;,&quot;signature&quot;:&quot;h:1&quot;,&quot;imageName&quot;:&quot;page-003.jpg&quot;,&quot;imageId&quot;:3,&quot;bounds&quot;:{&quot;x&quot;:1359,&quot;y&quot;:1679,&quot;w&quot;:46,&quot;h&quot;:75},&quot;atoms&quot;:[{&quot;id&quot;:2393,&quot;token&quot;:&quot;h:1&quot;,&quot;particle_id&quot;:&quot;img3-m80-p2&quot;,&quot;molecule_id&quot;:&quot;img3-m80&quot;,&quot;atom_order&quot;:2}]}</metadata>
  <rect x="0" y="0" width="46" height="75" fill="#f8f0d8"/>
  <image href="file:///C:/Users/HHHES/AppData/Roaming/com.voynichlab.datasetcreator/images/1/35a70f63-88ab-4986-b441-b78046a10087.jpg" x="-1359" y="-1679" width="2972" height="3766" opacity="0.92"/>
  <rect x="0.5" y="0.5" width="45" height="74" fill="none" stroke="#111827" stroke-width="1" opacity="0.35"/>
  <polyline points="26,16 26,17 27,17 27,18 28,18 28,19 28,20 28,21 29,21 29,22 29,23 29,24 30,24 30,25 30,26 30,27 30,28 30,29 30,30 30,31 30,32 30,33 30,34 30,35 29,35 29,36 29,37 29,38 29,39 28,39 28,40 28,41 28,42 27,42 27,43 27,44 26,45 26,46 26,47 25,47 25,48 24,49 23,50 23,51 22,51 22,52 21,52 21,53 21,54 20,54 20,55 19,55 19,56 18,56 18,57 17,58 16,58 16,59" fill="none" stroke="#ff8c00" stroke-width="3" stroke-linecap="round" stroke-linejoin="round" opacity="0.95">
    <title>2393 h:1</title>
  </polyline>
</svg>
