<?xml version="1.0" encoding="UTF-8"?>
<svg xmlns="http://www.w3.org/2000/svg" width="43" height="80" viewBox="0 0 43 80">
  <title>atom 2459 h:1</title>
  <metadata>{&quot;entityType&quot;:&quot;atom&quot;,&quot;entityId&quot;:&quot;2459&quot;,&quot;token&quot;:&quot;h:1&quot;,&quot;signature&quot;:&quot;h:1&quot;,&quot;imageName&quot;:&quot;page-003.jpg&quot;,&quot;imageId&quot;:3,&quot;bounds&quot;:{&quot;x&quot;:2370,&quot;y&quot;:521,&quot;w&quot;:43,&quot;h&quot;:80},&quot;atoms&quot;:[{&quot;id&quot;:2459,&quot;token&quot;:&quot;h:1&quot;,&quot;particle_id&quot;:&quot;img3-m8-p6&quot;,&quot;molecule_id&quot;:&quot;img3-m8&quot;,&quot;atom_order&quot;:2}]}</metadata>
  <rect x="0" y="0" width="43" height="80" fill="#f8f0d8"/>
  <image href="file:///C:/Users/HHHES/AppData/Roaming/com.voynichlab.datasetcreator/images/1/35a70f63-88ab-4986-b441-b78046a10087.jpg" x="-2370" y="-521" width="2972" height="3766" opacity="0.92"/>
  <rect x="0.5" y="0.5" width="42" height="79" fill="none" stroke="#111827" stroke-width="1" opacity="0.35"/>
  <polyline points="16,16 17,16 17,17 18,17 19,17 19,18 20,18 20,19 21,19 21,20 22,20 22,21 22,22 23,22 23,23 24,23 24,24 24,25 25,25 25,26 25,27 25,28 26,28 26,29 26,30 26,31 26,32 26,33 27,33 27,34 27,35 27,36 27,37 27,38 27,39 27,40 27,41 27,42 27,43 27,44 27,45 27,46 27,47 27,48 26,48 26,49 26,50 26,51 26,52 25,52 25,53 25,54 25,55 24,55 24,56 24,57 23,57 23,58 22,58 22,59 21,60 21,61 20,61 20,62 19,62 18,62 18,63 17,63 17,64" fill="none" stroke="#ff8c00" stroke-width="3" stroke-linecap="round" stroke-linejoin="round" opacity="0.95">
    <title>2459 h:1</title>
  </polyline>
</svg>
