<?xml version="1.0" encoding="UTF-8"?>
<svg xmlns="http://www.w3.org/2000/svg" width="49" height="92" viewBox="0 0 49 92">
  <title>atom 2490 h:1</title>
  <metadata>{&quot;entityType&quot;:&quot;atom&quot;,&quot;entityId&quot;:&quot;2490&quot;,&quot;token&quot;:&quot;h:1&quot;,&quot;signature&quot;:&quot;h:1&quot;,&quot;imageName&quot;:&quot;page-003.jpg&quot;,&quot;imageId&quot;:3,&quot;bounds&quot;:{&quot;x&quot;:2217,&quot;y&quot;:1763,&quot;w&quot;:49,&quot;h&quot;:92},&quot;atoms&quot;:[{&quot;id&quot;:2490,&quot;token&quot;:&quot;h:1&quot;,&quot;particle_id&quot;:&quot;img3-m90-p2&quot;,&quot;molecule_id&quot;:&quot;img3-m90&quot;,&quot;atom_order&quot;:2}]}</metadata>
  <rect x="0" y="0" width="49" height="92" fill="#f8f0d8"/>
  <image href="file:///C:/Users/HHHES/AppData/Roaming/com.voynichlab.datasetcreator/images/1/35a70f63-88ab-4986-b441-b78046a10087.jpg" x="-2217" y="-1763" width="2972" height="3766" opacity="0.92"/>
  <rect x="0.5" y="0.5" width="48" height="91" fill="none" stroke="#111827" stroke-width="1" opacity="0.35"/>
  <polyline points="30,16 30,17 31,17 31,18 31,19 32,20 32,21 32,22 32,23 33,23 33,24 33,25 33,26 33,27 33,28 33,29 33,30 33,31 33,32 33,33 33,34 33,35 33,36 33,37 33,38 32,38 32,39 32,40 32,41 31,42 31,43 31,44 30,44 30,45 30,46 30,47 29,47 29,48 29,49 28,50 28,51 28,52 27,53 27,54 27,55 26,55 26,56 26,57 26,58 25,58 25,59 25,60 24,60 24,61 24,62 23,63 23,64 23,65 22,65 22,66 22,67 21,67 21,68 21,69 20,69 20,70 20,71 19,71 19,72 19,73 18,73 18,74 17,74 17,75 16,75 16,76" fill="none" stroke="#ff8c00" stroke-width="3" stroke-linecap="round" stroke-linejoin="round" opacity="0.95">
    <title>2490 h:1</title>
  </polyline>
</svg>
