<?xml version="1.0" encoding="UTF-8"?>
<svg xmlns="http://www.w3.org/2000/svg" width="55" height="70" viewBox="0 0 55 70">
  <title>atom 3798 h:1</title>
  <metadata>{&quot;entityType&quot;:&quot;atom&quot;,&quot;entityId&quot;:&quot;3798&quot;,&quot;token&quot;:&quot;h:1&quot;,&quot;signature&quot;:&quot;h:1&quot;,&quot;imageName&quot;:&quot;page-003.jpg&quot;,&quot;imageId&quot;:3,&quot;bounds&quot;:{&quot;x&quot;:1583,&quot;y&quot;:2524,&quot;w&quot;:55,&quot;h&quot;:70},&quot;atoms&quot;:[{&quot;id&quot;:3798,&quot;token&quot;:&quot;h:1&quot;,&quot;particle_id&quot;:&quot;img3-m148-p9&quot;,&quot;molecule_id&quot;:&quot;img3-m148&quot;,&quot;atom_order&quot;:2}]}</metadata>
  <rect x="0" y="0" width="55" height="70" fill="#f8f0d8"/>
  <image href="file:///C:/Users/HHHES/AppData/Roaming/com.voynichlab.datasetcreator/images/1/35a70f63-88ab-4986-b441-b78046a10087.jpg" x="-1583" y="-2524" width="2972" height="3766" opacity="0.92"/>
  <rect x="0.5" y="0.5" width="54" height="69" fill="none" stroke="#111827" stroke-width="1" opacity="0.35"/>
  <polyline points="28,16 29,16 29,17 30,17 31,17 32,18 33,18 33,19 34,19 35,19 35,20 36,20 36,21 37,21 37,22 38,22 38,23 38,24 39,25 39,26 39,27 39,28 39,29 39,30 38,31 38,32 38,33 38,34 37,35 37,36 36,37 35,38 35,39 35,40 34,40 34,41 34,42 33,43 33,44 32,44 32,45 31,46 30,47 29,48 28,48 28,49 27,49 27,50 26,50 25,50 25,51 24,51 23,51 23,52 22,52 21,52 21,53 20,53 19,53 18,54 17,54 16,54" fill="none" stroke="#ff8c00" stroke-width="3" stroke-linecap="round" stroke-linejoin="round" opacity="0.95">
    <title>3798 h:1</title>
  </polyline>
</svg>
