<?xml version="1.0" encoding="UTF-8"?>
<svg xmlns="http://www.w3.org/2000/svg" width="41" height="70" viewBox="0 0 41 70">
  <title>atom 3799 h:1</title>
  <metadata>{&quot;entityType&quot;:&quot;atom&quot;,&quot;entityId&quot;:&quot;3799&quot;,&quot;token&quot;:&quot;h:1&quot;,&quot;signature&quot;:&quot;h:1&quot;,&quot;imageName&quot;:&quot;page-003.jpg&quot;,&quot;imageId&quot;:3,&quot;bounds&quot;:{&quot;x&quot;:1752,&quot;y&quot;:2533,&quot;w&quot;:41,&quot;h&quot;:70},&quot;atoms&quot;:[{&quot;id&quot;:3799,&quot;token&quot;:&quot;h:1&quot;,&quot;particle_id&quot;:&quot;img3-m153-p4&quot;,&quot;molecule_id&quot;:&quot;img3-m153&quot;,&quot;atom_order&quot;:2}]}</metadata>
  <rect x="0" y="0" width="41" height="70" fill="#f8f0d8"/>
  <image href="file:///C:/Users/HHHES/AppData/Roaming/com.voynichlab.datasetcreator/images/1/35a70f63-88ab-4986-b441-b78046a10087.jpg" x="-1752" y="-2533" width="2972" height="3766" opacity="0.92"/>
  <rect x="0.5" y="0.5" width="40" height="69" fill="none" stroke="#111827" stroke-width="1" opacity="0.35"/>
  <polyline points="18,16 18,17 19,17 20,17 20,18 21,18 21,19 22,19 22,20 23,20 23,21 24,22 24,23 24,24 24,25 24,26 24,27 25,27 25,28 25,29 25,30 25,31 25,32 25,33 25,34 25,35 25,36 25,37 25,38 25,39 25,40 25,41 24,41 24,42 24,43 23,44 23,45 23,46 22,46 22,47 21,48 21,49 21,50 20,50 20,51 19,51 18,52 18,53 17,53 16,53 16,54" fill="none" stroke="#ff8c00" stroke-width="3" stroke-linecap="round" stroke-linejoin="round" opacity="0.95">
    <title>3799 h:1</title>
  </polyline>
</svg>
