<?xml version="1.0" encoding="UTF-8"?>
<svg xmlns="http://www.w3.org/2000/svg" width="51" height="79" viewBox="0 0 51 79">
  <title>atom 3801 h:1</title>
  <metadata>{&quot;entityType&quot;:&quot;atom&quot;,&quot;entityId&quot;:&quot;3801&quot;,&quot;token&quot;:&quot;h:1&quot;,&quot;signature&quot;:&quot;h:1&quot;,&quot;imageName&quot;:&quot;page-003.jpg&quot;,&quot;imageId&quot;:3,&quot;bounds&quot;:{&quot;x&quot;:1963,&quot;y&quot;:2545,&quot;w&quot;:51,&quot;h&quot;:79},&quot;atoms&quot;:[{&quot;id&quot;:3801,&quot;token&quot;:&quot;h:1&quot;,&quot;particle_id&quot;:&quot;img3-m152-p10&quot;,&quot;molecule_id&quot;:&quot;img3-m152&quot;,&quot;atom_order&quot;:2}]}</metadata>
  <rect x="0" y="0" width="51" height="79" fill="#f8f0d8"/>
  <image href="file:///C:/Users/HHHES/AppData/Roaming/com.voynichlab.datasetcreator/images/1/35a70f63-88ab-4986-b441-b78046a10087.jpg" x="-1963" y="-2545" width="2972" height="3766" opacity="0.92"/>
  <rect x="0.5" y="0.5" width="50" height="78" fill="none" stroke="#111827" stroke-width="1" opacity="0.35"/>
  <polyline points="23,16 24,16 25,16 26,17 27,18 28,19 29,19 29,20 30,20 30,21 31,22 31,23 32,24 33,25 33,26 34,26 34,27 34,28 35,29 35,30 35,31 35,32 35,33 35,34 35,35 35,36 34,37 34,38 34,39 34,40 33,40 33,41 32,42 32,44 31,44 31,45 31,46 30,47 30,48 29,49 28,50 27,51 27,52 25,53 24,55 23,56 23,57 22,58 22,59 21,59 21,60 21,61 20,61 19,61 19,62 18,62 17,63 16,63" fill="none" stroke="#ff8c00" stroke-width="3" stroke-linecap="round" stroke-linejoin="round" opacity="0.95">
    <title>3801 h:1</title>
  </polyline>
</svg>
