<?xml version="1.0" encoding="UTF-8"?>
<svg xmlns="http://www.w3.org/2000/svg" width="60" height="79" viewBox="0 0 60 79">
  <title>atom 3802 h:1</title>
  <metadata>{&quot;entityType&quot;:&quot;atom&quot;,&quot;entityId&quot;:&quot;3802&quot;,&quot;token&quot;:&quot;h:1&quot;,&quot;signature&quot;:&quot;h:1&quot;,&quot;imageName&quot;:&quot;page-003.jpg&quot;,&quot;imageId&quot;:3,&quot;bounds&quot;:{&quot;x&quot;:2072,&quot;y&quot;:2555,&quot;w&quot;:60,&quot;h&quot;:79},&quot;atoms&quot;:[{&quot;id&quot;:3802,&quot;token&quot;:&quot;h:1&quot;,&quot;particle_id&quot;:&quot;img3-m155-p4&quot;,&quot;molecule_id&quot;:&quot;img3-m155&quot;,&quot;atom_order&quot;:2}]}</metadata>
  <rect x="0" y="0" width="60" height="79" fill="#f8f0d8"/>
  <image href="file:///C:/Users/HHHES/AppData/Roaming/com.voynichlab.datasetcreator/images/1/35a70f63-88ab-4986-b441-b78046a10087.jpg" x="-2072" y="-2555" width="2972" height="3766" opacity="0.92"/>
  <rect x="0.5" y="0.5" width="59" height="78" fill="none" stroke="#111827" stroke-width="1" opacity="0.35"/>
  <polyline points="31,16 32,16 33,16 35,17 36,17 37,18 37,19 38,19 39,20 39,21 40,21 40,22 41,22 41,23 42,24 42,25 43,25 43,26 43,27 44,28 44,29 44,30 44,31 44,32 44,33 43,34 43,35 43,36 42,37 42,38 42,39 41,40 41,41 41,42 40,43 40,44 39,45 38,46 37,47 36,48 35,49 33,51 32,52 32,53 31,54 30,55 29,56 28,56 28,57 27,58 26,58 25,59 24,59 23,60 22,61 21,61 20,61 18,62 17,63 16,63" fill="none" stroke="#ff8c00" stroke-width="3" stroke-linecap="round" stroke-linejoin="round" opacity="0.95">
    <title>3802 h:1</title>
  </polyline>
</svg>
