<?xml version="1.0" encoding="UTF-8"?>
<svg xmlns="http://www.w3.org/2000/svg" width="39" height="63" viewBox="0 0 39 63">
  <title>atom 4029 h:1</title>
  <metadata>{&quot;entityType&quot;:&quot;atom&quot;,&quot;entityId&quot;:&quot;4029&quot;,&quot;token&quot;:&quot;h:1&quot;,&quot;signature&quot;:&quot;h:1&quot;,&quot;imageName&quot;:&quot;page-003.jpg&quot;,&quot;imageId&quot;:3,&quot;bounds&quot;:{&quot;x&quot;:2149,&quot;y&quot;:2820,&quot;w&quot;:39,&quot;h&quot;:63},&quot;atoms&quot;:[{&quot;id&quot;:4029,&quot;token&quot;:&quot;h:1&quot;,&quot;particle_id&quot;:&quot;img3-m178-p5&quot;,&quot;molecule_id&quot;:&quot;img3-m178&quot;,&quot;atom_order&quot;:2}]}</metadata>
  <rect x="0" y="0" width="39" height="63" fill="#f8f0d8"/>
  <image href="file:///C:/Users/HHHES/AppData/Roaming/com.voynichlab.datasetcreator/images/1/35a70f63-88ab-4986-b441-b78046a10087.jpg" x="-2149" y="-2820" width="2972" height="3766" opacity="0.92"/>
  <rect x="0.5" y="0.5" width="38" height="62" fill="none" stroke="#111827" stroke-width="1" opacity="0.35"/>
  <polyline points="16,16 16,17 17,17 18,17 18,18 19,18 19,19 20,19 20,20 21,20 21,21 22,22 22,23 22,24 22,25 23,25 23,26 23,27 23,28 23,29 23,30 23,31 23,32 23,33 23,34 23,35 23,36 22,36 22,37 22,38 22,39 22,40 21,40 21,41 21,42 20,42 20,43 19,44 19,45 18,45 18,46 17,46 17,47" fill="none" stroke="#ff8c00" stroke-width="3" stroke-linecap="round" stroke-linejoin="round" opacity="0.95">
    <title>4029 h:1</title>
  </polyline>
</svg>
