<?xml version="1.0" encoding="UTF-8"?>
<svg xmlns="http://www.w3.org/2000/svg" width="76" height="58" viewBox="0 0 76 58">
  <title>k:1 distant-variant atom 5410</title>
  <rect x="0" y="0" width="76" height="58" fill="#17181b"/>
  <rect x="0.5" y="0.5" width="75" height="57" fill="none" stroke="#111827" stroke-width="1" opacity="0.35"/>
<polyline points="16,16 16,17 17,17 17,18 18,19 18,20 19,20 19,21 19,22 20,22 20,23 21,23 21,24 22,25 22,26 22,27 23,27 23,28 24,29 24,30 25,31 25,32 26,32 26,33 26,34 27,35 27,36 28,37 28,38 29,38 29,39 29,38 30,38 31,37 32,36 33,34 34,34 35,33 36,32 36,31 37,31 38,30 38,29 39,29 39,28 40,27 41,26 41,25 42,25 43,24 43,23 44,24 44,25 45,26 45,27 46,28 46,29 47,29 47,30 48,30 48,31 49,32 49,33 50,33 50,34 50,35 51,36 51,37 52,37 52,38 52,39 52,40 53,40 53,41 54,41 54,42 54,41 54,40 55,39 55,38 56,37 56,36 56,35 57,34 57,33 58,32 58,31 59,30 59,29 59,28 59,27 60,27 60,26 60,25" fill="none" stroke="#ffffff" stroke-width="3" stroke-linecap="round" stroke-linejoin="round" opacity="0.95">
    <title>5410 k:1</title>
  </polyline>
</svg>
