<?xml version="1.0" encoding="UTF-8"?>
<svg xmlns="http://www.w3.org/2000/svg" width="71" height="55" viewBox="0 0 71 55">
  <title>k:1 distant-variant atom 3972</title>
  <rect x="0" y="0" width="71" height="55" fill="#17181b"/>
  <rect x="0.5" y="0.5" width="70" height="54" fill="none" stroke="#111827" stroke-width="1" opacity="0.35"/>
<polyline points="16,16 16,17 17,18 17,19 17,20 18,20 18,21 18,22 19,23 19,24 19,25 20,25 20,26 20,27 21,27 21,28 21,29 21,30 22,30 22,31 22,32 22,33 23,33 23,34 23,35 24,35 24,36 25,37 25,38 26,38 26,39 26,38 27,38 27,37 27,36 28,36 28,35 29,35 29,34 29,33 30,33 30,32 30,31 31,31 31,30 31,29 32,29 32,28 32,27 33,27 33,26 33,25 34,25 34,24 34,23 35,22 35,21 36,21 36,20 36,19 37,19 37,20 37,21 37,22 38,22 38,23 38,24 38,25 39,25 39,26 39,27 40,27 40,28 40,29 40,30 40,31 41,31 41,32 41,33 41,34 42,35 42,36 43,36 43,37 44,38 44,39 45,39 45,38 46,37 46,36 47,36 47,35 48,34 48,33 49,33 49,32 49,31 50,31 50,30 51,30 51,29 51,28 52,28 52,27 53,26 53,25 54,25 54,24 54,23 55,23" fill="none" stroke="#ffffff" stroke-width="3" stroke-linecap="round" stroke-linejoin="round" opacity="0.95">
    <title>3972 k:1</title>
  </polyline>
</svg>
