<?xml version="1.0" encoding="UTF-8"?>
<svg xmlns="http://www.w3.org/2000/svg" width="88" height="55" viewBox="0 0 88 55">
  <title>k:1 closest-to-family-average atom 4644</title>
  <rect x="0" y="0" width="88" height="55" fill="#17181b"/>
  <rect x="0.5" y="0.5" width="87" height="54" fill="none" stroke="#111827" stroke-width="1" opacity="0.35"/>
<polyline points="16,16 17,17 18,18 18,19 18,21 19,22 20,23 20,25 21,26 21,27 22,28 22,29 23,30 24,31 25,32 25,33 26,34 27,35 27,36 28,37 28,38 29,38 29,39 30,39 30,38 31,37 32,36 33,35 33,34 34,34 34,33 35,32 36,31 37,30 38,29 39,28 39,27 40,27 41,26 42,25 42,24 42,23 43,23 43,22 44,22 44,21 44,20 45,20 45,21 45,22 46,23 46,24 47,25 47,26 48,26 48,27 48,28 48,29 49,29 49,30 49,31 50,32 50,33 51,33 51,34 51,35 52,35 52,36 52,37 53,37 54,37 55,37 55,36 56,36 57,35 58,35 58,34 59,34 60,33 61,32 62,31 62,30 63,29 64,29 64,28 65,27 66,26 67,25 68,24 69,23 69,22 70,22 70,21 71,21 71,20 72,20 72,19" fill="none" stroke="#ffffff" stroke-width="3" stroke-linecap="round" stroke-linejoin="round" opacity="0.95">
    <title>4644 k:1</title>
  </polyline>
</svg>
