<?xml version="1.0" encoding="UTF-8"?>
<svg xmlns="http://www.w3.org/2000/svg" width="54" height="70" viewBox="0 0 54 70">
  <title>atom 6243 i:1</title>
  <metadata>{&quot;entityType&quot;:&quot;atom&quot;,&quot;entityId&quot;:&quot;6243&quot;,&quot;token&quot;:&quot;i:1&quot;,&quot;signature&quot;:&quot;i:1&quot;,&quot;imageName&quot;:&quot;page-005.jpg&quot;,&quot;imageId&quot;:5,&quot;bounds&quot;:{&quot;x&quot;:974,&quot;y&quot;:488,&quot;w&quot;:54,&quot;h&quot;:70},&quot;atoms&quot;:[{&quot;id&quot;:6243,&quot;token&quot;:&quot;i:1&quot;,&quot;particle_id&quot;:&quot;img5-m5-p3&quot;,&quot;molecule_id&quot;:&quot;img5-m5&quot;,&quot;atom_order&quot;:3}]}</metadata>
  <rect x="0" y="0" width="54" height="70" fill="#f8f0d8"/>
  <image href="file:///C:/Users/HHHES/AppData/Roaming/com.voynichlab.datasetcreator/images/1/a6cd3b6e-2a78-4b30-a4be-5d186aea258e.jpg" x="-974" y="-488" width="2691" height="3770" opacity="0.92"/>
  <rect x="0.5" y="0.5" width="53" height="69" fill="none" stroke="#111827" stroke-width="1" opacity="0.35"/>
  <polyline points="23,54 24,54 25,54 26,54 27,54 28,54 28,53 29,53 30,53 31,52 32,52 32,51 33,51 33,50 34,50 34,49 35,48 36,47 36,46 37,45 37,44 38,43 38,42 38,41 38,40 38,39 38,38 38,37 38,36 38,35 38,34 38,33 38,32 38,31 37,30 37,29 37,28 36,27 36,26 35,25 34,24 33,24 32,23 31,22 30,21 28,21 27,20 26,19 25,19 25,18 24,18 23,18 22,18 22,17 21,17 20,17 19,17 18,17 17,17 17,16 16,16" fill="none" stroke="#00ff7f" stroke-width="3" stroke-linecap="round" stroke-linejoin="round" opacity="0.95">
    <title>6243 i:1</title>
  </polyline>
</svg>
