<?xml version="1.0" encoding="UTF-8"?>
<svg xmlns="http://www.w3.org/2000/svg" width="47" height="69" viewBox="0 0 47 69">
  <title>atom 6244 i:1</title>
  <metadata>{&quot;entityType&quot;:&quot;atom&quot;,&quot;entityId&quot;:&quot;6244&quot;,&quot;token&quot;:&quot;i:1&quot;,&quot;signature&quot;:&quot;i:1&quot;,&quot;imageName&quot;:&quot;page-005.jpg&quot;,&quot;imageId&quot;:5,&quot;bounds&quot;:{&quot;x&quot;:1562,&quot;y&quot;:513,&quot;w&quot;:47,&quot;h&quot;:69},&quot;atoms&quot;:[{&quot;id&quot;:6244,&quot;token&quot;:&quot;i:1&quot;,&quot;particle_id&quot;:&quot;img5-m8-p3&quot;,&quot;molecule_id&quot;:&quot;img5-m8&quot;,&quot;atom_order&quot;:3}]}</metadata>
  <rect x="0" y="0" width="47" height="69" fill="#f8f0d8"/>
  <image href="file:///C:/Users/HHHES/AppData/Roaming/com.voynichlab.datasetcreator/images/1/a6cd3b6e-2a78-4b30-a4be-5d186aea258e.jpg" x="-1562" y="-513" width="2691" height="3770" opacity="0.92"/>
  <rect x="0.5" y="0.5" width="46" height="68" fill="none" stroke="#111827" stroke-width="1" opacity="0.35"/>
  <polyline points="16,53 17,53 18,53 18,52 19,52 20,52 21,51 22,50 23,50 23,49 24,49 24,48 25,48 26,47 27,46 28,46 28,45 28,44 29,43 29,42 29,41 29,40 30,39 31,38 31,37 31,36 31,35 31,34 31,33 31,31 31,30 31,29 31,28 31,26 30,25 30,24 29,23 29,22 28,21 28,20 27,19 26,19 26,18 25,18 24,17 23,17 22,17 21,17 20,17 19,17 18,17 17,16 16,16" fill="none" stroke="#00ff7f" stroke-width="3" stroke-linecap="round" stroke-linejoin="round" opacity="0.95">
    <title>6244 i:1</title>
  </polyline>
</svg>
