<?xml version="1.0" encoding="UTF-8"?>
<svg xmlns="http://www.w3.org/2000/svg" width="46" height="77" viewBox="0 0 46 77">
  <title>atom 6266 i:1</title>
  <metadata>{&quot;entityType&quot;:&quot;atom&quot;,&quot;entityId&quot;:&quot;6266&quot;,&quot;token&quot;:&quot;i:1&quot;,&quot;signature&quot;:&quot;i:1&quot;,&quot;imageName&quot;:&quot;page-005.jpg&quot;,&quot;imageId&quot;:5,&quot;bounds&quot;:{&quot;x&quot;:608,&quot;y&quot;:645,&quot;w&quot;:46,&quot;h&quot;:77},&quot;atoms&quot;:[{&quot;id&quot;:6266,&quot;token&quot;:&quot;i:1&quot;,&quot;particle_id&quot;:&quot;img5-m19-p4&quot;,&quot;molecule_id&quot;:&quot;img5-m19&quot;,&quot;atom_order&quot;:3}]}</metadata>
  <rect x="0" y="0" width="46" height="77" fill="#f8f0d8"/>
  <image href="file:///C:/Users/HHHES/AppData/Roaming/com.voynichlab.datasetcreator/images/1/a6cd3b6e-2a78-4b30-a4be-5d186aea258e.jpg" x="-608" y="-645" width="2691" height="3770" opacity="0.92"/>
  <rect x="0.5" y="0.5" width="45" height="76" fill="none" stroke="#111827" stroke-width="1" opacity="0.35"/>
  <polyline points="16,61 17,61 18,61 18,60 19,60 19,59 20,59 20,58 21,58 21,57 22,57 22,56 23,56 23,55 24,54 25,54 25,53 26,52 26,51 26,50 27,50 27,49 28,48 28,47 29,46 29,45 29,44 29,43 30,43 30,42 30,41 30,40 30,39 30,38 30,37 30,36 30,35 30,34 30,33 30,32 30,31 30,30 29,29 29,28 28,28 28,27 27,26 26,25 25,24 25,23 24,22 24,21 23,21 23,20 22,20 22,19 21,19 20,18 20,17 19,17 19,16" fill="none" stroke="#00ff7f" stroke-width="3" stroke-linecap="round" stroke-linejoin="round" opacity="0.95">
    <title>6266 i:1</title>
  </polyline>
</svg>
