<?xml version="1.0" encoding="UTF-8"?>
<svg xmlns="http://www.w3.org/2000/svg" width="49" height="53" viewBox="0 0 49 53">
  <title>atom 6267 i:1</title>
  <metadata>{&quot;entityType&quot;:&quot;atom&quot;,&quot;entityId&quot;:&quot;6267&quot;,&quot;token&quot;:&quot;i:1&quot;,&quot;signature&quot;:&quot;i:1&quot;,&quot;imageName&quot;:&quot;page-005.jpg&quot;,&quot;imageId&quot;:5,&quot;bounds&quot;:{&quot;x&quot;:1439,&quot;y&quot;:653,&quot;w&quot;:49,&quot;h&quot;:53},&quot;atoms&quot;:[{&quot;id&quot;:6267,&quot;token&quot;:&quot;i:1&quot;,&quot;particle_id&quot;:&quot;img5-m16-p3&quot;,&quot;molecule_id&quot;:&quot;img5-m16&quot;,&quot;atom_order&quot;:2}]}</metadata>
  <rect x="0" y="0" width="49" height="53" fill="#f8f0d8"/>
  <image href="file:///C:/Users/HHHES/AppData/Roaming/com.voynichlab.datasetcreator/images/1/a6cd3b6e-2a78-4b30-a4be-5d186aea258e.jpg" x="-1439" y="-653" width="2691" height="3770" opacity="0.92"/>
  <rect x="0.5" y="0.5" width="48" height="52" fill="none" stroke="#111827" stroke-width="1" opacity="0.35"/>
  <polyline points="16,37 17,37 18,36 19,36 20,36 20,35 21,35 22,35 23,34 24,34 25,33 26,33 27,32 28,32 28,31 29,31 30,30 31,29 31,28 32,28 32,27 32,26 32,25 33,24 33,23 33,22 33,21 33,20 33,19 33,18 33,17 33,16" fill="none" stroke="#00ff7f" stroke-width="3" stroke-linecap="round" stroke-linejoin="round" opacity="0.95">
    <title>6267 i:1</title>
  </polyline>
</svg>
