<?xml version="1.0" encoding="UTF-8"?>
<svg xmlns="http://www.w3.org/2000/svg" width="53" height="72" viewBox="0 0 53 72">
  <title>atom 6268 i:1</title>
  <metadata>{&quot;entityType&quot;:&quot;atom&quot;,&quot;entityId&quot;:&quot;6268&quot;,&quot;token&quot;:&quot;i:1&quot;,&quot;signature&quot;:&quot;i:1&quot;,&quot;imageName&quot;:&quot;page-005.jpg&quot;,&quot;imageId&quot;:5,&quot;bounds&quot;:{&quot;x&quot;:2015,&quot;y&quot;:660,&quot;w&quot;:53,&quot;h&quot;:72},&quot;atoms&quot;:[{&quot;id&quot;:6268,&quot;token&quot;:&quot;i:1&quot;,&quot;particle_id&quot;:&quot;img5-m20-p3&quot;,&quot;molecule_id&quot;:&quot;img5-m20&quot;,&quot;atom_order&quot;:3}]}</metadata>
  <rect x="0" y="0" width="53" height="72" fill="#f8f0d8"/>
  <image href="file:///C:/Users/HHHES/AppData/Roaming/com.voynichlab.datasetcreator/images/1/a6cd3b6e-2a78-4b30-a4be-5d186aea258e.jpg" x="-2015" y="-660" width="2691" height="3770" opacity="0.92"/>
  <rect x="0.5" y="0.5" width="52" height="71" fill="none" stroke="#111827" stroke-width="1" opacity="0.35"/>
  <polyline points="19,56 20,56 21,55 22,55 23,55 24,54 25,54 26,54 26,53 27,53 28,52 29,52 30,52 30,51 31,51 31,50 32,50 32,49 33,49 33,48 34,48 34,47 35,46 35,45 36,45 36,44 36,43 37,42 37,41 37,40 37,39 37,38 37,37 37,36 37,35 37,34 37,33 36,32 36,31 36,30 35,29 34,28 34,27 33,26 32,25 32,24 31,24 31,23 30,23 29,22 28,21 27,21 26,20 25,19 24,19 23,19 22,18 21,18 19,17 17,17 17,16 16,16" fill="none" stroke="#00ff7f" stroke-width="3" stroke-linecap="round" stroke-linejoin="round" opacity="0.95">
    <title>6268 i:1</title>
  </polyline>
</svg>
