<?xml version="1.0" encoding="UTF-8"?>
<svg xmlns="http://www.w3.org/2000/svg" width="48" height="75" viewBox="0 0 48 75">
  <title>atom 6269 i:1</title>
  <metadata>{&quot;entityType&quot;:&quot;atom&quot;,&quot;entityId&quot;:&quot;6269&quot;,&quot;token&quot;:&quot;i:1&quot;,&quot;signature&quot;:&quot;i:1&quot;,&quot;imageName&quot;:&quot;page-005.jpg&quot;,&quot;imageId&quot;:5,&quot;bounds&quot;:{&quot;x&quot;:1982,&quot;y&quot;:741,&quot;w&quot;:48,&quot;h&quot;:75},&quot;atoms&quot;:[{&quot;id&quot;:6269,&quot;token&quot;:&quot;i:1&quot;,&quot;particle_id&quot;:&quot;img5-m26-p5&quot;,&quot;molecule_id&quot;:&quot;img5-m26&quot;,&quot;atom_order&quot;:3}]}</metadata>
  <rect x="0" y="0" width="48" height="75" fill="#f8f0d8"/>
  <image href="file:///C:/Users/HHHES/AppData/Roaming/com.voynichlab.datasetcreator/images/1/a6cd3b6e-2a78-4b30-a4be-5d186aea258e.jpg" x="-1982" y="-741" width="2691" height="3770" opacity="0.92"/>
  <rect x="0.5" y="0.5" width="47" height="74" fill="none" stroke="#111827" stroke-width="1" opacity="0.35"/>
  <polyline points="16,59 17,59 18,59 19,58 20,58 21,57 22,56 23,55 24,55 24,54 25,53 26,53 26,52 27,51 27,50 28,50 28,49 29,48 29,47 30,47 30,46 30,45 30,44 31,43 31,42 32,41 32,40 32,39 32,38 32,37 32,36 32,35 32,34 32,33 32,31 32,30 32,29 31,28 31,27 31,26 30,25 30,24 30,23 29,22 28,21 27,20 27,19 26,19 26,18 25,18 24,18 23,17 22,17 21,16 20,16 19,16" fill="none" stroke="#00ff7f" stroke-width="3" stroke-linecap="round" stroke-linejoin="round" opacity="0.95">
    <title>6269 i:1</title>
  </polyline>
</svg>
