<?xml version="1.0" encoding="UTF-8"?>
<svg xmlns="http://www.w3.org/2000/svg" width="44" height="55" viewBox="0 0 44 55">
  <title>atom 6270 i:1</title>
  <metadata>{&quot;entityType&quot;:&quot;atom&quot;,&quot;entityId&quot;:&quot;6270&quot;,&quot;token&quot;:&quot;i:1&quot;,&quot;signature&quot;:&quot;i:1&quot;,&quot;imageName&quot;:&quot;page-005.jpg&quot;,&quot;imageId&quot;:5,&quot;bounds&quot;:{&quot;x&quot;:1599,&quot;y&quot;:736,&quot;w&quot;:44,&quot;h&quot;:55},&quot;atoms&quot;:[{&quot;id&quot;:6270,&quot;token&quot;:&quot;i:1&quot;,&quot;particle_id&quot;:&quot;img5-m22-p4&quot;,&quot;molecule_id&quot;:&quot;img5-m22&quot;,&quot;atom_order&quot;:2}]}</metadata>
  <rect x="0" y="0" width="44" height="55" fill="#f8f0d8"/>
  <image href="file:///C:/Users/HHHES/AppData/Roaming/com.voynichlab.datasetcreator/images/1/a6cd3b6e-2a78-4b30-a4be-5d186aea258e.jpg" x="-1599" y="-736" width="2691" height="3770" opacity="0.92"/>
  <rect x="0.5" y="0.5" width="43" height="54" fill="none" stroke="#111827" stroke-width="1" opacity="0.35"/>
  <polyline points="16,39 17,39 17,38 18,38 18,37 19,37 20,37 20,36 21,36 21,35 22,34 23,33 24,32 24,31 25,31 25,30 26,29 26,28 27,28 27,27 27,26 28,26 28,25 28,24 28,23 27,22 27,21 26,20 26,19 25,19 25,18 24,17 24,16" fill="none" stroke="#00ff7f" stroke-width="3" stroke-linecap="round" stroke-linejoin="round" opacity="0.95">
    <title>6270 i:1</title>
  </polyline>
</svg>
