<?xml version="1.0" encoding="UTF-8"?>
<svg xmlns="http://www.w3.org/2000/svg" width="55" height="56" viewBox="0 0 55 56">
  <title>atom 6271 i:1</title>
  <metadata>{&quot;entityType&quot;:&quot;atom&quot;,&quot;entityId&quot;:&quot;6271&quot;,&quot;token&quot;:&quot;i:1&quot;,&quot;signature&quot;:&quot;i:1&quot;,&quot;imageName&quot;:&quot;page-005.jpg&quot;,&quot;imageId&quot;:5,&quot;bounds&quot;:{&quot;x&quot;:644,&quot;y&quot;:806,&quot;w&quot;:55,&quot;h&quot;:56},&quot;atoms&quot;:[{&quot;id&quot;:6271,&quot;token&quot;:&quot;i:1&quot;,&quot;particle_id&quot;:&quot;img5-m31-p6&quot;,&quot;molecule_id&quot;:&quot;img5-m31&quot;,&quot;atom_order&quot;:2}]}</metadata>
  <rect x="0" y="0" width="55" height="56" fill="#f8f0d8"/>
  <image href="file:///C:/Users/HHHES/AppData/Roaming/com.voynichlab.datasetcreator/images/1/a6cd3b6e-2a78-4b30-a4be-5d186aea258e.jpg" x="-644" y="-806" width="2691" height="3770" opacity="0.92"/>
  <rect x="0.5" y="0.5" width="54" height="55" fill="none" stroke="#111827" stroke-width="1" opacity="0.35"/>
  <polyline points="16,40 17,40 18,40 18,39 19,39 20,39 21,38 22,38 23,38 24,38 24,37 25,37 26,37 26,36 27,36 28,36 28,35 29,35 30,34 31,34 32,33 33,32 34,31 34,30 35,30 36,29 37,28 37,27 38,27 38,26 38,25 39,25 39,24 39,23 39,22 39,21 39,20 39,19 39,18 39,17 39,16 38,16" fill="none" stroke="#00ff7f" stroke-width="3" stroke-linecap="round" stroke-linejoin="round" opacity="0.95">
    <title>6271 i:1</title>
  </polyline>
</svg>
