<?xml version="1.0" encoding="UTF-8"?>
<svg xmlns="http://www.w3.org/2000/svg" width="48" height="64" viewBox="0 0 48 64">
  <title>atom 6272 i:1</title>
  <metadata>{&quot;entityType&quot;:&quot;atom&quot;,&quot;entityId&quot;:&quot;6272&quot;,&quot;token&quot;:&quot;i:1&quot;,&quot;signature&quot;:&quot;i:1&quot;,&quot;imageName&quot;:&quot;page-005.jpg&quot;,&quot;imageId&quot;:5,&quot;bounds&quot;:{&quot;x&quot;:1187,&quot;y&quot;:819,&quot;w&quot;:48,&quot;h&quot;:64},&quot;atoms&quot;:[{&quot;id&quot;:6272,&quot;token&quot;:&quot;i:1&quot;,&quot;particle_id&quot;:&quot;img5-m33-p4&quot;,&quot;molecule_id&quot;:&quot;img5-m33&quot;,&quot;atom_order&quot;:3}]}</metadata>
  <rect x="0" y="0" width="48" height="64" fill="#f8f0d8"/>
  <image href="file:///C:/Users/HHHES/AppData/Roaming/com.voynichlab.datasetcreator/images/1/a6cd3b6e-2a78-4b30-a4be-5d186aea258e.jpg" x="-1187" y="-819" width="2691" height="3770" opacity="0.92"/>
  <rect x="0.5" y="0.5" width="47" height="63" fill="none" stroke="#111827" stroke-width="1" opacity="0.35"/>
  <polyline points="16,48 17,48 17,47 18,47 19,47 20,47 21,47 22,46 23,46 23,45 24,45 25,44 26,43 27,42 27,41 28,41 28,40 29,40 29,39 30,38 30,37 31,36 31,35 31,34 31,33 32,32 32,31 32,30 32,29 32,28 32,27 32,26 32,25 32,24 31,24 31,23 30,22 30,21 29,21 28,20 27,19 26,18 25,18 25,17 24,17 24,16 23,16 22,16 21,16" fill="none" stroke="#00ff7f" stroke-width="3" stroke-linecap="round" stroke-linejoin="round" opacity="0.95">
    <title>6272 i:1</title>
  </polyline>
</svg>
