<?xml version="1.0" encoding="UTF-8"?>
<svg xmlns="http://www.w3.org/2000/svg" width="50" height="65" viewBox="0 0 50 65">
  <title>atom 6274 i:1</title>
  <metadata>{&quot;entityType&quot;:&quot;atom&quot;,&quot;entityId&quot;:&quot;6274&quot;,&quot;token&quot;:&quot;i:1&quot;,&quot;signature&quot;:&quot;i:1&quot;,&quot;imageName&quot;:&quot;page-005.jpg&quot;,&quot;imageId&quot;:5,&quot;bounds&quot;:{&quot;x&quot;:1935,&quot;y&quot;:822,&quot;w&quot;:50,&quot;h&quot;:65},&quot;atoms&quot;:[{&quot;id&quot;:6274,&quot;token&quot;:&quot;i:1&quot;,&quot;particle_id&quot;:&quot;img5-m32-p5&quot;,&quot;molecule_id&quot;:&quot;img5-m32&quot;,&quot;atom_order&quot;:3}]}</metadata>
  <rect x="0" y="0" width="50" height="65" fill="#f8f0d8"/>
  <image href="file:///C:/Users/HHHES/AppData/Roaming/com.voynichlab.datasetcreator/images/1/a6cd3b6e-2a78-4b30-a4be-5d186aea258e.jpg" x="-1935" y="-822" width="2691" height="3770" opacity="0.92"/>
  <rect x="0.5" y="0.5" width="49" height="64" fill="none" stroke="#111827" stroke-width="1" opacity="0.35"/>
  <polyline points="20,49 21,49 22,49 23,48 24,48 25,48 26,48 27,47 28,46 29,46 29,45 30,45 31,44 32,44 32,43 33,42 33,41 33,40 34,39 34,38 34,37 34,36 34,35 34,34 34,32 33,31 33,30 33,29 33,28 32,27 32,26 31,26 30,25 29,24 29,23 28,23 28,22 27,21 25,21 24,20 23,19 22,19 22,18 20,18 20,17 18,17 17,17 17,16 16,16" fill="none" stroke="#00ff7f" stroke-width="3" stroke-linecap="round" stroke-linejoin="round" opacity="0.95">
    <title>6274 i:1</title>
  </polyline>
</svg>
