<?xml version="1.0" encoding="UTF-8"?>
<svg xmlns="http://www.w3.org/2000/svg" width="52" height="70" viewBox="0 0 52 70">
  <title>atom 6275 i:1</title>
  <metadata>{&quot;entityType&quot;:&quot;atom&quot;,&quot;entityId&quot;:&quot;6275&quot;,&quot;token&quot;:&quot;i:1&quot;,&quot;signature&quot;:&quot;i:1&quot;,&quot;imageName&quot;:&quot;page-005.jpg&quot;,&quot;imageId&quot;:5,&quot;bounds&quot;:{&quot;x&quot;:2062,&quot;y&quot;:815,&quot;w&quot;:52,&quot;h&quot;:70},&quot;atoms&quot;:[{&quot;id&quot;:6275,&quot;token&quot;:&quot;i:1&quot;,&quot;particle_id&quot;:&quot;img5-m27-p3&quot;,&quot;molecule_id&quot;:&quot;img5-m27&quot;,&quot;atom_order&quot;:2}]}</metadata>
  <rect x="0" y="0" width="52" height="70" fill="#f8f0d8"/>
  <image href="file:///C:/Users/HHHES/AppData/Roaming/com.voynichlab.datasetcreator/images/1/a6cd3b6e-2a78-4b30-a4be-5d186aea258e.jpg" x="-2062" y="-815" width="2691" height="3770" opacity="0.92"/>
  <rect x="0.5" y="0.5" width="51" height="69" fill="none" stroke="#111827" stroke-width="1" opacity="0.35"/>
  <polyline points="16,54 17,54 18,54 20,54 22,54 23,53 24,53 25,53 26,52 27,52 28,51 29,51 29,50 30,50 31,49 32,48 33,47 33,46 34,46 35,45 35,44 36,43 36,41 36,40 36,39 36,38 36,37 36,36 36,35 35,34 35,32 35,31 34,30 33,28 32,27 32,26 31,26 30,25 30,24 29,23 29,22 28,22 27,21 27,20 26,20 25,19 24,19 23,18 23,17 22,17 21,17 20,17 20,16 19,16 18,16" fill="none" stroke="#00ff7f" stroke-width="3" stroke-linecap="round" stroke-linejoin="round" opacity="0.95">
    <title>6275 i:1</title>
  </polyline>
</svg>
