<?xml version="1.0" encoding="UTF-8"?>
<svg xmlns="http://www.w3.org/2000/svg" width="56" height="43" viewBox="0 0 56 43">
  <title>atom 6276 i:1</title>
  <metadata>{&quot;entityType&quot;:&quot;atom&quot;,&quot;entityId&quot;:&quot;6276&quot;,&quot;token&quot;:&quot;i:1&quot;,&quot;signature&quot;:&quot;i:1&quot;,&quot;imageName&quot;:&quot;page-005.jpg&quot;,&quot;imageId&quot;:5,&quot;bounds&quot;:{&quot;x&quot;:1196,&quot;y&quot;:903,&quot;w&quot;:56,&quot;h&quot;:43},&quot;atoms&quot;:[{&quot;id&quot;:6276,&quot;token&quot;:&quot;i:1&quot;,&quot;particle_id&quot;:&quot;img5-m38-p3&quot;,&quot;molecule_id&quot;:&quot;img5-m38&quot;,&quot;atom_order&quot;:2}]}</metadata>
  <rect x="0" y="0" width="56" height="43" fill="#f8f0d8"/>
  <image href="file:///C:/Users/HHHES/AppData/Roaming/com.voynichlab.datasetcreator/images/1/a6cd3b6e-2a78-4b30-a4be-5d186aea258e.jpg" x="-1196" y="-903" width="2691" height="3770" opacity="0.92"/>
  <rect x="0.5" y="0.5" width="55" height="42" fill="none" stroke="#111827" stroke-width="1" opacity="0.35"/>
  <polyline points="16,27 17,27 18,27 19,27 20,27 21,27 22,26 23,26 24,26 25,25 26,25 27,24 28,24 29,23 30,23 31,22 32,22 33,21 34,21 35,21 35,20 36,20 37,19 38,18 39,17 40,16" fill="none" stroke="#00ff7f" stroke-width="3" stroke-linecap="round" stroke-linejoin="round" opacity="0.95">
    <title>6276 i:1</title>
  </polyline>
</svg>
