<?xml version="1.0" encoding="UTF-8"?>
<svg xmlns="http://www.w3.org/2000/svg" width="48" height="56" viewBox="0 0 48 56">
  <title>atom 6277 i:1</title>
  <metadata>{&quot;entityType&quot;:&quot;atom&quot;,&quot;entityId&quot;:&quot;6277&quot;,&quot;token&quot;:&quot;i:1&quot;,&quot;signature&quot;:&quot;i:1&quot;,&quot;imageName&quot;:&quot;page-005.jpg&quot;,&quot;imageId&quot;:5,&quot;bounds&quot;:{&quot;x&quot;:1153,&quot;y&quot;:883,&quot;w&quot;:48,&quot;h&quot;:56},&quot;atoms&quot;:[{&quot;id&quot;:6277,&quot;token&quot;:&quot;i:1&quot;,&quot;particle_id&quot;:&quot;img5-m38-p1&quot;,&quot;molecule_id&quot;:&quot;img5-m38&quot;,&quot;atom_order&quot;:2}]}</metadata>
  <rect x="0" y="0" width="48" height="56" fill="#f8f0d8"/>
  <image href="file:///C:/Users/HHHES/AppData/Roaming/com.voynichlab.datasetcreator/images/1/a6cd3b6e-2a78-4b30-a4be-5d186aea258e.jpg" x="-1153" y="-883" width="2691" height="3770" opacity="0.92"/>
  <rect x="0.5" y="0.5" width="47" height="55" fill="none" stroke="#111827" stroke-width="1" opacity="0.35"/>
  <polyline points="16,40 16,39 17,39 18,39 19,39 20,38 21,38 22,38 23,37 24,37 24,36 25,36 26,36 26,35 27,34 28,34 28,33 29,33 29,32 30,32 30,31 31,30 31,29 31,28 32,27 32,26 32,25 32,24 32,23 32,22 31,21 31,20 30,20 30,19 30,18 29,18 29,17 28,16" fill="none" stroke="#00ff7f" stroke-width="3" stroke-linecap="round" stroke-linejoin="round" opacity="0.95">
    <title>6277 i:1</title>
  </polyline>
</svg>
