<?xml version="1.0" encoding="UTF-8"?>
<svg xmlns="http://www.w3.org/2000/svg" width="45" height="63" viewBox="0 0 45 63">
  <title>atom 6281 i:1</title>
  <metadata>{&quot;entityType&quot;:&quot;atom&quot;,&quot;entityId&quot;:&quot;6281&quot;,&quot;token&quot;:&quot;i:1&quot;,&quot;signature&quot;:&quot;i:1&quot;,&quot;imageName&quot;:&quot;page-005.jpg&quot;,&quot;imageId&quot;:5,&quot;bounds&quot;:{&quot;x&quot;:726,&quot;y&quot;:884,&quot;w&quot;:45,&quot;h&quot;:63},&quot;atoms&quot;:[{&quot;id&quot;:6281,&quot;token&quot;:&quot;i:1&quot;,&quot;particle_id&quot;:&quot;img5-m36-p3&quot;,&quot;molecule_id&quot;:&quot;img5-m36&quot;,&quot;atom_order&quot;:3}]}</metadata>
  <rect x="0" y="0" width="45" height="63" fill="#f8f0d8"/>
  <image href="file:///C:/Users/HHHES/AppData/Roaming/com.voynichlab.datasetcreator/images/1/a6cd3b6e-2a78-4b30-a4be-5d186aea258e.jpg" x="-726" y="-884" width="2691" height="3770" opacity="0.92"/>
  <rect x="0.5" y="0.5" width="44" height="62" fill="none" stroke="#111827" stroke-width="1" opacity="0.35"/>
  <polyline points="16,47 17,47 18,47 19,47 20,47 20,46 21,46 22,45 23,44 24,43 24,42 25,42 25,41 25,40 26,40 26,39 27,39 27,38 27,37 27,36 28,36 28,35 28,34 29,33 29,32 29,31 29,30 29,29 29,28 29,27 29,26 29,25 29,24 29,23 29,22 29,21 28,21 28,20 27,20 27,19 27,18 26,18 26,17 25,16" fill="none" stroke="#00ff7f" stroke-width="3" stroke-linecap="round" stroke-linejoin="round" opacity="0.95">
    <title>6281 i:1</title>
  </polyline>
</svg>
