<?xml version="1.0" encoding="UTF-8"?>
<svg xmlns="http://www.w3.org/2000/svg" width="41" height="66" viewBox="0 0 41 66">
  <title>atom 6283 i:1</title>
  <metadata>{&quot;entityType&quot;:&quot;atom&quot;,&quot;entityId&quot;:&quot;6283&quot;,&quot;token&quot;:&quot;i:1&quot;,&quot;signature&quot;:&quot;i:1&quot;,&quot;imageName&quot;:&quot;page-005.jpg&quot;,&quot;imageId&quot;:5,&quot;bounds&quot;:{&quot;x&quot;:554,&quot;y&quot;:889,&quot;w&quot;:41,&quot;h&quot;:66},&quot;atoms&quot;:[{&quot;id&quot;:6283,&quot;token&quot;:&quot;i:1&quot;,&quot;particle_id&quot;:&quot;img5-m37-p3&quot;,&quot;molecule_id&quot;:&quot;img5-m37&quot;,&quot;atom_order&quot;:3}]}</metadata>
  <rect x="0" y="0" width="41" height="66" fill="#f8f0d8"/>
  <image href="file:///C:/Users/HHHES/AppData/Roaming/com.voynichlab.datasetcreator/images/1/a6cd3b6e-2a78-4b30-a4be-5d186aea258e.jpg" x="-554" y="-889" width="2691" height="3770" opacity="0.92"/>
  <rect x="0.5" y="0.5" width="40" height="65" fill="none" stroke="#111827" stroke-width="1" opacity="0.35"/>
  <polyline points="16,50 16,49 17,49 18,49 18,48 18,47 19,47 20,46 20,45 21,45 21,44 22,43 22,42 23,42 23,41 23,40 23,39 23,38 24,37 24,36 24,35 24,34 24,33 25,32 25,31 25,29 25,28 25,27 25,26 25,25 25,24 25,23 25,22 25,21 25,20 25,19 24,19 24,18 23,17 23,16 22,16" fill="none" stroke="#00ff7f" stroke-width="3" stroke-linecap="round" stroke-linejoin="round" opacity="0.95">
    <title>6283 i:1</title>
  </polyline>
</svg>
