<?xml version="1.0" encoding="UTF-8"?>
<svg xmlns="http://www.w3.org/2000/svg" width="39" height="59" viewBox="0 0 39 59">
  <title>atom 6284 i:1</title>
  <metadata>{&quot;entityType&quot;:&quot;atom&quot;,&quot;entityId&quot;:&quot;6284&quot;,&quot;token&quot;:&quot;i:1&quot;,&quot;signature&quot;:&quot;i:1&quot;,&quot;imageName&quot;:&quot;page-005.jpg&quot;,&quot;imageId&quot;:5,&quot;bounds&quot;:{&quot;x&quot;:436,&quot;y&quot;:877,&quot;w&quot;:39,&quot;h&quot;:59},&quot;atoms&quot;:[{&quot;id&quot;:6284,&quot;token&quot;:&quot;i:1&quot;,&quot;particle_id&quot;:&quot;img5-m37-p1&quot;,&quot;molecule_id&quot;:&quot;img5-m37&quot;,&quot;atom_order&quot;:2}]}</metadata>
  <rect x="0" y="0" width="39" height="59" fill="#f8f0d8"/>
  <image href="file:///C:/Users/HHHES/AppData/Roaming/com.voynichlab.datasetcreator/images/1/a6cd3b6e-2a78-4b30-a4be-5d186aea258e.jpg" x="-436" y="-877" width="2691" height="3770" opacity="0.92"/>
  <rect x="0.5" y="0.5" width="38" height="58" fill="none" stroke="#111827" stroke-width="1" opacity="0.35"/>
  <polyline points="17,43 18,42 19,42 20,41 21,40 21,39 22,39 22,38 22,37 22,36 23,36 23,35 23,34 23,33 23,32 23,31 23,30 23,29 23,28 23,27 23,26 23,25 23,24 23,23 23,22 22,21 21,20 20,20 20,19 20,18 19,18 18,17 17,17 17,16 16,16" fill="none" stroke="#00ff7f" stroke-width="3" stroke-linecap="round" stroke-linejoin="round" opacity="0.95">
    <title>6284 i:1</title>
  </polyline>
</svg>
