<?xml version="1.0" encoding="UTF-8"?>
<svg xmlns="http://www.w3.org/2000/svg" width="45" height="59" viewBox="0 0 45 59">
  <title>atom 6286 i:1</title>
  <metadata>{&quot;entityType&quot;:&quot;atom&quot;,&quot;entityId&quot;:&quot;6286&quot;,&quot;token&quot;:&quot;i:1&quot;,&quot;signature&quot;:&quot;i:1&quot;,&quot;imageName&quot;:&quot;page-005.jpg&quot;,&quot;imageId&quot;:5,&quot;bounds&quot;:{&quot;x&quot;:851,&quot;y&quot;:981,&quot;w&quot;:45,&quot;h&quot;:59},&quot;atoms&quot;:[{&quot;id&quot;:6286,&quot;token&quot;:&quot;i:1&quot;,&quot;particle_id&quot;:&quot;img5-m44-p3&quot;,&quot;molecule_id&quot;:&quot;img5-m44&quot;,&quot;atom_order&quot;:3}]}</metadata>
  <rect x="0" y="0" width="45" height="59" fill="#f8f0d8"/>
  <image href="file:///C:/Users/HHHES/AppData/Roaming/com.voynichlab.datasetcreator/images/1/a6cd3b6e-2a78-4b30-a4be-5d186aea258e.jpg" x="-851" y="-981" width="2691" height="3770" opacity="0.92"/>
  <rect x="0.5" y="0.5" width="44" height="58" fill="none" stroke="#111827" stroke-width="1" opacity="0.35"/>
  <polyline points="16,43 17,43 18,43 19,42 20,42 21,41 22,40 23,39 24,39 24,38 25,37 25,36 26,36 26,35 27,34 27,33 28,33 28,32 28,31 29,31 29,30 29,29 29,28 29,27 29,26 29,25 28,24 28,23 28,22 27,22 27,21 26,21 26,20 25,19 24,18 23,18 22,17 21,17 21,16" fill="none" stroke="#00ff7f" stroke-width="3" stroke-linecap="round" stroke-linejoin="round" opacity="0.95">
    <title>6286 i:1</title>
  </polyline>
</svg>
