<?xml version="1.0" encoding="UTF-8"?>
<svg xmlns="http://www.w3.org/2000/svg" width="46" height="66" viewBox="0 0 46 66">
  <title>atom 6287 i:1</title>
  <metadata>{&quot;entityType&quot;:&quot;atom&quot;,&quot;entityId&quot;:&quot;6287&quot;,&quot;token&quot;:&quot;i:1&quot;,&quot;signature&quot;:&quot;i:1&quot;,&quot;imageName&quot;:&quot;page-005.jpg&quot;,&quot;imageId&quot;:5,&quot;bounds&quot;:{&quot;x&quot;:1200,&quot;y&quot;:976,&quot;w&quot;:46,&quot;h&quot;:66},&quot;atoms&quot;:[{&quot;id&quot;:6287,&quot;token&quot;:&quot;i:1&quot;,&quot;particle_id&quot;:&quot;img5-m46-p6&quot;,&quot;molecule_id&quot;:&quot;img5-m46&quot;,&quot;atom_order&quot;:2}]}</metadata>
  <rect x="0" y="0" width="46" height="66" fill="#f8f0d8"/>
  <image href="file:///C:/Users/HHHES/AppData/Roaming/com.voynichlab.datasetcreator/images/1/a6cd3b6e-2a78-4b30-a4be-5d186aea258e.jpg" x="-1200" y="-976" width="2691" height="3770" opacity="0.92"/>
  <rect x="0.5" y="0.5" width="45" height="65" fill="none" stroke="#111827" stroke-width="1" opacity="0.35"/>
  <polyline points="16,50 17,50 18,50 19,50 20,50 21,50 22,49 23,49 24,48 25,47 26,47 26,46 27,46 27,45 28,45 28,44 28,43 28,42 29,41 29,40 29,39 29,38 29,37 30,37 30,36 30,35 30,34 30,33 30,32 30,31 30,30 30,29 30,28 30,27 30,26 29,26 29,25 29,24 29,23 28,23 28,22 28,21 28,20 27,20 27,19 26,19 26,18 25,17 24,17 23,16" fill="none" stroke="#00ff7f" stroke-width="3" stroke-linecap="round" stroke-linejoin="round" opacity="0.95">
    <title>6287 i:1</title>
  </polyline>
</svg>
