<?xml version="1.0" encoding="UTF-8"?>
<svg xmlns="http://www.w3.org/2000/svg" width="49" height="57" viewBox="0 0 49 57">
  <title>atom 6288 i:1</title>
  <metadata>{&quot;entityType&quot;:&quot;atom&quot;,&quot;entityId&quot;:&quot;6288&quot;,&quot;token&quot;:&quot;i:1&quot;,&quot;signature&quot;:&quot;i:1&quot;,&quot;imageName&quot;:&quot;page-005.jpg&quot;,&quot;imageId&quot;:5,&quot;bounds&quot;:{&quot;x&quot;:641,&quot;y&quot;:2465,&quot;w&quot;:49,&quot;h&quot;:57},&quot;atoms&quot;:[{&quot;id&quot;:6288,&quot;token&quot;:&quot;i:1&quot;,&quot;particle_id&quot;:&quot;img5-m48-p5&quot;,&quot;molecule_id&quot;:&quot;img5-m48&quot;,&quot;atom_order&quot;:3}]}</metadata>
  <rect x="0" y="0" width="49" height="57" fill="#f8f0d8"/>
  <image href="file:///C:/Users/HHHES/AppData/Roaming/com.voynichlab.datasetcreator/images/1/a6cd3b6e-2a78-4b30-a4be-5d186aea258e.jpg" x="-641" y="-2465" width="2691" height="3770" opacity="0.92"/>
  <rect x="0.5" y="0.5" width="48" height="56" fill="none" stroke="#111827" stroke-width="1" opacity="0.35"/>
  <polyline points="16,41 17,41 18,41 19,40 20,40 21,40 21,39 22,39 23,39 23,38 24,38 24,37 25,37 26,36 27,36 27,35 28,35 28,34 29,34 29,33 30,33 30,32 30,31 31,31 31,30 31,29 32,28 32,27 32,26 32,25 32,24 33,24 33,22 33,21 32,20 32,19 32,18 32,17 31,16" fill="none" stroke="#00ff7f" stroke-width="3" stroke-linecap="round" stroke-linejoin="round" opacity="0.95">
    <title>6288 i:1</title>
  </polyline>
</svg>
