<?xml version="1.0" encoding="UTF-8"?>
<svg xmlns="http://www.w3.org/2000/svg" width="57" height="62" viewBox="0 0 57 62">
  <title>atom 6289 i:1</title>
  <metadata>{&quot;entityType&quot;:&quot;atom&quot;,&quot;entityId&quot;:&quot;6289&quot;,&quot;token&quot;:&quot;i:1&quot;,&quot;signature&quot;:&quot;i:1&quot;,&quot;imageName&quot;:&quot;page-005.jpg&quot;,&quot;imageId&quot;:5,&quot;bounds&quot;:{&quot;x&quot;:865,&quot;y&quot;:2465,&quot;w&quot;:57,&quot;h&quot;:62},&quot;atoms&quot;:[{&quot;id&quot;:6289,&quot;token&quot;:&quot;i:1&quot;,&quot;particle_id&quot;:&quot;img5-m55-p2&quot;,&quot;molecule_id&quot;:&quot;img5-m55&quot;,&quot;atom_order&quot;:3}]}</metadata>
  <rect x="0" y="0" width="57" height="62" fill="#f8f0d8"/>
  <image href="file:///C:/Users/HHHES/AppData/Roaming/com.voynichlab.datasetcreator/images/1/a6cd3b6e-2a78-4b30-a4be-5d186aea258e.jpg" x="-865" y="-2465" width="2691" height="3770" opacity="0.92"/>
  <rect x="0.5" y="0.5" width="56" height="61" fill="none" stroke="#111827" stroke-width="1" opacity="0.35"/>
  <polyline points="16,46 17,46 18,46 19,46 19,45 20,45 21,45 22,45 23,44 24,44 25,44 26,43 27,43 28,43 29,42 30,42 31,41 32,41 32,40 33,40 33,39 34,39 35,38 36,37 36,36 37,36 37,35 38,34 38,33 39,33 39,32 40,31 40,30 40,29 40,28 41,27 41,26 41,25 41,24 41,23 41,22 41,21 41,20 40,19 39,18 39,17 38,17 38,16" fill="none" stroke="#00ff7f" stroke-width="3" stroke-linecap="round" stroke-linejoin="round" opacity="0.95">
    <title>6289 i:1</title>
  </polyline>
</svg>
