<?xml version="1.0" encoding="UTF-8"?>
<svg xmlns="http://www.w3.org/2000/svg" width="48" height="72" viewBox="0 0 48 72">
  <title>atom 6291 i:1</title>
  <metadata>{&quot;entityType&quot;:&quot;atom&quot;,&quot;entityId&quot;:&quot;6291&quot;,&quot;token&quot;:&quot;i:1&quot;,&quot;signature&quot;:&quot;i:1&quot;,&quot;imageName&quot;:&quot;page-005.jpg&quot;,&quot;imageId&quot;:5,&quot;bounds&quot;:{&quot;x&quot;:1438,&quot;y&quot;:2463,&quot;w&quot;:48,&quot;h&quot;:72},&quot;atoms&quot;:[{&quot;id&quot;:6291,&quot;token&quot;:&quot;i:1&quot;,&quot;particle_id&quot;:&quot;img5-m57-p7&quot;,&quot;molecule_id&quot;:&quot;img5-m57&quot;,&quot;atom_order&quot;:2}]}</metadata>
  <rect x="0" y="0" width="48" height="72" fill="#f8f0d8"/>
  <image href="file:///C:/Users/HHHES/AppData/Roaming/com.voynichlab.datasetcreator/images/1/a6cd3b6e-2a78-4b30-a4be-5d186aea258e.jpg" x="-1438" y="-2463" width="2691" height="3770" opacity="0.92"/>
  <rect x="0.5" y="0.5" width="47" height="71" fill="none" stroke="#111827" stroke-width="1" opacity="0.35"/>
  <polyline points="18,56 19,56 19,55 20,55 21,55 21,54 22,54 23,54 23,53 24,53 24,52 25,52 26,52 26,51 27,51 28,50 28,49 29,49 29,48 30,47 30,46 31,45 31,44 31,43 32,42 32,41 32,40 32,39 32,38 32,37 32,36 32,35 32,34 32,33 32,32 32,31 31,31 31,30 31,29 30,28 30,27 30,26 29,26 29,25 28,25 28,24 27,24 26,23 25,22 25,21 24,21 23,20 21,19 20,18 19,17 18,17 17,16 16,16" fill="none" stroke="#00ff7f" stroke-width="3" stroke-linecap="round" stroke-linejoin="round" opacity="0.95">
    <title>6291 i:1</title>
  </polyline>
</svg>
