<?xml version="1.0" encoding="UTF-8"?>
<svg xmlns="http://www.w3.org/2000/svg" width="47" height="68" viewBox="0 0 47 68">
  <title>atom 6293 i:1</title>
  <metadata>{&quot;entityType&quot;:&quot;atom&quot;,&quot;entityId&quot;:&quot;6293&quot;,&quot;token&quot;:&quot;i:1&quot;,&quot;signature&quot;:&quot;i:1&quot;,&quot;imageName&quot;:&quot;page-005.jpg&quot;,&quot;imageId&quot;:5,&quot;bounds&quot;:{&quot;x&quot;:2073,&quot;y&quot;:2516,&quot;w&quot;:47,&quot;h&quot;:68},&quot;atoms&quot;:[{&quot;id&quot;:6293,&quot;token&quot;:&quot;i:1&quot;,&quot;particle_id&quot;:&quot;img5-m60-p3&quot;,&quot;molecule_id&quot;:&quot;img5-m60&quot;,&quot;atom_order&quot;:3}]}</metadata>
  <rect x="0" y="0" width="47" height="68" fill="#f8f0d8"/>
  <image href="file:///C:/Users/HHHES/AppData/Roaming/com.voynichlab.datasetcreator/images/1/a6cd3b6e-2a78-4b30-a4be-5d186aea258e.jpg" x="-2073" y="-2516" width="2691" height="3770" opacity="0.92"/>
  <rect x="0.5" y="0.5" width="46" height="67" fill="none" stroke="#111827" stroke-width="1" opacity="0.35"/>
  <polyline points="16,52 16,51 17,51 18,50 19,50 20,49 21,48 22,47 23,47 23,46 24,45 25,44 26,43 26,42 27,42 27,41 28,41 28,40 28,39 29,39 29,38 30,37 30,36 31,36 31,35 31,34 31,33 31,32 31,31 31,30 31,29 31,28 31,27 31,26 31,25 30,24 30,23 29,22 28,21 27,20 26,19 25,19 24,18 23,17 22,16" fill="none" stroke="#00ff7f" stroke-width="3" stroke-linecap="round" stroke-linejoin="round" opacity="0.95">
    <title>6293 i:1</title>
  </polyline>
</svg>
