<?xml version="1.0" encoding="UTF-8"?>
<svg xmlns="http://www.w3.org/2000/svg" width="58" height="75" viewBox="0 0 58 75">
  <title>atom 6300 i:1</title>
  <metadata>{&quot;entityType&quot;:&quot;atom&quot;,&quot;entityId&quot;:&quot;6300&quot;,&quot;token&quot;:&quot;i:1&quot;,&quot;signature&quot;:&quot;i:1&quot;,&quot;imageName&quot;:&quot;page-005.jpg&quot;,&quot;imageId&quot;:5,&quot;bounds&quot;:{&quot;x&quot;:1295,&quot;y&quot;:2702,&quot;w&quot;:58,&quot;h&quot;:75},&quot;atoms&quot;:[{&quot;id&quot;:6300,&quot;token&quot;:&quot;i:1&quot;,&quot;particle_id&quot;:&quot;img5-m88-p2&quot;,&quot;molecule_id&quot;:&quot;img5-m88&quot;,&quot;atom_order&quot;:2}]}</metadata>
  <rect x="0" y="0" width="58" height="75" fill="#f8f0d8"/>
  <image href="file:///C:/Users/HHHES/AppData/Roaming/com.voynichlab.datasetcreator/images/1/a6cd3b6e-2a78-4b30-a4be-5d186aea258e.jpg" x="-1295" y="-2702" width="2691" height="3770" opacity="0.92"/>
  <rect x="0.5" y="0.5" width="57" height="74" fill="none" stroke="#111827" stroke-width="1" opacity="0.35"/>
  <polyline points="16,58 17,58 18,58 19,58 20,58 21,59 22,59 23,59 24,59 25,58 26,58 27,57 28,57 29,57 30,57 31,56 32,56 33,55 34,55 34,54 35,54 36,53 37,52 38,52 38,51 39,51 39,50 40,50 40,49 40,48 40,47 41,46 41,45 42,44 42,42 42,41 42,40 42,39 42,38 42,37 41,36 41,35 40,35 40,33 40,32 39,31 38,31 38,30 37,29 36,29 35,28 34,27 33,27 33,26 31,25 30,24 28,22 27,22 26,21 23,20 23,19 22,18 20,17 18,16 17,16 16,16" fill="none" stroke="#00ff7f" stroke-width="3" stroke-linecap="round" stroke-linejoin="round" opacity="0.95">
    <title>6300 i:1</title>
  </polyline>
</svg>
