<?xml version="1.0" encoding="UTF-8"?>
<svg xmlns="http://www.w3.org/2000/svg" width="53" height="57" viewBox="0 0 53 57">
  <title>atom 6301 i:1</title>
  <metadata>{&quot;entityType&quot;:&quot;atom&quot;,&quot;entityId&quot;:&quot;6301&quot;,&quot;token&quot;:&quot;i:1&quot;,&quot;signature&quot;:&quot;i:1&quot;,&quot;imageName&quot;:&quot;page-005.jpg&quot;,&quot;imageId&quot;:5,&quot;bounds&quot;:{&quot;x&quot;:1104,&quot;y&quot;:2706,&quot;w&quot;:53,&quot;h&quot;:57},&quot;atoms&quot;:[{&quot;id&quot;:6301,&quot;token&quot;:&quot;i:1&quot;,&quot;particle_id&quot;:&quot;img5-m83-p5&quot;,&quot;molecule_id&quot;:&quot;img5-m83&quot;,&quot;atom_order&quot;:2}]}</metadata>
  <rect x="0" y="0" width="53" height="57" fill="#f8f0d8"/>
  <image href="file:///C:/Users/HHHES/AppData/Roaming/com.voynichlab.datasetcreator/images/1/a6cd3b6e-2a78-4b30-a4be-5d186aea258e.jpg" x="-1104" y="-2706" width="2691" height="3770" opacity="0.92"/>
  <rect x="0.5" y="0.5" width="52" height="56" fill="none" stroke="#111827" stroke-width="1" opacity="0.35"/>
  <polyline points="17,41 16,41 17,41 18,41 19,40 20,40 21,40 22,39 23,38 24,38 25,37 27,36 28,36 28,35 29,34 30,34 30,33 31,33 32,32 33,31 34,30 34,29 35,29 35,28 36,27 36,26 36,25 37,25 37,24 37,23 37,22 37,20 37,19 37,18 36,18 36,17 35,16" fill="none" stroke="#00ff7f" stroke-width="3" stroke-linecap="round" stroke-linejoin="round" opacity="0.95">
    <title>6301 i:1</title>
  </polyline>
</svg>
