<?xml version="1.0" encoding="UTF-8"?>
<svg xmlns="http://www.w3.org/2000/svg" width="48" height="68" viewBox="0 0 48 68">
  <title>atom 6302 i:1</title>
  <metadata>{&quot;entityType&quot;:&quot;atom&quot;,&quot;entityId&quot;:&quot;6302&quot;,&quot;token&quot;:&quot;i:1&quot;,&quot;signature&quot;:&quot;i:1&quot;,&quot;imageName&quot;:&quot;page-005.jpg&quot;,&quot;imageId&quot;:5,&quot;bounds&quot;:{&quot;x&quot;:647,&quot;y&quot;:2699,&quot;w&quot;:48,&quot;h&quot;:68},&quot;atoms&quot;:[{&quot;id&quot;:6302,&quot;token&quot;:&quot;i:1&quot;,&quot;particle_id&quot;:&quot;img5-m87-p4&quot;,&quot;molecule_id&quot;:&quot;img5-m87&quot;,&quot;atom_order&quot;:3}]}</metadata>
  <rect x="0" y="0" width="48" height="68" fill="#f8f0d8"/>
  <image href="file:///C:/Users/HHHES/AppData/Roaming/com.voynichlab.datasetcreator/images/1/a6cd3b6e-2a78-4b30-a4be-5d186aea258e.jpg" x="-647" y="-2699" width="2691" height="3770" opacity="0.92"/>
  <rect x="0.5" y="0.5" width="47" height="67" fill="none" stroke="#111827" stroke-width="1" opacity="0.35"/>
  <polyline points="16,52 17,52 18,52 19,51 20,51 21,51 22,50 23,50 24,50 25,49 26,48 27,47 28,46 29,45 29,44 30,44 30,43 31,42 31,41 31,40 31,39 31,38 32,38 32,37 32,36 32,35 32,34 32,33 32,32 32,31 32,30 32,29 32,28 31,27 31,26 31,25 30,23 29,22 29,21 28,21 28,20 27,20 26,19 25,19 24,18 23,18 22,17 21,17 21,16" fill="none" stroke="#00ff7f" stroke-width="3" stroke-linecap="round" stroke-linejoin="round" opacity="0.95">
    <title>6302 i:1</title>
  </polyline>
</svg>
