<?xml version="1.0" encoding="UTF-8"?>
<svg xmlns="http://www.w3.org/2000/svg" width="48" height="63" viewBox="0 0 48 63">
  <title>atom 6304 i:1</title>
  <metadata>{&quot;entityType&quot;:&quot;atom&quot;,&quot;entityId&quot;:&quot;6304&quot;,&quot;token&quot;:&quot;i:1&quot;,&quot;signature&quot;:&quot;i:1&quot;,&quot;imageName&quot;:&quot;page-005.jpg&quot;,&quot;imageId&quot;:5,&quot;bounds&quot;:{&quot;x&quot;:848,&quot;y&quot;:2780,&quot;w&quot;:48,&quot;h&quot;:63},&quot;atoms&quot;:[{&quot;id&quot;:6304,&quot;token&quot;:&quot;i:1&quot;,&quot;particle_id&quot;:&quot;img5-m95-p3&quot;,&quot;molecule_id&quot;:&quot;img5-m95&quot;,&quot;atom_order&quot;:2}]}</metadata>
  <rect x="0" y="0" width="48" height="63" fill="#f8f0d8"/>
  <image href="file:///C:/Users/HHHES/AppData/Roaming/com.voynichlab.datasetcreator/images/1/a6cd3b6e-2a78-4b30-a4be-5d186aea258e.jpg" x="-848" y="-2780" width="2691" height="3770" opacity="0.92"/>
  <rect x="0.5" y="0.5" width="47" height="62" fill="none" stroke="#111827" stroke-width="1" opacity="0.35"/>
  <polyline points="16,47 17,46 18,45 19,45 20,44 21,44 21,43 22,42 23,42 23,41 24,41 25,40 26,40 26,39 27,39 27,38 28,37 28,36 29,36 29,35 30,34 30,33 31,32 31,31 32,30 32,29 32,28 32,27 32,26 32,25 32,24 32,23 32,22 32,21 32,19 31,18 31,17 31,16" fill="none" stroke="#00ff7f" stroke-width="3" stroke-linecap="round" stroke-linejoin="round" opacity="0.95">
    <title>6304 i:1</title>
  </polyline>
</svg>
