<?xml version="1.0" encoding="UTF-8"?>
<svg xmlns="http://www.w3.org/2000/svg" width="51" height="67" viewBox="0 0 51 67">
  <title>atom 6305 i:1</title>
  <metadata>{&quot;entityType&quot;:&quot;atom&quot;,&quot;entityId&quot;:&quot;6305&quot;,&quot;token&quot;:&quot;i:1&quot;,&quot;signature&quot;:&quot;i:1&quot;,&quot;imageName&quot;:&quot;page-005.jpg&quot;,&quot;imageId&quot;:5,&quot;bounds&quot;:{&quot;x&quot;:1072,&quot;y&quot;:2788,&quot;w&quot;:51,&quot;h&quot;:67},&quot;atoms&quot;:[{&quot;id&quot;:6305,&quot;token&quot;:&quot;i:1&quot;,&quot;particle_id&quot;:&quot;img5-m90-p3&quot;,&quot;molecule_id&quot;:&quot;img5-m90&quot;,&quot;atom_order&quot;:2}]}</metadata>
  <rect x="0" y="0" width="51" height="67" fill="#f8f0d8"/>
  <image href="file:///C:/Users/HHHES/AppData/Roaming/com.voynichlab.datasetcreator/images/1/a6cd3b6e-2a78-4b30-a4be-5d186aea258e.jpg" x="-1072" y="-2788" width="2691" height="3770" opacity="0.92"/>
  <rect x="0.5" y="0.5" width="50" height="66" fill="none" stroke="#111827" stroke-width="1" opacity="0.35"/>
  <polyline points="16,51 17,51 18,50 19,49 20,49 22,48 23,48 23,47 24,47 24,46 25,46 26,45 27,44 27,43 28,42 28,41 29,40 30,39 30,38 31,37 31,36 31,35 32,35 32,34 32,33 33,32 33,31 33,30 34,30 34,29 34,28 34,27 35,26 35,25 35,24 35,23 35,22 34,22 34,21 34,20 34,19 34,18 33,17 33,16" fill="none" stroke="#00ff7f" stroke-width="3" stroke-linecap="round" stroke-linejoin="round" opacity="0.95">
    <title>6305 i:1</title>
  </polyline>
</svg>
