<?xml version="1.0" encoding="UTF-8"?>
<svg xmlns="http://www.w3.org/2000/svg" width="51" height="70" viewBox="0 0 51 70">
  <title>atom 6310 i:1</title>
  <metadata>{&quot;entityType&quot;:&quot;atom&quot;,&quot;entityId&quot;:&quot;6310&quot;,&quot;token&quot;:&quot;i:1&quot;,&quot;signature&quot;:&quot;i:1&quot;,&quot;imageName&quot;:&quot;page-005.jpg&quot;,&quot;imageId&quot;:5,&quot;bounds&quot;:{&quot;x&quot;:1761,&quot;y&quot;:2773,&quot;w&quot;:51,&quot;h&quot;:70},&quot;atoms&quot;:[{&quot;id&quot;:6310,&quot;token&quot;:&quot;i:1&quot;,&quot;particle_id&quot;:&quot;img5-m91-p3&quot;,&quot;molecule_id&quot;:&quot;img5-m91&quot;,&quot;atom_order&quot;:3}]}</metadata>
  <rect x="0" y="0" width="51" height="70" fill="#f8f0d8"/>
  <image href="file:///C:/Users/HHHES/AppData/Roaming/com.voynichlab.datasetcreator/images/1/a6cd3b6e-2a78-4b30-a4be-5d186aea258e.jpg" x="-1761" y="-2773" width="2691" height="3770" opacity="0.92"/>
  <rect x="0.5" y="0.5" width="50" height="69" fill="none" stroke="#111827" stroke-width="1" opacity="0.35"/>
  <polyline points="16,54 17,54 18,53 19,53 20,53 22,52 24,51 25,51 25,50 26,50 27,49 28,49 29,48 30,47 30,46 31,46 31,45 32,45 33,44 33,43 34,42 34,41 35,40 35,39 35,38 35,37 35,36 35,35 35,33 35,32 35,31 35,30 35,29 35,28 35,27 34,27 34,26 34,25 33,25 33,24 32,23 32,22 31,22 31,21 30,21 30,20 30,19 29,18 28,18 28,17 27,16 26,16" fill="none" stroke="#00ff7f" stroke-width="3" stroke-linecap="round" stroke-linejoin="round" opacity="0.95">
    <title>6310 i:1</title>
  </polyline>
</svg>
