<?xml version="1.0" encoding="UTF-8"?>
<svg xmlns="http://www.w3.org/2000/svg" width="53" height="52" viewBox="0 0 53 52">
  <title>atom 6311 i:1</title>
  <metadata>{&quot;entityType&quot;:&quot;atom&quot;,&quot;entityId&quot;:&quot;6311&quot;,&quot;token&quot;:&quot;i:1&quot;,&quot;signature&quot;:&quot;i:1&quot;,&quot;imageName&quot;:&quot;page-005.jpg&quot;,&quot;imageId&quot;:5,&quot;bounds&quot;:{&quot;x&quot;:2254,&quot;y&quot;:2651,&quot;w&quot;:53,&quot;h&quot;:52},&quot;atoms&quot;:[{&quot;id&quot;:6311,&quot;token&quot;:&quot;i:1&quot;,&quot;particle_id&quot;:&quot;img5-m77-p3&quot;,&quot;molecule_id&quot;:&quot;img5-m77&quot;,&quot;atom_order&quot;:2}]}</metadata>
  <rect x="0" y="0" width="53" height="52" fill="#f8f0d8"/>
  <image href="file:///C:/Users/HHHES/AppData/Roaming/com.voynichlab.datasetcreator/images/1/a6cd3b6e-2a78-4b30-a4be-5d186aea258e.jpg" x="-2254" y="-2651" width="2691" height="3770" opacity="0.92"/>
  <rect x="0.5" y="0.5" width="52" height="51" fill="none" stroke="#111827" stroke-width="1" opacity="0.35"/>
  <polyline points="16,36 17,36 18,36 19,36 20,36 21,35 22,35 23,35 23,34 24,34 25,34 26,33 27,33 27,32 28,32 29,31 30,31 30,30 31,30 31,29 32,29 32,28 32,27 33,27 33,26 34,25 35,24 35,23 36,22 36,21 36,20 36,19 36,18 37,17 37,16" fill="none" stroke="#00ff7f" stroke-width="3" stroke-linecap="round" stroke-linejoin="round" opacity="0.95">
    <title>6311 i:1</title>
  </polyline>
</svg>
