<?xml version="1.0" encoding="UTF-8"?>
<svg xmlns="http://www.w3.org/2000/svg" width="49" height="73" viewBox="0 0 49 73">
  <title>atom 6312 i:1</title>
  <metadata>{&quot;entityType&quot;:&quot;atom&quot;,&quot;entityId&quot;:&quot;6312&quot;,&quot;token&quot;:&quot;i:1&quot;,&quot;signature&quot;:&quot;i:1&quot;,&quot;imageName&quot;:&quot;page-005.jpg&quot;,&quot;imageId&quot;:5,&quot;bounds&quot;:{&quot;x&quot;:1865,&quot;y&quot;:2685,&quot;w&quot;:49,&quot;h&quot;:73},&quot;atoms&quot;:[{&quot;id&quot;:6312,&quot;token&quot;:&quot;i:1&quot;,&quot;particle_id&quot;:&quot;img5-m86-p5&quot;,&quot;molecule_id&quot;:&quot;img5-m86&quot;,&quot;atom_order&quot;:3}]}</metadata>
  <rect x="0" y="0" width="49" height="73" fill="#f8f0d8"/>
  <image href="file:///C:/Users/HHHES/AppData/Roaming/com.voynichlab.datasetcreator/images/1/a6cd3b6e-2a78-4b30-a4be-5d186aea258e.jpg" x="-1865" y="-2685" width="2691" height="3770" opacity="0.92"/>
  <rect x="0.5" y="0.5" width="48" height="72" fill="none" stroke="#111827" stroke-width="1" opacity="0.35"/>
  <polyline points="16,57 16,56 18,55 19,54 20,53 21,52 22,52 22,51 23,50 24,49 25,48 25,47 26,47 27,46 27,45 28,44 28,43 29,42 30,41 31,40 31,39 32,38 32,37 33,37 33,35 33,34 33,33 33,32 33,31 33,30 33,29 33,28 33,27 33,26 33,25 33,24 33,23 33,22 33,21 32,20 32,19 31,18 31,17 31,16" fill="none" stroke="#00ff7f" stroke-width="3" stroke-linecap="round" stroke-linejoin="round" opacity="0.95">
    <title>6312 i:1</title>
  </polyline>
</svg>
