<?xml version="1.0" encoding="UTF-8"?>
<svg xmlns="http://www.w3.org/2000/svg" width="48" height="70" viewBox="0 0 48 70">
  <title>atom 6314 i:1</title>
  <metadata>{&quot;entityType&quot;:&quot;atom&quot;,&quot;entityId&quot;:&quot;6314&quot;,&quot;token&quot;:&quot;i:1&quot;,&quot;signature&quot;:&quot;i:1&quot;,&quot;imageName&quot;:&quot;page-005.jpg&quot;,&quot;imageId&quot;:5,&quot;bounds&quot;:{&quot;x&quot;:1097,&quot;y&quot;:2880,&quot;w&quot;:48,&quot;h&quot;:70},&quot;atoms&quot;:[{&quot;id&quot;:6314,&quot;token&quot;:&quot;i:1&quot;,&quot;particle_id&quot;:&quot;img5-m100-p3&quot;,&quot;molecule_id&quot;:&quot;img5-m100&quot;,&quot;atom_order&quot;:3}]}</metadata>
  <rect x="0" y="0" width="48" height="70" fill="#f8f0d8"/>
  <image href="file:///C:/Users/HHHES/AppData/Roaming/com.voynichlab.datasetcreator/images/1/a6cd3b6e-2a78-4b30-a4be-5d186aea258e.jpg" x="-1097" y="-2880" width="2691" height="3770" opacity="0.92"/>
  <rect x="0.5" y="0.5" width="47" height="69" fill="none" stroke="#111827" stroke-width="1" opacity="0.35"/>
  <polyline points="16,54 17,54 18,54 19,53 20,53 21,53 21,52 22,52 23,51 24,51 24,50 25,50 25,49 26,49 26,48 27,48 28,47 28,46 29,46 29,45 30,45 30,44 30,43 30,42 30,41 31,40 31,39 31,38 32,37 32,36 32,35 32,34 32,33 32,32 32,31 32,30 32,29 32,28 31,27 31,26 31,25 30,24 30,23 29,22 29,21 28,20 28,19 27,18 26,17 26,16" fill="none" stroke="#00ff7f" stroke-width="3" stroke-linecap="round" stroke-linejoin="round" opacity="0.95">
    <title>6314 i:1</title>
  </polyline>
</svg>
