<?xml version="1.0" encoding="UTF-8"?>
<svg xmlns="http://www.w3.org/2000/svg" width="44" height="47" viewBox="0 0 44 47">
  <title>atom 6441 i:1</title>
  <metadata>{&quot;entityType&quot;:&quot;atom&quot;,&quot;entityId&quot;:&quot;6441&quot;,&quot;token&quot;:&quot;i:1&quot;,&quot;signature&quot;:&quot;i:1&quot;,&quot;imageName&quot;:&quot;page-005.jpg&quot;,&quot;imageId&quot;:5,&quot;bounds&quot;:{&quot;x&quot;:2028,&quot;y&quot;:2599,&quot;w&quot;:44,&quot;h&quot;:47},&quot;atoms&quot;:[{&quot;id&quot;:6441,&quot;token&quot;:&quot;i:1&quot;,&quot;particle_id&quot;:&quot;img5-m71-p1&quot;,&quot;molecule_id&quot;:&quot;img5-m71&quot;,&quot;atom_order&quot;:2}]}</metadata>
  <rect x="0" y="0" width="44" height="47" fill="#f8f0d8"/>
  <image href="file:///C:/Users/HHHES/AppData/Roaming/com.voynichlab.datasetcreator/images/1/a6cd3b6e-2a78-4b30-a4be-5d186aea258e.jpg" x="-2028" y="-2599" width="2691" height="3770" opacity="0.92"/>
  <rect x="0.5" y="0.5" width="43" height="46" fill="none" stroke="#111827" stroke-width="1" opacity="0.35"/>
  <polyline points="16,31 17,31 18,30 19,30 20,30 20,29 21,29 22,29 22,28 23,28 23,27 24,27 25,26 26,25 26,24 27,24 27,23 27,22 27,21 28,21 28,20 28,19 28,18 28,17 28,16" fill="none" stroke="#00ff7f" stroke-width="3" stroke-linecap="round" stroke-linejoin="round" opacity="0.95">
    <title>6441 i:1</title>
  </polyline>
</svg>
