<?xml version="1.0" encoding="UTF-8"?>
<svg xmlns="http://www.w3.org/2000/svg" width="49" height="47" viewBox="0 0 49 47">
  <title>atom 2100 c:2</title>
  <metadata>{&quot;entityType&quot;:&quot;atom&quot;,&quot;entityId&quot;:&quot;2100&quot;,&quot;token&quot;:&quot;c:2&quot;,&quot;signature&quot;:&quot;c:2&quot;,&quot;imageName&quot;:&quot;page-003.jpg&quot;,&quot;imageId&quot;:3,&quot;bounds&quot;:{&quot;x&quot;:698,&quot;y&quot;:1486,&quot;w&quot;:49,&quot;h&quot;:47},&quot;atoms&quot;:[{&quot;id&quot;:2100,&quot;token&quot;:&quot;c:2&quot;,&quot;particle_id&quot;:&quot;img3-m72-p2&quot;,&quot;molecule_id&quot;:&quot;img3-m72&quot;,&quot;atom_order&quot;:2}]}</metadata>
  <rect x="0" y="0" width="49" height="47" fill="#f8f0d8"/>
  <image href="file:///C:/Users/HHHES/AppData/Roaming/com.voynichlab.datasetcreator/images/1/35a70f63-88ab-4986-b441-b78046a10087.jpg" x="-698" y="-1486" width="2972" height="3766" opacity="0.92"/>
  <rect x="0.5" y="0.5" width="48" height="46" fill="none" stroke="#111827" stroke-width="1" opacity="0.35"/>
  <polyline points="18,21 18,22 17,22 17,23 17,23 16,23 16,24 16,24 16,24 16,25 16,26 16,26 16,27 17,27 17,28 18,28 18,29 19,30 20,30 21,30 22,30 22,31 23,31 23,31 23,31 24,31 25,31 25,31 26,31 27,31 27,30 28,30 29,30 29,29 29,28 30,28 30,27 31,27 31,26 31,26 32,26 32,25 32,24 33,24 33,24 33,24 33,23 33,23 33,22 33,21 32,21 32,20 32,19 31,19 31,18 30,18 30,17 29,17 29,17 28,17 27,17 27,16 26,16 25,16 25,16 24,16 23,16 23,16 23,16 22,17 21,17 21,17 20,17 20,18 19,18 18,18 18,19 17,19 17,20 17,21" fill="none" stroke="#8aff00" stroke-width="3" stroke-linecap="round" stroke-linejoin="round" opacity="0.95">
    <title>2100 c:2</title>
  </polyline>
</svg>
