<?xml version="1.0" encoding="UTF-8"?>
<svg xmlns="http://www.w3.org/2000/svg" width="54" height="54" viewBox="0 0 54 54">
  <title>atom 2293 c:2</title>
  <metadata>{&quot;entityType&quot;:&quot;atom&quot;,&quot;entityId&quot;:&quot;2293&quot;,&quot;token&quot;:&quot;c:2&quot;,&quot;signature&quot;:&quot;c:2&quot;,&quot;imageName&quot;:&quot;page-003.jpg&quot;,&quot;imageId&quot;:3,&quot;bounds&quot;:{&quot;x&quot;:1804,&quot;y&quot;:1567,&quot;w&quot;:54,&quot;h&quot;:54},&quot;atoms&quot;:[{&quot;id&quot;:2293,&quot;token&quot;:&quot;c:2&quot;,&quot;particle_id&quot;:&quot;img3-m78-p4&quot;,&quot;molecule_id&quot;:&quot;img3-m78&quot;,&quot;atom_order&quot;:2}]}</metadata>
  <rect x="0" y="0" width="54" height="54" fill="#f8f0d8"/>
  <image href="file:///C:/Users/HHHES/AppData/Roaming/com.voynichlab.datasetcreator/images/1/35a70f63-88ab-4986-b441-b78046a10087.jpg" x="-1804" y="-1567" width="2972" height="3766" opacity="0.92"/>
  <rect x="0.5" y="0.5" width="53" height="53" fill="none" stroke="#111827" stroke-width="1" opacity="0.35"/>
  <polyline points="22,38 22,38 24,38 25,38 26,38 26,37 27,37 28,37 29,37 29,36 30,36 31,36 31,34 32,34 32,33 32,33 32,32 34,32 34,31 35,31 36,30 36,30 36,29 37,29 37,28 37,27 38,27 38,26 38,25 38,25 38,24 38,23 37,23 37,21 37,20 36,20 36,19 36,19 35,19 35,18 34,18 32,18 32,17 32,17 31,17 31,16 30,16 29,16 28,16 27,16 27,17 26,17 25,17 25,18 24,18 22,18 22,19 21,19 21,19 20,19 20,20 19,20 19,21 18,21 18,23 17,23 17,24 17,25 16,25 16,25 16,26 16,27 16,28 16,29 16,30 16,30 16,31 17,31 17,32 18,32 18,33 19,33 19,34 20,34 20,36 20,37 21,37 21,37 22,37 22,38 24,38" fill="none" stroke="#8aff00" stroke-width="3" stroke-linecap="round" stroke-linejoin="round" opacity="0.95">
    <title>2293 c:2</title>
  </polyline>
</svg>
