<?xml version="1.0" encoding="UTF-8"?>
<svg xmlns="http://www.w3.org/2000/svg" width="48" height="46" viewBox="0 0 48 46">
  <title>atom 2461 c:2</title>
  <metadata>{&quot;entityType&quot;:&quot;atom&quot;,&quot;entityId&quot;:&quot;2461&quot;,&quot;token&quot;:&quot;c:2&quot;,&quot;signature&quot;:&quot;c:2&quot;,&quot;imageName&quot;:&quot;page-003.jpg&quot;,&quot;imageId&quot;:3,&quot;bounds&quot;:{&quot;x&quot;:2345,&quot;y&quot;:1653,&quot;w&quot;:48,&quot;h&quot;:46},&quot;atoms&quot;:[{&quot;id&quot;:2461,&quot;token&quot;:&quot;c:2&quot;,&quot;particle_id&quot;:&quot;img3-m87-p6&quot;,&quot;molecule_id&quot;:&quot;img3-m87&quot;,&quot;atom_order&quot;:2}]}</metadata>
  <rect x="0" y="0" width="48" height="46" fill="#f8f0d8"/>
  <image href="file:///C:/Users/HHHES/AppData/Roaming/com.voynichlab.datasetcreator/images/1/35a70f63-88ab-4986-b441-b78046a10087.jpg" x="-2345" y="-1653" width="2972" height="3766" opacity="0.92"/>
  <rect x="0.5" y="0.5" width="47" height="45" fill="none" stroke="#111827" stroke-width="1" opacity="0.35"/>
  <polyline points="20,30 21,30 22,30 23,30 23,29 24,29 25,29 25,28 26,28 27,28 27,27 28,26 28,26 29,26 29,25 30,25 30,25 31,24 31,23 31,23 32,23 32,22 32,21 32,20 32,19 31,19 31,18 31,18 30,18 30,17 29,17 28,17 27,17 26,17 26,16 25,16 24,16 23,16 22,16 21,16 20,16 20,17 19,17 18,17 18,18 17,18 17,18 16,18 16,19 16,20 16,21 16,22 16,23 16,23 16,24 16,25 16,25 17,25 17,26 17,26 18,26 18,27 18,28 19,28 19,29 20,29 20,30" fill="none" stroke="#8aff00" stroke-width="3" stroke-linecap="round" stroke-linejoin="round" opacity="0.95">
    <title>2461 c:2</title>
  </polyline>
</svg>
