<?xml version="1.0" encoding="UTF-8"?>
<svg xmlns="http://www.w3.org/2000/svg" width="51" height="48" viewBox="0 0 51 48">
  <title>atom 2553 c:2</title>
  <metadata>{&quot;entityType&quot;:&quot;atom&quot;,&quot;entityId&quot;:&quot;2553&quot;,&quot;token&quot;:&quot;c:2&quot;,&quot;signature&quot;:&quot;c:2&quot;,&quot;imageName&quot;:&quot;page-003.jpg&quot;,&quot;imageId&quot;:3,&quot;bounds&quot;:{&quot;x&quot;:1378,&quot;y&quot;:1741,&quot;w&quot;:51,&quot;h&quot;:48},&quot;atoms&quot;:[{&quot;id&quot;:2553,&quot;token&quot;:&quot;c:2&quot;,&quot;particle_id&quot;:&quot;img3-m96-p3&quot;,&quot;molecule_id&quot;:&quot;img3-m96&quot;,&quot;atom_order&quot;:2}]}</metadata>
  <rect x="0" y="0" width="51" height="48" fill="#f8f0d8"/>
  <image href="file:///C:/Users/HHHES/AppData/Roaming/com.voynichlab.datasetcreator/images/1/35a70f63-88ab-4986-b441-b78046a10087.jpg" x="-1378" y="-1741" width="2972" height="3766" opacity="0.92"/>
  <rect x="0.5" y="0.5" width="50" height="47" fill="none" stroke="#111827" stroke-width="1" opacity="0.35"/>
  <polyline points="17,19 18,19 19,19 19,18 20,18 22,18 22,17 22,17 23,17 24,17 25,17 26,17 26,16 27,16 28,16 29,16 29,17 31,17 32,17 33,17 33,18 33,18 33,19 34,19 34,21 35,21 35,22 35,23 35,24 35,25 35,26 34,26 34,27 34,27 33,27 33,29 33,29 33,30 32,30 31,30 31,31 29,31 28,31 28,32 27,32 26,32 25,32 24,32 23,32 22,32 22,32 20,31 19,31 19,30 18,30 18,29 18,27 17,27 17,27 17,26 17,25 16,25 16,24 16,23 16,22 16,21 17,21 17,19 18,19" fill="none" stroke="#8aff00" stroke-width="3" stroke-linecap="round" stroke-linejoin="round" opacity="0.95">
    <title>2553 c:2</title>
  </polyline>
</svg>
