<?xml version="1.0" encoding="UTF-8"?>
<svg xmlns="http://www.w3.org/2000/svg" width="45" height="50" viewBox="0 0 45 50">
  <title>atom 4099 c:2</title>
  <metadata>{&quot;entityType&quot;:&quot;atom&quot;,&quot;entityId&quot;:&quot;4099&quot;,&quot;token&quot;:&quot;c:2&quot;,&quot;signature&quot;:&quot;c:2&quot;,&quot;imageName&quot;:&quot;page-003.jpg&quot;,&quot;imageId&quot;:3,&quot;bounds&quot;:{&quot;x&quot;:2009,&quot;y&quot;:3005,&quot;w&quot;:45,&quot;h&quot;:50},&quot;atoms&quot;:[{&quot;id&quot;:4099,&quot;token&quot;:&quot;c:2&quot;,&quot;particle_id&quot;:&quot;img3-m196-p2&quot;,&quot;molecule_id&quot;:&quot;img3-m196&quot;,&quot;atom_order&quot;:1}]}</metadata>
  <rect x="0" y="0" width="45" height="50" fill="#f8f0d8"/>
  <image href="file:///C:/Users/HHHES/AppData/Roaming/com.voynichlab.datasetcreator/images/1/35a70f63-88ab-4986-b441-b78046a10087.jpg" x="-2009" y="-3005" width="2972" height="3766" opacity="0.92"/>
  <rect x="0.5" y="0.5" width="44" height="49" fill="none" stroke="#111827" stroke-width="1" opacity="0.35"/>
  <polyline points="21,16 21,17 20,17 20,18 20,19 19,19 19,20 19,21 19,22 18,22 18,23 18,24 17,24 17,25 17,26 17,27 16,27 16,28 16,29 16,30 16,31 16,32 17,32 17,33 18,33 18,34 19,34 20,34 21,34 22,34 23,34 24,34 25,34 25,33 26,33 26,32 27,32 27,31 28,31 28,30 28,29 29,29 29,28 29,27 29,26 28,25 28,24 28,23 28,22 27,22 27,21 26,21 26,20 26,19 25,19 25,18 24,18 24,17 23,17 22,17 21,17 21,18 20,18 20,19 20,20 19,20 19,21 19,22 18,22 18,23 18,24 17,24 17,25 17,26 17,27 17,28 17,29 17,30 17,31 18,31 18,32 19,32 20,32 21,32 22,32 23,32 24,32 25,32 25,31 26,31 26,30 26,29 27,28 27,27 27,26 27,25 26,25 26,24 26,23 26,22 25,22 25,21 25,20 24,20 24,19 23,19 23,18 22,18 21,18 21,19 21,20 20,20 20,21 20,22 20,23 19,23 19,24 19,25 19,26 18,26 18,27 18,28 18,29 18,30 19,30 19,31 19,32 19,33 20,33 21,33 22,33 23,33 23,32 24,32 25,32 26,32 26,31 26,30 27,30 27,29 28,29 28,28 28,27 28,26 28,25 27,25 27,24 27,23 26,23 26,22 26,21 25,21 25,20 24,20 23,20 22,20 21,20 20,21 21,21 22,21 23,21 23,20 22,20 21,20 21,21 21,22 20,23 20,24 21,24 22,24 22,23 22,22 21,22 21,23 20,23 19,24 19,25 19,26 20,26 21,26 22,26 22,25 23,25 23,24 22,24 22,25 21,25 21,26 21,27 21,28 22,28 22,27 22,26 22,25 21,25 20,26 19,27 19,28 19,29 20,29 21,29 22,29 22,28 22,27 22,26 21,26 20,27 19,28 19,29 19,30 18,30 18,31 19,31 20,30 21,29 22,29 22,28 22,27 22,26 22,25 22,24 21,24 20,24 19,25 19,26 19,27 19,29 20,30 21,30 22,30 23,29 23,28 23,27 23,26 22,26 21,27 21,28 21,29 21,30 22,30 23,29 24,29 24,28 24,27 23,27 23,28 23,29 23,30 23,31 24,31 23,30 22,30 21,30 21,31 21,32 21,33 22,33 23,33 23,32 24,32 25,32 25,31 25,30 24,30 23,30 22,30 22,31 23,31 24,31 24,30 25,30 25,29 25,28 24,28 23,29 22,30 22,31 21,31 22,31 23,31 23,30 24,30 24,29 25,28 25,27 24,27 24,26 23,26 23,27 23,28 24,28 25,28 25,27 25,26 25,25 24,25 24,26 24,27 24,28 25,28 26,28 26,27 27,27 27,26 27,25 26,25 25,25 24,25 24,26 24,27 24,28 24,29 25,29 25,28 26,28 26,27 26,26 26,25 25,24 24,23 24,24 23,25 23,26 24,26 25,25 25,24 25,23 24,23 24,22 23,22 22,23 23,23 23,22 23,21 22,21 21,21 21,22 21,23 21,24 22,24 23,24 24,24 24,23 24,22 24,21 23,21 22,21 22,22 22,23 23,23 24,23 24,22 25,22 25,21 25,20 24,20 23,21 22,22 21,23 21,24 21,25 22,24 22,23 21,23 20,23 20,24 19,24 20,24 19,24 18,24 17,24 17,25 17,26 18,26 18,25 19,25 19,24 18,24 18,25 17,25 17,26 18,26 18,25 17,25 17,26 17,27 17,28 17,29 17,30 18,30 19,30 20,30 21,30 21,29 20,29 20,30 20,31 20,32 20,33 21,33 22,33 23,32 24,32 24,31 24,32 24,33" fill="none" stroke="#8aff00" stroke-width="3" stroke-linecap="round" stroke-linejoin="round" opacity="0.95">
    <title>4099 c:2</title>
  </polyline>
</svg>
