<?xml version="1.0" encoding="UTF-8"?>
<svg xmlns="http://www.w3.org/2000/svg" width="53" height="51" viewBox="0 0 53 51">
  <title>atom 5515 c:2</title>
  <metadata>{&quot;entityType&quot;:&quot;atom&quot;,&quot;entityId&quot;:&quot;5515&quot;,&quot;token&quot;:&quot;c:2&quot;,&quot;signature&quot;:&quot;c:2&quot;,&quot;imageName&quot;:&quot;page-003.jpg&quot;,&quot;imageId&quot;:3,&quot;bounds&quot;:{&quot;x&quot;:1498,&quot;y&quot;:2177,&quot;w&quot;:53,&quot;h&quot;:51},&quot;atoms&quot;:[{&quot;id&quot;:5515,&quot;token&quot;:&quot;c:2&quot;,&quot;particle_id&quot;:&quot;img3-m136-p2&quot;,&quot;molecule_id&quot;:&quot;img3-m136&quot;,&quot;atom_order&quot;:1}]}</metadata>
  <rect x="0" y="0" width="53" height="51" fill="#f8f0d8"/>
  <image href="file:///C:/Users/HHHES/AppData/Roaming/com.voynichlab.datasetcreator/images/1/35a70f63-88ab-4986-b441-b78046a10087.jpg" x="-1498" y="-2177" width="2972" height="3766" opacity="0.92"/>
  <rect x="0.5" y="0.5" width="52" height="50" fill="none" stroke="#111827" stroke-width="1" opacity="0.35"/>
  <polyline points="33,16 32,16 31,16 30,16 29,16 28,16 28,17 27,17 26,17 26,18 25,18 24,19 23,19 23,20 22,20 22,21 21,21 21,22 21,23 21,24 20,25 20,26 20,27 20,28 20,29 21,29 21,30 21,31 22,32 23,33 24,33 24,34 25,34 26,34 26,35 27,35 28,35 29,35 30,35 31,35 31,34 32,34 33,34 33,33 34,33 34,32 35,32 35,31 36,31 36,30 36,29 36,28 37,28 37,27 37,26 36,25 36,24 36,23 35,23 35,22 35,21 34,21 34,20 33,20 33,19 33,18 32,18 31,18 31,17 30,17 29,17 28,17 27,17 26,17 25,18 24,18 24,19 23,19 23,20 23,21 22,21 22,22 22,23 21,24 21,25 21,26 21,27 21,28 21,29 21,30 22,30 22,31 23,31 23,32 24,32 25,32 26,33 27,33 28,33 29,33 30,33 31,33 32,33 32,32 33,32 33,31 34,31 34,30 35,29 35,28 35,27 35,26 36,26 36,25 36,24 36,23 36,22 36,21 35,21 35,20 34,19 34,18 33,18 32,17 31,17 30,17 29,17 29,18 28,18 27,18 27,19 26,19 26,20 25,20 25,21 24,21 24,22 24,23 24,24 24,25 23,25 23,26 23,27 23,28 23,29 23,30 23,31 24,31 24,32 25,32 25,33 26,33 27,33 28,33 29,33 30,33 31,32 32,32 32,31 33,31 33,30 34,30 34,29 35,28 35,27 35,26 35,25 35,24 36,24 36,23 36,22 36,21 36,20 36,19 35,18 34,18 34,17 33,17 32,17 31,17 30,17 30,18 29,18 28,19 27,20 26,21 26,22 25,23 25,24 25,25 25,26 25,27 25,28 25,29 25,30 26,30 26,31 27,31 28,31 29,31 30,31 31,31 31,30 32,30 32,29 33,29 33,28 34,28 34,27 35,26 35,25 36,25 36,24 36,23 37,23 37,22 37,21 37,20 37,19 36,19 36,18 35,18 34,18 33,18 33,17 32,17 31,18 30,19 30,20 29,20 29,21 28,22 28,23 28,24 28,25 28,26 28,27 28,28 29,28 29,29 30,30 31,30 32,30 33,30 33,29 34,29 34,28 35,28 35,27 35,26 36,25 36,24 36,23 35,22 34,21 33,21 32,21 31,21 30,21 30,22 29,22 29,23 28,25 28,26 28,27 28,28 29,29 30,29 30,30 31,30 32,30 33,30 33,29 34,29 34,28 35,27 35,26 34,25 33,25 33,24 32,24 30,24 29,24 28,24 27,25 26,26 25,28 25,29 26,30 27,30 28,31 29,31 30,31 31,31 32,30 33,29 33,28 33,27 32,27 31,27 30,27 29,27 28,28 27,28 27,29 26,30 26,31 27,32 28,32 29,32 30,32 30,31 31,31 31,30 30,30 29,30 29,31 28,32 28,33 29,34 30,34 31,34 32,34 32,33 33,33 33,32 32,31 31,31 29,30 27,30 25,31 24,31 24,32 25,33 26,33 27,33 29,33 30,33 30,32 31,32 30,32 29,32 28,32 27,32 26,32 25,32 24,32 25,32 26,32 27,32 28,31 30,31 31,31 30,31 29,31 27,30 26,30 25,30 24,30 25,30 26,30 27,29 29,29 30,29 29,29 28,29 25,29 24,29 23,29 21,29 22,29 24,29 25,29 26,29 29,29 30,29 31,28 32,28 31,28 29,28 27,28 26,28 25,28 23,28 25,28 26,28 29,27 30,27 32,27 33,27 32,27 29,27 25,27 20,27 17,27 16,27 17,27 19,27 22,27 24,27 25,27 26,26 27,26 28,26 29,26 30,26 30,25 31,25 32,25 33,25 32,25 31,25 30,25 30,26 27,26 25,26 24,26 22,26 23,26 25,26 26,26 28,26 30,26 31,26 32,26 33,25 34,25 33,25 33,24 32,24 30,24 28,24 26,24 25,24 25,25 25,26 26,27 27,27 27,28 28,28 30,28 31,28 32,28 33,27 34,27 34,26 34,25 34,23 33,22 32,22 31,22 30,23 28,24 27,25 27,26 28,27 29,27 30,27 32,27 33,26 34,25 34,24 34,22 33,21 32,20 31,19 29,19 28,19 28,20 27,21 26,22 25,24 25,25 25,26 26,26 27,27 29,27 31,27 33,26 35,25 35,24 36,23 36,22 35,21 34,20 33,20 32,20 30,20 28,21 27,22 26,24 26,25 26,26 26,27 27,27 28,27 30,27 32,27 32,26 33,25 34,24 33,23 32,22 32,21 30,21 28,20 26,21 25,21 24,22 24,23 24,24 24,25 25,26 26,27 28,28 29,28 30,28 31,28 31,27 32,26 32,25 31,23 30,22 28,21 27,21 26,21 24,22 24,23 23,25 23,26 23,28 24,28 24,29 25,29 25,28 26,28 27,26 27,25 27,23 26,22 25,22 24,22 24,23 23,25 23,26 23,27 23,28 24,28 25,28 26,27 28,27 29,26 30,25 30,24 30,23 29,22 27,21 26,21 24,21 23,21 23,23 23,24 23,25 23,26 24,27 24,28 25,29 26,29 27,29 28,29 28,28 28,27 28,26 28,25 28,24 27,24 26,24 25,23 25,24 24,24 24,25 24,26 24,27" fill="none" stroke="#8aff00" stroke-width="3" stroke-linecap="round" stroke-linejoin="round" opacity="0.95">
    <title>5515 c:2</title>
  </polyline>
</svg>
