<?xml version="1.0" encoding="UTF-8"?>
<svg xmlns="http://www.w3.org/2000/svg" width="77" height="50" viewBox="0 0 77 50">
  <title>atom 1174 k:1</title>
  <metadata>{&quot;entityType&quot;:&quot;atom&quot;,&quot;entityId&quot;:&quot;1174&quot;,&quot;token&quot;:&quot;k:1&quot;,&quot;signature&quot;:&quot;k:1&quot;,&quot;imageName&quot;:&quot;page-003.jpg&quot;,&quot;imageId&quot;:3,&quot;bounds&quot;:{&quot;x&quot;:1160,&quot;y&quot;:609,&quot;w&quot;:77,&quot;h&quot;:50},&quot;atoms&quot;:[{&quot;id&quot;:1174,&quot;token&quot;:&quot;k:1&quot;,&quot;particle_id&quot;:&quot;img3-m12-p2&quot;,&quot;molecule_id&quot;:&quot;img3-m12&quot;,&quot;atom_order&quot;:2}]}</metadata>
  <rect x="0" y="0" width="77" height="50" fill="#f8f0d8"/>
  <image href="file:///C:/Users/HHHES/AppData/Roaming/com.voynichlab.datasetcreator/images/1/35a70f63-88ab-4986-b441-b78046a10087.jpg" x="-1160" y="-609" width="2972" height="3766" opacity="0.92"/>
  <rect x="0.5" y="0.5" width="76" height="49" fill="none" stroke="#111827" stroke-width="1" opacity="0.35"/>
  <polyline points="16,16 16,17 17,17 17,18 17,19 18,19 18,20 18,21 19,21 19,22 19,23 20,23 20,24 20,25 20,26 21,26 21,27 21,28 22,28 22,29 22,30 23,30 23,31 24,32 24,33 25,33 25,34 26,34 26,33 27,33 27,32 27,31 28,31 28,30 29,30 29,29 30,29 31,28 32,28 32,27 33,27 33,26 34,26 34,25 35,25 35,24 36,24 36,23 37,23 37,22 38,22 38,21 39,21 39,20 39,19 39,20 39,21 39,22 39,23 40,23 40,24 40,25 40,26 40,27 41,27 41,28 41,29 42,29 42,30 43,30 43,31 43,32 44,32 44,33 45,33 45,34 46,34 46,33 47,33 47,32 47,31 48,31 48,30 49,30 50,30 50,29 51,29 51,28 52,28 52,27 53,27 54,27 54,26 55,25 56,25 56,24 57,24 58,23 59,22 60,22 61,21" fill="none" stroke="#ffffff" stroke-width="3" stroke-linecap="round" stroke-linejoin="round" opacity="0.95">
    <title>1174 k:1</title>
  </polyline>
</svg>
