<?xml version="1.0" encoding="UTF-8"?>
<svg xmlns="http://www.w3.org/2000/svg" width="79" height="55" viewBox="0 0 79 55">
  <title>atom 1376 k:1</title>
  <metadata>{&quot;entityType&quot;:&quot;atom&quot;,&quot;entityId&quot;:&quot;1376&quot;,&quot;token&quot;:&quot;k:1&quot;,&quot;signature&quot;:&quot;k:1&quot;,&quot;imageName&quot;:&quot;page-003.jpg&quot;,&quot;imageId&quot;:3,&quot;bounds&quot;:{&quot;x&quot;:1228,&quot;y&quot;:697,&quot;w&quot;:79,&quot;h&quot;:55},&quot;atoms&quot;:[{&quot;id&quot;:1376,&quot;token&quot;:&quot;k:1&quot;,&quot;particle_id&quot;:&quot;img3-m26-p4&quot;,&quot;molecule_id&quot;:&quot;img3-m26&quot;,&quot;atom_order&quot;:1}]}</metadata>
  <rect x="0" y="0" width="79" height="55" fill="#f8f0d8"/>
  <image href="file:///C:/Users/HHHES/AppData/Roaming/com.voynichlab.datasetcreator/images/1/35a70f63-88ab-4986-b441-b78046a10087.jpg" x="-1228" y="-697" width="2972" height="3766" opacity="0.92"/>
  <rect x="0.5" y="0.5" width="78" height="54" fill="none" stroke="#111827" stroke-width="1" opacity="0.35"/>
  <polyline points="16,16 16,17 17,17 17,18 17,19 18,19 18,20 18,21 19,21 19,22 19,23 20,23 20,24 20,25 21,25 21,26 21,27 21,28 22,28 22,29 22,30 22,31 23,31 23,32 23,33 24,33 24,34 24,35 25,35 25,34 26,34 27,33 28,32 29,31 30,31 30,30 31,30 31,29 32,29 32,28 33,28 33,27 34,27 34,26 35,26 35,25 36,25 36,24 37,23 37,22 38,22 38,21 39,21 39,20 39,19 39,20 39,21 40,21 40,22 40,23 41,23 41,24 41,25 41,26 42,26 42,27 42,28 42,29 43,29 43,30 43,31 44,31 44,32 44,33 44,34 45,34 45,35 45,36 45,37 46,37 46,38 46,39 46,38 47,38 47,37 48,37 48,36 49,36 49,35 50,35 50,34 51,34 52,34 52,33 53,33 53,32 54,32 54,31 55,31 56,30 56,29 57,29 57,28 58,28 59,27 59,26 60,26 60,25 61,25 62,25 62,24 62,23 63,23" fill="none" stroke="#ffffff" stroke-width="3" stroke-linecap="round" stroke-linejoin="round" opacity="0.95">
    <title>1376 k:1</title>
  </polyline>
</svg>
