<?xml version="1.0" encoding="UTF-8"?>
<svg xmlns="http://www.w3.org/2000/svg" width="85" height="52" viewBox="0 0 85 52">
  <title>atom 1570 k:1</title>
  <metadata>{&quot;entityType&quot;:&quot;atom&quot;,&quot;entityId&quot;:&quot;1570&quot;,&quot;token&quot;:&quot;k:1&quot;,&quot;signature&quot;:&quot;k:1&quot;,&quot;imageName&quot;:&quot;page-003.jpg&quot;,&quot;imageId&quot;:3,&quot;bounds&quot;:{&quot;x&quot;:1771,&quot;y&quot;:787,&quot;w&quot;:85,&quot;h&quot;:52},&quot;atoms&quot;:[{&quot;id&quot;:1570,&quot;token&quot;:&quot;k:1&quot;,&quot;particle_id&quot;:&quot;img3-m30-p3&quot;,&quot;molecule_id&quot;:&quot;img3-m30&quot;,&quot;atom_order&quot;:1}]}</metadata>
  <rect x="0" y="0" width="85" height="52" fill="#f8f0d8"/>
  <image href="file:///C:/Users/HHHES/AppData/Roaming/com.voynichlab.datasetcreator/images/1/35a70f63-88ab-4986-b441-b78046a10087.jpg" x="-1771" y="-787" width="2972" height="3766" opacity="0.92"/>
  <rect x="0.5" y="0.5" width="84" height="51" fill="none" stroke="#111827" stroke-width="1" opacity="0.35"/>
  <polyline points="16,16 16,17 17,17 17,18 18,18 18,19 18,20 19,20 19,21 19,22 20,22 20,23 20,24 21,24 21,25 22,26 22,27 22,28 23,28 23,29 24,30 24,31 25,32 25,33 26,33 26,34 26,35 27,35 27,36 27,35 28,35 28,34 28,33 29,33 29,32 30,32 30,31 31,31 31,30 32,30 32,29 33,29 33,28 34,28 34,27 35,27 35,26 36,25 37,25 37,24 37,23 38,23 38,22 39,22 39,21 40,21 40,20 41,20 41,19 42,19 42,18 43,19 43,20 43,21 44,21 44,22 45,22 45,23 46,23 46,24 47,24 47,25 48,25 48,26 48,27 49,27 49,28 50,28 50,29 51,29 51,30 51,31 52,31 52,32 52,33 53,33 53,34 54,34 55,34 55,33 56,33 56,32 56,31 57,31 58,31 58,30 58,29 59,29 60,29 60,28 61,28 61,27 62,27 62,26 63,26 63,25 64,25 64,24 65,24 65,23 66,23 66,22 67,22 68,21 68,20 69,20" fill="none" stroke="#ffffff" stroke-width="3" stroke-linecap="round" stroke-linejoin="round" opacity="0.95">
    <title>1570 k:1</title>
  </polyline>
</svg>
