<?xml version="1.0" encoding="UTF-8"?>
<svg xmlns="http://www.w3.org/2000/svg" width="86" height="56" viewBox="0 0 86 56">
  <title>atom 1653 k:1</title>
  <metadata>{&quot;entityType&quot;:&quot;atom&quot;,&quot;entityId&quot;:&quot;1653&quot;,&quot;token&quot;:&quot;k:1&quot;,&quot;signature&quot;:&quot;k:1&quot;,&quot;imageName&quot;:&quot;page-003.jpg&quot;,&quot;imageId&quot;:3,&quot;bounds&quot;:{&quot;x&quot;:1109,&quot;y&quot;:874,&quot;w&quot;:86,&quot;h&quot;:56},&quot;atoms&quot;:[{&quot;id&quot;:1653,&quot;token&quot;:&quot;k:1&quot;,&quot;particle_id&quot;:&quot;img3-m38-p3&quot;,&quot;molecule_id&quot;:&quot;img3-m38&quot;,&quot;atom_order&quot;:1}]}</metadata>
  <rect x="0" y="0" width="86" height="56" fill="#f8f0d8"/>
  <image href="file:///C:/Users/HHHES/AppData/Roaming/com.voynichlab.datasetcreator/images/1/35a70f63-88ab-4986-b441-b78046a10087.jpg" x="-1109" y="-874" width="2972" height="3766" opacity="0.92"/>
  <rect x="0.5" y="0.5" width="85" height="55" fill="none" stroke="#111827" stroke-width="1" opacity="0.35"/>
  <polyline points="16,16 16,18 17,18 17,19 18,20 18,21 19,21 19,22 19,23 20,23 20,24 20,25 21,25 21,26 22,27 22,28 23,28 23,29 23,30 24,30 24,31 25,32 25,33 26,33 26,34 26,35 27,35 27,36 28,36 28,37 29,37 30,37 31,37 32,36 33,36 33,35 34,35 34,34 35,34 35,33 36,33 36,32 37,32 37,31 38,31 38,30 39,30 39,29 40,29 40,28 41,28 41,27 42,27 42,26 43,26 43,27 43,28 43,29 44,29 44,30 45,31 45,32 46,32 46,33 46,34 47,34 47,35 48,35 48,36 49,36 49,37 50,37 50,38 51,38 51,39 52,39 52,40 53,40 54,40 55,40 55,39 56,39 57,39 57,38 58,38 58,37 59,37 60,37 60,36 61,36 61,35 62,35 62,34 63,33 63,32 64,31 65,30 65,29 66,29 66,28 67,28 67,27 68,27 68,26 69,26 69,25 70,24" fill="none" stroke="#ffffff" stroke-width="3" stroke-linecap="round" stroke-linejoin="round" opacity="0.95">
    <title>1653 k:1</title>
  </polyline>
</svg>
