<?xml version="1.0" encoding="UTF-8"?>
<svg xmlns="http://www.w3.org/2000/svg" width="75" height="49" viewBox="0 0 75 49">
  <title>atom 2008 k:1</title>
  <metadata>{&quot;entityType&quot;:&quot;atom&quot;,&quot;entityId&quot;:&quot;2008&quot;,&quot;token&quot;:&quot;k:1&quot;,&quot;signature&quot;:&quot;k:1&quot;,&quot;imageName&quot;:&quot;page-003.jpg&quot;,&quot;imageId&quot;:3,&quot;bounds&quot;:{&quot;x&quot;:616,&quot;y&quot;:1266,&quot;w&quot;:75,&quot;h&quot;:49},&quot;atoms&quot;:[{&quot;id&quot;:2008,&quot;token&quot;:&quot;k:1&quot;,&quot;particle_id&quot;:&quot;img3-m63-p3&quot;,&quot;molecule_id&quot;:&quot;img3-m63&quot;,&quot;atom_order&quot;:1}]}</metadata>
  <rect x="0" y="0" width="75" height="49" fill="#f8f0d8"/>
  <image href="file:///C:/Users/HHHES/AppData/Roaming/com.voynichlab.datasetcreator/images/1/35a70f63-88ab-4986-b441-b78046a10087.jpg" x="-616" y="-1266" width="2972" height="3766" opacity="0.92"/>
  <rect x="0.5" y="0.5" width="74" height="48" fill="none" stroke="#111827" stroke-width="1" opacity="0.35"/>
  <polyline points="16,16 16,17 16,18 16,19 17,19 17,20 17,21 18,21 18,22 19,23 19,24 20,24 20,25 20,26 21,26 21,27 21,28 22,28 22,29 23,29 23,30 23,31 24,31 24,32 25,33 26,33 26,32 27,32 27,31 28,31 28,30 29,29 29,28 30,28 30,27 31,27 31,26 32,26 32,25 33,24 33,23 34,23 35,23 35,22 36,21 36,20 37,20 37,19 37,20 37,21 38,21 38,22 39,22 39,23 40,24 41,24 41,25 42,26 43,26 43,27 44,27 44,28 45,28 45,29 46,29 46,30 47,30 47,31 48,31 48,32 49,32 49,31 50,31 50,30 50,29 51,29 51,28 52,28 52,27 52,26 53,26 53,25 54,25 54,24 55,24 55,23 56,23 56,22 57,22 57,21 57,20 58,20 58,19 59,19" fill="none" stroke="#ffffff" stroke-width="3" stroke-linecap="round" stroke-linejoin="round" opacity="0.95">
    <title>2008 k:1</title>
  </polyline>
</svg>
