<?xml version="1.0" encoding="UTF-8"?>
<svg xmlns="http://www.w3.org/2000/svg" width="79" height="52" viewBox="0 0 79 52">
  <title>atom 2327 k:1</title>
  <metadata>{&quot;entityType&quot;:&quot;atom&quot;,&quot;entityId&quot;:&quot;2327&quot;,&quot;token&quot;:&quot;k:1&quot;,&quot;signature&quot;:&quot;k:1&quot;,&quot;imageName&quot;:&quot;page-003.jpg&quot;,&quot;imageId&quot;:3,&quot;bounds&quot;:{&quot;x&quot;:2266,&quot;y&quot;:1587,&quot;w&quot;:79,&quot;h&quot;:52},&quot;atoms&quot;:[{&quot;id&quot;:2327,&quot;token&quot;:&quot;k:1&quot;,&quot;particle_id&quot;:&quot;img3-m74-p3&quot;,&quot;molecule_id&quot;:&quot;img3-m74&quot;,&quot;atom_order&quot;:1}]}</metadata>
  <rect x="0" y="0" width="79" height="52" fill="#f8f0d8"/>
  <image href="file:///C:/Users/HHHES/AppData/Roaming/com.voynichlab.datasetcreator/images/1/35a70f63-88ab-4986-b441-b78046a10087.jpg" x="-2266" y="-1587" width="2972" height="3766" opacity="0.92"/>
  <rect x="0.5" y="0.5" width="78" height="51" fill="none" stroke="#111827" stroke-width="1" opacity="0.35"/>
  <polyline points="16,22 17,22 17,23 17,24 18,24 18,25 18,26 19,26 19,27 20,27 20,28 20,29 21,29 21,30 22,31 22,32 22,33 23,33 23,34 24,34 24,35 25,35 25,36 26,36 26,35 26,34 27,34 27,33 28,33 28,32 29,31 29,30 30,30 30,29 31,29 31,28 31,27 32,27 32,26 32,25 33,25 33,24 34,24 34,23 34,22 34,21 35,21 35,20 35,19 36,19 36,18 36,17 37,17 37,16 37,17 38,17 38,18 38,19 39,19 39,20 40,21 40,22 41,22 41,23 41,24 42,24 42,25 42,26 43,26 43,27 44,27 44,28 45,28 45,29 46,29 46,30 47,30 47,31 48,31 48,32 49,32 49,33 49,34 50,34 50,33 51,32 52,32 52,31 52,30 53,30 53,29 54,29 54,28 54,27 55,27 55,26 56,26 56,25 57,25 57,24 57,23 58,23 59,22 60,21 61,20 61,19 62,19 62,18 63,18 63,17" fill="none" stroke="#ffffff" stroke-width="3" stroke-linecap="round" stroke-linejoin="round" opacity="0.95">
    <title>2327 k:1</title>
  </polyline>
</svg>
