<?xml version="1.0" encoding="UTF-8"?>
<svg xmlns="http://www.w3.org/2000/svg" width="84" height="50" viewBox="0 0 84 50">
  <title>atom 2374 k:1</title>
  <metadata>{&quot;entityType&quot;:&quot;atom&quot;,&quot;entityId&quot;:&quot;2374&quot;,&quot;token&quot;:&quot;k:1&quot;,&quot;signature&quot;:&quot;k:1&quot;,&quot;imageName&quot;:&quot;page-003.jpg&quot;,&quot;imageId&quot;:3,&quot;bounds&quot;:{&quot;x&quot;:1131,&quot;y&quot;:1683,&quot;w&quot;:84,&quot;h&quot;:50},&quot;atoms&quot;:[{&quot;id&quot;:2374,&quot;token&quot;:&quot;k:1&quot;,&quot;particle_id&quot;:&quot;img3-m81-p5&quot;,&quot;molecule_id&quot;:&quot;img3-m81&quot;,&quot;atom_order&quot;:1}]}</metadata>
  <rect x="0" y="0" width="84" height="50" fill="#f8f0d8"/>
  <image href="file:///C:/Users/HHHES/AppData/Roaming/com.voynichlab.datasetcreator/images/1/35a70f63-88ab-4986-b441-b78046a10087.jpg" x="-1131" y="-1683" width="2972" height="3766" opacity="0.92"/>
  <rect x="0.5" y="0.5" width="83" height="49" fill="none" stroke="#111827" stroke-width="1" opacity="0.35"/>
  <polyline points="16,16 16,17 17,17 17,18 18,18 18,19 19,19 19,20 19,21 20,21 20,22 20,23 21,23 21,24 22,25 22,26 23,26 23,27 23,28 24,28 24,29 24,30 25,30 25,31 26,31 26,32 27,32 28,32 28,31 29,31 29,30 30,30 31,30 31,29 32,29 32,28 33,28 33,27 34,27 34,26 35,25 36,25 36,24 37,24 37,23 38,23 38,22 39,22 39,21 40,21 40,20 41,20 41,19 42,19 42,18 43,18 43,17 43,16 43,17 44,17 44,18 44,19 44,20 44,21 45,21 45,22 45,23 46,23 46,24 46,25 47,25 47,26 47,27 48,27 48,28 48,29 49,30 49,31 50,31 50,32 50,33 51,33 51,34 52,34 52,33 53,33 54,33 54,32 55,32 55,31 56,31 56,30 57,30 57,29 58,29 58,28 59,28 60,27 61,27 61,26 62,26 62,25 63,25 64,25 64,24 65,24 65,23 66,23 66,22 67,22 67,21 68,21 68,20" fill="none" stroke="#ffffff" stroke-width="3" stroke-linecap="round" stroke-linejoin="round" opacity="0.95">
    <title>2374 k:1</title>
  </polyline>
</svg>
