<?xml version="1.0" encoding="UTF-8"?>
<svg xmlns="http://www.w3.org/2000/svg" width="84" height="51" viewBox="0 0 84 51">
  <title>atom 2571 k:1</title>
  <metadata>{&quot;entityType&quot;:&quot;atom&quot;,&quot;entityId&quot;:&quot;2571&quot;,&quot;token&quot;:&quot;k:1&quot;,&quot;signature&quot;:&quot;k:1&quot;,&quot;imageName&quot;:&quot;page-003.jpg&quot;,&quot;imageId&quot;:3,&quot;bounds&quot;:{&quot;x&quot;:1151,&quot;y&quot;:1764,&quot;w&quot;:84,&quot;h&quot;:51},&quot;atoms&quot;:[{&quot;id&quot;:2571,&quot;token&quot;:&quot;k:1&quot;,&quot;particle_id&quot;:&quot;img3-m95-p4&quot;,&quot;molecule_id&quot;:&quot;img3-m95&quot;,&quot;atom_order&quot;:1}]}</metadata>
  <rect x="0" y="0" width="84" height="51" fill="#f8f0d8"/>
  <image href="file:///C:/Users/HHHES/AppData/Roaming/com.voynichlab.datasetcreator/images/1/35a70f63-88ab-4986-b441-b78046a10087.jpg" x="-1151" y="-1764" width="2972" height="3766" opacity="0.92"/>
  <rect x="0.5" y="0.5" width="83" height="50" fill="none" stroke="#111827" stroke-width="1" opacity="0.35"/>
  <polyline points="16,16 16,17 17,17 17,18 17,19 18,19 18,20 18,21 19,21 19,22 19,23 19,24 20,24 20,25 20,26 20,27 20,28 21,28 21,29 21,30 22,30 22,31 22,32 23,32 23,33 24,33 24,34 25,34 26,34 27,34 28,34 29,34 29,33 30,33 30,32 31,32 31,31 32,31 32,30 33,30 33,29 33,28 34,28 34,27 34,26 35,26 35,25 36,25 36,24 36,23 37,23 37,22 38,22 38,21 39,21 39,20 40,19 40,18 41,18 41,17 42,17 42,16 42,17 42,18 42,19 42,20 43,20 43,21 43,22 43,23 44,24 44,25 44,26 45,26 45,27 45,28 46,28 46,29 46,30 47,30 47,31 48,31 48,32 49,32 49,33 50,33 50,34 51,34 52,34 52,35 53,35 54,35 55,35 56,35 56,34 57,34 58,33 59,33 59,32 60,32 60,31 60,30 61,30 61,29 62,29 62,28 62,27 63,27 63,26 64,26 64,25 64,24 65,24 65,23 66,23 66,22 67,21 67,20 68,20 68,19 68,18" fill="none" stroke="#ffffff" stroke-width="3" stroke-linecap="round" stroke-linejoin="round" opacity="0.95">
    <title>2571 k:1</title>
  </polyline>
</svg>
