<?xml version="1.0" encoding="UTF-8"?>
<svg xmlns="http://www.w3.org/2000/svg" width="80" height="51" viewBox="0 0 80 51">
  <title>atom 2595 k:1</title>
  <metadata>{&quot;entityType&quot;:&quot;atom&quot;,&quot;entityId&quot;:&quot;2595&quot;,&quot;token&quot;:&quot;k:1&quot;,&quot;signature&quot;:&quot;k:1&quot;,&quot;imageName&quot;:&quot;page-003.jpg&quot;,&quot;imageId&quot;:3,&quot;bounds&quot;:{&quot;x&quot;:742,&quot;y&quot;:1764,&quot;w&quot;:80,&quot;h&quot;:51},&quot;atoms&quot;:[{&quot;id&quot;:2595,&quot;token&quot;:&quot;k:1&quot;,&quot;particle_id&quot;:&quot;img3-m93-p2&quot;,&quot;molecule_id&quot;:&quot;img3-m93&quot;,&quot;atom_order&quot;:1}]}</metadata>
  <rect x="0" y="0" width="80" height="51" fill="#f8f0d8"/>
  <image href="file:///C:/Users/HHHES/AppData/Roaming/com.voynichlab.datasetcreator/images/1/35a70f63-88ab-4986-b441-b78046a10087.jpg" x="-742" y="-1764" width="2972" height="3766" opacity="0.92"/>
  <rect x="0.5" y="0.5" width="79" height="50" fill="none" stroke="#111827" stroke-width="1" opacity="0.35"/>
  <polyline points="16,19 17,19 17,20 18,20 18,21 18,22 19,22 19,23 20,24 20,25 20,26 21,26 21,27 22,28 22,29 23,29 23,30 23,31 24,31 24,32 25,33 25,34 26,34 27,34 27,35 28,35 28,34 29,34 29,33 30,33 30,32 31,32 31,31 31,30 32,30 32,29 32,28 33,28 33,27 33,26 34,26 34,25 35,25 35,24 36,23 36,22 37,22 37,21 37,20 38,20 38,19 39,19 39,20 39,21 40,21 40,22 41,22 41,23 42,23 42,24 43,25 44,26 44,27 45,27 45,28 46,28 46,29 47,29 47,30 48,30 48,31 49,31 50,31 51,31 51,30 52,30 52,29 52,28 53,28 53,27 54,27 54,26 55,26 55,25 56,25 56,24 57,24 57,23 58,23 58,22 59,22 59,21 60,21 61,20 62,19 63,18 63,17 64,17 64,16" fill="none" stroke="#ffffff" stroke-width="3" stroke-linecap="round" stroke-linejoin="round" opacity="0.95">
    <title>2595 k:1</title>
  </polyline>
</svg>
