<?xml version="1.0" encoding="UTF-8"?>
<svg xmlns="http://www.w3.org/2000/svg" width="78" height="59" viewBox="0 0 78 59">
  <title>atom 3784 k:1</title>
  <metadata>{&quot;entityType&quot;:&quot;atom&quot;,&quot;entityId&quot;:&quot;3784&quot;,&quot;token&quot;:&quot;k:1&quot;,&quot;signature&quot;:&quot;k:1&quot;,&quot;imageName&quot;:&quot;page-003.jpg&quot;,&quot;imageId&quot;:3,&quot;bounds&quot;:{&quot;x&quot;:771,&quot;y&quot;:2507,&quot;w&quot;:78,&quot;h&quot;:59},&quot;atoms&quot;:[{&quot;id&quot;:3784,&quot;token&quot;:&quot;k:1&quot;,&quot;particle_id&quot;:&quot;img3-m149-p4&quot;,&quot;molecule_id&quot;:&quot;img3-m149&quot;,&quot;atom_order&quot;:1}]}</metadata>
  <rect x="0" y="0" width="78" height="59" fill="#f8f0d8"/>
  <image href="file:///C:/Users/HHHES/AppData/Roaming/com.voynichlab.datasetcreator/images/1/35a70f63-88ab-4986-b441-b78046a10087.jpg" x="-771" y="-2507" width="2972" height="3766" opacity="0.92"/>
  <rect x="0.5" y="0.5" width="77" height="58" fill="none" stroke="#111827" stroke-width="1" opacity="0.35"/>
  <polyline points="16,16 16,17 17,17 17,18 17,19 17,20 18,21 18,22 18,23 19,24 20,25 20,26 20,27 21,28 21,29 21,30 22,30 22,31 22,32 23,33 23,34 23,35 24,36 24,37 24,38 25,39 25,40 26,40 26,39 27,38 27,37 27,36 27,35 28,35 28,34 29,33 30,32 31,32 31,31 32,31 33,30 33,29 34,29 35,28 36,28 36,27 37,27 37,26 38,26 38,25 39,25 39,24 40,24 40,23 41,23 41,22 41,23 41,24 41,25 41,26 41,27 41,28 41,29 41,30 41,31 41,32 42,32 42,33 42,34 43,34 43,35 43,36 44,36 44,37 44,38 45,39 45,40 46,40 46,41 47,41 47,42 47,43 48,43 48,42 49,42 49,41 49,40 50,40 50,39 51,38 51,37 52,37 52,36 53,35 54,35 54,34 55,34 55,33 56,33 56,32 57,31 58,30 58,29 59,29 60,29 60,28 61,28 62,27" fill="none" stroke="#ffffff" stroke-width="3" stroke-linecap="round" stroke-linejoin="round" opacity="0.95">
    <title>3784 k:1</title>
  </polyline>
</svg>
