<?xml version="1.0" encoding="UTF-8"?>
<svg xmlns="http://www.w3.org/2000/svg" width="71" height="58" viewBox="0 0 71 58">
  <title>atom 3973 k:1</title>
  <metadata>{&quot;entityType&quot;:&quot;atom&quot;,&quot;entityId&quot;:&quot;3973&quot;,&quot;token&quot;:&quot;k:1&quot;,&quot;signature&quot;:&quot;k:1&quot;,&quot;imageName&quot;:&quot;page-003.jpg&quot;,&quot;imageId&quot;:3,&quot;bounds&quot;:{&quot;x&quot;:1014,&quot;y&quot;:2689,&quot;w&quot;:71,&quot;h&quot;:58},&quot;atoms&quot;:[{&quot;id&quot;:3973,&quot;token&quot;:&quot;k:1&quot;,&quot;particle_id&quot;:&quot;img3-m171-p5&quot;,&quot;molecule_id&quot;:&quot;img3-m171&quot;,&quot;atom_order&quot;:1}]}</metadata>
  <rect x="0" y="0" width="71" height="58" fill="#f8f0d8"/>
  <image href="file:///C:/Users/HHHES/AppData/Roaming/com.voynichlab.datasetcreator/images/1/35a70f63-88ab-4986-b441-b78046a10087.jpg" x="-1014" y="-2689" width="2972" height="3766" opacity="0.92"/>
  <rect x="0.5" y="0.5" width="70" height="57" fill="none" stroke="#111827" stroke-width="1" opacity="0.35"/>
  <polyline points="16,16 16,17 17,17 17,18 17,19 18,20 18,21 19,22 19,23 20,24 20,25 21,26 21,27 22,27 22,28 22,29 23,29 23,30 23,31 24,31 24,32 24,33 24,34 24,35 25,35 25,36 25,37 26,37 26,36 27,35 27,34 28,34 28,33 29,32 30,31 30,30 31,30 31,29 32,28 32,27 33,27 33,26 34,25 34,24 35,24 35,23 35,22 36,22 36,21 37,20 37,19 38,19 38,20 38,21 38,22 39,23 39,24 39,25 39,26 40,27 40,28 40,29 40,30 41,30 41,31 41,32 41,33 42,33 42,34 42,35 42,36 43,36 43,37 43,38 43,39 44,39 44,40 44,41 45,42 45,41 45,40 46,40 46,39 46,38 47,37 47,36 47,35 48,35 48,34 49,33 49,32 50,31 50,30 51,30 51,29 51,28 52,28 52,27 53,26 53,25 54,25 54,24 55,24 55,23" fill="none" stroke="#ffffff" stroke-width="3" stroke-linecap="round" stroke-linejoin="round" opacity="0.95">
    <title>3973 k:1</title>
  </polyline>
</svg>
