<?xml version="1.0" encoding="UTF-8"?>
<svg xmlns="http://www.w3.org/2000/svg" width="80" height="60" viewBox="0 0 80 60">
  <title>atom 3975 k:1</title>
  <metadata>{&quot;entityType&quot;:&quot;atom&quot;,&quot;entityId&quot;:&quot;3975&quot;,&quot;token&quot;:&quot;k:1&quot;,&quot;signature&quot;:&quot;k:1&quot;,&quot;imageName&quot;:&quot;page-003.jpg&quot;,&quot;imageId&quot;:3,&quot;bounds&quot;:{&quot;x&quot;:1926,&quot;y&quot;:2723,&quot;w&quot;:80,&quot;h&quot;:60},&quot;atoms&quot;:[{&quot;id&quot;:3975,&quot;token&quot;:&quot;k:1&quot;,&quot;particle_id&quot;:&quot;img3-m173-p3&quot;,&quot;molecule_id&quot;:&quot;img3-m173&quot;,&quot;atom_order&quot;:1}]}</metadata>
  <rect x="0" y="0" width="80" height="60" fill="#f8f0d8"/>
  <image href="file:///C:/Users/HHHES/AppData/Roaming/com.voynichlab.datasetcreator/images/1/35a70f63-88ab-4986-b441-b78046a10087.jpg" x="-1926" y="-2723" width="2972" height="3766" opacity="0.92"/>
  <rect x="0.5" y="0.5" width="79" height="59" fill="none" stroke="#111827" stroke-width="1" opacity="0.35"/>
  <polyline points="16,16 16,17 17,17 17,18 17,19 18,19 18,20 19,21 19,22 20,22 20,23 21,23 21,24 22,24 22,25 23,26 23,27 24,27 24,28 24,29 25,29 25,30 26,31 26,32 27,32 27,33 28,34 28,35 29,35 29,36 30,37 30,38 31,38 31,39 32,39 32,40 32,41 33,41 34,40 34,39 35,39 35,38 36,38 36,37 37,36 37,35 38,35 38,34 39,33 39,32 40,31 40,30 41,30 41,29 41,28 42,28 42,27 43,26 43,25 44,24 44,23 44,22 45,22 45,21 45,20 45,21 45,22 45,23 45,24 45,25 46,25 46,26 46,27 46,28 47,29 47,30 47,31 47,32 48,32 48,33 48,34 48,35 48,36 49,36 49,37 49,38 50,38 50,39 50,40 51,40 51,41 52,41 52,42 52,43 53,43 53,44 53,43 54,43 54,42 54,41 55,40 55,39 56,38 56,37 57,37 57,36 57,35 58,35 58,34 59,33 60,32 60,31 61,31 61,30 61,29 62,29 62,28 63,27 63,26 64,26 64,25 63,26" fill="none" stroke="#ffffff" stroke-width="3" stroke-linecap="round" stroke-linejoin="round" opacity="0.95">
    <title>3975 k:1</title>
  </polyline>
</svg>
