<?xml version="1.0" encoding="UTF-8"?>
<svg xmlns="http://www.w3.org/2000/svg" width="71" height="52" viewBox="0 0 71 52">
  <title>atom 4077 k:1</title>
  <metadata>{&quot;entityType&quot;:&quot;atom&quot;,&quot;entityId&quot;:&quot;4077&quot;,&quot;token&quot;:&quot;k:1&quot;,&quot;signature&quot;:&quot;k:1&quot;,&quot;imageName&quot;:&quot;page-003.jpg&quot;,&quot;imageId&quot;:3,&quot;bounds&quot;:{&quot;x&quot;:1118,&quot;y&quot;:2774,&quot;w&quot;:71,&quot;h&quot;:52},&quot;atoms&quot;:[{&quot;id&quot;:4077,&quot;token&quot;:&quot;k:1&quot;,&quot;particle_id&quot;:&quot;img3-m176-p3&quot;,&quot;molecule_id&quot;:&quot;img3-m176&quot;,&quot;atom_order&quot;:1}]}</metadata>
  <rect x="0" y="0" width="71" height="52" fill="#f8f0d8"/>
  <image href="file:///C:/Users/HHHES/AppData/Roaming/com.voynichlab.datasetcreator/images/1/35a70f63-88ab-4986-b441-b78046a10087.jpg" x="-1118" y="-2774" width="2972" height="3766" opacity="0.92"/>
  <rect x="0.5" y="0.5" width="70" height="51" fill="none" stroke="#111827" stroke-width="1" opacity="0.35"/>
  <polyline points="16,16 16,17 17,17 17,18 18,19 18,20 19,20 19,21 20,22 20,23 21,23 21,24 22,25 22,26 22,27 23,27 23,28 23,29 24,29 24,30 25,30 25,31 25,32 25,33 26,33 26,34 27,34 27,35 27,34 28,34 28,33 28,32 29,31 29,30 30,29 30,28 31,28 32,27 32,26 33,26 33,25 34,24 34,23 35,23 35,22 36,21 36,20 37,19 37,18 37,17 38,18 38,19 38,20 38,21 39,21 39,22 39,23 40,24 40,25 40,26 41,26 41,27 41,28 42,29 42,30 42,31 42,32 43,32 43,33 43,34 44,34 44,35 45,35 45,36 46,35 46,34 46,33 47,32 47,31 48,30 48,29 49,29 49,28 50,27 50,26 51,25 52,24 52,23 53,23 53,22 54,21 54,20 55,20 55,19" fill="none" stroke="#ffffff" stroke-width="3" stroke-linecap="round" stroke-linejoin="round" opacity="0.95">
    <title>4077 k:1</title>
  </polyline>
</svg>
