<?xml version="1.0" encoding="UTF-8"?>
<svg xmlns="http://www.w3.org/2000/svg" width="80" height="57" viewBox="0 0 80 57">
  <title>atom 4108 k:1</title>
  <metadata>{&quot;entityType&quot;:&quot;atom&quot;,&quot;entityId&quot;:&quot;4108&quot;,&quot;token&quot;:&quot;k:1&quot;,&quot;signature&quot;:&quot;k:1&quot;,&quot;imageName&quot;:&quot;page-003.jpg&quot;,&quot;imageId&quot;:3,&quot;bounds&quot;:{&quot;x&quot;:2105,&quot;y&quot;:3007,&quot;w&quot;:80,&quot;h&quot;:57},&quot;atoms&quot;:[{&quot;id&quot;:4108,&quot;token&quot;:&quot;k:1&quot;,&quot;particle_id&quot;:&quot;img3-m197-p4&quot;,&quot;molecule_id&quot;:&quot;img3-m197&quot;,&quot;atom_order&quot;:1}]}</metadata>
  <rect x="0" y="0" width="80" height="57" fill="#f8f0d8"/>
  <image href="file:///C:/Users/HHHES/AppData/Roaming/com.voynichlab.datasetcreator/images/1/35a70f63-88ab-4986-b441-b78046a10087.jpg" x="-2105" y="-3007" width="2972" height="3766" opacity="0.92"/>
  <rect x="0.5" y="0.5" width="79" height="56" fill="none" stroke="#111827" stroke-width="1" opacity="0.35"/>
  <polyline points="16,16 16,17 17,17 17,18 18,18 18,19 18,20 19,20 19,21 20,21 20,22 21,22 21,23 22,24 22,25 23,25 23,26 24,27 24,28 25,29 26,30 26,31 27,32 27,33 28,34 28,35 29,35 29,36 29,37 30,37 30,38 30,39 31,39 31,40 32,39 32,38 33,37 33,36 34,34 34,33 35,33 35,31 36,30 36,29 36,28 37,28 37,27 38,27 38,26 39,26 39,25 40,25 40,24 40,23 41,23 41,22 41,21 41,20 42,20 42,19 42,20 42,21 42,22 42,23 43,24 43,25 43,27 44,27 44,28 44,29 45,29 45,30 45,31 46,32 46,33 47,34 48,35 48,36 49,36 49,37 49,38 50,38 50,39 50,40 51,40 51,41 52,41 52,40 53,39 54,39 54,38 55,37 56,36 56,35 57,35 57,34 57,33 58,33 58,32 59,31 59,30 60,30 60,29 60,28 60,27 61,27 61,26 62,26 62,25 63,24 63,23 64,23 64,22 64,21" fill="none" stroke="#ffffff" stroke-width="3" stroke-linecap="round" stroke-linejoin="round" opacity="0.95">
    <title>4108 k:1</title>
  </polyline>
</svg>
