<?xml version="1.0" encoding="UTF-8"?>
<svg xmlns="http://www.w3.org/2000/svg" width="56" height="55" viewBox="0 0 56 55">
  <title>c:1 distant-variant atom 2915</title>
  <rect x="0" y="0" width="56" height="55" fill="#17181b"/>
  <rect x="0.5" y="0.5" width="55" height="54" fill="none" stroke="#111827" stroke-width="1" opacity="0.35"/>
<polyline points="38,36 38,35 39,35 39,34 39,33 40,33 40,32 40,31 40,30 40,29 40,28 40,27 39,26 39,25 39,24 39,23 39,22 38,21 38,20 37,20 37,19 37,18 36,18 36,17 35,17 34,16 33,16 32,16 31,16 30,16 29,16 28,16 27,16 26,16 25,16 24,16 24,17 23,17 22,17 22,18 21,18 21,19 20,19 20,20 19,20 19,21 19,22 19,23 18,24 18,25 18,26 17,27 17,28 17,29 16,29 16,30 16,31 16,32 16,33 16,34 17,34 17,35 17,36 18,36 18,37 19,37 19,38 20,38 21,38 21,39 22,39 23,39 24,39 25,39 26,39 27,39 28,39 29,39 30,39 31,39 32,39 33,39 33,38 34,38 35,37 36,37 36,36 37,36 37,35 38,35" fill="none" stroke="#8aff00" stroke-width="3" stroke-linecap="round" stroke-linejoin="round" opacity="0.95">
    <title>2915 c:1</title>
  </polyline>
</svg>
