<?xml version="1.0" encoding="UTF-8"?>
<svg xmlns="http://www.w3.org/2000/svg" width="48" height="48" viewBox="0 0 48 48">
  <title>c:1 distant-variant atom 4764</title>
  <rect x="0" y="0" width="48" height="48" fill="#17181b"/>
  <rect x="0.5" y="0.5" width="47" height="47" fill="none" stroke="#111827" stroke-width="1" opacity="0.35"/>
<polyline points="31,27 31,26 31,25 32,25 32,24 32,23 32,22 32,21 31,20 31,19 30,19 30,18 29,18 29,17 28,17 27,17 26,16 25,16 24,16 23,16 22,16 21,16 21,17 20,17 19,17 19,18 18,19 18,20 18,21 17,21 17,22 17,23 16,23 16,24 16,25 16,26 16,27 16,28 16,29 16,30 17,30 17,31 18,31 19,32 20,32 21,32 22,32 23,32 24,32 25,31 26,31 27,30 28,30 29,29 30,29 30,28 31,28 31,27 32,26 32,25" fill="none" stroke="#8aff00" stroke-width="3" stroke-linecap="round" stroke-linejoin="round" opacity="0.95">
    <title>4764 c:1</title>
  </polyline>
</svg>
