<?xml version="1.0" encoding="UTF-8"?>
<svg xmlns="http://www.w3.org/2000/svg" width="34" height="102" viewBox="0 0 34 102">
  <title>atom 5521 a:1</title>
  <metadata>{&quot;entityType&quot;:&quot;atom&quot;,&quot;entityId&quot;:&quot;5521&quot;,&quot;token&quot;:&quot;a:1&quot;,&quot;signature&quot;:&quot;a:1&quot;,&quot;imageName&quot;:&quot;page-005.jpg&quot;,&quot;imageId&quot;:5,&quot;bounds&quot;:{&quot;x&quot;:730,&quot;y&quot;:460,&quot;w&quot;:34,&quot;h&quot;:102},&quot;atoms&quot;:[{&quot;id&quot;:5521,&quot;token&quot;:&quot;a:1&quot;,&quot;particle_id&quot;:&quot;img5-m3-p2&quot;,&quot;molecule_id&quot;:&quot;img5-m3&quot;,&quot;atom_order&quot;:1}]}</metadata>
  <rect x="0" y="0" width="34" height="102" fill="#f8f0d8"/>
  <image href="file:///C:/Users/HHHES/AppData/Roaming/com.voynichlab.datasetcreator/images/1/a6cd3b6e-2a78-4b30-a4be-5d186aea258e.jpg" x="-730" y="-460" width="2691" height="3770" opacity="0.92"/>
  <rect x="0.5" y="0.5" width="33" height="101" fill="none" stroke="#111827" stroke-width="1" opacity="0.35"/>
  <polyline points="18,16 18,17 18,18 18,19 18,20 18,21 18,22 18,23 18,24 17,24 17,25 17,26 17,27 17,28 17,29 17,30 17,31 17,32 17,33 17,34 17,35 17,36 18,36 18,37 18,38 18,39 18,40 18,41 18,42 18,43 18,44 18,45 18,46 18,47 18,48 18,49 18,50 18,51 18,52 18,53 18,54 18,55 18,56 18,57 18,58 17,59 17,60 17,61 17,62 17,63 17,64 17,65 17,66 17,67 17,68 17,69 17,70 17,71 17,72 16,72 16,73 16,74 16,75 16,76 16,77 16,78 16,79 16,80 16,81 16,82 16,83 16,84 16,85 16,86 16,85" fill="none" stroke="#00f0b5" stroke-width="3" stroke-linecap="round" stroke-linejoin="round" opacity="0.95">
    <title>5521 a:1</title>
  </polyline>
</svg>
