<?xml version="1.0" encoding="UTF-8"?>
<svg xmlns="http://www.w3.org/2000/svg" width="35" height="79" viewBox="0 0 35 79">
  <title>atom 5529 a:1</title>
  <metadata>{&quot;entityType&quot;:&quot;atom&quot;,&quot;entityId&quot;:&quot;5529&quot;,&quot;token&quot;:&quot;a:1&quot;,&quot;signature&quot;:&quot;a:1&quot;,&quot;imageName&quot;:&quot;page-005.jpg&quot;,&quot;imageId&quot;:5,&quot;bounds&quot;:{&quot;x&quot;:1073,&quot;y&quot;:551,&quot;w&quot;:35,&quot;h&quot;:79},&quot;atoms&quot;:[{&quot;id&quot;:5529,&quot;token&quot;:&quot;a:1&quot;,&quot;particle_id&quot;:&quot;img5-m11-p2&quot;,&quot;molecule_id&quot;:&quot;img5-m11&quot;,&quot;atom_order&quot;:1}]}</metadata>
  <rect x="0" y="0" width="35" height="79" fill="#f8f0d8"/>
  <image href="file:///C:/Users/HHHES/AppData/Roaming/com.voynichlab.datasetcreator/images/1/a6cd3b6e-2a78-4b30-a4be-5d186aea258e.jpg" x="-1073" y="-551" width="2691" height="3770" opacity="0.92"/>
  <rect x="0.5" y="0.5" width="34" height="78" fill="none" stroke="#111827" stroke-width="1" opacity="0.35"/>
  <polyline points="17,63 17,62 17,61 17,60 17,59 17,58 17,57 17,56 16,55 16,54 16,53 16,52 16,51 16,50 16,49 16,48 16,47 16,46 16,45 16,43 16,42 17,42 17,41 17,40 17,39 17,38 17,37 18,36 18,35 18,34 18,33 18,32 19,31 19,30 19,29 19,28 19,27 19,26 19,25 19,24 19,23 19,22 19,21 19,20 19,19 19,18 19,17 19,16" fill="none" stroke="#00f0b5" stroke-width="3" stroke-linecap="round" stroke-linejoin="round" opacity="0.95">
    <title>5529 a:1</title>
  </polyline>
</svg>
