<?xml version="1.0" encoding="UTF-8"?>
<svg xmlns="http://www.w3.org/2000/svg" width="35" height="78" viewBox="0 0 35 78">
  <title>atom 5530 a:1</title>
  <metadata>{&quot;entityType&quot;:&quot;atom&quot;,&quot;entityId&quot;:&quot;5530&quot;,&quot;token&quot;:&quot;a:1&quot;,&quot;signature&quot;:&quot;a:1&quot;,&quot;imageName&quot;:&quot;page-005.jpg&quot;,&quot;imageId&quot;:5,&quot;bounds&quot;:{&quot;x&quot;:1085,&quot;y&quot;:553,&quot;w&quot;:35,&quot;h&quot;:78},&quot;atoms&quot;:[{&quot;id&quot;:5530,&quot;token&quot;:&quot;a:1&quot;,&quot;particle_id&quot;:&quot;img5-m11-p2&quot;,&quot;molecule_id&quot;:&quot;img5-m11&quot;,&quot;atom_order&quot;:4}]}</metadata>
  <rect x="0" y="0" width="35" height="78" fill="#f8f0d8"/>
  <image href="file:///C:/Users/HHHES/AppData/Roaming/com.voynichlab.datasetcreator/images/1/a6cd3b6e-2a78-4b30-a4be-5d186aea258e.jpg" x="-1085" y="-553" width="2691" height="3770" opacity="0.92"/>
  <rect x="0.5" y="0.5" width="34" height="77" fill="none" stroke="#111827" stroke-width="1" opacity="0.35"/>
  <polyline points="19,16 19,17 19,18 18,19 18,20 18,21 18,22 17,23 17,24 17,25 17,26 17,27 17,28 17,29 17,30 17,31 16,32 16,33 16,34 16,35 16,36 16,37 16,38 16,39 16,40 16,41 16,43 16,44 16,45 16,46 16,47 16,48 16,49 16,50 16,51 16,52 16,53 16,54 16,55 16,56 16,57 16,58 16,59 16,60 16,61 16,62" fill="none" stroke="#00f0b5" stroke-width="3" stroke-linecap="round" stroke-linejoin="round" opacity="0.95">
    <title>5530 a:1</title>
  </polyline>
</svg>
