<?xml version="1.0" encoding="UTF-8"?>
<svg xmlns="http://www.w3.org/2000/svg" width="37" height="88" viewBox="0 0 37 88">
  <title>atom 5532 a:1</title>
  <metadata>{&quot;entityType&quot;:&quot;atom&quot;,&quot;entityId&quot;:&quot;5532&quot;,&quot;token&quot;:&quot;a:1&quot;,&quot;signature&quot;:&quot;a:1&quot;,&quot;imageName&quot;:&quot;page-005.jpg&quot;,&quot;imageId&quot;:5,&quot;bounds&quot;:{&quot;x&quot;:1552,&quot;y&quot;:565,&quot;w&quot;:37,&quot;h&quot;:88},&quot;atoms&quot;:[{&quot;id&quot;:5532,&quot;token&quot;:&quot;a:1&quot;,&quot;particle_id&quot;:&quot;img5-m10-p1&quot;,&quot;molecule_id&quot;:&quot;img5-m10&quot;,&quot;atom_order&quot;:6}]}</metadata>
  <rect x="0" y="0" width="37" height="88" fill="#f8f0d8"/>
  <image href="file:///C:/Users/HHHES/AppData/Roaming/com.voynichlab.datasetcreator/images/1/a6cd3b6e-2a78-4b30-a4be-5d186aea258e.jpg" x="-1552" y="-565" width="2691" height="3770" opacity="0.92"/>
  <rect x="0.5" y="0.5" width="36" height="87" fill="none" stroke="#111827" stroke-width="1" opacity="0.35"/>
  <polyline points="20,16 21,16 20,16 19,17 19,18 18,19 18,20 18,21 17,22 17,23 17,24 17,25 17,27 17,28 17,29 17,31 17,32 16,34 16,35 16,36 16,37 16,38 16,39 16,40 16,41 16,42 16,43 16,44 16,45 16,46 16,47 16,48 16,50 16,51 16,52 16,53 16,54 16,55 16,56 16,58 17,58 17,60 17,61 17,62 17,63 17,64 17,65 17,66 17,67 17,68 17,69 18,69 18,70 18,71 18,72 18,71" fill="none" stroke="#00f0b5" stroke-width="3" stroke-linecap="round" stroke-linejoin="round" opacity="0.95">
    <title>5532 a:1</title>
  </polyline>
</svg>
