<?xml version="1.0" encoding="UTF-8"?>
<svg xmlns="http://www.w3.org/2000/svg" width="33" height="83" viewBox="0 0 33 83">
  <title>atom 5536 a:1</title>
  <metadata>{&quot;entityType&quot;:&quot;atom&quot;,&quot;entityId&quot;:&quot;5536&quot;,&quot;token&quot;:&quot;a:1&quot;,&quot;signature&quot;:&quot;a:1&quot;,&quot;imageName&quot;:&quot;page-005.jpg&quot;,&quot;imageId&quot;:5,&quot;bounds&quot;:{&quot;x&quot;:486,&quot;y&quot;:638,&quot;w&quot;:33,&quot;h&quot;:83},&quot;atoms&quot;:[{&quot;id&quot;:5536,&quot;token&quot;:&quot;a:1&quot;,&quot;particle_id&quot;:&quot;img5-m19-p2&quot;,&quot;molecule_id&quot;:&quot;img5-m19&quot;,&quot;atom_order&quot;:1}]}</metadata>
  <rect x="0" y="0" width="33" height="83" fill="#f8f0d8"/>
  <image href="file:///C:/Users/HHHES/AppData/Roaming/com.voynichlab.datasetcreator/images/1/a6cd3b6e-2a78-4b30-a4be-5d186aea258e.jpg" x="-486" y="-638" width="2691" height="3770" opacity="0.92"/>
  <rect x="0.5" y="0.5" width="32" height="82" fill="none" stroke="#111827" stroke-width="1" opacity="0.35"/>
  <polyline points="16,16 16,17 16,18 16,19 16,20 16,21 16,22 16,23 16,24 16,25 16,26 17,26 17,27 17,28 17,29 17,30 17,31 17,32 17,33 17,34 17,35 17,36 17,37 16,39 16,40 16,41 16,42 16,43 16,44 16,45 16,46 16,47 16,48 16,49 16,50 16,51 16,52 17,53 17,54 17,55 17,56 17,57 17,58 17,59 17,60 17,61 17,62 16,63 16,64 16,65 16,66 16,67" fill="none" stroke="#00f0b5" stroke-width="3" stroke-linecap="round" stroke-linejoin="round" opacity="0.95">
    <title>5536 a:1</title>
  </polyline>
</svg>
