<?xml version="1.0" encoding="UTF-8"?>
<svg xmlns="http://www.w3.org/2000/svg" width="39" height="81" viewBox="0 0 39 81">
  <title>atom 5538 a:1</title>
  <metadata>{&quot;entityType&quot;:&quot;atom&quot;,&quot;entityId&quot;:&quot;5538&quot;,&quot;token&quot;:&quot;a:1&quot;,&quot;signature&quot;:&quot;a:1&quot;,&quot;imageName&quot;:&quot;page-005.jpg&quot;,&quot;imageId&quot;:5,&quot;bounds&quot;:{&quot;x&quot;:1063,&quot;y&quot;:631,&quot;w&quot;:39,&quot;h&quot;:81},&quot;atoms&quot;:[{&quot;id&quot;:5538,&quot;token&quot;:&quot;a:1&quot;,&quot;particle_id&quot;:&quot;img5-m15-p1&quot;,&quot;molecule_id&quot;:&quot;img5-m15&quot;,&quot;atom_order&quot;:2}]}</metadata>
  <rect x="0" y="0" width="39" height="81" fill="#f8f0d8"/>
  <image href="file:///C:/Users/HHHES/AppData/Roaming/com.voynichlab.datasetcreator/images/1/a6cd3b6e-2a78-4b30-a4be-5d186aea258e.jpg" x="-1063" y="-631" width="2691" height="3770" opacity="0.92"/>
  <rect x="0.5" y="0.5" width="38" height="80" fill="none" stroke="#111827" stroke-width="1" opacity="0.35"/>
  <polyline points="16,16 16,17 17,18 17,19 18,19 18,20 19,20 19,21 19,22 20,22 20,23 20,24 20,25 20,26 20,27 20,28 20,29 20,30 21,31 21,32 21,33 21,34 21,35 21,36 21,37 21,38 21,40 21,41 21,42 21,43 21,44 21,45 21,46 21,47 21,48 21,49 21,50 21,51 21,52 21,53 21,54 21,55 21,56 21,57 22,58 22,59 22,60 22,61 22,62 22,63 22,64 22,65 23,65" fill="none" stroke="#00f0b5" stroke-width="3" stroke-linecap="round" stroke-linejoin="round" opacity="0.95">
    <title>5538 a:1</title>
  </polyline>
</svg>
