<?xml version="1.0" encoding="UTF-8"?>
<svg xmlns="http://www.w3.org/2000/svg" width="35" height="86" viewBox="0 0 35 86">
  <title>atom 5539 a:1</title>
  <metadata>{&quot;entityType&quot;:&quot;atom&quot;,&quot;entityId&quot;:&quot;5539&quot;,&quot;token&quot;:&quot;a:1&quot;,&quot;signature&quot;:&quot;a:1&quot;,&quot;imageName&quot;:&quot;page-005.jpg&quot;,&quot;imageId&quot;:5,&quot;bounds&quot;:{&quot;x&quot;:1082,&quot;y&quot;:625,&quot;w&quot;:35,&quot;h&quot;:86},&quot;atoms&quot;:[{&quot;id&quot;:5539,&quot;token&quot;:&quot;a:1&quot;,&quot;particle_id&quot;:&quot;img5-m15-p1&quot;,&quot;molecule_id&quot;:&quot;img5-m15&quot;,&quot;atom_order&quot;:6}]}</metadata>
  <rect x="0" y="0" width="35" height="86" fill="#f8f0d8"/>
  <image href="file:///C:/Users/HHHES/AppData/Roaming/com.voynichlab.datasetcreator/images/1/a6cd3b6e-2a78-4b30-a4be-5d186aea258e.jpg" x="-1082" y="-625" width="2691" height="3770" opacity="0.92"/>
  <rect x="0.5" y="0.5" width="34" height="85" fill="none" stroke="#111827" stroke-width="1" opacity="0.35"/>
  <polyline points="19,16 19,17 19,19 18,20 18,21 18,22 18,23 18,24 18,25 18,26 18,27 18,28 17,29 17,30 17,31 17,32 17,33 17,34 17,35 17,36 17,37 17,38 17,39 17,40 16,42 16,44 16,45 16,47 16,48 16,49 16,50 16,52 16,53 16,54 16,55 16,56 16,57 16,58 16,59 16,60 16,61 17,62 17,63 17,64 17,65 17,66 17,67 17,68 17,69 18,69 18,70" fill="none" stroke="#00f0b5" stroke-width="3" stroke-linecap="round" stroke-linejoin="round" opacity="0.95">
    <title>5539 a:1</title>
  </polyline>
</svg>
