<?xml version="1.0" encoding="UTF-8"?>
<svg xmlns="http://www.w3.org/2000/svg" width="34" height="83" viewBox="0 0 34 83">
  <title>atom 5541 a:1</title>
  <metadata>{&quot;entityType&quot;:&quot;atom&quot;,&quot;entityId&quot;:&quot;5541&quot;,&quot;token&quot;:&quot;a:1&quot;,&quot;signature&quot;:&quot;a:1&quot;,&quot;imageName&quot;:&quot;page-005.jpg&quot;,&quot;imageId&quot;:5,&quot;bounds&quot;:{&quot;x&quot;:1868,&quot;y&quot;:731,&quot;w&quot;:34,&quot;h&quot;:83},&quot;atoms&quot;:[{&quot;id&quot;:5541,&quot;token&quot;:&quot;a:1&quot;,&quot;particle_id&quot;:&quot;img5-m26-p3&quot;,&quot;molecule_id&quot;:&quot;img5-m26&quot;,&quot;atom_order&quot;:1}]}</metadata>
  <rect x="0" y="0" width="34" height="83" fill="#f8f0d8"/>
  <image href="file:///C:/Users/HHHES/AppData/Roaming/com.voynichlab.datasetcreator/images/1/a6cd3b6e-2a78-4b30-a4be-5d186aea258e.jpg" x="-1868" y="-731" width="2691" height="3770" opacity="0.92"/>
  <rect x="0.5" y="0.5" width="33" height="82" fill="none" stroke="#111827" stroke-width="1" opacity="0.35"/>
  <polyline points="16,16 16,17 16,18 16,19 16,21 16,22 16,23 16,24 16,26 16,27 16,28 17,30 17,31 17,32 17,33 17,34 17,35 17,36 17,37 17,38 17,39 17,41 17,42 17,44 17,45 17,46 17,47 17,48 18,49 18,51 18,52 18,54 18,55 18,56 17,57 17,58 17,59 17,60 17,61 17,62 17,63 17,64 17,65 17,66 17,67" fill="none" stroke="#00f0b5" stroke-width="3" stroke-linecap="round" stroke-linejoin="round" opacity="0.95">
    <title>5541 a:1</title>
  </polyline>
</svg>
