<?xml version="1.0" encoding="UTF-8"?>
<svg xmlns="http://www.w3.org/2000/svg" width="34" height="79" viewBox="0 0 34 79">
  <title>atom 5542 a:1</title>
  <metadata>{&quot;entityType&quot;:&quot;atom&quot;,&quot;entityId&quot;:&quot;5542&quot;,&quot;token&quot;:&quot;a:1&quot;,&quot;signature&quot;:&quot;a:1&quot;,&quot;imageName&quot;:&quot;page-005.jpg&quot;,&quot;imageId&quot;:5,&quot;bounds&quot;:{&quot;x&quot;:1375,&quot;y&quot;:722,&quot;w&quot;:34,&quot;h&quot;:79},&quot;atoms&quot;:[{&quot;id&quot;:5542,&quot;token&quot;:&quot;a:1&quot;,&quot;particle_id&quot;:&quot;img5-m21-p1&quot;,&quot;molecule_id&quot;:&quot;img5-m21&quot;,&quot;atom_order&quot;:2}]}</metadata>
  <rect x="0" y="0" width="34" height="79" fill="#f8f0d8"/>
  <image href="file:///C:/Users/HHHES/AppData/Roaming/com.voynichlab.datasetcreator/images/1/a6cd3b6e-2a78-4b30-a4be-5d186aea258e.jpg" x="-1375" y="-722" width="2691" height="3770" opacity="0.92"/>
  <rect x="0.5" y="0.5" width="33" height="78" fill="none" stroke="#111827" stroke-width="1" opacity="0.35"/>
  <polyline points="17,16 17,17 17,18 17,19 17,20 17,21 17,22 17,23 17,24 17,25 17,26 17,27 18,28 18,29 18,30 18,31 18,32 18,33 18,34 18,35 18,36 18,37 18,38 18,39 18,40 17,41 17,42 17,43 17,44 17,45 17,46 17,47 17,48 17,49 17,50 17,51 17,52 17,53 16,53 16,54 16,55 16,56 16,57 16,58 16,59 16,60 16,61 16,62 16,63" fill="none" stroke="#00f0b5" stroke-width="3" stroke-linecap="round" stroke-linejoin="round" opacity="0.95">
    <title>5542 a:1</title>
  </polyline>
</svg>
