<?xml version="1.0" encoding="UTF-8"?>
<svg xmlns="http://www.w3.org/2000/svg" width="33" height="63" viewBox="0 0 33 63">
  <title>atom 5543 a:1</title>
  <metadata>{&quot;entityType&quot;:&quot;atom&quot;,&quot;entityId&quot;:&quot;5543&quot;,&quot;token&quot;:&quot;a:1&quot;,&quot;signature&quot;:&quot;a:1&quot;,&quot;imageName&quot;:&quot;page-005.jpg&quot;,&quot;imageId&quot;:5,&quot;bounds&quot;:{&quot;x&quot;:1410,&quot;y&quot;:697,&quot;w&quot;:33,&quot;h&quot;:63},&quot;atoms&quot;:[{&quot;id&quot;:5543,&quot;token&quot;:&quot;a:1&quot;,&quot;particle_id&quot;:&quot;img5-m21-p1&quot;,&quot;molecule_id&quot;:&quot;img5-m21&quot;,&quot;atom_order&quot;:5}]}</metadata>
  <rect x="0" y="0" width="33" height="63" fill="#f8f0d8"/>
  <image href="file:///C:/Users/HHHES/AppData/Roaming/com.voynichlab.datasetcreator/images/1/a6cd3b6e-2a78-4b30-a4be-5d186aea258e.jpg" x="-1410" y="-697" width="2691" height="3770" opacity="0.92"/>
  <rect x="0.5" y="0.5" width="32" height="62" fill="none" stroke="#111827" stroke-width="1" opacity="0.35"/>
  <polyline points="17,16 16,16 16,17 16,18 16,19 16,20 16,21 16,22 16,23 16,24 16,25 16,26 16,27 16,28 16,29 16,30 16,31 16,32 16,33 16,34 16,35 16,36 16,37 16,38 16,39 16,40 16,41 16,42 16,43 16,44 16,45 16,46 16,47" fill="none" stroke="#00f0b5" stroke-width="3" stroke-linecap="round" stroke-linejoin="round" opacity="0.95">
    <title>5543 a:1</title>
  </polyline>
</svg>
