<?xml version="1.0" encoding="UTF-8"?>
<svg xmlns="http://www.w3.org/2000/svg" width="33" height="66" viewBox="0 0 33 66">
  <title>atom 5544 a:1</title>
  <metadata>{&quot;entityType&quot;:&quot;atom&quot;,&quot;entityId&quot;:&quot;5544&quot;,&quot;token&quot;:&quot;a:1&quot;,&quot;signature&quot;:&quot;a:1&quot;,&quot;imageName&quot;:&quot;page-005.jpg&quot;,&quot;imageId&quot;:5,&quot;bounds&quot;:{&quot;x&quot;:1063,&quot;y&quot;:739,&quot;w&quot;:33,&quot;h&quot;:66},&quot;atoms&quot;:[{&quot;id&quot;:5544,&quot;token&quot;:&quot;a:1&quot;,&quot;particle_id&quot;:&quot;img5-m23-p2&quot;,&quot;molecule_id&quot;:&quot;img5-m23&quot;,&quot;atom_order&quot;:1}]}</metadata>
  <rect x="0" y="0" width="33" height="66" fill="#f8f0d8"/>
  <image href="file:///C:/Users/HHHES/AppData/Roaming/com.voynichlab.datasetcreator/images/1/a6cd3b6e-2a78-4b30-a4be-5d186aea258e.jpg" x="-1063" y="-739" width="2691" height="3770" opacity="0.92"/>
  <rect x="0.5" y="0.5" width="32" height="65" fill="none" stroke="#111827" stroke-width="1" opacity="0.35"/>
  <polyline points="17,50 17,49 17,48 17,47 17,46 17,45 17,44 17,43 17,42 17,41 17,40 17,39 17,38 17,37 17,36 17,35 17,34 17,33 17,32 17,31 17,30 17,29 17,28 17,27 17,26 17,25 16,25 16,24 16,23 16,22 16,21 16,20 16,19 16,18 16,17 16,16" fill="none" stroke="#00f0b5" stroke-width="3" stroke-linecap="round" stroke-linejoin="round" opacity="0.95">
    <title>5544 a:1</title>
  </polyline>
</svg>
