<?xml version="1.0" encoding="UTF-8"?>
<svg xmlns="http://www.w3.org/2000/svg" width="35" height="95" viewBox="0 0 35 95">
  <title>atom 5545 a:1</title>
  <metadata>{&quot;entityType&quot;:&quot;atom&quot;,&quot;entityId&quot;:&quot;5545&quot;,&quot;token&quot;:&quot;a:1&quot;,&quot;signature&quot;:&quot;a:1&quot;,&quot;imageName&quot;:&quot;page-005.jpg&quot;,&quot;imageId&quot;:5,&quot;bounds&quot;:{&quot;x&quot;:1081,&quot;y&quot;:710,&quot;w&quot;:35,&quot;h&quot;:95},&quot;atoms&quot;:[{&quot;id&quot;:5545,&quot;token&quot;:&quot;a:1&quot;,&quot;particle_id&quot;:&quot;img5-m23-p2&quot;,&quot;molecule_id&quot;:&quot;img5-m23&quot;,&quot;atom_order&quot;:4}]}</metadata>
  <rect x="0" y="0" width="35" height="95" fill="#f8f0d8"/>
  <image href="file:///C:/Users/HHHES/AppData/Roaming/com.voynichlab.datasetcreator/images/1/a6cd3b6e-2a78-4b30-a4be-5d186aea258e.jpg" x="-1081" y="-710" width="2691" height="3770" opacity="0.92"/>
  <rect x="0.5" y="0.5" width="34" height="94" fill="none" stroke="#111827" stroke-width="1" opacity="0.35"/>
  <polyline points="19,16 19,17 19,18 19,19 19,20 19,21 19,22 19,23 18,23 18,24 18,25 18,26 18,27 18,28 18,30 18,31 18,32 18,33 18,34 18,35 18,36 17,37 17,38 17,39 17,40 17,41 17,42 17,43 17,44 17,46 17,47 17,48 16,48 16,49 16,50 16,51 16,52 16,53 16,54 16,56 16,57 16,58 16,59 16,60 16,61 16,62 16,63 16,64 16,65 16,66 16,67 16,68 16,69 16,70 16,71 16,72 17,72 17,73 17,74 17,75 17,76 17,77 17,78 17,79 18,79 18,78" fill="none" stroke="#00f0b5" stroke-width="3" stroke-linecap="round" stroke-linejoin="round" opacity="0.95">
    <title>5545 a:1</title>
  </polyline>
</svg>
