<?xml version="1.0" encoding="UTF-8"?>
<svg xmlns="http://www.w3.org/2000/svg" width="39" height="83" viewBox="0 0 39 83">
  <title>atom 5548 a:1</title>
  <metadata>{&quot;entityType&quot;:&quot;atom&quot;,&quot;entityId&quot;:&quot;5548&quot;,&quot;token&quot;:&quot;a:1&quot;,&quot;signature&quot;:&quot;a:1&quot;,&quot;imageName&quot;:&quot;page-005.jpg&quot;,&quot;imageId&quot;:5,&quot;bounds&quot;:{&quot;x&quot;:1728,&quot;y&quot;:793,&quot;w&quot;:39,&quot;h&quot;:83},&quot;atoms&quot;:[{&quot;id&quot;:5548,&quot;token&quot;:&quot;a:1&quot;,&quot;particle_id&quot;:&quot;img5-m32-p2&quot;,&quot;molecule_id&quot;:&quot;img5-m32&quot;,&quot;atom_order&quot;:1}]}</metadata>
  <rect x="0" y="0" width="39" height="83" fill="#f8f0d8"/>
  <image href="file:///C:/Users/HHHES/AppData/Roaming/com.voynichlab.datasetcreator/images/1/a6cd3b6e-2a78-4b30-a4be-5d186aea258e.jpg" x="-1728" y="-793" width="2691" height="3770" opacity="0.92"/>
  <rect x="0.5" y="0.5" width="38" height="82" fill="none" stroke="#111827" stroke-width="1" opacity="0.35"/>
  <polyline points="16,16 17,16 17,17 18,17 18,18 19,18 19,19 19,20 20,20 20,21 20,22 20,23 20,24 20,25 20,26 20,27 20,28 20,29 20,30 20,31 20,32 20,33 20,34 20,35 20,36 20,37 20,38 20,39 20,40 20,41 20,42 20,43 20,44 20,45 20,46 20,47 21,48 21,49 21,51 21,52 21,53 21,54 21,55 21,56 21,57 21,58 22,59 22,60 22,61 22,62 23,63 23,64 23,65 23,66 23,67 23,66 23,65 23,63" fill="none" stroke="#00f0b5" stroke-width="3" stroke-linecap="round" stroke-linejoin="round" opacity="0.95">
    <title>5548 a:1</title>
  </polyline>
</svg>
