<?xml version="1.0" encoding="UTF-8"?>
<svg xmlns="http://www.w3.org/2000/svg" width="33" height="58" viewBox="0 0 33 58">
  <title>atom 5550 a:1</title>
  <metadata>{&quot;entityType&quot;:&quot;atom&quot;,&quot;entityId&quot;:&quot;5550&quot;,&quot;token&quot;:&quot;a:1&quot;,&quot;signature&quot;:&quot;a:1&quot;,&quot;imageName&quot;:&quot;page-005.jpg&quot;,&quot;imageId&quot;:5,&quot;bounds&quot;:{&quot;x&quot;:1972,&quot;y&quot;:899,&quot;w&quot;:33,&quot;h&quot;:58},&quot;atoms&quot;:[{&quot;id&quot;:5550,&quot;token&quot;:&quot;a:1&quot;,&quot;particle_id&quot;:&quot;img5-m35-p1&quot;,&quot;molecule_id&quot;:&quot;img5-m35&quot;,&quot;atom_order&quot;:2}]}</metadata>
  <rect x="0" y="0" width="33" height="58" fill="#f8f0d8"/>
  <image href="file:///C:/Users/HHHES/AppData/Roaming/com.voynichlab.datasetcreator/images/1/a6cd3b6e-2a78-4b30-a4be-5d186aea258e.jpg" x="-1972" y="-899" width="2691" height="3770" opacity="0.92"/>
  <rect x="0.5" y="0.5" width="32" height="57" fill="none" stroke="#111827" stroke-width="1" opacity="0.35"/>
  <polyline points="17,16 16,17 16,18 16,19 16,20 16,21 16,22 16,23 16,24 16,25 16,26 16,27 16,28 16,29 16,30 16,31 17,31 17,32 17,33 17,34 17,35 17,36 17,37 17,38 17,39 17,40 17,41 16,42" fill="none" stroke="#00f0b5" stroke-width="3" stroke-linecap="round" stroke-linejoin="round" opacity="0.95">
    <title>5550 a:1</title>
  </polyline>
</svg>
