<?xml version="1.0" encoding="UTF-8"?>
<svg xmlns="http://www.w3.org/2000/svg" width="37" height="92" viewBox="0 0 37 92">
  <title>atom 5555 a:1</title>
  <metadata>{&quot;entityType&quot;:&quot;atom&quot;,&quot;entityId&quot;:&quot;5555&quot;,&quot;token&quot;:&quot;a:1&quot;,&quot;signature&quot;:&quot;a:1&quot;,&quot;imageName&quot;:&quot;page-005.jpg&quot;,&quot;imageId&quot;:5,&quot;bounds&quot;:{&quot;x&quot;:1045,&quot;y&quot;:869,&quot;w&quot;:37,&quot;h&quot;:92},&quot;atoms&quot;:[{&quot;id&quot;:5555,&quot;token&quot;:&quot;a:1&quot;,&quot;particle_id&quot;:&quot;img5-m40-p2&quot;,&quot;molecule_id&quot;:&quot;img5-m40&quot;,&quot;atom_order&quot;:4}]}</metadata>
  <rect x="0" y="0" width="37" height="92" fill="#f8f0d8"/>
  <image href="file:///C:/Users/HHHES/AppData/Roaming/com.voynichlab.datasetcreator/images/1/a6cd3b6e-2a78-4b30-a4be-5d186aea258e.jpg" x="-1045" y="-869" width="2691" height="3770" opacity="0.92"/>
  <rect x="0.5" y="0.5" width="36" height="91" fill="none" stroke="#111827" stroke-width="1" opacity="0.35"/>
  <polyline points="21,16 21,17 20,18 20,19 20,20 20,22 19,24 19,25 19,27 19,28 19,29 19,30 19,31 19,32 19,33 19,34 19,35 19,36 19,37 19,38 19,39 18,40 18,41 18,43 18,44 18,45 18,46 18,48 18,49 17,50 17,51 17,52 17,53 17,54 17,55 17,56 17,57 17,58 16,59 16,60 16,61 16,62 16,63 16,64 16,65 16,66 16,67 16,68 16,69 16,70 16,71 16,72 16,73 16,74 16,75 16,76" fill="none" stroke="#00f0b5" stroke-width="3" stroke-linecap="round" stroke-linejoin="round" opacity="0.95">
    <title>5555 a:1</title>
  </polyline>
</svg>
