<?xml version="1.0" encoding="UTF-8"?>
<svg xmlns="http://www.w3.org/2000/svg" width="36" height="88" viewBox="0 0 36 88">
  <title>atom 5556 a:1</title>
  <metadata>{&quot;entityType&quot;:&quot;atom&quot;,&quot;entityId&quot;:&quot;5556&quot;,&quot;token&quot;:&quot;a:1&quot;,&quot;signature&quot;:&quot;a:1&quot;,&quot;imageName&quot;:&quot;page-005.jpg&quot;,&quot;imageId&quot;:5,&quot;bounds&quot;:{&quot;x&quot;:606,&quot;y&quot;:935,&quot;w&quot;:36,&quot;h&quot;:88},&quot;atoms&quot;:[{&quot;id&quot;:5556,&quot;token&quot;:&quot;a:1&quot;,&quot;particle_id&quot;:&quot;img5-m43-p1&quot;,&quot;molecule_id&quot;:&quot;img5-m43&quot;,&quot;atom_order&quot;:2}]}</metadata>
  <rect x="0" y="0" width="36" height="88" fill="#f8f0d8"/>
  <image href="file:///C:/Users/HHHES/AppData/Roaming/com.voynichlab.datasetcreator/images/1/a6cd3b6e-2a78-4b30-a4be-5d186aea258e.jpg" x="-606" y="-935" width="2691" height="3770" opacity="0.92"/>
  <rect x="0.5" y="0.5" width="35" height="87" fill="none" stroke="#111827" stroke-width="1" opacity="0.35"/>
  <polyline points="20,16 20,17 20,18 20,20 20,22 20,23 20,25 19,26 19,28 19,29 19,30 19,31 19,32 19,33 19,34 19,36 19,37 19,38 19,39 19,40 18,41 18,42 18,44 18,45 18,47 18,48 18,50 18,51 18,52 18,53 18,54 18,55 18,56 17,57 17,58 17,59 17,60 17,61 17,62 17,63 17,64 17,65 16,66 16,67 16,68 16,70 16,71 16,72" fill="none" stroke="#00f0b5" stroke-width="3" stroke-linecap="round" stroke-linejoin="round" opacity="0.95">
    <title>5556 a:1</title>
  </polyline>
</svg>
