<?xml version="1.0" encoding="UTF-8"?>
<svg xmlns="http://www.w3.org/2000/svg" width="38" height="135" viewBox="0 0 38 135">
  <title>atom 5948 a:1</title>
  <metadata>{&quot;entityType&quot;:&quot;atom&quot;,&quot;entityId&quot;:&quot;5948&quot;,&quot;token&quot;:&quot;a:1&quot;,&quot;signature&quot;:&quot;a:1&quot;,&quot;imageName&quot;:&quot;page-005.jpg&quot;,&quot;imageId&quot;:5,&quot;bounds&quot;:{&quot;x&quot;:475,&quot;y&quot;:2384,&quot;w&quot;:38,&quot;h&quot;:135},&quot;atoms&quot;:[{&quot;id&quot;:5948,&quot;token&quot;:&quot;a:1&quot;,&quot;particle_id&quot;:&quot;img5-m48-p1&quot;,&quot;molecule_id&quot;:&quot;img5-m48&quot;,&quot;atom_order&quot;:4}]}</metadata>
  <rect x="0" y="0" width="38" height="135" fill="#f8f0d8"/>
  <image href="file:///C:/Users/HHHES/AppData/Roaming/com.voynichlab.datasetcreator/images/1/a6cd3b6e-2a78-4b30-a4be-5d186aea258e.jpg" x="-475" y="-2384" width="2691" height="3770" opacity="0.92"/>
  <rect x="0.5" y="0.5" width="37" height="134" fill="none" stroke="#111827" stroke-width="1" opacity="0.35"/>
  <polyline points="22,16 21,16 20,16 20,17 20,18 20,19 20,20 20,21 19,22 19,23 19,24 19,25 19,26 19,27 19,28 19,29 19,30 19,31 19,32 19,33 19,34 19,35 19,36 19,37 19,38 19,39 19,41 19,42 19,44 19,45 19,47 19,48 19,49 19,50 19,51 18,53 18,54 18,55 18,56 18,57 18,58 18,59 18,60 18,61 18,62 18,63 18,64 18,65 17,66 17,67 17,68 17,69 17,71 17,73 17,74 17,75 17,76 17,77 17,78 17,79 17,81 17,82 17,84 17,85 17,87 17,89 17,90 17,92 17,93 16,95 16,96 16,97 16,98 16,99 16,100 16,101 16,103 16,105 16,106 16,107 16,108 16,109 16,111 16,113 16,114 16,115 16,116 16,117 16,118 16,119" fill="none" stroke="#00f0b5" stroke-width="3" stroke-linecap="round" stroke-linejoin="round" opacity="0.95">
    <title>5948 a:1</title>
  </polyline>
</svg>
