<?xml version="1.0" encoding="UTF-8"?>
<svg xmlns="http://www.w3.org/2000/svg" width="35" height="63" viewBox="0 0 35 63">
  <title>atom 5949 a:1</title>
  <metadata>{&quot;entityType&quot;:&quot;atom&quot;,&quot;entityId&quot;:&quot;5949&quot;,&quot;token&quot;:&quot;a:1&quot;,&quot;signature&quot;:&quot;a:1&quot;,&quot;imageName&quot;:&quot;page-005.jpg&quot;,&quot;imageId&quot;:5,&quot;bounds&quot;:{&quot;x&quot;:951,&quot;y&quot;:2503,&quot;w&quot;:35,&quot;h&quot;:63},&quot;atoms&quot;:[{&quot;id&quot;:5949,&quot;token&quot;:&quot;a:1&quot;,&quot;particle_id&quot;:&quot;img5-m54-p1&quot;,&quot;molecule_id&quot;:&quot;img5-m54&quot;,&quot;atom_order&quot;:1}]}</metadata>
  <rect x="0" y="0" width="35" height="63" fill="#f8f0d8"/>
  <image href="file:///C:/Users/HHHES/AppData/Roaming/com.voynichlab.datasetcreator/images/1/a6cd3b6e-2a78-4b30-a4be-5d186aea258e.jpg" x="-951" y="-2503" width="2691" height="3770" opacity="0.92"/>
  <rect x="0.5" y="0.5" width="34" height="62" fill="none" stroke="#111827" stroke-width="1" opacity="0.35"/>
  <polyline points="17,47 17,46 17,45 17,44 17,43 17,41 17,39 16,39 16,38 16,37 16,36 16,35 16,34 16,33 17,32 17,31 17,30 17,29 18,28 18,27 18,26 18,25 18,24 18,23 18,22 19,21 19,20 19,19 19,18 19,17 19,16" fill="none" stroke="#00f0b5" stroke-width="3" stroke-linecap="round" stroke-linejoin="round" opacity="0.95">
    <title>5949 a:1</title>
  </polyline>
</svg>
