<?xml version="1.0" encoding="UTF-8"?>
<svg xmlns="http://www.w3.org/2000/svg" width="33" height="118" viewBox="0 0 33 118">
  <title>atom 5950 a:1</title>
  <metadata>{&quot;entityType&quot;:&quot;atom&quot;,&quot;entityId&quot;:&quot;5950&quot;,&quot;token&quot;:&quot;a:1&quot;,&quot;signature&quot;:&quot;a:1&quot;,&quot;imageName&quot;:&quot;page-005.jpg&quot;,&quot;imageId&quot;:5,&quot;bounds&quot;:{&quot;x&quot;:1302,&quot;y&quot;:2420,&quot;w&quot;:33,&quot;h&quot;:118},&quot;atoms&quot;:[{&quot;id&quot;:5950,&quot;token&quot;:&quot;a:1&quot;,&quot;particle_id&quot;:&quot;img5-m57-p3&quot;,&quot;molecule_id&quot;:&quot;img5-m57&quot;,&quot;atom_order&quot;:1}]}</metadata>
  <rect x="0" y="0" width="33" height="118" fill="#f8f0d8"/>
  <image href="file:///C:/Users/HHHES/AppData/Roaming/com.voynichlab.datasetcreator/images/1/a6cd3b6e-2a78-4b30-a4be-5d186aea258e.jpg" x="-1302" y="-2420" width="2691" height="3770" opacity="0.92"/>
  <rect x="0.5" y="0.5" width="32" height="117" fill="none" stroke="#111827" stroke-width="1" opacity="0.35"/>
  <polyline points="16,16 16,17 16,18 16,19 16,20 16,21 16,23 16,25 16,26 16,27 16,28 16,29 16,30 16,32 16,33 16,34 16,35 16,36 16,37 16,38 16,40 16,42 16,43 16,44 16,45 16,46 16,48 16,50 16,51 16,52 16,53 16,55 16,56 16,58 16,60 16,61 16,62 16,64 16,65 16,67 16,68 16,70 16,71 16,72 16,74 16,75 16,76 16,77 16,78 16,79 16,80 16,81 16,82 16,84 16,85 16,86 16,88 16,89 16,90 16,91 16,92 16,93 16,94 16,95 16,97 16,98 16,99 16,100 16,101 16,102" fill="none" stroke="#00f0b5" stroke-width="3" stroke-linecap="round" stroke-linejoin="round" opacity="0.95">
    <title>5950 a:1</title>
  </polyline>
</svg>
