<?xml version="1.0" encoding="UTF-8"?>
<svg xmlns="http://www.w3.org/2000/svg" width="33" height="82" viewBox="0 0 33 82">
  <title>atom 5964 a:1</title>
  <metadata>{&quot;entityType&quot;:&quot;atom&quot;,&quot;entityId&quot;:&quot;5964&quot;,&quot;token&quot;:&quot;a:1&quot;,&quot;signature&quot;:&quot;a:1&quot;,&quot;imageName&quot;:&quot;page-005.jpg&quot;,&quot;imageId&quot;:5,&quot;bounds&quot;:{&quot;x&quot;:533,&quot;y&quot;:2604,&quot;w&quot;:33,&quot;h&quot;:82},&quot;atoms&quot;:[{&quot;id&quot;:5964,&quot;token&quot;:&quot;a:1&quot;,&quot;particle_id&quot;:&quot;img5-m72-p2&quot;,&quot;molecule_id&quot;:&quot;img5-m72&quot;,&quot;atom_order&quot;:4}]}</metadata>
  <rect x="0" y="0" width="33" height="82" fill="#f8f0d8"/>
  <image href="file:///C:/Users/HHHES/AppData/Roaming/com.voynichlab.datasetcreator/images/1/a6cd3b6e-2a78-4b30-a4be-5d186aea258e.jpg" x="-533" y="-2604" width="2691" height="3770" opacity="0.92"/>
  <rect x="0.5" y="0.5" width="32" height="81" fill="none" stroke="#111827" stroke-width="1" opacity="0.35"/>
  <polyline points="17,16 17,17 17,18 17,19 17,20 17,21 17,23 17,25 17,26 17,28 17,29 17,30 17,32 17,33 17,34 17,35 17,36 17,37 16,38 16,39 16,40 16,41 16,42 16,43 16,45 16,46 16,47 16,48 16,50 16,51 16,52 16,53 16,54 16,55 16,56 17,56 17,57 17,58 17,59 17,60 17,61 17,62 17,63 17,64 17,65 17,66" fill="none" stroke="#00f0b5" stroke-width="3" stroke-linecap="round" stroke-linejoin="round" opacity="0.95">
    <title>5964 a:1</title>
  </polyline>
</svg>
