<?xml version="1.0" encoding="UTF-8"?>
<svg xmlns="http://www.w3.org/2000/svg" width="33" height="85" viewBox="0 0 33 85">
  <title>atom 5966 a:1</title>
  <metadata>{&quot;entityType&quot;:&quot;atom&quot;,&quot;entityId&quot;:&quot;5966&quot;,&quot;token&quot;:&quot;a:1&quot;,&quot;signature&quot;:&quot;a:1&quot;,&quot;imageName&quot;:&quot;page-005.jpg&quot;,&quot;imageId&quot;:5,&quot;bounds&quot;:{&quot;x&quot;:522,&quot;y&quot;:2605,&quot;w&quot;:33,&quot;h&quot;:85},&quot;atoms&quot;:[{&quot;id&quot;:5966,&quot;token&quot;:&quot;a:1&quot;,&quot;particle_id&quot;:&quot;img5-m72-p2&quot;,&quot;molecule_id&quot;:&quot;img5-m72&quot;,&quot;atom_order&quot;:1}]}</metadata>
  <rect x="0" y="0" width="33" height="85" fill="#f8f0d8"/>
  <image href="file:///C:/Users/HHHES/AppData/Roaming/com.voynichlab.datasetcreator/images/1/a6cd3b6e-2a78-4b30-a4be-5d186aea258e.jpg" x="-522" y="-2605" width="2691" height="3770" opacity="0.92"/>
  <rect x="0.5" y="0.5" width="32" height="84" fill="none" stroke="#111827" stroke-width="1" opacity="0.35"/>
  <polyline points="17,16 17,17 17,18 17,19 17,21 17,23 17,25 16,27 16,28 16,29 16,30 16,31 16,32 16,34 16,35 16,37 16,39 16,40 16,42 16,43 16,44 16,45 16,47 17,48 17,49 17,50 17,51 17,52 17,53 17,54 17,55 17,57 17,58 17,59 17,60 17,61 17,62 17,63 17,64 17,65 17,66 17,67 17,68 17,69" fill="none" stroke="#00f0b5" stroke-width="3" stroke-linecap="round" stroke-linejoin="round" opacity="0.95">
    <title>5966 a:1</title>
  </polyline>
</svg>
