<?xml version="1.0" encoding="UTF-8"?>
<svg xmlns="http://www.w3.org/2000/svg" width="33" height="86" viewBox="0 0 33 86">
  <title>atom 5972 a:1</title>
  <metadata>{&quot;entityType&quot;:&quot;atom&quot;,&quot;entityId&quot;:&quot;5972&quot;,&quot;token&quot;:&quot;a:1&quot;,&quot;signature&quot;:&quot;a:1&quot;,&quot;imageName&quot;:&quot;page-005.jpg&quot;,&quot;imageId&quot;:5,&quot;bounds&quot;:{&quot;x&quot;:1704,&quot;y&quot;:2596,&quot;w&quot;:33,&quot;h&quot;:86},&quot;atoms&quot;:[{&quot;id&quot;:5972,&quot;token&quot;:&quot;a:1&quot;,&quot;particle_id&quot;:&quot;img5-m70-p1&quot;,&quot;molecule_id&quot;:&quot;img5-m70&quot;,&quot;atom_order&quot;:6}]}</metadata>
  <rect x="0" y="0" width="33" height="86" fill="#f8f0d8"/>
  <image href="file:///C:/Users/HHHES/AppData/Roaming/com.voynichlab.datasetcreator/images/1/a6cd3b6e-2a78-4b30-a4be-5d186aea258e.jpg" x="-1704" y="-2596" width="2691" height="3770" opacity="0.92"/>
  <rect x="0.5" y="0.5" width="32" height="85" fill="none" stroke="#111827" stroke-width="1" opacity="0.35"/>
  <polyline points="16,16 16,17 16,19 16,21 16,23 16,25 16,26 16,28 16,30 16,32 16,34 16,35 16,37 16,38 17,39 17,40 17,41 17,43 17,44 17,45 17,46 17,47 17,48 17,50 17,51 17,53 17,54 17,55 17,57 17,58 17,60 17,61 17,62 17,63 17,64 17,65 17,66 17,67 16,68 16,69 16,70" fill="none" stroke="#00f0b5" stroke-width="3" stroke-linecap="round" stroke-linejoin="round" opacity="0.95">
    <title>5972 a:1</title>
  </polyline>
</svg>
