<?xml version="1.0" encoding="UTF-8"?>
<svg xmlns="http://www.w3.org/2000/svg" width="36" height="91" viewBox="0 0 36 91">
  <title>atom 5974 a:1</title>
  <metadata>{&quot;entityType&quot;:&quot;atom&quot;,&quot;entityId&quot;:&quot;5974&quot;,&quot;token&quot;:&quot;a:1&quot;,&quot;signature&quot;:&quot;a:1&quot;,&quot;imageName&quot;:&quot;page-005.jpg&quot;,&quot;imageId&quot;:5,&quot;bounds&quot;:{&quot;x&quot;:1864,&quot;y&quot;:2588,&quot;w&quot;:36,&quot;h&quot;:91},&quot;atoms&quot;:[{&quot;id&quot;:5974,&quot;token&quot;:&quot;a:1&quot;,&quot;particle_id&quot;:&quot;img5-m69-p1&quot;,&quot;molecule_id&quot;:&quot;img5-m69&quot;,&quot;atom_order&quot;:4}]}</metadata>
  <rect x="0" y="0" width="36" height="91" fill="#f8f0d8"/>
  <image href="file:///C:/Users/HHHES/AppData/Roaming/com.voynichlab.datasetcreator/images/1/a6cd3b6e-2a78-4b30-a4be-5d186aea258e.jpg" x="-1864" y="-2588" width="2691" height="3770" opacity="0.92"/>
  <rect x="0.5" y="0.5" width="35" height="90" fill="none" stroke="#111827" stroke-width="1" opacity="0.35"/>
  <polyline points="20,17 19,16 19,17 19,18 19,20 19,22 19,23 19,25 19,28 18,30 18,33 18,36 18,39 17,43 17,46 17,50 17,53 16,55 16,57 16,58 16,60 16,61 16,63 16,65 16,67 16,69 16,70 16,71 16,72 16,73 16,74 16,75" fill="none" stroke="#00f0b5" stroke-width="3" stroke-linecap="round" stroke-linejoin="round" opacity="0.95">
    <title>5974 a:1</title>
  </polyline>
</svg>
