<?xml version="1.0" encoding="UTF-8"?>
<svg xmlns="http://www.w3.org/2000/svg" width="35" height="92" viewBox="0 0 35 92">
  <title>atom 5975 a:1</title>
  <metadata>{&quot;entityType&quot;:&quot;atom&quot;,&quot;entityId&quot;:&quot;5975&quot;,&quot;token&quot;:&quot;a:1&quot;,&quot;signature&quot;:&quot;a:1&quot;,&quot;imageName&quot;:&quot;page-005.jpg&quot;,&quot;imageId&quot;:5,&quot;bounds&quot;:{&quot;x&quot;:2155,&quot;y&quot;:2645,&quot;w&quot;:35,&quot;h&quot;:92},&quot;atoms&quot;:[{&quot;id&quot;:5975,&quot;token&quot;:&quot;a:1&quot;,&quot;particle_id&quot;:&quot;img5-m77-p1&quot;,&quot;molecule_id&quot;:&quot;img5-m77&quot;,&quot;atom_order&quot;:2}]}</metadata>
  <rect x="0" y="0" width="35" height="92" fill="#f8f0d8"/>
  <image href="file:///C:/Users/HHHES/AppData/Roaming/com.voynichlab.datasetcreator/images/1/a6cd3b6e-2a78-4b30-a4be-5d186aea258e.jpg" x="-2155" y="-2645" width="2691" height="3770" opacity="0.92"/>
  <rect x="0.5" y="0.5" width="34" height="91" fill="none" stroke="#111827" stroke-width="1" opacity="0.35"/>
  <polyline points="16,16 16,17 16,18 16,19 17,21 17,24 16,27 16,29 16,32 16,35 16,37 16,40 16,42 16,44 16,45 16,47 17,49 17,50 17,52 18,54 18,56 18,58 19,59 19,60 19,62 19,63 19,64 19,66 19,67 19,68 19,70 19,72 19,74 19,75 19,76 19,75" fill="none" stroke="#00f0b5" stroke-width="3" stroke-linecap="round" stroke-linejoin="round" opacity="0.95">
    <title>5975 a:1</title>
  </polyline>
</svg>
