<?xml version="1.0" encoding="UTF-8"?>
<svg xmlns="http://www.w3.org/2000/svg" width="34" height="94" viewBox="0 0 34 94">
  <title>atom 5976 a:1</title>
  <metadata>{&quot;entityType&quot;:&quot;atom&quot;,&quot;entityId&quot;:&quot;5976&quot;,&quot;token&quot;:&quot;a:1&quot;,&quot;signature&quot;:&quot;a:1&quot;,&quot;imageName&quot;:&quot;page-005.jpg&quot;,&quot;imageId&quot;:5,&quot;bounds&quot;:{&quot;x&quot;:2175,&quot;y&quot;:2637,&quot;w&quot;:34,&quot;h&quot;:94},&quot;atoms&quot;:[{&quot;id&quot;:5976,&quot;token&quot;:&quot;a:1&quot;,&quot;particle_id&quot;:&quot;img5-m77-p1&quot;,&quot;molecule_id&quot;:&quot;img5-m77&quot;,&quot;atom_order&quot;:5}]}</metadata>
  <rect x="0" y="0" width="34" height="94" fill="#f8f0d8"/>
  <image href="file:///C:/Users/HHHES/AppData/Roaming/com.voynichlab.datasetcreator/images/1/a6cd3b6e-2a78-4b30-a4be-5d186aea258e.jpg" x="-2175" y="-2637" width="2691" height="3770" opacity="0.92"/>
  <rect x="0.5" y="0.5" width="33" height="93" fill="none" stroke="#111827" stroke-width="1" opacity="0.35"/>
  <polyline points="17,16 16,17 16,18 16,19 16,20 16,21 16,23 17,25 17,27 17,30 17,33 17,36 17,39 17,42 17,45 17,48 17,50 17,53 17,55 18,57 18,59 18,61 18,63 18,65 18,67 18,69 18,70 17,72 17,74 17,75 17,76 17,77 17,78" fill="none" stroke="#00f0b5" stroke-width="3" stroke-linecap="round" stroke-linejoin="round" opacity="0.95">
    <title>5976 a:1</title>
  </polyline>
</svg>
