<?xml version="1.0" encoding="UTF-8"?>
<svg xmlns="http://www.w3.org/2000/svg" width="33" height="91" viewBox="0 0 33 91">
  <title>atom 5978 a:1</title>
  <metadata>{&quot;entityType&quot;:&quot;atom&quot;,&quot;entityId&quot;:&quot;5978&quot;,&quot;token&quot;:&quot;a:1&quot;,&quot;signature&quot;:&quot;a:1&quot;,&quot;imageName&quot;:&quot;page-005.jpg&quot;,&quot;imageId&quot;:5,&quot;bounds&quot;:{&quot;x&quot;:2145,&quot;y&quot;:2723,&quot;w&quot;:33,&quot;h&quot;:91},&quot;atoms&quot;:[{&quot;id&quot;:5978,&quot;token&quot;:&quot;a:1&quot;,&quot;particle_id&quot;:&quot;img5-m92-p3&quot;,&quot;molecule_id&quot;:&quot;img5-m92&quot;,&quot;atom_order&quot;:4}]}</metadata>
  <rect x="0" y="0" width="33" height="91" fill="#f8f0d8"/>
  <image href="file:///C:/Users/HHHES/AppData/Roaming/com.voynichlab.datasetcreator/images/1/a6cd3b6e-2a78-4b30-a4be-5d186aea258e.jpg" x="-2145" y="-2723" width="2691" height="3770" opacity="0.92"/>
  <rect x="0.5" y="0.5" width="32" height="90" fill="none" stroke="#111827" stroke-width="1" opacity="0.35"/>
  <polyline points="17,16 17,17 17,18 17,20 17,22 17,24 17,27 17,29 17,31 17,33 17,36 16,40 16,43 16,45 16,47 16,48 16,50 16,52 16,54 16,55 16,57 16,59 16,60 16,61 16,62 16,64 16,65 16,67 16,68 16,69 16,70 16,71 16,72 16,73 16,74 16,75 17,75" fill="none" stroke="#00f0b5" stroke-width="3" stroke-linecap="round" stroke-linejoin="round" opacity="0.95">
    <title>5978 a:1</title>
  </polyline>
</svg>
