<?xml version="1.0" encoding="UTF-8"?>
<svg xmlns="http://www.w3.org/2000/svg" width="46" height="83" viewBox="0 0 46 83">
  <title>atom 5979 a:1</title>
  <metadata>{&quot;entityType&quot;:&quot;atom&quot;,&quot;entityId&quot;:&quot;5979&quot;,&quot;token&quot;:&quot;a:1&quot;,&quot;signature&quot;:&quot;a:1&quot;,&quot;imageName&quot;:&quot;page-005.jpg&quot;,&quot;imageId&quot;:5,&quot;bounds&quot;:{&quot;x&quot;:1917,&quot;y&quot;:2733,&quot;w&quot;:46,&quot;h&quot;:83},&quot;atoms&quot;:[{&quot;id&quot;:5979,&quot;token&quot;:&quot;a:1&quot;,&quot;particle_id&quot;:&quot;img5-m93-p3&quot;,&quot;molecule_id&quot;:&quot;img5-m93&quot;,&quot;atom_order&quot;:1}]}</metadata>
  <rect x="0" y="0" width="46" height="83" fill="#f8f0d8"/>
  <image href="file:///C:/Users/HHHES/AppData/Roaming/com.voynichlab.datasetcreator/images/1/a6cd3b6e-2a78-4b30-a4be-5d186aea258e.jpg" x="-1917" y="-2733" width="2691" height="3770" opacity="0.92"/>
  <rect x="0.5" y="0.5" width="45" height="82" fill="none" stroke="#111827" stroke-width="1" opacity="0.35"/>
  <polyline points="16,16 17,16 18,17 19,17 19,18 20,19 20,20 21,21 22,21 22,22 22,23 23,24 23,25 24,27 24,28 25,29 25,30 25,32 26,34 26,36 27,36 27,37 27,39 28,40 28,41 28,42 28,43 28,44 29,45 29,46 29,48 29,49 30,50 30,52 30,53 30,55 30,56 30,57 29,58 29,59 29,60 29,61 29,62 29,63 29,64 29,65 29,66 29,67" fill="none" stroke="#00f0b5" stroke-width="3" stroke-linecap="round" stroke-linejoin="round" opacity="0.95">
    <title>5979 a:1</title>
  </polyline>
</svg>
