<?xml version="1.0" encoding="UTF-8"?>
<svg xmlns="http://www.w3.org/2000/svg" width="33" height="90" viewBox="0 0 33 90">
  <title>atom 5980 a:1</title>
  <metadata>{&quot;entityType&quot;:&quot;atom&quot;,&quot;entityId&quot;:&quot;5980&quot;,&quot;token&quot;:&quot;a:1&quot;,&quot;signature&quot;:&quot;a:1&quot;,&quot;imageName&quot;:&quot;page-005.jpg&quot;,&quot;imageId&quot;:5,&quot;bounds&quot;:{&quot;x&quot;:1944,&quot;y&quot;:2725,&quot;w&quot;:33,&quot;h&quot;:90},&quot;atoms&quot;:[{&quot;id&quot;:5980,&quot;token&quot;:&quot;a:1&quot;,&quot;particle_id&quot;:&quot;img5-m93-p3&quot;,&quot;molecule_id&quot;:&quot;img5-m93&quot;,&quot;atom_order&quot;:5}]}</metadata>
  <rect x="0" y="0" width="33" height="90" fill="#f8f0d8"/>
  <image href="file:///C:/Users/HHHES/AppData/Roaming/com.voynichlab.datasetcreator/images/1/a6cd3b6e-2a78-4b30-a4be-5d186aea258e.jpg" x="-1944" y="-2725" width="2691" height="3770" opacity="0.92"/>
  <rect x="0.5" y="0.5" width="32" height="89" fill="none" stroke="#111827" stroke-width="1" opacity="0.35"/>
  <polyline points="16,16 16,17 16,18 16,20 16,21 16,23 16,26 16,28 16,31 16,34 16,36 16,38 16,41 17,43 17,45 17,47 17,48 17,50 17,53 17,55 17,58 17,60 17,61 17,63 17,64 17,65 17,67 17,69 17,70 17,71 17,72 17,73 16,74" fill="none" stroke="#00f0b5" stroke-width="3" stroke-linecap="round" stroke-linejoin="round" opacity="0.95">
    <title>5980 a:1</title>
  </polyline>
</svg>
