<?xml version="1.0" encoding="UTF-8"?>
<svg xmlns="http://www.w3.org/2000/svg" width="36" height="85" viewBox="0 0 36 85">
  <title>atom 5982 a:1</title>
  <metadata>{&quot;entityType&quot;:&quot;atom&quot;,&quot;entityId&quot;:&quot;5982&quot;,&quot;token&quot;:&quot;a:1&quot;,&quot;signature&quot;:&quot;a:1&quot;,&quot;imageName&quot;:&quot;page-005.jpg&quot;,&quot;imageId&quot;:5,&quot;bounds&quot;:{&quot;x&quot;:1281,&quot;y&quot;:2864,&quot;w&quot;:36,&quot;h&quot;:85},&quot;atoms&quot;:[{&quot;id&quot;:5982,&quot;token&quot;:&quot;a:1&quot;,&quot;particle_id&quot;:&quot;img5-m104-p2&quot;,&quot;molecule_id&quot;:&quot;img5-m104&quot;,&quot;atom_order&quot;:6}]}</metadata>
  <rect x="0" y="0" width="36" height="85" fill="#f8f0d8"/>
  <image href="file:///C:/Users/HHHES/AppData/Roaming/com.voynichlab.datasetcreator/images/1/a6cd3b6e-2a78-4b30-a4be-5d186aea258e.jpg" x="-1281" y="-2864" width="2691" height="3770" opacity="0.92"/>
  <rect x="0.5" y="0.5" width="35" height="84" fill="none" stroke="#111827" stroke-width="1" opacity="0.35"/>
  <polyline points="20,16 20,17 20,18 19,19 19,21 18,23 18,26 17,29 17,31 17,34 16,35 16,37 16,40 16,42 16,44 16,46 16,48 16,49 16,51 16,52 16,54 16,55 16,57 16,58 16,59 16,61 16,62 16,63 16,64 16,65 16,66 16,67 16,68 16,69" fill="none" stroke="#00f0b5" stroke-width="3" stroke-linecap="round" stroke-linejoin="round" opacity="0.95">
    <title>5982 a:1</title>
  </polyline>
</svg>
