<?xml version="1.0" encoding="UTF-8"?>
<svg xmlns="http://www.w3.org/2000/svg" width="39" height="95" viewBox="0 0 39 95">
  <title>atom 5987 a:1</title>
  <metadata>{&quot;entityType&quot;:&quot;atom&quot;,&quot;entityId&quot;:&quot;5987&quot;,&quot;token&quot;:&quot;a:1&quot;,&quot;signature&quot;:&quot;a:1&quot;,&quot;imageName&quot;:&quot;page-005.jpg&quot;,&quot;imageId&quot;:5,&quot;bounds&quot;:{&quot;x&quot;:947,&quot;y&quot;:2766,&quot;w&quot;:39,&quot;h&quot;:95},&quot;atoms&quot;:[{&quot;id&quot;:5987,&quot;token&quot;:&quot;a:1&quot;,&quot;particle_id&quot;:&quot;img5-m90-p1&quot;,&quot;molecule_id&quot;:&quot;img5-m90&quot;,&quot;atom_order&quot;:2}]}</metadata>
  <rect x="0" y="0" width="39" height="95" fill="#f8f0d8"/>
  <image href="file:///C:/Users/HHHES/AppData/Roaming/com.voynichlab.datasetcreator/images/1/a6cd3b6e-2a78-4b30-a4be-5d186aea258e.jpg" x="-947" y="-2766" width="2691" height="3770" opacity="0.92"/>
  <rect x="0.5" y="0.5" width="38" height="94" fill="none" stroke="#111827" stroke-width="1" opacity="0.35"/>
  <polyline points="17,16 16,16 17,16 18,17 19,17 20,18 21,18 21,19 21,20 21,21 21,22 21,23 22,24 22,25 22,27 22,28 22,30 22,31 22,33 22,35 22,36 22,38 22,39 22,40 22,41 22,43 22,44 23,47 23,48 23,50 23,51 23,53 23,55 23,57 23,58 23,59 23,60 23,62 23,63 23,65 23,67 23,68 23,69 23,70 23,72 22,74 22,75 22,76 22,77 22,78 22,79" fill="none" stroke="#00f0b5" stroke-width="3" stroke-linecap="round" stroke-linejoin="round" opacity="0.95">
    <title>5987 a:1</title>
  </polyline>
</svg>
