<?xml version="1.0" encoding="UTF-8"?>
<svg xmlns="http://www.w3.org/2000/svg" width="36" height="98" viewBox="0 0 36 98">
  <title>atom 5988 a:1</title>
  <metadata>{&quot;entityType&quot;:&quot;atom&quot;,&quot;entityId&quot;:&quot;5988&quot;,&quot;token&quot;:&quot;a:1&quot;,&quot;signature&quot;:&quot;a:1&quot;,&quot;imageName&quot;:&quot;page-005.jpg&quot;,&quot;imageId&quot;:5,&quot;bounds&quot;:{&quot;x&quot;:969,&quot;y&quot;:2767,&quot;w&quot;:36,&quot;h&quot;:98},&quot;atoms&quot;:[{&quot;id&quot;:5988,&quot;token&quot;:&quot;a:1&quot;,&quot;particle_id&quot;:&quot;img5-m90-p1&quot;,&quot;molecule_id&quot;:&quot;img5-m90&quot;,&quot;atom_order&quot;:6}]}</metadata>
  <rect x="0" y="0" width="36" height="98" fill="#f8f0d8"/>
  <image href="file:///C:/Users/HHHES/AppData/Roaming/com.voynichlab.datasetcreator/images/1/a6cd3b6e-2a78-4b30-a4be-5d186aea258e.jpg" x="-969" y="-2767" width="2691" height="3770" opacity="0.92"/>
  <rect x="0.5" y="0.5" width="35" height="97" fill="none" stroke="#111827" stroke-width="1" opacity="0.35"/>
  <polyline points="20,16 20,17 19,18 19,20 18,24 17,27 17,30 17,32 16,34 16,35 16,37 16,39 16,40 16,42 16,43 16,45 16,47 16,49 16,50 16,51 16,53 16,54 16,56 17,56 17,57 17,59 17,60 17,61 17,63 17,64 17,65 17,67 17,68 17,69 17,71 17,72 17,73 17,75 17,76 17,77 17,78 17,79 17,80 18,81 18,82" fill="none" stroke="#00f0b5" stroke-width="3" stroke-linecap="round" stroke-linejoin="round" opacity="0.95">
    <title>5988 a:1</title>
  </polyline>
</svg>
