<?xml version="1.0" encoding="UTF-8"?>
<svg xmlns="http://www.w3.org/2000/svg" width="36" height="92" viewBox="0 0 36 92">
  <title>atom 6009 a:1</title>
  <metadata>{&quot;entityType&quot;:&quot;atom&quot;,&quot;entityId&quot;:&quot;6009&quot;,&quot;token&quot;:&quot;a:1&quot;,&quot;signature&quot;:&quot;a:1&quot;,&quot;imageName&quot;:&quot;page-005.jpg&quot;,&quot;imageId&quot;:5,&quot;bounds&quot;:{&quot;x&quot;:645,&quot;y&quot;:2847,&quot;w&quot;:36,&quot;h&quot;:92},&quot;atoms&quot;:[{&quot;id&quot;:6009,&quot;token&quot;:&quot;a:1&quot;,&quot;particle_id&quot;:&quot;img5-m102-p3&quot;,&quot;molecule_id&quot;:&quot;img5-m102&quot;,&quot;atom_order&quot;:1}]}</metadata>
  <rect x="0" y="0" width="36" height="92" fill="#f8f0d8"/>
  <image href="file:///C:/Users/HHHES/AppData/Roaming/com.voynichlab.datasetcreator/images/1/a6cd3b6e-2a78-4b30-a4be-5d186aea258e.jpg" x="-645" y="-2847" width="2691" height="3770" opacity="0.92"/>
  <rect x="0.5" y="0.5" width="35" height="91" fill="none" stroke="#111827" stroke-width="1" opacity="0.35"/>
  <polyline points="20,16 20,17 20,18 19,19 19,20 19,21 19,22 19,23 19,24 19,25 19,26 19,27 19,28 18,29 18,31 18,32 18,33 18,34 18,36 18,37 18,38 18,39 18,40 18,41 17,42 17,43 17,45 17,46 17,47 17,48 17,49 17,50 17,51 16,51 16,53 16,54 16,55 16,56 16,57 16,58 16,59 16,60 16,61 16,62 16,63 16,64 16,65 16,66 16,67 16,68 16,69 16,70 16,71 16,72 16,73 16,74 16,75 16,76" fill="none" stroke="#00f0b5" stroke-width="3" stroke-linecap="round" stroke-linejoin="round" opacity="0.95">
    <title>6009 a:1</title>
  </polyline>
</svg>
