<?xml version="1.0" encoding="UTF-8"?>
<svg xmlns="http://www.w3.org/2000/svg" width="59" height="84" viewBox="0 0 59 84">
  <title>particle img3-m72-p1 e:1 h:1</title>
  <metadata>{&quot;entityType&quot;:&quot;particle&quot;,&quot;entityId&quot;:&quot;img3-m72-p1&quot;,&quot;token&quot;:&quot;e:1 h:1&quot;,&quot;signature&quot;:&quot;e:1 h:1&quot;,&quot;imageName&quot;:&quot;page-003.jpg&quot;,&quot;imageId&quot;:3,&quot;bounds&quot;:{&quot;x&quot;:648,&quot;y&quot;:1503,&quot;w&quot;:59,&quot;h&quot;:84},&quot;atoms&quot;:[{&quot;id&quot;:2097,&quot;token&quot;:&quot;e:1&quot;,&quot;particle_id&quot;:&quot;img3-m72-p1&quot;,&quot;molecule_id&quot;:&quot;img3-m72&quot;,&quot;atom_order&quot;:1},{&quot;id&quot;:2098,&quot;token&quot;:&quot;h:1&quot;,&quot;particle_id&quot;:&quot;img3-m72-p1&quot;,&quot;molecule_id&quot;:&quot;img3-m72&quot;,&quot;atom_order&quot;:2}]}</metadata>
  <rect x="0" y="0" width="59" height="84" fill="#f8f0d8"/>
  <image href="file:///C:/Users/HHHES/AppData/Roaming/com.voynichlab.datasetcreator/images/1/35a70f63-88ab-4986-b441-b78046a10087.jpg" x="-648" y="-1503" width="2972" height="3766" opacity="0.92"/>
  <rect x="0.5" y="0.5" width="58" height="83" fill="none" stroke="#111827" stroke-width="1" opacity="0.35"/>
  <polyline points="29,33 28,33 27,33 26,33 25,33 24,33 23,33 22,33 21,33 21,32 20,32 19,32 18,32 18,31 17,31 17,30 16,30 16,29 16,28 16,27 16,26 16,25 17,25 17,24 18,24 18,23 19,23 19,22 20,22 21,22 21,21 22,21 23,20 24,20 25,20 25,19 26,19 27,19 27,18 28,18 29,18 30,18 30,17 31,17 32,17 33,17 34,17 35,17" fill="none" stroke="#f2e45c" stroke-width="3" stroke-linecap="round" stroke-linejoin="round" opacity="0.95">
    <title>2097 e:1</title>
  </polyline>
  <polyline points="35,16 35,17 36,17 37,17 37,18 38,18 38,19 39,19 39,20 40,20 40,21 41,22 41,23 41,24 42,24 42,25 42,26 42,27 42,28 42,29 42,30 43,31 43,32 43,33 43,34 43,35 43,36 43,37 43,38 43,39 43,40 43,41 43,42 43,43 43,44 43,45 43,46 43,47 43,48 43,49 43,50 42,50 42,51 42,52 42,53 42,54 41,54 41,55 41,56 40,57 40,58 39,59 39,60 39,61 38,62 38,63 37,63 37,64 36,65 36,66 35,66 35,67 34,67 34,68" fill="none" stroke="#ff8c00" stroke-width="3" stroke-linecap="round" stroke-linejoin="round" opacity="0.95">
    <title>2098 h:1</title>
  </polyline>
</svg>
