<?xml version="1.0" encoding="UTF-8"?>
<svg xmlns="http://www.w3.org/2000/svg" width="64" height="87" viewBox="0 0 64 87">
  <title>particle img3-m163-p3 f:1 i:1 d:1</title>
  <metadata>{&quot;entityType&quot;:&quot;particle&quot;,&quot;entityId&quot;:&quot;img3-m163-p3&quot;,&quot;token&quot;:&quot;f:1 i:1 d:1&quot;,&quot;signature&quot;:&quot;f:1 i:1 d:1&quot;,&quot;imageName&quot;:&quot;page-003.jpg&quot;,&quot;imageId&quot;:3,&quot;bounds&quot;:{&quot;x&quot;:1854,&quot;y&quot;:2610,&quot;w&quot;:64,&quot;h&quot;:87},&quot;atoms&quot;:[{&quot;id&quot;:3866,&quot;token&quot;:&quot;f:1&quot;,&quot;particle_id&quot;:&quot;img3-m163-p3&quot;,&quot;molecule_id&quot;:&quot;img3-m163&quot;,&quot;atom_order&quot;:1},{&quot;id&quot;:3878,&quot;token&quot;:&quot;i:1&quot;,&quot;particle_id&quot;:&quot;img3-m163-p3&quot;,&quot;molecule_id&quot;:&quot;img3-m163&quot;,&quot;atom_order&quot;:2},{&quot;id&quot;:3886,&quot;token&quot;:&quot;d:1&quot;,&quot;particle_id&quot;:&quot;img3-m163-p3&quot;,&quot;molecule_id&quot;:&quot;img3-m163&quot;,&quot;atom_order&quot;:3}]}</metadata>
  <rect x="0" y="0" width="64" height="87" fill="#f8f0d8"/>
  <image href="file:///C:/Users/HHHES/AppData/Roaming/com.voynichlab.datasetcreator/images/1/35a70f63-88ab-4986-b441-b78046a10087.jpg" x="-1854" y="-2610" width="2972" height="3766" opacity="0.92"/>
  <rect x="0.5" y="0.5" width="63" height="86" fill="none" stroke="#111827" stroke-width="1" opacity="0.35"/>
  <polyline points="24,50 24,51 24,52 25,52 25,53 25,54 26,54 26,55 27,56 27,57 28,57 28,58 29,59 29,60 30,60 30,61 31,61 31,62 32,62 32,63 32,64 33,64 33,65 33,66 34,66 34,67 35,67 35,68 36,69 36,70 37,70 37,71" fill="none" stroke="#00a2ff" stroke-width="3" stroke-linecap="round" stroke-linejoin="round" opacity="0.95">
    <title>3866 f:1</title>
  </polyline>
  <polyline points="27,56 28,56 29,55 30,54 31,53 32,52 33,51 34,51 34,50 35,50 36,49 37,48 37,47 38,47 39,46 40,45 41,44 42,43 43,42 44,41 44,40 45,40 45,39 45,38 45,37 46,36 46,35 46,34 46,33 46,32 47,31 47,30 47,28 48,28 48,27 48,26 48,25 48,24 48,23 47,23" fill="none" stroke="#00ff7f" stroke-width="3" stroke-linecap="round" stroke-linejoin="round" opacity="0.95">
    <title>3878 i:1</title>
  </polyline>
  <polyline points="16,21 17,21 18,21 18,20 19,20 19,19 20,19 21,18 22,18 23,18 24,17 25,17 26,17 27,16 28,16 29,16 30,16 31,16 32,16 33,16 34,16 35,16 36,17 37,17 38,17 38,18 39,18 40,18 40,19 41,19 42,19 42,20 43,20 43,21 44,21 45,21 45,22 46,22 46,23 47,23 47,24 48,24 48,25" fill="none" stroke="#ff2d55" stroke-width="3" stroke-linecap="round" stroke-linejoin="round" opacity="0.95">
    <title>3886 d:1</title>
  </polyline>
</svg>
