<?xml version="1.0" encoding="UTF-8"?>
<svg xmlns="http://www.w3.org/2000/svg" width="58" height="74" viewBox="0 0 58 74">
  <title>particle img3-m162-p1 e:1 c:1 h:2</title>
  <metadata>{&quot;entityType&quot;:&quot;particle&quot;,&quot;entityId&quot;:&quot;img3-m162-p1&quot;,&quot;token&quot;:&quot;e:1 c:1 h:2&quot;,&quot;signature&quot;:&quot;e:1 c:1 h:2&quot;,&quot;imageName&quot;:&quot;page-003.jpg&quot;,&quot;imageId&quot;:3,&quot;bounds&quot;:{&quot;x&quot;:1783,&quot;y&quot;:2611,&quot;w&quot;:58,&quot;h&quot;:74},&quot;atoms&quot;:[{&quot;id&quot;:3830,&quot;token&quot;:&quot;e:1&quot;,&quot;particle_id&quot;:&quot;img3-m162-p1&quot;,&quot;molecule_id&quot;:&quot;img3-m162&quot;,&quot;atom_order&quot;:1},{&quot;id&quot;:3849,&quot;token&quot;:&quot;c:1&quot;,&quot;particle_id&quot;:&quot;img3-m162-p1&quot;,&quot;molecule_id&quot;:&quot;img3-m162&quot;,&quot;atom_order&quot;:2},{&quot;id&quot;:3844,&quot;token&quot;:&quot;h:2&quot;,&quot;particle_id&quot;:&quot;img3-m162-p1&quot;,&quot;molecule_id&quot;:&quot;img3-m162&quot;,&quot;atom_order&quot;:3}]}</metadata>
  <rect x="0" y="0" width="58" height="74" fill="#f8f0d8"/>
  <image href="file:///C:/Users/HHHES/AppData/Roaming/com.voynichlab.datasetcreator/images/1/35a70f63-88ab-4986-b441-b78046a10087.jpg" x="-1783" y="-2611" width="2972" height="3766" opacity="0.92"/>
  <rect x="0.5" y="0.5" width="57" height="73" fill="none" stroke="#111827" stroke-width="1" opacity="0.35"/>
  <polyline points="31,55 31,56 30,56 30,57 29,57 28,57 28,58 27,58 26,58 25,58 24,58 23,58 22,58 21,58 21,57 20,57 19,57 18,57 18,56 17,56 16,56 16,55 16,54 16,53 16,52 16,51 16,50 16,49 17,49 17,48 17,47 17,46 18,46 18,45 18,44 19,44 19,43 19,42 20,42 21,42 21,41 22,41 22,40 23,40 24,40 24,39 25,39 26,39 27,39 27,38" fill="none" stroke="#f2e45c" stroke-width="3" stroke-linecap="round" stroke-linejoin="round" opacity="0.95">
    <title>3830 e:1</title>
  </polyline>
  <polyline points="36,16 37,16 38,16 39,16 39,17 40,17 41,17 41,18 42,18 42,19 42,20 42,21 42,22 42,23 42,24 42,25 41,26 41,27 40,28 39,29 38,29 38,30 37,30 37,31 36,31 35,31 35,32 34,32 33,32 32,32 31,32 30,32 29,32 28,32 27,32 26,32 26,31 25,31 25,30 24,30 24,29 24,28 23,28 23,27 23,26 23,25 23,24 24,23 24,22 25,21 25,20 26,20 27,20 27,19 28,19 29,19 29,18 30,18 31,18 31,17 32,17 33,17 34,17 35,17 36,17 37,17" fill="none" stroke="#8aff00" stroke-width="3" stroke-linecap="round" stroke-linejoin="round" opacity="0.95">
    <title>3849 c:1</title>
  </polyline>
  <polyline points="31,57 31,56 32,56 32,55 33,54 33,53 34,53 34,52 34,51 35,50 35,49 35,48 35,47 35,46 34,45 34,44 33,43 33,42 32,42 32,41 31,40 30,39 29,38 28,37 27,36 26,36 25,35 25,34 24,34 24,33 23,33 23,32 22,32 22,31 21,31 21,30 21,29 20,29 20,28 20,27 20,26 20,25 20,24 21,24 21,23 22,22 23,21 24,21 24,20 25,19 26,19 26,18 27,18 28,18 28,17 29,17 30,17 31,16 32,16 33,16 34,16 35,16 36,16 37,16 38,16" fill="none" stroke="#ff8c00" stroke-width="3" stroke-linecap="round" stroke-linejoin="round" opacity="0.95">
    <title>3844 h:2</title>
  </polyline>
</svg>
