<?xml version="1.0" encoding="UTF-8"?>
<svg xmlns="http://www.w3.org/2000/svg" width="58" height="78" viewBox="0 0 58 78">
  <title>particle img3-m91-p1 e:1 c:1 h:2</title>
  <metadata>{&quot;entityType&quot;:&quot;particle&quot;,&quot;entityId&quot;:&quot;img3-m91-p1&quot;,&quot;token&quot;:&quot;e:1 c:1 h:2&quot;,&quot;signature&quot;:&quot;e:1 c:1 h:2&quot;,&quot;imageName&quot;:&quot;page-003.jpg&quot;,&quot;imageId&quot;:3,&quot;bounds&quot;:{&quot;x&quot;:546,&quot;y&quot;:1742,&quot;w&quot;:58,&quot;h&quot;:78},&quot;atoms&quot;:[{&quot;id&quot;:2585,&quot;token&quot;:&quot;e:1&quot;,&quot;particle_id&quot;:&quot;img3-m91-p1&quot;,&quot;molecule_id&quot;:&quot;img3-m91&quot;,&quot;atom_order&quot;:1},{&quot;id&quot;:2584,&quot;token&quot;:&quot;c:1&quot;,&quot;particle_id&quot;:&quot;img3-m91-p1&quot;,&quot;molecule_id&quot;:&quot;img3-m91&quot;,&quot;atom_order&quot;:2},{&quot;id&quot;:2588,&quot;token&quot;:&quot;h:2&quot;,&quot;particle_id&quot;:&quot;img3-m91-p1&quot;,&quot;molecule_id&quot;:&quot;img3-m91&quot;,&quot;atom_order&quot;:3}]}</metadata>
  <rect x="0" y="0" width="58" height="78" fill="#f8f0d8"/>
  <image href="file:///C:/Users/HHHES/AppData/Roaming/com.voynichlab.datasetcreator/images/1/35a70f63-88ab-4986-b441-b78046a10087.jpg" x="-546" y="-1742" width="2972" height="3766" opacity="0.92"/>
  <rect x="0.5" y="0.5" width="57" height="77" fill="none" stroke="#111827" stroke-width="1" opacity="0.35"/>
  <polyline points="31,59 31,60 30,60 30,61 29,61 28,61 28,62 27,62 26,62 25,62 24,62 23,62 22,62 21,62 21,61 20,61 19,61 18,61 18,60 17,60 16,60 16,59 16,58 16,57 16,56 16,55 16,54 16,53 17,53 17,52 17,51 17,50 18,50 18,49 18,48 19,48 19,47 19,46 20,46 21,46 21,45 22,45 22,44 23,44 24,44 24,43 25,43 26,43 27,43 27,42" fill="none" stroke="#f2e45c" stroke-width="3" stroke-linecap="round" stroke-linejoin="round" opacity="0.95">
    <title>2585 e:1</title>
  </polyline>
  <polyline points="24,22 24,23 23,23 23,24 23,25 22,25 22,26 22,27 22,28 22,29 22,30 22,31 22,32 23,32 23,33 24,33 24,34 25,35 26,35 27,35 28,35 28,36 29,36 30,36 31,36 32,36 33,36 34,36 35,36 36,36 36,35 37,35 38,35 38,34 38,33 39,33 39,32 40,32 40,31 40,30 41,30 41,29 41,28 42,28 42,27 42,26 42,25 42,24 42,23 42,22 41,22 41,21 41,20 40,20 40,19 39,19 39,18 38,18 38,17 37,17 36,17 36,16 35,16 34,16 33,16 32,16 31,16 30,16 29,16 28,17 27,17 27,18 26,18 26,19 25,19 24,19 24,20 23,20 23,21 23,22" fill="none" stroke="#8aff00" stroke-width="3" stroke-linecap="round" stroke-linejoin="round" opacity="0.95">
    <title>2584 c:1</title>
  </polyline>
  <polyline points="31,60 31,59 32,59 32,58 33,58 33,57 33,56 33,55 34,55 34,54 34,53 34,48 34,46 33,46 33,45 33,44 32,44 32,43 31,43 31,42 30,42 30,41 29,41 28,40 28,39 27,39 26,38 26,37 25,37 24,36 23,35 23,34 22,34 22,33 22,32 21,31 21,30 20,30 20,29 20,28 20,27 20,26 20,25 20,24 21,24 21,23 22,23 22,22 23,22 23,21 24,21" fill="none" stroke="#ff8c00" stroke-width="3" stroke-linecap="round" stroke-linejoin="round" opacity="0.95">
    <title>2588 h:2</title>
  </polyline>
</svg>
