<?xml version="1.0" encoding="UTF-8"?>
<svg xmlns="http://www.w3.org/2000/svg" width="46" height="65" viewBox="0 0 46 65">
  <title>particle img3-m89-p3 e:1 c:1 h:2</title>
  <metadata>{&quot;entityType&quot;:&quot;particle&quot;,&quot;entityId&quot;:&quot;img3-m89-p3&quot;,&quot;token&quot;:&quot;e:1 c:1 h:2&quot;,&quot;signature&quot;:&quot;e:1 c:1 h:2&quot;,&quot;imageName&quot;:&quot;page-003.jpg&quot;,&quot;imageId&quot;:3,&quot;bounds&quot;:{&quot;x&quot;:2361,&quot;y&quot;:1745,&quot;w&quot;:46,&quot;h&quot;:65},&quot;atoms&quot;:[{&quot;id&quot;:2470,&quot;token&quot;:&quot;e:1&quot;,&quot;particle_id&quot;:&quot;img3-m89-p3&quot;,&quot;molecule_id&quot;:&quot;img3-m89&quot;,&quot;atom_order&quot;:1},{&quot;id&quot;:2469,&quot;token&quot;:&quot;c:1&quot;,&quot;particle_id&quot;:&quot;img3-m89-p3&quot;,&quot;molecule_id&quot;:&quot;img3-m89&quot;,&quot;atom_order&quot;:2},{&quot;id&quot;:2468,&quot;token&quot;:&quot;h:2&quot;,&quot;particle_id&quot;:&quot;img3-m89-p3&quot;,&quot;molecule_id&quot;:&quot;img3-m89&quot;,&quot;atom_order&quot;:3}]}</metadata>
  <rect x="0" y="0" width="46" height="65" fill="#f8f0d8"/>
  <image href="file:///C:/Users/HHHES/AppData/Roaming/com.voynichlab.datasetcreator/images/1/35a70f63-88ab-4986-b441-b78046a10087.jpg" x="-2361" y="-1745" width="2972" height="3766" opacity="0.92"/>
  <rect x="0.5" y="0.5" width="45" height="64" fill="none" stroke="#111827" stroke-width="1" opacity="0.35"/>
  <polyline points="26,48 26,49 25,49 24,49 23,49 22,49 21,49 20,49 20,48 19,48 18,48 18,47 18,46 17,46 17,45 17,44 16,43 16,42 16,41 17,40 17,39 18,38 19,38 19,37 20,37 20,36 21,36 21,35 22,35 22,34 23,34 23,33 24,33 25,33 25,32 26,32" fill="none" stroke="#f2e45c" stroke-width="3" stroke-linecap="round" stroke-linejoin="round" opacity="0.95">
    <title>2470 e:1</title>
  </polyline>
  <polyline points="21,21 21,20 21,19 21,18 22,18 22,17 23,17 24,16 25,16 26,16 26,17 27,17 27,18 28,18 28,19 28,20 28,21 28,22 28,23 28,24 27,24 27,25 26,26 25,26 24,26 23,26 22,26 22,25 21,25 21,24 21,23 21,22 21,21 21,20 21,19" fill="none" stroke="#8aff00" stroke-width="3" stroke-linecap="round" stroke-linejoin="round" opacity="0.95">
    <title>2469 c:1</title>
  </polyline>
  <polyline points="25,49 25,48 26,48 27,48 27,47 28,47 28,46 29,46 29,45 30,44 30,43 30,42 30,41 30,40 30,39 30,38 30,37 30,36 29,36 29,35 29,33 29,32 28,32 28,31 28,30 27,30 27,29 26,29 26,28 25,28 25,27 24,27 23,27 23,26 22,26 22,25 21,25 21,24 20,24 20,23 20,22 20,21 20,20 21,19 21,18 22,18 22,17 23,17" fill="none" stroke="#ff8c00" stroke-width="3" stroke-linecap="round" stroke-linejoin="round" opacity="0.95">
    <title>2468 h:2</title>
  </polyline>
</svg>
