<?xml version="1.0" encoding="UTF-8"?>
<svg xmlns="http://www.w3.org/2000/svg" width="94" height="57" viewBox="0 0 94 57">
  <title>particle img3-m115-p2 e:1 g:1 e:1</title>
  <metadata>{&quot;entityType&quot;:&quot;particle&quot;,&quot;entityId&quot;:&quot;img3-m115-p2&quot;,&quot;token&quot;:&quot;e:1 g:1 e:1&quot;,&quot;signature&quot;:&quot;e:1 g:1 e:1&quot;,&quot;imageName&quot;:&quot;page-003.jpg&quot;,&quot;imageId&quot;:3,&quot;bounds&quot;:{&quot;x&quot;:549,&quot;y&quot;:1916,&quot;w&quot;:94,&quot;h&quot;:57},&quot;atoms&quot;:[{&quot;id&quot;:3228,&quot;token&quot;:&quot;e:1&quot;,&quot;particle_id&quot;:&quot;img3-m115-p2&quot;,&quot;molecule_id&quot;:&quot;img3-m115&quot;,&quot;atom_order&quot;:1},{&quot;id&quot;:3251,&quot;token&quot;:&quot;g:1&quot;,&quot;particle_id&quot;:&quot;img3-m115-p2&quot;,&quot;molecule_id&quot;:&quot;img3-m115&quot;,&quot;atom_order&quot;:2},{&quot;id&quot;:3229,&quot;token&quot;:&quot;e:1&quot;,&quot;particle_id&quot;:&quot;img3-m115-p2&quot;,&quot;molecule_id&quot;:&quot;img3-m115&quot;,&quot;atom_order&quot;:3}]}</metadata>
  <rect x="0" y="0" width="94" height="57" fill="#f8f0d8"/>
  <image href="file:///C:/Users/HHHES/AppData/Roaming/com.voynichlab.datasetcreator/images/1/35a70f63-88ab-4986-b441-b78046a10087.jpg" x="-549" y="-1916" width="2972" height="3766" opacity="0.92"/>
  <rect x="0.5" y="0.5" width="93" height="56" fill="none" stroke="#111827" stroke-width="1" opacity="0.35"/>
  <polyline points="31,38 31,39 30,39 30,40 29,40 28,40 28,41 27,41 26,41 25,41 24,41 23,41 22,41 21,41 21,40 20,40 19,40 18,40 18,39 17,39 16,39 16,38 16,37 16,36 16,35 16,34 16,33 16,32 17,32 17,31 17,30 17,29 18,29 18,28 18,27 19,27 19,26 19,25 20,25 21,25 21,24 22,24 22,23 23,23 24,23 24,22 25,22 26,22 27,22 27,21" fill="none" stroke="#f2e45c" stroke-width="3" stroke-linecap="round" stroke-linejoin="round" opacity="0.95">
    <title>3228 e:1</title>
  </polyline>
  <polyline points="27,22 27,21 28,21 29,21 30,21 31,21 32,21 33,21 34,21 35,21 36,21 37,21 38,21 38,20 39,20 40,20 41,20 42,20 43,20 44,20 45,20 46,20 47,20 48,20 49,20 50,20 51,20 52,20 53,20 54,20 55,20 56,20 57,19 58,19 59,19 60,19 61,19 62,19 63,19 64,19 65,18 66,18 67,18 68,18 69,18 70,18 71,18 72,18 73,18" fill="none" stroke="#7c3cff" stroke-width="3" stroke-linecap="round" stroke-linejoin="round" opacity="0.95">
    <title>3251 g:1</title>
  </polyline>
  <polyline points="78,33 78,34 77,34 77,35 76,35 75,35 75,36 74,36 73,36 72,36 71,36 70,36 69,36 68,36 68,35 67,35 66,35 65,35 65,34 64,34 63,34 63,33 63,32 63,31 63,30 63,29 63,28 63,27 64,27 64,26 64,25 64,24 65,24 65,23 65,22 66,22 66,21 66,20 67,20 68,20 68,19 69,19 69,18 70,18 71,18 71,17 72,17 73,17 74,17 74,16" fill="none" stroke="#f2e45c" stroke-width="3" stroke-linecap="round" stroke-linejoin="round" opacity="0.95">
    <title>3229 e:1</title>
  </polyline>
</svg>
