<?xml version="1.0" encoding="UTF-8"?>
<svg xmlns="http://www.w3.org/2000/svg" width="59" height="78" viewBox="0 0 59 78">
  <title>particle img3-m83-p3 e:1 h:1</title>
  <metadata>{&quot;entityType&quot;:&quot;particle&quot;,&quot;entityId&quot;:&quot;img3-m83-p3&quot;,&quot;token&quot;:&quot;e:1 h:1&quot;,&quot;signature&quot;:&quot;e:1 h:1&quot;,&quot;imageName&quot;:&quot;page-003.jpg&quot;,&quot;imageId&quot;:3,&quot;bounds&quot;:{&quot;x&quot;:900,&quot;y&quot;:1681,&quot;w&quot;:59,&quot;h&quot;:78},&quot;atoms&quot;:[{&quot;id&quot;:2346,&quot;token&quot;:&quot;e:1&quot;,&quot;particle_id&quot;:&quot;img3-m83-p3&quot;,&quot;molecule_id&quot;:&quot;img3-m83&quot;,&quot;atom_order&quot;:1},{&quot;id&quot;:2352,&quot;token&quot;:&quot;h:1&quot;,&quot;particle_id&quot;:&quot;img3-m83-p3&quot;,&quot;molecule_id&quot;:&quot;img3-m83&quot;,&quot;atom_order&quot;:2}]}</metadata>
  <rect x="0" y="0" width="59" height="78" fill="#f8f0d8"/>
  <image href="file:///C:/Users/HHHES/AppData/Roaming/com.voynichlab.datasetcreator/images/1/35a70f63-88ab-4986-b441-b78046a10087.jpg" x="-900" y="-1681" width="2972" height="3766" opacity="0.92"/>
  <rect x="0.5" y="0.5" width="58" height="77" fill="none" stroke="#111827" stroke-width="1" opacity="0.35"/>
  <polyline points="29,30 29,31 29,32 28,32 27,32 27,33 26,33 25,33 24,33 23,33 22,33 21,33 20,33 20,32 19,32 18,32 18,31 17,31 17,30 17,29 16,29 16,28 16,27 16,26 17,26 17,25 18,25 18,24 18,23 18,22 19,22 19,21 20,21 20,20 21,20 21,19 22,19 23,19 23,18 24,18 25,18 25,17 26,17 27,17 28,17 29,17 29,16 30,16 31,16 32,16 33,16 34,16 35,16 36,16 37,16 38,16" fill="none" stroke="#f2e45c" stroke-width="3" stroke-linecap="round" stroke-linejoin="round" opacity="0.95">
    <title>2346 e:1</title>
  </polyline>
  <polyline points="38,16 38,17 39,17 39,18 40,18 40,19 41,20 41,21 41,22 42,22 42,23 42,24 42,25 42,26 42,27 43,27 43,28 43,29 43,30 43,31 43,32 43,33 42,33 42,34 42,35 42,36 42,37 41,37 41,38 41,39 41,40 40,40 40,41 39,41 39,42 38,43 38,44 37,44 36,45 35,46 35,47 34,47 34,48 33,48 33,49 32,49 32,50 31,50 31,51 30,51 30,52 29,52 29,53 28,53 27,54 27,55 26,55 26,56 25,56 25,57 24,57 23,58 22,59 21,59 21,60 20,60 19,61 19,62 18,62" fill="none" stroke="#ff8c00" stroke-width="3" stroke-linecap="round" stroke-linejoin="round" opacity="0.95">
    <title>2352 h:1</title>
  </polyline>
</svg>
