<?xml version="1.0" encoding="UTF-8"?>
<svg xmlns="http://www.w3.org/2000/svg" width="57" height="73" viewBox="0 0 57 73">
  <title>particle img3-m132-p1 e:1 c:1 h:2</title>
  <metadata>{&quot;entityType&quot;:&quot;particle&quot;,&quot;entityId&quot;:&quot;img3-m132-p1&quot;,&quot;token&quot;:&quot;e:1 c:1 h:2&quot;,&quot;signature&quot;:&quot;e:1 c:1 h:2&quot;,&quot;imageName&quot;:&quot;page-003.jpg&quot;,&quot;imageId&quot;:3,&quot;bounds&quot;:{&quot;x&quot;:1940,&quot;y&quot;:2074,&quot;w&quot;:57,&quot;h&quot;:73},&quot;atoms&quot;:[{&quot;id&quot;:3418,&quot;token&quot;:&quot;e:1&quot;,&quot;particle_id&quot;:&quot;img3-m132-p1&quot;,&quot;molecule_id&quot;:&quot;img3-m132&quot;,&quot;atom_order&quot;:1},{&quot;id&quot;:3442,&quot;token&quot;:&quot;c:1&quot;,&quot;particle_id&quot;:&quot;img3-m132-p1&quot;,&quot;molecule_id&quot;:&quot;img3-m132&quot;,&quot;atom_order&quot;:2},{&quot;id&quot;:3473,&quot;token&quot;:&quot;h:2&quot;,&quot;particle_id&quot;:&quot;img3-m132-p1&quot;,&quot;molecule_id&quot;:&quot;img3-m132&quot;,&quot;atom_order&quot;:3}]}</metadata>
  <rect x="0" y="0" width="57" height="73" fill="#f8f0d8"/>
  <image href="file:///C:/Users/HHHES/AppData/Roaming/com.voynichlab.datasetcreator/images/1/35a70f63-88ab-4986-b441-b78046a10087.jpg" x="-1940" y="-2074" width="2972" height="3766" opacity="0.92"/>
  <rect x="0.5" y="0.5" width="56" height="72" fill="none" stroke="#111827" stroke-width="1" opacity="0.35"/>
  <polyline points="31,54 31,55 30,55 30,56 29,56 28,56 28,57 27,57 26,57 25,57 24,57 23,57 22,57 21,57 21,56 20,56 19,56 18,56 18,55 17,55 16,55 16,54 16,53 16,52 16,51 16,50 16,49 16,48 17,48 17,47 17,46 17,45 18,45 18,44 18,43 19,43 19,42 19,41 20,41 21,41 21,40 22,40 22,39 23,39 24,39 24,38 25,38 26,38 27,38 27,37" fill="none" stroke="#f2e45c" stroke-width="3" stroke-linecap="round" stroke-linejoin="round" opacity="0.95">
    <title>3418 e:1</title>
  </polyline>
  <polyline points="32,33 33,33 34,33 35,33 35,32 36,32 36,31 37,31 38,31 38,30 39,30 39,29 40,29 40,28 41,28 41,27 41,26 41,25 41,24 41,23 41,22 41,21 40,20 40,19 39,19 38,18 38,17 37,17 36,17 35,17 34,16 33,16 32,16 31,16 30,16 29,16 28,16 27,16 26,16 26,17 25,17 24,18 24,19 23,19 23,20 23,21 22,21 22,22 22,23 22,24 22,25 22,26 22,27 22,28 23,29 23,30 24,30 24,31 24,32 25,32 26,32 26,33 27,33 28,33 29,33 29,34 30,34 31,34 32,34" fill="none" stroke="#8aff00" stroke-width="3" stroke-linecap="round" stroke-linejoin="round" opacity="0.95">
    <title>3442 c:1</title>
  </polyline>
  <polyline points="30,56 31,56 31,55 32,55 32,54 33,54 33,53 34,53 34,52 34,51 34,50 34,49 34,48 34,47 33,47 33,46 33,45 32,45 32,44 32,43 32,42 31,42 31,41 31,40 30,39 30,38 29,38 29,37 28,37 28,36 27,36 27,35 27,34 26,34 26,33 26,32 25,31 25,30 24,29 24,28 23,28 23,27 23,26 23,25 23,24 23,23 23,22 23,21 23,20" fill="none" stroke="#ff8c00" stroke-width="3" stroke-linecap="round" stroke-linejoin="round" opacity="0.95">
    <title>3473 h:2</title>
  </polyline>
</svg>
