<?xml version="1.0" encoding="UTF-8"?>
<svg xmlns="http://www.w3.org/2000/svg" width="63" height="72" viewBox="0 0 63 72">
  <title>particle img3-m179-p6 e:1 c:1 h:2</title>
  <metadata>{&quot;entityType&quot;:&quot;particle&quot;,&quot;entityId&quot;:&quot;img3-m179-p6&quot;,&quot;token&quot;:&quot;e:1 c:1 h:2&quot;,&quot;signature&quot;:&quot;e:1 c:1 h:2&quot;,&quot;imageName&quot;:&quot;page-003.jpg&quot;,&quot;imageId&quot;:3,&quot;bounds&quot;:{&quot;x&quot;:2189,&quot;y&quot;:2806,&quot;w&quot;:63,&quot;h&quot;:72},&quot;atoms&quot;:[{&quot;id&quot;:4023,&quot;token&quot;:&quot;e:1&quot;,&quot;particle_id&quot;:&quot;img3-m179-p6&quot;,&quot;molecule_id&quot;:&quot;img3-m179&quot;,&quot;atom_order&quot;:1},{&quot;id&quot;:4050,&quot;token&quot;:&quot;c:1&quot;,&quot;particle_id&quot;:&quot;img3-m179-p6&quot;,&quot;molecule_id&quot;:&quot;img3-m179&quot;,&quot;atom_order&quot;:2},{&quot;id&quot;:4071,&quot;token&quot;:&quot;h:2&quot;,&quot;particle_id&quot;:&quot;img3-m179-p6&quot;,&quot;molecule_id&quot;:&quot;img3-m179&quot;,&quot;atom_order&quot;:3}]}</metadata>
  <rect x="0" y="0" width="63" height="72" fill="#f8f0d8"/>
  <image href="file:///C:/Users/HHHES/AppData/Roaming/com.voynichlab.datasetcreator/images/1/35a70f63-88ab-4986-b441-b78046a10087.jpg" x="-2189" y="-2806" width="2972" height="3766" opacity="0.92"/>
  <rect x="0.5" y="0.5" width="62" height="71" fill="none" stroke="#111827" stroke-width="1" opacity="0.35"/>
  <polyline points="31,53 31,54 30,54 30,55 29,55 28,55 28,56 27,56 26,56 25,56 24,56 23,56 22,56 21,56 21,55 20,55 19,55 18,55 18,54 17,54 16,54 16,53 16,52 16,51 16,50 16,49 16,48 16,47 17,47 17,46 17,45 17,44 18,44 18,43 18,42 19,42 19,41 19,40 20,40 21,40 21,39 22,39 22,38 23,38 24,38 24,37 25,37 26,37 27,37 27,36" fill="none" stroke="#f2e45c" stroke-width="3" stroke-linecap="round" stroke-linejoin="round" opacity="0.95">
    <title>4023 e:1</title>
  </polyline>
  <polyline points="38,30 39,30 40,29 41,29 42,29 42,28 43,28 44,27 44,26 45,26 45,25 46,25 46,24 47,23 47,22 47,21 47,20 47,19 46,19 46,18 45,18 44,18 43,17 42,17 41,17 40,17 39,17 38,17 37,17 35,17 34,17 33,17 33,18 32,18 31,19 30,20 29,20 29,21 28,21 28,22 28,23 27,23 27,24 27,25 26,25 26,26 26,27 26,28 26,29 26,30 27,31 28,31 29,32 30,32 31,33 32,33 33,33 34,33 35,33 36,33 37,32 38,32 39,32 40,31 40,30 41,30 41,29 42,29 42,28 43,27" fill="none" stroke="#8aff00" stroke-width="3" stroke-linecap="round" stroke-linejoin="round" opacity="0.95">
    <title>4050 c:1</title>
  </polyline>
  <polyline points="27,56 27,55 28,55 29,55 30,55 30,54 31,54 32,54 32,53 33,53 34,52 35,52 35,51 36,51 36,50 37,50 37,49 37,48 37,47 37,46 37,45 37,44 36,43 36,42 35,42 35,41 34,40 34,39 33,39 32,38 31,37 30,36 29,35 29,34 28,33 28,32 27,31 27,30 27,29 27,28 27,27 27,26 27,25 27,24 27,23 28,23 28,22 28,21 29,21 29,20 30,19 31,19 31,18 32,18 32,17 33,17 34,17 35,16 36,16 37,16" fill="none" stroke="#ff8c00" stroke-width="3" stroke-linecap="round" stroke-linejoin="round" opacity="0.95">
    <title>4071 h:2</title>
  </polyline>
</svg>
