<?xml version="1.0" encoding="UTF-8"?>
<svg xmlns="http://www.w3.org/2000/svg" width="78" height="96" viewBox="0 0 78 96">
  <title>particle img3-m3-p3 f:1 i:1 d:1</title>
  <metadata>{&quot;entityType&quot;:&quot;particle&quot;,&quot;entityId&quot;:&quot;img3-m3-p3&quot;,&quot;token&quot;:&quot;f:1 i:1 d:1&quot;,&quot;signature&quot;:&quot;f:1 i:1 d:1&quot;,&quot;imageName&quot;:&quot;page-003.jpg&quot;,&quot;imageId&quot;:3,&quot;bounds&quot;:{&quot;x&quot;:1620,&quot;y&quot;:468,&quot;w&quot;:78,&quot;h&quot;:96},&quot;atoms&quot;:[{&quot;id&quot;:1081,&quot;token&quot;:&quot;f:1&quot;,&quot;particle_id&quot;:&quot;img3-m3-p3&quot;,&quot;molecule_id&quot;:&quot;img3-m3&quot;,&quot;atom_order&quot;:1},{&quot;id&quot;:1082,&quot;token&quot;:&quot;i:1&quot;,&quot;particle_id&quot;:&quot;img3-m3-p3&quot;,&quot;molecule_id&quot;:&quot;img3-m3&quot;,&quot;atom_order&quot;:2},{&quot;id&quot;:1083,&quot;token&quot;:&quot;d:1&quot;,&quot;particle_id&quot;:&quot;img3-m3-p3&quot;,&quot;molecule_id&quot;:&quot;img3-m3&quot;,&quot;atom_order&quot;:3}]}</metadata>
  <rect x="0" y="0" width="78" height="96" fill="#f8f0d8"/>
  <image href="file:///C:/Users/HHHES/AppData/Roaming/com.voynichlab.datasetcreator/images/1/35a70f63-88ab-4986-b441-b78046a10087.jpg" x="-1620" y="-468" width="2972" height="3766" opacity="0.92"/>
  <rect x="0.5" y="0.5" width="77" height="95" fill="none" stroke="#111827" stroke-width="1" opacity="0.35"/>
  <polyline points="32,59 32,60 32,61 33,61 33,62 33,63 34,63 34,64 35,65 35,66 36,66 36,67 37,68 37,69 38,69 38,70 39,70 39,71 40,71 40,72 40,73 41,73 41,74 41,75 42,75 42,76 43,76 43,77 44,78 44,79 45,79 45,80" fill="none" stroke="#00a2ff" stroke-width="3" stroke-linecap="round" stroke-linejoin="round" opacity="0.95">
    <title>1081 f:1</title>
  </polyline>
  <polyline points="34,63 35,63 35,62 36,62 37,62 37,61 38,61 39,61 40,61 40,60 41,60 42,60 42,59 43,59 44,58 45,58 46,57 47,57 48,57 48,56 49,56 49,55 50,55 51,54 52,54 52,53 53,52 54,51 55,50 56,50 56,49 57,48 57,47 58,47 58,46 59,46 59,45 59,44 60,44 60,43 60,42 60,41 61,41 61,40 61,39 61,38 61,37 62,36 62,35 62,34 62,33 62,32 62,31 62,30 61,30 61,29 61,28 61,27 60,27 60,26 59,26 59,25 59,24 58,24 58,23" fill="none" stroke="#00ff7f" stroke-width="3" stroke-linecap="round" stroke-linejoin="round" opacity="0.95">
    <title>1082 i:1</title>
  </polyline>
  <polyline points="59,25 59,24 58,24 58,23 57,23 57,22 56,22 56,21 55,20 54,20 54,19 53,19 52,19 51,18 50,18 49,18 49,17 48,17 47,17 46,17 45,17 44,17 43,17 42,16 41,16 40,16 39,16 38,16 37,16 36,16 35,16 34,16 33,16 32,16 31,16 31,17 30,17 29,17 28,17 27,17 27,18 26,18 25,18 24,18 24,19 23,19 22,19 22,20 21,20 20,21 19,21 19,22 18,22 18,23 17,23 17,24 16,24 16,25" fill="none" stroke="#ff2d55" stroke-width="3" stroke-linecap="round" stroke-linejoin="round" opacity="0.95">
    <title>1083 d:1</title>
  </polyline>
</svg>
