<?xml version="1.0" encoding="UTF-8"?>
<svg xmlns="http://www.w3.org/2000/svg" width="80" height="84" viewBox="0 0 80 84">
  <title>particle img3-m11-p3 f:1 i:1 d:1</title>
  <metadata>{&quot;entityType&quot;:&quot;particle&quot;,&quot;entityId&quot;:&quot;img3-m11-p3&quot;,&quot;token&quot;:&quot;f:1 i:1 d:1&quot;,&quot;signature&quot;:&quot;f:1 i:1 d:1&quot;,&quot;imageName&quot;:&quot;page-003.jpg&quot;,&quot;imageId&quot;:3,&quot;bounds&quot;:{&quot;x&quot;:2210,&quot;y&quot;:578,&quot;w&quot;:80,&quot;h&quot;:84},&quot;atoms&quot;:[{&quot;id&quot;:1282,&quot;token&quot;:&quot;f:1&quot;,&quot;particle_id&quot;:&quot;img3-m11-p3&quot;,&quot;molecule_id&quot;:&quot;img3-m11&quot;,&quot;atom_order&quot;:1},{&quot;id&quot;:1284,&quot;token&quot;:&quot;i:1&quot;,&quot;particle_id&quot;:&quot;img3-m11-p3&quot;,&quot;molecule_id&quot;:&quot;img3-m11&quot;,&quot;atom_order&quot;:2},{&quot;id&quot;:1285,&quot;token&quot;:&quot;d:1&quot;,&quot;particle_id&quot;:&quot;img3-m11-p3&quot;,&quot;molecule_id&quot;:&quot;img3-m11&quot;,&quot;atom_order&quot;:3}]}</metadata>
  <rect x="0" y="0" width="80" height="84" fill="#f8f0d8"/>
  <image href="file:///C:/Users/HHHES/AppData/Roaming/com.voynichlab.datasetcreator/images/1/35a70f63-88ab-4986-b441-b78046a10087.jpg" x="-2210" y="-578" width="2972" height="3766" opacity="0.92"/>
  <rect x="0.5" y="0.5" width="79" height="83" fill="none" stroke="#111827" stroke-width="1" opacity="0.35"/>
  <polyline points="30,47 30,48 30,49 31,49 31,50 31,51 32,51 32,52 33,53 33,54 34,54 34,55 35,56 35,57 36,57 36,58 37,58 37,59 38,59 38,60 38,61 39,61 39,62 39,63 40,63 40,64 41,64 41,65 42,66 42,67 43,67 43,68" fill="none" stroke="#00a2ff" stroke-width="3" stroke-linecap="round" stroke-linejoin="round" opacity="0.95">
    <title>1282 f:1</title>
  </polyline>
  <polyline points="34,54 35,54 36,54 37,54 38,54 39,54 40,54 41,54 41,53 42,53 43,53 44,53 44,52 45,52 46,52 46,51 47,51 48,51 48,50 49,50 49,49 50,49 51,49 51,48 52,48 52,47 53,47 54,46 55,45 56,45 56,44 57,43 57,42 58,42 58,41 59,41 59,40 59,39 60,39 60,38 61,38 61,37 61,36 62,36 62,35 63,34 63,33 63,32 63,31 64,30 64,29 64,28 63,28 63,27 63,26 62,26 62,25 62,24 61,24 61,23 60,23 60,22 61,22" fill="none" stroke="#00ff7f" stroke-width="3" stroke-linecap="round" stroke-linejoin="round" opacity="0.95">
    <title>1284 i:1</title>
  </polyline>
  <polyline points="16,25 17,25 17,24 18,24 18,23 19,23 20,23 21,22 22,22 23,22 23,21 24,21 25,21 25,20 26,20 27,20 27,19 28,19 29,19 29,18 30,18 31,18 32,18 32,17 33,17 34,17 35,17 36,17 37,17 38,17 38,16 39,16 40,16 41,16 42,16 43,16 44,16 45,16 46,16 47,16 47,17 48,17 49,17 50,17 51,17 52,17 52,18 53,18 54,18 55,18 55,19 56,19 57,19 57,20 58,20 59,20 59,21 60,21 60,22 61,22 61,23 62,23 62,24" fill="none" stroke="#ff2d55" stroke-width="3" stroke-linecap="round" stroke-linejoin="round" opacity="0.95">
    <title>1285 d:1</title>
  </polyline>
</svg>
