<?xml version="1.0" encoding="UTF-8"?>
<svg xmlns="http://www.w3.org/2000/svg" width="64" height="54" viewBox="0 0 64 54">
  <title>particle img3-m37-p2 e:1 f:1</title>
  <metadata>{&quot;entityType&quot;:&quot;particle&quot;,&quot;entityId&quot;:&quot;img3-m37-p2&quot;,&quot;token&quot;:&quot;e:1 f:1&quot;,&quot;signature&quot;:&quot;e:1 f:1&quot;,&quot;imageName&quot;:&quot;page-003.jpg&quot;,&quot;imageId&quot;:3,&quot;bounds&quot;:{&quot;x&quot;:1551,&quot;y&quot;:861,&quot;w&quot;:64,&quot;h&quot;:54},&quot;atoms&quot;:[{&quot;id&quot;:1718,&quot;token&quot;:&quot;e:1&quot;,&quot;particle_id&quot;:&quot;img3-m37-p2&quot;,&quot;molecule_id&quot;:&quot;img3-m37&quot;,&quot;atom_order&quot;:1},{&quot;id&quot;:1717,&quot;token&quot;:&quot;f:1&quot;,&quot;particle_id&quot;:&quot;img3-m37-p2&quot;,&quot;molecule_id&quot;:&quot;img3-m37&quot;,&quot;atom_order&quot;:2}]}</metadata>
  <rect x="0" y="0" width="64" height="54" fill="#f8f0d8"/>
  <image href="file:///C:/Users/HHHES/AppData/Roaming/com.voynichlab.datasetcreator/images/1/35a70f63-88ab-4986-b441-b78046a10087.jpg" x="-1551" y="-861" width="2972" height="3766" opacity="0.92"/>
  <rect x="0.5" y="0.5" width="63" height="53" fill="none" stroke="#111827" stroke-width="1" opacity="0.35"/>
  <polyline points="32,35 31,35 31,36 30,36 29,36 29,37 28,37 27,37 26,37 25,38 24,38 23,38 22,38 21,38 21,37 20,37 20,36 19,36 18,36 18,35 18,34 17,34 17,33 16,32 16,31 16,30 16,29 16,28 17,27 17,26 18,26 18,25 18,24 19,24 19,23 20,23 20,22 21,22 22,21 23,21 24,20 25,20 25,19 26,19 27,19 27,18 28,18 29,18 29,17 30,17 31,17 32,17 33,17 33,16 34,16 35,16" fill="none" stroke="#f2e45c" stroke-width="3" stroke-linecap="round" stroke-linejoin="round" opacity="0.95">
    <title>1718 e:1</title>
  </polyline>
  <polyline points="35,16 35,17 35,18 36,18 36,19 36,20 37,20 37,21 38,22 38,23 39,23 39,24 40,25 40,26 41,26 41,27 42,27 42,28 43,28 43,29 43,30 44,30 44,31 44,32 45,32 45,33 46,33 46,34 47,35 47,36 48,36 48,37" fill="none" stroke="#00a2ff" stroke-width="3" stroke-linecap="round" stroke-linejoin="round" opacity="0.95">
    <title>1717 f:1</title>
  </polyline>
</svg>
