<?xml version="1.0" encoding="UTF-8"?>
<svg xmlns="http://www.w3.org/2000/svg" width="100" height="99" viewBox="0 0 100 99">
  <title>particle img3-m119-p3 a:1 e:1 b:1 c:1 a:1</title>
  <metadata>{&quot;entityType&quot;:&quot;particle&quot;,&quot;entityId&quot;:&quot;img3-m119-p3&quot;,&quot;token&quot;:&quot;a:1 e:1 b:1 c:1 a:1&quot;,&quot;signature&quot;:&quot;a:1 e:1 b:1 c:1 a:1&quot;,&quot;imageName&quot;:&quot;page-003.jpg&quot;,&quot;imageId&quot;:3,&quot;bounds&quot;:{&quot;x&quot;:725,&quot;y&quot;:1941,&quot;w&quot;:100,&quot;h&quot;:99},&quot;atoms&quot;:[{&quot;id&quot;:3367,&quot;token&quot;:&quot;a:1&quot;,&quot;particle_id&quot;:&quot;img3-m119-p3&quot;,&quot;molecule_id&quot;:&quot;img3-m119&quot;,&quot;atom_order&quot;:1},{&quot;id&quot;:3366,&quot;token&quot;:&quot;e:1&quot;,&quot;particle_id&quot;:&quot;img3-m119-p3&quot;,&quot;molecule_id&quot;:&quot;img3-m119&quot;,&quot;atom_order&quot;:2},{&quot;id&quot;:3361,&quot;token&quot;:&quot;b:1&quot;,&quot;particle_id&quot;:&quot;img3-m119-p3&quot;,&quot;molecule_id&quot;:&quot;img3-m119&quot;,&quot;atom_order&quot;:3},{&quot;id&quot;:3350,&quot;token&quot;:&quot;c:1&quot;,&quot;particle_id&quot;:&quot;img3-m119-p3&quot;,&quot;molecule_id&quot;:&quot;img3-m119&quot;,&quot;atom_order&quot;:4},{&quot;id&quot;:3368,&quot;token&quot;:&quot;a:1&quot;,&quot;particle_id&quot;:&quot;img3-m119-p3&quot;,&quot;molecule_id&quot;:&quot;img3-m119&quot;,&quot;atom_order&quot;:5}]}</metadata>
  <rect x="0" y="0" width="100" height="99" fill="#f8f0d8"/>
  <image href="file:///C:/Users/HHHES/AppData/Roaming/com.voynichlab.datasetcreator/images/1/35a70f63-88ab-4986-b441-b78046a10087.jpg" x="-725" y="-1941" width="2972" height="3766" opacity="0.92"/>
  <rect x="0.5" y="0.5" width="99" height="98" fill="none" stroke="#111827" stroke-width="1" opacity="0.35"/>
  <polyline points="35,20 35,21 35,22 35,23 35,24 35,25 35,26 35,27 35,28 35,29 35,30 35,31 35,32 35,33 35,34 36,35 36,36 36,37 36,38 36,39 36,40 36,41 36,42 36,43 36,44 35,45 35,46 35,47 35,48 35,49 35,50 35,51 35,52 35,53 35,54 35,55 35,56 35,57 35,58 35,59 35,60 34,61 34,62 34,63 34,64 34,65 34,66 34,67 34,68 34,69 34,70 34,71 34,72 34,73 34,74 34,75 34,76 34,77 34,78 34,79 34,80" fill="none" stroke="#00f0b5" stroke-width="3" stroke-linecap="round" stroke-linejoin="round" opacity="0.95">
    <title>3367 a:1</title>
  </polyline>
  <polyline points="17,36 16,36 16,35 16,34 16,33 16,32 16,31 16,30 17,29 17,28 18,28 18,27 19,27 19,26 20,26 20,25 21,25 22,25 22,24 23,24 24,23 25,23 26,23 27,23 27,22 28,22 29,22 30,22 30,21 31,21 32,21 33,21 34,20 35,20" fill="none" stroke="#f2e45c" stroke-width="3" stroke-linecap="round" stroke-linejoin="round" opacity="0.95">
    <title>3366 e:1</title>
  </polyline>
  <polyline points="17,36 18,36 19,36 19,37 20,37 21,37 22,37 23,37 23,38 24,38 25,38 26,38 27,38 28,38 29,38 30,38 31,38 32,38 33,38 34,39 35,39 36,39 37,39 38,39 39,39 40,39 41,39 42,39 43,39 44,39 45,39 46,39 47,39 48,39 49,39 50,39 51,39 52,39 53,39 53,38 54,38 55,38 56,38 57,38 58,38 59,38 60,38 61,38 62,38 63,38 64,38 65,38 66,38 67,38 67,37 68,37 69,37 70,37 71,37 72,37 73,36 74,36 74,35 75,35" fill="none" stroke="#2f7df6" stroke-width="3" stroke-linecap="round" stroke-linejoin="round" opacity="0.95">
    <title>3361 b:1</title>
  </polyline>
  <polyline points="75,35 76,34 77,34 78,34 78,33 79,33 80,33 80,32 81,32 82,31 82,30 83,30 83,29 84,28 84,27 84,26 84,25 84,24 84,23 83,23 83,22 82,21 82,20 82,19 81,19 81,18 80,18 80,17 79,17 78,17 77,17 77,16 76,16 75,16 74,16 73,16 72,16 71,16 70,16 69,16 68,16 67,16 66,16 65,16 64,16 63,16 63,17 62,17 61,18 60,19 59,20 59,21 58,21 58,22 58,23 58,24 58,25 58,26 58,27 58,28 58,29 59,29 59,30 59,31 60,31 60,32 61,32 62,33 63,33 64,34 65,34 66,35 67,35 68,35 69,35 70,36 71,36 72,36 73,36 74,35 75,35 76,35 77,35 77,34 78,34" fill="none" stroke="#8aff00" stroke-width="3" stroke-linecap="round" stroke-linejoin="round" opacity="0.95">
    <title>3350 c:1</title>
  </polyline>
  <polyline points="58,24 58,25 58,26 58,27 58,28 58,30 58,31 58,34 58,35 58,37 58,39 58,41 58,43 58,46 58,48 58,50 58,51 58,53 58,54 58,55 58,57 58,58 58,59 58,61 58,62 58,64 58,65 58,67 58,68 58,69 58,71 58,72 58,73 58,74 58,75 58,76 58,77 58,78 58,79 58,80 58,81 58,82 58,83" fill="none" stroke="#00f0b5" stroke-width="3" stroke-linecap="round" stroke-linejoin="round" opacity="0.95">
    <title>3368 a:1</title>
  </polyline>
</svg>
