<?xml version="1.0" encoding="UTF-8"?>
<svg xmlns="http://www.w3.org/2000/svg" width="93" height="54" viewBox="0 0 93 54">
  <title>particle img3-m136-p2 c:2 g:1 e:1</title>
  <metadata>{&quot;entityType&quot;:&quot;particle&quot;,&quot;entityId&quot;:&quot;img3-m136-p2&quot;,&quot;token&quot;:&quot;c:2 g:1 e:1&quot;,&quot;signature&quot;:&quot;c:2 g:1 e:1&quot;,&quot;imageName&quot;:&quot;page-003.jpg&quot;,&quot;imageId&quot;:3,&quot;bounds&quot;:{&quot;x&quot;:1498,&quot;y&quot;:2174,&quot;w&quot;:93,&quot;h&quot;:54},&quot;atoms&quot;:[{&quot;id&quot;:5515,&quot;token&quot;:&quot;c:2&quot;,&quot;particle_id&quot;:&quot;img3-m136-p2&quot;,&quot;molecule_id&quot;:&quot;img3-m136&quot;,&quot;atom_order&quot;:1},{&quot;id&quot;:3568,&quot;token&quot;:&quot;g:1&quot;,&quot;particle_id&quot;:&quot;img3-m136-p2&quot;,&quot;molecule_id&quot;:&quot;img3-m136&quot;,&quot;atom_order&quot;:2},{&quot;id&quot;:3508,&quot;token&quot;:&quot;e:1&quot;,&quot;particle_id&quot;:&quot;img3-m136-p2&quot;,&quot;molecule_id&quot;:&quot;img3-m136&quot;,&quot;atom_order&quot;:3}]}</metadata>
  <rect x="0" y="0" width="93" height="54" fill="#f8f0d8"/>
  <image href="file:///C:/Users/HHHES/AppData/Roaming/com.voynichlab.datasetcreator/images/1/35a70f63-88ab-4986-b441-b78046a10087.jpg" x="-1498" y="-2174" width="2972" height="3766" opacity="0.92"/>
  <rect x="0.5" y="0.5" width="92" height="53" fill="none" stroke="#111827" stroke-width="1" opacity="0.35"/>
  <polyline points="33,19 32,19 31,19 30,19 29,19 28,19 28,20 27,20 26,20 26,21 25,21 24,22 23,22 23,23 22,23 22,24 21,24 21,25 21,26 21,27 20,28 20,29 20,30 20,31 20,32 21,32 21,33 21,34 22,35 23,36 24,36 24,37 25,37 26,37 26,38 27,38 28,38 29,38 30,38 31,38 31,37 32,37 33,37 33,36 34,36 34,35 35,35 35,34 36,34 36,33 36,32 36,31 37,31 37,30 37,29 36,28 36,27 36,26 35,26 35,25 35,24 34,24 34,23 33,23 33,22 33,21 32,21 31,21 31,20 30,20 29,20 28,20 27,20 26,20 25,21 24,21 24,22 23,22 23,23 23,24 22,24 22,25 22,26 21,27 21,28 21,29 21,30 21,31 21,32 21,33 22,33 22,34 23,34 23,35 24,35 25,35 26,36 27,36 28,36 29,36 30,36 31,36 32,36 32,35 33,35 33,34 34,34 34,33 35,32 35,31 35,30 35,29 36,29 36,28 36,27 36,26 36,25 36,24 35,24 35,23 34,22 34,21 33,21 32,20 31,20 30,20 29,20 29,21 28,21 27,21 27,22 26,22 26,23 25,23 25,24 24,24 24,25 24,26 24,27 24,28 23,28 23,29 23,30 23,31 23,32 23,33 23,34 24,34 24,35 25,35 25,36 26,36 27,36 28,36 29,36 30,36 31,35 32,35 32,34 33,34 33,33 34,33 34,32 35,31 35,30 35,29 35,28 35,27 36,27 36,26 36,25 36,24 36,23 36,22 35,21 34,21 34,20 33,20 32,20 31,20 30,20 30,21 29,21 28,22 27,23 26,24 26,25 25,26 25,27 25,28 25,29 25,30 25,31 25,32 25,33 26,33 26,34 27,34 28,34 29,34 30,34 31,34 31,33 32,33 32,32 33,32 33,31 34,31 34,30 35,29 35,28 36,28 36,27 36,26 37,26 37,25 37,24 37,23 37,22 36,22 36,21 35,21 34,21 33,21 33,20 32,20 31,21 30,22 30,23 29,23 29,24 28,25 28,26 28,27 28,28 28,29 28,30 28,31 29,31 29,32 30,33 31,33 32,33 33,33 33,32 34,32 34,31 35,31 35,30 35,29 36,28 36,27 36,26 35,25 34,24 33,24 32,24 31,24 30,24 30,25 29,25 29,26 28,28 28,29 28,30 28,31 29,32 30,32 30,33 31,33 32,33 33,33 33,32 34,32 34,31 35,30 35,29 34,28 33,28 33,27 32,27 30,27 29,27 28,27 27,28 26,29 25,31 25,32 26,33 27,33 28,34 29,34 30,34 31,34 32,33 33,32 33,31 33,30 32,30 31,30 30,30 29,30 28,31 27,31 27,32 26,33 26,34 27,35 28,35 29,35 30,35 30,34 31,34 31,33 30,33 29,33 29,34 28,35 28,36 29,37 30,37 31,37 32,37 32,36 33,36 33,35 32,34 31,34 29,33 27,33 25,34 24,34 24,35 25,36 26,36 27,36 29,36 30,36 30,35 31,35 30,35 29,35 28,35 27,35 26,35 25,35 24,35 25,35 26,35 27,35 28,34 30,34 31,34 30,34 29,34 27,33 26,33 25,33 24,33 25,33 26,33 27,32 29,32 30,32 29,32 28,32 25,32 24,32 23,32 21,32 22,32 24,32 25,32 26,32 29,32 30,32 31,31 32,31 31,31 29,31 27,31 26,31 25,31 23,31 25,31 26,31 29,30 30,30 32,30 33,30 32,30 29,30 25,30 20,30 17,30 16,30 17,30 19,30 22,30 24,30 25,30 26,29 27,29 28,29 29,29 30,29 30,28 31,28 32,28 33,28 32,28 31,28 30,28 30,29 27,29 25,29 24,29 22,29 23,29 25,29 26,29 28,29 30,29 31,29 32,29 33,28 34,28 33,28 33,27 32,27 30,27 28,27 26,27 25,27 25,28 25,29 26,30 27,30 27,31 28,31 30,31 31,31 32,31 33,30 34,30 34,29 34,28 34,26 33,25 32,25 31,25 30,26 28,27 27,28 27,29 28,30 29,30 30,30 32,30 33,29 34,28 34,27 34,25 33,24 32,23 31,22 29,22 28,22 28,23 27,24 26,25 25,27 25,28 25,29 26,29 27,30 29,30 31,30 33,29 35,28 35,27 36,26 36,25 35,24 34,23 33,23 32,23 30,23 28,24 27,25 26,27 26,28 26,29 26,30 27,30 28,30 30,30 32,30 32,29 33,28 34,27 33,26 32,25 32,24 30,24 28,23 26,24 25,24 24,25 24,26 24,27 24,28 25,29 26,30 28,31 29,31 30,31 31,31 31,30 32,29 32,28 31,26 30,25 28,24 27,24 26,24 24,25 24,26 23,28 23,29 23,31 24,31 24,32 25,32 25,31 26,31 27,29 27,28 27,26 26,25 25,25 24,25 24,26 23,28 23,29 23,30 23,31 24,31 25,31 26,30 28,30 29,29 30,28 30,27 30,26 29,25 27,24 26,24 24,24 23,24 23,26 23,27 23,28 23,29 24,30 24,31 25,32 26,32 27,32 28,32 28,31 28,30 28,29 28,28 28,27 27,27 26,27 25,26 25,27 24,27 24,28 24,29 24,30" fill="none" stroke="#8aff00" stroke-width="3" stroke-linecap="round" stroke-linejoin="round" opacity="0.95">
    <title>5515 c:2</title>
  </polyline>
  <polyline points="32,19 33,19 34,19 35,19 37,19 38,19 39,19 40,19 41,19 42,19 43,19 44,19 45,19 46,19 47,19 48,19 49,19 50,19 51,19 52,19 53,19 54,19 55,19 56,19 57,19 58,19 59,19 60,19 61,18 62,18 63,18 64,18 65,18 66,18 67,18 68,18 69,17 71,17 72,17 73,17 74,17 75,17 74,17" fill="none" stroke="#7c3cff" stroke-width="3" stroke-linecap="round" stroke-linejoin="round" opacity="0.95">
    <title>3568 g:1</title>
  </polyline>
  <polyline points="77,33 77,34 76,34 76,35 75,35 74,35 74,36 73,36 72,36 71,36 70,36 69,36 68,36 67,36 67,35 66,35 65,35 64,35 64,34 63,34 62,34 62,33 62,32 62,31 62,30 62,29 62,28 62,27 63,27 63,26 63,25 63,24 64,24 64,23 64,22 65,22 65,21 65,20 66,20 67,20 67,19 68,19 68,18 69,18 70,18 70,17 71,17 72,17 73,17 73,16" fill="none" stroke="#f2e45c" stroke-width="3" stroke-linecap="round" stroke-linejoin="round" opacity="0.95">
    <title>3508 e:1</title>
  </polyline>
</svg>
