<?xml version="1.0" encoding="UTF-8"?>
<svg xmlns="http://www.w3.org/2000/svg" width="76" height="113" viewBox="0 0 76 113">
  <title>particle img3-m179-p2 a:1 b:1 c:1 a:1</title>
  <metadata>{&quot;entityType&quot;:&quot;particle&quot;,&quot;entityId&quot;:&quot;img3-m179-p2&quot;,&quot;token&quot;:&quot;a:1 b:1 c:1 a:1&quot;,&quot;signature&quot;:&quot;a:1 b:1 c:1 a:1&quot;,&quot;imageName&quot;:&quot;page-003.jpg&quot;,&quot;imageId&quot;:3,&quot;bounds&quot;:{&quot;x&quot;:754,&quot;y&quot;:2719,&quot;w&quot;:76,&quot;h&quot;:113},&quot;atoms&quot;:[{&quot;id&quot;:4051,&quot;token&quot;:&quot;a:1&quot;,&quot;particle_id&quot;:&quot;img3-m179-p2&quot;,&quot;molecule_id&quot;:&quot;img3-m179&quot;,&quot;atom_order&quot;:1},{&quot;id&quot;:4063,&quot;token&quot;:&quot;b:1&quot;,&quot;particle_id&quot;:&quot;img3-m179-p2&quot;,&quot;molecule_id&quot;:&quot;img3-m179&quot;,&quot;atom_order&quot;:2},{&quot;id&quot;:4036,&quot;token&quot;:&quot;c:1&quot;,&quot;particle_id&quot;:&quot;img3-m179-p2&quot;,&quot;molecule_id&quot;:&quot;img3-m179&quot;,&quot;atom_order&quot;:3},{&quot;id&quot;:4052,&quot;token&quot;:&quot;a:1&quot;,&quot;particle_id&quot;:&quot;img3-m179-p2&quot;,&quot;molecule_id&quot;:&quot;img3-m179&quot;,&quot;atom_order&quot;:4}]}</metadata>
  <rect x="0" y="0" width="76" height="113" fill="#f8f0d8"/>
  <image href="file:///C:/Users/HHHES/AppData/Roaming/com.voynichlab.datasetcreator/images/1/35a70f63-88ab-4986-b441-b78046a10087.jpg" x="-754" y="-2719" width="2972" height="3766" opacity="0.92"/>
  <rect x="0.5" y="0.5" width="75" height="112" fill="none" stroke="#111827" stroke-width="1" opacity="0.35"/>
  <polyline points="18,25 18,26 18,27 18,28 18,29 18,30 18,31 18,32 18,33 18,34 18,35 18,36 18,37 18,38 18,39 18,40 18,41 18,42 18,44 18,45 18,46 18,47 18,48 18,49 18,50 18,51 18,52 18,53 18,54 18,55 18,56 18,57 18,58 18,59 18,60 18,61 18,62 18,63 18,64 18,65 18,66 18,67 18,68 18,69 17,70 17,71 17,72 17,73 17,74 17,75 17,76 17,77 17,78 17,79 16,79 16,80 16,81 16,82 16,83 16,84 17,84 17,85 17,84" fill="none" stroke="#00f0b5" stroke-width="3" stroke-linecap="round" stroke-linejoin="round" opacity="0.95">
    <title>4051 a:1</title>
  </polyline>
  <polyline points="18,28 18,29 18,30 19,31 19,32 20,32 20,33 21,33 21,34 22,34 23,35 24,35 25,35 25,36 26,36 27,36 28,36 29,36 30,36 31,36 32,36 33,36 33,37 34,37 35,37 36,37 37,37 38,37 39,37 40,37 41,37 42,37 43,37 44,37 45,37 46,37 47,37 48,37 48,36 49,36" fill="none" stroke="#2f7df6" stroke-width="3" stroke-linecap="round" stroke-linejoin="round" opacity="0.95">
    <title>4063 b:1</title>
  </polyline>
  <polyline points="42,21 42,20 43,20 44,20 44,19 45,19 45,18 46,18 47,17 48,17 49,17 49,16 50,16 51,16 52,16 53,16 54,16 55,16 56,16 57,16 57,17 58,17 58,18 59,18 59,19 59,20 60,20 60,21 60,22 60,23 60,24 60,25 60,26 60,27 59,27 59,28 59,29 58,29 58,30 57,31 57,32 56,32 55,33 54,33 54,34 53,34 53,35 52,35 51,35 50,36 49,36 48,36 47,36 46,36 45,36 44,36 43,36 43,35 42,35 41,34 41,33 40,32 40,31 40,30 40,29 40,28 40,27 40,26 40,25 41,25 41,24 41,23 42,23 42,22 42,21 43,21 43,20 43,19 44,19 44,18" fill="none" stroke="#8aff00" stroke-width="3" stroke-linecap="round" stroke-linejoin="round" opacity="0.95">
    <title>4036 c:1</title>
  </polyline>
  <polyline points="36,97 36,96 37,95 37,94 37,93 37,92 37,91 38,90 38,89 38,88 38,87 38,86 38,85 37,85 37,84 37,83 37,82 37,81 37,80 37,79 37,78 37,77 37,76 37,75 37,74 37,73 37,72 37,71 37,70 37,69 37,68 37,67 37,66 37,65 37,64 38,63 38,62 38,61 38,60 38,59 38,58 39,57 39,56 39,55 39,54 39,53 39,52 39,51 39,50 39,49 39,48 39,47 39,46 40,45 40,44 40,43 40,42 40,41 40,40 40,39 40,38 40,37 40,36 40,35 40,34 40,33 40,32 40,31 40,30 40,29 40,28 40,27 40,26 40,25 40,24 40,23 40,22 40,21 40,20" fill="none" stroke="#00f0b5" stroke-width="3" stroke-linecap="round" stroke-linejoin="round" opacity="0.95">
    <title>4052 a:1</title>
  </polyline>
</svg>
