<?xml version="1.0" encoding="UTF-8"?>
<svg xmlns="http://www.w3.org/2000/svg" width="55" height="82" viewBox="0 0 55 82">
  <title>particle img3-m119-p4 e:1 h:1</title>
  <metadata>{&quot;entityType&quot;:&quot;particle&quot;,&quot;entityId&quot;:&quot;img3-m119-p4&quot;,&quot;token&quot;:&quot;e:1 h:1&quot;,&quot;signature&quot;:&quot;e:1 h:1&quot;,&quot;imageName&quot;:&quot;page-003.jpg&quot;,&quot;imageId&quot;:3,&quot;bounds&quot;:{&quot;x&quot;:885,&quot;y&quot;:1985,&quot;w&quot;:55,&quot;h&quot;:82},&quot;atoms&quot;:[{&quot;id&quot;:3313,&quot;token&quot;:&quot;e:1&quot;,&quot;particle_id&quot;:&quot;img3-m119-p4&quot;,&quot;molecule_id&quot;:&quot;img3-m119&quot;,&quot;atom_order&quot;:1},{&quot;id&quot;:3337,&quot;token&quot;:&quot;h:1&quot;,&quot;particle_id&quot;:&quot;img3-m119-p4&quot;,&quot;molecule_id&quot;:&quot;img3-m119&quot;,&quot;atom_order&quot;:2}]}</metadata>
  <rect x="0" y="0" width="55" height="82" fill="#f8f0d8"/>
  <image href="file:///C:/Users/HHHES/AppData/Roaming/com.voynichlab.datasetcreator/images/1/35a70f63-88ab-4986-b441-b78046a10087.jpg" x="-885" y="-1985" width="2972" height="3766" opacity="0.92"/>
  <rect x="0.5" y="0.5" width="54" height="81" fill="none" stroke="#111827" stroke-width="1" opacity="0.35"/>
  <polyline points="31,33 31,34 30,34 30,35 29,35 28,35 28,36 27,36 26,36 25,36 24,36 23,36 22,36 21,36 21,35 20,35 19,35 18,35 18,34 17,34 16,34 16,33 16,32 16,31 16,30 16,29 16,28 16,27 17,27 17,26 17,25 17,24 18,24 18,23 18,22 19,22 19,21 19,20 20,20 21,20 21,19 22,19 22,18 23,18 24,18 24,17 25,17 26,17 27,17 27,16" fill="none" stroke="#f2e45c" stroke-width="3" stroke-linecap="round" stroke-linejoin="round" opacity="0.95">
    <title>3313 e:1</title>
  </polyline>
  <polyline points="27,16 28,16 28,17 29,17 30,17 30,18 30,19 31,19 32,20 33,21 34,22 35,23 35,24 36,24 36,25 37,25 37,26 37,27 38,28 38,29 38,30 38,31 39,31 39,32 39,33 39,34 39,35 39,36 39,37 38,37 38,38 38,39 38,40 38,41 37,42 37,43 37,44 36,45 36,46 35,46 35,47 34,48 34,49 33,49 33,50 32,50 32,51 31,51 31,52 30,52 30,53 29,54 29,55 28,55 28,56 27,56 27,57 26,57 26,58 25,58 25,59 24,59 24,60 23,61 23,62 22,62 22,63 21,64 21,65 20,66" fill="none" stroke="#ff8c00" stroke-width="3" stroke-linecap="round" stroke-linejoin="round" opacity="0.95">
    <title>3337 h:1</title>
  </polyline>
</svg>
