<?xml version="1.0" encoding="UTF-8"?>
<svg xmlns="http://www.w3.org/2000/svg" width="78" height="52" viewBox="0 0 78 52">
  <title>particle img3-m53-p3 e:1 g:1 e:1</title>
  <metadata>{&quot;entityType&quot;:&quot;particle&quot;,&quot;entityId&quot;:&quot;img3-m53-p3&quot;,&quot;token&quot;:&quot;e:1 g:1 e:1&quot;,&quot;signature&quot;:&quot;e:1 g:1 e:1&quot;,&quot;imageName&quot;:&quot;page-003.jpg&quot;,&quot;imageId&quot;:3,&quot;bounds&quot;:{&quot;x&quot;:1258,&quot;y&quot;:1150,&quot;w&quot;:78,&quot;h&quot;:52},&quot;atoms&quot;:[{&quot;id&quot;:1929,&quot;token&quot;:&quot;e:1&quot;,&quot;particle_id&quot;:&quot;img3-m53-p3&quot;,&quot;molecule_id&quot;:&quot;img3-m53&quot;,&quot;atom_order&quot;:1},{&quot;id&quot;:1963,&quot;token&quot;:&quot;g:1&quot;,&quot;particle_id&quot;:&quot;img3-m53-p3&quot;,&quot;molecule_id&quot;:&quot;img3-m53&quot;,&quot;atom_order&quot;:2},{&quot;id&quot;:1930,&quot;token&quot;:&quot;e:1&quot;,&quot;particle_id&quot;:&quot;img3-m53-p3&quot;,&quot;molecule_id&quot;:&quot;img3-m53&quot;,&quot;atom_order&quot;:3}]}</metadata>
  <rect x="0" y="0" width="78" height="52" fill="#f8f0d8"/>
  <image href="file:///C:/Users/HHHES/AppData/Roaming/com.voynichlab.datasetcreator/images/1/35a70f63-88ab-4986-b441-b78046a10087.jpg" x="-1258" y="-1150" width="2972" height="3766" opacity="0.92"/>
  <rect x="0.5" y="0.5" width="77" height="51" fill="none" stroke="#111827" stroke-width="1" opacity="0.35"/>
  <polyline points="31,33 31,34 30,34 30,35 29,35 28,35 28,36 27,36 26,36 25,36 24,36 23,36 22,36 21,36 21,35 20,35 19,35 18,35 18,34 17,34 16,34 16,33 16,32 16,31 16,30 16,29 16,28 16,27 17,27 17,26 17,25 17,24 18,24 18,23 18,22 19,22 19,21 19,20 20,20 21,20 21,19 22,19 22,18 23,18 24,18 24,17 25,17 26,17 27,17 27,16" fill="none" stroke="#f2e45c" stroke-width="3" stroke-linecap="round" stroke-linejoin="round" opacity="0.95">
    <title>1929 e:1</title>
  </polyline>
  <polyline points="27,16 30,16 33,16 34,16 35,16 36,16 37,16 39,16 40,16 41,16 42,16 43,16 44,16 45,16 46,16 47,16 48,16 49,16 50,16 51,16 52,16 53,17 54,17 55,17 56,17 57,17 58,17 59,17 60,17 61,17 62,17" fill="none" stroke="#7c3cff" stroke-width="3" stroke-linecap="round" stroke-linejoin="round" opacity="0.95">
    <title>1963 g:1</title>
  </polyline>
  <polyline points="60,33 58,34 56,35 55,35 54,35 53,35 52,35 51,35 51,34 50,34 49,34 49,33 48,33 47,33 47,32 46,32 46,31 45,31 45,30 45,29 45,28 45,27 45,26 45,25 45,24 46,23 46,22 47,22 47,21 48,21 48,20 49,20 50,20 50,19 51,19 52,19 52,18 53,18 54,18 54,17 55,17 56,17 57,17 58,17 59,17 60,17 61,17" fill="none" stroke="#f2e45c" stroke-width="3" stroke-linecap="round" stroke-linejoin="round" opacity="0.95">
    <title>1930 e:1</title>
  </polyline>
</svg>
