<?xml version="1.0" encoding="UTF-8"?>
<svg xmlns="http://www.w3.org/2000/svg" width="53" height="73" viewBox="0 0 53 73">
  <title>particle img3-m22-p1 e:1 c:2 h:2</title>
  <metadata>{&quot;entityType&quot;:&quot;particle&quot;,&quot;entityId&quot;:&quot;img3-m22-p1&quot;,&quot;token&quot;:&quot;e:1 c:2 h:2&quot;,&quot;signature&quot;:&quot;e:1 c:2 h:2&quot;,&quot;imageName&quot;:&quot;page-003.jpg&quot;,&quot;imageId&quot;:3,&quot;bounds&quot;:{&quot;x&quot;:2046,&quot;y&quot;:669,&quot;w&quot;:53,&quot;h&quot;:73},&quot;atoms&quot;:[{&quot;id&quot;:1439,&quot;token&quot;:&quot;e:1&quot;,&quot;particle_id&quot;:&quot;img3-m22-p1&quot;,&quot;molecule_id&quot;:&quot;img3-m22&quot;,&quot;atom_order&quot;:1},{&quot;id&quot;:1440,&quot;token&quot;:&quot;c:2&quot;,&quot;particle_id&quot;:&quot;img3-m22-p1&quot;,&quot;molecule_id&quot;:&quot;img3-m22&quot;,&quot;atom_order&quot;:2},{&quot;id&quot;:1441,&quot;token&quot;:&quot;h:2&quot;,&quot;particle_id&quot;:&quot;img3-m22-p1&quot;,&quot;molecule_id&quot;:&quot;img3-m22&quot;,&quot;atom_order&quot;:3}]}</metadata>
  <rect x="0" y="0" width="53" height="73" fill="#f8f0d8"/>
  <image href="file:///C:/Users/HHHES/AppData/Roaming/com.voynichlab.datasetcreator/images/1/35a70f63-88ab-4986-b441-b78046a10087.jpg" x="-2046" y="-669" width="2972" height="3766" opacity="0.92"/>
  <rect x="0.5" y="0.5" width="52" height="72" fill="none" stroke="#111827" stroke-width="1" opacity="0.35"/>
  <polyline points="31,54 31,55 30,55 30,56 29,56 28,56 28,57 27,57 26,57 25,57 24,57 23,57 22,57 21,57 21,56 20,56 19,56 18,56 18,55 17,55 16,55 16,54 16,53 16,52 16,51 16,50 16,49 16,48 17,48 17,47 17,46 17,45 18,45 18,44 18,43 19,43 19,42 19,41 20,41 21,41 21,40 22,40 22,39 23,39 24,39 24,38 25,38 26,38 27,38 27,37" fill="none" stroke="#f2e45c" stroke-width="3" stroke-linecap="round" stroke-linejoin="round" opacity="0.95">
    <title>1439 e:1</title>
  </polyline>
  <polyline points="20,21 20,22 19,22 19,23 19,23 18,23 18,24 18,25 18,26 18,27 18,27 18,28 18,29 19,29 19,30 20,30 20,31 21,32 22,32 23,32 24,32 24,32 24,32 25,32 26,32 27,32 28,32 29,32 30,32 31,32 31,32 32,32 33,32 33,31 33,30 34,30 34,29 35,29 35,28 35,27 36,27 36,27 36,26 37,26 37,25 37,24 37,23 37,23 37,22 37,21 36,21 36,20 36,19 35,19 35,18 34,18 34,18 33,18 33,17 32,17 31,17 31,16 30,16 29,16 28,16 27,16 26,16 25,16 24,16 24,17 23,17 23,18 22,18 22,18 21,18 20,18 20,19 19,19 19,20 19,21" fill="none" stroke="#8aff00" stroke-width="3" stroke-linecap="round" stroke-linejoin="round" opacity="0.95">
    <title>1440 c:2</title>
  </polyline>
  <polyline points="28,56 28,55 29,55 30,55 31,54 32,54 32,53 33,53 33,52 33,51 34,51 34,50 34,49 34,48 34,47 34,46 34,45 34,44 33,44 33,43 32,42 32,41 31,41 31,40 30,40 30,39 29,39 29,38 28,38 28,37 27,37 26,36 25,36 25,35 24,35 24,34 23,34 22,34 22,33 21,33 21,32 20,32 20,31 20,30 19,30 19,29 18,28 18,27 18,26 18,25 18,24 19,23 19,22 19,21 20,21 20,20 20,19 21,19" fill="none" stroke="#ff8c00" stroke-width="3" stroke-linecap="round" stroke-linejoin="round" opacity="0.95">
    <title>1441 h:2</title>
  </polyline>
</svg>
