<?xml version="1.0" encoding="UTF-8"?>
<svg xmlns="http://www.w3.org/2000/svg" width="130" height="109" viewBox="0 0 130 109">
  <title>particle img3-m137-p3 e:1 a:1 e:1 b:1 c:1 a:1 g:1 e:1</title>
  <metadata>{&quot;entityType&quot;:&quot;particle&quot;,&quot;entityId&quot;:&quot;img3-m137-p3&quot;,&quot;token&quot;:&quot;e:1 a:1 e:1 b:1 c:1 a:1 g:1 e:1&quot;,&quot;signature&quot;:&quot;e:1 a:1 e:1 b:1 c:1 a:1 g:1 e:1&quot;,&quot;imageName&quot;:&quot;page-003.jpg&quot;,&quot;imageId&quot;:3,&quot;bounds&quot;:{&quot;x&quot;:827,&quot;y&quot;:2101,&quot;w&quot;:130,&quot;h&quot;:109},&quot;atoms&quot;:[{&quot;id&quot;:3498,&quot;token&quot;:&quot;e:1&quot;,&quot;particle_id&quot;:&quot;img3-m137-p3&quot;,&quot;molecule_id&quot;:&quot;img3-m137&quot;,&quot;atom_order&quot;:1},{&quot;id&quot;:3618,&quot;token&quot;:&quot;a:1&quot;,&quot;particle_id&quot;:&quot;img3-m137-p3&quot;,&quot;molecule_id&quot;:&quot;img3-m137&quot;,&quot;atom_order&quot;:2},{&quot;id&quot;:3500,&quot;token&quot;:&quot;e:1&quot;,&quot;particle_id&quot;:&quot;img3-m137-p3&quot;,&quot;molecule_id&quot;:&quot;img3-m137&quot;,&quot;atom_order&quot;:3},{&quot;id&quot;:3609,&quot;token&quot;:&quot;b:1&quot;,&quot;particle_id&quot;:&quot;img3-m137-p3&quot;,&quot;molecule_id&quot;:&quot;img3-m137&quot;,&quot;atom_order&quot;:4},{&quot;id&quot;:3540,&quot;token&quot;:&quot;c:1&quot;,&quot;particle_id&quot;:&quot;img3-m137-p3&quot;,&quot;molecule_id&quot;:&quot;img3-m137&quot;,&quot;atom_order&quot;:5},{&quot;id&quot;:3619,&quot;token&quot;:&quot;a:1&quot;,&quot;particle_id&quot;:&quot;img3-m137-p3&quot;,&quot;molecule_id&quot;:&quot;img3-m137&quot;,&quot;atom_order&quot;:6},{&quot;id&quot;:3566,&quot;token&quot;:&quot;g:1&quot;,&quot;particle_id&quot;:&quot;img3-m137-p3&quot;,&quot;molecule_id&quot;:&quot;img3-m137&quot;,&quot;atom_order&quot;:7},{&quot;id&quot;:3499,&quot;token&quot;:&quot;e:1&quot;,&quot;particle_id&quot;:&quot;img3-m137-p3&quot;,&quot;molecule_id&quot;:&quot;img3-m137&quot;,&quot;atom_order&quot;:8}]}</metadata>
  <rect x="0" y="0" width="130" height="109" fill="#f8f0d8"/>
  <image href="file:///C:/Users/HHHES/AppData/Roaming/com.voynichlab.datasetcreator/images/1/35a70f63-88ab-4986-b441-b78046a10087.jpg" x="-827" y="-2101" width="2972" height="3766" opacity="0.92"/>
  <rect x="0.5" y="0.5" width="129" height="108" fill="none" stroke="#111827" stroke-width="1" opacity="0.35"/>
  <polyline points="31,90 31,91 30,91 30,92 29,92 28,92 28,93 27,93 26,93 25,93 24,93 23,93 22,93 21,93 21,92 20,92 19,92 18,92 18,91 17,91 16,91 16,90 16,89 16,88 16,87 16,86 16,85 16,84 17,84 17,83 17,82 17,81 18,81 18,80 18,79 19,79 19,78 19,77 20,77 21,77 21,76 22,76 22,75 23,75 24,75 24,74 25,74 26,74 27,74 27,73" fill="none" stroke="#f2e45c" stroke-width="3" stroke-linecap="round" stroke-linejoin="round" opacity="0.95">
    <title>3498 e:1</title>
  </polyline>
  <polyline points="43,21 43,22 43,23 44,23 44,24 44,25 45,25 45,26 45,27 46,27 46,28 46,29 46,30 47,31 47,32 47,33 47,34 48,35 48,36 48,37 48,38 48,39 49,39 49,40 49,41 49,42 49,43 49,44 49,45 49,46 50,47 50,48 50,49 50,50 50,51 50,52 50,53 50,54 50,55 50,56 50,57 50,58 50,59 50,61 50,62 50,63 50,64 50,66 50,67 50,68 50,69 50,70 50,71 50,72 50,73 50,74 50,75 50,76 50,77 50,78 50,79 50,80 50,81 50,82 50,83 50,84 50,85 50,86 50,87 50,86" fill="none" stroke="#00f0b5" stroke-width="3" stroke-linecap="round" stroke-linejoin="round" opacity="0.95">
    <title>3618 a:1</title>
  </polyline>
  <polyline points="47,38 47,39 46,39 46,40 45,40 44,40 44,41 43,41 42,41 41,41 40,41 39,41 38,41 37,41 37,40 36,40 35,40 34,40 34,39 33,39 32,39 32,38 32,37 32,36 32,35 32,34 32,33 32,32 33,32 33,31 33,30 33,29 34,29 34,28 34,27 35,27 35,26 35,25 36,25 37,25 37,24 38,24 38,23 39,23 40,23 40,22 41,22 42,22 43,22 43,21" fill="none" stroke="#f2e45c" stroke-width="3" stroke-linecap="round" stroke-linejoin="round" opacity="0.95">
    <title>3500 e:1</title>
  </polyline>
  <polyline points="38,38 39,39 40,39 41,39 41,40 42,40 43,40 44,40 45,40 46,40 47,40 48,40 49,40 50,40 51,40 52,40 53,40 54,40 55,40 56,40 57,40 58,40 59,40 60,40 61,40 62,40 63,40 64,40 65,40 66,40 67,40 68,40 69,39 70,39 71,39 72,39 73,39 74,39 74,38 75,38 76,38 77,38 78,37 79,37 80,37 81,37 81,36 82,36 83,36 83,35" fill="none" stroke="#2f7df6" stroke-width="3" stroke-linecap="round" stroke-linejoin="round" opacity="0.95">
    <title>3609 b:1</title>
  </polyline>
  <polyline points="83,36 84,36 84,35 85,35 86,35 87,35 88,34 89,34 90,34 90,33 91,33 91,32 92,32 92,31 93,31 93,30 94,30 95,29 95,28 96,27 96,26 96,25 96,24 96,23 95,22 95,21 94,21 94,20 93,19 93,18 92,18 92,17 91,17 90,17 89,16 88,16 87,16 86,16 85,16 84,16 83,16 82,16 81,16 80,16 79,16 78,17 77,17 76,18 75,18 75,19 74,19 74,20 73,21 72,22 72,23 72,24 71,25 71,26 71,27 71,28 71,29 71,30 71,31 71,32 71,33 72,33 72,34 73,35 74,35 74,36 75,36 76,36 77,36 78,36 79,36 80,36 81,36 82,36 83,36 84,36 84,35" fill="none" stroke="#8aff00" stroke-width="3" stroke-linecap="round" stroke-linejoin="round" opacity="0.95">
    <title>3540 c:1</title>
  </polyline>
  <polyline points="72,27 72,28 72,29 72,30 72,31 72,32 72,33 72,34 72,35 72,36 72,37 72,38 72,39 72,40 72,42 72,43 72,44 73,45 73,47 73,49 73,50 73,52 73,53 73,54 73,55 73,56 73,57 72,59 72,60 72,61 72,63 72,64 72,65 72,66 72,67 72,68 71,69 71,70 71,71 71,72 71,73 71,74 71,75 71,76 71,77 71,78 71,79 71,80 71,81 71,82 71,83 71,84 71,85 70,85 70,86 70,87 70,88 70,89 70,90 70,91 70,92" fill="none" stroke="#00f0b5" stroke-width="3" stroke-linecap="round" stroke-linejoin="round" opacity="0.95">
    <title>3619 a:1</title>
  </polyline>
  <polyline points="26,73 27,73 28,73 29,73 30,73 31,73 32,73 33,73 34,73 35,73 36,73 37,73 38,73 39,73 40,73 41,72 42,72 43,72 44,72 45,72 46,72 47,72 48,72 49,72 50,72 51,72 52,72 53,72 54,72 55,72 56,72 57,72 58,72 59,71 60,71 61,71 62,71 63,71 64,71 65,71 67,71 68,71 69,71 70,71 71,71 72,71 73,71 74,71 75,71 76,71 77,71 78,71 79,71 80,71 81,71 82,71 83,71 84,71 85,71 86,71 87,71 88,71 89,71 90,71 91,71 92,71 93,71 94,71 95,71 96,71 97,71 98,71 98,70 99,70 100,70 101,70 102,70 103,70 104,70 105,70 106,70 107,70 108,70 109,70 110,70 111,70 112,70" fill="none" stroke="#7c3cff" stroke-width="3" stroke-linecap="round" stroke-linejoin="round" opacity="0.95">
    <title>3566 g:1</title>
  </polyline>
  <polyline points="114,87 114,88 113,88 113,89 112,89 111,89 111,90 110,90 109,90 108,90 107,90 106,90 105,90 104,90 104,89 103,89 102,89 101,89 101,88 100,88 99,88 99,87 99,86 99,85 99,84 99,83 99,82 99,81 100,81 100,80 100,79 100,78 101,78 101,77 101,76 102,76 102,75 102,74 103,74 104,74 104,73 105,73 105,72 106,72 107,72 107,71 108,71 109,71 110,71 110,70" fill="none" stroke="#f2e45c" stroke-width="3" stroke-linecap="round" stroke-linejoin="round" opacity="0.95">
    <title>3499 e:1</title>
  </polyline>
</svg>
