<?xml version="1.0" encoding="UTF-8"?>
<svg xmlns="http://www.w3.org/2000/svg" width="65" height="53" viewBox="0 0 65 53">
  <title>particle img3-m17-p3 e:1 f:1</title>
  <metadata>{&quot;entityType&quot;:&quot;particle&quot;,&quot;entityId&quot;:&quot;img3-m17-p3&quot;,&quot;token&quot;:&quot;e:1 f:1&quot;,&quot;signature&quot;:&quot;e:1 f:1&quot;,&quot;imageName&quot;:&quot;page-003.jpg&quot;,&quot;imageId&quot;:3,&quot;bounds&quot;:{&quot;x&quot;:1382,&quot;y&quot;:602,&quot;w&quot;:65,&quot;h&quot;:53},&quot;atoms&quot;:[{&quot;id&quot;:1332,&quot;token&quot;:&quot;e:1&quot;,&quot;particle_id&quot;:&quot;img3-m17-p3&quot;,&quot;molecule_id&quot;:&quot;img3-m17&quot;,&quot;atom_order&quot;:1},{&quot;id&quot;:1191,&quot;token&quot;:&quot;f:1&quot;,&quot;particle_id&quot;:&quot;img3-m17-p3&quot;,&quot;molecule_id&quot;:&quot;img3-m17&quot;,&quot;atom_order&quot;:2}]}</metadata>
  <rect x="0" y="0" width="65" height="53" fill="#f8f0d8"/>
  <image href="file:///C:/Users/HHHES/AppData/Roaming/com.voynichlab.datasetcreator/images/1/35a70f63-88ab-4986-b441-b78046a10087.jpg" x="-1382" y="-602" width="2972" height="3766" opacity="0.92"/>
  <rect x="0.5" y="0.5" width="64" height="52" fill="none" stroke="#111827" stroke-width="1" opacity="0.35"/>
  <polyline points="36,33 35,33 35,34 34,34 33,34 33,35 32,35 31,35 30,35 29,35 28,35 27,35 26,35 26,34 25,34 24,34 23,34 22,34 21,33 20,33 19,33 19,32 18,32 18,31 17,31 17,30 16,30 16,29 16,28 16,27 16,26 17,26 17,25 18,25 18,24 19,24 19,23 20,23 20,22 21,22 22,22 22,21 23,21 23,20 24,20 25,20 25,19 26,19 27,19 27,18 28,18 29,18 30,18 31,18 32,18 32,17 33,17 34,17 35,17 35,16 36,16" fill="none" stroke="#f2e45c" stroke-width="3" stroke-linecap="round" stroke-linejoin="round" opacity="0.95">
    <title>1332 e:1</title>
  </polyline>
  <polyline points="36,16 36,17 36,18 37,18 37,19 37,20 38,20 38,21 39,22 39,23 40,23 40,24 41,25 41,26 42,26 42,27 43,27 43,28 44,28 44,29 44,30 45,30 45,31 45,32 46,32 46,33 47,33 47,34 48,35 48,36 49,36 49,37" fill="none" stroke="#00a2ff" stroke-width="3" stroke-linecap="round" stroke-linejoin="round" opacity="0.95">
    <title>1191 f:1</title>
  </polyline>
</svg>
