<?xml version="1.0" encoding="UTF-8"?>
<svg xmlns="http://www.w3.org/2000/svg" width="56" height="75" viewBox="0 0 56 75">
  <title>particle img3-m63-p1 e:1 c:1 h:2</title>
  <metadata>{&quot;entityType&quot;:&quot;particle&quot;,&quot;entityId&quot;:&quot;img3-m63-p1&quot;,&quot;token&quot;:&quot;e:1 c:1 h:2&quot;,&quot;signature&quot;:&quot;e:1 c:1 h:2&quot;,&quot;imageName&quot;:&quot;page-003.jpg&quot;,&quot;imageId&quot;:3,&quot;bounds&quot;:{&quot;x&quot;:552,&quot;y&quot;:1241,&quot;w&quot;:56,&quot;h&quot;:75},&quot;atoms&quot;:[{&quot;id&quot;:2005,&quot;token&quot;:&quot;e:1&quot;,&quot;particle_id&quot;:&quot;img3-m63-p1&quot;,&quot;molecule_id&quot;:&quot;img3-m63&quot;,&quot;atom_order&quot;:1},{&quot;id&quot;:2012,&quot;token&quot;:&quot;c:1&quot;,&quot;particle_id&quot;:&quot;img3-m63-p1&quot;,&quot;molecule_id&quot;:&quot;img3-m63&quot;,&quot;atom_order&quot;:2},{&quot;id&quot;:2013,&quot;token&quot;:&quot;h:2&quot;,&quot;particle_id&quot;:&quot;img3-m63-p1&quot;,&quot;molecule_id&quot;:&quot;img3-m63&quot;,&quot;atom_order&quot;:3}]}</metadata>
  <rect x="0" y="0" width="56" height="75" fill="#f8f0d8"/>
  <image href="file:///C:/Users/HHHES/AppData/Roaming/com.voynichlab.datasetcreator/images/1/35a70f63-88ab-4986-b441-b78046a10087.jpg" x="-552" y="-1241" width="2972" height="3766" opacity="0.92"/>
  <rect x="0.5" y="0.5" width="55" height="74" fill="none" stroke="#111827" stroke-width="1" opacity="0.35"/>
  <polyline points="31,55 31,56 30,56 30,57 29,57 28,57 28,58 27,58 26,58 25,58 24,58 23,58 22,58 21,58 21,57 20,57 19,57 18,57 18,56 17,56 16,56 16,55 16,54 16,53 16,52 16,51 16,50 16,49 17,49 17,48 17,47 17,46 18,46 18,45 18,44 19,44 19,43 19,42 20,42 21,42 21,41 22,41 22,40 23,40 24,40 24,39 25,39 26,39 27,39 27,38" fill="none" stroke="#f2e45c" stroke-width="3" stroke-linecap="round" stroke-linejoin="round" opacity="0.95">
    <title>2005 e:1</title>
  </polyline>
  <polyline points="24,33 25,33 25,34 26,34 27,34 28,34 29,34 29,33 30,33 31,33 32,33 33,33 33,32 34,32 35,32 35,31 36,31 37,30 38,29 38,28 39,28 39,27 40,26 40,25 40,24 40,23 40,22 40,21 40,20 39,20 39,19 38,18 38,17 37,17 37,16 36,16 35,16 34,16 33,16 32,16 31,16 30,16 29,16 28,16 27,16 26,16 26,17 25,17 24,17 24,18 23,18 23,19 22,19 22,20 22,21 21,21 21,22 21,23 21,24 21,25 20,25 20,26 20,27 20,28 20,29 21,29 21,30 21,31 22,31 23,32 24,32 24,33 25,33" fill="none" stroke="#8aff00" stroke-width="3" stroke-linecap="round" stroke-linejoin="round" opacity="0.95">
    <title>2012 c:1</title>
  </polyline>
  <polyline points="20,26 20,27 20,28 20,29 20,30 20,31 21,31 21,32 21,33 22,33 22,34 23,34 23,35 24,35 24,36 25,36 25,37 26,37 26,38 27,38 28,38 28,39 29,39 30,39 30,40 31,40 31,41 32,41 32,42 33,42 33,43 34,43 34,44 35,44 35,45 35,46 35,47 35,48 35,49 35,50 34,50 34,51 34,52 33,52 33,53 33,54 32,54 32,55 31,55 31,56 30,56 30,57 29,57 28,57 28,58 27,58 26,58 26,59 25,59" fill="none" stroke="#ff8c00" stroke-width="3" stroke-linecap="round" stroke-linejoin="round" opacity="0.95">
    <title>2013 h:2</title>
  </polyline>
</svg>
