<?xml version="1.0" encoding="UTF-8"?>
<svg xmlns="http://www.w3.org/2000/svg" width="116" height="92" viewBox="0 0 116 92">
  <title>particle img3-m28-p2 k:1 f:1 i:1 d:1</title>
  <metadata>{&quot;entityType&quot;:&quot;particle&quot;,&quot;entityId&quot;:&quot;img3-m28-p2&quot;,&quot;token&quot;:&quot;k:1 f:1 i:1 d:1&quot;,&quot;signature&quot;:&quot;k:1 f:1 i:1 d:1&quot;,&quot;imageName&quot;:&quot;page-003.jpg&quot;,&quot;imageId&quot;:3,&quot;bounds&quot;:{&quot;x&quot;:681,&quot;y&quot;:677,&quot;w&quot;:116,&quot;h&quot;:92},&quot;atoms&quot;:[{&quot;id&quot;:1347,&quot;token&quot;:&quot;k:1&quot;,&quot;particle_id&quot;:&quot;img3-m28-p2&quot;,&quot;molecule_id&quot;:&quot;img3-m28&quot;,&quot;atom_order&quot;:1},{&quot;id&quot;:1344,&quot;token&quot;:&quot;f:1&quot;,&quot;particle_id&quot;:&quot;img3-m28-p2&quot;,&quot;molecule_id&quot;:&quot;img3-m28&quot;,&quot;atom_order&quot;:2},{&quot;id&quot;:1345,&quot;token&quot;:&quot;i:1&quot;,&quot;particle_id&quot;:&quot;img3-m28-p2&quot;,&quot;molecule_id&quot;:&quot;img3-m28&quot;,&quot;atom_order&quot;:3},{&quot;id&quot;:1346,&quot;token&quot;:&quot;d:1&quot;,&quot;particle_id&quot;:&quot;img3-m28-p2&quot;,&quot;molecule_id&quot;:&quot;img3-m28&quot;,&quot;atom_order&quot;:4}]}</metadata>
  <rect x="0" y="0" width="116" height="92" fill="#f8f0d8"/>
  <image href="file:///C:/Users/HHHES/AppData/Roaming/com.voynichlab.datasetcreator/images/1/35a70f63-88ab-4986-b441-b78046a10087.jpg" x="-681" y="-677" width="2972" height="3766" opacity="0.92"/>
  <rect x="0.5" y="0.5" width="115" height="91" fill="none" stroke="#111827" stroke-width="1" opacity="0.35"/>
  <polyline points="16,51 16,52 17,52 17,53 18,53 18,54 18,55 19,55 19,56 19,57 20,57 20,58 20,59 21,59 21,60 22,61 22,62 23,62 23,63 23,64 24,64 24,65 25,65 25,66 26,66 26,67 26,68 27,68 28,68 29,68 29,67 30,67 30,66 31,66 31,65 32,65 32,64 33,64 33,63 34,63 34,62 35,62 35,61 36,61 36,60 37,60 37,59 37,58 38,58 38,57 39,57 39,56 40,55 40,56 40,57 41,58 41,59 42,59 42,60 42,61 42,62 43,62 43,63 44,63 44,64 44,65 45,65 45,66 45,67 46,67 46,68 47,68 47,69 48,69 48,70 49,70 50,70 50,71 51,71 52,71 53,71 53,70 53,69 54,69 54,68 54,67 55,67 55,66 56,66 56,65 56,64 57,64 57,63 58,63 58,62 59,62 59,61 59,60 60,60 60,59 60,58 61,58 61,57 61,56 62,56" fill="none" stroke="#ffffff" stroke-width="3" stroke-linecap="round" stroke-linejoin="round" opacity="0.95">
    <title>1347 k:1</title>
  </polyline>
  <polyline points="62,55 62,56 62,57 63,57 63,58 63,59 64,59 64,60 65,61 65,62 66,62 66,63 67,64 67,65 68,65 68,66 69,66 69,67 70,67 70,68 70,69 71,69 71,70 71,71 72,71 72,72 73,72 73,73 74,74 74,75 75,75 75,76" fill="none" stroke="#00a2ff" stroke-width="3" stroke-linecap="round" stroke-linejoin="round" opacity="0.95">
    <title>1344 f:1</title>
  </polyline>
  <polyline points="62,55 63,55 64,55 65,55 66,55 67,55 68,55 69,55 70,55 70,54 71,54 72,54 73,54 74,54 75,53 76,53 77,53 78,53 78,52 79,52 80,52 81,52 82,52 82,51 83,51 84,50 85,50 86,50 86,49 87,49 88,48 89,47 90,47 90,46 91,46 91,45 92,45 92,44 93,44 93,43 94,43 94,42 95,42 95,41 96,41 96,40 96,39 97,39 97,38 97,37 98,37 98,36 98,35 99,34 99,33 99,32 99,31 100,30 100,29 100,28" fill="none" stroke="#00ff7f" stroke-width="3" stroke-linecap="round" stroke-linejoin="round" opacity="0.95">
    <title>1345 i:1</title>
  </polyline>
  <polyline points="56,27 57,27 57,26 58,26 58,25 59,25 59,24 60,24 60,23 61,23 62,22 63,22 63,21 64,21 64,20 65,20 65,19 66,19 67,19 67,18 68,18 69,18 69,17 70,17 71,17 72,17 72,16 73,16 74,16 75,16 76,16 77,16 78,16 79,16 79,17 80,17 81,17 82,17 83,18 84,18 85,18 85,19 86,19 87,19 87,20 88,20 89,20 89,21 90,21 91,22 92,22 93,22 93,23 94,23 95,23 95,24 96,24 97,24 97,25 98,25 98,26 99,26 100,27 100,28" fill="none" stroke="#ff2d55" stroke-width="3" stroke-linecap="round" stroke-linejoin="round" opacity="0.95">
    <title>1346 d:1</title>
  </polyline>
</svg>
