<?xml version="1.0" encoding="UTF-8"?>
<svg xmlns="http://www.w3.org/2000/svg" width="96" height="113" viewBox="0 0 96 113">
  <title>particle img3-m190-p3 a:1 e:1 b:1 c:1 a:1</title>
  <metadata>{&quot;entityType&quot;:&quot;particle&quot;,&quot;entityId&quot;:&quot;img3-m190-p3&quot;,&quot;token&quot;:&quot;a:1 e:1 b:1 c:1 a:1&quot;,&quot;signature&quot;:&quot;a:1 e:1 b:1 c:1 a:1&quot;,&quot;imageName&quot;:&quot;page-003.jpg&quot;,&quot;imageId&quot;:3,&quot;bounds&quot;:{&quot;x&quot;:2126,&quot;y&quot;:2859,&quot;w&quot;:96,&quot;h&quot;:113},&quot;atoms&quot;:[{&quot;id&quot;:4093,&quot;token&quot;:&quot;a:1&quot;,&quot;particle_id&quot;:&quot;img3-m190-p3&quot;,&quot;molecule_id&quot;:&quot;img3-m190&quot;,&quot;atom_order&quot;:1},{&quot;id&quot;:4087,&quot;token&quot;:&quot;e:1&quot;,&quot;particle_id&quot;:&quot;img3-m190-p3&quot;,&quot;molecule_id&quot;:&quot;img3-m190&quot;,&quot;atom_order&quot;:2},{&quot;id&quot;:4095,&quot;token&quot;:&quot;b:1&quot;,&quot;particle_id&quot;:&quot;img3-m190-p3&quot;,&quot;molecule_id&quot;:&quot;img3-m190&quot;,&quot;atom_order&quot;:3},{&quot;id&quot;:4096,&quot;token&quot;:&quot;c:1&quot;,&quot;particle_id&quot;:&quot;img3-m190-p3&quot;,&quot;molecule_id&quot;:&quot;img3-m190&quot;,&quot;atom_order&quot;:4},{&quot;id&quot;:4094,&quot;token&quot;:&quot;a:1&quot;,&quot;particle_id&quot;:&quot;img3-m190-p3&quot;,&quot;molecule_id&quot;:&quot;img3-m190&quot;,&quot;atom_order&quot;:5}]}</metadata>
  <rect x="0" y="0" width="96" height="113" fill="#f8f0d8"/>
  <image href="file:///C:/Users/HHHES/AppData/Roaming/com.voynichlab.datasetcreator/images/1/35a70f63-88ab-4986-b441-b78046a10087.jpg" x="-2126" y="-2859" width="2972" height="3766" opacity="0.92"/>
  <rect x="0.5" y="0.5" width="95" height="112" fill="none" stroke="#111827" stroke-width="1" opacity="0.35"/>
  <polyline points="23,94 23,93 24,92 24,91 24,90 24,89 24,88 25,87 25,86 25,85 25,84 25,83 25,82 24,82 24,81 24,80 24,79 24,78 24,77 24,76 24,75 24,74 24,73 24,72 24,71 24,70 24,69 24,68 24,67 24,66 24,65 24,64 24,63 24,62 24,61 25,60 25,59 25,58 25,57 25,56 25,55 26,54 26,53 26,52 26,51 26,50 26,49 26,48 26,47 26,46 26,45 26,44 26,43 27,42 27,41 27,40 27,39 27,38 27,37 27,36 27,35 27,34 27,33 27,32 27,31 27,30 27,29 27,28 27,27 27,26 27,25 27,24 27,23 27,22 27,21 27,20 27,19 27,18 27,17" fill="none" stroke="#00f0b5" stroke-width="3" stroke-linecap="round" stroke-linejoin="round" opacity="0.95">
    <title>4093 a:1</title>
  </polyline>
  <polyline points="31,34 31,35 30,35 30,36 29,36 28,36 28,37 27,37 26,37 25,37 24,37 23,37 22,37 21,37 21,36 20,36 19,36 18,36 18,35 17,35 16,35 16,34 16,33 16,32 16,31 16,30 16,29 16,28 17,28 17,27 17,26 17,25 18,25 18,24 18,23 19,23 19,22 19,21 20,21 21,21 21,20 22,20 22,19 23,19 24,19 24,18 25,18 26,18 27,18 27,17" fill="none" stroke="#f2e45c" stroke-width="3" stroke-linecap="round" stroke-linejoin="round" opacity="0.95">
    <title>4087 e:1</title>
  </polyline>
  <polyline points="23,36 24,36 24,37 25,37 26,37 26,38 27,38 28,38 29,38 30,39 31,39 32,39 33,39 34,39 35,39 36,39 37,39 38,39 39,39 40,39 41,39 41,40 42,40 43,40 44,40 45,40 46,40 47,40 48,40 49,40 50,40 51,40 52,40 53,39 54,39 55,39 56,39 57,39 57,38 58,38 59,38 60,38 61,38 61,37 62,37 63,37 64,36 65,36 66,36 66,35 67,35 68,35 68,34 69,34 70,34" fill="none" stroke="#2f7df6" stroke-width="3" stroke-linecap="round" stroke-linejoin="round" opacity="0.95">
    <title>4095 b:1</title>
  </polyline>
  <polyline points="56,20 55,21 55,22 55,23 55,24 55,25 55,26 55,27 55,28 55,29 55,30 55,31 56,31 56,32 56,33 56,34 57,34 58,35 59,35 60,35 61,36 62,36 64,36 65,36 66,36 67,36 68,36 69,36 70,36 71,36 72,35 73,35 73,34 74,34 75,34 75,33 76,33 76,32 77,32 77,31 78,31 78,30 79,29 79,28 79,27 80,27 80,26 80,25 80,24 80,23 80,22 80,21 79,21 79,20 78,20 78,19 77,19 77,18 76,18 76,17 75,17 75,16 74,16 73,16 72,16 71,16 70,16 69,16 68,16 67,16 66,16 65,17 64,17 63,17 62,17 61,18 60,18 59,18 58,19 57,19 57,20 56,20 56,21 55,21 55,22 55,23 54,24" fill="none" stroke="#8aff00" stroke-width="3" stroke-linecap="round" stroke-linejoin="round" opacity="0.95">
    <title>4096 c:1</title>
  </polyline>
  <polyline points="51,97 51,96 52,95 52,94 52,93 52,92 52,91 53,90 53,89 53,88 53,87 53,86 53,85 52,85 52,84 52,83 52,82 52,81 52,80 52,79 52,78 52,77 52,76 52,75 52,74 52,73 52,72 52,71 52,70 52,69 52,68 52,67 52,66 52,65 52,64 53,63 53,62 53,61 53,60 53,59 53,58 54,57 54,56 54,55 54,54 54,53 54,52 54,51 54,50 54,49 54,48 54,47 54,46 55,45 55,44 55,43 55,42 55,41 55,40 55,39 55,38 55,37 55,36 55,35 55,34 55,33 55,32 55,31 55,30 55,29 55,28 55,27 55,26 55,25 55,24 55,23 55,22 55,21 55,20" fill="none" stroke="#00f0b5" stroke-width="3" stroke-linecap="round" stroke-linejoin="round" opacity="0.95">
    <title>4094 a:1</title>
  </polyline>
</svg>
