<?xml version="1.0" encoding="UTF-8"?>
<svg xmlns="http://www.w3.org/2000/svg" width="108" height="72" viewBox="0 0 108 72">
  <title>particle img3-m48-p2 c:1 g:1 e:1 h:1</title>
  <metadata>{&quot;entityType&quot;:&quot;particle&quot;,&quot;entityId&quot;:&quot;img3-m48-p2&quot;,&quot;token&quot;:&quot;c:1 g:1 e:1 h:1&quot;,&quot;signature&quot;:&quot;c:1 g:1 e:1 h:1&quot;,&quot;imageName&quot;:&quot;page-003.jpg&quot;,&quot;imageId&quot;:3,&quot;bounds&quot;:{&quot;x&quot;:931,&quot;y&quot;:1065,&quot;w&quot;:108,&quot;h&quot;:72},&quot;atoms&quot;:[{&quot;id&quot;:1772,&quot;token&quot;:&quot;c:1&quot;,&quot;particle_id&quot;:&quot;img3-m48-p2&quot;,&quot;molecule_id&quot;:&quot;img3-m48&quot;,&quot;atom_order&quot;:1},{&quot;id&quot;:1778,&quot;token&quot;:&quot;g:1&quot;,&quot;particle_id&quot;:&quot;img3-m48-p2&quot;,&quot;molecule_id&quot;:&quot;img3-m48&quot;,&quot;atom_order&quot;:2},{&quot;id&quot;:1779,&quot;token&quot;:&quot;e:1&quot;,&quot;particle_id&quot;:&quot;img3-m48-p2&quot;,&quot;molecule_id&quot;:&quot;img3-m48&quot;,&quot;atom_order&quot;:3},{&quot;id&quot;:1780,&quot;token&quot;:&quot;h:1&quot;,&quot;particle_id&quot;:&quot;img3-m48-p2&quot;,&quot;molecule_id&quot;:&quot;img3-m48&quot;,&quot;atom_order&quot;:4}]}</metadata>
  <rect x="0" y="0" width="108" height="72" fill="#f8f0d8"/>
  <image href="file:///C:/Users/HHHES/AppData/Roaming/com.voynichlab.datasetcreator/images/1/35a70f63-88ab-4986-b441-b78046a10087.jpg" x="-931" y="-1065" width="2972" height="3766" opacity="0.92"/>
  <rect x="0.5" y="0.5" width="107" height="71" fill="none" stroke="#111827" stroke-width="1" opacity="0.35"/>
  <polyline points="29,37 28,37 27,37 26,37 25,37 24,37 23,37 22,37 21,37 21,36 20,36 20,35 19,35 18,34 17,34 17,33 16,33 16,32 16,31 16,30 16,29 16,28 16,27 16,26 17,26 17,25 18,24 18,23 19,23 19,22 20,22 21,22 21,21 22,21 23,21 23,20 24,20 25,20 26,20 27,20 27,21 28,21 29,21 30,21 30,22 31,22 32,22 32,23 33,23 33,24 34,24 34,25 35,25 35,26 35,27 36,27 36,28 36,29 36,30 36,31 36,32 36,33 35,33 35,34 34,34 34,35 33,35 32,35 32,36 31,36 30,36 29,36 28,36" fill="none" stroke="#8aff00" stroke-width="3" stroke-linecap="round" stroke-linejoin="round" opacity="0.95">
    <title>1772 c:1</title>
  </polyline>
  <polyline points="26,20 27,20 28,20 29,20 30,20 31,20 32,20 33,20 34,20 35,20 36,20 37,20 38,20 39,20 41,20 42,20 43,20 44,20 45,20 46,20 47,20 48,20 49,20 50,20 51,20 52,20 53,20 54,20 55,19 56,19 57,19 58,19 59,19 60,19 61,19 62,19 63,19 64,19 65,19 66,19 67,19 68,19 69,19 70,19 71,19 71,18 72,18 73,18 74,18 75,18 76,18 77,18 78,18 79,18 80,18 81,18 81,17 82,17 83,17 84,17" fill="none" stroke="#7c3cff" stroke-width="3" stroke-linecap="round" stroke-linejoin="round" opacity="0.95">
    <title>1778 g:1</title>
  </polyline>
  <polyline points="80,33 79,33 79,34 78,34 77,34 77,35 76,35 75,35 74,35 73,35 72,35 71,35 71,34 70,34 69,34 69,33 68,33 68,32 68,31 67,31 67,30 67,29 67,28 67,27 67,26 67,25 68,25 68,24 68,23 69,23 69,22 70,22 70,21 71,21 71,20 72,20 73,20 73,19 74,19 75,19 76,19 76,18 77,18 78,18 79,18 80,18 80,17 81,17 82,17 83,17" fill="none" stroke="#f2e45c" stroke-width="3" stroke-linecap="round" stroke-linejoin="round" opacity="0.95">
    <title>1779 e:1</title>
  </polyline>
  <polyline points="83,16 84,16 84,17 85,17 86,17 86,18 87,18 88,18 88,19 89,19 89,20 89,21 90,21 90,22 90,23 91,23 91,24 91,25 91,26 91,27 92,27 92,28 92,29 92,30 92,31 92,32 92,33 92,34 92,35 92,36 92,37 91,38 91,39 91,40 91,41 90,41 90,42 90,43 90,44 89,44 89,45 88,46 88,47 87,47 87,48 86,48 86,49 85,49 85,50 84,50 84,51 83,52 82,52 82,53 81,53 81,54 80,54 80,55 79,55 79,56 78,56" fill="none" stroke="#ff8c00" stroke-width="3" stroke-linecap="round" stroke-linejoin="round" opacity="0.95">
    <title>1780 h:1</title>
  </polyline>
</svg>
