<?xml version="1.0" encoding="UTF-8"?>
<svg xmlns="http://www.w3.org/2000/svg" width="59" height="89" viewBox="0 0 59 89">
  <title>particle img3-m35-p5 f:1 i:1 d:1</title>
  <metadata>{&quot;entityType&quot;:&quot;particle&quot;,&quot;entityId&quot;:&quot;img3-m35-p5&quot;,&quot;token&quot;:&quot;f:1 i:1 d:1&quot;,&quot;signature&quot;:&quot;f:1 i:1 d:1&quot;,&quot;imageName&quot;:&quot;page-003.jpg&quot;,&quot;imageId&quot;:3,&quot;bounds&quot;:{&quot;x&quot;:1097,&quot;y&quot;:754,&quot;w&quot;:59,&quot;h&quot;:89},&quot;atoms&quot;:[{&quot;id&quot;:1521,&quot;token&quot;:&quot;f:1&quot;,&quot;particle_id&quot;:&quot;img3-m35-p5&quot;,&quot;molecule_id&quot;:&quot;img3-m35&quot;,&quot;atom_order&quot;:1},{&quot;id&quot;:1522,&quot;token&quot;:&quot;i:1&quot;,&quot;particle_id&quot;:&quot;img3-m35-p5&quot;,&quot;molecule_id&quot;:&quot;img3-m35&quot;,&quot;atom_order&quot;:2},{&quot;id&quot;:1524,&quot;token&quot;:&quot;d:1&quot;,&quot;particle_id&quot;:&quot;img3-m35-p5&quot;,&quot;molecule_id&quot;:&quot;img3-m35&quot;,&quot;atom_order&quot;:3}]}</metadata>
  <rect x="0" y="0" width="59" height="89" fill="#f8f0d8"/>
  <image href="file:///C:/Users/HHHES/AppData/Roaming/com.voynichlab.datasetcreator/images/1/35a70f63-88ab-4986-b441-b78046a10087.jpg" x="-1097" y="-754" width="2972" height="3766" opacity="0.92"/>
  <rect x="0.5" y="0.5" width="58" height="88" fill="none" stroke="#111827" stroke-width="1" opacity="0.35"/>
  <polyline points="20,52 20,53 20,54 21,54 21,55 21,56 22,56 22,57 23,58 23,59 24,59 24,60 25,61 25,62 26,62 26,63 27,63 27,64 28,64 28,65 28,66 29,66 29,67 29,68 30,68 30,69 31,69 31,70 32,71 32,72 33,72 33,73" fill="none" stroke="#00a2ff" stroke-width="3" stroke-linecap="round" stroke-linejoin="round" opacity="0.95">
    <title>1521 f:1</title>
  </polyline>
  <polyline points="20,53 21,53 22,53 22,52 23,52 24,52 25,52 25,51 26,51 27,51 28,51 28,50 29,50 30,50 30,49 31,49 32,49 32,48 33,48 34,48 34,47 35,47 35,46 36,46 36,45 37,45 37,44 38,44 38,43 39,43 39,42 40,42 40,41 41,41 41,40 41,39 42,39 42,38 42,37 43,37 43,36 43,35 43,34 43,33 43,32 43,31 43,30 43,29 43,28 43,27 43,26 43,25 42,25 42,24 42,23 41,23 41,22 40,22 40,21 39,21 39,20 38,20 38,19 37,19" fill="none" stroke="#00ff7f" stroke-width="3" stroke-linecap="round" stroke-linejoin="round" opacity="0.95">
    <title>1522 i:1</title>
  </polyline>
  <polyline points="31,39 24,36 23,35 22,35 21,34 20,33 19,32 19,31 18,31 18,30 17,30 17,29 16,29 16,28 16,27 16,26 16,25 16,24 16,23 17,22 17,21 18,21 18,20 19,20 20,19 21,19 21,18 22,18 23,17 24,17 25,17 25,16 26,16 27,16 28,16 29,16 30,16 31,16 32,16 32,17 33,17 34,17 35,17 35,18 36,18 37,18 37,19" fill="none" stroke="#ff2d55" stroke-width="3" stroke-linecap="round" stroke-linejoin="round" opacity="0.95">
    <title>1524 d:1</title>
  </polyline>
</svg>
