<?xml version="1.0" encoding="UTF-8"?>
<svg xmlns="http://www.w3.org/2000/svg" width="55" height="79" viewBox="0 0 55 79">
  <title>particle img3-m152-p10 e:1 h:1</title>
  <metadata>{&quot;entityType&quot;:&quot;particle&quot;,&quot;entityId&quot;:&quot;img3-m152-p10&quot;,&quot;token&quot;:&quot;e:1 h:1&quot;,&quot;signature&quot;:&quot;e:1 h:1&quot;,&quot;imageName&quot;:&quot;page-003.jpg&quot;,&quot;imageId&quot;:3,&quot;bounds&quot;:{&quot;x&quot;:1959,&quot;y&quot;:2545,&quot;w&quot;:55,&quot;h&quot;:79},&quot;atoms&quot;:[{&quot;id&quot;:3740,&quot;token&quot;:&quot;e:1&quot;,&quot;particle_id&quot;:&quot;img3-m152-p10&quot;,&quot;molecule_id&quot;:&quot;img3-m152&quot;,&quot;atom_order&quot;:1},{&quot;id&quot;:3801,&quot;token&quot;:&quot;h:1&quot;,&quot;particle_id&quot;:&quot;img3-m152-p10&quot;,&quot;molecule_id&quot;:&quot;img3-m152&quot;,&quot;atom_order&quot;:2}]}</metadata>
  <rect x="0" y="0" width="55" height="79" fill="#f8f0d8"/>
  <image href="file:///C:/Users/HHHES/AppData/Roaming/com.voynichlab.datasetcreator/images/1/35a70f63-88ab-4986-b441-b78046a10087.jpg" x="-1959" y="-2545" width="2972" height="3766" opacity="0.92"/>
  <rect x="0.5" y="0.5" width="54" height="78" fill="none" stroke="#111827" stroke-width="1" opacity="0.35"/>
  <polyline points="31,33 31,34 30,34 30,35 29,35 28,35 28,36 27,36 26,36 25,36 24,36 23,36 22,36 21,36 21,35 20,35 19,35 18,35 18,34 17,34 16,34 16,33 16,32 16,31 16,30 16,29 16,28 16,27 17,27 17,26 17,25 17,24 18,24 18,23 18,22 19,22 19,21 19,20 20,20 21,20 21,19 22,19 22,18 23,18 24,18 24,17 25,17 26,17 27,17 27,16" fill="none" stroke="#f2e45c" stroke-width="3" stroke-linecap="round" stroke-linejoin="round" opacity="0.95">
    <title>3740 e:1</title>
  </polyline>
  <polyline points="27,16 28,16 29,16 30,17 31,18 32,19 33,19 33,20 34,20 34,21 35,22 35,23 36,24 37,25 37,26 38,26 38,27 38,28 39,29 39,30 39,31 39,32 39,33 39,34 39,35 39,36 38,37 38,38 38,39 38,40 37,40 37,41 36,42 36,44 35,44 35,45 35,46 34,47 34,48 33,49 32,50 31,51 31,52 29,53 28,55 27,56 27,57 26,58 26,59 25,59 25,60 25,61 24,61 23,61 23,62 22,62 21,63 20,63" fill="none" stroke="#ff8c00" stroke-width="3" stroke-linecap="round" stroke-linejoin="round" opacity="0.95">
    <title>3801 h:1</title>
  </polyline>
</svg>
