<?xml version="1.0" encoding="UTF-8"?>
<svg xmlns="http://www.w3.org/2000/svg" width="71" height="77" viewBox="0 0 71 77">
  <title>particle img3-m127-p3 e:1 c:1 h:2</title>
  <metadata>{&quot;entityType&quot;:&quot;particle&quot;,&quot;entityId&quot;:&quot;img3-m127-p3&quot;,&quot;token&quot;:&quot;e:1 c:1 h:2&quot;,&quot;signature&quot;:&quot;e:1 c:1 h:2&quot;,&quot;imageName&quot;:&quot;page-003.jpg&quot;,&quot;imageId&quot;:3,&quot;bounds&quot;:{&quot;x&quot;:1123,&quot;y&quot;:2063,&quot;w&quot;:71,&quot;h&quot;:77},&quot;atoms&quot;:[{&quot;id&quot;:3406,&quot;token&quot;:&quot;e:1&quot;,&quot;particle_id&quot;:&quot;img3-m127-p3&quot;,&quot;molecule_id&quot;:&quot;img3-m127&quot;,&quot;atom_order&quot;:1},{&quot;id&quot;:3439,&quot;token&quot;:&quot;c:1&quot;,&quot;particle_id&quot;:&quot;img3-m127-p3&quot;,&quot;molecule_id&quot;:&quot;img3-m127&quot;,&quot;atom_order&quot;:2},{&quot;id&quot;:3471,&quot;token&quot;:&quot;h:2&quot;,&quot;particle_id&quot;:&quot;img3-m127-p3&quot;,&quot;molecule_id&quot;:&quot;img3-m127&quot;,&quot;atom_order&quot;:3}]}</metadata>
  <rect x="0" y="0" width="71" height="77" fill="#f8f0d8"/>
  <image href="file:///C:/Users/HHHES/AppData/Roaming/com.voynichlab.datasetcreator/images/1/35a70f63-88ab-4986-b441-b78046a10087.jpg" x="-1123" y="-2063" width="2972" height="3766" opacity="0.92"/>
  <rect x="0.5" y="0.5" width="70" height="76" fill="none" stroke="#111827" stroke-width="1" opacity="0.35"/>
  <polyline points="31,58 31,59 30,59 30,60 29,60 28,60 28,61 27,61 26,61 25,61 24,61 23,61 22,61 21,61 21,60 20,60 19,60 18,60 18,59 17,59 16,59 16,58 16,57 16,56 16,55 16,54 16,53 16,52 17,52 17,51 17,50 17,49 18,49 18,48 18,47 19,47 19,46 19,45 20,45 21,45 21,44 22,44 22,43 23,43 24,43 24,42 25,42 26,42 27,42 27,41" fill="none" stroke="#f2e45c" stroke-width="3" stroke-linecap="round" stroke-linejoin="round" opacity="0.95">
    <title>3406 e:1</title>
  </polyline>
  <polyline points="41,37 42,37 42,36 43,36 44,36 45,36 46,35 47,35 48,34 49,34 49,33 50,33 51,32 52,31 53,31 53,30 53,29 54,29 54,28 54,27 55,26 55,25 55,24 55,23 55,22 55,21 54,21 54,20 54,19 53,18 52,17 51,16 50,16 49,16 48,16 47,16 46,16 45,16 44,16 43,16 42,16 41,16 40,16 40,17 39,17 38,18 37,18 37,19 36,19 36,20 35,20 35,21 35,22 34,22 34,23 34,24 34,25 34,26 34,27 34,28 34,29 34,30 35,30 35,31 36,32 36,33 37,33 37,34 38,35 38,36 39,36 40,36 40,37 41,37 42,37" fill="none" stroke="#8aff00" stroke-width="3" stroke-linecap="round" stroke-linejoin="round" opacity="0.95">
    <title>3439 c:1</title>
  </polyline>
  <polyline points="29,61 30,61 30,60 31,60 32,60 32,59 33,59 33,58 34,58 35,57 35,56 36,56 37,55 37,54 38,53 38,52 38,51 39,51 39,50 39,49 39,48 39,47 39,46 38,46 38,45 38,44 38,43 37,43 37,42 37,41 36,40 36,39 36,38 35,38 35,37 35,36 34,36 34,35 34,34 34,33 33,32 33,31 33,30 33,29 33,28 33,27 33,26 34,26 34,25 34,24 34,23 34,22 35,21 35,20 36,20 36,19 36,18 37,18" fill="none" stroke="#ff8c00" stroke-width="3" stroke-linecap="round" stroke-linejoin="round" opacity="0.95">
    <title>3471 h:2</title>
  </polyline>
</svg>
