<?xml version="1.0" encoding="UTF-8"?>
<svg xmlns="http://www.w3.org/2000/svg" width="76" height="91" viewBox="0 0 76 91">
  <title>particle img3-m170-p6 f:1 i:1 d:1</title>
  <metadata>{&quot;entityType&quot;:&quot;particle&quot;,&quot;entityId&quot;:&quot;img3-m170-p6&quot;,&quot;token&quot;:&quot;f:1 i:1 d:1&quot;,&quot;signature&quot;:&quot;f:1 i:1 d:1&quot;,&quot;imageName&quot;:&quot;page-003.jpg&quot;,&quot;imageId&quot;:3,&quot;bounds&quot;:{&quot;x&quot;:2252,&quot;y&quot;:2703,&quot;w&quot;:76,&quot;h&quot;:91},&quot;atoms&quot;:[{&quot;id&quot;:3971,&quot;token&quot;:&quot;f:1&quot;,&quot;particle_id&quot;:&quot;img3-m170-p6&quot;,&quot;molecule_id&quot;:&quot;img3-m170&quot;,&quot;atom_order&quot;:1},{&quot;id&quot;:3981,&quot;token&quot;:&quot;i:1&quot;,&quot;particle_id&quot;:&quot;img3-m170-p6&quot;,&quot;molecule_id&quot;:&quot;img3-m170&quot;,&quot;atom_order&quot;:2},{&quot;id&quot;:3986,&quot;token&quot;:&quot;d:1&quot;,&quot;particle_id&quot;:&quot;img3-m170-p6&quot;,&quot;molecule_id&quot;:&quot;img3-m170&quot;,&quot;atom_order&quot;:3}]}</metadata>
  <rect x="0" y="0" width="76" height="91" fill="#f8f0d8"/>
  <image href="file:///C:/Users/HHHES/AppData/Roaming/com.voynichlab.datasetcreator/images/1/35a70f63-88ab-4986-b441-b78046a10087.jpg" x="-2252" y="-2703" width="2972" height="3766" opacity="0.92"/>
  <rect x="0.5" y="0.5" width="75" height="90" fill="none" stroke="#111827" stroke-width="1" opacity="0.35"/>
  <polyline points="29,54 29,55 29,56 30,56 30,57 30,58 31,58 31,59 32,60 32,61 33,61 33,62 34,63 34,64 35,64 35,65 36,65 36,66 37,66 37,67 37,68 38,68 38,69 38,70 39,70 39,71 40,71 40,72 41,73 41,74 42,74 42,75" fill="none" stroke="#00a2ff" stroke-width="3" stroke-linecap="round" stroke-linejoin="round" opacity="0.95">
    <title>3971 f:1</title>
  </polyline>
  <polyline points="29,55 30,55 31,55 32,55 33,55 34,54 35,54 37,54 37,53 38,53 40,53 41,53 42,53 43,53 44,52 45,52 46,52 47,52 48,51 49,51 50,50 51,50 51,49 52,49 52,48 53,48 54,47 55,46 55,45 56,45 56,44 56,43 57,43 57,42 57,41 57,40 58,40 58,39 58,38 58,37 58,36 58,35 58,34 58,33 58,32 58,31 58,30 58,29 58,28 58,27 58,26 57,26 57,25 57,24 57,23" fill="none" stroke="#00ff7f" stroke-width="3" stroke-linecap="round" stroke-linejoin="round" opacity="0.95">
    <title>3981 i:1</title>
  </polyline>
  <polyline points="18,23 17,23 17,24 16,24 16,23 17,23 17,22 18,22 19,21 20,21 21,20 22,20 23,19 24,18 25,18 26,18 26,17 27,17 28,17 29,17 30,17 31,17 32,17 33,17 33,16 34,16 35,16 36,16 37,16 38,16 39,16 40,16 41,17 43,17 44,18 45,18 46,18 47,19 48,19 48,20 49,20 50,20 50,21 51,21 52,21 52,22 53,22 54,22 54,23 55,23 56,24 57,24 58,25 59,26 60,27" fill="none" stroke="#ff2d55" stroke-width="3" stroke-linecap="round" stroke-linejoin="round" opacity="0.95">
    <title>3986 d:1</title>
  </polyline>
</svg>
