<?xml version="1.0" encoding="UTF-8"?>
<svg xmlns="http://www.w3.org/2000/svg" width="119" height="114" viewBox="0 0 119 114">
  <title>particle img3-m160-p1 e:1 a:1 m:1 c:1 a:1 g:1 e:1</title>
  <metadata>{&quot;entityType&quot;:&quot;particle&quot;,&quot;entityId&quot;:&quot;img3-m160-p1&quot;,&quot;token&quot;:&quot;e:1 a:1 m:1 c:1 a:1 g:1 e:1&quot;,&quot;signature&quot;:&quot;e:1 a:1 m:1 c:1 a:1 g:1 e:1&quot;,&quot;imageName&quot;:&quot;page-003.jpg&quot;,&quot;imageId&quot;:3,&quot;bounds&quot;:{&quot;x&quot;:2077,&quot;y&quot;:2589,&quot;w&quot;:119,&quot;h&quot;:114},&quot;atoms&quot;:[{&quot;id&quot;:3836,&quot;token&quot;:&quot;e:1&quot;,&quot;particle_id&quot;:&quot;img3-m160-p1&quot;,&quot;molecule_id&quot;:&quot;img3-m160&quot;,&quot;atom_order&quot;:1},{&quot;id&quot;:3897,&quot;token&quot;:&quot;a:1&quot;,&quot;particle_id&quot;:&quot;img3-m160-p1&quot;,&quot;molecule_id&quot;:&quot;img3-m160&quot;,&quot;atom_order&quot;:2},{&quot;id&quot;:3900,&quot;token&quot;:&quot;m:1&quot;,&quot;particle_id&quot;:&quot;img3-m160-p1&quot;,&quot;molecule_id&quot;:&quot;img3-m160&quot;,&quot;atom_order&quot;:3},{&quot;id&quot;:3850,&quot;token&quot;:&quot;c:1&quot;,&quot;particle_id&quot;:&quot;img3-m160-p1&quot;,&quot;molecule_id&quot;:&quot;img3-m160&quot;,&quot;atom_order&quot;:4},{&quot;id&quot;:3898,&quot;token&quot;:&quot;a:1&quot;,&quot;particle_id&quot;:&quot;img3-m160-p1&quot;,&quot;molecule_id&quot;:&quot;img3-m160&quot;,&quot;atom_order&quot;:5},{&quot;id&quot;:3892,&quot;token&quot;:&quot;g:1&quot;,&quot;particle_id&quot;:&quot;img3-m160-p1&quot;,&quot;molecule_id&quot;:&quot;img3-m160&quot;,&quot;atom_order&quot;:6},{&quot;id&quot;:3837,&quot;token&quot;:&quot;e:1&quot;,&quot;particle_id&quot;:&quot;img3-m160-p1&quot;,&quot;molecule_id&quot;:&quot;img3-m160&quot;,&quot;atom_order&quot;:7}]}</metadata>
  <rect x="0" y="0" width="119" height="114" fill="#f8f0d8"/>
  <image href="file:///C:/Users/HHHES/AppData/Roaming/com.voynichlab.datasetcreator/images/1/35a70f63-88ab-4986-b441-b78046a10087.jpg" x="-2077" y="-2589" width="2972" height="3766" opacity="0.92"/>
  <rect x="0.5" y="0.5" width="118" height="113" fill="none" stroke="#111827" stroke-width="1" opacity="0.35"/>
  <polyline points="31,82 31,83 30,83 30,84 29,84 28,84 28,85 27,85 26,85 25,85 24,85 23,85 22,85 21,85 21,84 20,84 19,84 18,84 18,83 17,83 16,83 16,82 16,81 16,80 16,79 16,78 16,77 16,76 17,76 17,75 17,74 17,73 18,73 18,72 18,71 19,71 19,70 19,69 20,69 21,69 21,68 22,68 22,67 23,67 24,67 24,66 25,66 26,66 27,66 27,65" fill="none" stroke="#f2e45c" stroke-width="3" stroke-linecap="round" stroke-linejoin="round" opacity="0.95">
    <title>3836 e:1</title>
  </polyline>
  <polyline points="43,82 43,81 43,80 43,79 44,78 44,77 44,76 44,75 45,74 45,73 45,72 45,71 45,70 45,69 45,68 45,67 45,66 45,65 46,65 46,64 46,63 46,62 47,62 47,61 47,60 47,59 48,59 48,58 48,57 48,56 49,55 49,54 49,53 49,52 50,51 50,50 50,49 50,48 50,47 50,46" fill="none" stroke="#00f0b5" stroke-width="3" stroke-linecap="round" stroke-linejoin="round" opacity="0.95">
    <title>3897 a:1</title>
  </polyline>
  <polyline points="50,49 50,48 50,47 50,46 50,45 50,44 50,43 50,42 50,41 51,41 51,40 51,39 51,38 51,37 51,36 51,35 51,34 51,33 51,32 51,31 51,30 51,29 52,29 52,28 52,27 52,26 52,25 52,24 52,23 52,22 52,21 52,20 52,19 53,19 53,18 52,18 51,18 51,19 50,19 50,20 49,20 48,20 47,21 46,21 45,21 45,22 44,22 43,22 43,23 42,23 41,23 41,24 40,24 39,24 39,25 38,25 38,26 37,26 36,27 35,27 35,28 34,28 34,29 33,29 33,30 33,31 32,31 32,32 31,32 31,33 31,34 30,34 30,35 29,35 30,35 31,35 32,35 33,35 34,35 35,35 36,35 37,35 38,35 39,35 40,35 41,35 42,35 43,35 44,35 45,35 46,35 47,35 48,35 49,35 50,35 51,35 52,35 53,35 54,35 55,35 56,35 57,35 58,35 59,35 60,35 61,35 62,35 62,34 63,34 64,34 65,34 66,34 67,34 68,34 69,34 70,34 71,34 72,34 73,34" fill="none" stroke="#ff00ff" stroke-width="3" stroke-linecap="round" stroke-linejoin="round" opacity="0.95">
    <title>3900 m:1</title>
  </polyline>
  <polyline points="71,23 71,22 72,22 72,21 73,21 73,20 74,20 74,19 75,19 75,18 76,18 77,18 77,17 78,17 79,17 80,17 81,16 82,16 83,16 84,16 85,16 86,16 87,16 88,16 88,17 89,17 90,17 91,17 92,18 93,18 93,19 94,19 94,20 94,21 94,22 94,23 94,24 94,25 94,26 94,27 94,28 94,29 94,30 93,30 93,31 93,32 92,32 92,33 91,33 90,34 89,34 88,34 88,35 87,35 86,35 85,35 85,36 84,36 83,36 82,36 81,36 80,36 79,36 78,36 77,36 76,36 76,35 75,35 74,35 73,35 73,34 72,34 71,34 71,33 70,33 70,32 70,31 69,31 69,30 69,29 69,28 68,28 68,27 68,26 68,25 69,25 69,24 69,23 70,23 70,22 71,22 71,21 72,21 73,21 73,20 74,20" fill="none" stroke="#8aff00" stroke-width="3" stroke-linecap="round" stroke-linejoin="round" opacity="0.95">
    <title>3850 c:1</title>
  </polyline>
  <polyline points="64,98 64,97 65,96 65,95 65,94 65,93 65,92 66,91 66,90 66,89 66,88 66,87 66,86 65,86 65,85 65,84 65,83 65,82 65,81 65,80 65,79 65,78 65,77 65,76 65,75 65,74 65,73 65,72 65,71 65,70 65,69 65,68 65,67 65,66 65,65 66,64 66,63 66,62 66,61 66,60 66,59 67,58 67,57 67,56 67,55 67,54 67,53 67,52 67,51 67,50 67,49 67,48 67,47 68,46 68,45 68,44 68,43 68,42 68,41 68,40 68,39 68,38 68,37 68,36 68,35 68,34 68,33 68,32 68,31 68,30 68,29 68,28 68,27 68,26 68,25 68,24 68,23 68,22 68,21" fill="none" stroke="#00f0b5" stroke-width="3" stroke-linecap="round" stroke-linejoin="round" opacity="0.95">
    <title>3898 a:1</title>
  </polyline>
  <polyline points="26,66 27,66 28,66 29,66 30,66 31,66 32,66 33,66 35,66 36,66 37,66 38,66 39,66 41,65 42,65 43,65 44,65 45,65 46,65 47,65 49,65 50,65 51,65 52,65 53,65 55,65 56,65 57,65 58,65 59,65 60,65 62,65 63,65 64,65 65,65 66,65 67,65 68,65 70,65 71,65 72,65 73,65 74,65 75,65 76,65 77,65 78,65 79,65 80,65 81,65 82,65 83,65 84,65 85,65 86,65 87,65 88,65 89,65 90,65 91,65 92,65 93,65 94,65 95,65 96,65 97,65" fill="none" stroke="#7c3cff" stroke-width="3" stroke-linecap="round" stroke-linejoin="round" opacity="0.95">
    <title>3892 g:1</title>
  </polyline>
  <polyline points="103,80 103,81 102,81 102,82 101,82 100,82 100,83 99,83 98,83 97,83 96,83 95,83 94,83 93,83 93,82 92,82 91,82 90,82 90,81 89,81 88,81 88,80 88,79 88,78 88,77 88,76 88,75 88,74 89,74 89,73 89,72 89,71 90,71 90,70 90,69 91,69 91,68 91,67 92,67 93,67 93,66 94,66 94,65 95,65 96,65 96,64 97,64 98,64 99,64 99,63" fill="none" stroke="#f2e45c" stroke-width="3" stroke-linecap="round" stroke-linejoin="round" opacity="0.95">
    <title>3837 e:1</title>
  </polyline>
</svg>
