<?xml version="1.0" encoding="UTF-8"?>
<svg xmlns="http://www.w3.org/2000/svg" width="84" height="94" viewBox="0 0 84 94">
  <title>particle img3-m16-p2 l:1 f:1 i:1 d:1</title>
  <metadata>{&quot;entityType&quot;:&quot;particle&quot;,&quot;entityId&quot;:&quot;img3-m16-p2&quot;,&quot;token&quot;:&quot;l:1 f:1 i:1 d:1&quot;,&quot;signature&quot;:&quot;l:1 f:1 i:1 d:1&quot;,&quot;imageName&quot;:&quot;page-003.jpg&quot;,&quot;imageId&quot;:3,&quot;bounds&quot;:{&quot;x&quot;:1747,&quot;y&quot;:563,&quot;w&quot;:84,&quot;h&quot;:94},&quot;atoms&quot;:[{&quot;id&quot;:1212,&quot;token&quot;:&quot;l:1&quot;,&quot;particle_id&quot;:&quot;img3-m16-p2&quot;,&quot;molecule_id&quot;:&quot;img3-m16&quot;,&quot;atom_order&quot;:1},{&quot;id&quot;:1213,&quot;token&quot;:&quot;f:1&quot;,&quot;particle_id&quot;:&quot;img3-m16-p2&quot;,&quot;molecule_id&quot;:&quot;img3-m16&quot;,&quot;atom_order&quot;:2},{&quot;id&quot;:1214,&quot;token&quot;:&quot;i:1&quot;,&quot;particle_id&quot;:&quot;img3-m16-p2&quot;,&quot;molecule_id&quot;:&quot;img3-m16&quot;,&quot;atom_order&quot;:3},{&quot;id&quot;:1215,&quot;token&quot;:&quot;d:1&quot;,&quot;particle_id&quot;:&quot;img3-m16-p2&quot;,&quot;molecule_id&quot;:&quot;img3-m16&quot;,&quot;atom_order&quot;:4}]}</metadata>
  <rect x="0" y="0" width="84" height="94" fill="#f8f0d8"/>
  <image href="file:///C:/Users/HHHES/AppData/Roaming/com.voynichlab.datasetcreator/images/1/35a70f63-88ab-4986-b441-b78046a10087.jpg" x="-1747" y="-563" width="2972" height="3766" opacity="0.92"/>
  <rect x="0.5" y="0.5" width="83" height="93" fill="none" stroke="#111827" stroke-width="1" opacity="0.35"/>
  <polyline points="17,55 17,56 18,56 18,57 18,58 19,58 19,59 20,60 20,61 21,61 21,62 21,63 22,63 22,64 23,65 23,66 24,67 24,68 24,69 25,69 25,70 26,71 26,72 27,72 27,73 28,73 29,73 30,73 30,72 31,72 31,71 32,70 33,70 33,69 34,69 35,68 35,67 36,67 37,67 37,66 38,66 39,66 39,65 40,65 40,64 41,64 42,64 42,63 43,63 44,62 45,62 45,61 46,61 47,61 47,60 48,60 48,59" fill="none" stroke="#ff5f1f" stroke-width="3" stroke-linecap="round" stroke-linejoin="round" opacity="0.95">
    <title>1212 l:1</title>
  </polyline>
  <polyline points="48,57 48,58 48,59 49,59 49,60 49,61 50,61 50,62 51,63 51,64 52,64 52,65 53,66 53,67 54,67 54,68 55,68 55,69 56,69 56,70 56,71 57,71 57,72 57,73 58,73 58,74 59,74 59,75 60,76 60,77 61,77 61,78" fill="none" stroke="#00a2ff" stroke-width="3" stroke-linecap="round" stroke-linejoin="round" opacity="0.95">
    <title>1213 f:1</title>
  </polyline>
  <polyline points="48,58 49,58 49,57 50,57 51,57 51,56 52,56 53,56 54,56 54,55 55,55 56,55 56,54 57,54 58,54 59,54 59,53 60,53 60,52 61,52 62,51 63,51 63,50 64,50 64,49 64,48 65,48 65,47 65,46 66,46 66,45 67,44 67,43 67,42 68,41 68,40 68,39 68,38 68,37 68,36 68,35 68,34 68,33 68,32 68,31 68,30 68,29 67,29 67,28 67,27 66,27 66,26 65,26 65,25 65,24 64,24 64,23" fill="none" stroke="#00ff7f" stroke-width="3" stroke-linecap="round" stroke-linejoin="round" opacity="0.95">
    <title>1214 i:1</title>
  </polyline>
  <polyline points="16,25 16,24 17,24 17,23 18,23 19,23 19,22 20,22 20,21 21,21 22,21 22,20 23,20 24,20 24,19 25,19 26,19 27,18 28,18 29,18 29,17 30,17 31,17 32,17 33,16 34,16 35,16 36,16 37,16 38,16 39,16 40,16 41,16 42,16 43,16 44,16 45,16 46,16 47,16 48,16 49,17 50,17 51,17 52,17 53,17 53,18 54,18 55,18 56,18 56,19 57,19 58,19 58,20 59,20 60,20 60,21 61,21 61,22 62,22 62,23 63,23 64,23" fill="none" stroke="#ff2d55" stroke-width="3" stroke-linecap="round" stroke-linejoin="round" opacity="0.95">
    <title>1215 d:1</title>
  </polyline>
</svg>
