<?xml version="1.0" encoding="UTF-8"?>
<svg xmlns="http://www.w3.org/2000/svg" width="51" height="70" viewBox="0 0 51 70">
  <title>particle img3-m106-p4 e:1 h:1</title>
  <metadata>{&quot;entityType&quot;:&quot;particle&quot;,&quot;entityId&quot;:&quot;img3-m106-p4&quot;,&quot;token&quot;:&quot;e:1 h:1&quot;,&quot;signature&quot;:&quot;e:1 h:1&quot;,&quot;imageName&quot;:&quot;page-003.jpg&quot;,&quot;imageId&quot;:3,&quot;bounds&quot;:{&quot;x&quot;:1502,&quot;y&quot;:1851,&quot;w&quot;:51,&quot;h&quot;:70},&quot;atoms&quot;:[{&quot;id&quot;:3163,&quot;token&quot;:&quot;e:1&quot;,&quot;particle_id&quot;:&quot;img3-m106-p4&quot;,&quot;molecule_id&quot;:&quot;img3-m106&quot;,&quot;atom_order&quot;:1},{&quot;id&quot;:3227,&quot;token&quot;:&quot;h:1&quot;,&quot;particle_id&quot;:&quot;img3-m106-p4&quot;,&quot;molecule_id&quot;:&quot;img3-m106&quot;,&quot;atom_order&quot;:2}]}</metadata>
  <rect x="0" y="0" width="51" height="70" fill="#f8f0d8"/>
  <image href="file:///C:/Users/HHHES/AppData/Roaming/com.voynichlab.datasetcreator/images/1/35a70f63-88ab-4986-b441-b78046a10087.jpg" x="-1502" y="-1851" width="2972" height="3766" opacity="0.92"/>
  <rect x="0.5" y="0.5" width="50" height="69" fill="none" stroke="#111827" stroke-width="1" opacity="0.35"/>
  <polyline points="31,33 31,34 30,34 30,35 29,35 28,35 28,36 27,36 26,36 25,36 24,36 23,36 22,36 21,36 21,35 20,35 19,35 18,35 18,34 17,34 16,34 16,33 16,32 16,31 16,30 16,29 16,28 16,27 17,27 17,26 17,25 17,24 18,24 18,23 18,22 19,22 19,21 19,20 20,20 21,20 21,19 22,19 22,18 23,18 24,18 24,17 25,17 26,17 27,17 27,16" fill="none" stroke="#f2e45c" stroke-width="3" stroke-linecap="round" stroke-linejoin="round" opacity="0.95">
    <title>3163 e:1</title>
  </polyline>
  <polyline points="27,16 27,17 28,17 29,18 30,18 30,19 31,19 31,20 31,21 32,21 32,22 32,23 33,23 33,24 33,25 34,25 34,26 34,27 34,28 34,29 35,29 35,30 35,31 35,32 35,33 35,34 35,35 35,36 35,37 34,37 34,38 34,39 34,40 33,41 33,42 33,43 32,43 32,44 31,45 31,46 30,46 30,47 30,48 29,48 29,49 28,49 28,50 28,51 27,51 27,52 26,52 26,53 26,54 25,54" fill="none" stroke="#ff8c00" stroke-width="3" stroke-linecap="round" stroke-linejoin="round" opacity="0.95">
    <title>3227 h:1</title>
  </polyline>
</svg>
