<?xml version="1.0" encoding="UTF-8"?>
<svg xmlns="http://www.w3.org/2000/svg" width="68" height="75" viewBox="0 0 68 75">
  <title>particle img3-m35-p8 f:1 j:1</title>
  <metadata>{&quot;entityType&quot;:&quot;particle&quot;,&quot;entityId&quot;:&quot;img3-m35-p8&quot;,&quot;token&quot;:&quot;f:1 j:1&quot;,&quot;signature&quot;:&quot;f:1 j:1&quot;,&quot;imageName&quot;:&quot;page-003.jpg&quot;,&quot;imageId&quot;:3,&quot;bounds&quot;:{&quot;x&quot;:1213,&quot;y&quot;:782,&quot;w&quot;:68,&quot;h&quot;:75},&quot;atoms&quot;:[{&quot;id&quot;:1530,&quot;token&quot;:&quot;f:1&quot;,&quot;particle_id&quot;:&quot;img3-m35-p8&quot;,&quot;molecule_id&quot;:&quot;img3-m35&quot;,&quot;atom_order&quot;:1},{&quot;id&quot;:1531,&quot;token&quot;:&quot;j:1&quot;,&quot;particle_id&quot;:&quot;img3-m35-p8&quot;,&quot;molecule_id&quot;:&quot;img3-m35&quot;,&quot;atom_order&quot;:2}]}</metadata>
  <rect x="0" y="0" width="68" height="75" fill="#f8f0d8"/>
  <image href="file:///C:/Users/HHHES/AppData/Roaming/com.voynichlab.datasetcreator/images/1/35a70f63-88ab-4986-b441-b78046a10087.jpg" x="-1213" y="-782" width="2972" height="3766" opacity="0.92"/>
  <rect x="0.5" y="0.5" width="67" height="74" fill="none" stroke="#111827" stroke-width="1" opacity="0.35"/>
  <polyline points="39,21 39,22 39,23 40,23 40,24 40,25 41,25 41,26 42,27 42,28 43,28 43,29 44,30 44,31 45,31 45,32 46,32 46,33 47,33 47,34 47,35 48,35 48,36 48,37 49,37 49,38 50,38 50,39 51,40 51,41 52,41 52,42" fill="none" stroke="#00a2ff" stroke-width="3" stroke-linecap="round" stroke-linejoin="round" opacity="0.95">
    <title>1530 f:1</title>
  </polyline>
  <polyline points="38,22 38,21 39,21 39,20 39,19 40,19 40,18 41,18 42,18 42,17 43,17 44,17 44,16 45,16 46,16 47,16 48,16 49,16 50,16 50,17 51,17 51,18 51,19 51,20 51,21 51,22 51,23 51,24 51,25 50,25 50,26 49,26 49,27 49,28 48,28 47,28 47,29 46,29 46,30 45,30 44,31 44,32 43,32 42,33 41,34 41,35 40,35 39,36 38,36 38,37 37,37 37,38 36,38 36,39 35,39 35,40 34,40 34,41 33,41 33,42 32,42 32,43 31,43 31,44 30,44 30,45 29,45 29,46 28,46 27,47 26,48 25,49 25,50 24,50 23,51 22,51 22,52 21,53 20,53 20,54 19,54 19,55 18,55 18,56 17,57 17,58 16,58 16,59" fill="none" stroke="#4a9e6a" stroke-width="3" stroke-linecap="round" stroke-linejoin="round" opacity="0.95">
    <title>1531 j:1</title>
  </polyline>
</svg>
