<?xml version="1.0" encoding="UTF-8"?>
<svg xmlns="http://www.w3.org/2000/svg" width="104" height="100" viewBox="0 0 104 100">
  <title>particle img3-m35-p2 a:1 e:1 b:1 c:1 a:1</title>
  <metadata>{&quot;entityType&quot;:&quot;particle&quot;,&quot;entityId&quot;:&quot;img3-m35-p2&quot;,&quot;token&quot;:&quot;a:1 e:1 b:1 c:1 a:1&quot;,&quot;signature&quot;:&quot;a:1 e:1 b:1 c:1 a:1&quot;,&quot;imageName&quot;:&quot;page-003.jpg&quot;,&quot;imageId&quot;:3,&quot;bounds&quot;:{&quot;x&quot;:982,&quot;y&quot;:735,&quot;w&quot;:104,&quot;h&quot;:100},&quot;atoms&quot;:[{&quot;id&quot;:1514,&quot;token&quot;:&quot;a:1&quot;,&quot;particle_id&quot;:&quot;img3-m35-p2&quot;,&quot;molecule_id&quot;:&quot;img3-m35&quot;,&quot;atom_order&quot;:1},{&quot;id&quot;:1515,&quot;token&quot;:&quot;e:1&quot;,&quot;particle_id&quot;:&quot;img3-m35-p2&quot;,&quot;molecule_id&quot;:&quot;img3-m35&quot;,&quot;atom_order&quot;:2},{&quot;id&quot;:1516,&quot;token&quot;:&quot;b:1&quot;,&quot;particle_id&quot;:&quot;img3-m35-p2&quot;,&quot;molecule_id&quot;:&quot;img3-m35&quot;,&quot;atom_order&quot;:3},{&quot;id&quot;:1517,&quot;token&quot;:&quot;c:1&quot;,&quot;particle_id&quot;:&quot;img3-m35-p2&quot;,&quot;molecule_id&quot;:&quot;img3-m35&quot;,&quot;atom_order&quot;:4},{&quot;id&quot;:1518,&quot;token&quot;:&quot;a:1&quot;,&quot;particle_id&quot;:&quot;img3-m35-p2&quot;,&quot;molecule_id&quot;:&quot;img3-m35&quot;,&quot;atom_order&quot;:5}]}</metadata>
  <rect x="0" y="0" width="104" height="100" fill="#f8f0d8"/>
  <image href="file:///C:/Users/HHHES/AppData/Roaming/com.voynichlab.datasetcreator/images/1/35a70f63-88ab-4986-b441-b78046a10087.jpg" x="-982" y="-735" width="2972" height="3766" opacity="0.92"/>
  <rect x="0.5" y="0.5" width="103" height="99" fill="none" stroke="#111827" stroke-width="1" opacity="0.35"/>
  <polyline points="34,84 34,83 34,82 35,81 35,80 35,79 35,78 35,77 35,76 35,75 35,74 35,73 35,72 35,71 36,70 36,69 36,68 36,67 36,66 36,65 36,64 36,63 36,62 36,61 36,60 36,59 36,58 36,57 36,56 36,55 36,54 36,53 36,52 36,51 36,50 36,49 36,48 36,47 36,46 36,45 36,44 37,44 37,43 37,42 37,41 37,40 37,39 37,38 37,37 37,36 37,35 37,34 37,33 37,32 37,31 37,30 37,29 37,28 37,27 37,26 37,25 37,24 37,23 37,22 37,21" fill="none" stroke="#00f0b5" stroke-width="3" stroke-linecap="round" stroke-linejoin="round" opacity="0.95">
    <title>1514 a:1</title>
  </polyline>
  <polyline points="37,21 36,21 35,21 35,22 34,22 33,22 32,22 31,22 30,22 29,23 28,23 27,23 26,24 25,24 24,24 24,25 23,25 22,25 21,26 20,26 20,27 19,27 18,27 18,28 17,28 17,29 16,29 16,30 16,31 16,32 16,33 17,33 17,34 18,34 18,35 19,35 20,35 21,36 22,36 23,36 24,36" fill="none" stroke="#f2e45c" stroke-width="3" stroke-linecap="round" stroke-linejoin="round" opacity="0.95">
    <title>1515 e:1</title>
  </polyline>
  <polyline points="22,36 23,36 24,36 25,36 26,36 27,36 28,37 29,37 30,37 31,37 32,37 33,37 34,37 35,38 36,38 37,38 38,38 39,38 40,38 41,38 42,38 43,38 44,38 45,38 46,38 47,38 48,38 49,38 50,38 51,38 52,38 53,38 54,39 55,39 56,39 57,39 58,39 59,39 60,39 61,39 62,39 63,39 64,39 65,39 66,39 66,38 67,38 68,38 69,38 70,38 71,38 71,37 72,37 73,37 74,37 75,37 75,36 76,36 77,36 78,36 78,35 79,35 80,35 80,34 81,34 82,34 82,33" fill="none" stroke="#2f7df6" stroke-width="3" stroke-linecap="round" stroke-linejoin="round" opacity="0.95">
    <title>1516 b:1</title>
  </polyline>
  <polyline points="82,34 83,34 83,33 84,33 84,32 85,32 85,31 86,31 86,30 87,30 87,29 87,28 88,28 88,27 88,26 87,26 87,25 87,24 87,23 86,23 86,22 85,22 85,21 85,20 84,20 84,19 83,19 82,19 82,18 81,18 80,18 79,17 78,17 77,17 76,17 75,16 74,16 73,16 72,16 71,16 70,16 69,16 68,16 67,17 66,17 65,17 64,17 64,18 63,18 62,18 62,19 61,19 61,20 60,20 60,21 59,21 59,22 58,22 58,23 57,23 57,24 56,24 56,25 55,25 55,26 55,27 54,27 54,28 54,29 54,30 54,31 53,31 53,32 53,33 53,34 53,35 54,36 54,37 55,37 56,37 57,38 58,38 59,38 60,38 61,38 62,38 62,39 63,39 64,39 65,39 66,39 66,38 67,38 68,38 69,38 70,37 71,37 72,37 73,36 74,36 75,36 76,36 76,35 77,35 78,35 79,35 80,34 81,34 82,34 82,33" fill="none" stroke="#8aff00" stroke-width="3" stroke-linecap="round" stroke-linejoin="round" opacity="0.95">
    <title>1517 c:1</title>
  </polyline>
  <polyline points="53,32 53,33 53,34 53,35 53,36 53,37 53,38 53,39 54,40 54,41 54,42 54,43 54,44 54,45 54,46 53,46 53,47 53,48 53,49 53,50 53,51 53,52 53,53 53,54 52,54 52,55 52,56 52,57 52,58 52,59 52,60 52,61 52,62 51,62 51,63 51,64 51,65 51,66 51,67 51,68 51,69 51,70 51,71 51,72 51,73 51,74 51,75 51,76 51,77 51,78 51,79" fill="none" stroke="#00f0b5" stroke-width="3" stroke-linecap="round" stroke-linejoin="round" opacity="0.95">
    <title>1518 a:1</title>
  </polyline>
</svg>
