<?xml version="1.0" encoding="UTF-8"?>
<svg xmlns="http://www.w3.org/2000/svg" width="62" height="89" viewBox="0 0 62 89">
  <title>particle img3-m148-p8 e:1 i:1 d:1</title>
  <metadata>{&quot;entityType&quot;:&quot;particle&quot;,&quot;entityId&quot;:&quot;img3-m148-p8&quot;,&quot;token&quot;:&quot;e:1 i:1 d:1&quot;,&quot;signature&quot;:&quot;e:1 i:1 d:1&quot;,&quot;imageName&quot;:&quot;page-003.jpg&quot;,&quot;imageId&quot;:3,&quot;bounds&quot;:{&quot;x&quot;:1551,&quot;y&quot;:2485,&quot;w&quot;:62,&quot;h&quot;:89},&quot;atoms&quot;:[{&quot;id&quot;:3729,&quot;token&quot;:&quot;e:1&quot;,&quot;particle_id&quot;:&quot;img3-m148-p8&quot;,&quot;molecule_id&quot;:&quot;img3-m148&quot;,&quot;atom_order&quot;:1},{&quot;id&quot;:3796,&quot;token&quot;:&quot;i:1&quot;,&quot;particle_id&quot;:&quot;img3-m148-p8&quot;,&quot;molecule_id&quot;:&quot;img3-m148&quot;,&quot;atom_order&quot;:2},{&quot;id&quot;:3797,&quot;token&quot;:&quot;d:1&quot;,&quot;particle_id&quot;:&quot;img3-m148-p8&quot;,&quot;molecule_id&quot;:&quot;img3-m148&quot;,&quot;atom_order&quot;:3}]}</metadata>
  <rect x="0" y="0" width="62" height="89" fill="#f8f0d8"/>
  <image href="file:///C:/Users/HHHES/AppData/Roaming/com.voynichlab.datasetcreator/images/1/35a70f63-88ab-4986-b441-b78046a10087.jpg" x="-1551" y="-2485" width="2972" height="3766" opacity="0.92"/>
  <rect x="0.5" y="0.5" width="61" height="88" fill="none" stroke="#111827" stroke-width="1" opacity="0.35"/>
  <polyline points="36,70 36,71 35,71 35,72 34,72 33,72 33,73 32,73 31,73 30,73 29,73 28,73 27,73 26,73 26,72 25,72 24,72 23,72 23,71 22,71 21,71 21,70 21,69 21,68 21,67 21,66 21,65 21,64 22,64 22,63 22,62 22,61 23,61 23,60 23,59 24,59 24,58 24,57 25,57 26,57 26,56 27,56 27,55 28,55 29,55 29,54 30,54 31,54 32,54 32,53" fill="none" stroke="#f2e45c" stroke-width="3" stroke-linecap="round" stroke-linejoin="round" opacity="0.95">
    <title>3729 e:1</title>
  </polyline>
  <polyline points="32,54 32,53 33,53 34,53 34,52 35,52 35,51 36,51 37,50 38,50 38,49 39,49 39,48 40,48 40,47 41,47 41,46 42,45 42,44 43,44 43,43 43,42 44,41 44,40 45,40 45,39 45,38 45,37 45,36 45,35 46,35 46,34 46,33 46,32 46,31 46,30 46,29 46,28 45,28 45,27 45,26 44,26 44,25 44,24 43,24 43,23 42,22 41,21" fill="none" stroke="#00ff7f" stroke-width="3" stroke-linecap="round" stroke-linejoin="round" opacity="0.95">
    <title>3796 i:1</title>
  </polyline>
  <polyline points="17,35 17,34 17,33 16,33 16,32 16,31 16,30 16,29 16,28 16,27 16,26 17,25 17,24 18,24 19,23 19,22 20,22 20,21 21,21 22,20 23,20 23,19 24,19 24,18 25,18 26,18 26,17 27,17 28,17 28,16 29,16 30,16 31,16 32,16 33,16 34,16 35,16 36,16 37,16 37,17 38,17 39,17 39,18 40,18 41,19 42,20 42,21 42,22 43,22" fill="none" stroke="#ff2d55" stroke-width="3" stroke-linecap="round" stroke-linejoin="round" opacity="0.95">
    <title>3797 d:1</title>
  </polyline>
</svg>
