<?xml version="1.0" encoding="UTF-8"?>
<svg xmlns="http://www.w3.org/2000/svg" width="49" height="68" viewBox="0 0 49 68">
  <title>particle img3-m24-p1 n:1</title>
  <metadata>{&quot;entityType&quot;:&quot;particle&quot;,&quot;entityId&quot;:&quot;img3-m24-p1&quot;,&quot;token&quot;:&quot;n:1&quot;,&quot;signature&quot;:&quot;n:1&quot;,&quot;imageName&quot;:&quot;page-003.jpg&quot;,&quot;imageId&quot;:3,&quot;bounds&quot;:{&quot;x&quot;:1379,&quot;y&quot;:654,&quot;w&quot;:49,&quot;h&quot;:68},&quot;atoms&quot;:[{&quot;id&quot;:3709,&quot;token&quot;:&quot;n:1&quot;,&quot;particle_id&quot;:&quot;img3-m24-p1&quot;,&quot;molecule_id&quot;:&quot;img3-m24&quot;,&quot;atom_order&quot;:1}]}</metadata>
  <rect x="0" y="0" width="49" height="68" fill="#f8f0d8"/>
  <image href="file:///C:/Users/HHHES/AppData/Roaming/com.voynichlab.datasetcreator/images/1/35a70f63-88ab-4986-b441-b78046a10087.jpg" x="-1379" y="-654" width="2972" height="3766" opacity="0.92"/>
  <rect x="0.5" y="0.5" width="48" height="67" fill="none" stroke="#111827" stroke-width="1" opacity="0.35"/>
  <polyline points="18,43 18,42 18,41 18,40 18,39 17,38 17,37 17,36 17,35 17,34 16,34 16,33 16,32 17,31 17,30 17,29 17,28 17,27 17,26 17,25 17,24 18,23 18,22 18,21 19,21 19,20 20,20 20,19 21,19 21,18 22,18 23,17 24,17 25,16 26,16 27,16 28,16 29,17 30,17 30,18 31,19 32,20 32,21 32,22 33,22 33,23 33,24 33,25 33,26 33,27 33,28 33,29 33,30 33,31 32,32 32,33 32,34 32,35 32,36 32,37 32,38 31,40 30,40 30,41 30,42 29,43 28,43 28,44 27,45 26,46 25,46 24,47 23,48 22,49 21,50 20,50 20,51 19,52 18,52" fill="none" stroke="#f92f59" stroke-width="3" stroke-linecap="round" stroke-linejoin="round" opacity="0.95">
    <title>3709 n:1</title>
  </polyline>
</svg>
