<?xml version="1.0" encoding="UTF-8"?>
<svg xmlns="http://www.w3.org/2000/svg" width="111" height="87" viewBox="0 0 111 87">
  <title>particle img3-m197-p4 k:1 f:1 i:1 d:1</title>
  <metadata>{&quot;entityType&quot;:&quot;particle&quot;,&quot;entityId&quot;:&quot;img3-m197-p4&quot;,&quot;token&quot;:&quot;k:1 f:1 i:1 d:1&quot;,&quot;signature&quot;:&quot;k:1 f:1 i:1 d:1&quot;,&quot;imageName&quot;:&quot;page-003.jpg&quot;,&quot;imageId&quot;:3,&quot;bounds&quot;:{&quot;x&quot;:2105,&quot;y&quot;:2977,&quot;w&quot;:111,&quot;h&quot;:87},&quot;atoms&quot;:[{&quot;id&quot;:4108,&quot;token&quot;:&quot;k:1&quot;,&quot;particle_id&quot;:&quot;img3-m197-p4&quot;,&quot;molecule_id&quot;:&quot;img3-m197&quot;,&quot;atom_order&quot;:1},{&quot;id&quot;:4102,&quot;token&quot;:&quot;f:1&quot;,&quot;particle_id&quot;:&quot;img3-m197-p4&quot;,&quot;molecule_id&quot;:&quot;img3-m197&quot;,&quot;atom_order&quot;:2},{&quot;id&quot;:4104,&quot;token&quot;:&quot;i:1&quot;,&quot;particle_id&quot;:&quot;img3-m197-p4&quot;,&quot;molecule_id&quot;:&quot;img3-m197&quot;,&quot;atom_order&quot;:3},{&quot;id&quot;:4106,&quot;token&quot;:&quot;d:1&quot;,&quot;particle_id&quot;:&quot;img3-m197-p4&quot;,&quot;molecule_id&quot;:&quot;img3-m197&quot;,&quot;atom_order&quot;:4}]}</metadata>
  <rect x="0" y="0" width="111" height="87" fill="#f8f0d8"/>
  <image href="file:///C:/Users/HHHES/AppData/Roaming/com.voynichlab.datasetcreator/images/1/35a70f63-88ab-4986-b441-b78046a10087.jpg" x="-2105" y="-2977" width="2972" height="3766" opacity="0.92"/>
  <rect x="0.5" y="0.5" width="110" height="86" fill="none" stroke="#111827" stroke-width="1" opacity="0.35"/>
  <polyline points="16,46 16,47 17,47 17,48 18,48 18,49 18,50 19,50 19,51 20,51 20,52 21,52 21,53 22,54 22,55 23,55 23,56 24,57 24,58 25,59 26,60 26,61 27,62 27,63 28,64 28,65 29,65 29,66 29,67 30,67 30,68 30,69 31,69 31,70 32,69 32,68 33,67 33,66 34,64 34,63 35,63 35,61 36,60 36,59 36,58 37,58 37,57 38,57 38,56 39,56 39,55 40,55 40,54 40,53 41,53 41,52 41,51 41,50 42,50 42,49 42,50 42,51 42,52 42,53 43,54 43,55 43,57 44,57 44,58 44,59 45,59 45,60 45,61 46,62 46,63 47,64 48,65 48,66 49,66 49,67 49,68 50,68 50,69 50,70 51,70 51,71 52,71 52,70 53,69 54,69 54,68 55,67 56,66 56,65 57,65 57,64 57,63 58,63 58,62 59,61 59,60 60,60 60,59 60,58 60,57 61,57 61,56 62,56 62,55 63,54 63,53 64,53 64,52 64,51" fill="none" stroke="#ffffff" stroke-width="3" stroke-linecap="round" stroke-linejoin="round" opacity="0.95">
    <title>4108 k:1</title>
  </polyline>
  <polyline points="64,50 64,51 64,52 65,52 65,53 65,54 66,54 66,55 67,56 67,57 68,57 68,58 69,59 69,60 70,60 70,61 71,61 71,62 72,62 72,63 72,64 73,64 73,65 73,66 74,66 74,67 75,67 75,68 76,69 76,70 77,70 77,71" fill="none" stroke="#00a2ff" stroke-width="3" stroke-linecap="round" stroke-linejoin="round" opacity="0.95">
    <title>4102 f:1</title>
  </polyline>
  <polyline points="77,71 78,71 79,70 80,69 81,69 82,68 83,68 84,67 85,66 86,66 87,65 87,64 88,64 89,63 90,62 90,61 91,61 91,60 92,60 92,59 92,58 93,57 93,56 94,55 94,54 94,53 94,52 95,51 95,49 95,48 95,47 95,46 95,45 95,44 95,43 95,42 95,41 95,40 95,39 95,38 94,37 93,36 93,35 92,35 92,34 91,33 90,33 90,32 89,31 89,30 88,29 87,28 87,27 86,27 85,26 84,26 83,26 83,25" fill="none" stroke="#00ff7f" stroke-width="3" stroke-linecap="round" stroke-linejoin="round" opacity="0.95">
    <title>4104 i:1</title>
  </polyline>
  <polyline points="20,21 21,21 22,20 23,20 24,20 25,19 26,19 27,18 28,18 29,17 30,17 31,17 32,17 33,17 34,16 35,16 37,16 38,16 40,17 41,17 43,17 44,17 45,17 46,18 48,18 50,18 51,18 53,18 54,18 55,18 56,18 56,19 57,19 58,19 59,19 60,19 61,20 62,20 63,20 64,20 65,21 66,21 67,21 68,21 69,21 69,22 70,22 71,22 73,22 73,23 74,23 75,23 76,23 76,24 77,24 78,24 79,24 80,25 81,25 82,25 83,25 84,25 85,26 86,26" fill="none" stroke="#ff2d55" stroke-width="3" stroke-linecap="round" stroke-linejoin="round" opacity="0.95">
    <title>4106 d:1</title>
  </polyline>
</svg>
