<?xml version="1.0" encoding="UTF-8"?>
<svg xmlns="http://www.w3.org/2000/svg" width="60" height="80" viewBox="0 0 60 80">
  <title>particle img3-m154-p4 e:1 h:1</title>
  <metadata>{&quot;entityType&quot;:&quot;particle&quot;,&quot;entityId&quot;:&quot;img3-m154-p4&quot;,&quot;token&quot;:&quot;e:1 h:1&quot;,&quot;signature&quot;:&quot;e:1 h:1&quot;,&quot;imageName&quot;:&quot;page-003.jpg&quot;,&quot;imageId&quot;:3,&quot;bounds&quot;:{&quot;x&quot;:2072,&quot;y&quot;:2554,&quot;w&quot;:60,&quot;h&quot;:80},&quot;atoms&quot;:[{&quot;id&quot;:3744,&quot;token&quot;:&quot;e:1&quot;,&quot;particle_id&quot;:&quot;img3-m154-p4&quot;,&quot;molecule_id&quot;:&quot;img3-m154&quot;,&quot;atom_order&quot;:1},{&quot;id&quot;:3802,&quot;token&quot;:&quot;h:1&quot;,&quot;particle_id&quot;:&quot;img3-m154-p4&quot;,&quot;molecule_id&quot;:&quot;img3-m154&quot;,&quot;atom_order&quot;:2}]}</metadata>
  <rect x="0" y="0" width="60" height="80" fill="#f8f0d8"/>
  <image href="file:///C:/Users/HHHES/AppData/Roaming/com.voynichlab.datasetcreator/images/1/35a70f63-88ab-4986-b441-b78046a10087.jpg" x="-2072" y="-2554" width="2972" height="3766" opacity="0.92"/>
  <rect x="0.5" y="0.5" width="59" height="79" fill="none" stroke="#111827" stroke-width="1" opacity="0.35"/>
  <polyline points="35,33 35,34 34,34 34,35 33,35 32,35 32,36 31,36 30,36 29,36 28,36 27,36 26,36 25,36 25,35 24,35 23,35 22,35 22,34 21,34 20,34 20,33 20,32 20,31 20,30 20,29 20,28 20,27 21,27 21,26 21,25 21,24 22,24 22,23 22,22 23,22 23,21 23,20 24,20 25,20 25,19 26,19 26,18 27,18 28,18 28,17 29,17 30,17 31,17 31,16" fill="none" stroke="#f2e45c" stroke-width="3" stroke-linecap="round" stroke-linejoin="round" opacity="0.95">
    <title>3744 e:1</title>
  </polyline>
  <polyline points="31,17 32,17 33,17 35,18 36,18 37,19 37,20 38,20 39,21 39,22 40,22 40,23 41,23 41,24 42,25 42,26 43,26 43,27 43,28 44,29 44,30 44,31 44,32 44,33 44,34 43,35 43,36 43,37 42,38 42,39 42,40 41,41 41,42 41,43 40,44 40,45 39,46 38,47 37,48 36,49 35,50 33,52 32,53 32,54 31,55 30,56 29,57 28,57 28,58 27,59 26,59 25,60 24,60 23,61 22,62 21,62 20,62 18,63 17,64 16,64" fill="none" stroke="#ff8c00" stroke-width="3" stroke-linecap="round" stroke-linejoin="round" opacity="0.95">
    <title>3802 h:1</title>
  </polyline>
</svg>
