<?xml version="1.0" encoding="UTF-8"?>
<svg xmlns="http://www.w3.org/2000/svg" width="134" height="110" viewBox="0 0 134 110">
  <title>particle img3-m10-p1 e:1 a:1 m:1 c:1 a:1 g:1 e:1</title>
  <metadata>{&quot;entityType&quot;:&quot;particle&quot;,&quot;entityId&quot;:&quot;img3-m10-p1&quot;,&quot;token&quot;:&quot;e:1 a:1 m:1 c:1 a:1 g:1 e:1&quot;,&quot;signature&quot;:&quot;e:1 a:1 m:1 c:1 a:1 g:1 e:1&quot;,&quot;imageName&quot;:&quot;page-003.jpg&quot;,&quot;imageId&quot;:3,&quot;bounds&quot;:{&quot;x&quot;:1837,&quot;y&quot;:545,&quot;w&quot;:134,&quot;h&quot;:110},&quot;atoms&quot;:[{&quot;id&quot;:1216,&quot;token&quot;:&quot;e:1&quot;,&quot;particle_id&quot;:&quot;img3-m10-p1&quot;,&quot;molecule_id&quot;:&quot;img3-m10&quot;,&quot;atom_order&quot;:1},{&quot;id&quot;:1247,&quot;token&quot;:&quot;a:1&quot;,&quot;particle_id&quot;:&quot;img3-m10-p1&quot;,&quot;molecule_id&quot;:&quot;img3-m10&quot;,&quot;atom_order&quot;:2},{&quot;id&quot;:3032,&quot;token&quot;:&quot;m:1&quot;,&quot;particle_id&quot;:&quot;img3-m10-p1&quot;,&quot;molecule_id&quot;:&quot;img3-m10&quot;,&quot;atom_order&quot;:3},{&quot;id&quot;:1249,&quot;token&quot;:&quot;c:1&quot;,&quot;particle_id&quot;:&quot;img3-m10-p1&quot;,&quot;molecule_id&quot;:&quot;img3-m10&quot;,&quot;atom_order&quot;:4},{&quot;id&quot;:1250,&quot;token&quot;:&quot;a:1&quot;,&quot;particle_id&quot;:&quot;img3-m10-p1&quot;,&quot;molecule_id&quot;:&quot;img3-m10&quot;,&quot;atom_order&quot;:5},{&quot;id&quot;:1222,&quot;token&quot;:&quot;g:1&quot;,&quot;particle_id&quot;:&quot;img3-m10-p1&quot;,&quot;molecule_id&quot;:&quot;img3-m10&quot;,&quot;atom_order&quot;:6},{&quot;id&quot;:1217,&quot;token&quot;:&quot;e:1&quot;,&quot;particle_id&quot;:&quot;img3-m10-p1&quot;,&quot;molecule_id&quot;:&quot;img3-m10&quot;,&quot;atom_order&quot;:7}]}</metadata>
  <rect x="0" y="0" width="134" height="110" fill="#f8f0d8"/>
  <image href="file:///C:/Users/HHHES/AppData/Roaming/com.voynichlab.datasetcreator/images/1/35a70f63-88ab-4986-b441-b78046a10087.jpg" x="-1837" y="-545" width="2972" height="3766" opacity="0.92"/>
  <rect x="0.5" y="0.5" width="133" height="109" fill="none" stroke="#111827" stroke-width="1" opacity="0.35"/>
  <polyline points="32,91 31,91 31,92 30,92 29,92 29,93 28,93 27,93 26,93 25,93 24,93 23,93 23,92 22,92 21,92 20,92 20,91 19,91 19,90 18,90 18,89 17,89 17,88 17,87 16,87 16,86 16,85 16,84 16,83 16,82 16,81 16,80 17,80 17,79 18,79 18,78 19,78 19,77 20,77 21,77 21,76 22,76 23,76 23,75 24,75 25,75 26,75 26,76" fill="none" stroke="#f2e45c" stroke-width="3" stroke-linecap="round" stroke-linejoin="round" opacity="0.95">
    <title>1216 e:1</title>
  </polyline>
  <polyline points="44,92 44,91 44,90 44,89 44,88 44,87 44,86 44,85 45,84 45,83 45,82 45,81 45,80 45,79 45,78 45,77 45,76 45,75 46,75 46,74 46,73 46,72 46,71 46,70 46,69 47,68 47,67 47,66 47,65 47,64 47,63 47,62 47,61 47,60 47,59 47,58 47,57 47,56 47,55 48,55 48,54 48,53 48,52 48,51 48,50" fill="none" stroke="#00f0b5" stroke-width="3" stroke-linecap="round" stroke-linejoin="round" opacity="0.95">
    <title>1247 a:1</title>
  </polyline>
  <polyline points="48,50 48,49 48,48 48,47 48,46 48,45 48,44 48,43 48,42 48,41 48,40 48,39 48,38 48,37 49,37 49,36 49,35 49,34 49,33 49,32 49,31 49,30 49,29 49,28 49,27 50,27 50,26 50,25 50,24 50,23 50,22 50,21 50,20 50,19 50,18 50,17 50,16 49,16 49,17 48,17 47,17 47,18 46,18 45,18 44,19 43,19 42,19 42,20 41,20 40,21 39,21 38,22 37,23 36,23 36,24 35,24 34,25 33,26 32,26 32,27 31,27 31,28 30,29 30,30 29,30 29,31 28,31 28,32 28,33 28,34 29,34 30,34 31,34 32,34 33,34 34,34 35,34 36,34 37,34 38,34 39,34 40,34 41,34 42,34 43,34 44,34 44,35 45,35 46,35 47,35 48,35 49,35 50,35 51,35 52,35 53,35 54,35 55,36 56,36 57,36 58,36 59,36 60,36 61,36 62,36 63,36 64,36 65,36 65,37 66,37" fill="none" stroke="#ff00ff" stroke-width="3" stroke-linecap="round" stroke-linejoin="round" opacity="0.95">
    <title>3032 m:1</title>
  </polyline>
  <polyline points="65,37 66,37 67,37 68,37 69,37 70,37 71,37 72,37 73,37 74,37 75,37 76,37 77,38 78,38 79,38 80,38 81,38 82,38 82,37 83,37 84,37 85,37 86,37 87,37 88,37 89,37 89,36 90,36 91,36 91,35 92,35 93,35 94,34 95,34 95,33 96,33 96,32 97,32 97,31 97,30 97,29 97,28 97,27 97,26 97,25 97,24 97,23 96,22 96,21 95,21 95,20 94,19 93,18 92,18 91,18 90,18 89,18 88,18 87,18 86,18 85,17 84,17 83,17 82,17 81,17 81,18 80,18 79,18 78,18 77,18 77,19 76,19 75,19 74,19 74,20 73,20 73,21 72,21 71,21 71,22 70,22 70,23 69,24 69,25 68,25 68,26 67,26 67,27 66,27 66,28 65,28 65,29 64,29 64,30 64,31 64,32 64,33 64,34 64,35 64,36 65,37 66,37" fill="none" stroke="#8aff00" stroke-width="3" stroke-linecap="round" stroke-linejoin="round" opacity="0.95">
    <title>1249 c:1</title>
  </polyline>
  <polyline points="65,37 65,38 65,39 65,40 65,41 65,42 65,43 65,44 65,45 65,46 65,47 65,48 65,49 65,50 65,51 65,52 65,53 65,54 65,55 65,56 66,56 66,57 66,58 66,59 66,60 66,61 66,62 66,63 66,64 66,65 66,66 66,67 66,68 66,69 66,70 66,71 66,72 66,73 66,74 66,75 66,76 66,77 66,78 66,79 66,80 66,81 66,82 66,83 66,84 66,85 66,86 66,87 66,88 66,89 66,90 66,91 66,92" fill="none" stroke="#00f0b5" stroke-width="3" stroke-linecap="round" stroke-linejoin="round" opacity="0.95">
    <title>1250 a:1</title>
  </polyline>
  <polyline points="25,75 26,75 27,75 28,75 29,75 30,75 31,75 32,75 33,75 34,75 35,75 36,75 37,75 38,75 39,75 40,75 41,75 42,75 43,75 44,75 45,75 46,75 47,75 48,75 49,75 50,75 51,75 52,75 53,75 54,75 55,75 56,75 57,75 58,75 59,75 60,75 61,75 62,75 63,75 64,75 65,75 66,75 67,75 68,75 69,75 70,75 71,75 72,75 73,75 74,75 75,75 76,75 77,75 78,75 79,75 80,75 81,75 82,75 83,75 84,75 85,75 86,75 87,75 88,75 89,75 90,75 91,75 92,75 93,75 94,75 95,75 96,75 97,75 98,75 99,75 100,75 101,75 102,75 103,75 104,75 105,75 106,75 107,75 108,75 109,75 110,75 111,75 112,75 113,75 114,75 115,75 116,75" fill="none" stroke="#7c3cff" stroke-width="3" stroke-linecap="round" stroke-linejoin="round" opacity="0.95">
    <title>1222 g:1</title>
  </polyline>
  <polyline points="113,93 112,93 111,93 111,94 110,94 109,94 108,94 107,94 106,94 105,94 104,94 103,93 102,93 101,93 101,92 100,92 100,91 100,90 99,90 99,89 99,88 98,88 98,87 98,86 98,85 98,84 99,83 99,82 100,82 100,81 101,81 101,80 102,80 102,79 103,79 104,79 104,78 105,78 106,77 107,77 108,77 108,76 109,76 110,76 111,76 112,76 113,76 113,75 114,75 115,75 116,75 116,76 117,76 118,76" fill="none" stroke="#f2e45c" stroke-width="3" stroke-linecap="round" stroke-linejoin="round" opacity="0.95">
    <title>1217 e:1</title>
  </polyline>
</svg>
