<?xml version="1.0" encoding="UTF-8"?>
<svg xmlns="http://www.w3.org/2000/svg" width="81" height="51" viewBox="0 0 81 51">
  <title>particle img3-m55-p3 e:1 g:1 e:1</title>
  <metadata>{&quot;entityType&quot;:&quot;particle&quot;,&quot;entityId&quot;:&quot;img3-m55-p3&quot;,&quot;token&quot;:&quot;e:1 g:1 e:1&quot;,&quot;signature&quot;:&quot;e:1 g:1 e:1&quot;,&quot;imageName&quot;:&quot;page-003.jpg&quot;,&quot;imageId&quot;:3,&quot;bounds&quot;:{&quot;x&quot;:1030,&quot;y&quot;:1148,&quot;w&quot;:81,&quot;h&quot;:51},&quot;atoms&quot;:[{&quot;id&quot;:1926,&quot;token&quot;:&quot;e:1&quot;,&quot;particle_id&quot;:&quot;img3-m55-p3&quot;,&quot;molecule_id&quot;:&quot;img3-m55&quot;,&quot;atom_order&quot;:1},{&quot;id&quot;:1968,&quot;token&quot;:&quot;g:1&quot;,&quot;particle_id&quot;:&quot;img3-m55-p3&quot;,&quot;molecule_id&quot;:&quot;img3-m55&quot;,&quot;atom_order&quot;:2},{&quot;id&quot;:1927,&quot;token&quot;:&quot;e:1&quot;,&quot;particle_id&quot;:&quot;img3-m55-p3&quot;,&quot;molecule_id&quot;:&quot;img3-m55&quot;,&quot;atom_order&quot;:3}]}</metadata>
  <rect x="0" y="0" width="81" height="51" fill="#f8f0d8"/>
  <image href="file:///C:/Users/HHHES/AppData/Roaming/com.voynichlab.datasetcreator/images/1/35a70f63-88ab-4986-b441-b78046a10087.jpg" x="-1030" y="-1148" width="2972" height="3766" opacity="0.92"/>
  <rect x="0.5" y="0.5" width="80" height="50" fill="none" stroke="#111827" stroke-width="1" opacity="0.35"/>
  <polyline points="26,34 25,34 25,35 24,35 23,35 22,35 21,35 21,34 20,34 19,34 18,33 17,33 17,32 16,32 16,31 16,30 16,29 16,28 16,27 16,26 17,26 17,25 17,24 18,24 18,23 19,23 19,22 19,21 20,21 20,20 21,20 21,19 22,19 22,18 23,18 24,18 24,17 25,17 26,17 26,16 27,16" fill="none" stroke="#f2e45c" stroke-width="3" stroke-linecap="round" stroke-linejoin="round" opacity="0.95">
    <title>1926 e:1</title>
  </polyline>
  <polyline points="25,17 27,17 28,17 29,17 30,17 31,17 32,17 33,17 34,17 35,17 36,17 37,17 38,17 39,17 40,17 41,17 42,17 43,17 44,17 45,17 46,17 47,17 48,17 49,17 50,17 51,17 52,17 53,17 54,17 55,17 56,17 57,17 58,17 59,17" fill="none" stroke="#7c3cff" stroke-width="3" stroke-linecap="round" stroke-linejoin="round" opacity="0.95">
    <title>1968 g:1</title>
  </polyline>
  <polyline points="59,32 58,34 55,35 54,35 53,35 52,35 51,35 50,35 50,34 49,34 48,34 48,33 47,32 47,31 46,29 46,28 46,27 46,26 46,25 47,25 47,24 47,23 48,23 48,22 49,22 49,21 50,21 51,21 51,20 52,20 53,19 54,19 55,19 55,18 56,18 57,18 58,18 58,17 59,17 60,17 61,17 62,17 63,17 64,17 65,17" fill="none" stroke="#f2e45c" stroke-width="3" stroke-linecap="round" stroke-linejoin="round" opacity="0.95">
    <title>1927 e:1</title>
  </polyline>
</svg>
