<?xml version="1.0" encoding="UTF-8"?>
<svg xmlns="http://www.w3.org/2000/svg" width="90" height="54" viewBox="0 0 90 54">
  <title>particle img3-m167-p1 e:1 g:1 e:1</title>
  <metadata>{&quot;entityType&quot;:&quot;particle&quot;,&quot;entityId&quot;:&quot;img3-m167-p1&quot;,&quot;token&quot;:&quot;e:1 g:1 e:1&quot;,&quot;signature&quot;:&quot;e:1 g:1 e:1&quot;,&quot;imageName&quot;:&quot;page-003.jpg&quot;,&quot;imageId&quot;:3,&quot;bounds&quot;:{&quot;x&quot;:525,&quot;y&quot;:2671,&quot;w&quot;:90,&quot;h&quot;:54},&quot;atoms&quot;:[{&quot;id&quot;:3905,&quot;token&quot;:&quot;e:1&quot;,&quot;particle_id&quot;:&quot;img3-m167-p1&quot;,&quot;molecule_id&quot;:&quot;img3-m167&quot;,&quot;atom_order&quot;:1},{&quot;id&quot;:3924,&quot;token&quot;:&quot;g:1&quot;,&quot;particle_id&quot;:&quot;img3-m167-p1&quot;,&quot;molecule_id&quot;:&quot;img3-m167&quot;,&quot;atom_order&quot;:2},{&quot;id&quot;:3906,&quot;token&quot;:&quot;e:1&quot;,&quot;particle_id&quot;:&quot;img3-m167-p1&quot;,&quot;molecule_id&quot;:&quot;img3-m167&quot;,&quot;atom_order&quot;:3}]}</metadata>
  <rect x="0" y="0" width="90" height="54" fill="#f8f0d8"/>
  <image href="file:///C:/Users/HHHES/AppData/Roaming/com.voynichlab.datasetcreator/images/1/35a70f63-88ab-4986-b441-b78046a10087.jpg" x="-525" y="-2671" width="2972" height="3766" opacity="0.92"/>
  <rect x="0.5" y="0.5" width="89" height="53" fill="none" stroke="#111827" stroke-width="1" opacity="0.35"/>
  <polyline points="31,33 31,34 30,34 30,35 29,35 28,35 28,36 27,36 26,36 25,36 24,36 23,36 22,36 21,36 21,35 20,35 19,35 18,35 18,34 17,34 16,34 16,33 16,32 16,31 16,30 16,29 16,28 16,27 17,27 17,26 17,25 17,24 18,24 18,23 18,22 19,22 19,21 19,20 20,20 21,20 21,19 22,19 22,18 23,18 24,18 24,17 25,17 26,17 27,17 27,16" fill="none" stroke="#f2e45c" stroke-width="3" stroke-linecap="round" stroke-linejoin="round" opacity="0.95">
    <title>3905 e:1</title>
  </polyline>
  <polyline points="27,17 28,17 29,17 30,17 32,17 33,17 35,17 36,17 37,17 38,17 39,18 41,18 42,18 43,18 44,18 45,18 46,18 47,18 48,18 50,18 51,18 52,18 54,18 55,18 56,18 57,18 58,19 59,19 60,19 61,19 62,19 63,19 64,19 65,19 66,19 67,19 68,19 69,19 70,19 69,19" fill="none" stroke="#7c3cff" stroke-width="3" stroke-linecap="round" stroke-linejoin="round" opacity="0.95">
    <title>3924 g:1</title>
  </polyline>
  <polyline points="74,35 74,36 73,36 73,37 72,37 71,37 71,38 70,38 69,38 68,38 67,38 66,38 65,38 64,38 64,37 63,37 62,37 61,37 61,36 60,36 59,36 59,35 59,34 59,33 59,32 59,31 59,30 59,29 60,29 60,28 60,27 60,26 61,26 61,25 61,24 62,24 62,23 62,22 63,22 64,22 64,21 65,21 65,20 66,20 67,20 67,19 68,19 69,19 70,19 70,18" fill="none" stroke="#f2e45c" stroke-width="3" stroke-linecap="round" stroke-linejoin="round" opacity="0.95">
    <title>3906 e:1</title>
  </polyline>
</svg>
