<?xml version="1.0" encoding="UTF-8"?>
<svg xmlns="http://www.w3.org/2000/svg" width="117" height="102" viewBox="0 0 117 102">
  <title>particle img3-m54-p3 e:1 a:1 e:1 b:1 c:1 a:1 g:1 e:1</title>
  <metadata>{&quot;entityType&quot;:&quot;particle&quot;,&quot;entityId&quot;:&quot;img3-m54-p3&quot;,&quot;token&quot;:&quot;e:1 a:1 e:1 b:1 c:1 a:1 g:1 e:1&quot;,&quot;signature&quot;:&quot;e:1 a:1 e:1 b:1 c:1 a:1 g:1 e:1&quot;,&quot;imageName&quot;:&quot;page-003.jpg&quot;,&quot;imageId&quot;:3,&quot;bounds&quot;:{&quot;x&quot;:1513,&quot;y&quot;:1098,&quot;w&quot;:117,&quot;h&quot;:102},&quot;atoms&quot;:[{&quot;id&quot;:1933,&quot;token&quot;:&quot;e:1&quot;,&quot;particle_id&quot;:&quot;img3-m54-p3&quot;,&quot;molecule_id&quot;:&quot;img3-m54&quot;,&quot;atom_order&quot;:1},{&quot;id&quot;:1975,&quot;token&quot;:&quot;a:1&quot;,&quot;particle_id&quot;:&quot;img3-m54-p3&quot;,&quot;molecule_id&quot;:&quot;img3-m54&quot;,&quot;atom_order&quot;:2},{&quot;id&quot;:1977,&quot;token&quot;:&quot;e:1&quot;,&quot;particle_id&quot;:&quot;img3-m54-p3&quot;,&quot;molecule_id&quot;:&quot;img3-m54&quot;,&quot;atom_order&quot;:3},{&quot;id&quot;:1978,&quot;token&quot;:&quot;b:1&quot;,&quot;particle_id&quot;:&quot;img3-m54-p3&quot;,&quot;molecule_id&quot;:&quot;img3-m54&quot;,&quot;atom_order&quot;:4},{&quot;id&quot;:1914,&quot;token&quot;:&quot;c:1&quot;,&quot;particle_id&quot;:&quot;img3-m54-p3&quot;,&quot;molecule_id&quot;:&quot;img3-m54&quot;,&quot;atom_order&quot;:5},{&quot;id&quot;:1976,&quot;token&quot;:&quot;a:1&quot;,&quot;particle_id&quot;:&quot;img3-m54-p3&quot;,&quot;molecule_id&quot;:&quot;img3-m54&quot;,&quot;atom_order&quot;:6},{&quot;id&quot;:1971,&quot;token&quot;:&quot;g:1&quot;,&quot;particle_id&quot;:&quot;img3-m54-p3&quot;,&quot;molecule_id&quot;:&quot;img3-m54&quot;,&quot;atom_order&quot;:7},{&quot;id&quot;:1934,&quot;token&quot;:&quot;e:1&quot;,&quot;particle_id&quot;:&quot;img3-m54-p3&quot;,&quot;molecule_id&quot;:&quot;img3-m54&quot;,&quot;atom_order&quot;:8}]}</metadata>
  <rect x="0" y="0" width="117" height="102" fill="#f8f0d8"/>
  <image href="file:///C:/Users/HHHES/AppData/Roaming/com.voynichlab.datasetcreator/images/1/35a70f63-88ab-4986-b441-b78046a10087.jpg" x="-1513" y="-1098" width="2972" height="3766" opacity="0.92"/>
  <rect x="0.5" y="0.5" width="116" height="101" fill="none" stroke="#111827" stroke-width="1" opacity="0.35"/>
  <polyline points="31,83 31,84 30,84 30,85 29,85 28,85 28,86 27,86 26,86 25,86 24,86 23,86 22,86 21,86 21,85 20,85 19,85 18,85 18,84 17,84 16,84 16,83 16,82 16,81 16,80 16,79 16,78 16,77 17,77 17,76 17,75 17,74 18,74 18,73 18,72 19,72 19,71 19,70 20,70 21,70 21,69 22,69 22,68 23,68 24,68 24,67 25,67 26,67 27,67 27,66" fill="none" stroke="#f2e45c" stroke-width="3" stroke-linecap="round" stroke-linejoin="round" opacity="0.95">
    <title>1933 e:1</title>
  </polyline>
  <polyline points="41,17 41,18 41,19 41,20 41,21 41,22 41,23 41,24 41,25 41,26 41,27 41,28 41,29 41,30 42,30 42,31 42,32 42,33 42,34 42,35 42,36 42,37 42,38 42,39 42,40 42,41 43,42 43,43 43,44 43,45 43,46 43,47 43,48 43,49 43,50 43,51 43,52 43,53 44,53 44,54 44,55 44,56 44,57 44,58 44,59 44,60 44,61 44,62 44,63 44,64 44,65 44,66 44,67 44,68 44,69 44,70 44,71 44,72 44,73 44,74 44,75 44,76 44,77 44,78 44,79 44,80 44,81 44,82 44,83" fill="none" stroke="#00f0b5" stroke-width="3" stroke-linecap="round" stroke-linejoin="round" opacity="0.95">
    <title>1975 a:1</title>
  </polyline>
  <polyline points="41,17 40,17 40,18 39,18 38,18 37,18 36,18 35,18 35,19 34,19 33,19 32,19 32,20 31,20 30,20 30,21 29,21 28,22 27,23 27,24 26,24 26,25 26,26 25,26 25,27 25,28 25,29 25,30 25,31 25,32 25,33 25,34 26,34 26,35 27,35 27,36 28,36 29,37 30,37 31,38 32,38 33,38 34,39 35,39 36,39" fill="none" stroke="#f2e45c" stroke-width="3" stroke-linecap="round" stroke-linejoin="round" opacity="0.95">
    <title>1977 e:1</title>
  </polyline>
  <polyline points="34,39 35,39 36,39 37,39 38,39 38,40 39,40 40,40 41,40 42,40 43,40 44,40 45,40 45,41 46,41 47,41 48,41 49,41 49,40 50,40 51,40 52,40 53,40 54,40 55,40 56,40 57,40 58,40 58,39 59,39 60,39 61,39 62,39 63,38 64,38 65,38 65,37 66,37 67,37 67,36 68,36 69,36 70,35 71,35 72,35 72,34 73,34 74,34" fill="none" stroke="#2f7df6" stroke-width="3" stroke-linecap="round" stroke-linejoin="round" opacity="0.95">
    <title>1978 b:1</title>
  </polyline>
  <polyline points="68,35 69,35 70,35 71,35 72,34 73,34 74,34 75,34 76,34 77,34 78,34 78,33 79,33 80,33 81,33 81,32 82,32 83,32 83,31 84,31 84,30 85,30 86,29 86,28 87,28 87,27 87,26 88,26 88,25 88,24 88,23 88,22 88,21 87,21 87,20 87,19 86,19 86,18 86,17 85,17 84,17 84,16 83,16 82,16 81,16 80,16 79,16 78,16 77,16 76,16 75,16 74,17 73,17 72,17 71,17 70,17 70,18 69,18 69,19 68,19 68,20 67,21 67,22 66,22 66,23 66,24 65,24 65,25 65,26 65,27 65,28 65,29 65,30 65,31 65,32 65,33 66,34 66,35 67,35 68,35" fill="none" stroke="#8aff00" stroke-width="3" stroke-linecap="round" stroke-linejoin="round" opacity="0.95">
    <title>1914 c:1</title>
  </polyline>
  <polyline points="65,27 64,47 65,53 65,58 65,60 65,61 65,62 65,63 65,64 65,65 64,66 64,67 64,68 64,69 64,74 64,75 64,76 64,77 64,78 64,79 64,80 64,81 65,82 65,83" fill="none" stroke="#00f0b5" stroke-width="3" stroke-linecap="round" stroke-linejoin="round" opacity="0.95">
    <title>1976 a:1</title>
  </polyline>
  <polyline points="27,68 28,68 28,67 29,67 30,67 31,67 32,67 33,67 33,68 34,68 35,68 36,68 37,68 38,68 39,68 40,68 41,68 42,68 43,68 44,68 45,68 46,68 47,68 48,68 49,68 50,68 51,68 52,68 53,68 54,68 55,68 56,68 57,68 58,68 59,68 60,68 61,68 62,68 63,68 64,68 65,68 66,68 67,68 68,68 69,68 70,68 71,68 72,68 73,67 74,67 75,67 76,67 77,67 78,67 79,67 80,67 81,67 82,67 83,67 84,67 85,67 86,67 87,67 88,67 89,67 90,67 91,67 92,67 93,67 94,67 95,67 96,67 97,67 98,67 99,67 100,67 101,67" fill="none" stroke="#7c3cff" stroke-width="3" stroke-linecap="round" stroke-linejoin="round" opacity="0.95">
    <title>1971 g:1</title>
  </polyline>
  <polyline points="96,82 95,83 94,84 93,84 93,85 92,85 91,85 90,85 89,85 88,85 87,85 86,85 86,84 85,84 85,83 85,82 85,81 84,81 84,80 84,79 84,78 85,78 85,77 85,76 86,76 86,75 86,74 87,74 87,73 88,73 88,72 89,72 89,71 90,71 90,70 91,70 92,70 92,69 93,69 94,69 95,69 95,68 96,68 97,68 98,68 98,67 99,67 100,67 101,67" fill="none" stroke="#f2e45c" stroke-width="3" stroke-linecap="round" stroke-linejoin="round" opacity="0.95">
    <title>1934 e:1</title>
  </polyline>
</svg>
