<?xml version="1.0" encoding="UTF-8"?>
<svg xmlns="http://www.w3.org/2000/svg" width="69" height="86" viewBox="0 0 69 86">
  <title>particle img3-m134-p4 e:1 i:1 d:1</title>
  <metadata>{&quot;entityType&quot;:&quot;particle&quot;,&quot;entityId&quot;:&quot;img3-m134-p4&quot;,&quot;token&quot;:&quot;e:1 i:1 d:1&quot;,&quot;signature&quot;:&quot;e:1 i:1 d:1&quot;,&quot;imageName&quot;:&quot;page-003.jpg&quot;,&quot;imageId&quot;:3,&quot;bounds&quot;:{&quot;x&quot;:2058,&quot;y&quot;:2165,&quot;w&quot;:69,&quot;h&quot;:86},&quot;atoms&quot;:[{&quot;id&quot;:3517,&quot;token&quot;:&quot;e:1&quot;,&quot;particle_id&quot;:&quot;img3-m134-p4&quot;,&quot;molecule_id&quot;:&quot;img3-m134&quot;,&quot;atom_order&quot;:1},{&quot;id&quot;:3594,&quot;token&quot;:&quot;i:1&quot;,&quot;particle_id&quot;:&quot;img3-m134-p4&quot;,&quot;molecule_id&quot;:&quot;img3-m134&quot;,&quot;atom_order&quot;:2},{&quot;id&quot;:3603,&quot;token&quot;:&quot;d:1&quot;,&quot;particle_id&quot;:&quot;img3-m134-p4&quot;,&quot;molecule_id&quot;:&quot;img3-m134&quot;,&quot;atom_order&quot;:3}]}</metadata>
  <rect x="0" y="0" width="69" height="86" fill="#f8f0d8"/>
  <image href="file:///C:/Users/HHHES/AppData/Roaming/com.voynichlab.datasetcreator/images/1/35a70f63-88ab-4986-b441-b78046a10087.jpg" x="-2058" y="-2165" width="2972" height="3766" opacity="0.92"/>
  <rect x="0.5" y="0.5" width="68" height="85" fill="none" stroke="#111827" stroke-width="1" opacity="0.35"/>
  <polyline points="39,67 39,68 38,68 38,69 37,69 36,69 36,70 35,70 34,70 33,70 32,70 31,70 30,70 29,70 29,69 28,69 27,69 26,69 26,68 25,68 24,68 24,67 24,66 24,65 24,64 24,63 24,62 24,61 25,61 25,60 25,59 25,58 26,58 26,57 26,56 27,56 27,55 27,54 28,54 29,54 29,53 30,53 30,52 31,52 32,52 32,51 33,51 34,51 35,51 35,50" fill="none" stroke="#f2e45c" stroke-width="3" stroke-linecap="round" stroke-linejoin="round" opacity="0.95">
    <title>3517 e:1</title>
  </polyline>
  <polyline points="34,51 35,51 36,51 37,51 38,51 39,51 39,50 40,50 41,50 42,50 43,49 44,49 44,48 45,47 46,47 47,47 47,46 48,46 48,45 49,45 49,44 49,43 50,43 50,42 51,42 51,41 52,41 52,40 52,39 53,39 53,38 53,37 53,36 53,35 53,34 53,33 53,32 53,31 53,30 53,29 53,28 53,27 52,26 52,25 52,24 52,23 51,23" fill="none" stroke="#00ff7f" stroke-width="3" stroke-linecap="round" stroke-linejoin="round" opacity="0.95">
    <title>3594 i:1</title>
  </polyline>
  <polyline points="16,27 17,27 17,26 18,26 18,25 19,25 19,24 20,24 21,23 22,23 22,22 23,22 23,21 24,21 25,20 26,20 26,19 27,19 28,19 29,18 30,18 30,17 31,17 32,17 33,17 33,16 34,16 35,16 36,16 36,17 37,17 38,17 39,17 40,17 41,18 42,18 43,18 43,19 44,19 45,19 45,20 46,20 47,21 48,21 49,21 49,22 50,22 51,23 51,24 52,24 52,25 53,25" fill="none" stroke="#ff2d55" stroke-width="3" stroke-linecap="round" stroke-linejoin="round" opacity="0.95">
    <title>3603 d:1</title>
  </polyline>
</svg>
