<?xml version="1.0" encoding="UTF-8"?>
<svg xmlns="http://www.w3.org/2000/svg" width="57" height="95" viewBox="0 0 57 95">
  <title>particle img3-m15-p4 e:1 h:1</title>
  <metadata>{&quot;entityType&quot;:&quot;particle&quot;,&quot;entityId&quot;:&quot;img3-m15-p4&quot;,&quot;token&quot;:&quot;e:1 h:1&quot;,&quot;signature&quot;:&quot;e:1 h:1&quot;,&quot;imageName&quot;:&quot;page-003.jpg&quot;,&quot;imageId&quot;:3,&quot;bounds&quot;:{&quot;x&quot;:680,&quot;y&quot;:625,&quot;w&quot;:57,&quot;h&quot;:95},&quot;atoms&quot;:[{&quot;id&quot;:1026,&quot;token&quot;:&quot;e:1&quot;,&quot;particle_id&quot;:&quot;img3-m15-p4&quot;,&quot;molecule_id&quot;:&quot;img3-m15&quot;,&quot;atom_order&quot;:1},{&quot;id&quot;:1034,&quot;token&quot;:&quot;h:1&quot;,&quot;particle_id&quot;:&quot;img3-m15-p4&quot;,&quot;molecule_id&quot;:&quot;img3-m15&quot;,&quot;atom_order&quot;:2}]}</metadata>
  <rect x="0" y="0" width="57" height="95" fill="#f8f0d8"/>
  <image href="file:///C:/Users/HHHES/AppData/Roaming/com.voynichlab.datasetcreator/images/1/35a70f63-88ab-4986-b441-b78046a10087.jpg" x="-680" y="-625" width="2972" height="3766" opacity="0.92"/>
  <rect x="0.5" y="0.5" width="56" height="94" fill="none" stroke="#111827" stroke-width="1" opacity="0.35"/>
  <polyline points="31,33 31,34 30,34 30,35 29,35 28,35 28,36 27,36 26,36 25,36 24,36 23,36 22,36 21,36 21,35 20,35 19,35 18,35 18,34 17,34 16,34 16,33 16,32 16,31 16,30 16,29 16,28 16,27 17,27 17,26 17,25 17,24 18,24 18,23 18,22 19,22 19,21 19,20 20,20 21,20 21,19 22,19 22,18 23,18 24,18 24,17 25,17 26,17 27,17 27,16" fill="none" stroke="#f2e45c" stroke-width="3" stroke-linecap="round" stroke-linejoin="round" opacity="0.95">
    <title>1026 e:1</title>
  </polyline>
  <polyline points="27,16 28,16 28,17 29,18 29,19 30,19 30,20 31,20 31,21 32,21 32,22 33,22 33,23 34,24 34,25 35,25 35,26 35,27 35,28 36,28 36,29 36,30 37,30 37,31 37,32 37,33 38,33 38,34 38,35 39,35 39,36 39,37 39,38 39,39 40,39 40,40 40,41 40,42 40,43 41,43 41,44 41,45 41,46 41,47 41,48 41,49 41,50 41,51 41,52 41,53 41,54 41,55 41,56 41,57 41,58 41,59 41,60 40,61 40,62 40,63 39,64 39,65 39,66 38,66 38,67 38,68 37,69 37,70 37,71 36,72 36,73 35,74 35,75 34,75 34,76 33,76 33,77 32,77 32,78 31,78 31,79 30,79 29,79" fill="none" stroke="#ff8c00" stroke-width="3" stroke-linecap="round" stroke-linejoin="round" opacity="0.95">
    <title>1034 h:1</title>
  </polyline>
</svg>
