<?xml version="1.0" encoding="UTF-8"?>
<svg xmlns="http://www.w3.org/2000/svg" width="110" height="108" viewBox="0 0 110 108">
  <title>particle img3-m17-p2 a:1 m:1 c:1 a:1</title>
  <metadata>{&quot;entityType&quot;:&quot;particle&quot;,&quot;entityId&quot;:&quot;img3-m17-p2&quot;,&quot;token&quot;:&quot;a:1 m:1 c:1 a:1&quot;,&quot;signature&quot;:&quot;a:1 m:1 c:1 a:1&quot;,&quot;imageName&quot;:&quot;page-003.jpg&quot;,&quot;imageId&quot;:3,&quot;bounds&quot;:{&quot;x&quot;:1318,&quot;y&quot;:544,&quot;w&quot;:110,&quot;h&quot;:108},&quot;atoms&quot;:[{&quot;id&quot;:3041,&quot;token&quot;:&quot;a:1&quot;,&quot;particle_id&quot;:&quot;img3-m17-p2&quot;,&quot;molecule_id&quot;:&quot;img3-m17&quot;,&quot;atom_order&quot;:1},{&quot;id&quot;:3031,&quot;token&quot;:&quot;m:1&quot;,&quot;particle_id&quot;:&quot;img3-m17-p2&quot;,&quot;molecule_id&quot;:&quot;img3-m17&quot;,&quot;atom_order&quot;:2},{&quot;id&quot;:1189,&quot;token&quot;:&quot;c:1&quot;,&quot;particle_id&quot;:&quot;img3-m17-p2&quot;,&quot;molecule_id&quot;:&quot;img3-m17&quot;,&quot;atom_order&quot;:3},{&quot;id&quot;:1190,&quot;token&quot;:&quot;a:1&quot;,&quot;particle_id&quot;:&quot;img3-m17-p2&quot;,&quot;molecule_id&quot;:&quot;img3-m17&quot;,&quot;atom_order&quot;:4}]}</metadata>
  <rect x="0" y="0" width="110" height="108" fill="#f8f0d8"/>
  <image href="file:///C:/Users/HHHES/AppData/Roaming/com.voynichlab.datasetcreator/images/1/35a70f63-88ab-4986-b441-b78046a10087.jpg" x="-1318" y="-544" width="2972" height="3766" opacity="0.92"/>
  <rect x="0.5" y="0.5" width="109" height="107" fill="none" stroke="#111827" stroke-width="1" opacity="0.35"/>
  <polyline points="37,50 37,51 37,52 37,53 37,54 37,55 37,56 36,56 36,57 36,58 36,59 36,60 36,61 36,62 36,63 36,64 36,65 36,66 36,67 36,68 36,69 36,70 36,71 36,72 36,73 36,74 36,75 36,76 36,77 36,78 36,79 36,80 36,81 36,82 36,83 36,84 36,85 36,86 36,87 36,88 36,89 36,90 36,91 36,92" fill="none" stroke="#00f0b5" stroke-width="3" stroke-linecap="round" stroke-linejoin="round" opacity="0.95">
    <title>3041 a:1</title>
  </polyline>
  <polyline points="37,51 37,50 37,49 37,48 37,47 37,46 37,45 37,44 37,43 38,43 38,42 38,41 38,40 38,39 38,38 38,37 38,36 38,35 38,34 38,33 38,32 38,31 39,31 39,30 39,29 39,28 39,27 39,26 39,25 39,24 39,23 39,22 39,21 40,21 40,20 39,20 38,20 38,21 37,21 37,22 36,22 35,22 34,23 33,23 32,23 32,24 31,24 30,24 30,25 29,25 28,25 28,26 27,26 26,26 26,27 25,27 25,28 24,28 23,29 22,29 22,30 21,30 21,31 20,31 20,32 20,33 19,33 19,34 18,34 18,35 18,36 17,36 17,37 16,37 17,37 18,37 19,37 20,37 21,37 22,37 23,37 24,37 25,37 26,37 27,37 28,37 29,37 30,37 31,37 32,37 33,37 34,37 35,37 36,37 37,37 38,37 39,37 40,37 41,37 42,37 43,37 44,37 45,37 46,37 47,37 48,37 49,37 49,36 50,36 51,36 52,36 53,36 54,36 55,36 56,36 57,36 58,36 59,36 60,36" fill="none" stroke="#ff00ff" stroke-width="3" stroke-linecap="round" stroke-linejoin="round" opacity="0.95">
    <title>3031 m:1</title>
  </polyline>
  <polyline points="62,40 63,40 64,40 65,41 66,41 67,41 68,41 69,41 70,41 71,41 72,41 73,41 74,41 75,41 76,41 77,41 78,41 79,41 80,41 81,41 82,41 83,41 83,40 84,40 85,40 86,39 87,39 88,38 89,38 89,37 90,37 90,36 91,36 92,36 92,35 92,34 93,34 93,33 93,32 94,32 94,31 94,30 94,29 94,28 94,27 94,26 94,25 94,24 94,23 93,23 93,22 93,21 92,21 92,20 92,19 91,19 90,18 89,18 88,17 87,17 86,17 85,17 84,17 83,17 83,16 82,16 81,16 80,16 79,16 78,16 77,16 76,16 75,16 74,16 73,16 72,16 71,16 70,16 69,16 68,16 68,17 67,17 66,17 65,18 64,18 64,19 63,19 62,20 62,21 61,21 61,22 60,22 60,23 60,24 59,24 59,25 58,25 58,26 58,27 58,28 58,29 58,30 58,31 58,32 58,33 58,34 58,35 59,35 59,36 60,36 60,37 61,37 61,38 62,38 62,39 63,39 64,39 64,40 65,40" fill="none" stroke="#8aff00" stroke-width="3" stroke-linecap="round" stroke-linejoin="round" opacity="0.95">
    <title>1189 c:1</title>
  </polyline>
  <polyline points="59,36 59,37 59,38 59,39 59,40 59,41 59,42 59,43 59,44 59,45 59,46 59,47 59,48 59,49 59,50 59,51 59,52 59,53 59,54 59,55 59,56 59,57 58,57 58,58 58,59 58,60 58,61 58,62 58,63 58,64 58,65 58,66 58,67 58,68 58,69 58,70 58,71 58,72 58,73 58,74 58,75 58,76 58,77 58,78 58,79 58,80 58,81 58,82 58,83 58,84 58,85 58,86 58,87 58,88" fill="none" stroke="#00f0b5" stroke-width="3" stroke-linecap="round" stroke-linejoin="round" opacity="0.95">
    <title>1190 a:1</title>
  </polyline>
</svg>
