<?xml version="1.0" encoding="UTF-8"?>
<svg xmlns="http://www.w3.org/2000/svg" width="54" height="89" viewBox="0 0 54 89">
  <title>particle img3-m15-p3 f:1 i:1 d:1</title>
  <metadata>{&quot;entityType&quot;:&quot;particle&quot;,&quot;entityId&quot;:&quot;img3-m15-p3&quot;,&quot;token&quot;:&quot;f:1 i:1 d:1&quot;,&quot;signature&quot;:&quot;f:1 i:1 d:1&quot;,&quot;imageName&quot;:&quot;page-003.jpg&quot;,&quot;imageId&quot;:3,&quot;bounds&quot;:{&quot;x&quot;:644,&quot;y&quot;:592,&quot;w&quot;:54,&quot;h&quot;:89},&quot;atoms&quot;:[{&quot;id&quot;:1031,&quot;token&quot;:&quot;f:1&quot;,&quot;particle_id&quot;:&quot;img3-m15-p3&quot;,&quot;molecule_id&quot;:&quot;img3-m15&quot;,&quot;atom_order&quot;:1},{&quot;id&quot;:1032,&quot;token&quot;:&quot;i:1&quot;,&quot;particle_id&quot;:&quot;img3-m15-p3&quot;,&quot;molecule_id&quot;:&quot;img3-m15&quot;,&quot;atom_order&quot;:2},{&quot;id&quot;:1033,&quot;token&quot;:&quot;d:1&quot;,&quot;particle_id&quot;:&quot;img3-m15-p3&quot;,&quot;molecule_id&quot;:&quot;img3-m15&quot;,&quot;atom_order&quot;:3}]}</metadata>
  <rect x="0" y="0" width="54" height="89" fill="#f8f0d8"/>
  <image href="file:///C:/Users/HHHES/AppData/Roaming/com.voynichlab.datasetcreator/images/1/35a70f63-88ab-4986-b441-b78046a10087.jpg" x="-644" y="-592" width="2972" height="3766" opacity="0.92"/>
  <rect x="0.5" y="0.5" width="53" height="88" fill="none" stroke="#111827" stroke-width="1" opacity="0.35"/>
  <polyline points="19,52 19,53 19,54 20,54 20,55 20,56 21,56 21,57 22,58 22,59 23,59 23,60 24,61 24,62 25,62 25,63 26,63 26,64 27,64 27,65 27,66 28,66 28,67 28,68 29,68 29,69 30,69 30,70 31,71 31,72 32,72 32,73" fill="none" stroke="#00a2ff" stroke-width="3" stroke-linecap="round" stroke-linejoin="round" opacity="0.95">
    <title>1031 f:1</title>
  </polyline>
  <polyline points="22,57 23,57 23,56 24,56 25,55 26,55 26,54 27,54 28,53 29,53 29,52 30,52 30,51 31,51 31,50 32,50 32,49 33,49 33,48 34,48 34,47 34,46 35,46 35,45 35,44 36,44 36,43 36,42 36,41 37,41 37,40 37,39 37,38 37,37 37,36 38,36 38,35 38,34 38,33 38,32 38,31 38,30 38,29 38,28 38,27 38,26" fill="none" stroke="#00ff7f" stroke-width="3" stroke-linecap="round" stroke-linejoin="round" opacity="0.95">
    <title>1032 i:1</title>
  </polyline>
  <polyline points="16,25 17,25 17,24 18,23 18,22 19,22 20,22 20,21 21,21 21,20 22,20 22,19 23,19 24,19 24,18 25,18 26,18 26,17 27,17 28,17 29,17 29,16 30,16 31,16 32,16 33,16 34,16 34,17 35,17 35,18 36,18 36,19 36,20 37,20 37,21 37,22 38,22 38,23 38,24 38,25 38,26" fill="none" stroke="#ff2d55" stroke-width="3" stroke-linecap="round" stroke-linejoin="round" opacity="0.95">
    <title>1033 d:1</title>
  </polyline>
</svg>
