<?xml version="1.0" encoding="UTF-8"?>
<svg xmlns="http://www.w3.org/2000/svg" width="59" height="53" viewBox="0 0 59 53">
  <title>particle img3-m82-p4 e:1 f:1</title>
  <metadata>{&quot;entityType&quot;:&quot;particle&quot;,&quot;entityId&quot;:&quot;img3-m82-p4&quot;,&quot;token&quot;:&quot;e:1 f:1&quot;,&quot;signature&quot;:&quot;e:1 f:1&quot;,&quot;imageName&quot;:&quot;page-003.jpg&quot;,&quot;imageId&quot;:3,&quot;bounds&quot;:{&quot;x&quot;:1570,&quot;y&quot;:1684,&quot;w&quot;:59,&quot;h&quot;:53},&quot;atoms&quot;:[{&quot;id&quot;:2410,&quot;token&quot;:&quot;e:1&quot;,&quot;particle_id&quot;:&quot;img3-m82-p4&quot;,&quot;molecule_id&quot;:&quot;img3-m82&quot;,&quot;atom_order&quot;:1},{&quot;id&quot;:2411,&quot;token&quot;:&quot;f:1&quot;,&quot;particle_id&quot;:&quot;img3-m82-p4&quot;,&quot;molecule_id&quot;:&quot;img3-m82&quot;,&quot;atom_order&quot;:2}]}</metadata>
  <rect x="0" y="0" width="59" height="53" fill="#f8f0d8"/>
  <image href="file:///C:/Users/HHHES/AppData/Roaming/com.voynichlab.datasetcreator/images/1/35a70f63-88ab-4986-b441-b78046a10087.jpg" x="-1570" y="-1684" width="2972" height="3766" opacity="0.92"/>
  <rect x="0.5" y="0.5" width="58" height="52" fill="none" stroke="#111827" stroke-width="1" opacity="0.35"/>
  <polyline points="32,34 32,35 31,35 31,36 30,36 29,36 28,36 28,37 27,37 26,37 25,37 24,37 23,37 22,37 21,37 20,36 19,36 18,36 18,35 17,35 17,34 16,33 16,32 16,31 16,30 16,29 16,28 16,27 16,26 16,25 17,24 18,23 19,22 20,22 20,21 21,21 21,20 22,20 22,19 23,19 24,18 25,17 26,17 26,16 27,16 28,16 29,16 30,16 31,16" fill="none" stroke="#f2e45c" stroke-width="3" stroke-linecap="round" stroke-linejoin="round" opacity="0.95">
    <title>2410 e:1</title>
  </polyline>
  <polyline points="30,16 30,17 30,18 31,18 31,19 31,20 32,20 32,21 33,22 33,23 34,23 34,24 35,25 35,26 36,26 36,27 37,27 37,28 38,28 38,29 38,30 39,30 39,31 39,32 40,32 40,33 41,33 41,34 42,35 42,36 43,36 43,37" fill="none" stroke="#00a2ff" stroke-width="3" stroke-linecap="round" stroke-linejoin="round" opacity="0.95">
    <title>2411 f:1</title>
  </polyline>
</svg>
