<?xml version="1.0" encoding="UTF-8"?>
<svg xmlns="http://www.w3.org/2000/svg" width="112" height="83" viewBox="0 0 112 83">
  <title>particle img3-m26-p4 k:1 f:1 i:1 d:1</title>
  <metadata>{&quot;entityType&quot;:&quot;particle&quot;,&quot;entityId&quot;:&quot;img3-m26-p4&quot;,&quot;token&quot;:&quot;k:1 f:1 i:1 d:1&quot;,&quot;signature&quot;:&quot;k:1 f:1 i:1 d:1&quot;,&quot;imageName&quot;:&quot;page-003.jpg&quot;,&quot;imageId&quot;:3,&quot;bounds&quot;:{&quot;x&quot;:1225,&quot;y&quot;:670,&quot;w&quot;:112,&quot;h&quot;:83},&quot;atoms&quot;:[{&quot;id&quot;:1376,&quot;token&quot;:&quot;k:1&quot;,&quot;particle_id&quot;:&quot;img3-m26-p4&quot;,&quot;molecule_id&quot;:&quot;img3-m26&quot;,&quot;atom_order&quot;:1},{&quot;id&quot;:1377,&quot;token&quot;:&quot;f:1&quot;,&quot;particle_id&quot;:&quot;img3-m26-p4&quot;,&quot;molecule_id&quot;:&quot;img3-m26&quot;,&quot;atom_order&quot;:2},{&quot;id&quot;:1378,&quot;token&quot;:&quot;i:1&quot;,&quot;particle_id&quot;:&quot;img3-m26-p4&quot;,&quot;molecule_id&quot;:&quot;img3-m26&quot;,&quot;atom_order&quot;:3},{&quot;id&quot;:1379,&quot;token&quot;:&quot;d:1&quot;,&quot;particle_id&quot;:&quot;img3-m26-p4&quot;,&quot;molecule_id&quot;:&quot;img3-m26&quot;,&quot;atom_order&quot;:4}]}</metadata>
  <rect x="0" y="0" width="112" height="83" fill="#f8f0d8"/>
  <image href="file:///C:/Users/HHHES/AppData/Roaming/com.voynichlab.datasetcreator/images/1/35a70f63-88ab-4986-b441-b78046a10087.jpg" x="-1225" y="-670" width="2972" height="3766" opacity="0.92"/>
  <rect x="0.5" y="0.5" width="111" height="82" fill="none" stroke="#111827" stroke-width="1" opacity="0.35"/>
  <polyline points="19,43 19,44 20,44 20,45 20,46 21,46 21,47 21,48 22,48 22,49 22,50 23,50 23,51 23,52 24,52 24,53 24,54 24,55 25,55 25,56 25,57 25,58 26,58 26,59 26,60 27,60 27,61 27,62 28,62 28,61 29,61 30,60 31,59 32,58 33,58 33,57 34,57 34,56 35,56 35,55 36,55 36,54 37,54 37,53 38,53 38,52 39,52 39,51 40,50 40,49 41,49 41,48 42,48 42,47 42,46 42,47 42,48 43,48 43,49 43,50 44,50 44,51 44,52 44,53 45,53 45,54 45,55 45,56 46,56 46,57 46,58 47,58 47,59 47,60 47,61 48,61 48,62 48,63 48,64 49,64 49,65 49,66 49,65 50,65 50,64 51,64 51,63 52,63 52,62 53,62 53,61 54,61 55,61 55,60 56,60 56,59 57,59 57,58 58,58 59,57 59,56 60,56 60,55 61,55 62,54 62,53 63,53 63,52 64,52 65,52 65,51 65,50 66,50" fill="none" stroke="#ffffff" stroke-width="3" stroke-linecap="round" stroke-linejoin="round" opacity="0.95">
    <title>1376 k:1</title>
  </polyline>
  <polyline points="66,50 66,51 66,52 67,53 67,54 67,55 68,55 68,56 68,57 69,58 69,59 69,60 70,60 70,61 70,62 70,63 71,63 71,64 71,65 72,65 72,66 72,67" fill="none" stroke="#00a2ff" stroke-width="3" stroke-linecap="round" stroke-linejoin="round" opacity="0.95">
    <title>1377 f:1</title>
  </polyline>
  <polyline points="72,67 73,67 73,66 74,66 75,66 75,65 76,65 77,65 77,64 78,64 79,64 79,63 80,63 80,62 81,61 82,61 82,60 83,59 83,58 84,58 85,58 85,57 86,56 87,55 88,55 88,54 88,53 89,53 89,52 90,52 90,51 91,50 92,49 92,48 93,48 93,47 93,46 94,46 94,45 94,44 95,43 95,42 95,41 95,40 95,39 95,38 95,37 95,36 95,35 96,34 96,33 96,32 95,32 95,31 95,30 94,30 94,29 94,28 93,28 93,27 93,26 93,25 92,25 92,24 92,23 91,23 91,22 90,22 90,21 89,21 90,21" fill="none" stroke="#00ff7f" stroke-width="3" stroke-linecap="round" stroke-linejoin="round" opacity="0.95">
    <title>1378 i:1</title>
  </polyline>
  <polyline points="16,21 17,21 17,20 18,20 19,20 20,20 21,20 21,19 22,19 23,19 24,19 25,19 26,18 27,18 28,18 29,18 30,18 31,18 32,18 33,18 34,18 35,18 36,18 37,18 38,17 39,17 40,17 41,17 42,17 43,17 44,17 45,17 45,16 46,16 47,16 48,16 49,16 50,16 51,16 52,16 53,16 54,16 55,16 56,16 57,16 58,16 59,16 60,16 61,16 62,16 63,16 64,16 65,16 66,16 67,16 68,16 69,16 70,16 71,16 71,17 72,17 73,17 74,17 75,17 76,17 77,17 78,17 79,17 79,18 80,18 81,18 82,18 83,18 84,18 84,19 85,19 86,19 87,19 87,20 88,20 89,20 89,21 90,21" fill="none" stroke="#ff2d55" stroke-width="3" stroke-linecap="round" stroke-linejoin="round" opacity="0.95">
    <title>1379 d:1</title>
  </polyline>
</svg>
