<?xml version="1.0" encoding="UTF-8"?>
<svg xmlns="http://www.w3.org/2000/svg" width="51" height="58" viewBox="0 0 51 58">
  <title>particle img3-m182-p2 n:1</title>
  <metadata>{&quot;entityType&quot;:&quot;particle&quot;,&quot;entityId&quot;:&quot;img3-m182-p2&quot;,&quot;token&quot;:&quot;n:1&quot;,&quot;signature&quot;:&quot;n:1&quot;,&quot;imageName&quot;:&quot;page-003.jpg&quot;,&quot;imageId&quot;:3,&quot;bounds&quot;:{&quot;x&quot;:1025,&quot;y&quot;:2838,&quot;w&quot;:51,&quot;h&quot;:58},&quot;atoms&quot;:[{&quot;id&quot;:4209,&quot;token&quot;:&quot;n:1&quot;,&quot;particle_id&quot;:&quot;img3-m182-p2&quot;,&quot;molecule_id&quot;:&quot;img3-m182&quot;,&quot;atom_order&quot;:1}]}</metadata>
  <rect x="0" y="0" width="51" height="58" fill="#f8f0d8"/>
  <image href="file:///C:/Users/HHHES/AppData/Roaming/com.voynichlab.datasetcreator/images/1/35a70f63-88ab-4986-b441-b78046a10087.jpg" x="-1025" y="-2838" width="2972" height="3766" opacity="0.92"/>
  <rect x="0.5" y="0.5" width="50" height="57" fill="none" stroke="#111827" stroke-width="1" opacity="0.35"/>
  <polyline points="27,27 26,27 25,28 24,28 23,28 22,28 21,28 20,28 19,28 19,27 18,26 17,25 17,24 16,24 16,23 16,22 17,21 18,20 19,19 20,18 21,18 22,18 22,17 23,17 24,17 25,17 25,16 27,16 28,16 30,16 31,16 32,16 32,17 33,17 33,18 34,18 34,19 34,20 35,20 35,21 35,22 35,23 35,24 35,25 35,26 35,27 34,28 34,29 33,30 33,31 33,32 32,32 32,33 31,34 31,35 30,35 30,36 29,36 29,37 28,38 27,39 27,40 26,40 25,41 24,41 24,42 23,42" fill="none" stroke="#f92f59" stroke-width="3" stroke-linecap="round" stroke-linejoin="round" opacity="0.95">
    <title>4209 n:1</title>
  </polyline>
</svg>
