<?xml version="1.0" encoding="UTF-8"?>
<svg xmlns="http://www.w3.org/2000/svg" width="55" height="72" viewBox="0 0 55 72">
  <title>particle img3-m154-p1 e:1 c:1 h:2</title>
  <metadata>{&quot;entityType&quot;:&quot;particle&quot;,&quot;entityId&quot;:&quot;img3-m154-p1&quot;,&quot;token&quot;:&quot;e:1 c:1 h:2&quot;,&quot;signature&quot;:&quot;e:1 c:1 h:2&quot;,&quot;imageName&quot;:&quot;page-003.jpg&quot;,&quot;imageId&quot;:3,&quot;bounds&quot;:{&quot;x&quot;:2214,&quot;y&quot;:2538,&quot;w&quot;:55,&quot;h&quot;:72},&quot;atoms&quot;:[{&quot;id&quot;:3748,&quot;token&quot;:&quot;e:1&quot;,&quot;particle_id&quot;:&quot;img3-m154-p1&quot;,&quot;molecule_id&quot;:&quot;img3-m154&quot;,&quot;atom_order&quot;:1},{&quot;id&quot;:3776,&quot;token&quot;:&quot;c:1&quot;,&quot;particle_id&quot;:&quot;img3-m154-p1&quot;,&quot;molecule_id&quot;:&quot;img3-m154&quot;,&quot;atom_order&quot;:2},{&quot;id&quot;:3795,&quot;token&quot;:&quot;h:2&quot;,&quot;particle_id&quot;:&quot;img3-m154-p1&quot;,&quot;molecule_id&quot;:&quot;img3-m154&quot;,&quot;atom_order&quot;:3}]}</metadata>
  <rect x="0" y="0" width="55" height="72" fill="#f8f0d8"/>
  <image href="file:///C:/Users/HHHES/AppData/Roaming/com.voynichlab.datasetcreator/images/1/35a70f63-88ab-4986-b441-b78046a10087.jpg" x="-2214" y="-2538" width="2972" height="3766" opacity="0.92"/>
  <rect x="0.5" y="0.5" width="54" height="71" fill="none" stroke="#111827" stroke-width="1" opacity="0.35"/>
  <polyline points="31,53 31,54 30,54 30,55 29,55 28,55 28,56 27,56 26,56 25,56 24,56 23,56 22,56 21,56 21,55 20,55 19,55 18,55 18,54 17,54 16,54 16,53 16,52 16,51 16,50 16,49 16,48 16,47 17,47 17,46 17,45 17,44 18,44 18,43 18,42 19,42 19,41 19,40 20,40 21,40 21,39 22,39 22,38 23,38 24,38 24,37 25,37 26,37 27,37 27,36" fill="none" stroke="#f2e45c" stroke-width="3" stroke-linecap="round" stroke-linejoin="round" opacity="0.95">
    <title>3748 e:1</title>
  </polyline>
  <polyline points="34,31 35,31 36,30 37,29 38,28 38,27 38,26 39,26 39,25 39,24 39,23 39,22 39,21 39,20 39,19 38,19 38,18 37,18 37,17 36,17 35,17 35,16 34,16 33,16 32,16 31,16 30,16 29,16 29,17 28,17 27,17 26,18 25,18 25,19 25,20 24,20 24,21 23,22 23,23 23,24 23,25 23,26 23,27 23,28 24,28 24,29 25,29 25,30 26,30 27,31 28,31 29,31 29,32 30,32 31,32 32,32 33,32 34,32 34,31 35,31 36,31 36,30" fill="none" stroke="#8aff00" stroke-width="3" stroke-linecap="round" stroke-linejoin="round" opacity="0.95">
    <title>3776 c:1</title>
  </polyline>
  <polyline points="30,55 30,54 31,54 32,54 32,53 33,53 33,52 34,51 34,50 34,49 34,48 34,47 34,46 34,45 33,44 33,43 32,43 32,42 32,41 31,41 31,40 30,40 30,39 29,39 29,38 28,38 28,37 27,36 27,35 26,35 26,34 25,34 25,33 25,32 24,32 24,31 24,30 24,29 24,28 24,27 24,26 24,25 25,25 25,24" fill="none" stroke="#ff8c00" stroke-width="3" stroke-linecap="round" stroke-linejoin="round" opacity="0.95">
    <title>3795 h:2</title>
  </polyline>
</svg>
