<?xml version="1.0" encoding="UTF-8"?>
<svg xmlns="http://www.w3.org/2000/svg" width="69" height="73" viewBox="0 0 69 73">
  <title>particle img3-m31-p2 f:1 i:1 d:1</title>
  <metadata>{&quot;entityType&quot;:&quot;particle&quot;,&quot;entityId&quot;:&quot;img3-m31-p2&quot;,&quot;token&quot;:&quot;f:1 i:1 d:1&quot;,&quot;signature&quot;:&quot;f:1 i:1 d:1&quot;,&quot;imageName&quot;:&quot;page-003.jpg&quot;,&quot;imageId&quot;:3,&quot;bounds&quot;:{&quot;x&quot;:2153,&quot;y&quot;:748,&quot;w&quot;:69,&quot;h&quot;:73},&quot;atoms&quot;:[{&quot;id&quot;:1590,&quot;token&quot;:&quot;f:1&quot;,&quot;particle_id&quot;:&quot;img3-m31-p2&quot;,&quot;molecule_id&quot;:&quot;img3-m31&quot;,&quot;atom_order&quot;:1},{&quot;id&quot;:1591,&quot;token&quot;:&quot;i:1&quot;,&quot;particle_id&quot;:&quot;img3-m31-p2&quot;,&quot;molecule_id&quot;:&quot;img3-m31&quot;,&quot;atom_order&quot;:2},{&quot;id&quot;:1594,&quot;token&quot;:&quot;d:1&quot;,&quot;particle_id&quot;:&quot;img3-m31-p2&quot;,&quot;molecule_id&quot;:&quot;img3-m31&quot;,&quot;atom_order&quot;:3}]}</metadata>
  <rect x="0" y="0" width="69" height="73" fill="#f8f0d8"/>
  <image href="file:///C:/Users/HHHES/AppData/Roaming/com.voynichlab.datasetcreator/images/1/35a70f63-88ab-4986-b441-b78046a10087.jpg" x="-2153" y="-748" width="2972" height="3766" opacity="0.92"/>
  <rect x="0.5" y="0.5" width="68" height="72" fill="none" stroke="#111827" stroke-width="1" opacity="0.35"/>
  <polyline points="28,43 28,44 29,44 29,45 29,46 30,46 30,47 31,47 31,48 31,49 32,49 32,50 33,50 33,51 33,52 34,52 34,53 35,53 35,54 35,55 36,55 36,56 36,57 37,57" fill="none" stroke="#00a2ff" stroke-width="3" stroke-linecap="round" stroke-linejoin="round" opacity="0.95">
    <title>1590 f:1</title>
  </polyline>
  <polyline points="28,44 29,44 30,44 31,44 32,44 32,43 33,43 34,43 35,43 35,42 36,42 37,42 38,41 39,41 40,41 40,40 41,40 42,39 43,39 43,38 44,38 45,38 45,37 46,37 46,36 47,36 47,35 48,35 48,34 49,34 49,33 50,33 50,32 51,31 51,30 51,29 52,29 52,28 52,27 52,26 52,25 53,25 53,24 53,23 52,22 52,21 51,21 51,20 51,19 50,19" fill="none" stroke="#00ff7f" stroke-width="3" stroke-linecap="round" stroke-linejoin="round" opacity="0.95">
    <title>1591 i:1</title>
  </polyline>
  <polyline points="50,19 49,19 49,18 48,18 47,18 47,17 46,17 45,17 44,17 44,16 43,16 42,16 41,16 40,16 39,17 38,17 37,17 36,18 35,18 35,19 34,19 33,19 33,20 32,20 32,21 31,21 31,22 30,22 30,23 29,23 29,24 28,24 28,25 27,25 26,25 26,26 25,26 25,27 24,27 24,28 23,28 23,29 22,29 22,30 21,30 21,31 20,31 20,32 19,32 19,33 18,33 18,34 17,34 17,35 16,36" fill="none" stroke="#ff2d55" stroke-width="3" stroke-linecap="round" stroke-linejoin="round" opacity="0.95">
    <title>1594 d:1</title>
  </polyline>
</svg>
