<?xml version="1.0" encoding="UTF-8"?>
<svg xmlns="http://www.w3.org/2000/svg" width="55" height="75" viewBox="0 0 55 75">
  <title>particle img3-m184-p1 e:1 c:1 h:2</title>
  <metadata>{&quot;entityType&quot;:&quot;particle&quot;,&quot;entityId&quot;:&quot;img3-m184-p1&quot;,&quot;token&quot;:&quot;e:1 c:1 h:2&quot;,&quot;signature&quot;:&quot;e:1 c:1 h:2&quot;,&quot;imageName&quot;:&quot;page-003.jpg&quot;,&quot;imageId&quot;:3,&quot;bounds&quot;:{&quot;x&quot;:520,&quot;y&quot;:2822,&quot;w&quot;:55,&quot;h&quot;:75},&quot;atoms&quot;:[{&quot;id&quot;:4109,&quot;token&quot;:&quot;e:1&quot;,&quot;particle_id&quot;:&quot;img3-m184-p1&quot;,&quot;molecule_id&quot;:&quot;img3-m184&quot;,&quot;atom_order&quot;:1},{&quot;id&quot;:4157,&quot;token&quot;:&quot;c:1&quot;,&quot;particle_id&quot;:&quot;img3-m184-p1&quot;,&quot;molecule_id&quot;:&quot;img3-m184&quot;,&quot;atom_order&quot;:2},{&quot;id&quot;:4182,&quot;token&quot;:&quot;h:2&quot;,&quot;particle_id&quot;:&quot;img3-m184-p1&quot;,&quot;molecule_id&quot;:&quot;img3-m184&quot;,&quot;atom_order&quot;:3}]}</metadata>
  <rect x="0" y="0" width="55" height="75" fill="#f8f0d8"/>
  <image href="file:///C:/Users/HHHES/AppData/Roaming/com.voynichlab.datasetcreator/images/1/35a70f63-88ab-4986-b441-b78046a10087.jpg" x="-520" y="-2822" width="2972" height="3766" opacity="0.92"/>
  <rect x="0.5" y="0.5" width="54" height="74" fill="none" stroke="#111827" stroke-width="1" opacity="0.35"/>
  <polyline points="31,56 31,57 30,57 30,58 29,58 28,58 28,59 27,59 26,59 25,59 24,59 23,59 22,59 21,59 21,58 20,58 19,58 18,58 18,57 17,57 16,57 16,56 16,55 16,54 16,53 16,52 16,51 16,50 17,50 17,49 17,48 17,47 18,47 18,46 18,45 19,45 19,44 19,43 20,43 21,43 21,42 22,42 22,41 23,41 24,41 24,40 25,40 26,40 27,40 27,39" fill="none" stroke="#f2e45c" stroke-width="3" stroke-linecap="round" stroke-linejoin="round" opacity="0.95">
    <title>4109 e:1</title>
  </polyline>
  <polyline points="31,33 32,33 33,33 33,32 34,32 35,31 36,30 36,29 37,29 37,28 38,27 38,26 39,26 39,25 39,24 39,23 39,22 38,22 38,21 38,20 38,19 37,19 37,18 36,17 35,17 34,16 33,16 32,16 31,16 30,16 30,17 29,17 28,18 27,18 27,19 26,19 26,20 25,20 25,21 25,22 25,23 24,24 24,25 24,26 24,27 24,28 24,29 25,29 25,30 25,31 25,32 26,32 27,32 27,33 28,33 28,34 29,34 30,34 31,34 32,34 33,34 33,33 34,32" fill="none" stroke="#8aff00" stroke-width="3" stroke-linecap="round" stroke-linejoin="round" opacity="0.95">
    <title>4157 c:1</title>
  </polyline>
  <polyline points="29,58 29,57 30,57 31,57 31,56 32,56 33,56 33,55 34,55 34,54 35,54 35,53 35,52 35,51 35,50 35,49 34,49 34,48 34,47 34,46 33,46 33,45 33,44 32,44 32,43 31,42 31,41 30,41 30,40 29,40 29,39 28,38 28,37 27,37 27,36 26,36 26,35 25,34 25,33 24,33 24,32 24,31 23,31 23,30 23,29 23,28 23,27 23,26 23,25 23,24 24,23 24,22 25,22 25,21 26,20 26,19 27,19 27,18 27,17 28,17" fill="none" stroke="#ff8c00" stroke-width="3" stroke-linecap="round" stroke-linejoin="round" opacity="0.95">
    <title>4182 h:2</title>
  </polyline>
</svg>
