<?xml version="1.0" encoding="UTF-8"?>
<svg xmlns="http://www.w3.org/2000/svg" width="56" height="54" viewBox="0 0 56 54">
  <title>particle img3-m163-p2 e:1 f:1</title>
  <metadata>{&quot;entityType&quot;:&quot;particle&quot;,&quot;entityId&quot;:&quot;img3-m163-p2&quot;,&quot;token&quot;:&quot;e:1 f:1&quot;,&quot;signature&quot;:&quot;e:1 f:1&quot;,&quot;imageName&quot;:&quot;page-003.jpg&quot;,&quot;imageId&quot;:3,&quot;bounds&quot;:{&quot;x&quot;:1822,&quot;y&quot;:2637,&quot;w&quot;:56,&quot;h&quot;:54},&quot;atoms&quot;:[{&quot;id&quot;:3831,&quot;token&quot;:&quot;e:1&quot;,&quot;particle_id&quot;:&quot;img3-m163-p2&quot;,&quot;molecule_id&quot;:&quot;img3-m163&quot;,&quot;atom_order&quot;:1},{&quot;id&quot;:3865,&quot;token&quot;:&quot;f:1&quot;,&quot;particle_id&quot;:&quot;img3-m163-p2&quot;,&quot;molecule_id&quot;:&quot;img3-m163&quot;,&quot;atom_order&quot;:2}]}</metadata>
  <rect x="0" y="0" width="56" height="54" fill="#f8f0d8"/>
  <image href="file:///C:/Users/HHHES/AppData/Roaming/com.voynichlab.datasetcreator/images/1/35a70f63-88ab-4986-b441-b78046a10087.jpg" x="-1822" y="-2637" width="2972" height="3766" opacity="0.92"/>
  <rect x="0.5" y="0.5" width="55" height="53" fill="none" stroke="#111827" stroke-width="1" opacity="0.35"/>
  <polyline points="31,33 31,34 30,34 30,35 29,35 28,35 28,36 27,36 26,36 25,36 24,36 23,36 22,36 21,36 21,35 20,35 19,35 18,35 18,34 17,34 16,34 16,33 16,32 16,31 16,30 16,29 16,28 16,27 17,27 17,26 17,25 17,24 18,24 18,23 18,22 19,22 19,21 19,20 20,20 21,20 21,19 22,19 22,18 23,18 24,18 24,17 25,17 26,17 27,17 27,16" fill="none" stroke="#f2e45c" stroke-width="3" stroke-linecap="round" stroke-linejoin="round" opacity="0.95">
    <title>3831 e:1</title>
  </polyline>
  <polyline points="27,17 27,18 27,19 28,19 28,20 28,21 29,21 29,22 30,23 30,24 31,24 31,25 32,26 32,27 33,27 33,28 34,28 34,29 35,29 35,30 35,31 36,31 36,32 36,33 37,33 37,34 38,34 38,35 39,36 39,37 40,37 40,38" fill="none" stroke="#00a2ff" stroke-width="3" stroke-linecap="round" stroke-linejoin="round" opacity="0.95">
    <title>3865 f:1</title>
  </polyline>
</svg>
