<?xml version="1.0" encoding="UTF-8"?>
<svg xmlns="http://www.w3.org/2000/svg" width="53" height="67" viewBox="0 0 53 67">
  <title>particle img3-m72-p2 e:1 c:2 h:2</title>
  <metadata>{&quot;entityType&quot;:&quot;particle&quot;,&quot;entityId&quot;:&quot;img3-m72-p2&quot;,&quot;token&quot;:&quot;e:1 c:2 h:2&quot;,&quot;signature&quot;:&quot;e:1 c:2 h:2&quot;,&quot;imageName&quot;:&quot;page-003.jpg&quot;,&quot;imageId&quot;:3,&quot;bounds&quot;:{&quot;x&quot;:694,&quot;y&quot;:1486,&quot;w&quot;:53,&quot;h&quot;:67},&quot;atoms&quot;:[{&quot;id&quot;:2099,&quot;token&quot;:&quot;e:1&quot;,&quot;particle_id&quot;:&quot;img3-m72-p2&quot;,&quot;molecule_id&quot;:&quot;img3-m72&quot;,&quot;atom_order&quot;:1},{&quot;id&quot;:2100,&quot;token&quot;:&quot;c:2&quot;,&quot;particle_id&quot;:&quot;img3-m72-p2&quot;,&quot;molecule_id&quot;:&quot;img3-m72&quot;,&quot;atom_order&quot;:2},{&quot;id&quot;:2101,&quot;token&quot;:&quot;h:2&quot;,&quot;particle_id&quot;:&quot;img3-m72-p2&quot;,&quot;molecule_id&quot;:&quot;img3-m72&quot;,&quot;atom_order&quot;:3}]}</metadata>
  <rect x="0" y="0" width="53" height="67" fill="#f8f0d8"/>
  <image href="file:///C:/Users/HHHES/AppData/Roaming/com.voynichlab.datasetcreator/images/1/35a70f63-88ab-4986-b441-b78046a10087.jpg" x="-694" y="-1486" width="2972" height="3766" opacity="0.92"/>
  <rect x="0.5" y="0.5" width="52" height="66" fill="none" stroke="#111827" stroke-width="1" opacity="0.35"/>
  <polyline points="31,50 31,51 30,51 29,51 28,51 27,51 26,51 25,51 24,51 23,51 22,51 22,50 21,50 20,50 19,50 19,49 18,49 17,49 17,48 16,48 16,47 16,46 16,45 16,44 16,43 16,42 17,41 18,41 18,40 19,40 19,39 20,39 20,38 21,38 21,37 22,37 22,36 23,36 24,36 25,36 25,35 26,35 27,35 28,35 28,34 29,34" fill="none" stroke="#f2e45c" stroke-width="3" stroke-linecap="round" stroke-linejoin="round" opacity="0.95">
    <title>2099 e:1</title>
  </polyline>
  <polyline points="22,21 22,22 21,22 21,23 21,23 20,23 20,24 20,24 20,24 20,25 20,26 20,26 20,27 21,27 21,28 22,28 22,29 23,30 24,30 25,30 26,30 26,31 27,31 27,31 27,31 28,31 29,31 29,31 30,31 31,31 31,30 32,30 33,30 33,29 33,28 34,28 34,27 35,27 35,26 35,26 36,26 36,25 36,24 37,24 37,24 37,24 37,23 37,23 37,22 37,21 36,21 36,20 36,19 35,19 35,18 34,18 34,17 33,17 33,17 32,17 31,17 31,16 30,16 29,16 29,16 28,16 27,16 27,16 27,16 26,17 25,17 25,17 24,17 24,18 23,18 22,18 22,19 21,19 21,20 21,21" fill="none" stroke="#8aff00" stroke-width="3" stroke-linecap="round" stroke-linejoin="round" opacity="0.95">
    <title>2100 c:2</title>
  </polyline>
  <polyline points="31,50 32,50 33,50 33,49 34,49 34,48 35,48 35,47 35,46 36,46 36,45 36,44 36,43 35,42 35,41 34,41 34,40 34,39 33,39 33,38 32,38 32,37 31,37 31,36 30,36 30,35 29,35 29,34 28,34 27,34 27,33 26,33 26,32 25,32 25,31 24,31 24,30 23,30 23,29 22,29 22,28 21,28 21,27 20,27 20,26 19,26 19,25 19,24 19,23 19,22 19,21 20,21 20,20 20,19 21,19 21,18 22,18 23,18 24,17 25,17" fill="none" stroke="#ff8c00" stroke-width="3" stroke-linecap="round" stroke-linejoin="round" opacity="0.95">
    <title>2101 h:2</title>
  </polyline>
</svg>
