<?xml version="1.0" encoding="UTF-8"?>
<svg xmlns="http://www.w3.org/2000/svg" width="86" height="86" viewBox="0 0 86 86">
  <title>particle img3-m132-p3 l:1 f:1 i:1 d:1</title>
  <metadata>{&quot;entityType&quot;:&quot;particle&quot;,&quot;entityId&quot;:&quot;img3-m132-p3&quot;,&quot;token&quot;:&quot;l:1 f:1 i:1 d:1&quot;,&quot;signature&quot;:&quot;l:1 f:1 i:1 d:1&quot;,&quot;imageName&quot;:&quot;page-003.jpg&quot;,&quot;imageId&quot;:3,&quot;bounds&quot;:{&quot;x&quot;:2017,&quot;y&quot;:2065,&quot;w&quot;:86,&quot;h&quot;:86},&quot;atoms&quot;:[{&quot;id&quot;:3484,&quot;token&quot;:&quot;l:1&quot;,&quot;particle_id&quot;:&quot;img3-m132-p3&quot;,&quot;molecule_id&quot;:&quot;img3-m132&quot;,&quot;atom_order&quot;:1},{&quot;id&quot;:3483,&quot;token&quot;:&quot;f:1&quot;,&quot;particle_id&quot;:&quot;img3-m132-p3&quot;,&quot;molecule_id&quot;:&quot;img3-m132&quot;,&quot;atom_order&quot;:2},{&quot;id&quot;:3482,&quot;token&quot;:&quot;i:1&quot;,&quot;particle_id&quot;:&quot;img3-m132-p3&quot;,&quot;molecule_id&quot;:&quot;img3-m132&quot;,&quot;atom_order&quot;:3},{&quot;id&quot;:3478,&quot;token&quot;:&quot;d:1&quot;,&quot;particle_id&quot;:&quot;img3-m132-p3&quot;,&quot;molecule_id&quot;:&quot;img3-m132&quot;,&quot;atom_order&quot;:4}]}</metadata>
  <rect x="0" y="0" width="86" height="86" fill="#f8f0d8"/>
  <image href="file:///C:/Users/HHHES/AppData/Roaming/com.voynichlab.datasetcreator/images/1/35a70f63-88ab-4986-b441-b78046a10087.jpg" x="-2017" y="-2065" width="2972" height="3766" opacity="0.92"/>
  <rect x="0.5" y="0.5" width="85" height="85" fill="none" stroke="#111827" stroke-width="1" opacity="0.35"/>
  <polyline points="16,50 17,50 17,51 17,52 18,53 18,54 19,55 19,56 20,56 20,57 20,58 21,58 21,59 21,60 22,60 22,61 23,61 23,62 24,63 24,64 25,64 25,65 25,66 26,66 27,67 28,67 29,67 30,67 30,66 31,66 32,66 32,65 33,65 33,64 34,64 34,63 35,63 35,62 36,62 36,61 37,61 37,60 38,60 39,59 39,58 40,58 40,57 41,57 41,56 42,56 42,55 43,55 43,54 44,54 44,53 44,52 45,52 45,51 45,50" fill="none" stroke="#ff5f1f" stroke-width="3" stroke-linecap="round" stroke-linejoin="round" opacity="0.95">
    <title>3484 l:1</title>
  </polyline>
  <polyline points="45,49 45,50 45,51 46,51 46,52 46,53 47,53 47,54 48,55 48,56 49,56 49,57 50,58 50,59 51,59 51,60 52,60 52,61 53,61 53,62 53,63 54,63 54,64 54,65 55,65 55,66 56,66 56,67 57,68 57,69 58,69 58,70" fill="none" stroke="#00a2ff" stroke-width="3" stroke-linecap="round" stroke-linejoin="round" opacity="0.95">
    <title>3483 f:1</title>
  </polyline>
  <polyline points="57,69 58,69 59,69 59,68 60,68 60,67 61,67 61,66 62,66 62,65 63,65 64,64 64,63 65,63 65,62 66,62 66,61 67,60 67,59 68,59 68,58 68,57 69,57 69,56 69,55 69,54 69,53 70,53 70,52 70,51 70,50 70,49 70,48 70,47 70,46 70,45 70,44 70,43 70,42 70,41 70,40 70,39 70,38 70,37 70,36 70,35 70,34 70,33 69,33 69,32 69,31" fill="none" stroke="#00ff7f" stroke-width="3" stroke-linecap="round" stroke-linejoin="round" opacity="0.95">
    <title>3482 i:1</title>
  </polyline>
  <polyline points="32,17 33,17 34,17 35,17 35,16 36,16 37,16 38,16 39,17 40,17 41,17 42,17 43,17 43,18 44,18 45,18 46,18 47,18 47,19 48,19 49,19 50,19 51,20 52,20 53,20 53,21 55,21 56,21 56,22 57,22 58,23 59,24 60,25 61,25 62,26 63,26 64,27 65,27 66,28 66,29 67,29 67,30 68,30 68,31" fill="none" stroke="#ff2d55" stroke-width="3" stroke-linecap="round" stroke-linejoin="round" opacity="0.95">
    <title>3478 d:1</title>
  </polyline>
</svg>
