<?xml version="1.0" encoding="UTF-8"?>
<svg xmlns="http://www.w3.org/2000/svg" width="82" height="53" viewBox="0 0 82 53">
  <title>particle img3-m119-p1 e:1 g:1 e:1</title>
  <metadata>{&quot;entityType&quot;:&quot;particle&quot;,&quot;entityId&quot;:&quot;img3-m119-p1&quot;,&quot;token&quot;:&quot;e:1 g:1 e:1&quot;,&quot;signature&quot;:&quot;e:1 g:1 e:1&quot;,&quot;imageName&quot;:&quot;page-003.jpg&quot;,&quot;imageId&quot;:3,&quot;bounds&quot;:{&quot;x&quot;:796,&quot;y&quot;:1986,&quot;w&quot;:82,&quot;h&quot;:53},&quot;atoms&quot;:[{&quot;id&quot;:3310,&quot;token&quot;:&quot;e:1&quot;,&quot;particle_id&quot;:&quot;img3-m119-p1&quot;,&quot;molecule_id&quot;:&quot;img3-m119&quot;,&quot;atom_order&quot;:1},{&quot;id&quot;:3343,&quot;token&quot;:&quot;g:1&quot;,&quot;particle_id&quot;:&quot;img3-m119-p1&quot;,&quot;molecule_id&quot;:&quot;img3-m119&quot;,&quot;atom_order&quot;:2},{&quot;id&quot;:3311,&quot;token&quot;:&quot;e:1&quot;,&quot;particle_id&quot;:&quot;img3-m119-p1&quot;,&quot;molecule_id&quot;:&quot;img3-m119&quot;,&quot;atom_order&quot;:3}]}</metadata>
  <rect x="0" y="0" width="82" height="53" fill="#f8f0d8"/>
  <image href="file:///C:/Users/HHHES/AppData/Roaming/com.voynichlab.datasetcreator/images/1/35a70f63-88ab-4986-b441-b78046a10087.jpg" x="-796" y="-1986" width="2972" height="3766" opacity="0.92"/>
  <rect x="0.5" y="0.5" width="81" height="52" fill="none" stroke="#111827" stroke-width="1" opacity="0.35"/>
  <polyline points="31,34 31,35 30,35 30,36 29,36 28,36 28,37 27,37 26,37 25,37 24,37 23,37 22,37 21,37 21,36 20,36 19,36 18,36 18,35 17,35 16,35 16,34 16,33 16,32 16,31 16,30 16,29 16,28 17,28 17,27 17,26 17,25 18,25 18,24 18,23 19,23 19,22 19,21 20,21 21,21 21,20 22,20 22,19 23,19 24,19 24,18 25,18 26,18 27,18 27,17" fill="none" stroke="#f2e45c" stroke-width="3" stroke-linecap="round" stroke-linejoin="round" opacity="0.95">
    <title>3310 e:1</title>
  </polyline>
  <polyline points="26,18 27,18 28,18 29,18 30,18 31,18 32,17 33,17 34,17 35,17 36,17 37,18 38,18 39,18 40,18 41,18 42,18 43,18 44,18 45,18 46,17 47,17 48,17 49,17 50,17 51,17 52,17 53,17 54,17 55,17 56,17 57,17 58,17 59,17 60,17 61,17 62,17 63,17" fill="none" stroke="#7c3cff" stroke-width="3" stroke-linecap="round" stroke-linejoin="round" opacity="0.95">
    <title>3343 g:1</title>
  </polyline>
  <polyline points="66,33 66,34 65,34 65,35 64,35 63,35 63,36 62,36 61,36 60,36 59,36 58,36 57,36 56,36 56,35 55,35 54,35 53,35 53,34 52,34 51,34 51,33 51,32 51,31 51,30 51,29 51,28 51,27 52,27 52,26 52,25 52,24 53,24 53,23 53,22 54,22 54,21 54,20 55,20 56,20 56,19 57,19 57,18 58,18 59,18 59,17 60,17 61,17 62,17 62,16" fill="none" stroke="#f2e45c" stroke-width="3" stroke-linecap="round" stroke-linejoin="round" opacity="0.95">
    <title>3311 e:1</title>
  </polyline>
</svg>
