<?xml version="1.0" encoding="UTF-8"?>
<svg xmlns="http://www.w3.org/2000/svg" width="105" height="82" viewBox="0 0 105 82">
  <title>particle img3-m12-p2 e:1 k:1 f:1 i:1 d:1</title>
  <metadata>{&quot;entityType&quot;:&quot;particle&quot;,&quot;entityId&quot;:&quot;img3-m12-p2&quot;,&quot;token&quot;:&quot;e:1 k:1 f:1 i:1 d:1&quot;,&quot;signature&quot;:&quot;e:1 k:1 f:1 i:1 d:1&quot;,&quot;imageName&quot;:&quot;page-003.jpg&quot;,&quot;imageId&quot;:3,&quot;bounds&quot;:{&quot;x&quot;:1149,&quot;y&quot;:578,&quot;w&quot;:105,&quot;h&quot;:82},&quot;atoms&quot;:[{&quot;id&quot;:1172,&quot;token&quot;:&quot;e:1&quot;,&quot;particle_id&quot;:&quot;img3-m12-p2&quot;,&quot;molecule_id&quot;:&quot;img3-m12&quot;,&quot;atom_order&quot;:1},{&quot;id&quot;:1174,&quot;token&quot;:&quot;k:1&quot;,&quot;particle_id&quot;:&quot;img3-m12-p2&quot;,&quot;molecule_id&quot;:&quot;img3-m12&quot;,&quot;atom_order&quot;:2},{&quot;id&quot;:1175,&quot;token&quot;:&quot;f:1&quot;,&quot;particle_id&quot;:&quot;img3-m12-p2&quot;,&quot;molecule_id&quot;:&quot;img3-m12&quot;,&quot;atom_order&quot;:3},{&quot;id&quot;:1176,&quot;token&quot;:&quot;i:1&quot;,&quot;particle_id&quot;:&quot;img3-m12-p2&quot;,&quot;molecule_id&quot;:&quot;img3-m12&quot;,&quot;atom_order&quot;:4},{&quot;id&quot;:1177,&quot;token&quot;:&quot;d:1&quot;,&quot;particle_id&quot;:&quot;img3-m12-p2&quot;,&quot;molecule_id&quot;:&quot;img3-m12&quot;,&quot;atom_order&quot;:5}]}</metadata>
  <rect x="0" y="0" width="105" height="82" fill="#f8f0d8"/>
  <image href="file:///C:/Users/HHHES/AppData/Roaming/com.voynichlab.datasetcreator/images/1/35a70f63-88ab-4986-b441-b78046a10087.jpg" x="-1149" y="-578" width="2972" height="3766" opacity="0.92"/>
  <rect x="0.5" y="0.5" width="104" height="81" fill="none" stroke="#111827" stroke-width="1" opacity="0.35"/>
  <polyline points="31,62 31,63 30,63 30,64 29,64 28,64 28,65 27,65 26,65 25,65 24,65 23,65 22,65 21,65 21,64 20,64 19,64 18,64 18,63 17,63 16,63 16,62 16,61 16,60 16,59 16,58 16,57 16,56 17,56 17,55 17,54 17,53 18,53 18,52 18,51 19,51 19,50 19,49 20,49 21,49 21,48 22,48 22,47 23,47 24,47 24,46 25,46 26,46 27,46 27,45" fill="none" stroke="#f2e45c" stroke-width="3" stroke-linecap="round" stroke-linejoin="round" opacity="0.95">
    <title>1172 e:1</title>
  </polyline>
  <polyline points="27,47 27,48 28,48 28,49 28,50 29,50 29,51 29,52 30,52 30,53 30,54 31,54 31,55 31,56 31,57 32,57 32,58 32,59 33,59 33,60 33,61 34,61 34,62 35,63 35,64 36,64 36,65 37,65 37,64 38,64 38,63 38,62 39,62 39,61 40,61 40,60 41,60 42,59 43,59 43,58 44,58 44,57 45,57 45,56 46,56 46,55 47,55 47,54 48,54 48,53 49,53 49,52 50,52 50,51 50,50 50,51 50,52 50,53 50,54 51,54 51,55 51,56 51,57 51,58 52,58 52,59 52,60 53,60 53,61 54,61 54,62 54,63 55,63 55,64 56,64 56,65 57,65 57,64 58,64 58,63 58,62 59,62 59,61 60,61 61,61 61,60 62,60 62,59 63,59 63,58 64,58 65,58 65,57 66,56 67,56 67,55 68,55 69,54 70,53 71,53 72,52" fill="none" stroke="#ffffff" stroke-width="3" stroke-linecap="round" stroke-linejoin="round" opacity="0.95">
    <title>1174 k:1</title>
  </polyline>
  <polyline points="82,66 81,66 81,65 80,65 80,64 80,63 79,63 79,62 78,62 78,61 78,60 77,60 77,59 76,59 76,58 75,58 75,57 75,56 74,56 74,55 73,55 73,54 72,54 72,53 72,52" fill="none" stroke="#00a2ff" stroke-width="3" stroke-linecap="round" stroke-linejoin="round" opacity="0.95">
    <title>1175 f:1</title>
  </polyline>
  <polyline points="72,52 73,52 74,52 74,51 75,51 76,51 76,50 77,50 78,50 78,49 79,49 80,48 81,48 81,47 82,47 83,46 84,45 84,44 85,44 85,43 86,43 86,42 86,41 87,40 87,39 87,38 88,37 88,36 88,35 88,34 88,33 89,33 89,32 89,31 89,30 89,29 89,28 89,27 89,26 88,26 88,25 88,24 88,23 87,23 87,22 87,21" fill="none" stroke="#00ff7f" stroke-width="3" stroke-linecap="round" stroke-linejoin="round" opacity="0.95">
    <title>1176 i:1</title>
  </polyline>
  <polyline points="87,21 86,20 85,20 85,19 84,19 83,18 82,18 81,18 81,17 80,17 79,17 78,17 77,17 76,17 75,17 74,17 73,16 72,16 71,16 70,16 69,16 68,16 67,16 66,16 65,16 64,16 63,17 62,17 61,17 60,17 59,17 58,17 58,18 57,18 56,18 55,18 54,18 53,18 53,19 52,19 51,19 50,19 49,20 48,20 48,21" fill="none" stroke="#ff2d55" stroke-width="3" stroke-linecap="round" stroke-linejoin="round" opacity="0.95">
    <title>1177 d:1</title>
  </polyline>
</svg>
