<?xml version="1.0" encoding="UTF-8"?>
<svg xmlns="http://www.w3.org/2000/svg" width="96" height="52" viewBox="0 0 96 52">
  <title>particle img3-m106-p2 e:1 g:1 e:1</title>
  <metadata>{&quot;entityType&quot;:&quot;particle&quot;,&quot;entityId&quot;:&quot;img3-m106-p2&quot;,&quot;token&quot;:&quot;e:1 g:1 e:1&quot;,&quot;signature&quot;:&quot;e:1 g:1 e:1&quot;,&quot;imageName&quot;:&quot;page-003.jpg&quot;,&quot;imageId&quot;:3,&quot;bounds&quot;:{&quot;x&quot;:1389,&quot;y&quot;:1850,&quot;w&quot;:96,&quot;h&quot;:52},&quot;atoms&quot;:[{&quot;id&quot;:3160,&quot;token&quot;:&quot;e:1&quot;,&quot;particle_id&quot;:&quot;img3-m106-p2&quot;,&quot;molecule_id&quot;:&quot;img3-m106&quot;,&quot;atom_order&quot;:1},{&quot;id&quot;:3204,&quot;token&quot;:&quot;g:1&quot;,&quot;particle_id&quot;:&quot;img3-m106-p2&quot;,&quot;molecule_id&quot;:&quot;img3-m106&quot;,&quot;atom_order&quot;:2},{&quot;id&quot;:3161,&quot;token&quot;:&quot;e:1&quot;,&quot;particle_id&quot;:&quot;img3-m106-p2&quot;,&quot;molecule_id&quot;:&quot;img3-m106&quot;,&quot;atom_order&quot;:3}]}</metadata>
  <rect x="0" y="0" width="96" height="52" fill="#f8f0d8"/>
  <image href="file:///C:/Users/HHHES/AppData/Roaming/com.voynichlab.datasetcreator/images/1/35a70f63-88ab-4986-b441-b78046a10087.jpg" x="-1389" y="-1850" width="2972" height="3766" opacity="0.92"/>
  <rect x="0.5" y="0.5" width="95" height="51" fill="none" stroke="#111827" stroke-width="1" opacity="0.35"/>
  <polyline points="31,33 31,34 30,34 30,35 29,35 28,35 28,36 27,36 26,36 25,36 24,36 23,36 22,36 21,36 21,35 20,35 19,35 18,35 18,34 17,34 16,34 16,33 16,32 16,31 16,30 16,29 16,28 16,27 17,27 17,26 17,25 17,24 18,24 18,23 18,22 19,22 19,21 19,20 20,20 21,20 21,19 22,19 22,18 23,18 24,18 24,17 25,17 26,17 27,17 27,16" fill="none" stroke="#f2e45c" stroke-width="3" stroke-linecap="round" stroke-linejoin="round" opacity="0.95">
    <title>3160 e:1</title>
  </polyline>
  <polyline points="26,16 27,16 28,16 29,16 30,16 31,16 32,16 33,16 34,16 35,16 36,16 37,16 38,16 40,16 41,16 42,16 43,16 44,16 45,16 46,16 47,16 48,16 49,16 50,16 51,16 52,16 53,16 54,16 55,16 57,16 58,16 59,16 60,16 61,16 62,16 63,16 64,16 65,16 67,16 68,16 69,16 70,16 71,16 72,16 73,16 74,16 75,16 76,16 76,17" fill="none" stroke="#7c3cff" stroke-width="3" stroke-linecap="round" stroke-linejoin="round" opacity="0.95">
    <title>3204 g:1</title>
  </polyline>
  <polyline points="80,33 80,34 79,34 79,35 78,35 77,35 77,36 76,36 75,36 74,36 73,36 72,36 71,36 70,36 70,35 69,35 68,35 67,35 67,34 66,34 65,34 65,33 65,32 65,31 65,30 65,29 65,28 65,27 66,27 66,26 66,25 66,24 67,24 67,23 67,22 68,22 68,21 68,20 69,20 70,20 70,19 71,19 71,18 72,18 73,18 73,17 74,17 75,17 76,17 76,16" fill="none" stroke="#f2e45c" stroke-width="3" stroke-linecap="round" stroke-linejoin="round" opacity="0.95">
    <title>3161 e:1</title>
  </polyline>
</svg>
