<?xml version="1.0" encoding="UTF-8"?>
<svg xmlns="http://www.w3.org/2000/svg" width="121" height="120" viewBox="0 0 121 120">
  <title>particle img3-m38-p1 e:1 a:1 m:1 c:1 a:1 g:1 e:1</title>
  <metadata>{&quot;entityType&quot;:&quot;particle&quot;,&quot;entityId&quot;:&quot;img3-m38-p1&quot;,&quot;token&quot;:&quot;e:1 a:1 m:1 c:1 a:1 g:1 e:1&quot;,&quot;signature&quot;:&quot;e:1 a:1 m:1 c:1 a:1 g:1 e:1&quot;,&quot;imageName&quot;:&quot;page-003.jpg&quot;,&quot;imageId&quot;:3,&quot;bounds&quot;:{&quot;x&quot;:969,&quot;y&quot;:810,&quot;w&quot;:121,&quot;h&quot;:120},&quot;atoms&quot;:[{&quot;id&quot;:1648,&quot;token&quot;:&quot;e:1&quot;,&quot;particle_id&quot;:&quot;img3-m38-p1&quot;,&quot;molecule_id&quot;:&quot;img3-m38&quot;,&quot;atom_order&quot;:1},{&quot;id&quot;:1668,&quot;token&quot;:&quot;a:1&quot;,&quot;particle_id&quot;:&quot;img3-m38-p1&quot;,&quot;molecule_id&quot;:&quot;img3-m38&quot;,&quot;atom_order&quot;:2},{&quot;id&quot;:3033,&quot;token&quot;:&quot;m:1&quot;,&quot;particle_id&quot;:&quot;img3-m38-p1&quot;,&quot;molecule_id&quot;:&quot;img3-m38&quot;,&quot;atom_order&quot;:3},{&quot;id&quot;:1670,&quot;token&quot;:&quot;c:1&quot;,&quot;particle_id&quot;:&quot;img3-m38-p1&quot;,&quot;molecule_id&quot;:&quot;img3-m38&quot;,&quot;atom_order&quot;:4},{&quot;id&quot;:1671,&quot;token&quot;:&quot;a:1&quot;,&quot;particle_id&quot;:&quot;img3-m38-p1&quot;,&quot;molecule_id&quot;:&quot;img3-m38&quot;,&quot;atom_order&quot;:5},{&quot;id&quot;:1664,&quot;token&quot;:&quot;g:1&quot;,&quot;particle_id&quot;:&quot;img3-m38-p1&quot;,&quot;molecule_id&quot;:&quot;img3-m38&quot;,&quot;atom_order&quot;:6},{&quot;id&quot;:1649,&quot;token&quot;:&quot;e:1&quot;,&quot;particle_id&quot;:&quot;img3-m38-p1&quot;,&quot;molecule_id&quot;:&quot;img3-m38&quot;,&quot;atom_order&quot;:7}]}</metadata>
  <rect x="0" y="0" width="121" height="120" fill="#f8f0d8"/>
  <image href="file:///C:/Users/HHHES/AppData/Roaming/com.voynichlab.datasetcreator/images/1/35a70f63-88ab-4986-b441-b78046a10087.jpg" x="-969" y="-810" width="2972" height="3766" opacity="0.92"/>
  <rect x="0.5" y="0.5" width="120" height="119" fill="none" stroke="#111827" stroke-width="1" opacity="0.35"/>
  <polyline points="31,101 31,102 30,102 30,103 29,103 28,103 28,104 27,104 26,104 25,104 24,104 23,104 22,104 21,104 21,103 20,103 19,103 18,103 18,102 17,102 16,102 16,101 16,100 16,99 16,98 16,97 16,96 16,95 17,95 17,94 17,93 17,92 18,92 18,91 18,90 19,90 19,89 19,88 20,88 21,88 21,87 22,87 22,86 23,86 24,86 24,85 25,85 26,85 27,85 27,84" fill="none" stroke="#f2e45c" stroke-width="3" stroke-linecap="round" stroke-linejoin="round" opacity="0.95">
    <title>1648 e:1</title>
  </polyline>
  <polyline points="49,98 49,97 49,96 49,95 49,94 49,93 49,92 49,91 49,90 49,89 49,88 50,88 50,87 50,86 50,85 50,84 50,83 50,82 50,81 50,80 50,79 50,78 50,77 50,76 50,75 51,74 51,73 51,72 51,71 51,70 51,69 51,68 51,67 51,66 51,65 51,64 51,63 51,62 51,61 51,60 51,59 51,58 51,57 51,56 51,55 51,54 51,53" fill="none" stroke="#00f0b5" stroke-width="3" stroke-linecap="round" stroke-linejoin="round" opacity="0.95">
    <title>1668 a:1</title>
  </polyline>
  <polyline points="51,53 51,52 51,51 51,50 51,49 51,48 51,47 51,46 51,45 51,44 51,43 51,42 51,41 51,40 52,40 52,39 52,38 52,37 52,36 52,35 52,34 52,33 52,32 52,31 52,30 52,29 52,28 52,27 52,26 52,25 52,24 52,23 52,22 52,21 52,20 52,19 52,18 52,17 52,16 51,16 51,17 50,17 50,18 49,18 48,18 48,19 47,19 46,19 46,20 45,20 44,20 44,21 43,21 43,22 42,22 41,22 41,23 40,23 39,24 38,24 38,25 37,25 37,26 36,26 36,27 35,27 35,28 34,28 34,29 33,29 33,30 32,30 32,31 31,31 31,32 30,32 30,33 29,33 29,34 28,34 28,35 28,36 27,36 27,37 28,37 29,37 30,37 31,37 32,37 33,37 34,37 35,37 36,37 37,37 38,37 39,37 40,37 41,37 42,37 43,37 44,37 45,37 46,37 47,37 48,37 49,37 50,37 51,37 52,37 53,37 54,37 55,37 56,37 57,37 58,37 59,37 60,37 61,37 61,36 62,36 63,36 64,36 65,36 66,36" fill="none" stroke="#ff00ff" stroke-width="3" stroke-linecap="round" stroke-linejoin="round" opacity="0.95">
    <title>3033 m:1</title>
  </polyline>
  <polyline points="65,37 66,37 67,37 68,37 69,37 70,37 71,37 72,37 73,37 74,37 75,37 76,37 77,37 78,37 79,37 80,37 80,36 81,36 82,36 83,36 83,35 84,35 85,35 85,34 86,34 87,34 87,33 88,33 88,32 89,32 90,31 91,30 91,29 92,29 92,28 92,27 92,26 92,25 92,24 92,23 92,22 92,21 91,21 91,20 91,19 90,19 90,18 89,18 88,18 88,17 87,17 86,17 85,17 85,16 84,16 83,16 82,16 81,16 80,16 79,16 78,16 77,16 76,16 75,16 74,16 74,17 73,17 72,17 72,18 71,18 71,19 70,19 69,20 68,20 68,21 68,22 67,22 67,23 66,23 66,24 66,25 65,25 65,26 65,27 65,28 64,29 64,30 64,31 64,32 64,33 64,34 64,35 64,36 65,36 65,37 66,37" fill="none" stroke="#8aff00" stroke-width="3" stroke-linecap="round" stroke-linejoin="round" opacity="0.95">
    <title>1670 c:1</title>
  </polyline>
  <polyline points="65,37 65,38 65,39 65,40 65,41 65,42 65,43 65,44 65,45 66,45 66,46 66,47 66,48 66,49 66,50 66,51 66,52 66,53 66,54 66,55 66,56 66,57 66,58 66,59 66,60 66,61 66,62 66,63 66,64 66,65 66,66 66,67 67,68 67,69 67,70 67,71 67,72 67,73 67,74 67,75 67,76 67,77 67,78 67,79 67,80 67,81 67,82 67,83 67,84 67,85 67,86 67,87 67,88 67,89 67,90 68,90 68,91 68,92 68,93 69,93 69,94 69,95 69,96 69,97 69,98 69,99 69,100 69,101" fill="none" stroke="#00f0b5" stroke-width="3" stroke-linecap="round" stroke-linejoin="round" opacity="0.95">
    <title>1671 a:1</title>
  </polyline>
  <polyline points="26,85 27,85 28,85 29,85 30,85 31,85 32,85 33,85 34,85 35,85 36,85 37,85 38,85 39,85 40,85 41,85 42,85 43,85 44,85 45,85 46,85 47,85 48,85 49,85 50,85 51,85 52,85 53,85 54,85 55,85 56,85 57,85 58,85 59,85 60,85 61,85 62,85 63,85 64,85 65,85 66,85 67,85 68,85 69,85 70,85 71,85 72,85 73,85 74,85 75,85 76,85 77,85 78,85 79,85 80,85 81,85 82,85 83,85 84,85 85,85 86,85 87,85 88,85 89,85 90,85 91,85 92,85 93,85 94,85 95,85 96,85 97,85 98,85 98,84 99,84 100,84 101,84 102,84" fill="none" stroke="#7c3cff" stroke-width="3" stroke-linecap="round" stroke-linejoin="round" opacity="0.95">
    <title>1664 g:1</title>
  </polyline>
  <polyline points="105,100 105,101 104,101 104,102 103,102 102,102 102,103 101,103 100,103 99,103 98,103 97,103 96,103 95,103 95,102 94,102 93,102 92,102 92,101 91,101 90,101 90,100 90,99 90,98 90,97 90,96 90,95 90,94 91,94 91,93 91,92 91,91 92,91 92,90 92,89 93,89 93,88 93,87 94,87 95,87 95,86 96,86 96,85 97,85 98,85 98,84 99,84 100,84 101,84 101,83" fill="none" stroke="#f2e45c" stroke-width="3" stroke-linecap="round" stroke-linejoin="round" opacity="0.95">
    <title>1649 e:1</title>
  </polyline>
</svg>
