<?xml version="1.0" encoding="UTF-8"?>
<svg xmlns="http://www.w3.org/2000/svg" width="54" height="76" viewBox="0 0 54 76">
  <title>particle img3-m58-p5 e:1 h:1</title>
  <metadata>{&quot;entityType&quot;:&quot;particle&quot;,&quot;entityId&quot;:&quot;img3-m58-p5&quot;,&quot;token&quot;:&quot;e:1 h:1&quot;,&quot;signature&quot;:&quot;e:1 h:1&quot;,&quot;imageName&quot;:&quot;page-003.jpg&quot;,&quot;imageId&quot;:3,&quot;bounds&quot;:{&quot;x&quot;:682,&quot;y&quot;:1170,&quot;w&quot;:54,&quot;h&quot;:76},&quot;atoms&quot;:[{&quot;id&quot;:1896,&quot;token&quot;:&quot;e:1&quot;,&quot;particle_id&quot;:&quot;img3-m58-p5&quot;,&quot;molecule_id&quot;:&quot;img3-m58&quot;,&quot;atom_order&quot;:1},{&quot;id&quot;:1897,&quot;token&quot;:&quot;h:1&quot;,&quot;particle_id&quot;:&quot;img3-m58-p5&quot;,&quot;molecule_id&quot;:&quot;img3-m58&quot;,&quot;atom_order&quot;:2}]}</metadata>
  <rect x="0" y="0" width="54" height="76" fill="#f8f0d8"/>
  <image href="file:///C:/Users/HHHES/AppData/Roaming/com.voynichlab.datasetcreator/images/1/35a70f63-88ab-4986-b441-b78046a10087.jpg" x="-682" y="-1170" width="2972" height="3766" opacity="0.92"/>
  <rect x="0.5" y="0.5" width="53" height="75" fill="none" stroke="#111827" stroke-width="1" opacity="0.35"/>
  <polyline points="33,33 33,34 32,34 32,35 31,35 30,35 30,36 29,36 28,36 27,36 26,36 25,36 24,36 23,36 23,35 22,35 21,35 20,35 20,34 19,34 18,34 18,33 18,32 18,31 18,30 18,29 18,28 18,27 19,27 19,26 19,25 19,24 20,24 20,23 20,22 21,22 21,21 21,20 22,20 23,20 23,19 24,19 24,18 25,18 26,18 26,17 27,17 28,17 29,17 29,16" fill="none" stroke="#f2e45c" stroke-width="3" stroke-linecap="round" stroke-linejoin="round" opacity="0.95">
    <title>1896 e:1</title>
  </polyline>
  <polyline points="29,17 30,17 31,17 32,17 33,18 34,18 34,19 35,19 35,20 36,21 36,22 36,23 37,23 37,24 37,25 37,26 37,27 37,28 38,28 38,29 38,30 38,31 38,32 38,33 37,33 37,34 37,35 37,36 36,37 36,38 36,39 35,39 35,40 35,41 34,41 34,42 33,42 33,43 32,43 32,44 31,44 31,45 30,45 30,46 29,46 29,47 28,47 28,48 27,48 27,49 26,49 26,50 25,50 25,51 24,51 24,52 23,53 22,53 22,54 21,54 21,55 20,56 19,57 19,58 18,58 17,59 17,60 16,60" fill="none" stroke="#ff8c00" stroke-width="3" stroke-linecap="round" stroke-linejoin="round" opacity="0.95">
    <title>1897 h:1</title>
  </polyline>
</svg>
