<?xml version="1.0" encoding="UTF-8"?>
<svg xmlns="http://www.w3.org/2000/svg" width="61" height="90" viewBox="0 0 61 90">
  <title>particle img3-m40-p9 e:1 h:1</title>
  <metadata>{&quot;entityType&quot;:&quot;particle&quot;,&quot;entityId&quot;:&quot;img3-m40-p9&quot;,&quot;token&quot;:&quot;e:1 h:1&quot;,&quot;signature&quot;:&quot;e:1 h:1&quot;,&quot;imageName&quot;:&quot;page-003.jpg&quot;,&quot;imageId&quot;:3,&quot;bounds&quot;:{&quot;x&quot;:2312,&quot;y&quot;:864,&quot;w&quot;:61,&quot;h&quot;:90},&quot;atoms&quot;:[{&quot;id&quot;:1754,&quot;token&quot;:&quot;e:1&quot;,&quot;particle_id&quot;:&quot;img3-m40-p9&quot;,&quot;molecule_id&quot;:&quot;img3-m40&quot;,&quot;atom_order&quot;:1},{&quot;id&quot;:1755,&quot;token&quot;:&quot;h:1&quot;,&quot;particle_id&quot;:&quot;img3-m40-p9&quot;,&quot;molecule_id&quot;:&quot;img3-m40&quot;,&quot;atom_order&quot;:2}]}</metadata>
  <rect x="0" y="0" width="61" height="90" fill="#f8f0d8"/>
  <image href="file:///C:/Users/HHHES/AppData/Roaming/com.voynichlab.datasetcreator/images/1/35a70f63-88ab-4986-b441-b78046a10087.jpg" x="-2312" y="-864" width="2972" height="3766" opacity="0.92"/>
  <rect x="0.5" y="0.5" width="60" height="89" fill="none" stroke="#111827" stroke-width="1" opacity="0.35"/>
  <polyline points="40,33 40,34 39,34 39,35 38,35 37,35 37,36 36,36 35,36 34,36 33,36 32,36 31,36 30,36 30,35 29,35 28,35 27,35 27,34 26,34 25,34 25,33 25,32 25,31 25,30 25,29 25,28 25,27 26,27 26,26 26,25 26,24 27,24 27,23 27,22 28,22 28,21 28,20 29,20 30,20 30,19 31,19 31,18 32,18 33,18 33,17 34,17 35,17 36,17 36,16" fill="none" stroke="#f2e45c" stroke-width="3" stroke-linecap="round" stroke-linejoin="round" opacity="0.95">
    <title>1754 e:1</title>
  </polyline>
  <polyline points="36,16 37,16 38,16 39,17 40,17 41,18 42,18 42,19 43,19 43,20 43,21 44,21 44,22 44,23 45,23 45,24 45,25 45,26 45,27 45,28 45,29 45,30 45,31 45,32 45,33 45,34 44,34 44,35 44,36 44,37 44,38 43,38 43,39 43,40 42,41 42,42 42,43 41,43 41,44 40,44 40,45 40,46 39,46 39,47 38,48 38,49 37,50 36,50 36,51 36,52 35,52 35,53 34,53 34,54 33,54 33,55 32,55 32,56 31,57 30,58 29,58 29,59 28,59 27,60 26,61 25,61 25,62 24,62 24,63 23,63 23,64 22,65 21,66 21,67 20,67 20,68 19,68 19,69 18,69 18,70 17,70 17,71 17,72 16,72 16,73 16,74" fill="none" stroke="#ff8c00" stroke-width="3" stroke-linecap="round" stroke-linejoin="round" opacity="0.95">
    <title>1755 h:1</title>
  </polyline>
</svg>
