<?xml version="1.0" encoding="UTF-8"?>
<svg xmlns="http://www.w3.org/2000/svg" width="58" height="55" viewBox="0 0 58 55">
  <title>particle img3-m40-p5 e:1 f:1</title>
  <metadata>{&quot;entityType&quot;:&quot;particle&quot;,&quot;entityId&quot;:&quot;img3-m40-p5&quot;,&quot;token&quot;:&quot;e:1 f:1&quot;,&quot;signature&quot;:&quot;e:1 f:1&quot;,&quot;imageName&quot;:&quot;page-003.jpg&quot;,&quot;imageId&quot;:3,&quot;bounds&quot;:{&quot;x&quot;:2197,&quot;y&quot;:861,&quot;w&quot;:58,&quot;h&quot;:55},&quot;atoms&quot;:[{&quot;id&quot;:1749,&quot;token&quot;:&quot;e:1&quot;,&quot;particle_id&quot;:&quot;img3-m40-p5&quot;,&quot;molecule_id&quot;:&quot;img3-m40&quot;,&quot;atom_order&quot;:1},{&quot;id&quot;:1746,&quot;token&quot;:&quot;f:1&quot;,&quot;particle_id&quot;:&quot;img3-m40-p5&quot;,&quot;molecule_id&quot;:&quot;img3-m40&quot;,&quot;atom_order&quot;:2}]}</metadata>
  <rect x="0" y="0" width="58" height="55" fill="#f8f0d8"/>
  <image href="file:///C:/Users/HHHES/AppData/Roaming/com.voynichlab.datasetcreator/images/1/35a70f63-88ab-4986-b441-b78046a10087.jpg" x="-2197" y="-861" width="2972" height="3766" opacity="0.92"/>
  <rect x="0.5" y="0.5" width="57" height="54" fill="none" stroke="#111827" stroke-width="1" opacity="0.35"/>
  <polyline points="31,37 30,37 29,37 29,38 28,38 27,38 27,39 26,39 25,39 24,39 23,39 22,39 22,38 21,38 21,37 20,37 20,36 19,36 18,36 18,35 17,35 17,34 17,33 16,33 16,32 16,31 16,30 16,29 16,28 16,27 17,27 17,26 17,25 18,25 18,24 18,23 19,23 19,22 20,22 20,21 21,21 21,20 22,20 23,20 23,19 24,19 24,18 25,18 26,18 26,17 27,17 27,16 28,16 29,16" fill="none" stroke="#f2e45c" stroke-width="3" stroke-linecap="round" stroke-linejoin="round" opacity="0.95">
    <title>1749 e:1</title>
  </polyline>
  <polyline points="29,16 29,17 29,18 30,18 30,19 30,20 31,20 31,21 32,22 32,23 33,23 33,24 34,25 34,26 35,26 35,27 36,27 36,28 37,28 37,29 37,30 38,30 38,31 38,32 39,32 39,33 40,33 40,34 41,35 41,36 42,36 42,37" fill="none" stroke="#00a2ff" stroke-width="3" stroke-linecap="round" stroke-linejoin="round" opacity="0.95">
    <title>1746 f:1</title>
  </polyline>
</svg>
