<?xml version="1.0" encoding="UTF-8"?>
<svg xmlns="http://www.w3.org/2000/svg" width="61" height="75" viewBox="0 0 61 75">
  <title>particle img3-m56-p4 e:1 c:1 h:2</title>
  <metadata>{&quot;entityType&quot;:&quot;particle&quot;,&quot;entityId&quot;:&quot;img3-m56-p4&quot;,&quot;token&quot;:&quot;e:1 c:1 h:2&quot;,&quot;signature&quot;:&quot;e:1 c:1 h:2&quot;,&quot;imageName&quot;:&quot;page-003.jpg&quot;,&quot;imageId&quot;:3,&quot;bounds&quot;:{&quot;x&quot;:854,&quot;y&quot;:1128,&quot;w&quot;:61,&quot;h&quot;:75},&quot;atoms&quot;:[{&quot;id&quot;:1923,&quot;token&quot;:&quot;e:1&quot;,&quot;particle_id&quot;:&quot;img3-m56-p4&quot;,&quot;molecule_id&quot;:&quot;img3-m56&quot;,&quot;atom_order&quot;:1},{&quot;id&quot;:1906,&quot;token&quot;:&quot;c:1&quot;,&quot;particle_id&quot;:&quot;img3-m56-p4&quot;,&quot;molecule_id&quot;:&quot;img3-m56&quot;,&quot;atom_order&quot;:2},{&quot;id&quot;:1945,&quot;token&quot;:&quot;h:2&quot;,&quot;particle_id&quot;:&quot;img3-m56-p4&quot;,&quot;molecule_id&quot;:&quot;img3-m56&quot;,&quot;atom_order&quot;:3}]}</metadata>
  <rect x="0" y="0" width="61" height="75" fill="#f8f0d8"/>
  <image href="file:///C:/Users/HHHES/AppData/Roaming/com.voynichlab.datasetcreator/images/1/35a70f63-88ab-4986-b441-b78046a10087.jpg" x="-854" y="-1128" width="2972" height="3766" opacity="0.92"/>
  <rect x="0.5" y="0.5" width="60" height="74" fill="none" stroke="#111827" stroke-width="1" opacity="0.35"/>
  <polyline points="31,56 31,57 30,57 30,58 29,58 28,58 27,58 27,59 26,59 25,59 24,59 23,59 22,59 21,59 21,58 20,58 19,57 18,57 18,56 17,55 17,54 17,53 16,53 16,52 16,51 16,50 16,49 16,48 17,48 17,47 17,46 18,46 18,45 19,45 19,44 20,44 20,43 21,43 22,43 22,42 23,42 24,42 24,41 25,41 26,41 27,40 28,40 29,39 30,39 31,39 31,38 32,38 33,37" fill="none" stroke="#f2e45c" stroke-width="3" stroke-linecap="round" stroke-linejoin="round" opacity="0.95">
    <title>1923 e:1</title>
  </polyline>
  <polyline points="27,22 27,23 26,23 26,24 26,25 25,25 25,26 25,27 25,28 25,29 25,30 25,31 25,32 26,32 26,33 27,33 27,34 28,35 29,35 30,35 31,35 31,36 32,36 33,36 34,36 35,36 36,36 37,36 38,36 39,36 39,35 40,35 41,35 41,34 41,33 42,33 42,32 43,32 43,31 43,30 44,30 44,29 44,28 45,28 45,27 45,26 45,25 45,24 45,23 45,22 44,22 44,21 44,20 43,20 43,19 42,19 42,18 41,18 41,17 40,17 39,17 39,16 38,16 37,16 36,16 35,16 34,16 33,16 32,16 31,17 30,17 30,18 29,18 29,19 28,19 27,19 27,20 26,20 26,21 26,22" fill="none" stroke="#8aff00" stroke-width="3" stroke-linecap="round" stroke-linejoin="round" opacity="0.95">
    <title>1906 c:1</title>
  </polyline>
  <polyline points="30,57 31,57 31,56 32,56 32,55 33,55 33,54 34,54 35,53 35,52 36,52 36,51 36,50 36,49 36,48 36,47 36,46 36,45 36,44 36,43 36,42 36,41 36,40 35,39 35,38 34,38 34,37 33,37 33,36 32,36 32,35 31,35 30,35 30,34 29,34 28,34 28,33 27,33 27,32 26,32 26,31 25,31 25,30 25,29 25,28 25,27 25,26 25,25 25,24 25,23 25,22 26,22 26,21 26,20 27,20 27,19 28,19 29,19 30,19" fill="none" stroke="#ff8c00" stroke-width="3" stroke-linecap="round" stroke-linejoin="round" opacity="0.95">
    <title>1945 h:2</title>
  </polyline>
</svg>
