<?xml version="1.0" encoding="UTF-8"?>
<svg xmlns="http://www.w3.org/2000/svg" width="128" height="118" viewBox="0 0 128 118">
  <title>particle img3-m126-p1 e:1 a:1 m:1 c:1 a:1 b:1 d:1 g:1 e:1</title>
  <metadata>{&quot;entityType&quot;:&quot;particle&quot;,&quot;entityId&quot;:&quot;img3-m126-p1&quot;,&quot;token&quot;:&quot;e:1 a:1 m:1 c:1 a:1 b:1 d:1 g:1 e:1&quot;,&quot;signature&quot;:&quot;e:1 a:1 m:1 c:1 a:1 b:1 d:1 g:1 e:1&quot;,&quot;imageName&quot;:&quot;page-003.jpg&quot;,&quot;imageId&quot;:3,&quot;bounds&quot;:{&quot;x&quot;:1340,&quot;y&quot;:2017,&quot;w&quot;:128,&quot;h&quot;:118},&quot;atoms&quot;:[{&quot;id&quot;:3411,&quot;token&quot;:&quot;e:1&quot;,&quot;particle_id&quot;:&quot;img3-m126-p1&quot;,&quot;molecule_id&quot;:&quot;img3-m126&quot;,&quot;atom_order&quot;:1},{&quot;id&quot;:3449,&quot;token&quot;:&quot;a:1&quot;,&quot;particle_id&quot;:&quot;img3-m126-p1&quot;,&quot;molecule_id&quot;:&quot;img3-m126&quot;,&quot;atom_order&quot;:2},{&quot;id&quot;:3475,&quot;token&quot;:&quot;m:1&quot;,&quot;particle_id&quot;:&quot;img3-m126-p1&quot;,&quot;molecule_id&quot;:&quot;img3-m126&quot;,&quot;atom_order&quot;:3},{&quot;id&quot;:3440,&quot;token&quot;:&quot;c:1&quot;,&quot;particle_id&quot;:&quot;img3-m126-p1&quot;,&quot;molecule_id&quot;:&quot;img3-m126&quot;,&quot;atom_order&quot;:4},{&quot;id&quot;:3450,&quot;token&quot;:&quot;a:1&quot;,&quot;particle_id&quot;:&quot;img3-m126-p1&quot;,&quot;molecule_id&quot;:&quot;img3-m126&quot;,&quot;atom_order&quot;:5},{&quot;id&quot;:3432,&quot;token&quot;:&quot;b:1&quot;,&quot;particle_id&quot;:&quot;img3-m126-p1&quot;,&quot;molecule_id&quot;:&quot;img3-m126&quot;,&quot;atom_order&quot;:6},{&quot;id&quot;:3476,&quot;token&quot;:&quot;d:1&quot;,&quot;particle_id&quot;:&quot;img3-m126-p1&quot;,&quot;molecule_id&quot;:&quot;img3-m126&quot;,&quot;atom_order&quot;:7},{&quot;id&quot;:3456,&quot;token&quot;:&quot;g:1&quot;,&quot;particle_id&quot;:&quot;img3-m126-p1&quot;,&quot;molecule_id&quot;:&quot;img3-m126&quot;,&quot;atom_order&quot;:8},{&quot;id&quot;:3412,&quot;token&quot;:&quot;e:1&quot;,&quot;particle_id&quot;:&quot;img3-m126-p1&quot;,&quot;molecule_id&quot;:&quot;img3-m126&quot;,&quot;atom_order&quot;:9}]}</metadata>
  <rect x="0" y="0" width="128" height="118" fill="#f8f0d8"/>
  <image href="file:///C:/Users/HHHES/AppData/Roaming/com.voynichlab.datasetcreator/images/1/35a70f63-88ab-4986-b441-b78046a10087.jpg" x="-1340" y="-2017" width="2972" height="3766" opacity="0.92"/>
  <rect x="0.5" y="0.5" width="127" height="117" fill="none" stroke="#111827" stroke-width="1" opacity="0.35"/>
  <polyline points="35,99 35,100 34,100 34,101 33,101 32,101 32,102 31,102 30,102 29,102 28,102 27,102 26,102 25,102 25,101 24,101 23,101 22,101 22,100 21,100 20,100 20,99 20,98 20,97 20,96 20,95 20,94 20,93 21,93 21,92 21,91 21,90 22,90 22,89 22,88 23,88 23,87 23,86 24,86 25,86 25,85 26,85 26,84 27,84 28,84 28,83 29,83 30,83 31,83 31,82" fill="none" stroke="#f2e45c" stroke-width="3" stroke-linecap="round" stroke-linejoin="round" opacity="0.95">
    <title>3411 e:1</title>
  </polyline>
  <polyline points="66,44 66,45 65,46 65,47 65,48 65,49 65,51 65,52 65,53 65,54 65,55 65,56 65,57 65,59 65,60 65,61 65,62 65,63 65,64 65,65 65,66 65,67 65,68 65,69 64,69 64,70 64,71 64,72 64,73 64,75 64,76 64,77 64,78 64,79 64,80 63,81 63,83 63,84 63,85 63,86 62,86 62,87 62,88 62,89 62,90 62,91 62,92 62,93 62,94" fill="none" stroke="#00f0b5" stroke-width="3" stroke-linecap="round" stroke-linejoin="round" opacity="0.95">
    <title>3449 a:1</title>
  </polyline>
  <polyline points="66,44 66,43 66,42 67,42 67,41 67,40 67,39 67,38 68,38 68,37 68,36 68,35 69,34 69,33 69,32 69,31 70,31 70,30 70,29 70,28 71,28 71,27 71,26 71,25 72,25 72,24 72,23 72,22 72,21 71,21 71,22 70,22 69,22 68,22 68,23 67,23 66,23 66,24 65,24 64,24 63,25 62,25 61,25 61,26 60,26 59,26 58,26 58,27 57,27 56,27 56,28 55,28 54,28 54,29 53,29 52,30 51,30 51,31 50,31 50,32 49,32 48,33 48,34 47,34 48,34 49,34 50,34 51,34 52,34 53,34 54,34 55,34 56,34 57,34 58,34 59,34 60,34 61,34 62,34 63,34 64,34 65,34 66,34 67,33 68,33 69,33 70,33 71,33 72,33 73,33 74,33 75,33 76,33 77,33 78,33 79,33 80,33 81,33 82,33 83,33 84,33 85,33 86,33 88,33 89,33 90,33 91,33" fill="none" stroke="#ff00ff" stroke-width="3" stroke-linecap="round" stroke-linejoin="round" opacity="0.95">
    <title>3475 m:1</title>
  </polyline>
  <polyline points="89,33 90,33 91,33 92,33 93,33 94,33 95,33 96,33 97,33 98,33 99,33 100,33 101,33 102,33 103,33 104,33 105,33 105,32 106,32 107,32 108,32 108,31 109,31 109,30 110,30 110,29 111,29 111,28 112,28 112,27 112,26 112,25 112,24 112,23 112,22 112,21 111,20 111,19 110,19 110,18 109,18 109,17 108,17 108,16 107,16 106,16 105,16 104,16 103,16 102,16 101,16 100,16 99,17 98,17 97,17 97,18 96,18 95,18 94,19 93,19 93,20 92,20 92,21 91,21 91,22 90,22 90,23 89,23 89,24 89,25 89,26 88,27 88,28 88,29 88,30 88,31 89,31 89,32 89,33 90,33" fill="none" stroke="#8aff00" stroke-width="3" stroke-linecap="round" stroke-linejoin="round" opacity="0.95">
    <title>3440 c:1</title>
  </polyline>
  <polyline points="89,31 89,32 89,33 89,34 89,35 89,36 89,37 89,38 89,39 89,40 90,41 90,42 90,43 90,44 90,45 90,46 90,47 90,48 90,49 91,49 91,50 91,51 91,52 91,53 91,54 91,55 91,56 91,57 91,58 91,59 91,60" fill="none" stroke="#00f0b5" stroke-width="3" stroke-linecap="round" stroke-linejoin="round" opacity="0.95">
    <title>3450 a:1</title>
  </polyline>
  <polyline points="92,58 91,59 91,60 90,60 90,61 89,61 88,61 87,61 87,62 86,62 85,62 84,62 83,62 83,63 82,63 81,63 80,63 79,63 78,63 77,63 76,63 75,63 74,63 73,62 72,62 71,62 70,62 69,62 68,61 67,61 66,61 66,60 65,60 64,60 63,60 63,59 62,59 61,59 60,59 59,59 59,58 58,58" fill="none" stroke="#2f7df6" stroke-width="3" stroke-linecap="round" stroke-linejoin="round" opacity="0.95">
    <title>3432 b:1</title>
  </polyline>
  <polyline points="17,77 16,77 16,76 16,75 16,74 17,73 17,72 18,72 18,71 19,71 19,70 20,70 20,69 21,69 21,68 22,68 22,67 23,67 23,66 24,66 25,65 26,65 27,64 28,64 29,63 30,63 31,62 32,62 33,62 34,61 35,61 36,61 37,60 38,60 39,60 40,60 41,60 42,60 43,60 43,59 44,59 45,59 46,59 47,59 48,59 49,59 50,59 51,59 52,59 53,59 54,59 55,59 56,59 57,59 58,59 59,59 59,58 60,58 61,58 61,59 62,59 63,59" fill="none" stroke="#ff2d55" stroke-width="3" stroke-linecap="round" stroke-linejoin="round" opacity="0.95">
    <title>3476 d:1</title>
  </polyline>
  <polyline points="30,82 31,82 32,82 33,82 34,82 35,82 36,82 37,82 38,82 39,82 41,82 42,82 43,81 44,81 45,81 46,81 47,81 49,81 50,80 52,80 53,80 54,80 55,80 56,80 58,80 59,80 60,80 61,80 62,80 63,80 64,80 65,80 67,80 68,80 69,80 70,80 71,80 72,80 73,80 74,80 75,80 76,80 77,80 78,80 79,80 81,80 83,81 85,81 87,81 88,82 89,82 90,82 92,82 93,82 94,82 95,82 96,82 97,82 98,82 99,82 100,83 101,83 102,83 103,83 104,83 105,83" fill="none" stroke="#7c3cff" stroke-width="3" stroke-linecap="round" stroke-linejoin="round" opacity="0.95">
    <title>3456 g:1</title>
  </polyline>
  <polyline points="111,99 111,100 110,100 110,101 109,101 108,101 108,102 107,102 106,102 105,102 104,102 103,102 102,102 101,102 101,101 100,101 99,101 98,101 98,100 97,100 96,100 96,99 96,98 96,97 96,96 96,95 96,94 96,93 97,93 97,92 97,91 97,90 98,90 98,89 98,88 99,88 99,87 99,86 100,86 101,86 101,85 102,85 102,84 103,84 104,84 104,83 105,83 106,83 107,83 107,82" fill="none" stroke="#f2e45c" stroke-width="3" stroke-linecap="round" stroke-linejoin="round" opacity="0.95">
    <title>3412 e:1</title>
  </polyline>
</svg>
