<?xml version="1.0" encoding="UTF-8"?>
<svg xmlns="http://www.w3.org/2000/svg" width="105" height="107" viewBox="0 0 105 107">
  <title>particle img3-m46-p4 f:1 i:1 d:1</title>
  <metadata>{&quot;entityType&quot;:&quot;particle&quot;,&quot;entityId&quot;:&quot;img3-m46-p4&quot;,&quot;token&quot;:&quot;f:1 i:1 d:1&quot;,&quot;signature&quot;:&quot;f:1 i:1 d:1&quot;,&quot;imageName&quot;:&quot;page-003.jpg&quot;,&quot;imageId&quot;:3,&quot;bounds&quot;:{&quot;x&quot;:808,&quot;y&quot;:1007,&quot;w&quot;:105,&quot;h&quot;:107},&quot;atoms&quot;:[{&quot;id&quot;:1767,&quot;token&quot;:&quot;f:1&quot;,&quot;particle_id&quot;:&quot;img3-m46-p4&quot;,&quot;molecule_id&quot;:&quot;img3-m46&quot;,&quot;atom_order&quot;:1},{&quot;id&quot;:1769,&quot;token&quot;:&quot;i:1&quot;,&quot;particle_id&quot;:&quot;img3-m46-p4&quot;,&quot;molecule_id&quot;:&quot;img3-m46&quot;,&quot;atom_order&quot;:2},{&quot;id&quot;:1771,&quot;token&quot;:&quot;d:1&quot;,&quot;particle_id&quot;:&quot;img3-m46-p4&quot;,&quot;molecule_id&quot;:&quot;img3-m46&quot;,&quot;atom_order&quot;:3}]}</metadata>
  <rect x="0" y="0" width="105" height="107" fill="#f8f0d8"/>
  <image href="file:///C:/Users/HHHES/AppData/Roaming/com.voynichlab.datasetcreator/images/1/35a70f63-88ab-4986-b441-b78046a10087.jpg" x="-808" y="-1007" width="2972" height="3766" opacity="0.92"/>
  <rect x="0.5" y="0.5" width="104" height="106" fill="none" stroke="#111827" stroke-width="1" opacity="0.35"/>
  <polyline points="69,70 69,71 69,72 70,72 70,73 70,74 71,74 71,75 72,76 72,77 73,77 73,78 74,79 74,80 75,80 75,81 76,81 76,82 77,82 77,83 77,84 78,84 78,85 78,86 79,86 79,87 80,87 80,88 81,89 81,90 82,90 82,91" fill="none" stroke="#00a2ff" stroke-width="3" stroke-linecap="round" stroke-linejoin="round" opacity="0.95">
    <title>1767 f:1</title>
  </polyline>
  <polyline points="71,73 78,72 81,71 81,70 82,70 82,69 83,69 83,68 84,68 84,67 84,66 85,66 85,65 85,64 86,64 86,63 86,62 86,61 86,60 87,60 87,59 87,58 87,57 87,56 88,56 88,55 88,54 88,53 88,52 89,52 89,51 89,50 89,49 89,48 89,47 89,46 89,45 89,44 89,43 89,42 89,41 89,40 88,40 88,39 88,38 87,38 87,37 86,36 86,35 85,34 85,33 84,33 84,32 83,32 83,31 82,31 82,30 81,30 81,29 80,29 79,28 78,28 78,27 77,27 77,26 76,26 75,26" fill="none" stroke="#00ff7f" stroke-width="3" stroke-linecap="round" stroke-linejoin="round" opacity="0.95">
    <title>1769 i:1</title>
  </polyline>
  <polyline points="16,30 21,26 26,24 26,23 27,23 28,23 28,22 29,22 29,21 30,21 31,21 31,20 32,20 33,20 34,20 34,19 35,19 36,19 36,18 37,18 38,18 39,18 39,17 40,17 41,17 42,17 43,17 44,17 45,16 46,16 47,16 48,16 49,16 50,16 51,16 52,16 53,16 54,16 54,17 55,17 56,17 57,17 58,17 59,17 60,18 61,18 62,18 63,18 63,19 64,19 65,19 65,20 66,20 67,20 68,21 69,21 69,22 70,22 70,23 71,23 72,24 73,24 73,25 74,25 75,25 75,26 76,26" fill="none" stroke="#ff2d55" stroke-width="3" stroke-linecap="round" stroke-linejoin="round" opacity="0.95">
    <title>1771 d:1</title>
  </polyline>
</svg>
