<?xml version="1.0" encoding="UTF-8"?>
<svg xmlns="http://www.w3.org/2000/svg" width="94" height="97" viewBox="0 0 94 97">
  <title>particle img3-m146-p2 a:1 e:1 b:1 c:1 a:1</title>
  <metadata>{&quot;entityType&quot;:&quot;particle&quot;,&quot;entityId&quot;:&quot;img3-m146-p2&quot;,&quot;token&quot;:&quot;a:1 e:1 b:1 c:1 a:1&quot;,&quot;signature&quot;:&quot;a:1 e:1 b:1 c:1 a:1&quot;,&quot;imageName&quot;:&quot;page-003.jpg&quot;,&quot;imageId&quot;:3,&quot;bounds&quot;:{&quot;x&quot;:1973,&quot;y&quot;:2230,&quot;w&quot;:94,&quot;h&quot;:97},&quot;atoms&quot;:[{&quot;id&quot;:3638,&quot;token&quot;:&quot;a:1&quot;,&quot;particle_id&quot;:&quot;img3-m146-p2&quot;,&quot;molecule_id&quot;:&quot;img3-m146&quot;,&quot;atom_order&quot;:1},{&quot;id&quot;:3536,&quot;token&quot;:&quot;e:1&quot;,&quot;particle_id&quot;:&quot;img3-m146-p2&quot;,&quot;molecule_id&quot;:&quot;img3-m146&quot;,&quot;atom_order&quot;:2},{&quot;id&quot;:3617,&quot;token&quot;:&quot;b:1&quot;,&quot;particle_id&quot;:&quot;img3-m146-p2&quot;,&quot;molecule_id&quot;:&quot;img3-m146&quot;,&quot;atom_order&quot;:3},{&quot;id&quot;:3559,&quot;token&quot;:&quot;c:1&quot;,&quot;particle_id&quot;:&quot;img3-m146-p2&quot;,&quot;molecule_id&quot;:&quot;img3-m146&quot;,&quot;atom_order&quot;:4},{&quot;id&quot;:3639,&quot;token&quot;:&quot;a:1&quot;,&quot;particle_id&quot;:&quot;img3-m146-p2&quot;,&quot;molecule_id&quot;:&quot;img3-m146&quot;,&quot;atom_order&quot;:5}]}</metadata>
  <rect x="0" y="0" width="94" height="97" fill="#f8f0d8"/>
  <image href="file:///C:/Users/HHHES/AppData/Roaming/com.voynichlab.datasetcreator/images/1/35a70f63-88ab-4986-b441-b78046a10087.jpg" x="-1973" y="-2230" width="2972" height="3766" opacity="0.92"/>
  <rect x="0.5" y="0.5" width="93" height="96" fill="none" stroke="#111827" stroke-width="1" opacity="0.35"/>
  <polyline points="27,17 27,18 27,19 28,19 28,20 28,21 28,22 28,23 28,24 28,25 28,26 28,27 28,28 28,29 29,30 29,31 29,32 29,34 29,35 29,36 29,37 29,38 29,39 29,40 29,41 29,42 29,43 29,44 29,45 29,46 29,48 29,49 29,50 29,51 29,52 29,53 29,55 29,56 29,57 29,58 29,59 29,60 29,61 29,63 28,64 28,65 28,66 28,67 28,69 27,70 27,72 27,73 27,74 27,75 27,76 27,77 27,78 27,79 27,80" fill="none" stroke="#00f0b5" stroke-width="3" stroke-linecap="round" stroke-linejoin="round" opacity="0.95">
    <title>3638 a:1</title>
  </polyline>
  <polyline points="31,35 31,36 30,36 30,37 29,37 28,37 28,38 27,38 26,38 25,38 24,38 23,38 22,38 21,38 21,37 20,37 19,37 18,37 18,36 17,36 16,36 16,35 16,34 16,33 16,32 16,31 16,30 16,29 17,29 17,28 17,27 17,26 18,26 18,25 18,24 19,24 19,23 19,22 20,22 21,22 21,21 22,21 22,20 23,20 24,20 24,19 25,19 26,19 27,19 27,18" fill="none" stroke="#f2e45c" stroke-width="3" stroke-linecap="round" stroke-linejoin="round" opacity="0.95">
    <title>3536 e:1</title>
  </polyline>
  <polyline points="19,30 19,31 20,32 21,33 21,34 22,34 22,35 23,35 23,36 24,36 25,36 26,37 27,37 27,38 28,38 29,38 30,39 32,39 33,39 34,40 35,40 36,40 37,40 38,40 39,40 40,40 41,40 42,40 43,40 44,40 45,41 46,41 47,41 48,41 49,41 50,41 51,41 53,41 54,41 55,41 56,41 57,40 58,40 59,40 60,39 61,39 62,39 63,39 63,38 64,38 65,37 66,37 66,36 67,36 68,35 69,35 69,34" fill="none" stroke="#2f7df6" stroke-width="3" stroke-linecap="round" stroke-linejoin="round" opacity="0.95">
    <title>3617 b:1</title>
  </polyline>
  <polyline points="64,37 65,37 66,37 67,36 68,36 69,36 69,35 70,35 71,35 71,34 72,34 73,33 74,33 74,32 75,32 75,31 76,31 76,30 77,30 77,29 77,28 77,27 78,27 78,26 78,25 78,24 77,24 77,23 77,22 77,21 77,20 76,20 76,19 75,19 75,18 74,18 74,17 73,17 72,17 71,16 70,16 69,16 68,16 67,16 66,16 65,16 64,16 63,16 62,16 61,16 60,16 59,16 59,17 58,17 58,18 57,18 57,19 56,19 55,20 55,21 54,21 54,22 53,22 53,23 53,24 53,25 52,25 52,26 52,27 52,28 52,29 52,30 53,30 53,31 53,32 54,32 54,33 55,33 56,34 57,34 57,35 58,35 59,36 60,36 61,36 62,36 63,36 64,36 64,37 65,37" fill="none" stroke="#8aff00" stroke-width="3" stroke-linecap="round" stroke-linejoin="round" opacity="0.95">
    <title>3559 c:1</title>
  </polyline>
  <polyline points="51,27 51,28 51,30 50,32 50,35 50,36 50,38 50,39 50,40 50,42 49,44 49,46 49,48 48,49 48,50 48,51 48,52 48,53 47,54 47,55 47,56 47,57 46,59 46,60 46,61 46,62 46,64 46,66 46,68 46,69 46,70 46,71 46,72 45,73 45,74 45,75 45,76 45,77 45,78 45,79 45,80 44,81" fill="none" stroke="#00f0b5" stroke-width="3" stroke-linecap="round" stroke-linejoin="round" opacity="0.95">
    <title>3639 a:1</title>
  </polyline>
</svg>
