<?xml version="1.0" encoding="UTF-8"?>
<svg xmlns="http://www.w3.org/2000/svg" width="81" height="80" viewBox="0 0 81 80">
  <title>particle img3-m15-p1 e:1 i:1 d:1</title>
  <metadata>{&quot;entityType&quot;:&quot;particle&quot;,&quot;entityId&quot;:&quot;img3-m15-p1&quot;,&quot;token&quot;:&quot;e:1 i:1 d:1&quot;,&quot;signature&quot;:&quot;e:1 i:1 d:1&quot;,&quot;imageName&quot;:&quot;page-003.jpg&quot;,&quot;imageId&quot;:3,&quot;bounds&quot;:{&quot;x&quot;:549,&quot;y&quot;:596,&quot;w&quot;:81,&quot;h&quot;:80},&quot;atoms&quot;:[{&quot;id&quot;:1025,&quot;token&quot;:&quot;e:1&quot;,&quot;particle_id&quot;:&quot;img3-m15-p1&quot;,&quot;molecule_id&quot;:&quot;img3-m15&quot;,&quot;atom_order&quot;:1},{&quot;id&quot;:1027,&quot;token&quot;:&quot;i:1&quot;,&quot;particle_id&quot;:&quot;img3-m15-p1&quot;,&quot;molecule_id&quot;:&quot;img3-m15&quot;,&quot;atom_order&quot;:2},{&quot;id&quot;:1028,&quot;token&quot;:&quot;d:1&quot;,&quot;particle_id&quot;:&quot;img3-m15-p1&quot;,&quot;molecule_id&quot;:&quot;img3-m15&quot;,&quot;atom_order&quot;:3}]}</metadata>
  <rect x="0" y="0" width="81" height="80" fill="#f8f0d8"/>
  <image href="file:///C:/Users/HHHES/AppData/Roaming/com.voynichlab.datasetcreator/images/1/35a70f63-88ab-4986-b441-b78046a10087.jpg" x="-549" y="-596" width="2972" height="3766" opacity="0.92"/>
  <rect x="0.5" y="0.5" width="80" height="79" fill="none" stroke="#111827" stroke-width="1" opacity="0.35"/>
  <polyline points="64,61 64,62 63,62 63,63 62,63 61,63 61,64 60,64 59,64 58,64 57,64 56,64 55,64 54,64 54,63 53,63 52,63 51,63 51,62 50,62 49,62 49,61 49,60 49,59 49,58 49,57 49,56 49,55 50,55 50,54 50,53 50,52 51,52 51,51 51,50 52,50 52,49 52,48 53,48 54,48 54,47 55,47 55,46 56,46 57,46 57,45 58,45 59,45 60,45 60,44" fill="none" stroke="#f2e45c" stroke-width="3" stroke-linecap="round" stroke-linejoin="round" opacity="0.95">
    <title>1025 e:1</title>
  </polyline>
  <polyline points="60,44 61,44 61,43 62,42 62,41 63,41 63,40 63,39 63,38 64,38 64,37 64,36 64,35 65,35 65,34 65,33 65,32 65,31 65,30 65,29 65,28 64,28 64,27 64,26 64,25 63,25 63,24 63,23 62,22 62,21 61,21 61,20" fill="none" stroke="#00ff7f" stroke-width="3" stroke-linecap="round" stroke-linejoin="round" opacity="0.95">
    <title>1027 i:1</title>
  </polyline>
  <polyline points="16,39 16,38 17,38 17,37 18,37 18,36 19,36 19,35 20,35 20,34 21,34 21,33 22,33 22,32 23,32 23,31 24,31 24,30 25,30 26,29 27,29 27,28 28,28 28,27 29,27 30,26 30,25 31,25 32,25 32,24 33,24 33,23 34,23 35,23 35,22 36,22 36,21 37,21 38,21 38,20 39,20 40,19 41,19 42,19 42,18 43,18 44,18 44,17 45,17 46,17 47,17 47,16 48,16 49,16 50,16 51,16 52,16 53,16 54,16 55,16 56,16 57,16 57,17 58,17 58,18 59,18 59,19 60,19 60,20 61,20" fill="none" stroke="#ff2d55" stroke-width="3" stroke-linecap="round" stroke-linejoin="round" opacity="0.95">
    <title>1028 d:1</title>
  </polyline>
</svg>
