<?xml version="1.0" encoding="UTF-8"?>
<svg xmlns="http://www.w3.org/2000/svg" width="99" height="83" viewBox="0 0 99 83">
  <title>particle img3-m124-p5 l:1 f:1 i:1 d:1</title>
  <metadata>{&quot;entityType&quot;:&quot;particle&quot;,&quot;entityId&quot;:&quot;img3-m124-p5&quot;,&quot;token&quot;:&quot;l:1 f:1 i:1 d:1&quot;,&quot;signature&quot;:&quot;l:1 f:1 i:1 d:1&quot;,&quot;imageName&quot;:&quot;page-003.jpg&quot;,&quot;imageId&quot;:3,&quot;bounds&quot;:{&quot;x&quot;:1143,&quot;y&quot;:1968,&quot;w&quot;:99,&quot;h&quot;:83},&quot;atoms&quot;:[{&quot;id&quot;:3391,&quot;token&quot;:&quot;l:1&quot;,&quot;particle_id&quot;:&quot;img3-m124-p5&quot;,&quot;molecule_id&quot;:&quot;img3-m124&quot;,&quot;atom_order&quot;:1},{&quot;id&quot;:3392,&quot;token&quot;:&quot;f:1&quot;,&quot;particle_id&quot;:&quot;img3-m124-p5&quot;,&quot;molecule_id&quot;:&quot;img3-m124&quot;,&quot;atom_order&quot;:2},{&quot;id&quot;:3393,&quot;token&quot;:&quot;i:1&quot;,&quot;particle_id&quot;:&quot;img3-m124-p5&quot;,&quot;molecule_id&quot;:&quot;img3-m124&quot;,&quot;atom_order&quot;:3},{&quot;id&quot;:3394,&quot;token&quot;:&quot;d:1&quot;,&quot;particle_id&quot;:&quot;img3-m124-p5&quot;,&quot;molecule_id&quot;:&quot;img3-m124&quot;,&quot;atom_order&quot;:4}]}</metadata>
  <rect x="0" y="0" width="99" height="83" fill="#f8f0d8"/>
  <image href="file:///C:/Users/HHHES/AppData/Roaming/com.voynichlab.datasetcreator/images/1/35a70f63-88ab-4986-b441-b78046a10087.jpg" x="-1143" y="-1968" width="2972" height="3766" opacity="0.92"/>
  <rect x="0.5" y="0.5" width="98" height="82" fill="none" stroke="#111827" stroke-width="1" opacity="0.35"/>
  <polyline points="22,42 22,43 23,43 23,44 24,44 24,45 24,46 25,47 25,48 26,49 26,50 27,50 27,51 28,52 28,53 29,53 29,54 29,55 30,55 30,56 31,56 31,57 32,57 32,58 33,59 33,60 34,60 34,61 35,61 35,62 35,63 35,62 36,62 36,61 37,61 37,60 38,60 38,59 39,59 39,58 40,57 41,57 41,56 42,56 42,55 43,55 43,54 44,54 44,53 45,53 45,52 46,52 46,51 47,51 47,50 48,50 48,49 49,49 49,48 50,48 50,47 51,47 51,46 52,46" fill="none" stroke="#ff5f1f" stroke-width="3" stroke-linecap="round" stroke-linejoin="round" opacity="0.95">
    <title>3391 l:1</title>
  </polyline>
  <polyline points="52,46 52,47 52,48 53,48 53,49 53,50 54,50 54,51 55,52 55,53 56,53 56,54 57,55 57,56 58,56 58,57 59,57 59,58 60,58 60,59 60,60 61,60 61,61 61,62 62,62 62,63 63,63 63,64 64,65 64,66 65,66 65,67" fill="none" stroke="#00a2ff" stroke-width="3" stroke-linecap="round" stroke-linejoin="round" opacity="0.95">
    <title>3392 f:1</title>
  </polyline>
  <polyline points="65,67 66,67 66,66 67,66 68,66 69,66 69,65 70,65 71,64 72,64 73,63 74,62 75,62 75,61 76,61 76,60 77,60 77,59 78,59 78,58 79,58 79,57 80,56 80,55 81,54 81,53 82,52 82,51 83,50 83,49 83,48 83,47 83,46 83,45 83,44 83,43 83,42 83,41 83,40 83,39 83,38 83,37 82,37 82,36 82,35 82,34 81,33 81,32 80,31 80,30 79,30 79,29 78,29 77,29 76,28 75,28 75,27 74,27 73,26 72,26 72,25 71,25 70,25 69,24 68,24 69,24" fill="none" stroke="#00ff7f" stroke-width="3" stroke-linecap="round" stroke-linejoin="round" opacity="0.95">
    <title>3393 i:1</title>
  </polyline>
  <polyline points="16,19 17,19 18,19 18,18 19,18 20,18 21,17 22,17 23,17 24,17 25,17 26,17 27,17 28,17 29,17 29,16 30,16 31,16 32,16 33,16 34,16 35,16 36,16 37,16 38,16 39,16 39,17 40,17 41,17 42,17 43,17 44,17 45,17 46,17 47,17 47,18 48,18 49,18 50,18 51,18 52,18 52,19 53,19 54,19 55,19 56,19 56,20 57,20 58,20 59,20 60,21 61,21 62,21 62,22 63,22 64,22 65,22 65,23 66,23 67,23 67,24 68,24 69,24 70,24 70,25" fill="none" stroke="#ff2d55" stroke-width="3" stroke-linecap="round" stroke-linejoin="round" opacity="0.95">
    <title>3394 d:1</title>
  </polyline>
</svg>
