<?xml version="1.0" encoding="UTF-8"?>
<svg xmlns="http://www.w3.org/2000/svg" width="56" height="74" viewBox="0 0 56 74">
  <title>particle img3-m122-p1 e:1 c:1 h:2</title>
  <metadata>{&quot;entityType&quot;:&quot;particle&quot;,&quot;entityId&quot;:&quot;img3-m122-p1&quot;,&quot;token&quot;:&quot;e:1 c:1 h:2&quot;,&quot;signature&quot;:&quot;e:1 c:1 h:2&quot;,&quot;imageName&quot;:&quot;page-003.jpg&quot;,&quot;imageId&quot;:3,&quot;bounds&quot;:{&quot;x&quot;:1664,&quot;y&quot;:1980,&quot;w&quot;:56,&quot;h&quot;:74},&quot;atoms&quot;:[{&quot;id&quot;:3325,&quot;token&quot;:&quot;e:1&quot;,&quot;particle_id&quot;:&quot;img3-m122-p1&quot;,&quot;molecule_id&quot;:&quot;img3-m122&quot;,&quot;atom_order&quot;:1},{&quot;id&quot;:3355,&quot;token&quot;:&quot;c:1&quot;,&quot;particle_id&quot;:&quot;img3-m122-p1&quot;,&quot;molecule_id&quot;:&quot;img3-m122&quot;,&quot;atom_order&quot;:2},{&quot;id&quot;:3386,&quot;token&quot;:&quot;h:2&quot;,&quot;particle_id&quot;:&quot;img3-m122-p1&quot;,&quot;molecule_id&quot;:&quot;img3-m122&quot;,&quot;atom_order&quot;:3}]}</metadata>
  <rect x="0" y="0" width="56" height="74" fill="#f8f0d8"/>
  <image href="file:///C:/Users/HHHES/AppData/Roaming/com.voynichlab.datasetcreator/images/1/35a70f63-88ab-4986-b441-b78046a10087.jpg" x="-1664" y="-1980" width="2972" height="3766" opacity="0.92"/>
  <rect x="0.5" y="0.5" width="55" height="73" fill="none" stroke="#111827" stroke-width="1" opacity="0.35"/>
  <polyline points="31,55 31,56 30,56 30,57 29,57 28,57 28,58 27,58 26,58 25,58 24,58 23,58 22,58 21,58 21,57 20,57 19,57 18,57 18,56 17,56 16,56 16,55 16,54 16,53 16,52 16,51 16,50 16,49 17,49 17,48 17,47 17,46 18,46 18,45 18,44 19,44 19,43 19,42 20,42 21,42 21,41 22,41 22,40 23,40 24,40 24,39 25,39 26,39 27,39 27,38" fill="none" stroke="#f2e45c" stroke-width="3" stroke-linecap="round" stroke-linejoin="round" opacity="0.95">
    <title>3325 e:1</title>
  </polyline>
  <polyline points="32,33 33,33 33,32 34,32 35,31 36,31 36,30 37,30 38,29 39,28 39,27 40,26 40,25 40,24 40,23 40,22 40,21 39,20 38,19 37,19 37,18 36,18 35,18 34,18 34,17 33,17 32,17 31,17 31,16 30,16 29,16 28,16 27,16 27,17 26,17 25,17 25,18 24,18 23,19 22,19 22,20 22,21 22,22 21,22 21,23 21,24 22,24 22,25 22,26 23,26 23,27 24,28 25,29 26,30 27,30 27,31 28,31 28,32 29,32 30,32 31,32 31,33 32,33" fill="none" stroke="#8aff00" stroke-width="3" stroke-linecap="round" stroke-linejoin="round" opacity="0.95">
    <title>3355 c:1</title>
  </polyline>
  <polyline points="30,57 31,56 32,55 32,54 32,53 32,52 32,51 32,50 32,49 32,48 32,47 32,46 31,46 31,45 30,44 30,43 29,43 29,42 28,42 28,41 27,41 27,40 26,40 26,39 25,39 25,38 24,38 24,37 23,37 23,36 22,36 22,35 21,34 21,33 20,33 20,32 19,32 19,31 19,30 19,29 18,28 18,27 18,26 18,25 19,25 19,24 19,23 20,22 21,21 22,21 22,20 23,20 24,20 25,19 26,19 27,19" fill="none" stroke="#ff8c00" stroke-width="3" stroke-linecap="round" stroke-linejoin="round" opacity="0.95">
    <title>3386 h:2</title>
  </polyline>
</svg>
