<?xml version="1.0" encoding="UTF-8"?>
<svg xmlns="http://www.w3.org/2000/svg" width="77" height="88" viewBox="0 0 77 88">
  <title>particle img3-m157-p4 l:1 f:1 i:1 d:1</title>
  <metadata>{&quot;entityType&quot;:&quot;particle&quot;,&quot;entityId&quot;:&quot;img3-m157-p4&quot;,&quot;token&quot;:&quot;l:1 f:1 i:1 d:1&quot;,&quot;signature&quot;:&quot;l:1 f:1 i:1 d:1&quot;,&quot;imageName&quot;:&quot;page-003.jpg&quot;,&quot;imageId&quot;:3,&quot;bounds&quot;:{&quot;x&quot;:637,&quot;y&quot;:2563,&quot;w&quot;:77,&quot;h&quot;:88},&quot;atoms&quot;:[{&quot;id&quot;:3869,&quot;token&quot;:&quot;l:1&quot;,&quot;particle_id&quot;:&quot;img3-m157-p4&quot;,&quot;molecule_id&quot;:&quot;img3-m157&quot;,&quot;atom_order&quot;:1},{&quot;id&quot;:3854,&quot;token&quot;:&quot;f:1&quot;,&quot;particle_id&quot;:&quot;img3-m157-p4&quot;,&quot;molecule_id&quot;:&quot;img3-m157&quot;,&quot;atom_order&quot;:2},{&quot;id&quot;:3872,&quot;token&quot;:&quot;i:1&quot;,&quot;particle_id&quot;:&quot;img3-m157-p4&quot;,&quot;molecule_id&quot;:&quot;img3-m157&quot;,&quot;atom_order&quot;:3},{&quot;id&quot;:3882,&quot;token&quot;:&quot;d:1&quot;,&quot;particle_id&quot;:&quot;img3-m157-p4&quot;,&quot;molecule_id&quot;:&quot;img3-m157&quot;,&quot;atom_order&quot;:4}]}</metadata>
  <rect x="0" y="0" width="77" height="88" fill="#f8f0d8"/>
  <image href="file:///C:/Users/HHHES/AppData/Roaming/com.voynichlab.datasetcreator/images/1/35a70f63-88ab-4986-b441-b78046a10087.jpg" x="-637" y="-2563" width="2972" height="3766" opacity="0.92"/>
  <rect x="0.5" y="0.5" width="76" height="87" fill="none" stroke="#111827" stroke-width="1" opacity="0.35"/>
  <polyline points="16,47 16,48 16,49 16,50 17,50 17,51 17,52 17,53 18,53 18,54 18,55 19,55 19,56 20,56 20,57 21,58 21,59 22,59 22,60 23,61 23,62 24,62 24,63 24,64 25,64 25,65 25,66 26,66 27,66 27,65 28,65 28,64 29,63 29,62 30,62 31,61 32,61 32,60 33,60 33,59 34,59 34,58 35,57 36,57 36,56 37,56 37,55 38,54 38,53 39,53 39,52" fill="none" stroke="#ff5f1f" stroke-width="3" stroke-linecap="round" stroke-linejoin="round" opacity="0.95">
    <title>3869 l:1</title>
  </polyline>
  <polyline points="39,51 39,52 39,53 40,53 40,54 40,55 41,55 41,56 42,57 42,58 43,58 43,59 44,60 44,61 45,61 45,62 46,62 46,63 47,63 47,64 47,65 48,65 48,66 48,67 49,67 49,68 50,68 50,69 51,70 51,71 52,71 52,72" fill="none" stroke="#00a2ff" stroke-width="3" stroke-linecap="round" stroke-linejoin="round" opacity="0.95">
    <title>3854 f:1</title>
  </polyline>
  <polyline points="52,72 52,71 53,71 54,70 54,69 55,69 55,68 56,68 56,67 57,67 57,66 57,65 58,64 58,63 58,62 59,62 59,61 60,60 60,59 60,58 61,58 61,57 61,56 61,55 61,54 61,53 61,52 61,51 61,50 61,49 61,48 61,47 61,46 61,45 61,44 61,43 61,42 60,42 60,41 60,40 60,39 59,39 59,38 59,37 59,36 58,36 58,35 58,34 57,34 57,33 56,33 56,32 55,32 55,31 54,31 54,30 53,30 53,29 52,29 52,28 51,28 50,27 49,27 49,26 48,26 47,26 47,25 46,25" fill="none" stroke="#00ff7f" stroke-width="3" stroke-linecap="round" stroke-linejoin="round" opacity="0.95">
    <title>3872 i:1</title>
  </polyline>
  <polyline points="24,17 25,17 26,17 26,16 27,16 28,16 29,16 30,16 31,16 32,16 33,17 34,17 35,17 36,17 36,18 37,18 38,18 38,19 39,19 40,19 40,20 41,20 42,21 43,21 43,22 44,22 45,23 45,24 46,24 47,25 48,25 48,26 49,26 49,27 50,27 50,28 51,28 51,29" fill="none" stroke="#ff2d55" stroke-width="3" stroke-linecap="round" stroke-linejoin="round" opacity="0.95">
    <title>3882 d:1</title>
  </polyline>
</svg>
