<?xml version="1.0" encoding="UTF-8"?>
<svg xmlns="http://www.w3.org/2000/svg" width="104" height="91" viewBox="0 0 104 91">
  <title>particle img3-m150-p4 k:1 f:1 i:1 d:1</title>
  <metadata>{&quot;entityType&quot;:&quot;particle&quot;,&quot;entityId&quot;:&quot;img3-m150-p4&quot;,&quot;token&quot;:&quot;k:1 f:1 i:1 d:1&quot;,&quot;signature&quot;:&quot;k:1 f:1 i:1 d:1&quot;,&quot;imageName&quot;:&quot;page-003.jpg&quot;,&quot;imageId&quot;:3,&quot;bounds&quot;:{&quot;x&quot;:771,&quot;y&quot;:2479,&quot;w&quot;:104,&quot;h&quot;:91},&quot;atoms&quot;:[{&quot;id&quot;:3784,&quot;token&quot;:&quot;k:1&quot;,&quot;particle_id&quot;:&quot;img3-m150-p4&quot;,&quot;molecule_id&quot;:&quot;img3-m150&quot;,&quot;atom_order&quot;:1},{&quot;id&quot;:3717,&quot;token&quot;:&quot;f:1&quot;,&quot;particle_id&quot;:&quot;img3-m150-p4&quot;,&quot;molecule_id&quot;:&quot;img3-m150&quot;,&quot;atom_order&quot;:2},{&quot;id&quot;:3785,&quot;token&quot;:&quot;i:1&quot;,&quot;particle_id&quot;:&quot;img3-m150-p4&quot;,&quot;molecule_id&quot;:&quot;img3-m150&quot;,&quot;atom_order&quot;:3},{&quot;id&quot;:3786,&quot;token&quot;:&quot;d:1&quot;,&quot;particle_id&quot;:&quot;img3-m150-p4&quot;,&quot;molecule_id&quot;:&quot;img3-m150&quot;,&quot;atom_order&quot;:4}]}</metadata>
  <rect x="0" y="0" width="104" height="91" fill="#f8f0d8"/>
  <image href="file:///C:/Users/HHHES/AppData/Roaming/com.voynichlab.datasetcreator/images/1/35a70f63-88ab-4986-b441-b78046a10087.jpg" x="-771" y="-2479" width="2972" height="3766" opacity="0.92"/>
  <rect x="0.5" y="0.5" width="103" height="90" fill="none" stroke="#111827" stroke-width="1" opacity="0.35"/>
  <polyline points="16,44 16,45 17,45 17,46 17,47 17,48 18,49 18,50 18,51 19,52 20,53 20,54 20,55 21,56 21,57 21,58 22,58 22,59 22,60 23,61 23,62 23,63 24,64 24,65 24,66 25,67 25,68 26,68 26,67 27,66 27,65 27,64 27,63 28,63 28,62 29,61 30,60 31,60 31,59 32,59 33,58 33,57 34,57 35,56 36,56 36,55 37,55 37,54 38,54 38,53 39,53 39,52 40,52 40,51 41,51 41,50 41,51 41,52 41,53 41,54 41,55 41,56 41,57 41,58 41,59 41,60 42,60 42,61 42,62 43,62 43,63 43,64 44,64 44,65 44,66 45,67 45,68 46,68 46,69 47,69 47,70 47,71 48,71 48,70 49,70 49,69 49,68 50,68 50,67 51,66 51,65 52,65 52,64 53,63 54,63 54,62 55,62 55,61 56,61 56,60 57,59 58,58 58,57 59,57 60,57 60,56 61,56 62,55" fill="none" stroke="#ffffff" stroke-width="3" stroke-linecap="round" stroke-linejoin="round" opacity="0.95">
    <title>3784 k:1</title>
  </polyline>
  <polyline points="62,54 62,55 62,56 63,56 63,57 63,58 64,58 64,59 65,60 65,61 66,61 66,62 67,63 67,64 68,64 68,65 69,65 69,66 70,66 70,67 70,68 71,68 71,69 71,70 72,70 72,71 73,71 73,72 74,73 74,74 75,74 75,75" fill="none" stroke="#00a2ff" stroke-width="3" stroke-linecap="round" stroke-linejoin="round" opacity="0.95">
    <title>3717 f:1</title>
  </polyline>
  <polyline points="75,75 76,75 76,74 77,73 78,73 78,72 79,71 80,70 81,69 81,68 82,68 82,67 82,66 83,66 83,65 83,64 84,64 84,63 84,62 85,62 85,61 86,61 86,60 86,59 87,59 87,58 87,57 88,56 88,55 88,54 88,53 88,52 88,51 88,50 88,49 88,48 88,47 88,46 88,45 88,44 87,44 87,43 87,42 87,41 87,40 86,40 86,39 86,38 85,38 85,37 85,36 84,35 83,34 83,33 82,33 82,32 81,31 81,30 80,30 80,29 79,29 79,28 78,28 78,27 77,27 76,26 75,26 75,25 74,25" fill="none" stroke="#00ff7f" stroke-width="3" stroke-linecap="round" stroke-linejoin="round" opacity="0.95">
    <title>3785 i:1</title>
  </polyline>
  <polyline points="26,21 27,20 28,20 28,19 29,19 30,19 30,18 31,18 32,18 33,17 34,17 35,17 36,17 37,17 38,16 39,16 40,16 41,16 42,16 43,16 45,16 46,16 47,17 48,17 49,17 51,17 52,17 53,17 54,17 55,18 56,18 57,18 58,18 59,18 60,18 61,19 62,19 62,20 63,20 64,20 64,21 65,21 66,21 67,22 68,22 68,23 69,23 70,23 70,24 71,24 72,24 72,25 73,25 74,26 75,26" fill="none" stroke="#ff2d55" stroke-width="3" stroke-linecap="round" stroke-linejoin="round" opacity="0.95">
    <title>3786 d:1</title>
  </polyline>
</svg>
