<?xml version="1.0" encoding="UTF-8"?>
<svg xmlns="http://www.w3.org/2000/svg" width="82" height="96" viewBox="0 0 82 96">
  <title>particle img3-m138-p2 a:1 b:1 c:1 a:1</title>
  <metadata>{&quot;entityType&quot;:&quot;particle&quot;,&quot;entityId&quot;:&quot;img3-m138-p2&quot;,&quot;token&quot;:&quot;a:1 b:1 c:1 a:1&quot;,&quot;signature&quot;:&quot;a:1 b:1 c:1 a:1&quot;,&quot;imageName&quot;:&quot;page-003.jpg&quot;,&quot;imageId&quot;:3,&quot;bounds&quot;:{&quot;x&quot;:1128,&quot;y&quot;:2117,&quot;w&quot;:82,&quot;h&quot;:96},&quot;atoms&quot;:[{&quot;id&quot;:3620,&quot;token&quot;:&quot;a:1&quot;,&quot;particle_id&quot;:&quot;img3-m138-p2&quot;,&quot;molecule_id&quot;:&quot;img3-m138&quot;,&quot;atom_order&quot;:1},{&quot;id&quot;:3610,&quot;token&quot;:&quot;b:1&quot;,&quot;particle_id&quot;:&quot;img3-m138-p2&quot;,&quot;molecule_id&quot;:&quot;img3-m138&quot;,&quot;atom_order&quot;:2},{&quot;id&quot;:3542,&quot;token&quot;:&quot;c:1&quot;,&quot;particle_id&quot;:&quot;img3-m138-p2&quot;,&quot;molecule_id&quot;:&quot;img3-m138&quot;,&quot;atom_order&quot;:3},{&quot;id&quot;:3621,&quot;token&quot;:&quot;a:1&quot;,&quot;particle_id&quot;:&quot;img3-m138-p2&quot;,&quot;molecule_id&quot;:&quot;img3-m138&quot;,&quot;atom_order&quot;:4}]}</metadata>
  <rect x="0" y="0" width="82" height="96" fill="#f8f0d8"/>
  <image href="file:///C:/Users/HHHES/AppData/Roaming/com.voynichlab.datasetcreator/images/1/35a70f63-88ab-4986-b441-b78046a10087.jpg" x="-1128" y="-2117" width="2972" height="3766" opacity="0.92"/>
  <rect x="0.5" y="0.5" width="81" height="95" fill="none" stroke="#111827" stroke-width="1" opacity="0.35"/>
  <polyline points="19,25 19,26 19,27 19,28 19,29 19,31 19,32 20,33 20,35 20,36 20,37 20,38 20,39 20,41 20,42 20,43 20,44 20,45 20,46 20,47 20,48 20,49 20,50 20,51 19,52 19,53 19,54 19,55 19,56 19,57 18,57 18,58 18,59 18,60 18,61 18,62 18,63 18,64 17,64 17,65 17,66 17,67 17,68 17,69 17,70 17,71 17,72 16,73 16,74 16,75 16,76 16,77 16,78 16,79 16,78 17,77" fill="none" stroke="#00f0b5" stroke-width="3" stroke-linecap="round" stroke-linejoin="round" opacity="0.95">
    <title>3620 a:1</title>
  </polyline>
  <polyline points="19,24 19,25 19,26 20,26 20,27 21,28 22,28 23,29 24,29 25,30 26,30 27,30 28,31 29,31 30,31 31,31 32,32 33,32 34,32 35,32 35,33 36,33 37,33 38,33 39,33 40,34 41,34 42,34 43,34 44,34 45,34 47,34 48,34 49,34 50,34 51,34 52,34 53,34 53,33 54,33 55,33 56,33 57,33 58,33 59,32 60,32" fill="none" stroke="#2f7df6" stroke-width="3" stroke-linecap="round" stroke-linejoin="round" opacity="0.95">
    <title>3610 b:1</title>
  </polyline>
  <polyline points="63,31 64,31 64,30 65,30 65,29 66,29 66,28 66,27 66,26 66,25 66,24 66,23 66,22 66,21 65,21 64,21 63,21 63,20 62,20 61,19 60,19 59,19 59,18 58,18 57,18 56,18 55,17 54,17 53,17 52,17 51,17 51,16 50,16 49,16 48,16 47,16 46,16 45,16 44,16 42,16 41,16 40,17 39,17 38,17 38,18 37,19 36,19 36,20 35,21 35,22 35,23 34,23 34,24 34,25 35,25 35,26 35,27 36,28 36,29 37,29 37,30 38,30 38,31 39,31 40,31 40,32 41,32 42,32 43,32 44,32 45,33 46,33 47,33 48,33 49,33 50,33 51,33 52,33 53,33 54,33 55,33 56,33 57,33 58,33 58,32 59,32 60,32 61,32 61,31 62,31 63,31 63,30" fill="none" stroke="#8aff00" stroke-width="3" stroke-linecap="round" stroke-linejoin="round" opacity="0.95">
    <title>3542 c:1</title>
  </polyline>
  <polyline points="35,21 35,22 35,23 35,24 35,26 35,27 35,28 35,29 35,30 35,31 35,32 35,33 35,34 35,35 35,36 35,37 35,38 35,39 35,40 35,41 35,42 35,43 35,45 35,46 35,47 35,48 34,50 34,51 34,52 34,53 34,54 34,55 34,56 34,57 34,58 33,59 33,60 33,61 33,62 33,63 33,64 33,65 33,66 33,67 33,68 33,69 33,70 32,70 32,71 32,73 31,73 31,74 31,75 31,76 31,77 31,78 31,79 31,80 31,79" fill="none" stroke="#00f0b5" stroke-width="3" stroke-linecap="round" stroke-linejoin="round" opacity="0.95">
    <title>3621 a:1</title>
  </polyline>
</svg>
