<?xml version="1.0" encoding="UTF-8"?>
<svg xmlns="http://www.w3.org/2000/svg" width="90" height="52" viewBox="0 0 90 52">
  <title>particle img3-m131-p4 e:1 g:1 e:1</title>
  <metadata>{&quot;entityType&quot;:&quot;particle&quot;,&quot;entityId&quot;:&quot;img3-m131-p4&quot;,&quot;token&quot;:&quot;e:1 g:1 e:1&quot;,&quot;signature&quot;:&quot;e:1 g:1 e:1&quot;,&quot;imageName&quot;:&quot;page-003.jpg&quot;,&quot;imageId&quot;:3,&quot;bounds&quot;:{&quot;x&quot;:704,&quot;y&quot;:2070,&quot;w&quot;:90,&quot;h&quot;:52},&quot;atoms&quot;:[{&quot;id&quot;:3401,&quot;token&quot;:&quot;e:1&quot;,&quot;particle_id&quot;:&quot;img3-m131-p4&quot;,&quot;molecule_id&quot;:&quot;img3-m131&quot;,&quot;atom_order&quot;:1},{&quot;id&quot;:3453,&quot;token&quot;:&quot;g:1&quot;,&quot;particle_id&quot;:&quot;img3-m131-p4&quot;,&quot;molecule_id&quot;:&quot;img3-m131&quot;,&quot;atom_order&quot;:2},{&quot;id&quot;:3402,&quot;token&quot;:&quot;e:1&quot;,&quot;particle_id&quot;:&quot;img3-m131-p4&quot;,&quot;molecule_id&quot;:&quot;img3-m131&quot;,&quot;atom_order&quot;:3}]}</metadata>
  <rect x="0" y="0" width="90" height="52" fill="#f8f0d8"/>
  <image href="file:///C:/Users/HHHES/AppData/Roaming/com.voynichlab.datasetcreator/images/1/35a70f63-88ab-4986-b441-b78046a10087.jpg" x="-704" y="-2070" width="2972" height="3766" opacity="0.92"/>
  <rect x="0.5" y="0.5" width="89" height="51" fill="none" stroke="#111827" stroke-width="1" opacity="0.35"/>
  <polyline points="31,33 31,34 30,34 30,35 29,35 28,35 28,36 27,36 26,36 25,36 24,36 23,36 22,36 21,36 21,35 20,35 19,35 18,35 18,34 17,34 16,34 16,33 16,32 16,31 16,30 16,29 16,28 16,27 17,27 17,26 17,25 17,24 18,24 18,23 18,22 19,22 19,21 19,20 20,20 21,20 21,19 22,19 22,18 23,18 24,18 24,17 25,17 26,17 27,17 27,16" fill="none" stroke="#f2e45c" stroke-width="3" stroke-linecap="round" stroke-linejoin="round" opacity="0.95">
    <title>3401 e:1</title>
  </polyline>
  <polyline points="27,17 28,17 29,17 30,17 31,17 32,17 33,17 34,17 35,17 36,17 37,17 38,17 39,17 41,17 42,17 43,17 45,17 47,17 48,17 49,17 50,17 51,17 52,17 53,17 54,17 55,17 55,18 56,18 57,18 58,18 59,18 60,18 61,18 62,18 63,18 64,18 65,18 66,18 67,18 68,18 67,18 66,18 65,18 64,19 63,19" fill="none" stroke="#7c3cff" stroke-width="3" stroke-linecap="round" stroke-linejoin="round" opacity="0.95">
    <title>3453 g:1</title>
  </polyline>
  <polyline points="74,33 74,34 73,34 73,35 72,35 71,35 71,36 70,36 69,36 68,36 67,36 66,36 65,36 64,36 64,35 63,35 62,35 61,35 61,34 60,34 59,34 59,33 59,32 59,31 59,30 59,29 59,28 59,27 60,27 60,26 60,25 60,24 61,24 61,23 61,22 62,22 62,21 62,20 63,20 64,20 64,19 65,19 65,18 66,18 67,18 67,17 68,17 69,17 70,17 70,16" fill="none" stroke="#f2e45c" stroke-width="3" stroke-linecap="round" stroke-linejoin="round" opacity="0.95">
    <title>3402 e:1</title>
  </polyline>
</svg>
