<?xml version="1.0" encoding="UTF-8"?>
<svg xmlns="http://www.w3.org/2000/svg" width="114" height="128" viewBox="0 0 114 128">
  <title>particle img3-m6-p2 a:1 e:1 b:1 c:1 a:1</title>
  <metadata>{&quot;entityType&quot;:&quot;particle&quot;,&quot;entityId&quot;:&quot;img3-m6-p2&quot;,&quot;token&quot;:&quot;a:1 e:1 b:1 c:1 a:1&quot;,&quot;signature&quot;:&quot;a:1 e:1 b:1 c:1 a:1&quot;,&quot;imageName&quot;:&quot;page-003.jpg&quot;,&quot;imageId&quot;:3,&quot;bounds&quot;:{&quot;x&quot;:1128,&quot;y&quot;:431,&quot;w&quot;:114,&quot;h&quot;:128},&quot;atoms&quot;:[{&quot;id&quot;:1051,&quot;token&quot;:&quot;a:1&quot;,&quot;particle_id&quot;:&quot;img3-m6-p2&quot;,&quot;molecule_id&quot;:&quot;img3-m6&quot;,&quot;atom_order&quot;:1},{&quot;id&quot;:1052,&quot;token&quot;:&quot;e:1&quot;,&quot;particle_id&quot;:&quot;img3-m6-p2&quot;,&quot;molecule_id&quot;:&quot;img3-m6&quot;,&quot;atom_order&quot;:2},{&quot;id&quot;:1053,&quot;token&quot;:&quot;b:1&quot;,&quot;particle_id&quot;:&quot;img3-m6-p2&quot;,&quot;molecule_id&quot;:&quot;img3-m6&quot;,&quot;atom_order&quot;:3},{&quot;id&quot;:1058,&quot;token&quot;:&quot;c:1&quot;,&quot;particle_id&quot;:&quot;img3-m6-p2&quot;,&quot;molecule_id&quot;:&quot;img3-m6&quot;,&quot;atom_order&quot;:4},{&quot;id&quot;:1059,&quot;token&quot;:&quot;a:1&quot;,&quot;particle_id&quot;:&quot;img3-m6-p2&quot;,&quot;molecule_id&quot;:&quot;img3-m6&quot;,&quot;atom_order&quot;:5}]}</metadata>
  <rect x="0" y="0" width="114" height="128" fill="#f8f0d8"/>
  <image href="file:///C:/Users/HHHES/AppData/Roaming/com.voynichlab.datasetcreator/images/1/35a70f63-88ab-4986-b441-b78046a10087.jpg" x="-1128" y="-431" width="2972" height="3766" opacity="0.92"/>
  <rect x="0.5" y="0.5" width="113" height="127" fill="none" stroke="#111827" stroke-width="1" opacity="0.35"/>
  <polyline points="34,112 34,111 35,111 35,110 35,109 35,108 35,107 35,106 35,105 35,104 35,103 35,102 35,101 35,100 35,99 35,98 36,97 36,96 36,95 36,94 36,93 36,92 36,91 36,90 36,89 36,88 36,87 36,86 36,85 37,85 37,84 37,83 37,82 37,81 37,80 37,79 37,78 37,77 37,76 37,75 37,74 37,73 37,72 37,71 37,70 37,69 37,68 37,67 37,66 37,65 37,64 37,63 37,62 37,61 37,60 37,59 37,58 37,57 37,56 37,55 37,54 37,53 37,52 37,51 37,50 37,49 37,48 37,47 37,46 37,45 37,44 37,43 37,42 37,41 37,40 37,39 37,38 37,37 37,36 37,35 37,34 37,33 37,32 37,31 36,30 36,29 36,28 36,27 36,26 36,25 36,24 36,23 35,23 35,22 35,21 35,20 35,19" fill="none" stroke="#00f0b5" stroke-width="3" stroke-linecap="round" stroke-linejoin="round" opacity="0.95">
    <title>1051 a:1</title>
  </polyline>
  <polyline points="35,19 34,19 33,19 32,19 31,19 31,20 30,20 29,20 28,20 27,21 26,21 25,21 25,22 24,22 23,23 22,23 22,24 21,24 21,25 20,25 20,26 20,27 19,27 19,28 18,28 18,29 18,30 18,31 18,32 18,33 18,34 18,35 18,36 19,36 19,37 20,38 20,39 21,39 21,40 22,40 23,40 23,41 24,41 25,41 26,41 27,41 27,42 28,42 29,42 30,42 31,42 32,42 33,42 34,42 34,41" fill="none" stroke="#f2e45c" stroke-width="3" stroke-linecap="round" stroke-linejoin="round" opacity="0.95">
    <title>1052 e:1</title>
  </polyline>
  <polyline points="16,32 16,32 16,33 17,33 18,34 18,35 19,35 19,36 19,37 20,37 20,38 21,38 21,39 22,39 22,40 23,40 24,40 24,41 26,41 26,42 27,42 28,42 28,42 29,42 30,42 30,43 31,43 32,43 32,44 33,44 34,44 34,45 35,45 36,45 37,45 38,45 39,46 40,46 41,46 42,46 43,46 44,46 45,46 46,46 46,47 47,47 48,47 49,47 50,47 51,47 53,47 54,47 55,47 56,46 57,46 58,46 59,46 60,46 61,46 62,46 63,46 64,46 64,45 65,45 66,45 67,45 68,44 69,44 70,44 71,44 71,43 72,43 73,43 74,43 75,43 75,42 76,42 77,42 78,42 80,42 80,42 81,42 82,42 83,41 84,41 85,41 86,40 87,40 88,39 89,39 90,39 90,38 91,38 92,38 92,37 93,37 93,36" fill="none" stroke="#2f7df6" stroke-width="3" stroke-linecap="round" stroke-linejoin="round" opacity="0.95">
    <title>1053 b:1</title>
  </polyline>
  <polyline points="93,36 94,36 94,35 95,35 95,34 96,33 96,32 97,32 97,31 97,30 97,29 98,29 98,28 98,27 98,26 98,25 98,24 98,23 98,22 98,21 97,21 97,20 96,19 95,18 94,18 93,17 92,17 91,17 90,17 89,17 89,16 88,16 87,16 86,16 85,17 84,17 83,17 82,17 81,17 80,18 79,18 78,18 77,18 76,18 75,19 74,19 73,19 73,20 72,20 71,21 71,22 70,22 70,23 69,23 68,24 68,25 67,25 67,26 67,27 66,27 66,28 66,29 66,30 65,31 65,32 65,33 64,33 64,34 64,35 63,35 63,36 63,37 63,38 63,39 63,40 63,41 63,42 64,42 65,42 66,42 66,43 67,43 68,43 69,43 70,43 71,43 72,43 73,43 74,43 75,43 76,43 77,42 78,42 79,42 80,41 81,41 82,41 83,41 83,40 84,40 85,40 85,39 86,39 87,39 88,39 88,38 89,38 90,38 90,37 91,37 92,37 92,36 93,36" fill="none" stroke="#8aff00" stroke-width="3" stroke-linecap="round" stroke-linejoin="round" opacity="0.95">
    <title>1058 c:1</title>
  </polyline>
  <polyline points="63,39 62,39 62,40 62,41 62,42 62,43 62,44 61,44 61,45 61,46 61,47 61,48 61,49 60,49 60,50 60,51 60,52 60,53 60,54 60,55 59,56 59,57 59,58 59,59 59,60 59,61 59,62 59,63 59,64 59,65 58,65 58,66 58,67 58,68 58,69 57,70 57,71 57,72 57,73 57,74 57,75 57,76 57,77 57,78 57,79 57,80 56,80 56,81 56,82 56,83 56,84 56,85 56,86 56,87 56,88 56,89 56,90 56,91 56,92 56,93 56,94 55,94 55,95 55,96 55,97 55,98 55,99 55,100 55,101 55,102 55,103 55,104 55,105 56,105 56,106 56,107 56,108 56,109 55,109 55,110 55,111" fill="none" stroke="#00f0b5" stroke-width="3" stroke-linecap="round" stroke-linejoin="round" opacity="0.95">
    <title>1059 a:1</title>
  </polyline>
</svg>
