<?xml version="1.0" encoding="UTF-8"?>
<svg xmlns="http://www.w3.org/2000/svg" width="60" height="86" viewBox="0 0 60 86">
  <title>particle img3-m5-p2 f:1 i:1 d:1</title>
  <metadata>{&quot;entityType&quot;:&quot;particle&quot;,&quot;entityId&quot;:&quot;img3-m5-p2&quot;,&quot;token&quot;:&quot;f:1 i:1 d:1&quot;,&quot;signature&quot;:&quot;f:1 i:1 d:1&quot;,&quot;imageName&quot;:&quot;page-003.jpg&quot;,&quot;imageId&quot;:3,&quot;bounds&quot;:{&quot;x&quot;:1044,&quot;y&quot;:484,&quot;w&quot;:60,&quot;h&quot;:86},&quot;atoms&quot;:[{&quot;id&quot;:1021,&quot;token&quot;:&quot;f:1&quot;,&quot;particle_id&quot;:&quot;img3-m5-p2&quot;,&quot;molecule_id&quot;:&quot;img3-m5&quot;,&quot;atom_order&quot;:1},{&quot;id&quot;:1022,&quot;token&quot;:&quot;i:1&quot;,&quot;particle_id&quot;:&quot;img3-m5-p2&quot;,&quot;molecule_id&quot;:&quot;img3-m5&quot;,&quot;atom_order&quot;:2},{&quot;id&quot;:1024,&quot;token&quot;:&quot;d:1&quot;,&quot;particle_id&quot;:&quot;img3-m5-p2&quot;,&quot;molecule_id&quot;:&quot;img3-m5&quot;,&quot;atom_order&quot;:3}]}</metadata>
  <rect x="0" y="0" width="60" height="86" fill="#f8f0d8"/>
  <image href="file:///C:/Users/HHHES/AppData/Roaming/com.voynichlab.datasetcreator/images/1/35a70f63-88ab-4986-b441-b78046a10087.jpg" x="-1044" y="-484" width="2972" height="3766" opacity="0.92"/>
  <rect x="0.5" y="0.5" width="59" height="85" fill="none" stroke="#111827" stroke-width="1" opacity="0.35"/>
  <polyline points="25,52 25,53 26,54 26,55 27,55 27,56 27,57 28,57 28,58 29,58 29,59 29,60 30,60 30,61 30,62 31,62 31,63 31,64 31,65 32,65 32,66 32,67 33,67 33,68 33,69 33,70 34,70" fill="none" stroke="#00a2ff" stroke-width="3" stroke-linecap="round" stroke-linejoin="round" opacity="0.95">
    <title>1021 f:1</title>
  </polyline>
  <polyline points="28,56 29,56 29,55 30,55 31,55 31,54 32,54 32,53 33,53 34,53 34,52 35,52 36,51 37,50 37,49 38,49 38,48 39,48 39,47 40,47 40,46 41,46 41,45 41,44 42,44 42,43 42,42 43,41 43,40 43,39 43,38 43,37 43,36 43,35 43,34 44,34 44,33 44,32 44,31 44,30 44,29 44,28 44,27 44,26 43,25 43,24" fill="none" stroke="#00ff7f" stroke-width="3" stroke-linecap="round" stroke-linejoin="round" opacity="0.95">
    <title>1022 i:1</title>
  </polyline>
  <polyline points="43,24 43,23 42,23 42,22 42,21 41,21 41,20 40,20 40,19 39,19 38,19 38,18 37,18 36,18 35,18 35,17 34,17 33,17 32,17 31,17 31,16 30,16 29,16 28,16 27,16 26,16 25,17 24,17 23,17 22,17 22,18 21,18 20,18 20,19 19,19 18,19 18,20 17,20 17,21 16,21 16,22" fill="none" stroke="#ff2d55" stroke-width="3" stroke-linecap="round" stroke-linejoin="round" opacity="0.95">
    <title>1024 d:1</title>
  </polyline>
</svg>
