<?xml version="1.0" encoding="UTF-8"?>
<svg xmlns="http://www.w3.org/2000/svg" width="66" height="83" viewBox="0 0 66 83">
  <title>particle img3-m22-p3 f:1 i:1 d:1</title>
  <metadata>{&quot;entityType&quot;:&quot;particle&quot;,&quot;entityId&quot;:&quot;img3-m22-p3&quot;,&quot;token&quot;:&quot;f:1 i:1 d:1&quot;,&quot;signature&quot;:&quot;f:1 i:1 d:1&quot;,&quot;imageName&quot;:&quot;page-003.jpg&quot;,&quot;imageId&quot;:3,&quot;bounds&quot;:{&quot;x&quot;:2118,&quot;y&quot;:662,&quot;w&quot;:66,&quot;h&quot;:83},&quot;atoms&quot;:[{&quot;id&quot;:1459,&quot;token&quot;:&quot;f:1&quot;,&quot;particle_id&quot;:&quot;img3-m22-p3&quot;,&quot;molecule_id&quot;:&quot;img3-m22&quot;,&quot;atom_order&quot;:1},{&quot;id&quot;:1460,&quot;token&quot;:&quot;i:1&quot;,&quot;particle_id&quot;:&quot;img3-m22-p3&quot;,&quot;molecule_id&quot;:&quot;img3-m22&quot;,&quot;atom_order&quot;:2},{&quot;id&quot;:1461,&quot;token&quot;:&quot;d:1&quot;,&quot;particle_id&quot;:&quot;img3-m22-p3&quot;,&quot;molecule_id&quot;:&quot;img3-m22&quot;,&quot;atom_order&quot;:3}]}</metadata>
  <rect x="0" y="0" width="66" height="83" fill="#f8f0d8"/>
  <image href="file:///C:/Users/HHHES/AppData/Roaming/com.voynichlab.datasetcreator/images/1/35a70f63-88ab-4986-b441-b78046a10087.jpg" x="-2118" y="-662" width="2972" height="3766" opacity="0.92"/>
  <rect x="0.5" y="0.5" width="65" height="82" fill="none" stroke="#111827" stroke-width="1" opacity="0.35"/>
  <polyline points="23,46 23,47 23,48 24,48 24,49 24,50 25,50 25,51 26,52 26,53 27,53 27,54 28,55 28,56 29,56 29,57 30,57 30,58 31,58 31,59 31,60 32,60 32,61 32,62 33,62 33,63 34,63 34,64 35,65 35,66 36,66 36,67" fill="none" stroke="#00a2ff" stroke-width="3" stroke-linecap="round" stroke-linejoin="round" opacity="0.95">
    <title>1459 f:1</title>
  </polyline>
  <polyline points="23,47 24,47 25,47 25,48 26,48 27,48 28,48 29,49 30,49 31,49 31,50 32,50 33,50 34,50 35,50 36,50 37,50 38,50 38,49 39,49 40,49 41,49 41,48 42,48 42,47 43,47 43,46 44,46 45,45 46,44 47,43 48,42 48,41 49,41 49,40 49,39 49,38 49,37 49,36 50,36 50,35 50,34 50,33 50,32 50,31 49,30 49,29 49,28 49,27 49,26 48,26 48,25 48,24 47,24" fill="none" stroke="#00ff7f" stroke-width="3" stroke-linecap="round" stroke-linejoin="round" opacity="0.95">
    <title>1460 i:1</title>
  </polyline>
  <polyline points="16,24 16,23 17,23 17,22 18,22 19,22 20,22 20,21 21,21 21,20 22,20 23,20 24,20 24,19 25,19 26,19 26,18 27,18 28,18 28,17 29,17 30,17 31,17 32,17 32,16 33,16 34,16 35,16 36,16 37,16 37,17 38,17 39,17 40,17 41,17 42,17 42,18 43,18 44,18 44,19 45,19 45,20 46,20 46,21 47,22 47,23 47,24 48,24" fill="none" stroke="#ff2d55" stroke-width="3" stroke-linecap="round" stroke-linejoin="round" opacity="0.95">
    <title>1461 d:1</title>
  </polyline>
</svg>
