<?xml version="1.0" encoding="UTF-8"?>
<svg xmlns="http://www.w3.org/2000/svg" width="126" height="100" viewBox="0 0 126 100">
  <title>particle img3-m36-p5 e:1 h:1</title>
  <metadata>{&quot;entityType&quot;:&quot;particle&quot;,&quot;entityId&quot;:&quot;img3-m36-p5&quot;,&quot;token&quot;:&quot;e:1 h:1&quot;,&quot;signature&quot;:&quot;e:1 h:1&quot;,&quot;imageName&quot;:&quot;page-003.jpg&quot;,&quot;imageId&quot;:3,&quot;bounds&quot;:{&quot;x&quot;:811,&quot;y&quot;:791,&quot;w&quot;:126,&quot;h&quot;:100},&quot;atoms&quot;:[{&quot;id&quot;:1506,&quot;token&quot;:&quot;e:1&quot;,&quot;particle_id&quot;:&quot;img3-m36-p5&quot;,&quot;molecule_id&quot;:&quot;img3-m36&quot;,&quot;atom_order&quot;:1},{&quot;id&quot;:1509,&quot;token&quot;:&quot;h:1&quot;,&quot;particle_id&quot;:&quot;img3-m36-p5&quot;,&quot;molecule_id&quot;:&quot;img3-m36&quot;,&quot;atom_order&quot;:2}]}</metadata>
  <rect x="0" y="0" width="126" height="100" fill="#f8f0d8"/>
  <image href="file:///C:/Users/HHHES/AppData/Roaming/com.voynichlab.datasetcreator/images/1/35a70f63-88ab-4986-b441-b78046a10087.jpg" x="-811" y="-791" width="2972" height="3766" opacity="0.92"/>
  <rect x="0.5" y="0.5" width="125" height="99" fill="none" stroke="#111827" stroke-width="1" opacity="0.35"/>
  <polyline points="100,32 98,33 97,33 97,34 96,34 95,34 95,35 94,35 93,35 92,35 91,35 90,35 89,35 88,35 88,34 87,34 86,34 86,33 85,33 84,33 84,32 84,31 84,30 83,29 83,28 83,27 83,26 83,25 83,24 84,24 84,23 85,22 86,22 86,21 87,21 87,20 88,20 88,19 89,19 90,19 90,18 91,18 92,18 92,17 93,17 94,17 95,16 96,16 97,16 98,16 99,16 100,16 101,16 102,17 103,17 104,17 105,17" fill="none" stroke="#f2e45c" stroke-width="3" stroke-linecap="round" stroke-linejoin="round" opacity="0.95">
    <title>1506 e:1</title>
  </polyline>
  <polyline points="16,84 21,81 22,81 23,81 23,80 24,80 25,80 26,80 26,79 27,79 28,79 30,78 31,78 32,78 33,78 33,77 34,77 35,77 35,76 36,76 37,76 38,76 39,75 40,75 41,75 42,75 43,75 43,74 44,74 45,74 46,74 47,73 48,73 49,73 50,73 51,72 52,72 53,72 54,72 55,71 56,71 57,71 58,70 59,70 60,70 60,69 61,69 62,69 63,69 63,68 64,68 65,68 66,67 67,67 68,66 69,66 70,66 71,66 72,65 73,65 74,65 74,64 75,64 76,64 76,63 77,63 78,63 79,62 80,62 80,61 81,61 82,61 82,60 83,60 84,60 84,59 85,59 86,58 87,58 87,57 88,57 88,56 89,56 90,56 90,55 91,55 92,54 93,54 93,53 94,53 95,53 96,52 97,51 98,51 98,50 99,50 99,49 100,49 101,48 102,48 102,47 103,46 104,46 104,45 105,44 106,44 106,43 107,43 107,42 107,41 108,41 108,40 108,39 109,39 109,38 109,37 110,36 110,35 110,34 110,33 110,32 110,31 110,30 110,29 109,28 109,27 109,26 109,25 108,25 108,24 108,23 108,22 107,22 107,21 107,20 106,19 106,18 105,18 105,17 104,17 103,17 103,16" fill="none" stroke="#ff8c00" stroke-width="3" stroke-linecap="round" stroke-linejoin="round" opacity="0.95">
    <title>1509 h:1</title>
  </polyline>
</svg>
