<?xml version="1.0" encoding="UTF-8"?>
<svg xmlns="http://www.w3.org/2000/svg" width="57" height="70" viewBox="0 0 57 70">
  <title>particle img3-m97-p1 e:1 c:1 h:2</title>
  <metadata>{&quot;entityType&quot;:&quot;particle&quot;,&quot;entityId&quot;:&quot;img3-m97-p1&quot;,&quot;token&quot;:&quot;e:1 c:1 h:2&quot;,&quot;signature&quot;:&quot;e:1 c:1 h:2&quot;,&quot;imageName&quot;:&quot;page-003.jpg&quot;,&quot;imageId&quot;:3,&quot;bounds&quot;:{&quot;x&quot;:1617,&quot;y&quot;:1744,&quot;w&quot;:57,&quot;h&quot;:70},&quot;atoms&quot;:[{&quot;id&quot;:2534,&quot;token&quot;:&quot;e:1&quot;,&quot;particle_id&quot;:&quot;img3-m97-p1&quot;,&quot;molecule_id&quot;:&quot;img3-m97&quot;,&quot;atom_order&quot;:1},{&quot;id&quot;:2527,&quot;token&quot;:&quot;c:1&quot;,&quot;particle_id&quot;:&quot;img3-m97-p1&quot;,&quot;molecule_id&quot;:&quot;img3-m97&quot;,&quot;atom_order&quot;:2},{&quot;id&quot;:2541,&quot;token&quot;:&quot;h:2&quot;,&quot;particle_id&quot;:&quot;img3-m97-p1&quot;,&quot;molecule_id&quot;:&quot;img3-m97&quot;,&quot;atom_order&quot;:3}]}</metadata>
  <rect x="0" y="0" width="57" height="70" fill="#f8f0d8"/>
  <image href="file:///C:/Users/HHHES/AppData/Roaming/com.voynichlab.datasetcreator/images/1/35a70f63-88ab-4986-b441-b78046a10087.jpg" x="-1617" y="-1744" width="2972" height="3766" opacity="0.92"/>
  <rect x="0.5" y="0.5" width="56" height="69" fill="none" stroke="#111827" stroke-width="1" opacity="0.35"/>
  <polyline points="31,51 31,52 30,52 30,53 29,53 28,53 28,54 27,54 26,54 25,54 24,54 23,54 22,54 21,54 21,53 20,53 19,53 18,53 18,52 17,52 16,52 16,51 16,50 16,49 16,48 16,47 16,46 16,45 17,45 17,44 17,43 17,42 18,42 18,41 18,40 19,40 19,39 19,38 20,38 21,38 21,37 22,37 22,36 23,36 24,36 24,35 25,35 26,35 27,35 27,34" fill="none" stroke="#f2e45c" stroke-width="3" stroke-linecap="round" stroke-linejoin="round" opacity="0.95">
    <title>2534 e:1</title>
  </polyline>
  <polyline points="26,34 25,32 25,31 24,31 24,30 24,29 23,29 23,27 23,26 23,25 23,24 24,24 24,23 25,22 34,16 37,16 38,16 38,17 39,17 40,18 40,19 40,20 41,20 41,21 41,22 41,23 41,24 41,25 40,25 40,26 40,27 40,28 39,28 39,29 38,29 38,30 38,31 37,31 37,32 36,32 35,32 34,32 34,33 33,33 32,33 31,33 30,33 29,34 28,34 27,34 26,34 26,33 25,33" fill="none" stroke="#8aff00" stroke-width="3" stroke-linecap="round" stroke-linejoin="round" opacity="0.95">
    <title>2527 c:1</title>
  </polyline>
  <polyline points="26,53 27,53 28,53 29,53 29,52 30,52 30,51 31,51 31,50 32,50 32,49 33,49 33,48 33,47 34,47 34,46 34,45 34,44 34,43 34,42 34,41 34,40 33,40 33,39 32,39 32,38 31,38 31,37 30,37 30,36 29,36 29,35 28,35 28,34 27,34 27,33 26,33 26,32 25,32 25,31 24,31 24,30 23,30 23,29 22,29 22,28 22,27 22,26 22,25 22,24 22,23 22,22 23,22 24,21 25,21 25,20 26,20 27,20 27,19 28,19" fill="none" stroke="#ff8c00" stroke-width="3" stroke-linecap="round" stroke-linejoin="round" opacity="0.95">
    <title>2541 h:2</title>
  </polyline>
</svg>
