<?xml version="1.0" encoding="UTF-8"?>
<svg xmlns="http://www.w3.org/2000/svg" width="62" height="69" viewBox="0 0 62 69">
  <title>particle img3-m178-p3 e:1 c:1 h:2</title>
  <metadata>{&quot;entityType&quot;:&quot;particle&quot;,&quot;entityId&quot;:&quot;img3-m178-p3&quot;,&quot;token&quot;:&quot;e:1 c:1 h:2&quot;,&quot;signature&quot;:&quot;e:1 c:1 h:2&quot;,&quot;imageName&quot;:&quot;page-003.jpg&quot;,&quot;imageId&quot;:3,&quot;bounds&quot;:{&quot;x&quot;:2051,&quot;y&quot;:2798,&quot;w&quot;:62,&quot;h&quot;:69},&quot;atoms&quot;:[{&quot;id&quot;:4024,&quot;token&quot;:&quot;e:1&quot;,&quot;particle_id&quot;:&quot;img3-m178-p3&quot;,&quot;molecule_id&quot;:&quot;img3-m178&quot;,&quot;atom_order&quot;:1},{&quot;id&quot;:4049,&quot;token&quot;:&quot;c:1&quot;,&quot;particle_id&quot;:&quot;img3-m178-p3&quot;,&quot;molecule_id&quot;:&quot;img3-m178&quot;,&quot;atom_order&quot;:2},{&quot;id&quot;:4070,&quot;token&quot;:&quot;h:2&quot;,&quot;particle_id&quot;:&quot;img3-m178-p3&quot;,&quot;molecule_id&quot;:&quot;img3-m178&quot;,&quot;atom_order&quot;:3}]}</metadata>
  <rect x="0" y="0" width="62" height="69" fill="#f8f0d8"/>
  <image href="file:///C:/Users/HHHES/AppData/Roaming/com.voynichlab.datasetcreator/images/1/35a70f63-88ab-4986-b441-b78046a10087.jpg" x="-2051" y="-2798" width="2972" height="3766" opacity="0.92"/>
  <rect x="0.5" y="0.5" width="61" height="68" fill="none" stroke="#111827" stroke-width="1" opacity="0.35"/>
  <polyline points="31,50 31,51 30,51 30,52 29,52 28,52 28,53 27,53 26,53 25,53 24,53 23,53 22,53 21,53 21,52 20,52 19,52 18,52 18,51 17,51 16,51 16,50 16,49 16,48 16,47 16,46 16,45 16,44 17,44 17,43 17,42 17,41 18,41 18,40 18,39 19,39 19,38 19,37 20,37 21,37 21,36 22,36 22,35 23,35 24,35 24,34 25,34 26,34 27,34 27,33" fill="none" stroke="#f2e45c" stroke-width="3" stroke-linecap="round" stroke-linejoin="round" opacity="0.95">
    <title>4024 e:1</title>
  </polyline>
  <polyline points="43,26 43,27 42,28 42,29 41,30 40,31 39,31 38,32 37,32 36,31 35,31 34,31 33,31 33,30 32,30 31,30 31,29 30,29 30,28 29,28 29,27 29,26 28,25 28,24 28,23 28,22 28,21 28,20 29,20 29,19 30,19 30,18 31,17 32,17 33,16 34,16 35,16 36,16 37,16 38,16 39,16 40,16 41,16 42,16 42,17 43,17 44,18 45,19 45,20 46,20 46,21 45,22 45,23 45,24 45,25 44,26 44,27 43,27 43,28 42,28 42,29 41,29" fill="none" stroke="#8aff00" stroke-width="3" stroke-linecap="round" stroke-linejoin="round" opacity="0.95">
    <title>4049 c:1</title>
  </polyline>
  <polyline points="29,52 30,52 30,51 31,51 32,51 33,51 34,51 35,50 36,49 36,48 36,47 36,46 36,45 36,44 36,43 35,43 35,42 34,42 34,41 33,41 33,40 32,40 32,39 31,38 30,37 30,36 29,36 29,35 28,34 27,33 26,32 26,31 25,30 25,29 24,28 24,27 24,26 24,25 24,24 25,23 26,22 26,21 26,20 27,20 27,19 28,19 28,18 29,18 29,17 30,17 30,16 31,16 32,16 33,16 34,16 35,16 34,16 32,16 31,17" fill="none" stroke="#ff8c00" stroke-width="3" stroke-linecap="round" stroke-linejoin="round" opacity="0.95">
    <title>4070 h:2</title>
  </polyline>
</svg>
