<?xml version="1.0" encoding="UTF-8"?>
<svg xmlns="http://www.w3.org/2000/svg" width="72" height="75" viewBox="0 0 72 75">
  <title>particle img3-m40-p4 f:1 i:1 d:1</title>
  <metadata>{&quot;entityType&quot;:&quot;particle&quot;,&quot;entityId&quot;:&quot;img3-m40-p4&quot;,&quot;token&quot;:&quot;f:1 i:1 d:1&quot;,&quot;signature&quot;:&quot;f:1 i:1 d:1&quot;,&quot;imageName&quot;:&quot;page-003.jpg&quot;,&quot;imageId&quot;:3,&quot;bounds&quot;:{&quot;x&quot;:2148,&quot;y&quot;:835,&quot;w&quot;:72,&quot;h&quot;:75},&quot;atoms&quot;:[{&quot;id&quot;:1744,&quot;token&quot;:&quot;f:1&quot;,&quot;particle_id&quot;:&quot;img3-m40-p4&quot;,&quot;molecule_id&quot;:&quot;img3-m40&quot;,&quot;atom_order&quot;:1},{&quot;id&quot;:1747,&quot;token&quot;:&quot;i:1&quot;,&quot;particle_id&quot;:&quot;img3-m40-p4&quot;,&quot;molecule_id&quot;:&quot;img3-m40&quot;,&quot;atom_order&quot;:2},{&quot;id&quot;:1748,&quot;token&quot;:&quot;d:1&quot;,&quot;particle_id&quot;:&quot;img3-m40-p4&quot;,&quot;molecule_id&quot;:&quot;img3-m40&quot;,&quot;atom_order&quot;:3}]}</metadata>
  <rect x="0" y="0" width="72" height="75" fill="#f8f0d8"/>
  <image href="file:///C:/Users/HHHES/AppData/Roaming/com.voynichlab.datasetcreator/images/1/35a70f63-88ab-4986-b441-b78046a10087.jpg" x="-2148" y="-835" width="2972" height="3766" opacity="0.92"/>
  <rect x="0.5" y="0.5" width="71" height="74" fill="none" stroke="#111827" stroke-width="1" opacity="0.35"/>
  <polyline points="30,38 30,39 30,40 31,40 31,41 31,42 32,42 32,43 33,44 33,45 34,45 34,46 35,47 35,48 36,48 36,49 37,49 37,50 38,50 38,51 38,52 39,52 39,53 39,54 40,54 40,55 41,55 41,56 42,57 42,58 43,58 43,59" fill="none" stroke="#00a2ff" stroke-width="3" stroke-linecap="round" stroke-linejoin="round" opacity="0.95">
    <title>1744 f:1</title>
  </polyline>
  <polyline points="33,43 34,43 35,43 36,43 36,42 37,42 38,42 38,41 39,41 40,41 40,40 41,40 42,39 43,39 43,38 44,38 44,37 45,37 46,36 47,36 48,35 49,35 49,34 50,34 51,33 52,32 53,32 54,31 54,30 55,30 55,29 56,29 56,28 56,27 56,26 56,25 56,24 56,23 56,22 56,21 55,21 54,21 54,20 53,20 52,20" fill="none" stroke="#00ff7f" stroke-width="3" stroke-linecap="round" stroke-linejoin="round" opacity="0.95">
    <title>1747 i:1</title>
  </polyline>
  <polyline points="16,19 17,19 17,18 18,18 19,18 20,18 21,18 22,18 22,17 23,17 24,17 25,17 26,17 27,17 28,17 28,16 29,16 30,16 31,16 32,16 33,16 34,16 35,16 36,16 37,16 38,16 39,16 40,16 41,16 42,16 43,16 44,17 45,17 46,17 47,17 48,17 48,18 49,18 50,18 51,19 52,19 52,20 53,20" fill="none" stroke="#ff2d55" stroke-width="3" stroke-linecap="round" stroke-linejoin="round" opacity="0.95">
    <title>1748 d:1</title>
  </polyline>
</svg>
