<?xml version="1.0" encoding="UTF-8"?>
<svg xmlns="http://www.w3.org/2000/svg" width="82" height="109" viewBox="0 0 82 109">
  <title>particle img3-m12-p1 a:1 b:1 c:1 a:1</title>
  <metadata>{&quot;entityType&quot;:&quot;particle&quot;,&quot;entityId&quot;:&quot;img3-m12-p1&quot;,&quot;token&quot;:&quot;a:1 b:1 c:1 a:1&quot;,&quot;signature&quot;:&quot;a:1 b:1 c:1 a:1&quot;,&quot;imageName&quot;:&quot;page-003.jpg&quot;,&quot;imageId&quot;:3,&quot;bounds&quot;:{&quot;x&quot;:1113,&quot;y&quot;:552,&quot;w&quot;:82,&quot;h&quot;:109},&quot;atoms&quot;:[{&quot;id&quot;:1168,&quot;token&quot;:&quot;a:1&quot;,&quot;particle_id&quot;:&quot;img3-m12-p1&quot;,&quot;molecule_id&quot;:&quot;img3-m12&quot;,&quot;atom_order&quot;:1},{&quot;id&quot;:1169,&quot;token&quot;:&quot;b:1&quot;,&quot;particle_id&quot;:&quot;img3-m12-p1&quot;,&quot;molecule_id&quot;:&quot;img3-m12&quot;,&quot;atom_order&quot;:2},{&quot;id&quot;:1170,&quot;token&quot;:&quot;c:1&quot;,&quot;particle_id&quot;:&quot;img3-m12-p1&quot;,&quot;molecule_id&quot;:&quot;img3-m12&quot;,&quot;atom_order&quot;:3},{&quot;id&quot;:1171,&quot;token&quot;:&quot;a:1&quot;,&quot;particle_id&quot;:&quot;img3-m12-p1&quot;,&quot;molecule_id&quot;:&quot;img3-m12&quot;,&quot;atom_order&quot;:4}]}</metadata>
  <rect x="0" y="0" width="82" height="109" fill="#f8f0d8"/>
  <image href="file:///C:/Users/HHHES/AppData/Roaming/com.voynichlab.datasetcreator/images/1/35a70f63-88ab-4986-b441-b78046a10087.jpg" x="-1113" y="-552" width="2972" height="3766" opacity="0.92"/>
  <rect x="0.5" y="0.5" width="81" height="108" fill="none" stroke="#111827" stroke-width="1" opacity="0.35"/>
  <polyline points="16,93 16,92 16,91 17,91 17,90 17,89 17,88 18,87 18,86 18,85 18,84 18,83 19,83 19,82 19,81 19,80 19,79 19,78 19,77 20,77 20,76 20,75 20,74 20,73 20,72 20,71 20,70 20,69 20,68 20,67 20,66 20,65 21,65 21,64 21,63 21,62 21,61 21,60 21,59 21,58 21,57 21,56 21,55 22,55 22,54 22,53 22,52 22,51 22,50 22,49 22,48 22,47 22,46 22,45 22,44 23,43 23,42 23,41 23,40 23,39 23,38 23,37 23,36 23,35 23,34 23,33 23,32 23,31 23,30 23,29 23,28 23,27 23,26 23,25 23,24 23,23 23,22 23,21 23,20" fill="none" stroke="#00f0b5" stroke-width="3" stroke-linecap="round" stroke-linejoin="round" opacity="0.95">
    <title>1168 a:1</title>
  </polyline>
  <polyline points="23,27 23,28 23,29 23,30 23,31 23,32 24,32 24,33 24,34 25,35 25,36 25,37 26,37 26,38 26,39 27,39 27,40 28,40 28,41 29,41 29,42 30,42 31,42 32,42 33,42 33,43 34,43 35,43 36,43 37,43 38,43 39,43 40,43 41,43 42,43 43,43 44,43 44,42 45,42 46,42 47,42 48,42 49,42 49,41 50,41 51,41 51,40 52,40 53,40 53,39 54,39 55,39 55,38 56,38 57,37 58,36" fill="none" stroke="#2f7df6" stroke-width="3" stroke-linecap="round" stroke-linejoin="round" opacity="0.95">
    <title>1169 b:1</title>
  </polyline>
  <polyline points="58,36 59,36 59,35 60,35 61,34 62,34 62,33 62,32 63,32 63,31 64,31 64,30 65,29 65,28 65,27 66,27 66,26 66,25 66,24 66,23 66,22 66,21 66,20 65,19 65,18 64,18 64,17 63,17 62,17 61,17 60,17 59,16 58,16 57,17 56,17 55,17 54,17 54,18 53,18 52,18 52,19 51,19 50,19 49,20 48,20 47,20 47,21 46,21 45,21 45,22 44,22 44,23 43,23 42,23 42,24 41,24 41,25 40,25 40,26 40,27 40,28 40,29 39,29 39,30 39,31 39,32 39,33 39,34 39,35 39,36 40,36 40,37 41,38 42,38 42,39 43,39 43,40 44,40 45,40 46,40 47,40 48,40 49,40 50,39 51,39 52,39 52,38 53,38 54,38 55,38 55,37 56,37 57,37 57,36" fill="none" stroke="#8aff00" stroke-width="3" stroke-linecap="round" stroke-linejoin="round" opacity="0.95">
    <title>1170 c:1</title>
  </polyline>
  <polyline points="39,33 39,34 39,35 39,36 39,37 39,38 39,39 38,39 38,40 38,41 38,42 38,43 38,44 38,45 38,46 38,47 38,48 38,49 38,50 38,51 37,51 37,52 37,53 37,54 37,55 37,56 37,57 37,58 36,58 36,59 36,60 36,61 36,62 35,62 35,63 35,64 35,65 35,66 35,67 35,68 35,69 35,70 35,71 34,71 34,72 34,73 34,74 34,75 34,76 34,77 34,78 33,79 33,80 33,81 33,82 33,83 33,84 33,85 33,86 32,86 32,87" fill="none" stroke="#00f0b5" stroke-width="3" stroke-linecap="round" stroke-linejoin="round" opacity="0.95">
    <title>1171 a:1</title>
  </polyline>
</svg>
