<?xml version="1.0" encoding="UTF-8"?>
<svg xmlns="http://www.w3.org/2000/svg" width="97" height="91" viewBox="0 0 97 91">
  <title>particle img3-m50-p3 e:1 i:1 d:1</title>
  <metadata>{&quot;entityType&quot;:&quot;particle&quot;,&quot;entityId&quot;:&quot;img3-m50-p3&quot;,&quot;token&quot;:&quot;e:1 i:1 d:1&quot;,&quot;signature&quot;:&quot;e:1 i:1 d:1&quot;,&quot;imageName&quot;:&quot;page-003.jpg&quot;,&quot;imageId&quot;:3,&quot;bounds&quot;:{&quot;x&quot;:2286,&quot;y&quot;:1114,&quot;w&quot;:97,&quot;h&quot;:91},&quot;atoms&quot;:[{&quot;id&quot;:1944,&quot;token&quot;:&quot;e:1&quot;,&quot;particle_id&quot;:&quot;img3-m50-p3&quot;,&quot;molecule_id&quot;:&quot;img3-m50&quot;,&quot;atom_order&quot;:1},{&quot;id&quot;:2000,&quot;token&quot;:&quot;i:1&quot;,&quot;particle_id&quot;:&quot;img3-m50-p3&quot;,&quot;molecule_id&quot;:&quot;img3-m50&quot;,&quot;atom_order&quot;:2},{&quot;id&quot;:2095,&quot;token&quot;:&quot;d:1&quot;,&quot;particle_id&quot;:&quot;img3-m50-p3&quot;,&quot;molecule_id&quot;:&quot;img3-m50&quot;,&quot;atom_order&quot;:3}]}</metadata>
  <rect x="0" y="0" width="97" height="91" fill="#f8f0d8"/>
  <image href="file:///C:/Users/HHHES/AppData/Roaming/com.voynichlab.datasetcreator/images/1/35a70f63-88ab-4986-b441-b78046a10087.jpg" x="-2286" y="-1114" width="2972" height="3766" opacity="0.92"/>
  <rect x="0.5" y="0.5" width="96" height="90" fill="none" stroke="#111827" stroke-width="1" opacity="0.35"/>
  <polyline points="67,75 66,75 65,75 64,75 63,75 62,75 61,75 60,75 59,75 58,75 57,75 56,75 55,75 55,74 54,74 53,74 53,73 53,72 52,72 52,71 52,70 51,70 51,69 51,68 51,67 51,66 52,66 52,65 53,64 53,63 54,63 55,63 55,62 56,62 57,62 57,61 58,61 59,61 60,60 61,60 62,60 63,60 64,60 65,61 66,61" fill="none" stroke="#f2e45c" stroke-width="3" stroke-linecap="round" stroke-linejoin="round" opacity="0.95">
    <title>1944 e:1</title>
  </polyline>
  <polyline points="65,61 66,61 67,61 67,60 68,60 68,59 69,59 69,58 70,58 70,57 71,57 71,56 72,56 72,55 73,54 73,53 74,53 74,52 75,52 75,51 76,51 76,50 77,49 77,48 78,48 78,47 78,46 79,46 79,45 80,44 80,43 80,42 81,42 81,41 81,40 81,39 81,38 81,37 81,36 81,35 80,34 80,33 80,32 80,31 79,31 79,30 79,29 78,29 78,28 78,27 77,27 77,26 76,26 76,25 75,25 75,24 74,24 74,23 73,23 73,22 72,22" fill="none" stroke="#00ff7f" stroke-width="3" stroke-linecap="round" stroke-linejoin="round" opacity="0.95">
    <title>2000 i:1</title>
  </polyline>
  <polyline points="16,18 16,17 17,17 18,17 19,17 19,16 20,16 21,16 22,16 23,16 24,16 25,16 26,16 27,16 28,16 29,16 30,16 31,16 32,16 33,16 34,16 35,16 36,16 37,16 38,16 39,16 40,16 41,16 42,16 43,16 44,16 45,16 46,16 47,16 48,16 49,16 50,16 50,17 51,17 52,17 53,17 54,17 55,17 56,17 57,17 57,18 58,18 59,18 60,18 61,18 61,19 62,19 63,19 64,19 64,20 65,20 66,20 67,20 68,20 68,21 69,21 70,21 71,22 72,22" fill="none" stroke="#ff2d55" stroke-width="3" stroke-linecap="round" stroke-linejoin="round" opacity="0.95">
    <title>2095 d:1</title>
  </polyline>
</svg>
