<?xml version="1.0" encoding="UTF-8"?>
<svg xmlns="http://www.w3.org/2000/svg" width="84" height="114" viewBox="0 0 84 114">
  <title>particle img3-m179-p2 a:1 b:1 c:1 a:1</title>
  <metadata>{&quot;entityType&quot;:&quot;particle&quot;,&quot;entityId&quot;:&quot;img3-m179-p2&quot;,&quot;token&quot;:&quot;a:1 b:1 c:1 a:1&quot;,&quot;signature&quot;:&quot;a:1 b:1 c:1 a:1&quot;,&quot;imageName&quot;:&quot;page-003.jpg&quot;,&quot;imageId&quot;:3,&quot;bounds&quot;:{&quot;x&quot;:952,&quot;y&quot;:2714,&quot;w&quot;:84,&quot;h&quot;:114},&quot;atoms&quot;:[{&quot;id&quot;:4053,&quot;token&quot;:&quot;a:1&quot;,&quot;particle_id&quot;:&quot;img3-m179-p2&quot;,&quot;molecule_id&quot;:&quot;img3-m179&quot;,&quot;atom_order&quot;:1},{&quot;id&quot;:4064,&quot;token&quot;:&quot;b:1&quot;,&quot;particle_id&quot;:&quot;img3-m179-p2&quot;,&quot;molecule_id&quot;:&quot;img3-m179&quot;,&quot;atom_order&quot;:2},{&quot;id&quot;:4037,&quot;token&quot;:&quot;c:1&quot;,&quot;particle_id&quot;:&quot;img3-m179-p2&quot;,&quot;molecule_id&quot;:&quot;img3-m179&quot;,&quot;atom_order&quot;:3},{&quot;id&quot;:4054,&quot;token&quot;:&quot;a:1&quot;,&quot;particle_id&quot;:&quot;img3-m179-p2&quot;,&quot;molecule_id&quot;:&quot;img3-m179&quot;,&quot;atom_order&quot;:4}]}</metadata>
  <rect x="0" y="0" width="84" height="114" fill="#f8f0d8"/>
  <image href="file:///C:/Users/HHHES/AppData/Roaming/com.voynichlab.datasetcreator/images/1/35a70f63-88ab-4986-b441-b78046a10087.jpg" x="-952" y="-2714" width="2972" height="3766" opacity="0.92"/>
  <rect x="0.5" y="0.5" width="83" height="113" fill="none" stroke="#111827" stroke-width="1" opacity="0.35"/>
  <polyline points="16,98 16,97 17,96 17,95 17,94 17,93 17,92 18,91 18,90 18,89 18,88 18,87 18,86 17,86 17,85 17,84 17,83 17,82 17,81 17,80 17,79 17,78 17,77 17,76 17,75 17,74 17,73 17,72 17,71 17,70 17,69 17,68 17,67 17,66 17,65 18,64 18,63 18,62 18,61 18,60 18,59 19,58 19,57 19,56 19,55 19,54 19,53 19,52 19,51 19,50 19,49 19,48 19,47 20,46 20,45 20,44 20,43 20,42 20,41 20,40 20,39 20,38 20,37 20,36 20,35 20,34 20,33 20,32 20,31 20,30 20,29 20,28 20,27 20,26 20,25 20,24 20,23 20,22 20,21" fill="none" stroke="#00f0b5" stroke-width="3" stroke-linecap="round" stroke-linejoin="round" opacity="0.95">
    <title>4053 a:1</title>
  </polyline>
  <polyline points="20,24 20,25 20,26 20,27 20,28 20,29 21,29 21,30 22,31 22,32 22,33 23,33 24,34 25,35 26,36 27,36 28,37 29,37 30,37 31,38 32,38 33,38 34,39 35,39 36,39 37,39 38,40 39,40 41,40 42,40 43,40 44,40 45,40 46,40 47,40 48,40 49,40 50,40 51,40 52,40 52,39" fill="none" stroke="#2f7df6" stroke-width="3" stroke-linecap="round" stroke-linejoin="round" opacity="0.95">
    <title>4064 b:1</title>
  </polyline>
  <polyline points="43,26 42,25 42,24 42,23 43,23 43,22 44,21 45,20 46,19 47,19 47,18 48,18 49,18 49,17 50,17 51,17 52,17 52,16 53,16 54,16 55,16 56,16 57,16 58,16 60,16 61,16 62,17 63,17 64,17 65,17 65,18 66,18 66,19 67,19 67,20 67,21 68,21 68,22 68,23 68,24 68,25 68,26 68,27 67,27 67,28 67,29 66,30 65,31 65,32 64,32 64,33 63,34 62,34 62,35 61,35 61,36 60,36 60,37 59,37 58,37 58,38 57,38 56,38 55,38 55,39 54,39 53,39 52,39 51,39 50,39 49,39 48,39 47,39 47,38 46,38 45,37 45,36 44,36 44,35 43,35 43,34 43,33 42,32 42,31 42,30 42,29 42,28 42,27 42,26 42,25 42,24 43,24 43,23 43,22 44,22 44,21" fill="none" stroke="#8aff00" stroke-width="3" stroke-linecap="round" stroke-linejoin="round" opacity="0.95">
    <title>4037 c:1</title>
  </polyline>
  <polyline points="38,97 38,96 39,95 39,94 39,93 39,92 39,91 40,90 40,89 40,88 40,87 40,86 40,85 39,85 39,84 39,83 39,82 39,81 39,80 39,79 39,78 39,77 39,76 39,75 39,74 39,73 39,72 39,71 39,70 39,69 39,68 39,67 39,66 39,65 39,64 40,63 40,62 40,61 40,60 40,59 40,58 41,57 41,56 41,55 41,54 41,53 41,52 41,51 41,50 41,49 41,48 41,47 41,46 42,45 42,44 42,43 42,42 42,41 42,40 42,39 42,38 42,37 42,36 42,35 42,34 42,33 42,32 42,31 42,30 42,29 42,28 42,27 42,26 42,25 42,24 42,23 42,22 42,21 42,20" fill="none" stroke="#00f0b5" stroke-width="3" stroke-linecap="round" stroke-linejoin="round" opacity="0.95">
    <title>4054 a:1</title>
  </polyline>
</svg>
