<?xml version="1.0" encoding="UTF-8"?>
<svg xmlns="http://www.w3.org/2000/svg" width="92" height="56" viewBox="0 0 92 56">
  <title>particle img3-m148-p3 e:1 g:1 e:1</title>
  <metadata>{&quot;entityType&quot;:&quot;particle&quot;,&quot;entityId&quot;:&quot;img3-m148-p3&quot;,&quot;token&quot;:&quot;e:1 g:1 e:1&quot;,&quot;signature&quot;:&quot;e:1 g:1 e:1&quot;,&quot;imageName&quot;:&quot;page-003.jpg&quot;,&quot;imageId&quot;:3,&quot;bounds&quot;:{&quot;x&quot;:1375,&quot;y&quot;:2512,&quot;w&quot;:92,&quot;h&quot;:56},&quot;atoms&quot;:[{&quot;id&quot;:3725,&quot;token&quot;:&quot;e:1&quot;,&quot;particle_id&quot;:&quot;img3-m148-p3&quot;,&quot;molecule_id&quot;:&quot;img3-m148&quot;,&quot;atom_order&quot;:1},{&quot;id&quot;:3754,&quot;token&quot;:&quot;g:1&quot;,&quot;particle_id&quot;:&quot;img3-m148-p3&quot;,&quot;molecule_id&quot;:&quot;img3-m148&quot;,&quot;atom_order&quot;:2},{&quot;id&quot;:3726,&quot;token&quot;:&quot;e:1&quot;,&quot;particle_id&quot;:&quot;img3-m148-p3&quot;,&quot;molecule_id&quot;:&quot;img3-m148&quot;,&quot;atom_order&quot;:3}]}</metadata>
  <rect x="0" y="0" width="92" height="56" fill="#f8f0d8"/>
  <image href="file:///C:/Users/HHHES/AppData/Roaming/com.voynichlab.datasetcreator/images/1/35a70f63-88ab-4986-b441-b78046a10087.jpg" x="-1375" y="-2512" width="2972" height="3766" opacity="0.92"/>
  <rect x="0.5" y="0.5" width="91" height="55" fill="none" stroke="#111827" stroke-width="1" opacity="0.35"/>
  <polyline points="31,33 31,34 30,34 30,35 29,35 28,35 28,36 27,36 26,36 25,36 24,36 23,36 22,36 21,36 21,35 20,35 19,35 18,35 18,34 17,34 16,34 16,33 16,32 16,31 16,30 16,29 16,28 16,27 17,27 17,26 17,25 17,24 18,24 18,23 18,22 19,22 19,21 19,20 20,20 21,20 21,19 22,19 22,18 23,18 24,18 24,17 25,17 26,17 27,17 27,16" fill="none" stroke="#f2e45c" stroke-width="3" stroke-linecap="round" stroke-linejoin="round" opacity="0.95">
    <title>3725 e:1</title>
  </polyline>
  <polyline points="26,17 27,17 28,17 29,17 30,17 31,17 33,18 34,18 35,18 36,18 37,18 37,19 38,19 39,19 40,19 41,19 42,19 43,19 44,19 45,19 46,19 47,19 48,19 49,19 50,19 51,20 52,20 53,20 54,20 55,20 56,20 57,20 58,20 59,20 60,20 61,20 62,20 63,20 64,20 65,20 66,20 66,21 67,21 68,21 69,21 70,21 71,21 72,21" fill="none" stroke="#7c3cff" stroke-width="3" stroke-linecap="round" stroke-linejoin="round" opacity="0.95">
    <title>3754 g:1</title>
  </polyline>
  <polyline points="76,37 76,38 75,38 75,39 74,39 73,39 73,40 72,40 71,40 70,40 69,40 68,40 67,40 66,40 66,39 65,39 64,39 63,39 63,38 62,38 61,38 61,37 61,36 61,35 61,34 61,33 61,32 61,31 62,31 62,30 62,29 62,28 63,28 63,27 63,26 64,26 64,25 64,24 65,24 66,24 66,23 67,23 67,22 68,22 69,22 69,21 70,21 71,21 72,21 72,20" fill="none" stroke="#f2e45c" stroke-width="3" stroke-linecap="round" stroke-linejoin="round" opacity="0.95">
    <title>3726 e:1</title>
  </polyline>
</svg>
