<?xml version="1.0" encoding="UTF-8"?>
<svg xmlns="http://www.w3.org/2000/svg" width="66" height="54" viewBox="0 0 66 54">
  <title>particle img3-m1-p5 e:1 g:1 e:1</title>
  <metadata>{&quot;entityType&quot;:&quot;particle&quot;,&quot;entityId&quot;:&quot;img3-m1-p5&quot;,&quot;token&quot;:&quot;e:1 g:1 e:1&quot;,&quot;signature&quot;:&quot;e:1 g:1 e:1&quot;,&quot;imageName&quot;:&quot;page-003.jpg&quot;,&quot;imageId&quot;:3,&quot;bounds&quot;:{&quot;x&quot;:666,&quot;y&quot;:531,&quot;w&quot;:66,&quot;h&quot;:54},&quot;atoms&quot;:[{&quot;id&quot;:993,&quot;token&quot;:&quot;e:1&quot;,&quot;particle_id&quot;:&quot;img3-m1-p5&quot;,&quot;molecule_id&quot;:&quot;img3-m1&quot;,&quot;atom_order&quot;:1},{&quot;id&quot;:995,&quot;token&quot;:&quot;g:1&quot;,&quot;particle_id&quot;:&quot;img3-m1-p5&quot;,&quot;molecule_id&quot;:&quot;img3-m1&quot;,&quot;atom_order&quot;:2},{&quot;id&quot;:994,&quot;token&quot;:&quot;e:1&quot;,&quot;particle_id&quot;:&quot;img3-m1-p5&quot;,&quot;molecule_id&quot;:&quot;img3-m1&quot;,&quot;atom_order&quot;:3}]}</metadata>
  <rect x="0" y="0" width="66" height="54" fill="#f8f0d8"/>
  <image href="file:///C:/Users/HHHES/AppData/Roaming/com.voynichlab.datasetcreator/images/1/35a70f63-88ab-4986-b441-b78046a10087.jpg" x="-666" y="-531" width="2972" height="3766" opacity="0.92"/>
  <rect x="0.5" y="0.5" width="65" height="53" fill="none" stroke="#111827" stroke-width="1" opacity="0.35"/>
  <polyline points="31,35 31,36 30,36 30,37 29,37 28,37 28,38 27,38 26,38 25,38 24,38 23,38 22,38 21,38 21,37 20,37 19,37 18,37 18,36 17,36 16,36 16,35 16,34 16,33 16,32 16,31 16,30 16,29 17,29 17,28 17,27 17,26 18,26 18,25 18,24 19,24 19,23 19,22 20,22 21,22 21,21 22,21 22,20 23,20 24,20 24,19 25,19 26,19 27,19 27,18" fill="none" stroke="#f2e45c" stroke-width="3" stroke-linecap="round" stroke-linejoin="round" opacity="0.95">
    <title>993 e:1</title>
  </polyline>
  <polyline points="27,18 28,18 29,18 30,18 30,17 31,17 32,17 33,17 34,17 35,17 36,17 37,17 38,17 39,17 40,17 41,17 42,17 42,16 43,16 44,16 45,16 46,16 47,16 48,16 49,16" fill="none" stroke="#7c3cff" stroke-width="3" stroke-linecap="round" stroke-linejoin="round" opacity="0.95">
    <title>995 g:1</title>
  </polyline>
  <polyline points="50,30 49,30 49,31 48,31 48,32 47,32 47,33 46,33 45,33 44,33 43,33 42,33 42,32 41,32 41,31 40,31 40,30 40,29 40,28 40,27 40,26 40,25 40,24 41,23 41,22 42,22 42,21 42,20 43,20 43,19 44,19 45,18 46,18 46,17 47,17 47,16 48,16 49,16 50,16" fill="none" stroke="#f2e45c" stroke-width="3" stroke-linecap="round" stroke-linejoin="round" opacity="0.95">
    <title>994 e:1</title>
  </polyline>
</svg>
