<?xml version="1.0" encoding="UTF-8"?>
<svg xmlns="http://www.w3.org/2000/svg" width="59" height="73" viewBox="0 0 59 73">
  <title>particle img3-m135-p1 e:1 c:1 h:2</title>
  <metadata>{&quot;entityType&quot;:&quot;particle&quot;,&quot;entityId&quot;:&quot;img3-m135-p1&quot;,&quot;token&quot;:&quot;e:1 c:1 h:2&quot;,&quot;signature&quot;:&quot;e:1 c:1 h:2&quot;,&quot;imageName&quot;:&quot;page-003.jpg&quot;,&quot;imageId&quot;:3,&quot;bounds&quot;:{&quot;x&quot;:551,&quot;y&quot;:2141,&quot;w&quot;:59,&quot;h&quot;:73},&quot;atoms&quot;:[{&quot;id&quot;:3492,&quot;token&quot;:&quot;e:1&quot;,&quot;particle_id&quot;:&quot;img3-m135-p1&quot;,&quot;molecule_id&quot;:&quot;img3-m135&quot;,&quot;atom_order&quot;:1},{&quot;id&quot;:3539,&quot;token&quot;:&quot;c:1&quot;,&quot;particle_id&quot;:&quot;img3-m135-p1&quot;,&quot;molecule_id&quot;:&quot;img3-m135&quot;,&quot;atom_order&quot;:2},{&quot;id&quot;:3561,&quot;token&quot;:&quot;h:2&quot;,&quot;particle_id&quot;:&quot;img3-m135-p1&quot;,&quot;molecule_id&quot;:&quot;img3-m135&quot;,&quot;atom_order&quot;:3}]}</metadata>
  <rect x="0" y="0" width="59" height="73" fill="#f8f0d8"/>
  <image href="file:///C:/Users/HHHES/AppData/Roaming/com.voynichlab.datasetcreator/images/1/35a70f63-88ab-4986-b441-b78046a10087.jpg" x="-551" y="-2141" width="2972" height="3766" opacity="0.92"/>
  <rect x="0.5" y="0.5" width="58" height="72" fill="none" stroke="#111827" stroke-width="1" opacity="0.35"/>
  <polyline points="31,54 31,55 30,55 30,56 29,56 28,56 28,57 27,57 26,57 25,57 24,57 23,57 22,57 21,57 21,56 20,56 19,56 18,56 18,55 17,55 16,55 16,54 16,53 16,52 16,51 16,50 16,49 16,48 17,48 17,47 17,46 17,45 18,45 18,44 18,43 19,43 19,42 19,41 20,41 21,41 21,40 22,40 22,39 23,39 24,39 24,38 25,38 26,38 27,38 27,37" fill="none" stroke="#f2e45c" stroke-width="3" stroke-linecap="round" stroke-linejoin="round" opacity="0.95">
    <title>3492 e:1</title>
  </polyline>
  <polyline points="36,31 37,30 38,30 39,30 39,29 40,29 41,28 42,28 42,27 43,26 43,25 43,24 43,23 43,22 43,21 43,20 43,19 42,19 42,18 42,17 41,17 40,17 39,17 39,16 38,16 37,16 36,16 35,16 34,16 33,17 32,17 31,17 31,18 30,18 30,19 29,19 29,20 28,21 28,22 28,23 28,24 28,25 29,26 29,27 30,27 30,28 31,28 31,29 32,29 33,29 33,30 34,30 35,30 36,30 37,30 38,30" fill="none" stroke="#8aff00" stroke-width="3" stroke-linecap="round" stroke-linejoin="round" opacity="0.95">
    <title>3539 c:1</title>
  </polyline>
  <polyline points="30,55 31,55 32,55 32,54 33,54 34,53 34,52 35,52 35,51 36,50 36,49 36,48 36,47 36,46 36,45 36,44 36,43 36,42 35,42 35,41 34,41 34,40 33,39 32,38 32,37 31,37 30,36 29,35 28,34 27,33 27,32 27,31 26,31 26,30 26,29 26,28 26,27 26,26 26,25 26,24 26,23 26,22 27,22 27,21 27,20 28,20 28,19 29,19 29,18 30,18 31,18 31,17 32,17 33,17" fill="none" stroke="#ff8c00" stroke-width="3" stroke-linecap="round" stroke-linejoin="round" opacity="0.95">
    <title>3561 h:2</title>
  </polyline>
</svg>
