<?xml version="1.0" encoding="UTF-8"?>
<svg xmlns="http://www.w3.org/2000/svg" width="57" height="75" viewBox="0 0 57 75">
  <title>particle img3-m141-p1 e:1 c:1 h:2</title>
  <metadata>{&quot;entityType&quot;:&quot;particle&quot;,&quot;entityId&quot;:&quot;img3-m141-p1&quot;,&quot;token&quot;:&quot;e:1 c:1 h:2&quot;,&quot;signature&quot;:&quot;e:1 c:1 h:2&quot;,&quot;imageName&quot;:&quot;page-003.jpg&quot;,&quot;imageId&quot;:3,&quot;bounds&quot;:{&quot;x&quot;:1083,&quot;y&quot;:2225,&quot;w&quot;:57,&quot;h&quot;:75},&quot;atoms&quot;:[{&quot;id&quot;:3530,&quot;token&quot;:&quot;e:1&quot;,&quot;particle_id&quot;:&quot;img3-m141-p1&quot;,&quot;molecule_id&quot;:&quot;img3-m141&quot;,&quot;atom_order&quot;:1},{&quot;id&quot;:3555,&quot;token&quot;:&quot;c:1&quot;,&quot;particle_id&quot;:&quot;img3-m141-p1&quot;,&quot;molecule_id&quot;:&quot;img3-m141&quot;,&quot;atom_order&quot;:2},{&quot;id&quot;:3562,&quot;token&quot;:&quot;h:2&quot;,&quot;particle_id&quot;:&quot;img3-m141-p1&quot;,&quot;molecule_id&quot;:&quot;img3-m141&quot;,&quot;atom_order&quot;:3}]}</metadata>
  <rect x="0" y="0" width="57" height="75" fill="#f8f0d8"/>
  <image href="file:///C:/Users/HHHES/AppData/Roaming/com.voynichlab.datasetcreator/images/1/35a70f63-88ab-4986-b441-b78046a10087.jpg" x="-1083" y="-2225" width="2972" height="3766" opacity="0.92"/>
  <rect x="0.5" y="0.5" width="56" height="74" fill="none" stroke="#111827" stroke-width="1" opacity="0.35"/>
  <polyline points="31,56 31,57 30,57 30,58 29,58 28,58 28,59 27,59 26,59 25,59 24,59 23,59 22,59 21,59 21,58 20,58 19,58 18,58 18,57 17,57 16,57 16,56 16,55 16,54 16,53 16,52 16,51 16,50 17,50 17,49 17,48 17,47 18,47 18,46 18,45 19,45 19,44 19,43 20,43 21,43 21,42 22,42 22,41 23,41 24,41 24,40 25,40 26,40 27,40 27,39" fill="none" stroke="#f2e45c" stroke-width="3" stroke-linecap="round" stroke-linejoin="round" opacity="0.95">
    <title>3530 e:1</title>
  </polyline>
  <polyline points="32,34 33,34 34,34 34,33 35,33 36,33 36,32 37,32 38,31 38,30 39,30 39,29 40,29 40,28 41,28 41,27 41,26 41,25 41,24 40,24 40,23 40,22 39,22 39,21 38,20 38,19 38,18 37,18 36,18 35,18 34,17 33,17 32,17 31,17 30,16 29,16 28,16 27,17 26,17 25,17 24,17 23,18 22,18 22,19 22,20 22,21 21,21 21,22 21,23 21,24 21,25 21,26 21,27 22,27 22,28 23,28 23,29 24,29 24,30 25,30 25,31 26,31 26,32 27,32 27,33 28,33 29,33 29,34 30,34 31,34 32,35 33,35 34,35 35,35" fill="none" stroke="#8aff00" stroke-width="3" stroke-linecap="round" stroke-linejoin="round" opacity="0.95">
    <title>3555 c:1</title>
  </polyline>
  <polyline points="31,59 31,58 32,58 32,57 33,57 33,56 34,56 34,55 34,54 34,53 34,52 34,51 34,50 34,49 34,48 33,47 33,46 33,45 32,45 32,44 31,44 31,43 31,42 30,42 30,41 30,40 29,40 29,39 28,39 28,38 27,38 27,37 26,37 26,36 25,36 25,35 24,35 24,34 23,34 23,33 22,32 22,31 22,30 21,29 21,28 21,27 21,26 21,25 21,24 21,23 21,22 21,21 22,21 22,20" fill="none" stroke="#ff8c00" stroke-width="3" stroke-linecap="round" stroke-linejoin="round" opacity="0.95">
    <title>3562 h:2</title>
  </polyline>
</svg>
