<?xml version="1.0" encoding="UTF-8"?>
<svg xmlns="http://www.w3.org/2000/svg" width="58" height="72" viewBox="0 0 58 72">
  <title>particle img3-m112-p1 e:1 c:1 h:2</title>
  <metadata>{&quot;entityType&quot;:&quot;particle&quot;,&quot;entityId&quot;:&quot;img3-m112-p1&quot;,&quot;token&quot;:&quot;e:1 c:1 h:2&quot;,&quot;signature&quot;:&quot;e:1 c:1 h:2&quot;,&quot;imageName&quot;:&quot;page-003.jpg&quot;,&quot;imageId&quot;:3,&quot;bounds&quot;:{&quot;x&quot;:1496,&quot;y&quot;:1898,&quot;w&quot;:58,&quot;h&quot;:72},&quot;atoms&quot;:[{&quot;id&quot;:3242,&quot;token&quot;:&quot;e:1&quot;,&quot;particle_id&quot;:&quot;img3-m112-p1&quot;,&quot;molecule_id&quot;:&quot;img3-m112&quot;,&quot;atom_order&quot;:1},{&quot;id&quot;:3289,&quot;token&quot;:&quot;c:1&quot;,&quot;particle_id&quot;:&quot;img3-m112-p1&quot;,&quot;molecule_id&quot;:&quot;img3-m112&quot;,&quot;atom_order&quot;:2},{&quot;id&quot;:3288,&quot;token&quot;:&quot;h:2&quot;,&quot;particle_id&quot;:&quot;img3-m112-p1&quot;,&quot;molecule_id&quot;:&quot;img3-m112&quot;,&quot;atom_order&quot;:3}]}</metadata>
  <rect x="0" y="0" width="58" height="72" fill="#f8f0d8"/>
  <image href="file:///C:/Users/HHHES/AppData/Roaming/com.voynichlab.datasetcreator/images/1/35a70f63-88ab-4986-b441-b78046a10087.jpg" x="-1496" y="-1898" width="2972" height="3766" opacity="0.92"/>
  <rect x="0.5" y="0.5" width="57" height="71" fill="none" stroke="#111827" stroke-width="1" opacity="0.35"/>
  <polyline points="31,53 31,54 30,54 30,55 29,55 28,55 28,56 27,56 26,56 25,56 24,56 23,56 22,56 21,56 21,55 20,55 19,55 18,55 18,54 17,54 16,54 16,53 16,52 16,51 16,50 16,49 16,48 16,47 17,47 17,46 17,45 17,44 18,44 18,43 18,42 19,42 19,41 19,40 20,40 21,40 21,39 22,39 22,38 23,38 24,38 24,37 25,37 26,37 27,37 27,36" fill="none" stroke="#f2e45c" stroke-width="3" stroke-linecap="round" stroke-linejoin="round" opacity="0.95">
    <title>3242 e:1</title>
  </polyline>
  <polyline points="24,22 24,23 23,23 23,24 23,25 22,25 22,26 22,27 22,28 22,29 22,30 22,31 22,32 23,32 23,33 24,33 24,34 25,35 26,35 27,35 28,35 28,36 29,36 30,36 31,36 32,36 33,36 34,36 35,36 36,36 36,35 37,35 38,35 38,34 38,33 39,33 39,32 40,32 40,31 40,30 41,30 41,29 41,28 42,28 42,27 42,26 42,25 42,24 42,23 42,22 41,22 41,21 41,20 40,20 40,19 39,19 39,18 38,18 38,17 37,17 36,17 36,16 35,16 34,16 33,16 32,16 31,16 30,16 29,16 28,17 27,17 27,18 26,18 26,19 25,19 24,19 24,20 23,20 23,21 23,22" fill="none" stroke="#8aff00" stroke-width="3" stroke-linecap="round" stroke-linejoin="round" opacity="0.95">
    <title>3289 c:1</title>
  </polyline>
  <polyline points="31,54 31,53 32,53 32,52 32,51 32,50 32,49 32,48 32,47 33,47 33,46 32,46 32,45 32,44 32,43 31,42 31,41 30,40 30,39 29,39 29,38 28,38 27,37 26,37 26,36 25,35 25,34 24,34 24,33 23,33 23,32 23,31 23,30 22,30 22,29 22,28 22,27 22,26 22,25 22,24 22,23 23,23 23,22 23,21 24,21 25,21 25,20 26,20 26,19 27,19 28,19 28,18 29,18 30,18 31,18 32,18 33,18 34,18 35,18 36,18 37,18" fill="none" stroke="#ff8c00" stroke-width="3" stroke-linecap="round" stroke-linejoin="round" opacity="0.95">
    <title>3288 h:2</title>
  </polyline>
</svg>
