<?xml version="1.0" encoding="UTF-8"?>
<svg xmlns="http://www.w3.org/2000/svg" width="77" height="91" viewBox="0 0 77 91">
  <title>particle img3-m32-p2 a:1 b:1 c:1 a:1</title>
  <metadata>{&quot;entityType&quot;:&quot;particle&quot;,&quot;entityId&quot;:&quot;img3-m32-p2&quot;,&quot;token&quot;:&quot;a:1 b:1 c:1 a:1&quot;,&quot;signature&quot;:&quot;a:1 b:1 c:1 a:1&quot;,&quot;imageName&quot;:&quot;page-003.jpg&quot;,&quot;imageId&quot;:3,&quot;bounds&quot;:{&quot;x&quot;:2261,&quot;y&quot;:727,&quot;w&quot;:77,&quot;h&quot;:91},&quot;atoms&quot;:[{&quot;id&quot;:1595,&quot;token&quot;:&quot;a:1&quot;,&quot;particle_id&quot;:&quot;img3-m32-p2&quot;,&quot;molecule_id&quot;:&quot;img3-m32&quot;,&quot;atom_order&quot;:1},{&quot;id&quot;:1596,&quot;token&quot;:&quot;b:1&quot;,&quot;particle_id&quot;:&quot;img3-m32-p2&quot;,&quot;molecule_id&quot;:&quot;img3-m32&quot;,&quot;atom_order&quot;:2},{&quot;id&quot;:1598,&quot;token&quot;:&quot;c:1&quot;,&quot;particle_id&quot;:&quot;img3-m32-p2&quot;,&quot;molecule_id&quot;:&quot;img3-m32&quot;,&quot;atom_order&quot;:3},{&quot;id&quot;:1599,&quot;token&quot;:&quot;a:1&quot;,&quot;particle_id&quot;:&quot;img3-m32-p2&quot;,&quot;molecule_id&quot;:&quot;img3-m32&quot;,&quot;atom_order&quot;:4}]}</metadata>
  <rect x="0" y="0" width="77" height="91" fill="#f8f0d8"/>
  <image href="file:///C:/Users/HHHES/AppData/Roaming/com.voynichlab.datasetcreator/images/1/35a70f63-88ab-4986-b441-b78046a10087.jpg" x="-2261" y="-727" width="2972" height="3766" opacity="0.92"/>
  <rect x="0.5" y="0.5" width="76" height="90" fill="none" stroke="#111827" stroke-width="1" opacity="0.35"/>
  <polyline points="18,16 18,17 18,18 18,19 18,20 17,20 17,21 17,22 17,23 17,24 17,25 17,26 17,27 17,28 17,29 17,30 17,31 17,32 17,33 17,34 17,35 17,36 17,37 17,38 17,39 17,40 17,41 17,42 17,43 17,44 17,45 17,46 17,47 17,48 17,49 17,50 17,51 17,52 17,53 17,54 17,55 17,56 17,57 17,58 17,59 17,60 17,61 17,62 17,63 16,64 16,65 16,66 16,67 16,68 16,69 16,70 16,71 16,72 16,73" fill="none" stroke="#00f0b5" stroke-width="3" stroke-linecap="round" stroke-linejoin="round" opacity="0.95">
    <title>1595 a:1</title>
  </polyline>
  <polyline points="17,29 17,30 18,31 18,32 19,32 19,33 20,33 20,34 20,35 21,35 21,36 22,36 22,37 23,37 24,37 24,38 25,38 26,38 26,39 27,39 28,39 29,39 30,39 31,39 32,39 33,39 34,39 35,39 36,39 37,39 38,39 39,39 40,39 41,38 42,38 43,38 44,38 44,37 45,37 46,37 46,36 47,36 48,36 48,35 49,35 50,34 51,34 51,33 52,33 52,32 53,32 54,31 54,30 55,30 55,29" fill="none" stroke="#2f7df6" stroke-width="3" stroke-linecap="round" stroke-linejoin="round" opacity="0.95">
    <title>1596 b:1</title>
  </polyline>
  <polyline points="55,31 56,31 56,31 57,31 57,30 58,30 58,29 58,29 58,28 59,28 59,27 60,27 60,26 60,25 61,25 61,24 61,23 61,21 61,21 61,21 61,20 61,19 60,19 60,18 59,18 58,17 58,17 57,17 56,17 55,17 54,17 54,16 53,16 53,16 52,16 51,16 49,16 48,16 47,16 47,16 47,17 45,17 44,17 43,17 42,18 41,18 41,19 41,19 41,20 40,20 39,21 38,21 38,21 37,21 37,23 36,24 36,25 36,25 36,26 36,27 36,28 36,29 36,30 36,31 36,31 36,31 36,32 36,34 36,34 36,35 37,35 38,35 39,35 40,35 41,35 41,35 42,35 43,35 44,35 45,35 47,35 47,35 48,35 49,35 49,34 51,34 52,34 52,32 53,32 53,31 54,31 54,31 55,31 56,31 56,31" fill="none" stroke="#8aff00" stroke-width="3" stroke-linecap="round" stroke-linejoin="round" opacity="0.95">
    <title>1598 c:1</title>
  </polyline>
  <polyline points="36,32 36,33 36,34 36,35 36,36 36,37 36,38 36,39 36,40 36,41 36,42 36,43 36,44 36,45 36,46 36,47 36,48 36,49 36,50 36,51 36,52 36,53 36,54 36,55 36,56 36,57 36,58 36,59 36,60 36,61 37,61 37,62 37,63 37,64 37,65 37,66 37,67 37,68 37,69 37,70 37,71 37,72 37,73 37,74 37,75" fill="none" stroke="#00f0b5" stroke-width="3" stroke-linecap="round" stroke-linejoin="round" opacity="0.95">
    <title>1599 a:1</title>
  </polyline>
</svg>
