<?xml version="1.0" encoding="UTF-8"?>
<svg xmlns="http://www.w3.org/2000/svg" width="88" height="51" viewBox="0 0 88 51">
  <title>particle img3-m94-p1 e:1 g:1 e:1</title>
  <metadata>{&quot;entityType&quot;:&quot;particle&quot;,&quot;entityId&quot;:&quot;img3-m94-p1&quot;,&quot;token&quot;:&quot;e:1 g:1 e:1&quot;,&quot;signature&quot;:&quot;e:1 g:1 e:1&quot;,&quot;imageName&quot;:&quot;page-003.jpg&quot;,&quot;imageId&quot;:3,&quot;bounds&quot;:{&quot;x&quot;:866,&quot;y&quot;:1761,&quot;w&quot;:88,&quot;h&quot;:51},&quot;atoms&quot;:[{&quot;id&quot;:2602,&quot;token&quot;:&quot;e:1&quot;,&quot;particle_id&quot;:&quot;img3-m94-p1&quot;,&quot;molecule_id&quot;:&quot;img3-m94&quot;,&quot;atom_order&quot;:1},{&quot;id&quot;:2603,&quot;token&quot;:&quot;g:1&quot;,&quot;particle_id&quot;:&quot;img3-m94-p1&quot;,&quot;molecule_id&quot;:&quot;img3-m94&quot;,&quot;atom_order&quot;:2},{&quot;id&quot;:2600,&quot;token&quot;:&quot;e:1&quot;,&quot;particle_id&quot;:&quot;img3-m94-p1&quot;,&quot;molecule_id&quot;:&quot;img3-m94&quot;,&quot;atom_order&quot;:3}]}</metadata>
  <rect x="0" y="0" width="88" height="51" fill="#f8f0d8"/>
  <image href="file:///C:/Users/HHHES/AppData/Roaming/com.voynichlab.datasetcreator/images/1/35a70f63-88ab-4986-b441-b78046a10087.jpg" x="-866" y="-1761" width="2972" height="3766" opacity="0.92"/>
  <rect x="0.5" y="0.5" width="87" height="50" fill="none" stroke="#111827" stroke-width="1" opacity="0.35"/>
  <polyline points="32,30 31,31 31,32 30,32 21,35 16,33 16,32 16,31 16,30 16,29 16,28 16,27 16,26 17,26 17,25 17,24 18,24 18,23 19,22 20,22 21,21 22,21 23,21 23,20 24,20 25,20 26,20 27,20" fill="none" stroke="#f2e45c" stroke-width="3" stroke-linecap="round" stroke-linejoin="round" opacity="0.95">
    <title>2602 e:1</title>
  </polyline>
  <polyline points="25,20 26,20 27,20 28,20 29,20 30,20 31,20 32,20 33,20 34,20 35,20 36,20 37,20 37,19 38,19 39,19 40,19 41,19 42,19 43,19 44,19 45,19 46,18 47,18 48,18 49,18 50,18 51,18 52,18 53,18 54,18 55,18 56,18 56,17 57,17 58,17 59,17 60,17 61,17 62,17 63,17 64,17 65,17 66,17 67,17 68,17 69,17 70,17" fill="none" stroke="#7c3cff" stroke-width="3" stroke-linecap="round" stroke-linejoin="round" opacity="0.95">
    <title>2603 g:1</title>
  </polyline>
  <polyline points="69,31 68,31 68,32 67,32 67,33 66,33 65,33 64,33 63,33 62,33 61,33 60,33 59,32 58,32 58,31 57,31 57,30 56,30 56,29 56,28 55,28 55,27 55,26 55,25 55,24 56,24 56,23 56,22 56,21 57,21 57,20 58,20 58,19 59,19 60,19 60,18 61,18 62,18 63,18 63,17 64,17 65,17 66,17 66,16 67,16 68,16 69,16 70,16 71,17 72,17" fill="none" stroke="#f2e45c" stroke-width="3" stroke-linecap="round" stroke-linejoin="round" opacity="0.95">
    <title>2600 e:1</title>
  </polyline>
</svg>
