<?xml version="1.0" encoding="UTF-8"?>
<svg xmlns="http://www.w3.org/2000/svg" width="71" height="99" viewBox="0 0 71 99">
  <title>particle img3-m1-p2 f:1 i:1 d:1</title>
  <metadata>{&quot;entityType&quot;:&quot;particle&quot;,&quot;entityId&quot;:&quot;img3-m1-p2&quot;,&quot;token&quot;:&quot;f:1 i:1 d:1&quot;,&quot;signature&quot;:&quot;f:1 i:1 d:1&quot;,&quot;imageName&quot;:&quot;page-003.jpg&quot;,&quot;imageId&quot;:3,&quot;bounds&quot;:{&quot;x&quot;:734,&quot;y&quot;:479,&quot;w&quot;:71,&quot;h&quot;:99},&quot;atoms&quot;:[{&quot;id&quot;:999,&quot;token&quot;:&quot;f:1&quot;,&quot;particle_id&quot;:&quot;img3-m1-p2&quot;,&quot;molecule_id&quot;:&quot;img3-m1&quot;,&quot;atom_order&quot;:1},{&quot;id&quot;:1000,&quot;token&quot;:&quot;i:1&quot;,&quot;particle_id&quot;:&quot;img3-m1-p2&quot;,&quot;molecule_id&quot;:&quot;img3-m1&quot;,&quot;atom_order&quot;:2},{&quot;id&quot;:1002,&quot;token&quot;:&quot;d:1&quot;,&quot;particle_id&quot;:&quot;img3-m1-p2&quot;,&quot;molecule_id&quot;:&quot;img3-m1&quot;,&quot;atom_order&quot;:3}]}</metadata>
  <rect x="0" y="0" width="71" height="99" fill="#f8f0d8"/>
  <image href="file:///C:/Users/HHHES/AppData/Roaming/com.voynichlab.datasetcreator/images/1/35a70f63-88ab-4986-b441-b78046a10087.jpg" x="-734" y="-479" width="2972" height="3766" opacity="0.92"/>
  <rect x="0.5" y="0.5" width="70" height="98" fill="none" stroke="#111827" stroke-width="1" opacity="0.35"/>
  <polyline points="36,71 37,71 37,72 38,72 38,73 39,73 39,74 40,74 41,75 42,76 43,76 43,77 44,77 44,78 45,78 45,79 46,79 46,80 47,80 47,81 48,81 48,82 48,83" fill="none" stroke="#00a2ff" stroke-width="3" stroke-linecap="round" stroke-linejoin="round" opacity="0.95">
    <title>999 f:1</title>
  </polyline>
  <polyline points="36,70 37,70 37,69 38,69 38,68 39,68 39,67 40,67 40,66 41,66 42,66 42,65 43,64 44,64 44,63 45,63 45,62 46,62 46,61 47,61 47,60 47,59 48,59 48,58 49,58 49,57 50,56 50,55 50,54 51,54 51,53 51,52 52,52 52,51 52,50 52,49 53,49 53,48 53,47 53,46 53,45 54,45 54,44 54,43 54,42 54,41 55,41 55,40 55,39 55,38 55,37 55,36 55,35 55,34 55,33 55,32 55,31 55,30 55,29 54,29 54,28 53,27 53,26" fill="none" stroke="#00ff7f" stroke-width="3" stroke-linecap="round" stroke-linejoin="round" opacity="0.95">
    <title>1000 i:1</title>
  </polyline>
  <polyline points="16,28 16,27 16,26 16,25 17,25 17,24 18,24 18,23 19,23 19,22 20,22 20,21 21,20 22,20 22,19 23,19 24,19 24,18 25,18 26,18 27,18 27,17 28,17 29,17 30,17 31,17 32,17 33,16 34,16 35,16 36,16 37,16 38,16 38,17 39,17 40,17 41,17 41,18 42,18 43,18 43,19 44,19 45,19 45,20 46,20 47,20 47,21 48,21 48,22 49,22 50,23 51,23 51,24 52,25 52,26 53,26" fill="none" stroke="#ff2d55" stroke-width="3" stroke-linecap="round" stroke-linejoin="round" opacity="0.95">
    <title>1002 d:1</title>
  </polyline>
</svg>
