<?xml version="1.0" encoding="UTF-8"?>
<svg xmlns="http://www.w3.org/2000/svg" width="120" height="87" viewBox="0 0 120 87">
  <title>particle img3-m172-p5 k:1 f:1 i:1 d:1</title>
  <metadata>{&quot;entityType&quot;:&quot;particle&quot;,&quot;entityId&quot;:&quot;img3-m172-p5&quot;,&quot;token&quot;:&quot;k:1 f:1 i:1 d:1&quot;,&quot;signature&quot;:&quot;k:1 f:1 i:1 d:1&quot;,&quot;imageName&quot;:&quot;page-003.jpg&quot;,&quot;imageId&quot;:3,&quot;bounds&quot;:{&quot;x&quot;:1001,&quot;y&quot;:2661,&quot;w&quot;:120,&quot;h&quot;:87},&quot;atoms&quot;:[{&quot;id&quot;:3973,&quot;token&quot;:&quot;k:1&quot;,&quot;particle_id&quot;:&quot;img3-m172-p5&quot;,&quot;molecule_id&quot;:&quot;img3-m172&quot;,&quot;atom_order&quot;:1},{&quot;id&quot;:3960,&quot;token&quot;:&quot;f:1&quot;,&quot;particle_id&quot;:&quot;img3-m172-p5&quot;,&quot;molecule_id&quot;:&quot;img3-m172&quot;,&quot;atom_order&quot;:2},{&quot;id&quot;:3977,&quot;token&quot;:&quot;i:1&quot;,&quot;particle_id&quot;:&quot;img3-m172-p5&quot;,&quot;molecule_id&quot;:&quot;img3-m172&quot;,&quot;atom_order&quot;:3},{&quot;id&quot;:3983,&quot;token&quot;:&quot;d:1&quot;,&quot;particle_id&quot;:&quot;img3-m172-p5&quot;,&quot;molecule_id&quot;:&quot;img3-m172&quot;,&quot;atom_order&quot;:4}]}</metadata>
  <rect x="0" y="0" width="120" height="87" fill="#f8f0d8"/>
  <image href="file:///C:/Users/HHHES/AppData/Roaming/com.voynichlab.datasetcreator/images/1/35a70f63-88ab-4986-b441-b78046a10087.jpg" x="-1001" y="-2661" width="2972" height="3766" opacity="0.92"/>
  <rect x="0.5" y="0.5" width="119" height="86" fill="none" stroke="#111827" stroke-width="1" opacity="0.35"/>
  <polyline points="29,44 29,45 30,45 30,46 30,47 31,48 31,49 32,50 32,51 33,52 33,53 34,54 34,55 35,55 35,56 35,57 36,57 36,58 36,59 37,59 37,60 37,61 37,62 37,63 38,63 38,64 38,65 39,65 39,64 40,63 40,62 41,62 41,61 42,60 43,59 43,58 44,58 44,57 45,56 45,55 46,55 46,54 47,53 47,52 48,52 48,51 48,50 49,50 49,49 50,48 50,47 51,47 51,48 51,49 51,50 52,51 52,52 52,53 52,54 53,55 53,56 53,57 53,58 54,58 54,59 54,60 54,61 55,61 55,62 55,63 55,64 56,64 56,65 56,66 56,67 57,67 57,68 57,69 58,70 58,69 58,68 59,68 59,67 59,66 60,65 60,64 60,63 61,63 61,62 62,61 62,60 63,59 63,58 64,58 64,57 64,56 65,56 65,55 66,54 66,53 67,53 67,52 68,52 68,51" fill="none" stroke="#ffffff" stroke-width="3" stroke-linecap="round" stroke-linejoin="round" opacity="0.95">
    <title>3973 k:1</title>
  </polyline>
  <polyline points="67,50 67,51 67,52 68,52 68,53 68,54 69,54 69,55 70,56 70,57 71,57 71,58 72,59 72,60 73,60 73,61 74,61 74,62 75,62 75,63 75,64 76,64 76,65 76,66 77,66 77,67 78,67 78,68 79,69 79,70 80,70 80,71" fill="none" stroke="#00a2ff" stroke-width="3" stroke-linecap="round" stroke-linejoin="round" opacity="0.95">
    <title>3960 f:1</title>
  </polyline>
  <polyline points="80,70 81,70 82,70 83,69 84,69 84,68 85,68 85,67 86,67 87,66 87,65 88,65 88,64 89,64 89,63 90,63 90,62 91,62 91,61 92,61 93,60 94,59 95,58 96,57 97,56 97,55 98,55 98,54 99,54 99,53 100,53 100,52 100,51 101,51 101,50 101,49 102,49 102,48 102,47 103,46 103,45 103,44 103,43 104,43 104,42 104,41 104,40 104,39 103,38 103,37 103,36 103,35 103,34 102,33 102,32 101,31 101,30 100,30 100,29 99,28 99,27 98,27 98,26 97,26 97,25 96,25 96,24 95,24 94,23 93,22 92,22 92,21 91,21 90,21 90,20 89,20 88,20 87,19 86,19 85,19" fill="none" stroke="#00ff7f" stroke-width="3" stroke-linecap="round" stroke-linejoin="round" opacity="0.95">
    <title>3977 i:1</title>
  </polyline>
  <polyline points="16,21 17,21 18,20 19,20 20,19 21,19 22,19 23,19 24,19 26,19 28,19 29,18 31,18 32,18 33,18 34,18 36,18 38,18 40,17 41,17 42,17 44,17 46,17 48,16 49,16 50,16 51,16 52,16 54,16 55,16 56,16 58,16 59,16 60,16 61,17 62,17 63,17 64,17 66,17 67,17 69,17 70,17 71,17 72,18 73,18 75,18 76,18 77,18 78,18 79,18 80,18 81,18 82,18 82,19 83,19 84,19 85,19 86,19 87,19 88,19 89,19 89,20" fill="none" stroke="#ff2d55" stroke-width="3" stroke-linecap="round" stroke-linejoin="round" opacity="0.95">
    <title>3983 d:1</title>
  </polyline>
</svg>
