<?xml version="1.0" encoding="UTF-8"?>
<svg xmlns="http://www.w3.org/2000/svg" width="63" height="92" viewBox="0 0 63 92">
  <title>particle img3-m19-p4 f:1 i:1 d:1</title>
  <metadata>{&quot;entityType&quot;:&quot;particle&quot;,&quot;entityId&quot;:&quot;img3-m19-p4&quot;,&quot;token&quot;:&quot;f:1 i:1 d:1&quot;,&quot;signature&quot;:&quot;f:1 i:1 d:1&quot;,&quot;imageName&quot;:&quot;page-003.jpg&quot;,&quot;imageId&quot;:3,&quot;bounds&quot;:{&quot;x&quot;:1725,&quot;y&quot;:652,&quot;w&quot;:63,&quot;h&quot;:92},&quot;atoms&quot;:[{&quot;id&quot;:1406,&quot;token&quot;:&quot;f:1&quot;,&quot;particle_id&quot;:&quot;img3-m19-p4&quot;,&quot;molecule_id&quot;:&quot;img3-m19&quot;,&quot;atom_order&quot;:1},{&quot;id&quot;:1407,&quot;token&quot;:&quot;i:1&quot;,&quot;particle_id&quot;:&quot;img3-m19-p4&quot;,&quot;molecule_id&quot;:&quot;img3-m19&quot;,&quot;atom_order&quot;:2},{&quot;id&quot;:1408,&quot;token&quot;:&quot;d:1&quot;,&quot;particle_id&quot;:&quot;img3-m19-p4&quot;,&quot;molecule_id&quot;:&quot;img3-m19&quot;,&quot;atom_order&quot;:3}]}</metadata>
  <rect x="0" y="0" width="63" height="92" fill="#f8f0d8"/>
  <image href="file:///C:/Users/HHHES/AppData/Roaming/com.voynichlab.datasetcreator/images/1/35a70f63-88ab-4986-b441-b78046a10087.jpg" x="-1725" y="-652" width="2972" height="3766" opacity="0.92"/>
  <rect x="0.5" y="0.5" width="62" height="91" fill="none" stroke="#111827" stroke-width="1" opacity="0.35"/>
  <polyline points="24,55 24,56 24,57 25,57 25,58 25,59 26,59 26,60 27,61 27,62 28,62 28,63 29,64 29,65 30,65 30,66 31,66 31,67 32,67 32,68 32,69 33,69 33,70 33,71 34,71 34,72 35,72 35,73 36,74 36,75 37,75 37,76" fill="none" stroke="#00a2ff" stroke-width="3" stroke-linecap="round" stroke-linejoin="round" opacity="0.95">
    <title>1406 f:1</title>
  </polyline>
  <polyline points="24,56 25,56 25,57 26,57 27,57 28,57 29,57 30,57 31,56 32,56 33,56 34,56 34,55 35,55 36,55 36,54 37,54 38,53 39,53 39,52 40,52 40,51 41,51 41,50 42,50 42,49 43,49 43,48 44,48 44,47 44,46 45,46 45,45 45,44 45,43 46,42 46,41 46,40 46,39 47,39 47,38 47,37 47,36 47,35 47,34 47,33 47,32 47,31 47,30 47,29 47,28 47,27 47,26 47,25 46,25 46,24" fill="none" stroke="#00ff7f" stroke-width="3" stroke-linecap="round" stroke-linejoin="round" opacity="0.95">
    <title>1407 i:1</title>
  </polyline>
  <polyline points="16,26 16,25 17,25 17,24 17,23 18,23 18,22 18,21 19,21 20,21 20,20 21,20 21,19 22,19 23,18 24,18 24,17 25,17 26,17 26,16 27,16 28,16 29,16 30,16 31,16 32,16 33,16 34,16 35,16 36,16 37,16 38,16 39,16 40,16 40,17 41,17 41,18 42,18 43,19 44,19 44,20 45,20 45,21 45,22 46,22 46,23 46,24 47,24 47,25 47,26" fill="none" stroke="#ff2d55" stroke-width="3" stroke-linecap="round" stroke-linejoin="round" opacity="0.95">
    <title>1408 d:1</title>
  </polyline>
</svg>
