<?xml version="1.0" encoding="UTF-8"?>
<svg xmlns="http://www.w3.org/2000/svg" width="58" height="92" viewBox="0 0 58 92">
  <title>particle img3-m193-p3 a:1 c:1</title>
  <metadata>{&quot;entityType&quot;:&quot;particle&quot;,&quot;entityId&quot;:&quot;img3-m193-p3&quot;,&quot;token&quot;:&quot;a:1 c:1&quot;,&quot;signature&quot;:&quot;a:1 c:1&quot;,&quot;imageName&quot;:&quot;page-003.jpg&quot;,&quot;imageId&quot;:3,&quot;bounds&quot;:{&quot;x&quot;:1011,&quot;y&quot;:2897,&quot;w&quot;:58,&quot;h&quot;:92},&quot;atoms&quot;:[{&quot;id&quot;:4203,&quot;token&quot;:&quot;a:1&quot;,&quot;particle_id&quot;:&quot;img3-m193-p3&quot;,&quot;molecule_id&quot;:&quot;img3-m193&quot;,&quot;atom_order&quot;:1},{&quot;id&quot;:4173,&quot;token&quot;:&quot;c:1&quot;,&quot;particle_id&quot;:&quot;img3-m193-p3&quot;,&quot;molecule_id&quot;:&quot;img3-m193&quot;,&quot;atom_order&quot;:2}]}</metadata>
  <rect x="0" y="0" width="58" height="92" fill="#f8f0d8"/>
  <image href="file:///C:/Users/HHHES/AppData/Roaming/com.voynichlab.datasetcreator/images/1/35a70f63-88ab-4986-b441-b78046a10087.jpg" x="-1011" y="-2897" width="2972" height="3766" opacity="0.92"/>
  <rect x="0.5" y="0.5" width="57" height="91" fill="none" stroke="#111827" stroke-width="1" opacity="0.35"/>
  <polyline points="22,39 22,40 21,40 21,41 20,41 20,42 20,43 19,44 19,45 19,46 18,46 18,47 18,48 18,49 18,50 17,51 17,52 17,53 17,54 17,55 16,55 16,56 16,57 16,58 16,59 16,60 16,61 16,62 16,63 16,64 16,65 16,66 17,67 17,68 17,69 17,70 17,71 17,72 17,73 17,74 18,75 18,76" fill="none" stroke="#00f0b5" stroke-width="3" stroke-linecap="round" stroke-linejoin="round" opacity="0.95">
    <title>4203 a:1</title>
  </polyline>
  <polyline points="21,24 21,25 20,25 20,26 19,27 19,28 19,29 18,30 18,31 18,32 18,33 18,34 19,35 19,36 20,37 20,38 21,38 21,39 22,39 22,40 23,40 24,40 25,40 26,40 27,41 28,41 29,41 30,40 31,40 32,40 33,40 34,39 35,39 35,38 36,38 37,37 38,37 38,36 39,36 39,35 40,35 40,34 41,33 41,32 41,31 42,31 42,30 42,29 42,28 42,27 42,26 42,25 42,24 42,23 42,22 42,21 42,20 41,20 40,19 39,18 38,17 37,17 37,16 36,16 35,16 34,16 33,16 32,16 31,16 30,16 30,17 29,17 28,18 27,18 27,19 26,19 25,19 25,20 24,20 24,21 23,22 23,23 22,23 22,24 21,25 21,26 21,27" fill="none" stroke="#8aff00" stroke-width="3" stroke-linecap="round" stroke-linejoin="round" opacity="0.95">
    <title>4173 c:1</title>
  </polyline>
</svg>
