<?xml version="1.0" encoding="UTF-8"?>
<svg xmlns="http://www.w3.org/2000/svg" width="63" height="73" viewBox="0 0 63 73">
  <title>particle img3-m78-p4 e:1 c:2 h:2</title>
  <metadata>{&quot;entityType&quot;:&quot;particle&quot;,&quot;entityId&quot;:&quot;img3-m78-p4&quot;,&quot;token&quot;:&quot;e:1 c:2 h:2&quot;,&quot;signature&quot;:&quot;e:1 c:2 h:2&quot;,&quot;imageName&quot;:&quot;page-003.jpg&quot;,&quot;imageId&quot;:3,&quot;bounds&quot;:{&quot;x&quot;:1795,&quot;y&quot;:1567,&quot;w&quot;:63,&quot;h&quot;:73},&quot;atoms&quot;:[{&quot;id&quot;:2292,&quot;token&quot;:&quot;e:1&quot;,&quot;particle_id&quot;:&quot;img3-m78-p4&quot;,&quot;molecule_id&quot;:&quot;img3-m78&quot;,&quot;atom_order&quot;:1},{&quot;id&quot;:2293,&quot;token&quot;:&quot;c:2&quot;,&quot;particle_id&quot;:&quot;img3-m78-p4&quot;,&quot;molecule_id&quot;:&quot;img3-m78&quot;,&quot;atom_order&quot;:2},{&quot;id&quot;:2294,&quot;token&quot;:&quot;h:2&quot;,&quot;particle_id&quot;:&quot;img3-m78-p4&quot;,&quot;molecule_id&quot;:&quot;img3-m78&quot;,&quot;atom_order&quot;:3}]}</metadata>
  <rect x="0" y="0" width="63" height="73" fill="#f8f0d8"/>
  <image href="file:///C:/Users/HHHES/AppData/Roaming/com.voynichlab.datasetcreator/images/1/35a70f63-88ab-4986-b441-b78046a10087.jpg" x="-1795" y="-1567" width="2972" height="3766" opacity="0.92"/>
  <rect x="0.5" y="0.5" width="62" height="72" fill="none" stroke="#111827" stroke-width="1" opacity="0.35"/>
  <polyline points="32,53 31,53 31,54 30,54 30,55 29,55 28,56 27,56 26,56 25,56 24,56 23,56 22,56 21,56 20,56 20,55 19,55 18,55 18,54 17,54 17,53 17,52 16,52 16,51 16,50 16,49 16,48 17,47 17,46 17,45 18,45 18,44 19,44 19,43 20,43 20,42 21,42 22,42 23,42 24,41 25,41 26,41 27,41 28,41 29,41 30,41" fill="none" stroke="#f2e45c" stroke-width="3" stroke-linecap="round" stroke-linejoin="round" opacity="0.95">
    <title>2292 e:1</title>
  </polyline>
  <polyline points="31,38 31,38 33,38 34,38 35,38 35,37 36,37 37,37 38,37 38,36 39,36 40,36 40,34 41,34 41,33 41,33 41,32 43,32 43,31 44,31 45,30 45,30 45,29 46,29 46,28 46,27 47,27 47,26 47,25 47,25 47,24 47,23 46,23 46,21 46,20 45,20 45,19 45,19 44,19 44,18 43,18 41,18 41,17 41,17 40,17 40,16 39,16 38,16 37,16 36,16 36,17 35,17 34,17 34,18 33,18 31,18 31,19 30,19 30,19 29,19 29,20 28,20 28,21 27,21 27,23 26,23 26,24 26,25 25,25 25,25 25,26 25,27 25,28 25,29 25,30 25,30 25,31 26,31 26,32 27,32 27,33 28,33 28,34 29,34 29,36 29,37 30,37 30,37 31,37 31,38 33,38" fill="none" stroke="#8aff00" stroke-width="3" stroke-linecap="round" stroke-linejoin="round" opacity="0.95">
    <title>2293 c:2</title>
  </polyline>
  <polyline points="24,57 25,57 26,57 27,57 27,56 28,56 29,56 29,55 30,55 31,55 31,54 32,54 32,53 32,52 33,52 33,51 33,50 33,49 33,48 33,47 33,46 33,45 33,44 33,43 33,42 33,41 33,40 32,40 32,39 31,38 31,37 30,37 30,36 29,36 29,35 28,35 28,34 27,34 27,33 27,32 26,32 26,31 25,31 25,30 24,29 24,28 24,27 24,26 24,25 24,24 25,23 26,23 26,22 27,22 27,21" fill="none" stroke="#ff8c00" stroke-width="3" stroke-linecap="round" stroke-linejoin="round" opacity="0.95">
    <title>2294 h:2</title>
  </polyline>
</svg>
