<?xml version="1.0" encoding="UTF-8"?>
<svg xmlns="http://www.w3.org/2000/svg" width="119" height="113" viewBox="0 0 119 113">
  <title>particle img3-m166-p1 e:1 a:1 b:1 c:1 a:1 b:1 d:1</title>
  <metadata>{&quot;entityType&quot;:&quot;particle&quot;,&quot;entityId&quot;:&quot;img3-m166-p1&quot;,&quot;token&quot;:&quot;e:1 a:1 b:1 c:1 a:1 b:1 d:1&quot;,&quot;signature&quot;:&quot;e:1 a:1 b:1 c:1 a:1 b:1 d:1&quot;,&quot;imageName&quot;:&quot;page-003.jpg&quot;,&quot;imageId&quot;:3,&quot;bounds&quot;:{&quot;x&quot;:1499,&quot;y&quot;:2653,&quot;w&quot;:119,&quot;h&quot;:113},&quot;atoms&quot;:[{&quot;id&quot;:3913,&quot;token&quot;:&quot;e:1&quot;,&quot;particle_id&quot;:&quot;img3-m166-p1&quot;,&quot;molecule_id&quot;:&quot;img3-m166&quot;,&quot;atom_order&quot;:1},{&quot;id&quot;:3948,&quot;token&quot;:&quot;a:1&quot;,&quot;particle_id&quot;:&quot;img3-m166-p1&quot;,&quot;molecule_id&quot;:&quot;img3-m166&quot;,&quot;atom_order&quot;:2},{&quot;id&quot;:3995,&quot;token&quot;:&quot;b:1&quot;,&quot;particle_id&quot;:&quot;img3-m166-p1&quot;,&quot;molecule_id&quot;:&quot;img3-m166&quot;,&quot;atom_order&quot;:3},{&quot;id&quot;:3937,&quot;token&quot;:&quot;c:1&quot;,&quot;particle_id&quot;:&quot;img3-m166-p1&quot;,&quot;molecule_id&quot;:&quot;img3-m166&quot;,&quot;atom_order&quot;:4},{&quot;id&quot;:3994,&quot;token&quot;:&quot;a:1&quot;,&quot;particle_id&quot;:&quot;img3-m166-p1&quot;,&quot;molecule_id&quot;:&quot;img3-m166&quot;,&quot;atom_order&quot;:5},{&quot;id&quot;:3955,&quot;token&quot;:&quot;b:1&quot;,&quot;particle_id&quot;:&quot;img3-m166-p1&quot;,&quot;molecule_id&quot;:&quot;img3-m166&quot;,&quot;atom_order&quot;:6},{&quot;id&quot;:3996,&quot;token&quot;:&quot;d:1&quot;,&quot;particle_id&quot;:&quot;img3-m166-p1&quot;,&quot;molecule_id&quot;:&quot;img3-m166&quot;,&quot;atom_order&quot;:7}]}</metadata>
  <rect x="0" y="0" width="119" height="113" fill="#f8f0d8"/>
  <image href="file:///C:/Users/HHHES/AppData/Roaming/com.voynichlab.datasetcreator/images/1/35a70f63-88ab-4986-b441-b78046a10087.jpg" x="-1499" y="-2653" width="2972" height="3766" opacity="0.92"/>
  <rect x="0.5" y="0.5" width="118" height="112" fill="none" stroke="#111827" stroke-width="1" opacity="0.35"/>
  <polyline points="60,94 60,95 59,95 59,96 58,96 57,96 57,97 56,97 55,97 54,97 53,97 52,97 51,97 50,97 50,96 49,96 48,96 47,96 47,95 46,95 45,95 45,94 45,93 45,92 45,91 45,90 45,89 45,88 46,88 46,87 46,86 46,85 47,85 47,84 47,83 48,83 48,82 48,81 49,81 50,81 50,80 51,80 51,79 52,79 53,79 53,78 54,78 55,78 56,78 56,77" fill="none" stroke="#f2e45c" stroke-width="3" stroke-linecap="round" stroke-linejoin="round" opacity="0.95">
    <title>3913 e:1</title>
  </polyline>
  <polyline points="55,78 55,79 55,78 55,77 55,76 55,75 55,74 55,73 55,72 55,71 55,70 55,69 55,68 54,68 54,67 54,66 54,65 54,64 54,63 54,62 54,61 54,60 54,59 54,58 54,57 54,56 54,55 54,54 54,53 54,52 54,51 54,50 54,49 54,48 54,47 54,46 53,46 53,45 53,44 53,43 53,42 53,41 53,40 53,39 53,38 53,37 54,36 54,35 54,34 54,33 54,32 54,31 54,30 54,29 54,28 54,27 54,26 54,25 54,24" fill="none" stroke="#00f0b5" stroke-width="3" stroke-linecap="round" stroke-linejoin="round" opacity="0.95">
    <title>3948 a:1</title>
  </polyline>
  <polyline points="70,58 69,58 68,58 67,58 66,58 65,58 64,58 63,58 62,58 61,58 60,58 59,58 58,58 57,58 56,58 55,58 54,58 53,58 52,58 51,58 50,58 49,58 48,58 47,58 47,57 46,57 45,57 44,57" fill="none" stroke="#2f7df6" stroke-width="3" stroke-linecap="round" stroke-linejoin="round" opacity="0.95">
    <title>3995 b:1</title>
  </polyline>
  <polyline points="77,23 78,22 78,21 79,21 79,20 80,20 80,19 81,19 81,18 82,18 82,17 83,17 84,17 84,16 85,16 86,16 87,16 88,16 89,16 90,16 91,16 92,16 93,16 94,16 95,16 96,16 97,17 98,17 98,18 99,18 99,19 100,19 100,20 101,20 101,21 102,21 102,22 102,23 103,23 103,24 103,25 103,26 103,27 102,28 102,29 101,30 100,31 99,31 99,32 98,32 98,33 97,33 96,34 95,34 94,34 94,35 93,35 92,35 91,35 90,35 89,35 88,36 87,36 86,36 85,36 84,36 83,36 83,35 82,35 81,34 80,34 80,33 79,33 78,32 77,32 77,31 77,30 76,30 76,29 76,28 76,27 75,26 75,25 75,24 75,23 76,23 76,22 77,22 78,22" fill="none" stroke="#8aff00" stroke-width="3" stroke-linecap="round" stroke-linejoin="round" opacity="0.95">
    <title>3937 c:1</title>
  </polyline>
  <polyline points="76,24 76,25 76,26 76,27 76,28 76,29 76,30 76,31 75,31 75,32 75,33 75,34 75,35 74,36 74,37 74,38 74,39 73,39 73,40 73,41 73,42 73,43 73,44 73,45 72,46 72,47 72,48 72,49 72,50 72,51 72,52 71,53 71,54 71,55 71,56 71,57 70,57 70,58" fill="none" stroke="#00f0b5" stroke-width="3" stroke-linecap="round" stroke-linejoin="round" opacity="0.95">
    <title>3994 a:1</title>
  </polyline>
  <polyline points="54,30 54,31 54,32 55,32 55,33 56,33 57,34 58,34 59,34 60,35 62,35 63,35 64,35 65,35 66,35 67,35 68,35 69,35 70,35 71,35 72,35 73,35 74,36 75,36 76,36 77,36 78,36 79,36 80,36 81,36 82,36 83,36 84,36 85,36 86,36 87,36 88,36 89,36 90,36 91,36 92,36 93,35 94,35" fill="none" stroke="#2f7df6" stroke-width="3" stroke-linecap="round" stroke-linejoin="round" opacity="0.95">
    <title>3955 b:1</title>
  </polyline>
  <polyline points="19,77 19,76 18,76 18,75 17,74 17,73 16,72 16,71 16,70 16,69 16,68 17,67 17,66 17,65 18,65 18,64 19,64 19,63 20,63 20,62 21,62 22,61 23,61 24,61 24,60 25,60 26,60 27,60 28,59 29,59 30,59 31,59 32,59 32,58 33,58 34,58 35,58 36,58 37,58 38,58 39,58 40,58 41,58 42,58 43,58 44,58 45,58 46,58 47,58 48,58" fill="none" stroke="#ff2d55" stroke-width="3" stroke-linecap="round" stroke-linejoin="round" opacity="0.95">
    <title>3996 d:1</title>
  </polyline>
</svg>
