<?xml version="1.0" encoding="UTF-8"?>
<svg xmlns="http://www.w3.org/2000/svg" width="78" height="89" viewBox="0 0 78 89">
  <title>particle img3-m135-p4 f:1 i:1 d:1</title>
  <metadata>{&quot;entityType&quot;:&quot;particle&quot;,&quot;entityId&quot;:&quot;img3-m135-p4&quot;,&quot;token&quot;:&quot;f:1 i:1 d:1&quot;,&quot;signature&quot;:&quot;f:1 i:1 d:1&quot;,&quot;imageName&quot;:&quot;page-003.jpg&quot;,&quot;imageId&quot;:3,&quot;bounds&quot;:{&quot;x&quot;:667,&quot;y&quot;:2127,&quot;w&quot;:78,&quot;h&quot;:89},&quot;atoms&quot;:[{&quot;id&quot;:3575,&quot;token&quot;:&quot;f:1&quot;,&quot;particle_id&quot;:&quot;img3-m135-p4&quot;,&quot;molecule_id&quot;:&quot;img3-m135&quot;,&quot;atom_order&quot;:1},{&quot;id&quot;:3590,&quot;token&quot;:&quot;i:1&quot;,&quot;particle_id&quot;:&quot;img3-m135-p4&quot;,&quot;molecule_id&quot;:&quot;img3-m135&quot;,&quot;atom_order&quot;:2},{&quot;id&quot;:3599,&quot;token&quot;:&quot;d:1&quot;,&quot;particle_id&quot;:&quot;img3-m135-p4&quot;,&quot;molecule_id&quot;:&quot;img3-m135&quot;,&quot;atom_order&quot;:3}]}</metadata>
  <rect x="0" y="0" width="78" height="89" fill="#f8f0d8"/>
  <image href="file:///C:/Users/HHHES/AppData/Roaming/com.voynichlab.datasetcreator/images/1/35a70f63-88ab-4986-b441-b78046a10087.jpg" x="-667" y="-2127" width="2972" height="3766" opacity="0.92"/>
  <rect x="0.5" y="0.5" width="77" height="88" fill="none" stroke="#111827" stroke-width="1" opacity="0.35"/>
  <polyline points="40,52 40,53 40,54 41,54 41,55 41,56 42,56 42,57 43,58 43,59 44,59 44,60 45,61 45,62 46,62 46,63 47,63 47,64 48,64 48,65 48,66 49,66 49,67 49,68 50,68 50,69 51,69 51,70 52,71 52,72 53,72 53,73" fill="none" stroke="#00a2ff" stroke-width="3" stroke-linecap="round" stroke-linejoin="round" opacity="0.95">
    <title>3575 f:1</title>
  </polyline>
  <polyline points="41,56 42,56 43,56 43,55 44,55 45,55 45,54 46,54 47,54 47,53 48,53 49,53 49,52 50,52 51,52 51,51 52,51 53,51 53,50 54,50 55,49 55,48 56,48 56,47 57,47 57,46 58,46 58,45 58,44 59,44 59,43 60,42 60,41 60,40 61,40 61,39 61,38 61,37 62,36 62,35 62,34 62,33 62,32 62,31 62,30 62,29 61,29 61,28 60,27 60,26 60,25 59,25 59,24 58,24 58,23 57,23 57,22 56,22 55,21" fill="none" stroke="#00ff7f" stroke-width="3" stroke-linecap="round" stroke-linejoin="round" opacity="0.95">
    <title>3590 i:1</title>
  </polyline>
  <polyline points="16,23 16,22 17,22 17,21 18,21 18,20 19,20 20,20 20,19 21,19 22,19 23,19 23,18 24,18 25,18 25,17 26,17 27,17 28,17 29,17 30,16 31,16 32,16 33,16 34,16 35,16 36,16 37,16 38,16 39,16 40,16 41,16 41,17 42,17 43,17 44,17 45,17 46,17 47,17 48,18 49,18 49,19 50,19 51,19 52,20 53,20 54,21 55,22 55,23 56,23" fill="none" stroke="#ff2d55" stroke-width="3" stroke-linecap="round" stroke-linejoin="round" opacity="0.95">
    <title>3599 d:1</title>
  </polyline>
</svg>
