<?xml version="1.0" encoding="UTF-8"?>
<svg xmlns="http://www.w3.org/2000/svg" width="83" height="54" viewBox="0 0 83 54">
  <title>particle img3-m188-p3 e:1 g:1 e:1</title>
  <metadata>{&quot;entityType&quot;:&quot;particle&quot;,&quot;entityId&quot;:&quot;img3-m188-p3&quot;,&quot;token&quot;:&quot;e:1 g:1 e:1&quot;,&quot;signature&quot;:&quot;e:1 g:1 e:1&quot;,&quot;imageName&quot;:&quot;page-003.jpg&quot;,&quot;imageId&quot;:3,&quot;bounds&quot;:{&quot;x&quot;:1454,&quot;y&quot;:2877,&quot;w&quot;:83,&quot;h&quot;:54},&quot;atoms&quot;:[{&quot;id&quot;:4124,&quot;token&quot;:&quot;e:1&quot;,&quot;particle_id&quot;:&quot;img3-m188-p3&quot;,&quot;molecule_id&quot;:&quot;img3-m188&quot;,&quot;atom_order&quot;:1},{&quot;id&quot;:4148,&quot;token&quot;:&quot;g:1&quot;,&quot;particle_id&quot;:&quot;img3-m188-p3&quot;,&quot;molecule_id&quot;:&quot;img3-m188&quot;,&quot;atom_order&quot;:2},{&quot;id&quot;:4127,&quot;token&quot;:&quot;e:1&quot;,&quot;particle_id&quot;:&quot;img3-m188-p3&quot;,&quot;molecule_id&quot;:&quot;img3-m188&quot;,&quot;atom_order&quot;:3}]}</metadata>
  <rect x="0" y="0" width="83" height="54" fill="#f8f0d8"/>
  <image href="file:///C:/Users/HHHES/AppData/Roaming/com.voynichlab.datasetcreator/images/1/35a70f63-88ab-4986-b441-b78046a10087.jpg" x="-1454" y="-2877" width="2972" height="3766" opacity="0.92"/>
  <rect x="0.5" y="0.5" width="82" height="53" fill="none" stroke="#111827" stroke-width="1" opacity="0.35"/>
  <polyline points="31,33 31,34 30,34 30,35 29,35 28,35 28,36 27,36 26,36 25,36 24,36 23,36 22,36 21,36 21,35 20,35 19,35 18,35 18,34 17,34 16,34 16,33 16,32 16,31 16,30 16,29 16,28 16,27 17,27 17,26 17,25 17,24 18,24 18,23 18,22 19,22 19,21 19,20 20,20 21,20 21,19 22,19 22,18 23,18 24,18 24,17 25,17 26,17 27,17 27,16" fill="none" stroke="#f2e45c" stroke-width="3" stroke-linecap="round" stroke-linejoin="round" opacity="0.95">
    <title>4124 e:1</title>
  </polyline>
  <polyline points="24,17 25,17 26,17 27,17 28,17 29,17 30,17 31,17 32,17 32,18 33,18 34,18 35,18 37,18 39,18 41,18 44,19 45,19 46,19 47,19 48,19 50,19 52,20 53,20 54,20 55,20 56,20 57,20 58,20 59,20 60,20 61,20" fill="none" stroke="#7c3cff" stroke-width="3" stroke-linecap="round" stroke-linejoin="round" opacity="0.95">
    <title>4148 g:1</title>
  </polyline>
  <polyline points="67,35 67,36 66,36 66,37 65,37 64,37 64,38 63,38 62,38 61,38 60,38 59,38 58,38 57,38 57,37 56,37 55,37 54,37 54,36 53,36 52,36 52,35 52,34 52,33 52,32 52,31 52,30 52,29 53,29 53,28 53,27 53,26 54,26 54,25 54,24 55,24 55,23 55,22 56,22 57,22 57,21 58,21 58,20 59,20 60,20 60,19 61,19 62,19 63,19 63,18" fill="none" stroke="#f2e45c" stroke-width="3" stroke-linecap="round" stroke-linejoin="round" opacity="0.95">
    <title>4127 e:1</title>
  </polyline>
</svg>
