<?xml version="1.0" encoding="UTF-8"?>
<svg xmlns="http://www.w3.org/2000/svg" width="60" height="79" viewBox="0 0 60 79">
  <title>particle img3-m129-p3 f:1 i:1 d:1</title>
  <metadata>{&quot;entityType&quot;:&quot;particle&quot;,&quot;entityId&quot;:&quot;img3-m129-p3&quot;,&quot;token&quot;:&quot;f:1 i:1 d:1&quot;,&quot;signature&quot;:&quot;f:1 i:1 d:1&quot;,&quot;imageName&quot;:&quot;page-003.jpg&quot;,&quot;imageId&quot;:3,&quot;bounds&quot;:{&quot;x&quot;:1735,&quot;y&quot;:2062,&quot;w&quot;:60,&quot;h&quot;:79},&quot;atoms&quot;:[{&quot;id&quot;:3466,&quot;token&quot;:&quot;f:1&quot;,&quot;particle_id&quot;:&quot;img3-m129-p3&quot;,&quot;molecule_id&quot;:&quot;img3-m129&quot;,&quot;atom_order&quot;:1},{&quot;id&quot;:3654,&quot;token&quot;:&quot;i:1&quot;,&quot;particle_id&quot;:&quot;img3-m129-p3&quot;,&quot;molecule_id&quot;:&quot;img3-m129&quot;,&quot;atom_order&quot;:2},{&quot;id&quot;:3655,&quot;token&quot;:&quot;d:1&quot;,&quot;particle_id&quot;:&quot;img3-m129-p3&quot;,&quot;molecule_id&quot;:&quot;img3-m129&quot;,&quot;atom_order&quot;:3}]}</metadata>
  <rect x="0" y="0" width="60" height="79" fill="#f8f0d8"/>
  <image href="file:///C:/Users/HHHES/AppData/Roaming/com.voynichlab.datasetcreator/images/1/35a70f63-88ab-4986-b441-b78046a10087.jpg" x="-1735" y="-2062" width="2972" height="3766" opacity="0.92"/>
  <rect x="0.5" y="0.5" width="59" height="78" fill="none" stroke="#111827" stroke-width="1" opacity="0.35"/>
  <polyline points="24,42 24,43 24,44 25,44 25,45 25,46 26,46 26,47 27,48 27,49 28,49 28,50 29,51 29,52 30,52 30,53 31,53 31,54 32,54 32,55 32,56 33,56 33,57 33,58 34,58 34,59 35,59 35,60 36,61 36,62 37,62 37,63" fill="none" stroke="#00a2ff" stroke-width="3" stroke-linecap="round" stroke-linejoin="round" opacity="0.95">
    <title>3466 f:1</title>
  </polyline>
  <polyline points="26,47 27,47 27,46 28,46 29,46 29,45 30,45 31,45 31,44 32,44 33,44 33,43 34,43 34,42 35,42 36,41 37,41 37,40 38,39 38,38 39,38 40,37 40,36 41,36 41,35 41,34 42,34 42,33 42,32 43,31 43,30 43,29 44,29 44,28 44,27 44,26 44,25 44,24 44,23 44,22 44,21 43,21 43,20" fill="none" stroke="#00ff7f" stroke-width="3" stroke-linecap="round" stroke-linejoin="round" opacity="0.95">
    <title>3654 i:1</title>
  </polyline>
  <polyline points="16,23 16,22 17,22 18,21 19,21 19,20 20,20 21,20 21,19 22,19 23,19 23,18 24,18 25,18 25,17 26,17 27,17 28,17 29,17 30,17 30,16 31,16 32,16 33,16 34,16 35,16 36,16 37,17 38,17 39,17 40,17 40,18 41,18 41,19 42,19 42,20 43,20" fill="none" stroke="#ff2d55" stroke-width="3" stroke-linecap="round" stroke-linejoin="round" opacity="0.95">
    <title>3655 d:1</title>
  </polyline>
</svg>
