<?xml version="1.0" encoding="UTF-8"?>
<svg xmlns="http://www.w3.org/2000/svg" width="84" height="52" viewBox="0 0 84 52">
  <title>particle img3-m96-p1 e:1 g:1 e:1</title>
  <metadata>{&quot;entityType&quot;:&quot;particle&quot;,&quot;entityId&quot;:&quot;img3-m96-p1&quot;,&quot;token&quot;:&quot;e:1 g:1 e:1&quot;,&quot;signature&quot;:&quot;e:1 g:1 e:1&quot;,&quot;imageName&quot;:&quot;page-003.jpg&quot;,&quot;imageId&quot;:3,&quot;bounds&quot;:{&quot;x&quot;:1276,&quot;y&quot;:1763,&quot;w&quot;:84,&quot;h&quot;:52},&quot;atoms&quot;:[{&quot;id&quot;:2542,&quot;token&quot;:&quot;e:1&quot;,&quot;particle_id&quot;:&quot;img3-m96-p1&quot;,&quot;molecule_id&quot;:&quot;img3-m96&quot;,&quot;atom_order&quot;:1},{&quot;id&quot;:2547,&quot;token&quot;:&quot;g:1&quot;,&quot;particle_id&quot;:&quot;img3-m96-p1&quot;,&quot;molecule_id&quot;:&quot;img3-m96&quot;,&quot;atom_order&quot;:2},{&quot;id&quot;:2543,&quot;token&quot;:&quot;e:1&quot;,&quot;particle_id&quot;:&quot;img3-m96-p1&quot;,&quot;molecule_id&quot;:&quot;img3-m96&quot;,&quot;atom_order&quot;:3}]}</metadata>
  <rect x="0" y="0" width="84" height="52" fill="#f8f0d8"/>
  <image href="file:///C:/Users/HHHES/AppData/Roaming/com.voynichlab.datasetcreator/images/1/35a70f63-88ab-4986-b441-b78046a10087.jpg" x="-1276" y="-1763" width="2972" height="3766" opacity="0.92"/>
  <rect x="0.5" y="0.5" width="83" height="51" fill="none" stroke="#111827" stroke-width="1" opacity="0.35"/>
  <polyline points="31,33 31,34 30,34 30,35 29,35 28,35 28,36 27,36 26,36 25,36 24,36 23,36 22,36 21,36 21,35 20,35 19,35 18,35 18,34 17,34 16,34 16,33 16,32 16,31 16,30 16,29 16,28 16,27 17,27 17,26 17,25 17,24 18,24 18,23 18,22 19,22 19,21 19,20 20,20 21,20 21,19 22,19 22,18 23,18 24,18 24,17 25,17 26,17 27,17 27,16" fill="none" stroke="#f2e45c" stroke-width="3" stroke-linecap="round" stroke-linejoin="round" opacity="0.95">
    <title>2542 e:1</title>
  </polyline>
  <polyline points="27,16 28,16 29,16 30,16 31,16 32,16 33,16 34,16 35,16 36,16 37,16 38,16 39,16 40,16 41,16 42,16 43,16 44,16 45,16 46,16 47,16 48,16 49,16 50,16 51,16 52,16 53,16 54,16 55,16 56,16 57,16 58,16 59,16 60,16 61,16 62,16 63,16 64,16" fill="none" stroke="#7c3cff" stroke-width="3" stroke-linecap="round" stroke-linejoin="round" opacity="0.95">
    <title>2547 g:1</title>
  </polyline>
  <polyline points="68,33 68,34 67,34 67,35 66,35 65,35 65,36 64,36 63,36 62,36 61,36 60,36 59,36 58,36 58,35 57,35 56,35 55,35 55,34 54,34 53,34 53,33 53,32 53,31 53,30 53,29 53,28 53,27 54,27 54,26 54,25 54,24 55,24 55,23 55,22 56,22 56,21 56,20 57,20 58,20 58,19 59,19 59,18 60,18 61,18 61,17 62,17 63,17 64,17 64,16" fill="none" stroke="#f2e45c" stroke-width="3" stroke-linecap="round" stroke-linejoin="round" opacity="0.95">
    <title>2543 e:1</title>
  </polyline>
</svg>
