<?xml version="1.0" encoding="UTF-8"?>
<svg xmlns="http://www.w3.org/2000/svg" width="102" height="77" viewBox="0 0 102 77">
  <title>particle img3-m93-p2 k:1 f:1 i:1 d:1</title>
  <metadata>{&quot;entityType&quot;:&quot;particle&quot;,&quot;entityId&quot;:&quot;img3-m93-p2&quot;,&quot;token&quot;:&quot;k:1 f:1 i:1 d:1&quot;,&quot;signature&quot;:&quot;k:1 f:1 i:1 d:1&quot;,&quot;imageName&quot;:&quot;page-003.jpg&quot;,&quot;imageId&quot;:3,&quot;bounds&quot;:{&quot;x&quot;:742,&quot;y&quot;:1739,&quot;w&quot;:102,&quot;h&quot;:77},&quot;atoms&quot;:[{&quot;id&quot;:2595,&quot;token&quot;:&quot;k:1&quot;,&quot;particle_id&quot;:&quot;img3-m93-p2&quot;,&quot;molecule_id&quot;:&quot;img3-m93&quot;,&quot;atom_order&quot;:1},{&quot;id&quot;:2590,&quot;token&quot;:&quot;f:1&quot;,&quot;particle_id&quot;:&quot;img3-m93-p2&quot;,&quot;molecule_id&quot;:&quot;img3-m93&quot;,&quot;atom_order&quot;:2},{&quot;id&quot;:2591,&quot;token&quot;:&quot;i:1&quot;,&quot;particle_id&quot;:&quot;img3-m93-p2&quot;,&quot;molecule_id&quot;:&quot;img3-m93&quot;,&quot;atom_order&quot;:3},{&quot;id&quot;:2594,&quot;token&quot;:&quot;d:1&quot;,&quot;particle_id&quot;:&quot;img3-m93-p2&quot;,&quot;molecule_id&quot;:&quot;img3-m93&quot;,&quot;atom_order&quot;:4}]}</metadata>
  <rect x="0" y="0" width="102" height="77" fill="#f8f0d8"/>
  <image href="file:///C:/Users/HHHES/AppData/Roaming/com.voynichlab.datasetcreator/images/1/35a70f63-88ab-4986-b441-b78046a10087.jpg" x="-742" y="-1739" width="2972" height="3766" opacity="0.92"/>
  <rect x="0.5" y="0.5" width="101" height="76" fill="none" stroke="#111827" stroke-width="1" opacity="0.35"/>
  <polyline points="16,44 17,44 17,45 18,45 18,46 18,47 19,47 19,48 20,49 20,50 20,51 21,51 21,52 22,53 22,54 23,54 23,55 23,56 24,56 24,57 25,58 25,59 26,59 27,59 27,60 28,60 28,59 29,59 29,58 30,58 30,57 31,57 31,56 31,55 32,55 32,54 32,53 33,53 33,52 33,51 34,51 34,50 35,50 35,49 36,48 36,47 37,47 37,46 37,45 38,45 38,44 39,44 39,45 39,46 40,46 40,47 41,47 41,48 42,48 42,49 43,50 44,51 44,52 45,52 45,53 46,53 46,54 47,54 47,55 48,55 48,56 49,56 50,56 51,56 51,55 52,55 52,54 52,53 53,53 53,52 54,52 54,51 55,51 55,50 56,50 56,49 57,49 57,48 58,48 58,47 59,47 59,46 60,46 61,45 62,44 63,43 63,42 64,42 64,41" fill="none" stroke="#ffffff" stroke-width="3" stroke-linecap="round" stroke-linejoin="round" opacity="0.95">
    <title>2595 k:1</title>
  </polyline>
  <polyline points="64,40 64,41 64,42 65,42 65,43 65,44 66,44 66,45 67,46 67,47 68,47 68,48 69,49 69,50 70,50 70,51 71,51 71,52 72,52 72,53 72,54 73,54 73,55 73,56 74,56 74,57 75,57 75,58 76,59 76,60 77,60 77,61" fill="none" stroke="#00a2ff" stroke-width="3" stroke-linecap="round" stroke-linejoin="round" opacity="0.95">
    <title>2590 f:1</title>
  </polyline>
  <polyline points="77,60 78,60 78,59 79,58 80,58 80,57 81,57 81,56 82,56 82,55 83,54 83,53 84,53 84,52 84,51 85,51 85,50 85,49 86,49 86,48 86,47 86,46 86,45 86,44 86,43 86,42 86,41 86,40 86,39 86,38 86,37 86,36 86,35 86,34 85,34 85,33 85,32 84,31 84,30 84,29 83,29 83,28 83,27 82,27 82,26 81,26 81,25 80,25 79,24 78,24 78,23 77,23 77,22 76,22 75,22 75,21" fill="none" stroke="#00ff7f" stroke-width="3" stroke-linecap="round" stroke-linejoin="round" opacity="0.95">
    <title>2591 i:1</title>
  </polyline>
  <polyline points="19,26 20,26 21,26 21,25 22,25 23,25 24,25 24,24 25,24 26,24 27,24 27,23 28,23 29,23 30,22 31,22 32,22 32,21 33,21 34,21 35,21 35,20 36,20 37,20 37,19 38,19 39,19 40,19 41,19 42,19 43,19 44,19 44,18 45,18 46,18 47,18 48,18 49,18 49,17 50,17 51,17 52,17 53,17 54,17 55,16 56,16 57,16 58,16 59,16 60,16 61,16 62,16 63,16 63,17 64,17 65,17 66,18 67,18 68,18 68,19 69,19 70,19 71,19 71,20 72,20 73,20 73,21 74,21 75,21 76,21 76,22" fill="none" stroke="#ff2d55" stroke-width="3" stroke-linecap="round" stroke-linejoin="round" opacity="0.95">
    <title>2594 d:1</title>
  </polyline>
</svg>
