<?xml version="1.0" encoding="UTF-8"?>
<svg xmlns="http://www.w3.org/2000/svg" width="83" height="102" viewBox="0 0 83 102">
  <title>particle img3-m2-p4 e:1 i:1 d:1</title>
  <metadata>{&quot;entityType&quot;:&quot;particle&quot;,&quot;entityId&quot;:&quot;img3-m2-p4&quot;,&quot;token&quot;:&quot;e:1 i:1 d:1&quot;,&quot;signature&quot;:&quot;e:1 i:1 d:1&quot;,&quot;imageName&quot;:&quot;page-003.jpg&quot;,&quot;imageId&quot;:3,&quot;bounds&quot;:{&quot;x&quot;:1901,&quot;y&quot;:471,&quot;w&quot;:83,&quot;h&quot;:102},&quot;atoms&quot;:[{&quot;id&quot;:1091,&quot;token&quot;:&quot;e:1&quot;,&quot;particle_id&quot;:&quot;img3-m2-p4&quot;,&quot;molecule_id&quot;:&quot;img3-m2&quot;,&quot;atom_order&quot;:1},{&quot;id&quot;:1110,&quot;token&quot;:&quot;i:1&quot;,&quot;particle_id&quot;:&quot;img3-m2-p4&quot;,&quot;molecule_id&quot;:&quot;img3-m2&quot;,&quot;atom_order&quot;:2},{&quot;id&quot;:1111,&quot;token&quot;:&quot;d:1&quot;,&quot;particle_id&quot;:&quot;img3-m2-p4&quot;,&quot;molecule_id&quot;:&quot;img3-m2&quot;,&quot;atom_order&quot;:3}]}</metadata>
  <rect x="0" y="0" width="83" height="102" fill="#f8f0d8"/>
  <image href="file:///C:/Users/HHHES/AppData/Roaming/com.voynichlab.datasetcreator/images/1/35a70f63-88ab-4986-b441-b78046a10087.jpg" x="-1901" y="-471" width="2972" height="3766" opacity="0.92"/>
  <rect x="0.5" y="0.5" width="82" height="101" fill="none" stroke="#111827" stroke-width="1" opacity="0.35"/>
  <polyline points="53,83 53,84 52,84 52,85 51,85 50,85 50,86 49,86 48,86 47,86 46,86 45,86 44,86 43,86 43,85 42,85 41,85 40,85 40,84 39,84 38,84 38,83 38,82 38,81 38,80 38,79 38,78 38,77 39,77 39,76 39,75 39,74 40,74 40,73 40,72 41,72 41,71 41,70 42,70 43,70 43,69 44,69 44,68 45,68 46,68 46,67 47,67 48,67 49,67 49,66" fill="none" stroke="#f2e45c" stroke-width="3" stroke-linecap="round" stroke-linejoin="round" opacity="0.95">
    <title>1091 e:1</title>
  </polyline>
  <polyline points="48,67 49,67 49,66 50,66 51,66 51,65 52,65 53,65 53,64 54,64 55,64 55,63 56,63 56,62 57,62 58,61 59,61 59,60 60,60 60,59 61,59 61,58 62,58 62,57 63,57 63,56 64,56 64,55 64,54 65,54 65,53 65,52 66,51 66,50 66,49 66,48 67,47 67,46 67,45 67,44 67,43 67,42 67,41 67,40 67,39 67,38 66,38 66,37 66,36 66,35 66,34 65,34 65,33 65,32 64,31 64,30 64,29 63,29 63,28 62,28 62,27 62,26 61,26" fill="none" stroke="#00ff7f" stroke-width="3" stroke-linecap="round" stroke-linejoin="round" opacity="0.95">
    <title>1110 i:1</title>
  </polyline>
  <polyline points="16,22 16,21 17,21 18,21 18,20 19,20 19,19 20,19 21,19 21,18 22,18 23,18 24,18 24,17 25,17 26,17 27,17 28,17 29,16 30,16 31,16 32,16 33,16 34,16 35,16 36,16 37,16 38,16 39,16 40,16 41,16 42,16 42,17 43,17 44,17 45,17 46,17 47,17 48,17 48,18 49,18 50,18 50,19 51,19 52,19 52,20 53,20 53,21 54,21 55,21 55,22 56,22 57,23 58,23 58,24 59,24 59,25 60,25 60,26 61,26" fill="none" stroke="#ff2d55" stroke-width="3" stroke-linecap="round" stroke-linejoin="round" opacity="0.95">
    <title>1111 d:1</title>
  </polyline>
</svg>
