<?xml version="1.0" encoding="UTF-8"?>
<svg xmlns="http://www.w3.org/2000/svg" width="69" height="94" viewBox="0 0 69 94">
  <title>particle img3-m42-p4 f:1 i:1 d:1</title>
  <metadata>{&quot;entityType&quot;:&quot;particle&quot;,&quot;entityId&quot;:&quot;img3-m42-p4&quot;,&quot;token&quot;:&quot;f:1 i:1 d:1&quot;,&quot;signature&quot;:&quot;f:1 i:1 d:1&quot;,&quot;imageName&quot;:&quot;page-003.jpg&quot;,&quot;imageId&quot;:3,&quot;bounds&quot;:{&quot;x&quot;:888,&quot;y&quot;:841,&quot;w&quot;:69,&quot;h&quot;:94},&quot;atoms&quot;:[{&quot;id&quot;:1645,&quot;token&quot;:&quot;f:1&quot;,&quot;particle_id&quot;:&quot;img3-m42-p4&quot;,&quot;molecule_id&quot;:&quot;img3-m42&quot;,&quot;atom_order&quot;:1},{&quot;id&quot;:1646,&quot;token&quot;:&quot;i:1&quot;,&quot;particle_id&quot;:&quot;img3-m42-p4&quot;,&quot;molecule_id&quot;:&quot;img3-m42&quot;,&quot;atom_order&quot;:2},{&quot;id&quot;:1647,&quot;token&quot;:&quot;d:1&quot;,&quot;particle_id&quot;:&quot;img3-m42-p4&quot;,&quot;molecule_id&quot;:&quot;img3-m42&quot;,&quot;atom_order&quot;:3}]}</metadata>
  <rect x="0" y="0" width="69" height="94" fill="#f8f0d8"/>
  <image href="file:///C:/Users/HHHES/AppData/Roaming/com.voynichlab.datasetcreator/images/1/35a70f63-88ab-4986-b441-b78046a10087.jpg" x="-888" y="-841" width="2972" height="3766" opacity="0.92"/>
  <rect x="0.5" y="0.5" width="68" height="93" fill="none" stroke="#111827" stroke-width="1" opacity="0.35"/>
  <polyline points="38,78 38,77 37,77 37,76 37,75 36,75 36,74 35,74 35,73 35,72 34,72 34,71 34,70 34,69 33,69 33,68 32,68 32,67 32,66 31,66 31,65 31,64 30,64 30,63 30,62 30,61 30,60 29,59" fill="none" stroke="#00a2ff" stroke-width="3" stroke-linecap="round" stroke-linejoin="round" opacity="0.95">
    <title>1645 f:1</title>
  </polyline>
  <polyline points="31,63 32,63 33,63 34,63 35,63 36,63 37,63 37,62 38,62 39,61 40,61 40,60 41,60 41,59 42,59 42,58 43,58 43,57 44,57 44,56 45,56 45,55 45,54 46,54 46,53 47,53 47,52 47,51 48,51 48,50 49,49 49,48 49,47 50,47 50,46 50,45 50,44 51,44 51,43 51,42 51,41 51,40 52,39 52,38 52,37 52,36 53,35 53,34 52,34 52,33 52,32 52,31 52,30 52,29 52,28 52,27 51,27 51,26 50,25" fill="none" stroke="#00ff7f" stroke-width="3" stroke-linecap="round" stroke-linejoin="round" opacity="0.95">
    <title>1646 i:1</title>
  </polyline>
  <polyline points="16,23 17,22 18,22 18,21 19,21 19,20 20,20 20,19 21,19 22,18 23,18 24,17 25,17 26,17 27,17 28,17 28,16 29,16 30,16 31,16 32,16 33,16 34,16 35,16 36,16 37,16 37,17 38,17 39,17 40,17 41,17 41,18 42,18 43,18 44,19 45,19 45,20 46,20 47,21 48,21 48,22 49,23 50,24 50,25 51,25 51,26" fill="none" stroke="#ff2d55" stroke-width="3" stroke-linecap="round" stroke-linejoin="round" opacity="0.95">
    <title>1647 d:1</title>
  </polyline>
</svg>
