<?xml version="1.0" encoding="UTF-8"?>
<svg xmlns="http://www.w3.org/2000/svg" width="83" height="53" viewBox="0 0 83 53">
  <title>particle img3-m176-p2 e:1 g:1 e:1</title>
  <metadata>{&quot;entityType&quot;:&quot;particle&quot;,&quot;entityId&quot;:&quot;img3-m176-p2&quot;,&quot;token&quot;:&quot;e:1 g:1 e:1&quot;,&quot;signature&quot;:&quot;e:1 g:1 e:1&quot;,&quot;imageName&quot;:&quot;page-003.jpg&quot;,&quot;imageId&quot;:3,&quot;bounds&quot;:{&quot;x&quot;:554,&quot;y&quot;:2759,&quot;w&quot;:83,&quot;h&quot;:53},&quot;atoms&quot;:[{&quot;id&quot;:4002,&quot;token&quot;:&quot;e:1&quot;,&quot;particle_id&quot;:&quot;img3-m176-p2&quot;,&quot;molecule_id&quot;:&quot;img3-m176&quot;,&quot;atom_order&quot;:1},{&quot;id&quot;:4031,&quot;token&quot;:&quot;g:1&quot;,&quot;particle_id&quot;:&quot;img3-m176-p2&quot;,&quot;molecule_id&quot;:&quot;img3-m176&quot;,&quot;atom_order&quot;:2},{&quot;id&quot;:4003,&quot;token&quot;:&quot;e:1&quot;,&quot;particle_id&quot;:&quot;img3-m176-p2&quot;,&quot;molecule_id&quot;:&quot;img3-m176&quot;,&quot;atom_order&quot;:3}]}</metadata>
  <rect x="0" y="0" width="83" height="53" fill="#f8f0d8"/>
  <image href="file:///C:/Users/HHHES/AppData/Roaming/com.voynichlab.datasetcreator/images/1/35a70f63-88ab-4986-b441-b78046a10087.jpg" x="-554" y="-2759" width="2972" height="3766" opacity="0.92"/>
  <rect x="0.5" y="0.5" width="82" height="52" fill="none" stroke="#111827" stroke-width="1" opacity="0.35"/>
  <polyline points="31,33 31,34 30,34 30,35 29,35 28,35 28,36 27,36 26,36 25,36 24,36 23,36 22,36 21,36 21,35 20,35 19,35 18,35 18,34 17,34 16,34 16,33 16,32 16,31 16,30 16,29 16,28 16,27 17,27 17,26 17,25 17,24 18,24 18,23 18,22 19,22 19,21 19,20 20,20 21,20 21,19 22,19 22,18 23,18 24,18 24,17 25,17 26,17 27,17 27,16" fill="none" stroke="#f2e45c" stroke-width="3" stroke-linecap="round" stroke-linejoin="round" opacity="0.95">
    <title>4002 e:1</title>
  </polyline>
  <polyline points="26,17 27,17 28,17 29,17 30,17 31,16 32,16 33,16 34,16 35,16 36,16 37,16 38,16 39,16 39,17 40,17 41,17 42,17 43,17 44,17 45,17 46,17 47,17 48,17 49,17 50,17 51,17 52,17 53,17 54,17 55,17 56,18 57,18 58,18 59,18 60,18 61,18 62,18" fill="none" stroke="#7c3cff" stroke-width="3" stroke-linecap="round" stroke-linejoin="round" opacity="0.95">
    <title>4031 g:1</title>
  </polyline>
  <polyline points="67,34 67,35 66,35 66,36 65,36 64,36 64,37 63,37 62,37 61,37 60,37 59,37 58,37 57,37 57,36 56,36 55,36 54,36 54,35 53,35 52,35 52,34 52,33 52,32 52,31 52,30 52,29 52,28 53,28 53,27 53,26 53,25 54,25 54,24 54,23 55,23 55,22 55,21 56,21 57,21 57,20 58,20 58,19 59,19 60,19 60,18 61,18 62,18 63,18 63,17" fill="none" stroke="#f2e45c" stroke-width="3" stroke-linecap="round" stroke-linejoin="round" opacity="0.95">
    <title>4003 e:1</title>
  </polyline>
</svg>
