<?xml version="1.0" encoding="UTF-8"?>
<svg xmlns="http://www.w3.org/2000/svg" width="63" height="81" viewBox="0 0 63 81">
  <title>particle img3-m160-p3 f:1 i:1 d:1</title>
  <metadata>{&quot;entityType&quot;:&quot;particle&quot;,&quot;entityId&quot;:&quot;img3-m160-p3&quot;,&quot;token&quot;:&quot;f:1 i:1 d:1&quot;,&quot;signature&quot;:&quot;f:1 i:1 d:1&quot;,&quot;imageName&quot;:&quot;page-003.jpg&quot;,&quot;imageId&quot;:3,&quot;bounds&quot;:{&quot;x&quot;:2217,&quot;y&quot;:2612,&quot;w&quot;:63,&quot;h&quot;:81},&quot;atoms&quot;:[{&quot;id&quot;:3868,&quot;token&quot;:&quot;f:1&quot;,&quot;particle_id&quot;:&quot;img3-m160-p3&quot;,&quot;molecule_id&quot;:&quot;img3-m160&quot;,&quot;atom_order&quot;:1},{&quot;id&quot;:3879,&quot;token&quot;:&quot;i:1&quot;,&quot;particle_id&quot;:&quot;img3-m160-p3&quot;,&quot;molecule_id&quot;:&quot;img3-m160&quot;,&quot;atom_order&quot;:2},{&quot;id&quot;:3887,&quot;token&quot;:&quot;d:1&quot;,&quot;particle_id&quot;:&quot;img3-m160-p3&quot;,&quot;molecule_id&quot;:&quot;img3-m160&quot;,&quot;atom_order&quot;:3}]}</metadata>
  <rect x="0" y="0" width="63" height="81" fill="#f8f0d8"/>
  <image href="file:///C:/Users/HHHES/AppData/Roaming/com.voynichlab.datasetcreator/images/1/35a70f63-88ab-4986-b441-b78046a10087.jpg" x="-2217" y="-2612" width="2972" height="3766" opacity="0.92"/>
  <rect x="0.5" y="0.5" width="62" height="80" fill="none" stroke="#111827" stroke-width="1" opacity="0.35"/>
  <polyline points="16,44 16,45 16,46 17,46 17,47 17,48 18,48 18,49 19,50 19,51 20,51 20,52 21,53 21,54 22,54 22,55 23,55 23,56 24,56 24,57 24,58 25,58 25,59 25,60 26,60 26,61 27,61 27,62 28,63 28,64 29,64 29,65" fill="none" stroke="#00a2ff" stroke-width="3" stroke-linecap="round" stroke-linejoin="round" opacity="0.95">
    <title>3868 f:1</title>
  </polyline>
  <polyline points="16,45 17,45 18,45 19,45 20,45 21,45 22,45 23,45 24,45 25,45 26,45 27,45 28,45 29,45 30,45 31,45 32,45 33,44 34,44 35,44 36,44 37,43 38,43 39,43 39,42 40,42 41,42 41,41 42,41 43,40 43,39 44,39 44,38 45,38 45,37 46,36 46,35 47,34 47,33 47,32 47,31 47,30 46,29 46,28 46,27 45,26 45,25 44,25 44,24 44,23 43,23 43,22" fill="none" stroke="#00ff7f" stroke-width="3" stroke-linecap="round" stroke-linejoin="round" opacity="0.95">
    <title>3879 i:1</title>
  </polyline>
  <polyline points="20,25 21,25 21,24 22,24 22,23 23,22 23,21 24,21 25,20 26,20 26,19 27,19 27,18 28,18 28,17 29,17 30,16 31,16 32,16 33,16 34,16 35,16 36,16 37,16 38,16 39,16 39,17 40,17 40,18 41,18 41,19 42,20 43,20 43,21 44,22 44,23 44,24 45,24" fill="none" stroke="#ff2d55" stroke-width="3" stroke-linecap="round" stroke-linejoin="round" opacity="0.95">
    <title>3887 d:1</title>
  </polyline>
</svg>
