<?xml version="1.0" encoding="UTF-8"?>
<svg xmlns="http://www.w3.org/2000/svg" width="71" height="71" viewBox="0 0 71 71">
  <title>particle img3-m4-p2 f:1 j:1</title>
  <metadata>{&quot;entityType&quot;:&quot;particle&quot;,&quot;entityId&quot;:&quot;img3-m4-p2&quot;,&quot;token&quot;:&quot;f:1 j:1&quot;,&quot;signature&quot;:&quot;f:1 j:1&quot;,&quot;imageName&quot;:&quot;page-003.jpg&quot;,&quot;imageId&quot;:3,&quot;bounds&quot;:{&quot;x&quot;:1442,&quot;y&quot;:513,&quot;w&quot;:71,&quot;h&quot;:71},&quot;atoms&quot;:[{&quot;id&quot;:1071,&quot;token&quot;:&quot;f:1&quot;,&quot;particle_id&quot;:&quot;img3-m4-p2&quot;,&quot;molecule_id&quot;:&quot;img3-m4&quot;,&quot;atom_order&quot;:1},{&quot;id&quot;:1074,&quot;token&quot;:&quot;j:1&quot;,&quot;particle_id&quot;:&quot;img3-m4-p2&quot;,&quot;molecule_id&quot;:&quot;img3-m4&quot;,&quot;atom_order&quot;:2}]}</metadata>
  <rect x="0" y="0" width="71" height="71" fill="#f8f0d8"/>
  <image href="file:///C:/Users/HHHES/AppData/Roaming/com.voynichlab.datasetcreator/images/1/35a70f63-88ab-4986-b441-b78046a10087.jpg" x="-1442" y="-513" width="2972" height="3766" opacity="0.92"/>
  <rect x="0.5" y="0.5" width="70" height="70" fill="none" stroke="#111827" stroke-width="1" opacity="0.35"/>
  <polyline points="38,21 38,22 38,23 39,23 39,24 39,25 40,25 40,26 41,27 41,28 42,28 42,29 43,30 43,31 44,31 44,32 45,32 45,33 46,33 46,34 46,35 47,35 47,36 47,37 48,37 48,38 49,38 49,39 50,40 50,41 51,41 51,42" fill="none" stroke="#00a2ff" stroke-width="3" stroke-linecap="round" stroke-linejoin="round" opacity="0.95">
    <title>1071 f:1</title>
  </polyline>
  <polyline points="38,21 39,21 39,20 40,20 41,20 41,19 42,19 42,18 43,18 44,18 44,17 45,17 46,17 47,17 47,16 48,16 49,16 50,16 51,16 52,16 53,16 54,16 54,17 55,17 55,18 55,19 55,20 55,21 55,22 55,23 55,24 55,25 54,26 53,27 53,28 52,28 52,29 51,29 51,30 50,30 50,31 49,31 49,32 48,32 48,33 47,33 46,34 45,34 45,35 44,35 44,36 43,36 42,37 41,37 41,38 40,38 39,39 38,39 38,40 37,40 36,41 35,41 35,42 34,42 33,43 32,44 31,44 31,45 30,45 29,45 29,46 28,46 27,46 27,47 26,47 25,47 25,48 24,48 24,49 23,49 23,50 22,50 22,51 21,51 21,52 20,52 19,53 18,53 18,54 17,54 17,55 16,55" fill="none" stroke="#4a9e6a" stroke-width="3" stroke-linecap="round" stroke-linejoin="round" opacity="0.95">
    <title>1074 j:1</title>
  </polyline>
</svg>
