<?xml version="1.0" encoding="UTF-8"?>
<svg xmlns="http://www.w3.org/2000/svg" width="51" height="69" viewBox="0 0 51 69">
  <title>particle img3-m65-p1 n:1</title>
  <metadata>{&quot;entityType&quot;:&quot;particle&quot;,&quot;entityId&quot;:&quot;img3-m65-p1&quot;,&quot;token&quot;:&quot;n:1&quot;,&quot;signature&quot;:&quot;n:1&quot;,&quot;imageName&quot;:&quot;page-003.jpg&quot;,&quot;imageId&quot;:3,&quot;bounds&quot;:{&quot;x&quot;:764,&quot;y&quot;:1212,&quot;w&quot;:51,&quot;h&quot;:69},&quot;atoms&quot;:[{&quot;id&quot;:3673,&quot;token&quot;:&quot;n:1&quot;,&quot;particle_id&quot;:&quot;img3-m65-p1&quot;,&quot;molecule_id&quot;:&quot;img3-m65&quot;,&quot;atom_order&quot;:1}]}</metadata>
  <rect x="0" y="0" width="51" height="69" fill="#f8f0d8"/>
  <image href="file:///C:/Users/HHHES/AppData/Roaming/com.voynichlab.datasetcreator/images/1/35a70f63-88ab-4986-b441-b78046a10087.jpg" x="-764" y="-1212" width="2972" height="3766" opacity="0.92"/>
  <rect x="0.5" y="0.5" width="50" height="68" fill="none" stroke="#111827" stroke-width="1" opacity="0.35"/>
  <polyline points="17,36 17,35 17,34 16,34 16,33 16,32 16,31 16,30 16,29 16,28 16,27 16,26 16,25 16,24 17,24 17,23 17,22 17,21 18,20 18,19 19,19 19,18 20,18 20,17 21,17 22,16 23,16 24,16 25,16 26,16 27,16 28,16 29,17 29,18 30,18 30,19 31,19 31,20 32,20 32,21 33,22 33,23 34,24 34,25 35,26 35,27 35,28 35,29 35,30 35,31 35,32 35,33 35,34 35,35 35,36 34,37 34,38 34,39 33,39 33,40 33,41 32,41 32,42 31,43 30,44 29,45 29,46 28,47 27,48 26,48 26,49 25,49 25,50 24,50 24,51 23,51 22,52 21,52 21,53 20,53" fill="none" stroke="#f92f59" stroke-width="3" stroke-linecap="round" stroke-linejoin="round" opacity="0.95">
    <title>3673 n:1</title>
  </polyline>
</svg>
