<?xml version="1.0" encoding="UTF-8"?>
<svg xmlns="http://www.w3.org/2000/svg" width="81" height="52" viewBox="0 0 81 52">
  <title>particle img3-m54-p1 e:1 g:1 e:1</title>
  <metadata>{&quot;entityType&quot;:&quot;particle&quot;,&quot;entityId&quot;:&quot;img3-m54-p1&quot;,&quot;token&quot;:&quot;e:1 g:1 e:1&quot;,&quot;signature&quot;:&quot;e:1 g:1 e:1&quot;,&quot;imageName&quot;:&quot;page-003.jpg&quot;,&quot;imageId&quot;:3,&quot;bounds&quot;:{&quot;x&quot;:1410,&quot;y&quot;:1154,&quot;w&quot;:81,&quot;h&quot;:52},&quot;atoms&quot;:[{&quot;id&quot;:1931,&quot;token&quot;:&quot;e:1&quot;,&quot;particle_id&quot;:&quot;img3-m54-p1&quot;,&quot;molecule_id&quot;:&quot;img3-m54&quot;,&quot;atom_order&quot;:1},{&quot;id&quot;:1969,&quot;token&quot;:&quot;g:1&quot;,&quot;particle_id&quot;:&quot;img3-m54-p1&quot;,&quot;molecule_id&quot;:&quot;img3-m54&quot;,&quot;atom_order&quot;:2},{&quot;id&quot;:1932,&quot;token&quot;:&quot;e:1&quot;,&quot;particle_id&quot;:&quot;img3-m54-p1&quot;,&quot;molecule_id&quot;:&quot;img3-m54&quot;,&quot;atom_order&quot;:3}]}</metadata>
  <rect x="0" y="0" width="81" height="52" fill="#f8f0d8"/>
  <image href="file:///C:/Users/HHHES/AppData/Roaming/com.voynichlab.datasetcreator/images/1/35a70f63-88ab-4986-b441-b78046a10087.jpg" x="-1410" y="-1154" width="2972" height="3766" opacity="0.92"/>
  <rect x="0.5" y="0.5" width="80" height="51" fill="none" stroke="#111827" stroke-width="1" opacity="0.35"/>
  <polyline points="31,33 31,34 30,34 30,35 29,35 28,35 28,36 27,36 26,36 25,36 24,36 23,36 22,36 21,36 21,35 20,35 19,35 18,35 18,34 17,34 16,34 16,33 16,32 16,31 16,30 16,29 16,28 16,27 17,27 17,26 17,25 17,24 18,24 18,23 18,22 19,22 19,21 19,20 20,20 21,20 21,19 22,19 22,18 23,18 24,18 24,17 25,17 26,17 27,17 27,16" fill="none" stroke="#f2e45c" stroke-width="3" stroke-linecap="round" stroke-linejoin="round" opacity="0.95">
    <title>1931 e:1</title>
  </polyline>
  <polyline points="27,17 28,17 29,17 30,17 31,17 32,17 33,17 34,17 35,17 36,17 37,17 38,17 39,17 40,17 41,17 42,17 43,17 44,17 45,17 46,17 47,17 48,17 49,17 50,17 51,17 52,17 53,17 54,17 56,17 57,17 58,17 59,17 60,17 61,17 62,17 63,17 64,17" fill="none" stroke="#7c3cff" stroke-width="3" stroke-linecap="round" stroke-linejoin="round" opacity="0.95">
    <title>1969 g:1</title>
  </polyline>
  <polyline points="62,32 62,33 60,33 60,34 59,34 58,34 57,34 56,34 55,34 54,34 53,34 52,33 51,33 51,32 50,32 50,31 50,30 50,29 50,28 50,27 50,26 51,26 51,25 52,25 52,24 53,24 53,23 53,22 54,22 55,22 55,21 56,21 56,20 57,20 58,19 59,19 60,19 60,18 61,18 62,18 63,18 64,18 64,17 65,17" fill="none" stroke="#f2e45c" stroke-width="3" stroke-linecap="round" stroke-linejoin="round" opacity="0.95">
    <title>1932 e:1</title>
  </polyline>
</svg>
