<?xml version="1.0" encoding="UTF-8"?>
<svg xmlns="http://www.w3.org/2000/svg" width="120" height="93" viewBox="0 0 120 93">
  <title>particle img3-m79-p5 l:1 f:1 i:1 d:1</title>
  <metadata>{&quot;entityType&quot;:&quot;particle&quot;,&quot;entityId&quot;:&quot;img3-m79-p5&quot;,&quot;token&quot;:&quot;l:1 f:1 i:1 d:1&quot;,&quot;signature&quot;:&quot;l:1 f:1 i:1 d:1&quot;,&quot;imageName&quot;:&quot;page-003.jpg&quot;,&quot;imageId&quot;:3,&quot;bounds&quot;:{&quot;x&quot;:1126,&quot;y&quot;:1545,&quot;w&quot;:120,&quot;h&quot;:93},&quot;atoms&quot;:[{&quot;id&quot;:2260,&quot;token&quot;:&quot;l:1&quot;,&quot;particle_id&quot;:&quot;img3-m79-p5&quot;,&quot;molecule_id&quot;:&quot;img3-m79&quot;,&quot;atom_order&quot;:1},{&quot;id&quot;:2261,&quot;token&quot;:&quot;f:1&quot;,&quot;particle_id&quot;:&quot;img3-m79-p5&quot;,&quot;molecule_id&quot;:&quot;img3-m79&quot;,&quot;atom_order&quot;:2},{&quot;id&quot;:2262,&quot;token&quot;:&quot;i:1&quot;,&quot;particle_id&quot;:&quot;img3-m79-p5&quot;,&quot;molecule_id&quot;:&quot;img3-m79&quot;,&quot;atom_order&quot;:3},{&quot;id&quot;:2263,&quot;token&quot;:&quot;d:1&quot;,&quot;particle_id&quot;:&quot;img3-m79-p5&quot;,&quot;molecule_id&quot;:&quot;img3-m79&quot;,&quot;atom_order&quot;:4}]}</metadata>
  <rect x="0" y="0" width="120" height="93" fill="#f8f0d8"/>
  <image href="file:///C:/Users/HHHES/AppData/Roaming/com.voynichlab.datasetcreator/images/1/35a70f63-88ab-4986-b441-b78046a10087.jpg" x="-1126" y="-1545" width="2972" height="3766" opacity="0.92"/>
  <rect x="0.5" y="0.5" width="119" height="92" fill="none" stroke="#111827" stroke-width="1" opacity="0.35"/>
  <polyline points="47,59 47,60 48,60 48,61 48,62 49,62 49,63 50,64 50,65 51,65 51,66 51,67 52,67 52,68 53,69 53,70 54,71 54,72 54,73 55,73 55,74 56,75 56,76 57,76 57,77 58,77 59,77 60,77 60,76 61,76 61,75 62,74 63,74 63,73 64,73 65,72 65,71 66,71 67,71 67,70 68,70 69,70 69,69 70,69 70,68 71,68 72,68 72,67 73,67 74,66 75,66 75,65 76,65 77,65 77,64 78,64 78,63" fill="none" stroke="#ff5f1f" stroke-width="3" stroke-linecap="round" stroke-linejoin="round" opacity="0.95">
    <title>2260 l:1</title>
  </polyline>
  <polyline points="78,63 78,64 79,64 79,65 80,66 80,67 81,67 81,68 82,68 82,69 82,70 83,70 83,71 83,72 84,72 84,73 85,74 85,75" fill="none" stroke="#00a2ff" stroke-width="3" stroke-linecap="round" stroke-linejoin="round" opacity="0.95">
    <title>2261 f:1</title>
  </polyline>
  <polyline points="85,75 86,75 86,74 87,74 88,74 88,73 89,73 89,72 90,72 91,71 92,71 92,70 93,70 93,69 94,69 94,68 95,68 96,67 96,66 97,66 97,65 98,65 98,64 99,64 99,63 100,63 100,62 101,61 101,60 102,60 102,59 102,58 103,57 103,56 103,55 104,55 104,54 104,53 104,52 104,51 104,50 104,49 104,48 104,47 104,46 103,45 103,44 103,43 102,43 102,42 102,41 101,40 101,39 100,39 100,38 100,37 99,37 99,36 98,35 98,34 97,34 97,33 96,33 96,32 95,32 95,31 94,31 94,30 93,30 93,29 92,29 91,28 90,28 90,27 89,27 89,26 88,26 87,26 87,25 86,25" fill="none" stroke="#00ff7f" stroke-width="3" stroke-linecap="round" stroke-linejoin="round" opacity="0.95">
    <title>2262 i:1</title>
  </polyline>
  <polyline points="16,32 19,26 19,25 20,24 20,23 21,23 22,22 23,21 24,21 24,20 25,20 26,19 27,19 28,19 28,18 29,18 30,18 31,18 32,17 33,17 34,17 35,17 36,17 37,17 38,17 39,16 40,16 41,16 42,16 44,16 45,16 46,16 47,16 48,16 49,16 50,16 51,16 52,16 53,16 54,16 55,16 56,16 57,16 58,16 59,16 60,16 60,17 61,17 62,17 63,17 64,17 65,17 66,17 67,18 68,18 69,18 70,18 70,19 71,19 72,19 73,19 74,20 75,20 76,20 76,21 77,21 78,21 79,21 80,22 81,22 82,22 82,23 83,23 84,24 85,24 85,25" fill="none" stroke="#ff2d55" stroke-width="3" stroke-linecap="round" stroke-linejoin="round" opacity="0.95">
    <title>2263 d:1</title>
  </polyline>
</svg>
