<?xml version="1.0" encoding="UTF-8"?>
<svg xmlns="http://www.w3.org/2000/svg" width="60" height="82" viewBox="0 0 60 82">
  <title>particle img3-m21-p2 e:1 h:1</title>
  <metadata>{&quot;entityType&quot;:&quot;particle&quot;,&quot;entityId&quot;:&quot;img3-m21-p2&quot;,&quot;token&quot;:&quot;e:1 h:1&quot;,&quot;signature&quot;:&quot;e:1 h:1&quot;,&quot;imageName&quot;:&quot;page-003.jpg&quot;,&quot;imageId&quot;:3,&quot;bounds&quot;:{&quot;x&quot;:2341,&quot;y&quot;:695,&quot;w&quot;:60,&quot;h&quot;:82},&quot;atoms&quot;:[{&quot;id&quot;:1473,&quot;token&quot;:&quot;e:1&quot;,&quot;particle_id&quot;:&quot;img3-m21-p2&quot;,&quot;molecule_id&quot;:&quot;img3-m21&quot;,&quot;atom_order&quot;:1},{&quot;id&quot;:1484,&quot;token&quot;:&quot;h:1&quot;,&quot;particle_id&quot;:&quot;img3-m21-p2&quot;,&quot;molecule_id&quot;:&quot;img3-m21&quot;,&quot;atom_order&quot;:2}]}</metadata>
  <rect x="0" y="0" width="60" height="82" fill="#f8f0d8"/>
  <image href="file:///C:/Users/HHHES/AppData/Roaming/com.voynichlab.datasetcreator/images/1/35a70f63-88ab-4986-b441-b78046a10087.jpg" x="-2341" y="-695" width="2972" height="3766" opacity="0.92"/>
  <rect x="0.5" y="0.5" width="59" height="81" fill="none" stroke="#111827" stroke-width="1" opacity="0.35"/>
  <polyline points="30,35 30,36 29,36 28,36 27,36 27,37 26,37 25,37 24,37 23,37 22,37 21,37 20,37 20,36 19,36 19,35 18,35 18,34 17,34 17,33 16,33 16,32 16,31 16,30 16,29 16,28 16,27 16,26 16,25 16,24 17,24 17,23 18,23 18,22 19,22 20,22 20,21 21,21 21,20 22,20 23,19 24,19 24,18 25,18 26,18 27,17 28,17 29,17 30,17 31,16 32,16 33,16" fill="none" stroke="#f2e45c" stroke-width="3" stroke-linecap="round" stroke-linejoin="round" opacity="0.95">
    <title>1473 e:1</title>
  </polyline>
  <polyline points="32,16 33,16 33,17 34,17 35,17 35,18 35,19 36,19 37,20 38,21 39,22 40,23 40,24 41,24 41,25 42,25 42,26 42,27 43,28 43,29 43,30 43,31 44,31 44,32 44,33 44,34 44,35 44,36 44,37 43,37 43,38 43,39 43,40 43,41 42,42 42,43 42,44 41,45 41,46 40,46 40,47 39,48 39,49 38,49 38,50 37,50 37,51 36,51 36,52 35,52 35,53 34,54 34,55 33,55 33,56 32,56 32,57 31,57 31,58 30,58 30,59 29,59 29,60 28,61 28,62 27,62 27,63 26,64 26,65 25,66" fill="none" stroke="#ff8c00" stroke-width="3" stroke-linecap="round" stroke-linejoin="round" opacity="0.95">
    <title>1484 h:1</title>
  </polyline>
</svg>
