<?xml version="1.0" encoding="UTF-8"?>
<svg xmlns="http://www.w3.org/2000/svg" width="102" height="79" viewBox="0 0 102 79">
  <title>particle img3-m34-p4 k:1 f:1 i:1 d:1</title>
  <metadata>{&quot;entityType&quot;:&quot;particle&quot;,&quot;entityId&quot;:&quot;img3-m34-p4&quot;,&quot;token&quot;:&quot;k:1 f:1 i:1 d:1&quot;,&quot;signature&quot;:&quot;k:1 f:1 i:1 d:1&quot;,&quot;imageName&quot;:&quot;page-003.jpg&quot;,&quot;imageId&quot;:3,&quot;bounds&quot;:{&quot;x&quot;:2017,&quot;y&quot;:751,&quot;w&quot;:102,&quot;h&quot;:79},&quot;atoms&quot;:[{&quot;id&quot;:1584,&quot;token&quot;:&quot;k:1&quot;,&quot;particle_id&quot;:&quot;img3-m34-p4&quot;,&quot;molecule_id&quot;:&quot;img3-m34&quot;,&quot;atom_order&quot;:1},{&quot;id&quot;:1585,&quot;token&quot;:&quot;f:1&quot;,&quot;particle_id&quot;:&quot;img3-m34-p4&quot;,&quot;molecule_id&quot;:&quot;img3-m34&quot;,&quot;atom_order&quot;:2},{&quot;id&quot;:1586,&quot;token&quot;:&quot;i:1&quot;,&quot;particle_id&quot;:&quot;img3-m34-p4&quot;,&quot;molecule_id&quot;:&quot;img3-m34&quot;,&quot;atom_order&quot;:3},{&quot;id&quot;:1587,&quot;token&quot;:&quot;d:1&quot;,&quot;particle_id&quot;:&quot;img3-m34-p4&quot;,&quot;molecule_id&quot;:&quot;img3-m34&quot;,&quot;atom_order&quot;:4}]}</metadata>
  <rect x="0" y="0" width="102" height="79" fill="#f8f0d8"/>
  <image href="file:///C:/Users/HHHES/AppData/Roaming/com.voynichlab.datasetcreator/images/1/35a70f63-88ab-4986-b441-b78046a10087.jpg" x="-2017" y="-751" width="2972" height="3766" opacity="0.92"/>
  <rect x="0.5" y="0.5" width="101" height="78" fill="none" stroke="#111827" stroke-width="1" opacity="0.35"/>
  <polyline points="17,44 17,45 18,45 18,46 18,47 19,47 19,48 19,49 20,49 20,50 20,51 21,51 21,52 21,53 21,54 22,54 22,55 22,56 23,56 23,57 23,58 24,58 24,59 25,60 25,61 26,61 26,62 27,62 27,61 28,61 28,60 28,59 29,59 29,58 30,58 30,57 31,57 32,56 33,56 33,55 34,55 34,54 35,54 35,53 36,53 36,52 37,52 37,51 38,51 38,50 39,50 39,49 40,49 40,48 40,47 40,48 40,49 40,50 40,51 41,51 41,52 41,53 41,54 41,55 42,55 42,56 42,57 43,57 43,58 44,58 44,59 44,60 45,60 45,61 46,61 46,62 47,62 47,61 48,61 48,60 48,59 49,59 49,58 50,58 51,58 51,57 52,57 52,56 53,56 53,55 54,55 55,55 55,54 56,53 57,53 57,52 58,52 59,51 60,50 61,50 62,49" fill="none" stroke="#ffffff" stroke-width="3" stroke-linecap="round" stroke-linejoin="round" opacity="0.95">
    <title>1584 k:1</title>
  </polyline>
  <polyline points="61,49 62,49 62,50 62,51 63,51 63,52 63,53 64,53 64,54 65,54 65,55 66,56 66,57 67,58 67,59 68,60 68,61 68,62 69,62 69,63" fill="none" stroke="#00a2ff" stroke-width="3" stroke-linecap="round" stroke-linejoin="round" opacity="0.95">
    <title>1585 f:1</title>
  </polyline>
  <polyline points="69,63 70,63 70,62 71,62 72,62 72,61 73,61 73,60 74,60 74,59 75,59 75,58 76,58 77,58 77,57 78,57 78,56 79,56 79,55 80,54 80,53 81,53 81,52 82,51 82,50 83,50 83,49 83,48 84,48 84,47 84,46 85,46 85,45 85,44 86,43 86,42 86,41 86,40 86,39 86,38 86,37 86,36 85,35 85,34 85,33 85,32 84,32 84,31 83,31 83,30 83,29 82,29 82,28 82,27 81,27 81,26 81,25 80,25 80,24 79,24 78,23 77,22 76,22 75,22 75,21 74,21 73,21 72,21 72,20" fill="none" stroke="#00ff7f" stroke-width="3" stroke-linecap="round" stroke-linejoin="round" opacity="0.95">
    <title>1586 i:1</title>
  </polyline>
  <polyline points="16,16 17,16 18,16 19,16 20,16 21,16 22,16 23,16 24,16 25,16 26,16 27,16 28,16 29,16 30,16 31,16 32,16 33,16 33,17 34,17 35,17 36,17 37,17 38,17 39,17 40,17 41,17 42,17 43,17 44,18 45,18 46,18 47,18 48,18 49,18 50,18 51,18 52,18 53,18 54,18 55,18 56,19 57,19 58,19 59,19 60,19 61,19 62,19 63,19 64,19 65,19 66,19 67,19 68,19 69,20 70,20 71,20 71,21" fill="none" stroke="#ff2d55" stroke-width="3" stroke-linecap="round" stroke-linejoin="round" opacity="0.95">
    <title>1587 d:1</title>
  </polyline>
</svg>
