<?xml version="1.0" encoding="UTF-8"?>
<svg xmlns="http://www.w3.org/2000/svg" width="82" height="57" viewBox="0 0 82 57">
  <title>particle img3-m154-p1 e:1 g:1 e:1</title>
  <metadata>{&quot;entityType&quot;:&quot;particle&quot;,&quot;entityId&quot;:&quot;img3-m154-p1&quot;,&quot;token&quot;:&quot;e:1 g:1 e:1&quot;,&quot;signature&quot;:&quot;e:1 g:1 e:1&quot;,&quot;imageName&quot;:&quot;page-003.jpg&quot;,&quot;imageId&quot;:3,&quot;bounds&quot;:{&quot;x&quot;:2014,&quot;y&quot;:2549,&quot;w&quot;:82,&quot;h&quot;:57},&quot;atoms&quot;:[{&quot;id&quot;:3743,&quot;token&quot;:&quot;e:1&quot;,&quot;particle_id&quot;:&quot;img3-m154-p1&quot;,&quot;molecule_id&quot;:&quot;img3-m154&quot;,&quot;atom_order&quot;:1},{&quot;id&quot;:3756,&quot;token&quot;:&quot;g:1&quot;,&quot;particle_id&quot;:&quot;img3-m154-p1&quot;,&quot;molecule_id&quot;:&quot;img3-m154&quot;,&quot;atom_order&quot;:2},{&quot;id&quot;:3742,&quot;token&quot;:&quot;e:1&quot;,&quot;particle_id&quot;:&quot;img3-m154-p1&quot;,&quot;molecule_id&quot;:&quot;img3-m154&quot;,&quot;atom_order&quot;:3}]}</metadata>
  <rect x="0" y="0" width="82" height="57" fill="#f8f0d8"/>
  <image href="file:///C:/Users/HHHES/AppData/Roaming/com.voynichlab.datasetcreator/images/1/35a70f63-88ab-4986-b441-b78046a10087.jpg" x="-2014" y="-2549" width="2972" height="3766" opacity="0.92"/>
  <rect x="0.5" y="0.5" width="81" height="56" fill="none" stroke="#111827" stroke-width="1" opacity="0.35"/>
  <polyline points="31,33 31,34 30,34 30,35 29,35 28,35 28,36 27,36 26,36 25,36 24,36 23,36 22,36 21,36 21,35 20,35 19,35 18,35 18,34 17,34 16,34 16,33 16,32 16,31 16,30 16,29 16,28 16,27 17,27 17,26 17,25 17,24 18,24 18,23 18,22 19,22 19,21 19,20 20,20 21,20 21,19 22,19 22,18 23,18 24,18 24,17 25,17 26,17 27,17 27,16" fill="none" stroke="#f2e45c" stroke-width="3" stroke-linecap="round" stroke-linejoin="round" opacity="0.95">
    <title>3743 e:1</title>
  </polyline>
  <polyline points="26,16 27,16 27,17 28,17 29,17 30,17 30,18 32,18 33,18 35,19 36,19 37,19 38,19 38,20 39,20 40,20 41,20 42,20 43,21 44,21 45,21 46,21 47,21 48,21 49,21 50,21 51,21 52,21 53,21 54,21 55,21 56,21 57,21 58,21 59,21 60,21 61,21 62,21 63,22" fill="none" stroke="#7c3cff" stroke-width="3" stroke-linecap="round" stroke-linejoin="round" opacity="0.95">
    <title>3756 g:1</title>
  </polyline>
  <polyline points="66,38 66,39 65,39 65,40 64,40 63,40 63,41 62,41 61,41 60,41 59,41 58,41 57,41 56,41 56,40 55,40 54,40 53,40 53,39 52,39 51,39 51,38 51,37 51,36 51,35 51,34 51,33 51,32 52,32 52,31 52,30 52,29 53,29 53,28 53,27 54,27 54,26 54,25 55,25 56,25 56,24 57,24 57,23 58,23 59,23 59,22 60,22 61,22 62,22 62,21" fill="none" stroke="#f2e45c" stroke-width="3" stroke-linecap="round" stroke-linejoin="round" opacity="0.95">
    <title>3742 e:1</title>
  </polyline>
</svg>
