<?xml version="1.0" encoding="UTF-8"?>
<svg xmlns="http://www.w3.org/2000/svg" width="119" height="104" viewBox="0 0 119 104">
  <title>particle img3-m140-p1 e:1 a:1 b:1 c:1 a:1 g:1 e:1</title>
  <metadata>{&quot;entityType&quot;:&quot;particle&quot;,&quot;entityId&quot;:&quot;img3-m140-p1&quot;,&quot;token&quot;:&quot;e:1 a:1 b:1 c:1 a:1 g:1 e:1&quot;,&quot;signature&quot;:&quot;e:1 a:1 b:1 c:1 a:1 g:1 e:1&quot;,&quot;imageName&quot;:&quot;page-003.jpg&quot;,&quot;imageId&quot;:3,&quot;bounds&quot;:{&quot;x&quot;:1252,&quot;y&quot;:2199,&quot;w&quot;:119,&quot;h&quot;:104},&quot;atoms&quot;:[{&quot;id&quot;:3532,&quot;token&quot;:&quot;e:1&quot;,&quot;particle_id&quot;:&quot;img3-m140-p1&quot;,&quot;molecule_id&quot;:&quot;img3-m140&quot;,&quot;atom_order&quot;:1},{&quot;id&quot;:3636,&quot;token&quot;:&quot;a:1&quot;,&quot;particle_id&quot;:&quot;img3-m140-p1&quot;,&quot;molecule_id&quot;:&quot;img3-m140&quot;,&quot;atom_order&quot;:2},{&quot;id&quot;:3616,&quot;token&quot;:&quot;b:1&quot;,&quot;particle_id&quot;:&quot;img3-m140-p1&quot;,&quot;molecule_id&quot;:&quot;img3-m140&quot;,&quot;atom_order&quot;:3},{&quot;id&quot;:3556,&quot;token&quot;:&quot;c:1&quot;,&quot;particle_id&quot;:&quot;img3-m140-p1&quot;,&quot;molecule_id&quot;:&quot;img3-m140&quot;,&quot;atom_order&quot;:4},{&quot;id&quot;:3637,&quot;token&quot;:&quot;a:1&quot;,&quot;particle_id&quot;:&quot;img3-m140-p1&quot;,&quot;molecule_id&quot;:&quot;img3-m140&quot;,&quot;atom_order&quot;:5},{&quot;id&quot;:3573,&quot;token&quot;:&quot;g:1&quot;,&quot;particle_id&quot;:&quot;img3-m140-p1&quot;,&quot;molecule_id&quot;:&quot;img3-m140&quot;,&quot;atom_order&quot;:6},{&quot;id&quot;:3533,&quot;token&quot;:&quot;e:1&quot;,&quot;particle_id&quot;:&quot;img3-m140-p1&quot;,&quot;molecule_id&quot;:&quot;img3-m140&quot;,&quot;atom_order&quot;:7}]}</metadata>
  <rect x="0" y="0" width="119" height="104" fill="#f8f0d8"/>
  <image href="file:///C:/Users/HHHES/AppData/Roaming/com.voynichlab.datasetcreator/images/1/35a70f63-88ab-4986-b441-b78046a10087.jpg" x="-1252" y="-2199" width="2972" height="3766" opacity="0.92"/>
  <rect x="0.5" y="0.5" width="118" height="103" fill="none" stroke="#111827" stroke-width="1" opacity="0.35"/>
  <polyline points="31,82 31,83 30,83 30,84 29,84 28,84 28,85 27,85 26,85 25,85 24,85 23,85 22,85 21,85 21,84 20,84 19,84 18,84 18,83 17,83 16,83 16,82 16,81 16,80 16,79 16,78 16,77 16,76 17,76 17,75 17,74 17,73 18,73 18,72 18,71 19,71 19,70 19,69 20,69 21,69 21,68 22,68 22,67 23,67 24,67 24,66 25,66 26,66 27,66 27,65" fill="none" stroke="#f2e45c" stroke-width="3" stroke-linecap="round" stroke-linejoin="round" opacity="0.95">
    <title>3532 e:1</title>
  </polyline>
  <polyline points="47,30 47,31 47,32 47,33 47,34 47,35 47,36 47,37 47,38 47,39 47,40 47,41 47,42 47,43 47,44 47,45 47,46 47,47 47,48 47,49 47,50 47,51 47,52 47,53 47,54 47,55 47,56 47,57 47,58 47,59 47,60 47,61 47,62 47,63 47,64 47,65 47,66 46,66 46,67 46,68 46,69 46,70 46,71 46,72 46,73 46,74 46,75 46,76 46,77 46,78 46,79 46,80 46,81 46,82 46,83 46,84 46,85 46,86 46,87 47,87 47,88 47,87" fill="none" stroke="#00f0b5" stroke-width="3" stroke-linecap="round" stroke-linejoin="round" opacity="0.95">
    <title>3636 a:1</title>
  </polyline>
  <polyline points="47,30 47,31 47,32 48,33 48,34 49,35 49,36 50,36 51,37 52,37 53,37 53,38 54,38 55,38 56,38 57,39 58,39 59,39 60,39 61,39 63,39 64,40 65,40 66,40 67,40 68,40 69,40 70,40 71,39 72,39 73,39 74,39 75,39 75,38 76,38 77,38 78,38 79,38 80,37 81,37 82,37 82,36 83,36 84,36 84,35 85,35 86,34 87,34 87,33" fill="none" stroke="#2f7df6" stroke-width="3" stroke-linecap="round" stroke-linejoin="round" opacity="0.95">
    <title>3616 b:1</title>
  </polyline>
  <polyline points="88,34 88,33 88,32 88,31 89,31 89,30 89,29 89,28 89,27 89,26 88,26 88,25 88,24 87,24 87,23 87,22 86,21 86,20 85,20 85,19 84,19 84,18 83,18 82,18 81,17 80,17 79,17 78,17 77,17 76,17 76,16 75,16 74,17 73,17 72,17 71,17 70,17 70,18 69,18 69,19 68,19 68,20 67,21 67,22 66,22 66,23 66,24 65,25 65,26 65,27 65,28 65,29 66,29 66,30 67,31 67,32 68,32 69,33 70,33 71,34 72,34 73,35 74,35 75,35 76,35 77,35 78,35 79,35 80,35 81,35 82,35 83,35 84,35 85,34 86,34 87,34 87,33 86,33" fill="none" stroke="#8aff00" stroke-width="3" stroke-linecap="round" stroke-linejoin="round" opacity="0.95">
    <title>3556 c:1</title>
  </polyline>
  <polyline points="66,25 66,26 66,27 66,28 66,29 66,30 66,31 65,32 65,33 65,34 65,35 65,36 65,37 65,38 66,39 66,40 66,41 66,43 66,44 66,46 66,47 66,48 66,49 66,50 67,51 67,52 67,53 67,54 67,55 67,56 67,57 67,58 67,59 66,60 66,61 66,62 66,63 66,64 66,65 66,66 66,67 66,68 66,69 66,70 65,71 65,72 65,73 65,74 65,75 65,76 65,77 65,78 65,79 65,80 65,81 65,82 65,83 65,84 65,85 65,86 65,87 65,88" fill="none" stroke="#00f0b5" stroke-width="3" stroke-linecap="round" stroke-linejoin="round" opacity="0.95">
    <title>3637 a:1</title>
  </polyline>
  <polyline points="26,66 27,66 28,66 30,66 31,66 32,66 33,66 35,66 38,66 40,67 42,67 43,67 44,67 46,67 47,68 48,68 49,68 52,68 54,68 55,68 56,68 57,68 59,68 61,68 62,68 63,68 64,68 65,68 67,68 69,68 71,68 72,68 73,68 74,68 75,68 76,68 77,68 78,68 80,68 81,68 82,68 84,69 86,69 87,69 88,69 89,69 90,69 91,69 92,69 93,69 94,69 95,69 96,69 97,69 98,69 97,69" fill="none" stroke="#7c3cff" stroke-width="3" stroke-linecap="round" stroke-linejoin="round" opacity="0.95">
    <title>3573 g:1</title>
  </polyline>
  <polyline points="103,85 103,86 102,86 102,87 101,87 100,87 100,88 99,88 98,88 97,88 96,88 95,88 94,88 93,88 93,87 92,87 91,87 90,87 90,86 89,86 88,86 88,85 88,84 88,83 88,82 88,81 88,80 88,79 89,79 89,78 89,77 89,76 90,76 90,75 90,74 91,74 91,73 91,72 92,72 93,72 93,71 94,71 94,70 95,70 96,70 96,69 97,69 98,69 99,69 99,68" fill="none" stroke="#f2e45c" stroke-width="3" stroke-linecap="round" stroke-linejoin="round" opacity="0.95">
    <title>3533 e:1</title>
  </polyline>
</svg>
