<?xml version="1.0" encoding="UTF-8"?>
<svg xmlns="http://www.w3.org/2000/svg" width="92" height="54" viewBox="0 0 92 54">
  <title>particle img3-m138-p5 e:1 g:1 e:1</title>
  <metadata>{&quot;entityType&quot;:&quot;particle&quot;,&quot;entityId&quot;:&quot;img3-m138-p5&quot;,&quot;token&quot;:&quot;e:1 g:1 e:1&quot;,&quot;signature&quot;:&quot;e:1 g:1 e:1&quot;,&quot;imageName&quot;:&quot;page-003.jpg&quot;,&quot;imageId&quot;:3,&quot;bounds&quot;:{&quot;x&quot;:1290,&quot;y&quot;:2169,&quot;w&quot;:92,&quot;h&quot;:54},&quot;atoms&quot;:[{&quot;id&quot;:3503,&quot;token&quot;:&quot;e:1&quot;,&quot;particle_id&quot;:&quot;img3-m138-p5&quot;,&quot;molecule_id&quot;:&quot;img3-m138&quot;,&quot;atom_order&quot;:1},{&quot;id&quot;:3567,&quot;token&quot;:&quot;g:1&quot;,&quot;particle_id&quot;:&quot;img3-m138-p5&quot;,&quot;molecule_id&quot;:&quot;img3-m138&quot;,&quot;atom_order&quot;:2},{&quot;id&quot;:3504,&quot;token&quot;:&quot;e:1&quot;,&quot;particle_id&quot;:&quot;img3-m138-p5&quot;,&quot;molecule_id&quot;:&quot;img3-m138&quot;,&quot;atom_order&quot;:3}]}</metadata>
  <rect x="0" y="0" width="92" height="54" fill="#f8f0d8"/>
  <image href="file:///C:/Users/HHHES/AppData/Roaming/com.voynichlab.datasetcreator/images/1/35a70f63-88ab-4986-b441-b78046a10087.jpg" x="-1290" y="-2169" width="2972" height="3766" opacity="0.92"/>
  <rect x="0.5" y="0.5" width="91" height="53" fill="none" stroke="#111827" stroke-width="1" opacity="0.35"/>
  <polyline points="31,33 31,34 30,34 30,35 29,35 28,35 28,36 27,36 26,36 25,36 24,36 23,36 22,36 21,36 21,35 20,35 19,35 18,35 18,34 17,34 16,34 16,33 16,32 16,31 16,30 16,29 16,28 16,27 17,27 17,26 17,25 17,24 18,24 18,23 18,22 19,22 19,21 19,20 20,20 21,20 21,19 22,19 22,18 23,18 24,18 24,17 25,17 26,17 27,17 27,16" fill="none" stroke="#f2e45c" stroke-width="3" stroke-linecap="round" stroke-linejoin="round" opacity="0.95">
    <title>3503 e:1</title>
  </polyline>
  <polyline points="26,17 27,16 28,16 29,16 30,16 31,16 33,16 35,16 36,16 37,16 38,16 39,16 40,16 41,16 43,16 44,17 45,17 46,17 47,17 48,17 50,17 51,17 52,17 53,17 54,17 55,17 56,17 57,17 58,17 59,17 60,17 61,17 62,17 63,17 64,17 65,17 66,17 67,17 68,17 69,17 70,17 71,17 72,17 72,18" fill="none" stroke="#7c3cff" stroke-width="3" stroke-linecap="round" stroke-linejoin="round" opacity="0.95">
    <title>3567 g:1</title>
  </polyline>
  <polyline points="76,35 76,36 75,36 75,37 74,37 73,37 73,38 72,38 71,38 70,38 69,38 68,38 67,38 66,38 66,37 65,37 64,37 63,37 63,36 62,36 61,36 61,35 61,34 61,33 61,32 61,31 61,30 61,29 62,29 62,28 62,27 62,26 63,26 63,25 63,24 64,24 64,23 64,22 65,22 66,22 66,21 67,21 67,20 68,20 69,20 69,19 70,19 71,19 72,19 72,18" fill="none" stroke="#f2e45c" stroke-width="3" stroke-linecap="round" stroke-linejoin="round" opacity="0.95">
    <title>3504 e:1</title>
  </polyline>
</svg>
