<?xml version="1.0" encoding="UTF-8"?>
<svg xmlns="http://www.w3.org/2000/svg" width="89" height="119" viewBox="0 0 89 119">
  <title>particle img3-m70-p2 a:1 m:1 c:1 a:1</title>
  <metadata>{&quot;entityType&quot;:&quot;particle&quot;,&quot;entityId&quot;:&quot;img3-m70-p2&quot;,&quot;token&quot;:&quot;a:1 m:1 c:1 a:1&quot;,&quot;signature&quot;:&quot;a:1 m:1 c:1 a:1&quot;,&quot;imageName&quot;:&quot;page-003.jpg&quot;,&quot;imageId&quot;:3,&quot;bounds&quot;:{&quot;x&quot;:1561,&quot;y&quot;:1424,&quot;w&quot;:89,&quot;h&quot;:119},&quot;atoms&quot;:[{&quot;id&quot;:2177,&quot;token&quot;:&quot;a:1&quot;,&quot;particle_id&quot;:&quot;img3-m70-p2&quot;,&quot;molecule_id&quot;:&quot;img3-m70&quot;,&quot;atom_order&quot;:1},{&quot;id&quot;:3043,&quot;token&quot;:&quot;m:1&quot;,&quot;particle_id&quot;:&quot;img3-m70-p2&quot;,&quot;molecule_id&quot;:&quot;img3-m70&quot;,&quot;atom_order&quot;:2},{&quot;id&quot;:2180,&quot;token&quot;:&quot;c:1&quot;,&quot;particle_id&quot;:&quot;img3-m70-p2&quot;,&quot;molecule_id&quot;:&quot;img3-m70&quot;,&quot;atom_order&quot;:3},{&quot;id&quot;:2178,&quot;token&quot;:&quot;a:1&quot;,&quot;particle_id&quot;:&quot;img3-m70-p2&quot;,&quot;molecule_id&quot;:&quot;img3-m70&quot;,&quot;atom_order&quot;:4}]}</metadata>
  <rect x="0" y="0" width="89" height="119" fill="#f8f0d8"/>
  <image href="file:///C:/Users/HHHES/AppData/Roaming/com.voynichlab.datasetcreator/images/1/35a70f63-88ab-4986-b441-b78046a10087.jpg" x="-1561" y="-1424" width="2972" height="3766" opacity="0.92"/>
  <rect x="0.5" y="0.5" width="88" height="118" fill="none" stroke="#111827" stroke-width="1" opacity="0.35"/>
  <polyline points="28,103 29,86 31,80 31,79 31,78 31,77 31,76 31,75 31,74 31,72 32,67 32,66 32,65 32,64 32,63 32,62 33,61 33,60 33,59 33,58 33,57 33,56 33,55 33,54 33,53 33,52 33,51 33,50 34,48" fill="none" stroke="#00f0b5" stroke-width="3" stroke-linecap="round" stroke-linejoin="round" opacity="0.95">
    <title>2177 a:1</title>
  </polyline>
  <polyline points="34,48 34,47 34,46 34,45 35,45 35,44 35,43 35,42 35,41 35,40 35,39 35,38 36,38 36,37 36,36 36,35 36,34 36,33 36,32 37,31 37,30 37,29 37,28 37,27 37,26 37,25 37,24 38,23 38,22 38,21 38,20 38,19 38,18 38,17 38,16 37,16 37,17 36,17 36,18 35,18 35,19 34,19 33,19 32,19 32,20 31,20 30,20 29,20 29,21 28,21 27,21 26,22 25,22 24,23 23,23 22,24 21,24 20,25 19,25 19,26 18,26 17,27 16,28 16,29 16,30 17,31 18,31 19,31 20,31 21,31 22,32 23,32 24,32 25,32 25,33 26,33 27,33 28,33 29,33 30,33 31,34 32,34 33,34 34,34 35,34 36,34 37,34 38,34 39,34 40,34 41,34 42,34 43,34 44,34 45,34 46,34 47,34 48,34 49,34 50,34 51,34 52,34 53,34 54,34 54,35 55,35 56,35" fill="none" stroke="#ff00ff" stroke-width="3" stroke-linecap="round" stroke-linejoin="round" opacity="0.95">
    <title>3043 m:1</title>
  </polyline>
  <polyline points="55,22 55,23 54,23 54,24 54,25 53,25 53,26 53,27 53,28 53,29 53,30 53,31 53,32 54,32 54,33 55,33 55,34 56,35 57,35 58,35 59,35 59,36 60,36 61,36 62,36 63,36 64,36 65,36 66,36 67,36 67,35 68,35 69,35 69,34 69,33 70,33 70,32 71,32 71,31 71,30 72,30 72,29 72,28 73,28 73,27 73,26 73,25 73,24 73,23 73,22 72,22 72,21 72,20 71,20 71,19 70,19 70,18 69,18 69,17 68,17 67,17 67,16 66,16 65,16 64,16 63,16 62,16 61,16 60,16 59,17 58,17 58,18 57,18 57,19 56,19 55,19 55,20 54,20 54,21 54,22" fill="none" stroke="#8aff00" stroke-width="3" stroke-linecap="round" stroke-linejoin="round" opacity="0.95">
    <title>2180 c:1</title>
  </polyline>
  <polyline points="48,102 49,83 50,80 50,79 51,78 51,77 51,75 51,74 51,73 51,72 51,70 51,69 51,68 51,67 51,62 52,61 52,59 52,58 52,57 52,56 52,55 52,54 52,52 53,51 53,49 53,48 53,47 53,46 53,45 53,44 54,43 54,42 54,41 55,40 55,39 55,38 56,37 56,36 56,35" fill="none" stroke="#00f0b5" stroke-width="3" stroke-linecap="round" stroke-linejoin="round" opacity="0.95">
    <title>2178 a:1</title>
  </polyline>
</svg>
