<?xml version="1.0" encoding="UTF-8"?>
<svg xmlns="http://www.w3.org/2000/svg" width="101" height="101" viewBox="0 0 101 101">
  <title>particle img3-m43-p4 k:1 f:1 i:1 d:1</title>
  <metadata>{&quot;entityType&quot;:&quot;particle&quot;,&quot;entityId&quot;:&quot;img3-m43-p4&quot;,&quot;token&quot;:&quot;k:1 f:1 i:1 d:1&quot;,&quot;signature&quot;:&quot;k:1 f:1 i:1 d:1&quot;,&quot;imageName&quot;:&quot;page-003.jpg&quot;,&quot;imageId&quot;:3,&quot;bounds&quot;:{&quot;x&quot;:1992,&quot;y&quot;:1032,&quot;w&quot;:101,&quot;h&quot;:101},&quot;atoms&quot;:[{&quot;id&quot;:1873,&quot;token&quot;:&quot;k:1&quot;,&quot;particle_id&quot;:&quot;img3-m43-p4&quot;,&quot;molecule_id&quot;:&quot;img3-m43&quot;,&quot;atom_order&quot;:1},{&quot;id&quot;:1874,&quot;token&quot;:&quot;f:1&quot;,&quot;particle_id&quot;:&quot;img3-m43-p4&quot;,&quot;molecule_id&quot;:&quot;img3-m43&quot;,&quot;atom_order&quot;:2},{&quot;id&quot;:1875,&quot;token&quot;:&quot;i:1&quot;,&quot;particle_id&quot;:&quot;img3-m43-p4&quot;,&quot;molecule_id&quot;:&quot;img3-m43&quot;,&quot;atom_order&quot;:3},{&quot;id&quot;:1876,&quot;token&quot;:&quot;d:1&quot;,&quot;particle_id&quot;:&quot;img3-m43-p4&quot;,&quot;molecule_id&quot;:&quot;img3-m43&quot;,&quot;atom_order&quot;:4}]}</metadata>
  <rect x="0" y="0" width="101" height="101" fill="#f8f0d8"/>
  <image href="file:///C:/Users/HHHES/AppData/Roaming/com.voynichlab.datasetcreator/images/1/35a70f63-88ab-4986-b441-b78046a10087.jpg" x="-1992" y="-1032" width="2972" height="3766" opacity="0.92"/>
  <rect x="0.5" y="0.5" width="100" height="100" fill="none" stroke="#111827" stroke-width="1" opacity="0.35"/>
  <polyline points="16,58 16,59 16,60 17,60 17,61 17,62 18,62 18,63 18,64 19,64 19,65 19,66 20,67 20,68 20,69 21,69 21,70 21,71 22,71 22,72 22,73 22,74 23,74 23,75 23,76 24,76 24,77 24,78 25,78 26,78 27,77 28,77 28,76 29,76 30,75 30,74 31,74 31,73 32,73 32,72 33,72 33,71 34,70 34,69 34,68 35,68 35,67 36,67 36,66 36,65 37,65 37,64 38,64 38,63 38,62 39,62 39,61 39,60 40,60 40,59 41,59 41,58 41,59 41,60 41,61 41,62 42,62 42,63 42,64 42,65 42,66 42,67 43,67 43,68 43,69 43,70 43,71 44,71 44,72 44,73 45,74 45,75 45,76 46,76 46,77 46,78 46,79 47,79 47,80 48,81 48,82 49,82 50,82 51,82 51,81 52,81 53,80 53,79 54,79 54,78 54,77 55,77 55,76 56,76 56,75 56,74 57,74 57,73 58,73 58,72 59,71 59,70 60,70 60,69 60,68 61,68 61,67 62,67 62,66 62,65 63,65 63,64 64,64 64,63 65,63 65,62" fill="none" stroke="#ffffff" stroke-width="3" stroke-linecap="round" stroke-linejoin="round" opacity="0.95">
    <title>1873 k:1</title>
  </polyline>
  <polyline points="65,62 65,63 65,64 66,64 66,65 66,66 67,67 67,68 67,69 68,69 68,70 68,71 69,71 69,72 69,73 70,73 70,74 70,75 71,75 71,76 71,77 72,77 72,78 72,79 73,79 73,80 73,81 74,81 74,82 74,83 75,83 75,84 75,85 76,85" fill="none" stroke="#00a2ff" stroke-width="3" stroke-linecap="round" stroke-linejoin="round" opacity="0.95">
    <title>1874 f:1</title>
  </polyline>
  <polyline points="76,85 76,84 77,84 77,83 78,83 78,82 79,81 79,80 80,80 80,79 81,79 81,78 81,77 82,77 82,76 82,75 82,74 83,74 83,73 83,72 83,71 84,71 84,70 84,69 84,68 84,67 84,66 84,65 84,64 85,64 85,63 85,62 85,61 85,60 85,59 85,58 85,57 84,57 84,56 84,55 84,54 84,53 84,52 84,51 83,51 83,50 83,49 83,48 83,47 83,46 82,45 82,44 82,43 82,42 82,41 81,41 81,40 81,39 81,38 80,37 80,36 79,36 79,35 79,34 78,34 78,33 77,32 76,31 76,30 75,30 75,29 74,29 74,28 73,28 73,27 72,26 71,26 71,25 70,25 70,24 69,24 69,23 68,23" fill="none" stroke="#00ff7f" stroke-width="3" stroke-linecap="round" stroke-linejoin="round" opacity="0.95">
    <title>1875 i:1</title>
  </polyline>
  <polyline points="18,23 19,23 19,22 20,22 21,22 22,22 22,21 23,21 24,21 24,20 25,20 26,20 27,20 27,19 28,19 29,19 29,18 30,18 31,18 32,18 32,17 33,17 34,17 35,17 36,17 37,16 38,16 39,16 40,16 41,16 42,16 43,16 44,16 45,16 46,16 47,16 48,16 49,17 50,17 51,17 52,17 53,17 54,17 55,18 56,18 57,18 58,18 59,19 60,19 61,19 62,19 62,20 63,20 64,21 65,21 66,21 66,22 67,22 68,22 68,23 69,23 69,24 70,24" fill="none" stroke="#ff2d55" stroke-width="3" stroke-linecap="round" stroke-linejoin="round" opacity="0.95">
    <title>1876 d:1</title>
  </polyline>
</svg>
