<?xml version="1.0" encoding="UTF-8"?>
<svg xmlns="http://www.w3.org/2000/svg" width="68" height="94" viewBox="0 0 68 94">
  <title>particle img3-m143-p4 a:1 b:1 c:1 a:1</title>
  <metadata>{&quot;entityType&quot;:&quot;particle&quot;,&quot;entityId&quot;:&quot;img3-m143-p4&quot;,&quot;token&quot;:&quot;a:1 b:1 c:1 a:1&quot;,&quot;signature&quot;:&quot;a:1 b:1 c:1 a:1&quot;,&quot;imageName&quot;:&quot;page-003.jpg&quot;,&quot;imageId&quot;:3,&quot;bounds&quot;:{&quot;x&quot;:665,&quot;y&quot;:2192,&quot;w&quot;:68,&quot;h&quot;:94},&quot;atoms&quot;:[{&quot;id&quot;:3634,&quot;token&quot;:&quot;a:1&quot;,&quot;particle_id&quot;:&quot;img3-m143-p4&quot;,&quot;molecule_id&quot;:&quot;img3-m143&quot;,&quot;atom_order&quot;:1},{&quot;id&quot;:3615,&quot;token&quot;:&quot;b:1&quot;,&quot;particle_id&quot;:&quot;img3-m143-p4&quot;,&quot;molecule_id&quot;:&quot;img3-m143&quot;,&quot;atom_order&quot;:2},{&quot;id&quot;:3553,&quot;token&quot;:&quot;c:1&quot;,&quot;particle_id&quot;:&quot;img3-m143-p4&quot;,&quot;molecule_id&quot;:&quot;img3-m143&quot;,&quot;atom_order&quot;:3},{&quot;id&quot;:3635,&quot;token&quot;:&quot;a:1&quot;,&quot;particle_id&quot;:&quot;img3-m143-p4&quot;,&quot;molecule_id&quot;:&quot;img3-m143&quot;,&quot;atom_order&quot;:4}]}</metadata>
  <rect x="0" y="0" width="68" height="94" fill="#f8f0d8"/>
  <image href="file:///C:/Users/HHHES/AppData/Roaming/com.voynichlab.datasetcreator/images/1/35a70f63-88ab-4986-b441-b78046a10087.jpg" x="-665" y="-2192" width="2972" height="3766" opacity="0.92"/>
  <rect x="0.5" y="0.5" width="67" height="93" fill="none" stroke="#111827" stroke-width="1" opacity="0.35"/>
  <polyline points="16,26 16,27 16,28 16,29 16,30 16,32 16,33 16,35 16,36 16,38 17,39 17,41 17,42 17,43 17,44 18,46 18,48 18,50 18,52 18,54 19,55 19,57 19,58 19,60 19,62 19,63 19,64 19,65 19,66 19,67 19,68 19,69 19,70 19,71 19,72 19,73 19,74 19,75 19,76 19,77 19,76 20,75 21,73 22,71" fill="none" stroke="#00f0b5" stroke-width="3" stroke-linecap="round" stroke-linejoin="round" opacity="0.95">
    <title>3634 a:1</title>
  </polyline>
  <polyline points="16,27 17,27 17,28 17,29 18,29 18,30 19,30 20,31 21,32 21,33 22,33 23,33 24,34 25,35 26,35 27,36 28,36 29,36 30,36 31,36 32,36 33,36 34,36 35,36 36,36 37,36 38,36 39,36 40,36 41,36 42,36 43,35 44,35 44,34 45,34" fill="none" stroke="#2f7df6" stroke-width="3" stroke-linecap="round" stroke-linejoin="round" opacity="0.95">
    <title>3615 b:1</title>
  </polyline>
  <polyline points="48,30 49,30 50,30 50,29 51,28 51,27 52,26 52,25 52,24 52,23 52,22 52,21 52,20 52,19 52,18 51,18 51,17 50,17 49,17 48,17 47,17 47,16 46,16 45,16 44,16 43,16 42,17 41,17 41,18 40,18 39,19 38,19 38,20 37,21 36,21 36,22 36,23 35,23 35,24 35,25 35,26 34,26 34,27 34,28 34,29 34,30 34,31 35,31 35,32 36,32 36,33 37,33 38,33 39,33 39,34 40,34 41,34 42,34 43,33 44,33 45,33 45,32 46,32 47,32 47,31 48,31 48,30 49,30 50,29 50,28" fill="none" stroke="#8aff00" stroke-width="3" stroke-linecap="round" stroke-linejoin="round" opacity="0.95">
    <title>3553 c:1</title>
  </polyline>
  <polyline points="34,28 34,29 34,30 34,31 34,33 34,34 34,35 34,36 34,38 34,39 34,40 34,41 34,42 34,43 34,44 34,45 34,46 34,47 34,48 34,49 34,50 34,51 34,53 34,54 34,55 34,57 34,58 34,59 34,60 34,61 34,63 34,64 34,65 34,67 34,68 34,69 34,70 33,70 33,71 33,72 33,73 33,74 33,75 33,76 33,77 33,78" fill="none" stroke="#00f0b5" stroke-width="3" stroke-linecap="round" stroke-linejoin="round" opacity="0.95">
    <title>3635 a:1</title>
  </polyline>
</svg>
