<?xml version="1.0" encoding="UTF-8"?>
<svg xmlns="http://www.w3.org/2000/svg" width="87" height="100" viewBox="0 0 87 100">
  <title>particle img3-m49-p6 f:1 i:1 d:1</title>
  <metadata>{&quot;entityType&quot;:&quot;particle&quot;,&quot;entityId&quot;:&quot;img3-m49-p6&quot;,&quot;token&quot;:&quot;f:1 i:1 d:1&quot;,&quot;signature&quot;:&quot;f:1 i:1 d:1&quot;,&quot;imageName&quot;:&quot;page-003.jpg&quot;,&quot;imageId&quot;:3,&quot;bounds&quot;:{&quot;x&quot;:2249,&quot;y&quot;:1026,&quot;w&quot;:87,&quot;h&quot;:100},&quot;atoms&quot;:[{&quot;id&quot;:1887,&quot;token&quot;:&quot;f:1&quot;,&quot;particle_id&quot;:&quot;img3-m49-p6&quot;,&quot;molecule_id&quot;:&quot;img3-m49&quot;,&quot;atom_order&quot;:1},{&quot;id&quot;:1888,&quot;token&quot;:&quot;i:1&quot;,&quot;particle_id&quot;:&quot;img3-m49-p6&quot;,&quot;molecule_id&quot;:&quot;img3-m49&quot;,&quot;atom_order&quot;:2},{&quot;id&quot;:1889,&quot;token&quot;:&quot;d:1&quot;,&quot;particle_id&quot;:&quot;img3-m49-p6&quot;,&quot;molecule_id&quot;:&quot;img3-m49&quot;,&quot;atom_order&quot;:3}]}</metadata>
  <rect x="0" y="0" width="87" height="100" fill="#f8f0d8"/>
  <image href="file:///C:/Users/HHHES/AppData/Roaming/com.voynichlab.datasetcreator/images/1/35a70f63-88ab-4986-b441-b78046a10087.jpg" x="-2249" y="-1026" width="2972" height="3766" opacity="0.92"/>
  <rect x="0.5" y="0.5" width="86" height="99" fill="none" stroke="#111827" stroke-width="1" opacity="0.35"/>
  <polyline points="46,65 46,66 47,66 47,67 47,68 48,68 48,69 48,70 49,70 49,71 49,72 50,72 50,73 51,74 51,75 52,76 52,77 53,77 53,78 53,79 54,80 54,81 54,82 55,82 55,83 55,84 56,84" fill="none" stroke="#00a2ff" stroke-width="3" stroke-linecap="round" stroke-linejoin="round" opacity="0.95">
    <title>1887 f:1</title>
  </polyline>
  <polyline points="46,66 47,66 48,66 48,65 49,65 50,65 51,65 52,64 53,64 54,64 55,64 55,63 56,63 57,63 57,62 58,62 59,62 59,61 60,61 61,60 62,60 62,59 63,58 64,58 64,57 65,56 66,55 67,55 67,54 68,54 68,53 68,52 69,52 69,51 69,50 70,50 70,49 70,48 70,47 71,47 71,46 71,45 71,44 71,43 71,42 71,41 71,40 71,39 71,38 70,38 70,37 70,36 69,36 69,35 69,34 68,34 68,33 67,33 67,32 66,32 66,31 65,31 65,30 64,29 64,28 63,28 63,27 62,27 62,26 61,26 61,25 60,25 59,24 58,24" fill="none" stroke="#00ff7f" stroke-width="3" stroke-linecap="round" stroke-linejoin="round" opacity="0.95">
    <title>1888 i:1</title>
  </polyline>
  <polyline points="16,26 17,26 17,25 18,25 19,25 19,24 20,24 21,23 22,23 23,22 24,22 25,22 25,21 26,21 26,20 27,20 28,20 29,19 30,19 30,18 31,18 32,18 33,18 33,17 34,17 35,17 35,16 36,16 37,16 38,16 39,16 40,16 41,16 42,16 43,16 44,16 45,16 46,16 47,16 48,17 49,17 50,17 50,18 51,18 52,18 52,19 53,19 54,19 54,20 55,20 56,20 56,21 57,21 57,22 58,22 58,23 59,23 59,24 60,24 60,25 61,25" fill="none" stroke="#ff2d55" stroke-width="3" stroke-linecap="round" stroke-linejoin="round" opacity="0.95">
    <title>1889 d:1</title>
  </polyline>
</svg>
