<?xml version="1.0" encoding="UTF-8"?>
<svg xmlns="http://www.w3.org/2000/svg" width="56" height="63" viewBox="0 0 56 63">
  <title>particle img3-m40-p7 n:1</title>
  <metadata>{&quot;entityType&quot;:&quot;particle&quot;,&quot;entityId&quot;:&quot;img3-m40-p7&quot;,&quot;token&quot;:&quot;n:1&quot;,&quot;signature&quot;:&quot;n:1&quot;,&quot;imageName&quot;:&quot;page-003.jpg&quot;,&quot;imageId&quot;:3,&quot;bounds&quot;:{&quot;x&quot;:2275,&quot;y&quot;:827,&quot;w&quot;:56,&quot;h&quot;:63},&quot;atoms&quot;:[{&quot;id&quot;:3667,&quot;token&quot;:&quot;n:1&quot;,&quot;particle_id&quot;:&quot;img3-m40-p7&quot;,&quot;molecule_id&quot;:&quot;img3-m40&quot;,&quot;atom_order&quot;:1}]}</metadata>
  <rect x="0" y="0" width="56" height="63" fill="#f8f0d8"/>
  <image href="file:///C:/Users/HHHES/AppData/Roaming/com.voynichlab.datasetcreator/images/1/35a70f63-88ab-4986-b441-b78046a10087.jpg" x="-2275" y="-827" width="2972" height="3766" opacity="0.92"/>
  <rect x="0.5" y="0.5" width="55" height="62" fill="none" stroke="#111827" stroke-width="1" opacity="0.35"/>
  <polyline points="26,30 24,31 23,31 22,31 21,31 20,31 20,30 20,29 20,28 21,28 21,27 22,27 22,26 22,25 22,24 23,24 23,23 23,22 24,22 24,21 25,21 26,21 26,20 27,20 28,19 29,19 30,19 30,18 31,18 32,18 33,17 34,17 35,17 36,17 36,16 37,16 38,16 39,16 39,17 40,17 40,18 40,19 40,20 40,21 39,21 39,22 39,23 38,23 38,24 37,25 37,26 36,26 36,27 35,28 34,28 34,29 33,30 33,31 32,31 31,31 31,32 31,33 30,33 29,34 29,35 28,35 28,36 27,36 27,37 26,37 25,38 25,39 24,39 24,40 23,41 22,42 21,43 20,43 20,44 19,44 19,45 18,46 17,46 17,47 16,47" fill="none" stroke="#f92f59" stroke-width="3" stroke-linecap="round" stroke-linejoin="round" opacity="0.95">
    <title>3667 n:1</title>
  </polyline>
</svg>
