<?xml version="1.0" encoding="UTF-8"?>
<svg xmlns="http://www.w3.org/2000/svg" width="77" height="121" viewBox="0 0 77 121">
  <title>particle img3-m84-p2 a:1 b:1 c:1 a:1</title>
  <metadata>{&quot;entityType&quot;:&quot;particle&quot;,&quot;entityId&quot;:&quot;img3-m84-p2&quot;,&quot;token&quot;:&quot;a:1 b:1 c:1 a:1&quot;,&quot;signature&quot;:&quot;a:1 b:1 c:1 a:1&quot;,&quot;imageName&quot;:&quot;page-003.jpg&quot;,&quot;imageId&quot;:3,&quot;bounds&quot;:{&quot;x&quot;:586,&quot;y&quot;:1543,&quot;w&quot;:77,&quot;h&quot;:121},&quot;atoms&quot;:[{&quot;id&quot;:2227,&quot;token&quot;:&quot;a:1&quot;,&quot;particle_id&quot;:&quot;img3-m84-p2&quot;,&quot;molecule_id&quot;:&quot;img3-m84&quot;,&quot;atom_order&quot;:1},{&quot;id&quot;:2228,&quot;token&quot;:&quot;b:1&quot;,&quot;particle_id&quot;:&quot;img3-m84-p2&quot;,&quot;molecule_id&quot;:&quot;img3-m84&quot;,&quot;atom_order&quot;:2},{&quot;id&quot;:2229,&quot;token&quot;:&quot;c:1&quot;,&quot;particle_id&quot;:&quot;img3-m84-p2&quot;,&quot;molecule_id&quot;:&quot;img3-m84&quot;,&quot;atom_order&quot;:3},{&quot;id&quot;:2230,&quot;token&quot;:&quot;a:1&quot;,&quot;particle_id&quot;:&quot;img3-m84-p2&quot;,&quot;molecule_id&quot;:&quot;img3-m84&quot;,&quot;atom_order&quot;:4}]}</metadata>
  <rect x="0" y="0" width="77" height="121" fill="#f8f0d8"/>
  <image href="file:///C:/Users/HHHES/AppData/Roaming/com.voynichlab.datasetcreator/images/1/35a70f63-88ab-4986-b441-b78046a10087.jpg" x="-586" y="-1543" width="2972" height="3766" opacity="0.92"/>
  <rect x="0.5" y="0.5" width="76" height="120" fill="none" stroke="#111827" stroke-width="1" opacity="0.35"/>
  <polyline points="16,105 16,104 16,103 16,102 16,101 16,100 16,99 16,98 16,97 16,96 16,95 16,94 16,93 16,92 16,91 16,90 16,89 16,88 17,88 17,87 17,86 17,85 17,84 17,83 17,82 17,81 17,80 17,79 17,78 17,77 17,76 17,75 18,74 18,73 18,72 18,71 18,70 18,69 18,68 18,67 18,66 18,65 18,64 18,63 18,62 18,61 18,60 18,59 18,58 17,58 17,57 17,56 17,55 17,54 17,53 17,52 17,51 17,50 17,49 17,48 17,47 17,46 17,45 17,44 17,43 16,42 16,41 16,40 16,39 16,38 16,37 16,36 16,35 16,34 16,33 16,32 16,31 16,30 16,29" fill="none" stroke="#00f0b5" stroke-width="3" stroke-linecap="round" stroke-linejoin="round" opacity="0.95">
    <title>2227 a:1</title>
  </polyline>
  <polyline points="16,30 16,31 16,32 17,32 17,33 17,34 18,34 18,35 18,36 19,36 19,37 20,37 21,37 21,38 22,38 22,39 23,39 24,39 24,40 25,40 26,40 27,40 28,40 29,40 30,40 31,40 31,41 32,41 33,41 34,41 35,41 36,41 37,41 38,41 39,41 40,41 40,40 41,40 42,40 43,40 44,40 45,39 46,39 47,39 48,38 49,38 50,38 50,37 51,37 52,37 53,37 53,36 54,36 54,35 55,35 56,35 56,34 57,34 57,33 58,33 58,32 58,31 59,31 59,30 60,30 60,29" fill="none" stroke="#2f7df6" stroke-width="3" stroke-linecap="round" stroke-linejoin="round" opacity="0.95">
    <title>2228 b:1</title>
  </polyline>
  <polyline points="60,30 60,29 61,29 61,28 61,27 61,26 61,25 61,24 61,23 60,22 60,21 59,21 59,20 58,20 58,19 57,19 57,18 56,18 55,18 55,17 54,17 53,17 52,16 51,16 50,16 49,16 48,16 47,16 47,17 46,17 45,17 44,17 43,18 42,18 42,19 41,19 40,19 40,20 39,20 39,21 38,21 38,22 37,22 37,23 36,23 36,24 36,25 35,26 35,27 35,28 34,28 34,29 34,30 34,31 34,32 34,33 34,34 34,35 34,36 34,37 35,37 35,38 36,38 37,38 38,38 39,38 39,39 40,39 41,39 42,39 43,39 44,39 45,39 45,38 46,38 47,38 48,37 49,37 50,37 50,36 51,36 51,35 52,35 53,35 53,34 54,34 55,34 55,33 56,33 57,33 57,32 58,32 58,31 59,31 59,30 60,30 60,29 61,29" fill="none" stroke="#8aff00" stroke-width="3" stroke-linecap="round" stroke-linejoin="round" opacity="0.95">
    <title>2229 c:1</title>
  </polyline>
  <polyline points="34,34 34,35 34,36 34,37 34,38 34,39 34,40 34,41 34,42 34,43 34,44 34,45 34,46 34,47 34,48 34,49 34,50 34,51 34,52 34,53 34,54 35,54 35,55 35,56 35,57 35,58 35,59 35,60 35,61 35,62 35,63 35,64 35,65 35,66 35,67 35,68 35,69 35,70 35,71 35,72 35,73 35,74 35,75 35,76 35,77 35,78 35,79 36,80 36,81 36,82 36,83 36,84 37,84 37,85 37,86 37,87 37,88 37,89 37,90 38,90 38,91 38,92 38,93 38,94 38,95 38,96 38,97 38,98 38,99 38,100 38,101 38,102 38,103 38,104 38,105 38,104" fill="none" stroke="#00f0b5" stroke-width="3" stroke-linecap="round" stroke-linejoin="round" opacity="0.95">
    <title>2230 a:1</title>
  </polyline>
</svg>
