<?xml version="1.0" encoding="UTF-8"?>
<svg xmlns="http://www.w3.org/2000/svg" width="57" height="79" viewBox="0 0 57 79">
  <title>particle img3-m56-p5 e:1 h:1</title>
  <metadata>{&quot;entityType&quot;:&quot;particle&quot;,&quot;entityId&quot;:&quot;img3-m56-p5&quot;,&quot;token&quot;:&quot;e:1 h:1&quot;,&quot;signature&quot;:&quot;e:1 h:1&quot;,&quot;imageName&quot;:&quot;page-003.jpg&quot;,&quot;imageId&quot;:3,&quot;bounds&quot;:{&quot;x&quot;:886,&quot;y&quot;:1152,&quot;w&quot;:57,&quot;h&quot;:79},&quot;atoms&quot;:[{&quot;id&quot;:1925,&quot;token&quot;:&quot;e:1&quot;,&quot;particle_id&quot;:&quot;img3-m56-p5&quot;,&quot;molecule_id&quot;:&quot;img3-m56&quot;,&quot;atom_order&quot;:1},{&quot;id&quot;:1946,&quot;token&quot;:&quot;h:1&quot;,&quot;particle_id&quot;:&quot;img3-m56-p5&quot;,&quot;molecule_id&quot;:&quot;img3-m56&quot;,&quot;atom_order&quot;:2}]}</metadata>
  <rect x="0" y="0" width="57" height="79" fill="#f8f0d8"/>
  <image href="file:///C:/Users/HHHES/AppData/Roaming/com.voynichlab.datasetcreator/images/1/35a70f63-88ab-4986-b441-b78046a10087.jpg" x="-886" y="-1152" width="2972" height="3766" opacity="0.92"/>
  <rect x="0.5" y="0.5" width="56" height="78" fill="none" stroke="#111827" stroke-width="1" opacity="0.35"/>
  <polyline points="27,33 25,33 25,34 24,34 23,34 23,35 22,35 21,35 20,35 19,35 18,34 17,33 17,32 17,31 16,30 16,29 16,28 16,27 16,26 17,26 17,25 17,24 18,24 18,23 18,22 19,22 19,21 20,21 20,20 21,20 21,19 22,19 23,19 23,18 24,18 25,18 25,17 26,17 27,17 28,17 28,16 29,16 30,16 31,16 32,16 33,16 34,16 35,16 36,16 36,17 37,17" fill="none" stroke="#f2e45c" stroke-width="3" stroke-linecap="round" stroke-linejoin="round" opacity="0.95">
    <title>1925 e:1</title>
  </polyline>
  <polyline points="36,17 37,17 37,18 38,18 38,19 38,20 38,21 39,21 39,22 39,23 39,24 39,25 40,25 40,26 40,27 40,28 40,29 41,29 41,30 41,31 41,32 41,33 41,34 41,35 41,36 41,37 41,38 40,39 40,40 40,41 39,42 39,43 38,44 38,45 38,46 37,46 37,47 37,48 36,48 36,49 36,50 35,50 35,51 35,52 34,52 34,53 33,53 33,54 33,55 32,55 32,56 31,57 30,58 29,58 29,59 28,59 27,59 27,60 26,60 25,61 24,62 23,62 23,63 22,63" fill="none" stroke="#ff8c00" stroke-width="3" stroke-linecap="round" stroke-linejoin="round" opacity="0.95">
    <title>1946 h:1</title>
  </polyline>
</svg>
