<?xml version="1.0" encoding="UTF-8"?>
<svg xmlns="http://www.w3.org/2000/svg" width="134" height="109" viewBox="0 0 134 109">
  <title>particle img3-m167-p1 e:1 a:1 e:1 b:1 c:1 a:1 g:1 e:1</title>
  <metadata>{&quot;entityType&quot;:&quot;particle&quot;,&quot;entityId&quot;:&quot;img3-m167-p1&quot;,&quot;token&quot;:&quot;e:1 a:1 e:1 b:1 c:1 a:1 g:1 e:1&quot;,&quot;signature&quot;:&quot;e:1 a:1 e:1 b:1 c:1 a:1 g:1 e:1&quot;,&quot;imageName&quot;:&quot;page-003.jpg&quot;,&quot;imageId&quot;:3,&quot;bounds&quot;:{&quot;x&quot;:1655,&quot;y&quot;:2666,&quot;w&quot;:134,&quot;h&quot;:109},&quot;atoms&quot;:[{&quot;id&quot;:3915,&quot;token&quot;:&quot;e:1&quot;,&quot;particle_id&quot;:&quot;img3-m167-p1&quot;,&quot;molecule_id&quot;:&quot;img3-m167&quot;,&quot;atom_order&quot;:1},{&quot;id&quot;:3949,&quot;token&quot;:&quot;a:1&quot;,&quot;particle_id&quot;:&quot;img3-m167-p1&quot;,&quot;molecule_id&quot;:&quot;img3-m167&quot;,&quot;atom_order&quot;:2},{&quot;id&quot;:3917,&quot;token&quot;:&quot;e:1&quot;,&quot;particle_id&quot;:&quot;img3-m167-p1&quot;,&quot;molecule_id&quot;:&quot;img3-m167&quot;,&quot;atom_order&quot;:3},{&quot;id&quot;:3956,&quot;token&quot;:&quot;b:1&quot;,&quot;particle_id&quot;:&quot;img3-m167-p1&quot;,&quot;molecule_id&quot;:&quot;img3-m167&quot;,&quot;atom_order&quot;:4},{&quot;id&quot;:3938,&quot;token&quot;:&quot;c:1&quot;,&quot;particle_id&quot;:&quot;img3-m167-p1&quot;,&quot;molecule_id&quot;:&quot;img3-m167&quot;,&quot;atom_order&quot;:5},{&quot;id&quot;:3950,&quot;token&quot;:&quot;a:1&quot;,&quot;particle_id&quot;:&quot;img3-m167-p1&quot;,&quot;molecule_id&quot;:&quot;img3-m167&quot;,&quot;atom_order&quot;:6},{&quot;id&quot;:3926,&quot;token&quot;:&quot;g:1&quot;,&quot;particle_id&quot;:&quot;img3-m167-p1&quot;,&quot;molecule_id&quot;:&quot;img3-m167&quot;,&quot;atom_order&quot;:7},{&quot;id&quot;:3916,&quot;token&quot;:&quot;e:1&quot;,&quot;particle_id&quot;:&quot;img3-m167-p1&quot;,&quot;molecule_id&quot;:&quot;img3-m167&quot;,&quot;atom_order&quot;:8}]}</metadata>
  <rect x="0" y="0" width="134" height="109" fill="#f8f0d8"/>
  <image href="file:///C:/Users/HHHES/AppData/Roaming/com.voynichlab.datasetcreator/images/1/35a70f63-88ab-4986-b441-b78046a10087.jpg" x="-1655" y="-2666" width="2972" height="3766" opacity="0.92"/>
  <rect x="0.5" y="0.5" width="133" height="108" fill="none" stroke="#111827" stroke-width="1" opacity="0.35"/>
  <polyline points="31,86 31,87 30,87 30,88 29,88 28,88 28,89 27,89 26,89 25,89 24,89 23,89 22,89 21,89 21,88 20,88 19,88 18,88 18,87 17,87 16,87 16,86 16,85 16,84 16,83 16,82 16,81 16,80 17,80 17,79 17,78 17,77 18,77 18,76 18,75 19,75 19,74 19,73 20,73 21,73 21,72 22,72 22,71 23,71 24,71 24,70 25,70 26,70 27,70 27,69" fill="none" stroke="#f2e45c" stroke-width="3" stroke-linecap="round" stroke-linejoin="round" opacity="0.95">
    <title>3915 e:1</title>
  </polyline>
  <polyline points="57,16 57,17 58,17 58,18 58,19 58,20 58,21 58,22 58,23 58,24 58,25 58,26 58,27 58,28 58,29 58,30 58,31 58,32 58,33 58,34 58,35 58,36 58,37 58,38 58,39 58,40 58,41 58,42 57,43 57,44 57,46 57,47 57,48 57,49 57,50 57,51 57,53 57,55 57,56 57,57 56,57 56,58 56,59 56,60 56,61 56,62 56,63 56,64 56,65 56,66 56,67 56,68 56,69 56,71 56,72 57,72 57,73 57,74 57,75 57,76 57,77 57,78 57,79 57,80 57,81 57,82 57,83 57,84 57,85 57,86 57,87 57,88 57,89 57,90 57,91 57,90 57,89" fill="none" stroke="#00f0b5" stroke-width="3" stroke-linecap="round" stroke-linejoin="round" opacity="0.95">
    <title>3949 a:1</title>
  </polyline>
  <polyline points="62,33 62,34 61,34 61,35 60,35 59,35 59,36 58,36 57,36 56,36 55,36 54,36 53,36 52,36 52,35 51,35 50,35 49,35 49,34 48,34 47,34 47,33 47,32 47,31 47,30 47,29 47,28 47,27 48,27 48,26 48,25 48,24 49,24 49,23 49,22 50,22 50,21 50,20 51,20 52,20 52,19 53,19 53,18 54,18 55,18 55,17 56,17 57,17 58,17 58,16" fill="none" stroke="#f2e45c" stroke-width="3" stroke-linecap="round" stroke-linejoin="round" opacity="0.95">
    <title>3917 e:1</title>
  </polyline>
  <polyline points="50,33 51,34 52,34 52,35 53,35 54,35 55,35 56,35 57,36 59,36 60,36 61,36 62,36 63,36 64,36 65,36 66,36 67,36 68,36 68,37 69,37 70,37 71,37 72,37 73,37 74,37 75,37 76,37 77,37 78,37 79,37 80,37 81,37 82,37 83,37 84,36 85,36 87,36 88,36 89,36 90,36 91,36 92,36 92,35 93,35 94,35 95,35 95,34 96,34 97,34" fill="none" stroke="#2f7df6" stroke-width="3" stroke-linecap="round" stroke-linejoin="round" opacity="0.95">
    <title>3956 b:1</title>
  </polyline>
  <polyline points="85,21 86,21 87,20 88,20 88,19 89,19 90,19 90,18 91,18 92,18 93,17 94,17 95,17 97,17 98,17 99,17 100,17 101,17 102,17 102,18 103,18 104,18 105,18 106,19 107,19 108,19 108,20 109,20 110,20 110,21 111,21 111,22 111,23 111,24 111,25 111,26 110,26 110,27 110,28 109,28 109,29 108,29 108,30 107,30 106,31 105,32 104,32 104,33 103,33 102,34 101,34 101,35 100,35 99,35 98,35 97,35 96,35 95,35 94,35 93,36 92,36 91,36 90,35 89,35 89,34 88,34 88,33 87,33 86,33 86,32 86,31 86,30 86,29 85,29 85,28 85,27 85,26 85,25 85,24 85,23 85,22 85,21" fill="none" stroke="#8aff00" stroke-width="3" stroke-linecap="round" stroke-linejoin="round" opacity="0.95">
    <title>3938 c:1</title>
  </polyline>
  <polyline points="85,22 85,21 85,22 84,23 84,25 83,27 83,28 82,30 82,32 81,33 81,35 81,37 80,39 80,40 79,42 79,44 79,47 78,48 78,50 78,52 78,53 78,55 78,57 77,59 77,60 77,62 77,63 77,65 77,66 77,67 77,70 77,72 77,73 77,74 77,75 77,76 77,77 77,78 77,79 77,80 77,81 77,82 77,83 76,83 76,84 76,85 76,86 76,87 76,88 76,89 76,90" fill="none" stroke="#00f0b5" stroke-width="3" stroke-linecap="round" stroke-linejoin="round" opacity="0.95">
    <title>3950 a:1</title>
  </polyline>
  <polyline points="25,70 26,70 27,70 28,70 29,70 30,70 31,70 32,70 33,70 35,71 36,71 37,71 38,71 39,71 40,71 41,71 43,72 44,72 46,72 48,72 49,72 51,72 54,72 55,72 57,73 59,73 61,73 62,73 65,73 67,73 69,73 70,73 72,73 74,73 75,73 77,73 80,74 81,74 82,74 84,74 85,74 86,74 87,74 89,74 90,74 91,74 92,74 93,74 94,74 95,74 96,75 97,75 98,75 99,75 100,75 101,75 102,75 103,75 104,75 105,75 106,75 107,75 108,75 109,75 110,75 111,75" fill="none" stroke="#7c3cff" stroke-width="3" stroke-linecap="round" stroke-linejoin="round" opacity="0.95">
    <title>3926 g:1</title>
  </polyline>
  <polyline points="118,90 118,91 117,91 117,92 116,92 115,92 115,93 114,93 113,93 112,93 111,93 110,93 109,93 108,93 108,92 107,92 106,92 105,92 105,91 104,91 103,91 103,90 103,89 103,88 103,87 103,86 103,85 103,84 104,84 104,83 104,82 104,81 105,81 105,80 105,79 106,79 106,78 106,77 107,77 108,77 108,76 109,76 109,75 110,75 111,75 111,74 112,74 113,74 114,74 114,73" fill="none" stroke="#f2e45c" stroke-width="3" stroke-linecap="round" stroke-linejoin="round" opacity="0.95">
    <title>3916 e:1</title>
  </polyline>
</svg>
