<?xml version="1.0" encoding="UTF-8"?>
<svg xmlns="http://www.w3.org/2000/svg" width="86" height="93" viewBox="0 0 86 93">
  <title>particle img3-m57-p3 f:1 i:1 d:1</title>
  <metadata>{&quot;entityType&quot;:&quot;particle&quot;,&quot;entityId&quot;:&quot;img3-m57-p3&quot;,&quot;token&quot;:&quot;f:1 i:1 d:1&quot;,&quot;signature&quot;:&quot;f:1 i:1 d:1&quot;,&quot;imageName&quot;:&quot;page-003.jpg&quot;,&quot;imageId&quot;:3,&quot;bounds&quot;:{&quot;x&quot;:2151,&quot;y&quot;:1126,&quot;w&quot;:86,&quot;h&quot;:93},&quot;atoms&quot;:[{&quot;id&quot;:1994,&quot;token&quot;:&quot;f:1&quot;,&quot;particle_id&quot;:&quot;img3-m57-p3&quot;,&quot;molecule_id&quot;:&quot;img3-m57&quot;,&quot;atom_order&quot;:1},{&quot;id&quot;:1995,&quot;token&quot;:&quot;i:1&quot;,&quot;particle_id&quot;:&quot;img3-m57-p3&quot;,&quot;molecule_id&quot;:&quot;img3-m57&quot;,&quot;atom_order&quot;:2},{&quot;id&quot;:1996,&quot;token&quot;:&quot;d:1&quot;,&quot;particle_id&quot;:&quot;img3-m57-p3&quot;,&quot;molecule_id&quot;:&quot;img3-m57&quot;,&quot;atom_order&quot;:3}]}</metadata>
  <rect x="0" y="0" width="86" height="93" fill="#f8f0d8"/>
  <image href="file:///C:/Users/HHHES/AppData/Roaming/com.voynichlab.datasetcreator/images/1/35a70f63-88ab-4986-b441-b78046a10087.jpg" x="-2151" y="-1126" width="2972" height="3766" opacity="0.92"/>
  <rect x="0.5" y="0.5" width="85" height="92" fill="none" stroke="#111827" stroke-width="1" opacity="0.35"/>
  <polyline points="47,56 47,57 47,58 48,58 48,59 48,60 49,60 49,61 50,62 50,63 51,63 51,64 52,65 52,66 53,66 53,67 54,67 54,68 55,68 55,69 55,70 56,70 56,71 56,72 57,72 57,73 58,73 58,74 59,75 59,76 60,76 60,77" fill="none" stroke="#00a2ff" stroke-width="3" stroke-linecap="round" stroke-linejoin="round" opacity="0.95">
    <title>1994 f:1</title>
  </polyline>
  <polyline points="50,61 51,61 52,61 53,61 54,61 55,61 55,60 56,60 57,60 58,59 59,59 59,58 60,58 61,58 61,57 62,57 63,57 63,56 64,56 64,55 65,55 65,54 66,54 66,53 67,53 67,52 67,51 68,51 68,50 69,49 69,48 70,48 70,47 70,46 70,45 70,44 70,43 70,42 70,41 70,40 70,39 70,38 70,37 69,37 69,36 69,35 68,34 68,33 67,32 67,31 66,31 66,30 65,30 65,29 64,29 64,28 63,28 63,27 62,27 62,26 61,26 61,25 60,25 59,24 58,24 58,23 57,23 56,23" fill="none" stroke="#00ff7f" stroke-width="3" stroke-linecap="round" stroke-linejoin="round" opacity="0.95">
    <title>1995 i:1</title>
  </polyline>
  <polyline points="16,24 19,22 23,19 25,18 26,18 27,18 27,17 28,17 29,17 30,17 31,17 32,17 33,17 34,16 35,16 36,16 37,16 38,16 39,16 40,16 41,16 42,16 42,17 43,17 44,17 45,17 46,17 46,18 47,18 48,18 49,18 49,19 50,19 51,19 52,20 53,20 54,21 55,21 56,22 57,22 57,23" fill="none" stroke="#ff2d55" stroke-width="3" stroke-linecap="round" stroke-linejoin="round" opacity="0.95">
    <title>1996 d:1</title>
  </polyline>
</svg>
