<?xml version="1.0" encoding="UTF-8"?>
<svg xmlns="http://www.w3.org/2000/svg" width="58" height="58" viewBox="0 0 58 58">
  <title>particle img3-m86-p1 n:1</title>
  <metadata>{&quot;entityType&quot;:&quot;particle&quot;,&quot;entityId&quot;:&quot;img3-m86-p1&quot;,&quot;token&quot;:&quot;n:1&quot;,&quot;signature&quot;:&quot;n:1&quot;,&quot;imageName&quot;:&quot;page-003.jpg&quot;,&quot;imageId&quot;:3,&quot;bounds&quot;:{&quot;x&quot;:1956,&quot;y&quot;:1650,&quot;w&quot;:58,&quot;h&quot;:58},&quot;atoms&quot;:[{&quot;id&quot;:3682,&quot;token&quot;:&quot;n:1&quot;,&quot;particle_id&quot;:&quot;img3-m86-p1&quot;,&quot;molecule_id&quot;:&quot;img3-m86&quot;,&quot;atom_order&quot;:1}]}</metadata>
  <rect x="0" y="0" width="58" height="58" fill="#f8f0d8"/>
  <image href="file:///C:/Users/HHHES/AppData/Roaming/com.voynichlab.datasetcreator/images/1/35a70f63-88ab-4986-b441-b78046a10087.jpg" x="-1956" y="-1650" width="2972" height="3766" opacity="0.92"/>
  <rect x="0.5" y="0.5" width="57" height="57" fill="none" stroke="#111827" stroke-width="1" opacity="0.35"/>
  <polyline points="16,40 16,39 16,38 16,37 16,36 16,35 16,34 16,33 16,32 16,31 16,30 16,29 16,28 16,27 17,27 17,26 17,25 17,24 18,24 18,23 18,22 19,22 19,21 20,21 20,20 21,19 22,19 23,18 24,18 25,17 26,17 27,16 28,16 29,16 31,16 32,16 33,16 34,16 35,16 36,16 39,17 41,18 42,18 42,19 42,20 42,21 42,22 42,23 42,24 41,25 41,26 40,27 40,28 40,29 40,30 39,30 39,31 39,32 38,32 38,33 38,34 37,34 37,35 37,36 36,36 35,37 34,38 33,39 32,40 31,40 31,41 30,41 30,42 29,42" fill="none" stroke="#f92f59" stroke-width="3" stroke-linecap="round" stroke-linejoin="round" opacity="0.95">
    <title>3682 n:1</title>
  </polyline>
</svg>
