<?xml version="1.0" encoding="UTF-8"?>
<svg xmlns="http://www.w3.org/2000/svg" width="63" height="83" viewBox="0 0 63 83">
  <title>particle img3-m18-p3 f:1 i:1 d:1</title>
  <metadata>{&quot;entityType&quot;:&quot;particle&quot;,&quot;entityId&quot;:&quot;img3-m18-p3&quot;,&quot;token&quot;:&quot;f:1 i:1 d:1&quot;,&quot;signature&quot;:&quot;f:1 i:1 d:1&quot;,&quot;imageName&quot;:&quot;page-003.jpg&quot;,&quot;imageId&quot;:3,&quot;bounds&quot;:{&quot;x&quot;:990,&quot;y&quot;:593,&quot;w&quot;:63,&quot;h&quot;:83},&quot;atoms&quot;:[{&quot;id&quot;:1158,&quot;token&quot;:&quot;f:1&quot;,&quot;particle_id&quot;:&quot;img3-m18-p3&quot;,&quot;molecule_id&quot;:&quot;img3-m18&quot;,&quot;atom_order&quot;:1},{&quot;id&quot;:1159,&quot;token&quot;:&quot;i:1&quot;,&quot;particle_id&quot;:&quot;img3-m18-p3&quot;,&quot;molecule_id&quot;:&quot;img3-m18&quot;,&quot;atom_order&quot;:2},{&quot;id&quot;:1160,&quot;token&quot;:&quot;d:1&quot;,&quot;particle_id&quot;:&quot;img3-m18-p3&quot;,&quot;molecule_id&quot;:&quot;img3-m18&quot;,&quot;atom_order&quot;:3}]}</metadata>
  <rect x="0" y="0" width="63" height="83" fill="#f8f0d8"/>
  <image href="file:///C:/Users/HHHES/AppData/Roaming/com.voynichlab.datasetcreator/images/1/35a70f63-88ab-4986-b441-b78046a10087.jpg" x="-990" y="-593" width="2972" height="3766" opacity="0.92"/>
  <rect x="0.5" y="0.5" width="62" height="82" fill="none" stroke="#111827" stroke-width="1" opacity="0.35"/>
  <polyline points="27,46 27,47 27,48 28,48 28,49 28,50 29,50 29,51 30,52 30,53 31,53 31,54 32,55 32,56 33,56 33,57 34,57 34,58 35,58 35,59 35,60 36,60 36,61 36,62 37,62 37,63 38,63 38,64 39,65 39,66 40,66 40,67" fill="none" stroke="#00a2ff" stroke-width="3" stroke-linecap="round" stroke-linejoin="round" opacity="0.95">
    <title>1158 f:1</title>
  </polyline>
  <polyline points="28,49 29,48 30,48 30,47 31,47 32,47 32,46 33,46 34,46 34,45 35,45 36,45 36,44 37,44 37,43 38,43 39,43 39,42 40,42 40,41 41,41 42,41 42,40 43,40 43,39 43,38 44,38 44,37 45,37 45,36 45,35 46,35 46,34 46,33 47,33 47,32 47,31 47,30 47,29 47,28 47,27 47,26 47,25 46,25 46,24 46,23" fill="none" stroke="#00ff7f" stroke-width="3" stroke-linecap="round" stroke-linejoin="round" opacity="0.95">
    <title>1159 i:1</title>
  </polyline>
  <polyline points="47,22 46,22 45,21 44,21 44,20 43,20 43,19 42,19 41,19 40,18 39,18 38,18 38,17 37,17 36,17 35,17 35,16 34,16 33,16 32,16 31,16 30,16 29,16 28,16 27,16 26,16 26,17 25,17 24,17 23,17 23,18 22,18 21,19 20,19 20,20 19,20 19,21 18,21 18,22 17,22 16,23" fill="none" stroke="#ff2d55" stroke-width="3" stroke-linecap="round" stroke-linejoin="round" opacity="0.95">
    <title>1160 d:1</title>
  </polyline>
</svg>
