<?xml version="1.0" encoding="UTF-8"?>
<svg xmlns="http://www.w3.org/2000/svg" width="71" height="90" viewBox="0 0 71 90">
  <title>particle img3-m98-p2 a:1 b:1 c:1 a:1</title>
  <metadata>{&quot;entityType&quot;:&quot;particle&quot;,&quot;entityId&quot;:&quot;img3-m98-p2&quot;,&quot;token&quot;:&quot;a:1 b:1 c:1 a:1&quot;,&quot;signature&quot;:&quot;a:1 b:1 c:1 a:1&quot;,&quot;imageName&quot;:&quot;page-003.jpg&quot;,&quot;imageId&quot;:3,&quot;bounds&quot;:{&quot;x&quot;:1768,&quot;y&quot;:1728,&quot;w&quot;:71,&quot;h&quot;:90},&quot;atoms&quot;:[{&quot;id&quot;:2531,&quot;token&quot;:&quot;a:1&quot;,&quot;particle_id&quot;:&quot;img3-m98-p2&quot;,&quot;molecule_id&quot;:&quot;img3-m98&quot;,&quot;atom_order&quot;:1},{&quot;id&quot;:2530,&quot;token&quot;:&quot;b:1&quot;,&quot;particle_id&quot;:&quot;img3-m98-p2&quot;,&quot;molecule_id&quot;:&quot;img3-m98&quot;,&quot;atom_order&quot;:2},{&quot;id&quot;:2528,&quot;token&quot;:&quot;c:1&quot;,&quot;particle_id&quot;:&quot;img3-m98-p2&quot;,&quot;molecule_id&quot;:&quot;img3-m98&quot;,&quot;atom_order&quot;:3},{&quot;id&quot;:2532,&quot;token&quot;:&quot;a:1&quot;,&quot;particle_id&quot;:&quot;img3-m98-p2&quot;,&quot;molecule_id&quot;:&quot;img3-m98&quot;,&quot;atom_order&quot;:4}]}</metadata>
  <rect x="0" y="0" width="71" height="90" fill="#f8f0d8"/>
  <image href="file:///C:/Users/HHHES/AppData/Roaming/com.voynichlab.datasetcreator/images/1/35a70f63-88ab-4986-b441-b78046a10087.jpg" x="-1768" y="-1728" width="2972" height="3766" opacity="0.92"/>
  <rect x="0.5" y="0.5" width="70" height="89" fill="none" stroke="#111827" stroke-width="1" opacity="0.35"/>
  <polyline points="16,74 16,73 16,72 16,71 16,70 16,69 16,68 16,67 16,66 16,65 16,64 16,63 16,62 16,61 16,60 16,59 16,58 16,57 16,56 16,55 16,54 16,53 16,52 16,51 16,50 16,49 16,48 16,47 16,46 16,45 16,44 16,43 16,42 16,41 16,40 16,39 16,38 16,37 16,36 17,36 17,35 17,34 17,33 17,32 17,31 17,30 17,29 17,28 17,27" fill="none" stroke="#00f0b5" stroke-width="3" stroke-linecap="round" stroke-linejoin="round" opacity="0.95">
    <title>2531 a:1</title>
  </polyline>
  <polyline points="17,27 17,28 18,28 18,29 18,30 18,31 18,32 19,32 19,33 20,33 20,34 21,34 21,35 22,35 22,36 23,36 24,36 25,36 26,36 27,37 28,37 29,37 30,37 31,37 32,37 33,37 34,37 35,37 36,37 37,37 37,36 38,36 39,36 40,35 41,35 42,35 42,34 43,34 44,34 44,33 45,33 46,33" fill="none" stroke="#2f7df6" stroke-width="3" stroke-linecap="round" stroke-linejoin="round" opacity="0.95">
    <title>2530 b:1</title>
  </polyline>
  <polyline points="46,33 42,33 41,33 41,32 40,32 39,32 38,32 38,31 37,31 37,30 36,30 36,29 36,28 36,27 35,27 35,26 35,25 35,24 35,23 36,23 36,22 36,21 37,21 37,20 38,20 38,19 39,18 39,17 40,17 41,17 42,17 42,16 43,16 44,16 45,16 46,16 47,16 48,16 49,17 50,17 51,17 51,18 52,18 52,19 53,19 53,20 54,20 54,21 54,22 55,22 55,23 55,24 55,25 54,25 54,26 54,27 54,28 53,28 53,29 53,30 52,30 52,31 51,31 51,32 50,32 49,32 49,33 48,33 47,33 46,33 45,33" fill="none" stroke="#8aff00" stroke-width="3" stroke-linecap="round" stroke-linejoin="round" opacity="0.95">
    <title>2528 c:1</title>
  </polyline>
  <polyline points="35,25 35,26 35,38 35,44 34,44 34,45 34,46 34,47 34,48 34,49 34,50 34,51 34,52 34,53 34,54 34,55 34,56 34,57 34,58 34,59 34,60 34,61 34,62 34,63 34,64 34,65 34,66 34,67 34,68 34,69 34,70 34,71 34,72" fill="none" stroke="#00f0b5" stroke-width="3" stroke-linecap="round" stroke-linejoin="round" opacity="0.95">
    <title>2532 a:1</title>
  </polyline>
</svg>
