<?xml version="1.0" encoding="UTF-8"?>
<svg xmlns="http://www.w3.org/2000/svg" width="64" height="57" viewBox="0 0 64 57">
  <title>particle img3-m1-p4 e:1 f:1</title>
  <metadata>{&quot;entityType&quot;:&quot;particle&quot;,&quot;entityId&quot;:&quot;img3-m1-p4&quot;,&quot;token&quot;:&quot;e:1 f:1&quot;,&quot;signature&quot;:&quot;e:1 f:1&quot;,&quot;imageName&quot;:&quot;page-003.jpg&quot;,&quot;imageId&quot;:3,&quot;bounds&quot;:{&quot;x&quot;:615,&quot;y&quot;:530,&quot;w&quot;:64,&quot;h&quot;:57},&quot;atoms&quot;:[{&quot;id&quot;:991,&quot;token&quot;:&quot;e:1&quot;,&quot;particle_id&quot;:&quot;img3-m1-p4&quot;,&quot;molecule_id&quot;:&quot;img3-m1&quot;,&quot;atom_order&quot;:1},{&quot;id&quot;:992,&quot;token&quot;:&quot;f:1&quot;,&quot;particle_id&quot;:&quot;img3-m1-p4&quot;,&quot;molecule_id&quot;:&quot;img3-m1&quot;,&quot;atom_order&quot;:2}]}</metadata>
  <rect x="0" y="0" width="64" height="57" fill="#f8f0d8"/>
  <image href="file:///C:/Users/HHHES/AppData/Roaming/com.voynichlab.datasetcreator/images/1/35a70f63-88ab-4986-b441-b78046a10087.jpg" x="-615" y="-530" width="2972" height="3766" opacity="0.92"/>
  <rect x="0.5" y="0.5" width="63" height="56" fill="none" stroke="#111827" stroke-width="1" opacity="0.35"/>
  <polyline points="34,37 33,37 32,38 31,38 31,39 30,39 30,40 29,40 28,40 28,41 27,41 26,41 25,41 24,41 23,41 22,40 21,40 21,39 20,39 19,39 19,38 18,38 18,37 17,37 17,36 17,35 16,35 16,34 16,33 16,32 16,31 16,30 16,29 16,28 16,27 17,27 17,26 17,25 18,25 18,24 19,24 20,23 21,23 21,22 22,21 23,21 23,20 24,20 24,19 25,19 26,19 27,18 28,18 29,17 30,17 31,17 32,17 33,17 33,16 34,16 35,16" fill="none" stroke="#f2e45c" stroke-width="3" stroke-linecap="round" stroke-linejoin="round" opacity="0.95">
    <title>991 e:1</title>
  </polyline>
  <polyline points="36,16 36,17 37,17 37,18 38,18 38,19 38,20 38,21 39,21 39,22 39,23 40,23 40,24 40,25 41,25 41,26 41,27 42,28 42,29 43,30 43,31 44,31 44,32 44,33 45,33 45,34 46,35 46,36 47,36 47,37 47,38 48,38 48,39 48,40" fill="none" stroke="#00a2ff" stroke-width="3" stroke-linecap="round" stroke-linejoin="round" opacity="0.95">
    <title>992 f:1</title>
  </polyline>
</svg>
