<?xml version="1.0" encoding="UTF-8"?>
<svg xmlns="http://www.w3.org/2000/svg" width="76" height="144" viewBox="0 0 76 144">
  <title>particle img3-m7-p2 a:1 b:1 c:1 a:1</title>
  <metadata>{&quot;entityType&quot;:&quot;particle&quot;,&quot;entityId&quot;:&quot;img3-m7-p2&quot;,&quot;token&quot;:&quot;a:1 b:1 c:1 a:1&quot;,&quot;signature&quot;:&quot;a:1 b:1 c:1 a:1&quot;,&quot;imageName&quot;:&quot;page-003.jpg&quot;,&quot;imageId&quot;:3,&quot;bounds&quot;:{&quot;x&quot;:2042,&quot;y&quot;:414,&quot;w&quot;:76,&quot;h&quot;:144},&quot;atoms&quot;:[{&quot;id&quot;:1115,&quot;token&quot;:&quot;a:1&quot;,&quot;particle_id&quot;:&quot;img3-m7-p2&quot;,&quot;molecule_id&quot;:&quot;img3-m7&quot;,&quot;atom_order&quot;:1},{&quot;id&quot;:1116,&quot;token&quot;:&quot;b:1&quot;,&quot;particle_id&quot;:&quot;img3-m7-p2&quot;,&quot;molecule_id&quot;:&quot;img3-m7&quot;,&quot;atom_order&quot;:2},{&quot;id&quot;:1117,&quot;token&quot;:&quot;c:1&quot;,&quot;particle_id&quot;:&quot;img3-m7-p2&quot;,&quot;molecule_id&quot;:&quot;img3-m7&quot;,&quot;atom_order&quot;:3},{&quot;id&quot;:1118,&quot;token&quot;:&quot;a:1&quot;,&quot;particle_id&quot;:&quot;img3-m7-p2&quot;,&quot;molecule_id&quot;:&quot;img3-m7&quot;,&quot;atom_order&quot;:4}]}</metadata>
  <rect x="0" y="0" width="76" height="144" fill="#f8f0d8"/>
  <image href="file:///C:/Users/HHHES/AppData/Roaming/com.voynichlab.datasetcreator/images/1/35a70f63-88ab-4986-b441-b78046a10087.jpg" x="-2042" y="-414" width="2972" height="3766" opacity="0.92"/>
  <rect x="0.5" y="0.5" width="75" height="143" fill="none" stroke="#111827" stroke-width="1" opacity="0.35"/>
  <polyline points="17,128 17,127 17,126 17,125 17,124 17,123 17,122 17,121 17,120 17,119 17,118 17,117 17,116 18,116 18,115 18,114 18,113 18,112 18,111 18,110 18,109 18,108 17,108 17,107 17,106 17,105 17,104 17,103 17,102 17,101 17,100 17,99 17,98 17,97 17,96 17,95 17,94 17,93 17,92 16,91 16,90 16,89 16,88 16,87 16,86 16,85 16,84 16,83 16,82 16,81 16,80 16,79 16,78 16,77 16,76 16,75 16,74 16,73 16,72 16,71 16,70 16,69 16,68 16,67 16,66 16,65 16,64 16,63 16,62 17,62 17,61 17,60 17,59 17,58 17,57 17,56 17,55 17,54 17,53 17,52 17,51 17,50 17,49 17,48 17,47 17,46 17,45 17,44 17,43 17,42 17,41 18,41 18,40 18,39 18,38 18,37 18,36 18,35 18,34 18,33 18,32 18,31 18,30 18,29 18,28 18,27 18,26 19,26 19,25 19,24 19,23 19,22" fill="none" stroke="#00f0b5" stroke-width="3" stroke-linecap="round" stroke-linejoin="round" opacity="0.95">
    <title>1115 a:1</title>
  </polyline>
  <polyline points="18,22 18,23 18,24 18,25 19,25 19,26 19,27 20,27 20,28 20,29 21,29 21,30 22,30 22,31 23,31 23,32 24,32 25,32 25,33 26,33 26,34 27,34 28,34 29,34 29,35 30,35 31,35 32,35 33,36 34,36 35,36 36,36 37,36 38,36 39,36 40,36 41,36 42,36 43,36 44,36 45,36 46,36 47,36 48,36 49,36 50,36 51,36 52,35 53,35 54,34 55,34 56,33 57,33 57,32 58,32" fill="none" stroke="#2f7df6" stroke-width="3" stroke-linecap="round" stroke-linejoin="round" opacity="0.95">
    <title>1116 b:1</title>
  </polyline>
  <polyline points="42,22 42,23 41,23 41,24 41,25 40,25 40,26 40,27 40,28 40,29 40,30 40,31 40,32 41,32 41,33 42,33 42,34 43,35 44,35 45,35 46,35 46,36 47,36 48,36 49,36 50,36 51,36 52,36 53,36 54,36 54,35 55,35 56,35 56,34 56,33 57,33 57,32 58,32 58,31 58,30 59,30 59,29 59,28 60,28 60,27 60,26 60,25 60,24 60,23 60,22 59,22 59,21 59,20 58,20 58,19 57,19 57,18 56,18 56,17 55,17 54,17 54,16 53,16 52,16 51,16 50,16 49,16 48,16 47,16 46,17 45,17 45,18 44,18 44,19 43,19 42,19 42,20 41,20 41,21 41,22" fill="none" stroke="#8aff00" stroke-width="3" stroke-linecap="round" stroke-linejoin="round" opacity="0.95">
    <title>1117 c:1</title>
  </polyline>
  <polyline points="40,29 40,30 39,30 39,31 39,32 39,33 39,34 39,35 39,36 39,37 39,38 39,39 39,40 39,41 39,42 39,43 39,44 38,45 38,46 38,47 38,48 38,49 38,50 38,51 38,52 38,53 38,54 38,55 38,56 38,57 38,58 37,58 37,59 37,60 37,61 37,62 37,63 37,64 37,65 37,66 37,67 37,68 37,69 36,70 36,71 36,72 36,73 36,74 36,75 36,76 36,77 36,78 36,79 36,80 36,81 36,82 36,83 35,83 35,84 35,85 35,86 35,87 35,88 35,89 35,90 35,91 35,92 35,93 35,94 35,95 35,96 34,96 34,97 34,98 34,99 34,100 34,101 34,102 34,103 34,104 34,105 34,106 34,107 34,108 33,108 33,109 33,110 33,111 33,112 33,113 33,114 33,115 33,116 33,117 33,118 33,119 33,120 33,121 33,122 33,123 33,124 33,125 33,126 33,127 33,128" fill="none" stroke="#00f0b5" stroke-width="3" stroke-linecap="round" stroke-linejoin="round" opacity="0.95">
    <title>1118 a:1</title>
  </polyline>
</svg>
