<?xml version="1.0" encoding="UTF-8"?>
<svg xmlns="http://www.w3.org/2000/svg" width="73" height="83" viewBox="0 0 73 83">
  <title>particle img3-m164-p5 f:1 i:1 d:1</title>
  <metadata>{&quot;entityType&quot;:&quot;particle&quot;,&quot;entityId&quot;:&quot;img3-m164-p5&quot;,&quot;token&quot;:&quot;f:1 i:1 d:1&quot;,&quot;signature&quot;:&quot;f:1 i:1 d:1&quot;,&quot;imageName&quot;:&quot;page-003.jpg&quot;,&quot;imageId&quot;:3,&quot;bounds&quot;:{&quot;x&quot;:1515,&quot;y&quot;:2590,&quot;w&quot;:73,&quot;h&quot;:83},&quot;atoms&quot;:[{&quot;id&quot;:3862,&quot;token&quot;:&quot;f:1&quot;,&quot;particle_id&quot;:&quot;img3-m164-p5&quot;,&quot;molecule_id&quot;:&quot;img3-m164&quot;,&quot;atom_order&quot;:1},{&quot;id&quot;:3876,&quot;token&quot;:&quot;i:1&quot;,&quot;particle_id&quot;:&quot;img3-m164-p5&quot;,&quot;molecule_id&quot;:&quot;img3-m164&quot;,&quot;atom_order&quot;:2},{&quot;id&quot;:3885,&quot;token&quot;:&quot;d:1&quot;,&quot;particle_id&quot;:&quot;img3-m164-p5&quot;,&quot;molecule_id&quot;:&quot;img3-m164&quot;,&quot;atom_order&quot;:3}]}</metadata>
  <rect x="0" y="0" width="73" height="83" fill="#f8f0d8"/>
  <image href="file:///C:/Users/HHHES/AppData/Roaming/com.voynichlab.datasetcreator/images/1/35a70f63-88ab-4986-b441-b78046a10087.jpg" x="-1515" y="-2590" width="2972" height="3766" opacity="0.92"/>
  <rect x="0.5" y="0.5" width="72" height="82" fill="none" stroke="#111827" stroke-width="1" opacity="0.35"/>
  <polyline points="30,46 30,47 30,48 31,48 31,49 31,50 32,50 32,51 33,52 33,53 34,53 34,54 35,55 35,56 36,56 36,57 37,57 37,58 38,58 38,59 38,60 39,60 39,61 39,62 40,62 40,63 41,63 41,64 42,65 42,66 43,66 43,67" fill="none" stroke="#00a2ff" stroke-width="3" stroke-linecap="round" stroke-linejoin="round" opacity="0.95">
    <title>3862 f:1</title>
  </polyline>
  <polyline points="32,51 33,51 34,51 35,51 36,51 37,51 38,51 39,51 40,50 41,50 42,50 43,50 43,49 44,49 45,49 45,48 46,48 47,47 48,47 48,46 49,46 50,46 51,45 52,45 52,44 53,44 53,43 54,43 54,42 55,42 55,41 55,40 55,39 56,38 56,37 56,36 56,35 56,34 56,33 56,32 56,31 57,30 57,29 57,28 57,27 56,26 56,25 55,25 54,24 53,23 52,23 52,22 51,22 51,21 50,21 49,21 49,20 48,20 47,20" fill="none" stroke="#00ff7f" stroke-width="3" stroke-linecap="round" stroke-linejoin="round" opacity="0.95">
    <title>3876 i:1</title>
  </polyline>
  <polyline points="16,21 17,21 18,21 18,20 19,20 20,20 21,20 22,19 23,19 24,19 25,18 26,18 27,18 27,17 28,17 29,17 30,17 31,16 32,16 33,16 34,16 35,16 36,16 37,16 38,16 39,16 40,16 41,16 42,17 43,17 44,17 44,18 45,18 46,19 47,19 48,20 49,21 50,21 50,22 51,22" fill="none" stroke="#ff2d55" stroke-width="3" stroke-linecap="round" stroke-linejoin="round" opacity="0.95">
    <title>3885 d:1</title>
  </polyline>
</svg>
