<?xml version="1.0" encoding="UTF-8"?>
<svg xmlns="http://www.w3.org/2000/svg" width="60" height="74" viewBox="0 0 60 74">
  <title>particle img3-m121-p1 e:1 c:1 h:2</title>
  <metadata>{&quot;entityType&quot;:&quot;particle&quot;,&quot;entityId&quot;:&quot;img3-m121-p1&quot;,&quot;token&quot;:&quot;e:1 c:1 h:2&quot;,&quot;signature&quot;:&quot;e:1 c:1 h:2&quot;,&quot;imageName&quot;:&quot;page-003.jpg&quot;,&quot;imageId&quot;:3,&quot;bounds&quot;:{&quot;x&quot;:2069,&quot;y&quot;:1979,&quot;w&quot;:60,&quot;h&quot;:74},&quot;atoms&quot;:[{&quot;id&quot;:3333,&quot;token&quot;:&quot;e:1&quot;,&quot;particle_id&quot;:&quot;img3-m121-p1&quot;,&quot;molecule_id&quot;:&quot;img3-m121&quot;,&quot;atom_order&quot;:1},{&quot;id&quot;:3359,&quot;token&quot;:&quot;c:1&quot;,&quot;particle_id&quot;:&quot;img3-m121-p1&quot;,&quot;molecule_id&quot;:&quot;img3-m121&quot;,&quot;atom_order&quot;:2},{&quot;id&quot;:3383,&quot;token&quot;:&quot;h:2&quot;,&quot;particle_id&quot;:&quot;img3-m121-p1&quot;,&quot;molecule_id&quot;:&quot;img3-m121&quot;,&quot;atom_order&quot;:3}]}</metadata>
  <rect x="0" y="0" width="60" height="74" fill="#f8f0d8"/>
  <image href="file:///C:/Users/HHHES/AppData/Roaming/com.voynichlab.datasetcreator/images/1/35a70f63-88ab-4986-b441-b78046a10087.jpg" x="-2069" y="-1979" width="2972" height="3766" opacity="0.92"/>
  <rect x="0.5" y="0.5" width="59" height="73" fill="none" stroke="#111827" stroke-width="1" opacity="0.35"/>
  <polyline points="31,55 31,56 30,56 30,57 29,57 28,57 28,58 27,58 26,58 25,58 24,58 23,58 22,58 21,58 21,57 20,57 19,57 18,57 18,56 17,56 16,56 16,55 16,54 16,53 16,52 16,51 16,50 16,49 17,49 17,48 17,47 17,46 18,46 18,45 18,44 19,44 19,43 19,42 20,42 21,42 21,41 22,41 22,40 23,40 24,40 24,39 25,39 26,39 27,39 27,38" fill="none" stroke="#f2e45c" stroke-width="3" stroke-linecap="round" stroke-linejoin="round" opacity="0.95">
    <title>3333 e:1</title>
  </polyline>
  <polyline points="36,33 35,33 36,33 37,33 38,33 39,33 40,32 41,31 42,30 43,29 43,28 44,28 44,27 44,26 44,25 44,24 44,23 44,22 43,21 43,20 42,19 41,18 40,18 39,17 38,17 37,17 36,16 35,16 34,16 33,16 32,16 31,16 30,17 29,17 28,17 28,18 27,18 27,19 27,20 26,20 26,21 26,22 25,22 25,23 25,24 25,25 25,26 26,26 26,27 27,27 27,28 28,29 29,30 29,31 30,31 31,31 32,32 33,32 34,32 35,32 36,32 37,32" fill="none" stroke="#8aff00" stroke-width="3" stroke-linecap="round" stroke-linejoin="round" opacity="0.95">
    <title>3359 c:1</title>
  </polyline>
  <polyline points="31,56 31,55 32,55 32,54 32,53 33,53 33,52 33,51 33,50 33,49 33,48 33,47 33,46 33,45 33,44 33,43 32,43 32,42 32,41 32,40 31,40 31,39 31,38 30,38 30,37 29,36 29,35 28,35 27,34 26,34 26,33 26,32 25,32 25,31 24,31 24,30 24,29 23,28 23,27 23,26 23,25 23,24 23,23 24,23 24,22 25,22 25,21 26,21 26,20 27,20 28,19 29,19 29,18 30,18 31,18 32,18 33,17" fill="none" stroke="#ff8c00" stroke-width="3" stroke-linecap="round" stroke-linejoin="round" opacity="0.95">
    <title>3383 h:2</title>
  </polyline>
</svg>
