<?xml version="1.0" encoding="UTF-8"?>
<svg xmlns="http://www.w3.org/2000/svg" width="109" height="103" viewBox="0 0 109 103">
  <title>particle img3-m194-p3 a:1 m:1 c:1 a:1</title>
  <metadata>{&quot;entityType&quot;:&quot;particle&quot;,&quot;entityId&quot;:&quot;img3-m194-p3&quot;,&quot;token&quot;:&quot;a:1 m:1 c:1 a:1&quot;,&quot;signature&quot;:&quot;a:1 m:1 c:1 a:1&quot;,&quot;imageName&quot;:&quot;page-003.jpg&quot;,&quot;imageId&quot;:3,&quot;bounds&quot;:{&quot;x&quot;:1145,&quot;y&quot;:2900,&quot;w&quot;:109,&quot;h&quot;:103},&quot;atoms&quot;:[{&quot;id&quot;:4205,&quot;token&quot;:&quot;a:1&quot;,&quot;particle_id&quot;:&quot;img3-m194-p3&quot;,&quot;molecule_id&quot;:&quot;img3-m194&quot;,&quot;atom_order&quot;:1},{&quot;id&quot;:4211,&quot;token&quot;:&quot;m:1&quot;,&quot;particle_id&quot;:&quot;img3-m194-p3&quot;,&quot;molecule_id&quot;:&quot;img3-m194&quot;,&quot;atom_order&quot;:2},{&quot;id&quot;:4171,&quot;token&quot;:&quot;c:1&quot;,&quot;particle_id&quot;:&quot;img3-m194-p3&quot;,&quot;molecule_id&quot;:&quot;img3-m194&quot;,&quot;atom_order&quot;:3},{&quot;id&quot;:4204,&quot;token&quot;:&quot;a:1&quot;,&quot;particle_id&quot;:&quot;img3-m194-p3&quot;,&quot;molecule_id&quot;:&quot;img3-m194&quot;,&quot;atom_order&quot;:4}]}</metadata>
  <rect x="0" y="0" width="109" height="103" fill="#f8f0d8"/>
  <image href="file:///C:/Users/HHHES/AppData/Roaming/com.voynichlab.datasetcreator/images/1/35a70f63-88ab-4986-b441-b78046a10087.jpg" x="-1145" y="-2900" width="2972" height="3766" opacity="0.92"/>
  <rect x="0.5" y="0.5" width="108" height="102" fill="none" stroke="#111827" stroke-width="1" opacity="0.35"/>
  <polyline points="42,46 42,47 42,48 42,49 41,50 41,51 41,52 41,53 41,54 41,55 41,56 41,57 41,58 41,59 40,60 40,61 40,62 40,63 40,64 40,65 40,66 40,67 40,68 40,69 40,70 40,71 40,72 40,73 39,74 39,75 39,76 39,77 39,78 39,79 39,80 39,81 39,82 39,83 39,84 39,85 40,85 40,86 40,87 40,86" fill="none" stroke="#00f0b5" stroke-width="3" stroke-linecap="round" stroke-linejoin="round" opacity="0.95">
    <title>4205 a:1</title>
  </polyline>
  <polyline points="42,48 42,47 42,46 43,46 43,45 43,44 43,43 43,42 43,41 43,40 43,39 43,38 43,37 43,36 43,35 43,34 43,33 44,32 44,31 44,30 44,29 44,28 44,27 44,26 45,25 45,24 45,23 45,22 45,21 45,20 45,19 45,18 45,17 45,16 44,16 44,17 43,17 42,17 41,18 40,18 39,18 39,19 38,19 37,19 37,20 36,20 35,20 34,21 33,21 32,21 31,21 31,22 30,22 29,23 28,23 27,24 26,24 26,25 25,25 25,26 24,26 24,27 23,27 23,28 22,28 21,28 21,29 21,30 20,30 19,30 19,31 18,31 17,32 16,33 17,33 18,34 19,34 20,34 21,34 22,34 23,34 24,34 25,34 25,35 26,35 27,35 28,35 29,35 30,35 31,35 31,36 32,36 34,36 35,36 36,36 37,36 38,36 39,36 40,36 41,36 43,36 45,36 47,36 48,36 49,37 50,37 51,37 52,37 53,37 54,37 55,37 56,37 57,37 58,37 59,37 60,38 61,38 63,38 65,38 66,38 67,38 68,38 69,38 70,38 71,38 72,38 73,38 74,38 75,39 76,39 77,39" fill="none" stroke="#ff00ff" stroke-width="3" stroke-linecap="round" stroke-linejoin="round" opacity="0.95">
    <title>4211 m:1</title>
  </polyline>
  <polyline points="68,22 68,23 68,24 67,24 67,25 67,26 67,27 67,28 66,29 66,30 66,31 66,32 66,33 66,34 67,34 67,35 68,36 68,37 69,37 69,38 70,38 71,39 72,39 73,39 74,39 75,39 76,39 77,39 79,39 80,39 82,38 83,38 84,37 85,37 85,36 86,36 87,35 88,35 88,34 89,34 90,33 90,32 91,32 91,31 92,31 92,30 92,29 92,28 93,27 93,26 93,25 92,25 91,25 91,24 90,23 89,22 88,21 87,21 86,21 86,20 85,20 84,19 83,19 82,19 81,19 80,19 79,19 78,19 77,19 76,19 75,19 74,19 73,19 72,19 72,20 71,20 70,21 69,22 69,23 68,23 68,24 68,25 67,25" fill="none" stroke="#8aff00" stroke-width="3" stroke-linecap="round" stroke-linejoin="round" opacity="0.95">
    <title>4171 c:1</title>
  </polyline>
  <polyline points="67,24 67,25 67,26 67,27 66,28 66,29 66,31 65,32 65,33 64,35 64,36 64,37 63,38 63,39 63,40 63,42 62,43 62,44 61,46 61,47 61,48 60,50 60,51 60,52 60,53 60,54 59,55 59,56 59,57 59,58 59,59 59,60 59,61 58,63 58,64 58,65 58,66 58,68 58,70 58,71 58,73 58,74 58,76 57,77 57,78 57,79 57,80 57,81 57,82 57,83 57,84 57,85 56,86 56,85" fill="none" stroke="#00f0b5" stroke-width="3" stroke-linecap="round" stroke-linejoin="round" opacity="0.95">
    <title>4204 a:1</title>
  </polyline>
</svg>
