<?xml version="1.0" encoding="UTF-8"?>
<svg xmlns="http://www.w3.org/2000/svg" width="57" height="87" viewBox="0 0 57 87">
  <title>particle img3-m44-p3 e:1 h:1</title>
  <metadata>{&quot;entityType&quot;:&quot;particle&quot;,&quot;entityId&quot;:&quot;img3-m44-p3&quot;,&quot;token&quot;:&quot;e:1 h:1&quot;,&quot;signature&quot;:&quot;e:1 h:1&quot;,&quot;imageName&quot;:&quot;page-003.jpg&quot;,&quot;imageId&quot;:3,&quot;bounds&quot;:{&quot;x&quot;:1364,&quot;y&quot;:1068,&quot;w&quot;:57,&quot;h&quot;:87},&quot;atoms&quot;:[{&quot;id&quot;:1833,&quot;token&quot;:&quot;e:1&quot;,&quot;particle_id&quot;:&quot;img3-m44-p3&quot;,&quot;molecule_id&quot;:&quot;img3-m44&quot;,&quot;atom_order&quot;:1},{&quot;id&quot;:1832,&quot;token&quot;:&quot;h:1&quot;,&quot;particle_id&quot;:&quot;img3-m44-p3&quot;,&quot;molecule_id&quot;:&quot;img3-m44&quot;,&quot;atom_order&quot;:2}]}</metadata>
  <rect x="0" y="0" width="57" height="87" fill="#f8f0d8"/>
  <image href="file:///C:/Users/HHHES/AppData/Roaming/com.voynichlab.datasetcreator/images/1/35a70f63-88ab-4986-b441-b78046a10087.jpg" x="-1364" y="-1068" width="2972" height="3766" opacity="0.92"/>
  <rect x="0.5" y="0.5" width="56" height="86" fill="none" stroke="#111827" stroke-width="1" opacity="0.35"/>
  <polyline points="33,35 32,35 32,36 32,37 31,37 30,37 29,37 29,38 28,38 27,38 26,38 25,38 24,38 23,38 22,38 21,38 21,37 20,37 19,37 19,36 19,35 18,35 18,34 17,34 17,33 17,32 16,32 16,31 16,30 16,29 16,28 16,27 16,26 16,25 17,24 17,23 18,23 18,22 19,22 19,21 20,21 20,20 21,20 21,19 22,19 23,19 23,18 24,18 25,18 25,17 26,17 27,17 28,17 29,16 30,16 31,16 31,17 32,17" fill="none" stroke="#f2e45c" stroke-width="3" stroke-linecap="round" stroke-linejoin="round" opacity="0.95">
    <title>1833 e:1</title>
  </polyline>
  <polyline points="31,17 32,17 32,18 33,18 33,19 34,19 34,20 35,20 35,21 35,22 36,22 36,23 37,23 37,24 38,25 38,26 39,26 39,27 39,28 40,29 40,30 40,31 41,31 41,32 41,33 41,34 41,35 41,36 41,37 41,38 41,39 41,40 41,41 41,42 41,43 41,44 41,45 41,46 40,46 40,47 40,48 39,48 39,49 39,50 38,50 38,51 38,52 38,53 37,53 37,54 37,55 36,55 36,56 36,57 35,57 35,58 34,58 34,59 33,59 33,60 32,61 31,61 31,62 30,62 30,63 29,63 29,64 28,65 27,65 27,66 26,67 26,68 25,68 25,69 24,69 24,70 23,70 23,71 22,71" fill="none" stroke="#ff8c00" stroke-width="3" stroke-linecap="round" stroke-linejoin="round" opacity="0.95">
    <title>1832 h:1</title>
  </polyline>
</svg>
