<?xml version="1.0" encoding="UTF-8"?>
<svg xmlns="http://www.w3.org/2000/svg" width="85" height="52" viewBox="0 0 85 52">
  <title>particle img3-m124-p1 e:1 g:1 e:1</title>
  <metadata>{&quot;entityType&quot;:&quot;particle&quot;,&quot;entityId&quot;:&quot;img3-m124-p1&quot;,&quot;token&quot;:&quot;e:1 g:1 e:1&quot;,&quot;signature&quot;:&quot;e:1 g:1 e:1&quot;,&quot;imageName&quot;:&quot;page-003.jpg&quot;,&quot;imageId&quot;:3,&quot;bounds&quot;:{&quot;x&quot;:963,&quot;y&quot;:1988,&quot;w&quot;:85,&quot;h&quot;:52},&quot;atoms&quot;:[{&quot;id&quot;:3314,&quot;token&quot;:&quot;e:1&quot;,&quot;particle_id&quot;:&quot;img3-m124-p1&quot;,&quot;molecule_id&quot;:&quot;img3-m124&quot;,&quot;atom_order&quot;:1},{&quot;id&quot;:3344,&quot;token&quot;:&quot;g:1&quot;,&quot;particle_id&quot;:&quot;img3-m124-p1&quot;,&quot;molecule_id&quot;:&quot;img3-m124&quot;,&quot;atom_order&quot;:2},{&quot;id&quot;:3315,&quot;token&quot;:&quot;e:1&quot;,&quot;particle_id&quot;:&quot;img3-m124-p1&quot;,&quot;molecule_id&quot;:&quot;img3-m124&quot;,&quot;atom_order&quot;:3}]}</metadata>
  <rect x="0" y="0" width="85" height="52" fill="#f8f0d8"/>
  <image href="file:///C:/Users/HHHES/AppData/Roaming/com.voynichlab.datasetcreator/images/1/35a70f63-88ab-4986-b441-b78046a10087.jpg" x="-963" y="-1988" width="2972" height="3766" opacity="0.92"/>
  <rect x="0.5" y="0.5" width="84" height="51" fill="none" stroke="#111827" stroke-width="1" opacity="0.35"/>
  <polyline points="31,33 31,34 30,34 30,35 29,35 28,35 28,36 27,36 26,36 25,36 24,36 23,36 22,36 21,36 21,35 20,35 19,35 18,35 18,34 17,34 16,34 16,33 16,32 16,31 16,30 16,29 16,28 16,27 17,27 17,26 17,25 17,24 18,24 18,23 18,22 19,22 19,21 19,20 20,20 21,20 21,19 22,19 22,18 23,18 24,18 24,17 25,17 26,17 27,17 27,16" fill="none" stroke="#f2e45c" stroke-width="3" stroke-linecap="round" stroke-linejoin="round" opacity="0.95">
    <title>3314 e:1</title>
  </polyline>
  <polyline points="26,17 27,17 28,17 29,17 30,17 31,17 33,17 34,17 35,17 36,17 37,18 38,18 39,18 40,18 42,18 43,18 44,18 45,18 46,18 47,18 48,18 49,18 50,18 51,18 52,18 53,18 54,18 55,18 56,18 57,18 58,18 59,18 60,18 61,18 62,18 63,18" fill="none" stroke="#7c3cff" stroke-width="3" stroke-linecap="round" stroke-linejoin="round" opacity="0.95">
    <title>3344 g:1</title>
  </polyline>
  <polyline points="69,33 69,34 68,34 68,35 67,35 66,35 66,36 65,36 64,36 63,36 62,36 61,36 60,36 59,36 59,35 58,35 57,35 56,35 56,34 55,34 54,34 54,33 54,32 54,31 54,30 54,29 54,28 54,27 55,27 55,26 55,25 55,24 56,24 56,23 56,22 57,22 57,21 57,20 58,20 59,20 59,19 60,19 60,18 61,18 62,18 62,17 63,17 64,17 65,17 65,16" fill="none" stroke="#f2e45c" stroke-width="3" stroke-linecap="round" stroke-linejoin="round" opacity="0.95">
    <title>3315 e:1</title>
  </polyline>
</svg>
