<?xml version="1.0" encoding="UTF-8"?>
<svg xmlns="http://www.w3.org/2000/svg" width="121" height="110" viewBox="0 0 121 110">
  <title>particle img3-m156-p1 e:1 a:1 m:1 c:1 a:1 g:1 e:1</title>
  <metadata>{&quot;entityType&quot;:&quot;particle&quot;,&quot;entityId&quot;:&quot;img3-m156-p1&quot;,&quot;token&quot;:&quot;e:1 a:1 m:1 c:1 a:1 g:1 e:1&quot;,&quot;signature&quot;:&quot;e:1 a:1 m:1 c:1 a:1 g:1 e:1&quot;,&quot;imageName&quot;:&quot;page-003.jpg&quot;,&quot;imageId&quot;:3,&quot;bounds&quot;:{&quot;x&quot;:1043,&quot;y&quot;:2552,&quot;w&quot;:121,&quot;h&quot;:110},&quot;atoms&quot;:[{&quot;id&quot;:3820,&quot;token&quot;:&quot;e:1&quot;,&quot;particle_id&quot;:&quot;img3-m156-p1&quot;,&quot;molecule_id&quot;:&quot;img3-m156&quot;,&quot;atom_order&quot;:1},{&quot;id&quot;:3893,&quot;token&quot;:&quot;a:1&quot;,&quot;particle_id&quot;:&quot;img3-m156-p1&quot;,&quot;molecule_id&quot;:&quot;img3-m156&quot;,&quot;atom_order&quot;:2},{&quot;id&quot;:3899,&quot;token&quot;:&quot;m:1&quot;,&quot;particle_id&quot;:&quot;img3-m156-p1&quot;,&quot;molecule_id&quot;:&quot;img3-m156&quot;,&quot;atom_order&quot;:3},{&quot;id&quot;:3852,&quot;token&quot;:&quot;c:1&quot;,&quot;particle_id&quot;:&quot;img3-m156-p1&quot;,&quot;molecule_id&quot;:&quot;img3-m156&quot;,&quot;atom_order&quot;:4},{&quot;id&quot;:3894,&quot;token&quot;:&quot;a:1&quot;,&quot;particle_id&quot;:&quot;img3-m156-p1&quot;,&quot;molecule_id&quot;:&quot;img3-m156&quot;,&quot;atom_order&quot;:5},{&quot;id&quot;:3889,&quot;token&quot;:&quot;g:1&quot;,&quot;particle_id&quot;:&quot;img3-m156-p1&quot;,&quot;molecule_id&quot;:&quot;img3-m156&quot;,&quot;atom_order&quot;:6},{&quot;id&quot;:3821,&quot;token&quot;:&quot;e:1&quot;,&quot;particle_id&quot;:&quot;img3-m156-p1&quot;,&quot;molecule_id&quot;:&quot;img3-m156&quot;,&quot;atom_order&quot;:7}]}</metadata>
  <rect x="0" y="0" width="121" height="110" fill="#f8f0d8"/>
  <image href="file:///C:/Users/HHHES/AppData/Roaming/com.voynichlab.datasetcreator/images/1/35a70f63-88ab-4986-b441-b78046a10087.jpg" x="-1043" y="-2552" width="2972" height="3766" opacity="0.92"/>
  <rect x="0.5" y="0.5" width="120" height="109" fill="none" stroke="#111827" stroke-width="1" opacity="0.35"/>
  <polyline points="31,84 31,85 30,85 30,86 29,86 28,86 28,87 27,87 26,87 25,87 24,87 23,87 22,87 21,87 21,86 20,86 19,86 18,86 18,85 17,85 16,85 16,84 16,83 16,82 16,81 16,80 16,79 16,78 17,78 17,77 17,76 17,75 18,75 18,74 18,73 19,73 19,72 19,71 20,71 21,71 21,70 22,70 22,69 23,69 24,69 24,68 25,68 26,68 27,68 27,67" fill="none" stroke="#f2e45c" stroke-width="3" stroke-linecap="round" stroke-linejoin="round" opacity="0.95">
    <title>3820 e:1</title>
  </polyline>
  <polyline points="48,82 48,81 48,80 48,79 48,78 48,77 48,76 48,75 48,74 48,73 48,72 48,71 48,70 48,69 48,68 48,67 48,66 49,66 49,65 49,64 49,63 49,62 49,61 49,60 49,59 49,58 49,57 49,56 49,55 49,54 49,53 49,52 49,51 49,50 49,49 49,48 49,47 49,46 49,45 49,44 49,43" fill="none" stroke="#00f0b5" stroke-width="3" stroke-linecap="round" stroke-linejoin="round" opacity="0.95">
    <title>3893 a:1</title>
  </polyline>
  <polyline points="49,47 49,46 49,45 49,44 49,43 49,42 49,41 49,40 49,39 50,39 50,38 50,37 50,36 50,35 50,34 50,33 50,32 50,31 50,30 50,29 50,28 50,27 51,27 51,26 51,25 51,24 51,23 51,22 51,21 51,20 51,19 51,18 51,17 52,17 52,16 51,16 50,16 50,17 49,17 49,18 48,18 47,18 46,19 45,19 44,19 44,20 43,20 42,20 42,21 41,21 40,21 40,22 39,22 38,22 38,23 37,23 37,24 36,24 35,25 34,25 34,26 33,26 33,27 32,27 32,28 32,29 31,29 31,30 30,30 30,31 30,32 29,32 29,33 28,33 29,33 30,33 31,33 32,33 33,33 34,33 35,33 36,33 37,33 38,33 39,33 40,33 41,33 42,33 43,33 44,33 45,33 46,33 47,33 48,33 49,33 50,33 51,33 52,33 53,33 54,33 55,33 56,33 57,33 58,33 59,33 60,33 61,33 61,32 62,32 63,32 64,32 65,32 66,32 67,32 68,32 69,32 70,32 71,32 72,32" fill="none" stroke="#ff00ff" stroke-width="3" stroke-linecap="round" stroke-linejoin="round" opacity="0.95">
    <title>3899 m:1</title>
  </polyline>
  <polyline points="71,22 72,21 72,20 73,20 73,19 74,19 75,19 75,18 76,18 77,18 77,17 78,17 79,17 80,17 81,16 82,16 83,16 84,16 85,16 86,16 87,16 88,16 89,16 90,16 91,16 92,16 93,16 93,17 94,17 95,18 96,19 96,20 97,21 97,22 97,23 97,24 97,25 97,26 96,27 96,28 95,29 95,30 94,30 94,31 93,32 92,32 92,33 91,33 90,33 89,34 88,34 87,34 86,35 85,35 84,35 83,35 82,35 81,35 80,35 80,34 79,34 78,34 77,34 77,33 76,33 75,33 74,33 74,32 73,32 73,31 72,30 72,29 71,29 71,28 71,27 71,26 71,25 71,24 71,23 71,22 71,21 72,20" fill="none" stroke="#8aff00" stroke-width="3" stroke-linecap="round" stroke-linejoin="round" opacity="0.95">
    <title>3852 c:1</title>
  </polyline>
  <polyline points="68,94 68,93 69,92 69,91 69,90 69,89 69,88 70,87 70,86 70,85 70,84 70,83 70,82 69,82 69,81 69,80 69,79 69,78 69,77 69,76 69,75 69,74 69,73 69,72 69,71 69,70 69,69 69,68 69,67 69,66 69,65 69,64 69,63 69,62 69,61 70,60 70,59 70,58 70,57 70,56 70,55 71,54 71,53 71,52 71,51 71,50 71,49 71,48 71,47 71,46 71,45 71,44 71,43 72,42 72,41 72,40 72,39 72,38 72,37 72,36 72,35 72,34 72,33 72,32 72,31 72,30 72,29 72,28 72,27 72,26 72,25 72,24 72,23 72,22 72,21 72,20 72,19 72,18 72,17" fill="none" stroke="#00f0b5" stroke-width="3" stroke-linecap="round" stroke-linejoin="round" opacity="0.95">
    <title>3894 a:1</title>
  </polyline>
  <polyline points="24,68 25,68 26,68 27,68 28,68 29,68 30,68 31,68 32,69 33,69 34,69 35,69 36,69 38,69 39,69 40,69 41,69 42,69 44,69 46,69 48,69 49,69 50,69 51,69 53,69 53,68 54,68 55,68 56,68 57,68 58,68 59,68 61,68 62,68 63,68 65,68 66,68 67,68 68,68 69,68 70,68 71,68 73,68 74,68 75,68 77,68 78,68 80,68 82,68 83,68 84,68 85,68 86,68 87,68 88,68 89,68 91,68 92,68 93,68 94,68 95,69 96,69 97,69 98,69 99,69 100,69 100,70 101,70 100,70" fill="none" stroke="#7c3cff" stroke-width="3" stroke-linecap="round" stroke-linejoin="round" opacity="0.95">
    <title>3889 g:1</title>
  </polyline>
  <polyline points="105,85 105,86 104,86 104,87 103,87 102,87 102,88 101,88 100,88 99,88 98,88 97,88 96,88 95,88 95,87 94,87 93,87 92,87 92,86 91,86 90,86 90,85 90,84 90,83 90,82 90,81 90,80 90,79 91,79 91,78 91,77 91,76 92,76 92,75 92,74 93,74 93,73 93,72 94,72 95,72 95,71 96,71 96,70 97,70 98,70 98,69 99,69 100,69 101,69 101,68" fill="none" stroke="#f2e45c" stroke-width="3" stroke-linecap="round" stroke-linejoin="round" opacity="0.95">
    <title>3821 e:1</title>
  </polyline>
</svg>
