<?xml version="1.0" encoding="UTF-8"?>
<svg xmlns="http://www.w3.org/2000/svg" width="89" height="56" viewBox="0 0 89 56">
  <title>particle img3-m130-p2 e:1 g:1 e:1</title>
  <metadata>{&quot;entityType&quot;:&quot;particle&quot;,&quot;entityId&quot;:&quot;img3-m130-p2&quot;,&quot;token&quot;:&quot;e:1 g:1 e:1&quot;,&quot;signature&quot;:&quot;e:1 g:1 e:1&quot;,&quot;imageName&quot;:&quot;page-003.jpg&quot;,&quot;imageId&quot;:3,&quot;bounds&quot;:{&quot;x&quot;:887,&quot;y&quot;:2069,&quot;w&quot;:89,&quot;h&quot;:56},&quot;atoms&quot;:[{&quot;id&quot;:3403,&quot;token&quot;:&quot;e:1&quot;,&quot;particle_id&quot;:&quot;img3-m130-p2&quot;,&quot;molecule_id&quot;:&quot;img3-m130&quot;,&quot;atom_order&quot;:1},{&quot;id&quot;:3454,&quot;token&quot;:&quot;g:1&quot;,&quot;particle_id&quot;:&quot;img3-m130-p2&quot;,&quot;molecule_id&quot;:&quot;img3-m130&quot;,&quot;atom_order&quot;:2},{&quot;id&quot;:3404,&quot;token&quot;:&quot;e:1&quot;,&quot;particle_id&quot;:&quot;img3-m130-p2&quot;,&quot;molecule_id&quot;:&quot;img3-m130&quot;,&quot;atom_order&quot;:3}]}</metadata>
  <rect x="0" y="0" width="89" height="56" fill="#f8f0d8"/>
  <image href="file:///C:/Users/HHHES/AppData/Roaming/com.voynichlab.datasetcreator/images/1/35a70f63-88ab-4986-b441-b78046a10087.jpg" x="-887" y="-2069" width="2972" height="3766" opacity="0.92"/>
  <rect x="0.5" y="0.5" width="88" height="55" fill="none" stroke="#111827" stroke-width="1" opacity="0.35"/>
  <polyline points="31,33 31,34 30,34 30,35 29,35 28,35 28,36 27,36 26,36 25,36 24,36 23,36 22,36 21,36 21,35 20,35 19,35 18,35 18,34 17,34 16,34 16,33 16,32 16,31 16,30 16,29 16,28 16,27 17,27 17,26 17,25 17,24 18,24 18,23 18,22 19,22 19,21 19,20 20,20 21,20 21,19 22,19 22,18 23,18 24,18 24,17 25,17 26,17 27,17 27,16" fill="none" stroke="#f2e45c" stroke-width="3" stroke-linecap="round" stroke-linejoin="round" opacity="0.95">
    <title>3403 e:1</title>
  </polyline>
  <polyline points="26,16 27,17 28,17 30,18 31,18 32,18 33,18 34,18 35,19 36,19 37,19 38,19 39,19 41,19 42,19 44,19 45,19 47,19 49,19 50,19 51,19 52,20 53,20 54,20 55,20 56,20 57,20 58,20 60,20 61,20 62,20 63,20 64,21 65,21 66,21 67,21 68,21 69,21" fill="none" stroke="#7c3cff" stroke-width="3" stroke-linecap="round" stroke-linejoin="round" opacity="0.95">
    <title>3454 g:1</title>
  </polyline>
  <polyline points="73,37 73,38 72,38 72,39 71,39 70,39 70,40 69,40 68,40 67,40 66,40 65,40 64,40 63,40 63,39 62,39 61,39 60,39 60,38 59,38 58,38 58,37 58,36 58,35 58,34 58,33 58,32 58,31 59,31 59,30 59,29 59,28 60,28 60,27 60,26 61,26 61,25 61,24 62,24 63,24 63,23 64,23 64,22 65,22 66,22 66,21 67,21 68,21 69,21 69,20" fill="none" stroke="#f2e45c" stroke-width="3" stroke-linecap="round" stroke-linejoin="round" opacity="0.95">
    <title>3404 e:1</title>
  </polyline>
</svg>
