<?xml version="1.0" encoding="UTF-8"?>
<svg xmlns="http://www.w3.org/2000/svg" width="65" height="74" viewBox="0 0 65 74">
  <title>particle img3-m159-p1 e:1 c:1 h:2</title>
  <metadata>{&quot;entityType&quot;:&quot;particle&quot;,&quot;entityId&quot;:&quot;img3-m159-p1&quot;,&quot;token&quot;:&quot;e:1 c:1 h:2&quot;,&quot;signature&quot;:&quot;e:1 c:1 h:2&quot;,&quot;imageName&quot;:&quot;page-003.jpg&quot;,&quot;imageId&quot;:3,&quot;bounds&quot;:{&quot;x&quot;:1239,&quot;y&quot;:2588,&quot;w&quot;:65,&quot;h&quot;:74},&quot;atoms&quot;:[{&quot;id&quot;:3823,&quot;token&quot;:&quot;e:1&quot;,&quot;particle_id&quot;:&quot;img3-m159-p1&quot;,&quot;molecule_id&quot;:&quot;img3-m159&quot;,&quot;atom_order&quot;:1},{&quot;id&quot;:3848,&quot;token&quot;:&quot;c:1&quot;,&quot;particle_id&quot;:&quot;img3-m159-p1&quot;,&quot;molecule_id&quot;:&quot;img3-m159&quot;,&quot;atom_order&quot;:2},{&quot;id&quot;:3843,&quot;token&quot;:&quot;h:2&quot;,&quot;particle_id&quot;:&quot;img3-m159-p1&quot;,&quot;molecule_id&quot;:&quot;img3-m159&quot;,&quot;atom_order&quot;:3}]}</metadata>
  <rect x="0" y="0" width="65" height="74" fill="#f8f0d8"/>
  <image href="file:///C:/Users/HHHES/AppData/Roaming/com.voynichlab.datasetcreator/images/1/35a70f63-88ab-4986-b441-b78046a10087.jpg" x="-1239" y="-2588" width="2972" height="3766" opacity="0.92"/>
  <rect x="0.5" y="0.5" width="64" height="73" fill="none" stroke="#111827" stroke-width="1" opacity="0.35"/>
  <polyline points="31,55 31,56 30,56 30,57 29,57 28,57 28,58 27,58 26,58 25,58 24,58 23,58 22,58 21,58 21,57 20,57 19,57 18,57 18,56 17,56 16,56 16,55 16,54 16,53 16,52 16,51 16,50 16,49 17,49 17,48 17,47 17,46 18,46 18,45 18,44 19,44 19,43 19,42 20,42 21,42 21,41 22,41 22,40 23,40 24,40 24,39 25,39 26,39 27,39 27,38" fill="none" stroke="#f2e45c" stroke-width="3" stroke-linecap="round" stroke-linejoin="round" opacity="0.95">
    <title>3823 e:1</title>
  </polyline>
  <polyline points="42,16 43,16 44,16 45,16 46,16 47,17 48,18 49,18 49,19 49,20 49,21 49,22 49,23 49,24 48,24 48,25 48,26 48,27 47,27 47,28 46,29 45,30 45,31 44,31 44,32 43,32 43,33 42,33 41,33 40,33 40,34 39,34 38,34 37,34 36,34 35,34 34,33 33,33 32,33 31,32 30,32 30,31 29,31 29,30 29,29 28,29 28,28 28,27 28,26 28,25 28,24 29,24 29,23 29,22 30,22 31,21 32,20 33,19 34,19 34,18 35,18 36,17 37,17 38,17 38,16 39,16 40,16 41,16 42,16 43,16 44,16 45,16 46,16" fill="none" stroke="#8aff00" stroke-width="3" stroke-linecap="round" stroke-linejoin="round" opacity="0.95">
    <title>3848 c:1</title>
  </polyline>
  <polyline points="31,56 32,55 33,55 34,55 34,54 35,54 36,53 37,53 37,52 37,51 38,51 38,50 38,49 38,48 38,47 38,46 38,45 37,44 37,43 36,43 36,42 36,41 35,40 34,39 34,38 33,38 32,37 31,36 31,35 30,34 29,34 29,33 29,32 28,32 28,31 28,30 27,29 27,28 27,27 27,26 27,25 27,24 27,23 27,22 28,22 28,21 29,20 30,20 30,19 31,19 31,18 32,18 32,17 33,17 34,17 34,16 35,16 36,16 37,16 38,16 39,16 40,16 41,16 42,16 43,16" fill="none" stroke="#ff8c00" stroke-width="3" stroke-linecap="round" stroke-linejoin="round" opacity="0.95">
    <title>3843 h:2</title>
  </polyline>
</svg>
