<?xml version="1.0" encoding="UTF-8"?>
<svg xmlns="http://www.w3.org/2000/svg" width="64" height="76" viewBox="0 0 64 76">
  <title>particle img3-m25-p2 f:1 i:1 d:1</title>
  <metadata>{&quot;entityType&quot;:&quot;particle&quot;,&quot;entityId&quot;:&quot;img3-m25-p2&quot;,&quot;token&quot;:&quot;f:1 i:1 d:1&quot;,&quot;signature&quot;:&quot;f:1 i:1 d:1&quot;,&quot;imageName&quot;:&quot;page-003.jpg&quot;,&quot;imageId&quot;:3,&quot;bounds&quot;:{&quot;x&quot;:1045,&quot;y&quot;:682,&quot;w&quot;:64,&quot;h&quot;:76},&quot;atoms&quot;:[{&quot;id&quot;:1362,&quot;token&quot;:&quot;f:1&quot;,&quot;particle_id&quot;:&quot;img3-m25-p2&quot;,&quot;molecule_id&quot;:&quot;img3-m25&quot;,&quot;atom_order&quot;:1},{&quot;id&quot;:1363,&quot;token&quot;:&quot;i:1&quot;,&quot;particle_id&quot;:&quot;img3-m25-p2&quot;,&quot;molecule_id&quot;:&quot;img3-m25&quot;,&quot;atom_order&quot;:2},{&quot;id&quot;:1365,&quot;token&quot;:&quot;d:1&quot;,&quot;particle_id&quot;:&quot;img3-m25-p2&quot;,&quot;molecule_id&quot;:&quot;img3-m25&quot;,&quot;atom_order&quot;:3}]}</metadata>
  <rect x="0" y="0" width="64" height="76" fill="#f8f0d8"/>
  <image href="file:///C:/Users/HHHES/AppData/Roaming/com.voynichlab.datasetcreator/images/1/35a70f63-88ab-4986-b441-b78046a10087.jpg" x="-1045" y="-682" width="2972" height="3766" opacity="0.92"/>
  <rect x="0.5" y="0.5" width="63" height="75" fill="none" stroke="#111827" stroke-width="1" opacity="0.35"/>
  <polyline points="20,39 20,40 20,41 21,41 21,42 21,43 22,43 22,44 23,45 23,46 24,46 24,47 25,48 25,49 26,49 26,50 27,50 27,51 28,51 28,52 28,53 29,53 29,54 29,55 30,55 30,56 31,56 31,57 32,58 32,59 33,59 33,60" fill="none" stroke="#00a2ff" stroke-width="3" stroke-linecap="round" stroke-linejoin="round" opacity="0.95">
    <title>1362 f:1</title>
  </polyline>
  <polyline points="20,40 21,40 22,40 23,40 24,40 25,40 26,40 27,40 28,40 29,40 30,39 31,39 32,39 33,39 33,38 34,38 35,38 35,37 36,37 37,37 37,36 38,36 39,35 40,35 41,34 42,34 42,33 43,33 44,32 44,31 45,31 46,31 46,30 46,29 47,29 47,28 47,27 48,27 48,26 48,25 48,24 48,23" fill="none" stroke="#00ff7f" stroke-width="3" stroke-linecap="round" stroke-linejoin="round" opacity="0.95">
    <title>1363 i:1</title>
  </polyline>
  <polyline points="16,20 16,19 17,19 18,19 18,18 19,18 20,18 21,18 21,17 22,17 23,17 24,17 25,17 25,16 26,16 27,16 28,16 29,16 30,16 31,16 32,16 33,16 34,16 35,16 36,16 37,16 38,16 39,16 40,16 41,17 42,17 43,17 43,18 44,18 45,18 45,19 46,19 46,20 47,20 47,21 47,22 48,22 48,23 48,24" fill="none" stroke="#ff2d55" stroke-width="3" stroke-linecap="round" stroke-linejoin="round" opacity="0.95">
    <title>1365 d:1</title>
  </polyline>
</svg>
