<?xml version="1.0" encoding="UTF-8"?>
<svg xmlns="http://www.w3.org/2000/svg" width="104" height="85" viewBox="0 0 104 85">
  <title>particle img3-m81-p5 k:1 f:1 i:1 d:1</title>
  <metadata>{&quot;entityType&quot;:&quot;particle&quot;,&quot;entityId&quot;:&quot;img3-m81-p5&quot;,&quot;token&quot;:&quot;k:1 f:1 i:1 d:1&quot;,&quot;signature&quot;:&quot;k:1 f:1 i:1 d:1&quot;,&quot;imageName&quot;:&quot;page-003.jpg&quot;,&quot;imageId&quot;:3,&quot;bounds&quot;:{&quot;x&quot;:1131,&quot;y&quot;:1649,&quot;w&quot;:104,&quot;h&quot;:85},&quot;atoms&quot;:[{&quot;id&quot;:2374,&quot;token&quot;:&quot;k:1&quot;,&quot;particle_id&quot;:&quot;img3-m81-p5&quot;,&quot;molecule_id&quot;:&quot;img3-m81&quot;,&quot;atom_order&quot;:1},{&quot;id&quot;:2375,&quot;token&quot;:&quot;f:1&quot;,&quot;particle_id&quot;:&quot;img3-m81-p5&quot;,&quot;molecule_id&quot;:&quot;img3-m81&quot;,&quot;atom_order&quot;:2},{&quot;id&quot;:2376,&quot;token&quot;:&quot;i:1&quot;,&quot;particle_id&quot;:&quot;img3-m81-p5&quot;,&quot;molecule_id&quot;:&quot;img3-m81&quot;,&quot;atom_order&quot;:3},{&quot;id&quot;:2377,&quot;token&quot;:&quot;d:1&quot;,&quot;particle_id&quot;:&quot;img3-m81-p5&quot;,&quot;molecule_id&quot;:&quot;img3-m81&quot;,&quot;atom_order&quot;:4}]}</metadata>
  <rect x="0" y="0" width="104" height="85" fill="#f8f0d8"/>
  <image href="file:///C:/Users/HHHES/AppData/Roaming/com.voynichlab.datasetcreator/images/1/35a70f63-88ab-4986-b441-b78046a10087.jpg" x="-1131" y="-1649" width="2972" height="3766" opacity="0.92"/>
  <rect x="0.5" y="0.5" width="103" height="84" fill="none" stroke="#111827" stroke-width="1" opacity="0.35"/>
  <polyline points="16,50 16,51 17,51 17,52 18,52 18,53 19,53 19,54 19,55 20,55 20,56 20,57 21,57 21,58 22,59 22,60 23,60 23,61 23,62 24,62 24,63 24,64 25,64 25,65 26,65 26,66 27,66 28,66 28,65 29,65 29,64 30,64 31,64 31,63 32,63 32,62 33,62 33,61 34,61 34,60 35,59 36,59 36,58 37,58 37,57 38,57 38,56 39,56 39,55 40,55 40,54 41,54 41,53 42,53 42,52 43,52 43,51 43,50 43,51 44,51 44,52 44,53 44,54 44,55 45,55 45,56 45,57 46,57 46,58 46,59 47,59 47,60 47,61 48,61 48,62 48,63 49,64 49,65 50,65 50,66 50,67 51,67 51,68 52,68 52,67 53,67 54,67 54,66 55,66 55,65 56,65 56,64 57,64 57,63 58,63 58,62 59,62 60,61 61,61 61,60 62,60 62,59 63,59 64,59 64,58 65,58 65,57 66,57 66,56 67,56 67,55 68,55 68,54" fill="none" stroke="#ffffff" stroke-width="3" stroke-linecap="round" stroke-linejoin="round" opacity="0.95">
    <title>2374 k:1</title>
  </polyline>
  <polyline points="68,54 68,55 68,56 69,56 69,57 69,58 69,59 70,59 70,60 70,61 71,61 71,62 71,63 72,63 72,64 72,65 73,65 73,66 74,66 74,67 74,68 75,68 75,69" fill="none" stroke="#00a2ff" stroke-width="3" stroke-linecap="round" stroke-linejoin="round" opacity="0.95">
    <title>2375 f:1</title>
  </polyline>
  <polyline points="75,69 76,69 76,68 77,68 77,67 78,67 79,67 79,66 80,66 80,65 81,65 81,64 82,64 82,63 83,63 83,62 84,62 84,61 85,61 85,60 86,59 86,58 87,58 87,57 87,56 88,56 88,55 88,54 88,53 88,52 88,51 88,50 88,49 88,48 88,47 88,46 88,45 88,44 88,43 88,42 88,41 88,40 87,40 87,39 87,38 86,38 86,37 85,37 85,36 85,35 84,35 84,34 83,34 83,33 83,32 82,32 82,31 81,31 81,30 80,30 80,29 79,29 79,28 78,28 77,27 76,26 75,26 75,25 74,25 74,24 73,24 72,23 71,23 70,22" fill="none" stroke="#00ff7f" stroke-width="3" stroke-linecap="round" stroke-linejoin="round" opacity="0.95">
    <title>2376 i:1</title>
  </polyline>
  <polyline points="19,25 19,24 20,24 21,24 21,23 22,23 23,23 23,22 24,22 25,22 26,22 26,21 27,21 28,20 29,20 30,20 31,19 32,19 33,18 34,18 35,18 36,18 37,18 38,18 38,17 39,17 40,17 41,17 42,17 43,17 44,17 45,17 46,17 47,17 47,16 48,16 49,16 50,16 51,16 52,16 53,16 54,16 55,16 55,17 56,17 57,17 58,17 59,17 60,17 60,18 61,18 62,18 63,18 64,18 64,19 65,19 66,19 66,20 67,20 68,21 69,21 69,22 70,22 70,23 71,23" fill="none" stroke="#ff2d55" stroke-width="3" stroke-linecap="round" stroke-linejoin="round" opacity="0.95">
    <title>2377 d:1</title>
  </polyline>
</svg>
