<?xml version="1.0" encoding="UTF-8"?>
<svg xmlns="http://www.w3.org/2000/svg" width="73" height="69" viewBox="0 0 73 69">
  <title>particle img3-m77-p5 f:1 j:1</title>
  <metadata>{&quot;entityType&quot;:&quot;particle&quot;,&quot;entityId&quot;:&quot;img3-m77-p5&quot;,&quot;token&quot;:&quot;f:1 j:1&quot;,&quot;signature&quot;:&quot;f:1 j:1&quot;,&quot;imageName&quot;:&quot;page-003.jpg&quot;,&quot;imageId&quot;:3,&quot;bounds&quot;:{&quot;x&quot;:1403,&quot;y&quot;:1578,&quot;w&quot;:73,&quot;h&quot;:69},&quot;atoms&quot;:[{&quot;id&quot;:2266,&quot;token&quot;:&quot;f:1&quot;,&quot;particle_id&quot;:&quot;img3-m77-p5&quot;,&quot;molecule_id&quot;:&quot;img3-m77&quot;,&quot;atom_order&quot;:1},{&quot;id&quot;:2273,&quot;token&quot;:&quot;j:1&quot;,&quot;particle_id&quot;:&quot;img3-m77-p5&quot;,&quot;molecule_id&quot;:&quot;img3-m77&quot;,&quot;atom_order&quot;:2}]}</metadata>
  <rect x="0" y="0" width="73" height="69" fill="#f8f0d8"/>
  <image href="file:///C:/Users/HHHES/AppData/Roaming/com.voynichlab.datasetcreator/images/1/35a70f63-88ab-4986-b441-b78046a10087.jpg" x="-1403" y="-1578" width="2972" height="3766" opacity="0.92"/>
  <rect x="0.5" y="0.5" width="72" height="68" fill="none" stroke="#111827" stroke-width="1" opacity="0.35"/>
  <polyline points="31,23 31,24 31,25 32,25 32,26 32,27 33,27 33,28 34,29 34,30 35,30 35,31 36,32 36,33 37,33 37,34 38,34 38,35 39,35 39,36 39,37 40,37 40,38 40,39 41,39 41,40 42,40 42,41 43,42 43,43 44,43 44,44" fill="none" stroke="#00a2ff" stroke-width="3" stroke-linecap="round" stroke-linejoin="round" opacity="0.95">
    <title>2266 f:1</title>
  </polyline>
  <polyline points="32,26 32,25 33,25 33,24 34,24 35,24 35,23 36,23 36,22 37,22 38,21 39,21 40,21 40,20 41,20 41,19 42,19 43,19 44,18 45,18 46,18 46,17 47,17 48,17 49,17 50,17 51,17 52,17 53,17 53,16 54,16 55,16 56,17 57,17 57,18 57,19 57,20 57,21 56,21 56,22 55,23 55,24 54,24 54,25 53,25 53,26 52,26 52,27 51,27 51,28 50,28 50,29 49,29 49,30 48,30 47,31 46,31 45,32 44,33 43,33 42,34 41,34 41,35 40,35 39,35 38,35 38,36 37,36 36,36 36,37 35,37 34,37 34,38 33,38 32,39 31,39 31,40 30,40 30,41 29,41 29,42 28,42 28,43 27,43 27,44 26,44 25,45 24,46 23,47 22,47 22,48 21,48 21,49 20,49 20,50 19,50 19,51 18,51 18,52 17,52 17,53 16,53" fill="none" stroke="#4a9e6a" stroke-width="3" stroke-linecap="round" stroke-linejoin="round" opacity="0.95">
    <title>2273 j:1</title>
  </polyline>
</svg>
