<?xml version="1.0" encoding="UTF-8"?>
<svg xmlns="http://www.w3.org/2000/svg" width="94" height="57" viewBox="0 0 94 57">
  <title>particle img3-m58-p2 e:1 g:1 e:1</title>
  <metadata>{&quot;entityType&quot;:&quot;particle&quot;,&quot;entityId&quot;:&quot;img3-m58-p2&quot;,&quot;token&quot;:&quot;e:1 g:1 e:1&quot;,&quot;signature&quot;:&quot;e:1 g:1 e:1&quot;,&quot;imageName&quot;:&quot;page-003.jpg&quot;,&quot;imageId&quot;:3,&quot;bounds&quot;:{&quot;x&quot;:596,&quot;y&quot;:1166,&quot;w&quot;:94,&quot;h&quot;:57},&quot;atoms&quot;:[{&quot;id&quot;:1893,&quot;token&quot;:&quot;e:1&quot;,&quot;particle_id&quot;:&quot;img3-m58-p2&quot;,&quot;molecule_id&quot;:&quot;img3-m58&quot;,&quot;atom_order&quot;:1},{&quot;id&quot;:1898,&quot;token&quot;:&quot;g:1&quot;,&quot;particle_id&quot;:&quot;img3-m58-p2&quot;,&quot;molecule_id&quot;:&quot;img3-m58&quot;,&quot;atom_order&quot;:2},{&quot;id&quot;:1894,&quot;token&quot;:&quot;e:1&quot;,&quot;particle_id&quot;:&quot;img3-m58-p2&quot;,&quot;molecule_id&quot;:&quot;img3-m58&quot;,&quot;atom_order&quot;:3}]}</metadata>
  <rect x="0" y="0" width="94" height="57" fill="#f8f0d8"/>
  <image href="file:///C:/Users/HHHES/AppData/Roaming/com.voynichlab.datasetcreator/images/1/35a70f63-88ab-4986-b441-b78046a10087.jpg" x="-596" y="-1166" width="2972" height="3766" opacity="0.92"/>
  <rect x="0.5" y="0.5" width="93" height="56" fill="none" stroke="#111827" stroke-width="1" opacity="0.35"/>
  <polyline points="32,39 31,39 31,40 30,40 29,40 28,41 27,41 26,41 25,41 24,41 23,40 22,40 21,40 21,39 20,39 19,38 18,37 18,36 17,36 17,35 17,34 17,33 16,33 16,32 16,31 16,30 16,29 16,28 16,27 17,27 17,26 17,25 18,25 18,24 18,23 19,23 19,22 20,22 20,21 21,21 22,20 23,20 23,19 24,19 25,19 25,18 26,18 27,18 28,18 29,18" fill="none" stroke="#f2e45c" stroke-width="3" stroke-linecap="round" stroke-linejoin="round" opacity="0.95">
    <title>1893 e:1</title>
  </polyline>
  <polyline points="28,18 29,18 30,18 31,18 32,18 33,18 34,18 35,18 36,18 37,18 38,18 39,18 40,18 40,17 41,17 42,17 43,17 44,17 45,17 46,17 47,17 48,17 49,17 50,17 51,17 52,17 53,17 54,17 55,17 56,17 57,17 58,17 59,17 60,17 61,17 62,17 63,17 64,17 65,17 66,17 67,17 68,17 69,17 70,17 71,17 72,17 73,17 74,17 75,17 76,17 77,17 78,17" fill="none" stroke="#7c3cff" stroke-width="3" stroke-linecap="round" stroke-linejoin="round" opacity="0.95">
    <title>1898 g:1</title>
  </polyline>
  <polyline points="77,37 73,37 72,37 71,37 70,37 69,37 69,36 68,36 66,35 64,34 64,33 63,33 63,32 63,31 63,30 62,29 62,28 63,27 63,26 63,25 64,25 64,24 65,23 66,22 67,21 67,20 68,20 72,17 73,17 74,17 75,17 76,17 77,16 78,16 78,17" fill="none" stroke="#f2e45c" stroke-width="3" stroke-linecap="round" stroke-linejoin="round" opacity="0.95">
    <title>1894 e:1</title>
  </polyline>
</svg>
