<?xml version="1.0" encoding="UTF-8"?>
<svg xmlns="http://www.w3.org/2000/svg" width="62" height="86" viewBox="0 0 62 86">
  <title>particle img3-m7-p4 f:1 i:1 d:1</title>
  <metadata>{&quot;entityType&quot;:&quot;particle&quot;,&quot;entityId&quot;:&quot;img3-m7-p4&quot;,&quot;token&quot;:&quot;f:1 i:1 d:1&quot;,&quot;signature&quot;:&quot;f:1 i:1 d:1&quot;,&quot;imageName&quot;:&quot;page-003.jpg&quot;,&quot;imageId&quot;:3,&quot;bounds&quot;:{&quot;x&quot;:2100,&quot;y&quot;:483,&quot;w&quot;:62,&quot;h&quot;:86},&quot;atoms&quot;:[{&quot;id&quot;:1125,&quot;token&quot;:&quot;f:1&quot;,&quot;particle_id&quot;:&quot;img3-m7-p4&quot;,&quot;molecule_id&quot;:&quot;img3-m7&quot;,&quot;atom_order&quot;:1},{&quot;id&quot;:1126,&quot;token&quot;:&quot;i:1&quot;,&quot;particle_id&quot;:&quot;img3-m7-p4&quot;,&quot;molecule_id&quot;:&quot;img3-m7&quot;,&quot;atom_order&quot;:2},{&quot;id&quot;:1127,&quot;token&quot;:&quot;d:1&quot;,&quot;particle_id&quot;:&quot;img3-m7-p4&quot;,&quot;molecule_id&quot;:&quot;img3-m7&quot;,&quot;atom_order&quot;:3}]}</metadata>
  <rect x="0" y="0" width="62" height="86" fill="#f8f0d8"/>
  <image href="file:///C:/Users/HHHES/AppData/Roaming/com.voynichlab.datasetcreator/images/1/35a70f63-88ab-4986-b441-b78046a10087.jpg" x="-2100" y="-483" width="2972" height="3766" opacity="0.92"/>
  <rect x="0.5" y="0.5" width="61" height="85" fill="none" stroke="#111827" stroke-width="1" opacity="0.35"/>
  <polyline points="18,53 19,53 19,54 19,55 20,55 20,56 21,56 21,57 21,58 22,58 22,59 23,60 23,61 24,61 24,62 25,62 25,63 26,64 26,65 27,65 27,66 28,66 28,67 29,67 29,68 30,68 30,69 30,70" fill="none" stroke="#00a2ff" stroke-width="3" stroke-linecap="round" stroke-linejoin="round" opacity="0.95">
    <title>1125 f:1</title>
  </polyline>
  <polyline points="22,57 23,57 24,56 25,56 25,55 26,55 26,54 27,54 27,53 28,53 29,53 29,52 30,52 30,51 31,51 32,50 33,50 33,49 34,49 34,48 35,48 35,47 35,46 36,46 37,46 37,45 38,44 39,43 39,42 40,42 40,41 41,40 41,39 42,39 42,38 43,37 43,36 44,36 44,35 44,34 45,34 45,33 45,32 45,31 46,31 46,30 46,29 46,28 46,27 46,26 46,25 46,24 45,23" fill="none" stroke="#00ff7f" stroke-width="3" stroke-linecap="round" stroke-linejoin="round" opacity="0.95">
    <title>1126 i:1</title>
  </polyline>
  <polyline points="16,24 17,24 17,23 18,23 18,22 19,22 19,21 20,21 21,21 21,20 22,20 22,19 23,19 23,18 24,18 25,18 26,18 26,17 27,17 28,17 29,17 30,17 30,16 31,16 32,16 33,16 34,16 35,16 36,16 36,17 37,17 38,17 38,18 39,18 40,18 40,19 41,19 42,19 42,20 43,20 44,21 45,21 45,22 46,22 46,23 46,24" fill="none" stroke="#ff2d55" stroke-width="3" stroke-linecap="round" stroke-linejoin="round" opacity="0.95">
    <title>1127 d:1</title>
  </polyline>
</svg>
