<?xml version="1.0" encoding="UTF-8"?>
<svg xmlns="http://www.w3.org/2000/svg" width="57" height="72" viewBox="0 0 57 72">
  <title>particle img3-m49-p4 e:1 c:1 h:2</title>
  <metadata>{&quot;entityType&quot;:&quot;particle&quot;,&quot;entityId&quot;:&quot;img3-m49-p4&quot;,&quot;token&quot;:&quot;e:1 c:1 h:2&quot;,&quot;signature&quot;:&quot;e:1 c:1 h:2&quot;,&quot;imageName&quot;:&quot;page-003.jpg&quot;,&quot;imageId&quot;:3,&quot;bounds&quot;:{&quot;x&quot;:2214,&quot;y&quot;:1048,&quot;w&quot;:57,&quot;h&quot;:72},&quot;atoms&quot;:[{&quot;id&quot;:1883,&quot;token&quot;:&quot;e:1&quot;,&quot;particle_id&quot;:&quot;img3-m49-p4&quot;,&quot;molecule_id&quot;:&quot;img3-m49&quot;,&quot;atom_order&quot;:1},{&quot;id&quot;:1882,&quot;token&quot;:&quot;c:1&quot;,&quot;particle_id&quot;:&quot;img3-m49-p4&quot;,&quot;molecule_id&quot;:&quot;img3-m49&quot;,&quot;atom_order&quot;:2},{&quot;id&quot;:2096,&quot;token&quot;:&quot;h:2&quot;,&quot;particle_id&quot;:&quot;img3-m49-p4&quot;,&quot;molecule_id&quot;:&quot;img3-m49&quot;,&quot;atom_order&quot;:3}]}</metadata>
  <rect x="0" y="0" width="57" height="72" fill="#f8f0d8"/>
  <image href="file:///C:/Users/HHHES/AppData/Roaming/com.voynichlab.datasetcreator/images/1/35a70f63-88ab-4986-b441-b78046a10087.jpg" x="-2214" y="-1048" width="2972" height="3766" opacity="0.92"/>
  <rect x="0.5" y="0.5" width="56" height="71" fill="none" stroke="#111827" stroke-width="1" opacity="0.35"/>
  <polyline points="31,53 31,54 30,54 30,55 29,55 28,55 28,56 27,56 26,56 25,56 24,56 23,56 22,56 21,56 21,55 20,55 19,55 18,55 18,54 17,54 16,54 16,53 16,52 16,51 16,50 16,49 16,48 16,47 17,47 17,46 17,45 17,44 18,44 18,43 18,42 19,42 19,41 19,40 20,40 21,40 21,39 22,39 22,38 23,38 24,38 24,37 25,37 26,37 27,37 27,36" fill="none" stroke="#f2e45c" stroke-width="3" stroke-linecap="round" stroke-linejoin="round" opacity="0.95">
    <title>1883 e:1</title>
  </polyline>
  <polyline points="23,22 23,23 22,23 22,24 22,25 21,25 21,26 21,27 21,28 21,29 21,30 21,31 21,32 22,32 22,33 23,33 23,34 24,35 25,35 26,35 27,35 27,36 28,36 29,36 30,36 31,36 32,36 33,36 34,36 35,36 35,35 36,35 37,35 37,34 37,33 38,33 38,32 39,32 39,31 39,30 40,30 40,29 40,28 41,28 41,27 41,26 41,25 41,24 41,23 41,22 40,22 40,21 40,20 39,20 39,19 38,19 38,18 37,18 37,17 36,17 35,17 35,16 34,16 33,16 32,16 31,16 30,16 29,16 28,16 27,17 26,17 26,18 25,18 25,19 24,19 23,19 23,20 22,20 22,21 22,22" fill="none" stroke="#8aff00" stroke-width="3" stroke-linecap="round" stroke-linejoin="round" opacity="0.95">
    <title>1882 c:1</title>
  </polyline>
  <polyline points="31,54 31,53 32,53 32,52 33,52 33,51 33,50 34,50 34,49 34,48 34,47 34,46 34,45 34,44 33,44 33,43 32,43 32,42 31,42 31,41 30,40 29,40 29,39 28,39 28,38 27,38 27,37 26,37 26,36 25,36 25,35 24,35 24,34 23,34 23,33 23,32 22,32 22,31 21,31 21,30 21,29 21,28 21,27 21,26 21,25 21,24 21,23 21,22 21,21 22,21 22,20 23,20 23,19 24,19 24,18" fill="none" stroke="#ff8c00" stroke-width="3" stroke-linecap="round" stroke-linejoin="round" opacity="0.95">
    <title>2096 h:2</title>
  </polyline>
</svg>
