<?xml version="1.0" encoding="UTF-8"?>
<svg xmlns="http://www.w3.org/2000/svg" width="81" height="53" viewBox="0 0 81 53">
  <title>particle img3-m47-p3 e:1 g:1 e:1</title>
  <metadata>{&quot;entityType&quot;:&quot;particle&quot;,&quot;entityId&quot;:&quot;img3-m47-p3&quot;,&quot;token&quot;:&quot;e:1 g:1 e:1&quot;,&quot;signature&quot;:&quot;e:1 g:1 e:1&quot;,&quot;imageName&quot;:&quot;page-003.jpg&quot;,&quot;imageId&quot;:3,&quot;bounds&quot;:{&quot;x&quot;:1653,&quot;y&quot;:1064,&quot;w&quot;:81,&quot;h&quot;:53},&quot;atoms&quot;:[{&quot;id&quot;:1846,&quot;token&quot;:&quot;e:1&quot;,&quot;particle_id&quot;:&quot;img3-m47-p3&quot;,&quot;molecule_id&quot;:&quot;img3-m47&quot;,&quot;atom_order&quot;:1},{&quot;id&quot;:1848,&quot;token&quot;:&quot;g:1&quot;,&quot;particle_id&quot;:&quot;img3-m47-p3&quot;,&quot;molecule_id&quot;:&quot;img3-m47&quot;,&quot;atom_order&quot;:2},{&quot;id&quot;:1847,&quot;token&quot;:&quot;e:1&quot;,&quot;particle_id&quot;:&quot;img3-m47-p3&quot;,&quot;molecule_id&quot;:&quot;img3-m47&quot;,&quot;atom_order&quot;:3}]}</metadata>
  <rect x="0" y="0" width="81" height="53" fill="#f8f0d8"/>
  <image href="file:///C:/Users/HHHES/AppData/Roaming/com.voynichlab.datasetcreator/images/1/35a70f63-88ab-4986-b441-b78046a10087.jpg" x="-1653" y="-1064" width="2972" height="3766" opacity="0.92"/>
  <rect x="0.5" y="0.5" width="80" height="52" fill="none" stroke="#111827" stroke-width="1" opacity="0.35"/>
  <polyline points="27,35 26,35 26,36 25,36 24,36 23,36 22,36 21,36 20,36 19,36 19,35 18,35 18,34 17,34 17,33 17,32 16,32 16,31 16,30 16,29 16,28 16,27 16,26 16,25 16,24 16,23 16,22 17,22 17,21 17,20 18,20 18,19 19,19 20,19 20,18 21,18 22,18 23,18 23,17 24,17 25,17 26,18 27,18" fill="none" stroke="#f2e45c" stroke-width="3" stroke-linecap="round" stroke-linejoin="round" opacity="0.95">
    <title>1846 e:1</title>
  </polyline>
  <polyline points="24,18 25,18 26,18 27,18 28,18 29,18 30,18 31,18 31,17 32,17 33,17 34,17 35,17 36,17 37,17 38,17 39,17 40,17 41,17 42,17 43,17 44,17 45,17 46,17 47,17 48,17 49,17 50,17 51,17 52,17 53,17 54,17 55,17 56,17 57,17 58,17 59,17" fill="none" stroke="#7c3cff" stroke-width="3" stroke-linecap="round" stroke-linejoin="round" opacity="0.95">
    <title>1848 g:1</title>
  </polyline>
  <polyline points="64,34 61,36 60,36 59,36 58,37 57,37 56,37 56,36 55,36 54,36 54,35 53,35 53,34 52,34 52,33 51,33 51,32 51,31 51,30 50,30 50,29 50,28 50,27 50,26 50,25 50,24 50,23 51,23 51,22 51,21 52,21 52,20 53,19 54,18 55,18 55,17 56,17 57,17 58,17 58,16 59,16 60,16 61,16 62,16 63,16 64,16 64,17 65,17" fill="none" stroke="#f2e45c" stroke-width="3" stroke-linecap="round" stroke-linejoin="round" opacity="0.95">
    <title>1847 e:1</title>
  </polyline>
</svg>
