<?xml version="1.0" encoding="UTF-8"?>
<svg xmlns="http://www.w3.org/2000/svg" width="61" height="90" viewBox="0 0 61 90">
  <title>particle img3-m75-p3 e:1 h:1</title>
  <metadata>{&quot;entityType&quot;:&quot;particle&quot;,&quot;entityId&quot;:&quot;img3-m75-p3&quot;,&quot;token&quot;:&quot;e:1 h:1&quot;,&quot;signature&quot;:&quot;e:1 h:1&quot;,&quot;imageName&quot;:&quot;page-003.jpg&quot;,&quot;imageId&quot;:3,&quot;bounds&quot;:{&quot;x&quot;:2124,&quot;y&quot;:1601,&quot;w&quot;:61,&quot;h&quot;:90},&quot;atoms&quot;:[{&quot;id&quot;:2318,&quot;token&quot;:&quot;e:1&quot;,&quot;particle_id&quot;:&quot;img3-m75-p3&quot;,&quot;molecule_id&quot;:&quot;img3-m75&quot;,&quot;atom_order&quot;:1},{&quot;id&quot;:2319,&quot;token&quot;:&quot;h:1&quot;,&quot;particle_id&quot;:&quot;img3-m75-p3&quot;,&quot;molecule_id&quot;:&quot;img3-m75&quot;,&quot;atom_order&quot;:2}]}</metadata>
  <rect x="0" y="0" width="61" height="90" fill="#f8f0d8"/>
  <image href="file:///C:/Users/HHHES/AppData/Roaming/com.voynichlab.datasetcreator/images/1/35a70f63-88ab-4986-b441-b78046a10087.jpg" x="-2124" y="-1601" width="2972" height="3766" opacity="0.92"/>
  <rect x="0.5" y="0.5" width="60" height="89" fill="none" stroke="#111827" stroke-width="1" opacity="0.35"/>
  <polyline points="41,33 41,34 40,34 40,35 39,35 38,35 38,36 37,36 36,36 35,36 34,36 33,36 32,36 31,36 31,35 30,35 29,35 28,35 28,34 27,34 26,34 26,33 26,32 26,31 26,30 26,29 26,28 26,27 27,27 27,26 27,25 27,24 28,24 28,23 28,22 29,22 29,21 29,20 30,20 31,20 31,19 32,19 32,18 33,18 34,18 34,17 35,17 36,17 37,17 37,16" fill="none" stroke="#f2e45c" stroke-width="3" stroke-linecap="round" stroke-linejoin="round" opacity="0.95">
    <title>2318 e:1</title>
  </polyline>
  <polyline points="16,74 17,74 17,73 17,72 18,72 18,71 19,71 20,70 21,69 22,69 22,68 23,68 23,67 24,67 24,66 25,65 25,64 26,64 26,63 27,63 27,62 28,62 29,61 29,60 30,60 30,59 31,59 31,58 32,58 32,57 33,57 33,56 34,56 34,55 35,55 35,54 35,53 36,53 36,52 37,51 37,50 38,49 38,48 39,48 39,47 40,47 40,46 41,46 41,45 41,44 42,44 42,43 43,42 43,41 44,41 44,40 44,39 44,38 45,38 45,37 45,36 45,35 45,34 45,33 45,32 45,31 45,30 45,29 45,28 45,27 45,26 45,25 45,24 45,23 45,22 45,21 45,20 44,20 44,19 43,19 43,18 42,18 42,17 41,17 40,17 40,16 39,16 38,16 37,16 36,16" fill="none" stroke="#ff8c00" stroke-width="3" stroke-linecap="round" stroke-linejoin="round" opacity="0.95">
    <title>2319 h:1</title>
  </polyline>
</svg>
