<?xml version="1.0" encoding="UTF-8"?>
<svg xmlns="http://www.w3.org/2000/svg" width="62" height="74" viewBox="0 0 62 74">
  <title>particle img3-m33-p1 e:1 c:1 h:2</title>
  <metadata>{&quot;entityType&quot;:&quot;particle&quot;,&quot;entityId&quot;:&quot;img3-m33-p1&quot;,&quot;token&quot;:&quot;e:1 c:1 h:2&quot;,&quot;signature&quot;:&quot;e:1 c:1 h:2&quot;,&quot;imageName&quot;:&quot;page-003.jpg&quot;,&quot;imageId&quot;:3,&quot;bounds&quot;:{&quot;x&quot;:561,&quot;y&quot;:774,&quot;w&quot;:62,&quot;h&quot;:74},&quot;atoms&quot;:[{&quot;id&quot;:1486,&quot;token&quot;:&quot;e:1&quot;,&quot;particle_id&quot;:&quot;img3-m33-p1&quot;,&quot;molecule_id&quot;:&quot;img3-m33&quot;,&quot;atom_order&quot;:1},{&quot;id&quot;:1487,&quot;token&quot;:&quot;c:1&quot;,&quot;particle_id&quot;:&quot;img3-m33-p1&quot;,&quot;molecule_id&quot;:&quot;img3-m33&quot;,&quot;atom_order&quot;:2},{&quot;id&quot;:1488,&quot;token&quot;:&quot;h:2&quot;,&quot;particle_id&quot;:&quot;img3-m33-p1&quot;,&quot;molecule_id&quot;:&quot;img3-m33&quot;,&quot;atom_order&quot;:3}]}</metadata>
  <rect x="0" y="0" width="62" height="74" fill="#f8f0d8"/>
  <image href="file:///C:/Users/HHHES/AppData/Roaming/com.voynichlab.datasetcreator/images/1/35a70f63-88ab-4986-b441-b78046a10087.jpg" x="-561" y="-774" width="2972" height="3766" opacity="0.92"/>
  <rect x="0.5" y="0.5" width="61" height="73" fill="none" stroke="#111827" stroke-width="1" opacity="0.35"/>
  <polyline points="34,55 33,55 33,56 32,56 31,57 30,57 29,57 29,58 28,58 27,58 26,58 25,58 24,58 23,58 22,58 21,58 20,58 19,58 18,58 17,58 17,57 16,57 16,56 16,55 16,54 16,53 16,52 17,52 17,51 18,51 18,50 18,49 19,48 19,47 20,47 20,46 21,46 21,45 22,45 22,44 23,44 24,43 25,43 26,42 27,42 27,41 28,41 29,41 29,40 30,40 31,40" fill="none" stroke="#f2e45c" stroke-width="3" stroke-linecap="round" stroke-linejoin="round" opacity="0.95">
    <title>1486 e:1</title>
  </polyline>
  <polyline points="32,39 33,39 34,38 35,38 35,37 36,37 37,37 37,36 38,36 38,35 39,35 39,34 40,34 40,33 41,33 41,32 42,31 43,31 43,30 44,30 44,29 45,28 45,27 46,27 46,26 46,25 46,24 46,23 46,22 46,21 46,20 46,19 46,18 45,18 45,17 44,17 43,17 42,17 41,16 40,16 39,16 38,16 37,16 36,16 35,16 34,16 33,16 32,17 31,17 30,18 29,18 29,19 28,19 28,20 27,20 27,21 26,21 26,22 25,22 25,23 24,24 24,25 24,26 23,26 23,27 23,28 23,29 23,30 23,31 23,32 23,33 23,34 24,35 24,36 24,37 25,37 25,38 26,38 27,38 28,38 28,39 29,39 30,39 31,39 32,39" fill="none" stroke="#8aff00" stroke-width="3" stroke-linecap="round" stroke-linejoin="round" opacity="0.95">
    <title>1487 c:1</title>
  </polyline>
  <polyline points="31,56 32,56 33,56 33,55 34,55 34,54 35,54 35,53 36,53 36,52 37,52 37,51 37,50 37,49 37,48 37,47 37,46 37,45 36,44 36,43 35,43 35,42 34,42 34,41 33,41 33,40 32,40 31,39 30,39 30,38 29,38 28,38 28,37 27,37 26,37 26,36 25,36 24,35 24,34 23,34 23,33 23,32 22,32 22,31 22,30 22,29 22,28 22,27 22,26 23,26 23,25 24,24 24,23 25,23 25,22 26,21 26,20 27,20 27,19 28,19 28,18 29,18 30,18 31,17 32,17 33,17 33,16 34,16 35,16 36,16" fill="none" stroke="#ff8c00" stroke-width="3" stroke-linecap="round" stroke-linejoin="round" opacity="0.95">
    <title>1488 h:2</title>
  </polyline>
</svg>
