<?xml version="1.0" encoding="UTF-8"?>
<svg xmlns="http://www.w3.org/2000/svg" width="106" height="78" viewBox="0 0 106 78">
  <title>particle img3-m102-p3 k:1 f:1 i:1 d:1</title>
  <metadata>{&quot;entityType&quot;:&quot;particle&quot;,&quot;entityId&quot;:&quot;img3-m102-p3&quot;,&quot;token&quot;:&quot;k:1 f:1 i:1 d:1&quot;,&quot;signature&quot;:&quot;k:1 f:1 i:1 d:1&quot;,&quot;imageName&quot;:&quot;page-003.jpg&quot;,&quot;imageId&quot;:3,&quot;bounds&quot;:{&quot;x&quot;:609,&quot;y&quot;:1821,&quot;w&quot;:106,&quot;h&quot;:78},&quot;atoms&quot;:[{&quot;id&quot;:3190,&quot;token&quot;:&quot;k:1&quot;,&quot;particle_id&quot;:&quot;img3-m102-p3&quot;,&quot;molecule_id&quot;:&quot;img3-m102&quot;,&quot;atom_order&quot;:1},{&quot;id&quot;:3191,&quot;token&quot;:&quot;f:1&quot;,&quot;particle_id&quot;:&quot;img3-m102-p3&quot;,&quot;molecule_id&quot;:&quot;img3-m102&quot;,&quot;atom_order&quot;:2},{&quot;id&quot;:3192,&quot;token&quot;:&quot;i:1&quot;,&quot;particle_id&quot;:&quot;img3-m102-p3&quot;,&quot;molecule_id&quot;:&quot;img3-m102&quot;,&quot;atom_order&quot;:3},{&quot;id&quot;:3196,&quot;token&quot;:&quot;d:1&quot;,&quot;particle_id&quot;:&quot;img3-m102-p3&quot;,&quot;molecule_id&quot;:&quot;img3-m102&quot;,&quot;atom_order&quot;:4}]}</metadata>
  <rect x="0" y="0" width="106" height="78" fill="#f8f0d8"/>
  <image href="file:///C:/Users/HHHES/AppData/Roaming/com.voynichlab.datasetcreator/images/1/35a70f63-88ab-4986-b441-b78046a10087.jpg" x="-609" y="-1821" width="2972" height="3766" opacity="0.92"/>
  <rect x="0.5" y="0.5" width="105" height="77" fill="none" stroke="#111827" stroke-width="1" opacity="0.35"/>
  <polyline points="16,42 16,43 17,43 17,44 17,45 18,45 18,46 18,47 19,47 19,48 19,49 20,49 20,50 20,51 21,51 21,52 21,53 22,53 22,54 22,55 23,55 23,56 23,57 24,57 24,58 25,58 25,59 26,59 26,60 26,59 27,59 28,59 28,58 28,57 29,57 29,56 30,56 30,55 31,54 32,53 32,52 33,52 33,51 34,51 34,50 35,50 35,49 36,49 36,48 37,48 37,47 37,46 38,46 38,45 39,45 39,44 40,43 40,42 40,41 41,41 41,42 41,43 42,44 42,45 42,46 43,46 43,47 43,48 44,48 44,49 44,50 45,51 45,52 45,53 46,53 46,54 46,55 47,55 47,56 47,57 48,58 48,59 49,59 49,60 50,61 50,62 50,61 51,60 51,59 52,58 52,57 53,56 53,55 54,55 54,54 54,53 55,52 55,51 56,50 57,49 57,48 58,48 58,47 59,46 59,45 60,45 60,44 60,43 61,43 61,42 62,42 62,41" fill="none" stroke="#ffffff" stroke-width="3" stroke-linecap="round" stroke-linejoin="round" opacity="0.95">
    <title>3190 k:1</title>
  </polyline>
  <polyline points="63,41 63,42 63,43 64,43 64,44 64,45 65,45 65,46 66,47 66,48 67,48 67,49 68,50 68,51 69,51 69,52 70,52 70,53 71,53 71,54 71,55 72,55 72,56 72,57 73,57 73,58 74,58 74,59 75,60 75,61 76,61 76,62" fill="none" stroke="#00a2ff" stroke-width="3" stroke-linecap="round" stroke-linejoin="round" opacity="0.95">
    <title>3191 f:1</title>
  </polyline>
  <polyline points="76,61 77,61 78,61 78,60 79,60 80,60 80,59 81,59 82,59 82,58 83,58 84,57 85,57 85,56 86,56 86,55 87,54 88,53 88,52 89,52 89,51 89,50 89,49 90,48 90,47 90,46 90,45 90,44 90,43 90,42 89,41 89,40 89,39 88,39 88,38 88,37 88,36 87,36 87,35 86,35 86,34 85,33 85,32 84,32 84,31 83,31 83,30 82,30 82,29 81,29 80,28 79,28 79,27 78,27 78,26 77,26 76,26 76,25 75,25 74,25 74,24 73,24 72,24" fill="none" stroke="#00ff7f" stroke-width="3" stroke-linecap="round" stroke-linejoin="round" opacity="0.95">
    <title>3192 i:1</title>
  </polyline>
  <polyline points="26,25 27,24 28,24 28,23 29,23 29,22 30,22 31,21 32,21 32,20 33,20 34,19 35,19 36,19 36,18 37,18 38,18 39,17 40,17 41,17 42,17 42,16 43,16 44,16 45,16 46,16 47,16 48,16 49,16 50,16 51,16 52,16 53,17 54,17 55,17 56,17 57,18 58,18 59,18 60,18 61,18 62,19 63,19 64,19 64,20 65,20 66,20 67,20 67,21 68,21 69,21 69,22 70,22 71,23 72,23 73,24" fill="none" stroke="#ff2d55" stroke-width="3" stroke-linecap="round" stroke-linejoin="round" opacity="0.95">
    <title>3196 d:1</title>
  </polyline>
</svg>
