<?xml version="1.0" encoding="UTF-8"?>
<svg xmlns="http://www.w3.org/2000/svg" width="95" height="93" viewBox="0 0 95 93">
  <title>particle img3-m105-p3 f:1 i:1 d:1</title>
  <metadata>{&quot;entityType&quot;:&quot;particle&quot;,&quot;entityId&quot;:&quot;img3-m105-p3&quot;,&quot;token&quot;:&quot;f:1 i:1 d:1&quot;,&quot;signature&quot;:&quot;f:1 i:1 d:1&quot;,&quot;imageName&quot;:&quot;page-003.jpg&quot;,&quot;imageId&quot;:3,&quot;bounds&quot;:{&quot;x&quot;:1281,&quot;y&quot;:1809,&quot;w&quot;:95,&quot;h&quot;:93},&quot;atoms&quot;:[{&quot;id&quot;:3184,&quot;token&quot;:&quot;f:1&quot;,&quot;particle_id&quot;:&quot;img3-m105-p3&quot;,&quot;molecule_id&quot;:&quot;img3-m105&quot;,&quot;atom_order&quot;:1},{&quot;id&quot;:3194,&quot;token&quot;:&quot;i:1&quot;,&quot;particle_id&quot;:&quot;img3-m105-p3&quot;,&quot;molecule_id&quot;:&quot;img3-m105&quot;,&quot;atom_order&quot;:2},{&quot;id&quot;:3198,&quot;token&quot;:&quot;d:1&quot;,&quot;particle_id&quot;:&quot;img3-m105-p3&quot;,&quot;molecule_id&quot;:&quot;img3-m105&quot;,&quot;atom_order&quot;:3}]}</metadata>
  <rect x="0" y="0" width="95" height="93" fill="#f8f0d8"/>
  <image href="file:///C:/Users/HHHES/AppData/Roaming/com.voynichlab.datasetcreator/images/1/35a70f63-88ab-4986-b441-b78046a10087.jpg" x="-1281" y="-1809" width="2972" height="3766" opacity="0.92"/>
  <rect x="0.5" y="0.5" width="94" height="92" fill="none" stroke="#111827" stroke-width="1" opacity="0.35"/>
  <polyline points="50,56 50,57 50,58 51,58 51,59 51,60 52,60 52,61 53,62 53,63 54,63 54,64 55,65 55,66 56,66 56,67 57,67 57,68 58,68 58,69 58,70 59,70 59,71 59,72 60,72 60,73 61,73 61,74 62,75 62,76 63,76 63,77" fill="none" stroke="#00a2ff" stroke-width="3" stroke-linecap="round" stroke-linejoin="round" opacity="0.95">
    <title>3184 f:1</title>
  </polyline>
  <polyline points="55,64 56,64 56,63 57,63 58,62 59,62 59,61 60,61 60,60 61,60 61,59 62,59 62,58 63,58 63,57 64,57 65,56 66,56 66,55 66,54 67,54 67,53 68,53 68,52 69,51 70,50 71,50 71,49 72,49 72,48 73,48 73,47 73,46 74,46 74,45 75,44 75,43 76,43 76,42 77,41 77,40 78,39 78,38 78,37 78,36 79,35 79,34 79,33 79,32 79,31 79,30 79,29 79,28 79,27 79,26 79,25 79,24 79,23 78,23 78,22" fill="none" stroke="#00ff7f" stroke-width="3" stroke-linecap="round" stroke-linejoin="round" opacity="0.95">
    <title>3194 i:1</title>
  </polyline>
  <polyline points="16,27 17,27 17,26 18,26 19,26 19,25 20,25 21,24 22,24 22,23 23,23 24,23 24,22 26,22 27,22 28,21 29,21 30,21 31,21 31,20 32,20 33,20 34,20 35,19 36,19 37,19 38,19 39,18 40,18 41,18 42,17 43,17 44,17 46,16 47,16 48,16 49,16 50,16 51,16 52,16 53,16 54,16 55,16 56,16 57,16 58,16 59,16 60,16 61,16 62,16 63,16 64,16 65,16 66,16 67,16 68,16 68,17 69,17 70,17 71,18 72,18 73,18 74,18 74,19 75,19 76,19 76,20 77,20 77,21 78,21 78,22" fill="none" stroke="#ff2d55" stroke-width="3" stroke-linecap="round" stroke-linejoin="round" opacity="0.95">
    <title>3198 d:1</title>
  </polyline>
</svg>
