<?xml version="1.0" encoding="UTF-8"?>
<svg xmlns="http://www.w3.org/2000/svg" width="187" height="164" viewBox="0 0 187 164">
  <title>particle img3-m43-p1 e:1 a:1 e:1 b:1 c:1 a:1 b:1 d:1 g:1 e:1</title>
  <metadata>{&quot;entityType&quot;:&quot;particle&quot;,&quot;entityId&quot;:&quot;img3-m43-p1&quot;,&quot;token&quot;:&quot;e:1 a:1 e:1 b:1 c:1 a:1 b:1 d:1 g:1 e:1&quot;,&quot;signature&quot;:&quot;e:1 a:1 e:1 b:1 c:1 a:1 b:1 d:1 g:1 e:1&quot;,&quot;imageName&quot;:&quot;page-003.jpg&quot;,&quot;imageId&quot;:3,&quot;bounds&quot;:{&quot;x&quot;:1807,&quot;y&quot;:956,&quot;w&quot;:187,&quot;h&quot;:164},&quot;atoms&quot;:[{&quot;id&quot;:1870,&quot;token&quot;:&quot;e:1&quot;,&quot;particle_id&quot;:&quot;img3-m43-p1&quot;,&quot;molecule_id&quot;:&quot;img3-m43&quot;,&quot;atom_order&quot;:1},{&quot;id&quot;:1861,&quot;token&quot;:&quot;a:1&quot;,&quot;particle_id&quot;:&quot;img3-m43-p1&quot;,&quot;molecule_id&quot;:&quot;img3-m43&quot;,&quot;atom_order&quot;:2},{&quot;id&quot;:1856,&quot;token&quot;:&quot;e:1&quot;,&quot;particle_id&quot;:&quot;img3-m43-p1&quot;,&quot;molecule_id&quot;:&quot;img3-m43&quot;,&quot;atom_order&quot;:3},{&quot;id&quot;:1868,&quot;token&quot;:&quot;b:1&quot;,&quot;particle_id&quot;:&quot;img3-m43-p1&quot;,&quot;molecule_id&quot;:&quot;img3-m43&quot;,&quot;atom_order&quot;:4},{&quot;id&quot;:1864,&quot;token&quot;:&quot;c:1&quot;,&quot;particle_id&quot;:&quot;img3-m43-p1&quot;,&quot;molecule_id&quot;:&quot;img3-m43&quot;,&quot;atom_order&quot;:5},{&quot;id&quot;:1866,&quot;token&quot;:&quot;a:1&quot;,&quot;particle_id&quot;:&quot;img3-m43-p1&quot;,&quot;molecule_id&quot;:&quot;img3-m43&quot;,&quot;atom_order&quot;:6},{&quot;id&quot;:1863,&quot;token&quot;:&quot;b:1&quot;,&quot;particle_id&quot;:&quot;img3-m43-p1&quot;,&quot;molecule_id&quot;:&quot;img3-m43&quot;,&quot;atom_order&quot;:7},{&quot;id&quot;:1869,&quot;token&quot;:&quot;d:1&quot;,&quot;particle_id&quot;:&quot;img3-m43-p1&quot;,&quot;molecule_id&quot;:&quot;img3-m43&quot;,&quot;atom_order&quot;:8},{&quot;id&quot;:1860,&quot;token&quot;:&quot;g:1&quot;,&quot;particle_id&quot;:&quot;img3-m43-p1&quot;,&quot;molecule_id&quot;:&quot;img3-m43&quot;,&quot;atom_order&quot;:9},{&quot;id&quot;:1857,&quot;token&quot;:&quot;e:1&quot;,&quot;particle_id&quot;:&quot;img3-m43-p1&quot;,&quot;molecule_id&quot;:&quot;img3-m43&quot;,&quot;atom_order&quot;:10}]}</metadata>
  <rect x="0" y="0" width="187" height="164" fill="#f8f0d8"/>
  <image href="file:///C:/Users/HHHES/AppData/Roaming/com.voynichlab.datasetcreator/images/1/35a70f63-88ab-4986-b441-b78046a10087.jpg" x="-1807" y="-956" width="2972" height="3766" opacity="0.92"/>
  <rect x="0.5" y="0.5" width="186" height="163" fill="none" stroke="#111827" stroke-width="1" opacity="0.35"/>
  <polyline points="33,87 33,88 32,88 32,89 31,89 30,89 29,89 29,90 28,90 27,90 26,90 25,90 24,90 23,90 22,90 22,89 21,89 20,89 20,88 19,88 19,87 18,87 18,86 17,86 17,85 17,84 17,83 16,83 16,82 16,81 16,80 16,79 16,78 16,77 16,76 16,75 17,75 17,74 17,73 18,73 18,72 18,71 19,71 19,70" fill="none" stroke="#f2e45c" stroke-width="3" stroke-linecap="round" stroke-linejoin="round" opacity="0.95">
    <title>1870 e:1</title>
  </polyline>
  <polyline points="67,143 67,142 67,141 67,140 67,139 67,138 67,137 67,136 67,135 67,134 67,133 67,132 67,131 67,130 67,129 67,128 67,127 67,126 67,125 67,124 67,123 67,122 67,121 67,120 67,119 67,118 67,117 67,116 67,115 67,114 67,113 67,112 67,111 67,110 67,109 67,108 67,107 67,106 67,105 67,104 67,103 67,102 67,101 68,101 68,100 68,99 68,98 68,97 68,96 68,95 68,94 68,93 68,92 68,91 69,91 69,90 69,89 69,88 69,87 69,86 69,85 69,84 69,83 69,82 69,81 69,80 69,79 69,78 69,77 70,76 70,75 70,74 70,73 70,72 70,71 70,70 70,69 70,68 69,68 69,67 69,66 69,65 69,64 69,63 69,62 69,61 69,60 69,59 69,58 69,57 69,56 69,55 69,54 69,53 69,52 69,51 69,50 69,49 69,48 69,47 69,46 69,45 69,44 69,43 69,42 69,41 69,40 69,39 69,38 69,37 69,36 69,35 69,34 69,33 69,32 69,31" fill="none" stroke="#00f0b5" stroke-width="3" stroke-linecap="round" stroke-linejoin="round" opacity="0.95">
    <title>1861 a:1</title>
  </polyline>
  <polyline points="45,145 45,146 44,146 44,147 43,147 42,147 42,148 41,148 40,148 39,148 38,148 37,148 36,148 35,148 35,147 34,147 33,147 32,147 32,146 31,146 30,146 30,145 30,144 30,143 30,142 30,141 30,140 30,139 31,139 31,138 31,137 31,136 32,136 32,135 32,134 33,134 33,133 33,132 34,132 35,132 35,131 36,131 36,130 37,130 38,130 38,129 39,129 40,129 41,129 41,128" fill="none" stroke="#f2e45c" stroke-width="3" stroke-linecap="round" stroke-linejoin="round" opacity="0.95">
    <title>1856 e:1</title>
  </polyline>
  <polyline points="79,64 80,64 80,65 81,65 82,65 82,66 83,66 84,66 85,67 86,67 87,67 88,67 89,67 89,68 90,68 91,68 92,68 93,68 94,69 95,69 96,69 97,69 97,70 98,70 99,70 100,70 101,70 101,71 102,71 103,71 104,71 105,71 106,71 107,72 108,72 109,72 110,72 111,72 112,72 113,72 114,72 115,72 116,72 117,72 118,72 119,72 120,72 121,72 122,72 123,72 124,72 125,72 126,72 126,71 127,71 128,71 129,71 130,70 131,70 132,69 133,69 133,68" fill="none" stroke="#2f7df6" stroke-width="3" stroke-linecap="round" stroke-linejoin="round" opacity="0.95">
    <title>1868 b:1</title>
  </polyline>
  <polyline points="155,43 155,42 156,42 157,42 157,41 158,41 159,41 159,40 160,40 161,40 161,39 162,39 162,38 163,38 164,37 165,37 165,36 166,36 166,35 167,35 167,34 168,34 168,33 169,33 169,32 170,31 170,30 170,29 170,28 171,28 171,27 171,26 171,25 170,25 170,24 170,23 169,22 169,21 168,21 168,20 167,20 167,19 166,18 165,18 165,17 164,17 163,17 162,17 161,17 161,16 160,16 159,16 158,16 157,16 156,16 155,16 154,16 153,16 152,16 151,16 150,16 150,17 149,17 148,17 147,17 147,18 146,18 145,18 145,19 144,19 144,20 143,20 143,21 142,22 141,22 141,23 140,23 140,24 139,24 138,25 137,26 136,26 136,27 136,28 135,28 135,29 135,30 134,31 134,32 134,33 133,34 133,35 133,36 133,37 133,38 134,39 134,40 135,40 135,41 136,41 137,41 137,42 138,42 139,42 140,43 141,43 142,43 143,43 144,43 145,43 146,43 147,43 148,43 149,43 150,43 151,43 152,43 153,43 154,43 155,43" fill="none" stroke="#8aff00" stroke-width="3" stroke-linecap="round" stroke-linejoin="round" opacity="0.95">
    <title>1864 c:1</title>
  </polyline>
  <polyline points="134,38 133,45 133,49 133,50 133,51 133,52 133,54 133,55 133,56 133,58 133,60 133,61 133,66 133,67 133,68 133,69" fill="none" stroke="#00f0b5" stroke-width="3" stroke-linecap="round" stroke-linejoin="round" opacity="0.95">
    <title>1866 a:1</title>
  </polyline>
  <polyline points="69,31 70,31 70,32 71,32 72,32 72,33 73,33 74,34 75,35 76,35 77,35 78,36 79,36 80,36 81,37 82,37 83,37 84,38 85,38 86,38 87,38 88,39 89,39 90,39 91,39 92,40 93,40 94,40 95,40 96,40 97,40 98,40 99,40 100,40 101,40 102,41 103,41 104,41 105,41 106,41 107,41 108,41 109,41 110,41 111,42 112,42 113,42 114,42 115,42 116,42 117,42 117,43 118,43 119,43 120,43 121,43 122,43 123,43 124,43 125,43 126,43 127,43 128,43 129,43 130,43 131,44 132,44 133,44 134,44 135,44 136,44 137,44 138,44 139,44 140,44 141,44 142,44 143,44 144,44 145,44 146,44 147,44 148,44 149,44 150,43 151,43 152,43 153,43 154,42 155,42" fill="none" stroke="#2f7df6" stroke-width="3" stroke-linecap="round" stroke-linejoin="round" opacity="0.95">
    <title>1863 b:1</title>
  </polyline>
  <polyline points="18,72 18,71 19,71 19,70 20,69 20,68 21,68 21,67 22,67 22,66 23,66 24,65 25,65 26,65 26,64 27,64 28,64 28,63 29,63 30,63 31,63 32,63 33,63 34,63 34,62 35,62 36,62 37,62 38,62 39,62 40,62 41,62 42,62 43,62 44,62 45,62 46,62 47,62 47,61 48,61 49,61 50,61 51,61 52,61 53,61 54,61 55,61 56,61 57,61 58,61 59,61 60,61 61,61 62,61 63,61 64,61 65,61 66,61 67,61 68,62 69,62 70,62 71,62 72,62 73,62 73,63 74,63 75,63 76,63 77,64 78,64 79,64" fill="none" stroke="#ff2d55" stroke-width="3" stroke-linecap="round" stroke-linejoin="round" opacity="0.95">
    <title>1869 d:1</title>
  </polyline>
  <polyline points="41,128 45,128 46,128 47,128 48,128 49,128 50,128 51,128 52,128 53,128 54,128 54,129 55,129 56,129 57,129 58,129 59,129 60,129 61,129 62,129 63,129 64,129 65,129 66,129 67,129 68,129 69,129 70,129 71,129 72,129 73,129 74,129 75,129 76,129 77,129 78,129 79,129 80,129 81,129 82,129 83,129 84,129 85,129 86,129 87,129 88,129 89,129 90,129 91,129 92,129 93,129 94,129 95,129 96,129 97,129 98,129 99,129 100,129 101,129 102,129 103,129 104,129 104,128 105,128 106,128 107,128 108,128 109,128 110,128 111,128 112,128" fill="none" stroke="#7c3cff" stroke-width="3" stroke-linecap="round" stroke-linejoin="round" opacity="0.95">
    <title>1860 g:1</title>
  </polyline>
  <polyline points="115,145 115,146 114,146 114,147 113,147 112,147 112,148 111,148 110,148 109,148 108,148 107,148 106,148 105,148 105,147 104,147 103,147 102,147 102,146 101,146 100,146 100,145 100,144 100,143 100,142 100,141 100,140 100,139 101,139 101,138 101,137 101,136 102,136 102,135 102,134 103,134 103,133 103,132 104,132 105,132 105,131 106,131 106,130 107,130 108,130 108,129 109,129 110,129 111,129 111,128" fill="none" stroke="#f2e45c" stroke-width="3" stroke-linecap="round" stroke-linejoin="round" opacity="0.95">
    <title>1857 e:1</title>
  </polyline>
</svg>
