<?xml version="1.0" encoding="UTF-8"?>
<svg xmlns="http://www.w3.org/2000/svg" width="74" height="92" viewBox="0 0 74 92">
  <title>particle img3-m111-p4 f:1 i:1 c:1 h:1</title>
  <metadata>{&quot;entityType&quot;:&quot;particle&quot;,&quot;entityId&quot;:&quot;img3-m111-p4&quot;,&quot;token&quot;:&quot;f:1 i:1 c:1 h:1&quot;,&quot;signature&quot;:&quot;f:1 i:1 c:1 h:1&quot;,&quot;imageName&quot;:&quot;page-003.jpg&quot;,&quot;imageId&quot;:3,&quot;bounds&quot;:{&quot;x&quot;:2272,&quot;y&quot;:1904,&quot;w&quot;:74,&quot;h&quot;:92},&quot;atoms&quot;:[{&quot;id&quot;:3282,&quot;token&quot;:&quot;f:1&quot;,&quot;particle_id&quot;:&quot;img3-m111-p4&quot;,&quot;molecule_id&quot;:&quot;img3-m111&quot;,&quot;atom_order&quot;:1},{&quot;id&quot;:3291,&quot;token&quot;:&quot;i:1&quot;,&quot;particle_id&quot;:&quot;img3-m111-p4&quot;,&quot;molecule_id&quot;:&quot;img3-m111&quot;,&quot;atom_order&quot;:2},{&quot;id&quot;:3275,&quot;token&quot;:&quot;c:1&quot;,&quot;particle_id&quot;:&quot;img3-m111-p4&quot;,&quot;molecule_id&quot;:&quot;img3-m111&quot;,&quot;atom_order&quot;:3},{&quot;id&quot;:3305,&quot;token&quot;:&quot;h:1&quot;,&quot;particle_id&quot;:&quot;img3-m111-p4&quot;,&quot;molecule_id&quot;:&quot;img3-m111&quot;,&quot;atom_order&quot;:4}]}</metadata>
  <rect x="0" y="0" width="74" height="92" fill="#f8f0d8"/>
  <image href="file:///C:/Users/HHHES/AppData/Roaming/com.voynichlab.datasetcreator/images/1/35a70f63-88ab-4986-b441-b78046a10087.jpg" x="-2272" y="-1904" width="2972" height="3766" opacity="0.92"/>
  <rect x="0.5" y="0.5" width="73" height="91" fill="none" stroke="#111827" stroke-width="1" opacity="0.35"/>
  <polyline points="16,36 16,37 16,38 17,38 17,39 17,40 18,40 18,41 19,42 19,43 20,43 20,44 21,45 21,46 22,46 22,47 23,47 23,48 24,48 24,49 24,50 25,50 25,51 25,52 26,52 26,53 27,53 27,54 28,55 28,56 29,56 29,57" fill="none" stroke="#00a2ff" stroke-width="3" stroke-linecap="round" stroke-linejoin="round" opacity="0.95">
    <title>3282 f:1</title>
  </polyline>
  <polyline points="16,36 17,36 18,36 19,36 20,36 21,36 22,36 23,36 24,36 25,36 26,36 27,36 28,36 29,36 30,36 31,36 32,36 33,36 34,36 35,36 36,36 37,36 38,35 39,35 40,35 41,35 42,35 43,34 44,34 45,34 46,34 47,33 48,33 49,33 50,32 51,32 52,32 52,31 53,31 54,30 55,30 55,29 56,29 56,28 57,28 57,27 58,27" fill="none" stroke="#00ff7f" stroke-width="3" stroke-linecap="round" stroke-linejoin="round" opacity="0.95">
    <title>3291 i:1</title>
  </polyline>
  <polyline points="57,27 57,26 57,25 57,24 57,23 57,22 57,21 56,20 56,19 55,19 55,18 54,18 54,17 53,17 53,16 52,16 51,16 50,16 49,16 48,16 47,16 46,16 45,16 45,17 44,17 44,18 43,18 43,19 42,19 42,20 41,20 41,21 41,22 41,23 41,24 41,25 41,26 41,27 42,27 42,28 43,28 43,29 44,29 44,30 45,30 46,30 47,30 47,31 48,31 49,31 50,31 51,31 52,31 52,30 53,30 54,30 54,29 55,29 55,28 56,28 57,28 57,27 57,26 57,25 57,24 57,23" fill="none" stroke="#8aff00" stroke-width="3" stroke-linecap="round" stroke-linejoin="round" opacity="0.95">
    <title>3275 c:1</title>
  </polyline>
  <polyline points="41,26 42,26 42,27 43,27 44,27 44,28 44,29 45,29 46,30 47,31 48,32 49,33 49,34 50,34 50,35 51,35 51,36 51,37 52,38 52,39 52,40 52,41 53,41 53,42 53,43 53,44 53,45 53,46 53,47 52,47 52,48 52,49 52,50 52,51 51,52 51,53 51,54 50,55 50,56 49,56 49,57 48,58 48,59 47,59 47,60 46,60 46,61 45,61 45,62 44,62 44,63 43,64 43,65 42,65 42,66 41,66 41,67 40,67 40,68 39,68 39,69 38,69 38,70 37,71 37,72 36,72 36,73 35,74 35,75 34,76" fill="none" stroke="#ff8c00" stroke-width="3" stroke-linecap="round" stroke-linejoin="round" opacity="0.95">
    <title>3305 h:1</title>
  </polyline>
</svg>
