<?xml version="1.0" encoding="UTF-8"?>
<svg xmlns="http://www.w3.org/2000/svg" width="84" height="51" viewBox="0 0 84 51">
  <title>particle img3-m62-p2 e:1 g:1 e:1</title>
  <metadata>{&quot;entityType&quot;:&quot;particle&quot;,&quot;entityId&quot;:&quot;img3-m62-p2&quot;,&quot;token&quot;:&quot;e:1 g:1 e:1&quot;,&quot;signature&quot;:&quot;e:1 g:1 e:1&quot;,&quot;imageName&quot;:&quot;page-003.jpg&quot;,&quot;imageId&quot;:3,&quot;bounds&quot;:{&quot;x&quot;:1130,&quot;y&quot;:1238,&quot;w&quot;:84,&quot;h&quot;:51},&quot;atoms&quot;:[{&quot;id&quot;:2047,&quot;token&quot;:&quot;e:1&quot;,&quot;particle_id&quot;:&quot;img3-m62-p2&quot;,&quot;molecule_id&quot;:&quot;img3-m62&quot;,&quot;atom_order&quot;:1},{&quot;id&quot;:2049,&quot;token&quot;:&quot;g:1&quot;,&quot;particle_id&quot;:&quot;img3-m62-p2&quot;,&quot;molecule_id&quot;:&quot;img3-m62&quot;,&quot;atom_order&quot;:2},{&quot;id&quot;:2048,&quot;token&quot;:&quot;e:1&quot;,&quot;particle_id&quot;:&quot;img3-m62-p2&quot;,&quot;molecule_id&quot;:&quot;img3-m62&quot;,&quot;atom_order&quot;:3}]}</metadata>
  <rect x="0" y="0" width="84" height="51" fill="#f8f0d8"/>
  <image href="file:///C:/Users/HHHES/AppData/Roaming/com.voynichlab.datasetcreator/images/1/35a70f63-88ab-4986-b441-b78046a10087.jpg" x="-1130" y="-1238" width="2972" height="3766" opacity="0.92"/>
  <rect x="0.5" y="0.5" width="83" height="50" fill="none" stroke="#111827" stroke-width="1" opacity="0.35"/>
  <polyline points="27,32 27,33 26,33 26,34 25,34 24,34 23,34 22,34 21,34 20,34 20,33 19,33 19,32 18,32 18,31 17,31 17,30 17,29 16,29 16,28 16,27 16,26 16,25 16,24 17,24 17,23 17,22 18,22 18,21 18,20 19,20 19,19 20,19 20,18 21,18 22,18" fill="none" stroke="#f2e45c" stroke-width="3" stroke-linecap="round" stroke-linejoin="round" opacity="0.95">
    <title>2047 e:1</title>
  </polyline>
  <polyline points="21,18 22,18 23,18 24,18 25,18 26,18 27,18 28,18 29,18 30,18 31,18 32,18 33,18 34,18 35,17 36,17 37,17 38,17 39,17 40,17 41,17 42,17 43,17 44,17 45,17 46,17 47,17 48,17 49,17 50,17 51,17 52,17 53,17 53,16 54,16 55,16 56,16 57,16 58,16 59,16 60,16 61,16 62,16 63,16 64,16 65,16" fill="none" stroke="#7c3cff" stroke-width="3" stroke-linecap="round" stroke-linejoin="round" opacity="0.95">
    <title>2049 g:1</title>
  </polyline>
  <polyline points="68,31 65,32 64,33 63,33 62,33 62,34 61,34 60,34 59,34 58,34 57,34 57,35 56,35 55,35 53,34 52,34 51,33 51,32 50,32 50,31 50,30 50,29 50,28 50,27 50,26 50,25 52,23 52,22 53,22 54,21 54,20 55,20 56,19 57,19 57,18 58,18 59,18 59,17 62,16 63,16 64,16 65,16" fill="none" stroke="#f2e45c" stroke-width="3" stroke-linecap="round" stroke-linejoin="round" opacity="0.95">
    <title>2048 e:1</title>
  </polyline>
</svg>
