<?xml version="1.0" encoding="UTF-8"?>
<svg xmlns="http://www.w3.org/2000/svg" width="56" height="78" viewBox="0 0 56 78">
  <title>particle img3-m129-p1 e:1 c:1 h:2</title>
  <metadata>{&quot;entityType&quot;:&quot;particle&quot;,&quot;entityId&quot;:&quot;img3-m129-p1&quot;,&quot;token&quot;:&quot;e:1 c:1 h:2&quot;,&quot;signature&quot;:&quot;e:1 c:1 h:2&quot;,&quot;imageName&quot;:&quot;page-003.jpg&quot;,&quot;imageId&quot;:3,&quot;bounds&quot;:{&quot;x&quot;:1675,&quot;y&quot;:2057,&quot;w&quot;:56,&quot;h&quot;:78},&quot;atoms&quot;:[{&quot;id&quot;:3415,&quot;token&quot;:&quot;e:1&quot;,&quot;particle_id&quot;:&quot;img3-m129-p1&quot;,&quot;molecule_id&quot;:&quot;img3-m129&quot;,&quot;atom_order&quot;:1},{&quot;id&quot;:3441,&quot;token&quot;:&quot;c:1&quot;,&quot;particle_id&quot;:&quot;img3-m129-p1&quot;,&quot;molecule_id&quot;:&quot;img3-m129&quot;,&quot;atom_order&quot;:2},{&quot;id&quot;:3472,&quot;token&quot;:&quot;h:2&quot;,&quot;particle_id&quot;:&quot;img3-m129-p1&quot;,&quot;molecule_id&quot;:&quot;img3-m129&quot;,&quot;atom_order&quot;:3}]}</metadata>
  <rect x="0" y="0" width="56" height="78" fill="#f8f0d8"/>
  <image href="file:///C:/Users/HHHES/AppData/Roaming/com.voynichlab.datasetcreator/images/1/35a70f63-88ab-4986-b441-b78046a10087.jpg" x="-1675" y="-2057" width="2972" height="3766" opacity="0.92"/>
  <rect x="0.5" y="0.5" width="55" height="77" fill="none" stroke="#111827" stroke-width="1" opacity="0.35"/>
  <polyline points="31,59 31,60 30,60 30,61 29,61 28,61 28,62 27,62 26,62 25,62 24,62 23,62 22,62 21,62 21,61 20,61 19,61 18,61 18,60 17,60 16,60 16,59 16,58 16,57 16,56 16,55 16,54 16,53 17,53 17,52 17,51 17,50 18,50 18,49 18,48 19,48 19,47 19,46 20,46 21,46 21,45 22,45 22,44 23,44 24,44 24,43 25,43 26,43 27,43 27,42" fill="none" stroke="#f2e45c" stroke-width="3" stroke-linecap="round" stroke-linejoin="round" opacity="0.95">
    <title>3415 e:1</title>
  </polyline>
  <polyline points="33,34 34,34 35,33 36,33 37,33 37,32 38,32 38,31 38,30 39,29 40,28 40,27 40,26 40,25 40,24 40,23 40,22 40,21 40,20 39,20 39,19 38,18 37,17 37,16 36,16 35,16 34,16 33,16 32,16 31,16 30,16 29,16 28,17 27,17 26,17 26,18 25,18 25,19 25,20 24,21 24,22 24,23 24,24 24,25 24,26 24,27 25,27 25,28 25,29 26,30 26,31 27,31 27,32 28,32 28,33 29,33 29,34 30,34 31,34 32,34" fill="none" stroke="#8aff00" stroke-width="3" stroke-linecap="round" stroke-linejoin="round" opacity="0.95">
    <title>3441 c:1</title>
  </polyline>
  <polyline points="30,60 31,60 32,60 32,59 32,58 33,58 33,57 33,56 33,55 34,54 34,53 34,52 34,51 34,50 34,49 34,48 33,48 33,47 32,47 32,46 31,46 31,45 30,45 30,44 29,44 29,43 28,42 28,41 28,40 27,40 27,39 27,38 27,37 27,36 27,35 27,34 27,33 27,32 27,31" fill="none" stroke="#ff8c00" stroke-width="3" stroke-linecap="round" stroke-linejoin="round" opacity="0.95">
    <title>3472 h:2</title>
  </polyline>
</svg>
