<?xml version="1.0" encoding="UTF-8"?>
<svg xmlns="http://www.w3.org/2000/svg" width="49" height="66" viewBox="0 0 49 66">
  <title>particle img3-m148-p2 n:1</title>
  <metadata>{&quot;entityType&quot;:&quot;particle&quot;,&quot;entityId&quot;:&quot;img3-m148-p2&quot;,&quot;token&quot;:&quot;n:1&quot;,&quot;signature&quot;:&quot;n:1&quot;,&quot;imageName&quot;:&quot;page-003.jpg&quot;,&quot;imageId&quot;:3,&quot;bounds&quot;:{&quot;x&quot;:1405,&quot;y&quot;:2470,&quot;w&quot;:49,&quot;h&quot;:66},&quot;atoms&quot;:[{&quot;id&quot;:3782,&quot;token&quot;:&quot;n:1&quot;,&quot;particle_id&quot;:&quot;img3-m148-p2&quot;,&quot;molecule_id&quot;:&quot;img3-m148&quot;,&quot;atom_order&quot;:1}]}</metadata>
  <rect x="0" y="0" width="49" height="66" fill="#f8f0d8"/>
  <image href="file:///C:/Users/HHHES/AppData/Roaming/com.voynichlab.datasetcreator/images/1/35a70f63-88ab-4986-b441-b78046a10087.jpg" x="-1405" y="-2470" width="2972" height="3766" opacity="0.92"/>
  <rect x="0.5" y="0.5" width="48" height="65" fill="none" stroke="#111827" stroke-width="1" opacity="0.35"/>
  <polyline points="16,35 16,34 16,33 16,32 16,31 16,30 16,29 16,28 16,27 17,26 17,25 17,24 17,23 17,22 17,21 17,20 17,19 18,18 19,18 19,17 20,17 21,17 21,16 22,16 23,16 24,16 25,16 26,16 27,16 28,17 29,17 29,18 30,18 31,19 31,20 32,20 32,21 33,22 33,23 33,24 33,25 33,26 33,27 32,27 32,28 31,29 31,30 30,31 30,32 30,33 29,34 29,35 29,36 28,37 27,38 27,39 26,40 25,41 25,42 24,43 23,43 23,44 23,45 22,45 21,46 20,47 20,48 19,49 18,49 18,50 17,50" fill="none" stroke="#f92f59" stroke-width="3" stroke-linecap="round" stroke-linejoin="round" opacity="0.95">
    <title>3782 n:1</title>
  </polyline>
</svg>
