<?xml version="1.0" encoding="UTF-8"?>
<svg xmlns="http://www.w3.org/2000/svg" width="62" height="75" viewBox="0 0 62 75">
  <title>particle img3-m40-p2 e:1 c:1 h:2</title>
  <metadata>{&quot;entityType&quot;:&quot;particle&quot;,&quot;entityId&quot;:&quot;img3-m40-p2&quot;,&quot;token&quot;:&quot;e:1 c:1 h:2&quot;,&quot;signature&quot;:&quot;e:1 c:1 h:2&quot;,&quot;imageName&quot;:&quot;page-003.jpg&quot;,&quot;imageId&quot;:3,&quot;bounds&quot;:{&quot;x&quot;:2080,&quot;y&quot;:831,&quot;w&quot;:62,&quot;h&quot;:75},&quot;atoms&quot;:[{&quot;id&quot;:1734,&quot;token&quot;:&quot;e:1&quot;,&quot;particle_id&quot;:&quot;img3-m40-p2&quot;,&quot;molecule_id&quot;:&quot;img3-m40&quot;,&quot;atom_order&quot;:1},{&quot;id&quot;:1736,&quot;token&quot;:&quot;c:1&quot;,&quot;particle_id&quot;:&quot;img3-m40-p2&quot;,&quot;molecule_id&quot;:&quot;img3-m40&quot;,&quot;atom_order&quot;:2},{&quot;id&quot;:1735,&quot;token&quot;:&quot;h:2&quot;,&quot;particle_id&quot;:&quot;img3-m40-p2&quot;,&quot;molecule_id&quot;:&quot;img3-m40&quot;,&quot;atom_order&quot;:3}]}</metadata>
  <rect x="0" y="0" width="62" height="75" fill="#f8f0d8"/>
  <image href="file:///C:/Users/HHHES/AppData/Roaming/com.voynichlab.datasetcreator/images/1/35a70f63-88ab-4986-b441-b78046a10087.jpg" x="-2080" y="-831" width="2972" height="3766" opacity="0.92"/>
  <rect x="0.5" y="0.5" width="61" height="74" fill="none" stroke="#111827" stroke-width="1" opacity="0.35"/>
  <polyline points="28,58 27,58 26,59 25,59 24,59 23,59 22,59 22,58 21,58 20,58 20,57 19,57 19,56 18,55 18,54 17,53 17,52 16,52 16,51 16,50 17,50 17,49 17,48 17,47 18,47 18,46 19,46 19,45 20,45 20,44 21,44 21,43 22,43 22,42 23,42 23,41 24,41 24,40 25,40 26,40 26,39 27,39 28,39 28,38 29,38" fill="none" stroke="#f2e45c" stroke-width="3" stroke-linecap="round" stroke-linejoin="round" opacity="0.95">
    <title>1734 e:1</title>
  </polyline>
  <polyline points="23,22 23,21 24,20 25,20 25,18 27,18 27,17 28,17 29,17 29,16 30,16 31,16 32,16 33,16 35,16 36,16 37,16 38,16 39,16 40,16 40,17 41,17 41,18 43,18 44,18 44,20 45,21 45,22 45,23 46,23 46,24 46,25 46,27 46,28 46,29 45,29 45,30 44,30 44,31 43,32 41,34 40,34 40,35 39,35 38,35 38,36 37,36 36,36 35,36 33,36 32,36 31,36 30,36 29,35 28,35 28,34 27,34 27,32 25,32 24,31 24,30 23,30 23,29 23,28 22,28 22,27 22,25 22,24 22,23 22,22 23,22 23,21 24,21" fill="none" stroke="#8aff00" stroke-width="3" stroke-linecap="round" stroke-linejoin="round" opacity="0.95">
    <title>1736 c:1</title>
  </polyline>
  <polyline points="26,19 25,19 25,20 24,20 24,21 24,22 23,23 23,24 23,25 23,26 23,27 23,28 23,29 24,29 24,30 24,31 25,32 25,33 26,33 26,34 27,34 27,35 27,36 28,36 28,37 29,37 29,38 30,38 30,39 31,39 31,40 32,41 32,42 33,42 33,43 34,44 34,45 35,46 35,47 35,48 35,49 35,50 35,51 35,52 35,53 34,53 34,54 33,54 33,55 32,55 32,56 31,56 31,57 30,57 29,57 29,58 28,58 27,58 27,59 26,59 25,59 24,59" fill="none" stroke="#ff8c00" stroke-width="3" stroke-linecap="round" stroke-linejoin="round" opacity="0.95">
    <title>1735 h:2</title>
  </polyline>
</svg>
