<?xml version="1.0" encoding="UTF-8"?>
<svg xmlns="http://www.w3.org/2000/svg" width="56" height="72" viewBox="0 0 56 72">
  <title>particle img3-m51-p1 e:1 c:1 h:2</title>
  <metadata>{&quot;entityType&quot;:&quot;particle&quot;,&quot;entityId&quot;:&quot;img3-m51-p1&quot;,&quot;token&quot;:&quot;e:1 c:1 h:2&quot;,&quot;signature&quot;:&quot;e:1 c:1 h:2&quot;,&quot;imageName&quot;:&quot;page-003.jpg&quot;,&quot;imageId&quot;:3,&quot;bounds&quot;:{&quot;x&quot;:1878,&quot;y&quot;:1135,&quot;w&quot;:56,&quot;h&quot;:72},&quot;atoms&quot;:[{&quot;id&quot;:1940,&quot;token&quot;:&quot;e:1&quot;,&quot;particle_id&quot;:&quot;img3-m51-p1&quot;,&quot;molecule_id&quot;:&quot;img3-m51&quot;,&quot;atom_order&quot;:1},{&quot;id&quot;:1917,&quot;token&quot;:&quot;c:1&quot;,&quot;particle_id&quot;:&quot;img3-m51-p1&quot;,&quot;molecule_id&quot;:&quot;img3-m51&quot;,&quot;atom_order&quot;:2},{&quot;id&quot;:1950,&quot;token&quot;:&quot;h:2&quot;,&quot;particle_id&quot;:&quot;img3-m51-p1&quot;,&quot;molecule_id&quot;:&quot;img3-m51&quot;,&quot;atom_order&quot;:3}]}</metadata>
  <rect x="0" y="0" width="56" height="72" fill="#f8f0d8"/>
  <image href="file:///C:/Users/HHHES/AppData/Roaming/com.voynichlab.datasetcreator/images/1/35a70f63-88ab-4986-b441-b78046a10087.jpg" x="-1878" y="-1135" width="2972" height="3766" opacity="0.92"/>
  <rect x="0.5" y="0.5" width="55" height="71" fill="none" stroke="#111827" stroke-width="1" opacity="0.35"/>
  <polyline points="31,53 31,54 30,54 30,55 29,55 28,55 28,56 27,56 26,56 25,56 24,56 23,56 22,56 21,56 21,55 20,55 19,55 18,55 18,54 17,54 16,54 16,53 16,52 16,51 16,50 16,49 16,48 16,47 17,47 17,46 17,45 17,44 18,44 18,43 18,42 19,42 19,41 19,40 20,40 21,40 21,39 22,39 22,38 23,38 24,38 24,37 25,37 26,37 27,37 27,36" fill="none" stroke="#f2e45c" stroke-width="3" stroke-linecap="round" stroke-linejoin="round" opacity="0.95">
    <title>1940 e:1</title>
  </polyline>
  <polyline points="22,21 22,22 21,22 21,22 21,23 20,23 20,24 20,25 20,26 20,26 20,27 20,28 20,29 21,29 21,30 22,30 22,31 23,32 24,32 25,32 26,32 26,33 27,33 28,33 29,33 30,33 31,33 32,33 33,33 34,33 34,32 35,32 36,32 36,31 36,30 37,30 37,29 38,29 38,28 38,27 39,27 39,26 39,26 40,26 40,25 40,24 40,23 40,22 40,22 40,21 39,21 39,20 39,19 38,19 38,19 37,19 37,18 36,18 36,17 35,17 34,17 34,16 33,16 32,16 31,16 30,16 29,16 28,16 27,16 26,17 25,17 25,18 24,18 24,19 23,19 22,19 22,19 21,19 21,20 21,21" fill="none" stroke="#8aff00" stroke-width="3" stroke-linecap="round" stroke-linejoin="round" opacity="0.95">
    <title>1917 c:1</title>
  </polyline>
  <polyline points="30,55 30,54 31,54 31,53 32,53 32,52 33,52 33,51 34,51 34,50 34,49 34,48 35,48 35,47 35,46 35,45 35,44 34,44 34,43 34,42 33,42 33,41 32,41 32,40 31,40 31,39 30,39 30,38 29,38 29,37 28,37 28,36 27,36 26,36 26,35 25,35 25,34 24,34 24,33 23,33 23,32 22,32 22,31 21,31 21,30 20,30 20,29 19,28 19,27 19,26 19,25 19,24 19,23 19,22 19,21 20,21 20,20 21,20 21,19 22,19 23,18 24,18 25,18 26,17 27,17 28,17 29,17" fill="none" stroke="#ff8c00" stroke-width="3" stroke-linecap="round" stroke-linejoin="round" opacity="0.95">
    <title>1950 h:2</title>
  </polyline>
</svg>
