<?xml version="1.0" encoding="UTF-8"?>
<svg xmlns="http://www.w3.org/2000/svg" width="43" height="59" viewBox="0 0 43 59">
  <title>particle img3-m125-p1 n:1</title>
  <metadata>{&quot;entityType&quot;:&quot;particle&quot;,&quot;entityId&quot;:&quot;img3-m125-p1&quot;,&quot;token&quot;:&quot;n:1&quot;,&quot;signature&quot;:&quot;n:1&quot;,&quot;imageName&quot;:&quot;page-003.jpg&quot;,&quot;imageId&quot;:3,&quot;bounds&quot;:{&quot;x&quot;:1286,&quot;y&quot;:1960,&quot;w&quot;:43,&quot;h&quot;:59},&quot;atoms&quot;:[{&quot;id&quot;:3688,&quot;token&quot;:&quot;n:1&quot;,&quot;particle_id&quot;:&quot;img3-m125-p1&quot;,&quot;molecule_id&quot;:&quot;img3-m125&quot;,&quot;atom_order&quot;:1}]}</metadata>
  <rect x="0" y="0" width="43" height="59" fill="#f8f0d8"/>
  <image href="file:///C:/Users/HHHES/AppData/Roaming/com.voynichlab.datasetcreator/images/1/35a70f63-88ab-4986-b441-b78046a10087.jpg" x="-1286" y="-1960" width="2972" height="3766" opacity="0.92"/>
  <rect x="0.5" y="0.5" width="42" height="58" fill="none" stroke="#111827" stroke-width="1" opacity="0.35"/>
  <polyline points="19,30 19,29 18,29 18,28 18,27 18,26 18,25 17,25 17,24 17,23 17,22 17,21 18,21 18,20 19,19 20,19 20,18 21,18 22,17 23,17 24,16 25,16 26,17 26,18 27,19 27,20 27,21 27,22 27,23 27,24 27,25 26,26 26,27 25,28 25,29 25,30 25,31 24,32 24,33 23,33 23,34 23,35 22,36 21,36 21,37 20,38 19,38 19,39 18,40 18,41 17,42 17,43 16,43" fill="none" stroke="#f92f59" stroke-width="3" stroke-linecap="round" stroke-linejoin="round" opacity="0.95">
    <title>3688 n:1</title>
  </polyline>
</svg>
