<?xml version="1.0" encoding="UTF-8"?>
<svg xmlns="http://www.w3.org/2000/svg" width="78" height="107" viewBox="0 0 78 107">
  <title>particle img3-m101-p1 a:1 b:1 c:1 a:1</title>
  <metadata>{&quot;entityType&quot;:&quot;particle&quot;,&quot;entityId&quot;:&quot;img3-m101-p1&quot;,&quot;token&quot;:&quot;a:1 b:1 c:1 a:1&quot;,&quot;signature&quot;:&quot;a:1 b:1 c:1 a:1&quot;,&quot;imageName&quot;:&quot;page-003.jpg&quot;,&quot;imageId&quot;:3,&quot;bounds&quot;:{&quot;x&quot;:2028,&quot;y&quot;:1794,&quot;w&quot;:78,&quot;h&quot;:107},&quot;atoms&quot;:[{&quot;id&quot;:3224,&quot;token&quot;:&quot;a:1&quot;,&quot;particle_id&quot;:&quot;img3-m101-p1&quot;,&quot;molecule_id&quot;:&quot;img3-m101&quot;,&quot;atom_order&quot;:1},{&quot;id&quot;:3214,&quot;token&quot;:&quot;b:1&quot;,&quot;particle_id&quot;:&quot;img3-m101-p1&quot;,&quot;molecule_id&quot;:&quot;img3-m101&quot;,&quot;atom_order&quot;:2},{&quot;id&quot;:3178,&quot;token&quot;:&quot;c:1&quot;,&quot;particle_id&quot;:&quot;img3-m101-p1&quot;,&quot;molecule_id&quot;:&quot;img3-m101&quot;,&quot;atom_order&quot;:3},{&quot;id&quot;:3225,&quot;token&quot;:&quot;a:1&quot;,&quot;particle_id&quot;:&quot;img3-m101-p1&quot;,&quot;molecule_id&quot;:&quot;img3-m101&quot;,&quot;atom_order&quot;:4}]}</metadata>
  <rect x="0" y="0" width="78" height="107" fill="#f8f0d8"/>
  <image href="file:///C:/Users/HHHES/AppData/Roaming/com.voynichlab.datasetcreator/images/1/35a70f63-88ab-4986-b441-b78046a10087.jpg" x="-2028" y="-1794" width="2972" height="3766" opacity="0.92"/>
  <rect x="0.5" y="0.5" width="77" height="106" fill="none" stroke="#111827" stroke-width="1" opacity="0.35"/>
  <polyline points="19,34 19,35 19,36 19,37 19,38 19,39 19,40 19,41 19,42 19,43 19,44 18,45 18,46 18,47 18,48 18,49 18,50 18,51 18,52 18,53 17,54 17,55 17,56 17,57 17,58 17,59 17,60 17,61 17,62 17,63 16,64 16,65 16,66 16,67 16,68 16,69 16,70 16,71 16,72 16,73 16,74 16,75 16,76 16,77 16,78 16,79 16,80 16,81 16,83 16,84 16,85 16,86 16,87 16,88 16,89 16,90 16,91 16,90 16,89 16,88 16,87 16,86" fill="none" stroke="#00f0b5" stroke-width="3" stroke-linecap="round" stroke-linejoin="round" opacity="0.95">
    <title>3224 a:1</title>
  </polyline>
  <polyline points="19,34 19,35 20,35 20,36 21,36 22,36 22,37 23,37 24,37 25,38 26,38 27,38 28,39 29,39 30,39 31,39 32,39 33,39 34,39 35,40 36,40 37,40 38,40 39,40 40,40 41,40 42,40 43,40 44,40 45,39 46,39 47,39 48,39 49,38 50,38 51,38 52,37 53,37 54,37 54,36 55,36 55,35 56,35" fill="none" stroke="#2f7df6" stroke-width="3" stroke-linecap="round" stroke-linejoin="round" opacity="0.95">
    <title>3214 b:1</title>
  </polyline>
  <polyline points="59,34 60,34 61,34 61,33 61,32 62,32 62,31 62,30 62,29 62,28 62,27 62,26 62,25 62,24 62,23 62,22 62,21 61,21 61,20 61,19 60,19 60,18 59,18 59,17 58,17 57,17 56,16 55,16 54,16 53,16 52,16 51,16 50,16 49,17 48,17 47,17 47,18 46,18 45,18 44,19 43,19 43,20 42,20 42,21 41,21 41,22 40,22 40,23 39,23 39,24 39,25 39,26 39,27 39,28 39,29 39,30 39,31 39,32 39,33 39,34 40,34 40,35 41,35 42,35 42,36 43,36 44,37 45,37 46,37 47,37 48,37 49,37 50,37 51,37 52,37 52,36 53,36 54,36 55,36 55,35 56,35 57,35 58,34 59,34" fill="none" stroke="#8aff00" stroke-width="3" stroke-linecap="round" stroke-linejoin="round" opacity="0.95">
    <title>3178 c:1</title>
  </polyline>
  <polyline points="39,24 39,25 39,26 39,27 38,27 38,28 38,29 38,30 38,31 38,32 38,33 38,34 38,35 38,36 38,37 38,38 38,39 37,40 37,41 37,42 37,43 37,44 37,45 37,46 37,47 37,48 37,49 37,51 36,52 36,53 36,54 36,55 36,56 36,57 36,58 36,60 36,61 36,62 35,63 35,64 35,65 35,66 35,67 35,69 34,70 34,71 34,72 34,73 34,74 34,75 34,76 34,77 34,78 34,80 34,81 34,82 33,84 33,85 33,86 33,87 33,88 33,89" fill="none" stroke="#00f0b5" stroke-width="3" stroke-linecap="round" stroke-linejoin="round" opacity="0.95">
    <title>3225 a:1</title>
  </polyline>
</svg>
