<?xml version="1.0" encoding="UTF-8"?>
<svg xmlns="http://www.w3.org/2000/svg" width="81" height="100" viewBox="0 0 81 100">
  <title>particle img3-m170-p2 a:1 b:1 c:1 a:1</title>
  <metadata>{&quot;entityType&quot;:&quot;particle&quot;,&quot;entityId&quot;:&quot;img3-m170-p2&quot;,&quot;token&quot;:&quot;a:1 b:1 c:1 a:1&quot;,&quot;signature&quot;:&quot;a:1 b:1 c:1 a:1&quot;,&quot;imageName&quot;:&quot;page-003.jpg&quot;,&quot;imageId&quot;:3,&quot;bounds&quot;:{&quot;x&quot;:726,&quot;y&quot;:2633,&quot;w&quot;:81,&quot;h&quot;:100},&quot;atoms&quot;:[{&quot;id&quot;:3944,&quot;token&quot;:&quot;a:1&quot;,&quot;particle_id&quot;:&quot;img3-m170-p2&quot;,&quot;molecule_id&quot;:&quot;img3-m170&quot;,&quot;atom_order&quot;:1},{&quot;id&quot;:3953,&quot;token&quot;:&quot;b:1&quot;,&quot;particle_id&quot;:&quot;img3-m170-p2&quot;,&quot;molecule_id&quot;:&quot;img3-m170&quot;,&quot;atom_order&quot;:2},{&quot;id&quot;:3930,&quot;token&quot;:&quot;c:1&quot;,&quot;particle_id&quot;:&quot;img3-m170-p2&quot;,&quot;molecule_id&quot;:&quot;img3-m170&quot;,&quot;atom_order&quot;:3},{&quot;id&quot;:3945,&quot;token&quot;:&quot;a:1&quot;,&quot;particle_id&quot;:&quot;img3-m170-p2&quot;,&quot;molecule_id&quot;:&quot;img3-m170&quot;,&quot;atom_order&quot;:4}]}</metadata>
  <rect x="0" y="0" width="81" height="100" fill="#f8f0d8"/>
  <image href="file:///C:/Users/HHHES/AppData/Roaming/com.voynichlab.datasetcreator/images/1/35a70f63-88ab-4986-b441-b78046a10087.jpg" x="-726" y="-2633" width="2972" height="3766" opacity="0.92"/>
  <rect x="0.5" y="0.5" width="80" height="99" fill="none" stroke="#111827" stroke-width="1" opacity="0.35"/>
  <polyline points="16,83 16,82 16,81 16,80 16,79 17,78 17,77 17,76 17,75 17,74 17,73 17,72 17,71 16,70 16,69 16,68 16,67 16,66 16,65 16,64 16,63 16,62 16,61 16,60 16,59 16,58 17,58 17,57 17,56 17,55 17,54 17,53 17,52 17,51 17,50 17,49 17,48 17,47 18,47 18,46 18,45 18,44 18,43 18,42 18,41 18,40 18,39 18,38 19,37 19,36 19,35 19,34 19,33 19,32 19,31 19,30 19,29 19,28 20,28 20,27 20,26 20,25 20,24 21,23 21,22 21,21 21,22" fill="none" stroke="#00f0b5" stroke-width="3" stroke-linecap="round" stroke-linejoin="round" opacity="0.95">
    <title>3944 a:1</title>
  </polyline>
  <polyline points="20,26 20,27 21,28 21,29 21,30 22,30 22,31 22,32 23,32 23,33 24,33 24,34 25,34 26,34 26,35 27,35 28,35 29,35 30,35 31,36 32,36 33,36 34,36 35,36 36,36 37,36 38,36 39,36 40,36 41,36 42,36 42,35 43,35 44,35 45,35 46,35 46,34 47,34" fill="none" stroke="#2f7df6" stroke-width="3" stroke-linecap="round" stroke-linejoin="round" opacity="0.95">
    <title>3953 b:1</title>
  </polyline>
  <polyline points="38,23 38,24 38,25 38,26 38,27 38,28 38,29 38,30 39,31 39,32 40,32 40,33 41,33 42,33 42,34 43,34 44,34 45,34 46,34 47,34 48,34 49,34 50,34 51,34 52,34 53,34 54,34 54,33 55,33 56,33 57,33 57,32 58,32 59,32 60,31 61,31 61,30 62,30 62,29 63,29 64,28 64,27 65,27 65,26 65,25 65,24 65,23 65,22 65,21 65,20 64,20 64,19 64,18 63,18 63,17 62,17 61,17 60,17 60,16 59,16 58,16 57,16 56,16 55,16 54,16 53,16 52,16 51,16 50,16 49,16 48,17 47,17 46,17 45,17 44,17 43,18 42,18 41,18 40,19 40,20 39,20 39,21 38,21 38,22 38,23 37,23 37,24 37,25 37,26" fill="none" stroke="#8aff00" stroke-width="3" stroke-linecap="round" stroke-linejoin="round" opacity="0.95">
    <title>3930 c:1</title>
  </polyline>
  <polyline points="37,24 37,25 37,26 36,27 36,28 36,29 36,30 36,31 35,31 35,32 35,33 35,34 34,35 34,36 34,37 34,38 34,39 34,40 34,41 34,42 34,43 34,44 33,45 33,46 33,47 33,48 33,49 33,50 33,51 33,52 33,53 33,54 33,55 33,56 32,57 32,58 32,59 32,60 32,61 32,62 32,63 32,64 32,65 32,66 32,67 32,68 31,68 31,69 31,70 31,71 31,72 31,73 31,74 31,75 31,76 31,77 31,78 30,78 30,79 30,80 30,81 30,82 30,83 30,84" fill="none" stroke="#00f0b5" stroke-width="3" stroke-linecap="round" stroke-linejoin="round" opacity="0.95">
    <title>3945 a:1</title>
  </polyline>
</svg>
