<?xml version="1.0" encoding="UTF-8"?>
<svg xmlns="http://www.w3.org/2000/svg" width="57" height="69" viewBox="0 0 57 69">
  <title>particle img3-m131-p1 n:1</title>
  <metadata>{&quot;entityType&quot;:&quot;particle&quot;,&quot;entityId&quot;:&quot;img3-m131-p1&quot;,&quot;token&quot;:&quot;n:1&quot;,&quot;signature&quot;:&quot;n:1&quot;,&quot;imageName&quot;:&quot;page-003.jpg&quot;,&quot;imageId&quot;:3,&quot;bounds&quot;:{&quot;x&quot;:741,&quot;y&quot;:2021,&quot;w&quot;:57,&quot;h&quot;:69},&quot;atoms&quot;:[{&quot;id&quot;:3692,&quot;token&quot;:&quot;n:1&quot;,&quot;particle_id&quot;:&quot;img3-m131-p1&quot;,&quot;molecule_id&quot;:&quot;img3-m131&quot;,&quot;atom_order&quot;:1}]}</metadata>
  <rect x="0" y="0" width="57" height="69" fill="#f8f0d8"/>
  <image href="file:///C:/Users/HHHES/AppData/Roaming/com.voynichlab.datasetcreator/images/1/35a70f63-88ab-4986-b441-b78046a10087.jpg" x="-741" y="-2021" width="2972" height="3766" opacity="0.92"/>
  <rect x="0.5" y="0.5" width="56" height="68" fill="none" stroke="#111827" stroke-width="1" opacity="0.35"/>
  <polyline points="25,37 25,36 24,36 24,35 23,34 23,33 22,32 22,31 22,30 21,29 21,28 21,27 20,26 20,25 20,24 21,23 22,22 22,21 23,20 24,19 25,18 26,18 27,17 28,17 29,16 31,16 32,16 34,16 35,16 36,16 37,16 39,17 39,18 41,19 41,20 41,21 41,22 41,23 41,25 41,26 40,27 40,28 39,29 38,29 37,31 36,32 35,34 34,34 34,35 33,35 33,36 32,37 31,39 30,40 29,41 29,42 28,42 28,43 27,43 27,44 26,45 25,46 25,47 24,48 23,49 22,50 20,51 19,52 18,52 17,53 16,53" fill="none" stroke="#f92f59" stroke-width="3" stroke-linecap="round" stroke-linejoin="round" opacity="0.95">
    <title>3692 n:1</title>
  </polyline>
</svg>
