<?xml version="1.0" encoding="UTF-8"?>
<svg xmlns="http://www.w3.org/2000/svg" width="64" height="78" viewBox="0 0 64 78">
  <title>particle img3-m117-p3 e:1 c:1 h:2</title>
  <metadata>{&quot;entityType&quot;:&quot;particle&quot;,&quot;entityId&quot;:&quot;img3-m117-p3&quot;,&quot;token&quot;:&quot;e:1 c:1 h:2&quot;,&quot;signature&quot;:&quot;e:1 c:1 h:2&quot;,&quot;imageName&quot;:&quot;page-003.jpg&quot;,&quot;imageId&quot;:3,&quot;bounds&quot;:{&quot;x&quot;:1754,&quot;y&quot;:1891,&quot;w&quot;:64,&quot;h&quot;:78},&quot;atoms&quot;:[{&quot;id&quot;:3245,&quot;token&quot;:&quot;e:1&quot;,&quot;particle_id&quot;:&quot;img3-m117-p3&quot;,&quot;molecule_id&quot;:&quot;img3-m117&quot;,&quot;atom_order&quot;:1},{&quot;id&quot;:3271,&quot;token&quot;:&quot;c:1&quot;,&quot;particle_id&quot;:&quot;img3-m117-p3&quot;,&quot;molecule_id&quot;:&quot;img3-m117&quot;,&quot;atom_order&quot;:2},{&quot;id&quot;:3285,&quot;token&quot;:&quot;h:2&quot;,&quot;particle_id&quot;:&quot;img3-m117-p3&quot;,&quot;molecule_id&quot;:&quot;img3-m117&quot;,&quot;atom_order&quot;:3}]}</metadata>
  <rect x="0" y="0" width="64" height="78" fill="#f8f0d8"/>
  <image href="file:///C:/Users/HHHES/AppData/Roaming/com.voynichlab.datasetcreator/images/1/35a70f63-88ab-4986-b441-b78046a10087.jpg" x="-1754" y="-1891" width="2972" height="3766" opacity="0.92"/>
  <rect x="0.5" y="0.5" width="63" height="77" fill="none" stroke="#111827" stroke-width="1" opacity="0.35"/>
  <polyline points="31,59 31,60 30,60 30,61 29,61 28,61 28,62 27,62 26,62 25,62 24,62 23,62 22,62 21,62 21,61 20,61 19,61 18,61 18,60 17,60 16,60 16,59 16,58 16,57 16,56 16,55 16,54 16,53 17,53 17,52 17,51 17,50 18,50 18,49 18,48 19,48 19,47 19,46 20,46 21,46 21,45 22,45 22,44 23,44 24,44 24,43 25,43 26,43 27,43 27,42" fill="none" stroke="#f2e45c" stroke-width="3" stroke-linecap="round" stroke-linejoin="round" opacity="0.95">
    <title>3245 e:1</title>
  </polyline>
  <polyline points="39,35 40,35 41,35 42,35 42,34 43,34 44,34 44,33 45,33 45,32 46,32 46,31 47,31 47,30 47,29 47,28 48,28 48,27 48,26 47,26 47,25 47,24 46,23 46,22 45,22 45,21 45,20 44,20 44,19 44,18 43,18 42,18 42,17 41,17 40,17 39,17 38,17 37,17 36,16 35,16 34,16 33,16 32,16 32,17 31,17 30,17 29,18 28,19 28,20 27,20 27,21 27,22 26,22 26,23 26,24 26,25 26,26 26,27 26,28 27,28 27,29 28,30 28,31 29,31 29,32 30,32 30,33 31,33 32,33 32,34 33,34 34,34 34,35 35,35 36,35 37,35 38,35 39,35 40,35 41,35 42,35" fill="none" stroke="#8aff00" stroke-width="3" stroke-linecap="round" stroke-linejoin="round" opacity="0.95">
    <title>3271 c:1</title>
  </polyline>
  <polyline points="30,61 31,60 31,59 32,59 32,58 33,58 33,57 33,56 33,55 33,54 33,53 33,52 33,51 33,50 33,49 33,48 33,47 32,47 32,46 32,45 31,44 31,43 30,43 30,42 30,41 29,41 29,40 29,39 28,39 28,38 28,37 27,37 27,36 27,35 27,34 26,34 26,33 26,32 26,31 26,30 26,29 26,28 26,27 26,26 26,25 26,24 27,24 27,23 27,22 28,21 29,20 30,20 30,19 31,19 32,19 32,18" fill="none" stroke="#ff8c00" stroke-width="3" stroke-linecap="round" stroke-linejoin="round" opacity="0.95">
    <title>3285 h:2</title>
  </polyline>
</svg>
