<?xml version="1.0" encoding="UTF-8"?>
<svg xmlns="http://www.w3.org/2000/svg" width="398" height="214" viewBox="0 0 398 214">
  <title>particle img3-m147-p1 e:1 a:1 e:1 b:1 c:1 a:1 b:1 d:1 g:1 e:1</title>
  <metadata>{&quot;entityType&quot;:&quot;particle&quot;,&quot;entityId&quot;:&quot;img3-m147-p1&quot;,&quot;token&quot;:&quot;e:1 a:1 e:1 b:1 c:1 a:1 b:1 d:1 g:1 e:1&quot;,&quot;signature&quot;:&quot;e:1 a:1 e:1 b:1 c:1 a:1 b:1 d:1 g:1 e:1&quot;,&quot;imageName&quot;:&quot;page-003.jpg&quot;,&quot;imageId&quot;:3,&quot;bounds&quot;:{&quot;x&quot;:518,&quot;y&quot;:2334,&quot;w&quot;:398,&quot;h&quot;:214},&quot;atoms&quot;:[{&quot;id&quot;:3710,&quot;token&quot;:&quot;e:1&quot;,&quot;particle_id&quot;:&quot;img3-m147-p1&quot;,&quot;molecule_id&quot;:&quot;img3-m147&quot;,&quot;atom_order&quot;:1},{&quot;id&quot;:3757,&quot;token&quot;:&quot;a:1&quot;,&quot;particle_id&quot;:&quot;img3-m147-p1&quot;,&quot;molecule_id&quot;:&quot;img3-m147&quot;,&quot;atom_order&quot;:2},{&quot;id&quot;:3712,&quot;token&quot;:&quot;e:1&quot;,&quot;particle_id&quot;:&quot;img3-m147-p1&quot;,&quot;molecule_id&quot;:&quot;img3-m147&quot;,&quot;atom_order&quot;:3},{&quot;id&quot;:5518,&quot;token&quot;:&quot;b:1&quot;,&quot;particle_id&quot;:&quot;img3-m147-p1&quot;,&quot;molecule_id&quot;:&quot;img3-m147&quot;,&quot;atom_order&quot;:4},{&quot;id&quot;:3766,&quot;token&quot;:&quot;c:1&quot;,&quot;particle_id&quot;:&quot;img3-m147-p1&quot;,&quot;molecule_id&quot;:&quot;img3-m147&quot;,&quot;atom_order&quot;:5},{&quot;id&quot;:3758,&quot;token&quot;:&quot;a:1&quot;,&quot;particle_id&quot;:&quot;img3-m147-p1&quot;,&quot;molecule_id&quot;:&quot;img3-m147&quot;,&quot;atom_order&quot;:6},{&quot;id&quot;:5517,&quot;token&quot;:&quot;b:1&quot;,&quot;particle_id&quot;:&quot;img3-m147-p1&quot;,&quot;molecule_id&quot;:&quot;img3-m147&quot;,&quot;atom_order&quot;:7},{&quot;id&quot;:3779,&quot;token&quot;:&quot;d:1&quot;,&quot;particle_id&quot;:&quot;img3-m147-p1&quot;,&quot;molecule_id&quot;:&quot;img3-m147&quot;,&quot;atom_order&quot;:8},{&quot;id&quot;:3749,&quot;token&quot;:&quot;g:1&quot;,&quot;particle_id&quot;:&quot;img3-m147-p1&quot;,&quot;molecule_id&quot;:&quot;img3-m147&quot;,&quot;atom_order&quot;:9},{&quot;id&quot;:3711,&quot;token&quot;:&quot;e:1&quot;,&quot;particle_id&quot;:&quot;img3-m147-p1&quot;,&quot;molecule_id&quot;:&quot;img3-m147&quot;,&quot;atom_order&quot;:10}]}</metadata>
  <rect x="0" y="0" width="398" height="214" fill="#f8f0d8"/>
  <image href="file:///C:/Users/HHHES/AppData/Roaming/com.voynichlab.datasetcreator/images/1/35a70f63-88ab-4986-b441-b78046a10087.jpg" x="-518" y="-2334" width="2972" height="3766" opacity="0.92"/>
  <rect x="0.5" y="0.5" width="397" height="213" fill="none" stroke="#111827" stroke-width="1" opacity="0.35"/>
  <polyline points="47,193 47,194 46,194 46,195 45,195 44,195 44,196 43,196 42,196 41,196 40,196 39,196 38,196 37,196 37,195 36,195 35,195 34,195 34,194 33,194 32,194 32,193 32,192 32,191 32,190 32,189 32,188 32,187 33,187 33,186 33,185 33,184 34,184 34,183 34,182 35,182 35,181 35,180 36,180 37,180 37,179 38,179 38,178 39,178 40,178 40,177 41,177 42,177 43,177 43,176" fill="none" stroke="#f2e45c" stroke-width="3" stroke-linecap="round" stroke-linejoin="round" opacity="0.95">
    <title>3710 e:1</title>
  </polyline>
  <polyline points="58,195 58,194 58,193 58,192 58,191 58,190 58,189 58,188 58,187 58,186 59,186 59,185 59,184 59,183 59,182 60,181 60,180 60,179 60,178 60,177 60,176 60,175 60,174 60,173 60,172 60,171 60,170 60,169 60,168 60,167 60,166 60,165 60,164 60,163 60,162 61,162 61,161 61,160 61,159 61,158 61,157 61,156 61,155 61,154 61,153 61,152 61,151 61,150 61,149 61,148 61,147 61,146 61,145 61,144 61,143 61,142 61,141 61,140 61,139 61,138 61,137 61,136 62,135 62,134 62,133 62,132 62,131 62,130 62,129 62,128 62,127 63,127 63,126 63,125 63,124 63,123 63,122 63,121 63,120 63,119 63,118 63,117 63,116 63,115 63,114 63,113 63,112 63,111 63,110 63,109 63,108 63,107 63,106 63,105 63,104 63,103 63,102 63,101 63,100 63,99 63,98 63,97 63,96 63,95 63,94 63,93 63,92 63,91 62,90 62,89 62,88 62,87 62,86 62,85 62,84 62,83 62,82 62,81 62,80 62,79 62,78 62,77 62,76 62,75 62,74 62,73 62,72 62,71 62,70 62,69 62,68 62,67 62,66 61,66 61,65 61,64 61,63 61,62 61,61 61,60 61,59 61,58 61,57 61,56 61,55 61,54 61,53 61,52 61,51 61,50 61,49 61,48 61,47 61,46 61,45 61,44 61,43 61,42 61,41 60,41 60,40 60,39 60,38 60,37 60,36 60,35 60,34 60,33 60,32 60,31 60,30 59,29 59,28 59,27 59,26 59,25 58,25 58,24 58,23 58,22 58,21 58,20 58,19 57,19 57,18 56,18 56,17 55,17 55,16 54,16" fill="none" stroke="#00f0b5" stroke-width="3" stroke-linecap="round" stroke-linejoin="round" opacity="0.95">
    <title>3757 a:1</title>
  </polyline>
  <polyline points="58,33 58,34 57,34 57,35 56,35 55,35 55,36 54,36 53,36 52,36 51,36 50,36 49,36 48,36 48,35 47,35 46,35 45,35 45,34 44,34 43,34 43,33 43,32 43,31 43,30 43,29 43,28 43,27 44,27 44,26 44,25 44,24 45,24 45,23 45,22 46,22 46,21 46,20 47,20 48,20 48,19 49,19 49,18 50,18 51,18 51,17 52,17 53,17 54,17 54,16" fill="none" stroke="#f2e45c" stroke-width="3" stroke-linecap="round" stroke-linejoin="round" opacity="0.95">
    <title>3712 e:1</title>
  </polyline>
  <polyline points="58,63 59,63 60,64 61,64 62,64 63,64 64,64 65,64 66,64 67,65 68,65 69,65 71,65 72,65 74,65 75,65 76,65 77,65 78,65 79,66 80,66 81,66 83,66 84,66 85,66 87,66 88,66 89,66 90,66 91,66 92,66 93,67 94,67 95,67 96,67 97,67 99,67 100,67 100,68 101,68 102,68 103,68 104,68 105,68 105,69 106,69 107,69 108,69 109,69 110,69 111,70 112,70 113,70 114,70 115,70 117,70 118,71 119,71 120,71 121,71 122,71 123,71 124,72 125,72 126,72 127,72 128,72 130,72 131,73 132,73 133,73 134,73 135,74 136,74 137,74 138,74 139,74 141,75 142,75 144,75 145,76 146,76 147,76 148,76 149,77 150,77 151,77 153,77 154,78 155,78 158,78 159,78 161,78 161,79 162,79 164,79 165,79 167,79 168,79 169,79 171,80 172,80 173,80 174,80 175,80 176,80 178,80 179,81 181,81 182,81 183,81 185,81 186,81 187,81 188,81 189,81 190,82 191,82 192,82 194,82 195,82 197,83 198,83 199,83 201,83 202,83 203,83 204,84 206,84 207,84 208,84 209,84 210,85 211,85 212,85 213,85 214,85 215,85 217,86 218,86 220,86 221,87 222,88 224,88 226,88 228,88 229,89 230,89 231,89 232,89 234,89 236,90 238,90 240,91 242,91 243,91 245,91 246,92 247,92 249,92 250,92 251,92 252,93 253,93 255,94 256,94 257,94 259,95 261,95 263,95 265,95 266,95 267,95 268,96 269,96 271,96 273,96 274,96 277,97 280,97 283,97 285,97 287,97 288,97 289,97 291,97 293,97 295,97 296,97 298,97 299,97 300,97 302,97 303,97 304,97 305,97 306,97 307,97 308,97 309,97 310,97 311,97 312,97 313,96 314,96 315,96 316,96 316,95 317,95 318,95 319,95 320,94 321,94 322,94 322,93 323,93 324,93 325,92 326,92 327,91 328,91 328,90 329,90 330,90 330,89 331,89 332,89 333,89 333,88 334,88 335,88 335,87 336,87 336,86 337,86 337,85 338,85 339,85 339,84" fill="none" stroke="#2f7df6" stroke-width="3" stroke-linecap="round" stroke-linejoin="round" opacity="0.95">
    <title>5518 b:1</title>
  </polyline>
  <polyline points="345,41 345,40 346,39 346,38 347,38 347,37 348,37 348,36 349,36 350,36 350,35 351,35 351,34 352,34 353,34 353,33 354,33 355,33 356,33 356,32 357,32 358,32 359,32 360,32 361,32 362,32 363,32 364,32 365,32 366,32 367,32 368,32 369,32 370,32 371,32 372,32 373,32 374,32 374,33 375,33 376,33 376,34 377,34 377,35 378,35 378,36 379,36 379,37 380,37 380,38 381,38 381,39 381,40 382,40 382,41 382,42 382,43 382,44 382,45 382,46 382,47 381,47 381,48 381,49 381,50 380,50 380,51 380,52 379,52 379,53 378,53 378,54 377,55 377,56 376,56 376,57 375,57 375,58 374,58 373,59 372,59 371,60 370,60 370,61 369,61 368,61 368,62 367,62 366,62 366,63 365,63 364,63 363,63 362,63 362,64 361,64 360,64 359,64 358,64 358,65 357,65 356,65 355,65 354,65 353,65 352,65 352,64 351,64 350,64 349,64 348,64 347,63 346,62 346,61 345,61 345,60 345,59 345,58 344,57 344,56 344,55 344,54 344,53 344,52 344,51 345,51 345,50 345,49 345,48 345,47 345,46 345,45 345,44 345,43 345,42 345,41 345,40" fill="none" stroke="#8aff00" stroke-width="3" stroke-linecap="round" stroke-linejoin="round" opacity="0.95">
    <title>3766 c:1</title>
  </polyline>
  <polyline points="345,40 345,41 345,42 344,42 344,43 344,44 344,45 344,46 344,47 344,48 343,48 343,49 343,50 343,51 343,52 343,53 343,54 343,55 343,56 343,57 343,58 343,59 343,60 343,61 343,62 342,62 342,63 342,64 342,65 342,66 342,67 342,68 342,69 342,70 342,71 342,72 342,73 341,74 341,75 341,76 341,77 341,78 341,79 340,79 340,80 340,81 340,82 339,82 339,83 339,84 338,84 338,85 338,86 337,87 337,88 337,89 336,89 336,90 336,91" fill="none" stroke="#00f0b5" stroke-width="3" stroke-linecap="round" stroke-linejoin="round" opacity="0.95">
    <title>3758 a:1</title>
  </polyline>
  <polyline points="53,32 53,33 54,33 55,33 56,33 57,34 58,34 59,35 60,35 61,35 62,36 64,36 65,36 66,36 68,37 69,37 70,37 71,38 72,38 73,38 75,39 76,39 77,39 78,39 79,39 80,39 81,40 82,40 83,41 84,41 85,41 86,41 87,42 88,42 89,42 90,42 91,43 92,43 93,43 94,43 95,43 96,43 97,43 98,44 99,44 101,44 102,44 103,44 105,45 106,45 107,46 108,46 109,46 110,46 111,46 112,46 114,46 115,46 117,47 118,47 121,47 122,47 123,48 125,48 126,48 127,48 128,48 130,48 132,49 133,49 135,49 139,49 141,50 143,50 144,50 145,50 146,50 147,50 149,51 150,51 151,51 154,52 155,52 156,52 157,52 159,52 161,52 163,52 164,52 165,52 166,52 167,53 168,53 170,53 171,53 172,53 174,53 177,54 179,54 181,54 182,54 183,55 184,55 185,55 187,55 190,55 192,55 194,56 197,56 199,56 200,56 201,56 202,56 203,56 204,56 205,57 207,57 210,57 212,57 214,58 216,58 218,58 220,58 222,58 224,58 226,59 228,59 229,59 230,59 232,59 233,59 234,59 235,59 236,60 237,60 238,60 239,60 240,60 241,60 241,61 243,61 244,61 245,61 247,62 249,62 250,62 251,62 252,62 254,62 255,62 257,62 258,62 260,62 261,62 261,63 263,63 265,63 267,63 269,64 270,64 272,64 273,64 274,64 275,64 276,64 277,64 278,64 279,64 281,64 282,64 283,64 284,64 284,65 285,65 286,65 287,65 288,65 289,65 290,65 291,65 293,66 294,66 295,66 297,66 298,66 299,66 300,66 301,66 302,66 303,66 304,66 306,66 308,66 311,67 314,67 317,67 319,67 320,67 321,67 322,67 323,67 325,67 327,67 329,67 330,67 332,67 333,67 334,67 335,67 336,67 337,67 338,67 339,67 340,67 340,66 341,66 342,66 343,66 344,66 345,65 346,65 347,65 348,64 349,64 350,64 351,64 352,63" fill="none" stroke="#2f7df6" stroke-width="3" stroke-linecap="round" stroke-linejoin="round" opacity="0.95">
    <title>5517 b:1</title>
  </polyline>
  <polyline points="16,87 16,86 17,86 17,85 17,84 17,83 17,82 18,81 18,80 18,79 19,78 19,77 19,76 20,76 20,75 21,74 21,73 21,72 22,72 22,71 23,71 23,70 24,70 25,70 25,69 26,69 27,68 27,67 28,67 29,67 30,66 31,66 32,65 33,65 34,65 34,64 35,64 36,64 36,63 37,63 38,63 39,63 40,63 42,63 43,63 44,63 45,63 47,63 48,63 49,63 50,63 51,63 52,63 53,63 55,63 55,64 56,64 57,64 58,64 58,65 59,65 60,65 61,66 62,66 63,66 64,66" fill="none" stroke="#ff2d55" stroke-width="3" stroke-linecap="round" stroke-linejoin="round" opacity="0.95">
    <title>3779 d:1</title>
  </polyline>
  <polyline points="43,176 44,176 45,176 46,176 47,176 48,176 49,176 50,176 51,176 52,176 53,176 54,176 55,176 56,176 57,176 58,176 59,176 60,176 61,176 62,176 63,176 64,177 65,177 66,177 67,177 68,177 69,177 70,177 71,177 72,177 73,177 74,177 75,177 76,177 77,177 78,177 79,177 80,177 81,177 82,177 83,177 84,177 85,177 86,177 87,177 88,177 89,177 90,177 91,177 92,177 93,177 94,177 95,177 95,178 96,178 97,178 98,178 99,178 99,179 100,179 101,179 102,179 103,179" fill="none" stroke="#7c3cff" stroke-width="3" stroke-linecap="round" stroke-linejoin="round" opacity="0.95">
    <title>3749 g:1</title>
  </polyline>
  <polyline points="107,195 107,196 106,196 106,197 105,197 104,197 104,198 103,198 102,198 101,198 100,198 99,198 98,198 97,198 97,197 96,197 95,197 94,197 94,196 93,196 92,196 92,195 92,194 92,193 92,192 92,191 92,190 92,189 93,189 93,188 93,187 93,186 94,186 94,185 94,184 95,184 95,183 95,182 96,182 97,182 97,181 98,181 98,180 99,180 100,180 100,179 101,179 102,179 103,179 103,178" fill="none" stroke="#f2e45c" stroke-width="3" stroke-linecap="round" stroke-linejoin="round" opacity="0.95">
    <title>3711 e:1</title>
  </polyline>
</svg>
