<?xml version="1.0" encoding="UTF-8"?>
<svg xmlns="http://www.w3.org/2000/svg" width="73" height="108" viewBox="0 0 73 108">
  <title>particle img3-m76-p2 a:1 b:1 c:1 a:1</title>
  <metadata>{&quot;entityType&quot;:&quot;particle&quot;,&quot;entityId&quot;:&quot;img3-m76-p2&quot;,&quot;token&quot;:&quot;a:1 b:1 c:1 a:1&quot;,&quot;signature&quot;:&quot;a:1 b:1 c:1 a:1&quot;,&quot;imageName&quot;:&quot;page-003.jpg&quot;,&quot;imageId&quot;:3,&quot;bounds&quot;:{&quot;x&quot;:1548,&quot;y&quot;:1524,&quot;w&quot;:73,&quot;h&quot;:108},&quot;atoms&quot;:[{&quot;id&quot;:2280,&quot;token&quot;:&quot;a:1&quot;,&quot;particle_id&quot;:&quot;img3-m76-p2&quot;,&quot;molecule_id&quot;:&quot;img3-m76&quot;,&quot;atom_order&quot;:1},{&quot;id&quot;:2281,&quot;token&quot;:&quot;b:1&quot;,&quot;particle_id&quot;:&quot;img3-m76-p2&quot;,&quot;molecule_id&quot;:&quot;img3-m76&quot;,&quot;atom_order&quot;:2},{&quot;id&quot;:2282,&quot;token&quot;:&quot;c:1&quot;,&quot;particle_id&quot;:&quot;img3-m76-p2&quot;,&quot;molecule_id&quot;:&quot;img3-m76&quot;,&quot;atom_order&quot;:3},{&quot;id&quot;:2283,&quot;token&quot;:&quot;a:1&quot;,&quot;particle_id&quot;:&quot;img3-m76-p2&quot;,&quot;molecule_id&quot;:&quot;img3-m76&quot;,&quot;atom_order&quot;:4}]}</metadata>
  <rect x="0" y="0" width="73" height="108" fill="#f8f0d8"/>
  <image href="file:///C:/Users/HHHES/AppData/Roaming/com.voynichlab.datasetcreator/images/1/35a70f63-88ab-4986-b441-b78046a10087.jpg" x="-1548" y="-1524" width="2972" height="3766" opacity="0.92"/>
  <rect x="0.5" y="0.5" width="72" height="107" fill="none" stroke="#111827" stroke-width="1" opacity="0.35"/>
  <polyline points="16,92 16,91 16,90 16,89 16,88 16,87 16,86 16,85 16,84 16,83 16,82 16,81 16,80 16,79 16,78 16,77 16,76 16,75 16,74 16,73 16,72 16,71 16,70 16,69 16,68 16,67 16,66 16,65 16,64 16,63 16,62 16,61 16,60 16,59 16,58 16,57 16,56 16,55 16,54 17,54 17,53 17,52 17,51 17,50 17,49 17,48 17,47 17,46 17,45 17,44 17,43 17,42 17,41 17,40 17,39 17,38 17,37 17,36 17,35 17,34 17,33 17,32 17,31 17,30 17,29 17,28 17,27 17,26 17,25 17,24" fill="none" stroke="#00f0b5" stroke-width="3" stroke-linecap="round" stroke-linejoin="round" opacity="0.95">
    <title>2280 a:1</title>
  </polyline>
  <polyline points="17,30 17,31 17,32 17,33 17,34 18,34 18,35 18,36 19,36 19,37 20,38 21,39 21,40 22,40 23,40 24,40 24,41 25,41 26,41 27,41 28,41 29,41 30,41 31,41 32,41 32,42 33,42 34,42 35,42 36,42 37,42 38,42 39,42 40,41 41,41 42,41 43,41 44,41 44,40 45,40 46,40 46,39 47,39 47,38 48,38 49,38 49,37 50,37 50,36 51,35 52,35 52,34 53,34 53,33 54,33 54,32 55,32" fill="none" stroke="#2f7df6" stroke-width="3" stroke-linecap="round" stroke-linejoin="round" opacity="0.95">
    <title>2281 b:1</title>
  </polyline>
  <polyline points="55,30 56,30 56,29 56,28 56,27 56,26 56,25 56,24 55,24 55,23 55,22 54,22 54,21 54,20 53,20 53,19 52,19 52,18 51,18 51,17 50,17 49,17 48,17 47,17 47,16 46,16 45,16 44,16 43,16 42,17 41,17 40,17 40,18 39,18 38,19 37,19 37,20 36,20 36,21 35,21 35,22 35,23 34,23 34,24 34,25 33,25 33,26 33,27 33,28 32,28 32,29 32,30 32,31 32,32 32,33 32,34 32,35 32,36 32,37 33,37 33,38 34,38 35,38 36,39 37,39 38,39 39,39 40,39 41,39 42,39 43,39 44,39 44,38 45,38 46,38 47,38 47,37 48,37 48,36 49,36 49,35 50,35 51,35 51,34 52,34 53,34 54,34 54,33 55,33 55,32 55,31 56,31 56,30 56,29 56,28 57,28" fill="none" stroke="#8aff00" stroke-width="3" stroke-linecap="round" stroke-linejoin="round" opacity="0.95">
    <title>2282 c:1</title>
  </polyline>
  <polyline points="32,35 32,36 32,37 32,38 31,38 31,39 31,40 31,41 31,42 31,43 31,44 31,45 31,46 31,47 31,48 31,49 31,50 31,51 31,52 31,53 31,54 31,55 31,56 31,57 31,58 31,59 31,60 31,61 31,62 30,63 30,64 30,65 30,66 30,67 30,68 30,69 30,70 30,71 30,72 30,73 31,74 31,75 31,76 31,77 31,78 31,79 31,80 31,81 31,82 31,83 31,84 31,85 31,86 31,87 32,88 32,89 32,90" fill="none" stroke="#00f0b5" stroke-width="3" stroke-linecap="round" stroke-linejoin="round" opacity="0.95">
    <title>2283 a:1</title>
  </polyline>
</svg>
