<?xml version="1.0" encoding="UTF-8"?>
<svg xmlns="http://www.w3.org/2000/svg" width="78" height="106" viewBox="0 0 78 106">
  <title>particle img3-m27-p4 a:1 b:1 c:1 a:1</title>
  <metadata>{&quot;entityType&quot;:&quot;particle&quot;,&quot;entityId&quot;:&quot;img3-m27-p4&quot;,&quot;token&quot;:&quot;a:1 b:1 c:1 a:1&quot;,&quot;signature&quot;:&quot;a:1 b:1 c:1 a:1&quot;,&quot;imageName&quot;:&quot;page-003.jpg&quot;,&quot;imageId&quot;:3,&quot;bounds&quot;:{&quot;x&quot;:898,&quot;y&quot;:650,&quot;w&quot;:78,&quot;h&quot;:106},&quot;atoms&quot;:[{&quot;id&quot;:1353,&quot;token&quot;:&quot;a:1&quot;,&quot;particle_id&quot;:&quot;img3-m27-p4&quot;,&quot;molecule_id&quot;:&quot;img3-m27&quot;,&quot;atom_order&quot;:1},{&quot;id&quot;:1354,&quot;token&quot;:&quot;b:1&quot;,&quot;particle_id&quot;:&quot;img3-m27-p4&quot;,&quot;molecule_id&quot;:&quot;img3-m27&quot;,&quot;atom_order&quot;:2},{&quot;id&quot;:1355,&quot;token&quot;:&quot;c:1&quot;,&quot;particle_id&quot;:&quot;img3-m27-p4&quot;,&quot;molecule_id&quot;:&quot;img3-m27&quot;,&quot;atom_order&quot;:3},{&quot;id&quot;:1356,&quot;token&quot;:&quot;a:1&quot;,&quot;particle_id&quot;:&quot;img3-m27-p4&quot;,&quot;molecule_id&quot;:&quot;img3-m27&quot;,&quot;atom_order&quot;:4}]}</metadata>
  <rect x="0" y="0" width="78" height="106" fill="#f8f0d8"/>
  <image href="file:///C:/Users/HHHES/AppData/Roaming/com.voynichlab.datasetcreator/images/1/35a70f63-88ab-4986-b441-b78046a10087.jpg" x="-898" y="-650" width="2972" height="3766" opacity="0.92"/>
  <rect x="0.5" y="0.5" width="77" height="105" fill="none" stroke="#111827" stroke-width="1" opacity="0.35"/>
  <polyline points="16,90 16,89 16,88 16,87 16,86 16,85 16,84 17,84 17,83 17,82 17,81 17,80 17,79 17,78 17,77 17,76 17,75 17,74 17,73 17,72 17,71 17,70 17,69 18,69 18,68 18,67 18,66 18,65 18,64 18,63 18,62 18,61 18,60 18,59 18,58 18,57 18,56 18,55 18,54 18,53 18,52 18,51 18,50 18,49 18,48 17,48 17,47 17,46 17,45 17,44 17,43 17,42 17,41 17,40 17,39 17,38 17,37 17,36 17,35 17,34 16,34 16,33 16,32 16,31 16,30 16,29 16,28 16,27 16,26 16,25 16,24 16,23 16,22 16,21 16,20" fill="none" stroke="#00f0b5" stroke-width="3" stroke-linecap="round" stroke-linejoin="round" opacity="0.95">
    <title>1353 a:1</title>
  </polyline>
  <polyline points="16,21 16,22 16,23 16,24 17,25 17,26 18,26 18,27 18,28 19,28 19,29 20,29 20,30 21,30 21,31 22,31 22,32 23,32 23,33 24,33 25,34 26,34 26,35 27,35 28,35 28,36 29,36 30,36 30,37 31,37 32,37 33,37 34,38 35,38 36,38 37,38 38,38 39,38 40,38 41,38 42,38 42,39 43,39 44,39 45,39 46,39 47,39 48,39 49,39 50,38 51,38 52,38 52,37 53,37 54,36 55,36 55,35 56,35 57,34" fill="none" stroke="#2f7df6" stroke-width="3" stroke-linecap="round" stroke-linejoin="round" opacity="0.95">
    <title>1354 b:1</title>
  </polyline>
  <polyline points="57,34 58,33 59,33 59,32 59,31 60,31 60,30 61,30 61,29 61,28 62,27 62,26 62,25 62,24 62,23 62,22 62,21 61,21 61,20 61,19 60,19 60,18 60,17 59,17 59,16 58,16 57,16 56,16 55,16 54,16 53,16 52,16 51,16 51,17 50,17 49,17 49,18 48,18 47,19 46,19 46,20 45,20 45,21 44,21 44,22 43,22 43,23 43,24 42,24 42,25 41,25 41,26 40,27 40,28 39,28 39,29 39,30 39,31 39,32 39,33 39,34 39,35 39,36 40,36 40,37 41,37 42,37 42,38 43,38 43,39 44,39 45,39 46,39 47,39 48,39 49,39 50,38 51,38 52,38 53,38 53,37 54,37 55,37 55,36 56,36 56,35 57,35 57,34" fill="none" stroke="#8aff00" stroke-width="3" stroke-linecap="round" stroke-linejoin="round" opacity="0.95">
    <title>1355 c:1</title>
  </polyline>
  <polyline points="39,33 39,34 39,35 38,35 38,36 38,37 38,38 38,39 38,40 38,41 38,42 38,43 38,44 38,45 38,46 38,47 38,48 38,49 38,50 38,51 38,52 38,53 38,54 38,55 38,56 38,57 38,58 37,59 37,60 37,61 37,62 37,63 37,64 37,65 37,66 37,67 37,68 37,69 37,70 36,70 36,71 36,72 36,73 36,74 36,75 36,76 36,77 36,78 36,79 36,80 36,81 36,82 36,83 36,84 37,84 37,85" fill="none" stroke="#00f0b5" stroke-width="3" stroke-linecap="round" stroke-linejoin="round" opacity="0.95">
    <title>1356 a:1</title>
  </polyline>
</svg>
