<?xml version="1.0" encoding="UTF-8"?>
<svg xmlns="http://www.w3.org/2000/svg" width="48" height="61" viewBox="0 0 48 61">
  <title>particle img3-m142-p1 n:1</title>
  <metadata>{&quot;entityType&quot;:&quot;particle&quot;,&quot;entityId&quot;:&quot;img3-m142-p1&quot;,&quot;token&quot;:&quot;n:1&quot;,&quot;signature&quot;:&quot;n:1&quot;,&quot;imageName&quot;:&quot;page-003.jpg&quot;,&quot;imageId&quot;:3,&quot;bounds&quot;:{&quot;x&quot;:580,&quot;y&quot;:2207,&quot;w&quot;:48,&quot;h&quot;:61},&quot;atoms&quot;:[{&quot;id&quot;:3695,&quot;token&quot;:&quot;n:1&quot;,&quot;particle_id&quot;:&quot;img3-m142-p1&quot;,&quot;molecule_id&quot;:&quot;img3-m142&quot;,&quot;atom_order&quot;:1}]}</metadata>
  <rect x="0" y="0" width="48" height="61" fill="#f8f0d8"/>
  <image href="file:///C:/Users/HHHES/AppData/Roaming/com.voynichlab.datasetcreator/images/1/35a70f63-88ab-4986-b441-b78046a10087.jpg" x="-580" y="-2207" width="2972" height="3766" opacity="0.92"/>
  <rect x="0.5" y="0.5" width="47" height="60" fill="none" stroke="#111827" stroke-width="1" opacity="0.35"/>
  <polyline points="16,35 16,34 16,33 16,32 16,31 16,30 16,29 16,27 16,26 16,25 16,23 16,22 17,21 19,20 20,19 21,18 22,17 23,16 24,16 25,16 26,16 27,16 28,16 28,17 29,17 29,18 30,19 31,20 31,21 31,22 31,23 32,24 32,25 32,26 32,27 32,28 32,29 32,30 32,31 32,32 32,33 32,34 31,35 31,37 30,38 29,39 29,41 29,42 28,43 28,44 27,44 27,45" fill="none" stroke="#f92f59" stroke-width="3" stroke-linecap="round" stroke-linejoin="round" opacity="0.95">
    <title>3695 n:1</title>
  </polyline>
</svg>
