<?xml version="1.0" encoding="UTF-8"?>
<svg xmlns="http://www.w3.org/2000/svg" width="114" height="135" viewBox="0 0 114 135">
  <title>particle img3-m149-p1 e:1 a:1 e:1 b:1 c:1 a:1 b:1 d:1</title>
  <metadata>{&quot;entityType&quot;:&quot;particle&quot;,&quot;entityId&quot;:&quot;img3-m149-p1&quot;,&quot;token&quot;:&quot;e:1 a:1 e:1 b:1 c:1 a:1 b:1 d:1&quot;,&quot;signature&quot;:&quot;e:1 a:1 e:1 b:1 c:1 a:1 b:1 d:1&quot;,&quot;imageName&quot;:&quot;page-003.jpg&quot;,&quot;imageId&quot;:3,&quot;bounds&quot;:{&quot;x&quot;:1772,&quot;y&quot;:2449,&quot;w&quot;:114,&quot;h&quot;:135},&quot;atoms&quot;:[{&quot;id&quot;:5490,&quot;token&quot;:&quot;e:1&quot;,&quot;particle_id&quot;:&quot;img3-m149-p1&quot;,&quot;molecule_id&quot;:&quot;img3-m149&quot;,&quot;atom_order&quot;:1},{&quot;id&quot;:3763,&quot;token&quot;:&quot;a:1&quot;,&quot;particle_id&quot;:&quot;img3-m149-p1&quot;,&quot;molecule_id&quot;:&quot;img3-m149&quot;,&quot;atom_order&quot;:2},{&quot;id&quot;:3735,&quot;token&quot;:&quot;e:1&quot;,&quot;particle_id&quot;:&quot;img3-m149-p1&quot;,&quot;molecule_id&quot;:&quot;img3-m149&quot;,&quot;atom_order&quot;:3},{&quot;id&quot;:3804,&quot;token&quot;:&quot;b:1&quot;,&quot;particle_id&quot;:&quot;img3-m149-p1&quot;,&quot;molecule_id&quot;:&quot;img3-m149&quot;,&quot;atom_order&quot;:4},{&quot;id&quot;:3773,&quot;token&quot;:&quot;c:1&quot;,&quot;particle_id&quot;:&quot;img3-m149-p1&quot;,&quot;molecule_id&quot;:&quot;img3-m149&quot;,&quot;atom_order&quot;:5},{&quot;id&quot;:3764,&quot;token&quot;:&quot;a:1&quot;,&quot;particle_id&quot;:&quot;img3-m149-p1&quot;,&quot;molecule_id&quot;:&quot;img3-m149&quot;,&quot;atom_order&quot;:6},{&quot;id&quot;:3803,&quot;token&quot;:&quot;b:1&quot;,&quot;particle_id&quot;:&quot;img3-m149-p1&quot;,&quot;molecule_id&quot;:&quot;img3-m149&quot;,&quot;atom_order&quot;:7},{&quot;id&quot;:3805,&quot;token&quot;:&quot;d:1&quot;,&quot;particle_id&quot;:&quot;img3-m149-p1&quot;,&quot;molecule_id&quot;:&quot;img3-m149&quot;,&quot;atom_order&quot;:8}]}</metadata>
  <rect x="0" y="0" width="114" height="135" fill="#f8f0d8"/>
  <image href="file:///C:/Users/HHHES/AppData/Roaming/com.voynichlab.datasetcreator/images/1/35a70f63-88ab-4986-b441-b78046a10087.jpg" x="-1772" y="-2449" width="2972" height="3766" opacity="0.92"/>
  <rect x="0.5" y="0.5" width="113" height="134" fill="none" stroke="#111827" stroke-width="1" opacity="0.35"/>
  <polyline points="31,81 31,82 30,82 30,83 29,83 28,83 28,84 27,84 26,84 25,84 24,84 23,84 22,84 21,84 21,83 20,83 19,83 18,83 18,82 17,82 16,82 16,81 16,80 16,79 16,78 16,77 16,76 16,75 17,75 17,74 17,73 17,72 18,72 18,71 18,70 19,70 19,69 19,68 20,68 21,68 21,67 22,67 22,66 23,66 24,66 24,65 25,65 26,65 27,65 27,64" fill="none" stroke="#f2e45c" stroke-width="3" stroke-linecap="round" stroke-linejoin="round" opacity="0.95">
    <title>5490 e:1</title>
  </polyline>
  <polyline points="55,119 55,118 55,117 56,117 56,116 56,115 56,114 56,113 57,112 57,111 57,110 57,109 58,108 58,107 58,106 58,105 58,104 58,103 58,102 59,102 59,101 59,100 59,99 59,98 59,97 59,96 59,95 59,94 59,93 59,92 59,91 59,90 59,89 59,88 59,87 59,86 59,85 59,84 59,83 59,82 59,81 59,80 59,79 59,78 59,77 59,76 59,75 59,74 59,73 59,72 59,71 59,70 59,69 59,68 59,67 59,66 59,65 59,64 59,63 59,62 60,62 60,61 60,60 60,59 60,58 60,57 60,56 60,55 60,54 60,53 60,52 60,51 60,50 61,49 61,48 61,47 61,46 61,45 61,44 61,43 61,42 62,42 62,41 62,40 62,39 62,38 62,37 62,36 62,35 62,34 62,33 62,32 62,31 62,30 62,29 62,28 62,27 62,26 62,25 62,24 62,23 63,23 63,22 63,21 63,20 63,19 63,18 63,17 63,16 62,16 61,16 60,16 59,16" fill="none" stroke="#00f0b5" stroke-width="3" stroke-linecap="round" stroke-linejoin="round" opacity="0.95">
    <title>3763 a:1</title>
  </polyline>
  <polyline points="63,33 63,34 62,34 62,35 61,35 60,35 60,36 59,36 58,36 57,36 56,36 55,36 54,36 53,36 53,35 52,35 51,35 50,35 50,34 49,34 48,34 48,33 48,32 48,31 48,30 48,29 48,28 48,27 49,27 49,26 49,25 49,24 50,24 50,23 50,22 51,22 51,21 51,20 52,20 53,20 53,19 54,19 54,18 55,18 56,18 56,17 57,17 58,17 59,17 59,16" fill="none" stroke="#f2e45c" stroke-width="3" stroke-linecap="round" stroke-linejoin="round" opacity="0.95">
    <title>3735 e:1</title>
  </polyline>
  <polyline points="82,66 81,66 81,67 80,67 80,68 79,68 79,69 78,69 77,69 77,70 76,70 75,70 73,70 72,70 71,70 70,70 69,70 68,71 67,71 66,71 65,71 64,71 63,71 62,71 61,71 60,71 59,71 59,70 58,70 56,70 55,70 54,70 53,69 52,69 51,68 50,68 49,67 48,67 48,66 47,66 47,65 46,65 46,64 45,64" fill="none" stroke="#2f7df6" stroke-width="3" stroke-linecap="round" stroke-linejoin="round" opacity="0.95">
    <title>3804 b:1</title>
  </polyline>
  <polyline points="83,24 83,23 83,22 84,22 84,21 85,21 85,20 86,20 86,19 87,19 88,18 89,18 90,18 91,18 92,18 93,18 94,18 95,18 95,19 96,19 97,20 97,21 98,21 98,22 98,23 98,24 98,25 98,26 98,27 98,28 98,29 98,30 97,30 97,31 96,32 96,33 95,33 95,34 94,34 94,35 93,35 93,36 92,36 91,36 91,37 90,37 89,37 88,37 87,37 87,36 86,36 85,36 84,35 83,34 83,33 83,32 84,31 84,30 84,29 84,28 83,27 83,26 83,25 83,24 83,23" fill="none" stroke="#8aff00" stroke-width="3" stroke-linecap="round" stroke-linejoin="round" opacity="0.95">
    <title>3773 c:1</title>
  </polyline>
  <polyline points="83,24 83,25 83,26 83,27 83,28 83,29 83,30 83,31 83,32 83,33 83,34 83,35 83,36 83,37 83,38 83,39 83,40 83,41 83,42 83,43 83,44 83,45 83,46 83,47 83,48 83,49 83,50 83,51 83,52 83,53 83,54 83,55 83,56 83,57 82,57 82,58 82,59 82,60 82,61 82,62 82,63 82,64 82,65 82,66" fill="none" stroke="#00f0b5" stroke-width="3" stroke-linecap="round" stroke-linejoin="round" opacity="0.95">
    <title>3764 a:1</title>
  </polyline>
  <polyline points="55,36 56,37 57,37 57,38 58,38 59,39 61,39 62,39 63,40 64,40 65,40 66,40 68,40 69,40 71,40 72,40 73,40 74,40 75,40 76,40 77,40 78,40 79,40 80,40 81,40 82,40 83,40 84,39 85,39 86,39 86,38 87,38 88,38 88,37 89,37 90,37 90,36" fill="none" stroke="#2f7df6" stroke-width="3" stroke-linecap="round" stroke-linejoin="round" opacity="0.95">
    <title>3803 b:1</title>
  </polyline>
  <polyline points="19,82 19,81 18,80 18,79 17,78 16,77 16,76 16,75 16,74 16,73 16,72 17,71 17,70 18,70 18,69 19,68 20,67 21,67 22,66 23,66 24,66 25,65 26,65 27,65 28,64 29,64 30,64 31,64 32,64 33,64 34,63 35,63 36,63 37,63 38,63 39,63 40,63 41,64 42,64 43,64 44,64 45,64 45,65 46,65 47,65 47,66 48,66" fill="none" stroke="#ff2d55" stroke-width="3" stroke-linecap="round" stroke-linejoin="round" opacity="0.95">
    <title>3805 d:1</title>
  </polyline>
</svg>
