<?xml version="1.0" encoding="UTF-8"?>
<svg xmlns="http://www.w3.org/2000/svg" width="58" height="74" viewBox="0 0 58 74">
  <title>particle img3-m122-p4 e:1 c:1 h:2</title>
  <metadata>{&quot;entityType&quot;:&quot;particle&quot;,&quot;entityId&quot;:&quot;img3-m122-p4&quot;,&quot;token&quot;:&quot;e:1 c:1 h:2&quot;,&quot;signature&quot;:&quot;e:1 c:1 h:2&quot;,&quot;imageName&quot;:&quot;page-003.jpg&quot;,&quot;imageId&quot;:3,&quot;bounds&quot;:{&quot;x&quot;:1810,&quot;y&quot;:1982,&quot;w&quot;:58,&quot;h&quot;:74},&quot;atoms&quot;:[{&quot;id&quot;:3329,&quot;token&quot;:&quot;e:1&quot;,&quot;particle_id&quot;:&quot;img3-m122-p4&quot;,&quot;molecule_id&quot;:&quot;img3-m122&quot;,&quot;atom_order&quot;:1},{&quot;id&quot;:3357,&quot;token&quot;:&quot;c:1&quot;,&quot;particle_id&quot;:&quot;img3-m122-p4&quot;,&quot;molecule_id&quot;:&quot;img3-m122&quot;,&quot;atom_order&quot;:2},{&quot;id&quot;:3384,&quot;token&quot;:&quot;h:2&quot;,&quot;particle_id&quot;:&quot;img3-m122-p4&quot;,&quot;molecule_id&quot;:&quot;img3-m122&quot;,&quot;atom_order&quot;:3}]}</metadata>
  <rect x="0" y="0" width="58" height="74" fill="#f8f0d8"/>
  <image href="file:///C:/Users/HHHES/AppData/Roaming/com.voynichlab.datasetcreator/images/1/35a70f63-88ab-4986-b441-b78046a10087.jpg" x="-1810" y="-1982" width="2972" height="3766" opacity="0.92"/>
  <rect x="0.5" y="0.5" width="57" height="73" fill="none" stroke="#111827" stroke-width="1" opacity="0.35"/>
  <polyline points="31,55 31,56 30,56 30,57 29,57 28,57 28,58 27,58 26,58 25,58 24,58 23,58 22,58 21,58 21,57 20,57 19,57 18,57 18,56 17,56 16,56 16,55 16,54 16,53 16,52 16,51 16,50 16,49 17,49 17,48 17,47 17,46 18,46 18,45 18,44 19,44 19,43 19,42 20,42 21,42 21,41 22,41 22,40 23,40 24,40 24,39 25,39 26,39 27,39 27,38" fill="none" stroke="#f2e45c" stroke-width="3" stroke-linecap="round" stroke-linejoin="round" opacity="0.95">
    <title>3329 e:1</title>
  </polyline>
  <polyline points="37,34 38,34 38,33 39,33 39,32 40,32 41,31 41,30 41,29 42,29 42,28 42,27 42,26 41,25 41,24 40,23 39,22 38,21 37,20 36,19 35,19 35,18 34,18 33,18 32,18 32,17 31,17 30,17 29,17 28,16 27,16 26,16 25,16 25,17 24,17 23,17 23,18 22,18 22,19 21,19 21,20 21,21 21,22 21,23 21,24 21,25 21,26 22,27 23,28 23,29 24,29 24,30 24,31 25,31 25,32 25,33 26,33 26,34 27,34 28,35 29,35 30,35 31,35 32,35 33,35 34,35 35,35 36,35 37,35 38,34 39,34" fill="none" stroke="#8aff00" stroke-width="3" stroke-linecap="round" stroke-linejoin="round" opacity="0.95">
    <title>3357 c:1</title>
  </polyline>
  <polyline points="31,57 32,56 33,56 33,55 33,54 34,54 34,53 34,52 34,51 34,50 34,49 34,48 33,47 33,46 33,45 32,45 32,44 31,43 31,42 30,42 30,41 29,41 28,40 27,40 27,39 26,39 26,38 25,38 25,37 24,36 23,36 23,35 22,34 21,34 21,33 21,32 20,32 20,31 20,30 20,29 19,28 19,27 19,26 19,25 19,24 19,23 20,23 20,22 20,21 21,21 21,20 21,19 22,19 22,18 23,18 24,18 25,18 25,17" fill="none" stroke="#ff8c00" stroke-width="3" stroke-linecap="round" stroke-linejoin="round" opacity="0.95">
    <title>3384 h:2</title>
  </polyline>
</svg>
