<?xml version="1.0" encoding="UTF-8"?>
<svg xmlns="http://www.w3.org/2000/svg" width="88" height="55" viewBox="0 0 88 55">
  <title>particle img3-m40-p8 e:1 g:1 e:1</title>
  <metadata>{&quot;entityType&quot;:&quot;particle&quot;,&quot;entityId&quot;:&quot;img3-m40-p8&quot;,&quot;token&quot;:&quot;e:1 g:1 e:1&quot;,&quot;signature&quot;:&quot;e:1 g:1 e:1&quot;,&quot;imageName&quot;:&quot;page-003.jpg&quot;,&quot;imageId&quot;:3,&quot;bounds&quot;:{&quot;x&quot;:2254,&quot;y&quot;:863,&quot;w&quot;:88,&quot;h&quot;:55},&quot;atoms&quot;:[{&quot;id&quot;:1750,&quot;token&quot;:&quot;e:1&quot;,&quot;particle_id&quot;:&quot;img3-m40-p8&quot;,&quot;molecule_id&quot;:&quot;img3-m40&quot;,&quot;atom_order&quot;:1},{&quot;id&quot;:1752,&quot;token&quot;:&quot;g:1&quot;,&quot;particle_id&quot;:&quot;img3-m40-p8&quot;,&quot;molecule_id&quot;:&quot;img3-m40&quot;,&quot;atom_order&quot;:2},{&quot;id&quot;:1751,&quot;token&quot;:&quot;e:1&quot;,&quot;particle_id&quot;:&quot;img3-m40-p8&quot;,&quot;molecule_id&quot;:&quot;img3-m40&quot;,&quot;atom_order&quot;:3}]}</metadata>
  <rect x="0" y="0" width="88" height="55" fill="#f8f0d8"/>
  <image href="file:///C:/Users/HHHES/AppData/Roaming/com.voynichlab.datasetcreator/images/1/35a70f63-88ab-4986-b441-b78046a10087.jpg" x="-2254" y="-863" width="2972" height="3766" opacity="0.92"/>
  <rect x="0.5" y="0.5" width="87" height="54" fill="none" stroke="#111827" stroke-width="1" opacity="0.35"/>
  <polyline points="34,37 33,37 32,37 32,38 31,38 30,39 29,39 28,39 27,39 26,39 25,39 24,39 23,38 22,38 21,38 21,37 20,37 19,37 19,36 18,36 18,35 17,34 17,33 16,33 16,32 16,31 16,30 16,29 16,28 16,27 16,26 16,25 16,24 16,23 17,22 17,21 17,20 18,20 18,19 19,19 19,18 20,18 21,17 22,17 23,17 24,16 25,16 26,16" fill="none" stroke="#f2e45c" stroke-width="3" stroke-linecap="round" stroke-linejoin="round" opacity="0.95">
    <title>1750 e:1</title>
  </polyline>
  <polyline points="26,16 27,16 28,16 29,16 30,16 31,16 32,16 33,16 34,16 35,16 36,16 37,16 38,16 39,16 40,16 41,16 42,16 43,16 44,16 45,16 46,16 47,16 48,16 49,16 50,16 51,16 52,16 53,16 54,16 55,16 56,16 57,16 58,16 59,16 60,16 61,16 62,16 63,16 64,16 65,16 66,16 67,16 68,16 69,16 70,16" fill="none" stroke="#7c3cff" stroke-width="3" stroke-linecap="round" stroke-linejoin="round" opacity="0.95">
    <title>1752 g:1</title>
  </polyline>
  <polyline points="72,36 71,36 71,37 70,37 69,37 68,37 68,38 67,38 66,38 65,38 64,38 63,38 62,38 61,38 60,38 60,37 59,37 58,37 57,36 56,36 56,35 56,34 55,34 55,33 55,32 55,31 54,31 54,30 54,29 54,28 54,27 54,26 55,25 55,24 56,24 56,23 56,22 57,22 57,21 58,21 58,20 59,20 59,19 60,19 60,18 61,18 62,18 62,17 63,17 64,17 65,17 66,17 66,16 67,16 68,16 69,16 70,16" fill="none" stroke="#f2e45c" stroke-width="3" stroke-linecap="round" stroke-linejoin="round" opacity="0.95">
    <title>1751 e:1</title>
  </polyline>
</svg>
