<?xml version="1.0" encoding="UTF-8"?>
<svg xmlns="http://www.w3.org/2000/svg" width="148" height="112" viewBox="0 0 148 112">
  <title>particle img3-m83-p1 e:1 a:1 b:1 c:1 a:1 g:1 e:1</title>
  <metadata>{&quot;entityType&quot;:&quot;particle&quot;,&quot;entityId&quot;:&quot;img3-m83-p1&quot;,&quot;token&quot;:&quot;e:1 a:1 b:1 c:1 a:1 g:1 e:1&quot;,&quot;signature&quot;:&quot;e:1 a:1 b:1 c:1 a:1 g:1 e:1&quot;,&quot;imageName&quot;:&quot;page-003.jpg&quot;,&quot;imageId&quot;:3,&quot;bounds&quot;:{&quot;x&quot;:745,&quot;y&quot;:1624,&quot;w&quot;:148,&quot;h&quot;:112},&quot;atoms&quot;:[{&quot;id&quot;:2341,&quot;token&quot;:&quot;e:1&quot;,&quot;particle_id&quot;:&quot;img3-m83-p1&quot;,&quot;molecule_id&quot;:&quot;img3-m83&quot;,&quot;atom_order&quot;:1},{&quot;id&quot;:2348,&quot;token&quot;:&quot;a:1&quot;,&quot;particle_id&quot;:&quot;img3-m83-p1&quot;,&quot;molecule_id&quot;:&quot;img3-m83&quot;,&quot;atom_order&quot;:2},{&quot;id&quot;:2349,&quot;token&quot;:&quot;b:1&quot;,&quot;particle_id&quot;:&quot;img3-m83-p1&quot;,&quot;molecule_id&quot;:&quot;img3-m83&quot;,&quot;atom_order&quot;:3},{&quot;id&quot;:2350,&quot;token&quot;:&quot;c:1&quot;,&quot;particle_id&quot;:&quot;img3-m83-p1&quot;,&quot;molecule_id&quot;:&quot;img3-m83&quot;,&quot;atom_order&quot;:4},{&quot;id&quot;:2351,&quot;token&quot;:&quot;a:1&quot;,&quot;particle_id&quot;:&quot;img3-m83-p1&quot;,&quot;molecule_id&quot;:&quot;img3-m83&quot;,&quot;atom_order&quot;:5},{&quot;id&quot;:2347,&quot;token&quot;:&quot;g:1&quot;,&quot;particle_id&quot;:&quot;img3-m83-p1&quot;,&quot;molecule_id&quot;:&quot;img3-m83&quot;,&quot;atom_order&quot;:6},{&quot;id&quot;:2342,&quot;token&quot;:&quot;e:1&quot;,&quot;particle_id&quot;:&quot;img3-m83-p1&quot;,&quot;molecule_id&quot;:&quot;img3-m83&quot;,&quot;atom_order&quot;:7}]}</metadata>
  <rect x="0" y="0" width="148" height="112" fill="#f8f0d8"/>
  <image href="file:///C:/Users/HHHES/AppData/Roaming/com.voynichlab.datasetcreator/images/1/35a70f63-88ab-4986-b441-b78046a10087.jpg" x="-745" y="-1624" width="2972" height="3766" opacity="0.92"/>
  <rect x="0.5" y="0.5" width="147" height="111" fill="none" stroke="#111827" stroke-width="1" opacity="0.35"/>
  <polyline points="34,93 33,93 33,94 32,94 31,94 31,95 30,95 29,95 28,95 28,96 27,96 26,96 25,96 24,96 23,96 22,96 21,96 20,96 19,96 19,95 18,95 18,94 17,94 17,93 16,93 16,92 16,91 16,90 16,89 16,88 16,87 17,86 17,85 18,85 19,85 19,84 20,84 20,83 21,83 22,83 22,82 23,82 24,82 24,81 25,81 26,81 27,81 27,80 28,80 29,80" fill="none" stroke="#f2e45c" stroke-width="3" stroke-linecap="round" stroke-linejoin="round" opacity="0.95">
    <title>2341 e:1</title>
  </polyline>
  <polyline points="54,95 54,94 55,93 55,92 55,91 55,90 55,89 55,88 55,87 56,87 56,86 56,85 56,84 56,83 56,82 56,81 56,80 56,79 56,78 56,77 56,76 56,75 56,74 56,73 56,72 56,71 56,70 55,70 55,69 55,68 55,67 55,66 55,65 55,64 55,63 55,62 55,61 55,60 55,59 55,58 56,57 56,56 56,55 56,54 56,53 56,52 56,51 56,50 56,49 56,48 56,47 56,46 57,46 57,45 57,44 57,43 57,42 57,41 57,40 57,39 57,38 57,37 57,36 57,35 57,34 57,33 57,32 58,32 58,31 58,30 58,29" fill="none" stroke="#00f0b5" stroke-width="3" stroke-linecap="round" stroke-linejoin="round" opacity="0.95">
    <title>2348 a:1</title>
  </polyline>
  <polyline points="58,30 60,32 61,32 62,33 64,34 65,34 66,34 67,34 67,35 68,35 69,35 70,35 71,35 72,35 73,36 74,36 75,36 76,36 77,36 78,36 79,36 80,36 81,36 82,36 83,36 84,36 85,36 85,35 86,35 87,35 88,34 89,34 90,34 90,33 91,33 92,32 93,32 94,31 94,30 95,30 95,29 96,29" fill="none" stroke="#2f7df6" stroke-width="3" stroke-linecap="round" stroke-linejoin="round" opacity="0.95">
    <title>2349 b:1</title>
  </polyline>
  <polyline points="95,30 96,30 97,30 97,29 97,28 98,28 98,27 99,27 99,26 99,25 100,25 100,24 101,23 101,22 101,21 101,20 100,20 100,19 99,18 99,17 98,17 97,17 97,16 96,16 95,16 94,16 93,16 92,16 91,16 90,16 89,16 88,17 87,17 87,18 86,18 86,19 85,19 85,20 84,20 84,21 83,21 83,22 82,23 82,24 81,24 81,25 80,25 80,26 80,27 80,28 80,29 80,30 81,30 81,31 82,31 82,32 83,32 84,32 84,33 85,33 86,33 87,33 88,33 89,33 90,33 90,32 91,32 92,32 93,31 94,31 94,30 95,30 95,29" fill="none" stroke="#8aff00" stroke-width="3" stroke-linecap="round" stroke-linejoin="round" opacity="0.95">
    <title>2350 c:1</title>
  </polyline>
  <polyline points="80,29 80,30 80,31 80,32 80,33 80,34 80,35 80,36 80,37 80,38 80,39 80,40 80,41 80,42 80,43 80,44 80,45 80,46 80,47 79,47 79,48 79,49 79,50 79,51 79,52 79,53 79,54 79,55 79,56 79,57 79,58 79,59 79,60 79,61 79,62 79,63 79,64 80,65 80,66 80,67 80,68 80,69 80,70 80,71 80,72 80,73 80,74 80,75 80,76 80,77 80,78 80,79 80,80 80,81 80,82 80,83 80,84 80,85 80,86 80,87 80,88 80,89 81,89 81,90" fill="none" stroke="#00f0b5" stroke-width="3" stroke-linecap="round" stroke-linejoin="round" opacity="0.95">
    <title>2351 a:1</title>
  </polyline>
  <polyline points="28,80 29,80 29,79 30,79 31,79 32,79 33,79 34,79 35,79 36,79 37,79 38,79 39,79 40,79 41,79 42,79 43,79 44,79 45,79 46,79 47,79 48,79 49,79 50,79 51,79 52,79 53,79 53,78 54,78 55,78 56,78 57,78 58,78 59,78 60,78 61,78 62,78 63,78 64,77 65,77 66,77 67,77 68,77 69,77 70,77 71,77 72,77 72,76 73,76 74,76 75,76 76,76 77,76 78,76 79,76 80,76 81,76 82,76 83,76 84,76 85,76 86,76 87,76 88,76 89,76 90,76 91,76 92,76 93,76 94,76 95,76 96,76 97,76 98,76 99,76 100,76 101,76 102,76 103,76 104,76 105,76 105,75 106,75 107,75 108,75 109,75 110,75 111,75 112,75 113,75 114,75 115,75 116,75 117,75 118,75 119,75 120,75 121,75 121,74 122,74 123,74 124,74 125,74 126,74 127,74 128,74 129,74 130,74 131,74" fill="none" stroke="#7c3cff" stroke-width="3" stroke-linecap="round" stroke-linejoin="round" opacity="0.95">
    <title>2347 g:1</title>
  </polyline>
  <polyline points="132,88 130,89 129,89 128,90 127,90 126,91 125,91 124,91 124,92 123,92 122,92 121,92 120,92 119,92 118,92 118,91 117,91 116,91 116,90 114,90 114,89 113,89 112,89 112,88 112,87 111,87 111,86 111,85 111,84 111,83 111,82 111,81 111,80 112,80 112,79 113,78 114,78 114,77 115,77 116,77 116,76 117,76 118,76 118,75 119,75 120,75 121,75 121,74 122,74 123,74 124,74 125,74 126,74 127,74 128,74 129,74 130,74 131,74" fill="none" stroke="#f2e45c" stroke-width="3" stroke-linecap="round" stroke-linejoin="round" opacity="0.95">
    <title>2342 e:1</title>
  </polyline>
</svg>
