<?xml version="1.0" encoding="UTF-8"?>
<svg xmlns="http://www.w3.org/2000/svg" width="82" height="138" viewBox="0 0 82 138">
  <title>particle img3-m9-p2 a:1 b:1 c:1 a:1</title>
  <metadata>{&quot;entityType&quot;:&quot;particle&quot;,&quot;entityId&quot;:&quot;img3-m9-p2&quot;,&quot;token&quot;:&quot;a:1 b:1 c:1 a:1&quot;,&quot;signature&quot;:&quot;a:1 b:1 c:1 a:1&quot;,&quot;imageName&quot;:&quot;page-003.jpg&quot;,&quot;imageId&quot;:3,&quot;bounds&quot;:{&quot;x&quot;:885,&quot;y&quot;:438,&quot;w&quot;:82,&quot;h&quot;:138},&quot;atoms&quot;:[{&quot;id&quot;:1008,&quot;token&quot;:&quot;a:1&quot;,&quot;particle_id&quot;:&quot;img3-m9-p2&quot;,&quot;molecule_id&quot;:&quot;img3-m9&quot;,&quot;atom_order&quot;:1},{&quot;id&quot;:1010,&quot;token&quot;:&quot;b:1&quot;,&quot;particle_id&quot;:&quot;img3-m9-p2&quot;,&quot;molecule_id&quot;:&quot;img3-m9&quot;,&quot;atom_order&quot;:2},{&quot;id&quot;:1011,&quot;token&quot;:&quot;c:1&quot;,&quot;particle_id&quot;:&quot;img3-m9-p2&quot;,&quot;molecule_id&quot;:&quot;img3-m9&quot;,&quot;atom_order&quot;:3},{&quot;id&quot;:1012,&quot;token&quot;:&quot;a:1&quot;,&quot;particle_id&quot;:&quot;img3-m9-p2&quot;,&quot;molecule_id&quot;:&quot;img3-m9&quot;,&quot;atom_order&quot;:4}]}</metadata>
  <rect x="0" y="0" width="82" height="138" fill="#f8f0d8"/>
  <image href="file:///C:/Users/HHHES/AppData/Roaming/com.voynichlab.datasetcreator/images/1/35a70f63-88ab-4986-b441-b78046a10087.jpg" x="-885" y="-438" width="2972" height="3766" opacity="0.92"/>
  <rect x="0.5" y="0.5" width="81" height="137" fill="none" stroke="#111827" stroke-width="1" opacity="0.35"/>
  <polyline points="16,117 16,116 17,116 17,115 17,114 17,113 17,112 17,111 17,110 17,109 17,108 17,107 17,106 17,105 17,104 17,103 18,102 18,101 18,100 18,99 18,98 18,97 18,96 18,95 18,94 18,93 18,92 18,91 18,90 19,90 19,89 19,88 19,87 19,86 19,85 19,84 19,83 19,82 19,81 19,80 19,79 19,78 19,77 19,76 19,75 19,74 19,73 19,72 19,71 19,70 19,69 19,68 19,67 19,66 19,65 19,64 19,63 19,62 19,61 19,60 19,59 19,58 19,57 19,56 19,55 19,54 19,53 19,52 19,51 19,50 19,49 19,48 19,47 19,46 19,45 19,44 19,43 19,42 19,41 19,40 19,39 19,38 19,37 19,36 18,35 18,34 18,33 18,32 18,31 18,30 18,29 18,28 17,28 17,27 17,26 17,25 17,24" fill="none" stroke="#00f0b5" stroke-width="3" stroke-linecap="round" stroke-linejoin="round" opacity="0.95">
    <title>1008 a:1</title>
  </polyline>
  <polyline points="17,24 17,25 18,25 18,26 18,27 18,28 19,28 19,29 19,30 20,30 20,31 20,32 21,32 21,33 21,34 22,34 22,35 23,36 24,37 25,38 26,38 26,39 27,39 27,40 28,40 29,40 30,40 31,40 32,40 33,40 33,41 34,41 35,41 36,41 37,41 38,41 39,41 40,41 41,41 42,41 43,41 44,41 45,41 46,41 47,41 47,40 48,40 49,40 50,40 51,40 52,40 53,39 54,39 54,38 55,38 56,38 56,37 57,37 57,36 58,36 58,35 59,35 60,34 61,34 61,33 62,32" fill="none" stroke="#2f7df6" stroke-width="3" stroke-linecap="round" stroke-linejoin="round" opacity="0.95">
    <title>1010 b:1</title>
  </polyline>
  <polyline points="63,31 64,31 64,30 65,29 65,28 65,27 66,27 66,26 66,25 66,24 66,23 66,22 66,21 66,20 65,20 65,19 64,19 63,19 63,18 62,18 61,18 61,17 60,17 59,17 58,17 58,16 57,16 56,16 55,16 54,16 53,16 52,16 52,17 51,17 50,17 49,17 48,17 48,18 47,18 46,18 46,19 45,19 44,19 44,20 43,20 42,20 41,20 41,21 40,21 39,21 39,22 38,22 38,23 37,23 36,24 35,24 35,25 35,26 35,27 35,28 34,28 34,29 34,30 34,31 34,32 34,33 34,34 34,35 34,36 35,36 35,37 36,37 37,37 37,38 38,38 39,38 39,39 40,39 41,39 42,39 43,39 44,39 45,39 46,39 47,39 48,39 49,39 50,39 50,38 51,38 52,38 53,38 53,37 54,37 55,37 55,36 56,36 57,36 58,36 58,35 59,35 60,34 61,34 61,33 62,33 63,32 63,31 64,31" fill="none" stroke="#8aff00" stroke-width="3" stroke-linecap="round" stroke-linejoin="round" opacity="0.95">
    <title>1011 c:1</title>
  </polyline>
  <polyline points="33,122 33,121 34,121 34,120 34,119 34,118 34,117 34,116 34,115 34,114 34,113 34,112 34,111 34,110 34,109 34,108 35,107 35,106 35,105 35,104 35,103 35,102 35,101 35,100 35,99 35,98 35,97 35,96 35,95 36,95 36,94 36,93 36,92 36,91 36,90 36,89 36,88 36,87 36,86 36,85 36,84 36,83 36,82 36,81 36,80 36,79 36,78 36,77 36,76 36,75 36,74 36,73 36,72 36,71 36,70 36,69 36,68 36,67 36,66 36,65 36,64 36,63 36,62 36,61 36,60 36,59 36,58 36,57 36,56 36,55 36,54 36,53 36,52 36,51 36,50 36,49 36,48 36,47 36,46 36,45 36,44 36,43 36,42 36,41 35,40 35,39 35,38 35,37 35,36 35,35 35,34 35,33 34,33 34,32 34,31 34,30 34,29" fill="none" stroke="#00f0b5" stroke-width="3" stroke-linecap="round" stroke-linejoin="round" opacity="0.95">
    <title>1012 a:1</title>
  </polyline>
</svg>
