<?xml version="1.0" encoding="UTF-8"?>
<svg xmlns="http://www.w3.org/2000/svg" width="98" height="55" viewBox="0 0 98 55">
  <title>particle img3-m142-p2 e:1 g:1 e:1</title>
  <metadata>{&quot;entityType&quot;:&quot;particle&quot;,&quot;entityId&quot;:&quot;img3-m142-p2&quot;,&quot;token&quot;:&quot;e:1 g:1 e:1&quot;,&quot;signature&quot;:&quot;e:1 g:1 e:1&quot;,&quot;imageName&quot;:&quot;page-003.jpg&quot;,&quot;imageId&quot;:3,&quot;bounds&quot;:{&quot;x&quot;:555,&quot;y&quot;:2238,&quot;w&quot;:98,&quot;h&quot;:55},&quot;atoms&quot;:[{&quot;id&quot;:3522,&quot;token&quot;:&quot;e:1&quot;,&quot;particle_id&quot;:&quot;img3-m142-p2&quot;,&quot;molecule_id&quot;:&quot;img3-m142&quot;,&quot;atom_order&quot;:1},{&quot;id&quot;:3570,&quot;token&quot;:&quot;g:1&quot;,&quot;particle_id&quot;:&quot;img3-m142-p2&quot;,&quot;molecule_id&quot;:&quot;img3-m142&quot;,&quot;atom_order&quot;:2},{&quot;id&quot;:3523,&quot;token&quot;:&quot;e:1&quot;,&quot;particle_id&quot;:&quot;img3-m142-p2&quot;,&quot;molecule_id&quot;:&quot;img3-m142&quot;,&quot;atom_order&quot;:3}]}</metadata>
  <rect x="0" y="0" width="98" height="55" fill="#f8f0d8"/>
  <image href="file:///C:/Users/HHHES/AppData/Roaming/com.voynichlab.datasetcreator/images/1/35a70f63-88ab-4986-b441-b78046a10087.jpg" x="-555" y="-2238" width="2972" height="3766" opacity="0.92"/>
  <rect x="0.5" y="0.5" width="97" height="54" fill="none" stroke="#111827" stroke-width="1" opacity="0.35"/>
  <polyline points="31,36 31,37 30,37 30,38 29,38 28,38 28,39 27,39 26,39 25,39 24,39 23,39 22,39 21,39 21,38 20,38 19,38 18,38 18,37 17,37 16,37 16,36 16,35 16,34 16,33 16,32 16,31 16,30 17,30 17,29 17,28 17,27 18,27 18,26 18,25 19,25 19,24 19,23 20,23 21,23 21,22 22,22 22,21 23,21 24,21 24,20 25,20 26,20 27,20 27,19" fill="none" stroke="#f2e45c" stroke-width="3" stroke-linecap="round" stroke-linejoin="round" opacity="0.95">
    <title>3522 e:1</title>
  </polyline>
  <polyline points="26,20 27,20 28,20 30,20 31,20 32,20 33,20 35,20 36,20 37,20 38,20 39,20 40,21 41,21 42,21 43,21 44,21 45,21 46,21 47,21 48,21 49,21 51,21 52,20 53,20 54,20 55,20 56,20 57,20 58,20 59,20 60,20 61,20 62,20 63,20 64,19 65,19 66,19 67,19 67,18 68,18 69,18 70,17 71,17 72,17 73,17 74,17 75,17 76,17 77,17 78,17 79,17 78,17" fill="none" stroke="#7c3cff" stroke-width="3" stroke-linecap="round" stroke-linejoin="round" opacity="0.95">
    <title>3570 g:1</title>
  </polyline>
  <polyline points="82,33 82,34 81,34 81,35 80,35 79,35 79,36 78,36 77,36 76,36 75,36 74,36 73,36 72,36 72,35 71,35 70,35 69,35 69,34 68,34 67,34 67,33 67,32 67,31 67,30 67,29 67,28 67,27 68,27 68,26 68,25 68,24 69,24 69,23 69,22 70,22 70,21 70,20 71,20 72,20 72,19 73,19 73,18 74,18 75,18 75,17 76,17 77,17 78,17 78,16" fill="none" stroke="#f2e45c" stroke-width="3" stroke-linecap="round" stroke-linejoin="round" opacity="0.95">
    <title>3523 e:1</title>
  </polyline>
</svg>
