<?xml version="1.0" encoding="UTF-8"?>
<svg xmlns="http://www.w3.org/2000/svg" width="93" height="103" viewBox="0 0 93 103">
  <title>particle img3-m45-p2 e:1 h:1 e:1 c:1 h:2</title>
  <metadata>{&quot;entityType&quot;:&quot;particle&quot;,&quot;entityId&quot;:&quot;img3-m45-p2&quot;,&quot;token&quot;:&quot;e:1 h:1 e:1 c:1 h:2&quot;,&quot;signature&quot;:&quot;e:1 h:1 e:1 c:1 h:2&quot;,&quot;imageName&quot;:&quot;page-003.jpg&quot;,&quot;imageId&quot;:3,&quot;bounds&quot;:{&quot;x&quot;:1471,&quot;y&quot;:1040,&quot;w&quot;:93,&quot;h&quot;:103},&quot;atoms&quot;:[{&quot;id&quot;:1835,&quot;token&quot;:&quot;e:1&quot;,&quot;particle_id&quot;:&quot;img3-m45-p2&quot;,&quot;molecule_id&quot;:&quot;img3-m45&quot;,&quot;atom_order&quot;:1},{&quot;id&quot;:4649,&quot;token&quot;:&quot;h:1&quot;,&quot;particle_id&quot;:&quot;img3-m45-p2&quot;,&quot;molecule_id&quot;:&quot;img3-m45&quot;,&quot;atom_order&quot;:2},{&quot;id&quot;:1836,&quot;token&quot;:&quot;e:1&quot;,&quot;particle_id&quot;:&quot;img3-m45-p2&quot;,&quot;molecule_id&quot;:&quot;img3-m45&quot;,&quot;atom_order&quot;:3},{&quot;id&quot;:1840,&quot;token&quot;:&quot;c:1&quot;,&quot;particle_id&quot;:&quot;img3-m45-p2&quot;,&quot;molecule_id&quot;:&quot;img3-m45&quot;,&quot;atom_order&quot;:4},{&quot;id&quot;:1841,&quot;token&quot;:&quot;h:2&quot;,&quot;particle_id&quot;:&quot;img3-m45-p2&quot;,&quot;molecule_id&quot;:&quot;img3-m45&quot;,&quot;atom_order&quot;:5}]}</metadata>
  <rect x="0" y="0" width="93" height="103" fill="#f8f0d8"/>
  <image href="file:///C:/Users/HHHES/AppData/Roaming/com.voynichlab.datasetcreator/images/1/35a70f63-88ab-4986-b441-b78046a10087.jpg" x="-1471" y="-1040" width="2972" height="3766" opacity="0.92"/>
  <rect x="0.5" y="0.5" width="92" height="102" fill="none" stroke="#111827" stroke-width="1" opacity="0.35"/>
  <polyline points="31,54 31,55 30,55 30,56 29,56 28,56 28,57 27,57 26,57 25,57 24,57 23,57 22,57 21,57 21,56 20,56 19,56 18,56 18,55 17,55 16,55 16,54 16,53 16,52 16,51 16,50 16,49 16,48 17,48 17,47 17,46 17,45 18,45 18,44 18,43 19,43 19,42 19,41 20,41 21,41 21,40 22,40 22,39 23,39 24,39 24,38 25,38 26,38 27,38 27,37" fill="none" stroke="#f2e45c" stroke-width="3" stroke-linecap="round" stroke-linejoin="round" opacity="0.95">
    <title>1835 e:1</title>
  </polyline>
  <polyline points="26,37 27,37 27,38 28,38 29,38 29,39 29,40 30,40 31,41 32,42 33,43 34,44 34,45 35,45 35,46 36,46 36,47 36,48 37,49 37,50 37,51 37,52 38,52 38,53 38,54 38,55 38,56 38,57 38,58 37,58 37,59 37,60 37,61 37,62 36,63 36,64 36,65 35,66 35,67 34,67 34,68 33,69 33,70 32,70 32,71 31,71 31,72 30,72 30,73 29,73 29,74 28,75 28,76 27,76 27,77 26,77 26,78 25,78 25,79 24,79 24,80 23,80 23,81 22,82 22,83 21,83 21,84 20,85 20,86 19,87" fill="none" stroke="#ff8c00" stroke-width="3" stroke-linecap="round" stroke-linejoin="round" opacity="0.95">
    <title>4649 h:1</title>
  </polyline>
  <polyline points="69,56 69,57 68,57 68,58 67,58 66,58 66,59 65,59 64,59 63,59 62,59 61,59 60,59 59,59 59,58 58,58 57,58 56,58 56,57 55,57 54,57 54,56 54,55 54,54 54,53 54,52 54,51 54,50 55,50 55,49 55,48 55,47 56,47 56,46 56,45 57,45 57,44 57,43 58,43 59,43 59,42 60,42 60,41 61,41 62,41 62,40 63,40 64,40 65,40 65,39" fill="none" stroke="#f2e45c" stroke-width="3" stroke-linecap="round" stroke-linejoin="round" opacity="0.95">
    <title>1836 e:1</title>
  </polyline>
  <polyline points="62,34 63,34 63,35 64,35 65,35 65,36 66,36 67,36 68,36 69,36 69,35 70,35 71,35 71,34 72,34 72,33 73,33 73,32 74,32 74,31 74,30 75,30 75,29 76,29 76,28 76,27 76,26 76,25 77,25 77,24 77,23 76,22 76,21 76,20 75,20 75,19 74,19 74,18 73,18 72,18 72,17 71,17 70,17 69,17 68,17 68,16 67,16 66,16 65,16 64,16 64,17 63,17 62,17 62,18 61,18 60,19 59,19 59,20 58,20 58,21 58,22 57,22 57,23 57,24 57,25 56,25 56,26 56,27 56,28 57,28 57,29 57,30 58,30 58,31 58,32 59,32 59,33 60,33 60,34 61,34 62,34 62,35 63,35" fill="none" stroke="#8aff00" stroke-width="3" stroke-linecap="round" stroke-linejoin="round" opacity="0.95">
    <title>1840 c:1</title>
  </polyline>
  <polyline points="66,58 66,57 67,57 68,57 69,56 70,56 70,55 71,55 71,54 71,53 72,53 72,52 72,51 72,50 72,49 72,48 72,47 72,46 71,46 71,45 70,44 70,43 69,43 69,42 68,42 68,41 67,41 67,40 66,40 66,39 65,39 64,38 63,38 63,37 62,37 62,36 61,36 60,36 60,35 59,35 59,34 58,34 58,33 58,32 57,32 57,31 56,30 56,29 56,28 56,27 56,26 57,25 57,24 57,23 58,23 58,22 58,21 59,21" fill="none" stroke="#ff8c00" stroke-width="3" stroke-linecap="round" stroke-linejoin="round" opacity="0.95">
    <title>1841 h:2</title>
  </polyline>
</svg>
