<?xml version="1.0" encoding="UTF-8"?>
<svg xmlns="http://www.w3.org/2000/svg" width="77" height="99" viewBox="0 0 77 99">
  <title>particle img3-m109-p2 a:1 b:1 c:1 a:1</title>
  <metadata>{&quot;entityType&quot;:&quot;particle&quot;,&quot;entityId&quot;:&quot;img3-m109-p2&quot;,&quot;token&quot;:&quot;a:1 b:1 c:1 a:1&quot;,&quot;signature&quot;:&quot;a:1 b:1 c:1 a:1&quot;,&quot;imageName&quot;:&quot;page-003.jpg&quot;,&quot;imageId&quot;:3,&quot;bounds&quot;:{&quot;x&quot;:1121,&quot;y&quot;:1871,&quot;w&quot;:77,&quot;h&quot;:99},&quot;atoms&quot;:[{&quot;id&quot;:3298,&quot;token&quot;:&quot;a:1&quot;,&quot;particle_id&quot;:&quot;img3-m109-p2&quot;,&quot;molecule_id&quot;:&quot;img3-m109&quot;,&quot;atom_order&quot;:1},{&quot;id&quot;:3295,&quot;token&quot;:&quot;b:1&quot;,&quot;particle_id&quot;:&quot;img3-m109-p2&quot;,&quot;molecule_id&quot;:&quot;img3-m109&quot;,&quot;atom_order&quot;:2},{&quot;id&quot;:3266,&quot;token&quot;:&quot;c:1&quot;,&quot;particle_id&quot;:&quot;img3-m109-p2&quot;,&quot;molecule_id&quot;:&quot;img3-m109&quot;,&quot;atom_order&quot;:3},{&quot;id&quot;:3299,&quot;token&quot;:&quot;a:1&quot;,&quot;particle_id&quot;:&quot;img3-m109-p2&quot;,&quot;molecule_id&quot;:&quot;img3-m109&quot;,&quot;atom_order&quot;:4}]}</metadata>
  <rect x="0" y="0" width="77" height="99" fill="#f8f0d8"/>
  <image href="file:///C:/Users/HHHES/AppData/Roaming/com.voynichlab.datasetcreator/images/1/35a70f63-88ab-4986-b441-b78046a10087.jpg" x="-1121" y="-1871" width="2972" height="3766" opacity="0.92"/>
  <rect x="0.5" y="0.5" width="76" height="98" fill="none" stroke="#111827" stroke-width="1" opacity="0.35"/>
  <polyline points="16,29 16,30 17,30 17,31 17,32 18,33 18,34 18,35 18,36 18,37 18,38 18,39 18,40 18,41 18,42 18,43 18,44 18,45 18,46 19,47 19,48 19,49 19,50 19,51 19,52 19,53 19,54 19,55 19,56 19,57 19,58 20,58 20,59 20,60 20,61 20,62 20,63 20,64 20,65 20,66 20,67 20,68 20,69 20,70 20,71 20,72 20,73 20,74 20,75 20,76 20,77 20,78 20,79 20,80 20,81 20,82 20,83 20,82 20,81 20,80" fill="none" stroke="#00f0b5" stroke-width="3" stroke-linecap="round" stroke-linejoin="round" opacity="0.95">
    <title>3298 a:1</title>
  </polyline>
  <polyline points="16,29 16,30 17,30 17,31 18,31 18,32 19,32 19,33 20,33 20,34 21,34 21,35 22,35 23,35 23,36 24,36 25,36 26,37 27,37 28,37 29,37 30,37 31,37 32,37 33,37 34,37 35,37 36,37 37,37 38,37 39,37 40,36 41,36 42,36 43,36 44,36 45,35 46,35 47,35 48,34 49,34 50,33 51,33 51,32 52,32 53,31 54,30 55,30 55,29 56,29" fill="none" stroke="#2f7df6" stroke-width="3" stroke-linecap="round" stroke-linejoin="round" opacity="0.95">
    <title>3295 b:1</title>
  </polyline>
  <polyline points="54,29 55,29 56,28 57,28 57,27 58,27 58,26 59,26 60,25 60,24 61,24 61,23 61,22 61,21 61,20 61,19 60,19 59,19 59,18 58,18 58,17 57,17 56,17 55,17 54,17 54,16 53,16 52,16 51,16 50,16 49,16 48,16 47,16 46,16 45,16 45,17 44,17 43,17 43,18 42,18 42,19 41,19 41,20 41,21 40,22 40,23 40,24 40,25 40,26 41,26 41,27 41,28 42,28 42,29 43,29 43,30 44,30 45,30 46,30 47,30 48,30 49,30 50,30 51,30 52,30 53,30 54,29 55,29" fill="none" stroke="#8aff00" stroke-width="3" stroke-linecap="round" stroke-linejoin="round" opacity="0.95">
    <title>3266 c:1</title>
  </polyline>
  <polyline points="40,23 40,24 40,25 40,26 40,27 40,28 40,29 40,30 40,31 40,32 40,33 40,34 40,35 40,36 40,37 40,38 40,39 40,40 40,41 40,43 40,44 40,45 40,46 39,47 39,48 39,50 39,51 39,52 39,53 39,55 39,56 39,57 39,58 38,59 38,60 38,61 38,62 38,63 38,64 38,65 38,66 38,67 38,68 38,69 38,70 38,71 38,72 38,73 38,74 39,74 39,75 39,76 39,77 39,78 39,79 39,80 39,81 39,82 39,83" fill="none" stroke="#00f0b5" stroke-width="3" stroke-linecap="round" stroke-linejoin="round" opacity="0.95">
    <title>3299 a:1</title>
  </polyline>
</svg>
