<?xml version="1.0" encoding="UTF-8"?>
<svg xmlns="http://www.w3.org/2000/svg" width="82" height="116" viewBox="0 0 82 116">
  <title>particle img3-m186-p1 a:1 b:1 c:1 a:1</title>
  <metadata>{&quot;entityType&quot;:&quot;particle&quot;,&quot;entityId&quot;:&quot;img3-m186-p1&quot;,&quot;token&quot;:&quot;a:1 b:1 c:1 a:1&quot;,&quot;signature&quot;:&quot;a:1 b:1 c:1 a:1&quot;,&quot;imageName&quot;:&quot;page-003.jpg&quot;,&quot;imageId&quot;:3,&quot;bounds&quot;:{&quot;x&quot;:1611,&quot;y&quot;:2840,&quot;w&quot;:82,&quot;h&quot;:116},&quot;atoms&quot;:[{&quot;id&quot;:4199,&quot;token&quot;:&quot;a:1&quot;,&quot;particle_id&quot;:&quot;img3-m186-p1&quot;,&quot;molecule_id&quot;:&quot;img3-m186&quot;,&quot;atom_order&quot;:1},{&quot;id&quot;:4214,&quot;token&quot;:&quot;b:1&quot;,&quot;particle_id&quot;:&quot;img3-m186-p1&quot;,&quot;molecule_id&quot;:&quot;img3-m186&quot;,&quot;atom_order&quot;:2},{&quot;id&quot;:4166,&quot;token&quot;:&quot;c:1&quot;,&quot;particle_id&quot;:&quot;img3-m186-p1&quot;,&quot;molecule_id&quot;:&quot;img3-m186&quot;,&quot;atom_order&quot;:3},{&quot;id&quot;:4200,&quot;token&quot;:&quot;a:1&quot;,&quot;particle_id&quot;:&quot;img3-m186-p1&quot;,&quot;molecule_id&quot;:&quot;img3-m186&quot;,&quot;atom_order&quot;:4}]}</metadata>
  <rect x="0" y="0" width="82" height="116" fill="#f8f0d8"/>
  <image href="file:///C:/Users/HHHES/AppData/Roaming/com.voynichlab.datasetcreator/images/1/35a70f63-88ab-4986-b441-b78046a10087.jpg" x="-1611" y="-2840" width="2972" height="3766" opacity="0.92"/>
  <rect x="0.5" y="0.5" width="81" height="115" fill="none" stroke="#111827" stroke-width="1" opacity="0.35"/>
  <polyline points="16,93 16,92 17,91 17,90 17,89 17,88 17,87 18,86 18,85 18,84 18,83 18,82 18,81 17,81 17,80 17,79 17,78 17,77 17,76 17,75 17,74 17,73 17,72 17,71 17,70 17,69 17,68 17,67 17,66 17,65 17,64 17,63 17,62 17,61 17,60 18,59 18,58 18,57 18,56 18,55 18,54 19,53 19,52 19,51 19,50 19,49 19,48 19,47 19,46 19,45 19,44 19,43 19,42 20,41 20,40 20,39 20,38 20,37 20,36 20,35 20,34 20,33 20,32 20,31 20,30 20,29 20,28 20,27 20,26 20,25 20,24 20,23 20,22 20,21 20,20 20,19 20,18 20,17 20,16" fill="none" stroke="#00f0b5" stroke-width="3" stroke-linecap="round" stroke-linejoin="round" opacity="0.95">
    <title>4199 a:1</title>
  </polyline>
  <polyline points="19,23 19,24 20,24 20,25 21,25 21,26 22,26 22,27 23,27 23,28 23,29 24,30 24,31 25,31 25,32 26,32 27,33 29,34 30,34 32,35 33,35 35,36 36,36 37,36 39,36 40,36 42,36 43,36 44,36 46,36 47,36 48,36 49,36 51,36 53,36 54,36 55,36 55,35 56,35 57,35 58,35 59,35 59,34 60,34" fill="none" stroke="#2f7df6" stroke-width="3" stroke-linecap="round" stroke-linejoin="round" opacity="0.95">
    <title>4214 b:1</title>
  </polyline>
  <polyline points="43,24 43,25 43,26 43,27 43,28 43,29 44,30 44,31 45,31 45,32 46,32 47,32 48,33 49,33 50,33 51,34 52,34 53,34 53,35 54,35 55,35 56,35 57,35 58,35 59,35 60,35 61,35 61,34 62,34 63,34 63,33 64,33 64,32 65,31 65,30 66,29 66,28 66,27 66,26 66,25 66,24 65,24 65,23 65,22 64,22 64,21 64,20 63,20 63,19 62,19 61,19 60,18 59,18 58,18 57,18 56,17 55,17 54,17 53,17 52,18 51,18 50,18 49,19 48,19 47,20 46,20 46,21 45,21 44,21 44,22 43,22 43,23 43,24 42,24 42,25 42,26" fill="none" stroke="#8aff00" stroke-width="3" stroke-linecap="round" stroke-linejoin="round" opacity="0.95">
    <title>4166 c:1</title>
  </polyline>
  <polyline points="39,100 39,99 40,98 40,97 40,96 40,95 40,94 41,93 41,92 41,91 41,90 41,89 41,88 40,88 40,87 40,86 40,85 40,84 40,83 40,82 40,81 40,80 40,79 40,78 40,77 40,76 40,75 40,74 40,73 40,72 40,71 40,70 40,69 40,68 40,67 41,66 41,65 41,64 41,63 41,62 41,61 42,60 42,59 42,58 42,57 42,56 42,55 42,54 42,53 42,52 42,51 42,50 42,49 43,48 43,47 43,46 43,45 43,44 43,43 43,42 43,41 43,40 43,39 43,38 43,37 43,36 43,35 43,34 43,33 43,32 43,31 43,30 43,29 43,28 43,27 43,26 43,25 43,24 43,23" fill="none" stroke="#00f0b5" stroke-width="3" stroke-linecap="round" stroke-linejoin="round" opacity="0.95">
    <title>4200 a:1</title>
  </polyline>
</svg>
