<?xml version="1.0" encoding="UTF-8"?>
<svg xmlns="http://www.w3.org/2000/svg" width="89" height="81" viewBox="0 0 89 81">
  <title>particle img3-m87-p5 l:1 f:1 i:1 d:1</title>
  <metadata>{&quot;entityType&quot;:&quot;particle&quot;,&quot;entityId&quot;:&quot;img3-m87-p5&quot;,&quot;token&quot;:&quot;l:1 f:1 i:1 d:1&quot;,&quot;signature&quot;:&quot;l:1 f:1 i:1 d:1&quot;,&quot;imageName&quot;:&quot;page-003.jpg&quot;,&quot;imageId&quot;:3,&quot;bounds&quot;:{&quot;x&quot;:2251,&quot;y&quot;:1653,&quot;w&quot;:89,&quot;h&quot;:81},&quot;atoms&quot;:[{&quot;id&quot;:2454,&quot;token&quot;:&quot;l:1&quot;,&quot;particle_id&quot;:&quot;img3-m87-p5&quot;,&quot;molecule_id&quot;:&quot;img3-m87&quot;,&quot;atom_order&quot;:1},{&quot;id&quot;:2442,&quot;token&quot;:&quot;f:1&quot;,&quot;particle_id&quot;:&quot;img3-m87-p5&quot;,&quot;molecule_id&quot;:&quot;img3-m87&quot;,&quot;atom_order&quot;:2},{&quot;id&quot;:2456,&quot;token&quot;:&quot;i:1&quot;,&quot;particle_id&quot;:&quot;img3-m87-p5&quot;,&quot;molecule_id&quot;:&quot;img3-m87&quot;,&quot;atom_order&quot;:3},{&quot;id&quot;:2457,&quot;token&quot;:&quot;d:1&quot;,&quot;particle_id&quot;:&quot;img3-m87-p5&quot;,&quot;molecule_id&quot;:&quot;img3-m87&quot;,&quot;atom_order&quot;:4}]}</metadata>
  <rect x="0" y="0" width="89" height="81" fill="#f8f0d8"/>
  <image href="file:///C:/Users/HHHES/AppData/Roaming/com.voynichlab.datasetcreator/images/1/35a70f63-88ab-4986-b441-b78046a10087.jpg" x="-2251" y="-1653" width="2972" height="3766" opacity="0.92"/>
  <rect x="0.5" y="0.5" width="88" height="80" fill="none" stroke="#111827" stroke-width="1" opacity="0.35"/>
  <polyline points="16,43 16,44 16,45 17,45 17,46 18,46 18,47 18,48 19,48 19,49 19,50 20,50 20,51 21,51 21,52 21,53 22,54 22,55 22,56 23,56 23,57 24,57 24,58 24,59 25,59 25,60 26,60 27,60 28,60 28,59 29,59 29,58 30,58 30,57 30,56 31,56 32,56 32,55 32,54 33,54 33,53 34,53 35,53 35,52 36,52 36,51 37,51 37,50 38,50 38,49 39,49 39,48 40,48 40,47 41,47 41,46 42,46 42,45" fill="none" stroke="#ff5f1f" stroke-width="3" stroke-linecap="round" stroke-linejoin="round" opacity="0.95">
    <title>2454 l:1</title>
  </polyline>
  <polyline points="42,44 42,45 42,46 43,46 43,47 43,48 44,48 44,49 45,50 45,51 46,51 46,52 47,53 47,54 48,54 48,55 49,55 49,56 50,56 50,57 50,58 51,58 51,59 51,60 52,60 52,61 53,61 53,62 54,63 54,64 55,64 55,65" fill="none" stroke="#00a2ff" stroke-width="3" stroke-linecap="round" stroke-linejoin="round" opacity="0.95">
    <title>2442 f:1</title>
  </polyline>
  <polyline points="56,64 57,64 58,64 58,63 59,62 65,58 67,56 68,56 68,55 69,55 69,54 70,54 70,53 70,52 71,52 71,51 72,50 72,49 72,48 73,48 73,47 73,46 73,45 73,44 73,43 73,42 73,41 73,40 73,39 72,39 72,38 72,37 71,36 71,35 70,34 70,33 69,33 69,32 69,31 68,31 68,30 67,30 67,29 66,29 66,28 65,27 65,26 64,26 64,25 63,25 62,24 61,23" fill="none" stroke="#00ff7f" stroke-width="3" stroke-linecap="round" stroke-linejoin="round" opacity="0.95">
    <title>2456 i:1</title>
  </polyline>
  <polyline points="27,21 27,20 28,20 28,19 29,19 30,19 30,18 31,18 32,18 32,17 33,17 34,17 35,17 36,17 37,16 38,16 39,16 40,16 41,16 42,16 43,16 44,16 45,16 45,17 46,17 47,17 48,17 49,17 49,18 50,18 51,18 51,19 52,19 53,19 53,20 54,20 55,20 55,21 56,21 57,21 57,22 58,22 58,23 59,23 60,23 60,24 61,24 62,24 62,25" fill="none" stroke="#ff2d55" stroke-width="3" stroke-linecap="round" stroke-linejoin="round" opacity="0.95">
    <title>2457 d:1</title>
  </polyline>
</svg>
