<?xml version="1.0" encoding="UTF-8"?>
<svg xmlns="http://www.w3.org/2000/svg" width="98" height="53" viewBox="0 0 98 53">
  <title>particle img3-m187-p2 e:1 g:1 e:1</title>
  <metadata>{&quot;entityType&quot;:&quot;particle&quot;,&quot;entityId&quot;:&quot;img3-m187-p2&quot;,&quot;token&quot;:&quot;e:1 g:1 e:1&quot;,&quot;signature&quot;:&quot;e:1 g:1 e:1&quot;,&quot;imageName&quot;:&quot;page-003.jpg&quot;,&quot;imageId&quot;:3,&quot;bounds&quot;:{&quot;x&quot;:704,&quot;y&quot;:2859,&quot;w&quot;:98,&quot;h&quot;:53},&quot;atoms&quot;:[{&quot;id&quot;:4113,&quot;token&quot;:&quot;e:1&quot;,&quot;particle_id&quot;:&quot;img3-m187-p2&quot;,&quot;molecule_id&quot;:&quot;img3-m187&quot;,&quot;atom_order&quot;:1},{&quot;id&quot;:4144,&quot;token&quot;:&quot;g:1&quot;,&quot;particle_id&quot;:&quot;img3-m187-p2&quot;,&quot;molecule_id&quot;:&quot;img3-m187&quot;,&quot;atom_order&quot;:2},{&quot;id&quot;:4114,&quot;token&quot;:&quot;e:1&quot;,&quot;particle_id&quot;:&quot;img3-m187-p2&quot;,&quot;molecule_id&quot;:&quot;img3-m187&quot;,&quot;atom_order&quot;:3}]}</metadata>
  <rect x="0" y="0" width="98" height="53" fill="#f8f0d8"/>
  <image href="file:///C:/Users/HHHES/AppData/Roaming/com.voynichlab.datasetcreator/images/1/35a70f63-88ab-4986-b441-b78046a10087.jpg" x="-704" y="-2859" width="2972" height="3766" opacity="0.92"/>
  <rect x="0.5" y="0.5" width="97" height="52" fill="none" stroke="#111827" stroke-width="1" opacity="0.35"/>
  <polyline points="31,34 31,35 30,35 30,36 29,36 28,36 28,37 27,37 26,37 25,37 24,37 23,37 22,37 21,37 21,36 20,36 19,36 18,36 18,35 17,35 16,35 16,34 16,33 16,32 16,31 16,30 16,29 16,28 17,28 17,27 17,26 17,25 18,25 18,24 18,23 19,23 19,22 19,21 20,21 21,21 21,20 22,20 22,19 23,19 24,19 24,18 25,18 26,18 27,18 27,17" fill="none" stroke="#f2e45c" stroke-width="3" stroke-linecap="round" stroke-linejoin="round" opacity="0.95">
    <title>4113 e:1</title>
  </polyline>
  <polyline points="25,18 26,18 27,18 29,18 30,18 31,18 32,18 35,18 38,18 42,18 46,18 49,18 51,18 53,18 54,17 55,17 57,17 59,17 61,17 63,17 65,17 67,17 68,17 69,17 70,17 71,17 72,17 73,17 74,17" fill="none" stroke="#7c3cff" stroke-width="3" stroke-linecap="round" stroke-linejoin="round" opacity="0.95">
    <title>4144 g:1</title>
  </polyline>
  <polyline points="82,33 82,34 81,34 81,35 80,35 79,35 79,36 78,36 77,36 76,36 75,36 74,36 73,36 72,36 72,35 71,35 70,35 69,35 69,34 68,34 67,34 67,33 67,32 67,31 67,30 67,29 67,28 67,27 68,27 68,26 68,25 68,24 69,24 69,23 69,22 70,22 70,21 70,20 71,20 72,20 72,19 73,19 73,18 74,18 75,18 75,17 76,17 77,17 78,17 78,16" fill="none" stroke="#f2e45c" stroke-width="3" stroke-linecap="round" stroke-linejoin="round" opacity="0.95">
    <title>4114 e:1</title>
  </polyline>
</svg>
