<?xml version="1.0" encoding="UTF-8"?>
<svg xmlns="http://www.w3.org/2000/svg" width="79" height="89" viewBox="0 0 79 89">
  <title>particle img3-m68-p7 e:1 i:1 d:1</title>
  <metadata>{&quot;entityType&quot;:&quot;particle&quot;,&quot;entityId&quot;:&quot;img3-m68-p7&quot;,&quot;token&quot;:&quot;e:1 i:1 d:1&quot;,&quot;signature&quot;:&quot;e:1 i:1 d:1&quot;,&quot;imageName&quot;:&quot;page-003.jpg&quot;,&quot;imageId&quot;:3,&quot;bounds&quot;:{&quot;x&quot;:2309,&quot;y&quot;:1462,&quot;w&quot;:79,&quot;h&quot;:89},&quot;atoms&quot;:[{&quot;id&quot;:2222,&quot;token&quot;:&quot;e:1&quot;,&quot;particle_id&quot;:&quot;img3-m68-p7&quot;,&quot;molecule_id&quot;:&quot;img3-m68&quot;,&quot;atom_order&quot;:1},{&quot;id&quot;:2224,&quot;token&quot;:&quot;i:1&quot;,&quot;particle_id&quot;:&quot;img3-m68-p7&quot;,&quot;molecule_id&quot;:&quot;img3-m68&quot;,&quot;atom_order&quot;:2},{&quot;id&quot;:2225,&quot;token&quot;:&quot;d:1&quot;,&quot;particle_id&quot;:&quot;img3-m68-p7&quot;,&quot;molecule_id&quot;:&quot;img3-m68&quot;,&quot;atom_order&quot;:3}]}</metadata>
  <rect x="0" y="0" width="79" height="89" fill="#f8f0d8"/>
  <image href="file:///C:/Users/HHHES/AppData/Roaming/com.voynichlab.datasetcreator/images/1/35a70f63-88ab-4986-b441-b78046a10087.jpg" x="-2309" y="-1462" width="2972" height="3766" opacity="0.92"/>
  <rect x="0.5" y="0.5" width="78" height="88" fill="none" stroke="#111827" stroke-width="1" opacity="0.35"/>
  <polyline points="42,70 42,71 41,71 41,72 40,72 39,72 39,73 38,73 37,73 36,73 35,73 34,73 33,73 32,73 32,72 31,72 30,72 29,72 29,71 28,71 27,71 27,70 27,69 27,68 27,67 27,66 27,65 27,64 28,64 28,63 28,62 28,61 29,61 29,60 29,59 30,59 30,58 30,57 31,57 32,57 32,56 33,56 33,55 34,55 35,55 35,54 36,54 37,54 38,54 38,53" fill="none" stroke="#f2e45c" stroke-width="3" stroke-linecap="round" stroke-linejoin="round" opacity="0.95">
    <title>2222 e:1</title>
  </polyline>
  <polyline points="38,54 40,53 41,53 42,52 43,52 44,51 45,50 46,50 46,49 47,49 48,48 49,48 50,47 51,46 52,46 52,45 53,45 54,44 55,43 56,42 57,41 58,40 58,39 59,39 59,37 60,36 61,36 61,35 61,34 61,33 62,33 62,32 63,31 63,30 63,28 63,27 63,26 62,25 62,24 62,23 61,23" fill="none" stroke="#00ff7f" stroke-width="3" stroke-linecap="round" stroke-linejoin="round" opacity="0.95">
    <title>2224 i:1</title>
  </polyline>
  <polyline points="16,34 17,33 18,33 18,32 18,31 19,31 19,30 20,30 21,29 21,28 22,28 23,28 23,27 24,27 24,26 25,26 25,25 26,25 26,24 27,24 27,23 28,23 29,23 29,22 30,22 30,21 31,21 31,20 32,20 33,20 33,19 34,19 35,19 35,18 36,18 37,18 37,17 38,17 39,17 40,17 41,17 41,16 42,16 43,16 44,16 47,16 48,16 48,17 49,17 50,17 51,17 51,18 52,18 53,19 54,19 55,19 55,20 56,20 57,20 57,21 58,21 58,22 59,22 60,22 60,23 61,23 62,23" fill="none" stroke="#ff2d55" stroke-width="3" stroke-linecap="round" stroke-linejoin="round" opacity="0.95">
    <title>2225 d:1</title>
  </polyline>
</svg>
