<?xml version="1.0" encoding="UTF-8"?>
<svg xmlns="http://www.w3.org/2000/svg" width="107" height="110" viewBox="0 0 107 110">
  <title>particle img3-m79-p2 a:1 m:1 c:1 a:1</title>
  <metadata>{&quot;entityType&quot;:&quot;particle&quot;,&quot;entityId&quot;:&quot;img3-m79-p2&quot;,&quot;token&quot;:&quot;a:1 m:1 c:1 a:1&quot;,&quot;signature&quot;:&quot;a:1 m:1 c:1 a:1&quot;,&quot;imageName&quot;:&quot;page-003.jpg&quot;,&quot;imageId&quot;:3,&quot;bounds&quot;:{&quot;x&quot;:998,&quot;y&quot;:1523,&quot;w&quot;:107,&quot;h&quot;:110},&quot;atoms&quot;:[{&quot;id&quot;:2248,&quot;token&quot;:&quot;a:1&quot;,&quot;particle_id&quot;:&quot;img3-m79-p2&quot;,&quot;molecule_id&quot;:&quot;img3-m79&quot;,&quot;atom_order&quot;:1},{&quot;id&quot;:3047,&quot;token&quot;:&quot;m:1&quot;,&quot;particle_id&quot;:&quot;img3-m79-p2&quot;,&quot;molecule_id&quot;:&quot;img3-m79&quot;,&quot;atom_order&quot;:2},{&quot;id&quot;:2250,&quot;token&quot;:&quot;c:1&quot;,&quot;particle_id&quot;:&quot;img3-m79-p2&quot;,&quot;molecule_id&quot;:&quot;img3-m79&quot;,&quot;atom_order&quot;:3},{&quot;id&quot;:2251,&quot;token&quot;:&quot;a:1&quot;,&quot;particle_id&quot;:&quot;img3-m79-p2&quot;,&quot;molecule_id&quot;:&quot;img3-m79&quot;,&quot;atom_order&quot;:4}]}</metadata>
  <rect x="0" y="0" width="107" height="110" fill="#f8f0d8"/>
  <image href="file:///C:/Users/HHHES/AppData/Roaming/com.voynichlab.datasetcreator/images/1/35a70f63-88ab-4986-b441-b78046a10087.jpg" x="-998" y="-1523" width="2972" height="3766" opacity="0.92"/>
  <rect x="0.5" y="0.5" width="106" height="109" fill="none" stroke="#111827" stroke-width="1" opacity="0.35"/>
  <polyline points="40,94 40,93 40,92 40,91 40,90 40,89 40,88 40,87 40,86 40,85 40,84 40,83 41,82 41,81 41,80 41,79 41,78 41,77 41,76 41,75 41,74 41,73 41,72 41,71 41,70 41,69 41,68 42,68 42,67 42,66 42,65 42,64 42,63 42,62 42,61 42,60 42,59 42,58 42,57 42,56 42,55 42,54 42,53 42,52 42,51 42,50 42,49 42,48 42,47 42,46" fill="none" stroke="#00f0b5" stroke-width="3" stroke-linecap="round" stroke-linejoin="round" opacity="0.95">
    <title>2248 a:1</title>
  </polyline>
  <polyline points="42,46 42,45 42,44 42,43 42,41 42,40 42,39 42,38 42,37 42,36 42,35 42,34 42,33 42,32 42,31 42,30 42,29 42,28 42,27 42,26 42,25 42,24 41,24 41,23 41,22 41,21 41,20 41,19 41,18 41,19 40,19 39,19 39,20 38,20 37,20 37,21 36,21 35,21 34,22 33,22 32,22 31,22 31,23 30,23 29,23 28,23 28,24 27,24 26,24 26,25 25,25 24,26 23,27 22,27 22,28 21,29 20,29 20,30 19,30 19,31 19,32 18,32 18,33 17,33 17,34 17,35 16,35 16,36 17,37 18,37 19,37 20,37 21,37 22,37 23,37 24,37 24,36 25,36 26,36 27,36 28,36 29,36 30,36 31,36 32,36 33,36 34,36 35,36 36,36 37,36 38,36 39,36 40,36 41,36 42,36 43,36 44,36 45,36 46,36 47,36 48,36 49,36 50,36 51,36 52,36 53,36 54,36 55,36 56,36 57,36 58,36 59,36" fill="none" stroke="#ff00ff" stroke-width="3" stroke-linecap="round" stroke-linejoin="round" opacity="0.95">
    <title>3047 m:1</title>
  </polyline>
  <polyline points="60,36 61,36 62,36 63,36 64,36 65,36 66,36 67,36 68,36 69,36 70,36 71,36 71,35 72,35 73,35 74,35 75,35 76,35 77,35 78,35 79,35 79,34 80,34 81,34 82,34 82,33 83,33 84,33 85,33 86,33 86,32 87,32 88,32 88,31 89,31 89,30 90,30 90,29 91,29 91,28 91,27 91,26 91,25 91,24 90,24 90,23 90,22 89,22 89,21 88,21 88,20 88,19 87,19 86,19 86,18 85,18 84,18 84,17 83,17 82,17 81,17 80,17 79,17 79,16 78,16 77,16 76,16 75,16 75,17 74,17 73,17 72,17 71,17 70,17 69,17 68,18 67,18 66,19 65,19 65,20 64,20 64,21 63,21 63,22 62,22 62,23 61,24 61,25 60,25 60,26 60,27 60,28 59,28 59,29 59,30 59,31 59,32 59,33 59,34 59,35 60,35 60,36 61,36" fill="none" stroke="#8aff00" stroke-width="3" stroke-linecap="round" stroke-linejoin="round" opacity="0.95">
    <title>2250 c:1</title>
  </polyline>
  <polyline points="59,35 59,36 59,37 59,38 59,39 59,40 59,41 59,42 59,43 59,44 59,45 59,46 59,47 60,47 60,48 60,49 60,50 60,51 60,52 60,53 60,54 60,55 60,56 60,57 60,58 60,59 60,60 60,61 60,62 60,63 60,64 60,65 60,66 60,67 60,68 60,69 61,69 61,70 61,71 61,72 61,73 61,74 61,75 62,76 62,77 62,78 62,79 62,80 62,81 62,82 62,83 62,84 62,85 63,85 63,86 63,87 63,88 63,87" fill="none" stroke="#00f0b5" stroke-width="3" stroke-linecap="round" stroke-linejoin="round" opacity="0.95">
    <title>2251 a:1</title>
  </polyline>
</svg>
