<?xml version="1.0" encoding="UTF-8"?>
<svg xmlns="http://www.w3.org/2000/svg" width="64" height="70" viewBox="0 0 64 70">
  <title>particle img3-m92-p3 f:1 i:1 d:1</title>
  <metadata>{&quot;entityType&quot;:&quot;particle&quot;,&quot;entityId&quot;:&quot;img3-m92-p3&quot;,&quot;token&quot;:&quot;f:1 i:1 d:1&quot;,&quot;signature&quot;:&quot;f:1 i:1 d:1&quot;,&quot;imageName&quot;:&quot;page-003.jpg&quot;,&quot;imageId&quot;:3,&quot;bounds&quot;:{&quot;x&quot;:2016,&quot;y&quot;:1755,&quot;w&quot;:64,&quot;h&quot;:70},&quot;atoms&quot;:[{&quot;id&quot;:2504,&quot;token&quot;:&quot;f:1&quot;,&quot;particle_id&quot;:&quot;img3-m92-p3&quot;,&quot;molecule_id&quot;:&quot;img3-m92&quot;,&quot;atom_order&quot;:1},{&quot;id&quot;:2506,&quot;token&quot;:&quot;i:1&quot;,&quot;particle_id&quot;:&quot;img3-m92-p3&quot;,&quot;molecule_id&quot;:&quot;img3-m92&quot;,&quot;atom_order&quot;:2},{&quot;id&quot;:2507,&quot;token&quot;:&quot;d:1&quot;,&quot;particle_id&quot;:&quot;img3-m92-p3&quot;,&quot;molecule_id&quot;:&quot;img3-m92&quot;,&quot;atom_order&quot;:3}]}</metadata>
  <rect x="0" y="0" width="64" height="70" fill="#f8f0d8"/>
  <image href="file:///C:/Users/HHHES/AppData/Roaming/com.voynichlab.datasetcreator/images/1/35a70f63-88ab-4986-b441-b78046a10087.jpg" x="-2016" y="-1755" width="2972" height="3766" opacity="0.92"/>
  <rect x="0.5" y="0.5" width="63" height="69" fill="none" stroke="#111827" stroke-width="1" opacity="0.35"/>
  <polyline points="25,33 25,34 25,35 26,35 26,36 26,37 27,37 27,38 28,39 28,40 29,40 29,41 30,42 30,43 31,43 31,44 32,44 32,45 33,45 33,46 33,47 34,47 34,48 34,49 35,49 35,50 36,50 36,51 37,52 37,53 38,53 38,54" fill="none" stroke="#00a2ff" stroke-width="3" stroke-linecap="round" stroke-linejoin="round" opacity="0.95">
    <title>2504 f:1</title>
  </polyline>
  <polyline points="35,49 36,49 36,48 37,48 38,48 39,47 40,47 41,46 41,45 42,45 42,44 43,44 43,43 43,42 44,42 44,41 44,40 45,40 45,39 46,39 46,38 46,37 47,37 47,36 48,36 48,35 48,34 48,33 48,32 48,31 48,30 48,29 48,28 48,27 48,26 48,25 48,24 47,23 47,22 46,22 46,21 45,21 44,20 43,20 43,19 42,19 42,18 41,18 40,18 40,17 39,17" fill="none" stroke="#00ff7f" stroke-width="3" stroke-linecap="round" stroke-linejoin="round" opacity="0.95">
    <title>2506 i:1</title>
  </polyline>
  <polyline points="16,20 17,20 17,19 18,18 19,18 19,17 20,17 21,17 21,16 22,16 23,16 24,16 25,16 26,16 27,16 28,16 29,16 30,16 31,16 32,16 33,16 34,16 35,16 36,16 37,16 38,17 39,17 40,17 40,18 41,18" fill="none" stroke="#ff2d55" stroke-width="3" stroke-linecap="round" stroke-linejoin="round" opacity="0.95">
    <title>2507 d:1</title>
  </polyline>
</svg>
