<?xml version="1.0" encoding="UTF-8"?>
<svg xmlns="http://www.w3.org/2000/svg" width="55" height="75" viewBox="0 0 55 75">
  <title>particle img3-m45-p3 e:1 c:1 h:2</title>
  <metadata>{&quot;entityType&quot;:&quot;particle&quot;,&quot;entityId&quot;:&quot;img3-m45-p3&quot;,&quot;token&quot;:&quot;e:1 c:1 h:2&quot;,&quot;signature&quot;:&quot;e:1 c:1 h:2&quot;,&quot;imageName&quot;:&quot;page-003.jpg&quot;,&quot;imageId&quot;:3,&quot;bounds&quot;:{&quot;x&quot;:1509,&quot;y&quot;:1040,&quot;w&quot;:55,&quot;h&quot;:75},&quot;atoms&quot;:[{&quot;id&quot;:1836,&quot;token&quot;:&quot;e:1&quot;,&quot;particle_id&quot;:&quot;img3-m45-p3&quot;,&quot;molecule_id&quot;:&quot;img3-m45&quot;,&quot;atom_order&quot;:1},{&quot;id&quot;:1840,&quot;token&quot;:&quot;c:1&quot;,&quot;particle_id&quot;:&quot;img3-m45-p3&quot;,&quot;molecule_id&quot;:&quot;img3-m45&quot;,&quot;atom_order&quot;:2},{&quot;id&quot;:1841,&quot;token&quot;:&quot;h:2&quot;,&quot;particle_id&quot;:&quot;img3-m45-p3&quot;,&quot;molecule_id&quot;:&quot;img3-m45&quot;,&quot;atom_order&quot;:3}]}</metadata>
  <rect x="0" y="0" width="55" height="75" fill="#f8f0d8"/>
  <image href="file:///C:/Users/HHHES/AppData/Roaming/com.voynichlab.datasetcreator/images/1/35a70f63-88ab-4986-b441-b78046a10087.jpg" x="-1509" y="-1040" width="2972" height="3766" opacity="0.92"/>
  <rect x="0.5" y="0.5" width="54" height="74" fill="none" stroke="#111827" stroke-width="1" opacity="0.35"/>
  <polyline points="31,56 31,57 30,57 30,58 29,58 28,58 28,59 27,59 26,59 25,59 24,59 23,59 22,59 21,59 21,58 20,58 19,58 18,58 18,57 17,57 16,57 16,56 16,55 16,54 16,53 16,52 16,51 16,50 17,50 17,49 17,48 17,47 18,47 18,46 18,45 19,45 19,44 19,43 20,43 21,43 21,42 22,42 22,41 23,41 24,41 24,40 25,40 26,40 27,40 27,39" fill="none" stroke="#f2e45c" stroke-width="3" stroke-linecap="round" stroke-linejoin="round" opacity="0.95">
    <title>1836 e:1</title>
  </polyline>
  <polyline points="24,34 25,34 25,35 26,35 27,35 27,36 28,36 29,36 30,36 31,36 31,35 32,35 33,35 33,34 34,34 34,33 35,33 35,32 36,32 36,31 36,30 37,30 37,29 38,29 38,28 38,27 38,26 38,25 39,25 39,24 39,23 38,22 38,21 38,20 37,20 37,19 36,19 36,18 35,18 34,18 34,17 33,17 32,17 31,17 30,17 30,16 29,16 28,16 27,16 26,16 26,17 25,17 24,17 24,18 23,18 22,19 21,19 21,20 20,20 20,21 20,22 19,22 19,23 19,24 19,25 18,25 18,26 18,27 18,28 19,28 19,29 19,30 20,30 20,31 20,32 21,32 21,33 22,33 22,34 23,34 24,34 24,35 25,35" fill="none" stroke="#8aff00" stroke-width="3" stroke-linecap="round" stroke-linejoin="round" opacity="0.95">
    <title>1840 c:1</title>
  </polyline>
  <polyline points="28,58 28,57 29,57 30,57 31,56 32,56 32,55 33,55 33,54 33,53 34,53 34,52 34,51 34,50 34,49 34,48 34,47 34,46 33,46 33,45 32,44 32,43 31,43 31,42 30,42 30,41 29,41 29,40 28,40 28,39 27,39 26,38 25,38 25,37 24,37 24,36 23,36 22,36 22,35 21,35 21,34 20,34 20,33 20,32 19,32 19,31 18,30 18,29 18,28 18,27 18,26 19,25 19,24 19,23 20,23 20,22 20,21 21,21" fill="none" stroke="#ff8c00" stroke-width="3" stroke-linecap="round" stroke-linejoin="round" opacity="0.95">
    <title>1841 h:2</title>
  </polyline>
</svg>
