<?xml version="1.0" encoding="UTF-8"?>
<svg xmlns="http://www.w3.org/2000/svg" width="84" height="50" viewBox="0 0 84 50">
  <title>particle img3-m14-p2 e:1 g:1 e:1</title>
  <metadata>{&quot;entityType&quot;:&quot;particle&quot;,&quot;entityId&quot;:&quot;img3-m14-p2&quot;,&quot;token&quot;:&quot;e:1 g:1 e:1&quot;,&quot;signature&quot;:&quot;e:1 g:1 e:1&quot;,&quot;imageName&quot;:&quot;page-003.jpg&quot;,&quot;imageId&quot;:3,&quot;bounds&quot;:{&quot;x&quot;:1547,&quot;y&quot;:594,&quot;w&quot;:84,&quot;h&quot;:50},&quot;atoms&quot;:[{&quot;id&quot;:1197,&quot;token&quot;:&quot;e:1&quot;,&quot;particle_id&quot;:&quot;img3-m14-p2&quot;,&quot;molecule_id&quot;:&quot;img3-m14&quot;,&quot;atom_order&quot;:1},{&quot;id&quot;:1198,&quot;token&quot;:&quot;g:1&quot;,&quot;particle_id&quot;:&quot;img3-m14-p2&quot;,&quot;molecule_id&quot;:&quot;img3-m14&quot;,&quot;atom_order&quot;:2},{&quot;id&quot;:1199,&quot;token&quot;:&quot;e:1&quot;,&quot;particle_id&quot;:&quot;img3-m14-p2&quot;,&quot;molecule_id&quot;:&quot;img3-m14&quot;,&quot;atom_order&quot;:3}]}</metadata>
  <rect x="0" y="0" width="84" height="50" fill="#f8f0d8"/>
  <image href="file:///C:/Users/HHHES/AppData/Roaming/com.voynichlab.datasetcreator/images/1/35a70f63-88ab-4986-b441-b78046a10087.jpg" x="-1547" y="-594" width="2972" height="3766" opacity="0.92"/>
  <rect x="0.5" y="0.5" width="83" height="49" fill="none" stroke="#111827" stroke-width="1" opacity="0.35"/>
  <polyline points="31,31 30,31 30,32 29,32 28,32 28,33 27,33 26,33 25,33 24,33 23,33 22,33 21,33 21,32 20,32 19,32 19,31 18,31 17,31 17,30 16,29 16,28 16,27 16,26 16,25 17,24 17,23 18,22 18,21 19,21 19,20 20,19 21,19 21,18 22,18 23,18 23,17 24,17 25,17 26,17 27,17" fill="none" stroke="#f2e45c" stroke-width="3" stroke-linecap="round" stroke-linejoin="round" opacity="0.95">
    <title>1197 e:1</title>
  </polyline>
  <polyline points="27,17 28,17 29,17 30,17 31,17 32,17 33,17 34,17 35,17 36,17 37,17 38,17 39,17 40,17 41,17 42,16 43,16 44,16 45,16 46,16 47,16 48,16 49,16 50,16 51,16 52,16 53,16 54,16 55,16 56,16 57,16 58,16 59,16 60,16 61,16 62,16 63,16 64,16 65,16 66,16 67,16" fill="none" stroke="#7c3cff" stroke-width="3" stroke-linecap="round" stroke-linejoin="round" opacity="0.95">
    <title>1198 g:1</title>
  </polyline>
  <polyline points="68,31 67,31 66,31 66,32 65,32 64,32 63,33 62,33 61,33 60,33 59,33 58,33 58,34 57,34 56,34 56,33 55,33 55,32 54,32 54,31 53,31 52,31 52,30 52,29 51,29 51,28 51,27 51,26 51,25 52,25 52,24 53,23 54,23 54,22 55,22 55,21 56,21 56,20 57,20 58,20 58,19 59,19 59,18 60,18 61,18 62,18 62,17 63,17 64,17 64,16 65,16 66,16 67,16 68,16" fill="none" stroke="#f2e45c" stroke-width="3" stroke-linecap="round" stroke-linejoin="round" opacity="0.95">
    <title>1199 e:1</title>
  </polyline>
</svg>
