<?xml version="1.0" encoding="UTF-8"?>
<svg xmlns="http://www.w3.org/2000/svg" width="84" height="122" viewBox="0 0 84 122">
  <title>particle img3-m175-p3 a:1 b:1 c:1 a:1</title>
  <metadata>{&quot;entityType&quot;:&quot;particle&quot;,&quot;entityId&quot;:&quot;img3-m175-p3&quot;,&quot;token&quot;:&quot;a:1 b:1 c:1 a:1&quot;,&quot;signature&quot;:&quot;a:1 b:1 c:1 a:1&quot;,&quot;imageName&quot;:&quot;page-003.jpg&quot;,&quot;imageId&quot;:3,&quot;bounds&quot;:{&quot;x&quot;:1553,&quot;y&quot;:2745,&quot;w&quot;:84,&quot;h&quot;:122},&quot;atoms&quot;:[{&quot;id&quot;:4059,&quot;token&quot;:&quot;a:1&quot;,&quot;particle_id&quot;:&quot;img3-m175-p3&quot;,&quot;molecule_id&quot;:&quot;img3-m175&quot;,&quot;atom_order&quot;:1},{&quot;id&quot;:4067,&quot;token&quot;:&quot;b:1&quot;,&quot;particle_id&quot;:&quot;img3-m175-p3&quot;,&quot;molecule_id&quot;:&quot;img3-m175&quot;,&quot;atom_order&quot;:2},{&quot;id&quot;:4044,&quot;token&quot;:&quot;c:1&quot;,&quot;particle_id&quot;:&quot;img3-m175-p3&quot;,&quot;molecule_id&quot;:&quot;img3-m175&quot;,&quot;atom_order&quot;:3},{&quot;id&quot;:4060,&quot;token&quot;:&quot;a:1&quot;,&quot;particle_id&quot;:&quot;img3-m175-p3&quot;,&quot;molecule_id&quot;:&quot;img3-m175&quot;,&quot;atom_order&quot;:4}]}</metadata>
  <rect x="0" y="0" width="84" height="122" fill="#f8f0d8"/>
  <image href="file:///C:/Users/HHHES/AppData/Roaming/com.voynichlab.datasetcreator/images/1/35a70f63-88ab-4986-b441-b78046a10087.jpg" x="-1553" y="-2745" width="2972" height="3766" opacity="0.92"/>
  <rect x="0.5" y="0.5" width="83" height="121" fill="none" stroke="#111827" stroke-width="1" opacity="0.35"/>
  <polyline points="16,99 16,98 17,97 17,96 17,95 17,94 17,93 18,92 18,91 18,90 18,89 18,88 18,87 17,87 17,86 17,85 17,84 17,83 17,82 17,81 17,80 17,79 17,78 17,77 17,76 17,75 17,74 17,73 17,72 17,71 17,70 17,69 17,68 17,67 17,66 18,65 18,64 18,63 18,62 18,61 18,60 19,59 19,58 19,57 19,56 19,55 19,54 19,53 19,52 19,51 19,50 19,49 19,48 20,47 20,46 20,45 20,44 20,43 20,42 20,41 20,40 20,39 20,38 20,37 20,36 20,35 20,34 20,33 20,32 20,31 20,30 20,29 20,28 20,27 20,26 20,25 20,24 20,23 20,22" fill="none" stroke="#00f0b5" stroke-width="3" stroke-linecap="round" stroke-linejoin="round" opacity="0.95">
    <title>4059 a:1</title>
  </polyline>
  <polyline points="19,27 19,28 20,28 20,29 20,30 21,30 21,31 22,31 23,32 24,33 25,33 26,34 27,34 28,35 29,35 30,36 32,37 33,37 34,37 35,38 36,38 37,39 38,39 39,39 40,39 42,40 43,40 44,40 45,40 47,40 48,40 50,40 52,40 53,40 54,40 55,40 56,39 57,39 58,38 59,37" fill="none" stroke="#2f7df6" stroke-width="3" stroke-linecap="round" stroke-linejoin="round" opacity="0.95">
    <title>4067 b:1</title>
  </polyline>
  <polyline points="44,25 44,26 44,27 43,28 43,29 43,30 43,31 42,31 42,32 42,33 42,34 42,35 42,36 43,37 43,38 44,38 44,39 45,39 46,39 46,40 47,40 48,40 49,40 50,40 51,40 52,40 53,40 54,40 55,40 56,40 56,39 57,39 58,39 59,39 59,38 60,38 61,37 62,36 63,35 64,34 64,33 64,32 65,32 65,31 65,30 66,30 66,29 66,28 66,27 67,27 67,26 67,25 67,24 68,22 68,21 68,20 68,19 68,18 68,17 67,17 67,16 66,16 65,16 64,16 63,16 62,16 61,16 60,16 59,16 58,16 57,16 56,17 55,17 53,17 52,18 51,19 50,19 50,20 49,20 49,21 48,21 47,22 46,23 45,24 45,25 44,25 44,26 43,27 43,28 42,28" fill="none" stroke="#8aff00" stroke-width="3" stroke-linecap="round" stroke-linejoin="round" opacity="0.95">
    <title>4044 c:1</title>
  </polyline>
  <polyline points="38,106 38,105 39,104 39,103 39,102 39,101 39,100 40,99 40,98 40,97 40,96 40,95 40,94 39,94 39,93 39,92 39,91 39,90 39,89 39,88 39,87 39,86 39,85 39,84 39,83 39,82 39,81 39,80 39,79 39,78 39,77 39,76 39,75 39,74 39,73 40,72 40,71 40,70 40,69 40,68 40,67 41,66 41,65 41,64 41,63 41,62 41,61 41,60 41,59 41,58 41,57 41,56 41,55 42,54 42,53 42,52 42,51 42,50 42,49 42,48 42,47 42,46 42,45 42,44 42,43 42,42 42,41 42,40 42,39 42,38 42,37 42,36 42,35 42,34 42,33 42,32 42,31 42,30 42,29" fill="none" stroke="#00f0b5" stroke-width="3" stroke-linecap="round" stroke-linejoin="round" opacity="0.95">
    <title>4060 a:1</title>
  </polyline>
</svg>
