<?xml version="1.0" encoding="UTF-8"?>
<svg xmlns="http://www.w3.org/2000/svg" width="91" height="52" viewBox="0 0 91 52">
  <title>particle img3-m151-p2 c:2 g:1 e:1</title>
  <metadata>{&quot;entityType&quot;:&quot;particle&quot;,&quot;entityId&quot;:&quot;img3-m151-p2&quot;,&quot;token&quot;:&quot;c:2 g:1 e:1&quot;,&quot;signature&quot;:&quot;c:2 g:1 e:1&quot;,&quot;imageName&quot;:&quot;page-003.jpg&quot;,&quot;imageId&quot;:3,&quot;bounds&quot;:{&quot;x&quot;:884,&quot;y&quot;:2516,&quot;w&quot;:91,&quot;h&quot;:52},&quot;atoms&quot;:[{&quot;id&quot;:3787,&quot;token&quot;:&quot;c:2&quot;,&quot;particle_id&quot;:&quot;img3-m151-p2&quot;,&quot;molecule_id&quot;:&quot;img3-m151&quot;,&quot;atom_order&quot;:1},{&quot;id&quot;:3751,&quot;token&quot;:&quot;g:1&quot;,&quot;particle_id&quot;:&quot;img3-m151-p2&quot;,&quot;molecule_id&quot;:&quot;img3-m151&quot;,&quot;atom_order&quot;:2},{&quot;id&quot;:3718,&quot;token&quot;:&quot;e:1&quot;,&quot;particle_id&quot;:&quot;img3-m151-p2&quot;,&quot;molecule_id&quot;:&quot;img3-m151&quot;,&quot;atom_order&quot;:3}]}</metadata>
  <rect x="0" y="0" width="91" height="52" fill="#f8f0d8"/>
  <image href="file:///C:/Users/HHHES/AppData/Roaming/com.voynichlab.datasetcreator/images/1/35a70f63-88ab-4986-b441-b78046a10087.jpg" x="-884" y="-2516" width="2972" height="3766" opacity="0.92"/>
  <rect x="0.5" y="0.5" width="90" height="51" fill="none" stroke="#111827" stroke-width="1" opacity="0.35"/>
  <polyline points="29,26 28,26 27,26 28,25 29,25 29,26 29,27 28,28 27,28 27,27 27,26 28,26 29,25 29,26 29,27 28,27 27,27 26,27 25,27 25,26 26,25 27,25 28,24 28,25 28,26 27,26 27,27 26,27 25,27 24,27 24,26 24,25 25,25 26,24 27,24 28,24 29,24 30,24 30,25 30,26 29,27 28,27 27,27 26,27 25,27 25,26 25,25 26,25 27,24 29,23 29,24 29,25 29,26 28,27 27,28 26,28 25,28 24,28 24,27 24,25 26,24 27,24 28,24 29,24 29,25 29,27 29,28 28,28 28,29 27,29 26,29 25,29 24,28 23,27 23,26 23,24 24,23 25,22 26,22 27,22 28,22 28,23 29,24 29,25 29,26 29,28 29,30 29,31 28,32 27,32 26,32 26,31 25,31 25,30 24,29 23,27 23,26 23,25 23,24 24,23 25,23 26,22 27,22 28,22 29,22 29,23 30,23 30,24 30,25 31,26 31,27 31,28 31,29 30,30 29,30 28,30 27,30 26,30 25,30 24,29 23,29 22,28 21,27 21,26 21,25 21,24 21,23 23,22 23,21 24,21 26,21 27,21 28,21 30,22 31,22 32,23 32,24 32,25 32,26 32,27 32,28 31,29 31,30 30,30 30,31 28,31 27,31 25,31 24,30 22,30 22,29 21,27 21,26 21,25 22,24 24,23 26,22 29,22 31,23 33,23 33,24 34,25 34,26 34,28 34,29 33,31 31,32 30,32 28,32 26,32 24,31 22,30 22,29 21,27 21,26 22,25 23,23 25,22 27,21 30,21 32,21 33,21 34,21 35,22 35,23 36,25 36,27 36,29 36,30 36,31 35,31 35,32 34,32 33,32 31,32 29,32 28,32 27,32 26,31 25,31 24,31 24,30 23,30 23,29 22,29 22,28 22,27 21,26 21,25 21,24 22,23 22,22 23,22 23,21 24,21 25,21 25,20 26,20 27,20 28,20 29,20 30,20 31,20 32,20 33,20 34,20 35,20 36,20 36,21 37,21 37,22 38,22 38,23 38,24 38,25 39,25 39,26 39,27 39,28 38,29 38,30 38,31 37,32 36,32 36,33 35,33 35,34 34,34 33,34 32,34 32,35 31,35 30,35 29,35 28,35 27,35 26,35 25,35 24,35 23,34 22,34 21,34 21,33 20,33 20,32 19,32 19,31 18,30 18,29 17,28 17,27 16,27 16,26 16,25 16,24 16,23 16,22 16,21 17,21 17,20 17,19 18,19 18,18 19,18 20,18 20,17 21,17 21,16 22,16 23,16 24,16 25,16 26,16 27,16 28,16 29,16 30,16 31,16 32,16 33,16 34,16 34,17 35,17 36,18 36,19 36,20 37,20 37,21 37,22 38,22 38,23 38,24 38,25 38,26 38,27 38,28 38,29 38,30 38,31 37,31 36,31 36,32 35,32 34,32 34,33 33,33 32,33 31,34 30,34 29,34 28,34 27,34 26,34 25,34 24,34 24,33 23,33 22,33 22,32 21,32 21,31 20,31 20,30 19,30 19,29 18,29 18,28 18,27 18,26 18,25 18,24 18,23 18,22 19,21 20,20 21,19 22,18 23,18 24,18 24,17 25,17 26,17 27,17 28,17 28,18 30,18 31,18 32,18 33,19 34,19 35,19 35,20 35,21 35,22 35,23 35,24 35,25 35,26 36,27 36,28 36,29 35,29 35,30 35,31 35,32 34,32 33,32 32,32 32,33 31,33 30,33 29,33 28,33 27,33 26,33 25,33 24,33 24,32 23,32 22,31 21,31 21,30 20,30 20,29 20,28 20,27 20,26 20,25 20,24 19,24 19,23 20,23 20,22 21,22 21,21 22,21 22,20 23,20 24,20 24,19 25,19 25,18 26,18 27,18 28,18 29,19 30,19 31,19 32,19 32,20 33,20 33,21 34,21 34,22 34,23 34,24 34,25 34,26 34,27 33,27 33,28 33,29 32,29 32,30 31,30 31,31 32,31 33,31 33,30 34,30 35,29 36,28 37,27 37,26 37,25 37,24 36,23 36,22 35,22 35,21 35,20 35,19 34,19 34,18 34,17 33,17 33,16 32,16 31,16 30,16 29,16 29,17 28,17 27,17 26,17 25,17 24,17 23,17 22,17 21,17 20,17 20,18 19,18 19,19 19,20 18,20 18,21 18,22 17,22 17,23 17,24 18,24 18,25 18,26 18,27 19,27 19,28 20,28 20,29 21,29 21,30 21,29 21,28 20,27 19,27 19,26 18,25 18,24 17,24 18,24 18,25 18,26 17,26 17,25 18,25 18,24 19,24 20,24 20,23 20,22 21,21 21,20 21,19 21,18 22,18 23,18 23,17 22,17 21,17 21,18 20,19 20,20 20,21 20,22 21,23 22,23 22,24 23,24 24,23 24,22 24,21 25,21 25,20 25,19 24,19 23,19 22,19 22,20 21,20 21,21 21,22 21,23 22,23 23,23 24,23 26,22 27,22 28,21 28,20 28,19 28,18 27,18 27,19 26,19 25,20 25,21 25,22 26,22 27,22 27,21 28,20 28,19 28,18 27,18 26,18 27,18 27,19 28,19 29,19 30,19 31,18 32,18 32,17 31,17 30,17 31,17 31,18 31,19 31,20 32,20 32,21 32,22 33,23 33,24 33,25 32,26 31,26 30,26 29,26 28,26 28,25 29,25 30,24 31,23 32,23 32,24 32,25 32,26 32,27 31,27 31,28 30,28 29,28 28,28 28,27 28,26 29,26 30,25 31,24 32,24 33,23 34,23 34,24 34,25 34,26 33,26 33,27 33,28 32,28 32,29 33,29 34,28 35,28 36,28 36,27 36,28 36,29 35,29 35,30 35,31 34,31 35,31 36,31 36,30 37,29 37,28 37,27 37,26 38,26 38,25 38,24 38,23 37,22 37,21 37,20 37,19 36,19 35,19 35,18 34,18 33,18 32,18 31,18 30,18 29,18 28,18 28,19 28,20" fill="none" stroke="#8aff00" stroke-width="3" stroke-linecap="round" stroke-linejoin="round" opacity="0.95">
    <title>3787 c:2</title>
  </polyline>
  <polyline points="22,16 23,16 24,16 25,16 26,16 27,16 28,16 29,16 30,16 31,16 32,16 33,16 34,16 35,16 36,16 37,16 38,16 39,16 40,16 41,16 42,16 43,16 44,16 45,16 46,16 47,16 48,16 49,16 50,16 51,16 52,16 53,16 54,16 55,16 56,16 57,16 58,16 59,16 60,16 61,16 62,16 63,16 64,16 65,17 66,17 67,17 68,17 69,17 70,17 71,17" fill="none" stroke="#7c3cff" stroke-width="3" stroke-linecap="round" stroke-linejoin="round" opacity="0.95">
    <title>3751 g:1</title>
  </polyline>
  <polyline points="75,33 75,34 74,34 74,35 73,35 72,35 72,36 71,36 70,36 69,36 68,36 67,36 66,36 65,36 65,35 64,35 63,35 62,35 62,34 61,34 60,34 60,33 60,32 60,31 60,30 60,29 60,28 60,27 61,27 61,26 61,25 61,24 62,24 62,23 62,22 63,22 63,21 63,20 64,20 65,20 65,19 66,19 66,18 67,18 68,18 68,17 69,17 70,17 71,17 71,16" fill="none" stroke="#f2e45c" stroke-width="3" stroke-linecap="round" stroke-linejoin="round" opacity="0.95">
    <title>3718 e:1</title>
  </polyline>
</svg>
