<?xml version="1.0" encoding="UTF-8"?>
<svg xmlns="http://www.w3.org/2000/svg" width="53" height="92" viewBox="0 0 53 92">
  <title>particle img3-m90-p2 e:1 h:1</title>
  <metadata>{&quot;entityType&quot;:&quot;particle&quot;,&quot;entityId&quot;:&quot;img3-m90-p2&quot;,&quot;token&quot;:&quot;e:1 h:1&quot;,&quot;signature&quot;:&quot;e:1 h:1&quot;,&quot;imageName&quot;:&quot;page-003.jpg&quot;,&quot;imageId&quot;:3,&quot;bounds&quot;:{&quot;x&quot;:2213,&quot;y&quot;:1763,&quot;w&quot;:53,&quot;h&quot;:92},&quot;atoms&quot;:[{&quot;id&quot;:2489,&quot;token&quot;:&quot;e:1&quot;,&quot;particle_id&quot;:&quot;img3-m90-p2&quot;,&quot;molecule_id&quot;:&quot;img3-m90&quot;,&quot;atom_order&quot;:1},{&quot;id&quot;:2490,&quot;token&quot;:&quot;h:1&quot;,&quot;particle_id&quot;:&quot;img3-m90-p2&quot;,&quot;molecule_id&quot;:&quot;img3-m90&quot;,&quot;atom_order&quot;:2}]}</metadata>
  <rect x="0" y="0" width="53" height="92" fill="#f8f0d8"/>
  <image href="file:///C:/Users/HHHES/AppData/Roaming/com.voynichlab.datasetcreator/images/1/35a70f63-88ab-4986-b441-b78046a10087.jpg" x="-2213" y="-1763" width="2972" height="3766" opacity="0.92"/>
  <rect x="0.5" y="0.5" width="52" height="91" fill="none" stroke="#111827" stroke-width="1" opacity="0.35"/>
  <polyline points="33,32 32,32 32,33 31,33 30,33 29,33 28,33 27,33 26,33 25,33 24,33 23,33 22,33 22,32 21,32 20,32 19,32 19,31 18,31 18,30 17,30 17,29 16,29 16,28 16,27 16,26 16,25 16,24 16,23 16,22 17,22 17,21 18,20 18,19 19,19 20,19 20,18 21,18 22,18 23,18 24,17 25,17 26,17 27,17 28,17 28,16 29,16 30,16 31,16 32,16 33,16 34,16" fill="none" stroke="#f2e45c" stroke-width="3" stroke-linecap="round" stroke-linejoin="round" opacity="0.95">
    <title>2489 e:1</title>
  </polyline>
  <polyline points="34,16 34,17 35,17 35,18 35,19 36,20 36,21 36,22 36,23 37,23 37,24 37,25 37,26 37,27 37,28 37,29 37,30 37,31 37,32 37,33 37,34 37,35 37,36 37,37 37,38 36,38 36,39 36,40 36,41 35,42 35,43 35,44 34,44 34,45 34,46 34,47 33,47 33,48 33,49 32,50 32,51 32,52 31,53 31,54 31,55 30,55 30,56 30,57 30,58 29,58 29,59 29,60 28,60 28,61 28,62 27,63 27,64 27,65 26,65 26,66 26,67 25,67 25,68 25,69 24,69 24,70 24,71 23,71 23,72 23,73 22,73 22,74 21,74 21,75 20,75 20,76" fill="none" stroke="#ff8c00" stroke-width="3" stroke-linecap="round" stroke-linejoin="round" opacity="0.95">
    <title>2490 h:1</title>
  </polyline>
</svg>
