<?xml version="1.0" encoding="UTF-8"?>
<svg xmlns="http://www.w3.org/2000/svg" width="75" height="116" viewBox="0 0 75 116">
  <title>particle img3-m180-p2 a:1 b:1 c:1 a:1</title>
  <metadata>{&quot;entityType&quot;:&quot;particle&quot;,&quot;entityId&quot;:&quot;img3-m180-p2&quot;,&quot;token&quot;:&quot;a:1 b:1 c:1 a:1&quot;,&quot;signature&quot;:&quot;a:1 b:1 c:1 a:1&quot;,&quot;imageName&quot;:&quot;page-003.jpg&quot;,&quot;imageId&quot;:3,&quot;bounds&quot;:{&quot;x&quot;:1275,&quot;y&quot;:2724,&quot;w&quot;:75,&quot;h&quot;:116},&quot;atoms&quot;:[{&quot;id&quot;:4055,&quot;token&quot;:&quot;a:1&quot;,&quot;particle_id&quot;:&quot;img3-m180-p2&quot;,&quot;molecule_id&quot;:&quot;img3-m180&quot;,&quot;atom_order&quot;:1},{&quot;id&quot;:4065,&quot;token&quot;:&quot;b:1&quot;,&quot;particle_id&quot;:&quot;img3-m180-p2&quot;,&quot;molecule_id&quot;:&quot;img3-m180&quot;,&quot;atom_order&quot;:2},{&quot;id&quot;:4041,&quot;token&quot;:&quot;c:1&quot;,&quot;particle_id&quot;:&quot;img3-m180-p2&quot;,&quot;molecule_id&quot;:&quot;img3-m180&quot;,&quot;atom_order&quot;:3},{&quot;id&quot;:4056,&quot;token&quot;:&quot;a:1&quot;,&quot;particle_id&quot;:&quot;img3-m180-p2&quot;,&quot;molecule_id&quot;:&quot;img3-m180&quot;,&quot;atom_order&quot;:4}]}</metadata>
  <rect x="0" y="0" width="75" height="116" fill="#f8f0d8"/>
  <image href="file:///C:/Users/HHHES/AppData/Roaming/com.voynichlab.datasetcreator/images/1/35a70f63-88ab-4986-b441-b78046a10087.jpg" x="-1275" y="-2724" width="2972" height="3766" opacity="0.92"/>
  <rect x="0.5" y="0.5" width="74" height="115" fill="none" stroke="#111827" stroke-width="1" opacity="0.35"/>
  <polyline points="16,98 16,97 17,96 17,95 17,94 17,93 17,92 18,91 18,90 18,89 18,88 18,87 18,86 17,86 17,85 17,84 17,83 17,82 17,81 17,80 17,79 17,78 17,77 17,76 17,75 17,74 17,73 17,72 17,71 17,70 17,69 17,68 17,67 17,66 17,65 18,64 18,63 18,62 18,61 18,60 18,59 19,58 19,57 19,56 19,55 19,54 19,53 19,52 19,51 19,50 19,49 19,48 19,47 20,46 20,45 20,44 20,43 20,42 20,41 20,40 20,39 20,38 20,37 20,36 20,35 20,34 20,33 20,32 20,31 20,30 20,29 20,28 20,27 20,26 20,25 20,24 20,23 20,22 20,21" fill="none" stroke="#00f0b5" stroke-width="3" stroke-linecap="round" stroke-linejoin="round" opacity="0.95">
    <title>4055 a:1</title>
  </polyline>
  <polyline points="19,41 19,42 20,42 21,42 21,43 22,43 23,43 23,44 24,44 25,44 26,44 27,44 28,44 29,44 30,44 31,44 32,44 33,43 34,43 35,43 36,43 37,43 38,43 39,43 39,42 40,42 41,42 42,42 43,42 44,41 45,41 46,41 47,41 47,40 48,40 49,40 49,39 50,39 51,39" fill="none" stroke="#2f7df6" stroke-width="3" stroke-linecap="round" stroke-linejoin="round" opacity="0.95">
    <title>4065 b:1</title>
  </polyline>
  <polyline points="37,23 36,24 36,25 36,26 36,27 35,27 35,28 35,29 35,30 35,31 35,32 35,33 35,34 35,35 35,36 36,36 36,37 36,38 37,38 37,39 38,39 38,40 39,40 40,40 41,41 42,41 43,41 44,41 45,41 46,41 47,41 48,41 48,40 49,40 50,40 51,39 52,38 53,37 54,36 55,35 56,34 57,33 57,32 58,32 58,31 58,30 59,29 59,28 59,27 59,26 59,25 59,24 59,23 59,22 59,21 59,20 58,19 58,18 57,18 56,17 55,17 54,17 53,16 52,16 51,16 50,16 49,16 48,16 47,16 46,16 45,16 44,16 43,16 43,17 42,17 41,18 40,19 40,20 39,20 39,21 38,22 38,23 37,24 37,25 37,26 36,26 36,27 36,28 36,29 35,29" fill="none" stroke="#8aff00" stroke-width="3" stroke-linecap="round" stroke-linejoin="round" opacity="0.95">
    <title>4041 c:1</title>
  </polyline>
  <polyline points="32,100 32,99 33,98 33,97 33,96 33,95 33,94 34,93 34,92 34,91 34,90 34,89 34,88 33,88 33,87 33,86 33,85 33,84 33,83 33,82 33,81 33,80 33,79 33,78 33,77 33,76 33,75 33,74 33,73 33,72 33,71 33,70 33,69 33,68 33,67 34,66 34,65 34,64 34,63 34,62 34,61 35,60 35,59 35,58 35,57 35,56 35,55 35,54 35,53 35,52 35,51 35,50 35,49 36,48 36,47 36,46 36,45 36,44 36,43 36,42 36,41 36,40 36,39 36,38 36,37 36,36 36,35 36,34 36,33 36,32 36,31 36,30 36,29 36,28 36,27 36,26 36,25 36,24 36,23" fill="none" stroke="#00f0b5" stroke-width="3" stroke-linecap="round" stroke-linejoin="round" opacity="0.95">
    <title>4056 a:1</title>
  </polyline>
</svg>
