<?xml version="1.0" encoding="UTF-8"?>
<svg xmlns="http://www.w3.org/2000/svg" width="121" height="98" viewBox="0 0 121 98">
  <title>particle img3-m38-p3 k:1 f:1 i:1 d:1</title>
  <metadata>{&quot;entityType&quot;:&quot;particle&quot;,&quot;entityId&quot;:&quot;img3-m38-p3&quot;,&quot;token&quot;:&quot;k:1 f:1 i:1 d:1&quot;,&quot;signature&quot;:&quot;k:1 f:1 i:1 d:1&quot;,&quot;imageName&quot;:&quot;page-003.jpg&quot;,&quot;imageId&quot;:3,&quot;bounds&quot;:{&quot;x&quot;:1103,&quot;y&quot;:837,&quot;w&quot;:121,&quot;h&quot;:98},&quot;atoms&quot;:[{&quot;id&quot;:1653,&quot;token&quot;:&quot;k:1&quot;,&quot;particle_id&quot;:&quot;img3-m38-p3&quot;,&quot;molecule_id&quot;:&quot;img3-m38&quot;,&quot;atom_order&quot;:1},{&quot;id&quot;:1654,&quot;token&quot;:&quot;f:1&quot;,&quot;particle_id&quot;:&quot;img3-m38-p3&quot;,&quot;molecule_id&quot;:&quot;img3-m38&quot;,&quot;atom_order&quot;:2},{&quot;id&quot;:1655,&quot;token&quot;:&quot;i:1&quot;,&quot;particle_id&quot;:&quot;img3-m38-p3&quot;,&quot;molecule_id&quot;:&quot;img3-m38&quot;,&quot;atom_order&quot;:3},{&quot;id&quot;:1658,&quot;token&quot;:&quot;d:1&quot;,&quot;particle_id&quot;:&quot;img3-m38-p3&quot;,&quot;molecule_id&quot;:&quot;img3-m38&quot;,&quot;atom_order&quot;:4}]}</metadata>
  <rect x="0" y="0" width="121" height="98" fill="#f8f0d8"/>
  <image href="file:///C:/Users/HHHES/AppData/Roaming/com.voynichlab.datasetcreator/images/1/35a70f63-88ab-4986-b441-b78046a10087.jpg" x="-1103" y="-837" width="2972" height="3766" opacity="0.92"/>
  <rect x="0.5" y="0.5" width="120" height="97" fill="none" stroke="#111827" stroke-width="1" opacity="0.35"/>
  <polyline points="22,53 22,55 23,55 23,56 24,57 24,58 25,58 25,59 25,60 26,60 26,61 26,62 27,62 27,63 28,64 28,65 29,65 29,66 29,67 30,67 30,68 31,69 31,70 32,70 32,71 32,72 33,72 33,73 34,73 34,74 35,74 36,74 37,74 38,73 39,73 39,72 40,72 40,71 41,71 41,70 42,70 42,69 43,69 43,68 44,68 44,67 45,67 45,66 46,66 46,65 47,65 47,64 48,64 48,63 49,63 49,64 49,65 49,66 50,66 50,67 51,68 51,69 52,69 52,70 52,71 53,71 53,72 54,72 54,73 55,73 55,74 56,74 56,75 57,75 57,76 58,76 58,77 59,77 60,77 61,77 61,76 62,76 63,76 63,75 64,75 64,74 65,74 66,74 66,73 67,73 67,72 68,72 68,71 69,70 69,69 70,68 71,67 71,66 72,66 72,65 73,65 73,64 74,64 74,63 75,63 75,62 76,61" fill="none" stroke="#ffffff" stroke-width="3" stroke-linecap="round" stroke-linejoin="round" opacity="0.95">
    <title>1653 k:1</title>
  </polyline>
  <polyline points="76,61 76,62 76,63 77,63 77,64 77,65 78,65 78,66 79,67 79,68 80,68 80,69 81,70 81,71 82,71 82,72 83,72 83,73 84,73 84,74 84,75 85,75 85,76 85,77 86,77 86,78 87,78 87,79 88,80 88,81 89,81 89,82" fill="none" stroke="#00a2ff" stroke-width="3" stroke-linecap="round" stroke-linejoin="round" opacity="0.95">
    <title>1654 f:1</title>
  </polyline>
  <polyline points="88,82 89,82 90,82 90,81 91,81 92,81 93,81 93,80 94,80 95,79 96,79 96,78 97,78 97,77 98,77 98,76 99,76 99,75 99,74 100,74 100,73 101,73 101,72 102,72 102,71 102,70 103,70 103,69 103,68 104,67 104,66 104,65 104,64 105,64 105,63 105,62 105,61 105,60 105,59 105,58 105,57 105,56 105,55 104,55 104,54 103,53 103,52 102,52 102,51 102,50 102,49 101,49 101,48 101,47 100,47 100,46 99,45 99,44 98,44 98,43 97,43 97,42 96,41 95,40 94,39 93,39 93,38 92,38 92,37 91,37 90,36 89,36 88,35 87,35 86,35 86,34 85,34 84,33" fill="none" stroke="#00ff7f" stroke-width="3" stroke-linecap="round" stroke-linejoin="round" opacity="0.95">
    <title>1655 i:1</title>
  </polyline>
  <polyline points="16,19 17,19 17,18 18,18 19,18 20,18 20,17 21,17 22,17 23,17 24,17 25,16 26,16 27,16 28,16 29,16 30,16 31,16 32,16 33,16 33,17 34,17 35,17 36,17 37,17 37,18 38,18 39,18 40,18 41,18 42,18 42,19 43,19 44,19 45,19 45,20 46,20 47,20 48,20 49,21 50,21 51,21 51,22 52,22 53,22 54,22 55,22 55,23 56,23 57,23 58,23 59,23 59,24 60,24 61,24 61,25 62,25 63,25 63,26 64,26 65,26 66,27 67,27 68,27 68,28 69,28 70,28 70,29 71,29 72,29 73,29 74,30 75,30 76,30 77,30 77,31 78,31 79,31 80,31 80,32 81,32 82,32 82,33 83,33 84,33" fill="none" stroke="#ff2d55" stroke-width="3" stroke-linecap="round" stroke-linejoin="round" opacity="0.95">
    <title>1658 d:1</title>
  </polyline>
</svg>
