<?xml version="1.0" encoding="UTF-8"?>
<svg xmlns="http://www.w3.org/2000/svg" width="58" height="72" viewBox="0 0 58 72">
  <title>particle img3-m148-p5 e:1 c:1 h:2</title>
  <metadata>{&quot;entityType&quot;:&quot;particle&quot;,&quot;entityId&quot;:&quot;img3-m148-p5&quot;,&quot;token&quot;:&quot;e:1 c:1 h:2&quot;,&quot;signature&quot;:&quot;e:1 c:1 h:2&quot;,&quot;imageName&quot;:&quot;page-003.jpg&quot;,&quot;imageId&quot;:3,&quot;bounds&quot;:{&quot;x&quot;:1477,&quot;y&quot;:2500,&quot;w&quot;:58,&quot;h&quot;:72},&quot;atoms&quot;:[{&quot;id&quot;:3747,&quot;token&quot;:&quot;e:1&quot;,&quot;particle_id&quot;:&quot;img3-m148-p5&quot;,&quot;molecule_id&quot;:&quot;img3-m148&quot;,&quot;atom_order&quot;:1},{&quot;id&quot;:3772,&quot;token&quot;:&quot;c:1&quot;,&quot;particle_id&quot;:&quot;img3-m148-p5&quot;,&quot;molecule_id&quot;:&quot;img3-m148&quot;,&quot;atom_order&quot;:2},{&quot;id&quot;:3793,&quot;token&quot;:&quot;h:2&quot;,&quot;particle_id&quot;:&quot;img3-m148-p5&quot;,&quot;molecule_id&quot;:&quot;img3-m148&quot;,&quot;atom_order&quot;:3}]}</metadata>
  <rect x="0" y="0" width="58" height="72" fill="#f8f0d8"/>
  <image href="file:///C:/Users/HHHES/AppData/Roaming/com.voynichlab.datasetcreator/images/1/35a70f63-88ab-4986-b441-b78046a10087.jpg" x="-1477" y="-2500" width="2972" height="3766" opacity="0.92"/>
  <rect x="0.5" y="0.5" width="57" height="71" fill="none" stroke="#111827" stroke-width="1" opacity="0.35"/>
  <polyline points="31,53 31,54 30,54 30,55 29,55 28,55 28,56 27,56 26,56 25,56 24,56 23,56 22,56 21,56 21,55 20,55 19,55 18,55 18,54 17,54 16,54 16,53 16,52 16,51 16,50 16,49 16,48 16,47 17,47 17,46 17,45 17,44 18,44 18,43 18,42 19,42 19,41 19,40 20,40 21,40 21,39 22,39 22,38 23,38 24,38 24,37 25,37 26,37 27,37 27,36" fill="none" stroke="#f2e45c" stroke-width="3" stroke-linecap="round" stroke-linejoin="round" opacity="0.95">
    <title>3747 e:1</title>
  </polyline>
  <polyline points="31,32 32,32 33,32 34,32 34,31 35,31 36,31 37,31 37,30 38,30 38,29 39,29 39,28 40,28 41,27 41,26 42,25 42,24 42,23 42,22 42,21 42,20 42,19 41,19 41,18 41,17 40,17 39,17 39,16 38,16 37,16 36,16 35,16 34,17 33,17 32,17 31,17 31,18 30,18 29,18 28,18 28,19 27,19 26,19 26,20 25,20 25,21 24,21 24,22 23,22 23,23 23,24 23,25 23,26 23,27 24,27 24,28 25,28 25,29 26,29 26,30 27,30 28,31 29,31 30,31 31,31 31,32 32,32 33,32" fill="none" stroke="#8aff00" stroke-width="3" stroke-linecap="round" stroke-linejoin="round" opacity="0.95">
    <title>3772 c:1</title>
  </polyline>
  <polyline points="31,54 31,53 32,53 32,52 32,51 32,50 33,49 33,48 33,47 33,46 33,45 33,44 33,43 33,42 33,41 33,40 32,40 32,39 31,39 30,39 30,38 29,37 28,37 28,36 27,36 27,35 26,35 26,34 26,33 25,33 25,32 24,31 24,30 24,29 23,29 23,28 23,27 23,26 23,25 23,24 23,23 23,22 24,22 24,21" fill="none" stroke="#ff8c00" stroke-width="3" stroke-linecap="round" stroke-linejoin="round" opacity="0.95">
    <title>3793 h:2</title>
  </polyline>
</svg>
