<?xml version="1.0" encoding="UTF-8"?>
<svg xmlns="http://www.w3.org/2000/svg" width="72" height="120" viewBox="0 0 72 120">
  <title>particle img3-m152-p4 a:1 b:1 c:1 a:1</title>
  <metadata>{&quot;entityType&quot;:&quot;particle&quot;,&quot;entityId&quot;:&quot;img3-m152-p4&quot;,&quot;token&quot;:&quot;a:1 b:1 c:1 a:1&quot;,&quot;signature&quot;:&quot;a:1 b:1 c:1 a:1&quot;,&quot;imageName&quot;:&quot;page-003.jpg&quot;,&quot;imageId&quot;:3,&quot;bounds&quot;:{&quot;x&quot;:986,&quot;y&quot;:2439,&quot;w&quot;:72,&quot;h&quot;:120},&quot;atoms&quot;:[{&quot;id&quot;:3759,&quot;token&quot;:&quot;a:1&quot;,&quot;particle_id&quot;:&quot;img3-m152-p4&quot;,&quot;molecule_id&quot;:&quot;img3-m152&quot;,&quot;atom_order&quot;:1},{&quot;id&quot;:3788,&quot;token&quot;:&quot;b:1&quot;,&quot;particle_id&quot;:&quot;img3-m152-p4&quot;,&quot;molecule_id&quot;:&quot;img3-m152&quot;,&quot;atom_order&quot;:2},{&quot;id&quot;:3768,&quot;token&quot;:&quot;c:1&quot;,&quot;particle_id&quot;:&quot;img3-m152-p4&quot;,&quot;molecule_id&quot;:&quot;img3-m152&quot;,&quot;atom_order&quot;:3},{&quot;id&quot;:3760,&quot;token&quot;:&quot;a:1&quot;,&quot;particle_id&quot;:&quot;img3-m152-p4&quot;,&quot;molecule_id&quot;:&quot;img3-m152&quot;,&quot;atom_order&quot;:4}]}</metadata>
  <rect x="0" y="0" width="72" height="120" fill="#f8f0d8"/>
  <image href="file:///C:/Users/HHHES/AppData/Roaming/com.voynichlab.datasetcreator/images/1/35a70f63-88ab-4986-b441-b78046a10087.jpg" x="-986" y="-2439" width="2972" height="3766" opacity="0.92"/>
  <rect x="0.5" y="0.5" width="71" height="119" fill="none" stroke="#111827" stroke-width="1" opacity="0.35"/>
  <polyline points="16,101 16,100 17,99 17,98 17,97 17,96 17,95 18,94 18,93 18,92 18,91 18,90 18,89 17,89 17,88 17,87 17,86 17,85 17,84 17,83 17,82 17,81 17,80 17,79 17,78 17,77 17,76 17,75 17,74 17,73 17,72 17,71 17,70 17,69 17,68 18,67 18,66 18,65 18,64 18,63 18,62 19,61 19,60 19,59 19,58 19,57 19,56 19,55 19,54 19,53 19,52 19,51 19,50 20,49 20,48 20,47 20,46 20,45 20,44 20,43 20,42 20,41 20,40 20,39 20,38 20,37 20,36 20,35 20,34 20,33 20,32 20,31 20,30 20,29 20,28 20,27 20,26 20,25 20,24" fill="none" stroke="#00f0b5" stroke-width="3" stroke-linecap="round" stroke-linejoin="round" opacity="0.95">
    <title>3759 a:1</title>
  </polyline>
  <polyline points="20,25 20,26 20,27 20,28 20,29 20,30 20,31 20,32 21,32 21,33 21,34 22,35 22,36 23,36 23,37 24,37 25,38 26,39 27,39 27,40 28,40 29,41 30,41 31,41 32,41 33,41 34,41 35,41 36,41 37,41 38,41 39,41 40,41 40,40 41,40 42,40 43,39 44,39 45,38 46,38 46,37 47,37 48,36 48,35 49,35 49,34 50,34 50,33 51,32 51,31" fill="none" stroke="#2f7df6" stroke-width="3" stroke-linecap="round" stroke-linejoin="round" opacity="0.95">
    <title>3788 b:1</title>
  </polyline>
  <polyline points="37,42 38,42 39,42 40,42 40,41 41,41 42,41 42,40 43,40 44,40 45,39 46,39 46,38 47,38 48,37 49,37 50,36 51,36 51,35 52,34 52,33 53,33 53,32 54,32 54,31 54,30 54,29 55,29 55,28 55,27 56,27 56,26 56,25 56,24 56,23 56,22 56,21 56,20 56,19 55,18 55,17 54,17 54,16 53,16 52,16 51,16 50,16 49,16 48,16 47,16 46,16 46,17 45,17 44,17 44,18 43,18 43,19 42,19 41,20 40,20 40,21 39,21 39,22 38,22 38,23 37,23 37,24 37,25 36,25 36,26 36,27 36,28 36,29 36,30 36,31 35,31 35,32 35,33 35,34 35,35 35,36 36,36 36,37 36,38 36,39 36,40 36,41 37,41 37,42" fill="none" stroke="#8aff00" stroke-width="3" stroke-linecap="round" stroke-linejoin="round" opacity="0.95">
    <title>3768 c:1</title>
  </polyline>
  <polyline points="37,44 37,43 37,42 37,43 37,44 37,45 37,46 37,47 37,48 37,49 37,50 37,51 37,52 36,52 36,53 36,54 36,55 36,56 36,57 36,58 36,59 36,60 36,61 36,62 36,63 36,64 36,65 36,66 36,67 36,68 35,69 35,70 35,71 35,72 35,73 35,74 35,75 35,76 35,77 35,78 35,79 35,80 34,81 34,82 34,83 34,84 34,85 34,86 34,87 34,88 34,89 34,90 34,91 34,92 34,93 34,94 34,95 33,95 33,96 33,97 33,98 33,99 33,100 33,101 33,102 33,103 33,104" fill="none" stroke="#00f0b5" stroke-width="3" stroke-linecap="round" stroke-linejoin="round" opacity="0.95">
    <title>3760 a:1</title>
  </polyline>
</svg>
