<?xml version="1.0" encoding="UTF-8"?>
<svg xmlns="http://www.w3.org/2000/svg" width="57" height="71" viewBox="0 0 57 71">
  <title>particle img3-m61-p1 e:1 c:1 h:2</title>
  <metadata>{&quot;entityType&quot;:&quot;particle&quot;,&quot;entityId&quot;:&quot;img3-m61-p1&quot;,&quot;token&quot;:&quot;e:1 c:1 h:2&quot;,&quot;signature&quot;:&quot;e:1 c:1 h:2&quot;,&quot;imageName&quot;:&quot;page-003.jpg&quot;,&quot;imageId&quot;:3,&quot;bounds&quot;:{&quot;x&quot;:1838,&quot;y&quot;:1221,&quot;w&quot;:57,&quot;h&quot;:71},&quot;atoms&quot;:[{&quot;id&quot;:2076,&quot;token&quot;:&quot;e:1&quot;,&quot;particle_id&quot;:&quot;img3-m61-p1&quot;,&quot;molecule_id&quot;:&quot;img3-m61&quot;,&quot;atom_order&quot;:1},{&quot;id&quot;:2087,&quot;token&quot;:&quot;c:1&quot;,&quot;particle_id&quot;:&quot;img3-m61-p1&quot;,&quot;molecule_id&quot;:&quot;img3-m61&quot;,&quot;atom_order&quot;:2},{&quot;id&quot;:2089,&quot;token&quot;:&quot;h:2&quot;,&quot;particle_id&quot;:&quot;img3-m61-p1&quot;,&quot;molecule_id&quot;:&quot;img3-m61&quot;,&quot;atom_order&quot;:3}]}</metadata>
  <rect x="0" y="0" width="57" height="71" fill="#f8f0d8"/>
  <image href="file:///C:/Users/HHHES/AppData/Roaming/com.voynichlab.datasetcreator/images/1/35a70f63-88ab-4986-b441-b78046a10087.jpg" x="-1838" y="-1221" width="2972" height="3766" opacity="0.92"/>
  <rect x="0.5" y="0.5" width="56" height="70" fill="none" stroke="#111827" stroke-width="1" opacity="0.35"/>
  <polyline points="34,53 34,54 33,54 32,54 32,55 31,55 30,55 29,55 28,55 27,55 26,55 26,54 25,54 24,54 23,54 23,53 22,53 21,53 20,53 20,52 19,52 19,51 18,51 17,50 17,49 16,49 16,48 16,47 16,46 16,45 16,44 16,43 17,43 17,42 17,41 18,41 18,40 19,40 19,39 20,39 20,38 21,38 22,37 23,37 24,36 25,36 25,35 26,35 27,35 28,35 28,34" fill="none" stroke="#f2e45c" stroke-width="3" stroke-linecap="round" stroke-linejoin="round" opacity="0.95">
    <title>2076 e:1</title>
  </polyline>
  <polyline points="28,34 29,34 31,34 31,33 33,33 34,33 35,32 36,32 36,31 36,31 36,31 37,31 37,30 38,30 38,29 40,29 40,27 40,26 41,26 41,25 41,24 41,23 41,23 41,22 41,21 41,20 40,20 40,19 40,18 38,18 37,18 37,16 36,16 36,16 35,16 34,16 33,16 31,16 29,16 28,16 27,16 26,16 26,18 26,18 24,18 24,19 23,19 23,20 22,20 22,21 21,21 21,22 21,23 21,23 21,24 21,25 21,26 21,27 21,29 22,29 22,30 23,30 23,31 23,31 24,31 24,32 26,32 26,33 26,33 27,33 27,34 28,34" fill="none" stroke="#8aff00" stroke-width="3" stroke-linecap="round" stroke-linejoin="round" opacity="0.95">
    <title>2087 c:1</title>
  </polyline>
  <polyline points="35,53 36,53 36,52 37,52 37,51 37,50 37,49 37,48 37,47 37,46 37,45 37,44 37,43 36,43 36,42 35,42 35,41 34,41 34,40 33,40 33,39 32,39 31,39 31,38 30,38 30,37 29,37 29,36 28,36 28,35 27,35 27,34 26,34 25,33 24,33 24,32 23,32 23,31 23,30 22,30 22,29 22,28 21,28 21,27 21,26 21,25 21,24 21,23 21,22 22,22 22,21 22,20 23,20 23,19" fill="none" stroke="#ff8c00" stroke-width="3" stroke-linecap="round" stroke-linejoin="round" opacity="0.95">
    <title>2089 h:2</title>
  </polyline>
</svg>
