<?xml version="1.0" encoding="UTF-8"?>
<svg xmlns="http://www.w3.org/2000/svg" width="82" height="50" viewBox="0 0 82 50">
  <title>particle img3-m97-p2 e:1 g:1 e:1</title>
  <metadata>{&quot;entityType&quot;:&quot;particle&quot;,&quot;entityId&quot;:&quot;img3-m97-p2&quot;,&quot;token&quot;:&quot;e:1 g:1 e:1&quot;,&quot;signature&quot;:&quot;e:1 g:1 e:1&quot;,&quot;imageName&quot;:&quot;page-003.jpg&quot;,&quot;imageId&quot;:3,&quot;bounds&quot;:{&quot;x&quot;:1556,&quot;y&quot;:1764,&quot;w&quot;:82,&quot;h&quot;:50},&quot;atoms&quot;:[{&quot;id&quot;:2535,&quot;token&quot;:&quot;e:1&quot;,&quot;particle_id&quot;:&quot;img3-m97-p2&quot;,&quot;molecule_id&quot;:&quot;img3-m97&quot;,&quot;atom_order&quot;:1},{&quot;id&quot;:2538,&quot;token&quot;:&quot;g:1&quot;,&quot;particle_id&quot;:&quot;img3-m97-p2&quot;,&quot;molecule_id&quot;:&quot;img3-m97&quot;,&quot;atom_order&quot;:2},{&quot;id&quot;:2536,&quot;token&quot;:&quot;e:1&quot;,&quot;particle_id&quot;:&quot;img3-m97-p2&quot;,&quot;molecule_id&quot;:&quot;img3-m97&quot;,&quot;atom_order&quot;:3}]}</metadata>
  <rect x="0" y="0" width="82" height="50" fill="#f8f0d8"/>
  <image href="file:///C:/Users/HHHES/AppData/Roaming/com.voynichlab.datasetcreator/images/1/35a70f63-88ab-4986-b441-b78046a10087.jpg" x="-1556" y="-1764" width="2972" height="3766" opacity="0.92"/>
  <rect x="0.5" y="0.5" width="81" height="49" fill="none" stroke="#111827" stroke-width="1" opacity="0.35"/>
  <polyline points="31,31 31,32 30,32 29,32 29,33 28,33 27,33 26,33 26,34 25,34 24,34 23,34 22,34 21,34 20,34 20,33 19,33 18,33 18,32 17,32 17,31 16,31 16,30 16,29 16,28 16,27 16,26 17,26 17,25 17,24 18,24 18,23 19,22 19,21 20,21 20,20 21,20 21,19 22,19 23,18 24,18 25,18 25,17 26,17 27,17 28,17 29,17 30,17 31,17 32,17" fill="none" stroke="#f2e45c" stroke-width="3" stroke-linecap="round" stroke-linejoin="round" opacity="0.95">
    <title>2535 e:1</title>
  </polyline>
  <polyline points="30,17 31,17 32,17 33,17 34,17 35,17 36,17 37,17 38,17 39,17 40,17 41,17 42,17 43,17 44,17 45,17 46,17 47,17 48,17 49,17 50,17 51,17 52,17 53,17 54,17 55,17 56,17 57,17 58,17 59,17 60,17 61,17 62,17 63,17 64,17 65,17 65,16 66,16" fill="none" stroke="#7c3cff" stroke-width="3" stroke-linecap="round" stroke-linejoin="round" opacity="0.95">
    <title>2538 g:1</title>
  </polyline>
  <polyline points="62,32 62,33 61,33 60,33 60,34 59,34 58,34 57,34 56,34 55,34 55,33 54,33 53,33 52,33 52,32 51,32 51,31 50,31 50,30 50,29 50,28 50,27 51,27 51,26 51,25 52,25 52,24 52,23 53,23 53,22 54,22 54,21 55,20 56,20 56,19 57,19 58,19 58,18 59,18 60,18 60,17 61,17 62,17 63,17 64,17 65,17 66,17" fill="none" stroke="#f2e45c" stroke-width="3" stroke-linecap="round" stroke-linejoin="round" opacity="0.95">
    <title>2536 e:1</title>
  </polyline>
</svg>
