<?xml version="1.0" encoding="UTF-8"?>
<svg xmlns="http://www.w3.org/2000/svg" width="86" height="78" viewBox="0 0 86 78">
  <title>particle img3-m61-p3 l:1 f:1 i:1 d:1</title>
  <metadata>{&quot;entityType&quot;:&quot;particle&quot;,&quot;entityId&quot;:&quot;img3-m61-p3&quot;,&quot;token&quot;:&quot;l:1 f:1 i:1 d:1&quot;,&quot;signature&quot;:&quot;l:1 f:1 i:1 d:1&quot;,&quot;imageName&quot;:&quot;page-003.jpg&quot;,&quot;imageId&quot;:3,&quot;bounds&quot;:{&quot;x&quot;:1907,&quot;y&quot;:1217,&quot;w&quot;:86,&quot;h&quot;:78},&quot;atoms&quot;:[{&quot;id&quot;:2079,&quot;token&quot;:&quot;l:1&quot;,&quot;particle_id&quot;:&quot;img3-m61-p3&quot;,&quot;molecule_id&quot;:&quot;img3-m61&quot;,&quot;atom_order&quot;:1},{&quot;id&quot;:2080,&quot;token&quot;:&quot;f:1&quot;,&quot;particle_id&quot;:&quot;img3-m61-p3&quot;,&quot;molecule_id&quot;:&quot;img3-m61&quot;,&quot;atom_order&quot;:2},{&quot;id&quot;:2082,&quot;token&quot;:&quot;i:1&quot;,&quot;particle_id&quot;:&quot;img3-m61-p3&quot;,&quot;molecule_id&quot;:&quot;img3-m61&quot;,&quot;atom_order&quot;:3},{&quot;id&quot;:2083,&quot;token&quot;:&quot;d:1&quot;,&quot;particle_id&quot;:&quot;img3-m61-p3&quot;,&quot;molecule_id&quot;:&quot;img3-m61&quot;,&quot;atom_order&quot;:4}]}</metadata>
  <rect x="0" y="0" width="86" height="78" fill="#f8f0d8"/>
  <image href="file:///C:/Users/HHHES/AppData/Roaming/com.voynichlab.datasetcreator/images/1/35a70f63-88ab-4986-b441-b78046a10087.jpg" x="-1907" y="-1217" width="2972" height="3766" opacity="0.92"/>
  <rect x="0.5" y="0.5" width="85" height="77" fill="none" stroke="#111827" stroke-width="1" opacity="0.35"/>
  <polyline points="18,47 18,48 18,49 19,49 20,50 20,51 21,51 21,52 21,53 22,54 22,55 22,56 23,56 23,57 24,57 24,58 24,59 25,59 25,60 25,61 26,61 26,62 26,61 27,61 28,61 28,60 29,60 30,59 31,59 31,58 32,57 33,57 33,56 34,56 34,55 35,55 35,54 36,54 36,53 37,53 38,52 38,51 39,51 40,50 40,49 41,49 41,48 42,48 42,47" fill="none" stroke="#ff5f1f" stroke-width="3" stroke-linecap="round" stroke-linejoin="round" opacity="0.95">
    <title>2079 l:1</title>
  </polyline>
  <polyline points="42,47 42,48 43,48 43,49 44,50 44,51 45,51 45,52 45,53 46,53 46,54 46,55 47,55 47,56 48,56 48,57 48,58 49,58 49,59 50,60 50,61 51,61 51,62" fill="none" stroke="#00a2ff" stroke-width="3" stroke-linecap="round" stroke-linejoin="round" opacity="0.95">
    <title>2080 f:1</title>
  </polyline>
  <polyline points="51,62 52,62 53,62 53,61 54,61 55,60 56,60 57,59 58,59 58,58 59,58 59,57 60,57 61,56 62,56 62,55 63,55 63,54 65,53 65,52 66,52 66,51 67,51 67,50 67,49 68,49 68,48 69,48 69,47 69,46 70,45 70,44 70,43 70,42 70,41 70,40 70,39 69,39 69,38 69,37 68,35 67,35 67,34 66,33 66,32 65,32 65,31 64,31 64,30 63,30 63,29 62,29 62,28 61,28 60,28 60,27 59,27 59,26 58,26 57,26 57,25 56,25 55,24 54,24 54,23 53,23" fill="none" stroke="#00ff7f" stroke-width="3" stroke-linecap="round" stroke-linejoin="round" opacity="0.95">
    <title>2082 i:1</title>
  </polyline>
  <polyline points="16,23 17,23 18,23 18,22 19,22 19,21 20,21 21,20 22,19 23,19 23,18 24,18 24,17 25,17 26,17 27,17 27,16 28,16 29,16 30,16 31,16 32,16 33,16 34,16 35,16 36,16 36,17 37,17 38,17 39,17 40,18 41,18 42,18 43,18 43,19 44,19 45,19 46,19 47,20 48,20 48,21 49,21 50,22 51,22 52,22 53,23 54,23 55,24 56,24" fill="none" stroke="#ff2d55" stroke-width="3" stroke-linecap="round" stroke-linejoin="round" opacity="0.95">
    <title>2083 d:1</title>
  </polyline>
</svg>
