<?xml version="1.0" encoding="UTF-8"?>
<svg xmlns="http://www.w3.org/2000/svg" width="53" height="59" viewBox="0 0 53 59">
  <title>particle img3-m48-p1 n:1</title>
  <metadata>{&quot;entityType&quot;:&quot;particle&quot;,&quot;entityId&quot;:&quot;img3-m48-p1&quot;,&quot;token&quot;:&quot;n:1&quot;,&quot;signature&quot;:&quot;n:1&quot;,&quot;imageName&quot;:&quot;page-003.jpg&quot;,&quot;imageId&quot;:3,&quot;bounds&quot;:{&quot;x&quot;:955,&quot;y&quot;:1029,&quot;w&quot;:53,&quot;h&quot;:59},&quot;atoms&quot;:[{&quot;id&quot;:3668,&quot;token&quot;:&quot;n:1&quot;,&quot;particle_id&quot;:&quot;img3-m48-p1&quot;,&quot;molecule_id&quot;:&quot;img3-m48&quot;,&quot;atom_order&quot;:1}]}</metadata>
  <rect x="0" y="0" width="53" height="59" fill="#f8f0d8"/>
  <image href="file:///C:/Users/HHHES/AppData/Roaming/com.voynichlab.datasetcreator/images/1/35a70f63-88ab-4986-b441-b78046a10087.jpg" x="-955" y="-1029" width="2972" height="3766" opacity="0.92"/>
  <rect x="0.5" y="0.5" width="52" height="58" fill="none" stroke="#111827" stroke-width="1" opacity="0.35"/>
  <polyline points="16,37 16,36 16,35 16,34 17,34 17,33 17,32 18,32 18,31 18,30 19,30 19,29 19,28 20,28 20,27 21,26 21,25 22,25 22,24 22,23 23,23 23,22 24,22 25,21 26,20 26,19 27,19 27,18 28,18 29,17 30,17 31,17 31,16 32,16 33,16 33,17 34,17 35,17 35,18 36,18 36,19 37,19 37,20 37,21 37,22 37,23 37,24 37,25 37,26 36,27 36,28 36,29 35,29 35,30 35,31 34,31 34,32 33,32 33,33 32,34 32,35 31,35 31,36 30,36 30,37 29,38 28,39 27,40 26,41 26,42 25,42 25,43" fill="none" stroke="#f92f59" stroke-width="3" stroke-linecap="round" stroke-linejoin="round" opacity="0.95">
    <title>3668 n:1</title>
  </polyline>
</svg>
