<?xml version="1.0" encoding="UTF-8"?>
<svg xmlns="http://www.w3.org/2000/svg" width="152" height="161" viewBox="0 0 152 161">
  <title>particle img3-m44-p1 e:1 a:1 m:1 c:1 a:1 b:1 d:1 g:1 e:1</title>
  <metadata>{&quot;entityType&quot;:&quot;particle&quot;,&quot;entityId&quot;:&quot;img3-m44-p1&quot;,&quot;token&quot;:&quot;e:1 a:1 m:1 c:1 a:1 b:1 d:1 g:1 e:1&quot;,&quot;signature&quot;:&quot;e:1 a:1 m:1 c:1 a:1 b:1 d:1 g:1 e:1&quot;,&quot;imageName&quot;:&quot;page-003.jpg&quot;,&quot;imageId&quot;:3,&quot;bounds&quot;:{&quot;x&quot;:1197,&quot;y&quot;:958,&quot;w&quot;:152,&quot;h&quot;:161},&quot;atoms&quot;:[{&quot;id&quot;:1813,&quot;token&quot;:&quot;e:1&quot;,&quot;particle_id&quot;:&quot;img3-m44-p1&quot;,&quot;molecule_id&quot;:&quot;img3-m44&quot;,&quot;atom_order&quot;:1},{&quot;id&quot;:1819,&quot;token&quot;:&quot;a:1&quot;,&quot;particle_id&quot;:&quot;img3-m44-p1&quot;,&quot;molecule_id&quot;:&quot;img3-m44&quot;,&quot;atom_order&quot;:2},{&quot;id&quot;:3039,&quot;token&quot;:&quot;m:1&quot;,&quot;particle_id&quot;:&quot;img3-m44-p1&quot;,&quot;molecule_id&quot;:&quot;img3-m44&quot;,&quot;atom_order&quot;:3},{&quot;id&quot;:1821,&quot;token&quot;:&quot;c:1&quot;,&quot;particle_id&quot;:&quot;img3-m44-p1&quot;,&quot;molecule_id&quot;:&quot;img3-m44&quot;,&quot;atom_order&quot;:4},{&quot;id&quot;:1828,&quot;token&quot;:&quot;a:1&quot;,&quot;particle_id&quot;:&quot;img3-m44-p1&quot;,&quot;molecule_id&quot;:&quot;img3-m44&quot;,&quot;atom_order&quot;:5},{&quot;id&quot;:1826,&quot;token&quot;:&quot;b:1&quot;,&quot;particle_id&quot;:&quot;img3-m44-p1&quot;,&quot;molecule_id&quot;:&quot;img3-m44&quot;,&quot;atom_order&quot;:6},{&quot;id&quot;:5494,&quot;token&quot;:&quot;d:1&quot;,&quot;particle_id&quot;:&quot;img3-m44-p1&quot;,&quot;molecule_id&quot;:&quot;img3-m44&quot;,&quot;atom_order&quot;:7},{&quot;id&quot;:1818,&quot;token&quot;:&quot;g:1&quot;,&quot;particle_id&quot;:&quot;img3-m44-p1&quot;,&quot;molecule_id&quot;:&quot;img3-m44&quot;,&quot;atom_order&quot;:8},{&quot;id&quot;:1814,&quot;token&quot;:&quot;e:1&quot;,&quot;particle_id&quot;:&quot;img3-m44-p1&quot;,&quot;molecule_id&quot;:&quot;img3-m44&quot;,&quot;atom_order&quot;:9}]}</metadata>
  <rect x="0" y="0" width="152" height="161" fill="#f8f0d8"/>
  <image href="file:///C:/Users/HHHES/AppData/Roaming/com.voynichlab.datasetcreator/images/1/35a70f63-88ab-4986-b441-b78046a10087.jpg" x="-1197" y="-958" width="2972" height="3766" opacity="0.92"/>
  <rect x="0.5" y="0.5" width="151" height="160" fill="none" stroke="#111827" stroke-width="1" opacity="0.35"/>
  <polyline points="49,143 48,143 47,143 47,144 46,144 45,144 44,144 43,144 42,144 42,145 41,145 40,145 39,145 38,145 37,145 36,145 35,145 34,145 34,144 33,144 32,144 32,143 31,143 31,142 30,141 30,140 30,139 29,139 29,138 29,137 29,136 29,135 29,134 29,133 30,133 30,132 31,132 31,131 31,130 32,130 33,130 33,129 34,129 35,129 36,128 37,128 38,128 39,127 40,127 41,127 42,127 43,127 44,127 45,127 46,127 47,127" fill="none" stroke="#f2e45c" stroke-width="3" stroke-linecap="round" stroke-linejoin="round" opacity="0.95">
    <title>1813 e:1</title>
  </polyline>
  <polyline points="82,135 82,134 82,133 82,132 82,131 82,130 82,129 82,128 82,127 82,126 82,125 83,125 83,124 83,123 83,122 83,121 83,120 83,119 84,119 84,118 84,117 84,116 84,115 84,114 84,113 84,112 84,111 84,110 84,109 84,108 84,107 84,106 84,105 84,104 84,103 84,102 84,101 84,100 84,99 84,98 84,97 85,97 85,96 85,95 85,94 85,93 85,92 85,91 85,90 85,89 85,88 85,87 85,86 85,85 85,84 85,83 85,82 85,81 85,80 85,79 85,78 85,77 85,76 85,75 85,74 85,73 85,72 85,71 85,70 85,69 85,68 85,67 85,66 85,65 85,64 85,63 85,62 85,61 85,60 85,59 85,58 85,57" fill="none" stroke="#00f0b5" stroke-width="3" stroke-linecap="round" stroke-linejoin="round" opacity="0.95">
    <title>1819 a:1</title>
  </polyline>
  <polyline points="85,57 85,56 85,55 85,54 85,53 85,52 85,51 85,50 85,49 85,48 85,47 85,46 85,45 85,44 84,43 84,42 84,41 84,40 84,39 84,38 84,37 84,36 84,35 84,34 84,33 84,32 84,31 84,30 84,29 84,28 84,27 84,26 85,26 85,25 85,24 85,23 85,22 85,21 85,22 84,22 83,22 83,23 82,23 81,23 81,24 80,24 79,24 79,25 78,25 78,26 77,26 76,26 75,26 75,27 74,27 73,27 72,27 71,27 71,28 70,28 69,29 68,29 68,30 67,30 67,31 66,31 66,32 65,32 65,33 64,33 64,34 63,34 63,35 62,35 62,36 61,36 61,37 60,37 60,38 59,38 59,39 58,40 58,41 57,41 57,42 58,42 59,42 60,42 61,42 62,42 63,42 64,42 65,42 66,42 67,42 68,42 69,42 70,42 71,42 72,42 73,42 74,42 75,42 76,43 77,43 78,43 79,43 80,43 81,43 82,43 83,43 84,43 85,43 85,42 86,42 87,42 88,42 89,42 90,42 91,42 92,42 93,42 94,42 95,42 96,42 96,41 97,41 98,41 99,41 100,41 101,41 102,41 102,40 103,40 104,40 105,40 106,40 107,40 107,39 108,39 109,39" fill="none" stroke="#ff00ff" stroke-width="3" stroke-linecap="round" stroke-linejoin="round" opacity="0.95">
    <title>3039 m:1</title>
  </polyline>
  <polyline points="109,40 110,40 110,40 110,39 111,39 112,39 113,39 114,39 115,39 116,39 117,39 117,39 118,38 119,38 120,38 121,38 121,37 122,37 123,37 124,37 124,36 124,36 125,36 126,35 127,35 128,35 128,34 129,34 130,34 130,33 131,33 131,32 131,32 131,31 132,31 132,30 133,30 133,30 133,29 134,28 134,27 134,26 134,25 134,24 134,23 134,22 134,21 133,21 133,21 132,20 132,19 131,19 131,18 131,18 130,18 130,17 129,17 128,17 127,17 126,16 125,16 124,16 124,16 123,16 122,16 121,16 120,16 119,16 118,16 117,16 117,17 117,17 116,17 115,17 115,18 114,18 113,18 113,19 112,19 111,19 111,20 110,20 110,21 110,21 110,21 109,21 109,22 108,22 108,23 108,24 108,25 107,25 107,26 107,27 107,28 107,29 106,29 106,30 106,30 106,31 106,32 106,33 106,34 107,34 107,35 107,36 108,36 108,37 108,38 109,38 109,39 110,39 110,40 110,40" fill="none" stroke="#8aff00" stroke-width="3" stroke-linecap="round" stroke-linejoin="round" opacity="0.95">
    <title>1821 c:1</title>
  </polyline>
  <polyline points="110,71 110,67 110,63 110,61 110,60 110,59 110,58 109,57 109,56 109,55 109,54 109,53 109,52 109,51 109,50 109,49 109,48 109,47 109,46 108,46 108,45 108,44 108,43 108,42 107,42 107,41 107,40 107,39 107,38 107,37 106,37 106,36 106,35 106,34 106,33 106,32 106,31 106,30" fill="none" stroke="#00f0b5" stroke-width="3" stroke-linecap="round" stroke-linejoin="round" opacity="0.95">
    <title>1828 a:1</title>
  </polyline>
  <polyline points="75,73 75,74 76,74 77,74 77,75 78,75 78,76 79,76 80,76 80,77 81,77 82,78 83,78 84,78 85,78 86,78 86,79 87,79 88,79 89,79 90,79 91,79 92,79 93,79 94,79 95,79 96,79 97,79 98,79 99,79 100,79 101,79 102,79 102,78 103,78 104,78 104,77 105,77 106,77 106,76 107,76 108,76 108,75 109,75 109,74 110,74 110,73 110,72 110,71" fill="none" stroke="#2f7df6" stroke-width="3" stroke-linecap="round" stroke-linejoin="round" opacity="0.95">
    <title>1826 b:1</title>
  </polyline>
  <polyline points="38,93 37,93 36,93 36,94 35,94 34,94 34,95 33,95 32,95 31,95 30,95 29,95 28,95 27,95 26,95 25,95 24,95 23,95 22,95 21,95 20,95 20,94 19,94 18,93 17,92 17,91 16,90 16,89 16,88 16,87 16,86 16,85 16,84 16,83 16,82 17,82 17,81 17,80 18,80 18,79 19,78 20,78 21,77 22,76 23,76 24,75 25,75 26,74 27,74 28,74 28,73 29,73 30,73 31,72 33,72 33,71 34,71 35,71 36,71 37,71 38,71 40,71 41,71 42,71 44,71 45,71 46,71 48,71 49,71 51,71 52,71 54,71 55,71 55,72 56,72 57,72 59,72 60,72 62,73 64,73 65,73 66,73 67,73 68,73 69,73 70,73 70,74 71,74 72,74 73,74 74,74 75,74 76,75 77,75 78,75 79,76 80,76 81,76 82,77 83,77 84,78 85,78 86,79 87,79 88,79 89,79 90,79 91,79 92,79 93,79 94,79 95,79" fill="none" stroke="#ff2d55" stroke-width="3" stroke-linecap="round" stroke-linejoin="round" opacity="0.95">
    <title>5494 d:1</title>
  </polyline>
  <polyline points="46,127 47,127 48,127 49,127 50,127 51,127 52,127 53,127 54,127 55,127 56,127 57,127 58,127 59,127 60,127 61,127 62,127 63,127 64,127 65,127 66,127 67,127 68,127 69,127 70,127 71,127 72,127 73,127 74,127 75,127 76,127 77,127 78,127 79,127 80,127 81,127 82,127 83,127 84,127 85,127 86,127 87,127 88,127 89,127 90,127 91,127 91,126 92,126 93,126 94,126 95,126 96,126 97,126 98,126 99,126 100,126 101,126 102,126 103,126 104,126 104,125 105,125 106,125 107,125 108,125 109,125 110,125 111,125 112,125 113,125 114,125 115,125 116,125 117,125 118,124 119,124 120,124 121,124 122,124 123,124 124,124 125,124 126,124 127,124 128,124 128,123 129,123 130,123 131,123 132,123 133,123 134,123 135,123 136,123" fill="none" stroke="#7c3cff" stroke-width="3" stroke-linecap="round" stroke-linejoin="round" opacity="0.95">
    <title>1818 g:1</title>
  </polyline>
  <polyline points="130,142 129,142 128,143 127,143 126,143 125,143 125,144 124,144 123,144 122,144 122,143 121,143 120,143 119,143 119,142 118,142 117,142 117,141 116,140 116,139 116,138 115,138 115,137 115,136 115,135 115,134 116,134 116,133 116,132 117,132 117,131 118,131 118,130 119,130 120,129 121,129 121,128 122,128 122,127 123,127 124,127 124,126 125,126 126,125 127,125 128,125 128,124 129,124 130,124 131,123 132,123 133,123 134,123 135,123 136,123" fill="none" stroke="#f2e45c" stroke-width="3" stroke-linecap="round" stroke-linejoin="round" opacity="0.95">
    <title>1814 e:1</title>
  </polyline>
</svg>
