<?xml version="1.0" encoding="UTF-8"?>
<svg xmlns="http://www.w3.org/2000/svg" width="51" height="94" viewBox="0 0 51 94">
  <title>particle img3-m62-p5 e:1 h:1</title>
  <metadata>{&quot;entityType&quot;:&quot;particle&quot;,&quot;entityId&quot;:&quot;img3-m62-p5&quot;,&quot;token&quot;:&quot;e:1 h:1&quot;,&quot;signature&quot;:&quot;e:1 h:1&quot;,&quot;imageName&quot;:&quot;page-003.jpg&quot;,&quot;imageId&quot;:3,&quot;bounds&quot;:{&quot;x&quot;:1260,&quot;y&quot;:1240,&quot;w&quot;:51,&quot;h&quot;:94},&quot;atoms&quot;:[{&quot;id&quot;:2054,&quot;token&quot;:&quot;e:1&quot;,&quot;particle_id&quot;:&quot;img3-m62-p5&quot;,&quot;molecule_id&quot;:&quot;img3-m62&quot;,&quot;atom_order&quot;:1},{&quot;id&quot;:2058,&quot;token&quot;:&quot;h:1&quot;,&quot;particle_id&quot;:&quot;img3-m62-p5&quot;,&quot;molecule_id&quot;:&quot;img3-m62&quot;,&quot;atom_order&quot;:2}]}</metadata>
  <rect x="0" y="0" width="51" height="94" fill="#f8f0d8"/>
  <image href="file:///C:/Users/HHHES/AppData/Roaming/com.voynichlab.datasetcreator/images/1/35a70f63-88ab-4986-b441-b78046a10087.jpg" x="-1260" y="-1240" width="2972" height="3766" opacity="0.92"/>
  <rect x="0.5" y="0.5" width="50" height="93" fill="none" stroke="#111827" stroke-width="1" opacity="0.35"/>
  <polyline points="27,31 26,31 25,31 25,32 24,32 23,32 22,32 21,32 20,32 19,32 19,31 18,31 18,30 17,30 17,29 17,28 16,28 16,27 16,26 16,25 16,24 16,23 17,22 17,21 18,21 18,20 19,20 19,19 20,19 21,19 21,18 22,18 23,18 23,17 24,17 25,17 26,16 27,16 28,16 29,16 30,16 31,16 32,16 33,16 34,16 35,16" fill="none" stroke="#f2e45c" stroke-width="3" stroke-linecap="round" stroke-linejoin="round" opacity="0.95">
    <title>2054 e:1</title>
  </polyline>
  <polyline points="34,16 34,17 35,17 35,18 35,19 35,20 35,21 35,22 35,23 35,24 35,25 35,26 35,27 35,28 35,29 35,30 35,31 35,32 35,33 35,34 35,35 35,36 35,37 35,38 35,39 34,40 34,41 34,42 34,43 33,43 33,44 33,45 33,46 33,47 32,47 32,48 32,49 32,50 32,51 32,52 31,52 31,53 31,54 31,55 30,56 30,57 30,58 30,59 29,60 29,61 29,62 28,63 28,64 28,65 28,66 27,66 27,67 27,68 26,68 26,69 26,70 25,70 25,71 24,71 24,72 23,73 22,74 22,75 21,75 21,76 20,76 20,77 19,77 19,78 18,78" fill="none" stroke="#ff8c00" stroke-width="3" stroke-linecap="round" stroke-linejoin="round" opacity="0.95">
    <title>2058 h:1</title>
  </polyline>
</svg>
