<?xml version="1.0" encoding="UTF-8"?>
<svg xmlns="http://www.w3.org/2000/svg" width="67" height="75" viewBox="0 0 67 75">
  <title>particle img3-m69-p3 e:1 i:1 d:1</title>
  <metadata>{&quot;entityType&quot;:&quot;particle&quot;,&quot;entityId&quot;:&quot;img3-m69-p3&quot;,&quot;token&quot;:&quot;e:1 i:1 d:1&quot;,&quot;signature&quot;:&quot;e:1 i:1 d:1&quot;,&quot;imageName&quot;:&quot;page-003.jpg&quot;,&quot;imageId&quot;:3,&quot;bounds&quot;:{&quot;x&quot;:1249,&quot;y&quot;:1472,&quot;w&quot;:67,&quot;h&quot;:75},&quot;atoms&quot;:[{&quot;id&quot;:2152,&quot;token&quot;:&quot;e:1&quot;,&quot;particle_id&quot;:&quot;img3-m69-p3&quot;,&quot;molecule_id&quot;:&quot;img3-m69&quot;,&quot;atom_order&quot;:1},{&quot;id&quot;:2153,&quot;token&quot;:&quot;i:1&quot;,&quot;particle_id&quot;:&quot;img3-m69-p3&quot;,&quot;molecule_id&quot;:&quot;img3-m69&quot;,&quot;atom_order&quot;:2},{&quot;id&quot;:2154,&quot;token&quot;:&quot;d:1&quot;,&quot;particle_id&quot;:&quot;img3-m69-p3&quot;,&quot;molecule_id&quot;:&quot;img3-m69&quot;,&quot;atom_order&quot;:3}]}</metadata>
  <rect x="0" y="0" width="67" height="75" fill="#f8f0d8"/>
  <image href="file:///C:/Users/HHHES/AppData/Roaming/com.voynichlab.datasetcreator/images/1/35a70f63-88ab-4986-b441-b78046a10087.jpg" x="-1249" y="-1472" width="2972" height="3766" opacity="0.92"/>
  <rect x="0.5" y="0.5" width="66" height="74" fill="none" stroke="#111827" stroke-width="1" opacity="0.35"/>
  <polyline points="47,56 47,57 46,57 46,58 45,58 44,58 44,59 43,59 42,59 41,59 40,59 39,59 38,59 37,59 37,58 36,58 35,58 34,58 34,57 33,57 32,57 32,56 32,55 32,54 32,53 32,52 32,51 32,50 33,50 33,49 33,48 33,47 34,47 34,46 34,45 35,45 35,44 35,43 36,43 37,43 37,42 38,42 38,41 39,41 40,41 40,40 41,40 42,40 43,40 43,39" fill="none" stroke="#f2e45c" stroke-width="3" stroke-linecap="round" stroke-linejoin="round" opacity="0.95">
    <title>2152 e:1</title>
  </polyline>
  <polyline points="43,39 44,39 44,38 45,38 46,37 47,37 47,36 48,36 48,35 49,35 49,34 50,34 50,33 51,32 51,31 51,30 51,29 51,28 51,27 51,26 51,25 50,24 50,23 49,23 49,22 49,21 48,21" fill="none" stroke="#00ff7f" stroke-width="3" stroke-linecap="round" stroke-linejoin="round" opacity="0.95">
    <title>2153 i:1</title>
  </polyline>
  <polyline points="16,23 17,23 17,22 18,22 18,21 19,21 19,20 20,20 21,20 21,19 22,19 23,19 23,18 24,18 25,18 26,18 26,17 27,17 28,17 29,17 30,17 30,16 31,16 32,16 33,16 34,16 35,16 36,16 37,16 38,16 39,16 40,16 41,16 42,16 42,17 43,17 44,17 44,18 45,18 46,18 46,19 47,19 47,20 48,20 48,21 49,21 49,22" fill="none" stroke="#ff2d55" stroke-width="3" stroke-linecap="round" stroke-linejoin="round" opacity="0.95">
    <title>2154 d:1</title>
  </polyline>
</svg>
