<?xml version="1.0" encoding="UTF-8"?>
<svg xmlns="http://www.w3.org/2000/svg" width="96" height="55" viewBox="0 0 96 55">
  <title>particle img3-m88-p2 e:1 g:1 e:1</title>
  <metadata>{&quot;entityType&quot;:&quot;particle&quot;,&quot;entityId&quot;:&quot;img3-m88-p2&quot;,&quot;token&quot;:&quot;e:1 g:1 e:1&quot;,&quot;signature&quot;:&quot;e:1 g:1 e:1&quot;,&quot;imageName&quot;:&quot;page-003.jpg&quot;,&quot;imageId&quot;:3,&quot;bounds&quot;:{&quot;x&quot;:549,&quot;y&quot;:1688,&quot;w&quot;:96,&quot;h&quot;:55},&quot;atoms&quot;:[{&quot;id&quot;:2332,&quot;token&quot;:&quot;e:1&quot;,&quot;particle_id&quot;:&quot;img3-m88-p2&quot;,&quot;molecule_id&quot;:&quot;img3-m88&quot;,&quot;atom_order&quot;:1},{&quot;id&quot;:2335,&quot;token&quot;:&quot;g:1&quot;,&quot;particle_id&quot;:&quot;img3-m88-p2&quot;,&quot;molecule_id&quot;:&quot;img3-m88&quot;,&quot;atom_order&quot;:2},{&quot;id&quot;:2333,&quot;token&quot;:&quot;e:1&quot;,&quot;particle_id&quot;:&quot;img3-m88-p2&quot;,&quot;molecule_id&quot;:&quot;img3-m88&quot;,&quot;atom_order&quot;:3}]}</metadata>
  <rect x="0" y="0" width="96" height="55" fill="#f8f0d8"/>
  <image href="file:///C:/Users/HHHES/AppData/Roaming/com.voynichlab.datasetcreator/images/1/35a70f63-88ab-4986-b441-b78046a10087.jpg" x="-549" y="-1688" width="2972" height="3766" opacity="0.92"/>
  <rect x="0.5" y="0.5" width="95" height="54" fill="none" stroke="#111827" stroke-width="1" opacity="0.35"/>
  <polyline points="31,36 31,37 30,37 30,38 29,38 28,38 28,39 27,39 26,39 25,39 24,39 23,39 22,39 21,39 21,38 20,38 19,38 18,38 18,37 17,37 16,37 16,36 16,35 16,34 16,33 16,32 16,31 16,30 17,30 17,29 17,28 17,27 18,27 18,26 18,25 19,25 19,24 19,23 20,23 21,23 21,22 22,22 22,21 23,21 24,21 24,20 25,20 26,20 27,20 27,19" fill="none" stroke="#f2e45c" stroke-width="3" stroke-linecap="round" stroke-linejoin="round" opacity="0.95">
    <title>2332 e:1</title>
  </polyline>
  <polyline points="27,19 28,19 29,19 30,19 31,19 32,18 33,18 34,18 35,18 36,18 37,18 38,18 39,18 40,18 41,18 42,18 43,18 44,18 45,18 46,18 47,18 48,18 49,17 50,17 51,17 52,17 53,17 54,17 55,17 56,17 57,17 58,17 59,17 60,17 61,17 62,17 63,17 64,17 64,16 65,16 66,16 67,16 68,16 69,16 70,16 71,16 72,16 73,16 74,16 75,16 76,16 77,16 78,16 79,16 80,16" fill="none" stroke="#7c3cff" stroke-width="3" stroke-linecap="round" stroke-linejoin="round" opacity="0.95">
    <title>2335 g:1</title>
  </polyline>
  <polyline points="73,33 70,34 68,34 67,34 66,34 65,34 64,34 63,34 62,34 61,34 61,33 60,33 60,32 59,32 59,31 58,31 58,30 58,29 57,29 57,28 57,27 57,26 57,24 58,23 58,22 59,22 59,21 60,21 61,21 61,20 62,20 63,20 63,19 64,19 65,19 66,19 66,18 67,18 68,18 69,18 70,18 70,17 71,17 72,17 74,17 75,17 76,17 77,17 78,17 79,17 80,17" fill="none" stroke="#f2e45c" stroke-width="3" stroke-linecap="round" stroke-linejoin="round" opacity="0.95">
    <title>2333 e:1</title>
  </polyline>
</svg>
