<?xml version="1.0" encoding="UTF-8"?>
<svg xmlns="http://www.w3.org/2000/svg" width="56" height="92" viewBox="0 0 56 92">
  <title>particle img3-m8-p1 n:1</title>
  <metadata>{&quot;entityType&quot;:&quot;particle&quot;,&quot;entityId&quot;:&quot;img3-m8-p1&quot;,&quot;token&quot;:&quot;n:1&quot;,&quot;signature&quot;:&quot;n:1&quot;,&quot;imageName&quot;:&quot;page-003.jpg&quot;,&quot;imageId&quot;:3,&quot;bounds&quot;:{&quot;x&quot;:2194,&quot;y&quot;:458,&quot;w&quot;:56,&quot;h&quot;:92},&quot;atoms&quot;:[{&quot;id&quot;:3663,&quot;token&quot;:&quot;n:1&quot;,&quot;particle_id&quot;:&quot;img3-m8-p1&quot;,&quot;molecule_id&quot;:&quot;img3-m8&quot;,&quot;atom_order&quot;:1}]}</metadata>
  <rect x="0" y="0" width="56" height="92" fill="#f8f0d8"/>
  <image href="file:///C:/Users/HHHES/AppData/Roaming/com.voynichlab.datasetcreator/images/1/35a70f63-88ab-4986-b441-b78046a10087.jpg" x="-2194" y="-458" width="2972" height="3766" opacity="0.92"/>
  <rect x="0.5" y="0.5" width="55" height="91" fill="none" stroke="#111827" stroke-width="1" opacity="0.35"/>
  <polyline points="20,69 20,68 20,67 20,66 21,65 21,64 21,63 20,63 20,62 20,61 20,60 20,59 19,59 19,58 19,57 19,56 19,55 18,54 18,53 18,52 18,51 18,50 18,49 17,49 17,48 17,47 17,46 17,45 17,44 17,43 17,42 17,41 16,40 16,39 16,38 16,37 16,36 16,35 16,34 16,33 16,32 16,31 17,31 17,30 17,29 17,28 18,28 18,27 18,26 18,25 19,25 19,24 20,24 20,23 20,22 21,22 21,21 21,20 22,20 22,19 23,19 23,18 24,18 24,17 25,17 26,17 27,17 27,16 28,16 29,16 30,16 31,16 31,17 32,17 33,17 34,17 34,18 35,18 36,18 36,19 37,19 37,20 37,21 38,21 38,22 38,23 39,23 39,24 39,25 40,25 40,26 40,27 40,28 40,29 40,30 40,31 40,32 40,33 40,34 40,35 40,36 40,37 40,38 40,39 40,40 40,41 39,41 39,42 39,43 39,44 38,44 38,45 38,46 38,47 37,47 37,48 37,49 37,50 36,51 36,52 36,53 36,54 35,54 35,55 35,56 34,56 34,57 33,58 33,59 32,60 32,61 31,61 31,62 30,63 30,64 29,64 29,65 28,66 27,67 26,68 26,69 25,69 25,70 24,70 23,70 23,71 22,71 21,71 21,72 20,72 20,73 19,73 19,74 18,74 18,75 17,75 16,75 16,76" fill="none" stroke="#f92f59" stroke-width="3" stroke-linecap="round" stroke-linejoin="round" opacity="0.95">
    <title>3663 n:1</title>
  </polyline>
</svg>
