<?xml version="1.0" encoding="UTF-8"?>
<svg xmlns="http://www.w3.org/2000/svg" width="59" height="76" viewBox="0 0 59 76">
  <title>particle img3-m114-p3 e:1 c:1 h:2</title>
  <metadata>{&quot;entityType&quot;:&quot;particle&quot;,&quot;entityId&quot;:&quot;img3-m114-p3&quot;,&quot;token&quot;:&quot;e:1 c:1 h:2&quot;,&quot;signature&quot;:&quot;e:1 c:1 h:2&quot;,&quot;imageName&quot;:&quot;page-003.jpg&quot;,&quot;imageId&quot;:3,&quot;bounds&quot;:{&quot;x&quot;:960,&quot;y&quot;:1888,&quot;w&quot;:59,&quot;h&quot;:76},&quot;atoms&quot;:[{&quot;id&quot;:3234,&quot;token&quot;:&quot;e:1&quot;,&quot;particle_id&quot;:&quot;img3-m114-p3&quot;,&quot;molecule_id&quot;:&quot;img3-m114&quot;,&quot;atom_order&quot;:1},{&quot;id&quot;:3265,&quot;token&quot;:&quot;c:1&quot;,&quot;particle_id&quot;:&quot;img3-m114-p3&quot;,&quot;molecule_id&quot;:&quot;img3-m114&quot;,&quot;atom_order&quot;:2},{&quot;id&quot;:3284,&quot;token&quot;:&quot;h:2&quot;,&quot;particle_id&quot;:&quot;img3-m114-p3&quot;,&quot;molecule_id&quot;:&quot;img3-m114&quot;,&quot;atom_order&quot;:3}]}</metadata>
  <rect x="0" y="0" width="59" height="76" fill="#f8f0d8"/>
  <image href="file:///C:/Users/HHHES/AppData/Roaming/com.voynichlab.datasetcreator/images/1/35a70f63-88ab-4986-b441-b78046a10087.jpg" x="-960" y="-1888" width="2972" height="3766" opacity="0.92"/>
  <rect x="0.5" y="0.5" width="58" height="75" fill="none" stroke="#111827" stroke-width="1" opacity="0.35"/>
  <polyline points="31,57 31,58 30,58 30,59 29,59 28,59 28,60 27,60 26,60 25,60 24,60 23,60 22,60 21,60 21,59 20,59 19,59 18,59 18,58 17,58 16,58 16,57 16,56 16,55 16,54 16,53 16,52 16,51 17,51 17,50 17,49 17,48 18,48 18,47 18,46 19,46 19,45 19,44 20,44 21,44 21,43 22,43 22,42 23,42 24,42 24,41 25,41 26,41 27,41 27,40" fill="none" stroke="#f2e45c" stroke-width="3" stroke-linecap="round" stroke-linejoin="round" opacity="0.95">
    <title>3234 e:1</title>
  </polyline>
  <polyline points="33,35 33,34 34,34 35,34 35,33 36,33 37,33 37,32 38,32 39,32 39,31 40,31 40,30 41,30 41,29 41,28 42,28 42,27 42,26 42,25 42,24 43,24 43,23 43,22 43,21 42,21 42,20 42,19 41,18 40,18 40,17 39,17 38,17 38,16 37,16 36,16 35,16 34,16 33,16 32,16 31,16 30,16 29,16 29,17 28,17 27,17 27,18 26,18 26,19 25,19 24,20 24,21 23,21 23,22 23,23 23,24 22,25 22,26 23,27 23,28 24,28 24,29 25,29 25,30 26,30 26,31 27,31 27,32 28,32 28,33 29,33 29,34 30,34 31,35 32,35 33,35 34,35" fill="none" stroke="#8aff00" stroke-width="3" stroke-linecap="round" stroke-linejoin="round" opacity="0.95">
    <title>3265 c:1</title>
  </polyline>
  <polyline points="31,58 32,57 32,56 33,56 33,55 34,55 34,54 34,53 34,52 34,51 34,50 34,49 34,48 34,47 34,46 34,45 34,44 34,43 34,42 33,42 33,41 33,40 32,40 32,39 31,39 31,38 30,37 29,36 28,36 28,35 27,35 27,34 26,34 26,33 25,33 25,32 24,32 24,31 24,30 23,30 23,29 23,28 23,27 22,27 22,26 22,25 22,24 23,23 23,22 24,22 24,21 24,20 25,20 25,19 26,19 26,18 27,18 27,17 28,17 28,16 29,16 30,16" fill="none" stroke="#ff8c00" stroke-width="3" stroke-linecap="round" stroke-linejoin="round" opacity="0.95">
    <title>3284 h:2</title>
  </polyline>
</svg>
