<?xml version="1.0" encoding="UTF-8"?>
<svg xmlns="http://www.w3.org/2000/svg" width="85" height="53" viewBox="0 0 85 53">
  <title>particle img3-m195-p1 e:1 g:1 e:1</title>
  <metadata>{&quot;entityType&quot;:&quot;particle&quot;,&quot;entityId&quot;:&quot;img3-m195-p1&quot;,&quot;token&quot;:&quot;e:1 g:1 e:1&quot;,&quot;signature&quot;:&quot;e:1 g:1 e:1&quot;,&quot;imageName&quot;:&quot;page-003.jpg&quot;,&quot;imageId&quot;:3,&quot;bounds&quot;:{&quot;x&quot;:1064,&quot;y&quot;:2950,&quot;w&quot;:85,&quot;h&quot;:53},&quot;atoms&quot;:[{&quot;id&quot;:4136,&quot;token&quot;:&quot;e:1&quot;,&quot;particle_id&quot;:&quot;img3-m195-p1&quot;,&quot;molecule_id&quot;:&quot;img3-m195&quot;,&quot;atom_order&quot;:1},{&quot;id&quot;:4180,&quot;token&quot;:&quot;g:1&quot;,&quot;particle_id&quot;:&quot;img3-m195-p1&quot;,&quot;molecule_id&quot;:&quot;img3-m195&quot;,&quot;atom_order&quot;:2},{&quot;id&quot;:4135,&quot;token&quot;:&quot;e:1&quot;,&quot;particle_id&quot;:&quot;img3-m195-p1&quot;,&quot;molecule_id&quot;:&quot;img3-m195&quot;,&quot;atom_order&quot;:3}]}</metadata>
  <rect x="0" y="0" width="85" height="53" fill="#f8f0d8"/>
  <image href="file:///C:/Users/HHHES/AppData/Roaming/com.voynichlab.datasetcreator/images/1/35a70f63-88ab-4986-b441-b78046a10087.jpg" x="-1064" y="-2950" width="2972" height="3766" opacity="0.92"/>
  <rect x="0.5" y="0.5" width="84" height="52" fill="none" stroke="#111827" stroke-width="1" opacity="0.35"/>
  <polyline points="31,34 31,35 30,35 30,36 29,36 28,36 28,37 27,37 26,37 25,37 24,37 23,37 22,37 21,37 21,36 20,36 19,36 18,36 18,35 17,35 16,35 16,34 16,33 16,32 16,31 16,30 16,29 16,28 17,28 17,27 17,26 17,25 18,25 18,24 18,23 19,23 19,22 19,21 20,21 21,21 21,20 22,20 22,19 23,19 24,19 24,18 25,18 26,18 27,18 27,17" fill="none" stroke="#f2e45c" stroke-width="3" stroke-linecap="round" stroke-linejoin="round" opacity="0.95">
    <title>4136 e:1</title>
  </polyline>
  <polyline points="22,17 23,17 24,17 25,17 26,17 27,17 28,17 29,17 30,17 31,17 32,17 33,17 34,17 35,17 36,17 38,17 40,17 41,17 42,17 44,17 46,18 49,18 50,18 52,18 53,18 54,18 55,18 56,18 57,18 58,18 59,18 60,18 61,18 62,18 63,18 64,18 64,17 65,17 66,17 65,17 64,17" fill="none" stroke="#7c3cff" stroke-width="3" stroke-linecap="round" stroke-linejoin="round" opacity="0.95">
    <title>4180 g:1</title>
  </polyline>
  <polyline points="69,33 69,34 68,34 68,35 67,35 66,35 66,36 65,36 64,36 63,36 62,36 61,36 60,36 59,36 59,35 58,35 57,35 56,35 56,34 55,34 54,34 54,33 54,32 54,31 54,30 54,29 54,28 54,27 55,27 55,26 55,25 55,24 56,24 56,23 56,22 57,22 57,21 57,20 58,20 59,20 59,19 60,19 60,18 61,18 62,18 62,17 63,17 64,17 65,17 65,16" fill="none" stroke="#f2e45c" stroke-width="3" stroke-linecap="round" stroke-linejoin="round" opacity="0.95">
    <title>4135 e:1</title>
  </polyline>
</svg>
