<?xml version="1.0" encoding="UTF-8"?>
<svg xmlns="http://www.w3.org/2000/svg" width="102" height="54" viewBox="0 0 102 54">
  <title>particle img3-m24-p2 e:1 g:1 e:1</title>
  <metadata>{&quot;entityType&quot;:&quot;particle&quot;,&quot;entityId&quot;:&quot;img3-m24-p2&quot;,&quot;token&quot;:&quot;e:1 g:1 e:1&quot;,&quot;signature&quot;:&quot;e:1 g:1 e:1&quot;,&quot;imageName&quot;:&quot;page-003.jpg&quot;,&quot;imageId&quot;:3,&quot;bounds&quot;:{&quot;x&quot;:1349,&quot;y&quot;:694,&quot;w&quot;:102,&quot;h&quot;:54},&quot;atoms&quot;:[{&quot;id&quot;:1380,&quot;token&quot;:&quot;e:1&quot;,&quot;particle_id&quot;:&quot;img3-m24-p2&quot;,&quot;molecule_id&quot;:&quot;img3-m24&quot;,&quot;atom_order&quot;:1},{&quot;id&quot;:1382,&quot;token&quot;:&quot;g:1&quot;,&quot;particle_id&quot;:&quot;img3-m24-p2&quot;,&quot;molecule_id&quot;:&quot;img3-m24&quot;,&quot;atom_order&quot;:2},{&quot;id&quot;:1381,&quot;token&quot;:&quot;e:1&quot;,&quot;particle_id&quot;:&quot;img3-m24-p2&quot;,&quot;molecule_id&quot;:&quot;img3-m24&quot;,&quot;atom_order&quot;:3}]}</metadata>
  <rect x="0" y="0" width="102" height="54" fill="#f8f0d8"/>
  <image href="file:///C:/Users/HHHES/AppData/Roaming/com.voynichlab.datasetcreator/images/1/35a70f63-88ab-4986-b441-b78046a10087.jpg" x="-1349" y="-694" width="2972" height="3766" opacity="0.92"/>
  <rect x="0.5" y="0.5" width="101" height="53" fill="none" stroke="#111827" stroke-width="1" opacity="0.35"/>
  <polyline points="27,35 27,36 26,36 25,37 24,37 24,38 23,38 22,38 21,38 20,38 20,37 19,37 18,37 18,36 18,35 17,35 17,34 17,33 17,32 16,32 16,31 16,30 16,29 16,28 16,27 16,26 17,25 17,24 17,23 18,22 18,21 19,21 19,20 20,20 21,19 22,19 23,18 24,18 24,17 25,17 26,17 27,17 27,16" fill="none" stroke="#f2e45c" stroke-width="3" stroke-linecap="round" stroke-linejoin="round" opacity="0.95">
    <title>1380 e:1</title>
  </polyline>
  <polyline points="26,17 27,17 28,17 29,17 30,17 31,17 32,17 33,17 34,17 35,17 36,17 37,17 38,17 39,18 40,18 41,18 42,18 43,18 44,18 45,18 46,18 47,18 48,18 49,18 50,18 51,18 51,19 52,19 53,19 54,19 55,19 56,19 57,19 58,19 59,19 60,19 61,19 62,19 63,19 64,19 65,19 66,19 67,19 68,19 69,19 70,19 71,19 72,19 73,19 73,18 74,18 75,18 76,18 77,18 78,18 79,18 80,18 81,18 82,18 83,18 84,18 85,18 86,18" fill="none" stroke="#7c3cff" stroke-width="3" stroke-linecap="round" stroke-linejoin="round" opacity="0.95">
    <title>1382 g:1</title>
  </polyline>
  <polyline points="85,34 84,34 84,35 83,35 83,36 82,36 81,36 81,37 80,37 79,37 78,37 77,37 76,37 76,36 75,36 74,36 74,35 73,35 72,34 71,34 71,33 71,32 71,31 70,30 70,29 70,28 70,27 70,26 71,26 71,25 71,24 72,24 72,23 72,22 73,22 73,21 74,21 74,20 75,20 76,20 76,19 77,19 78,19 79,19 80,19 81,19 82,19 83,19 84,19 85,20 86,20" fill="none" stroke="#f2e45c" stroke-width="3" stroke-linecap="round" stroke-linejoin="round" opacity="0.95">
    <title>1381 e:1</title>
  </polyline>
</svg>
