<?xml version="1.0" encoding="UTF-8"?>
<svg xmlns="http://www.w3.org/2000/svg" width="51" height="53" viewBox="0 0 51 53">
  <title>particle img3-m109-p3 n:1</title>
  <metadata>{&quot;entityType&quot;:&quot;particle&quot;,&quot;entityId&quot;:&quot;img3-m109-p3&quot;,&quot;token&quot;:&quot;n:1&quot;,&quot;signature&quot;:&quot;n:1&quot;,&quot;imageName&quot;:&quot;page-003.jpg&quot;,&quot;imageId&quot;:3,&quot;bounds&quot;:{&quot;x&quot;:1195,&quot;y&quot;:1895,&quot;w&quot;:51,&quot;h&quot;:53},&quot;atoms&quot;:[{&quot;id&quot;:3686,&quot;token&quot;:&quot;n:1&quot;,&quot;particle_id&quot;:&quot;img3-m109-p3&quot;,&quot;molecule_id&quot;:&quot;img3-m109&quot;,&quot;atom_order&quot;:1}]}</metadata>
  <rect x="0" y="0" width="51" height="53" fill="#f8f0d8"/>
  <image href="file:///C:/Users/HHHES/AppData/Roaming/com.voynichlab.datasetcreator/images/1/35a70f63-88ab-4986-b441-b78046a10087.jpg" x="-1195" y="-1895" width="2972" height="3766" opacity="0.92"/>
  <rect x="0.5" y="0.5" width="50" height="52" fill="none" stroke="#111827" stroke-width="1" opacity="0.35"/>
  <polyline points="16,36 16,35 16,34 16,33 16,32 16,31 16,30 16,29 16,28 16,27 17,26 17,25 18,24 18,23 19,22 20,21 21,21 21,20 22,20 22,19 23,19 24,19 25,18 26,18 27,17 28,17 29,17 30,17 31,17 32,16 33,16 34,16 35,16 35,17 35,18 35,19 35,20 35,21 34,22 33,23 33,24 32,24 31,25 31,26 31,27 30,27 30,28 29,28 29,29 28,30 27,31 27,32 26,33 25,33 24,34 24,35 23,36 23,37 22,37" fill="none" stroke="#f92f59" stroke-width="3" stroke-linecap="round" stroke-linejoin="round" opacity="0.95">
    <title>3686 n:1</title>
  </polyline>
</svg>
