<?xml version="1.0" encoding="UTF-8"?>
<svg xmlns="http://www.w3.org/2000/svg" width="91" height="56" viewBox="0 0 91 56">
  <title>particle img3-m71-p5 e:1 g:1 e:1</title>
  <metadata>{&quot;entityType&quot;:&quot;particle&quot;,&quot;entityId&quot;:&quot;img3-m71-p5&quot;,&quot;token&quot;:&quot;e:1 g:1 e:1&quot;,&quot;signature&quot;:&quot;e:1 g:1 e:1&quot;,&quot;imageName&quot;:&quot;page-003.jpg&quot;,&quot;imageId&quot;:3,&quot;bounds&quot;:{&quot;x&quot;:1875,&quot;y&quot;:1509,&quot;w&quot;:91,&quot;h&quot;:56},&quot;atoms&quot;:[{&quot;id&quot;:2193,&quot;token&quot;:&quot;e:1&quot;,&quot;particle_id&quot;:&quot;img3-m71-p5&quot;,&quot;molecule_id&quot;:&quot;img3-m71&quot;,&quot;atom_order&quot;:1},{&quot;id&quot;:2196,&quot;token&quot;:&quot;g:1&quot;,&quot;particle_id&quot;:&quot;img3-m71-p5&quot;,&quot;molecule_id&quot;:&quot;img3-m71&quot;,&quot;atom_order&quot;:2},{&quot;id&quot;:2194,&quot;token&quot;:&quot;e:1&quot;,&quot;particle_id&quot;:&quot;img3-m71-p5&quot;,&quot;molecule_id&quot;:&quot;img3-m71&quot;,&quot;atom_order&quot;:3}]}</metadata>
  <rect x="0" y="0" width="91" height="56" fill="#f8f0d8"/>
  <image href="file:///C:/Users/HHHES/AppData/Roaming/com.voynichlab.datasetcreator/images/1/35a70f63-88ab-4986-b441-b78046a10087.jpg" x="-1875" y="-1509" width="2972" height="3766" opacity="0.92"/>
  <rect x="0.5" y="0.5" width="90" height="55" fill="none" stroke="#111827" stroke-width="1" opacity="0.35"/>
  <polyline points="31,33 31,34 30,34 30,35 29,35 28,35 28,36 27,36 26,36 25,36 24,36 23,36 22,36 21,36 21,35 20,35 19,35 18,35 18,34 17,34 16,34 16,33 16,32 16,31 16,30 16,29 16,28 16,27 17,27 17,26 17,25 17,24 18,24 18,23 18,22 19,22 19,21 19,20 20,20 21,20 21,19 22,19 22,18 23,18 24,18 24,17 25,17 26,17 27,17 27,16" fill="none" stroke="#f2e45c" stroke-width="3" stroke-linecap="round" stroke-linejoin="round" opacity="0.95">
    <title>2193 e:1</title>
  </polyline>
  <polyline points="27,16 28,16 28,17 29,17 30,17 31,17 32,17 33,17 34,17 35,17 36,17 37,17 38,18 39,18 40,18 41,18 42,18 43,18 44,18 45,18 46,18 47,18 48,18 49,18 50,18 51,18 52,18 53,18 54,18 55,18 56,18 57,18 58,18 59,18 60,18 61,18 62,18 63,18 64,18 64,19 65,19 66,19 67,19 68,19 68,20 69,20 70,20 71,20" fill="none" stroke="#7c3cff" stroke-width="3" stroke-linecap="round" stroke-linejoin="round" opacity="0.95">
    <title>2196 g:1</title>
  </polyline>
  <polyline points="75,37 75,38 74,38 74,39 73,39 72,39 72,40 71,40 70,40 69,40 68,40 67,40 66,40 65,40 65,39 64,39 63,39 62,39 62,38 61,38 60,38 60,37 60,36 60,35 60,34 60,33 60,32 60,31 61,31 61,30 61,29 61,28 62,28 62,27 62,26 63,26 63,25 63,24 64,24 65,24 65,23 66,23 66,22 67,22 68,22 68,21 69,21 70,21 71,21 71,20" fill="none" stroke="#f2e45c" stroke-width="3" stroke-linecap="round" stroke-linejoin="round" opacity="0.95">
    <title>2194 e:1</title>
  </polyline>
</svg>
