<?xml version="1.0" encoding="UTF-8"?>
<svg xmlns="http://www.w3.org/2000/svg" width="56" height="71" viewBox="0 0 56 71">
  <title>particle img3-m96-p3 e:1 c:2 h:2</title>
  <metadata>{&quot;entityType&quot;:&quot;particle&quot;,&quot;entityId&quot;:&quot;img3-m96-p3&quot;,&quot;token&quot;:&quot;e:1 c:2 h:2&quot;,&quot;signature&quot;:&quot;e:1 c:2 h:2&quot;,&quot;imageName&quot;:&quot;page-003.jpg&quot;,&quot;imageId&quot;:3,&quot;bounds&quot;:{&quot;x&quot;:1373,&quot;y&quot;:1741,&quot;w&quot;:56,&quot;h&quot;:71},&quot;atoms&quot;:[{&quot;id&quot;:2544,&quot;token&quot;:&quot;e:1&quot;,&quot;particle_id&quot;:&quot;img3-m96-p3&quot;,&quot;molecule_id&quot;:&quot;img3-m96&quot;,&quot;atom_order&quot;:1},{&quot;id&quot;:2553,&quot;token&quot;:&quot;c:2&quot;,&quot;particle_id&quot;:&quot;img3-m96-p3&quot;,&quot;molecule_id&quot;:&quot;img3-m96&quot;,&quot;atom_order&quot;:2},{&quot;id&quot;:2554,&quot;token&quot;:&quot;h:2&quot;,&quot;particle_id&quot;:&quot;img3-m96-p3&quot;,&quot;molecule_id&quot;:&quot;img3-m96&quot;,&quot;atom_order&quot;:3}]}</metadata>
  <rect x="0" y="0" width="56" height="71" fill="#f8f0d8"/>
  <image href="file:///C:/Users/HHHES/AppData/Roaming/com.voynichlab.datasetcreator/images/1/35a70f63-88ab-4986-b441-b78046a10087.jpg" x="-1373" y="-1741" width="2972" height="3766" opacity="0.92"/>
  <rect x="0.5" y="0.5" width="55" height="70" fill="none" stroke="#111827" stroke-width="1" opacity="0.35"/>
  <polyline points="31,52 31,53 30,53 30,54 29,54 28,54 28,55 27,55 26,55 25,55 24,55 23,55 22,55 21,55 21,54 20,54 19,54 18,54 18,53 17,53 16,53 16,52 16,51 16,50 16,49 16,48 16,47 16,46 17,46 17,45 17,44 17,43 18,43 18,42 18,41 19,41 19,40 19,39 20,39 21,39 21,38 22,38 22,37 23,37 24,37 24,36 25,36 26,36 27,36 27,35" fill="none" stroke="#f2e45c" stroke-width="3" stroke-linecap="round" stroke-linejoin="round" opacity="0.95">
    <title>2544 e:1</title>
  </polyline>
  <polyline points="22,19 23,19 24,19 24,18 25,18 27,18 27,17 27,17 28,17 29,17 30,17 31,17 31,16 32,16 33,16 34,16 34,17 36,17 37,17 38,17 38,18 38,18 38,19 39,19 39,21 40,21 40,22 40,23 40,24 40,25 40,26 39,26 39,27 39,27 38,27 38,29 38,29 38,30 37,30 36,30 36,31 34,31 33,31 33,32 32,32 31,32 30,32 29,32 28,32 27,32 27,32 25,31 24,31 24,30 23,30 23,29 23,27 22,27 22,27 22,26 22,25 21,25 21,24 21,23 21,22 21,21 22,21 22,19 23,19" fill="none" stroke="#8aff00" stroke-width="3" stroke-linecap="round" stroke-linejoin="round" opacity="0.95">
    <title>2553 c:2</title>
  </polyline>
  <polyline points="29,54 30,54 30,53 31,53 32,53 32,52 33,52 34,52 34,51 35,51 35,50 36,50 36,49 37,49 37,48 38,47 38,46 38,45 39,45 39,44 39,43 39,42 39,41 38,41 38,40 37,40 37,39 36,39 36,38 35,38 34,38 34,37 33,37 32,37 32,36 31,36 30,36 29,36 29,35 28,35 27,35 27,34 26,34 26,33 25,33 25,32 24,32 24,31 23,30 23,29 22,29 22,28 22,27 22,26 21,26 21,25 21,24 21,23 21,22 21,21 22,21 22,20 23,20 23,19 24,19 25,19 25,18 26,18 27,18" fill="none" stroke="#ff8c00" stroke-width="3" stroke-linecap="round" stroke-linejoin="round" opacity="0.95">
    <title>2554 h:2</title>
  </polyline>
</svg>
