<?xml version="1.0" encoding="UTF-8"?>
<svg xmlns="http://www.w3.org/2000/svg" width="56" height="69" viewBox="0 0 56 69">
  <title>particle img3-m157-p2 e:1 c:1 h:2</title>
  <metadata>{&quot;entityType&quot;:&quot;particle&quot;,&quot;entityId&quot;:&quot;img3-m157-p2&quot;,&quot;token&quot;:&quot;e:1 c:1 h:2&quot;,&quot;signature&quot;:&quot;e:1 c:1 h:2&quot;,&quot;imageName&quot;:&quot;page-003.jpg&quot;,&quot;imageId&quot;:3,&quot;bounds&quot;:{&quot;x&quot;:571,&quot;y&quot;:2572,&quot;w&quot;:56,&quot;h&quot;:69},&quot;atoms&quot;:[{&quot;id&quot;:3814,&quot;token&quot;:&quot;e:1&quot;,&quot;particle_id&quot;:&quot;img3-m157-p2&quot;,&quot;molecule_id&quot;:&quot;img3-m157&quot;,&quot;atom_order&quot;:1},{&quot;id&quot;:3845,&quot;token&quot;:&quot;c:1&quot;,&quot;particle_id&quot;:&quot;img3-m157-p2&quot;,&quot;molecule_id&quot;:&quot;img3-m157&quot;,&quot;atom_order&quot;:2},{&quot;id&quot;:3841,&quot;token&quot;:&quot;h:2&quot;,&quot;particle_id&quot;:&quot;img3-m157-p2&quot;,&quot;molecule_id&quot;:&quot;img3-m157&quot;,&quot;atom_order&quot;:3}]}</metadata>
  <rect x="0" y="0" width="56" height="69" fill="#f8f0d8"/>
  <image href="file:///C:/Users/HHHES/AppData/Roaming/com.voynichlab.datasetcreator/images/1/35a70f63-88ab-4986-b441-b78046a10087.jpg" x="-571" y="-2572" width="2972" height="3766" opacity="0.92"/>
  <rect x="0.5" y="0.5" width="55" height="68" fill="none" stroke="#111827" stroke-width="1" opacity="0.35"/>
  <polyline points="31,50 31,51 30,51 30,52 29,52 28,52 28,53 27,53 26,53 25,53 24,53 23,53 22,53 21,53 21,52 20,52 19,52 18,52 18,51 17,51 16,51 16,50 16,49 16,48 16,47 16,46 16,45 16,44 17,44 17,43 17,42 17,41 18,41 18,40 18,39 19,39 19,38 19,37 20,37 21,37 21,36 22,36 22,35 23,35 24,35 24,34 25,34 26,34 27,34 27,33" fill="none" stroke="#f2e45c" stroke-width="3" stroke-linecap="round" stroke-linejoin="round" opacity="0.95">
    <title>3814 e:1</title>
  </polyline>
  <polyline points="29,16 30,16 31,16 32,16 33,16 34,16 35,16 36,16 36,17 37,17 38,17 39,17 39,18 40,18 40,19 40,20 40,21 40,22 40,23 39,23 39,24 39,25 39,26 38,26 38,27 37,27 37,28 37,29 36,29 35,29 35,30 34,30 33,30 32,30 31,30 30,30 29,29 28,29 28,28 27,28 27,27 26,27 26,26 26,25 25,25 25,24 25,23 25,22 25,21 26,21 26,20 26,19 27,19 27,18 28,18 29,17 30,17 30,16 31,16 32,16 33,16" fill="none" stroke="#8aff00" stroke-width="3" stroke-linecap="round" stroke-linejoin="round" opacity="0.95">
    <title>3845 c:1</title>
  </polyline>
  <polyline points="30,52 31,51 32,51 32,50 33,50 33,49 33,48 34,48 34,47 34,46 34,45 35,45 35,44 35,43 35,42 35,41 34,40 34,39 34,38 33,38 33,37 32,37 32,36 31,36 31,35 30,35 30,34 29,34 29,33 28,33 28,32 27,32 27,31 26,31 26,30 25,30 25,29 24,29 24,28 23,28 23,27 22,27 22,26 21,25 21,24 21,23 21,22 21,21 21,20 21,19 22,19 22,18 23,18 24,18 24,17 25,17 26,17 27,17 27,16 28,16 29,16 30,16 31,16 31,17" fill="none" stroke="#ff8c00" stroke-width="3" stroke-linecap="round" stroke-linejoin="round" opacity="0.95">
    <title>3841 h:2</title>
  </polyline>
</svg>
