<?xml version="1.0" encoding="UTF-8"?>
<svg xmlns="http://www.w3.org/2000/svg" width="58" height="88" viewBox="0 0 58 88">
  <title>particle img3-m60-p5 e:1 h:1</title>
  <metadata>{&quot;entityType&quot;:&quot;particle&quot;,&quot;entityId&quot;:&quot;img3-m60-p5&quot;,&quot;token&quot;:&quot;e:1 h:1&quot;,&quot;signature&quot;:&quot;e:1 h:1&quot;,&quot;imageName&quot;:&quot;page-003.jpg&quot;,&quot;imageId&quot;:3,&quot;bounds&quot;:{&quot;x&quot;:2246,&quot;y&quot;:1235,&quot;w&quot;:58,&quot;h&quot;:88},&quot;atoms&quot;:[{&quot;id&quot;:2060,&quot;token&quot;:&quot;e:1&quot;,&quot;particle_id&quot;:&quot;img3-m60-p5&quot;,&quot;molecule_id&quot;:&quot;img3-m60&quot;,&quot;atom_order&quot;:1},{&quot;id&quot;:2059,&quot;token&quot;:&quot;h:1&quot;,&quot;particle_id&quot;:&quot;img3-m60-p5&quot;,&quot;molecule_id&quot;:&quot;img3-m60&quot;,&quot;atom_order&quot;:2}]}</metadata>
  <rect x="0" y="0" width="58" height="88" fill="#f8f0d8"/>
  <image href="file:///C:/Users/HHHES/AppData/Roaming/com.voynichlab.datasetcreator/images/1/35a70f63-88ab-4986-b441-b78046a10087.jpg" x="-2246" y="-1235" width="2972" height="3766" opacity="0.92"/>
  <rect x="0.5" y="0.5" width="57" height="87" fill="none" stroke="#111827" stroke-width="1" opacity="0.35"/>
  <polyline points="27,35 25,37 20,37 19,37 19,36 18,36 17,36 17,35 16,35 16,34 16,33 16,32 16,31 16,30 16,29 16,28 16,27 16,26 16,25 16,24 17,24 17,23 17,22 18,22 18,21 19,21 19,20 20,20 21,19 22,19 23,19 23,18 24,18 25,18 25,17 26,17 27,17 28,17 29,17 29,16 30,16 31,16" fill="none" stroke="#f2e45c" stroke-width="3" stroke-linecap="round" stroke-linejoin="round" opacity="0.95">
    <title>2060 e:1</title>
  </polyline>
  <polyline points="31,17 32,17 32,18 33,18 33,19 34,19 34,20 35,21 36,22 36,23 37,23 37,24 37,25 38,25 38,26 38,27 39,28 39,29 39,30 40,30 40,31 40,32 41,32 41,33 41,34 42,35 42,36 42,37 42,38 42,39 42,40 42,41 42,42 42,43 42,44 41,45 41,46 41,47 41,48 40,48 40,49 40,50 39,50 39,51 39,52 38,52 38,53 37,54 37,55 36,55 36,56 35,57 34,58 34,59 33,60 32,60 32,61 31,62 30,63 29,64 28,65 27,65 26,66 26,67 25,68 24,68 23,69 22,69 22,70 21,70 21,71 20,71 19,71 19,72" fill="none" stroke="#ff8c00" stroke-width="3" stroke-linecap="round" stroke-linejoin="round" opacity="0.95">
    <title>2059 h:1</title>
  </polyline>
</svg>
