<?xml version="1.0" encoding="UTF-8"?>
<svg xmlns="http://www.w3.org/2000/svg" width="111" height="80" viewBox="0 0 111 80">
  <title>particle img3-m95-p4 k:1 f:1 i:1 d:1</title>
  <metadata>{&quot;entityType&quot;:&quot;particle&quot;,&quot;entityId&quot;:&quot;img3-m95-p4&quot;,&quot;token&quot;:&quot;k:1 f:1 i:1 d:1&quot;,&quot;signature&quot;:&quot;k:1 f:1 i:1 d:1&quot;,&quot;imageName&quot;:&quot;page-003.jpg&quot;,&quot;imageId&quot;:3,&quot;bounds&quot;:{&quot;x&quot;:1151,&quot;y&quot;:1739,&quot;w&quot;:111,&quot;h&quot;:80},&quot;atoms&quot;:[{&quot;id&quot;:2571,&quot;token&quot;:&quot;k:1&quot;,&quot;particle_id&quot;:&quot;img3-m95-p4&quot;,&quot;molecule_id&quot;:&quot;img3-m95&quot;,&quot;atom_order&quot;:1},{&quot;id&quot;:2570,&quot;token&quot;:&quot;f:1&quot;,&quot;particle_id&quot;:&quot;img3-m95-p4&quot;,&quot;molecule_id&quot;:&quot;img3-m95&quot;,&quot;atom_order&quot;:2},{&quot;id&quot;:2569,&quot;token&quot;:&quot;i:1&quot;,&quot;particle_id&quot;:&quot;img3-m95-p4&quot;,&quot;molecule_id&quot;:&quot;img3-m95&quot;,&quot;atom_order&quot;:3},{&quot;id&quot;:2567,&quot;token&quot;:&quot;d:1&quot;,&quot;particle_id&quot;:&quot;img3-m95-p4&quot;,&quot;molecule_id&quot;:&quot;img3-m95&quot;,&quot;atom_order&quot;:4}]}</metadata>
  <rect x="0" y="0" width="111" height="80" fill="#f8f0d8"/>
  <image href="file:///C:/Users/HHHES/AppData/Roaming/com.voynichlab.datasetcreator/images/1/35a70f63-88ab-4986-b441-b78046a10087.jpg" x="-1151" y="-1739" width="2972" height="3766" opacity="0.92"/>
  <rect x="0.5" y="0.5" width="110" height="79" fill="none" stroke="#111827" stroke-width="1" opacity="0.35"/>
  <polyline points="16,41 16,42 17,42 17,43 17,44 18,44 18,45 18,46 19,46 19,47 19,48 19,49 20,49 20,50 20,51 20,52 20,53 21,53 21,54 21,55 22,55 22,56 22,57 23,57 23,58 24,58 24,59 25,59 26,59 27,59 28,59 29,59 29,58 30,58 30,57 31,57 31,56 32,56 32,55 33,55 33,54 33,53 34,53 34,52 34,51 35,51 35,50 36,50 36,49 36,48 37,48 37,47 38,47 38,46 39,46 39,45 40,44 40,43 41,43 41,42 42,42 42,41 42,42 42,43 42,44 42,45 43,45 43,46 43,47 43,48 44,49 44,50 44,51 45,51 45,52 45,53 46,53 46,54 46,55 47,55 47,56 48,56 48,57 49,57 49,58 50,58 50,59 51,59 52,59 52,60 53,60 54,60 55,60 56,60 56,59 57,59 58,58 59,58 59,57 60,57 60,56 60,55 61,55 61,54 62,54 62,53 62,52 63,52 63,51 64,51 64,50 64,49 65,49 65,48 66,48 66,47 67,46 67,45 68,45 68,44 68,43" fill="none" stroke="#ffffff" stroke-width="3" stroke-linecap="round" stroke-linejoin="round" opacity="0.95">
    <title>2571 k:1</title>
  </polyline>
  <polyline points="68,43 68,44 68,45 69,45 69,46 69,47 70,47 70,48 71,49 71,50 72,50 72,51 73,52 73,53 74,53 74,54 75,54 75,55 76,55 76,56 76,57 77,57 77,58 77,59 78,59 78,60 79,60 79,61 80,62 80,63 81,63 81,64" fill="none" stroke="#00a2ff" stroke-width="3" stroke-linecap="round" stroke-linejoin="round" opacity="0.95">
    <title>2570 f:1</title>
  </polyline>
  <polyline points="81,63 82,63 82,62 83,62 84,62 84,61 85,61 85,60 86,60 86,59 87,59 87,58 88,58 88,57 89,57 89,56 89,55 90,55 90,54 90,53 91,53 91,52 92,52 92,51 92,50 92,49 93,49 93,48 93,47 94,46 94,45 94,44 94,43 94,42 95,42 95,41 95,40 95,39 95,38 95,37 95,36 94,35 94,34 94,33 93,33 93,32 93,31 92,31 92,30 91,30 91,29 90,29 90,28 89,28 88,27 87,27 86,27 86,26 85,26 85,25 84,25 83,25 83,24 82,24" fill="none" stroke="#00ff7f" stroke-width="3" stroke-linecap="round" stroke-linejoin="round" opacity="0.95">
    <title>2569 i:1</title>
  </polyline>
  <polyline points="35,18 36,18 36,17 37,17 38,16 39,16 40,16 41,16 42,16 43,16 44,16 45,16 46,16 47,16 48,16 49,16 50,16 51,16 52,16 53,16 54,16 55,16 56,16 57,16 58,16 59,16 60,16 61,16 62,16 63,16 64,16 64,17 65,17 66,17 67,17 68,17 69,18 70,18 71,18 72,18 72,19 73,19 73,20 74,20 75,20 76,20 77,21 78,21 78,22 79,22 80,22 81,23 82,23 82,24 83,24 83,25 84,25 84,26 85,26 85,27 86,27 86,28 87,28" fill="none" stroke="#ff2d55" stroke-width="3" stroke-linecap="round" stroke-linejoin="round" opacity="0.95">
    <title>2567 d:1</title>
  </polyline>
</svg>
