<?xml version="1.0" encoding="UTF-8"?>
<svg xmlns="http://www.w3.org/2000/svg" width="80" height="96" viewBox="0 0 80 96">
  <title>particle img3-m111-p1 a:1 b:1 c:1 a:1</title>
  <metadata>{&quot;entityType&quot;:&quot;particle&quot;,&quot;entityId&quot;:&quot;img3-m111-p1&quot;,&quot;token&quot;:&quot;a:1 b:1 c:1 a:1&quot;,&quot;signature&quot;:&quot;a:1 b:1 c:1 a:1&quot;,&quot;imageName&quot;:&quot;page-003.jpg&quot;,&quot;imageId&quot;:3,&quot;bounds&quot;:{&quot;x&quot;:2111,&quot;y&quot;:1876,&quot;w&quot;:80,&quot;h&quot;:96},&quot;atoms&quot;:[{&quot;id&quot;:3302,&quot;token&quot;:&quot;a:1&quot;,&quot;particle_id&quot;:&quot;img3-m111-p1&quot;,&quot;molecule_id&quot;:&quot;img3-m111&quot;,&quot;atom_order&quot;:1},{&quot;id&quot;:3297,&quot;token&quot;:&quot;b:1&quot;,&quot;particle_id&quot;:&quot;img3-m111-p1&quot;,&quot;molecule_id&quot;:&quot;img3-m111&quot;,&quot;atom_order&quot;:2},{&quot;id&quot;:3273,&quot;token&quot;:&quot;c:1&quot;,&quot;particle_id&quot;:&quot;img3-m111-p1&quot;,&quot;molecule_id&quot;:&quot;img3-m111&quot;,&quot;atom_order&quot;:3},{&quot;id&quot;:3303,&quot;token&quot;:&quot;a:1&quot;,&quot;particle_id&quot;:&quot;img3-m111-p1&quot;,&quot;molecule_id&quot;:&quot;img3-m111&quot;,&quot;atom_order&quot;:4}]}</metadata>
  <rect x="0" y="0" width="80" height="96" fill="#f8f0d8"/>
  <image href="file:///C:/Users/HHHES/AppData/Roaming/com.voynichlab.datasetcreator/images/1/35a70f63-88ab-4986-b441-b78046a10087.jpg" x="-2111" y="-1876" width="2972" height="3766" opacity="0.92"/>
  <rect x="0.5" y="0.5" width="79" height="95" fill="none" stroke="#111827" stroke-width="1" opacity="0.35"/>
  <polyline points="17,28 17,29 17,30 17,31 17,32 18,32 18,33 18,34 18,35 18,36 18,37 18,38 18,39 18,40 18,42 18,43 18,44 18,45 18,46 18,47 18,48 18,49 18,50 18,51 18,53 18,54 18,55 18,56 18,57 18,58 18,59 18,60 18,62 18,63 17,65 17,66 17,67 17,68 17,69 17,70 17,71 17,72 17,73 16,74 16,76 16,77 16,76 16,75" fill="none" stroke="#00f0b5" stroke-width="3" stroke-linecap="round" stroke-linejoin="round" opacity="0.95">
    <title>3302 a:1</title>
  </polyline>
  <polyline points="17,31 17,32 18,33 18,34 19,34 19,35 20,36 21,36 21,37 22,38 23,38 23,39 24,39 25,40 26,40 27,40 27,41 28,41 29,41 30,41 31,41 32,42 33,42 34,42 35,42 36,42 37,42 38,42 39,42 40,42 41,42 42,42 43,42 44,42 45,42 46,42 46,41 47,41 48,41 49,41 50,40 51,40 51,39 52,39 53,38 54,38 55,38 55,37 56,37 57,36 58,36 58,35" fill="none" stroke="#2f7df6" stroke-width="3" stroke-linecap="round" stroke-linejoin="round" opacity="0.95">
    <title>3297 b:1</title>
  </polyline>
  <polyline points="62,32 63,31 63,30 63,29 63,28 64,28 64,27 64,26 64,25 64,24 64,23 64,22 63,22 63,21 63,20 62,20 62,19 61,19 60,18 59,18 59,17 58,17 57,17 56,17 55,17 54,16 53,16 52,16 51,16 50,16 49,16 48,17 47,17 46,17 46,18 45,18 44,18 44,19 43,20 42,21 42,22 41,23 41,24 40,25 40,26 39,26 39,27 39,28 39,29 39,30 39,31 39,32 39,33 40,34 41,35 42,35 43,36 44,36 45,36 45,37 46,37 47,37 48,37 49,37 50,37 51,37 52,37 53,37 53,36 54,36 55,36 56,36 56,35 57,35 58,35 58,34 59,34 59,33 60,33 61,32 62,32 62,31 63,31 63,30 64,30" fill="none" stroke="#8aff00" stroke-width="3" stroke-linecap="round" stroke-linejoin="round" opacity="0.95">
    <title>3273 c:1</title>
  </polyline>
  <polyline points="38,28 38,29 38,30 38,31 38,32 38,33 38,34 38,35 38,36 38,37 38,38 38,40 38,41 38,42 38,43 38,44 37,45 37,47 37,48 37,50 37,52 37,53 37,55 37,56 36,57 36,58 36,59 36,61 36,62 36,63 36,65 36,66 36,67 35,69 35,70 35,71 35,72 35,74 35,75 35,76 35,77 35,78 34,79 34,80" fill="none" stroke="#00f0b5" stroke-width="3" stroke-linecap="round" stroke-linejoin="round" opacity="0.95">
    <title>3303 a:1</title>
  </polyline>
</svg>
