<?xml version="1.0" encoding="UTF-8"?>
<svg xmlns="http://www.w3.org/2000/svg" width="75" height="114" viewBox="0 0 75 114">
  <title>particle img3-m26-p2 a:1 b:1 c:1 a:1</title>
  <metadata>{&quot;entityType&quot;:&quot;particle&quot;,&quot;entityId&quot;:&quot;img3-m26-p2&quot;,&quot;token&quot;:&quot;a:1 b:1 c:1 a:1&quot;,&quot;signature&quot;:&quot;a:1 b:1 c:1 a:1&quot;,&quot;imageName&quot;:&quot;page-003.jpg&quot;,&quot;imageId&quot;:3,&quot;bounds&quot;:{&quot;x&quot;:1146,&quot;y&quot;:631,&quot;w&quot;:75,&quot;h&quot;:114},&quot;atoms&quot;:[{&quot;id&quot;:1369,&quot;token&quot;:&quot;a:1&quot;,&quot;particle_id&quot;:&quot;img3-m26-p2&quot;,&quot;molecule_id&quot;:&quot;img3-m26&quot;,&quot;atom_order&quot;:1},{&quot;id&quot;:1371,&quot;token&quot;:&quot;b:1&quot;,&quot;particle_id&quot;:&quot;img3-m26-p2&quot;,&quot;molecule_id&quot;:&quot;img3-m26&quot;,&quot;atom_order&quot;:2},{&quot;id&quot;:1372,&quot;token&quot;:&quot;c:1&quot;,&quot;particle_id&quot;:&quot;img3-m26-p2&quot;,&quot;molecule_id&quot;:&quot;img3-m26&quot;,&quot;atom_order&quot;:3},{&quot;id&quot;:1373,&quot;token&quot;:&quot;a:1&quot;,&quot;particle_id&quot;:&quot;img3-m26-p2&quot;,&quot;molecule_id&quot;:&quot;img3-m26&quot;,&quot;atom_order&quot;:4}]}</metadata>
  <rect x="0" y="0" width="75" height="114" fill="#f8f0d8"/>
  <image href="file:///C:/Users/HHHES/AppData/Roaming/com.voynichlab.datasetcreator/images/1/35a70f63-88ab-4986-b441-b78046a10087.jpg" x="-1146" y="-631" width="2972" height="3766" opacity="0.92"/>
  <rect x="0.5" y="0.5" width="74" height="113" fill="none" stroke="#111827" stroke-width="1" opacity="0.35"/>
  <polyline points="18,98 18,97 18,96 18,95 18,94 18,93 17,93 17,92 17,91 17,90 17,89 17,88 17,87 17,86 17,85 17,84 17,83 17,82 17,81 17,80 17,79 17,78 17,77 17,76 17,75 17,74 17,73 17,72 17,71 17,70 17,69 17,68 17,67 17,66 17,65 16,65 16,64 16,63 16,62 16,61 16,60 16,59 17,59 17,58 17,57 17,56 17,55 17,54 17,53 17,52 17,51 17,50 17,49 17,48 17,47 17,46 17,45 17,44 17,43 17,42 17,41 17,40 17,39 17,38 17,37 17,36 17,35 18,34 18,33 18,32 18,31 18,30 18,29 18,28 18,27 18,26 18,25 18,24 18,23 18,22 18,21 18,20 19,20 19,19 19,18" fill="none" stroke="#00f0b5" stroke-width="3" stroke-linecap="round" stroke-linejoin="round" opacity="0.95">
    <title>1369 a:1</title>
  </polyline>
  <polyline points="18,22 18,23 18,24 18,25 18,26 19,26 19,27 19,28 19,29 20,29 20,30 20,31 21,31 21,32 21,33 22,33 22,34 23,34 23,35 24,35 24,36 25,36 26,37 27,37 27,38 28,38 29,38 29,39 30,39 31,39 31,40 32,40 33,40 34,40 35,40 36,40 37,40 38,40 39,40 40,40 41,40 41,39 42,39 43,39 44,39 44,38 45,38 45,37 46,37 47,37 47,36 48,36 49,35 50,35 50,34 51,34 51,33 52,33" fill="none" stroke="#2f7df6" stroke-width="3" stroke-linecap="round" stroke-linejoin="round" opacity="0.95">
    <title>1371 b:1</title>
  </polyline>
  <polyline points="52,33 53,33 53,32 54,32 55,32 55,31 56,31 56,30 57,30 57,29 58,29 58,28 58,27 59,27 59,26 59,25 59,24 59,23 59,22 59,21 59,20 59,19 58,19 58,18 57,18 56,18 56,17 55,17 54,17 53,16 52,16 51,16 50,16 49,16 48,17 47,17 46,17 46,18 45,18 44,18 44,19 43,19 43,20 43,21 42,21 42,22 41,22 41,23 40,24 40,25 39,26 39,27 39,28 38,28 38,29 38,30 37,30 37,31 37,32 37,33 37,34 38,34 38,35 38,36 39,36 39,37 40,37 40,38 41,38 42,38 43,38 44,38 45,38 45,37 46,37 47,37 48,37 48,36 49,36 50,35 51,35 52,34" fill="none" stroke="#8aff00" stroke-width="3" stroke-linecap="round" stroke-linejoin="round" opacity="0.95">
    <title>1372 c:1</title>
  </polyline>
  <polyline points="38,35 38,36 38,37 38,38 38,39 38,40 38,41 38,42 38,43 37,43 37,44 37,45 37,46 37,47 37,48 37,49 37,50 37,51 37,52 37,53 37,54 37,55 37,56 37,57 37,58 37,59 37,60 37,61 36,61 36,62 36,63 36,64 36,65 36,66 36,67 36,68 36,69 36,70 36,71 36,72 36,73 36,74 36,75 36,76 36,77 36,78 36,79 36,80 36,81 36,82 36,83 36,84 36,85 36,86 36,87 36,88 36,89 36,90 36,91 37,91 37,92 37,93 37,94 37,95 37,96" fill="none" stroke="#00f0b5" stroke-width="3" stroke-linecap="round" stroke-linejoin="round" opacity="0.95">
    <title>1373 a:1</title>
  </polyline>
</svg>
