<?xml version="1.0" encoding="UTF-8"?>
<svg xmlns="http://www.w3.org/2000/svg" width="61" height="71" viewBox="0 0 61 71">
  <title>particle img3-m145-p1 e:1 c:1 h:2</title>
  <metadata>{&quot;entityType&quot;:&quot;particle&quot;,&quot;entityId&quot;:&quot;img3-m145-p1&quot;,&quot;token&quot;:&quot;e:1 c:1 h:2&quot;,&quot;signature&quot;:&quot;e:1 c:1 h:2&quot;,&quot;imageName&quot;:&quot;page-003.jpg&quot;,&quot;imageId&quot;:3,&quot;bounds&quot;:{&quot;x&quot;:2126,&quot;y&quot;:2266,&quot;w&quot;:61,&quot;h&quot;:71},&quot;atoms&quot;:[{&quot;id&quot;:3537,&quot;token&quot;:&quot;e:1&quot;,&quot;particle_id&quot;:&quot;img3-m145-p1&quot;,&quot;molecule_id&quot;:&quot;img3-m145&quot;,&quot;atom_order&quot;:1},{&quot;id&quot;:3560,&quot;token&quot;:&quot;c:1&quot;,&quot;particle_id&quot;:&quot;img3-m145-p1&quot;,&quot;molecule_id&quot;:&quot;img3-m145&quot;,&quot;atom_order&quot;:2},{&quot;id&quot;:3563,&quot;token&quot;:&quot;h:2&quot;,&quot;particle_id&quot;:&quot;img3-m145-p1&quot;,&quot;molecule_id&quot;:&quot;img3-m145&quot;,&quot;atom_order&quot;:3}]}</metadata>
  <rect x="0" y="0" width="61" height="71" fill="#f8f0d8"/>
  <image href="file:///C:/Users/HHHES/AppData/Roaming/com.voynichlab.datasetcreator/images/1/35a70f63-88ab-4986-b441-b78046a10087.jpg" x="-2126" y="-2266" width="2972" height="3766" opacity="0.92"/>
  <rect x="0.5" y="0.5" width="60" height="70" fill="none" stroke="#111827" stroke-width="1" opacity="0.35"/>
  <polyline points="31,52 31,53 30,53 30,54 29,54 28,54 28,55 27,55 26,55 25,55 24,55 23,55 22,55 21,55 21,54 20,54 19,54 18,54 18,53 17,53 16,53 16,52 16,51 16,50 16,49 16,48 16,47 16,46 17,46 17,45 17,44 17,43 18,43 18,42 18,41 19,41 19,40 19,39 20,39 21,39 21,38 22,38 22,37 23,37 24,37 24,36 25,36 26,36 27,36 27,35" fill="none" stroke="#f2e45c" stroke-width="3" stroke-linecap="round" stroke-linejoin="round" opacity="0.95">
    <title>3537 e:1</title>
  </polyline>
  <polyline points="36,29 37,29 38,29 39,29 40,28 41,28 41,27 42,27 42,26 43,26 43,25 44,25 44,24 45,24 45,23 45,22 45,21 45,20 45,19 45,18 44,18 43,17 42,17 41,17 40,16 39,16 38,16 37,16 36,16 35,16 33,17 32,17 31,17 30,18 29,19 28,19 28,20 28,21 27,21 27,22 26,23 26,24 26,25 26,26 27,26 27,27 28,27 28,28 29,28 30,28 30,29 31,29 32,29 33,29 34,29 35,29 36,29 37,29" fill="none" stroke="#8aff00" stroke-width="3" stroke-linecap="round" stroke-linejoin="round" opacity="0.95">
    <title>3560 c:1</title>
  </polyline>
  <polyline points="29,55 30,55 31,55 31,54 32,54 33,54 33,53 34,53 34,52 34,51 34,50 34,49 34,48 34,47 33,47 33,46 33,45 33,44 32,44 32,43 32,42 31,42 31,41 31,40 30,39 30,38 29,38 29,37 28,37 28,36 27,36 26,36 26,35 26,34 26,33 25,32 25,31 25,30 25,29 25,28 25,27 25,26 26,25 26,24 26,23 26,22" fill="none" stroke="#ff8c00" stroke-width="3" stroke-linecap="round" stroke-linejoin="round" opacity="0.95">
    <title>3563 h:2</title>
  </polyline>
</svg>
