<?xml version="1.0" encoding="UTF-8"?>
<svg xmlns="http://www.w3.org/2000/svg" width="51" height="72" viewBox="0 0 51 72">
  <title>particle img3-m102-p1 e:1 c:1 h:2</title>
  <metadata>{&quot;entityType&quot;:&quot;particle&quot;,&quot;entityId&quot;:&quot;img3-m102-p1&quot;,&quot;token&quot;:&quot;e:1 c:1 h:2&quot;,&quot;signature&quot;:&quot;e:1 c:1 h:2&quot;,&quot;imageName&quot;:&quot;page-003.jpg&quot;,&quot;imageId&quot;:3,&quot;bounds&quot;:{&quot;x&quot;:545,&quot;y&quot;:1830,&quot;w&quot;:51,&quot;h&quot;:72},&quot;atoms&quot;:[{&quot;id&quot;:3147,&quot;token&quot;:&quot;e:1&quot;,&quot;particle_id&quot;:&quot;img3-m102-p1&quot;,&quot;molecule_id&quot;:&quot;img3-m102&quot;,&quot;atom_order&quot;:1},{&quot;id&quot;:3170,&quot;token&quot;:&quot;c:1&quot;,&quot;particle_id&quot;:&quot;img3-m102-p1&quot;,&quot;molecule_id&quot;:&quot;img3-m102&quot;,&quot;atom_order&quot;:2},{&quot;id&quot;:3180,&quot;token&quot;:&quot;h:2&quot;,&quot;particle_id&quot;:&quot;img3-m102-p1&quot;,&quot;molecule_id&quot;:&quot;img3-m102&quot;,&quot;atom_order&quot;:3}]}</metadata>
  <rect x="0" y="0" width="51" height="72" fill="#f8f0d8"/>
  <image href="file:///C:/Users/HHHES/AppData/Roaming/com.voynichlab.datasetcreator/images/1/35a70f63-88ab-4986-b441-b78046a10087.jpg" x="-545" y="-1830" width="2972" height="3766" opacity="0.92"/>
  <rect x="0.5" y="0.5" width="50" height="71" fill="none" stroke="#111827" stroke-width="1" opacity="0.35"/>
  <polyline points="31,53 31,54 30,54 30,55 29,55 28,55 28,56 27,56 26,56 25,56 24,56 23,56 22,56 21,56 21,55 20,55 19,55 18,55 18,54 17,54 16,54 16,53 16,52 16,51 16,50 16,49 16,48 16,47 17,47 17,46 17,45 17,44 18,44 18,43 18,42 19,42 19,41 19,40 20,40 21,40 21,39 22,39 22,38 23,38 24,38 24,37 25,37 26,37 27,37 27,36" fill="none" stroke="#f2e45c" stroke-width="3" stroke-linecap="round" stroke-linejoin="round" opacity="0.95">
    <title>3147 e:1</title>
  </polyline>
  <polyline points="29,29 30,28 31,28 31,27 32,27 32,26 33,26 33,25 34,25 34,24 35,24 35,23 35,22 35,21 35,20 34,20 34,19 33,19 33,18 32,18 32,17 31,17 30,17 29,17 29,16 28,16 27,16 26,16 26,17 25,17 24,17 23,17 23,18 22,18 21,18 21,19 20,19 20,20 19,20 19,21 18,21 18,22 18,23 18,24 18,25 19,25 19,26 20,26 20,27 21,27 21,28 22,28 23,28 23,29 24,29 25,29 26,29 27,29 28,29 29,29 29,28 30,28" fill="none" stroke="#8aff00" stroke-width="3" stroke-linecap="round" stroke-linejoin="round" opacity="0.95">
    <title>3170 c:1</title>
  </polyline>
  <polyline points="31,53 32,53 32,52 32,51 32,50 32,49 32,48 32,47 32,46 32,45 31,45 31,44 31,43 30,43 30,42 30,41 30,40 29,40 29,39 28,38 28,37 27,37 27,36 26,36 26,35 25,35 25,34 24,34 24,33 23,32 23,31 22,31 22,30 21,30 21,29 21,28 20,28 20,27 19,26 19,25 19,24 19,23 20,22 20,21 20,20 21,20" fill="none" stroke="#ff8c00" stroke-width="3" stroke-linecap="round" stroke-linejoin="round" opacity="0.95">
    <title>3180 h:2</title>
  </polyline>
</svg>
