<?xml version="1.0" encoding="UTF-8"?>
<svg xmlns="http://www.w3.org/2000/svg" width="55" height="83" viewBox="0 0 55 83">
  <title>particle img3-m18-p3 e:1 h:1</title>
  <metadata>{&quot;entityType&quot;:&quot;particle&quot;,&quot;entityId&quot;:&quot;img3-m18-p3&quot;,&quot;token&quot;:&quot;e:1 h:1&quot;,&quot;signature&quot;:&quot;e:1 h:1&quot;,&quot;imageName&quot;:&quot;page-003.jpg&quot;,&quot;imageId&quot;:3,&quot;bounds&quot;:{&quot;x&quot;:1045,&quot;y&quot;:624,&quot;w&quot;:55,&quot;h&quot;:83},&quot;atoms&quot;:[{&quot;id&quot;:1166,&quot;token&quot;:&quot;e:1&quot;,&quot;particle_id&quot;:&quot;img3-m18-p3&quot;,&quot;molecule_id&quot;:&quot;img3-m18&quot;,&quot;atom_order&quot;:1},{&quot;id&quot;:1162,&quot;token&quot;:&quot;h:1&quot;,&quot;particle_id&quot;:&quot;img3-m18-p3&quot;,&quot;molecule_id&quot;:&quot;img3-m18&quot;,&quot;atom_order&quot;:2}]}</metadata>
  <rect x="0" y="0" width="55" height="83" fill="#f8f0d8"/>
  <image href="file:///C:/Users/HHHES/AppData/Roaming/com.voynichlab.datasetcreator/images/1/35a70f63-88ab-4986-b441-b78046a10087.jpg" x="-1045" y="-624" width="2972" height="3766" opacity="0.92"/>
  <rect x="0.5" y="0.5" width="54" height="82" fill="none" stroke="#111827" stroke-width="1" opacity="0.35"/>
  <polyline points="28,32 28,33 28,34 27,34 27,35 26,35 25,35 24,35 23,35 22,35 21,35 20,35 19,35 18,35 18,34 17,34 17,33 16,33 16,32 16,31 16,30 16,29 16,28 16,27 16,26 16,25 16,24 17,24 17,23 17,22 18,22 18,21 19,21 19,20 20,19 21,19 21,18 22,18 23,17 24,17 25,17 25,16 26,16 27,16 28,16 29,16" fill="none" stroke="#f2e45c" stroke-width="3" stroke-linecap="round" stroke-linejoin="round" opacity="0.95">
    <title>1166 e:1</title>
  </polyline>
  <polyline points="29,16 29,17 30,17 31,17 31,18 32,18 32,19 33,19 33,20 33,21 34,21 34,22 35,23 35,24 36,24 36,25 36,26 37,26 37,27 37,28 38,28 38,29 38,30 38,31 39,31 39,32 39,33 39,34 39,35 39,36 39,37 39,38 39,39 39,40 39,41 39,42 39,43 39,44 39,45 39,46 38,46 38,47 38,48 38,49 37,49 37,50 37,51 36,52 36,53 36,54 35,54 35,55 34,56 34,57 33,58 33,59 32,59 32,60 31,61 31,62 30,62 30,63 29,64 29,65 29,66 28,66 28,67 27,67" fill="none" stroke="#ff8c00" stroke-width="3" stroke-linecap="round" stroke-linejoin="round" opacity="0.95">
    <title>1162 h:1</title>
  </polyline>
</svg>
