<?xml version="1.0" encoding="UTF-8"?>
<svg xmlns="http://www.w3.org/2000/svg" width="97" height="73" viewBox="0 0 97 73">
  <title>particle img3-m82-p5 k:1 f:1 j:1</title>
  <metadata>{&quot;entityType&quot;:&quot;particle&quot;,&quot;entityId&quot;:&quot;img3-m82-p5&quot;,&quot;token&quot;:&quot;k:1 f:1 j:1&quot;,&quot;signature&quot;:&quot;k:1 f:1 j:1&quot;,&quot;imageName&quot;:&quot;page-003.jpg&quot;,&quot;imageId&quot;:3,&quot;bounds&quot;:{&quot;x&quot;:1608,&quot;y&quot;:1682,&quot;w&quot;:97,&quot;h&quot;:73},&quot;atoms&quot;:[{&quot;id&quot;:2412,&quot;token&quot;:&quot;k:1&quot;,&quot;particle_id&quot;:&quot;img3-m82-p5&quot;,&quot;molecule_id&quot;:&quot;img3-m82&quot;,&quot;atom_order&quot;:1},{&quot;id&quot;:2413,&quot;token&quot;:&quot;f:1&quot;,&quot;particle_id&quot;:&quot;img3-m82-p5&quot;,&quot;molecule_id&quot;:&quot;img3-m82&quot;,&quot;atom_order&quot;:2},{&quot;id&quot;:2414,&quot;token&quot;:&quot;j:1&quot;,&quot;particle_id&quot;:&quot;img3-m82-p5&quot;,&quot;molecule_id&quot;:&quot;img3-m82&quot;,&quot;atom_order&quot;:3}]}</metadata>
  <rect x="0" y="0" width="97" height="73" fill="#f8f0d8"/>
  <image href="file:///C:/Users/HHHES/AppData/Roaming/com.voynichlab.datasetcreator/images/1/35a70f63-88ab-4986-b441-b78046a10087.jpg" x="-1608" y="-1682" width="2972" height="3766" opacity="0.92"/>
  <rect x="0.5" y="0.5" width="96" height="72" fill="none" stroke="#111827" stroke-width="1" opacity="0.35"/>
  <polyline points="16,25 16,26 17,26 17,27 17,28 18,28 18,29 18,30 19,30 19,31 19,32 20,32 20,33 20,34 20,35 21,35 21,36 21,37 22,37 22,38 22,39 23,39 23,40 24,41 24,42 25,42 25,43 26,43 26,42 27,42 27,41 27,40 28,40 28,39 29,39 29,38 30,38 31,37 32,37 32,36 33,36 33,35 34,35 34,34 35,34 35,33 36,33 36,32 37,32 37,31 38,31 38,30 39,30 39,29 39,28 39,29 39,30 39,31 39,32 40,32 40,33 40,34 40,35 40,36 41,36 41,37 41,38 42,38 42,39 43,39 43,40 43,41 44,41 44,42 45,42 45,43 46,43 46,42 47,42 47,41 47,40 48,40 48,39 49,39 50,39 50,38 51,38 51,37 52,37 52,36 53,36 54,36 54,35 55,34 56,34 56,33 57,33 58,32 59,31 60,31 61,30" fill="none" stroke="#ffffff" stroke-width="3" stroke-linecap="round" stroke-linejoin="round" opacity="0.95">
    <title>2412 k:1</title>
  </polyline>
  <polyline points="60,30 60,31 60,32 61,32 61,33 61,34 62,34 62,35 63,36 63,37 64,37 64,38 65,39 65,40 66,40 66,41 67,41 67,42 68,42 68,43 68,44 69,44 69,45 69,46 70,46 70,47 71,47 71,48 72,49 72,50 73,50 73,51" fill="none" stroke="#00a2ff" stroke-width="3" stroke-linecap="round" stroke-linejoin="round" opacity="0.95">
    <title>2413 f:1</title>
  </polyline>
  <polyline points="60,30 60,29 60,28 61,28 61,27 62,27 62,26 62,25 63,25 63,24 64,24 64,23 65,23 65,22 66,21 66,20 67,20 68,20 68,19 69,19 69,18 70,18 71,18 72,17 73,17 74,17 75,17 75,16 76,16 77,16 78,16 78,17 79,17 79,18 79,19 80,19 80,20 80,21 80,22 80,23 81,23 81,24 81,25 81,26 81,27 80,27 80,28 80,29 79,29 79,30 78,31 77,31 77,32 76,32 76,33 75,33 75,34 74,34 74,35 73,35 73,36 72,36 72,37 71,37 71,38 70,38 70,39 69,39 69,40 68,40 68,41 67,41 66,42 65,43 64,44 63,44 63,45 62,45 62,46 61,46 61,47 60,47 60,48 59,48 59,49 58,49 58,50 57,50 57,51 56,51 56,52 55,52 55,53 54,53 54,54 53,54 53,55 52,55 52,56 51,56 51,57 50,57" fill="none" stroke="#4a9e6a" stroke-width="3" stroke-linecap="round" stroke-linejoin="round" opacity="0.95">
    <title>2414 j:1</title>
  </polyline>
</svg>
