<?xml version="1.0" encoding="UTF-8"?>
<svg xmlns="http://www.w3.org/2000/svg" width="68" height="100" viewBox="0 0 68 100">
  <title>particle img3-m55-p2 a:1 b:1 c:1 a:1</title>
  <metadata>{&quot;entityType&quot;:&quot;particle&quot;,&quot;entityId&quot;:&quot;img3-m55-p2&quot;,&quot;token&quot;:&quot;a:1 b:1 c:1 a:1&quot;,&quot;signature&quot;:&quot;a:1 b:1 c:1 a:1&quot;,&quot;imageName&quot;:&quot;page-003.jpg&quot;,&quot;imageId&quot;:3,&quot;bounds&quot;:{&quot;x&quot;:1003,&quot;y&quot;:1098,&quot;w&quot;:68,&quot;h&quot;:100},&quot;atoms&quot;:[{&quot;id&quot;:1955,&quot;token&quot;:&quot;a:1&quot;,&quot;particle_id&quot;:&quot;img3-m55-p2&quot;,&quot;molecule_id&quot;:&quot;img3-m55&quot;,&quot;atom_order&quot;:1},{&quot;id&quot;:1954,&quot;token&quot;:&quot;b:1&quot;,&quot;particle_id&quot;:&quot;img3-m55-p2&quot;,&quot;molecule_id&quot;:&quot;img3-m55&quot;,&quot;atom_order&quot;:2},{&quot;id&quot;:1908,&quot;token&quot;:&quot;c:1&quot;,&quot;particle_id&quot;:&quot;img3-m55-p2&quot;,&quot;molecule_id&quot;:&quot;img3-m55&quot;,&quot;atom_order&quot;:3},{&quot;id&quot;:1956,&quot;token&quot;:&quot;a:1&quot;,&quot;particle_id&quot;:&quot;img3-m55-p2&quot;,&quot;molecule_id&quot;:&quot;img3-m55&quot;,&quot;atom_order&quot;:4}]}</metadata>
  <rect x="0" y="0" width="68" height="100" fill="#f8f0d8"/>
  <image href="file:///C:/Users/HHHES/AppData/Roaming/com.voynichlab.datasetcreator/images/1/35a70f63-88ab-4986-b441-b78046a10087.jpg" x="-1003" y="-1098" width="2972" height="3766" opacity="0.92"/>
  <rect x="0.5" y="0.5" width="67" height="99" fill="none" stroke="#111827" stroke-width="1" opacity="0.35"/>
  <polyline points="16,84 16,83 16,82 16,81 16,80 16,79 16,78 16,77 17,76 17,75 17,74 17,73 17,72 17,71 17,70 17,69 17,68 17,67 17,66 17,65 17,64 17,63 17,62 17,61 17,60 17,59 18,59 18,58 18,57 18,56 18,55 18,54 18,53 18,52 18,51 18,50 18,49 18,48 17,48 17,47 17,46 17,45 17,44 17,43 17,42 17,41 17,40 17,39 17,38 17,37 17,36 17,35 17,34 17,33 18,33 18,32 18,31 18,30 18,29" fill="none" stroke="#00f0b5" stroke-width="3" stroke-linecap="round" stroke-linejoin="round" opacity="0.95">
    <title>1955 a:1</title>
  </polyline>
  <polyline points="17,29 17,30 18,30 18,31 19,31 20,32 21,33 22,33 22,34 23,34 24,34 24,35 25,35 26,35 27,35 27,36 28,36 29,36 30,36 31,36 32,36 33,36 34,36 35,36 35,37 36,37 37,37 38,37 39,36 40,36 41,36 42,36 43,36 43,35 44,35 45,35 46,35 46,34 47,34 48,33 49,33 49,32 50,32 50,31 51,30" fill="none" stroke="#2f7df6" stroke-width="3" stroke-linecap="round" stroke-linejoin="round" opacity="0.95">
    <title>1954 b:1</title>
  </polyline>
  <polyline points="34,22 34,23 33,23 33,24 33,25 32,25 32,26 32,27 32,28 32,29 32,30 32,31 32,32 33,32 33,33 34,33 34,34 35,35 36,35 37,35 38,35 38,36 39,36 40,36 41,36 42,36 43,36 44,36 45,36 46,36 46,35 47,35 48,35 48,34 48,33 49,33 49,32 50,32 50,31 50,30 51,30 51,29 51,28 52,28 52,27 52,26 52,25 52,24 52,23 52,22 51,22 51,21 51,20 50,20 50,19 49,19 49,18 48,18 48,17 47,17 46,17 46,16 45,16 44,16 43,16 42,16 41,16 40,16 39,16 38,17 37,17 37,18 36,18 36,19 35,19 34,19 34,20 33,20 33,21 33,22" fill="none" stroke="#8aff00" stroke-width="3" stroke-linecap="round" stroke-linejoin="round" opacity="0.95">
    <title>1908 c:1</title>
  </polyline>
  <polyline points="31,27 31,40 31,43 31,44 31,45 31,49 31,50 31,51 31,52 31,53 31,54 31,55 31,56 31,57 31,58 31,59 31,60 31,61 30,62 30,66 30,67 30,68 30,69 30,70 30,71 30,72 30,73 30,74 30,75 30,76 30,77 30,78 30,79 30,80" fill="none" stroke="#00f0b5" stroke-width="3" stroke-linecap="round" stroke-linejoin="round" opacity="0.95">
    <title>1956 a:1</title>
  </polyline>
</svg>
