<?xml version="1.0" encoding="UTF-8"?>
<svg xmlns="http://www.w3.org/2000/svg" width="60" height="56" viewBox="0 0 60 56">
  <title>particle img3-m68-p4 e:1 f:1</title>
  <metadata>{&quot;entityType&quot;:&quot;particle&quot;,&quot;entityId&quot;:&quot;img3-m68-p4&quot;,&quot;token&quot;:&quot;e:1 f:1&quot;,&quot;signature&quot;:&quot;e:1 f:1&quot;,&quot;imageName&quot;:&quot;page-003.jpg&quot;,&quot;imageId&quot;:3,&quot;bounds&quot;:{&quot;x&quot;:2201,&quot;y&quot;:1502,&quot;w&quot;:60,&quot;h&quot;:56},&quot;atoms&quot;:[{&quot;id&quot;:2217,&quot;token&quot;:&quot;e:1&quot;,&quot;particle_id&quot;:&quot;img3-m68-p4&quot;,&quot;molecule_id&quot;:&quot;img3-m68&quot;,&quot;atom_order&quot;:1},{&quot;id&quot;:2218,&quot;token&quot;:&quot;f:1&quot;,&quot;particle_id&quot;:&quot;img3-m68-p4&quot;,&quot;molecule_id&quot;:&quot;img3-m68&quot;,&quot;atom_order&quot;:2}]}</metadata>
  <rect x="0" y="0" width="60" height="56" fill="#f8f0d8"/>
  <image href="file:///C:/Users/HHHES/AppData/Roaming/com.voynichlab.datasetcreator/images/1/35a70f63-88ab-4986-b441-b78046a10087.jpg" x="-2201" y="-1502" width="2972" height="3766" opacity="0.92"/>
  <rect x="0.5" y="0.5" width="59" height="55" fill="none" stroke="#111827" stroke-width="1" opacity="0.35"/>
  <polyline points="29,31 29,32 28,32 27,32 27,33 26,33 25,33 24,33 23,33 22,33 21,33 20,33 19,33 18,33 18,32 17,31 17,30 16,30 16,29 16,28 16,27 17,26 17,25 18,25 18,24 18,23 19,23 19,22 20,22 20,21 21,21 21,20 22,19 23,19 23,18 24,18 25,18 25,17 26,17 27,17 28,17 29,17 29,16 30,16 31,16 32,16 33,16" fill="none" stroke="#f2e45c" stroke-width="3" stroke-linecap="round" stroke-linejoin="round" opacity="0.95">
    <title>2217 e:1</title>
  </polyline>
  <polyline points="32,16 33,16 33,17 34,18 34,19 35,19 35,20 35,21 35,22 36,22 36,23 36,24 37,24 37,25 37,26 38,27 38,28 38,29 39,29 39,30 39,31 40,31 40,32 40,33 41,33 41,34 41,35 42,36 42,37 43,37 43,38 43,39 44,39 44,40" fill="none" stroke="#00a2ff" stroke-width="3" stroke-linecap="round" stroke-linejoin="round" opacity="0.95">
    <title>2218 f:1</title>
  </polyline>
</svg>
