<?xml version="1.0" encoding="UTF-8"?>
<svg xmlns="http://www.w3.org/2000/svg" width="66" height="53" viewBox="0 0 66 53">
  <title>particle img3-m10-p2 e:1 f:1</title>
  <metadata>{&quot;entityType&quot;:&quot;particle&quot;,&quot;entityId&quot;:&quot;img3-m10-p2&quot;,&quot;token&quot;:&quot;e:1 f:1&quot;,&quot;signature&quot;:&quot;e:1 f:1&quot;,&quot;imageName&quot;:&quot;page-003.jpg&quot;,&quot;imageId&quot;:3,&quot;bounds&quot;:{&quot;x&quot;:1956,&quot;y&quot;:604,&quot;w&quot;:66,&quot;h&quot;:53},&quot;atoms&quot;:[{&quot;id&quot;:1253,&quot;token&quot;:&quot;e:1&quot;,&quot;particle_id&quot;:&quot;img3-m10-p2&quot;,&quot;molecule_id&quot;:&quot;img3-m10&quot;,&quot;atom_order&quot;:1},{&quot;id&quot;:1254,&quot;token&quot;:&quot;f:1&quot;,&quot;particle_id&quot;:&quot;img3-m10-p2&quot;,&quot;molecule_id&quot;:&quot;img3-m10&quot;,&quot;atom_order&quot;:2}]}</metadata>
  <rect x="0" y="0" width="66" height="53" fill="#f8f0d8"/>
  <image href="file:///C:/Users/HHHES/AppData/Roaming/com.voynichlab.datasetcreator/images/1/35a70f63-88ab-4986-b441-b78046a10087.jpg" x="-1956" y="-604" width="2972" height="3766" opacity="0.92"/>
  <rect x="0.5" y="0.5" width="65" height="52" fill="none" stroke="#111827" stroke-width="1" opacity="0.35"/>
  <polyline points="30,33 30,34 29,34 28,34 27,34 26,35 25,35 24,35 23,35 23,34 22,34 21,34 20,34 19,34 19,33 18,33 18,32 17,32 17,31 16,31 16,30 16,29 16,28 16,27 16,26 17,25 18,25 18,24 19,24 19,23 20,23 20,22 21,22 22,22 22,21 23,21 24,21 24,20 25,20 26,20 26,19 27,19 28,19 29,18 30,18 31,18 32,18 32,17 33,17 34,17 35,17 36,17 37,17" fill="none" stroke="#f2e45c" stroke-width="3" stroke-linecap="round" stroke-linejoin="round" opacity="0.95">
    <title>1253 e:1</title>
  </polyline>
  <polyline points="37,16 37,17 37,18 38,18 38,19 38,20 39,20 39,21 40,22 40,23 41,23 41,24 42,25 42,26 43,26 43,27 44,27 44,28 45,28 45,29 45,30 46,30 46,31 46,32 47,32 47,33 48,33 48,34 49,35 49,36 50,36 50,37" fill="none" stroke="#00a2ff" stroke-width="3" stroke-linecap="round" stroke-linejoin="round" opacity="0.95">
    <title>1254 f:1</title>
  </polyline>
</svg>
