<?xml version="1.0" encoding="UTF-8"?>
<svg xmlns="http://www.w3.org/2000/svg" width="84" height="115" viewBox="0 0 84 115">
  <title>particle img3-m73-p1 a:1 b:1 c:1 a:1</title>
  <metadata>{&quot;entityType&quot;:&quot;particle&quot;,&quot;entityId&quot;:&quot;img3-m73-p1&quot;,&quot;token&quot;:&quot;a:1 b:1 c:1 a:1&quot;,&quot;signature&quot;:&quot;a:1 b:1 c:1 a:1&quot;,&quot;imageName&quot;:&quot;page-003.jpg&quot;,&quot;imageId&quot;:3,&quot;bounds&quot;:{&quot;x&quot;:774,&quot;y&quot;:1529,&quot;w&quot;:84,&quot;h&quot;:115},&quot;atoms&quot;:[{&quot;id&quot;:2236,&quot;token&quot;:&quot;a:1&quot;,&quot;particle_id&quot;:&quot;img3-m73-p1&quot;,&quot;molecule_id&quot;:&quot;img3-m73&quot;,&quot;atom_order&quot;:1},{&quot;id&quot;:2237,&quot;token&quot;:&quot;b:1&quot;,&quot;particle_id&quot;:&quot;img3-m73-p1&quot;,&quot;molecule_id&quot;:&quot;img3-m73&quot;,&quot;atom_order&quot;:2},{&quot;id&quot;:2238,&quot;token&quot;:&quot;c:1&quot;,&quot;particle_id&quot;:&quot;img3-m73-p1&quot;,&quot;molecule_id&quot;:&quot;img3-m73&quot;,&quot;atom_order&quot;:3},{&quot;id&quot;:2239,&quot;token&quot;:&quot;a:1&quot;,&quot;particle_id&quot;:&quot;img3-m73-p1&quot;,&quot;molecule_id&quot;:&quot;img3-m73&quot;,&quot;atom_order&quot;:4}]}</metadata>
  <rect x="0" y="0" width="84" height="115" fill="#f8f0d8"/>
  <image href="file:///C:/Users/HHHES/AppData/Roaming/com.voynichlab.datasetcreator/images/1/35a70f63-88ab-4986-b441-b78046a10087.jpg" x="-774" y="-1529" width="2972" height="3766" opacity="0.92"/>
  <rect x="0.5" y="0.5" width="83" height="114" fill="none" stroke="#111827" stroke-width="1" opacity="0.35"/>
  <polyline points="16,98 16,97 16,96 16,95 17,94 17,93 17,92 17,91 17,90 17,89 17,88 17,87 17,86 17,85 17,84 17,83 18,83 18,82 18,81 18,80 18,79 18,78 18,77 18,76 18,75 18,74 18,73 18,72 18,71 18,70 18,69 18,68 18,67 18,66 18,65 18,64 18,63 18,62 18,61 18,60 18,59 18,58 18,57 18,56 18,55 18,54 18,53 18,52 18,51 18,50 19,50 19,49 19,48 19,47 19,46 19,45 19,44 19,43 19,42 19,41 19,40 19,39 19,38 19,37 19,36 19,35 19,34 19,33 19,32 19,31 20,31 20,30 20,29" fill="none" stroke="#00f0b5" stroke-width="3" stroke-linecap="round" stroke-linejoin="round" opacity="0.95">
    <title>2236 a:1</title>
  </polyline>
  <polyline points="19,31 19,32 19,33 19,34 20,34 20,35 20,36 21,36 21,37 21,38 22,38 22,39 23,39 23,40 24,40 24,41 25,41 25,42 26,42 26,43 27,43 28,43 29,43 30,43 30,44 31,44 32,44 33,44 34,44 35,44 36,44 37,44 38,44 39,44 40,44 41,44 42,44 43,44 44,43 45,43 46,43 47,43 48,42 49,42 49,41 50,41 51,41 51,40 52,40 53,40 53,39 54,39 55,39 56,38 57,38 58,37 59,37 59,36 60,36" fill="none" stroke="#2f7df6" stroke-width="3" stroke-linecap="round" stroke-linejoin="round" opacity="0.95">
    <title>2237 b:1</title>
  </polyline>
  <polyline points="60,37 61,37 61,36 62,36 63,36 63,35 64,35 64,34 65,34 66,33 66,32 67,32 67,31 67,30 68,30 68,29 68,28 68,27 68,26 68,25 68,24 68,23 68,22 67,22 67,21 67,20 66,20 66,19 65,19 64,18 63,18 62,17 61,17 60,17 59,17 58,17 57,16 56,16 55,16 55,17 54,17 53,17 52,18 51,18 50,18 50,19 49,19 48,20 47,20 47,21 46,21 45,21 45,22 44,22 44,23 43,23 43,24 43,25 42,26 42,27 42,28 41,28 41,29 41,30 41,31 41,32 41,33 41,34 41,35 41,36 41,37 42,37 43,37 43,38 44,38 44,39 45,39 46,39 47,40 48,40 49,40 50,40 51,40 52,40 52,39 53,39 54,39 55,39 56,39 57,39 57,38 58,38 59,38 60,38 60,37 61,37" fill="none" stroke="#8aff00" stroke-width="3" stroke-linecap="round" stroke-linejoin="round" opacity="0.95">
    <title>2238 c:1</title>
  </polyline>
  <polyline points="41,33 41,34 41,35 41,36 41,37 41,38 40,39 40,40 40,41 40,42 40,43 40,44 40,45 40,46 40,47 40,48 40,49 39,50 39,51 39,52 39,53 39,54 39,55 39,56 39,57 39,58 39,59 39,60 39,61 39,62 38,62 38,63 38,64 38,65 38,66 38,67 38,68 38,69 38,70 38,71 38,72 38,73 38,74 38,75 37,76 37,77 37,78 37,79 37,80 37,81 37,82 37,83 36,84 36,85 36,86 36,87 36,88 36,89 36,90 36,91 36,92 36,93 35,93 35,94 35,95 35,96 35,97 35,98 35,99" fill="none" stroke="#00f0b5" stroke-width="3" stroke-linecap="round" stroke-linejoin="round" opacity="0.95">
    <title>2239 a:1</title>
  </polyline>
</svg>
