<?xml version="1.0" encoding="UTF-8"?>
<svg xmlns="http://www.w3.org/2000/svg" width="201" height="127" viewBox="0 0 201 127">
  <title>particle img3-m68-p1 e:1 a:1 e:1 b:1 c:1 a:1 b:1 d:1 g:1 e:1</title>
  <metadata>{&quot;entityType&quot;:&quot;particle&quot;,&quot;entityId&quot;:&quot;img3-m68-p1&quot;,&quot;token&quot;:&quot;e:1 a:1 e:1 b:1 c:1 a:1 b:1 d:1 g:1 e:1&quot;,&quot;signature&quot;:&quot;e:1 a:1 e:1 b:1 c:1 a:1 b:1 d:1 g:1 e:1&quot;,&quot;imageName&quot;:&quot;page-003.jpg&quot;,&quot;imageId&quot;:3,&quot;bounds&quot;:{&quot;x&quot;:1964,&quot;y&quot;:1439,&quot;w&quot;:201,&quot;h&quot;:127},&quot;atoms&quot;:[{&quot;id&quot;:2201,&quot;token&quot;:&quot;e:1&quot;,&quot;particle_id&quot;:&quot;img3-m68-p1&quot;,&quot;molecule_id&quot;:&quot;img3-m68&quot;,&quot;atom_order&quot;:1},{&quot;id&quot;:2205,&quot;token&quot;:&quot;a:1&quot;,&quot;particle_id&quot;:&quot;img3-m68-p1&quot;,&quot;molecule_id&quot;:&quot;img3-m68&quot;,&quot;atom_order&quot;:2},{&quot;id&quot;:2207,&quot;token&quot;:&quot;e:1&quot;,&quot;particle_id&quot;:&quot;img3-m68-p1&quot;,&quot;molecule_id&quot;:&quot;img3-m68&quot;,&quot;atom_order&quot;:3},{&quot;id&quot;:2210,&quot;token&quot;:&quot;b:1&quot;,&quot;particle_id&quot;:&quot;img3-m68-p1&quot;,&quot;molecule_id&quot;:&quot;img3-m68&quot;,&quot;atom_order&quot;:4},{&quot;id&quot;:2208,&quot;token&quot;:&quot;c:1&quot;,&quot;particle_id&quot;:&quot;img3-m68-p1&quot;,&quot;molecule_id&quot;:&quot;img3-m68&quot;,&quot;atom_order&quot;:5},{&quot;id&quot;:2209,&quot;token&quot;:&quot;a:1&quot;,&quot;particle_id&quot;:&quot;img3-m68-p1&quot;,&quot;molecule_id&quot;:&quot;img3-m68&quot;,&quot;atom_order&quot;:6},{&quot;id&quot;:2206,&quot;token&quot;:&quot;b:1&quot;,&quot;particle_id&quot;:&quot;img3-m68-p1&quot;,&quot;molecule_id&quot;:&quot;img3-m68&quot;,&quot;atom_order&quot;:7},{&quot;id&quot;:2211,&quot;token&quot;:&quot;d:1&quot;,&quot;particle_id&quot;:&quot;img3-m68-p1&quot;,&quot;molecule_id&quot;:&quot;img3-m68&quot;,&quot;atom_order&quot;:8},{&quot;id&quot;:2204,&quot;token&quot;:&quot;g:1&quot;,&quot;particle_id&quot;:&quot;img3-m68-p1&quot;,&quot;molecule_id&quot;:&quot;img3-m68&quot;,&quot;atom_order&quot;:9},{&quot;id&quot;:2202,&quot;token&quot;:&quot;e:1&quot;,&quot;particle_id&quot;:&quot;img3-m68-p1&quot;,&quot;molecule_id&quot;:&quot;img3-m68&quot;,&quot;atom_order&quot;:10}]}</metadata>
  <rect x="0" y="0" width="201" height="127" fill="#f8f0d8"/>
  <image href="file:///C:/Users/HHHES/AppData/Roaming/com.voynichlab.datasetcreator/images/1/35a70f63-88ab-4986-b441-b78046a10087.jpg" x="-1964" y="-1439" width="2972" height="3766" opacity="0.92"/>
  <rect x="0.5" y="0.5" width="200" height="126" fill="none" stroke="#111827" stroke-width="1" opacity="0.35"/>
  <polyline points="80,102 79,102 78,102 77,102 76,102 76,101 75,101 74,101 73,100 72,100 71,100 71,99 71,98 70,98 70,97 70,96 70,95 70,94 70,93 70,92 71,92 71,91 72,90 73,89 74,89 74,88 75,88 76,88 76,87 77,87 78,87 79,87 80,87 81,87" fill="none" stroke="#f2e45c" stroke-width="3" stroke-linecap="round" stroke-linejoin="round" opacity="0.95">
    <title>2201 e:1</title>
  </polyline>
  <polyline points="99,111 99,110 100,110 100,109 100,108 100,107 100,106 100,105 100,104 100,103 100,102 100,101 100,100 100,99 100,98 100,97 101,96 101,95 101,94 101,93 101,92 101,91 101,90 101,89 101,88 101,87 101,86 101,85 101,84 102,84 102,83 102,82 102,81 102,80 102,79 102,78 102,77 102,76 102,75 102,74 102,73 102,72 102,71 102,70 102,69 102,68 102,67 102,66 102,65 102,64 102,63 102,62 102,61 102,60 102,59 102,58 102,57 102,56 102,55 102,54 102,53 102,52 102,51 102,50 102,49 102,48 102,47 102,46 102,45 102,44 102,43 102,42 102,41 102,40 102,39 102,38 102,37 102,36 102,35 102,34 102,33 102,32 102,31 102,30 101,29 101,28 101,27 101,26 101,25 101,24 101,23 101,22 100,22 100,21 100,20 100,19 100,18" fill="none" stroke="#00f0b5" stroke-width="3" stroke-linecap="round" stroke-linejoin="round" opacity="0.95">
    <title>2205 a:1</title>
  </polyline>
  <polyline points="88,39 87,39 86,39 86,38 85,38 84,37 83,37 83,36 82,36 81,35 80,35 80,34 80,33 79,33 79,32 79,31 79,30 80,30 80,29 80,28 81,28 81,27 82,26 83,25 84,25 84,24 85,24 86,24 87,23 88,23 89,23 89,22 90,22 91,22 91,21 92,21 93,21 94,21 95,21 95,20 96,20 97,20 98,20 99,19 100,19" fill="none" stroke="#f2e45c" stroke-width="3" stroke-linecap="round" stroke-linejoin="round" opacity="0.95">
    <title>2207 e:1</title>
  </polyline>
  <polyline points="154,65 153,65 153,66 152,66 151,66 151,67 150,67 149,67 149,68 148,68 147,68 146,68 145,68 144,68 144,69 143,69 142,69 141,69 140,69 139,69 138,69 137,69 136,69 135,69 134,69 133,69 132,69 131,69 130,69 130,68 129,68 128,68 127,68 126,68 125,68 124,68 123,67 122,67 121,67 120,67 119,67 118,66 117,66 116,66 115,66 114,66 114,65 113,65 112,65 111,65 110,65 109,65 109,64 108,64 107,64 106,64 105,64 104,63 103,63 102,63 101,63 100,62 99,62 98,62 97,62 96,61 95,61 94,61 93,61 92,61 91,61" fill="none" stroke="#2f7df6" stroke-width="3" stroke-linecap="round" stroke-linejoin="round" opacity="0.95">
    <title>2210 b:1</title>
  </polyline>
  <polyline points="175,36 176,36 176,35 177,35 178,35 179,35 179,34 180,34 181,34 181,33 182,33 182,32 183,32 183,31 184,31 184,30 185,30 185,29 185,28 185,27 185,26 185,25 184,25 184,24 184,23 184,22 184,21 184,20 183,20 182,20 182,19 181,19 181,18 180,18 179,18 178,18 178,17 177,17 176,17 175,17 174,17 173,17 172,17 171,17 171,16 170,16 169,16 168,16 167,16 166,16 165,16 164,17 163,17 162,17 161,17 161,18 160,18 160,19 159,19 159,20 158,20 157,20 157,21 156,21 156,22 155,22 155,23 154,23 154,24 153,24 153,25 152,25 152,26 152,27 151,27 151,28 151,29 151,30 151,31 151,32 151,33 152,33 152,34 153,34 154,34 155,34 155,35 156,35 157,35 158,35 158,36 159,36 160,36 161,36 162,36 163,37 164,37 165,37 166,37 167,37 168,37 169,37 170,37 171,37 172,36 173,36 174,36" fill="none" stroke="#8aff00" stroke-width="3" stroke-linecap="round" stroke-linejoin="round" opacity="0.95">
    <title>2208 c:1</title>
  </polyline>
  <polyline points="152,29 152,30 152,31 152,32 152,33 152,34 152,35 152,36 153,36 153,37 153,38 153,39 153,40 154,40 154,41 154,42 154,43 154,44 155,44 155,45 155,46 155,47 155,48 155,49 155,50 155,51 155,52 155,53 155,54 155,55 155,56 155,57 155,58 155,59 155,60 155,61 155,62 155,63 155,64 155,65" fill="none" stroke="#00f0b5" stroke-width="3" stroke-linecap="round" stroke-linejoin="round" opacity="0.95">
    <title>2209 a:1</title>
  </polyline>
  <polyline points="88,39 89,39 90,39 90,40 91,40 92,40 93,40 94,40 95,41 97,41 98,41 99,42 100,42 101,42 102,42 102,43 103,43 104,43 105,43 106,43 107,43 108,43 109,43 110,43 111,43 112,43 113,44 114,44 115,44 116,44 117,44 118,44 119,44 120,44 122,44 123,44 124,44 125,44 126,44 127,44 128,44 129,44 130,44 131,44 132,44 133,44 134,44 135,44 135,43 136,43 137,43 138,43 139,43 140,43 141,43 142,43 143,43 144,43 145,42 146,42 147,42 148,42 149,42 150,42 151,42 152,42 152,41 153,41 154,41 155,41 156,41 157,41 158,40 159,40 160,40 161,40 162,40 162,39 163,39 164,39 165,39 166,39 167,39 167,38 168,38 169,38 170,38 171,37 172,37 173,37 173,36 174,36 175,36" fill="none" stroke="#2f7df6" stroke-width="3" stroke-linecap="round" stroke-linejoin="round" opacity="0.95">
    <title>2206 b:1</title>
  </polyline>
  <polyline points="16,71 16,70 17,70 18,70 18,69 19,69 20,69 21,68 22,68 23,67 24,67 25,67 25,66 26,66 27,66 28,66 29,65 30,65 31,65 32,65 33,64 34,64 35,64 36,64 37,64 37,63 38,63 39,63 40,63 41,63 42,63 43,63 44,63 45,63 45,62 46,62 47,62 48,62 50,62 51,62 52,62 53,62 54,61 55,61 56,61 57,61 58,61 59,61 60,61 61,61 62,61 63,61 64,61 65,61 66,61 67,61 68,61 69,61 69,60 70,60 72,60 73,60 74,60 75,60 76,60 77,60 78,60 79,60 81,60 82,60 83,60 84,60 85,60 86,60 87,60 88,60 89,60 90,60 91,61 92,61 93,61 94,61 95,61" fill="none" stroke="#ff2d55" stroke-width="3" stroke-linecap="round" stroke-linejoin="round" opacity="0.95">
    <title>2211 d:1</title>
  </polyline>
  <polyline points="81,87 91,86 95,86 96,86 97,86 98,86 99,86 100,86 101,86 102,86 103,86 103,85 104,85 105,85 106,85 107,85 108,85 109,85 110,85 111,85 112,85 113,85 114,85 115,85 116,85 117,85 118,85 119,85 120,85 121,85 122,84 123,84 124,84 125,84 126,84 127,84 128,84 129,84 130,84 131,84 132,84 133,84 134,84 135,84 136,84 137,84 138,84 139,84 140,84 141,85 142,85 143,85 144,85 145,85 146,85 147,85 148,85 149,85 150,85 151,85 152,85 153,85 154,85 155,85 156,85 157,85 158,85 159,85 160,85 161,85 162,85 163,85 164,85 165,85 166,85" fill="none" stroke="#7c3cff" stroke-width="3" stroke-linecap="round" stroke-linejoin="round" opacity="0.95">
    <title>2204 g:1</title>
  </polyline>
  <polyline points="156,107 151,109 150,109 149,109 148,109 147,109 147,108 146,108 146,107 145,107 144,107 144,106 143,106 143,105 143,104 142,104 142,102 142,101 142,100 142,99 142,98 143,97 143,96 144,96 144,95 145,95 146,93 147,93 147,92 148,92 149,91 150,91 150,90 151,90 153,89 154,89 155,88 156,88 157,88 158,87 161,87 162,87 162,86 163,86 164,86 165,86 165,85 166,85" fill="none" stroke="#f2e45c" stroke-width="3" stroke-linecap="round" stroke-linejoin="round" opacity="0.95">
    <title>2202 e:1</title>
  </polyline>
</svg>
