<?xml version="1.0" encoding="UTF-8"?>
<svg xmlns="http://www.w3.org/2000/svg" width="100" height="52" viewBox="0 0 100 52">
  <title>particle img3-m125-p2 e:1 g:1 e:1</title>
  <metadata>{&quot;entityType&quot;:&quot;particle&quot;,&quot;entityId&quot;:&quot;img3-m125-p2&quot;,&quot;token&quot;:&quot;e:1 g:1 e:1&quot;,&quot;signature&quot;:&quot;e:1 g:1 e:1&quot;,&quot;imageName&quot;:&quot;page-003.jpg&quot;,&quot;imageId&quot;:3,&quot;bounds&quot;:{&quot;x&quot;:1255,&quot;y&quot;:1994,&quot;w&quot;:100,&quot;h&quot;:52},&quot;atoms&quot;:[{&quot;id&quot;:3318,&quot;token&quot;:&quot;e:1&quot;,&quot;particle_id&quot;:&quot;img3-m125-p2&quot;,&quot;molecule_id&quot;:&quot;img3-m125&quot;,&quot;atom_order&quot;:1},{&quot;id&quot;:3345,&quot;token&quot;:&quot;g:1&quot;,&quot;particle_id&quot;:&quot;img3-m125-p2&quot;,&quot;molecule_id&quot;:&quot;img3-m125&quot;,&quot;atom_order&quot;:2},{&quot;id&quot;:3319,&quot;token&quot;:&quot;e:1&quot;,&quot;particle_id&quot;:&quot;img3-m125-p2&quot;,&quot;molecule_id&quot;:&quot;img3-m125&quot;,&quot;atom_order&quot;:3}]}</metadata>
  <rect x="0" y="0" width="100" height="52" fill="#f8f0d8"/>
  <image href="file:///C:/Users/HHHES/AppData/Roaming/com.voynichlab.datasetcreator/images/1/35a70f63-88ab-4986-b441-b78046a10087.jpg" x="-1255" y="-1994" width="2972" height="3766" opacity="0.92"/>
  <rect x="0.5" y="0.5" width="99" height="51" fill="none" stroke="#111827" stroke-width="1" opacity="0.35"/>
  <polyline points="31,33 31,34 30,34 30,35 29,35 28,35 28,36 27,36 26,36 25,36 24,36 23,36 22,36 21,36 21,35 20,35 19,35 18,35 18,34 17,34 16,34 16,33 16,32 16,31 16,30 16,29 16,28 16,27 17,27 17,26 17,25 17,24 18,24 18,23 18,22 19,22 19,21 19,20 20,20 21,20 21,19 22,19 22,18 23,18 24,18 24,17 25,17 26,17 27,17 27,16" fill="none" stroke="#f2e45c" stroke-width="3" stroke-linecap="round" stroke-linejoin="round" opacity="0.95">
    <title>3318 e:1</title>
  </polyline>
  <polyline points="25,17 26,17 27,17 28,17 29,16 30,16 31,16 32,16 33,16 34,16 35,16 36,16 37,16 38,16 39,16 40,16 41,16 42,16 43,16 44,16 45,16 46,16 47,16 48,16 49,16 50,16 51,16 52,16 53,16 54,16 55,16 56,16 57,16 58,16 59,16 60,16 61,16 62,16 63,16 64,16 65,16 66,16 67,16 68,16 69,16 70,16 71,16 72,16 73,16 74,16 75,16 76,16 77,16 78,16 79,16 80,16 80,17" fill="none" stroke="#7c3cff" stroke-width="3" stroke-linecap="round" stroke-linejoin="round" opacity="0.95">
    <title>3345 g:1</title>
  </polyline>
  <polyline points="84,33 84,34 83,34 83,35 82,35 81,35 81,36 80,36 79,36 78,36 77,36 76,36 75,36 74,36 74,35 73,35 72,35 71,35 71,34 70,34 69,34 69,33 69,32 69,31 69,30 69,29 69,28 69,27 70,27 70,26 70,25 70,24 71,24 71,23 71,22 72,22 72,21 72,20 73,20 74,20 74,19 75,19 75,18 76,18 77,18 77,17 78,17 79,17 80,17 80,16" fill="none" stroke="#f2e45c" stroke-width="3" stroke-linecap="round" stroke-linejoin="round" opacity="0.95">
    <title>3319 e:1</title>
  </polyline>
</svg>
