<?xml version="1.0" encoding="UTF-8"?>
<svg xmlns="http://www.w3.org/2000/svg" width="61" height="80" viewBox="0 0 61 80">
  <title>particle img3-m101-p3 f:1 i:1 d:1</title>
  <metadata>{&quot;entityType&quot;:&quot;particle&quot;,&quot;entityId&quot;:&quot;img3-m101-p3&quot;,&quot;token&quot;:&quot;f:1 i:1 d:1&quot;,&quot;signature&quot;:&quot;f:1 i:1 d:1&quot;,&quot;imageName&quot;:&quot;page-003.jpg&quot;,&quot;imageId&quot;:3,&quot;bounds&quot;:{&quot;x&quot;:2099,&quot;y&quot;:1827,&quot;w&quot;:61,&quot;h&quot;:80},&quot;atoms&quot;:[{&quot;id&quot;:3188,&quot;token&quot;:&quot;f:1&quot;,&quot;particle_id&quot;:&quot;img3-m101-p3&quot;,&quot;molecule_id&quot;:&quot;img3-m101&quot;,&quot;atom_order&quot;:1},{&quot;id&quot;:3195,&quot;token&quot;:&quot;i:1&quot;,&quot;particle_id&quot;:&quot;img3-m101-p3&quot;,&quot;molecule_id&quot;:&quot;img3-m101&quot;,&quot;atom_order&quot;:2},{&quot;id&quot;:3199,&quot;token&quot;:&quot;d:1&quot;,&quot;particle_id&quot;:&quot;img3-m101-p3&quot;,&quot;molecule_id&quot;:&quot;img3-m101&quot;,&quot;atom_order&quot;:3}]}</metadata>
  <rect x="0" y="0" width="61" height="80" fill="#f8f0d8"/>
  <image href="file:///C:/Users/HHHES/AppData/Roaming/com.voynichlab.datasetcreator/images/1/35a70f63-88ab-4986-b441-b78046a10087.jpg" x="-2099" y="-1827" width="2972" height="3766" opacity="0.92"/>
  <rect x="0.5" y="0.5" width="60" height="79" fill="none" stroke="#111827" stroke-width="1" opacity="0.35"/>
  <polyline points="17,43 17,44 17,45 18,45 18,46 18,47 19,47 19,48 20,49 20,50 21,50 21,51 22,52 22,53 23,53 23,54 24,54 24,55 25,55 25,56 25,57 26,57 26,58 26,59 27,59 27,60 28,60 28,61 29,62 29,63 30,63 30,64" fill="none" stroke="#00a2ff" stroke-width="3" stroke-linecap="round" stroke-linejoin="round" opacity="0.95">
    <title>3188 f:1</title>
  </polyline>
  <polyline points="19,47 20,47 21,47 22,47 23,47 24,47 25,47 26,47 26,46 27,46 28,46 29,46 29,45 30,45 31,45 32,45 32,44 33,44 34,44 34,43 35,43 36,43 36,42 37,42 37,41 38,41 39,41 39,40 40,40 40,39 41,38 42,37 42,36 43,36 43,35 44,35 44,34 44,33 45,33 45,32 45,31 45,30 45,29 45,28 45,27 45,26 45,25 45,24 45,23 45,22 45,21 45,20 45,19 44,19 43,18 42,18" fill="none" stroke="#00ff7f" stroke-width="3" stroke-linecap="round" stroke-linejoin="round" opacity="0.95">
    <title>3195 i:1</title>
  </polyline>
  <polyline points="16,23 16,22 17,22 18,22 18,21 19,21 19,20 20,20 21,19 22,19 23,18 24,18 25,18 25,17 26,17 27,17 28,17 28,16 29,16 30,16 31,16 32,16 33,16 34,16 35,16 36,16 37,16 38,16 39,16 39,17 40,17 41,17 41,18 42,18 43,18" fill="none" stroke="#ff2d55" stroke-width="3" stroke-linecap="round" stroke-linejoin="round" opacity="0.95">
    <title>3199 d:1</title>
  </polyline>
</svg>
