<?xml version="1.0" encoding="UTF-8"?>
<svg xmlns="http://www.w3.org/2000/svg" width="129" height="93" viewBox="0 0 129 93">
  <title>particle img3-m137-p5 k:1 f:1 i:1 d:1</title>
  <metadata>{&quot;entityType&quot;:&quot;particle&quot;,&quot;entityId&quot;:&quot;img3-m137-p5&quot;,&quot;token&quot;:&quot;k:1 f:1 i:1 d:1&quot;,&quot;signature&quot;:&quot;k:1 f:1 i:1 d:1&quot;,&quot;imageName&quot;:&quot;page-003.jpg&quot;,&quot;imageId&quot;:3,&quot;bounds&quot;:{&quot;x&quot;:944,&quot;y&quot;:2126,&quot;w&quot;:129,&quot;h&quot;:93},&quot;atoms&quot;:[{&quot;id&quot;:3640,&quot;token&quot;:&quot;k:1&quot;,&quot;particle_id&quot;:&quot;img3-m137-p5&quot;,&quot;molecule_id&quot;:&quot;img3-m137&quot;,&quot;atom_order&quot;:1},{&quot;id&quot;:3577,&quot;token&quot;:&quot;f:1&quot;,&quot;particle_id&quot;:&quot;img3-m137-p5&quot;,&quot;molecule_id&quot;:&quot;img3-m137&quot;,&quot;atom_order&quot;:2},{&quot;id&quot;:3591,&quot;token&quot;:&quot;i:1&quot;,&quot;particle_id&quot;:&quot;img3-m137-p5&quot;,&quot;molecule_id&quot;:&quot;img3-m137&quot;,&quot;atom_order&quot;:3},{&quot;id&quot;:3600,&quot;token&quot;:&quot;d:1&quot;,&quot;particle_id&quot;:&quot;img3-m137-p5&quot;,&quot;molecule_id&quot;:&quot;img3-m137&quot;,&quot;atom_order&quot;:4}]}</metadata>
  <rect x="0" y="0" width="129" height="93" fill="#f8f0d8"/>
  <image href="file:///C:/Users/HHHES/AppData/Roaming/com.voynichlab.datasetcreator/images/1/35a70f63-88ab-4986-b441-b78046a10087.jpg" x="-944" y="-2126" width="2972" height="3766" opacity="0.92"/>
  <rect x="0.5" y="0.5" width="128" height="92" fill="none" stroke="#111827" stroke-width="1" opacity="0.35"/>
  <polyline points="44,53 45,53 45,54 45,55 46,55 46,56 47,57 47,58 47,59 48,59 48,60 48,61 48,62 48,63 49,63 49,64 49,65 50,65 50,66 50,67 50,68 51,69 51,70 52,71 52,72 52,73 53,73 53,72 54,72 54,71 55,71 55,70 56,70 56,69 57,68 58,67 58,66 59,66 59,65 60,65 60,64 61,64 61,63 61,62 62,62 62,61 63,60 63,59 64,58 64,57 65,57 65,58 65,59 66,60 66,61 67,61 67,62 67,63 67,64 68,64 68,65 69,66 69,67 69,68 70,68 70,69 70,70 71,70 71,71 72,71 72,72 72,73 73,74 74,74 74,73 75,73 75,72 76,72 76,71 77,71 77,70 78,70 78,69 78,68 79,68 79,67 80,67 80,66 81,65 82,64 82,63 82,62 83,62 83,61 84,61 84,60 85,60 85,59 85,58 85,57 86,57" fill="none" stroke="#ffffff" stroke-width="3" stroke-linecap="round" stroke-linejoin="round" opacity="0.95">
    <title>3640 k:1</title>
  </polyline>
  <polyline points="86,56 86,57 86,58 87,58 87,59 87,60 88,60 88,61 89,62 89,63 90,63 90,64 91,65 91,66 92,66 92,67 93,67 93,68 94,68 94,69 94,70 95,70 95,71 95,72 96,72 96,73 97,73 97,74 98,75 98,76 99,76 99,77" fill="none" stroke="#00a2ff" stroke-width="3" stroke-linecap="round" stroke-linejoin="round" opacity="0.95">
    <title>3577 f:1</title>
  </polyline>
  <polyline points="99,77 100,77 100,76 101,76 102,76 103,76 103,75 104,74 105,74 105,73 106,73 106,72 107,72 107,71 108,70 108,69 109,68 110,67 110,66 111,65 111,64 111,63 111,62 112,62 112,61 112,60 112,59 112,58 112,57 113,57 113,56 113,55 113,54 113,53 113,52 112,52 112,51 112,50 112,49 112,48 112,47 112,46 111,46 111,45 111,44 110,44 110,43 110,42 110,41 109,41 109,40 108,40 108,39 107,38 107,37 107,36 106,36 106,35 105,35 105,34 104,34 103,33 103,32 102,32 102,31 101,31 101,30 100,30 100,29 99,29 98,29 97,28 96,28 95,27 94,27 93,26 92,26 91,26 91,25 90,25" fill="none" stroke="#00ff7f" stroke-width="3" stroke-linecap="round" stroke-linejoin="round" opacity="0.95">
    <title>3591 i:1</title>
  </polyline>
  <polyline points="16,17 17,17 18,17 19,17 20,16 21,16 22,16 23,16 24,16 25,16 26,16 27,17 28,17 29,17 30,17 31,17 32,17 33,17 33,16 34,16 35,16 36,16 37,16 38,16 39,16 40,16 41,16 42,16 43,16 44,16 45,16 46,16 47,17 48,17 49,17 50,17 51,17 52,17 53,17 54,17 55,18 56,18 58,18 59,18 60,18 61,19 62,19 63,19 64,19 65,19 66,19 67,20 68,20 69,20 70,20 71,20 71,21 72,21 73,21 74,21 75,21 76,22 77,22 78,22 79,22 79,23 80,23 81,23 82,23 83,23 85,23 87,24 88,24 89,24 90,24 90,25 91,25 92,25 92,26 93,27" fill="none" stroke="#ff2d55" stroke-width="3" stroke-linecap="round" stroke-linejoin="round" opacity="0.95">
    <title>3600 d:1</title>
  </polyline>
</svg>
