<?xml version="1.0" encoding="UTF-8"?>
<svg xmlns="http://www.w3.org/2000/svg" width="67" height="91" viewBox="0 0 67 91">
  <title>particle img3-m144-p3 f:1 i:1 d:1</title>
  <metadata>{&quot;entityType&quot;:&quot;particle&quot;,&quot;entityId&quot;:&quot;img3-m144-p3&quot;,&quot;token&quot;:&quot;f:1 i:1 d:1&quot;,&quot;signature&quot;:&quot;f:1 i:1 d:1&quot;,&quot;imageName&quot;:&quot;page-003.jpg&quot;,&quot;imageId&quot;:3,&quot;bounds&quot;:{&quot;x&quot;:819,&quot;y&quot;:2202,&quot;w&quot;:67,&quot;h&quot;:91},&quot;atoms&quot;:[{&quot;id&quot;:3584,&quot;token&quot;:&quot;f:1&quot;,&quot;particle_id&quot;:&quot;img3-m144-p3&quot;,&quot;molecule_id&quot;:&quot;img3-m144&quot;,&quot;atom_order&quot;:1},{&quot;id&quot;:3595,&quot;token&quot;:&quot;i:1&quot;,&quot;particle_id&quot;:&quot;img3-m144-p3&quot;,&quot;molecule_id&quot;:&quot;img3-m144&quot;,&quot;atom_order&quot;:2},{&quot;id&quot;:3604,&quot;token&quot;:&quot;d:1&quot;,&quot;particle_id&quot;:&quot;img3-m144-p3&quot;,&quot;molecule_id&quot;:&quot;img3-m144&quot;,&quot;atom_order&quot;:3}]}</metadata>
  <rect x="0" y="0" width="67" height="91" fill="#f8f0d8"/>
  <image href="file:///C:/Users/HHHES/AppData/Roaming/com.voynichlab.datasetcreator/images/1/35a70f63-88ab-4986-b441-b78046a10087.jpg" x="-819" y="-2202" width="2972" height="3766" opacity="0.92"/>
  <rect x="0.5" y="0.5" width="66" height="90" fill="none" stroke="#111827" stroke-width="1" opacity="0.35"/>
  <polyline points="29,54 29,55 29,56 30,56 30,57 30,58 31,58 31,59 32,60 32,61 33,61 33,62 34,63 34,64 35,64 35,65 36,65 36,66 37,66 37,67 37,68 38,68 38,69 38,70 39,70 39,71 40,71 40,72 41,73 41,74 42,74 42,75" fill="none" stroke="#00a2ff" stroke-width="3" stroke-linecap="round" stroke-linejoin="round" opacity="0.95">
    <title>3584 f:1</title>
  </polyline>
  <polyline points="29,56 30,56 31,56 32,55 33,55 34,55 35,55 36,55 37,55 37,54 38,54 38,53 39,53 39,52 40,52 41,51 41,50 42,50 42,49 43,49 43,48 44,48 44,47 45,47 45,46 46,46 46,45 46,44 47,43 47,42 47,41 48,40 48,39 48,38 49,38 49,37 49,36 49,35 50,34 50,33 50,32 50,31 50,30 51,29 51,28 51,27 51,26 51,25 50,25 50,24 49,23 49,22 48,22 48,21 47,20" fill="none" stroke="#00ff7f" stroke-width="3" stroke-linecap="round" stroke-linejoin="round" opacity="0.95">
    <title>3595 i:1</title>
  </polyline>
  <polyline points="16,21 16,20 17,20 18,20 18,19 19,19 20,19 21,19 21,18 22,18 23,18 23,17 24,17 25,17 26,17 26,16 27,16 28,16 29,16 29,17 30,17 31,17 32,17 33,17 34,17 35,17 35,18 36,18 37,18 38,18 39,18 40,18 41,18 42,19 43,19 44,19 45,20 46,20 47,21 48,21 49,21 49,22" fill="none" stroke="#ff2d55" stroke-width="3" stroke-linecap="round" stroke-linejoin="round" opacity="0.95">
    <title>3604 d:1</title>
  </polyline>
</svg>
