<?xml version="1.0" encoding="UTF-8"?>
<svg xmlns="http://www.w3.org/2000/svg" width="120" height="94" viewBox="0 0 120 94">
  <title>particle img3-m145-p4 k:1 f:1 i:1 d:1</title>
  <metadata>{&quot;entityType&quot;:&quot;particle&quot;,&quot;entityId&quot;:&quot;img3-m145-p4&quot;,&quot;token&quot;:&quot;k:1 f:1 i:1 d:1&quot;,&quot;signature&quot;:&quot;k:1 f:1 i:1 d:1&quot;,&quot;imageName&quot;:&quot;page-003.jpg&quot;,&quot;imageId&quot;:3,&quot;bounds&quot;:{&quot;x&quot;:2220,&quot;y&quot;:2259,&quot;w&quot;:120,&quot;h&quot;:94},&quot;atoms&quot;:[{&quot;id&quot;:3642,&quot;token&quot;:&quot;k:1&quot;,&quot;particle_id&quot;:&quot;img3-m145-p4&quot;,&quot;molecule_id&quot;:&quot;img3-m145&quot;,&quot;atom_order&quot;:1},{&quot;id&quot;:3589,&quot;token&quot;:&quot;f:1&quot;,&quot;particle_id&quot;:&quot;img3-m145-p4&quot;,&quot;molecule_id&quot;:&quot;img3-m145&quot;,&quot;atom_order&quot;:2},{&quot;id&quot;:3597,&quot;token&quot;:&quot;i:1&quot;,&quot;particle_id&quot;:&quot;img3-m145-p4&quot;,&quot;molecule_id&quot;:&quot;img3-m145&quot;,&quot;atom_order&quot;:3},{&quot;id&quot;:3606,&quot;token&quot;:&quot;d:1&quot;,&quot;particle_id&quot;:&quot;img3-m145-p4&quot;,&quot;molecule_id&quot;:&quot;img3-m145&quot;,&quot;atom_order&quot;:4}]}</metadata>
  <rect x="0" y="0" width="120" height="94" fill="#f8f0d8"/>
  <image href="file:///C:/Users/HHHES/AppData/Roaming/com.voynichlab.datasetcreator/images/1/35a70f63-88ab-4986-b441-b78046a10087.jpg" x="-2220" y="-2259" width="2972" height="3766" opacity="0.92"/>
  <rect x="0.5" y="0.5" width="119" height="93" fill="none" stroke="#111827" stroke-width="1" opacity="0.35"/>
  <polyline points="23,55 23,56 24,57 25,58 25,59 26,60 26,61 27,63 27,64 28,64 28,65 29,66 29,67 29,68 30,68 30,69 31,69 31,70 31,71 32,71 32,72 33,72 33,73 34,73 34,74 35,75 36,75 36,76 37,76 38,74 38,73 39,73 39,72 40,72 41,71 41,70 42,70 42,69 43,68 43,67 44,67 44,66 45,66 45,65 46,64 46,63 47,63 47,62 48,62 48,61 49,61 49,62 50,63 50,64 51,64 51,65 52,65 52,66 53,66 53,67 53,68 54,68 54,69 54,70 55,70 55,71 55,72 56,72 56,73 57,73 57,74 58,74 58,75 58,76 59,76 59,77 59,78 60,78 60,77 61,77 61,76 62,75 62,74 63,74 63,73 64,73 64,72 65,72 66,71 67,70 69,69 70,68 71,67 72,66 73,66 74,65 75,64 76,64 77,63 78,62 79,61 80,61 80,60 81,60 81,59" fill="none" stroke="#ffffff" stroke-width="3" stroke-linecap="round" stroke-linejoin="round" opacity="0.95">
    <title>3642 k:1</title>
  </polyline>
  <polyline points="81,57 81,58 81,59 82,59 82,60 82,61 83,61 83,62 84,63 84,64 85,64 85,65 86,66 86,67 87,67 87,68 88,68 88,69 89,69 89,70 89,71 90,71 90,72 90,73 91,73 91,74 92,74 92,75 93,76 93,77 94,77 94,78" fill="none" stroke="#00a2ff" stroke-width="3" stroke-linecap="round" stroke-linejoin="round" opacity="0.95">
    <title>3589 f:1</title>
  </polyline>
  <polyline points="94,77 95,77 95,76 96,76 97,76 97,75 98,75 98,74 99,74 99,73 100,72 100,71 101,70 101,69 102,68 102,67 102,66 103,65 103,64 103,63 103,62 104,61 104,60 104,59 104,58 104,57 104,56 104,55 104,54 104,53 104,52 104,51 104,50 104,49 104,48 104,47 103,47 103,46 103,45 103,44 103,43 103,42 102,42 102,41 102,40 101,39 101,38 100,37 100,36 99,35 98,34 98,33 97,33 97,32 96,32 95,31 94,30 93,30 93,29 92,28 91,28 90,27 89,26 88,25 87,25 86,24 85,24" fill="none" stroke="#00ff7f" stroke-width="3" stroke-linecap="round" stroke-linejoin="round" opacity="0.95">
    <title>3597 i:1</title>
  </polyline>
  <polyline points="16,17 17,17 18,17 19,17 20,17 21,16 22,16 23,16 24,16 25,16 26,16 27,16 28,16 29,16 30,16 31,16 32,16 33,16 34,16 35,16 36,16 37,16 38,16 40,16 41,16 42,16 43,16 44,16 45,16 46,16 47,16 48,16 49,16 50,16 51,16 52,16 54,16 55,16 56,17 57,17 59,17 60,17 61,17 63,17 64,17 65,18 66,18 67,18 68,18 69,18 69,19 70,19 71,19 72,19 72,20 73,20 74,21 75,21 76,21 77,21 78,21 78,22 79,22 79,23 80,23 81,23 82,24 83,25 84,25 85,25 86,26 87,26 88,26 88,27 89,27" fill="none" stroke="#ff2d55" stroke-width="3" stroke-linecap="round" stroke-linejoin="round" opacity="0.95">
    <title>3606 d:1</title>
  </polyline>
</svg>
