<?xml version="1.0" encoding="UTF-8"?>
<svg xmlns="http://www.w3.org/2000/svg" width="125" height="113" viewBox="0 0 125 113">
  <title>particle img3-m80-p1 e:1 a:1 e:1 b:1 c:1 a:1 b:1 d:1 g:1 e:1</title>
  <metadata>{&quot;entityType&quot;:&quot;particle&quot;,&quot;entityId&quot;:&quot;img3-m80-p1&quot;,&quot;token&quot;:&quot;e:1 a:1 e:1 b:1 c:1 a:1 b:1 d:1 g:1 e:1&quot;,&quot;signature&quot;:&quot;e:1 a:1 e:1 b:1 c:1 a:1 b:1 d:1 g:1 e:1&quot;,&quot;imageName&quot;:&quot;page-003.jpg&quot;,&quot;imageId&quot;:3,&quot;bounds&quot;:{&quot;x&quot;:1247,&quot;y&quot;:1620,&quot;w&quot;:125,&quot;h&quot;:113},&quot;atoms&quot;:[{&quot;id&quot;:2378,&quot;token&quot;:&quot;e:1&quot;,&quot;particle_id&quot;:&quot;img3-m80-p1&quot;,&quot;molecule_id&quot;:&quot;img3-m80&quot;,&quot;atom_order&quot;:1},{&quot;id&quot;:2382,&quot;token&quot;:&quot;a:1&quot;,&quot;particle_id&quot;:&quot;img3-m80-p1&quot;,&quot;molecule_id&quot;:&quot;img3-m80&quot;,&quot;atom_order&quot;:2},{&quot;id&quot;:2387,&quot;token&quot;:&quot;e:1&quot;,&quot;particle_id&quot;:&quot;img3-m80-p1&quot;,&quot;molecule_id&quot;:&quot;img3-m80&quot;,&quot;atom_order&quot;:3},{&quot;id&quot;:2390,&quot;token&quot;:&quot;b:1&quot;,&quot;particle_id&quot;:&quot;img3-m80-p1&quot;,&quot;molecule_id&quot;:&quot;img3-m80&quot;,&quot;atom_order&quot;:4},{&quot;id&quot;:2386,&quot;token&quot;:&quot;c:1&quot;,&quot;particle_id&quot;:&quot;img3-m80-p1&quot;,&quot;molecule_id&quot;:&quot;img3-m80&quot;,&quot;atom_order&quot;:5},{&quot;id&quot;:2392,&quot;token&quot;:&quot;a:1&quot;,&quot;particle_id&quot;:&quot;img3-m80-p1&quot;,&quot;molecule_id&quot;:&quot;img3-m80&quot;,&quot;atom_order&quot;:6},{&quot;id&quot;:2384,&quot;token&quot;:&quot;b:1&quot;,&quot;particle_id&quot;:&quot;img3-m80-p1&quot;,&quot;molecule_id&quot;:&quot;img3-m80&quot;,&quot;atom_order&quot;:7},{&quot;id&quot;:5498,&quot;token&quot;:&quot;d:1&quot;,&quot;particle_id&quot;:&quot;img3-m80-p1&quot;,&quot;molecule_id&quot;:&quot;img3-m80&quot;,&quot;atom_order&quot;:8},{&quot;id&quot;:2381,&quot;token&quot;:&quot;g:1&quot;,&quot;particle_id&quot;:&quot;img3-m80-p1&quot;,&quot;molecule_id&quot;:&quot;img3-m80&quot;,&quot;atom_order&quot;:9},{&quot;id&quot;:2379,&quot;token&quot;:&quot;e:1&quot;,&quot;particle_id&quot;:&quot;img3-m80-p1&quot;,&quot;molecule_id&quot;:&quot;img3-m80&quot;,&quot;atom_order&quot;:10}]}</metadata>
  <rect x="0" y="0" width="125" height="113" fill="#f8f0d8"/>
  <image href="file:///C:/Users/HHHES/AppData/Roaming/com.voynichlab.datasetcreator/images/1/35a70f63-88ab-4986-b441-b78046a10087.jpg" x="-1247" y="-1620" width="2972" height="3766" opacity="0.92"/>
  <rect x="0.5" y="0.5" width="124" height="112" fill="none" stroke="#111827" stroke-width="1" opacity="0.35"/>
  <polyline points="34,89 34,90 33,90 33,91 32,91 32,92 31,92 31,93 30,93 29,93 28,93 27,93 27,94 26,94 25,94 24,93 23,93 22,93 21,93 21,92 20,92 19,92 19,91 18,91 17,91 17,90 17,89 16,89 16,88 16,87 16,86 16,85 16,84 16,83 17,83 17,82 18,82 18,81 18,80 19,80 20,79 21,79 21,78 22,78" fill="none" stroke="#f2e45c" stroke-width="3" stroke-linecap="round" stroke-linejoin="round" opacity="0.95">
    <title>2378 e:1</title>
  </polyline>
  <polyline points="53,94 53,93 53,92 53,91 53,90 54,90 54,89 54,88 54,87 54,86 54,85 54,84 54,83 54,82 54,81 54,80 54,79 54,78 54,77 54,76 54,75 54,74 54,73 54,72 54,71 54,70 54,69 54,68 55,68 55,67 55,66 55,65 55,64 55,63 55,62 55,61 55,60 55,59 55,58 56,58 56,57 56,56 56,55 56,54 56,53 56,52 56,51 56,50 56,49 56,48 57,47 57,46 57,45 57,44 57,43 57,42 57,41 57,40 57,39 57,38 57,37 57,36 57,35 58,35 58,34 58,33 58,32 58,31 58,30 58,29 58,28 58,27 58,26 58,25 58,24 58,23" fill="none" stroke="#00f0b5" stroke-width="3" stroke-linecap="round" stroke-linejoin="round" opacity="0.95">
    <title>2382 a:1</title>
  </polyline>
  <polyline points="44,41 43,41 42,41 42,40 41,40 40,40 39,39 38,39 38,38 37,38 37,37 36,37 36,36 36,35 36,34 36,33 36,32 36,31 37,31 37,30 37,29 38,29 38,28 39,28 39,27 40,27 41,26 42,26 43,26 43,25 44,25 45,25 46,25 47,25 48,25 49,24 50,24 51,24 52,24 53,24 54,24 54,23 55,23 56,23 57,23 58,23" fill="none" stroke="#f2e45c" stroke-width="3" stroke-linecap="round" stroke-linejoin="round" opacity="0.95">
    <title>2387 e:1</title>
  </polyline>
  <polyline points="56,58 57,58 57,59 58,59 59,59 59,60 60,60 61,60 62,61 63,61 64,61 64,62 65,62 66,62 67,62 67,63 68,63 69,63 70,63 71,63 72,63 73,63 74,63 75,63 76,64 77,64 78,64 79,64 80,64 80,63 81,63" fill="none" stroke="#2f7df6" stroke-width="3" stroke-linecap="round" stroke-linejoin="round" opacity="0.95">
    <title>2390 b:1</title>
  </polyline>
  <polyline points="100,36 101,36 101,35 102,35 102,34 103,34 103,33 103,32 104,32 104,31 104,30 104,29 105,29 105,28 105,27 105,26 105,25 104,24 104,23 104,22 103,22 103,21 103,20 102,20 102,19 101,19 101,18 100,18 99,18 99,17 98,17 97,17 97,16 96,16 95,16 94,16 93,16 92,16 91,16 90,16 89,16 89,17 88,17 87,17 87,18 86,18 85,18 85,19 84,19 84,20 83,20 83,21 82,21 82,22 81,22 81,23 80,23 80,24 80,25 79,25 79,26 79,27 79,28 78,28 78,29 78,30 78,31 78,32 78,33 78,34 79,35 80,36 80,37 81,37 81,38 82,38 82,39 83,39 84,39 84,40 85,40 86,40 87,40 88,40 89,40 90,40 91,40 92,40 93,40 94,40 95,39 96,39 97,39 97,38 98,38 98,37 99,37 99,36 99,35 100,35" fill="none" stroke="#8aff00" stroke-width="3" stroke-linecap="round" stroke-linejoin="round" opacity="0.95">
    <title>2386 c:1</title>
  </polyline>
  <polyline points="80,63 81,63 81,62 81,61 82,61 82,60 82,59 82,58 82,57 82,56 82,55 82,54 82,53 82,52 82,51 81,51 81,50 81,49 81,48 81,47 81,46 81,45 81,44 81,43 80,43 80,42 80,41 80,40 80,39 80,38 80,37 79,37 79,36 79,35 79,34 79,33 78,33 78,32 78,31" fill="none" stroke="#00f0b5" stroke-width="3" stroke-linecap="round" stroke-linejoin="round" opacity="0.95">
    <title>2392 a:1</title>
  </polyline>
  <polyline points="44,41 45,41 45,42 46,42 47,42 47,43 48,43 49,43 50,43 51,43 51,44 52,44 53,44 54,44 55,44 56,44 57,44 58,44 59,44 60,44 61,44 62,44 63,44 64,44 65,44 66,44 67,44 68,44 69,44 70,44 71,44 72,44 73,44 74,44 75,44 76,44 77,44 78,44 79,44 80,44 81,44 82,44 83,44 84,43 85,43 86,43 87,43 88,42 89,42 90,42 91,41 92,41 93,40 94,40 95,39 96,39 96,38 97,38 98,38 98,37 99,37 99,36 100,36" fill="none" stroke="#2f7df6" stroke-width="3" stroke-linecap="round" stroke-linejoin="round" opacity="0.95">
    <title>2384 b:1</title>
  </polyline>
  <polyline points="29,72 28,72 27,72 26,72 26,71 25,71 24,71 24,70 23,70 22,70 22,69 21,68 21,67 21,66 21,65 21,64 22,63 23,62 24,62 24,61 25,60 26,59 26,58 27,58 27,57 28,57 29,56 29,55 30,55 31,55 31,54 32,54 33,54 34,54 35,54 36,54 37,54 38,54 39,54 40,54 41,54 42,54 43,54 44,54 45,54 46,54 47,55 49,55 50,55 51,55 52,55 52,56 53,56 54,57 55,57 56,57 57,58 58,58 58,59 59,59 60,59 61,60" fill="none" stroke="#ff2d55" stroke-width="3" stroke-linecap="round" stroke-linejoin="round" opacity="0.95">
    <title>5498 d:1</title>
  </polyline>
  <polyline points="18,80 19,80 20,80 21,80 22,80 23,80 24,80 25,80 26,80 27,80 28,80 29,80 30,80 31,80 32,80 33,80 34,80 35,80 36,80 37,80 38,80 39,80 40,80 41,80 42,80 43,80 44,80 45,80 46,80 47,80 48,80 49,80 50,80 51,80 52,80 53,80 54,80 55,80 56,80 57,80 58,80 59,80 60,80 61,80 62,80 63,80 64,80 65,80 66,80 67,80 68,80 69,80 70,80 71,80 72,80 73,80 74,80 75,80 76,80 77,80 78,80 79,80 80,80 81,80 82,80 83,80 84,80 85,80 86,80 87,80 88,80 89,80 90,80 91,80 92,80 93,80 94,80 95,80 96,80 97,80 98,80 99,80 100,80 101,80 102,80 103,80 104,80 105,80 106,80 107,80 108,80 109,80" fill="none" stroke="#7c3cff" stroke-width="3" stroke-linecap="round" stroke-linejoin="round" opacity="0.95">
    <title>2381 g:1</title>
  </polyline>
  <polyline points="104,93 103,93 102,94 102,95 101,95 101,96 100,96 99,97 98,97 97,97 96,97 95,97 94,97 93,97 92,97 91,97 91,96 90,96 89,96 89,95 88,95 88,94 87,94 87,93 87,92 86,92 86,91 86,90 86,89 86,88 86,87 86,86 86,85 86,84 87,84 87,83 88,83 88,82 89,82 90,82 90,81 91,81 92,80 93,80 94,80 95,79 96,79 97,79 97,78 98,78 99,78 100,78 100,77 101,77 102,77 103,77 104,77 105,77 106,77 107,77 108,77 109,77 109,78" fill="none" stroke="#f2e45c" stroke-width="3" stroke-linecap="round" stroke-linejoin="round" opacity="0.95">
    <title>2379 e:1</title>
  </polyline>
</svg>
