<?xml version="1.0" encoding="UTF-8"?>
<svg xmlns="http://www.w3.org/2000/svg" width="100" height="74" viewBox="0 0 100 74">
  <title>particle img3-m76-p3 e:1 l:1 f:1 i:1 d:1</title>
  <metadata>{&quot;entityType&quot;:&quot;particle&quot;,&quot;entityId&quot;:&quot;img3-m76-p3&quot;,&quot;token&quot;:&quot;e:1 l:1 f:1 i:1 d:1&quot;,&quot;signature&quot;:&quot;e:1 l:1 f:1 i:1 d:1&quot;,&quot;imageName&quot;:&quot;page-003.jpg&quot;,&quot;imageId&quot;:3,&quot;bounds&quot;:{&quot;x&quot;:1584,&quot;y&quot;:1566,&quot;w&quot;:100,&quot;h&quot;:74},&quot;atoms&quot;:[{&quot;id&quot;:2275,&quot;token&quot;:&quot;e:1&quot;,&quot;particle_id&quot;:&quot;img3-m76-p3&quot;,&quot;molecule_id&quot;:&quot;img3-m76&quot;,&quot;atom_order&quot;:1},{&quot;id&quot;:2276,&quot;token&quot;:&quot;l:1&quot;,&quot;particle_id&quot;:&quot;img3-m76-p3&quot;,&quot;molecule_id&quot;:&quot;img3-m76&quot;,&quot;atom_order&quot;:2},{&quot;id&quot;:2277,&quot;token&quot;:&quot;f:1&quot;,&quot;particle_id&quot;:&quot;img3-m76-p3&quot;,&quot;molecule_id&quot;:&quot;img3-m76&quot;,&quot;atom_order&quot;:3},{&quot;id&quot;:2278,&quot;token&quot;:&quot;i:1&quot;,&quot;particle_id&quot;:&quot;img3-m76-p3&quot;,&quot;molecule_id&quot;:&quot;img3-m76&quot;,&quot;atom_order&quot;:4},{&quot;id&quot;:2279,&quot;token&quot;:&quot;d:1&quot;,&quot;particle_id&quot;:&quot;img3-m76-p3&quot;,&quot;molecule_id&quot;:&quot;img3-m76&quot;,&quot;atom_order&quot;:5}]}</metadata>
  <rect x="0" y="0" width="100" height="74" fill="#f8f0d8"/>
  <image href="file:///C:/Users/HHHES/AppData/Roaming/com.voynichlab.datasetcreator/images/1/35a70f63-88ab-4986-b441-b78046a10087.jpg" x="-1584" y="-1566" width="2972" height="3766" opacity="0.92"/>
  <rect x="0.5" y="0.5" width="99" height="73" fill="none" stroke="#111827" stroke-width="1" opacity="0.35"/>
  <polyline points="31,48 26,54 24,54 23,54 22,54 21,53 20,53 19,52 19,51 18,51 18,50 17,50 16,49 16,48 16,47 16,46 16,45 16,44 16,43 16,42 17,42 17,41 17,40 17,39 18,39 19,38 19,37 20,36 21,35 22,35 23,35 24,35 24,34 25,34 26,34 27,34 28,34 29,34" fill="none" stroke="#f2e45c" stroke-width="3" stroke-linecap="round" stroke-linejoin="round" opacity="0.95">
    <title>2275 e:1</title>
  </polyline>
  <polyline points="30,34 30,35 31,35 31,36 31,37 32,37 32,38 33,39 33,40 34,40 34,41 34,42 35,42 35,43 36,44 36,45 37,46 37,47 37,48 38,48 38,49 39,50 39,51 40,51 40,52 41,52 42,52 43,52 43,51 44,51 44,50 45,49 46,49 46,48 47,48 48,47 48,46 49,46 50,46 50,45 51,45 52,45 52,44 53,44 53,43 54,43 55,43 55,42 56,42 57,41 58,41 58,40 59,40 60,40 60,39 61,39 61,38" fill="none" stroke="#ff5f1f" stroke-width="3" stroke-linecap="round" stroke-linejoin="round" opacity="0.95">
    <title>2276 l:1</title>
  </polyline>
  <polyline points="59,39 59,40 60,40 60,41 60,42 61,43 61,44 61,45 62,45 62,46 62,47 63,47 63,48 64,49 64,50 65,51 65,52 66,52 66,53 66,54 67,54 67,55 67,56 68,56 68,57 68,58" fill="none" stroke="#00a2ff" stroke-width="3" stroke-linecap="round" stroke-linejoin="round" opacity="0.95">
    <title>2277 f:1</title>
  </polyline>
  <polyline points="69,58 70,57 71,57 72,57 72,56 73,56 73,55 74,55 74,54 75,54 76,54 76,53 77,53 77,52 78,51 78,50 79,50 79,49 80,49 80,48 80,47 81,47 81,46 82,45 82,44 82,43 83,43 83,42 83,41 83,40 83,39 84,39 84,38 84,37 84,36 84,35 84,34 84,33 83,32 83,31 83,30 82,29 82,28 81,28 81,27 80,26 80,25 79,25 79,24 78,24 78,23 77,23 77,22 76,22 76,21" fill="none" stroke="#00ff7f" stroke-width="3" stroke-linecap="round" stroke-linejoin="round" opacity="0.95">
    <title>2278 i:1</title>
  </polyline>
  <polyline points="35,24 36,23 37,23 38,23 38,22 39,22 39,21 40,21 41,20 42,20 43,19 44,19 45,18 46,18 47,18 47,17 48,17 49,17 50,17 51,17 52,17 53,17 53,16 54,16 55,16 56,16 57,16 58,16 59,16 60,16 61,16 62,16 63,16 64,16 65,17 66,17 67,17 68,17 68,18 69,18 70,19 71,19 72,19 72,20 73,20 74,20 74,21 75,21 76,21 76,22 77,22" fill="none" stroke="#ff2d55" stroke-width="3" stroke-linecap="round" stroke-linejoin="round" opacity="0.95">
    <title>2279 d:1</title>
  </polyline>
</svg>
