<?xml version="1.0" encoding="UTF-8"?>
<svg xmlns="http://www.w3.org/2000/svg" width="76" height="101" viewBox="0 0 76 101">
  <title>particle img3-m99-p1 a:1 b:1 c:1 a:1</title>
  <metadata>{&quot;entityType&quot;:&quot;particle&quot;,&quot;entityId&quot;:&quot;img3-m99-p1&quot;,&quot;token&quot;:&quot;a:1 b:1 c:1 a:1&quot;,&quot;signature&quot;:&quot;a:1 b:1 c:1 a:1&quot;,&quot;imageName&quot;:&quot;page-003.jpg&quot;,&quot;imageId&quot;:3,&quot;bounds&quot;:{&quot;x&quot;:1583,&quot;y&quot;:1790,&quot;w&quot;:76,&quot;h&quot;:101},&quot;atoms&quot;:[{&quot;id&quot;:3222,&quot;token&quot;:&quot;a:1&quot;,&quot;particle_id&quot;:&quot;img3-m99-p1&quot;,&quot;molecule_id&quot;:&quot;img3-m99&quot;,&quot;atom_order&quot;:1},{&quot;id&quot;:3215,&quot;token&quot;:&quot;b:1&quot;,&quot;particle_id&quot;:&quot;img3-m99-p1&quot;,&quot;molecule_id&quot;:&quot;img3-m99&quot;,&quot;atom_order&quot;:2},{&quot;id&quot;:3174,&quot;token&quot;:&quot;c:1&quot;,&quot;particle_id&quot;:&quot;img3-m99-p1&quot;,&quot;molecule_id&quot;:&quot;img3-m99&quot;,&quot;atom_order&quot;:3},{&quot;id&quot;:3223,&quot;token&quot;:&quot;a:1&quot;,&quot;particle_id&quot;:&quot;img3-m99-p1&quot;,&quot;molecule_id&quot;:&quot;img3-m99&quot;,&quot;atom_order&quot;:4}]}</metadata>
  <rect x="0" y="0" width="76" height="101" fill="#f8f0d8"/>
  <image href="file:///C:/Users/HHHES/AppData/Roaming/com.voynichlab.datasetcreator/images/1/35a70f63-88ab-4986-b441-b78046a10087.jpg" x="-1583" y="-1790" width="2972" height="3766" opacity="0.92"/>
  <rect x="0.5" y="0.5" width="75" height="100" fill="none" stroke="#111827" stroke-width="1" opacity="0.35"/>
  <polyline points="19,31 19,32 19,33 19,34 19,35 19,36 19,37 19,38 19,39 19,40 19,41 19,42 19,43 19,44 19,45 19,46 19,47 19,48 19,49 18,49 18,50 18,51 18,52 18,53 18,54 18,55 18,56 18,57 18,58 18,59 18,60 18,61 18,62 18,63 18,64 18,65 17,66 17,67 17,68 17,69 17,70 17,71 17,72 17,73 17,74 16,75 16,76 16,77 16,78 16,79 16,80 16,81 16,82 16,83 16,84 16,85 16,84 17,83" fill="none" stroke="#00f0b5" stroke-width="3" stroke-linecap="round" stroke-linejoin="round" opacity="0.95">
    <title>3222 a:1</title>
  </polyline>
  <polyline points="19,32 20,33 20,34 20,35 21,35 21,36 22,36 22,37 23,37 24,37 24,38 25,38 26,38 27,38 28,38 28,39 29,39 30,39 31,39 32,39 33,39 34,39 35,39 36,39 37,39 38,39 39,39 40,38 41,38 42,38 43,38 43,37 44,37 45,37 46,36 47,36 47,35 48,35 49,35 49,34 50,34 50,33" fill="none" stroke="#2f7df6" stroke-width="3" stroke-linecap="round" stroke-linejoin="round" opacity="0.95">
    <title>3215 b:1</title>
  </polyline>
  <polyline points="54,32 55,32 55,31 56,31 57,31 57,30 58,30 58,29 59,29 59,28 60,27 60,26 60,25 60,24 60,23 60,22 60,21 60,20 60,19 60,18 59,18 58,18 58,17 57,17 56,17 55,17 54,16 53,16 52,16 51,16 50,16 49,16 48,16 47,16 46,16 45,16 44,16 44,17 43,17 42,18 41,18 41,19 40,19 39,19 39,20 38,20 38,21 37,21 37,22 36,23 36,24 35,24 35,25 35,26 35,27 35,28 35,29 35,30 34,30 34,31 35,31 35,32 36,32 36,33 37,33 37,34 38,34 39,34 40,34 41,34 42,34 42,35 43,35 44,35 45,35 46,35 47,35 48,35 49,35 50,35 51,35 52,35 52,34 53,34 53,33 54,33 54,32 55,32 55,31" fill="none" stroke="#8aff00" stroke-width="3" stroke-linecap="round" stroke-linejoin="round" opacity="0.95">
    <title>3174 c:1</title>
  </polyline>
  <polyline points="35,27 35,28 35,29 35,30 35,31 35,32 35,33 35,34 35,35 35,36 35,37 35,38 36,38 36,39 36,40 36,41 36,42 36,43 36,44 36,45 36,46 36,47 36,49 36,50 36,51 36,52 36,53 36,54 36,55 35,56 35,57 35,58 35,59 35,60 35,61 34,62 34,63 34,64 34,65 33,66 33,67 33,68 33,69 33,70 33,71 33,72 33,73 33,74 33,75 33,76 33,77 33,78 34,79 34,80" fill="none" stroke="#00f0b5" stroke-width="3" stroke-linecap="round" stroke-linejoin="round" opacity="0.95">
    <title>3223 a:1</title>
  </polyline>
</svg>
