<?xml version="1.0" encoding="UTF-8"?>
<svg xmlns="http://www.w3.org/2000/svg" width="102" height="103" viewBox="0 0 102 103">
  <title>particle img3-m29-p3 f:1 i:1 d:1</title>
  <metadata>{&quot;entityType&quot;:&quot;particle&quot;,&quot;entityId&quot;:&quot;img3-m29-p3&quot;,&quot;token&quot;:&quot;f:1 i:1 d:1&quot;,&quot;signature&quot;:&quot;f:1 i:1 d:1&quot;,&quot;imageName&quot;:&quot;page-003.jpg&quot;,&quot;imageId&quot;:3,&quot;bounds&quot;:{&quot;x&quot;:1584,&quot;y&quot;:740,&quot;w&quot;:102,&quot;h&quot;:103},&quot;atoms&quot;:[{&quot;id&quot;:1561,&quot;token&quot;:&quot;f:1&quot;,&quot;particle_id&quot;:&quot;img3-m29-p3&quot;,&quot;molecule_id&quot;:&quot;img3-m29&quot;,&quot;atom_order&quot;:1},{&quot;id&quot;:1562,&quot;token&quot;:&quot;i:1&quot;,&quot;particle_id&quot;:&quot;img3-m29-p3&quot;,&quot;molecule_id&quot;:&quot;img3-m29&quot;,&quot;atom_order&quot;:2},{&quot;id&quot;:1563,&quot;token&quot;:&quot;d:1&quot;,&quot;particle_id&quot;:&quot;img3-m29-p3&quot;,&quot;molecule_id&quot;:&quot;img3-m29&quot;,&quot;atom_order&quot;:3}]}</metadata>
  <rect x="0" y="0" width="102" height="103" fill="#f8f0d8"/>
  <image href="file:///C:/Users/HHHES/AppData/Roaming/com.voynichlab.datasetcreator/images/1/35a70f63-88ab-4986-b441-b78046a10087.jpg" x="-1584" y="-740" width="2972" height="3766" opacity="0.92"/>
  <rect x="0.5" y="0.5" width="101" height="102" fill="none" stroke="#111827" stroke-width="1" opacity="0.35"/>
  <polyline points="63,66 63,67 63,68 64,68 64,69 64,70 65,70 65,71 66,72 66,73 67,73 67,74 68,75 68,76 69,76 69,77 70,77 70,78 71,78 71,79 71,80 72,80 72,81 72,82 73,82 73,83 74,83 74,84 75,85 75,86 76,86 76,87" fill="none" stroke="#00a2ff" stroke-width="3" stroke-linecap="round" stroke-linejoin="round" opacity="0.95">
    <title>1561 f:1</title>
  </polyline>
  <polyline points="63,67 64,67 65,67 65,66 66,66 67,66 67,65 68,65 69,65 69,64 70,64 71,64 71,63 72,63 73,63 74,62 75,62 76,61 77,61 77,60 78,60 78,59 79,59 80,58 80,57 81,57 81,56 82,56 82,55 83,55 83,54 83,53 84,53 84,52 85,51 85,50 86,49 86,48 86,47 86,46 86,45 86,44 86,43 86,42 86,41 86,40 86,39 85,39 85,38 85,37 84,36 84,35 84,34 83,34 83,33 82,32 82,31 81,31 81,30 80,30 80,29 79,29 79,28 78,28 78,27 77,27" fill="none" stroke="#00ff7f" stroke-width="3" stroke-linecap="round" stroke-linejoin="round" opacity="0.95">
    <title>1562 i:1</title>
  </polyline>
  <polyline points="16,20 17,20 17,19 18,19 19,19 20,19 21,18 22,18 23,18 24,18 24,17 25,17 26,17 27,17 28,17 29,17 30,17 31,17 32,17 33,17 34,17 35,16 36,16 37,16 38,16 39,16 40,16 41,16 42,16 43,16 44,16 45,16 46,16 47,16 48,16 49,16 50,16 51,16 52,16 52,17 53,17 54,17 55,17 56,17 57,17 58,18 59,18 60,18 61,18 62,18 62,19 63,19 64,19 65,19 65,20 66,20 67,20 68,20 68,21 69,21 69,22 70,22 71,22 71,23 72,23 73,23 73,24 74,24 75,24 75,25 76,25 76,26 77,26 77,27 78,27" fill="none" stroke="#ff2d55" stroke-width="3" stroke-linecap="round" stroke-linejoin="round" opacity="0.95">
    <title>1563 d:1</title>
  </polyline>
</svg>
