<?xml version="1.0" encoding="UTF-8"?>
<svg xmlns="http://www.w3.org/2000/svg" width="56" height="74" viewBox="0 0 56 74">
  <title>particle img3-m68-p3 e:1 c:1 h:2</title>
  <metadata>{&quot;entityType&quot;:&quot;particle&quot;,&quot;entityId&quot;:&quot;img3-m68-p3&quot;,&quot;token&quot;:&quot;e:1 c:1 h:2&quot;,&quot;signature&quot;:&quot;e:1 c:1 h:2&quot;,&quot;imageName&quot;:&quot;page-003.jpg&quot;,&quot;imageId&quot;:3,&quot;bounds&quot;:{&quot;x&quot;:2166,&quot;y&quot;:1485,&quot;w&quot;:56,&quot;h&quot;:74},&quot;atoms&quot;:[{&quot;id&quot;:2214,&quot;token&quot;:&quot;e:1&quot;,&quot;particle_id&quot;:&quot;img3-m68-p3&quot;,&quot;molecule_id&quot;:&quot;img3-m68&quot;,&quot;atom_order&quot;:1},{&quot;id&quot;:2216,&quot;token&quot;:&quot;c:1&quot;,&quot;particle_id&quot;:&quot;img3-m68-p3&quot;,&quot;molecule_id&quot;:&quot;img3-m68&quot;,&quot;atom_order&quot;:2},{&quot;id&quot;:2215,&quot;token&quot;:&quot;h:2&quot;,&quot;particle_id&quot;:&quot;img3-m68-p3&quot;,&quot;molecule_id&quot;:&quot;img3-m68&quot;,&quot;atom_order&quot;:3}]}</metadata>
  <rect x="0" y="0" width="56" height="74" fill="#f8f0d8"/>
  <image href="file:///C:/Users/HHHES/AppData/Roaming/com.voynichlab.datasetcreator/images/1/35a70f63-88ab-4986-b441-b78046a10087.jpg" x="-2166" y="-1485" width="2972" height="3766" opacity="0.92"/>
  <rect x="0.5" y="0.5" width="55" height="73" fill="none" stroke="#111827" stroke-width="1" opacity="0.35"/>
  <polyline points="26,58 25,58 24,58 23,58 23,57 22,57 21,57 20,56 19,56 18,56 18,55 17,54 17,53 16,53 16,52 16,51 16,50 16,49 16,48 16,47 16,46 16,45 17,45 17,44 17,43 18,43 18,42 19,41 19,40 20,40 21,40 21,39 22,39 22,38 23,38 24,37 25,37 26,37 26,36 27,36 28,36 29,36 29,35" fill="none" stroke="#f2e45c" stroke-width="3" stroke-linecap="round" stroke-linejoin="round" opacity="0.95">
    <title>2214 e:1</title>
  </polyline>
  <polyline points="19,20 20,20 20,19 21,19 22,18 23,18 23,17 24,17 25,17 26,17 26,16 27,16 28,16 29,16 30,16 31,16 32,16 33,16 34,16 35,16 35,17 36,17 37,17 37,18 38,18 38,19 39,19 39,20 39,21 40,21 40,22 40,23 40,24 40,25 40,26 40,27 39,27 39,28 39,29 38,29 38,30 37,30 37,31 36,31 36,32 35,32 35,33 34,33 33,34 32,34 31,35 30,35 29,35 28,35 27,35 27,34 26,34 25,34 25,33 24,33 23,33 23,32 22,32 22,31 21,31 21,30 20,30 20,29 20,28 19,28 19,27 19,26 19,25 19,24 19,23 19,22 19,21 19,20 20,20 20,19" fill="none" stroke="#8aff00" stroke-width="3" stroke-linecap="round" stroke-linejoin="round" opacity="0.95">
    <title>2216 c:1</title>
  </polyline>
  <polyline points="25,58 26,58 26,57 27,57 28,57 28,56 29,56 29,55 30,55 31,55 31,54 32,54 32,53 33,53 34,53 34,52 35,52 35,51 36,50 36,49 37,49 37,48 37,47 37,46 37,45 37,44 36,44 36,43 35,43 35,42 34,42 34,41 34,40 33,40 33,39 32,39 32,38 31,38 30,37 29,36 28,36 28,35 27,35 27,34 26,34 25,34 25,33 24,33 23,32 22,32 22,31 21,31 21,30 20,30 20,29 19,29 19,28 18,27 18,26 17,26 17,25 17,24 17,23 17,22 18,21 18,20 19,20" fill="none" stroke="#ff8c00" stroke-width="3" stroke-linecap="round" stroke-linejoin="round" opacity="0.95">
    <title>2215 h:2</title>
  </polyline>
</svg>
