<?xml version="1.0" encoding="UTF-8"?>
<svg xmlns="http://www.w3.org/2000/svg" width="59" height="77" viewBox="0 0 59 77">
  <title>particle img3-m35-p6 e:1 i:1 d:1</title>
  <metadata>{&quot;entityType&quot;:&quot;particle&quot;,&quot;entityId&quot;:&quot;img3-m35-p6&quot;,&quot;token&quot;:&quot;e:1 i:1 d:1&quot;,&quot;signature&quot;:&quot;e:1 i:1 d:1&quot;,&quot;imageName&quot;:&quot;page-003.jpg&quot;,&quot;imageId&quot;:3,&quot;bounds&quot;:{&quot;x&quot;:1147,&quot;y&quot;:766,&quot;w&quot;:59,&quot;h&quot;:77},&quot;atoms&quot;:[{&quot;id&quot;:1526,&quot;token&quot;:&quot;e:1&quot;,&quot;particle_id&quot;:&quot;img3-m35-p6&quot;,&quot;molecule_id&quot;:&quot;img3-m35&quot;,&quot;atom_order&quot;:1},{&quot;id&quot;:1527,&quot;token&quot;:&quot;i:1&quot;,&quot;particle_id&quot;:&quot;img3-m35-p6&quot;,&quot;molecule_id&quot;:&quot;img3-m35&quot;,&quot;atom_order&quot;:2},{&quot;id&quot;:1528,&quot;token&quot;:&quot;d:1&quot;,&quot;particle_id&quot;:&quot;img3-m35-p6&quot;,&quot;molecule_id&quot;:&quot;img3-m35&quot;,&quot;atom_order&quot;:3}]}</metadata>
  <rect x="0" y="0" width="59" height="77" fill="#f8f0d8"/>
  <image href="file:///C:/Users/HHHES/AppData/Roaming/com.voynichlab.datasetcreator/images/1/35a70f63-88ab-4986-b441-b78046a10087.jpg" x="-1147" y="-766" width="2972" height="3766" opacity="0.92"/>
  <rect x="0.5" y="0.5" width="58" height="76" fill="none" stroke="#111827" stroke-width="1" opacity="0.35"/>
  <polyline points="33,57 33,58 32,58 32,59 31,59 30,60 29,60 28,61 27,61 26,61 25,61 24,61 23,61 22,61 21,61 21,60 20,60 19,59 18,58 17,57 17,56 17,55 16,55 16,54 16,53 16,52 16,51 16,50 17,49 17,48 18,47 18,46 19,46 20,46 20,45 21,45 22,45 23,45 23,44 24,44 25,44 26,44 27,45" fill="none" stroke="#f2e45c" stroke-width="3" stroke-linecap="round" stroke-linejoin="round" opacity="0.95">
    <title>1526 e:1</title>
  </polyline>
  <polyline points="27,45 28,45 29,45 29,44 30,44 31,44 31,43 32,43 33,42 34,42 34,41 35,41 36,41 36,40 37,40 37,39 38,39 39,38 40,38 40,37 41,36 41,35 42,35 42,34 42,33 42,32 43,32 43,31 43,30 43,29 43,28 43,27 43,26 43,25 42,25 42,24 42,23 41,23 41,22 41,21 40,21 40,20 39,20 38,19" fill="none" stroke="#00ff7f" stroke-width="3" stroke-linecap="round" stroke-linejoin="round" opacity="0.95">
    <title>1527 i:1</title>
  </polyline>
  <polyline points="18,25 19,24 20,23 21,22 21,21 22,21 23,20 24,20 24,19 25,19 25,18 26,18 27,18 27,17 28,17 29,17 30,17 30,16 31,16 32,16 33,16 34,16 35,16 36,16 36,17 37,17 37,18 38,18 38,19 39,19" fill="none" stroke="#ff2d55" stroke-width="3" stroke-linecap="round" stroke-linejoin="round" opacity="0.95">
    <title>1528 d:1</title>
  </polyline>
</svg>
