<?xml version="1.0" encoding="UTF-8"?>
<svg xmlns="http://www.w3.org/2000/svg" width="82" height="92" viewBox="0 0 82 92">
  <title>particle img3-m192-p5 f:1 i:1 d:1</title>
  <metadata>{&quot;entityType&quot;:&quot;particle&quot;,&quot;entityId&quot;:&quot;img3-m192-p5&quot;,&quot;token&quot;:&quot;f:1 i:1 d:1&quot;,&quot;signature&quot;:&quot;f:1 i:1 d:1&quot;,&quot;imageName&quot;:&quot;page-003.jpg&quot;,&quot;imageId&quot;:3,&quot;bounds&quot;:{&quot;x&quot;:2213,&quot;y&quot;:2882,&quot;w&quot;:82,&quot;h&quot;:92},&quot;atoms&quot;:[{&quot;id&quot;:4100,&quot;token&quot;:&quot;f:1&quot;,&quot;particle_id&quot;:&quot;img3-m192-p5&quot;,&quot;molecule_id&quot;:&quot;img3-m192&quot;,&quot;atom_order&quot;:1},{&quot;id&quot;:4103,&quot;token&quot;:&quot;i:1&quot;,&quot;particle_id&quot;:&quot;img3-m192-p5&quot;,&quot;molecule_id&quot;:&quot;img3-m192&quot;,&quot;atom_order&quot;:2},{&quot;id&quot;:4105,&quot;token&quot;:&quot;d:1&quot;,&quot;particle_id&quot;:&quot;img3-m192-p5&quot;,&quot;molecule_id&quot;:&quot;img3-m192&quot;,&quot;atom_order&quot;:3}]}</metadata>
  <rect x="0" y="0" width="82" height="92" fill="#f8f0d8"/>
  <image href="file:///C:/Users/HHHES/AppData/Roaming/com.voynichlab.datasetcreator/images/1/35a70f63-88ab-4986-b441-b78046a10087.jpg" x="-2213" y="-2882" width="2972" height="3766" opacity="0.92"/>
  <rect x="0.5" y="0.5" width="81" height="91" fill="none" stroke="#111827" stroke-width="1" opacity="0.35"/>
  <polyline points="23,55 23,56 23,57 24,57 24,58 24,59 25,59 25,60 26,61 26,62 27,62 27,63 28,64 28,65 29,65 29,66 30,66 30,67 31,67 31,68 31,69 32,69 32,70 32,71 33,71 33,72 34,72 34,73 35,74 35,75 36,75 36,76" fill="none" stroke="#00a2ff" stroke-width="3" stroke-linecap="round" stroke-linejoin="round" opacity="0.95">
    <title>4100 f:1</title>
  </polyline>
  <polyline points="23,57 24,57 25,57 26,57 27,57 28,57 29,57 30,57 31,57 32,56 33,56 34,56 35,56 36,55 37,55 38,55 39,55 39,54 40,54 41,54 42,54 43,53 44,53 45,52 47,52 48,51 49,51 49,50 50,50 51,50 51,49 52,48 53,48 54,47 55,46 56,45 57,45 57,44 58,43 59,43 60,42 60,41 61,41 61,40 62,39 62,38 62,37 63,37 63,36 63,35 64,35 64,34 64,33 64,32 64,31 65,31 65,30 65,29 65,28 65,27 65,26 64,25" fill="none" stroke="#00ff7f" stroke-width="3" stroke-linecap="round" stroke-linejoin="round" opacity="0.95">
    <title>4103 i:1</title>
  </polyline>
  <polyline points="16,21 17,20 18,20 18,19 19,19 20,18 21,18 22,18 22,17 23,17 24,17 25,17 26,17 27,17 29,16 31,16 32,16 34,16 36,16 37,16 39,16 41,16 43,17 46,17 48,18 49,18 50,18 51,18 52,19 53,19 54,19 55,19 55,20 56,20 57,20 58,21 59,21 59,22 60,22 61,22 62,23 63,23 63,24 64,24 64,25 65,25 65,26 65,27 66,27 66,28" fill="none" stroke="#ff2d55" stroke-width="3" stroke-linecap="round" stroke-linejoin="round" opacity="0.95">
    <title>4105 d:1</title>
  </polyline>
</svg>
