<?xml version="1.0" encoding="UTF-8"?>
<svg xmlns="http://www.w3.org/2000/svg" width="64" height="79" viewBox="0 0 64 79">
  <title>particle img3-m139-p1 e:1 c:1 h:2</title>
  <metadata>{&quot;entityType&quot;:&quot;particle&quot;,&quot;entityId&quot;:&quot;img3-m139-p1&quot;,&quot;token&quot;:&quot;e:1 c:1 h:2&quot;,&quot;signature&quot;:&quot;e:1 c:1 h:2&quot;,&quot;imageName&quot;:&quot;page-003.jpg&quot;,&quot;imageId&quot;:3,&quot;bounds&quot;:{&quot;x&quot;:2133,&quot;y&quot;:2169,&quot;w&quot;:64,&quot;h&quot;:79},&quot;atoms&quot;:[{&quot;id&quot;:3518,&quot;token&quot;:&quot;e:1&quot;,&quot;particle_id&quot;:&quot;img3-m139-p1&quot;,&quot;molecule_id&quot;:&quot;img3-m139&quot;,&quot;atom_order&quot;:1},{&quot;id&quot;:3548,&quot;token&quot;:&quot;c:1&quot;,&quot;particle_id&quot;:&quot;img3-m139-p1&quot;,&quot;molecule_id&quot;:&quot;img3-m139&quot;,&quot;atom_order&quot;:2},{&quot;id&quot;:3598,&quot;token&quot;:&quot;h:2&quot;,&quot;particle_id&quot;:&quot;img3-m139-p1&quot;,&quot;molecule_id&quot;:&quot;img3-m139&quot;,&quot;atom_order&quot;:3}]}</metadata>
  <rect x="0" y="0" width="64" height="79" fill="#f8f0d8"/>
  <image href="file:///C:/Users/HHHES/AppData/Roaming/com.voynichlab.datasetcreator/images/1/35a70f63-88ab-4986-b441-b78046a10087.jpg" x="-2133" y="-2169" width="2972" height="3766" opacity="0.92"/>
  <rect x="0.5" y="0.5" width="63" height="78" fill="none" stroke="#111827" stroke-width="1" opacity="0.35"/>
  <polyline points="31,60 31,61 30,61 30,62 29,62 28,62 28,63 27,63 26,63 25,63 24,63 23,63 22,63 21,63 21,62 20,62 19,62 18,62 18,61 17,61 16,61 16,60 16,59 16,58 16,57 16,56 16,55 16,54 17,54 17,53 17,52 17,51 18,51 18,50 18,49 19,49 19,48 19,47 20,47 21,47 21,46 22,46 22,45 23,45 24,45 24,44 25,44 26,44 27,44 27,43" fill="none" stroke="#f2e45c" stroke-width="3" stroke-linecap="round" stroke-linejoin="round" opacity="0.95">
    <title>3518 e:1</title>
  </polyline>
  <polyline points="39,39 40,39 41,39 41,38 42,38 43,37 44,36 45,36 45,35 45,34 46,34 46,33 47,32 47,31 47,30 47,29 47,28 48,28 48,27 48,26 48,25 48,24 47,23 47,22 47,21 47,20 46,20 46,19 45,19 45,18 44,18 43,18 42,18 42,17 41,17 40,17 39,17 38,17 38,16 38,17 37,17 36,17 35,17 35,18 34,18 33,18 32,19 31,19 31,20 30,20 30,21 29,22 29,23 28,23 28,24 28,25 28,26 28,27 28,28 28,29 28,30 28,31 28,32 29,32 29,33 29,34 30,34 30,35 30,36 31,36 31,37 32,37 32,38 33,38 34,38 34,39 35,39 36,39 37,39 38,39 39,39" fill="none" stroke="#8aff00" stroke-width="3" stroke-linecap="round" stroke-linejoin="round" opacity="0.95">
    <title>3548 c:1</title>
  </polyline>
  <polyline points="31,61 31,60 32,60 32,59 32,58 33,58 33,57 33,56 33,55 33,54 33,53 33,52 33,51 33,50 33,49 33,48 32,48 32,47 32,46 31,45 31,44 31,43 30,43 30,42 29,41 29,40 29,39 28,38 28,37 28,36 27,36 27,35 27,34 27,33 26,33 26,32 26,31 26,30 26,29 26,28 26,27 27,27 27,26 27,25 28,25 28,24 28,23 29,23" fill="none" stroke="#ff8c00" stroke-width="3" stroke-linecap="round" stroke-linejoin="round" opacity="0.95">
    <title>3598 h:2</title>
  </polyline>
</svg>
