<?xml version="1.0" encoding="UTF-8"?>
<svg xmlns="http://www.w3.org/2000/svg" width="86" height="50" viewBox="0 0 86 50">
  <title>particle img3-m73-p3 e:1 g:1 e:1</title>
  <metadata>{&quot;entityType&quot;:&quot;particle&quot;,&quot;entityId&quot;:&quot;img3-m73-p3&quot;,&quot;token&quot;:&quot;e:1 g:1 e:1&quot;,&quot;signature&quot;:&quot;e:1 g:1 e:1&quot;,&quot;imageName&quot;:&quot;page-003.jpg&quot;,&quot;imageId&quot;:3,&quot;bounds&quot;:{&quot;x&quot;:814,&quot;y&quot;:1593,&quot;w&quot;:86,&quot;h&quot;:50},&quot;atoms&quot;:[{&quot;id&quot;:2240,&quot;token&quot;:&quot;e:1&quot;,&quot;particle_id&quot;:&quot;img3-m73-p3&quot;,&quot;molecule_id&quot;:&quot;img3-m73&quot;,&quot;atom_order&quot;:1},{&quot;id&quot;:2242,&quot;token&quot;:&quot;g:1&quot;,&quot;particle_id&quot;:&quot;img3-m73-p3&quot;,&quot;molecule_id&quot;:&quot;img3-m73&quot;,&quot;atom_order&quot;:2},{&quot;id&quot;:2241,&quot;token&quot;:&quot;e:1&quot;,&quot;particle_id&quot;:&quot;img3-m73-p3&quot;,&quot;molecule_id&quot;:&quot;img3-m73&quot;,&quot;atom_order&quot;:3}]}</metadata>
  <rect x="0" y="0" width="86" height="50" fill="#f8f0d8"/>
  <image href="file:///C:/Users/HHHES/AppData/Roaming/com.voynichlab.datasetcreator/images/1/35a70f63-88ab-4986-b441-b78046a10087.jpg" x="-814" y="-1593" width="2972" height="3766" opacity="0.92"/>
  <rect x="0.5" y="0.5" width="85" height="49" fill="none" stroke="#111827" stroke-width="1" opacity="0.35"/>
  <polyline points="30,32 29,32 29,33 28,33 27,33 27,34 26,34 25,34 24,34 23,34 22,34 21,34 20,34 20,33 19,33 18,33 18,32 17,32 17,31 16,30 16,29 16,28 16,27 16,26 16,25 16,24 16,23 17,23 17,22 17,21 18,21 18,20 19,20 19,19 20,19 20,18 21,18 22,18 23,18 24,18 25,18 26,18" fill="none" stroke="#f2e45c" stroke-width="3" stroke-linecap="round" stroke-linejoin="round" opacity="0.95">
    <title>2240 e:1</title>
  </polyline>
  <polyline points="25,18 26,18 27,18 28,17 29,17 30,17 31,17 32,17 33,17 34,17 35,17 36,17 37,17 38,17 39,17 40,17 41,16 42,16 43,16 44,16 45,16 46,16 47,16 48,16 49,16 50,16 51,16 52,16 53,16 54,16 55,16 56,16 57,16 58,16 59,16 60,16 61,16 62,16 63,16 64,16 65,16 66,16 67,16 68,16 69,16 70,16" fill="none" stroke="#7c3cff" stroke-width="3" stroke-linecap="round" stroke-linejoin="round" opacity="0.95">
    <title>2242 g:1</title>
  </polyline>
  <polyline points="64,32 58,34 57,34 56,34 55,34 54,34 53,33 52,33 51,33 51,32 50,32 50,31 50,30 49,30 49,29 49,28 49,27 49,26 50,26 50,25 50,24 51,23 51,22 52,22 52,21 53,21 54,20 55,19 56,19 57,19 57,18 58,18 59,18 60,17 61,17 62,17 63,17 64,17 64,16 65,16 66,16 67,16 68,16 69,16 70,16" fill="none" stroke="#f2e45c" stroke-width="3" stroke-linecap="round" stroke-linejoin="round" opacity="0.95">
    <title>2241 e:1</title>
  </polyline>
</svg>
