<?xml version="1.0" encoding="UTF-8"?>
<svg xmlns="http://www.w3.org/2000/svg" width="101" height="69" viewBox="0 0 101 69">
  <title>particle img3-m174-p3 k:1 f:1 i:1</title>
  <metadata>{&quot;entityType&quot;:&quot;particle&quot;,&quot;entityId&quot;:&quot;img3-m174-p3&quot;,&quot;token&quot;:&quot;k:1 f:1 i:1&quot;,&quot;signature&quot;:&quot;k:1 f:1 i:1&quot;,&quot;imageName&quot;:&quot;page-003.jpg&quot;,&quot;imageId&quot;:3,&quot;bounds&quot;:{&quot;x&quot;:1926,&quot;y&quot;:2715,&quot;w&quot;:101,&quot;h&quot;:69},&quot;atoms&quot;:[{&quot;id&quot;:3975,&quot;token&quot;:&quot;k:1&quot;,&quot;particle_id&quot;:&quot;img3-m174-p3&quot;,&quot;molecule_id&quot;:&quot;img3-m174&quot;,&quot;atom_order&quot;:1},{&quot;id&quot;:3968,&quot;token&quot;:&quot;f:1&quot;,&quot;particle_id&quot;:&quot;img3-m174-p3&quot;,&quot;molecule_id&quot;:&quot;img3-m174&quot;,&quot;atom_order&quot;:2},{&quot;id&quot;:3980,&quot;token&quot;:&quot;i:1&quot;,&quot;particle_id&quot;:&quot;img3-m174-p3&quot;,&quot;molecule_id&quot;:&quot;img3-m174&quot;,&quot;atom_order&quot;:3}]}</metadata>
  <rect x="0" y="0" width="101" height="69" fill="#f8f0d8"/>
  <image href="file:///C:/Users/HHHES/AppData/Roaming/com.voynichlab.datasetcreator/images/1/35a70f63-88ab-4986-b441-b78046a10087.jpg" x="-1926" y="-2715" width="2972" height="3766" opacity="0.92"/>
  <rect x="0.5" y="0.5" width="100" height="68" fill="none" stroke="#111827" stroke-width="1" opacity="0.35"/>
  <polyline points="16,24 16,25 17,25 17,26 17,27 18,27 18,28 19,29 19,30 20,30 20,31 21,31 21,32 22,32 22,33 23,34 23,35 24,35 24,36 24,37 25,37 25,38 26,39 26,40 27,40 27,41 28,42 28,43 29,43 29,44 30,45 30,46 31,46 31,47 32,47 32,48 32,49 33,49 34,48 34,47 35,47 35,46 36,46 36,45 37,44 37,43 38,43 38,42 39,41 39,40 40,39 40,38 41,38 41,37 41,36 42,36 42,35 43,34 43,33 44,32 44,31 44,30 45,30 45,29 45,28 45,29 45,30 45,31 45,32 45,33 46,33 46,34 46,35 46,36 47,37 47,38 47,39 47,40 48,40 48,41 48,42 48,43 48,44 49,44 49,45 49,46 50,46 50,47 50,48 51,48 51,49 52,49 52,50 52,51 53,51 53,52 53,51 54,51 54,50 54,49 55,48 55,47 56,46 56,45 57,45 57,44 57,43 58,43 58,42 59,41 60,40 60,39 61,39 61,38 61,37 62,37 62,36 63,35 63,34 64,34 64,33 63,34" fill="none" stroke="#ffffff" stroke-width="3" stroke-linecap="round" stroke-linejoin="round" opacity="0.95">
    <title>3975 k:1</title>
  </polyline>
  <polyline points="63,32 63,33 63,34 64,34 64,35 64,36 65,36 65,37 66,38 66,39 67,39 67,40 68,41 68,42 69,42 69,43 70,43 70,44 71,44 71,45 71,46 72,46 72,47 72,48 73,48 73,49 74,49 74,50 75,51 75,52 76,52 76,53" fill="none" stroke="#00a2ff" stroke-width="3" stroke-linecap="round" stroke-linejoin="round" opacity="0.95">
    <title>3968 f:1</title>
  </polyline>
  <polyline points="76,52 77,52 78,52 78,51 79,51 80,50 81,49 81,48 82,47 82,46 82,45 83,45 83,44 83,43 84,43 84,42 84,41 85,41 85,40 85,39 85,38 85,37 85,36 85,35 85,34 85,33 85,32 85,31 85,30 85,29 84,29 84,28 84,27 83,26 83,25 83,24 82,24 81,23 81,22 80,22 80,21 80,20 79,20 79,19 78,18 78,17 77,17 76,17 76,16 75,16" fill="none" stroke="#00ff7f" stroke-width="3" stroke-linecap="round" stroke-linejoin="round" opacity="0.95">
    <title>3980 i:1</title>
  </polyline>
</svg>
