<?xml version="1.0" encoding="UTF-8"?>
<svg xmlns="http://www.w3.org/2000/svg" width="92" height="109" viewBox="0 0 92 109">
  <title>particle img3-m127-p1 a:1 b:1 c:1 a:1</title>
  <metadata>{&quot;entityType&quot;:&quot;particle&quot;,&quot;entityId&quot;:&quot;img3-m127-p1&quot;,&quot;token&quot;:&quot;a:1 b:1 c:1 a:1&quot;,&quot;signature&quot;:&quot;a:1 b:1 c:1 a:1&quot;,&quot;imageName&quot;:&quot;page-003.jpg&quot;,&quot;imageId&quot;:3,&quot;bounds&quot;:{&quot;x&quot;:1019,&quot;y&quot;:2026,&quot;w&quot;:92,&quot;h&quot;:109},&quot;atoms&quot;:[{&quot;id&quot;:3447,&quot;token&quot;:&quot;a:1&quot;,&quot;particle_id&quot;:&quot;img3-m127-p1&quot;,&quot;molecule_id&quot;:&quot;img3-m127&quot;,&quot;atom_order&quot;:1},{&quot;id&quot;:3431,&quot;token&quot;:&quot;b:1&quot;,&quot;particle_id&quot;:&quot;img3-m127-p1&quot;,&quot;molecule_id&quot;:&quot;img3-m127&quot;,&quot;atom_order&quot;:2},{&quot;id&quot;:3438,&quot;token&quot;:&quot;c:1&quot;,&quot;particle_id&quot;:&quot;img3-m127-p1&quot;,&quot;molecule_id&quot;:&quot;img3-m127&quot;,&quot;atom_order&quot;:3},{&quot;id&quot;:3448,&quot;token&quot;:&quot;a:1&quot;,&quot;particle_id&quot;:&quot;img3-m127-p1&quot;,&quot;molecule_id&quot;:&quot;img3-m127&quot;,&quot;atom_order&quot;:4}]}</metadata>
  <rect x="0" y="0" width="92" height="109" fill="#f8f0d8"/>
  <image href="file:///C:/Users/HHHES/AppData/Roaming/com.voynichlab.datasetcreator/images/1/35a70f63-88ab-4986-b441-b78046a10087.jpg" x="-1019" y="-2026" width="2972" height="3766" opacity="0.92"/>
  <rect x="0.5" y="0.5" width="91" height="108" fill="none" stroke="#111827" stroke-width="1" opacity="0.35"/>
  <polyline points="16,27 16,28 16,29 17,30 17,31 17,32 17,33 17,34 17,35 17,36 17,37 17,38 17,39 17,40 18,41 18,42 18,44 18,46 18,47 18,48 18,49 18,50 18,51 18,52 18,54 18,55 18,56 18,57 18,58 18,59 18,60 18,61 18,62 18,63 18,64 18,65 18,67 18,68 18,69 18,70 18,71 18,73 18,74 17,76 17,77 17,78 17,79 17,80 17,81 17,82 17,83 17,84 17,85 17,86 17,87 16,89 16,90 16,91 17,91 17,90 17,89" fill="none" stroke="#00f0b5" stroke-width="3" stroke-linecap="round" stroke-linejoin="round" opacity="0.95">
    <title>3447 a:1</title>
  </polyline>
  <polyline points="16,27 17,28 18,28 18,29 19,30 20,30 21,31 22,32 23,32 24,32 25,33 26,33 27,33 28,33 29,33 29,34 30,34 31,34 32,34 34,34 34,35 35,35 36,35 37,35 38,35 38,36 39,36 40,36 41,36 42,36 43,36 44,36 45,36 46,36 47,36 48,36 49,36 50,36 51,36 52,36 53,36 54,36 55,36 56,36 56,35 57,35 58,35 59,35 59,34 60,34 61,34 62,33 63,33 64,33 64,32 65,32 65,31 66,31 67,31 67,30 68,30 69,29 70,29 70,28 71,28 72,28 72,27 73,27" fill="none" stroke="#2f7df6" stroke-width="3" stroke-linecap="round" stroke-linejoin="round" opacity="0.95">
    <title>3431 b:1</title>
  </polyline>
  <polyline points="73,27 74,27 75,27 75,26 76,25 76,24 76,23 76,22 76,21 75,20 75,19 74,19 74,18 73,18 72,18 71,17 70,17 69,17 68,17 66,16 65,16 64,16 63,16 62,16 61,16 60,16 59,16 59,17 58,17 57,17 56,18 55,18 54,19 53,19 52,20 51,20 51,21 50,22 49,23 48,23 48,24 48,25 47,26 47,27 47,28 47,29 47,30 47,31 48,32 49,33 50,33 50,34 51,34 52,34 53,34 54,34 54,35 55,35 56,35 57,35 58,35 58,34 59,34 60,34 61,34 62,34 63,33 64,33 65,33 65,32 66,32 67,32 67,31 68,30 69,29 70,29 71,29 71,28 72,28 72,27 73,27 73,26 74,26" fill="none" stroke="#8aff00" stroke-width="3" stroke-linecap="round" stroke-linejoin="round" opacity="0.95">
    <title>3438 c:1</title>
  </polyline>
  <polyline points="46,28 46,29 46,30 46,31 46,32 46,33 46,34 46,36 46,38 46,40 46,41 46,42 46,43 46,44 46,45 45,46 45,48 45,50 45,51 45,53 45,55 45,57 45,59 45,61 45,64 45,65 45,67 46,68 46,69 46,71 46,72 46,74 46,76 46,77 46,79 46,80 46,82 46,83 46,84 46,85 46,86 46,87 46,88 46,89 46,90 46,91 46,92 46,93" fill="none" stroke="#00f0b5" stroke-width="3" stroke-linecap="round" stroke-linejoin="round" opacity="0.95">
    <title>3448 a:1</title>
  </polyline>
</svg>
