<?xml version="1.0" encoding="UTF-8"?>
<svg xmlns="http://www.w3.org/2000/svg" width="70" height="80" viewBox="0 0 70 80">
  <title>particle img3-m52-p2 e:1 i:1 d:1</title>
  <metadata>{&quot;entityType&quot;:&quot;particle&quot;,&quot;entityId&quot;:&quot;img3-m52-p2&quot;,&quot;token&quot;:&quot;e:1 i:1 d:1&quot;,&quot;signature&quot;:&quot;e:1 i:1 d:1&quot;,&quot;imageName&quot;:&quot;page-003.jpg&quot;,&quot;imageId&quot;:3,&quot;bounds&quot;:{&quot;x&quot;:1694,&quot;y&quot;:1122,&quot;w&quot;:70,&quot;h&quot;:80},&quot;atoms&quot;:[{&quot;id&quot;:1936,&quot;token&quot;:&quot;e:1&quot;,&quot;particle_id&quot;:&quot;img3-m52-p2&quot;,&quot;molecule_id&quot;:&quot;img3-m52&quot;,&quot;atom_order&quot;:1},{&quot;id&quot;:1982,&quot;token&quot;:&quot;i:1&quot;,&quot;particle_id&quot;:&quot;img3-m52-p2&quot;,&quot;molecule_id&quot;:&quot;img3-m52&quot;,&quot;atom_order&quot;:2},{&quot;id&quot;:1983,&quot;token&quot;:&quot;d:1&quot;,&quot;particle_id&quot;:&quot;img3-m52-p2&quot;,&quot;molecule_id&quot;:&quot;img3-m52&quot;,&quot;atom_order&quot;:3}]}</metadata>
  <rect x="0" y="0" width="70" height="80" fill="#f8f0d8"/>
  <image href="file:///C:/Users/HHHES/AppData/Roaming/com.voynichlab.datasetcreator/images/1/35a70f63-88ab-4986-b441-b78046a10087.jpg" x="-1694" y="-1122" width="2972" height="3766" opacity="0.92"/>
  <rect x="0.5" y="0.5" width="69" height="79" fill="none" stroke="#111827" stroke-width="1" opacity="0.35"/>
  <polyline points="43,60 43,61 42,61 42,62 41,62 40,62 40,63 39,63 38,63 38,64 37,64 36,64 35,64 34,64 33,64 33,63 32,63 32,62 31,62 31,61 30,61 30,60 29,60 29,59 29,58 29,57 29,56 29,55 29,54 29,53 30,53 30,52 31,52 31,51 31,50 32,50 33,49 34,49 35,49 35,48 36,48 37,48 38,48 39,48 40,48" fill="none" stroke="#f2e45c" stroke-width="3" stroke-linecap="round" stroke-linejoin="round" opacity="0.95">
    <title>1936 e:1</title>
  </polyline>
  <polyline points="39,48 42,48 43,48 43,47 44,47 45,46 46,45 47,45 47,44 48,44 48,43 50,42 50,41 51,41 52,40 52,39 53,39 53,38 53,37 54,37 54,36 54,35 54,34 54,33 54,32 54,31 54,30 54,29 54,28 54,27 54,26 53,26 53,25 52,24 52,23 51,23 51,22 50,22" fill="none" stroke="#00ff7f" stroke-width="3" stroke-linecap="round" stroke-linejoin="round" opacity="0.95">
    <title>1982 i:1</title>
  </polyline>
  <polyline points="16,27 16,26 16,25 16,24 17,24 17,23 18,23 18,22 19,22 19,21 20,21 20,20 21,20 21,19 22,19 23,19 23,18 24,18 25,18 26,18 27,17 28,17 29,17 30,17 31,16 32,16 33,16 34,16 35,16 36,16 37,16 38,16 39,16 39,17 40,17 41,17 42,17 43,17 43,18 44,18 45,18 45,19 46,19 47,19 48,20 49,20 49,21 50,22 51,22 51,23" fill="none" stroke="#ff2d55" stroke-width="3" stroke-linecap="round" stroke-linejoin="round" opacity="0.95">
    <title>1983 d:1</title>
  </polyline>
</svg>
