<?xml version="1.0" encoding="UTF-8"?>
<svg xmlns="http://www.w3.org/2000/svg" width="109" height="91" viewBox="0 0 109 91">
  <title>particle img3-m138-p4 k:1 f:1 i:1 d:1</title>
  <metadata>{&quot;entityType&quot;:&quot;particle&quot;,&quot;entityId&quot;:&quot;img3-m138-p4&quot;,&quot;token&quot;:&quot;k:1 f:1 i:1 d:1&quot;,&quot;signature&quot;:&quot;k:1 f:1 i:1 d:1&quot;,&quot;imageName&quot;:&quot;page-003.jpg&quot;,&quot;imageId&quot;:3,&quot;bounds&quot;:{&quot;x&quot;:1198,&quot;y&quot;:2128,&quot;w&quot;:109,&quot;h&quot;:91},&quot;atoms&quot;:[{&quot;id&quot;:3641,&quot;token&quot;:&quot;k:1&quot;,&quot;particle_id&quot;:&quot;img3-m138-p4&quot;,&quot;molecule_id&quot;:&quot;img3-m138&quot;,&quot;atom_order&quot;:1},{&quot;id&quot;:3579,&quot;token&quot;:&quot;f:1&quot;,&quot;particle_id&quot;:&quot;img3-m138-p4&quot;,&quot;molecule_id&quot;:&quot;img3-m138&quot;,&quot;atom_order&quot;:2},{&quot;id&quot;:3592,&quot;token&quot;:&quot;i:1&quot;,&quot;particle_id&quot;:&quot;img3-m138-p4&quot;,&quot;molecule_id&quot;:&quot;img3-m138&quot;,&quot;atom_order&quot;:3},{&quot;id&quot;:3601,&quot;token&quot;:&quot;d:1&quot;,&quot;particle_id&quot;:&quot;img3-m138-p4&quot;,&quot;molecule_id&quot;:&quot;img3-m138&quot;,&quot;atom_order&quot;:4}]}</metadata>
  <rect x="0" y="0" width="109" height="91" fill="#f8f0d8"/>
  <image href="file:///C:/Users/HHHES/AppData/Roaming/com.voynichlab.datasetcreator/images/1/35a70f63-88ab-4986-b441-b78046a10087.jpg" x="-1198" y="-2128" width="2972" height="3766" opacity="0.92"/>
  <rect x="0.5" y="0.5" width="108" height="90" fill="none" stroke="#111827" stroke-width="1" opacity="0.35"/>
  <polyline points="16,56 16,57 17,57 17,58 17,59 18,59 18,60 18,61 19,61 19,62 20,62 20,63 21,64 22,65 23,65 23,66 23,67 24,67 24,68 25,69 25,70 25,71 26,71 26,72 27,72 28,72 29,71 30,70 31,70 31,69 32,69 32,68 33,68 33,67 34,67 34,66 35,66 36,65 36,64 37,64 38,63 39,62 39,61 40,61 40,60 41,60 41,59 42,59 42,58 43,58 44,58 44,59 44,60 45,60 45,61 46,61 46,62 46,63 47,63 47,64 48,64 48,65 49,65 49,66 50,66 50,67 51,67 51,68 52,69 52,70 53,70 53,71 54,71 54,72 55,72 55,73 56,74 56,75 57,74 57,73 58,73 58,72 58,71 59,71 59,70 59,69 59,68 60,68 60,67 61,67 61,66 61,65 62,65 62,64 62,63 63,63 63,62 63,61 63,60 64,60 64,59 64,58 64,57 65,57 65,56 65,55 65,54 66,54 66,53 66,52 67,52" fill="none" stroke="#ffffff" stroke-width="3" stroke-linecap="round" stroke-linejoin="round" opacity="0.95">
    <title>3641 k:1</title>
  </polyline>
  <polyline points="67,51 67,52 67,53 68,53 68,54 68,55 69,55 69,56 70,57 70,58 71,58 71,59 72,60 72,61 73,61 73,62 74,62 74,63 75,63 75,64 75,65 76,65 76,66 76,67 77,67 77,68 78,68 78,69 79,70 79,71 80,71 80,72" fill="none" stroke="#00a2ff" stroke-width="3" stroke-linecap="round" stroke-linejoin="round" opacity="0.95">
    <title>3579 f:1</title>
  </polyline>
  <polyline points="67,51 68,51 69,51 70,50 71,50 71,49 72,49 73,49 74,48 75,48 76,47 77,47 78,46 79,46 79,45 80,45 81,45 81,44 82,44 82,43 83,43 84,42 85,42 85,41 86,41 86,40 87,40 87,39 88,39 89,38 89,37 90,37 90,36 91,35 91,34 92,33 92,32 92,31 93,30 93,29 93,28 93,27 93,26 93,25 93,24 93,23" fill="none" stroke="#00ff7f" stroke-width="3" stroke-linecap="round" stroke-linejoin="round" opacity="0.95">
    <title>3592 i:1</title>
  </polyline>
  <polyline points="63,35 62,35 62,34 61,34 60,33 59,33 59,32 58,32 58,31 57,31 57,30 57,29 57,28 56,28 56,27 56,26 56,25 57,24 57,23 58,23 58,22 59,22 59,21 60,21 60,20 61,20 62,19 63,18 64,18 65,17 66,17 67,17 68,17 69,16 70,16 71,16 72,16 73,16 74,16 75,16 75,17 76,17 77,17 78,17 79,17 80,17 81,17 82,17 82,18 83,18 84,18 85,18 86,19 87,19 87,20 88,20 89,20 89,21 90,21 91,21 91,22 92,22 92,23 92,24 93,24" fill="none" stroke="#ff2d55" stroke-width="3" stroke-linecap="round" stroke-linejoin="round" opacity="0.95">
    <title>3601 d:1</title>
  </polyline>
</svg>
