<?xml version="1.0" encoding="UTF-8"?>
<svg xmlns="http://www.w3.org/2000/svg" width="105" height="90" viewBox="0 0 105 90">
  <title>particle img3-m72-p4 l:1 f:1 i:1 d:1</title>
  <metadata>{&quot;entityType&quot;:&quot;particle&quot;,&quot;entityId&quot;:&quot;img3-m72-p4&quot;,&quot;token&quot;:&quot;l:1 f:1 i:1 d:1&quot;,&quot;signature&quot;:&quot;l:1 f:1 i:1 d:1&quot;,&quot;imageName&quot;:&quot;page-003.jpg&quot;,&quot;imageId&quot;:3,&quot;bounds&quot;:{&quot;x&quot;:737,&quot;y&quot;:1465,&quot;w&quot;:105,&quot;h&quot;:90},&quot;atoms&quot;:[{&quot;id&quot;:2117,&quot;token&quot;:&quot;l:1&quot;,&quot;particle_id&quot;:&quot;img3-m72-p4&quot;,&quot;molecule_id&quot;:&quot;img3-m72&quot;,&quot;atom_order&quot;:1},{&quot;id&quot;:2121,&quot;token&quot;:&quot;f:1&quot;,&quot;particle_id&quot;:&quot;img3-m72-p4&quot;,&quot;molecule_id&quot;:&quot;img3-m72&quot;,&quot;atom_order&quot;:2},{&quot;id&quot;:2122,&quot;token&quot;:&quot;i:1&quot;,&quot;particle_id&quot;:&quot;img3-m72-p4&quot;,&quot;molecule_id&quot;:&quot;img3-m72&quot;,&quot;atom_order&quot;:3},{&quot;id&quot;:2124,&quot;token&quot;:&quot;d:1&quot;,&quot;particle_id&quot;:&quot;img3-m72-p4&quot;,&quot;molecule_id&quot;:&quot;img3-m72&quot;,&quot;atom_order&quot;:4}]}</metadata>
  <rect x="0" y="0" width="105" height="90" fill="#f8f0d8"/>
  <image href="file:///C:/Users/HHHES/AppData/Roaming/com.voynichlab.datasetcreator/images/1/35a70f63-88ab-4986-b441-b78046a10087.jpg" x="-737" y="-1465" width="2972" height="3766" opacity="0.92"/>
  <rect x="0.5" y="0.5" width="104" height="89" fill="none" stroke="#111827" stroke-width="1" opacity="0.35"/>
  <polyline points="35,53 36,53 36,54 36,55 37,55 37,56 38,56 38,57 39,58 39,59 40,59 40,60 40,61 41,61 41,62 41,63 42,63 42,64 42,65 43,65 43,66 43,67 44,67 44,68 45,69 45,70 46,70 47,70 48,70 49,70 50,70 50,69 51,69 52,69 52,68 52,67 53,67 53,66 54,65 54,64 55,64 55,63 56,63 56,62 57,62 57,61 58,61 58,60 59,60 59,59 60,59 60,58 61,58 62,58 62,57 63,57 63,56 64,56" fill="none" stroke="#ff5f1f" stroke-width="3" stroke-linecap="round" stroke-linejoin="round" opacity="0.95">
    <title>2117 l:1</title>
  </polyline>
  <polyline points="64,56 64,57 65,57 65,58 66,58 66,59 66,60 67,60 67,61 68,61 68,62 69,62 69,63 69,64 70,64 70,65 71,65 71,66 72,67 72,68 73,68 73,69 73,70 74,71 74,72 75,72 75,73 75,74" fill="none" stroke="#00a2ff" stroke-width="3" stroke-linecap="round" stroke-linejoin="round" opacity="0.95">
    <title>2121 f:1</title>
  </polyline>
  <polyline points="75,74 76,74 76,73 77,73 78,73 79,73 79,72 80,72 80,71 81,71 81,70 82,70 83,69 84,69 84,68 85,67 85,66 86,66 86,65 87,65 87,64 87,63 88,63 88,62 88,61 89,60 89,59 89,58 89,57 89,56 89,55 89,54 89,53 88,53 88,52 88,51 88,50 87,50 87,49 87,48 87,47 86,47 86,46 85,45 85,44 84,43 84,42 83,42 83,41 83,40 82,40 82,39 81,38 80,37 79,36 78,35 78,34 77,34 77,33 76,33 76,32 75,32 75,31 74,30 74,29 73,29 73,28 72,28 71,27 70,27 70,26 69,26 68,25 67,25 67,24 66,24 66,23 65,23 65,22 64,22 63,22 63,21 62,21 61,21 60,20 59,20 58,19 57,19 56,19" fill="none" stroke="#00ff7f" stroke-width="3" stroke-linecap="round" stroke-linejoin="round" opacity="0.95">
    <title>2122 i:1</title>
  </polyline>
  <polyline points="16,26 17,26 18,25 19,25 20,24 21,24 21,23 22,23 23,23 24,23 24,22 25,22 26,22 26,21 27,21 27,20 28,20 29,20 29,19 30,19 31,19 31,18 32,18 33,18 33,17 34,17 35,17 36,17 36,16 37,16 38,16 39,16 40,16 41,16 42,16 43,16 44,16 45,16 46,16 47,16 48,16 49,16 50,16 50,17 51,17 52,17 53,17 54,17 55,17 55,18 56,18 57,18 57,19" fill="none" stroke="#ff2d55" stroke-width="3" stroke-linecap="round" stroke-linejoin="round" opacity="0.95">
    <title>2124 d:1</title>
  </polyline>
</svg>
