<?xml version="1.0" encoding="UTF-8"?>
<svg xmlns="http://www.w3.org/2000/svg" width="57" height="75" viewBox="0 0 57 75">
  <title>particle img3-m128-p3 e:1 c:1 h:2</title>
  <metadata>{&quot;entityType&quot;:&quot;particle&quot;,&quot;entityId&quot;:&quot;img3-m128-p3&quot;,&quot;token&quot;:&quot;e:1 c:1 h:2&quot;,&quot;signature&quot;:&quot;e:1 c:1 h:2&quot;,&quot;imageName&quot;:&quot;page-003.jpg&quot;,&quot;imageId&quot;:3,&quot;bounds&quot;:{&quot;x&quot;:2271,&quot;y&quot;:2080,&quot;w&quot;:57,&quot;h&quot;:75},&quot;atoms&quot;:[{&quot;id&quot;:3423,&quot;token&quot;:&quot;e:1&quot;,&quot;particle_id&quot;:&quot;img3-m128-p3&quot;,&quot;molecule_id&quot;:&quot;img3-m128&quot;,&quot;atom_order&quot;:1},{&quot;id&quot;:3444,&quot;token&quot;:&quot;c:1&quot;,&quot;particle_id&quot;:&quot;img3-m128-p3&quot;,&quot;molecule_id&quot;:&quot;img3-m128&quot;,&quot;atom_order&quot;:2},{&quot;id&quot;:3474,&quot;token&quot;:&quot;h:2&quot;,&quot;particle_id&quot;:&quot;img3-m128-p3&quot;,&quot;molecule_id&quot;:&quot;img3-m128&quot;,&quot;atom_order&quot;:3}]}</metadata>
  <rect x="0" y="0" width="57" height="75" fill="#f8f0d8"/>
  <image href="file:///C:/Users/HHHES/AppData/Roaming/com.voynichlab.datasetcreator/images/1/35a70f63-88ab-4986-b441-b78046a10087.jpg" x="-2271" y="-2080" width="2972" height="3766" opacity="0.92"/>
  <rect x="0.5" y="0.5" width="56" height="74" fill="none" stroke="#111827" stroke-width="1" opacity="0.35"/>
  <polyline points="31,56 31,57 30,57 30,58 29,58 28,58 28,59 27,59 26,59 25,59 24,59 23,59 22,59 21,59 21,58 20,58 19,58 18,58 18,57 17,57 16,57 16,56 16,55 16,54 16,53 16,52 16,51 16,50 17,50 17,49 17,48 17,47 18,47 18,46 18,45 19,45 19,44 19,43 20,43 21,43 21,42 22,42 22,41 23,41 24,41 24,40 25,40 26,40 27,40 27,39" fill="none" stroke="#f2e45c" stroke-width="3" stroke-linecap="round" stroke-linejoin="round" opacity="0.95">
    <title>3423 e:1</title>
  </polyline>
  <polyline points="35,35 36,35 37,35 37,34 38,34 38,33 39,32 39,31 40,30 40,29 40,28 41,27 41,26 41,25 40,24 40,23 39,22 39,21 38,21 38,20 37,20 37,19 36,19 36,18 35,18 34,18 34,17 33,17 32,17 31,17 30,17 30,16 29,16 28,16 27,16 26,16 25,16 24,16 23,16 23,17 22,17 21,17 21,18 20,18 20,19 19,19 19,20 18,21 18,22 17,23 17,24 17,25 17,26 17,27 17,28 17,29 17,30 18,30 18,31 19,32 20,33 21,34 22,35 23,35 24,36 25,36 26,36 27,36 28,36 29,36 30,36 31,36 32,36 33,36 34,36 34,35 35,35 36,35 37,34 38,33 38,32" fill="none" stroke="#8aff00" stroke-width="3" stroke-linecap="round" stroke-linejoin="round" opacity="0.95">
    <title>3444 c:1</title>
  </polyline>
  <polyline points="31,58 32,57 32,56 32,55 32,54 32,53 32,52 31,51 31,50 31,49 30,49 30,48 30,47 29,47 29,46 29,45 28,45 28,44 28,43 28,42 27,42 27,41 26,41 25,40 24,39 24,38 23,38 23,37 22,37 22,36 21,36 21,35 20,35 20,34 19,34 19,33 19,32 19,31 19,30 18,30 18,29 18,28 18,27 18,26 18,25" fill="none" stroke="#ff8c00" stroke-width="3" stroke-linecap="round" stroke-linejoin="round" opacity="0.95">
    <title>3474 h:2</title>
  </polyline>
</svg>
