<?xml version="1.0" encoding="UTF-8"?>
<svg xmlns="http://www.w3.org/2000/svg" width="61" height="72" viewBox="0 0 61 72">
  <title>particle img3-m49-p7 e:1 h:1</title>
  <metadata>{&quot;entityType&quot;:&quot;particle&quot;,&quot;entityId&quot;:&quot;img3-m49-p7&quot;,&quot;token&quot;:&quot;e:1 h:1&quot;,&quot;signature&quot;:&quot;e:1 h:1&quot;,&quot;imageName&quot;:&quot;page-003.jpg&quot;,&quot;imageId&quot;:3,&quot;bounds&quot;:{&quot;x&quot;:2312,&quot;y&quot;:1071,&quot;w&quot;:61,&quot;h&quot;:72},&quot;atoms&quot;:[{&quot;id&quot;:1885,&quot;token&quot;:&quot;e:1&quot;,&quot;particle_id&quot;:&quot;img3-m49-p7&quot;,&quot;molecule_id&quot;:&quot;img3-m49&quot;,&quot;atom_order&quot;:1},{&quot;id&quot;:2002,&quot;token&quot;:&quot;h:1&quot;,&quot;particle_id&quot;:&quot;img3-m49-p7&quot;,&quot;molecule_id&quot;:&quot;img3-m49&quot;,&quot;atom_order&quot;:2}]}</metadata>
  <rect x="0" y="0" width="61" height="72" fill="#f8f0d8"/>
  <image href="file:///C:/Users/HHHES/AppData/Roaming/com.voynichlab.datasetcreator/images/1/35a70f63-88ab-4986-b441-b78046a10087.jpg" x="-2312" y="-1071" width="2972" height="3766" opacity="0.92"/>
  <rect x="0.5" y="0.5" width="60" height="71" fill="none" stroke="#111827" stroke-width="1" opacity="0.35"/>
  <polyline points="31,33 31,34 30,34 30,35 29,35 28,35 28,36 27,36 26,36 25,36 24,36 23,36 22,36 21,36 21,35 20,35 19,35 18,35 18,34 17,34 16,34 16,33 16,32 16,31 16,30 16,29 16,28 16,27 17,27 17,26 17,25 17,24 18,24 18,23 18,22 19,22 19,21 19,20 20,20 21,20 21,19 22,19 22,18 23,18 24,18 24,17 25,17 26,17 27,17 27,16" fill="none" stroke="#f2e45c" stroke-width="3" stroke-linecap="round" stroke-linejoin="round" opacity="0.95">
    <title>1885 e:1</title>
  </polyline>
  <polyline points="27,16 28,16 29,16 29,17 30,17 31,17 32,17 32,18 33,18 34,18 34,19 35,19 36,20 37,20 37,21 38,21 39,21 39,22 40,23 41,23 41,24 41,25 42,25 42,26 42,27 43,27 43,28 43,29 43,30 44,30 44,31 44,32 44,33 44,34 45,34 45,35 45,36 45,37 45,38 45,39 45,40 45,41 45,42 45,43 45,44 45,45 44,45 44,46 44,47 44,48 43,48 43,49 43,50 42,50 42,51 42,52 41,52 41,53 41,54 40,54 40,55 39,55 39,56 38,56" fill="none" stroke="#ff8c00" stroke-width="3" stroke-linecap="round" stroke-linejoin="round" opacity="0.95">
    <title>2002 h:1</title>
  </polyline>
</svg>
