<?xml version="1.0" encoding="UTF-8"?>
<svg xmlns="http://www.w3.org/2000/svg" width="61" height="75" viewBox="0 0 61 75">
  <title>particle img3-m62-p4 e:1 c:1 h:2</title>
  <metadata>{&quot;entityType&quot;:&quot;particle&quot;,&quot;entityId&quot;:&quot;img3-m62-p4&quot;,&quot;token&quot;:&quot;e:1 c:1 h:2&quot;,&quot;signature&quot;:&quot;e:1 c:1 h:2&quot;,&quot;imageName&quot;:&quot;page-003.jpg&quot;,&quot;imageId&quot;:3,&quot;bounds&quot;:{&quot;x&quot;:1224,&quot;y&quot;:1213,&quot;w&quot;:61,&quot;h&quot;:75},&quot;atoms&quot;:[{&quot;id&quot;:2053,&quot;token&quot;:&quot;e:1&quot;,&quot;particle_id&quot;:&quot;img3-m62-p4&quot;,&quot;molecule_id&quot;:&quot;img3-m62&quot;,&quot;atom_order&quot;:1},{&quot;id&quot;:2056,&quot;token&quot;:&quot;c:1&quot;,&quot;particle_id&quot;:&quot;img3-m62-p4&quot;,&quot;molecule_id&quot;:&quot;img3-m62&quot;,&quot;atom_order&quot;:2},{&quot;id&quot;:2055,&quot;token&quot;:&quot;h:2&quot;,&quot;particle_id&quot;:&quot;img3-m62-p4&quot;,&quot;molecule_id&quot;:&quot;img3-m62&quot;,&quot;atom_order&quot;:3}]}</metadata>
  <rect x="0" y="0" width="61" height="75" fill="#f8f0d8"/>
  <image href="file:///C:/Users/HHHES/AppData/Roaming/com.voynichlab.datasetcreator/images/1/35a70f63-88ab-4986-b441-b78046a10087.jpg" x="-1224" y="-1213" width="2972" height="3766" opacity="0.92"/>
  <rect x="0.5" y="0.5" width="60" height="74" fill="none" stroke="#111827" stroke-width="1" opacity="0.35"/>
  <polyline points="30,58 29,58 29,59 28,59 27,59 26,59 25,59 24,59 23,59 22,59 21,59 20,58 19,58 18,58 18,57 17,56 17,55 17,54 16,54 16,53 16,52 16,51 16,50 16,49 17,49 17,48 17,47 18,46 18,45 19,45 19,44 20,44 20,43 21,43 22,43 22,42 23,42 24,42 24,41 25,41 26,41 27,41 27,40 28,40 29,40 30,40 31,40 31,39" fill="none" stroke="#f2e45c" stroke-width="3" stroke-linecap="round" stroke-linejoin="round" opacity="0.95">
    <title>2053 e:1</title>
  </polyline>
  <polyline points="30,18 30,17 31,17 32,17 33,17 34,16 35,16 36,16 37,16 38,17 39,17 39,18 40,18 40,19 41,19 41,20 42,20 42,21 43,21 43,22 43,23 44,23 44,24 44,25 44,26 45,27 45,28 45,29 44,29 44,30 44,31 44,32 43,32 43,33 43,34 42,34 42,35 41,35 41,36 40,36 39,36 39,37 38,37 37,37 37,38 36,38 35,38 34,38 34,39 33,39 32,39 32,38 31,38 30,37 29,37 29,36 28,36 28,35 27,35 27,34 26,34 26,33 26,32 25,32 25,31 25,30 25,29 25,28 25,27 25,26 25,25 25,24 25,23 25,22 26,22 26,21 27,21 27,20 28,20 28,19 29,19 29,18 30,18 31,18 31,17" fill="none" stroke="#8aff00" stroke-width="3" stroke-linecap="round" stroke-linejoin="round" opacity="0.95">
    <title>2056 c:1</title>
  </polyline>
  <polyline points="30,58 30,57 31,57 32,57 32,56 33,56 33,55 34,55 34,54 34,53 34,52 35,52 35,51 35,50 35,49 36,49 36,48 36,47 36,46 36,45 36,44 35,44 35,43 35,42 34,42 34,41 33,41 33,40 32,40 32,39 31,39 31,38 30,38 30,37 29,37 29,36 28,36 28,35 27,35 27,34 26,34 26,33 25,33 25,32 25,31 24,31 24,30 24,29 24,28 24,27 24,26 24,25 24,24 24,23 24,22 25,22 25,21 26,21 26,20 27,20 27,19 28,19 29,19 29,18 30,18" fill="none" stroke="#ff8c00" stroke-width="3" stroke-linecap="round" stroke-linejoin="round" opacity="0.95">
    <title>2055 h:2</title>
  </polyline>
</svg>
