<?xml version="1.0" encoding="UTF-8"?>
<svg xmlns="http://www.w3.org/2000/svg" width="131" height="89" viewBox="0 0 131 89">
  <title>particle img3-m96-p5 l:1 f:1 i:1 d:1</title>
  <metadata>{&quot;entityType&quot;:&quot;particle&quot;,&quot;entityId&quot;:&quot;img3-m96-p5&quot;,&quot;token&quot;:&quot;l:1 f:1 i:1 d:1&quot;,&quot;signature&quot;:&quot;l:1 f:1 i:1 d:1&quot;,&quot;imageName&quot;:&quot;page-003.jpg&quot;,&quot;imageId&quot;:3,&quot;bounds&quot;:{&quot;x&quot;:1404,&quot;y&quot;:1723,&quot;w&quot;:131,&quot;h&quot;:89},&quot;atoms&quot;:[{&quot;id&quot;:2557,&quot;token&quot;:&quot;l:1&quot;,&quot;particle_id&quot;:&quot;img3-m96-p5&quot;,&quot;molecule_id&quot;:&quot;img3-m96&quot;,&quot;atom_order&quot;:1},{&quot;id&quot;:2556,&quot;token&quot;:&quot;f:1&quot;,&quot;particle_id&quot;:&quot;img3-m96-p5&quot;,&quot;molecule_id&quot;:&quot;img3-m96&quot;,&quot;atom_order&quot;:2},{&quot;id&quot;:2558,&quot;token&quot;:&quot;i:1&quot;,&quot;particle_id&quot;:&quot;img3-m96-p5&quot;,&quot;molecule_id&quot;:&quot;img3-m96&quot;,&quot;atom_order&quot;:3},{&quot;id&quot;:2559,&quot;token&quot;:&quot;d:1&quot;,&quot;particle_id&quot;:&quot;img3-m96-p5&quot;,&quot;molecule_id&quot;:&quot;img3-m96&quot;,&quot;atom_order&quot;:4}]}</metadata>
  <rect x="0" y="0" width="131" height="89" fill="#f8f0d8"/>
  <image href="file:///C:/Users/HHHES/AppData/Roaming/com.voynichlab.datasetcreator/images/1/35a70f63-88ab-4986-b441-b78046a10087.jpg" x="-1404" y="-1723" width="2972" height="3766" opacity="0.92"/>
  <rect x="0.5" y="0.5" width="130" height="88" fill="none" stroke="#111827" stroke-width="1" opacity="0.35"/>
  <polyline points="59,55 60,55 60,56 61,56 61,57 61,58 62,58 62,59 62,60 63,60 63,61 64,62 64,63 65,64 65,65 66,66 66,67 66,68 67,68 67,69 67,70 68,70 68,71 68,72 69,72 69,73 70,73 71,73 72,73 72,72 73,72 73,71 74,71 74,70 74,69 75,69 75,68 76,67 76,66 77,66 77,65 77,64 78,64 78,63 79,63 79,62 79,61 80,61 80,60 81,60 81,59 81,58 82,58 82,57 83,56 83,55 84,55 84,54 85,54 85,53" fill="none" stroke="#ff5f1f" stroke-width="3" stroke-linecap="round" stroke-linejoin="round" opacity="0.95">
    <title>2557 l:1</title>
  </polyline>
  <polyline points="86,52 86,53 86,54 87,54 87,55 87,56 88,56 88,57 89,58 89,59 90,59 90,60 91,61 91,62 92,62 92,63 93,63 93,64 94,64 94,65 94,66 95,66 95,67 95,68 96,68 96,69 97,69 97,70 98,71 98,72 99,72 99,73" fill="none" stroke="#00a2ff" stroke-width="3" stroke-linecap="round" stroke-linejoin="round" opacity="0.95">
    <title>2556 f:1</title>
  </polyline>
  <polyline points="99,73 100,73 100,72 101,72 102,72 102,71 103,71 104,71 104,70 105,70 105,69 106,69 106,68 107,68 107,67 108,67 108,66 109,65 109,64 110,64 110,63 111,63 111,62 112,62 112,61 112,60 113,60 113,59 113,58 114,58 114,57 114,56 114,55 114,54 115,54 115,53 115,52 115,51 115,50 115,49 115,48 115,47 114,47 114,46 114,45 114,44 113,44 113,43 113,42 113,41 112,41 112,40 112,39 111,38 111,37 110,37 110,36 110,35 109,35 109,34 109,33 108,33 108,32 107,32 107,31 106,31 106,30 105,30 105,29 104,29 104,28 103,28 103,27 102,27 102,26 101,26 100,25 99,25 99,24 98,24 97,23 96,23 96,22 95,22 94,22 94,21 93,21 92,21 92,20" fill="none" stroke="#00ff7f" stroke-width="3" stroke-linecap="round" stroke-linejoin="round" opacity="0.95">
    <title>2558 i:1</title>
  </polyline>
  <polyline points="16,23 17,23 17,22 18,22 19,22 20,22 21,22 21,21 22,21 23,21 24,21 25,21 26,21 27,21 28,21 29,21 29,20 30,20 31,20 32,20 33,20 34,20 34,19 35,19 36,19 37,19 38,19 39,19 39,18 40,18 41,18 42,18 43,18 44,18 45,18 46,18 47,18 48,18 49,18 49,17 50,17 51,17 52,17 53,17 54,17 55,17 56,17 57,17 58,17 59,17 60,17 61,17 62,17 63,17 63,16 64,16 65,16 66,16 67,16 68,16 68,17 69,17 70,17 71,17 72,17 73,17 74,17 75,17 76,17 77,17 78,17 79,17 80,17 81,17 82,17 82,18 83,18 84,18 85,18 86,18 87,18 88,18 89,18 89,19 90,19 91,19 91,20 92,20 93,20 94,21" fill="none" stroke="#ff2d55" stroke-width="3" stroke-linecap="round" stroke-linejoin="round" opacity="0.95">
    <title>2559 d:1</title>
  </polyline>
</svg>
