<?xml version="1.0" encoding="UTF-8"?>
<svg xmlns="http://www.w3.org/2000/svg" width="95" height="98" viewBox="0 0 95 98">
  <title>particle img3-m53-p2 a:1 m:1 c:1 a:1</title>
  <metadata>{&quot;entityType&quot;:&quot;particle&quot;,&quot;entityId&quot;:&quot;img3-m53-p2&quot;,&quot;token&quot;:&quot;a:1 m:1 c:1 a:1&quot;,&quot;signature&quot;:&quot;a:1 m:1 c:1 a:1&quot;,&quot;imageName&quot;:&quot;page-003.jpg&quot;,&quot;imageId&quot;:3,&quot;bounds&quot;:{&quot;x&quot;:1199,&quot;y&quot;:1102,&quot;w&quot;:95,&quot;h&quot;:98},&quot;atoms&quot;:[{&quot;id&quot;:1959,&quot;token&quot;:&quot;a:1&quot;,&quot;particle_id&quot;:&quot;img3-m53-p2&quot;,&quot;molecule_id&quot;:&quot;img3-m53&quot;,&quot;atom_order&quot;:1},{&quot;id&quot;:3040,&quot;token&quot;:&quot;m:1&quot;,&quot;particle_id&quot;:&quot;img3-m53-p2&quot;,&quot;molecule_id&quot;:&quot;img3-m53&quot;,&quot;atom_order&quot;:2},{&quot;id&quot;:1912,&quot;token&quot;:&quot;c:1&quot;,&quot;particle_id&quot;:&quot;img3-m53-p2&quot;,&quot;molecule_id&quot;:&quot;img3-m53&quot;,&quot;atom_order&quot;:3},{&quot;id&quot;:1958,&quot;token&quot;:&quot;a:1&quot;,&quot;particle_id&quot;:&quot;img3-m53-p2&quot;,&quot;molecule_id&quot;:&quot;img3-m53&quot;,&quot;atom_order&quot;:4}]}</metadata>
  <rect x="0" y="0" width="95" height="98" fill="#f8f0d8"/>
  <image href="file:///C:/Users/HHHES/AppData/Roaming/com.voynichlab.datasetcreator/images/1/35a70f63-88ab-4986-b441-b78046a10087.jpg" x="-1199" y="-1102" width="2972" height="3766" opacity="0.92"/>
  <rect x="0.5" y="0.5" width="94" height="97" fill="none" stroke="#111827" stroke-width="1" opacity="0.35"/>
  <polyline points="43,45 43,46 43,47 43,48 43,49 42,49 42,50 42,51 42,52 42,53 42,54 42,55 42,56 42,57 42,58 42,59 42,60 42,61 42,62 42,63 42,64 42,65 42,66 42,67 42,68 42,69 42,70 42,71 42,72 42,73 42,74 42,75 42,76 42,77 42,78 42,79 42,80 42,81 42,82" fill="none" stroke="#00f0b5" stroke-width="3" stroke-linecap="round" stroke-linejoin="round" opacity="0.95">
    <title>1959 a:1</title>
  </polyline>
  <polyline points="43,45 43,44 43,43 43,42 43,41 43,40 43,39 44,39 44,38 44,37 44,36 44,35 44,34 44,33 44,32 44,31 44,30 45,30 45,29 45,28 45,27 45,26 45,25 46,25 46,24 46,23 46,22 46,21 46,20 46,19 47,18 47,17 47,16 46,16 46,17 45,17 44,17 43,18 42,18 41,18 41,19 40,19 39,19 39,20 38,20 37,20 37,21 36,21 35,22 34,22 33,22 33,23 32,23 31,23 30,24 29,24 28,25 27,25 26,26 25,26 24,27 23,27 23,28 22,28 21,29 20,29 20,30 19,30 19,31 18,31 18,32 17,32 16,33 17,33 17,34 18,34 19,34 20,34 21,34 22,34 23,34 24,34 25,34 26,34 27,35 28,35 29,35 30,35 31,35 32,35 33,35 34,35 35,35 36,35 37,35 38,35 39,36 40,36 41,36 42,36 43,36 44,36 45,36 46,36 47,36 48,36 49,36 50,36 51,36 52,36 53,36 54,35 55,35 56,35 57,35 58,35 59,35 60,35 60,34 61,34" fill="none" stroke="#ff00ff" stroke-width="3" stroke-linecap="round" stroke-linejoin="round" opacity="0.95">
    <title>3040 m:1</title>
  </polyline>
  <polyline points="61,22 61,23 60,23 60,24 60,25 59,25 59,26 59,27 59,28 59,29 59,30 59,31 59,32 60,32 60,33 61,33 61,34 62,35 63,35 64,35 65,35 65,36 66,36 67,36 68,36 69,36 70,36 71,36 72,36 73,36 73,35 74,35 75,35 75,34 75,33 76,33 76,32 77,32 77,31 77,30 78,30 78,29 78,28 79,28 79,27 79,26 79,25 79,24 79,23 79,22 78,22 78,21 78,20 77,20 77,19 76,19 76,18 75,18 75,17 74,17 73,17 73,16 72,16 71,16 70,16 69,16 68,16 67,16 66,16 65,17 64,17 64,18 63,18 63,19 62,19 61,19 61,20 60,20 60,21 60,22" fill="none" stroke="#8aff00" stroke-width="3" stroke-linecap="round" stroke-linejoin="round" opacity="0.95">
    <title>1912 c:1</title>
  </polyline>
  <polyline points="60,22 59,26 59,29 59,30 59,31 59,32 59,33 59,34 59,35 59,36 58,36 58,37 58,38 58,39 58,40 58,41 58,42 58,43 58,44 58,45 58,46 58,47 58,48 58,49 58,50 58,51 58,52 58,53 58,54 58,55 58,56 58,57 58,58 58,59 58,60 58,61 58,62 58,63 58,64 58,65 58,66 58,67 59,68 59,69 59,70 59,71 59,72 59,73 59,74 59,75 59,76 59,77 59,78 59,79 59,80 59,81" fill="none" stroke="#00f0b5" stroke-width="3" stroke-linecap="round" stroke-linejoin="round" opacity="0.95">
    <title>1958 a:1</title>
  </polyline>
</svg>
