<?xml version="1.0" encoding="UTF-8"?>
<svg xmlns="http://www.w3.org/2000/svg" width="96" height="81" viewBox="0 0 96 81">
  <title>particle img3-m78-p6 l:1 f:1 i:1 d:1</title>
  <metadata>{&quot;entityType&quot;:&quot;particle&quot;,&quot;entityId&quot;:&quot;img3-m78-p6&quot;,&quot;token&quot;:&quot;l:1 f:1 i:1 d:1&quot;,&quot;signature&quot;:&quot;l:1 f:1 i:1 d:1&quot;,&quot;imageName&quot;:&quot;page-003.jpg&quot;,&quot;imageId&quot;:3,&quot;bounds&quot;:{&quot;x&quot;:1874,&quot;y&quot;:1566,&quot;w&quot;:96,&quot;h&quot;:81},&quot;atoms&quot;:[{&quot;id&quot;:2304,&quot;token&quot;:&quot;l:1&quot;,&quot;particle_id&quot;:&quot;img3-m78-p6&quot;,&quot;molecule_id&quot;:&quot;img3-m78&quot;,&quot;atom_order&quot;:1},{&quot;id&quot;:2303,&quot;token&quot;:&quot;f:1&quot;,&quot;particle_id&quot;:&quot;img3-m78-p6&quot;,&quot;molecule_id&quot;:&quot;img3-m78&quot;,&quot;atom_order&quot;:2},{&quot;id&quot;:2305,&quot;token&quot;:&quot;i:1&quot;,&quot;particle_id&quot;:&quot;img3-m78-p6&quot;,&quot;molecule_id&quot;:&quot;img3-m78&quot;,&quot;atom_order&quot;:3},{&quot;id&quot;:2306,&quot;token&quot;:&quot;d:1&quot;,&quot;particle_id&quot;:&quot;img3-m78-p6&quot;,&quot;molecule_id&quot;:&quot;img3-m78&quot;,&quot;atom_order&quot;:4}]}</metadata>
  <rect x="0" y="0" width="96" height="81" fill="#f8f0d8"/>
  <image href="file:///C:/Users/HHHES/AppData/Roaming/com.voynichlab.datasetcreator/images/1/35a70f63-88ab-4986-b441-b78046a10087.jpg" x="-1874" y="-1566" width="2972" height="3766" opacity="0.92"/>
  <rect x="0.5" y="0.5" width="95" height="80" fill="none" stroke="#111827" stroke-width="1" opacity="0.35"/>
  <polyline points="21,44 21,45 21,46 22,46 22,47 22,48 23,48 23,49 24,50 24,51 25,51 25,52 26,52 26,53 26,54 27,54 27,55 28,55 28,56 29,56 29,57 29,58 30,58 30,59 31,59 31,60 32,60 32,61 32,62 33,62 33,63 33,64 33,63 34,63 35,62 36,61 37,60 37,59 38,59 38,58 39,58 39,57 40,57 40,56 41,56 41,55 42,55 42,54 43,54 44,54 44,53 45,52 46,52 46,51 47,51 47,50 48,50 48,49 49,49 49,48 50,48 50,47 51,47 52,46 52,45" fill="none" stroke="#ff5f1f" stroke-width="3" stroke-linecap="round" stroke-linejoin="round" opacity="0.95">
    <title>2304 l:1</title>
  </polyline>
  <polyline points="53,44 53,45 53,46 54,46 54,47 54,48 55,48 55,49 56,50 56,51 57,51 57,52 58,53 58,54 59,54 59,55 60,55 60,56 61,56 61,57 61,58 62,58 62,59 62,60 63,60 63,61 64,61 64,62 65,63 65,64 66,64 66,65" fill="none" stroke="#00a2ff" stroke-width="3" stroke-linecap="round" stroke-linejoin="round" opacity="0.95">
    <title>2303 f:1</title>
  </polyline>
  <polyline points="63,60 64,60 65,60 66,60 66,59 67,59 67,58 68,58 69,58 70,58 70,57 71,57 72,57 72,56 73,56 73,55 74,55 74,54 75,54 75,53 76,52 76,51 77,51 77,50 77,49 78,49 78,48 78,47 79,47 79,46 79,45 79,44 80,44 80,43 80,42 80,41 80,40 80,39 80,38 80,37 80,36 80,35 80,34 80,33 79,32 79,31 78,31 78,30 78,29 77,29 77,28 76,27 76,26 75,26 75,25 74,25 74,24 73,24 72,24 72,23 71,23 71,22 70,22 69,21 68,21 67,20 66,20 65,20 65,19 64,19 63,19 63,18 62,18 61,18 60,17 59,17" fill="none" stroke="#00ff7f" stroke-width="3" stroke-linecap="round" stroke-linejoin="round" opacity="0.95">
    <title>2305 i:1</title>
  </polyline>
  <polyline points="16,22 21,20 23,19 24,19 25,19 26,18 27,18 28,18 29,18 29,17 30,17 31,17 32,17 33,17 34,17 35,17 36,17 37,17 38,17 39,17 40,17 41,16 42,16 43,16 44,16 45,16 46,16 47,16 49,16 50,16 51,16 52,16 53,16 54,17 55,17 57,17 58,18 59,18 60,18 61,18" fill="none" stroke="#ff2d55" stroke-width="3" stroke-linecap="round" stroke-linejoin="round" opacity="0.95">
    <title>2306 d:1</title>
  </polyline>
</svg>
