<?xml version="1.0" encoding="UTF-8"?>
<svg xmlns="http://www.w3.org/2000/svg" width="41" height="53" viewBox="0 0 41 53">
  <title>particle img3-m164-p1 n:1</title>
  <metadata>{&quot;entityType&quot;:&quot;particle&quot;,&quot;entityId&quot;:&quot;img3-m164-p1&quot;,&quot;token&quot;:&quot;n:1&quot;,&quot;signature&quot;:&quot;n:1&quot;,&quot;imageName&quot;:&quot;page-003.jpg&quot;,&quot;imageId&quot;:3,&quot;bounds&quot;:{&quot;x&quot;:1411,&quot;y&quot;:2585,&quot;w&quot;:41,&quot;h&quot;:53},&quot;atoms&quot;:[{&quot;id&quot;:3901,&quot;token&quot;:&quot;n:1&quot;,&quot;particle_id&quot;:&quot;img3-m164-p1&quot;,&quot;molecule_id&quot;:&quot;img3-m164&quot;,&quot;atom_order&quot;:1}]}</metadata>
  <rect x="0" y="0" width="41" height="53" fill="#f8f0d8"/>
  <image href="file:///C:/Users/HHHES/AppData/Roaming/com.voynichlab.datasetcreator/images/1/35a70f63-88ab-4986-b441-b78046a10087.jpg" x="-1411" y="-2585" width="2972" height="3766" opacity="0.92"/>
  <rect x="0.5" y="0.5" width="40" height="52" fill="none" stroke="#111827" stroke-width="1" opacity="0.35"/>
  <polyline points="17,33 17,32 17,31 16,31 16,30 16,29 16,28 16,27 16,26 17,26 17,25 17,24 17,23 17,22 18,21 18,20 18,19 19,18 19,17 20,17 20,16 21,16 22,16 23,16 23,17 24,17 24,18 24,19 24,20 25,21 25,22 25,23 25,24 25,25 25,26 25,27 25,28 25,29 24,30 24,31 24,32 24,33 24,34 24,35 24,36 23,36 23,37" fill="none" stroke="#f92f59" stroke-width="3" stroke-linecap="round" stroke-linejoin="round" opacity="0.95">
    <title>3901 n:1</title>
  </polyline>
</svg>
