<?xml version="1.0" encoding="UTF-8"?>
<svg xmlns="http://www.w3.org/2000/svg" width="91" height="88" viewBox="0 0 91 88">
  <title>particle img3-m48-p6 f:1 j:1</title>
  <metadata>{&quot;entityType&quot;:&quot;particle&quot;,&quot;entityId&quot;:&quot;img3-m48-p6&quot;,&quot;token&quot;:&quot;f:1 j:1&quot;,&quot;signature&quot;:&quot;f:1 j:1&quot;,&quot;imageName&quot;:&quot;page-003.jpg&quot;,&quot;imageId&quot;:3,&quot;bounds&quot;:{&quot;x&quot;:1105,&quot;y&quot;:1058,&quot;w&quot;:91,&quot;h&quot;:88},&quot;atoms&quot;:[{&quot;id&quot;:1787,&quot;token&quot;:&quot;f:1&quot;,&quot;particle_id&quot;:&quot;img3-m48-p6&quot;,&quot;molecule_id&quot;:&quot;img3-m48&quot;,&quot;atom_order&quot;:1},{&quot;id&quot;:1788,&quot;token&quot;:&quot;j:1&quot;,&quot;particle_id&quot;:&quot;img3-m48-p6&quot;,&quot;molecule_id&quot;:&quot;img3-m48&quot;,&quot;atom_order&quot;:2}]}</metadata>
  <rect x="0" y="0" width="91" height="88" fill="#f8f0d8"/>
  <image href="file:///C:/Users/HHHES/AppData/Roaming/com.voynichlab.datasetcreator/images/1/35a70f63-88ab-4986-b441-b78046a10087.jpg" x="-1105" y="-1058" width="2972" height="3766" opacity="0.92"/>
  <rect x="0.5" y="0.5" width="90" height="87" fill="none" stroke="#111827" stroke-width="1" opacity="0.35"/>
  <polyline points="54,27 54,28 54,29 55,29 55,30 55,31 56,31 56,32 57,33 57,34 58,34 58,35 59,36 59,37 60,37 60,38 61,38 61,39 62,39 62,40 62,41 63,41 63,42 63,43 64,43 64,44 65,44 65,45 66,46 66,47 67,47 67,48" fill="none" stroke="#00a2ff" stroke-width="3" stroke-linecap="round" stroke-linejoin="round" opacity="0.95">
    <title>1787 f:1</title>
  </polyline>
  <polyline points="52,27 52,26 53,26 54,26 54,26 55,25 54,24 55,23 56,23 57,22 58,23 58,22 59,22 59,21 60,21 61,20 60,19 61,19 62,19 62,18 63,18 64,18 65,17 66,16 67,16 68,16 69,17 70,17 71,16 71,17 72,17 73,17 73,18 74,18 74,19 75,20 75,21 74,21 74,22 74,23 73,23 73,24 73,25 72,25 72,26 71,26 71,27 71,28 70,29 70,30 69,30 69,31 68,30 69,32 68,31 68,32 67,32 66,33 65,33 65,34 64,35 63,35 63,36 63,37 62,37 62,38 61,38 60,39 59,39 58,41 57,40 57,41 56,41 57,42 56,42 55,43 54,43 54,44 53,45 52,45 51,45 50,46 50,47 49,48 48,49 47,50 46,50 46,51 45,51 44,51 43,52 42,52 42,54 41,54 40,55 39,56 38,56 37,56 35,57 34,58 34,59 33,59 32,58 32,59 31,59 30,61 29,61 29,62 28,62 27,62 28,63 27,63 26,64 25,64 24,65 23,66 22,66 21,66 21,67 20,67 19,67 20,68 19,69 19,70 18,70 17,71 16,71 16,72" fill="none" stroke="#4a9e6a" stroke-width="3" stroke-linecap="round" stroke-linejoin="round" opacity="0.95">
    <title>1788 j:1</title>
  </polyline>
</svg>
