<?xml version="1.0" encoding="UTF-8"?>
<svg xmlns="http://www.w3.org/2000/svg" width="79" height="94" viewBox="0 0 79 94">
  <title>particle img3-m45-p4 f:1 i:1 d:1</title>
  <metadata>{&quot;entityType&quot;:&quot;particle&quot;,&quot;entityId&quot;:&quot;img3-m45-p4&quot;,&quot;token&quot;:&quot;f:1 i:1 d:1&quot;,&quot;signature&quot;:&quot;f:1 i:1 d:1&quot;,&quot;imageName&quot;:&quot;page-003.jpg&quot;,&quot;imageId&quot;:3,&quot;bounds&quot;:{&quot;x&quot;:1550,&quot;y&quot;:1024,&quot;w&quot;:79,&quot;h&quot;:94},&quot;atoms&quot;:[{&quot;id&quot;:1843,&quot;token&quot;:&quot;f:1&quot;,&quot;particle_id&quot;:&quot;img3-m45-p4&quot;,&quot;molecule_id&quot;:&quot;img3-m45&quot;,&quot;atom_order&quot;:1},{&quot;id&quot;:1844,&quot;token&quot;:&quot;i:1&quot;,&quot;particle_id&quot;:&quot;img3-m45-p4&quot;,&quot;molecule_id&quot;:&quot;img3-m45&quot;,&quot;atom_order&quot;:2},{&quot;id&quot;:1845,&quot;token&quot;:&quot;d:1&quot;,&quot;particle_id&quot;:&quot;img3-m45-p4&quot;,&quot;molecule_id&quot;:&quot;img3-m45&quot;,&quot;atom_order&quot;:3}]}</metadata>
  <rect x="0" y="0" width="79" height="94" fill="#f8f0d8"/>
  <image href="file:///C:/Users/HHHES/AppData/Roaming/com.voynichlab.datasetcreator/images/1/35a70f63-88ab-4986-b441-b78046a10087.jpg" x="-1550" y="-1024" width="2972" height="3766" opacity="0.92"/>
  <rect x="0.5" y="0.5" width="78" height="93" fill="none" stroke="#111827" stroke-width="1" opacity="0.35"/>
  <polyline points="42,58 42,59 43,59 43,60 43,61 43,62 44,62 44,63 44,64 45,64 45,65 45,66 45,67 45,68 46,68 46,69 46,70 47,70 47,71 47,72 47,73 48,73 48,74 48,75 49,75 49,76 49,77 50,77 50,78" fill="none" stroke="#00a2ff" stroke-width="3" stroke-linecap="round" stroke-linejoin="round" opacity="0.95">
    <title>1843 f:1</title>
  </polyline>
  <polyline points="44,62 45,62 46,61 47,61 48,61 48,60 49,60 50,59 51,59 51,58 52,58 53,57 54,57 54,56 55,56 55,55 56,55 56,54 57,53 57,52 58,51 58,50 58,49 59,49 59,48 59,47 60,47 60,46 60,45 61,44 61,43 61,42 62,42 62,41 62,40 62,39 62,38 62,37 62,36 63,36 63,35 63,34 63,33 62,32 62,31 62,30 62,29 61,29 61,28 61,27 61,26 61,25 60,25 60,24 59,24 59,23 59,22 58,22 58,21" fill="none" stroke="#00ff7f" stroke-width="3" stroke-linecap="round" stroke-linejoin="round" opacity="0.95">
    <title>1844 i:1</title>
  </polyline>
  <polyline points="16,22 17,22 18,22 18,21 19,21 20,20 21,20 21,19 22,19 23,19 24,18 25,18 26,18 26,17 27,17 28,17 29,17 30,17 30,16 31,16 32,16 33,16 34,16 35,16 36,16 37,16 38,16 39,16 40,16 41,16 42,16 43,16 44,16 45,16 46,16 47,16 48,16 48,17 49,17 50,17 51,17 51,18 52,18 53,18 53,19 54,19 55,19 55,20 56,20 57,20 57,21 58,21" fill="none" stroke="#ff2d55" stroke-width="3" stroke-linecap="round" stroke-linejoin="round" opacity="0.95">
    <title>1845 d:1</title>
  </polyline>
</svg>
