<?xml version="1.0" encoding="UTF-8"?>
<svg xmlns="http://www.w3.org/2000/svg" width="103" height="75" viewBox="0 0 103 75">
  <title>particle img3-m63-p3 k:1 f:1 i:1 d:1</title>
  <metadata>{&quot;entityType&quot;:&quot;particle&quot;,&quot;entityId&quot;:&quot;img3-m63-p3&quot;,&quot;token&quot;:&quot;k:1 f:1 i:1 d:1&quot;,&quot;signature&quot;:&quot;k:1 f:1 i:1 d:1&quot;,&quot;imageName&quot;:&quot;page-003.jpg&quot;,&quot;imageId&quot;:3,&quot;bounds&quot;:{&quot;x&quot;:616,&quot;y&quot;:1241,&quot;w&quot;:103,&quot;h&quot;:75},&quot;atoms&quot;:[{&quot;id&quot;:2008,&quot;token&quot;:&quot;k:1&quot;,&quot;particle_id&quot;:&quot;img3-m63-p3&quot;,&quot;molecule_id&quot;:&quot;img3-m63&quot;,&quot;atom_order&quot;:1},{&quot;id&quot;:2009,&quot;token&quot;:&quot;f:1&quot;,&quot;particle_id&quot;:&quot;img3-m63-p3&quot;,&quot;molecule_id&quot;:&quot;img3-m63&quot;,&quot;atom_order&quot;:2},{&quot;id&quot;:2010,&quot;token&quot;:&quot;i:1&quot;,&quot;particle_id&quot;:&quot;img3-m63-p3&quot;,&quot;molecule_id&quot;:&quot;img3-m63&quot;,&quot;atom_order&quot;:3},{&quot;id&quot;:2011,&quot;token&quot;:&quot;d:1&quot;,&quot;particle_id&quot;:&quot;img3-m63-p3&quot;,&quot;molecule_id&quot;:&quot;img3-m63&quot;,&quot;atom_order&quot;:4}]}</metadata>
  <rect x="0" y="0" width="103" height="75" fill="#f8f0d8"/>
  <image href="file:///C:/Users/HHHES/AppData/Roaming/com.voynichlab.datasetcreator/images/1/35a70f63-88ab-4986-b441-b78046a10087.jpg" x="-616" y="-1241" width="2972" height="3766" opacity="0.92"/>
  <rect x="0.5" y="0.5" width="102" height="74" fill="none" stroke="#111827" stroke-width="1" opacity="0.35"/>
  <polyline points="16,41 16,42 16,43 16,44 17,44 17,45 17,46 18,46 18,47 19,48 19,49 20,49 20,50 20,51 21,51 21,52 21,53 22,53 22,54 23,54 23,55 23,56 24,56 24,57 25,58 26,58 26,57 27,57 27,56 28,56 28,55 29,54 29,53 30,53 30,52 31,52 31,51 32,51 32,50 33,49 33,48 34,48 35,48 35,47 36,46 36,45 37,45 37,44 37,45 37,46 38,46 38,47 39,47 39,48 40,49 41,49 41,50 42,51 43,51 43,52 44,52 44,53 45,53 45,54 46,54 46,55 47,55 47,56 48,56 48,57 49,57 49,56 50,56 50,55 50,54 51,54 51,53 52,53 52,52 52,51 53,51 53,50 54,50 54,49 55,49 55,48 56,48 56,47 57,47 57,46 57,45 58,45 58,44 59,44" fill="none" stroke="#ffffff" stroke-width="3" stroke-linecap="round" stroke-linejoin="round" opacity="0.95">
    <title>2008 k:1</title>
  </polyline>
  <polyline points="59,44 59,45 60,45 60,46 61,46 61,47 62,48 62,49 63,49 63,50 64,51 64,52 65,52 65,53 66,53 66,54 67,54 67,55 68,56 68,57 69,57 69,58 70,58 70,59" fill="none" stroke="#00a2ff" stroke-width="3" stroke-linecap="round" stroke-linejoin="round" opacity="0.95">
    <title>2009 f:1</title>
  </polyline>
  <polyline points="70,59 70,58 71,58 72,58 73,57 74,57 75,57 75,56 76,56 77,56 77,55 78,55 78,54 79,54 80,54 80,53 81,53 81,52 82,52 82,51 83,51 83,50 84,50 84,49 85,49 85,48 86,48 86,47 86,46 87,46 87,45 87,44 87,43 87,42 87,41 87,40 87,39 87,38 87,37 87,36 86,36 86,35 86,34 85,34 85,33 84,33 84,32 84,31 83,31 83,30 82,30 82,29 81,29 80,28 79,27 78,26 77,26 77,25 76,25 75,24 74,24 74,23 73,23 72,23" fill="none" stroke="#00ff7f" stroke-width="3" stroke-linecap="round" stroke-linejoin="round" opacity="0.95">
    <title>2010 i:1</title>
  </polyline>
  <polyline points="41,16 42,16 43,16 44,16 45,16 46,16 47,16 48,16 49,16 50,16 51,16 52,16 53,16 54,16 54,17 55,17 56,17 57,17 58,17 58,18 59,18 60,18 61,18 62,19 63,19 64,19 64,20 65,20 66,20 67,20 67,21 68,21 69,21 70,21 70,22 71,22 72,22 72,23 73,23" fill="none" stroke="#ff2d55" stroke-width="3" stroke-linecap="round" stroke-linejoin="round" opacity="0.95">
    <title>2011 d:1</title>
  </polyline>
</svg>
