<?xml version="1.0" encoding="UTF-8"?>
<svg xmlns="http://www.w3.org/2000/svg" width="106" height="100" viewBox="0 0 106 100">
  <title>particle img3-m77-p2 a:1 e:1 b:1 c:1 a:1</title>
  <metadata>{&quot;entityType&quot;:&quot;particle&quot;,&quot;entityId&quot;:&quot;img3-m77-p2&quot;,&quot;token&quot;:&quot;a:1 e:1 b:1 c:1 a:1&quot;,&quot;signature&quot;:&quot;a:1 e:1 b:1 c:1 a:1&quot;,&quot;imageName&quot;:&quot;page-003.jpg&quot;,&quot;imageId&quot;:3,&quot;bounds&quot;:{&quot;x&quot;:1277,&quot;y&quot;:1530,&quot;w&quot;:106,&quot;h&quot;:100},&quot;atoms&quot;:[{&quot;id&quot;:2268,&quot;token&quot;:&quot;a:1&quot;,&quot;particle_id&quot;:&quot;img3-m77-p2&quot;,&quot;molecule_id&quot;:&quot;img3-m77&quot;,&quot;atom_order&quot;:1},{&quot;id&quot;:2271,&quot;token&quot;:&quot;e:1&quot;,&quot;particle_id&quot;:&quot;img3-m77-p2&quot;,&quot;molecule_id&quot;:&quot;img3-m77&quot;,&quot;atom_order&quot;:2},{&quot;id&quot;:2269,&quot;token&quot;:&quot;b:1&quot;,&quot;particle_id&quot;:&quot;img3-m77-p2&quot;,&quot;molecule_id&quot;:&quot;img3-m77&quot;,&quot;atom_order&quot;:3},{&quot;id&quot;:2270,&quot;token&quot;:&quot;c:1&quot;,&quot;particle_id&quot;:&quot;img3-m77-p2&quot;,&quot;molecule_id&quot;:&quot;img3-m77&quot;,&quot;atom_order&quot;:4},{&quot;id&quot;:2272,&quot;token&quot;:&quot;a:1&quot;,&quot;particle_id&quot;:&quot;img3-m77-p2&quot;,&quot;molecule_id&quot;:&quot;img3-m77&quot;,&quot;atom_order&quot;:5}]}</metadata>
  <rect x="0" y="0" width="106" height="100" fill="#f8f0d8"/>
  <image href="file:///C:/Users/HHHES/AppData/Roaming/com.voynichlab.datasetcreator/images/1/35a70f63-88ab-4986-b441-b78046a10087.jpg" x="-1277" y="-1530" width="2972" height="3766" opacity="0.92"/>
  <rect x="0.5" y="0.5" width="105" height="99" fill="none" stroke="#111827" stroke-width="1" opacity="0.35"/>
  <polyline points="41,84 41,83 41,82 41,81 41,80 41,79 41,78 41,77 41,76 41,75 41,74 41,73 41,72 41,71 41,70 41,69 41,68 41,67 41,66 41,65 41,64 41,63 41,62 41,61 41,60 41,59 41,58 41,57 42,57 42,56 42,55 42,54 42,53 42,52 42,51 42,50 42,49 42,48 42,47 42,46 42,45 42,44 42,43 42,42 42,41 42,40 42,39 42,38 42,37 42,36 42,35 43,34 43,33 43,32 43,31 43,30 43,29 43,28 43,27 43,26 43,25 43,24 43,23 43,22 42,21 42,20 41,20 41,19" fill="none" stroke="#00f0b5" stroke-width="3" stroke-linecap="round" stroke-linejoin="round" opacity="0.95">
    <title>2268 a:1</title>
  </polyline>
  <polyline points="25,40 24,40 23,40 23,39 22,39 21,39 20,39 20,38 19,38 18,38 18,37 17,37 17,36 16,36 16,35 16,34 16,33 16,32 17,32 17,31 18,31 18,30 19,30 19,29 20,29 20,28 21,28 22,28 22,27 23,27 23,26 24,26 25,25 26,25 27,25 27,24 28,24 29,24 29,23 30,23 31,23 31,22 32,22 33,22 34,22 34,21 35,21 36,21 37,21 38,20 39,20 40,20 40,19 41,19" fill="none" stroke="#f2e45c" stroke-width="3" stroke-linecap="round" stroke-linejoin="round" opacity="0.95">
    <title>2271 e:1</title>
  </polyline>
  <polyline points="25,40 26,40 27,41 28,41 29,41 30,41 31,41 32,41 32,42 33,42 34,42 35,42 36,42 37,43 38,43 39,43 40,43 41,43 42,43 43,43 44,44 45,44 46,44 47,44 48,44 49,44 50,44 51,44 52,44 53,44 54,44 55,44 56,44 57,44 58,44 59,44 60,43 61,43 62,43 63,43 63,42 64,42 65,42 66,42 67,42 67,41 68,41 69,41 70,41 71,41 72,40 73,40 74,40 75,40 75,39 76,39 77,39 77,38 78,38 79,38 80,37 81,37 81,36 82,36 83,35" fill="none" stroke="#2f7df6" stroke-width="3" stroke-linecap="round" stroke-linejoin="round" opacity="0.95">
    <title>2269 b:1</title>
  </polyline>
  <polyline points="83,35 86,33 87,32 87,31 88,31 88,30 89,30 89,29 89,28 89,27 89,26 89,25 89,24 90,23 90,22 90,21 89,21 89,20 88,19 87,19 87,18 86,18 85,18 85,17 84,17 83,16 82,16 81,16 80,16 79,16 78,16 77,16 76,16 75,16 74,16 74,17 73,17 72,17 71,18 70,18 69,18 69,19 68,19 68,20 67,20 67,21 66,21 65,22 65,23 64,23 64,24 63,24 63,25 63,26 62,26 62,27 62,28 61,28 61,29 61,30 61,31 61,32 61,33 61,34 61,35 61,36 62,36 62,37 63,37 63,38 64,38 65,38 66,38 67,38 68,38 69,39 70,39 71,39 72,39 73,39 73,38 74,38 75,38 76,38 77,38 77,37 78,37 79,37 79,36 80,36 81,36 82,36 82,35 83,35" fill="none" stroke="#8aff00" stroke-width="3" stroke-linecap="round" stroke-linejoin="round" opacity="0.95">
    <title>2270 c:1</title>
  </polyline>
  <polyline points="61,30 61,31 61,32 60,33 60,34 60,35 60,36 60,37 60,38 60,39 60,40 60,41 59,42 59,43 59,44 59,45 59,46 59,47 59,48 59,49 59,50 59,51 59,52 59,53 59,54 59,55 59,56 59,57 59,58 59,59 59,60 59,61 59,62 59,63 59,64 59,65 59,66 59,67 59,68 59,69 59,70 59,71 59,72 60,72 60,73 60,74 60,75 60,76 60,77 60,78 60,79 60,80 60,81 61,81" fill="none" stroke="#00f0b5" stroke-width="3" stroke-linecap="round" stroke-linejoin="round" opacity="0.95">
    <title>2272 a:1</title>
  </polyline>
</svg>
