<?xml version="1.0" encoding="UTF-8"?>
<svg xmlns="http://www.w3.org/2000/svg" width="83" height="77" viewBox="0 0 83 77">
  <title>particle img3-m159-p3 l:1 f:1 i:1 d:1</title>
  <metadata>{&quot;entityType&quot;:&quot;particle&quot;,&quot;entityId&quot;:&quot;img3-m159-p3&quot;,&quot;token&quot;:&quot;l:1 f:1 i:1 d:1&quot;,&quot;signature&quot;:&quot;l:1 f:1 i:1 d:1&quot;,&quot;imageName&quot;:&quot;page-003.jpg&quot;,&quot;imageId&quot;:3,&quot;bounds&quot;:{&quot;x&quot;:951,&quot;y&quot;:2589,&quot;w&quot;:83,&quot;h&quot;:77},&quot;atoms&quot;:[{&quot;id&quot;:3870,&quot;token&quot;:&quot;l:1&quot;,&quot;particle_id&quot;:&quot;img3-m159-p3&quot;,&quot;molecule_id&quot;:&quot;img3-m159&quot;,&quot;atom_order&quot;:1},{&quot;id&quot;:3857,&quot;token&quot;:&quot;f:1&quot;,&quot;particle_id&quot;:&quot;img3-m159-p3&quot;,&quot;molecule_id&quot;:&quot;img3-m159&quot;,&quot;atom_order&quot;:2},{&quot;id&quot;:3873,&quot;token&quot;:&quot;i:1&quot;,&quot;particle_id&quot;:&quot;img3-m159-p3&quot;,&quot;molecule_id&quot;:&quot;img3-m159&quot;,&quot;atom_order&quot;:3},{&quot;id&quot;:3883,&quot;token&quot;:&quot;d:1&quot;,&quot;particle_id&quot;:&quot;img3-m159-p3&quot;,&quot;molecule_id&quot;:&quot;img3-m159&quot;,&quot;atom_order&quot;:4}]}</metadata>
  <rect x="0" y="0" width="83" height="77" fill="#f8f0d8"/>
  <image href="file:///C:/Users/HHHES/AppData/Roaming/com.voynichlab.datasetcreator/images/1/35a70f63-88ab-4986-b441-b78046a10087.jpg" x="-951" y="-2589" width="2972" height="3766" opacity="0.92"/>
  <rect x="0.5" y="0.5" width="82" height="76" fill="none" stroke="#111827" stroke-width="1" opacity="0.35"/>
  <polyline points="16,38 17,38 17,39 18,39 18,40 19,41 20,42 20,43 21,43 21,44 21,45 22,45 22,46 22,47 22,48 23,48 23,49 23,50 24,51 24,52 24,53 25,53 25,54 25,55 26,55 26,56 26,57 27,57 27,58 28,58 28,59 29,58 29,57 29,56 30,56 30,55 31,54 32,53 32,52 33,52 33,51 34,51 34,50 35,50 35,49 36,49 36,48 37,48 37,47 38,47 38,46 39,46 39,45 40,45 40,44 41,44 41,43 42,42 43,42 43,41 44,40" fill="none" stroke="#ff5f1f" stroke-width="3" stroke-linecap="round" stroke-linejoin="round" opacity="0.95">
    <title>3870 l:1</title>
  </polyline>
  <polyline points="43,40 43,41 43,42 44,42 44,43 44,44 45,44 45,45 46,46 46,47 47,47 47,48 48,49 48,50 49,50 49,51 50,51 50,52 51,52 51,53 51,54 52,54 52,55 52,56 53,56 53,57 54,57 54,58 55,59 55,60 56,60 56,61" fill="none" stroke="#00a2ff" stroke-width="3" stroke-linecap="round" stroke-linejoin="round" opacity="0.95">
    <title>3857 f:1</title>
  </polyline>
  <polyline points="56,61 57,61 58,60 59,60 60,59 61,59 61,58 62,58 63,58 63,57 64,57 64,56 65,56 65,55 66,55 66,54 66,53 66,52 67,52 67,51 67,50 67,49 67,48 67,47 67,46 67,45 67,44 67,43 67,42 67,41 67,40 67,39 67,38 67,37 66,37 66,36 66,35 65,35 65,34 64,33 64,32 63,32 63,31 62,31 62,30 61,29 61,28 60,28 59,27 58,26 57,26 57,25 56,24 55,24 55,23 54,23 53,23 53,22 52,22" fill="none" stroke="#00ff7f" stroke-width="3" stroke-linecap="round" stroke-linejoin="round" opacity="0.95">
    <title>3873 i:1</title>
  </polyline>
  <polyline points="19,16 20,16 21,16 22,16 23,16 24,16 25,16 26,16 27,16 28,16 29,16 30,16 31,16 32,16 33,16 34,17 35,17 36,17 37,17 38,17 39,17 39,18 40,18 41,18 42,18 43,18 43,19 44,19 45,19 46,19 47,20 48,20 49,20 50,20 51,21 52,21 53,21 54,21 54,22 55,22 56,22 56,23 57,23 57,24 58,24" fill="none" stroke="#ff2d55" stroke-width="3" stroke-linecap="round" stroke-linejoin="round" opacity="0.95">
    <title>3883 d:1</title>
  </polyline>
</svg>
