<?xml version="1.0" encoding="UTF-8"?>
<svg xmlns="http://www.w3.org/2000/svg" width="120" height="137" viewBox="0 0 120 137">
  <title>particle img3-m2-p1 e:1 a:1 e:1 b:1 c:1 a:1 g:1 e:1</title>
  <metadata>{&quot;entityType&quot;:&quot;particle&quot;,&quot;entityId&quot;:&quot;img3-m2-p1&quot;,&quot;token&quot;:&quot;e:1 a:1 e:1 b:1 c:1 a:1 g:1 e:1&quot;,&quot;signature&quot;:&quot;e:1 a:1 e:1 b:1 c:1 a:1 g:1 e:1&quot;,&quot;imageName&quot;:&quot;page-003.jpg&quot;,&quot;imageId&quot;:3,&quot;bounds&quot;:{&quot;x&quot;:1747,&quot;y&quot;:430,&quot;w&quot;:120,&quot;h&quot;:137},&quot;atoms&quot;:[{&quot;id&quot;:1089,&quot;token&quot;:&quot;e:1&quot;,&quot;particle_id&quot;:&quot;img3-m2-p1&quot;,&quot;molecule_id&quot;:&quot;img3-m2&quot;,&quot;atom_order&quot;:1},{&quot;id&quot;:1097,&quot;token&quot;:&quot;a:1&quot;,&quot;particle_id&quot;:&quot;img3-m2-p1&quot;,&quot;molecule_id&quot;:&quot;img3-m2&quot;,&quot;atom_order&quot;:2},{&quot;id&quot;:1098,&quot;token&quot;:&quot;e:1&quot;,&quot;particle_id&quot;:&quot;img3-m2-p1&quot;,&quot;molecule_id&quot;:&quot;img3-m2&quot;,&quot;atom_order&quot;:3},{&quot;id&quot;:1099,&quot;token&quot;:&quot;b:1&quot;,&quot;particle_id&quot;:&quot;img3-m2-p1&quot;,&quot;molecule_id&quot;:&quot;img3-m2&quot;,&quot;atom_order&quot;:4},{&quot;id&quot;:1100,&quot;token&quot;:&quot;c:1&quot;,&quot;particle_id&quot;:&quot;img3-m2-p1&quot;,&quot;molecule_id&quot;:&quot;img3-m2&quot;,&quot;atom_order&quot;:5},{&quot;id&quot;:1103,&quot;token&quot;:&quot;a:1&quot;,&quot;particle_id&quot;:&quot;img3-m2-p1&quot;,&quot;molecule_id&quot;:&quot;img3-m2&quot;,&quot;atom_order&quot;:6},{&quot;id&quot;:1096,&quot;token&quot;:&quot;g:1&quot;,&quot;particle_id&quot;:&quot;img3-m2-p1&quot;,&quot;molecule_id&quot;:&quot;img3-m2&quot;,&quot;atom_order&quot;:7},{&quot;id&quot;:1090,&quot;token&quot;:&quot;e:1&quot;,&quot;particle_id&quot;:&quot;img3-m2-p1&quot;,&quot;molecule_id&quot;:&quot;img3-m2&quot;,&quot;atom_order&quot;:8}]}</metadata>
  <rect x="0" y="0" width="120" height="137" fill="#f8f0d8"/>
  <image href="file:///C:/Users/HHHES/AppData/Roaming/com.voynichlab.datasetcreator/images/1/35a70f63-88ab-4986-b441-b78046a10087.jpg" x="-1747" y="-430" width="2972" height="3766" opacity="0.92"/>
  <rect x="0.5" y="0.5" width="119" height="136" fill="none" stroke="#111827" stroke-width="1" opacity="0.35"/>
  <polyline points="31,118 31,119 30,119 30,120 29,120 28,120 28,121 27,121 26,121 25,121 24,121 23,121 22,121 21,121 21,120 20,120 19,120 18,120 18,119 17,119 16,119 16,118 16,117 16,116 16,115 16,114 16,113 16,112 17,112 17,111 17,110 17,109 18,109 18,108 18,107 19,107 19,106 19,105 20,105 21,105 21,104 22,104 22,103 23,103 24,103 24,102 25,102 26,102 27,102 27,101" fill="none" stroke="#f2e45c" stroke-width="3" stroke-linecap="round" stroke-linejoin="round" opacity="0.95">
    <title>1089 e:1</title>
  </polyline>
  <polyline points="47,109 47,108 48,108 48,107 48,106 48,105 48,104 48,103 48,102 48,101 48,100 48,99 48,98 48,97 48,96 48,95 49,94 49,93 49,92 49,91 49,90 49,89 49,88 49,87 49,86 49,85 49,84 49,83 49,82 50,82 50,81 50,80 50,79 50,78 50,77 50,76 50,75 50,74 50,73 50,72 50,71 50,70 50,69 50,68 50,67 50,66 50,65 50,64 50,63 50,62 50,61 50,60 50,59 50,58 50,57 50,56 50,55 50,54 50,53 50,52 50,51 50,50 50,49 50,48 50,47 50,46 50,45 50,44 50,43 50,42 50,41 50,40 50,39 50,38 50,37 50,36 50,35 50,34 50,33 50,32 50,31 50,30 50,29 50,28 49,27 49,26 49,25 49,24 49,23 49,22 49,21 49,20 48,20 48,19 48,18 48,17 48,16" fill="none" stroke="#00f0b5" stroke-width="3" stroke-linecap="round" stroke-linejoin="round" opacity="0.95">
    <title>1097 a:1</title>
  </polyline>
  <polyline points="48,16 47,16 46,16 45,16 44,16 43,16 42,17 41,17 40,17 39,17 39,18 38,18 37,18 37,19 36,19 36,20 35,20 35,21 34,21 34,22 33,22 33,23 32,23 32,24 32,25 31,25 31,26 31,27 31,28 31,29 31,30 31,31 31,32 32,32 32,33 33,33 33,34 34,34 34,35 35,35 35,36 36,36 36,37 37,37 38,37 38,38 39,38 40,38 41,38 42,38 42,39 43,39 44,39 45,39" fill="none" stroke="#f2e45c" stroke-width="3" stroke-linecap="round" stroke-linejoin="round" opacity="0.95">
    <title>1098 e:1</title>
  </polyline>
  <polyline points="40,38 41,38 41,39 42,39 43,39 44,39 45,39 46,39 46,40 47,40 48,40 49,40 50,40 51,40 52,40 53,40 54,40 54,41 55,41 56,41 57,41 58,41 59,41 60,41 60,40 61,40 62,40 63,40 64,40 65,40 66,40 67,40 68,39 69,39 70,39 71,39 72,38 73,38 74,38 75,38 75,37 76,37 77,37 77,36 78,36 79,36 79,35 80,35 80,34 81,34 82,34 82,33 83,33 84,33 84,32 85,32 85,31" fill="none" stroke="#2f7df6" stroke-width="3" stroke-linecap="round" stroke-linejoin="round" opacity="0.95">
    <title>1099 b:1</title>
  </polyline>
  <polyline points="85,31 86,31 86,30 86,29 86,28 86,27 86,26 86,25 85,25 85,24 84,24 84,23 83,23 83,22 82,21 82,20 81,20 81,19 80,19 79,19 79,18 78,18 77,18 76,17 75,17 74,17 73,17 72,17 71,17 71,18 70,18 69,18 69,19 68,19 68,20 67,20 67,21 66,21 66,22 65,23 65,24 64,25 64,26 64,27 63,27 63,28 63,29 63,30 62,31 62,32 62,33 62,34 62,35 62,36 62,37 63,37 63,38 64,38 65,38 66,38 67,38 68,38 69,38 70,38 71,38 72,38 73,38 74,38 74,37 75,37 76,37 76,36 77,36 78,36 79,36 80,36 80,35 81,35 81,34 82,34 83,34 83,33 84,33 84,32 85,32 85,31 86,30 86,29" fill="none" stroke="#8aff00" stroke-width="3" stroke-linecap="round" stroke-linejoin="round" opacity="0.95">
    <title>1100 c:1</title>
  </polyline>
  <polyline points="62,34 62,35 62,36 62,37 62,38 62,39 62,40 62,41 62,42 62,43 62,44 62,45 62,46 62,47 62,48 62,49 62,50 62,51 62,52 62,53 62,54 62,55 62,56 62,57 62,58 62,59 62,60 62,61 62,62 62,63 62,64 62,65 62,66 62,67 61,68 61,69 61,70 61,71 61,72 61,73 61,74 61,75 61,76 61,77 61,78 61,79 61,80 61,81 61,82 61,83 61,84 61,85 61,86 61,87 61,88 61,89 61,90 61,91 61,92 61,93 61,94 61,95 61,96 62,96 62,97 62,98 62,99 62,100 62,101 62,102 62,103 62,104 62,105 62,106 62,107" fill="none" stroke="#00f0b5" stroke-width="3" stroke-linecap="round" stroke-linejoin="round" opacity="0.95">
    <title>1103 a:1</title>
  </polyline>
  <polyline points="27,102 27,101 28,101 28,102 29,102 30,102 31,102 32,102 33,102 34,102 35,102 36,102 37,102 38,102 39,102 40,102 41,102 42,102 43,102 44,102 45,102 46,102 47,102 48,102 49,102 50,102 51,102 52,102 53,102 54,102 55,102 56,102 57,102 58,102 59,102 60,102 61,102 62,102 63,102 64,102 65,102 66,102 67,102 68,102 69,102 70,102 71,102 72,102 73,102 74,102 75,102 76,102 77,103 78,103 79,103 80,103 81,103 82,103 83,103 84,103 85,103 86,103 87,103 88,103 89,103 90,103 91,103 92,103 93,103 94,103 95,103 96,103 96,102 97,102 98,102 99,102" fill="none" stroke="#7c3cff" stroke-width="3" stroke-linecap="round" stroke-linejoin="round" opacity="0.95">
    <title>1096 g:1</title>
  </polyline>
  <polyline points="104,118 104,119 103,119 103,120 102,120 101,120 101,121 100,121 99,121 98,121 97,121 96,121 95,121 94,121 94,120 93,120 92,120 91,120 91,119 90,119 89,119 89,118 89,117 89,116 89,115 89,114 89,113 89,112 90,112 90,111 90,110 90,109 91,109 91,108 91,107 92,107 92,106 92,105 93,105 94,105 94,104 95,104 95,103 96,103 97,103 97,102 98,102 99,102 100,102 100,101" fill="none" stroke="#f2e45c" stroke-width="3" stroke-linecap="round" stroke-linejoin="round" opacity="0.95">
    <title>1090 e:1</title>
  </polyline>
</svg>
