<?xml version="1.0" encoding="UTF-8"?>
<svg xmlns="http://www.w3.org/2000/svg" width="78" height="93" viewBox="0 0 78 93">
  <title>particle img3-m153-p3 f:1 i:1 d:1</title>
  <metadata>{&quot;entityType&quot;:&quot;particle&quot;,&quot;entityId&quot;:&quot;img3-m153-p3&quot;,&quot;token&quot;:&quot;f:1 i:1 d:1&quot;,&quot;signature&quot;:&quot;f:1 i:1 d:1&quot;,&quot;imageName&quot;:&quot;page-003.jpg&quot;,&quot;imageId&quot;:3,&quot;bounds&quot;:{&quot;x&quot;:2264,&quot;y&quot;:2523,&quot;w&quot;:78,&quot;h&quot;:93},&quot;atoms&quot;:[{&quot;id&quot;:3810,&quot;token&quot;:&quot;f:1&quot;,&quot;particle_id&quot;:&quot;img3-m153-p3&quot;,&quot;molecule_id&quot;:&quot;img3-m153&quot;,&quot;atom_order&quot;:1},{&quot;id&quot;:3811,&quot;token&quot;:&quot;i:1&quot;,&quot;particle_id&quot;:&quot;img3-m153-p3&quot;,&quot;molecule_id&quot;:&quot;img3-m153&quot;,&quot;atom_order&quot;:2},{&quot;id&quot;:3812,&quot;token&quot;:&quot;d:1&quot;,&quot;particle_id&quot;:&quot;img3-m153-p3&quot;,&quot;molecule_id&quot;:&quot;img3-m153&quot;,&quot;atom_order&quot;:3}]}</metadata>
  <rect x="0" y="0" width="78" height="93" fill="#f8f0d8"/>
  <image href="file:///C:/Users/HHHES/AppData/Roaming/com.voynichlab.datasetcreator/images/1/35a70f63-88ab-4986-b441-b78046a10087.jpg" x="-2264" y="-2523" width="2972" height="3766" opacity="0.92"/>
  <rect x="0.5" y="0.5" width="77" height="92" fill="none" stroke="#111827" stroke-width="1" opacity="0.35"/>
  <polyline points="28,56 28,57 28,58 29,58 29,59 29,60 30,60 30,61 31,62 31,63 32,63 32,64 33,65 33,66 34,66 34,67 35,67 35,68 36,68 36,69 36,70 37,70 37,71 37,72 38,72 38,73 39,73 39,74 40,75 40,76 41,76 41,77" fill="none" stroke="#00a2ff" stroke-width="3" stroke-linecap="round" stroke-linejoin="round" opacity="0.95">
    <title>3810 f:1</title>
  </polyline>
  <polyline points="31,61 32,61 33,61 34,61 35,61 36,61 37,61 38,61 39,60 40,60 41,60 42,60 42,59 43,59 44,59 44,58 45,58 46,58 46,57 47,56 48,56 48,55 49,55 50,54 51,53 52,53 52,52 53,52 53,51 54,51 54,50 55,50 55,49 56,49 56,48 57,48 58,47 58,46 59,46 59,45 59,44 60,44 60,43 60,42 61,42 61,41 61,40 61,39 61,38 62,37 62,36 62,35 62,34 62,33 62,32 62,31 62,30 61,30 61,29 60,29 60,28 59,28 59,27 58,26 58,25 57,25" fill="none" stroke="#00ff7f" stroke-width="3" stroke-linecap="round" stroke-linejoin="round" opacity="0.95">
    <title>3811 i:1</title>
  </polyline>
  <polyline points="16,23 17,23 18,23 18,22 19,22 19,21 20,21 20,20 21,20 21,19 22,19 23,19 23,18 24,18 25,18 25,17 26,17 27,17 28,17 28,16 29,16 30,16 31,16 32,16 33,16 34,16 35,16 36,16 37,16 38,16 39,16 40,16 41,16 41,17 42,17 43,17 43,18 44,18 45,18 46,19 47,19 47,20 48,20 49,20 49,21 50,21 51,21 51,22 52,22 52,23 53,23 53,24 54,24 55,24 55,25 56,25 56,26 57,26 57,27 58,27 58,28" fill="none" stroke="#ff2d55" stroke-width="3" stroke-linecap="round" stroke-linejoin="round" opacity="0.95">
    <title>3812 d:1</title>
  </polyline>
</svg>
