<?xml version="1.0" encoding="UTF-8"?>
<svg xmlns="http://www.w3.org/2000/svg" width="86" height="54" viewBox="0 0 86 54">
  <title>particle img3-m190-p2 e:1 g:1 e:1</title>
  <metadata>{&quot;entityType&quot;:&quot;particle&quot;,&quot;entityId&quot;:&quot;img3-m190-p2&quot;,&quot;token&quot;:&quot;e:1 g:1 e:1&quot;,&quot;signature&quot;:&quot;e:1 g:1 e:1&quot;,&quot;imageName&quot;:&quot;page-003.jpg&quot;,&quot;imageId&quot;:3,&quot;bounds&quot;:{&quot;x&quot;:2068,&quot;y&quot;:2915,&quot;w&quot;:86,&quot;h&quot;:54},&quot;atoms&quot;:[{&quot;id&quot;:4085,&quot;token&quot;:&quot;e:1&quot;,&quot;particle_id&quot;:&quot;img3-m190-p2&quot;,&quot;molecule_id&quot;:&quot;img3-m190&quot;,&quot;atom_order&quot;:1},{&quot;id&quot;:4091,&quot;token&quot;:&quot;g:1&quot;,&quot;particle_id&quot;:&quot;img3-m190-p2&quot;,&quot;molecule_id&quot;:&quot;img3-m190&quot;,&quot;atom_order&quot;:2},{&quot;id&quot;:4086,&quot;token&quot;:&quot;e:1&quot;,&quot;particle_id&quot;:&quot;img3-m190-p2&quot;,&quot;molecule_id&quot;:&quot;img3-m190&quot;,&quot;atom_order&quot;:3}]}</metadata>
  <rect x="0" y="0" width="86" height="54" fill="#f8f0d8"/>
  <image href="file:///C:/Users/HHHES/AppData/Roaming/com.voynichlab.datasetcreator/images/1/35a70f63-88ab-4986-b441-b78046a10087.jpg" x="-2068" y="-2915" width="2972" height="3766" opacity="0.92"/>
  <rect x="0.5" y="0.5" width="85" height="53" fill="none" stroke="#111827" stroke-width="1" opacity="0.35"/>
  <polyline points="31,33 31,34 30,34 30,35 29,35 28,35 28,36 27,36 26,36 25,36 24,36 23,36 22,36 21,36 21,35 20,35 19,35 18,35 18,34 17,34 16,34 16,33 16,32 16,31 16,30 16,29 16,28 16,27 17,27 17,26 17,25 17,24 18,24 18,23 18,22 19,22 19,21 19,20 20,20 21,20 21,19 22,19 22,18 23,18 24,18 24,17 25,17 26,17 27,17 27,16" fill="none" stroke="#f2e45c" stroke-width="3" stroke-linecap="round" stroke-linejoin="round" opacity="0.95">
    <title>4085 e:1</title>
  </polyline>
  <polyline points="25,17 26,17 27,17 28,17 29,17 30,17 31,17 32,17 33,17 34,17 35,17 36,17 37,17 39,17 40,17 42,17 43,17 44,17 45,17 46,17 47,17 48,17 49,17 50,17 51,17 52,17 53,17 54,17 55,17 55,18 56,18 58,18 59,18 60,18 61,18 62,18 63,18 64,19 65,19" fill="none" stroke="#7c3cff" stroke-width="3" stroke-linecap="round" stroke-linejoin="round" opacity="0.95">
    <title>4091 g:1</title>
  </polyline>
  <polyline points="70,35 70,36 69,36 69,37 68,37 67,37 67,38 66,38 65,38 64,38 63,38 62,38 61,38 60,38 60,37 59,37 58,37 57,37 57,36 56,36 55,36 55,35 55,34 55,33 55,32 55,31 55,30 55,29 56,29 56,28 56,27 56,26 57,26 57,25 57,24 58,24 58,23 58,22 59,22 60,22 60,21 61,21 61,20 62,20 63,20 63,19 64,19 65,19 66,19 66,18" fill="none" stroke="#f2e45c" stroke-width="3" stroke-linecap="round" stroke-linejoin="round" opacity="0.95">
    <title>4086 e:1</title>
  </polyline>
</svg>
