<?xml version="1.0" encoding="UTF-8"?>
<svg xmlns="http://www.w3.org/2000/svg" width="118" height="113" viewBox="0 0 118 113">
  <title>particle img3-m182-p1 a:1 b:1 c:1 a:1 c:2 g:1 e:1</title>
  <metadata>{&quot;entityType&quot;:&quot;particle&quot;,&quot;entityId&quot;:&quot;img3-m182-p1&quot;,&quot;token&quot;:&quot;a:1 b:1 c:1 a:1 c:2 g:1 e:1&quot;,&quot;signature&quot;:&quot;a:1 b:1 c:1 a:1 c:2 g:1 e:1&quot;,&quot;imageName&quot;:&quot;page-003.jpg&quot;,&quot;imageId&quot;:3,&quot;bounds&quot;:{&quot;x&quot;:938,&quot;y&quot;:2806,&quot;w&quot;:118,&quot;h&quot;:113},&quot;atoms&quot;:[{&quot;id&quot;:4193,&quot;token&quot;:&quot;a:1&quot;,&quot;particle_id&quot;:&quot;img3-m182-p1&quot;,&quot;molecule_id&quot;:&quot;img3-m182&quot;,&quot;atom_order&quot;:1},{&quot;id&quot;:4212,&quot;token&quot;:&quot;b:1&quot;,&quot;particle_id&quot;:&quot;img3-m182-p1&quot;,&quot;molecule_id&quot;:&quot;img3-m182&quot;,&quot;atom_order&quot;:2},{&quot;id&quot;:4161,&quot;token&quot;:&quot;c:1&quot;,&quot;particle_id&quot;:&quot;img3-m182-p1&quot;,&quot;molecule_id&quot;:&quot;img3-m182&quot;,&quot;atom_order&quot;:3},{&quot;id&quot;:4194,&quot;token&quot;:&quot;a:1&quot;,&quot;particle_id&quot;:&quot;img3-m182-p1&quot;,&quot;molecule_id&quot;:&quot;img3-m182&quot;,&quot;atom_order&quot;:4},{&quot;id&quot;:4162,&quot;token&quot;:&quot;c:2&quot;,&quot;particle_id&quot;:&quot;img3-m182-p1&quot;,&quot;molecule_id&quot;:&quot;img3-m182&quot;,&quot;atom_order&quot;:5},{&quot;id&quot;:4145,&quot;token&quot;:&quot;g:1&quot;,&quot;particle_id&quot;:&quot;img3-m182-p1&quot;,&quot;molecule_id&quot;:&quot;img3-m182&quot;,&quot;atom_order&quot;:6},{&quot;id&quot;:4117,&quot;token&quot;:&quot;e:1&quot;,&quot;particle_id&quot;:&quot;img3-m182-p1&quot;,&quot;molecule_id&quot;:&quot;img3-m182&quot;,&quot;atom_order&quot;:7}]}</metadata>
  <rect x="0" y="0" width="118" height="113" fill="#f8f0d8"/>
  <image href="file:///C:/Users/HHHES/AppData/Roaming/com.voynichlab.datasetcreator/images/1/35a70f63-88ab-4986-b441-b78046a10087.jpg" x="-938" y="-2806" width="2972" height="3766" opacity="0.92"/>
  <rect x="0.5" y="0.5" width="117" height="112" fill="none" stroke="#111827" stroke-width="1" opacity="0.35"/>
  <polyline points="17,94 17,93 18,92 18,91 18,90 18,89 18,88 19,87 19,86 19,85 19,84 19,83 19,82 18,82 18,81 18,80 18,79 18,78 18,77 18,76 18,75 18,74 18,73 18,72 18,71 18,70 18,69 18,68 18,67 18,66 18,65 18,64 18,63 18,62 18,61 19,60 19,59 19,58 19,57 19,56 19,55 20,54 20,53 20,52 20,51 20,50 20,49 20,48 20,47 20,46 20,45 20,44 20,43 21,42 21,41 21,40 21,39 21,38 21,37 21,36 21,35 21,34 21,33 21,32 21,31 21,30 21,29 21,28 21,27 21,26 21,25 21,24 21,23 21,22 21,21 21,20 21,19 21,18 21,17" fill="none" stroke="#00f0b5" stroke-width="3" stroke-linecap="round" stroke-linejoin="round" opacity="0.95">
    <title>4193 a:1</title>
  </polyline>
  <polyline points="21,21 21,22 21,23 21,24 22,24 22,25 22,26 23,27 23,28 24,28 24,29 25,30 26,30 26,31 27,31 28,31 28,32 29,32 30,32 31,32 32,33 33,33 34,33 35,33 36,33 37,33 38,33 39,33 40,33 41,33 42,33 43,33 44,33 45,33 46,33 47,33 48,32 49,32 49,31 50,31 51,31" fill="none" stroke="#2f7df6" stroke-width="3" stroke-linecap="round" stroke-linejoin="round" opacity="0.95">
    <title>4212 b:1</title>
  </polyline>
  <polyline points="40,20 40,21 39,21 39,22 38,22 38,23 38,24 38,25 38,26 38,27 38,28 39,28 39,29 40,29 40,30 41,30 41,31 42,31 43,32 44,32 45,32 45,33 46,33 47,33 48,33 49,32 50,32 51,32 52,31 53,31 53,30 54,29 55,29 55,28 56,28 56,27 57,26 57,25 58,24 58,23 58,22 58,21 58,20 58,19 57,19 57,18 56,18 56,17 55,17 54,17 53,17 52,17 51,17 51,16 50,16 49,16 48,16 47,16 46,16 45,17 44,17 44,18 43,18 42,18 42,19 41,19 40,19 40,20 39,21 39,22" fill="none" stroke="#8aff00" stroke-width="3" stroke-linecap="round" stroke-linejoin="round" opacity="0.95">
    <title>4161 c:1</title>
  </polyline>
  <polyline points="34,97 34,96 35,95 35,94 35,93 35,92 35,91 36,90 36,89 36,88 36,87 36,86 36,85 35,85 35,84 35,83 35,82 35,81 35,80 35,79 35,78 35,77 35,76 35,75 35,74 35,73 35,72 35,71 35,70 35,69 35,68 35,67 35,66 35,65 35,64 36,63 36,62 36,61 36,60 36,59 36,58 37,57 37,56 37,55 37,54 37,53 37,52 37,51 37,50 37,49 37,48 37,47 37,46 38,45 38,44 38,43 38,42 38,41 38,40 38,39 38,38 38,37 38,36 38,35 38,34 38,33 38,32 38,31 38,30 38,29 38,28 38,27 38,26 38,25 38,24 38,23 38,22 38,21 38,20" fill="none" stroke="#00f0b5" stroke-width="3" stroke-linecap="round" stroke-linejoin="round" opacity="0.95">
    <title>4194 a:1</title>
  </polyline>
  <polyline points="62,76 61,76 60,76 60,77 59,77 59,78 58,78 58,79 57,79 57,80 57,81 56,81 56,82 55,83 55,84 55,85 55,86 55,87 55,88 56,88 56,89 57,89 57,90 58,90 59,90 60,90 61,91 62,91 63,91 64,91 65,91 66,91 67,91 67,90 68,90 68,89 69,89 69,88 70,88 70,87 71,87 71,86 71,85 72,84 72,83 72,82 72,81 72,80 72,79 72,78 72,77 71,76 70,76 70,75 69,75 69,74 68,74 67,74 66,74 65,74 64,74 63,74 63,75 62,75 62,76 61,76 61,77 60,77 60,78 59,78 59,79 58,80 58,81 58,82 58,83 58,84 58,85 58,86 58,87 59,87 59,88 60,88 61,88 62,88 63,88 64,89 65,89 66,89 67,89 68,88 68,87 69,87 69,86 69,85 69,84 69,83 70,82 70,81 70,80 70,79 70,78 69,77 68,76 67,76 67,75 66,75 65,75 64,75 63,75 63,76 62,76 62,77 61,78 60,79 60,80 59,80 59,81 58,81 58,82 57,83 57,84 56,85 56,86 57,86 57,87 58,87 58,88 59,88 59,89 60,89 61,89 62,89 63,89 64,89 65,88 66,88 67,87 68,87 68,86 68,85 69,84 69,83 69,82 69,81 68,80 68,79 68,78 67,78 67,77 66,77 66,76 65,76 64,76 63,76 63,77 62,77 62,78 61,79 60,80 59,81 59,82 59,83 58,83 58,84 59,85 60,85 61,86 62,86 63,86 64,86 65,86 66,86 67,85 67,84 67,83 67,82 67,81 66,80 65,79 65,78 64,78 63,78 62,78 62,79 61,79 60,80 60,81 60,82 59,82 59,83 60,84 60,85 61,86 62,86 63,86 64,85 65,84 66,83 66,82 66,81 67,81 67,80 66,80 65,80 64,80 63,80 62,80 62,81 61,81 60,83 60,84 60,85 61,85 63,85 64,84 65,84 65,83 66,82 66,81 65,81 64,81 62,81 61,82 60,83 60,84 60,85 61,86 62,86 63,86 65,85 65,84 65,83 66,83 65,82 64,82 63,83 62,84 62,85 62,86 63,86 64,85 64,84 63,84 63,85 63,86 63,85 62,85 61,85 61,86 61,87 62,87 63,87 64,87 65,87 66,87 68,86 69,85 70,83 70,82 70,81 70,80 69,80 69,79 68,79 67,79 66,79 65,79 64,80 63,81 63,82 63,83 63,85 63,86 64,86 66,86 68,85 69,84 70,83 70,81 70,80 70,79 70,78 69,77 68,77 67,76 66,76 64,76 63,76 62,76 61,76 60,77 59,78 59,80 59,81 59,82 60,83 61,83 63,83 65,83 65,82 66,82 66,81 67,80 67,79 68,78 68,77 67,76 66,76 65,76 65,77 65,78 65,79 66,79 67,79 68,79 69,78 70,78 70,77 70,76 69,76 68,76 67,77 66,77 66,79 65,79 65,80 65,81 64,81 64,82 64,83 63,84 63,85 62,85 62,86 61,86 61,87 61,88 60,88 60,89 61,89 62,89 63,89 64,89" fill="none" stroke="#8aff00" stroke-width="3" stroke-linecap="round" stroke-linejoin="round" opacity="0.95">
    <title>4162 c:2</title>
  </polyline>
  <polyline points="16,81 17,81 18,81 19,81 20,81 21,81 22,81 23,81 24,81 26,81 27,81 28,81 29,81 30,81 31,81 32,81 33,81 35,81 36,81 37,81 38,81 39,81 40,81 41,81 42,81 43,81 45,81 46,81 46,80 47,80 48,80 49,80 50,80 51,79 52,79 53,79 54,79 55,79 56,79 57,79 58,79 60,79 61,79 62,79 63,79 65,78 66,78 68,78 69,78 71,78 72,78 73,78 74,78 75,78 76,78 77,78 78,77 79,77 80,77 81,77 82,77 83,77 84,77 85,77 86,77 87,77 88,77 89,77 90,77 91,76 92,76 93,76 94,76 94,75 95,75 96,75 97,75" fill="none" stroke="#7c3cff" stroke-width="3" stroke-linecap="round" stroke-linejoin="round" opacity="0.95">
    <title>4145 g:1</title>
  </polyline>
  <polyline points="102,91 102,92 101,92 101,93 100,93 99,93 99,94 98,94 97,94 96,94 95,94 94,94 93,94 92,94 92,93 91,93 90,93 89,93 89,92 88,92 87,92 87,91 87,90 87,89 87,88 87,87 87,86 87,85 88,85 88,84 88,83 88,82 89,82 89,81 89,80 90,80 90,79 90,78 91,78 92,78 92,77 93,77 93,76 94,76 95,76 95,75 96,75 97,75 98,75 98,74" fill="none" stroke="#f2e45c" stroke-width="3" stroke-linecap="round" stroke-linejoin="round" opacity="0.95">
    <title>4117 e:1</title>
  </polyline>
</svg>
