<?xml version="1.0" encoding="UTF-8"?>
<svg xmlns="http://www.w3.org/2000/svg" width="113" height="107" viewBox="0 0 113 107">
  <title>particle img3-m103-p3 e:1 a:1 b:1 c:1 a:1 g:1 e:1</title>
  <metadata>{&quot;entityType&quot;:&quot;particle&quot;,&quot;entityId&quot;:&quot;img3-m103-p3&quot;,&quot;token&quot;:&quot;e:1 a:1 b:1 c:1 a:1 g:1 e:1&quot;,&quot;signature&quot;:&quot;e:1 a:1 b:1 c:1 a:1 g:1 e:1&quot;,&quot;imageName&quot;:&quot;page-003.jpg&quot;,&quot;imageId&quot;:3,&quot;bounds&quot;:{&quot;x&quot;:791,&quot;y&quot;:1788,&quot;w&quot;:113,&quot;h&quot;:107},&quot;atoms&quot;:[{&quot;id&quot;:3151,&quot;token&quot;:&quot;e:1&quot;,&quot;particle_id&quot;:&quot;img3-m103-p3&quot;,&quot;molecule_id&quot;:&quot;img3-m103&quot;,&quot;atom_order&quot;:1},{&quot;id&quot;:3218,&quot;token&quot;:&quot;a:1&quot;,&quot;particle_id&quot;:&quot;img3-m103-p3&quot;,&quot;molecule_id&quot;:&quot;img3-m103&quot;,&quot;atom_order&quot;:2},{&quot;id&quot;:3217,&quot;token&quot;:&quot;b:1&quot;,&quot;particle_id&quot;:&quot;img3-m103-p3&quot;,&quot;molecule_id&quot;:&quot;img3-m103&quot;,&quot;atom_order&quot;:3},{&quot;id&quot;:3171,&quot;token&quot;:&quot;c:1&quot;,&quot;particle_id&quot;:&quot;img3-m103-p3&quot;,&quot;molecule_id&quot;:&quot;img3-m103&quot;,&quot;atom_order&quot;:4},{&quot;id&quot;:3219,&quot;token&quot;:&quot;a:1&quot;,&quot;particle_id&quot;:&quot;img3-m103-p3&quot;,&quot;molecule_id&quot;:&quot;img3-m103&quot;,&quot;atom_order&quot;:5},{&quot;id&quot;:3201,&quot;token&quot;:&quot;g:1&quot;,&quot;particle_id&quot;:&quot;img3-m103-p3&quot;,&quot;molecule_id&quot;:&quot;img3-m103&quot;,&quot;atom_order&quot;:6},{&quot;id&quot;:3152,&quot;token&quot;:&quot;e:1&quot;,&quot;particle_id&quot;:&quot;img3-m103-p3&quot;,&quot;molecule_id&quot;:&quot;img3-m103&quot;,&quot;atom_order&quot;:7}]}</metadata>
  <rect x="0" y="0" width="113" height="107" fill="#f8f0d8"/>
  <image href="file:///C:/Users/HHHES/AppData/Roaming/com.voynichlab.datasetcreator/images/1/35a70f63-88ab-4986-b441-b78046a10087.jpg" x="-791" y="-1788" width="2972" height="3766" opacity="0.92"/>
  <rect x="0.5" y="0.5" width="112" height="106" fill="none" stroke="#111827" stroke-width="1" opacity="0.35"/>
  <polyline points="31,88 31,89 30,89 30,90 29,90 28,90 28,91 27,91 26,91 25,91 24,91 23,91 22,91 21,91 21,90 20,90 19,90 18,90 18,89 17,89 16,89 16,88 16,87 16,86 16,85 16,84 16,83 16,82 17,82 17,81 17,80 17,79 18,79 18,78 18,77 19,77 19,76 19,75 20,75 21,75 21,74 22,74 22,73 23,73 24,73 24,72 25,72 26,72 27,72 27,71" fill="none" stroke="#f2e45c" stroke-width="3" stroke-linecap="round" stroke-linejoin="round" opacity="0.95">
    <title>3151 e:1</title>
  </polyline>
  <polyline points="42,31 42,32 42,33 42,34 42,35 42,36 42,37 42,38 42,39 42,40 42,41 42,42 43,43 43,44 43,45 43,46 43,47 43,48 43,49 43,50 43,51 43,52 43,53 43,54 43,55 43,56 43,57 43,58 43,59 43,60 44,61 44,62 44,63 44,64 44,65 44,66 44,67 44,68 44,69 44,70 44,71 44,72 44,73 44,74 44,75 44,76 44,77 44,78 44,79 44,80 44,81 44,82 43,82 43,83" fill="none" stroke="#00f0b5" stroke-width="3" stroke-linecap="round" stroke-linejoin="round" opacity="0.95">
    <title>3218 a:1</title>
  </polyline>
  <polyline points="42,31 42,32 43,32 43,33 44,33 45,34 46,34 46,35 47,35 48,35 48,36 49,36 50,36 51,37 52,37 53,37 54,37 55,37 55,38 56,38 57,38 58,38 59,38 60,38 60,39 61,39 62,39 63,39 64,39 65,39 66,39 67,39 68,39 69,39 70,39 71,39 72,39 73,39 74,39 75,39 76,39 77,39 78,39 79,38 80,38 81,38 82,38 83,38 83,37 84,37 85,37 86,37 86,36 87,36" fill="none" stroke="#2f7df6" stroke-width="3" stroke-linecap="round" stroke-linejoin="round" opacity="0.95">
    <title>3217 b:1</title>
  </polyline>
  <polyline points="89,35 90,35 90,34 91,34 91,33 92,33 92,32 93,32 93,31 94,31 94,30 95,30 95,29 95,28 95,27 95,26 95,25 95,24 95,23 95,22 95,21 94,21 94,20 94,19 93,19 93,18 92,18 92,17 91,17 91,16 90,16 89,16 88,16 87,16 86,16 85,16 84,16 83,16 82,16 81,16 80,16 79,17 78,17 77,17 76,17 76,18 75,18 75,19 74,19 73,20 72,21 72,22 71,22 71,23 70,23 70,24 70,25 70,26 70,27 70,28 70,29 70,30 70,31 70,32 71,32 71,33 72,34 73,35 74,35 75,36 76,36 77,36 78,36 79,36 79,37 80,37 81,37 82,37 82,36 83,36 84,36 85,36 86,36 87,36 88,36 88,35 89,35 90,35" fill="none" stroke="#8aff00" stroke-width="3" stroke-linecap="round" stroke-linejoin="round" opacity="0.95">
    <title>3171 c:1</title>
  </polyline>
  <polyline points="70,28 70,29 70,30 70,31 70,32 70,33 70,34 70,35 70,36 70,37 70,38 70,39 70,40 70,41 70,42 70,43 70,44 70,45 70,46 70,47 70,48 69,49 69,50 69,51 69,52 69,53 69,54 69,55 69,57 69,58 69,59 69,60 69,61 69,62 69,63 69,64 69,65 69,66 69,67 69,68 69,69 69,70 69,71 69,72 69,73 69,74 69,75 68,76 68,77 68,78 68,79 68,80 68,81 68,82 68,83 68,84 68,85 68,86 68,87 69,87 69,88 69,89" fill="none" stroke="#00f0b5" stroke-width="3" stroke-linecap="round" stroke-linejoin="round" opacity="0.95">
    <title>3219 a:1</title>
  </polyline>
  <polyline points="27,72 28,72 29,71 30,71 31,71 32,71 33,71 34,71 36,72 37,72 39,72 40,72 41,72 42,72 43,72 44,72 45,73 46,73 47,73 48,73 49,73 50,73 52,73 53,73 54,73 55,73 56,73 58,73 59,73 60,73 61,73 62,73 63,73 64,73 65,73 66,73 67,73 68,73 69,73 70,73 71,73 72,73 73,73 74,73 75,73 76,73 77,73 78,73 79,73 80,73 81,73 82,73 83,73 84,73 84,72 85,72 86,72 87,72 88,72 89,72 90,72 91,72 92,72" fill="none" stroke="#7c3cff" stroke-width="3" stroke-linecap="round" stroke-linejoin="round" opacity="0.95">
    <title>3201 g:1</title>
  </polyline>
  <polyline points="97,88 97,89 96,89 96,90 95,90 94,90 94,91 93,91 92,91 91,91 90,91 89,91 88,91 87,91 87,90 86,90 85,90 84,90 84,89 83,89 82,89 82,88 82,87 82,86 82,85 82,84 82,83 82,82 83,82 83,81 83,80 83,79 84,79 84,78 84,77 85,77 85,76 85,75 86,75 87,75 87,74 88,74 88,73 89,73 90,73 90,72 91,72 92,72 93,72 93,71" fill="none" stroke="#f2e45c" stroke-width="3" stroke-linecap="round" stroke-linejoin="round" opacity="0.95">
    <title>3152 e:1</title>
  </polyline>
</svg>
