<?xml version="1.0" encoding="UTF-8"?>
<svg xmlns="http://www.w3.org/2000/svg" width="65" height="73" viewBox="0 0 65 73">
  <title>particle img3-m169-p1 e:1 c:1 h:2</title>
  <metadata>{&quot;entityType&quot;:&quot;particle&quot;,&quot;entityId&quot;:&quot;img3-m169-p1&quot;,&quot;token&quot;:&quot;e:1 c:1 h:2&quot;,&quot;signature&quot;:&quot;e:1 c:1 h:2&quot;,&quot;imageName&quot;:&quot;page-003.jpg&quot;,&quot;imageId&quot;:3,&quot;bounds&quot;:{&quot;x&quot;:1322,&quot;y&quot;:2676,&quot;w&quot;:65,&quot;h&quot;:73},&quot;atoms&quot;:[{&quot;id&quot;:3911,&quot;token&quot;:&quot;e:1&quot;,&quot;particle_id&quot;:&quot;img3-m169-p1&quot;,&quot;molecule_id&quot;:&quot;img3-m169&quot;,&quot;atom_order&quot;:1},{&quot;id&quot;:3936,&quot;token&quot;:&quot;c:1&quot;,&quot;particle_id&quot;:&quot;img3-m169-p1&quot;,&quot;molecule_id&quot;:&quot;img3-m169&quot;,&quot;atom_order&quot;:2},{&quot;id&quot;:3991,&quot;token&quot;:&quot;h:2&quot;,&quot;particle_id&quot;:&quot;img3-m169-p1&quot;,&quot;molecule_id&quot;:&quot;img3-m169&quot;,&quot;atom_order&quot;:3}]}</metadata>
  <rect x="0" y="0" width="65" height="73" fill="#f8f0d8"/>
  <image href="file:///C:/Users/HHHES/AppData/Roaming/com.voynichlab.datasetcreator/images/1/35a70f63-88ab-4986-b441-b78046a10087.jpg" x="-1322" y="-2676" width="2972" height="3766" opacity="0.92"/>
  <rect x="0.5" y="0.5" width="64" height="72" fill="none" stroke="#111827" stroke-width="1" opacity="0.35"/>
  <polyline points="31,54 31,55 30,55 30,56 29,56 28,56 28,57 27,57 26,57 25,57 24,57 23,57 22,57 21,57 21,56 20,56 19,56 18,56 18,55 17,55 16,55 16,54 16,53 16,52 16,51 16,50 16,49 16,48 17,48 17,47 17,46 17,45 18,45 18,44 18,43 19,43 19,42 19,41 20,41 21,41 21,40 22,40 22,39 23,39 24,39 24,38 25,38 26,38 27,38 27,37" fill="none" stroke="#f2e45c" stroke-width="3" stroke-linecap="round" stroke-linejoin="round" opacity="0.95">
    <title>3911 e:1</title>
  </polyline>
  <polyline points="43,30 44,30 45,30 46,29 47,29 47,28 48,28 48,27 48,26 49,26 49,25 49,24 49,23 49,22 48,21 47,21 47,20 46,19 45,18 44,18 44,17 43,17 42,16 41,16 40,16 39,16 38,16 37,17 36,17 34,17 34,18 33,18 32,18 31,18 31,19 30,19 29,19 29,20 28,20 28,21 27,22 27,23 27,24 27,25 27,26 27,27 27,28 27,29 28,29 28,30 29,30 29,31 30,31 30,32 31,32 32,32 32,33 33,33 34,33 35,33 36,33 37,33 38,33 39,33 40,33 41,33 42,33 42,32 43,32 44,32 44,31 45,31 45,30 46,30 46,29 47,28 47,27" fill="none" stroke="#8aff00" stroke-width="3" stroke-linecap="round" stroke-linejoin="round" opacity="0.95">
    <title>3936 c:1</title>
  </polyline>
  <polyline points="29,56 30,56 30,55 31,55 32,55 32,54 33,54 33,53 34,53 34,52 35,52 35,51 35,50 35,49 35,48 35,47 35,46 36,46 36,45 36,44 36,43 36,42 36,41 35,41 35,40 35,39 34,38 33,37 32,36 31,35 30,34 29,33 28,32 27,31 27,30 26,30 25,29 24,28 24,27 24,26 24,25 24,24 24,23 25,22 26,22 26,21 27,21 28,20 29,20 30,20 30,19 31,19 32,19 33,19 33,18 34,18" fill="none" stroke="#ff8c00" stroke-width="3" stroke-linecap="round" stroke-linejoin="round" opacity="0.95">
    <title>3991 h:2</title>
  </polyline>
</svg>
