<?xml version="1.0" encoding="UTF-8"?>
<svg xmlns="http://www.w3.org/2000/svg" width="82" height="55" viewBox="0 0 82 55">
  <title>particle img3-m152-p4 e:1 g:1 e:1</title>
  <metadata>{&quot;entityType&quot;:&quot;particle&quot;,&quot;entityId&quot;:&quot;img3-m152-p4&quot;,&quot;token&quot;:&quot;e:1 g:1 e:1&quot;,&quot;signature&quot;:&quot;e:1 g:1 e:1&quot;,&quot;imageName&quot;:&quot;page-003.jpg&quot;,&quot;imageId&quot;:3,&quot;bounds&quot;:{&quot;x&quot;:1659,&quot;y&quot;:2528,&quot;w&quot;:82,&quot;h&quot;:55},&quot;atoms&quot;:[{&quot;id&quot;:3731,&quot;token&quot;:&quot;e:1&quot;,&quot;particle_id&quot;:&quot;img3-m152-p4&quot;,&quot;molecule_id&quot;:&quot;img3-m152&quot;,&quot;atom_order&quot;:1},{&quot;id&quot;:3755,&quot;token&quot;:&quot;g:1&quot;,&quot;particle_id&quot;:&quot;img3-m152-p4&quot;,&quot;molecule_id&quot;:&quot;img3-m152&quot;,&quot;atom_order&quot;:2},{&quot;id&quot;:3732,&quot;token&quot;:&quot;e:1&quot;,&quot;particle_id&quot;:&quot;img3-m152-p4&quot;,&quot;molecule_id&quot;:&quot;img3-m152&quot;,&quot;atom_order&quot;:3}]}</metadata>
  <rect x="0" y="0" width="82" height="55" fill="#f8f0d8"/>
  <image href="file:///C:/Users/HHHES/AppData/Roaming/com.voynichlab.datasetcreator/images/1/35a70f63-88ab-4986-b441-b78046a10087.jpg" x="-1659" y="-2528" width="2972" height="3766" opacity="0.92"/>
  <rect x="0.5" y="0.5" width="81" height="54" fill="none" stroke="#111827" stroke-width="1" opacity="0.35"/>
  <polyline points="31,33 31,34 30,34 30,35 29,35 28,35 28,36 27,36 26,36 25,36 24,36 23,36 22,36 21,36 21,35 20,35 19,35 18,35 18,34 17,34 16,34 16,33 16,32 16,31 16,30 16,29 16,28 16,27 17,27 17,26 17,25 17,24 18,24 18,23 18,22 19,22 19,21 19,20 20,20 21,20 21,19 22,19 22,18 23,18 24,18 24,17 25,17 26,17 27,17 27,16" fill="none" stroke="#f2e45c" stroke-width="3" stroke-linecap="round" stroke-linejoin="round" opacity="0.95">
    <title>3731 e:1</title>
  </polyline>
  <polyline points="25,16 26,16 26,17 27,17 28,17 29,17 30,18 31,18 32,18 33,18 34,19 35,19 36,19 37,19 38,19 39,19 40,19 41,19 42,20 43,20 44,20 45,20 46,20 47,20 48,20 49,20 50,20 51,20 52,20 53,20 54,20 55,20 56,20 57,20 58,20 59,20 60,20 61,20 61,21" fill="none" stroke="#7c3cff" stroke-width="3" stroke-linecap="round" stroke-linejoin="round" opacity="0.95">
    <title>3755 g:1</title>
  </polyline>
  <polyline points="66,36 66,37 65,37 65,38 64,38 63,38 63,39 62,39 61,39 60,39 59,39 58,39 57,39 56,39 56,38 55,38 54,38 53,38 53,37 52,37 51,37 51,36 51,35 51,34 51,33 51,32 51,31 51,30 52,30 52,29 52,28 52,27 53,27 53,26 53,25 54,25 54,24 54,23 55,23 56,23 56,22 57,22 57,21 58,21 59,21 59,20 60,20 61,20 62,20 62,19" fill="none" stroke="#f2e45c" stroke-width="3" stroke-linecap="round" stroke-linejoin="round" opacity="0.95">
    <title>3732 e:1</title>
  </polyline>
</svg>
