<?xml version="1.0" encoding="UTF-8"?>
<svg xmlns="http://www.w3.org/2000/svg" width="88" height="53" viewBox="0 0 88 53">
  <title>particle img3-m3-p2 e:1 g:1 e:1</title>
  <metadata>{&quot;entityType&quot;:&quot;particle&quot;,&quot;entityId&quot;:&quot;img3-m3-p2&quot;,&quot;token&quot;:&quot;e:1 g:1 e:1&quot;,&quot;signature&quot;:&quot;e:1 g:1 e:1&quot;,&quot;imageName&quot;:&quot;page-003.jpg&quot;,&quot;imageId&quot;:3,&quot;bounds&quot;:{&quot;x&quot;:1534,&quot;y&quot;:510,&quot;w&quot;:88,&quot;h&quot;:53},&quot;atoms&quot;:[{&quot;id&quot;:1075,&quot;token&quot;:&quot;e:1&quot;,&quot;particle_id&quot;:&quot;img3-m3-p2&quot;,&quot;molecule_id&quot;:&quot;img3-m3&quot;,&quot;atom_order&quot;:1},{&quot;id&quot;:1077,&quot;token&quot;:&quot;g:1&quot;,&quot;particle_id&quot;:&quot;img3-m3-p2&quot;,&quot;molecule_id&quot;:&quot;img3-m3&quot;,&quot;atom_order&quot;:2},{&quot;id&quot;:1076,&quot;token&quot;:&quot;e:1&quot;,&quot;particle_id&quot;:&quot;img3-m3-p2&quot;,&quot;molecule_id&quot;:&quot;img3-m3&quot;,&quot;atom_order&quot;:3}]}</metadata>
  <rect x="0" y="0" width="88" height="53" fill="#f8f0d8"/>
  <image href="file:///C:/Users/HHHES/AppData/Roaming/com.voynichlab.datasetcreator/images/1/35a70f63-88ab-4986-b441-b78046a10087.jpg" x="-1534" y="-510" width="2972" height="3766" opacity="0.92"/>
  <rect x="0.5" y="0.5" width="87" height="52" fill="none" stroke="#111827" stroke-width="1" opacity="0.35"/>
  <polyline points="31,34 31,35 30,35 30,36 29,36 28,36 28,37 27,37 26,37 25,37 24,37 23,37 22,37 21,37 21,36 20,36 19,36 18,36 18,35 17,35 16,35 16,34 16,33 16,32 16,31 16,30 16,29 16,28 17,28 17,27 17,26 17,25 18,25 18,24 18,23 19,23 19,22 19,21 20,21 21,21 21,20 22,20 22,19 23,19 24,19 24,18 25,18 26,18 27,18 27,17" fill="none" stroke="#f2e45c" stroke-width="3" stroke-linecap="round" stroke-linejoin="round" opacity="0.95">
    <title>1075 e:1</title>
  </polyline>
  <polyline points="27,17 28,17 29,17 30,17 31,17 32,17 33,17 34,17 35,17 36,17 37,17 38,17 39,17 40,17 41,17 42,17 43,17 44,17 45,17 46,17 47,17 48,17 49,17 50,17 51,17 52,17 53,17 54,17 55,17 56,17 57,17 58,17 59,17 60,17 61,17 62,17 63,17 64,17 64,16 65,16 66,16 67,16 68,16" fill="none" stroke="#7c3cff" stroke-width="3" stroke-linecap="round" stroke-linejoin="round" opacity="0.95">
    <title>1077 g:1</title>
  </polyline>
  <polyline points="72,33 72,34 71,34 71,35 70,35 69,35 69,36 68,36 67,36 66,36 65,36 64,36 63,36 62,36 62,35 61,35 60,35 59,35 59,34 58,34 57,34 57,33 57,32 57,31 57,30 57,29 57,28 57,27 58,27 58,26 58,25 58,24 59,24 59,23 59,22 60,22 60,21 60,20 61,20 62,20 62,19 63,19 63,18 64,18 65,18 65,17 66,17 67,17 68,17 68,16" fill="none" stroke="#f2e45c" stroke-width="3" stroke-linecap="round" stroke-linejoin="round" opacity="0.95">
    <title>1076 e:1</title>
  </polyline>
</svg>
