<?xml version="1.0" encoding="UTF-8"?>
<svg xmlns="http://www.w3.org/2000/svg" width="84" height="76" viewBox="0 0 84 76">
  <title>particle img3-m91-p3 l:1 f:1 i:1 d:1</title>
  <metadata>{&quot;entityType&quot;:&quot;particle&quot;,&quot;entityId&quot;:&quot;img3-m91-p3&quot;,&quot;token&quot;:&quot;l:1 f:1 i:1 d:1&quot;,&quot;signature&quot;:&quot;l:1 f:1 i:1 d:1&quot;,&quot;imageName&quot;:&quot;page-003.jpg&quot;,&quot;imageId&quot;:3,&quot;bounds&quot;:{&quot;x&quot;:613,&quot;y&quot;:1748,&quot;w&quot;:84,&quot;h&quot;:76},&quot;atoms&quot;:[{&quot;id&quot;:2596,&quot;token&quot;:&quot;l:1&quot;,&quot;particle_id&quot;:&quot;img3-m91-p3&quot;,&quot;molecule_id&quot;:&quot;img3-m91&quot;,&quot;atom_order&quot;:1},{&quot;id&quot;:2589,&quot;token&quot;:&quot;f:1&quot;,&quot;particle_id&quot;:&quot;img3-m91-p3&quot;,&quot;molecule_id&quot;:&quot;img3-m91&quot;,&quot;atom_order&quot;:2},{&quot;id&quot;:2592,&quot;token&quot;:&quot;i:1&quot;,&quot;particle_id&quot;:&quot;img3-m91-p3&quot;,&quot;molecule_id&quot;:&quot;img3-m91&quot;,&quot;atom_order&quot;:3},{&quot;id&quot;:2593,&quot;token&quot;:&quot;d:1&quot;,&quot;particle_id&quot;:&quot;img3-m91-p3&quot;,&quot;molecule_id&quot;:&quot;img3-m91&quot;,&quot;atom_order&quot;:4}]}</metadata>
  <rect x="0" y="0" width="84" height="76" fill="#f8f0d8"/>
  <image href="file:///C:/Users/HHHES/AppData/Roaming/com.voynichlab.datasetcreator/images/1/35a70f63-88ab-4986-b441-b78046a10087.jpg" x="-613" y="-1748" width="2972" height="3766" opacity="0.92"/>
  <rect x="0.5" y="0.5" width="83" height="75" fill="none" stroke="#111827" stroke-width="1" opacity="0.35"/>
  <polyline points="17,40 17,41 17,42 18,42 18,43 19,43 19,44 20,44 20,45 20,46 21,46 21,47 21,48 22,48 22,49 22,50 23,50 23,51 23,52 24,53 24,54 24,55 25,55 25,56 26,56 26,57 27,57 27,58 28,58 28,59 29,59 30,59 30,58 31,58 31,57 31,56 32,56 32,55 32,54 33,54 33,53 33,52 34,52 34,51 35,51 35,50 36,50 36,49 37,49 37,48 38,48 38,47 38,46 38,45 39,45 39,44 39,43 40,43 40,42 40,41 41,41 41,42" fill="none" stroke="#ff5f1f" stroke-width="3" stroke-linecap="round" stroke-linejoin="round" opacity="0.95">
    <title>2596 l:1</title>
  </polyline>
  <polyline points="40,39 40,40 40,41 41,41 41,42 41,43 42,43 42,44 43,45 43,46 44,46 44,47 45,48 45,49 46,49 46,50 47,50 47,51 48,51 48,52 48,53 49,53 49,54 49,55 50,55 50,56 51,56 51,57 52,58 52,59 53,59 53,60" fill="none" stroke="#00a2ff" stroke-width="3" stroke-linecap="round" stroke-linejoin="round" opacity="0.95">
    <title>2589 f:1</title>
  </polyline>
  <polyline points="53,59 54,59 54,58 55,58 55,57 56,57 56,56 57,56 58,56 58,55 59,55 59,54 60,54 60,53 61,53 61,52 61,51 62,51 62,50 63,49 63,48 64,48 64,47 64,46 65,46 65,45 65,44 66,44 66,43 66,42 66,41 66,40 66,39 67,38 67,37 67,36 67,35 67,34 67,33 68,33 68,32 68,31 68,30 68,29 68,28 68,27 68,26 68,25 68,24 67,24 67,23 67,22 67,21 66,21 66,20 65,19 65,18 64,18 64,17 63,17 63,16" fill="none" stroke="#00ff7f" stroke-width="3" stroke-linecap="round" stroke-linejoin="round" opacity="0.95">
    <title>2592 i:1</title>
  </polyline>
  <polyline points="16,27 17,27 17,26 18,26 19,26 19,25 20,25 21,25 22,25 23,25 23,24 24,24 25,24 25,23 26,23 27,23 27,22 28,22 29,22 29,21 30,21 31,21 32,21 32,20 33,20 34,20 35,20 35,19 36,19 37,19 38,19 39,19 39,18 40,18 41,18 42,18 43,18 44,18 44,17 45,17 46,17 47,17 47,16 48,16 49,16 50,16 51,16 52,16 53,16 54,16 55,16 56,16 57,16 58,16 59,16 60,16 61,16 62,16 62,17 63,17 63,18 64,18" fill="none" stroke="#ff2d55" stroke-width="3" stroke-linecap="round" stroke-linejoin="round" opacity="0.95">
    <title>2593 d:1</title>
  </polyline>
</svg>
