<?xml version="1.0" encoding="UTF-8"?>
<svg xmlns="http://www.w3.org/2000/svg" width="69" height="96" viewBox="0 0 69 96">
  <title>particle img3-m110-p1 a:1 b:1 c:1 a:1</title>
  <metadata>{&quot;entityType&quot;:&quot;particle&quot;,&quot;entityId&quot;:&quot;img3-m110-p1&quot;,&quot;token&quot;:&quot;a:1 b:1 c:1 a:1&quot;,&quot;signature&quot;:&quot;a:1 b:1 c:1 a:1&quot;,&quot;imageName&quot;:&quot;page-003.jpg&quot;,&quot;imageId&quot;:3,&quot;bounds&quot;:{&quot;x&quot;:1309,&quot;y&quot;:1875,&quot;w&quot;:69,&quot;h&quot;:96},&quot;atoms&quot;:[{&quot;id&quot;:3300,&quot;token&quot;:&quot;a:1&quot;,&quot;particle_id&quot;:&quot;img3-m110-p1&quot;,&quot;molecule_id&quot;:&quot;img3-m110&quot;,&quot;atom_order&quot;:1},{&quot;id&quot;:3296,&quot;token&quot;:&quot;b:1&quot;,&quot;particle_id&quot;:&quot;img3-m110-p1&quot;,&quot;molecule_id&quot;:&quot;img3-m110&quot;,&quot;atom_order&quot;:2},{&quot;id&quot;:3267,&quot;token&quot;:&quot;c:1&quot;,&quot;particle_id&quot;:&quot;img3-m110-p1&quot;,&quot;molecule_id&quot;:&quot;img3-m110&quot;,&quot;atom_order&quot;:3},{&quot;id&quot;:3301,&quot;token&quot;:&quot;a:1&quot;,&quot;particle_id&quot;:&quot;img3-m110-p1&quot;,&quot;molecule_id&quot;:&quot;img3-m110&quot;,&quot;atom_order&quot;:4}]}</metadata>
  <rect x="0" y="0" width="69" height="96" fill="#f8f0d8"/>
  <image href="file:///C:/Users/HHHES/AppData/Roaming/com.voynichlab.datasetcreator/images/1/35a70f63-88ab-4986-b441-b78046a10087.jpg" x="-1309" y="-1875" width="2972" height="3766" opacity="0.92"/>
  <rect x="0.5" y="0.5" width="68" height="95" fill="none" stroke="#111827" stroke-width="1" opacity="0.35"/>
  <polyline points="16,29 16,30 16,31 16,32 16,33 16,34 16,35 17,35 17,36 17,37 17,38 17,39 17,40 17,41 17,42 17,43 17,44 17,45 17,46 17,47 17,48 17,49 17,50 17,51 17,52 17,53 17,54 17,55 17,56 17,57 17,58 17,59 17,60 17,61 17,62 17,63 17,64 17,65 17,66 17,67 17,68 17,69 17,70 17,71 17,72 17,73 17,74 17,75 17,76 17,77 17,78 18,79 18,80" fill="none" stroke="#00f0b5" stroke-width="3" stroke-linecap="round" stroke-linejoin="round" opacity="0.95">
    <title>3300 a:1</title>
  </polyline>
  <polyline points="16,29 16,30 16,31 17,31 17,32 18,32 18,33 19,33 19,34 20,34 21,35 22,35 23,35 23,36 24,36 25,36 26,36 27,36 28,36 29,36 30,36 31,36 32,36 33,36 34,36 35,36 35,35 36,35 37,35 38,35 39,35 39,34 40,34 41,34 42,34 42,33 43,33 44,33 45,32 46,32 47,31" fill="none" stroke="#2f7df6" stroke-width="3" stroke-linecap="round" stroke-linejoin="round" opacity="0.95">
    <title>3296 b:1</title>
  </polyline>
  <polyline points="46,31 47,31 48,30 49,30 49,29 50,29 50,28 51,28 51,27 52,27 52,26 53,25 53,24 53,23 53,22 53,21 53,20 52,19 52,18 51,18 50,18 50,17 49,17 48,17 47,17 46,17 46,16 45,16 44,16 43,16 42,16 41,16 40,16 39,16 39,17 38,17 37,17 37,18 36,18 35,18 35,19 34,19 34,20 33,20 32,21 31,22 31,23 31,24 30,24 30,25 30,26 30,27 31,27 31,28 32,29 32,30 33,30 34,31 35,31 36,31 36,32 37,32 38,32 39,32 40,32 41,32 42,32 43,32 44,32 45,32 46,32 46,31 47,31 48,31" fill="none" stroke="#8aff00" stroke-width="3" stroke-linecap="round" stroke-linejoin="round" opacity="0.95">
    <title>3267 c:1</title>
  </polyline>
  <polyline points="30,26 30,27 30,28 31,29 31,30 31,31 31,32 31,34 31,35 31,36 32,37 32,38 32,39 32,40 32,41 32,42 32,43 32,44 32,45 32,46 32,48 32,49 32,50 32,51 32,52 32,53 32,54 32,55 32,56 32,57 32,58 32,59 32,60 33,61 33,62 33,63 33,64 33,65 33,66 33,67 33,68 33,69 33,70 33,71 33,72 33,73 33,74 33,75 33,76 33,77" fill="none" stroke="#00f0b5" stroke-width="3" stroke-linecap="round" stroke-linejoin="round" opacity="0.95">
    <title>3301 a:1</title>
  </polyline>
</svg>
