<?xml version="1.0" encoding="UTF-8"?>
<svg xmlns="http://www.w3.org/2000/svg" width="111" height="94" viewBox="0 0 111 94">
  <title>particle img3-m66-p5 k:1 f:1 i:1 d:1</title>
  <metadata>{&quot;entityType&quot;:&quot;particle&quot;,&quot;entityId&quot;:&quot;img3-m66-p5&quot;,&quot;token&quot;:&quot;k:1 f:1 i:1 d:1&quot;,&quot;signature&quot;:&quot;k:1 f:1 i:1 d:1&quot;,&quot;imageName&quot;:&quot;page-003.jpg&quot;,&quot;imageId&quot;:3,&quot;bounds&quot;:{&quot;x&quot;:1049,&quot;y&quot;:1455,&quot;w&quot;:111,&quot;h&quot;:94},&quot;atoms&quot;:[{&quot;id&quot;:2142,&quot;token&quot;:&quot;k:1&quot;,&quot;particle_id&quot;:&quot;img3-m66-p5&quot;,&quot;molecule_id&quot;:&quot;img3-m66&quot;,&quot;atom_order&quot;:1},{&quot;id&quot;:2143,&quot;token&quot;:&quot;f:1&quot;,&quot;particle_id&quot;:&quot;img3-m66-p5&quot;,&quot;molecule_id&quot;:&quot;img3-m66&quot;,&quot;atom_order&quot;:2},{&quot;id&quot;:2144,&quot;token&quot;:&quot;i:1&quot;,&quot;particle_id&quot;:&quot;img3-m66-p5&quot;,&quot;molecule_id&quot;:&quot;img3-m66&quot;,&quot;atom_order&quot;:3},{&quot;id&quot;:2145,&quot;token&quot;:&quot;d:1&quot;,&quot;particle_id&quot;:&quot;img3-m66-p5&quot;,&quot;molecule_id&quot;:&quot;img3-m66&quot;,&quot;atom_order&quot;:4}]}</metadata>
  <rect x="0" y="0" width="111" height="94" fill="#f8f0d8"/>
  <image href="file:///C:/Users/HHHES/AppData/Roaming/com.voynichlab.datasetcreator/images/1/35a70f63-88ab-4986-b441-b78046a10087.jpg" x="-1049" y="-1455" width="2972" height="3766" opacity="0.92"/>
  <rect x="0.5" y="0.5" width="110" height="93" fill="none" stroke="#111827" stroke-width="1" opacity="0.35"/>
  <polyline points="23,54 23,55 24,55 24,56 24,57 25,57 25,58 25,59 26,59 26,60 26,61 27,61 27,62 27,63 27,64 28,64 28,65 28,66 29,66 29,67 29,68 30,68 30,69 31,70 31,71 32,71 32,72 33,72 33,71 34,71 34,70 34,69 35,69 35,68 36,68 36,67 37,67 38,66 39,66 39,65 40,65 40,64 41,64 41,63 42,63 42,62 43,62 43,61 44,61 44,60 45,60 45,59 46,59 46,58 46,57 46,58 46,59 46,60 46,61 47,61 47,62 47,63 47,64 47,65 48,65 48,66 48,67 49,67 49,68 50,68 50,69 50,70 51,70 51,71 52,71 52,72 53,72 53,71 54,71 54,70 54,69 55,69 55,68 56,68 57,68 57,67 58,67 58,66 59,66 59,65 60,65 61,65 61,64 62,63 63,63 63,62 64,62 65,61 66,60 67,60 68,59" fill="none" stroke="#ffffff" stroke-width="3" stroke-linecap="round" stroke-linejoin="round" opacity="0.95">
    <title>2142 k:1</title>
  </polyline>
  <polyline points="67,57 67,58 67,59 68,59 68,60 68,61 69,61 69,62 70,63 70,64 71,64 71,65 72,66 72,67 73,67 73,68 74,68 74,69 75,69 75,70 75,71 76,71 76,72 76,73 77,73 77,74 78,74 78,75 79,76 79,77 80,77 80,78" fill="none" stroke="#00a2ff" stroke-width="3" stroke-linecap="round" stroke-linejoin="round" opacity="0.95">
    <title>2143 f:1</title>
  </polyline>
  <polyline points="75,70 76,70 76,69 77,69 78,69 78,68 79,68 80,67 81,67 81,66 82,66 82,65 83,65 83,64 84,64 84,63 85,63 86,62 87,61 88,61 88,60 89,60 89,59 90,59 90,58 91,58 91,57 92,56 92,55 93,55 93,54 94,53 94,52 94,51 95,50 95,49 95,48 95,47 95,46 95,45 95,44 95,43 95,42 95,41 95,40 95,39 94,39 94,38 94,37 93,37 93,36 92,35 92,34 91,34 91,33 91,32 90,32 90,31 89,31" fill="none" stroke="#00ff7f" stroke-width="3" stroke-linecap="round" stroke-linejoin="round" opacity="0.95">
    <title>2144 i:1</title>
  </polyline>
  <polyline points="16,42 16,41 16,40 16,39 17,39 17,38 18,37 18,36 19,36 19,35 19,34 20,34 20,33 21,32 22,31 22,30 23,30 23,29 24,29 25,28 26,27 27,27 27,26 28,26 28,25 29,25 29,24 30,24 31,24 32,23 33,23 33,22 34,22 35,22 36,21 37,21 37,20 38,20 39,20 40,19 41,19 42,19 42,18 43,18 44,18 45,18 46,18 47,18 47,17 48,17 49,17 50,17 51,17 52,17 53,17 54,17 55,17 56,17 56,16 57,16 58,16 59,16 60,16 61,16 62,16 62,17 63,17 64,17 65,17 66,17 67,17 68,17 68,18 69,18 70,18 71,18 71,19 72,19 73,19 74,19 74,20 75,20 76,20 77,20 77,21 78,21 79,21 79,22 80,22 81,23 82,23 82,24 83,24 83,25 84,25 85,26 86,26 86,27 87,27 87,28 88,28 88,29 89,29 89,30 89,31 90,31" fill="none" stroke="#ff2d55" stroke-width="3" stroke-linecap="round" stroke-linejoin="round" opacity="0.95">
    <title>2145 d:1</title>
  </polyline>
</svg>
