<?xml version="1.0" encoding="UTF-8"?>
<svg xmlns="http://www.w3.org/2000/svg" width="57" height="78" viewBox="0 0 57 78">
  <title>particle img3-m24-p4 e:1 c:1 h:2</title>
  <metadata>{&quot;entityType&quot;:&quot;particle&quot;,&quot;entityId&quot;:&quot;img3-m24-p4&quot;,&quot;token&quot;:&quot;e:1 c:1 h:2&quot;,&quot;signature&quot;:&quot;e:1 c:1 h:2&quot;,&quot;imageName&quot;:&quot;page-003.jpg&quot;,&quot;imageId&quot;:3,&quot;bounds&quot;:{&quot;x&quot;:1465,&quot;y&quot;:668,&quot;w&quot;:57,&quot;h&quot;:78},&quot;atoms&quot;:[{&quot;id&quot;:1387,&quot;token&quot;:&quot;e:1&quot;,&quot;particle_id&quot;:&quot;img3-m24-p4&quot;,&quot;molecule_id&quot;:&quot;img3-m24&quot;,&quot;atom_order&quot;:1},{&quot;id&quot;:1388,&quot;token&quot;:&quot;c:1&quot;,&quot;particle_id&quot;:&quot;img3-m24-p4&quot;,&quot;molecule_id&quot;:&quot;img3-m24&quot;,&quot;atom_order&quot;:2},{&quot;id&quot;:1390,&quot;token&quot;:&quot;h:2&quot;,&quot;particle_id&quot;:&quot;img3-m24-p4&quot;,&quot;molecule_id&quot;:&quot;img3-m24&quot;,&quot;atom_order&quot;:3}]}</metadata>
  <rect x="0" y="0" width="57" height="78" fill="#f8f0d8"/>
  <image href="file:///C:/Users/HHHES/AppData/Roaming/com.voynichlab.datasetcreator/images/1/35a70f63-88ab-4986-b441-b78046a10087.jpg" x="-1465" y="-668" width="2972" height="3766" opacity="0.92"/>
  <rect x="0.5" y="0.5" width="56" height="77" fill="none" stroke="#111827" stroke-width="1" opacity="0.35"/>
  <polyline points="31,60 30,60 29,60 29,61 28,61 27,61 26,61 25,61 25,62 24,62 23,62 22,62 21,62 20,62 19,61 18,61 17,61 17,60 17,59 16,59 16,58 16,57 16,56 16,55 16,54 16,53 16,52 17,52 17,51 17,50 18,50 18,49 18,48 19,48 19,47 20,47 20,46 21,46 21,45 22,45 22,44 23,44 23,43 24,43 24,42 25,42 25,41 26,41 27,41 27,40 28,40" fill="none" stroke="#f2e45c" stroke-width="3" stroke-linecap="round" stroke-linejoin="round" opacity="0.95">
    <title>1387 e:1</title>
  </polyline>
  <polyline points="28,40 29,40 29,39 30,39 31,38 32,38 32,37 33,37 33,36 34,36 35,36 35,35 35,34 36,34 37,34 37,33 38,33 38,32 39,32 39,31 39,30 40,30 40,29 40,28 41,28 41,27 41,26 41,25 41,24 41,23 41,22 41,21 41,20 40,19 40,18 39,18 39,17 38,17 37,16 36,16 35,16 34,16 33,16 32,16 32,17 31,17 30,17 29,17 29,18 28,18 27,19 26,19 26,20 25,20 25,21 24,21 24,22 23,22 23,23 22,23 22,24 22,25 21,26 21,27 21,28 21,29 21,30 21,31 21,32 21,33 22,33 22,34 22,35 23,35 23,36 24,36 24,37 25,37 26,37 26,38 27,38 27,39 28,39" fill="none" stroke="#8aff00" stroke-width="3" stroke-linecap="round" stroke-linejoin="round" opacity="0.95">
    <title>1388 c:1</title>
  </polyline>
  <polyline points="30,60 30,59 31,59 32,59 33,58 34,58 34,57 35,57 35,56 35,55 36,55 36,54 36,53 36,52 36,51 36,50 36,49 36,48 35,48 35,47 34,46 34,45 33,45 33,44 32,44 32,43 31,43 31,42 30,42 30,41 29,41 28,40 27,40 27,39 26,39 26,38 25,38 24,38 24,37 23,37 23,36 22,36 22,35 22,34 21,34 21,33 20,32 20,31 20,30 20,29 20,28 21,27 21,26 21,25 22,25 22,24 22,23 23,23" fill="none" stroke="#ff8c00" stroke-width="3" stroke-linecap="round" stroke-linejoin="round" opacity="0.95">
    <title>1390 h:2</title>
  </polyline>
</svg>
