<?xml version="1.0" encoding="UTF-8"?>
<svg xmlns="http://www.w3.org/2000/svg" width="139" height="162" viewBox="0 0 139 162">
  <title>particle img3-m66-p1 e:1 a:1 m:1 c:1 a:1 b:1 d:1 g:1 e:1</title>
  <metadata>{&quot;entityType&quot;:&quot;particle&quot;,&quot;entityId&quot;:&quot;img3-m66-p1&quot;,&quot;token&quot;:&quot;e:1 a:1 m:1 c:1 a:1 b:1 d:1 g:1 e:1&quot;,&quot;signature&quot;:&quot;e:1 a:1 m:1 c:1 a:1 b:1 d:1 g:1 e:1&quot;,&quot;imageName&quot;:&quot;page-003.jpg&quot;,&quot;imageId&quot;:3,&quot;bounds&quot;:{&quot;x&quot;:846,&quot;y&quot;:1385,&quot;w&quot;:139,&quot;h&quot;:162},&quot;atoms&quot;:[{&quot;id&quot;:2125,&quot;token&quot;:&quot;e:1&quot;,&quot;particle_id&quot;:&quot;img3-m66-p1&quot;,&quot;molecule_id&quot;:&quot;img3-m66&quot;,&quot;atom_order&quot;:1},{&quot;id&quot;:2128,&quot;token&quot;:&quot;a:1&quot;,&quot;particle_id&quot;:&quot;img3-m66-p1&quot;,&quot;molecule_id&quot;:&quot;img3-m66&quot;,&quot;atom_order&quot;:2},{&quot;id&quot;:3042,&quot;token&quot;:&quot;m:1&quot;,&quot;particle_id&quot;:&quot;img3-m66-p1&quot;,&quot;molecule_id&quot;:&quot;img3-m66&quot;,&quot;atom_order&quot;:3},{&quot;id&quot;:2130,&quot;token&quot;:&quot;c:1&quot;,&quot;particle_id&quot;:&quot;img3-m66-p1&quot;,&quot;molecule_id&quot;:&quot;img3-m66&quot;,&quot;atom_order&quot;:4},{&quot;id&quot;:2131,&quot;token&quot;:&quot;a:1&quot;,&quot;particle_id&quot;:&quot;img3-m66-p1&quot;,&quot;molecule_id&quot;:&quot;img3-m66&quot;,&quot;atom_order&quot;:5},{&quot;id&quot;:2132,&quot;token&quot;:&quot;b:1&quot;,&quot;particle_id&quot;:&quot;img3-m66-p1&quot;,&quot;molecule_id&quot;:&quot;img3-m66&quot;,&quot;atom_order&quot;:6},{&quot;id&quot;:5497,&quot;token&quot;:&quot;d:1&quot;,&quot;particle_id&quot;:&quot;img3-m66-p1&quot;,&quot;molecule_id&quot;:&quot;img3-m66&quot;,&quot;atom_order&quot;:7},{&quot;id&quot;:2127,&quot;token&quot;:&quot;g:1&quot;,&quot;particle_id&quot;:&quot;img3-m66-p1&quot;,&quot;molecule_id&quot;:&quot;img3-m66&quot;,&quot;atom_order&quot;:8},{&quot;id&quot;:2126,&quot;token&quot;:&quot;e:1&quot;,&quot;particle_id&quot;:&quot;img3-m66-p1&quot;,&quot;molecule_id&quot;:&quot;img3-m66&quot;,&quot;atom_order&quot;:9}]}</metadata>
  <rect x="0" y="0" width="139" height="162" fill="#f8f0d8"/>
  <image href="file:///C:/Users/HHHES/AppData/Roaming/com.voynichlab.datasetcreator/images/1/35a70f63-88ab-4986-b441-b78046a10087.jpg" x="-846" y="-1385" width="2972" height="3766" opacity="0.92"/>
  <rect x="0.5" y="0.5" width="138" height="161" fill="none" stroke="#111827" stroke-width="1" opacity="0.35"/>
  <polyline points="34,143 34,144 33,144 33,145 32,145 32,146 31,146 30,146 29,146 28,146 27,146 26,146 25,145 24,145 24,144 23,144 23,143 22,143 22,142 21,142 21,141 21,140 21,139 22,139 22,138 22,137 23,137 23,136 24,136 24,135 25,135 25,134 26,134 27,134 27,133 28,133 29,133 30,133 30,132 31,132 32,132 33,132 34,132 35,132 36,132 36,133 37,133" fill="none" stroke="#f2e45c" stroke-width="3" stroke-linecap="round" stroke-linejoin="round" opacity="0.95">
    <title>2125 e:1</title>
  </polyline>
  <polyline points="67,143 67,142 68,142 68,141 68,140 68,139 68,138 68,137 68,136 68,135 68,134 68,133 68,132 68,131 68,130 68,129 69,128 69,127 69,126 69,125 69,124 69,123 69,122 69,121 69,120 69,119 69,118 69,117 69,116 70,116 70,115 70,114 70,113 70,112 70,111 70,110 70,109 70,108 70,107 70,106 70,105 70,104 70,103 70,102 70,101 70,100 70,99 70,98 70,97 70,96 70,95 70,94 70,93 70,92 70,91 70,90 70,89 70,88 70,87 70,86 70,85 70,84 70,83 70,82 70,81 70,80 70,79 70,78 70,77 70,76 70,75 70,74 70,73 70,72 70,71 70,70 70,69 70,68 70,67 70,66 70,65 70,64 70,63 70,62 69,61 69,60 69,59 69,58 69,57 69,56 69,55 69,54 68,54 68,53 68,52 68,51 68,50" fill="none" stroke="#00f0b5" stroke-width="3" stroke-linecap="round" stroke-linejoin="round" opacity="0.95">
    <title>2128 a:1</title>
  </polyline>
  <polyline points="68,50 68,49 68,48 68,47 68,46 69,45 69,44 69,43 69,42 69,41 69,40 69,39 69,38 70,38 70,37 70,36 70,35 70,34 70,33 70,32 70,31 70,30 70,29 70,28 70,27 70,26 70,25 70,24 70,23 70,22 69,22 68,23 67,24 66,25 65,25 65,26 64,26 64,27 63,27 63,28 62,28 61,29 60,29 60,30 59,30 59,31 58,31 58,32 57,32 56,33 56,34 55,34 54,35 53,35 53,36 52,36 52,37 51,37 51,38 50,38 50,39 50,40 49,40 49,41 50,41 51,41 52,41 53,41 54,41 55,41 56,41 57,41 58,41 59,41 60,41 61,41 62,41 63,41 64,41 64,40 65,40 66,40 67,40 68,40 69,40 70,40 71,40 72,40 73,40 74,40 75,40 76,40 77,40 78,40 79,40 80,40 81,40 82,40 83,40 84,40 85,40 85,39 86,39 87,39 88,39 89,39 90,39 91,39 91,38 92,38 93,38 94,38 95,38 96,38 97,38 97,37 98,37" fill="none" stroke="#ff00ff" stroke-width="3" stroke-linecap="round" stroke-linejoin="round" opacity="0.95">
    <title>3042 m:1</title>
  </polyline>
  <polyline points="99,40 100,40 101,40 102,40 103,40 104,40 105,40 106,40 107,40 108,39 109,39 110,39 110,38 111,38 112,38 112,37 113,37 114,37 115,37 116,37 116,36 117,36 118,36 118,35 119,35 120,35 120,34 121,34 121,33 122,32 122,31 123,31 123,30 123,29 123,28 123,27 123,26 123,25 123,24 123,23 123,22 123,21 122,21 122,20 121,19 120,19 120,18 119,18 119,17 118,17 117,17 116,17 115,16 114,16 113,16 112,16 111,16 111,17 110,17 109,17 108,17 107,17 106,18 105,18 104,18 104,19 103,19 102,19 101,20 100,20 100,21 99,21 99,22 98,22 98,23 98,24 98,25 98,26 97,26 97,27 97,28 97,29 97,30 97,31 97,32 97,33 97,34 97,35 97,36 98,36 98,37 98,38 99,38 99,39 99,40 100,40" fill="none" stroke="#8aff00" stroke-width="3" stroke-linecap="round" stroke-linejoin="round" opacity="0.95">
    <title>2130 c:1</title>
  </polyline>
  <polyline points="97,36 97,37 97,38 98,38 98,39 98,40 98,41 98,42 98,43 98,44 98,45 98,46 98,47 98,48 98,49 98,50 98,51 98,52 98,53 98,54 98,55 98,56 98,57 98,58 98,59 98,60 97,60 97,61 97,62 97,63 97,64 97,65 97,66 97,67 97,68 97,69 97,70" fill="none" stroke="#00f0b5" stroke-width="3" stroke-linecap="round" stroke-linejoin="round" opacity="0.95">
    <title>2131 a:1</title>
  </polyline>
  <polyline points="58,73 59,73 59,74 60,74 61,74 61,75 62,75 63,75 64,76 65,76 66,76 67,76 68,76 68,77 69,77 70,77 71,77 72,77 73,77 74,77 75,77 76,77 77,77 78,77 79,77 80,77 81,77 81,76 82,76 83,76 84,76 85,76 86,75 87,75 88,75 88,74 89,74 89,73 90,73 91,73 91,72 92,72 93,72 93,71 94,71 94,70 95,70 96,69 97,69 97,68" fill="none" stroke="#2f7df6" stroke-width="3" stroke-linecap="round" stroke-linejoin="round" opacity="0.95">
    <title>2132 b:1</title>
  </polyline>
  <polyline points="27,93 26,93 25,93 24,93 23,93 22,92 21,92 20,91 19,91 19,90 18,90 18,89 17,88 17,87 16,87 16,86 16,85 16,84 16,83 17,82 17,81 18,81 18,80 19,79 20,78 21,77 22,76 23,75 24,75 25,74 26,74 27,74 28,74 29,73 30,73 31,73 32,73 33,73 34,73 36,72 38,72 39,72 40,72 41,72 42,72 43,72 44,72 45,72 46,71 47,71 48,71 49,71 50,71 51,71 52,71 52,72 54,72 55,72 56,73 57,73 58,73 60,74 61,74 62,75 63,75 64,75 64,76 65,76" fill="none" stroke="#ff2d55" stroke-width="3" stroke-linecap="round" stroke-linejoin="round" opacity="0.95">
    <title>5497 d:1</title>
  </polyline>
  <polyline points="36,132 37,132 38,132 39,132 40,132 41,132 42,132 43,132 44,132 45,132 46,132 47,132 48,132 49,132 50,132 51,132 52,132 53,132 54,132 55,132 56,132 57,132 58,132 59,132 60,132 61,132 62,132 63,132 64,132 65,132 65,131 66,131 67,131 68,131 69,131 70,131 71,131 72,131 73,131 74,131 75,131 76,131 77,131 78,131 79,131 80,131 81,131 82,131 83,131 84,131 85,131 86,131 87,131 88,130 89,130 90,130 91,130 91,129 92,129 93,129 94,129 95,129 96,129 97,129 98,129 98,128 99,128 100,128 101,128 102,128 103,128 103,127 104,127 105,127 106,127 107,127 108,127 109,127 110,127 111,127" fill="none" stroke="#7c3cff" stroke-width="3" stroke-linecap="round" stroke-linejoin="round" opacity="0.95">
    <title>2127 g:1</title>
  </polyline>
  <polyline points="114,141 110,144 108,145 107,145 106,145 105,145 104,145 103,145 100,144 99,144 99,143 98,143 98,142 97,141 97,140 97,139 97,138 97,137 97,136 97,135 98,135 98,134 99,133 100,132 101,132 102,130 103,130 103,129 104,129 105,128 106,128 107,128 107,127 108,127 109,127 110,127 114,127" fill="none" stroke="#f2e45c" stroke-width="3" stroke-linecap="round" stroke-linejoin="round" opacity="0.95">
    <title>2126 e:1</title>
  </polyline>
</svg>
