<?xml version="1.0" encoding="UTF-8"?>
<svg xmlns="http://www.w3.org/2000/svg" width="75" height="66" viewBox="0 0 75 66">
  <title>particle img3-m32-p4 f:1 i:1 d:1</title>
  <metadata>{&quot;entityType&quot;:&quot;particle&quot;,&quot;entityId&quot;:&quot;img3-m32-p4&quot;,&quot;token&quot;:&quot;f:1 i:1 d:1&quot;,&quot;signature&quot;:&quot;f:1 i:1 d:1&quot;,&quot;imageName&quot;:&quot;page-003.jpg&quot;,&quot;imageId&quot;:3,&quot;bounds&quot;:{&quot;x&quot;:2330,&quot;y&quot;:753,&quot;w&quot;:75,&quot;h&quot;:66},&quot;atoms&quot;:[{&quot;id&quot;:1612,&quot;token&quot;:&quot;f:1&quot;,&quot;particle_id&quot;:&quot;img3-m32-p4&quot;,&quot;molecule_id&quot;:&quot;img3-m32&quot;,&quot;atom_order&quot;:1},{&quot;id&quot;:1613,&quot;token&quot;:&quot;i:1&quot;,&quot;particle_id&quot;:&quot;img3-m32-p4&quot;,&quot;molecule_id&quot;:&quot;img3-m32&quot;,&quot;atom_order&quot;:2},{&quot;id&quot;:1615,&quot;token&quot;:&quot;d:1&quot;,&quot;particle_id&quot;:&quot;img3-m32-p4&quot;,&quot;molecule_id&quot;:&quot;img3-m32&quot;,&quot;atom_order&quot;:3}]}</metadata>
  <rect x="0" y="0" width="75" height="66" fill="#f8f0d8"/>
  <image href="file:///C:/Users/HHHES/AppData/Roaming/com.voynichlab.datasetcreator/images/1/35a70f63-88ab-4986-b441-b78046a10087.jpg" x="-2330" y="-753" width="2972" height="3766" opacity="0.92"/>
  <rect x="0.5" y="0.5" width="74" height="65" fill="none" stroke="#111827" stroke-width="1" opacity="0.35"/>
  <polyline points="27,29 27,30 27,31 28,31 28,32 28,33 29,33 29,34 30,35 30,36 31,36 31,37 32,38 32,39 33,39 33,40 34,40 34,41 35,41 35,42 35,43 36,43 36,44 36,45 37,45 37,46 38,46 38,47 39,48 39,49 40,49 40,50" fill="none" stroke="#00a2ff" stroke-width="3" stroke-linecap="round" stroke-linejoin="round" opacity="0.95">
    <title>1612 f:1</title>
  </polyline>
  <polyline points="40,50 41,50 42,50 43,50 44,50 44,49 45,49 46,49 47,49 47,48 48,48 49,48 50,47 51,47 51,46 52,46 53,46 53,45 54,45 55,44 55,43 56,43 56,42 57,42 57,41 58,41 58,40 58,39 59,39 59,38 59,37 59,36 59,35 59,34 59,33 59,32 59,31 59,30 59,29 59,28 59,27 58,27 58,26 58,25 57,24 57,23 56,23 56,22 55,22 55,21 54,21 54,20 53,20 52,20 52,19 51,19" fill="none" stroke="#00ff7f" stroke-width="3" stroke-linecap="round" stroke-linejoin="round" opacity="0.95">
    <title>1613 i:1</title>
  </polyline>
  <polyline points="16,21 17,20 18,20 19,20 19,19 20,19 21,18 22,18 22,17 23,17 24,17 25,17 26,16 27,16 28,16 29,16 30,16 31,16 32,16 33,16 34,16 35,16 36,16 37,16 38,16 39,16 40,16 41,16 42,16 43,16 44,16 45,16 45,17 46,17 47,17 48,17 48,18 49,18 50,18 50,19 51,19" fill="none" stroke="#ff2d55" stroke-width="3" stroke-linecap="round" stroke-linejoin="round" opacity="0.95">
    <title>1615 d:1</title>
  </polyline>
</svg>
