<?xml version="1.0" encoding="UTF-8"?>
<svg xmlns="http://www.w3.org/2000/svg" width="79" height="98" viewBox="0 0 79 98">
  <title>particle img3-m55-p5 e:1 h:1</title>
  <metadata>{&quot;entityType&quot;:&quot;particle&quot;,&quot;entityId&quot;:&quot;img3-m55-p5&quot;,&quot;token&quot;:&quot;e:1 h:1&quot;,&quot;signature&quot;:&quot;e:1 h:1&quot;,&quot;imageName&quot;:&quot;page-003.jpg&quot;,&quot;imageId&quot;:3,&quot;bounds&quot;:{&quot;x&quot;:1090,&quot;y&quot;:1148,&quot;w&quot;:79,&quot;h&quot;:98},&quot;atoms&quot;:[{&quot;id&quot;:1928,&quot;token&quot;:&quot;e:1&quot;,&quot;particle_id&quot;:&quot;img3-m55-p5&quot;,&quot;molecule_id&quot;:&quot;img3-m55&quot;,&quot;atom_order&quot;:1},{&quot;id&quot;:1947,&quot;token&quot;:&quot;h:1&quot;,&quot;particle_id&quot;:&quot;img3-m55-p5&quot;,&quot;molecule_id&quot;:&quot;img3-m55&quot;,&quot;atom_order&quot;:2}]}</metadata>
  <rect x="0" y="0" width="79" height="98" fill="#f8f0d8"/>
  <image href="file:///C:/Users/HHHES/AppData/Roaming/com.voynichlab.datasetcreator/images/1/35a70f63-88ab-4986-b441-b78046a10087.jpg" x="-1090" y="-1148" width="2972" height="3766" opacity="0.92"/>
  <rect x="0.5" y="0.5" width="78" height="97" fill="none" stroke="#111827" stroke-width="1" opacity="0.35"/>
  <polyline points="56,33 56,34 55,34 55,35 54,35 53,35 53,36 52,36 51,36 50,36 49,36 48,36 47,36 46,36 46,35 45,35 44,35 43,35 43,34 42,34 41,34 41,33 41,32 41,31 41,30 41,29 41,28 41,27 42,27 42,26 42,25 42,24 43,24 43,23 43,22 44,22 44,21 44,20 45,20 46,20 46,19 47,19 47,18 48,18 49,18 49,17 50,17 51,17 52,17 52,16" fill="none" stroke="#f2e45c" stroke-width="3" stroke-linecap="round" stroke-linejoin="round" opacity="0.95">
    <title>1928 e:1</title>
  </polyline>
  <polyline points="52,16 53,16 53,17 54,17 54,18 55,18 55,19 56,19 56,20 57,20 57,21 58,21 58,22 59,23 59,24 60,24 60,25 61,25 61,26 61,27 62,27 62,28 62,29 62,30 63,31 63,32 63,33 63,34 63,35 63,36 63,37 63,38 62,38 62,39 62,40 62,41 61,41 61,42 60,43 60,44 59,45 58,46 58,47 57,48 57,49 56,49 56,50 55,50 55,51 55,52 54,52 54,53 53,54 52,55 51,55 51,56 50,56 49,57 49,58 48,58 47,59 46,59 45,60 44,60 44,61 43,61 42,62 41,62 41,63 40,63 40,64 39,64 38,64 38,65 37,65 37,66 36,66 36,67 35,67 34,67 34,68 33,68 33,69 32,69 32,70 31,70 30,71 29,71 29,72 28,72 28,73 27,73 26,74 25,75 24,75 24,76 23,76 22,77 21,78 20,79 19,79 19,80 18,80 18,81 17,81 16,81 16,82" fill="none" stroke="#ff8c00" stroke-width="3" stroke-linecap="round" stroke-linejoin="round" opacity="0.95">
    <title>1947 h:1</title>
  </polyline>
</svg>
