<?xml version="1.0" encoding="UTF-8"?>
<svg xmlns="http://www.w3.org/2000/svg" width="58" height="74" viewBox="0 0 58 74">
  <title>particle img3-m187-p4 e:1 c:1 h:2</title>
  <metadata>{&quot;entityType&quot;:&quot;particle&quot;,&quot;entityId&quot;:&quot;img3-m187-p4&quot;,&quot;token&quot;:&quot;e:1 c:1 h:2&quot;,&quot;signature&quot;:&quot;e:1 c:1 h:2&quot;,&quot;imageName&quot;:&quot;page-003.jpg&quot;,&quot;imageId&quot;:3,&quot;bounds&quot;:{&quot;x&quot;:827,&quot;y&quot;:2841,&quot;w&quot;:58,&quot;h&quot;:74},&quot;atoms&quot;:[{&quot;id&quot;:4115,&quot;token&quot;:&quot;e:1&quot;,&quot;particle_id&quot;:&quot;img3-m187-p4&quot;,&quot;molecule_id&quot;:&quot;img3-m187&quot;,&quot;atom_order&quot;:1},{&quot;id&quot;:4160,&quot;token&quot;:&quot;c:1&quot;,&quot;particle_id&quot;:&quot;img3-m187-p4&quot;,&quot;molecule_id&quot;:&quot;img3-m187&quot;,&quot;atom_order&quot;:2},{&quot;id&quot;:4183,&quot;token&quot;:&quot;h:2&quot;,&quot;particle_id&quot;:&quot;img3-m187-p4&quot;,&quot;molecule_id&quot;:&quot;img3-m187&quot;,&quot;atom_order&quot;:3}]}</metadata>
  <rect x="0" y="0" width="58" height="74" fill="#f8f0d8"/>
  <image href="file:///C:/Users/HHHES/AppData/Roaming/com.voynichlab.datasetcreator/images/1/35a70f63-88ab-4986-b441-b78046a10087.jpg" x="-827" y="-2841" width="2972" height="3766" opacity="0.92"/>
  <rect x="0.5" y="0.5" width="57" height="73" fill="none" stroke="#111827" stroke-width="1" opacity="0.35"/>
  <polyline points="31,55 31,56 30,56 30,57 29,57 28,57 28,58 27,58 26,58 25,58 24,58 23,58 22,58 21,58 21,57 20,57 19,57 18,57 18,56 17,56 16,56 16,55 16,54 16,53 16,52 16,51 16,50 16,49 17,49 17,48 17,47 17,46 18,46 18,45 18,44 19,44 19,43 19,42 20,42 21,42 21,41 22,41 22,40 23,40 24,40 24,39 25,39 26,39 27,39 27,38" fill="none" stroke="#f2e45c" stroke-width="3" stroke-linecap="round" stroke-linejoin="round" opacity="0.95">
    <title>4115 e:1</title>
  </polyline>
  <polyline points="33,32 34,32 35,32 36,32 36,31 37,31 37,30 38,30 39,30 39,29 40,29 40,28 41,28 41,27 41,26 41,25 42,25 42,24 42,23 42,22 42,21 41,20 41,19 40,19 40,18 39,18 38,18 38,17 37,17 36,17 36,16 35,16 34,16 33,16 32,16 31,16 31,17 30,17 29,18 28,18 28,19 27,19 26,20 25,20 25,21 24,22 24,23 24,24 24,25 24,26 24,27 25,28 25,29 26,29 26,30 27,30 27,31 28,31 29,31 30,32 31,32 32,32 33,32 34,32" fill="none" stroke="#8aff00" stroke-width="3" stroke-linecap="round" stroke-linejoin="round" opacity="0.95">
    <title>4160 c:1</title>
  </polyline>
  <polyline points="30,56 31,56 31,55 32,54 33,53 33,52 34,52 34,51 35,50 35,49 35,48 35,47 36,46 36,45 36,44 35,44 35,43 35,42 35,41 34,41 34,40 33,40 32,39 31,39 31,38 30,38 30,37 29,37 29,36 28,36 28,35 27,35 27,34 27,33 26,33 26,32 25,31 25,30 25,29 24,28 24,27 24,26 24,25 24,24 24,23 24,22 25,22 25,21 26,21 26,20 27,20 28,19 29,19" fill="none" stroke="#ff8c00" stroke-width="3" stroke-linecap="round" stroke-linejoin="round" opacity="0.95">
    <title>4183 h:2</title>
  </polyline>
</svg>
