<?xml version="1.0" encoding="UTF-8"?>
<svg xmlns="http://www.w3.org/2000/svg" width="88" height="68" viewBox="0 0 88 68">
  <title>particle img3-m98-p4 l:1 f:1 i:1 d:1</title>
  <metadata>{&quot;entityType&quot;:&quot;particle&quot;,&quot;entityId&quot;:&quot;img3-m98-p4&quot;,&quot;token&quot;:&quot;l:1 f:1 i:1 d:1&quot;,&quot;signature&quot;:&quot;l:1 f:1 i:1 d:1&quot;,&quot;imageName&quot;:&quot;page-003.jpg&quot;,&quot;imageId&quot;:3,&quot;bounds&quot;:{&quot;x&quot;:1841,&quot;y&quot;:1753,&quot;w&quot;:88,&quot;h&quot;:68},&quot;atoms&quot;:[{&quot;id&quot;:2513,&quot;token&quot;:&quot;l:1&quot;,&quot;particle_id&quot;:&quot;img3-m98-p4&quot;,&quot;molecule_id&quot;:&quot;img3-m98&quot;,&quot;atom_order&quot;:1},{&quot;id&quot;:2514,&quot;token&quot;:&quot;f:1&quot;,&quot;particle_id&quot;:&quot;img3-m98-p4&quot;,&quot;molecule_id&quot;:&quot;img3-m98&quot;,&quot;atom_order&quot;:2},{&quot;id&quot;:2515,&quot;token&quot;:&quot;i:1&quot;,&quot;particle_id&quot;:&quot;img3-m98-p4&quot;,&quot;molecule_id&quot;:&quot;img3-m98&quot;,&quot;atom_order&quot;:3},{&quot;id&quot;:2517,&quot;token&quot;:&quot;d:1&quot;,&quot;particle_id&quot;:&quot;img3-m98-p4&quot;,&quot;molecule_id&quot;:&quot;img3-m98&quot;,&quot;atom_order&quot;:4}]}</metadata>
  <rect x="0" y="0" width="88" height="68" fill="#f8f0d8"/>
  <image href="file:///C:/Users/HHHES/AppData/Roaming/com.voynichlab.datasetcreator/images/1/35a70f63-88ab-4986-b441-b78046a10087.jpg" x="-1841" y="-1753" width="2972" height="3766" opacity="0.92"/>
  <rect x="0.5" y="0.5" width="87" height="67" fill="none" stroke="#111827" stroke-width="1" opacity="0.35"/>
  <polyline points="16,34 16,35 17,35 17,36 17,37 18,37 18,38 19,39 19,40 20,40 20,41 20,42 21,42 21,43 22,44 22,45 23,46 23,47 23,48 24,48 24,49 25,50 25,51 26,51 26,52 27,52 28,52 29,52 29,51 30,51 30,50 31,49 32,49 32,48 33,48 34,47 34,46 35,46 36,46 36,45 37,45 38,45 38,44 39,44 39,43 40,43 41,43 41,42 42,42 43,41 44,41 44,40 45,40 46,40 46,39 47,39 47,38" fill="none" stroke="#ff5f1f" stroke-width="3" stroke-linecap="round" stroke-linejoin="round" opacity="0.95">
    <title>2513 l:1</title>
  </polyline>
  <polyline points="47,38 47,39 48,39 48,40 49,40 49,41 50,41 50,42 51,42 51,43 52,43 52,44 53,44 53,45 54,45 54,46 55,46 55,47 56,47 56,48" fill="none" stroke="#00a2ff" stroke-width="3" stroke-linecap="round" stroke-linejoin="round" opacity="0.95">
    <title>2514 f:1</title>
  </polyline>
  <polyline points="56,48 57,48 58,48 58,47 59,47 60,47 60,46 61,46 62,46 62,45 63,45 64,45 64,44 65,43 66,43 66,42 67,42 67,41 68,41 68,40 69,40 69,39 70,39 70,38 71,38 71,37 71,36 72,36 72,35 72,34 72,33 72,32 72,31 72,30 72,29 72,28 72,27 72,26 71,26 71,25 70,24 69,23 69,22 68,22 67,21 66,21 66,20 65,20" fill="none" stroke="#00ff7f" stroke-width="3" stroke-linecap="round" stroke-linejoin="round" opacity="0.95">
    <title>2515 i:1</title>
  </polyline>
  <polyline points="38,23 41,21 42,21 42,20 43,20 43,19 44,19 45,19 45,18 46,18 51,16 54,16 55,16 56,16 57,16 58,17 59,17 60,17 61,18 62,18 63,19 64,19 65,19 66,20" fill="none" stroke="#ff2d55" stroke-width="3" stroke-linecap="round" stroke-linejoin="round" opacity="0.95">
    <title>2517 d:1</title>
  </polyline>
</svg>
