<?xml version="1.0" encoding="UTF-8"?>
<svg xmlns="http://www.w3.org/2000/svg" width="60" height="73" viewBox="0 0 60 73">
  <title>particle img3-m158-p1 e:1 c:1 h:2</title>
  <metadata>{&quot;entityType&quot;:&quot;particle&quot;,&quot;entityId&quot;:&quot;img3-m158-p1&quot;,&quot;token&quot;:&quot;e:1 c:1 h:2&quot;,&quot;signature&quot;:&quot;e:1 c:1 h:2&quot;,&quot;imageName&quot;:&quot;page-003.jpg&quot;,&quot;imageId&quot;:3,&quot;bounds&quot;:{&quot;x&quot;:883,&quot;y&quot;:2585,&quot;w&quot;:60,&quot;h&quot;:73},&quot;atoms&quot;:[{&quot;id&quot;:3818,&quot;token&quot;:&quot;e:1&quot;,&quot;particle_id&quot;:&quot;img3-m158-p1&quot;,&quot;molecule_id&quot;:&quot;img3-m158&quot;,&quot;atom_order&quot;:1},{&quot;id&quot;:3847,&quot;token&quot;:&quot;c:1&quot;,&quot;particle_id&quot;:&quot;img3-m158-p1&quot;,&quot;molecule_id&quot;:&quot;img3-m158&quot;,&quot;atom_order&quot;:2},{&quot;id&quot;:3842,&quot;token&quot;:&quot;h:2&quot;,&quot;particle_id&quot;:&quot;img3-m158-p1&quot;,&quot;molecule_id&quot;:&quot;img3-m158&quot;,&quot;atom_order&quot;:3}]}</metadata>
  <rect x="0" y="0" width="60" height="73" fill="#f8f0d8"/>
  <image href="file:///C:/Users/HHHES/AppData/Roaming/com.voynichlab.datasetcreator/images/1/35a70f63-88ab-4986-b441-b78046a10087.jpg" x="-883" y="-2585" width="2972" height="3766" opacity="0.92"/>
  <rect x="0.5" y="0.5" width="59" height="72" fill="none" stroke="#111827" stroke-width="1" opacity="0.35"/>
  <polyline points="31,54 31,55 30,55 30,56 29,56 28,56 28,57 27,57 26,57 25,57 24,57 23,57 22,57 21,57 21,56 20,56 19,56 18,56 18,55 17,55 16,55 16,54 16,53 16,52 16,51 16,50 16,49 16,48 17,48 17,47 17,46 17,45 18,45 18,44 18,43 19,43 19,42 19,41 20,41 21,41 21,40 22,40 22,39 23,39 24,39 24,38 25,38 26,38 27,38 27,37" fill="none" stroke="#f2e45c" stroke-width="3" stroke-linecap="round" stroke-linejoin="round" opacity="0.95">
    <title>3818 e:1</title>
  </polyline>
  <polyline points="32,17 33,17 33,16 34,16 35,16 36,16 37,16 38,16 39,16 40,16 40,17 41,17 42,17 43,17 43,18 44,19 44,20 44,21 44,22 44,23 44,24 44,25 43,26 43,27 43,28 42,28 42,29 41,29 41,30 40,31 39,32 38,32 38,33 37,33 36,33 35,33 34,34 33,34 32,34 31,34 30,34 29,34 29,33 28,33 27,33 27,32 26,32 26,31 26,30 26,29 26,28 25,28 25,27 25,26 26,26 26,25 26,24 26,23 26,22 27,22 27,21 28,21 28,20 29,20 29,19 30,19 30,18 31,18 31,17 32,17 33,17 33,16" fill="none" stroke="#8aff00" stroke-width="3" stroke-linecap="round" stroke-linejoin="round" opacity="0.95">
    <title>3847 c:1</title>
  </polyline>
  <polyline points="30,55 31,55 31,54 32,54 32,53 33,53 33,52 34,52 34,51 35,51 35,50 35,49 36,49 36,48 36,47 36,46 36,45 35,45 35,44 35,43 35,42 34,42 34,41 34,40 33,40 33,39 32,39 32,38 31,38 31,37 30,37 30,36 29,36 28,35 28,34 27,34 27,33 26,33 26,32 25,32 25,31 24,31 24,30 23,30 23,29 23,28 23,27 23,26 23,25 23,24 23,23 24,23 24,22 25,21 26,20 27,20 27,19 28,19 29,18 30,18 31,17 32,17 33,17" fill="none" stroke="#ff8c00" stroke-width="3" stroke-linecap="round" stroke-linejoin="round" opacity="0.95">
    <title>3842 h:2</title>
  </polyline>
</svg>
