<?xml version="1.0" encoding="UTF-8"?>
<svg xmlns="http://www.w3.org/2000/svg" width="93" height="96" viewBox="0 0 93 96">
  <title>particle img3-m122-p2 e:1 h:1 e:1 c:1 h:2</title>
  <metadata>{&quot;entityType&quot;:&quot;particle&quot;,&quot;entityId&quot;:&quot;img3-m122-p2&quot;,&quot;token&quot;:&quot;e:1 h:1 e:1 c:1 h:2&quot;,&quot;signature&quot;:&quot;e:1 h:1 e:1 c:1 h:2&quot;,&quot;imageName&quot;:&quot;page-003.jpg&quot;,&quot;imageId&quot;:3,&quot;bounds&quot;:{&quot;x&quot;:1697,&quot;y&quot;:1984,&quot;w&quot;:93,&quot;h&quot;:96},&quot;atoms&quot;:[{&quot;id&quot;:3326,&quot;token&quot;:&quot;e:1&quot;,&quot;particle_id&quot;:&quot;img3-m122-p2&quot;,&quot;molecule_id&quot;:&quot;img3-m122&quot;,&quot;atom_order&quot;:1},{&quot;id&quot;:3338,&quot;token&quot;:&quot;h:1&quot;,&quot;particle_id&quot;:&quot;img3-m122-p2&quot;,&quot;molecule_id&quot;:&quot;img3-m122&quot;,&quot;atom_order&quot;:2},{&quot;id&quot;:3327,&quot;token&quot;:&quot;e:1&quot;,&quot;particle_id&quot;:&quot;img3-m122-p2&quot;,&quot;molecule_id&quot;:&quot;img3-m122&quot;,&quot;atom_order&quot;:3},{&quot;id&quot;:3356,&quot;token&quot;:&quot;c:1&quot;,&quot;particle_id&quot;:&quot;img3-m122-p2&quot;,&quot;molecule_id&quot;:&quot;img3-m122&quot;,&quot;atom_order&quot;:4},{&quot;id&quot;:3385,&quot;token&quot;:&quot;h:2&quot;,&quot;particle_id&quot;:&quot;img3-m122-p2&quot;,&quot;molecule_id&quot;:&quot;img3-m122&quot;,&quot;atom_order&quot;:5}]}</metadata>
  <rect x="0" y="0" width="93" height="96" fill="#f8f0d8"/>
  <image href="file:///C:/Users/HHHES/AppData/Roaming/com.voynichlab.datasetcreator/images/1/35a70f63-88ab-4986-b441-b78046a10087.jpg" x="-1697" y="-1984" width="2972" height="3766" opacity="0.92"/>
  <rect x="0.5" y="0.5" width="92" height="95" fill="none" stroke="#111827" stroke-width="1" opacity="0.35"/>
  <polyline points="31,47 31,48 30,48 30,49 29,49 28,49 28,50 27,50 26,50 25,50 24,50 23,50 22,50 21,50 21,49 20,49 19,49 18,49 18,48 17,48 16,48 16,47 16,46 16,45 16,44 16,43 16,42 16,41 17,41 17,40 17,39 17,38 18,38 18,37 18,36 19,36 19,35 19,34 20,34 21,34 21,33 22,33 22,32 23,32 24,32 24,31 25,31 26,31 27,31 27,30" fill="none" stroke="#f2e45c" stroke-width="3" stroke-linecap="round" stroke-linejoin="round" opacity="0.95">
    <title>3326 e:1</title>
  </polyline>
  <polyline points="27,30 28,30 28,31 29,31 30,31 30,32 30,33 31,33 32,34 33,35 34,36 35,37 35,38 36,38 36,39 37,39 37,40 37,41 38,42 38,43 38,44 38,45 39,45 39,46 39,47 39,48 39,49 39,50 39,51 38,51 38,52 38,53 38,54 38,55 37,56 37,57 37,58 36,59 36,60 35,60 35,61 34,62 34,63 33,63 33,64 32,64 32,65 31,65 31,66 30,66 30,67 29,68 29,69 28,69 28,70 27,70 27,71 26,71 26,72 25,72 25,73 24,73 24,74 23,75 23,76 22,76 22,77 21,78 21,79 20,80" fill="none" stroke="#ff8c00" stroke-width="3" stroke-linecap="round" stroke-linejoin="round" opacity="0.95">
    <title>3338 h:1</title>
  </polyline>
  <polyline points="67,52 67,53 66,53 66,54 65,54 64,54 64,55 63,55 62,55 61,55 60,55 59,55 58,55 57,55 57,54 56,54 55,54 54,54 54,53 53,53 52,53 52,52 52,51 52,50 52,49 52,48 52,47 52,46 53,46 53,45 53,44 53,43 54,43 54,42 54,41 55,41 55,40 55,39 56,39 57,39 57,38 58,38 58,37 59,37 60,37 60,36 61,36 62,36 63,36 63,35" fill="none" stroke="#f2e45c" stroke-width="3" stroke-linecap="round" stroke-linejoin="round" opacity="0.95">
    <title>3327 e:1</title>
  </polyline>
  <polyline points="72,31 73,31 73,30 74,30 75,30 75,29 76,29 76,28 77,27 77,26 77,25 77,24 77,23 77,22 77,21 77,20 76,20 76,19 75,19 75,18 74,18 73,18 72,17 71,17 70,17 70,16 69,16 68,16 67,16 66,16 65,16 64,16 63,16 62,16 61,16 61,17 60,17 60,18 59,18 59,19 59,20 59,21 59,22 60,22 60,23 61,23 61,24 62,25 62,26 63,26 63,27 64,28 65,28 65,29 66,29 66,30 67,30 68,30 69,30 69,31 70,31 71,31 72,31 72,30" fill="none" stroke="#8aff00" stroke-width="3" stroke-linecap="round" stroke-linejoin="round" opacity="0.95">
    <title>3356 c:1</title>
  </polyline>
  <polyline points="66,54 67,54 68,53 69,53 69,52 70,52 70,51 71,51 71,50 72,50 72,49 72,48 72,47 72,46 72,45 72,44 71,43 71,42 71,41 70,41 70,40 70,39 69,38 68,37 68,36 67,36 66,35 65,35 65,34 64,33 63,32 63,31 62,30 62,29 61,29 61,28 60,27 60,26 60,25 59,25 59,24 59,23 59,22 59,21 59,20 60,19 61,18 62,18 63,18 64,18" fill="none" stroke="#ff8c00" stroke-width="3" stroke-linecap="round" stroke-linejoin="round" opacity="0.95">
    <title>3385 h:2</title>
  </polyline>
</svg>
