<?xml version="1.0" encoding="UTF-8"?>
<svg xmlns="http://www.w3.org/2000/svg" width="117" height="85" viewBox="0 0 117 85">
  <title>particle img3-m117-p5 k:1 f:1 i:1 d:1</title>
  <metadata>{&quot;entityType&quot;:&quot;particle&quot;,&quot;entityId&quot;:&quot;img3-m117-p5&quot;,&quot;token&quot;:&quot;k:1 f:1 i:1 d:1&quot;,&quot;signature&quot;:&quot;k:1 f:1 i:1 d:1&quot;,&quot;imageName&quot;:&quot;page-003.jpg&quot;,&quot;imageId&quot;:3,&quot;bounds&quot;:{&quot;x&quot;:1839,&quot;y&quot;:1892,&quot;w&quot;:117,&quot;h&quot;:85},&quot;atoms&quot;:[{&quot;id&quot;:3306,&quot;token&quot;:&quot;k:1&quot;,&quot;particle_id&quot;:&quot;img3-m117-p5&quot;,&quot;molecule_id&quot;:&quot;img3-m117&quot;,&quot;atom_order&quot;:1},{&quot;id&quot;:3281,&quot;token&quot;:&quot;f:1&quot;,&quot;particle_id&quot;:&quot;img3-m117-p5&quot;,&quot;molecule_id&quot;:&quot;img3-m117&quot;,&quot;atom_order&quot;:2},{&quot;id&quot;:3290,&quot;token&quot;:&quot;i:1&quot;,&quot;particle_id&quot;:&quot;img3-m117-p5&quot;,&quot;molecule_id&quot;:&quot;img3-m117&quot;,&quot;atom_order&quot;:3},{&quot;id&quot;:3294,&quot;token&quot;:&quot;d:1&quot;,&quot;particle_id&quot;:&quot;img3-m117-p5&quot;,&quot;molecule_id&quot;:&quot;img3-m117&quot;,&quot;atom_order&quot;:4}]}</metadata>
  <rect x="0" y="0" width="117" height="85" fill="#f8f0d8"/>
  <image href="file:///C:/Users/HHHES/AppData/Roaming/com.voynichlab.datasetcreator/images/1/35a70f63-88ab-4986-b441-b78046a10087.jpg" x="-1839" y="-1892" width="2972" height="3766" opacity="0.92"/>
  <rect x="0.5" y="0.5" width="116" height="84" fill="none" stroke="#111827" stroke-width="1" opacity="0.35"/>
  <polyline points="16,46 16,47 16,48 16,49 17,49 18,50 19,51 20,52 21,53 22,54 23,55 24,56 25,56 25,57 25,58 26,58 27,59 27,60 28,60 29,60 30,59 31,59 31,58 32,58 32,57 33,57 33,56 34,56 34,55 35,55 35,54 36,53 36,52 37,52 37,51 38,51 38,50 39,49 40,48 40,47 41,47 41,48 41,49 42,49 42,50 43,51 43,52 44,52 44,53 44,54 45,54 45,55 46,56 46,57 47,57 47,58 48,58 48,59 49,59 49,60 50,61 51,62 52,62 53,62 54,62 54,61 55,61 55,60 56,60 57,59 58,58 59,58 59,57 60,57 60,56 61,56 61,55 62,55 62,54 63,54 64,53 65,53 65,52 66,52 66,51 67,51 68,50 69,50 69,49 70,49 71,49 71,48 72,48" fill="none" stroke="#ffffff" stroke-width="3" stroke-linecap="round" stroke-linejoin="round" opacity="0.95">
    <title>3306 k:1</title>
  </polyline>
  <polyline points="72,48 72,49 72,50 73,50 73,51 73,52 74,52 74,53 75,54 75,55 76,55 76,56 77,57 77,58 78,58 78,59 79,59 79,60 80,60 80,61 80,62 81,62 81,63 81,64 82,64 82,65 83,65 83,66 84,67 84,68 85,68 85,69" fill="none" stroke="#00a2ff" stroke-width="3" stroke-linecap="round" stroke-linejoin="round" opacity="0.95">
    <title>3281 f:1</title>
  </polyline>
  <polyline points="79,59 80,59 81,59 82,59 83,59 84,59 85,59 86,59 87,59 87,58 88,58 89,58 90,58 90,57 91,57 92,57 92,56 93,56 94,55 95,55 95,54 96,54 96,53 97,53 98,52 99,51 99,50 99,49 100,49 100,48 100,47 100,46 100,45 100,44 100,43 100,42 101,41 101,40 101,39 101,38 101,37 101,36 100,35 100,34 100,33 100,32 99,32 99,31 99,30 98,29 98,28 97,28 97,27 96,26 95,26 95,25 94,25 94,24 93,24 92,23 91,23 90,22 89,21 88,21 88,20 87,20 86,20 86,19 85,19 84,19 83,18 82,18 81,18 80,17 79,17 78,17 77,17 76,17 75,17 74,17 73,17 72,17" fill="none" stroke="#00ff7f" stroke-width="3" stroke-linecap="round" stroke-linejoin="round" opacity="0.95">
    <title>3290 i:1</title>
  </polyline>
  <polyline points="54,18 55,18 56,18 57,17 58,17 59,17 60,17 60,16 61,16 62,16 63,16 64,16 65,16 66,16 67,16 68,16 69,16 70,16 71,16 72,16 73,16 74,16 75,16 76,16 76,17 77,17 78,17 79,18 80,18 81,18 82,18 83,18 83,19 84,19 85,19 85,20" fill="none" stroke="#ff2d55" stroke-width="3" stroke-linecap="round" stroke-linejoin="round" opacity="0.95">
    <title>3294 d:1</title>
  </polyline>
</svg>
