<?xml version="1.0" encoding="UTF-8"?>
<svg xmlns="http://www.w3.org/2000/svg" width="71" height="88" viewBox="0 0 71 88">
  <title>particle img3-m2-p2 e:1 i:1 d:1</title>
  <metadata>{&quot;entityType&quot;:&quot;particle&quot;,&quot;entityId&quot;:&quot;img3-m2-p2&quot;,&quot;token&quot;:&quot;e:1 i:1 d:1&quot;,&quot;signature&quot;:&quot;e:1 i:1 d:1&quot;,&quot;imageName&quot;:&quot;page-003.jpg&quot;,&quot;imageId&quot;:3,&quot;bounds&quot;:{&quot;x&quot;:1845,&quot;y&quot;:480,&quot;w&quot;:71,&quot;h&quot;:88},&quot;atoms&quot;:[{&quot;id&quot;:1107,&quot;token&quot;:&quot;e:1&quot;,&quot;particle_id&quot;:&quot;img3-m2-p2&quot;,&quot;molecule_id&quot;:&quot;img3-m2&quot;,&quot;atom_order&quot;:1},{&quot;id&quot;:1108,&quot;token&quot;:&quot;i:1&quot;,&quot;particle_id&quot;:&quot;img3-m2-p2&quot;,&quot;molecule_id&quot;:&quot;img3-m2&quot;,&quot;atom_order&quot;:2},{&quot;id&quot;:1109,&quot;token&quot;:&quot;d:1&quot;,&quot;particle_id&quot;:&quot;img3-m2-p2&quot;,&quot;molecule_id&quot;:&quot;img3-m2&quot;,&quot;atom_order&quot;:3}]}</metadata>
  <rect x="0" y="0" width="71" height="88" fill="#f8f0d8"/>
  <image href="file:///C:/Users/HHHES/AppData/Roaming/com.voynichlab.datasetcreator/images/1/35a70f63-88ab-4986-b441-b78046a10087.jpg" x="-1845" y="-480" width="2972" height="3766" opacity="0.92"/>
  <rect x="0.5" y="0.5" width="70" height="87" fill="none" stroke="#111827" stroke-width="1" opacity="0.35"/>
  <polyline points="51,68 50,68 50,69 50,70 49,70 49,71 48,71 48,72 47,72 46,72 45,72 44,72 43,72 42,72 41,72 40,72 39,72 39,71 38,71 37,70 36,70 36,69 35,69 34,68 33,67 33,66 32,66 32,65 31,65 31,64 31,63 31,62 30,61 30,60 30,59 30,58 30,57 30,56 30,55 30,54 30,53 31,53 31,52 31,51 32,51 32,50 33,50 33,49 34,49 35,49 36,49 36,48 37,48 37,49 38,49 39,50 40,50" fill="none" stroke="#f2e45c" stroke-width="3" stroke-linecap="round" stroke-linejoin="round" opacity="0.95">
    <title>1107 e:1</title>
  </polyline>
  <polyline points="40,50 41,50 42,50 43,50 44,50 45,50 46,50 47,50 48,50 48,49 49,49 50,48 50,47 51,47 52,47 52,46 53,45 53,44 54,44 54,43 54,42 55,42 55,41 55,40 55,39 55,38 55,37 55,36 55,35 55,34 55,33 55,32 55,31 54,31 54,30 54,29 53,28 53,27 52,27 52,26 51,25 51,24 50,24" fill="none" stroke="#00ff7f" stroke-width="3" stroke-linecap="round" stroke-linejoin="round" opacity="0.95">
    <title>1108 i:1</title>
  </polyline>
  <polyline points="16,24 16,23 17,23 17,22 18,22 19,22 19,21 20,21 21,20 22,20 22,19 23,19 24,19 24,18 25,18 26,18 26,17 27,17 28,17 29,17 29,16 30,16 31,16 32,16 33,16 34,16 35,16 36,16 37,16 38,16 39,16 39,17 40,17 41,17 42,17 42,18 43,18 44,18 44,19 45,19 46,20 46,21 47,21 48,22 49,22 49,23 50,23 50,24" fill="none" stroke="#ff2d55" stroke-width="3" stroke-linecap="round" stroke-linejoin="round" opacity="0.95">
    <title>1109 d:1</title>
  </polyline>
</svg>
