<?xml version="1.0" encoding="UTF-8"?>
<svg xmlns="http://www.w3.org/2000/svg" width="59" height="77" viewBox="0 0 59 77">
  <title>particle img3-m8-p5 e:1 c:2 h:2</title>
  <metadata>{&quot;entityType&quot;:&quot;particle&quot;,&quot;entityId&quot;:&quot;img3-m8-p5&quot;,&quot;token&quot;:&quot;e:1 c:2 h:2&quot;,&quot;signature&quot;:&quot;e:1 c:2 h:2&quot;,&quot;imageName&quot;:&quot;page-003.jpg&quot;,&quot;imageId&quot;:3,&quot;bounds&quot;:{&quot;x&quot;:2313,&quot;y&quot;:503,&quot;w&quot;:59,&quot;h&quot;:77},&quot;atoms&quot;:[{&quot;id&quot;:1150,&quot;token&quot;:&quot;e:1&quot;,&quot;particle_id&quot;:&quot;img3-m8-p5&quot;,&quot;molecule_id&quot;:&quot;img3-m8&quot;,&quot;atom_order&quot;:1},{&quot;id&quot;:1136,&quot;token&quot;:&quot;c:2&quot;,&quot;particle_id&quot;:&quot;img3-m8-p5&quot;,&quot;molecule_id&quot;:&quot;img3-m8&quot;,&quot;atom_order&quot;:2},{&quot;id&quot;:1137,&quot;token&quot;:&quot;h:2&quot;,&quot;particle_id&quot;:&quot;img3-m8-p5&quot;,&quot;molecule_id&quot;:&quot;img3-m8&quot;,&quot;atom_order&quot;:3}]}</metadata>
  <rect x="0" y="0" width="59" height="77" fill="#f8f0d8"/>
  <image href="file:///C:/Users/HHHES/AppData/Roaming/com.voynichlab.datasetcreator/images/1/35a70f63-88ab-4986-b441-b78046a10087.jpg" x="-2313" y="-503" width="2972" height="3766" opacity="0.92"/>
  <rect x="0.5" y="0.5" width="58" height="76" fill="none" stroke="#111827" stroke-width="1" opacity="0.35"/>
  <polyline points="30,59 29,59 29,60 28,60 27,60 26,60 25,60 25,61 24,61 23,61 22,61 22,60 21,60 21,59 20,59 20,58 19,58 19,57 18,57 18,56 17,56 17,55 17,54 16,54 16,53 16,52 16,51 16,50 16,49 16,48 16,47 16,46 16,45 16,44 17,44 17,43 18,43 18,42 19,41 20,41 20,40 21,40 21,39 22,39 22,38 23,38 24,38 24,37 25,37 26,37 26,36 27,36 28,36 29,36" fill="none" stroke="#f2e45c" stroke-width="3" stroke-linecap="round" stroke-linejoin="round" opacity="0.95">
    <title>1150 e:1</title>
  </polyline>
  <polyline points="25,22 25,23 24,23 24,24 24,25 23,25 23,26 23,27 23,28 23,29 23,30 23,31 23,32 24,32 24,33 25,33 25,34 26,35 27,35 28,35 29,35 29,36 30,36 31,36 32,36 33,36 34,36 35,36 36,36 37,36 37,35 38,35 39,35 39,34 39,33 40,33 40,32 41,32 41,31 41,30 42,30 42,29 42,28 43,28 43,27 43,26 43,25 43,24 43,23 43,22 42,22 42,21 42,20 41,20 41,19 40,19 40,18 39,18 39,17 38,17 37,17 37,16 36,16 35,16 34,16 33,16 32,16 31,16 30,16 29,17 28,17 28,18 27,18 27,19 26,19 25,19 25,20 24,20 24,21 24,22" fill="none" stroke="#8aff00" stroke-width="3" stroke-linecap="round" stroke-linejoin="round" opacity="0.95">
    <title>1136 c:2</title>
  </polyline>
  <polyline points="33,56 33,55 34,55 35,55 36,54 37,54 37,53 38,53 38,52 38,51 39,51 39,50 39,49 39,48 39,47 39,46 39,45 39,44 38,44 38,43 37,42 37,41 36,41 36,40 35,40 35,39 34,39 34,38 33,38 33,37 32,37 31,36 29,36 29,36 28,36 28,35 27,35 26,35 26,34 25,34 25,33 24,33 24,32 24,31 23,31 23,30 22,29 22,28 22,27 22,26 22,25 23,24 23,23 23,22 24,22 24,21 24,20 25,20" fill="none" stroke="#ff8c00" stroke-width="3" stroke-linecap="round" stroke-linejoin="round" opacity="0.95">
    <title>1137 h:2</title>
  </polyline>
</svg>
