<?xml version="1.0" encoding="UTF-8"?>
<svg xmlns="http://www.w3.org/2000/svg" width="87" height="52" viewBox="0 0 87 52">
  <title>particle img3-m48-p4 e:1 g:1 e:1</title>
  <metadata>{&quot;entityType&quot;:&quot;particle&quot;,&quot;entityId&quot;:&quot;img3-m48-p4&quot;,&quot;token&quot;:&quot;e:1 g:1 e:1&quot;,&quot;signature&quot;:&quot;e:1 g:1 e:1&quot;,&quot;imageName&quot;:&quot;page-003.jpg&quot;,&quot;imageId&quot;:3,&quot;bounds&quot;:{&quot;x&quot;:1043,&quot;y&quot;:1065,&quot;w&quot;:87,&quot;h&quot;:52},&quot;atoms&quot;:[{&quot;id&quot;:1782,&quot;token&quot;:&quot;e:1&quot;,&quot;particle_id&quot;:&quot;img3-m48-p4&quot;,&quot;molecule_id&quot;:&quot;img3-m48&quot;,&quot;atom_order&quot;:1},{&quot;id&quot;:1785,&quot;token&quot;:&quot;g:1&quot;,&quot;particle_id&quot;:&quot;img3-m48-p4&quot;,&quot;molecule_id&quot;:&quot;img3-m48&quot;,&quot;atom_order&quot;:2},{&quot;id&quot;:1783,&quot;token&quot;:&quot;e:1&quot;,&quot;particle_id&quot;:&quot;img3-m48-p4&quot;,&quot;molecule_id&quot;:&quot;img3-m48&quot;,&quot;atom_order&quot;:3}]}</metadata>
  <rect x="0" y="0" width="87" height="52" fill="#f8f0d8"/>
  <image href="file:///C:/Users/HHHES/AppData/Roaming/com.voynichlab.datasetcreator/images/1/35a70f63-88ab-4986-b441-b78046a10087.jpg" x="-1043" y="-1065" width="2972" height="3766" opacity="0.92"/>
  <rect x="0.5" y="0.5" width="86" height="51" fill="none" stroke="#111827" stroke-width="1" opacity="0.35"/>
  <polyline points="30,33 30,34 29,34 29,35 28,35 27,36 26,36 25,36 24,36 23,36 22,36 21,36 20,36 19,36 18,36 18,35 17,35 17,34 17,33 16,33 16,32 16,31 16,30 16,29 16,28 17,28 17,27 17,26 18,26 18,25 19,25 19,24 20,24 20,23 21,23 22,23 22,22 23,22 24,21 25,21 26,21 27,21 28,21 29,21" fill="none" stroke="#f2e45c" stroke-width="3" stroke-linecap="round" stroke-linejoin="round" opacity="0.95">
    <title>1782 e:1</title>
  </polyline>
  <polyline points="26,21 27,21 28,21 29,21 30,21 30,20 31,20 32,20 33,20 34,20 35,20 35,19 36,19 37,19 38,19 39,19 40,19 41,19 42,19 43,19 44,19 44,18 45,18 46,18 47,18 48,18 49,18 50,18 51,18 52,18 53,18 53,17 54,17 55,17 56,17 57,17 58,17 59,17 60,17 61,17 62,17 63,16 64,16 65,16 66,16 67,16 68,16 69,16 70,16" fill="none" stroke="#7c3cff" stroke-width="3" stroke-linecap="round" stroke-linejoin="round" opacity="0.95">
    <title>1785 g:1</title>
  </polyline>
  <polyline points="71,31 69,33 64,34 62,35 61,34 60,34 59,34 58,34 57,34 57,33 56,33 55,33 55,32 55,31 55,30 54,30 54,29 54,28 54,27 54,26 54,25 55,25 55,24 55,23 56,23 56,22 57,22 58,21 59,21 59,20 60,20 61,20 61,19 62,19 63,19 63,18 64,18 65,18 66,18 66,17 67,17 68,17 69,16 70,16" fill="none" stroke="#f2e45c" stroke-width="3" stroke-linecap="round" stroke-linejoin="round" opacity="0.95">
    <title>1783 e:1</title>
  </polyline>
</svg>
