<?xml version="1.0" encoding="UTF-8"?>
<svg xmlns="http://www.w3.org/2000/svg" width="108" height="84" viewBox="0 0 108 84">
  <title>particle img3-m33-p3 k:1 f:1 i:1 d:1</title>
  <metadata>{&quot;entityType&quot;:&quot;particle&quot;,&quot;entityId&quot;:&quot;img3-m33-p3&quot;,&quot;token&quot;:&quot;k:1 f:1 i:1 d:1&quot;,&quot;signature&quot;:&quot;k:1 f:1 i:1 d:1&quot;,&quot;imageName&quot;:&quot;page-003.jpg&quot;,&quot;imageId&quot;:3,&quot;bounds&quot;:{&quot;x&quot;:628,&quot;y&quot;:769,&quot;w&quot;:108,&quot;h&quot;:84},&quot;atoms&quot;:[{&quot;id&quot;:1490,&quot;token&quot;:&quot;k:1&quot;,&quot;particle_id&quot;:&quot;img3-m33-p3&quot;,&quot;molecule_id&quot;:&quot;img3-m33&quot;,&quot;atom_order&quot;:1},{&quot;id&quot;:1491,&quot;token&quot;:&quot;f:1&quot;,&quot;particle_id&quot;:&quot;img3-m33-p3&quot;,&quot;molecule_id&quot;:&quot;img3-m33&quot;,&quot;atom_order&quot;:2},{&quot;id&quot;:1492,&quot;token&quot;:&quot;i:1&quot;,&quot;particle_id&quot;:&quot;img3-m33-p3&quot;,&quot;molecule_id&quot;:&quot;img3-m33&quot;,&quot;atom_order&quot;:3},{&quot;id&quot;:1493,&quot;token&quot;:&quot;d:1&quot;,&quot;particle_id&quot;:&quot;img3-m33-p3&quot;,&quot;molecule_id&quot;:&quot;img3-m33&quot;,&quot;atom_order&quot;:4}]}</metadata>
  <rect x="0" y="0" width="108" height="84" fill="#f8f0d8"/>
  <image href="file:///C:/Users/HHHES/AppData/Roaming/com.voynichlab.datasetcreator/images/1/35a70f63-88ab-4986-b441-b78046a10087.jpg" x="-628" y="-769" width="2972" height="3766" opacity="0.92"/>
  <rect x="0.5" y="0.5" width="107" height="83" fill="none" stroke="#111827" stroke-width="1" opacity="0.35"/>
  <polyline points="16,46 16,47 17,47 17,48 17,49 18,49 18,50 18,51 19,51 19,52 19,53 20,53 20,54 20,55 20,56 21,56 21,57 21,58 22,58 22,59 22,60 23,60 23,61 24,62 24,63 25,63 25,64 26,64 26,63 27,63 27,62 27,61 28,61 28,60 29,60 29,59 30,59 31,58 32,58 32,57 33,57 33,56 34,56 34,55 35,55 35,54 36,54 36,53 37,53 37,52 38,52 38,51 39,51 39,50 39,49 39,50 39,51 39,52 39,53 40,53 40,54 40,55 40,56 40,57 41,57 41,58 41,59 42,59 42,60 43,60 43,61 43,62 44,62 44,63 45,63 45,64 46,64 46,63 47,63 47,62 47,61 48,61 48,60 49,60 50,60 50,59 51,59 51,58 52,58 52,57 53,57 54,57 54,56 55,55 56,55 56,54 57,54 58,53 59,52 60,52 61,51" fill="none" stroke="#ffffff" stroke-width="3" stroke-linecap="round" stroke-linejoin="round" opacity="0.95">
    <title>1490 k:1</title>
  </polyline>
  <polyline points="61,51 61,52 62,52 62,53 62,54 63,54 63,55 63,56 64,56 64,57 65,57 65,58 65,59 65,60 66,60 66,61 67,61 67,62 67,63 67,64 68,64 68,65 68,66 69,66 69,67 69,68 70,68" fill="none" stroke="#00a2ff" stroke-width="3" stroke-linecap="round" stroke-linejoin="round" opacity="0.95">
    <title>1491 f:1</title>
  </polyline>
  <polyline points="69,68 70,68 71,68 71,67 72,67 73,66 74,66 74,65 75,65 75,64 76,64 76,63 77,63 78,63 78,62 79,62 79,61 80,61 81,61 81,60 82,60 82,59 83,59 83,58 84,58 84,57 85,57 85,56 86,56 86,55 87,55 87,54 88,54 88,53 89,52 89,51 90,51 90,50 90,49 91,49 91,48 91,47 91,46 91,45 92,45 92,44 92,43 92,42 92,41 92,40 91,40 91,39 91,38 91,37 91,36 91,35 90,35 90,34 90,33 90,32 89,32 89,31 89,30 88,30 88,29 88,28 87,28 87,27 87,26 86,26 86,25 85,25 85,24 84,24 83,24 83,23" fill="none" stroke="#00ff7f" stroke-width="3" stroke-linecap="round" stroke-linejoin="round" opacity="0.95">
    <title>1492 i:1</title>
  </polyline>
  <polyline points="48,18 49,18 50,18 50,17 51,17 52,17 52,16 53,16 54,16 55,16 56,16 57,16 58,16 59,16 60,16 61,16 62,16 63,16 64,16 65,16 66,17 67,17 68,17 69,17 69,18 70,18 71,18 72,18 72,19 73,19 74,19 75,19 75,20 76,20 77,20 78,20 78,21 79,21 80,21 80,22 81,22 82,22 82,23 83,23 83,24 84,24" fill="none" stroke="#ff2d55" stroke-width="3" stroke-linecap="round" stroke-linejoin="round" opacity="0.95">
    <title>1493 d:1</title>
  </polyline>
</svg>
