<?xml version="1.0" encoding="UTF-8"?>
<svg xmlns="http://www.w3.org/2000/svg" width="98" height="54" viewBox="0 0 98 54">
  <title>particle img3-m118-p3 e:1 g:1 e:1</title>
  <metadata>{&quot;entityType&quot;:&quot;particle&quot;,&quot;entityId&quot;:&quot;img3-m118-p3&quot;,&quot;token&quot;:&quot;e:1 g:1 e:1&quot;,&quot;signature&quot;:&quot;e:1 g:1 e:1&quot;,&quot;imageName&quot;:&quot;page-003.jpg&quot;,&quot;imageId&quot;:3,&quot;bounds&quot;:{&quot;x&quot;:1470,&quot;y&quot;:2000,&quot;w&quot;:98,&quot;h&quot;:54},&quot;atoms&quot;:[{&quot;id&quot;:3323,&quot;token&quot;:&quot;e:1&quot;,&quot;particle_id&quot;:&quot;img3-m118-p3&quot;,&quot;molecule_id&quot;:&quot;img3-m118&quot;,&quot;atom_order&quot;:1},{&quot;id&quot;:3346,&quot;token&quot;:&quot;g:1&quot;,&quot;particle_id&quot;:&quot;img3-m118-p3&quot;,&quot;molecule_id&quot;:&quot;img3-m118&quot;,&quot;atom_order&quot;:2},{&quot;id&quot;:3324,&quot;token&quot;:&quot;e:1&quot;,&quot;particle_id&quot;:&quot;img3-m118-p3&quot;,&quot;molecule_id&quot;:&quot;img3-m118&quot;,&quot;atom_order&quot;:3}]}</metadata>
  <rect x="0" y="0" width="98" height="54" fill="#f8f0d8"/>
  <image href="file:///C:/Users/HHHES/AppData/Roaming/com.voynichlab.datasetcreator/images/1/35a70f63-88ab-4986-b441-b78046a10087.jpg" x="-1470" y="-2000" width="2972" height="3766" opacity="0.92"/>
  <rect x="0.5" y="0.5" width="97" height="53" fill="none" stroke="#111827" stroke-width="1" opacity="0.35"/>
  <polyline points="31,35 31,36 30,36 30,37 29,37 28,37 28,38 27,38 26,38 25,38 24,38 23,38 22,38 21,38 21,37 20,37 19,37 18,37 18,36 17,36 16,36 16,35 16,34 16,33 16,32 16,31 16,30 16,29 17,29 17,28 17,27 17,26 18,26 18,25 18,24 19,24 19,23 19,22 20,22 21,22 21,21 22,21 22,20 23,20 24,20 24,19 25,19 26,19 27,19 27,18" fill="none" stroke="#f2e45c" stroke-width="3" stroke-linecap="round" stroke-linejoin="round" opacity="0.95">
    <title>3323 e:1</title>
  </polyline>
  <polyline points="25,19 26,19 27,19 28,19 29,19 30,19 32,19 33,19 34,19 34,18 35,18 36,18 37,18 38,18 39,18 40,18 41,18 42,18 43,18 44,18 45,18 46,18 47,18 48,18 49,18 50,18 51,18 52,18 53,18 54,18 55,18 56,18 57,18 58,18 59,18 60,18 61,18 62,18 63,18 64,18 65,18 66,18 67,17 68,17 69,17 70,17 71,17 72,17 73,17 74,17 75,17 76,17 77,17 78,17" fill="none" stroke="#7c3cff" stroke-width="3" stroke-linecap="round" stroke-linejoin="round" opacity="0.95">
    <title>3346 g:1</title>
  </polyline>
  <polyline points="82,33 82,34 81,34 81,35 80,35 79,35 79,36 78,36 77,36 76,36 75,36 74,36 73,36 72,36 72,35 71,35 70,35 69,35 69,34 68,34 67,34 67,33 67,32 67,31 67,30 67,29 67,28 67,27 68,27 68,26 68,25 68,24 69,24 69,23 69,22 70,22 70,21 70,20 71,20 72,20 72,19 73,19 73,18 74,18 75,18 75,17 76,17 77,17 78,17 78,16" fill="none" stroke="#f2e45c" stroke-width="3" stroke-linecap="round" stroke-linejoin="round" opacity="0.95">
    <title>3324 e:1</title>
  </polyline>
</svg>
