<?xml version="1.0" encoding="UTF-8"?>
<svg xmlns="http://www.w3.org/2000/svg" width="55" height="68" viewBox="0 0 55 68">
  <title>particle img3-m87-p6 e:1 c:2 h:2</title>
  <metadata>{&quot;entityType&quot;:&quot;particle&quot;,&quot;entityId&quot;:&quot;img3-m87-p6&quot;,&quot;token&quot;:&quot;e:1 c:2 h:2&quot;,&quot;signature&quot;:&quot;e:1 c:2 h:2&quot;,&quot;imageName&quot;:&quot;page-003.jpg&quot;,&quot;imageId&quot;:3,&quot;bounds&quot;:{&quot;x&quot;:2338,&quot;y&quot;:1653,&quot;w&quot;:55,&quot;h&quot;:68},&quot;atoms&quot;:[{&quot;id&quot;:2460,&quot;token&quot;:&quot;e:1&quot;,&quot;particle_id&quot;:&quot;img3-m87-p6&quot;,&quot;molecule_id&quot;:&quot;img3-m87&quot;,&quot;atom_order&quot;:1},{&quot;id&quot;:2461,&quot;token&quot;:&quot;c:2&quot;,&quot;particle_id&quot;:&quot;img3-m87-p6&quot;,&quot;molecule_id&quot;:&quot;img3-m87&quot;,&quot;atom_order&quot;:2},{&quot;id&quot;:2463,&quot;token&quot;:&quot;h:2&quot;,&quot;particle_id&quot;:&quot;img3-m87-p6&quot;,&quot;molecule_id&quot;:&quot;img3-m87&quot;,&quot;atom_order&quot;:3}]}</metadata>
  <rect x="0" y="0" width="55" height="68" fill="#f8f0d8"/>
  <image href="file:///C:/Users/HHHES/AppData/Roaming/com.voynichlab.datasetcreator/images/1/35a70f63-88ab-4986-b441-b78046a10087.jpg" x="-2338" y="-1653" width="2972" height="3766" opacity="0.92"/>
  <rect x="0.5" y="0.5" width="54" height="67" fill="none" stroke="#111827" stroke-width="1" opacity="0.35"/>
  <polyline points="31,49 31,50 30,50 30,51 29,51 28,51 28,52 27,52 26,52 25,52 24,52 23,52 22,52 21,52 21,51 20,51 19,51 18,51 18,50 17,50 16,50 16,49 16,48 16,47 16,46 16,45 16,44 16,43 17,43 17,42 17,41 17,40 18,40 18,39 18,38 19,38 19,37 19,36 20,36 21,36 21,35 22,35 22,34 23,34 24,34 24,33 25,33 26,33 27,33 27,32" fill="none" stroke="#f2e45c" stroke-width="3" stroke-linecap="round" stroke-linejoin="round" opacity="0.95">
    <title>2460 e:1</title>
  </polyline>
  <polyline points="27,30 28,30 29,30 30,30 30,29 31,29 32,29 32,28 33,28 34,28 34,27 35,26 35,26 36,26 36,25 37,25 37,25 38,24 38,23 38,23 39,23 39,22 39,21 39,20 39,19 38,19 38,18 38,18 37,18 37,17 36,17 35,17 34,17 33,17 33,16 32,16 31,16 30,16 29,16 28,16 27,16 27,17 26,17 25,17 25,18 24,18 24,18 23,18 23,19 23,20 23,21 23,22 23,23 23,23 23,24 23,25 23,25 24,25 24,26 24,26 25,26 25,27 25,28 26,28 26,29 27,29 27,30" fill="none" stroke="#8aff00" stroke-width="3" stroke-linecap="round" stroke-linejoin="round" opacity="0.95">
    <title>2461 c:2</title>
  </polyline>
  <polyline points="30,50 31,50 31,49 32,49 32,48 33,48 33,47 34,47 34,46 34,45 34,44 34,43 34,42 34,41 33,41 33,40 33,39 32,39 32,38 31,38 31,37 30,37 30,36 29,36 29,35 28,35 28,34 28,33 27,33 27,32 26,32 26,31 25,31 25,30 25,29 24,28 24,27 24,26 23,26 23,25 23,24 23,23 23,22 23,21 24,20 24,19 24,18 25,17" fill="none" stroke="#ff8c00" stroke-width="3" stroke-linecap="round" stroke-linejoin="round" opacity="0.95">
    <title>2463 h:2</title>
  </polyline>
</svg>
