<?xml version="1.0" encoding="UTF-8"?>
<svg xmlns="http://www.w3.org/2000/svg" width="86" height="56" viewBox="0 0 86 56">
  <title>particle img3-m121-p2 e:1 l:1 f:1</title>
  <metadata>{&quot;entityType&quot;:&quot;particle&quot;,&quot;entityId&quot;:&quot;img3-m121-p2&quot;,&quot;token&quot;:&quot;e:1 l:1 f:1&quot;,&quot;signature&quot;:&quot;e:1 l:1 f:1&quot;,&quot;imageName&quot;:&quot;page-003.jpg&quot;,&quot;imageId&quot;:3,&quot;bounds&quot;:{&quot;x&quot;:2104,&quot;y&quot;:2003,&quot;w&quot;:86,&quot;h&quot;:56},&quot;atoms&quot;:[{&quot;id&quot;:3334,&quot;token&quot;:&quot;e:1&quot;,&quot;particle_id&quot;:&quot;img3-m121-p2&quot;,&quot;molecule_id&quot;:&quot;img3-m121&quot;,&quot;atom_order&quot;:1},{&quot;id&quot;:3380,&quot;token&quot;:&quot;l:1&quot;,&quot;particle_id&quot;:&quot;img3-m121-p2&quot;,&quot;molecule_id&quot;:&quot;img3-m121&quot;,&quot;atom_order&quot;:2},{&quot;id&quot;:3381,&quot;token&quot;:&quot;f:1&quot;,&quot;particle_id&quot;:&quot;img3-m121-p2&quot;,&quot;molecule_id&quot;:&quot;img3-m121&quot;,&quot;atom_order&quot;:3}]}</metadata>
  <rect x="0" y="0" width="86" height="56" fill="#f8f0d8"/>
  <image href="file:///C:/Users/HHHES/AppData/Roaming/com.voynichlab.datasetcreator/images/1/35a70f63-88ab-4986-b441-b78046a10087.jpg" x="-2104" y="-2003" width="2972" height="3766" opacity="0.92"/>
  <rect x="0.5" y="0.5" width="85" height="55" fill="none" stroke="#111827" stroke-width="1" opacity="0.35"/>
  <polyline points="31,33 31,34 30,34 30,35 29,35 28,35 28,36 27,36 26,36 25,36 24,36 23,36 22,36 21,36 21,35 20,35 19,35 18,35 18,34 17,34 16,34 16,33 16,32 16,31 16,30 16,29 16,28 16,27 17,27 17,26 17,25 17,24 18,24 18,23 18,22 19,22 19,21 19,20 20,20 21,20 21,19 22,19 22,18 23,18 24,18 24,17 25,17 26,17 27,17 27,16" fill="none" stroke="#f2e45c" stroke-width="3" stroke-linecap="round" stroke-linejoin="round" opacity="0.95">
    <title>3334 e:1</title>
  </polyline>
  <polyline points="27,16 27,17 27,18 28,18 28,19 29,19 29,20 29,21 30,21 30,22 31,22 31,23 31,24 32,24 32,25 33,26 33,27 34,27 34,28 35,28 35,29 35,30 36,30 36,31 36,32 37,32 37,33 37,34 38,34 38,35 38,36 39,36 39,37 39,38 40,38 40,39 40,40 40,39 41,38 41,37 42,36 42,35 43,35 43,34 44,34 44,33 45,33 45,32 46,32 47,31 47,30 48,30 48,29 49,29 49,28 50,28 51,27 52,27 52,26 53,26 53,25 54,25 55,24 56,23 57,23 57,22 58,22 58,21 59,21" fill="none" stroke="#ff5f1f" stroke-width="3" stroke-linecap="round" stroke-linejoin="round" opacity="0.95">
    <title>3380 l:1</title>
  </polyline>
  <polyline points="59,21 59,22 59,23 59,24 60,24 60,25 61,26 61,27 62,27 62,28 62,29 63,29 63,30 64,30 64,31 65,31 65,32 65,33 66,33 66,34 67,34 67,35 67,36 68,36 68,37 69,37 69,38 69,39 70,40" fill="none" stroke="#00a2ff" stroke-width="3" stroke-linecap="round" stroke-linejoin="round" opacity="0.95">
    <title>3381 f:1</title>
  </polyline>
</svg>
