<?xml version="1.0" encoding="UTF-8"?>
<svg xmlns="http://www.w3.org/2000/svg" width="84" height="84" viewBox="0 0 84 84">
  <title>particle img3-m129-p5 l:1 f:1 i:1 d:1</title>
  <metadata>{&quot;entityType&quot;:&quot;particle&quot;,&quot;entityId&quot;:&quot;img3-m129-p5&quot;,&quot;token&quot;:&quot;l:1 f:1 i:1 d:1&quot;,&quot;signature&quot;:&quot;l:1 f:1 i:1 d:1&quot;,&quot;imageName&quot;:&quot;page-003.jpg&quot;,&quot;imageId&quot;:3,&quot;bounds&quot;:{&quot;x&quot;:1827,&quot;y&quot;:2065,&quot;w&quot;:84,&quot;h&quot;:84},&quot;atoms&quot;:[{&quot;id&quot;:3479,&quot;token&quot;:&quot;l:1&quot;,&quot;particle_id&quot;:&quot;img3-m129-p5&quot;,&quot;molecule_id&quot;:&quot;img3-m129&quot;,&quot;atom_order&quot;:1},{&quot;id&quot;:3480,&quot;token&quot;:&quot;f:1&quot;,&quot;particle_id&quot;:&quot;img3-m129-p5&quot;,&quot;molecule_id&quot;:&quot;img3-m129&quot;,&quot;atom_order&quot;:2},{&quot;id&quot;:3481,&quot;token&quot;:&quot;i:1&quot;,&quot;particle_id&quot;:&quot;img3-m129-p5&quot;,&quot;molecule_id&quot;:&quot;img3-m129&quot;,&quot;atom_order&quot;:3},{&quot;id&quot;:3477,&quot;token&quot;:&quot;d:1&quot;,&quot;particle_id&quot;:&quot;img3-m129-p5&quot;,&quot;molecule_id&quot;:&quot;img3-m129&quot;,&quot;atom_order&quot;:4}]}</metadata>
  <rect x="0" y="0" width="84" height="84" fill="#f8f0d8"/>
  <image href="file:///C:/Users/HHHES/AppData/Roaming/com.voynichlab.datasetcreator/images/1/35a70f63-88ab-4986-b441-b78046a10087.jpg" x="-1827" y="-2065" width="2972" height="3766" opacity="0.92"/>
  <rect x="0.5" y="0.5" width="83" height="83" fill="none" stroke="#111827" stroke-width="1" opacity="0.35"/>
  <polyline points="16,43 16,44 17,45 17,46 17,47 17,48 18,49 18,50 18,51 19,51 19,52 20,53 20,54 21,55 21,56 22,57 22,58 23,59 23,60 24,60 24,61 24,62 25,62 25,63 26,63 26,64 27,64 28,64 28,63 29,63 30,63 30,62 31,61 32,60 33,60 33,59 34,59 34,58 35,57 36,56 36,55 37,55 37,54 38,54 38,53 39,53 39,52 40,51 41,50 42,50 42,49 43,49 43,48 43,47 44,47" fill="none" stroke="#ff5f1f" stroke-width="3" stroke-linecap="round" stroke-linejoin="round" opacity="0.95">
    <title>3479 l:1</title>
  </polyline>
  <polyline points="44,47 44,48 44,49 45,49 45,50 45,51 46,51 46,52 47,53 47,54 48,54 48,55 49,56 49,57 50,57 50,58 51,58 51,59 52,59 52,60 52,61 53,61 53,62 53,63 54,63 54,64 55,64 55,65 56,66 56,67 57,67 57,68" fill="none" stroke="#00a2ff" stroke-width="3" stroke-linecap="round" stroke-linejoin="round" opacity="0.95">
    <title>3480 f:1</title>
  </polyline>
  <polyline points="56,68 57,68 57,67 58,67 59,67 59,66 60,66 60,65 61,65 62,64 62,63 63,63 63,62 64,61 64,60 65,60 65,59 65,58 66,58 66,57 67,56 67,55 67,54 67,53 68,53 68,52 68,51 68,50 68,49 68,48 68,47 68,46 68,45 67,45 67,44 67,43 67,42 67,41 67,40 67,39 67,38 67,37 66,36 66,35 66,34 65,34 65,33 65,32 64,32 64,31 63,30 63,29 62,29 61,29 61,28" fill="none" stroke="#00ff7f" stroke-width="3" stroke-linecap="round" stroke-linejoin="round" opacity="0.95">
    <title>3481 i:1</title>
  </polyline>
  <polyline points="16,24 17,24 18,23 19,23 20,23 20,22 21,22 22,22 22,21 23,21 24,21 24,20 25,20 25,19 26,19 27,18 28,18 29,18 30,17 31,17 32,16 33,16 34,16 35,16 37,16 38,16 39,16 40,16 41,16 42,16 43,16 44,17 45,17 46,17 47,17 47,18 48,18 49,18 50,18 50,19 51,19 51,20 52,20 52,21 53,21 54,21 54,22 55,22 55,23 56,23 57,24 58,24 58,25 59,25 60,26 60,27 61,27 61,28 61,29 62,29 62,30 63,30" fill="none" stroke="#ff2d55" stroke-width="3" stroke-linecap="round" stroke-linejoin="round" opacity="0.95">
    <title>3477 d:1</title>
  </polyline>
</svg>
