<?xml version="1.0" encoding="UTF-8"?>
<svg xmlns="http://www.w3.org/2000/svg" width="54" height="83" viewBox="0 0 54 83">
  <title>particle img3-m67-p3 e:1 h:1</title>
  <metadata>{&quot;entityType&quot;:&quot;particle&quot;,&quot;entityId&quot;:&quot;img3-m67-p3&quot;,&quot;token&quot;:&quot;e:1 h:1&quot;,&quot;signature&quot;:&quot;e:1 h:1&quot;,&quot;imageName&quot;:&quot;page-003.jpg&quot;,&quot;imageId&quot;:3,&quot;bounds&quot;:{&quot;x&quot;:1446,&quot;y&quot;:1495,&quot;w&quot;:54,&quot;h&quot;:83},&quot;atoms&quot;:[{&quot;id&quot;:2172,&quot;token&quot;:&quot;e:1&quot;,&quot;particle_id&quot;:&quot;img3-m67-p3&quot;,&quot;molecule_id&quot;:&quot;img3-m67&quot;,&quot;atom_order&quot;:1},{&quot;id&quot;:2173,&quot;token&quot;:&quot;h:1&quot;,&quot;particle_id&quot;:&quot;img3-m67-p3&quot;,&quot;molecule_id&quot;:&quot;img3-m67&quot;,&quot;atom_order&quot;:2}]}</metadata>
  <rect x="0" y="0" width="54" height="83" fill="#f8f0d8"/>
  <image href="file:///C:/Users/HHHES/AppData/Roaming/com.voynichlab.datasetcreator/images/1/35a70f63-88ab-4986-b441-b78046a10087.jpg" x="-1446" y="-1495" width="2972" height="3766" opacity="0.92"/>
  <rect x="0.5" y="0.5" width="53" height="82" fill="none" stroke="#111827" stroke-width="1" opacity="0.35"/>
  <polyline points="31,33 31,34 30,34 30,35 29,35 28,35 28,36 27,36 26,36 25,36 24,36 23,36 22,36 21,36 21,35 20,35 19,35 18,35 18,34 17,34 16,34 16,33 16,32 16,31 16,30 16,29 16,28 16,27 17,27 17,26 17,25 17,24 18,24 18,23 18,22 19,22 19,21 19,20 20,20 21,20 21,19 22,19 22,18 23,18 24,18 24,17 25,17 26,17 27,17 27,16" fill="none" stroke="#f2e45c" stroke-width="3" stroke-linecap="round" stroke-linejoin="round" opacity="0.95">
    <title>2172 e:1</title>
  </polyline>
  <polyline points="26,17 27,17 27,18 28,18 29,18 29,19 29,20 30,20 31,21 32,22 33,23 34,24 34,25 35,25 35,26 36,26 36,27 36,28 37,29 37,30 37,31 37,32 38,32 38,33 38,34 38,35 38,36 38,37 38,38 37,38 37,39 37,40 37,41 37,42 36,43 36,44 36,45 35,46 35,47 34,47 34,48 33,49 33,50 32,50 32,51 31,51 31,52 30,52 30,53 29,53 29,54 28,55 28,56 27,56 27,57 26,57 26,58 25,58 25,59 24,59 24,60 23,60 23,61 22,62 22,63 21,63 21,64 20,65 20,66 19,67" fill="none" stroke="#ff8c00" stroke-width="3" stroke-linecap="round" stroke-linejoin="round" opacity="0.95">
    <title>2173 h:1</title>
  </polyline>
</svg>
