<?xml version="1.0" encoding="UTF-8"?>
<svg xmlns="http://www.w3.org/2000/svg" width="47" height="49" viewBox="0 0 47 49">
  <title>particle img3-m35-p3 e:1</title>
  <metadata>{&quot;entityType&quot;:&quot;particle&quot;,&quot;entityId&quot;:&quot;img3-m35-p3&quot;,&quot;token&quot;:&quot;e:1&quot;,&quot;signature&quot;:&quot;e:1&quot;,&quot;imageName&quot;:&quot;page-003.jpg&quot;,&quot;imageId&quot;:3,&quot;bounds&quot;:{&quot;x&quot;:1038,&quot;y&quot;:783,&quot;w&quot;:47,&quot;h&quot;:49},&quot;atoms&quot;:[{&quot;id&quot;:1519,&quot;token&quot;:&quot;e:1&quot;,&quot;particle_id&quot;:&quot;img3-m35-p3&quot;,&quot;molecule_id&quot;:&quot;img3-m35&quot;,&quot;atom_order&quot;:1}]}</metadata>
  <rect x="0" y="0" width="47" height="49" fill="#f8f0d8"/>
  <image href="file:///C:/Users/HHHES/AppData/Roaming/com.voynichlab.datasetcreator/images/1/35a70f63-88ab-4986-b441-b78046a10087.jpg" x="-1038" y="-783" width="2972" height="3766" opacity="0.92"/>
  <rect x="0.5" y="0.5" width="46" height="48" fill="none" stroke="#111827" stroke-width="1" opacity="0.35"/>
  <polyline points="27,32 26,32 25,32 25,33 24,33 23,33 22,33 21,33 21,32 20,32 19,32 18,32 18,31 17,31 17,30 17,29 17,28 16,28 16,27 16,26 17,26 17,25 17,24 17,23 18,23 18,22 19,22 19,21 19,20 20,20 20,19 21,19 22,18 23,18 24,18 24,17 25,17 26,17 27,17 27,16 28,16 29,16 30,16 31,16" fill="none" stroke="#f2e45c" stroke-width="3" stroke-linecap="round" stroke-linejoin="round" opacity="0.95">
    <title>1519 e:1</title>
  </polyline>
</svg>
