<?xml version="1.0" encoding="UTF-8"?>
<svg xmlns="http://www.w3.org/2000/svg" width="107" height="84" viewBox="0 0 107 84">
  <title>particle img3-m169-p3 k:1 f:1 i:1 d:1</title>
  <metadata>{&quot;entityType&quot;:&quot;particle&quot;,&quot;entityId&quot;:&quot;img3-m169-p3&quot;,&quot;token&quot;:&quot;k:1 f:1 i:1 d:1&quot;,&quot;signature&quot;:&quot;k:1 f:1 i:1 d:1&quot;,&quot;imageName&quot;:&quot;page-003.jpg&quot;,&quot;imageId&quot;:3,&quot;bounds&quot;:{&quot;x&quot;:1402,&quot;y&quot;:2678,&quot;w&quot;:107,&quot;h&quot;:84},&quot;atoms&quot;:[{&quot;id&quot;:3974,&quot;token&quot;:&quot;k:1&quot;,&quot;particle_id&quot;:&quot;img3-m169-p3&quot;,&quot;molecule_id&quot;:&quot;img3-m169&quot;,&quot;atom_order&quot;:1},{&quot;id&quot;:3963,&quot;token&quot;:&quot;f:1&quot;,&quot;particle_id&quot;:&quot;img3-m169-p3&quot;,&quot;molecule_id&quot;:&quot;img3-m169&quot;,&quot;atom_order&quot;:2},{&quot;id&quot;:3978,&quot;token&quot;:&quot;i:1&quot;,&quot;particle_id&quot;:&quot;img3-m169-p3&quot;,&quot;molecule_id&quot;:&quot;img3-m169&quot;,&quot;atom_order&quot;:3},{&quot;id&quot;:3984,&quot;token&quot;:&quot;d:1&quot;,&quot;particle_id&quot;:&quot;img3-m169-p3&quot;,&quot;molecule_id&quot;:&quot;img3-m169&quot;,&quot;atom_order&quot;:4}]}</metadata>
  <rect x="0" y="0" width="107" height="84" fill="#f8f0d8"/>
  <image href="file:///C:/Users/HHHES/AppData/Roaming/com.voynichlab.datasetcreator/images/1/35a70f63-88ab-4986-b441-b78046a10087.jpg" x="-1402" y="-2678" width="2972" height="3766" opacity="0.92"/>
  <rect x="0.5" y="0.5" width="106" height="83" fill="none" stroke="#111827" stroke-width="1" opacity="0.35"/>
  <polyline points="16,39 16,40 16,41 17,41 17,42 17,43 18,44 18,45 19,46 19,47 19,48 20,48 20,49 21,50 21,51 22,51 22,52 23,53 23,54 24,54 24,55 24,56 25,56 25,57 25,58 26,59 26,60 27,61 27,62 28,62 28,61 29,60 29,59 30,58 30,57 31,56 32,55 32,54 33,53 33,52 34,51 34,50 35,50 35,49 35,48 36,48 36,47 37,47 37,46 38,46 38,45 38,44 39,44 39,43 39,42 40,42 40,43 41,44 41,45 41,46 41,47 42,47 42,48 43,49 43,50 43,51 44,52 44,53 44,54 45,54 45,55 45,56 46,56 46,57 46,58 47,58 47,59 47,60 48,60 48,61 49,62 49,63 49,64 50,64 51,64 51,63 52,62 52,61 53,61 53,60 54,60 54,59 55,59 55,58 56,57 57,57 57,56 58,56 58,55 59,55 59,54 60,54 60,53 61,53 61,52 62,51 63,50 63,49 64,49 64,48 64,47 65,47" fill="none" stroke="#ffffff" stroke-width="3" stroke-linecap="round" stroke-linejoin="round" opacity="0.95">
    <title>3974 k:1</title>
  </polyline>
  <polyline points="64,47 64,48 64,49 65,49 65,50 65,51 66,51 66,52 67,53 67,54 68,54 68,55 69,56 69,57 70,57 70,58 71,58 71,59 72,59 72,60 72,61 73,61 73,62 73,63 74,63 74,64 75,64 75,65 76,66 76,67 77,67 77,68" fill="none" stroke="#00a2ff" stroke-width="3" stroke-linecap="round" stroke-linejoin="round" opacity="0.95">
    <title>3963 f:1</title>
  </polyline>
  <polyline points="77,67 78,67 78,66 79,66 79,65 80,64 80,63 81,63 81,62 82,62 82,61 83,61 84,60 85,59 85,58 86,58 86,57 87,57 87,56 88,56 88,55 89,55 89,54 89,53 90,53 90,52 90,51 91,51 91,50 91,49 91,48 91,47 91,46 91,45 91,44 91,43 91,42 91,41 91,40 90,40 90,39 90,38 90,37 89,37 89,36 89,35 88,35 88,34 88,33 87,33 87,32 86,32 86,31 85,30 85,29 84,29 84,28 83,27 83,26 82,26 82,25 81,25" fill="none" stroke="#00ff7f" stroke-width="3" stroke-linecap="round" stroke-linejoin="round" opacity="0.95">
    <title>3978 i:1</title>
  </polyline>
  <polyline points="40,21 40,20 41,19 42,19 43,18 44,18 46,18 46,17 47,17 48,17 50,16 51,16 53,16 54,16 55,16 56,16 57,16 58,16 59,16 61,16 62,16 63,16 64,16 65,16 66,16 67,16 68,16 69,17 70,17 71,17 72,17 72,18 73,18 74,18 75,19 76,19 76,20 77,20 77,21 78,21 78,22 79,22 79,23 80,23 80,24 80,25 81,25 81,26 82,26 82,27 82,28 83,28" fill="none" stroke="#ff2d55" stroke-width="3" stroke-linecap="round" stroke-linejoin="round" opacity="0.95">
    <title>3984 d:1</title>
  </polyline>
</svg>
