<?xml version="1.0" encoding="UTF-8"?>
<svg xmlns="http://www.w3.org/2000/svg" width="134" height="113" viewBox="0 0 134 113">
  <title>particle img3-m82-p1 e:1 a:1 e:1 b:1 c:1 a:1 b:1 d:1 g:1 e:1</title>
  <metadata>{&quot;entityType&quot;:&quot;particle&quot;,&quot;entityId&quot;:&quot;img3-m82-p1&quot;,&quot;token&quot;:&quot;e:1 a:1 e:1 b:1 c:1 a:1 b:1 d:1 g:1 e:1&quot;,&quot;signature&quot;:&quot;e:1 a:1 e:1 b:1 c:1 a:1 b:1 d:1 g:1 e:1&quot;,&quot;imageName&quot;:&quot;page-003.jpg&quot;,&quot;imageId&quot;:3,&quot;bounds&quot;:{&quot;x&quot;:1388,&quot;y&quot;:1622,&quot;w&quot;:134,&quot;h&quot;:113},&quot;atoms&quot;:[{&quot;id&quot;:2394,&quot;token&quot;:&quot;e:1&quot;,&quot;particle_id&quot;:&quot;img3-m82-p1&quot;,&quot;molecule_id&quot;:&quot;img3-m82&quot;,&quot;atom_order&quot;:1},{&quot;id&quot;:2398,&quot;token&quot;:&quot;a:1&quot;,&quot;particle_id&quot;:&quot;img3-m82-p1&quot;,&quot;molecule_id&quot;:&quot;img3-m82&quot;,&quot;atom_order&quot;:2},{&quot;id&quot;:2401,&quot;token&quot;:&quot;e:1&quot;,&quot;particle_id&quot;:&quot;img3-m82-p1&quot;,&quot;molecule_id&quot;:&quot;img3-m82&quot;,&quot;atom_order&quot;:3},{&quot;id&quot;:2402,&quot;token&quot;:&quot;b:1&quot;,&quot;particle_id&quot;:&quot;img3-m82-p1&quot;,&quot;molecule_id&quot;:&quot;img3-m82&quot;,&quot;atom_order&quot;:4},{&quot;id&quot;:2400,&quot;token&quot;:&quot;c:1&quot;,&quot;particle_id&quot;:&quot;img3-m82-p1&quot;,&quot;molecule_id&quot;:&quot;img3-m82&quot;,&quot;atom_order&quot;:5},{&quot;id&quot;:2403,&quot;token&quot;:&quot;a:1&quot;,&quot;particle_id&quot;:&quot;img3-m82-p1&quot;,&quot;molecule_id&quot;:&quot;img3-m82&quot;,&quot;atom_order&quot;:6},{&quot;id&quot;:2399,&quot;token&quot;:&quot;b:1&quot;,&quot;particle_id&quot;:&quot;img3-m82-p1&quot;,&quot;molecule_id&quot;:&quot;img3-m82&quot;,&quot;atom_order&quot;:7},{&quot;id&quot;:2404,&quot;token&quot;:&quot;d:1&quot;,&quot;particle_id&quot;:&quot;img3-m82-p1&quot;,&quot;molecule_id&quot;:&quot;img3-m82&quot;,&quot;atom_order&quot;:8},{&quot;id&quot;:2397,&quot;token&quot;:&quot;g:1&quot;,&quot;particle_id&quot;:&quot;img3-m82-p1&quot;,&quot;molecule_id&quot;:&quot;img3-m82&quot;,&quot;atom_order&quot;:9},{&quot;id&quot;:2396,&quot;token&quot;:&quot;e:1&quot;,&quot;particle_id&quot;:&quot;img3-m82-p1&quot;,&quot;molecule_id&quot;:&quot;img3-m82&quot;,&quot;atom_order&quot;:10}]}</metadata>
  <rect x="0" y="0" width="134" height="113" fill="#f8f0d8"/>
  <image href="file:///C:/Users/HHHES/AppData/Roaming/com.voynichlab.datasetcreator/images/1/35a70f63-88ab-4986-b441-b78046a10087.jpg" x="-1388" y="-1622" width="2972" height="3766" opacity="0.92"/>
  <rect x="0.5" y="0.5" width="133" height="112" fill="none" stroke="#111827" stroke-width="1" opacity="0.35"/>
  <polyline points="51,89 51,90 50,90 49,90 49,91 48,91 47,91 46,92 45,92 44,92 43,92 42,92 42,91 41,91 40,91 40,90 39,90 39,89 38,89 38,88 37,88 37,87 36,87 36,86 36,85 35,85 35,84 35,83 35,82 36,82 36,81 36,80 37,80 37,79 37,78 38,78 38,77 39,77 39,76 40,76 40,75 41,75 42,75 43,74 44,74 45,74 46,74 47,74 48,74" fill="none" stroke="#f2e45c" stroke-width="3" stroke-linecap="round" stroke-linejoin="round" opacity="0.95">
    <title>2394 e:1</title>
  </polyline>
  <polyline points="66,92 66,91 66,90 66,89 66,88 66,87 66,86 66,85 66,84 66,83 66,82 66,81 66,80 66,79 66,78 66,77 66,76 66,75 67,74 67,73 67,72 67,71 67,70 67,69 68,68 68,67 68,66 68,65 68,64 68,63 68,62 68,61 68,60 68,59 68,58 69,58 69,57 69,56 69,55 69,54 69,53 69,52 69,51 69,50 70,50 70,49 70,48 70,47 70,46 70,45 70,44 70,43 70,42 70,41 70,40 71,39 71,38 71,37 71,36 71,35 71,34 71,33 71,32 71,31 71,30 71,29 71,28 71,27 72,27 72,26 72,25 72,24 72,23 72,22 72,21 72,20 72,19" fill="none" stroke="#00f0b5" stroke-width="3" stroke-linecap="round" stroke-linejoin="round" opacity="0.95">
    <title>2398 a:1</title>
  </polyline>
  <polyline points="62,34 61,34 60,34 59,33 58,33 58,32 57,32 57,31 56,30 56,29 56,28 57,28 57,27 58,27 58,26 59,26 59,25 60,24 61,24 61,23 62,23 62,22 63,22 64,22 65,22 65,21 66,21 67,21 67,20 68,20 69,20 70,20 71,20 72,20 72,19 73,19" fill="none" stroke="#f2e45c" stroke-width="3" stroke-linecap="round" stroke-linejoin="round" opacity="0.95">
    <title>2401 e:1</title>
  </polyline>
  <polyline points="64,55 64,56 65,56 66,56 66,57 67,57 68,57 69,57 69,58 70,58 71,58 72,58 72,59 73,59 74,59 75,59 76,59 77,59 78,59 79,59 80,59 81,59 82,59 83,59 84,59 85,59 86,59 87,59 88,59 89,59 90,59 91,58 92,58 93,58 93,57 94,57 95,57 95,56 96,56 96,55 97,55 97,54 98,54" fill="none" stroke="#2f7df6" stroke-width="3" stroke-linecap="round" stroke-linejoin="round" opacity="0.95">
    <title>2402 b:1</title>
  </polyline>
  <polyline points="114,32 115,32 115,31 116,31 116,30 117,30 117,29 118,29 118,28 118,27 118,26 118,25 118,24 117,23 117,22 116,22 116,21 115,21 115,20 114,20 114,19 113,19 113,18 112,18 111,18 111,17 110,17 109,17 108,17 108,16 107,16 106,16 105,16 104,16 104,17 103,17 102,17 102,18 101,18 100,18 100,19 99,19 99,20 98,20 97,20 97,21 97,22 96,22 96,23 95,23 95,24 95,25 95,26 94,26 94,27 94,28 94,29 94,30 94,31 95,31 95,32 95,33 96,33 96,34 97,34 97,35 98,35 99,35 100,35 101,35 102,35 103,35 104,35 105,35 106,35 107,35 108,34 109,34 110,34 110,33 111,33 112,33 113,33 113,32 114,32 114,31 115,31" fill="none" stroke="#8aff00" stroke-width="3" stroke-linecap="round" stroke-linejoin="round" opacity="0.95">
    <title>2400 c:1</title>
  </polyline>
  <polyline points="98,54 98,53 98,52 98,51 98,50 98,49 98,48 98,47 98,46 97,45 97,44 97,43 97,42 97,41 97,40 97,39 96,39 96,38 96,37 96,36 96,35 96,34 95,34 95,33 95,32 95,31" fill="none" stroke="#00f0b5" stroke-width="3" stroke-linecap="round" stroke-linejoin="round" opacity="0.95">
    <title>2403 a:1</title>
  </polyline>
  <polyline points="62,34 62,35 63,35 64,35 65,35 65,36 66,36 67,36 68,37 69,37 70,37 71,37 72,37 73,38 74,38 75,38 76,38 77,38 78,38 79,38 80,38 80,39 81,39 82,39 83,39 84,39 85,39 86,38 87,38 88,38 89,38 90,38 91,38 92,38 93,38 94,38 95,38 96,38 97,38 98,38 98,37 99,37 100,37 101,37 102,37 103,37 103,36 104,36 105,36 106,36 107,35 108,35 109,35 110,34 111,34 111,33 112,33 113,33 113,32 114,32" fill="none" stroke="#2f7df6" stroke-width="3" stroke-linecap="round" stroke-linejoin="round" opacity="0.95">
    <title>2399 b:1</title>
  </polyline>
  <polyline points="16,56 16,55 17,55 18,54 19,54 20,54 20,53 21,53 22,53 23,52 24,52 25,52 25,51 26,51 27,51 28,51 29,51 30,51 30,50 31,50 32,50 33,50 34,50 35,50 36,50 37,50 38,50 39,50 40,50 41,50 42,50 42,49 43,49 44,49 45,49 46,49 46,50 47,50 48,50 49,50 50,50 51,50 51,51 52,51 53,51 54,51 55,52 56,52 57,52 57,53 58,53 59,53 60,53 60,54 61,54 62,54 63,54 63,55 64,55" fill="none" stroke="#ff2d55" stroke-width="3" stroke-linecap="round" stroke-linejoin="round" opacity="0.95">
    <title>2404 d:1</title>
  </polyline>
  <polyline points="48,74 49,74 50,74 51,74 52,74 53,74 54,74 55,74 56,74 57,74 58,74 59,74 60,74 61,74 61,75 62,75 63,75 64,75 65,75 66,75 67,75 68,75 69,75 70,75 71,75 72,75 73,75 74,75 75,75 76,75 77,75 78,75 79,75 80,75 81,75 81,76 82,76 83,76 84,76 85,76 86,76 87,76 88,76 89,76 90,76 91,76 92,76 93,76 94,76 95,76 96,76 97,76 98,76 99,76 100,76 101,76 102,76 103,76 104,76 105,76 106,76 107,76 108,76 109,76 110,76 110,77 111,77 112,77 113,77" fill="none" stroke="#7c3cff" stroke-width="3" stroke-linecap="round" stroke-linejoin="round" opacity="0.95">
    <title>2397 g:1</title>
  </polyline>
  <polyline points="116,94 116,95 115,95 115,96 114,96 113,96 113,97 112,97 111,97 110,97 109,97 108,97 107,97 106,97 106,96 105,96 104,96 103,96 103,95 102,95 101,95 101,94 101,93 101,92 101,91 101,90 101,89 101,88 102,88 102,87 102,86 102,85 103,85 103,84 103,83 104,83 104,82 104,81 105,81 106,81 106,80 107,80 107,79 108,79 109,79 109,78 110,78 111,78 112,78 112,77" fill="none" stroke="#f2e45c" stroke-width="3" stroke-linecap="round" stroke-linejoin="round" opacity="0.95">
    <title>2396 e:1</title>
  </polyline>
</svg>
