<?xml version="1.0" encoding="UTF-8"?>
<svg xmlns="http://www.w3.org/2000/svg" width="48" height="50" viewBox="0 0 48 50">
  <title>atom 6379 j:1</title>
  <metadata>{&quot;entityType&quot;:&quot;atom&quot;,&quot;entityId&quot;:&quot;6379&quot;,&quot;token&quot;:&quot;j:1&quot;,&quot;signature&quot;:&quot;j:1&quot;,&quot;imageName&quot;:&quot;page-005.jpg&quot;,&quot;imageId&quot;:5,&quot;bounds&quot;:{&quot;x&quot;:2217,&quot;y&quot;:2720,&quot;w&quot;:48,&quot;h&quot;:50},&quot;atoms&quot;:[{&quot;id&quot;:6379,&quot;token&quot;:&quot;j:1&quot;,&quot;particle_id&quot;:&quot;img5-m92-p5&quot;,&quot;molecule_id&quot;:&quot;img5-m92&quot;,&quot;atom_order&quot;:3}]}</metadata>
  <rect x="0" y="0" width="48" height="50" fill="#f8f0d8"/>
  <image href="file:///C:/Users/HHHES/AppData/Roaming/com.voynichlab.datasetcreator/images/1/a6cd3b6e-2a78-4b30-a4be-5d186aea258e.jpg" x="-2217" y="-2720" width="2691" height="3770" opacity="0.92"/>
  <rect x="0.5" y="0.5" width="47" height="49" fill="none" stroke="#111827" stroke-width="1" opacity="0.35"/>
  <polyline points="29,34 29,33 29,32 30,32 30,31 31,30 31,29 32,29 32,28 32,27 32,26 32,25 32,24 31,24 31,23 30,23 30,22 29,22 29,21 28,20 28,19 27,19 26,18 25,17 24,17 23,17 22,16 21,16 19,16 17,16 16,16" fill="none" stroke="#4a9e6a" stroke-width="3" stroke-linecap="round" stroke-linejoin="round" opacity="0.95">
    <title>6379 j:1</title>
  </polyline>
</svg>
