<?xml version="1.0" encoding="UTF-8"?>
<svg xmlns="http://www.w3.org/2000/svg" width="54" height="75" viewBox="0 0 54 75">
  <title>atom 6468 j:1</title>
  <metadata>{&quot;entityType&quot;:&quot;atom&quot;,&quot;entityId&quot;:&quot;6468&quot;,&quot;token&quot;:&quot;j:1&quot;,&quot;signature&quot;:&quot;j:1&quot;,&quot;imageName&quot;:&quot;page-005.jpg&quot;,&quot;imageId&quot;:5,&quot;bounds&quot;:{&quot;x&quot;:2205,&quot;y&quot;:2423,&quot;w&quot;:54,&quot;h&quot;:75},&quot;atoms&quot;:[{&quot;id&quot;:6468,&quot;token&quot;:&quot;j:1&quot;,&quot;particle_id&quot;:&quot;img5-m49-p3&quot;,&quot;molecule_id&quot;:&quot;img5-m49&quot;,&quot;atom_order&quot;:3}]}</metadata>
  <rect x="0" y="0" width="54" height="75" fill="#f8f0d8"/>
  <image href="file:///C:/Users/HHHES/AppData/Roaming/com.voynichlab.datasetcreator/images/1/a6cd3b6e-2a78-4b30-a4be-5d186aea258e.jpg" x="-2205" y="-2423" width="2691" height="3770" opacity="0.92"/>
  <rect x="0.5" y="0.5" width="53" height="74" fill="none" stroke="#111827" stroke-width="1" opacity="0.35"/>
  <polyline points="20,27 20,26 20,25 20,24 21,24 21,23 21,22 22,21 22,20 23,20 24,19 25,19 26,18 27,18 28,17 29,17 30,17 31,17 32,17 33,17 34,17 35,17 35,16 36,16 37,16 37,17 37,18 38,18 38,19 38,20 38,21 37,22 37,23 36,24 36,25 35,26 35,27 34,27 34,28 33,29 33,30 32,31 32,32 31,33 31,34 30,34 30,35 29,36 29,37 28,37 28,38 27,39 27,40 26,41 25,42 25,43 25,44 24,44 24,45 23,46 23,47 23,48 22,49 22,50 21,52 20,53 19,54 19,56 18,57 18,58 17,58 17,59 16,59" fill="none" stroke="#4a9e6a" stroke-width="3" stroke-linecap="round" stroke-linejoin="round" opacity="0.95">
    <title>6468 j:1</title>
  </polyline>
</svg>
