<?xml version="1.0" encoding="UTF-8"?>
<svg xmlns="http://www.w3.org/2000/svg" width="53" height="75" viewBox="0 0 53 75">
  <title>atom 6480 j:1</title>
  <metadata>{&quot;entityType&quot;:&quot;atom&quot;,&quot;entityId&quot;:&quot;6480&quot;,&quot;token&quot;:&quot;j:1&quot;,&quot;signature&quot;:&quot;j:1&quot;,&quot;imageName&quot;:&quot;page-005.jpg&quot;,&quot;imageId&quot;:5,&quot;bounds&quot;:{&quot;x&quot;:775,&quot;y&quot;:2705,&quot;w&quot;:53,&quot;h&quot;:75},&quot;atoms&quot;:[{&quot;id&quot;:6480,&quot;token&quot;:&quot;j:1&quot;,&quot;particle_id&quot;:&quot;img5-m80-p3&quot;,&quot;molecule_id&quot;:&quot;img5-m80&quot;,&quot;atom_order&quot;:2}]}</metadata>
  <rect x="0" y="0" width="53" height="75" fill="#f8f0d8"/>
  <image href="file:///C:/Users/HHHES/AppData/Roaming/com.voynichlab.datasetcreator/images/1/a6cd3b6e-2a78-4b30-a4be-5d186aea258e.jpg" x="-775" y="-2705" width="2691" height="3770" opacity="0.92"/>
  <rect x="0.5" y="0.5" width="52" height="74" fill="none" stroke="#111827" stroke-width="1" opacity="0.35"/>
  <polyline points="24,23 24,22 24,21 25,21 25,20 26,20 26,19 27,19 28,18 29,18 30,17 31,17 32,16 33,16 34,16 35,16 36,17 36,18 37,18 37,19 37,20 37,21 37,22 37,23 37,24 37,25 37,26 37,27 36,28 36,29 35,30 34,31 34,32 33,32 33,33 32,33 32,34 31,35 30,36 29,37 29,38 29,39 28,40 28,41 27,42 27,44 26,44 26,45 25,46 25,47 24,48 23,50 22,51 21,52 20,53 20,54 19,56 18,57 17,58 16,59" fill="none" stroke="#4a9e6a" stroke-width="3" stroke-linecap="round" stroke-linejoin="round" opacity="0.95">
    <title>6480 j:1</title>
  </polyline>
</svg>
