<?xml version="1.0" encoding="UTF-8"?>
<svg xmlns="http://www.w3.org/2000/svg" width="46" height="77" viewBox="0 0 46 77">
  <title>atom 2693 h:2</title>
  <metadata>{&quot;entityType&quot;:&quot;atom&quot;,&quot;entityId&quot;:&quot;2693&quot;,&quot;token&quot;:&quot;h:2&quot;,&quot;signature&quot;:&quot;h:2&quot;,&quot;imageName&quot;:&quot;page-094.jpg&quot;,&quot;imageId&quot;:94,&quot;bounds&quot;:{&quot;x&quot;:830,&quot;y&quot;:614,&quot;w&quot;:46,&quot;h&quot;:77},&quot;atoms&quot;:[{&quot;id&quot;:2693,&quot;token&quot;:&quot;h:2&quot;,&quot;particle_id&quot;:&quot;img94-m9-p1&quot;,&quot;molecule_id&quot;:&quot;img94-m9&quot;,&quot;atom_order&quot;:3}]}</metadata>
  <rect x="0" y="0" width="46" height="77" fill="#f8f0d8"/>
  <image href="file:///C:/Users/HHHES/AppData/Roaming/com.voynichlab.datasetcreator/images/1/33b1988f-7aaa-4207-bfa8-f26b742ac4b1.jpg" x="-830" y="-614" width="2932" height="3769" opacity="0.92"/>
  <rect x="0.5" y="0.5" width="45" height="76" fill="none" stroke="#111827" stroke-width="1" opacity="0.35"/>
  <polyline points="29,61 29,60 30,60 30,59 30,58 30,57 30,56 30,55 30,54 30,53 30,52 29,52 29,51 29,50 29,49 29,48 28,48 28,47 28,46 27,46 27,45 26,45 26,44 25,43 25,42 24,42 24,41 23,41 23,40 22,40 22,39 21,38 20,38 20,37 20,36 19,36 19,35 19,34 18,34 18,33 17,33 17,32 17,31 17,30 16,30 16,29 16,28 17,27 17,26 17,25 18,24 18,23 19,23 19,22 20,22 20,21 21,20 22,19 23,19 23,18 24,18 25,17 26,16 27,16" fill="none" stroke="#ff8c00" stroke-width="3" stroke-linecap="round" stroke-linejoin="round" opacity="0.95">
    <title>2693 h:2</title>
  </polyline>
</svg>
