<?xml version="1.0" encoding="UTF-8"?>
<svg xmlns="http://www.w3.org/2000/svg" width="45" height="76" viewBox="0 0 45 76">
  <title>atom 2754 h:2</title>
  <metadata>{&quot;entityType&quot;:&quot;atom&quot;,&quot;entityId&quot;:&quot;2754&quot;,&quot;token&quot;:&quot;h:2&quot;,&quot;signature&quot;:&quot;h:2&quot;,&quot;imageName&quot;:&quot;page-094.jpg&quot;,&quot;imageId&quot;:94,&quot;bounds&quot;:{&quot;x&quot;:1580,&quot;y&quot;:603,&quot;w&quot;:45,&quot;h&quot;:76},&quot;atoms&quot;:[{&quot;id&quot;:2754,&quot;token&quot;:&quot;h:2&quot;,&quot;particle_id&quot;:&quot;img94-m8-p1&quot;,&quot;molecule_id&quot;:&quot;img94-m8&quot;,&quot;atom_order&quot;:3}]}</metadata>
  <rect x="0" y="0" width="45" height="76" fill="#f8f0d8"/>
  <image href="file:///C:/Users/HHHES/AppData/Roaming/com.voynichlab.datasetcreator/images/1/33b1988f-7aaa-4207-bfa8-f26b742ac4b1.jpg" x="-1580" y="-603" width="2932" height="3769" opacity="0.92"/>
  <rect x="0.5" y="0.5" width="44" height="75" fill="none" stroke="#111827" stroke-width="1" opacity="0.35"/>
  <polyline points="26,60 26,59 27,59 27,58 28,58 28,57 28,56 28,55 29,55 29,54 29,53 29,52 29,51 29,50 29,49 29,48 28,48 28,47 28,46 27,46 27,45 26,45 26,44 25,43 25,42 24,42 23,41 22,40 21,39 20,38 20,37 19,37 19,36 18,35 18,34 17,34 17,33 17,32 16,31 16,30 16,29 16,28 16,27 16,26 16,25 16,24 16,23 16,22 16,21 17,21 17,20 18,19 19,18 20,18 21,17 22,17 23,16 24,16 25,16 26,16 27,16 28,16 29,16" fill="none" stroke="#ff8c00" stroke-width="3" stroke-linecap="round" stroke-linejoin="round" opacity="0.95">
    <title>2754 h:2</title>
  </polyline>
</svg>
