<?xml version="1.0" encoding="UTF-8"?>
<svg xmlns="http://www.w3.org/2000/svg" width="47" height="72" viewBox="0 0 47 72">
  <title>atom 2755 h:2</title>
  <metadata>{&quot;entityType&quot;:&quot;atom&quot;,&quot;entityId&quot;:&quot;2755&quot;,&quot;token&quot;:&quot;h:2&quot;,&quot;signature&quot;:&quot;h:2&quot;,&quot;imageName&quot;:&quot;page-094.jpg&quot;,&quot;imageId&quot;:94,&quot;bounds&quot;:{&quot;x&quot;:1713,&quot;y&quot;:605,&quot;w&quot;:47,&quot;h&quot;:72},&quot;atoms&quot;:[{&quot;id&quot;:2755,&quot;token&quot;:&quot;h:2&quot;,&quot;particle_id&quot;:&quot;img94-m8-p4&quot;,&quot;molecule_id&quot;:&quot;img94-m8&quot;,&quot;atom_order&quot;:3}]}</metadata>
  <rect x="0" y="0" width="47" height="72" fill="#f8f0d8"/>
  <image href="file:///C:/Users/HHHES/AppData/Roaming/com.voynichlab.datasetcreator/images/1/33b1988f-7aaa-4207-bfa8-f26b742ac4b1.jpg" x="-1713" y="-605" width="2932" height="3769" opacity="0.92"/>
  <rect x="0.5" y="0.5" width="46" height="71" fill="none" stroke="#111827" stroke-width="1" opacity="0.35"/>
  <polyline points="26,56 26,55 27,55 28,54 28,53 29,53 29,52 30,51 30,50 30,49 31,49 31,48 31,47 31,46 31,45 30,45 30,44 29,44 29,43 28,43 28,42 27,41 27,40 26,40 26,39 25,39 25,38 24,38 23,37 23,36 22,36 22,35 21,35 20,34 20,33 19,33 19,32 18,32 18,31 17,30 17,29 17,28 16,27 16,26 16,25 16,24 16,23 17,23 17,22 17,21 18,21 18,20 19,20 19,19 20,19 21,19 21,18 22,18 22,17 23,17 24,16" fill="none" stroke="#ff8c00" stroke-width="3" stroke-linecap="round" stroke-linejoin="round" opacity="0.95">
    <title>2755 h:2</title>
  </polyline>
</svg>
