<?xml version="1.0" encoding="UTF-8"?>
<svg xmlns="http://www.w3.org/2000/svg" width="47" height="78" viewBox="0 0 47 78">
  <title>atom 2966 h:2</title>
  <metadata>{&quot;entityType&quot;:&quot;atom&quot;,&quot;entityId&quot;:&quot;2966&quot;,&quot;token&quot;:&quot;h:2&quot;,&quot;signature&quot;:&quot;h:2&quot;,&quot;imageName&quot;:&quot;page-094.jpg&quot;,&quot;imageId&quot;:94,&quot;bounds&quot;:{&quot;x&quot;:836,&quot;y&quot;:873,&quot;w&quot;:47,&quot;h&quot;:78},&quot;atoms&quot;:[{&quot;id&quot;:2966,&quot;token&quot;:&quot;h:2&quot;,&quot;particle_id&quot;:&quot;img94-m29-p1&quot;,&quot;molecule_id&quot;:&quot;img94-m29&quot;,&quot;atom_order&quot;:3}]}</metadata>
  <rect x="0" y="0" width="47" height="78" fill="#f8f0d8"/>
  <image href="file:///C:/Users/HHHES/AppData/Roaming/com.voynichlab.datasetcreator/images/1/33b1988f-7aaa-4207-bfa8-f26b742ac4b1.jpg" x="-836" y="-873" width="2932" height="3769" opacity="0.92"/>
  <rect x="0.5" y="0.5" width="46" height="77" fill="none" stroke="#111827" stroke-width="1" opacity="0.35"/>
  <polyline points="28,62 28,61 29,61 30,60 30,59 31,58 31,57 31,56 31,55 31,54 31,53 31,52 31,51 31,50 31,49 31,48 30,48 30,47 30,46 29,46 29,45 28,45 28,44 28,43 27,43 27,42 27,41 26,41 26,40 25,40 25,39 24,38 23,37 23,36 22,36 22,35 21,35 20,34 20,33 19,33 18,32 18,31 17,31 17,30 17,29 16,29 16,28 16,27 16,26 16,25 16,24 16,23 16,22 16,21 16,20 17,20 17,19 18,19 18,18 19,17 20,17 20,16" fill="none" stroke="#ff8c00" stroke-width="3" stroke-linecap="round" stroke-linejoin="round" opacity="0.95">
    <title>2966 h:2</title>
  </polyline>
</svg>
