<?xml version="1.0" encoding="UTF-8"?>
<svg xmlns="http://www.w3.org/2000/svg" width="44" height="73" viewBox="0 0 44 73">
  <title>atom 3011 h:2</title>
  <metadata>{&quot;entityType&quot;:&quot;atom&quot;,&quot;entityId&quot;:&quot;3011&quot;,&quot;token&quot;:&quot;h:2&quot;,&quot;signature&quot;:&quot;h:2&quot;,&quot;imageName&quot;:&quot;page-094.jpg&quot;,&quot;imageId&quot;:94,&quot;bounds&quot;:{&quot;x&quot;:944,&quot;y&quot;:957,&quot;w&quot;:44,&quot;h&quot;:73},&quot;atoms&quot;:[{&quot;id&quot;:3011,&quot;token&quot;:&quot;h:2&quot;,&quot;particle_id&quot;:&quot;img94-m39-p3&quot;,&quot;molecule_id&quot;:&quot;img94-m39&quot;,&quot;atom_order&quot;:3}]}</metadata>
  <rect x="0" y="0" width="44" height="73" fill="#f8f0d8"/>
  <image href="file:///C:/Users/HHHES/AppData/Roaming/com.voynichlab.datasetcreator/images/1/33b1988f-7aaa-4207-bfa8-f26b742ac4b1.jpg" x="-944" y="-957" width="2932" height="3769" opacity="0.92"/>
  <rect x="0.5" y="0.5" width="43" height="72" fill="none" stroke="#111827" stroke-width="1" opacity="0.35"/>
  <polyline points="18,57 19,57 20,57 20,56 21,56 22,56 23,56 23,55 24,55 24,54 25,54 26,53 27,52 27,51 28,50 28,49 28,48 27,48 27,47 27,46 27,45 27,44 26,44 26,43 25,42 25,41 24,41 24,40 24,39 23,39 23,38 22,38 22,37 21,36 20,35 19,34 19,33 18,33 18,32 18,31 17,31 17,30 17,29 17,28 16,28 16,27 16,26 16,25 16,24 16,23 16,22 16,21 16,20 17,20 17,19 18,19 18,18 19,18 20,18 20,17 21,17 22,17 22,16 23,16" fill="none" stroke="#ff8c00" stroke-width="3" stroke-linecap="round" stroke-linejoin="round" opacity="0.95">
    <title>3011 h:2</title>
  </polyline>
</svg>
