<?xml version="1.0" encoding="UTF-8"?>
<svg xmlns="http://www.w3.org/2000/svg" width="44" height="73" viewBox="0 0 44 73">
  <title>atom 4248 h:2</title>
  <metadata>{&quot;entityType&quot;:&quot;atom&quot;,&quot;entityId&quot;:&quot;4248&quot;,&quot;token&quot;:&quot;h:2&quot;,&quot;signature&quot;:&quot;h:2&quot;,&quot;imageName&quot;:&quot;page-094.jpg&quot;,&quot;imageId&quot;:94,&quot;bounds&quot;:{&quot;x&quot;:1074,&quot;y&quot;:2445,&quot;w&quot;:44,&quot;h&quot;:73},&quot;atoms&quot;:[{&quot;id&quot;:4248,&quot;token&quot;:&quot;h:2&quot;,&quot;particle_id&quot;:&quot;img94-m42-p1&quot;,&quot;molecule_id&quot;:&quot;img94-m42&quot;,&quot;atom_order&quot;:3}]}</metadata>
  <rect x="0" y="0" width="44" height="73" fill="#f8f0d8"/>
  <image href="file:///C:/Users/HHHES/AppData/Roaming/com.voynichlab.datasetcreator/images/1/33b1988f-7aaa-4207-bfa8-f26b742ac4b1.jpg" x="-1074" y="-2445" width="2932" height="3769" opacity="0.92"/>
  <rect x="0.5" y="0.5" width="43" height="72" fill="none" stroke="#111827" stroke-width="1" opacity="0.35"/>
  <polyline points="23,57 23,56 24,56 24,55 25,55 25,54 26,54 26,53 26,52 26,51 27,51 27,50 27,49 27,48 27,47 28,47 28,46 28,45 28,44 27,43 27,42 26,42 26,41 25,40 24,39 23,38 22,37 22,36 21,36 21,35 20,35 20,34 19,33 18,32 18,31 18,30 18,29 17,28 17,27 17,26 17,25 16,24 16,23 16,22 16,21 16,20 16,19 17,18 18,17 19,17 19,16 20,16" fill="none" stroke="#ff8c00" stroke-width="3" stroke-linecap="round" stroke-linejoin="round" opacity="0.95">
    <title>4248 h:2</title>
  </polyline>
</svg>
