<?xml version="1.0" encoding="UTF-8"?>
<svg xmlns="http://www.w3.org/2000/svg" width="44" height="72" viewBox="0 0 44 72">
  <title>atom 4308 h:2</title>
  <metadata>{&quot;entityType&quot;:&quot;atom&quot;,&quot;entityId&quot;:&quot;4308&quot;,&quot;token&quot;:&quot;h:2&quot;,&quot;signature&quot;:&quot;h:2&quot;,&quot;imageName&quot;:&quot;page-094.jpg&quot;,&quot;imageId&quot;:94,&quot;bounds&quot;:{&quot;x&quot;:754,&quot;y&quot;:2530,&quot;w&quot;:44,&quot;h&quot;:72},&quot;atoms&quot;:[{&quot;id&quot;:4308,&quot;token&quot;:&quot;h:2&quot;,&quot;particle_id&quot;:&quot;img94-m45-p1&quot;,&quot;molecule_id&quot;:&quot;img94-m45&quot;,&quot;atom_order&quot;:3}]}</metadata>
  <rect x="0" y="0" width="44" height="72" fill="#f8f0d8"/>
  <image href="file:///C:/Users/HHHES/AppData/Roaming/com.voynichlab.datasetcreator/images/1/33b1988f-7aaa-4207-bfa8-f26b742ac4b1.jpg" x="-754" y="-2530" width="2932" height="3769" opacity="0.92"/>
  <rect x="0.5" y="0.5" width="43" height="71" fill="none" stroke="#111827" stroke-width="1" opacity="0.35"/>
  <polyline points="24,56 24,55 25,55 26,54 27,53 27,52 27,51 28,50 28,49 28,48 28,47 28,46 27,45 27,44 27,43 27,42 26,42 26,41 26,40 25,39 25,38 24,38 24,37 23,37 23,36 22,36 22,35 22,34 21,34 21,33 20,32 19,31 19,30 18,29 18,28 18,27 17,27 17,26 17,25 17,24 16,23 16,22 16,21 16,20 16,19 16,18 16,17 16,16" fill="none" stroke="#ff8c00" stroke-width="3" stroke-linecap="round" stroke-linejoin="round" opacity="0.95">
    <title>4308 h:2</title>
  </polyline>
</svg>
