<?xml version="1.0" encoding="UTF-8"?>
<svg xmlns="http://www.w3.org/2000/svg" width="47" height="76" viewBox="0 0 47 76">
  <title>atom 4378 h:2</title>
  <metadata>{&quot;entityType&quot;:&quot;atom&quot;,&quot;entityId&quot;:&quot;4378&quot;,&quot;token&quot;:&quot;h:2&quot;,&quot;signature&quot;:&quot;h:2&quot;,&quot;imageName&quot;:&quot;page-094.jpg&quot;,&quot;imageId&quot;:94,&quot;bounds&quot;:{&quot;x&quot;:1616,&quot;y&quot;:2571,&quot;w&quot;:47,&quot;h&quot;:76},&quot;atoms&quot;:[{&quot;id&quot;:4378,&quot;token&quot;:&quot;h:2&quot;,&quot;particle_id&quot;:&quot;img94-m48-p1&quot;,&quot;molecule_id&quot;:&quot;img94-m48&quot;,&quot;atom_order&quot;:3}]}</metadata>
  <rect x="0" y="0" width="47" height="76" fill="#f8f0d8"/>
  <image href="file:///C:/Users/HHHES/AppData/Roaming/com.voynichlab.datasetcreator/images/1/33b1988f-7aaa-4207-bfa8-f26b742ac4b1.jpg" x="-1616" y="-2571" width="2932" height="3769" opacity="0.92"/>
  <rect x="0.5" y="0.5" width="46" height="75" fill="none" stroke="#111827" stroke-width="1" opacity="0.35"/>
  <polyline points="22,60 23,60 24,60 25,60 26,60 27,60 27,59 28,59 29,59 29,58 29,57 30,57 30,56 31,55 31,54 31,53 31,52 31,51 31,50 30,50 30,49 29,48 28,48 28,47 27,46 26,46 26,45 25,45 25,44 24,43 23,42 22,42 21,41 20,40 19,39 18,38 17,37 17,36 16,35 16,34 16,33 16,32 16,31 16,30 16,29 16,28 16,27 16,26 16,25 17,25 17,24 17,23 18,23 18,22 19,21 20,20 21,20 21,19 22,19 23,18 24,17 25,17 26,17 27,17 28,16 29,16" fill="none" stroke="#ff8c00" stroke-width="3" stroke-linecap="round" stroke-linejoin="round" opacity="0.95">
    <title>4378 h:2</title>
  </polyline>
</svg>
