<?xml version="1.0" encoding="UTF-8"?>
<svg xmlns="http://www.w3.org/2000/svg" width="46" height="73" viewBox="0 0 46 73">
  <title>atom 4604 h:2</title>
  <metadata>{&quot;entityType&quot;:&quot;atom&quot;,&quot;entityId&quot;:&quot;4604&quot;,&quot;token&quot;:&quot;h:2&quot;,&quot;signature&quot;:&quot;h:2&quot;,&quot;imageName&quot;:&quot;page-094.jpg&quot;,&quot;imageId&quot;:94,&quot;bounds&quot;:{&quot;x&quot;:2204,&quot;y&quot;:2633,&quot;w&quot;:46,&quot;h&quot;:73},&quot;atoms&quot;:[{&quot;id&quot;:4604,&quot;token&quot;:&quot;h:2&quot;,&quot;particle_id&quot;:&quot;img94-m55-p3&quot;,&quot;molecule_id&quot;:&quot;img94-m55&quot;,&quot;atom_order&quot;:3}]}</metadata>
  <rect x="0" y="0" width="46" height="73" fill="#f8f0d8"/>
  <image href="file:///C:/Users/HHHES/AppData/Roaming/com.voynichlab.datasetcreator/images/1/33b1988f-7aaa-4207-bfa8-f26b742ac4b1.jpg" x="-2204" y="-2633" width="2932" height="3769" opacity="0.92"/>
  <rect x="0.5" y="0.5" width="45" height="72" fill="none" stroke="#111827" stroke-width="1" opacity="0.35"/>
  <polyline points="22,57 23,57 23,56 24,56 25,56 25,55 26,55 27,55 27,54 28,54 28,53 29,53 29,52 29,51 29,50 30,49 30,48 30,47 29,47 29,46 29,45 28,45 28,44 27,43 27,42 26,42 26,41 25,41 25,40 24,39 23,39 23,38 22,37 21,36 21,35 20,34 19,33 19,32 18,31 18,30 17,29 17,28 17,27 17,26 16,25 16,24 16,23 16,22 16,21 16,20 17,20 17,19 17,18 18,18 18,17 19,17 19,16 20,16" fill="none" stroke="#ff8c00" stroke-width="3" stroke-linecap="round" stroke-linejoin="round" opacity="0.95">
    <title>4604 h:2</title>
  </polyline>
</svg>
