<?xml version="1.0" encoding="UTF-8"?>
<svg xmlns="http://www.w3.org/2000/svg" width="46" height="76" viewBox="0 0 46 76">
  <title>atom 4605 h:2</title>
  <metadata>{&quot;entityType&quot;:&quot;atom&quot;,&quot;entityId&quot;:&quot;4605&quot;,&quot;token&quot;:&quot;h:2&quot;,&quot;signature&quot;:&quot;h:2&quot;,&quot;imageName&quot;:&quot;page-094.jpg&quot;,&quot;imageId&quot;:94,&quot;bounds&quot;:{&quot;x&quot;:2307,&quot;y&quot;:2623,&quot;w&quot;:46,&quot;h&quot;:76},&quot;atoms&quot;:[{&quot;id&quot;:4605,&quot;token&quot;:&quot;h:2&quot;,&quot;particle_id&quot;:&quot;img94-m52-p1&quot;,&quot;molecule_id&quot;:&quot;img94-m52&quot;,&quot;atom_order&quot;:3}]}</metadata>
  <rect x="0" y="0" width="46" height="76" fill="#f8f0d8"/>
  <image href="file:///C:/Users/HHHES/AppData/Roaming/com.voynichlab.datasetcreator/images/1/33b1988f-7aaa-4207-bfa8-f26b742ac4b1.jpg" x="-2307" y="-2623" width="2932" height="3769" opacity="0.92"/>
  <rect x="0.5" y="0.5" width="45" height="75" fill="none" stroke="#111827" stroke-width="1" opacity="0.35"/>
  <polyline points="21,60 22,60 23,60 23,59 24,59 25,59 25,58 26,58 27,57 28,56 29,55 30,54 30,53 30,52 30,51 30,50 30,49 30,48 30,47 29,46 29,45 28,45 28,44 27,44 26,43 25,42 24,41 23,40 22,39 22,38 21,38 21,37 20,36 20,35 19,35 19,34 19,33 18,32 18,31 18,30 17,29 17,28 17,27 17,26 16,25 16,24 16,23 16,22 16,21 16,20 16,19 17,19 17,18 18,17 18,16 19,16" fill="none" stroke="#ff8c00" stroke-width="3" stroke-linecap="round" stroke-linejoin="round" opacity="0.95">
    <title>4605 h:2</title>
  </polyline>
</svg>
