<?xml version="1.0" encoding="UTF-8"?>
<svg xmlns="http://www.w3.org/2000/svg" width="44" height="74" viewBox="0 0 44 74">
  <title>atom 4606 h:2</title>
  <metadata>{&quot;entityType&quot;:&quot;atom&quot;,&quot;entityId&quot;:&quot;4606&quot;,&quot;token&quot;:&quot;h:2&quot;,&quot;signature&quot;:&quot;h:2&quot;,&quot;imageName&quot;:&quot;page-094.jpg&quot;,&quot;imageId&quot;:94,&quot;bounds&quot;:{&quot;x&quot;:2108,&quot;y&quot;:2718,&quot;w&quot;:44,&quot;h&quot;:74},&quot;atoms&quot;:[{&quot;id&quot;:4606,&quot;token&quot;:&quot;h:2&quot;,&quot;particle_id&quot;:&quot;img94-m58-p1&quot;,&quot;molecule_id&quot;:&quot;img94-m58&quot;,&quot;atom_order&quot;:3}]}</metadata>
  <rect x="0" y="0" width="44" height="74" fill="#f8f0d8"/>
  <image href="file:///C:/Users/HHHES/AppData/Roaming/com.voynichlab.datasetcreator/images/1/33b1988f-7aaa-4207-bfa8-f26b742ac4b1.jpg" x="-2108" y="-2718" width="2932" height="3769" opacity="0.92"/>
  <rect x="0.5" y="0.5" width="43" height="73" fill="none" stroke="#111827" stroke-width="1" opacity="0.35"/>
  <polyline points="19,58 19,57 20,57 21,57 22,57 22,56 23,56 23,55 24,55 24,54 25,54 25,53 26,52 27,51 27,50 27,49 28,49 28,48 28,47 28,46 28,45 27,45 27,44 26,43 26,42 25,42 25,41 24,41 23,40 23,39 22,39 22,38 21,38 20,37 20,36 19,36 19,35 18,35 18,34 18,33 17,32 17,31 17,30 16,29 16,28 16,27 16,26 16,25 16,24 16,23 17,22 17,21 17,20 17,19 18,18 18,17 19,17 20,16 21,16" fill="none" stroke="#ff8c00" stroke-width="3" stroke-linecap="round" stroke-linejoin="round" opacity="0.95">
    <title>4606 h:2</title>
  </polyline>
</svg>
