<?xml version="1.0" encoding="UTF-8"?>
<svg xmlns="http://www.w3.org/2000/svg" width="53" height="75" viewBox="0 0 53 75">
  <title>atom 4607 h:2</title>
  <metadata>{&quot;entityType&quot;:&quot;atom&quot;,&quot;entityId&quot;:&quot;4607&quot;,&quot;token&quot;:&quot;h:2&quot;,&quot;signature&quot;:&quot;h:2&quot;,&quot;imageName&quot;:&quot;page-094.jpg&quot;,&quot;imageId&quot;:94,&quot;bounds&quot;:{&quot;x&quot;:1918,&quot;y&quot;:2722,&quot;w&quot;:53,&quot;h&quot;:75},&quot;atoms&quot;:[{&quot;id&quot;:4607,&quot;token&quot;:&quot;h:2&quot;,&quot;particle_id&quot;:&quot;img94-m60-p1&quot;,&quot;molecule_id&quot;:&quot;img94-m60&quot;,&quot;atom_order&quot;:3}]}</metadata>
  <rect x="0" y="0" width="53" height="75" fill="#f8f0d8"/>
  <image href="file:///C:/Users/HHHES/AppData/Roaming/com.voynichlab.datasetcreator/images/1/33b1988f-7aaa-4207-bfa8-f26b742ac4b1.jpg" x="-1918" y="-2722" width="2932" height="3769" opacity="0.92"/>
  <rect x="0.5" y="0.5" width="52" height="74" fill="none" stroke="#111827" stroke-width="1" opacity="0.35"/>
  <polyline points="29,59 30,59 31,59 32,59 33,58 34,58 34,57 35,57 36,56 36,55 37,55 37,54 37,53 37,52 37,51 37,50 37,49 37,48 36,47 35,46 34,45 33,43 32,43 31,42 30,41 29,41 29,40 28,40 27,39 26,38 24,37 23,36 22,36 22,35 21,35 21,34 20,34 19,32 18,31 18,30 17,29 17,27 16,27 16,25 16,24 16,22 16,21 16,20 16,19 16,18 17,18 18,17 18,16 19,16 20,16" fill="none" stroke="#ff8c00" stroke-width="3" stroke-linecap="round" stroke-linejoin="round" opacity="0.95">
    <title>4607 h:2</title>
  </polyline>
</svg>
