<?xml version="1.0" encoding="UTF-8"?>
<svg xmlns="http://www.w3.org/2000/svg" width="47" height="71" viewBox="0 0 47 71">
  <title>atom 4608 h:2</title>
  <metadata>{&quot;entityType&quot;:&quot;atom&quot;,&quot;entityId&quot;:&quot;4608&quot;,&quot;token&quot;:&quot;h:2&quot;,&quot;signature&quot;:&quot;h:2&quot;,&quot;imageName&quot;:&quot;page-094.jpg&quot;,&quot;imageId&quot;:94,&quot;bounds&quot;:{&quot;x&quot;:1157,&quot;y&quot;:2775,&quot;w&quot;:47,&quot;h&quot;:71},&quot;atoms&quot;:[{&quot;id&quot;:4608,&quot;token&quot;:&quot;h:2&quot;,&quot;particle_id&quot;:&quot;img94-m66-p1&quot;,&quot;molecule_id&quot;:&quot;img94-m66&quot;,&quot;atom_order&quot;:3}]}</metadata>
  <rect x="0" y="0" width="47" height="71" fill="#f8f0d8"/>
  <image href="file:///C:/Users/HHHES/AppData/Roaming/com.voynichlab.datasetcreator/images/1/33b1988f-7aaa-4207-bfa8-f26b742ac4b1.jpg" x="-1157" y="-2775" width="2932" height="3769" opacity="0.92"/>
  <rect x="0.5" y="0.5" width="46" height="70" fill="none" stroke="#111827" stroke-width="1" opacity="0.35"/>
  <polyline points="24,55 25,54 26,54 26,53 27,53 28,53 28,52 29,52 30,52 30,51 31,51 31,50 31,49 31,48 31,47 31,46 30,46 29,45 29,44 28,44 27,43 26,42 25,41 25,40 24,40 24,39 24,38 23,38 23,37 22,36 22,35 21,35 21,34 20,33 19,33 19,32 18,31 18,30 17,30 17,29 17,28 16,27 16,26 16,25 16,24 16,23 16,22 17,20 17,19 18,19 19,18 19,17 20,17 21,17 21,16 22,16" fill="none" stroke="#ff8c00" stroke-width="3" stroke-linecap="round" stroke-linejoin="round" opacity="0.95">
    <title>4608 h:2</title>
  </polyline>
</svg>
