<?xml version="1.0" encoding="UTF-8"?>
<svg xmlns="http://www.w3.org/2000/svg" width="48" height="75" viewBox="0 0 48 75">
  <title>atom 4609 h:2</title>
  <metadata>{&quot;entityType&quot;:&quot;atom&quot;,&quot;entityId&quot;:&quot;4609&quot;,&quot;token&quot;:&quot;h:2&quot;,&quot;signature&quot;:&quot;h:2&quot;,&quot;imageName&quot;:&quot;page-094.jpg&quot;,&quot;imageId&quot;:94,&quot;bounds&quot;:{&quot;x&quot;:2227,&quot;y&quot;:2784,&quot;w&quot;:48,&quot;h&quot;:75},&quot;atoms&quot;:[{&quot;id&quot;:4609,&quot;token&quot;:&quot;h:2&quot;,&quot;particle_id&quot;:&quot;img94-m64-p1&quot;,&quot;molecule_id&quot;:&quot;img94-m64&quot;,&quot;atom_order&quot;:3}]}</metadata>
  <rect x="0" y="0" width="48" height="75" fill="#f8f0d8"/>
  <image href="file:///C:/Users/HHHES/AppData/Roaming/com.voynichlab.datasetcreator/images/1/33b1988f-7aaa-4207-bfa8-f26b742ac4b1.jpg" x="-2227" y="-2784" width="2932" height="3769" opacity="0.92"/>
  <rect x="0.5" y="0.5" width="47" height="74" fill="none" stroke="#111827" stroke-width="1" opacity="0.35"/>
  <polyline points="18,59 19,59 20,59 21,59 22,59 23,59 23,58 24,58 25,58 26,58 26,57 27,57 27,56 28,56 28,55 28,54 29,54 29,53 29,52 29,51 29,50 29,49 28,48 28,47 28,46 27,45 26,45 26,44 25,43 24,43 24,42 23,41 22,41 22,40 21,40 21,39 20,39 20,38 19,38 19,37 18,36 18,35 17,35 17,34 17,33 16,33 16,32 16,31 16,30 16,29 16,28 16,27 16,26 16,25 17,25 17,24 17,23 18,23 18,22 19,21 20,20 21,20 22,19 23,19 24,19 26,18 27,18 29,17 30,17 31,17 32,17 32,16" fill="none" stroke="#ff8c00" stroke-width="3" stroke-linecap="round" stroke-linejoin="round" opacity="0.95">
    <title>4609 h:2</title>
  </polyline>
</svg>
