<?xml version="1.0" encoding="UTF-8"?>
<svg xmlns="http://www.w3.org/2000/svg" width="46" height="73" viewBox="0 0 46 73">
  <title>atom 4610 h:2</title>
  <metadata>{&quot;entityType&quot;:&quot;atom&quot;,&quot;entityId&quot;:&quot;4610&quot;,&quot;token&quot;:&quot;h:2&quot;,&quot;signature&quot;:&quot;h:2&quot;,&quot;imageName&quot;:&quot;page-094.jpg&quot;,&quot;imageId&quot;:94,&quot;bounds&quot;:{&quot;x&quot;:2364,&quot;y&quot;:2856,&quot;w&quot;:46,&quot;h&quot;:73},&quot;atoms&quot;:[{&quot;id&quot;:4610,&quot;token&quot;:&quot;h:2&quot;,&quot;particle_id&quot;:&quot;img94-m77-p5&quot;,&quot;molecule_id&quot;:&quot;img94-m77&quot;,&quot;atom_order&quot;:3}]}</metadata>
  <rect x="0" y="0" width="46" height="73" fill="#f8f0d8"/>
  <image href="file:///C:/Users/HHHES/AppData/Roaming/com.voynichlab.datasetcreator/images/1/33b1988f-7aaa-4207-bfa8-f26b742ac4b1.jpg" x="-2364" y="-2856" width="2932" height="3769" opacity="0.92"/>
  <rect x="0.5" y="0.5" width="45" height="72" fill="none" stroke="#111827" stroke-width="1" opacity="0.35"/>
  <polyline points="18,57 19,57 20,57 20,56 21,56 22,56 23,56 23,55 24,55 24,54 25,53 25,52 25,51 25,50 25,49 25,48 24,48 24,47 23,46 23,45 22,44 21,43 20,42 20,41 19,40 19,39 18,39 18,38 18,37 18,36 17,36 17,35 16,34 16,33 16,32 16,31 16,30 16,29 16,28 16,27 16,26 17,26 17,25 17,24 18,23 18,22 19,22 19,21 19,20 20,20 20,19 21,19 22,18 23,18 24,17 25,17 26,17 27,16 28,16 29,16 30,16" fill="none" stroke="#ff8c00" stroke-width="3" stroke-linecap="round" stroke-linejoin="round" opacity="0.95">
    <title>4610 h:2</title>
  </polyline>
</svg>
