<?xml version="1.0" encoding="UTF-8"?>
<svg xmlns="http://www.w3.org/2000/svg" width="46" height="75" viewBox="0 0 46 75">
  <title>atom 4612 h:2</title>
  <metadata>{&quot;entityType&quot;:&quot;atom&quot;,&quot;entityId&quot;:&quot;4612&quot;,&quot;token&quot;:&quot;h:2&quot;,&quot;signature&quot;:&quot;h:2&quot;,&quot;imageName&quot;:&quot;page-094.jpg&quot;,&quot;imageId&quot;:94,&quot;bounds&quot;:{&quot;x&quot;:1297,&quot;y&quot;:2933,&quot;w&quot;:46,&quot;h&quot;:75},&quot;atoms&quot;:[{&quot;id&quot;:4612,&quot;token&quot;:&quot;h:2&quot;,&quot;particle_id&quot;:&quot;img94-m80-p2&quot;,&quot;molecule_id&quot;:&quot;img94-m80&quot;,&quot;atom_order&quot;:3}]}</metadata>
  <rect x="0" y="0" width="46" height="75" fill="#f8f0d8"/>
  <image href="file:///C:/Users/HHHES/AppData/Roaming/com.voynichlab.datasetcreator/images/1/33b1988f-7aaa-4207-bfa8-f26b742ac4b1.jpg" x="-1297" y="-2933" width="2932" height="3769" opacity="0.92"/>
  <rect x="0.5" y="0.5" width="45" height="74" fill="none" stroke="#111827" stroke-width="1" opacity="0.35"/>
  <polyline points="25,59 26,59 26,58 27,58 28,58 29,58 29,57 30,57 30,56 30,55 30,54 30,53 30,52 30,51 30,50 30,49 30,48 29,47 29,46 28,46 28,45 27,44 26,44 26,43 25,43 24,42 24,41 23,41 23,40 22,40 22,39 21,39 21,38 20,38 20,37 19,37 19,36 18,36 18,35 17,35 17,34 17,33 17,32 16,31 16,30 16,29 16,28 16,27 16,26 16,25 17,24 17,23 18,22 18,21 19,21 19,20 20,20 20,19 21,18 22,18 23,17 24,17 24,16 25,16" fill="none" stroke="#ff8c00" stroke-width="3" stroke-linecap="round" stroke-linejoin="round" opacity="0.95">
    <title>4612 h:2</title>
  </polyline>
</svg>
