<?xml version="1.0" encoding="UTF-8"?>
<svg xmlns="http://www.w3.org/2000/svg" width="47" height="79" viewBox="0 0 47 79">
  <title>atom 4613 h:2</title>
  <metadata>{&quot;entityType&quot;:&quot;atom&quot;,&quot;entityId&quot;:&quot;4613&quot;,&quot;token&quot;:&quot;h:2&quot;,&quot;signature&quot;:&quot;h:2&quot;,&quot;imageName&quot;:&quot;page-094.jpg&quot;,&quot;imageId&quot;:94,&quot;bounds&quot;:{&quot;x&quot;:990,&quot;y&quot;:2961,&quot;w&quot;:47,&quot;h&quot;:79},&quot;atoms&quot;:[{&quot;id&quot;:4613,&quot;token&quot;:&quot;h:2&quot;,&quot;particle_id&quot;:&quot;img94-m79-p1&quot;,&quot;molecule_id&quot;:&quot;img94-m79&quot;,&quot;atom_order&quot;:3}]}</metadata>
  <rect x="0" y="0" width="47" height="79" fill="#f8f0d8"/>
  <image href="file:///C:/Users/HHHES/AppData/Roaming/com.voynichlab.datasetcreator/images/1/33b1988f-7aaa-4207-bfa8-f26b742ac4b1.jpg" x="-990" y="-2961" width="2932" height="3769" opacity="0.92"/>
  <rect x="0.5" y="0.5" width="46" height="78" fill="none" stroke="#111827" stroke-width="1" opacity="0.35"/>
  <polyline points="21,63 22,63 23,62 24,62 25,62 26,61 26,60 27,60 28,59 29,58 30,57 30,56 31,55 31,54 31,53 31,52 31,51 30,50 29,50 29,49 28,48 27,48 27,47 25,47 25,46 24,46 23,45 22,45 21,44 20,43 20,42 19,42 19,41 19,40 18,40 18,38 17,37 17,35 17,34 16,33 16,32 16,31 16,30 16,29 16,28 17,27 17,26 17,25 18,24 18,23 19,23 19,22 20,21 21,20 22,19 23,19 23,18 24,18 24,17 25,16" fill="none" stroke="#ff8c00" stroke-width="3" stroke-linecap="round" stroke-linejoin="round" opacity="0.95">
    <title>4613 h:2</title>
  </polyline>
</svg>
