<?xml version="1.0" encoding="UTF-8"?>
<svg xmlns="http://www.w3.org/2000/svg" width="45" height="53" viewBox="0 0 45 53">
  <title>atom 6114 f:1</title>
  <metadata>{&quot;entityType&quot;:&quot;atom&quot;,&quot;entityId&quot;:&quot;6114&quot;,&quot;token&quot;:&quot;f:1&quot;,&quot;signature&quot;:&quot;f:1&quot;,&quot;imageName&quot;:&quot;page-005.jpg&quot;,&quot;imageId&quot;:5,&quot;bounds&quot;:{&quot;x&quot;:1136,&quot;y&quot;:582,&quot;w&quot;:45,&quot;h&quot;:53},&quot;atoms&quot;:[{&quot;id&quot;:6114,&quot;token&quot;:&quot;f:1&quot;,&quot;particle_id&quot;:&quot;img5-m11-p4&quot;,&quot;molecule_id&quot;:&quot;img5-m11&quot;,&quot;atom_order&quot;:1}]}</metadata>
  <rect x="0" y="0" width="45" height="53" fill="#f8f0d8"/>
  
  <rect x="0.5" y="0.5" width="44" height="52" fill="none" stroke="#111827" stroke-width="1" opacity="0.35"/>
  <polyline points="16,16 16,17 16,18 17,18 17,19 17,20 18,20 18,21 19,22 19,23 20,23 20,24 21,25 21,26 22,26 22,27 23,27 23,28 24,28 24,29 24,30 25,30 25,31 25,32 26,32 26,33 27,33 27,34 28,35 28,36 29,36 29,37" fill="none" stroke="#00a2ff" stroke-width="3" stroke-linecap="round" stroke-linejoin="round" opacity="0.95">
    <title>6114 f:1</title>
  </polyline>
</svg>
