<?xml version="1.0" encoding="UTF-8"?>
<svg xmlns="http://www.w3.org/2000/svg" width="58" height="49" viewBox="0 0 58 49">
  <title>atom 6216 l:1</title>
  <metadata>{&quot;entityType&quot;:&quot;atom&quot;,&quot;entityId&quot;:&quot;6216&quot;,&quot;token&quot;:&quot;l:1&quot;,&quot;signature&quot;:&quot;l:1&quot;,&quot;imageName&quot;:&quot;page-005.jpg&quot;,&quot;imageId&quot;:5,&quot;bounds&quot;:{&quot;x&quot;:563,&quot;y&quot;:515,&quot;w&quot;:58,&quot;h&quot;:49},&quot;atoms&quot;:[{&quot;id&quot;:6216,&quot;token&quot;:&quot;l:1&quot;,&quot;particle_id&quot;:&quot;img5-m1-p5&quot;,&quot;molecule_id&quot;:&quot;img5-m1&quot;,&quot;atom_order&quot;:1}]}</metadata>
  <rect x="0" y="0" width="58" height="49" fill="#f8f0d8"/>
  
  <rect x="0.5" y="0.5" width="57" height="48" fill="none" stroke="#111827" stroke-width="1" opacity="0.35"/>
  <polyline points="16,16 16,17 17,17 17,18 17,19 18,19 18,20 19,21 19,22 20,22 20,23 21,24 22,25 23,26 24,27 25,28 26,29 27,29 27,30 27,31 28,31 28,32 28,33 29,33 30,32 31,32 31,31 32,31 33,30 34,29 35,28 36,27 37,26 38,25 38,24 39,24 39,23 40,22 40,21 41,21 41,20 42,20 42,19" fill="none" stroke="#ff5f1f" stroke-width="3" stroke-linecap="round" stroke-linejoin="round" opacity="0.95">
    <title>6216 l:1</title>
  </polyline>
</svg>
