<?xml version="1.0" encoding="UTF-8"?>
<svg xmlns="http://www.w3.org/2000/svg" width="73" height="63" viewBox="0 0 73 63">
  <title>atom 5446 m:1</title>
  <metadata>{&quot;entityType&quot;:&quot;atom&quot;,&quot;entityId&quot;:&quot;5446&quot;,&quot;token&quot;:&quot;m:1&quot;,&quot;signature&quot;:&quot;m:1&quot;,&quot;imageName&quot;:&quot;page-004.jpg&quot;,&quot;imageId&quot;:4,&quot;bounds&quot;:{&quot;x&quot;:591,&quot;y&quot;:1920,&quot;w&quot;:73,&quot;h&quot;:63},&quot;atoms&quot;:[{&quot;id&quot;:5446,&quot;token&quot;:&quot;m:1&quot;,&quot;particle_id&quot;:&quot;img4-m6-p2&quot;,&quot;molecule_id&quot;:&quot;img4-m6&quot;,&quot;atom_order&quot;:2}]}</metadata>
  <rect x="0" y="0" width="73" height="63" fill="#f8f0d8"/>
  <image href="file:///C:/Users/HHHES/AppData/Roaming/com.voynichlab.datasetcreator/images/1/aff30327-ced8-4ab4-8c9b-190205ebe022.jpg" x="-591" y="-1920" width="2804" height="3797" opacity="0.92"/>
  <rect x="0.5" y="0.5" width="72" height="62" fill="none" stroke="#111827" stroke-width="1" opacity="0.35"/>
  <polyline points="29,47 29,46 29,45 29,44 29,43 29,42 29,41 29,40 29,39 29,38 29,37 30,36 30,35 30,34 30,33 30,32 30,31 30,30 30,29 30,28 30,27 30,26 30,25 30,24 30,23 30,22 30,21 30,20 30,19 30,18 30,17 30,16 29,16 28,16 27,17 27,18 26,18 26,19 25,20 25,21 24,21 24,22 23,23 23,24 22,24 22,25 22,26 21,26 21,27 20,28 20,29 19,29 19,30 18,30 18,31 17,32 17,33 16,34 16,35 17,35 18,35 19,35 20,35 21,35 22,35 23,35 24,35 25,35 26,35 27,35 28,35 29,35 30,35 31,35 33,35 34,35 35,34 36,34 37,34 38,34 40,34 41,34 42,34 43,34 44,34 45,34 46,34 47,34 48,34 49,34 50,34 51,34 52,34 53,34 54,33 55,33 56,33 57,33" fill="none" stroke="#ff00ff" stroke-width="3" stroke-linecap="round" stroke-linejoin="round" opacity="0.95">
    <title>5446 m:1</title>
  </polyline>
</svg>
