<?xml version="1.0" encoding="UTF-8"?>
<svg xmlns="http://www.w3.org/2000/svg" width="78" height="71" viewBox="0 0 78 71">
  <title>atom 5453 m:1</title>
  <metadata>{&quot;entityType&quot;:&quot;atom&quot;,&quot;entityId&quot;:&quot;5453&quot;,&quot;token&quot;:&quot;m:1&quot;,&quot;signature&quot;:&quot;m:1&quot;,&quot;imageName&quot;:&quot;page-004.jpg&quot;,&quot;imageId&quot;:4,&quot;bounds&quot;:{&quot;x&quot;:2022,&quot;y&quot;:2317,&quot;w&quot;:78,&quot;h&quot;:71},&quot;atoms&quot;:[{&quot;id&quot;:5453,&quot;token&quot;:&quot;m:1&quot;,&quot;particle_id&quot;:&quot;img4-m40-p2&quot;,&quot;molecule_id&quot;:&quot;img4-m40&quot;,&quot;atom_order&quot;:2}]}</metadata>
  <rect x="0" y="0" width="78" height="71" fill="#f8f0d8"/>
  <image href="file:///C:/Users/HHHES/AppData/Roaming/com.voynichlab.datasetcreator/images/1/aff30327-ced8-4ab4-8c9b-190205ebe022.jpg" x="-2022" y="-2317" width="2804" height="3797" opacity="0.92"/>
  <rect x="0.5" y="0.5" width="77" height="70" fill="none" stroke="#111827" stroke-width="1" opacity="0.35"/>
  <polyline points="36,55 36,54 36,53 36,52 37,51 37,50 37,49 37,48 37,47 37,46 37,45 37,44 38,44 38,43 38,42 38,41 38,40 38,39 38,38 39,38 39,37 39,36 39,35 40,34 40,33 40,32 40,31 40,30 41,30 41,29 41,28 41,27 42,26 42,25 42,24 42,23 42,22 43,21 43,20 43,19 43,18 44,18 44,17 44,16 43,16 42,16 41,17 40,17 39,17 38,18 37,18 37,19 36,19 35,19 34,19 34,20 33,20 33,21 32,21 31,21 31,22 30,22 30,23 29,23 28,24 27,24 26,24 26,25 25,25 24,25 24,26 23,26 22,27 21,28 20,28 20,29 19,29 18,29 18,30 17,30 16,30 16,31 17,31 18,31 19,31 20,31 21,31 22,30 23,30 24,30 25,30 26,30 27,30 28,30 29,31 31,31 32,31 33,31 34,32 35,32 36,32 37,32 38,33 39,33 40,33 41,34 42,34 43,34 44,34 45,34 46,35 47,35 48,35 49,35 50,35 51,36 53,36 54,36 56,36 57,36 58,36 60,37 61,37 62,37" fill="none" stroke="#ff00ff" stroke-width="3" stroke-linecap="round" stroke-linejoin="round" opacity="0.95">
    <title>5453 m:1</title>
  </polyline>
</svg>
