<?xml version="1.0" encoding="UTF-8"?>
<svg xmlns="http://www.w3.org/2000/svg" width="75" height="59" viewBox="0 0 75 59">
  <title>atom 5489 m:1</title>
  <metadata>{&quot;entityType&quot;:&quot;atom&quot;,&quot;entityId&quot;:&quot;5489&quot;,&quot;token&quot;:&quot;m:1&quot;,&quot;signature&quot;:&quot;m:1&quot;,&quot;imageName&quot;:&quot;page-004.jpg&quot;,&quot;imageId&quot;:4,&quot;bounds&quot;:{&quot;x&quot;:1711,&quot;y&quot;:2568,&quot;w&quot;:75,&quot;h&quot;:59},&quot;atoms&quot;:[{&quot;id&quot;:5489,&quot;token&quot;:&quot;m:1&quot;,&quot;particle_id&quot;:&quot;img4-m67-p1&quot;,&quot;molecule_id&quot;:&quot;img4-m67&quot;,&quot;atom_order&quot;:3}]}</metadata>
  <rect x="0" y="0" width="75" height="59" fill="#f8f0d8"/>
  <image href="file:///C:/Users/HHHES/AppData/Roaming/com.voynichlab.datasetcreator/images/1/aff30327-ced8-4ab4-8c9b-190205ebe022.jpg" x="-1711" y="-2568" width="2804" height="3797" opacity="0.92"/>
  <rect x="0.5" y="0.5" width="74" height="58" fill="none" stroke="#111827" stroke-width="1" opacity="0.35"/>
  <polyline points="35,43 35,42 35,41 35,40 36,40 36,39 36,38 36,37 36,36 37,36 37,35 37,34 37,33 37,32 37,31 37,30 37,29 38,29 38,28 38,27 38,26 38,25 38,24 38,23 38,22 39,22 39,21 39,20 39,19 39,18 39,17 39,16 38,16 38,17 37,17 37,18 36,18 35,19 34,20 33,20 32,21 31,21 30,22 29,22 29,23 28,23 27,24 26,24 25,25 24,25 24,26 23,26 22,26 22,27 21,27 20,27 20,28 19,28 18,28 18,29 17,29 17,30 16,30 16,31 17,31 18,31 18,32 19,32 21,32 22,32 23,32 24,32 25,32 26,32 27,32 28,32 29,32 30,32 31,32 32,32 33,32 34,32 35,32 36,32 37,32 38,32 39,32 40,32 41,32 42,32 43,32 44,32 45,32 46,32 48,33 49,33 50,33 51,33 52,33 53,33 54,33 55,33 56,33 57,33 58,33 59,33 59,34" fill="none" stroke="#ff00ff" stroke-width="3" stroke-linecap="round" stroke-linejoin="round" opacity="0.95">
    <title>5489 m:1</title>
  </polyline>
</svg>
