<?xml version="1.0" encoding="UTF-8"?>
<svg xmlns="http://www.w3.org/2000/svg" width="52" height="52" viewBox="0 0 52 52">
  <title>atom 5574 c:1</title>
  <metadata>{&quot;entityType&quot;:&quot;atom&quot;,&quot;entityId&quot;:&quot;5574&quot;,&quot;token&quot;:&quot;c:1&quot;,&quot;signature&quot;:&quot;c:1&quot;,&quot;imageName&quot;:&quot;page-005.jpg&quot;,&quot;imageId&quot;:5,&quot;bounds&quot;:{&quot;x&quot;:809,&quot;y&quot;:508,&quot;w&quot;:52,&quot;h&quot;:52},&quot;atoms&quot;:[{&quot;id&quot;:5574,&quot;token&quot;:&quot;c:1&quot;,&quot;particle_id&quot;:&quot;img5-m7-p2&quot;,&quot;molecule_id&quot;:&quot;img5-m7&quot;,&quot;atom_order&quot;:1}]}</metadata>
  <rect x="0" y="0" width="52" height="52" fill="#f8f0d8"/>
  <image href="file:///C:/Users/HHHES/AppData/Roaming/com.voynichlab.datasetcreator/images/1/a6cd3b6e-2a78-4b30-a4be-5d186aea258e.jpg" x="-809" y="-508" width="2691" height="3770" opacity="0.92"/>
  <rect x="0.5" y="0.5" width="51" height="51" fill="none" stroke="#111827" stroke-width="1" opacity="0.35"/>
  <polyline points="18,22 18,23 17,23 17,24 17,25 16,25 16,26 16,27 16,28 16,29 16,30 16,31 16,32 17,32 17,33 18,33 18,34 19,35 20,35 21,35 22,35 22,36 23,36 24,36 25,36 26,36 27,36 28,36 29,36 30,36 30,35 31,35 32,35 32,34 32,33 33,33 33,32 34,32 34,31 34,30 35,30 35,29 35,28 36,28 36,27 36,26 36,25 36,24 36,23 36,22 35,22 35,21 35,20 34,20 34,19 33,19 33,18 32,18 32,17 31,17 30,17 30,16 29,16 28,16 27,16 26,16 25,16 24,16 23,16 22,17 21,17 21,18 20,18 20,19 19,19 18,19 18,20 17,20 17,21 17,22" fill="none" stroke="#8aff00" stroke-width="3" stroke-linecap="round" stroke-linejoin="round" opacity="0.95">
    <title>5574 c:1</title>
  </polyline>
</svg>
