<?xml version="1.0" encoding="UTF-8"?>
<svg xmlns="http://www.w3.org/2000/svg" width="43" height="42" viewBox="0 0 43 42">
  <title>atom 5592 c:1</title>
  <metadata>{&quot;entityType&quot;:&quot;atom&quot;,&quot;entityId&quot;:&quot;5592&quot;,&quot;token&quot;:&quot;c:1&quot;,&quot;signature&quot;:&quot;c:1&quot;,&quot;imageName&quot;:&quot;page-005.jpg&quot;,&quot;imageId&quot;:5,&quot;bounds&quot;:{&quot;x&quot;:890,&quot;y&quot;:497,&quot;w&quot;:43,&quot;h&quot;:42},&quot;atoms&quot;:[{&quot;id&quot;:5592,&quot;token&quot;:&quot;c:1&quot;,&quot;particle_id&quot;:&quot;img5-m5-p1&quot;,&quot;molecule_id&quot;:&quot;img5-m5&quot;,&quot;atom_order&quot;:2}]}</metadata>
  <rect x="0" y="0" width="43" height="42" fill="#f8f0d8"/>
  <image href="file:///C:/Users/HHHES/AppData/Roaming/com.voynichlab.datasetcreator/images/1/a6cd3b6e-2a78-4b30-a4be-5d186aea258e.jpg" x="-890" y="-497" width="2691" height="3770" opacity="0.92"/>
  <rect x="0.5" y="0.5" width="42" height="41" fill="none" stroke="#111827" stroke-width="1" opacity="0.35"/>
  <polyline points="20,26 21,26 22,26 23,26 24,26 25,25 25,24 26,24 26,23 27,22 27,21 27,20 27,19 27,18 26,18 26,17 25,17 24,17 23,16 22,16 21,16 20,16 19,16 18,17 17,17 17,18 16,18 16,19 16,20 16,21 16,22 17,22 17,23 17,24 18,24 18,25 19,25 20,25 21,25" fill="none" stroke="#8aff00" stroke-width="3" stroke-linecap="round" stroke-linejoin="round" opacity="0.95">
    <title>5592 c:1</title>
  </polyline>
</svg>
