<?xml version="1.0" encoding="UTF-8"?>
<svg xmlns="http://www.w3.org/2000/svg" width="45" height="48" viewBox="0 0 45 48">
  <title>atom 5617 c:1</title>
  <metadata>{&quot;entityType&quot;:&quot;atom&quot;,&quot;entityId&quot;:&quot;5617&quot;,&quot;token&quot;:&quot;c:1&quot;,&quot;signature&quot;:&quot;c:1&quot;,&quot;imageName&quot;:&quot;page-005.jpg&quot;,&quot;imageId&quot;:5,&quot;bounds&quot;:{&quot;x&quot;:1457,&quot;y&quot;:892,&quot;w&quot;:45,&quot;h&quot;:48},&quot;atoms&quot;:[{&quot;id&quot;:5617,&quot;token&quot;:&quot;c:1&quot;,&quot;particle_id&quot;:&quot;img5-m42-p5&quot;,&quot;molecule_id&quot;:&quot;img5-m42&quot;,&quot;atom_order&quot;:2}]}</metadata>
  <rect x="0" y="0" width="45" height="48" fill="#f8f0d8"/>
  <image href="file:///C:/Users/HHHES/AppData/Roaming/com.voynichlab.datasetcreator/images/1/a6cd3b6e-2a78-4b30-a4be-5d186aea258e.jpg" x="-1457" y="-892" width="2691" height="3770" opacity="0.92"/>
  <rect x="0.5" y="0.5" width="44" height="47" fill="none" stroke="#111827" stroke-width="1" opacity="0.35"/>
  <polyline points="16,32 17,32 18,32 19,32 20,32 21,32 22,32 23,31 24,31 25,30 26,29 26,28 27,27 27,26 28,25 28,24 29,23 29,22 29,21 29,20 29,19 28,18 27,18 27,17 26,17 25,17 25,16 24,16 23,16 22,16 21,17 20,17 19,18 19,19 18,20 17,21 17,22 16,22 16,23 16,24 16,25 16,26 16,27 16,28 16,29 16,30 16,31 17,31 18,31" fill="none" stroke="#8aff00" stroke-width="3" stroke-linecap="round" stroke-linejoin="round" opacity="0.95">
    <title>5617 c:1</title>
  </polyline>
</svg>
