<?xml version="1.0" encoding="UTF-8"?>
<svg xmlns="http://www.w3.org/2000/svg" width="44" height="45" viewBox="0 0 44 45">
  <title>atom 5618 c:1</title>
  <metadata>{&quot;entityType&quot;:&quot;atom&quot;,&quot;entityId&quot;:&quot;5618&quot;,&quot;token&quot;:&quot;c:1&quot;,&quot;signature&quot;:&quot;c:1&quot;,&quot;imageName&quot;:&quot;page-005.jpg&quot;,&quot;imageId&quot;:5,&quot;bounds&quot;:{&quot;x&quot;:1483,&quot;y&quot;:822,&quot;w&quot;:44,&quot;h&quot;:45},&quot;atoms&quot;:[{&quot;id&quot;:5618,&quot;token&quot;:&quot;c:1&quot;,&quot;particle_id&quot;:&quot;img5-m29-p1&quot;,&quot;molecule_id&quot;:&quot;img5-m29&quot;,&quot;atom_order&quot;:2}]}</metadata>
  <rect x="0" y="0" width="44" height="45" fill="#f8f0d8"/>
  <image href="file:///C:/Users/HHHES/AppData/Roaming/com.voynichlab.datasetcreator/images/1/a6cd3b6e-2a78-4b30-a4be-5d186aea258e.jpg" x="-1483" y="-822" width="2691" height="3770" opacity="0.92"/>
  <rect x="0.5" y="0.5" width="43" height="44" fill="none" stroke="#111827" stroke-width="1" opacity="0.35"/>
  <polyline points="21,29 22,29 23,29 24,29 25,29 26,28 27,28 27,27 28,26 28,25 28,24 28,23 28,22 28,21 28,20 28,19 28,18 28,17 27,17 26,17 26,16 25,16 24,16 23,16 22,16 21,16 20,16 19,16 19,17 18,17 18,18 17,18 17,19 16,19 16,20 16,21 16,22 16,23 16,24 16,25 17,26 18,26 18,27 19,27 20,27 20,28 21,28 22,28" fill="none" stroke="#8aff00" stroke-width="3" stroke-linecap="round" stroke-linejoin="round" opacity="0.95">
    <title>5618 c:1</title>
  </polyline>
</svg>
