<?xml version="1.0" encoding="UTF-8"?>
<svg xmlns="http://www.w3.org/2000/svg" width="46" height="45" viewBox="0 0 46 45">
  <title>atom 5621 c:1</title>
  <metadata>{&quot;entityType&quot;:&quot;atom&quot;,&quot;entityId&quot;:&quot;5621&quot;,&quot;token&quot;:&quot;c:1&quot;,&quot;signature&quot;:&quot;c:1&quot;,&quot;imageName&quot;:&quot;page-005.jpg&quot;,&quot;imageId&quot;:5,&quot;bounds&quot;:{&quot;x&quot;:1813,&quot;y&quot;:895,&quot;w&quot;:46,&quot;h&quot;:45},&quot;atoms&quot;:[{&quot;id&quot;:5621,&quot;token&quot;:&quot;c:1&quot;,&quot;particle_id&quot;:&quot;img5-m41-p1&quot;,&quot;molecule_id&quot;:&quot;img5-m41&quot;,&quot;atom_order&quot;:2}]}</metadata>
  <rect x="0" y="0" width="46" height="45" fill="#f8f0d8"/>
  <image href="file:///C:/Users/HHHES/AppData/Roaming/com.voynichlab.datasetcreator/images/1/a6cd3b6e-2a78-4b30-a4be-5d186aea258e.jpg" x="-1813" y="-895" width="2691" height="3770" opacity="0.92"/>
  <rect x="0.5" y="0.5" width="45" height="44" fill="none" stroke="#111827" stroke-width="1" opacity="0.35"/>
  <polyline points="23,26 24,26 25,27 26,27 27,27 28,26 29,26 29,25 30,24 30,23 30,22 30,21 30,20 30,19 29,18 29,17 28,17 27,16 26,16 25,16 24,16 23,16 22,16 21,16 20,16 19,16 18,16 17,16 17,17 16,17 16,18 16,19 16,20 16,21 16,22 16,23 16,24 17,24 17,25 18,25 18,26 19,26 20,27 21,27 22,27 23,28 24,28 25,28 25,29 26,29 27,29 27,28" fill="none" stroke="#8aff00" stroke-width="3" stroke-linecap="round" stroke-linejoin="round" opacity="0.95">
    <title>5621 c:1</title>
  </polyline>
</svg>
