<?xml version="1.0" encoding="UTF-8"?>
<svg xmlns="http://www.w3.org/2000/svg" width="48" height="46" viewBox="0 0 48 46">
  <title>atom 5666 c:1</title>
  <metadata>{&quot;entityType&quot;:&quot;atom&quot;,&quot;entityId&quot;:&quot;5666&quot;,&quot;token&quot;:&quot;c:1&quot;,&quot;signature&quot;:&quot;c:1&quot;,&quot;imageName&quot;:&quot;page-005.jpg&quot;,&quot;imageId&quot;:5,&quot;bounds&quot;:{&quot;x&quot;:423,&quot;y&quot;:589,&quot;w&quot;:48,&quot;h&quot;:46},&quot;atoms&quot;:[{&quot;id&quot;:5666,&quot;token&quot;:&quot;c:1&quot;,&quot;particle_id&quot;:&quot;img5-m12-p1&quot;,&quot;molecule_id&quot;:&quot;img5-m12&quot;,&quot;atom_order&quot;:2}]}</metadata>
  <rect x="0" y="0" width="48" height="46" fill="#f8f0d8"/>
  <image href="file:///C:/Users/HHHES/AppData/Roaming/com.voynichlab.datasetcreator/images/1/a6cd3b6e-2a78-4b30-a4be-5d186aea258e.jpg" x="-423" y="-589" width="2691" height="3770" opacity="0.92"/>
  <rect x="0.5" y="0.5" width="47" height="45" fill="none" stroke="#111827" stroke-width="1" opacity="0.35"/>
  <polyline points="26,30 27,30 27,29 28,29 29,28 30,27 31,27 31,26 31,25 31,24 32,23 32,22 32,21 32,20 32,19 31,19 31,18 31,17 30,17 29,17 29,16 28,16 27,16 26,16 25,16 24,16 23,16 22,16 21,16 20,16 20,17 19,17 18,17 18,18 18,19 17,19 17,20 17,21 16,21 16,22 16,23 16,24 16,25 17,26 17,27 18,27 18,28 19,28 19,29 20,29 21,30 22,30 23,30 24,30 25,30 25,29 26,29 27,29" fill="none" stroke="#8aff00" stroke-width="3" stroke-linecap="round" stroke-linejoin="round" opacity="0.95">
    <title>5666 c:1</title>
  </polyline>
</svg>
