<?xml version="1.0" encoding="UTF-8"?>
<svg xmlns="http://www.w3.org/2000/svg" width="49" height="45" viewBox="0 0 49 45">
  <title>atom 5714 c:1</title>
  <metadata>{&quot;entityType&quot;:&quot;atom&quot;,&quot;entityId&quot;:&quot;5714&quot;,&quot;token&quot;:&quot;c:1&quot;,&quot;signature&quot;:&quot;c:1&quot;,&quot;imageName&quot;:&quot;page-005.jpg&quot;,&quot;imageId&quot;:5,&quot;bounds&quot;:{&quot;x&quot;:1055,&quot;y&quot;:820,&quot;w&quot;:49,&quot;h&quot;:45},&quot;atoms&quot;:[{&quot;id&quot;:5714,&quot;token&quot;:&quot;c:1&quot;,&quot;particle_id&quot;:&quot;img5-m33-p2&quot;,&quot;molecule_id&quot;:&quot;img5-m33&quot;,&quot;atom_order&quot;:2}]}</metadata>
  <rect x="0" y="0" width="49" height="45" fill="#f8f0d8"/>
  <image href="file:///C:/Users/HHHES/AppData/Roaming/com.voynichlab.datasetcreator/images/1/a6cd3b6e-2a78-4b30-a4be-5d186aea258e.jpg" x="-1055" y="-820" width="2691" height="3770" opacity="0.92"/>
  <rect x="0.5" y="0.5" width="48" height="44" fill="none" stroke="#111827" stroke-width="1" opacity="0.35"/>
  <polyline points="26,29 27,29 28,29 28,28 29,28 29,27 30,27 30,26 31,26 32,25 32,24 33,24 33,23 33,22 33,21 33,20 33,19 32,19 32,18 31,18 30,18 29,18 29,17 28,17 27,17 26,17 25,17 24,16 23,16 22,16 21,16 20,16 19,16 18,16 17,16 17,17 16,17 16,18 16,19 16,20 16,21 16,22 16,23 17,23 17,24 18,24 18,25 19,25 20,25 21,26 22,26 22,27 23,27 24,27 25,28 26,28 27,28 28,28 29,28" fill="none" stroke="#8aff00" stroke-width="3" stroke-linecap="round" stroke-linejoin="round" opacity="0.95">
    <title>5714 c:1</title>
  </polyline>
</svg>
