<?xml version="1.0" encoding="UTF-8"?>
<svg xmlns="http://www.w3.org/2000/svg" width="56" height="57" viewBox="0 0 56 57">
  <title>atom 6011 c:1</title>
  <metadata>{&quot;entityType&quot;:&quot;atom&quot;,&quot;entityId&quot;:&quot;6011&quot;,&quot;token&quot;:&quot;c:1&quot;,&quot;signature&quot;:&quot;c:1&quot;,&quot;imageName&quot;:&quot;page-005.jpg&quot;,&quot;imageId&quot;:5,&quot;bounds&quot;:{&quot;x&quot;:479,&quot;y&quot;:2373,&quot;w&quot;:56,&quot;h&quot;:57},&quot;atoms&quot;:[{&quot;id&quot;:6011,&quot;token&quot;:&quot;c:1&quot;,&quot;particle_id&quot;:&quot;img5-m48-p1&quot;,&quot;molecule_id&quot;:&quot;img5-m48&quot;,&quot;atom_order&quot;:3}]}</metadata>
  <rect x="0" y="0" width="56" height="57" fill="#f8f0d8"/>
  <image href="file:///C:/Users/HHHES/AppData/Roaming/com.voynichlab.datasetcreator/images/1/a6cd3b6e-2a78-4b30-a4be-5d186aea258e.jpg" x="-479" y="-2373" width="2691" height="3770" opacity="0.92"/>
  <rect x="0.5" y="0.5" width="55" height="56" fill="none" stroke="#111827" stroke-width="1" opacity="0.35"/>
  <polyline points="38,35 38,34 39,34 39,33 40,32 40,31 40,30 40,29 40,28 40,27 40,26 40,25 40,24 39,23 39,22 39,21 39,20 38,20 38,19 37,18 37,17 36,17 35,17 35,16 34,16 33,16 32,16 31,16 30,16 29,16 28,16 27,17 26,17 25,18 24,19 23,19 23,20 22,21 21,22 21,23 20,23 20,24 19,25 18,25 18,26 18,27 17,27 17,28 17,29 17,30 17,31 16,31 16,32 16,33 16,34 16,35 16,36 17,36 17,37 18,37 18,38 19,39 20,40 21,40 22,41 23,41 24,41 26,41 27,41 28,41 29,41 30,41 30,40 32,40 33,40 34,40 34,39 35,39 36,38 37,37 37,36 38,36 38,35 38,34 39,34 39,33" fill="none" stroke="#8aff00" stroke-width="3" stroke-linecap="round" stroke-linejoin="round" opacity="0.95">
    <title>6011 c:1</title>
  </polyline>
</svg>
