<?xml version="1.0" encoding="UTF-8"?>
<svg xmlns="http://www.w3.org/2000/svg" width="47" height="47" viewBox="0 0 47 47">
  <title>atom 6012 c:1</title>
  <metadata>{&quot;entityType&quot;:&quot;atom&quot;,&quot;entityId&quot;:&quot;6012&quot;,&quot;token&quot;:&quot;c:1&quot;,&quot;signature&quot;:&quot;c:1&quot;,&quot;imageName&quot;:&quot;page-005.jpg&quot;,&quot;imageId&quot;:5,&quot;bounds&quot;:{&quot;x&quot;:533,&quot;y&quot;:2455,&quot;w&quot;:47,&quot;h&quot;:47},&quot;atoms&quot;:[{&quot;id&quot;:6012,&quot;token&quot;:&quot;c:1&quot;,&quot;particle_id&quot;:&quot;img5-m48-p3&quot;,&quot;molecule_id&quot;:&quot;img5-m48&quot;,&quot;atom_order&quot;:2}]}</metadata>
  <rect x="0" y="0" width="47" height="47" fill="#f8f0d8"/>
  <image href="file:///C:/Users/HHHES/AppData/Roaming/com.voynichlab.datasetcreator/images/1/a6cd3b6e-2a78-4b30-a4be-5d186aea258e.jpg" x="-533" y="-2455" width="2691" height="3770" opacity="0.92"/>
  <rect x="0.5" y="0.5" width="46" height="46" fill="none" stroke="#111827" stroke-width="1" opacity="0.35"/>
  <polyline points="26,31 26,30 27,30 28,30 29,29 30,29 30,28 31,27 31,26 31,25 31,24 31,23 31,22 31,21 31,20 30,20 30,19 29,19 29,18 28,18 27,17 26,17 25,16 24,16 23,16 22,16 20,16 19,17 18,17 17,18 16,19 16,20 16,21 16,22 16,23 16,24 16,25 17,25 17,26 18,27 19,27 20,28 21,28 22,28 23,28 24,28 24,29 25,29 26,29 27,29" fill="none" stroke="#8aff00" stroke-width="3" stroke-linecap="round" stroke-linejoin="round" opacity="0.95">
    <title>6012 c:1</title>
  </polyline>
</svg>
