<?xml version="1.0" encoding="UTF-8"?>
<svg xmlns="http://www.w3.org/2000/svg" width="84" height="53" viewBox="0 0 84 53">
  <title>atom 2765 k:1</title>
  <metadata>{&quot;entityType&quot;:&quot;atom&quot;,&quot;entityId&quot;:&quot;2765&quot;,&quot;token&quot;:&quot;k:1&quot;,&quot;signature&quot;:&quot;k:1&quot;,&quot;imageName&quot;:&quot;page-094.jpg&quot;,&quot;imageId&quot;:94,&quot;bounds&quot;:{&quot;x&quot;:1650,&quot;y&quot;:627,&quot;w&quot;:84,&quot;h&quot;:53},&quot;atoms&quot;:[{&quot;id&quot;:2765,&quot;token&quot;:&quot;k:1&quot;,&quot;particle_id&quot;:&quot;img94-m8-p3&quot;,&quot;molecule_id&quot;:&quot;img94-m8&quot;,&quot;atom_order&quot;:1}]}</metadata>
  <rect x="0" y="0" width="84" height="53" fill="#f8f0d8"/>
  <image href="file:///C:/Users/HHHES/AppData/Roaming/com.voynichlab.datasetcreator/images/1/33b1988f-7aaa-4207-bfa8-f26b742ac4b1.jpg" x="-1650" y="-627" width="2932" height="3769" opacity="0.92"/>
  <rect x="0.5" y="0.5" width="83" height="52" fill="none" stroke="#111827" stroke-width="1" opacity="0.35"/>
  <polyline points="16,16 17,17 17,18 18,19 18,20 19,21 19,22 20,22 20,23 21,23 21,24 21,25 22,25 22,26 22,27 23,27 23,28 23,29 24,29 24,30 25,30 25,31 25,32 26,32 26,33 27,33 27,34 28,34 28,33 29,33 30,32 31,31 31,30 32,30 33,29 34,28 35,27 36,27 36,26 37,26 37,25 38,25 38,24 39,24 39,23 40,23 40,22 41,22 41,21 42,21 42,20 43,20 43,19 44,19 44,18 45,18 45,17 46,18 46,19 46,20 47,20 47,21 47,22 47,23 48,23 48,24 49,25 49,26 49,27 50,27 50,28 50,29 51,30 51,31 52,32 52,33 53,33 53,34 53,35 53,36 54,36 54,37 55,37 55,36 56,36 56,35 57,35 57,34 58,34 59,34 59,33 60,33 60,32 61,32 62,31 62,30 63,30 64,30 64,29 65,29 65,28 65,27 66,27 66,26 66,25 66,24 67,24 67,23 67,22 68,22 68,21" fill="none" stroke="#ffffff" stroke-width="3" stroke-linecap="round" stroke-linejoin="round" opacity="0.95">
    <title>2765 k:1</title>
  </polyline>
</svg>
