<?xml version="1.0" encoding="UTF-8"?>
<svg xmlns="http://www.w3.org/2000/svg" width="78" height="49" viewBox="0 0 78 49">
  <title>atom 4254 k:1</title>
  <metadata>{&quot;entityType&quot;:&quot;atom&quot;,&quot;entityId&quot;:&quot;4254&quot;,&quot;token&quot;:&quot;k:1&quot;,&quot;signature&quot;:&quot;k:1&quot;,&quot;imageName&quot;:&quot;page-094.jpg&quot;,&quot;imageId&quot;:94,&quot;bounds&quot;:{&quot;x&quot;:954,&quot;y&quot;:2468,&quot;w&quot;:78,&quot;h&quot;:49},&quot;atoms&quot;:[{&quot;id&quot;:4254,&quot;token&quot;:&quot;k:1&quot;,&quot;particle_id&quot;:&quot;img94-m40-p2&quot;,&quot;molecule_id&quot;:&quot;img94-m40&quot;,&quot;atom_order&quot;:1}]}</metadata>
  <rect x="0" y="0" width="78" height="49" fill="#f8f0d8"/>
  <image href="file:///C:/Users/HHHES/AppData/Roaming/com.voynichlab.datasetcreator/images/1/33b1988f-7aaa-4207-bfa8-f26b742ac4b1.jpg" x="-954" y="-2468" width="2932" height="3769" opacity="0.92"/>
  <rect x="0.5" y="0.5" width="77" height="48" fill="none" stroke="#111827" stroke-width="1" opacity="0.35"/>
  <polyline points="16,17 16,18 17,18 17,19 18,20 18,21 18,22 19,22 19,23 20,24 20,25 21,25 21,26 22,27 22,28 23,28 23,29 24,29 24,30 25,30 25,31 26,31 26,32 27,32 27,31 28,31 29,30 30,29 31,29 31,28 32,28 32,27 33,27 33,26 34,25 35,24 36,24 36,23 36,22 37,22 37,21 37,20 38,20 38,19 39,19 39,20 39,21 40,21 40,22 40,23 41,24 41,25 41,26 42,26 42,27 42,28 43,29 43,30 44,30 44,31 45,31 45,32 46,32 46,33 47,33 48,33 48,32 49,32 49,31 50,31 51,30 51,29 52,29 52,28 53,28 53,27 54,27 54,26 55,25 55,24 56,24 57,23 57,22 58,21 59,20 60,19 60,18 61,18 61,17 62,17 62,16" fill="none" stroke="#ffffff" stroke-width="3" stroke-linecap="round" stroke-linejoin="round" opacity="0.95">
    <title>4254 k:1</title>
  </polyline>
</svg>
