<?xml version="1.0" encoding="UTF-8"?>
<svg xmlns="http://www.w3.org/2000/svg" width="87" height="49" viewBox="0 0 87 49">
  <title>atom 4641 k:1</title>
  <metadata>{&quot;entityType&quot;:&quot;atom&quot;,&quot;entityId&quot;:&quot;4641&quot;,&quot;token&quot;:&quot;k:1&quot;,&quot;signature&quot;:&quot;k:1&quot;,&quot;imageName&quot;:&quot;page-094.jpg&quot;,&quot;imageId&quot;:94,&quot;bounds&quot;:{&quot;x&quot;:2181,&quot;y&quot;:2737,&quot;w&quot;:87,&quot;h&quot;:49},&quot;atoms&quot;:[{&quot;id&quot;:4641,&quot;token&quot;:&quot;k:1&quot;,&quot;particle_id&quot;:&quot;img94-m58-p3&quot;,&quot;molecule_id&quot;:&quot;img94-m58&quot;,&quot;atom_order&quot;:1}]}</metadata>
  <rect x="0" y="0" width="87" height="49" fill="#f8f0d8"/>
  <image href="file:///C:/Users/HHHES/AppData/Roaming/com.voynichlab.datasetcreator/images/1/33b1988f-7aaa-4207-bfa8-f26b742ac4b1.jpg" x="-2181" y="-2737" width="2932" height="3769" opacity="0.92"/>
  <rect x="0.5" y="0.5" width="86" height="48" fill="none" stroke="#111827" stroke-width="1" opacity="0.35"/>
  <polyline points="16,17 17,17 18,18 19,19 19,20 19,21 20,22 20,23 20,24 21,25 22,26 23,27 24,28 25,28 25,29 26,30 27,31 28,31 28,32 29,32 30,32 30,33 31,33 31,32 31,31 32,31 32,30 33,29 34,28 34,27 34,26 35,26 35,25 36,24 36,23 37,22 37,21 38,20 38,19 39,19 39,18 40,18 40,17 41,17 41,16 42,16 42,17 43,18 43,19 43,20 44,21 45,22 46,23 47,24 47,25 48,26 48,27 49,28 50,28 50,29 50,30 51,30 51,31 52,31 53,32 53,33 54,33 55,33 56,32 57,31 58,30 59,30 59,29 60,29 61,28 61,27 62,27 62,26 63,25 64,24 65,24 65,23 66,22 67,22 67,21 68,21 68,20 68,19 69,19 69,18 70,18 71,18 71,17" fill="none" stroke="#ffffff" stroke-width="3" stroke-linecap="round" stroke-linejoin="round" opacity="0.95">
    <title>4641 k:1</title>
  </polyline>
</svg>
