<?xml version="1.0" encoding="UTF-8"?>
<svg xmlns="http://www.w3.org/2000/svg" width="91" height="58" viewBox="0 0 91 58">
  <title>atom 4643 k:1</title>
  <metadata>{&quot;entityType&quot;:&quot;atom&quot;,&quot;entityId&quot;:&quot;4643&quot;,&quot;token&quot;:&quot;k:1&quot;,&quot;signature&quot;:&quot;k:1&quot;,&quot;imageName&quot;:&quot;page-094.jpg&quot;,&quot;imageId&quot;:94,&quot;bounds&quot;:{&quot;x&quot;:1606,&quot;y&quot;:2930,&quot;w&quot;:91,&quot;h&quot;:58},&quot;atoms&quot;:[{&quot;id&quot;:4643,&quot;token&quot;:&quot;k:1&quot;,&quot;particle_id&quot;:&quot;img94-m78-p3&quot;,&quot;molecule_id&quot;:&quot;img94-m78&quot;,&quot;atom_order&quot;:1}]}</metadata>
  <rect x="0" y="0" width="91" height="58" fill="#f8f0d8"/>
  <image href="file:///C:/Users/HHHES/AppData/Roaming/com.voynichlab.datasetcreator/images/1/33b1988f-7aaa-4207-bfa8-f26b742ac4b1.jpg" x="-1606" y="-2930" width="2932" height="3769" opacity="0.92"/>
  <rect x="0.5" y="0.5" width="90" height="57" fill="none" stroke="#111827" stroke-width="1" opacity="0.35"/>
  <polyline points="16,16 17,17 18,18 19,19 19,20 19,21 20,22 21,23 22,24 23,25 24,26 25,27 25,28 27,29 27,30 28,31 29,32 29,33 30,33 31,34 31,35 32,35 32,36 33,36 33,37 34,38 34,39 35,39 35,40 36,41 36,42 37,42 37,41 38,40 38,38 39,37 39,36 39,35 40,34 40,33 40,32 41,32 41,31 42,30 42,29 42,28 43,28 43,27 44,26 45,25 45,24 45,23 46,23 46,22 46,21 47,21 47,20 48,20 48,19 48,18 49,18 49,17 50,17 50,18 50,19 51,20 52,21 52,22 53,23 53,24 54,24 54,25 55,26 56,27 56,28 57,28 57,29 58,30 58,31 59,32 59,33 60,33 60,34 60,35 61,36 61,37 62,38 62,39 62,40 63,40 63,39 63,38 64,37 64,36 65,34 66,34 66,33 67,32 68,31 69,30 69,29 70,28 70,27 71,27 71,26 72,26 72,25 72,24 73,24 73,23 74,22 75,21 75,22 75,23" fill="none" stroke="#ffffff" stroke-width="3" stroke-linecap="round" stroke-linejoin="round" opacity="0.95">
    <title>4643 k:1</title>
  </polyline>
</svg>
