<?xml version="1.0" encoding="UTF-8"?>
<svg xmlns="http://www.w3.org/2000/svg" width="46" height="80" viewBox="0 0 46 80">
  <title>atom 5927 h:1</title>
  <metadata>{&quot;entityType&quot;:&quot;atom&quot;,&quot;entityId&quot;:&quot;5927&quot;,&quot;token&quot;:&quot;h:1&quot;,&quot;signature&quot;:&quot;h:1&quot;,&quot;imageName&quot;:&quot;page-005.jpg&quot;,&quot;imageId&quot;:5,&quot;bounds&quot;:{&quot;x&quot;:1350,&quot;y&quot;:2572,&quot;w&quot;:46,&quot;h&quot;:80},&quot;atoms&quot;:[{&quot;id&quot;:5927,&quot;token&quot;:&quot;h:1&quot;,&quot;particle_id&quot;:&quot;img5-m67-p5&quot;,&quot;molecule_id&quot;:&quot;img5-m67&quot;,&quot;atom_order&quot;:2}]}</metadata>
  <rect x="0" y="0" width="46" height="80" fill="#f8f0d8"/>
  <image href="file:///C:/Users/HHHES/AppData/Roaming/com.voynichlab.datasetcreator/images/1/a6cd3b6e-2a78-4b30-a4be-5d186aea258e.jpg" x="-1350" y="-2572" width="2691" height="3770" opacity="0.92"/>
  <rect x="0.5" y="0.5" width="45" height="79" fill="none" stroke="#111827" stroke-width="1" opacity="0.35"/>
  <polyline points="16,16 17,16 18,16 18,17 19,17 20,17 20,18 21,18 21,19 22,19 22,20 23,21 24,22 24,23 25,23 25,24 25,25 26,26 26,27 26,28 27,28 27,29 28,30 28,31 28,32 29,34 29,35 29,36 29,37 29,38 30,40 30,41 30,42 30,43 30,45 30,46 29,47 29,49 29,50 29,51 29,52 29,54 28,56 28,57 28,58 27,59 27,60 26,60 26,61 25,62 25,63 25,64" fill="none" stroke="#ff8c00" stroke-width="3" stroke-linecap="round" stroke-linejoin="round" opacity="0.95">
    <title>5927 h:1</title>
  </polyline>
</svg>
