<?xml version="1.0" encoding="UTF-8"?>
<svg xmlns="http://www.w3.org/2000/svg" width="44" height="72" viewBox="0 0 44 72">
  <title>atom 5928 h:1</title>
  <metadata>{&quot;entityType&quot;:&quot;atom&quot;,&quot;entityId&quot;:&quot;5928&quot;,&quot;token&quot;:&quot;h:1&quot;,&quot;signature&quot;:&quot;h:1&quot;,&quot;imageName&quot;:&quot;page-005.jpg&quot;,&quot;imageId&quot;:5,&quot;bounds&quot;:{&quot;x&quot;:1215,&quot;y&quot;:2569,&quot;w&quot;:44,&quot;h&quot;:72},&quot;atoms&quot;:[{&quot;id&quot;:5928,&quot;token&quot;:&quot;h:1&quot;,&quot;particle_id&quot;:&quot;img5-m67-p1&quot;,&quot;molecule_id&quot;:&quot;img5-m67&quot;,&quot;atom_order&quot;:2}]}</metadata>
  <rect x="0" y="0" width="44" height="72" fill="#f8f0d8"/>
  <image href="file:///C:/Users/HHHES/AppData/Roaming/com.voynichlab.datasetcreator/images/1/a6cd3b6e-2a78-4b30-a4be-5d186aea258e.jpg" x="-1215" y="-2569" width="2691" height="3770" opacity="0.92"/>
  <rect x="0.5" y="0.5" width="43" height="71" fill="none" stroke="#111827" stroke-width="1" opacity="0.35"/>
  <polyline points="16,16 17,16 17,17 18,17 19,17 19,18 20,18 20,19 21,20 22,20 23,21 24,22 25,23 25,24 26,25 26,26 26,27 26,28 27,28 27,29 27,30 27,31 27,32 28,32 28,33 28,34 28,35 28,36 28,37 28,38 28,39 28,40 28,41 28,42 28,43 27,43 27,44 27,45 27,46 26,47 26,48 26,49 25,50 25,51 24,52 24,53 23,54 23,55 22,55 21,56" fill="none" stroke="#ff8c00" stroke-width="3" stroke-linecap="round" stroke-linejoin="round" opacity="0.95">
    <title>5928 h:1</title>
  </polyline>
</svg>
