<?xml version="1.0" encoding="UTF-8"?>
<svg xmlns="http://www.w3.org/2000/svg" width="49" height="94" viewBox="0 0 49 94">
  <title>atom 5930 h:1</title>
  <metadata>{&quot;entityType&quot;:&quot;atom&quot;,&quot;entityId&quot;:&quot;5930&quot;,&quot;token&quot;:&quot;h:1&quot;,&quot;signature&quot;:&quot;h:1&quot;,&quot;imageName&quot;:&quot;page-005.jpg&quot;,&quot;imageId&quot;:5,&quot;bounds&quot;:{&quot;x&quot;:913,&quot;y&quot;:2563,&quot;w&quot;:49,&quot;h&quot;:94},&quot;atoms&quot;:[{&quot;id&quot;:5930,&quot;token&quot;:&quot;h:1&quot;,&quot;particle_id&quot;:&quot;img5-m66-p5&quot;,&quot;molecule_id&quot;:&quot;img5-m66&quot;,&quot;atom_order&quot;:2}]}</metadata>
  <rect x="0" y="0" width="49" height="94" fill="#f8f0d8"/>
  <image href="file:///C:/Users/HHHES/AppData/Roaming/com.voynichlab.datasetcreator/images/1/a6cd3b6e-2a78-4b30-a4be-5d186aea258e.jpg" x="-913" y="-2563" width="2691" height="3770" opacity="0.92"/>
  <rect x="0.5" y="0.5" width="48" height="93" fill="none" stroke="#111827" stroke-width="1" opacity="0.35"/>
  <polyline points="21,16 21,17 22,17 23,18 24,18 25,18 26,19 26,20 28,20 28,21 30,23 30,24 31,25 31,26 31,27 32,28 32,29 32,30 32,31 32,32 32,34 33,36 33,37 33,38 33,40 33,41 33,42 33,43 33,44 33,45 33,46 32,47 32,48 32,49 32,50 32,52 32,53 31,55 30,56 30,58 30,59 29,61 28,62 28,64 27,65 26,67 25,69 24,70 22,72 21,74 19,75 18,75 17,76 16,77 16,78" fill="none" stroke="#ff8c00" stroke-width="3" stroke-linecap="round" stroke-linejoin="round" opacity="0.95">
    <title>5930 h:1</title>
  </polyline>
</svg>
