<?xml version="1.0" encoding="UTF-8"?>
<svg xmlns="http://www.w3.org/2000/svg" width="51" height="82" viewBox="0 0 51 82">
  <title>atom 5935 h:1</title>
  <metadata>{&quot;entityType&quot;:&quot;atom&quot;,&quot;entityId&quot;:&quot;5935&quot;,&quot;token&quot;:&quot;h:1&quot;,&quot;signature&quot;:&quot;h:1&quot;,&quot;imageName&quot;:&quot;page-005.jpg&quot;,&quot;imageId&quot;:5,&quot;bounds&quot;:{&quot;x&quot;:893,&quot;y&quot;:2713,&quot;w&quot;:51,&quot;h&quot;:82},&quot;atoms&quot;:[{&quot;id&quot;:5935,&quot;token&quot;:&quot;h:1&quot;,&quot;particle_id&quot;:&quot;img5-m85-p2&quot;,&quot;molecule_id&quot;:&quot;img5-m85&quot;,&quot;atom_order&quot;:2}]}</metadata>
  <rect x="0" y="0" width="51" height="82" fill="#f8f0d8"/>
  <image href="file:///C:/Users/HHHES/AppData/Roaming/com.voynichlab.datasetcreator/images/1/a6cd3b6e-2a78-4b30-a4be-5d186aea258e.jpg" x="-893" y="-2713" width="2691" height="3770" opacity="0.92"/>
  <rect x="0.5" y="0.5" width="50" height="81" fill="none" stroke="#111827" stroke-width="1" opacity="0.35"/>
  <polyline points="23,16 24,16 24,17 25,17 26,17 26,18 26,19 27,19 28,20 29,21 30,22 31,23 31,24 32,24 32,25 33,25 33,26 33,27 34,28 34,29 34,30 34,31 35,31 35,32 35,33 35,34 35,35 35,36 35,37 34,37 34,38 34,39 34,40 34,41 33,42 33,43 33,44 32,45 32,46 31,46 31,47 30,48 30,49 29,49 29,50 28,50 28,51 27,51 27,52 26,52 26,53 25,54 25,55 24,55 24,56 23,56 23,57 22,57 22,58 21,58 21,59 20,59 20,60 19,61 19,62 18,62 18,63 17,64 17,65 16,66" fill="none" stroke="#ff8c00" stroke-width="3" stroke-linecap="round" stroke-linejoin="round" opacity="0.95">
    <title>5935 h:1</title>
  </polyline>
</svg>
