<?xml version="1.0" encoding="UTF-8"?>
<svg xmlns="http://www.w3.org/2000/svg" width="60" height="53" viewBox="0 0 60 53">
  <title>atom 3479 l:1</title>
  <metadata>{&quot;entityType&quot;:&quot;atom&quot;,&quot;entityId&quot;:&quot;3479&quot;,&quot;token&quot;:&quot;l:1&quot;,&quot;signature&quot;:&quot;l:1&quot;,&quot;imageName&quot;:&quot;page-003.jpg&quot;,&quot;imageId&quot;:3,&quot;bounds&quot;:{&quot;x&quot;:1827,&quot;y&quot;:2092,&quot;w&quot;:60,&quot;h&quot;:53},&quot;atoms&quot;:[{&quot;id&quot;:3479,&quot;token&quot;:&quot;l:1&quot;,&quot;particle_id&quot;:&quot;img3-m130-p5&quot;,&quot;molecule_id&quot;:&quot;img3-m130&quot;,&quot;atom_order&quot;:1}]}</metadata>
  <rect x="0" y="0" width="60" height="53" fill="#f8f0d8"/>

  <rect x="0.5" y="0.5" width="59" height="52" fill="none" stroke="#111827" stroke-width="1" opacity="0.35"/>
  <polyline points="16,16 16,17 17,18 17,19 17,20 17,21 18,22 18,23 18,24 19,24 19,25 20,26 20,27 21,28 21,29 22,30 22,31 23,32 23,33 24,33 24,34 24,35 25,35 25,36 26,36 26,37 27,37 28,37 28,36 29,36 30,36 30,35 31,34 32,33 33,33 33,32 34,32 34,31 35,30 36,29 36,28 37,28 37,27 38,27 38,26 39,26 39,25 40,24 41,23 42,23 42,22 43,22 43,21 43,20 44,20" fill="none" stroke="#ff5f1f" stroke-width="3" stroke-linecap="round" stroke-linejoin="round" opacity="0.95">
    <title>3479 l:1</title>
  </polyline>
</svg>
