<?xml version="1.0" encoding="UTF-8"?>
<svg xmlns="http://www.w3.org/2000/svg" width="55" height="51" viewBox="0 0 55 51">
  <title>atom 3869 l:1</title>
  <metadata>{&quot;entityType&quot;:&quot;atom&quot;,&quot;entityId&quot;:&quot;3869&quot;,&quot;token&quot;:&quot;l:1&quot;,&quot;signature&quot;:&quot;l:1&quot;,&quot;imageName&quot;:&quot;page-003.jpg&quot;,&quot;imageId&quot;:3,&quot;bounds&quot;:{&quot;x&quot;:637,&quot;y&quot;:2594,&quot;w&quot;:55,&quot;h&quot;:51},&quot;atoms&quot;:[{&quot;id&quot;:3869,&quot;token&quot;:&quot;l:1&quot;,&quot;particle_id&quot;:&quot;img3-m157-p4&quot;,&quot;molecule_id&quot;:&quot;img3-m157&quot;,&quot;atom_order&quot;:1}]}</metadata>
  <rect x="0" y="0" width="55" height="51" fill="#f8f0d8"/>
  
  <rect x="0.5" y="0.5" width="54" height="50" fill="none" stroke="#111827" stroke-width="1" opacity="0.35"/>
  <polyline points="16,16 16,17 16,18 16,19 17,19 17,20 17,21 17,22 18,22 18,23 18,24 19,24 19,25 20,25 20,26 21,27 21,28 22,28 22,29 23,30 23,31 24,31 24,32 24,33 25,33 25,34 25,35 26,35 27,35 27,34 28,34 28,33 29,32 29,31 30,31 31,30 32,30 32,29 33,29 33,28 34,28 34,27 35,26 36,26 36,25 37,25 37,24 38,23 38,22 39,22 39,21" fill="none" stroke="#ff5f1f" stroke-width="3" stroke-linecap="round" stroke-linejoin="round" opacity="0.95">
    <title>3869 l:1</title>
  </polyline>
</svg>
