<?xml version="1.0" encoding="UTF-8"?>
<svg xmlns="http://www.w3.org/2000/svg" width="61" height="51" viewBox="0 0 61 51">
  <title>atom 4257 l:1</title>
  <metadata>{&quot;entityType&quot;:&quot;atom&quot;,&quot;entityId&quot;:&quot;4257&quot;,&quot;token&quot;:&quot;l:1&quot;,&quot;signature&quot;:&quot;l:1&quot;,&quot;imageName&quot;:&quot;page-094.jpg&quot;,&quot;imageId&quot;:94,&quot;bounds&quot;:{&quot;x&quot;:1135,&quot;y&quot;:2455,&quot;w&quot;:61,&quot;h&quot;:51},&quot;atoms&quot;:[{&quot;id&quot;:4257,&quot;token&quot;:&quot;l:1&quot;,&quot;particle_id&quot;:&quot;img94-m42-p3&quot;,&quot;molecule_id&quot;:&quot;img94-m42&quot;,&quot;atom_order&quot;:1}]}</metadata>
  <rect x="0" y="0" width="61" height="51" fill="#f8f0d8"/>

  <rect x="0.5" y="0.5" width="60" height="50" fill="none" stroke="#111827" stroke-width="1" opacity="0.35"/>
  <polyline points="16,18 17,19 18,20 18,21 18,22 19,22 19,23 19,24 20,24 20,25 20,26 21,26 21,27 22,27 22,28 23,29 24,30 24,31 25,31 25,32 25,33 26,33 26,34 27,34 27,35 28,35 29,34 30,34 31,33 32,33 32,32 33,32 33,31 34,30 35,29 36,28 36,27 37,27 37,26 38,25 39,25 39,24 40,24 40,23 41,22 41,21 42,21 42,20 43,20 43,19 44,19 44,18 44,17 45,17 45,16" fill="none" stroke="#ff5f1f" stroke-width="3" stroke-linecap="round" stroke-linejoin="round" opacity="0.95">
    <title>4257 l:1</title>
  </polyline>
</svg>
