<?xml version="1.0" encoding="UTF-8"?>
<svg xmlns="http://www.w3.org/2000/svg" width="66" height="55" viewBox="0 0 66 55">
  <title>atom 5411 l:1</title>
  <metadata>{&quot;entityType&quot;:&quot;atom&quot;,&quot;entityId&quot;:&quot;5411&quot;,&quot;token&quot;:&quot;l:1&quot;,&quot;signature&quot;:&quot;l:1&quot;,&quot;imageName&quot;:&quot;page-004.jpg&quot;,&quot;imageId&quot;:4,&quot;bounds&quot;:{&quot;x&quot;:944,&quot;y&quot;:2117,&quot;w&quot;:66,&quot;h&quot;:55},&quot;atoms&quot;:[{&quot;id&quot;:5411,&quot;token&quot;:&quot;l:1&quot;,&quot;particle_id&quot;:&quot;img4-m23-p3&quot;,&quot;molecule_id&quot;:&quot;img4-m23&quot;,&quot;atom_order&quot;:1}]}</metadata>
  <rect x="0" y="0" width="66" height="55" fill="#f8f0d8"/>
  
  <rect x="0.5" y="0.5" width="65" height="54" fill="none" stroke="#111827" stroke-width="1" opacity="0.35"/>
  <polyline points="16,16 16,17 16,18 17,18 18,19 18,20 19,20 19,21 20,22 21,22 21,23 22,24 22,25 23,26 23,27 24,27 24,28 24,29 25,29 25,30 26,30 26,31 26,32 27,32 27,33 28,33 28,34 29,34 29,35 30,35 30,36 31,36 31,37 32,37 32,38 33,38 33,39 34,38 35,38 35,37 36,37 37,36 38,36 38,35 39,35 39,34 40,34 41,33 42,32 43,32 43,31 44,31 44,30 45,30 45,29 46,29 46,28 46,27 47,27 47,26 48,26 48,25 49,25 49,24 50,24 50,23" fill="none" stroke="#ff5f1f" stroke-width="3" stroke-linecap="round" stroke-linejoin="round" opacity="0.95">
    <title>5411 l:1</title>
  </polyline>
</svg>
