<?xml version="1.0" encoding="UTF-8"?>
<svg xmlns="http://www.w3.org/2000/svg" width="62" height="50" viewBox="0 0 62 50">
  <title>atom 5412 l:1</title>
  <metadata>{&quot;entityType&quot;:&quot;atom&quot;,&quot;entityId&quot;:&quot;5412&quot;,&quot;token&quot;:&quot;l:1&quot;,&quot;signature&quot;:&quot;l:1&quot;,&quot;imageName&quot;:&quot;page-004.jpg&quot;,&quot;imageId&quot;:4,&quot;bounds&quot;:{&quot;x&quot;:1008,&quot;y&quot;:2341,&quot;w&quot;:62,&quot;h&quot;:50},&quot;atoms&quot;:[{&quot;id&quot;:5412,&quot;token&quot;:&quot;l:1&quot;,&quot;particle_id&quot;:&quot;img4-m34-p3&quot;,&quot;molecule_id&quot;:&quot;img4-m34&quot;,&quot;atom_order&quot;:1}]}</metadata>
  <rect x="0" y="0" width="62" height="50" fill="#f8f0d8"/>
  
  <rect x="0.5" y="0.5" width="61" height="49" fill="none" stroke="#111827" stroke-width="1" opacity="0.35"/>
  <polyline points="16,16 17,16 17,17 18,17 18,18 18,19 19,19 19,20 19,21 20,22 20,23 21,23 21,24 21,25 22,25 22,26 23,27 23,28 24,29 24,30 25,30 25,31 26,32 26,33 26,34 27,34 28,34 29,33 30,33 31,32 31,31 32,30 33,30 34,30 34,29 35,29 36,28 37,27 38,27 38,26 39,26 40,26 40,25 41,25 42,25 42,24 43,24 43,23 44,23 44,22 45,22 46,22" fill="none" stroke="#ff5f1f" stroke-width="3" stroke-linecap="round" stroke-linejoin="round" opacity="0.95">
    <title>5412 l:1</title>
  </polyline>
</svg>
