<?xml version="1.0" encoding="UTF-8"?>
<svg xmlns="http://www.w3.org/2000/svg" width="51" height="51" viewBox="0 0 51 51">
  <title>atom 6225 l:1</title>
  <metadata>{&quot;entityType&quot;:&quot;atom&quot;,&quot;entityId&quot;:&quot;6225&quot;,&quot;token&quot;:&quot;l:1&quot;,&quot;signature&quot;:&quot;l:1&quot;,&quot;imageName&quot;:&quot;page-005.jpg&quot;,&quot;imageId&quot;:5,&quot;bounds&quot;:{&quot;x&quot;:514,&quot;y&quot;:758,&quot;w&quot;:51,&quot;h&quot;:51},&quot;atoms&quot;:[{&quot;id&quot;:6225,&quot;token&quot;:&quot;l:1&quot;,&quot;particle_id&quot;:&quot;img5-m24-p2&quot;,&quot;molecule_id&quot;:&quot;img5-m24&quot;,&quot;atom_order&quot;:1}]}</metadata>
  <rect x="0" y="0" width="51" height="51" fill="#f8f0d8"/>
  
  <rect x="0.5" y="0.5" width="50" height="50" fill="none" stroke="#111827" stroke-width="1" opacity="0.35"/>
  <polyline points="16,16 16,17 16,18 17,19 17,20 18,21 19,22 19,23 20,25 21,26 22,27 23,28 23,29 24,30 24,31 24,32 25,32 25,33 25,34 26,34 26,35 27,34 27,33 28,32 28,31 29,30 29,29 30,28 30,27 31,26 31,25 32,24 32,23 32,22 33,22 33,21 33,20 34,19 34,18 34,17 35,17 35,16" fill="none" stroke="#ff5f1f" stroke-width="3" stroke-linecap="round" stroke-linejoin="round" opacity="0.95">
    <title>6225 l:1</title>
  </polyline>
</svg>
