<?xml version="1.0" encoding="UTF-8"?>
<svg xmlns="http://www.w3.org/2000/svg" width="65" height="52" viewBox="0 0 65 52">
  <title>atom 6282 l:1</title>
  <metadata>{&quot;entityType&quot;:&quot;atom&quot;,&quot;entityId&quot;:&quot;6282&quot;,&quot;token&quot;:&quot;l:1&quot;,&quot;signature&quot;:&quot;l:1&quot;,&quot;imageName&quot;:&quot;page-005.jpg&quot;,&quot;imageId&quot;:5,&quot;bounds&quot;:{&quot;x&quot;:682,&quot;y&quot;:893,&quot;w&quot;:65,&quot;h&quot;:52},&quot;atoms&quot;:[{&quot;id&quot;:6282,&quot;token&quot;:&quot;l:1&quot;,&quot;particle_id&quot;:&quot;img5-m36-p3&quot;,&quot;molecule_id&quot;:&quot;img5-m36&quot;,&quot;atom_order&quot;:1}]}</metadata>
  <rect x="0" y="0" width="65" height="52" fill="#f8f0d8"/>

  <rect x="0.5" y="0.5" width="64" height="51" fill="none" stroke="#111827" stroke-width="1" opacity="0.35"/>
  <polyline points="16,16 16,17 17,17 17,18 18,18 18,19 19,19 19,20 19,21 20,21 20,22 20,23 20,24 21,24 21,25 21,26 22,26 22,27 22,28 23,29 24,30 24,31 25,32 26,33 26,34 27,34 27,35 28,36 29,36 30,36 31,36 31,35 32,35 33,35 34,34 35,33 36,32 37,32 37,31 38,31 38,30 39,29 40,29 40,28 41,28 41,27 42,27 42,26 43,26 43,25 44,25 44,24 45,24 45,23 46,23 46,22 47,22 47,21 48,21 48,20 49,20" fill="none" stroke="#ff5f1f" stroke-width="3" stroke-linecap="round" stroke-linejoin="round" opacity="0.95">
    <title>6282 l:1</title>
  </polyline>
</svg>
