<?xml version="1.0" encoding="UTF-8"?>
<svg xmlns="http://www.w3.org/2000/svg" width="57" height="52" viewBox="0 0 57 52">
  <title>atom 6507 l:1</title>
  <metadata>{&quot;entityType&quot;:&quot;atom&quot;,&quot;entityId&quot;:&quot;6507&quot;,&quot;token&quot;:&quot;l:1&quot;,&quot;signature&quot;:&quot;l:1&quot;,&quot;imageName&quot;:&quot;page-005.jpg&quot;,&quot;imageId&quot;:5,&quot;bounds&quot;:{&quot;x&quot;:2290,&quot;y&quot;:2589,&quot;w&quot;:57,&quot;h&quot;:52},&quot;atoms&quot;:[{&quot;id&quot;:6507,&quot;token&quot;:&quot;l:1&quot;,&quot;particle_id&quot;:&quot;img5-m68-p4&quot;,&quot;molecule_id&quot;:&quot;img5-m68&quot;,&quot;atom_order&quot;:1}]}</metadata>
  <rect x="0" y="0" width="57" height="52" fill="#f8f0d8"/>

  <rect x="0.5" y="0.5" width="56" height="51" fill="none" stroke="#111827" stroke-width="1" opacity="0.35"/>
  <polyline points="16,19 17,20 18,21 18,22 19,22 19,23 20,23 20,24 21,25 21,26 21,27 22,27 22,28 22,29 23,29 23,30 23,31 24,32 24,33 25,33 25,34 25,35 26,35 26,36 27,36 28,36 28,35 29,35 29,34 29,33 30,33 30,32 31,31 31,30 32,29 32,28 33,28 33,27 34,27 34,26 35,25 35,24 36,24 36,23 37,23 37,22 37,21 38,21 38,20 39,19 39,18 40,18 40,17 41,17 41,16" fill="none" stroke="#ff5f1f" stroke-width="3" stroke-linecap="round" stroke-linejoin="round" opacity="0.95">
    <title>6507 l:1</title>
  </polyline>
</svg>
