<?xml version="1.0" encoding="UTF-8"?>
<svg xmlns="http://www.w3.org/2000/svg" width="62" height="55" viewBox="0 0 62 55">
  <title>atom 6657 l:1</title>
  <metadata>{&quot;entityType&quot;:&quot;atom&quot;,&quot;entityId&quot;:&quot;6657&quot;,&quot;token&quot;:&quot;l:1&quot;,&quot;signature&quot;:&quot;l:1&quot;,&quot;imageName&quot;:&quot;page-006.jpg&quot;,&quot;imageId&quot;:6,&quot;bounds&quot;:{&quot;x&quot;:1600,&quot;y&quot;:709,&quot;w&quot;:62,&quot;h&quot;:55},&quot;atoms&quot;:[{&quot;id&quot;:6657,&quot;token&quot;:&quot;l:1&quot;,&quot;particle_id&quot;:&quot;img6-m6-p8&quot;,&quot;molecule_id&quot;:&quot;img6-m6&quot;,&quot;atom_order&quot;:1}]}</metadata>
  <rect x="0" y="0" width="62" height="55" fill="#f8f0d8"/>

  <rect x="0.5" y="0.5" width="61" height="54" fill="none" stroke="#111827" stroke-width="1" opacity="0.35"/>
  <polyline points="16,16 16,17 17,17 17,18 17,19 18,19 18,20 18,21 19,21 19,22 19,23 20,24 20,25 21,25 21,26 21,27 22,27 22,28 22,29 23,29 23,30 23,31 24,32 24,33 25,33 25,34 25,35 26,35 26,36 26,37 27,38 27,39 28,39 28,38 29,38 29,37 30,36 31,36 31,35 32,35 33,34 34,33 35,33 36,32 37,31 38,31 38,30 39,30 39,29 40,29 40,28 41,28 42,27 43,26 44,25 44,24 45,24 46,24" fill="none" stroke="#ff5f1f" stroke-width="3" stroke-linecap="round" stroke-linejoin="round" opacity="0.95">
    <title>6657 l:1</title>
  </polyline>
</svg>
