<?xml version="1.0" encoding="UTF-8"?>
<svg xmlns="http://www.w3.org/2000/svg" width="58" height="52" viewBox="0 0 58 52">
  <title>atom 6765 l:1</title>
  <metadata>{&quot;entityType&quot;:&quot;atom&quot;,&quot;entityId&quot;:&quot;6765&quot;,&quot;token&quot;:&quot;l:1&quot;,&quot;signature&quot;:&quot;l:1&quot;,&quot;imageName&quot;:&quot;page-006.jpg&quot;,&quot;imageId&quot;:6,&quot;bounds&quot;:{&quot;x&quot;:1026,&quot;y&quot;:2231,&quot;w&quot;:58,&quot;h&quot;:52},&quot;atoms&quot;:[{&quot;id&quot;:6765,&quot;token&quot;:&quot;l:1&quot;,&quot;particle_id&quot;:&quot;img6-m28-p2&quot;,&quot;molecule_id&quot;:&quot;img6-m28&quot;,&quot;atom_order&quot;:2}]}</metadata>
  <rect x="0" y="0" width="58" height="52" fill="#f8f0d8"/>

  <rect x="0.5" y="0.5" width="57" height="51" fill="none" stroke="#111827" stroke-width="1" opacity="0.35"/>
  <polyline points="16,16 16,17 16,18 17,18 17,19 17,20 17,21 18,21 18,22 18,23 19,24 20,25 20,26 21,28 21,29 22,29 22,30 22,31 23,31 23,32 23,33 24,33 24,34 25,35 25,36 25,35 26,35 26,34 27,34 27,33 28,33 28,32 29,32 29,31 30,31 30,30 31,30 31,29 32,29 32,28 33,28 33,27 34,27 34,26 35,26 35,25 36,24 37,23 38,22 39,21 40,21 40,20 41,20 41,19 42,19" fill="none" stroke="#ff5f1f" stroke-width="3" stroke-linecap="round" stroke-linejoin="round" opacity="0.95">
    <title>6765 l:1</title>
  </polyline>
</svg>
