<?xml version="1.0" encoding="UTF-8"?>
<svg xmlns="http://www.w3.org/2000/svg" width="54" height="51" viewBox="0 0 54 51">
  <title>atom 7526 l:1</title>
  <metadata>{&quot;entityType&quot;:&quot;atom&quot;,&quot;entityId&quot;:&quot;7526&quot;,&quot;token&quot;:&quot;l:1&quot;,&quot;signature&quot;:&quot;l:1&quot;,&quot;imageName&quot;:&quot;page-007.jpg&quot;,&quot;imageId&quot;:7,&quot;bounds&quot;:{&quot;x&quot;:1229,&quot;y&quot;:571,&quot;w&quot;:54,&quot;h&quot;:51},&quot;atoms&quot;:[{&quot;id&quot;:7526,&quot;token&quot;:&quot;l:1&quot;,&quot;particle_id&quot;:&quot;img7-m3-p3&quot;,&quot;molecule_id&quot;:&quot;img7-m3&quot;,&quot;atom_order&quot;:1}]}</metadata>
  <rect x="0" y="0" width="54" height="51" fill="#f8f0d8"/>

  <rect x="0.5" y="0.5" width="53" height="50" fill="none" stroke="#111827" stroke-width="1" opacity="0.35"/>
  <polyline points="16,16 16,17 17,17 17,18 18,19 18,20 19,21 19,22 20,23 21,24 21,25 22,25 22,26 22,27 23,27 23,28 23,29 23,30 23,31 24,31 24,32 24,33 24,34 24,35 25,35 26,34 27,33 28,32 28,31 29,31 29,30 30,30 30,29 31,29 31,28 32,28 32,27 33,26 33,25 34,25 34,24 35,24 35,23 36,23 36,22 37,22 37,21 38,21" fill="none" stroke="#ff5f1f" stroke-width="3" stroke-linecap="round" stroke-linejoin="round" opacity="0.95">
    <title>7526 l:1</title>
  </polyline>
</svg>
