<?xml version="1.0" encoding="UTF-8"?>
<svg xmlns="http://www.w3.org/2000/svg" width="59" height="52" viewBox="0 0 59 52">
  <title>atom 7756 l:1</title>
  <metadata>{&quot;entityType&quot;:&quot;atom&quot;,&quot;entityId&quot;:&quot;7756&quot;,&quot;token&quot;:&quot;l:1&quot;,&quot;signature&quot;:&quot;l:1&quot;,&quot;imageName&quot;:&quot;page-007.jpg&quot;,&quot;imageId&quot;:7,&quot;bounds&quot;:{&quot;x&quot;:664,&quot;y&quot;:1893,&quot;w&quot;:59,&quot;h&quot;:52},&quot;atoms&quot;:[{&quot;id&quot;:7756,&quot;token&quot;:&quot;l:1&quot;,&quot;particle_id&quot;:&quot;img7-m64-p4&quot;,&quot;molecule_id&quot;:&quot;img7-m64&quot;,&quot;atom_order&quot;:1}]}</metadata>
  <rect x="0" y="0" width="59" height="52" fill="#f8f0d8"/>

  <rect x="0.5" y="0.5" width="58" height="51" fill="none" stroke="#111827" stroke-width="1" opacity="0.35"/>
  <polyline points="16,16 17,16 17,17 18,18 19,19 19,20 20,21 21,22 21,23 22,24 22,25 23,25 23,26 24,26 24,27 25,28 25,29 26,29 26,30 26,31 27,31 27,32 27,33 28,33 28,34 29,35 29,36 30,36 31,36 32,35 33,34 34,33 34,32 35,31 36,30 37,29 37,28 38,28 38,27 38,26 39,26 39,25 40,25 40,24 40,23 41,22 41,21 42,21 42,20 42,19 43,19" fill="none" stroke="#ff5f1f" stroke-width="3" stroke-linecap="round" stroke-linejoin="round" opacity="0.95">
    <title>7756 l:1</title>
  </polyline>
</svg>
