<?xml version="1.0" encoding="UTF-8"?>
<svg xmlns="http://www.w3.org/2000/svg" width="46" height="66" viewBox="0 0 46 66">
  <title>h:2 distant-variant atom 1764</title>
  <rect x="0" y="0" width="46" height="66" fill="#17181b"/>
  <rect x="0.5" y="0.5" width="45" height="65" fill="none" stroke="#111827" stroke-width="1" opacity="0.35"/>
<polyline points="16,16 16,17 16,18 16,19 16,20 17,20 17,21 17,22 18,22 18,23 19,23 19,24 20,25 21,25 21,26 22,26 22,27 23,27 24,27 24,28 25,28 25,29 26,29 26,30 26,31 27,31 27,32 27,33 28,33 28,34 29,34 29,35 29,36 30,36 30,37 30,38 30,39 30,40 30,41 30,42 30,43 30,44 30,45 30,46 29,46 29,47 29,48 28,48 27,48 27,49 26,49 25,49 25,50 24,50 23,50 22,50 21,50 20,50" fill="none" stroke="#ff8c00" stroke-width="3" stroke-linecap="round" stroke-linejoin="round" opacity="0.95">
    <title>1764 h:2</title>
  </polyline>
</svg>
