<?xml version="1.0" encoding="UTF-8"?>
<svg xmlns="http://www.w3.org/2000/svg" width="45" height="67" viewBox="0 0 45 67">
  <title>h:2 closest-to-family-average atom 6077</title>
  <rect x="0" y="0" width="45" height="67" fill="#17181b"/>
  <rect x="0.5" y="0.5" width="44" height="66" fill="none" stroke="#111827" stroke-width="1" opacity="0.35"/>
<polyline points="22,51 22,50 23,50 24,50 24,49 25,49 25,48 26,48 27,47 28,46 28,45 29,44 29,43 29,42 29,41 29,40 28,39 27,38 26,37 26,36 25,36 25,35 24,34 23,34 23,33 22,33 21,32 21,31 20,31 20,30 19,30 19,29 18,28 18,27 17,26 17,25 16,25 16,24 16,23 16,22 16,21 16,20 16,19 16,18 17,17 18,16 19,16 20,16" fill="none" stroke="#ff8c00" stroke-width="3" stroke-linecap="round" stroke-linejoin="round" opacity="0.95">
    <title>6077 h:2</title>
  </polyline>
</svg>
