<?xml version="1.0" encoding="UTF-8"?>
<svg xmlns="http://www.w3.org/2000/svg" width="43" height="68" viewBox="0 0 43 68">
  <title>h:2 distant-variant atom 5317</title>
  <rect x="0" y="0" width="43" height="68" fill="#17181b"/>
  <rect x="0.5" y="0.5" width="42" height="67" fill="none" stroke="#111827" stroke-width="1" opacity="0.35"/>
<polyline points="21,16 20,16 19,16 19,17 18,17 18,18 18,19 17,19 17,20 16,20 16,21 16,22 16,23 16,24 16,25 16,26 17,26 17,27 18,28 19,29 19,30 20,31 21,32 22,32 23,33 23,34 24,35 25,36 25,37 26,37 26,38 26,39 26,40 26,41 27,42 27,43 27,44 26,45 26,46 25,47 25,48 24,49 24,50 23,50 23,51 22,51 21,52 20,52 19,52 18,52" fill="none" stroke="#ff8c00" stroke-width="3" stroke-linecap="round" stroke-linejoin="round" opacity="0.95">
    <title>5317 h:2</title>
  </polyline>
</svg>
