<?xml version="1.0" encoding="UTF-8"?>
<svg xmlns="http://www.w3.org/2000/svg" width="71" height="51" viewBox="0 0 71 51">
  <title>atom 6217 k:1</title>
  <metadata>{&quot;entityType&quot;:&quot;atom&quot;,&quot;entityId&quot;:&quot;6217&quot;,&quot;token&quot;:&quot;k:1&quot;,&quot;signature&quot;:&quot;k:1&quot;,&quot;imageName&quot;:&quot;page-005.jpg&quot;,&quot;imageId&quot;:5,&quot;bounds&quot;:{&quot;x&quot;:932,&quot;y&quot;:509,&quot;w&quot;:71,&quot;h&quot;:51},&quot;atoms&quot;:[{&quot;id&quot;:6217,&quot;token&quot;:&quot;k:1&quot;,&quot;particle_id&quot;:&quot;img5-m5-p3&quot;,&quot;molecule_id&quot;:&quot;img5-m5&quot;,&quot;atom_order&quot;:1}]}</metadata>
  <rect x="0" y="0" width="71" height="51" fill="#f8f0d8"/>
  <image href="file:///C:/Users/HHHES/AppData/Roaming/com.voynichlab.datasetcreator/images/1/a6cd3b6e-2a78-4b30-a4be-5d186aea258e.jpg" x="-932" y="-509" width="2691" height="3770" opacity="0.92"/>
  <rect x="0.5" y="0.5" width="70" height="50" fill="none" stroke="#111827" stroke-width="1" opacity="0.35"/>
  <polyline points="16,17 16,18 17,19 17,20 17,21 17,22 18,23 18,24 19,25 19,26 20,27 21,28 21,29 22,29 23,30 23,31 24,31 25,32 25,33 26,33 27,33 27,34 27,35 28,35 28,34 29,33 30,32 30,31 31,30 31,29 31,28 32,28 33,27 33,26 34,25 35,24 35,23 36,22 37,21 37,20 37,19 37,20 38,21 38,22 38,23 39,23 39,24 39,25 40,26 40,27 41,27 41,28 41,29 42,29 42,30 43,31 43,32 43,33 44,33 45,33 45,32 45,31 46,30 46,29 47,29 47,28 47,27 48,27 48,26 49,25 49,24 50,24 50,23 51,22 52,21 53,20 53,19 54,19 54,18 54,17 55,17 55,16" fill="none" stroke="#ffffff" stroke-width="3" stroke-linecap="round" stroke-linejoin="round" opacity="0.95">
    <title>6217 k:1</title>
  </polyline>
</svg>
