<?xml version="1.0" encoding="UTF-8"?>
<svg xmlns="http://www.w3.org/2000/svg" width="78" height="53" viewBox="0 0 78 53">
  <title>atom 6220 k:1</title>
  <metadata>{&quot;entityType&quot;:&quot;atom&quot;,&quot;entityId&quot;:&quot;6220&quot;,&quot;token&quot;:&quot;k:1&quot;,&quot;signature&quot;:&quot;k:1&quot;,&quot;imageName&quot;:&quot;page-005.jpg&quot;,&quot;imageId&quot;:5,&quot;bounds&quot;:{&quot;x&quot;:1959,&quot;y&quot;:678,&quot;w&quot;:78,&quot;h&quot;:53},&quot;atoms&quot;:[{&quot;id&quot;:6220,&quot;token&quot;:&quot;k:1&quot;,&quot;particle_id&quot;:&quot;img5-m20-p3&quot;,&quot;molecule_id&quot;:&quot;img5-m20&quot;,&quot;atom_order&quot;:1}]}</metadata>
  <rect x="0" y="0" width="78" height="53" fill="#f8f0d8"/>
  <image href="file:///C:/Users/HHHES/AppData/Roaming/com.voynichlab.datasetcreator/images/1/a6cd3b6e-2a78-4b30-a4be-5d186aea258e.jpg" x="-1959" y="-678" width="2691" height="3770" opacity="0.92"/>
  <rect x="0.5" y="0.5" width="77" height="52" fill="none" stroke="#111827" stroke-width="1" opacity="0.35"/>
  <polyline points="16,16 16,17 17,17 18,18 18,19 19,20 20,22 21,23 22,24 23,25 23,26 24,27 25,28 25,29 26,30 26,31 27,32 27,33 27,34 28,35 28,36 28,37 29,36 29,35 29,34 30,33 30,32 31,31 31,30 32,29 32,28 32,27 33,26 33,25 34,24 35,23 35,22 36,21 36,20 36,19 37,18 37,17 37,18 38,19 38,20 38,21 39,22 39,23 40,24 41,25 42,26 42,27 42,28 43,28 43,29 43,30 44,31 45,32 45,33 46,33 47,33 47,32 48,32 49,31 50,30 51,29 52,29 53,28 54,27 55,26 55,25 56,25 56,24 57,24 57,23 58,23 58,22 59,22 59,21 60,20 61,19 62,19 62,18" fill="none" stroke="#ffffff" stroke-width="3" stroke-linecap="round" stroke-linejoin="round" opacity="0.95">
    <title>6220 k:1</title>
  </polyline>
</svg>
