<?xml version="1.0" encoding="UTF-8"?>
<svg xmlns="http://www.w3.org/2000/svg" width="76" height="55" viewBox="0 0 76 55">
  <title>atom 6234 k:1</title>
  <metadata>{&quot;entityType&quot;:&quot;atom&quot;,&quot;entityId&quot;:&quot;6234&quot;,&quot;token&quot;:&quot;k:1&quot;,&quot;signature&quot;:&quot;k:1&quot;,&quot;imageName&quot;:&quot;page-005.jpg&quot;,&quot;imageId&quot;:5,&quot;bounds&quot;:{&quot;x&quot;:2188,&quot;y&quot;:2509,&quot;w&quot;:76,&quot;h&quot;:55},&quot;atoms&quot;:[{&quot;id&quot;:6234,&quot;token&quot;:&quot;k:1&quot;,&quot;particle_id&quot;:&quot;img5-m58-p3&quot;,&quot;molecule_id&quot;:&quot;img5-m58&quot;,&quot;atom_order&quot;:1}]}</metadata>
  <rect x="0" y="0" width="76" height="55" fill="#f8f0d8"/>
  <image href="file:///C:/Users/HHHES/AppData/Roaming/com.voynichlab.datasetcreator/images/1/a6cd3b6e-2a78-4b30-a4be-5d186aea258e.jpg" x="-2188" y="-2509" width="2691" height="3770" opacity="0.92"/>
  <rect x="0.5" y="0.5" width="75" height="54" fill="none" stroke="#111827" stroke-width="1" opacity="0.35"/>
  <polyline points="16,18 16,19 17,20 18,21 18,22 19,23 19,25 20,26 21,27 21,28 22,29 22,30 23,30 23,31 24,32 24,33 25,33 25,34 26,35 26,36 27,37 27,38 28,38 28,39 29,39 29,38 30,37 31,37 32,36 32,35 33,35 33,34 34,33 34,32 35,32 35,31 36,30 36,29 37,28 37,27 38,27 38,26 39,25 39,24 40,24 40,23 41,23 42,23 42,24 43,25 43,26 44,26 44,27 44,28 45,29 46,30 46,31 47,31 47,32 47,33 48,33 48,34 48,35 49,35 49,36 50,36 50,37 51,37 52,37 52,36 53,35 53,34 54,34 54,33 54,32 54,31 54,30 55,30 55,29 55,28 55,27 55,26 56,26 56,25 56,24 57,23 57,22 58,21 58,20 59,19 59,18 60,18 60,17 60,16" fill="none" stroke="#ffffff" stroke-width="3" stroke-linecap="round" stroke-linejoin="round" opacity="0.95">
    <title>6234 k:1</title>
  </polyline>
</svg>
