<?xml version="1.0" encoding="UTF-8"?>
<svg xmlns="http://www.w3.org/2000/svg" width="77" height="54" viewBox="0 0 77 54">
  <title>atom 6236 k:1</title>
  <metadata>{&quot;entityType&quot;:&quot;atom&quot;,&quot;entityId&quot;:&quot;6236&quot;,&quot;token&quot;:&quot;k:1&quot;,&quot;signature&quot;:&quot;k:1&quot;,&quot;imageName&quot;:&quot;page-005.jpg&quot;,&quot;imageId&quot;:5,&quot;bounds&quot;:{&quot;x&quot;:1371,&quot;y&quot;:2647,&quot;w&quot;:77,&quot;h&quot;:54},&quot;atoms&quot;:[{&quot;id&quot;:6236,&quot;token&quot;:&quot;k:1&quot;,&quot;particle_id&quot;:&quot;img5-m74-p3&quot;,&quot;molecule_id&quot;:&quot;img5-m74&quot;,&quot;atom_order&quot;:1}]}</metadata>
  <rect x="0" y="0" width="77" height="54" fill="#f8f0d8"/>
  <image href="file:///C:/Users/HHHES/AppData/Roaming/com.voynichlab.datasetcreator/images/1/a6cd3b6e-2a78-4b30-a4be-5d186aea258e.jpg" x="-1371" y="-2647" width="2691" height="3770" opacity="0.92"/>
  <rect x="0.5" y="0.5" width="76" height="53" fill="none" stroke="#111827" stroke-width="1" opacity="0.35"/>
  <polyline points="16,16 17,17 17,18 18,19 19,21 20,23 20,24 21,25 21,26 22,27 23,28 23,29 24,30 24,31 25,32 25,33 26,34 26,35 27,35 27,34 28,34 29,32 30,31 30,30 31,30 31,29 32,28 33,27 33,26 34,25 34,24 35,23 35,22 36,22 36,21 37,20 38,19 38,18 39,18 39,17 40,17 40,18 41,19 41,20 42,22 43,23 44,24 44,26 45,27 46,28 46,29 47,30 47,31 48,32 49,33 50,34 50,35 51,35 51,36 52,36 52,37 53,38 54,37 54,36 55,36 55,35 56,34 56,33 56,32 57,31 57,30 58,29 59,27 60,27 60,26 60,25 61,25 61,24 61,23 61,22 61,21" fill="none" stroke="#ffffff" stroke-width="3" stroke-linecap="round" stroke-linejoin="round" opacity="0.95">
    <title>6236 k:1</title>
  </polyline>
</svg>
