<?xml version="1.0" encoding="UTF-8"?>
<svg xmlns="http://www.w3.org/2000/svg" width="89" height="53" viewBox="0 0 89 53">
  <title>atom 6239 k:1</title>
  <metadata>{&quot;entityType&quot;:&quot;atom&quot;,&quot;entityId&quot;:&quot;6239&quot;,&quot;token&quot;:&quot;k:1&quot;,&quot;signature&quot;:&quot;k:1&quot;,&quot;imageName&quot;:&quot;page-005.jpg&quot;,&quot;imageId&quot;:5,&quot;bounds&quot;:{&quot;x&quot;:1798,&quot;y&quot;:2706,&quot;w&quot;:89,&quot;h&quot;:53},&quot;atoms&quot;:[{&quot;id&quot;:6239,&quot;token&quot;:&quot;k:1&quot;,&quot;particle_id&quot;:&quot;img5-m86-p5&quot;,&quot;molecule_id&quot;:&quot;img5-m86&quot;,&quot;atom_order&quot;:1}]}</metadata>
  <rect x="0" y="0" width="89" height="53" fill="#f8f0d8"/>
  <image href="file:///C:/Users/HHHES/AppData/Roaming/com.voynichlab.datasetcreator/images/1/a6cd3b6e-2a78-4b30-a4be-5d186aea258e.jpg" x="-1798" y="-2706" width="2691" height="3770" opacity="0.92"/>
  <rect x="0.5" y="0.5" width="88" height="52" fill="none" stroke="#111827" stroke-width="1" opacity="0.35"/>
  <polyline points="16,17 17,17 17,18 18,19 18,20 19,21 20,22 20,24 21,25 21,26 22,27 22,28 23,29 24,30 24,31 25,32 26,33 27,34 28,35 28,36 29,37 29,36 30,35 31,34 32,32 33,30 34,29 35,28 36,27 36,26 37,25 38,24 39,23 40,22 41,21 42,20 42,19 43,19 43,20 44,22 45,24 45,25 45,26 46,27 47,28 48,28 49,29 50,30 50,31 51,32 52,33 52,34 53,35 54,35 55,36 55,37 56,37 57,36 57,35 58,35 58,34 59,33 59,32 59,31 60,30 61,29 62,28 62,27 63,26 64,26 64,24 65,24 66,23 67,23 67,22 68,22 68,21 68,20 69,20 69,19 70,19 70,18 71,18 71,17 72,16 73,16" fill="none" stroke="#ffffff" stroke-width="3" stroke-linecap="round" stroke-linejoin="round" opacity="0.95">
    <title>6239 k:1</title>
  </polyline>
</svg>
