<?xml version="1.0" encoding="UTF-8"?>
<svg xmlns="http://www.w3.org/2000/svg" width="76" height="53" viewBox="0 0 76 53">
  <title>atom 6240 k:1</title>
  <metadata>{&quot;entityType&quot;:&quot;atom&quot;,&quot;entityId&quot;:&quot;6240&quot;,&quot;token&quot;:&quot;k:1&quot;,&quot;signature&quot;:&quot;k:1&quot;,&quot;imageName&quot;:&quot;page-005.jpg&quot;,&quot;imageId&quot;:5,&quot;bounds&quot;:{&quot;x&quot;:1706,&quot;y&quot;:2790,&quot;w&quot;:76,&quot;h&quot;:53},&quot;atoms&quot;:[{&quot;id&quot;:6240,&quot;token&quot;:&quot;k:1&quot;,&quot;particle_id&quot;:&quot;img5-m91-p3&quot;,&quot;molecule_id&quot;:&quot;img5-m91&quot;,&quot;atom_order&quot;:1}]}</metadata>
  <rect x="0" y="0" width="76" height="53" fill="#f8f0d8"/>
  <image href="file:///C:/Users/HHHES/AppData/Roaming/com.voynichlab.datasetcreator/images/1/a6cd3b6e-2a78-4b30-a4be-5d186aea258e.jpg" x="-1706" y="-2790" width="2691" height="3770" opacity="0.92"/>
  <rect x="0.5" y="0.5" width="75" height="52" fill="none" stroke="#111827" stroke-width="1" opacity="0.35"/>
  <polyline points="16,16 17,17 17,18 18,18 19,19 20,20 20,21 21,22 22,23 23,25 24,26 24,27 25,27 25,28 25,29 26,29 27,30 28,31 28,32 29,33 29,34 30,34 30,35 30,36 31,36 31,37 31,36 31,35 31,34 32,33 32,32 32,31 32,30 33,30 33,29 33,28 34,28 34,27 35,26 36,25 36,24 37,24 37,23 38,23 38,22 38,21 39,21 40,20 40,19 41,18 41,17 42,16 42,17 42,18 42,19 42,20 42,21 43,22 43,23 43,24 44,24 44,25 45,26 45,27 46,28 46,29 47,30 48,31 49,32 50,33 51,33 51,34 52,35 53,34 53,33 53,32 54,31 54,30 54,29 54,28 55,28 55,27 55,26 56,25 56,24 57,24 57,23 58,22 58,21 59,21 59,20 59,19 59,18 60,18 60,17" fill="none" stroke="#ffffff" stroke-width="3" stroke-linecap="round" stroke-linejoin="round" opacity="0.95">
    <title>6240 k:1</title>
  </polyline>
</svg>
