<?xml version="1.0" encoding="UTF-8"?>
<svg xmlns="http://www.w3.org/2000/svg" width="93" height="52" viewBox="0 0 93 52">
  <title>atom 2759 k:1</title>
  <metadata>{&quot;entityType&quot;:&quot;atom&quot;,&quot;entityId&quot;:&quot;2759&quot;,&quot;token&quot;:&quot;k:1&quot;,&quot;signature&quot;:&quot;k:1&quot;,&quot;imageName&quot;:&quot;page-094.jpg&quot;,&quot;imageId&quot;:94,&quot;bounds&quot;:{&quot;x&quot;:2129,&quot;y&quot;:663,&quot;w&quot;:93,&quot;h&quot;:52},&quot;atoms&quot;:[{&quot;id&quot;:2759,&quot;token&quot;:&quot;k:1&quot;,&quot;particle_id&quot;:&quot;img94-m11-p3&quot;,&quot;molecule_id&quot;:&quot;img94-m11&quot;,&quot;atom_order&quot;:1}]}</metadata>
  <rect x="0" y="0" width="93" height="52" fill="#f8f0d8"/>

  <rect x="0.5" y="0.5" width="92" height="51" fill="none" stroke="#111827" stroke-width="1" opacity="0.35"/>
  <polyline points="16,16 16,17 16,18 17,19 17,20 18,21 18,22 19,23 19,24 20,25 20,26 21,26 21,27 21,28 22,28 22,29 22,30 23,30 23,31 23,32 24,32 24,33 25,33 25,34 26,34 27,34 27,33 28,33 29,33 29,32 30,32 31,31 32,31 32,30 33,30 33,29 34,29 35,28 36,28 36,27 37,27 37,26 38,26 38,25 39,25 40,24 41,24 41,23 42,22 43,21 44,21 44,20 45,20 45,19 46,19 46,18 46,19 46,20 46,21 46,22 46,23 46,24 47,25 47,26 47,27 47,28 48,28 48,29 48,30 49,30 49,31 49,32 50,32 50,33 50,34 51,34 51,35 52,35 52,36 53,36 53,35 54,35 54,34 55,34 55,33 56,33 56,32 57,32 57,31 58,31 59,30 60,30 61,29 62,29 62,28 63,28 63,27 64,27 65,26 66,26 66,25 67,25 68,25 68,24 69,24 69,23 70,23 71,23 71,22 72,22 73,22 73,21 74,21 75,21 76,20 77,20" fill="none" stroke="#ffffff" stroke-width="3" stroke-linecap="round" stroke-linejoin="round" opacity="0.95">
    <title>2759 k:1</title>
  </polyline>
</svg>
