<?xml version="1.0" encoding="UTF-8"?>
<svg xmlns="http://www.w3.org/2000/svg" width="78" height="57" viewBox="0 0 78 57">
  <title>atom 2808 k:1</title>
  <metadata>{&quot;entityType&quot;:&quot;atom&quot;,&quot;entityId&quot;:&quot;2808&quot;,&quot;token&quot;:&quot;k:1&quot;,&quot;signature&quot;:&quot;k:1&quot;,&quot;imageName&quot;:&quot;page-094.jpg&quot;,&quot;imageId&quot;:94,&quot;bounds&quot;:{&quot;x&quot;:2137,&quot;y&quot;:741,&quot;w&quot;:78,&quot;h&quot;:57},&quot;atoms&quot;:[{&quot;id&quot;:2808,&quot;token&quot;:&quot;k:1&quot;,&quot;particle_id&quot;:&quot;img94-m15-p3&quot;,&quot;molecule_id&quot;:&quot;img94-m15&quot;,&quot;atom_order&quot;:1}]}</metadata>
  <rect x="0" y="0" width="78" height="57" fill="#f8f0d8"/>

  <rect x="0.5" y="0.5" width="77" height="56" fill="none" stroke="#111827" stroke-width="1" opacity="0.35"/>
  <polyline points="16,16 16,17 16,18 17,18 17,19 17,20 18,20 18,21 18,22 18,23 19,23 19,24 19,25 20,25 20,26 20,27 20,28 21,28 21,29 22,30 22,31 23,32 23,33 23,34 24,35 24,36 25,37 25,38 26,38 26,39 26,38 27,38 27,37 28,36 29,35 30,34 30,33 31,33 31,32 32,32 32,31 32,30 33,30 33,29 33,28 34,28 34,27 34,26 35,26 35,25 36,25 36,24 36,23 37,23 37,22 37,21 38,21 38,20 38,21 38,22 38,23 38,24 38,25 38,26 39,27 39,28 40,28 40,29 40,30 41,31 41,32 42,32 42,33 43,33 43,34 43,35 44,35 44,36 44,37 45,37 45,38 46,38 46,39 47,39 47,40 48,40 48,41 49,41 49,40 50,40 50,39 51,38 52,37 53,37 53,36 53,35 54,35 54,34 55,34 55,33 56,33 56,32 57,31 57,30 58,30 59,29 60,28 60,27 61,27 61,26 61,25 62,25" fill="none" stroke="#ffffff" stroke-width="3" stroke-linecap="round" stroke-linejoin="round" opacity="0.95">
    <title>2808 k:1</title>
  </polyline>
</svg>
