<?xml version="1.0" encoding="UTF-8"?>
<svg xmlns="http://www.w3.org/2000/svg" width="83" height="55" viewBox="0 0 83 55">
  <title>atom 3641 k:1</title>
  <metadata>{&quot;entityType&quot;:&quot;atom&quot;,&quot;entityId&quot;:&quot;3641&quot;,&quot;token&quot;:&quot;k:1&quot;,&quot;signature&quot;:&quot;k:1&quot;,&quot;imageName&quot;:&quot;page-003.jpg&quot;,&quot;imageId&quot;:3,&quot;bounds&quot;:{&quot;x&quot;:1198,&quot;y&quot;:2164,&quot;w&quot;:83,&quot;h&quot;:55},&quot;atoms&quot;:[{&quot;id&quot;:3641,&quot;token&quot;:&quot;k:1&quot;,&quot;particle_id&quot;:&quot;img3-m138-p4&quot;,&quot;molecule_id&quot;:&quot;img3-m138&quot;,&quot;atom_order&quot;:1}]}</metadata>
  <rect x="0" y="0" width="83" height="55" fill="#f8f0d8"/>
  
  <rect x="0.5" y="0.5" width="82" height="54" fill="none" stroke="#111827" stroke-width="1" opacity="0.35"/>
  <polyline points="16,20 16,21 17,21 17,22 17,23 18,23 18,24 18,25 19,25 19,26 20,26 20,27 21,28 22,29 23,29 23,30 23,31 24,31 24,32 25,33 25,34 25,35 26,35 26,36 27,36 28,36 29,35 30,34 31,34 31,33 32,33 32,32 33,32 33,31 34,31 34,30 35,30 36,29 36,28 37,28 38,27 39,26 39,25 40,25 40,24 41,24 41,23 42,23 42,22 43,22 44,22 44,23 44,24 45,24 45,25 46,25 46,26 46,27 47,27 47,28 48,28 48,29 49,29 49,30 50,30 50,31 51,31 51,32 52,33 52,34 53,34 53,35 54,35 54,36 55,36 55,37 56,38 56,39 57,38 57,37 58,37 58,36 58,35 59,35 59,34 59,33 59,32 60,32 60,31 61,31 61,30 61,29 62,29 62,28 62,27 63,27 63,26 63,25 63,24 64,24 64,23 64,22 64,21 65,21 65,20 65,19 65,18 66,18 66,17 66,16 67,16" fill="none" stroke="#ffffff" stroke-width="3" stroke-linecap="round" stroke-linejoin="round" opacity="0.95">
    <title>3641 k:1</title>
  </polyline>
</svg>
