<?xml version="1.0" encoding="UTF-8"?>
<svg xmlns="http://www.w3.org/2000/svg" width="75" height="52" viewBox="0 0 75 52">
  <title>atom 5413 k:1</title>
  <metadata>{&quot;entityType&quot;:&quot;atom&quot;,&quot;entityId&quot;:&quot;5413&quot;,&quot;token&quot;:&quot;k:1&quot;,&quot;signature&quot;:&quot;k:1&quot;,&quot;imageName&quot;:&quot;page-004.jpg&quot;,&quot;imageId&quot;:4,&quot;bounds&quot;:{&quot;x&quot;:2141,&quot;y&quot;:2409,&quot;w&quot;:75,&quot;h&quot;:52},&quot;atoms&quot;:[{&quot;id&quot;:5413,&quot;token&quot;:&quot;k:1&quot;,&quot;particle_id&quot;:&quot;img4-m40-p5&quot;,&quot;molecule_id&quot;:&quot;img4-m40&quot;,&quot;atom_order&quot;:1}]}</metadata>
  <rect x="0" y="0" width="75" height="52" fill="#f8f0d8"/>

  <rect x="0.5" y="0.5" width="74" height="51" fill="none" stroke="#111827" stroke-width="1" opacity="0.35"/>
  <polyline points="16,16 17,16 17,17 17,18 18,19 18,20 18,21 19,21 19,22 19,23 20,24 20,25 20,26 21,27 21,28 21,29 22,29 22,30 22,31 22,32 23,33 23,34 23,35 24,35 24,34 25,34 26,33 26,32 27,32 27,31 28,31 28,30 29,29 30,29 30,28 31,27 32,27 32,26 33,26 33,25 34,25 34,24 35,24 35,23 36,23 36,22 37,22 38,23 38,24 39,25 39,26 40,27 41,28 41,29 41,30 42,30 42,31 43,32 43,33 44,33 44,34 44,35 45,35 45,36 46,36 47,36 48,36 49,35 50,34 51,33 52,33 52,32 52,31 53,31 54,30 55,29 55,28 56,28 56,27 56,26 57,26 57,25 58,25 59,24" fill="none" stroke="#ffffff" stroke-width="3" stroke-linecap="round" stroke-linejoin="round" opacity="0.95">
    <title>5413 k:1</title>
  </polyline>
</svg>
