<?xml version="1.0" encoding="UTF-8"?>
<svg xmlns="http://www.w3.org/2000/svg" width="90" height="54" viewBox="0 0 90 54">
  <title>atom 5414 k:1</title>
  <metadata>{&quot;entityType&quot;:&quot;atom&quot;,&quot;entityId&quot;:&quot;5414&quot;,&quot;token&quot;:&quot;k:1&quot;,&quot;signature&quot;:&quot;k:1&quot;,&quot;imageName&quot;:&quot;page-004.jpg&quot;,&quot;imageId&quot;:4,&quot;bounds&quot;:{&quot;x&quot;:2310,&quot;y&quot;:2636,&quot;w&quot;:90,&quot;h&quot;:54},&quot;atoms&quot;:[{&quot;id&quot;:5414,&quot;token&quot;:&quot;k:1&quot;,&quot;particle_id&quot;:&quot;img4-m70-p3&quot;,&quot;molecule_id&quot;:&quot;img4-m70&quot;,&quot;atom_order&quot;:1}]}</metadata>
  <rect x="0" y="0" width="90" height="54" fill="#f8f0d8"/>

  <rect x="0.5" y="0.5" width="89" height="53" fill="none" stroke="#111827" stroke-width="1" opacity="0.35"/>
  <polyline points="16,16 17,16 17,17 18,18 18,19 19,19 19,20 20,21 20,22 21,22 21,23 22,24 23,25 23,26 24,27 25,28 26,29 26,30 27,31 28,32 28,33 29,33 29,34 29,33 30,33 30,31 31,31 32,30 33,29 33,28 34,28 35,27 36,26 36,25 37,24 38,23 39,22 39,21 40,21 40,20 41,19 42,18 43,18 44,19 45,20 45,21 46,22 47,23 48,24 49,25 49,26 49,27 50,27 50,28 51,29 51,30 51,31 52,31 52,32 53,32 53,33 53,34 54,34 55,35 55,36 56,36 56,37 56,38 57,38 58,37 59,36 60,35 61,35 62,34 62,33 63,33 63,32 64,32 64,31 65,31 65,30 66,30 66,29 67,29 67,28 68,28 68,27 69,26 69,25 70,25 70,24 71,24 71,23 72,23 72,22 73,21 73,20 74,20" fill="none" stroke="#ffffff" stroke-width="3" stroke-linecap="round" stroke-linejoin="round" opacity="0.95">
    <title>5414 k:1</title>
  </polyline>
</svg>
