<?xml version="1.0" encoding="UTF-8"?>
<svg xmlns="http://www.w3.org/2000/svg" width="70" height="50" viewBox="0 0 70 50">
  <title>atom 6219 k:1</title>
  <metadata>{&quot;entityType&quot;:&quot;atom&quot;,&quot;entityId&quot;:&quot;6219&quot;,&quot;token&quot;:&quot;k:1&quot;,&quot;signature&quot;:&quot;k:1&quot;,&quot;imageName&quot;:&quot;page-005.jpg&quot;,&quot;imageId&quot;:5,&quot;bounds&quot;:{&quot;x&quot;:557,&quot;y&quot;:672,&quot;w&quot;:70,&quot;h&quot;:50},&quot;atoms&quot;:[{&quot;id&quot;:6219,&quot;token&quot;:&quot;k:1&quot;,&quot;particle_id&quot;:&quot;img5-m19-p4&quot;,&quot;molecule_id&quot;:&quot;img5-m19&quot;,&quot;atom_order&quot;:1}]}</metadata>
  <rect x="0" y="0" width="70" height="50" fill="#f8f0d8"/>
  
  <rect x="0.5" y="0.5" width="69" height="49" fill="none" stroke="#111827" stroke-width="1" opacity="0.35"/>
  <polyline points="16,17 16,18 17,18 17,19 18,19 19,20 19,21 19,22 20,23 21,23 21,24 21,25 22,26 22,27 23,27 23,28 24,29 24,30 25,31 25,32 26,32 26,33 27,33 27,34 28,33 28,32 28,30 29,29 29,28 30,28 30,27 30,26 31,26 31,25 31,24 32,23 32,22 33,22 33,21 34,20 34,19 34,18 35,18 35,17 35,16 35,17 36,18 36,19 37,20 37,21 38,22 38,23 39,24 40,25 40,26 41,26 41,27 41,28 42,29 42,30 43,30 43,31 43,32 43,33 44,33 44,34 45,34 46,33 46,32 47,31 48,30 48,29 49,28 49,27 50,26 50,25 50,24 51,24 51,23 51,22 52,21 52,20 53,20 53,19 53,18 54,18 54,17 54,16" fill="none" stroke="#ffffff" stroke-width="3" stroke-linecap="round" stroke-linejoin="round" opacity="0.95">
    <title>6219 k:1</title>
  </polyline>
</svg>
