<?xml version="1.0" encoding="UTF-8"?>
<svg xmlns="http://www.w3.org/2000/svg" width="79" height="50" viewBox="0 0 79 50">
  <title>atom 6221 k:1</title>
  <metadata>{&quot;entityType&quot;:&quot;atom&quot;,&quot;entityId&quot;:&quot;6221&quot;,&quot;token&quot;:&quot;k:1&quot;,&quot;signature&quot;:&quot;k:1&quot;,&quot;imageName&quot;:&quot;page-005.jpg&quot;,&quot;imageId&quot;:5,&quot;bounds&quot;:{&quot;x&quot;:1924,&quot;y&quot;:762,&quot;w&quot;:79,&quot;h&quot;:50},&quot;atoms&quot;:[{&quot;id&quot;:6221,&quot;token&quot;:&quot;k:1&quot;,&quot;particle_id&quot;:&quot;img5-m26-p5&quot;,&quot;molecule_id&quot;:&quot;img5-m26&quot;,&quot;atom_order&quot;:1}]}</metadata>
  <rect x="0" y="0" width="79" height="50" fill="#f8f0d8"/>

  <rect x="0.5" y="0.5" width="78" height="49" fill="none" stroke="#111827" stroke-width="1" opacity="0.35"/>
  <polyline points="16,16 16,17 17,18 18,19 18,20 19,20 20,21 21,22 21,23 22,23 22,24 23,24 23,25 24,26 24,27 24,28 25,29 25,30 26,30 26,31 26,32 27,32 27,33 28,34 28,33 29,33 29,32 30,30 30,29 31,28 31,27 32,27 32,26 32,25 33,25 34,24 35,23 35,22 36,21 36,20 37,20 37,19 38,19 38,18 38,17 39,17 39,16 39,17 39,18 39,19 39,20 40,20 40,21 40,22 41,23 41,24 41,25 41,26 42,26 42,27 42,28 43,28 43,29 43,30 44,30 44,31 44,32 45,32 45,33 46,33 46,34 47,34 48,33 49,32 50,32 51,31 51,30 52,30 52,29 53,28 54,28 54,27 55,26 56,26 56,25 57,25 57,24 58,23 59,23 59,22 60,22 60,21 61,21 61,20 62,20 62,19 63,18" fill="none" stroke="#ffffff" stroke-width="3" stroke-linecap="round" stroke-linejoin="round" opacity="0.95">
    <title>6221 k:1</title>
  </polyline>
</svg>
