<?xml version="1.0" encoding="UTF-8"?>
<svg xmlns="http://www.w3.org/2000/svg" width="87" height="52" viewBox="0 0 87 52">
  <title>atom 6227 k:1</title>
  <metadata>{&quot;entityType&quot;:&quot;atom&quot;,&quot;entityId&quot;:&quot;6227&quot;,&quot;token&quot;:&quot;k:1&quot;,&quot;signature&quot;:&quot;k:1&quot;,&quot;imageName&quot;:&quot;page-005.jpg&quot;,&quot;imageId&quot;:5,&quot;bounds&quot;:{&quot;x&quot;:1872,&quot;y&quot;:835,&quot;w&quot;:87,&quot;h&quot;:52},&quot;atoms&quot;:[{&quot;id&quot;:6227,&quot;token&quot;:&quot;k:1&quot;,&quot;particle_id&quot;:&quot;img5-m32-p5&quot;,&quot;molecule_id&quot;:&quot;img5-m32&quot;,&quot;atom_order&quot;:1}]}</metadata>
  <rect x="0" y="0" width="87" height="52" fill="#f8f0d8"/>

  <rect x="0.5" y="0.5" width="86" height="51" fill="none" stroke="#111827" stroke-width="1" opacity="0.35"/>
  <polyline points="16,16 17,16 17,17 18,18 19,18 20,20 21,21 22,22 23,23 24,24 25,25 25,26 26,26 26,27 26,28 27,29 27,30 28,30 28,31 29,31 29,32 29,33 29,34 30,35 30,36 31,36 31,35 32,34 32,33 32,32 33,32 33,31 33,30 34,30 34,29 34,28 35,27 35,26 36,25 36,24 37,23 38,23 38,22 39,22 39,21 40,20 40,19 41,18 42,19 42,20 43,21 44,22 45,23 45,24 46,24 47,25 48,26 49,27 50,28 51,29 52,29 52,30 52,31 53,31 54,32 54,33 55,34 55,35 56,35 57,35 58,34 59,33 59,32 60,32 60,31 61,31 62,30 62,29 63,29 64,28 64,27 64,26 65,26 66,25 67,24 67,23 68,22 69,21 69,20 70,20 70,19 71,18" fill="none" stroke="#ffffff" stroke-width="3" stroke-linecap="round" stroke-linejoin="round" opacity="0.95">
    <title>6227 k:1</title>
  </polyline>
</svg>
