<?xml version="1.0" encoding="UTF-8"?>
<svg xmlns="http://www.w3.org/2000/svg" width="79" height="52" viewBox="0 0 79 52">
  <title>atom 6662 k:1</title>
  <metadata>{&quot;entityType&quot;:&quot;atom&quot;,&quot;entityId&quot;:&quot;6662&quot;,&quot;token&quot;:&quot;k:1&quot;,&quot;signature&quot;:&quot;k:1&quot;,&quot;imageName&quot;:&quot;page-006.jpg&quot;,&quot;imageId&quot;:6,&quot;bounds&quot;:{&quot;x&quot;:1421,&quot;y&quot;:929,&quot;w&quot;:79,&quot;h&quot;:52},&quot;atoms&quot;:[{&quot;id&quot;:6662,&quot;token&quot;:&quot;k:1&quot;,&quot;particle_id&quot;:&quot;img6-m26-p5&quot;,&quot;molecule_id&quot;:&quot;img6-m26&quot;,&quot;atom_order&quot;:1}]}</metadata>
  <rect x="0" y="0" width="79" height="52" fill="#f8f0d8"/>

  <rect x="0.5" y="0.5" width="78" height="51" fill="none" stroke="#111827" stroke-width="1" opacity="0.35"/>
  <polyline points="16,16 16,17 17,18 17,19 17,20 17,21 18,22 18,23 18,24 19,24 19,25 20,26 20,27 21,28 21,29 21,30 22,31 22,32 23,33 23,34 23,35 24,35 24,36 25,36 25,35 26,35 26,34 27,33 28,32 28,30 29,30 29,29 30,28 30,27 31,26 32,26 32,25 32,24 33,24 34,23 34,22 35,22 35,21 36,21 36,20 37,19 37,20 37,21 38,21 38,22 38,23 38,24 39,25 39,26 40,26 40,27 41,28 42,28 42,29 42,30 43,30 43,31 44,32 44,33 45,33 45,34 46,34 46,35 47,35 48,34 48,33 49,32 50,32 51,31 52,30 53,29 54,28 55,28 56,27 57,26 58,25 59,24 60,24 60,23 61,22 61,21 62,21 62,20 62,19 63,19" fill="none" stroke="#ffffff" stroke-width="3" stroke-linecap="round" stroke-linejoin="round" opacity="0.95">
    <title>6662 k:1</title>
  </polyline>
</svg>
