<?xml version="1.0" encoding="UTF-8"?>
<svg xmlns="http://www.w3.org/2000/svg" width="71" height="50" viewBox="0 0 71 50">
  <title>atom 6664 k:1</title>
  <metadata>{&quot;entityType&quot;:&quot;atom&quot;,&quot;entityId&quot;:&quot;6664&quot;,&quot;token&quot;:&quot;k:1&quot;,&quot;signature&quot;:&quot;k:1&quot;,&quot;imageName&quot;:&quot;page-006.jpg&quot;,&quot;imageId&quot;:6,&quot;bounds&quot;:{&quot;x&quot;:2327,&quot;y&quot;:2248,&quot;w&quot;:71,&quot;h&quot;:50},&quot;atoms&quot;:[{&quot;id&quot;:6664,&quot;token&quot;:&quot;k:1&quot;,&quot;particle_id&quot;:&quot;img6-m29-p3&quot;,&quot;molecule_id&quot;:&quot;img6-m29&quot;,&quot;atom_order&quot;:1}]}</metadata>
  <rect x="0" y="0" width="71" height="50" fill="#f8f0d8"/>

  <rect x="0.5" y="0.5" width="70" height="49" fill="none" stroke="#111827" stroke-width="1" opacity="0.35"/>
  <polyline points="16,17 16,18 17,18 17,19 18,20 18,21 18,22 19,22 19,23 19,24 19,25 20,26 20,27 20,28 21,28 21,29 22,29 22,30 22,31 23,31 23,32 24,33 24,34 25,34 26,34 26,33 27,32 27,31 28,30 28,29 29,28 29,27 30,26 31,25 31,24 32,24 32,23 33,23 33,22 33,21 34,21 34,20 34,19 35,19 35,18 35,19 35,20 36,20 36,22 36,23 36,24 37,24 37,25 37,26 38,26 38,27 39,28 39,29 40,29 40,30 41,31 41,32 41,33 42,33 42,34 43,34 43,33 44,32 44,31 45,31 45,30 46,30 46,29 47,28 47,27 48,26 48,25 49,25 49,24 50,23 50,22 51,22 51,21 52,20 53,19 53,18 54,18 54,17 55,17 55,16" fill="none" stroke="#ffffff" stroke-width="3" stroke-linecap="round" stroke-linejoin="round" opacity="0.95">
    <title>6664 k:1</title>
  </polyline>
</svg>
