<?xml version="1.0" encoding="UTF-8"?>
<svg xmlns="http://www.w3.org/2000/svg" width="42" height="46" viewBox="0 0 42 46">
  <title>f:1 distant-variant atom 1175</title>
  <rect x="0" y="0" width="42" height="46" fill="#17181b"/>
  <rect x="0.5" y="0.5" width="41" height="45" fill="none" stroke="#111827" stroke-width="1" opacity="0.35"/>
<polyline points="26,30 25,30 25,29 24,29 24,28 24,27 23,27 23,26 22,26 22,25 22,24 21,24 21,23 20,23 20,22 19,22 19,21 19,20 18,20 18,19 17,19 17,18 16,18 16,17 16,16" fill="none" stroke="#00a2ff" stroke-width="3" stroke-linecap="round" stroke-linejoin="round" opacity="0.95">
    <title>1175 f:1</title>
  </polyline>
</svg>
