<?xml version="1.0" encoding="UTF-8"?>
<svg xmlns="http://www.w3.org/2000/svg" width="70" height="66" viewBox="0 0 70 66">
  <title>atom 3032 m:1</title>
  <metadata>{&quot;entityType&quot;:&quot;atom&quot;,&quot;entityId&quot;:&quot;3032&quot;,&quot;token&quot;:&quot;m:1&quot;,&quot;signature&quot;:&quot;m:1&quot;,&quot;imageName&quot;:&quot;page-003.jpg&quot;,&quot;imageId&quot;:3,&quot;bounds&quot;:{&quot;x&quot;:1849,&quot;y&quot;:545,&quot;w&quot;:70,&quot;h&quot;:66},&quot;atoms&quot;:[{&quot;id&quot;:3032,&quot;token&quot;:&quot;m:1&quot;,&quot;particle_id&quot;:&quot;img3-m10-p1&quot;,&quot;molecule_id&quot;:&quot;img3-m10&quot;,&quot;atom_order&quot;:3}]}</metadata>
  <rect x="0" y="0" width="70" height="66" fill="#f8f0d8"/>
  
  <rect x="0.5" y="0.5" width="69" height="65" fill="none" stroke="#111827" stroke-width="1" opacity="0.35"/>
  <polyline points="36,50 36,49 36,48 36,47 36,46 36,45 36,44 36,43 36,42 36,41 36,40 36,39 36,38 36,37 37,37 37,36 37,35 37,34 37,33 37,32 37,31 37,30 37,29 37,28 37,27 38,27 38,26 38,25 38,24 38,23 38,22 38,21 38,20 38,19 38,18 38,17 38,16 37,16 37,17 36,17 35,17 35,18 34,18 33,18 32,19 31,19 30,19 30,20 29,20 28,21 27,21 26,22 25,23 24,23 24,24 23,24 22,25 21,26 20,26 20,27 19,27 19,28 18,29 18,30 17,30 17,31 16,31 16,32 16,33 16,34 17,34 18,34 19,34 20,34 21,34 22,34 23,34 24,34 25,34 26,34 27,34 28,34 29,34 30,34 31,34 32,34 32,35 33,35 34,35 35,35 36,35 37,35 38,35 39,35 40,35 41,35 42,35 43,36 44,36 45,36 46,36 47,36 48,36 49,36 50,36 51,36 52,36 53,36 53,37 54,37" fill="none" stroke="#ff00ff" stroke-width="3" stroke-linecap="round" stroke-linejoin="round" opacity="0.95">
    <title>3032 m:1</title>
  </polyline>
</svg>
