<?xml version="1.0" encoding="UTF-8"?>
<svg xmlns="http://www.w3.org/2000/svg" width="76" height="63" viewBox="0 0 76 63">
  <title>atom 3899 m:1</title>
  <metadata>{&quot;entityType&quot;:&quot;atom&quot;,&quot;entityId&quot;:&quot;3899&quot;,&quot;token&quot;:&quot;m:1&quot;,&quot;signature&quot;:&quot;m:1&quot;,&quot;imageName&quot;:&quot;page-003.jpg&quot;,&quot;imageId&quot;:3,&quot;bounds&quot;:{&quot;x&quot;:1055,&quot;y&quot;:2552,&quot;w&quot;:76,&quot;h&quot;:63},&quot;atoms&quot;:[{&quot;id&quot;:3899,&quot;token&quot;:&quot;m:1&quot;,&quot;particle_id&quot;:&quot;img3-m156-p1&quot;,&quot;molecule_id&quot;:&quot;img3-m156&quot;,&quot;atom_order&quot;:3}]}</metadata>
  <rect x="0" y="0" width="76" height="63" fill="#f8f0d8"/>

  <rect x="0.5" y="0.5" width="75" height="62" fill="none" stroke="#111827" stroke-width="1" opacity="0.35"/>
  <polyline points="37,47 37,46 37,45 37,44 37,43 37,42 37,41 37,40 37,39 38,39 38,38 38,37 38,36 38,35 38,34 38,33 38,32 38,31 38,30 38,29 38,28 38,27 39,27 39,26 39,25 39,24 39,23 39,22 39,21 39,20 39,19 39,18 39,17 40,17 40,16 39,16 38,16 38,17 37,17 37,18 36,18 35,18 34,19 33,19 32,19 32,20 31,20 30,20 30,21 29,21 28,21 28,22 27,22 26,22 26,23 25,23 25,24 24,24 23,25 22,25 22,26 21,26 21,27 20,27 20,28 20,29 19,29 19,30 18,30 18,31 18,32 17,32 17,33 16,33 17,33 18,33 19,33 20,33 21,33 22,33 23,33 24,33 25,33 26,33 27,33 28,33 29,33 30,33 31,33 32,33 33,33 34,33 35,33 36,33 37,33 38,33 39,33 40,33 41,33 42,33 43,33 44,33 45,33 46,33 47,33 48,33 49,33 49,32 50,32 51,32 52,32 53,32 54,32 55,32 56,32 57,32 58,32 59,32 60,32" fill="none" stroke="#ff00ff" stroke-width="3" stroke-linecap="round" stroke-linejoin="round" opacity="0.95">
    <title>3899 m:1</title>
  </polyline>
</svg>
