<?xml version="1.0" encoding="UTF-8"?>
<svg xmlns="http://www.w3.org/2000/svg" width="82" height="62" viewBox="0 0 82 62">
  <title>atom 4264 m:1</title>
  <metadata>{&quot;entityType&quot;:&quot;atom&quot;,&quot;entityId&quot;:&quot;4264&quot;,&quot;token&quot;:&quot;m:1&quot;,&quot;signature&quot;:&quot;m:1&quot;,&quot;imageName&quot;:&quot;page-094.jpg&quot;,&quot;imageId&quot;:94,&quot;bounds&quot;:{&quot;x&quot;:1275,&quot;y&quot;:2388,&quot;w&quot;:82,&quot;h&quot;:62},&quot;atoms&quot;:[{&quot;id&quot;:4264,&quot;token&quot;:&quot;m:1&quot;,&quot;particle_id&quot;:&quot;img94-m41-p1&quot;,&quot;molecule_id&quot;:&quot;img94-m41&quot;,&quot;atom_order&quot;:3}]}</metadata>
  <rect x="0" y="0" width="82" height="62" fill="#f8f0d8"/>
  
  <rect x="0.5" y="0.5" width="81" height="61" fill="none" stroke="#111827" stroke-width="1" opacity="0.35"/>
  <polyline points="36,46 36,45 36,44 37,43 37,42 37,41 37,40 37,39 37,38 37,37 37,36 37,35 37,34 37,33 37,32 37,31 37,30 37,29 37,28 37,27 36,26 36,25 36,24 36,23 36,22 36,21 37,21 37,20 37,19 37,18 37,17 36,17 36,16 35,16 34,16 34,17 33,17 32,18 32,19 31,19 31,20 30,20 29,21 29,22 28,22 27,23 26,23 26,24 25,25 24,26 23,26 23,27 22,28 21,28 21,29 21,30 20,30 20,31 19,32 19,33 19,34 18,34 18,35 17,35 17,36 17,37 16,37 16,38 16,39 17,39 18,39 19,39 20,39 21,39 22,39 23,39 24,39 25,38 26,38 27,38 28,38 29,38 30,38 32,38 33,37 34,37 36,37 37,37 38,37 39,37 40,37 41,37 42,37 43,37 44,37 45,37 46,37 47,37 48,37 49,37 50,36 51,36 52,36 53,36 54,36 56,36 57,36 59,36 60,36 61,36 62,36 63,36 64,36 65,36 66,36" fill="none" stroke="#ff00ff" stroke-width="3" stroke-linecap="round" stroke-linejoin="round" opacity="0.95">
    <title>4264 m:1</title>
  </polyline>
</svg>
