<?xml version="1.0" encoding="UTF-8"?>
<svg xmlns="http://www.w3.org/2000/svg" width="82" height="67" viewBox="0 0 82 67">
  <title>atom 5452 m:1</title>
  <metadata>{&quot;entityType&quot;:&quot;atom&quot;,&quot;entityId&quot;:&quot;5452&quot;,&quot;token&quot;:&quot;m:1&quot;,&quot;signature&quot;:&quot;m:1&quot;,&quot;imageName&quot;:&quot;page-004.jpg&quot;,&quot;imageId&quot;:4,&quot;bounds&quot;:{&quot;x&quot;:1798,&quot;y&quot;:2298,&quot;w&quot;:82,&quot;h&quot;:67},&quot;atoms&quot;:[{&quot;id&quot;:5452,&quot;token&quot;:&quot;m:1&quot;,&quot;particle_id&quot;:&quot;img4-m33-p1&quot;,&quot;molecule_id&quot;:&quot;img4-m33&quot;,&quot;atom_order&quot;:2}]}</metadata>
  <rect x="0" y="0" width="82" height="67" fill="#f8f0d8"/>
  
  <rect x="0.5" y="0.5" width="81" height="66" fill="none" stroke="#111827" stroke-width="1" opacity="0.35"/>
  <polyline points="34,51 34,50 34,49 35,48 35,47 35,46 35,45 35,44 36,44 36,43 36,42 36,41 37,39 37,38 37,37 38,37 38,36 38,35 38,34 38,33 38,32 39,31 39,30 39,29 39,28 39,27 39,26 39,25 39,24 39,23 39,22 39,21 39,20 39,19 39,18 39,17 39,16 38,16 38,17 37,17 36,17 35,17 34,17 33,18 32,18 32,19 31,19 30,19 30,20 29,20 28,20 28,21 27,21 26,22 25,22 25,23 24,23 23,24 22,24 22,25 21,25 21,26 20,26 19,26 19,27 18,27 18,28 17,28 17,29 16,30 17,30 18,30 19,31 20,31 21,30 22,30 23,30 24,30 25,30 27,30 28,30 29,30 30,30 32,30 33,30 35,30 36,30 37,29 39,29 41,29 43,29 45,29 46,29 47,29 48,29 50,29 52,29 53,29 54,29 55,30 57,30 59,30 61,30 62,30 63,30 64,30 65,30 66,30" fill="none" stroke="#ff00ff" stroke-width="3" stroke-linecap="round" stroke-linejoin="round" opacity="0.95">
    <title>5452 m:1</title>
  </polyline>
</svg>
