<?xml version="1.0" encoding="UTF-8"?>
<svg xmlns="http://www.w3.org/2000/svg" width="76" height="64" viewBox="0 0 76 64">
  <title>atom 5462 m:1</title>
  <metadata>{&quot;entityType&quot;:&quot;atom&quot;,&quot;entityId&quot;:&quot;5462&quot;,&quot;token&quot;:&quot;m:1&quot;,&quot;signature&quot;:&quot;m:1&quot;,&quot;imageName&quot;:&quot;page-004.jpg&quot;,&quot;imageId&quot;:4,&quot;bounds&quot;:{&quot;x&quot;:902,&quot;y&quot;:2361,&quot;w&quot;:76,&quot;h&quot;:64},&quot;atoms&quot;:[{&quot;id&quot;:5462,&quot;token&quot;:&quot;m:1&quot;,&quot;particle_id&quot;:&quot;img4-m37-p1&quot;,&quot;molecule_id&quot;:&quot;img4-m37&quot;,&quot;atom_order&quot;:3}]}</metadata>
  <rect x="0" y="0" width="76" height="64" fill="#f8f0d8"/>

  <rect x="0.5" y="0.5" width="75" height="63" fill="none" stroke="#111827" stroke-width="1" opacity="0.35"/>
  <polyline points="34,48 34,47 34,46 34,45 34,44 34,43 34,42 34,41 34,40 34,39 34,38 34,37 34,36 34,35 34,34 34,33 34,32 35,32 35,31 35,30 35,29 35,28 35,27 35,26 35,25 35,24 35,23 35,22 35,21 35,20 35,19 35,18 35,17 35,16 34,16 34,17 33,17 33,18 32,18 32,19 31,19 30,20 29,21 28,22 27,23 26,23 26,24 25,25 24,25 24,26 23,26 23,27 22,27 22,28 21,28 21,29 20,29 20,30 19,30 19,31 18,31 18,32 17,32 17,33 16,33 16,34 17,34 18,34 19,34 20,34 21,34 22,34 23,34 24,34 25,34 26,34 27,34 28,34 29,34 30,34 31,34 32,34 33,34 34,34 35,34 36,34 38,34 39,34 40,34 41,34 42,34 44,34 45,34 46,34 47,35 49,35 50,35 51,35 52,35 53,35 55,35 56,35 57,35 58,35 59,35 60,35" fill="none" stroke="#ff00ff" stroke-width="3" stroke-linecap="round" stroke-linejoin="round" opacity="0.95">
    <title>5462 m:1</title>
  </polyline>
</svg>
