<?xml version="1.0" encoding="UTF-8"?>
<svg xmlns="http://www.w3.org/2000/svg" width="79" height="72" viewBox="0 0 79 72">
  <title>atom 6385 m:1</title>
  <metadata>{&quot;entityType&quot;:&quot;atom&quot;,&quot;entityId&quot;:&quot;6385&quot;,&quot;token&quot;:&quot;m:1&quot;,&quot;signature&quot;:&quot;m:1&quot;,&quot;imageName&quot;:&quot;page-005.jpg&quot;,&quot;imageId&quot;:5,&quot;bounds&quot;:{&quot;x&quot;:1041,&quot;y&quot;:701,&quot;w&quot;:79,&quot;h&quot;:72},&quot;atoms&quot;:[{&quot;id&quot;:6385,&quot;token&quot;:&quot;m:1&quot;,&quot;particle_id&quot;:&quot;img5-m23-p2&quot;,&quot;molecule_id&quot;:&quot;img5-m23&quot;,&quot;atom_order&quot;:2}]}</metadata>
  <rect x="0" y="0" width="79" height="72" fill="#f8f0d8"/>

  <rect x="0.5" y="0.5" width="78" height="71" fill="none" stroke="#111827" stroke-width="1" opacity="0.35"/>
  <polyline points="38,56 38,55 38,54 39,54 39,53 39,52 39,51 39,50 39,49 40,48 40,47 40,46 40,45 40,44 40,43 41,42 41,41 41,40 41,39 41,38 41,37 41,36 41,35 41,34 41,33 41,32 42,31 42,30 42,29 42,28 42,27 42,26 42,25 42,24 42,23 42,22 42,21 42,20 42,19 42,18 42,17 41,16 40,16 39,17 38,17 37,18 36,18 36,19 35,19 34,20 33,20 32,21 31,21 30,22 30,23 29,23 29,24 28,24 27,25 27,26 26,26 25,27 24,27 24,28 23,28 22,29 21,30 20,31 19,32 18,33 18,34 17,34 17,35 16,35 16,36 16,37 17,37 18,37 19,37 20,37 21,37 24,38 28,38 31,38 33,38 34,38 35,39 37,39 39,39 41,39 43,39 44,39 45,39 46,39 47,39 48,39 49,39 50,39 51,39 52,39 53,39 54,39 55,39 56,39 57,39 58,39 59,39 60,39 61,39 62,39 63,39" fill="none" stroke="#ff00ff" stroke-width="3" stroke-linecap="round" stroke-linejoin="round" opacity="0.95">
    <title>6385 m:1</title>
  </polyline>
</svg>
