<?xml version="1.0" encoding="UTF-8"?>
<svg xmlns="http://www.w3.org/2000/svg" width="72" height="62" viewBox="0 0 72 62">
  <title>atom 6387 m:1</title>
  <metadata>{&quot;entityType&quot;:&quot;atom&quot;,&quot;entityId&quot;:&quot;6387&quot;,&quot;token&quot;:&quot;m:1&quot;,&quot;signature&quot;:&quot;m:1&quot;,&quot;imageName&quot;:&quot;page-005.jpg&quot;,&quot;imageId&quot;:5,&quot;bounds&quot;:{&quot;x&quot;:1953,&quot;y&quot;:871,&quot;w&quot;:72,&quot;h&quot;:62},&quot;atoms&quot;:[{&quot;id&quot;:6387,&quot;token&quot;:&quot;m:1&quot;,&quot;particle_id&quot;:&quot;img5-m35-p1&quot;,&quot;molecule_id&quot;:&quot;img5-m35&quot;,&quot;atom_order&quot;:3}]}</metadata>
  <rect x="0" y="0" width="72" height="62" fill="#f8f0d8"/>

  <rect x="0.5" y="0.5" width="71" height="61" fill="none" stroke="#111827" stroke-width="1" opacity="0.35"/>
  <polyline points="35,46 35,45 35,44 35,43 35,42 35,41 35,40 35,39 35,38 35,37 35,36 35,35 35,34 35,33 35,32 35,31 35,30 35,29 35,28 35,27 35,26 35,25 35,24 35,23 35,22 35,21 35,20 35,19 35,18 34,17 34,16 33,16 32,16 31,17 31,18 30,18 30,19 29,19 29,20 28,20 27,21 26,21 26,22 25,22 24,23 23,24 22,25 21,25 20,25 20,26 19,27 18,28 18,29 17,29 17,30 16,31 16,32 17,32 18,32 19,32 20,32 21,32 22,32 23,32 25,32 26,31 28,31 30,31 31,31 33,31 34,31 35,31 36,32 37,32 38,32 40,32 42,32 43,32 44,32 45,32 47,32 50,32 51,32 52,32 53,32 54,32 55,32 56,32" fill="none" stroke="#ff00ff" stroke-width="3" stroke-linecap="round" stroke-linejoin="round" opacity="0.95">
    <title>6387 m:1</title>
  </polyline>
</svg>
