<?xml version="1.0" encoding="UTF-8"?>
<svg xmlns="http://www.w3.org/2000/svg" width="76" height="64" viewBox="0 0 76 64">
  <title>atom 7036 m:1</title>
  <metadata>{&quot;entityType&quot;:&quot;atom&quot;,&quot;entityId&quot;:&quot;7036&quot;,&quot;token&quot;:&quot;m:1&quot;,&quot;signature&quot;:&quot;m:1&quot;,&quot;imageName&quot;:&quot;page-006.jpg&quot;,&quot;imageId&quot;:6,&quot;bounds&quot;:{&quot;x&quot;:1760,&quot;y&quot;:778,&quot;w&quot;:76,&quot;h&quot;:64},&quot;atoms&quot;:[{&quot;id&quot;:7036,&quot;token&quot;:&quot;m:1&quot;,&quot;particle_id&quot;:&quot;img6-m11-p1&quot;,&quot;molecule_id&quot;:&quot;img6-m11&quot;,&quot;atom_order&quot;:2}]}</metadata>
  <rect x="0" y="0" width="76" height="64" fill="#f8f0d8"/>

  <rect x="0.5" y="0.5" width="75" height="63" fill="none" stroke="#111827" stroke-width="1" opacity="0.35"/>
  <polyline points="33,48 33,47 33,46 34,45 34,44 34,43 34,42 34,41 34,40 34,39 34,38 34,37 34,36 34,35 34,34 34,33 34,32 34,31 34,30 34,29 34,28 34,27 34,26 34,25 34,24 34,23 34,22 34,21 34,20 34,19 34,18 34,17 34,16 33,16 33,17 32,17 31,17 31,18 29,19 29,20 28,21 27,21 26,22 25,23 24,24 24,25 23,25 22,26 22,27 21,27 21,28 20,28 20,29 19,30 19,31 18,32 18,33 17,33 17,34 16,34 16,35 16,36 17,36 18,36 19,37 20,37 22,37 23,37 24,37 26,37 27,37 29,37 31,37 32,37 33,37 34,37 34,36 36,36 37,36 38,36 38,35 39,35 40,35 41,35 41,34 43,34 44,34 45,34 46,34 47,33 49,33 49,32 50,32 51,32 52,32 53,32 54,32 56,31 57,31 58,30 59,30 60,30" fill="none" stroke="#ff00ff" stroke-width="3" stroke-linecap="round" stroke-linejoin="round" opacity="0.95">
    <title>7036 m:1</title>
  </polyline>
</svg>
