<?xml version="1.0" encoding="UTF-8"?>
<svg xmlns="http://www.w3.org/2000/svg" width="79" height="68" viewBox="0 0 79 68">
  <title>atom 7037 m:1</title>
  <metadata>{&quot;entityType&quot;:&quot;atom&quot;,&quot;entityId&quot;:&quot;7037&quot;,&quot;token&quot;:&quot;m:1&quot;,&quot;signature&quot;:&quot;m:1&quot;,&quot;imageName&quot;:&quot;page-006.jpg&quot;,&quot;imageId&quot;:6,&quot;bounds&quot;:{&quot;x&quot;:1311,&quot;y&quot;:777,&quot;w&quot;:79,&quot;h&quot;:68},&quot;atoms&quot;:[{&quot;id&quot;:7037,&quot;token&quot;:&quot;m:1&quot;,&quot;particle_id&quot;:&quot;img6-m10-p1&quot;,&quot;molecule_id&quot;:&quot;img6-m10&quot;,&quot;atom_order&quot;:2}]}</metadata>
  <rect x="0" y="0" width="79" height="68" fill="#f8f0d8"/>

  <rect x="0.5" y="0.5" width="78" height="67" fill="none" stroke="#111827" stroke-width="1" opacity="0.35"/>
  <polyline points="37,52 38,52 38,51 39,50 39,49 39,48 39,47 40,47 40,46 40,45 40,44 40,43 40,42 40,41 40,40 40,39 40,38 40,37 40,36 40,35 40,34 40,33 40,32 40,31 40,30 40,29 39,28 39,27 39,26 39,25 39,24 39,23 39,22 39,21 38,20 38,19 38,18 38,17 38,16 37,16 36,16 35,16 33,17 32,18 31,18 30,19 29,20 28,20 27,21 26,22 25,23 24,24 23,24 23,25 22,26 21,27 20,28 20,29 19,29 19,30 18,30 18,31 17,32 17,33 16,33 16,34 16,35 16,36 17,36 18,37 19,37 20,37 22,37 23,37 25,36 26,36 28,36 29,35 32,35 33,35 35,34 36,34 37,34 38,34 40,34 41,34 41,33 42,33 43,33 44,33 45,32 46,32 47,32 48,32 49,31 50,31 52,31 53,31 54,31 54,30 56,30 57,30 58,30 59,30 59,29 60,29 61,29 62,29 63,29" fill="none" stroke="#ff00ff" stroke-width="3" stroke-linecap="round" stroke-linejoin="round" opacity="0.95">
    <title>7037 m:1</title>
  </polyline>
</svg>
