<?xml version="1.0" encoding="UTF-8"?>
<svg xmlns="http://www.w3.org/2000/svg" width="73" height="67" viewBox="0 0 73 67">
  <title>atom 7038 m:1</title>
  <metadata>{&quot;entityType&quot;:&quot;atom&quot;,&quot;entityId&quot;:&quot;7038&quot;,&quot;token&quot;:&quot;m:1&quot;,&quot;signature&quot;:&quot;m:1&quot;,&quot;imageName&quot;:&quot;page-006.jpg&quot;,&quot;imageId&quot;:6,&quot;bounds&quot;:{&quot;x&quot;:747,&quot;y&quot;:793,&quot;w&quot;:73,&quot;h&quot;:67},&quot;atoms&quot;:[{&quot;id&quot;:7038,&quot;token&quot;:&quot;m:1&quot;,&quot;particle_id&quot;:&quot;img6-m15-p2&quot;,&quot;molecule_id&quot;:&quot;img6-m15&quot;,&quot;atom_order&quot;:2}]}</metadata>
  <rect x="0" y="0" width="73" height="67" fill="#f8f0d8"/>

  <rect x="0.5" y="0.5" width="72" height="66" fill="none" stroke="#111827" stroke-width="1" opacity="0.35"/>
  <polyline points="34,51 34,50 34,49 35,47 35,46 35,44 35,43 36,42 36,41 36,40 36,38 36,37 36,36 36,35 36,34 36,33 36,32 36,31 37,29 37,28 37,27 37,26 37,25 37,24 37,23 37,22 37,21 37,20 37,19 37,18 37,17 36,16 35,16 34,16 34,17 33,17 32,17 32,18 31,19 30,20 30,21 29,21 29,22 28,23 27,24 26,26 25,26 25,27 24,27 23,28 22,28 22,29 21,29 21,30 20,31 19,32 18,33 17,34 17,35 16,36 16,37 17,38 18,38 19,38 20,39 21,39 23,39 24,39 25,39 27,39 30,39 34,39 37,39 39,39 40,39 42,39 44,39 46,38 48,38 49,38 50,38 52,38 53,38 54,38 55,37 56,37 57,37" fill="none" stroke="#ff00ff" stroke-width="3" stroke-linecap="round" stroke-linejoin="round" opacity="0.95">
    <title>7038 m:1</title>
  </polyline>
</svg>
