<?xml version="1.0" encoding="UTF-8"?>
<svg xmlns="http://www.w3.org/2000/svg" width="68" height="63" viewBox="0 0 68 63">
  <title>atom 7039 m:1</title>
  <metadata>{&quot;entityType&quot;:&quot;atom&quot;,&quot;entityId&quot;:&quot;7039&quot;,&quot;token&quot;:&quot;m:1&quot;,&quot;signature&quot;:&quot;m:1&quot;,&quot;imageName&quot;:&quot;page-006.jpg&quot;,&quot;imageId&quot;:6,&quot;bounds&quot;:{&quot;x&quot;:2008,&quot;y&quot;:2298,&quot;w&quot;:68,&quot;h&quot;:63},&quot;atoms&quot;:[{&quot;id&quot;:7039,&quot;token&quot;:&quot;m:1&quot;,&quot;particle_id&quot;:&quot;img6-m45-p2&quot;,&quot;molecule_id&quot;:&quot;img6-m45&quot;,&quot;atom_order&quot;:2}]}</metadata>
  <rect x="0" y="0" width="68" height="63" fill="#f8f0d8"/>

  <rect x="0.5" y="0.5" width="67" height="62" fill="none" stroke="#111827" stroke-width="1" opacity="0.35"/>
  <polyline points="30,47 30,46 30,45 30,44 30,43 30,42 30,41 30,40 30,39 30,38 30,37 30,36 30,35 31,34 31,33 31,32 31,31 31,30 31,29 31,28 31,27 31,26 31,25 31,24 31,23 31,22 31,21 31,20 31,19 30,18 30,17 30,16 29,16 28,17 27,18 26,19 26,20 25,20 25,21 24,22 24,23 23,23 23,24 22,24 22,25 21,26 21,27 20,27 20,28 19,29 19,30 18,31 18,32 17,32 17,33 17,34 16,35 16,36 16,37 17,37 18,37 19,38 20,38 22,38 24,38 25,38 26,38 27,38 28,38 29,38 31,37 32,37 34,37 35,37 36,37 37,37 38,37 39,37 41,37 42,37 43,37 44,37 45,37 46,37 47,37 48,37 49,37 50,36 51,36 52,36" fill="none" stroke="#ff00ff" stroke-width="3" stroke-linecap="round" stroke-linejoin="round" opacity="0.95">
    <title>7039 m:1</title>
  </polyline>
</svg>
