<?xml version="1.0" encoding="UTF-8"?>
<svg xmlns="http://www.w3.org/2000/svg" width="292" height="279" viewBox="0 0 292 279">
  <title>img3-m1 ATOMS trace for EVA fachys comparison</title>
  <rect x="0" y="0" width="292" height="279" fill="#17181b"/>
  <rect x="0.5" y="0.5" width="291" height="278" fill="none" stroke="#111827" stroke-width="1" opacity="0.35"/>
<polyline points="85,230 85,229 85,228 85,227 85,226 85,225 85,224 85,223 85,222 85,221 85,220 86,220 86,219 86,218 86,217 86,216 86,215 86,214 86,213 86,212 86,211 87,211 87,210 87,209 87,208 87,207 87,206 87,205 87,204 87,203 87,202 87,201 87,200 87,199 87,198 88,198 88,197 88,196 88,195 88,194 88,193 88,192 88,191 89,190 89,189 89,188 89,187 89,186 89,185 89,184 89,183 89,182 89,181 89,180 89,179 89,178 90,177 90,176 90,175 90,174 90,173 90,172 90,171 90,170 90,169 90,168 90,167 90,166 90,165 90,164 90,163 90,162 90,161 90,160 90,159 90,158 90,157 90,156 90,155 90,154 90,153 89,153 89,152 89,151 89,150 89,149 89,148 89,147 89,146 89,145 89,144 89,143 89,142 89,141 89,140 89,139 89,138 89,137 88,136 88,135 88,134 88,133 88,132 88,131 88,130 88,129 88,128 88,127 88,126 88,125 88,124 88,123 88,122 88,121 88,120 88,119 88,118 88,117 88,116 88,115 88,114 88,113 88,112 88,111 88,110 88,109 88,108 88,107 88,106 88,105 88,104 88,103 88,102 88,101 88,100 88,99 88,98 88,97 88,96 88,95 88,94 88,93 87,92 87,91 87,90 87,89 87,88 87,87 87,86 87,85 87,84 87,83 87,82 87,81 87,80 87,79 87,78 87,77 87,76 87,75 87,74 87,73 87,72 87,71 87,70 87,69 87,68 87,67 86,67 86,66 86,65 86,64 86,63 86,62 86,61 86,60 86,59 86,58 86,57 86,56 86,55 86,54 86,53 86,52" fill="none" stroke="#00f0b5" stroke-width="3" stroke-linecap="round" stroke-linejoin="round" opacity="0.95">
    <title>980 a:1</title>
  </polyline>
<polyline points="128,114 128,115 128,116 127,116 127,117 126,117 126,118 125,118 124,118 124,119 123,119 122,119 121,119 121,120 120,120 119,120 118,120 117,120 116,120 115,120 114,120 113,120 112,120 111,120 110,120 110,121 109,121 108,121 107,121 106,121 105,121 104,121 103,121 102,121 101,121 100,121 99,121 98,121 97,121 96,121 95,121 94,121 93,121 92,121 91,121 90,121 89,120 88,120 87,120 86,120 85,119 84,119 83,119 82,119 82,118 81,118 80,118 79,118 78,118 78,117 77,117 76,117" fill="none" stroke="#2f7df6" stroke-width="3" stroke-linecap="round" stroke-linejoin="round" opacity="0.95">
    <title>1322 b:1</title>
  </polyline>
<polyline points="160,55 161,55 161,54 162,54 163,54 163,53 164,53 164,52 165,52 165,51 166,51 166,50 166,49 167,49 167,48 168,48 168,47 169,47 169,46 169,45 169,44 169,43 169,42 169,41 170,41 170,40 170,39 170,38 170,37 170,36 169,36 169,35 169,34 169,33 168,33 168,32 168,31 167,31 167,30 167,29 166,29 166,28 165,28 164,28 164,27 163,27 162,27 162,26 161,26 160,26 160,25 159,25 158,25 157,25 157,24 156,24 155,24 154,24 153,24 152,24 151,24 150,24 150,25 149,25 148,25 147,25 147,26 146,26 145,26 144,26 143,27 142,27 141,27 141,28 140,28 139,29 138,29 137,29 137,30 136,30 136,31 135,31 135,32 134,32 134,33 133,33 133,34 132,35 132,36 131,36 131,37 131,38 130,38 130,39 129,40 129,41 128,42 128,43 127,43 127,44 127,45 127,46 126,47 126,48 126,49 126,50 126,51 126,52 126,53 127,53 127,54 127,55 128,55 128,56 128,57 129,57 129,58 130,59 131,60 132,60 133,60 134,60 135,60 135,61 136,61 137,61 138,61 139,61 140,61 141,61 142,61 143,61 143,60 144,60 145,60 146,60 146,59 147,59 148,59 149,59 149,58 150,58 151,58 152,58 153,58 154,58 155,58 156,58 156,57 157,57 158,57 158,56 159,56 160,55" fill="none" stroke="#8aff00" stroke-width="3" stroke-linecap="round" stroke-linejoin="round" opacity="0.95">
    <title>982 c:1</title>
  </polyline>
<polyline points="128,44 128,45 128,46 128,47 128,48 128,49 128,50 128,51 128,52 128,53 128,54 129,54 129,55 129,56 129,57 129,58 129,59 129,60 129,61 129,62 129,63 129,64 129,65 129,66 129,67 129,68 129,69 129,70 129,71 129,72 129,73 129,74 129,75 129,76 129,77 129,78 129,79 129,80 129,81 129,82 129,83 129,84 129,85 129,86 129,87 129,88 129,89 129,90 129,91 129,92 129,93 129,94 129,95 130,95 130,96 130,97 130,98 130,99 130,100 130,101 130,102 130,103 130,104 130,105 129,105 129,106 129,107 129,108 129,109 129,110 129,111 129,112 129,113 128,113 128,114" fill="none" stroke="#00f0b5" stroke-width="3" stroke-linecap="round" stroke-linejoin="round" opacity="0.95">
    <title>983 a:1</title>
  </polyline>
<polyline points="86,51 86,52 87,52 87,53 87,54 88,54 88,55 89,55 90,55 90,56 91,56 91,57 92,57 93,57 93,58 94,58 95,58 95,59 96,59 97,59 97,60 98,60 99,60 100,60 101,60 101,61 102,61 103,61 104,61 104,62 105,62 106,62 107,62 108,62 109,63 110,63 111,63 112,63 113,63 114,63 115,63 116,63 117,63 117,64 118,64 119,64 120,64 121,64 122,64 123,64 124,64 125,64 126,64 127,64 128,64 129,64 129,63 130,63 131,63 132,63 133,63 134,63 135,63 135,62 136,62 137,62 138,62 139,62 140,61 141,61 142,61 143,61 143,60 144,60 145,60 146,60 147,60 147,59 148,59 149,59 150,59 151,58 152,58 153,58 154,58 154,57 155,57 156,57 156,56 157,56 158,56 158,55 159,55" fill="none" stroke="#2f7df6" stroke-width="3" stroke-linecap="round" stroke-linejoin="round" opacity="0.95">
    <title>981 b:1</title>
  </polyline>
<polyline points="45,141 45,142 45,143 46,143 46,144 46,145 46,146 46,147 46,148 46,149 46,150 46,151 46,152 45,152 45,153 45,154 44,154 44,155 43,156 43,157 42,157 42,158 41,158 40,158 40,159 39,159 38,160 37,160 35,160 34,160 33,160 32,160 31,160 30,160 29,160 28,159 27,159 26,158 26,157 25,157 25,156 25,155 25,154 25,153 24,153 24,152 24,151 24,150 24,149 24,148 24,147 24,146 24,145 25,145 25,144 25,143 26,142 26,141 27,141 27,140 28,139 29,138 29,137 30,137 31,135 32,134 33,134 33,133 34,133 34,132 35,132 35,131 36,131 36,130 37,130 37,129 38,129 39,128 40,128 41,127 42,126 43,125 44,124 45,124 46,124 47,123 48,123 49,122 50,122 51,122 52,121 53,121 54,121 55,121 55,120 56,120 57,120 58,120 59,119 61,119 62,119 64,119 65,119 66,119 67,119 68,119 69,119 70,119 71,118 72,118 73,118 74,118 75,118 76,118 77,118 78,118 79,118 80,118 80,117 81,117 82,117 83,117 83,118" fill="none" stroke="#ff2d55" stroke-width="3" stroke-linecap="round" stroke-linejoin="round" opacity="0.95">
    <title>5493 d:1</title>
  </polyline>
<polyline points="128,229 127,229 126,230 125,230 125,231 124,231 124,232 123,232 122,232 122,233 121,233 120,233 119,233 118,233 117,233 116,232 115,232 115,231 114,231 113,231 113,230 112,230 112,229 111,229 111,228 111,227 110,227 110,226 110,225 110,224 110,223 110,222 110,221 110,220 110,219 111,219 111,218 111,217 112,217 112,216 113,216 114,215 115,215 115,214 116,213 117,213 117,212 118,212 118,211 119,211 120,211 121,210 122,210 123,209 124,209 125,209 126,209 127,209 127,208 128,208 129,208" fill="none" stroke="#f2e45c" stroke-width="3" stroke-linecap="round" stroke-linejoin="round" opacity="0.95">
    <title>991 e:1</title>
  </polyline>
<polyline points="130,208 130,209 131,209 131,210 132,210 132,211 132,212 132,213 133,213 133,214 133,215 134,215 134,216 134,217 135,217 135,218 135,219 136,220 136,221 137,222 137,223 138,223 138,224 138,225 139,225 139,226 140,227 140,228 141,228 141,229 141,230 142,230 142,231 142,232" fill="none" stroke="#00a2ff" stroke-width="3" stroke-linecap="round" stroke-linejoin="round" opacity="0.95">
    <title>992 f:1</title>
  </polyline>
<polyline points="176,228 176,229 175,229 175,230 174,230 173,230 173,231 172,231 171,231 170,231 169,231 168,231 167,231 166,231 166,230 165,230 164,230 163,230 163,229 162,229 161,229 161,228 161,227 161,226 161,225 161,224 161,223 161,222 162,222 162,221 162,220 162,219 163,219 163,218 163,217 164,217 164,216 164,215 165,215 166,215 166,214 167,214 167,213 168,213 169,213 169,212 170,212 171,212 172,212 172,211" fill="none" stroke="#f2e45c" stroke-width="3" stroke-linecap="round" stroke-linejoin="round" opacity="0.95">
    <title>993 e:1</title>
  </polyline>
<polyline points="172,211 173,211 174,211 175,211 175,210 176,210 177,210 178,210 179,210 180,210 181,210 182,210 183,210 184,210 185,210 186,210 187,210 187,209 188,209 189,209 190,209 191,209 192,209 193,209 194,209" fill="none" stroke="#7c3cff" stroke-width="3" stroke-linecap="round" stroke-linejoin="round" opacity="0.95">
    <title>995 g:1</title>
  </polyline>
<polyline points="195,223 194,223 194,224 193,224 193,225 192,225 192,226 191,226 190,226 189,226 188,226 187,226 187,225 186,225 186,224 185,224 185,223 185,222 185,221 185,220 185,219 185,218 185,217 186,216 186,215 187,215 187,214 187,213 188,213 188,212 189,212 190,211 191,211 191,210 192,210 192,209 193,209 194,209 195,209" fill="none" stroke="#f2e45c" stroke-width="3" stroke-linecap="round" stroke-linejoin="round" opacity="0.95">
    <title>994 e:1</title>
  </polyline>
<polyline points="218,224 218,225 217,225 217,226 216,226 215,226 215,227 214,227 213,227 212,227 211,227 210,227 209,227 208,227 208,226 207,226 206,226 205,226 205,225 204,225 203,225 203,224 203,223 203,222 203,221 203,220 203,219 203,218 204,218 204,217 204,216 204,215 205,215 205,214 205,213 206,213 206,212 206,211 207,211 208,211 208,210 209,210 209,209 210,209 211,209 211,208 212,208 213,208 214,208 214,207" fill="none" stroke="#f2e45c" stroke-width="3" stroke-linecap="round" stroke-linejoin="round" opacity="0.95">
    <title>996 e:1</title>
  </polyline>
<polyline points="214,207 214,208 215,208 215,209 216,209 216,210 217,210 217,211 217,212 218,212 218,213 219,214 219,215 220,215 220,216 220,217 221,217 221,218 221,219 221,220 221,221 221,222 221,223 221,224 221,225 221,226 221,227 221,228 221,229 221,230 221,231 220,231 220,232 220,233 219,233 219,234 219,235 218,236 218,237 217,237 217,238 217,239 216,239 216,240 216,241 215,241 215,242 214,242 214,243 214,244 213,244 213,245 212,245 212,246 211,246 211,247 210,247 210,248 209,248 209,249 208,249 208,250 207,250 207,251 207,252 206,252 206,253 205,253 205,254 205,255 204,255" fill="none" stroke="#ff8c00" stroke-width="3" stroke-linecap="round" stroke-linejoin="round" opacity="0.95">
    <title>997 h:1</title>
  </polyline>
<polyline points="249,212 250,212 250,213 251,213 251,214 252,214 252,215 253,215 254,216 255,217 256,217 256,218 257,218 257,219 258,219 258,220 259,220 259,221 260,221 260,222 261,222 261,223 261,224" fill="none" stroke="#00a2ff" stroke-width="3" stroke-linecap="round" stroke-linejoin="round" opacity="0.95">
    <title>999 f:1</title>
  </polyline>
<polyline points="249,211 250,211 250,210 251,210 251,209 252,209 252,208 253,208 253,207 254,207 255,207 255,206 256,205 257,205 257,204 258,204 258,203 259,203 259,202 260,202 260,201 260,200 261,200 261,199 262,199 262,198 263,197 263,196 263,195 264,195 264,194 264,193 265,193 265,192 265,191 265,190 266,190 266,189 266,188 266,187 266,186 267,186 267,185 267,184 267,183 267,182 268,182 268,181 268,180 268,179 268,178 268,177 268,176 268,175 268,174 268,173 268,172 268,171 268,170 267,170 267,169 266,168 266,167" fill="none" stroke="#00ff7f" stroke-width="3" stroke-linecap="round" stroke-linejoin="round" opacity="0.95">
    <title>1000 i:1</title>
  </polyline>
<polyline points="229,169 229,168 229,167 229,166 230,166 230,165 231,165 231,164 232,164 232,163 233,163 233,162 234,161 235,161 235,160 236,160 237,160 237,159 238,159 239,159 240,159 240,158 241,158 242,158 243,158 244,158 245,158 246,157 247,157 248,157 249,157 250,157 251,157 251,158 252,158 253,158 254,158 254,159 255,159 256,159 256,160 257,160 258,160 258,161 259,161 260,161 260,162 261,162 261,163 262,163 263,164 264,164 264,165 265,166 265,167 266,167" fill="none" stroke="#ff2d55" stroke-width="3" stroke-linecap="round" stroke-linejoin="round" opacity="0.95">
    <title>1002 d:1</title>
  </polyline>
</svg>
