<?xml version="1.0" encoding="UTF-8"?>
<svg xmlns="http://www.w3.org/2000/svg" width="324" height="311" viewBox="0 0 324 311">
  <title>img3-m1 ATOMS trace for EVA fachys comparison</title>
  <rect x="0" y="0" width="324" height="311" fill="#f3ecdc"/>
  <rect x="0.5" y="0.5" width="323" height="310" fill="none" stroke="#d7cbb8" stroke-width="1"/>
<polyline points="101,246 101,245 101,244 101,243 101,242 101,241 101,240 101,239 101,238 101,237 101,236 102,236 102,235 102,234 102,233 102,232 102,231 102,230 102,229 102,228 102,227 103,227 103,226 103,225 103,224 103,223 103,222 103,221 103,220 103,219 103,218 103,217 103,216 103,215 103,214 104,214 104,213 104,212 104,211 104,210 104,209 104,208 104,207 105,206 105,205 105,204 105,203 105,202 105,201 105,200 105,199 105,198 105,197 105,196 105,195 105,194 106,193 106,192 106,191 106,190 106,189 106,188 106,187 106,186 106,185 106,184 106,183 106,182 106,181 106,180 106,179 106,178 106,177 106,176 106,175 106,174 106,173 106,172 106,171 106,170 106,169 105,169 105,168 105,167 105,166 105,165 105,164 105,163 105,162 105,161 105,160 105,159 105,158 105,157 105,156 105,155 105,154 105,153 104,152 104,151 104,150 104,149 104,148 104,147 104,146 104,145 104,144 104,143 104,142 104,141 104,140 104,139 104,138 104,137 104,136 104,135 104,134 104,133 104,132 104,131 104,130 104,129 104,128 104,127 104,126 104,125 104,124 104,123 104,122 104,121 104,120 104,119 104,118 104,117 104,116 104,115 104,114 104,113 104,112 104,111 104,110 104,109 103,108 103,107 103,106 103,105 103,104 103,103 103,102 103,101 103,100 103,99 103,98 103,97 103,96 103,95 103,94 103,93 103,92 103,91 103,90 103,89 103,88 103,87 103,86 103,85 103,84 103,83 102,83 102,82 102,81 102,80 102,79 102,78 102,77 102,76 102,75 102,74 102,73 102,72 102,71 102,70 102,69 102,68" fill="none" stroke="#00f0b5" stroke-width="3" stroke-linecap="round" stroke-linejoin="round" opacity="0.95">
    <title>980 a:1</title>
  </polyline>
<polyline points="144,130 144,131 144,132 143,132 143,133 142,133 142,134 141,134 140,134 140,135 139,135 138,135 137,135 137,136 136,136 135,136 134,136 133,136 132,136 131,136 130,136 129,136 128,136 127,136 126,136 126,137 125,137 124,137 123,137 122,137 121,137 120,137 119,137 118,137 117,137 116,137 115,137 114,137 113,137 112,137 111,137 110,137 109,137 108,137 107,137 106,137 105,136 104,136 103,136 102,136 101,135 100,135 99,135 98,135 98,134 97,134 96,134 95,134 94,134 94,133 93,133 92,133" fill="none" stroke="#2f7df6" stroke-width="3" stroke-linecap="round" stroke-linejoin="round" opacity="0.95">
    <title>1322 b:1</title>
  </polyline>
<polyline points="176,71 177,71 177,70 178,70 179,70 179,69 180,69 180,68 181,68 181,67 182,67 182,66 182,65 183,65 183,64 184,64 184,63 185,63 185,62 185,61 185,60 185,59 185,58 185,57 186,57 186,56 186,55 186,54 186,53 186,52 185,52 185,51 185,50 185,49 184,49 184,48 184,47 183,47 183,46 183,45 182,45 182,44 181,44 180,44 180,43 179,43 178,43 178,42 177,42 176,42 176,41 175,41 174,41 173,41 173,40 172,40 171,40 170,40 169,40 168,40 167,40 166,40 166,41 165,41 164,41 163,41 163,42 162,42 161,42 160,42 159,43 158,43 157,43 157,44 156,44 155,45 154,45 153,45 153,46 152,46 152,47 151,47 151,48 150,48 150,49 149,49 149,50 148,51 148,52 147,52 147,53 147,54 146,54 146,55 145,56 145,57 144,58 144,59 143,59 143,60 143,61 143,62 142,63 142,64 142,65 142,66 142,67 142,68 142,69 143,69 143,70 143,71 144,71 144,72 144,73 145,73 145,74 146,75 147,76 148,76 149,76 150,76 151,76 151,77 152,77 153,77 154,77 155,77 156,77 157,77 158,77 159,77 159,76 160,76 161,76 162,76 162,75 163,75 164,75 165,75 165,74 166,74 167,74 168,74 169,74 170,74 171,74 172,74 172,73 173,73 174,73 174,72 175,72 176,71" fill="none" stroke="#8aff00" stroke-width="3" stroke-linecap="round" stroke-linejoin="round" opacity="0.95">
    <title>982 c:1</title>
  </polyline>
<polyline points="144,60 144,61 144,62 144,63 144,64 144,65 144,66 144,67 144,68 144,69 144,70 145,70 145,71 145,72 145,73 145,74 145,75 145,76 145,77 145,78 145,79 145,80 145,81 145,82 145,83 145,84 145,85 145,86 145,87 145,88 145,89 145,90 145,91 145,92 145,93 145,94 145,95 145,96 145,97 145,98 145,99 145,100 145,101 145,102 145,103 145,104 145,105 145,106 145,107 145,108 145,109 145,110 145,111 146,111 146,112 146,113 146,114 146,115 146,116 146,117 146,118 146,119 146,120 146,121 145,121 145,122 145,123 145,124 145,125 145,126 145,127 145,128 145,129 144,129 144,130" fill="none" stroke="#00f0b5" stroke-width="3" stroke-linecap="round" stroke-linejoin="round" opacity="0.95">
    <title>983 a:1</title>
  </polyline>
<polyline points="102,67 102,68 103,68 103,69 103,70 104,70 104,71 105,71 106,71 106,72 107,72 107,73 108,73 109,73 109,74 110,74 111,74 111,75 112,75 113,75 113,76 114,76 115,76 116,76 117,76 117,77 118,77 119,77 120,77 120,78 121,78 122,78 123,78 124,78 125,79 126,79 127,79 128,79 129,79 130,79 131,79 132,79 133,79 133,80 134,80 135,80 136,80 137,80 138,80 139,80 140,80 141,80 142,80 143,80 144,80 145,80 145,79 146,79 147,79 148,79 149,79 150,79 151,79 151,78 152,78 153,78 154,78 155,78 156,77 157,77 158,77 159,77 159,76 160,76 161,76 162,76 163,76 163,75 164,75 165,75 166,75 167,74 168,74 169,74 170,74 170,73 171,73 172,73 172,72 173,72 174,72 174,71 175,71" fill="none" stroke="#2f7df6" stroke-width="3" stroke-linecap="round" stroke-linejoin="round" opacity="0.95">
    <title>981 b:1</title>
  </polyline>
<polyline points="61,157 61,158 61,159 62,159 62,160 62,161 62,162 62,163 62,164 62,165 62,166 62,167 62,168 61,168 61,169 61,170 60,170 60,171 59,172 59,173 58,173 58,174 57,174 56,174 56,175 55,175 54,176 53,176 51,176 50,176 49,176 48,176 47,176 46,176 45,176 44,175 43,175 42,174 42,173 41,173 41,172 41,171 41,170 41,169 40,169 40,168 40,167 40,166 40,165 40,164 40,163 40,162 40,161 41,161 41,160 41,159 42,158 42,157 43,157 43,156 44,155 45,154 45,153 46,153 47,151 48,150 49,150 49,149 50,149 50,148 51,148 51,147 52,147 52,146 53,146 53,145 54,145 55,144 56,144 57,143 58,142 59,141 60,140 61,140 62,140 63,139 64,139 65,138 66,138 67,138 68,137 69,137 70,137 71,137 71,136 72,136 73,136 74,136 75,135 77,135 78,135 80,135 81,135 82,135 83,135 84,135 85,135 86,135 87,134 88,134 89,134 90,134 91,134 92,134 93,134 94,134 95,134 96,134 96,133 97,133 98,133 99,133 99,134" fill="none" stroke="#ff2d55" stroke-width="3" stroke-linecap="round" stroke-linejoin="round" opacity="0.95">
    <title>5493 d:1</title>
  </polyline>
<polyline points="144,245 143,245 142,246 141,246 141,247 140,247 140,248 139,248 138,248 138,249 137,249 136,249 135,249 134,249 133,249 132,248 131,248 131,247 130,247 129,247 129,246 128,246 128,245 127,245 127,244 127,243 126,243 126,242 126,241 126,240 126,239 126,238 126,237 126,236 126,235 127,235 127,234 127,233 128,233 128,232 129,232 130,231 131,231 131,230 132,229 133,229 133,228 134,228 134,227 135,227 136,227 137,226 138,226 139,225 140,225 141,225 142,225 143,225 143,224 144,224 145,224" fill="none" stroke="#f2e45c" stroke-width="3" stroke-linecap="round" stroke-linejoin="round" opacity="0.95">
    <title>991 e:1</title>
  </polyline>
<polyline points="146,224 146,225 147,225 147,226 148,226 148,227 148,228 148,229 149,229 149,230 149,231 150,231 150,232 150,233 151,233 151,234 151,235 152,236 152,237 153,238 153,239 154,239 154,240 154,241 155,241 155,242 156,243 156,244 157,244 157,245 157,246 158,246 158,247 158,248" fill="none" stroke="#00a2ff" stroke-width="3" stroke-linecap="round" stroke-linejoin="round" opacity="0.95">
    <title>992 f:1</title>
  </polyline>
<polyline points="192,244 192,245 191,245 191,246 190,246 189,246 189,247 188,247 187,247 186,247 185,247 184,247 183,247 182,247 182,246 181,246 180,246 179,246 179,245 178,245 177,245 177,244 177,243 177,242 177,241 177,240 177,239 177,238 178,238 178,237 178,236 178,235 179,235 179,234 179,233 180,233 180,232 180,231 181,231 182,231 182,230 183,230 183,229 184,229 185,229 185,228 186,228 187,228 188,228 188,227" fill="none" stroke="#f2e45c" stroke-width="3" stroke-linecap="round" stroke-linejoin="round" opacity="0.95">
    <title>993 e:1</title>
  </polyline>
<polyline points="188,227 189,227 190,227 191,227 191,226 192,226 193,226 194,226 195,226 196,226 197,226 198,226 199,226 200,226 201,226 202,226 203,226 203,225 204,225 205,225 206,225 207,225 208,225 209,225 210,225" fill="none" stroke="#7c3cff" stroke-width="3" stroke-linecap="round" stroke-linejoin="round" opacity="0.95">
    <title>995 g:1</title>
  </polyline>
<polyline points="211,239 210,239 210,240 209,240 209,241 208,241 208,242 207,242 206,242 205,242 204,242 203,242 203,241 202,241 202,240 201,240 201,239 201,238 201,237 201,236 201,235 201,234 201,233 202,232 202,231 203,231 203,230 203,229 204,229 204,228 205,228 206,227 207,227 207,226 208,226 208,225 209,225 210,225 211,225" fill="none" stroke="#f2e45c" stroke-width="3" stroke-linecap="round" stroke-linejoin="round" opacity="0.95">
    <title>994 e:1</title>
  </polyline>
<polyline points="234,240 234,241 233,241 233,242 232,242 231,242 231,243 230,243 229,243 228,243 227,243 226,243 225,243 224,243 224,242 223,242 222,242 221,242 221,241 220,241 219,241 219,240 219,239 219,238 219,237 219,236 219,235 219,234 220,234 220,233 220,232 220,231 221,231 221,230 221,229 222,229 222,228 222,227 223,227 224,227 224,226 225,226 225,225 226,225 227,225 227,224 228,224 229,224 230,224 230,223" fill="none" stroke="#f2e45c" stroke-width="3" stroke-linecap="round" stroke-linejoin="round" opacity="0.95">
    <title>996 e:1</title>
  </polyline>
<polyline points="230,223 230,224 231,224 231,225 232,225 232,226 233,226 233,227 233,228 234,228 234,229 235,230 235,231 236,231 236,232 236,233 237,233 237,234 237,235 237,236 237,237 237,238 237,239 237,240 237,241 237,242 237,243 237,244 237,245 237,246 237,247 236,247 236,248 236,249 235,249 235,250 235,251 234,252 234,253 233,253 233,254 233,255 232,255 232,256 232,257 231,257 231,258 230,258 230,259 230,260 229,260 229,261 228,261 228,262 227,262 227,263 226,263 226,264 225,264 225,265 224,265 224,266 223,266 223,267 223,268 222,268 222,269 221,269 221,270 221,271 220,271" fill="none" stroke="#ff8c00" stroke-width="3" stroke-linecap="round" stroke-linejoin="round" opacity="0.95">
    <title>997 h:1</title>
  </polyline>
<polyline points="265,228 266,228 266,229 267,229 267,230 268,230 268,231 269,231 270,232 271,233 272,233 272,234 273,234 273,235 274,235 274,236 275,236 275,237 276,237 276,238 277,238 277,239 277,240" fill="none" stroke="#00a2ff" stroke-width="3" stroke-linecap="round" stroke-linejoin="round" opacity="0.95">
    <title>999 f:1</title>
  </polyline>
<polyline points="265,227 266,227 266,226 267,226 267,225 268,225 268,224 269,224 269,223 270,223 271,223 271,222 272,221 273,221 273,220 274,220 274,219 275,219 275,218 276,218 276,217 276,216 277,216 277,215 278,215 278,214 279,213 279,212 279,211 280,211 280,210 280,209 281,209 281,208 281,207 281,206 282,206 282,205 282,204 282,203 282,202 283,202 283,201 283,200 283,199 283,198 284,198 284,197 284,196 284,195 284,194 284,193 284,192 284,191 284,190 284,189 284,188 284,187 284,186 283,186 283,185 282,184 282,183" fill="none" stroke="#00ff7f" stroke-width="3" stroke-linecap="round" stroke-linejoin="round" opacity="0.95">
    <title>1000 i:1</title>
  </polyline>
<polyline points="245,185 245,184 245,183 245,182 246,182 246,181 247,181 247,180 248,180 248,179 249,179 249,178 250,177 251,177 251,176 252,176 253,176 253,175 254,175 255,175 256,175 256,174 257,174 258,174 259,174 260,174 261,174 262,173 263,173 264,173 265,173 266,173 267,173 267,174 268,174 269,174 270,174 270,175 271,175 272,175 272,176 273,176 274,176 274,177 275,177 276,177 276,178 277,178 277,179 278,179 279,180 280,180 280,181 281,182 281,183 282,183" fill="none" stroke="#ff2d55" stroke-width="3" stroke-linecap="round" stroke-linejoin="round" opacity="0.95">
    <title>1002 d:1</title>
  </polyline>
</svg>
