<?xml version="1.0" encoding="UTF-8"?>
<svg xmlns="http://www.w3.org/2000/svg" width="272" height="259" viewBox="0 0 272 259">
  <title>img3-m1 ATOMS trace for EVA fachys comparison</title>
  <rect x="0" y="0" width="272" height="259" fill="#17181b"/>
<polyline points="75,220 75,219 75,218 75,217 75,216 75,215 75,214 75,213 75,212 75,211 75,210 76,210 76,209 76,208 76,207 76,206 76,205 76,204 76,203 76,202 76,201 77,201 77,200 77,199 77,198 77,197 77,196 77,195 77,194 77,193 77,192 77,191 77,190 77,189 77,188 78,188 78,187 78,186 78,185 78,184 78,183 78,182 78,181 79,180 79,179 79,178 79,177 79,176 79,175 79,174 79,173 79,172 79,171 79,170 79,169 79,168 80,167 80,166 80,165 80,164 80,163 80,162 80,161 80,160 80,159 80,158 80,157 80,156 80,155 80,154 80,153 80,152 80,151 80,150 80,149 80,148 80,147 80,146 80,145 80,144 80,143 79,143 79,142 79,141 79,140 79,139 79,138 79,137 79,136 79,135 79,134 79,133 79,132 79,131 79,130 79,129 79,128 79,127 78,126 78,125 78,124 78,123 78,122 78,121 78,120 78,119 78,118 78,117 78,116 78,115 78,114 78,113 78,112 78,111 78,110 78,109 78,108 78,107 78,106 78,105 78,104 78,103 78,102 78,101 78,100 78,99 78,98 78,97 78,96 78,95 78,94 78,93 78,92 78,91 78,90 78,89 78,88 78,87 78,86 78,85 78,84 78,83 77,82 77,81 77,80 77,79 77,78 77,77 77,76 77,75 77,74 77,73 77,72 77,71 77,70 77,69 77,68 77,67 77,66 77,65 77,64 77,63 77,62 77,61 77,60 77,59 77,58 77,57 76,57 76,56 76,55 76,54 76,53 76,52 76,51 76,50 76,49 76,48 76,47 76,46 76,45 76,44 76,43 76,42" fill="none" stroke="#00f0b5" stroke-width="3" stroke-linecap="round" stroke-linejoin="round" opacity="0.95">
    <title>980 a:1</title>
  </polyline>
<polyline points="118,104 118,105 118,106 117,106 117,107 116,107 116,108 115,108 114,108 114,109 113,109 112,109 111,109 111,110 110,110 109,110 108,110 107,110 106,110 105,110 104,110 103,110 102,110 101,110 100,110 100,111 99,111 98,111 97,111 96,111 95,111 94,111 93,111 92,111 91,111 90,111 89,111 88,111 87,111 86,111 85,111 84,111 83,111 82,111 81,111 80,111 79,110 78,110 77,110 76,110 75,109 74,109 73,109 72,109 72,108 71,108 70,108 69,108 68,108 68,107 67,107 66,107" fill="none" stroke="#2f7df6" stroke-width="3" stroke-linecap="round" stroke-linejoin="round" opacity="0.95">
    <title>1322 b:1</title>
  </polyline>
<polyline points="150,45 151,45 151,44 152,44 153,44 153,43 154,43 154,42 155,42 155,41 156,41 156,40 156,39 157,39 157,38 158,38 158,37 159,37 159,36 159,35 159,34 159,33 159,32 159,31 160,31 160,30 160,29 160,28 160,27 160,26 159,26 159,25 159,24 159,23 158,23 158,22 158,21 157,21 157,20 157,19 156,19 156,18 155,18 154,18 154,17 153,17 152,17 152,16 151,16 150,16 150,15 149,15 148,15 147,15 147,14 146,14 145,14 144,14 143,14 142,14 141,14 140,14 140,15 139,15 138,15 137,15 137,16 136,16 135,16 134,16 133,17 132,17 131,17 131,18 130,18 129,19 128,19 127,19 127,20 126,20 126,21 125,21 125,22 124,22 124,23 123,23 123,24 122,25 122,26 121,26 121,27 121,28 120,28 120,29 119,30 119,31 118,32 118,33 117,33 117,34 117,35 117,36 116,37 116,38 116,39 116,40 116,41 116,42 116,43 117,43 117,44 117,45 118,45 118,46 118,47 119,47 119,48 120,49 121,50 122,50 123,50 124,50 125,50 125,51 126,51 127,51 128,51 129,51 130,51 131,51 132,51 133,51 133,50 134,50 135,50 136,50 136,49 137,49 138,49 139,49 139,48 140,48 141,48 142,48 143,48 144,48 145,48 146,48 146,47 147,47 148,47 148,46 149,46 150,45" fill="none" stroke="#8aff00" stroke-width="3" stroke-linecap="round" stroke-linejoin="round" opacity="0.95">
    <title>982 c:1</title>
  </polyline>
<polyline points="118,34 118,35 118,36 118,37 118,38 118,39 118,40 118,41 118,42 118,43 118,44 119,44 119,45 119,46 119,47 119,48 119,49 119,50 119,51 119,52 119,53 119,54 119,55 119,56 119,57 119,58 119,59 119,60 119,61 119,62 119,63 119,64 119,65 119,66 119,67 119,68 119,69 119,70 119,71 119,72 119,73 119,74 119,75 119,76 119,77 119,78 119,79 119,80 119,81 119,82 119,83 119,84 119,85 120,85 120,86 120,87 120,88 120,89 120,90 120,91 120,92 120,93 120,94 120,95 119,95 119,96 119,97 119,98 119,99 119,100 119,101 119,102 119,103 118,103 118,104" fill="none" stroke="#00f0b5" stroke-width="3" stroke-linecap="round" stroke-linejoin="round" opacity="0.95">
    <title>983 a:1</title>
  </polyline>
<polyline points="76,41 76,42 77,42 77,43 77,44 78,44 78,45 79,45 80,45 80,46 81,46 81,47 82,47 83,47 83,48 84,48 85,48 85,49 86,49 87,49 87,50 88,50 89,50 90,50 91,50 91,51 92,51 93,51 94,51 94,52 95,52 96,52 97,52 98,52 99,53 100,53 101,53 102,53 103,53 104,53 105,53 106,53 107,53 107,54 108,54 109,54 110,54 111,54 112,54 113,54 114,54 115,54 116,54 117,54 118,54 119,54 119,53 120,53 121,53 122,53 123,53 124,53 125,53 125,52 126,52 127,52 128,52 129,52 130,51 131,51 132,51 133,51 133,50 134,50 135,50 136,50 137,50 137,49 138,49 139,49 140,49 141,48 142,48 143,48 144,48 144,47 145,47 146,47 146,46 147,46 148,46 148,45 149,45" fill="none" stroke="#2f7df6" stroke-width="3" stroke-linecap="round" stroke-linejoin="round" opacity="0.95">
    <title>981 b:1</title>
  </polyline>
<polyline points="35,131 35,132 35,133 36,133 36,134 36,135 36,136 36,137 36,138 36,139 36,140 36,141 36,142 35,142 35,143 35,144 34,144 34,145 33,146 33,147 32,147 32,148 31,148 30,148 30,149 29,149 28,150 27,150 25,150 24,150 23,150 22,150 21,150 20,150 19,150 18,149 17,149 16,148 16,147 15,147 15,146 15,145 15,144 15,143 14,143 14,142 14,141 14,140 14,139 14,138 14,137 14,136 14,135 15,135 15,134 15,133 16,132 16,131 17,131 17,130 18,129 19,128 19,127 20,127 21,125 22,124 23,124 23,123 24,123 24,122 25,122 25,121 26,121 26,120 27,120 27,119 28,119 29,118 30,118 31,117 32,116 33,115 34,114 35,114 36,114 37,113 38,113 39,112 40,112 41,112 42,111 43,111 44,111 45,111 45,110 46,110 47,110 48,110 49,109 51,109 52,109 54,109 55,109 56,109 57,109 58,109 59,109 60,109 61,108 62,108 63,108 64,108 65,108 66,108 67,108 68,108 69,108 70,108 70,107 71,107 72,107 73,107 73,108" fill="none" stroke="#ff2d55" stroke-width="3" stroke-linecap="round" stroke-linejoin="round" opacity="0.95">
    <title>5493 d:1</title>
  </polyline>
<polyline points="118,219 117,219 116,220 115,220 115,221 114,221 114,222 113,222 112,222 112,223 111,223 110,223 109,223 108,223 107,223 106,222 105,222 105,221 104,221 103,221 103,220 102,220 102,219 101,219 101,218 101,217 100,217 100,216 100,215 100,214 100,213 100,212 100,211 100,210 100,209 101,209 101,208 101,207 102,207 102,206 103,206 104,205 105,205 105,204 106,203 107,203 107,202 108,202 108,201 109,201 110,201 111,200 112,200 113,199 114,199 115,199 116,199 117,199 117,198 118,198 119,198" fill="none" stroke="#f2e45c" stroke-width="3" stroke-linecap="round" stroke-linejoin="round" opacity="0.95">
    <title>991 e:1</title>
  </polyline>
<polyline points="120,198 120,199 121,199 121,200 122,200 122,201 122,202 122,203 123,203 123,204 123,205 124,205 124,206 124,207 125,207 125,208 125,209 126,210 126,211 127,212 127,213 128,213 128,214 128,215 129,215 129,216 130,217 130,218 131,218 131,219 131,220 132,220 132,221 132,222" fill="none" stroke="#00a2ff" stroke-width="3" stroke-linecap="round" stroke-linejoin="round" opacity="0.95">
    <title>992 f:1</title>
  </polyline>
<polyline points="166,218 166,219 165,219 165,220 164,220 163,220 163,221 162,221 161,221 160,221 159,221 158,221 157,221 156,221 156,220 155,220 154,220 153,220 153,219 152,219 151,219 151,218 151,217 151,216 151,215 151,214 151,213 151,212 152,212 152,211 152,210 152,209 153,209 153,208 153,207 154,207 154,206 154,205 155,205 156,205 156,204 157,204 157,203 158,203 159,203 159,202 160,202 161,202 162,202 162,201" fill="none" stroke="#f2e45c" stroke-width="3" stroke-linecap="round" stroke-linejoin="round" opacity="0.95">
    <title>993 e:1</title>
  </polyline>
<polyline points="162,201 163,201 164,201 165,201 165,200 166,200 167,200 168,200 169,200 170,200 171,200 172,200 173,200 174,200 175,200 176,200 177,200 177,199 178,199 179,199 180,199 181,199 182,199 183,199 184,199" fill="none" stroke="#7c3cff" stroke-width="3" stroke-linecap="round" stroke-linejoin="round" opacity="0.95">
    <title>995 g:1</title>
  </polyline>
<polyline points="185,213 184,213 184,214 183,214 183,215 182,215 182,216 181,216 180,216 179,216 178,216 177,216 177,215 176,215 176,214 175,214 175,213 175,212 175,211 175,210 175,209 175,208 175,207 176,206 176,205 177,205 177,204 177,203 178,203 178,202 179,202 180,201 181,201 181,200 182,200 182,199 183,199 184,199 185,199" fill="none" stroke="#f2e45c" stroke-width="3" stroke-linecap="round" stroke-linejoin="round" opacity="0.95">
    <title>994 e:1</title>
  </polyline>
<polyline points="208,214 208,215 207,215 207,216 206,216 205,216 205,217 204,217 203,217 202,217 201,217 200,217 199,217 198,217 198,216 197,216 196,216 195,216 195,215 194,215 193,215 193,214 193,213 193,212 193,211 193,210 193,209 193,208 194,208 194,207 194,206 194,205 195,205 195,204 195,203 196,203 196,202 196,201 197,201 198,201 198,200 199,200 199,199 200,199 201,199 201,198 202,198 203,198 204,198 204,197" fill="none" stroke="#f2e45c" stroke-width="3" stroke-linecap="round" stroke-linejoin="round" opacity="0.95">
    <title>996 e:1</title>
  </polyline>
<polyline points="204,197 204,198 205,198 205,199 206,199 206,200 207,200 207,201 207,202 208,202 208,203 209,204 209,205 210,205 210,206 210,207 211,207 211,208 211,209 211,210 211,211 211,212 211,213 211,214 211,215 211,216 211,217 211,218 211,219 211,220 211,221 210,221 210,222 210,223 209,223 209,224 209,225 208,226 208,227 207,227 207,228 207,229 206,229 206,230 206,231 205,231 205,232 204,232 204,233 204,234 203,234 203,235 202,235 202,236 201,236 201,237 200,237 200,238 199,238 199,239 198,239 198,240 197,240 197,241 197,242 196,242 196,243 195,243 195,244 195,245 194,245" fill="none" stroke="#ff8c00" stroke-width="3" stroke-linecap="round" stroke-linejoin="round" opacity="0.95">
    <title>997 h:1</title>
  </polyline>
<polyline points="239,202 240,202 240,203 241,203 241,204 242,204 242,205 243,205 244,206 245,207 246,207 246,208 247,208 247,209 248,209 248,210 249,210 249,211 250,211 250,212 251,212 251,213 251,214" fill="none" stroke="#00a2ff" stroke-width="3" stroke-linecap="round" stroke-linejoin="round" opacity="0.95">
    <title>999 f:1</title>
  </polyline>
<polyline points="239,201 240,201 240,200 241,200 241,199 242,199 242,198 243,198 243,197 244,197 245,197 245,196 246,195 247,195 247,194 248,194 248,193 249,193 249,192 250,192 250,191 250,190 251,190 251,189 252,189 252,188 253,187 253,186 253,185 254,185 254,184 254,183 255,183 255,182 255,181 255,180 256,180 256,179 256,178 256,177 256,176 257,176 257,175 257,174 257,173 257,172 258,172 258,171 258,170 258,169 258,168 258,167 258,166 258,165 258,164 258,163 258,162 258,161 258,160 257,160 257,159 256,158 256,157" fill="none" stroke="#00ff7f" stroke-width="3" stroke-linecap="round" stroke-linejoin="round" opacity="0.95">
    <title>1000 i:1</title>
  </polyline>
<polyline points="219,159 219,158 219,157 219,156 220,156 220,155 221,155 221,154 222,154 222,153 223,153 223,152 224,151 225,151 225,150 226,150 227,150 227,149 228,149 229,149 230,149 230,148 231,148 232,148 233,148 234,148 235,148 236,147 237,147 238,147 239,147 240,147 241,147 241,148 242,148 243,148 244,148 244,149 245,149 246,149 246,150 247,150 248,150 248,151 249,151 250,151 250,152 251,152 251,153 252,153 253,154 254,154 254,155 255,156 255,157 256,157" fill="none" stroke="#ff2d55" stroke-width="3" stroke-linecap="round" stroke-linejoin="round" opacity="0.95">
    <title>1002 d:1</title>
  </polyline>
</svg>
