<?xml version="1.0" encoding="UTF-8"?>
<svg xmlns="http://www.w3.org/2000/svg" width="74" height="63" viewBox="0 0 74 63">
  <title>atom 3056 m:1</title>
  <metadata>{&quot;entityType&quot;:&quot;atom&quot;,&quot;entityId&quot;:&quot;3056&quot;,&quot;token&quot;:&quot;m:1&quot;,&quot;signature&quot;:&quot;m:1&quot;,&quot;imageName&quot;:&quot;page-094.jpg&quot;,&quot;imageId&quot;:94,&quot;bounds&quot;:{&quot;x&quot;:1191,&quot;y&quot;:581,&quot;w&quot;:74,&quot;h&quot;:63},&quot;atoms&quot;:[{&quot;id&quot;:3056,&quot;token&quot;:&quot;m:1&quot;,&quot;particle_id&quot;:&quot;img94-m7-p1&quot;,&quot;molecule_id&quot;:&quot;img94-m7&quot;,&quot;atom_order&quot;:3}]}</metadata>
  <rect x="0" y="0" width="74" height="63" fill="#f8f0d8"/>
  <image href="file:///C:/Users/HHHES/AppData/Roaming/com.voynichlab.datasetcreator/images/1/33b1988f-7aaa-4207-bfa8-f26b742ac4b1.jpg" x="-1191" y="-581" width="2932" height="3769" opacity="0.92"/>
  <rect x="0.5" y="0.5" width="73" height="62" fill="none" stroke="#111827" stroke-width="1" opacity="0.35"/>
  <polyline points="38,47 38,46 38,45 38,44 38,43 38,42 38,41 38,40 38,39 38,38 38,37 38,36 38,35 38,34 38,33 38,32 38,31 38,30 38,29 38,28 38,27 38,26 39,26 39,25 39,24 39,23 39,22 39,21 39,20 40,19 40,18 40,17 40,16 39,16 38,16 37,17 36,17 35,18 34,18 33,19 32,20 31,20 31,21 30,21 29,22 28,23 27,24 26,24 26,25 25,25 25,26 24,26 24,27 23,27 23,28 22,28 22,29 21,29 21,30 20,30 20,31 19,31 19,32 18,32 17,33 16,33 16,34 17,34 18,34 19,34 20,34 21,34 22,34 23,34 24,34 25,34 26,34 27,34 28,34 29,34 30,34 31,34 32,34 33,34 34,34 35,34 36,34 37,34 38,34 40,34 41,34 42,34 43,34 43,33 44,33 45,33 46,33 47,33 48,33 49,33 50,33 51,33 52,33 53,33 54,33 54,32 55,32 56,32 57,32 57,31 58,31" fill="none" stroke="#ff00ff" stroke-width="3" stroke-linecap="round" stroke-linejoin="round" opacity="0.95">
    <title>3056 m:1</title>
  </polyline>
</svg>
