<?xml version="1.0" encoding="UTF-8"?>
<svg xmlns="http://www.w3.org/2000/svg" width="94" height="65" viewBox="0 0 94 65">
  <title>atom 3059 m:1</title>
  <metadata>{&quot;entityType&quot;:&quot;atom&quot;,&quot;entityId&quot;:&quot;3059&quot;,&quot;token&quot;:&quot;m:1&quot;,&quot;signature&quot;:&quot;m:1&quot;,&quot;imageName&quot;:&quot;page-094.jpg&quot;,&quot;imageId&quot;:94,&quot;bounds&quot;:{&quot;x&quot;:1774,&quot;y&quot;:794,&quot;w&quot;:94,&quot;h&quot;:65},&quot;atoms&quot;:[{&quot;id&quot;:3059,&quot;token&quot;:&quot;m:1&quot;,&quot;particle_id&quot;:&quot;img94-m24-p1&quot;,&quot;molecule_id&quot;:&quot;img94-m24&quot;,&quot;atom_order&quot;:2}]}</metadata>
  <rect x="0" y="0" width="94" height="65" fill="#f8f0d8"/>
  <image href="file:///C:/Users/HHHES/AppData/Roaming/com.voynichlab.datasetcreator/images/1/33b1988f-7aaa-4207-bfa8-f26b742ac4b1.jpg" x="-1774" y="-794" width="2932" height="3769" opacity="0.92"/>
  <rect x="0.5" y="0.5" width="93" height="64" fill="none" stroke="#111827" stroke-width="1" opacity="0.35"/>
  <polyline points="41,49 41,48 41,47 42,47 42,46 42,45 42,44 42,43 42,42 42,41 42,40 42,39 42,38 43,37 43,36 43,35 43,34 44,34 44,33 44,32 44,31 44,30 44,29 45,29 45,28 45,27 46,27 46,26 46,25 46,24 46,23 46,22 46,21 47,20 47,19 47,18 47,17 47,16 46,16 45,17 44,17 43,17 43,18 42,18 41,18 40,18 40,19 39,19 38,19 37,19 36,19 36,20 35,20 34,21 33,21 32,22 31,22 31,23 30,23 30,24 29,24 29,25 28,25 28,26 27,26 26,26 26,27 25,27 24,27 24,28 23,28 22,28 22,29 21,29 21,30 20,30 19,31 18,32 18,33 17,33 16,33 16,34 16,35 16,36 17,36 18,36 19,36 20,36 21,36 22,36 23,36 24,36 25,36 26,36 27,36 28,36 29,36 30,36 31,36 32,35 33,35 34,35 35,35 36,35 37,35 38,35 39,35 40,35 41,35 42,35 42,34 43,34 44,34 45,34 46,34 47,34 48,34 49,34 50,34 51,34 52,34 53,33 54,33 55,33 56,33 57,33 58,33 59,33 60,33 61,33 62,33 63,33 63,32 64,32 65,32 66,32 67,32 68,32 69,32 70,32 71,32 71,31 72,31 73,31 74,31 75,31 76,31 77,31 78,31" fill="none" stroke="#ff00ff" stroke-width="3" stroke-linecap="round" stroke-linejoin="round" opacity="0.95">
    <title>3059 m:1</title>
  </polyline>
</svg>
