<?xml version="1.0" encoding="UTF-8"?>
<svg xmlns="http://www.w3.org/2000/svg" width="88" height="66" viewBox="0 0 88 66">
  <title>atom 4340 m:1</title>
  <metadata>{&quot;entityType&quot;:&quot;atom&quot;,&quot;entityId&quot;:&quot;4340&quot;,&quot;token&quot;:&quot;m:1&quot;,&quot;signature&quot;:&quot;m:1&quot;,&quot;imageName&quot;:&quot;page-094.jpg&quot;,&quot;imageId&quot;:94,&quot;bounds&quot;:{&quot;x&quot;:799,&quot;y&quot;:2580,&quot;w&quot;:88,&quot;h&quot;:66},&quot;atoms&quot;:[{&quot;id&quot;:4340,&quot;token&quot;:&quot;m:1&quot;,&quot;particle_id&quot;:&quot;img94-m53-p2&quot;,&quot;molecule_id&quot;:&quot;img94-m53&quot;,&quot;atom_order&quot;:2}]}</metadata>
  <rect x="0" y="0" width="88" height="66" fill="#f8f0d8"/>
  <image href="file:///C:/Users/HHHES/AppData/Roaming/com.voynichlab.datasetcreator/images/1/33b1988f-7aaa-4207-bfa8-f26b742ac4b1.jpg" x="-799" y="-2580" width="2932" height="3769" opacity="0.92"/>
  <rect x="0.5" y="0.5" width="87" height="65" fill="none" stroke="#111827" stroke-width="1" opacity="0.35"/>
  <polyline points="40,50 40,49 40,48 40,47 40,46 40,45 40,44 40,43 40,42 40,41 40,40 40,39 40,38 40,37 40,36 40,35 40,34 41,34 41,33 41,32 41,31 41,30 41,29 41,28 41,27 41,26 41,25 41,24 41,23 41,22 41,21 41,20 41,19 41,18 41,17 41,16 40,16 39,16 38,17 37,17 37,18 36,18 36,19 35,19 34,20 33,20 33,21 32,21 31,21 31,22 30,22 29,22 29,23 28,23 27,24 26,24 26,25 25,25 24,26 23,26 22,27 21,28 20,28 20,29 19,29 19,30 19,31 18,31 18,32 17,32 17,33 16,34 16,35 16,36 17,36 19,36 20,36 21,36 22,36 23,36 24,36 25,36 26,36 27,36 28,36 29,36 30,36 31,36 32,36 33,36 34,36 35,36 36,36 37,36 38,36 39,36 40,36 41,36 42,36 43,36 44,36 45,36 46,35 47,35 48,35 49,35 50,35 51,35 52,35 53,35 54,35 55,35 56,35 57,35 58,35 59,35 60,35 61,35 62,35 63,35 64,35 65,35 66,35 67,35 68,35 69,35 70,35 71,35 72,35 72,34" fill="none" stroke="#ff00ff" stroke-width="3" stroke-linecap="round" stroke-linejoin="round" opacity="0.95">
    <title>4340 m:1</title>
  </polyline>
</svg>
