<?xml version="1.0" encoding="UTF-8"?>
<svg xmlns="http://www.w3.org/2000/svg" width="86" height="64" viewBox="0 0 86 64">
  <title>atom 4577 m:1</title>
  <metadata>{&quot;entityType&quot;:&quot;atom&quot;,&quot;entityId&quot;:&quot;4577&quot;,&quot;token&quot;:&quot;m:1&quot;,&quot;signature&quot;:&quot;m:1&quot;,&quot;imageName&quot;:&quot;page-094.jpg&quot;,&quot;imageId&quot;:94,&quot;bounds&quot;:{&quot;x&quot;:1058,&quot;y&quot;:2649,&quot;w&quot;:86,&quot;h&quot;:64},&quot;atoms&quot;:[{&quot;id&quot;:4577,&quot;token&quot;:&quot;m:1&quot;,&quot;particle_id&quot;:&quot;img94-m59-p7&quot;,&quot;molecule_id&quot;:&quot;img94-m59&quot;,&quot;atom_order&quot;:2}]}</metadata>
  <rect x="0" y="0" width="86" height="64" fill="#f8f0d8"/>
  <image href="file:///C:/Users/HHHES/AppData/Roaming/com.voynichlab.datasetcreator/images/1/33b1988f-7aaa-4207-bfa8-f26b742ac4b1.jpg" x="-1058" y="-2649" width="2932" height="3769" opacity="0.92"/>
  <rect x="0.5" y="0.5" width="85" height="63" fill="none" stroke="#111827" stroke-width="1" opacity="0.35"/>
  <polyline points="42,48 42,47 42,46 42,45 42,44 42,43 43,42 43,41 43,40 43,39 43,38 43,37 43,36 43,35 43,34 43,33 43,32 43,31 43,30 43,29 43,28 43,27 43,26 43,25 43,24 43,23 42,22 42,21 42,20 42,19 42,18 42,17 42,16 41,16 40,16 39,16 39,17 38,17 37,18 36,18 35,19 34,19 34,20 33,20 32,21 31,21 30,21 30,22 29,22 29,23 28,23 27,24 26,24 26,25 25,26 24,26 24,27 23,28 22,29 21,30 20,31 19,32 19,33 18,33 17,34 17,35 16,35 16,36 17,36 18,36 20,36 21,36 22,36 23,36 24,36 25,36 26,36 27,36 28,36 29,36 30,36 31,36 32,36 34,36 35,36 37,36 38,36 39,36 40,36 41,36 43,36 44,36 45,36 48,36 50,36 51,36 52,36 53,36 54,35 55,35 56,35 58,35 59,35 60,35 62,35 63,35 64,35 65,35 67,35 68,36 69,36 70,36" fill="none" stroke="#ff00ff" stroke-width="3" stroke-linecap="round" stroke-linejoin="round" opacity="0.95">
    <title>4577 m:1</title>
  </polyline>
</svg>
