<?xml version="1.0" encoding="UTF-8"?>
<svg xmlns="http://www.w3.org/2000/svg" width="78" height="64" viewBox="0 0 78 64">
  <title>atom 4580 m:1</title>
  <metadata>{&quot;entityType&quot;:&quot;atom&quot;,&quot;entityId&quot;:&quot;4580&quot;,&quot;token&quot;:&quot;m:1&quot;,&quot;signature&quot;:&quot;m:1&quot;,&quot;imageName&quot;:&quot;page-094.jpg&quot;,&quot;imageId&quot;:94,&quot;bounds&quot;:{&quot;x&quot;:1022,&quot;y&quot;:3010,&quot;w&quot;:78,&quot;h&quot;:64},&quot;atoms&quot;:[{&quot;id&quot;:4580,&quot;token&quot;:&quot;m:1&quot;,&quot;particle_id&quot;:&quot;img94-m82-p1&quot;,&quot;molecule_id&quot;:&quot;img94-m82&quot;,&quot;atom_order&quot;:3}]}</metadata>
  <rect x="0" y="0" width="78" height="64" fill="#f8f0d8"/>
  <image href="file:///C:/Users/HHHES/AppData/Roaming/com.voynichlab.datasetcreator/images/1/33b1988f-7aaa-4207-bfa8-f26b742ac4b1.jpg" x="-1022" y="-3010" width="2932" height="3769" opacity="0.92"/>
  <rect x="0.5" y="0.5" width="77" height="63" fill="none" stroke="#111827" stroke-width="1" opacity="0.35"/>
  <polyline points="39,48 39,47 39,46 39,44 39,43 39,41 40,39 40,38 40,36 40,35 40,34 40,33 40,32 40,31 41,30 41,29 41,28 41,27 41,26 41,25 42,24 42,23 42,22 42,21 42,20 42,19 42,18 42,17 42,16 41,16 40,16 39,16 38,17 37,17 35,18 34,19 33,20 31,21 31,22 30,23 29,23 29,24 28,24 26,25 25,25 24,26 23,26 22,27 22,28 21,28 20,29 20,30 19,30 19,31 18,31 18,32 17,32 17,33 17,34 16,34 16,35 16,36 16,37 17,37 18,37 19,37 20,37 21,36 22,36 23,36 24,36 26,36 29,37 31,37 32,37 33,37 35,37 36,37 37,37 38,37 39,37 40,37 41,37 43,37 46,38 47,38 48,38 49,38 50,38 51,39 52,39 53,39 55,39 56,39 58,39 60,39 61,39 62,39" fill="none" stroke="#ff00ff" stroke-width="3" stroke-linecap="round" stroke-linejoin="round" opacity="0.95">
    <title>4580 m:1</title>
  </polyline>
</svg>
