<?xml version="1.0" encoding="UTF-8"?>
<svg xmlns="http://www.w3.org/2000/svg" width="57" height="63" viewBox="0 0 57 63">
  <title>atom 5195 i:1</title>
  <metadata>{&quot;entityType&quot;:&quot;atom&quot;,&quot;entityId&quot;:&quot;5195&quot;,&quot;token&quot;:&quot;i:1&quot;,&quot;signature&quot;:&quot;i:1&quot;,&quot;imageName&quot;:&quot;page-004.jpg&quot;,&quot;imageId&quot;:4,&quot;bounds&quot;:{&quot;x&quot;:677,&quot;y&quot;:1859,&quot;w&quot;:57,&quot;h&quot;:63},&quot;atoms&quot;:[{&quot;id&quot;:5195,&quot;token&quot;:&quot;i:1&quot;,&quot;particle_id&quot;:&quot;img4-m1-p3&quot;,&quot;molecule_id&quot;:&quot;img4-m1&quot;,&quot;atom_order&quot;:2}]}</metadata>
  <rect x="0" y="0" width="57" height="63" fill="#f8f0d8"/>
  
  <rect x="0.5" y="0.5" width="56" height="62" fill="none" stroke="#111827" stroke-width="1" opacity="0.35"/>
  <polyline points="16,47 17,47 17,46 18,46 18,45 19,45 20,45 20,44 21,44 22,44 23,43 24,43 24,42 25,42 26,42 26,41 27,41 28,41 28,40 29,40 30,40 30,39 31,39 32,38 33,37 34,37 34,36 35,36 36,35 37,34 38,33 38,32 39,32 39,31 39,30 40,29 40,28 40,27 41,26 41,25 41,24 41,23 41,22 41,21 40,21 40,20 39,20 39,19 38,19 37,18 36,18 35,17 34,17 34,16 33,16" fill="none" stroke="#00ff7f" stroke-width="3" stroke-linecap="round" stroke-linejoin="round" opacity="0.95">
    <title>5195 i:1</title>
  </polyline>
</svg>
