<?xml version="1.0" encoding="UTF-8"?>
<svg xmlns="http://www.w3.org/2000/svg" width="60" height="62" viewBox="0 0 60 62">
  <title>atom 5197 i:1</title>
  <metadata>{&quot;entityType&quot;:&quot;atom&quot;,&quot;entityId&quot;:&quot;5197&quot;,&quot;token&quot;:&quot;i:1&quot;,&quot;signature&quot;:&quot;i:1&quot;,&quot;imageName&quot;:&quot;page-004.jpg&quot;,&quot;imageId&quot;:4,&quot;bounds&quot;:{&quot;x&quot;:2150,&quot;y&quot;:1965,&quot;w&quot;:60,&quot;h&quot;:62},&quot;atoms&quot;:[{&quot;id&quot;:5197,&quot;token&quot;:&quot;i:1&quot;,&quot;particle_id&quot;:&quot;img4-m10-p3&quot;,&quot;molecule_id&quot;:&quot;img4-m10&quot;,&quot;atom_order&quot;:2}]}</metadata>
  <rect x="0" y="0" width="60" height="62" fill="#f8f0d8"/>
  
  <rect x="0.5" y="0.5" width="59" height="61" fill="none" stroke="#111827" stroke-width="1" opacity="0.35"/>
  <polyline points="16,45 17,45 18,45 19,45 20,45 21,45 22,46 23,46 24,46 25,46 25,45 26,45 27,45 28,45 28,44 29,44 30,43 31,43 31,42 32,42 32,41 33,41 34,41 34,40 35,40 35,39 36,39 36,38 37,38 38,37 38,36 39,36 40,35 40,34 41,34 41,33 41,32 42,32 42,31 42,30 43,30 43,29 43,28 43,27 43,26 44,26 44,25 44,24 44,23 44,22 44,21 43,21 43,20 43,19 43,18 42,18 42,17 41,17 41,16" fill="none" stroke="#00ff7f" stroke-width="3" stroke-linecap="round" stroke-linejoin="round" opacity="0.95">
    <title>5197 i:1</title>
  </polyline>
</svg>
