<?xml version="1.0" encoding="UTF-8"?>
<svg xmlns="http://www.w3.org/2000/svg" width="40" height="64" viewBox="0 0 40 64">
  <title>atom 6069 h:2</title>
  <metadata>{&quot;entityType&quot;:&quot;atom&quot;,&quot;entityId&quot;:&quot;6069&quot;,&quot;token&quot;:&quot;h:2&quot;,&quot;signature&quot;:&quot;h:2&quot;,&quot;imageName&quot;:&quot;page-005.jpg&quot;,&quot;imageId&quot;:5,&quot;bounds&quot;:{&quot;x&quot;:890,&quot;y&quot;:496,&quot;w&quot;:40,&quot;h&quot;:64},&quot;atoms&quot;:[{&quot;id&quot;:6069,&quot;token&quot;:&quot;h:2&quot;,&quot;particle_id&quot;:&quot;img5-m5-p1&quot;,&quot;molecule_id&quot;:&quot;img5-m5&quot;,&quot;atom_order&quot;:3}]}</metadata>
  <rect x="0" y="0" width="40" height="64" fill="#f8f0d8"/>
  <image href="file:///C:/Users/HHHES/AppData/Roaming/com.voynichlab.datasetcreator/images/1/a6cd3b6e-2a78-4b30-a4be-5d186aea258e.jpg" x="-890" y="-496" width="2691" height="3770" opacity="0.92"/>
  <rect x="0.5" y="0.5" width="39" height="63" fill="none" stroke="#111827" stroke-width="1" opacity="0.35"/>
  <polyline points="20,48 21,48 21,47 22,47 22,46 23,46 23,45 24,44 24,43 24,42 24,41 24,40 24,39 24,38 24,37 24,36 23,36 23,35 22,34 21,33 20,33 20,32 19,32 19,31 18,30 18,29 17,29 17,28 16,28 16,27 16,26 16,25 16,24 16,23 16,22 16,21 16,20 16,19 17,19 17,18 18,18 18,17 19,17 20,17 21,17 22,16 23,16" fill="none" stroke="#ff8c00" stroke-width="3" stroke-linecap="round" stroke-linejoin="round" opacity="0.95">
    <title>6069 h:2</title>
  </polyline>
</svg>
