<?xml version="1.0" encoding="UTF-8"?>
<svg xmlns="http://www.w3.org/2000/svg" width="45" height="69" viewBox="0 0 45 69">
  <title>atom 6072 h:2</title>
  <metadata>{&quot;entityType&quot;:&quot;atom&quot;,&quot;entityId&quot;:&quot;6072&quot;,&quot;token&quot;:&quot;h:2&quot;,&quot;signature&quot;:&quot;h:2&quot;,&quot;imageName&quot;:&quot;page-005.jpg&quot;,&quot;imageId&quot;:5,&quot;bounds&quot;:{&quot;x&quot;:2037,&quot;y&quot;:732,&quot;w&quot;:45,&quot;h&quot;:69},&quot;atoms&quot;:[{&quot;id&quot;:6072,&quot;token&quot;:&quot;h:2&quot;,&quot;particle_id&quot;:&quot;img5-m26-p6&quot;,&quot;molecule_id&quot;:&quot;img5-m26&quot;,&quot;atom_order&quot;:3}]}</metadata>
  <rect x="0" y="0" width="45" height="69" fill="#f8f0d8"/>
  <image href="file:///C:/Users/HHHES/AppData/Roaming/com.voynichlab.datasetcreator/images/1/a6cd3b6e-2a78-4b30-a4be-5d186aea258e.jpg" x="-2037" y="-732" width="2691" height="3770" opacity="0.92"/>
  <rect x="0.5" y="0.5" width="44" height="68" fill="none" stroke="#111827" stroke-width="1" opacity="0.35"/>
  <polyline points="20,53 21,52 22,52 23,52 24,51 25,51 26,51 26,50 27,50 28,49 29,48 29,47 29,46 29,45 29,44 29,43 28,42 28,41 27,41 27,40 26,39 25,39 25,38 24,37 23,37 23,36 22,36 22,35 21,35 21,34 20,34 20,33 19,33 18,32 17,31 17,30 16,29 16,28 16,27 16,26 16,25 16,24 17,23 17,22 17,21 18,21 18,20 18,19 19,19 19,18 20,18 21,17 22,17 22,16 23,16" fill="none" stroke="#ff8c00" stroke-width="3" stroke-linecap="round" stroke-linejoin="round" opacity="0.95">
    <title>6072 h:2</title>
  </polyline>
</svg>
