<?xml version="1.0" encoding="UTF-8"?>
<svg xmlns="http://www.w3.org/2000/svg" width="40" height="63" viewBox="0 0 40 63">
  <title>atom 6078 h:2</title>
  <metadata>{&quot;entityType&quot;:&quot;atom&quot;,&quot;entityId&quot;:&quot;6078&quot;,&quot;token&quot;:&quot;h:2&quot;,&quot;signature&quot;:&quot;h:2&quot;,&quot;imageName&quot;:&quot;page-005.jpg&quot;,&quot;imageId&quot;:5,&quot;bounds&quot;:{&quot;x&quot;:1481,&quot;y&quot;:822,&quot;w&quot;:40,&quot;h&quot;:63},&quot;atoms&quot;:[{&quot;id&quot;:6078,&quot;token&quot;:&quot;h:2&quot;,&quot;particle_id&quot;:&quot;img5-m29-p1&quot;,&quot;molecule_id&quot;:&quot;img5-m29&quot;,&quot;atom_order&quot;:3}]}</metadata>
  <rect x="0" y="0" width="40" height="63" fill="#f8f0d8"/>
  <image href="file:///C:/Users/HHHES/AppData/Roaming/com.voynichlab.datasetcreator/images/1/a6cd3b6e-2a78-4b30-a4be-5d186aea258e.jpg" x="-1481" y="-822" width="2691" height="3770" opacity="0.92"/>
  <rect x="0.5" y="0.5" width="39" height="62" fill="none" stroke="#111827" stroke-width="1" opacity="0.35"/>
  <polyline points="20,47 21,47 22,46 23,45 24,44 24,43 24,42 24,41 24,40 24,39 24,38 24,37 24,36 23,36 23,35 22,35 21,34 21,33 20,33 19,32 18,32 18,31 17,30 17,29 17,27 16,27 16,25 17,24 17,23 18,21 18,20 19,19 19,18 20,17 21,17 22,17 22,16" fill="none" stroke="#ff8c00" stroke-width="3" stroke-linecap="round" stroke-linejoin="round" opacity="0.95">
    <title>6078 h:2</title>
  </polyline>
</svg>
