<?xml version="1.0" encoding="UTF-8"?>
<svg xmlns="http://www.w3.org/2000/svg" width="41" height="63" viewBox="0 0 41 63">
  <title>atom 6079 h:2</title>
  <metadata>{&quot;entityType&quot;:&quot;atom&quot;,&quot;entityId&quot;:&quot;6079&quot;,&quot;token&quot;:&quot;h:2&quot;,&quot;signature&quot;:&quot;h:2&quot;,&quot;imageName&quot;:&quot;page-005.jpg&quot;,&quot;imageId&quot;:5,&quot;bounds&quot;:{&quot;x&quot;:1991,&quot;y&quot;:820,&quot;w&quot;:41,&quot;h&quot;:63},&quot;atoms&quot;:[{&quot;id&quot;:6079,&quot;token&quot;:&quot;h:2&quot;,&quot;particle_id&quot;:&quot;img5-m27-p1&quot;,&quot;molecule_id&quot;:&quot;img5-m27&quot;,&quot;atom_order&quot;:3}]}</metadata>
  <rect x="0" y="0" width="41" height="63" fill="#f8f0d8"/>
  <image href="file:///C:/Users/HHHES/AppData/Roaming/com.voynichlab.datasetcreator/images/1/a6cd3b6e-2a78-4b30-a4be-5d186aea258e.jpg" x="-1991" y="-820" width="2691" height="3770" opacity="0.92"/>
  <rect x="0.5" y="0.5" width="40" height="62" fill="none" stroke="#111827" stroke-width="1" opacity="0.35"/>
  <polyline points="19,47 20,47 21,46 22,46 23,46 24,46 24,45 25,45 25,44 25,43 25,42 24,41 23,40 22,39 21,38 20,37 20,36 19,36 19,35 18,35 18,34 18,33 18,32 17,32 17,31 16,30 16,29 16,28 16,27 16,26 16,25 16,24 16,22 16,21 17,20 17,19 18,19 18,18 19,17 20,16" fill="none" stroke="#ff8c00" stroke-width="3" stroke-linecap="round" stroke-linejoin="round" opacity="0.95">
    <title>6079 h:2</title>
  </polyline>
</svg>
