<?xml version="1.0" encoding="UTF-8"?>
<svg xmlns="http://www.w3.org/2000/svg" width="43" height="64" viewBox="0 0 43 64">
  <title>atom 6080 h:2</title>
  <metadata>{&quot;entityType&quot;:&quot;atom&quot;,&quot;entityId&quot;:&quot;6080&quot;,&quot;token&quot;:&quot;h:2&quot;,&quot;signature&quot;:&quot;h:2&quot;,&quot;imageName&quot;:&quot;page-005.jpg&quot;,&quot;imageId&quot;:5,&quot;bounds&quot;:{&quot;x&quot;:1812,&quot;y&quot;:894,&quot;w&quot;:43,&quot;h&quot;:64},&quot;atoms&quot;:[{&quot;id&quot;:6080,&quot;token&quot;:&quot;h:2&quot;,&quot;particle_id&quot;:&quot;img5-m41-p1&quot;,&quot;molecule_id&quot;:&quot;img5-m41&quot;,&quot;atom_order&quot;:3}]}</metadata>
  <rect x="0" y="0" width="43" height="64" fill="#f8f0d8"/>
  <image href="file:///C:/Users/HHHES/AppData/Roaming/com.voynichlab.datasetcreator/images/1/a6cd3b6e-2a78-4b30-a4be-5d186aea258e.jpg" x="-1812" y="-894" width="2691" height="3770" opacity="0.92"/>
  <rect x="0.5" y="0.5" width="42" height="63" fill="none" stroke="#111827" stroke-width="1" opacity="0.35"/>
  <polyline points="21,48 22,48 23,48 24,47 25,46 26,46 26,45 27,45 27,44 27,43 27,42 27,41 27,40 27,39 26,38 26,37 25,35 24,34 24,33 23,32 22,32 21,31 21,30 20,30 20,29 19,29 19,28 18,28 17,27 16,26 16,25 16,24 16,23 16,22 16,20 17,19 18,18 18,17 19,17 21,17 21,16" fill="none" stroke="#ff8c00" stroke-width="3" stroke-linecap="round" stroke-linejoin="round" opacity="0.95">
    <title>6080 h:2</title>
  </polyline>
</svg>
