<?xml version="1.0" encoding="UTF-8"?>
<svg xmlns="http://www.w3.org/2000/svg" width="40" height="67" viewBox="0 0 40 67">
  <title>atom 6094 h:2</title>
  <metadata>{&quot;entityType&quot;:&quot;atom&quot;,&quot;entityId&quot;:&quot;6094&quot;,&quot;token&quot;:&quot;h:2&quot;,&quot;signature&quot;:&quot;h:2&quot;,&quot;imageName&quot;:&quot;page-005.jpg&quot;,&quot;imageId&quot;:5,&quot;bounds&quot;:{&quot;x&quot;:1976,&quot;y&quot;:2520,&quot;w&quot;:40,&quot;h&quot;:67},&quot;atoms&quot;:[{&quot;id&quot;:6094,&quot;token&quot;:&quot;h:2&quot;,&quot;particle_id&quot;:&quot;img5-m60-p1&quot;,&quot;molecule_id&quot;:&quot;img5-m60&quot;,&quot;atom_order&quot;:3}]}</metadata>
  <rect x="0" y="0" width="40" height="67" fill="#f8f0d8"/>
  <image href="file:///C:/Users/HHHES/AppData/Roaming/com.voynichlab.datasetcreator/images/1/a6cd3b6e-2a78-4b30-a4be-5d186aea258e.jpg" x="-1976" y="-2520" width="2691" height="3770" opacity="0.92"/>
  <rect x="0.5" y="0.5" width="39" height="66" fill="none" stroke="#111827" stroke-width="1" opacity="0.35"/>
  <polyline points="24,16 23,16 22,16 22,17 21,17 20,17 20,18 19,18 18,18 18,19 17,19 17,20 16,21 16,22 16,23 16,24 16,25 16,26 16,27 17,27 17,28 17,29 17,30 18,31 18,32 19,33 19,34 19,35 20,35 20,36 20,37 20,38 21,39 21,40 21,41 21,42 21,43 21,44 21,45 21,46 21,47 21,48 21,49 21,50 20,50 20,51" fill="none" stroke="#ff8c00" stroke-width="3" stroke-linecap="round" stroke-linejoin="round" opacity="0.95">
    <title>6094 h:2</title>
  </polyline>
</svg>
