<?xml version="1.0" encoding="UTF-8"?>
<svg xmlns="http://www.w3.org/2000/svg" width="61" height="71" viewBox="0 0 61 71">
  <title>particle img4-m14-p1 e:1 c:1 h:2</title>
  <metadata>{&quot;entityType&quot;:&quot;particle&quot;,&quot;entityId&quot;:&quot;img4-m14-p1&quot;,&quot;token&quot;:&quot;e:1 c:1 h:2&quot;,&quot;signature&quot;:&quot;e:1 c:1 h:2&quot;,&quot;imageName&quot;:&quot;page-004.jpg&quot;,&quot;imageId&quot;:4,&quot;bounds&quot;:{&quot;x&quot;:1707,&quot;y&quot;:2014,&quot;w&quot;:61,&quot;h&quot;:71},&quot;atoms&quot;:[{&quot;id&quot;:4946,&quot;token&quot;:&quot;e:1&quot;,&quot;particle_id&quot;:&quot;img4-m14-p1&quot;,&quot;molecule_id&quot;:&quot;img4-m14&quot;,&quot;atom_order&quot;:1},{&quot;id&quot;:4778,&quot;token&quot;:&quot;c:1&quot;,&quot;particle_id&quot;:&quot;img4-m14-p1&quot;,&quot;molecule_id&quot;:&quot;img4-m14&quot;,&quot;atom_order&quot;:2},{&quot;id&quot;:5301,&quot;token&quot;:&quot;h:2&quot;,&quot;particle_id&quot;:&quot;img4-m14-p1&quot;,&quot;molecule_id&quot;:&quot;img4-m14&quot;,&quot;atom_order&quot;:3}]}</metadata>
  <rect x="0" y="0" width="61" height="71" fill="#f8f0d8"/>
  <image href="file:///C:/Users/HHHES/AppData/Roaming/com.voynichlab.datasetcreator/images/1/aff30327-ced8-4ab4-8c9b-190205ebe022.jpg" x="-1707" y="-2014" width="2804" height="3797" opacity="0.92"/>
  <rect x="0.5" y="0.5" width="60" height="70" fill="none" stroke="#111827" stroke-width="1" opacity="0.35"/>
  <polyline points="31,52 31,53 30,53 30,54 29,54 28,54 28,55 27,55 26,55 25,55 24,55 23,55 22,55 21,55 21,54 20,54 19,54 18,54 18,53 17,53 16,53 16,52 16,51 16,50 16,49 16,48 16,47 16,46 17,46 17,45 17,44 17,43 18,43 18,42 18,41 19,41 19,40 19,39 20,39 21,39 21,38 22,38 22,37 23,37 24,37 24,36 25,36 26,36 27,36 27,35" fill="none" stroke="#f2e45c" stroke-width="3" stroke-linecap="round" stroke-linejoin="round" opacity="0.95">
    <title>4946 e:1</title>
  </polyline>
  <polyline points="38,30 39,30 39,29 40,29 41,28 41,27 42,27 43,26 44,26 44,25 44,24 45,23 45,22 45,21 44,21 44,20 44,19 43,19 43,18 42,18 42,17 41,17 40,16 39,16 38,16 37,16 36,16 35,16 34,16 33,16 32,17 31,17 30,18 29,19 29,20 28,20 28,21 28,22 28,23 28,24 28,25 28,26 28,27 28,28 28,29 28,30 29,31 30,32 31,32 32,32 33,32 34,32 35,32 36,32 36,31 37,31 37,30 38,30 38,29 39,29" fill="none" stroke="#8aff00" stroke-width="3" stroke-linecap="round" stroke-linejoin="round" opacity="0.95">
    <title>4778 c:1</title>
  </polyline>
  <polyline points="28,55 28,54 29,54 30,53 30,52 30,51 31,50 31,49 31,48 31,47 31,46 31,45 31,44 31,43 31,42 30,42 30,41 30,40 30,39 29,39 29,38 28,37 27,36 27,35 27,34 27,33 27,31 27,30 27,29 27,28 28,26 28,24 29,23 29,22 29,21 30,20 30,19 30,18 31,18 32,17 33,17 34,16 35,16" fill="none" stroke="#ff8c00" stroke-width="3" stroke-linecap="round" stroke-linejoin="round" opacity="0.95">
    <title>5301 h:2</title>
  </polyline>
</svg>
