<?xml version="1.0" encoding="UTF-8"?>
<svg xmlns="http://www.w3.org/2000/svg" width="97" height="142" viewBox="0 0 97 142">
  <title>particle img4-m5-p3 a:1 e:1 b:1 c:1 a:1</title>
  <metadata>{&quot;entityType&quot;:&quot;particle&quot;,&quot;entityId&quot;:&quot;img4-m5-p3&quot;,&quot;token&quot;:&quot;a:1 e:1 b:1 c:1 a:1&quot;,&quot;signature&quot;:&quot;a:1 e:1 b:1 c:1 a:1&quot;,&quot;imageName&quot;:&quot;page-004.jpg&quot;,&quot;imageId&quot;:4,&quot;bounds&quot;:{&quot;x&quot;:1848,&quot;y&quot;:1873,&quot;w&quot;:97,&quot;h&quot;:142},&quot;atoms&quot;:[{&quot;id&quot;:4656,&quot;token&quot;:&quot;a:1&quot;,&quot;particle_id&quot;:&quot;img4-m5-p3&quot;,&quot;molecule_id&quot;:&quot;img4-m5&quot;,&quot;atom_order&quot;:1},{&quot;id&quot;:4923,&quot;token&quot;:&quot;e:1&quot;,&quot;particle_id&quot;:&quot;img4-m5-p3&quot;,&quot;molecule_id&quot;:&quot;img4-m5&quot;,&quot;atom_order&quot;:2},{&quot;id&quot;:4728,&quot;token&quot;:&quot;b:1&quot;,&quot;particle_id&quot;:&quot;img4-m5-p3&quot;,&quot;molecule_id&quot;:&quot;img4-m5&quot;,&quot;atom_order&quot;:3},{&quot;id&quot;:5236,&quot;token&quot;:&quot;c:1&quot;,&quot;particle_id&quot;:&quot;img4-m5-p3&quot;,&quot;molecule_id&quot;:&quot;img4-m5&quot;,&quot;atom_order&quot;:4},{&quot;id&quot;:4657,&quot;token&quot;:&quot;a:1&quot;,&quot;particle_id&quot;:&quot;img4-m5-p3&quot;,&quot;molecule_id&quot;:&quot;img4-m5&quot;,&quot;atom_order&quot;:5}]}</metadata>
  <rect x="0" y="0" width="97" height="142" fill="#f8f0d8"/>
  <image href="file:///C:/Users/HHHES/AppData/Roaming/com.voynichlab.datasetcreator/images/1/aff30327-ced8-4ab4-8c9b-190205ebe022.jpg" x="-1848" y="-1873" width="2804" height="3797" opacity="0.92"/>
  <rect x="0.5" y="0.5" width="96" height="141" fill="none" stroke="#111827" stroke-width="1" opacity="0.35"/>
  <polyline points="35,19 35,20 35,21 35,22 35,23 34,23 34,24 34,25 34,26 34,27 33,27 33,28 33,29 33,30 33,31 33,32 33,33 33,34 33,35 33,36 33,37 33,38 32,39 32,40 32,41 32,42 31,43 31,44 31,45 31,46 31,47 30,48 30,49 30,50 30,51 30,52 30,53 30,54 30,55 30,56 30,57 30,58 30,59 29,60 29,61 29,62 29,63 29,64 29,65 29,66 29,68 29,69 28,70 28,71 28,72 28,73 28,75 27,76 27,78 27,79 27,80 26,81 26,82 26,83 26,84 26,85 25,86 25,87 25,88 25,89 25,90 25,92 24,93 24,94 24,95 24,96 24,97 24,98 23,99 23,100 23,101 23,102 23,103 23,104 23,105 23,106 23,107 23,108 23,109 23,110 23,111 23,112 23,113 23,114 23,115 23,116 23,117 23,118 23,119 23,120 22,121 22,122 22,123 21,124 21,125 20,125 20,126" fill="none" stroke="#00f0b5" stroke-width="3" stroke-linecap="round" stroke-linejoin="round" opacity="0.95">
    <title>4656 a:1</title>
  </polyline>
  <polyline points="35,20 34,20 34,21 33,21 32,21 31,21 31,22 30,22 29,23 28,23 28,24 27,24 26,24 26,25 25,25 25,26 24,26 23,27 22,27 22,28 21,28 21,29 20,29 20,30 19,30 18,30 18,31 17,31 17,32 17,33 16,33 16,34 16,35 16,36 16,37 16,38 16,39 17,40 18,41 19,41 19,42 20,42 21,42 22,42 23,43 24,43 25,43 26,43 27,43 28,43" fill="none" stroke="#f2e45c" stroke-width="3" stroke-linecap="round" stroke-linejoin="round" opacity="0.95">
    <title>4923 e:1</title>
  </polyline>
  <polyline points="25,41 26,42 27,42 27,43 28,43 28,44 29,44 30,44 31,45 32,45 33,45 34,46 35,46 36,46 37,46 38,46 39,47 40,47 41,47 42,47 43,47 44,47 45,47 46,47 47,47 48,47 49,48 50,48 51,48 52,48 53,48 54,48 55,48 56,48 57,48 58,48 59,48 60,47 61,47 62,47 63,47 64,47 64,46 65,46 66,46 67,46 68,46 68,45 69,45 70,45 70,44 71,44 72,43 73,43 74,42 75,42 75,41" fill="none" stroke="#2f7df6" stroke-width="3" stroke-linecap="round" stroke-linejoin="round" opacity="0.95">
    <title>4728 b:1</title>
  </polyline>
  <polyline points="75,43 75,42 76,42 76,41 76,40 77,40 77,39 77,38 78,37 78,36 78,35 79,33 79,32 80,30 80,29 80,28 81,27 81,26 81,25 81,24 81,23 81,22 81,21 81,20 81,19 81,18 81,17 80,17 79,17 79,16 78,16 77,16 76,16 75,16 74,16 73,16 72,16 71,16 70,16 69,16 68,17 67,17 66,18 65,19 64,20 63,21 62,21 62,22 61,22 61,23 60,24 60,25 59,26 59,27 59,28 58,29 58,30 57,31 57,32 57,33 57,34 56,34 56,35 56,36 56,37 55,38 55,39 55,40 55,41 55,42 55,43 56,43 56,44 57,44 58,44 59,45 60,45 61,45 62,45 63,45 64,45 65,44 66,44 67,44 68,44 69,44 69,43 70,43 71,43 72,43 73,42 74,42 74,41 75,41 76,41 76,40" fill="none" stroke="#8aff00" stroke-width="3" stroke-linecap="round" stroke-linejoin="round" opacity="0.95">
    <title>5236 c:1</title>
  </polyline>
  <polyline points="59,28 59,29 59,30 58,30 58,31 58,32 58,33 58,34 57,35 57,36 57,37 56,37 56,38 56,39 55,39 55,40 55,41 55,42 54,42 54,43 54,44 54,45 53,45 53,46 53,47 52,48 52,49 52,50 52,51 51,52 51,53 51,54 50,55 50,56 49,56 49,57 49,58 49,59 49,60 48,61 48,62 48,63 48,64 48,66 48,67 47,68 47,69 47,70 47,71 47,72 47,73 47,74 47,75 46,76 46,77 46,78 46,80 46,81 46,82 46,83 45,84 45,85 45,86 45,87 45,88 44,88 44,89 44,90 43,91 43,92 43,93 42,93 42,94 42,95 42,96 42,97 41,98 41,99 41,100 41,101 40,102 40,103 40,104 40,105 39,106 39,107 39,108 39,109 39,110 38,110 38,112 38,113 38,114 38,115 38,116 38,117 38,118 38,119 38,120 38,121 38,122 38,123 38,124" fill="none" stroke="#00f0b5" stroke-width="3" stroke-linecap="round" stroke-linejoin="round" opacity="0.95">
    <title>4657 a:1</title>
  </polyline>
</svg>
