<?xml version="1.0" encoding="UTF-8"?>
<svg xmlns="http://www.w3.org/2000/svg" width="89" height="101" viewBox="0 0 89 101">
  <title>particle img4-m30-p3 a:1 m:1 c:1 a:1</title>
  <metadata>{&quot;entityType&quot;:&quot;particle&quot;,&quot;entityId&quot;:&quot;img4-m30-p3&quot;,&quot;token&quot;:&quot;a:1 m:1 c:1 a:1&quot;,&quot;signature&quot;:&quot;a:1 m:1 c:1 a:1&quot;,&quot;imageName&quot;:&quot;page-004.jpg&quot;,&quot;imageId&quot;:4,&quot;bounds&quot;:{&quot;x&quot;:609,&quot;y&quot;:2260,&quot;w&quot;:89,&quot;h&quot;:101},&quot;atoms&quot;:[{&quot;id&quot;:4686,&quot;token&quot;:&quot;a:1&quot;,&quot;particle_id&quot;:&quot;img4-m30-p3&quot;,&quot;molecule_id&quot;:&quot;img4-m30&quot;,&quot;atom_order&quot;:1},{&quot;id&quot;:5450,&quot;token&quot;:&quot;m:1&quot;,&quot;particle_id&quot;:&quot;img4-m30-p3&quot;,&quot;molecule_id&quot;:&quot;img4-m30&quot;,&quot;atom_order&quot;:2},{&quot;id&quot;:4815,&quot;token&quot;:&quot;c:1&quot;,&quot;particle_id&quot;:&quot;img4-m30-p3&quot;,&quot;molecule_id&quot;:&quot;img4-m30&quot;,&quot;atom_order&quot;:3},{&quot;id&quot;:4687,&quot;token&quot;:&quot;a:1&quot;,&quot;particle_id&quot;:&quot;img4-m30-p3&quot;,&quot;molecule_id&quot;:&quot;img4-m30&quot;,&quot;atom_order&quot;:4}]}</metadata>
  <rect x="0" y="0" width="89" height="101" fill="#f8f0d8"/>
  <image href="file:///C:/Users/HHHES/AppData/Roaming/com.voynichlab.datasetcreator/images/1/aff30327-ced8-4ab4-8c9b-190205ebe022.jpg" x="-609" y="-2260" width="2804" height="3797" opacity="0.92"/>
  <rect x="0.5" y="0.5" width="88" height="100" fill="none" stroke="#111827" stroke-width="1" opacity="0.35"/>
  <polyline points="33,47 33,48 33,49 33,50 33,51 33,52 33,53 33,54 33,55 33,56 33,57 33,58 32,58 32,59 32,60 32,61 32,62 32,63 32,64 32,65 32,66 32,67 32,68 32,69 32,70 32,71 31,72 31,73 31,74 31,75 31,76 31,77 31,78 31,79 31,80 31,81 31,82 31,83 31,84 31,85" fill="none" stroke="#00f0b5" stroke-width="3" stroke-linecap="round" stroke-linejoin="round" opacity="0.95">
    <title>4686 a:1</title>
  </polyline>
  <polyline points="33,49 33,48 33,47 33,46 33,45 33,44 33,43 33,42 33,41 33,40 33,39 33,38 34,37 34,36 34,35 34,34 34,33 34,32 34,31 34,30 34,29 34,28 34,27 34,26 34,25 34,24 35,24 35,23 35,22 35,21 35,20 35,19 35,18 35,17 35,16 34,17 33,17 32,18 31,19 30,20 29,21 29,22 28,22 27,22 27,23 26,23 25,24 24,24 23,24 23,25 22,25 21,25 21,26 20,26 20,27 19,27 18,28 17,28 16,28 16,29 17,29 18,29 19,29 20,29 21,29 22,29 23,29 24,30 25,30 26,30 27,30 28,30 29,30 30,30 31,30 32,30 33,30 34,30 35,30 36,30 37,30 38,31 39,31 40,31 41,31 42,31 43,31 44,31 45,32 46,32 47,32 48,32 49,32 50,32 51,33 52,33 53,33 54,33 55,33 56,33 57,33 57,34" fill="none" stroke="#ff00ff" stroke-width="3" stroke-linecap="round" stroke-linejoin="round" opacity="0.95">
    <title>5450 m:1</title>
  </polyline>
  <polyline points="50,20 50,21 49,22 49,23 49,24 48,24 48,25 48,26 48,27 48,28 48,29 49,29 49,30 50,31 51,32 52,33 53,33 53,34 54,34 55,35 56,35 57,35 59,35 60,35 61,35 62,35 63,35 64,35 65,35 66,35 66,34 67,34 68,34 69,33 70,33 70,32 71,32 71,31 72,31 72,30 72,29 73,29 73,28 73,27 73,26 73,25 73,24 73,23 72,23 72,22 71,22 71,21 70,21 69,20 68,20 67,19 66,19 65,19 65,18 64,18 63,18 62,18 61,18 60,18 59,18 58,18 57,18 56,18 55,18 54,18 54,19 53,19 52,19 51,20 51,21 50,21 50,22 50,23 50,24" fill="none" stroke="#8aff00" stroke-width="3" stroke-linecap="round" stroke-linejoin="round" opacity="0.95">
    <title>4815 c:1</title>
  </polyline>
  <polyline points="50,20 50,21 50,22 50,23 50,24 50,25 50,26 50,27 50,28 50,29 50,30 50,31 50,32 50,33 50,34 50,35 50,36 50,37 49,38 49,39 49,40 49,41 49,42 49,43 49,45 49,46 49,47 49,48 49,49 48,50 48,51 48,52 48,54 48,55 48,56 48,57 48,58 48,59 48,61 48,62 48,63 47,64 47,65 47,66 47,67 47,68 47,69 47,70 47,71 47,72 47,73 47,74 47,75 47,76 48,76 48,77 48,78 48,79 48,80 48,81 48,82 48,83 48,84 48,85" fill="none" stroke="#00f0b5" stroke-width="3" stroke-linecap="round" stroke-linejoin="round" opacity="0.95">
    <title>4687 a:1</title>
  </polyline>
</svg>
