<?xml version="1.0" encoding="UTF-8"?>
<svg xmlns="http://www.w3.org/2000/svg" width="61" height="74" viewBox="0 0 61 74">
  <title>particle img4-m34-p1 e:1 c:1 h:2</title>
  <metadata>{&quot;entityType&quot;:&quot;particle&quot;,&quot;entityId&quot;:&quot;img4-m34-p1&quot;,&quot;token&quot;:&quot;e:1 c:1 h:2&quot;,&quot;signature&quot;:&quot;e:1 c:1 h:2&quot;,&quot;imageName&quot;:&quot;page-004.jpg&quot;,&quot;imageId&quot;:4,&quot;bounds&quot;:{&quot;x&quot;:937,&quot;y&quot;:2315,&quot;w&quot;:61,&quot;h&quot;:74},&quot;atoms&quot;:[{&quot;id&quot;:5002,&quot;token&quot;:&quot;e:1&quot;,&quot;particle_id&quot;:&quot;img4-m34-p1&quot;,&quot;molecule_id&quot;:&quot;img4-m34&quot;,&quot;atom_order&quot;:1},{&quot;id&quot;:4818,&quot;token&quot;:&quot;c:1&quot;,&quot;particle_id&quot;:&quot;img4-m34-p1&quot;,&quot;molecule_id&quot;:&quot;img4-m34&quot;,&quot;atom_order&quot;:2},{&quot;id&quot;:5309,&quot;token&quot;:&quot;h:2&quot;,&quot;particle_id&quot;:&quot;img4-m34-p1&quot;,&quot;molecule_id&quot;:&quot;img4-m34&quot;,&quot;atom_order&quot;:3}]}</metadata>
  <rect x="0" y="0" width="61" height="74" fill="#f8f0d8"/>
  <image href="file:///C:/Users/HHHES/AppData/Roaming/com.voynichlab.datasetcreator/images/1/aff30327-ced8-4ab4-8c9b-190205ebe022.jpg" x="-937" y="-2315" width="2804" height="3797" opacity="0.92"/>
  <rect x="0.5" y="0.5" width="60" height="73" fill="none" stroke="#111827" stroke-width="1" opacity="0.35"/>
  <polyline points="31,55 31,56 30,56 30,57 29,57 28,57 28,58 27,58 26,58 25,58 24,58 23,58 22,58 21,58 21,57 20,57 19,57 18,57 18,56 17,56 16,56 16,55 16,54 16,53 16,52 16,51 16,50 16,49 17,49 17,48 17,47 17,46 18,46 18,45 18,44 19,44 19,43 19,42 20,42 21,42 21,41 22,41 22,40 23,40 24,40 24,39 25,39 26,39 27,39 27,38" fill="none" stroke="#f2e45c" stroke-width="3" stroke-linecap="round" stroke-linejoin="round" opacity="0.95">
    <title>5002 e:1</title>
  </polyline>
  <polyline points="39,32 40,32 41,31 42,31 42,30 43,30 43,29 44,29 44,28 45,27 45,26 45,25 45,24 45,23 45,22 45,21 45,20 44,20 44,19 43,19 43,18 42,18 41,17 40,17 39,17 38,17 37,16 36,16 35,16 34,16 33,16 32,17 31,17 30,18 29,19 28,20 28,21 27,21 27,22 27,23 27,24 27,25 27,26 27,27 28,28 28,29 29,29 29,30 30,31 31,31 31,32 32,32 32,33 33,33 34,33 35,33 35,34 36,34 37,34 38,34 39,34 40,34 40,33 41,33 41,32 42,32 42,31 42,30" fill="none" stroke="#8aff00" stroke-width="3" stroke-linecap="round" stroke-linejoin="round" opacity="0.95">
    <title>4818 c:1</title>
  </polyline>
  <polyline points="28,19 28,20 28,21 28,22 28,23 28,24 28,25 28,26 29,27 29,28 29,29 30,29 30,30 31,31 31,32 32,32 32,33 33,34 33,35 34,36 34,37 35,38 35,39 35,40 36,41 36,42 36,43 36,44 36,45 36,46 36,47 35,48 35,49 35,50 34,51 34,52 34,53 33,53 33,54 32,54 32,55 31,55 31,56 29,56 29,57 28,58 27,58 26,58" fill="none" stroke="#ff8c00" stroke-width="3" stroke-linecap="round" stroke-linejoin="round" opacity="0.95">
    <title>5309 h:2</title>
  </polyline>
</svg>
