<?xml version="1.0" encoding="UTF-8"?>
<svg xmlns="http://www.w3.org/2000/svg" width="60" height="67" viewBox="0 0 60 67">
  <title>particle img4-m12-p3 e:1 c:1 h:2</title>
  <metadata>{&quot;entityType&quot;:&quot;particle&quot;,&quot;entityId&quot;:&quot;img4-m12-p3&quot;,&quot;token&quot;:&quot;e:1 c:1 h:2&quot;,&quot;signature&quot;:&quot;e:1 c:1 h:2&quot;,&quot;imageName&quot;:&quot;page-004.jpg&quot;,&quot;imageId&quot;:4,&quot;bounds&quot;:{&quot;x&quot;:1970,&quot;y&quot;:2032,&quot;w&quot;:60,&quot;h&quot;:67},&quot;atoms&quot;:[{&quot;id&quot;:4943,&quot;token&quot;:&quot;e:1&quot;,&quot;particle_id&quot;:&quot;img4-m12-p3&quot;,&quot;molecule_id&quot;:&quot;img4-m12&quot;,&quot;atom_order&quot;:1},{&quot;id&quot;:4774,&quot;token&quot;:&quot;c:1&quot;,&quot;particle_id&quot;:&quot;img4-m12-p3&quot;,&quot;molecule_id&quot;:&quot;img4-m12&quot;,&quot;atom_order&quot;:2},{&quot;id&quot;:5300,&quot;token&quot;:&quot;h:2&quot;,&quot;particle_id&quot;:&quot;img4-m12-p3&quot;,&quot;molecule_id&quot;:&quot;img4-m12&quot;,&quot;atom_order&quot;:3}]}</metadata>
  <rect x="0" y="0" width="60" height="67" fill="#f8f0d8"/>
  <image href="file:///C:/Users/HHHES/AppData/Roaming/com.voynichlab.datasetcreator/images/1/aff30327-ced8-4ab4-8c9b-190205ebe022.jpg" x="-1970" y="-2032" width="2804" height="3797" opacity="0.92"/>
  <rect x="0.5" y="0.5" width="59" height="66" fill="none" stroke="#111827" stroke-width="1" opacity="0.35"/>
  <polyline points="31,48 31,49 30,49 30,50 29,50 28,50 28,51 27,51 26,51 25,51 24,51 23,51 22,51 21,51 21,50 20,50 19,50 18,50 18,49 17,49 16,49 16,48 16,47 16,46 16,45 16,44 16,43 16,42 17,42 17,41 17,40 17,39 18,39 18,38 18,37 19,37 19,36 19,35 20,35 21,35 21,34 22,34 22,33 23,33 24,33 24,32 25,32 26,32 27,32 27,31" fill="none" stroke="#f2e45c" stroke-width="3" stroke-linecap="round" stroke-linejoin="round" opacity="0.95">
    <title>4943 e:1</title>
  </polyline>
  <polyline points="35,32 36,32 37,32 37,31 38,31 39,30 40,30 40,29 41,29 41,28 42,28 42,27 43,27 43,26 44,25 44,24 44,23 44,22 44,21 44,20 44,19 43,19 43,18 42,18 41,17 40,17 39,17 38,17 37,17 36,17 35,18 34,18 34,19 34,20 33,20 33,21 32,22 31,23 31,24 31,25 31,26 31,27 31,28 31,29 31,30 32,30 32,31 33,31 34,32 35,32 36,32" fill="none" stroke="#8aff00" stroke-width="3" stroke-linecap="round" stroke-linejoin="round" opacity="0.95">
    <title>4774 c:1</title>
  </polyline>
  <polyline points="23,51 24,51 25,51 26,51 27,51 28,51 28,50 29,50 30,50 31,50 31,49 32,49 32,48 33,47 33,46 34,45 34,44 34,43 34,42 34,41 34,40 34,39 34,38 33,37 32,36 32,35 32,34 31,34 31,33 31,32 30,32 30,31 30,30 30,29 30,28 30,27 30,26 30,25 30,24 31,23 32,22 32,21 33,21 33,20 34,19 35,18 36,18 37,17 38,17 39,17 40,16 41,16" fill="none" stroke="#ff8c00" stroke-width="3" stroke-linecap="round" stroke-linejoin="round" opacity="0.95">
    <title>5300 h:2</title>
  </polyline>
</svg>
