<?xml version="1.0" encoding="UTF-8"?>
<svg xmlns="http://www.w3.org/2000/svg" width="75" height="106" viewBox="0 0 75 106">
  <title>particle img4-m61-p1 a:1 b:1 c:1 a:1</title>
  <metadata>{&quot;entityType&quot;:&quot;particle&quot;,&quot;entityId&quot;:&quot;img4-m61-p1&quot;,&quot;token&quot;:&quot;a:1 b:1 c:1 a:1&quot;,&quot;signature&quot;:&quot;a:1 b:1 c:1 a:1&quot;,&quot;imageName&quot;:&quot;page-004.jpg&quot;,&quot;imageId&quot;:4,&quot;bounds&quot;:{&quot;x&quot;:988,&quot;y&quot;:2527,&quot;w&quot;:75,&quot;h&quot;:106},&quot;atoms&quot;:[{&quot;id&quot;:4707,&quot;token&quot;:&quot;a:1&quot;,&quot;particle_id&quot;:&quot;img4-m61-p1&quot;,&quot;molecule_id&quot;:&quot;img4-m61&quot;,&quot;atom_order&quot;:1},{&quot;id&quot;:4757,&quot;token&quot;:&quot;b:1&quot;,&quot;particle_id&quot;:&quot;img4-m61-p1&quot;,&quot;molecule_id&quot;:&quot;img4-m61&quot;,&quot;atom_order&quot;:2},{&quot;id&quot;:4890,&quot;token&quot;:&quot;c:1&quot;,&quot;particle_id&quot;:&quot;img4-m61-p1&quot;,&quot;molecule_id&quot;:&quot;img4-m61&quot;,&quot;atom_order&quot;:3},{&quot;id&quot;:4708,&quot;token&quot;:&quot;a:1&quot;,&quot;particle_id&quot;:&quot;img4-m61-p1&quot;,&quot;molecule_id&quot;:&quot;img4-m61&quot;,&quot;atom_order&quot;:4}]}</metadata>
  <rect x="0" y="0" width="75" height="106" fill="#f8f0d8"/>
  <image href="file:///C:/Users/HHHES/AppData/Roaming/com.voynichlab.datasetcreator/images/1/aff30327-ced8-4ab4-8c9b-190205ebe022.jpg" x="-988" y="-2527" width="2804" height="3797" opacity="0.92"/>
  <rect x="0.5" y="0.5" width="74" height="105" fill="none" stroke="#111827" stroke-width="1" opacity="0.35"/>
  <polyline points="18,31 17,31 17,32 17,33 17,35 17,37 17,38 17,40 17,41 17,42 17,43 17,44 17,46 17,48 17,49 17,51 17,52 17,53 17,55 17,57 18,58 18,60 18,62 18,63 18,64 18,66 18,67 18,68 18,69 18,70 18,71 19,73 19,74 19,75 19,76 19,77 19,78 19,79 19,81 19,82 19,84 19,85 19,86 19,87 19,88 19,89" fill="none" stroke="#00f0b5" stroke-width="3" stroke-linecap="round" stroke-linejoin="round" opacity="0.95">
    <title>4707 a:1</title>
  </polyline>
  <polyline points="16,31 16,32 16,33 17,33 17,34 17,35 18,36 18,37 19,37 20,38 21,38 22,39 23,39 24,40 25,40 26,41 27,41 28,41 29,41 29,42 30,42 31,42 32,43 33,43 34,43 35,43 36,43 37,43 38,43 39,43 40,43 41,43 42,43 42,42 43,42 43,41 44,41 45,41 45,40 46,40 47,39 47,38 48,38 49,37 50,36 51,35 52,35 52,34 53,33 54,33 54,32 55,32 55,31 55,30 56,30 56,29 56,28 57,28 57,27 57,26 58,26 58,25 58,24 59,24" fill="none" stroke="#2f7df6" stroke-width="3" stroke-linecap="round" stroke-linejoin="round" opacity="0.95">
    <title>4757 b:1</title>
  </polyline>
  <polyline points="58,26 58,25 58,24 58,23 58,22 58,21 58,20 58,19 58,18 57,18 56,17 55,17 53,17 52,17 52,16 51,16 50,16 49,16 48,16 48,17 47,17 46,17 45,18 44,18 43,19 42,19 42,20 41,20 41,21 40,22 40,23 40,24 39,25 39,26 38,27 38,28 37,29 37,30 37,31 37,32 37,33 37,34 37,35 37,36 38,37 38,38 39,38 39,39 40,39 41,39 43,39 44,39 45,39 46,39 46,38 47,38 48,38 49,37 50,37 51,36 52,35 53,35 53,34 54,34 54,33 55,33 55,32 55,31 56,31 56,30 57,29 57,28 57,27 57,26 57,25 57,24 57,23" fill="none" stroke="#8aff00" stroke-width="3" stroke-linecap="round" stroke-linejoin="round" opacity="0.95">
    <title>4890 c:1</title>
  </polyline>
  <polyline points="39,27 39,28 39,29 38,30 38,32 38,34 38,36 38,38 38,40 37,41 37,43 37,45 37,46 37,48 37,49 37,51 37,53 38,54 38,56 38,57 38,58 38,59 38,61 38,62 38,64 38,65 38,66 39,68 39,69 39,70 39,71 39,73 39,74 39,76 39,77 39,78 39,79 39,80 38,81 38,82 38,83 38,84 38,85 38,86 38,87 38,88 38,89 38,90" fill="none" stroke="#00f0b5" stroke-width="3" stroke-linecap="round" stroke-linejoin="round" opacity="0.95">
    <title>4708 a:1</title>
  </polyline>
</svg>
