<?xml version="1.0" encoding="UTF-8"?>
<svg xmlns="http://www.w3.org/2000/svg" width="81" height="107" viewBox="0 0 81 107">
  <title>particle img4-m62-p1 a:1 b:1 c:1 a:1</title>
  <metadata>{&quot;entityType&quot;:&quot;particle&quot;,&quot;entityId&quot;:&quot;img4-m62-p1&quot;,&quot;token&quot;:&quot;a:1 b:1 c:1 a:1&quot;,&quot;signature&quot;:&quot;a:1 b:1 c:1 a:1&quot;,&quot;imageName&quot;:&quot;page-004.jpg&quot;,&quot;imageId&quot;:4,&quot;bounds&quot;:{&quot;x&quot;:1332,&quot;y&quot;:2530,&quot;w&quot;:81,&quot;h&quot;:107},&quot;atoms&quot;:[{&quot;id&quot;:4709,&quot;token&quot;:&quot;a:1&quot;,&quot;particle_id&quot;:&quot;img4-m62-p1&quot;,&quot;molecule_id&quot;:&quot;img4-m62&quot;,&quot;atom_order&quot;:1},{&quot;id&quot;:4761,&quot;token&quot;:&quot;b:1&quot;,&quot;particle_id&quot;:&quot;img4-m62-p1&quot;,&quot;molecule_id&quot;:&quot;img4-m62&quot;,&quot;atom_order&quot;:2},{&quot;id&quot;:4888,&quot;token&quot;:&quot;c:1&quot;,&quot;particle_id&quot;:&quot;img4-m62-p1&quot;,&quot;molecule_id&quot;:&quot;img4-m62&quot;,&quot;atom_order&quot;:3},{&quot;id&quot;:4710,&quot;token&quot;:&quot;a:1&quot;,&quot;particle_id&quot;:&quot;img4-m62-p1&quot;,&quot;molecule_id&quot;:&quot;img4-m62&quot;,&quot;atom_order&quot;:4}]}</metadata>
  <rect x="0" y="0" width="81" height="107" fill="#f8f0d8"/>
  <image href="file:///C:/Users/HHHES/AppData/Roaming/com.voynichlab.datasetcreator/images/1/aff30327-ced8-4ab4-8c9b-190205ebe022.jpg" x="-1332" y="-2530" width="2804" height="3797" opacity="0.92"/>
  <rect x="0.5" y="0.5" width="80" height="106" fill="none" stroke="#111827" stroke-width="1" opacity="0.35"/>
  <polyline points="19,21 19,22 19,23 19,25 19,27 19,29 19,31 19,34 19,36 19,37 19,39 19,41 19,43 19,45 19,47 19,48 19,50 19,51 19,52 18,53 18,54 18,55 18,57 18,58 18,60 18,61 17,62 17,64 17,65 17,67 17,68 17,70 17,71 17,72 16,73 16,74 16,75 16,76 16,77 16,78 16,79 16,80 16,81 16,82 16,83 16,85 16,86 16,87 16,88 16,89" fill="none" stroke="#00f0b5" stroke-width="3" stroke-linecap="round" stroke-linejoin="round" opacity="0.95">
    <title>4709 a:1</title>
  </polyline>
  <polyline points="19,21 19,22 19,23 20,24 20,25 20,26 21,26 21,27 22,27 23,28 24,28 24,29 25,29 26,30 27,30 28,31 29,31 30,32 31,32 32,32 32,33 33,33 34,33 35,33 36,34 37,34 38,34 39,34 40,34 41,34 42,34 43,34 44,35 45,35 46,35 47,35 48,35 49,35 50,34 51,34 52,34 53,34 53,33 54,33 55,32 56,31 57,31 57,30 58,30 58,29 59,29 59,28 60,28 60,27 61,27 61,26 62,25 62,24 63,24 63,23 63,22" fill="none" stroke="#2f7df6" stroke-width="3" stroke-linecap="round" stroke-linejoin="round" opacity="0.95">
    <title>4761 b:1</title>
  </polyline>
  <polyline points="63,24 63,23 63,22 62,22 62,21 61,21 60,20 59,19 58,19 58,18 57,18 56,18 55,18 55,17 54,17 53,17 52,16 51,16 50,16 49,16 48,16 47,16 46,16 45,17 44,17 44,18 43,18 42,19 41,20 41,21 41,22 41,23 41,24 41,25 41,26 42,26 42,27 42,28 43,28 43,29 44,30 45,31 46,31 47,32 48,32 49,32 50,32 51,32 52,32 53,32 54,32 55,32 56,31 57,31 58,31 59,30 60,30 60,29 61,29 62,28 63,27 64,26 64,25 65,25 65,24 65,23 65,22" fill="none" stroke="#8aff00" stroke-width="3" stroke-linecap="round" stroke-linejoin="round" opacity="0.95">
    <title>4888 c:1</title>
  </polyline>
  <polyline points="42,23 41,23 40,24 40,26 40,27 40,30 40,32 39,34 39,36 39,38 39,39 39,41 39,43 39,44 39,46 39,48 39,50 38,52 38,54 38,56 38,57 38,58 38,59 38,60 38,61 38,62 38,63 38,64 37,65 37,66 37,67 37,68 37,69 37,70 37,71 37,72 37,73 37,74 36,75 36,76 36,77 36,78 36,79 36,80 36,81 35,81 35,82 35,83 35,84 35,85 35,86 35,87 35,88 35,89 34,89 34,90 34,91 34,90" fill="none" stroke="#00f0b5" stroke-width="3" stroke-linecap="round" stroke-linejoin="round" opacity="0.95">
    <title>4710 a:1</title>
  </polyline>
</svg>
