<?xml version="1.0" encoding="UTF-8"?>
<svg xmlns="http://www.w3.org/2000/svg" width="54" height="68" viewBox="0 0 54 68">
  <title>particle img4-m79-p1 e:1 c:1 h:2</title>
  <metadata>{&quot;entityType&quot;:&quot;particle&quot;,&quot;entityId&quot;:&quot;img4-m79-p1&quot;,&quot;token&quot;:&quot;e:1 c:1 h:2&quot;,&quot;signature&quot;:&quot;e:1 c:1 h:2&quot;,&quot;imageName&quot;:&quot;page-004.jpg&quot;,&quot;imageId&quot;:4,&quot;bounds&quot;:{&quot;x&quot;:1713,&quot;y&quot;:2661,&quot;w&quot;:54,&quot;h&quot;:68},&quot;atoms&quot;:[{&quot;id&quot;:5101,&quot;token&quot;:&quot;e:1&quot;,&quot;particle_id&quot;:&quot;img4-m79-p1&quot;,&quot;molecule_id&quot;:&quot;img4-m79&quot;,&quot;atom_order&quot;:1},{&quot;id&quot;:4880,&quot;token&quot;:&quot;c:1&quot;,&quot;particle_id&quot;:&quot;img4-m79-p1&quot;,&quot;molecule_id&quot;:&quot;img4-m79&quot;,&quot;atom_order&quot;:2},{&quot;id&quot;:5323,&quot;token&quot;:&quot;h:2&quot;,&quot;particle_id&quot;:&quot;img4-m79-p1&quot;,&quot;molecule_id&quot;:&quot;img4-m79&quot;,&quot;atom_order&quot;:3}]}</metadata>
  <rect x="0" y="0" width="54" height="68" fill="#f8f0d8"/>
  <image href="file:///C:/Users/HHHES/AppData/Roaming/com.voynichlab.datasetcreator/images/1/aff30327-ced8-4ab4-8c9b-190205ebe022.jpg" x="-1713" y="-2661" width="2804" height="3797" opacity="0.92"/>
  <rect x="0.5" y="0.5" width="53" height="67" fill="none" stroke="#111827" stroke-width="1" opacity="0.35"/>
  <polyline points="31,49 31,50 30,50 30,51 29,51 28,51 28,52 27,52 26,52 25,52 24,52 23,52 22,52 21,52 21,51 20,51 19,51 18,51 18,50 17,50 16,50 16,49 16,48 16,47 16,46 16,45 16,44 16,43 17,43 17,42 17,41 17,40 18,40 18,39 18,38 19,38 19,37 19,36 20,36 21,36 21,35 22,35 22,34 23,34 24,34 24,33 25,33 26,33 27,33 27,32" fill="none" stroke="#f2e45c" stroke-width="3" stroke-linecap="round" stroke-linejoin="round" opacity="0.95">
    <title>5101 e:1</title>
  </polyline>
  <polyline points="31,31 31,30 32,30 33,30 34,30 35,29 36,29 36,28 37,28 37,27 38,26 38,25 38,24 38,23 38,22 38,21 38,20 37,19 36,18 35,18 34,18 34,17 33,17 32,17 31,17 30,17 29,17 28,17 27,17 26,17 26,18 25,18 25,19 24,19 24,20 23,20 23,21 22,21 22,22 22,23 22,24 22,25 22,26 22,27 23,27 23,28 24,28 24,29 25,29 26,30 27,31 28,31 29,31 30,31 31,31 32,31" fill="none" stroke="#8aff00" stroke-width="3" stroke-linecap="round" stroke-linejoin="round" opacity="0.95">
    <title>4880 c:1</title>
  </polyline>
  <polyline points="25,16 24,16 24,17 24,18 23,19 23,20 22,20 22,21 22,22 22,23 22,24 22,25 22,26 22,27 23,28 24,29 25,31 26,32 27,33 28,35 28,36 29,37 30,39 31,40 32,41 32,42 32,43 32,44 32,45 33,47 33,48 33,49 32,50 32,51 31,51 30,51 29,52 28,52" fill="none" stroke="#ff8c00" stroke-width="3" stroke-linecap="round" stroke-linejoin="round" opacity="0.95">
    <title>5323 h:2</title>
  </polyline>
</svg>
