<?xml version="1.0" encoding="UTF-8"?>
<svg xmlns="http://www.w3.org/2000/svg" width="105" height="90" viewBox="0 0 105 90">
  <title>particle img4-m2-p5 k:1 f:1 i:1 d:1</title>
  <metadata>{&quot;entityType&quot;:&quot;particle&quot;,&quot;entityId&quot;:&quot;img4-m2-p5&quot;,&quot;token&quot;:&quot;k:1 f:1 i:1 d:1&quot;,&quot;signature&quot;:&quot;k:1 f:1 i:1 d:1&quot;,&quot;imageName&quot;:&quot;page-004.jpg&quot;,&quot;imageId&quot;:4,&quot;bounds&quot;:{&quot;x&quot;:931,&quot;y&quot;:1888,&quot;w&quot;:105,&quot;h&quot;:90},&quot;atoms&quot;:[{&quot;id&quot;:5410,&quot;token&quot;:&quot;k:1&quot;,&quot;particle_id&quot;:&quot;img4-m2-p5&quot;,&quot;molecule_id&quot;:&quot;img4-m2&quot;,&quot;atom_order&quot;:1},{&quot;id&quot;:5331,&quot;token&quot;:&quot;f:1&quot;,&quot;particle_id&quot;:&quot;img4-m2-p5&quot;,&quot;molecule_id&quot;:&quot;img4-m2&quot;,&quot;atom_order&quot;:2},{&quot;id&quot;:5196,&quot;token&quot;:&quot;i:1&quot;,&quot;particle_id&quot;:&quot;img4-m2-p5&quot;,&quot;molecule_id&quot;:&quot;img4-m2&quot;,&quot;atom_order&quot;:3},{&quot;id&quot;:5235,&quot;token&quot;:&quot;d:1&quot;,&quot;particle_id&quot;:&quot;img4-m2-p5&quot;,&quot;molecule_id&quot;:&quot;img4-m2&quot;,&quot;atom_order&quot;:4}]}</metadata>
  <rect x="0" y="0" width="105" height="90" fill="#f8f0d8"/>
  <image href="file:///C:/Users/HHHES/AppData/Roaming/com.voynichlab.datasetcreator/images/1/aff30327-ced8-4ab4-8c9b-190205ebe022.jpg" x="-931" y="-1888" width="2804" height="3797" opacity="0.92"/>
  <rect x="0.5" y="0.5" width="104" height="89" fill="none" stroke="#111827" stroke-width="1" opacity="0.35"/>
  <polyline points="16,45 16,46 17,46 17,47 18,48 18,49 19,49 19,50 19,51 20,51 20,52 21,52 21,53 22,54 22,55 22,56 23,56 23,57 24,58 24,59 25,60 25,61 26,61 26,62 26,63 27,64 27,65 28,66 28,67 29,67 29,68 29,67 30,67 31,66 32,65 33,63 34,63 35,62 36,61 36,60 37,60 38,59 38,58 39,58 39,57 40,56 41,55 41,54 42,54 43,53 43,52 44,53 44,54 45,55 45,56 46,57 46,58 47,58 47,59 48,59 48,60 49,61 49,62 50,62 50,63 50,64 51,65 51,66 52,66 52,67 52,68 52,69 53,69 53,70 54,70 54,71 54,70 54,69 55,68 55,67 56,66 56,65 56,64 57,63 57,62 58,61 58,60 59,59 59,58 59,57 59,56 60,56 60,55 60,54" fill="none" stroke="#ffffff" stroke-width="3" stroke-linecap="round" stroke-linejoin="round" opacity="0.95">
    <title>5410 k:1</title>
  </polyline>
  <polyline points="59,53 59,54 59,55 60,55 60,56 60,57 61,57 61,58 62,59 62,60 63,60 63,61 64,62 64,63 65,63 65,64 66,64 66,65 67,65 67,66 67,67 68,67 68,68 68,69 69,69 69,70 70,70 70,71 71,72 71,73 72,73 72,74" fill="none" stroke="#00a2ff" stroke-width="3" stroke-linecap="round" stroke-linejoin="round" opacity="0.95">
    <title>5331 f:1</title>
  </polyline>
  <polyline points="71,72 72,72 73,72 74,72 74,71 75,71 76,71 77,71 77,70 78,70 79,70 79,69 80,69 81,69 82,68 83,67 83,66 84,66 84,65 85,65 85,64 85,63 86,63 86,62 86,61 87,60 87,59 87,58 88,57 88,56 88,55 88,54 88,53 89,53 89,52 89,51 89,50 89,49 89,48 89,47 89,46 88,46 88,45 88,44 88,43 88,42 88,41 88,40 87,39 87,38 87,37 86,36 86,35 86,34 86,33 85,32 85,31 85,30 85,29 84,29 84,28 84,27 84,26 83,26 83,25 82,25 81,24 80,23 79,23 78,22 77,22 77,21 76,21 76,20 75,19 74,19 73,18 72,18" fill="none" stroke="#00ff7f" stroke-width="3" stroke-linecap="round" stroke-linejoin="round" opacity="0.95">
    <title>5196 i:1</title>
  </polyline>
  <polyline points="41,37 41,36 42,35 42,34 43,34 43,33 44,32 44,31 45,30 45,29 46,28 46,27 47,27 47,26 48,25 49,25 49,24 50,23 51,23 51,22 52,21 53,20 54,19 55,19 56,18 57,18 58,17 59,17 60,17 61,17 61,16 62,16 63,16 64,16 65,16 67,16 69,16 69,17 70,17 71,17 72,17 73,17 74,17 74,18 75,18" fill="none" stroke="#ff2d55" stroke-width="3" stroke-linecap="round" stroke-linejoin="round" opacity="0.95">
    <title>5235 d:1</title>
  </polyline>
</svg>
