<?xml version="1.0" encoding="UTF-8"?>
<svg xmlns="http://www.w3.org/2000/svg" width="100" height="148" viewBox="0 0 100 148">
  <title>particle img4-m33-p1 a:1 m:1 c:1 a:1</title>
  <metadata>{&quot;entityType&quot;:&quot;particle&quot;,&quot;entityId&quot;:&quot;img4-m33-p1&quot;,&quot;token&quot;:&quot;a:1 m:1 c:1 a:1&quot;,&quot;signature&quot;:&quot;a:1 m:1 c:1 a:1&quot;,&quot;imageName&quot;:&quot;page-004.jpg&quot;,&quot;imageId&quot;:4,&quot;bounds&quot;:{&quot;x&quot;:1798,&quot;y&quot;:2292,&quot;w&quot;:100,&quot;h&quot;:148},&quot;atoms&quot;:[{&quot;id&quot;:4690,&quot;token&quot;:&quot;a:1&quot;,&quot;particle_id&quot;:&quot;img4-m33-p1&quot;,&quot;molecule_id&quot;:&quot;img4-m33&quot;,&quot;atom_order&quot;:1},{&quot;id&quot;:5452,&quot;token&quot;:&quot;m:1&quot;,&quot;particle_id&quot;:&quot;img4-m33-p1&quot;,&quot;molecule_id&quot;:&quot;img4-m33&quot;,&quot;atom_order&quot;:2},{&quot;id&quot;:4823,&quot;token&quot;:&quot;c:1&quot;,&quot;particle_id&quot;:&quot;img4-m33-p1&quot;,&quot;molecule_id&quot;:&quot;img4-m33&quot;,&quot;atom_order&quot;:3},{&quot;id&quot;:4691,&quot;token&quot;:&quot;a:1&quot;,&quot;particle_id&quot;:&quot;img4-m33-p1&quot;,&quot;molecule_id&quot;:&quot;img4-m33&quot;,&quot;atom_order&quot;:4}]}</metadata>
  <rect x="0" y="0" width="100" height="148" fill="#f8f0d8"/>
  <image href="file:///C:/Users/HHHES/AppData/Roaming/com.voynichlab.datasetcreator/images/1/aff30327-ced8-4ab4-8c9b-190205ebe022.jpg" x="-1798" y="-2292" width="2804" height="3797" opacity="0.92"/>
  <rect x="0.5" y="0.5" width="99" height="147" fill="none" stroke="#111827" stroke-width="1" opacity="0.35"/>
  <polyline points="30,132 30,131 31,130 31,129 31,128 31,127 31,126 32,125 32,124 32,123 32,122 32,121 32,120 31,120 31,119 31,118 31,117 31,116 31,115 31,114 31,113 31,112 31,111 31,110 31,109 31,108 31,107 31,106 31,105 31,104 31,103 31,102 31,101 31,100 31,99 32,98 32,97 32,96 32,95 32,94 32,93 33,92 33,91 33,90 33,89 33,88 33,87 33,86 33,85 33,84 33,83 33,82 33,81 34,80 34,79 34,78 34,77 34,76 34,75 34,74 34,73 34,72 34,71 34,70 34,69 34,68 34,67 34,66 34,65 34,64 34,63 34,62 34,61 34,60 34,59 34,58 34,57 34,56 34,55" fill="none" stroke="#00f0b5" stroke-width="3" stroke-linecap="round" stroke-linejoin="round" opacity="0.95">
    <title>4690 a:1</title>
  </polyline>
  <polyline points="34,57 34,56 34,55 35,54 35,53 35,52 35,51 35,50 36,50 36,49 36,48 36,47 37,45 37,44 37,43 38,43 38,42 38,41 38,40 38,39 38,38 39,37 39,36 39,35 39,34 39,33 39,32 39,31 39,30 39,29 39,28 39,27 39,26 39,25 39,24 39,23 39,22 38,22 38,23 37,23 36,23 35,23 34,23 33,24 32,24 32,25 31,25 30,25 30,26 29,26 28,26 28,27 27,27 26,28 25,28 25,29 24,29 23,30 22,30 22,31 21,31 21,32 20,32 19,32 19,33 18,33 18,34 17,34 17,35 16,36 17,36 18,36 19,37 20,37 21,36 22,36 23,36 24,36 25,36 27,36 28,36 29,36 30,36 32,36 33,36 35,36 36,36 37,35 39,35 41,35 43,35 45,35 46,35 47,35 48,35 50,35 52,35 53,35 54,35 55,36 57,36 59,36 61,36 62,36 63,36 64,36 65,36 66,36" fill="none" stroke="#ff00ff" stroke-width="3" stroke-linecap="round" stroke-linejoin="round" opacity="0.95">
    <title>5452 m:1</title>
  </polyline>
  <polyline points="59,24 59,25 58,25 58,26 58,27 57,27 57,28 56,29 56,30 56,31 55,32 55,33 56,34 57,35 58,36 59,36 60,36 61,36 62,36 63,37 64,37 65,37 66,37 67,37 68,37 69,37 70,37 71,37 72,37 73,37 74,37 75,37 76,37 77,37 78,37 78,36 79,36 80,35 81,35 81,34 82,34 83,33 84,32 84,31 84,30 84,29 84,28 84,27 84,26 84,25 83,25 83,24 82,23 82,22 81,21 81,20 80,20 80,19 79,19 78,18 77,18 76,17 75,17 74,17 74,16 73,16 72,16 71,16 70,16 69,16 68,16 66,17 65,17 64,17 64,18 63,18 63,19 62,19 62,20 61,21 61,22 60,22 60,23 59,23 59,24 59,25 59,26 58,27 58,28 58,29 58,30 58,31 58,32" fill="none" stroke="#8aff00" stroke-width="3" stroke-linecap="round" stroke-linejoin="round" opacity="0.95">
    <title>4823 c:1</title>
  </polyline>
  <polyline points="60,24 59,24 59,25 58,26 58,27 58,28 57,29 57,30 57,31 57,32 56,33 56,34 56,35 56,36 56,37 56,39 56,40 56,41 55,41 55,42 55,43 55,44 55,45 54,47 54,48 53,49 53,50 53,51 53,52 52,52 52,54 52,55 52,56 52,57 52,58 52,59 52,60 52,61 51,62 51,63 51,64 51,65 51,66 51,67 51,68 51,69 51,70 51,71 51,72 51,73 50,74 50,75 50,77 50,78 50,79 50,80 50,81 50,82 50,83 50,84 50,85 50,86 50,87 49,88 49,90 49,92 49,93 49,95 49,96 49,97 49,99 49,100 49,102 49,103 49,104 49,105 49,107 49,108 50,109 50,110 50,111 50,112 50,113 50,114 50,115 50,116 50,117 50,118 50,119 50,120 50,121 50,122 50,123 50,124 50,125 50,126 50,127 50,128 50,129" fill="none" stroke="#00f0b5" stroke-width="3" stroke-linecap="round" stroke-linejoin="round" opacity="0.95">
    <title>4691 a:1</title>
  </polyline>
</svg>
