<?xml version="1.0" encoding="UTF-8"?>
<svg xmlns="http://www.w3.org/2000/svg" width="123" height="92" viewBox="0 0 123 92">
  <title>particle img4-m67-p1 e:1 a:1 m:1 c:1 a:1 g:1 e:1</title>
  <metadata>{&quot;entityType&quot;:&quot;particle&quot;,&quot;entityId&quot;:&quot;img4-m67-p1&quot;,&quot;token&quot;:&quot;e:1 a:1 m:1 c:1 a:1 g:1 e:1&quot;,&quot;signature&quot;:&quot;e:1 a:1 m:1 c:1 a:1 g:1 e:1&quot;,&quot;imageName&quot;:&quot;page-004.jpg&quot;,&quot;imageId&quot;:4,&quot;bounds&quot;:{&quot;x&quot;:1693,&quot;y&quot;:2568,&quot;w&quot;:123,&quot;h&quot;:92},&quot;atoms&quot;:[{&quot;id&quot;:5079,&quot;token&quot;:&quot;e:1&quot;,&quot;particle_id&quot;:&quot;img4-m67-p1&quot;,&quot;molecule_id&quot;:&quot;img4-m67&quot;,&quot;atom_order&quot;:1},{&quot;id&quot;:4711,&quot;token&quot;:&quot;a:1&quot;,&quot;particle_id&quot;:&quot;img4-m67-p1&quot;,&quot;molecule_id&quot;:&quot;img4-m67&quot;,&quot;atom_order&quot;:2},{&quot;id&quot;:5489,&quot;token&quot;:&quot;m:1&quot;,&quot;particle_id&quot;:&quot;img4-m67-p1&quot;,&quot;molecule_id&quot;:&quot;img4-m67&quot;,&quot;atom_order&quot;:3},{&quot;id&quot;:4868,&quot;token&quot;:&quot;c:1&quot;,&quot;particle_id&quot;:&quot;img4-m67-p1&quot;,&quot;molecule_id&quot;:&quot;img4-m67&quot;,&quot;atom_order&quot;:4},{&quot;id&quot;:4712,&quot;token&quot;:&quot;a:1&quot;,&quot;particle_id&quot;:&quot;img4-m67-p1&quot;,&quot;molecule_id&quot;:&quot;img4-m67&quot;,&quot;atom_order&quot;:5},{&quot;id&quot;:5179,&quot;token&quot;:&quot;g:1&quot;,&quot;particle_id&quot;:&quot;img4-m67-p1&quot;,&quot;molecule_id&quot;:&quot;img4-m67&quot;,&quot;atom_order&quot;:6},{&quot;id&quot;:5078,&quot;token&quot;:&quot;e:1&quot;,&quot;particle_id&quot;:&quot;img4-m67-p1&quot;,&quot;molecule_id&quot;:&quot;img4-m67&quot;,&quot;atom_order&quot;:7}]}</metadata>
  <rect x="0" y="0" width="123" height="92" fill="#f8f0d8"/>
  <image href="file:///C:/Users/HHHES/AppData/Roaming/com.voynichlab.datasetcreator/images/1/aff30327-ced8-4ab4-8c9b-190205ebe022.jpg" x="-1693" y="-2568" width="2804" height="3797" opacity="0.92"/>
  <rect x="0.5" y="0.5" width="122" height="91" fill="none" stroke="#111827" stroke-width="1" opacity="0.35"/>
  <polyline points="31,68 31,69 30,69 30,70 29,70 28,70 28,71 27,71 26,71 25,71 24,71 23,71 22,71 21,71 21,70 20,70 19,70 18,70 18,69 17,69 16,69 16,68 16,67 16,66 16,65 16,64 16,63 16,62 17,62 17,61 17,60 17,59 18,59 18,58 18,57 19,57 19,56 19,55 20,55 21,55 21,54 22,54 22,53 23,53 24,53 24,52 25,52 26,52 27,52 27,51" fill="none" stroke="#f2e45c" stroke-width="3" stroke-linecap="round" stroke-linejoin="round" opacity="0.95">
    <title>5079 e:1</title>
  </polyline>
  <polyline points="53,42 53,43 53,44 53,45 53,46 54,46 54,48 54,49 54,50 54,51 54,52 54,53 54,54 54,55 54,56 54,57 53,58 53,59 53,60 53,61 53,62 53,63 53,64 53,65 53,66 52,67 52,68 52,69 52,70" fill="none" stroke="#00f0b5" stroke-width="3" stroke-linecap="round" stroke-linejoin="round" opacity="0.95">
    <title>4711 a:1</title>
  </polyline>
  <polyline points="53,43 53,42 53,41 53,40 54,40 54,39 54,38 54,37 54,36 55,36 55,35 55,34 55,33 55,32 55,31 55,30 55,29 56,29 56,28 56,27 56,26 56,25 56,24 56,23 56,22 57,22 57,21 57,20 57,19 57,18 57,17 57,16 56,16 56,17 55,17 55,18 54,18 53,19 52,20 51,20 50,21 49,21 48,22 47,22 47,23 46,23 45,24 44,24 43,25 42,25 42,26 41,26 40,26 40,27 39,27 38,27 38,28 37,28 36,28 36,29 35,29 35,30 34,30 34,31 35,31 36,31 36,32 37,32 39,32 40,32 41,32 42,32 43,32 44,32 45,32 46,32 47,32 48,32 49,32 50,32 51,32 52,32 53,32 54,32 55,32 56,32 57,32 58,32 59,32 60,32 61,32 62,32 63,32 64,32 66,33 67,33 68,33 69,33 70,33 71,33 72,33 73,33 74,33 75,33 76,33 77,33 77,34" fill="none" stroke="#ff00ff" stroke-width="3" stroke-linecap="round" stroke-linejoin="round" opacity="0.95">
    <title>5489 m:1</title>
  </polyline>
  <polyline points="73,22 73,23 73,24 73,25 73,26 73,27 73,28 73,29 73,30 73,31 74,31 74,32 75,32 75,33 76,33 77,34 78,34 79,34 80,34 81,34 82,35 83,35 84,35 85,35 86,35 87,35 88,35 88,34 89,34 90,33 91,33 91,32 91,31 92,31 92,30 92,29 92,28 93,28 93,27 93,26 92,26 92,25 91,25 91,24 90,24 90,23 89,23 88,22 87,22 86,21 85,21 84,21 83,21 82,21 81,21 80,21 79,21 78,21 78,22 77,22 76,22 75,23 74,23 73,23 73,24 72,24 72,25 72,26" fill="none" stroke="#8aff00" stroke-width="3" stroke-linecap="round" stroke-linejoin="round" opacity="0.95">
    <title>4868 c:1</title>
  </polyline>
  <polyline points="73,21 73,23 73,24 72,26 72,27 72,29 72,31 72,32 71,33 71,34 71,35 71,36 71,37 71,38 71,39 71,40 71,41 70,42 70,43 70,44 70,45 70,46 70,47 70,48 70,49 70,50 70,51 70,52 69,53 69,54 69,56 69,57 69,58 69,59 69,61 69,62 69,63 69,64 69,65 68,66 68,67 68,68 68,69 68,70 68,71 68,72 68,73 68,74 68,73" fill="none" stroke="#00f0b5" stroke-width="3" stroke-linecap="round" stroke-linejoin="round" opacity="0.95">
    <title>4712 a:1</title>
  </polyline>
  <polyline points="23,51 24,51 25,51 26,52 27,52 28,52 30,52 31,52 32,52 33,52 34,52 36,52 37,52 38,53 39,53 40,53 41,53 43,53 46,53 48,53 49,53 50,53 51,53 53,53 54,53 56,53 57,53 58,53 59,53 60,53 61,52 62,52 63,52 65,52 67,52 68,52 69,52 70,52 71,52 72,52 73,52 74,52 76,52 77,52 79,52 80,52 81,52 83,52 84,52 86,52 88,52 90,53 91,53 93,53 94,53 95,53 96,53 97,53 97,54 98,54 99,55 100,56 101,56 102,56 102,57 103,57 104,57 105,57 106,57" fill="none" stroke="#7c3cff" stroke-width="3" stroke-linecap="round" stroke-linejoin="round" opacity="0.95">
    <title>5179 g:1</title>
  </polyline>
  <polyline points="107,73 107,74 106,74 106,75 105,75 104,75 104,76 103,76 102,76 101,76 100,76 99,76 98,76 97,76 97,75 96,75 95,75 94,75 94,74 93,74 92,74 92,73 92,72 92,71 92,70 92,69 92,68 92,67 93,67 93,66 93,65 93,64 94,64 94,63 94,62 95,62 95,61 95,60 96,60 97,60 97,59 98,59 98,58 99,58 100,58 100,57 101,57 102,57 103,57 103,56" fill="none" stroke="#f2e45c" stroke-width="3" stroke-linecap="round" stroke-linejoin="round" opacity="0.95">
    <title>5078 e:1</title>
  </polyline>
</svg>
