<?xml version="1.0" encoding="UTF-8"?>
<svg xmlns="http://www.w3.org/2000/svg" width="95" height="85" viewBox="0 0 95 85">
  <title>particle img4-m40-p5 k:1 f:1 i:1 d:1</title>
  <metadata>{&quot;entityType&quot;:&quot;particle&quot;,&quot;entityId&quot;:&quot;img4-m40-p5&quot;,&quot;token&quot;:&quot;k:1 f:1 i:1 d:1&quot;,&quot;signature&quot;:&quot;k:1 f:1 i:1 d:1&quot;,&quot;imageName&quot;:&quot;page-004.jpg&quot;,&quot;imageId&quot;:4,&quot;bounds&quot;:{&quot;x&quot;:2141,&quot;y&quot;:2383,&quot;w&quot;:95,&quot;h&quot;:85},&quot;atoms&quot;:[{&quot;id&quot;:5413,&quot;token&quot;:&quot;k:1&quot;,&quot;particle_id&quot;:&quot;img4-m40-p5&quot;,&quot;molecule_id&quot;:&quot;img4-m40&quot;,&quot;atom_order&quot;:1},{&quot;id&quot;:5366,&quot;token&quot;:&quot;f:1&quot;,&quot;particle_id&quot;:&quot;img4-m40-p5&quot;,&quot;molecule_id&quot;:&quot;img4-m40&quot;,&quot;atom_order&quot;:2},{&quot;id&quot;:5221,&quot;token&quot;:&quot;i:1&quot;,&quot;particle_id&quot;:&quot;img4-m40-p5&quot;,&quot;molecule_id&quot;:&quot;img4-m40&quot;,&quot;atom_order&quot;:3},{&quot;id&quot;:5246,&quot;token&quot;:&quot;d:1&quot;,&quot;particle_id&quot;:&quot;img4-m40-p5&quot;,&quot;molecule_id&quot;:&quot;img4-m40&quot;,&quot;atom_order&quot;:4}]}</metadata>
  <rect x="0" y="0" width="95" height="85" fill="#f8f0d8"/>
  <image href="file:///C:/Users/HHHES/AppData/Roaming/com.voynichlab.datasetcreator/images/1/aff30327-ced8-4ab4-8c9b-190205ebe022.jpg" x="-2141" y="-2383" width="2804" height="3797" opacity="0.92"/>
  <rect x="0.5" y="0.5" width="94" height="84" fill="none" stroke="#111827" stroke-width="1" opacity="0.35"/>
  <polyline points="16,42 17,42 17,43 17,44 18,45 18,46 18,47 19,47 19,48 19,49 20,50 20,51 20,52 21,53 21,54 21,55 22,55 22,56 22,57 22,58 23,59 23,60 23,61 24,61 24,60 25,60 26,59 26,58 27,58 27,57 28,57 28,56 29,55 30,55 30,54 31,53 32,53 32,52 33,52 33,51 34,51 34,50 35,50 35,49 36,49 36,48 37,48 38,49 38,50 39,51 39,52 40,53 41,54 41,55 41,56 42,56 42,57 43,58 43,59 44,59 44,60 44,61 45,61 45,62 46,62 47,62 48,62 49,61 50,60 51,59 52,59 52,58 52,57 53,57 54,56 55,55 55,54 56,54 56,53 56,52 57,52 57,51 58,51 59,50" fill="none" stroke="#ffffff" stroke-width="3" stroke-linecap="round" stroke-linejoin="round" opacity="0.95">
    <title>5413 k:1</title>
  </polyline>
  <polyline points="57,48 57,49 57,50 58,50 58,51 58,52 59,52 59,53 60,54 60,55 61,55 61,56 62,57 62,58 63,58 63,59 64,59 64,60 65,60 65,61 65,62 66,62 66,63 66,64 67,64 67,65 68,65 68,66 69,67 69,68 70,68 70,69" fill="none" stroke="#00a2ff" stroke-width="3" stroke-linecap="round" stroke-linejoin="round" opacity="0.95">
    <title>5366 f:1</title>
  </polyline>
  <polyline points="67,68 67,67 68,67 69,67 70,67 71,67 71,66 72,66 72,65 73,65 74,64 74,63 75,63 75,62 76,62 76,61 76,60 77,60 77,59 77,58 78,57 78,56 78,55 79,54 79,53 79,52 79,51 79,50 79,49 79,48 79,47 79,46 78,45 78,44 78,43 77,42 77,41 77,40 76,40 76,39 76,38 75,38 75,37 74,37 74,36 73,35 73,34 72,34 72,33 71,32 70,31 69,30 68,29 68,28 67,28 67,27 66,27 66,26" fill="none" stroke="#00ff7f" stroke-width="3" stroke-linecap="round" stroke-linejoin="round" opacity="0.95">
    <title>5221 i:1</title>
  </polyline>
  <polyline points="30,18 31,17 32,17 33,17 33,16 34,16 35,16 36,16 37,16 38,16 39,16 40,16 42,16 43,17 44,17 45,17 46,18 48,18 49,18 50,18 51,19 52,19 52,20 53,20 54,20 55,21 56,21 57,22 58,23 59,23 59,24 60,24 61,24 62,25 63,26 64,27 65,27 65,28 66,28 67,28 67,29 68,29 68,30 69,31 70,31 70,32" fill="none" stroke="#ff2d55" stroke-width="3" stroke-linecap="round" stroke-linejoin="round" opacity="0.95">
    <title>5246 d:1</title>
  </polyline>
</svg>
