<?xml version="1.0" encoding="UTF-8"?>
<svg xmlns="http://www.w3.org/2000/svg" width="119" height="95" viewBox="0 0 119 95">
  <title>particle img4-m13-p1 a:1 b:1 c:1 a:1 c:2 g:1 e:1</title>
  <metadata>{&quot;entityType&quot;:&quot;particle&quot;,&quot;entityId&quot;:&quot;img4-m13-p1&quot;,&quot;token&quot;:&quot;a:1 b:1 c:1 a:1 c:2 g:1 e:1&quot;,&quot;signature&quot;:&quot;a:1 b:1 c:1 a:1 c:2 g:1 e:1&quot;,&quot;imageName&quot;:&quot;page-004.jpg&quot;,&quot;imageId&quot;:4,&quot;bounds&quot;:{&quot;x&quot;:781,&quot;y&quot;:2008,&quot;w&quot;:119,&quot;h&quot;:95},&quot;atoms&quot;:[{&quot;id&quot;:4668,&quot;token&quot;:&quot;a:1&quot;,&quot;particle_id&quot;:&quot;img4-m13-p1&quot;,&quot;molecule_id&quot;:&quot;img4-m13&quot;,&quot;atom_order&quot;:1},{&quot;id&quot;:4736,&quot;token&quot;:&quot;b:1&quot;,&quot;particle_id&quot;:&quot;img4-m13-p1&quot;,&quot;molecule_id&quot;:&quot;img4-m13&quot;,&quot;atom_order&quot;:2},{&quot;id&quot;:4800,&quot;token&quot;:&quot;c:1&quot;,&quot;particle_id&quot;:&quot;img4-m13-p1&quot;,&quot;molecule_id&quot;:&quot;img4-m13&quot;,&quot;atom_order&quot;:3},{&quot;id&quot;:4669,&quot;token&quot;:&quot;a:1&quot;,&quot;particle_id&quot;:&quot;img4-m13-p1&quot;,&quot;molecule_id&quot;:&quot;img4-m13&quot;,&quot;atom_order&quot;:4},{&quot;id&quot;:4801,&quot;token&quot;:&quot;c:2&quot;,&quot;particle_id&quot;:&quot;img4-m13-p1&quot;,&quot;molecule_id&quot;:&quot;img4-m13&quot;,&quot;atom_order&quot;:5},{&quot;id&quot;:5148,&quot;token&quot;:&quot;g:1&quot;,&quot;particle_id&quot;:&quot;img4-m13-p1&quot;,&quot;molecule_id&quot;:&quot;img4-m13&quot;,&quot;atom_order&quot;:6},{&quot;id&quot;:4960,&quot;token&quot;:&quot;e:1&quot;,&quot;particle_id&quot;:&quot;img4-m13-p1&quot;,&quot;molecule_id&quot;:&quot;img4-m13&quot;,&quot;atom_order&quot;:7}]}</metadata>
  <rect x="0" y="0" width="119" height="95" fill="#f8f0d8"/>
  <image href="file:///C:/Users/HHHES/AppData/Roaming/com.voynichlab.datasetcreator/images/1/aff30327-ced8-4ab4-8c9b-190205ebe022.jpg" x="-781" y="-2008" width="2804" height="3797" opacity="0.92"/>
  <rect x="0.5" y="0.5" width="118" height="94" fill="none" stroke="#111827" stroke-width="1" opacity="0.35"/>
  <polyline points="46,23 46,24 46,25 46,26 46,27 46,28 46,30 46,31 46,33 46,34 46,35 46,37 46,38 46,39 46,40 46,41 46,42 46,43 46,44 46,45 46,46 46,47 45,48 45,49 45,50 45,51 45,52 45,53 44,55 44,56 44,58 44,59 44,61 43,62 43,64 43,65 43,66 43,67 43,68 43,69 43,70 43,71 43,72 43,71 43,70" fill="none" stroke="#00f0b5" stroke-width="3" stroke-linecap="round" stroke-linejoin="round" opacity="0.95">
    <title>4668 a:1</title>
  </polyline>
  <polyline points="46,24 46,25 46,26 46,27 46,28 47,28 47,29 48,30 49,30 49,31 50,31 51,31 52,31 53,32 54,32 55,32 56,32 57,32 58,32 58,33 59,33 60,33 61,33 62,33 63,33 64,33 65,33 66,33 67,33 68,33 69,32 70,32 71,32 72,32 73,32 74,32 74,31 75,31 75,30 76,30 77,30 78,29 78,28 79,28 80,27 80,26 81,26 81,25 82,24 83,23 84,23" fill="none" stroke="#2f7df6" stroke-width="3" stroke-linecap="round" stroke-linejoin="round" opacity="0.95">
    <title>4736 b:1</title>
  </polyline>
  <polyline points="83,24 83,23 83,22 83,21 83,20 83,19 83,18 82,18 81,18 81,17 80,17 79,17 78,16 77,16 76,16 75,16 74,16 73,16 72,16 71,16 70,16 69,17 68,18 67,19 66,20 66,21 66,22 65,22 65,23 65,24 65,25 65,26 65,27 65,28 65,29 66,29 67,29 67,30 68,30 69,31 70,31 71,31 72,31 73,31 74,31 75,31 76,31 77,31 78,30 79,30 79,29 80,29 81,28 82,28 82,27 82,26 82,25 82,24 83,24 83,23" fill="none" stroke="#8aff00" stroke-width="3" stroke-linecap="round" stroke-linejoin="round" opacity="0.95">
    <title>4800 c:1</title>
  </polyline>
  <polyline points="65,24 65,23 65,24 65,25 64,26 64,28 64,29 63,31 63,32 62,34 62,36 62,38 61,40 61,43 60,44 60,46 60,47 60,48 60,49 60,50 60,51 60,52 60,53 60,54 60,55 60,56 60,57 60,58 60,59 60,61 60,62 60,63 60,64 60,65 60,66 60,67 60,68 60,69" fill="none" stroke="#00f0b5" stroke-width="3" stroke-linecap="round" stroke-linejoin="round" opacity="0.95">
    <title>4669 a:1</title>
  </polyline>
  <polyline points="19,59 19,60 18,60 18,61 18,62 17,62 17,63 17,64 17,65 17,66 17,67 17,68 18,68 18,69 19,69 20,70 21,70 22,70 22,71 23,71 24,71 25,71 26,71 27,71 28,70 29,70 29,69 30,69 30,68 31,67 31,66 31,65 32,65 32,64 32,63 32,62 32,61 32,60 31,60 31,59 30,59 29,58 28,58 27,58 26,58 26,57 25,57 24,57 23,57 22,57 21,57 20,58 19,58 18,59 17,60 17,61 17,62 16,62 16,63 16,64 16,65 17,65 17,66 17,67 18,67 18,68 19,68 20,69 21,69 22,70 23,70 24,70 25,70 26,70 27,69 28,68 28,67 29,67 29,66 29,65 29,64 30,64 30,63 30,62 30,61 29,61 28,60 27,60 27,59 26,59 25,59 24,59 23,59 22,59 21,59 20,60 19,60 19,61 18,61 18,62 18,63 18,64 18,65 19,65 19,66 20,66 20,67 21,67 22,68 23,68 23,69 24,69 25,69 26,69 27,69 28,68 29,67 29,66 30,65 30,64 30,63 30,62 29,61 28,60 27,60 26,60 25,59 24,59 23,59 22,60 21,61 20,62 19,63 19,65 19,66 20,68 21,68 23,69 24,69 25,68 26,68 27,67 27,66 28,65 28,64 28,63 27,62 26,62 25,61 24,61 22,62 20,63 18,65 17,66 18,68 20,70 23,70 27,70 29,69 30,68 30,67 30,66 29,65 28,64 26,63 22,62 20,63 18,64 18,66 18,68 19,69 20,69 22,69 23,69 24,69 25,68 26,68 27,67 27,66 27,65 26,65 26,64 25,64 25,65 24,65 23,66 23,67 23,68 23,69 24,69 25,69 26,68 27,68 28,67 28,66 28,65 27,64 27,63 26,63 24,62 23,62 22,62 21,63 21,64 21,65 21,66 23,66 24,66 25,66 26,66 27,65 27,64 27,63 26,61 25,61 24,60 23,60 22,60 21,60 20,60 19,61 19,63 19,64 20,65 22,66 24,65 25,65 26,65 28,64 28,63 28,62 28,61 27,60 27,59 25,59 25,58 24,58 24,59 23,61 22,63 21,64 21,65 22,65 23,65 24,64 25,63 26,62 26,61 25,59 24,59 24,58 22,58 21,58 20,58 19,58 18,59 18,60 18,61 18,62 18,63 19,64 20,64 21,64 22,64 23,64 24,63 24,62 25,60 24,59 23,59 21,59 20,59 18,61 17,62 17,64 17,65 18,65 19,65 20,65 21,64 22,64 23,62 23,61 23,60 22,59 20,58 19,58 18,58 17,59 17,61 16,61 17,64 18,67 21,69 23,69 24,69 26,69 26,68 27,68 27,67 27,66 26,65 26,64 25,64 25,63 24,63 23,63 23,64 22,64 21,65 21,66 21,67 22,67 23,67 24,67 26,67 27,67 27,66 27,65 26,65 25,64 24,65 24,66 23,66 23,68 23,69 24,69 25,68 26,68 26,67 26,66 25,67 25,68 25,67 26,67 26,66 26,67 25,67 24,68 23,68 24,68 25,68 26,68 27,69 27,70 27,69 28,68 29,68 29,67 30,67 30,68 29,68 29,67 29,66 30,65 30,64 31,64 31,65 31,64 31,63 31,62 30,62 30,63 30,64 31,64 31,63 32,63 31,62 30,62 29,62 28,62 27,62 27,63 28,63 29,63 30,63 31,62 31,61 30,61 30,60 29,60 29,59 28,59 28,60 28,61 28,62 29,62 29,61 29,60 29,59 28,59 27,59 26,59 26,60 26,61 27,61 28,61 29,61 29,60 29,59 28,58 27,58 26,58 25,58 23,58 22,58 22,59 22,60 22,61 23,61 24,61 25,61 25,60 25,59 24,59 23,59 22,59 21,59 21,60 20,61 20,62 20,63 21,64 22,64 22,63 23,63 23,62 23,61 23,60 22,60 21,61 20,62 20,63 21,62 22,62 21,62 20,62 19,63 18,64 19,63 20,62 21,62 21,61 20,61 19,62 19,63 20,63 21,62 22,61 22,60 21,61 20,62 20,63 21,63 22,63 24,64 24,65 25,66 25,67 24,67 24,68 23,68 23,67 22,67 21,67 20,67 21,66 22,66 23,65 24,65 25,66 25,67 25,68 24,68 24,69 23,69 22,68 22,67 21,66 21,65 22,64 23,63 25,63 26,63 28,64 28,65 28,66 27,66 27,67 26,67 25,67 24,67 23,67 23,66 23,65 24,64 25,64 26,64 27,64 27,65 27,66 27,68 26,69 24,69 23,69 21,69 19,68 18,67 17,66 17,65 18,64 20,64 24,64 27,64 28,64 28,65 27,65 26,65 25,65 24,66 23,66 23,65" fill="none" stroke="#8aff00" stroke-width="3" stroke-linecap="round" stroke-linejoin="round" opacity="0.95">
    <title>4801 c:2</title>
  </polyline>
  <polyline points="23,57 24,57 25,57 26,57 27,57 28,57 29,57 30,57 31,57 32,57 33,57 34,57 35,57 36,57 37,57 38,57 39,58 40,58 41,58 42,58 43,58 44,58 45,58 46,58 47,58 48,58 48,59 49,59 50,59 51,59 52,59 53,59 54,59 55,59 56,59 57,59 58,60 59,60 60,60 61,60 62,60 64,60 65,60 66,60 67,60 69,60 70,60 71,60 73,60 74,60 76,60 77,60 78,60 79,60 80,60 81,60 83,60 84,60 86,60 88,60 89,60 90,60 91,60 92,60 93,60 94,60 95,60 96,60 97,60 98,60 99,60" fill="none" stroke="#7c3cff" stroke-width="3" stroke-linecap="round" stroke-linejoin="round" opacity="0.95">
    <title>5148 g:1</title>
  </polyline>
  <polyline points="103,76 103,77 102,77 102,78 101,78 100,78 100,79 99,79 98,79 97,79 96,79 95,79 94,79 93,79 93,78 92,78 91,78 90,78 90,77 89,77 88,77 88,76 88,75 88,74 88,73 88,72 88,71 88,70 89,70 89,69 89,68 89,67 90,67 90,66 90,65 91,65 91,64 91,63 92,63 93,63 93,62 94,62 94,61 95,61 96,61 96,60 97,60 98,60 99,60 99,59" fill="none" stroke="#f2e45c" stroke-width="3" stroke-linecap="round" stroke-linejoin="round" opacity="0.95">
    <title>4960 e:1</title>
  </polyline>
</svg>
