<?xml version="1.0" encoding="UTF-8"?>
<svg xmlns="http://www.w3.org/2000/svg" width="59" height="73" viewBox="0 0 59 73">
  <title>particle img4-m85-p1 e:1 c:1 h:2</title>
  <metadata>{&quot;entityType&quot;:&quot;particle&quot;,&quot;entityId&quot;:&quot;img4-m85-p1&quot;,&quot;token&quot;:&quot;e:1 c:1 h:2&quot;,&quot;signature&quot;:&quot;e:1 c:1 h:2&quot;,&quot;imageName&quot;:&quot;page-004.jpg&quot;,&quot;imageId&quot;:4,&quot;bounds&quot;:{&quot;x&quot;:1077,&quot;y&quot;:2708,&quot;w&quot;:59,&quot;h&quot;:73},&quot;atoms&quot;:[{&quot;id&quot;:5131,&quot;token&quot;:&quot;e:1&quot;,&quot;particle_id&quot;:&quot;img4-m85-p1&quot;,&quot;molecule_id&quot;:&quot;img4-m85&quot;,&quot;atom_order&quot;:1},{&quot;id&quot;:4911,&quot;token&quot;:&quot;c:1&quot;,&quot;particle_id&quot;:&quot;img4-m85-p1&quot;,&quot;molecule_id&quot;:&quot;img4-m85&quot;,&quot;atom_order&quot;:2},{&quot;id&quot;:5329,&quot;token&quot;:&quot;h:2&quot;,&quot;particle_id&quot;:&quot;img4-m85-p1&quot;,&quot;molecule_id&quot;:&quot;img4-m85&quot;,&quot;atom_order&quot;:3}]}</metadata>
  <rect x="0" y="0" width="59" height="73" fill="#f8f0d8"/>
  <image href="file:///C:/Users/HHHES/AppData/Roaming/com.voynichlab.datasetcreator/images/1/aff30327-ced8-4ab4-8c9b-190205ebe022.jpg" x="-1077" y="-2708" width="2804" height="3797" opacity="0.92"/>
  <rect x="0.5" y="0.5" width="58" height="72" fill="none" stroke="#111827" stroke-width="1" opacity="0.35"/>
  <polyline points="31,54 31,55 30,55 30,56 29,56 28,56 28,57 27,57 26,57 25,57 24,57 23,57 22,57 21,57 21,56 20,56 19,56 18,56 18,55 17,55 16,55 16,54 16,53 16,52 16,51 16,50 16,49 16,48 17,48 17,47 17,46 17,45 18,45 18,44 18,43 19,43 19,42 19,41 20,41 21,41 21,40 22,40 22,39 23,39 24,39 24,38 25,38 26,38 27,38 27,37" fill="none" stroke="#f2e45c" stroke-width="3" stroke-linecap="round" stroke-linejoin="round" opacity="0.95">
    <title>5131 e:1</title>
  </polyline>
  <polyline points="33,31 34,31 35,31 35,30 36,30 36,29 37,29 38,29 38,28 39,28 39,27 40,27 41,26 41,25 42,25 42,24 42,23 43,22 43,21 42,21 42,20 42,19 41,19 41,18 40,18 39,17 38,17 37,16 36,16 35,16 34,16 32,16 31,16 30,16 29,16 28,16 28,17 27,17 26,18 26,19 25,20 25,21 24,22 24,23 24,24 25,24 25,25 25,26 26,26 26,27 27,27 27,28 27,29 28,29 29,30 30,30 31,30 31,31 32,31 33,31 34,31 35,31" fill="none" stroke="#8aff00" stroke-width="3" stroke-linecap="round" stroke-linejoin="round" opacity="0.95">
    <title>4911 c:1</title>
  </polyline>
  <polyline points="27,19 26,19 26,20 25,20 25,21 25,22 25,23 25,24 25,25 25,26 25,27 26,28 26,29 27,30 27,31 28,31 29,32 30,33 30,34 31,34 31,35 32,35 32,36 32,37 33,37 33,38 33,39 34,40 34,41 34,42 34,43 34,44 34,45 34,46 34,47 34,48 34,49 34,50 33,51 32,52 31,53 30,53 29,54 28,54 27,55 26,56 25,56 25,57 24,57" fill="none" stroke="#ff8c00" stroke-width="3" stroke-linecap="round" stroke-linejoin="round" opacity="0.95">
    <title>5329 h:2</title>
  </polyline>
</svg>
