<?xml version="1.0" encoding="UTF-8"?>
<svg xmlns="http://www.w3.org/2000/svg" width="56" height="80" viewBox="0 0 56 80">
  <title>particle img4-m82-p3 f:1 i:1 d:1</title>
  <metadata>{&quot;entityType&quot;:&quot;particle&quot;,&quot;entityId&quot;:&quot;img4-m82-p3&quot;,&quot;token&quot;:&quot;f:1 i:1 d:1&quot;,&quot;signature&quot;:&quot;f:1 i:1 d:1&quot;,&quot;imageName&quot;:&quot;page-004.jpg&quot;,&quot;imageId&quot;:4,&quot;bounds&quot;:{&quot;x&quot;:2215,&quot;y&quot;:2678,&quot;w&quot;:56,&quot;h&quot;:80},&quot;atoms&quot;:[{&quot;id&quot;:5401,&quot;token&quot;:&quot;f:1&quot;,&quot;particle_id&quot;:&quot;img4-m82-p3&quot;,&quot;molecule_id&quot;:&quot;img4-m82&quot;,&quot;atom_order&quot;:1},{&quot;id&quot;:5230,&quot;token&quot;:&quot;i:1&quot;,&quot;particle_id&quot;:&quot;img4-m82-p3&quot;,&quot;molecule_id&quot;:&quot;img4-m82&quot;,&quot;atom_order&quot;:2},{&quot;id&quot;:5252,&quot;token&quot;:&quot;d:1&quot;,&quot;particle_id&quot;:&quot;img4-m82-p3&quot;,&quot;molecule_id&quot;:&quot;img4-m82&quot;,&quot;atom_order&quot;:3}]}</metadata>
  <rect x="0" y="0" width="56" height="80" fill="#f8f0d8"/>
  <image href="file:///C:/Users/HHHES/AppData/Roaming/com.voynichlab.datasetcreator/images/1/aff30327-ced8-4ab4-8c9b-190205ebe022.jpg" x="-2215" y="-2678" width="2804" height="3797" opacity="0.92"/>
  <rect x="0.5" y="0.5" width="55" height="79" fill="none" stroke="#111827" stroke-width="1" opacity="0.35"/>
  <polyline points="16,43 16,44 16,45 17,45 17,46 17,47 18,47 18,48 19,49 19,50 20,50 20,51 21,52 21,53 22,53 22,54 23,54 23,55 24,55 24,56 24,57 25,57 25,58 25,59 26,59 26,60 27,60 27,61 28,62 28,63 29,63 29,64" fill="none" stroke="#00a2ff" stroke-width="3" stroke-linecap="round" stroke-linejoin="round" opacity="0.95">
    <title>5401 f:1</title>
  </polyline>
  <polyline points="20,51 21,51 22,50 23,50 25,50 26,50 27,50 27,49 28,49 29,49 30,48 31,48 32,48 32,47 33,47 33,46 34,45 35,45 35,44 36,44 36,43 37,42 38,42 38,41 38,40 39,39 39,38 39,37 39,36 40,35 40,34 40,33 40,32 40,31 40,30 40,29 40,28 40,27 40,26 40,25 40,24" fill="none" stroke="#00ff7f" stroke-width="3" stroke-linecap="round" stroke-linejoin="round" opacity="0.95">
    <title>5230 i:1</title>
  </polyline>
  <polyline points="22,16 23,16 24,16 25,16 26,17 28,17 30,17 31,18 32,18 33,19 34,19 35,20 36,21 37,21 37,22 37,23 38,23 38,24 39,24 39,25 39,26 39,27 39,28 40,28 40,29" fill="none" stroke="#ff2d55" stroke-width="3" stroke-linecap="round" stroke-linejoin="round" opacity="0.95">
    <title>5252 d:1</title>
  </polyline>
</svg>
