<?xml version="1.0" encoding="UTF-8"?>
<svg xmlns="http://www.w3.org/2000/svg" width="61" height="81" viewBox="0 0 61 81">
  <title>particle img4-m75-p2 f:1 i:1 d:1</title>
  <metadata>{&quot;entityType&quot;:&quot;particle&quot;,&quot;entityId&quot;:&quot;img4-m75-p2&quot;,&quot;token&quot;:&quot;f:1 i:1 d:1&quot;,&quot;signature&quot;:&quot;f:1 i:1 d:1&quot;,&quot;imageName&quot;:&quot;page-004.jpg&quot;,&quot;imageId&quot;:4,&quot;bounds&quot;:{&quot;x&quot;:664,&quot;y&quot;:2608,&quot;w&quot;:61,&quot;h&quot;:81},&quot;atoms&quot;:[{&quot;id&quot;:5392,&quot;token&quot;:&quot;f:1&quot;,&quot;particle_id&quot;:&quot;img4-m75-p2&quot;,&quot;molecule_id&quot;:&quot;img4-m75&quot;,&quot;atom_order&quot;:1},{&quot;id&quot;:5224,&quot;token&quot;:&quot;i:1&quot;,&quot;particle_id&quot;:&quot;img4-m75-p2&quot;,&quot;molecule_id&quot;:&quot;img4-m75&quot;,&quot;atom_order&quot;:2},{&quot;id&quot;:5249,&quot;token&quot;:&quot;d:1&quot;,&quot;particle_id&quot;:&quot;img4-m75-p2&quot;,&quot;molecule_id&quot;:&quot;img4-m75&quot;,&quot;atom_order&quot;:3}]}</metadata>
  <rect x="0" y="0" width="61" height="81" fill="#f8f0d8"/>
  <image href="file:///C:/Users/HHHES/AppData/Roaming/com.voynichlab.datasetcreator/images/1/aff30327-ced8-4ab4-8c9b-190205ebe022.jpg" x="-664" y="-2608" width="2804" height="3797" opacity="0.92"/>
  <rect x="0.5" y="0.5" width="60" height="80" fill="none" stroke="#111827" stroke-width="1" opacity="0.35"/>
  <polyline points="25,44 25,45 25,46 26,46 26,47 26,48 27,48 27,49 28,50 28,51 29,51 29,52 30,53 30,54 31,54 31,55 32,55 32,56 33,56 33,57 33,58 34,58 34,59 34,60 35,60 35,61 36,61 36,62 37,63 37,64 38,64 38,65" fill="none" stroke="#00a2ff" stroke-width="3" stroke-linecap="round" stroke-linejoin="round" opacity="0.95">
    <title>5392 f:1</title>
  </polyline>
  <polyline points="27,50 28,49 29,48 30,48 30,47 31,47 32,46 33,45 34,45 35,44 36,43 37,43 37,42 38,41 39,40 39,39 40,39 40,38 41,38 41,37 42,35 43,35 43,34 43,33 43,32 44,31 44,30 44,29 44,28 44,27 45,27 45,26 45,25 45,24 45,23 45,22 44,21 44,20 44,19 43,19 43,18" fill="none" stroke="#00ff7f" stroke-width="3" stroke-linecap="round" stroke-linejoin="round" opacity="0.95">
    <title>5224 i:1</title>
  </polyline>
  <polyline points="16,21 17,21 18,21 19,20 20,20 21,19 22,19 23,19 23,18 24,18 25,18 27,17 28,17 29,17 29,16 30,16 31,16 33,16 35,16 36,16 37,16 38,16 39,16 40,17 41,17 42,17 42,18 43,18 44,18 44,19 44,20" fill="none" stroke="#ff2d55" stroke-width="3" stroke-linecap="round" stroke-linejoin="round" opacity="0.95">
    <title>5249 d:1</title>
  </polyline>
</svg>
