<?xml version="1.0" encoding="UTF-8"?>
<svg xmlns="http://www.w3.org/2000/svg" width="62" height="111" viewBox="0 0 62 111">
  <title>particle img4-m11-p2 f:1 i:1 c:1 h:1</title>
  <metadata>{&quot;entityType&quot;:&quot;particle&quot;,&quot;entityId&quot;:&quot;img4-m11-p2&quot;,&quot;token&quot;:&quot;f:1 i:1 c:1 h:1&quot;,&quot;signature&quot;:&quot;f:1 i:1 c:1 h:1&quot;,&quot;imageName&quot;:&quot;page-004.jpg&quot;,&quot;imageId&quot;:4,&quot;bounds&quot;:{&quot;x&quot;:2450,&quot;y&quot;:1976,&quot;w&quot;:62,&quot;h&quot;:111},&quot;atoms&quot;:[{&quot;id&quot;:5341,&quot;token&quot;:&quot;f:1&quot;,&quot;particle_id&quot;:&quot;img4-m11-p2&quot;,&quot;molecule_id&quot;:&quot;img4-m11&quot;,&quot;atom_order&quot;:1},{&quot;id&quot;:5212,&quot;token&quot;:&quot;i:1&quot;,&quot;particle_id&quot;:&quot;img4-m11-p2&quot;,&quot;molecule_id&quot;:&quot;img4-m11&quot;,&quot;atom_order&quot;:2},{&quot;id&quot;:4767,&quot;token&quot;:&quot;c:1&quot;,&quot;particle_id&quot;:&quot;img4-m11-p2&quot;,&quot;molecule_id&quot;:&quot;img4-m11&quot;,&quot;atom_order&quot;:3},{&quot;id&quot;:5261,&quot;token&quot;:&quot;h:1&quot;,&quot;particle_id&quot;:&quot;img4-m11-p2&quot;,&quot;molecule_id&quot;:&quot;img4-m11&quot;,&quot;atom_order&quot;:4}]}</metadata>
  <rect x="0" y="0" width="62" height="111" fill="#f8f0d8"/>
  <image href="file:///C:/Users/HHHES/AppData/Roaming/com.voynichlab.datasetcreator/images/1/aff30327-ced8-4ab4-8c9b-190205ebe022.jpg" x="-2450" y="-1976" width="2804" height="3797" opacity="0.92"/>
  <rect x="0.5" y="0.5" width="61" height="110" fill="none" stroke="#111827" stroke-width="1" opacity="0.35"/>
  <polyline points="16,53 16,54 16,55 17,55 17,56 17,57 18,57 18,58 19,59 19,60 20,60 20,61 21,62 21,63 22,63 22,64 23,64 23,65 24,65 24,66 24,67 25,67 25,68 25,69 26,69 26,70 27,70 27,71 28,72 28,73 29,73 29,74" fill="none" stroke="#00a2ff" stroke-width="3" stroke-linecap="round" stroke-linejoin="round" opacity="0.95">
    <title>5341 f:1</title>
  </polyline>
  <polyline points="18,58 19,58 20,58 21,58 22,58 23,59 24,59 25,59 26,59 26,58 27,58 28,58 28,57 29,57 30,57 30,56 31,56 32,56 32,55 33,55 34,54 35,54 35,53 36,52 36,51 37,51 37,50 38,50 38,49 38,48 39,47 40,46 40,45 41,44 42,43 42,42 42,41 43,40 43,39 43,38 44,37 44,36 44,35 45,34 45,33 45,32 45,31 45,30 45,29 46,29 46,28 46,27 45,26 45,25 45,24 45,23 45,22" fill="none" stroke="#00ff7f" stroke-width="3" stroke-linecap="round" stroke-linejoin="round" opacity="0.95">
    <title>5212 i:1</title>
  </polyline>
  <polyline points="28,22 28,23 27,23 27,24 27,25 26,25 26,26 26,27 26,28 26,29 26,30 26,31 26,32 27,32 27,33 28,33 28,34 29,35 30,35 31,35 32,35 32,36 33,36 34,36 35,36 36,36 37,36 38,36 39,36 40,36 40,35 41,35 42,35 42,34 42,33 43,33 43,32 44,32 44,31 44,30 45,30 45,29 45,28 46,28 46,27 46,26 46,25 46,24 46,23 46,22 45,22 45,21 45,20 44,20 44,19 43,19 43,18 42,18 42,17 41,17 40,17 40,16 39,16 38,16 37,16 36,16 35,16 34,16 33,16 32,17 31,17 31,18 30,18 30,19 29,19 28,19 28,20 27,20 27,21 27,22" fill="none" stroke="#8aff00" stroke-width="3" stroke-linecap="round" stroke-linejoin="round" opacity="0.95">
    <title>4767 c:1</title>
  </polyline>
  <polyline points="26,26 26,27 26,28 26,29 26,30 26,31 26,32 26,33 27,33 27,34 27,35 28,36 29,37 29,38 30,38 31,39 31,40 31,41 32,42 32,43 33,43 33,44 33,45 33,46 34,46 34,47 34,48 35,49 35,50 35,51 36,51 36,52 36,53 37,54 37,55 38,56 38,57 39,58 39,59 40,60 40,61 40,62 41,62 41,63 41,64 42,66 42,67 43,69 43,70 43,71 43,72 44,72 44,73 44,74 44,75 44,76 44,77 44,78 45,79 45,80 45,81 45,82 45,83 45,84 45,85 45,86 45,87 45,88 45,89 45,90 45,92 45,93 45,94 45,95" fill="none" stroke="#ff8c00" stroke-width="3" stroke-linecap="round" stroke-linejoin="round" opacity="0.95">
    <title>5261 h:1</title>
  </polyline>
</svg>
