<?xml version="1.0" encoding="UTF-8"?>
<svg xmlns="http://www.w3.org/2000/svg" width="81" height="56" viewBox="0 0 81 56">
  <title>particle img4-m2-p1 e:1 g:1 e:1</title>
  <metadata>{&quot;entityType&quot;:&quot;particle&quot;,&quot;entityId&quot;:&quot;img4-m2-p1&quot;,&quot;token&quot;:&quot;e:1 g:1 e:1&quot;,&quot;signature&quot;:&quot;e:1 g:1 e:1&quot;,&quot;imageName&quot;:&quot;page-004.jpg&quot;,&quot;imageId&quot;:4,&quot;bounds&quot;:{&quot;x&quot;:760,&quot;y&quot;:1903,&quot;w&quot;:81,&quot;h&quot;:56},&quot;atoms&quot;:[{&quot;id&quot;:4919,&quot;token&quot;:&quot;e:1&quot;,&quot;particle_id&quot;:&quot;img4-m2-p1&quot;,&quot;molecule_id&quot;:&quot;img4-m2&quot;,&quot;atom_order&quot;:1},{&quot;id&quot;:5139,&quot;token&quot;:&quot;g:1&quot;,&quot;particle_id&quot;:&quot;img4-m2-p1&quot;,&quot;molecule_id&quot;:&quot;img4-m2&quot;,&quot;atom_order&quot;:2},{&quot;id&quot;:4920,&quot;token&quot;:&quot;e:1&quot;,&quot;particle_id&quot;:&quot;img4-m2-p1&quot;,&quot;molecule_id&quot;:&quot;img4-m2&quot;,&quot;atom_order&quot;:3}]}</metadata>
  <rect x="0" y="0" width="81" height="56" fill="#f8f0d8"/>
  <image href="file:///C:/Users/HHHES/AppData/Roaming/com.voynichlab.datasetcreator/images/1/aff30327-ced8-4ab4-8c9b-190205ebe022.jpg" x="-760" y="-1903" width="2804" height="3797" opacity="0.92"/>
  <rect x="0.5" y="0.5" width="80" height="55" fill="none" stroke="#111827" stroke-width="1" opacity="0.35"/>
  <polyline points="31,33 31,34 30,34 30,35 29,35 28,35 28,36 27,36 26,36 25,36 24,36 23,36 22,36 21,36 21,35 20,35 19,35 18,35 18,34 17,34 16,34 16,33 16,32 16,31 16,30 16,29 16,28 16,27 17,27 17,26 17,25 17,24 18,24 18,23 18,22 19,22 19,21 19,20 20,20 21,20 21,19 22,19 22,18 23,18 24,18 24,17 25,17 26,17 27,17 27,16" fill="none" stroke="#f2e45c" stroke-width="3" stroke-linecap="round" stroke-linejoin="round" opacity="0.95">
    <title>4919 e:1</title>
  </polyline>
  <polyline points="26,17 27,17 28,17 29,17 30,17 31,17 32,18 33,18 35,18 36,18 37,18 38,18 39,18 40,18 41,18 42,19 43,19 44,19 45,19 47,19 48,19 50,19 51,19 52,19 53,19 54,19 55,19 55,20 56,20 57,20 58,20 59,20 60,21 61,21" fill="none" stroke="#7c3cff" stroke-width="3" stroke-linecap="round" stroke-linejoin="round" opacity="0.95">
    <title>5139 g:1</title>
  </polyline>
  <polyline points="65,37 65,38 64,38 64,39 63,39 62,39 62,40 61,40 60,40 59,40 58,40 57,40 56,40 55,40 55,39 54,39 53,39 52,39 52,38 51,38 50,38 50,37 50,36 50,35 50,34 50,33 50,32 50,31 51,31 51,30 51,29 51,28 52,28 52,27 52,26 53,26 53,25 53,24 54,24 55,24 55,23 56,23 56,22 57,22 58,22 58,21 59,21 60,21 61,21 61,20" fill="none" stroke="#f2e45c" stroke-width="3" stroke-linecap="round" stroke-linejoin="round" opacity="0.95">
    <title>4920 e:1</title>
  </polyline>
</svg>
