<?xml version="1.0" encoding="UTF-8"?>
<svg xmlns="http://www.w3.org/2000/svg" width="74" height="88" viewBox="0 0 74 88">
  <title>particle img4-m29-p1 a:1 b:1 c:1 a:1</title>
  <metadata>{&quot;entityType&quot;:&quot;particle&quot;,&quot;entityId&quot;:&quot;img4-m29-p1&quot;,&quot;token&quot;:&quot;a:1 b:1 c:1 a:1&quot;,&quot;signature&quot;:&quot;a:1 b:1 c:1 a:1&quot;,&quot;imageName&quot;:&quot;page-004.jpg&quot;,&quot;imageId&quot;:4,&quot;bounds&quot;:{&quot;x&quot;:1870,&quot;y&quot;:2147,&quot;w&quot;:74,&quot;h&quot;:88},&quot;atoms&quot;:[{&quot;id&quot;:4682,&quot;token&quot;:&quot;a:1&quot;,&quot;particle_id&quot;:&quot;img4-m29-p1&quot;,&quot;molecule_id&quot;:&quot;img4-m29&quot;,&quot;atom_order&quot;:1},{&quot;id&quot;:4739,&quot;token&quot;:&quot;b:1&quot;,&quot;particle_id&quot;:&quot;img4-m29-p1&quot;,&quot;molecule_id&quot;:&quot;img4-m29&quot;,&quot;atom_order&quot;:2},{&quot;id&quot;:4791,&quot;token&quot;:&quot;c:1&quot;,&quot;particle_id&quot;:&quot;img4-m29-p1&quot;,&quot;molecule_id&quot;:&quot;img4-m29&quot;,&quot;atom_order&quot;:3},{&quot;id&quot;:4683,&quot;token&quot;:&quot;a:1&quot;,&quot;particle_id&quot;:&quot;img4-m29-p1&quot;,&quot;molecule_id&quot;:&quot;img4-m29&quot;,&quot;atom_order&quot;:4}]}</metadata>
  <rect x="0" y="0" width="74" height="88" fill="#f8f0d8"/>
  <image href="file:///C:/Users/HHHES/AppData/Roaming/com.voynichlab.datasetcreator/images/1/aff30327-ced8-4ab4-8c9b-190205ebe022.jpg" x="-1870" y="-2147" width="2804" height="3797" opacity="0.92"/>
  <rect x="0.5" y="0.5" width="73" height="87" fill="none" stroke="#111827" stroke-width="1" opacity="0.35"/>
  <polyline points="21,22 21,23 21,24 20,24 20,25 20,26 20,27 20,28 20,29 20,30 20,31 20,32 20,33 20,35 20,36 20,37 19,38 19,39 19,40 19,41 19,42 19,43 19,44 19,45 18,45 18,46 18,47 18,48 18,49 17,50 17,51 17,52 17,53 16,54 16,55 16,56 16,57 16,58 16,59 16,60 16,61 16,62 16,63 16,64 16,65 16,66 16,67 16,68 16,69 16,70 16,71" fill="none" stroke="#00f0b5" stroke-width="3" stroke-linecap="round" stroke-linejoin="round" opacity="0.95">
    <title>4682 a:1</title>
  </polyline>
  <polyline points="20,22 20,23 20,24 20,25 21,26 21,27 22,28 22,29 23,30 24,31 25,32 26,32 27,33 28,33 29,34 30,34 30,35 31,35 32,35 32,36 33,36 34,36 35,37 36,37 37,37 37,38 38,38 39,38 40,38 41,38 42,38 43,38 44,37 45,37 46,37 47,36 48,36 49,35 50,34 51,33 52,33 52,32 53,32 53,31 54,31 54,30 55,30 55,29 56,29 56,28" fill="none" stroke="#2f7df6" stroke-width="3" stroke-linecap="round" stroke-linejoin="round" opacity="0.95">
    <title>4739 b:1</title>
  </polyline>
  <polyline points="56,29 57,28 57,27 58,26 58,25 58,24 58,23 58,22 57,21 57,20 56,20 56,19 55,19 55,18 54,18 54,17 53,17 52,16 51,16 50,16 49,16 48,16 47,16 46,16 45,16 44,16 44,17 43,17 42,17 42,18 41,18 40,19 40,20 39,21 39,22 38,22 38,23 38,24 38,25 37,25 37,26 37,27 37,28 37,29 37,30 37,31 37,32 37,33 38,33 38,34 39,34 39,35 40,35 41,35 42,36 43,36 44,36 45,36 46,36 47,36 48,36 49,35 50,35 51,35 51,34 52,34 53,33 54,33 54,32 55,32 55,31 56,31 57,30 57,29 58,29 58,28 58,27 58,26" fill="none" stroke="#8aff00" stroke-width="3" stroke-linecap="round" stroke-linejoin="round" opacity="0.95">
    <title>4791 c:1</title>
  </polyline>
  <polyline points="39,20 39,21 38,21 38,22 38,23 38,24 38,25 38,26 37,27 37,28 37,29 37,31 37,32 37,33 37,34 37,35 37,36 37,37 37,38 36,39 36,40 36,41 36,42 36,43 36,44 36,46 36,48 36,49 35,50 35,51 35,52 35,53 35,54 35,55 35,56 35,57 35,58 35,59 35,60 35,61 35,62 35,63 35,64 35,65 34,65 34,66 34,67 34,68 34,69 34,70 34,71 34,72" fill="none" stroke="#00f0b5" stroke-width="3" stroke-linecap="round" stroke-linejoin="round" opacity="0.95">
    <title>4683 a:1</title>
  </polyline>
</svg>
