<?xml version="1.0" encoding="UTF-8"?>
<svg xmlns="http://www.w3.org/2000/svg" width="64" height="86" viewBox="0 0 64 86">
  <title>particle img4-m90-p5 f:1 i:1 d:1</title>
  <metadata>{&quot;entityType&quot;:&quot;particle&quot;,&quot;entityId&quot;:&quot;img4-m90-p5&quot;,&quot;token&quot;:&quot;f:1 i:1 d:1&quot;,&quot;signature&quot;:&quot;f:1 i:1 d:1&quot;,&quot;imageName&quot;:&quot;page-004.jpg&quot;,&quot;imageId&quot;:4,&quot;bounds&quot;:{&quot;x&quot;:2044,&quot;y&quot;:2754,&quot;w&quot;:64,&quot;h&quot;:86},&quot;atoms&quot;:[{&quot;id&quot;:5403,&quot;token&quot;:&quot;f:1&quot;,&quot;particle_id&quot;:&quot;img4-m90-p5&quot;,&quot;molecule_id&quot;:&quot;img4-m90&quot;,&quot;atom_order&quot;:1},{&quot;id&quot;:5229,&quot;token&quot;:&quot;i:1&quot;,&quot;particle_id&quot;:&quot;img4-m90-p5&quot;,&quot;molecule_id&quot;:&quot;img4-m90&quot;,&quot;atom_order&quot;:2},{&quot;id&quot;:5253,&quot;token&quot;:&quot;d:1&quot;,&quot;particle_id&quot;:&quot;img4-m90-p5&quot;,&quot;molecule_id&quot;:&quot;img4-m90&quot;,&quot;atom_order&quot;:3}]}</metadata>
  <rect x="0" y="0" width="64" height="86" fill="#f8f0d8"/>
  <image href="file:///C:/Users/HHHES/AppData/Roaming/com.voynichlab.datasetcreator/images/1/aff30327-ced8-4ab4-8c9b-190205ebe022.jpg" x="-2044" y="-2754" width="2804" height="3797" opacity="0.92"/>
  <rect x="0.5" y="0.5" width="63" height="85" fill="none" stroke="#111827" stroke-width="1" opacity="0.35"/>
  <polyline points="25,49 25,50 25,51 26,51 26,52 26,53 27,53 27,54 28,55 28,56 29,56 29,57 30,58 30,59 31,59 31,60 32,60 32,61 33,61 33,62 33,63 34,63 34,64 34,65 35,65 35,66 36,66 36,67 37,68 37,69 38,69 38,70" fill="none" stroke="#00a2ff" stroke-width="3" stroke-linecap="round" stroke-linejoin="round" opacity="0.95">
    <title>5403 f:1</title>
  </polyline>
  <polyline points="25,52 25,53 27,53 29,53 32,54 34,54 35,54 36,54 37,54 38,54 39,54 40,53 41,53 42,52 43,52 44,51 45,51 46,51 46,50 47,49 47,48 48,47 48,46 48,45 48,44 48,43 48,42 48,41 48,40 48,39 48,38 48,37 47,37 47,36 47,35 46,34 46,33 45,33 44,32 43,31 43,30 42,30 42,29 42,28 41,28 41,27" fill="none" stroke="#00ff7f" stroke-width="3" stroke-linecap="round" stroke-linejoin="round" opacity="0.95">
    <title>5229 i:1</title>
  </polyline>
  <polyline points="16,16 17,16 18,16 19,16 20,16 21,16 23,17 24,17 24,18 25,18 26,18 28,19 29,19 30,20 30,21 31,22 32,23 33,23 34,23 35,24 35,25 36,25 37,26 38,26 38,27 39,27 39,28 40,29 41,30 42,31 43,32 43,33 44,33 44,34" fill="none" stroke="#ff2d55" stroke-width="3" stroke-linecap="round" stroke-linejoin="round" opacity="0.95">
    <title>5253 d:1</title>
  </polyline>
</svg>
