<?xml version="1.0" encoding="UTF-8"?>
<svg xmlns="http://www.w3.org/2000/svg" width="124" height="137" viewBox="0 0 124 137">
  <title>particle img4-m32-p1 e:1 a:1 e:1 b:1 c:1 a:1 b:1 d:1 g:1 e:1</title>
  <metadata>{&quot;entityType&quot;:&quot;particle&quot;,&quot;entityId&quot;:&quot;img4-m32-p1&quot;,&quot;token&quot;:&quot;e:1 a:1 e:1 b:1 c:1 a:1 b:1 d:1 g:1 e:1&quot;,&quot;signature&quot;:&quot;e:1 a:1 e:1 b:1 c:1 a:1 b:1 d:1 g:1 e:1&quot;,&quot;imageName&quot;:&quot;page-004.jpg&quot;,&quot;imageId&quot;:4,&quot;bounds&quot;:{&quot;x&quot;:1102,&quot;y&quot;:2265,&quot;w&quot;:124,&quot;h&quot;:137},&quot;atoms&quot;:[{&quot;id&quot;:5004,&quot;token&quot;:&quot;e:1&quot;,&quot;particle_id&quot;:&quot;img4-m32-p1&quot;,&quot;molecule_id&quot;:&quot;img4-m32&quot;,&quot;atom_order&quot;:1},{&quot;id&quot;:4688,&quot;token&quot;:&quot;a:1&quot;,&quot;particle_id&quot;:&quot;img4-m32-p1&quot;,&quot;molecule_id&quot;:&quot;img4-m32&quot;,&quot;atom_order&quot;:2},{&quot;id&quot;:5005,&quot;token&quot;:&quot;e:1&quot;,&quot;particle_id&quot;:&quot;img4-m32-p1&quot;,&quot;molecule_id&quot;:&quot;img4-m32&quot;,&quot;atom_order&quot;:3},{&quot;id&quot;:4743,&quot;token&quot;:&quot;b:1&quot;,&quot;particle_id&quot;:&quot;img4-m32-p1&quot;,&quot;molecule_id&quot;:&quot;img4-m32&quot;,&quot;atom_order&quot;:4},{&quot;id&quot;:4819,&quot;token&quot;:&quot;c:1&quot;,&quot;particle_id&quot;:&quot;img4-m32-p1&quot;,&quot;molecule_id&quot;:&quot;img4-m32&quot;,&quot;atom_order&quot;:5},{&quot;id&quot;:4689,&quot;token&quot;:&quot;a:1&quot;,&quot;particle_id&quot;:&quot;img4-m32-p1&quot;,&quot;molecule_id&quot;:&quot;img4-m32&quot;,&quot;atom_order&quot;:6},{&quot;id&quot;:4742,&quot;token&quot;:&quot;b:1&quot;,&quot;particle_id&quot;:&quot;img4-m32-p1&quot;,&quot;molecule_id&quot;:&quot;img4-m32&quot;,&quot;atom_order&quot;:7},{&quot;id&quot;:5255,&quot;token&quot;:&quot;d:1&quot;,&quot;particle_id&quot;:&quot;img4-m32-p1&quot;,&quot;molecule_id&quot;:&quot;img4-m32&quot;,&quot;atom_order&quot;:8},{&quot;id&quot;:5160,&quot;token&quot;:&quot;g:1&quot;,&quot;particle_id&quot;:&quot;img4-m32-p1&quot;,&quot;molecule_id&quot;:&quot;img4-m32&quot;,&quot;atom_order&quot;:9},{&quot;id&quot;:5006,&quot;token&quot;:&quot;e:1&quot;,&quot;particle_id&quot;:&quot;img4-m32-p1&quot;,&quot;molecule_id&quot;:&quot;img4-m32&quot;,&quot;atom_order&quot;:10}]}</metadata>
  <rect x="0" y="0" width="124" height="137" fill="#f8f0d8"/>
  <image href="file:///C:/Users/HHHES/AppData/Roaming/com.voynichlab.datasetcreator/images/1/aff30327-ced8-4ab4-8c9b-190205ebe022.jpg" x="-1102" y="-2265" width="2804" height="3797" opacity="0.92"/>
  <rect x="0.5" y="0.5" width="123" height="136" fill="none" stroke="#111827" stroke-width="1" opacity="0.35"/>
  <polyline points="36,115 36,116 35,116 35,117 34,117 33,117 33,118 32,118 31,118 30,118 29,118 28,118 27,118 26,118 26,117 25,117 24,117 23,117 23,116 22,116 21,116 21,115 21,114 21,113 21,112 21,111 21,110 21,109 22,109 22,108 22,107 22,106 23,106 23,105 23,104 24,104 24,103 24,102 25,102 26,102 26,101 27,101 27,100 28,100 29,100 29,99 30,99 31,99 32,99 32,98" fill="none" stroke="#f2e45c" stroke-width="3" stroke-linecap="round" stroke-linejoin="round" opacity="0.95">
    <title>5004 e:1</title>
  </polyline>
  <polyline points="54,17 54,18 54,19 54,20 54,21 54,22 54,23 54,24 54,25 54,26 54,27 54,28 54,29 54,30 54,31 54,32 54,33 54,34 54,35 55,36 55,37 55,39 55,40 55,41 55,42 55,43 54,43 54,44 54,45 54,46 54,47 54,48 54,49 53,49 53,50 53,51 53,52 53,53 52,53 52,54 52,55 51,57 51,58 51,59 51,60 51,61 50,62 50,63 50,64 50,65 50,66 50,67 50,68 50,69 50,70 50,71 50,72 50,73 50,74 50,75 50,76 50,77 50,78 50,79 50,80 50,81 50,82 50,83 50,84 50,85 50,86 50,87 49,88 49,90 49,91 49,92 49,93 49,94 49,95 49,97 49,98 49,99 49,100 48,101 48,102 48,103 48,104 48,105 48,106 48,107 48,108" fill="none" stroke="#00f0b5" stroke-width="3" stroke-linecap="round" stroke-linejoin="round" opacity="0.95">
    <title>4688 a:1</title>
  </polyline>
  <polyline points="55,18 54,18 53,18 52,18 51,19 50,19 49,19 48,20 47,21 46,21 45,21 45,22 44,22 44,23 43,24 43,25 43,26 43,27 43,28 44,28 44,29 45,29 45,30 46,30 46,31 47,31 48,31 48,32 49,32" fill="none" stroke="#f2e45c" stroke-width="3" stroke-linecap="round" stroke-linejoin="round" opacity="0.95">
    <title>5005 e:1</title>
  </polyline>
  <polyline points="79,59 79,60 78,60 78,61 78,62 78,63 78,64 77,64 77,65 76,65 76,66 75,66 74,67 73,67 72,67 71,67 70,68 69,68 68,68 67,68 66,68 65,68 64,68 63,68 63,67 62,67 61,67 60,67 59,66 58,66 57,66 56,66 55,66 54,65 53,65 52,65 51,65 50,65 50,64 49,64 48,64 47,64 46,63 45,63 44,63 44,62 43,62 42,62 41,62 41,61 40,61 39,61" fill="none" stroke="#2f7df6" stroke-width="3" stroke-linecap="round" stroke-linejoin="round" opacity="0.95">
    <title>4743 b:1</title>
  </polyline>
  <polyline points="105,27 105,26 106,25 106,24 106,23 105,23 105,22 105,21 104,20 103,19 103,18 102,18 101,18 101,17 100,17 99,17 99,16 98,16 97,16 96,16 95,16 94,16 93,16 92,16 91,16 90,16 89,16 88,16 87,16 86,16 85,17 84,17 83,17 82,17 81,18 80,18 79,19 78,19 78,20 78,21 77,21 77,22 77,23 77,24 77,25 77,26 77,27 77,28 77,29 77,30 77,31 77,32 77,33 78,33 78,34 78,35 78,36 79,36 79,37 80,37 81,37 82,37 83,37 84,37 85,38 86,38 88,38 90,38 91,38 92,38 94,37 95,37 96,37 97,37 97,36 98,36 99,35 100,35 100,34 101,34 102,33 103,32 104,31 105,30 105,29 106,29 106,28 106,27 107,27 107,26 107,25 108,25 108,24 108,23" fill="none" stroke="#8aff00" stroke-width="3" stroke-linecap="round" stroke-linejoin="round" opacity="0.95">
    <title>4819 c:1</title>
  </polyline>
  <polyline points="80,20 80,19 80,20 79,21 79,23 79,25 79,27 79,29 79,31 79,33 80,34 80,36 80,37 80,39 80,40 80,41 80,42 80,44 80,45 80,46 80,48 80,49 80,50 80,52 80,53 80,54 79,56 79,57 79,59 78,60 78,62 78,63 78,64 77,65 77,66 77,67 76,67" fill="none" stroke="#00f0b5" stroke-width="3" stroke-linecap="round" stroke-linejoin="round" opacity="0.95">
    <title>4689 a:1</title>
  </polyline>
  <polyline points="47,31 48,31 49,32 50,32 51,33 52,33 53,33 54,33 55,34 56,34 57,34 58,34 59,35 60,35 61,35 62,35 63,35 64,35 66,36 67,36 68,36 69,36 70,36 71,36 72,36 73,36 74,36 75,36 76,36 76,37 77,37 78,37 79,37 80,37 81,37 82,37 83,37 84,37 85,37 86,37 87,37 88,37 89,37 90,37 91,37 92,36 93,36 94,36 95,36 95,35 96,35 97,35 97,34 98,34 99,33 100,33 100,32 101,32 102,31 103,31 103,30 104,30 104,29 105,29 105,28 105,27 106,27 106,26 107,26 107,25" fill="none" stroke="#2f7df6" stroke-width="3" stroke-linecap="round" stroke-linejoin="round" opacity="0.95">
    <title>4742 b:1</title>
  </polyline>
  <polyline points="24,75 23,75 22,75 21,75 20,75 19,74 18,74 17,73 16,72 16,71 16,70 16,69 16,68 16,67 16,66 16,65 17,65 17,64 18,64 19,63 19,62 20,62 20,61 21,61 21,60 22,60 23,60 23,59 24,59 24,58 25,58 26,58 27,58 28,58 29,58 30,58 30,57 31,57 32,57 33,57 34,57 35,57 36,57 36,58 37,58 38,58 39,59 40,60 40,61 41,61 42,62" fill="none" stroke="#ff2d55" stroke-width="3" stroke-linecap="round" stroke-linejoin="round" opacity="0.95">
    <title>5255 d:1</title>
  </polyline>
  <polyline points="29,99 30,99 31,99 32,99 34,99 36,99 40,99 42,99 44,100 45,100 47,100 49,100 52,100 54,100 58,100 60,101 62,101 64,101 66,101 68,102 71,102 72,102 74,102 75,103 76,103 77,103 78,103 80,103 81,103 81,102 82,102 83,102 84,102 85,102 86,102" fill="none" stroke="#7c3cff" stroke-width="3" stroke-linecap="round" stroke-linejoin="round" opacity="0.95">
    <title>5160 g:1</title>
  </polyline>
  <polyline points="90,118 90,119 89,119 89,120 88,120 87,120 87,121 86,121 85,121 84,121 83,121 82,121 81,121 80,121 80,120 79,120 78,120 77,120 77,119 76,119 75,119 75,118 75,117 75,116 75,115 75,114 75,113 75,112 76,112 76,111 76,110 76,109 77,109 77,108 77,107 78,107 78,106 78,105 79,105 80,105 80,104 81,104 81,103 82,103 83,103 83,102 84,102 85,102 86,102 86,101" fill="none" stroke="#f2e45c" stroke-width="3" stroke-linecap="round" stroke-linejoin="round" opacity="0.95">
    <title>5006 e:1</title>
  </polyline>
</svg>
