<?xml version="1.0" encoding="UTF-8"?>
<svg xmlns="http://www.w3.org/2000/svg" width="56" height="72" viewBox="0 0 56 72">
  <title>particle img4-m58-p1 e:1 c:1 h:2</title>
  <metadata>{&quot;entityType&quot;:&quot;particle&quot;,&quot;entityId&quot;:&quot;img4-m58-p1&quot;,&quot;token&quot;:&quot;e:1 c:1 h:2&quot;,&quot;signature&quot;:&quot;e:1 c:1 h:2&quot;,&quot;imageName&quot;:&quot;page-004.jpg&quot;,&quot;imageId&quot;:4,&quot;bounds&quot;:{&quot;x&quot;:1828,&quot;y&quot;:2516,&quot;w&quot;:56,&quot;h&quot;:72},&quot;atoms&quot;:[{&quot;id&quot;:5062,&quot;token&quot;:&quot;e:1&quot;,&quot;particle_id&quot;:&quot;img4-m58-p1&quot;,&quot;molecule_id&quot;:&quot;img4-m58&quot;,&quot;atom_order&quot;:1},{&quot;id&quot;:4858,&quot;token&quot;:&quot;c:1&quot;,&quot;particle_id&quot;:&quot;img4-m58-p1&quot;,&quot;molecule_id&quot;:&quot;img4-m58&quot;,&quot;atom_order&quot;:2},{&quot;id&quot;:5316,&quot;token&quot;:&quot;h:2&quot;,&quot;particle_id&quot;:&quot;img4-m58-p1&quot;,&quot;molecule_id&quot;:&quot;img4-m58&quot;,&quot;atom_order&quot;:3}]}</metadata>
  <rect x="0" y="0" width="56" height="72" fill="#f8f0d8"/>
  <image href="file:///C:/Users/HHHES/AppData/Roaming/com.voynichlab.datasetcreator/images/1/aff30327-ced8-4ab4-8c9b-190205ebe022.jpg" x="-1828" y="-2516" width="2804" height="3797" opacity="0.92"/>
  <rect x="0.5" y="0.5" width="55" height="71" fill="none" stroke="#111827" stroke-width="1" opacity="0.35"/>
  <polyline points="31,53 31,54 30,54 30,55 29,55 28,55 28,56 27,56 26,56 25,56 24,56 23,56 22,56 21,56 21,55 20,55 19,55 18,55 18,54 17,54 16,54 16,53 16,52 16,51 16,50 16,49 16,48 16,47 17,47 17,46 17,45 17,44 18,44 18,43 18,42 19,42 19,41 19,40 20,40 21,40 21,39 22,39 22,38 23,38 24,38 24,37 25,37 26,37 27,37 27,36" fill="none" stroke="#f2e45c" stroke-width="3" stroke-linecap="round" stroke-linejoin="round" opacity="0.95">
    <title>5062 e:1</title>
  </polyline>
  <polyline points="32,32 33,32 34,31 35,30 35,29 36,29 36,28 37,28 37,27 38,26 39,25 39,24 39,23 40,22 40,21 39,20 39,19 38,18 38,17 37,17 37,16 36,16 35,16 34,16 33,16 32,16 31,16 30,16 29,16 28,16 27,17 26,17 26,18 25,18 24,19 23,20 22,21 21,22 21,23 21,24 21,25 21,26 22,26 22,27 23,27 23,28 24,28 24,29 25,29 25,30 26,30 27,30 27,31 28,31 29,31 30,31 31,31 32,31 33,31 34,31" fill="none" stroke="#8aff00" stroke-width="3" stroke-linecap="round" stroke-linejoin="round" opacity="0.95">
    <title>4858 c:1</title>
  </polyline>
  <polyline points="26,17 25,17 25,18 24,18 24,19 24,20 23,20 23,21 23,22 23,23 22,23 22,24 22,25 22,26 22,27 22,28 22,29 23,30 23,31 24,31 24,32 25,33 25,34 26,34 26,35 27,35 28,36 28,37 29,37 29,38 29,39 30,39 30,40 31,40 31,41 31,42 31,43 31,44 31,45 31,46 31,47 30,48 30,49 30,50 30,51 30,52 30,53 29,53 29,54 28,54 28,55" fill="none" stroke="#ff8c00" stroke-width="3" stroke-linecap="round" stroke-linejoin="round" opacity="0.95">
    <title>5316 h:2</title>
  </polyline>
</svg>
