<?xml version="1.0" encoding="UTF-8"?>
<svg xmlns="http://www.w3.org/2000/svg" width="79" height="100" viewBox="0 0 79 100">
  <title>particle img4-m60-p1 a:1 b:1 c:1 a:1</title>
  <metadata>{&quot;entityType&quot;:&quot;particle&quot;,&quot;entityId&quot;:&quot;img4-m60-p1&quot;,&quot;token&quot;:&quot;a:1 b:1 c:1 a:1&quot;,&quot;signature&quot;:&quot;a:1 b:1 c:1 a:1&quot;,&quot;imageName&quot;:&quot;page-004.jpg&quot;,&quot;imageId&quot;:4,&quot;bounds&quot;:{&quot;x&quot;:860,&quot;y&quot;:2524,&quot;w&quot;:79,&quot;h&quot;:100},&quot;atoms&quot;:[{&quot;id&quot;:4705,&quot;token&quot;:&quot;a:1&quot;,&quot;particle_id&quot;:&quot;img4-m60-p1&quot;,&quot;molecule_id&quot;:&quot;img4-m60&quot;,&quot;atom_order&quot;:1},{&quot;id&quot;:4758,&quot;token&quot;:&quot;b:1&quot;,&quot;particle_id&quot;:&quot;img4-m60-p1&quot;,&quot;molecule_id&quot;:&quot;img4-m60&quot;,&quot;atom_order&quot;:2},{&quot;id&quot;:4891,&quot;token&quot;:&quot;c:1&quot;,&quot;particle_id&quot;:&quot;img4-m60-p1&quot;,&quot;molecule_id&quot;:&quot;img4-m60&quot;,&quot;atom_order&quot;:3},{&quot;id&quot;:4706,&quot;token&quot;:&quot;a:1&quot;,&quot;particle_id&quot;:&quot;img4-m60-p1&quot;,&quot;molecule_id&quot;:&quot;img4-m60&quot;,&quot;atom_order&quot;:4}]}</metadata>
  <rect x="0" y="0" width="79" height="100" fill="#f8f0d8"/>
  <image href="file:///C:/Users/HHHES/AppData/Roaming/com.voynichlab.datasetcreator/images/1/aff30327-ced8-4ab4-8c9b-190205ebe022.jpg" x="-860" y="-2524" width="2804" height="3797" opacity="0.92"/>
  <rect x="0.5" y="0.5" width="78" height="99" fill="none" stroke="#111827" stroke-width="1" opacity="0.35"/>
  <polyline points="19,22 19,23 19,24 19,26 19,28 19,29 19,30 19,31 19,32 19,33 19,35 19,36 19,37 19,39 19,40 19,41 19,42 19,43 19,44 19,45 19,46 19,47 19,48 19,49 19,50 18,51 18,53 18,54 18,55 18,57 18,58 18,59 18,61 18,62 17,64 17,65 17,67 17,68 17,69 17,70 17,71 17,72 17,73 17,74 17,75 16,75 16,76 16,77 16,78 16,79 16,80 16,81" fill="none" stroke="#00f0b5" stroke-width="3" stroke-linecap="round" stroke-linejoin="round" opacity="0.95">
    <title>4705 a:1</title>
  </polyline>
  <polyline points="19,24 19,25 20,26 20,27 21,28 22,28 22,29 23,29 23,30 24,30 25,31 26,31 27,31 28,32 29,32 31,32 32,33 33,33 34,33 35,33 36,33 37,33 38,33 39,33 40,33 40,34 41,34 42,34 43,34 44,34 45,34 46,34 48,34 48,33 49,33 50,33 51,32 52,32 53,31 54,31 55,31 55,30 56,30 57,29 57,28 58,28 58,27 59,27 59,26 60,26 60,25 61,25 61,24 62,24 62,23 62,22 63,22" fill="none" stroke="#2f7df6" stroke-width="3" stroke-linecap="round" stroke-linejoin="round" opacity="0.95">
    <title>4758 b:1</title>
  </polyline>
  <polyline points="62,24 62,23 62,22 62,21 62,20 62,19 61,19 61,18 60,18 59,18 59,17 58,17 57,17 56,16 55,16 54,16 53,16 52,16 51,16 50,16 49,16 48,16 48,17 47,17 46,17 45,17 44,18 43,18 43,19 42,19 42,20 41,21 40,21 40,22 40,23 40,24 40,25 40,26 40,27 41,28 41,29 42,29 42,30 43,30 43,31 44,31 45,31 46,31 47,31 48,31 49,31 50,31 51,31 52,31 53,31 54,31 55,31 55,30 56,30 56,29 57,29 58,28 59,27 60,26 61,25 62,25 62,24 62,23 63,22" fill="none" stroke="#8aff00" stroke-width="3" stroke-linecap="round" stroke-linejoin="round" opacity="0.95">
    <title>4891 c:1</title>
  </polyline>
  <polyline points="41,22 41,23 40,24 40,25 40,27 40,28 40,30 40,31 40,33 40,34 40,36 40,38 40,39 40,41 40,42 40,43 40,45 39,46 39,48 39,49 39,51 39,52 39,53 39,54 38,55 38,57 38,58 37,60 37,62 37,63 37,64 37,65 37,66 37,67 37,68 36,69 36,71 36,72 36,73 36,74 36,75 36,76 36,77 36,78 36,79 36,80 36,81 36,82 36,83 36,84" fill="none" stroke="#00f0b5" stroke-width="3" stroke-linecap="round" stroke-linejoin="round" opacity="0.95">
    <title>4706 a:1</title>
  </polyline>
</svg>
