<?xml version="1.0" encoding="UTF-8"?>
<svg xmlns="http://www.w3.org/2000/svg" width="55" height="54" viewBox="0 0 55 54">
  <title>particle img4-m82-p2 e:1 f:1</title>
  <metadata>{&quot;entityType&quot;:&quot;particle&quot;,&quot;entityId&quot;:&quot;img4-m82-p2&quot;,&quot;token&quot;:&quot;e:1 f:1&quot;,&quot;signature&quot;:&quot;e:1 f:1&quot;,&quot;imageName&quot;:&quot;page-004.jpg&quot;,&quot;imageId&quot;:4,&quot;bounds&quot;:{&quot;x&quot;:2172,&quot;y&quot;:2699,&quot;w&quot;:55,&quot;h&quot;:54},&quot;atoms&quot;:[{&quot;id&quot;:5109,&quot;token&quot;:&quot;e:1&quot;,&quot;particle_id&quot;:&quot;img4-m82-p2&quot;,&quot;molecule_id&quot;:&quot;img4-m82&quot;,&quot;atom_order&quot;:1},{&quot;id&quot;:5400,&quot;token&quot;:&quot;f:1&quot;,&quot;particle_id&quot;:&quot;img4-m82-p2&quot;,&quot;molecule_id&quot;:&quot;img4-m82&quot;,&quot;atom_order&quot;:2}]}</metadata>
  <rect x="0" y="0" width="55" height="54" fill="#f8f0d8"/>
  <image href="file:///C:/Users/HHHES/AppData/Roaming/com.voynichlab.datasetcreator/images/1/aff30327-ced8-4ab4-8c9b-190205ebe022.jpg" x="-2172" y="-2699" width="2804" height="3797" opacity="0.92"/>
  <rect x="0.5" y="0.5" width="54" height="53" fill="none" stroke="#111827" stroke-width="1" opacity="0.35"/>
  <polyline points="31,33 31,34 30,34 30,35 29,35 28,35 28,36 27,36 26,36 25,36 24,36 23,36 22,36 21,36 21,35 20,35 19,35 18,35 18,34 17,34 16,34 16,33 16,32 16,31 16,30 16,29 16,28 16,27 17,27 17,26 17,25 17,24 18,24 18,23 18,22 19,22 19,21 19,20 20,20 21,20 21,19 22,19 22,18 23,18 24,18 24,17 25,17 26,17 27,17 27,16" fill="none" stroke="#f2e45c" stroke-width="3" stroke-linecap="round" stroke-linejoin="round" opacity="0.95">
    <title>5109 e:1</title>
  </polyline>
  <polyline points="26,17 26,18 26,19 27,19 27,20 27,21 28,21 28,22 29,23 29,24 30,24 30,25 31,26 31,27 32,27 32,28 33,28 33,29 34,29 34,30 34,31 35,31 35,32 35,33 36,33 36,34 37,34 37,35 38,36 38,37 39,37 39,38" fill="none" stroke="#00a2ff" stroke-width="3" stroke-linecap="round" stroke-linejoin="round" opacity="0.95">
    <title>5400 f:1</title>
  </polyline>
</svg>
