<?xml version="1.0" encoding="UTF-8"?>
<svg xmlns="http://www.w3.org/2000/svg" width="89" height="53" viewBox="0 0 89 53">
  <title>particle img4-m21-p4 c:2 g:1 e:1</title>
  <metadata>{&quot;entityType&quot;:&quot;particle&quot;,&quot;entityId&quot;:&quot;img4-m21-p4&quot;,&quot;token&quot;:&quot;c:2 g:1 e:1&quot;,&quot;signature&quot;:&quot;c:2 g:1 e:1&quot;,&quot;imageName&quot;:&quot;page-004.jpg&quot;,&quot;imageId&quot;:4,&quot;bounds&quot;:{&quot;x&quot;:1689,&quot;y&quot;:2118,&quot;w&quot;:89,&quot;h&quot;:53},&quot;atoms&quot;:[{&quot;id&quot;:4781,&quot;token&quot;:&quot;c:2&quot;,&quot;particle_id&quot;:&quot;img4-m21-p4&quot;,&quot;molecule_id&quot;:&quot;img4-m21&quot;,&quot;atom_order&quot;:1},{&quot;id&quot;:5152,&quot;token&quot;:&quot;g:1&quot;,&quot;particle_id&quot;:&quot;img4-m21-p4&quot;,&quot;molecule_id&quot;:&quot;img4-m21&quot;,&quot;atom_order&quot;:2},{&quot;id&quot;:4968,&quot;token&quot;:&quot;e:1&quot;,&quot;particle_id&quot;:&quot;img4-m21-p4&quot;,&quot;molecule_id&quot;:&quot;img4-m21&quot;,&quot;atom_order&quot;:3}]}</metadata>
  <rect x="0" y="0" width="89" height="53" fill="#f8f0d8"/>
  <image href="file:///C:/Users/HHHES/AppData/Roaming/com.voynichlab.datasetcreator/images/1/aff30327-ced8-4ab4-8c9b-190205ebe022.jpg" x="-1689" y="-2118" width="2804" height="3797" opacity="0.92"/>
  <rect x="0.5" y="0.5" width="88" height="52" fill="none" stroke="#111827" stroke-width="1" opacity="0.35"/>
  <polyline points="20,19 19,19 18,20 18,21 17,22 17,23 17,24 16,24 16,25 16,26 17,26 17,27 17,28 18,29 18,30 19,30 20,31 21,31 22,31 23,31 24,32 25,32 26,32 27,32 27,31 28,31 29,31 29,30 30,29 30,28 31,28 31,27 31,26 32,26 32,25 32,24 32,23 32,22 32,21 32,20 31,20 31,19 30,19 29,18 28,18 27,18 26,17 25,17 24,17 23,17 22,18 21,18 21,19 20,19 19,20 19,21 18,22 18,23 18,24 18,25 18,26 18,27 18,28 19,28 19,29 20,29 20,30 21,30 22,30 23,30 24,30 25,30 26,30 27,30 27,29 28,29 29,28 29,27 30,27 30,26 30,25 30,24 30,23 31,22 31,21 31,20 30,20 30,19 29,19 28,19 27,19 27,18 26,18 25,18 24,18 23,18 23,19 22,19 21,19 21,20 20,20 20,21 20,22 19,22 19,23 19,24 19,25 20,25 20,26 21,27 22,27 22,28 23,28 23,27 24,27 25,27 26,27 27,27 27,26 28,26 28,25 28,24 28,23 28,22 27,21 26,21 25,21 24,22 23,23 22,23 22,24 22,25 23,25 24,26 25,26 26,26 26,25 25,24 24,24 24,25 23,25 23,26 24,26 25,26 26,25 26,24 25,24 24,23 23,23 22,23 21,25 21,27 21,28 22,28 23,28 25,28 27,27 28,27 28,26 28,25 27,24 26,23 25,23 24,23 23,23 22,24 22,25 22,26 22,27 23,27 24,27 25,27 26,27 27,26 28,25 29,25 29,24 29,23 29,22 28,21 27,21 25,21 24,21 23,21 20,22 19,23 18,23 18,25 17,25 17,26 18,26 19,27 21,27 22,26 24,26 26,25 26,24 26,23 26,22 26,21 25,20 23,20 22,20 20,20 19,21 18,22 18,23 18,24 19,25 19,26 20,27 21,27 22,27 23,27 24,27 25,27 27,27 28,26 29,25 29,24 30,24 30,22 30,21 29,20 28,20 27,20 25,21 24,21 23,21 20,22 20,23 19,23 19,24 19,25 19,26 19,27 20,27 20,28 22,28 24,29 26,28 27,28 28,27 28,26 29,24 29,23 29,22 28,21 28,20 27,20 26,19 25,19 24,19 23,19 22,19 21,20 20,21 20,23 20,24 20,25 21,26 22,26 23,26 25,26 26,26 27,26 28,25 29,24 29,23 28,22 27,21 26,21 25,20 24,20 23,21 22,22 20,24 19,25 19,26 19,28 19,29 20,29 22,29 24,29 25,29 26,29 27,28 27,27 28,26 28,25 27,24 26,23 25,23 24,22 23,22 22,22 21,23 20,24 20,25 20,27 21,28 22,28 23,29 24,29 25,30 26,30 27,30 28,29 28,28 29,28 29,27 29,26 29,25 29,24 28,24 27,24 25,25 24,26 23,26 22,28 22,29 23,29 24,29 25,29 26,29 27,29 28,29 28,28 29,28 29,27 29,26 29,25 29,24 29,23 28,22 27,22 26,22 25,23 24,25 23,27 23,28 23,29 24,29 25,30 26,30 28,29 29,29 30,28 30,27 30,25 29,24 28,24 27,24 26,25 25,27 24,28 24,29 24,30 25,30 27,30 28,30 29,29 30,28 30,27 31,26 31,25 30,24 30,23 29,23 27,23 26,23 25,23 23,23 22,23 21,23 20,24 20,25 20,27 20,28 21,28 22,29 23,29 25,29 26,28 27,27 27,26 27,25 27,24 27,23 27,22 26,22 25,22 25,21 24,21 23,22 22,24 22,25 23,25 24,24 25,23 25,22 25,21 25,20 24,20 24,19 23,19 22,19 20,19 20,20 19,20 19,21 19,22 20,22 22,22 23,22 24,22 25,21 25,20 26,20 26,19 25,19 24,20 24,21 24,22 24,23 25,23 25,24 26,24 27,23 28,22 28,21 27,21 25,21 24,23 23,24 22,25 23,26 24,26 25,26 27,26 28,26 29,25 29,24 30,23 30,22 29,22 29,21 28,21 27,21 26,21 25,22 24,23 23,25 23,27 23,28 24,29 25,29 26,29 28,29 28,28 29,28 30,28 30,27 28,27 27,27 26,27 26,28 26,29 26,30 27,30 28,29 28,28 28,27 27,27 27,26 26,26" fill="none" stroke="#8aff00" stroke-width="3" stroke-linecap="round" stroke-linejoin="round" opacity="0.95">
    <title>4781 c:2</title>
  </polyline>
  <polyline points="23,17 24,17 25,17 26,17 27,17 29,17 30,17 32,17 34,17 36,17 37,17 39,17 40,17 42,17 43,16 45,16 46,16 48,16 49,17 50,17 51,17 53,17 55,17 57,17 58,17 59,18 60,18 61,18 62,18 63,18 64,18 65,18 66,18 67,18 68,18 69,18 68,18" fill="none" stroke="#7c3cff" stroke-width="3" stroke-linecap="round" stroke-linejoin="round" opacity="0.95">
    <title>5152 g:1</title>
  </polyline>
  <polyline points="73,34 73,35 72,35 72,36 71,36 70,36 70,37 69,37 68,37 67,37 66,37 65,37 64,37 63,37 63,36 62,36 61,36 60,36 60,35 59,35 58,35 58,34 58,33 58,32 58,31 58,30 58,29 58,28 59,28 59,27 59,26 59,25 60,25 60,24 60,23 61,23 61,22 61,21 62,21 63,21 63,20 64,20 64,19 65,19 66,19 66,18 67,18 68,18 69,18 69,17" fill="none" stroke="#f2e45c" stroke-width="3" stroke-linecap="round" stroke-linejoin="round" opacity="0.95">
    <title>4968 e:1</title>
  </polyline>
</svg>
