<?xml version="1.0" encoding="UTF-8"?>
<svg xmlns="http://www.w3.org/2000/svg" width="69" height="102" viewBox="0 0 69 102">
  <title>particle img4-m65-p2 a:1 b:1 c:1 a:1</title>
  <metadata>{&quot;entityType&quot;:&quot;particle&quot;,&quot;entityId&quot;:&quot;img4-m65-p2&quot;,&quot;token&quot;:&quot;a:1 b:1 c:1 a:1&quot;,&quot;signature&quot;:&quot;a:1 b:1 c:1 a:1&quot;,&quot;imageName&quot;:&quot;page-004.jpg&quot;,&quot;imageId&quot;:4,&quot;bounds&quot;:{&quot;x&quot;:585,&quot;y&quot;:2498,&quot;w&quot;:69,&quot;h&quot;:102},&quot;atoms&quot;:[{&quot;id&quot;:4703,&quot;token&quot;:&quot;a:1&quot;,&quot;particle_id&quot;:&quot;img4-m65-p2&quot;,&quot;molecule_id&quot;:&quot;img4-m65&quot;,&quot;atom_order&quot;:1},{&quot;id&quot;:4760,&quot;token&quot;:&quot;b:1&quot;,&quot;particle_id&quot;:&quot;img4-m65-p2&quot;,&quot;molecule_id&quot;:&quot;img4-m65&quot;,&quot;atom_order&quot;:2},{&quot;id&quot;:4896,&quot;token&quot;:&quot;c:1&quot;,&quot;particle_id&quot;:&quot;img4-m65-p2&quot;,&quot;molecule_id&quot;:&quot;img4-m65&quot;,&quot;atom_order&quot;:3},{&quot;id&quot;:4704,&quot;token&quot;:&quot;a:1&quot;,&quot;particle_id&quot;:&quot;img4-m65-p2&quot;,&quot;molecule_id&quot;:&quot;img4-m65&quot;,&quot;atom_order&quot;:4}]}</metadata>
  <rect x="0" y="0" width="69" height="102" fill="#f8f0d8"/>
  <image href="file:///C:/Users/HHHES/AppData/Roaming/com.voynichlab.datasetcreator/images/1/aff30327-ced8-4ab4-8c9b-190205ebe022.jpg" x="-585" y="-2498" width="2804" height="3797" opacity="0.92"/>
  <rect x="0.5" y="0.5" width="68" height="101" fill="none" stroke="#111827" stroke-width="1" opacity="0.35"/>
  <polyline points="19,23 19,24 19,25 19,26 19,27 19,28 18,29 18,30 18,31 18,32 18,33 18,34 18,35 18,36 18,37 18,38 18,39 18,40 17,41 17,42 17,43 17,44 17,45 17,46 17,47 17,48 17,49 17,50 17,51 17,52 17,53 17,54 17,55 16,56 16,57 16,58 17,59 17,60 17,61 17,63 17,64 17,65 17,66 17,67 17,68 17,69 17,70 17,71 17,72 16,73 16,74 16,75 16,76 16,77 16,78 16,79 16,80 16,81 16,82 16,83 16,84 16,85 16,86" fill="none" stroke="#00f0b5" stroke-width="3" stroke-linecap="round" stroke-linejoin="round" opacity="0.95">
    <title>4703 a:1</title>
  </polyline>
  <polyline points="19,24 19,25 19,26 19,27 19,28 19,29 20,30 21,31 21,32 22,32 23,32 23,33 24,33 25,34 26,34 27,35 28,35 29,35 30,35 31,35 31,36 32,36 33,36 34,36 35,36 36,36 37,36 38,36 39,35 40,35 41,35 42,34 43,34 44,33 45,33 46,33 46,32 47,32 48,31 48,30 49,30 49,29 50,28 51,27 51,26 52,26 52,25 52,24 53,24 53,23 53,22 53,21 53,20 53,19" fill="none" stroke="#2f7df6" stroke-width="3" stroke-linecap="round" stroke-linejoin="round" opacity="0.95">
    <title>4760 b:1</title>
  </polyline>
  <polyline points="52,25 52,24 53,23 53,22 53,21 53,20 53,19 53,18 53,17 52,17 51,16 50,16 49,16 48,16 47,17 46,17 45,17 44,17 44,18 43,18 42,19 41,19 41,20 40,20 40,21 39,21 39,22 38,22 38,23 37,23 37,24 37,25 36,25 36,26 36,27 35,27 35,28 35,29 35,30 35,31 35,32 35,33 36,33 37,34 38,34 39,34 41,34 43,34 44,33 45,33 46,33 47,32 48,31 48,30 49,30 49,29 50,29 50,28 51,27 52,27 52,26 53,25 53,24 53,23 53,22" fill="none" stroke="#8aff00" stroke-width="3" stroke-linecap="round" stroke-linejoin="round" opacity="0.95">
    <title>4896 c:1</title>
  </polyline>
  <polyline points="35,26 35,27 35,28 35,29 35,30 35,31 35,33 34,33 34,34 34,35 34,36 34,37 34,38 34,39 34,40 34,41 33,42 33,43 33,44 33,45 33,46 33,47 33,48 33,49 33,50 33,51 33,52 33,53 33,54 32,54 32,55 32,56 32,57 32,58 32,59 32,60 32,61 32,62 32,63 32,64 32,65 32,67 32,68 31,69 31,70 31,72 31,74 31,75 31,76 31,77 31,78 31,79 31,80 31,81 31,82 31,83 31,84" fill="none" stroke="#00f0b5" stroke-width="3" stroke-linecap="round" stroke-linejoin="round" opacity="0.95">
    <title>4704 a:1</title>
  </polyline>
</svg>
