<?xml version="1.0" encoding="UTF-8"?>
<svg xmlns="http://www.w3.org/2000/svg" width="56" height="72" viewBox="0 0 56 72">
  <title>particle img4-m8-p2 f:1 i:1 d:1</title>
  <metadata>{&quot;entityType&quot;:&quot;particle&quot;,&quot;entityId&quot;:&quot;img4-m8-p2&quot;,&quot;token&quot;:&quot;f:1 i:1 d:1&quot;,&quot;signature&quot;:&quot;f:1 i:1 d:1&quot;,&quot;imageName&quot;:&quot;page-004.jpg&quot;,&quot;imageId&quot;:4,&quot;bounds&quot;:{&quot;x&quot;:945,&quot;y&quot;:1964,&quot;w&quot;:56,&quot;h&quot;:72},&quot;atoms&quot;:[{&quot;id&quot;:5345,&quot;token&quot;:&quot;f:1&quot;,&quot;particle_id&quot;:&quot;img4-m8-p2&quot;,&quot;molecule_id&quot;:&quot;img4-m8&quot;,&quot;atom_order&quot;:1},{&quot;id&quot;:5214,&quot;token&quot;:&quot;i:1&quot;,&quot;particle_id&quot;:&quot;img4-m8-p2&quot;,&quot;molecule_id&quot;:&quot;img4-m8&quot;,&quot;atom_order&quot;:2},{&quot;id&quot;:5240,&quot;token&quot;:&quot;d:1&quot;,&quot;particle_id&quot;:&quot;img4-m8-p2&quot;,&quot;molecule_id&quot;:&quot;img4-m8&quot;,&quot;atom_order&quot;:3}]}</metadata>
  <rect x="0" y="0" width="56" height="72" fill="#f8f0d8"/>
  <image href="file:///C:/Users/HHHES/AppData/Roaming/com.voynichlab.datasetcreator/images/1/aff30327-ced8-4ab4-8c9b-190205ebe022.jpg" x="-945" y="-1964" width="2804" height="3797" opacity="0.92"/>
  <rect x="0.5" y="0.5" width="55" height="71" fill="none" stroke="#111827" stroke-width="1" opacity="0.35"/>
  <polyline points="16,35 16,36 16,37 17,37 17,38 17,39 18,39 18,40 19,41 19,42 20,42 20,43 21,44 21,45 22,45 22,46 23,46 23,47 24,47 24,48 24,49 25,49 25,50 25,51 26,51 26,52 27,52 27,53 28,54 28,55 29,55 29,56" fill="none" stroke="#00a2ff" stroke-width="3" stroke-linecap="round" stroke-linejoin="round" opacity="0.95">
    <title>5345 f:1</title>
  </polyline>
  <polyline points="17,39 18,39 19,39 20,39 21,39 22,39 23,39 24,39 25,39 25,38 26,38 27,38 28,38 28,37 29,37 30,37 31,36 31,35 32,35 33,34 34,33 35,32 36,31 36,30 37,30 37,29 38,29 38,28 38,27 38,26 39,26 39,25 39,24 39,23" fill="none" stroke="#00ff7f" stroke-width="3" stroke-linecap="round" stroke-linejoin="round" opacity="0.95">
    <title>5214 i:1</title>
  </polyline>
  <polyline points="39,25 39,24 40,24 40,23 40,22 40,21 40,20 40,19 39,19 39,18 38,17 37,17 36,17 35,17 35,16 34,16 33,16 32,16 31,16 31,17 30,17 29,17 28,18 27,19 27,20 26,20 26,21 26,22 26,23" fill="none" stroke="#ff2d55" stroke-width="3" stroke-linecap="round" stroke-linejoin="round" opacity="0.95">
    <title>5240 d:1</title>
  </polyline>
</svg>
