<?xml version="1.0" encoding="UTF-8"?>
<svg xmlns="http://www.w3.org/2000/svg" width="73" height="84" viewBox="0 0 73 84">
  <title>particle img4-m78-p3 f:1 i:1 d:1</title>
  <metadata>{&quot;entityType&quot;:&quot;particle&quot;,&quot;entityId&quot;:&quot;img4-m78-p3&quot;,&quot;token&quot;:&quot;f:1 i:1 d:1&quot;,&quot;signature&quot;:&quot;f:1 i:1 d:1&quot;,&quot;imageName&quot;:&quot;page-004.jpg&quot;,&quot;imageId&quot;:4,&quot;bounds&quot;:{&quot;x&quot;:1382,&quot;y&quot;:2646,&quot;w&quot;:73,&quot;h&quot;:84},&quot;atoms&quot;:[{&quot;id&quot;:5397,&quot;token&quot;:&quot;f:1&quot;,&quot;particle_id&quot;:&quot;img4-m78-p3&quot;,&quot;molecule_id&quot;:&quot;img4-m78&quot;,&quot;atom_order&quot;:1},{&quot;id&quot;:5225,&quot;token&quot;:&quot;i:1&quot;,&quot;particle_id&quot;:&quot;img4-m78-p3&quot;,&quot;molecule_id&quot;:&quot;img4-m78&quot;,&quot;atom_order&quot;:2},{&quot;id&quot;:5250,&quot;token&quot;:&quot;d:1&quot;,&quot;particle_id&quot;:&quot;img4-m78-p3&quot;,&quot;molecule_id&quot;:&quot;img4-m78&quot;,&quot;atom_order&quot;:3}]}</metadata>
  <rect x="0" y="0" width="73" height="84" fill="#f8f0d8"/>
  <image href="file:///C:/Users/HHHES/AppData/Roaming/com.voynichlab.datasetcreator/images/1/aff30327-ced8-4ab4-8c9b-190205ebe022.jpg" x="-1382" y="-2646" width="2804" height="3797" opacity="0.92"/>
  <rect x="0.5" y="0.5" width="72" height="83" fill="none" stroke="#111827" stroke-width="1" opacity="0.35"/>
  <polyline points="39,47 39,48 39,49 40,49 40,50 40,51 41,51 41,52 42,53 42,54 43,54 43,55 44,56 44,57 45,57 45,58 46,58 46,59 47,59 47,60 47,61 48,61 48,62 48,63 49,63 49,64 50,64 50,65 51,66 51,67 52,67 52,68" fill="none" stroke="#00a2ff" stroke-width="3" stroke-linecap="round" stroke-linejoin="round" opacity="0.95">
    <title>5397 f:1</title>
  </polyline>
  <polyline points="40,51 41,51 42,51 43,50 44,50 45,50 46,49 47,49 48,48 49,48 50,47 51,47 51,46 52,46 52,45 53,45 53,44 53,43 54,43 54,42 55,42 55,41 55,40 56,40 56,39 56,38 57,37 57,36 57,35 57,34 57,33 57,32 57,31 57,30 57,29 57,28 57,27 56,27 56,26 56,25 56,24 55,23 55,22" fill="none" stroke="#00ff7f" stroke-width="3" stroke-linecap="round" stroke-linejoin="round" opacity="0.95">
    <title>5225 i:1</title>
  </polyline>
  <polyline points="16,27 17,27 17,26 18,26 19,26 19,25 20,24 21,24 22,23 23,22 24,22 24,21 25,21 26,20 27,20 27,19 28,19 29,18 30,18 31,18 32,17 33,17 34,16 35,16 36,16 37,16 38,16 40,16 41,16 43,16 44,16 45,16 46,17 47,17 48,17 50,18 51,18 51,19 52,19 53,20 54,20 54,21 54,22 55,22 55,23 56,23 56,24 57,24 57,25 57,26" fill="none" stroke="#ff2d55" stroke-width="3" stroke-linecap="round" stroke-linejoin="round" opacity="0.95">
    <title>5250 d:1</title>
  </polyline>
</svg>
