<?xml version="1.0" encoding="UTF-8"?>
<svg xmlns="http://www.w3.org/2000/svg" width="80" height="99" viewBox="0 0 80 99">
  <title>particle img4-m25-p3 a:1 b:1 c:1 a:1</title>
  <metadata>{&quot;entityType&quot;:&quot;particle&quot;,&quot;entityId&quot;:&quot;img4-m25-p3&quot;,&quot;token&quot;:&quot;a:1 b:1 c:1 a:1&quot;,&quot;signature&quot;:&quot;a:1 b:1 c:1 a:1&quot;,&quot;imageName&quot;:&quot;page-004.jpg&quot;,&quot;imageId&quot;:4,&quot;bounds&quot;:{&quot;x&quot;:746,&quot;y&quot;:2068,&quot;w&quot;:80,&quot;h&quot;:99},&quot;atoms&quot;:[{&quot;id&quot;:4680,&quot;token&quot;:&quot;a:1&quot;,&quot;particle_id&quot;:&quot;img4-m25-p3&quot;,&quot;molecule_id&quot;:&quot;img4-m25&quot;,&quot;atom_order&quot;:1},{&quot;id&quot;:4738,&quot;token&quot;:&quot;b:1&quot;,&quot;particle_id&quot;:&quot;img4-m25-p3&quot;,&quot;molecule_id&quot;:&quot;img4-m25&quot;,&quot;atom_order&quot;:2},{&quot;id&quot;:4808,&quot;token&quot;:&quot;c:1&quot;,&quot;particle_id&quot;:&quot;img4-m25-p3&quot;,&quot;molecule_id&quot;:&quot;img4-m25&quot;,&quot;atom_order&quot;:3},{&quot;id&quot;:4681,&quot;token&quot;:&quot;a:1&quot;,&quot;particle_id&quot;:&quot;img4-m25-p3&quot;,&quot;molecule_id&quot;:&quot;img4-m25&quot;,&quot;atom_order&quot;:4}]}</metadata>
  <rect x="0" y="0" width="80" height="99" fill="#f8f0d8"/>
  <image href="file:///C:/Users/HHHES/AppData/Roaming/com.voynichlab.datasetcreator/images/1/aff30327-ced8-4ab4-8c9b-190205ebe022.jpg" x="-746" y="-2068" width="2804" height="3797" opacity="0.92"/>
  <rect x="0.5" y="0.5" width="79" height="98" fill="none" stroke="#111827" stroke-width="1" opacity="0.35"/>
  <polyline points="25,16 25,17 25,18 25,19 25,20 25,21 25,23 25,24 24,26 24,27 24,28 24,30 24,32 24,33 24,34 23,36 23,37 23,38 23,39 23,40 23,42 22,44 22,45 22,48 22,49 21,51 21,53 21,54 20,56 20,57 20,58 20,59 20,60 20,61 20,63 19,64 19,66 18,67 18,69 18,70 18,71 18,72 18,73 18,74 17,74 17,75 17,76 17,77 17,78 17,79 16,80 16,81 16,82" fill="none" stroke="#00f0b5" stroke-width="3" stroke-linecap="round" stroke-linejoin="round" opacity="0.95">
    <title>4680 a:1</title>
  </polyline>
  <polyline points="23,19 23,20 23,21 23,22 23,23 23,24 23,25 23,26 23,27 23,28 24,28 24,29 24,30 24,31 24,32 25,32 26,32 26,33 27,34 28,34 29,35 30,36 32,37 33,38 34,38 35,39 37,39 38,40 39,40 40,41 41,41 42,41 43,41 44,41 45,41 46,42 47,42 48,42 49,42 50,42 52,41 53,41 54,41 55,40 57,40 57,39 58,39 58,38 59,37 60,36 60,35 61,34 61,32 62,32 62,31 63,31 63,30 63,29 63,28 63,27 63,26" fill="none" stroke="#2f7df6" stroke-width="3" stroke-linecap="round" stroke-linejoin="round" opacity="0.95">
    <title>4738 b:1</title>
  </polyline>
  <polyline points="63,29 63,28 63,27 63,26 63,25 62,25 62,24 61,23 60,23 60,22 59,22 58,21 57,21 56,20 55,20 54,20 53,19 52,19 51,20 50,20 49,20 48,20 47,21 46,21 45,21 45,22 44,22 43,23 42,23 42,24 41,24 41,25 40,26 40,27 40,28 40,29 40,30 40,31 40,32 40,33 40,34 40,35 41,36 41,37 41,38 41,39 42,39 42,40 43,40 44,41 45,41 46,41 47,41 48,41 49,42 50,42 51,42 52,41 53,41 54,41 54,40 55,40 55,39 56,38 57,38 57,37 58,37 58,36 59,36 59,35 60,34 60,33 61,33 61,32 61,31 62,31 62,30 62,29 63,29 63,28 64,27 64,26" fill="none" stroke="#8aff00" stroke-width="3" stroke-linecap="round" stroke-linejoin="round" opacity="0.95">
    <title>4808 c:1</title>
  </polyline>
  <polyline points="43,22 43,23 43,24 43,25 42,26 42,28 42,30 41,31 41,33 41,34 41,35 40,36 40,38 40,39 40,40 40,42 40,43 40,44 40,45 39,46 39,47 39,48 39,49 39,50 39,52 39,53 38,54 38,55 38,56 38,57 37,57 37,59 37,60 37,61 36,62 36,63 36,64 35,65 35,66 35,67 35,68 35,69 34,70 34,71 34,72 34,73 33,73 33,74 33,76 33,77 33,78 33,79 33,80 33,81 32,82 32,83" fill="none" stroke="#00f0b5" stroke-width="3" stroke-linecap="round" stroke-linejoin="round" opacity="0.95">
    <title>4681 a:1</title>
  </polyline>
</svg>
