<?xml version="1.0" encoding="UTF-8"?>
<svg xmlns="http://www.w3.org/2000/svg" width="52" height="69" viewBox="0 0 52 69">
  <title>particle img4-m21-p7 e:1 h:1</title>
  <metadata>{&quot;entityType&quot;:&quot;particle&quot;,&quot;entityId&quot;:&quot;img4-m21-p7&quot;,&quot;token&quot;:&quot;e:1 h:1&quot;,&quot;signature&quot;:&quot;e:1 h:1&quot;,&quot;imageName&quot;:&quot;page-004.jpg&quot;,&quot;imageId&quot;:4,&quot;bounds&quot;:{&quot;x&quot;:1800,&quot;y&quot;:2120,&quot;w&quot;:52,&quot;h&quot;:69},&quot;atoms&quot;:[{&quot;id&quot;:4971,&quot;token&quot;:&quot;e:1&quot;,&quot;particle_id&quot;:&quot;img4-m21-p7&quot;,&quot;molecule_id&quot;:&quot;img4-m21&quot;,&quot;atom_order&quot;:1},{&quot;id&quot;:5270,&quot;token&quot;:&quot;h:1&quot;,&quot;particle_id&quot;:&quot;img4-m21-p7&quot;,&quot;molecule_id&quot;:&quot;img4-m21&quot;,&quot;atom_order&quot;:2}]}</metadata>
  <rect x="0" y="0" width="52" height="69" fill="#f8f0d8"/>
  <image href="file:///C:/Users/HHHES/AppData/Roaming/com.voynichlab.datasetcreator/images/1/aff30327-ced8-4ab4-8c9b-190205ebe022.jpg" x="-1800" y="-2120" width="2804" height="3797" opacity="0.92"/>
  <rect x="0.5" y="0.5" width="51" height="68" fill="none" stroke="#111827" stroke-width="1" opacity="0.35"/>
  <polyline points="31,33 31,34 30,34 30,35 29,35 28,35 28,36 27,36 26,36 25,36 24,36 23,36 22,36 21,36 21,35 20,35 19,35 18,35 18,34 17,34 16,34 16,33 16,32 16,31 16,30 16,29 16,28 16,27 17,27 17,26 17,25 17,24 18,24 18,23 18,22 19,22 19,21 19,20 20,20 21,20 21,19 22,19 22,18 23,18 24,18 24,17 25,17 26,17 27,17 27,16" fill="none" stroke="#f2e45c" stroke-width="3" stroke-linecap="round" stroke-linejoin="round" opacity="0.95">
    <title>4971 e:1</title>
  </polyline>
  <polyline points="27,16 28,17 29,18 30,19 31,20 32,21 32,22 33,22 33,23 34,23 34,24 35,24 35,25 36,26 36,27 36,28 36,29 36,30 36,31 36,32 36,33 36,34 36,35 36,37 36,38 36,39 35,40 35,41 35,42 35,43 34,44 33,46 32,47 32,48 31,48 31,49 30,49 30,50 29,51 29,52 28,52 28,53" fill="none" stroke="#ff8c00" stroke-width="3" stroke-linecap="round" stroke-linejoin="round" opacity="0.95">
    <title>5270 h:1</title>
  </polyline>
</svg>
