<?xml version="1.0" encoding="UTF-8"?>
<svg xmlns="http://www.w3.org/2000/svg" width="59" height="70" viewBox="0 0 59 70">
  <title>particle img4-m63-p1 e:1 c:1 h:2</title>
  <metadata>{&quot;entityType&quot;:&quot;particle&quot;,&quot;entityId&quot;:&quot;img4-m63-p1&quot;,&quot;token&quot;:&quot;e:1 c:1 h:2&quot;,&quot;signature&quot;:&quot;e:1 c:1 h:2&quot;,&quot;imageName&quot;:&quot;page-004.jpg&quot;,&quot;imageId&quot;:4,&quot;bounds&quot;:{&quot;x&quot;:2158,&quot;y&quot;:2539,&quot;w&quot;:59,&quot;h&quot;:70},&quot;atoms&quot;:[{&quot;id&quot;:5064,&quot;token&quot;:&quot;e:1&quot;,&quot;particle_id&quot;:&quot;img4-m63-p1&quot;,&quot;molecule_id&quot;:&quot;img4-m63&quot;,&quot;atom_order&quot;:1},{&quot;id&quot;:4863,&quot;token&quot;:&quot;c:1&quot;,&quot;particle_id&quot;:&quot;img4-m63-p1&quot;,&quot;molecule_id&quot;:&quot;img4-m63&quot;,&quot;atom_order&quot;:2},{&quot;id&quot;:5317,&quot;token&quot;:&quot;h:2&quot;,&quot;particle_id&quot;:&quot;img4-m63-p1&quot;,&quot;molecule_id&quot;:&quot;img4-m63&quot;,&quot;atom_order&quot;:3}]}</metadata>
  <rect x="0" y="0" width="59" height="70" fill="#f8f0d8"/>
  <image href="file:///C:/Users/HHHES/AppData/Roaming/com.voynichlab.datasetcreator/images/1/aff30327-ced8-4ab4-8c9b-190205ebe022.jpg" x="-2158" y="-2539" width="2804" height="3797" opacity="0.92"/>
  <rect x="0.5" y="0.5" width="58" height="69" fill="none" stroke="#111827" stroke-width="1" opacity="0.35"/>
  <polyline points="31,51 31,52 30,52 30,53 29,53 28,53 28,54 27,54 26,54 25,54 24,54 23,54 22,54 21,54 21,53 20,53 19,53 18,53 18,52 17,52 16,52 16,51 16,50 16,49 16,48 16,47 16,46 16,45 17,45 17,44 17,43 17,42 18,42 18,41 18,40 19,40 19,39 19,38 20,38 21,38 21,37 22,37 22,36 23,36 24,36 24,35 25,35 26,35 27,35 27,34" fill="none" stroke="#f2e45c" stroke-width="3" stroke-linecap="round" stroke-linejoin="round" opacity="0.95">
    <title>5064 e:1</title>
  </polyline>
  <polyline points="34,33 35,33 36,33 36,32 37,32 38,32 38,31 39,31 40,31 40,30 40,29 41,29 41,28 42,27 42,26 43,26 43,25 43,24 43,23 43,22 43,21 42,21 42,20 41,20 41,19 40,19 40,18 39,18 38,17 37,17 36,17 35,17 34,17 33,17 32,17 30,17 29,17 28,18 27,18 27,19 26,19 26,20 25,21 25,22 25,23 25,24 25,25 26,26 26,27 27,28 28,29 29,29 29,30 30,30 31,31 32,31 32,32 33,32 34,32 35,33 36,33" fill="none" stroke="#8aff00" stroke-width="3" stroke-linecap="round" stroke-linejoin="round" opacity="0.95">
    <title>4863 c:1</title>
  </polyline>
  <polyline points="30,16 29,16 28,16 28,17 27,17 27,18 27,19 26,19 26,20 25,20 25,21 25,22 25,23 25,24 25,25 25,26 26,26 26,27 27,28 28,29 28,30 29,31 30,32 31,32 32,33 32,34 33,35 34,36 34,37 35,37 35,38 35,39 35,40 35,41 36,42 36,43 36,44 35,45 35,46 34,47 34,48 33,49 33,50 32,50 32,51 31,51 30,52 29,52 28,52 27,52" fill="none" stroke="#ff8c00" stroke-width="3" stroke-linecap="round" stroke-linejoin="round" opacity="0.95">
    <title>5317 h:2</title>
  </polyline>
</svg>
