<?xml version="1.0" encoding="UTF-8"?>
<svg xmlns="http://www.w3.org/2000/svg" width="98" height="92" viewBox="0 0 98 92">
  <title>particle img4-m20-p3 a:1 m:1 c:1 a:1</title>
  <metadata>{&quot;entityType&quot;:&quot;particle&quot;,&quot;entityId&quot;:&quot;img4-m20-p3&quot;,&quot;token&quot;:&quot;a:1 m:1 c:1 a:1&quot;,&quot;signature&quot;:&quot;a:1 m:1 c:1 a:1&quot;,&quot;imageName&quot;:&quot;page-004.jpg&quot;,&quot;imageId&quot;:4,&quot;bounds&quot;:{&quot;x&quot;:2109,&quot;y&quot;:2100,&quot;w&quot;:98,&quot;h&quot;:92},&quot;atoms&quot;:[{&quot;id&quot;:4678,&quot;token&quot;:&quot;a:1&quot;,&quot;particle_id&quot;:&quot;img4-m20-p3&quot;,&quot;molecule_id&quot;:&quot;img4-m20&quot;,&quot;atom_order&quot;:1},{&quot;id&quot;:5471,&quot;token&quot;:&quot;m:1&quot;,&quot;particle_id&quot;:&quot;img4-m20-p3&quot;,&quot;molecule_id&quot;:&quot;img4-m20&quot;,&quot;atom_order&quot;:2},{&quot;id&quot;:4785,&quot;token&quot;:&quot;c:1&quot;,&quot;particle_id&quot;:&quot;img4-m20-p3&quot;,&quot;molecule_id&quot;:&quot;img4-m20&quot;,&quot;atom_order&quot;:3},{&quot;id&quot;:4679,&quot;token&quot;:&quot;a:1&quot;,&quot;particle_id&quot;:&quot;img4-m20-p3&quot;,&quot;molecule_id&quot;:&quot;img4-m20&quot;,&quot;atom_order&quot;:4}]}</metadata>
  <rect x="0" y="0" width="98" height="92" fill="#f8f0d8"/>
  <image href="file:///C:/Users/HHHES/AppData/Roaming/com.voynichlab.datasetcreator/images/1/aff30327-ced8-4ab4-8c9b-190205ebe022.jpg" x="-2109" y="-2100" width="2804" height="3797" opacity="0.92"/>
  <rect x="0.5" y="0.5" width="97" height="91" fill="none" stroke="#111827" stroke-width="1" opacity="0.35"/>
  <polyline points="32,43 32,44 32,45 32,46 32,47 32,48 32,49 32,50 32,51 32,52 32,53 32,54 32,55 32,56 32,57 32,58 32,59 32,60 32,61 32,62 32,63 31,64 31,65 31,66 31,67 30,68 29,69 29,70 29,71 28,71 28,72" fill="none" stroke="#00f0b5" stroke-width="3" stroke-linecap="round" stroke-linejoin="round" opacity="0.95">
    <title>4678 a:1</title>
  </polyline>
  <polyline points="32,44 32,43 32,42 32,41 32,40 33,40 33,39 33,38 33,37 34,36 34,35 34,34 34,33 34,32 34,31 34,30 34,29 34,28 34,27 34,26 34,25 35,25 35,24 35,23 35,22 35,21 35,20 35,19 35,18 35,17 35,16 34,16 33,16 33,17 32,17 31,18 30,18 30,19 29,19 29,20 28,20 27,21 27,22 26,22 25,23 24,24 23,24 23,25 22,25 22,26 21,26 20,27 19,28 19,29 18,29 17,30 17,31 16,32 17,32 18,31 19,31 20,31 21,31 21,30 22,30 23,30 25,30 27,30 29,30 30,30 31,30 32,30 34,30 35,30 36,30 38,31 39,31 40,31 41,31 42,31 43,31 44,31 45,31 46,31 47,31 48,31 49,31 50,31 52,31 53,31 54,31 55,31 57,31 58,32 60,32 61,32 62,32" fill="none" stroke="#ff00ff" stroke-width="3" stroke-linecap="round" stroke-linejoin="round" opacity="0.95">
    <title>5471 m:1</title>
  </polyline>
  <polyline points="65,19 66,18 67,18 68,18 69,18 70,18 71,18 72,18 73,18 74,18 75,18 76,18 76,19 77,19 78,19 78,20 79,20 79,21 80,21 80,22 81,23 81,24 82,24 82,25 82,26 82,27 82,28 82,29 82,30 82,31 82,32 82,33 81,33 81,34 80,34 79,35 78,35 78,36 77,36 76,36 75,36 74,37 73,37 72,37 71,37 70,37 69,37 69,36 68,36 67,36 66,36 66,35 65,35 65,34 64,34 64,33 63,33 63,32 62,32 62,31 62,30 62,29 62,28 62,27 62,26 62,25 62,24 62,23 63,23 63,22 63,21 64,21 64,20 65,19 66,19 66,18 67,18" fill="none" stroke="#8aff00" stroke-width="3" stroke-linecap="round" stroke-linejoin="round" opacity="0.95">
    <title>4785 c:1</title>
  </polyline>
  <polyline points="65,19 65,20 64,20 63,22 63,23 62,25 62,26 61,27 61,28 60,29 60,30 60,31 59,32 59,34 59,36 58,38 58,39 58,40 58,42 57,44 57,45 57,46 56,48 56,49 56,50 56,51 55,51 55,53 55,54 54,55 54,56 54,58 53,58 53,59 53,60 53,61 52,62 52,63 52,64 52,65 51,66 51,68 51,69 50,69 50,70 50,71 49,73 49,74 48,74 48,75 48,76" fill="none" stroke="#00f0b5" stroke-width="3" stroke-linecap="round" stroke-linejoin="round" opacity="0.95">
    <title>4679 a:1</title>
  </polyline>
</svg>
