<?xml version="1.0" encoding="UTF-8"?>
<svg xmlns="http://www.w3.org/2000/svg" width="60" height="75" viewBox="0 0 60 75">
  <title>particle img4-m52-p1 e:1 c:1 h:2</title>
  <metadata>{&quot;entityType&quot;:&quot;particle&quot;,&quot;entityId&quot;:&quot;img4-m52-p1&quot;,&quot;token&quot;:&quot;e:1 c:1 h:2&quot;,&quot;signature&quot;:&quot;e:1 c:1 h:2&quot;,&quot;imageName&quot;:&quot;page-004.jpg&quot;,&quot;imageId&quot;:4,&quot;bounds&quot;:{&quot;x&quot;:1112,&quot;y&quot;:2473,&quot;w&quot;:60,&quot;h&quot;:75},&quot;atoms&quot;:[{&quot;id&quot;:5055,&quot;token&quot;:&quot;e:1&quot;,&quot;particle_id&quot;:&quot;img4-m52-p1&quot;,&quot;molecule_id&quot;:&quot;img4-m52&quot;,&quot;atom_order&quot;:1},{&quot;id&quot;:4847,&quot;token&quot;:&quot;c:1&quot;,&quot;particle_id&quot;:&quot;img4-m52-p1&quot;,&quot;molecule_id&quot;:&quot;img4-m52&quot;,&quot;atom_order&quot;:2},{&quot;id&quot;:5314,&quot;token&quot;:&quot;h:2&quot;,&quot;particle_id&quot;:&quot;img4-m52-p1&quot;,&quot;molecule_id&quot;:&quot;img4-m52&quot;,&quot;atom_order&quot;:3}]}</metadata>
  <rect x="0" y="0" width="60" height="75" fill="#f8f0d8"/>
  <image href="file:///C:/Users/HHHES/AppData/Roaming/com.voynichlab.datasetcreator/images/1/aff30327-ced8-4ab4-8c9b-190205ebe022.jpg" x="-1112" y="-2473" width="2804" height="3797" opacity="0.92"/>
  <rect x="0.5" y="0.5" width="59" height="74" fill="none" stroke="#111827" stroke-width="1" opacity="0.35"/>
  <polyline points="31,56 31,57 30,57 30,58 29,58 28,58 28,59 27,59 26,59 25,59 24,59 23,59 22,59 21,59 21,58 20,58 19,58 18,58 18,57 17,57 16,57 16,56 16,55 16,54 16,53 16,52 16,51 16,50 17,50 17,49 17,48 17,47 18,47 18,46 18,45 19,45 19,44 19,43 20,43 21,43 21,42 22,42 22,41 23,41 24,41 24,40 25,40 26,40 27,40 27,39" fill="none" stroke="#f2e45c" stroke-width="3" stroke-linecap="round" stroke-linejoin="round" opacity="0.95">
    <title>5055 e:1</title>
  </polyline>
  <polyline points="35,34 35,33 36,33 37,33 38,32 39,32 39,31 40,31 40,30 41,30 41,29 42,29 42,28 43,27 44,26 44,25 44,24 44,23 44,22 44,21 43,21 43,20 42,20 42,19 41,19 41,18 40,18 39,18 38,17 37,17 36,16 35,16 34,16 33,16 32,16 31,16 30,17 29,18 28,19 28,20 27,20 27,21 26,22 25,23 25,24 25,25 25,26 25,27 25,28 25,29 26,30 26,31 27,32 28,32 28,33 29,33 30,34 31,34 32,34 32,35 33,35 34,35 35,35 35,34 36,34 36,33" fill="none" stroke="#8aff00" stroke-width="3" stroke-linecap="round" stroke-linejoin="round" opacity="0.95">
    <title>4847 c:1</title>
  </polyline>
  <polyline points="28,18 27,18 27,19 27,20 26,20 26,21 26,22 26,23 25,23 25,24 25,25 25,26 25,27 25,28 26,29 27,30 27,31 28,32 29,33 30,34 30,35 31,36 31,37 32,37 32,38 33,39 33,40 34,41 34,42 34,43 34,44 35,44 35,45 35,46 35,47 35,48 35,49 35,50 34,51 34,52 33,52 33,53 32,53 32,54 31,54 30,55 29,56 28,57 26,57 26,58" fill="none" stroke="#ff8c00" stroke-width="3" stroke-linecap="round" stroke-linejoin="round" opacity="0.95">
    <title>5314 h:2</title>
  </polyline>
</svg>
