<?xml version="1.0" encoding="UTF-8"?>
<svg xmlns="http://www.w3.org/2000/svg" width="60" height="79" viewBox="0 0 60 79">
  <title>particle img4-m55-p2 e:1 h:1</title>
  <metadata>{&quot;entityType&quot;:&quot;particle&quot;,&quot;entityId&quot;:&quot;img4-m55-p2&quot;,&quot;token&quot;:&quot;e:1 h:1&quot;,&quot;signature&quot;:&quot;e:1 h:1&quot;,&quot;imageName&quot;:&quot;page-004.jpg&quot;,&quot;imageId&quot;:4,&quot;bounds&quot;:{&quot;x&quot;:2230,&quot;y&quot;:2491,&quot;w&quot;:60,&quot;h&quot;:79},&quot;atoms&quot;:[{&quot;id&quot;:5026,&quot;token&quot;:&quot;e:1&quot;,&quot;particle_id&quot;:&quot;img4-m55-p2&quot;,&quot;molecule_id&quot;:&quot;img4-m55&quot;,&quot;atom_order&quot;:1},{&quot;id&quot;:5281,&quot;token&quot;:&quot;h:1&quot;,&quot;particle_id&quot;:&quot;img4-m55-p2&quot;,&quot;molecule_id&quot;:&quot;img4-m55&quot;,&quot;atom_order&quot;:2}]}</metadata>
  <rect x="0" y="0" width="60" height="79" fill="#f8f0d8"/>
  <image href="file:///C:/Users/HHHES/AppData/Roaming/com.voynichlab.datasetcreator/images/1/aff30327-ced8-4ab4-8c9b-190205ebe022.jpg" x="-2230" y="-2491" width="2804" height="3797" opacity="0.92"/>
  <rect x="0.5" y="0.5" width="59" height="78" fill="none" stroke="#111827" stroke-width="1" opacity="0.35"/>
  <polyline points="31,33 31,34 30,34 30,35 29,35 28,35 28,36 27,36 26,36 25,36 24,36 23,36 22,36 21,36 21,35 20,35 19,35 18,35 18,34 17,34 16,34 16,33 16,32 16,31 16,30 16,29 16,28 16,27 17,27 17,26 17,25 17,24 18,24 18,23 18,22 19,22 19,21 19,20 20,20 21,20 21,19 22,19 22,18 23,18 24,18 24,17 25,17 26,17 27,17 27,16" fill="none" stroke="#f2e45c" stroke-width="3" stroke-linecap="round" stroke-linejoin="round" opacity="0.95">
    <title>5026 e:1</title>
  </polyline>
  <polyline points="27,16 28,16 29,17 30,17 31,18 32,18 33,19 35,19 37,21 39,22 40,22 41,23 42,23 42,24 43,25 44,26 44,27 44,28 44,29 44,30 44,32 44,33 44,35 44,37 43,37 43,38 43,39 43,40 43,41 42,42 41,44 41,45 41,46 40,48 40,49 39,50 39,51 38,53 38,54 37,54 36,56 35,57 35,58 34,58 34,59 33,60 32,60 31,61 30,62 29,62 29,63" fill="none" stroke="#ff8c00" stroke-width="3" stroke-linecap="round" stroke-linejoin="round" opacity="0.95">
    <title>5281 h:1</title>
  </polyline>
</svg>
