<?xml version="1.0" encoding="UTF-8"?>
<svg xmlns="http://www.w3.org/2000/svg" width="56" height="59" viewBox="0 0 56 59">
  <title>particle img4-m48-p3 e:1 h:1</title>
  <metadata>{&quot;entityType&quot;:&quot;particle&quot;,&quot;entityId&quot;:&quot;img4-m48-p3&quot;,&quot;token&quot;:&quot;e:1 h:1&quot;,&quot;signature&quot;:&quot;e:1 h:1&quot;,&quot;imageName&quot;:&quot;page-004.jpg&quot;,&quot;imageId&quot;:4,&quot;bounds&quot;:{&quot;x&quot;:1361,&quot;y&quot;:2501,&quot;w&quot;:56,&quot;h&quot;:59},&quot;atoms&quot;:[{&quot;id&quot;:5059,&quot;token&quot;:&quot;e:1&quot;,&quot;particle_id&quot;:&quot;img4-m48-p3&quot;,&quot;molecule_id&quot;:&quot;img4-m48&quot;,&quot;atom_order&quot;:1},{&quot;id&quot;:5284,&quot;token&quot;:&quot;h:1&quot;,&quot;particle_id&quot;:&quot;img4-m48-p3&quot;,&quot;molecule_id&quot;:&quot;img4-m48&quot;,&quot;atom_order&quot;:2}]}</metadata>
  <rect x="0" y="0" width="56" height="59" fill="#f8f0d8"/>
  <image href="file:///C:/Users/HHHES/AppData/Roaming/com.voynichlab.datasetcreator/images/1/aff30327-ced8-4ab4-8c9b-190205ebe022.jpg" x="-1361" y="-2501" width="2804" height="3797" opacity="0.92"/>
  <rect x="0.5" y="0.5" width="55" height="58" fill="none" stroke="#111827" stroke-width="1" opacity="0.35"/>
  <polyline points="31,33 31,34 30,34 30,35 29,35 28,35 28,36 27,36 26,36 25,36 24,36 23,36 22,36 21,36 21,35 20,35 19,35 18,35 18,34 17,34 16,34 16,33 16,32 16,31 16,30 16,29 16,28 16,27 17,27 17,26 17,25 17,24 18,24 18,23 18,22 19,22 19,21 19,20 20,20 21,20 21,19 22,19 22,18 23,18 24,18 24,17 25,17 26,17 27,17 27,16" fill="none" stroke="#f2e45c" stroke-width="3" stroke-linecap="round" stroke-linejoin="round" opacity="0.95">
    <title>5059 e:1</title>
  </polyline>
  <polyline points="27,16 28,16 29,16 30,17 31,17 32,17 33,17 33,18 34,18 35,18 36,19 37,20 37,21 38,22 39,22 39,23 39,24 39,25 40,25 40,26 40,27 40,28 40,29 40,30 40,31 40,32 40,33 39,34 39,35 39,36 39,37 39,38 38,39 38,40 37,41 37,42 37,43 36,43" fill="none" stroke="#ff8c00" stroke-width="3" stroke-linecap="round" stroke-linejoin="round" opacity="0.95">
    <title>5284 h:1</title>
  </polyline>
</svg>
