<?xml version="1.0" encoding="UTF-8"?>
<svg xmlns="http://www.w3.org/2000/svg" width="88" height="52" viewBox="0 0 88 52">
  <title>particle img4-m61-p3 e:1 g:1 e:1</title>
  <metadata>{&quot;entityType&quot;:&quot;particle&quot;,&quot;entityId&quot;:&quot;img4-m61-p3&quot;,&quot;token&quot;:&quot;e:1 g:1 e:1&quot;,&quot;signature&quot;:&quot;e:1 g:1 e:1&quot;,&quot;imageName&quot;:&quot;page-004.jpg&quot;,&quot;imageId&quot;:4,&quot;bounds&quot;:{&quot;x&quot;:1061,&quot;y&quot;:2578,&quot;w&quot;:88,&quot;h&quot;:52},&quot;atoms&quot;:[{&quot;id&quot;:5087,&quot;token&quot;:&quot;e:1&quot;,&quot;particle_id&quot;:&quot;img4-m61-p3&quot;,&quot;molecule_id&quot;:&quot;img4-m61&quot;,&quot;atom_order&quot;:1},{&quot;id&quot;:5182,&quot;token&quot;:&quot;g:1&quot;,&quot;particle_id&quot;:&quot;img4-m61-p3&quot;,&quot;molecule_id&quot;:&quot;img4-m61&quot;,&quot;atom_order&quot;:2},{&quot;id&quot;:5086,&quot;token&quot;:&quot;e:1&quot;,&quot;particle_id&quot;:&quot;img4-m61-p3&quot;,&quot;molecule_id&quot;:&quot;img4-m61&quot;,&quot;atom_order&quot;:3}]}</metadata>
  <rect x="0" y="0" width="88" height="52" fill="#f8f0d8"/>
  <image href="file:///C:/Users/HHHES/AppData/Roaming/com.voynichlab.datasetcreator/images/1/aff30327-ced8-4ab4-8c9b-190205ebe022.jpg" x="-1061" y="-2578" width="2804" height="3797" opacity="0.92"/>
  <rect x="0.5" y="0.5" width="87" height="51" fill="none" stroke="#111827" stroke-width="1" opacity="0.35"/>
  <polyline points="31,33 31,34 30,34 30,35 29,35 28,35 28,36 27,36 26,36 25,36 24,36 23,36 22,36 21,36 21,35 20,35 19,35 18,35 18,34 17,34 16,34 16,33 16,32 16,31 16,30 16,29 16,28 16,27 17,27 17,26 17,25 17,24 18,24 18,23 18,22 19,22 19,21 19,20 20,20 21,20 21,19 22,19 22,18 23,18 24,18 24,17 25,17 26,17 27,17 27,16" fill="none" stroke="#f2e45c" stroke-width="3" stroke-linecap="round" stroke-linejoin="round" opacity="0.95">
    <title>5087 e:1</title>
  </polyline>
  <polyline points="23,17 24,17 25,17 26,17 27,17 28,17 29,17 30,17 31,17 33,17 34,17 36,17 37,17 38,17 39,18 40,18 41,18 43,18 45,18 47,18 48,18 49,18 50,18 51,18 52,18 53,18 54,18 55,18 56,18 57,18 58,18 59,18 60,18 60,17 61,17 62,17 63,17 64,17 65,17 66,17 67,17" fill="none" stroke="#7c3cff" stroke-width="3" stroke-linecap="round" stroke-linejoin="round" opacity="0.95">
    <title>5182 g:1</title>
  </polyline>
  <polyline points="72,33 72,34 71,34 71,35 70,35 69,35 69,36 68,36 67,36 66,36 65,36 64,36 63,36 62,36 62,35 61,35 60,35 59,35 59,34 58,34 57,34 57,33 57,32 57,31 57,30 57,29 57,28 57,27 58,27 58,26 58,25 58,24 59,24 59,23 59,22 60,22 60,21 60,20 61,20 62,20 62,19 63,19 63,18 64,18 65,18 65,17 66,17 67,17 68,17 68,16" fill="none" stroke="#f2e45c" stroke-width="3" stroke-linecap="round" stroke-linejoin="round" opacity="0.95">
    <title>5086 e:1</title>
  </polyline>
</svg>
