<?xml version="1.0" encoding="UTF-8"?>
<svg xmlns="http://www.w3.org/2000/svg" width="55" height="69" viewBox="0 0 55 69">
  <title>particle img4-m46-p2 e:1 h:1</title>
  <metadata>{&quot;entityType&quot;:&quot;particle&quot;,&quot;entityId&quot;:&quot;img4-m46-p2&quot;,&quot;token&quot;:&quot;e:1 h:1&quot;,&quot;signature&quot;:&quot;e:1 h:1&quot;,&quot;imageName&quot;:&quot;page-004.jpg&quot;,&quot;imageId&quot;:4,&quot;bounds&quot;:{&quot;x&quot;:2423,&quot;y&quot;:2488,&quot;w&quot;:55,&quot;h&quot;:69},&quot;atoms&quot;:[{&quot;id&quot;:5022,&quot;token&quot;:&quot;e:1&quot;,&quot;particle_id&quot;:&quot;img4-m46-p2&quot;,&quot;molecule_id&quot;:&quot;img4-m46&quot;,&quot;atom_order&quot;:1},{&quot;id&quot;:5280,&quot;token&quot;:&quot;h:1&quot;,&quot;particle_id&quot;:&quot;img4-m46-p2&quot;,&quot;molecule_id&quot;:&quot;img4-m46&quot;,&quot;atom_order&quot;:2}]}</metadata>
  <rect x="0" y="0" width="55" height="69" fill="#f8f0d8"/>
  <image href="file:///C:/Users/HHHES/AppData/Roaming/com.voynichlab.datasetcreator/images/1/aff30327-ced8-4ab4-8c9b-190205ebe022.jpg" x="-2423" y="-2488" width="2804" height="3797" opacity="0.92"/>
  <rect x="0.5" y="0.5" width="54" height="68" fill="none" stroke="#111827" stroke-width="1" opacity="0.35"/>
  <polyline points="31,33 31,34 30,34 30,35 29,35 28,35 28,36 27,36 26,36 25,36 24,36 23,36 22,36 21,36 21,35 20,35 19,35 18,35 18,34 17,34 16,34 16,33 16,32 16,31 16,30 16,29 16,28 16,27 17,27 17,26 17,25 17,24 18,24 18,23 18,22 19,22 19,21 19,20 20,20 21,20 21,19 22,19 22,18 23,18 24,18 24,17 25,17 26,17 27,17 27,16" fill="none" stroke="#f2e45c" stroke-width="3" stroke-linecap="round" stroke-linejoin="round" opacity="0.95">
    <title>5022 e:1</title>
  </polyline>
  <polyline points="27,16 28,16 29,16 29,17 30,17 31,18 32,18 32,19 33,19 33,20 33,21 34,21 35,22 35,23 36,24 36,25 37,26 37,27 38,28 38,29 38,30 39,31 39,32 39,33 39,34 38,35 38,36 38,37 36,39 36,40 36,41 35,43 34,43 34,44 33,45 33,46 32,47 31,47 31,48 30,49 29,49 28,50 28,51 27,51 26,52 26,53" fill="none" stroke="#ff8c00" stroke-width="3" stroke-linecap="round" stroke-linejoin="round" opacity="0.95">
    <title>5280 h:1</title>
  </polyline>
</svg>
