<?xml version="1.0" encoding="UTF-8"?>
<svg xmlns="http://www.w3.org/2000/svg" width="108" height="92" viewBox="0 0 108 92">
  <title>particle img4-m48-p1 e:1 a:1 m:1 c:1 a:1 g:1 e:1</title>
  <metadata>{&quot;entityType&quot;:&quot;particle&quot;,&quot;entityId&quot;:&quot;img4-m48-p1&quot;,&quot;token&quot;:&quot;e:1 a:1 m:1 c:1 a:1 g:1 e:1&quot;,&quot;signature&quot;:&quot;e:1 a:1 m:1 c:1 a:1 g:1 e:1&quot;,&quot;imageName&quot;:&quot;page-004.jpg&quot;,&quot;imageId&quot;:4,&quot;bounds&quot;:{&quot;x&quot;:1244,&quot;y&quot;:2459,&quot;w&quot;:108,&quot;h&quot;:92},&quot;atoms&quot;:[{&quot;id&quot;:5056,&quot;token&quot;:&quot;e:1&quot;,&quot;particle_id&quot;:&quot;img4-m48-p1&quot;,&quot;molecule_id&quot;:&quot;img4-m48&quot;,&quot;atom_order&quot;:1},{&quot;id&quot;:4849,&quot;token&quot;:&quot;a:1&quot;,&quot;particle_id&quot;:&quot;img4-m48-p1&quot;,&quot;molecule_id&quot;:&quot;img4-m48&quot;,&quot;atom_order&quot;:2},{&quot;id&quot;:5466,&quot;token&quot;:&quot;m:1&quot;,&quot;particle_id&quot;:&quot;img4-m48-p1&quot;,&quot;molecule_id&quot;:&quot;img4-m48&quot;,&quot;atom_order&quot;:3},{&quot;id&quot;:4851,&quot;token&quot;:&quot;c:1&quot;,&quot;particle_id&quot;:&quot;img4-m48-p1&quot;,&quot;molecule_id&quot;:&quot;img4-m48&quot;,&quot;atom_order&quot;:4},{&quot;id&quot;:4850,&quot;token&quot;:&quot;a:1&quot;,&quot;particle_id&quot;:&quot;img4-m48-p1&quot;,&quot;molecule_id&quot;:&quot;img4-m48&quot;,&quot;atom_order&quot;:5},{&quot;id&quot;:5175,&quot;token&quot;:&quot;g:1&quot;,&quot;particle_id&quot;:&quot;img4-m48-p1&quot;,&quot;molecule_id&quot;:&quot;img4-m48&quot;,&quot;atom_order&quot;:6},{&quot;id&quot;:5057,&quot;token&quot;:&quot;e:1&quot;,&quot;particle_id&quot;:&quot;img4-m48-p1&quot;,&quot;molecule_id&quot;:&quot;img4-m48&quot;,&quot;atom_order&quot;:7}]}</metadata>
  <rect x="0" y="0" width="108" height="92" fill="#f8f0d8"/>
  <image href="file:///C:/Users/HHHES/AppData/Roaming/com.voynichlab.datasetcreator/images/1/aff30327-ced8-4ab4-8c9b-190205ebe022.jpg" x="-1244" y="-2459" width="2804" height="3797" opacity="0.92"/>
  <rect x="0.5" y="0.5" width="107" height="91" fill="none" stroke="#111827" stroke-width="1" opacity="0.35"/>
  <polyline points="31,71 31,72 30,72 30,73 29,73 28,73 28,74 27,74 26,74 25,74 24,74 23,74 22,74 21,74 21,73 20,73 19,73 18,73 18,72 17,72 16,72 16,71 16,70 16,69 16,68 16,67 16,66 16,65 17,65 17,64 17,63 17,62 18,62 18,61 18,60 19,60 19,59 19,58 20,58 21,58 21,57 22,57 22,56 23,56 24,56 24,55 25,55 26,55 27,55 27,54" fill="none" stroke="#f2e45c" stroke-width="3" stroke-linecap="round" stroke-linejoin="round" opacity="0.95">
    <title>5056 e:1</title>
  </polyline>
  <polyline points="41,76 41,75 41,74 41,73 41,72 41,71 41,70 42,69 42,68 42,67 42,66 42,65 42,64 42,63 42,62 42,61 42,60 42,59 42,58 42,57 42,56 42,55 42,54 43,54 43,53 43,52 43,51 43,50 43,49 43,48 43,47 43,46 43,45 43,44 44,44 44,43 44,42 44,41" fill="none" stroke="#00f0b5" stroke-width="3" stroke-linecap="round" stroke-linejoin="round" opacity="0.95">
    <title>4849 a:1</title>
  </polyline>
  <polyline points="44,43 44,42 44,41 44,40 45,39 45,38 46,37 46,36 46,35 46,34 47,34 47,33 47,32 47,31 47,30 47,29 48,29 48,28 48,27 48,26 48,25 48,24 49,24 49,23 49,22 49,21 49,20 49,19 50,19 50,18 49,18 48,18 47,19 46,19 45,19 44,19 44,20 43,20 42,20 42,21 41,21 40,21 39,22 38,22 37,23 36,23 35,23 35,24 34,24 33,24 32,25 31,25 31,26 30,26 30,27 29,27 29,28 29,29 30,29 31,29 32,29 33,29 34,29 35,29 36,29 37,29 38,29 39,29 40,29 42,29 43,29 44,29 45,29 46,29 47,29 48,29 51,29 52,29 53,29 55,29 56,30 57,30 58,30 59,30 60,30 61,30 62,30" fill="none" stroke="#ff00ff" stroke-width="3" stroke-linecap="round" stroke-linejoin="round" opacity="0.95">
    <title>5466 m:1</title>
  </polyline>
  <polyline points="61,22 61,23 61,24 61,25 61,26 61,27 60,28 60,29 60,30 60,31 60,32 60,33 61,33 62,33 62,34 63,34 64,34 65,34 66,34 67,34 68,34 69,34 70,34 71,34 72,34 73,34 74,34 75,34 76,34 76,33 77,33 78,33 79,33 79,32 80,32 81,31 82,31 82,30 83,29 83,28 84,28 84,27 84,26 85,26 85,25 85,24 85,23 85,22 85,21 84,21 84,20 83,20 83,19 82,19 82,18 81,18 81,17 80,17 79,17 78,16 77,16 76,16 75,16 74,16 73,16 72,16 71,16 70,16 69,16 68,17 67,17 67,18 66,18 65,18 65,19 64,19 63,20 63,21 62,22 62,23 61,24 61,25 61,26 61,27 61,28" fill="none" stroke="#8aff00" stroke-width="3" stroke-linecap="round" stroke-linejoin="round" opacity="0.95">
    <title>4851 c:1</title>
  </polyline>
  <polyline points="61,22 61,23 61,24 61,25 61,27 61,29 61,31 61,32 60,34 60,35 60,36 60,37 60,38 60,40 60,41 60,42 60,43 59,43 59,44 59,45 59,46 59,47 58,48 58,49 58,50 58,51 58,52 58,53 58,54 58,55 57,55 57,56 57,57 56,58 56,59 56,60 56,61 56,62 56,63 55,63 55,64 55,65 55,66 55,67 55,68 55,69 55,70 55,71 55,72 55,73 55,74 55,75" fill="none" stroke="#00f0b5" stroke-width="3" stroke-linecap="round" stroke-linejoin="round" opacity="0.95">
    <title>4850 a:1</title>
  </polyline>
  <polyline points="24,55 25,55 26,54 27,54 28,54 30,54 32,55 34,55 36,55 37,55 39,55 40,55 42,55 43,55 45,55 46,56 48,56 51,56 53,56 55,56 57,56 58,56 59,56 60,56 62,56 64,56 65,56 67,56 68,56 70,56 71,56 72,56 74,56 75,56 76,56 77,56 78,56 79,56 80,56 81,57 82,57 83,57 84,57 85,57 86,57 87,57" fill="none" stroke="#7c3cff" stroke-width="3" stroke-linecap="round" stroke-linejoin="round" opacity="0.95">
    <title>5175 g:1</title>
  </polyline>
  <polyline points="92,73 92,74 91,74 91,75 90,75 89,75 89,76 88,76 87,76 86,76 85,76 84,76 83,76 82,76 82,75 81,75 80,75 79,75 79,74 78,74 77,74 77,73 77,72 77,71 77,70 77,69 77,68 77,67 78,67 78,66 78,65 78,64 79,64 79,63 79,62 80,62 80,61 80,60 81,60 82,60 82,59 83,59 83,58 84,58 85,58 85,57 86,57 87,57 88,57 88,56" fill="none" stroke="#f2e45c" stroke-width="3" stroke-linecap="round" stroke-linejoin="round" opacity="0.95">
    <title>5057 e:1</title>
  </polyline>
</svg>
