<?xml version="1.0" encoding="UTF-8"?>
<svg xmlns="http://www.w3.org/2000/svg" width="59" height="71" viewBox="0 0 59 71">
  <title>particle img4-m36-p1 e:1 c:1 h:2</title>
  <metadata>{&quot;entityType&quot;:&quot;particle&quot;,&quot;entityId&quot;:&quot;img4-m36-p1&quot;,&quot;token&quot;:&quot;e:1 c:1 h:2&quot;,&quot;signature&quot;:&quot;e:1 c:1 h:2&quot;,&quot;imageName&quot;:&quot;page-004.jpg&quot;,&quot;imageId&quot;:4,&quot;bounds&quot;:{&quot;x&quot;:1531,&quot;y&quot;:2355,&quot;w&quot;:59,&quot;h&quot;:71},&quot;atoms&quot;:[{&quot;id&quot;:5008,&quot;token&quot;:&quot;e:1&quot;,&quot;particle_id&quot;:&quot;img4-m36-p1&quot;,&quot;molecule_id&quot;:&quot;img4-m36&quot;,&quot;atom_order&quot;:1},{&quot;id&quot;:4821,&quot;token&quot;:&quot;c:1&quot;,&quot;particle_id&quot;:&quot;img4-m36-p1&quot;,&quot;molecule_id&quot;:&quot;img4-m36&quot;,&quot;atom_order&quot;:2},{&quot;id&quot;:5310,&quot;token&quot;:&quot;h:2&quot;,&quot;particle_id&quot;:&quot;img4-m36-p1&quot;,&quot;molecule_id&quot;:&quot;img4-m36&quot;,&quot;atom_order&quot;:3}]}</metadata>
  <rect x="0" y="0" width="59" height="71" fill="#f8f0d8"/>
  <image href="file:///C:/Users/HHHES/AppData/Roaming/com.voynichlab.datasetcreator/images/1/aff30327-ced8-4ab4-8c9b-190205ebe022.jpg" x="-1531" y="-2355" width="2804" height="3797" opacity="0.92"/>
  <rect x="0.5" y="0.5" width="58" height="70" fill="none" stroke="#111827" stroke-width="1" opacity="0.35"/>
  <polyline points="31,52 31,53 30,53 30,54 29,54 28,54 28,55 27,55 26,55 25,55 24,55 23,55 22,55 21,55 21,54 20,54 19,54 18,54 18,53 17,53 16,53 16,52 16,51 16,50 16,49 16,48 16,47 16,46 17,46 17,45 17,44 17,43 18,43 18,42 18,41 19,41 19,40 19,39 20,39 21,39 21,38 22,38 22,37 23,37 24,37 24,36 25,36 26,36 27,36 27,35" fill="none" stroke="#f2e45c" stroke-width="3" stroke-linecap="round" stroke-linejoin="round" opacity="0.95">
    <title>5008 e:1</title>
  </polyline>
  <polyline points="37,30 37,29 38,29 38,28 39,28 40,27 41,26 41,25 42,25 42,24 42,23 43,23 43,22 43,21 43,20 42,20 42,19 41,18 40,18 40,17 39,17 38,17 38,16 37,16 36,16 35,16 34,16 33,16 32,17 31,17 30,17 30,18 29,18 28,18 27,19 26,19 26,20 26,21 25,21 25,22 25,23 25,24 25,25 25,26 26,26 26,27 26,28 27,28 27,29 28,29 29,30 30,30 31,30 32,30 33,30 34,30 35,30 35,29 36,29 36,28 37,28 37,27" fill="none" stroke="#8aff00" stroke-width="3" stroke-linecap="round" stroke-linejoin="round" opacity="0.95">
    <title>4821 c:1</title>
  </polyline>
  <polyline points="26,18 26,19 25,20 25,21 25,22 25,23 25,24 25,25 25,26 25,27 25,28 25,29 25,30 26,30 26,31 26,32 27,32 27,33 27,34 28,34 28,35 28,36 29,36 29,37 29,38 30,38 30,39 30,40 30,41 31,42 31,43 31,44 31,45 31,46 31,47 31,48 31,49 31,50 30,50 30,51 29,52 28,52" fill="none" stroke="#ff8c00" stroke-width="3" stroke-linecap="round" stroke-linejoin="round" opacity="0.95">
    <title>5310 h:2</title>
  </polyline>
</svg>
