<?xml version="1.0" encoding="UTF-8"?>
<svg xmlns="http://www.w3.org/2000/svg" width="87" height="53" viewBox="0 0 87 53">
  <title>particle img4-m38-p1 e:1 g:1 e:1</title>
  <metadata>{&quot;entityType&quot;:&quot;particle&quot;,&quot;entityId&quot;:&quot;img4-m38-p1&quot;,&quot;token&quot;:&quot;e:1 g:1 e:1&quot;,&quot;signature&quot;:&quot;e:1 g:1 e:1&quot;,&quot;imageName&quot;:&quot;page-004.jpg&quot;,&quot;imageId&quot;:4,&quot;bounds&quot;:{&quot;x&quot;:1657,&quot;y&quot;:2382,&quot;w&quot;:87,&quot;h&quot;:53},&quot;atoms&quot;:[{&quot;id&quot;:5010,&quot;token&quot;:&quot;e:1&quot;,&quot;particle_id&quot;:&quot;img4-m38-p1&quot;,&quot;molecule_id&quot;:&quot;img4-m38&quot;,&quot;atom_order&quot;:1},{&quot;id&quot;:5161,&quot;token&quot;:&quot;g:1&quot;,&quot;particle_id&quot;:&quot;img4-m38-p1&quot;,&quot;molecule_id&quot;:&quot;img4-m38&quot;,&quot;atom_order&quot;:2},{&quot;id&quot;:5011,&quot;token&quot;:&quot;e:1&quot;,&quot;particle_id&quot;:&quot;img4-m38-p1&quot;,&quot;molecule_id&quot;:&quot;img4-m38&quot;,&quot;atom_order&quot;:3}]}</metadata>
  <rect x="0" y="0" width="87" height="53" fill="#f8f0d8"/>
  <image href="file:///C:/Users/HHHES/AppData/Roaming/com.voynichlab.datasetcreator/images/1/aff30327-ced8-4ab4-8c9b-190205ebe022.jpg" x="-1657" y="-2382" width="2804" height="3797" opacity="0.92"/>
  <rect x="0.5" y="0.5" width="86" height="52" fill="none" stroke="#111827" stroke-width="1" opacity="0.35"/>
  <polyline points="31,34 31,35 30,35 30,36 29,36 28,36 28,37 27,37 26,37 25,37 24,37 23,37 22,37 21,37 21,36 20,36 19,36 18,36 18,35 17,35 16,35 16,34 16,33 16,32 16,31 16,30 16,29 16,28 17,28 17,27 17,26 17,25 18,25 18,24 18,23 19,23 19,22 19,21 20,21 21,21 21,20 22,20 22,19 23,19 24,19 24,18 25,18 26,18 27,18 27,17" fill="none" stroke="#f2e45c" stroke-width="3" stroke-linecap="round" stroke-linejoin="round" opacity="0.95">
    <title>5010 e:1</title>
  </polyline>
  <polyline points="25,18 26,18 27,18 28,18 29,18 30,18 32,18 33,18 34,18 35,18 36,18 38,18 40,18 42,18 44,18 45,18 47,18 48,18 50,18 52,18 53,17 54,17 55,17 56,17 57,17 58,17 59,17 60,17 61,17 62,17 63,17 64,17 65,17 66,17 67,17 66,17" fill="none" stroke="#7c3cff" stroke-width="3" stroke-linecap="round" stroke-linejoin="round" opacity="0.95">
    <title>5161 g:1</title>
  </polyline>
  <polyline points="71,33 71,34 70,34 70,35 69,35 68,35 68,36 67,36 66,36 65,36 64,36 63,36 62,36 61,36 61,35 60,35 59,35 58,35 58,34 57,34 56,34 56,33 56,32 56,31 56,30 56,29 56,28 56,27 57,27 57,26 57,25 57,24 58,24 58,23 58,22 59,22 59,21 59,20 60,20 61,20 61,19 62,19 62,18 63,18 64,18 64,17 65,17 66,17 67,17 67,16" fill="none" stroke="#f2e45c" stroke-width="3" stroke-linecap="round" stroke-linejoin="round" opacity="0.95">
    <title>5011 e:1</title>
  </polyline>
</svg>
