<?xml version="1.0" encoding="UTF-8"?>
<svg xmlns="http://www.w3.org/2000/svg" width="61" height="88" viewBox="0 0 61 88">
  <title>particle img4-m10-p3 f:1 i:1 d:1</title>
  <metadata>{&quot;entityType&quot;:&quot;particle&quot;,&quot;entityId&quot;:&quot;img4-m10-p3&quot;,&quot;token&quot;:&quot;f:1 i:1 d:1&quot;,&quot;signature&quot;:&quot;f:1 i:1 d:1&quot;,&quot;imageName&quot;:&quot;page-004.jpg&quot;,&quot;imageId&quot;:4,&quot;bounds&quot;:{&quot;x&quot;:2149,&quot;y&quot;:1957,&quot;w&quot;:61,&quot;h&quot;:88},&quot;atoms&quot;:[{&quot;id&quot;:5335,&quot;token&quot;:&quot;f:1&quot;,&quot;particle_id&quot;:&quot;img4-m10-p3&quot;,&quot;molecule_id&quot;:&quot;img4-m10&quot;,&quot;atom_order&quot;:1},{&quot;id&quot;:5197,&quot;token&quot;:&quot;i:1&quot;,&quot;particle_id&quot;:&quot;img4-m10-p3&quot;,&quot;molecule_id&quot;:&quot;img4-m10&quot;,&quot;atom_order&quot;:2},{&quot;id&quot;:5237,&quot;token&quot;:&quot;d:1&quot;,&quot;particle_id&quot;:&quot;img4-m10-p3&quot;,&quot;molecule_id&quot;:&quot;img4-m10&quot;,&quot;atom_order&quot;:3}]}</metadata>
  <rect x="0" y="0" width="61" height="88" fill="#f8f0d8"/>
  <image href="file:///C:/Users/HHHES/AppData/Roaming/com.voynichlab.datasetcreator/images/1/aff30327-ced8-4ab4-8c9b-190205ebe022.jpg" x="-2149" y="-1957" width="2804" height="3797" opacity="0.92"/>
  <rect x="0.5" y="0.5" width="60" height="87" fill="none" stroke="#111827" stroke-width="1" opacity="0.35"/>
  <polyline points="16,51 16,52 16,53 17,53 17,54 17,55 18,55 18,56 19,57 19,58 20,58 20,59 21,60 21,61 22,61 22,62 23,62 23,63 24,63 24,64 24,65 25,65 25,66 25,67 26,67 26,68 27,68 27,69 28,70 28,71 29,71 29,72" fill="none" stroke="#00a2ff" stroke-width="3" stroke-linecap="round" stroke-linejoin="round" opacity="0.95">
    <title>5335 f:1</title>
  </polyline>
  <polyline points="17,53 18,53 19,53 20,53 21,53 22,53 23,54 24,54 25,54 26,54 26,53 27,53 28,53 29,53 29,52 30,52 31,51 32,51 32,50 33,50 33,49 34,49 35,49 35,48 36,48 36,47 37,47 37,46 38,46 39,45 39,44 40,44 41,43 41,42 42,42 42,41 42,40 43,40 43,39 43,38 44,38 44,37 44,36 44,35 44,34 45,34 45,33 45,32 45,31 45,30 45,29 44,29 44,28 44,27 44,26 43,26 43,25 42,25 42,24" fill="none" stroke="#00ff7f" stroke-width="3" stroke-linecap="round" stroke-linejoin="round" opacity="0.95">
    <title>5197 i:1</title>
  </polyline>
  <polyline points="43,25 42,24 42,23 41,23 40,22 40,21 39,21 38,20 37,20 36,19 35,19 34,18 33,18 32,18 32,17 31,17 30,17 29,16 28,16 27,16 26,16 25,16 24,16 23,16 22,16 22,17 21,17 20,18 19,19 18,19 18,20 18,21 18,22 18,23 18,24 19,24 19,25 20,25" fill="none" stroke="#ff2d55" stroke-width="3" stroke-linecap="round" stroke-linejoin="round" opacity="0.95">
    <title>5237 d:1</title>
  </polyline>
</svg>
