<?xml version="1.0" encoding="UTF-8"?>
<svg xmlns="http://www.w3.org/2000/svg" width="57" height="87" viewBox="0 0 57 87">
  <title>particle img4-m4-p3 f:1 i:1 d:1</title>
  <metadata>{&quot;entityType&quot;:&quot;particle&quot;,&quot;entityId&quot;:&quot;img4-m4-p3&quot;,&quot;token&quot;:&quot;f:1 i:1 d:1&quot;,&quot;signature&quot;:&quot;f:1 i:1 d:1&quot;,&quot;imageName&quot;:&quot;page-004.jpg&quot;,&quot;imageId&quot;:4,&quot;bounds&quot;:{&quot;x&quot;:2354,&quot;y&quot;:1973,&quot;w&quot;:57,&quot;h&quot;:87},&quot;atoms&quot;:[{&quot;id&quot;:5339,&quot;token&quot;:&quot;f:1&quot;,&quot;particle_id&quot;:&quot;img4-m4-p3&quot;,&quot;molecule_id&quot;:&quot;img4-m4&quot;,&quot;atom_order&quot;:1},{&quot;id&quot;:5198,&quot;token&quot;:&quot;i:1&quot;,&quot;particle_id&quot;:&quot;img4-m4-p3&quot;,&quot;molecule_id&quot;:&quot;img4-m4&quot;,&quot;atom_order&quot;:2},{&quot;id&quot;:5238,&quot;token&quot;:&quot;d:1&quot;,&quot;particle_id&quot;:&quot;img4-m4-p3&quot;,&quot;molecule_id&quot;:&quot;img4-m4&quot;,&quot;atom_order&quot;:3}]}</metadata>
  <rect x="0" y="0" width="57" height="87" fill="#f8f0d8"/>
  <image href="file:///C:/Users/HHHES/AppData/Roaming/com.voynichlab.datasetcreator/images/1/aff30327-ced8-4ab4-8c9b-190205ebe022.jpg" x="-2354" y="-1973" width="2804" height="3797" opacity="0.92"/>
  <rect x="0.5" y="0.5" width="56" height="86" fill="none" stroke="#111827" stroke-width="1" opacity="0.35"/>
  <polyline points="16,50 16,51 16,52 17,52 17,53 17,54 18,54 18,55 19,56 19,57 20,57 20,58 21,59 21,60 22,60 22,61 23,61 23,62 24,62 24,63 24,64 25,64 25,65 25,66 26,66 26,67 27,67 27,68 28,69 28,70 29,70 29,71" fill="none" stroke="#00a2ff" stroke-width="3" stroke-linecap="round" stroke-linejoin="round" opacity="0.95">
    <title>5339 f:1</title>
  </polyline>
  <polyline points="16,53 16,52 17,52 18,52 19,52 20,52 21,52 22,51 23,51 24,51 25,51 26,51 26,50 27,50 28,50 29,50 30,50 31,50 31,49 32,49 33,49 34,48 35,48 35,47 36,47 37,46 37,45 38,44 39,43 39,42 39,41 39,40 40,39 40,38 40,37 41,36 41,35 41,34 41,33 41,32 41,31 41,30 41,29 40,28 40,27 39,26 39,25 39,24 38,24 38,23" fill="none" stroke="#00ff7f" stroke-width="3" stroke-linecap="round" stroke-linejoin="round" opacity="0.95">
    <title>5198 i:1</title>
  </polyline>
  <polyline points="39,24 39,23 38,22 38,21 37,21 37,20 36,20 36,19 35,19 34,19 34,18 33,17 32,17 31,17 30,16 29,16 28,16 27,16 26,16 25,16 24,16 23,16 22,16 21,16 20,16 19,16 18,17 18,18 17,19 17,20 18,20 18,21 19,21 20,21 21,22 22,22 23,22 24,22 25,22 26,22 27,23 28,23 29,23 29,24 30,24" fill="none" stroke="#ff2d55" stroke-width="3" stroke-linecap="round" stroke-linejoin="round" opacity="0.95">
    <title>5238 d:1</title>
  </polyline>
</svg>
