<?xml version="1.0" encoding="UTF-8"?>
<svg xmlns="http://www.w3.org/2000/svg" width="90" height="96" viewBox="0 0 90 96">
  <title>particle img4-m6-p2 a:1 m:1 c:1 a:1</title>
  <metadata>{&quot;entityType&quot;:&quot;particle&quot;,&quot;entityId&quot;:&quot;img4-m6-p2&quot;,&quot;token&quot;:&quot;a:1 m:1 c:1 a:1&quot;,&quot;signature&quot;:&quot;a:1 m:1 c:1 a:1&quot;,&quot;imageName&quot;:&quot;page-004.jpg&quot;,&quot;imageId&quot;:4,&quot;bounds&quot;:{&quot;x&quot;:591,&quot;y&quot;:1919,&quot;w&quot;:90,&quot;h&quot;:96},&quot;atoms&quot;:[{&quot;id&quot;:4660,&quot;token&quot;:&quot;a:1&quot;,&quot;particle_id&quot;:&quot;img4-m6-p2&quot;,&quot;molecule_id&quot;:&quot;img4-m6&quot;,&quot;atom_order&quot;:1},{&quot;id&quot;:5446,&quot;token&quot;:&quot;m:1&quot;,&quot;particle_id&quot;:&quot;img4-m6-p2&quot;,&quot;molecule_id&quot;:&quot;img4-m6&quot;,&quot;atom_order&quot;:2},{&quot;id&quot;:4794,&quot;token&quot;:&quot;c:1&quot;,&quot;particle_id&quot;:&quot;img4-m6-p2&quot;,&quot;molecule_id&quot;:&quot;img4-m6&quot;,&quot;atom_order&quot;:3},{&quot;id&quot;:4661,&quot;token&quot;:&quot;a:1&quot;,&quot;particle_id&quot;:&quot;img4-m6-p2&quot;,&quot;molecule_id&quot;:&quot;img4-m6&quot;,&quot;atom_order&quot;:4}]}</metadata>
  <rect x="0" y="0" width="90" height="96" fill="#f8f0d8"/>
  <image href="file:///C:/Users/HHHES/AppData/Roaming/com.voynichlab.datasetcreator/images/1/aff30327-ced8-4ab4-8c9b-190205ebe022.jpg" x="-591" y="-1919" width="2804" height="3797" opacity="0.92"/>
  <rect x="0.5" y="0.5" width="89" height="95" fill="none" stroke="#111827" stroke-width="1" opacity="0.35"/>
  <polyline points="30,80 30,79 30,78 30,77 30,76 30,75 29,74 29,73 29,72 29,71 29,70 29,69 29,68 29,67 29,66 29,65 30,64 30,63 30,62 30,61 30,60 30,59 30,58 30,57 30,56 30,55 30,54 30,53 30,52 29,52 29,51 29,50 29,49 29,48 29,47 29,46" fill="none" stroke="#00f0b5" stroke-width="3" stroke-linecap="round" stroke-linejoin="round" opacity="0.95">
    <title>4660 a:1</title>
  </polyline>
  <polyline points="29,48 29,47 29,46 29,45 29,44 29,43 29,42 29,41 29,40 29,39 29,38 30,37 30,36 30,35 30,34 30,33 30,32 30,31 30,30 30,29 30,28 30,27 30,26 30,25 30,24 30,23 30,22 30,21 30,20 30,19 30,18 30,17 29,17 28,17 27,18 27,19 26,19 26,20 25,21 25,22 24,22 24,23 23,24 23,25 22,25 22,26 22,27 21,27 21,28 20,29 20,30 19,30 19,31 18,31 18,32 17,33 17,34 16,35 16,36 17,36 18,36 19,36 20,36 21,36 22,36 23,36 24,36 25,36 26,36 27,36 28,36 29,36 30,36 31,36 33,36 34,36 35,35 36,35 37,35 38,35 40,35 41,35 42,35 43,35 44,35 45,35 46,35 47,35 48,35 49,35 50,35 51,35 52,35 53,35 54,34 55,34 56,34 57,34" fill="none" stroke="#ff00ff" stroke-width="3" stroke-linecap="round" stroke-linejoin="round" opacity="0.95">
    <title>5446 m:1</title>
  </polyline>
  <polyline points="51,22 51,23 51,24 51,25 50,26 50,27 50,28 50,29 50,30 50,31 50,32 50,33 51,33 51,34 52,34 53,34 54,34 55,34 56,34 57,34 58,34 59,34 60,34 61,34 62,34 63,34 64,34 65,34 66,34 66,33 67,33 68,33 68,32 69,32 70,31 71,31 71,30 72,29 72,28 73,28 73,27 73,26 73,25 74,24 74,23 74,22 74,21 73,21 73,20 72,19 71,19 71,18 70,18 69,18 68,18 68,17 67,17 66,17 65,17 64,17 63,16 61,16 60,16 59,17 58,17 57,17 57,18 56,18 55,19 54,19 54,20 53,20 53,21 52,22 52,23 52,24 51,24 51,25 51,26 51,27 51,28 51,29 51,30 51,31" fill="none" stroke="#8aff00" stroke-width="3" stroke-linecap="round" stroke-linejoin="round" opacity="0.95">
    <title>4794 c:1</title>
  </polyline>
  <polyline points="51,22 51,23 51,24 51,25 51,26 51,27 50,28 50,29 50,30 50,31 49,32 49,34 49,35 48,37 48,38 48,39 48,41 48,42 48,43 48,44 48,45 48,46 48,47 48,48 48,49 48,50 48,51 48,52 48,53 48,54 48,55 48,56 48,57 48,58 48,59 48,60 48,61 47,62 47,63 47,64 47,65 47,66 47,67 47,68 47,69 47,70 47,71 47,72 47,73 46,74 46,75 46,76" fill="none" stroke="#00f0b5" stroke-width="3" stroke-linecap="round" stroke-linejoin="round" opacity="0.95">
    <title>4661 a:1</title>
  </polyline>
</svg>
