<?xml version="1.0" encoding="UTF-8"?>
<svg xmlns="http://www.w3.org/2000/svg" width="87" height="54" viewBox="0 0 87 54">
  <title>particle img4-m9-p2 e:1 g:1 e:1</title>
  <metadata>{&quot;entityType&quot;:&quot;particle&quot;,&quot;entityId&quot;:&quot;img4-m9-p2&quot;,&quot;token&quot;:&quot;e:1 g:1 e:1&quot;,&quot;signature&quot;:&quot;e:1 g:1 e:1&quot;,&quot;imageName&quot;:&quot;page-004.jpg&quot;,&quot;imageId&quot;:4,&quot;bounds&quot;:{&quot;x&quot;:1022,&quot;y&quot;:1982,&quot;w&quot;:87,&quot;h&quot;:54},&quot;atoms&quot;:[{&quot;id&quot;:4949,&quot;token&quot;:&quot;e:1&quot;,&quot;particle_id&quot;:&quot;img4-m9-p2&quot;,&quot;molecule_id&quot;:&quot;img4-m9&quot;,&quot;atom_order&quot;:1},{&quot;id&quot;:5145,&quot;token&quot;:&quot;g:1&quot;,&quot;particle_id&quot;:&quot;img4-m9-p2&quot;,&quot;molecule_id&quot;:&quot;img4-m9&quot;,&quot;atom_order&quot;:2},{&quot;id&quot;:4948,&quot;token&quot;:&quot;e:1&quot;,&quot;particle_id&quot;:&quot;img4-m9-p2&quot;,&quot;molecule_id&quot;:&quot;img4-m9&quot;,&quot;atom_order&quot;:3}]}</metadata>
  <rect x="0" y="0" width="87" height="54" fill="#f8f0d8"/>
  <image href="file:///C:/Users/HHHES/AppData/Roaming/com.voynichlab.datasetcreator/images/1/aff30327-ced8-4ab4-8c9b-190205ebe022.jpg" x="-1022" y="-1982" width="2804" height="3797" opacity="0.92"/>
  <rect x="0.5" y="0.5" width="86" height="53" fill="none" stroke="#111827" stroke-width="1" opacity="0.35"/>
  <polyline points="31,33 31,34 30,34 30,35 29,35 28,35 28,36 27,36 26,36 25,36 24,36 23,36 22,36 21,36 21,35 20,35 19,35 18,35 18,34 17,34 16,34 16,33 16,32 16,31 16,30 16,29 16,28 16,27 17,27 17,26 17,25 17,24 18,24 18,23 18,22 19,22 19,21 19,20 20,20 21,20 21,19 22,19 22,18 23,18 24,18 24,17 25,17 26,17 27,17 27,16" fill="none" stroke="#f2e45c" stroke-width="3" stroke-linecap="round" stroke-linejoin="round" opacity="0.95">
    <title>4949 e:1</title>
  </polyline>
  <polyline points="24,16 25,16 25,17 26,17 27,17 28,17 29,17 31,17 33,17 35,18 38,18 39,18 41,18 42,18 44,18 47,18 49,19 52,19 54,19 55,19 56,19 57,19 58,19 59,20 60,20 61,20 62,20 63,20 64,20" fill="none" stroke="#7c3cff" stroke-width="3" stroke-linecap="round" stroke-linejoin="round" opacity="0.95">
    <title>5145 g:1</title>
  </polyline>
  <polyline points="71,35 71,36 70,36 70,37 69,37 68,37 68,38 67,38 66,38 65,38 64,38 63,38 62,38 61,38 61,37 60,37 59,37 58,37 58,36 57,36 56,36 56,35 56,34 56,33 56,32 56,31 56,30 56,29 57,29 57,28 57,27 57,26 58,26 58,25 58,24 59,24 59,23 59,22 60,22 61,22 61,21 62,21 62,20 63,20 64,20 64,19 65,19 66,19 67,19 67,18" fill="none" stroke="#f2e45c" stroke-width="3" stroke-linecap="round" stroke-linejoin="round" opacity="0.95">
    <title>4948 e:1</title>
  </polyline>
</svg>
