<?xml version="1.0" encoding="UTF-8"?>
<svg xmlns="http://www.w3.org/2000/svg" width="49" height="69" viewBox="0 0 49 69">
  <title>particle img4-m65-p4 f:1 j:1</title>
  <metadata>{&quot;entityType&quot;:&quot;particle&quot;,&quot;entityId&quot;:&quot;img4-m65-p4&quot;,&quot;token&quot;:&quot;f:1 j:1&quot;,&quot;signature&quot;:&quot;f:1 j:1&quot;,&quot;imageName&quot;:&quot;page-004.jpg&quot;,&quot;imageId&quot;:4,&quot;bounds&quot;:{&quot;x&quot;:649,&quot;y&quot;:2553,&quot;w&quot;:49,&quot;h&quot;:69},&quot;atoms&quot;:[{&quot;id&quot;:5391,&quot;token&quot;:&quot;f:1&quot;,&quot;particle_id&quot;:&quot;img4-m65-p4&quot;,&quot;molecule_id&quot;:&quot;img4-m65&quot;,&quot;atom_order&quot;:1},{&quot;id&quot;:5432,&quot;token&quot;:&quot;j:1&quot;,&quot;particle_id&quot;:&quot;img4-m65-p4&quot;,&quot;molecule_id&quot;:&quot;img4-m65&quot;,&quot;atom_order&quot;:2}]}</metadata>
  <rect x="0" y="0" width="49" height="69" fill="#f8f0d8"/>
  <image href="file:///C:/Users/HHHES/AppData/Roaming/com.voynichlab.datasetcreator/images/1/aff30327-ced8-4ab4-8c9b-190205ebe022.jpg" x="-649" y="-2553" width="2804" height="3797" opacity="0.92"/>
  <rect x="0.5" y="0.5" width="48" height="68" fill="none" stroke="#111827" stroke-width="1" opacity="0.35"/>
  <polyline points="20,21 20,22 20,23 21,23 21,24 21,25 22,25 22,26 23,27 23,28 24,28 24,29 25,30 25,31 26,31 26,32 27,32 27,33 28,33 28,34 28,35 29,35 29,36 29,37 30,37 30,38 31,38 31,39 32,40 32,41 33,41 33,42" fill="none" stroke="#00a2ff" stroke-width="3" stroke-linecap="round" stroke-linejoin="round" opacity="0.95">
    <title>5391 f:1</title>
  </polyline>
  <polyline points="20,23 20,22 21,22 21,21 22,21 22,20 23,20 23,19 24,19 25,18 26,18 26,17 27,17 28,17 29,17 29,16 30,16 31,16 31,17 32,18 32,19 32,20 33,20 33,21 33,22 33,23 33,24 32,24 32,25 32,26 31,26 31,27 31,28 30,29 30,30 29,30 29,31 29,32 28,33 28,34 28,35 27,35 27,36 27,37 26,37 26,38 25,38 25,39 25,40 24,40 24,41 23,42 23,43 22,44 22,45 21,46 20,47 20,48 19,49 18,50 18,51 17,52 16,53" fill="none" stroke="#4a9e6a" stroke-width="3" stroke-linecap="round" stroke-linejoin="round" opacity="0.95">
    <title>5432 j:1</title>
  </polyline>
</svg>
