<?xml version="1.0" encoding="UTF-8"?>
<svg xmlns="http://www.w3.org/2000/svg" width="94" height="92" viewBox="0 0 94 92">
  <title>particle img4-m23-p3 l:1 f:1 i:1 d:1</title>
  <metadata>{&quot;entityType&quot;:&quot;particle&quot;,&quot;entityId&quot;:&quot;img4-m23-p3&quot;,&quot;token&quot;:&quot;l:1 f:1 i:1 d:1&quot;,&quot;signature&quot;:&quot;l:1 f:1 i:1 d:1&quot;,&quot;imageName&quot;:&quot;page-004.jpg&quot;,&quot;imageId&quot;:4,&quot;bounds&quot;:{&quot;x&quot;:944,&quot;y&quot;:2084,&quot;w&quot;:94,&quot;h&quot;:92},&quot;atoms&quot;:[{&quot;id&quot;:5411,&quot;token&quot;:&quot;l:1&quot;,&quot;particle_id&quot;:&quot;img4-m23-p3&quot;,&quot;molecule_id&quot;:&quot;img4-m23&quot;,&quot;atom_order&quot;:1},{&quot;id&quot;:5355,&quot;token&quot;:&quot;f:1&quot;,&quot;particle_id&quot;:&quot;img4-m23-p3&quot;,&quot;molecule_id&quot;:&quot;img4-m23&quot;,&quot;atom_order&quot;:2},{&quot;id&quot;:5218,&quot;token&quot;:&quot;i:1&quot;,&quot;particle_id&quot;:&quot;img4-m23-p3&quot;,&quot;molecule_id&quot;:&quot;img4-m23&quot;,&quot;atom_order&quot;:3},{&quot;id&quot;:5243,&quot;token&quot;:&quot;d:1&quot;,&quot;particle_id&quot;:&quot;img4-m23-p3&quot;,&quot;molecule_id&quot;:&quot;img4-m23&quot;,&quot;atom_order&quot;:4}]}</metadata>
  <rect x="0" y="0" width="94" height="92" fill="#f8f0d8"/>
  <image href="file:///C:/Users/HHHES/AppData/Roaming/com.voynichlab.datasetcreator/images/1/aff30327-ced8-4ab4-8c9b-190205ebe022.jpg" x="-944" y="-2084" width="2804" height="3797" opacity="0.92"/>
  <rect x="0.5" y="0.5" width="93" height="91" fill="none" stroke="#111827" stroke-width="1" opacity="0.35"/>
  <polyline points="16,49 16,50 16,51 17,51 18,52 18,53 19,53 19,54 20,55 21,55 21,56 22,57 22,58 23,59 23,60 24,60 24,61 24,62 25,62 25,63 26,63 26,64 26,65 27,65 27,66 28,66 28,67 29,67 29,68 30,68 30,69 31,69 31,70 32,70 32,71 33,71 33,72 34,71 35,71 35,70 36,70 37,69 38,69 38,68 39,68 39,67 40,67 41,66 42,65 43,65 43,64 44,64 44,63 45,63 45,62 46,62 46,61 46,60 47,60 47,59 48,59 48,58 49,58 49,57 50,57 50,56" fill="none" stroke="#ff5f1f" stroke-width="3" stroke-linecap="round" stroke-linejoin="round" opacity="0.95">
    <title>5411 l:1</title>
  </polyline>
  <polyline points="50,55 50,56 50,57 51,57 51,58 51,59 52,59 52,60 53,61 53,62 54,62 54,63 55,64 55,65 56,65 56,66 57,66 57,67 58,67 58,68 58,69 59,69 59,70 59,71 60,71 60,72 61,72 61,73 62,74 62,75 63,75 63,76" fill="none" stroke="#00a2ff" stroke-width="3" stroke-linecap="round" stroke-linejoin="round" opacity="0.95">
    <title>5355 f:1</title>
  </polyline>
  <polyline points="53,61 54,61 54,60 55,60 56,59 57,59 57,58 58,58 58,57 59,57 60,57 61,56 62,55 63,55 64,55 64,54 65,54 65,53 66,52 67,52 67,51 68,51 68,50 69,50 69,49 70,49 70,48 71,47 71,46 72,46 72,45 73,44 73,43 74,43 74,42 74,41 74,40 75,40 75,39 76,38 76,37 76,36 77,36 77,35 77,34 77,33 77,32 77,31 78,31 78,30 78,29 78,28 77,28 77,27 77,26 77,25" fill="none" stroke="#00ff7f" stroke-width="3" stroke-linecap="round" stroke-linejoin="round" opacity="0.95">
    <title>5218 i:1</title>
  </polyline>
  <polyline points="77,28 77,27 77,26 77,25 76,24 75,23 75,22 74,21 73,21 72,21 71,20 70,20 69,19 68,19 67,19 66,18 65,18 64,18 63,17 62,17 61,17 60,17 58,16 57,16 56,16 55,16 54,16 53,16 52,16 51,16 50,17 49,18 48,18 48,19 47,19 47,20 47,21 47,22 46,23 46,24 46,25 46,26" fill="none" stroke="#ff2d55" stroke-width="3" stroke-linecap="round" stroke-linejoin="round" opacity="0.95">
    <title>5243 d:1</title>
  </polyline>
</svg>
