<?xml version="1.0" encoding="UTF-8"?>
<svg xmlns="http://www.w3.org/2000/svg" width="56" height="69" viewBox="0 0 56 69">
  <title>particle img4-m28-p3 e:1 c:1 h:2</title>
  <metadata>{&quot;entityType&quot;:&quot;particle&quot;,&quot;entityId&quot;:&quot;img4-m28-p3&quot;,&quot;token&quot;:&quot;e:1 c:1 h:2&quot;,&quot;signature&quot;:&quot;e:1 c:1 h:2&quot;,&quot;imageName&quot;:&quot;page-004.jpg&quot;,&quot;imageId&quot;:4,&quot;bounds&quot;:{&quot;x&quot;:2262,&quot;y&quot;:2134,&quot;w&quot;:56,&quot;h&quot;:69},&quot;atoms&quot;:[{&quot;id&quot;:4977,&quot;token&quot;:&quot;e:1&quot;,&quot;particle_id&quot;:&quot;img4-m28-p3&quot;,&quot;molecule_id&quot;:&quot;img4-m28&quot;,&quot;atom_order&quot;:1},{&quot;id&quot;:4787,&quot;token&quot;:&quot;c:1&quot;,&quot;particle_id&quot;:&quot;img4-m28-p3&quot;,&quot;molecule_id&quot;:&quot;img4-m28&quot;,&quot;atom_order&quot;:2},{&quot;id&quot;:5349,&quot;token&quot;:&quot;h:2&quot;,&quot;particle_id&quot;:&quot;img4-m28-p3&quot;,&quot;molecule_id&quot;:&quot;img4-m28&quot;,&quot;atom_order&quot;:3}]}</metadata>
  <rect x="0" y="0" width="56" height="69" fill="#f8f0d8"/>
  <image href="file:///C:/Users/HHHES/AppData/Roaming/com.voynichlab.datasetcreator/images/1/aff30327-ced8-4ab4-8c9b-190205ebe022.jpg" x="-2262" y="-2134" width="2804" height="3797" opacity="0.92"/>
  <rect x="0.5" y="0.5" width="55" height="68" fill="none" stroke="#111827" stroke-width="1" opacity="0.35"/>
  <polyline points="31,49 31,50 30,50 30,51 29,51 28,51 28,52 27,52 26,52 25,52 24,52 23,52 22,52 21,52 21,51 20,51 19,51 18,51 18,50 17,50 16,50 16,49 16,48 16,47 16,46 16,45 16,44 16,43 17,43 17,42 17,41 17,40 18,40 18,39 18,38 19,38 19,37 19,36 20,36 21,36 21,35 22,35 22,34 23,34 24,34 24,33 25,33 26,33 27,33 27,32" fill="none" stroke="#f2e45c" stroke-width="3" stroke-linecap="round" stroke-linejoin="round" opacity="0.95">
    <title>4977 e:1</title>
  </polyline>
  <polyline points="35,32 35,31 36,31 37,30 38,29 39,28 39,27 40,27 40,26 40,25 40,24 40,23 40,22 40,21 40,20 39,20 39,19 38,18 37,18 37,17 36,17 35,16 34,16 33,16 32,16 31,16 30,16 29,16 28,16 27,17 26,17 25,17 25,18 24,18 24,19 23,19 23,20 23,21 22,21 22,22 22,23 22,24 22,25 22,26 22,27 23,27 23,28 23,29 24,29 24,30 25,30 25,31 26,31 26,32 27,32 27,33 28,33 29,33 30,33 31,33 32,33 33,33 34,33 34,32 35,32 35,31" fill="none" stroke="#8aff00" stroke-width="3" stroke-linecap="round" stroke-linejoin="round" opacity="0.95">
    <title>4787 c:1</title>
  </polyline>
  <polyline points="27,53 27,52 28,52 28,51 29,51 29,50 30,50 30,49 30,48 30,47 30,46 30,45 30,44 30,43 30,42 30,41 30,40 29,40 29,39 29,38 28,37 28,36 27,35 27,34 26,34 26,33 25,32 25,31 25,30 24,30 24,29 24,28 23,28 23,27 23,26 23,25 23,24 23,23 23,22 23,21 23,20 24,20 24,19 25,19 25,18 27,17 28,17" fill="none" stroke="#ff8c00" stroke-width="3" stroke-linecap="round" stroke-linejoin="round" opacity="0.95">
    <title>5349 h:2</title>
  </polyline>
</svg>
