<?xml version="1.0" encoding="UTF-8"?>
<svg xmlns="http://www.w3.org/2000/svg" width="60" height="75" viewBox="0 0 60 75">
  <title>particle img4-m16-p6 f:1 i:1 d:1</title>
  <metadata>{&quot;entityType&quot;:&quot;particle&quot;,&quot;entityId&quot;:&quot;img4-m16-p6&quot;,&quot;token&quot;:&quot;f:1 i:1 d:1&quot;,&quot;signature&quot;:&quot;f:1 i:1 d:1&quot;,&quot;imageName&quot;:&quot;page-004.jpg&quot;,&quot;imageId&quot;:4,&quot;bounds&quot;:{&quot;x&quot;:2220,&quot;y&quot;:2049,&quot;w&quot;:60,&quot;h&quot;:75},&quot;atoms&quot;:[{&quot;id&quot;:5342,&quot;token&quot;:&quot;f:1&quot;,&quot;particle_id&quot;:&quot;img4-m16-p6&quot;,&quot;molecule_id&quot;:&quot;img4-m16&quot;,&quot;atom_order&quot;:1},{&quot;id&quot;:5213,&quot;token&quot;:&quot;i:1&quot;,&quot;particle_id&quot;:&quot;img4-m16-p6&quot;,&quot;molecule_id&quot;:&quot;img4-m16&quot;,&quot;atom_order&quot;:2},{&quot;id&quot;:5239,&quot;token&quot;:&quot;d:1&quot;,&quot;particle_id&quot;:&quot;img4-m16-p6&quot;,&quot;molecule_id&quot;:&quot;img4-m16&quot;,&quot;atom_order&quot;:3}]}</metadata>
  <rect x="0" y="0" width="60" height="75" fill="#f8f0d8"/>
  <image href="file:///C:/Users/HHHES/AppData/Roaming/com.voynichlab.datasetcreator/images/1/aff30327-ced8-4ab4-8c9b-190205ebe022.jpg" x="-2220" y="-2049" width="2804" height="3797" opacity="0.92"/>
  <rect x="0.5" y="0.5" width="59" height="74" fill="none" stroke="#111827" stroke-width="1" opacity="0.35"/>
  <polyline points="16,38 16,39 16,40 17,40 17,41 17,42 18,42 18,43 19,44 19,45 20,45 20,46 21,47 21,48 22,48 22,49 23,49 23,50 24,50 24,51 24,52 25,52 25,53 25,54 26,54 26,55 27,55 27,56 28,57 28,58 29,58 29,59" fill="none" stroke="#00a2ff" stroke-width="3" stroke-linecap="round" stroke-linejoin="round" opacity="0.95">
    <title>5342 f:1</title>
  </polyline>
  <polyline points="17,42 18,42 18,41 19,41 20,41 21,41 22,41 23,41 25,41 26,41 28,41 29,41 30,41 30,40 31,40 32,40 33,39 34,39 35,38 36,38 37,37 37,36 38,36 39,35 40,34 41,34 41,33 42,32 43,31 43,30 43,29 44,28 44,27 44,26 44,25 44,24 44,23 44,22 44,21 43,21 42,21 42,20" fill="none" stroke="#00ff7f" stroke-width="3" stroke-linecap="round" stroke-linejoin="round" opacity="0.95">
    <title>5213 i:1</title>
  </polyline>
  <polyline points="43,21 42,21 42,20 42,19 41,19 41,18 40,18 39,17 38,17 37,17 36,16 35,16 34,16 33,16 32,16 31,16 30,16 29,16 27,16 26,16 25,16 24,16 24,17 23,17 22,17 21,17 21,18" fill="none" stroke="#ff2d55" stroke-width="3" stroke-linecap="round" stroke-linejoin="round" opacity="0.95">
    <title>5239 d:1</title>
  </polyline>
</svg>
