<?xml version="1.0" encoding="UTF-8"?>
<svg xmlns="http://www.w3.org/2000/svg" width="59" height="68" viewBox="0 0 59 68">
  <title>particle img4-m70-p1 e:1 c:1 h:2</title>
  <metadata>{&quot;entityType&quot;:&quot;particle&quot;,&quot;entityId&quot;:&quot;img4-m70-p1&quot;,&quot;token&quot;:&quot;e:1 c:1 h:2&quot;,&quot;signature&quot;:&quot;e:1 c:1 h:2&quot;,&quot;imageName&quot;:&quot;page-004.jpg&quot;,&quot;imageId&quot;:4,&quot;bounds&quot;:{&quot;x&quot;:2244,&quot;y&quot;:2611,&quot;w&quot;:59,&quot;h&quot;:68},&quot;atoms&quot;:[{&quot;id&quot;:5070,&quot;token&quot;:&quot;e:1&quot;,&quot;particle_id&quot;:&quot;img4-m70-p1&quot;,&quot;molecule_id&quot;:&quot;img4-m70&quot;,&quot;atom_order&quot;:1},{&quot;id&quot;:4872,&quot;token&quot;:&quot;c:1&quot;,&quot;particle_id&quot;:&quot;img4-m70-p1&quot;,&quot;molecule_id&quot;:&quot;img4-m70&quot;,&quot;atom_order&quot;:2},{&quot;id&quot;:5319,&quot;token&quot;:&quot;h:2&quot;,&quot;particle_id&quot;:&quot;img4-m70-p1&quot;,&quot;molecule_id&quot;:&quot;img4-m70&quot;,&quot;atom_order&quot;:3}]}</metadata>
  <rect x="0" y="0" width="59" height="68" fill="#f8f0d8"/>
  <image href="file:///C:/Users/HHHES/AppData/Roaming/com.voynichlab.datasetcreator/images/1/aff30327-ced8-4ab4-8c9b-190205ebe022.jpg" x="-2244" y="-2611" width="2804" height="3797" opacity="0.92"/>
  <rect x="0.5" y="0.5" width="58" height="67" fill="none" stroke="#111827" stroke-width="1" opacity="0.35"/>
  <polyline points="31,49 31,50 30,50 30,51 29,51 28,51 28,52 27,52 26,52 25,52 24,52 23,52 22,52 21,52 21,51 20,51 19,51 18,51 18,50 17,50 16,50 16,49 16,48 16,47 16,46 16,45 16,44 16,43 17,43 17,42 17,41 17,40 18,40 18,39 18,38 19,38 19,37 19,36 20,36 21,36 21,35 22,35 22,34 23,34 24,34 24,33 25,33 26,33 27,33 27,32" fill="none" stroke="#f2e45c" stroke-width="3" stroke-linecap="round" stroke-linejoin="round" opacity="0.95">
    <title>5070 e:1</title>
  </polyline>
  <polyline points="33,30 34,30 35,30 36,30 37,30 38,29 39,29 39,28 40,28 40,27 41,27 41,26 42,26 42,25 42,24 43,23 43,22 43,21 43,20 43,19 42,19 42,18 42,17 41,17 40,17 39,17 38,17 37,17 36,17 35,17 34,17 33,17 32,17 31,17 30,17 29,17 29,18 28,18 27,19 26,20 25,20 25,21 25,22 24,22 24,23 24,24 24,25 24,26 24,27 25,28 26,29 27,30 28,30 29,30 30,30 31,31 32,31 33,31 34,31 34,30" fill="none" stroke="#8aff00" stroke-width="3" stroke-linecap="round" stroke-linejoin="round" opacity="0.95">
    <title>4872 c:1</title>
  </polyline>
  <polyline points="28,16 28,17 29,17 28,17 27,18 26,19 26,20 26,21 26,22 26,23 25,24 25,25 25,26 25,27 25,28 25,29 26,30 27,31 27,32 28,32 28,33 28,34 29,34 30,35 31,36 31,37 32,37 32,38 32,39 32,40 33,40 33,41 33,42 33,43 33,44 32,44 32,45 32,46 32,47 31,47 31,48 31,49 31,50 30,50 30,51 29,51" fill="none" stroke="#ff8c00" stroke-width="3" stroke-linecap="round" stroke-linejoin="round" opacity="0.95">
    <title>5319 h:2</title>
  </polyline>
</svg>
