<?xml version="1.0" encoding="UTF-8"?>
<svg xmlns="http://www.w3.org/2000/svg" width="79" height="54" viewBox="0 0 79 54">
  <title>particle img4-m41-p1 e:1 g:1 e:1</title>
  <metadata>{&quot;entityType&quot;:&quot;particle&quot;,&quot;entityId&quot;:&quot;img4-m41-p1&quot;,&quot;token&quot;:&quot;e:1 g:1 e:1&quot;,&quot;signature&quot;:&quot;e:1 g:1 e:1&quot;,&quot;imageName&quot;:&quot;page-004.jpg&quot;,&quot;imageId&quot;:4,&quot;bounds&quot;:{&quot;x&quot;:733,&quot;y&quot;:2404,&quot;w&quot;:79,&quot;h&quot;:54},&quot;atoms&quot;:[{&quot;id&quot;:5043,&quot;token&quot;:&quot;e:1&quot;,&quot;particle_id&quot;:&quot;img4-m41-p1&quot;,&quot;molecule_id&quot;:&quot;img4-m41&quot;,&quot;atom_order&quot;:1},{&quot;id&quot;:5170,&quot;token&quot;:&quot;g:1&quot;,&quot;particle_id&quot;:&quot;img4-m41-p1&quot;,&quot;molecule_id&quot;:&quot;img4-m41&quot;,&quot;atom_order&quot;:2},{&quot;id&quot;:5042,&quot;token&quot;:&quot;e:1&quot;,&quot;particle_id&quot;:&quot;img4-m41-p1&quot;,&quot;molecule_id&quot;:&quot;img4-m41&quot;,&quot;atom_order&quot;:3}]}</metadata>
  <rect x="0" y="0" width="79" height="54" fill="#f8f0d8"/>
  <image href="file:///C:/Users/HHHES/AppData/Roaming/com.voynichlab.datasetcreator/images/1/aff30327-ced8-4ab4-8c9b-190205ebe022.jpg" x="-733" y="-2404" width="2804" height="3797" opacity="0.92"/>
  <rect x="0.5" y="0.5" width="78" height="53" fill="none" stroke="#111827" stroke-width="1" opacity="0.35"/>
  <polyline points="31,33 31,34 30,34 30,35 29,35 28,35 28,36 27,36 26,36 25,36 24,36 23,36 22,36 21,36 21,35 20,35 19,35 18,35 18,34 17,34 16,34 16,33 16,32 16,31 16,30 16,29 16,28 16,27 17,27 17,26 17,25 17,24 18,24 18,23 18,22 19,22 19,21 19,20 20,20 21,20 21,19 22,19 22,18 23,18 24,18 24,17 25,17 26,17 27,17 27,16" fill="none" stroke="#f2e45c" stroke-width="3" stroke-linecap="round" stroke-linejoin="round" opacity="0.95">
    <title>5043 e:1</title>
  </polyline>
  <polyline points="24,17 25,17 26,17 27,17 29,17 30,17 32,17 33,17 35,17 37,17 38,17 40,17 41,18 42,18 43,18 45,18 47,18 48,18 50,18 51,18 52,18 53,18 53,19 54,19 55,19 56,19 57,19 58,19 59,19" fill="none" stroke="#7c3cff" stroke-width="3" stroke-linecap="round" stroke-linejoin="round" opacity="0.95">
    <title>5170 g:1</title>
  </polyline>
  <polyline points="63,35 63,36 62,36 62,37 61,37 60,37 60,38 59,38 58,38 57,38 56,38 55,38 54,38 53,38 53,37 52,37 51,37 50,37 50,36 49,36 48,36 48,35 48,34 48,33 48,32 48,31 48,30 48,29 49,29 49,28 49,27 49,26 50,26 50,25 50,24 51,24 51,23 51,22 52,22 53,22 53,21 54,21 54,20 55,20 56,20 56,19 57,19 58,19 59,19 59,18" fill="none" stroke="#f2e45c" stroke-width="3" stroke-linecap="round" stroke-linejoin="round" opacity="0.95">
    <title>5042 e:1</title>
  </polyline>
</svg>
