<?xml version="1.0" encoding="UTF-8"?>
<svg xmlns="http://www.w3.org/2000/svg" width="61" height="74" viewBox="0 0 61 74">
  <title>particle img4-m63-p6 e:1 c:1 h:2</title>
  <metadata>{&quot;entityType&quot;:&quot;particle&quot;,&quot;entityId&quot;:&quot;img4-m63-p6&quot;,&quot;token&quot;:&quot;e:1 c:1 h:2&quot;,&quot;signature&quot;:&quot;e:1 c:1 h:2&quot;,&quot;imageName&quot;:&quot;page-004.jpg&quot;,&quot;imageId&quot;:4,&quot;bounds&quot;:{&quot;x&quot;:2390,&quot;y&quot;:2540,&quot;w&quot;:61,&quot;h&quot;:74},&quot;atoms&quot;:[{&quot;id&quot;:5067,&quot;token&quot;:&quot;e:1&quot;,&quot;particle_id&quot;:&quot;img4-m63-p6&quot;,&quot;molecule_id&quot;:&quot;img4-m63&quot;,&quot;atom_order&quot;:1},{&quot;id&quot;:4865,&quot;token&quot;:&quot;c:1&quot;,&quot;particle_id&quot;:&quot;img4-m63-p6&quot;,&quot;molecule_id&quot;:&quot;img4-m63&quot;,&quot;atom_order&quot;:2},{&quot;id&quot;:5318,&quot;token&quot;:&quot;h:2&quot;,&quot;particle_id&quot;:&quot;img4-m63-p6&quot;,&quot;molecule_id&quot;:&quot;img4-m63&quot;,&quot;atom_order&quot;:3}]}</metadata>
  <rect x="0" y="0" width="61" height="74" fill="#f8f0d8"/>
  <image href="file:///C:/Users/HHHES/AppData/Roaming/com.voynichlab.datasetcreator/images/1/aff30327-ced8-4ab4-8c9b-190205ebe022.jpg" x="-2390" y="-2540" width="2804" height="3797" opacity="0.92"/>
  <rect x="0.5" y="0.5" width="60" height="73" fill="none" stroke="#111827" stroke-width="1" opacity="0.35"/>
  <polyline points="31,55 31,56 30,56 30,57 29,57 28,57 28,58 27,58 26,58 25,58 24,58 23,58 22,58 21,58 21,57 20,57 19,57 18,57 18,56 17,56 16,56 16,55 16,54 16,53 16,52 16,51 16,50 16,49 17,49 17,48 17,47 17,46 18,46 18,45 18,44 19,44 19,43 19,42 20,42 21,42 21,41 22,41 22,40 23,40 24,40 24,39 25,39 26,39 27,39 27,38" fill="none" stroke="#f2e45c" stroke-width="3" stroke-linecap="round" stroke-linejoin="round" opacity="0.95">
    <title>5067 e:1</title>
  </polyline>
  <polyline points="35,35 36,35 37,34 38,34 39,33 40,33 40,32 41,31 42,31 42,30 43,30 43,29 44,29 44,28 45,27 45,26 45,25 45,24 45,23 44,23 44,22 44,21 43,21 43,20 42,20 42,19 41,19 40,19 40,18 39,18 38,18 37,17 36,17 35,17 34,17 34,18 33,18 32,18 32,19 31,19 30,20 30,21 29,21 29,22 29,23 29,24 29,25 29,26 29,27 29,28 29,29 30,29 30,30 30,31 30,32 31,32 31,33 32,33 32,34 33,34 34,34 35,35 36,35" fill="none" stroke="#8aff00" stroke-width="3" stroke-linecap="round" stroke-linejoin="round" opacity="0.95">
    <title>4865 c:1</title>
  </polyline>
  <polyline points="34,16 33,16 32,17 31,17 31,18 30,18 29,19 29,20 28,21 28,22 28,23 28,24 28,25 28,26 29,27 29,28 29,29 30,30 31,30 32,31 33,32 33,33 34,34 34,35 35,36 35,37 36,38 36,39 36,40 37,41 37,43 37,44 37,45 37,46 37,47 37,48 36,48 36,49 36,50 35,50 35,51 34,51 34,52 33,52 33,53 32,54 31,54 30,55 28,55 27,55 26,55 25,55 25,56" fill="none" stroke="#ff8c00" stroke-width="3" stroke-linecap="round" stroke-linejoin="round" opacity="0.95">
    <title>5318 h:2</title>
  </polyline>
</svg>
