<?xml version="1.0" encoding="UTF-8"?>
<svg xmlns="http://www.w3.org/2000/svg" width="76" height="88" viewBox="0 0 76 88">
  <title>particle img4-m36-p3 f:1 i:1 d:1</title>
  <metadata>{&quot;entityType&quot;:&quot;particle&quot;,&quot;entityId&quot;:&quot;img4-m36-p3&quot;,&quot;token&quot;:&quot;f:1 i:1 d:1&quot;,&quot;signature&quot;:&quot;f:1 i:1 d:1&quot;,&quot;imageName&quot;:&quot;page-004.jpg&quot;,&quot;imageId&quot;:4,&quot;bounds&quot;:{&quot;x&quot;:1580,&quot;y&quot;:2340,&quot;w&quot;:76,&quot;h&quot;:88},&quot;atoms&quot;:[{&quot;id&quot;:5364,&quot;token&quot;:&quot;f:1&quot;,&quot;particle_id&quot;:&quot;img4-m36-p3&quot;,&quot;molecule_id&quot;:&quot;img4-m36&quot;,&quot;atom_order&quot;:1},{&quot;id&quot;:5220,&quot;token&quot;:&quot;i:1&quot;,&quot;particle_id&quot;:&quot;img4-m36-p3&quot;,&quot;molecule_id&quot;:&quot;img4-m36&quot;,&quot;atom_order&quot;:2},{&quot;id&quot;:5245,&quot;token&quot;:&quot;d:1&quot;,&quot;particle_id&quot;:&quot;img4-m36-p3&quot;,&quot;molecule_id&quot;:&quot;img4-m36&quot;,&quot;atom_order&quot;:3}]}</metadata>
  <rect x="0" y="0" width="76" height="88" fill="#f8f0d8"/>
  <image href="file:///C:/Users/HHHES/AppData/Roaming/com.voynichlab.datasetcreator/images/1/aff30327-ced8-4ab4-8c9b-190205ebe022.jpg" x="-1580" y="-2340" width="2804" height="3797" opacity="0.92"/>
  <rect x="0.5" y="0.5" width="75" height="87" fill="none" stroke="#111827" stroke-width="1" opacity="0.35"/>
  <polyline points="38,51 38,52 38,53 39,53 39,54 39,55 40,55 40,56 41,57 41,58 42,58 42,59 43,60 43,61 44,61 44,62 45,62 45,63 46,63 46,64 46,65 47,65 47,66 47,67 48,67 48,68 49,68 49,69 50,70 50,71 51,71 51,72" fill="none" stroke="#00a2ff" stroke-width="3" stroke-linecap="round" stroke-linejoin="round" opacity="0.95">
    <title>5364 f:1</title>
  </polyline>
  <polyline points="37,53 38,53 39,53 40,53 42,53 43,53 44,53 45,53 46,53 46,52 47,51 48,51 49,50 49,49 50,49 50,48 51,48 51,47 52,47 52,46 53,45 53,44 53,43 54,43 54,42 55,42 55,41 56,40 56,39 56,38 56,37 57,37 57,36 57,35 57,34 58,33 58,32 58,31 58,30 58,29 58,28 58,27 58,26 58,25 58,24 58,23 58,22 58,21" fill="none" stroke="#00ff7f" stroke-width="3" stroke-linecap="round" stroke-linejoin="round" opacity="0.95">
    <title>5220 i:1</title>
  </polyline>
  <polyline points="16,28 17,28 17,27 18,27 19,27 19,26 20,26 21,25 22,25 23,24 24,23 25,23 26,22 27,21 28,21 28,20 29,20 29,19 30,19 31,19 32,18 33,18 34,18 35,17 36,17 37,17 38,17 38,16 39,16 40,16 41,16 42,16 43,16 45,16 46,16 47,16 48,16 49,16 50,17 51,17 52,17 53,18 54,18 55,18 55,19 56,20 57,20 57,21 59,21 59,22 59,23 60,23" fill="none" stroke="#ff2d55" stroke-width="3" stroke-linecap="round" stroke-linejoin="round" opacity="0.95">
    <title>5245 d:1</title>
  </polyline>
</svg>
