<?xml version="1.0" encoding="UTF-8"?>
<svg xmlns="http://www.w3.org/2000/svg" width="72" height="115" viewBox="0 0 72 115">
  <title>particle img4-m74-p4 a:1 b:1 c:1 a:1</title>
  <metadata>{&quot;entityType&quot;:&quot;particle&quot;,&quot;entityId&quot;:&quot;img4-m74-p4&quot;,&quot;token&quot;:&quot;a:1 b:1 c:1 a:1&quot;,&quot;signature&quot;:&quot;a:1 b:1 c:1 a:1&quot;,&quot;imageName&quot;:&quot;page-004.jpg&quot;,&quot;imageId&quot;:4,&quot;bounds&quot;:{&quot;x&quot;:1225,&quot;y&quot;:2611,&quot;w&quot;:72,&quot;h&quot;:115},&quot;atoms&quot;:[{&quot;id&quot;:4715,&quot;token&quot;:&quot;a:1&quot;,&quot;particle_id&quot;:&quot;img4-m74-p4&quot;,&quot;molecule_id&quot;:&quot;img4-m74&quot;,&quot;atom_order&quot;:1},{&quot;id&quot;:4756,&quot;token&quot;:&quot;b:1&quot;,&quot;particle_id&quot;:&quot;img4-m74-p4&quot;,&quot;molecule_id&quot;:&quot;img4-m74&quot;,&quot;atom_order&quot;:2},{&quot;id&quot;:4904,&quot;token&quot;:&quot;c:1&quot;,&quot;particle_id&quot;:&quot;img4-m74-p4&quot;,&quot;molecule_id&quot;:&quot;img4-m74&quot;,&quot;atom_order&quot;:3},{&quot;id&quot;:4716,&quot;token&quot;:&quot;a:1&quot;,&quot;particle_id&quot;:&quot;img4-m74-p4&quot;,&quot;molecule_id&quot;:&quot;img4-m74&quot;,&quot;atom_order&quot;:4}]}</metadata>
  <rect x="0" y="0" width="72" height="115" fill="#f8f0d8"/>
  <image href="file:///C:/Users/HHHES/AppData/Roaming/com.voynichlab.datasetcreator/images/1/aff30327-ced8-4ab4-8c9b-190205ebe022.jpg" x="-1225" y="-2611" width="2804" height="3797" opacity="0.92"/>
  <rect x="0.5" y="0.5" width="71" height="114" fill="none" stroke="#111827" stroke-width="1" opacity="0.35"/>
  <polyline points="16,93 16,92 17,91 17,90 17,89 17,88 17,87 18,86 18,85 18,84 18,83 18,82 18,81 17,81 17,80 17,79 17,78 17,77 17,76 17,75 17,74 17,73 17,72 17,71 17,70 17,69 17,68 17,67 17,66 17,65 17,64 17,63 17,62 17,61 17,60 18,59 18,58 18,57 18,56 18,55 18,54 19,53 19,52 19,51 19,50 19,49 19,48 19,47 19,46 19,45 19,44 19,43 19,42 20,41 20,40 20,39 20,38 20,37 20,36 20,35 20,34 20,33 20,32 20,31 20,30 20,29 20,28 20,27 20,26 20,25 20,24 20,23 20,22 20,21 20,20 20,19 20,18 20,17 20,16" fill="none" stroke="#00f0b5" stroke-width="3" stroke-linecap="round" stroke-linejoin="round" opacity="0.95">
    <title>4715 a:1</title>
  </polyline>
  <polyline points="18,19 18,20 18,21 18,22 18,23 18,24 18,25 18,26 18,27 18,28 18,29 18,30 18,31 18,32 18,33 19,33 20,34 20,35 21,35 21,36 22,36 22,37 23,37 24,37 24,38 25,38 26,39 28,39 31,40 32,41 33,41 34,41 35,41 36,41 37,41 38,41 39,41 40,41 41,40 42,40 43,40 43,39 44,39 45,39 45,38 46,38 47,38 47,37 48,37 49,36 50,36 50,35 51,35 51,34 52,33 53,32 54,31 54,30 54,29 55,28 55,27" fill="none" stroke="#2f7df6" stroke-width="3" stroke-linecap="round" stroke-linejoin="round" opacity="0.95">
    <title>4756 b:1</title>
  </polyline>
  <polyline points="54,30 55,29 55,28 56,28 56,27 56,26 56,25 56,24 55,23 55,22 54,22 54,21 53,21 52,20 51,20 51,19 50,19 49,19 47,20 46,20 45,20 44,20 43,20 42,21 41,21 40,22 39,23 38,24 38,25 37,25 37,26 36,27 36,28 35,29 35,30 35,31 35,32 35,33 35,34 36,35 36,36 36,37 37,38 38,39 39,40 40,40 41,40 42,40 43,40 44,40 45,40 46,40 46,39 47,39 48,38 49,38 49,37 50,36 51,35 52,35 52,34 52,33 53,33 53,32 54,31 54,30 54,29 55,28" fill="none" stroke="#8aff00" stroke-width="3" stroke-linecap="round" stroke-linejoin="round" opacity="0.95">
    <title>4904 c:1</title>
  </polyline>
  <polyline points="34,99 34,98 35,97 35,96 35,95 35,94 35,93 36,92 36,91 36,90 36,89 36,88 36,87 35,87 35,86 35,85 35,84 35,83 35,82 35,81 35,80 35,79 35,78 35,77 35,76 35,75 35,74 35,73 35,72 35,71 35,70 35,69 35,68 35,67 35,66 36,65 36,64 36,63 36,62 36,61 36,60 37,59 37,58 37,57 37,56 37,55 37,54 37,53 37,52 37,51 37,50 37,49 37,48 38,47 38,46 38,45 38,44 38,43 38,42 38,41 38,40 38,39 38,38 38,37 38,36 38,35 38,34 38,33 38,32 38,31 38,30 38,29 38,28 38,27 38,26 38,25 38,24 38,23 38,22" fill="none" stroke="#00f0b5" stroke-width="3" stroke-linecap="round" stroke-linejoin="round" opacity="0.95">
    <title>4716 a:1</title>
  </polyline>
</svg>
