<?xml version="1.0" encoding="UTF-8"?>
<svg xmlns="http://www.w3.org/2000/svg" width="55" height="83" viewBox="0 0 55 83">
  <title>particle img4-m86-p6 e:1 h:1</title>
  <metadata>{&quot;entityType&quot;:&quot;particle&quot;,&quot;entityId&quot;:&quot;img4-m86-p6&quot;,&quot;token&quot;:&quot;e:1 h:1&quot;,&quot;signature&quot;:&quot;e:1 h:1&quot;,&quot;imageName&quot;:&quot;page-004.jpg&quot;,&quot;imageId&quot;:4,&quot;bounds&quot;:{&quot;x&quot;:998,&quot;y&quot;:2725,&quot;w&quot;:55,&quot;h&quot;:83},&quot;atoms&quot;:[{&quot;id&quot;:5132,&quot;token&quot;:&quot;e:1&quot;,&quot;particle_id&quot;:&quot;img4-m86-p6&quot;,&quot;molecule_id&quot;:&quot;img4-m86&quot;,&quot;atom_order&quot;:1},{&quot;id&quot;:5296,&quot;token&quot;:&quot;h:1&quot;,&quot;particle_id&quot;:&quot;img4-m86-p6&quot;,&quot;molecule_id&quot;:&quot;img4-m86&quot;,&quot;atom_order&quot;:2}]}</metadata>
  <rect x="0" y="0" width="55" height="83" fill="#f8f0d8"/>
  <image href="file:///C:/Users/HHHES/AppData/Roaming/com.voynichlab.datasetcreator/images/1/aff30327-ced8-4ab4-8c9b-190205ebe022.jpg" x="-998" y="-2725" width="2804" height="3797" opacity="0.92"/>
  <rect x="0.5" y="0.5" width="54" height="82" fill="none" stroke="#111827" stroke-width="1" opacity="0.35"/>
  <polyline points="31,33 31,34 30,34 30,35 29,35 28,35 28,36 27,36 26,36 25,36 24,36 23,36 22,36 21,36 21,35 20,35 19,35 18,35 18,34 17,34 16,34 16,33 16,32 16,31 16,30 16,29 16,28 16,27 17,27 17,26 17,25 17,24 18,24 18,23 18,22 19,22 19,21 19,20 20,20 21,20 21,19 22,19 22,18 23,18 24,18 24,17 25,17 26,17 27,17 27,16" fill="none" stroke="#f2e45c" stroke-width="3" stroke-linecap="round" stroke-linejoin="round" opacity="0.95">
    <title>5132 e:1</title>
  </polyline>
  <polyline points="26,16 27,16 27,17 28,17 29,18 30,18 30,19 31,19 32,20 33,20 33,21 34,22 35,22 36,23 37,24 38,26 38,27 38,28 38,29 39,31 39,32 39,33 39,34 39,35 39,36 39,37 39,38 39,39 39,40 38,40 38,42 38,43 38,45 37,47 36,48 36,50 35,51 35,52 34,53 33,55 32,56 30,58 29,60 28,61 27,62 26,64 25,65 24,66 23,66 23,67 23,66" fill="none" stroke="#ff8c00" stroke-width="3" stroke-linecap="round" stroke-linejoin="round" opacity="0.95">
    <title>5296 h:1</title>
  </polyline>
</svg>
