<?xml version="1.0" encoding="UTF-8"?>
<svg xmlns="http://www.w3.org/2000/svg" width="85" height="52" viewBox="0 0 85 52">
  <title>particle img4-m63-p4 e:1 g:1 e:1</title>
  <metadata>{&quot;entityType&quot;:&quot;particle&quot;,&quot;entityId&quot;:&quot;img4-m63-p4&quot;,&quot;token&quot;:&quot;e:1 g:1 e:1&quot;,&quot;signature&quot;:&quot;e:1 g:1 e:1&quot;,&quot;imageName&quot;:&quot;page-004.jpg&quot;,&quot;imageId&quot;:4,&quot;bounds&quot;:{&quot;x&quot;:2285,&quot;y&quot;:2561,&quot;w&quot;:85,&quot;h&quot;:52},&quot;atoms&quot;:[{&quot;id&quot;:5065,&quot;token&quot;:&quot;e:1&quot;,&quot;particle_id&quot;:&quot;img4-m63-p4&quot;,&quot;molecule_id&quot;:&quot;img4-m63&quot;,&quot;atom_order&quot;:1},{&quot;id&quot;:5176,&quot;token&quot;:&quot;g:1&quot;,&quot;particle_id&quot;:&quot;img4-m63-p4&quot;,&quot;molecule_id&quot;:&quot;img4-m63&quot;,&quot;atom_order&quot;:2},{&quot;id&quot;:5066,&quot;token&quot;:&quot;e:1&quot;,&quot;particle_id&quot;:&quot;img4-m63-p4&quot;,&quot;molecule_id&quot;:&quot;img4-m63&quot;,&quot;atom_order&quot;:3}]}</metadata>
  <rect x="0" y="0" width="85" height="52" fill="#f8f0d8"/>
  <image href="file:///C:/Users/HHHES/AppData/Roaming/com.voynichlab.datasetcreator/images/1/aff30327-ced8-4ab4-8c9b-190205ebe022.jpg" x="-2285" y="-2561" width="2804" height="3797" opacity="0.92"/>
  <rect x="0.5" y="0.5" width="84" height="51" fill="none" stroke="#111827" stroke-width="1" opacity="0.35"/>
  <polyline points="31,33 31,34 30,34 30,35 29,35 28,35 28,36 27,36 26,36 25,36 24,36 23,36 22,36 21,36 21,35 20,35 19,35 18,35 18,34 17,34 16,34 16,33 16,32 16,31 16,30 16,29 16,28 16,27 17,27 17,26 17,25 17,24 18,24 18,23 18,22 19,22 19,21 19,20 20,20 21,20 21,19 22,19 22,18 23,18 24,18 24,17 25,17 26,17 27,17 27,16" fill="none" stroke="#f2e45c" stroke-width="3" stroke-linecap="round" stroke-linejoin="round" opacity="0.95">
    <title>5065 e:1</title>
  </polyline>
  <polyline points="25,16 26,16 27,16 28,16 30,16 31,16 33,16 34,17 35,17 36,17 38,17 39,16 41,16 42,16 43,16 45,17 46,17 48,17 49,17 50,17 51,17 52,17 53,17 54,17 55,17 56,17 57,17 58,17 59,17 60,17 61,17 62,17 63,17 64,17" fill="none" stroke="#7c3cff" stroke-width="3" stroke-linecap="round" stroke-linejoin="round" opacity="0.95">
    <title>5176 g:1</title>
  </polyline>
  <polyline points="69,33 69,34 68,34 68,35 67,35 66,35 66,36 65,36 64,36 63,36 62,36 61,36 60,36 59,36 59,35 58,35 57,35 56,35 56,34 55,34 54,34 54,33 54,32 54,31 54,30 54,29 54,28 54,27 55,27 55,26 55,25 55,24 56,24 56,23 56,22 57,22 57,21 57,20 58,20 59,20 59,19 60,19 60,18 61,18 62,18 62,17 63,17 64,17 65,17 65,16" fill="none" stroke="#f2e45c" stroke-width="3" stroke-linecap="round" stroke-linejoin="round" opacity="0.95">
    <title>5066 e:1</title>
  </polyline>
</svg>
