<?xml version="1.0" encoding="UTF-8"?>
<svg xmlns="http://www.w3.org/2000/svg" width="66" height="83" viewBox="0 0 66 83">
  <title>particle img4-m54-p5 e:1 i:1 d:1</title>
  <metadata>{&quot;entityType&quot;:&quot;particle&quot;,&quot;entityId&quot;:&quot;img4-m54-p5&quot;,&quot;token&quot;:&quot;e:1 i:1 d:1&quot;,&quot;signature&quot;:&quot;e:1 i:1 d:1&quot;,&quot;imageName&quot;:&quot;page-004.jpg&quot;,&quot;imageId&quot;:4,&quot;bounds&quot;:{&quot;x&quot;:839,&quot;y&quot;:2461,&quot;w&quot;:66,&quot;h&quot;:83},&quot;atoms&quot;:[{&quot;id&quot;:5051,&quot;token&quot;:&quot;e:1&quot;,&quot;particle_id&quot;:&quot;img4-m54-p5&quot;,&quot;molecule_id&quot;:&quot;img4-m54&quot;,&quot;atom_order&quot;:1},{&quot;id&quot;:5222,&quot;token&quot;:&quot;i:1&quot;,&quot;particle_id&quot;:&quot;img4-m54-p5&quot;,&quot;molecule_id&quot;:&quot;img4-m54&quot;,&quot;atom_order&quot;:2},{&quot;id&quot;:5247,&quot;token&quot;:&quot;d:1&quot;,&quot;particle_id&quot;:&quot;img4-m54-p5&quot;,&quot;molecule_id&quot;:&quot;img4-m54&quot;,&quot;atom_order&quot;:3}]}</metadata>
  <rect x="0" y="0" width="66" height="83" fill="#f8f0d8"/>
  <image href="file:///C:/Users/HHHES/AppData/Roaming/com.voynichlab.datasetcreator/images/1/aff30327-ced8-4ab4-8c9b-190205ebe022.jpg" x="-839" y="-2461" width="2804" height="3797" opacity="0.92"/>
  <rect x="0.5" y="0.5" width="65" height="82" fill="none" stroke="#111827" stroke-width="1" opacity="0.35"/>
  <polyline points="40,64 40,65 39,65 39,66 38,66 37,66 37,67 36,67 35,67 34,67 33,67 32,67 31,67 30,67 30,66 29,66 28,66 27,66 27,65 26,65 25,65 25,64 25,63 25,62 25,61 25,60 25,59 25,58 26,58 26,57 26,56 26,55 27,55 27,54 27,53 28,53 28,52 28,51 29,51 30,51 30,50 31,50 31,49 32,49 33,49 33,48 34,48 35,48 36,48 36,47" fill="none" stroke="#f2e45c" stroke-width="3" stroke-linecap="round" stroke-linejoin="round" opacity="0.95">
    <title>5051 e:1</title>
  </polyline>
  <polyline points="35,48 36,48 36,47 37,47 38,47 39,46 40,45 41,45 41,44 42,44 43,43 44,42 45,41 46,41 46,40 47,40 47,39 47,38 48,38 48,37 48,36 49,36 49,35 49,34 49,33 49,32 50,31 50,30 49,29 49,28 49,27 49,26 48,25 48,24 48,23 47,22 47,21 46,21 45,21" fill="none" stroke="#00ff7f" stroke-width="3" stroke-linecap="round" stroke-linejoin="round" opacity="0.95">
    <title>5222 i:1</title>
  </polyline>
  <polyline points="16,31 16,30 17,29 17,28 17,27 18,26 18,25 19,24 19,23 20,23 21,22 22,21 23,21 24,20 25,20 25,19 26,19 27,19 28,18 29,18 30,18 31,17 32,17 33,16 34,16 35,16 36,16 38,16 39,17 42,18 44,19 46,19 46,20 47,20 48,20 48,21 49,21 49,22" fill="none" stroke="#ff2d55" stroke-width="3" stroke-linecap="round" stroke-linejoin="round" opacity="0.95">
    <title>5247 d:1</title>
  </polyline>
</svg>
