<?xml version="1.0" encoding="UTF-8"?>
<svg xmlns="http://www.w3.org/2000/svg" width="116" height="106" viewBox="0 0 116 106">
  <title>particle img4-m37-p1 e:1 a:1 m:1 c:1 a:1 g:1 e:1</title>
  <metadata>{&quot;entityType&quot;:&quot;particle&quot;,&quot;entityId&quot;:&quot;img4-m37-p1&quot;,&quot;token&quot;:&quot;e:1 a:1 m:1 c:1 a:1 g:1 e:1&quot;,&quot;signature&quot;:&quot;e:1 a:1 m:1 c:1 a:1 g:1 e:1&quot;,&quot;imageName&quot;:&quot;page-004.jpg&quot;,&quot;imageId&quot;:4,&quot;bounds&quot;:{&quot;x&quot;:894,&quot;y&quot;:2361,&quot;w&quot;:116,&quot;h&quot;:106},&quot;atoms&quot;:[{&quot;id&quot;:5041,&quot;token&quot;:&quot;e:1&quot;,&quot;particle_id&quot;:&quot;img4-m37-p1&quot;,&quot;molecule_id&quot;:&quot;img4-m37&quot;,&quot;atom_order&quot;:1},{&quot;id&quot;:4699,&quot;token&quot;:&quot;a:1&quot;,&quot;particle_id&quot;:&quot;img4-m37-p1&quot;,&quot;molecule_id&quot;:&quot;img4-m37&quot;,&quot;atom_order&quot;:2},{&quot;id&quot;:5462,&quot;token&quot;:&quot;m:1&quot;,&quot;particle_id&quot;:&quot;img4-m37-p1&quot;,&quot;molecule_id&quot;:&quot;img4-m37&quot;,&quot;atom_order&quot;:3},{&quot;id&quot;:4839,&quot;token&quot;:&quot;c:1&quot;,&quot;particle_id&quot;:&quot;img4-m37-p1&quot;,&quot;molecule_id&quot;:&quot;img4-m37&quot;,&quot;atom_order&quot;:4},{&quot;id&quot;:4698,&quot;token&quot;:&quot;a:1&quot;,&quot;particle_id&quot;:&quot;img4-m37-p1&quot;,&quot;molecule_id&quot;:&quot;img4-m37&quot;,&quot;atom_order&quot;:5},{&quot;id&quot;:5169,&quot;token&quot;:&quot;g:1&quot;,&quot;particle_id&quot;:&quot;img4-m37-p1&quot;,&quot;molecule_id&quot;:&quot;img4-m37&quot;,&quot;atom_order&quot;:6},{&quot;id&quot;:5040,&quot;token&quot;:&quot;e:1&quot;,&quot;particle_id&quot;:&quot;img4-m37-p1&quot;,&quot;molecule_id&quot;:&quot;img4-m37&quot;,&quot;atom_order&quot;:7}]}</metadata>
  <rect x="0" y="0" width="116" height="106" fill="#f8f0d8"/>
  <image href="file:///C:/Users/HHHES/AppData/Roaming/com.voynichlab.datasetcreator/images/1/aff30327-ced8-4ab4-8c9b-190205ebe022.jpg" x="-894" y="-2361" width="2804" height="3797" opacity="0.92"/>
  <rect x="0.5" y="0.5" width="115" height="105" fill="none" stroke="#111827" stroke-width="1" opacity="0.35"/>
  <polyline points="31,84 31,85 30,85 30,86 29,86 28,86 28,87 27,87 26,87 25,87 24,87 23,87 22,87 21,87 21,86 20,86 19,86 18,86 18,85 17,85 16,85 16,84 16,83 16,82 16,81 16,80 16,79 16,78 17,78 17,77 17,76 17,75 18,75 18,74 18,73 19,73 19,72 19,71 20,71 21,71 21,70 22,70 22,69 23,69 24,69 24,68 25,68 26,68 27,68 27,67" fill="none" stroke="#f2e45c" stroke-width="3" stroke-linecap="round" stroke-linejoin="round" opacity="0.95">
    <title>5041 e:1</title>
  </polyline>
  <polyline points="42,46 42,47 42,48 42,49 43,50 43,51 43,52 43,53 43,54 43,55 43,56 43,57 43,58 43,59 43,60 43,61 43,62 42,63 42,64 42,65 42,66 42,67 42,68 42,69 42,70 42,71 42,72 42,73 41,73 41,74 41,75 41,76 41,77 41,78 41,79 41,80 41,81 41,82 41,83 41,84 40,84 40,85 40,86" fill="none" stroke="#00f0b5" stroke-width="3" stroke-linecap="round" stroke-linejoin="round" opacity="0.95">
    <title>4699 a:1</title>
  </polyline>
  <polyline points="42,48 42,47 42,46 42,45 42,44 42,43 42,42 42,41 42,40 42,39 42,38 42,37 42,36 42,35 42,34 42,33 42,32 43,32 43,31 43,30 43,29 43,28 43,27 43,26 43,25 43,24 43,23 43,22 43,21 43,20 43,19 43,18 43,17 43,16 42,16 42,17 41,17 41,18 40,18 40,19 39,19 38,20 37,21 36,22 35,23 34,23 34,24 33,25 32,25 32,26 31,26 31,27 30,27 30,28 29,28 29,29 28,29 28,30 27,30 27,31 26,31 26,32 25,32 25,33 24,33 24,34 25,34 26,34 27,34 28,34 29,34 30,34 31,34 32,34 33,34 34,34 35,34 36,34 37,34 38,34 39,34 40,34 41,34 42,34 43,34 44,34 46,34 47,34 48,34 49,34 50,34 52,34 53,34 54,34 55,35 57,35 58,35 59,35 60,35 61,35 63,35 64,35 65,35 66,35 67,35 68,35" fill="none" stroke="#ff00ff" stroke-width="3" stroke-linecap="round" stroke-linejoin="round" opacity="0.95">
    <title>5462 m:1</title>
  </polyline>
  <polyline points="61,29 61,30 61,31 61,32 62,32 62,33 63,33 63,34 64,34 65,35 66,35 66,36 67,36 68,36 69,36 69,37 70,37 71,37 72,37 73,37 74,37 75,37 76,37 77,36 78,36 78,35 79,35 79,34 80,34 80,33 81,33 81,32 82,32 82,31 82,30 82,29 82,28 82,27 82,26 82,25 81,25 81,24 80,24 80,23 79,23 78,22 77,22 76,21 75,21 74,21 73,20 72,20 71,20 70,20 69,20 68,20 67,20 67,21 66,21 65,22 64,22 64,23 63,23 63,24 63,25 62,25 62,26 62,27 61,27 61,28 61,29 61,30 61,31 61,32" fill="none" stroke="#8aff00" stroke-width="3" stroke-linecap="round" stroke-linejoin="round" opacity="0.95">
    <title>4839 c:1</title>
  </polyline>
  <polyline points="62,24 62,25 62,26 62,27 63,27 63,28 63,29 63,30 63,31 63,32 63,33 63,34 63,35 63,36 63,37 63,38 63,39 63,40 62,40 62,41 62,42 62,43 62,44 62,45 62,46 62,47 62,48 62,49 61,50 61,51 61,52 61,53 61,54 61,55 61,56 61,57 61,58 61,59 61,61 61,62 61,63 61,64 61,65 61,66 60,67 60,68 60,69 60,70 60,71 60,72 60,73 60,74 60,75 60,76 59,77 59,78 59,79 59,80 59,81 59,82 59,83 59,84 59,85 59,86" fill="none" stroke="#00f0b5" stroke-width="3" stroke-linecap="round" stroke-linejoin="round" opacity="0.95">
    <title>4698 a:1</title>
  </polyline>
  <polyline points="26,68 27,68 28,68 29,68 31,68 34,68 36,68 38,68 40,68 41,68 42,68 44,68 47,69 50,69 53,69 55,69 56,69 57,70 59,70 61,70 64,70 66,70 68,70 68,71 69,71 70,71 72,71 74,71 75,71 76,71 77,71 78,71 79,71 81,71 82,71 83,71 84,71 85,71 86,71 87,71 88,71 89,71 90,71 91,71 92,71 93,71 94,71 95,71 96,71" fill="none" stroke="#7c3cff" stroke-width="3" stroke-linecap="round" stroke-linejoin="round" opacity="0.95">
    <title>5169 g:1</title>
  </polyline>
  <polyline points="100,87 100,88 99,88 99,89 98,89 97,89 97,90 96,90 95,90 94,90 93,90 92,90 91,90 90,90 90,89 89,89 88,89 87,89 87,88 86,88 85,88 85,87 85,86 85,85 85,84 85,83 85,82 85,81 86,81 86,80 86,79 86,78 87,78 87,77 87,76 88,76 88,75 88,74 89,74 90,74 90,73 91,73 91,72 92,72 93,72 93,71 94,71 95,71 96,71 96,70" fill="none" stroke="#f2e45c" stroke-width="3" stroke-linecap="round" stroke-linejoin="round" opacity="0.95">
    <title>5040 e:1</title>
  </polyline>
</svg>
