<?xml version="1.0" encoding="UTF-8"?>
<svg xmlns="http://www.w3.org/2000/svg" width="97" height="130" viewBox="0 0 97 130">
  <title>particle img4-m40-p2 a:1 m:1 c:1 a:1</title>
  <metadata>{&quot;entityType&quot;:&quot;particle&quot;,&quot;entityId&quot;:&quot;img4-m40-p2&quot;,&quot;token&quot;:&quot;a:1 m:1 c:1 a:1&quot;,&quot;signature&quot;:&quot;a:1 m:1 c:1 a:1&quot;,&quot;imageName&quot;:&quot;page-004.jpg&quot;,&quot;imageId&quot;:4,&quot;bounds&quot;:{&quot;x&quot;:2022,&quot;y&quot;:2315,&quot;w&quot;:97,&quot;h&quot;:130},&quot;atoms&quot;:[{&quot;id&quot;:4692,&quot;token&quot;:&quot;a:1&quot;,&quot;particle_id&quot;:&quot;img4-m40-p2&quot;,&quot;molecule_id&quot;:&quot;img4-m40&quot;,&quot;atom_order&quot;:1},{&quot;id&quot;:5453,&quot;token&quot;:&quot;m:1&quot;,&quot;particle_id&quot;:&quot;img4-m40-p2&quot;,&quot;molecule_id&quot;:&quot;img4-m40&quot;,&quot;atom_order&quot;:2},{&quot;id&quot;:4826,&quot;token&quot;:&quot;c:1&quot;,&quot;particle_id&quot;:&quot;img4-m40-p2&quot;,&quot;molecule_id&quot;:&quot;img4-m40&quot;,&quot;atom_order&quot;:3},{&quot;id&quot;:4693,&quot;token&quot;:&quot;a:1&quot;,&quot;particle_id&quot;:&quot;img4-m40-p2&quot;,&quot;molecule_id&quot;:&quot;img4-m40&quot;,&quot;atom_order&quot;:4}]}</metadata>
  <rect x="0" y="0" width="97" height="130" fill="#f8f0d8"/>
  <image href="file:///C:/Users/HHHES/AppData/Roaming/com.voynichlab.datasetcreator/images/1/aff30327-ced8-4ab4-8c9b-190205ebe022.jpg" x="-2022" y="-2315" width="2804" height="3797" opacity="0.92"/>
  <rect x="0.5" y="0.5" width="96" height="129" fill="none" stroke="#111827" stroke-width="1" opacity="0.35"/>
  <polyline points="37,55 37,56 37,57 37,58 37,59 37,60 37,61 37,62 37,63 36,63 36,64 36,65 36,66 36,67 36,68 35,69 35,70 35,71 35,72 34,73 34,74 34,75 33,76 33,77 33,78 33,79 33,80 33,81 33,82 33,83 33,84 33,85 32,86 32,87 32,88 32,89 32,90 32,91 32,92 32,93 32,94 32,95 32,96 32,97 32,98 32,99 32,100 32,101 32,102 31,102 31,103 31,104 31,105 31,106 31,107 31,108 31,109 31,110 31,111" fill="none" stroke="#00f0b5" stroke-width="3" stroke-linecap="round" stroke-linejoin="round" opacity="0.95">
    <title>4692 a:1</title>
  </polyline>
  <polyline points="36,57 36,56 36,55 36,54 37,53 37,52 37,51 37,50 37,49 37,48 37,47 37,46 38,46 38,45 38,44 38,43 38,42 38,41 38,40 39,40 39,39 39,38 39,37 40,36 40,35 40,34 40,33 40,32 41,32 41,31 41,30 41,29 42,28 42,27 42,26 42,25 42,24 43,23 43,22 43,21 43,20 44,20 44,19 44,18 43,18 42,18 41,19 40,19 39,19 38,20 37,20 37,21 36,21 35,21 34,21 34,22 33,22 33,23 32,23 31,23 31,24 30,24 30,25 29,25 28,26 27,26 26,26 26,27 25,27 24,27 24,28 23,28 22,29 21,30 20,30 20,31 19,31 18,31 18,32 17,32 16,32 16,33 17,33 18,33 19,33 20,33 21,33 22,32 23,32 24,32 25,32 26,32 27,32 28,32 29,33 31,33 32,33 33,33 34,34 35,34 36,34 37,34 38,35 39,35 40,35 41,36 42,36 43,36 44,36 45,36 46,37 47,37 48,37 49,37 50,37 51,38 53,38 54,38 56,38 57,38 58,38 60,39 61,39 62,39" fill="none" stroke="#ff00ff" stroke-width="3" stroke-linecap="round" stroke-linejoin="round" opacity="0.95">
    <title>5453 m:1</title>
  </polyline>
  <polyline points="53,35 53,36 53,37 54,37 54,38 55,38 56,39 57,39 57,40 58,40 59,40 60,40 61,41 63,41 64,41 65,41 67,41 68,41 69,41 70,41 71,41 72,41 73,41 74,41 75,41 76,41 76,40 77,40 78,40 78,39 79,38 79,37 80,37 80,36 80,35 80,34 81,33 81,32 81,31 81,30 81,29 81,28 81,27 81,26 81,25 81,24 81,23 80,22 79,21 78,20 77,20 77,19 76,19 75,18 74,18 73,17 72,17 71,17 70,17 69,17 68,16 67,16 66,16 65,16 64,16 63,16 63,17 62,17 61,17 60,18 59,18 59,19 58,19 58,20 57,20 57,21 56,21 56,22 55,22 55,23 55,24 54,25 54,26 54,27 54,28 54,29 54,30 54,31 54,32 54,33 54,34 54,35 54,36 54,37 54,38 54,39" fill="none" stroke="#8aff00" stroke-width="3" stroke-linecap="round" stroke-linejoin="round" opacity="0.95">
    <title>4826 c:1</title>
  </polyline>
  <polyline points="57,19 57,20 56,20 56,21 56,22 56,24 55,25 55,27 54,29 54,30 54,31 54,32 54,33 54,34 53,34 53,35 53,36 53,37 53,38 53,39 53,40 53,41 53,42 53,43 53,44 52,45 52,46 52,47 52,48 52,49 52,50 52,51 52,52 52,53 52,54 52,55 52,56 52,58 51,59 51,61 51,62 51,63 51,64 51,65 51,66 51,67 50,69 50,70 50,72 50,73 49,75 49,76 49,77 49,78 49,79 49,80 49,81 49,83 48,84 48,86 48,87 48,88 48,89 48,90 48,91 48,92 48,93 48,94 48,95 47,96 47,97 47,98 47,99 47,100 47,101 47,102 47,104 47,105 47,106 47,107 47,108 47,109 47,110 47,111 47,112 47,113 47,114" fill="none" stroke="#00f0b5" stroke-width="3" stroke-linecap="round" stroke-linejoin="round" opacity="0.95">
    <title>4693 a:1</title>
  </polyline>
</svg>
