<?xml version="1.0" encoding="UTF-8"?>
<svg xmlns="http://www.w3.org/2000/svg" width="87" height="55" viewBox="0 0 87 55">
  <title>particle img4-m65-p6 e:1 g:1 e:1</title>
  <metadata>{&quot;entityType&quot;:&quot;particle&quot;,&quot;entityId&quot;:&quot;img4-m65-p6&quot;,&quot;token&quot;:&quot;e:1 g:1 e:1&quot;,&quot;signature&quot;:&quot;e:1 g:1 e:1&quot;,&quot;imageName&quot;:&quot;page-004.jpg&quot;,&quot;imageId&quot;:4,&quot;bounds&quot;:{&quot;x&quot;:688,&quot;y&quot;:2562,&quot;w&quot;:87,&quot;h&quot;:55},&quot;atoms&quot;:[{&quot;id&quot;:5090,&quot;token&quot;:&quot;e:1&quot;,&quot;particle_id&quot;:&quot;img4-m65-p6&quot;,&quot;molecule_id&quot;:&quot;img4-m65&quot;,&quot;atom_order&quot;:1},{&quot;id&quot;:5183,&quot;token&quot;:&quot;g:1&quot;,&quot;particle_id&quot;:&quot;img4-m65-p6&quot;,&quot;molecule_id&quot;:&quot;img4-m65&quot;,&quot;atom_order&quot;:2},{&quot;id&quot;:5089,&quot;token&quot;:&quot;e:1&quot;,&quot;particle_id&quot;:&quot;img4-m65-p6&quot;,&quot;molecule_id&quot;:&quot;img4-m65&quot;,&quot;atom_order&quot;:3}]}</metadata>
  <rect x="0" y="0" width="87" height="55" fill="#f8f0d8"/>
  <image href="file:///C:/Users/HHHES/AppData/Roaming/com.voynichlab.datasetcreator/images/1/aff30327-ced8-4ab4-8c9b-190205ebe022.jpg" x="-688" y="-2562" width="2804" height="3797" opacity="0.92"/>
  <rect x="0.5" y="0.5" width="86" height="54" fill="none" stroke="#111827" stroke-width="1" opacity="0.35"/>
  <polyline points="31,33 31,34 30,34 30,35 29,35 28,35 28,36 27,36 26,36 25,36 24,36 23,36 22,36 21,36 21,35 20,35 19,35 18,35 18,34 17,34 16,34 16,33 16,32 16,31 16,30 16,29 16,28 16,27 17,27 17,26 17,25 17,24 18,24 18,23 18,22 19,22 19,21 19,20 20,20 21,20 21,19 22,19 22,18 23,18 24,18 24,17 25,17 26,17 27,17 27,16" fill="none" stroke="#f2e45c" stroke-width="3" stroke-linecap="round" stroke-linejoin="round" opacity="0.95">
    <title>5090 e:1</title>
  </polyline>
  <polyline points="25,17 26,17 27,17 28,17 29,17 30,17 32,17 34,17 35,18 36,18 37,18 38,18 39,18 41,18 43,18 45,19 47,19 48,19 49,19 50,19 51,19 52,20 53,20 54,20 56,20 57,20 58,20 59,20 60,20 61,20 62,20 63,20 64,20 65,20 66,20 66,21 67,21 68,21" fill="none" stroke="#7c3cff" stroke-width="3" stroke-linecap="round" stroke-linejoin="round" opacity="0.95">
    <title>5183 g:1</title>
  </polyline>
  <polyline points="71,36 71,37 70,37 70,38 69,38 68,38 68,39 67,39 66,39 65,39 64,39 63,39 62,39 61,39 61,38 60,38 59,38 58,38 58,37 57,37 56,37 56,36 56,35 56,34 56,33 56,32 56,31 56,30 57,30 57,29 57,28 57,27 58,27 58,26 58,25 59,25 59,24 59,23 60,23 61,23 61,22 62,22 62,21 63,21 64,21 64,20 65,20 66,20 67,20 67,19" fill="none" stroke="#f2e45c" stroke-width="3" stroke-linecap="round" stroke-linejoin="round" opacity="0.95">
    <title>5089 e:1</title>
  </polyline>
</svg>
