<?xml version="1.0" encoding="UTF-8"?>
<svg xmlns="http://www.w3.org/2000/svg" width="55" height="81" viewBox="0 0 55 81">
  <title>particle img4-m89-p4 e:1 h:1</title>
  <metadata>{&quot;entityType&quot;:&quot;particle&quot;,&quot;entityId&quot;:&quot;img4-m89-p4&quot;,&quot;token&quot;:&quot;e:1 h:1&quot;,&quot;signature&quot;:&quot;e:1 h:1&quot;,&quot;imageName&quot;:&quot;page-004.jpg&quot;,&quot;imageId&quot;:4,&quot;bounds&quot;:{&quot;x&quot;:1365,&quot;y&quot;:2749,&quot;w&quot;:55,&quot;h&quot;:81},&quot;atoms&quot;:[{&quot;id&quot;:5125,&quot;token&quot;:&quot;e:1&quot;,&quot;particle_id&quot;:&quot;img4-m89-p4&quot;,&quot;molecule_id&quot;:&quot;img4-m89&quot;,&quot;atom_order&quot;:1},{&quot;id&quot;:5295,&quot;token&quot;:&quot;h:1&quot;,&quot;particle_id&quot;:&quot;img4-m89-p4&quot;,&quot;molecule_id&quot;:&quot;img4-m89&quot;,&quot;atom_order&quot;:2}]}</metadata>
  <rect x="0" y="0" width="55" height="81" fill="#f8f0d8"/>
  <image href="file:///C:/Users/HHHES/AppData/Roaming/com.voynichlab.datasetcreator/images/1/aff30327-ced8-4ab4-8c9b-190205ebe022.jpg" x="-1365" y="-2749" width="2804" height="3797" opacity="0.92"/>
  <rect x="0.5" y="0.5" width="54" height="80" fill="none" stroke="#111827" stroke-width="1" opacity="0.35"/>
  <polyline points="31,33 31,34 30,34 30,35 29,35 28,35 28,36 27,36 26,36 25,36 24,36 23,36 22,36 21,36 21,35 20,35 19,35 18,35 18,34 17,34 16,34 16,33 16,32 16,31 16,30 16,29 16,28 16,27 17,27 17,26 17,25 17,24 18,24 18,23 18,22 19,22 19,21 19,20 20,20 21,20 21,19 22,19 22,18 23,18 24,18 24,17 25,17 26,17 27,17 27,16" fill="none" stroke="#f2e45c" stroke-width="3" stroke-linecap="round" stroke-linejoin="round" opacity="0.95">
    <title>5125 e:1</title>
  </polyline>
  <polyline points="26,16 27,16 27,17 28,17 29,17 30,18 31,18 32,19 33,20 34,21 35,21 35,22 36,23 36,24 37,25 37,26 37,27 37,28 38,29 38,31 39,32 39,33 39,35 39,37 39,38 39,39 38,41 38,42 37,44 37,45 36,46 35,47 35,48 34,50 33,50 32,52 30,55 28,57 27,59 25,60 25,61 24,61 23,62 22,63 21,64 21,65 20,65 21,65 22,64" fill="none" stroke="#ff8c00" stroke-width="3" stroke-linecap="round" stroke-linejoin="round" opacity="0.95">
    <title>5295 h:1</title>
  </polyline>
</svg>
