<?xml version="1.0" encoding="UTF-8"?>
<svg xmlns="http://www.w3.org/2000/svg" width="59" height="68" viewBox="0 0 59 68">
  <title>particle img4-m29-p3 e:1 c:1 h:2</title>
  <metadata>{&quot;entityType&quot;:&quot;particle&quot;,&quot;entityId&quot;:&quot;img4-m29-p3&quot;,&quot;token&quot;:&quot;e:1 c:1 h:2&quot;,&quot;signature&quot;:&quot;e:1 c:1 h:2&quot;,&quot;imageName&quot;:&quot;page-004.jpg&quot;,&quot;imageId&quot;:4,&quot;bounds&quot;:{&quot;x&quot;:1945,&quot;y&quot;:2169,&quot;w&quot;:59,&quot;h&quot;:68},&quot;atoms&quot;:[{&quot;id&quot;:4982,&quot;token&quot;:&quot;e:1&quot;,&quot;particle_id&quot;:&quot;img4-m29-p3&quot;,&quot;molecule_id&quot;:&quot;img4-m29&quot;,&quot;atom_order&quot;:1},{&quot;id&quot;:4793,&quot;token&quot;:&quot;c:1&quot;,&quot;particle_id&quot;:&quot;img4-m29-p3&quot;,&quot;molecule_id&quot;:&quot;img4-m29&quot;,&quot;atom_order&quot;:2},{&quot;id&quot;:5352,&quot;token&quot;:&quot;h:2&quot;,&quot;particle_id&quot;:&quot;img4-m29-p3&quot;,&quot;molecule_id&quot;:&quot;img4-m29&quot;,&quot;atom_order&quot;:3}]}</metadata>
  <rect x="0" y="0" width="59" height="68" fill="#f8f0d8"/>
  <image href="file:///C:/Users/HHHES/AppData/Roaming/com.voynichlab.datasetcreator/images/1/aff30327-ced8-4ab4-8c9b-190205ebe022.jpg" x="-1945" y="-2169" width="2804" height="3797" opacity="0.92"/>
  <rect x="0.5" y="0.5" width="58" height="67" fill="none" stroke="#111827" stroke-width="1" opacity="0.35"/>
  <polyline points="31,49 31,50 30,50 30,51 29,51 28,51 28,52 27,52 26,52 25,52 24,52 23,52 22,52 21,52 21,51 20,51 19,51 18,51 18,50 17,50 16,50 16,49 16,48 16,47 16,46 16,45 16,44 16,43 17,43 17,42 17,41 17,40 18,40 18,39 18,38 19,38 19,37 19,36 20,36 21,36 21,35 22,35 22,34 23,34 24,34 24,33 25,33 26,33 27,33 27,32" fill="none" stroke="#f2e45c" stroke-width="3" stroke-linecap="round" stroke-linejoin="round" opacity="0.95">
    <title>4982 e:1</title>
  </polyline>
  <polyline points="35,31 36,31 37,31 37,30 38,30 39,30 39,29 40,29 41,29 41,28 42,28 42,27 42,26 43,26 43,25 43,24 43,23 43,22 43,21 43,20 42,19 41,18 40,17 39,17 39,16 38,16 37,16 36,16 35,16 34,16 33,16 32,16 31,17 30,17 30,18 29,18 29,19 29,20 28,20 28,21 28,22 28,23 27,23 27,24 27,25 27,26 27,27 27,28 28,29 29,30 30,31 31,31 32,32 33,32 34,32 35,32 36,32 36,31 37,31 38,31" fill="none" stroke="#8aff00" stroke-width="3" stroke-linecap="round" stroke-linejoin="round" opacity="0.95">
    <title>4793 c:1</title>
  </polyline>
  <polyline points="31,16 30,16 29,17 28,17 28,18 28,19 27,19 27,20 27,21 27,22 27,23 26,24 26,25 26,26 26,27 26,28 26,29 27,30 27,31 28,32 28,33 28,34 29,34 29,35 29,36 29,37 30,38 30,39 30,40 31,41 31,42 31,43 31,44 31,45 32,45 32,46 32,47 32,48 32,49 32,50 31,51 30,51" fill="none" stroke="#ff8c00" stroke-width="3" stroke-linecap="round" stroke-linejoin="round" opacity="0.95">
    <title>5352 h:2</title>
  </polyline>
</svg>
