<?xml version="1.0" encoding="UTF-8"?>
<svg xmlns="http://www.w3.org/2000/svg" width="59" height="78" viewBox="0 0 59 78">
  <title>particle img4-m33-p4 e:1 h:1</title>
  <metadata>{&quot;entityType&quot;:&quot;particle&quot;,&quot;entityId&quot;:&quot;img4-m33-p4&quot;,&quot;token&quot;:&quot;e:1 h:1&quot;,&quot;signature&quot;:&quot;e:1 h:1&quot;,&quot;imageName&quot;:&quot;page-004.jpg&quot;,&quot;imageId&quot;:4,&quot;bounds&quot;:{&quot;x&quot;:1929,&quot;y&quot;:2386,&quot;w&quot;:59,&quot;h&quot;:78},&quot;atoms&quot;:[{&quot;id&quot;:5015,&quot;token&quot;:&quot;e:1&quot;,&quot;particle_id&quot;:&quot;img4-m33-p4&quot;,&quot;molecule_id&quot;:&quot;img4-m33&quot;,&quot;atom_order&quot;:1},{&quot;id&quot;:5278,&quot;token&quot;:&quot;h:1&quot;,&quot;particle_id&quot;:&quot;img4-m33-p4&quot;,&quot;molecule_id&quot;:&quot;img4-m33&quot;,&quot;atom_order&quot;:2}]}</metadata>
  <rect x="0" y="0" width="59" height="78" fill="#f8f0d8"/>
  <image href="file:///C:/Users/HHHES/AppData/Roaming/com.voynichlab.datasetcreator/images/1/aff30327-ced8-4ab4-8c9b-190205ebe022.jpg" x="-1929" y="-2386" width="2804" height="3797" opacity="0.92"/>
  <rect x="0.5" y="0.5" width="58" height="77" fill="none" stroke="#111827" stroke-width="1" opacity="0.35"/>
  <polyline points="31,33 31,34 30,34 30,35 29,35 28,35 28,36 27,36 26,36 25,36 24,36 23,36 22,36 21,36 21,35 20,35 19,35 18,35 18,34 17,34 16,34 16,33 16,32 16,31 16,30 16,29 16,28 16,27 17,27 17,26 17,25 17,24 18,24 18,23 18,22 19,22 19,21 19,20 20,20 21,20 21,19 22,19 22,18 23,18 24,18 24,17 25,17 26,17 27,17 27,16" fill="none" stroke="#f2e45c" stroke-width="3" stroke-linecap="round" stroke-linejoin="round" opacity="0.95">
    <title>5015 e:1</title>
  </polyline>
  <polyline points="26,16 27,16 28,17 30,17 31,18 33,19 34,20 35,21 36,22 38,23 39,24 40,26 41,27 41,28 42,29 42,30 42,31 43,31 43,32 43,33 43,34 43,35 43,36 43,38 43,39 43,40 43,41 43,42 43,43 42,44 42,46 42,47 41,48 41,50 41,51 40,52 39,53 39,54 38,55 37,56 36,57 35,58 34,59 33,60 32,61 32,62" fill="none" stroke="#ff8c00" stroke-width="3" stroke-linecap="round" stroke-linejoin="round" opacity="0.95">
    <title>5278 h:1</title>
  </polyline>
</svg>
