<?xml version="1.0" encoding="UTF-8"?>
<svg xmlns="http://www.w3.org/2000/svg" width="73" height="144" viewBox="0 0 73 144">
  <title>particle img4-m1-p1 a:1 b:1 c:1 a:1</title>
  <metadata>{&quot;entityType&quot;:&quot;particle&quot;,&quot;entityId&quot;:&quot;img4-m1-p1&quot;,&quot;token&quot;:&quot;a:1 b:1 c:1 a:1&quot;,&quot;signature&quot;:&quot;a:1 b:1 c:1 a:1&quot;,&quot;imageName&quot;:&quot;page-004.jpg&quot;,&quot;imageId&quot;:4,&quot;bounds&quot;:{&quot;x&quot;:579,&quot;y&quot;:1792,&quot;w&quot;:73,&quot;h&quot;:144},&quot;atoms&quot;:[{&quot;id&quot;:4654,&quot;token&quot;:&quot;a:1&quot;,&quot;particle_id&quot;:&quot;img4-m1-p1&quot;,&quot;molecule_id&quot;:&quot;img4-m1&quot;,&quot;atom_order&quot;:1},{&quot;id&quot;:4727,&quot;token&quot;:&quot;b:1&quot;,&quot;particle_id&quot;:&quot;img4-m1-p1&quot;,&quot;molecule_id&quot;:&quot;img4-m1&quot;,&quot;atom_order&quot;:2},{&quot;id&quot;:4762,&quot;token&quot;:&quot;c:1&quot;,&quot;particle_id&quot;:&quot;img4-m1-p1&quot;,&quot;molecule_id&quot;:&quot;img4-m1&quot;,&quot;atom_order&quot;:3},{&quot;id&quot;:4655,&quot;token&quot;:&quot;a:1&quot;,&quot;particle_id&quot;:&quot;img4-m1-p1&quot;,&quot;molecule_id&quot;:&quot;img4-m1&quot;,&quot;atom_order&quot;:4}]}</metadata>
  <rect x="0" y="0" width="73" height="144" fill="#f8f0d8"/>
  <image href="file:///C:/Users/HHHES/AppData/Roaming/com.voynichlab.datasetcreator/images/1/aff30327-ced8-4ab4-8c9b-190205ebe022.jpg" x="-579" y="-1792" width="2804" height="3797" opacity="0.92"/>
  <rect x="0.5" y="0.5" width="72" height="143" fill="none" stroke="#111827" stroke-width="1" opacity="0.35"/>
  <polyline points="18,128 18,127 18,126 18,125 18,124 18,123 18,122 18,121 18,120 18,119 18,118 18,117 18,116 18,115 18,114 18,113 18,112 18,111 18,110 18,109 18,108 18,107 18,106 19,105 19,104 19,103 19,102 19,101 19,100 19,99 19,98 19,97 19,96 19,95 19,94 19,93 19,92 18,91 18,90 18,89 18,88 18,87 18,86 18,85 18,84 18,83 18,82 18,81 18,80 18,79 18,78 18,77 18,76 18,75 18,74 18,73 18,72 18,71 18,70 18,69 18,68 18,67 18,66 18,65 18,64 18,63 18,62 18,61 18,60 18,59 18,58 18,57 18,56 18,55 18,54 18,53 18,52 18,51 18,50 18,49 18,48 18,47 18,46 18,45 18,44 18,43 18,42 18,41 17,40 17,39 17,38 17,37 17,36 17,35 17,34 17,33 17,32 17,31 17,30 17,29 17,28 16,27" fill="none" stroke="#00f0b5" stroke-width="3" stroke-linecap="round" stroke-linejoin="round" opacity="0.95">
    <title>4654 a:1</title>
  </polyline>
  <polyline points="16,28 16,29 16,30 16,31 17,31 17,32 18,33 18,34 18,35 19,35 19,36 19,37 20,37 20,38 21,38 21,39 22,39 22,40 23,40 24,40 24,41 25,41 26,41 27,42 28,42 29,42 30,42 31,42 32,42 33,41 34,41 35,41 36,41 37,40 38,40 39,40 40,40 40,39 41,39 42,39 42,38 43,38 44,38 45,38 46,38 46,37 47,37 47,36 48,36 49,35 50,35 51,35 51,34 52,34 52,33 53,33" fill="none" stroke="#2f7df6" stroke-width="3" stroke-linecap="round" stroke-linejoin="round" opacity="0.95">
    <title>4727 b:1</title>
  </polyline>
  <polyline points="53,33 54,33 54,32 55,32 55,31 56,31 56,30 56,29 57,28 57,27 57,26 57,25 57,24 57,23 57,22 57,21 56,21 56,20 56,19 55,19 54,18 53,18 52,17 51,17 50,16 49,16 48,16 47,16 46,16 45,16 44,16 44,17 43,17 42,18 42,19 41,19 40,20 39,21 39,22 38,22 38,23 38,24 37,24 37,25 37,26 36,27 36,28 36,29 35,29 35,30 35,31 35,32 35,33 35,34 35,35 36,36 37,36 37,37 38,37 39,37 40,37 41,37 42,37 43,37 44,37 45,37 46,37 46,36 47,36 48,36 48,35 49,35 50,35 50,34 51,34 52,33 53,33" fill="none" stroke="#8aff00" stroke-width="3" stroke-linecap="round" stroke-linejoin="round" opacity="0.95">
    <title>4762 c:1</title>
  </polyline>
  <polyline points="35,29 35,30 35,31 35,32 35,33 35,34 35,35 34,36 34,37 34,38 34,39 34,40 34,41 34,42 34,43 34,44 34,45 34,46 34,47 34,48 34,49 34,50 34,51 34,52 34,53 34,54 34,55 34,56 34,57 34,58 33,59 33,60 33,61 33,62 33,63 33,64 33,65 33,66 33,67 33,68 33,69 33,70 33,71 33,72 33,73 32,74 32,75 32,76 32,77 32,78 32,79 32,80 32,81 32,82 32,83 32,84 32,85 32,86 32,87 32,88 32,89 32,90 32,91 32,92 32,93 33,95 33,96 33,97 33,98 34,99 34,100 34,101 34,102 34,103 35,103 35,104 35,105 35,106 35,107 35,108 35,109 35,110 35,111 35,112 35,113 35,114 35,115 34,116 34,117 34,118 34,119 33,119 33,120" fill="none" stroke="#00f0b5" stroke-width="3" stroke-linecap="round" stroke-linejoin="round" opacity="0.95">
    <title>4655 a:1</title>
  </polyline>
</svg>
