<?xml version="1.0" encoding="UTF-8"?>
<svg xmlns="http://www.w3.org/2000/svg" width="95" height="93" viewBox="0 0 95 93">
  <title>particle img4-m86-p3 a:1 m:1 c:1 a:1</title>
  <metadata>{&quot;entityType&quot;:&quot;particle&quot;,&quot;entityId&quot;:&quot;img4-m86-p3&quot;,&quot;token&quot;:&quot;a:1 m:1 c:1 a:1&quot;,&quot;signature&quot;:&quot;a:1 m:1 c:1 a:1&quot;,&quot;imageName&quot;:&quot;page-004.jpg&quot;,&quot;imageId&quot;:4,&quot;bounds&quot;:{&quot;x&quot;:848,&quot;y&quot;:2683,&quot;w&quot;:95,&quot;h&quot;:93},&quot;atoms&quot;:[{&quot;id&quot;:4721,&quot;token&quot;:&quot;a:1&quot;,&quot;particle_id&quot;:&quot;img4-m86-p3&quot;,&quot;molecule_id&quot;:&quot;img4-m86&quot;,&quot;atom_order&quot;:1},{&quot;id&quot;:5469,&quot;token&quot;:&quot;m:1&quot;,&quot;particle_id&quot;:&quot;img4-m86-p3&quot;,&quot;molecule_id&quot;:&quot;img4-m86&quot;,&quot;atom_order&quot;:2},{&quot;id&quot;:4910,&quot;token&quot;:&quot;c:1&quot;,&quot;particle_id&quot;:&quot;img4-m86-p3&quot;,&quot;molecule_id&quot;:&quot;img4-m86&quot;,&quot;atom_order&quot;:3},{&quot;id&quot;:4722,&quot;token&quot;:&quot;a:1&quot;,&quot;particle_id&quot;:&quot;img4-m86-p3&quot;,&quot;molecule_id&quot;:&quot;img4-m86&quot;,&quot;atom_order&quot;:4}]}</metadata>
  <rect x="0" y="0" width="95" height="93" fill="#f8f0d8"/>
  <image href="file:///C:/Users/HHHES/AppData/Roaming/com.voynichlab.datasetcreator/images/1/aff30327-ced8-4ab4-8c9b-190205ebe022.jpg" x="-848" y="-2683" width="2804" height="3797" opacity="0.92"/>
  <rect x="0.5" y="0.5" width="94" height="92" fill="none" stroke="#111827" stroke-width="1" opacity="0.35"/>
  <polyline points="35,71 35,70 35,69 36,67 36,65 36,64 36,63 36,62 36,61 36,60 36,59 36,58 36,57 36,56 36,55 36,54 36,53 36,52 36,51 36,50 36,49 36,48 36,47 36,46 36,45" fill="none" stroke="#00f0b5" stroke-width="3" stroke-linecap="round" stroke-linejoin="round" opacity="0.95">
    <title>4721 a:1</title>
  </polyline>
  <polyline points="36,46 36,45 36,44 36,43 36,42 36,41 36,40 36,39 36,38 36,37 36,36 36,35 36,34 36,33 36,32 36,31 36,30 36,29 36,28 36,27 36,26 36,25 36,24 36,23 36,22 36,21 36,20 36,19 36,20 35,20 35,21 34,21 33,21 32,21 32,22 31,22 30,22 30,23 29,23 28,23 28,24 27,24 27,25 26,25 25,25 25,26 24,26 24,27 23,27 22,28 21,29 20,30 19,31 19,32 18,32 17,33 17,34 16,34 16,35 17,35 18,35 19,35 20,35 21,35 22,35 23,35 24,35 25,35 26,35 27,35 28,35 29,35 30,35 31,35 32,35 33,35 34,35 35,35 36,35 37,35 38,35 39,34 40,34 41,34 42,34 43,34 44,34 45,34 47,33 48,33 50,32 51,32 52,32 53,32 53,31 54,31 55,31 56,31 57,31 58,31 59,31 59,30 60,30 61,30 62,30 63,30 64,30 65,30" fill="none" stroke="#ff00ff" stroke-width="3" stroke-linecap="round" stroke-linejoin="round" opacity="0.95">
    <title>5469 m:1</title>
  </polyline>
  <polyline points="60,20 60,21 60,22 60,23 60,24 60,25 61,25 61,26 61,27 61,28 61,29 62,29 63,29 63,30 64,30 65,30 66,31 67,31 68,31 69,31 70,31 71,31 72,31 72,30 73,30 74,30 74,29 75,29 76,29 76,28 77,28 77,27 78,26 78,25 79,25 79,24 79,23 79,22 79,21 79,20 79,19 78,19 78,18 77,18 76,17 75,17 74,17 73,16 72,16 71,16 70,16 69,16 68,16 67,16 66,16 65,16 64,16 63,16 62,16 62,17 62,18 62,19 61,19 61,20 61,21 60,22 60,23 60,24 60,25 60,26" fill="none" stroke="#8aff00" stroke-width="3" stroke-linecap="round" stroke-linejoin="round" opacity="0.95">
    <title>4910 c:1</title>
  </polyline>
  <polyline points="61,18 60,18 60,19 60,20 60,21 60,23 60,25 60,28 59,30 59,31 59,32 59,34 59,35 59,37 59,39 58,40 58,42 58,43 58,45 58,46 58,47 58,49 58,50 58,52 58,53 58,55 58,56 58,57 58,58 58,59 57,61 57,62 57,63 57,64 57,65 57,66 57,67 57,68 57,69 57,70 57,71 56,72 56,73 56,74 56,75 56,76 56,77" fill="none" stroke="#00f0b5" stroke-width="3" stroke-linecap="round" stroke-linejoin="round" opacity="0.95">
    <title>4722 a:1</title>
  </polyline>
</svg>
