<?xml version="1.0" encoding="UTF-8"?>
<svg xmlns="http://www.w3.org/2000/svg" width="59" height="75" viewBox="0 0 59 75">
  <title>particle img4-m84-p4 e:1 c:1 h:2</title>
  <metadata>{&quot;entityType&quot;:&quot;particle&quot;,&quot;entityId&quot;:&quot;img4-m84-p4&quot;,&quot;token&quot;:&quot;e:1 c:1 h:2&quot;,&quot;signature&quot;:&quot;e:1 c:1 h:2&quot;,&quot;imageName&quot;:&quot;page-004.jpg&quot;,&quot;imageId&quot;:4,&quot;bounds&quot;:{&quot;x&quot;:2377,&quot;y&quot;:2683,&quot;w&quot;:59,&quot;h&quot;:75},&quot;atoms&quot;:[{&quot;id&quot;:5112,&quot;token&quot;:&quot;e:1&quot;,&quot;particle_id&quot;:&quot;img4-m84-p4&quot;,&quot;molecule_id&quot;:&quot;img4-m84&quot;,&quot;atom_order&quot;:1},{&quot;id&quot;:4873,&quot;token&quot;:&quot;c:1&quot;,&quot;particle_id&quot;:&quot;img4-m84-p4&quot;,&quot;molecule_id&quot;:&quot;img4-m84&quot;,&quot;atom_order&quot;:2},{&quot;id&quot;:5325,&quot;token&quot;:&quot;h:2&quot;,&quot;particle_id&quot;:&quot;img4-m84-p4&quot;,&quot;molecule_id&quot;:&quot;img4-m84&quot;,&quot;atom_order&quot;:3}]}</metadata>
  <rect x="0" y="0" width="59" height="75" fill="#f8f0d8"/>
  <image href="file:///C:/Users/HHHES/AppData/Roaming/com.voynichlab.datasetcreator/images/1/aff30327-ced8-4ab4-8c9b-190205ebe022.jpg" x="-2377" y="-2683" width="2804" height="3797" opacity="0.92"/>
  <rect x="0.5" y="0.5" width="58" height="74" fill="none" stroke="#111827" stroke-width="1" opacity="0.35"/>
  <polyline points="31,56 31,57 30,57 30,58 29,58 28,58 28,59 27,59 26,59 25,59 24,59 23,59 22,59 21,59 21,58 20,58 19,58 18,58 18,57 17,57 16,57 16,56 16,55 16,54 16,53 16,52 16,51 16,50 17,50 17,49 17,48 17,47 18,47 18,46 18,45 19,45 19,44 19,43 20,43 21,43 21,42 22,42 22,41 23,41 24,41 24,40 25,40 26,40 27,40 27,39" fill="none" stroke="#f2e45c" stroke-width="3" stroke-linecap="round" stroke-linejoin="round" opacity="0.95">
    <title>5112 e:1</title>
  </polyline>
  <polyline points="37,37 37,36 38,36 38,35 39,35 40,34 40,33 41,32 41,31 41,30 42,30 42,29 42,28 43,27 43,25 43,24 43,23 43,22 43,21 43,20 43,19 42,19 42,18 41,18 40,18 39,18 38,18 37,18 36,18 35,18 34,18 33,19 32,20 32,21 32,22 31,22 31,23 31,24 30,25 30,26 30,27 30,28 30,29 30,30 30,31 31,31 31,32 31,33 32,33 32,34 33,35 33,36 34,36 34,37 35,37 36,37 36,38 37,38" fill="none" stroke="#8aff00" stroke-width="3" stroke-linecap="round" stroke-linejoin="round" opacity="0.95">
    <title>4873 c:1</title>
  </polyline>
  <polyline points="36,16 35,16 34,17 33,17 32,18 32,19 32,20 31,20 31,21 31,22 31,23 31,24 31,25 31,26 31,27 31,28 31,29 31,30 32,31 32,32 32,33 33,33 33,34 33,35 33,36 34,37 34,38 34,39 35,40 35,41 35,42 35,43 35,44 35,45 35,46 35,47 35,48 34,49 34,50 34,51 33,51 33,52 32,53 32,54 31,54 31,55 30,56 30,57 29,57 29,58 28,58 27,59 26,59 25,59 24,59" fill="none" stroke="#ff8c00" stroke-width="3" stroke-linecap="round" stroke-linejoin="round" opacity="0.95">
    <title>5325 h:2</title>
  </polyline>
</svg>
