<?xml version="1.0" encoding="UTF-8"?>
<svg xmlns="http://www.w3.org/2000/svg" width="74" height="83" viewBox="0 0 74 83">
  <title>particle img4-m16-p2 a:1 b:1 c:1 a:1</title>
  <metadata>{&quot;entityType&quot;:&quot;particle&quot;,&quot;entityId&quot;:&quot;img4-m16-p2&quot;,&quot;token&quot;:&quot;a:1 b:1 c:1 a:1&quot;,&quot;signature&quot;:&quot;a:1 b:1 c:1 a:1&quot;,&quot;imageName&quot;:&quot;page-004.jpg&quot;,&quot;imageId&quot;:4,&quot;bounds&quot;:{&quot;x&quot;:2095,&quot;y&quot;:2019,&quot;w&quot;:74,&quot;h&quot;:83},&quot;atoms&quot;:[{&quot;id&quot;:4664,&quot;token&quot;:&quot;a:1&quot;,&quot;particle_id&quot;:&quot;img4-m16-p2&quot;,&quot;molecule_id&quot;:&quot;img4-m16&quot;,&quot;atom_order&quot;:1},{&quot;id&quot;:4732,&quot;token&quot;:&quot;b:1&quot;,&quot;particle_id&quot;:&quot;img4-m16-p2&quot;,&quot;molecule_id&quot;:&quot;img4-m16&quot;,&quot;atom_order&quot;:2},{&quot;id&quot;:4772,&quot;token&quot;:&quot;c:1&quot;,&quot;particle_id&quot;:&quot;img4-m16-p2&quot;,&quot;molecule_id&quot;:&quot;img4-m16&quot;,&quot;atom_order&quot;:3},{&quot;id&quot;:4665,&quot;token&quot;:&quot;a:1&quot;,&quot;particle_id&quot;:&quot;img4-m16-p2&quot;,&quot;molecule_id&quot;:&quot;img4-m16&quot;,&quot;atom_order&quot;:4}]}</metadata>
  <rect x="0" y="0" width="74" height="83" fill="#f8f0d8"/>
  <image href="file:///C:/Users/HHHES/AppData/Roaming/com.voynichlab.datasetcreator/images/1/aff30327-ced8-4ab4-8c9b-190205ebe022.jpg" x="-2095" y="-2019" width="2804" height="3797" opacity="0.92"/>
  <rect x="0.5" y="0.5" width="73" height="82" fill="none" stroke="#111827" stroke-width="1" opacity="0.35"/>
  <polyline points="24,17 24,18 24,19 24,20 23,21 23,22 23,24 23,25 23,26 23,27 23,29 23,30 22,31 22,32 22,33 22,34 22,35 22,36 22,38 22,39 22,40 22,41 22,43 21,44 21,45 21,46 21,47 21,48 20,50 20,51 20,52 19,53 19,54 19,56 19,57 18,58 18,59 18,60 18,61 17,61 17,62 17,63 17,64 17,65 16,66 16,67" fill="none" stroke="#00f0b5" stroke-width="3" stroke-linecap="round" stroke-linejoin="round" opacity="0.95">
    <title>4664 a:1</title>
  </polyline>
  <polyline points="23,18 23,19 23,20 23,22 23,23 23,24 23,25 23,26 23,27 24,27 24,28 24,29 25,29 25,30 26,30 27,31 28,31 29,31 29,32 30,32 32,32 33,32 34,33 35,33 36,33 37,33 38,33 39,33 40,33 41,33 42,33 43,33 44,33 45,33 46,32 47,32 48,32 48,31 49,31 50,31 51,30 52,30 52,29 53,29 54,28 55,27 55,26 56,26 56,25" fill="none" stroke="#2f7df6" stroke-width="3" stroke-linecap="round" stroke-linejoin="round" opacity="0.95">
    <title>4732 b:1</title>
  </polyline>
  <polyline points="55,27 56,26 56,25 57,25 57,24 57,23 58,23 58,22 58,21 57,20 57,19 57,18 56,18 56,17 55,17 55,16 54,16 53,16 52,16 51,16 50,16 49,16 48,16 47,16 46,17 45,17 45,18 44,18 44,19 43,19 43,20 42,20 42,21 41,22 41,23 41,24 41,25 40,26 40,27 40,28 40,29 41,29 41,30 42,30 42,31 43,31 44,31 45,31 46,31 47,32 48,32 49,32 49,31 50,31 51,31 52,30 53,30 53,29 54,29 55,28 56,27 56,26 57,26" fill="none" stroke="#8aff00" stroke-width="3" stroke-linecap="round" stroke-linejoin="round" opacity="0.95">
    <title>4772 c:1</title>
  </polyline>
  <polyline points="42,20 42,21 42,22 41,23 41,24 40,26 40,27 39,28 39,29 39,30 39,31 38,32 38,33 38,34 38,35 38,36 38,37 37,39 37,40 37,41 37,42 37,43 37,44 37,45 36,45 36,47 36,48 36,49 35,50 35,51 35,52 35,53 34,54 34,55 34,56 34,57 33,58 33,59 33,60 33,61 32,61 32,62 32,63 32,64 31,65 31,66 31,67" fill="none" stroke="#00f0b5" stroke-width="3" stroke-linecap="round" stroke-linejoin="round" opacity="0.95">
    <title>4665 a:1</title>
  </polyline>
</svg>
