<?xml version="1.0" encoding="UTF-8"?>
<svg xmlns="http://www.w3.org/2000/svg" width="62" height="82" viewBox="0 0 62 82">
  <title>particle img4-m27-p1 e:1 i:1 d:1</title>
  <metadata>{&quot;entityType&quot;:&quot;particle&quot;,&quot;entityId&quot;:&quot;img4-m27-p1&quot;,&quot;token&quot;:&quot;e:1 i:1 d:1&quot;,&quot;signature&quot;:&quot;e:1 i:1 d:1&quot;,&quot;imageName&quot;:&quot;page-004.jpg&quot;,&quot;imageId&quot;:4,&quot;bounds&quot;:{&quot;x&quot;:1557,&quot;y&quot;:2134,&quot;w&quot;:62,&quot;h&quot;:82},&quot;atoms&quot;:[{&quot;id&quot;:4989,&quot;token&quot;:&quot;e:1&quot;,&quot;particle_id&quot;:&quot;img4-m27-p1&quot;,&quot;molecule_id&quot;:&quot;img4-m27&quot;,&quot;atom_order&quot;:1},{&quot;id&quot;:5216,&quot;token&quot;:&quot;i:1&quot;,&quot;particle_id&quot;:&quot;img4-m27-p1&quot;,&quot;molecule_id&quot;:&quot;img4-m27&quot;,&quot;atom_order&quot;:2},{&quot;id&quot;:5242,&quot;token&quot;:&quot;d:1&quot;,&quot;particle_id&quot;:&quot;img4-m27-p1&quot;,&quot;molecule_id&quot;:&quot;img4-m27&quot;,&quot;atom_order&quot;:3}]}</metadata>
  <rect x="0" y="0" width="62" height="82" fill="#f8f0d8"/>
  <image href="file:///C:/Users/HHHES/AppData/Roaming/com.voynichlab.datasetcreator/images/1/aff30327-ced8-4ab4-8c9b-190205ebe022.jpg" x="-1557" y="-2134" width="2804" height="3797" opacity="0.92"/>
  <rect x="0.5" y="0.5" width="61" height="81" fill="none" stroke="#111827" stroke-width="1" opacity="0.35"/>
  <polyline points="40,63 40,64 39,64 39,65 38,65 37,65 37,66 36,66 35,66 34,66 33,66 32,66 31,66 30,66 30,65 29,65 28,65 27,65 27,64 26,64 25,64 25,63 25,62 25,61 25,60 25,59 25,58 25,57 26,57 26,56 26,55 26,54 27,54 27,53 27,52 28,52 28,51 28,50 29,50 30,50 30,49 31,49 31,48 32,48 33,48 33,47 34,47 35,47 36,47 36,46" fill="none" stroke="#f2e45c" stroke-width="3" stroke-linecap="round" stroke-linejoin="round" opacity="0.95">
    <title>4989 e:1</title>
  </polyline>
  <polyline points="34,47 35,47 35,46 36,46 36,45 37,45 38,44 39,43 40,43 40,42 41,41 42,40 42,39 43,39 44,38 44,37 44,36 45,36 45,35 45,34 45,33 46,32 46,31 46,30 46,29 46,28 46,27 46,26 46,25 46,24 45,23 45,22 45,21 44,21 44,20" fill="none" stroke="#00ff7f" stroke-width="3" stroke-linecap="round" stroke-linejoin="round" opacity="0.95">
    <title>5216 i:1</title>
  </polyline>
  <polyline points="44,20 44,19 44,18 43,18 43,17 42,17 41,17 40,17 40,16 39,16 38,16 37,16 36,16 35,16 34,16 33,16 32,16 31,16 30,16 29,16 28,16 27,16 26,16 25,16 24,16 23,17 22,17 21,17 21,18 20,18 19,19 18,20 18,21 17,21 17,22 17,23 16,23 16,24 16,25 17,25 18,25 19,25" fill="none" stroke="#ff2d55" stroke-width="3" stroke-linecap="round" stroke-linejoin="round" opacity="0.95">
    <title>5242 d:1</title>
  </polyline>
</svg>
