<?xml version="1.0" encoding="UTF-8"?>
<svg xmlns="http://www.w3.org/2000/svg" width="88" height="55" viewBox="0 0 88 55">
  <title>particle img4-m72-p1 e:1 g:1 e:1</title>
  <metadata>{&quot;entityType&quot;:&quot;particle&quot;,&quot;entityId&quot;:&quot;img4-m72-p1&quot;,&quot;token&quot;:&quot;e:1 g:1 e:1&quot;,&quot;signature&quot;:&quot;e:1 g:1 e:1&quot;,&quot;imageName&quot;:&quot;page-004.jpg&quot;,&quot;imageId&quot;:4,&quot;bounds&quot;:{&quot;x&quot;:2097,&quot;y&quot;:2621,&quot;w&quot;:88,&quot;h&quot;:55},&quot;atoms&quot;:[{&quot;id&quot;:5072,&quot;token&quot;:&quot;e:1&quot;,&quot;particle_id&quot;:&quot;img4-m72-p1&quot;,&quot;molecule_id&quot;:&quot;img4-m72&quot;,&quot;atom_order&quot;:1},{&quot;id&quot;:5177,&quot;token&quot;:&quot;g:1&quot;,&quot;particle_id&quot;:&quot;img4-m72-p1&quot;,&quot;molecule_id&quot;:&quot;img4-m72&quot;,&quot;atom_order&quot;:2},{&quot;id&quot;:5071,&quot;token&quot;:&quot;e:1&quot;,&quot;particle_id&quot;:&quot;img4-m72-p1&quot;,&quot;molecule_id&quot;:&quot;img4-m72&quot;,&quot;atom_order&quot;:3}]}</metadata>
  <rect x="0" y="0" width="88" height="55" fill="#f8f0d8"/>
  <image href="file:///C:/Users/HHHES/AppData/Roaming/com.voynichlab.datasetcreator/images/1/aff30327-ced8-4ab4-8c9b-190205ebe022.jpg" x="-2097" y="-2621" width="2804" height="3797" opacity="0.92"/>
  <rect x="0.5" y="0.5" width="87" height="54" fill="none" stroke="#111827" stroke-width="1" opacity="0.35"/>
  <polyline points="31,33 31,34 30,34 30,35 29,35 28,35 28,36 27,36 26,36 25,36 24,36 23,36 22,36 21,36 21,35 20,35 19,35 18,35 18,34 17,34 16,34 16,33 16,32 16,31 16,30 16,29 16,28 16,27 17,27 17,26 17,25 17,24 18,24 18,23 18,22 19,22 19,21 19,20 20,20 21,20 21,19 22,19 22,18 23,18 24,18 24,17 25,17 26,17 27,17 27,16" fill="none" stroke="#f2e45c" stroke-width="3" stroke-linecap="round" stroke-linejoin="round" opacity="0.95">
    <title>5072 e:1</title>
  </polyline>
  <polyline points="25,17 26,17 28,17 30,17 31,17 33,17 35,17 36,18 38,18 40,18 41,19 43,19 44,19 45,19 47,19 48,19 49,19 50,19 51,19 52,19 53,19 55,19 56,19 57,19 58,19 60,19 61,19 62,19 63,20 64,20 65,20 66,20 67,20" fill="none" stroke="#7c3cff" stroke-width="3" stroke-linecap="round" stroke-linejoin="round" opacity="0.95">
    <title>5177 g:1</title>
  </polyline>
  <polyline points="72,36 72,37 71,37 71,38 70,38 69,38 69,39 68,39 67,39 66,39 65,39 64,39 63,39 62,39 62,38 61,38 60,38 59,38 59,37 58,37 57,37 57,36 57,35 57,34 57,33 57,32 57,31 57,30 58,30 58,29 58,28 58,27 59,27 59,26 59,25 60,25 60,24 60,23 61,23 62,23 62,22 63,22 63,21 64,21 65,21 65,20 66,20 67,20 68,20 68,19" fill="none" stroke="#f2e45c" stroke-width="3" stroke-linecap="round" stroke-linejoin="round" opacity="0.95">
    <title>5071 e:1</title>
  </polyline>
</svg>
