<?xml version="1.0" encoding="UTF-8"?>
<svg xmlns="http://www.w3.org/2000/svg" width="97" height="91" viewBox="0 0 97 91">
  <title>particle img4-m80-p1 a:1 m:1 c:1 a:1</title>
  <metadata>{&quot;entityType&quot;:&quot;particle&quot;,&quot;entityId&quot;:&quot;img4-m80-p1&quot;,&quot;token&quot;:&quot;a:1 m:1 c:1 a:1&quot;,&quot;signature&quot;:&quot;a:1 m:1 c:1 a:1&quot;,&quot;imageName&quot;:&quot;page-004.jpg&quot;,&quot;imageId&quot;:4,&quot;bounds&quot;:{&quot;x&quot;:545,&quot;y&quot;:2669,&quot;w&quot;:97,&quot;h&quot;:91},&quot;atoms&quot;:[{&quot;id&quot;:4719,&quot;token&quot;:&quot;a:1&quot;,&quot;particle_id&quot;:&quot;img4-m80-p1&quot;,&quot;molecule_id&quot;:&quot;img4-m80&quot;,&quot;atom_order&quot;:1},{&quot;id&quot;:5470,&quot;token&quot;:&quot;m:1&quot;,&quot;particle_id&quot;:&quot;img4-m80-p1&quot;,&quot;molecule_id&quot;:&quot;img4-m80&quot;,&quot;atom_order&quot;:2},{&quot;id&quot;:4906,&quot;token&quot;:&quot;c:1&quot;,&quot;particle_id&quot;:&quot;img4-m80-p1&quot;,&quot;molecule_id&quot;:&quot;img4-m80&quot;,&quot;atom_order&quot;:3},{&quot;id&quot;:4720,&quot;token&quot;:&quot;a:1&quot;,&quot;particle_id&quot;:&quot;img4-m80-p1&quot;,&quot;molecule_id&quot;:&quot;img4-m80&quot;,&quot;atom_order&quot;:4}]}</metadata>
  <rect x="0" y="0" width="97" height="91" fill="#f8f0d8"/>
  <image href="file:///C:/Users/HHHES/AppData/Roaming/com.voynichlab.datasetcreator/images/1/aff30327-ced8-4ab4-8c9b-190205ebe022.jpg" x="-545" y="-2669" width="2804" height="3797" opacity="0.92"/>
  <rect x="0.5" y="0.5" width="96" height="90" fill="none" stroke="#111827" stroke-width="1" opacity="0.35"/>
  <polyline points="38,75 38,74 38,73 39,72 39,71 39,70 39,69 39,68 39,67 39,66 39,65 39,64 39,63 39,62 39,61 39,60 39,59 39,58 39,57 39,56 39,55 39,54 39,53 39,52 39,51 39,50 39,49 39,48 39,47 39,46 39,45 39,44" fill="none" stroke="#00f0b5" stroke-width="3" stroke-linecap="round" stroke-linejoin="round" opacity="0.95">
    <title>4719 a:1</title>
  </polyline>
  <polyline points="39,45 39,44 39,43 39,42 40,41 40,40 40,39 40,38 40,36 40,35 41,33 41,31 41,30 41,28 41,27 41,26 41,25 41,24 41,23 41,22 41,21 41,20 41,19 41,18 41,17 40,17 40,16 39,16 38,16 38,17 37,17 36,17 35,18 34,19 33,19 32,19 31,19 31,20 30,20 29,20 28,21 27,22 26,22 25,22 23,24 22,24 21,25 20,25 20,26 19,26 19,27 18,27 17,28 17,29 16,29 16,30 17,30 18,30 19,30 20,30 21,30 22,30 23,30 25,31 26,31 28,31 31,31 33,31 34,31 35,31 36,31 37,31 39,31 40,31 42,31 44,31 45,31 46,31 47,31 48,31 49,31 51,31 52,31 53,30 54,30 55,30 56,30 58,30 59,30 61,31 62,31 63,31 64,31 66,31 67,31 69,31 70,31" fill="none" stroke="#ff00ff" stroke-width="3" stroke-linecap="round" stroke-linejoin="round" opacity="0.95">
    <title>5470 m:1</title>
  </polyline>
  <polyline points="61,28 62,28 62,29 63,29 64,29 64,30 65,30 66,30 67,30 68,31 69,31 70,31 71,31 73,31 74,31 75,31 75,30 76,30 77,30 77,29 78,29 79,29 79,28 80,28 80,27 81,27 81,26 81,25 81,24 81,23 81,22 80,22 80,21 79,21 79,20 78,20 77,20 76,19 75,19 74,19 73,19 72,19 71,19 71,20 70,20 69,20 68,20 67,20 67,21 66,21 65,21 65,22 64,22 64,23 63,24 63,25 63,26 63,27 63,28 62,28 62,29" fill="none" stroke="#8aff00" stroke-width="3" stroke-linecap="round" stroke-linejoin="round" opacity="0.95">
    <title>4906 c:1</title>
  </polyline>
  <polyline points="64,21 64,22 63,22 63,23 63,24 62,25 62,26 62,27 61,29 61,31 60,31 60,33 60,34 60,35 60,36 60,38 60,39 60,40 60,41 60,42 60,43 60,44 60,45 60,46 60,47 60,48 60,49 60,50 60,51 60,52 60,54 60,55 60,56 60,57 60,58 59,59 59,60 59,61 59,62 59,63 59,64 59,65 58,66 58,67 58,68 58,69 58,70 58,71 58,72" fill="none" stroke="#00f0b5" stroke-width="3" stroke-linecap="round" stroke-linejoin="round" opacity="0.95">
    <title>4720 a:1</title>
  </polyline>
</svg>
