<?xml version="1.0" encoding="UTF-8"?>
<svg xmlns="http://www.w3.org/2000/svg" width="82" height="56" viewBox="0 0 82 56">
  <title>particle img4-m14-p2 e:1 g:1 e:1</title>
  <metadata>{&quot;entityType&quot;:&quot;particle&quot;,&quot;entityId&quot;:&quot;img4-m14-p2&quot;,&quot;token&quot;:&quot;e:1 g:1 e:1&quot;,&quot;signature&quot;:&quot;e:1 g:1 e:1&quot;,&quot;imageName&quot;:&quot;page-004.jpg&quot;,&quot;imageId&quot;:4,&quot;bounds&quot;:{&quot;x&quot;:1740,&quot;y&quot;:2038,&quot;w&quot;:82,&quot;h&quot;:56},&quot;atoms&quot;:[{&quot;id&quot;:4945,&quot;token&quot;:&quot;e:1&quot;,&quot;particle_id&quot;:&quot;img4-m14-p2&quot;,&quot;molecule_id&quot;:&quot;img4-m14&quot;,&quot;atom_order&quot;:1},{&quot;id&quot;:5144,&quot;token&quot;:&quot;g:1&quot;,&quot;particle_id&quot;:&quot;img4-m14-p2&quot;,&quot;molecule_id&quot;:&quot;img4-m14&quot;,&quot;atom_order&quot;:2},{&quot;id&quot;:4944,&quot;token&quot;:&quot;e:1&quot;,&quot;particle_id&quot;:&quot;img4-m14-p2&quot;,&quot;molecule_id&quot;:&quot;img4-m14&quot;,&quot;atom_order&quot;:3}]}</metadata>
  <rect x="0" y="0" width="82" height="56" fill="#f8f0d8"/>
  <image href="file:///C:/Users/HHHES/AppData/Roaming/com.voynichlab.datasetcreator/images/1/aff30327-ced8-4ab4-8c9b-190205ebe022.jpg" x="-1740" y="-2038" width="2804" height="3797" opacity="0.92"/>
  <rect x="0.5" y="0.5" width="81" height="55" fill="none" stroke="#111827" stroke-width="1" opacity="0.35"/>
  <polyline points="31,33 31,34 30,34 30,35 29,35 28,35 28,36 27,36 26,36 25,36 24,36 23,36 22,36 21,36 21,35 20,35 19,35 18,35 18,34 17,34 16,34 16,33 16,32 16,31 16,30 16,29 16,28 16,27 17,27 17,26 17,25 17,24 18,24 18,23 18,22 19,22 19,21 19,20 20,20 21,20 21,19 22,19 22,18 23,18 24,18 24,17 25,17 26,17 27,17 27,16" fill="none" stroke="#f2e45c" stroke-width="3" stroke-linecap="round" stroke-linejoin="round" opacity="0.95">
    <title>4945 e:1</title>
  </polyline>
  <polyline points="24,16 25,17 26,17 27,17 28,17 29,17 30,18 31,18 32,18 33,18 34,18 35,19 36,19 37,19 38,19 39,19 40,19 41,19 42,19 43,19 44,19 45,20 46,20 47,20 48,20 49,20 50,20 51,20 52,20 53,21 54,21 55,21 56,21 57,21 58,21 59,21 60,21 61,21 62,21" fill="none" stroke="#7c3cff" stroke-width="3" stroke-linecap="round" stroke-linejoin="round" opacity="0.95">
    <title>5144 g:1</title>
  </polyline>
  <polyline points="66,37 66,38 65,38 65,39 64,39 63,39 63,40 62,40 61,40 60,40 59,40 58,40 57,40 56,40 56,39 55,39 54,39 53,39 53,38 52,38 51,38 51,37 51,36 51,35 51,34 51,33 51,32 51,31 52,31 52,30 52,29 52,28 53,28 53,27 53,26 54,26 54,25 54,24 55,24 56,24 56,23 57,23 57,22 58,22 59,22 59,21 60,21 61,21 62,21 62,20" fill="none" stroke="#f2e45c" stroke-width="3" stroke-linecap="round" stroke-linejoin="round" opacity="0.95">
    <title>4944 e:1</title>
  </polyline>
</svg>
