<?xml version="1.0" encoding="UTF-8"?>
<svg xmlns="http://www.w3.org/2000/svg" width="58" height="77" viewBox="0 0 58 77">
  <title>particle img4-m57-p1 e:1 c:1 h:2</title>
  <metadata>{&quot;entityType&quot;:&quot;particle&quot;,&quot;entityId&quot;:&quot;img4-m57-p1&quot;,&quot;token&quot;:&quot;e:1 c:1 h:2&quot;,&quot;signature&quot;:&quot;e:1 c:1 h:2&quot;,&quot;imageName&quot;:&quot;page-004.jpg&quot;,&quot;imageId&quot;:4,&quot;bounds&quot;:{&quot;x&quot;:1697,&quot;y&quot;:2509,&quot;w&quot;:58,&quot;h&quot;:77},&quot;atoms&quot;:[{&quot;id&quot;:5061,&quot;token&quot;:&quot;e:1&quot;,&quot;particle_id&quot;:&quot;img4-m57-p1&quot;,&quot;molecule_id&quot;:&quot;img4-m57&quot;,&quot;atom_order&quot;:1},{&quot;id&quot;:4856,&quot;token&quot;:&quot;c:1&quot;,&quot;particle_id&quot;:&quot;img4-m57-p1&quot;,&quot;molecule_id&quot;:&quot;img4-m57&quot;,&quot;atom_order&quot;:2},{&quot;id&quot;:5315,&quot;token&quot;:&quot;h:2&quot;,&quot;particle_id&quot;:&quot;img4-m57-p1&quot;,&quot;molecule_id&quot;:&quot;img4-m57&quot;,&quot;atom_order&quot;:3}]}</metadata>
  <rect x="0" y="0" width="58" height="77" fill="#f8f0d8"/>
  <image href="file:///C:/Users/HHHES/AppData/Roaming/com.voynichlab.datasetcreator/images/1/aff30327-ced8-4ab4-8c9b-190205ebe022.jpg" x="-1697" y="-2509" width="2804" height="3797" opacity="0.92"/>
  <rect x="0.5" y="0.5" width="57" height="76" fill="none" stroke="#111827" stroke-width="1" opacity="0.35"/>
  <polyline points="31,58 31,59 30,59 30,60 29,60 28,60 28,61 27,61 26,61 25,61 24,61 23,61 22,61 21,61 21,60 20,60 19,60 18,60 18,59 17,59 16,59 16,58 16,57 16,56 16,55 16,54 16,53 16,52 17,52 17,51 17,50 17,49 18,49 18,48 18,47 19,47 19,46 19,45 20,45 21,45 21,44 22,44 22,43 23,43 24,43 24,42 25,42 26,42 27,42 27,41" fill="none" stroke="#f2e45c" stroke-width="3" stroke-linecap="round" stroke-linejoin="round" opacity="0.95">
    <title>5061 e:1</title>
  </polyline>
  <polyline points="34,34 35,34 35,33 36,33 36,32 37,32 38,31 38,30 39,29 39,28 40,28 40,27 41,27 41,26 41,25 42,25 42,24 42,23 42,22 42,21 42,20 41,20 41,19 40,18 39,17 38,17 37,17 36,16 35,16 33,16 32,16 31,16 30,16 30,17 29,17 28,18 27,19 26,19 25,20 25,21 24,21 24,22 24,23 23,23 23,24 23,25 23,26 23,27 24,27 24,28 24,29 25,29 25,30 26,31 27,32 28,32 28,33 29,33 30,33 31,33 32,33 32,34 33,34 34,34 35,34 36,33" fill="none" stroke="#8aff00" stroke-width="3" stroke-linecap="round" stroke-linejoin="round" opacity="0.95">
    <title>4856 c:1</title>
  </polyline>
  <polyline points="26,19 25,19 25,20 24,20 24,21 24,22 24,23 24,24 25,25 25,26 26,27 26,28 26,29 26,30 27,30 27,31 28,31 28,32 29,33 29,34 30,35 30,36 31,37 31,38 32,39 32,40 32,41 33,42 33,43 33,44 34,45 34,46 34,47 34,48 34,49 34,50 34,51 34,52 33,52 33,53 32,53 32,54 31,55 31,56 30,56 29,57 29,58 28,58 28,59 27,59 26,60 25,60 24,60" fill="none" stroke="#ff8c00" stroke-width="3" stroke-linecap="round" stroke-linejoin="round" opacity="0.95">
    <title>5315 h:2</title>
  </polyline>
</svg>
