<?xml version="1.0" encoding="UTF-8"?>
<svg xmlns="http://www.w3.org/2000/svg" width="53" height="78" viewBox="0 0 53 78">
  <title>particle img4-m29-p4 e:1 h:1</title>
  <metadata>{&quot;entityType&quot;:&quot;particle&quot;,&quot;entityId&quot;:&quot;img4-m29-p4&quot;,&quot;token&quot;:&quot;e:1 h:1&quot;,&quot;signature&quot;:&quot;e:1 h:1&quot;,&quot;imageName&quot;:&quot;page-004.jpg&quot;,&quot;imageId&quot;:4,&quot;bounds&quot;:{&quot;x&quot;:1978,&quot;y&quot;:2186,&quot;w&quot;:53,&quot;h&quot;:78},&quot;atoms&quot;:[{&quot;id&quot;:4981,&quot;token&quot;:&quot;e:1&quot;,&quot;particle_id&quot;:&quot;img4-m29-p4&quot;,&quot;molecule_id&quot;:&quot;img4-m29&quot;,&quot;atom_order&quot;:1},{&quot;id&quot;:5273,&quot;token&quot;:&quot;h:1&quot;,&quot;particle_id&quot;:&quot;img4-m29-p4&quot;,&quot;molecule_id&quot;:&quot;img4-m29&quot;,&quot;atom_order&quot;:2}]}</metadata>
  <rect x="0" y="0" width="53" height="78" fill="#f8f0d8"/>
  <image href="file:///C:/Users/HHHES/AppData/Roaming/com.voynichlab.datasetcreator/images/1/aff30327-ced8-4ab4-8c9b-190205ebe022.jpg" x="-1978" y="-2186" width="2804" height="3797" opacity="0.92"/>
  <rect x="0.5" y="0.5" width="52" height="77" fill="none" stroke="#111827" stroke-width="1" opacity="0.35"/>
  <polyline points="31,34 31,35 30,35 30,36 29,36 28,36 28,37 27,37 26,37 25,37 24,37 23,37 22,37 21,37 21,36 20,36 19,36 18,36 18,35 17,35 16,35 16,34 16,33 16,32 16,31 16,30 16,29 16,28 17,28 17,27 17,26 17,25 18,25 18,24 18,23 19,23 19,22 19,21 20,21 21,21 21,20 22,20 22,19 23,19 24,19 24,18 25,18 26,18 27,18 27,17" fill="none" stroke="#f2e45c" stroke-width="3" stroke-linecap="round" stroke-linejoin="round" opacity="0.95">
    <title>4981 e:1</title>
  </polyline>
  <polyline points="28,16 28,17 28,18 29,18 29,19 30,19 30,20 31,20 31,21 32,21 32,22 33,22 33,23 34,24 35,25 35,26 35,27 35,28 36,29 36,30 37,30 37,31 37,32 37,33 37,34 37,35 37,36 37,37 37,38 37,39 36,41 35,42 35,43 34,44 34,45 33,46 33,47 32,49 31,50 30,51 29,52 28,53 27,54 26,55 25,56 25,57 24,57 24,58 22,59 21,60 20,61 19,62" fill="none" stroke="#ff8c00" stroke-width="3" stroke-linecap="round" stroke-linejoin="round" opacity="0.95">
    <title>5273 h:1</title>
  </polyline>
</svg>
