<?xml version="1.0" encoding="UTF-8"?>
<svg xmlns="http://www.w3.org/2000/svg" width="50" height="55" viewBox="0 0 50 55">
  <title>particle img4-m73-p1 n:1</title>
  <metadata>{&quot;entityType&quot;:&quot;particle&quot;,&quot;entityId&quot;:&quot;img4-m73-p1&quot;,&quot;token&quot;:&quot;n:1&quot;,&quot;signature&quot;:&quot;n:1&quot;,&quot;imageName&quot;:&quot;page-004.jpg&quot;,&quot;imageId&quot;:4,&quot;bounds&quot;:{&quot;x&quot;:571,&quot;y&quot;:2600,&quot;w&quot;:50,&quot;h&quot;:55},&quot;atoms&quot;:[{&quot;id&quot;:5465,&quot;token&quot;:&quot;n:1&quot;,&quot;particle_id&quot;:&quot;img4-m73-p1&quot;,&quot;molecule_id&quot;:&quot;img4-m73&quot;,&quot;atom_order&quot;:1}]}</metadata>
  <rect x="0" y="0" width="50" height="55" fill="#f8f0d8"/>
  <image href="file:///C:/Users/HHHES/AppData/Roaming/com.voynichlab.datasetcreator/images/1/aff30327-ced8-4ab4-8c9b-190205ebe022.jpg" x="-571" y="-2600" width="2804" height="3797" opacity="0.92"/>
  <rect x="0.5" y="0.5" width="49" height="54" fill="none" stroke="#111827" stroke-width="1" opacity="0.35"/>
  <polyline points="16,28 16,27 16,26 16,25 17,24 17,22 18,21 19,20 20,19 21,19 21,18 22,18 23,18 25,17 26,17 27,17 27,16 28,16 28,17 29,18 30,19 31,20 32,22 32,23 33,24 33,25 34,26 34,27 34,28 34,29 34,30 34,31 34,32 34,33 34,34 33,35 32,36 31,37 30,38 29,38 29,39 28,39" fill="none" stroke="#f92f59" stroke-width="3" stroke-linecap="round" stroke-linejoin="round" opacity="0.95">
    <title>5465 n:1</title>
  </polyline>
</svg>
