<?xml version="1.0" encoding="UTF-8"?>
<svg xmlns="http://www.w3.org/2000/svg" width="141" height="131" viewBox="0 0 141 131">
  <title>particle img4-m4-p1 e:1 a:1 b:1 c:1 a:1 b:1 d:1 g:1 e:1</title>
  <metadata>{&quot;entityType&quot;:&quot;particle&quot;,&quot;entityId&quot;:&quot;img4-m4-p1&quot;,&quot;token&quot;:&quot;e:1 a:1 b:1 c:1 a:1 b:1 d:1 g:1 e:1&quot;,&quot;signature&quot;:&quot;e:1 a:1 b:1 c:1 a:1 b:1 d:1 g:1 e:1&quot;,&quot;imageName&quot;:&quot;page-004.jpg&quot;,&quot;imageId&quot;:4,&quot;bounds&quot;:{&quot;x&quot;:2186,&quot;y&quot;:1924,&quot;w&quot;:141,&quot;h&quot;:131},&quot;atoms&quot;:[{&quot;id&quot;:4931,&quot;token&quot;:&quot;e:1&quot;,&quot;particle_id&quot;:&quot;img4-m4-p1&quot;,&quot;molecule_id&quot;:&quot;img4-m4&quot;,&quot;atom_order&quot;:1},{&quot;id&quot;:4658,&quot;token&quot;:&quot;a:1&quot;,&quot;particle_id&quot;:&quot;img4-m4-p1&quot;,&quot;molecule_id&quot;:&quot;img4-m4&quot;,&quot;atom_order&quot;:2},{&quot;id&quot;:4730,&quot;token&quot;:&quot;b:1&quot;,&quot;particle_id&quot;:&quot;img4-m4-p1&quot;,&quot;molecule_id&quot;:&quot;img4-m4&quot;,&quot;atom_order&quot;:3},{&quot;id&quot;:4934,&quot;token&quot;:&quot;c:1&quot;,&quot;particle_id&quot;:&quot;img4-m4-p1&quot;,&quot;molecule_id&quot;:&quot;img4-m4&quot;,&quot;atom_order&quot;:4},{&quot;id&quot;:4659,&quot;token&quot;:&quot;a:1&quot;,&quot;particle_id&quot;:&quot;img4-m4-p1&quot;,&quot;molecule_id&quot;:&quot;img4-m4&quot;,&quot;atom_order&quot;:5},{&quot;id&quot;:4729,&quot;token&quot;:&quot;b:1&quot;,&quot;particle_id&quot;:&quot;img4-m4-p1&quot;,&quot;molecule_id&quot;:&quot;img4-m4&quot;,&quot;atom_order&quot;:6},{&quot;id&quot;:5337,&quot;token&quot;:&quot;d:1&quot;,&quot;particle_id&quot;:&quot;img4-m4-p1&quot;,&quot;molecule_id&quot;:&quot;img4-m4&quot;,&quot;atom_order&quot;:7},{&quot;id&quot;:5142,&quot;token&quot;:&quot;g:1&quot;,&quot;particle_id&quot;:&quot;img4-m4-p1&quot;,&quot;molecule_id&quot;:&quot;img4-m4&quot;,&quot;atom_order&quot;:8},{&quot;id&quot;:4932,&quot;token&quot;:&quot;e:1&quot;,&quot;particle_id&quot;:&quot;img4-m4-p1&quot;,&quot;molecule_id&quot;:&quot;img4-m4&quot;,&quot;atom_order&quot;:9}]}</metadata>
  <rect x="0" y="0" width="141" height="131" fill="#f8f0d8"/>
  <image href="file:///C:/Users/HHHES/AppData/Roaming/com.voynichlab.datasetcreator/images/1/aff30327-ced8-4ab4-8c9b-190205ebe022.jpg" x="-2186" y="-1924" width="2804" height="3797" opacity="0.92"/>
  <rect x="0.5" y="0.5" width="140" height="130" fill="none" stroke="#111827" stroke-width="1" opacity="0.35"/>
  <polyline points="49,107 49,108 48,108 48,109 47,109 46,109 46,110 45,110 44,110 43,110 42,110 41,110 40,110 39,110 39,109 38,109 37,109 36,109 36,108 35,108 34,108 34,107 34,106 34,105 34,104 34,103 34,102 34,101 35,101 35,100 35,99 35,98 36,98 36,97 36,96 37,96 37,95 37,94 38,94 39,94 39,93 40,93 40,92 41,92 42,92 42,91 43,91 44,91 45,91 45,90" fill="none" stroke="#f2e45c" stroke-width="3" stroke-linecap="round" stroke-linejoin="round" opacity="0.95">
    <title>4931 e:1</title>
  </polyline>
  <polyline points="64,111 64,110 64,109 64,108 64,107 64,106 64,105 64,104 64,103 64,102 64,101 64,100 64,99 64,98 64,97 64,96 64,95 64,94 64,93 64,92 64,91 64,90 64,89 64,88 64,87 64,86 64,85 64,84 64,83 64,82 64,81 64,80 65,80 65,79 65,78 65,77 65,76 65,75 65,74 65,73 65,72 65,71 66,71 66,70 66,69 66,68 66,67 66,66 66,65 66,64 66,63 66,62 66,61 67,61 67,60 67,59 67,58 67,57 67,56 67,55 67,54 67,53 67,52 68,52 68,51 68,50 69,49 69,48 69,47 69,46 69,45 69,44 70,44 70,43 70,42 70,41 71,40 71,39 71,38 71,37 71,36 71,35 71,34 71,33 71,32 71,31" fill="none" stroke="#00f0b5" stroke-width="3" stroke-linecap="round" stroke-linejoin="round" opacity="0.95">
    <title>4658 a:1</title>
  </polyline>
  <polyline points="97,64 97,65 97,66 96,67 96,68 95,68 94,68 93,68 92,68 91,69 90,69 89,69 88,69 87,69 86,69 85,69 84,69 83,69 82,69 81,69 80,69 79,69 78,69 77,69 76,69 75,69 74,69 73,69 72,69 72,68 71,68 70,68 69,68 68,68 68,67 67,67 66,67 65,67 64,66 63,66 62,66 61,65 60,65 59,65 58,64 57,64" fill="none" stroke="#2f7df6" stroke-width="3" stroke-linecap="round" stroke-linejoin="round" opacity="0.95">
    <title>4730 b:1</title>
  </polyline>
  <polyline points="119,29 119,28 120,27 120,26 120,25 120,24 121,24 121,23 120,22 120,21 119,20 119,19 118,19 118,18 117,18 117,17 116,17 116,16 115,16 114,16 113,16 112,16 111,16 110,16 109,16 108,16 107,16 106,16 106,17 105,17 104,17 104,18 103,18 102,18 102,19 101,19 101,20 100,20 100,21 99,22 99,23 98,23 98,24 98,25 98,26 98,27 98,28 98,29 98,30 98,31 98,32 98,33 99,33 99,34 99,35 100,35 101,36 102,36 103,37 104,37 105,37 106,37 107,37 108,37 109,37 109,36 110,36 111,36 112,35 113,34 114,34 114,33 115,33 116,32 117,32 117,31 118,31 118,30 118,29 119,29 119,28 120,28 120,27" fill="none" stroke="#8aff00" stroke-width="3" stroke-linecap="round" stroke-linejoin="round" opacity="0.95">
    <title>4934 c:1</title>
  </polyline>
  <polyline points="98,20 98,21 98,22 98,23 98,25 98,26 98,27 98,28 98,29 98,30 98,31 98,32 98,33 98,34 98,35 98,36 98,37 98,38 98,39 98,41 97,42 97,43 97,44 97,45 97,46 97,47 97,48 97,49 97,50 97,51 97,52 96,53 96,54 96,56 96,57 96,58 96,59 96,60 96,61 96,62 96,63 96,64 96,65 96,66 96,67 96,68 96,69" fill="none" stroke="#00f0b5" stroke-width="3" stroke-linecap="round" stroke-linejoin="round" opacity="0.95">
    <title>4659 a:1</title>
  </polyline>
  <polyline points="70,31 70,32 71,32 72,32 72,33 73,33 73,34 74,35 75,35 75,36 76,36 77,36 78,37 79,37 80,37 81,37 82,37 84,37 85,37 86,37 87,37 88,38 89,38 90,38 91,38 92,38 93,38 94,38 95,38 96,38 97,38 98,38 99,38 100,38 101,38 102,39 103,39 104,39 105,39 106,38 107,38 108,37 109,37 110,37 111,36 112,36 112,35 113,35 114,34 115,33 116,33 117,32 117,31 118,31 118,30 118,29 119,29" fill="none" stroke="#2f7df6" stroke-width="3" stroke-linecap="round" stroke-linejoin="round" opacity="0.95">
    <title>4729 b:1</title>
  </polyline>
  <polyline points="29,78 28,78 27,79 27,78 26,78 25,78 24,78 24,77 23,77 22,77 22,76 21,76 21,75 20,75 20,74 19,74 19,73 18,72 18,71 17,71 17,70 17,69 17,68 16,68 16,67 16,66 16,65 16,64 16,63 16,62 17,62 17,61 18,60 19,60 19,59 20,59 21,59 21,58 22,58 23,58 24,58 24,57 25,57 26,57 27,57 28,57 29,57 30,57 31,57 32,57 33,57 35,57 36,58 37,58 38,58 39,58 40,58 41,58 42,59 43,59 44,60 45,60 46,60 47,60 47,61 48,61 49,62 50,62 50,63 52,63 52,64 53,64 54,65 55,65 56,65 57,66 58,66 59,66 60,66 61,66 62,66 63,66 64,66 64,67 65,67 66,67" fill="none" stroke="#ff2d55" stroke-width="3" stroke-linecap="round" stroke-linejoin="round" opacity="0.95">
    <title>5337 d:1</title>
  </polyline>
  <polyline points="44,90 45,90 46,90 47,90 48,90 49,90 50,90 51,91 52,91 54,91 56,91 57,91 58,91 59,91 60,91 61,91 62,91 63,91 66,92 67,92 68,92 69,92 70,92 71,92 72,92 74,92 77,92 78,92 79,92 80,92 81,92 82,92 83,92 84,92 85,93 86,93 87,93 89,93 90,93 91,93 93,93 94,93 95,93 97,94 98,94 99,94 100,94 101,94 102,94 104,94 105,94 106,94 107,94 108,94 109,94 110,94 111,94 112,94 113,94 114,94 115,94 116,94 117,94 117,95 118,95 119,95 120,95 120,96 121,96" fill="none" stroke="#7c3cff" stroke-width="3" stroke-linecap="round" stroke-linejoin="round" opacity="0.95">
    <title>5142 g:1</title>
  </polyline>
  <polyline points="125,112 125,113 124,113 124,114 123,114 122,114 122,115 121,115 120,115 119,115 118,115 117,115 116,115 115,115 115,114 114,114 113,114 112,114 112,113 111,113 110,113 110,112 110,111 110,110 110,109 110,108 110,107 110,106 111,106 111,105 111,104 111,103 112,103 112,102 112,101 113,101 113,100 113,99 114,99 115,99 115,98 116,98 116,97 117,97 118,97 118,96 119,96 120,96 121,96 121,95" fill="none" stroke="#f2e45c" stroke-width="3" stroke-linecap="round" stroke-linejoin="round" opacity="0.95">
    <title>4932 e:1</title>
  </polyline>
</svg>
