<?xml version="1.0" encoding="UTF-8"?>
<svg xmlns="http://www.w3.org/2000/svg" width="97" height="52" viewBox="0 0 97 52">
  <title>particle img4-m42-p5 e:1 g:1 e:1</title>
  <metadata>{&quot;entityType&quot;:&quot;particle&quot;,&quot;entityId&quot;:&quot;img4-m42-p5&quot;,&quot;token&quot;:&quot;e:1 g:1 e:1&quot;,&quot;signature&quot;:&quot;e:1 g:1 e:1&quot;,&quot;imageName&quot;:&quot;page-004.jpg&quot;,&quot;imageId&quot;:4,&quot;bounds&quot;:{&quot;x&quot;:2338,&quot;y&quot;:2415,&quot;w&quot;:97,&quot;h&quot;:52},&quot;atoms&quot;:[{&quot;id&quot;:5019,&quot;token&quot;:&quot;e:1&quot;,&quot;particle_id&quot;:&quot;img4-m42-p5&quot;,&quot;molecule_id&quot;:&quot;img4-m42&quot;,&quot;atom_order&quot;:1},{&quot;id&quot;:5163,&quot;token&quot;:&quot;g:1&quot;,&quot;particle_id&quot;:&quot;img4-m42-p5&quot;,&quot;molecule_id&quot;:&quot;img4-m42&quot;,&quot;atom_order&quot;:2},{&quot;id&quot;:5020,&quot;token&quot;:&quot;e:1&quot;,&quot;particle_id&quot;:&quot;img4-m42-p5&quot;,&quot;molecule_id&quot;:&quot;img4-m42&quot;,&quot;atom_order&quot;:3}]}</metadata>
  <rect x="0" y="0" width="97" height="52" fill="#f8f0d8"/>
  <image href="file:///C:/Users/HHHES/AppData/Roaming/com.voynichlab.datasetcreator/images/1/aff30327-ced8-4ab4-8c9b-190205ebe022.jpg" x="-2338" y="-2415" width="2804" height="3797" opacity="0.92"/>
  <rect x="0.5" y="0.5" width="96" height="51" fill="none" stroke="#111827" stroke-width="1" opacity="0.35"/>
  <polyline points="31,33 31,34 30,34 30,35 29,35 28,35 28,36 27,36 26,36 25,36 24,36 23,36 22,36 21,36 21,35 20,35 19,35 18,35 18,34 17,34 16,34 16,33 16,32 16,31 16,30 16,29 16,28 16,27 17,27 17,26 17,25 17,24 18,24 18,23 18,22 19,22 19,21 19,20 20,20 21,20 21,19 22,19 22,18 23,18 24,18 24,17 25,17 26,17 27,17 27,16" fill="none" stroke="#f2e45c" stroke-width="3" stroke-linecap="round" stroke-linejoin="round" opacity="0.95">
    <title>5019 e:1</title>
  </polyline>
  <polyline points="25,16 26,16 27,17 28,17 29,17 31,17 32,17 33,17 34,17 36,17 38,17 41,17 43,17 44,17 45,17 46,17 49,17 53,17 55,17 56,17 57,17 58,17 59,18 60,18 61,18 64,18 66,18 67,18 68,18 69,18 70,18 71,18 72,18 73,18 74,18" fill="none" stroke="#7c3cff" stroke-width="3" stroke-linecap="round" stroke-linejoin="round" opacity="0.95">
    <title>5163 g:1</title>
  </polyline>
  <polyline points="81,33 81,34 80,34 80,35 79,35 78,35 78,36 77,36 76,36 75,36 74,36 73,36 72,36 71,36 71,35 70,35 69,35 68,35 68,34 67,34 66,34 66,33 66,32 66,31 66,30 66,29 66,28 66,27 67,27 67,26 67,25 67,24 68,24 68,23 68,22 69,22 69,21 69,20 70,20 71,20 71,19 72,19 72,18 73,18 74,18 74,17 75,17 76,17 77,17 77,16" fill="none" stroke="#f2e45c" stroke-width="3" stroke-linecap="round" stroke-linejoin="round" opacity="0.95">
    <title>5020 e:1</title>
  </polyline>
</svg>
