<?xml version="1.0" encoding="UTF-8"?>
<svg xmlns="http://www.w3.org/2000/svg" width="97" height="54" viewBox="0 0 97 54">
  <title>particle img4-m86-p1 e:1 g:1 e:1</title>
  <metadata>{&quot;entityType&quot;:&quot;particle&quot;,&quot;entityId&quot;:&quot;img4-m86-p1&quot;,&quot;token&quot;:&quot;e:1 g:1 e:1&quot;,&quot;signature&quot;:&quot;e:1 g:1 e:1&quot;,&quot;imageName&quot;:&quot;page-004.jpg&quot;,&quot;imageId&quot;:4,&quot;bounds&quot;:{&quot;x&quot;:740,&quot;y&quot;:2715,&quot;w&quot;:97,&quot;h&quot;:54},&quot;atoms&quot;:[{&quot;id&quot;:5137,&quot;token&quot;:&quot;e:1&quot;,&quot;particle_id&quot;:&quot;img4-m86-p1&quot;,&quot;molecule_id&quot;:&quot;img4-m86&quot;,&quot;atom_order&quot;:1},{&quot;id&quot;:5194,&quot;token&quot;:&quot;g:1&quot;,&quot;particle_id&quot;:&quot;img4-m86-p1&quot;,&quot;molecule_id&quot;:&quot;img4-m86&quot;,&quot;atom_order&quot;:2},{&quot;id&quot;:5136,&quot;token&quot;:&quot;e:1&quot;,&quot;particle_id&quot;:&quot;img4-m86-p1&quot;,&quot;molecule_id&quot;:&quot;img4-m86&quot;,&quot;atom_order&quot;:3}]}</metadata>
  <rect x="0" y="0" width="97" height="54" fill="#f8f0d8"/>
  <image href="file:///C:/Users/HHHES/AppData/Roaming/com.voynichlab.datasetcreator/images/1/aff30327-ced8-4ab4-8c9b-190205ebe022.jpg" x="-740" y="-2715" width="2804" height="3797" opacity="0.92"/>
  <rect x="0.5" y="0.5" width="96" height="53" fill="none" stroke="#111827" stroke-width="1" opacity="0.35"/>
  <polyline points="31,33 31,34 30,34 30,35 29,35 28,35 28,36 27,36 26,36 25,36 24,36 23,36 22,36 21,36 21,35 20,35 19,35 18,35 18,34 17,34 16,34 16,33 16,32 16,31 16,30 16,29 16,28 16,27 17,27 17,26 17,25 17,24 18,24 18,23 18,22 19,22 19,21 19,20 20,20 21,20 21,19 22,19 22,18 23,18 24,18 24,17 25,17 26,17 27,17 27,16" fill="none" stroke="#f2e45c" stroke-width="3" stroke-linecap="round" stroke-linejoin="round" opacity="0.95">
    <title>5137 e:1</title>
  </polyline>
  <polyline points="23,18 24,18 24,17 25,17 26,17 27,17 28,17 30,17 31,17 33,17 35,17 37,18 39,18 40,18 43,18 45,18 47,18 49,19 52,19 54,19 56,19 57,19 58,19 60,19 62,20 64,20 65,20 66,20 68,20 69,20 72,20 73,20 74,20 75,20 76,20 77,20" fill="none" stroke="#7c3cff" stroke-width="3" stroke-linecap="round" stroke-linejoin="round" opacity="0.95">
    <title>5194 g:1</title>
  </polyline>
  <polyline points="81,35 81,36 80,36 80,37 79,37 78,37 78,38 77,38 76,38 75,38 74,38 73,38 72,38 71,38 71,37 70,37 69,37 68,37 68,36 67,36 66,36 66,35 66,34 66,33 66,32 66,31 66,30 66,29 67,29 67,28 67,27 67,26 68,26 68,25 68,24 69,24 69,23 69,22 70,22 71,22 71,21 72,21 72,20 73,20 74,20 74,19 75,19 76,19 77,19 77,18" fill="none" stroke="#f2e45c" stroke-width="3" stroke-linecap="round" stroke-linejoin="round" opacity="0.95">
    <title>5136 e:1</title>
  </polyline>
</svg>
