<?xml version="1.0" encoding="UTF-8"?>
<svg xmlns="http://www.w3.org/2000/svg" width="54" height="51" viewBox="0 0 54 51">
  <title>particle img4-m84-p1 n:1</title>
  <metadata>{&quot;entityType&quot;:&quot;particle&quot;,&quot;entityId&quot;:&quot;img4-m84-p1&quot;,&quot;token&quot;:&quot;n:1&quot;,&quot;signature&quot;:&quot;n:1&quot;,&quot;imageName&quot;:&quot;page-004.jpg&quot;,&quot;imageId&quot;:4,&quot;bounds&quot;:{&quot;x&quot;:2268,&quot;y&quot;:2681,&quot;w&quot;:54,&quot;h&quot;:51},&quot;atoms&quot;:[{&quot;id&quot;:5467,&quot;token&quot;:&quot;n:1&quot;,&quot;particle_id&quot;:&quot;img4-m84-p1&quot;,&quot;molecule_id&quot;:&quot;img4-m84&quot;,&quot;atom_order&quot;:1}]}</metadata>
  <rect x="0" y="0" width="54" height="51" fill="#f8f0d8"/>
  <image href="file:///C:/Users/HHHES/AppData/Roaming/com.voynichlab.datasetcreator/images/1/aff30327-ced8-4ab4-8c9b-190205ebe022.jpg" x="-2268" y="-2681" width="2804" height="3797" opacity="0.92"/>
  <rect x="0.5" y="0.5" width="53" height="50" fill="none" stroke="#111827" stroke-width="1" opacity="0.35"/>
  <polyline points="16,33 16,32 16,31 16,30 16,29 16,28 16,27 17,26 17,25 18,25 18,24 19,23 20,22 21,22 23,20 24,19 25,18 26,18 28,17 29,17 29,16 30,16 31,16 31,17 32,17 33,18 34,19 35,20 36,21 37,22 38,23 38,24 38,25 38,26 38,27 37,27 36,28 35,29 34,29 34,30 33,31 32,32 31,33 30,33 28,34 27,34 27,35" fill="none" stroke="#f92f59" stroke-width="3" stroke-linecap="round" stroke-linejoin="round" opacity="0.95">
    <title>5467 n:1</title>
  </polyline>
</svg>
