<?xml version="1.0" encoding="UTF-8"?>
<svg xmlns="http://www.w3.org/2000/svg" width="79" height="108" viewBox="0 0 79 108">
  <title>particle img4-m21-p2 a:1 b:1 c:1 a:1</title>
  <metadata>{&quot;entityType&quot;:&quot;particle&quot;,&quot;entityId&quot;:&quot;img4-m21-p2&quot;,&quot;token&quot;:&quot;a:1 b:1 c:1 a:1&quot;,&quot;signature&quot;:&quot;a:1 b:1 c:1 a:1&quot;,&quot;imageName&quot;:&quot;page-004.jpg&quot;,&quot;imageId&quot;:4,&quot;bounds&quot;:{&quot;x&quot;:1650,&quot;y&quot;:2054,&quot;w&quot;:79,&quot;h&quot;:108},&quot;atoms&quot;:[{&quot;id&quot;:4672,&quot;token&quot;:&quot;a:1&quot;,&quot;particle_id&quot;:&quot;img4-m21-p2&quot;,&quot;molecule_id&quot;:&quot;img4-m21&quot;,&quot;atom_order&quot;:1},{&quot;id&quot;:4734,&quot;token&quot;:&quot;b:1&quot;,&quot;particle_id&quot;:&quot;img4-m21-p2&quot;,&quot;molecule_id&quot;:&quot;img4-m21&quot;,&quot;atom_order&quot;:2},{&quot;id&quot;:4779,&quot;token&quot;:&quot;c:1&quot;,&quot;particle_id&quot;:&quot;img4-m21-p2&quot;,&quot;molecule_id&quot;:&quot;img4-m21&quot;,&quot;atom_order&quot;:3},{&quot;id&quot;:4673,&quot;token&quot;:&quot;a:1&quot;,&quot;particle_id&quot;:&quot;img4-m21-p2&quot;,&quot;molecule_id&quot;:&quot;img4-m21&quot;,&quot;atom_order&quot;:4}]}</metadata>
  <rect x="0" y="0" width="79" height="108" fill="#f8f0d8"/>
  <image href="file:///C:/Users/HHHES/AppData/Roaming/com.voynichlab.datasetcreator/images/1/aff30327-ced8-4ab4-8c9b-190205ebe022.jpg" x="-1650" y="-2054" width="2804" height="3797" opacity="0.92"/>
  <rect x="0.5" y="0.5" width="78" height="107" fill="none" stroke="#111827" stroke-width="1" opacity="0.35"/>
  <polyline points="28,17 28,16 28,17 28,19 28,20 27,22 26,24 26,26 26,27 26,28 25,30 25,31 25,32 25,33 25,34 24,35 24,37 24,38 24,40 24,41 24,42 24,43 24,44 24,45 24,47 24,48 24,49 24,50 24,51 24,52 23,53 23,55 22,56 22,57 22,58 21,60 21,62 20,63 19,64 19,65 19,66 19,67 18,68 18,69 18,70 18,72 17,74 17,75 17,76 17,77 16,79 16,80 16,81 16,82 16,83 16,84 16,85 16,86 16,87 16,88" fill="none" stroke="#00f0b5" stroke-width="3" stroke-linecap="round" stroke-linejoin="round" opacity="0.95">
    <title>4672 a:1</title>
  </polyline>
  <polyline points="25,25 25,26 25,27 25,28 25,29 26,30 26,31 26,32 26,33 27,34 27,35 27,36 28,37 28,38 29,38 29,39 30,39 30,40 31,40 31,41 32,41 33,41 34,41 35,41 36,41 37,41 38,41 39,41 41,41 42,41 43,41 44,41 45,41 45,40 46,40 47,40 48,40 49,40 50,40 51,40 51,39 52,39 53,39 54,39 55,38 56,38 57,37 58,36 59,36 59,35 60,35 60,34" fill="none" stroke="#2f7df6" stroke-width="3" stroke-linecap="round" stroke-linejoin="round" opacity="0.95">
    <title>4734 b:1</title>
  </polyline>
  <polyline points="59,36 59,35 60,35 61,35 61,34 62,34 62,33 63,33 63,32 63,31 63,30 63,29 63,28 62,28 62,27 61,27 60,26 59,25 58,25 57,24 56,24 55,24 54,24 53,24 52,24 51,24 50,24 49,24 48,25 47,25 47,26 46,26 45,26 45,27 44,27 44,28 43,28 43,29 42,29 42,30 42,31 41,32 41,33 41,34 41,35 41,36 41,37 41,38 42,38 42,39 43,39 44,40 45,40 46,40 47,40 48,40 49,40 50,40 51,40 51,39 52,39 53,39 54,39 55,39 55,38 56,38 57,38 57,37 58,37 59,37 59,36 60,36 60,35 61,35 61,34" fill="none" stroke="#8aff00" stroke-width="3" stroke-linecap="round" stroke-linejoin="round" opacity="0.95">
    <title>4779 c:1</title>
  </polyline>
  <polyline points="44,27 43,28 43,29 43,30 43,31 42,32 42,34 42,35 41,36 41,37 41,38 41,39 40,40 40,42 40,43 40,44 40,45 40,46 40,47 40,48 40,49 39,50 39,51 39,52 39,54 39,55 39,57 39,59 39,60 39,61 38,62 38,63 38,64 38,66 38,67 37,68 37,70 36,72 36,74 36,75 36,76 36,77 36,78 36,79 36,80 35,80 35,81 35,82 35,83 35,84 35,85 34,85 34,86 34,87 34,88 34,89 34,90 33,90 33,91 33,92" fill="none" stroke="#00f0b5" stroke-width="3" stroke-linecap="round" stroke-linejoin="round" opacity="0.95">
    <title>4673 a:1</title>
  </polyline>
</svg>
