<?xml version="1.0" encoding="UTF-8"?>
<svg xmlns="http://www.w3.org/2000/svg" width="133" height="113" viewBox="0 0 133 113">
  <title>particle img4-m87-p1 e:1 a:1 e:1 b:1 c:1 a:1 b:1 d:1</title>
  <metadata>{&quot;entityType&quot;:&quot;particle&quot;,&quot;entityId&quot;:&quot;img4-m87-p1&quot;,&quot;token&quot;:&quot;e:1 a:1 e:1 b:1 c:1 a:1 b:1 d:1&quot;,&quot;signature&quot;:&quot;e:1 a:1 e:1 b:1 c:1 a:1 b:1 d:1&quot;,&quot;imageName&quot;:&quot;page-004.jpg&quot;,&quot;imageId&quot;:4,&quot;bounds&quot;:{&quot;x&quot;:1738,&quot;y&quot;:2715,&quot;w&quot;:133,&quot;h&quot;:113},&quot;atoms&quot;:[{&quot;id&quot;:5406,&quot;token&quot;:&quot;e:1&quot;,&quot;particle_id&quot;:&quot;img4-m87-p1&quot;,&quot;molecule_id&quot;:&quot;img4-m87&quot;,&quot;atom_order&quot;:1},{&quot;id&quot;:4723,&quot;token&quot;:&quot;a:1&quot;,&quot;particle_id&quot;:&quot;img4-m87-p1&quot;,&quot;molecule_id&quot;:&quot;img4-m87&quot;,&quot;atom_order&quot;:2},{&quot;id&quot;:5119,&quot;token&quot;:&quot;e:1&quot;,&quot;particle_id&quot;:&quot;img4-m87-p1&quot;,&quot;molecule_id&quot;:&quot;img4-m87&quot;,&quot;atom_order&quot;:3},{&quot;id&quot;:5405,&quot;token&quot;:&quot;b:1&quot;,&quot;particle_id&quot;:&quot;img4-m87-p1&quot;,&quot;molecule_id&quot;:&quot;img4-m87&quot;,&quot;atom_order&quot;:4},{&quot;id&quot;:4884,&quot;token&quot;:&quot;c:1&quot;,&quot;particle_id&quot;:&quot;img4-m87-p1&quot;,&quot;molecule_id&quot;:&quot;img4-m87&quot;,&quot;atom_order&quot;:5},{&quot;id&quot;:4724,&quot;token&quot;:&quot;a:1&quot;,&quot;particle_id&quot;:&quot;img4-m87-p1&quot;,&quot;molecule_id&quot;:&quot;img4-m87&quot;,&quot;atom_order&quot;:6},{&quot;id&quot;:4754,&quot;token&quot;:&quot;b:1&quot;,&quot;particle_id&quot;:&quot;img4-m87-p1&quot;,&quot;molecule_id&quot;:&quot;img4-m87&quot;,&quot;atom_order&quot;:7},{&quot;id&quot;:5254,&quot;token&quot;:&quot;d:1&quot;,&quot;particle_id&quot;:&quot;img4-m87-p1&quot;,&quot;molecule_id&quot;:&quot;img4-m87&quot;,&quot;atom_order&quot;:8}]}</metadata>
  <rect x="0" y="0" width="133" height="113" fill="#f8f0d8"/>
  <image href="file:///C:/Users/HHHES/AppData/Roaming/com.voynichlab.datasetcreator/images/1/aff30327-ced8-4ab4-8c9b-190205ebe022.jpg" x="-1738" y="-2715" width="2804" height="3797" opacity="0.92"/>
  <rect x="0.5" y="0.5" width="132" height="112" fill="none" stroke="#111827" stroke-width="1" opacity="0.35"/>
  <polyline points="50,31 49,31 48,30 47,30 47,29 47,28 47,27 48,27 48,26 49,26 49,25 50,25 50,24 51,24 52,24 52,23 53,23 54,23 54,22 55,22 56,21 57,21 58,21 58,20 59,20 61,20 62,20 62,19 63,19 64,19 65,18 66,18" fill="none" stroke="#f2e45c" stroke-width="3" stroke-linecap="round" stroke-linejoin="round" opacity="0.95">
    <title>5406 e:1</title>
  </polyline>
  <polyline points="62,83 62,82 62,81 62,80 62,79 62,78 62,77 62,76 62,75 62,74 62,73 62,72 62,71 62,70 62,69 63,69 63,68 63,67 63,66 63,65 63,64 63,63 63,62 63,61 63,60 63,59 63,58 63,57 63,56 63,55 64,54 64,53 64,52 64,51 64,50 64,49 64,48 64,47 64,46 64,45 64,44 64,43 64,42 64,41 64,40 64,39 64,38 64,37 64,36 64,35 64,34 64,33 64,32 64,31 64,30 64,29 64,28 64,27 64,26 64,25 64,24 65,24 65,23 65,22 65,21 65,20 65,19 65,18 65,17 65,16" fill="none" stroke="#00f0b5" stroke-width="3" stroke-linecap="round" stroke-linejoin="round" opacity="0.95">
    <title>4723 a:1</title>
  </polyline>
  <polyline points="66,93 65,94 65,95 64,95 64,96 63,96 62,96 62,97 61,97 60,97 59,97 58,97 57,97 56,97 56,96 55,96 55,95 54,95 54,94 54,93 54,92 54,91 54,90 54,89 54,88 55,87 55,86 56,86 56,85 57,85 57,84 58,83 59,82 60,82 60,81 61,81 62,81 63,81 64,81 65,81 66,81" fill="none" stroke="#f2e45c" stroke-width="3" stroke-linecap="round" stroke-linejoin="round" opacity="0.95">
    <title>5119 e:1</title>
  </polyline>
  <polyline points="58,63 59,63 60,64 61,64 62,64 63,65 64,65 65,65 66,65 67,65 68,65 70,65 72,64 73,64 74,64 75,64 76,64 77,64 78,63 79,63 80,62 81,61 82,61 83,60 84,60 85,59 86,58 87,58 87,57 88,56 89,55 90,55 90,54" fill="none" stroke="#2f7df6" stroke-width="3" stroke-linecap="round" stroke-linejoin="round" opacity="0.95">
    <title>5405 b:1</title>
  </polyline>
  <polyline points="114,31 115,30 115,29 116,29 116,28 116,27 116,26 116,25 116,24 116,23 116,22 116,21 115,21 115,20 114,20 114,19 113,19 112,18 111,18 110,17 108,17 107,17 106,17 106,16 104,16 103,16 102,16 101,16 100,16 99,16 98,16 97,16 96,16 95,16 95,17 94,17 93,17 93,18 92,18 92,19 91,19 91,20 91,21 90,21 90,22 90,23 90,24 90,25 90,26 90,27 90,28 90,29 90,30 91,31 91,32 91,33 92,33 92,34 93,34 93,35 94,35 94,36 95,36 96,36 98,36 99,36 100,36 101,36 102,36 103,36 105,35 106,35 107,35 107,34 108,34 109,34 110,34 111,33 112,33 113,33 114,32 115,31 116,30 117,29" fill="none" stroke="#8aff00" stroke-width="3" stroke-linecap="round" stroke-linejoin="round" opacity="0.95">
    <title>4884 c:1</title>
  </polyline>
  <polyline points="92,19 92,20 91,21 91,22 91,23 91,24 91,25 91,26 91,27 91,28 91,29 91,30 91,31 91,32 91,33 91,34 90,35 90,36 90,37 90,38 90,39 90,40 90,41 90,42 90,43 90,44 90,45 90,46 90,47 90,48 90,49 90,50 89,51 89,52 89,53 89,54 89,55 89,56 89,57" fill="none" stroke="#00f0b5" stroke-width="3" stroke-linecap="round" stroke-linejoin="round" opacity="0.95">
    <title>4724 a:1</title>
  </polyline>
  <polyline points="48,29 49,30 50,30 50,31 51,31 53,32 54,33 56,33 57,34 58,34 59,35 60,35 62,35 63,35 64,36 65,36 66,36 67,36 68,36 69,36 70,36 71,37 72,37 73,37 74,37 75,37 76,37 77,37 78,37 79,37 80,37 81,37 82,37 83,37 84,37 85,37 86,37 87,38 88,38 89,38 91,38 92,38 93,38 94,38 95,38 96,38 98,38 99,38 99,37 100,37 101,37 102,37 103,37 104,36 105,36 106,36 107,36 108,35 109,35 109,34 110,34 111,33 112,33 113,32 113,31 114,30 115,30" fill="none" stroke="#2f7df6" stroke-width="3" stroke-linecap="round" stroke-linejoin="round" opacity="0.95">
    <title>4754 b:1</title>
  </polyline>
  <polyline points="16,68 17,67 17,66 18,66 18,65 18,64 19,64 20,63 21,62 21,61 22,61 23,61 23,60 24,59 25,59 26,58 27,58 28,58 29,57 30,57 31,57 32,56 33,56 34,56 35,56 36,56 37,56 38,56 39,57 40,57 41,57 42,57 43,58 45,58 46,59 47,59 48,59 49,59 50,60 51,60 52,61 53,61 54,61 55,61 55,62 56,62 57,62 57,63 58,63 60,64 61,64 62,64 63,64 64,64 65,64" fill="none" stroke="#ff2d55" stroke-width="3" stroke-linecap="round" stroke-linejoin="round" opacity="0.95">
    <title>5254 d:1</title>
  </polyline>
</svg>
