<?xml version="1.0" encoding="UTF-8"?>
<svg xmlns="http://www.w3.org/2000/svg" width="51" height="68" viewBox="0 0 51 68">
  <title>particle img4-m22-p1 e:1 c:1 h:2</title>
  <metadata>{&quot;entityType&quot;:&quot;particle&quot;,&quot;entityId&quot;:&quot;img4-m22-p1&quot;,&quot;token&quot;:&quot;e:1 c:1 h:2&quot;,&quot;signature&quot;:&quot;e:1 c:1 h:2&quot;,&quot;imageName&quot;:&quot;page-004.jpg&quot;,&quot;imageId&quot;:4,&quot;bounds&quot;:{&quot;x&quot;:549,&quot;y&quot;:2097,&quot;w&quot;:51,&quot;h&quot;:68},&quot;atoms&quot;:[{&quot;id&quot;:4997,&quot;token&quot;:&quot;e:1&quot;,&quot;particle_id&quot;:&quot;img4-m22-p1&quot;,&quot;molecule_id&quot;:&quot;img4-m22&quot;,&quot;atom_order&quot;:1},{&quot;id&quot;:4805,&quot;token&quot;:&quot;c:1&quot;,&quot;particle_id&quot;:&quot;img4-m22-p1&quot;,&quot;molecule_id&quot;:&quot;img4-m22&quot;,&quot;atom_order&quot;:2},{&quot;id&quot;:5303,&quot;token&quot;:&quot;h:2&quot;,&quot;particle_id&quot;:&quot;img4-m22-p1&quot;,&quot;molecule_id&quot;:&quot;img4-m22&quot;,&quot;atom_order&quot;:3}]}</metadata>
  <rect x="0" y="0" width="51" height="68" fill="#f8f0d8"/>
  <image href="file:///C:/Users/HHHES/AppData/Roaming/com.voynichlab.datasetcreator/images/1/aff30327-ced8-4ab4-8c9b-190205ebe022.jpg" x="-549" y="-2097" width="2804" height="3797" opacity="0.92"/>
  <rect x="0.5" y="0.5" width="50" height="67" fill="none" stroke="#111827" stroke-width="1" opacity="0.35"/>
  <polyline points="31,49 31,50 30,50 30,51 29,51 28,51 28,52 27,52 26,52 25,52 24,52 23,52 22,52 21,52 21,51 20,51 19,51 18,51 18,50 17,50 16,50 16,49 16,48 16,47 16,46 16,45 16,44 16,43 17,43 17,42 17,41 17,40 18,40 18,39 18,38 19,38 19,37 19,36 20,36 21,36 21,35 22,35 22,34 23,34 24,34 24,33 25,33 26,33 27,33 27,32" fill="none" stroke="#f2e45c" stroke-width="3" stroke-linecap="round" stroke-linejoin="round" opacity="0.95">
    <title>4997 e:1</title>
  </polyline>
  <polyline points="30,30 31,30 31,29 32,29 32,28 33,28 33,27 33,26 34,26 34,25 34,24 35,24 35,23 35,22 35,21 35,20 35,19 34,19 34,18 33,18 33,17 32,17 32,16 31,16 30,16 29,16 28,16 27,16 26,16 25,17 24,17 24,18 23,19 23,20 22,20 22,21 22,22 22,23 22,24 22,25 22,26 22,27 22,28 23,29 23,30 24,30 24,31 25,31 26,31 27,31 28,31 29,31 30,31 30,30 31,30 31,29 31,28" fill="none" stroke="#8aff00" stroke-width="3" stroke-linecap="round" stroke-linejoin="round" opacity="0.95">
    <title>4805 c:1</title>
  </polyline>
  <polyline points="23,17 23,18 22,18 22,19 22,20 22,21 22,22 23,22 23,23 23,24 24,24 24,25 25,26 25,27 26,28 26,29 27,29 27,30 27,31 28,31 28,32 28,33 29,33 29,34 29,35 29,36 30,36 30,37 30,38 30,39 30,40 30,41 30,42 30,43 30,44 30,45 29,45 29,46 28,47 28,48 27,48 27,49 26,50 25,50" fill="none" stroke="#ff8c00" stroke-width="3" stroke-linecap="round" stroke-linejoin="round" opacity="0.95">
    <title>5303 h:2</title>
  </polyline>
</svg>
