<?xml version="1.0" encoding="UTF-8"?>
<svg xmlns="http://www.w3.org/2000/svg" width="58" height="71" viewBox="0 0 58 71">
  <title>particle img4-m71-p3 e:1 c:1 h:2</title>
  <metadata>{&quot;entityType&quot;:&quot;particle&quot;,&quot;entityId&quot;:&quot;img4-m71-p3&quot;,&quot;token&quot;:&quot;e:1 c:1 h:2&quot;,&quot;signature&quot;:&quot;e:1 c:1 h:2&quot;,&quot;imageName&quot;:&quot;page-004.jpg&quot;,&quot;imageId&quot;:4,&quot;bounds&quot;:{&quot;x&quot;:1990,&quot;y&quot;:2595,&quot;w&quot;:58,&quot;h&quot;:71},&quot;atoms&quot;:[{&quot;id&quot;:5074,&quot;token&quot;:&quot;e:1&quot;,&quot;particle_id&quot;:&quot;img4-m71-p3&quot;,&quot;molecule_id&quot;:&quot;img4-m71&quot;,&quot;atom_order&quot;:1},{&quot;id&quot;:4870,&quot;token&quot;:&quot;c:1&quot;,&quot;particle_id&quot;:&quot;img4-m71-p3&quot;,&quot;molecule_id&quot;:&quot;img4-m71&quot;,&quot;atom_order&quot;:2},{&quot;id&quot;:5320,&quot;token&quot;:&quot;h:2&quot;,&quot;particle_id&quot;:&quot;img4-m71-p3&quot;,&quot;molecule_id&quot;:&quot;img4-m71&quot;,&quot;atom_order&quot;:3}]}</metadata>
  <rect x="0" y="0" width="58" height="71" fill="#f8f0d8"/>
  <image href="file:///C:/Users/HHHES/AppData/Roaming/com.voynichlab.datasetcreator/images/1/aff30327-ced8-4ab4-8c9b-190205ebe022.jpg" x="-1990" y="-2595" width="2804" height="3797" opacity="0.92"/>
  <rect x="0.5" y="0.5" width="57" height="70" fill="none" stroke="#111827" stroke-width="1" opacity="0.35"/>
  <polyline points="31,52 31,53 30,53 30,54 29,54 28,54 28,55 27,55 26,55 25,55 24,55 23,55 22,55 21,55 21,54 20,54 19,54 18,54 18,53 17,53 16,53 16,52 16,51 16,50 16,49 16,48 16,47 16,46 17,46 17,45 17,44 17,43 18,43 18,42 18,41 19,41 19,40 19,39 20,39 21,39 21,38 22,38 22,37 23,37 24,37 24,36 25,36 26,36 27,36 27,35" fill="none" stroke="#f2e45c" stroke-width="3" stroke-linecap="round" stroke-linejoin="round" opacity="0.95">
    <title>5074 e:1</title>
  </polyline>
  <polyline points="35,32 36,32 37,32 37,31 38,31 39,30 39,29 40,29 40,28 41,28 41,27 41,26 41,25 42,25 42,24 42,23 42,22 42,21 41,21 41,20 40,19 39,18 38,18 37,17 36,16 35,16 34,16 33,16 32,16 31,16 30,16 29,17 28,18 27,18 27,19 26,19 26,20 26,21 25,22 25,23 25,24 25,25 26,26 26,27 27,27 28,28 29,29 30,29 30,30 31,30 32,30 33,30 34,30 34,31 35,31 36,31 37,31 36,31" fill="none" stroke="#8aff00" stroke-width="3" stroke-linecap="round" stroke-linejoin="round" opacity="0.95">
    <title>4870 c:1</title>
  </polyline>
  <polyline points="27,17 26,17 26,18 26,19 26,20 26,21 26,22 26,23 26,24 27,25 27,26 28,28 29,29 29,30 29,31 29,32 30,33 31,33 31,34 31,35 32,35 32,37 33,39 34,41 34,42 34,44 34,46 34,47 34,48 33,49 33,50 32,50 31,50 31,51 30,52 29,52 29,53 28,53 28,54 27,54" fill="none" stroke="#ff8c00" stroke-width="3" stroke-linecap="round" stroke-linejoin="round" opacity="0.95">
    <title>5320 h:2</title>
  </polyline>
</svg>
