<?xml version="1.0" encoding="UTF-8"?>
<svg xmlns="http://www.w3.org/2000/svg" width="58" height="71" viewBox="0 0 58 71">
  <title>particle img4-m21-p1 e:1 c:1 h:2</title>
  <metadata>{&quot;entityType&quot;:&quot;particle&quot;,&quot;entityId&quot;:&quot;img4-m21-p1&quot;,&quot;token&quot;:&quot;e:1 c:1 h:2&quot;,&quot;signature&quot;:&quot;e:1 c:1 h:2&quot;,&quot;imageName&quot;:&quot;page-004.jpg&quot;,&quot;imageId&quot;:4,&quot;bounds&quot;:{&quot;x&quot;:1609,&quot;y&quot;:2090,&quot;w&quot;:58,&quot;h&quot;:71},&quot;atoms&quot;:[{&quot;id&quot;:4967,&quot;token&quot;:&quot;e:1&quot;,&quot;particle_id&quot;:&quot;img4-m21-p1&quot;,&quot;molecule_id&quot;:&quot;img4-m21&quot;,&quot;atom_order&quot;:1},{&quot;id&quot;:4780,&quot;token&quot;:&quot;c:1&quot;,&quot;particle_id&quot;:&quot;img4-m21-p1&quot;,&quot;molecule_id&quot;:&quot;img4-m21&quot;,&quot;atom_order&quot;:2},{&quot;id&quot;:5307,&quot;token&quot;:&quot;h:2&quot;,&quot;particle_id&quot;:&quot;img4-m21-p1&quot;,&quot;molecule_id&quot;:&quot;img4-m21&quot;,&quot;atom_order&quot;:3}]}</metadata>
  <rect x="0" y="0" width="58" height="71" fill="#f8f0d8"/>
  <image href="file:///C:/Users/HHHES/AppData/Roaming/com.voynichlab.datasetcreator/images/1/aff30327-ced8-4ab4-8c9b-190205ebe022.jpg" x="-1609" y="-2090" width="2804" height="3797" opacity="0.92"/>
  <rect x="0.5" y="0.5" width="57" height="70" fill="none" stroke="#111827" stroke-width="1" opacity="0.35"/>
  <polyline points="31,52 31,53 30,53 30,54 29,54 28,54 28,55 27,55 26,55 25,55 24,55 23,55 22,55 21,55 21,54 20,54 19,54 18,54 18,53 17,53 16,53 16,52 16,51 16,50 16,49 16,48 16,47 16,46 17,46 17,45 17,44 17,43 18,43 18,42 18,41 19,41 19,40 19,39 20,39 21,39 21,38 22,38 22,37 23,37 24,37 24,36 25,36 26,36 27,36 27,35" fill="none" stroke="#f2e45c" stroke-width="3" stroke-linecap="round" stroke-linejoin="round" opacity="0.95">
    <title>4967 e:1</title>
  </polyline>
  <polyline points="39,28 40,27 40,26 41,26 41,25 42,24 42,23 42,22 42,21 42,20 42,19 42,18 41,18 41,17 40,17 40,16 39,16 38,16 37,16 36,16 35,16 34,16 33,16 33,17 32,17 31,17 30,18 29,18 28,19 28,20 27,20 27,21 26,22 26,23 26,24 25,25 25,26 25,27 25,28 26,28 26,29 26,30 27,31 27,32 28,32 29,32 30,32 30,33 31,33 31,32 32,32 33,32 34,32 35,32 35,31 36,31 37,30 38,30 38,29 39,28 40,27 40,26" fill="none" stroke="#8aff00" stroke-width="3" stroke-linecap="round" stroke-linejoin="round" opacity="0.95">
    <title>4780 c:1</title>
  </polyline>
  <polyline points="27,20 27,21 27,22 27,23 27,24 27,25 27,26 27,27 27,28 27,29 28,30 28,31 29,32 29,33 29,34 30,35 30,36 31,37 31,38 31,39 31,40 31,41 32,42 32,44 32,45 32,46 32,47 32,48 31,48 31,49 31,50 30,51 30,52 29,52 29,53 28,53 27,54" fill="none" stroke="#ff8c00" stroke-width="3" stroke-linecap="round" stroke-linejoin="round" opacity="0.95">
    <title>5307 h:2</title>
  </polyline>
</svg>
