<?xml version="1.0" encoding="UTF-8"?>
<svg xmlns="http://www.w3.org/2000/svg" width="87" height="52" viewBox="0 0 87 52">
  <title>particle img4-m71-p1 e:1 g:1 e:1</title>
  <metadata>{&quot;entityType&quot;:&quot;particle&quot;,&quot;entityId&quot;:&quot;img4-m71-p1&quot;,&quot;token&quot;:&quot;e:1 g:1 e:1&quot;,&quot;signature&quot;:&quot;e:1 g:1 e:1&quot;,&quot;imageName&quot;:&quot;page-004.jpg&quot;,&quot;imageId&quot;:4,&quot;bounds&quot;:{&quot;x&quot;:1886,&quot;y&quot;:2614,&quot;w&quot;:87,&quot;h&quot;:52},&quot;atoms&quot;:[{&quot;id&quot;:5077,&quot;token&quot;:&quot;e:1&quot;,&quot;particle_id&quot;:&quot;img4-m71-p1&quot;,&quot;molecule_id&quot;:&quot;img4-m71&quot;,&quot;atom_order&quot;:1},{&quot;id&quot;:5178,&quot;token&quot;:&quot;g:1&quot;,&quot;particle_id&quot;:&quot;img4-m71-p1&quot;,&quot;molecule_id&quot;:&quot;img4-m71&quot;,&quot;atom_order&quot;:2},{&quot;id&quot;:5075,&quot;token&quot;:&quot;e:1&quot;,&quot;particle_id&quot;:&quot;img4-m71-p1&quot;,&quot;molecule_id&quot;:&quot;img4-m71&quot;,&quot;atom_order&quot;:3}]}</metadata>
  <rect x="0" y="0" width="87" height="52" fill="#f8f0d8"/>
  <image href="file:///C:/Users/HHHES/AppData/Roaming/com.voynichlab.datasetcreator/images/1/aff30327-ced8-4ab4-8c9b-190205ebe022.jpg" x="-1886" y="-2614" width="2804" height="3797" opacity="0.92"/>
  <rect x="0.5" y="0.5" width="86" height="51" fill="none" stroke="#111827" stroke-width="1" opacity="0.35"/>
  <polyline points="31,33 31,34 30,34 30,35 29,35 28,35 28,36 27,36 26,36 25,36 24,36 23,36 22,36 21,36 21,35 20,35 19,35 18,35 18,34 17,34 16,34 16,33 16,32 16,31 16,30 16,29 16,28 16,27 17,27 17,26 17,25 17,24 18,24 18,23 18,22 19,22 19,21 19,20 20,20 21,20 21,19 22,19 22,18 23,18 24,18 24,17 25,17 26,17 27,17 27,16" fill="none" stroke="#f2e45c" stroke-width="3" stroke-linecap="round" stroke-linejoin="round" opacity="0.95">
    <title>5077 e:1</title>
  </polyline>
  <polyline points="25,17 26,17 27,17 29,17 30,17 32,17 33,17 34,17 36,17 38,17 39,17 40,17 41,17 42,17 43,17 45,17 47,17 48,17 49,17 50,17 51,17 52,17 53,17 54,17 56,17 57,17 58,17 59,17 60,17 61,17 62,17 63,17 64,17 65,17 66,17" fill="none" stroke="#7c3cff" stroke-width="3" stroke-linecap="round" stroke-linejoin="round" opacity="0.95">
    <title>5178 g:1</title>
  </polyline>
  <polyline points="71,33 71,34 70,34 70,35 69,35 68,35 68,36 67,36 66,36 65,36 64,36 63,36 62,36 61,36 61,35 60,35 59,35 58,35 58,34 57,34 56,34 56,33 56,32 56,31 56,30 56,29 56,28 56,27 57,27 57,26 57,25 57,24 58,24 58,23 58,22 59,22 59,21 59,20 60,20 61,20 61,19 62,19 62,18 63,18 64,18 64,17 65,17 66,17 67,17 67,16" fill="none" stroke="#f2e45c" stroke-width="3" stroke-linecap="round" stroke-linejoin="round" opacity="0.95">
    <title>5075 e:1</title>
  </polyline>
</svg>
