<?xml version="1.0" encoding="UTF-8"?>
<svg xmlns="http://www.w3.org/2000/svg" width="84" height="53" viewBox="0 0 84 53">
  <title>particle img4-m25-p1 e:1 g:1 e:1</title>
  <metadata>{&quot;entityType&quot;:&quot;particle&quot;,&quot;entityId&quot;:&quot;img4-m25-p1&quot;,&quot;token&quot;:&quot;e:1 g:1 e:1&quot;,&quot;signature&quot;:&quot;e:1 g:1 e:1&quot;,&quot;imageName&quot;:&quot;page-004.jpg&quot;,&quot;imageId&quot;:4,&quot;bounds&quot;:{&quot;x&quot;:656,&quot;y&quot;:2116,&quot;w&quot;:84,&quot;h&quot;:53},&quot;atoms&quot;:[{&quot;id&quot;:4996,&quot;token&quot;:&quot;e:1&quot;,&quot;particle_id&quot;:&quot;img4-m25-p1&quot;,&quot;molecule_id&quot;:&quot;img4-m25&quot;,&quot;atom_order&quot;:1},{&quot;id&quot;:5158,&quot;token&quot;:&quot;g:1&quot;,&quot;particle_id&quot;:&quot;img4-m25-p1&quot;,&quot;molecule_id&quot;:&quot;img4-m25&quot;,&quot;atom_order&quot;:2},{&quot;id&quot;:4995,&quot;token&quot;:&quot;e:1&quot;,&quot;particle_id&quot;:&quot;img4-m25-p1&quot;,&quot;molecule_id&quot;:&quot;img4-m25&quot;,&quot;atom_order&quot;:3}]}</metadata>
  <rect x="0" y="0" width="84" height="53" fill="#f8f0d8"/>
  <image href="file:///C:/Users/HHHES/AppData/Roaming/com.voynichlab.datasetcreator/images/1/aff30327-ced8-4ab4-8c9b-190205ebe022.jpg" x="-656" y="-2116" width="2804" height="3797" opacity="0.92"/>
  <rect x="0.5" y="0.5" width="83" height="52" fill="none" stroke="#111827" stroke-width="1" opacity="0.35"/>
  <polyline points="31,33 31,34 30,34 30,35 29,35 28,35 28,36 27,36 26,36 25,36 24,36 23,36 22,36 21,36 21,35 20,35 19,35 18,35 18,34 17,34 16,34 16,33 16,32 16,31 16,30 16,29 16,28 16,27 17,27 17,26 17,25 17,24 18,24 18,23 18,22 19,22 19,21 19,20 20,20 21,20 21,19 22,19 22,18 23,18 24,18 24,17 25,17 26,17 27,17 27,16" fill="none" stroke="#f2e45c" stroke-width="3" stroke-linecap="round" stroke-linejoin="round" opacity="0.95">
    <title>4996 e:1</title>
  </polyline>
  <polyline points="24,17 25,17 26,17 28,17 30,17 33,17 36,17 39,17 41,17 43,17 45,17 47,17 49,17 52,16 54,16 57,16 58,16 59,17 60,17 61,17 62,16 63,16 64,16 65,17 65,18 64,18 63,18 62,18 61,18 60,18" fill="none" stroke="#7c3cff" stroke-width="3" stroke-linecap="round" stroke-linejoin="round" opacity="0.95">
    <title>5158 g:1</title>
  </polyline>
  <polyline points="68,34 68,35 67,35 67,36 66,36 65,36 65,37 64,37 63,37 62,37 61,37 60,37 59,37 58,37 58,36 57,36 56,36 55,36 55,35 54,35 53,35 53,34 53,33 53,32 53,31 53,30 53,29 53,28 54,28 54,27 54,26 54,25 55,25 55,24 55,23 56,23 56,22 56,21 57,21 58,21 58,20 59,20 59,19 60,19 61,19 61,18 62,18 63,18 64,18 64,17" fill="none" stroke="#f2e45c" stroke-width="3" stroke-linecap="round" stroke-linejoin="round" opacity="0.95">
    <title>4995 e:1</title>
  </polyline>
</svg>
