<?xml version="1.0" encoding="UTF-8"?>
<svg xmlns="http://www.w3.org/2000/svg" width="124" height="99" viewBox="0 0 124 99">
  <title>particle img4-m19-p1 e:1 a:1 m:1 c:1 a:1 g:1 e:1</title>
  <metadata>{&quot;entityType&quot;:&quot;particle&quot;,&quot;entityId&quot;:&quot;img4-m19-p1&quot;,&quot;token&quot;:&quot;e:1 a:1 m:1 c:1 a:1 g:1 e:1&quot;,&quot;signature&quot;:&quot;e:1 a:1 m:1 c:1 a:1 g:1 e:1&quot;,&quot;imageName&quot;:&quot;page-004.jpg&quot;,&quot;imageId&quot;:4,&quot;bounds&quot;:{&quot;x&quot;:1866,&quot;y&quot;:2076,&quot;w&quot;:124,&quot;h&quot;:99},&quot;atoms&quot;:[{&quot;id&quot;:4972,&quot;token&quot;:&quot;e:1&quot;,&quot;particle_id&quot;:&quot;img4-m19-p1&quot;,&quot;molecule_id&quot;:&quot;img4-m19&quot;,&quot;atom_order&quot;:1},{&quot;id&quot;:4674,&quot;token&quot;:&quot;a:1&quot;,&quot;particle_id&quot;:&quot;img4-m19-p1&quot;,&quot;molecule_id&quot;:&quot;img4-m19&quot;,&quot;atom_order&quot;:2},{&quot;id&quot;:5447,&quot;token&quot;:&quot;m:1&quot;,&quot;particle_id&quot;:&quot;img4-m19-p1&quot;,&quot;molecule_id&quot;:&quot;img4-m19&quot;,&quot;atom_order&quot;:3},{&quot;id&quot;:5154,&quot;token&quot;:&quot;c:1&quot;,&quot;particle_id&quot;:&quot;img4-m19-p1&quot;,&quot;molecule_id&quot;:&quot;img4-m19&quot;,&quot;atom_order&quot;:4},{&quot;id&quot;:4675,&quot;token&quot;:&quot;a:1&quot;,&quot;particle_id&quot;:&quot;img4-m19-p1&quot;,&quot;molecule_id&quot;:&quot;img4-m19&quot;,&quot;atom_order&quot;:5},{&quot;id&quot;:5153,&quot;token&quot;:&quot;g:1&quot;,&quot;particle_id&quot;:&quot;img4-m19-p1&quot;,&quot;molecule_id&quot;:&quot;img4-m19&quot;,&quot;atom_order&quot;:6},{&quot;id&quot;:4973,&quot;token&quot;:&quot;e:1&quot;,&quot;particle_id&quot;:&quot;img4-m19-p1&quot;,&quot;molecule_id&quot;:&quot;img4-m19&quot;,&quot;atom_order&quot;:7}]}</metadata>
  <rect x="0" y="0" width="124" height="99" fill="#f8f0d8"/>
  <image href="file:///C:/Users/HHHES/AppData/Roaming/com.voynichlab.datasetcreator/images/1/aff30327-ced8-4ab4-8c9b-190205ebe022.jpg" x="-1866" y="-2076" width="2804" height="3797" opacity="0.92"/>
  <rect x="0.5" y="0.5" width="123" height="98" fill="none" stroke="#111827" stroke-width="1" opacity="0.35"/>
  <polyline points="31,76 31,77 30,77 30,78 29,78 28,78 28,79 27,79 26,79 25,79 24,79 23,79 22,79 21,79 21,78 20,78 19,78 18,78 18,77 17,77 16,77 16,76 16,75 16,74 16,73 16,72 16,71 16,70 17,70 17,69 17,68 17,67 18,67 18,66 18,65 19,65 19,64 19,63 20,63 21,63 21,62 22,62 22,61 23,61 24,61 24,60 25,60 26,60 27,60 27,59" fill="none" stroke="#f2e45c" stroke-width="3" stroke-linecap="round" stroke-linejoin="round" opacity="0.95">
    <title>4972 e:1</title>
  </polyline>
  <polyline points="51,48 51,49 51,50 51,51 51,52 51,53 51,54 51,55 51,56 51,57 51,58 51,59 51,60 51,61 51,62 51,63 51,64 50,65 50,66 50,67 50,68 50,69 50,70 49,70 49,71 49,72 49,73 48,74 48,75" fill="none" stroke="#00f0b5" stroke-width="3" stroke-linecap="round" stroke-linejoin="round" opacity="0.95">
    <title>4674 a:1</title>
  </polyline>
  <polyline points="51,49 51,48 51,47 52,46 52,45 52,44 52,43 53,43 53,42 53,41 53,40 53,39 53,38 53,37 53,36 53,35 54,34 54,33 54,32 54,31 54,30 54,29 54,28 54,27 54,26 54,25 55,25 55,24 55,23 55,22 55,21 55,20 55,19 55,18 55,17 54,17 54,16 53,16 53,17 52,17 51,17 51,18 50,18 50,19 49,19 48,20 46,21 45,21 45,22 44,22 43,23 43,24 42,24 41,25 40,26 40,27 39,28 38,29 37,30 37,31 36,31 36,32 35,32 35,33 34,33 34,34 35,34 36,34 37,34 38,34 39,34 40,34 41,34 42,34 44,33 45,33 46,33 47,33 48,33 49,33 50,33 51,33 51,34 52,34 53,34 54,34 55,34 56,34 57,34 58,34 59,34 60,34 62,34 63,34 64,34 65,34 66,34 67,34 68,34 69,35 70,35 71,35 72,35 72,36 73,36 74,36" fill="none" stroke="#ff00ff" stroke-width="3" stroke-linecap="round" stroke-linejoin="round" opacity="0.95">
    <title>5447 m:1</title>
  </polyline>
  <polyline points="70,34 71,35 72,35 72,36 73,36 74,36 75,36 77,36 78,36 79,36 80,36 81,36 83,36 84,35 86,35 88,35 89,34 90,34 90,33 91,33 92,32 93,32 93,31 94,30 95,30 95,29 96,28 96,27 97,27 97,26 97,25 97,24 97,23 96,23 96,22 95,21 94,21 94,20 93,20 92,20 92,19 91,19 90,19 89,19 88,19 87,18 86,18 85,18 84,18 83,18 82,18 81,19 80,19 79,20 78,20 77,21 76,22 75,22 75,23 74,23 73,24 72,25 72,26 72,27 71,27 71,28 71,29 71,30 71,31 71,32 71,33 70,33 70,34" fill="none" stroke="#8aff00" stroke-width="3" stroke-linecap="round" stroke-linejoin="round" opacity="0.95">
    <title>5154 c:1</title>
  </polyline>
  <polyline points="73,26 72,27 72,28 72,29 71,30 71,32 71,33 70,34 70,35 70,36 70,37 69,38 69,39 69,40 69,41 69,42 69,43 69,44 69,45 68,46 68,47 68,48 68,49 68,50 68,51 68,52 68,53 68,54 68,55 68,57 68,58 68,59 67,60 67,61 67,62 67,63 67,64 67,66 67,67 67,68 67,69 67,70 67,71 67,72 67,73 67,74 67,75 67,76 67,77" fill="none" stroke="#00f0b5" stroke-width="3" stroke-linecap="round" stroke-linejoin="round" opacity="0.95">
    <title>4675 a:1</title>
  </polyline>
  <polyline points="25,60 26,60 27,59 28,59 29,59 30,59 31,59 33,60 34,60 36,60 39,60 41,60 43,61 44,61 46,61 47,61 48,61 49,62 51,62 52,62 53,62 54,62 55,62 56,62 57,62 59,62 60,62 63,63 64,63 65,63 66,63 67,63 68,63 69,63 70,63 71,63 72,63 74,63 75,64 76,64 77,64 78,64 79,64 81,64 84,64 85,64 86,64 87,65 88,65 89,65 91,65 92,65 93,65 94,65 95,65 96,65 98,65 99,65 100,65 101,65 102,65 103,65 104,65" fill="none" stroke="#7c3cff" stroke-width="3" stroke-linecap="round" stroke-linejoin="round" opacity="0.95">
    <title>5153 g:1</title>
  </polyline>
  <polyline points="108,80 108,81 107,81 107,82 106,82 105,82 105,83 104,83 103,83 102,83 101,83 100,83 99,83 98,83 98,82 97,82 96,82 95,82 95,81 94,81 93,81 93,80 93,79 93,78 93,77 93,76 93,75 93,74 94,74 94,73 94,72 94,71 95,71 95,70 95,69 96,69 96,68 96,67 97,67 98,67 98,66 99,66 99,65 100,65 101,65 101,64 102,64 103,64 104,64 104,63" fill="none" stroke="#f2e45c" stroke-width="3" stroke-linecap="round" stroke-linejoin="round" opacity="0.95">
    <title>4973 e:1</title>
  </polyline>
</svg>
