<?xml version="1.0" encoding="UTF-8"?>
<svg xmlns="http://www.w3.org/2000/svg" width="94" height="55" viewBox="0 0 94 55">
  <title>particle img4-m73-p2 e:1 g:1 e:1</title>
  <metadata>{&quot;entityType&quot;:&quot;particle&quot;,&quot;entityId&quot;:&quot;img4-m73-p2&quot;,&quot;token&quot;:&quot;e:1 g:1 e:1&quot;,&quot;signature&quot;:&quot;e:1 g:1 e:1&quot;,&quot;imageName&quot;:&quot;page-004.jpg&quot;,&quot;imageId&quot;:4,&quot;bounds&quot;:{&quot;x&quot;:554,&quot;y&quot;:2626,&quot;w&quot;:94,&quot;h&quot;:55},&quot;atoms&quot;:[{&quot;id&quot;:5091,&quot;token&quot;:&quot;e:1&quot;,&quot;particle_id&quot;:&quot;img4-m73-p2&quot;,&quot;molecule_id&quot;:&quot;img4-m73&quot;,&quot;atom_order&quot;:1},{&quot;id&quot;:5184,&quot;token&quot;:&quot;g:1&quot;,&quot;particle_id&quot;:&quot;img4-m73-p2&quot;,&quot;molecule_id&quot;:&quot;img4-m73&quot;,&quot;atom_order&quot;:2},{&quot;id&quot;:5092,&quot;token&quot;:&quot;e:1&quot;,&quot;particle_id&quot;:&quot;img4-m73-p2&quot;,&quot;molecule_id&quot;:&quot;img4-m73&quot;,&quot;atom_order&quot;:3}]}</metadata>
  <rect x="0" y="0" width="94" height="55" fill="#f8f0d8"/>
  <image href="file:///C:/Users/HHHES/AppData/Roaming/com.voynichlab.datasetcreator/images/1/aff30327-ced8-4ab4-8c9b-190205ebe022.jpg" x="-554" y="-2626" width="2804" height="3797" opacity="0.92"/>
  <rect x="0.5" y="0.5" width="93" height="54" fill="none" stroke="#111827" stroke-width="1" opacity="0.35"/>
  <polyline points="31,33 31,34 30,34 30,35 29,35 28,35 28,36 27,36 26,36 25,36 24,36 23,36 22,36 21,36 21,35 20,35 19,35 18,35 18,34 17,34 16,34 16,33 16,32 16,31 16,30 16,29 16,28 16,27 17,27 17,26 17,25 17,24 18,24 18,23 18,22 19,22 19,21 19,20 20,20 21,20 21,19 22,19 22,18 23,18 24,18 24,17 25,17 26,17 27,17 27,16" fill="none" stroke="#f2e45c" stroke-width="3" stroke-linecap="round" stroke-linejoin="round" opacity="0.95">
    <title>5091 e:1</title>
  </polyline>
  <polyline points="25,17 26,17 27,17 29,17 31,17 33,17 35,17 36,17 37,17 39,18 42,18 46,18 49,19 52,19 54,19 55,19 57,19 59,20 61,20 63,20 64,20 65,20 66,20 68,20 69,20 70,20 71,20 72,20 73,20 73,21" fill="none" stroke="#7c3cff" stroke-width="3" stroke-linecap="round" stroke-linejoin="round" opacity="0.95">
    <title>5184 g:1</title>
  </polyline>
  <polyline points="78,36 78,37 77,37 77,38 76,38 75,38 75,39 74,39 73,39 72,39 71,39 70,39 69,39 68,39 68,38 67,38 66,38 65,38 65,37 64,37 63,37 63,36 63,35 63,34 63,33 63,32 63,31 63,30 64,30 64,29 64,28 64,27 65,27 65,26 65,25 66,25 66,24 66,23 67,23 68,23 68,22 69,22 69,21 70,21 71,21 71,20 72,20 73,20 74,20 74,19" fill="none" stroke="#f2e45c" stroke-width="3" stroke-linecap="round" stroke-linejoin="round" opacity="0.95">
    <title>5092 e:1</title>
  </polyline>
</svg>
