<?xml version="1.0" encoding="UTF-8"?>
<svg xmlns="http://www.w3.org/2000/svg" width="62" height="53" viewBox="0 0 62 53">
  <title>particle img3-m31-p2 e:1 f:1</title>
  <metadata>{&quot;entityType&quot;:&quot;particle&quot;,&quot;entityId&quot;:&quot;img3-m31-p2&quot;,&quot;token&quot;:&quot;e:1 f:1&quot;,&quot;signature&quot;:&quot;e:1 f:1&quot;,&quot;imageName&quot;:&quot;page-003.jpg&quot;,&quot;imageId&quot;:3,&quot;bounds&quot;:{&quot;x&quot;:1727,&quot;y&quot;:782,&quot;w&quot;:62,&quot;h&quot;:53},&quot;atoms&quot;:[{&quot;id&quot;:1568,&quot;token&quot;:&quot;e:1&quot;,&quot;particle_id&quot;:&quot;img3-m31-p2&quot;,&quot;molecule_id&quot;:&quot;img3-m31&quot;,&quot;atom_order&quot;:1},{&quot;id&quot;:1569,&quot;token&quot;:&quot;f:1&quot;,&quot;particle_id&quot;:&quot;img3-m31-p2&quot;,&quot;molecule_id&quot;:&quot;img3-m31&quot;,&quot;atom_order&quot;:2}]}</metadata>
  <rect x="0" y="0" width="62" height="53" fill="#17181b"/>
  <polyline points="30,34 29,34 29,35 28,35 27,35 26,35 25,35 24,35 23,35 22,34 21,34 21,33 20,33 19,32 18,32 18,31 18,30 17,30 17,29 17,28 17,27 17,26 16,26 16,25 16,24 16,23 17,23 17,22 17,21 18,21 18,20 19,20 20,19 21,19 21,18 22,18 23,18 24,18 24,17 25,17 26,17 27,17 28,16 29,16 30,16 31,16 32,16 32,17 33,17 34,17" fill="none" stroke="#f2e45c" stroke-width="3" stroke-linecap="round" stroke-linejoin="round" opacity="0.95">
    <title>1568 e:1</title>
  </polyline>
  <polyline points="33,16 33,17 33,18 34,18 34,19 34,20 35,20 35,21 36,22 36,23 37,23 37,24 38,25 38,26 39,26 39,27 40,27 40,28 41,28 41,29 41,30 42,30 42,31 42,32 43,32 43,33 44,33 44,34 45,35 45,36 46,36 46,37" fill="none" stroke="#00a2ff" stroke-width="3" stroke-linecap="round" stroke-linejoin="round" opacity="0.95">
    <title>1569 f:1</title>
  </polyline>
</svg>
