<?xml version="1.0" encoding="UTF-8"?>
<svg xmlns="http://www.w3.org/2000/svg" width="52" height="51" viewBox="0 0 52 51">
  <title>atom 1217 e:1</title>
  <metadata>{&quot;entityType&quot;:&quot;atom&quot;,&quot;entityId&quot;:&quot;1217&quot;,&quot;token&quot;:&quot;e:1&quot;,&quot;signature&quot;:&quot;e:1&quot;,&quot;imageName&quot;:&quot;page-003.jpg&quot;,&quot;imageId&quot;:3,&quot;bounds&quot;:{&quot;x&quot;:1919,&quot;y&quot;:604,&quot;w&quot;:52,&quot;h&quot;:51},&quot;atoms&quot;:[{&quot;id&quot;:1217,&quot;token&quot;:&quot;e:1&quot;,&quot;particle_id&quot;:&quot;img3-m10-p1&quot;,&quot;molecule_id&quot;:&quot;img3-m10&quot;,&quot;atom_order&quot;:7}]}</metadata>
  <rect x="0" y="0" width="52" height="51" fill="#f8f0d8"/>
  
  <rect x="0.5" y="0.5" width="51" height="50" fill="none" stroke="#111827" stroke-width="1" opacity="0.35"/>
  <polyline points="31,34 30,34 29,34 29,35 28,35 27,35 26,35 25,35 24,35 23,35 22,35 21,34 20,34 19,34 19,33 18,33 18,32 18,31 17,31 17,30 17,29 16,29 16,28 16,27 16,26 16,25 17,24 17,23 18,23 18,22 19,22 19,21 20,21 20,20 21,20 22,20 22,19 23,19 24,18 25,18 26,18 26,17 27,17 28,17 29,17 30,17 31,17 31,16 32,16 33,16 34,16 34,17 35,17 36,17" fill="none" stroke="#f2e45c" stroke-width="3" stroke-linecap="round" stroke-linejoin="round" opacity="0.95">
    <title>1217 e:1</title>
  </polyline>
</svg>
