<?xml version="1.0" encoding="UTF-8"?>
<svg xmlns="http://www.w3.org/2000/svg" width="55" height="54" viewBox="0 0 55 54">
  <title>atom 6828 e:1</title>
  <metadata>{&quot;entityType&quot;:&quot;atom&quot;,&quot;entityId&quot;:&quot;6828&quot;,&quot;token&quot;:&quot;e:1&quot;,&quot;signature&quot;:&quot;e:1&quot;,&quot;imageName&quot;:&quot;page-006.jpg&quot;,&quot;imageId&quot;:6,&quot;bounds&quot;:{&quot;x&quot;:1369,&quot;y&quot;:735,&quot;w&quot;:55,&quot;h&quot;:54},&quot;atoms&quot;:[{&quot;id&quot;:6828,&quot;token&quot;:&quot;e:1&quot;,&quot;particle_id&quot;:&quot;img6-m10-p2&quot;,&quot;molecule_id&quot;:&quot;img6-m10&quot;,&quot;atom_order&quot;:2}]}</metadata>
  <rect x="0" y="0" width="55" height="54" fill="#f8f0d8"/>

  <rect x="0.5" y="0.5" width="54" height="53" fill="none" stroke="#111827" stroke-width="1" opacity="0.35"/>
  <polyline points="23,38 22,38 21,38 21,37 20,37 19,37 19,36 18,36 17,35 16,34 16,33 16,32 16,31 16,30 16,29 17,29 17,28 17,27 18,27 18,26 18,25 19,25 19,24 20,23 21,23 21,22 22,22 22,21 23,21 23,20 24,20 25,20 25,19 26,19 27,19 28,18 29,18 30,18 31,17 32,17 33,17 34,17 35,17 36,17 37,17 38,17 38,16 39,16" fill="none" stroke="#f2e45c" stroke-width="3" stroke-linecap="round" stroke-linejoin="round" opacity="0.95">
    <title>6828 e:1</title>
  </polyline>
</svg>
