<?xml version="1.0" encoding="UTF-8"?>
<svg xmlns="http://www.w3.org/2000/svg" width="49" height="66" viewBox="0 0 49 66">
  <title>atom 6490 n:1</title>
  <metadata>{&quot;entityType&quot;:&quot;atom&quot;,&quot;entityId&quot;:&quot;6490&quot;,&quot;token&quot;:&quot;n:1&quot;,&quot;signature&quot;:&quot;n:1&quot;,&quot;imageName&quot;:&quot;page-005.jpg&quot;,&quot;imageId&quot;:5,&quot;bounds&quot;:{&quot;x&quot;:718,&quot;y&quot;:2418,&quot;w&quot;:49,&quot;h&quot;:66},&quot;atoms&quot;:[{&quot;id&quot;:6490,&quot;token&quot;:&quot;n:1&quot;,&quot;particle_id&quot;:&quot;img5-m53-p1&quot;,&quot;molecule_id&quot;:&quot;img5-m53&quot;,&quot;atom_order&quot;:1}]}</metadata>
  <rect x="0" y="0" width="49" height="66" fill="#f8f0d8"/>
  <image href="file:///C:/Users/HHHES/AppData/Roaming/com.voynichlab.datasetcreator/images/1/a6cd3b6e-2a78-4b30-a4be-5d186aea258e.jpg" x="-718" y="-2418" width="2691" height="3770" opacity="0.92"/>
  <rect x="0.5" y="0.5" width="48" height="65" fill="none" stroke="#111827" stroke-width="1" opacity="0.35"/>
  <polyline points="19,36 18,36 18,35 17,34 17,32 16,30 16,27 16,25 16,24 16,23 17,22 18,21 19,20 21,19 23,18 25,17 26,17 27,17 28,16 29,16 30,16 31,17 31,19 32,20 32,21 33,22 33,23 33,24 33,25 33,27 33,28 33,29 33,30 33,31 33,33 33,34 32,35 32,36 32,37 31,38 31,39 31,40 30,41 29,43 28,44 27,46 26,46 25,47 25,48 24,49 23,49 23,50" fill="none" stroke="#f92f59" stroke-width="3" stroke-linecap="round" stroke-linejoin="round" opacity="0.95">
    <title>6490 n:1</title>
  </polyline>
</svg>
