<?xml version="1.0" encoding="UTF-8"?>
<svg xmlns="http://www.w3.org/2000/svg" width="44" height="55" viewBox="0 0 44 55">
  <title>atom 6491 n:1</title>
  <metadata>{&quot;entityType&quot;:&quot;atom&quot;,&quot;entityId&quot;:&quot;6491&quot;,&quot;token&quot;:&quot;n:1&quot;,&quot;signature&quot;:&quot;n:1&quot;,&quot;imageName&quot;:&quot;page-005.jpg&quot;,&quot;imageId&quot;:5,&quot;bounds&quot;:{&quot;x&quot;:1150,&quot;y&quot;:2459,&quot;w&quot;:44,&quot;h&quot;:55},&quot;atoms&quot;:[{&quot;id&quot;:6491,&quot;token&quot;:&quot;n:1&quot;,&quot;particle_id&quot;:&quot;img5-m52-p2&quot;,&quot;molecule_id&quot;:&quot;img5-m52&quot;,&quot;atom_order&quot;:1}]}</metadata>
  <rect x="0" y="0" width="44" height="55" fill="#f8f0d8"/>
  <image href="file:///C:/Users/HHHES/AppData/Roaming/com.voynichlab.datasetcreator/images/1/a6cd3b6e-2a78-4b30-a4be-5d186aea258e.jpg" x="-1150" y="-2459" width="2691" height="3770" opacity="0.92"/>
  <rect x="0.5" y="0.5" width="43" height="54" fill="none" stroke="#111827" stroke-width="1" opacity="0.35"/>
  <polyline points="17,32 17,31 17,29 17,27 16,25 16,23 16,21 16,20 17,19 18,18 19,18 20,17 22,17 23,16 25,16 26,17 27,18 27,20 28,21 28,22 28,24 28,26 28,28 28,29 28,31 28,32 28,34 27,35 27,37 26,37 26,38 26,39" fill="none" stroke="#f92f59" stroke-width="3" stroke-linecap="round" stroke-linejoin="round" opacity="0.95">
    <title>6491 n:1</title>
  </polyline>
</svg>
