<?xml version="1.0" encoding="UTF-8"?>
<svg xmlns="http://www.w3.org/2000/svg" width="41" height="58" viewBox="0 0 41 58">
  <title>atom 6500 n:1</title>
  <metadata>{&quot;entityType&quot;:&quot;atom&quot;,&quot;entityId&quot;:&quot;6500&quot;,&quot;token&quot;:&quot;n:1&quot;,&quot;signature&quot;:&quot;n:1&quot;,&quot;imageName&quot;:&quot;page-005.jpg&quot;,&quot;imageId&quot;:5,&quot;bounds&quot;:{&quot;x&quot;:1192,&quot;y&quot;:2695,&quot;w&quot;:41,&quot;h&quot;:58},&quot;atoms&quot;:[{&quot;id&quot;:6500,&quot;token&quot;:&quot;n:1&quot;,&quot;particle_id&quot;:&quot;img5-m89-p1&quot;,&quot;molecule_id&quot;:&quot;img5-m89&quot;,&quot;atom_order&quot;:1}]}</metadata>
  <rect x="0" y="0" width="41" height="58" fill="#f8f0d8"/>
  <image href="file:///C:/Users/HHHES/AppData/Roaming/com.voynichlab.datasetcreator/images/1/a6cd3b6e-2a78-4b30-a4be-5d186aea258e.jpg" x="-1192" y="-2695" width="2691" height="3770" opacity="0.92"/>
  <rect x="0.5" y="0.5" width="40" height="57" fill="none" stroke="#111827" stroke-width="1" opacity="0.35"/>
  <polyline points="18,30 17,30 17,29 17,28 17,26 16,24 16,23 16,21 17,20 17,19 18,18 18,17 19,17 20,16 21,16 22,16 22,17 22,18 23,18 23,19 24,20 24,21 24,22 24,23 25,23 25,24 25,25 25,26 25,27 25,28 25,29 25,30 25,31 25,32 25,33 25,34 25,35 24,36 24,37 24,38 23,39 23,40 22,40 22,41 21,42" fill="none" stroke="#f92f59" stroke-width="3" stroke-linecap="round" stroke-linejoin="round" opacity="0.95">
    <title>6500 n:1</title>
  </polyline>
</svg>
