<?xml version="1.0" encoding="UTF-8"?>
<svg xmlns="http://www.w3.org/2000/svg" width="48" height="48" viewBox="0 0 48 48">
  <title>atom 4764 c:1</title>
  <metadata>{&quot;entityType&quot;:&quot;atom&quot;,&quot;entityId&quot;:&quot;4764&quot;,&quot;token&quot;:&quot;c:1&quot;,&quot;signature&quot;:&quot;c:1&quot;,&quot;imageName&quot;:&quot;page-004.jpg&quot;,&quot;imageId&quot;:4,&quot;bounds&quot;:{&quot;x&quot;:865,&quot;y&quot;:1890,&quot;w&quot;:48,&quot;h&quot;:48},&quot;atoms&quot;:[{&quot;id&quot;:4764,&quot;token&quot;:&quot;c:1&quot;,&quot;particle_id&quot;:&quot;img4-m2-p3&quot;,&quot;molecule_id&quot;:&quot;img4-m2&quot;,&quot;atom_order&quot;:2}]}</metadata>
  <rect x="0" y="0" width="48" height="48" fill="#f8f0d8"/>
  <image href="file:///C:/Users/HHHES/AppData/Roaming/com.voynichlab.datasetcreator/images/1/aff30327-ced8-4ab4-8c9b-190205ebe022.jpg" x="-865" y="-1890" width="2804" height="3797" opacity="0.92"/>
  <rect x="0.5" y="0.5" width="47" height="47" fill="none" stroke="#111827" stroke-width="1" opacity="0.35"/>
  <polyline points="31,27 31,26 31,25 32,25 32,24 32,23 32,22 32,21 31,20 31,19 30,19 30,18 29,18 29,17 28,17 27,17 26,16 25,16 24,16 23,16 22,16 21,16 21,17 20,17 19,17 19,18 18,19 18,20 18,21 17,21 17,22 17,23 16,23 16,24 16,25 16,26 16,27 16,28 16,29 16,30 17,30 17,31 18,31 19,32 20,32 21,32 22,32 23,32 24,32 25,31 26,31 27,30 28,30 29,29 30,29 30,28 31,28 31,27 32,26 32,25" fill="none" stroke="#8aff00" stroke-width="3" stroke-linecap="round" stroke-linejoin="round" opacity="0.95">
    <title>4764 c:1</title>
  </polyline>
</svg>
