<?xml version="1.0" encoding="UTF-8"?>
<svg xmlns="http://www.w3.org/2000/svg" width="46" height="48" viewBox="0 0 46 48">
  <title>atom 4770 c:1</title>
  <metadata>{&quot;entityType&quot;:&quot;atom&quot;,&quot;entityId&quot;:&quot;4770&quot;,&quot;token&quot;:&quot;c:1&quot;,&quot;signature&quot;:&quot;c:1&quot;,&quot;imageName&quot;:&quot;page-004.jpg&quot;,&quot;imageId&quot;:4,&quot;bounds&quot;:{&quot;x&quot;:2171,&quot;y&quot;:2042,&quot;w&quot;:46,&quot;h&quot;:48},&quot;atoms&quot;:[{&quot;id&quot;:4770,&quot;token&quot;:&quot;c:1&quot;,&quot;particle_id&quot;:&quot;img4-m16-p4&quot;,&quot;molecule_id&quot;:&quot;img4-m16&quot;,&quot;atom_order&quot;:2}]}</metadata>
  <rect x="0" y="0" width="46" height="48" fill="#f8f0d8"/>
  <image href="file:///C:/Users/HHHES/AppData/Roaming/com.voynichlab.datasetcreator/images/1/aff30327-ced8-4ab4-8c9b-190205ebe022.jpg" x="-2171" y="-2042" width="2804" height="3797" opacity="0.92"/>
  <rect x="0.5" y="0.5" width="45" height="47" fill="none" stroke="#111827" stroke-width="1" opacity="0.35"/>
  <polyline points="21,32 22,32 22,31 23,31 24,31 24,30 25,30 25,29 26,29 26,28 27,28 27,27 28,27 28,26 29,25 29,24 29,23 30,23 30,22 30,21 30,20 30,19 30,18 30,17 29,17 29,16 28,16 27,16 26,16 25,16 24,16 23,16 22,17 21,17 20,18 19,18 19,19 18,20 17,21 17,22 17,23 16,23 16,24 16,25 16,26 16,27 16,28 16,29 17,29 17,30 17,31 18,31 19,31 19,32 20,32 21,32 22,32" fill="none" stroke="#8aff00" stroke-width="3" stroke-linecap="round" stroke-linejoin="round" opacity="0.95">
    <title>4770 c:1</title>
  </polyline>
</svg>
