<?xml version="1.0" encoding="UTF-8"?>
<svg xmlns="http://www.w3.org/2000/svg" width="50" height="50" viewBox="0 0 50 50">
  <title>atom 4776 c:1</title>
  <metadata>{&quot;entityType&quot;:&quot;atom&quot;,&quot;entityId&quot;:&quot;4776&quot;,&quot;token&quot;:&quot;c:1&quot;,&quot;signature&quot;:&quot;c:1&quot;,&quot;imageName&quot;:&quot;page-004.jpg&quot;,&quot;imageId&quot;:4,&quot;bounds&quot;:{&quot;x&quot;:1914,&quot;y&quot;:2004,&quot;w&quot;:50,&quot;h&quot;:50},&quot;atoms&quot;:[{&quot;id&quot;:4776,&quot;token&quot;:&quot;c:1&quot;,&quot;particle_id&quot;:&quot;img4-m12-p1&quot;,&quot;molecule_id&quot;:&quot;img4-m12&quot;,&quot;atom_order&quot;:3}]}</metadata>
  <rect x="0" y="0" width="50" height="50" fill="#f8f0d8"/>
  <image href="file:///C:/Users/HHHES/AppData/Roaming/com.voynichlab.datasetcreator/images/1/aff30327-ced8-4ab4-8c9b-190205ebe022.jpg" x="-1914" y="-2004" width="2804" height="3797" opacity="0.92"/>
  <rect x="0.5" y="0.5" width="49" height="49" fill="none" stroke="#111827" stroke-width="1" opacity="0.35"/>
  <polyline points="32,28 33,28 33,27 33,26 34,26 34,25 34,24 34,23 34,22 34,21 34,20 33,20 33,19 32,19 32,18 31,18 30,18 30,17 29,17 28,17 27,16 26,16 25,16 24,16 23,16 22,17 21,17 20,17 20,18 19,19 19,20 18,20 18,21 17,21 17,22 17,23 17,24 16,24 16,25 16,26 16,27 16,28 16,29 16,30 17,30 17,31 18,32 18,33 19,33 20,33 20,34 21,34 22,34 23,34 24,34 25,34 26,34 27,34 27,33 28,33 29,33 29,32 30,32 31,31 32,31 32,30 33,29 33,28 34,28 34,27 34,26 34,25" fill="none" stroke="#8aff00" stroke-width="3" stroke-linecap="round" stroke-linejoin="round" opacity="0.95">
    <title>4776 c:1</title>
  </polyline>
</svg>
