<?xml version="1.0" encoding="UTF-8"?>
<svg xmlns="http://www.w3.org/2000/svg" width="54" height="48" viewBox="0 0 54 48">
  <title>atom 4779 c:1</title>
  <metadata>{&quot;entityType&quot;:&quot;atom&quot;,&quot;entityId&quot;:&quot;4779&quot;,&quot;token&quot;:&quot;c:1&quot;,&quot;signature&quot;:&quot;c:1&quot;,&quot;imageName&quot;:&quot;page-004.jpg&quot;,&quot;imageId&quot;:4,&quot;bounds&quot;:{&quot;x&quot;:1675,&quot;y&quot;:2062,&quot;w&quot;:54,&quot;h&quot;:48},&quot;atoms&quot;:[{&quot;id&quot;:4779,&quot;token&quot;:&quot;c:1&quot;,&quot;particle_id&quot;:&quot;img4-m21-p2&quot;,&quot;molecule_id&quot;:&quot;img4-m21&quot;,&quot;atom_order&quot;:3}]}</metadata>
  <rect x="0" y="0" width="54" height="48" fill="#f8f0d8"/>
  <image href="file:///C:/Users/HHHES/AppData/Roaming/com.voynichlab.datasetcreator/images/1/aff30327-ced8-4ab4-8c9b-190205ebe022.jpg" x="-1675" y="-2062" width="2804" height="3797" opacity="0.92"/>
  <rect x="0.5" y="0.5" width="53" height="47" fill="none" stroke="#111827" stroke-width="1" opacity="0.35"/>
  <polyline points="34,28 34,27 35,27 36,27 36,26 37,26 37,25 38,25 38,24 38,23 38,22 38,21 38,20 37,20 37,19 36,19 35,18 34,17 33,17 32,16 31,16 30,16 29,16 28,16 27,16 26,16 25,16 24,16 23,17 22,17 22,18 21,18 20,18 20,19 19,19 19,20 18,20 18,21 17,21 17,22 17,23 16,24 16,25 16,26 16,27 16,28 16,29 16,30 17,30 17,31 18,31 19,32 20,32 21,32 22,32 23,32 24,32 25,32 26,32 26,31 27,31 28,31 29,31 30,31 30,30 31,30 32,30 32,29 33,29 34,29 34,28 35,28 35,27 36,27 36,26" fill="none" stroke="#8aff00" stroke-width="3" stroke-linecap="round" stroke-linejoin="round" opacity="0.95">
    <title>4779 c:1</title>
  </polyline>
</svg>
