<?xml version="1.0" encoding="UTF-8"?>
<svg xmlns="http://www.w3.org/2000/svg" width="52" height="51" viewBox="0 0 52 51">
  <title>atom 4785 c:1</title>
  <metadata>{&quot;entityType&quot;:&quot;atom&quot;,&quot;entityId&quot;:&quot;4785&quot;,&quot;token&quot;:&quot;c:1&quot;,&quot;signature&quot;:&quot;c:1&quot;,&quot;imageName&quot;:&quot;page-004.jpg&quot;,&quot;imageId&quot;:4,&quot;bounds&quot;:{&quot;x&quot;:2155,&quot;y&quot;:2102,&quot;w&quot;:52,&quot;h&quot;:51},&quot;atoms&quot;:[{&quot;id&quot;:4785,&quot;token&quot;:&quot;c:1&quot;,&quot;particle_id&quot;:&quot;img4-m20-p3&quot;,&quot;molecule_id&quot;:&quot;img4-m20&quot;,&quot;atom_order&quot;:3}]}</metadata>
  <rect x="0" y="0" width="52" height="51" fill="#f8f0d8"/>
  <image href="file:///C:/Users/HHHES/AppData/Roaming/com.voynichlab.datasetcreator/images/1/aff30327-ced8-4ab4-8c9b-190205ebe022.jpg" x="-2155" y="-2102" width="2804" height="3797" opacity="0.92"/>
  <rect x="0.5" y="0.5" width="51" height="50" fill="none" stroke="#111827" stroke-width="1" opacity="0.35"/>
  <polyline points="19,17 20,16 21,16 22,16 23,16 24,16 25,16 26,16 27,16 28,16 29,16 30,16 30,17 31,17 32,17 32,18 33,18 33,19 34,19 34,20 35,21 35,22 36,22 36,23 36,24 36,25 36,26 36,27 36,28 36,29 36,30 36,31 35,31 35,32 34,32 33,33 32,33 32,34 31,34 30,34 29,34 28,35 27,35 26,35 25,35 24,35 23,35 23,34 22,34 21,34 20,34 20,33 19,33 19,32 18,32 18,31 17,31 17,30 16,30 16,29 16,28 16,27 16,26 16,25 16,24 16,23 16,22 16,21 17,21 17,20 17,19 18,19 18,18 19,17 20,17 20,16 21,16" fill="none" stroke="#8aff00" stroke-width="3" stroke-linecap="round" stroke-linejoin="round" opacity="0.95">
    <title>4785 c:1</title>
  </polyline>
</svg>
