<?xml version="1.0" encoding="UTF-8"?>
<svg xmlns="http://www.w3.org/2000/svg" width="53" height="52" viewBox="0 0 53 52">
  <title>atom 4791 c:1</title>
  <metadata>{&quot;entityType&quot;:&quot;atom&quot;,&quot;entityId&quot;:&quot;4791&quot;,&quot;token&quot;:&quot;c:1&quot;,&quot;signature&quot;:&quot;c:1&quot;,&quot;imageName&quot;:&quot;page-004.jpg&quot;,&quot;imageId&quot;:4,&quot;bounds&quot;:{&quot;x&quot;:1891,&quot;y&quot;:2147,&quot;w&quot;:53,&quot;h&quot;:52},&quot;atoms&quot;:[{&quot;id&quot;:4791,&quot;token&quot;:&quot;c:1&quot;,&quot;particle_id&quot;:&quot;img4-m29-p1&quot;,&quot;molecule_id&quot;:&quot;img4-m29&quot;,&quot;atom_order&quot;:3}]}</metadata>
  <rect x="0" y="0" width="53" height="52" fill="#f8f0d8"/>
  <image href="file:///C:/Users/HHHES/AppData/Roaming/com.voynichlab.datasetcreator/images/1/aff30327-ced8-4ab4-8c9b-190205ebe022.jpg" x="-1891" y="-2147" width="2804" height="3797" opacity="0.92"/>
  <rect x="0.5" y="0.5" width="52" height="51" fill="none" stroke="#111827" stroke-width="1" opacity="0.35"/>
  <polyline points="35,29 36,28 36,27 37,26 37,25 37,24 37,23 37,22 36,21 36,20 35,20 35,19 34,19 34,18 33,18 33,17 32,17 31,16 30,16 29,16 28,16 27,16 26,16 25,16 24,16 23,16 23,17 22,17 21,17 21,18 20,18 19,19 19,20 18,21 18,22 17,22 17,23 17,24 17,25 16,25 16,26 16,27 16,28 16,29 16,30 16,31 16,32 16,33 17,33 17,34 18,34 18,35 19,35 20,35 21,36 22,36 23,36 24,36 25,36 26,36 27,36 28,35 29,35 30,35 30,34 31,34 32,33 33,33 33,32 34,32 34,31 35,31 36,30 36,29 37,29 37,28 37,27 37,26" fill="none" stroke="#8aff00" stroke-width="3" stroke-linecap="round" stroke-linejoin="round" opacity="0.95">
    <title>4791 c:1</title>
  </polyline>
</svg>
