<?xml version="1.0" encoding="UTF-8"?>
<svg xmlns="http://www.w3.org/2000/svg" width="48" height="47" viewBox="0 0 48 47">
  <title>atom 4798 c:1</title>
  <metadata>{&quot;entityType&quot;:&quot;atom&quot;,&quot;entityId&quot;:&quot;4798&quot;,&quot;token&quot;:&quot;c:1&quot;,&quot;signature&quot;:&quot;c:1&quot;,&quot;imageName&quot;:&quot;page-004.jpg&quot;,&quot;imageId&quot;:4,&quot;bounds&quot;:{&quot;x&quot;:951,&quot;y&quot;:2008,&quot;w&quot;:48,&quot;h&quot;:47},&quot;atoms&quot;:[{&quot;id&quot;:4798,&quot;token&quot;:&quot;c:1&quot;,&quot;particle_id&quot;:&quot;img4-m13-p3&quot;,&quot;molecule_id&quot;:&quot;img4-m13&quot;,&quot;atom_order&quot;:3}]}</metadata>
  <rect x="0" y="0" width="48" height="47" fill="#f8f0d8"/>
  <image href="file:///C:/Users/HHHES/AppData/Roaming/com.voynichlab.datasetcreator/images/1/aff30327-ced8-4ab4-8c9b-190205ebe022.jpg" x="-951" y="-2008" width="2804" height="3797" opacity="0.92"/>
  <rect x="0.5" y="0.5" width="47" height="46" fill="none" stroke="#111827" stroke-width="1" opacity="0.35"/>
  <polyline points="30,28 31,28 31,27 32,27 32,26 32,25 32,24 32,23 32,22 32,21 31,21 31,20 31,19 30,19 29,18 28,17 27,17 27,16 26,16 25,16 24,16 24,17 23,17 22,17 21,18 20,18 20,19 19,19 19,20 18,20 18,21 17,21 17,22 17,23 16,23 16,24 16,25 16,26 16,27 16,28 16,29 17,29 17,30 18,30 19,30 19,31 20,31 21,31 22,31 23,31 24,31 25,31 26,31 27,31 28,31 28,30 29,30 30,30 30,29 31,29 31,28 31,27 32,27" fill="none" stroke="#8aff00" stroke-width="3" stroke-linecap="round" stroke-linejoin="round" opacity="0.95">
    <title>4798 c:1</title>
  </polyline>
</svg>
