<?xml version="1.0" encoding="UTF-8"?>
<svg xmlns="http://www.w3.org/2000/svg" width="48" height="52" viewBox="0 0 48 52">
  <title>atom 4803 c:1</title>
  <metadata>{&quot;entityType&quot;:&quot;atom&quot;,&quot;entityId&quot;:&quot;4803&quot;,&quot;token&quot;:&quot;c:1&quot;,&quot;signature&quot;:&quot;c:1&quot;,&quot;imageName&quot;:&quot;page-004.jpg&quot;,&quot;imageId&quot;:4,&quot;bounds&quot;:{&quot;x&quot;:668,&quot;y&quot;:1998,&quot;w&quot;:48,&quot;h&quot;:52},&quot;atoms&quot;:[{&quot;id&quot;:4803,&quot;token&quot;:&quot;c:1&quot;,&quot;particle_id&quot;:&quot;img4-m15-p1&quot;,&quot;molecule_id&quot;:&quot;img4-m15&quot;,&quot;atom_order&quot;:4}]}</metadata>
  <rect x="0" y="0" width="48" height="52" fill="#f8f0d8"/>
  <image href="file:///C:/Users/HHHES/AppData/Roaming/com.voynichlab.datasetcreator/images/1/aff30327-ced8-4ab4-8c9b-190205ebe022.jpg" x="-668" y="-1998" width="2804" height="3797" opacity="0.92"/>
  <rect x="0.5" y="0.5" width="47" height="51" fill="none" stroke="#111827" stroke-width="1" opacity="0.35"/>
  <polyline points="31,26 31,25 31,24 32,24 32,23 32,22 32,21 32,20 32,19 32,18 31,18 31,17 31,16 30,16 29,16 28,16 27,16 26,16 25,16 24,16 24,17 23,17 23,18 22,18 21,19 20,19 20,20 19,20 19,21 18,21 18,22 18,23 17,23 17,24 17,25 17,26 17,27 16,28 16,29 16,30 16,31 16,32 17,32 17,33 17,34 18,34 18,35 19,35 20,35 20,36 21,36 22,36 22,35 23,35 24,35 24,34 25,34 25,33 26,33 27,33 27,32 28,31 29,31 29,30 30,30 30,29 31,28 31,27 31,26 32,26 32,25 32,24 32,23 32,22 31,22" fill="none" stroke="#8aff00" stroke-width="3" stroke-linecap="round" stroke-linejoin="round" opacity="0.95">
    <title>4803 c:1</title>
  </polyline>
</svg>
