<?xml version="1.0" encoding="UTF-8"?>
<svg xmlns="http://www.w3.org/2000/svg" width="51" height="50" viewBox="0 0 51 50">
  <title>atom 4810 c:1</title>
  <metadata>{&quot;entityType&quot;:&quot;atom&quot;,&quot;entityId&quot;:&quot;4810&quot;,&quot;token&quot;:&quot;c:1&quot;,&quot;signature&quot;:&quot;c:1&quot;,&quot;imageName&quot;:&quot;page-004.jpg&quot;,&quot;imageId&quot;:4,&quot;bounds&quot;:{&quot;x&quot;:886,&quot;y&quot;:2097,&quot;w&quot;:51,&quot;h&quot;:50},&quot;atoms&quot;:[{&quot;id&quot;:4810,&quot;token&quot;:&quot;c:1&quot;,&quot;particle_id&quot;:&quot;img4-m23-p1&quot;,&quot;molecule_id&quot;:&quot;img4-m23&quot;,&quot;atom_order&quot;:2}]}</metadata>
  <rect x="0" y="0" width="51" height="50" fill="#f8f0d8"/>
  <image href="file:///C:/Users/HHHES/AppData/Roaming/com.voynichlab.datasetcreator/images/1/aff30327-ced8-4ab4-8c9b-190205ebe022.jpg" x="-886" y="-2097" width="2804" height="3797" opacity="0.92"/>
  <rect x="0.5" y="0.5" width="50" height="49" fill="none" stroke="#111827" stroke-width="1" opacity="0.35"/>
  <polyline points="27,33 28,32 29,32 30,32 31,31 31,30 32,30 32,29 33,28 34,27 34,26 35,26 35,25 35,24 35,23 35,22 35,21 34,21 34,20 33,19 33,18 32,18 32,17 31,17 31,16 30,16 29,16 28,16 27,16 26,16 25,16 24,16 23,16 22,16 21,17 20,17 19,18 18,18 18,19 17,19 17,20 17,21 16,21 16,22 16,23 16,24 16,25 16,26 17,26 17,27 17,28 18,29 19,30 19,31 20,31 20,32 21,32 21,33 22,33 23,34 24,34 25,34 26,33 27,33 28,33 29,33 29,32 30,32 30,31" fill="none" stroke="#8aff00" stroke-width="3" stroke-linecap="round" stroke-linejoin="round" opacity="0.95">
    <title>4810 c:1</title>
  </polyline>
</svg>
