<?xml version="1.0" encoding="UTF-8"?>
<svg xmlns="http://www.w3.org/2000/svg" width="46" height="49" viewBox="0 0 46 49">
  <title>atom 4812 c:1</title>
  <metadata>{&quot;entityType&quot;:&quot;atom&quot;,&quot;entityId&quot;:&quot;4812&quot;,&quot;token&quot;:&quot;c:1&quot;,&quot;signature&quot;:&quot;c:1&quot;,&quot;imageName&quot;:&quot;page-004.jpg&quot;,&quot;imageId&quot;:4,&quot;bounds&quot;:{&quot;x&quot;:1118,&quot;y&quot;:2115,&quot;w&quot;:46,&quot;h&quot;:49},&quot;atoms&quot;:[{&quot;id&quot;:4812,&quot;token&quot;:&quot;c:1&quot;,&quot;particle_id&quot;:&quot;img4-m24-p2&quot;,&quot;molecule_id&quot;:&quot;img4-m24&quot;,&quot;atom_order&quot;:3}]}</metadata>
  <rect x="0" y="0" width="46" height="49" fill="#f8f0d8"/>
  <image href="file:///C:/Users/HHHES/AppData/Roaming/com.voynichlab.datasetcreator/images/1/aff30327-ced8-4ab4-8c9b-190205ebe022.jpg" x="-1118" y="-2115" width="2804" height="3797" opacity="0.92"/>
  <rect x="0.5" y="0.5" width="45" height="48" fill="none" stroke="#111827" stroke-width="1" opacity="0.35"/>
  <polyline points="26,32 27,32 28,32 28,31 29,31 29,30 29,29 30,29 30,28 30,27 30,26 30,25 30,24 30,23 30,22 30,21 30,20 30,19 29,19 29,18 28,18 28,17 27,17 26,17 25,17 24,17 23,16 22,16 21,16 20,16 20,17 19,17 18,17 18,18 17,18 17,19 17,20 17,21 16,21 16,22 16,23 16,24 16,25 16,26 17,26 17,27 17,28 18,28 18,29 18,30 19,30 19,31 20,31 21,32 22,32 22,33 23,33 24,33 25,33 25,32 26,32 27,32 28,32 28,31 29,31" fill="none" stroke="#8aff00" stroke-width="3" stroke-linecap="round" stroke-linejoin="round" opacity="0.95">
    <title>4812 c:1</title>
  </polyline>
</svg>
