<?xml version="1.0" encoding="UTF-8"?>
<svg xmlns="http://www.w3.org/2000/svg" width="55" height="51" viewBox="0 0 55 51">
  <title>atom 4813 c:1</title>
  <metadata>{&quot;entityType&quot;:&quot;atom&quot;,&quot;entityId&quot;:&quot;4813&quot;,&quot;token&quot;:&quot;c:1&quot;,&quot;signature&quot;:&quot;c:1&quot;,&quot;imageName&quot;:&quot;page-004.jpg&quot;,&quot;imageId&quot;:4,&quot;bounds&quot;:{&quot;x&quot;:630,&quot;y&quot;:2174,&quot;w&quot;:55,&quot;h&quot;:51},&quot;atoms&quot;:[{&quot;id&quot;:4813,&quot;token&quot;:&quot;c:1&quot;,&quot;particle_id&quot;:&quot;img4-m30-p1&quot;,&quot;molecule_id&quot;:&quot;img4-m30&quot;,&quot;atom_order&quot;:4}]}</metadata>
  <rect x="0" y="0" width="55" height="51" fill="#f8f0d8"/>
  <image href="file:///C:/Users/HHHES/AppData/Roaming/com.voynichlab.datasetcreator/images/1/aff30327-ced8-4ab4-8c9b-190205ebe022.jpg" x="-630" y="-2174" width="2804" height="3797" opacity="0.92"/>
  <rect x="0.5" y="0.5" width="54" height="50" fill="none" stroke="#111827" stroke-width="1" opacity="0.35"/>
  <polyline points="37,30 37,29 38,29 39,28 39,27 39,26 39,25 39,24 39,23 38,22 37,21 37,20 36,20 35,19 34,19 34,18 33,18 32,18 31,18 30,17 29,17 28,17 27,17 26,17 25,17 24,17 23,16 22,16 22,17 21,17 20,18 19,18 19,19 19,20 18,20 18,21 17,21 17,22 17,23 16,23 16,24 16,25 16,26 16,27 16,28 16,29 17,29 17,30 18,30 18,31 19,32 20,33 21,34 22,34 23,34 24,35 25,35 26,35 27,35 28,35 29,35 30,35 31,35 32,34 33,34 33,33 34,33 34,32 35,32 36,31 37,31 37,30 38,29 38,28 39,28 39,27 39,26" fill="none" stroke="#8aff00" stroke-width="3" stroke-linecap="round" stroke-linejoin="round" opacity="0.95">
    <title>4813 c:1</title>
  </polyline>
</svg>
