<?xml version="1.0" encoding="UTF-8"?>
<svg xmlns="http://www.w3.org/2000/svg" width="47" height="47" viewBox="0 0 47 47">
  <title>atom 4816 c:1</title>
  <metadata>{&quot;entityType&quot;:&quot;atom&quot;,&quot;entityId&quot;:&quot;4816&quot;,&quot;token&quot;:&quot;c:1&quot;,&quot;signature&quot;:&quot;c:1&quot;,&quot;imageName&quot;:&quot;page-004.jpg&quot;,&quot;imageId&quot;:4,&quot;bounds&quot;:{&quot;x&quot;:660,&quot;y&quot;:2317,&quot;w&quot;:47,&quot;h&quot;:47},&quot;atoms&quot;:[{&quot;id&quot;:4816,&quot;token&quot;:&quot;c:1&quot;,&quot;particle_id&quot;:&quot;img4-m30-p4&quot;,&quot;molecule_id&quot;:&quot;img4-m30&quot;,&quot;atom_order&quot;:1}]}</metadata>
  <rect x="0" y="0" width="47" height="47" fill="#f8f0d8"/>
  <image href="file:///C:/Users/HHHES/AppData/Roaming/com.voynichlab.datasetcreator/images/1/aff30327-ced8-4ab4-8c9b-190205ebe022.jpg" x="-660" y="-2317" width="2804" height="3797" opacity="0.92"/>
  <rect x="0.5" y="0.5" width="46" height="46" fill="none" stroke="#111827" stroke-width="1" opacity="0.35"/>
  <polyline points="16,24 16,23 16,24 16,25 16,26 16,27 16,28 17,28 17,29 18,29 18,30 19,30 19,31 20,31 21,31 22,31 23,31 24,31 25,31 26,31 26,30 27,30 28,30 28,29 29,29 29,28 30,27 30,26 30,25 30,24 31,24 31,23 31,22 31,21 31,20 30,19 30,18 29,18 28,17 27,17 27,16 26,16 25,16 24,16 24,17 23,17 22,17 22,18 21,18 21,19 20,19 20,20 19,20 19,21 18,21 18,22 17,22 17,23 17,24 17,25" fill="none" stroke="#8aff00" stroke-width="3" stroke-linecap="round" stroke-linejoin="round" opacity="0.95">
    <title>4816 c:1</title>
  </polyline>
</svg>
