<?xml version="1.0" encoding="UTF-8"?>
<svg xmlns="http://www.w3.org/2000/svg" width="61" height="53" viewBox="0 0 61 53">
  <title>atom 4823 c:1</title>
  <metadata>{&quot;entityType&quot;:&quot;atom&quot;,&quot;entityId&quot;:&quot;4823&quot;,&quot;token&quot;:&quot;c:1&quot;,&quot;signature&quot;:&quot;c:1&quot;,&quot;imageName&quot;:&quot;page-004.jpg&quot;,&quot;imageId&quot;:4,&quot;bounds&quot;:{&quot;x&quot;:1837,&quot;y&quot;:2292,&quot;w&quot;:61,&quot;h&quot;:53},&quot;atoms&quot;:[{&quot;id&quot;:4823,&quot;token&quot;:&quot;c:1&quot;,&quot;particle_id&quot;:&quot;img4-m33-p1&quot;,&quot;molecule_id&quot;:&quot;img4-m33&quot;,&quot;atom_order&quot;:3}]}</metadata>
  <rect x="0" y="0" width="61" height="53" fill="#f8f0d8"/>
  <image href="file:///C:/Users/HHHES/AppData/Roaming/com.voynichlab.datasetcreator/images/1/aff30327-ced8-4ab4-8c9b-190205ebe022.jpg" x="-1837" y="-2292" width="2804" height="3797" opacity="0.92"/>
  <rect x="0.5" y="0.5" width="60" height="52" fill="none" stroke="#111827" stroke-width="1" opacity="0.35"/>
  <polyline points="20,24 20,25 19,25 19,26 19,27 18,27 18,28 17,29 17,30 17,31 16,32 16,33 17,34 18,35 19,36 20,36 21,36 22,36 23,36 24,37 25,37 26,37 27,37 28,37 29,37 30,37 31,37 32,37 33,37 34,37 35,37 36,37 37,37 38,37 39,37 39,36 40,36 41,35 42,35 42,34 43,34 44,33 45,32 45,31 45,30 45,29 45,28 45,27 45,26 45,25 44,25 44,24 43,23 43,22 42,21 42,20 41,20 41,19 40,19 39,18 38,18 37,17 36,17 35,17 35,16 34,16 33,16 32,16 31,16 30,16 29,16 27,17 26,17 25,17 25,18 24,18 24,19 23,19 23,20 22,21 22,22 21,22 21,23 20,23 20,24 20,25 20,26 19,27 19,28 19,29 19,30 19,31 19,32" fill="none" stroke="#8aff00" stroke-width="3" stroke-linecap="round" stroke-linejoin="round" opacity="0.95">
    <title>4823 c:1</title>
  </polyline>
</svg>
