<?xml version="1.0" encoding="UTF-8"?>
<svg xmlns="http://www.w3.org/2000/svg" width="63" height="53" viewBox="0 0 63 53">
  <title>atom 4829 c:1</title>
  <metadata>{&quot;entityType&quot;:&quot;atom&quot;,&quot;entityId&quot;:&quot;4829&quot;,&quot;token&quot;:&quot;c:1&quot;,&quot;signature&quot;:&quot;c:1&quot;,&quot;imageName&quot;:&quot;page-004.jpg&quot;,&quot;imageId&quot;:4,&quot;bounds&quot;:{&quot;x&quot;:2361,&quot;y&quot;:2439,&quot;w&quot;:63,&quot;h&quot;:53},&quot;atoms&quot;:[{&quot;id&quot;:4829,&quot;token&quot;:&quot;c:1&quot;,&quot;particle_id&quot;:&quot;img4-m46-p1&quot;,&quot;molecule_id&quot;:&quot;img4-m46&quot;,&quot;atom_order&quot;:5}]}</metadata>
  <rect x="0" y="0" width="63" height="53" fill="#f8f0d8"/>
  <image href="file:///C:/Users/HHHES/AppData/Roaming/com.voynichlab.datasetcreator/images/1/aff30327-ced8-4ab4-8c9b-190205ebe022.jpg" x="-2361" y="-2439" width="2804" height="3797" opacity="0.92"/>
  <rect x="0.5" y="0.5" width="62" height="52" fill="none" stroke="#111827" stroke-width="1" opacity="0.35"/>
  <polyline points="18,21 18,22 17,23 17,24 17,25 17,26 16,27 16,28 16,29 17,30 17,31 18,31 18,32 18,33 19,33 19,34 20,35 21,35 21,36 22,36 23,37 24,37 25,37 26,37 27,37 28,37 29,37 30,37 31,37 32,37 33,37 34,37 34,36 35,36 36,36 37,36 37,35 38,35 39,35 40,35 40,34 41,34 42,34 42,33 43,33 43,32 44,32 44,31 45,30 45,29 46,29 46,28 46,27 47,27 47,26 47,25 47,24 47,23 47,22 47,21 46,21 46,20 45,19 44,19 43,18 42,18 41,17 40,16 39,16 38,16 37,16 36,16 35,16 34,16 33,16 32,16 31,16 30,16 29,16 28,17 27,17 26,18 25,18 25,19 24,19 23,20 22,21 21,22 20,23 19,23 19,24 19,25 18,25 18,26 18,27 18,28 18,29 18,30 18,31" fill="none" stroke="#8aff00" stroke-width="3" stroke-linecap="round" stroke-linejoin="round" opacity="0.95">
    <title>4829 c:1</title>
  </polyline>
</svg>
