<?xml version="1.0" encoding="UTF-8"?>
<svg xmlns="http://www.w3.org/2000/svg" width="53" height="52" viewBox="0 0 53 52">
  <title>atom 4832 c:1</title>
  <metadata>{&quot;entityType&quot;:&quot;atom&quot;,&quot;entityId&quot;:&quot;4832&quot;,&quot;token&quot;:&quot;c:1&quot;,&quot;signature&quot;:&quot;c:1&quot;,&quot;imageName&quot;:&quot;page-004.jpg&quot;,&quot;imageId&quot;:4,&quot;bounds&quot;:{&quot;x&quot;:1931,&quot;y&quot;:2445,&quot;w&quot;:53,&quot;h&quot;:52},&quot;atoms&quot;:[{&quot;id&quot;:4832,&quot;token&quot;:&quot;c:1&quot;,&quot;particle_id&quot;:&quot;img4-m51-p3&quot;,&quot;molecule_id&quot;:&quot;img4-m51&quot;,&quot;atom_order&quot;:2}]}</metadata>
  <rect x="0" y="0" width="53" height="52" fill="#f8f0d8"/>
  <image href="file:///C:/Users/HHHES/AppData/Roaming/com.voynichlab.datasetcreator/images/1/aff30327-ced8-4ab4-8c9b-190205ebe022.jpg" x="-1931" y="-2445" width="2804" height="3797" opacity="0.92"/>
  <rect x="0.5" y="0.5" width="52" height="51" fill="none" stroke="#111827" stroke-width="1" opacity="0.35"/>
  <polyline points="27,36 28,36 29,35 30,35 32,35 32,34 33,34 34,33 34,32 35,32 35,31 36,30 36,29 36,28 37,28 37,27 37,26 37,25 37,24 37,23 37,22 37,21 36,21 36,20 35,19 34,18 33,18 32,18 31,17 30,17 29,16 28,16 27,16 26,16 25,16 24,16 23,17 22,17 21,17 20,18 19,18 18,19 18,20 17,21 17,22 17,23 17,24 16,25 16,26 16,27 16,28 16,29 17,30 17,31 18,31 18,32 19,32 19,33 20,33 20,34 21,34 22,35 23,35 24,35 25,36 26,36 27,36 28,36 29,36" fill="none" stroke="#8aff00" stroke-width="3" stroke-linecap="round" stroke-linejoin="round" opacity="0.95">
    <title>4832 c:1</title>
  </polyline>
</svg>
