<?xml version="1.0" encoding="UTF-8"?>
<svg xmlns="http://www.w3.org/2000/svg" width="49" height="47" viewBox="0 0 49 47">
  <title>atom 4835 c:1</title>
  <metadata>{&quot;entityType&quot;:&quot;atom&quot;,&quot;entityId&quot;:&quot;4835&quot;,&quot;token&quot;:&quot;c:1&quot;,&quot;signature&quot;:&quot;c:1&quot;,&quot;imageName&quot;:&quot;page-004.jpg&quot;,&quot;imageId&quot;:4,&quot;bounds&quot;:{&quot;x&quot;:1535,&quot;y&quot;:2431,&quot;w&quot;:49,&quot;h&quot;:47},&quot;atoms&quot;:[{&quot;id&quot;:4835,&quot;token&quot;:&quot;c:1&quot;,&quot;particle_id&quot;:&quot;img4-m45-p1&quot;,&quot;molecule_id&quot;:&quot;img4-m45&quot;,&quot;atom_order&quot;:2}]}</metadata>
  <rect x="0" y="0" width="49" height="47" fill="#f8f0d8"/>
  <image href="file:///C:/Users/HHHES/AppData/Roaming/com.voynichlab.datasetcreator/images/1/aff30327-ced8-4ab4-8c9b-190205ebe022.jpg" x="-1535" y="-2431" width="2804" height="3797" opacity="0.92"/>
  <rect x="0.5" y="0.5" width="48" height="46" fill="none" stroke="#111827" stroke-width="1" opacity="0.35"/>
  <polyline points="25,31 26,30 27,30 28,30 29,30 30,30 30,29 31,29 31,28 32,27 32,26 33,26 33,25 33,24 33,23 33,22 33,21 33,20 32,20 32,19 31,19 31,18 30,18 29,17 28,17 27,17 27,16 26,16 25,16 24,16 23,16 22,16 21,16 20,16 19,16 19,17 18,17 17,18 17,19 16,19 16,20 16,21 16,22 16,23 16,24 16,25 16,26 17,27 18,27 18,28 19,28 20,29 21,29 22,30 23,30 24,30 25,30 26,30 27,30 28,30 29,29" fill="none" stroke="#8aff00" stroke-width="3" stroke-linecap="round" stroke-linejoin="round" opacity="0.95">
    <title>4835 c:1</title>
  </polyline>
</svg>
