<?xml version="1.0" encoding="UTF-8"?>
<svg xmlns="http://www.w3.org/2000/svg" width="53" height="49" viewBox="0 0 53 49">
  <title>atom 4839 c:1</title>
  <metadata>{&quot;entityType&quot;:&quot;atom&quot;,&quot;entityId&quot;:&quot;4839&quot;,&quot;token&quot;:&quot;c:1&quot;,&quot;signature&quot;:&quot;c:1&quot;,&quot;imageName&quot;:&quot;page-004.jpg&quot;,&quot;imageId&quot;:4,&quot;bounds&quot;:{&quot;x&quot;:939,&quot;y&quot;:2365,&quot;w&quot;:53,&quot;h&quot;:49},&quot;atoms&quot;:[{&quot;id&quot;:4839,&quot;token&quot;:&quot;c:1&quot;,&quot;particle_id&quot;:&quot;img4-m37-p1&quot;,&quot;molecule_id&quot;:&quot;img4-m37&quot;,&quot;atom_order&quot;:4}]}</metadata>
  <rect x="0" y="0" width="53" height="49" fill="#f8f0d8"/>
  <image href="file:///C:/Users/HHHES/AppData/Roaming/com.voynichlab.datasetcreator/images/1/aff30327-ced8-4ab4-8c9b-190205ebe022.jpg" x="-939" y="-2365" width="2804" height="3797" opacity="0.92"/>
  <rect x="0.5" y="0.5" width="52" height="48" fill="none" stroke="#111827" stroke-width="1" opacity="0.35"/>
  <polyline points="16,25 16,26 16,27 16,28 17,28 17,29 18,29 18,30 19,30 20,31 21,31 21,32 22,32 23,32 24,32 24,33 25,33 26,33 27,33 28,33 29,33 30,33 31,33 32,32 33,32 33,31 34,31 34,30 35,30 35,29 36,29 36,28 37,28 37,27 37,26 37,25 37,24 37,23 37,22 37,21 36,21 36,20 35,20 35,19 34,19 33,18 32,18 31,17 30,17 29,17 28,16 27,16 26,16 25,16 24,16 23,16 22,16 22,17 21,17 20,18 19,18 19,19 18,19 18,20 18,21 17,21 17,22 17,23 16,23 16,24 16,25 16,26 16,27 16,28" fill="none" stroke="#8aff00" stroke-width="3" stroke-linecap="round" stroke-linejoin="round" opacity="0.95">
    <title>4839 c:1</title>
  </polyline>
</svg>
