<?xml version="1.0" encoding="UTF-8"?>
<svg xmlns="http://www.w3.org/2000/svg" width="49" height="50" viewBox="0 0 49 50">
  <title>atom 4841 c:1</title>
  <metadata>{&quot;entityType&quot;:&quot;atom&quot;,&quot;entityId&quot;:&quot;4841&quot;,&quot;token&quot;:&quot;c:1&quot;,&quot;signature&quot;:&quot;c:1&quot;,&quot;imageName&quot;:&quot;page-004.jpg&quot;,&quot;imageId&quot;:4,&quot;bounds&quot;:{&quot;x&quot;:645,&quot;y&quot;:2353,&quot;w&quot;:49,&quot;h&quot;:50},&quot;atoms&quot;:[{&quot;id&quot;:4841,&quot;token&quot;:&quot;c:1&quot;,&quot;particle_id&quot;:&quot;img4-m39-p3&quot;,&quot;molecule_id&quot;:&quot;img4-m39&quot;,&quot;atom_order&quot;:3}]}</metadata>
  <rect x="0" y="0" width="49" height="50" fill="#f8f0d8"/>
  <image href="file:///C:/Users/HHHES/AppData/Roaming/com.voynichlab.datasetcreator/images/1/aff30327-ced8-4ab4-8c9b-190205ebe022.jpg" x="-645" y="-2353" width="2804" height="3797" opacity="0.92"/>
  <rect x="0.5" y="0.5" width="48" height="49" fill="none" stroke="#111827" stroke-width="1" opacity="0.35"/>
  <polyline points="33,25 33,24 33,23 33,22 33,21 33,20 32,20 32,19 31,19 31,18 30,18 30,17 29,17 28,17 27,17 26,16 25,16 24,16 23,16 23,17 22,17 21,17 21,18 20,18 20,19 19,19 19,20 18,20 18,21 17,22 17,23 17,24 16,25 16,26 16,27 16,28 16,29 16,30 17,30 17,31 18,31 18,32 19,32 19,33 20,33 21,33 22,33 22,34 23,34 24,34 24,33 25,33 26,33 27,33 27,32 28,32 29,31 30,31 30,30 31,29 32,28 32,27 33,27 33,26 33,25 33,24 33,23" fill="none" stroke="#8aff00" stroke-width="3" stroke-linecap="round" stroke-linejoin="round" opacity="0.95">
    <title>4841 c:1</title>
  </polyline>
</svg>
