<?xml version="1.0" encoding="UTF-8"?>
<svg xmlns="http://www.w3.org/2000/svg" width="54" height="47" viewBox="0 0 54 47">
  <title>atom 4852 c:1</title>
  <metadata>{&quot;entityType&quot;:&quot;atom&quot;,&quot;entityId&quot;:&quot;4852&quot;,&quot;token&quot;:&quot;c:1&quot;,&quot;signature&quot;:&quot;c:1&quot;,&quot;imageName&quot;:&quot;page-004.jpg&quot;,&quot;imageId&quot;:4,&quot;bounds&quot;:{&quot;x&quot;:1579,&quot;y&quot;:2478,&quot;w&quot;:54,&quot;h&quot;:47},&quot;atoms&quot;:[{&quot;id&quot;:4852,&quot;token&quot;:&quot;c:1&quot;,&quot;particle_id&quot;:&quot;img4-m59-p2&quot;,&quot;molecule_id&quot;:&quot;img4-m59&quot;,&quot;atom_order&quot;:3}]}</metadata>
  <rect x="0" y="0" width="54" height="47" fill="#f8f0d8"/>
  <image href="file:///C:/Users/HHHES/AppData/Roaming/com.voynichlab.datasetcreator/images/1/aff30327-ced8-4ab4-8c9b-190205ebe022.jpg" x="-1579" y="-2478" width="2804" height="3797" opacity="0.92"/>
  <rect x="0.5" y="0.5" width="53" height="46" fill="none" stroke="#111827" stroke-width="1" opacity="0.35"/>
  <polyline points="38,23 38,22 38,21 38,20 38,19 37,19 37,18 36,18 35,17 34,17 33,17 32,17 31,17 30,17 30,16 29,16 28,16 27,16 26,16 25,16 24,17 23,17 22,17 22,18 21,18 20,18 20,19 19,20 18,21 18,22 18,23 17,23 17,24 17,25 16,26 16,27 16,28 17,28 17,29 18,29 18,30 19,30 20,31 21,31 22,31 24,31 25,31 26,31 27,31 28,31 29,31 29,30 30,30 30,29 31,29 32,28 33,28 33,27 34,27 35,27 35,26 35,25 35,24 36,24 36,23 36,22 37,22" fill="none" stroke="#8aff00" stroke-width="3" stroke-linecap="round" stroke-linejoin="round" opacity="0.95">
    <title>4852 c:1</title>
  </polyline>
</svg>
