<?xml version="1.0" encoding="UTF-8"?>
<svg xmlns="http://www.w3.org/2000/svg" width="51" height="50" viewBox="0 0 51 50">
  <title>atom 4856 c:1</title>
  <metadata>{&quot;entityType&quot;:&quot;atom&quot;,&quot;entityId&quot;:&quot;4856&quot;,&quot;token&quot;:&quot;c:1&quot;,&quot;signature&quot;:&quot;c:1&quot;,&quot;imageName&quot;:&quot;page-004.jpg&quot;,&quot;imageId&quot;:4,&quot;bounds&quot;:{&quot;x&quot;:1704,&quot;y&quot;:2509,&quot;w&quot;:51,&quot;h&quot;:50},&quot;atoms&quot;:[{&quot;id&quot;:4856,&quot;token&quot;:&quot;c:1&quot;,&quot;particle_id&quot;:&quot;img4-m57-p1&quot;,&quot;molecule_id&quot;:&quot;img4-m57&quot;,&quot;atom_order&quot;:2}]}</metadata>
  <rect x="0" y="0" width="51" height="50" fill="#f8f0d8"/>
  <image href="file:///C:/Users/HHHES/AppData/Roaming/com.voynichlab.datasetcreator/images/1/aff30327-ced8-4ab4-8c9b-190205ebe022.jpg" x="-1704" y="-2509" width="2804" height="3797" opacity="0.92"/>
  <rect x="0.5" y="0.5" width="50" height="49" fill="none" stroke="#111827" stroke-width="1" opacity="0.35"/>
  <polyline points="27,34 28,34 28,33 29,33 29,32 30,32 31,31 31,30 32,29 32,28 33,28 33,27 34,27 34,26 34,25 35,25 35,24 35,23 35,22 35,21 35,20 34,20 34,19 33,18 32,17 31,17 30,17 29,16 28,16 26,16 25,16 24,16 23,16 23,17 22,17 21,18 20,19 19,19 18,20 18,21 17,21 17,22 17,23 16,23 16,24 16,25 16,26 16,27 17,27 17,28 17,29 18,29 18,30 19,31 20,32 21,32 21,33 22,33 23,33 24,33 25,33 25,34 26,34 27,34 28,34 29,33" fill="none" stroke="#8aff00" stroke-width="3" stroke-linecap="round" stroke-linejoin="round" opacity="0.95">
    <title>4856 c:1</title>
  </polyline>
</svg>
