<?xml version="1.0" encoding="UTF-8"?>
<svg xmlns="http://www.w3.org/2000/svg" width="51" height="48" viewBox="0 0 51 48">
  <title>atom 4858 c:1</title>
  <metadata>{&quot;entityType&quot;:&quot;atom&quot;,&quot;entityId&quot;:&quot;4858&quot;,&quot;token&quot;:&quot;c:1&quot;,&quot;signature&quot;:&quot;c:1&quot;,&quot;imageName&quot;:&quot;page-004.jpg&quot;,&quot;imageId&quot;:4,&quot;bounds&quot;:{&quot;x&quot;:1833,&quot;y&quot;:2516,&quot;w&quot;:51,&quot;h&quot;:48},&quot;atoms&quot;:[{&quot;id&quot;:4858,&quot;token&quot;:&quot;c:1&quot;,&quot;particle_id&quot;:&quot;img4-m58-p1&quot;,&quot;molecule_id&quot;:&quot;img4-m58&quot;,&quot;atom_order&quot;:2}]}</metadata>
  <rect x="0" y="0" width="51" height="48" fill="#f8f0d8"/>
  <image href="file:///C:/Users/HHHES/AppData/Roaming/com.voynichlab.datasetcreator/images/1/aff30327-ced8-4ab4-8c9b-190205ebe022.jpg" x="-1833" y="-2516" width="2804" height="3797" opacity="0.92"/>
  <rect x="0.5" y="0.5" width="50" height="47" fill="none" stroke="#111827" stroke-width="1" opacity="0.35"/>
  <polyline points="27,32 28,32 29,31 30,30 30,29 31,29 31,28 32,28 32,27 33,26 34,25 34,24 34,23 35,22 35,21 34,20 34,19 33,18 33,17 32,17 32,16 31,16 30,16 29,16 28,16 27,16 26,16 25,16 24,16 23,16 22,17 21,17 21,18 20,18 19,19 18,20 17,21 16,22 16,23 16,24 16,25 16,26 17,26 17,27 18,27 18,28 19,28 19,29 20,29 20,30 21,30 22,30 22,31 23,31 24,31 25,31 26,31 27,31 28,31 29,31" fill="none" stroke="#8aff00" stroke-width="3" stroke-linecap="round" stroke-linejoin="round" opacity="0.95">
    <title>4858 c:1</title>
  </polyline>
</svg>
