<?xml version="1.0" encoding="UTF-8"?>
<svg xmlns="http://www.w3.org/2000/svg" width="50" height="48" viewBox="0 0 50 48">
  <title>atom 4863 c:1</title>
  <metadata>{&quot;entityType&quot;:&quot;atom&quot;,&quot;entityId&quot;:&quot;4863&quot;,&quot;token&quot;:&quot;c:1&quot;,&quot;signature&quot;:&quot;c:1&quot;,&quot;imageName&quot;:&quot;page-004.jpg&quot;,&quot;imageId&quot;:4,&quot;bounds&quot;:{&quot;x&quot;:2167,&quot;y&quot;:2540,&quot;w&quot;:50,&quot;h&quot;:48},&quot;atoms&quot;:[{&quot;id&quot;:4863,&quot;token&quot;:&quot;c:1&quot;,&quot;particle_id&quot;:&quot;img4-m63-p1&quot;,&quot;molecule_id&quot;:&quot;img4-m63&quot;,&quot;atom_order&quot;:2}]}</metadata>
  <rect x="0" y="0" width="50" height="48" fill="#f8f0d8"/>
  <image href="file:///C:/Users/HHHES/AppData/Roaming/com.voynichlab.datasetcreator/images/1/aff30327-ced8-4ab4-8c9b-190205ebe022.jpg" x="-2167" y="-2540" width="2804" height="3797" opacity="0.92"/>
  <rect x="0.5" y="0.5" width="49" height="47" fill="none" stroke="#111827" stroke-width="1" opacity="0.35"/>
  <polyline points="25,32 26,32 27,32 27,31 28,31 29,31 29,30 30,30 31,30 31,29 31,28 32,28 32,27 33,26 33,25 34,25 34,24 34,23 34,22 34,21 34,20 33,20 33,19 32,19 32,18 31,18 31,17 30,17 29,16 28,16 27,16 26,16 25,16 24,16 23,16 21,16 20,16 19,17 18,17 18,18 17,18 17,19 16,20 16,21 16,22 16,23 16,24 17,25 17,26 18,27 19,28 20,28 20,29 21,29 22,30 23,30 23,31 24,31 25,31 26,32 27,32" fill="none" stroke="#8aff00" stroke-width="3" stroke-linecap="round" stroke-linejoin="round" opacity="0.95">
    <title>4863 c:1</title>
  </polyline>
</svg>
