<?xml version="1.0" encoding="UTF-8"?>
<svg xmlns="http://www.w3.org/2000/svg" width="48" height="50" viewBox="0 0 48 50">
  <title>atom 4865 c:1</title>
  <metadata>{&quot;entityType&quot;:&quot;atom&quot;,&quot;entityId&quot;:&quot;4865&quot;,&quot;token&quot;:&quot;c:1&quot;,&quot;signature&quot;:&quot;c:1&quot;,&quot;imageName&quot;:&quot;page-004.jpg&quot;,&quot;imageId&quot;:4,&quot;bounds&quot;:{&quot;x&quot;:2403,&quot;y&quot;:2541,&quot;w&quot;:48,&quot;h&quot;:50},&quot;atoms&quot;:[{&quot;id&quot;:4865,&quot;token&quot;:&quot;c:1&quot;,&quot;particle_id&quot;:&quot;img4-m63-p6&quot;,&quot;molecule_id&quot;:&quot;img4-m63&quot;,&quot;atom_order&quot;:2}]}</metadata>
  <rect x="0" y="0" width="48" height="50" fill="#f8f0d8"/>
  <image href="file:///C:/Users/HHHES/AppData/Roaming/com.voynichlab.datasetcreator/images/1/aff30327-ced8-4ab4-8c9b-190205ebe022.jpg" x="-2403" y="-2541" width="2804" height="3797" opacity="0.92"/>
  <rect x="0.5" y="0.5" width="47" height="49" fill="none" stroke="#111827" stroke-width="1" opacity="0.35"/>
  <polyline points="22,34 23,34 24,33 25,33 26,32 27,32 27,31 28,30 29,30 29,29 30,29 30,28 31,28 31,27 32,26 32,25 32,24 32,23 32,22 31,22 31,21 31,20 30,20 30,19 29,19 29,18 28,18 27,18 27,17 26,17 25,17 24,16 23,16 22,16 21,16 21,17 20,17 19,17 19,18 18,18 17,19 17,20 16,20 16,21 16,22 16,23 16,24 16,25 16,26 16,27 16,28 17,28 17,29 17,30 17,31 18,31 18,32 19,32 19,33 20,33 21,33 22,34 23,34" fill="none" stroke="#8aff00" stroke-width="3" stroke-linecap="round" stroke-linejoin="round" opacity="0.95">
    <title>4865 c:1</title>
  </polyline>
</svg>
