<?xml version="1.0" encoding="UTF-8"?>
<svg xmlns="http://www.w3.org/2000/svg" width="53" height="46" viewBox="0 0 53 46">
  <title>atom 4868 c:1</title>
  <metadata>{&quot;entityType&quot;:&quot;atom&quot;,&quot;entityId&quot;:&quot;4868&quot;,&quot;token&quot;:&quot;c:1&quot;,&quot;signature&quot;:&quot;c:1&quot;,&quot;imageName&quot;:&quot;page-004.jpg&quot;,&quot;imageId&quot;:4,&quot;bounds&quot;:{&quot;x&quot;:1749,&quot;y&quot;:2573,&quot;w&quot;:53,&quot;h&quot;:46},&quot;atoms&quot;:[{&quot;id&quot;:4868,&quot;token&quot;:&quot;c:1&quot;,&quot;particle_id&quot;:&quot;img4-m67-p1&quot;,&quot;molecule_id&quot;:&quot;img4-m67&quot;,&quot;atom_order&quot;:4}]}</metadata>
  <rect x="0" y="0" width="53" height="46" fill="#f8f0d8"/>
  <image href="file:///C:/Users/HHHES/AppData/Roaming/com.voynichlab.datasetcreator/images/1/aff30327-ced8-4ab4-8c9b-190205ebe022.jpg" x="-1749" y="-2573" width="2804" height="3797" opacity="0.92"/>
  <rect x="0.5" y="0.5" width="52" height="45" fill="none" stroke="#111827" stroke-width="1" opacity="0.35"/>
  <polyline points="17,17 17,18 17,19 17,20 17,21 17,22 17,23 17,24 17,25 17,26 18,26 18,27 19,27 19,28 20,28 21,29 22,29 23,29 24,29 25,29 26,30 27,30 28,30 29,30 30,30 31,30 32,30 32,29 33,29 34,28 35,28 35,27 35,26 36,26 36,25 36,24 36,23 37,23 37,22 37,21 36,21 36,20 35,20 35,19 34,19 34,18 33,18 32,17 31,17 30,16 29,16 28,16 27,16 26,16 25,16 24,16 23,16 22,16 22,17 21,17 20,17 19,18 18,18 17,18 17,19 16,19 16,20 16,21" fill="none" stroke="#8aff00" stroke-width="3" stroke-linecap="round" stroke-linejoin="round" opacity="0.95">
    <title>4868 c:1</title>
  </polyline>
</svg>
