<?xml version="1.0" encoding="UTF-8"?>
<svg xmlns="http://www.w3.org/2000/svg" width="45" height="52" viewBox="0 0 45 52">
  <title>atom 4873 c:1</title>
  <metadata>{&quot;entityType&quot;:&quot;atom&quot;,&quot;entityId&quot;:&quot;4873&quot;,&quot;token&quot;:&quot;c:1&quot;,&quot;signature&quot;:&quot;c:1&quot;,&quot;imageName&quot;:&quot;page-004.jpg&quot;,&quot;imageId&quot;:4,&quot;bounds&quot;:{&quot;x&quot;:2391,&quot;y&quot;:2685,&quot;w&quot;:45,&quot;h&quot;:52},&quot;atoms&quot;:[{&quot;id&quot;:4873,&quot;token&quot;:&quot;c:1&quot;,&quot;particle_id&quot;:&quot;img4-m84-p4&quot;,&quot;molecule_id&quot;:&quot;img4-m84&quot;,&quot;atom_order&quot;:2}]}</metadata>
  <rect x="0" y="0" width="45" height="52" fill="#f8f0d8"/>
  <image href="file:///C:/Users/HHHES/AppData/Roaming/com.voynichlab.datasetcreator/images/1/aff30327-ced8-4ab4-8c9b-190205ebe022.jpg" x="-2391" y="-2685" width="2804" height="3797" opacity="0.92"/>
  <rect x="0.5" y="0.5" width="44" height="51" fill="none" stroke="#111827" stroke-width="1" opacity="0.35"/>
  <polyline points="23,35 23,34 24,34 24,33 25,33 26,32 26,31 27,30 27,29 27,28 28,28 28,27 28,26 29,25 29,23 29,22 29,21 29,20 29,19 29,18 29,17 28,17 28,16 27,16 26,16 25,16 24,16 23,16 22,16 21,16 20,16 19,17 18,18 18,19 18,20 17,20 17,21 17,22 16,23 16,24 16,25 16,26 16,27 16,28 16,29 17,29 17,30 17,31 18,31 18,32 19,33 19,34 20,34 20,35 21,35 22,35 22,36 23,36" fill="none" stroke="#8aff00" stroke-width="3" stroke-linecap="round" stroke-linejoin="round" opacity="0.95">
    <title>4873 c:1</title>
  </polyline>
</svg>
