<?xml version="1.0" encoding="UTF-8"?>
<svg xmlns="http://www.w3.org/2000/svg" width="52" height="45" viewBox="0 0 52 45">
  <title>atom 4877 c:1</title>
  <metadata>{&quot;entityType&quot;:&quot;atom&quot;,&quot;entityId&quot;:&quot;4877&quot;,&quot;token&quot;:&quot;c:1&quot;,&quot;signature&quot;:&quot;c:1&quot;,&quot;imageName&quot;:&quot;page-004.jpg&quot;,&quot;imageId&quot;:4,&quot;bounds&quot;:{&quot;x&quot;:1990,&quot;y&quot;:2650,&quot;w&quot;:52,&quot;h&quot;:45},&quot;atoms&quot;:[{&quot;id&quot;:4877,&quot;token&quot;:&quot;c:1&quot;,&quot;particle_id&quot;:&quot;img4-m83-p2&quot;,&quot;molecule_id&quot;:&quot;img4-m83&quot;,&quot;atom_order&quot;:4}]}</metadata>
  <rect x="0" y="0" width="52" height="45" fill="#f8f0d8"/>
  <image href="file:///C:/Users/HHHES/AppData/Roaming/com.voynichlab.datasetcreator/images/1/aff30327-ced8-4ab4-8c9b-190205ebe022.jpg" x="-1990" y="-2650" width="2804" height="3797" opacity="0.92"/>
  <rect x="0.5" y="0.5" width="51" height="44" fill="none" stroke="#111827" stroke-width="1" opacity="0.35"/>
  <polyline points="32,26 33,26 34,26 35,25 36,24 36,23 36,22 36,21 36,20 36,19 35,18 34,17 33,17 32,16 31,16 30,16 29,16 28,16 27,16 26,16 25,16 24,16 23,16 22,16 22,17 21,17 20,17 20,18 19,18 19,19 18,19 18,20 17,21 17,22 16,23 16,24 16,25 17,26 18,27 19,28 20,28 21,29 22,29 23,29 24,29 25,29 26,29 27,29 28,29 29,29 30,29 31,28 32,28 33,27 34,27 35,26 35,25 36,25 36,24 36,23" fill="none" stroke="#8aff00" stroke-width="3" stroke-linecap="round" stroke-linejoin="round" opacity="0.95">
    <title>4877 c:1</title>
  </polyline>
</svg>
