<?xml version="1.0" encoding="UTF-8"?>
<svg xmlns="http://www.w3.org/2000/svg" width="56" height="48" viewBox="0 0 56 48">
  <title>atom 4888 c:1</title>
  <metadata>{&quot;entityType&quot;:&quot;atom&quot;,&quot;entityId&quot;:&quot;4888&quot;,&quot;token&quot;:&quot;c:1&quot;,&quot;signature&quot;:&quot;c:1&quot;,&quot;imageName&quot;:&quot;page-004.jpg&quot;,&quot;imageId&quot;:4,&quot;bounds&quot;:{&quot;x&quot;:1357,&quot;y&quot;:2530,&quot;w&quot;:56,&quot;h&quot;:48},&quot;atoms&quot;:[{&quot;id&quot;:4888,&quot;token&quot;:&quot;c:1&quot;,&quot;particle_id&quot;:&quot;img4-m62-p1&quot;,&quot;molecule_id&quot;:&quot;img4-m62&quot;,&quot;atom_order&quot;:3}]}</metadata>
  <rect x="0" y="0" width="56" height="48" fill="#f8f0d8"/>
  <image href="file:///C:/Users/HHHES/AppData/Roaming/com.voynichlab.datasetcreator/images/1/aff30327-ced8-4ab4-8c9b-190205ebe022.jpg" x="-1357" y="-2530" width="2804" height="3797" opacity="0.92"/>
  <rect x="0.5" y="0.5" width="55" height="47" fill="none" stroke="#111827" stroke-width="1" opacity="0.35"/>
  <polyline points="38,24 38,23 38,22 37,22 37,21 36,21 35,20 34,19 33,19 33,18 32,18 31,18 30,18 30,17 29,17 28,17 27,16 26,16 25,16 24,16 23,16 22,16 21,16 20,17 19,17 19,18 18,18 17,19 16,20 16,21 16,22 16,23 16,24 16,25 16,26 17,26 17,27 17,28 18,28 18,29 19,30 20,31 21,31 22,32 23,32 24,32 25,32 26,32 27,32 28,32 29,32 30,32 31,31 32,31 33,31 34,30 35,30 35,29 36,29 37,28 38,27 39,26 39,25 40,25 40,24 40,23 40,22" fill="none" stroke="#8aff00" stroke-width="3" stroke-linecap="round" stroke-linejoin="round" opacity="0.95">
    <title>4888 c:1</title>
  </polyline>
</svg>
