<?xml version="1.0" encoding="UTF-8"?>
<svg xmlns="http://www.w3.org/2000/svg" width="51" height="55" viewBox="0 0 51 55">
  <title>atom 4899 c:1</title>
  <metadata>{&quot;entityType&quot;:&quot;atom&quot;,&quot;entityId&quot;:&quot;4899&quot;,&quot;token&quot;:&quot;c:1&quot;,&quot;signature&quot;:&quot;c:1&quot;,&quot;imageName&quot;:&quot;page-004.jpg&quot;,&quot;imageId&quot;:4,&quot;bounds&quot;:{&quot;x&quot;:821,&quot;y&quot;:2594,&quot;w&quot;:51,&quot;h&quot;:55},&quot;atoms&quot;:[{&quot;id&quot;:4899,&quot;token&quot;:&quot;c:1&quot;,&quot;particle_id&quot;:&quot;img4-m76-p2&quot;,&quot;molecule_id&quot;:&quot;img4-m76&quot;,&quot;atom_order&quot;:3}]}</metadata>
  <rect x="0" y="0" width="51" height="55" fill="#f8f0d8"/>
  <image href="file:///C:/Users/HHHES/AppData/Roaming/com.voynichlab.datasetcreator/images/1/aff30327-ced8-4ab4-8c9b-190205ebe022.jpg" x="-821" y="-2594" width="2804" height="3797" opacity="0.92"/>
  <rect x="0.5" y="0.5" width="50" height="54" fill="none" stroke="#111827" stroke-width="1" opacity="0.35"/>
  <polyline points="34,26 34,25 34,24 34,23 34,22 34,21 34,20 33,19 33,18 32,18 32,17 31,17 30,17 29,17 28,17 27,16 26,16 24,16 23,16 22,16 21,17 20,17 19,17 19,18 18,18 18,19 17,20 17,21 17,22 17,23 17,24 17,26 17,27 16,28 16,29 16,30 16,31 16,32 16,33 17,34 17,35 18,35 18,36 19,36 20,37 20,38 22,39 23,39 24,39 25,39 26,39 27,39 27,38 28,38 29,37 30,36 31,35 32,34 32,33 33,33 34,32 34,31 34,30 34,29 35,29 35,28 35,27 35,26 35,24 35,23 34,23 34,22" fill="none" stroke="#8aff00" stroke-width="3" stroke-linecap="round" stroke-linejoin="round" opacity="0.95">
    <title>4899 c:1</title>
  </polyline>
</svg>
