<?xml version="1.0" encoding="UTF-8"?>
<svg xmlns="http://www.w3.org/2000/svg" width="49" height="49" viewBox="0 0 49 49">
  <title>atom 4902 c:1</title>
  <metadata>{&quot;entityType&quot;:&quot;atom&quot;,&quot;entityId&quot;:&quot;4902&quot;,&quot;token&quot;:&quot;c:1&quot;,&quot;signature&quot;:&quot;c:1&quot;,&quot;imageName&quot;:&quot;page-004.jpg&quot;,&quot;imageId&quot;:4,&quot;bounds&quot;:{&quot;x&quot;:1119,&quot;y&quot;:2631,&quot;w&quot;:49,&quot;h&quot;:49},&quot;atoms&quot;:[{&quot;id&quot;:4902,&quot;token&quot;:&quot;c:1&quot;,&quot;particle_id&quot;:&quot;img4-m74-p1&quot;,&quot;molecule_id&quot;:&quot;img4-m74&quot;,&quot;atom_order&quot;:2}]}</metadata>
  <rect x="0" y="0" width="49" height="49" fill="#f8f0d8"/>
  <image href="file:///C:/Users/HHHES/AppData/Roaming/com.voynichlab.datasetcreator/images/1/aff30327-ced8-4ab4-8c9b-190205ebe022.jpg" x="-1119" y="-2631" width="2804" height="3797" opacity="0.92"/>
  <rect x="0.5" y="0.5" width="48" height="48" fill="none" stroke="#111827" stroke-width="1" opacity="0.35"/>
  <polyline points="22,33 23,33 24,33 25,32 26,32 27,32 27,31 28,31 29,30 30,30 30,29 31,28 32,27 32,26 32,25 32,24 33,24 33,23 32,22 32,21 31,20 31,19 30,19 29,18 28,18 28,17 27,17 26,17 25,16 24,16 23,16 22,16 21,17 20,17 19,17 19,18 18,18 18,19 17,19 17,20 16,21 16,22 16,23 16,24 16,25 16,26 16,27 16,28 17,28 17,29 17,30 18,30 18,31 19,31 20,32 21,33 22,33 23,33 24,33" fill="none" stroke="#8aff00" stroke-width="3" stroke-linecap="round" stroke-linejoin="round" opacity="0.95">
    <title>4902 c:1</title>
  </polyline>
</svg>
