<?xml version="1.0" encoding="UTF-8"?>
<svg xmlns="http://www.w3.org/2000/svg" width="53" height="53" viewBox="0 0 53 53">
  <title>atom 4904 c:1</title>
  <metadata>{&quot;entityType&quot;:&quot;atom&quot;,&quot;entityId&quot;:&quot;4904&quot;,&quot;token&quot;:&quot;c:1&quot;,&quot;signature&quot;:&quot;c:1&quot;,&quot;imageName&quot;:&quot;page-004.jpg&quot;,&quot;imageId&quot;:4,&quot;bounds&quot;:{&quot;x&quot;:1244,&quot;y&quot;:2614,&quot;w&quot;:53,&quot;h&quot;:53},&quot;atoms&quot;:[{&quot;id&quot;:4904,&quot;token&quot;:&quot;c:1&quot;,&quot;particle_id&quot;:&quot;img4-m74-p4&quot;,&quot;molecule_id&quot;:&quot;img4-m74&quot;,&quot;atom_order&quot;:3}]}</metadata>
  <rect x="0" y="0" width="53" height="53" fill="#f8f0d8"/>
  <image href="file:///C:/Users/HHHES/AppData/Roaming/com.voynichlab.datasetcreator/images/1/aff30327-ced8-4ab4-8c9b-190205ebe022.jpg" x="-1244" y="-2614" width="2804" height="3797" opacity="0.92"/>
  <rect x="0.5" y="0.5" width="52" height="52" fill="none" stroke="#111827" stroke-width="1" opacity="0.35"/>
  <polyline points="35,27 36,26 36,25 37,25 37,24 37,23 37,22 37,21 36,20 36,19 35,19 35,18 34,18 33,17 32,17 32,16 31,16 30,16 28,17 27,17 26,17 25,17 24,17 23,18 22,18 21,19 20,20 19,21 19,22 18,22 18,23 17,24 17,25 16,26 16,27 16,28 16,29 16,30 16,31 17,32 17,33 17,34 18,35 19,36 20,37 21,37 22,37 23,37 24,37 25,37 26,37 27,37 27,36 28,36 29,35 30,35 30,34 31,33 32,32 33,32 33,31 33,30 34,30 34,29 35,28 35,27 35,26 36,25" fill="none" stroke="#8aff00" stroke-width="3" stroke-linecap="round" stroke-linejoin="round" opacity="0.95">
    <title>4904 c:1</title>
  </polyline>
</svg>
