<?xml version="1.0" encoding="UTF-8"?>
<svg xmlns="http://www.w3.org/2000/svg" width="52" height="44" viewBox="0 0 52 44">
  <title>atom 4906 c:1</title>
  <metadata>{&quot;entityType&quot;:&quot;atom&quot;,&quot;entityId&quot;:&quot;4906&quot;,&quot;token&quot;:&quot;c:1&quot;,&quot;signature&quot;:&quot;c:1&quot;,&quot;imageName&quot;:&quot;page-004.jpg&quot;,&quot;imageId&quot;:4,&quot;bounds&quot;:{&quot;x&quot;:590,&quot;y&quot;:2672,&quot;w&quot;:52,&quot;h&quot;:44},&quot;atoms&quot;:[{&quot;id&quot;:4906,&quot;token&quot;:&quot;c:1&quot;,&quot;particle_id&quot;:&quot;img4-m80-p1&quot;,&quot;molecule_id&quot;:&quot;img4-m80&quot;,&quot;atom_order&quot;:3}]}</metadata>
  <rect x="0" y="0" width="52" height="44" fill="#f8f0d8"/>
  <image href="file:///C:/Users/HHHES/AppData/Roaming/com.voynichlab.datasetcreator/images/1/aff30327-ced8-4ab4-8c9b-190205ebe022.jpg" x="-590" y="-2672" width="2804" height="3797" opacity="0.92"/>
  <rect x="0.5" y="0.5" width="51" height="43" fill="none" stroke="#111827" stroke-width="1" opacity="0.35"/>
  <polyline points="16,25 17,25 17,26 18,26 19,26 19,27 20,27 21,27 22,27 23,28 24,28 25,28 26,28 28,28 29,28 30,28 30,27 31,27 32,27 32,26 33,26 34,26 34,25 35,25 35,24 36,24 36,23 36,22 36,21 36,20 36,19 35,19 35,18 34,18 34,17 33,17 32,17 31,16 30,16 29,16 28,16 27,16 26,16 26,17 25,17 24,17 23,17 22,17 22,18 21,18 20,18 20,19 19,19 19,20 18,21 18,22 18,23 18,24 18,25 17,25 17,26" fill="none" stroke="#8aff00" stroke-width="3" stroke-linecap="round" stroke-linejoin="round" opacity="0.95">
    <title>4906 c:1</title>
  </polyline>
</svg>
