<?xml version="1.0" encoding="UTF-8"?>
<svg xmlns="http://www.w3.org/2000/svg" width="51" height="47" viewBox="0 0 51 47">
  <title>atom 4910 c:1</title>
  <metadata>{&quot;entityType&quot;:&quot;atom&quot;,&quot;entityId&quot;:&quot;4910&quot;,&quot;token&quot;:&quot;c:1&quot;,&quot;signature&quot;:&quot;c:1&quot;,&quot;imageName&quot;:&quot;page-004.jpg&quot;,&quot;imageId&quot;:4,&quot;bounds&quot;:{&quot;x&quot;:892,&quot;y&quot;:2683,&quot;w&quot;:51,&quot;h&quot;:47},&quot;atoms&quot;:[{&quot;id&quot;:4910,&quot;token&quot;:&quot;c:1&quot;,&quot;particle_id&quot;:&quot;img4-m86-p3&quot;,&quot;molecule_id&quot;:&quot;img4-m86&quot;,&quot;atom_order&quot;:3}]}</metadata>
  <rect x="0" y="0" width="51" height="47" fill="#f8f0d8"/>
  <image href="file:///C:/Users/HHHES/AppData/Roaming/com.voynichlab.datasetcreator/images/1/aff30327-ced8-4ab4-8c9b-190205ebe022.jpg" x="-892" y="-2683" width="2804" height="3797" opacity="0.92"/>
  <rect x="0.5" y="0.5" width="50" height="46" fill="none" stroke="#111827" stroke-width="1" opacity="0.35"/>
  <polyline points="16,20 16,21 16,22 16,23 16,24 16,25 17,25 17,26 17,27 17,28 17,29 18,29 19,29 19,30 20,30 21,30 22,31 23,31 24,31 25,31 26,31 27,31 28,31 28,30 29,30 30,30 30,29 31,29 32,29 32,28 33,28 33,27 34,26 34,25 35,25 35,24 35,23 35,22 35,21 35,20 35,19 34,19 34,18 33,18 32,17 31,17 30,17 29,16 28,16 27,16 26,16 25,16 24,16 23,16 22,16 21,16 20,16 19,16 18,16 18,17 18,18 18,19 17,19 17,20 17,21 16,22 16,23 16,24 16,25 16,26" fill="none" stroke="#8aff00" stroke-width="3" stroke-linecap="round" stroke-linejoin="round" opacity="0.95">
    <title>4910 c:1</title>
  </polyline>
</svg>
