<?xml version="1.0" encoding="UTF-8"?>
<svg xmlns="http://www.w3.org/2000/svg" width="51" height="47" viewBox="0 0 51 47">
  <title>atom 4911 c:1</title>
  <metadata>{&quot;entityType&quot;:&quot;atom&quot;,&quot;entityId&quot;:&quot;4911&quot;,&quot;token&quot;:&quot;c:1&quot;,&quot;signature&quot;:&quot;c:1&quot;,&quot;imageName&quot;:&quot;page-004.jpg&quot;,&quot;imageId&quot;:4,&quot;bounds&quot;:{&quot;x&quot;:1085,&quot;y&quot;:2708,&quot;w&quot;:51,&quot;h&quot;:47},&quot;atoms&quot;:[{&quot;id&quot;:4911,&quot;token&quot;:&quot;c:1&quot;,&quot;particle_id&quot;:&quot;img4-m85-p1&quot;,&quot;molecule_id&quot;:&quot;img4-m85&quot;,&quot;atom_order&quot;:2}]}</metadata>
  <rect x="0" y="0" width="51" height="47" fill="#f8f0d8"/>
  <image href="file:///C:/Users/HHHES/AppData/Roaming/com.voynichlab.datasetcreator/images/1/aff30327-ced8-4ab4-8c9b-190205ebe022.jpg" x="-1085" y="-2708" width="2804" height="3797" opacity="0.92"/>
  <rect x="0.5" y="0.5" width="50" height="46" fill="none" stroke="#111827" stroke-width="1" opacity="0.35"/>
  <polyline points="25,31 26,31 27,31 27,30 28,30 28,29 29,29 30,29 30,28 31,28 31,27 32,27 33,26 33,25 34,25 34,24 34,23 35,22 35,21 34,21 34,20 34,19 33,19 33,18 32,18 31,17 30,17 29,16 28,16 27,16 26,16 24,16 23,16 22,16 21,16 20,16 20,17 19,17 18,18 18,19 17,20 17,21 16,22 16,23 16,24 17,24 17,25 17,26 18,26 18,27 19,27 19,28 19,29 20,29 21,30 22,30 23,30 23,31 24,31 25,31 26,31 27,31" fill="none" stroke="#8aff00" stroke-width="3" stroke-linecap="round" stroke-linejoin="round" opacity="0.95">
    <title>4911 c:1</title>
  </polyline>
</svg>
