<?xml version="1.0" encoding="UTF-8"?>
<svg xmlns="http://www.w3.org/2000/svg" width="55" height="53" viewBox="0 0 55 53">
  <title>atom 4934 c:1</title>
  <metadata>{&quot;entityType&quot;:&quot;atom&quot;,&quot;entityId&quot;:&quot;4934&quot;,&quot;token&quot;:&quot;c:1&quot;,&quot;signature&quot;:&quot;c:1&quot;,&quot;imageName&quot;:&quot;page-004.jpg&quot;,&quot;imageId&quot;:4,&quot;bounds&quot;:{&quot;x&quot;:2268,&quot;y&quot;:1924,&quot;w&quot;:55,&quot;h&quot;:53},&quot;atoms&quot;:[{&quot;id&quot;:4934,&quot;token&quot;:&quot;c:1&quot;,&quot;particle_id&quot;:&quot;img4-m4-p1&quot;,&quot;molecule_id&quot;:&quot;img4-m4&quot;,&quot;atom_order&quot;:4}]}</metadata>
  <rect x="0" y="0" width="55" height="53" fill="#f8f0d8"/>
  <image href="file:///C:/Users/HHHES/AppData/Roaming/com.voynichlab.datasetcreator/images/1/aff30327-ced8-4ab4-8c9b-190205ebe022.jpg" x="-2268" y="-1924" width="2804" height="3797" opacity="0.92"/>
  <rect x="0.5" y="0.5" width="54" height="52" fill="none" stroke="#111827" stroke-width="1" opacity="0.35"/>
  <polyline points="37,29 37,28 38,27 38,26 38,25 38,24 39,24 39,23 38,22 38,21 37,20 37,19 36,19 36,18 35,18 35,17 34,17 34,16 33,16 32,16 31,16 30,16 29,16 28,16 27,16 26,16 25,16 24,16 24,17 23,17 22,17 22,18 21,18 20,18 20,19 19,19 19,20 18,20 18,21 17,22 17,23 16,23 16,24 16,25 16,26 16,27 16,28 16,29 16,30 16,31 16,32 16,33 17,33 17,34 17,35 18,35 19,36 20,36 21,37 22,37 23,37 24,37 25,37 26,37 27,37 27,36 28,36 29,36 30,35 31,34 32,34 32,33 33,33 34,32 35,32 35,31 36,31 36,30 36,29 37,29 37,28 38,28 38,27" fill="none" stroke="#8aff00" stroke-width="3" stroke-linecap="round" stroke-linejoin="round" opacity="0.95">
    <title>4934 c:1</title>
  </polyline>
</svg>
