<?xml version="1.0" encoding="UTF-8"?>
<svg xmlns="http://www.w3.org/2000/svg" width="59" height="50" viewBox="0 0 59 50">
  <title>atom 5154 c:1</title>
  <metadata>{&quot;entityType&quot;:&quot;atom&quot;,&quot;entityId&quot;:&quot;5154&quot;,&quot;token&quot;:&quot;c:1&quot;,&quot;signature&quot;:&quot;c:1&quot;,&quot;imageName&quot;:&quot;page-004.jpg&quot;,&quot;imageId&quot;:4,&quot;bounds&quot;:{&quot;x&quot;:1920,&quot;y&quot;:2078,&quot;w&quot;:59,&quot;h&quot;:50},&quot;atoms&quot;:[{&quot;id&quot;:5154,&quot;token&quot;:&quot;c:1&quot;,&quot;particle_id&quot;:&quot;img4-m19-p1&quot;,&quot;molecule_id&quot;:&quot;img4-m19&quot;,&quot;atom_order&quot;:4}]}</metadata>
  <rect x="0" y="0" width="59" height="50" fill="#f8f0d8"/>
  <image href="file:///C:/Users/HHHES/AppData/Roaming/com.voynichlab.datasetcreator/images/1/aff30327-ced8-4ab4-8c9b-190205ebe022.jpg" x="-1920" y="-2078" width="2804" height="3797" opacity="0.92"/>
  <rect x="0.5" y="0.5" width="58" height="49" fill="none" stroke="#111827" stroke-width="1" opacity="0.35"/>
  <polyline points="16,32 17,33 18,33 18,34 19,34 20,34 21,34 23,34 24,34 25,34 26,34 27,34 29,34 30,33 32,33 34,33 35,32 36,32 36,31 37,31 38,30 39,30 39,29 40,28 41,28 41,27 42,26 42,25 43,25 43,24 43,23 43,22 43,21 42,21 42,20 41,19 40,19 40,18 39,18 38,18 38,17 37,17 36,17 35,17 34,17 33,16 32,16 31,16 30,16 29,16 28,16 27,17 26,17 25,18 24,18 23,19 22,20 21,20 21,21 20,21 19,22 18,23 18,24 18,25 17,25 17,26 17,27 17,28 17,29 17,30 17,31 16,31 16,32" fill="none" stroke="#8aff00" stroke-width="3" stroke-linecap="round" stroke-linejoin="round" opacity="0.95">
    <title>5154 c:1</title>
  </polyline>
</svg>
