<?xml version="1.0" encoding="UTF-8"?>
<svg xmlns="http://www.w3.org/2000/svg" width="66" height="40" viewBox="0 0 66 40">
  <title>b:1 closest-to-family-average atom 1954</title>
  <rect x="0" y="0" width="66" height="40" fill="#17181b"/>
  <rect x="0.5" y="0.5" width="65" height="39" fill="none" stroke="#111827" stroke-width="1" opacity="0.35"/>
<polyline points="16,16 16,17 17,17 17,18 18,18 19,19 20,20 21,20 21,21 22,21 23,21 23,22 24,22 25,22 26,22 26,23 27,23 28,23 29,23 30,23 31,23 32,23 33,23 34,23 34,24 35,24 36,24 37,24 38,23 39,23 40,23 41,23 42,23 42,22 43,22 44,22 45,22 45,21 46,21 47,20 48,20 48,19 49,19 49,18 50,17" fill="none" stroke="#2f7df6" stroke-width="3" stroke-linecap="round" stroke-linejoin="round" opacity="0.95">
    <title>1954 b:1</title>
  </polyline>
</svg>
