<?xml version="1.0" encoding="UTF-8"?>
<svg xmlns="http://www.w3.org/2000/svg" width="72" height="41" viewBox="0 0 72 41">
  <title>b:1 distant-variant atom 4743</title>
  <rect x="0" y="0" width="72" height="41" fill="#17181b"/>
  <rect x="0.5" y="0.5" width="71" height="40" fill="none" stroke="#111827" stroke-width="1" opacity="0.35"/>
<polyline points="56,16 56,17 55,17 55,18 55,19 55,20 55,21 54,21 54,22 53,22 53,23 52,23 51,24 50,24 49,24 48,24 47,25 46,25 45,25 44,25 43,25 42,25 41,25 40,25 40,24 39,24 38,24 37,24 36,23 35,23 34,23 33,23 32,23 31,22 30,22 29,22 28,22 27,22 27,21 26,21 25,21 24,21 23,20 22,20 21,20 21,19 20,19 19,19 18,19 18,18 17,18 16,18" fill="none" stroke="#2f7df6" stroke-width="3" stroke-linecap="round" stroke-linejoin="round" opacity="0.95">
    <title>4743 b:1</title>
  </polyline>
</svg>
