<?xml version="1.0" encoding="UTF-8"?>
<svg xmlns="http://www.w3.org/2000/svg" width="67" height="36" viewBox="0 0 67 36">
  <title>atom 5139 g:1</title>
  <metadata>{&quot;entityType&quot;:&quot;atom&quot;,&quot;entityId&quot;:&quot;5139&quot;,&quot;token&quot;:&quot;g:1&quot;,&quot;signature&quot;:&quot;g:1&quot;,&quot;imageName&quot;:&quot;page-004.jpg&quot;,&quot;imageId&quot;:4,&quot;bounds&quot;:{&quot;x&quot;:770,&quot;y&quot;:1904,&quot;w&quot;:67,&quot;h&quot;:36},&quot;atoms&quot;:[{&quot;id&quot;:5139,&quot;token&quot;:&quot;g:1&quot;,&quot;particle_id&quot;:&quot;img4-m2-p1&quot;,&quot;molecule_id&quot;:&quot;img4-m2&quot;,&quot;atom_order&quot;:2}]}</metadata>
  <rect x="0" y="0" width="67" height="36" fill="#f8f0d8"/>
  <image href="file:///C:/Users/HHHES/AppData/Roaming/com.voynichlab.datasetcreator/images/1/aff30327-ced8-4ab4-8c9b-190205ebe022.jpg" x="-770" y="-1904" width="2804" height="3797" opacity="0.92"/>
  <rect x="0.5" y="0.5" width="66" height="35" fill="none" stroke="#111827" stroke-width="1" opacity="0.35"/>
  <polyline points="16,16 17,16 18,16 19,16 20,16 21,16 22,17 23,17 25,17 26,17 27,17 28,17 29,17 30,17 31,17 32,18 33,18 34,18 35,18 37,18 38,18 40,18 41,18 42,18 43,18 44,18 45,18 45,19 46,19 47,19 48,19 49,19 50,20 51,20" fill="none" stroke="#7c3cff" stroke-width="3" stroke-linecap="round" stroke-linejoin="round" opacity="0.95">
    <title>5139 g:1</title>
  </polyline>
</svg>
