<?xml version="1.0" encoding="UTF-8"?>
<svg xmlns="http://www.w3.org/2000/svg" width="65" height="37" viewBox="0 0 65 37">
  <title>atom 5140 g:1</title>
  <metadata>{&quot;entityType&quot;:&quot;atom&quot;,&quot;entityId&quot;:&quot;5140&quot;,&quot;token&quot;:&quot;g:1&quot;,&quot;signature&quot;:&quot;g:1&quot;,&quot;imageName&quot;:&quot;page-004.jpg&quot;,&quot;imageId&quot;:4,&quot;bounds&quot;:{&quot;x&quot;:1902,&quot;y&quot;:1970,&quot;w&quot;:65,&quot;h&quot;:37},&quot;atoms&quot;:[{&quot;id&quot;:5140,&quot;token&quot;:&quot;g:1&quot;,&quot;particle_id&quot;:&quot;img4-m5-p4&quot;,&quot;molecule_id&quot;:&quot;img4-m5&quot;,&quot;atom_order&quot;:2}]}</metadata>
  <rect x="0" y="0" width="65" height="37" fill="#f8f0d8"/>
  <image href="file:///C:/Users/HHHES/AppData/Roaming/com.voynichlab.datasetcreator/images/1/aff30327-ced8-4ab4-8c9b-190205ebe022.jpg" x="-1902" y="-1970" width="2804" height="3797" opacity="0.92"/>
  <rect x="0.5" y="0.5" width="64" height="36" fill="none" stroke="#111827" stroke-width="1" opacity="0.35"/>
  <polyline points="16,16 17,16 18,16 18,17 19,17 20,17 21,17 22,17 24,18 25,18 26,18 27,18 29,18 30,19 32,19 34,19 35,20 37,20 38,20 39,20 40,20 41,20 42,20 43,21 44,21 45,21 46,21 47,21 48,21 48,20 49,20" fill="none" stroke="#7c3cff" stroke-width="3" stroke-linecap="round" stroke-linejoin="round" opacity="0.95">
    <title>5140 g:1</title>
  </polyline>
</svg>
