<?xml version="1.0" encoding="UTF-8"?>
<svg xmlns="http://www.w3.org/2000/svg" width="69" height="38" viewBox="0 0 69 38">
  <title>atom 5143 g:1</title>
  <metadata>{&quot;entityType&quot;:&quot;atom&quot;,&quot;entityId&quot;:&quot;5143&quot;,&quot;token&quot;:&quot;g:1&quot;,&quot;signature&quot;:&quot;g:1&quot;,&quot;imageName&quot;:&quot;page-004.jpg&quot;,&quot;imageId&quot;:4,&quot;bounds&quot;:{&quot;x&quot;:2290,&quot;y&quot;:2068,&quot;w&quot;:69,&quot;h&quot;:38},&quot;atoms&quot;:[{&quot;id&quot;:5143,&quot;token&quot;:&quot;g:1&quot;,&quot;particle_id&quot;:&quot;img4-m18-p1&quot;,&quot;molecule_id&quot;:&quot;img4-m18&quot;,&quot;atom_order&quot;:2}]}</metadata>
  <rect x="0" y="0" width="69" height="38" fill="#f8f0d8"/>
  <image href="file:///C:/Users/HHHES/AppData/Roaming/com.voynichlab.datasetcreator/images/1/aff30327-ced8-4ab4-8c9b-190205ebe022.jpg" x="-2290" y="-2068" width="2804" height="3797" opacity="0.92"/>
  <rect x="0.5" y="0.5" width="68" height="37" fill="none" stroke="#111827" stroke-width="1" opacity="0.35"/>
  <polyline points="16,16 17,16 19,17 20,17 21,17 22,17 23,18 26,18 28,18 30,18 31,18 32,18 34,18 36,19 38,19 39,19 40,19 41,19 42,19 43,19 44,19 45,19 45,20 46,20 47,20 48,21 49,21 50,21 50,22 51,22 52,22 53,22" fill="none" stroke="#7c3cff" stroke-width="3" stroke-linecap="round" stroke-linejoin="round" opacity="0.95">
    <title>5143 g:1</title>
  </polyline>
</svg>
