<?xml version="1.0" encoding="UTF-8"?>
<svg xmlns="http://www.w3.org/2000/svg" width="73" height="34" viewBox="0 0 73 34">
  <title>atom 5158 g:1</title>
  <metadata>{&quot;entityType&quot;:&quot;atom&quot;,&quot;entityId&quot;:&quot;5158&quot;,&quot;token&quot;:&quot;g:1&quot;,&quot;signature&quot;:&quot;g:1&quot;,&quot;imageName&quot;:&quot;page-004.jpg&quot;,&quot;imageId&quot;:4,&quot;bounds&quot;:{&quot;x&quot;:664,&quot;y&quot;:2116,&quot;w&quot;:73,&quot;h&quot;:34},&quot;atoms&quot;:[{&quot;id&quot;:5158,&quot;token&quot;:&quot;g:1&quot;,&quot;particle_id&quot;:&quot;img4-m25-p1&quot;,&quot;molecule_id&quot;:&quot;img4-m25&quot;,&quot;atom_order&quot;:2}]}</metadata>
  <rect x="0" y="0" width="73" height="34" fill="#f8f0d8"/>
  <image href="file:///C:/Users/HHHES/AppData/Roaming/com.voynichlab.datasetcreator/images/1/aff30327-ced8-4ab4-8c9b-190205ebe022.jpg" x="-664" y="-2116" width="2804" height="3797" opacity="0.92"/>
  <rect x="0.5" y="0.5" width="72" height="33" fill="none" stroke="#111827" stroke-width="1" opacity="0.35"/>
  <polyline points="16,17 17,17 18,17 20,17 22,17 25,17 28,17 31,17 33,17 35,17 37,17 39,17 41,17 44,16 46,16 49,16 50,16 51,17 52,17 53,17 54,16 55,16 56,16 57,17 57,18 56,18 55,18 54,18 53,18 52,18" fill="none" stroke="#7c3cff" stroke-width="3" stroke-linecap="round" stroke-linejoin="round" opacity="0.95">
    <title>5158 g:1</title>
  </polyline>
</svg>
