<?xml version="1.0" encoding="UTF-8"?>
<svg xmlns="http://www.w3.org/2000/svg" width="79" height="37" viewBox="0 0 79 37">
  <title>atom 5159 g:1</title>
  <metadata>{&quot;entityType&quot;:&quot;atom&quot;,&quot;entityId&quot;:&quot;5159&quot;,&quot;token&quot;:&quot;g:1&quot;,&quot;signature&quot;:&quot;g:1&quot;,&quot;imageName&quot;:&quot;page-004.jpg&quot;,&quot;imageId&quot;:4,&quot;bounds&quot;:{&quot;x&quot;:776,&quot;y&quot;:2332,&quot;w&quot;:79,&quot;h&quot;:37},&quot;atoms&quot;:[{&quot;id&quot;:5159,&quot;token&quot;:&quot;g:1&quot;,&quot;particle_id&quot;:&quot;img4-m35-p2&quot;,&quot;molecule_id&quot;:&quot;img4-m35&quot;,&quot;atom_order&quot;:2}]}</metadata>
  <rect x="0" y="0" width="79" height="37" fill="#f8f0d8"/>
  <image href="file:///C:/Users/HHHES/AppData/Roaming/com.voynichlab.datasetcreator/images/1/aff30327-ced8-4ab4-8c9b-190205ebe022.jpg" x="-776" y="-2332" width="2804" height="3797" opacity="0.92"/>
  <rect x="0.5" y="0.5" width="78" height="36" fill="none" stroke="#111827" stroke-width="1" opacity="0.35"/>
  <polyline points="16,16 17,16 18,16 19,16 21,16 23,16 25,16 26,17 28,17 30,17 33,17 37,18 40,18 41,18 42,18 43,18 45,19 47,19 49,20 51,20 52,20 54,20 55,20 56,21 57,21 58,21 59,20 60,20 61,20 62,20 63,20 62,20" fill="none" stroke="#7c3cff" stroke-width="3" stroke-linecap="round" stroke-linejoin="round" opacity="0.95">
    <title>5159 g:1</title>
  </polyline>
</svg>
