<?xml version="1.0" encoding="UTF-8"?>
<svg xmlns="http://www.w3.org/2000/svg" width="81" height="34" viewBox="0 0 81 34">
  <title>atom 5163 g:1</title>
  <metadata>{&quot;entityType&quot;:&quot;atom&quot;,&quot;entityId&quot;:&quot;5163&quot;,&quot;token&quot;:&quot;g:1&quot;,&quot;signature&quot;:&quot;g:1&quot;,&quot;imageName&quot;:&quot;page-004.jpg&quot;,&quot;imageId&quot;:4,&quot;bounds&quot;:{&quot;x&quot;:2347,&quot;y&quot;:2415,&quot;w&quot;:81,&quot;h&quot;:34},&quot;atoms&quot;:[{&quot;id&quot;:5163,&quot;token&quot;:&quot;g:1&quot;,&quot;particle_id&quot;:&quot;img4-m42-p5&quot;,&quot;molecule_id&quot;:&quot;img4-m42&quot;,&quot;atom_order&quot;:2}]}</metadata>
  <rect x="0" y="0" width="81" height="34" fill="#f8f0d8"/>
  <image href="file:///C:/Users/HHHES/AppData/Roaming/com.voynichlab.datasetcreator/images/1/aff30327-ced8-4ab4-8c9b-190205ebe022.jpg" x="-2347" y="-2415" width="2804" height="3797" opacity="0.92"/>
  <rect x="0.5" y="0.5" width="80" height="33" fill="none" stroke="#111827" stroke-width="1" opacity="0.35"/>
  <polyline points="16,16 17,16 18,17 19,17 20,17 22,17 23,17 24,17 25,17 27,17 29,17 32,17 34,17 35,17 36,17 37,17 40,17 44,17 46,17 47,17 48,17 49,17 50,18 51,18 52,18 55,18 57,18 58,18 59,18 60,18 61,18 62,18 63,18 64,18 65,18" fill="none" stroke="#7c3cff" stroke-width="3" stroke-linecap="round" stroke-linejoin="round" opacity="0.95">
    <title>5163 g:1</title>
  </polyline>
</svg>
