<?xml version="1.0" encoding="UTF-8"?>
<svg xmlns="http://www.w3.org/2000/svg" width="73" height="36" viewBox="0 0 73 36">
  <title>atom 5165 g:1</title>
  <metadata>{&quot;entityType&quot;:&quot;atom&quot;,&quot;entityId&quot;:&quot;5165&quot;,&quot;token&quot;:&quot;g:1&quot;,&quot;signature&quot;:&quot;g:1&quot;,&quot;imageName&quot;:&quot;page-004.jpg&quot;,&quot;imageId&quot;:4,&quot;bounds&quot;:{&quot;x&quot;:2173,&quot;y&quot;:2487,&quot;w&quot;:73,&quot;h&quot;:36},&quot;atoms&quot;:[{&quot;id&quot;:5165,&quot;token&quot;:&quot;g:1&quot;,&quot;particle_id&quot;:&quot;img4-m55-p1&quot;,&quot;molecule_id&quot;:&quot;img4-m55&quot;,&quot;atom_order&quot;:2}]}</metadata>
  <rect x="0" y="0" width="73" height="36" fill="#f8f0d8"/>
  <image href="file:///C:/Users/HHHES/AppData/Roaming/com.voynichlab.datasetcreator/images/1/aff30327-ced8-4ab4-8c9b-190205ebe022.jpg" x="-2173" y="-2487" width="2804" height="3797" opacity="0.92"/>
  <rect x="0.5" y="0.5" width="72" height="35" fill="none" stroke="#111827" stroke-width="1" opacity="0.35"/>
  <polyline points="16,16 17,16 18,16 20,16 22,16 25,16 28,17 31,17 34,17 36,17 38,17 40,17 41,18 43,18 44,18 46,18 48,19 50,19 51,19 52,20 53,20 53,19 54,19 55,19 56,19 57,19" fill="none" stroke="#7c3cff" stroke-width="3" stroke-linecap="round" stroke-linejoin="round" opacity="0.95">
    <title>5165 g:1</title>
  </polyline>
</svg>
