<?xml version="1.0" encoding="UTF-8"?>
<svg xmlns="http://www.w3.org/2000/svg" width="70" height="34" viewBox="0 0 70 34">
  <title>atom 5166 g:1</title>
  <metadata>{&quot;entityType&quot;:&quot;atom&quot;,&quot;entityId&quot;:&quot;5166&quot;,&quot;token&quot;:&quot;g:1&quot;,&quot;signature&quot;:&quot;g:1&quot;,&quot;imageName&quot;:&quot;page-004.jpg&quot;,&quot;imageId&quot;:4,&quot;bounds&quot;:{&quot;x&quot;:1839,&quot;y&quot;:2469,&quot;w&quot;:70,&quot;h&quot;:34},&quot;atoms&quot;:[{&quot;id&quot;:5166,&quot;token&quot;:&quot;g:1&quot;,&quot;particle_id&quot;:&quot;img4-m51-p1&quot;,&quot;molecule_id&quot;:&quot;img4-m51&quot;,&quot;atom_order&quot;:2}]}</metadata>
  <rect x="0" y="0" width="70" height="34" fill="#f8f0d8"/>
  <image href="file:///C:/Users/HHHES/AppData/Roaming/com.voynichlab.datasetcreator/images/1/aff30327-ced8-4ab4-8c9b-190205ebe022.jpg" x="-1839" y="-2469" width="2804" height="3797" opacity="0.92"/>
  <rect x="0.5" y="0.5" width="69" height="33" fill="none" stroke="#111827" stroke-width="1" opacity="0.35"/>
  <polyline points="16,16 17,17 18,17 19,17 20,17 21,17 24,17 25,17 27,17 28,17 29,17 31,17 33,17 35,17 36,16 37,16 38,16 39,16 40,16 41,16 42,17 43,17 44,17 45,17 46,17 47,17 48,18 49,18 50,18 51,18 52,18 53,18 54,18" fill="none" stroke="#7c3cff" stroke-width="3" stroke-linecap="round" stroke-linejoin="round" opacity="0.95">
    <title>5166 g:1</title>
  </polyline>
</svg>
