<?xml version="1.0" encoding="UTF-8"?>
<svg xmlns="http://www.w3.org/2000/svg" width="102" height="35" viewBox="0 0 102 35">
  <title>atom 5169 g:1</title>
  <metadata>{&quot;entityType&quot;:&quot;atom&quot;,&quot;entityId&quot;:&quot;5169&quot;,&quot;token&quot;:&quot;g:1&quot;,&quot;signature&quot;:&quot;g:1&quot;,&quot;imageName&quot;:&quot;page-004.jpg&quot;,&quot;imageId&quot;:4,&quot;bounds&quot;:{&quot;x&quot;:904,&quot;y&quot;:2413,&quot;w&quot;:102,&quot;h&quot;:35},&quot;atoms&quot;:[{&quot;id&quot;:5169,&quot;token&quot;:&quot;g:1&quot;,&quot;particle_id&quot;:&quot;img4-m37-p1&quot;,&quot;molecule_id&quot;:&quot;img4-m37&quot;,&quot;atom_order&quot;:6}]}</metadata>
  <rect x="0" y="0" width="102" height="35" fill="#f8f0d8"/>
  <image href="file:///C:/Users/HHHES/AppData/Roaming/com.voynichlab.datasetcreator/images/1/aff30327-ced8-4ab4-8c9b-190205ebe022.jpg" x="-904" y="-2413" width="2804" height="3797" opacity="0.92"/>
  <rect x="0.5" y="0.5" width="101" height="34" fill="none" stroke="#111827" stroke-width="1" opacity="0.35"/>
  <polyline points="16,16 17,16 18,16 19,16 21,16 24,16 26,16 28,16 30,16 31,16 32,16 34,16 37,17 40,17 43,17 45,17 46,17 47,18 49,18 51,18 54,18 56,18 58,18 58,19 59,19 60,19 62,19 64,19 65,19 66,19 67,19 68,19 69,19 71,19 72,19 73,19 74,19 75,19 76,19 77,19 78,19 79,19 80,19 81,19 82,19 83,19 84,19 85,19 86,19" fill="none" stroke="#7c3cff" stroke-width="3" stroke-linecap="round" stroke-linejoin="round" opacity="0.95">
    <title>5169 g:1</title>
  </polyline>
</svg>
