<?xml version="1.0" encoding="UTF-8"?>
<svg xmlns="http://www.w3.org/2000/svg" width="67" height="34" viewBox="0 0 67 34">
  <title>atom 5170 g:1</title>
  <metadata>{&quot;entityType&quot;:&quot;atom&quot;,&quot;entityId&quot;:&quot;5170&quot;,&quot;token&quot;:&quot;g:1&quot;,&quot;signature&quot;:&quot;g:1&quot;,&quot;imageName&quot;:&quot;page-004.jpg&quot;,&quot;imageId&quot;:4,&quot;bounds&quot;:{&quot;x&quot;:741,&quot;y&quot;:2405,&quot;w&quot;:67,&quot;h&quot;:34},&quot;atoms&quot;:[{&quot;id&quot;:5170,&quot;token&quot;:&quot;g:1&quot;,&quot;particle_id&quot;:&quot;img4-m41-p1&quot;,&quot;molecule_id&quot;:&quot;img4-m41&quot;,&quot;atom_order&quot;:2}]}</metadata>
  <rect x="0" y="0" width="67" height="34" fill="#f8f0d8"/>
  <image href="file:///C:/Users/HHHES/AppData/Roaming/com.voynichlab.datasetcreator/images/1/aff30327-ced8-4ab4-8c9b-190205ebe022.jpg" x="-741" y="-2405" width="2804" height="3797" opacity="0.92"/>
  <rect x="0.5" y="0.5" width="66" height="33" fill="none" stroke="#111827" stroke-width="1" opacity="0.35"/>
  <polyline points="16,16 17,16 18,16 19,16 21,16 22,16 24,16 25,16 27,16 29,16 30,16 32,16 33,17 34,17 35,17 37,17 39,17 40,17 42,17 43,17 44,17 45,17 45,18 46,18 47,18 48,18 49,18 50,18 51,18" fill="none" stroke="#7c3cff" stroke-width="3" stroke-linecap="round" stroke-linejoin="round" opacity="0.95">
    <title>5170 g:1</title>
  </polyline>
</svg>
