<?xml version="1.0" encoding="UTF-8"?>
<svg xmlns="http://www.w3.org/2000/svg" width="95" height="35" viewBox="0 0 95 35">
  <title>atom 5175 g:1</title>
  <metadata>{&quot;entityType&quot;:&quot;atom&quot;,&quot;entityId&quot;:&quot;5175&quot;,&quot;token&quot;:&quot;g:1&quot;,&quot;signature&quot;:&quot;g:1&quot;,&quot;imageName&quot;:&quot;page-004.jpg&quot;,&quot;imageId&quot;:4,&quot;bounds&quot;:{&quot;x&quot;:1252,&quot;y&quot;:2497,&quot;w&quot;:95,&quot;h&quot;:35},&quot;atoms&quot;:[{&quot;id&quot;:5175,&quot;token&quot;:&quot;g:1&quot;,&quot;particle_id&quot;:&quot;img4-m48-p1&quot;,&quot;molecule_id&quot;:&quot;img4-m48&quot;,&quot;atom_order&quot;:6}]}</metadata>
  <rect x="0" y="0" width="95" height="35" fill="#f8f0d8"/>
  <image href="file:///C:/Users/HHHES/AppData/Roaming/com.voynichlab.datasetcreator/images/1/aff30327-ced8-4ab4-8c9b-190205ebe022.jpg" x="-1252" y="-2497" width="2804" height="3797" opacity="0.92"/>
  <rect x="0.5" y="0.5" width="94" height="34" fill="none" stroke="#111827" stroke-width="1" opacity="0.35"/>
  <polyline points="16,17 17,17 18,16 19,16 20,16 22,16 24,17 26,17 28,17 29,17 31,17 32,17 34,17 35,17 37,17 38,18 40,18 43,18 45,18 47,18 49,18 50,18 51,18 52,18 54,18 56,18 57,18 59,18 60,18 62,18 63,18 64,18 66,18 67,18 68,18 69,18 70,18 71,18 72,18 73,19 74,19 75,19 76,19 77,19 78,19 79,19" fill="none" stroke="#7c3cff" stroke-width="3" stroke-linecap="round" stroke-linejoin="round" opacity="0.95">
    <title>5175 g:1</title>
  </polyline>
</svg>
