<?xml version="1.0" encoding="UTF-8"?>
<svg xmlns="http://www.w3.org/2000/svg" width="71" height="33" viewBox="0 0 71 33">
  <title>atom 5176 g:1</title>
  <metadata>{&quot;entityType&quot;:&quot;atom&quot;,&quot;entityId&quot;:&quot;5176&quot;,&quot;token&quot;:&quot;g:1&quot;,&quot;signature&quot;:&quot;g:1&quot;,&quot;imageName&quot;:&quot;page-004.jpg&quot;,&quot;imageId&quot;:4,&quot;bounds&quot;:{&quot;x&quot;:2294,&quot;y&quot;:2561,&quot;w&quot;:71,&quot;h&quot;:33},&quot;atoms&quot;:[{&quot;id&quot;:5176,&quot;token&quot;:&quot;g:1&quot;,&quot;particle_id&quot;:&quot;img4-m63-p4&quot;,&quot;molecule_id&quot;:&quot;img4-m63&quot;,&quot;atom_order&quot;:2}]}</metadata>
  <rect x="0" y="0" width="71" height="33" fill="#f8f0d8"/>
  <image href="file:///C:/Users/HHHES/AppData/Roaming/com.voynichlab.datasetcreator/images/1/aff30327-ced8-4ab4-8c9b-190205ebe022.jpg" x="-2294" y="-2561" width="2804" height="3797" opacity="0.92"/>
  <rect x="0.5" y="0.5" width="70" height="32" fill="none" stroke="#111827" stroke-width="1" opacity="0.35"/>
  <polyline points="16,16 17,16 18,16 19,16 21,16 22,16 24,16 25,17 26,17 27,17 29,17 30,16 32,16 33,16 34,16 36,17 37,17 39,17 40,17 41,17 42,17 43,17 44,17 45,17 46,17 47,17 48,17 49,17 50,17 51,17 52,17 53,17 54,17 55,17" fill="none" stroke="#7c3cff" stroke-width="3" stroke-linecap="round" stroke-linejoin="round" opacity="0.95">
    <title>5176 g:1</title>
  </polyline>
</svg>
