<?xml version="1.0" encoding="UTF-8"?>
<svg xmlns="http://www.w3.org/2000/svg" width="115" height="38" viewBox="0 0 115 38">
  <title>atom 5179 g:1</title>
  <metadata>{&quot;entityType&quot;:&quot;atom&quot;,&quot;entityId&quot;:&quot;5179&quot;,&quot;token&quot;:&quot;g:1&quot;,&quot;signature&quot;:&quot;g:1&quot;,&quot;imageName&quot;:&quot;page-004.jpg&quot;,&quot;imageId&quot;:4,&quot;bounds&quot;:{&quot;x&quot;:1700,&quot;y&quot;:2603,&quot;w&quot;:115,&quot;h&quot;:38},&quot;atoms&quot;:[{&quot;id&quot;:5179,&quot;token&quot;:&quot;g:1&quot;,&quot;particle_id&quot;:&quot;img4-m67-p1&quot;,&quot;molecule_id&quot;:&quot;img4-m67&quot;,&quot;atom_order&quot;:6}]}</metadata>
  <rect x="0" y="0" width="115" height="38" fill="#f8f0d8"/>
  <image href="file:///C:/Users/HHHES/AppData/Roaming/com.voynichlab.datasetcreator/images/1/aff30327-ced8-4ab4-8c9b-190205ebe022.jpg" x="-1700" y="-2603" width="2804" height="3797" opacity="0.92"/>
  <rect x="0.5" y="0.5" width="114" height="37" fill="none" stroke="#111827" stroke-width="1" opacity="0.35"/>
  <polyline points="16,16 17,16 18,16 19,17 20,17 21,17 23,17 24,17 25,17 26,17 27,17 29,17 30,17 31,18 32,18 33,18 34,18 36,18 39,18 41,18 42,18 43,18 44,18 46,18 47,18 49,18 50,18 51,18 52,18 53,18 54,17 55,17 56,17 58,17 60,17 61,17 62,17 63,17 64,17 65,17 66,17 67,17 69,17 70,17 72,17 73,17 74,17 76,17 77,17 79,17 81,17 83,18 84,18 86,18 87,18 88,18 89,18 90,18 90,19 91,19 92,20 93,21 94,21 95,21 95,22 96,22 97,22 98,22 99,22" fill="none" stroke="#7c3cff" stroke-width="3" stroke-linecap="round" stroke-linejoin="round" opacity="0.95">
    <title>5179 g:1</title>
  </polyline>
</svg>
