<?xml version="1.0" encoding="UTF-8"?>
<svg xmlns="http://www.w3.org/2000/svg" width="75" height="37" viewBox="0 0 75 37">
  <title>atom 5180 g:1</title>
  <metadata>{&quot;entityType&quot;:&quot;atom&quot;,&quot;entityId&quot;:&quot;5180&quot;,&quot;token&quot;:&quot;g:1&quot;,&quot;signature&quot;:&quot;g:1&quot;,&quot;imageName&quot;:&quot;page-004.jpg&quot;,&quot;imageId&quot;:4,&quot;bounds&quot;:{&quot;x&quot;:1529,&quot;y&quot;:2597,&quot;w&quot;:75,&quot;h&quot;:37},&quot;atoms&quot;:[{&quot;id&quot;:5180,&quot;token&quot;:&quot;g:1&quot;,&quot;particle_id&quot;:&quot;img4-m69-p1&quot;,&quot;molecule_id&quot;:&quot;img4-m69&quot;,&quot;atom_order&quot;:2}]}</metadata>
  <rect x="0" y="0" width="75" height="37" fill="#f8f0d8"/>
  <image href="file:///C:/Users/HHHES/AppData/Roaming/com.voynichlab.datasetcreator/images/1/aff30327-ced8-4ab4-8c9b-190205ebe022.jpg" x="-1529" y="-2597" width="2804" height="3797" opacity="0.92"/>
  <rect x="0.5" y="0.5" width="74" height="36" fill="none" stroke="#111827" stroke-width="1" opacity="0.35"/>
  <polyline points="16,16 17,16 18,16 18,17 19,17 21,17 23,18 25,18 26,18 27,18 28,18 30,18 33,19 36,19 38,19 39,19 40,19 41,19 43,19 45,20 46,20 47,20 48,20 50,20 51,20 52,20 53,20 54,20 55,20 56,20 56,21 57,21 58,21 59,21" fill="none" stroke="#7c3cff" stroke-width="3" stroke-linecap="round" stroke-linejoin="round" opacity="0.95">
    <title>5180 g:1</title>
  </polyline>
</svg>
