<?xml version="1.0" encoding="UTF-8"?>
<svg xmlns="http://www.w3.org/2000/svg" width="73" height="34" viewBox="0 0 73 34">
  <title>atom 5187 g:1</title>
  <metadata>{&quot;entityType&quot;:&quot;atom&quot;,&quot;entityId&quot;:&quot;5187&quot;,&quot;token&quot;:&quot;g:1&quot;,&quot;signature&quot;:&quot;g:1&quot;,&quot;imageName&quot;:&quot;page-004.jpg&quot;,&quot;imageId&quot;:4,&quot;bounds&quot;:{&quot;x&quot;:1756,&quot;y&quot;:2677,&quot;w&quot;:73,&quot;h&quot;:34},&quot;atoms&quot;:[{&quot;id&quot;:5187,&quot;token&quot;:&quot;g:1&quot;,&quot;particle_id&quot;:&quot;img4-m79-p2&quot;,&quot;molecule_id&quot;:&quot;img4-m79&quot;,&quot;atom_order&quot;:3}]}</metadata>
  <rect x="0" y="0" width="73" height="34" fill="#f8f0d8"/>
  <image href="file:///C:/Users/HHHES/AppData/Roaming/com.voynichlab.datasetcreator/images/1/aff30327-ced8-4ab4-8c9b-190205ebe022.jpg" x="-1756" y="-2677" width="2804" height="3797" opacity="0.92"/>
  <rect x="0.5" y="0.5" width="72" height="33" fill="none" stroke="#111827" stroke-width="1" opacity="0.35"/>
  <polyline points="16,16 17,16 18,16 19,16 20,16 23,16 25,17 27,17 28,17 29,17 30,17 32,17 33,17 35,17 36,18 37,18 38,18 39,18 41,18 42,18 43,18 44,18 45,18 46,18 47,18 48,18 49,18 50,18 51,18 52,18 53,17 54,17 55,17 56,17 57,17 56,17 54,17" fill="none" stroke="#7c3cff" stroke-width="3" stroke-linecap="round" stroke-linejoin="round" opacity="0.95">
    <title>5187 g:1</title>
  </polyline>
</svg>
