<?xml version="1.0" encoding="UTF-8"?>
<svg xmlns="http://www.w3.org/2000/svg" width="73" height="33" viewBox="0 0 73 33">
  <title>atom 5189 g:1</title>
  <metadata>{&quot;entityType&quot;:&quot;atom&quot;,&quot;entityId&quot;:&quot;5189&quot;,&quot;token&quot;:&quot;g:1&quot;,&quot;signature&quot;:&quot;g:1&quot;,&quot;imageName&quot;:&quot;page-004.jpg&quot;,&quot;imageId&quot;:4,&quot;bounds&quot;:{&quot;x&quot;:2275,&quot;y&quot;:2707,&quot;w&quot;:73,&quot;h&quot;:33},&quot;atoms&quot;:[{&quot;id&quot;:5189,&quot;token&quot;:&quot;g:1&quot;,&quot;particle_id&quot;:&quot;img4-m84-p2&quot;,&quot;molecule_id&quot;:&quot;img4-m84&quot;,&quot;atom_order&quot;:2}]}</metadata>
  <rect x="0" y="0" width="73" height="33" fill="#f8f0d8"/>
  <image href="file:///C:/Users/HHHES/AppData/Roaming/com.voynichlab.datasetcreator/images/1/aff30327-ced8-4ab4-8c9b-190205ebe022.jpg" x="-2275" y="-2707" width="2804" height="3797" opacity="0.92"/>
  <rect x="0.5" y="0.5" width="72" height="32" fill="none" stroke="#111827" stroke-width="1" opacity="0.35"/>
  <polyline points="16,17 17,17 18,17 20,17 22,17 24,17 26,17 28,16 29,16 30,16 31,16 33,16 36,16 38,16 40,16 42,16 43,16 45,16 46,16 47,16 48,16 49,16 50,16 51,16 52,16 53,16 54,16 55,16 56,16 57,16" fill="none" stroke="#7c3cff" stroke-width="3" stroke-linecap="round" stroke-linejoin="round" opacity="0.95">
    <title>5189 g:1</title>
  </polyline>
</svg>
