<?xml version="1.0" encoding="UTF-8"?>
<svg xmlns="http://www.w3.org/2000/svg" width="72" height="71" viewBox="0 0 72 71">
  <title>m:1 distant-variant atom 7041</title>
  <rect x="0" y="0" width="72" height="71" fill="#17181b"/>
  <rect x="0.5" y="0.5" width="71" height="70" fill="none" stroke="#111827" stroke-width="1" opacity="0.35"/>
<polyline points="31,55 31,54 31,52 31,51 32,51 32,50 32,49 32,48 33,47 33,46 33,45 33,44 33,43 33,42 33,41 33,40 33,39 33,38 33,37 33,36 33,35 33,34 33,33 33,32 33,31 33,30 33,29 33,28 34,27 34,26 34,25 34,24 34,23 34,22 34,21 34,20 34,19 34,18 33,18 33,17 33,16 32,16 31,16 31,17 30,17 30,18 29,19 28,20 27,21 27,22 26,23 25,24 24,24 24,25 23,25 23,26 22,26 22,27 21,27 21,28 20,28 20,29 19,30 18,31 17,32 17,33 17,34 16,34 16,35 16,36 16,37 17,37 18,37 19,37 20,37 21,37 22,37 23,37 24,37 26,37 27,37 28,37 30,37 31,37 32,37 33,37 35,37 37,37 39,37 40,37 41,37 42,37 43,37 44,37 46,37 49,37 50,37 52,37 54,37 55,37 56,37" fill="none" stroke="#ff00ff" stroke-width="3" stroke-linecap="round" stroke-linejoin="round" opacity="0.95">
    <title>7041 m:1</title>
  </polyline>
</svg>
