<?xml version="1.0" encoding="UTF-8"?>
<svg xmlns="http://www.w3.org/2000/svg" width="73" height="34" viewBox="0 0 73 34">
  <title>g:1 distant-variant atom 5158</title>
  <rect x="0" y="0" width="73" height="34" fill="#17181b"/>
  <rect x="0.5" y="0.5" width="72" height="33" fill="none" stroke="#111827" stroke-width="1" opacity="0.35"/>
<polyline points="16,17 17,17 18,17 20,17 22,17 25,17 28,17 31,17 33,17 35,17 37,17 39,17 41,17 44,16 46,16 49,16 50,16 51,17 52,17 53,17 54,16 55,16 56,16 57,17 57,18 56,18 55,18 54,18 53,18 52,18" fill="none" stroke="#7c3cff" stroke-width="3" stroke-linecap="round" stroke-linejoin="round" opacity="0.95">
    <title>5158 g:1</title>
  </polyline>
</svg>
