<?xml version="1.0" encoding="UTF-8"?>
<svg xmlns="http://www.w3.org/2000/svg" width="126" height="38" viewBox="0 0 126 38">
  <title>g:1 distant-variant atom 1413</title>
  <rect x="0" y="0" width="126" height="38" fill="#17181b"/>
  <rect x="0.5" y="0.5" width="125" height="37" fill="none" stroke="#111827" stroke-width="1" opacity="0.35"/>
<polyline points="110,16 110,17 109,17 108,17 107,17 106,17 105,17 104,17 103,17 102,17 101,17 100,18 99,18 98,18 97,18 96,18 95,18 94,18 93,18 92,18 91,18 90,18 89,18 88,18 87,18 86,18 85,18 84,18 83,18 82,19 81,19 80,19 79,19 78,19 77,19 76,19 75,19 74,19 73,19 72,19 71,19 70,19 69,19 69,20 68,20 67,20 66,20 65,20 64,20 63,20 62,20 61,20 60,20 59,20 58,21 57,21 56,21 55,21 54,21 53,21 52,21 51,21 50,21 49,21 48,21 47,21 47,22 46,22 45,22 44,22 43,22 42,22 41,22 40,22 39,22 38,22 37,22 36,22 35,22 34,22 33,22 32,22 31,22 30,22 29,22 28,22 27,22 26,22 25,22 24,22 23,22 22,22 21,22 20,22 19,22 18,22 17,22 16,22" fill="none" stroke="#7c3cff" stroke-width="3" stroke-linecap="round" stroke-linejoin="round" opacity="0.95">
    <title>1413 g:1</title>
  </polyline>
</svg>
