<?xml version="1.0" encoding="UTF-8"?>
<svg xmlns="http://www.w3.org/2000/svg" width="79" height="33" viewBox="0 0 79 33">
  <title>g:1 near-average-variant atom 4474</title>
  <rect x="0" y="0" width="79" height="33" fill="#17181b"/>
  <rect x="0.5" y="0.5" width="78" height="32" fill="none" stroke="#111827" stroke-width="1" opacity="0.35"/>
<polyline points="16,16 17,16 18,16 19,16 20,17 21,17 22,17 23,17 25,17 26,17 28,17 29,17 31,17 34,17 36,17 38,17 39,17 40,17 41,17 42,17 43,17 44,17 45,17 48,17 49,17 50,17 52,17 53,17 54,17 55,17 56,17 57,17 60,17 61,17 62,17 63,17" fill="none" stroke="#7c3cff" stroke-width="3" stroke-linecap="round" stroke-linejoin="round" opacity="0.95">
    <title>4474 g:1</title>
  </polyline>
</svg>
