<?xml version="1.0" encoding="UTF-8"?>
<svg xmlns="http://www.w3.org/2000/svg" width="69" height="38" viewBox="0 0 69 38">
  <title>g:1 distant-variant atom 3756</title>
  <rect x="0" y="0" width="69" height="38" fill="#17181b"/>
  <rect x="0.5" y="0.5" width="68" height="37" fill="none" stroke="#111827" stroke-width="1" opacity="0.35"/>
<polyline points="16,16 17,16 17,17 18,17 19,17 20,17 20,18 22,18 23,18 25,19 26,19 27,19 28,19 28,20 29,20 30,20 31,20 32,20 33,21 34,21 35,21 36,21 37,21 38,21 39,21 40,21 41,21 42,21 43,21 44,21 45,21 46,21 47,21 48,21 49,21 50,21 51,21 52,21 53,22" fill="none" stroke="#7c3cff" stroke-width="3" stroke-linecap="round" stroke-linejoin="round" opacity="0.95">
    <title>3756 g:1</title>
  </polyline>
</svg>
