<?xml version="1.0" encoding="UTF-8"?>
<svg xmlns="http://www.w3.org/2000/svg" width="122" height="56" viewBox="0 0 122 56">
  <title>molecule img94-m75 e:1 g:1 e:1 c:1</title>
  <metadata>{&quot;entityType&quot;:&quot;molecule&quot;,&quot;entityId&quot;:&quot;img94-m75&quot;,&quot;token&quot;:&quot;e:1 g:1 e:1 c:1&quot;,&quot;signature&quot;:&quot;e:1 g:1 e:1 c:1&quot;,&quot;imageName&quot;:&quot;page-094.jpg&quot;,&quot;imageId&quot;:94,&quot;bounds&quot;:{&quot;x&quot;:910,&quot;y&quot;:2882,&quot;w&quot;:122,&quot;h&quot;:56},&quot;atoms&quot;:[{&quot;id&quot;:4422,&quot;token&quot;:&quot;e:1&quot;,&quot;particle_id&quot;:&quot;img94-m75-p1&quot;,&quot;molecule_id&quot;:&quot;img94-m75&quot;,&quot;atom_order&quot;:1},{&quot;id&quot;:4473,&quot;token&quot;:&quot;g:1&quot;,&quot;particle_id&quot;:&quot;img94-m75-p1&quot;,&quot;molecule_id&quot;:&quot;img94-m75&quot;,&quot;atom_order&quot;:2},{&quot;id&quot;:4423,&quot;token&quot;:&quot;e:1&quot;,&quot;particle_id&quot;:&quot;img94-m75-p1&quot;,&quot;molecule_id&quot;:&quot;img94-m75&quot;,&quot;atom_order&quot;:3},{&quot;id&quot;:4507,&quot;token&quot;:&quot;c:1&quot;,&quot;particle_id&quot;:&quot;img94-m75-p2&quot;,&quot;molecule_id&quot;:&quot;img94-m75&quot;,&quot;atom_order&quot;:1}]}</metadata>
  <rect x="0" y="0" width="122" height="56" fill="#f8f0d8"/>
  <image href="file:///C:/Users/HHHES/AppData/Roaming/com.voynichlab.datasetcreator/images/1/33b1988f-7aaa-4207-bfa8-f26b742ac4b1.jpg" x="-910" y="-2882" width="2932" height="3769" opacity="0.92"/>
  <rect x="0.5" y="0.5" width="121" height="55" fill="none" stroke="#111827" stroke-width="1" opacity="0.35"/>
  <polyline points="31,37 31,38 30,38 30,39 29,39 28,39 28,40 27,40 26,40 25,40 24,40 23,40 22,40 21,40 21,39 20,39 19,39 18,39 18,38 17,38 16,38 16,37 16,36 16,35 16,34 16,33 16,32 16,31 17,31 17,30 17,29 17,28 18,28 18,27 18,26 19,26 19,25 19,24 20,24 21,24 21,23 22,23 22,22 23,22 24,22 24,21 25,21 26,21 27,21 27,20" fill="none" stroke="#f2e45c" stroke-width="3" stroke-linecap="round" stroke-linejoin="round" opacity="0.95">
    <title>4422 e:1</title>
  </polyline>
  <polyline points="24,20 25,20 27,20 29,20 31,20 32,20 33,20 35,20 38,19 40,19 42,19 43,19 45,18 46,18 47,18 48,18 50,18 51,18 52,18 53,18 54,18 55,18 56,18 57,18 58,18 59,18 60,18 61,18 62,18 63,17 64,17 65,17 66,17" fill="none" stroke="#7c3cff" stroke-width="3" stroke-linecap="round" stroke-linejoin="round" opacity="0.95">
    <title>4473 g:1</title>
  </polyline>
  <polyline points="70,33 70,34 69,34 69,35 68,35 67,35 67,36 66,36 65,36 64,36 63,36 62,36 61,36 60,36 60,35 59,35 58,35 57,35 57,34 56,34 55,34 55,33 55,32 55,31 55,30 55,29 55,28 55,27 56,27 56,26 56,25 56,24 57,24 57,23 57,22 58,22 58,21 58,20 59,20 60,20 60,19 61,19 61,18 62,18 63,18 63,17 64,17 65,17 66,17 66,16" fill="none" stroke="#f2e45c" stroke-width="3" stroke-linecap="round" stroke-linejoin="round" opacity="0.95">
    <title>4423 e:1</title>
  </polyline>
  <polyline points="88,23 88,24 87,24 87,25 87,26 86,26 86,27 86,28 86,29 86,30 86,31 86,32 86,33 87,33 87,34 88,34 88,35 89,36 90,36 91,36 92,36 92,37 93,37 94,37 95,37 96,37 97,37 98,37 99,37 100,37 100,36 101,36 102,36 102,35 102,34 103,34 103,33 104,33 104,32 104,31 105,31 105,30 105,29 106,29 106,28 106,27 106,26 106,25 106,24 106,23 105,23 105,22 105,21 104,21 104,20 103,20 103,19 102,19 102,18 101,18 100,18 100,17 99,17 98,17 97,17 96,17 95,17 94,17 93,17 92,18 91,18 91,19 90,19 90,20 89,20 88,20 88,21 87,21 87,22 87,23" fill="none" stroke="#8aff00" stroke-width="3" stroke-linecap="round" stroke-linejoin="round" opacity="0.95">
    <title>4507 c:1</title>
  </polyline>
</svg>
