<?xml version="1.0" encoding="UTF-8"?>
<svg xmlns="http://www.w3.org/2000/svg" width="51" height="55" viewBox="0 0 51 55">
  <title>atom 4923 e:1</title>
  <metadata>{&quot;entityType&quot;:&quot;atom&quot;,&quot;entityId&quot;:&quot;4923&quot;,&quot;token&quot;:&quot;e:1&quot;,&quot;signature&quot;:&quot;e:1&quot;,&quot;imageName&quot;:&quot;page-004.jpg&quot;,&quot;imageId&quot;:4,&quot;bounds&quot;:{&quot;x&quot;:1848,&quot;y&quot;:1877,&quot;w&quot;:51,&quot;h&quot;:55},&quot;atoms&quot;:[{&quot;id&quot;:4923,&quot;token&quot;:&quot;e:1&quot;,&quot;particle_id&quot;:&quot;img4-m5-p3&quot;,&quot;molecule_id&quot;:&quot;img4-m5&quot;,&quot;atom_order&quot;:2}]}</metadata>
  <rect x="0" y="0" width="51" height="55" fill="#f8f0d8"/>
  <image href="file:///C:/Users/HHHES/AppData/Roaming/com.voynichlab.datasetcreator/images/1/aff30327-ced8-4ab4-8c9b-190205ebe022.jpg" x="-1848" y="-1877" width="2804" height="3797" opacity="0.92"/>
  <rect x="0.5" y="0.5" width="50" height="54" fill="none" stroke="#111827" stroke-width="1" opacity="0.35"/>
  <polyline points="35,16 34,16 34,17 33,17 32,17 31,17 31,18 30,18 29,19 28,19 28,20 27,20 26,20 26,21 25,21 25,22 24,22 23,23 22,23 22,24 21,24 21,25 20,25 20,26 19,26 18,26 18,27 17,27 17,28 17,29 16,29 16,30 16,31 16,32 16,33 16,34 16,35 17,36 18,37 19,37 19,38 20,38 21,38 22,38 23,39 24,39 25,39 26,39 27,39 28,39" fill="none" stroke="#f2e45c" stroke-width="3" stroke-linecap="round" stroke-linejoin="round" opacity="0.95">
    <title>4923 e:1</title>
  </polyline>
</svg>
