<?xml version="1.0" encoding="UTF-8"?>
<svg xmlns="http://www.w3.org/2000/svg" width="46" height="46" viewBox="0 0 46 46">
  <title>atom 4998 e:1</title>
  <metadata>{&quot;entityType&quot;:&quot;atom&quot;,&quot;entityId&quot;:&quot;4998&quot;,&quot;token&quot;:&quot;e:1&quot;,&quot;signature&quot;:&quot;e:1&quot;,&quot;imageName&quot;:&quot;page-004.jpg&quot;,&quot;imageId&quot;:4,&quot;bounds&quot;:{&quot;x&quot;:543,&quot;y&quot;:2180,&quot;w&quot;:46,&quot;h&quot;:46},&quot;atoms&quot;:[{&quot;id&quot;:4998,&quot;token&quot;:&quot;e:1&quot;,&quot;particle_id&quot;:&quot;img4-m30-p1&quot;,&quot;molecule_id&quot;:&quot;img4-m30&quot;,&quot;atom_order&quot;:1}]}</metadata>
  <rect x="0" y="0" width="46" height="46" fill="#f8f0d8"/>
  <image href="file:///C:/Users/HHHES/AppData/Roaming/com.voynichlab.datasetcreator/images/1/aff30327-ced8-4ab4-8c9b-190205ebe022.jpg" x="-543" y="-2180" width="2804" height="3797" opacity="0.92"/>
  <rect x="0.5" y="0.5" width="45" height="45" fill="none" stroke="#111827" stroke-width="1" opacity="0.35"/>
  <polyline points="30,16 29,16 28,16 27,16 26,17 25,17 24,17 23,17 22,18 21,18 20,18 20,19 19,19 18,19 18,20 17,21 17,22 16,22 16,23 16,24 16,25 16,26 17,26 17,27 17,28 18,28 18,29 19,29 20,29 21,29 21,30 22,30 23,30 24,29" fill="none" stroke="#f2e45c" stroke-width="3" stroke-linecap="round" stroke-linejoin="round" opacity="0.95">
    <title>4998 e:1</title>
  </polyline>
</svg>
