<?xml version="1.0" encoding="UTF-8"?>
<svg xmlns="http://www.w3.org/2000/svg" width="44" height="46" viewBox="0 0 44 46">
  <title>atom 5005 e:1</title>
  <metadata>{&quot;entityType&quot;:&quot;atom&quot;,&quot;entityId&quot;:&quot;5005&quot;,&quot;token&quot;:&quot;e:1&quot;,&quot;signature&quot;:&quot;e:1&quot;,&quot;imageName&quot;:&quot;page-004.jpg&quot;,&quot;imageId&quot;:4,&quot;bounds&quot;:{&quot;x&quot;:1129,&quot;y&quot;:2267,&quot;w&quot;:44,&quot;h&quot;:46},&quot;atoms&quot;:[{&quot;id&quot;:5005,&quot;token&quot;:&quot;e:1&quot;,&quot;particle_id&quot;:&quot;img4-m32-p1&quot;,&quot;molecule_id&quot;:&quot;img4-m32&quot;,&quot;atom_order&quot;:3}]}</metadata>
  <rect x="0" y="0" width="44" height="46" fill="#f8f0d8"/>
  <image href="file:///C:/Users/HHHES/AppData/Roaming/com.voynichlab.datasetcreator/images/1/aff30327-ced8-4ab4-8c9b-190205ebe022.jpg" x="-1129" y="-2267" width="2804" height="3797" opacity="0.92"/>
  <rect x="0.5" y="0.5" width="43" height="45" fill="none" stroke="#111827" stroke-width="1" opacity="0.35"/>
  <polyline points="28,16 27,16 26,16 25,16 24,17 23,17 22,17 21,18 20,19 19,19 18,19 18,20 17,20 17,21 16,22 16,23 16,24 16,25 16,26 17,26 17,27 18,27 18,28 19,28 19,29 20,29 21,29 21,30 22,30" fill="none" stroke="#f2e45c" stroke-width="3" stroke-linecap="round" stroke-linejoin="round" opacity="0.95">
    <title>5005 e:1</title>
  </polyline>
</svg>
