<?xml version="1.0" encoding="UTF-8"?>
<svg xmlns="http://www.w3.org/2000/svg" width="44" height="48" viewBox="0 0 44 48">
  <title>atom 5119 e:1</title>
  <metadata>{&quot;entityType&quot;:&quot;atom&quot;,&quot;entityId&quot;:&quot;5119&quot;,&quot;token&quot;:&quot;e:1&quot;,&quot;signature&quot;:&quot;e:1&quot;,&quot;imageName&quot;:&quot;page-004.jpg&quot;,&quot;imageId&quot;:4,&quot;bounds&quot;:{&quot;x&quot;:1776,&quot;y&quot;:2780,&quot;w&quot;:44,&quot;h&quot;:48},&quot;atoms&quot;:[{&quot;id&quot;:5119,&quot;token&quot;:&quot;e:1&quot;,&quot;particle_id&quot;:&quot;img4-m87-p1&quot;,&quot;molecule_id&quot;:&quot;img4-m87&quot;,&quot;atom_order&quot;:3}]}</metadata>
  <rect x="0" y="0" width="44" height="48" fill="#f8f0d8"/>
  <image href="file:///C:/Users/HHHES/AppData/Roaming/com.voynichlab.datasetcreator/images/1/aff30327-ced8-4ab4-8c9b-190205ebe022.jpg" x="-1776" y="-2780" width="2804" height="3797" opacity="0.92"/>
  <rect x="0.5" y="0.5" width="43" height="47" fill="none" stroke="#111827" stroke-width="1" opacity="0.35"/>
  <polyline points="28,28 27,29 27,30 26,30 26,31 25,31 24,31 24,32 23,32 22,32 21,32 20,32 19,32 18,32 18,31 17,31 17,30 16,30 16,29 16,28 16,27 16,26 16,25 16,24 16,23 17,22 17,21 18,21 18,20 19,20 19,19 20,18 21,17 22,17 22,16 23,16 24,16 25,16 26,16 27,16 28,16" fill="none" stroke="#f2e45c" stroke-width="3" stroke-linecap="round" stroke-linejoin="round" opacity="0.95">
    <title>5119 e:1</title>
  </polyline>
</svg>
