<?xml version="1.0" encoding="UTF-8"?>
<svg xmlns="http://www.w3.org/2000/svg" width="51" height="45" viewBox="0 0 51 45">
  <title>atom 5406 e:1</title>
  <metadata>{&quot;entityType&quot;:&quot;atom&quot;,&quot;entityId&quot;:&quot;5406&quot;,&quot;token&quot;:&quot;e:1&quot;,&quot;signature&quot;:&quot;e:1&quot;,&quot;imageName&quot;:&quot;page-004.jpg&quot;,&quot;imageId&quot;:4,&quot;bounds&quot;:{&quot;x&quot;:1769,&quot;y&quot;:2717,&quot;w&quot;:51,&quot;h&quot;:45},&quot;atoms&quot;:[{&quot;id&quot;:5406,&quot;token&quot;:&quot;e:1&quot;,&quot;particle_id&quot;:&quot;img4-m87-p1&quot;,&quot;molecule_id&quot;:&quot;img4-m87&quot;,&quot;atom_order&quot;:1}]}</metadata>
  <rect x="0" y="0" width="51" height="45" fill="#f8f0d8"/>
  <image href="file:///C:/Users/HHHES/AppData/Roaming/com.voynichlab.datasetcreator/images/1/aff30327-ced8-4ab4-8c9b-190205ebe022.jpg" x="-1769" y="-2717" width="2804" height="3797" opacity="0.92"/>
  <rect x="0.5" y="0.5" width="50" height="44" fill="none" stroke="#111827" stroke-width="1" opacity="0.35"/>
  <polyline points="19,29 18,29 17,28 16,28 16,27 16,26 16,25 17,25 17,24 18,24 18,23 19,23 19,22 20,22 21,22 21,21 22,21 23,21 23,20 24,20 25,19 26,19 27,19 27,18 28,18 30,18 31,18 31,17 32,17 33,17 34,16 35,16" fill="none" stroke="#f2e45c" stroke-width="3" stroke-linecap="round" stroke-linejoin="round" opacity="0.95">
    <title>5406 e:1</title>
  </polyline>
</svg>
