<?xml version="1.0" encoding="UTF-8"?>
<svg xmlns="http://www.w3.org/2000/svg" width="52" height="55" viewBox="0 0 52 55">
  <title>n:1 distant-variant atom 3691</title>
  <rect x="0" y="0" width="52" height="55" fill="#17181b"/>
  <rect x="0.5" y="0.5" width="51" height="54" fill="none" stroke="#111827" stroke-width="1" opacity="0.35"/>
<polyline points="25,39 24,39 23,39 22,38 21,38 20,38 20,37 19,36 18,35 17,35 17,34 17,33 16,32 16,31 16,30 16,29 16,28 16,27 17,27 17,26 18,25 19,24 20,23 21,22 22,22 22,21 23,20 24,20 24,19 25,19 26,19 26,18 27,18 28,17 29,17 30,17 32,17 33,16 34,16 35,16 35,17 35,18 36,18 36,19 36,20 36,21 35,22 35,23 34,24 34,25 33,25 33,26 32,26 31,27 30,27 30,28 29,29 28,29 28,30 27,30" fill="none" stroke="#f92f59" stroke-width="3" stroke-linecap="round" stroke-linejoin="round" opacity="0.95">
    <title>3691 n:1</title>
  </polyline>
</svg>
