<?xml version="1.0" encoding="UTF-8"?>
<svg xmlns="http://www.w3.org/2000/svg" width="90" height="64" viewBox="0 0 90 64">
  <title>n:1 distant-variant atom 3669</title>
  <rect x="0" y="0" width="90" height="64" fill="#17181b"/>
  <rect x="0.5" y="0.5" width="89" height="63" fill="none" stroke="#111827" stroke-width="1" opacity="0.35"/>
<polyline points="16,43 24,37 25,36 26,36 26,35 27,35 31,33 32,32 33,32 34,31 35,30 36,30 37,29 38,28 39,28 40,27 41,26 42,25 43,25 44,24 45,23 46,23 47,22 48,22 49,22 50,21 52,20 53,20 53,19 54,19 55,18 56,18 57,18 58,17 59,17 60,17 60,16 61,16 62,16 63,16 64,16 65,16 66,16 67,16 67,17 68,17 69,17 69,18 70,18 70,19 71,20 71,21 72,21 72,22 73,23 73,24 73,25 74,26 74,27 74,28 74,29 74,30 74,31 74,32 74,33 74,34 73,35 73,36 72,37 72,38 70,39 70,40 69,41 68,42 68,43 67,44 66,45 65,45 64,46 63,47 62,48" fill="none" stroke="#f92f59" stroke-width="3" stroke-linecap="round" stroke-linejoin="round" opacity="0.95">
    <title>3669 n:1</title>
  </polyline>
</svg>
