<?xml version="1.0" encoding="UTF-8"?>
<svg xmlns="http://www.w3.org/2000/svg" width="50" height="60" viewBox="0 0 50 60">
  <title>n:1 closest-to-family-average atom 3781</title>
  <rect x="0" y="0" width="50" height="60" fill="#17181b"/>
  <rect x="0.5" y="0.5" width="49" height="59" fill="none" stroke="#111827" stroke-width="1" opacity="0.35"/>
<polyline points="18,32 17,32 17,31 17,30 16,30 16,29 16,28 16,27 16,26 16,25 16,24 17,23 17,22 17,21 18,21 18,20 18,19 19,19 20,19 21,18 22,17 23,17 24,16 25,16 26,16 27,16 28,16 29,16 29,17 30,17 31,18 32,18 32,19 33,19 33,20 34,20 34,21 34,22 34,23 34,24 34,25 34,26 34,27 34,28 33,29 33,30 33,31 32,32 32,33 31,33 31,34 31,35 31,36 30,36 30,37 29,38 29,39 28,39 28,40 27,41 27,42 26,43 26,44 25,44" fill="none" stroke="#f92f59" stroke-width="3" stroke-linecap="round" stroke-linejoin="round" opacity="0.95">
    <title>3781 n:1</title>
  </polyline>
</svg>
