<?xml version="1.0" encoding="UTF-8"?>
<svg xmlns="http://www.w3.org/2000/svg" width="45" height="53" viewBox="0 0 45 53">
  <title>atom 5355 f:1</title>
  <metadata>{&quot;entityType&quot;:&quot;atom&quot;,&quot;entityId&quot;:&quot;5355&quot;,&quot;token&quot;:&quot;f:1&quot;,&quot;signature&quot;:&quot;f:1&quot;,&quot;imageName&quot;:&quot;page-004.jpg&quot;,&quot;imageId&quot;:4,&quot;bounds&quot;:{&quot;x&quot;:978,&quot;y&quot;:2123,&quot;w&quot;:45,&quot;h&quot;:53},&quot;atoms&quot;:[{&quot;id&quot;:5355,&quot;token&quot;:&quot;f:1&quot;,&quot;particle_id&quot;:&quot;img4-m23-p3&quot;,&quot;molecule_id&quot;:&quot;img4-m23&quot;,&quot;atom_order&quot;:2}]}</metadata>
  <rect x="0" y="0" width="45" height="53" fill="#f8f0d8"/>
  <image href="file:///C:/Users/HHHES/AppData/Roaming/com.voynichlab.datasetcreator/images/1/aff30327-ced8-4ab4-8c9b-190205ebe022.jpg" x="-978" y="-2123" width="2804" height="3797" opacity="0.92"/>
  <rect x="0.5" y="0.5" width="44" height="52" fill="none" stroke="#111827" stroke-width="1" opacity="0.35"/>
  <polyline points="16,16 16,17 16,18 17,18 17,19 17,20 18,20 18,21 19,22 19,23 20,23 20,24 21,25 21,26 22,26 22,27 23,27 23,28 24,28 24,29 24,30 25,30 25,31 25,32 26,32 26,33 27,33 27,34 28,35 28,36 29,36 29,37" fill="none" stroke="#00a2ff" stroke-width="3" stroke-linecap="round" stroke-linejoin="round" opacity="0.95">
    <title>5355 f:1</title>
  </polyline>
</svg>
