<?xml version="1.0" encoding="UTF-8"?>
<svg xmlns="http://www.w3.org/2000/svg" width="74" height="41" viewBox="0 0 74 41">
  <title>i:1 distant-variant atom 3291</title>
  <rect x="0" y="0" width="74" height="41" fill="#17181b"/>
  <rect x="0.5" y="0.5" width="73" height="40" fill="none" stroke="#111827" stroke-width="1" opacity="0.35"/>
<polyline points="16,25 17,25 18,25 19,25 20,25 21,25 22,25 23,25 24,25 25,25 26,25 27,25 28,25 29,25 30,25 31,25 32,25 33,25 34,25 35,25 36,25 37,25 38,24 39,24 40,24 41,24 42,24 43,23 44,23 45,23 46,23 47,22 48,22 49,22 50,21 51,21 52,21 52,20 53,20 54,19 55,19 55,18 56,18 56,17 57,17 57,16 58,16" fill="none" stroke="#00ff7f" stroke-width="3" stroke-linecap="round" stroke-linejoin="round" opacity="0.95">
    <title>3291 i:1</title>
  </polyline>
</svg>
