<?xml version="1.0" encoding="UTF-8"?>
<svg xmlns="http://www.w3.org/2000/svg" width="49" height="63" viewBox="0 0 49 63">
  <title>i:1 near-average-variant atom 1176</title>
  <rect x="0" y="0" width="49" height="63" fill="#17181b"/>
  <rect x="0.5" y="0.5" width="48" height="62" fill="none" stroke="#111827" stroke-width="1" opacity="0.35"/>
<polyline points="16,47 17,47 18,47 18,46 19,46 20,46 20,45 21,45 22,45 22,44 23,44 24,43 25,43 25,42 26,42 27,41 28,40 28,39 29,39 29,38 30,38 30,37 30,36 31,35 31,34 31,33 32,32 32,31 32,30 32,29 32,28 33,28 33,27 33,26 33,25 33,24 33,23 33,22 33,21 32,21 32,20 32,19 32,18 31,18 31,17 31,16" fill="none" stroke="#00ff7f" stroke-width="3" stroke-linecap="round" stroke-linejoin="round" opacity="0.95">
    <title>1176 i:1</title>
  </polyline>
</svg>
