<?xml version="1.0" encoding="UTF-8"?>
<svg xmlns="http://www.w3.org/2000/svg" width="60" height="72" viewBox="0 0 60 72">
  <title>atom 5433 j:1</title>
  <metadata>{&quot;entityType&quot;:&quot;atom&quot;,&quot;entityId&quot;:&quot;5433&quot;,&quot;token&quot;:&quot;j:1&quot;,&quot;signature&quot;:&quot;j:1&quot;,&quot;imageName&quot;:&quot;page-004.jpg&quot;,&quot;imageId&quot;:4,&quot;bounds&quot;:{&quot;x&quot;:774,&quot;y&quot;:2559,&quot;w&quot;:60,&quot;h&quot;:72},&quot;atoms&quot;:[{&quot;id&quot;:5433,&quot;token&quot;:&quot;j:1&quot;,&quot;particle_id&quot;:&quot;img4-m66-p2&quot;,&quot;molecule_id&quot;:&quot;img4-m66&quot;,&quot;atom_order&quot;:2}]}</metadata>
  <rect x="0" y="0" width="60" height="72" fill="#f8f0d8"/>
  <image href="file:///C:/Users/HHHES/AppData/Roaming/com.voynichlab.datasetcreator/images/1/aff30327-ced8-4ab4-8c9b-190205ebe022.jpg" x="-774" y="-2559" width="2804" height="3797" opacity="0.92"/>
  <rect x="0.5" y="0.5" width="59" height="71" fill="none" stroke="#111827" stroke-width="1" opacity="0.35"/>
  <polyline points="27,27 27,26 28,26 28,25 29,25 29,24 30,24 30,23 31,23 32,22 33,21 34,20 35,20 35,19 36,19 37,18 38,18 38,17 39,17 40,17 41,16 42,16 43,16 44,16 44,17 44,18 44,19 43,19 43,20 43,21 42,23 42,24 41,25 41,26 41,27 40,28 40,29 39,30 38,31 38,32 38,33 37,34 37,35 36,35 36,36 35,37 35,38 34,39 33,40 33,41 32,41 31,42 31,43 30,44 29,44 29,45 28,46 27,47 26,48 25,49 24,50 23,51 23,52 22,52 21,53 20,53 20,54 19,54 19,55 18,55 17,56 16,56" fill="none" stroke="#4a9e6a" stroke-width="3" stroke-linecap="round" stroke-linejoin="round" opacity="0.95">
    <title>5433 j:1</title>
  </polyline>
</svg>
