<?xml version="1.0" encoding="UTF-8"?>
<svg xmlns="http://www.w3.org/2000/svg" width="55" height="68" viewBox="0 0 55 68">
  <title>atom 5479 j:1</title>
  <metadata>{&quot;entityType&quot;:&quot;atom&quot;,&quot;entityId&quot;:&quot;5479&quot;,&quot;token&quot;:&quot;j:1&quot;,&quot;signature&quot;:&quot;j:1&quot;,&quot;imageName&quot;:&quot;page-004.jpg&quot;,&quot;imageId&quot;:4,&quot;bounds&quot;:{&quot;x&quot;:1054,&quot;y&quot;:1916,&quot;w&quot;:55,&quot;h&quot;:68},&quot;atoms&quot;:[{&quot;id&quot;:5479,&quot;token&quot;:&quot;j:1&quot;,&quot;particle_id&quot;:&quot;img4-m3-p2&quot;,&quot;molecule_id&quot;:&quot;img4-m3&quot;,&quot;atom_order&quot;:2}]}</metadata>
  <rect x="0" y="0" width="55" height="68" fill="#f8f0d8"/>
  <image href="file:///C:/Users/HHHES/AppData/Roaming/com.voynichlab.datasetcreator/images/1/aff30327-ced8-4ab4-8c9b-190205ebe022.jpg" x="-1054" y="-1916" width="2804" height="3797" opacity="0.92"/>
  <rect x="0.5" y="0.5" width="54" height="67" fill="none" stroke="#111827" stroke-width="1" opacity="0.35"/>
  <polyline points="23,24 23,23 24,23 25,23 25,22 26,22 26,21 27,21 28,20 29,20 29,19 30,19 31,19 31,18 32,18 32,17 33,17 34,17 35,17 36,16 37,16 38,17 39,18 39,19 39,20 39,21 39,22 39,23 39,24 38,24 38,25 37,25 37,26 36,27 36,28 35,28 35,29 35,30 34,30 34,31 34,32 33,32 33,33 32,34 31,35 31,36 30,36 30,37 29,37 29,38 28,38 28,39 27,39 27,40 26,40 26,41 25,41 25,42 25,43 24,43 24,44 23,44 23,45 22,45 22,46 21,46 21,47 20,47 20,48 19,48 19,49 18,49 18,50 17,50 17,51 16,51 16,52" fill="none" stroke="#4a9e6a" stroke-width="3" stroke-linecap="round" stroke-linejoin="round" opacity="0.95">
    <title>5479 j:1</title>
  </polyline>
</svg>
