<?xml version="1.0" encoding="UTF-8"?>
<svg xmlns="http://www.w3.org/2000/svg" width="74" height="91" viewBox="0 0 74 91">
  <title>particle img94-m17-p2 a:1 b:1 c:1 a:1</title>
  <metadata>{&quot;entityType&quot;:&quot;particle&quot;,&quot;entityId&quot;:&quot;img94-m17-p2&quot;,&quot;token&quot;:&quot;a:1 b:1 c:1 a:1&quot;,&quot;signature&quot;:&quot;a:1 b:1 c:1 a:1&quot;,&quot;imageName&quot;:&quot;page-094.jpg&quot;,&quot;imageId&quot;:94,&quot;bounds&quot;:{&quot;x&quot;:1882,&quot;y&quot;:686,&quot;w&quot;:74,&quot;h&quot;:91},&quot;atoms&quot;:[{&quot;id&quot;:2815,&quot;token&quot;:&quot;a:1&quot;,&quot;particle_id&quot;:&quot;img94-m17-p2&quot;,&quot;molecule_id&quot;:&quot;img94-m17&quot;,&quot;atom_order&quot;:1},{&quot;id&quot;:2816,&quot;token&quot;:&quot;b:1&quot;,&quot;particle_id&quot;:&quot;img94-m17-p2&quot;,&quot;molecule_id&quot;:&quot;img94-m17&quot;,&quot;atom_order&quot;:2},{&quot;id&quot;:2794,&quot;token&quot;:&quot;c:1&quot;,&quot;particle_id&quot;:&quot;img94-m17-p2&quot;,&quot;molecule_id&quot;:&quot;img94-m17&quot;,&quot;atom_order&quot;:3},{&quot;id&quot;:2814,&quot;token&quot;:&quot;a:1&quot;,&quot;particle_id&quot;:&quot;img94-m17-p2&quot;,&quot;molecule_id&quot;:&quot;img94-m17&quot;,&quot;atom_order&quot;:4}]}</metadata>
  <rect x="0" y="0" width="74" height="91" fill="#f8f0d8"/>
  <image href="file:///C:/Users/HHHES/AppData/Roaming/com.voynichlab.datasetcreator/images/1/33b1988f-7aaa-4207-bfa8-f26b742ac4b1.jpg" x="-1882" y="-686" width="2932" height="3769" opacity="0.92"/>
  <rect x="0.5" y="0.5" width="73" height="90" fill="none" stroke="#111827" stroke-width="1" opacity="0.35"/>
  <polyline points="16,73 16,72 17,71 17,70 17,69 17,68 17,67 17,66 17,65 17,64 17,63 17,62 18,62 18,61 18,60 18,59 18,58 18,57 18,56 19,56 19,55 19,54 19,53 19,52 20,51 20,50 20,49 20,48 20,47 20,46 20,45 20,44 20,43 20,42 20,41 20,40 21,40 21,39 21,38 21,37 21,36 21,35 21,34 21,33 21,32 22,32 22,31 22,30 22,29 22,28 22,27 23,27 23,26 23,25 23,24 23,23 24,23 24,22 24,21 24,20 24,19 25,19 25,18 25,17 25,16" fill="none" stroke="#00f0b5" stroke-width="3" stroke-linecap="round" stroke-linejoin="round" opacity="0.95">
    <title>2815 a:1</title>
  </polyline>
  <polyline points="23,25 23,26 23,27 23,28 23,29 24,29 24,30 24,31 25,31 26,32 27,32 27,33 28,33 29,34 30,34 31,34 31,35 32,35 33,35 34,35 34,36 35,36 36,36 37,36 38,36 39,36 39,37 40,37 41,37 42,37 43,37 44,37 45,37 46,37 47,37 47,36 48,36 49,36 50,36 51,36 51,35 52,35 53,35 53,34 54,34 55,33 56,33 56,32 57,32" fill="none" stroke="#2f7df6" stroke-width="3" stroke-linecap="round" stroke-linejoin="round" opacity="0.95">
    <title>2816 b:1</title>
  </polyline>
  <polyline points="40,22 40,23 39,23 39,24 39,25 38,25 38,26 38,27 38,28 38,29 38,30 38,31 38,32 39,32 39,33 40,33 40,34 41,35 42,35 43,35 44,35 44,36 45,36 46,36 47,36 48,36 49,36 50,36 51,36 52,36 52,35 53,35 54,35 54,34 54,33 55,33 55,32 56,32 56,31 56,30 57,30 57,29 57,28 58,28 58,27 58,26 58,25 58,24 58,23 58,22 57,22 57,21 57,20 56,20 56,19 55,19 55,18 54,18 54,17 53,17 52,17 52,16 51,16 50,16 49,16 48,16 47,16 46,16 45,16 44,17 43,17 43,18 42,18 42,19 41,19 40,19 40,20 39,20 39,21 39,22" fill="none" stroke="#8aff00" stroke-width="3" stroke-linecap="round" stroke-linejoin="round" opacity="0.95">
    <title>2794 c:1</title>
  </polyline>
  <polyline points="30,75 31,74 31,73 31,72 31,71 31,70 31,69 31,68 31,67 32,67 32,66 32,65 32,64 32,63 33,62 33,61 33,60 33,59 34,59 34,58 34,57 34,56 34,55 34,54 35,54 35,53 35,52 35,51 36,50 36,49 36,48 36,46 36,45 37,44 37,43 37,42 37,41 37,40 37,39 37,38 37,37 37,36 37,35 37,34 37,33 38,33 38,32 38,31 38,30 38,29 38,28 38,27 39,26 39,25 39,24" fill="none" stroke="#00f0b5" stroke-width="3" stroke-linecap="round" stroke-linejoin="round" opacity="0.95">
    <title>2814 a:1</title>
  </polyline>
</svg>
