<?xml version="1.0" encoding="UTF-8"?>
<svg xmlns="http://www.w3.org/2000/svg" width="103" height="119" viewBox="0 0 103 119">
  <title>particle img94-m80-p5 a:1 e:1 b:1 c:1 a:1</title>
  <metadata>{&quot;entityType&quot;:&quot;particle&quot;,&quot;entityId&quot;:&quot;img94-m80-p5&quot;,&quot;token&quot;:&quot;a:1 e:1 b:1 c:1 a:1&quot;,&quot;signature&quot;:&quot;a:1 e:1 b:1 c:1 a:1&quot;,&quot;imageName&quot;:&quot;page-094.jpg&quot;,&quot;imageId&quot;:94,&quot;bounds&quot;:{&quot;x&quot;:1380,&quot;y&quot;:2885,&quot;w&quot;:103,&quot;h&quot;:119},&quot;atoms&quot;:[{&quot;id&quot;:4553,&quot;token&quot;:&quot;a:1&quot;,&quot;particle_id&quot;:&quot;img94-m80-p5&quot;,&quot;molecule_id&quot;:&quot;img94-m80&quot;,&quot;atom_order&quot;:1},{&quot;id&quot;:4624,&quot;token&quot;:&quot;e:1&quot;,&quot;particle_id&quot;:&quot;img94-m80-p5&quot;,&quot;molecule_id&quot;:&quot;img94-m80&quot;,&quot;atom_order&quot;:2},{&quot;id&quot;:4625,&quot;token&quot;:&quot;b:1&quot;,&quot;particle_id&quot;:&quot;img94-m80-p5&quot;,&quot;molecule_id&quot;:&quot;img94-m80&quot;,&quot;atom_order&quot;:3},{&quot;id&quot;:4515,&quot;token&quot;:&quot;c:1&quot;,&quot;particle_id&quot;:&quot;img94-m80-p5&quot;,&quot;molecule_id&quot;:&quot;img94-m80&quot;,&quot;atom_order&quot;:4},{&quot;id&quot;:4551,&quot;token&quot;:&quot;a:1&quot;,&quot;particle_id&quot;:&quot;img94-m80-p5&quot;,&quot;molecule_id&quot;:&quot;img94-m80&quot;,&quot;atom_order&quot;:5}]}</metadata>
  <rect x="0" y="0" width="103" height="119" fill="#f8f0d8"/>
  <image href="file:///C:/Users/HHHES/AppData/Roaming/com.voynichlab.datasetcreator/images/1/33b1988f-7aaa-4207-bfa8-f26b742ac4b1.jpg" x="-1380" y="-2885" width="2932" height="3769" opacity="0.92"/>
  <rect x="0.5" y="0.5" width="102" height="118" fill="none" stroke="#111827" stroke-width="1" opacity="0.35"/>
  <polyline points="36,102 36,101 37,100 37,99 37,98 37,97 37,96 38,95 38,94 38,93 38,92 38,91 38,90 37,90 37,89 37,88 37,87 37,86 37,85 37,84 37,83 37,82 37,81 37,80 37,79 37,78 37,77 37,76 37,75 37,74 37,73 37,72 37,71 37,70 37,69 38,68 38,67 38,66 38,65 38,64 38,63 39,62 39,61 39,60 39,59 39,58 39,57 39,56 39,55 39,54 39,53 39,52 39,51 40,50 40,49 40,48 40,47 40,46 40,45 40,44 40,43 40,42 40,41 40,40 40,39 40,38 40,37 40,36 40,35 40,34 40,33 40,32 40,31 40,30 40,29 40,28 40,27 40,26 40,25" fill="none" stroke="#00f0b5" stroke-width="3" stroke-linecap="round" stroke-linejoin="round" opacity="0.95">
    <title>4553 a:1</title>
  </polyline>
  <polyline points="40,24 39,24 38,24 37,24 37,25 36,25 35,25 34,26 33,26 32,26 31,27 30,27 29,27 28,28 27,28 26,29 25,29 25,30 24,30 23,30 22,31 21,31 21,32 20,32 20,33 19,33 19,34 19,35 18,35 18,36 17,36 17,37 17,38 16,39 16,40 16,41 16,42 16,43 17,43 17,44 18,44 19,45 20,45 21,45 22,46 23,47 24,47" fill="none" stroke="#f2e45c" stroke-width="3" stroke-linecap="round" stroke-linejoin="round" opacity="0.95">
    <title>4624 e:1</title>
  </polyline>
  <polyline points="19,44 20,44 21,44 22,44 22,45 23,45 24,45 25,45 25,46 26,46 27,46 28,46 29,46 30,46 32,46 33,46 34,47 35,47 36,47 37,47 38,47 39,47 40,47 41,46 42,46 43,46 44,46 45,46 46,46 47,46 48,46 50,46 51,45 53,45 55,45 57,44 58,44 59,44 61,44 63,43 65,43 67,43 69,42 70,42 72,42 74,42 75,41 77,40 79,39 81,38 83,38 84,37" fill="none" stroke="#2f7df6" stroke-width="3" stroke-linecap="round" stroke-linejoin="round" opacity="0.95">
    <title>4625 b:1</title>
  </polyline>
  <polyline points="57,40 57,41 56,41 56,42 57,42 58,42 59,42 60,42 61,42 63,41 64,41 66,41 68,41 70,41 71,41 72,40 73,40 74,40 76,39 77,39 78,38 79,38 80,37 81,37 82,36 82,35 83,35 83,34 84,34 84,33 85,33 85,32 86,31 86,30 86,29 87,29 87,28 87,27 87,26 87,25 86,24 86,23 85,22 84,22 84,21 83,21 82,20 81,19 80,19 79,18 78,18 77,17 76,17 74,17 73,16 72,16 71,16 70,16 69,16 68,16 67,16 67,17 66,17 65,17 65,18 64,18 63,18 62,19 61,19 61,20 60,21 59,22 59,23 58,23 58,24 57,25 57,26 57,27 56,28 56,29 56,30 56,31 56,32 56,33 56,34 56,36 56,37 56,38 56,39 56,40 57,40 57,41 58,41 58,42 59,42" fill="none" stroke="#8aff00" stroke-width="3" stroke-linecap="round" stroke-linejoin="round" opacity="0.95">
    <title>4515 c:1</title>
  </polyline>
  <polyline points="57,40 57,41 57,42 57,44 57,45 57,46 57,47 57,48 56,49 56,50 56,51 56,53 56,54 56,56 56,57 56,58 56,59 56,60 56,61 56,62 56,63 56,64 56,66 56,67 56,68 56,69 56,70 56,71 56,72 56,73 56,74 56,75 56,76 56,77 56,78 56,79 56,81 56,82 56,84 56,85 56,86 56,87 56,88 56,89 56,90 57,91 57,92 57,93 57,94 57,95 57,97 57,98 57,99 57,100 57,101 57,102 57,103" fill="none" stroke="#00f0b5" stroke-width="3" stroke-linecap="round" stroke-linejoin="round" opacity="0.95">
    <title>4551 a:1</title>
  </polyline>
</svg>
