<?xml version="1.0" encoding="UTF-8"?>
<svg xmlns="http://www.w3.org/2000/svg" width="67" height="79" viewBox="0 0 67 79">
  <title>particle img94-m43-p3 f:1 j:1</title>
  <metadata>{&quot;entityType&quot;:&quot;particle&quot;,&quot;entityId&quot;:&quot;img94-m43-p3&quot;,&quot;token&quot;:&quot;f:1 j:1&quot;,&quot;signature&quot;:&quot;f:1 j:1&quot;,&quot;imageName&quot;:&quot;page-094.jpg&quot;,&quot;imageId&quot;:94,&quot;bounds&quot;:{&quot;x&quot;:1615,&quot;y&quot;:2518,&quot;w&quot;:67,&quot;h&quot;:79},&quot;atoms&quot;:[{&quot;id&quot;:4317,&quot;token&quot;:&quot;f:1&quot;,&quot;particle_id&quot;:&quot;img94-m43-p3&quot;,&quot;molecule_id&quot;:&quot;img94-m43&quot;,&quot;atom_order&quot;:1},{&quot;id&quot;:4335,&quot;token&quot;:&quot;j:1&quot;,&quot;particle_id&quot;:&quot;img94-m43-p3&quot;,&quot;molecule_id&quot;:&quot;img94-m43&quot;,&quot;atom_order&quot;:2}]}</metadata>
  <rect x="0" y="0" width="67" height="79" fill="#f8f0d8"/>
  <image href="file:///C:/Users/HHHES/AppData/Roaming/com.voynichlab.datasetcreator/images/1/33b1988f-7aaa-4207-bfa8-f26b742ac4b1.jpg" x="-1615" y="-2518" width="2932" height="3769" opacity="0.92"/>
  <rect x="0.5" y="0.5" width="66" height="78" fill="none" stroke="#111827" stroke-width="1" opacity="0.35"/>
  <polyline points="29,27 29,28 29,29 30,29 30,30 30,31 31,31 31,32 32,33 32,34 33,34 33,35 34,36 34,37 35,37 35,38 36,38 36,39 37,39 37,40 37,41 38,41 38,42 38,43 39,43 39,44 40,44 40,45 41,46 41,47 42,47 42,48" fill="none" stroke="#00a2ff" stroke-width="3" stroke-linecap="round" stroke-linejoin="round" opacity="0.95">
    <title>4317 f:1</title>
  </polyline>
  <polyline points="29,27 29,28 29,27 30,26 30,25 30,24 31,24 31,23 32,22 32,21 33,21 34,20 35,19 36,19 36,18 37,18 38,18 38,17 39,17 40,17 41,17 42,17 43,16 44,16 45,16 46,16 47,16 48,17 49,17 49,18 50,19 50,20 51,20 51,21 51,22 51,23 51,24 51,25 51,26 51,27 50,28 50,29 49,30 49,31 48,31 48,32 47,33 46,33 46,34 45,34 44,35 44,36 43,36 42,37 42,38 41,38 41,39 40,39 39,40 39,41 38,42 37,42 37,43 36,44 35,44 34,45 33,46 32,46 32,47 31,48 30,49 29,49 29,50 28,51 27,51 27,52 26,52 26,53 26,54 25,54 25,55 24,56 24,57 23,57 22,58 22,59 21,59 21,60 20,60 20,61 19,61 18,61 18,62 17,62 16,62 16,63" fill="none" stroke="#4a9e6a" stroke-width="3" stroke-linecap="round" stroke-linejoin="round" opacity="0.95">
    <title>4335 j:1</title>
  </polyline>
</svg>
