<?xml version="1.0" encoding="UTF-8"?>
<svg xmlns="http://www.w3.org/2000/svg" width="83" height="96" viewBox="0 0 83 96">
  <title>particle img94-m42-p3 l:1 f:1 j:1 d:1</title>
  <metadata>{&quot;entityType&quot;:&quot;particle&quot;,&quot;entityId&quot;:&quot;img94-m42-p3&quot;,&quot;token&quot;:&quot;l:1 f:1 j:1 d:1&quot;,&quot;signature&quot;:&quot;l:1 f:1 j:1 d:1&quot;,&quot;imageName&quot;:&quot;page-094.jpg&quot;,&quot;imageId&quot;:94,&quot;bounds&quot;:{&quot;x&quot;:1134,&quot;y&quot;:2412,&quot;w&quot;:83,&quot;h&quot;:96},&quot;atoms&quot;:[{&quot;id&quot;:4257,&quot;token&quot;:&quot;l:1&quot;,&quot;particle_id&quot;:&quot;img94-m42-p3&quot;,&quot;molecule_id&quot;:&quot;img94-m42&quot;,&quot;atom_order&quot;:1},{&quot;id&quot;:4253,&quot;token&quot;:&quot;f:1&quot;,&quot;particle_id&quot;:&quot;img94-m42-p3&quot;,&quot;molecule_id&quot;:&quot;img94-m42&quot;,&quot;atom_order&quot;:2},{&quot;id&quot;:4258,&quot;token&quot;:&quot;j:1&quot;,&quot;particle_id&quot;:&quot;img94-m42-p3&quot;,&quot;molecule_id&quot;:&quot;img94-m42&quot;,&quot;atom_order&quot;:3},{&quot;id&quot;:4259,&quot;token&quot;:&quot;d:1&quot;,&quot;particle_id&quot;:&quot;img94-m42-p3&quot;,&quot;molecule_id&quot;:&quot;img94-m42&quot;,&quot;atom_order&quot;:4}]}</metadata>
  <rect x="0" y="0" width="83" height="96" fill="#f8f0d8"/>
  <image href="file:///C:/Users/HHHES/AppData/Roaming/com.voynichlab.datasetcreator/images/1/33b1988f-7aaa-4207-bfa8-f26b742ac4b1.jpg" x="-1134" y="-2412" width="2932" height="3769" opacity="0.92"/>
  <rect x="0.5" y="0.5" width="82" height="95" fill="none" stroke="#111827" stroke-width="1" opacity="0.35"/>
  <polyline points="17,61 18,62 19,63 19,64 19,65 20,65 20,66 20,67 21,67 21,68 21,69 22,69 22,70 23,70 23,71 24,72 25,73 25,74 26,74 26,75 26,76 27,76 27,77 28,77 28,78 29,78 30,77 31,77 32,76 33,76 33,75 34,75 34,74 35,73 36,72 37,71 37,70 38,70 38,69 39,68 40,68 40,67 41,67 41,66 42,65 42,64 43,64 43,63 44,63 44,62 45,62 45,61 45,60 46,60 46,59" fill="none" stroke="#ff5f1f" stroke-width="3" stroke-linecap="round" stroke-linejoin="round" opacity="0.95">
    <title>4257 l:1</title>
  </polyline>
  <polyline points="45,59 45,60 45,61 46,61 46,62 46,63 47,63 47,64 48,65 48,66 49,66 49,67 50,68 50,69 51,69 51,70 52,70 52,71 53,71 53,72 53,73 54,73 54,74 54,75 55,75 55,76 56,76 56,77 57,78 57,79 58,79 58,80" fill="none" stroke="#00a2ff" stroke-width="3" stroke-linecap="round" stroke-linejoin="round" opacity="0.95">
    <title>4253 f:1</title>
  </polyline>
  <polyline points="45,60 46,60 46,61 47,61 48,61 49,61 50,61 51,61 52,60 53,60 54,59 55,59 56,59 56,58 57,58 58,57 59,57 59,56 60,56 60,55 61,55 61,54 62,54 62,53 63,53 63,52 64,52 64,51 65,51 65,50 65,49 65,48 66,48 66,47 66,46 66,45 66,44 66,43 66,42 66,41 67,40 67,39 67,38 67,37 67,36 66,36 66,35 66,34 65,34 65,33 65,32 64,32 63,31 63,30 62,30 61,30 60,29 59,28 58,28 58,27 57,27 56,26 55,26 54,26 54,25 53,25" fill="none" stroke="#4a9e6a" stroke-width="3" stroke-linecap="round" stroke-linejoin="round" opacity="0.95">
    <title>4258 j:1</title>
  </polyline>
  <polyline points="16,20 17,20 18,19 19,19 19,18 20,18 21,18 22,17 23,17 24,17 25,17 26,17 27,16 28,16 29,16 30,16 31,16 33,17 34,17 35,17 36,17 37,17 38,17 39,17 40,17 41,17 42,17 42,18 43,18 44,18 45,19 46,19 47,20 48,20 49,20 50,21 51,22 52,22 52,23 53,23 54,23 54,24 55,24 55,25 56,25 56,26 57,26 57,27 58,27 58,28" fill="none" stroke="#ff2d55" stroke-width="3" stroke-linecap="round" stroke-linejoin="round" opacity="0.95">
    <title>4259 d:1</title>
  </polyline>
</svg>
