<?xml version="1.0" encoding="UTF-8"?>
<svg xmlns="http://www.w3.org/2000/svg" width="67" height="81" viewBox="0 0 67 81">
  <title>particle img94-m33-p3 f:1 i:1 d:1</title>
  <metadata>{&quot;entityType&quot;:&quot;particle&quot;,&quot;entityId&quot;:&quot;img94-m33-p3&quot;,&quot;token&quot;:&quot;f:1 i:1 d:1&quot;,&quot;signature&quot;:&quot;f:1 i:1 d:1&quot;,&quot;imageName&quot;:&quot;page-094.jpg&quot;,&quot;imageId&quot;:94,&quot;bounds&quot;:{&quot;x&quot;:1416,&quot;y&quot;:860,&quot;w&quot;:67,&quot;h&quot;:81},&quot;atoms&quot;:[{&quot;id&quot;:2962,&quot;token&quot;:&quot;f:1&quot;,&quot;particle_id&quot;:&quot;img94-m33-p3&quot;,&quot;molecule_id&quot;:&quot;img94-m33&quot;,&quot;atom_order&quot;:1},{&quot;id&quot;:2976,&quot;token&quot;:&quot;i:1&quot;,&quot;particle_id&quot;:&quot;img94-m33-p3&quot;,&quot;molecule_id&quot;:&quot;img94-m33&quot;,&quot;atom_order&quot;:2},{&quot;id&quot;:2977,&quot;token&quot;:&quot;d:1&quot;,&quot;particle_id&quot;:&quot;img94-m33-p3&quot;,&quot;molecule_id&quot;:&quot;img94-m33&quot;,&quot;atom_order&quot;:3}]}</metadata>
  <rect x="0" y="0" width="67" height="81" fill="#f8f0d8"/>
  <image href="file:///C:/Users/HHHES/AppData/Roaming/com.voynichlab.datasetcreator/images/1/33b1988f-7aaa-4207-bfa8-f26b742ac4b1.jpg" x="-1416" y="-860" width="2932" height="3769" opacity="0.92"/>
  <rect x="0.5" y="0.5" width="66" height="80" fill="none" stroke="#111827" stroke-width="1" opacity="0.35"/>
  <polyline points="26,44 26,45 26,46 27,46 27,47 27,48 28,48 28,49 29,50 29,51 30,51 30,52 31,53 31,54 32,54 32,55 33,55 33,56 34,56 34,57 34,58 35,58 35,59 35,60 36,60 36,61 37,61 37,62 38,63 38,64 39,64 39,65" fill="none" stroke="#00a2ff" stroke-width="3" stroke-linecap="round" stroke-linejoin="round" opacity="0.95">
    <title>2962 f:1</title>
  </polyline>
  <polyline points="26,44 27,45 28,45 29,45 30,45 31,45 32,45 33,45 34,45 35,45 36,45 37,45 38,45 39,44 40,44 41,44 41,43 42,43 43,42 44,42 44,41 45,41 45,40 46,40 46,39 47,39 47,38 48,38 48,37 49,37 49,36 49,35 50,35 50,34 51,33 51,32 51,31 51,30 51,29 51,28 51,27 51,26 51,25 50,24 50,23 49,23 49,22 49,21 48,21" fill="none" stroke="#00ff7f" stroke-width="3" stroke-linecap="round" stroke-linejoin="round" opacity="0.95">
    <title>2976 i:1</title>
  </polyline>
  <polyline points="16,25 16,24 17,24 17,23 18,23 18,22 19,22 19,21 20,21 21,21 21,20 22,20 23,19 24,19 24,18 25,18 26,18 26,17 27,17 28,17 29,17 29,16 30,16 31,16 32,16 33,16 34,16 35,16 36,16 37,16 38,16 39,16 40,16 40,17 41,17 42,17 43,17 43,18 44,18 45,18 45,19 46,19 47,19 47,20 47,21 48,21" fill="none" stroke="#ff2d55" stroke-width="3" stroke-linecap="round" stroke-linejoin="round" opacity="0.95">
    <title>2977 d:1</title>
  </polyline>
</svg>
