<?xml version="1.0" encoding="UTF-8"?>
<svg xmlns="http://www.w3.org/2000/svg" width="111" height="76" viewBox="0 0 111 76">
  <title>particle img94-m48-p2 e:1 k:1 f:1 i:1 d:1</title>
  <metadata>{&quot;entityType&quot;:&quot;particle&quot;,&quot;entityId&quot;:&quot;img94-m48-p2&quot;,&quot;token&quot;:&quot;e:1 k:1 f:1 i:1 d:1&quot;,&quot;signature&quot;:&quot;e:1 k:1 f:1 i:1 d:1&quot;,&quot;imageName&quot;:&quot;page-094.jpg&quot;,&quot;imageId&quot;:94,&quot;bounds&quot;:{&quot;x&quot;:1655,&quot;y&quot;:2569,&quot;w&quot;:111,&quot;h&quot;:76},&quot;atoms&quot;:[{&quot;id&quot;:5503,&quot;token&quot;:&quot;e:1&quot;,&quot;particle_id&quot;:&quot;img94-m48-p2&quot;,&quot;molecule_id&quot;:&quot;img94-m48&quot;,&quot;atom_order&quot;:1},{&quot;id&quot;:4377,&quot;token&quot;:&quot;k:1&quot;,&quot;particle_id&quot;:&quot;img94-m48-p2&quot;,&quot;molecule_id&quot;:&quot;img94-m48&quot;,&quot;atom_order&quot;:2},{&quot;id&quot;:4374,&quot;token&quot;:&quot;f:1&quot;,&quot;particle_id&quot;:&quot;img94-m48-p2&quot;,&quot;molecule_id&quot;:&quot;img94-m48&quot;,&quot;atom_order&quot;:3},{&quot;id&quot;:4375,&quot;token&quot;:&quot;i:1&quot;,&quot;particle_id&quot;:&quot;img94-m48-p2&quot;,&quot;molecule_id&quot;:&quot;img94-m48&quot;,&quot;atom_order&quot;:4},{&quot;id&quot;:4376,&quot;token&quot;:&quot;d:1&quot;,&quot;particle_id&quot;:&quot;img94-m48-p2&quot;,&quot;molecule_id&quot;:&quot;img94-m48&quot;,&quot;atom_order&quot;:5}]}</metadata>
  <rect x="0" y="0" width="111" height="76" fill="#f8f0d8"/>
  <image href="file:///C:/Users/HHHES/AppData/Roaming/com.voynichlab.datasetcreator/images/1/33b1988f-7aaa-4207-bfa8-f26b742ac4b1.jpg" x="-1655" y="-2569" width="2932" height="3769" opacity="0.92"/>
  <rect x="0.5" y="0.5" width="110" height="75" fill="none" stroke="#111827" stroke-width="1" opacity="0.35"/>
  <polyline points="31,55 31,56 30,56 30,57 29,57 28,57 28,58 27,58 26,58 25,58 24,58 23,58 22,58 21,58 21,57 20,57 19,57 18,57 18,56 17,56 16,56 16,55 16,54 16,53 16,52 16,51 16,50 16,49 17,49 17,48 17,47 17,46 18,46 18,45 18,44 19,44 19,43 19,42 20,42 21,42 21,41 22,41 22,40 23,40 24,40 24,39 25,39 26,39 27,39 27,38" fill="none" stroke="#f2e45c" stroke-width="3" stroke-linecap="round" stroke-linejoin="round" opacity="0.95">
    <title>5503 e:1</title>
  </polyline>
  <polyline points="26,38 26,39 27,39 27,40 28,40 29,41 29,42 30,42 31,43 31,44 32,44 32,45 32,46 33,46 33,47 33,48 34,48 34,49 34,50 34,51 35,51 35,52 36,52 36,53 36,54 37,54 38,55 38,56 39,56 40,56 40,55 40,54 41,54 41,53 42,52 42,51 43,51 43,50 43,49 44,48 44,47 45,46 46,45 46,44 47,44 47,43 47,42 48,42 48,41 49,40 49,39 49,38 50,38 50,37 50,36 51,36 51,37 51,38 52,40 52,41 52,42 52,43 53,44 53,45 53,46 53,47 54,47 54,48 54,49 55,49 55,50 56,50 56,51 57,51 57,52 58,52 58,53 59,53 59,54 60,54 60,55 61,55 61,54 62,54 62,53 62,52 63,52 63,51 64,50 65,49 65,48 66,48 66,47 67,46 68,45 68,44 69,43 69,42 70,42 71,41 72,41 72,40 73,40 74,39" fill="none" stroke="#ffffff" stroke-width="3" stroke-linecap="round" stroke-linejoin="round" opacity="0.95">
    <title>4377 k:1</title>
  </polyline>
  <polyline points="74,39 74,40 74,41 75,41 75,42 75,43 76,43 76,44 77,45 77,46 78,46 78,47 79,48 79,49 80,49 80,50 81,50 81,51 82,51 82,52 82,53 83,53 83,54 83,55 84,55 84,56 85,56 85,57 86,58 86,59 87,59 87,60" fill="none" stroke="#00a2ff" stroke-width="3" stroke-linecap="round" stroke-linejoin="round" opacity="0.95">
    <title>4374 f:1</title>
  </polyline>
  <polyline points="86,60 87,59 88,59 88,58 89,57 90,57 90,56 91,56 91,55 91,54 92,54 92,53 92,52 93,52 93,51 93,50 94,49 94,48 94,47 94,46 94,45 94,44 95,43 95,42 95,41 95,40 95,39 95,38 95,37 95,36 95,35 95,34 95,33 95,32 95,31 95,30 95,29 95,28 95,27 95,26 94,25 93,24 93,23 92,23 91,22 90,22 90,21 89,21 88,20 86,20 85,19 84,19 83,18 82,18" fill="none" stroke="#00ff7f" stroke-width="3" stroke-linecap="round" stroke-linejoin="round" opacity="0.95">
    <title>4375 i:1</title>
  </polyline>
  <polyline points="41,19 42,18 43,18 44,18 46,17 47,17 48,17 49,17 50,17 52,17 53,17 54,16 55,16 56,16 57,16 59,16 60,16 61,16 62,16 63,16 65,16 66,16 67,16 68,16 69,17 71,17 72,17 74,17 75,17 76,17 77,17 78,17 80,17 80,18 81,18 82,18 83,18 84,19" fill="none" stroke="#ff2d55" stroke-width="3" stroke-linecap="round" stroke-linejoin="round" opacity="0.95">
    <title>4376 d:1</title>
  </polyline>
</svg>
