<?xml version="1.0" encoding="UTF-8"?>
<svg xmlns="http://www.w3.org/2000/svg" width="95" height="101" viewBox="0 0 95 101">
  <title>particle img94-m25-p2 a:1 e:1 b:1 c:1 a:1</title>
  <metadata>{&quot;entityType&quot;:&quot;particle&quot;,&quot;entityId&quot;:&quot;img94-m25-p2&quot;,&quot;token&quot;:&quot;a:1 e:1 b:1 c:1 a:1&quot;,&quot;signature&quot;:&quot;a:1 e:1 b:1 c:1 a:1&quot;,&quot;imageName&quot;:&quot;page-094.jpg&quot;,&quot;imageId&quot;:94,&quot;bounds&quot;:{&quot;x&quot;:891,&quot;y&quot;:760,&quot;w&quot;:95,&quot;h&quot;:101},&quot;atoms&quot;:[{&quot;id&quot;:2852,&quot;token&quot;:&quot;a:1&quot;,&quot;particle_id&quot;:&quot;img94-m25-p2&quot;,&quot;molecule_id&quot;:&quot;img94-m25&quot;,&quot;atom_order&quot;:1},{&quot;id&quot;:2857,&quot;token&quot;:&quot;e:1&quot;,&quot;particle_id&quot;:&quot;img94-m25-p2&quot;,&quot;molecule_id&quot;:&quot;img94-m25&quot;,&quot;atom_order&quot;:2},{&quot;id&quot;:2854,&quot;token&quot;:&quot;b:1&quot;,&quot;particle_id&quot;:&quot;img94-m25-p2&quot;,&quot;molecule_id&quot;:&quot;img94-m25&quot;,&quot;atom_order&quot;:3},{&quot;id&quot;:2855,&quot;token&quot;:&quot;c:1&quot;,&quot;particle_id&quot;:&quot;img94-m25-p2&quot;,&quot;molecule_id&quot;:&quot;img94-m25&quot;,&quot;atom_order&quot;:4},{&quot;id&quot;:2853,&quot;token&quot;:&quot;a:1&quot;,&quot;particle_id&quot;:&quot;img94-m25-p2&quot;,&quot;molecule_id&quot;:&quot;img94-m25&quot;,&quot;atom_order&quot;:5}]}</metadata>
  <rect x="0" y="0" width="95" height="101" fill="#f8f0d8"/>
  <image href="file:///C:/Users/HHHES/AppData/Roaming/com.voynichlab.datasetcreator/images/1/33b1988f-7aaa-4207-bfa8-f26b742ac4b1.jpg" x="-891" y="-760" width="2932" height="3769" opacity="0.92"/>
  <rect x="0.5" y="0.5" width="94" height="100" fill="none" stroke="#111827" stroke-width="1" opacity="0.35"/>
  <polyline points="36,82 36,81 36,80 36,79 36,78 36,77 36,76 36,75 36,74 36,73 36,72 36,71 36,70 36,69 36,68 36,67 36,66 36,65 36,64 36,63 36,62 36,61 36,60 36,59 36,58 36,57 36,56 36,55 36,54 35,53 35,52 35,51 35,50 35,49 35,48 35,47 35,46 35,45 35,44 35,43 35,42 35,41 35,40 35,39 35,38 35,37 35,36 35,35 35,34 35,33 35,32 34,32 34,31 34,30 34,29 34,28 34,27 34,26 33,26 33,25 33,24 33,23 33,22 32,21 32,20 32,19" fill="none" stroke="#00f0b5" stroke-width="3" stroke-linecap="round" stroke-linejoin="round" opacity="0.95">
    <title>2852 a:1</title>
  </polyline>
  <polyline points="21,43 21,42 20,42 19,42 19,41 18,41 18,40 18,39 17,39 17,38 17,37 16,37 16,36 16,35 16,34 16,33 17,32 17,31 18,30 18,29 19,29 19,28 19,27 20,27 20,26 21,26 21,25 22,25 22,24 23,24 23,23 24,23 25,22 26,22 26,21 27,21 28,21 28,20 29,20 30,20 31,20 31,19 32,19" fill="none" stroke="#f2e45c" stroke-width="3" stroke-linecap="round" stroke-linejoin="round" opacity="0.95">
    <title>2857 e:1</title>
  </polyline>
  <polyline points="19,40 20,41 21,41 21,42 22,42 23,42 23,43 24,43 25,43 25,44 26,44 27,44 28,44 29,44 30,44 31,45 32,45 33,45 34,45 35,45 36,45 37,45 38,45 39,45 40,45 41,45 42,45 43,45 44,45 45,45 46,45 47,45 48,45 49,45 50,45 51,45 52,44 53,44 54,44 55,44 56,44 56,43 57,43 58,43 59,43 59,42 60,42 61,42 62,42 62,41 63,41 64,41 64,40 65,40 66,40 67,40 67,39 68,39 69,39 69,39 70,39 70,39 72,39 73,38 74,38 74,37 75,36 76,36 76,35" fill="none" stroke="#2f7df6" stroke-width="3" stroke-linecap="round" stroke-linejoin="round" opacity="0.95">
    <title>2854 b:1</title>
  </polyline>
  <polyline points="76,34 77,34 77,33 78,33 78,32 78,31 79,31 79,30 79,29 79,28 79,27 79,26 79,25 79,24 79,23 78,23 78,22 78,21 77,20 77,19 76,19 75,18 74,18 73,18 73,17 72,17 71,17 71,16 70,16 69,16 68,16 67,16 66,16 65,16 64,16 63,16 63,17 62,17 61,17 61,18 60,18 59,19 58,20 58,21 57,21 57,22 56,22 56,23 56,24 56,25 55,25 55,26 55,27 55,28 55,29 55,30 55,31 56,31 56,32 56,33 57,33 58,34 59,34 59,35 60,35 61,35 61,36 62,36 63,36 64,36 65,36 65,37 66,37 67,37 68,37 69,37 70,37 71,37 72,37 73,37 74,37 74,36 75,36 75,35 76,35 76,34 77,34 78,33 78,32" fill="none" stroke="#8aff00" stroke-width="3" stroke-linecap="round" stroke-linejoin="round" opacity="0.95">
    <title>2855 c:1</title>
  </polyline>
  <polyline points="55,27 55,28 55,30 55,31 55,32 55,33 55,34 55,35 55,36 55,37 55,38 55,39 55,40 55,41 55,42 55,43 55,44 55,45 55,46 56,46 56,47 56,48 56,49 56,50 56,51 56,52 56,53 56,54 56,55 56,56 55,56 55,57 55,58 55,59 55,60 55,61 55,62 55,63 55,64 55,65 55,66 55,67 55,68 55,69 55,70 55,71 55,72 55,73 55,74 55,75 55,76 55,77 55,78 55,79 55,80 56,81 56,82 56,83 56,84 56,85" fill="none" stroke="#00f0b5" stroke-width="3" stroke-linecap="round" stroke-linejoin="round" opacity="0.95">
    <title>2853 a:1</title>
  </polyline>
</svg>
