<?xml version="1.0" encoding="UTF-8"?>
<svg xmlns="http://www.w3.org/2000/svg" width="62" height="75" viewBox="0 0 62 75">
  <title>particle img94-m58-p1 e:1 c:1 h:2</title>
  <metadata>{&quot;entityType&quot;:&quot;particle&quot;,&quot;entityId&quot;:&quot;img94-m58-p1&quot;,&quot;token&quot;:&quot;e:1 c:1 h:2&quot;,&quot;signature&quot;:&quot;e:1 c:1 h:2&quot;,&quot;imageName&quot;:&quot;page-094.jpg&quot;,&quot;imageId&quot;:94,&quot;bounds&quot;:{&quot;x&quot;:2100,&quot;y&quot;:2717,&quot;w&quot;:62,&quot;h&quot;:75},&quot;atoms&quot;:[{&quot;id&quot;:4413,&quot;token&quot;:&quot;e:1&quot;,&quot;particle_id&quot;:&quot;img94-m58-p1&quot;,&quot;molecule_id&quot;:&quot;img94-m58&quot;,&quot;atom_order&quot;:1},{&quot;id&quot;:4498,&quot;token&quot;:&quot;c:1&quot;,&quot;particle_id&quot;:&quot;img94-m58-p1&quot;,&quot;molecule_id&quot;:&quot;img94-m58&quot;,&quot;atom_order&quot;:2},{&quot;id&quot;:4606,&quot;token&quot;:&quot;h:2&quot;,&quot;particle_id&quot;:&quot;img94-m58-p1&quot;,&quot;molecule_id&quot;:&quot;img94-m58&quot;,&quot;atom_order&quot;:3}]}</metadata>
  <rect x="0" y="0" width="62" height="75" fill="#f8f0d8"/>
  <image href="file:///C:/Users/HHHES/AppData/Roaming/com.voynichlab.datasetcreator/images/1/33b1988f-7aaa-4207-bfa8-f26b742ac4b1.jpg" x="-2100" y="-2717" width="2932" height="3769" opacity="0.92"/>
  <rect x="0.5" y="0.5" width="61" height="74" fill="none" stroke="#111827" stroke-width="1" opacity="0.35"/>
  <polyline points="31,56 31,57 30,57 30,58 29,58 28,58 28,59 27,59 26,59 25,59 24,59 23,59 22,59 21,59 21,58 20,58 19,58 18,58 18,57 17,57 16,57 16,56 16,55 16,54 16,53 16,52 16,51 16,50 17,50 17,49 17,48 17,47 18,47 18,46 18,45 19,45 19,44 19,43 20,43 21,43 21,42 22,42 22,41 23,41 24,41 24,40 25,40 26,40 27,40 27,39" fill="none" stroke="#f2e45c" stroke-width="3" stroke-linecap="round" stroke-linejoin="round" opacity="0.95">
    <title>4413 e:1</title>
  </polyline>
  <polyline points="35,33 36,33 37,33 37,32 38,32 39,32 39,31 40,31 41,31 41,30 42,30 43,30 43,29 44,29 44,28 45,27 45,26 46,25 46,24 46,23 46,22 46,21 46,20 46,19 45,19 45,18 44,17 44,16 43,16 42,16 41,16 40,16 39,16 38,16 37,16 35,16 34,16 33,16 32,16 31,16 31,17 30,17 29,17 29,18 28,18 27,18 27,19 26,19 26,20 25,20 25,21 25,22 24,22 24,23 24,24 24,25 24,26 25,27 25,28 26,29 27,30 27,31 28,31 29,31 29,32 30,32 31,32 32,33 33,33 34,33 35,33 36,33 37,33 38,33" fill="none" stroke="#8aff00" stroke-width="3" stroke-linecap="round" stroke-linejoin="round" opacity="0.95">
    <title>4498 c:1</title>
  </polyline>
  <polyline points="27,59 27,58 28,58 29,58 30,58 30,57 31,57 31,56 32,56 32,55 33,55 33,54 34,53 35,52 35,51 35,50 36,50 36,49 36,48 36,47 36,46 35,46 35,45 34,44 34,43 33,43 33,42 32,42 31,41 31,40 30,40 30,39 29,39 28,38 28,37 27,37 27,36 26,36 26,35 26,34 25,33 25,32 25,31 24,30 24,29 24,28 24,27 24,26 24,25 24,24 25,23 25,22 25,21 25,20 26,19 26,18 27,18 28,17 29,17" fill="none" stroke="#ff8c00" stroke-width="3" stroke-linecap="round" stroke-linejoin="round" opacity="0.95">
    <title>4606 h:2</title>
  </polyline>
</svg>
