<?xml version="1.0" encoding="UTF-8"?>
<svg xmlns="http://www.w3.org/2000/svg" width="62" height="78" viewBox="0 0 62 78">
  <title>particle img94-m18-p4 f:1 j:1</title>
  <metadata>{&quot;entityType&quot;:&quot;particle&quot;,&quot;entityId&quot;:&quot;img94-m18-p4&quot;,&quot;token&quot;:&quot;f:1 j:1&quot;,&quot;signature&quot;:&quot;f:1 j:1&quot;,&quot;imageName&quot;:&quot;page-094.jpg&quot;,&quot;imageId&quot;:94,&quot;bounds&quot;:{&quot;x&quot;:923,&quot;y&quot;:716,&quot;w&quot;:62,&quot;h&quot;:78},&quot;atoms&quot;:[{&quot;id&quot;:2798,&quot;token&quot;:&quot;f:1&quot;,&quot;particle_id&quot;:&quot;img94-m18-p4&quot;,&quot;molecule_id&quot;:&quot;img94-m18&quot;,&quot;atom_order&quot;:1},{&quot;id&quot;:2846,&quot;token&quot;:&quot;j:1&quot;,&quot;particle_id&quot;:&quot;img94-m18-p4&quot;,&quot;molecule_id&quot;:&quot;img94-m18&quot;,&quot;atom_order&quot;:2}]}</metadata>
  <rect x="0" y="0" width="62" height="78" fill="#f8f0d8"/>
  <image href="file:///C:/Users/HHHES/AppData/Roaming/com.voynichlab.datasetcreator/images/1/33b1988f-7aaa-4207-bfa8-f26b742ac4b1.jpg" x="-923" y="-716" width="2932" height="3769" opacity="0.92"/>
  <rect x="0.5" y="0.5" width="61" height="77" fill="none" stroke="#111827" stroke-width="1" opacity="0.35"/>
  <polyline points="25,28 25,29 25,30 26,30 26,31 26,32 27,32 27,33 28,34 28,35 29,35 29,36 30,37 30,38 31,38 31,39 32,39 32,40 33,40 33,41 33,42 34,42 34,43 34,44 35,44 35,45 36,45 36,46 37,47 37,48 38,48 38,49" fill="none" stroke="#00a2ff" stroke-width="3" stroke-linecap="round" stroke-linejoin="round" opacity="0.95">
    <title>2798 f:1</title>
  </polyline>
  <polyline points="25,28 25,27 25,26 26,26 26,25 27,25 27,24 28,24 28,23 29,23 29,22 30,22 31,22 31,21 32,21 33,20 34,20 35,19 36,19 36,18 37,18 38,18 38,17 39,17 40,17 41,17 42,17 43,16 44,16 44,17 45,17 45,18 45,19 46,19 46,20 46,21 46,22 46,23 46,24 46,25 45,25 45,26 45,27 45,28 44,28 44,29 44,30 43,30 43,31 42,31 42,32 42,33 41,33 41,34 41,35 40,35 40,36 39,36 39,37 39,38 38,38 38,39 38,40 37,40 37,41 36,41 36,42 36,43 35,43 35,44 34,44 34,45 34,46 33,46 33,47 33,48 32,48 32,49 31,50 31,51 30,51 30,52 29,52 28,53 27,53 27,54 26,54 26,55 25,55 24,56 23,57 22,57 22,58 21,58 21,59 20,59 20,60 19,60 19,61 18,61 17,62 16,62" fill="none" stroke="#4a9e6a" stroke-width="3" stroke-linecap="round" stroke-linejoin="round" opacity="0.95">
    <title>2846 j:1</title>
  </polyline>
</svg>
