<?xml version="1.0" encoding="UTF-8"?>
<svg xmlns="http://www.w3.org/2000/svg" width="60" height="76" viewBox="0 0 60 76">
  <title>particle img94-m60-p1 e:1 c:1 h:2</title>
  <metadata>{&quot;entityType&quot;:&quot;particle&quot;,&quot;entityId&quot;:&quot;img94-m60-p1&quot;,&quot;token&quot;:&quot;e:1 c:1 h:2&quot;,&quot;signature&quot;:&quot;e:1 c:1 h:2&quot;,&quot;imageName&quot;:&quot;page-094.jpg&quot;,&quot;imageId&quot;:94,&quot;bounds&quot;:{&quot;x&quot;:1918,&quot;y&quot;:2721,&quot;w&quot;:60,&quot;h&quot;:76},&quot;atoms&quot;:[{&quot;id&quot;:4407,&quot;token&quot;:&quot;e:1&quot;,&quot;particle_id&quot;:&quot;img94-m60-p1&quot;,&quot;molecule_id&quot;:&quot;img94-m60&quot;,&quot;atom_order&quot;:1},{&quot;id&quot;:4499,&quot;token&quot;:&quot;c:1&quot;,&quot;particle_id&quot;:&quot;img94-m60-p1&quot;,&quot;molecule_id&quot;:&quot;img94-m60&quot;,&quot;atom_order&quot;:2},{&quot;id&quot;:4607,&quot;token&quot;:&quot;h:2&quot;,&quot;particle_id&quot;:&quot;img94-m60-p1&quot;,&quot;molecule_id&quot;:&quot;img94-m60&quot;,&quot;atom_order&quot;:3}]}</metadata>
  <rect x="0" y="0" width="60" height="76" fill="#f8f0d8"/>
  <image href="file:///C:/Users/HHHES/AppData/Roaming/com.voynichlab.datasetcreator/images/1/33b1988f-7aaa-4207-bfa8-f26b742ac4b1.jpg" x="-1918" y="-2721" width="2932" height="3769" opacity="0.92"/>
  <rect x="0.5" y="0.5" width="59" height="75" fill="none" stroke="#111827" stroke-width="1" opacity="0.35"/>
  <polyline points="34,57 34,58 33,58 33,59 32,59 31,59 31,60 30,60 29,60 28,60 27,60 26,60 25,60 24,60 24,59 23,59 22,59 21,59 21,58 20,58 19,58 19,57 19,56 19,55 19,54 19,53 19,52 19,51 20,51 20,50 20,49 20,48 21,48 21,47 21,46 22,46 22,45 22,44 23,44 24,44 24,43 25,43 25,42 26,42 27,42 27,41 28,41 29,41 30,41 30,40" fill="none" stroke="#f2e45c" stroke-width="3" stroke-linecap="round" stroke-linejoin="round" opacity="0.95">
    <title>4407 e:1</title>
  </polyline>
  <polyline points="33,35 34,35 35,35 36,35 36,34 37,34 38,33 39,32 40,31 41,30 41,29 42,29 43,28 43,27 43,26 44,26 44,25 44,24 44,23 43,22 43,21 42,21 42,20 41,19 40,18 39,17 38,17 37,17 37,16 36,16 35,16 34,16 33,16 32,16 30,16 29,16 27,16 26,16 25,16 24,16 23,16 22,17 21,17 20,17 20,18 19,18 18,19 17,19 17,20 16,21 16,22 16,23 16,24 16,25 16,26 16,27 16,28 16,29 17,30 18,30 18,31 19,32 20,32 21,33 22,34 23,34 24,35 25,35 26,35 27,35 28,36 29,36 31,36 32,36 33,36 34,36 35,36 36,35 36,34 37,34" fill="none" stroke="#8aff00" stroke-width="3" stroke-linecap="round" stroke-linejoin="round" opacity="0.95">
    <title>4499 c:1</title>
  </polyline>
  <polyline points="29,60 30,60 31,60 32,60 33,59 34,59 34,58 35,58 36,57 36,56 37,56 37,55 37,54 37,53 37,52 37,51 37,50 37,49 36,48 35,47 34,46 33,44 32,44 31,43 30,42 29,42 29,41 28,41 27,40 26,39 24,38 23,37 22,37 22,36 21,36 21,35 20,35 19,33 18,32 18,31 17,30 17,28 16,28 16,26 16,25 16,23 16,22 16,21 16,20 16,19 17,19 18,18 18,17 19,17 20,17" fill="none" stroke="#ff8c00" stroke-width="3" stroke-linecap="round" stroke-linejoin="round" opacity="0.95">
    <title>4607 h:2</title>
  </polyline>
</svg>
