<?xml version="1.0" encoding="UTF-8"?>
<svg xmlns="http://www.w3.org/2000/svg" width="49" height="90" viewBox="0 0 49 90">
  <title>particle img94-m17-p4 e:1 h:1</title>
  <metadata>{&quot;entityType&quot;:&quot;particle&quot;,&quot;entityId&quot;:&quot;img94-m17-p4&quot;,&quot;token&quot;:&quot;e:1 h:1&quot;,&quot;signature&quot;:&quot;e:1 h:1&quot;,&quot;imageName&quot;:&quot;page-094.jpg&quot;,&quot;imageId&quot;:94,&quot;bounds&quot;:{&quot;x&quot;:1983,&quot;y&quot;:732,&quot;w&quot;:49,&quot;h&quot;:90},&quot;atoms&quot;:[{&quot;id&quot;:2778,&quot;token&quot;:&quot;e:1&quot;,&quot;particle_id&quot;:&quot;img94-m17-p4&quot;,&quot;molecule_id&quot;:&quot;img94-m17&quot;,&quot;atom_order&quot;:1},{&quot;id&quot;:2779,&quot;token&quot;:&quot;h:1&quot;,&quot;particle_id&quot;:&quot;img94-m17-p4&quot;,&quot;molecule_id&quot;:&quot;img94-m17&quot;,&quot;atom_order&quot;:2}]}</metadata>
  <rect x="0" y="0" width="49" height="90" fill="#f8f0d8"/>
  <image href="file:///C:/Users/HHHES/AppData/Roaming/com.voynichlab.datasetcreator/images/1/33b1988f-7aaa-4207-bfa8-f26b742ac4b1.jpg" x="-1983" y="-732" width="2932" height="3769" opacity="0.92"/>
  <rect x="0.5" y="0.5" width="48" height="89" fill="none" stroke="#111827" stroke-width="1" opacity="0.35"/>
  <polyline points="33,33 33,34 32,34 32,35 31,35 30,35 30,36 29,36 28,36 27,36 26,36 25,36 24,36 23,36 23,35 22,35 21,35 20,35 20,34 19,34 18,34 18,33 18,32 18,31 18,30 18,29 18,28 18,27 19,27 19,26 19,25 19,24 20,24 20,23 20,22 21,22 21,21 21,20 22,20 23,20 23,19 24,19 24,18 25,18 26,18 26,17 27,17 28,17 29,17 29,16" fill="none" stroke="#f2e45c" stroke-width="3" stroke-linecap="round" stroke-linejoin="round" opacity="0.95">
    <title>2778 e:1</title>
  </polyline>
  <polyline points="29,17 29,18 30,18 30,19 31,19 31,20 31,21 31,22 31,23 32,23 32,24 32,25 32,26 32,27 32,28 32,29 32,30 32,31 32,32 32,33 32,34 32,35 32,36 32,37 32,38 32,39 32,40 32,41 32,42 32,43 32,44 31,45 31,46 31,47 31,48 30,48 30,49 30,50 29,51 28,52 28,53 27,53 27,54 27,55 26,55 26,56 26,57 25,57 25,58 25,59 24,59 24,60 23,61 23,62 22,63 22,64 21,64 21,65 21,66 20,66 20,67 19,67 19,68 19,69 19,70 18,70 18,71 17,71 17,72 17,73 17,74 16,74" fill="none" stroke="#ff8c00" stroke-width="3" stroke-linecap="round" stroke-linejoin="round" opacity="0.95">
    <title>2779 h:1</title>
  </polyline>
</svg>
