<?xml version="1.0" encoding="UTF-8"?>
<svg xmlns="http://www.w3.org/2000/svg" width="87" height="53" viewBox="0 0 87 53">
  <title>particle img94-m3-p1 e:1 g:1 e:1</title>
  <metadata>{&quot;entityType&quot;:&quot;particle&quot;,&quot;entityId&quot;:&quot;img94-m3-p1&quot;,&quot;token&quot;:&quot;e:1 g:1 e:1&quot;,&quot;signature&quot;:&quot;e:1 g:1 e:1&quot;,&quot;imageName&quot;:&quot;page-094.jpg&quot;,&quot;imageId&quot;:94,&quot;bounds&quot;:{&quot;x&quot;:1251,&quot;y&quot;:536,&quot;w&quot;:87,&quot;h&quot;:53},&quot;atoms&quot;:[{&quot;id&quot;:2640,&quot;token&quot;:&quot;e:1&quot;,&quot;particle_id&quot;:&quot;img94-m3-p1&quot;,&quot;molecule_id&quot;:&quot;img94-m3&quot;,&quot;atom_order&quot;:1},{&quot;id&quot;:2651,&quot;token&quot;:&quot;g:1&quot;,&quot;particle_id&quot;:&quot;img94-m3-p1&quot;,&quot;molecule_id&quot;:&quot;img94-m3&quot;,&quot;atom_order&quot;:2},{&quot;id&quot;:2641,&quot;token&quot;:&quot;e:1&quot;,&quot;particle_id&quot;:&quot;img94-m3-p1&quot;,&quot;molecule_id&quot;:&quot;img94-m3&quot;,&quot;atom_order&quot;:3}]}</metadata>
  <rect x="0" y="0" width="87" height="53" fill="#f8f0d8"/>
  <image href="file:///C:/Users/HHHES/AppData/Roaming/com.voynichlab.datasetcreator/images/1/33b1988f-7aaa-4207-bfa8-f26b742ac4b1.jpg" x="-1251" y="-536" width="2932" height="3769" opacity="0.92"/>
  <rect x="0.5" y="0.5" width="86" height="52" fill="none" stroke="#111827" stroke-width="1" opacity="0.35"/>
  <polyline points="31,34 31,35 30,35 30,36 29,36 28,36 28,37 27,37 26,37 25,37 24,37 23,37 22,37 21,37 21,36 20,36 19,36 18,36 18,35 17,35 16,35 16,34 16,33 16,32 16,31 16,30 16,29 16,28 17,28 17,27 17,26 17,25 18,25 18,24 18,23 19,23 19,22 19,21 20,21 21,21 21,20 22,20 22,19 23,19 24,19 24,18 25,18 26,18 27,18 27,17" fill="none" stroke="#f2e45c" stroke-width="3" stroke-linecap="round" stroke-linejoin="round" opacity="0.95">
    <title>2640 e:1</title>
  </polyline>
  <polyline points="27,18 28,18 29,18 30,18 31,18 32,18 33,18 34,18 35,18 36,18 37,18 38,18 39,18 40,18 41,18 42,18 42,19 43,19 44,19 45,19 46,19 47,19 48,19 49,19 50,19 51,19 52,19 53,19 54,19 55,19 56,19 56,18 57,18 58,18 59,18 60,18 61,18 62,18 63,18 64,18" fill="none" stroke="#7c3cff" stroke-width="3" stroke-linecap="round" stroke-linejoin="round" opacity="0.95">
    <title>2651 g:1</title>
  </polyline>
  <polyline points="71,33 71,34 70,34 70,35 69,35 68,35 68,36 67,36 66,36 65,36 64,36 63,36 62,36 61,36 61,35 60,35 59,35 58,35 58,34 57,34 56,34 56,33 56,32 56,31 56,30 56,29 56,28 56,27 57,27 57,26 57,25 57,24 58,24 58,23 58,22 59,22 59,21 59,20 60,20 61,20 61,19 62,19 62,18 63,18 64,18 64,17 65,17 66,17 67,17 67,16" fill="none" stroke="#f2e45c" stroke-width="3" stroke-linecap="round" stroke-linejoin="round" opacity="0.95">
    <title>2641 e:1</title>
  </polyline>
</svg>
