<?xml version="1.0" encoding="UTF-8"?>
<svg xmlns="http://www.w3.org/2000/svg" width="106" height="121" viewBox="0 0 106 121">
  <title>particle img94-m59-p3 a:1 c:2 b:1 c:1 a:1</title>
  <metadata>{&quot;entityType&quot;:&quot;particle&quot;,&quot;entityId&quot;:&quot;img94-m59-p3&quot;,&quot;token&quot;:&quot;a:1 c:2 b:1 c:1 a:1&quot;,&quot;signature&quot;:&quot;a:1 c:2 b:1 c:1 a:1&quot;,&quot;imageName&quot;:&quot;page-094.jpg&quot;,&quot;imageId&quot;:94,&quot;bounds&quot;:{&quot;x&quot;:861,&quot;y&quot;:2668,&quot;w&quot;:106,&quot;h&quot;:121},&quot;atoms&quot;:[{&quot;id&quot;:4528,&quot;token&quot;:&quot;a:1&quot;,&quot;particle_id&quot;:&quot;img94-m59-p3&quot;,&quot;molecule_id&quot;:&quot;img94-m59&quot;,&quot;atom_order&quot;:1},{&quot;id&quot;:4521,&quot;token&quot;:&quot;c:2&quot;,&quot;particle_id&quot;:&quot;img94-m59-p3&quot;,&quot;molecule_id&quot;:&quot;img94-m59&quot;,&quot;atom_order&quot;:2},{&quot;id&quot;:4620,&quot;token&quot;:&quot;b:1&quot;,&quot;particle_id&quot;:&quot;img94-m59-p3&quot;,&quot;molecule_id&quot;:&quot;img94-m59&quot;,&quot;atom_order&quot;:3},{&quot;id&quot;:4487,&quot;token&quot;:&quot;c:1&quot;,&quot;particle_id&quot;:&quot;img94-m59-p3&quot;,&quot;molecule_id&quot;:&quot;img94-m59&quot;,&quot;atom_order&quot;:4},{&quot;id&quot;:4529,&quot;token&quot;:&quot;a:1&quot;,&quot;particle_id&quot;:&quot;img94-m59-p3&quot;,&quot;molecule_id&quot;:&quot;img94-m59&quot;,&quot;atom_order&quot;:5}]}</metadata>
  <rect x="0" y="0" width="106" height="121" fill="#f8f0d8"/>
  <image href="file:///C:/Users/HHHES/AppData/Roaming/com.voynichlab.datasetcreator/images/1/33b1988f-7aaa-4207-bfa8-f26b742ac4b1.jpg" x="-861" y="-2668" width="2932" height="3769" opacity="0.92"/>
  <rect x="0.5" y="0.5" width="105" height="120" fill="none" stroke="#111827" stroke-width="1" opacity="0.35"/>
  <polyline points="30,105 30,104 31,103 31,102 31,101 31,100 31,99 32,98 32,97 32,96 32,95 32,94 32,93 31,93 31,92 31,91 31,90 31,89 31,88 31,87 31,86 31,85 31,84 31,83 31,82 31,81 31,80 31,79 31,78 31,77 31,76 31,75 31,74 31,73 31,72 32,71 32,70 32,69 32,68 32,67 32,66 33,65 33,64 33,63 33,62 33,61 33,60 33,59 33,58 33,57 33,56 33,55 33,54 34,53 34,52 34,51 34,50 34,49 34,48 34,47 34,46 34,45 34,44 34,43 34,42 34,41 34,40 34,39 34,38 34,37 34,36 34,35 34,34 34,33 34,32 34,31 34,30 34,29 34,28" fill="none" stroke="#00f0b5" stroke-width="3" stroke-linecap="round" stroke-linejoin="round" opacity="0.95">
    <title>4528 a:1</title>
  </polyline>
  <polyline points="29,40 28,40 27,40 28,39 29,39 29,40 29,41 28,42 27,42 27,41 27,40 28,40 29,39 29,40 29,41 28,41 27,41 26,41 25,41 25,40 26,39 27,39 28,38 28,39 28,40 27,40 27,41 26,41 25,41 24,41 24,40 24,39 25,39 26,38 27,38 28,38 29,38 30,38 30,39 30,40 29,41 28,41 27,41 26,41 25,41 25,40 25,39 26,39 27,38 29,37 29,38 29,39 29,40 28,41 27,42 26,42 25,42 24,42 24,41 24,39 26,38 27,38 28,38 29,38 29,39 29,41 29,42 28,42 28,43 27,43 26,43 25,43 24,42 23,41 23,40 23,38 24,37 25,36 26,36 27,36 28,36 28,37 29,38 29,39 29,40 29,42 29,44 29,45 28,46 27,46 26,46 26,45 25,45 25,44 24,43 23,41 23,40 23,39 23,38 24,37 25,37 26,36 27,36 28,36 29,36 29,37 30,37 30,38 30,39 31,40 31,41 31,42 31,43 30,44 29,44 28,44 27,44 26,44 25,44 24,43 23,43 22,42 21,41 21,40 21,39 21,38 21,37 23,36 23,35 24,35 26,35 27,35 28,35 30,36 31,36 32,37 32,38 32,39 32,40 32,41 32,42 31,43 31,44 30,44 30,45 28,45 27,45 25,45 24,44 22,44 22,43 21,41 21,40 21,39 22,38 24,37 26,36 29,36 31,37 33,37 33,38 34,39 34,40 34,42 34,43 33,45 31,46 30,46 28,46 26,46 24,45 22,44 22,43 21,41 21,40 22,39 23,37 25,36 27,35 30,35 32,35 33,35 34,35 35,36 35,37 36,39 36,41 36,43 36,44 36,45 35,45 35,46 34,46 33,46 31,46 29,46 28,46 27,46 26,45 25,45 24,45 24,44 23,44 23,43 22,43 22,42 22,41 21,40 21,39 21,38 22,37 22,36 23,36 23,35 24,35 25,35 25,34 26,34 27,34 28,34 29,34 30,34 31,34 32,34 33,34 34,34 35,34 36,34 36,35 37,35 37,36 38,36 38,37 38,38 38,39 39,39 39,40 39,41 39,42 38,43 38,44 38,45 37,46 36,46 36,47 35,47 35,48 34,48 33,48 32,48 32,49 31,49 30,49 29,49 28,49 27,49 26,49 25,49 24,49 23,48 22,48 21,48 21,47 20,47 20,46 19,46 19,45 18,44 18,43 17,42 17,41 16,41 16,40 16,39 16,38 16,37 16,36 16,35 17,35 17,34 17,33 18,33 18,32 19,32 20,32 20,31 21,31 21,30 22,30 23,30 24,30 25,30 26,30 27,30 28,30 29,30 30,30 31,30 32,30 33,30 34,30 34,31 35,31 36,32 36,33 36,34 37,34 37,35 37,36 38,36 38,37 38,38 38,39 38,40 38,41 38,42 38,43 38,44 38,45 37,45 36,45 36,46 35,46 34,46 34,47 33,47 32,47 31,48 30,48 29,48 28,48 27,48 26,48 25,48 24,48 24,47 23,47 22,47 22,46 21,46 21,45 20,45 20,44 19,44 19,43 18,43 18,42 18,41 18,40 18,39 18,38 18,37 18,36 19,35 20,34 21,33 22,32 23,32 24,32 24,31 25,31 26,31 27,31 28,31 28,32 30,32 31,32 32,32 33,33 34,33 35,33 35,34 35,35 35,36 35,37 35,38 35,39 35,40 36,41 36,42 36,43 35,43 35,44 35,45 35,46 34,46 33,46 32,46 32,47 31,47 30,47 29,47 28,47 27,47 26,47 25,47 24,47 24,46 23,46 22,45 21,45 21,44 20,44 20,43 20,42 20,41 20,40 20,39 20,38 19,38 19,37 20,37 20,36 21,36 21,35 22,35 22,34 23,34 24,34 24,33 25,33 25,32 26,32 27,32 28,32 29,33 30,33 31,33 32,33 32,34 33,34 33,35 34,35 34,36 34,37 34,38 34,39 34,40 34,41 33,41 33,42 33,43 32,43 32,44 31,44 31,45 32,45 33,45 33,44 34,44 35,43 36,42 37,41 37,40 37,39 37,38 36,37 36,36 35,36 35,35 35,34 35,33 34,33 34,32 34,31 33,31 33,30 32,30 31,30 30,30 29,30 29,31 28,31 27,31 26,31 25,31 24,31 23,31 22,31 21,31 20,31 20,32 19,32 19,33 19,34 18,34 18,35 18,36 17,36 17,37 17,38 18,38 18,39 18,40 18,41 19,41 19,42 20,42 20,43 21,43 21,44 21,43 21,42 20,41 19,41 19,40 18,39 18,38 17,38 18,38 18,39 18,40 17,40 17,39 18,39 18,38 19,38 20,38 20,37 20,36 21,35 21,34 21,33 21,32 22,32 23,32 23,31 22,31 21,31 21,32 20,33 20,34 20,35 20,36 21,37 22,37 22,38 23,38 24,37 24,36 24,35 25,35 25,34 25,33 24,33 23,33 22,33 22,34 21,34 21,35 21,36 21,37 22,37 23,37 24,37 26,36 27,36 28,35 28,34 28,33 28,32 27,32 27,33 26,33 25,34 25,35 25,36 26,36 27,36 27,35 28,34 28,33 28,32 27,32 26,32 27,32 27,33 28,33 29,33 30,33 31,32 32,32 32,31 31,31 30,31 31,31 31,32 31,33 31,34 32,34 32,35 32,36 33,37 33,38 33,39 32,40 31,40 30,40 29,40 28,40 28,39 29,39 30,38 31,37 32,37 32,38 32,39 32,40 32,41 31,41 31,42 30,42 29,42 28,42 28,41 28,40 29,40 30,39 31,38 32,38 33,37 34,37 34,38 34,39 34,40 33,40 33,41 33,42 32,42 32,43 33,43 34,42 35,42 36,42 36,41 36,42 36,43 35,43 35,44 35,45 34,45 35,45 36,45 36,44 37,43 37,42 37,41 37,40 38,40 38,39 38,38 38,37 37,36 37,35 37,34 37,33 36,33 35,33 35,32 34,32 33,32 32,32 31,32 30,32 29,32 28,32 28,33 28,34" fill="none" stroke="#8aff00" stroke-width="3" stroke-linecap="round" stroke-linejoin="round" opacity="0.95">
    <title>4521 c:2</title>
  </polyline>
  <polyline points="33,48 34,48 35,48 36,48 38,48 39,48 41,48 42,48 44,48 45,48 46,48 47,48 48,48 50,48 51,48 52,48 53,48 54,47 55,47 56,47 57,46 58,46 59,46 60,46 60,45 61,45 62,45 63,44 64,44 65,44 65,43 66,43 67,42 68,41 69,41" fill="none" stroke="#2f7df6" stroke-width="3" stroke-linecap="round" stroke-linejoin="round" opacity="0.95">
    <title>4620 b:1</title>
  </polyline>
  <polyline points="62,29 61,30 61,31 61,32 61,33 61,34 61,35 61,36 61,37 61,38 61,39 62,39 62,40 63,41 63,42 64,42 65,42 66,43 67,43 68,43 69,43 70,43 71,43 72,43 73,43 74,43 75,43 76,43 77,43 78,43 78,42 79,42 80,42 81,41 82,41 82,40 83,40 83,39 84,39 84,38 85,37 86,37 86,36 87,35 88,35 88,34 89,33 89,32 89,31 90,31 90,30 90,29 90,28 90,27 90,26 90,25 89,25 89,24 89,23 88,23 88,22 88,21 87,21 87,20 86,20 85,19 84,19 84,18 83,18 82,18 81,17 80,17 79,16 78,16 77,16 76,16 75,16 74,16 73,16 71,17 70,17 69,17 68,18 67,18 67,19 67,20 66,20 66,21 65,22 65,23 65,24 64,24 64,25 64,26 63,26 63,27 63,28 63,29 62,29 62,30 62,31 62,32 62,33 61,33 61,34" fill="none" stroke="#8aff00" stroke-width="3" stroke-linecap="round" stroke-linejoin="round" opacity="0.95">
    <title>4487 c:1</title>
  </polyline>
  <polyline points="57,101 57,100 58,99 58,98 58,97 58,96 58,95 59,94 59,93 59,92 59,91 59,90 59,89 58,89 58,88 58,87 58,86 58,85 58,84 58,83 58,82 58,81 58,80 58,79 58,78 58,77 58,76 58,75 58,74 58,73 58,72 58,71 58,70 58,69 58,68 59,67 59,66 59,65 59,64 59,63 59,62 60,61 60,60 60,59 60,58 60,57 60,56 60,55 60,54 60,53 60,52 60,51 60,50 61,49 61,48 61,47 61,46 61,45 61,44 61,43 61,42 61,41 61,40 61,39 61,38 61,37 61,36 61,35 61,34 61,33 61,32 61,31 61,30 61,29 61,28 61,27 61,26 61,25 61,24" fill="none" stroke="#00f0b5" stroke-width="3" stroke-linecap="round" stroke-linejoin="round" opacity="0.95">
    <title>4529 a:1</title>
  </polyline>
</svg>
