<?xml version="1.0" encoding="UTF-8"?>
<svg xmlns="http://www.w3.org/2000/svg" width="55" height="81" viewBox="0 0 55 81">
  <title>particle img94-m28-p2 e:1 h:1</title>
  <metadata>{&quot;entityType&quot;:&quot;particle&quot;,&quot;entityId&quot;:&quot;img94-m28-p2&quot;,&quot;token&quot;:&quot;e:1 h:1&quot;,&quot;signature&quot;:&quot;e:1 h:1&quot;,&quot;imageName&quot;:&quot;page-094.jpg&quot;,&quot;imageId&quot;:94,&quot;bounds&quot;:{&quot;x&quot;:1864,&quot;y&quot;:889,&quot;w&quot;:55,&quot;h&quot;:81},&quot;atoms&quot;:[{&quot;id&quot;:2943,&quot;token&quot;:&quot;e:1&quot;,&quot;particle_id&quot;:&quot;img94-m28-p2&quot;,&quot;molecule_id&quot;:&quot;img94-m28&quot;,&quot;atom_order&quot;:1},{&quot;id&quot;:2972,&quot;token&quot;:&quot;h:1&quot;,&quot;particle_id&quot;:&quot;img94-m28-p2&quot;,&quot;molecule_id&quot;:&quot;img94-m28&quot;,&quot;atom_order&quot;:2}]}</metadata>
  <rect x="0" y="0" width="55" height="81" fill="#f8f0d8"/>
  <image href="file:///C:/Users/HHHES/AppData/Roaming/com.voynichlab.datasetcreator/images/1/33b1988f-7aaa-4207-bfa8-f26b742ac4b1.jpg" x="-1864" y="-889" width="2932" height="3769" opacity="0.92"/>
  <rect x="0.5" y="0.5" width="54" height="80" fill="none" stroke="#111827" stroke-width="1" opacity="0.35"/>
  <polyline points="31,33 31,34 30,34 30,35 29,35 28,35 28,36 27,36 26,36 25,36 24,36 23,36 22,36 21,36 21,35 20,35 19,35 18,35 18,34 17,34 16,34 16,33 16,32 16,31 16,30 16,29 16,28 16,27 17,27 17,26 17,25 17,24 18,24 18,23 18,22 19,22 19,21 19,20 20,20 21,20 21,19 22,19 22,18 23,18 24,18 24,17 25,17 26,17 27,17 27,16" fill="none" stroke="#f2e45c" stroke-width="3" stroke-linecap="round" stroke-linejoin="round" opacity="0.95">
    <title>2943 e:1</title>
  </polyline>
  <polyline points="26,16 27,16 27,17 28,17 29,17 29,18 30,18 31,18 31,19 32,19 32,20 33,20 33,21 34,21 34,22 35,22 35,23 35,24 36,24 36,25 36,26 37,26 37,27 37,28 38,29 38,30 38,31 38,32 39,32 39,33 39,34 39,35 39,36 39,37 39,38 39,39 38,39 38,40 38,41 38,42 38,43 38,45 38,46 37,47 37,48 37,49 36,50 36,51 36,52 35,53 35,54 34,55 34,56 34,57 33,58 33,59 32,59 32,60 32,61 31,62 30,63 30,64 29,65" fill="none" stroke="#ff8c00" stroke-width="3" stroke-linecap="round" stroke-linejoin="round" opacity="0.95">
    <title>2972 h:1</title>
  </polyline>
</svg>
