<?xml version="1.0" encoding="UTF-8"?>
<svg xmlns="http://www.w3.org/2000/svg" width="86" height="56" viewBox="0 0 86 56">
  <title>particle img94-m75-p1 e:1 g:1 e:1</title>
  <metadata>{&quot;entityType&quot;:&quot;particle&quot;,&quot;entityId&quot;:&quot;img94-m75-p1&quot;,&quot;token&quot;:&quot;e:1 g:1 e:1&quot;,&quot;signature&quot;:&quot;e:1 g:1 e:1&quot;,&quot;imageName&quot;:&quot;page-094.jpg&quot;,&quot;imageId&quot;:94,&quot;bounds&quot;:{&quot;x&quot;:910,&quot;y&quot;:2882,&quot;w&quot;:86,&quot;h&quot;:56},&quot;atoms&quot;:[{&quot;id&quot;:4422,&quot;token&quot;:&quot;e:1&quot;,&quot;particle_id&quot;:&quot;img94-m75-p1&quot;,&quot;molecule_id&quot;:&quot;img94-m75&quot;,&quot;atom_order&quot;:1},{&quot;id&quot;:4473,&quot;token&quot;:&quot;g:1&quot;,&quot;particle_id&quot;:&quot;img94-m75-p1&quot;,&quot;molecule_id&quot;:&quot;img94-m75&quot;,&quot;atom_order&quot;:2},{&quot;id&quot;:4423,&quot;token&quot;:&quot;e:1&quot;,&quot;particle_id&quot;:&quot;img94-m75-p1&quot;,&quot;molecule_id&quot;:&quot;img94-m75&quot;,&quot;atom_order&quot;:3}]}</metadata>
  <rect x="0" y="0" width="86" height="56" fill="#f8f0d8"/>
  <image href="file:///C:/Users/HHHES/AppData/Roaming/com.voynichlab.datasetcreator/images/1/33b1988f-7aaa-4207-bfa8-f26b742ac4b1.jpg" x="-910" y="-2882" width="2932" height="3769" opacity="0.92"/>
  <rect x="0.5" y="0.5" width="85" height="55" fill="none" stroke="#111827" stroke-width="1" opacity="0.35"/>
  <polyline points="31,37 31,38 30,38 30,39 29,39 28,39 28,40 27,40 26,40 25,40 24,40 23,40 22,40 21,40 21,39 20,39 19,39 18,39 18,38 17,38 16,38 16,37 16,36 16,35 16,34 16,33 16,32 16,31 17,31 17,30 17,29 17,28 18,28 18,27 18,26 19,26 19,25 19,24 20,24 21,24 21,23 22,23 22,22 23,22 24,22 24,21 25,21 26,21 27,21 27,20" fill="none" stroke="#f2e45c" stroke-width="3" stroke-linecap="round" stroke-linejoin="round" opacity="0.95">
    <title>4422 e:1</title>
  </polyline>
  <polyline points="24,20 25,20 27,20 29,20 31,20 32,20 33,20 35,20 38,19 40,19 42,19 43,19 45,18 46,18 47,18 48,18 50,18 51,18 52,18 53,18 54,18 55,18 56,18 57,18 58,18 59,18 60,18 61,18 62,18 63,17 64,17 65,17 66,17" fill="none" stroke="#7c3cff" stroke-width="3" stroke-linecap="round" stroke-linejoin="round" opacity="0.95">
    <title>4473 g:1</title>
  </polyline>
  <polyline points="70,33 70,34 69,34 69,35 68,35 67,35 67,36 66,36 65,36 64,36 63,36 62,36 61,36 60,36 60,35 59,35 58,35 57,35 57,34 56,34 55,34 55,33 55,32 55,31 55,30 55,29 55,28 55,27 56,27 56,26 56,25 56,24 57,24 57,23 57,22 58,22 58,21 58,20 59,20 60,20 60,19 61,19 61,18 62,18 63,18 63,17 64,17 65,17 66,17 66,16" fill="none" stroke="#f2e45c" stroke-width="3" stroke-linecap="round" stroke-linejoin="round" opacity="0.95">
    <title>4423 e:1</title>
  </polyline>
</svg>
