<?xml version="1.0" encoding="UTF-8"?>
<svg xmlns="http://www.w3.org/2000/svg" width="101" height="126" viewBox="0 0 101 126">
  <title>particle img94-m1-p6 a:1 m:1 c:1 a:1</title>
  <metadata>{&quot;entityType&quot;:&quot;particle&quot;,&quot;entityId&quot;:&quot;img94-m1-p6&quot;,&quot;token&quot;:&quot;a:1 m:1 c:1 a:1&quot;,&quot;signature&quot;:&quot;a:1 m:1 c:1 a:1&quot;,&quot;imageName&quot;:&quot;page-094.jpg&quot;,&quot;imageId&quot;:94,&quot;bounds&quot;:{&quot;x&quot;:978,&quot;y&quot;:476,&quot;w&quot;:101,&quot;h&quot;:126},&quot;atoms&quot;:[{&quot;id&quot;:2628,&quot;token&quot;:&quot;a:1&quot;,&quot;particle_id&quot;:&quot;img94-m1-p6&quot;,&quot;molecule_id&quot;:&quot;img94-m1&quot;,&quot;atom_order&quot;:1},{&quot;id&quot;:3050,&quot;token&quot;:&quot;m:1&quot;,&quot;particle_id&quot;:&quot;img94-m1-p6&quot;,&quot;molecule_id&quot;:&quot;img94-m1&quot;,&quot;atom_order&quot;:2},{&quot;id&quot;:2630,&quot;token&quot;:&quot;c:1&quot;,&quot;particle_id&quot;:&quot;img94-m1-p6&quot;,&quot;molecule_id&quot;:&quot;img94-m1&quot;,&quot;atom_order&quot;:3},{&quot;id&quot;:2631,&quot;token&quot;:&quot;a:1&quot;,&quot;particle_id&quot;:&quot;img94-m1-p6&quot;,&quot;molecule_id&quot;:&quot;img94-m1&quot;,&quot;atom_order&quot;:4}]}</metadata>
  <rect x="0" y="0" width="101" height="126" fill="#f8f0d8"/>
  <image href="file:///C:/Users/HHHES/AppData/Roaming/com.voynichlab.datasetcreator/images/1/33b1988f-7aaa-4207-bfa8-f26b742ac4b1.jpg" x="-978" y="-476" width="2932" height="3769" opacity="0.92"/>
  <rect x="0.5" y="0.5" width="100" height="125" fill="none" stroke="#111827" stroke-width="1" opacity="0.35"/>
  <polyline points="38,107 38,106 38,105 38,104 38,103 38,102 38,101 38,100 38,99 38,98 38,97 38,96 38,95 38,94 38,93 38,92 38,91 38,90 38,89 38,88 38,87 38,86 38,85 39,85 39,84 39,83 39,82 39,81 39,80 39,79 39,78 39,77 39,76 39,75 39,74 39,73 38,73 38,72 38,71 38,70 38,69 38,68 38,67 38,66 38,65 38,64 38,63 38,62 38,61 38,60 38,59 38,58 38,57 38,56" fill="none" stroke="#00f0b5" stroke-width="3" stroke-linecap="round" stroke-linejoin="round" opacity="0.95">
    <title>2628 a:1</title>
  </polyline>
  <polyline points="38,56 38,55 38,54 38,53 38,52 39,51 39,50 39,49 39,48 39,47 39,46 40,46 40,45 40,44 40,43 40,42 40,41 40,40 40,39 40,38 40,37 40,36 40,35 40,34 41,34 41,33 41,32 41,31 41,30 41,29 41,28 41,27 41,26 41,25 40,25 39,25 38,25 37,25 37,26 36,26 36,27 35,27 34,27 34,28 33,28 33,29 32,29 31,29 31,30 30,30 29,31 28,31 27,32 26,32 26,33 25,33 24,34 23,35 22,35 22,36 21,36 21,37 20,38 20,39 19,39 19,40 18,41 18,42 17,42 17,43 17,44 16,44 16,45 17,45 18,45 19,45 20,45 21,45 22,45 23,45 24,45 25,45 25,44 26,44 27,44 28,44 29,44 30,44 31,44 32,44 33,44 34,44 34,43 35,43 36,43 37,43 38,43 39,43 40,43 41,42 42,42 43,42 44,42 45,42 46,42 46,41 47,41 48,41 49,41 50,41 51,41 52,41 53,40 54,40 55,40 56,40 57,40 58,40 59,40" fill="none" stroke="#ff00ff" stroke-width="3" stroke-linecap="round" stroke-linejoin="round" opacity="0.95">
    <title>3050 m:1</title>
  </polyline>
  <polyline points="60,41 61,41 62,41 63,41 64,41 65,41 66,41 67,41 68,41 69,41 70,41 71,40 72,40 73,40 74,39 75,39 76,39 76,38 77,38 78,37 79,37 79,36 80,36 81,36 81,35 82,35 82,34 83,34 83,33 84,32 84,31 85,30 85,29 85,28 85,27 85,26 85,25 85,24 85,23 84,23 84,22 84,21 83,21 83,20 82,20 82,19 82,18 81,18 80,18 80,17 79,17 78,17 78,16 77,16 76,16 75,16 74,16 73,16 72,16 71,16 70,16 69,16 68,17 67,17 66,18 65,18 65,19 64,19 64,20 63,20 63,21 62,22 62,23 61,23 61,24 61,25 60,25 60,26 60,27 59,28 59,29 59,30 58,30 58,31 58,32 58,33 58,34 58,35 58,36 58,37 58,38 58,39 59,39 59,40 60,40 60,41" fill="none" stroke="#8aff00" stroke-width="3" stroke-linecap="round" stroke-linejoin="round" opacity="0.95">
    <title>2630 c:1</title>
  </polyline>
  <polyline points="58,40 58,41 58,42 58,43 58,44 58,45 58,46 58,47 58,48 58,49 58,50 58,51 58,52 58,53 58,54 58,55 58,56 58,57 57,57 57,58 57,59 57,60 57,61 57,62 57,63 57,64 57,65 57,66 56,66 56,67 56,68 56,69 56,70 56,71 56,72 56,73 56,74 56,75 56,76 56,77 55,77 55,78 55,79 55,80 55,81 55,82 55,83 55,84 55,85 55,86 55,87 55,88 55,89 55,90 55,91 55,92 55,93 55,94 55,95 55,96 55,97 55,98 55,99 55,100 55,101 55,102 55,103 55,104 55,105 55,106 55,107 55,108 55,109 55,110" fill="none" stroke="#00f0b5" stroke-width="3" stroke-linecap="round" stroke-linejoin="round" opacity="0.95">
    <title>2631 a:1</title>
  </polyline>
</svg>
