<?xml version="1.0" encoding="UTF-8"?>
<svg xmlns="http://www.w3.org/2000/svg" width="59" height="81" viewBox="0 0 59 81">
  <title>particle img94-m36-p1 e:1 i:1 d:1</title>
  <metadata>{&quot;entityType&quot;:&quot;particle&quot;,&quot;entityId&quot;:&quot;img94-m36-p1&quot;,&quot;token&quot;:&quot;e:1 i:1 d:1&quot;,&quot;signature&quot;:&quot;e:1 i:1 d:1&quot;,&quot;imageName&quot;:&quot;page-094.jpg&quot;,&quot;imageId&quot;:94,&quot;bounds&quot;:{&quot;x&quot;:1305,&quot;y&quot;:941,&quot;w&quot;:59,&quot;h&quot;:81},&quot;atoms&quot;:[{&quot;id&quot;:2992,&quot;token&quot;:&quot;e:1&quot;,&quot;particle_id&quot;:&quot;img94-m36-p1&quot;,&quot;molecule_id&quot;:&quot;img94-m36&quot;,&quot;atom_order&quot;:1},{&quot;id&quot;:3024,&quot;token&quot;:&quot;i:1&quot;,&quot;particle_id&quot;:&quot;img94-m36-p1&quot;,&quot;molecule_id&quot;:&quot;img94-m36&quot;,&quot;atom_order&quot;:2},{&quot;id&quot;:3027,&quot;token&quot;:&quot;d:1&quot;,&quot;particle_id&quot;:&quot;img94-m36-p1&quot;,&quot;molecule_id&quot;:&quot;img94-m36&quot;,&quot;atom_order&quot;:3}]}</metadata>
  <rect x="0" y="0" width="59" height="81" fill="#f8f0d8"/>
  <image href="file:///C:/Users/HHHES/AppData/Roaming/com.voynichlab.datasetcreator/images/1/33b1988f-7aaa-4207-bfa8-f26b742ac4b1.jpg" x="-1305" y="-941" width="2932" height="3769" opacity="0.92"/>
  <rect x="0.5" y="0.5" width="58" height="80" fill="none" stroke="#111827" stroke-width="1" opacity="0.35"/>
  <polyline points="32,62 32,63 31,63 31,64 30,64 29,64 29,65 28,65 27,65 26,65 25,65 24,65 23,65 22,65 22,64 21,64 20,64 19,64 19,63 18,63 17,63 17,62 17,61 17,60 17,59 17,58 17,57 17,56 18,56 18,55 18,54 18,53 19,53 19,52 19,51 20,51 20,50 20,49 21,49 22,49 22,48 23,48 23,47 24,47 25,47 25,46 26,46 27,46 28,46 28,45" fill="none" stroke="#f2e45c" stroke-width="3" stroke-linecap="round" stroke-linejoin="round" opacity="0.95">
    <title>2992 e:1</title>
  </polyline>
  <polyline points="28,45 34,40 36,40 36,39 37,38 38,37 39,36 40,35 40,34 41,33 41,32 42,31 42,29 43,29 43,28 43,27 43,26 43,25 43,24 43,23 43,22 42,22 42,21" fill="none" stroke="#00ff7f" stroke-width="3" stroke-linecap="round" stroke-linejoin="round" opacity="0.95">
    <title>3024 i:1</title>
  </polyline>
  <polyline points="16,30 16,27 17,23 18,21 19,20 19,19 20,19 21,18 22,18 22,17 23,17 24,17 25,17 26,16 27,16 28,16 29,16 30,16 31,16 32,16 32,17 33,17 34,17 35,17 36,17 36,18 37,18 38,18 39,18 39,19 40,19 40,20 41,20 41,21 42,21 42,22" fill="none" stroke="#ff2d55" stroke-width="3" stroke-linecap="round" stroke-linejoin="round" opacity="0.95">
    <title>3027 d:1</title>
  </polyline>
</svg>
