<?xml version="1.0" encoding="UTF-8"?>
<svg xmlns="http://www.w3.org/2000/svg" width="84" height="55" viewBox="0 0 84 55">
  <title>particle img94-m61-p1 e:1 g:1 e:1</title>
  <metadata>{&quot;entityType&quot;:&quot;particle&quot;,&quot;entityId&quot;:&quot;img94-m61-p1&quot;,&quot;token&quot;:&quot;e:1 g:1 e:1&quot;,&quot;signature&quot;:&quot;e:1 g:1 e:1&quot;,&quot;imageName&quot;:&quot;page-094.jpg&quot;,&quot;imageId&quot;:94,&quot;bounds&quot;:{&quot;x&quot;:2310,&quot;y&quot;:2722,&quot;w&quot;:84,&quot;h&quot;:55},&quot;atoms&quot;:[{&quot;id&quot;:4417,&quot;token&quot;:&quot;e:1&quot;,&quot;particle_id&quot;:&quot;img94-m61-p1&quot;,&quot;molecule_id&quot;:&quot;img94-m61&quot;,&quot;atom_order&quot;:1},{&quot;id&quot;:4468,&quot;token&quot;:&quot;g:1&quot;,&quot;particle_id&quot;:&quot;img94-m61-p1&quot;,&quot;molecule_id&quot;:&quot;img94-m61&quot;,&quot;atom_order&quot;:2},{&quot;id&quot;:4418,&quot;token&quot;:&quot;e:1&quot;,&quot;particle_id&quot;:&quot;img94-m61-p1&quot;,&quot;molecule_id&quot;:&quot;img94-m61&quot;,&quot;atom_order&quot;:3}]}</metadata>
  <rect x="0" y="0" width="84" height="55" fill="#f8f0d8"/>
  <image href="file:///C:/Users/HHHES/AppData/Roaming/com.voynichlab.datasetcreator/images/1/33b1988f-7aaa-4207-bfa8-f26b742ac4b1.jpg" x="-2310" y="-2722" width="2932" height="3769" opacity="0.92"/>
  <rect x="0.5" y="0.5" width="83" height="54" fill="none" stroke="#111827" stroke-width="1" opacity="0.35"/>
  <polyline points="31,36 31,37 30,37 30,38 29,38 28,38 28,39 27,39 26,39 25,39 24,39 23,39 22,39 21,39 21,38 20,38 19,38 18,38 18,37 17,37 16,37 16,36 16,35 16,34 16,33 16,32 16,31 16,30 17,30 17,29 17,28 17,27 18,27 18,26 18,25 19,25 19,24 19,23 20,23 21,23 21,22 22,22 22,21 23,21 24,21 24,20 25,20 26,20 27,20 27,19" fill="none" stroke="#f2e45c" stroke-width="3" stroke-linecap="round" stroke-linejoin="round" opacity="0.95">
    <title>4417 e:1</title>
  </polyline>
  <polyline points="24,20 25,20 27,20 28,19 29,19 30,19 32,19 33,19 34,19 36,19 38,19 39,19 41,19 42,18 43,18 44,18 45,18 46,18 47,18 48,18 49,18 50,18 52,18 53,18 54,18 55,18 56,18 57,18 58,18 59,18 60,18 61,18 62,18 63,18" fill="none" stroke="#7c3cff" stroke-width="3" stroke-linecap="round" stroke-linejoin="round" opacity="0.95">
    <title>4468 g:1</title>
  </polyline>
  <polyline points="68,33 68,34 67,34 67,35 66,35 65,35 65,36 64,36 63,36 62,36 61,36 60,36 59,36 58,36 58,35 57,35 56,35 55,35 55,34 54,34 53,34 53,33 53,32 53,31 53,30 53,29 53,28 53,27 54,27 54,26 54,25 54,24 55,24 55,23 55,22 56,22 56,21 56,20 57,20 58,20 58,19 59,19 59,18 60,18 61,18 61,17 62,17 63,17 64,17 64,16" fill="none" stroke="#f2e45c" stroke-width="3" stroke-linecap="round" stroke-linejoin="round" opacity="0.95">
    <title>4418 e:1</title>
  </polyline>
</svg>
