<?xml version="1.0" encoding="UTF-8"?>
<svg xmlns="http://www.w3.org/2000/svg" width="64" height="82" viewBox="0 0 64 82">
  <title>particle img94-m79-p1 e:1 c:1 h:2</title>
  <metadata>{&quot;entityType&quot;:&quot;particle&quot;,&quot;entityId&quot;:&quot;img94-m79-p1&quot;,&quot;token&quot;:&quot;e:1 c:1 h:2&quot;,&quot;signature&quot;:&quot;e:1 c:1 h:2&quot;,&quot;imageName&quot;:&quot;page-094.jpg&quot;,&quot;imageId&quot;:94,&quot;bounds&quot;:{&quot;x&quot;:983,&quot;y&quot;:2959,&quot;w&quot;:64,&quot;h&quot;:82},&quot;atoms&quot;:[{&quot;id&quot;:4275,&quot;token&quot;:&quot;e:1&quot;,&quot;particle_id&quot;:&quot;img94-m79-p1&quot;,&quot;molecule_id&quot;:&quot;img94-m79&quot;,&quot;atom_order&quot;:1},{&quot;id&quot;:4517,&quot;token&quot;:&quot;c:1&quot;,&quot;particle_id&quot;:&quot;img94-m79-p1&quot;,&quot;molecule_id&quot;:&quot;img94-m79&quot;,&quot;atom_order&quot;:2},{&quot;id&quot;:4613,&quot;token&quot;:&quot;h:2&quot;,&quot;particle_id&quot;:&quot;img94-m79-p1&quot;,&quot;molecule_id&quot;:&quot;img94-m79&quot;,&quot;atom_order&quot;:3}]}</metadata>
  <rect x="0" y="0" width="64" height="82" fill="#f8f0d8"/>
  <image href="file:///C:/Users/HHHES/AppData/Roaming/com.voynichlab.datasetcreator/images/1/33b1988f-7aaa-4207-bfa8-f26b742ac4b1.jpg" x="-983" y="-2959" width="2932" height="3769" opacity="0.92"/>
  <rect x="0.5" y="0.5" width="63" height="81" fill="none" stroke="#111827" stroke-width="1" opacity="0.35"/>
  <polyline points="31,63 31,64 30,64 30,65 29,65 28,65 28,66 27,66 26,66 25,66 24,66 23,66 22,66 21,66 21,65 20,65 19,65 18,65 18,64 17,64 16,64 16,63 16,62 16,61 16,60 16,59 16,58 16,57 17,57 17,56 17,55 17,54 18,54 18,53 18,52 19,52 19,51 19,50 20,50 21,50 21,49 22,49 22,48 23,48 24,48 24,47 25,47 26,47 27,47 27,46" fill="none" stroke="#f2e45c" stroke-width="3" stroke-linecap="round" stroke-linejoin="round" opacity="0.95">
    <title>4275 e:1</title>
  </polyline>
  <polyline points="34,39 35,39 36,38 38,38 39,38 40,37 41,36 42,36 43,35 44,34 45,33 45,32 46,31 46,30 47,29 47,28 47,27 48,26 48,25 48,24 48,23 47,22 47,21 47,20 46,20 46,19 45,19 45,18 44,18 43,18 42,17 40,17 39,17 39,16 37,16 36,16 35,16 34,16 33,16 32,17 31,17 30,18 29,19 28,20 27,20 27,21 26,22 26,23 25,24 25,25 25,26 25,27 25,28 25,29 25,30 25,31 26,31 26,32 26,33 27,33 27,34 28,35 29,36 30,36 31,37 32,37 33,38 34,38 35,38 36,38 37,39" fill="none" stroke="#8aff00" stroke-width="3" stroke-linecap="round" stroke-linejoin="round" opacity="0.95">
    <title>4517 c:1</title>
  </polyline>
  <polyline points="28,65 29,65 30,64 31,64 32,64 33,63 33,62 34,62 35,61 36,60 37,59 37,58 38,57 38,56 38,55 38,54 38,53 37,52 36,52 36,51 35,50 34,50 34,49 32,49 32,48 31,48 30,47 29,47 28,46 27,45 27,44 26,44 26,43 26,42 25,42 25,40 24,39 24,37 24,36 23,35 23,34 23,33 23,32 23,31 23,30 24,29 24,28 24,27 25,26 25,25 26,25 26,24 27,23 28,22 29,21 30,21 30,20 31,20 31,19 32,18" fill="none" stroke="#ff8c00" stroke-width="3" stroke-linecap="round" stroke-linejoin="round" opacity="0.95">
    <title>4613 h:2</title>
  </polyline>
</svg>
