<?xml version="1.0" encoding="UTF-8"?>
<svg xmlns="http://www.w3.org/2000/svg" width="121" height="151" viewBox="0 0 121 151">
  <title>particle img94-m40-p1 e:1 a:1 e:1 b:1 c:1 a:1 b:1 d:1</title>
  <metadata>{&quot;entityType&quot;:&quot;particle&quot;,&quot;entityId&quot;:&quot;img94-m40-p1&quot;,&quot;token&quot;:&quot;e:1 a:1 e:1 b:1 c:1 a:1 b:1 d:1&quot;,&quot;signature&quot;:&quot;e:1 a:1 e:1 b:1 c:1 a:1 b:1 d:1&quot;,&quot;imageName&quot;:&quot;page-094.jpg&quot;,&quot;imageId&quot;:94,&quot;bounds&quot;:{&quot;x&quot;:721,&quot;y&quot;:2367,&quot;w&quot;:121,&quot;h&quot;:151},&quot;atoms&quot;:[{&quot;id&quot;:5487,&quot;token&quot;:&quot;e:1&quot;,&quot;particle_id&quot;:&quot;img94-m40-p1&quot;,&quot;molecule_id&quot;:&quot;img94-m40&quot;,&quot;atom_order&quot;:1},{&quot;id&quot;:4223,&quot;token&quot;:&quot;a:1&quot;,&quot;particle_id&quot;:&quot;img94-m40-p1&quot;,&quot;molecule_id&quot;:&quot;img94-m40&quot;,&quot;atom_order&quot;:2},{&quot;id&quot;:4224,&quot;token&quot;:&quot;e:1&quot;,&quot;particle_id&quot;:&quot;img94-m40-p1&quot;,&quot;molecule_id&quot;:&quot;img94-m40&quot;,&quot;atom_order&quot;:3},{&quot;id&quot;:4239,&quot;token&quot;:&quot;b:1&quot;,&quot;particle_id&quot;:&quot;img94-m40-p1&quot;,&quot;molecule_id&quot;:&quot;img94-m40&quot;,&quot;atom_order&quot;:4},{&quot;id&quot;:4237,&quot;token&quot;:&quot;c:1&quot;,&quot;particle_id&quot;:&quot;img94-m40-p1&quot;,&quot;molecule_id&quot;:&quot;img94-m40&quot;,&quot;atom_order&quot;:5},{&quot;id&quot;:4238,&quot;token&quot;:&quot;a:1&quot;,&quot;particle_id&quot;:&quot;img94-m40-p1&quot;,&quot;molecule_id&quot;:&quot;img94-m40&quot;,&quot;atom_order&quot;:6},{&quot;id&quot;:4236,&quot;token&quot;:&quot;b:1&quot;,&quot;particle_id&quot;:&quot;img94-m40-p1&quot;,&quot;molecule_id&quot;:&quot;img94-m40&quot;,&quot;atom_order&quot;:7},{&quot;id&quot;:5488,&quot;token&quot;:&quot;d:1&quot;,&quot;particle_id&quot;:&quot;img94-m40-p1&quot;,&quot;molecule_id&quot;:&quot;img94-m40&quot;,&quot;atom_order&quot;:8}]}</metadata>
  <rect x="0" y="0" width="121" height="151" fill="#f8f0d8"/>
  <image href="file:///C:/Users/HHHES/AppData/Roaming/com.voynichlab.datasetcreator/images/1/33b1988f-7aaa-4207-bfa8-f26b742ac4b1.jpg" x="-721" y="-2367" width="2932" height="3769" opacity="0.92"/>
  <rect x="0.5" y="0.5" width="120" height="150" fill="none" stroke="#111827" stroke-width="1" opacity="0.35"/>
  <polyline points="31,92 31,93 30,93 30,94 29,94 28,94 28,95 27,95 26,95 25,95 24,95 23,95 22,95 21,95 21,94 20,94 19,94 18,94 18,93 17,93 16,93 16,92 16,91 16,90 16,89 16,88 16,87 16,86 17,86 17,85 17,84 17,83 18,83 18,82 18,81 19,81 19,80 19,79 20,79 21,79 21,78 22,78 22,77 23,77 24,77 24,76 25,76 26,76 27,76 27,75" fill="none" stroke="#f2e45c" stroke-width="3" stroke-linecap="round" stroke-linejoin="round" opacity="0.95">
    <title>5487 e:1</title>
  </polyline>
  <polyline points="55,22 55,23 55,24 56,25 56,26 56,27 57,28 57,29 57,30 57,31 57,32 57,33 57,34 57,35 57,36 57,37 57,38 57,39 57,40 57,41 57,42 57,43 57,44 57,45 57,46 57,47 57,48 57,49 57,50 57,51 57,52 57,54 58,55 58,56 58,57 58,58 58,59 58,60 58,61 58,63 58,64 58,65 58,66 58,67 58,68 58,70 58,71 58,72 58,73 58,74 58,75 57,76 57,77 57,78 57,79 57,80 57,81 57,82 57,83 57,84 57,85 57,86 57,87 57,88 57,89 56,90 56,91 56,92 56,93 56,94 56,95 56,96 56,97 56,98 56,100 56,101 56,102 56,103 56,104 56,106 56,107 56,108 56,109 56,110 56,111 56,112 56,113 56,114 56,115 56,116 56,117 56,118 56,119 56,120 56,121 56,122 56,123 56,124 56,125 56,126 57,127 57,128 57,129 57,130 57,131 57,132 57,133 57,134 57,135" fill="none" stroke="#00f0b5" stroke-width="3" stroke-linecap="round" stroke-linejoin="round" opacity="0.95">
    <title>4223 a:1</title>
  </polyline>
  <polyline points="60,39 60,40 59,40 59,41 58,41 57,41 57,42 56,42 55,42 54,42 53,42 52,42 51,42 50,42 50,41 49,41 48,41 47,41 47,40 46,40 45,40 45,39 45,38 45,37 45,36 45,35 45,34 45,33 46,33 46,32 46,31 46,30 47,30 47,29 47,28 48,28 48,27 48,26 49,26 50,26 50,25 51,25 51,24 52,24 53,24 53,23 54,23 55,23 56,23 56,22" fill="none" stroke="#f2e45c" stroke-width="3" stroke-linecap="round" stroke-linejoin="round" opacity="0.95">
    <title>4224 e:1</title>
  </polyline>
  <polyline points="84,65 84,66 84,67 83,68 83,69 83,70 82,70 82,71 82,72 81,72 81,73 80,73 79,74 78,74 78,75 77,75 76,75 75,75 74,75 73,75 72,75 71,75 70,75 70,76 69,76 68,76 67,76 66,76 65,76 64,76 63,76 62,76 61,76 60,76 60,75 59,75 58,75 57,75 56,75 56,74 55,74 54,73 53,73 52,73 51,73 51,72 50,72 50,71" fill="none" stroke="#2f7df6" stroke-width="3" stroke-linecap="round" stroke-linejoin="round" opacity="0.95">
    <title>4239 b:1</title>
  </polyline>
  <polyline points="85,25 84,25 84,26 84,27 84,28 84,29 84,30 84,31 84,32 84,33 84,34 84,35 84,36 85,37 85,38 86,38 87,39 88,39 89,39 90,39 91,39 92,39 93,39 94,39 95,39 96,38 97,38 98,38 98,37 99,37 100,36 101,36 102,35 102,34 103,33 103,32 103,31 104,31 104,30 104,29 105,28 105,27 104,26 104,25 103,24 102,23 102,22 102,21 101,20 101,19 100,19 100,18 99,18 98,17 97,17 96,17 96,16 95,16 94,16 93,16 92,17 91,17 89,18 87,18 86,18 85,18 85,19 84,19 84,20 83,21 83,22 83,23 83,24 83,25 83,26 83,27 84,28 84,29" fill="none" stroke="#8aff00" stroke-width="3" stroke-linecap="round" stroke-linejoin="round" opacity="0.95">
    <title>4237 c:1</title>
  </polyline>
  <polyline points="83,21 83,22 83,23 83,24 83,25 83,26 83,27 83,28 83,29 83,30 83,31 83,32 83,33 83,34 83,35 83,36 84,37 84,38 84,39 84,40 84,42 84,43 84,44 84,45 84,46 84,47 84,49 84,50 84,51 84,52 84,53 84,54 84,55 84,56 84,57 84,58 84,59 84,60 84,61 84,62 84,63 84,64 84,65 84,66 84,67 84,68 84,69 84,70 84,71 84,72 84,73 84,74 84,75" fill="none" stroke="#00f0b5" stroke-width="3" stroke-linecap="round" stroke-linejoin="round" opacity="0.95">
    <title>4238 a:1</title>
  </polyline>
  <polyline points="51,40 52,40 53,40 54,40 55,40 55,41 56,41 57,41 58,41 59,42 60,42 61,42 62,42 63,42 64,42 65,42 66,42 67,42 68,42 70,42 71,42 72,42 73,42 74,42 75,42 76,42 77,42 78,42 79,42 80,42 81,42 82,42 84,41 85,41 86,41 87,41 88,40 89,40 90,40 91,40 91,39 92,39 93,39 93,38 94,38 95,37 96,37 96,36 97,36" fill="none" stroke="#2f7df6" stroke-width="3" stroke-linecap="round" stroke-linejoin="round" opacity="0.95">
    <title>4236 b:1</title>
  </polyline>
  <polyline points="22,78 23,78 23,77 24,77 25,77 26,76 27,76 28,76 29,76 30,76 31,76 31,75 32,75 33,75 34,75 35,74 36,74 37,74 38,74 39,74 40,74 41,74 42,74 43,74 44,73 46,73 47,73 48,73 49,73 50,73 51,73 52,73 53,73 54,73 55,73 55,74 56,74 57,74 58,74 59,74 60,74 61,74 62,74 63,74 65,74 65,75 66,75 67,75 68,75 69,76 70,76 71,76 73,76 74,77" fill="none" stroke="#ff2d55" stroke-width="3" stroke-linecap="round" stroke-linejoin="round" opacity="0.95">
    <title>5488 d:1</title>
  </polyline>
</svg>
