<?xml version="1.0" encoding="UTF-8"?>
<svg xmlns="http://www.w3.org/2000/svg" width="55" height="73" viewBox="0 0 55 73">
  <title>particle img94-m66-p1 e:1 c:1 h:2</title>
  <metadata>{&quot;entityType&quot;:&quot;particle&quot;,&quot;entityId&quot;:&quot;img94-m66-p1&quot;,&quot;token&quot;:&quot;e:1 c:1 h:2&quot;,&quot;signature&quot;:&quot;e:1 c:1 h:2&quot;,&quot;imageName&quot;:&quot;page-094.jpg&quot;,&quot;imageId&quot;:94,&quot;bounds&quot;:{&quot;x&quot;:1153,&quot;y&quot;:2774,&quot;w&quot;:55,&quot;h&quot;:73},&quot;atoms&quot;:[{&quot;id&quot;:4394,&quot;token&quot;:&quot;e:1&quot;,&quot;particle_id&quot;:&quot;img94-m66-p1&quot;,&quot;molecule_id&quot;:&quot;img94-m66&quot;,&quot;atom_order&quot;:1},{&quot;id&quot;:4503,&quot;token&quot;:&quot;c:1&quot;,&quot;particle_id&quot;:&quot;img94-m66-p1&quot;,&quot;molecule_id&quot;:&quot;img94-m66&quot;,&quot;atom_order&quot;:2},{&quot;id&quot;:4608,&quot;token&quot;:&quot;h:2&quot;,&quot;particle_id&quot;:&quot;img94-m66-p1&quot;,&quot;molecule_id&quot;:&quot;img94-m66&quot;,&quot;atom_order&quot;:3}]}</metadata>
  <rect x="0" y="0" width="55" height="73" fill="#f8f0d8"/>
  <image href="file:///C:/Users/HHHES/AppData/Roaming/com.voynichlab.datasetcreator/images/1/33b1988f-7aaa-4207-bfa8-f26b742ac4b1.jpg" x="-1153" y="-2774" width="2932" height="3769" opacity="0.92"/>
  <rect x="0.5" y="0.5" width="54" height="72" fill="none" stroke="#111827" stroke-width="1" opacity="0.35"/>
  <polyline points="31,54 31,55 30,55 30,56 29,56 28,56 28,57 27,57 26,57 25,57 24,57 23,57 22,57 21,57 21,56 20,56 19,56 18,56 18,55 17,55 16,55 16,54 16,53 16,52 16,51 16,50 16,49 16,48 17,48 17,47 17,46 17,45 18,45 18,44 18,43 19,43 19,42 19,41 20,41 21,41 21,40 22,40 22,39 23,39 24,39 24,38 25,38 26,38 27,38 27,37" fill="none" stroke="#f2e45c" stroke-width="3" stroke-linecap="round" stroke-linejoin="round" opacity="0.95">
    <title>4394 e:1</title>
  </polyline>
  <polyline points="33,34 34,34 34,33 35,33 35,32 36,32 36,31 37,30 37,29 37,28 37,27 38,27 38,26 38,25 38,24 38,23 39,22 39,21 39,20 38,19 37,19 37,18 36,18 35,18 34,17 33,17 32,16 31,16 30,16 29,16 28,16 27,16 26,17 25,17 24,17 23,18 22,18 21,18 21,19 20,19 20,20 19,20 19,21 19,22 19,23 19,24 20,25 20,26 21,26 21,27 22,28 22,29 23,29 23,30 24,30 25,31 26,31 27,31 27,32 28,32 29,33 30,33 31,33 32,33 33,33 34,33" fill="none" stroke="#8aff00" stroke-width="3" stroke-linecap="round" stroke-linejoin="round" opacity="0.95">
    <title>4503 c:1</title>
  </polyline>
  <polyline points="28,56 29,55 30,55 30,54 31,54 32,54 32,53 33,53 34,53 34,52 35,52 35,51 35,50 35,49 35,48 35,47 34,47 33,46 33,45 32,45 31,44 30,43 29,42 29,41 28,41 28,40 28,39 27,39 27,38 26,37 26,36 25,36 25,35 24,34 23,34 23,33 22,32 22,31 21,31 21,30 21,29 20,28 20,27 20,26 20,25 20,24 20,23 21,21 21,20 22,20 23,19 23,18 24,18 25,18 25,17 26,17" fill="none" stroke="#ff8c00" stroke-width="3" stroke-linecap="round" stroke-linejoin="round" opacity="0.95">
    <title>4608 h:2</title>
  </polyline>
</svg>
