<?xml version="1.0" encoding="UTF-8"?>
<svg xmlns="http://www.w3.org/2000/svg" width="84" height="93" viewBox="0 0 84 93">
  <title>particle img94-m44-p2 f:1 j:1</title>
  <metadata>{&quot;entityType&quot;:&quot;particle&quot;,&quot;entityId&quot;:&quot;img94-m44-p2&quot;,&quot;token&quot;:&quot;f:1 j:1&quot;,&quot;signature&quot;:&quot;f:1 j:1&quot;,&quot;imageName&quot;:&quot;page-094.jpg&quot;,&quot;imageId&quot;:94,&quot;bounds&quot;:{&quot;x&quot;:1421,&quot;y&quot;:2517,&quot;w&quot;:84,&quot;h&quot;:93},&quot;atoms&quot;:[{&quot;id&quot;:4319,&quot;token&quot;:&quot;f:1&quot;,&quot;particle_id&quot;:&quot;img94-m44-p2&quot;,&quot;molecule_id&quot;:&quot;img94-m44&quot;,&quot;atom_order&quot;:1},{&quot;id&quot;:4334,&quot;token&quot;:&quot;j:1&quot;,&quot;particle_id&quot;:&quot;img94-m44-p2&quot;,&quot;molecule_id&quot;:&quot;img94-m44&quot;,&quot;atom_order&quot;:2}]}</metadata>
  <rect x="0" y="0" width="84" height="93" fill="#f8f0d8"/>
  <image href="file:///C:/Users/HHHES/AppData/Roaming/com.voynichlab.datasetcreator/images/1/33b1988f-7aaa-4207-bfa8-f26b742ac4b1.jpg" x="-1421" y="-2517" width="2932" height="3769" opacity="0.92"/>
  <rect x="0.5" y="0.5" width="83" height="92" fill="none" stroke="#111827" stroke-width="1" opacity="0.35"/>
  <polyline points="49,28 49,29 49,30 50,30 50,31 50,32 51,32 51,33 52,34 52,35 53,35 53,36 54,37 54,38 55,38 55,39 56,39 56,40 57,40 57,41 57,42 58,42 58,43 58,44 59,44 59,45 60,45 60,46 61,47 61,48 62,48 62,49" fill="none" stroke="#00a2ff" stroke-width="3" stroke-linecap="round" stroke-linejoin="round" opacity="0.95">
    <title>4319 f:1</title>
  </polyline>
  <polyline points="49,29 49,28 49,27 49,26 50,26 50,25 50,24 51,24 51,23 52,22 52,21 52,20 53,20 54,19 54,18 55,18 56,18 56,17 57,17 58,17 59,17 60,17 61,17 62,16 63,16 63,17 64,17 65,17 65,18 66,18 66,19 66,20 67,20 67,21 67,22 68,22 68,23 68,24 68,25 67,26 67,27 66,27 66,28 65,28 65,29 64,30 64,31 63,31 63,32 62,32 62,33 61,33 61,34 60,34 60,35 59,35 59,36 58,36 57,37 56,37 55,38 54,38 54,39 53,39 52,40 52,41 51,41 50,42 50,43 49,43 48,43 48,44 47,44 47,45 46,45 46,46 45,46 45,47 44,48 43,49 42,50 41,50 41,51 40,51 40,52 39,52 38,53 37,53 36,54 35,54 35,55 34,55 33,56 32,56 32,57 31,57 30,58 29,59 29,60 28,60 27,61 27,62 26,63 26,64 25,65 24,66 24,67 23,67 23,68 22,69 22,70 21,71 21,72 20,72 20,73 19,74 19,75 18,76 17,76 17,77 16,77" fill="none" stroke="#4a9e6a" stroke-width="3" stroke-linecap="round" stroke-linejoin="round" opacity="0.95">
    <title>4334 j:1</title>
  </polyline>
</svg>
