<?xml version="1.0" encoding="UTF-8"?>
<svg xmlns="http://www.w3.org/2000/svg" width="53" height="72" viewBox="0 0 53 72">
  <title>particle img94-m21-p5 e:1 h:1</title>
  <metadata>{&quot;entityType&quot;:&quot;particle&quot;,&quot;entityId&quot;:&quot;img94-m21-p5&quot;,&quot;token&quot;:&quot;e:1 h:1&quot;,&quot;signature&quot;:&quot;e:1 h:1&quot;,&quot;imageName&quot;:&quot;page-094.jpg&quot;,&quot;imageId&quot;:94,&quot;bounds&quot;:{&quot;x&quot;:1713,&quot;y&quot;:794,&quot;w&quot;:53,&quot;h&quot;:72},&quot;atoms&quot;:[{&quot;id&quot;:2882,&quot;token&quot;:&quot;e:1&quot;,&quot;particle_id&quot;:&quot;img94-m21-p5&quot;,&quot;molecule_id&quot;:&quot;img94-m21&quot;,&quot;atom_order&quot;:1},{&quot;id&quot;:2909,&quot;token&quot;:&quot;h:1&quot;,&quot;particle_id&quot;:&quot;img94-m21-p5&quot;,&quot;molecule_id&quot;:&quot;img94-m21&quot;,&quot;atom_order&quot;:2}]}</metadata>
  <rect x="0" y="0" width="53" height="72" fill="#f8f0d8"/>
  <image href="file:///C:/Users/HHHES/AppData/Roaming/com.voynichlab.datasetcreator/images/1/33b1988f-7aaa-4207-bfa8-f26b742ac4b1.jpg" x="-1713" y="-794" width="2932" height="3769" opacity="0.92"/>
  <rect x="0.5" y="0.5" width="52" height="71" fill="none" stroke="#111827" stroke-width="1" opacity="0.35"/>
  <polyline points="31,33 31,34 30,34 30,35 29,35 28,35 28,36 27,36 26,36 25,36 24,36 23,36 22,36 21,36 21,35 20,35 19,35 18,35 18,34 17,34 16,34 16,33 16,32 16,31 16,30 16,29 16,28 16,27 17,27 17,26 17,25 17,24 18,24 18,23 18,22 19,22 19,21 19,20 20,20 21,20 21,19 22,19 22,18 23,18 24,18 24,17 25,17 26,17 27,17 27,16" fill="none" stroke="#f2e45c" stroke-width="3" stroke-linecap="round" stroke-linejoin="round" opacity="0.95">
    <title>2882 e:1</title>
  </polyline>
  <polyline points="27,16 28,16 28,17 29,17 30,18 31,18 31,19 32,19 32,20 33,20 33,21 34,21 34,22 35,23 35,24 36,24 36,25 36,26 37,26 37,27 37,28 37,29 37,30 37,31 37,32 37,33 37,34 37,35 37,36 37,37 37,38 37,39 37,40 36,41 36,42 36,43 35,44 35,45 35,46 34,46 34,47 34,48 33,49 32,49 32,50 31,51 31,52 30,52 30,53 29,53 29,54 28,54 28,55 27,55 27,56" fill="none" stroke="#ff8c00" stroke-width="3" stroke-linecap="round" stroke-linejoin="round" opacity="0.95">
    <title>2909 h:1</title>
  </polyline>
</svg>
