<?xml version="1.0" encoding="UTF-8"?>
<svg xmlns="http://www.w3.org/2000/svg" width="99" height="84" viewBox="0 0 99 84">
  <title>particle img94-m25-p1 a:1 m:1 c:1</title>
  <metadata>{&quot;entityType&quot;:&quot;particle&quot;,&quot;entityId&quot;:&quot;img94-m25-p1&quot;,&quot;token&quot;:&quot;a:1 m:1 c:1&quot;,&quot;signature&quot;:&quot;a:1 m:1 c:1&quot;,&quot;imageName&quot;:&quot;page-094.jpg&quot;,&quot;imageId&quot;:94,&quot;bounds&quot;:{&quot;x&quot;:818,&quot;y&quot;:802,&quot;w&quot;:99,&quot;h&quot;:84},&quot;atoms&quot;:[{&quot;id&quot;:2851,&quot;token&quot;:&quot;a:1&quot;,&quot;particle_id&quot;:&quot;img94-m25-p1&quot;,&quot;molecule_id&quot;:&quot;img94-m25&quot;,&quot;atom_order&quot;:1},{&quot;id&quot;:3063,&quot;token&quot;:&quot;m:1&quot;,&quot;particle_id&quot;:&quot;img94-m25-p1&quot;,&quot;molecule_id&quot;:&quot;img94-m25&quot;,&quot;atom_order&quot;:2},{&quot;id&quot;:2849,&quot;token&quot;:&quot;c:1&quot;,&quot;particle_id&quot;:&quot;img94-m25-p1&quot;,&quot;molecule_id&quot;:&quot;img94-m25&quot;,&quot;atom_order&quot;:3}]}</metadata>
  <rect x="0" y="0" width="99" height="84" fill="#f8f0d8"/>
  <image href="file:///C:/Users/HHHES/AppData/Roaming/com.voynichlab.datasetcreator/images/1/33b1988f-7aaa-4207-bfa8-f26b742ac4b1.jpg" x="-818" y="-802" width="2932" height="3769" opacity="0.92"/>
  <rect x="0.5" y="0.5" width="98" height="83" fill="none" stroke="#111827" stroke-width="1" opacity="0.35"/>
  <polyline points="35,45 35,46 35,47 35,48 35,49 35,50 35,51 34,51 34,52 34,53 34,54 34,55 34,56 34,57 34,58 34,59 34,60 34,61 33,61 33,62 33,63 33,64 33,65 32,65 32,66 32,67 32,68" fill="none" stroke="#00f0b5" stroke-width="3" stroke-linecap="round" stroke-linejoin="round" opacity="0.95">
    <title>2851 a:1</title>
  </polyline>
  <polyline points="35,46 35,45 35,44 35,43 36,43 36,42 36,41 36,40 36,39 36,38 36,37 36,36 36,35 36,34 36,33 37,33 37,32 37,31 37,30 37,29 37,28 37,27 37,26 37,25 37,24 37,23 37,22 37,21 37,20 37,19 37,18 37,17 37,16 36,16 35,17 34,18 33,18 32,19 31,19 31,20 30,20 29,21 28,21 27,22 26,22 25,23 24,23 24,24 23,24 23,25 22,25 22,26 21,26 21,27 20,27 20,28 19,28 19,29 18,29 18,30 17,30 17,31 17,32 16,32 16,33 17,33 17,34 18,34 19,34 20,34 21,34 22,34 23,34 24,34 25,34 26,34 27,33 28,33 29,33 30,33 31,33 32,33 33,33 34,33 35,33 36,33 37,33 38,33 39,33 40,33 41,33 42,33 43,33 44,33 45,33 46,33 47,33 48,32 49,32 50,32 51,32 52,32 53,32 54,31 55,31 56,31 57,31 58,31 59,31 60,31 61,31 62,30 63,30 64,30 65,30 66,30 67,30 68,30 69,30 70,30 71,30" fill="none" stroke="#ff00ff" stroke-width="3" stroke-linecap="round" stroke-linejoin="round" opacity="0.95">
    <title>3063 m:1</title>
  </polyline>
  <polyline points="65,35 65,36 64,36 64,37 64,38 63,38 63,39 63,40 63,41 63,42 63,43 63,44 63,45 64,45 64,46 65,46 65,47 66,48 67,48 68,48 69,48 69,49 70,49 71,49 72,49 73,49 74,49 75,49 76,49 77,49 77,48 78,48 79,48 79,47 79,46 80,46 80,45 81,45 81,44 81,43 82,43 82,42 82,41 83,41 83,40 83,39 83,38 83,37 83,36 83,35 82,35 82,34 82,33 81,33 81,32 80,32 80,31 79,31 79,30 78,30 77,30 77,29 76,29 75,29 74,29 73,29 72,29 71,29 70,29 69,30 68,30 68,31 67,31 67,32 66,32 65,32 65,33 64,33 64,34 64,35" fill="none" stroke="#8aff00" stroke-width="3" stroke-linecap="round" stroke-linejoin="round" opacity="0.95">
    <title>2849 c:1</title>
  </polyline>
</svg>
