<?xml version="1.0" encoding="UTF-8"?>
<svg xmlns="http://www.w3.org/2000/svg" width="60" height="76" viewBox="0 0 60 76">
  <title>particle img94-m80-p2 e:1 c:1 h:2</title>
  <metadata>{&quot;entityType&quot;:&quot;particle&quot;,&quot;entityId&quot;:&quot;img94-m80-p2&quot;,&quot;token&quot;:&quot;e:1 c:1 h:2&quot;,&quot;signature&quot;:&quot;e:1 c:1 h:2&quot;,&quot;imageName&quot;:&quot;page-094.jpg&quot;,&quot;imageId&quot;:94,&quot;bounds&quot;:{&quot;x&quot;:1293,&quot;y&quot;:2933,&quot;w&quot;:60,&quot;h&quot;:76},&quot;atoms&quot;:[{&quot;id&quot;:4485,&quot;token&quot;:&quot;e:1&quot;,&quot;particle_id&quot;:&quot;img94-m80-p2&quot;,&quot;molecule_id&quot;:&quot;img94-m80&quot;,&quot;atom_order&quot;:1},{&quot;id&quot;:4516,&quot;token&quot;:&quot;c:1&quot;,&quot;particle_id&quot;:&quot;img94-m80-p2&quot;,&quot;molecule_id&quot;:&quot;img94-m80&quot;,&quot;atom_order&quot;:2},{&quot;id&quot;:4612,&quot;token&quot;:&quot;h:2&quot;,&quot;particle_id&quot;:&quot;img94-m80-p2&quot;,&quot;molecule_id&quot;:&quot;img94-m80&quot;,&quot;atom_order&quot;:3}]}</metadata>
  <rect x="0" y="0" width="60" height="76" fill="#f8f0d8"/>
  <image href="file:///C:/Users/HHHES/AppData/Roaming/com.voynichlab.datasetcreator/images/1/33b1988f-7aaa-4207-bfa8-f26b742ac4b1.jpg" x="-1293" y="-2933" width="2932" height="3769" opacity="0.92"/>
  <rect x="0.5" y="0.5" width="59" height="75" fill="none" stroke="#111827" stroke-width="1" opacity="0.35"/>
  <polyline points="31,57 31,58 30,58 30,59 29,59 28,59 28,60 27,60 26,60 25,60 24,60 23,60 22,60 21,60 21,59 20,59 19,59 18,59 18,58 17,58 16,58 16,57 16,56 16,55 16,54 16,53 16,52 16,51 17,51 17,50 17,49 17,48 18,48 18,47 18,46 19,46 19,45 19,44 20,44 21,44 21,43 22,43 22,42 23,42 24,42 24,41 25,41 26,41 27,41 27,40" fill="none" stroke="#f2e45c" stroke-width="3" stroke-linecap="round" stroke-linejoin="round" opacity="0.95">
    <title>4485 e:1</title>
  </polyline>
  <polyline points="30,34 31,34 32,34 33,33 34,33 35,32 36,32 37,32 38,31 39,30 40,30 41,29 42,29 42,28 43,28 43,27 44,26 44,25 44,24 44,23 43,22 43,21 42,21 41,20 41,19 40,19 40,18 39,18 38,18 37,17 36,17 35,17 34,17 33,17 32,17 31,17 30,17 29,17 28,18 27,18 26,19 25,19 24,19 23,20 22,21 22,22 21,22 21,23 21,24 21,25 21,26 21,27 21,28 21,29 21,30 22,31 23,32 24,33 25,34 26,34 27,35 28,35 28,36 29,36 30,36 31,36 32,36 32,35 33,35" fill="none" stroke="#8aff00" stroke-width="3" stroke-linecap="round" stroke-linejoin="round" opacity="0.95">
    <title>4516 c:1</title>
  </polyline>
  <polyline points="29,59 30,59 30,58 31,58 32,58 33,58 33,57 34,57 34,56 34,55 34,54 34,53 34,52 34,51 34,50 34,49 34,48 33,47 33,46 32,46 32,45 31,44 30,44 30,43 29,43 28,42 28,41 27,41 27,40 26,40 26,39 25,39 25,38 24,38 24,37 23,37 23,36 22,36 22,35 21,35 21,34 21,33 21,32 20,31 20,30 20,29 20,28 20,27 20,26 20,25 21,24 21,23 22,22 22,21 23,21 23,20 24,20 24,19 25,18 26,18 27,17 28,17 28,16 29,16" fill="none" stroke="#ff8c00" stroke-width="3" stroke-linecap="round" stroke-linejoin="round" opacity="0.95">
    <title>4612 h:2</title>
  </polyline>
</svg>
