<?xml version="1.0" encoding="UTF-8"?>
<svg xmlns="http://www.w3.org/2000/svg" width="91" height="54" viewBox="0 0 91 54">
  <title>particle img94-m35-p3 e:1 g:1 e:1</title>
  <metadata>{&quot;entityType&quot;:&quot;particle&quot;,&quot;entityId&quot;:&quot;img94-m35-p3&quot;,&quot;token&quot;:&quot;e:1 g:1 e:1&quot;,&quot;signature&quot;:&quot;e:1 g:1 e:1&quot;,&quot;imageName&quot;:&quot;page-094.jpg&quot;,&quot;imageId&quot;:94,&quot;bounds&quot;:{&quot;x&quot;:1793,&quot;y&quot;:955,&quot;w&quot;:91,&quot;h&quot;:54},&quot;atoms&quot;:[{&quot;id&quot;:2995,&quot;token&quot;:&quot;e:1&quot;,&quot;particle_id&quot;:&quot;img94-m35-p3&quot;,&quot;molecule_id&quot;:&quot;img94-m35&quot;,&quot;atom_order&quot;:1},{&quot;id&quot;:3001,&quot;token&quot;:&quot;g:1&quot;,&quot;particle_id&quot;:&quot;img94-m35-p3&quot;,&quot;molecule_id&quot;:&quot;img94-m35&quot;,&quot;atom_order&quot;:2},{&quot;id&quot;:2996,&quot;token&quot;:&quot;e:1&quot;,&quot;particle_id&quot;:&quot;img94-m35-p3&quot;,&quot;molecule_id&quot;:&quot;img94-m35&quot;,&quot;atom_order&quot;:3}]}</metadata>
  <rect x="0" y="0" width="91" height="54" fill="#f8f0d8"/>
  <image href="file:///C:/Users/HHHES/AppData/Roaming/com.voynichlab.datasetcreator/images/1/33b1988f-7aaa-4207-bfa8-f26b742ac4b1.jpg" x="-1793" y="-955" width="2932" height="3769" opacity="0.92"/>
  <rect x="0.5" y="0.5" width="90" height="53" fill="none" stroke="#111827" stroke-width="1" opacity="0.35"/>
  <polyline points="31,33 31,34 30,34 30,35 29,35 28,35 28,36 27,36 26,36 25,36 24,36 23,36 22,36 21,36 21,35 20,35 19,35 18,35 18,34 17,34 16,34 16,33 16,32 16,31 16,30 16,29 16,28 16,27 17,27 17,26 17,25 17,24 18,24 18,23 18,22 19,22 19,21 19,20 20,20 21,20 21,19 22,19 22,18 23,18 24,18 24,17 25,17 26,17 27,17 27,16" fill="none" stroke="#f2e45c" stroke-width="3" stroke-linecap="round" stroke-linejoin="round" opacity="0.95">
    <title>2995 e:1</title>
  </polyline>
  <polyline points="27,17 28,17 29,17 30,17 31,17 32,17 33,17 34,17 36,17 37,17 38,17 39,17 40,17 41,17 42,17 43,17 44,17 45,17 46,17 48,17 49,17 50,17 51,17 52,18 53,18 54,18 55,18 56,18 57,18 58,18 59,18 60,18 61,18 62,18 63,18 64,18 65,18 66,18 67,18 68,18 69,18 69,19 70,19 71,19" fill="none" stroke="#7c3cff" stroke-width="3" stroke-linecap="round" stroke-linejoin="round" opacity="0.95">
    <title>3001 g:1</title>
  </polyline>
  <polyline points="75,35 75,36 74,36 74,37 73,37 72,37 72,38 71,38 70,38 69,38 68,38 67,38 66,38 65,38 65,37 64,37 63,37 62,37 62,36 61,36 60,36 60,35 60,34 60,33 60,32 60,31 60,30 60,29 61,29 61,28 61,27 61,26 62,26 62,25 62,24 63,24 63,23 63,22 64,22 65,22 65,21 66,21 66,20 67,20 68,20 68,19 69,19 70,19 71,19 71,18" fill="none" stroke="#f2e45c" stroke-width="3" stroke-linecap="round" stroke-linejoin="round" opacity="0.95">
    <title>2996 e:1</title>
  </polyline>
</svg>
