<?xml version="1.0" encoding="UTF-8"?>
<svg xmlns="http://www.w3.org/2000/svg" width="68" height="87" viewBox="0 0 68 87">
  <title>particle img94-m38-p4 f:1 i:1 d:1</title>
  <metadata>{&quot;entityType&quot;:&quot;particle&quot;,&quot;entityId&quot;:&quot;img94-m38-p4&quot;,&quot;token&quot;:&quot;f:1 i:1 d:1&quot;,&quot;signature&quot;:&quot;f:1 i:1 d:1&quot;,&quot;imageName&quot;:&quot;page-094.jpg&quot;,&quot;imageId&quot;:94,&quot;bounds&quot;:{&quot;x&quot;:1196,&quot;y&quot;:942,&quot;w&quot;:68,&quot;h&quot;:87},&quot;atoms&quot;:[{&quot;id&quot;:3014,&quot;token&quot;:&quot;f:1&quot;,&quot;particle_id&quot;:&quot;img94-m38-p4&quot;,&quot;molecule_id&quot;:&quot;img94-m38&quot;,&quot;atom_order&quot;:1},{&quot;id&quot;:3023,&quot;token&quot;:&quot;i:1&quot;,&quot;particle_id&quot;:&quot;img94-m38-p4&quot;,&quot;molecule_id&quot;:&quot;img94-m38&quot;,&quot;atom_order&quot;:2},{&quot;id&quot;:3026,&quot;token&quot;:&quot;d:1&quot;,&quot;particle_id&quot;:&quot;img94-m38-p4&quot;,&quot;molecule_id&quot;:&quot;img94-m38&quot;,&quot;atom_order&quot;:3}]}</metadata>
  <rect x="0" y="0" width="68" height="87" fill="#f8f0d8"/>
  <image href="file:///C:/Users/HHHES/AppData/Roaming/com.voynichlab.datasetcreator/images/1/33b1988f-7aaa-4207-bfa8-f26b742ac4b1.jpg" x="-1196" y="-942" width="2932" height="3769" opacity="0.92"/>
  <rect x="0.5" y="0.5" width="67" height="86" fill="none" stroke="#111827" stroke-width="1" opacity="0.35"/>
  <polyline points="28,50 28,51 28,52 29,52 29,53 29,54 30,54 30,55 31,56 31,57 32,57 32,58 33,59 33,60 34,60 34,61 35,61 35,62 36,62 36,63 36,64 37,64 37,65 37,66 38,66 38,67 39,67 39,68 40,69 40,70 41,70 41,71" fill="none" stroke="#00a2ff" stroke-width="3" stroke-linecap="round" stroke-linejoin="round" opacity="0.95">
    <title>3014 f:1</title>
  </polyline>
  <polyline points="28,52 29,52 30,52 31,52 32,52 33,52 34,52 35,52 36,52 37,51 38,51 39,51 40,51 40,50 41,50 42,50 43,49 44,49 44,48 45,48 46,48 46,47 47,47 47,46 48,46 48,45 49,44 50,43 50,42 50,41 51,41 51,40 51,39 52,38 52,37 52,36 52,35 52,34 52,33 52,32 52,31 52,30 52,29 52,28 52,27 51,27 51,26 51,25 50,25 49,24 48,23 47,23" fill="none" stroke="#00ff7f" stroke-width="3" stroke-linecap="round" stroke-linejoin="round" opacity="0.95">
    <title>3023 i:1</title>
  </polyline>
  <polyline points="16,24 16,23 17,23 17,22 18,22 18,21 19,21 19,20 20,20 21,19 22,19 22,18 23,18 24,18 24,17 25,17 26,17 26,16 27,16 28,16 29,16 30,16 31,16 32,16 33,16 34,16 35,16 36,16 37,16 38,16 38,17 39,17 40,17 41,18 42,18 42,19 43,19 44,20 45,20 45,21 46,21 46,22 47,22 47,23 48,23" fill="none" stroke="#ff2d55" stroke-width="3" stroke-linecap="round" stroke-linejoin="round" opacity="0.95">
    <title>3026 d:1</title>
  </polyline>
</svg>
