<?xml version="1.0" encoding="UTF-8"?>
<svg xmlns="http://www.w3.org/2000/svg" width="52" height="74" viewBox="0 0 52 74">
  <title>particle img94-m14-p1 e:1 c:1 h:2</title>
  <metadata>{&quot;entityType&quot;:&quot;particle&quot;,&quot;entityId&quot;:&quot;img94-m14-p1&quot;,&quot;token&quot;:&quot;e:1 c:1 h:2&quot;,&quot;signature&quot;:&quot;e:1 c:1 h:2&quot;,&quot;imageName&quot;:&quot;page-094.jpg&quot;,&quot;imageId&quot;:94,&quot;bounds&quot;:{&quot;x&quot;:1415,&quot;y&quot;:696,&quot;w&quot;:52,&quot;h&quot;:74},&quot;atoms&quot;:[{&quot;id&quot;:2772,&quot;token&quot;:&quot;e:1&quot;,&quot;particle_id&quot;:&quot;img94-m14-p1&quot;,&quot;molecule_id&quot;:&quot;img94-m14&quot;,&quot;atom_order&quot;:1},{&quot;id&quot;:2796,&quot;token&quot;:&quot;c:1&quot;,&quot;particle_id&quot;:&quot;img94-m14-p1&quot;,&quot;molecule_id&quot;:&quot;img94-m14&quot;,&quot;atom_order&quot;:2},{&quot;id&quot;:5500,&quot;token&quot;:&quot;h:2&quot;,&quot;particle_id&quot;:&quot;img94-m14-p1&quot;,&quot;molecule_id&quot;:&quot;img94-m14&quot;,&quot;atom_order&quot;:3}]}</metadata>
  <rect x="0" y="0" width="52" height="74" fill="#f8f0d8"/>
  <image href="file:///C:/Users/HHHES/AppData/Roaming/com.voynichlab.datasetcreator/images/1/33b1988f-7aaa-4207-bfa8-f26b742ac4b1.jpg" x="-1415" y="-696" width="2932" height="3769" opacity="0.92"/>
  <rect x="0.5" y="0.5" width="51" height="73" fill="none" stroke="#111827" stroke-width="1" opacity="0.35"/>
  <polyline points="31,55 31,56 30,56 30,57 29,57 28,57 28,58 27,58 26,58 25,58 24,58 23,58 22,58 21,58 21,57 20,57 19,57 18,57 18,56 17,56 16,56 16,55 16,54 16,53 16,52 16,51 16,50 16,49 17,49 17,48 17,47 17,46 18,46 18,45 18,44 19,44 19,43 19,42 20,42 21,42 21,41 22,41 22,40 23,40 24,40 24,39 25,39 26,39 27,39 27,38" fill="none" stroke="#f2e45c" stroke-width="3" stroke-linecap="round" stroke-linejoin="round" opacity="0.95">
    <title>2772 e:1</title>
  </polyline>
  <polyline points="18,24 18,25 17,25 17,26 17,27 16,27 16,28 16,29 16,30 16,31 16,32 16,33 16,34 17,34 17,35 18,35 18,36 19,37 20,37 21,37 22,37 22,38 23,38 24,38 25,38 26,38 27,38 28,38 29,38 30,38 30,37 31,37 32,37 32,36 32,35 33,35 33,34 34,34 34,33 34,32 35,32 35,31 35,30 36,30 36,29 36,28 36,27 36,26 36,25 36,24 35,24 35,23 35,22 34,22 34,21 33,21 33,20 32,20 32,19 31,19 30,19 30,18 29,18 28,18 27,18 26,18 25,18 24,18 23,18 22,19 21,19 21,20 20,20 20,21 19,21 18,21 18,22 17,22 17,23 17,24" fill="none" stroke="#8aff00" stroke-width="3" stroke-linecap="round" stroke-linejoin="round" opacity="0.95">
    <title>2796 c:1</title>
  </polyline>
  <polyline points="26,58 27,58 28,58 28,57 29,57 30,57 30,56 31,56 32,56 32,55 32,54 32,53 33,53 33,52 33,51 32,50 32,49 32,48 32,47 31,47 31,46 31,45 30,45 30,44 30,43 29,43 29,42 28,42 28,41 28,40 27,40 27,39 26,39 26,38 25,37 25,36 24,36 24,35 23,34 22,33 21,32 21,31 20,30 20,29 19,28 19,27 18,26 18,25 18,24 18,23 18,22 18,21 18,20 18,19 19,18 20,17 21,16 22,16 23,16 24,16 25,16 26,16 27,16 28,17 29,17 30,17" fill="none" stroke="#ff8c00" stroke-width="3" stroke-linecap="round" stroke-linejoin="round" opacity="0.95">
    <title>5500 h:2</title>
  </polyline>
</svg>
