<?xml version="1.0" encoding="UTF-8"?>
<svg xmlns="http://www.w3.org/2000/svg" width="85" height="54" viewBox="0 0 85 54">
  <title>particle img94-m60-p2 e:1 g:1 e:1</title>
  <metadata>{&quot;entityType&quot;:&quot;particle&quot;,&quot;entityId&quot;:&quot;img94-m60-p2&quot;,&quot;token&quot;:&quot;e:1 g:1 e:1&quot;,&quot;signature&quot;:&quot;e:1 g:1 e:1&quot;,&quot;imageName&quot;:&quot;page-094.jpg&quot;,&quot;imageId&quot;:94,&quot;bounds&quot;:{&quot;x&quot;:1957,&quot;y&quot;:2738,&quot;w&quot;:85,&quot;h&quot;:54},&quot;atoms&quot;:[{&quot;id&quot;:4408,&quot;token&quot;:&quot;e:1&quot;,&quot;particle_id&quot;:&quot;img94-m60-p2&quot;,&quot;molecule_id&quot;:&quot;img94-m60&quot;,&quot;atom_order&quot;:1},{&quot;id&quot;:4467,&quot;token&quot;:&quot;g:1&quot;,&quot;particle_id&quot;:&quot;img94-m60-p2&quot;,&quot;molecule_id&quot;:&quot;img94-m60&quot;,&quot;atom_order&quot;:2},{&quot;id&quot;:4409,&quot;token&quot;:&quot;e:1&quot;,&quot;particle_id&quot;:&quot;img94-m60-p2&quot;,&quot;molecule_id&quot;:&quot;img94-m60&quot;,&quot;atom_order&quot;:3}]}</metadata>
  <rect x="0" y="0" width="85" height="54" fill="#f8f0d8"/>
  <image href="file:///C:/Users/HHHES/AppData/Roaming/com.voynichlab.datasetcreator/images/1/33b1988f-7aaa-4207-bfa8-f26b742ac4b1.jpg" x="-1957" y="-2738" width="2932" height="3769" opacity="0.92"/>
  <rect x="0.5" y="0.5" width="84" height="53" fill="none" stroke="#111827" stroke-width="1" opacity="0.35"/>
  <polyline points="31,35 31,36 30,36 30,37 29,37 28,37 28,38 27,38 26,38 25,38 24,38 23,38 22,38 21,38 21,37 20,37 19,37 18,37 18,36 17,36 16,36 16,35 16,34 16,33 16,32 16,31 16,30 16,29 17,29 17,28 17,27 17,26 18,26 18,25 18,24 19,24 19,23 19,22 20,22 21,22 21,21 22,21 22,20 23,20 24,20 24,19 25,19 26,19 27,19 27,18" fill="none" stroke="#f2e45c" stroke-width="3" stroke-linecap="round" stroke-linejoin="round" opacity="0.95">
    <title>4408 e:1</title>
  </polyline>
  <polyline points="25,19 26,19 26,18 27,18 28,18 29,18 30,18 30,17 31,17 32,17 33,17 34,17 35,17 36,17 38,17 40,17 41,17 42,17 43,17 44,17 45,17 48,17 50,17 51,17 52,17 53,17 54,17 55,17 57,17 58,17 59,17 60,17 61,17 62,17 63,17 64,17 65,17 65,16" fill="none" stroke="#7c3cff" stroke-width="3" stroke-linecap="round" stroke-linejoin="round" opacity="0.95">
    <title>4467 g:1</title>
  </polyline>
  <polyline points="69,33 69,34 68,34 68,35 67,35 66,35 66,36 65,36 64,36 63,36 62,36 61,36 60,36 59,36 59,35 58,35 57,35 56,35 56,34 55,34 54,34 54,33 54,32 54,31 54,30 54,29 54,28 54,27 55,27 55,26 55,25 55,24 56,24 56,23 56,22 57,22 57,21 57,20 58,20 59,20 59,19 60,19 60,18 61,18 62,18 62,17 63,17 64,17 65,17 65,16" fill="none" stroke="#f2e45c" stroke-width="3" stroke-linecap="round" stroke-linejoin="round" opacity="0.95">
    <title>4409 e:1</title>
  </polyline>
</svg>
