<?xml version="1.0" encoding="UTF-8"?>
<svg xmlns="http://www.w3.org/2000/svg" width="104" height="113" viewBox="0 0 104 113">
  <title>particle img94-m57-p5 a:1 m:1 c:1 a:1</title>
  <metadata>{&quot;entityType&quot;:&quot;particle&quot;,&quot;entityId&quot;:&quot;img94-m57-p5&quot;,&quot;token&quot;:&quot;a:1 m:1 c:1 a:1&quot;,&quot;signature&quot;:&quot;a:1 m:1 c:1 a:1&quot;,&quot;imageName&quot;:&quot;page-094.jpg&quot;,&quot;imageId&quot;:94,&quot;bounds&quot;:{&quot;x&quot;:1496,&quot;y&quot;:2636,&quot;w&quot;:104,&quot;h&quot;:113},&quot;atoms&quot;:[{&quot;id&quot;:4535,&quot;token&quot;:&quot;a:1&quot;,&quot;particle_id&quot;:&quot;img94-m57-p5&quot;,&quot;molecule_id&quot;:&quot;img94-m57&quot;,&quot;atom_order&quot;:1},{&quot;id&quot;:4579,&quot;token&quot;:&quot;m:1&quot;,&quot;particle_id&quot;:&quot;img94-m57-p5&quot;,&quot;molecule_id&quot;:&quot;img94-m57&quot;,&quot;atom_order&quot;:2},{&quot;id&quot;:4492,&quot;token&quot;:&quot;c:1&quot;,&quot;particle_id&quot;:&quot;img94-m57-p5&quot;,&quot;molecule_id&quot;:&quot;img94-m57&quot;,&quot;atom_order&quot;:3},{&quot;id&quot;:4536,&quot;token&quot;:&quot;a:1&quot;,&quot;particle_id&quot;:&quot;img94-m57-p5&quot;,&quot;molecule_id&quot;:&quot;img94-m57&quot;,&quot;atom_order&quot;:4}]}</metadata>
  <rect x="0" y="0" width="104" height="113" fill="#f8f0d8"/>
  <image href="file:///C:/Users/HHHES/AppData/Roaming/com.voynichlab.datasetcreator/images/1/33b1988f-7aaa-4207-bfa8-f26b742ac4b1.jpg" x="-1496" y="-2636" width="2932" height="3769" opacity="0.92"/>
  <rect x="0.5" y="0.5" width="103" height="112" fill="none" stroke="#111827" stroke-width="1" opacity="0.35"/>
  <polyline points="33,95 33,94 33,93 33,92 34,91 34,90 34,89 34,88 34,87 34,86 34,85 34,84 34,83 34,81 34,80 34,79 34,78 34,77 34,76 34,75 34,74 34,73 35,72 35,71 35,70 35,69 35,68 35,67 35,66 35,65 35,64 35,63 35,62 35,61 35,60 35,59 35,58 35,57 36,57 36,56 36,55 36,54 36,53 36,52 36,51 36,50" fill="none" stroke="#00f0b5" stroke-width="3" stroke-linecap="round" stroke-linejoin="round" opacity="0.95">
    <title>4535 a:1</title>
  </polyline>
  <polyline points="36,52 36,51 36,50 36,49 36,48 36,47 36,46 36,45 36,44 36,43 36,42 37,41 37,40 37,39 37,38 37,37 37,36 37,35 37,34 37,33 38,32 38,31 38,30 38,29 39,29 39,28 39,27 39,26 39,25 39,24 39,23 39,22 39,21 39,20 39,19 39,18 39,17 39,16 38,16 37,17 36,17 36,18 35,18 34,19 33,19 32,20 31,21 31,22 30,22 29,23 28,24 27,25 26,26 25,27 24,28 23,29 22,30 21,31 21,32 20,33 19,34 19,35 18,36 18,37 17,37 17,38 17,39 16,39 16,40 17,40 18,40 20,40 21,40 22,40 24,40 25,40 26,40 28,41 29,41 30,41 32,41 33,41 34,41 35,41 36,41 37,40 38,40 39,40 40,40 42,40 44,40 45,40 46,40 47,40 48,40 49,40 52,40 55,40 57,40 59,40 60,40 61,40 62,40 63,40 66,40 68,40 71,40 73,40 74,40" fill="none" stroke="#ff00ff" stroke-width="3" stroke-linecap="round" stroke-linejoin="round" opacity="0.95">
    <title>4579 m:1</title>
  </polyline>
  <polyline points="60,26 60,27 60,28 60,29 59,30 59,31 59,32 59,33 59,34 60,34 60,35 61,36 61,37 62,38 63,39 64,39 64,40 65,40 66,40 67,41 68,41 69,41 70,42 71,42 72,42 73,42 74,42 75,42 76,41 77,41 78,41 79,40 80,40 80,39 81,39 82,39 83,38 83,37 84,37 84,36 84,35 85,34 85,33 86,33 86,32 87,31 87,30 87,29 87,28 87,27 88,27 88,26 88,25 87,25 87,23 86,22 85,21 85,20 84,19 83,19 82,18 81,18 80,17 80,16 79,16 78,16 77,16 76,16 75,16 74,16 72,16 71,16 69,17 68,17 67,18 66,18 65,18 65,19 64,19 64,20 63,20 63,21 62,22 62,23 62,24 61,24 61,25 61,26 60,27 60,28 60,29 60,30" fill="none" stroke="#8aff00" stroke-width="3" stroke-linecap="round" stroke-linejoin="round" opacity="0.95">
    <title>4492 c:1</title>
  </polyline>
  <polyline points="61,19 61,20 61,21 61,22 61,23 61,25 61,27 61,29 61,31 60,33 60,35 60,37 60,39 59,41 59,43 59,46 59,48 59,50 58,51 58,53 58,55 58,57 58,59 57,61 57,63 57,64 57,65 57,66 56,68 56,69 56,71 56,72 56,73 56,75 55,76 55,77 55,79 55,80 55,81 55,82 55,83 55,84 55,86 55,87 55,88 55,90 54,90 54,91 54,92 54,93 54,94 54,95 54,96 54,97" fill="none" stroke="#00f0b5" stroke-width="3" stroke-linecap="round" stroke-linejoin="round" opacity="0.95">
    <title>4536 a:1</title>
  </polyline>
</svg>
