<?xml version="1.0" encoding="UTF-8"?>
<svg xmlns="http://www.w3.org/2000/svg" width="54" height="81" viewBox="0 0 54 81">
  <title>particle img94-m9-p1 e:1 c:1 h:2</title>
  <metadata>{&quot;entityType&quot;:&quot;particle&quot;,&quot;entityId&quot;:&quot;img94-m9-p1&quot;,&quot;token&quot;:&quot;e:1 c:1 h:2&quot;,&quot;signature&quot;:&quot;e:1 c:1 h:2&quot;,&quot;imageName&quot;:&quot;page-094.jpg&quot;,&quot;imageId&quot;:94,&quot;bounds&quot;:{&quot;x&quot;:825,&quot;y&quot;:614,&quot;w&quot;:54,&quot;h&quot;:81},&quot;atoms&quot;:[{&quot;id&quot;:2687,&quot;token&quot;:&quot;e:1&quot;,&quot;particle_id&quot;:&quot;img94-m9-p1&quot;,&quot;molecule_id&quot;:&quot;img94-m9&quot;,&quot;atom_order&quot;:1},{&quot;id&quot;:2692,&quot;token&quot;:&quot;c:1&quot;,&quot;particle_id&quot;:&quot;img94-m9-p1&quot;,&quot;molecule_id&quot;:&quot;img94-m9&quot;,&quot;atom_order&quot;:2},{&quot;id&quot;:2693,&quot;token&quot;:&quot;h:2&quot;,&quot;particle_id&quot;:&quot;img94-m9-p1&quot;,&quot;molecule_id&quot;:&quot;img94-m9&quot;,&quot;atom_order&quot;:3}]}</metadata>
  <rect x="0" y="0" width="54" height="81" fill="#f8f0d8"/>
  <image href="file:///C:/Users/HHHES/AppData/Roaming/com.voynichlab.datasetcreator/images/1/33b1988f-7aaa-4207-bfa8-f26b742ac4b1.jpg" x="-825" y="-614" width="2932" height="3769" opacity="0.92"/>
  <rect x="0.5" y="0.5" width="53" height="80" fill="none" stroke="#111827" stroke-width="1" opacity="0.35"/>
  <polyline points="35,60 35,61 34,61 34,62 33,62 33,63 32,63 31,64 30,64 30,65 29,65 28,65 27,65 26,65 25,65 24,65 23,64 22,64 22,63 21,63 21,62 20,62 20,61 19,61 18,61 18,60 17,60 17,59 17,58 16,58 16,57 16,56 16,55 16,54 16,53 16,52 17,52 17,51 17,50 18,50 18,49 18,48 19,48 19,47 19,46 20,46 20,45 20,44 21,44 21,43 22,43 23,42 24,42 25,42 25,41 26,41 27,41" fill="none" stroke="#f2e45c" stroke-width="3" stroke-linecap="round" stroke-linejoin="round" opacity="0.95">
    <title>2687 e:1</title>
  </polyline>
  <polyline points="27,41 27,40 28,40 29,40 30,40 30,39 31,39 31,38 32,38 33,37 34,36 35,35 36,34 36,33 37,32 37,31 37,30 37,29 38,28 38,27 38,26 38,25 38,24 38,23 38,22 38,21 38,20 37,19 37,18 36,18 36,17 35,17 35,16 34,16 33,16 32,16 31,16 30,16 30,17 29,17 28,17 28,18 27,18 27,19 26,19 25,20 25,21 24,21 24,22 23,22 23,23 22,24 22,25 21,25 21,26 21,27 21,28 20,28 20,29 20,30 20,31 20,32 20,33 21,33 21,34 21,35 22,35 22,36 23,36 23,37 24,37 24,38 25,38 25,39 26,39 26,40 27,40" fill="none" stroke="#8aff00" stroke-width="3" stroke-linecap="round" stroke-linejoin="round" opacity="0.95">
    <title>2692 c:1</title>
  </polyline>
  <polyline points="34,61 34,60 35,60 35,59 35,58 35,57 35,56 35,55 35,54 35,53 35,52 34,52 34,51 34,50 34,49 34,48 33,48 33,47 33,46 32,46 32,45 31,45 31,44 30,43 30,42 29,42 29,41 28,41 28,40 27,40 27,39 26,38 25,38 25,37 25,36 24,36 24,35 24,34 23,34 23,33 22,33 22,32 22,31 22,30 21,30 21,29 21,28 22,27 22,26 22,25 23,24 23,23 24,23 24,22 25,22 25,21 26,20 27,19 28,19 28,18 29,18 30,17 31,16 32,16" fill="none" stroke="#ff8c00" stroke-width="3" stroke-linecap="round" stroke-linejoin="round" opacity="0.95">
    <title>2693 h:2</title>
  </polyline>
</svg>
