<?xml version="1.0" encoding="UTF-8"?>
<svg xmlns="http://www.w3.org/2000/svg" width="60" height="83" viewBox="0 0 60 83">
  <title>particle img94-m74-p1 e:1 c:1 h:2</title>
  <metadata>{&quot;entityType&quot;:&quot;particle&quot;,&quot;entityId&quot;:&quot;img94-m74-p1&quot;,&quot;token&quot;:&quot;e:1 c:1 h:2&quot;,&quot;signature&quot;:&quot;e:1 c:1 h:2&quot;,&quot;imageName&quot;:&quot;page-094.jpg&quot;,&quot;imageId&quot;:94,&quot;bounds&quot;:{&quot;x&quot;:1919,&quot;y&quot;:2874,&quot;w&quot;:60,&quot;h&quot;:83},&quot;atoms&quot;:[{&quot;id&quot;:4451,&quot;token&quot;:&quot;e:1&quot;,&quot;particle_id&quot;:&quot;img94-m74-p1&quot;,&quot;molecule_id&quot;:&quot;img94-m74&quot;,&quot;atom_order&quot;:1},{&quot;id&quot;:4514,&quot;token&quot;:&quot;c:1&quot;,&quot;particle_id&quot;:&quot;img94-m74-p1&quot;,&quot;molecule_id&quot;:&quot;img94-m74&quot;,&quot;atom_order&quot;:2},{&quot;id&quot;:4611,&quot;token&quot;:&quot;h:2&quot;,&quot;particle_id&quot;:&quot;img94-m74-p1&quot;,&quot;molecule_id&quot;:&quot;img94-m74&quot;,&quot;atom_order&quot;:3}]}</metadata>
  <rect x="0" y="0" width="60" height="83" fill="#f8f0d8"/>
  <image href="file:///C:/Users/HHHES/AppData/Roaming/com.voynichlab.datasetcreator/images/1/33b1988f-7aaa-4207-bfa8-f26b742ac4b1.jpg" x="-1919" y="-2874" width="2932" height="3769" opacity="0.92"/>
  <rect x="0.5" y="0.5" width="59" height="82" fill="none" stroke="#111827" stroke-width="1" opacity="0.35"/>
  <polyline points="31,64 31,65 30,65 30,66 29,66 28,66 28,67 27,67 26,67 25,67 24,67 23,67 22,67 21,67 21,66 20,66 19,66 18,66 18,65 17,65 16,65 16,64 16,63 16,62 16,61 16,60 16,59 16,58 17,58 17,57 17,56 17,55 18,55 18,54 18,53 19,53 19,52 19,51 20,51 21,51 21,50 22,50 22,49 23,49 24,49 24,48 25,48 26,48 27,48 27,47" fill="none" stroke="#f2e45c" stroke-width="3" stroke-linecap="round" stroke-linejoin="round" opacity="0.95">
    <title>4451 e:1</title>
  </polyline>
  <polyline points="33,40 34,40 35,39 36,39 36,38 37,37 37,36 38,36 38,35 39,34 40,33 41,32 41,31 41,30 42,30 42,29 42,28 42,27 42,26 43,26 43,25 43,24 43,23 43,22 42,22 42,21 41,20 41,19 40,19 40,18 39,18 39,17 38,17 37,17 37,16 36,16 35,16 34,16 33,16 32,16 31,16 29,17 28,18 26,18 25,19 25,20 24,20 24,21 24,22 23,23 23,24 23,25 23,26 23,27 23,28 23,30 23,31 23,32 24,32 24,33 24,34 25,34 25,35 26,35 26,36 27,36 28,36 28,37 29,37 30,37 31,37 32,38 33,38 34,38" fill="none" stroke="#8aff00" stroke-width="3" stroke-linecap="round" stroke-linejoin="round" opacity="0.95">
    <title>4514 c:1</title>
  </polyline>
  <polyline points="26,66 27,66 28,66 29,66 30,66 31,65 32,65 33,65 34,64 35,64 35,63 37,63 38,62 39,62 40,61 41,60 41,59 42,58 43,56 43,55 44,54 44,53 44,51 44,50 44,49 43,48 42,47 41,46 40,46 39,45 39,44 38,43 37,42 36,42 35,41 34,40 33,40 31,38 30,37 28,36 27,36 27,35 26,35 25,34 24,34 23,33 22,33 22,32 21,32 21,31 21,30 21,29 21,28 21,27 21,26 23,25 24,24 25,22 26,22 27,21 28,20 29,19 29,18 30,18 31,17 32,17 33,17 33,16 34,16" fill="none" stroke="#ff8c00" stroke-width="3" stroke-linecap="round" stroke-linejoin="round" opacity="0.95">
    <title>4611 h:2</title>
  </polyline>
</svg>
