<?xml version="1.0" encoding="UTF-8"?>
<svg xmlns="http://www.w3.org/2000/svg" width="104" height="118" viewBox="0 0 104 118">
  <title>particle img94-m53-p2 a:1 m:1 c:1 a:1</title>
  <metadata>{&quot;entityType&quot;:&quot;particle&quot;,&quot;entityId&quot;:&quot;img94-m53-p2&quot;,&quot;token&quot;:&quot;a:1 m:1 c:1 a:1&quot;,&quot;signature&quot;:&quot;a:1 m:1 c:1 a:1&quot;,&quot;imageName&quot;:&quot;page-094.jpg&quot;,&quot;imageId&quot;:94,&quot;bounds&quot;:{&quot;x&quot;:799,&quot;y&quot;:2571,&quot;w&quot;:104,&quot;h&quot;:118},&quot;atoms&quot;:[{&quot;id&quot;:4341,&quot;token&quot;:&quot;a:1&quot;,&quot;particle_id&quot;:&quot;img94-m53-p2&quot;,&quot;molecule_id&quot;:&quot;img94-m53&quot;,&quot;atom_order&quot;:1},{&quot;id&quot;:4340,&quot;token&quot;:&quot;m:1&quot;,&quot;particle_id&quot;:&quot;img94-m53-p2&quot;,&quot;molecule_id&quot;:&quot;img94-m53&quot;,&quot;atom_order&quot;:2},{&quot;id&quot;:4343,&quot;token&quot;:&quot;c:1&quot;,&quot;particle_id&quot;:&quot;img94-m53-p2&quot;,&quot;molecule_id&quot;:&quot;img94-m53&quot;,&quot;atom_order&quot;:3},{&quot;id&quot;:4342,&quot;token&quot;:&quot;a:1&quot;,&quot;particle_id&quot;:&quot;img94-m53-p2&quot;,&quot;molecule_id&quot;:&quot;img94-m53&quot;,&quot;atom_order&quot;:4}]}</metadata>
  <rect x="0" y="0" width="104" height="118" fill="#f8f0d8"/>
  <image href="file:///C:/Users/HHHES/AppData/Roaming/com.voynichlab.datasetcreator/images/1/33b1988f-7aaa-4207-bfa8-f26b742ac4b1.jpg" x="-799" y="-2571" width="2932" height="3769" opacity="0.92"/>
  <rect x="0.5" y="0.5" width="103" height="117" fill="none" stroke="#111827" stroke-width="1" opacity="0.35"/>
  <polyline points="40,58 40,59 40,60 40,61 40,62 40,63 40,64 40,65 40,66 40,67 40,68 40,69 40,70 40,71 40,72 40,73 40,74 40,75 41,76 41,77 41,78 41,79 41,80 41,81 41,82 41,83 41,84 41,85 41,86 41,87 41,88 41,89 41,90 41,91 41,92 41,93 41,94 41,95 41,96 41,97 42,98 42,99 42,100 42,101" fill="none" stroke="#00f0b5" stroke-width="3" stroke-linecap="round" stroke-linejoin="round" opacity="0.95">
    <title>4341 a:1</title>
  </polyline>
  <polyline points="40,59 40,58 40,57 40,56 40,55 40,54 40,53 40,52 40,51 40,50 40,49 40,48 40,47 40,46 40,45 40,44 40,43 41,43 41,42 41,41 41,40 41,39 41,38 41,37 41,36 41,35 41,34 41,33 41,32 41,31 41,30 41,29 41,28 41,27 41,26 41,25 40,25 39,25 38,26 37,26 37,27 36,27 36,28 35,28 34,29 33,29 33,30 32,30 31,30 31,31 30,31 29,31 29,32 28,32 27,33 26,33 26,34 25,34 24,35 23,35 22,36 21,37 20,37 20,38 19,38 19,39 19,40 18,40 18,41 17,41 17,42 16,43 16,44 16,45 17,45 19,45 20,45 21,45 22,45 23,45 24,45 25,45 26,45 27,45 28,45 29,45 30,45 31,45 32,45 33,45 34,45 35,45 36,45 37,45 38,45 39,45 40,45 41,45 42,45 43,45 44,45 45,45 46,44 47,44 48,44 49,44 50,44 51,44 52,44 53,44 54,44 55,44 56,44 57,44 58,44 59,44 60,44 61,44 62,44 63,44 64,44 65,44 66,44 67,44 68,44 69,44 70,44 71,44 72,44 72,43" fill="none" stroke="#ff00ff" stroke-width="3" stroke-linecap="round" stroke-linejoin="round" opacity="0.95">
    <title>4340 m:1</title>
  </polyline>
  <polyline points="71,44 72,44 73,44 74,44 75,44 76,44 77,43 78,43 79,43 80,43 80,42 81,42 82,42 82,41 83,41 83,40 84,40 85,40 85,39 86,38 87,37 87,36 88,35 88,34 88,33 88,32 88,31 88,30 88,29 88,28 88,27 88,26 88,25 88,24 87,24 87,23 87,22 86,22 86,21 85,21 85,20 84,20 83,20 82,19 81,19 80,18 79,18 78,17 77,17 76,16 75,16 74,16 73,16 72,16 71,16 70,16 69,16 68,16 67,17 66,17 65,18 64,18 64,19 63,19 63,20 62,20 62,21 61,22 61,23 60,23 60,24 60,25 60,26 60,27 60,28 60,29 60,30 60,31 60,32 60,33 60,34 60,35 61,36 61,37 62,38 62,39 63,40 64,40 64,41 65,41 66,42 67,42 68,42 68,43 69,43 70,43 71,44 72,44 73,44" fill="none" stroke="#8aff00" stroke-width="3" stroke-linecap="round" stroke-linejoin="round" opacity="0.95">
    <title>4343 c:1</title>
  </polyline>
  <polyline points="61,25 61,26 61,27 61,29 61,30 61,31 61,32 61,34 61,35 60,37 60,39 60,40 60,42 60,43 60,44 59,46 59,47 59,48 59,49 59,50 59,51 59,52 59,53 59,54 59,55 60,56 60,57 60,58 60,59 60,60 60,61 60,62 60,63 60,64 60,65 60,66 60,67 60,68 60,69 61,70 61,71 61,72 61,74 61,75 61,76 61,77 61,78 61,79 61,80 61,81 61,82 62,83 62,84 62,85 62,86 62,87 62,88 62,89 62,90 62,91 62,92 62,93 62,94 62,95 62,96 62,97 62,98 61,98 61,99 61,100 61,101 61,102" fill="none" stroke="#00f0b5" stroke-width="3" stroke-linecap="round" stroke-linejoin="round" opacity="0.95">
    <title>4342 a:1</title>
  </polyline>
</svg>
