<?xml version="1.0" encoding="UTF-8"?>
<svg xmlns="http://www.w3.org/2000/svg" width="62" height="76" viewBox="0 0 62 76">
  <title>particle img94-m39-p3 e:1 c:1 h:2</title>
  <metadata>{&quot;entityType&quot;:&quot;particle&quot;,&quot;entityId&quot;:&quot;img94-m39-p3&quot;,&quot;token&quot;:&quot;e:1 c:1 h:2&quot;,&quot;signature&quot;:&quot;e:1 c:1 h:2&quot;,&quot;imageName&quot;:&quot;page-094.jpg&quot;,&quot;imageId&quot;:94,&quot;bounds&quot;:{&quot;x&quot;:935,&quot;y&quot;:954,&quot;w&quot;:62,&quot;h&quot;:76},&quot;atoms&quot;:[{&quot;id&quot;:2987,&quot;token&quot;:&quot;e:1&quot;,&quot;particle_id&quot;:&quot;img94-m39-p3&quot;,&quot;molecule_id&quot;:&quot;img94-m39&quot;,&quot;atom_order&quot;:1},{&quot;id&quot;:3004,&quot;token&quot;:&quot;c:1&quot;,&quot;particle_id&quot;:&quot;img94-m39-p3&quot;,&quot;molecule_id&quot;:&quot;img94-m39&quot;,&quot;atom_order&quot;:2},{&quot;id&quot;:3011,&quot;token&quot;:&quot;h:2&quot;,&quot;particle_id&quot;:&quot;img94-m39-p3&quot;,&quot;molecule_id&quot;:&quot;img94-m39&quot;,&quot;atom_order&quot;:3}]}</metadata>
  <rect x="0" y="0" width="62" height="76" fill="#f8f0d8"/>
  <image href="file:///C:/Users/HHHES/AppData/Roaming/com.voynichlab.datasetcreator/images/1/33b1988f-7aaa-4207-bfa8-f26b742ac4b1.jpg" x="-935" y="-954" width="2932" height="3769" opacity="0.92"/>
  <rect x="0.5" y="0.5" width="61" height="75" fill="none" stroke="#111827" stroke-width="1" opacity="0.35"/>
  <polyline points="31,57 31,58 30,58 30,59 29,59 28,59 28,60 27,60 26,60 25,60 24,60 23,60 22,60 21,60 21,59 20,59 19,59 18,59 18,58 17,58 16,58 16,57 16,56 16,55 16,54 16,53 16,52 16,51 17,51 17,50 17,49 17,48 18,48 18,47 18,46 19,46 19,45 19,44 20,44 21,44 21,43 22,43 22,42 23,42 24,42 24,41 25,41 26,41 27,41 27,40" fill="none" stroke="#f2e45c" stroke-width="3" stroke-linecap="round" stroke-linejoin="round" opacity="0.95">
    <title>2987 e:1</title>
  </polyline>
  <polyline points="28,22 28,23 27,23 27,24 27,25 26,25 26,26 26,27 26,28 26,29 26,30 26,31 26,32 27,32 27,33 28,33 28,34 29,35 30,35 31,35 32,35 32,36 33,36 34,36 35,36 36,36 37,36 38,36 39,36 40,36 40,35 41,35 42,35 42,34 42,33 43,33 43,32 44,32 44,31 44,30 45,30 45,29 45,28 46,28 46,27 46,26 46,25 46,24 46,23 46,22 45,22 45,21 45,20 44,20 44,19 43,19 43,18 42,18 42,17 41,17 40,17 40,16 39,16 38,16 37,16 36,16 35,16 34,16 33,16 32,17 31,17 31,18 30,18 30,19 29,19 28,19 28,20 27,20 27,21 27,22" fill="none" stroke="#8aff00" stroke-width="3" stroke-linecap="round" stroke-linejoin="round" opacity="0.95">
    <title>3004 c:1</title>
  </polyline>
  <polyline points="27,60 28,60 29,60 29,59 30,59 31,59 32,59 32,58 33,58 33,57 34,57 35,56 36,55 36,54 37,53 37,52 37,51 36,51 36,50 36,49 36,48 36,47 35,47 35,46 34,45 34,44 33,44 33,43 33,42 32,42 32,41 31,41 31,40 30,39 29,38 28,37 28,36 27,36 27,35 27,34 26,34 26,33 26,32 26,31 25,31 25,30 25,29 25,28 25,27 25,26 25,25 25,24 25,23 26,23 26,22 27,22 27,21 28,21 29,21 29,20 30,20 31,20 31,19 32,19" fill="none" stroke="#ff8c00" stroke-width="3" stroke-linecap="round" stroke-linejoin="round" opacity="0.95">
    <title>3011 h:2</title>
  </polyline>
</svg>
