<?xml version="1.0" encoding="UTF-8"?>
<svg xmlns="http://www.w3.org/2000/svg" width="71" height="96" viewBox="0 0 71 96">
  <title>particle img94-m70-p1 a:1 b:1 c:1 a:1</title>
  <metadata>{&quot;entityType&quot;:&quot;particle&quot;,&quot;entityId&quot;:&quot;img94-m70-p1&quot;,&quot;token&quot;:&quot;a:1 b:1 c:1 a:1&quot;,&quot;signature&quot;:&quot;a:1 b:1 c:1 a:1&quot;,&quot;imageName&quot;:&quot;page-094.jpg&quot;,&quot;imageId&quot;:94,&quot;bounds&quot;:{&quot;x&quot;:1031,&quot;y&quot;:2832,&quot;w&quot;:71,&quot;h&quot;:96},&quot;atoms&quot;:[{&quot;id&quot;:4546,&quot;token&quot;:&quot;a:1&quot;,&quot;particle_id&quot;:&quot;img94-m70-p1&quot;,&quot;molecule_id&quot;:&quot;img94-m70&quot;,&quot;atom_order&quot;:1},{&quot;id&quot;:4628,&quot;token&quot;:&quot;b:1&quot;,&quot;particle_id&quot;:&quot;img94-m70-p1&quot;,&quot;molecule_id&quot;:&quot;img94-m70&quot;,&quot;atom_order&quot;:2},{&quot;id&quot;:4508,&quot;token&quot;:&quot;c:1&quot;,&quot;particle_id&quot;:&quot;img94-m70-p1&quot;,&quot;molecule_id&quot;:&quot;img94-m70&quot;,&quot;atom_order&quot;:3},{&quot;id&quot;:4545,&quot;token&quot;:&quot;a:1&quot;,&quot;particle_id&quot;:&quot;img94-m70-p1&quot;,&quot;molecule_id&quot;:&quot;img94-m70&quot;,&quot;atom_order&quot;:4}]}</metadata>
  <rect x="0" y="0" width="71" height="96" fill="#f8f0d8"/>
  <image href="file:///C:/Users/HHHES/AppData/Roaming/com.voynichlab.datasetcreator/images/1/33b1988f-7aaa-4207-bfa8-f26b742ac4b1.jpg" x="-1031" y="-2832" width="2932" height="3769" opacity="0.92"/>
  <rect x="0.5" y="0.5" width="70" height="95" fill="none" stroke="#111827" stroke-width="1" opacity="0.35"/>
  <polyline points="17,25 17,26 17,28 17,31 17,34 16,37 16,40 16,43 16,47 16,50 17,53 17,56 17,58 17,60 17,62 17,63 17,65 17,66 17,68 17,70 17,71 17,72 17,73 17,74 17,75 17,76 17,77 17,78 17,79 17,80" fill="none" stroke="#00f0b5" stroke-width="3" stroke-linecap="round" stroke-linejoin="round" opacity="0.95">
    <title>4546 a:1</title>
  </polyline>
  <polyline points="16,27 16,28 16,29 16,30 16,32 16,33 17,33 18,35 19,36 19,37 20,37 21,38 23,38 24,38 25,38 26,39 27,39 28,39 29,39 30,39 32,39 33,39 33,40 34,40 35,40 36,40 37,40 38,40 38,39 39,39 40,38 41,38 41,37 41,36 42,36" fill="none" stroke="#2f7df6" stroke-width="3" stroke-linecap="round" stroke-linejoin="round" opacity="0.95">
    <title>4628 b:1</title>
  </polyline>
  <polyline points="38,38 38,39 39,39 40,39 41,39 42,39 43,39 44,38 45,38 46,38 47,37 48,37 49,37 50,36 51,36 52,35 52,34 53,34 53,33 54,33 54,32 54,31 55,30 55,29 55,28 55,27 54,26 54,25 53,24 53,23 52,23 52,22 52,21 52,20 51,19 51,18 50,18 50,17 49,17 49,16 48,16 47,16 46,16 45,16 44,16 43,16 42,16 41,16 40,16 40,17 39,17 38,17 38,18 37,19 37,20 36,20 36,21 36,22 36,23 36,24 36,25 36,26 36,27 36,28 36,29 36,30 36,31 36,32 37,33 37,34 37,35 38,35 38,36 39,36 39,37 39,38 40,38 41,38 41,39" fill="none" stroke="#8aff00" stroke-width="3" stroke-linecap="round" stroke-linejoin="round" opacity="0.95">
    <title>4508 c:1</title>
  </polyline>
  <polyline points="36,23 36,24 36,25 36,26 36,27 36,28 36,29 36,30 35,31 35,32 35,33 35,34 35,35 35,37 35,38 35,40 35,42 35,44 34,45 34,47 34,49 34,50 34,52 34,54 34,55 34,57 34,58 34,60 34,61 34,62 34,63 34,64 34,65 34,66 34,68 34,69 34,71 34,72 34,73 34,74 34,75 34,76 34,77 34,78" fill="none" stroke="#00f0b5" stroke-width="3" stroke-linecap="round" stroke-linejoin="round" opacity="0.95">
    <title>4545 a:1</title>
  </polyline>
</svg>
