<?xml version="1.0" encoding="UTF-8"?>
<svg xmlns="http://www.w3.org/2000/svg" width="48" height="58" viewBox="0 0 48 58">
  <title>particle img94-m9-p2 n:1</title>
  <metadata>{&quot;entityType&quot;:&quot;particle&quot;,&quot;entityId&quot;:&quot;img94-m9-p2&quot;,&quot;token&quot;:&quot;n:1&quot;,&quot;signature&quot;:&quot;n:1&quot;,&quot;imageName&quot;:&quot;page-094.jpg&quot;,&quot;imageId&quot;:94,&quot;bounds&quot;:{&quot;x&quot;:884,&quot;y&quot;:608,&quot;w&quot;:48,&quot;h&quot;:58},&quot;atoms&quot;:[{&quot;id&quot;:3700,&quot;token&quot;:&quot;n:1&quot;,&quot;particle_id&quot;:&quot;img94-m9-p2&quot;,&quot;molecule_id&quot;:&quot;img94-m9&quot;,&quot;atom_order&quot;:1}]}</metadata>
  <rect x="0" y="0" width="48" height="58" fill="#f8f0d8"/>
  <image href="file:///C:/Users/HHHES/AppData/Roaming/com.voynichlab.datasetcreator/images/1/33b1988f-7aaa-4207-bfa8-f26b742ac4b1.jpg" x="-884" y="-608" width="2932" height="3769" opacity="0.92"/>
  <rect x="0.5" y="0.5" width="47" height="57" fill="none" stroke="#111827" stroke-width="1" opacity="0.35"/>
  <polyline points="17,28 16,28 16,27 16,26 17,25 17,24 18,23 18,22 18,21 19,21 19,20 20,20 20,19 21,19 22,18 23,18 23,17 24,17 25,17 25,16 26,16 27,16 28,16 29,17 30,17 31,18 31,19 31,20 32,21 32,22 32,23 32,24 32,25 32,26 31,27 31,28 31,29 31,30 30,30 30,31 30,32 29,33 29,34 28,35 28,36 28,37 27,38 27,39 26,40 26,41 26,42 25,42" fill="none" stroke="#f92f59" stroke-width="3" stroke-linecap="round" stroke-linejoin="round" opacity="0.95">
    <title>3700 n:1</title>
  </polyline>
</svg>
