<?xml version="1.0" encoding="UTF-8"?>
<svg xmlns="http://www.w3.org/2000/svg" width="95" height="57" viewBox="0 0 95 57">
  <title>particle img94-m80-p1 e:1 g:1 e:1</title>
  <metadata>{&quot;entityType&quot;:&quot;particle&quot;,&quot;entityId&quot;:&quot;img94-m80-p1&quot;,&quot;token&quot;:&quot;e:1 g:1 e:1&quot;,&quot;signature&quot;:&quot;e:1 g:1 e:1&quot;,&quot;imageName&quot;:&quot;page-094.jpg&quot;,&quot;imageId&quot;:94,&quot;bounds&quot;:{&quot;x&quot;:1213,&quot;y&quot;:2961,&quot;w&quot;:95,&quot;h&quot;:57},&quot;atoms&quot;:[{&quot;id&quot;:4458,&quot;token&quot;:&quot;e:1&quot;,&quot;particle_id&quot;:&quot;img94-m80-p1&quot;,&quot;molecule_id&quot;:&quot;img94-m80&quot;,&quot;atom_order&quot;:1},{&quot;id&quot;:4481,&quot;token&quot;:&quot;g:1&quot;,&quot;particle_id&quot;:&quot;img94-m80-p1&quot;,&quot;molecule_id&quot;:&quot;img94-m80&quot;,&quot;atom_order&quot;:2},{&quot;id&quot;:4457,&quot;token&quot;:&quot;e:1&quot;,&quot;particle_id&quot;:&quot;img94-m80-p1&quot;,&quot;molecule_id&quot;:&quot;img94-m80&quot;,&quot;atom_order&quot;:3}]}</metadata>
  <rect x="0" y="0" width="95" height="57" fill="#f8f0d8"/>
  <image href="file:///C:/Users/HHHES/AppData/Roaming/com.voynichlab.datasetcreator/images/1/33b1988f-7aaa-4207-bfa8-f26b742ac4b1.jpg" x="-1213" y="-2961" width="2932" height="3769" opacity="0.92"/>
  <rect x="0.5" y="0.5" width="94" height="56" fill="none" stroke="#111827" stroke-width="1" opacity="0.35"/>
  <polyline points="31,38 31,39 30,39 30,40 29,40 28,40 28,41 27,41 26,41 25,41 24,41 23,41 22,41 21,41 21,40 20,40 19,40 18,40 18,39 17,39 16,39 16,38 16,37 16,36 16,35 16,34 16,33 16,32 17,32 17,31 17,30 17,29 18,29 18,28 18,27 19,27 19,26 19,25 20,25 21,25 21,24 22,24 22,23 23,23 24,23 24,22 25,22 26,22 27,22 27,21" fill="none" stroke="#f2e45c" stroke-width="3" stroke-linecap="round" stroke-linejoin="round" opacity="0.95">
    <title>4458 e:1</title>
  </polyline>
  <polyline points="25,22 26,22 27,22 29,21 31,21 32,21 33,21 35,21 38,21 40,21 42,20 43,20 44,20 45,20 48,20 51,20 52,20 53,19 54,19 55,19 56,19 57,19 58,19 59,19 59,18 60,18 61,18 62,18 63,18 64,18 65,17 66,17 67,17 68,17 69,17 70,17 71,17 72,17 73,17 74,17 74,16 75,16" fill="none" stroke="#7c3cff" stroke-width="3" stroke-linecap="round" stroke-linejoin="round" opacity="0.95">
    <title>4481 g:1</title>
  </polyline>
  <polyline points="79,33 79,34 78,34 78,35 77,35 76,35 76,36 75,36 74,36 73,36 72,36 71,36 70,36 69,36 69,35 68,35 67,35 66,35 66,34 65,34 64,34 64,33 64,32 64,31 64,30 64,29 64,28 64,27 65,27 65,26 65,25 65,24 66,24 66,23 66,22 67,22 67,21 67,20 68,20 69,20 69,19 70,19 70,18 71,18 72,18 72,17 73,17 74,17 75,17 75,16" fill="none" stroke="#f2e45c" stroke-width="3" stroke-linecap="round" stroke-linejoin="round" opacity="0.95">
    <title>4457 e:1</title>
  </polyline>
</svg>
