<?xml version="1.0" encoding="UTF-8"?>
<svg xmlns="http://www.w3.org/2000/svg" width="54" height="76" viewBox="0 0 54 76">
  <title>particle img94-m42-p1 e:1 c:1 h:2</title>
  <metadata>{&quot;entityType&quot;:&quot;particle&quot;,&quot;entityId&quot;:&quot;img94-m42-p1&quot;,&quot;token&quot;:&quot;e:1 c:1 h:2&quot;,&quot;signature&quot;:&quot;e:1 c:1 h:2&quot;,&quot;imageName&quot;:&quot;page-094.jpg&quot;,&quot;imageId&quot;:94,&quot;bounds&quot;:{&quot;x&quot;:1069,&quot;y&quot;:2442,&quot;w&quot;:54,&quot;h&quot;:76},&quot;atoms&quot;:[{&quot;id&quot;:4230,&quot;token&quot;:&quot;e:1&quot;,&quot;particle_id&quot;:&quot;img94-m42-p1&quot;,&quot;molecule_id&quot;:&quot;img94-m42&quot;,&quot;atom_order&quot;:1},{&quot;id&quot;:4244,&quot;token&quot;:&quot;c:1&quot;,&quot;particle_id&quot;:&quot;img94-m42-p1&quot;,&quot;molecule_id&quot;:&quot;img94-m42&quot;,&quot;atom_order&quot;:2},{&quot;id&quot;:4248,&quot;token&quot;:&quot;h:2&quot;,&quot;particle_id&quot;:&quot;img94-m42-p1&quot;,&quot;molecule_id&quot;:&quot;img94-m42&quot;,&quot;atom_order&quot;:3}]}</metadata>
  <rect x="0" y="0" width="54" height="76" fill="#f8f0d8"/>
  <image href="file:///C:/Users/HHHES/AppData/Roaming/com.voynichlab.datasetcreator/images/1/33b1988f-7aaa-4207-bfa8-f26b742ac4b1.jpg" x="-1069" y="-2442" width="2932" height="3769" opacity="0.92"/>
  <rect x="0.5" y="0.5" width="53" height="75" fill="none" stroke="#111827" stroke-width="1" opacity="0.35"/>
  <polyline points="31,57 31,58 30,58 30,59 29,59 28,59 28,60 27,60 26,60 25,60 24,60 23,60 22,60 21,60 21,59 20,59 19,59 18,59 18,58 17,58 16,58 16,57 16,56 16,55 16,54 16,53 16,52 16,51 17,51 17,50 17,49 17,48 18,48 18,47 18,46 19,46 19,45 19,44 20,44 21,44 21,43 22,43 22,42 23,42 24,42 24,41 25,41 26,41 27,41 27,40" fill="none" stroke="#f2e45c" stroke-width="3" stroke-linecap="round" stroke-linejoin="round" opacity="0.95">
    <title>4230 e:1</title>
  </polyline>
  <polyline points="28,33 28,32 29,32 30,32 31,31 32,31 33,30 34,29 35,28 35,27 36,27 36,26 37,25 37,24 37,23 38,23 38,22 38,21 38,20 37,19 37,18 36,18 36,17 35,17 34,16 33,16 32,16 31,16 30,16 29,16 28,16 27,17 26,17 25,17 24,18 23,18 23,19 22,19 21,20 21,21 20,21 20,22 20,23 19,23 19,24 19,25 19,26 20,27 21,28 21,29 22,29 22,30 23,30 24,30 24,31 25,31 26,31 27,31 28,31 29,32 30,32 31,32" fill="none" stroke="#8aff00" stroke-width="3" stroke-linecap="round" stroke-linejoin="round" opacity="0.95">
    <title>4244 c:1</title>
  </polyline>
  <polyline points="28,60 28,59 29,59 29,58 30,58 30,57 31,57 31,56 31,55 31,54 32,54 32,53 32,52 32,51 32,50 33,50 33,49 33,48 33,47 32,46 32,45 31,45 31,44 30,43 29,42 28,41 27,40 27,39 26,39 26,38 25,38 25,37 24,36 23,35 23,34 23,33 23,32 22,31 22,30 22,29 22,28 21,27 21,26 21,25 21,24 21,23 21,22 22,21 23,20 24,20 24,19 25,19" fill="none" stroke="#ff8c00" stroke-width="3" stroke-linecap="round" stroke-linejoin="round" opacity="0.95">
    <title>4248 h:2</title>
  </polyline>
</svg>
