<?xml version="1.0" encoding="UTF-8"?>
<svg xmlns="http://www.w3.org/2000/svg" width="80" height="99" viewBox="0 0 80 99">
  <title>particle img94-m71-p3 a:1 b:1 a:1 c:2</title>
  <metadata>{&quot;entityType&quot;:&quot;particle&quot;,&quot;entityId&quot;:&quot;img94-m71-p3&quot;,&quot;token&quot;:&quot;a:1 b:1 a:1 c:2&quot;,&quot;signature&quot;:&quot;a:1 b:1 a:1 c:2&quot;,&quot;imageName&quot;:&quot;page-094.jpg&quot;,&quot;imageId&quot;:94,&quot;bounds&quot;:{&quot;x&quot;:1655,&quot;y&quot;:2796,&quot;w&quot;:80,&quot;h&quot;:99},&quot;atoms&quot;:[{&quot;id&quot;:4547,&quot;token&quot;:&quot;a:1&quot;,&quot;particle_id&quot;:&quot;img94-m71-p3&quot;,&quot;molecule_id&quot;:&quot;img94-m71&quot;,&quot;atom_order&quot;:1},{&quot;id&quot;:4622,&quot;token&quot;:&quot;b:1&quot;,&quot;particle_id&quot;:&quot;img94-m71-p3&quot;,&quot;molecule_id&quot;:&quot;img94-m71&quot;,&quot;atom_order&quot;:2},{&quot;id&quot;:4548,&quot;token&quot;:&quot;a:1&quot;,&quot;particle_id&quot;:&quot;img94-m71-p3&quot;,&quot;molecule_id&quot;:&quot;img94-m71&quot;,&quot;atom_order&quot;:3},{&quot;id&quot;:4526,&quot;token&quot;:&quot;c:2&quot;,&quot;particle_id&quot;:&quot;img94-m71-p3&quot;,&quot;molecule_id&quot;:&quot;img94-m71&quot;,&quot;atom_order&quot;:4}]}</metadata>
  <rect x="0" y="0" width="80" height="99" fill="#f8f0d8"/>
  <image href="file:///C:/Users/HHHES/AppData/Roaming/com.voynichlab.datasetcreator/images/1/33b1988f-7aaa-4207-bfa8-f26b742ac4b1.jpg" x="-1655" y="-2796" width="2932" height="3769" opacity="0.92"/>
  <rect x="0.5" y="0.5" width="79" height="98" fill="none" stroke="#111827" stroke-width="1" opacity="0.35"/>
  <polyline points="18,26 18,27 18,28 18,29 18,30 18,31 18,32 18,34 19,36 19,38 20,40 20,42 21,44 21,46 21,47 21,49 22,50 22,52 22,54 22,55 22,57 22,58 22,60 22,62 22,64 22,66 22,68 22,69 21,69 21,71 21,72 21,74 21,75 21,77 21,78 21,79 20,80 20,81 20,82 20,83" fill="none" stroke="#00f0b5" stroke-width="3" stroke-linecap="round" stroke-linejoin="round" opacity="0.95">
    <title>4547 a:1</title>
  </polyline>
  <polyline points="16,28 16,29 17,30 18,31 18,32 19,32 19,33 21,34 22,35 23,35 24,36 25,36 25,37 26,37 27,37 29,37 31,38 33,38 34,38 35,38 36,38 37,38 38,38 40,38 41,38 42,38 43,37 44,37 45,37 46,37 47,37 47,36 48,36 49,36 50,35 51,35 52,34 52,33 53,33 54,33 55,32 56,31" fill="none" stroke="#2f7df6" stroke-width="3" stroke-linecap="round" stroke-linejoin="round" opacity="0.95">
    <title>4622 b:1</title>
  </polyline>
  <polyline points="42,22 42,23 42,24 42,25 42,26 42,27 42,28 42,29 42,30 42,31 42,32 41,33 41,35 41,37 41,38 41,40 41,42 41,44 41,45 41,46 41,49 41,50 41,51 41,52 41,53 41,55 41,56 41,58 41,59 41,60 41,61 41,63 41,64 41,65 41,66 41,68 41,69 41,71 41,72 41,74 41,75 41,77 41,78 41,79 41,80 41,81 40,81 40,82" fill="none" stroke="#00f0b5" stroke-width="3" stroke-linecap="round" stroke-linejoin="round" opacity="0.95">
    <title>4548 a:1</title>
  </polyline>
  <polyline points="54,26 53,26 52,26 53,25 54,25 54,26 54,27 53,28 52,28 52,27 52,26 53,26 54,25 54,26 54,27 53,27 52,27 51,27 50,27 50,26 51,25 52,25 53,24 53,25 53,26 52,26 52,27 51,27 50,27 49,27 49,26 49,25 50,25 51,24 52,24 53,24 54,24 55,24 55,25 55,26 54,27 53,27 52,27 51,27 50,27 50,26 50,25 51,25 52,24 54,23 54,24 54,25 54,26 53,27 52,28 51,28 50,28 49,28 49,27 49,25 51,24 52,24 53,24 54,24 54,25 54,27 54,28 53,28 53,29 52,29 51,29 50,29 49,28 48,27 48,26 48,24 49,23 50,22 51,22 52,22 53,22 53,23 54,24 54,25 54,26 54,28 54,30 54,31 53,32 52,32 51,32 51,31 50,31 50,30 49,29 48,27 48,26 48,25 48,24 49,23 50,23 51,22 52,22 53,22 54,22 54,23 55,23 55,24 55,25 56,26 56,27 56,28 56,29 55,30 54,30 53,30 52,30 51,30 50,30 49,29 48,29 47,28 46,27 46,26 46,25 46,24 46,23 48,22 48,21 49,21 51,21 52,21 53,21 55,22 56,22 57,23 57,24 57,25 57,26 57,27 57,28 56,29 56,30 55,30 55,31 53,31 52,31 50,31 49,30 47,30 47,29 46,27 46,26 46,25 47,24 49,23 51,22 54,22 56,23 58,23 58,24 59,25 59,26 59,28 59,29 58,31 56,32 55,32 53,32 51,32 49,31 47,30 47,29 46,27 46,26 47,25 48,23 50,22 52,21 55,21 57,21 58,21 59,21 60,22 60,23 61,25 61,27 61,29 61,30 61,31 60,31 60,32 59,32 58,32 56,32 54,32 53,32 52,32 51,31 50,31 49,31 49,30 48,30 48,29 47,29 47,28 47,27 46,26 46,25 46,24 47,23 47,22 48,22 48,21 49,21 50,21 50,20 51,20 52,20 53,20 54,20 55,20 56,20 57,20 58,20 59,20 60,20 61,20 61,21 62,21 62,22 63,22 63,23 63,24 63,25 64,25 64,26 64,27 64,28 63,29 63,30 63,31 62,32 61,32 61,33 60,33 60,34 59,34 58,34 57,34 57,35 56,35 55,35 54,35 53,35 52,35 51,35 50,35 49,35 48,34 47,34 46,34 46,33 45,33 45,32 44,32 44,31 43,30 43,29 42,28 42,27 41,27 41,26 41,25 41,24 41,23 41,22 41,21 42,21 42,20 42,19 43,19 43,18 44,18 45,18 45,17 46,17 46,16 47,16 48,16 49,16 50,16 51,16 52,16 53,16 54,16 55,16 56,16 57,16 58,16 59,16 59,17 60,17 61,18 61,19 61,20 62,20 62,21 62,22 63,22 63,23 63,24 63,25 63,26 63,27 63,28 63,29 63,30 63,31 62,31 61,31 61,32 60,32 59,32 59,33 58,33 57,33 56,34 55,34 54,34 53,34 52,34 51,34 50,34 49,34 49,33 48,33 47,33 47,32 46,32 46,31 45,31 45,30 44,30 44,29 43,29 43,28 43,27 43,26 43,25 43,24 43,23 43,22 44,21 45,20 46,19 47,18 48,18 49,18 49,17 50,17 51,17 52,17 53,17 53,18 55,18 56,18 57,18 58,19 59,19 60,19 60,20 60,21 60,22 60,23 60,24 60,25 60,26 61,27 61,28 61,29 60,29 60,30 60,31 60,32 59,32 58,32 57,32 57,33 56,33 55,33 54,33 53,33 52,33 51,33 50,33 49,33 49,32 48,32 47,31 46,31 46,30 45,30 45,29 45,28 45,27 45,26 45,25 45,24 44,24 44,23 45,23 45,22 46,22 46,21 47,21 47,20 48,20 49,20 49,19 50,19 50,18 51,18 52,18 53,18 54,19 55,19 56,19 57,19 57,20 58,20 58,21 59,21 59,22 59,23 59,24 59,25 59,26 59,27 58,27 58,28 58,29 57,29 57,30 56,30 56,31 57,31 58,31 58,30 59,30 60,29 61,28 62,27 62,26 62,25 62,24 61,23 61,22 60,22 60,21 60,20 60,19 59,19 59,18 59,17 58,17 58,16 57,16 56,16 55,16 54,16 54,17 53,17 52,17 51,17 50,17 49,17 48,17 47,17 46,17 45,17 45,18 44,18 44,19 44,20 43,20 43,21 43,22 42,22 42,23 42,24 43,24 43,25 43,26 43,27 44,27 44,28 45,28 45,29 46,29 46,30 46,29 46,28 45,27 44,27 44,26 43,25 43,24 42,24 43,24 43,25 43,26 42,26 42,25 43,25 43,24 44,24 45,24 45,23 45,22 46,21 46,20 46,19 46,18 47,18 48,18 48,17 47,17 46,17 46,18 45,19 45,20 45,21 45,22 46,23 47,23 47,24 48,24 49,23 49,22 49,21 50,21 50,20 50,19 49,19 48,19 47,19 47,20 46,20 46,21 46,22 46,23 47,23 48,23 49,23 51,22 52,22 53,21 53,20 53,19 53,18 52,18 52,19 51,19 50,20 50,21 50,22 51,22 52,22 52,21 53,20 53,19 53,18 52,18 51,18 52,18 52,19 53,19 54,19 55,19 56,18 57,18 57,17 56,17 55,17 56,17 56,18 56,19 56,20 57,20 57,21 57,22 58,23 58,24 58,25 57,26 56,26 55,26 54,26 53,26 53,25 54,25 55,24 56,23 57,23 57,24 57,25 57,26 57,27 56,27 56,28 55,28 54,28 53,28 53,27 53,26 54,26 55,25 56,24 57,24 58,23 59,23 59,24 59,25 59,26 58,26 58,27 58,28 57,28 57,29 58,29 59,28 60,28 61,28 61,27 61,28 61,29 60,29 60,30 60,31 59,31 60,31 61,31 61,30 62,29 62,28 62,27 62,26 63,26 63,25 63,24 63,23 62,22 62,21 62,20 62,19 61,19 60,19 60,18 59,18 58,18 57,18 56,18 55,18 54,18 53,18 53,19 53,20" fill="none" stroke="#8aff00" stroke-width="3" stroke-linecap="round" stroke-linejoin="round" opacity="0.95">
    <title>4526 c:2</title>
  </polyline>
</svg>
