<?xml version="1.0" encoding="UTF-8"?>
<svg xmlns="http://www.w3.org/2000/svg" width="87" height="57" viewBox="0 0 87 57">
  <title>particle img94-m59-p4 e:1 g:1 e:1</title>
  <metadata>{&quot;entityType&quot;:&quot;particle&quot;,&quot;entityId&quot;:&quot;img94-m59-p4&quot;,&quot;token&quot;:&quot;e:1 g:1 e:1&quot;,&quot;signature&quot;:&quot;e:1 g:1 e:1&quot;,&quot;imageName&quot;:&quot;page-094.jpg&quot;,&quot;imageId&quot;:94,&quot;bounds&quot;:{&quot;x&quot;:930,&quot;y&quot;:2714,&quot;w&quot;:87,&quot;h&quot;:57},&quot;atoms&quot;:[{&quot;id&quot;:4379,&quot;token&quot;:&quot;e:1&quot;,&quot;particle_id&quot;:&quot;img94-m59-p4&quot;,&quot;molecule_id&quot;:&quot;img94-m59&quot;,&quot;atom_order&quot;:1},{&quot;id&quot;:4462,&quot;token&quot;:&quot;g:1&quot;,&quot;particle_id&quot;:&quot;img94-m59-p4&quot;,&quot;molecule_id&quot;:&quot;img94-m59&quot;,&quot;atom_order&quot;:2},{&quot;id&quot;:4380,&quot;token&quot;:&quot;e:1&quot;,&quot;particle_id&quot;:&quot;img94-m59-p4&quot;,&quot;molecule_id&quot;:&quot;img94-m59&quot;,&quot;atom_order&quot;:3}]}</metadata>
  <rect x="0" y="0" width="87" height="57" fill="#f8f0d8"/>
  <image href="file:///C:/Users/HHHES/AppData/Roaming/com.voynichlab.datasetcreator/images/1/33b1988f-7aaa-4207-bfa8-f26b742ac4b1.jpg" x="-930" y="-2714" width="2932" height="3769" opacity="0.92"/>
  <rect x="0.5" y="0.5" width="86" height="56" fill="none" stroke="#111827" stroke-width="1" opacity="0.35"/>
  <polyline points="31,38 31,39 30,39 30,40 29,40 28,40 28,41 27,41 26,41 25,41 24,41 23,41 22,41 21,41 21,40 20,40 19,40 18,40 18,39 17,39 16,39 16,38 16,37 16,36 16,35 16,34 16,33 16,32 17,32 17,31 17,30 17,29 18,29 18,28 18,27 19,27 19,26 19,25 20,25 21,25 21,24 22,24 22,23 23,23 24,23 24,22 25,22 26,22 27,22 27,21" fill="none" stroke="#f2e45c" stroke-width="3" stroke-linecap="round" stroke-linejoin="round" opacity="0.95">
    <title>4379 e:1</title>
  </polyline>
  <polyline points="26,21 27,21 28,21 29,21 30,21 31,21 33,21 34,21 36,21 39,21 40,21 41,21 42,21 43,21 45,20 47,20 49,20 50,20 51,20 52,20 53,20 54,20 55,20 56,19 57,19 59,19 60,19 61,18 62,18 63,18" fill="none" stroke="#7c3cff" stroke-width="3" stroke-linecap="round" stroke-linejoin="round" opacity="0.95">
    <title>4462 g:1</title>
  </polyline>
  <polyline points="71,33 71,34 70,34 70,35 69,35 68,35 68,36 67,36 66,36 65,36 64,36 63,36 62,36 61,36 61,35 60,35 59,35 58,35 58,34 57,34 56,34 56,33 56,32 56,31 56,30 56,29 56,28 56,27 57,27 57,26 57,25 57,24 58,24 58,23 58,22 59,22 59,21 59,20 60,20 61,20 61,19 62,19 62,18 63,18 64,18 64,17 65,17 66,17 67,17 67,16" fill="none" stroke="#f2e45c" stroke-width="3" stroke-linecap="round" stroke-linejoin="round" opacity="0.95">
    <title>4380 e:1</title>
  </polyline>
</svg>
