<?xml version="1.0" encoding="UTF-8"?>
<svg xmlns="http://www.w3.org/2000/svg" width="90" height="54" viewBox="0 0 90 54">
  <title>particle img94-m56-p1 e:1 g:1 e:1</title>
  <metadata>{&quot;entityType&quot;:&quot;particle&quot;,&quot;entityId&quot;:&quot;img94-m56-p1&quot;,&quot;token&quot;:&quot;e:1 g:1 e:1&quot;,&quot;signature&quot;:&quot;e:1 g:1 e:1&quot;,&quot;imageName&quot;:&quot;page-094.jpg&quot;,&quot;imageId&quot;:94,&quot;bounds&quot;:{&quot;x&quot;:1917,&quot;y&quot;:2665,&quot;w&quot;:90,&quot;h&quot;:54},&quot;atoms&quot;:[{&quot;id&quot;:4405,&quot;token&quot;:&quot;e:1&quot;,&quot;particle_id&quot;:&quot;img94-m56-p1&quot;,&quot;molecule_id&quot;:&quot;img94-m56&quot;,&quot;atom_order&quot;:1},{&quot;id&quot;:4465,&quot;token&quot;:&quot;g:1&quot;,&quot;particle_id&quot;:&quot;img94-m56-p1&quot;,&quot;molecule_id&quot;:&quot;img94-m56&quot;,&quot;atom_order&quot;:2},{&quot;id&quot;:4406,&quot;token&quot;:&quot;e:1&quot;,&quot;particle_id&quot;:&quot;img94-m56-p1&quot;,&quot;molecule_id&quot;:&quot;img94-m56&quot;,&quot;atom_order&quot;:3}]}</metadata>
  <rect x="0" y="0" width="90" height="54" fill="#f8f0d8"/>
  <image href="file:///C:/Users/HHHES/AppData/Roaming/com.voynichlab.datasetcreator/images/1/33b1988f-7aaa-4207-bfa8-f26b742ac4b1.jpg" x="-1917" y="-2665" width="2932" height="3769" opacity="0.92"/>
  <rect x="0.5" y="0.5" width="89" height="53" fill="none" stroke="#111827" stroke-width="1" opacity="0.35"/>
  <polyline points="31,35 31,36 30,36 30,37 29,37 28,37 28,38 27,38 26,38 25,38 24,38 23,38 22,38 21,38 21,37 20,37 19,37 18,37 18,36 17,36 16,36 16,35 16,34 16,33 16,32 16,31 16,30 16,29 17,29 17,28 17,27 17,26 18,26 18,25 18,24 19,24 19,23 19,22 20,22 21,22 21,21 22,21 22,20 23,20 24,20 24,19 25,19 26,19 27,19 27,18" fill="none" stroke="#f2e45c" stroke-width="3" stroke-linecap="round" stroke-linejoin="round" opacity="0.95">
    <title>4405 e:1</title>
  </polyline>
  <polyline points="25,18 26,17 27,17 28,17 30,17 31,17 32,17 34,17 35,17 37,17 40,17 43,17 45,17 46,17 47,17 49,18 52,18 54,18 56,18 57,18 58,18 59,18 60,18 61,18 63,18 64,18 65,18 66,18 67,18 68,18" fill="none" stroke="#7c3cff" stroke-width="3" stroke-linecap="round" stroke-linejoin="round" opacity="0.95">
    <title>4465 g:1</title>
  </polyline>
  <polyline points="74,33 74,34 73,34 73,35 72,35 71,35 71,36 70,36 69,36 68,36 67,36 66,36 65,36 64,36 64,35 63,35 62,35 61,35 61,34 60,34 59,34 59,33 59,32 59,31 59,30 59,29 59,28 59,27 60,27 60,26 60,25 60,24 61,24 61,23 61,22 62,22 62,21 62,20 63,20 64,20 64,19 65,19 65,18 66,18 67,18 67,17 68,17 69,17 70,17 70,16" fill="none" stroke="#f2e45c" stroke-width="3" stroke-linecap="round" stroke-linejoin="round" opacity="0.95">
    <title>4406 e:1</title>
  </polyline>
</svg>
