<?xml version="1.0" encoding="UTF-8"?>
<svg xmlns="http://www.w3.org/2000/svg" width="44" height="58" viewBox="0 0 44 58">
  <title>particle img94-m3-p4 n:1</title>
  <metadata>{&quot;entityType&quot;:&quot;particle&quot;,&quot;entityId&quot;:&quot;img94-m3-p4&quot;,&quot;token&quot;:&quot;n:1&quot;,&quot;signature&quot;:&quot;n:1&quot;,&quot;imageName&quot;:&quot;page-094.jpg&quot;,&quot;imageId&quot;:94,&quot;bounds&quot;:{&quot;x&quot;:1421,&quot;y&quot;:503,&quot;w&quot;:44,&quot;h&quot;:58},&quot;atoms&quot;:[{&quot;id&quot;:3698,&quot;token&quot;:&quot;n:1&quot;,&quot;particle_id&quot;:&quot;img94-m3-p4&quot;,&quot;molecule_id&quot;:&quot;img94-m3&quot;,&quot;atom_order&quot;:1}]}</metadata>
  <rect x="0" y="0" width="44" height="58" fill="#f8f0d8"/>
  <image href="file:///C:/Users/HHHES/AppData/Roaming/com.voynichlab.datasetcreator/images/1/33b1988f-7aaa-4207-bfa8-f26b742ac4b1.jpg" x="-1421" y="-503" width="2932" height="3769" opacity="0.92"/>
  <rect x="0.5" y="0.5" width="43" height="57" fill="none" stroke="#111827" stroke-width="1" opacity="0.35"/>
  <polyline points="16,30 16,29 16,28 17,28 17,27 17,26 17,24 18,23 18,22 18,21 18,20 19,19 20,18 21,17 22,17 23,17 23,16 24,16 24,17 25,17 25,18 26,19 27,20 27,21 27,22 27,23 27,24 27,25 28,26 28,27 28,28 28,29 28,30 27,30 27,31 27,32 27,33 26,34 26,35 26,36 26,37 26,38 25,38 25,39 25,40 24,40 24,41 23,41 23,42 22,42" fill="none" stroke="#f92f59" stroke-width="3" stroke-linecap="round" stroke-linejoin="round" opacity="0.95">
    <title>3698 n:1</title>
  </polyline>
</svg>
