<?xml version="1.0" encoding="UTF-8"?>
<svg xmlns="http://www.w3.org/2000/svg" width="93" height="57" viewBox="0 0 93 57">
  <title>particle img94-m57-p3 c:2 g:1 e:1</title>
  <metadata>{&quot;entityType&quot;:&quot;particle&quot;,&quot;entityId&quot;:&quot;img94-m57-p3&quot;,&quot;token&quot;:&quot;c:2 g:1 e:1&quot;,&quot;signature&quot;:&quot;c:2 g:1 e:1&quot;,&quot;imageName&quot;:&quot;page-094.jpg&quot;,&quot;imageId&quot;:94,&quot;bounds&quot;:{&quot;x&quot;:1388,&quot;y&quot;:2702,&quot;w&quot;:93,&quot;h&quot;:57},&quot;atoms&quot;:[{&quot;id&quot;:4524,&quot;token&quot;:&quot;c:2&quot;,&quot;particle_id&quot;:&quot;img94-m57-p3&quot;,&quot;molecule_id&quot;:&quot;img94-m57&quot;,&quot;atom_order&quot;:1},{&quot;id&quot;:4463,&quot;token&quot;:&quot;g:1&quot;,&quot;particle_id&quot;:&quot;img94-m57-p3&quot;,&quot;molecule_id&quot;:&quot;img94-m57&quot;,&quot;atom_order&quot;:2},{&quot;id&quot;:4384,&quot;token&quot;:&quot;e:1&quot;,&quot;particle_id&quot;:&quot;img94-m57-p3&quot;,&quot;molecule_id&quot;:&quot;img94-m57&quot;,&quot;atom_order&quot;:3}]}</metadata>
  <rect x="0" y="0" width="93" height="57" fill="#f8f0d8"/>
  <image href="file:///C:/Users/HHHES/AppData/Roaming/com.voynichlab.datasetcreator/images/1/33b1988f-7aaa-4207-bfa8-f26b742ac4b1.jpg" x="-1388" y="-2702" width="2932" height="3769" opacity="0.92"/>
  <rect x="0.5" y="0.5" width="92" height="56" fill="none" stroke="#111827" stroke-width="1" opacity="0.35"/>
  <polyline points="29,32 28,32 27,32 28,31 29,31 29,32 29,33 28,34 27,34 27,33 27,32 28,32 29,31 29,32 29,33 28,33 27,33 26,33 25,33 25,32 26,31 27,31 28,30 28,31 28,32 27,32 27,33 26,33 25,33 24,33 24,32 24,31 25,31 26,30 27,30 28,30 29,30 30,30 30,31 30,32 29,33 28,33 27,33 26,33 25,33 25,32 25,31 26,31 27,30 29,29 29,30 29,31 29,32 28,33 27,34 26,34 25,34 24,34 24,33 24,31 26,30 27,30 28,30 29,30 29,31 29,33 29,34 28,34 28,35 27,35 26,35 25,35 24,34 23,33 23,32 23,30 24,29 25,28 26,28 27,28 28,28 28,29 29,30 29,31 29,32 29,34 29,36 29,37 28,38 27,38 26,38 26,37 25,37 25,36 24,35 23,33 23,32 23,31 23,30 24,29 25,29 26,28 27,28 28,28 29,28 29,29 30,29 30,30 30,31 31,32 31,33 31,34 31,35 30,36 29,36 28,36 27,36 26,36 25,36 24,35 23,35 22,34 21,33 21,32 21,31 21,30 21,29 23,28 23,27 24,27 26,27 27,27 28,27 30,28 31,28 32,29 32,30 32,31 32,32 32,33 32,34 31,35 31,36 30,36 30,37 28,37 27,37 25,37 24,36 22,36 22,35 21,33 21,32 21,31 22,30 24,29 26,28 29,28 31,29 33,29 33,30 34,31 34,32 34,34 34,35 33,37 31,38 30,38 28,38 26,38 24,37 22,36 22,35 21,33 21,32 22,31 23,29 25,28 27,27 30,27 32,27 33,27 34,27 35,28 35,29 36,31 36,33 36,35 36,36 36,37 35,37 35,38 34,38 33,38 31,38 29,38 28,38 27,38 26,37 25,37 24,37 24,36 23,36 23,35 22,35 22,34 22,33 21,32 21,31 21,30 22,29 22,28 23,28 23,27 24,27 25,27 25,26 26,26 27,26 28,26 29,26 30,26 31,26 32,26 33,26 34,26 35,26 36,26 36,27 37,27 37,28 38,28 38,29 38,30 38,31 39,31 39,32 39,33 39,34 38,35 38,36 38,37 37,38 36,38 36,39 35,39 35,40 34,40 33,40 32,40 32,41 31,41 30,41 29,41 28,41 27,41 26,41 25,41 24,41 23,40 22,40 21,40 21,39 20,39 20,38 19,38 19,37 18,36 18,35 17,34 17,33 16,33 16,32 16,31 16,30 16,29 16,28 16,27 17,27 17,26 17,25 18,25 18,24 19,24 20,24 20,23 21,23 21,22 22,22 23,22 24,22 25,22 26,22 27,22 28,22 29,22 30,22 31,22 32,22 33,22 34,22 34,23 35,23 36,24 36,25 36,26 37,26 37,27 37,28 38,28 38,29 38,30 38,31 38,32 38,33 38,34 38,35 38,36 38,37 37,37 36,37 36,38 35,38 34,38 34,39 33,39 32,39 31,40 30,40 29,40 28,40 27,40 26,40 25,40 24,40 24,39 23,39 22,39 22,38 21,38 21,37 20,37 20,36 19,36 19,35 18,35 18,34 18,33 18,32 18,31 18,30 18,29 18,28 19,27 20,26 21,25 22,24 23,24 24,24 24,23 25,23 26,23 27,23 28,23 28,24 30,24 31,24 32,24 33,25 34,25 35,25 35,26 35,27 35,28 35,29 35,30 35,31 35,32 36,33 36,34 36,35 35,35 35,36 35,37 35,38 34,38 33,38 32,38 32,39 31,39 30,39 29,39 28,39 27,39 26,39 25,39 24,39 24,38 23,38 22,37 21,37 21,36 20,36 20,35 20,34 20,33 20,32 20,31 20,30 19,30 19,29 20,29 20,28 21,28 21,27 22,27 22,26 23,26 24,26 24,25 25,25 25,24 26,24 27,24 28,24 29,25 30,25 31,25 32,25 32,26 33,26 33,27 34,27 34,28 34,29 34,30 34,31 34,32 34,33 33,33 33,34 33,35 32,35 32,36 31,36 31,37 32,37 33,37 33,36 34,36 35,35 36,34 37,33 37,32 37,31 37,30 36,29 36,28 35,28 35,27 35,26 35,25 34,25 34,24 34,23 33,23 33,22 32,22 31,22 30,22 29,22 29,23 28,23 27,23 26,23 25,23 24,23 23,23 22,23 21,23 20,23 20,24 19,24 19,25 19,26 18,26 18,27 18,28 17,28 17,29 17,30 18,30 18,31 18,32 18,33 19,33 19,34 20,34 20,35 21,35 21,36 21,35 21,34 20,33 19,33 19,32 18,31 18,30 17,30 18,30 18,31 18,32 17,32 17,31 18,31 18,30 19,30 20,30 20,29 20,28 21,27 21,26 21,25 21,24 22,24 23,24 23,23 22,23 21,23 21,24 20,25 20,26 20,27 20,28 21,29 22,29 22,30 23,30 24,29 24,28 24,27 25,27 25,26 25,25 24,25 23,25 22,25 22,26 21,26 21,27 21,28 21,29 22,29 23,29 24,29 26,28 27,28 28,27 28,26 28,25 28,24 27,24 27,25 26,25 25,26 25,27 25,28 26,28 27,28 27,27 28,26 28,25 28,24 27,24 26,24 27,24 27,25 28,25 29,25 30,25 31,24 32,24 32,23 31,23 30,23 31,23 31,24 31,25 31,26 32,26 32,27 32,28 33,29 33,30 33,31 32,32 31,32 30,32 29,32 28,32 28,31 29,31 30,30 31,29 32,29 32,30 32,31 32,32 32,33 31,33 31,34 30,34 29,34 28,34 28,33 28,32 29,32 30,31 31,30 32,30 33,29 34,29 34,30 34,31 34,32 33,32 33,33 33,34 32,34 32,35 33,35 34,34 35,34 36,34 36,33 36,34 36,35 35,35 35,36 35,37 34,37 35,37 36,37 36,36 37,35 37,34 37,33 37,32 38,32 38,31 38,30 38,29 37,28 37,27 37,26 37,25 36,25 35,25 35,24 34,24 33,24 32,24 31,24 30,24 29,24 28,24 28,25 28,26" fill="none" stroke="#8aff00" stroke-width="3" stroke-linecap="round" stroke-linejoin="round" opacity="0.95">
    <title>4524 c:2</title>
  </polyline>
  <polyline points="24,21 25,21 26,21 27,21 28,21 29,21 30,21 31,21 32,21 34,21 36,21 37,21 38,21 39,21 40,21 42,21 43,20 44,20 45,20 46,20 47,20 48,20 49,19 50,19 51,19 53,19 55,19 56,19 58,19 59,19 60,19 61,19 62,18 63,18 64,18 66,18 67,18 68,18 69,18 70,18 71,18 72,18 73,17 74,17" fill="none" stroke="#7c3cff" stroke-width="3" stroke-linecap="round" stroke-linejoin="round" opacity="0.95">
    <title>4463 g:1</title>
  </polyline>
  <polyline points="77,33 77,34 76,34 76,35 75,35 74,35 74,36 73,36 72,36 71,36 70,36 69,36 68,36 67,36 67,35 66,35 65,35 64,35 64,34 63,34 62,34 62,33 62,32 62,31 62,30 62,29 62,28 62,27 63,27 63,26 63,25 63,24 64,24 64,23 64,22 65,22 65,21 65,20 66,20 67,20 67,19 68,19 68,18 69,18 70,18 70,17 71,17 72,17 73,17 73,16" fill="none" stroke="#f2e45c" stroke-width="3" stroke-linecap="round" stroke-linejoin="round" opacity="0.95">
    <title>4384 e:1</title>
  </polyline>
</svg>
