<?xml version="1.0" encoding="UTF-8"?>
<svg xmlns="http://www.w3.org/2000/svg" width="56" height="82" viewBox="0 0 56 82">
  <title>particle img94-m10-p5 e:1 h:1</title>
  <metadata>{&quot;entityType&quot;:&quot;particle&quot;,&quot;entityId&quot;:&quot;img94-m10-p5&quot;,&quot;token&quot;:&quot;e:1 h:1&quot;,&quot;signature&quot;:&quot;e:1 h:1&quot;,&quot;imageName&quot;:&quot;page-094.jpg&quot;,&quot;imageId&quot;:94,&quot;bounds&quot;:{&quot;x&quot;:1508,&quot;y&quot;:630,&quot;w&quot;:56,&quot;h&quot;:82},&quot;atoms&quot;:[{&quot;id&quot;:2716,&quot;token&quot;:&quot;e:1&quot;,&quot;particle_id&quot;:&quot;img94-m10-p5&quot;,&quot;molecule_id&quot;:&quot;img94-m10&quot;,&quot;atom_order&quot;:1},{&quot;id&quot;:2736,&quot;token&quot;:&quot;h:1&quot;,&quot;particle_id&quot;:&quot;img94-m10-p5&quot;,&quot;molecule_id&quot;:&quot;img94-m10&quot;,&quot;atom_order&quot;:2}]}</metadata>
  <rect x="0" y="0" width="56" height="82" fill="#f8f0d8"/>
  <image href="file:///C:/Users/HHHES/AppData/Roaming/com.voynichlab.datasetcreator/images/1/33b1988f-7aaa-4207-bfa8-f26b742ac4b1.jpg" x="-1508" y="-630" width="2932" height="3769" opacity="0.92"/>
  <rect x="0.5" y="0.5" width="55" height="81" fill="none" stroke="#111827" stroke-width="1" opacity="0.35"/>
  <polyline points="31,33 31,34 30,34 30,35 29,35 28,35 28,36 27,36 26,36 25,36 24,36 23,36 22,36 21,36 21,35 20,35 19,35 18,35 18,34 17,34 16,34 16,33 16,32 16,31 16,30 16,29 16,28 16,27 17,27 17,26 17,25 17,24 18,24 18,23 18,22 19,22 19,21 19,20 20,20 21,20 21,19 22,19 22,18 23,18 24,18 24,17 25,17 26,17 27,17 27,16" fill="none" stroke="#f2e45c" stroke-width="3" stroke-linecap="round" stroke-linejoin="round" opacity="0.95">
    <title>2716 e:1</title>
  </polyline>
  <polyline points="28,16 29,16 29,17 30,17 31,17 31,18 31,19 32,19 33,20 34,21 35,22 36,23 36,24 37,24 37,25 38,25 38,26 38,27 39,28 39,29 39,30 39,31 40,31 40,32 40,33 40,34 40,35 40,36 40,37 39,37 39,38 39,39 39,40 39,41 38,42 38,43 38,44 37,45 37,46 36,46 36,47 35,48 35,49 34,49 34,50 33,50 33,51 32,51 32,52 31,52 31,53 30,54 30,55 29,55 29,56 28,56 28,57 27,57 27,58 26,58 26,59 25,59 25,60 24,61 24,62 23,62 23,63 22,64 22,65 21,66" fill="none" stroke="#ff8c00" stroke-width="3" stroke-linecap="round" stroke-linejoin="round" opacity="0.95">
    <title>2736 h:1</title>
  </polyline>
</svg>
