<?xml version="1.0" encoding="UTF-8"?>
<svg xmlns="http://www.w3.org/2000/svg" width="86" height="52" viewBox="0 0 86 52">
  <title>particle img94-m3-p5 e:1 g:1 e:1</title>
  <metadata>{&quot;entityType&quot;:&quot;particle&quot;,&quot;entityId&quot;:&quot;img94-m3-p5&quot;,&quot;token&quot;:&quot;e:1 g:1 e:1&quot;,&quot;signature&quot;:&quot;e:1 g:1 e:1&quot;,&quot;imageName&quot;:&quot;page-094.jpg&quot;,&quot;imageId&quot;:94,&quot;bounds&quot;:{&quot;x&quot;:1394,&quot;y&quot;:535,&quot;w&quot;:86,&quot;h&quot;:52},&quot;atoms&quot;:[{&quot;id&quot;:2642,&quot;token&quot;:&quot;e:1&quot;,&quot;particle_id&quot;:&quot;img94-m3-p5&quot;,&quot;molecule_id&quot;:&quot;img94-m3&quot;,&quot;atom_order&quot;:1},{&quot;id&quot;:2652,&quot;token&quot;:&quot;g:1&quot;,&quot;particle_id&quot;:&quot;img94-m3-p5&quot;,&quot;molecule_id&quot;:&quot;img94-m3&quot;,&quot;atom_order&quot;:2},{&quot;id&quot;:2643,&quot;token&quot;:&quot;e:1&quot;,&quot;particle_id&quot;:&quot;img94-m3-p5&quot;,&quot;molecule_id&quot;:&quot;img94-m3&quot;,&quot;atom_order&quot;:3}]}</metadata>
  <rect x="0" y="0" width="86" height="52" fill="#f8f0d8"/>
  <image href="file:///C:/Users/HHHES/AppData/Roaming/com.voynichlab.datasetcreator/images/1/33b1988f-7aaa-4207-bfa8-f26b742ac4b1.jpg" x="-1394" y="-535" width="2932" height="3769" opacity="0.92"/>
  <rect x="0.5" y="0.5" width="85" height="51" fill="none" stroke="#111827" stroke-width="1" opacity="0.35"/>
  <polyline points="31,33 31,34 30,34 30,35 29,35 28,35 28,36 27,36 26,36 25,36 24,36 23,36 22,36 21,36 21,35 20,35 19,35 18,35 18,34 17,34 16,34 16,33 16,32 16,31 16,30 16,29 16,28 16,27 17,27 17,26 17,25 17,24 18,24 18,23 18,22 19,22 19,21 19,20 20,20 21,20 21,19 22,19 22,18 23,18 24,18 24,17 25,17 26,17 27,17 27,16" fill="none" stroke="#f2e45c" stroke-width="3" stroke-linecap="round" stroke-linejoin="round" opacity="0.95">
    <title>2642 e:1</title>
  </polyline>
  <polyline points="27,17 28,17 29,17 30,17 31,17 32,17 33,17 34,17 35,17 35,18 36,18 37,18 38,18 39,18 40,18 41,18 42,18 43,18 44,18 45,18 46,18 47,18 48,18 49,18 50,18 51,18 52,18 53,18 54,18 55,18 56,18 57,18 58,18 59,18 60,18 61,18 61,17 62,17 63,17 64,17 65,17" fill="none" stroke="#7c3cff" stroke-width="3" stroke-linecap="round" stroke-linejoin="round" opacity="0.95">
    <title>2652 g:1</title>
  </polyline>
  <polyline points="70,33 70,34 69,34 69,35 68,35 67,35 67,36 66,36 65,36 64,36 63,36 62,36 61,36 60,36 60,35 59,35 58,35 57,35 57,34 56,34 55,34 55,33 55,32 55,31 55,30 55,29 55,28 55,27 56,27 56,26 56,25 56,24 57,24 57,23 57,22 58,22 58,21 58,20 59,20 60,20 60,19 61,19 61,18 62,18 63,18 63,17 64,17 65,17 66,17 66,16" fill="none" stroke="#f2e45c" stroke-width="3" stroke-linecap="round" stroke-linejoin="round" opacity="0.95">
    <title>2643 e:1</title>
  </polyline>
</svg>
