<?xml version="1.0" encoding="UTF-8"?>
<svg xmlns="http://www.w3.org/2000/svg" width="58" height="76" viewBox="0 0 58 76">
  <title>particle img94-m28-p1 e:1 i:1 c:2</title>
  <metadata>{&quot;entityType&quot;:&quot;particle&quot;,&quot;entityId&quot;:&quot;img94-m28-p1&quot;,&quot;token&quot;:&quot;e:1 i:1 c:2&quot;,&quot;signature&quot;:&quot;e:1 i:1 c:2&quot;,&quot;imageName&quot;:&quot;page-094.jpg&quot;,&quot;imageId&quot;:94,&quot;bounds&quot;:{&quot;x&quot;:1833,&quot;y&quot;:861,&quot;w&quot;:58,&quot;h&quot;:76},&quot;atoms&quot;:[{&quot;id&quot;:2942,&quot;token&quot;:&quot;e:1&quot;,&quot;particle_id&quot;:&quot;img94-m28-p1&quot;,&quot;molecule_id&quot;:&quot;img94-m28&quot;,&quot;atom_order&quot;:1},{&quot;id&quot;:2978,&quot;token&quot;:&quot;i:1&quot;,&quot;particle_id&quot;:&quot;img94-m28-p1&quot;,&quot;molecule_id&quot;:&quot;img94-m28&quot;,&quot;atom_order&quot;:2},{&quot;id&quot;:2979,&quot;token&quot;:&quot;c:2&quot;,&quot;particle_id&quot;:&quot;img94-m28-p1&quot;,&quot;molecule_id&quot;:&quot;img94-m28&quot;,&quot;atom_order&quot;:3}]}</metadata>
  <rect x="0" y="0" width="58" height="76" fill="#f8f0d8"/>
  <image href="file:///C:/Users/HHHES/AppData/Roaming/com.voynichlab.datasetcreator/images/1/33b1988f-7aaa-4207-bfa8-f26b742ac4b1.jpg" x="-1833" y="-861" width="2932" height="3769" opacity="0.92"/>
  <rect x="0.5" y="0.5" width="57" height="75" fill="none" stroke="#111827" stroke-width="1" opacity="0.35"/>
  <polyline points="31,57 31,58 30,58 30,59 29,59 28,59 28,60 27,60 26,60 25,60 24,60 23,60 22,60 21,60 21,59 20,59 19,59 18,59 18,58 17,58 16,58 16,57 16,56 16,55 16,54 16,53 16,52 16,51 17,51 17,50 17,49 17,48 18,48 18,47 18,46 19,46 19,45 19,44 20,44 21,44 21,43 22,43 22,42 23,42 24,42 24,41 25,41 26,41 27,41 27,40" fill="none" stroke="#f2e45c" stroke-width="3" stroke-linecap="round" stroke-linejoin="round" opacity="0.95">
    <title>2942 e:1</title>
  </polyline>
  <polyline points="26,41 27,41 28,41 28,40 29,40 30,40 30,39 31,39 32,39 32,38 33,38 34,38 34,37 35,37 35,36 36,36 36,35 37,35 37,34 38,34 39,33 39,32 40,32 40,31 41,31 41,30 41,29 42,29 42,28 42,27 42,26 42,25 42,24 41,24 41,23 41,22 40,22 40,21 39,21 39,20 38,20" fill="none" stroke="#00ff7f" stroke-width="3" stroke-linecap="round" stroke-linejoin="round" opacity="0.95">
    <title>2978 i:1</title>
  </polyline>
  <polyline points="31,26 30,26 29,26 30,25 31,25 31,26 31,27 30,28 29,28 29,27 29,26 30,26 31,25 31,26 31,27 30,27 29,27 28,27 27,27 27,26 28,25 29,25 30,24 30,25 30,26 29,26 29,27 28,27 27,27 26,27 26,26 26,25 27,25 28,24 29,24 30,24 31,24 32,24 32,25 32,26 31,27 30,27 29,27 28,27 27,27 27,26 27,25 28,25 29,24 31,23 31,24 31,25 31,26 30,27 29,28 28,28 27,28 26,28 26,27 26,25 28,24 29,24 30,24 31,24 31,25 31,27 31,28 30,28 30,29 29,29 28,29 27,29 26,28 25,27 25,26 25,24 26,23 27,22 28,22 29,22 30,22 30,23 31,24 31,25 31,26 31,28 31,30 31,31 30,32 29,32 28,32 28,31 27,31 27,30 26,29 25,27 25,26 25,25 25,24 26,23 27,23 28,22 29,22 30,22 31,22 31,23 32,23 32,24 32,25 33,26 33,27 33,28 33,29 32,30 31,30 30,30 29,30 28,30 27,30 26,29 25,29 24,28 23,27 23,26 23,25 23,24 23,23 25,22 25,21 26,21 28,21 29,21 30,21 32,22 33,22 34,23 34,24 34,25 34,26 34,27 34,28 33,29 33,30 32,30 32,31 30,31 29,31 27,31 26,30 24,30 24,29 23,27 23,26 23,25 24,24 26,23 28,22 31,22 33,23 35,23 35,24 36,25 36,26 36,28 36,29 35,31 33,32 32,32 30,32 28,32 26,31 24,30 24,29 23,27 23,26 24,25 25,23 27,22 29,21 32,21 34,21 35,21 36,21 37,22 37,23 38,25 38,27 38,29 38,30 38,31 37,31 37,32 36,32 35,32 33,32 31,32 30,32 29,32 28,31 27,31 26,31 26,30 25,30 25,29 24,29 24,28 24,27 23,26 23,25 23,24 24,23 24,22 25,22 25,21 26,21 27,21 27,20 28,20 29,20 30,20 31,20 32,20 33,20 34,20 35,20 36,20 37,20 38,20 38,21 39,21 39,22 40,22 40,23 40,24 40,25 41,25 41,26 41,27 41,28 40,29 40,30 40,31 39,32 38,32 38,33 37,33 37,34 36,34 35,34 34,34 34,35 33,35 32,35 31,35 30,35 29,35 28,35 27,35 26,35 25,34 24,34 23,34 23,33 22,33 22,32 21,32 21,31 20,30 20,29 19,28 19,27 18,27 18,26 18,25 18,24 18,23 18,22 18,21 19,21 19,20 19,19 20,19 20,18 21,18 22,18 22,17 23,17 23,16 24,16 25,16 26,16 27,16 28,16 29,16 30,16 31,16 32,16 33,16 34,16 35,16 36,16 36,17 37,17 38,18 38,19 38,20 39,20 39,21 39,22 40,22 40,23 40,24 40,25 40,26 40,27 40,28 40,29 40,30 40,31 39,31 38,31 38,32 37,32 36,32 36,33 35,33 34,33 33,34 32,34 31,34 30,34 29,34 28,34 27,34 26,34 26,33 25,33 24,33 24,32 23,32 23,31 22,31 22,30 21,30 21,29 20,29 20,28 20,27 20,26 20,25 20,24 20,23 20,22 21,21 22,20 23,19 24,18 25,18 26,18 26,17 27,17 28,17 29,17 30,17 30,18 32,18 33,18 34,18 35,19 36,19 37,19 37,20 37,21 37,22 37,23 37,24 37,25 37,26 38,27 38,28 38,29 37,29 37,30 37,31 37,32 36,32 35,32 34,32 34,33 33,33 32,33 31,33 30,33 29,33 28,33 27,33 26,33 26,32 25,32 24,31 23,31 23,30 22,30 22,29 22,28 22,27 22,26 22,25 22,24 21,24 21,23 22,23 22,22 23,22 23,21 24,21 24,20 25,20 26,20 26,19 27,19 27,18 28,18 29,18 30,18 31,19 32,19 33,19 34,19 34,20 35,20 35,21 36,21 36,22 36,23 36,24 36,25 36,26 36,27 35,27 35,28 35,29 34,29 34,30 33,30 33,31 34,31 35,31 35,30 36,30 37,29 38,28 39,27 39,26 39,25 39,24 38,23 38,22 37,22 37,21 37,20 37,19 36,19 36,18 36,17 35,17 35,16 34,16 33,16 32,16 31,16 31,17 30,17 29,17 28,17 27,17 26,17 25,17 24,17 23,17 22,17 22,18 21,18 21,19 21,20 20,20 20,21 20,22 19,22 19,23 19,24 20,24 20,25 20,26 20,27 21,27 21,28 22,28 22,29 23,29 23,30 23,29 23,28 22,27 21,27 21,26 20,25 20,24 19,24 20,24 20,25 20,26 19,26 19,25 20,25 20,24 21,24 22,24 22,23 22,22 23,21 23,20 23,19 23,18 24,18 25,18 25,17 24,17 23,17 23,18 22,19 22,20 22,21 22,22 23,23 24,23 24,24 25,24 26,23 26,22 26,21 27,21 27,20 27,19 26,19 25,19 24,19 24,20 23,20 23,21 23,22 23,23 24,23 25,23 26,23 28,22 29,22 30,21 30,20 30,19 30,18 29,18 29,19 28,19 27,20 27,21 27,22 28,22 29,22 29,21 30,20 30,19 30,18 29,18 28,18 29,18 29,19 30,19 31,19 32,19 33,18 34,18 34,17 33,17 32,17 33,17 33,18 33,19 33,20 34,20 34,21 34,22 35,23 35,24 35,25 34,26 33,26 32,26 31,26 30,26 30,25 31,25 32,24 33,23 34,23 34,24 34,25 34,26 34,27 33,27 33,28 32,28 31,28 30,28 30,27 30,26 31,26 32,25 33,24 34,24 35,23 36,23 36,24 36,25 36,26 35,26 35,27 35,28 34,28 34,29 35,29 36,28 37,28 38,28 38,27 38,28 38,29 37,29 37,30 37,31 36,31 37,31 38,31 38,30 39,29 39,28 39,27 39,26 40,26 40,25 40,24 40,23 39,22 39,21 39,20 39,19 38,19 37,19 37,18 36,18 35,18 34,18 33,18 32,18 31,18 30,18 30,19 30,20" fill="none" stroke="#8aff00" stroke-width="3" stroke-linecap="round" stroke-linejoin="round" opacity="0.95">
    <title>2979 c:2</title>
  </polyline>
</svg>
