<?xml version="1.0" encoding="UTF-8"?>
<svg xmlns="http://www.w3.org/2000/svg" width="109" height="90" viewBox="0 0 109 90">
  <title>particle img94-m15-p3 k:1 f:1 i:1 d:1</title>
  <metadata>{&quot;entityType&quot;:&quot;particle&quot;,&quot;entityId&quot;:&quot;img94-m15-p3&quot;,&quot;token&quot;:&quot;k:1 f:1 i:1 d:1&quot;,&quot;signature&quot;:&quot;k:1 f:1 i:1 d:1&quot;,&quot;imageName&quot;:&quot;page-094.jpg&quot;,&quot;imageId&quot;:94,&quot;bounds&quot;:{&quot;x&quot;:2137,&quot;y&quot;:712,&quot;w&quot;:109,&quot;h&quot;:90},&quot;atoms&quot;:[{&quot;id&quot;:2808,&quot;token&quot;:&quot;k:1&quot;,&quot;particle_id&quot;:&quot;img94-m15-p3&quot;,&quot;molecule_id&quot;:&quot;img94-m15&quot;,&quot;atom_order&quot;:1},{&quot;id&quot;:2805,&quot;token&quot;:&quot;f:1&quot;,&quot;particle_id&quot;:&quot;img94-m15-p3&quot;,&quot;molecule_id&quot;:&quot;img94-m15&quot;,&quot;atom_order&quot;:2},{&quot;id&quot;:2806,&quot;token&quot;:&quot;i:1&quot;,&quot;particle_id&quot;:&quot;img94-m15-p3&quot;,&quot;molecule_id&quot;:&quot;img94-m15&quot;,&quot;atom_order&quot;:3},{&quot;id&quot;:2807,&quot;token&quot;:&quot;d:1&quot;,&quot;particle_id&quot;:&quot;img94-m15-p3&quot;,&quot;molecule_id&quot;:&quot;img94-m15&quot;,&quot;atom_order&quot;:4}]}</metadata>
  <rect x="0" y="0" width="109" height="90" fill="#f8f0d8"/>
  <image href="file:///C:/Users/HHHES/AppData/Roaming/com.voynichlab.datasetcreator/images/1/33b1988f-7aaa-4207-bfa8-f26b742ac4b1.jpg" x="-2137" y="-712" width="2932" height="3769" opacity="0.92"/>
  <rect x="0.5" y="0.5" width="108" height="89" fill="none" stroke="#111827" stroke-width="1" opacity="0.35"/>
  <polyline points="16,45 16,46 16,47 17,47 17,48 17,49 18,49 18,50 18,51 18,52 19,52 19,53 19,54 20,54 20,55 20,56 20,57 21,57 21,58 22,59 22,60 23,61 23,62 23,63 24,64 24,65 25,66 25,67 26,67 26,68 26,67 27,67 27,66 28,65 29,64 30,63 30,62 31,62 31,61 32,61 32,60 32,59 33,59 33,58 33,57 34,57 34,56 34,55 35,55 35,54 36,54 36,53 36,52 37,52 37,51 37,50 38,50 38,49 38,50 38,51 38,52 38,53 38,54 38,55 39,56 39,57 40,57 40,58 40,59 41,60 41,61 42,61 42,62 43,62 43,63 43,64 44,64 44,65 44,66 45,66 45,67 46,67 46,68 47,68 47,69 48,69 48,70 49,70 49,69 50,69 50,68 51,67 52,66 53,66 53,65 53,64 54,64 54,63 55,63 55,62 56,62 56,61 57,60 57,59 58,59 59,58 60,57 60,56 61,56 61,55 61,54 62,54" fill="none" stroke="#ffffff" stroke-width="3" stroke-linecap="round" stroke-linejoin="round" opacity="0.95">
    <title>2808 k:1</title>
  </polyline>
  <polyline points="62,52 62,53 62,54 63,54 63,55 63,56 64,56 64,57 65,58 65,59 66,59 66,60 67,61 67,62 68,62 68,63 69,63 69,64 70,64 70,65 70,66 71,66 71,67 71,68 72,68 72,69 73,69 73,70 74,71 74,72 75,72 75,73" fill="none" stroke="#00a2ff" stroke-width="3" stroke-linecap="round" stroke-linejoin="round" opacity="0.95">
    <title>2805 f:1</title>
  </polyline>
  <polyline points="75,74 76,74 77,74 78,74 79,74 80,74 80,73 81,73 82,73 82,72 83,72 84,72 84,71 85,71 86,71 86,70 87,70 87,69 88,68 89,68 89,67 90,66 90,65 91,65 91,64 91,63 92,63 92,62 92,61 92,60 92,59 93,59 93,58 93,57 93,56 93,55 93,54 93,53 93,52 93,51 93,50 93,49 93,48 93,47 92,47 92,46 92,45 92,44 91,44 91,43 91,42 90,41 90,40 90,39 89,38 89,37 89,36 88,36 88,35 87,34 87,33 86,33 86,32 85,31 85,30 84,30 84,29 84,28 83,28 83,27 82,27 82,26 81,26 81,25 80,25 79,25 78,24 77,24 77,23 76,23" fill="none" stroke="#00ff7f" stroke-width="3" stroke-linecap="round" stroke-linejoin="round" opacity="0.95">
    <title>2806 i:1</title>
  </polyline>
  <polyline points="38,30 38,29 38,28 39,28 39,27 40,27 40,26 41,26 41,25 42,24 42,23 43,23 43,22 44,22 44,21 45,20 46,20 46,19 47,19 48,19 49,18 50,18 51,18 51,17 52,17 53,17 54,17 54,16 55,16 56,16 57,16 58,16 59,16 60,16 61,16 62,16 62,17 63,17 64,17 65,18 66,18 66,19 67,19 68,19 69,19 70,19 71,19 72,20 73,20 74,20 74,21 75,21 75,22 75,23 76,23 77,23 77,24 78,24 78,25 79,25" fill="none" stroke="#ff2d55" stroke-width="3" stroke-linecap="round" stroke-linejoin="round" opacity="0.95">
    <title>2807 d:1</title>
  </polyline>
</svg>
