<?xml version="1.0" encoding="UTF-8"?>
<svg xmlns="http://www.w3.org/2000/svg" width="54" height="89" viewBox="0 0 54 89">
  <title>particle img94-m9-p6 e:1 h:1</title>
  <metadata>{&quot;entityType&quot;:&quot;particle&quot;,&quot;entityId&quot;:&quot;img94-m9-p6&quot;,&quot;token&quot;:&quot;e:1 h:1&quot;,&quot;signature&quot;:&quot;e:1 h:1&quot;,&quot;imageName&quot;:&quot;page-094.jpg&quot;,&quot;imageId&quot;:94,&quot;bounds&quot;:{&quot;x&quot;:973,&quot;y&quot;:642,&quot;w&quot;:54,&quot;h&quot;:89},&quot;atoms&quot;:[{&quot;id&quot;:2691,&quot;token&quot;:&quot;e:1&quot;,&quot;particle_id&quot;:&quot;img94-m9-p6&quot;,&quot;molecule_id&quot;:&quot;img94-m9&quot;,&quot;atom_order&quot;:1},{&quot;id&quot;:2701,&quot;token&quot;:&quot;h:1&quot;,&quot;particle_id&quot;:&quot;img94-m9-p6&quot;,&quot;molecule_id&quot;:&quot;img94-m9&quot;,&quot;atom_order&quot;:2}]}</metadata>
  <rect x="0" y="0" width="54" height="89" fill="#f8f0d8"/>
  <image href="file:///C:/Users/HHHES/AppData/Roaming/com.voynichlab.datasetcreator/images/1/33b1988f-7aaa-4207-bfa8-f26b742ac4b1.jpg" x="-973" y="-642" width="2932" height="3769" opacity="0.92"/>
  <rect x="0.5" y="0.5" width="53" height="88" fill="none" stroke="#111827" stroke-width="1" opacity="0.35"/>
  <polyline points="31,33 31,34 30,34 30,35 29,35 28,35 28,36 27,36 26,36 25,36 24,36 23,36 22,36 21,36 21,35 20,35 19,35 18,35 18,34 17,34 16,34 16,33 16,32 16,31 16,30 16,29 16,28 16,27 17,27 17,26 17,25 17,24 18,24 18,23 18,22 19,22 19,21 19,20 20,20 21,20 21,19 22,19 22,18 23,18 24,18 24,17 25,17 26,17 27,17 27,16" fill="none" stroke="#f2e45c" stroke-width="3" stroke-linecap="round" stroke-linejoin="round" opacity="0.95">
    <title>2691 e:1</title>
  </polyline>
  <polyline points="27,16 28,16 29,16 29,17 30,17 30,18 31,19 31,20 32,20 32,21 32,22 33,22 33,23 34,24 34,25 34,26 35,26 35,27 35,28 36,28 36,29 36,30 37,30 37,31 37,32 37,33 37,34 37,35 38,35 38,36 38,37 38,38 38,39 38,40 38,41 38,42 38,43 38,44 38,45 38,46 38,47 38,48 38,49 38,50 38,51 38,52 37,52 37,53 37,54 37,55 36,56 36,57 36,58 35,59 35,60 35,61 34,62 34,63 34,64 33,64 33,65 33,66 32,66 32,67 31,67 31,68 31,69 30,69 30,70 29,70 29,71 28,72 28,73 27,73" fill="none" stroke="#ff8c00" stroke-width="3" stroke-linecap="round" stroke-linejoin="round" opacity="0.95">
    <title>2701 h:1</title>
  </polyline>
</svg>
