<?xml version="1.0" encoding="UTF-8"?>
<svg xmlns="http://www.w3.org/2000/svg" width="58" height="75" viewBox="0 0 58 75">
  <title>particle img94-m15-p1 e:1 c:1 h:2</title>
  <metadata>{&quot;entityType&quot;:&quot;particle&quot;,&quot;entityId&quot;:&quot;img94-m15-p1&quot;,&quot;token&quot;:&quot;e:1 c:1 h:2&quot;,&quot;signature&quot;:&quot;e:1 c:1 h:2&quot;,&quot;imageName&quot;:&quot;page-094.jpg&quot;,&quot;imageId&quot;:94,&quot;bounds&quot;:{&quot;x&quot;:2053,&quot;y&quot;:710,&quot;w&quot;:58,&quot;h&quot;:75},&quot;atoms&quot;:[{&quot;id&quot;:2809,&quot;token&quot;:&quot;e:1&quot;,&quot;particle_id&quot;:&quot;img94-m15-p1&quot;,&quot;molecule_id&quot;:&quot;img94-m15&quot;,&quot;atom_order&quot;:1},{&quot;id&quot;:2795,&quot;token&quot;:&quot;c:1&quot;,&quot;particle_id&quot;:&quot;img94-m15-p1&quot;,&quot;molecule_id&quot;:&quot;img94-m15&quot;,&quot;atom_order&quot;:2},{&quot;id&quot;:2810,&quot;token&quot;:&quot;h:2&quot;,&quot;particle_id&quot;:&quot;img94-m15-p1&quot;,&quot;molecule_id&quot;:&quot;img94-m15&quot;,&quot;atom_order&quot;:3}]}</metadata>
  <rect x="0" y="0" width="58" height="75" fill="#f8f0d8"/>
  <image href="file:///C:/Users/HHHES/AppData/Roaming/com.voynichlab.datasetcreator/images/1/33b1988f-7aaa-4207-bfa8-f26b742ac4b1.jpg" x="-2053" y="-710" width="2932" height="3769" opacity="0.92"/>
  <rect x="0.5" y="0.5" width="57" height="74" fill="none" stroke="#111827" stroke-width="1" opacity="0.35"/>
  <polyline points="31,56 31,57 30,57 30,58 29,58 28,58 28,59 27,59 26,59 25,59 24,59 23,59 22,59 21,59 21,58 20,58 19,58 18,58 18,57 17,57 16,57 16,56 16,55 16,54 16,53 16,52 16,51 16,50 17,50 17,49 17,48 17,47 18,47 18,46 18,45 19,45 19,44 19,43 20,43 21,43 21,42 22,42 22,41 23,41 24,41 24,40 25,40 26,40 27,40 27,39" fill="none" stroke="#f2e45c" stroke-width="3" stroke-linecap="round" stroke-linejoin="round" opacity="0.95">
    <title>2809 e:1</title>
  </polyline>
  <polyline points="24,22 24,23 23,23 23,24 23,25 22,25 22,26 22,27 22,28 22,29 22,30 22,31 22,32 23,32 23,33 24,33 24,34 25,35 26,35 27,35 28,35 28,36 29,36 30,36 31,36 32,36 33,36 34,36 35,36 36,36 36,35 37,35 38,35 38,34 38,33 39,33 39,32 40,32 40,31 40,30 41,30 41,29 41,28 42,28 42,27 42,26 42,25 42,24 42,23 42,22 41,22 41,21 41,20 40,20 40,19 39,19 39,18 38,18 38,17 37,17 36,17 36,16 35,16 34,16 33,16 32,16 31,16 30,16 29,16 28,17 27,17 27,18 26,18 26,19 25,19 24,19 24,20 23,20 23,21 23,22" fill="none" stroke="#8aff00" stroke-width="3" stroke-linecap="round" stroke-linejoin="round" opacity="0.95">
    <title>2795 c:1</title>
  </polyline>
  <polyline points="31,57 31,56 32,56 32,55 33,55 33,54 33,53 34,53 34,52 34,51 35,51 35,50 35,49 34,49 34,48 34,47 34,46 33,45 33,44 33,43 32,43 32,42 31,42 31,41 30,40 29,40 29,39 28,39 28,38 27,38 27,37 26,36 26,35 25,35 25,34 24,34 24,33 23,33 23,32 23,31 22,31 22,30 22,29 21,29 21,28 21,27 21,26 21,25 21,24 22,24 22,23 22,22 23,22 23,21 24,21 24,20 25,19 26,19 27,18 28,18 29,18 30,18 31,18 32,17 33,17 34,17 35,17 36,17" fill="none" stroke="#ff8c00" stroke-width="3" stroke-linecap="round" stroke-linejoin="round" opacity="0.95">
    <title>2810 h:2</title>
  </polyline>
</svg>
