<?xml version="1.0" encoding="UTF-8"?>
<svg xmlns="http://www.w3.org/2000/svg" width="89" height="54" viewBox="0 0 89 54">
  <title>particle img94-m66-p2 e:1 g:1 e:1</title>
  <metadata>{&quot;entityType&quot;:&quot;particle&quot;,&quot;entityId&quot;:&quot;img94-m66-p2&quot;,&quot;token&quot;:&quot;e:1 g:1 e:1&quot;,&quot;signature&quot;:&quot;e:1 g:1 e:1&quot;,&quot;imageName&quot;:&quot;page-094.jpg&quot;,&quot;imageId&quot;:94,&quot;bounds&quot;:{&quot;x&quot;:1079,&quot;y&quot;:2794,&quot;w&quot;:89,&quot;h&quot;:54},&quot;atoms&quot;:[{&quot;id&quot;:4392,&quot;token&quot;:&quot;e:1&quot;,&quot;particle_id&quot;:&quot;img94-m66-p2&quot;,&quot;molecule_id&quot;:&quot;img94-m66&quot;,&quot;atom_order&quot;:1},{&quot;id&quot;:4470,&quot;token&quot;:&quot;g:1&quot;,&quot;particle_id&quot;:&quot;img94-m66-p2&quot;,&quot;molecule_id&quot;:&quot;img94-m66&quot;,&quot;atom_order&quot;:2},{&quot;id&quot;:4393,&quot;token&quot;:&quot;e:1&quot;,&quot;particle_id&quot;:&quot;img94-m66-p2&quot;,&quot;molecule_id&quot;:&quot;img94-m66&quot;,&quot;atom_order&quot;:3}]}</metadata>
  <rect x="0" y="0" width="89" height="54" fill="#f8f0d8"/>
  <image href="file:///C:/Users/HHHES/AppData/Roaming/com.voynichlab.datasetcreator/images/1/33b1988f-7aaa-4207-bfa8-f26b742ac4b1.jpg" x="-1079" y="-2794" width="2932" height="3769" opacity="0.92"/>
  <rect x="0.5" y="0.5" width="88" height="53" fill="none" stroke="#111827" stroke-width="1" opacity="0.35"/>
  <polyline points="31,35 31,36 30,36 30,37 29,37 28,37 28,38 27,38 26,38 25,38 24,38 23,38 22,38 21,38 21,37 20,37 19,37 18,37 18,36 17,36 16,36 16,35 16,34 16,33 16,32 16,31 16,30 16,29 17,29 17,28 17,27 17,26 18,26 18,25 18,24 19,24 19,23 19,22 20,22 21,22 21,21 22,21 22,20 23,20 24,20 24,19 25,19 26,19 27,19 27,18" fill="none" stroke="#f2e45c" stroke-width="3" stroke-linecap="round" stroke-linejoin="round" opacity="0.95">
    <title>4392 e:1</title>
  </polyline>
  <polyline points="25,19 26,19 27,19 28,19 29,19 30,19 31,18 32,18 34,18 37,18 39,18 41,18 42,18 43,18 45,18 48,18 50,18 51,18 52,18 53,18 54,18 55,18 56,18 57,18 58,18 59,18 60,17 61,17 62,17 63,17 64,17 65,17 66,17 67,17" fill="none" stroke="#7c3cff" stroke-width="3" stroke-linecap="round" stroke-linejoin="round" opacity="0.95">
    <title>4470 g:1</title>
  </polyline>
  <polyline points="73,33 73,34 72,34 72,35 71,35 70,35 70,36 69,36 68,36 67,36 66,36 65,36 64,36 63,36 63,35 62,35 61,35 60,35 60,34 59,34 58,34 58,33 58,32 58,31 58,30 58,29 58,28 58,27 59,27 59,26 59,25 59,24 60,24 60,23 60,22 61,22 61,21 61,20 62,20 63,20 63,19 64,19 64,18 65,18 66,18 66,17 67,17 68,17 69,17 69,16" fill="none" stroke="#f2e45c" stroke-width="3" stroke-linecap="round" stroke-linejoin="round" opacity="0.95">
    <title>4393 e:1</title>
  </polyline>
</svg>
