<?xml version="1.0" encoding="UTF-8"?>
<svg xmlns="http://www.w3.org/2000/svg" width="68" height="96" viewBox="0 0 68 96">
  <title>particle img94-m5-p3 f:1 i:1 d:1</title>
  <metadata>{&quot;entityType&quot;:&quot;particle&quot;,&quot;entityId&quot;:&quot;img94-m5-p3&quot;,&quot;token&quot;:&quot;f:1 i:1 d:1&quot;,&quot;signature&quot;:&quot;f:1 i:1 d:1&quot;,&quot;imageName&quot;:&quot;page-094.jpg&quot;,&quot;imageId&quot;:94,&quot;bounds&quot;:{&quot;x&quot;:2113,&quot;y&quot;:546,&quot;w&quot;:68,&quot;h&quot;:96},&quot;atoms&quot;:[{&quot;id&quot;:2682,&quot;token&quot;:&quot;f:1&quot;,&quot;particle_id&quot;:&quot;img94-m5-p3&quot;,&quot;molecule_id&quot;:&quot;img94-m5&quot;,&quot;atom_order&quot;:1},{&quot;id&quot;:2683,&quot;token&quot;:&quot;i:1&quot;,&quot;particle_id&quot;:&quot;img94-m5-p3&quot;,&quot;molecule_id&quot;:&quot;img94-m5&quot;,&quot;atom_order&quot;:2},{&quot;id&quot;:2686,&quot;token&quot;:&quot;d:1&quot;,&quot;particle_id&quot;:&quot;img94-m5-p3&quot;,&quot;molecule_id&quot;:&quot;img94-m5&quot;,&quot;atom_order&quot;:3}]}</metadata>
  <rect x="0" y="0" width="68" height="96" fill="#f8f0d8"/>
  <image href="file:///C:/Users/HHHES/AppData/Roaming/com.voynichlab.datasetcreator/images/1/33b1988f-7aaa-4207-bfa8-f26b742ac4b1.jpg" x="-2113" y="-546" width="2932" height="3769" opacity="0.92"/>
  <rect x="0.5" y="0.5" width="67" height="95" fill="none" stroke="#111827" stroke-width="1" opacity="0.35"/>
  <polyline points="23,59 23,60 23,61 24,61 24,62 24,63 25,63 25,64 26,65 26,66 27,66 27,67 28,68 28,69 29,69 29,70 30,70 30,71 31,71 31,72 31,73 32,73 32,74 32,75 33,75 33,76 34,76 34,77 35,78 35,79 36,79 36,80" fill="none" stroke="#00a2ff" stroke-width="3" stroke-linecap="round" stroke-linejoin="round" opacity="0.95">
    <title>2682 f:1</title>
  </polyline>
  <polyline points="23,61 24,61 25,61 26,61 27,61 28,61 28,62 29,62 30,62 31,62 32,62 33,62 34,62 35,62 35,61 36,61 37,61 38,61 38,60 39,60 40,60 41,60 41,59 42,59 43,59 43,58 44,58 44,57 45,57 46,57 46,56 47,56 47,55 48,55 48,54 48,53 49,53 49,52 50,52 50,51 50,50 51,49 52,48 52,47 52,46 52,45 52,44 52,43 52,42 52,41 52,40 52,39 52,38 52,37 52,36 52,35 52,34 52,33 52,32 52,31 52,30 52,29 51,29 51,28 51,27 50,27 50,26 49,26 49,25" fill="none" stroke="#00ff7f" stroke-width="3" stroke-linecap="round" stroke-linejoin="round" opacity="0.95">
    <title>2683 i:1</title>
  </polyline>
  <polyline points="17,27 16,27 16,26 16,25 17,24 17,23 18,22 18,21 19,20 19,19 20,19 20,18 21,18 21,17 22,17 23,17 23,16 24,16 25,16 26,16 27,16 28,16 29,16 30,16 31,16 32,16 33,17 34,17 35,17 36,17 37,18 38,18 39,18 40,18 40,19 41,19 42,19 42,20 43,20 44,21 45,21 46,21 46,22 47,22 48,22 48,23 48,24 49,24 49,25 49,26 50,26 50,27" fill="none" stroke="#ff2d55" stroke-width="3" stroke-linecap="round" stroke-linejoin="round" opacity="0.95">
    <title>2686 d:1</title>
  </polyline>
</svg>
