<?xml version="1.0" encoding="UTF-8"?>
<svg xmlns="http://www.w3.org/2000/svg" width="87" height="58" viewBox="0 0 87 58">
  <title>particle img94-m37-p1 e:1 g:1 e:1</title>
  <metadata>{&quot;entityType&quot;:&quot;particle&quot;,&quot;entityId&quot;:&quot;img94-m37-p1&quot;,&quot;token&quot;:&quot;e:1 g:1 e:1&quot;,&quot;signature&quot;:&quot;e:1 g:1 e:1&quot;,&quot;imageName&quot;:&quot;page-094.jpg&quot;,&quot;imageId&quot;:94,&quot;bounds&quot;:{&quot;x&quot;:1988,&quot;y&quot;:971,&quot;w&quot;:87,&quot;h&quot;:58},&quot;atoms&quot;:[{&quot;id&quot;:2997,&quot;token&quot;:&quot;e:1&quot;,&quot;particle_id&quot;:&quot;img94-m37-p1&quot;,&quot;molecule_id&quot;:&quot;img94-m37&quot;,&quot;atom_order&quot;:1},{&quot;id&quot;:3002,&quot;token&quot;:&quot;g:1&quot;,&quot;particle_id&quot;:&quot;img94-m37-p1&quot;,&quot;molecule_id&quot;:&quot;img94-m37&quot;,&quot;atom_order&quot;:2},{&quot;id&quot;:2998,&quot;token&quot;:&quot;e:1&quot;,&quot;particle_id&quot;:&quot;img94-m37-p1&quot;,&quot;molecule_id&quot;:&quot;img94-m37&quot;,&quot;atom_order&quot;:3}]}</metadata>
  <rect x="0" y="0" width="87" height="58" fill="#f8f0d8"/>
  <image href="file:///C:/Users/HHHES/AppData/Roaming/com.voynichlab.datasetcreator/images/1/33b1988f-7aaa-4207-bfa8-f26b742ac4b1.jpg" x="-1988" y="-971" width="2932" height="3769" opacity="0.92"/>
  <rect x="0.5" y="0.5" width="86" height="57" fill="none" stroke="#111827" stroke-width="1" opacity="0.35"/>
  <polyline points="31,33 31,34 30,34 30,35 29,35 28,35 28,36 27,36 26,36 25,36 24,36 23,36 22,36 21,36 21,35 20,35 19,35 18,35 18,34 17,34 16,34 16,33 16,32 16,31 16,30 16,29 16,28 16,27 17,27 17,26 17,25 17,24 18,24 18,23 18,22 19,22 19,21 19,20 20,20 21,20 21,19 22,19 22,18 23,18 24,18 24,17 25,17 26,17 27,17 27,16" fill="none" stroke="#f2e45c" stroke-width="3" stroke-linecap="round" stroke-linejoin="round" opacity="0.95">
    <title>2997 e:1</title>
  </polyline>
  <polyline points="26,17 27,17 28,17 28,18 29,18 30,18 31,18 32,18 33,18 33,19 34,19 35,19 36,19 37,19 38,19 39,19 39,20 40,20 41,20 42,20 43,20 44,20 45,20 46,21 47,21 48,21 49,21 50,21 51,21 52,21 53,21 54,21 54,22 55,22 56,22 57,22 58,22 59,22 60,22 61,22 62,22 63,22 64,22 65,22 66,22 66,23 67,23 68,23" fill="none" stroke="#7c3cff" stroke-width="3" stroke-linecap="round" stroke-linejoin="round" opacity="0.95">
    <title>3002 g:1</title>
  </polyline>
  <polyline points="71,39 71,40 70,40 70,41 69,41 68,41 68,42 67,42 66,42 65,42 64,42 63,42 62,42 61,42 61,41 60,41 59,41 58,41 58,40 57,40 56,40 56,39 56,38 56,37 56,36 56,35 56,34 56,33 57,33 57,32 57,31 57,30 58,30 58,29 58,28 59,28 59,27 59,26 60,26 61,26 61,25 62,25 62,24 63,24 64,24 64,23 65,23 66,23 67,23 67,22" fill="none" stroke="#f2e45c" stroke-width="3" stroke-linecap="round" stroke-linejoin="round" opacity="0.95">
    <title>2998 e:1</title>
  </polyline>
</svg>
