<?xml version="1.0" encoding="UTF-8"?>
<svg xmlns="http://www.w3.org/2000/svg" width="57" height="53" viewBox="0 0 57 53">
  <title>particle img94-m8-p2 e:1 f:1</title>
  <metadata>{&quot;entityType&quot;:&quot;particle&quot;,&quot;entityId&quot;:&quot;img94-m8-p2&quot;,&quot;token&quot;:&quot;e:1 f:1&quot;,&quot;signature&quot;:&quot;e:1 f:1&quot;,&quot;imageName&quot;:&quot;page-094.jpg&quot;,&quot;imageId&quot;:94,&quot;bounds&quot;:{&quot;x&quot;:1615,&quot;y&quot;:626,&quot;w&quot;:57,&quot;h&quot;:53},&quot;atoms&quot;:[{&quot;id&quot;:2718,&quot;token&quot;:&quot;e:1&quot;,&quot;particle_id&quot;:&quot;img94-m8-p2&quot;,&quot;molecule_id&quot;:&quot;img94-m8&quot;,&quot;atom_order&quot;:1},{&quot;id&quot;:2756,&quot;token&quot;:&quot;f:1&quot;,&quot;particle_id&quot;:&quot;img94-m8-p2&quot;,&quot;molecule_id&quot;:&quot;img94-m8&quot;,&quot;atom_order&quot;:2}]}</metadata>
  <rect x="0" y="0" width="57" height="53" fill="#f8f0d8"/>
  <image href="file:///C:/Users/HHHES/AppData/Roaming/com.voynichlab.datasetcreator/images/1/33b1988f-7aaa-4207-bfa8-f26b742ac4b1.jpg" x="-1615" y="-626" width="2932" height="3769" opacity="0.92"/>
  <rect x="0.5" y="0.5" width="56" height="52" fill="none" stroke="#111827" stroke-width="1" opacity="0.35"/>
  <polyline points="31,33 31,34 30,34 30,35 29,35 28,35 28,36 27,36 26,36 25,36 24,36 23,36 22,36 21,36 21,35 20,35 19,35 18,35 18,34 17,34 16,34 16,33 16,32 16,31 16,30 16,29 16,28 16,27 17,27 17,26 17,25 17,24 18,24 18,23 18,22 19,22 19,21 19,20 20,20 21,20 21,19 22,19 22,18 23,18 24,18 24,17 25,17 26,17 27,17 27,16" fill="none" stroke="#f2e45c" stroke-width="3" stroke-linecap="round" stroke-linejoin="round" opacity="0.95">
    <title>2718 e:1</title>
  </polyline>
  <polyline points="28,16 28,17 28,18 29,18 29,19 29,20 30,20 30,21 31,22 31,23 32,23 32,24 33,25 33,26 34,26 34,27 35,27 35,28 36,28 36,29 36,30 37,30 37,31 37,32 38,32 38,33 39,33 39,34 40,35 40,36 41,36 41,37" fill="none" stroke="#00a2ff" stroke-width="3" stroke-linecap="round" stroke-linejoin="round" opacity="0.95">
    <title>2756 f:1</title>
  </polyline>
</svg>
