<?xml version="1.0" encoding="UTF-8"?>
<svg xmlns="http://www.w3.org/2000/svg" width="94" height="55" viewBox="0 0 94 55">
  <title>particle img94-m83-p1 e:1 g:1 e:1</title>
  <metadata>{&quot;entityType&quot;:&quot;particle&quot;,&quot;entityId&quot;:&quot;img94-m83-p1&quot;,&quot;token&quot;:&quot;e:1 g:1 e:1&quot;,&quot;signature&quot;:&quot;e:1 g:1 e:1&quot;,&quot;imageName&quot;:&quot;page-094.jpg&quot;,&quot;imageId&quot;:94,&quot;bounds&quot;:{&quot;x&quot;:778,&quot;y&quot;:3085,&quot;w&quot;:94,&quot;h&quot;:55},&quot;atoms&quot;:[{&quot;id&quot;:4459,&quot;token&quot;:&quot;e:1&quot;,&quot;particle_id&quot;:&quot;img94-m83-p1&quot;,&quot;molecule_id&quot;:&quot;img94-m83&quot;,&quot;atom_order&quot;:1},{&quot;id&quot;:4483,&quot;token&quot;:&quot;g:1&quot;,&quot;particle_id&quot;:&quot;img94-m83-p1&quot;,&quot;molecule_id&quot;:&quot;img94-m83&quot;,&quot;atom_order&quot;:2},{&quot;id&quot;:4460,&quot;token&quot;:&quot;e:1&quot;,&quot;particle_id&quot;:&quot;img94-m83-p1&quot;,&quot;molecule_id&quot;:&quot;img94-m83&quot;,&quot;atom_order&quot;:3}]}</metadata>
  <rect x="0" y="0" width="94" height="55" fill="#f8f0d8"/>
  <image href="file:///C:/Users/HHHES/AppData/Roaming/com.voynichlab.datasetcreator/images/1/33b1988f-7aaa-4207-bfa8-f26b742ac4b1.jpg" x="-778" y="-3085" width="2932" height="3769" opacity="0.92"/>
  <rect x="0.5" y="0.5" width="93" height="54" fill="none" stroke="#111827" stroke-width="1" opacity="0.35"/>
  <polyline points="31,35 31,36 30,36 30,37 29,37 28,37 28,38 27,38 26,38 25,38 24,38 23,38 22,38 21,38 21,37 20,37 19,37 18,37 18,36 17,36 16,36 16,35 16,34 16,33 16,32 16,31 16,30 16,29 17,29 17,28 17,27 17,26 18,26 18,25 18,24 19,24 19,23 19,22 20,22 21,22 21,21 22,21 22,20 23,20 24,20 24,19 25,19 26,19 27,19 27,18" fill="none" stroke="#f2e45c" stroke-width="3" stroke-linecap="round" stroke-linejoin="round" opacity="0.95">
    <title>4459 e:1</title>
  </polyline>
  <polyline points="25,19 26,18 28,17 31,17 33,17 35,16 36,16 38,16 42,16 47,17 52,17 53,17 54,17 55,17 58,17 61,18 63,18 64,18 65,18 66,19 67,19 68,19 69,19 70,19 71,19 72,19 72,20 73,20" fill="none" stroke="#7c3cff" stroke-width="3" stroke-linecap="round" stroke-linejoin="round" opacity="0.95">
    <title>4483 g:1</title>
  </polyline>
  <polyline points="78,36 78,37 77,37 77,38 76,38 75,38 75,39 74,39 73,39 72,39 71,39 70,39 69,39 68,39 68,38 67,38 66,38 65,38 65,37 64,37 63,37 63,36 63,35 63,34 63,33 63,32 63,31 63,30 64,30 64,29 64,28 64,27 65,27 65,26 65,25 66,25 66,24 66,23 67,23 68,23 68,22 69,22 69,21 70,21 71,21 71,20 72,20 73,20 74,20 74,19" fill="none" stroke="#f2e45c" stroke-width="3" stroke-linecap="round" stroke-linejoin="round" opacity="0.95">
    <title>4460 e:1</title>
  </polyline>
</svg>
