<?xml version="1.0" encoding="UTF-8"?>
<svg xmlns="http://www.w3.org/2000/svg" width="84" height="97" viewBox="0 0 84 97">
  <title>particle img94-m52-p3 f:1 j:1 d:1</title>
  <metadata>{&quot;entityType&quot;:&quot;particle&quot;,&quot;entityId&quot;:&quot;img94-m52-p3&quot;,&quot;token&quot;:&quot;f:1 j:1 d:1&quot;,&quot;signature&quot;:&quot;f:1 j:1 d:1&quot;,&quot;imageName&quot;:&quot;page-094.jpg&quot;,&quot;imageId&quot;:94,&quot;bounds&quot;:{&quot;x&quot;:2363,&quot;y&quot;:2600,&quot;w&quot;:84,&quot;h&quot;:97},&quot;atoms&quot;:[{&quot;id&quot;:4559,&quot;token&quot;:&quot;f:1&quot;,&quot;particle_id&quot;:&quot;img94-m52-p3&quot;,&quot;molecule_id&quot;:&quot;img94-m52&quot;,&quot;atom_order&quot;:1},{&quot;id&quot;:4615,&quot;token&quot;:&quot;j:1&quot;,&quot;particle_id&quot;:&quot;img94-m52-p3&quot;,&quot;molecule_id&quot;:&quot;img94-m52&quot;,&quot;atom_order&quot;:2},{&quot;id&quot;:4634,&quot;token&quot;:&quot;d:1&quot;,&quot;particle_id&quot;:&quot;img94-m52-p3&quot;,&quot;molecule_id&quot;:&quot;img94-m52&quot;,&quot;atom_order&quot;:3}]}</metadata>
  <rect x="0" y="0" width="84" height="97" fill="#f8f0d8"/>
  <image href="file:///C:/Users/HHHES/AppData/Roaming/com.voynichlab.datasetcreator/images/1/33b1988f-7aaa-4207-bfa8-f26b742ac4b1.jpg" x="-2363" y="-2600" width="2932" height="3769" opacity="0.92"/>
  <rect x="0.5" y="0.5" width="83" height="96" fill="none" stroke="#111827" stroke-width="1" opacity="0.35"/>
  <polyline points="39,60 39,61 39,62 40,62 40,63 40,64 41,64 41,65 42,66 42,67 43,67 43,68 44,69 44,70 45,70 45,71 46,71 46,72 47,72 47,73 47,74 48,74 48,75 48,76 49,76 49,77 50,77 50,78 51,79 51,80 52,80 52,81" fill="none" stroke="#00a2ff" stroke-width="3" stroke-linecap="round" stroke-linejoin="round" opacity="0.95">
    <title>4559 f:1</title>
  </polyline>
  <polyline points="39,62 40,62 41,62 42,62 43,62 44,61 45,61 46,61 47,61 48,60 49,60 50,60 51,59 52,59 53,59 54,59 54,58 55,58 56,57 57,57 58,56 59,55 60,55 60,54 61,54 61,53 62,52 62,51 63,51 63,50 64,49 64,48 65,48 65,47 66,46 66,45 67,44 67,43 67,42 67,40 67,39 68,38 68,37 68,36 68,35 68,34 68,33 68,32 67,31 67,30 67,29 66,28 66,27 65,26 64,26 64,25 63,25 62,24 61,23 60,23" fill="none" stroke="#4a9e6a" stroke-width="3" stroke-linecap="round" stroke-linejoin="round" opacity="0.95">
    <title>4615 j:1</title>
  </polyline>
  <polyline points="17,27 16,26 17,25 17,24 18,24 19,23 20,23 20,22 21,21 22,21 22,20 23,20 24,19 25,18 26,18 27,17 28,17 29,17 29,16 30,16 31,16 32,16 33,16 35,16 36,16 37,16 38,16 39,16 40,16 41,16 44,17 45,17 46,17 48,18 49,18 50,18 51,18 52,18 53,19 54,19 55,19 56,19 56,20 57,20 59,20 60,21 61,21 62,21 62,22 63,22 64,23 65,24 66,24 66,25 66,26 67,26 67,27 67,28 67,29 67,30 67,31 67,32" fill="none" stroke="#ff2d55" stroke-width="3" stroke-linecap="round" stroke-linejoin="round" opacity="0.95">
    <title>4634 d:1</title>
  </polyline>
</svg>
