<?xml version="1.0" encoding="UTF-8"?>
<svg xmlns="http://www.w3.org/2000/svg" width="127" height="119" viewBox="0 0 127 119">
  <title>particle img94-m41-p1 e:1 a:1 m:1 c:1 a:1 g:1 e:1</title>
  <metadata>{&quot;entityType&quot;:&quot;particle&quot;,&quot;entityId&quot;:&quot;img94-m41-p1&quot;,&quot;token&quot;:&quot;e:1 a:1 m:1 c:1 a:1 g:1 e:1&quot;,&quot;signature&quot;:&quot;e:1 a:1 m:1 c:1 a:1 g:1 e:1&quot;,&quot;imageName&quot;:&quot;page-094.jpg&quot;,&quot;imageId&quot;:94,&quot;bounds&quot;:{&quot;x&quot;:1259,&quot;y&quot;:2382,&quot;w&quot;:127,&quot;h&quot;:119},&quot;atoms&quot;:[{&quot;id&quot;:4233,&quot;token&quot;:&quot;e:1&quot;,&quot;particle_id&quot;:&quot;img94-m41-p1&quot;,&quot;molecule_id&quot;:&quot;img94-m41&quot;,&quot;atom_order&quot;:1},{&quot;id&quot;:4263,&quot;token&quot;:&quot;a:1&quot;,&quot;particle_id&quot;:&quot;img94-m41-p1&quot;,&quot;molecule_id&quot;:&quot;img94-m41&quot;,&quot;atom_order&quot;:2},{&quot;id&quot;:4264,&quot;token&quot;:&quot;m:1&quot;,&quot;particle_id&quot;:&quot;img94-m41-p1&quot;,&quot;molecule_id&quot;:&quot;img94-m41&quot;,&quot;atom_order&quot;:3},{&quot;id&quot;:4246,&quot;token&quot;:&quot;c:1&quot;,&quot;particle_id&quot;:&quot;img94-m41-p1&quot;,&quot;molecule_id&quot;:&quot;img94-m41&quot;,&quot;atom_order&quot;:4},{&quot;id&quot;:4262,&quot;token&quot;:&quot;a:1&quot;,&quot;particle_id&quot;:&quot;img94-m41-p1&quot;,&quot;molecule_id&quot;:&quot;img94-m41&quot;,&quot;atom_order&quot;:5},{&quot;id&quot;:4261,&quot;token&quot;:&quot;g:1&quot;,&quot;particle_id&quot;:&quot;img94-m41-p1&quot;,&quot;molecule_id&quot;:&quot;img94-m41&quot;,&quot;atom_order&quot;:6},{&quot;id&quot;:4234,&quot;token&quot;:&quot;e:1&quot;,&quot;particle_id&quot;:&quot;img94-m41-p1&quot;,&quot;molecule_id&quot;:&quot;img94-m41&quot;,&quot;atom_order&quot;:7}]}</metadata>
  <rect x="0" y="0" width="127" height="119" fill="#f8f0d8"/>
  <image href="file:///C:/Users/HHHES/AppData/Roaming/com.voynichlab.datasetcreator/images/1/33b1988f-7aaa-4207-bfa8-f26b742ac4b1.jpg" x="-1259" y="-2382" width="2932" height="3769" opacity="0.92"/>
  <rect x="0.5" y="0.5" width="126" height="118" fill="none" stroke="#111827" stroke-width="1" opacity="0.35"/>
  <polyline points="31,100 31,101 30,101 30,102 29,102 28,102 28,103 27,103 26,103 25,103 24,103 23,103 22,103 21,103 21,102 20,102 19,102 18,102 18,101 17,101 16,101 16,100 16,99 16,98 16,97 16,96 16,95 16,94 17,94 17,93 17,92 17,91 18,91 18,90 18,89 19,89 19,88 19,87 20,87 21,87 21,86 22,86 22,85 23,85 24,85 24,84 25,84 26,84 27,84 27,83" fill="none" stroke="#f2e45c" stroke-width="3" stroke-linecap="round" stroke-linejoin="round" opacity="0.95">
    <title>4233 e:1</title>
  </polyline>
  <polyline points="52,52 52,53 52,54 52,55 52,56 52,58 52,60 52,61 51,63 51,64 51,66 51,68 51,69 51,70 51,71 50,72 50,73 50,74 50,75 50,77 50,78 50,79 50,80 50,81 50,82 50,83 50,84 50,86 50,87 50,88 50,89 50,90 50,91 50,92 50,93 50,94 50,95 50,96 50,97 50,98 49,98 49,99 49,100 49,101 49,102 49,103 49,102" fill="none" stroke="#00f0b5" stroke-width="3" stroke-linecap="round" stroke-linejoin="round" opacity="0.95">
    <title>4263 a:1</title>
  </polyline>
  <polyline points="52,52 52,51 52,50 53,49 53,48 53,47 53,46 53,45 53,44 53,43 53,42 53,41 53,40 53,39 53,38 53,37 53,36 53,35 53,34 53,33 52,32 52,31 52,30 52,29 52,28 52,27 53,27 53,26 53,25 53,24 53,23 52,23 52,22 51,22 50,22 50,23 49,23 48,24 48,25 47,25 47,26 46,26 45,27 45,28 44,28 43,29 42,29 42,30 41,31 40,32 39,32 39,33 38,34 37,34 37,35 37,36 36,36 36,37 35,38 35,39 35,40 34,40 34,41 33,41 33,42 33,43 32,43 32,44 32,45 33,45 34,45 35,45 36,45 37,45 38,45 39,45 40,45 41,44 42,44 43,44 44,44 45,44 46,44 48,44 49,43 50,43 52,43 53,43 54,43 55,43 56,43 57,43 58,43 59,43 60,43 61,43 62,43 63,43 64,43 65,43 66,42 67,42 68,42 69,42 70,42 72,42 73,42 75,42 76,42 77,42 78,42 79,42 80,42 81,42 82,42" fill="none" stroke="#ff00ff" stroke-width="3" stroke-linecap="round" stroke-linejoin="round" opacity="0.95">
    <title>4264 m:1</title>
  </polyline>
  <polyline points="76,24 76,25 75,25 75,26 75,27 75,28 75,29 75,30 75,31 75,32 75,33 75,34 75,35 75,36 76,37 77,38 78,39 79,40 80,40 80,41 81,41 82,41 83,41 84,41 85,42 86,42 88,42 89,42 90,42 91,43 92,43 93,43 94,43 95,43 96,43 97,42 98,42 99,42 100,41 101,41 101,40 102,40 103,39 103,38 104,38 104,37 105,36 105,35 106,34 106,33 106,32 106,31 107,30 107,29 107,28 107,27 107,26 107,25 106,25 106,24 106,23 105,23 104,22 104,21 103,21 103,20 102,19 101,19 101,18 100,18 98,17 97,16 96,16 95,16 94,16 93,16 92,16 91,16 89,16 87,16 86,17 84,17 83,18 82,18 82,19 81,19 81,20 80,20 80,21 79,21 79,22 78,22 78,23 78,24 77,25 77,26 76,26 76,27 75,27 75,28 75,29 75,30 75,31" fill="none" stroke="#8aff00" stroke-width="3" stroke-linecap="round" stroke-linejoin="round" opacity="0.95">
    <title>4246 c:1</title>
  </polyline>
  <polyline points="71,103 71,102 72,101 72,100 72,99 72,98 72,97 73,96 73,95 73,94 73,93 73,92 73,91 72,91 72,90 72,89 72,88 72,87 72,86 72,85 72,84 72,83 72,82 72,81 72,80 72,79 72,78 72,77 72,76 72,75 72,74 72,73 72,72 72,71 72,70 73,69 73,68 73,67 73,66 73,65 73,64 74,63 74,62 74,61 74,60 74,59 74,58 74,57 74,56 74,55 74,54 74,53 74,52 75,51 75,50 75,49 75,48 75,47 75,46 75,45 75,44 75,43 75,42 75,41 75,40 75,39 75,38 75,37 75,36 75,35 75,34 75,33 75,32 75,31 75,30 75,29 75,28 75,27 75,26" fill="none" stroke="#00f0b5" stroke-width="3" stroke-linecap="round" stroke-linejoin="round" opacity="0.95">
    <title>4262 a:1</title>
  </polyline>
  <polyline points="25,84 26,84 27,84 28,84 29,84 30,84 31,83 32,83 33,83 34,83 35,83 37,83 38,83 39,83 41,83 42,83 43,83 44,83 45,83 47,83 49,83 50,83 51,82 52,82 53,82 54,82 55,82 56,82 57,82 58,82 59,82 60,82 62,82 63,82 64,82 65,82 66,81 67,81 68,81 70,81 71,81 73,81 74,81 75,81 77,81 78,81 80,81 81,81 82,81 83,81 85,81 86,81 87,81 88,81 89,81 91,81 92,81 93,81 94,81 95,81 96,81 98,81 100,81 102,82 103,82 104,82 105,82 106,82" fill="none" stroke="#7c3cff" stroke-width="3" stroke-linecap="round" stroke-linejoin="round" opacity="0.95">
    <title>4261 g:1</title>
  </polyline>
  <polyline points="111,98 111,99 110,99 110,100 109,100 108,100 108,101 107,101 106,101 105,101 104,101 103,101 102,101 101,101 101,100 100,100 99,100 98,100 98,99 97,99 96,99 96,98 96,97 96,96 96,95 96,94 96,93 96,92 97,92 97,91 97,90 97,89 98,89 98,88 98,87 99,87 99,86 99,85 100,85 101,85 101,84 102,84 102,83 103,83 104,83 104,82 105,82 106,82 107,82 107,81" fill="none" stroke="#f2e45c" stroke-width="3" stroke-linecap="round" stroke-linejoin="round" opacity="0.95">
    <title>4234 e:1</title>
  </polyline>
</svg>
