<?xml version="1.0" encoding="UTF-8"?>
<svg xmlns="http://www.w3.org/2000/svg" width="102" height="106" viewBox="0 0 102 106">
  <title>particle img94-m20-p2 a:1 m:1 c:2 a:1</title>
  <metadata>{&quot;entityType&quot;:&quot;particle&quot;,&quot;entityId&quot;:&quot;img94-m20-p2&quot;,&quot;token&quot;:&quot;a:1 m:1 c:2 a:1&quot;,&quot;signature&quot;:&quot;a:1 m:1 c:2 a:1&quot;,&quot;imageName&quot;:&quot;page-094.jpg&quot;,&quot;imageId&quot;:94,&quot;bounds&quot;:{&quot;x&quot;:1203,&quot;y&quot;:676,&quot;w&quot;:102,&quot;h&quot;:106},&quot;atoms&quot;:[{&quot;id&quot;:2841,&quot;token&quot;:&quot;a:1&quot;,&quot;particle_id&quot;:&quot;img94-m20-p2&quot;,&quot;molecule_id&quot;:&quot;img94-m20&quot;,&quot;atom_order&quot;:1},{&quot;id&quot;:3058,&quot;token&quot;:&quot;m:1&quot;,&quot;particle_id&quot;:&quot;img94-m20-p2&quot;,&quot;molecule_id&quot;:&quot;img94-m20&quot;,&quot;atom_order&quot;:2},{&quot;id&quot;:2797,&quot;token&quot;:&quot;c:2&quot;,&quot;particle_id&quot;:&quot;img94-m20-p2&quot;,&quot;molecule_id&quot;:&quot;img94-m20&quot;,&quot;atom_order&quot;:3},{&quot;id&quot;:2840,&quot;token&quot;:&quot;a:1&quot;,&quot;particle_id&quot;:&quot;img94-m20-p2&quot;,&quot;molecule_id&quot;:&quot;img94-m20&quot;,&quot;atom_order&quot;:4}]}</metadata>
  <rect x="0" y="0" width="102" height="106" fill="#f8f0d8"/>
  <image href="file:///C:/Users/HHHES/AppData/Roaming/com.voynichlab.datasetcreator/images/1/33b1988f-7aaa-4207-bfa8-f26b742ac4b1.jpg" x="-1203" y="-676" width="2932" height="3769" opacity="0.92"/>
  <rect x="0.5" y="0.5" width="101" height="105" fill="none" stroke="#111827" stroke-width="1" opacity="0.35"/>
  <polyline points="37,90 37,82 37,81 38,81 38,80 38,79 38,78 38,77 38,76 38,75 38,74 38,73 38,72 39,71 39,70 39,69 39,68 39,67 39,66 39,65 39,64 39,63 39,62 39,61 39,60 39,59 40,59 40,58 40,57 40,56 40,55 40,54 40,53 40,52 40,51 40,50 40,49 40,48 40,47 40,46 41,45 41,44 41,43" fill="none" stroke="#00f0b5" stroke-width="3" stroke-linecap="round" stroke-linejoin="round" opacity="0.95">
    <title>2841 a:1</title>
  </polyline>
  <polyline points="41,44 41,43 41,42 41,41 41,40 41,39 41,38 41,37 41,36 40,36 40,35 40,34 40,33 40,32 40,31 40,30 40,29 40,28 40,27 40,26 40,25 40,24 40,23 39,23 39,22 39,21 39,20 39,19 39,18 38,18 37,18 37,19 36,19 35,19 34,19 34,20 33,20 32,20 31,20 31,21 30,21 29,21 29,22 28,22 27,23 26,23 26,24 25,24 24,24 24,25 23,25 23,26 22,26 22,27 21,27 21,28 20,28 20,29 19,29 19,30 18,31 18,32 17,32 17,33 17,34 17,35 16,35 16,36 16,37 16,38 17,38 18,38 19,38 20,38 21,38 22,38 23,38 24,37 25,37 26,37 27,37 28,37 29,37 30,37 31,37 32,37 33,37 34,37 35,37 36,37 37,37 38,37 39,37 40,37 41,37 42,37 43,37 44,37 45,37 45,36 46,36 47,36 48,36 49,36 50,36 50,35 51,35 52,35 53,35 54,35 55,35 56,35 57,35 57,34 58,34 59,34 60,34 61,34 62,34 63,34 63,33 64,33 65,33 66,33 67,33 68,33" fill="none" stroke="#ff00ff" stroke-width="3" stroke-linecap="round" stroke-linejoin="round" opacity="0.95">
    <title>3058 m:1</title>
  </polyline>
  <polyline points="76,26 75,26 74,26 75,25 76,25 76,26 76,27 75,28 74,28 74,27 74,26 75,26 76,25 76,26 76,27 75,27 74,27 73,27 72,27 72,26 73,25 74,25 75,24 75,25 75,26 74,26 74,27 73,27 72,27 71,27 71,26 71,25 72,25 73,24 74,24 75,24 76,24 77,24 77,25 77,26 76,27 75,27 74,27 73,27 72,27 72,26 72,25 73,25 74,24 76,23 76,24 76,25 76,26 75,27 74,28 73,28 72,28 71,28 71,27 71,25 73,24 74,24 75,24 76,24 76,25 76,27 76,28 75,28 75,29 74,29 73,29 72,29 71,28 70,27 70,26 70,24 71,23 72,22 73,22 74,22 75,22 75,23 76,24 76,25 76,26 76,28 76,30 76,31 75,32 74,32 73,32 73,31 72,31 72,30 71,29 70,27 70,26 70,25 70,24 71,23 72,23 73,22 74,22 75,22 76,22 76,23 77,23 77,24 77,25 78,26 78,27 78,28 78,29 77,30 76,30 75,30 74,30 73,30 72,30 71,29 70,29 69,28 68,27 68,26 68,25 68,24 68,23 70,22 70,21 71,21 73,21 74,21 75,21 77,22 78,22 79,23 79,24 79,25 79,26 79,27 79,28 78,29 78,30 77,30 77,31 75,31 74,31 72,31 71,30 69,30 69,29 68,27 68,26 68,25 69,24 71,23 73,22 76,22 78,23 80,23 80,24 81,25 81,26 81,28 81,29 80,31 78,32 77,32 75,32 73,32 71,31 69,30 69,29 68,27 68,26 69,25 70,23 72,22 74,21 77,21 79,21 80,21 81,21 82,22 82,23 83,25 83,27 83,29 83,30 83,31 82,31 82,32 81,32 80,32 78,32 76,32 75,32 74,32 73,31 72,31 71,31 71,30 70,30 70,29 69,29 69,28 69,27 68,26 68,25 68,24 69,23 69,22 70,22 70,21 71,21 72,21 72,20 73,20 74,20 75,20 76,20 77,20 78,20 79,20 80,20 81,20 82,20 83,20 83,21 84,21 84,22 85,22 85,23 85,24 85,25 86,25 86,26 86,27 86,28 85,29 85,30 85,31 84,32 83,32 83,33 82,33 82,34 81,34 80,34 79,34 79,35 78,35 77,35 76,35 75,35 74,35 73,35 72,35 71,35 70,34 69,34 68,34 68,33 67,33 67,32 66,32 66,31 65,30 65,29 64,28 64,27 63,27 63,26 63,25 63,24 63,23 63,22 63,21 64,21 64,20 64,19 65,19 65,18 66,18 67,18 67,17 68,17 68,16 69,16 70,16 71,16 72,16 73,16 74,16 75,16 76,16 77,16 78,16 79,16 80,16 81,16 81,17 82,17 83,18 83,19 83,20 84,20 84,21 84,22 85,22 85,23 85,24 85,25 85,26 85,27 85,28 85,29 85,30 85,31 84,31 83,31 83,32 82,32 81,32 81,33 80,33 79,33 78,34 77,34 76,34 75,34 74,34 73,34 72,34 71,34 71,33 70,33 69,33 69,32 68,32 68,31 67,31 67,30 66,30 66,29 65,29 65,28 65,27 65,26 65,25 65,24 65,23 65,22 66,21 67,20 68,19 69,18 70,18 71,18 71,17 72,17 73,17 74,17 75,17 75,18 77,18 78,18 79,18 80,19 81,19 82,19 82,20 82,21 82,22 82,23 82,24 82,25 82,26 83,27 83,28 83,29 82,29 82,30 82,31 82,32 81,32 80,32 79,32 79,33 78,33 77,33 76,33 75,33 74,33 73,33 72,33 71,33 71,32 70,32 69,31 68,31 68,30 67,30 67,29 67,28 67,27 67,26 67,25 67,24 66,24 66,23 67,23 67,22 68,22 68,21 69,21 69,20 70,20 71,20 71,19 72,19 72,18 73,18 74,18 75,18 76,19 77,19 78,19 79,19 79,20 80,20 80,21 81,21 81,22 81,23 81,24 81,25 81,26 81,27 80,27 80,28 80,29 79,29 79,30 78,30 78,31 79,31 80,31 80,30 81,30 82,29 83,28 84,27 84,26 84,25 84,24 83,23 83,22 82,22 82,21 82,20 82,19 81,19 81,18 81,17 80,17 80,16 79,16 78,16 77,16 76,16 76,17 75,17 74,17 73,17 72,17 71,17 70,17 69,17 68,17 67,17 67,18 66,18 66,19 66,20 65,20 65,21 65,22 64,22 64,23 64,24 65,24 65,25 65,26 65,27 66,27 66,28 67,28 67,29 68,29 68,30 68,29 68,28 67,27 66,27 66,26 65,25 65,24 64,24 65,24 65,25 65,26 64,26 64,25 65,25 65,24 66,24 67,24 67,23 67,22 68,21 68,20 68,19 68,18 69,18 70,18 70,17 69,17 68,17 68,18 67,19 67,20 67,21 67,22 68,23 69,23 69,24 70,24 71,23 71,22 71,21 72,21 72,20 72,19 71,19 70,19 69,19 69,20 68,20 68,21 68,22 68,23 69,23 70,23 71,23 73,22 74,22 75,21 75,20 75,19 75,18 74,18 74,19 73,19 72,20 72,21 72,22 73,22 74,22 74,21 75,20 75,19 75,18 74,18 73,18 74,18 74,19 75,19 76,19 77,19 78,18 79,18 79,17 78,17 77,17 78,17 78,18 78,19 78,20 79,20 79,21 79,22 80,23 80,24 80,25 79,26 78,26 77,26 76,26 75,26 75,25 76,25 77,24 78,23 79,23 79,24 79,25 79,26 79,27 78,27 78,28 77,28 76,28 75,28 75,27 75,26 76,26 77,25 78,24 79,24 80,23 81,23 81,24 81,25 81,26 80,26 80,27 80,28 79,28 79,29 80,29 81,28 82,28 83,28 83,27 83,28 83,29 82,29 82,30 82,31 81,31 82,31 83,31 83,30 84,29 84,28 84,27 84,26 85,26 85,25 85,24 85,23 84,22 84,21 84,20 84,19 83,19 82,19 82,18 81,18 80,18 79,18 78,18 77,18 76,18 75,18 75,19 75,20" fill="none" stroke="#8aff00" stroke-width="3" stroke-linecap="round" stroke-linejoin="round" opacity="0.95">
    <title>2797 c:2</title>
  </polyline>
  <polyline points="63,22 63,23 63,24 63,25 63,26 63,27 63,28 62,28 62,29 62,30 62,31 62,32 62,33 62,34 62,35 62,36 62,37 61,38 61,39 61,40 61,41 61,42 61,43 61,44 61,45 61,46 60,46 60,47 60,48 60,49 60,50 60,51 60,52 60,53 60,54 60,55 60,56 60,57 60,58 60,59 60,60 60,61 60,62 60,63 60,64 60,65 60,66 60,67 60,68 60,69 60,70 60,71 60,72 60,73 60,74 60,75 60,76 61,76 61,77 61,78 61,79" fill="none" stroke="#00f0b5" stroke-width="3" stroke-linecap="round" stroke-linejoin="round" opacity="0.95">
    <title>2840 a:1</title>
  </polyline>
</svg>
