<?xml version="1.0" encoding="UTF-8"?>
<svg xmlns="http://www.w3.org/2000/svg" width="54" height="79" viewBox="0 0 54 79">
  <title>particle img94-m30-p3 e:1 h:1</title>
  <metadata>{&quot;entityType&quot;:&quot;particle&quot;,&quot;entityId&quot;:&quot;img94-m30-p3&quot;,&quot;token&quot;:&quot;e:1 h:1&quot;,&quot;signature&quot;:&quot;e:1 h:1&quot;,&quot;imageName&quot;:&quot;page-094.jpg&quot;,&quot;imageId&quot;:94,&quot;bounds&quot;:{&quot;x&quot;:1745,&quot;y&quot;:877,&quot;w&quot;:54,&quot;h&quot;:79},&quot;atoms&quot;:[{&quot;id&quot;:2941,&quot;token&quot;:&quot;e:1&quot;,&quot;particle_id&quot;:&quot;img94-m30-p3&quot;,&quot;molecule_id&quot;:&quot;img94-m30&quot;,&quot;atom_order&quot;:1},{&quot;id&quot;:2971,&quot;token&quot;:&quot;h:1&quot;,&quot;particle_id&quot;:&quot;img94-m30-p3&quot;,&quot;molecule_id&quot;:&quot;img94-m30&quot;,&quot;atom_order&quot;:2}]}</metadata>
  <rect x="0" y="0" width="54" height="79" fill="#f8f0d8"/>
  <image href="file:///C:/Users/HHHES/AppData/Roaming/com.voynichlab.datasetcreator/images/1/33b1988f-7aaa-4207-bfa8-f26b742ac4b1.jpg" x="-1745" y="-877" width="2932" height="3769" opacity="0.92"/>
  <rect x="0.5" y="0.5" width="53" height="78" fill="none" stroke="#111827" stroke-width="1" opacity="0.35"/>
  <polyline points="31,33 31,34 30,34 30,35 29,35 28,35 28,36 27,36 26,36 25,36 24,36 23,36 22,36 21,36 21,35 20,35 19,35 18,35 18,34 17,34 16,34 16,33 16,32 16,31 16,30 16,29 16,28 16,27 17,27 17,26 17,25 17,24 18,24 18,23 18,22 19,22 19,21 19,20 20,20 21,20 21,19 22,19 22,18 23,18 24,18 24,17 25,17 26,17 27,17 27,16" fill="none" stroke="#f2e45c" stroke-width="3" stroke-linecap="round" stroke-linejoin="round" opacity="0.95">
    <title>2941 e:1</title>
  </polyline>
  <polyline points="27,16 28,16 29,16 30,16 30,17 31,17 32,17 32,18 33,18 33,19 34,19 34,20 34,21 35,21 35,22 36,22 36,23 36,24 37,25 37,26 37,27 37,28 38,28 38,29 38,30 38,31 38,32 38,33 38,34 38,35 38,36 38,37 38,38 38,39 38,40 38,41 38,42 37,42 37,43 37,44 37,45 37,46 37,47 36,47 36,48 36,49 35,49 35,50 35,51 34,52 34,53 33,54 32,55 32,56 31,56 31,57 30,57 30,58 29,59 28,60 27,61 26,62 25,62 24,63" fill="none" stroke="#ff8c00" stroke-width="3" stroke-linecap="round" stroke-linejoin="round" opacity="0.95">
    <title>2971 h:1</title>
  </polyline>
</svg>
