<?xml version="1.0" encoding="UTF-8"?>
<svg xmlns="http://www.w3.org/2000/svg" width="94" height="98" viewBox="0 0 94 98">
  <title>particle img94-m77-p2 a:1 m:1 c:1 a:1</title>
  <metadata>{&quot;entityType&quot;:&quot;particle&quot;,&quot;entityId&quot;:&quot;img94-m77-p2&quot;,&quot;token&quot;:&quot;a:1 m:1 c:1 a:1&quot;,&quot;signature&quot;:&quot;a:1 m:1 c:1 a:1&quot;,&quot;imageName&quot;:&quot;page-094.jpg&quot;,&quot;imageId&quot;:94,&quot;bounds&quot;:{&quot;x&quot;:2208,&quot;y&quot;:2840,&quot;w&quot;:94,&quot;h&quot;:98},&quot;atoms&quot;:[{&quot;id&quot;:4550,&quot;token&quot;:&quot;a:1&quot;,&quot;particle_id&quot;:&quot;img94-m77-p2&quot;,&quot;molecule_id&quot;:&quot;img94-m77&quot;,&quot;atom_order&quot;:1},{&quot;id&quot;:4581,&quot;token&quot;:&quot;m:1&quot;,&quot;particle_id&quot;:&quot;img94-m77-p2&quot;,&quot;molecule_id&quot;:&quot;img94-m77&quot;,&quot;atom_order&quot;:2},{&quot;id&quot;:4512,&quot;token&quot;:&quot;c:1&quot;,&quot;particle_id&quot;:&quot;img94-m77-p2&quot;,&quot;molecule_id&quot;:&quot;img94-m77&quot;,&quot;atom_order&quot;:3},{&quot;id&quot;:4549,&quot;token&quot;:&quot;a:1&quot;,&quot;particle_id&quot;:&quot;img94-m77-p2&quot;,&quot;molecule_id&quot;:&quot;img94-m77&quot;,&quot;atom_order&quot;:4}]}</metadata>
  <rect x="0" y="0" width="94" height="98" fill="#f8f0d8"/>
  <image href="file:///C:/Users/HHHES/AppData/Roaming/com.voynichlab.datasetcreator/images/1/33b1988f-7aaa-4207-bfa8-f26b742ac4b1.jpg" x="-2208" y="-2840" width="2932" height="3769" opacity="0.92"/>
  <rect x="0.5" y="0.5" width="93" height="97" fill="none" stroke="#111827" stroke-width="1" opacity="0.35"/>
  <polyline points="32,82 32,81 32,80 31,79 31,78 31,76 31,75 31,73 31,71 31,69 31,67 31,66 31,65 31,64 31,63 31,62 31,61 32,60 32,59 32,58 33,57 33,56 33,55 33,54 33,53 34,53 34,52 34,51 34,50 34,49 34,48 34,47" fill="none" stroke="#00f0b5" stroke-width="3" stroke-linecap="round" stroke-linejoin="round" opacity="0.95">
    <title>4550 a:1</title>
  </polyline>
  <polyline points="33,50 33,49 34,48 34,47 34,46 34,45 34,44 34,43 34,42 34,41 34,40 33,39 33,38 33,37 33,36 33,35 33,34 33,33 33,32 33,31 33,30 33,29 33,28 33,27 33,26 33,25 33,24 33,23 33,22 33,21 33,20 33,19 33,18 32,18 31,18 30,18 30,19 29,19 28,19 28,20 27,20 27,21 26,21 25,21 25,22 24,22 24,23 23,23 23,24 22,24 22,25 21,25 21,26 20,27 20,28 19,29 19,30 18,30 18,31 18,32 17,32 17,33 16,34 16,35 16,36 16,37 17,37 18,37 20,38 22,38 23,38 24,39 25,39 26,39 27,39 28,39 29,39 30,39 31,39 32,39 33,39 34,39 35,39 36,39 36,38 37,38 38,38 39,38 41,38 42,38 43,38 44,38 45,38 46,38 47,37 48,37 50,37 51,37 52,37 53,37 53,36 54,36 55,36 56,36 57,36" fill="none" stroke="#ff00ff" stroke-width="3" stroke-linecap="round" stroke-linejoin="round" opacity="0.95">
    <title>4581 m:1</title>
  </polyline>
  <polyline points="56,37 57,37 58,37 59,36 60,36 61,36 62,36 63,36 63,35 64,35 65,35 66,35 67,35 68,34 69,34 70,34 70,33 71,33 72,33 72,32 73,32 73,31 74,30 75,29 76,28 76,27 77,27 77,26 77,25 77,24 78,24 78,23 78,22 78,21 77,20 76,19 75,18 74,18 74,17 73,17 72,17 71,16 70,16 69,16 68,16 67,16 66,16 65,16 64,17 63,17 62,18 61,18 60,19 59,19 58,20 57,20 57,21 57,22 56,22 56,23 55,24 55,25 54,26 54,27 54,29 54,30 54,31 54,32 54,33 54,34 54,35 54,36 55,36 56,37 57,37 58,37 59,37 60,37" fill="none" stroke="#8aff00" stroke-width="3" stroke-linecap="round" stroke-linejoin="round" opacity="0.95">
    <title>4512 c:1</title>
  </polyline>
  <polyline points="55,26 55,27 55,28 55,29 55,30 55,31 55,32 55,34 55,36 55,37 55,38 55,39 55,41 55,42 55,44 55,45 56,46 56,47 56,48 56,49 56,50 56,52 56,53 56,55 56,56 56,57 56,58 56,59 56,60 56,61 56,62 56,64 56,65 56,66 56,67 56,68 56,69 55,70" fill="none" stroke="#00f0b5" stroke-width="3" stroke-linecap="round" stroke-linejoin="round" opacity="0.95">
    <title>4549 a:1</title>
  </polyline>
</svg>
