<?xml version="1.0" encoding="UTF-8"?>
<svg xmlns="http://www.w3.org/2000/svg" width="58" height="78" viewBox="0 0 58 78">
  <title>particle img94-m4-p5 e:1 h:1</title>
  <metadata>{&quot;entityType&quot;:&quot;particle&quot;,&quot;entityId&quot;:&quot;img94-m4-p5&quot;,&quot;token&quot;:&quot;e:1 h:1&quot;,&quot;signature&quot;:&quot;e:1 h:1&quot;,&quot;imageName&quot;:&quot;page-094.jpg&quot;,&quot;imageId&quot;:94,&quot;bounds&quot;:{&quot;x&quot;:1737,&quot;y&quot;:547,&quot;w&quot;:58,&quot;h&quot;:78},&quot;atoms&quot;:[{&quot;id&quot;:2648,&quot;token&quot;:&quot;e:1&quot;,&quot;particle_id&quot;:&quot;img94-m4-p5&quot;,&quot;molecule_id&quot;:&quot;img94-m4&quot;,&quot;atom_order&quot;:1},{&quot;id&quot;:2669,&quot;token&quot;:&quot;h:1&quot;,&quot;particle_id&quot;:&quot;img94-m4-p5&quot;,&quot;molecule_id&quot;:&quot;img94-m4&quot;,&quot;atom_order&quot;:2}]}</metadata>
  <rect x="0" y="0" width="58" height="78" fill="#f8f0d8"/>
  <image href="file:///C:/Users/HHHES/AppData/Roaming/com.voynichlab.datasetcreator/images/1/33b1988f-7aaa-4207-bfa8-f26b742ac4b1.jpg" x="-1737" y="-547" width="2932" height="3769" opacity="0.92"/>
  <rect x="0.5" y="0.5" width="57" height="77" fill="none" stroke="#111827" stroke-width="1" opacity="0.35"/>
  <polyline points="31,33 31,34 30,34 30,35 29,35 28,35 28,36 27,36 26,36 25,36 24,36 23,36 22,36 21,36 21,35 20,35 19,35 18,35 18,34 17,34 16,34 16,33 16,32 16,31 16,30 16,29 16,28 16,27 17,27 17,26 17,25 17,24 18,24 18,23 18,22 19,22 19,21 19,20 20,20 21,20 21,19 22,19 22,18 23,18 24,18 24,17 25,17 26,17 27,17 27,16" fill="none" stroke="#f2e45c" stroke-width="3" stroke-linecap="round" stroke-linejoin="round" opacity="0.95">
    <title>2648 e:1</title>
  </polyline>
  <polyline points="27,16 28,17 29,17 29,18 30,18 31,18 31,19 32,19 32,20 33,20 33,21 34,21 34,22 34,23 35,23 35,24 35,25 36,25 36,26 37,26 37,27 37,28 38,29 38,30 39,30 39,31 39,32 40,32 40,33 40,34 41,34 41,35 41,36 42,36 42,37 42,38 42,39 42,40 42,41 42,42 42,43 42,44 42,45 42,46 42,47 42,48 42,49 42,50 42,51 42,52 42,53 42,54 42,55 41,56 41,57 40,58 39,59 39,60 38,61 37,62" fill="none" stroke="#ff8c00" stroke-width="3" stroke-linecap="round" stroke-linejoin="round" opacity="0.95">
    <title>2669 h:1</title>
  </polyline>
</svg>
