<?xml version="1.0" encoding="UTF-8"?>
<svg xmlns="http://www.w3.org/2000/svg" width="82" height="54" viewBox="0 0 82 54">
  <title>particle img94-m10-p3 e:1 g:1 e:1</title>
  <metadata>{&quot;entityType&quot;:&quot;particle&quot;,&quot;entityId&quot;:&quot;img94-m10-p3&quot;,&quot;token&quot;:&quot;e:1 g:1 e:1&quot;,&quot;signature&quot;:&quot;e:1 g:1 e:1&quot;,&quot;imageName&quot;:&quot;page-094.jpg&quot;,&quot;imageId&quot;:94,&quot;bounds&quot;:{&quot;x&quot;:1418,&quot;y&quot;:625,&quot;w&quot;:82,&quot;h&quot;:54},&quot;atoms&quot;:[{&quot;id&quot;:2713,&quot;token&quot;:&quot;e:1&quot;,&quot;particle_id&quot;:&quot;img94-m10-p3&quot;,&quot;molecule_id&quot;:&quot;img94-m10&quot;,&quot;atom_order&quot;:1},{&quot;id&quot;:2731,&quot;token&quot;:&quot;g:1&quot;,&quot;particle_id&quot;:&quot;img94-m10-p3&quot;,&quot;molecule_id&quot;:&quot;img94-m10&quot;,&quot;atom_order&quot;:2},{&quot;id&quot;:2729,&quot;token&quot;:&quot;e:1&quot;,&quot;particle_id&quot;:&quot;img94-m10-p3&quot;,&quot;molecule_id&quot;:&quot;img94-m10&quot;,&quot;atom_order&quot;:3}]}</metadata>
  <rect x="0" y="0" width="82" height="54" fill="#f8f0d8"/>
  <image href="file:///C:/Users/HHHES/AppData/Roaming/com.voynichlab.datasetcreator/images/1/33b1988f-7aaa-4207-bfa8-f26b742ac4b1.jpg" x="-1418" y="-625" width="2932" height="3769" opacity="0.92"/>
  <rect x="0.5" y="0.5" width="81" height="53" fill="none" stroke="#111827" stroke-width="1" opacity="0.35"/>
  <polyline points="31,35 31,36 30,36 30,37 29,37 28,37 28,38 27,38 26,38 25,38 24,38 23,38 22,38 21,38 21,37 20,37 19,37 18,37 18,36 17,36 16,36 16,35 16,34 16,33 16,32 16,31 16,30 16,29 17,29 17,28 17,27 17,26 18,26 18,25 18,24 19,24 19,23 19,22 20,22 21,22 21,21 22,21 22,20 23,20 24,20 24,19 25,19 26,19 27,19 27,18" fill="none" stroke="#f2e45c" stroke-width="3" stroke-linecap="round" stroke-linejoin="round" opacity="0.95">
    <title>2713 e:1</title>
  </polyline>
  <polyline points="27,18 28,18 29,18 30,18 31,18 32,18 33,18 34,18 35,18 36,18 37,18 38,18 39,18 40,18 41,18 42,18 43,18 44,18 45,18 46,18 47,18 48,18 49,18 50,18 51,18 52,18 53,18 54,18 54,17 55,17 56,17 57,17 58,17 59,17 60,17 61,17 62,17" fill="none" stroke="#7c3cff" stroke-width="3" stroke-linecap="round" stroke-linejoin="round" opacity="0.95">
    <title>2731 g:1</title>
  </polyline>
  <polyline points="66,33 66,34 65,34 65,35 64,35 63,35 63,36 62,36 61,36 60,36 59,36 58,36 57,36 56,36 56,35 55,35 54,35 53,35 53,34 52,34 51,34 51,33 51,32 51,31 51,30 51,29 51,28 51,27 52,27 52,26 52,25 52,24 53,24 53,23 53,22 54,22 54,21 54,20 55,20 56,20 56,19 57,19 57,18 58,18 59,18 59,17 60,17 61,17 62,17 62,16" fill="none" stroke="#f2e45c" stroke-width="3" stroke-linecap="round" stroke-linejoin="round" opacity="0.95">
    <title>2729 e:1</title>
  </polyline>
</svg>
