<?xml version="1.0" encoding="UTF-8"?>
<svg xmlns="http://www.w3.org/2000/svg" width="58" height="84" viewBox="0 0 58 84">
  <title>particle img94-m5-p1 e:1 i:1 d:1</title>
  <metadata>{&quot;entityType&quot;:&quot;particle&quot;,&quot;entityId&quot;:&quot;img94-m5-p1&quot;,&quot;token&quot;:&quot;e:1 i:1 d:1&quot;,&quot;signature&quot;:&quot;e:1 i:1 d:1&quot;,&quot;imageName&quot;:&quot;page-094.jpg&quot;,&quot;imageId&quot;:94,&quot;bounds&quot;:{&quot;x&quot;:2040,&quot;y&quot;:548,&quot;w&quot;:58,&quot;h&quot;:84},&quot;atoms&quot;:[{&quot;id&quot;:2675,&quot;token&quot;:&quot;e:1&quot;,&quot;particle_id&quot;:&quot;img94-m5-p1&quot;,&quot;molecule_id&quot;:&quot;img94-m5&quot;,&quot;atom_order&quot;:1},{&quot;id&quot;:2684,&quot;token&quot;:&quot;i:1&quot;,&quot;particle_id&quot;:&quot;img94-m5-p1&quot;,&quot;molecule_id&quot;:&quot;img94-m5&quot;,&quot;atom_order&quot;:2},{&quot;id&quot;:2685,&quot;token&quot;:&quot;d:1&quot;,&quot;particle_id&quot;:&quot;img94-m5-p1&quot;,&quot;molecule_id&quot;:&quot;img94-m5&quot;,&quot;atom_order&quot;:3}]}</metadata>
  <rect x="0" y="0" width="58" height="84" fill="#f8f0d8"/>
  <image href="file:///C:/Users/HHHES/AppData/Roaming/com.voynichlab.datasetcreator/images/1/33b1988f-7aaa-4207-bfa8-f26b742ac4b1.jpg" x="-2040" y="-548" width="2932" height="3769" opacity="0.92"/>
  <rect x="0.5" y="0.5" width="57" height="83" fill="none" stroke="#111827" stroke-width="1" opacity="0.35"/>
  <polyline points="31,65 31,66 30,66 30,67 29,67 28,67 28,68 27,68 26,68 25,68 24,68 23,68 22,68 21,68 21,67 20,67 19,67 18,67 18,66 17,66 16,66 16,65 16,64 16,63 16,62 16,61 16,60 16,59 17,59 17,58 17,57 17,56 18,56 18,55 18,54 19,54 19,53 19,52 20,52 21,52 21,51 22,51 22,50 23,50 24,50 24,49 25,49 26,49 27,49 27,48" fill="none" stroke="#f2e45c" stroke-width="3" stroke-linecap="round" stroke-linejoin="round" opacity="0.95">
    <title>2675 e:1</title>
  </polyline>
  <polyline points="26,48 27,48 28,48 28,47 29,47 29,46 30,46 31,46 31,45 32,45 33,45 33,44 34,44 34,43 35,43 35,42 36,41 37,41 37,40 37,39 38,39 38,38 39,38 39,37 40,36 40,35 40,34 40,33 41,33 41,32 41,31 41,30 41,29 42,29 42,28 42,27 42,26 42,25 42,24 42,23 42,22 42,21 42,20 41,20" fill="none" stroke="#00ff7f" stroke-width="3" stroke-linecap="round" stroke-linejoin="round" opacity="0.95">
    <title>2684 i:1</title>
  </polyline>
  <polyline points="30,26 29,26 28,26 28,25 27,25 26,25 26,24 25,24 24,23 24,22 24,21 24,20 25,20 25,19 26,19 27,19 27,18 28,18 28,17 29,17 29,16 30,16 31,16 32,16 33,16 34,16 35,16 36,16 36,17 37,17 38,17 38,18 39,18 40,18 40,19 41,20 41,21 42,21 42,22 41,22" fill="none" stroke="#ff2d55" stroke-width="3" stroke-linecap="round" stroke-linejoin="round" opacity="0.95">
    <title>2685 d:1</title>
  </polyline>
</svg>
