<?xml version="1.0" encoding="UTF-8"?>
<svg xmlns="http://www.w3.org/2000/svg" width="99" height="55" viewBox="0 0 99 55">
  <title>particle img94-m55-p1 e:1 g:1 e:1</title>
  <metadata>{&quot;entityType&quot;:&quot;particle&quot;,&quot;entityId&quot;:&quot;img94-m55-p1&quot;,&quot;token&quot;:&quot;e:1 g:1 e:1&quot;,&quot;signature&quot;:&quot;e:1 g:1 e:1&quot;,&quot;imageName&quot;:&quot;page-094.jpg&quot;,&quot;imageId&quot;:94,&quot;bounds&quot;:{&quot;x&quot;:2078,&quot;y&quot;:2662,&quot;w&quot;:99,&quot;h&quot;:55},&quot;atoms&quot;:[{&quot;id&quot;:4411,&quot;token&quot;:&quot;e:1&quot;,&quot;particle_id&quot;:&quot;img94-m55-p1&quot;,&quot;molecule_id&quot;:&quot;img94-m55&quot;,&quot;atom_order&quot;:1},{&quot;id&quot;:4466,&quot;token&quot;:&quot;g:1&quot;,&quot;particle_id&quot;:&quot;img94-m55-p1&quot;,&quot;molecule_id&quot;:&quot;img94-m55&quot;,&quot;atom_order&quot;:2},{&quot;id&quot;:4412,&quot;token&quot;:&quot;e:1&quot;,&quot;particle_id&quot;:&quot;img94-m55-p1&quot;,&quot;molecule_id&quot;:&quot;img94-m55&quot;,&quot;atom_order&quot;:3}]}</metadata>
  <rect x="0" y="0" width="99" height="55" fill="#f8f0d8"/>
  <image href="file:///C:/Users/HHHES/AppData/Roaming/com.voynichlab.datasetcreator/images/1/33b1988f-7aaa-4207-bfa8-f26b742ac4b1.jpg" x="-2078" y="-2662" width="2932" height="3769" opacity="0.92"/>
  <rect x="0.5" y="0.5" width="98" height="54" fill="none" stroke="#111827" stroke-width="1" opacity="0.35"/>
  <polyline points="31,36 31,37 30,37 30,38 29,38 28,38 28,39 27,39 26,39 25,39 24,39 23,39 22,39 21,39 21,38 20,38 19,38 18,38 18,37 17,37 16,37 16,36 16,35 16,34 16,33 16,32 16,31 16,30 17,30 17,29 17,28 17,27 18,27 18,26 18,25 19,25 19,24 19,23 20,23 21,23 21,22 22,22 22,21 23,21 24,21 24,20 25,20 26,20 27,20 27,19" fill="none" stroke="#f2e45c" stroke-width="3" stroke-linecap="round" stroke-linejoin="round" opacity="0.95">
    <title>4411 e:1</title>
  </polyline>
  <polyline points="24,19 25,19 26,19 27,19 28,19 29,19 30,19 31,18 32,18 33,18 34,18 36,18 37,17 39,17 41,17 42,17 44,17 45,17 46,17 48,17 50,17 51,16 52,16 54,16 55,16 56,16 57,16 58,16 59,16 60,16 61,16 62,17 63,17 64,17 65,17 66,17 67,17 69,17 69,18 70,18 71,18 73,18 74,19 75,19 76,19 77,19" fill="none" stroke="#7c3cff" stroke-width="3" stroke-linecap="round" stroke-linejoin="round" opacity="0.95">
    <title>4466 g:1</title>
  </polyline>
  <polyline points="83,35 83,36 82,36 82,37 81,37 80,37 80,38 79,38 78,38 77,38 76,38 75,38 74,38 73,38 73,37 72,37 71,37 70,37 70,36 69,36 68,36 68,35 68,34 68,33 68,32 68,31 68,30 68,29 69,29 69,28 69,27 69,26 70,26 70,25 70,24 71,24 71,23 71,22 72,22 73,22 73,21 74,21 74,20 75,20 76,20 76,19 77,19 78,19 79,19 79,18" fill="none" stroke="#f2e45c" stroke-width="3" stroke-linecap="round" stroke-linejoin="round" opacity="0.95">
    <title>4412 e:1</title>
  </polyline>
</svg>
