<?xml version="1.0" encoding="UTF-8"?>
<svg xmlns="http://www.w3.org/2000/svg" width="59" height="71" viewBox="0 0 59 71">
  <title>particle img94-m11-p1 e:1 c:2 h:2</title>
  <metadata>{&quot;entityType&quot;:&quot;particle&quot;,&quot;entityId&quot;:&quot;img94-m11-p1&quot;,&quot;token&quot;:&quot;e:1 c:2 h:2&quot;,&quot;signature&quot;:&quot;e:1 c:2 h:2&quot;,&quot;imageName&quot;:&quot;page-094.jpg&quot;,&quot;imageId&quot;:94,&quot;bounds&quot;:{&quot;x&quot;:2050,&quot;y&quot;:638,&quot;w&quot;:59,&quot;h&quot;:71},&quot;atoms&quot;:[{&quot;id&quot;:2760,&quot;token&quot;:&quot;e:1&quot;,&quot;particle_id&quot;:&quot;img94-m11-p1&quot;,&quot;molecule_id&quot;:&quot;img94-m11&quot;,&quot;atom_order&quot;:1},{&quot;id&quot;:2753,&quot;token&quot;:&quot;c:2&quot;,&quot;particle_id&quot;:&quot;img94-m11-p1&quot;,&quot;molecule_id&quot;:&quot;img94-m11&quot;,&quot;atom_order&quot;:2},{&quot;id&quot;:2761,&quot;token&quot;:&quot;h:2&quot;,&quot;particle_id&quot;:&quot;img94-m11-p1&quot;,&quot;molecule_id&quot;:&quot;img94-m11&quot;,&quot;atom_order&quot;:3}]}</metadata>
  <rect x="0" y="0" width="59" height="71" fill="#f8f0d8"/>
  <image href="file:///C:/Users/HHHES/AppData/Roaming/com.voynichlab.datasetcreator/images/1/33b1988f-7aaa-4207-bfa8-f26b742ac4b1.jpg" x="-2050" y="-638" width="2932" height="3769" opacity="0.92"/>
  <rect x="0.5" y="0.5" width="58" height="70" fill="none" stroke="#111827" stroke-width="1" opacity="0.35"/>
  <polyline points="31,52 31,53 30,53 30,54 29,54 28,54 28,55 27,55 26,55 25,55 24,55 23,55 22,55 21,55 21,54 20,54 19,54 18,54 18,53 17,53 16,53 16,52 16,51 16,50 16,49 16,48 16,47 16,46 17,46 17,45 17,44 17,43 18,43 18,42 18,41 19,41 19,40 19,39 20,39 21,39 21,38 22,38 22,37 23,37 24,37 24,36 25,36 26,36 27,36 27,35" fill="none" stroke="#f2e45c" stroke-width="3" stroke-linecap="round" stroke-linejoin="round" opacity="0.95">
    <title>2760 e:1</title>
  </polyline>
  <polyline points="33,28 32,28 31,28 32,27 33,27 33,28 33,29 32,30 31,30 31,29 31,28 32,28 33,27 33,28 33,29 32,29 31,29 30,29 29,29 29,28 30,27 31,27 32,26 32,27 32,28 31,28 31,29 30,29 29,29 28,29 28,28 28,27 29,27 30,26 31,26 32,26 33,26 34,26 34,27 34,28 33,29 32,29 31,29 30,29 29,29 29,28 29,27 30,27 31,26 33,25 33,26 33,27 33,28 32,29 31,30 30,30 29,30 28,30 28,29 28,27 30,26 31,26 32,26 33,26 33,27 33,29 33,30 32,30 32,31 31,31 30,31 29,31 28,30 27,29 27,28 27,26 28,25 29,24 30,24 31,24 32,24 32,25 33,26 33,27 33,28 33,30 33,32 33,33 32,34 31,34 30,34 30,33 29,33 29,32 28,31 27,29 27,28 27,27 27,26 28,25 29,25 30,24 31,24 32,24 33,24 33,25 34,25 34,26 34,27 35,28 35,29 35,30 35,31 34,32 33,32 32,32 31,32 30,32 29,32 28,31 27,31 26,30 25,29 25,28 25,27 25,26 25,25 27,24 27,23 28,23 30,23 31,23 32,23 34,24 35,24 36,25 36,26 36,27 36,28 36,29 36,30 35,31 35,32 34,32 34,33 32,33 31,33 29,33 28,32 26,32 26,31 25,29 25,28 25,27 26,26 28,25 30,24 33,24 35,25 37,25 37,26 38,27 38,28 38,30 38,31 37,33 35,34 34,34 32,34 30,34 28,33 26,32 26,31 25,29 25,28 26,27 27,25 29,24 31,23 34,23 36,23 37,23 38,23 39,24 39,25 40,27 40,29 40,31 40,32 40,33 39,33 39,34 38,34 37,34 35,34 33,34 32,34 31,34 30,33 29,33 28,33 28,32 27,32 27,31 26,31 26,30 26,29 25,28 25,27 25,26 26,25 26,24 27,24 27,23 28,23 29,23 29,22 30,22 31,22 32,22 33,22 34,22 35,22 36,22 37,22 38,22 39,22 40,22 40,23 41,23 41,24 42,24 42,25 42,26 42,27 43,27 43,28 43,29 43,30 42,31 42,32 42,33 41,34 40,34 40,35 39,35 39,36 38,36 37,36 36,36 36,37 35,37 34,37 33,37 32,37 31,37 30,37 29,37 28,37 27,36 26,36 25,36 25,35 24,35 24,34 23,34 23,33 22,32 22,31 21,30 21,29 20,29 20,28 20,27 20,26 20,25 20,24 20,23 21,23 21,22 21,21 22,21 22,20 23,20 24,20 24,19 25,19 25,18 26,18 27,18 28,18 29,18 30,18 31,18 32,18 33,18 34,18 35,18 36,18 37,18 38,18 38,19 39,19 40,20 40,21 40,22 41,22 41,23 41,24 42,24 42,25 42,26 42,27 42,28 42,29 42,30 42,31 42,32 42,33 41,33 40,33 40,34 39,34 38,34 38,35 37,35 36,35 35,36 34,36 33,36 32,36 31,36 30,36 29,36 28,36 28,35 27,35 26,35 26,34 25,34 25,33 24,33 24,32 23,32 23,31 22,31 22,30 22,29 22,28 22,27 22,26 22,25 22,24 23,23 24,22 25,21 26,20 27,20 28,20 28,19 29,19 30,19 31,19 32,19 32,20 34,20 35,20 36,20 37,21 38,21 39,21 39,22 39,23 39,24 39,25 39,26 39,27 39,28 40,29 40,30 40,31 39,31 39,32 39,33 39,34 38,34 37,34 36,34 36,35 35,35 34,35 33,35 32,35 31,35 30,35 29,35 28,35 28,34 27,34 26,33 25,33 25,32 24,32 24,31 24,30 24,29 24,28 24,27 24,26 23,26 23,25 24,25 24,24 25,24 25,23 26,23 26,22 27,22 28,22 28,21 29,21 29,20 30,20 31,20 32,20 33,21 34,21 35,21 36,21 36,22 37,22 37,23 38,23 38,24 38,25 38,26 38,27 38,28 38,29 37,29 37,30 37,31 36,31 36,32 35,32 35,33 36,33 37,33 37,32 38,32 39,31 40,30 41,29 41,28 41,27 41,26 40,25 40,24 39,24 39,23 39,22 39,21 38,21 38,20 38,19 37,19 37,18 36,18 35,18 34,18 33,18 33,19 32,19 31,19 30,19 29,19 28,19 27,19 26,19 25,19 24,19 24,20 23,20 23,21 23,22 22,22 22,23 22,24 21,24 21,25 21,26 22,26 22,27 22,28 22,29 23,29 23,30 24,30 24,31 25,31 25,32 25,31 25,30 24,29 23,29 23,28 22,27 22,26 21,26 22,26 22,27 22,28 21,28 21,27 22,27 22,26 23,26 24,26 24,25 24,24 25,23 25,22 25,21 25,20 26,20 27,20 27,19 26,19 25,19 25,20 24,21 24,22 24,23 24,24 25,25 26,25 26,26 27,26 28,25 28,24 28,23 29,23 29,22 29,21 28,21 27,21 26,21 26,22 25,22 25,23 25,24 25,25 26,25 27,25 28,25 30,24 31,24 32,23 32,22 32,21 32,20 31,20 31,21 30,21 29,22 29,23 29,24 30,24 31,24 31,23 32,22 32,21 32,20 31,20 30,20 31,20 31,21 32,21 33,21 34,21 35,20 36,20 36,19 35,19 34,19 35,19 35,20 35,21 35,22 36,22 36,23 36,24 37,25 37,26 37,27 36,28 35,28 34,28 33,28 32,28 32,27 33,27 34,26 35,25 36,25 36,26 36,27 36,28 36,29 35,29 35,30 34,30 33,30 32,30 32,29 32,28 33,28 34,27 35,26 36,26 37,25 38,25 38,26 38,27 38,28 37,28 37,29 37,30 36,30 36,31 37,31 38,30 39,30 40,30 40,29 40,30 40,31 39,31 39,32 39,33 38,33 39,33 40,33 40,32 41,31 41,30 41,29 41,28 42,28 42,27 42,26 42,25 41,24 41,23 41,22 41,21 40,21 39,21 39,20 38,20 37,20 36,20 35,20 34,20 33,20 32,20 32,21 32,22" fill="none" stroke="#8aff00" stroke-width="3" stroke-linecap="round" stroke-linejoin="round" opacity="0.95">
    <title>2753 c:2</title>
  </polyline>
  <polyline points="30,54 31,54 31,53 32,53 33,53 33,52 34,52 35,52 35,51 36,51 37,50 37,49 38,49 38,48 38,47 38,46 38,45 38,44 37,44 37,43 37,42 36,42 36,41 35,41 35,40 34,40 33,40 33,39 32,39 31,39 31,38 30,38 29,38 28,37 27,37 27,36 26,36 25,36 25,35 24,35 24,34 23,34 23,33 22,33 22,32 21,32 21,31 20,30 20,29 20,28 20,27 19,27 19,26 19,25 19,24 19,23 19,22 20,22 20,21 21,20 22,19 23,19 24,19 25,18 26,18 27,17 28,17 29,17 30,17 31,17 32,16" fill="none" stroke="#ff8c00" stroke-width="3" stroke-linecap="round" stroke-linejoin="round" opacity="0.95">
    <title>2761 h:2</title>
  </polyline>
</svg>
