<?xml version="1.0" encoding="UTF-8"?>
<svg xmlns="http://www.w3.org/2000/svg" width="59" height="66" viewBox="0 0 59 66">
  <title>particle img94-m25-p4 f:1 j:1</title>
  <metadata>{&quot;entityType&quot;:&quot;particle&quot;,&quot;entityId&quot;:&quot;img94-m25-p4&quot;,&quot;token&quot;:&quot;f:1 j:1&quot;,&quot;signature&quot;:&quot;f:1 j:1&quot;,&quot;imageName&quot;:&quot;page-094.jpg&quot;,&quot;imageId&quot;:94,&quot;bounds&quot;:{&quot;x&quot;:986,&quot;y&quot;:803,&quot;w&quot;:59,&quot;h&quot;:66},&quot;atoms&quot;:[{&quot;id&quot;:2868,&quot;token&quot;:&quot;f:1&quot;,&quot;particle_id&quot;:&quot;img94-m25-p4&quot;,&quot;molecule_id&quot;:&quot;img94-m25&quot;,&quot;atom_order&quot;:1},{&quot;id&quot;:2869,&quot;token&quot;:&quot;j:1&quot;,&quot;particle_id&quot;:&quot;img94-m25-p4&quot;,&quot;molecule_id&quot;:&quot;img94-m25&quot;,&quot;atom_order&quot;:2}]}</metadata>
  <rect x="0" y="0" width="59" height="66" fill="#f8f0d8"/>
  <image href="file:///C:/Users/HHHES/AppData/Roaming/com.voynichlab.datasetcreator/images/1/33b1988f-7aaa-4207-bfa8-f26b742ac4b1.jpg" x="-986" y="-803" width="2932" height="3769" opacity="0.92"/>
  <rect x="0.5" y="0.5" width="58" height="65" fill="none" stroke="#111827" stroke-width="1" opacity="0.35"/>
  <polyline points="26,24 26,25 26,26 27,26 27,27 27,28 28,28 28,29 29,30 29,31 30,31 30,32 31,33 31,34 32,34 32,35 33,35 33,36 34,36 34,37 34,38 35,38 35,39 35,40 36,40 36,41 37,41 37,42 38,43 38,44 39,44 39,45" fill="none" stroke="#00a2ff" stroke-width="3" stroke-linecap="round" stroke-linejoin="round" opacity="0.95">
    <title>2868 f:1</title>
  </polyline>
  <polyline points="26,25 26,24 27,24 27,23 28,23 29,22 30,21 31,21 31,20 32,20 32,19 33,19 33,18 34,18 35,17 36,17 36,16 37,16 38,16 39,16 40,16 41,16 42,16 42,17 43,18 43,19 43,20 43,21 43,22 43,23 42,23 42,24 41,25 41,26 40,26 40,27 40,28 39,28 39,29 38,29 38,30 37,30 37,31 36,31 36,32 35,32 35,33 34,33 34,34 33,34 33,35 32,35 32,36 31,36 31,37 30,37 30,38 29,38 28,39 27,39 27,40 26,41 25,41 25,42 24,43 23,43 23,44 22,44 22,45 21,45 21,46 20,47 19,47 19,48 18,48 18,49 17,49 17,50 16,50" fill="none" stroke="#4a9e6a" stroke-width="3" stroke-linecap="round" stroke-linejoin="round" opacity="0.95">
    <title>2869 j:1</title>
  </polyline>
</svg>
