<?xml version="1.0" encoding="UTF-8"?>
<svg xmlns="http://www.w3.org/2000/svg" width="59" height="80" viewBox="0 0 59 80">
  <title>particle img94-m40-p3 e:1 c:1 h:2</title>
  <metadata>{&quot;entityType&quot;:&quot;particle&quot;,&quot;entityId&quot;:&quot;img94-m40-p3&quot;,&quot;token&quot;:&quot;e:1 c:1 h:2&quot;,&quot;signature&quot;:&quot;e:1 c:1 h:2&quot;,&quot;imageName&quot;:&quot;page-094.jpg&quot;,&quot;imageId&quot;:94,&quot;bounds&quot;:{&quot;x&quot;:889,&quot;y&quot;:2440,&quot;w&quot;:59,&quot;h&quot;:80},&quot;atoms&quot;:[{&quot;id&quot;:4227,&quot;token&quot;:&quot;e:1&quot;,&quot;particle_id&quot;:&quot;img94-m40-p3&quot;,&quot;molecule_id&quot;:&quot;img94-m40&quot;,&quot;atom_order&quot;:1},{&quot;id&quot;:4243,&quot;token&quot;:&quot;c:1&quot;,&quot;particle_id&quot;:&quot;img94-m40-p3&quot;,&quot;molecule_id&quot;:&quot;img94-m40&quot;,&quot;atom_order&quot;:2},{&quot;id&quot;:4247,&quot;token&quot;:&quot;h:2&quot;,&quot;particle_id&quot;:&quot;img94-m40-p3&quot;,&quot;molecule_id&quot;:&quot;img94-m40&quot;,&quot;atom_order&quot;:3}]}</metadata>
  <rect x="0" y="0" width="59" height="80" fill="#f8f0d8"/>
  <image href="file:///C:/Users/HHHES/AppData/Roaming/com.voynichlab.datasetcreator/images/1/33b1988f-7aaa-4207-bfa8-f26b742ac4b1.jpg" x="-889" y="-2440" width="2932" height="3769" opacity="0.92"/>
  <rect x="0.5" y="0.5" width="58" height="79" fill="none" stroke="#111827" stroke-width="1" opacity="0.35"/>
  <polyline points="31,61 31,62 30,62 30,63 29,63 28,63 28,64 27,64 26,64 25,64 24,64 23,64 22,64 21,64 21,63 20,63 19,63 18,63 18,62 17,62 16,62 16,61 16,60 16,59 16,58 16,57 16,56 16,55 17,55 17,54 17,53 17,52 18,52 18,51 18,50 19,50 19,49 19,48 20,48 21,48 21,47 22,47 22,46 23,46 24,46 24,45 25,45 26,45 27,45 27,44" fill="none" stroke="#f2e45c" stroke-width="3" stroke-linecap="round" stroke-linejoin="round" opacity="0.95">
    <title>4227 e:1</title>
  </polyline>
  <polyline points="26,19 26,18 27,18 27,17 28,17 29,17 30,17 30,16 31,16 32,16 33,16 34,16 35,16 36,16 36,17 37,17 38,18 39,18 39,19 40,19 40,20 41,20 41,21 41,22 42,22 42,23 42,24 42,25 42,26 42,27 42,28 43,28 43,29 43,30 43,31 43,32 42,33 42,34 42,35 41,36 41,37 40,37 40,38 39,38 38,39 37,39 36,38 35,38 35,37 34,37 34,36 33,36 32,35 32,34 31,34 31,33 30,33 30,32 30,31 29,30 29,29 28,29 28,28 27,27 27,26 27,25 26,25 26,24 26,23 26,22 26,21 26,20 26,19 26,18 26,17 27,17 27,16 28,16 29,16" fill="none" stroke="#8aff00" stroke-width="3" stroke-linecap="round" stroke-linejoin="round" opacity="0.95">
    <title>4243 c:1</title>
  </polyline>
  <polyline points="28,63 29,63 30,63 31,62 32,62 33,62 33,61 34,61 34,60 35,59 35,58 35,57 36,57 36,56 36,55 36,54 36,53 36,52 36,51 36,50 36,49 36,48 36,47 35,47 35,46 35,45 35,44 34,43 33,42 32,41 32,40 31,39 30,39 30,38 30,37 29,37 29,36 28,35 28,34 27,33 27,32 26,31 26,30 26,29 26,28 26,27 26,26 26,25 26,24 27,23 27,22 28,21 28,20 29,19 29,18 30,17 30,16" fill="none" stroke="#ff8c00" stroke-width="3" stroke-linecap="round" stroke-linejoin="round" opacity="0.95">
    <title>4247 h:2</title>
  </polyline>
</svg>
