<?xml version="1.0" encoding="UTF-8"?>
<svg xmlns="http://www.w3.org/2000/svg" width="89" height="55" viewBox="0 0 89 55">
  <title>particle img94-m57-p6 e:1 g:1 e:1</title>
  <metadata>{&quot;entityType&quot;:&quot;particle&quot;,&quot;entityId&quot;:&quot;img94-m57-p6&quot;,&quot;token&quot;:&quot;e:1 g:1 e:1&quot;,&quot;signature&quot;:&quot;e:1 g:1 e:1&quot;,&quot;imageName&quot;:&quot;page-094.jpg&quot;,&quot;imageId&quot;:94,&quot;bounds&quot;:{&quot;x&quot;:1561,&quot;y&quot;:2690,&quot;w&quot;:89,&quot;h&quot;:55},&quot;atoms&quot;:[{&quot;id&quot;:4385,&quot;token&quot;:&quot;e:1&quot;,&quot;particle_id&quot;:&quot;img94-m57-p6&quot;,&quot;molecule_id&quot;:&quot;img94-m57&quot;,&quot;atom_order&quot;:1},{&quot;id&quot;:4464,&quot;token&quot;:&quot;g:1&quot;,&quot;particle_id&quot;:&quot;img94-m57-p6&quot;,&quot;molecule_id&quot;:&quot;img94-m57&quot;,&quot;atom_order&quot;:2},{&quot;id&quot;:4386,&quot;token&quot;:&quot;e:1&quot;,&quot;particle_id&quot;:&quot;img94-m57-p6&quot;,&quot;molecule_id&quot;:&quot;img94-m57&quot;,&quot;atom_order&quot;:3}]}</metadata>
  <rect x="0" y="0" width="89" height="55" fill="#f8f0d8"/>
  <image href="file:///C:/Users/HHHES/AppData/Roaming/com.voynichlab.datasetcreator/images/1/33b1988f-7aaa-4207-bfa8-f26b742ac4b1.jpg" x="-1561" y="-2690" width="2932" height="3769" opacity="0.92"/>
  <rect x="0.5" y="0.5" width="88" height="54" fill="none" stroke="#111827" stroke-width="1" opacity="0.35"/>
  <polyline points="31,36 31,37 30,37 30,38 29,38 28,38 28,39 27,39 26,39 25,39 24,39 23,39 22,39 21,39 21,38 20,38 19,38 18,38 18,37 17,37 16,37 16,36 16,35 16,34 16,33 16,32 16,31 16,30 17,30 17,29 17,28 17,27 18,27 18,26 18,25 19,25 19,24 19,23 20,23 21,23 21,22 22,22 22,21 23,21 24,21 24,20 25,20 26,20 27,20 27,19" fill="none" stroke="#f2e45c" stroke-width="3" stroke-linecap="round" stroke-linejoin="round" opacity="0.95">
    <title>4385 e:1</title>
  </polyline>
  <polyline points="26,20 27,20 28,20 29,20 30,20 31,20 32,20 33,20 35,20 36,20 37,20 38,20 39,20 40,20 41,20 42,20 43,20 44,20 46,20 47,20 49,20 50,20 51,20 52,19 53,19 54,19 55,19 56,19 57,19 58,18 59,18 60,18 61,18 62,18 63,18 64,18 65,17 66,17 67,17 68,17 69,17" fill="none" stroke="#7c3cff" stroke-width="3" stroke-linecap="round" stroke-linejoin="round" opacity="0.95">
    <title>4464 g:1</title>
  </polyline>
  <polyline points="73,33 73,34 72,34 72,35 71,35 70,35 70,36 69,36 68,36 67,36 66,36 65,36 64,36 63,36 63,35 62,35 61,35 60,35 60,34 59,34 58,34 58,33 58,32 58,31 58,30 58,29 58,28 58,27 59,27 59,26 59,25 59,24 60,24 60,23 60,22 61,22 61,21 61,20 62,20 63,20 63,19 64,19 64,18 65,18 66,18 66,17 67,17 68,17 69,17 69,16" fill="none" stroke="#f2e45c" stroke-width="3" stroke-linecap="round" stroke-linejoin="round" opacity="0.95">
    <title>4386 e:1</title>
  </polyline>
</svg>
