<?xml version="1.0" encoding="UTF-8"?>
<svg xmlns="http://www.w3.org/2000/svg" width="91" height="54" viewBox="0 0 91 54">
  <title>particle img94-m9-p4 c:1 g:1 e:1</title>
  <metadata>{&quot;entityType&quot;:&quot;particle&quot;,&quot;entityId&quot;:&quot;img94-m9-p4&quot;,&quot;token&quot;:&quot;c:1 g:1 e:1&quot;,&quot;signature&quot;:&quot;c:1 g:1 e:1&quot;,&quot;imageName&quot;:&quot;page-094.jpg&quot;,&quot;imageId&quot;:94,&quot;bounds&quot;:{&quot;x&quot;:857,&quot;y&quot;:642,&quot;w&quot;:91,&quot;h&quot;:54},&quot;atoms&quot;:[{&quot;id&quot;:2696,&quot;token&quot;:&quot;c:1&quot;,&quot;particle_id&quot;:&quot;img94-m9-p4&quot;,&quot;molecule_id&quot;:&quot;img94-m9&quot;,&quot;atom_order&quot;:1},{&quot;id&quot;:2699,&quot;token&quot;:&quot;g:1&quot;,&quot;particle_id&quot;:&quot;img94-m9-p4&quot;,&quot;molecule_id&quot;:&quot;img94-m9&quot;,&quot;atom_order&quot;:2},{&quot;id&quot;:2688,&quot;token&quot;:&quot;e:1&quot;,&quot;particle_id&quot;:&quot;img94-m9-p4&quot;,&quot;molecule_id&quot;:&quot;img94-m9&quot;,&quot;atom_order&quot;:3}]}</metadata>
  <rect x="0" y="0" width="91" height="54" fill="#f8f0d8"/>
  <image href="file:///C:/Users/HHHES/AppData/Roaming/com.voynichlab.datasetcreator/images/1/33b1988f-7aaa-4207-bfa8-f26b742ac4b1.jpg" x="-857" y="-642" width="2932" height="3769" opacity="0.92"/>
  <rect x="0.5" y="0.5" width="90" height="53" fill="none" stroke="#111827" stroke-width="1" opacity="0.35"/>
  <polyline points="29,29 28,29 27,29 28,28 29,28 29,29 29,30 28,31 27,31 27,30 27,29 28,29 29,28 29,29 29,30 28,30 27,30 26,30 25,30 25,29 26,28 27,28 28,27 28,28 28,29 27,29 27,30 26,30 25,30 24,30 24,29 24,28 25,28 26,27 27,27 28,27 29,27 30,27 30,28 30,29 29,30 28,30 27,30 26,30 25,30 25,29 25,28 26,28 27,27 29,26 29,27 29,28 29,29 28,30 27,31 26,31 25,31 24,31 24,30 24,28 26,27 27,27 28,27 29,27 29,28 29,30 29,31 28,31 28,32 27,32 26,32 25,32 24,31 23,30 23,29 23,27 24,26 25,25 26,25 27,25 28,25 28,26 29,27 29,28 29,29 29,31 29,33 29,34 28,35 27,35 26,35 26,34 25,34 25,33 24,32 23,30 23,29 23,28 23,27 24,26 25,26 26,25 27,25 28,25 29,25 29,26 30,26 30,27 30,28 31,29 31,30 31,31 31,32 30,33 29,33 28,33 27,33 26,33 25,33 24,32 23,32 22,31 21,30 21,29 21,28 21,27 21,26 23,25 23,24 24,24 26,24 27,24 28,24 30,25 31,25 32,26 32,27 32,28 32,29 32,30 32,31 31,32 31,33 30,33 30,34 28,34 27,34 25,34 24,33 22,33 22,32 21,30 21,29 21,28 22,27 24,26 26,25 29,25 31,26 33,26 33,27 34,28 34,29 34,31 34,32 33,34 31,35 30,35 28,35 26,35 24,34 22,33 22,32 21,30 21,29 22,28 23,26 25,25 27,24 30,24 32,24 33,24 34,24 35,25 35,26 36,28 36,30 36,32 36,33 36,34 35,34 35,35 34,35 33,35 31,35 29,35 28,35 27,35 26,34 25,34 24,34 24,33 23,33 23,32 22,32 22,31 22,30 21,29 21,28 21,27 22,26 22,25 23,25 23,24 24,24 25,24 25,23 26,23 27,23 28,23 29,23 30,23 31,23 32,23 33,23 34,23 35,23 36,23 36,24 37,24 37,25 38,25 38,26 38,27 38,28 39,28 39,29 39,30 39,31 38,32 38,33 38,34 37,35 36,35 36,36 35,36 35,37 34,37 33,37 32,37 32,38 31,38 30,38 29,38 28,38 27,38 26,38 25,38 24,38 23,37 22,37 21,37 21,36 20,36 20,35 19,35 19,34 18,33 18,32 17,31 17,30 16,30 16,29 16,28 16,27 16,26 16,25 16,24 17,24 17,23 17,22 18,22 18,21 19,21 20,21 20,20 21,20 21,19 22,19 23,19 24,19 25,19 26,19 27,19 28,19 29,19 30,19 31,19 32,19 33,19 34,19 34,20 35,20 36,21 36,22 36,23 37,23 37,24 37,25 38,25 38,26 38,27 38,28 38,29 38,30 38,31 38,32 38,33 38,34 37,34 36,34 36,35 35,35 34,35 34,36 33,36 32,36 31,37 30,37 29,37 28,37 27,37 26,37 25,37 24,37 24,36 23,36 22,36 22,35 21,35 21,34 20,34 20,33 19,33 19,32 18,32 18,31 18,30 18,29 18,28 18,27 18,26 18,25 19,24 20,23 21,22 22,21 23,21 24,21 24,20 25,20 26,20 27,20 28,20 28,21 30,21 31,21 32,21 33,22 34,22 35,22 35,23 35,24 35,25 35,26 35,27 35,28 35,29 36,30 36,31 36,32 35,32 35,33 35,34 35,35 34,35 33,35 32,35 32,36 31,36 30,36 29,36 28,36 27,36 26,36 25,36 24,36 24,35 23,35 22,34 21,34 21,33 20,33 20,32 20,31 20,30 20,29 20,28 20,27 19,27 19,26 20,26 20,25 21,25 21,24 22,24 22,23 23,23 24,23 24,22 25,22 25,21 26,21 27,21 28,21 29,22 30,22 31,22 32,22 32,23 33,23 33,24 34,24 34,25 34,26 34,27 34,28 34,29 34,30 33,30 33,31 33,32 32,32 32,33 31,33 31,34 32,34 33,34 33,33 34,33 35,32 36,31 37,30 37,29 37,28 37,27 36,26 36,25 35,25 35,24 35,23 35,22 34,22 34,21 34,20 33,20 33,19 32,19 31,19 30,19 29,19 29,20 28,20 27,20 26,20 25,20 24,20 23,20 22,20 21,20 20,20 20,21 19,21 19,22 19,23 18,23 18,24 18,25 17,25 17,26 17,27 18,27 18,28 18,29 18,30 19,30 19,31 20,31 20,32 21,32 21,33 21,32 21,31 20,30 19,30 19,29 18,28 18,27 17,27 18,27 18,28 18,29 17,29 17,28 18,28 18,27 19,27 20,27 20,26 20,25 21,24 21,23 21,22 21,21 22,21 23,21 23,20 22,20 21,20 21,21 20,22 20,23 20,24 20,25 21,26 22,26 22,27 23,27 24,26 24,25 24,24 25,24 25,23 25,22 24,22 23,22 22,22 22,23 21,23 21,24 21,25 21,26 22,26 23,26 24,26 26,25 27,25 28,24 28,23 28,22 28,21 27,21 27,22 26,22 25,23 25,24 25,25 26,25 27,25 27,24 28,23 28,22 28,21 27,21 26,21 27,21 27,22 28,22 29,22 30,22 31,21 32,21 32,20 31,20 30,20 31,20 31,21 31,22 31,23 32,23 32,24 32,25 33,26 33,27 33,28 32,29 31,29 30,29 29,29 28,29 28,28 29,28 30,27 31,26 32,26 32,27 32,28 32,29 32,30 31,30 31,31 30,31 29,31 28,31 28,30 28,29 29,29 30,28 31,27 32,27 33,26 34,26 34,27 34,28 34,29 33,29 33,30 33,31 32,31 32,32 33,32 34,31 35,31 36,31 36,30 36,31 36,32 35,32 35,33 35,34 34,34 35,34 36,34 36,33 37,32 37,31 37,30 37,29 38,29 38,28 38,27 38,26 37,25 37,24 37,23 37,22 36,22 35,22 35,21 34,21 33,21 32,21 31,21 30,21 29,21 28,21 28,22 28,23" fill="none" stroke="#8aff00" stroke-width="3" stroke-linecap="round" stroke-linejoin="round" opacity="0.95">
    <title>2696 c:1</title>
  </polyline>
  <polyline points="22,18 23,18 24,18 25,18 26,18 27,18 28,18 29,18 30,18 31,18 32,18 33,18 34,18 35,18 36,18 37,18 38,18 39,18 40,18 41,18 42,18 43,18 44,18 45,18 46,18 47,18 48,18 49,18 50,18 51,18 52,18 53,18 54,18 55,18 56,17 57,17 58,17 59,17 60,17 61,17 62,17 63,17 64,17 65,17 66,17 67,17 68,17 69,17 70,17 71,17 72,17 73,17" fill="none" stroke="#7c3cff" stroke-width="3" stroke-linecap="round" stroke-linejoin="round" opacity="0.95">
    <title>2699 g:1</title>
  </polyline>
  <polyline points="73,33 72,33 72,34 71,34 71,35 70,35 69,35 68,35 67,35 66,35 65,35 64,35 63,35 63,34 62,34 62,33 62,32 62,31 62,30 62,29 62,28 62,27 62,26 62,25 62,24 62,23 63,23 63,22 64,22 64,21 65,21 65,20 66,20 66,19 67,19 67,18 68,18 69,18 69,17 70,17 71,17 72,16 73,16 74,17 75,17 75,18 75,19" fill="none" stroke="#f2e45c" stroke-width="3" stroke-linecap="round" stroke-linejoin="round" opacity="0.95">
    <title>2688 e:1</title>
  </polyline>
</svg>
