<?xml version="1.0" encoding="UTF-8"?>
<svg xmlns="http://www.w3.org/2000/svg" width="104" height="99" viewBox="0 0 104 99">
  <title>particle img94-m47-p1 a:1 e:1 b:1 c:1 a:1</title>
  <metadata>{&quot;entityType&quot;:&quot;particle&quot;,&quot;entityId&quot;:&quot;img94-m47-p1&quot;,&quot;token&quot;:&quot;a:1 e:1 b:1 c:1 a:1&quot;,&quot;signature&quot;:&quot;a:1 e:1 b:1 c:1 a:1&quot;,&quot;imageName&quot;:&quot;page-094.jpg&quot;,&quot;imageId&quot;:94,&quot;bounds&quot;:{&quot;x&quot;:1090,&quot;y&quot;:2494,&quot;w&quot;:104,&quot;h&quot;:99},&quot;atoms&quot;:[{&quot;id&quot;:4330,&quot;token&quot;:&quot;a:1&quot;,&quot;particle_id&quot;:&quot;img94-m47-p1&quot;,&quot;molecule_id&quot;:&quot;img94-m47&quot;,&quot;atom_order&quot;:1},{&quot;id&quot;:4332,&quot;token&quot;:&quot;e:1&quot;,&quot;particle_id&quot;:&quot;img94-m47-p1&quot;,&quot;molecule_id&quot;:&quot;img94-m47&quot;,&quot;atom_order&quot;:2},{&quot;id&quot;:4333,&quot;token&quot;:&quot;b:1&quot;,&quot;particle_id&quot;:&quot;img94-m47-p1&quot;,&quot;molecule_id&quot;:&quot;img94-m47&quot;,&quot;atom_order&quot;:3},{&quot;id&quot;:4305,&quot;token&quot;:&quot;c:1&quot;,&quot;particle_id&quot;:&quot;img94-m47-p1&quot;,&quot;molecule_id&quot;:&quot;img94-m47&quot;,&quot;atom_order&quot;:4},{&quot;id&quot;:4331,&quot;token&quot;:&quot;a:1&quot;,&quot;particle_id&quot;:&quot;img94-m47-p1&quot;,&quot;molecule_id&quot;:&quot;img94-m47&quot;,&quot;atom_order&quot;:5}]}</metadata>
  <rect x="0" y="0" width="104" height="99" fill="#f8f0d8"/>
  <image href="file:///C:/Users/HHHES/AppData/Roaming/com.voynichlab.datasetcreator/images/1/33b1988f-7aaa-4207-bfa8-f26b742ac4b1.jpg" x="-1090" y="-2494" width="2932" height="3769" opacity="0.92"/>
  <rect x="0.5" y="0.5" width="103" height="98" fill="none" stroke="#111827" stroke-width="1" opacity="0.35"/>
  <polyline points="32,17 32,18 32,19 32,20 33,20 33,21 33,22 33,23 33,24 33,25 33,26 33,27 32,27 32,28 32,29 32,30 32,31 32,32 32,33 32,34 32,35 32,36 32,37 32,38 32,39 32,40 32,41 32,42 32,43 32,45 32,46 32,47 32,48 33,49 33,50 33,51 33,52 33,54 33,55 33,56 33,57 33,58 33,59 33,60 34,61 34,62 34,63 34,64 34,65 34,66 34,67 34,68 34,69 34,70 34,71 34,72 34,73 33,73 33,74 33,75 33,76 33,77 32,77 32,78 32,79 32,80 32,81 31,82 31,83 31,82" fill="none" stroke="#00f0b5" stroke-width="3" stroke-linecap="round" stroke-linejoin="round" opacity="0.95">
    <title>4330 a:1</title>
  </polyline>
  <polyline points="32,17 31,18 30,18 30,19 29,19 29,20 28,21 27,21 27,22 25,22 24,23 23,23 23,24 22,24 21,24 20,25 20,26 19,26 18,26 18,27 17,28 17,29 16,30 16,31 16,32 16,33 16,34 16,35 16,36 16,37 16,38 17,38 17,39 18,40 19,41 20,41 21,41 21,42 22,42 23,42 24,42 25,42 26,42 26,41 27,41 28,41 29,41 29,40 30,40 30,39" fill="none" stroke="#f2e45c" stroke-width="3" stroke-linecap="round" stroke-linejoin="round" opacity="0.95">
    <title>4332 e:1</title>
  </polyline>
  <polyline points="24,41 25,41 26,42 27,42 28,42 29,42 30,42 31,42 32,43 33,43 34,43 35,43 36,43 37,43 38,43 39,43 40,43 41,43 42,43 43,43 44,43 45,43 46,43 47,43 48,43 49,43 50,43 51,42 52,42 53,42 54,42 55,42 57,41 59,41 61,41 62,41 63,40 64,40 65,40 66,39 67,39 68,38 69,38 70,37 72,36 73,36 74,36 75,35 76,34 77,34 77,33" fill="none" stroke="#2f7df6" stroke-width="3" stroke-linecap="round" stroke-linejoin="round" opacity="0.95">
    <title>4333 b:1</title>
  </polyline>
  <polyline points="62,24 62,25 61,26 61,27 61,28 61,29 61,30 61,31 62,32 62,33 63,33 63,34 64,35 65,35 65,36 66,36 67,36 68,37 69,37 70,37 71,37 72,37 73,37 74,38 75,38 76,38 77,38 78,37 79,37 80,37 81,36 82,36 82,35 83,35 83,34 84,34 84,33 85,33 85,32 86,32 86,31 87,30 87,29 88,29 88,28 88,27 88,26 88,25 88,24 88,23 88,22 88,21 87,21 87,20 86,20 86,19 85,19 85,18 84,18 83,18 82,17 81,17 80,17 80,16 79,16 78,16 77,16 76,16 75,16 74,16 73,16 71,16 70,16 69,16 68,17 67,17 66,17 66,18 65,18 65,19 64,19 64,20 63,20 63,21 62,22 62,23 62,24 62,25 61,26 61,27" fill="none" stroke="#8aff00" stroke-width="3" stroke-linecap="round" stroke-linejoin="round" opacity="0.95">
    <title>4305 c:1</title>
  </polyline>
  <polyline points="62,23 62,24 62,25 62,26 61,26 61,27 61,28 61,29 61,30 61,31 61,32 61,33 61,34 61,35 60,36 60,37 60,38 60,39 60,40 60,41 60,42 60,43 60,44 60,45 60,46 60,47 60,48 60,50 60,51 60,52 60,53 60,54 60,55 60,56 60,57 60,58 60,59 60,60 60,61 61,63 61,64 61,65 61,66 61,67 61,68 61,69 61,70 61,71 61,72 61,73 61,74 61,75 61,76 61,77 61,78 61,79 60,79 60,80 60,81 60,80" fill="none" stroke="#00f0b5" stroke-width="3" stroke-linecap="round" stroke-linejoin="round" opacity="0.95">
    <title>4331 a:1</title>
  </polyline>
</svg>
