<?xml version="1.0" encoding="UTF-8"?>
<svg xmlns="http://www.w3.org/2000/svg" width="146" height="134" viewBox="0 0 146 134">
  <title>particle img94-m4-p3 e:1 a:1 b:1 c:1 a:1 b:1 d:1</title>
  <metadata>{&quot;entityType&quot;:&quot;particle&quot;,&quot;entityId&quot;:&quot;img94-m4-p3&quot;,&quot;token&quot;:&quot;e:1 a:1 b:1 c:1 a:1 b:1 d:1&quot;,&quot;signature&quot;:&quot;e:1 a:1 b:1 c:1 a:1 b:1 d:1&quot;,&quot;imageName&quot;:&quot;page-094.jpg&quot;,&quot;imageId&quot;:94,&quot;bounds&quot;:{&quot;x&quot;:1586,&quot;y&quot;:458,&quot;w&quot;:146,&quot;h&quot;:134},&quot;atoms&quot;:[{&quot;id&quot;:2667,&quot;token&quot;:&quot;e:1&quot;,&quot;particle_id&quot;:&quot;img94-m4-p3&quot;,&quot;molecule_id&quot;:&quot;img94-m4&quot;,&quot;atom_order&quot;:1},{&quot;id&quot;:2662,&quot;token&quot;:&quot;a:1&quot;,&quot;particle_id&quot;:&quot;img94-m4-p3&quot;,&quot;molecule_id&quot;:&quot;img94-m4&quot;,&quot;atom_order&quot;:2},{&quot;id&quot;:2665,&quot;token&quot;:&quot;b:1&quot;,&quot;particle_id&quot;:&quot;img94-m4-p3&quot;,&quot;molecule_id&quot;:&quot;img94-m4&quot;,&quot;atom_order&quot;:3},{&quot;id&quot;:2664,&quot;token&quot;:&quot;c:1&quot;,&quot;particle_id&quot;:&quot;img94-m4-p3&quot;,&quot;molecule_id&quot;:&quot;img94-m4&quot;,&quot;atom_order&quot;:4},{&quot;id&quot;:2666,&quot;token&quot;:&quot;a:1&quot;,&quot;particle_id&quot;:&quot;img94-m4-p3&quot;,&quot;molecule_id&quot;:&quot;img94-m4&quot;,&quot;atom_order&quot;:5},{&quot;id&quot;:2663,&quot;token&quot;:&quot;b:1&quot;,&quot;particle_id&quot;:&quot;img94-m4-p3&quot;,&quot;molecule_id&quot;:&quot;img94-m4&quot;,&quot;atom_order&quot;:6},{&quot;id&quot;:2668,&quot;token&quot;:&quot;d:1&quot;,&quot;particle_id&quot;:&quot;img94-m4-p3&quot;,&quot;molecule_id&quot;:&quot;img94-m4&quot;,&quot;atom_order&quot;:7}]}</metadata>
  <rect x="0" y="0" width="146" height="134" fill="#f8f0d8"/>
  <image href="file:///C:/Users/HHHES/AppData/Roaming/com.voynichlab.datasetcreator/images/1/33b1988f-7aaa-4207-bfa8-f26b742ac4b1.jpg" x="-1586" y="-458" width="2932" height="3769" opacity="0.92"/>
  <rect x="0.5" y="0.5" width="145" height="133" fill="none" stroke="#111827" stroke-width="1" opacity="0.35"/>
  <polyline points="65,47 64,47 64,46 63,46 63,45 62,45 61,45 61,44 61,43 60,43 60,42 60,41 60,40 60,39 60,38 60,37 60,36 60,35 60,34 61,34 61,33 61,32 62,32 62,31 62,30 63,30 64,29 65,28 66,28 66,27 67,27 68,27 69,26 70,26 71,26 72,26 73,26 73,25 74,25 75,25 76,25 77,25" fill="none" stroke="#f2e45c" stroke-width="3" stroke-linecap="round" stroke-linejoin="round" opacity="0.95">
    <title>2667 e:1</title>
  </polyline>
  <polyline points="76,118 76,117 77,117 77,116 77,115 77,114 77,113 77,112 77,111 77,110 77,109 77,108 77,107 77,106 77,105 77,104 78,103 78,102 78,101 78,100 78,99 78,98 78,97 78,96 78,95 78,94 78,93 78,92 78,91 79,91 79,90 79,89 79,88 79,87 79,86 79,85 79,84 79,83 79,82 79,81 79,80 79,79 79,78 79,77 79,76 79,75 79,74 79,73 79,72 79,71 79,70 79,69 79,68 79,67 79,66 79,65 79,64 79,63 79,62 79,61 79,60 79,59 79,58 79,57 79,56 79,55 79,54 79,53 79,52 79,51 79,50 79,49 79,48 79,47 79,46 79,45 79,44 79,43 79,42 79,41 79,40 79,39 79,38 79,37 78,36 78,35 78,34 78,33 78,32 78,31 78,30 78,29 77,29 77,28 77,27 77,26 77,25" fill="none" stroke="#00f0b5" stroke-width="3" stroke-linecap="round" stroke-linejoin="round" opacity="0.95">
    <title>2662 a:1</title>
  </polyline>
  <polyline points="103,73 103,74 102,74 102,75 101,75 100,76 99,76 98,76 97,76 96,76 95,76 94,76 93,76 92,76 91,76 90,76 90,75 89,75 88,75 88,74 87,74 86,74 85,74 84,73 83,73 82,73 81,73 81,72 80,72 80,71 79,71 78,71 78,70 77,70 76,70 76,69 75,69 74,69 74,68 73,68" fill="none" stroke="#2f7df6" stroke-width="3" stroke-linecap="round" stroke-linejoin="round" opacity="0.95">
    <title>2665 b:1</title>
  </polyline>
  <polyline points="123,41 124,41 124,40 125,40 125,39 126,39 126,38 127,38 127,37 128,37 128,36 129,36 129,35 130,34 130,33 130,32 130,31 130,30 130,29 130,28 130,27 130,26 130,25 130,24 130,23 130,22 129,22 129,21 128,20 128,19 127,19 127,18 126,18 126,17 125,17 124,17 123,16 122,16 121,16 120,16 119,16 118,16 117,16 116,16 115,16 114,16 114,17 113,17 112,17 112,18 111,18 110,18 110,19 109,19 109,20 108,20 108,21 107,21 107,22 106,22 106,23 105,23 105,24 104,24 104,25 103,26 103,27 102,27 102,28 102,29 101,30 101,31 101,32 101,33 101,34 100,34 100,35 100,36 100,37 100,38 100,39 100,40 101,40 101,41 101,42 102,42 102,43 103,43 103,44 104,44 105,44 106,44 106,45 107,45 108,45 109,45 110,45 111,45 112,45 113,44 114,44 115,44 116,44 117,44 117,43 118,43 119,43 119,42 120,42 121,42 122,41 123,41 123,40 124,40" fill="none" stroke="#8aff00" stroke-width="3" stroke-linecap="round" stroke-linejoin="round" opacity="0.95">
    <title>2664 c:1</title>
  </polyline>
  <polyline points="100,34 100,35 100,36 100,37 100,38 100,39 100,40 101,40 101,41 101,42 101,43 101,44 101,45 102,46 102,47 102,48 102,49 102,50 102,51 102,52 102,53 102,54 102,55 102,56 102,57 102,58 102,59 102,60 102,61 102,62 102,63 102,64 102,65 102,66 102,67 102,68 102,69 102,70 102,71 102,72 102,73" fill="none" stroke="#00f0b5" stroke-width="3" stroke-linecap="round" stroke-linejoin="round" opacity="0.95">
    <title>2666 a:1</title>
  </polyline>
  <polyline points="65,47 66,47 66,48 67,48 68,49 69,49 70,49 71,49 71,50 72,50 73,50 74,50 74,51 75,51 76,51 77,51 78,51 79,51 79,52 80,52 81,52 82,52 83,52 84,52 85,52 86,52 87,52 88,52 89,52 90,52 91,52 92,52 93,52 94,52 95,52 96,52 97,52 98,51 99,51 100,51 101,51 102,51 102,50 103,50 104,50 105,50 106,50 107,50 107,49 108,49 109,49 110,49 111,49 111,48 112,48 113,48 114,48 114,47 115,47 116,47 116,46 117,46 117,45 118,45 119,45 119,44 120,44 121,43 121,42 122,42 123,42 123,41" fill="none" stroke="#2f7df6" stroke-width="3" stroke-linecap="round" stroke-linejoin="round" opacity="0.95">
    <title>2663 b:1</title>
  </polyline>
  <polyline points="16,74 17,74 18,74 19,73 20,73 21,72 22,72 23,72 24,72 25,72 25,71 26,71 27,71 28,71 29,71 30,70 31,70 32,70 32,69 33,69 34,69 35,69 36,69 37,68 38,68 39,68 40,68 41,68 41,67 42,67 43,67 44,67 45,67 46,67 47,67 48,67 49,67 50,67 51,67 52,67 53,67 54,67 55,67 56,67 57,67 58,67 59,67 60,67 61,67 62,67 63,67 64,67 65,67 66,67 67,67 68,68 69,68 70,68 71,68 72,69 73,69 74,69 75,69 76,70 77,70 78,70 78,71 79,71" fill="none" stroke="#ff2d55" stroke-width="3" stroke-linecap="round" stroke-linejoin="round" opacity="0.95">
    <title>2668 d:1</title>
  </polyline>
</svg>
