<?xml version="1.0" encoding="UTF-8"?>
<svg xmlns="http://www.w3.org/2000/svg" width="95" height="99" viewBox="0 0 95 99">
  <title>particle img94-m16-p2 e:1 a:1 b:1 a:1 c:2</title>
  <metadata>{&quot;entityType&quot;:&quot;particle&quot;,&quot;entityId&quot;:&quot;img94-m16-p2&quot;,&quot;token&quot;:&quot;e:1 a:1 b:1 a:1 c:2&quot;,&quot;signature&quot;:&quot;e:1 a:1 b:1 a:1 c:2&quot;,&quot;imageName&quot;:&quot;page-094.jpg&quot;,&quot;imageId&quot;:94,&quot;bounds&quot;:{&quot;x&quot;:1581,&quot;y&quot;:664,&quot;w&quot;:95,&quot;h&quot;:99},&quot;atoms&quot;:[{&quot;id&quot;:2836,&quot;token&quot;:&quot;e:1&quot;,&quot;particle_id&quot;:&quot;img94-m16-p2&quot;,&quot;molecule_id&quot;:&quot;img94-m16&quot;,&quot;atom_order&quot;:1},{&quot;id&quot;:2831,&quot;token&quot;:&quot;a:1&quot;,&quot;particle_id&quot;:&quot;img94-m16-p2&quot;,&quot;molecule_id&quot;:&quot;img94-m16&quot;,&quot;atom_order&quot;:2},{&quot;id&quot;:2833,&quot;token&quot;:&quot;b:1&quot;,&quot;particle_id&quot;:&quot;img94-m16-p2&quot;,&quot;molecule_id&quot;:&quot;img94-m16&quot;,&quot;atom_order&quot;:3},{&quot;id&quot;:2828,&quot;token&quot;:&quot;a:1&quot;,&quot;particle_id&quot;:&quot;img94-m16-p2&quot;,&quot;molecule_id&quot;:&quot;img94-m16&quot;,&quot;atom_order&quot;:4},{&quot;id&quot;:2792,&quot;token&quot;:&quot;c:2&quot;,&quot;particle_id&quot;:&quot;img94-m16-p2&quot;,&quot;molecule_id&quot;:&quot;img94-m16&quot;,&quot;atom_order&quot;:5}]}</metadata>
  <rect x="0" y="0" width="95" height="99" fill="#f8f0d8"/>
  <image href="file:///C:/Users/HHHES/AppData/Roaming/com.voynichlab.datasetcreator/images/1/33b1988f-7aaa-4207-bfa8-f26b742ac4b1.jpg" x="-1581" y="-664" width="2932" height="3769" opacity="0.92"/>
  <rect x="0.5" y="0.5" width="94" height="98" fill="none" stroke="#111827" stroke-width="1" opacity="0.35"/>
  <polyline points="23,38 22,38 22,37 21,37 20,37 19,37 19,36 18,36 18,35 17,35 17,34 16,34 16,33 16,32 16,31 16,30 16,29 16,28 17,27 17,26 18,26 18,25 19,25 19,24 20,24 20,23 21,23 21,22 22,22 22,21 23,21 23,20 24,20 25,20 25,19 26,19 26,18 27,18 28,18 28,17 29,17 30,17 31,17 32,17 32,16 33,16 33,17 34,17" fill="none" stroke="#f2e45c" stroke-width="3" stroke-linecap="round" stroke-linejoin="round" opacity="0.95">
    <title>2836 e:1</title>
  </polyline>
  <polyline points="33,16 34,17 34,18 34,19 34,20 35,20 35,21 35,22 35,23 35,24 35,25 35,26 36,26 36,27 36,28 36,29 36,30 36,31 36,32 36,33 36,34 36,35 36,36 36,37 36,38 37,39 37,40 37,41 37,42 37,43 37,44 37,45 37,46 37,47 37,48 37,49 37,50 37,51 37,52 37,53 37,54 37,55 37,56 37,57 37,58 37,59 37,60 37,61 37,62 37,63 37,64 37,65 37,66 37,67 37,68 37,69 37,70 37,71 37,72 37,73 37,74 37,75 37,76 37,77 37,78 37,79 37,80 37,81 37,82 37,83 37,82" fill="none" stroke="#00f0b5" stroke-width="3" stroke-linecap="round" stroke-linejoin="round" opacity="0.95">
    <title>2831 a:1</title>
  </polyline>
  <polyline points="20,36 20,37 21,37 22,37 22,38 23,38 24,38 25,38 25,39 26,39 27,39 28,39 29,39 29,40 30,40 31,40 32,40 33,40 34,40 35,40 36,41 37,41 38,41 39,41 40,41 41,41 42,41 43,41 44,41 45,41 46,41 46,40 47,40 48,40 49,40 50,40 51,40 52,40 53,40 54,40 55,40 55,39 56,39 57,39 58,39 59,39 60,39 61,39 62,38 63,38 64,38 65,38 66,38 66,37 67,37 68,37 69,37 70,36 71,36 72,36 72,35" fill="none" stroke="#2f7df6" stroke-width="3" stroke-linecap="round" stroke-linejoin="round" opacity="0.95">
    <title>2833 b:1</title>
  </polyline>
  <polyline points="56,26 56,27 56,28 56,29 56,30 56,31 56,32 56,33 56,34 56,35 56,36 56,37 56,38 56,39 56,40 56,41 56,42 56,43 56,44 56,45 56,46 56,47 56,48 56,49 56,50 56,51 56,52 56,53 56,54 56,55 56,56 56,57 56,58 56,59 56,60 55,60 55,61 55,62 55,63 55,64 55,65 55,66 55,67 54,67 54,68 54,69 54,70 54,71 54,72 54,73 54,74 54,75 54,76 54,77 54,78 54,79 54,80" fill="none" stroke="#00f0b5" stroke-width="3" stroke-linecap="round" stroke-linejoin="round" opacity="0.95">
    <title>2828 a:1</title>
  </polyline>
  <polyline points="69,28 68,28 67,28 68,27 69,27 69,28 69,29 68,30 67,30 67,29 67,28 68,28 69,27 69,28 69,29 68,29 67,29 66,29 65,29 65,28 66,27 67,27 68,26 68,27 68,28 67,28 67,29 66,29 65,29 64,29 64,28 64,27 65,27 66,26 67,26 68,26 69,26 70,26 70,27 70,28 69,29 68,29 67,29 66,29 65,29 65,28 65,27 66,27 67,26 69,25 69,26 69,27 69,28 68,29 67,30 66,30 65,30 64,30 64,29 64,27 66,26 67,26 68,26 69,26 69,27 69,29 69,30 68,30 68,31 67,31 66,31 65,31 64,30 63,29 63,28 63,26 64,25 65,24 66,24 67,24 68,24 68,25 69,26 69,27 69,28 69,30 69,32 69,33 68,34 67,34 66,34 66,33 65,33 65,32 64,31 63,29 63,28 63,27 63,26 64,25 65,25 66,24 67,24 68,24 69,24 69,25 70,25 70,26 70,27 71,28 71,29 71,30 71,31 70,32 69,32 68,32 67,32 66,32 65,32 64,31 63,31 62,30 61,29 61,28 61,27 61,26 61,25 63,24 63,23 64,23 66,23 67,23 68,23 70,24 71,24 72,25 72,26 72,27 72,28 72,29 72,30 71,31 71,32 70,32 70,33 68,33 67,33 65,33 64,32 62,32 62,31 61,29 61,28 61,27 62,26 64,25 66,24 69,24 71,25 73,25 73,26 74,27 74,28 74,30 74,31 73,33 71,34 70,34 68,34 66,34 64,33 62,32 62,31 61,29 61,28 62,27 63,25 65,24 67,23 70,23 72,23 73,23 74,23 75,24 75,25 76,27 76,29 76,31 76,32 76,33 75,33 75,34 74,34 73,34 71,34 69,34 68,34 67,34 66,33 65,33 64,33 64,32 63,32 63,31 62,31 62,30 62,29 61,28 61,27 61,26 62,25 62,24 63,24 63,23 64,23 65,23 65,22 66,22 67,22 68,22 69,22 70,22 71,22 72,22 73,22 74,22 75,22 76,22 76,23 77,23 77,24 78,24 78,25 78,26 78,27 79,27 79,28 79,29 79,30 78,31 78,32 78,33 77,34 76,34 76,35 75,35 75,36 74,36 73,36 72,36 72,37 71,37 70,37 69,37 68,37 67,37 66,37 65,37 64,37 63,36 62,36 61,36 61,35 60,35 60,34 59,34 59,33 58,32 58,31 57,30 57,29 56,29 56,28 56,27 56,26 56,25 56,24 56,23 57,23 57,22 57,21 58,21 58,20 59,20 60,20 60,19 61,19 61,18 62,18 63,18 64,18 65,18 66,18 67,18 68,18 69,18 70,18 71,18 72,18 73,18 74,18 74,19 75,19 76,20 76,21 76,22 77,22 77,23 77,24 78,24 78,25 78,26 78,27 78,28 78,29 78,30 78,31 78,32 78,33 77,33 76,33 76,34 75,34 74,34 74,35 73,35 72,35 71,36 70,36 69,36 68,36 67,36 66,36 65,36 64,36 64,35 63,35 62,35 62,34 61,34 61,33 60,33 60,32 59,32 59,31 58,31 58,30 58,29 58,28 58,27 58,26 58,25 58,24 59,23 60,22 61,21 62,20 63,20 64,20 64,19 65,19 66,19 67,19 68,19 68,20 70,20 71,20 72,20 73,21 74,21 75,21 75,22 75,23 75,24 75,25 75,26 75,27 75,28 76,29 76,30 76,31 75,31 75,32 75,33 75,34 74,34 73,34 72,34 72,35 71,35 70,35 69,35 68,35 67,35 66,35 65,35 64,35 64,34 63,34 62,33 61,33 61,32 60,32 60,31 60,30 60,29 60,28 60,27 60,26 59,26 59,25 60,25 60,24 61,24 61,23 62,23 62,22 63,22 64,22 64,21 65,21 65,20 66,20 67,20 68,20 69,21 70,21 71,21 72,21 72,22 73,22 73,23 74,23 74,24 74,25 74,26 74,27 74,28 74,29 73,29 73,30 73,31 72,31 72,32 71,32 71,33 72,33 73,33 73,32 74,32 75,31 76,30 77,29 77,28 77,27 77,26 76,25 76,24 75,24 75,23 75,22 75,21 74,21 74,20 74,19 73,19 73,18 72,18 71,18 70,18 69,18 69,19 68,19 67,19 66,19 65,19 64,19 63,19 62,19 61,19 60,19 60,20 59,20 59,21 59,22 58,22 58,23 58,24 57,24 57,25 57,26 58,26 58,27 58,28 58,29 59,29 59,30 60,30 60,31 61,31 61,32 61,31 61,30 60,29 59,29 59,28 58,27 58,26 57,26 58,26 58,27 58,28 57,28 57,27 58,27 58,26 59,26 60,26 60,25 60,24 61,23 61,22 61,21 61,20 62,20 63,20 63,19 62,19 61,19 61,20 60,21 60,22 60,23 60,24 61,25 62,25 62,26 63,26 64,25 64,24 64,23 65,23 65,22 65,21 64,21 63,21 62,21 62,22 61,22 61,23 61,24 61,25 62,25 63,25 64,25 66,24 67,24 68,23 68,22 68,21 68,20 67,20 67,21 66,21 65,22 65,23 65,24 66,24 67,24 67,23 68,22 68,21 68,20 67,20 66,20 67,20 67,21 68,21 69,21 70,21 71,20 72,20 72,19 71,19 70,19 71,19 71,20 71,21 71,22 72,22 72,23 72,24 73,25 73,26 73,27 72,28 71,28 70,28 69,28 68,28 68,27 69,27 70,26 71,25 72,25 72,26 72,27 72,28 72,29 71,29 71,30 70,30 69,30 68,30 68,29 68,28 69,28 70,27 71,26 72,26 73,25 74,25 74,26 74,27 74,28 73,28 73,29 73,30 72,30 72,31 73,31 74,30 75,30 76,30 76,29 76,30 76,31 75,31 75,32 75,33 74,33 75,33 76,33 76,32 77,31 77,30 77,29 77,28 78,28 78,27 78,26 78,25 77,24 77,23 77,22 77,21 76,21 75,21 75,20 74,20 73,20 72,20 71,20 70,20 69,20 68,20 68,21 68,22" fill="none" stroke="#8aff00" stroke-width="3" stroke-linecap="round" stroke-linejoin="round" opacity="0.95">
    <title>2792 c:2</title>
  </polyline>
</svg>
