<?xml version="1.0" encoding="UTF-8"?>
<svg xmlns="http://www.w3.org/2000/svg" width="82" height="55" viewBox="0 0 82 55">
  <title>particle img94-m67-p1 e:1 g:1 e:1</title>
  <metadata>{&quot;entityType&quot;:&quot;particle&quot;,&quot;entityId&quot;:&quot;img94-m67-p1&quot;,&quot;token&quot;:&quot;e:1 g:1 e:1&quot;,&quot;signature&quot;:&quot;e:1 g:1 e:1&quot;,&quot;imageName&quot;:&quot;page-094.jpg&quot;,&quot;imageId&quot;:94,&quot;bounds&quot;:{&quot;x&quot;:948,&quot;y&quot;:2799,&quot;w&quot;:82,&quot;h&quot;:55},&quot;atoms&quot;:[{&quot;id&quot;:4390,&quot;token&quot;:&quot;e:1&quot;,&quot;particle_id&quot;:&quot;img94-m67-p1&quot;,&quot;molecule_id&quot;:&quot;img94-m67&quot;,&quot;atom_order&quot;:1},{&quot;id&quot;:4471,&quot;token&quot;:&quot;g:1&quot;,&quot;particle_id&quot;:&quot;img94-m67-p1&quot;,&quot;molecule_id&quot;:&quot;img94-m67&quot;,&quot;atom_order&quot;:2},{&quot;id&quot;:4391,&quot;token&quot;:&quot;e:1&quot;,&quot;particle_id&quot;:&quot;img94-m67-p1&quot;,&quot;molecule_id&quot;:&quot;img94-m67&quot;,&quot;atom_order&quot;:3}]}</metadata>
  <rect x="0" y="0" width="82" height="55" fill="#f8f0d8"/>
  <image href="file:///C:/Users/HHHES/AppData/Roaming/com.voynichlab.datasetcreator/images/1/33b1988f-7aaa-4207-bfa8-f26b742ac4b1.jpg" x="-948" y="-2799" width="2932" height="3769" opacity="0.92"/>
  <rect x="0.5" y="0.5" width="81" height="54" fill="none" stroke="#111827" stroke-width="1" opacity="0.35"/>
  <polyline points="31,36 31,37 30,37 30,38 29,38 28,38 28,39 27,39 26,39 25,39 24,39 23,39 22,39 21,39 21,38 20,38 19,38 18,38 18,37 17,37 16,37 16,36 16,35 16,34 16,33 16,32 16,31 16,30 17,30 17,29 17,28 17,27 18,27 18,26 18,25 19,25 19,24 19,23 20,23 21,23 21,22 22,22 22,21 23,21 24,21 24,20 25,20 26,20 27,20 27,19" fill="none" stroke="#f2e45c" stroke-width="3" stroke-linecap="round" stroke-linejoin="round" opacity="0.95">
    <title>4390 e:1</title>
  </polyline>
  <polyline points="25,20 26,20 27,20 28,19 29,19 30,19 31,19 32,19 33,19 34,19 35,19 37,19 39,19 40,19 41,19 42,19 44,19 46,19 48,19 49,19 50,19 51,19 52,19 53,19 54,18 55,18 56,18 57,18 58,18 59,18" fill="none" stroke="#7c3cff" stroke-width="3" stroke-linecap="round" stroke-linejoin="round" opacity="0.95">
    <title>4471 g:1</title>
  </polyline>
  <polyline points="66,33 66,34 65,34 65,35 64,35 63,35 63,36 62,36 61,36 60,36 59,36 58,36 57,36 56,36 56,35 55,35 54,35 53,35 53,34 52,34 51,34 51,33 51,32 51,31 51,30 51,29 51,28 51,27 52,27 52,26 52,25 52,24 53,24 53,23 53,22 54,22 54,21 54,20 55,20 56,20 56,19 57,19 57,18 58,18 59,18 59,17 60,17 61,17 62,17 62,16" fill="none" stroke="#f2e45c" stroke-width="3" stroke-linecap="round" stroke-linejoin="round" opacity="0.95">
    <title>4391 e:1</title>
  </polyline>
</svg>
