<?xml version="1.0" encoding="UTF-8"?>
<svg xmlns="http://www.w3.org/2000/svg" width="92" height="55" viewBox="0 0 92 55">
  <title>particle img94-m33-p1 e:1 g:1 e:1</title>
  <metadata>{&quot;entityType&quot;:&quot;particle&quot;,&quot;entityId&quot;:&quot;img94-m33-p1&quot;,&quot;token&quot;:&quot;e:1 g:1 e:1&quot;,&quot;signature&quot;:&quot;e:1 g:1 e:1&quot;,&quot;imageName&quot;:&quot;page-094.jpg&quot;,&quot;imageId&quot;:94,&quot;bounds&quot;:{&quot;x&quot;:1309,&quot;y&quot;:892,&quot;w&quot;:92,&quot;h&quot;:55},&quot;atoms&quot;:[{&quot;id&quot;:2936,&quot;token&quot;:&quot;e:1&quot;,&quot;particle_id&quot;:&quot;img94-m33-p1&quot;,&quot;molecule_id&quot;:&quot;img94-m33&quot;,&quot;atom_order&quot;:1},{&quot;id&quot;:2955,&quot;token&quot;:&quot;g:1&quot;,&quot;particle_id&quot;:&quot;img94-m33-p1&quot;,&quot;molecule_id&quot;:&quot;img94-m33&quot;,&quot;atom_order&quot;:2},{&quot;id&quot;:2937,&quot;token&quot;:&quot;e:1&quot;,&quot;particle_id&quot;:&quot;img94-m33-p1&quot;,&quot;molecule_id&quot;:&quot;img94-m33&quot;,&quot;atom_order&quot;:3}]}</metadata>
  <rect x="0" y="0" width="92" height="55" fill="#f8f0d8"/>
  <image href="file:///C:/Users/HHHES/AppData/Roaming/com.voynichlab.datasetcreator/images/1/33b1988f-7aaa-4207-bfa8-f26b742ac4b1.jpg" x="-1309" y="-892" width="2932" height="3769" opacity="0.92"/>
  <rect x="0.5" y="0.5" width="91" height="54" fill="none" stroke="#111827" stroke-width="1" opacity="0.35"/>
  <polyline points="31,36 31,37 30,37 30,38 29,38 28,38 28,39 27,39 26,39 25,39 24,39 23,39 22,39 21,39 21,38 20,38 19,38 18,38 18,37 17,37 16,37 16,36 16,35 16,34 16,33 16,32 16,31 16,30 17,30 17,29 17,28 17,27 18,27 18,26 18,25 19,25 19,24 19,23 20,23 21,23 21,22 22,22 22,21 23,21 24,21 24,20 25,20 26,20 27,20 27,19" fill="none" stroke="#f2e45c" stroke-width="3" stroke-linecap="round" stroke-linejoin="round" opacity="0.95">
    <title>2936 e:1</title>
  </polyline>
  <polyline points="27,19 28,19 29,19 30,19 31,19 32,19 33,19 34,19 35,19 36,19 37,19 38,19 39,19 40,19 40,18 41,18 42,18 43,18 44,18 45,18 46,18 47,18 48,18 49,18 50,18 51,18 52,18 53,18 54,18 55,18 55,17 56,17 57,17 58,17 59,17 60,17 61,17 62,17 63,17 64,17 65,17 66,17 67,17 68,17 69,17 70,17 71,17" fill="none" stroke="#7c3cff" stroke-width="3" stroke-linecap="round" stroke-linejoin="round" opacity="0.95">
    <title>2955 g:1</title>
  </polyline>
  <polyline points="76,33 76,34 75,34 75,35 74,35 73,35 73,36 72,36 71,36 70,36 69,36 68,36 67,36 66,36 66,35 65,35 64,35 63,35 63,34 62,34 61,34 61,33 61,32 61,31 61,30 61,29 61,28 61,27 62,27 62,26 62,25 62,24 63,24 63,23 63,22 64,22 64,21 64,20 65,20 66,20 66,19 67,19 67,18 68,18 69,18 69,17 70,17 71,17 72,17 72,16" fill="none" stroke="#f2e45c" stroke-width="3" stroke-linecap="round" stroke-linejoin="round" opacity="0.95">
    <title>2937 e:1</title>
  </polyline>
</svg>
