<?xml version="1.0" encoding="UTF-8"?>
<svg xmlns="http://www.w3.org/2000/svg" width="64" height="78" viewBox="0 0 64 78">
  <title>particle img94-m48-p1 e:1 c:2 h:2</title>
  <metadata>{&quot;entityType&quot;:&quot;particle&quot;,&quot;entityId&quot;:&quot;img94-m48-p1&quot;,&quot;token&quot;:&quot;e:1 c:2 h:2&quot;,&quot;signature&quot;:&quot;e:1 c:2 h:2&quot;,&quot;imageName&quot;:&quot;page-094.jpg&quot;,&quot;imageId&quot;:94,&quot;bounds&quot;:{&quot;x&quot;:1608,&quot;y&quot;:2571,&quot;w&quot;:64,&quot;h&quot;:78},&quot;atoms&quot;:[{&quot;id&quot;:4371,&quot;token&quot;:&quot;e:1&quot;,&quot;particle_id&quot;:&quot;img94-m48-p1&quot;,&quot;molecule_id&quot;:&quot;img94-m48&quot;,&quot;atom_order&quot;:1},{&quot;id&quot;:4372,&quot;token&quot;:&quot;c:2&quot;,&quot;particle_id&quot;:&quot;img94-m48-p1&quot;,&quot;molecule_id&quot;:&quot;img94-m48&quot;,&quot;atom_order&quot;:2},{&quot;id&quot;:4378,&quot;token&quot;:&quot;h:2&quot;,&quot;particle_id&quot;:&quot;img94-m48-p1&quot;,&quot;molecule_id&quot;:&quot;img94-m48&quot;,&quot;atom_order&quot;:3}]}</metadata>
  <rect x="0" y="0" width="64" height="78" fill="#f8f0d8"/>
  <image href="file:///C:/Users/HHHES/AppData/Roaming/com.voynichlab.datasetcreator/images/1/33b1988f-7aaa-4207-bfa8-f26b742ac4b1.jpg" x="-1608" y="-2571" width="2932" height="3769" opacity="0.92"/>
  <rect x="0.5" y="0.5" width="63" height="77" fill="none" stroke="#111827" stroke-width="1" opacity="0.35"/>
  <polyline points="31,59 31,60 30,60 30,61 29,61 28,61 28,62 27,62 26,62 25,62 24,62 23,62 22,62 21,62 21,61 20,61 19,61 18,61 18,60 17,60 16,60 16,59 16,58 16,57 16,56 16,55 16,54 16,53 17,53 17,52 17,51 17,50 18,50 18,49 18,48 19,48 19,47 19,46 20,46 21,46 21,45 22,45 22,44 23,44 24,44 24,43 25,43 26,43 27,43 27,42" fill="none" stroke="#f2e45c" stroke-width="3" stroke-linecap="round" stroke-linejoin="round" opacity="0.95">
    <title>4371 e:1</title>
  </polyline>
  <polyline points="38,28 37,28 36,28 37,27 38,27 38,28 38,29 37,30 36,30 36,29 36,28 37,28 38,27 38,28 38,29 37,29 36,29 35,29 34,29 34,28 35,27 36,27 37,26 37,27 37,28 36,28 36,29 35,29 34,29 33,29 33,28 33,27 34,27 35,26 36,26 37,26 38,26 39,26 39,27 39,28 38,29 37,29 36,29 35,29 34,29 34,28 34,27 35,27 36,26 38,25 38,26 38,27 38,28 37,29 36,30 35,30 34,30 33,30 33,29 33,27 35,26 36,26 37,26 38,26 38,27 38,29 38,30 37,30 37,31 36,31 35,31 34,31 33,30 32,29 32,28 32,26 33,25 34,24 35,24 36,24 37,24 37,25 38,26 38,27 38,28 38,30 38,32 38,33 37,34 36,34 35,34 35,33 34,33 34,32 33,31 32,29 32,28 32,27 32,26 33,25 34,25 35,24 36,24 37,24 38,24 38,25 39,25 39,26 39,27 40,28 40,29 40,30 40,31 39,32 38,32 37,32 36,32 35,32 34,32 33,31 32,31 31,30 30,29 30,28 30,27 30,26 30,25 32,24 32,23 33,23 35,23 36,23 37,23 39,24 40,24 41,25 41,26 41,27 41,28 41,29 41,30 40,31 40,32 39,32 39,33 37,33 36,33 34,33 33,32 31,32 31,31 30,29 30,28 30,27 31,26 33,25 35,24 38,24 40,25 42,25 42,26 43,27 43,28 43,30 43,31 42,33 40,34 39,34 37,34 35,34 33,33 31,32 31,31 30,29 30,28 31,27 32,25 34,24 36,23 39,23 41,23 42,23 43,23 44,24 44,25 45,27 45,29 45,31 45,32 45,33 44,33 44,34 43,34 42,34 40,34 38,34 37,34 36,34 35,33 34,33 33,33 33,32 32,32 32,31 31,31 31,30 31,29 30,28 30,27 30,26 31,25 31,24 32,24 32,23 33,23 34,23 34,22 35,22 36,22 37,22 38,22 39,22 40,22 41,22 42,22 43,22 44,22 45,22 45,23 46,23 46,24 47,24 47,25 47,26 47,27 48,27 48,28 48,29 48,30 47,31 47,32 47,33 46,34 45,34 45,35 44,35 44,36 43,36 42,36 41,36 41,37 40,37 39,37 38,37 37,37 36,37 35,37 34,37 33,37 32,36 31,36 30,36 30,35 29,35 29,34 28,34 28,33 27,32 27,31 26,30 26,29 25,29 25,28 25,27 25,26 25,25 25,24 25,23 26,23 26,22 26,21 27,21 27,20 28,20 29,20 29,19 30,19 30,18 31,18 32,18 33,18 34,18 35,18 36,18 37,18 38,18 39,18 40,18 41,18 42,18 43,18 43,19 44,19 45,20 45,21 45,22 46,22 46,23 46,24 47,24 47,25 47,26 47,27 47,28 47,29 47,30 47,31 47,32 47,33 46,33 45,33 45,34 44,34 43,34 43,35 42,35 41,35 40,36 39,36 38,36 37,36 36,36 35,36 34,36 33,36 33,35 32,35 31,35 31,34 30,34 30,33 29,33 29,32 28,32 28,31 27,31 27,30 27,29 27,28 27,27 27,26 27,25 27,24 28,23 29,22 30,21 31,20 32,20 33,20 33,19 34,19 35,19 36,19 37,19 37,20 39,20 40,20 41,20 42,21 43,21 44,21 44,22 44,23 44,24 44,25 44,26 44,27 44,28 45,29 45,30 45,31 44,31 44,32 44,33 44,34 43,34 42,34 41,34 41,35 40,35 39,35 38,35 37,35 36,35 35,35 34,35 33,35 33,34 32,34 31,33 30,33 30,32 29,32 29,31 29,30 29,29 29,28 29,27 29,26 28,26 28,25 29,25 29,24 30,24 30,23 31,23 31,22 32,22 33,22 33,21 34,21 34,20 35,20 36,20 37,20 38,21 39,21 40,21 41,21 41,22 42,22 42,23 43,23 43,24 43,25 43,26 43,27 43,28 43,29 42,29 42,30 42,31 41,31 41,32 40,32 40,33 41,33 42,33 42,32 43,32 44,31 45,30 46,29 46,28 46,27 46,26 45,25 45,24 44,24 44,23 44,22 44,21 43,21 43,20 43,19 42,19 42,18 41,18 40,18 39,18 38,18 38,19 37,19 36,19 35,19 34,19 33,19 32,19 31,19 30,19 29,19 29,20 28,20 28,21 28,22 27,22 27,23 27,24 26,24 26,25 26,26 27,26 27,27 27,28 27,29 28,29 28,30 29,30 29,31 30,31 30,32 30,31 30,30 29,29 28,29 28,28 27,27 27,26 26,26 27,26 27,27 27,28 26,28 26,27 27,27 27,26 28,26 29,26 29,25 29,24 30,23 30,22 30,21 30,20 31,20 32,20 32,19 31,19 30,19 30,20 29,21 29,22 29,23 29,24 30,25 31,25 31,26 32,26 33,25 33,24 33,23 34,23 34,22 34,21 33,21 32,21 31,21 31,22 30,22 30,23 30,24 30,25 31,25 32,25 33,25 35,24 36,24 37,23 37,22 37,21 37,20 36,20 36,21 35,21 34,22 34,23 34,24 35,24 36,24 36,23 37,22 37,21 37,20 36,20 35,20 36,20 36,21 37,21 38,21 39,21 40,20 41,20 41,19 40,19 39,19 40,19 40,20 40,21 40,22 41,22 41,23 41,24 42,25 42,26 42,27 41,28 40,28 39,28 38,28 37,28 37,27 38,27 39,26 40,25 41,25 41,26 41,27 41,28 41,29 40,29 40,30 39,30 38,30 37,30 37,29 37,28 38,28 39,27 40,26 41,26 42,25 43,25 43,26 43,27 43,28 42,28 42,29 42,30 41,30 41,31 42,31 43,30 44,30 45,30 45,29 45,30 45,31 44,31 44,32 44,33 43,33 44,33 45,33 45,32 46,31 46,30 46,29 46,28 47,28 47,27 47,26 47,25 46,24 46,23 46,22 46,21 45,21 44,21 44,20 43,20 42,20 41,20 40,20 39,20 38,20 37,20 37,21 37,22" fill="none" stroke="#8aff00" stroke-width="3" stroke-linecap="round" stroke-linejoin="round" opacity="0.95">
    <title>4372 c:2</title>
  </polyline>
  <polyline points="30,60 31,60 32,60 33,60 34,60 35,60 35,59 36,59 37,59 37,58 37,57 38,57 38,56 39,55 39,54 39,53 39,52 39,51 39,50 38,50 38,49 37,48 36,48 36,47 35,46 34,46 34,45 33,45 33,44 32,43 31,42 30,42 29,41 28,40 27,39 26,38 25,37 25,36 24,35 24,34 24,33 24,32 24,31 24,30 24,29 24,28 24,27 24,26 24,25 25,25 25,24 25,23 26,23 26,22 27,21 28,20 29,20 29,19 30,19 31,18 32,17 33,17 34,17 35,17 36,16 37,16" fill="none" stroke="#ff8c00" stroke-width="3" stroke-linecap="round" stroke-linejoin="round" opacity="0.95">
    <title>4378 h:2</title>
  </polyline>
</svg>
