<?xml version="1.0" encoding="UTF-8"?>
<svg xmlns="http://www.w3.org/2000/svg" width="106" height="84" viewBox="0 0 106 84">
  <title>particle img94-m36-p3 k:1 f:1 i:1 d:1</title>
  <metadata>{&quot;entityType&quot;:&quot;particle&quot;,&quot;entityId&quot;:&quot;img94-m36-p3&quot;,&quot;token&quot;:&quot;k:1 f:1 i:1 d:1&quot;,&quot;signature&quot;:&quot;k:1 f:1 i:1 d:1&quot;,&quot;imageName&quot;:&quot;page-094.jpg&quot;,&quot;imageId&quot;:94,&quot;bounds&quot;:{&quot;x&quot;:1387,&quot;y&quot;:932,&quot;w&quot;:106,&quot;h&quot;:84},&quot;atoms&quot;:[{&quot;id&quot;:3029,&quot;token&quot;:&quot;k:1&quot;,&quot;particle_id&quot;:&quot;img94-m36-p3&quot;,&quot;molecule_id&quot;:&quot;img94-m36&quot;,&quot;atom_order&quot;:1},{&quot;id&quot;:3016,&quot;token&quot;:&quot;f:1&quot;,&quot;particle_id&quot;:&quot;img94-m36-p3&quot;,&quot;molecule_id&quot;:&quot;img94-m36&quot;,&quot;atom_order&quot;:2},{&quot;id&quot;:3025,&quot;token&quot;:&quot;i:1&quot;,&quot;particle_id&quot;:&quot;img94-m36-p3&quot;,&quot;molecule_id&quot;:&quot;img94-m36&quot;,&quot;atom_order&quot;:3},{&quot;id&quot;:3028,&quot;token&quot;:&quot;d:1&quot;,&quot;particle_id&quot;:&quot;img94-m36-p3&quot;,&quot;molecule_id&quot;:&quot;img94-m36&quot;,&quot;atom_order&quot;:4}]}</metadata>
  <rect x="0" y="0" width="106" height="84" fill="#f8f0d8"/>
  <image href="file:///C:/Users/HHHES/AppData/Roaming/com.voynichlab.datasetcreator/images/1/33b1988f-7aaa-4207-bfa8-f26b742ac4b1.jpg" x="-1387" y="-932" width="2932" height="3769" opacity="0.92"/>
  <rect x="0.5" y="0.5" width="105" height="83" fill="none" stroke="#111827" stroke-width="1" opacity="0.35"/>
  <polyline points="16,50 16,51 17,51 17,52 18,52 18,53 19,53 19,54 19,55 20,55 20,56 21,56 21,57 21,58 22,58 22,59 23,59 23,60 24,61 24,62 25,62 25,63 26,64 26,65 27,66 27,67 28,67 28,68 29,68 29,67 30,67 30,66 31,65 31,64 32,64 32,63 33,63 33,62 33,61 34,61 34,60 34,59 35,59 35,58 35,57 36,57 36,56 37,55 37,54 37,53 38,53 38,52 38,51 39,51 39,50 39,49 40,49 40,50 41,51 41,52 42,52 42,53 43,54 43,55 44,55 44,56 44,57 45,57 45,58 46,59 46,60 47,60 47,61 47,62 48,62 48,63 49,63 49,64 50,64 50,65 51,65 52,65 52,64 53,64 53,63 53,62 54,62 54,61 55,60 55,59 56,59 56,58 56,57 57,57 57,56 58,56 58,55 59,55 59,54 60,53 60,52 61,52 61,51 61,50 62,50 62,49 62,48 63,48 63,47 63,46 64,46" fill="none" stroke="#ffffff" stroke-width="3" stroke-linecap="round" stroke-linejoin="round" opacity="0.95">
    <title>3029 k:1</title>
  </polyline>
  <polyline points="63,46 63,47 63,48 64,48 64,49 64,50 65,50 65,51 66,52 66,53 67,53 67,54 68,55 68,56 69,56 69,57 70,57 70,58 71,58 71,59 71,60 72,60 72,61 72,62 73,62 73,63 74,63 74,64 75,65 75,66 76,66 76,67" fill="none" stroke="#00a2ff" stroke-width="3" stroke-linecap="round" stroke-linejoin="round" opacity="0.95">
    <title>3016 f:1</title>
  </polyline>
  <polyline points="76,67 77,67 78,67 79,67 79,66 80,66 81,66 81,65 82,65 83,64 84,64 84,63 85,63 85,62 86,62 86,61 87,61 87,60 88,59 88,58 89,57 89,56 89,55 90,54 90,53 90,52 90,51 90,50 90,49 90,48 90,47 90,46 90,45 90,44 90,43 89,42 89,41 88,40 88,39 88,38 87,38 87,37 86,37 86,36 85,36 85,35 84,35 84,34 83,34 83,33 82,33 82,32" fill="none" stroke="#00ff7f" stroke-width="3" stroke-linecap="round" stroke-linejoin="round" opacity="0.95">
    <title>3025 i:1</title>
  </polyline>
  <polyline points="43,16 44,16 45,16 46,16 47,17 48,17 49,17 50,17 51,17 51,18 52,18 53,18 54,18 55,18 56,18 56,19 57,19 58,19 59,19 60,20 61,20 62,21 63,21 64,21 64,22 65,22 66,23 67,23 68,23 68,24 69,24 70,24 71,25 72,25 72,26 73,26 73,27 74,27 75,27 75,28 76,28 77,28 77,29 78,29 78,30 79,30 79,31 80,31 81,32 81,33 82,33 82,34 83,34" fill="none" stroke="#ff2d55" stroke-width="3" stroke-linecap="round" stroke-linejoin="round" opacity="0.95">
    <title>3028 d:1</title>
  </polyline>
</svg>
