<?xml version="1.0" encoding="UTF-8"?>
<svg xmlns="http://www.w3.org/2000/svg" width="97" height="55" viewBox="0 0 97 55">
  <title>particle img94-m51-p1 e:1 g:1 e:1</title>
  <metadata>{&quot;entityType&quot;:&quot;particle&quot;,&quot;entityId&quot;:&quot;img94-m51-p1&quot;,&quot;token&quot;:&quot;e:1 g:1 e:1&quot;,&quot;signature&quot;:&quot;e:1 g:1 e:1&quot;,&quot;imageName&quot;:&quot;page-094.jpg&quot;,&quot;imageId&quot;:94,&quot;bounds&quot;:{&quot;x&quot;:1045,&quot;y&quot;:2618,&quot;w&quot;:97,&quot;h&quot;:55},&quot;atoms&quot;:[{&quot;id&quot;:4347,&quot;token&quot;:&quot;e:1&quot;,&quot;particle_id&quot;:&quot;img94-m51-p1&quot;,&quot;molecule_id&quot;:&quot;img94-m51&quot;,&quot;atom_order&quot;:1},{&quot;id&quot;:4349,&quot;token&quot;:&quot;g:1&quot;,&quot;particle_id&quot;:&quot;img94-m51-p1&quot;,&quot;molecule_id&quot;:&quot;img94-m51&quot;,&quot;atom_order&quot;:2},{&quot;id&quot;:4348,&quot;token&quot;:&quot;e:1&quot;,&quot;particle_id&quot;:&quot;img94-m51-p1&quot;,&quot;molecule_id&quot;:&quot;img94-m51&quot;,&quot;atom_order&quot;:3}]}</metadata>
  <rect x="0" y="0" width="97" height="55" fill="#f8f0d8"/>
  <image href="file:///C:/Users/HHHES/AppData/Roaming/com.voynichlab.datasetcreator/images/1/33b1988f-7aaa-4207-bfa8-f26b742ac4b1.jpg" x="-1045" y="-2618" width="2932" height="3769" opacity="0.92"/>
  <rect x="0.5" y="0.5" width="96" height="54" fill="none" stroke="#111827" stroke-width="1" opacity="0.35"/>
  <polyline points="31,36 31,37 30,37 30,38 29,38 28,38 28,39 27,39 26,39 25,39 24,39 23,39 22,39 21,39 21,38 20,38 19,38 18,38 18,37 17,37 16,37 16,36 16,35 16,34 16,33 16,32 16,31 16,30 17,30 17,29 17,28 17,27 18,27 18,26 18,25 19,25 19,24 19,23 20,23 21,23 21,22 22,22 22,21 23,21 24,21 24,20 25,20 26,20 27,20 27,19" fill="none" stroke="#f2e45c" stroke-width="3" stroke-linecap="round" stroke-linejoin="round" opacity="0.95">
    <title>4347 e:1</title>
  </polyline>
  <polyline points="26,20 27,20 28,20 29,20 30,20 31,20 33,20 35,20 36,20 38,20 40,19 42,19 43,19 44,19 46,19 48,19 50,19 51,18 52,18 53,18 55,18 56,18 58,18 59,18 61,18 62,18 63,18 65,18 66,18 68,18 69,18 70,18 71,18 72,18 73,18 74,18 75,18" fill="none" stroke="#7c3cff" stroke-width="3" stroke-linecap="round" stroke-linejoin="round" opacity="0.95">
    <title>4349 g:1</title>
  </polyline>
  <polyline points="81,33 81,34 80,34 80,35 79,35 78,35 78,36 77,36 76,36 75,36 74,36 73,36 72,36 71,36 71,35 70,35 69,35 68,35 68,34 67,34 66,34 66,33 66,32 66,31 66,30 66,29 66,28 66,27 67,27 67,26 67,25 67,24 68,24 68,23 68,22 69,22 69,21 69,20 70,20 71,20 71,19 72,19 72,18 73,18 74,18 74,17 75,17 76,17 77,17 77,16" fill="none" stroke="#f2e45c" stroke-width="3" stroke-linecap="round" stroke-linejoin="round" opacity="0.95">
    <title>4348 e:1</title>
  </polyline>
</svg>
