<?xml version="1.0" encoding="UTF-8"?>
<svg xmlns="http://www.w3.org/2000/svg" width="58" height="76" viewBox="0 0 58 76">
  <title>particle img94-m8-p4 e:1 c:1 h:2</title>
  <metadata>{&quot;entityType&quot;:&quot;particle&quot;,&quot;entityId&quot;:&quot;img94-m8-p4&quot;,&quot;token&quot;:&quot;e:1 c:1 h:2&quot;,&quot;signature&quot;:&quot;e:1 c:1 h:2&quot;,&quot;imageName&quot;:&quot;page-094.jpg&quot;,&quot;imageId&quot;:94,&quot;bounds&quot;:{&quot;x&quot;:1708,&quot;y&quot;:604,&quot;w&quot;:58,&quot;h&quot;:76},&quot;atoms&quot;:[{&quot;id&quot;:2719,&quot;token&quot;:&quot;e:1&quot;,&quot;particle_id&quot;:&quot;img94-m8-p4&quot;,&quot;molecule_id&quot;:&quot;img94-m8&quot;,&quot;atom_order&quot;:1},{&quot;id&quot;:2751,&quot;token&quot;:&quot;c:1&quot;,&quot;particle_id&quot;:&quot;img94-m8-p4&quot;,&quot;molecule_id&quot;:&quot;img94-m8&quot;,&quot;atom_order&quot;:2},{&quot;id&quot;:2755,&quot;token&quot;:&quot;h:2&quot;,&quot;particle_id&quot;:&quot;img94-m8-p4&quot;,&quot;molecule_id&quot;:&quot;img94-m8&quot;,&quot;atom_order&quot;:3}]}</metadata>
  <rect x="0" y="0" width="58" height="76" fill="#f8f0d8"/>
  <image href="file:///C:/Users/HHHES/AppData/Roaming/com.voynichlab.datasetcreator/images/1/33b1988f-7aaa-4207-bfa8-f26b742ac4b1.jpg" x="-1708" y="-604" width="2932" height="3769" opacity="0.92"/>
  <rect x="0.5" y="0.5" width="57" height="75" fill="none" stroke="#111827" stroke-width="1" opacity="0.35"/>
  <polyline points="31,57 31,58 30,58 30,59 29,59 28,59 28,60 27,60 26,60 25,60 24,60 23,60 22,60 21,60 21,59 20,59 19,59 18,59 18,58 17,58 16,58 16,57 16,56 16,55 16,54 16,53 16,52 16,51 17,51 17,50 17,49 17,48 18,48 18,47 18,46 19,46 19,45 19,44 20,44 21,44 21,43 22,43 22,42 23,42 24,42 24,41 25,41 26,41 27,41 27,40" fill="none" stroke="#f2e45c" stroke-width="3" stroke-linecap="round" stroke-linejoin="round" opacity="0.95">
    <title>2719 e:1</title>
  </polyline>
  <polyline points="31,33 32,34 33,34 34,34 34,33 35,33 36,33 37,33 37,32 38,32 39,32 39,31 40,31 40,30 41,30 41,29 41,28 42,27 42,26 42,25 42,24 42,23 41,23 41,22 41,21 40,21 40,20 39,20 39,19 38,18 37,18 37,17 36,17 35,17 35,16 34,16 33,16 32,16 31,16 30,16 29,16 29,17 28,17 27,17 27,18 26,18 26,19 25,20 25,21 24,21 24,22 24,23 24,24 24,25 24,26 25,26 25,27 25,28 26,28 26,29 27,30 27,31 28,31 29,32 30,32 30,33 31,33 32,33 33,33" fill="none" stroke="#8aff00" stroke-width="3" stroke-linecap="round" stroke-linejoin="round" opacity="0.95">
    <title>2751 c:1</title>
  </polyline>
  <polyline points="31,57 31,56 32,56 33,55 33,54 34,54 34,53 35,52 35,51 35,50 36,50 36,49 36,48 36,47 36,46 35,46 35,45 34,45 34,44 33,44 33,43 32,42 32,41 31,41 31,40 30,40 30,39 29,39 28,38 28,37 27,37 27,36 26,36 25,35 25,34 24,34 24,33 23,33 23,32 22,31 22,30 22,29 21,28 21,27 21,26 21,25 21,24 22,24 22,23 22,22 23,22 23,21 24,21 24,20 25,20 26,20 26,19 27,19 27,18 28,18 29,17" fill="none" stroke="#ff8c00" stroke-width="3" stroke-linecap="round" stroke-linejoin="round" opacity="0.95">
    <title>2755 h:2</title>
  </polyline>
</svg>
