<?xml version="1.0" encoding="UTF-8"?>
<svg xmlns="http://www.w3.org/2000/svg" width="93" height="53" viewBox="0 0 93 53">
  <title>particle img94-m49-p1 e:1 g:1 e:1</title>
  <metadata>{&quot;entityType&quot;:&quot;particle&quot;,&quot;entityId&quot;:&quot;img94-m49-p1&quot;,&quot;token&quot;:&quot;e:1 g:1 e:1&quot;,&quot;signature&quot;:&quot;e:1 g:1 e:1&quot;,&quot;imageName&quot;:&quot;page-094.jpg&quot;,&quot;imageId&quot;:94,&quot;bounds&quot;:{&quot;x&quot;:1439,&quot;y&quot;:2595,&quot;w&quot;:93,&quot;h&quot;:53},&quot;atoms&quot;:[{&quot;id&quot;:4365,&quot;token&quot;:&quot;e:1&quot;,&quot;particle_id&quot;:&quot;img94-m49-p1&quot;,&quot;molecule_id&quot;:&quot;img94-m49&quot;,&quot;atom_order&quot;:1},{&quot;id&quot;:4370,&quot;token&quot;:&quot;g:1&quot;,&quot;particle_id&quot;:&quot;img94-m49-p1&quot;,&quot;molecule_id&quot;:&quot;img94-m49&quot;,&quot;atom_order&quot;:2},{&quot;id&quot;:4366,&quot;token&quot;:&quot;e:1&quot;,&quot;particle_id&quot;:&quot;img94-m49-p1&quot;,&quot;molecule_id&quot;:&quot;img94-m49&quot;,&quot;atom_order&quot;:3}]}</metadata>
  <rect x="0" y="0" width="93" height="53" fill="#f8f0d8"/>
  <image href="file:///C:/Users/HHHES/AppData/Roaming/com.voynichlab.datasetcreator/images/1/33b1988f-7aaa-4207-bfa8-f26b742ac4b1.jpg" x="-1439" y="-2595" width="2932" height="3769" opacity="0.92"/>
  <rect x="0.5" y="0.5" width="92" height="52" fill="none" stroke="#111827" stroke-width="1" opacity="0.35"/>
  <polyline points="31,33 31,34 30,34 30,35 29,35 28,35 28,36 27,36 26,36 25,36 24,36 23,36 22,36 21,36 21,35 20,35 19,35 18,35 18,34 17,34 16,34 16,33 16,32 16,31 16,30 16,29 16,28 16,27 17,27 17,26 17,25 17,24 18,24 18,23 18,22 19,22 19,21 19,20 20,20 21,20 21,19 22,19 22,18 23,18 24,18 24,17 25,17 26,17 27,17 27,16" fill="none" stroke="#f2e45c" stroke-width="3" stroke-linecap="round" stroke-linejoin="round" opacity="0.95">
    <title>4365 e:1</title>
  </polyline>
  <polyline points="25,17 26,17 27,17 28,17 29,17 30,17 32,17 34,17 37,17 40,17 42,17 43,17 44,17 45,16 47,16 49,16 50,16 51,16 52,16 54,16 55,16 56,16 57,16 58,16 59,16 60,16 61,16 62,16 64,16 66,17 67,17 68,17 69,17 70,17 71,17 72,17 73,17 74,17 73,18" fill="none" stroke="#7c3cff" stroke-width="3" stroke-linecap="round" stroke-linejoin="round" opacity="0.95">
    <title>4370 g:1</title>
  </polyline>
  <polyline points="77,34 77,35 76,35 76,36 75,36 74,36 74,37 73,37 72,37 71,37 70,37 69,37 68,37 67,37 67,36 66,36 65,36 64,36 64,35 63,35 62,35 62,34 62,33 62,32 62,31 62,30 62,29 62,28 63,28 63,27 63,26 63,25 64,25 64,24 64,23 65,23 65,22 65,21 66,21 67,21 67,20 68,20 68,19 69,19 70,19 70,18 71,18 72,18 73,18 73,17" fill="none" stroke="#f2e45c" stroke-width="3" stroke-linecap="round" stroke-linejoin="round" opacity="0.95">
    <title>4366 e:1</title>
  </polyline>
</svg>
