<?xml version="1.0" encoding="UTF-8"?>
<svg xmlns="http://www.w3.org/2000/svg" width="59" height="77" viewBox="0 0 59 77">
  <title>particle img94-m35-p5 e:1 c:1 h:2</title>
  <metadata>{&quot;entityType&quot;:&quot;particle&quot;,&quot;entityId&quot;:&quot;img94-m35-p5&quot;,&quot;token&quot;:&quot;e:1 c:1 h:2&quot;,&quot;signature&quot;:&quot;e:1 c:1 h:2&quot;,&quot;imageName&quot;:&quot;page-094.jpg&quot;,&quot;imageId&quot;:94,&quot;bounds&quot;:{&quot;x&quot;:1901,&quot;y&quot;:938,&quot;w&quot;:59,&quot;h&quot;:77},&quot;atoms&quot;:[{&quot;id&quot;:3019,&quot;token&quot;:&quot;e:1&quot;,&quot;particle_id&quot;:&quot;img94-m35-p5&quot;,&quot;molecule_id&quot;:&quot;img94-m35&quot;,&quot;atom_order&quot;:1},{&quot;id&quot;:3008,&quot;token&quot;:&quot;c:1&quot;,&quot;particle_id&quot;:&quot;img94-m35-p5&quot;,&quot;molecule_id&quot;:&quot;img94-m35&quot;,&quot;atom_order&quot;:2},{&quot;id&quot;:3013,&quot;token&quot;:&quot;h:2&quot;,&quot;particle_id&quot;:&quot;img94-m35-p5&quot;,&quot;molecule_id&quot;:&quot;img94-m35&quot;,&quot;atom_order&quot;:3}]}</metadata>
  <rect x="0" y="0" width="59" height="77" fill="#f8f0d8"/>
  <image href="file:///C:/Users/HHHES/AppData/Roaming/com.voynichlab.datasetcreator/images/1/33b1988f-7aaa-4207-bfa8-f26b742ac4b1.jpg" x="-1901" y="-938" width="2932" height="3769" opacity="0.92"/>
  <rect x="0.5" y="0.5" width="58" height="76" fill="none" stroke="#111827" stroke-width="1" opacity="0.35"/>
  <polyline points="31,58 31,59 30,59 30,60 29,60 28,60 28,61 27,61 26,61 25,61 24,61 23,61 22,61 21,61 21,60 20,60 19,60 18,60 18,59 17,59 16,59 16,58 16,57 16,56 16,55 16,54 16,53 16,52 17,52 17,51 17,50 17,49 18,49 18,48 18,47 19,47 19,46 19,45 20,45 21,45 21,44 22,44 22,43 23,43 24,43 24,42 25,42 26,42 27,42 27,41" fill="none" stroke="#f2e45c" stroke-width="3" stroke-linecap="round" stroke-linejoin="round" opacity="0.95">
    <title>3019 e:1</title>
  </polyline>
  <polyline points="25,22 25,23 24,23 24,24 24,25 23,25 23,26 23,27 23,28 23,29 23,30 23,31 23,32 24,32 24,33 25,33 25,34 26,35 27,35 28,35 29,35 29,36 30,36 31,36 32,36 33,36 34,36 35,36 36,36 37,36 37,35 38,35 39,35 39,34 39,33 40,33 40,32 41,32 41,31 41,30 42,30 42,29 42,28 43,28 43,27 43,26 43,25 43,24 43,23 43,22 42,22 42,21 42,20 41,20 41,19 40,19 40,18 39,18 39,17 38,17 37,17 37,16 36,16 35,16 34,16 33,16 32,16 31,16 30,16 29,17 28,17 28,18 27,18 27,19 26,19 25,19 25,20 24,20 24,21 24,22" fill="none" stroke="#8aff00" stroke-width="3" stroke-linecap="round" stroke-linejoin="round" opacity="0.95">
    <title>3008 c:1</title>
  </polyline>
  <polyline points="23,61 24,61 25,61 26,61 27,61 28,60 29,60 30,60 30,59 31,59 31,58 32,58 32,57 33,56 33,55 33,54 33,53 33,52 33,51 33,50 32,50 32,49 32,48 32,47 31,46 31,45 31,44 30,44 30,43 29,42 29,41 28,41 28,40 27,40 27,39 26,39 26,38 25,38 25,37 25,36 24,36 24,35 23,35 23,34 22,34 22,33 22,32 21,32 21,31 21,30 21,29 20,29 20,28 20,27 20,26 21,25 21,24 21,23 21,22 22,22 22,21 23,21 24,20 24,19 25,19 26,19 27,18 28,18 29,18 29,17 30,17" fill="none" stroke="#ff8c00" stroke-width="3" stroke-linecap="round" stroke-linejoin="round" opacity="0.95">
    <title>3013 h:2</title>
  </polyline>
</svg>
