<?xml version="1.0" encoding="UTF-8"?>
<svg xmlns="http://www.w3.org/2000/svg" width="66" height="77" viewBox="0 0 66 77">
  <title>particle img94-m64-p1 e:1 c:2 h:2</title>
  <metadata>{&quot;entityType&quot;:&quot;particle&quot;,&quot;entityId&quot;:&quot;img94-m64-p1&quot;,&quot;token&quot;:&quot;e:1 c:2 h:2&quot;,&quot;signature&quot;:&quot;e:1 c:2 h:2&quot;,&quot;imageName&quot;:&quot;page-094.jpg&quot;,&quot;imageId&quot;:94,&quot;bounds&quot;:{&quot;x&quot;:2217,&quot;y&quot;:2783,&quot;w&quot;:66,&quot;h&quot;:77},&quot;atoms&quot;:[{&quot;id&quot;:4442,&quot;token&quot;:&quot;e:1&quot;,&quot;particle_id&quot;:&quot;img94-m64-p1&quot;,&quot;molecule_id&quot;:&quot;img94-m64&quot;,&quot;atom_order&quot;:1},{&quot;id&quot;:4525,&quot;token&quot;:&quot;c:2&quot;,&quot;particle_id&quot;:&quot;img94-m64-p1&quot;,&quot;molecule_id&quot;:&quot;img94-m64&quot;,&quot;atom_order&quot;:2},{&quot;id&quot;:4609,&quot;token&quot;:&quot;h:2&quot;,&quot;particle_id&quot;:&quot;img94-m64-p1&quot;,&quot;molecule_id&quot;:&quot;img94-m64&quot;,&quot;atom_order&quot;:3}]}</metadata>
  <rect x="0" y="0" width="66" height="77" fill="#f8f0d8"/>
  <image href="file:///C:/Users/HHHES/AppData/Roaming/com.voynichlab.datasetcreator/images/1/33b1988f-7aaa-4207-bfa8-f26b742ac4b1.jpg" x="-2217" y="-2783" width="2932" height="3769" opacity="0.92"/>
  <rect x="0.5" y="0.5" width="65" height="76" fill="none" stroke="#111827" stroke-width="1" opacity="0.35"/>
  <polyline points="31,58 31,59 30,59 30,60 29,60 28,60 28,61 27,61 26,61 25,61 24,61 23,61 22,61 21,61 21,60 20,60 19,60 18,60 18,59 17,59 16,59 16,58 16,57 16,56 16,55 16,54 16,53 16,52 17,52 17,51 17,50 17,49 18,49 18,48 18,47 19,47 19,46 19,45 20,45 21,45 21,44 22,44 22,43 23,43 24,43 24,42 25,42 26,42 27,42 27,41" fill="none" stroke="#f2e45c" stroke-width="3" stroke-linecap="round" stroke-linejoin="round" opacity="0.95">
    <title>4442 e:1</title>
  </polyline>
  <polyline points="40,26 39,26 38,26 39,25 40,25 40,26 40,27 39,28 38,28 38,27 38,26 39,26 40,25 40,26 40,27 39,27 38,27 37,27 36,27 36,26 37,25 38,25 39,24 39,25 39,26 38,26 38,27 37,27 36,27 35,27 35,26 35,25 36,25 37,24 38,24 39,24 40,24 41,24 41,25 41,26 40,27 39,27 38,27 37,27 36,27 36,26 36,25 37,25 38,24 40,23 40,24 40,25 40,26 39,27 38,28 37,28 36,28 35,28 35,27 35,25 37,24 38,24 39,24 40,24 40,25 40,27 40,28 39,28 39,29 38,29 37,29 36,29 35,28 34,27 34,26 34,24 35,23 36,22 37,22 38,22 39,22 39,23 40,24 40,25 40,26 40,28 40,30 40,31 39,32 38,32 37,32 37,31 36,31 36,30 35,29 34,27 34,26 34,25 34,24 35,23 36,23 37,22 38,22 39,22 40,22 40,23 41,23 41,24 41,25 42,26 42,27 42,28 42,29 41,30 40,30 39,30 38,30 37,30 36,30 35,29 34,29 33,28 32,27 32,26 32,25 32,24 32,23 34,22 34,21 35,21 37,21 38,21 39,21 41,22 42,22 43,23 43,24 43,25 43,26 43,27 43,28 42,29 42,30 41,30 41,31 39,31 38,31 36,31 35,30 33,30 33,29 32,27 32,26 32,25 33,24 35,23 37,22 40,22 42,23 44,23 44,24 45,25 45,26 45,28 45,29 44,31 42,32 41,32 39,32 37,32 35,31 33,30 33,29 32,27 32,26 33,25 34,23 36,22 38,21 41,21 43,21 44,21 45,21 46,22 46,23 47,25 47,27 47,29 47,30 47,31 46,31 46,32 45,32 44,32 42,32 40,32 39,32 38,32 37,31 36,31 35,31 35,30 34,30 34,29 33,29 33,28 33,27 32,26 32,25 32,24 33,23 33,22 34,22 34,21 35,21 36,21 36,20 37,20 38,20 39,20 40,20 41,20 42,20 43,20 44,20 45,20 46,20 47,20 47,21 48,21 48,22 49,22 49,23 49,24 49,25 50,25 50,26 50,27 50,28 49,29 49,30 49,31 48,32 47,32 47,33 46,33 46,34 45,34 44,34 43,34 43,35 42,35 41,35 40,35 39,35 38,35 37,35 36,35 35,35 34,34 33,34 32,34 32,33 31,33 31,32 30,32 30,31 29,30 29,29 28,28 28,27 27,27 27,26 27,25 27,24 27,23 27,22 27,21 28,21 28,20 28,19 29,19 29,18 30,18 31,18 31,17 32,17 32,16 33,16 34,16 35,16 36,16 37,16 38,16 39,16 40,16 41,16 42,16 43,16 44,16 45,16 45,17 46,17 47,18 47,19 47,20 48,20 48,21 48,22 49,22 49,23 49,24 49,25 49,26 49,27 49,28 49,29 49,30 49,31 48,31 47,31 47,32 46,32 45,32 45,33 44,33 43,33 42,34 41,34 40,34 39,34 38,34 37,34 36,34 35,34 35,33 34,33 33,33 33,32 32,32 32,31 31,31 31,30 30,30 30,29 29,29 29,28 29,27 29,26 29,25 29,24 29,23 29,22 30,21 31,20 32,19 33,18 34,18 35,18 35,17 36,17 37,17 38,17 39,17 39,18 41,18 42,18 43,18 44,19 45,19 46,19 46,20 46,21 46,22 46,23 46,24 46,25 46,26 47,27 47,28 47,29 46,29 46,30 46,31 46,32 45,32 44,32 43,32 43,33 42,33 41,33 40,33 39,33 38,33 37,33 36,33 35,33 35,32 34,32 33,31 32,31 32,30 31,30 31,29 31,28 31,27 31,26 31,25 31,24 30,24 30,23 31,23 31,22 32,22 32,21 33,21 33,20 34,20 35,20 35,19 36,19 36,18 37,18 38,18 39,18 40,19 41,19 42,19 43,19 43,20 44,20 44,21 45,21 45,22 45,23 45,24 45,25 45,26 45,27 44,27 44,28 44,29 43,29 43,30 42,30 42,31 43,31 44,31 44,30 45,30 46,29 47,28 48,27 48,26 48,25 48,24 47,23 47,22 46,22 46,21 46,20 46,19 45,19 45,18 45,17 44,17 44,16 43,16 42,16 41,16 40,16 40,17 39,17 38,17 37,17 36,17 35,17 34,17 33,17 32,17 31,17 31,18 30,18 30,19 30,20 29,20 29,21 29,22 28,22 28,23 28,24 29,24 29,25 29,26 29,27 30,27 30,28 31,28 31,29 32,29 32,30 32,29 32,28 31,27 30,27 30,26 29,25 29,24 28,24 29,24 29,25 29,26 28,26 28,25 29,25 29,24 30,24 31,24 31,23 31,22 32,21 32,20 32,19 32,18 33,18 34,18 34,17 33,17 32,17 32,18 31,19 31,20 31,21 31,22 32,23 33,23 33,24 34,24 35,23 35,22 35,21 36,21 36,20 36,19 35,19 34,19 33,19 33,20 32,20 32,21 32,22 32,23 33,23 34,23 35,23 37,22 38,22 39,21 39,20 39,19 39,18 38,18 38,19 37,19 36,20 36,21 36,22 37,22 38,22 38,21 39,20 39,19 39,18 38,18 37,18 38,18 38,19 39,19 40,19 41,19 42,18 43,18 43,17 42,17 41,17 42,17 42,18 42,19 42,20 43,20 43,21 43,22 44,23 44,24 44,25 43,26 42,26 41,26 40,26 39,26 39,25 40,25 41,24 42,23 43,23 43,24 43,25 43,26 43,27 42,27 42,28 41,28 40,28 39,28 39,27 39,26 40,26 41,25 42,24 43,24 44,23 45,23 45,24 45,25 45,26 44,26 44,27 44,28 43,28 43,29 44,29 45,28 46,28 47,28 47,27 47,28 47,29 46,29 46,30 46,31 45,31 46,31 47,31 47,30 48,29 48,28 48,27 48,26 49,26 49,25 49,24 49,23 48,22 48,21 48,20 48,19 47,19 46,19 46,18 45,18 44,18 43,18 42,18 41,18 40,18 39,18 39,19 39,20" fill="none" stroke="#8aff00" stroke-width="3" stroke-linecap="round" stroke-linejoin="round" opacity="0.95">
    <title>4525 c:2</title>
  </polyline>
  <polyline points="28,60 29,60 30,60 31,60 32,60 33,60 33,59 34,59 35,59 36,59 36,58 37,58 37,57 38,57 38,56 38,55 39,55 39,54 39,53 39,52 39,51 39,50 38,49 38,48 38,47 37,46 36,46 36,45 35,44 34,44 34,43 33,42 32,42 32,41 31,41 31,40 30,40 30,39 29,39 29,38 28,37 28,36 27,36 27,35 27,34 26,34 26,33 26,32 26,31 26,30 26,29 26,28 26,27 26,26 27,26 27,25 27,24 28,24 28,23 29,22 30,21 31,21 32,20 33,20 34,20 36,19 37,19 39,18 40,18 41,18 42,18 42,17" fill="none" stroke="#ff8c00" stroke-width="3" stroke-linecap="round" stroke-linejoin="round" opacity="0.95">
    <title>4609 h:2</title>
  </polyline>
</svg>
