<?xml version="1.0" encoding="UTF-8"?>
<svg xmlns="http://www.w3.org/2000/svg" width="111" height="108" viewBox="0 0 111 108">
  <title>particle img94-m53-p1 a:1 m:1 c:1</title>
  <metadata>{&quot;entityType&quot;:&quot;particle&quot;,&quot;entityId&quot;:&quot;img94-m53-p1&quot;,&quot;token&quot;:&quot;a:1 m:1 c:1&quot;,&quot;signature&quot;:&quot;a:1 m:1 c:1&quot;,&quot;imageName&quot;:&quot;page-094.jpg&quot;,&quot;imageId&quot;:94,&quot;bounds&quot;:{&quot;x&quot;:728,&quot;y&quot;:2630,&quot;w&quot;:111,&quot;h&quot;:108},&quot;atoms&quot;:[{&quot;id&quot;:4338,&quot;token&quot;:&quot;a:1&quot;,&quot;particle_id&quot;:&quot;img94-m53-p1&quot;,&quot;molecule_id&quot;:&quot;img94-m53&quot;,&quot;atom_order&quot;:1},{&quot;id&quot;:4339,&quot;token&quot;:&quot;m:1&quot;,&quot;particle_id&quot;:&quot;img94-m53-p1&quot;,&quot;molecule_id&quot;:&quot;img94-m53&quot;,&quot;atom_order&quot;:2},{&quot;id&quot;:4337,&quot;token&quot;:&quot;c:1&quot;,&quot;particle_id&quot;:&quot;img94-m53-p1&quot;,&quot;molecule_id&quot;:&quot;img94-m53&quot;,&quot;atom_order&quot;:3}]}</metadata>
  <rect x="0" y="0" width="111" height="108" fill="#f8f0d8"/>
  <image href="file:///C:/Users/HHHES/AppData/Roaming/com.voynichlab.datasetcreator/images/1/33b1988f-7aaa-4207-bfa8-f26b742ac4b1.jpg" x="-728" y="-2630" width="2932" height="3769" opacity="0.92"/>
  <rect x="0.5" y="0.5" width="110" height="107" fill="none" stroke="#111827" stroke-width="1" opacity="0.35"/>
  <polyline points="44,92 44,91 44,90 44,89 43,88 43,86 43,85 43,84 43,83 43,82 43,81 43,80 43,79 43,78 43,77 43,76 43,75 43,74 43,73 43,72 43,71 43,70 43,69 43,68 43,67 43,66 43,65 44,65 44,64 44,63 44,62 44,61 44,60 44,59" fill="none" stroke="#00f0b5" stroke-width="3" stroke-linecap="round" stroke-linejoin="round" opacity="0.95">
    <title>4338 a:1</title>
  </polyline>
  <polyline points="45,60 45,59 45,58 45,57 45,56 45,55 45,54 45,53 45,52 45,51 45,50 45,49 45,48 45,47 45,46 45,45 45,44 45,43 45,42 45,41 45,40 45,39 45,38 45,37 45,36 45,34 45,33 45,32 45,31 45,30 45,29 45,28 45,27 45,26 45,25 45,24 45,23 45,22 45,21 45,20 45,19 45,18 45,17 45,16 44,16 43,16 43,17 42,17 41,18 40,19 39,19 39,20 38,20 38,21 37,21 36,22 35,23 35,24 34,24 33,24 33,25 32,25 31,26 31,27 30,27 29,27 29,28 28,28 28,29 27,29 27,30 26,30 26,31 25,31 24,32 23,32 23,33 22,33 22,34 21,34 20,35 19,36 18,37 17,37 17,38 16,38 17,38 18,38 19,38 20,38 21,38 22,38 23,38 24,38 25,38 26,38 27,38 28,38 30,38 31,38 33,38 34,38 35,38 36,38 37,38 38,38 40,38 41,38 42,38 43,38 43,37 44,37 45,37 46,37 47,37 49,37 50,36 51,36 52,36 53,36 54,35 55,35 56,35 57,35 58,34 59,34 60,34 61,34 63,33 64,33 65,33 67,33 68,33 69,33 70,32 71,32 72,32 74,31 75,31 76,31 77,31 78,31 79,31 80,31 81,31 82,31 83,31" fill="none" stroke="#ff00ff" stroke-width="3" stroke-linecap="round" stroke-linejoin="round" opacity="0.95">
    <title>4339 m:1</title>
  </polyline>
  <polyline points="71,34 72,34 72,33 73,33 74,32 75,32 76,32 77,32 77,31 78,31 80,31 81,31 82,31 83,31 84,31 85,31 85,32 86,32 87,32 88,33 89,33 90,33 90,34 91,34 91,35 92,35 93,35 93,36 94,36 94,37 94,38 94,39 94,40 95,41 95,42 95,43 95,44 95,45 95,46 94,46 94,47 93,48 92,49 91,49 90,50 89,50 88,51 87,51 86,51 85,51 84,51 83,51 82,51 81,51 80,51 79,50 78,50 77,49 76,49 75,49 74,48 73,47 72,46 72,45 72,44 72,43 71,42 71,41 71,40 71,39 71,38 71,37 71,36 72,35 72,34 73,34 74,33 74,32" fill="none" stroke="#8aff00" stroke-width="3" stroke-linecap="round" stroke-linejoin="round" opacity="0.95">
    <title>4337 c:1</title>
  </polyline>
</svg>
