<?xml version="1.0" encoding="UTF-8"?>
<svg xmlns="http://www.w3.org/2000/svg" width="114" height="107" viewBox="0 0 114 107">
  <title>particle img94-m10-p2 a:1 m:1 c:1 a:1</title>
  <metadata>{&quot;entityType&quot;:&quot;particle&quot;,&quot;entityId&quot;:&quot;img94-m10-p2&quot;,&quot;token&quot;:&quot;a:1 m:1 c:1 a:1&quot;,&quot;signature&quot;:&quot;a:1 m:1 c:1 a:1&quot;,&quot;imageName&quot;:&quot;page-094.jpg&quot;,&quot;imageId&quot;:94,&quot;bounds&quot;:{&quot;x&quot;:1348,&quot;y&quot;:576,&quot;w&quot;:114,&quot;h&quot;:107},&quot;atoms&quot;:[{&quot;id&quot;:2747,&quot;token&quot;:&quot;a:1&quot;,&quot;particle_id&quot;:&quot;img94-m10-p2&quot;,&quot;molecule_id&quot;:&quot;img94-m10&quot;,&quot;atom_order&quot;:1},{&quot;id&quot;:3057,&quot;token&quot;:&quot;m:1&quot;,&quot;particle_id&quot;:&quot;img94-m10-p2&quot;,&quot;molecule_id&quot;:&quot;img94-m10&quot;,&quot;atom_order&quot;:2},{&quot;id&quot;:2746,&quot;token&quot;:&quot;c:1&quot;,&quot;particle_id&quot;:&quot;img94-m10-p2&quot;,&quot;molecule_id&quot;:&quot;img94-m10&quot;,&quot;atom_order&quot;:3},{&quot;id&quot;:2748,&quot;token&quot;:&quot;a:1&quot;,&quot;particle_id&quot;:&quot;img94-m10-p2&quot;,&quot;molecule_id&quot;:&quot;img94-m10&quot;,&quot;atom_order&quot;:4}]}</metadata>
  <rect x="0" y="0" width="114" height="107" fill="#f8f0d8"/>
  <image href="file:///C:/Users/HHHES/AppData/Roaming/com.voynichlab.datasetcreator/images/1/33b1988f-7aaa-4207-bfa8-f26b742ac4b1.jpg" x="-1348" y="-576" width="2932" height="3769" opacity="0.92"/>
  <rect x="0.5" y="0.5" width="113" height="106" fill="none" stroke="#111827" stroke-width="1" opacity="0.35"/>
  <polyline points="41,91 41,90 41,89 41,88 41,87 41,86 41,85 41,84 41,83 41,82 41,81 41,80 41,79 42,78 42,77 42,76 42,75 42,74 42,73 42,72 42,71 42,70 42,69 42,68 42,67 42,66 42,65 42,64 41,64 41,63 41,62 41,61 41,60 41,59 41,58 41,57 41,56 41,55 41,54 42,54 42,53 42,52 41,52 41,51 41,50 41,49 41,48 41,47" fill="none" stroke="#00f0b5" stroke-width="3" stroke-linecap="round" stroke-linejoin="round" opacity="0.95">
    <title>2747 a:1</title>
  </polyline>
  <polyline points="41,47 41,46 41,45 41,44 41,43 41,42 41,41 41,40 41,39 41,38 41,37 41,36 42,36 42,35 42,34 42,33 42,32 42,31 42,30 42,29 42,28 42,27 42,26 42,25 42,24 42,23 42,22 43,22 43,21 43,20 43,19 43,18 43,17 43,18 42,18 41,18 41,19 40,19 39,19 39,20 38,20 37,20 37,21 36,21 35,21 35,22 34,22 33,22 33,23 32,23 31,24 30,24 30,25 29,25 28,25 28,26 27,26 27,27 26,27 26,28 25,28 24,28 24,29 23,29 23,30 22,30 22,31 21,31 21,32 20,32 20,33 19,33 19,34 18,34 18,35 17,36 17,37 16,37 16,38 17,38 18,38 19,38 20,38 21,38 22,39 23,39 24,39 25,39 26,39 27,39 28,38 29,38 30,38 31,38 32,38 33,38 34,38 35,38 36,38 37,38 37,37 38,37 39,37 40,37 41,37 42,37 43,37 44,37 45,37 46,37 47,37 48,37 49,37 50,37 51,37 52,37 53,37 53,36 54,36 55,36 56,36 57,36 58,36 59,36 60,36 61,36 62,36 63,36 64,36" fill="none" stroke="#ff00ff" stroke-width="3" stroke-linecap="round" stroke-linejoin="round" opacity="0.95">
    <title>3057 m:1</title>
  </polyline>
  <polyline points="60,37 61,37 62,37 63,37 64,37 65,37 66,37 67,37 68,37 69,37 70,37 71,37 72,37 73,37 74,37 76,37 77,37 78,37 79,37 80,37 81,37 82,37 83,37 84,36 85,36 86,36 87,36 87,35 88,35 89,35 90,35 91,35 91,34 92,34 93,34 93,33 94,33 94,32 95,32 95,31 96,31 96,30 97,30 97,29 97,28 97,27 97,26 97,25 98,25 98,24 98,23 98,22 97,22 97,21 97,20 96,20 96,19 95,19 94,19 94,18 93,18 92,18 92,17 91,17 90,17 89,17 88,17 88,16 87,16 86,16 85,16 84,16 83,16 82,16 81,16 80,16 79,16 78,16 78,17 77,17 76,17 75,17 75,18 74,18 73,18 72,18 71,18 71,19 70,19 69,19 68,20 67,20 67,21 66,21 66,22 65,22 65,23 64,23 64,24 64,25 63,25 63,26 63,27 63,28 62,28 62,29 62,30 62,31 62,32 62,33 62,34 62,35 62,36 62,37" fill="none" stroke="#8aff00" stroke-width="3" stroke-linecap="round" stroke-linejoin="round" opacity="0.95">
    <title>2746 c:1</title>
  </polyline>
  <polyline points="62,34 62,35 62,36 62,37 62,38 62,39 62,40 62,41 62,42 62,43 62,44 62,45 62,46 62,47 62,48 62,49 62,50 62,51 62,52 62,53 62,54 62,55 62,56 62,57 61,58 61,59 61,60 61,61 61,62 61,63 61,64 61,65 61,66 61,67 60,68 60,69 60,70 60,71 60,72 60,73 60,74 60,75 60,76 60,77 60,78 60,79 60,80 60,81 60,82 60,83 60,84 60,85 60,86 60,87" fill="none" stroke="#00f0b5" stroke-width="3" stroke-linecap="round" stroke-linejoin="round" opacity="0.95">
    <title>2748 a:1</title>
  </polyline>
</svg>
