<?xml version="1.0" encoding="UTF-8"?>
<svg xmlns="http://www.w3.org/2000/svg" width="56" height="70" viewBox="0 0 56 70">
  <title>particle img94-m27-p5 e:1 h:1</title>
  <metadata>{&quot;entityType&quot;:&quot;particle&quot;,&quot;entityId&quot;:&quot;img94-m27-p5&quot;,&quot;token&quot;:&quot;e:1 h:1&quot;,&quot;signature&quot;:&quot;e:1 h:1&quot;,&quot;imageName&quot;:&quot;page-094.jpg&quot;,&quot;imageId&quot;:94,&quot;bounds&quot;:{&quot;x&quot;:1197,&quot;y&quot;:813,&quot;w&quot;:56,&quot;h&quot;:70},&quot;atoms&quot;:[{&quot;id&quot;:2875,&quot;token&quot;:&quot;e:1&quot;,&quot;particle_id&quot;:&quot;img94-m27-p5&quot;,&quot;molecule_id&quot;:&quot;img94-m27&quot;,&quot;atom_order&quot;:1},{&quot;id&quot;:2889,&quot;token&quot;:&quot;h:1&quot;,&quot;particle_id&quot;:&quot;img94-m27-p5&quot;,&quot;molecule_id&quot;:&quot;img94-m27&quot;,&quot;atom_order&quot;:2}]}</metadata>
  <rect x="0" y="0" width="56" height="70" fill="#f8f0d8"/>
  <image href="file:///C:/Users/HHHES/AppData/Roaming/com.voynichlab.datasetcreator/images/1/33b1988f-7aaa-4207-bfa8-f26b742ac4b1.jpg" x="-1197" y="-813" width="2932" height="3769" opacity="0.92"/>
  <rect x="0.5" y="0.5" width="55" height="69" fill="none" stroke="#111827" stroke-width="1" opacity="0.35"/>
  <polyline points="31,33 31,34 30,34 30,35 29,35 28,35 28,36 27,36 26,36 25,36 24,36 23,36 22,36 21,36 21,35 20,35 19,35 18,35 18,34 17,34 16,34 16,33 16,32 16,31 16,30 16,29 16,28 16,27 17,27 17,26 17,25 17,24 18,24 18,23 18,22 19,22 19,21 19,20 20,20 21,20 21,19 22,19 22,18 23,18 24,18 24,17 25,17 26,17 27,17 27,16" fill="none" stroke="#f2e45c" stroke-width="3" stroke-linecap="round" stroke-linejoin="round" opacity="0.95">
    <title>2875 e:1</title>
  </polyline>
  <polyline points="27,16 27,17 28,17 29,17 29,18 30,18 30,19 31,19 31,20 32,20 32,21 33,21 34,22 35,22 35,23 36,24 36,25 37,25 37,26 38,27 38,28 39,28 39,29 39,30 39,31 40,32 40,33 40,34 40,35 40,36 40,37 40,38 40,39 40,40 40,41 40,42 40,43 40,44 40,45 40,46 39,46 39,47 39,48 39,49 38,49 38,50 38,51 37,51 37,52 37,53 36,53 36,54" fill="none" stroke="#ff8c00" stroke-width="3" stroke-linecap="round" stroke-linejoin="round" opacity="0.95">
    <title>2889 h:1</title>
  </polyline>
</svg>
