<?xml version="1.0" encoding="UTF-8"?>
<svg xmlns="http://www.w3.org/2000/svg" width="128" height="108" viewBox="0 0 128 108">
  <title>particle img94-m79-p3 k:1 f:1 i:1 d:1</title>
  <metadata>{&quot;entityType&quot;:&quot;particle&quot;,&quot;entityId&quot;:&quot;img94-m79-p3&quot;,&quot;token&quot;:&quot;k:1 f:1 i:1 d:1&quot;,&quot;signature&quot;:&quot;k:1 f:1 i:1 d:1&quot;,&quot;imageName&quot;:&quot;page-094.jpg&quot;,&quot;imageId&quot;:94,&quot;bounds&quot;:{&quot;x&quot;:1054,&quot;y&quot;:2928,&quot;w&quot;:128,&quot;h&quot;:108},&quot;atoms&quot;:[{&quot;id&quot;:4642,&quot;token&quot;:&quot;k:1&quot;,&quot;particle_id&quot;:&quot;img94-m79-p3&quot;,&quot;molecule_id&quot;:&quot;img94-m79&quot;,&quot;atom_order&quot;:1},{&quot;id&quot;:4569,&quot;token&quot;:&quot;f:1&quot;,&quot;particle_id&quot;:&quot;img94-m79-p3&quot;,&quot;molecule_id&quot;:&quot;img94-m79&quot;,&quot;atom_order&quot;:2},{&quot;id&quot;:4633,&quot;token&quot;:&quot;i:1&quot;,&quot;particle_id&quot;:&quot;img94-m79-p3&quot;,&quot;molecule_id&quot;:&quot;img94-m79&quot;,&quot;atom_order&quot;:3},{&quot;id&quot;:4639,&quot;token&quot;:&quot;d:1&quot;,&quot;particle_id&quot;:&quot;img94-m79-p3&quot;,&quot;molecule_id&quot;:&quot;img94-m79&quot;,&quot;atom_order&quot;:4}]}</metadata>
  <rect x="0" y="0" width="128" height="108" fill="#f8f0d8"/>
  <image href="file:///C:/Users/HHHES/AppData/Roaming/com.voynichlab.datasetcreator/images/1/33b1988f-7aaa-4207-bfa8-f26b742ac4b1.jpg" x="-1054" y="-2928" width="2932" height="3769" opacity="0.92"/>
  <rect x="0.5" y="0.5" width="127" height="107" fill="none" stroke="#111827" stroke-width="1" opacity="0.35"/>
  <polyline points="33,65 33,66 34,67 34,68 35,68 35,69 35,70 36,70 36,71 37,71 37,72 38,72 38,73 39,73 39,74 40,74 40,75 41,76 41,77 42,77 42,78 43,79 43,80 44,80 44,81 44,82 45,82 46,81 46,80 47,79 47,78 48,77 49,77 49,76 49,75 50,75 50,74 51,74 51,73 52,72 52,71 53,71 53,70 54,69 55,68 55,67 56,66 56,65 56,66 57,67 57,68 58,69 58,70 59,71 60,72 60,73 61,74 61,75 62,75 62,76 63,77 64,78 65,78 65,79 66,79 66,80 67,80 67,81 68,81 69,81 69,82 70,82 70,83 71,83 71,84 72,84 72,85 73,85 73,86 74,86 74,87 75,87 76,87 76,86 77,86 77,85 78,84 79,84 79,83 80,82 81,82 81,81 82,81 82,80 83,79 83,78 84,78 84,77 85,76 85,75 86,75 86,74 86,73 87,73 88,73 88,72 89,72 90,71" fill="none" stroke="#ffffff" stroke-width="3" stroke-linecap="round" stroke-linejoin="round" opacity="0.95">
    <title>4642 k:1</title>
  </polyline>
  <polyline points="90,71 90,72 90,73 91,73 91,74 91,75 92,75 92,76 93,77 93,78 94,78 94,79 95,80 95,81 96,81 96,82 97,82 97,83 98,83 98,84 98,85 99,85 99,86 99,87 100,87 100,88 101,88 101,89 102,90 102,91 103,91 103,92" fill="none" stroke="#00a2ff" stroke-width="3" stroke-linecap="round" stroke-linejoin="round" opacity="0.95">
    <title>4569 f:1</title>
  </polyline>
  <polyline points="102,92 102,91 104,91 105,90 106,89 107,89 107,88 108,88 108,87 109,86 109,85 110,85 110,84 110,83 110,82 110,81 110,80 111,79 111,78 111,77 112,76 112,75 112,74 112,73 112,72 112,71 112,70 112,69 112,67 112,66 112,65 112,64 112,63 112,62 112,61 112,60 112,59 112,58 112,57 112,56 112,54 112,53 111,52 110,50 110,49 109,48 108,47 106,45 106,44 104,43 103,42 102,41 100,39 98,38 98,37 97,37 96,35 94,34 92,32 90,31 88,29 87,29 85,28 84,27 83,26" fill="none" stroke="#00ff7f" stroke-width="3" stroke-linecap="round" stroke-linejoin="round" opacity="0.95">
    <title>4633 i:1</title>
  </polyline>
  <polyline points="16,19 16,18 17,18 18,18 19,18 20,17 22,17 23,17 24,17 24,16 26,16 27,16 29,16 32,16 34,16 35,16 38,16 40,17 42,17 45,18 47,18 49,18 51,19 52,19 54,19 56,20 59,20 61,21 62,21 63,22 64,22 65,22 66,22 68,23 70,23 71,24 74,24 75,25 76,25 77,25 78,26 79,26 81,26 82,27 84,27 85,28 86,28 87,28 88,29 89,29 89,30" fill="none" stroke="#ff2d55" stroke-width="3" stroke-linecap="round" stroke-linejoin="round" opacity="0.95">
    <title>4639 d:1</title>
  </polyline>
</svg>
