<?xml version="1.0" encoding="UTF-8"?>
<svg xmlns="http://www.w3.org/2000/svg" width="93" height="56" viewBox="0 0 93 56">
  <title>particle img94-m74-p2 e:1 g:1 e:1</title>
  <metadata>{&quot;entityType&quot;:&quot;particle&quot;,&quot;entityId&quot;:&quot;img94-m74-p2&quot;,&quot;token&quot;:&quot;e:1 g:1 e:1&quot;,&quot;signature&quot;:&quot;e:1 g:1 e:1&quot;,&quot;imageName&quot;:&quot;page-094.jpg&quot;,&quot;imageId&quot;:94,&quot;bounds&quot;:{&quot;x&quot;:1968,&quot;y&quot;:2897,&quot;w&quot;:93,&quot;h&quot;:56},&quot;atoms&quot;:[{&quot;id&quot;:4450,&quot;token&quot;:&quot;e:1&quot;,&quot;particle_id&quot;:&quot;img94-m74-p2&quot;,&quot;molecule_id&quot;:&quot;img94-m74&quot;,&quot;atom_order&quot;:1},{&quot;id&quot;:4479,&quot;token&quot;:&quot;g:1&quot;,&quot;particle_id&quot;:&quot;img94-m74-p2&quot;,&quot;molecule_id&quot;:&quot;img94-m74&quot;,&quot;atom_order&quot;:2},{&quot;id&quot;:4449,&quot;token&quot;:&quot;e:1&quot;,&quot;particle_id&quot;:&quot;img94-m74-p2&quot;,&quot;molecule_id&quot;:&quot;img94-m74&quot;,&quot;atom_order&quot;:3}]}</metadata>
  <rect x="0" y="0" width="93" height="56" fill="#f8f0d8"/>
  <image href="file:///C:/Users/HHHES/AppData/Roaming/com.voynichlab.datasetcreator/images/1/33b1988f-7aaa-4207-bfa8-f26b742ac4b1.jpg" x="-1968" y="-2897" width="2932" height="3769" opacity="0.92"/>
  <rect x="0.5" y="0.5" width="92" height="55" fill="none" stroke="#111827" stroke-width="1" opacity="0.35"/>
  <polyline points="31,37 31,38 30,38 30,39 29,39 28,39 28,40 27,40 26,40 25,40 24,40 23,40 22,40 21,40 21,39 20,39 19,39 18,39 18,38 17,38 16,38 16,37 16,36 16,35 16,34 16,33 16,32 16,31 17,31 17,30 17,29 17,28 18,28 18,27 18,26 19,26 19,25 19,24 20,24 21,24 21,23 22,23 22,22 23,22 24,22 24,21 25,21 26,21 27,21 27,20" fill="none" stroke="#f2e45c" stroke-width="3" stroke-linecap="round" stroke-linejoin="round" opacity="0.95">
    <title>4450 e:1</title>
  </polyline>
  <polyline points="24,21 25,21 26,21 27,21 28,21 30,21 31,21 32,21 33,21 35,21 36,21 37,21 38,21 40,21 41,21 42,21 43,21 45,21 46,21 47,20 48,20 49,20 50,20 52,20 56,19 57,19 59,19 61,19 62,19 63,19 64,19 65,19 66,19 67,18 68,18 69,18 70,18 71,18 71,17 72,17" fill="none" stroke="#7c3cff" stroke-width="3" stroke-linecap="round" stroke-linejoin="round" opacity="0.95">
    <title>4479 g:1</title>
  </polyline>
  <polyline points="77,33 77,34 76,34 76,35 75,35 74,35 74,36 73,36 72,36 71,36 70,36 69,36 68,36 67,36 67,35 66,35 65,35 64,35 64,34 63,34 62,34 62,33 62,32 62,31 62,30 62,29 62,28 62,27 63,27 63,26 63,25 63,24 64,24 64,23 64,22 65,22 65,21 65,20 66,20 67,20 67,19 68,19 68,18 69,18 70,18 70,17 71,17 72,17 73,17 73,16" fill="none" stroke="#f2e45c" stroke-width="3" stroke-linecap="round" stroke-linejoin="round" opacity="0.95">
    <title>4449 e:1</title>
  </polyline>
</svg>
