<?xml version="1.0" encoding="UTF-8"?>
<svg xmlns="http://www.w3.org/2000/svg" width="95" height="55" viewBox="0 0 95 55">
  <title>particle img94-m65-p1 e:1 g:1 e:1</title>
  <metadata>{&quot;entityType&quot;:&quot;particle&quot;,&quot;entityId&quot;:&quot;img94-m65-p1&quot;,&quot;token&quot;:&quot;e:1 g:1 e:1&quot;,&quot;signature&quot;:&quot;e:1 g:1 e:1&quot;,&quot;imageName&quot;:&quot;page-094.jpg&quot;,&quot;imageId&quot;:94,&quot;bounds&quot;:{&quot;x&quot;:1259,&quot;y&quot;:2789,&quot;w&quot;:95,&quot;h&quot;:55},&quot;atoms&quot;:[{&quot;id&quot;:4396,&quot;token&quot;:&quot;e:1&quot;,&quot;particle_id&quot;:&quot;img94-m65-p1&quot;,&quot;molecule_id&quot;:&quot;img94-m65&quot;,&quot;atom_order&quot;:1},{&quot;id&quot;:4617,&quot;token&quot;:&quot;g:1&quot;,&quot;particle_id&quot;:&quot;img94-m65-p1&quot;,&quot;molecule_id&quot;:&quot;img94-m65&quot;,&quot;atom_order&quot;:2},{&quot;id&quot;:4397,&quot;token&quot;:&quot;e:1&quot;,&quot;particle_id&quot;:&quot;img94-m65-p1&quot;,&quot;molecule_id&quot;:&quot;img94-m65&quot;,&quot;atom_order&quot;:3}]}</metadata>
  <rect x="0" y="0" width="95" height="55" fill="#f8f0d8"/>
  <image href="file:///C:/Users/HHHES/AppData/Roaming/com.voynichlab.datasetcreator/images/1/33b1988f-7aaa-4207-bfa8-f26b742ac4b1.jpg" x="-1259" y="-2789" width="2932" height="3769" opacity="0.92"/>
  <rect x="0.5" y="0.5" width="94" height="54" fill="none" stroke="#111827" stroke-width="1" opacity="0.35"/>
  <polyline points="31,36 31,37 30,37 30,38 29,38 28,38 28,39 27,39 26,39 25,39 24,39 23,39 22,39 21,39 21,38 20,38 19,38 18,38 18,37 17,37 16,37 16,36 16,35 16,34 16,33 16,32 16,31 16,30 17,30 17,29 17,28 17,27 18,27 18,26 18,25 19,25 19,24 19,23 20,23 21,23 21,22 22,22 22,21 23,21 24,21 24,20 25,20 26,20 27,20 27,19" fill="none" stroke="#f2e45c" stroke-width="3" stroke-linecap="round" stroke-linejoin="round" opacity="0.95">
    <title>4396 e:1</title>
  </polyline>
  <polyline points="24,20 25,20 26,20 27,20 28,20 29,20 30,20 31,20 32,19 34,19 35,19 36,19 38,19 39,19 41,19 42,18 43,18 45,18 47,18 49,18 50,18 52,18 53,18 54,18 55,18 56,18 57,18 58,17 59,17 60,17 62,17 63,17 64,17 65,17 66,17 67,17 68,16 69,16 70,16 71,16 72,16 73,16 74,16 75,16" fill="none" stroke="#7c3cff" stroke-width="3" stroke-linecap="round" stroke-linejoin="round" opacity="0.95">
    <title>4617 g:1</title>
  </polyline>
  <polyline points="79,33 79,34 78,34 78,35 77,35 76,35 76,36 75,36 74,36 73,36 72,36 71,36 70,36 69,36 69,35 68,35 67,35 66,35 66,34 65,34 64,34 64,33 64,32 64,31 64,30 64,29 64,28 64,27 65,27 65,26 65,25 65,24 66,24 66,23 66,22 67,22 67,21 67,20 68,20 69,20 69,19 70,19 70,18 71,18 72,18 72,17 73,17 74,17 75,17 75,16" fill="none" stroke="#f2e45c" stroke-width="3" stroke-linecap="round" stroke-linejoin="round" opacity="0.95">
    <title>4397 e:1</title>
  </polyline>
</svg>
