<?xml version="1.0" encoding="UTF-8"?>
<svg xmlns="http://www.w3.org/2000/svg" width="105" height="37" viewBox="0 0 105 37">
  <title>atom 1038 g:1</title>
  <metadata>{&quot;entityType&quot;:&quot;atom&quot;,&quot;entityId&quot;:&quot;1038&quot;,&quot;token&quot;:&quot;g:1&quot;,&quot;signature&quot;:&quot;g:1&quot;,&quot;imageName&quot;:&quot;page-003.jpg&quot;,&quot;imageId&quot;:3,&quot;bounds&quot;:{&quot;x&quot;:767,&quot;y&quot;:624,&quot;w&quot;:105,&quot;h&quot;:37},&quot;atoms&quot;:[{&quot;id&quot;:1038,&quot;token&quot;:&quot;g:1&quot;,&quot;particle_id&quot;:&quot;img3-m13-p1&quot;,&quot;molecule_id&quot;:&quot;img3-m13&quot;,&quot;atom_order&quot;:6}]}</metadata>
  <rect x="0" y="0" width="105" height="37" fill="#f8f0d8"/>
  <image href="file:///C:/Users/HHHES/AppData/Roaming/com.voynichlab.datasetcreator/images/1/35a70f63-88ab-4986-b441-b78046a10087.jpg" x="-767" y="-624" width="2972" height="3766" opacity="0.92"/>
  <rect x="0.5" y="0.5" width="104" height="36" fill="none" stroke="#111827" stroke-width="1" opacity="0.35"/>
  <polyline points="16,21 17,21 18,21 19,21 20,21 21,21 22,21 23,21 24,21 25,21 26,21 27,21 28,21 29,21 30,20 31,20 32,20 33,20 34,20 34,19 35,19 36,19 37,19 38,19 39,19 40,19 41,19 42,19 43,19 44,19 45,19 46,19 47,19 48,19 49,19 50,19 51,19 52,19 53,19 54,19 55,19 56,19 57,18 59,18 60,18 62,18 63,18 64,18 64,17 65,17 66,17 67,17 68,17 69,17 70,17 71,17 72,17 73,17 74,17 75,17 76,17 77,17 78,17 79,17 80,17 81,17 82,17 83,17 84,17 85,17 85,16 86,16 87,16 88,17 89,17" fill="none" stroke="#7c3cff" stroke-width="3" stroke-linecap="round" stroke-linejoin="round" opacity="0.95">
    <title>1038 g:1</title>
  </polyline>
</svg>
