<?xml version="1.0" encoding="UTF-8"?>
<svg xmlns="http://www.w3.org/2000/svg" width="104" height="34" viewBox="0 0 104 34">
  <title>atom 1096 g:1</title>
  <metadata>{&quot;entityType&quot;:&quot;atom&quot;,&quot;entityId&quot;:&quot;1096&quot;,&quot;token&quot;:&quot;g:1&quot;,&quot;signature&quot;:&quot;g:1&quot;,&quot;imageName&quot;:&quot;page-003.jpg&quot;,&quot;imageId&quot;:3,&quot;bounds&quot;:{&quot;x&quot;:1758,&quot;y&quot;:515,&quot;w&quot;:104,&quot;h&quot;:34},&quot;atoms&quot;:[{&quot;id&quot;:1096,&quot;token&quot;:&quot;g:1&quot;,&quot;particle_id&quot;:&quot;img3-m2-p1&quot;,&quot;molecule_id&quot;:&quot;img3-m2&quot;,&quot;atom_order&quot;:7}]}</metadata>
  <rect x="0" y="0" width="104" height="34" fill="#f8f0d8"/>
  <image href="file:///C:/Users/HHHES/AppData/Roaming/com.voynichlab.datasetcreator/images/1/35a70f63-88ab-4986-b441-b78046a10087.jpg" x="-1758" y="-515" width="2972" height="3766" opacity="0.92"/>
  <rect x="0.5" y="0.5" width="103" height="33" fill="none" stroke="#111827" stroke-width="1" opacity="0.35"/>
  <polyline points="16,17 16,16 17,16 17,17 18,17 19,17 20,17 21,17 22,17 23,17 24,17 25,17 26,17 27,17 28,17 29,17 30,17 31,17 32,17 33,17 34,17 35,17 36,17 37,17 38,17 39,17 40,17 41,17 42,17 43,17 44,17 45,17 46,17 47,17 48,17 49,17 50,17 51,17 52,17 53,17 54,17 55,17 56,17 57,17 58,17 59,17 60,17 61,17 62,17 63,17 64,17 65,17 66,18 67,18 68,18 69,18 70,18 71,18 72,18 73,18 74,18 75,18 76,18 77,18 78,18 79,18 80,18 81,18 82,18 83,18 84,18 85,18 85,17 86,17 87,17 88,17" fill="none" stroke="#7c3cff" stroke-width="3" stroke-linecap="round" stroke-linejoin="round" opacity="0.95">
    <title>1096 g:1</title>
  </polyline>
</svg>
