<?xml version="1.0" encoding="UTF-8"?>
<svg xmlns="http://www.w3.org/2000/svg" width="135" height="38" viewBox="0 0 135 38">
  <title>atom 1265 g:1</title>
  <metadata>{&quot;entityType&quot;:&quot;atom&quot;,&quot;entityId&quot;:&quot;1265&quot;,&quot;token&quot;:&quot;g:1&quot;,&quot;signature&quot;:&quot;g:1&quot;,&quot;imageName&quot;:&quot;page-003.jpg&quot;,&quot;imageId&quot;:3,&quot;bounds&quot;:{&quot;x&quot;:2061,&quot;y&quot;:606,&quot;w&quot;:135,&quot;h&quot;:38},&quot;atoms&quot;:[{&quot;id&quot;:1265,&quot;token&quot;:&quot;g:1&quot;,&quot;particle_id&quot;:&quot;img3-m11-p1&quot;,&quot;molecule_id&quot;:&quot;img3-m11&quot;,&quot;atom_order&quot;:7}]}</metadata>
  <rect x="0" y="0" width="135" height="38" fill="#f8f0d8"/>
  <image href="file:///C:/Users/HHHES/AppData/Roaming/com.voynichlab.datasetcreator/images/1/35a70f63-88ab-4986-b441-b78046a10087.jpg" x="-2061" y="-606" width="2972" height="3766" opacity="0.92"/>
  <rect x="0.5" y="0.5" width="134" height="37" fill="none" stroke="#111827" stroke-width="1" opacity="0.35"/>
  <polyline points="16,22 17,22 18,22 19,21 20,21 21,21 22,21 23,21 24,21 25,21 26,21 27,21 28,21 28,20 29,20 30,20 31,20 32,20 33,20 34,20 35,20 36,20 37,20 38,20 39,20 40,20 41,20 42,20 43,20 44,20 45,20 46,20 47,20 48,20 49,20 50,20 51,20 52,20 53,20 54,20 55,20 55,19 56,19 57,19 58,19 59,19 60,19 61,19 62,19 63,19 64,19 65,19 66,19 67,19 67,18 68,18 69,18 70,18 71,18 72,18 73,18 74,18 75,18 76,18 77,18 78,18 79,18 80,18 81,18 82,18 83,18 84,18 85,18 86,18 87,18 88,18 89,18 90,17 91,17 92,17 93,17 94,17 95,17 96,17 97,17 98,17 99,17 100,17 102,17 103,17 104,17 105,17 106,17 107,17 108,17 109,17 110,17 111,17 112,17 113,17 114,17 115,17 116,17 116,16 117,16 118,16 119,16" fill="none" stroke="#7c3cff" stroke-width="3" stroke-linecap="round" stroke-linejoin="round" opacity="0.95">
    <title>1265 g:1</title>
  </polyline>
</svg>
