<?xml version="1.0" encoding="UTF-8"?>
<svg xmlns="http://www.w3.org/2000/svg" width="108" height="33" viewBox="0 0 108 33">
  <title>atom 1664 g:1</title>
  <metadata>{&quot;entityType&quot;:&quot;atom&quot;,&quot;entityId&quot;:&quot;1664&quot;,&quot;token&quot;:&quot;g:1&quot;,&quot;signature&quot;:&quot;g:1&quot;,&quot;imageName&quot;:&quot;page-003.jpg&quot;,&quot;imageId&quot;:3,&quot;bounds&quot;:{&quot;x&quot;:979,&quot;y&quot;:878,&quot;w&quot;:108,&quot;h&quot;:33},&quot;atoms&quot;:[{&quot;id&quot;:1664,&quot;token&quot;:&quot;g:1&quot;,&quot;particle_id&quot;:&quot;img3-m38-p1&quot;,&quot;molecule_id&quot;:&quot;img3-m38&quot;,&quot;atom_order&quot;:6}]}</metadata>
  <rect x="0" y="0" width="108" height="33" fill="#f8f0d8"/>
  <image href="file:///C:/Users/HHHES/AppData/Roaming/com.voynichlab.datasetcreator/images/1/35a70f63-88ab-4986-b441-b78046a10087.jpg" x="-979" y="-878" width="2972" height="3766" opacity="0.92"/>
  <rect x="0.5" y="0.5" width="107" height="32" fill="none" stroke="#111827" stroke-width="1" opacity="0.35"/>
  <polyline points="16,17 17,17 18,17 19,17 20,17 21,17 22,17 23,17 24,17 25,17 26,17 27,17 28,17 29,17 30,17 31,17 32,17 33,17 34,17 35,17 36,17 37,17 38,17 39,17 40,17 41,17 42,17 43,17 44,17 45,17 46,17 47,17 48,17 49,17 50,17 51,17 52,17 53,17 54,17 55,17 56,17 57,17 58,17 59,17 60,17 61,17 62,17 63,17 64,17 65,17 66,17 67,17 68,17 69,17 70,17 71,17 72,17 73,17 74,17 75,17 76,17 77,17 78,17 79,17 80,17 81,17 82,17 83,17 84,17 85,17 86,17 87,17 88,17 88,16 89,16 90,16 91,16 92,16" fill="none" stroke="#7c3cff" stroke-width="3" stroke-linecap="round" stroke-linejoin="round" opacity="0.95">
    <title>1664 g:1</title>
  </polyline>
</svg>
