<?xml version="1.0" encoding="UTF-8"?>
<svg xmlns="http://www.w3.org/2000/svg" width="90" height="35" viewBox="0 0 90 35">
  <title>atom 1778 g:1</title>
  <metadata>{&quot;entityType&quot;:&quot;atom&quot;,&quot;entityId&quot;:&quot;1778&quot;,&quot;token&quot;:&quot;g:1&quot;,&quot;signature&quot;:&quot;g:1&quot;,&quot;imageName&quot;:&quot;page-003.jpg&quot;,&quot;imageId&quot;:3,&quot;bounds&quot;:{&quot;x&quot;:941,&quot;y&quot;:1066,&quot;w&quot;:90,&quot;h&quot;:35},&quot;atoms&quot;:[{&quot;id&quot;:1778,&quot;token&quot;:&quot;g:1&quot;,&quot;particle_id&quot;:&quot;img3-m48-p2&quot;,&quot;molecule_id&quot;:&quot;img3-m48&quot;,&quot;atom_order&quot;:2}]}</metadata>
  <rect x="0" y="0" width="90" height="35" fill="#f8f0d8"/>
  <image href="file:///C:/Users/HHHES/AppData/Roaming/com.voynichlab.datasetcreator/images/1/35a70f63-88ab-4986-b441-b78046a10087.jpg" x="-941" y="-1066" width="2972" height="3766" opacity="0.92"/>
  <rect x="0.5" y="0.5" width="89" height="34" fill="none" stroke="#111827" stroke-width="1" opacity="0.35"/>
  <polyline points="16,19 17,19 18,19 19,19 20,19 21,19 22,19 23,19 24,19 25,19 26,19 27,19 28,19 29,19 31,19 32,19 33,19 34,19 35,19 36,19 37,19 38,19 39,19 40,19 41,19 42,19 43,19 44,19 45,18 46,18 47,18 48,18 49,18 50,18 51,18 52,18 53,18 54,18 55,18 56,18 57,18 58,18 59,18 60,18 61,18 61,17 62,17 63,17 64,17 65,17 66,17 67,17 68,17 69,17 70,17 71,17 71,16 72,16 73,16 74,16" fill="none" stroke="#7c3cff" stroke-width="3" stroke-linecap="round" stroke-linejoin="round" opacity="0.95">
    <title>1778 g:1</title>
  </polyline>
</svg>
