<?xml version="1.0" encoding="UTF-8"?>
<svg xmlns="http://www.w3.org/2000/svg" width="106" height="33" viewBox="0 0 106 33">
  <title>atom 1971 g:1</title>
  <metadata>{&quot;entityType&quot;:&quot;atom&quot;,&quot;entityId&quot;:&quot;1971&quot;,&quot;token&quot;:&quot;g:1&quot;,&quot;signature&quot;:&quot;g:1&quot;,&quot;imageName&quot;:&quot;page-003.jpg&quot;,&quot;imageId&quot;:3,&quot;bounds&quot;:{&quot;x&quot;:1524,&quot;y&quot;:1149,&quot;w&quot;:106,&quot;h&quot;:33},&quot;atoms&quot;:[{&quot;id&quot;:1971,&quot;token&quot;:&quot;g:1&quot;,&quot;particle_id&quot;:&quot;img3-m54-p3&quot;,&quot;molecule_id&quot;:&quot;img3-m54&quot;,&quot;atom_order&quot;:7}]}</metadata>
  <rect x="0" y="0" width="106" height="33" fill="#f8f0d8"/>
  <image href="file:///C:/Users/HHHES/AppData/Roaming/com.voynichlab.datasetcreator/images/1/35a70f63-88ab-4986-b441-b78046a10087.jpg" x="-1524" y="-1149" width="2972" height="3766" opacity="0.92"/>
  <rect x="0.5" y="0.5" width="105" height="32" fill="none" stroke="#111827" stroke-width="1" opacity="0.35"/>
  <polyline points="16,17 17,17 17,16 18,16 19,16 20,16 21,16 22,16 22,17 23,17 24,17 25,17 26,17 27,17 28,17 29,17 30,17 31,17 32,17 33,17 34,17 35,17 36,17 37,17 38,17 39,17 40,17 41,17 42,17 43,17 44,17 45,17 46,17 47,17 48,17 49,17 50,17 51,17 52,17 53,17 54,17 55,17 56,17 57,17 58,17 59,17 60,17 61,17 62,16 63,16 64,16 65,16 66,16 67,16 68,16 69,16 70,16 71,16 72,16 73,16 74,16 75,16 76,16 77,16 78,16 79,16 80,16 81,16 82,16 83,16 84,16 85,16 86,16 87,16 88,16 89,16 90,16" fill="none" stroke="#7c3cff" stroke-width="3" stroke-linecap="round" stroke-linejoin="round" opacity="0.95">
    <title>1971 g:1</title>
  </polyline>
</svg>
