<?xml version="1.0" encoding="UTF-8"?>
<svg xmlns="http://www.w3.org/2000/svg" width="107" height="37" viewBox="0 0 107 37">
  <title>atom 2127 g:1</title>
  <metadata>{&quot;entityType&quot;:&quot;atom&quot;,&quot;entityId&quot;:&quot;2127&quot;,&quot;token&quot;:&quot;g:1&quot;,&quot;signature&quot;:&quot;g:1&quot;,&quot;imageName&quot;:&quot;page-003.jpg&quot;,&quot;imageId&quot;:3,&quot;bounds&quot;:{&quot;x&quot;:866,&quot;y&quot;:1496,&quot;w&quot;:107,&quot;h&quot;:37},&quot;atoms&quot;:[{&quot;id&quot;:2127,&quot;token&quot;:&quot;g:1&quot;,&quot;particle_id&quot;:&quot;img3-m66-p1&quot;,&quot;molecule_id&quot;:&quot;img3-m66&quot;,&quot;atom_order&quot;:8}]}</metadata>
  <rect x="0" y="0" width="107" height="37" fill="#f8f0d8"/>
  <image href="file:///C:/Users/HHHES/AppData/Roaming/com.voynichlab.datasetcreator/images/1/35a70f63-88ab-4986-b441-b78046a10087.jpg" x="-866" y="-1496" width="2972" height="3766" opacity="0.92"/>
  <rect x="0.5" y="0.5" width="106" height="36" fill="none" stroke="#111827" stroke-width="1" opacity="0.35"/>
  <polyline points="16,21 17,21 18,21 19,21 20,21 21,21 22,21 23,21 24,21 25,21 26,21 27,21 28,21 29,21 30,21 31,21 32,21 33,21 34,21 35,21 36,21 37,21 38,21 39,21 40,21 41,21 42,21 43,21 44,21 45,21 45,20 46,20 47,20 48,20 49,20 50,20 51,20 52,20 53,20 54,20 55,20 56,20 57,20 58,20 59,20 60,20 61,20 62,20 63,20 64,20 65,20 66,20 67,20 68,19 69,19 70,19 71,19 71,18 72,18 73,18 74,18 75,18 76,18 77,18 78,18 78,17 79,17 80,17 81,17 82,17 83,17 83,16 84,16 85,16 86,16 87,16 88,16 89,16 90,16 91,16" fill="none" stroke="#7c3cff" stroke-width="3" stroke-linecap="round" stroke-linejoin="round" opacity="0.95">
    <title>2127 g:1</title>
  </polyline>
</svg>
