<?xml version="1.0" encoding="UTF-8"?>
<svg xmlns="http://www.w3.org/2000/svg" width="77" height="33" viewBox="0 0 77 33">
  <title>atom 2289 g:1</title>
  <metadata>{&quot;entityType&quot;:&quot;atom&quot;,&quot;entityId&quot;:&quot;2289&quot;,&quot;token&quot;:&quot;g:1&quot;,&quot;signature&quot;:&quot;g:1&quot;,&quot;imageName&quot;:&quot;page-003.jpg&quot;,&quot;imageId&quot;:3,&quot;bounds&quot;:{&quot;x&quot;:1698,&quot;y&quot;:1584,&quot;w&quot;:77,&quot;h&quot;:33},&quot;atoms&quot;:[{&quot;id&quot;:2289,&quot;token&quot;:&quot;g:1&quot;,&quot;particle_id&quot;:&quot;img3-m78-p2&quot;,&quot;molecule_id&quot;:&quot;img3-m78&quot;,&quot;atom_order&quot;:2}]}</metadata>
  <rect x="0" y="0" width="77" height="33" fill="#f8f0d8"/>
  <image href="file:///C:/Users/HHHES/AppData/Roaming/com.voynichlab.datasetcreator/images/1/35a70f63-88ab-4986-b441-b78046a10087.jpg" x="-1698" y="-1584" width="2972" height="3766" opacity="0.92"/>
  <rect x="0.5" y="0.5" width="76" height="32" fill="none" stroke="#111827" stroke-width="1" opacity="0.35"/>
  <polyline points="16,16 18,16 19,16 20,16 21,16 22,16 23,16 24,16 25,16 26,16 26,17 27,17 28,17 29,17 30,17 31,17 32,17 33,17 34,17 35,17 35,16 36,16 37,16 38,16 39,16 40,16 41,16 42,17 43,17 44,17 45,17 46,17 47,17 48,17 49,17 50,17 51,17 52,17 53,17 54,17 55,17 56,17 57,17 58,17 59,17 60,17 61,17" fill="none" stroke="#7c3cff" stroke-width="3" stroke-linecap="round" stroke-linejoin="round" opacity="0.95">
    <title>2289 g:1</title>
  </polyline>
</svg>
