<?xml version="1.0" encoding="UTF-8"?>
<svg xmlns="http://www.w3.org/2000/svg" width="129" height="40" viewBox="0 0 129 40">
  <title>atom 2311 g:1</title>
  <metadata>{&quot;entityType&quot;:&quot;atom&quot;,&quot;entityId&quot;:&quot;2311&quot;,&quot;token&quot;:&quot;g:1&quot;,&quot;signature&quot;:&quot;g:1&quot;,&quot;imageName&quot;:&quot;page-003.jpg&quot;,&quot;imageId&quot;:3,&quot;bounds&quot;:{&quot;x&quot;:2026,&quot;y&quot;:1599,&quot;w&quot;:129,&quot;h&quot;:40},&quot;atoms&quot;:[{&quot;id&quot;:2311,&quot;token&quot;:&quot;g:1&quot;,&quot;particle_id&quot;:&quot;img3-m75-p2&quot;,&quot;molecule_id&quot;:&quot;img3-m75&quot;,&quot;atom_order&quot;:7}]}</metadata>
  <rect x="0" y="0" width="129" height="40" fill="#f8f0d8"/>
  <image href="file:///C:/Users/HHHES/AppData/Roaming/com.voynichlab.datasetcreator/images/1/35a70f63-88ab-4986-b441-b78046a10087.jpg" x="-2026" y="-1599" width="2972" height="3766" opacity="0.92"/>
  <rect x="0.5" y="0.5" width="128" height="39" fill="none" stroke="#111827" stroke-width="1" opacity="0.35"/>
  <polyline points="16,24 17,24 18,24 19,24 19,23 20,23 21,23 22,23 23,23 24,23 25,23 26,23 26,22 27,22 28,22 29,22 30,22 31,22 32,22 33,22 34,22 35,22 36,22 37,22 38,22 39,22 40,22 41,22 42,22 43,21 44,21 45,21 46,21 47,21 48,21 49,21 50,21 51,21 52,20 53,20 54,20 55,20 56,20 57,20 58,20 59,20 60,20 61,20 62,20 63,20 64,20 65,20 66,20 67,20 68,19 69,19 70,19 71,19 72,19 73,19 74,19 75,19 76,19 77,19 78,19 79,19 80,19 81,19 82,19 83,19 84,19 85,19 86,19 86,18 87,18 88,18 89,18 90,18 91,18 92,18 93,18 94,18 95,18 96,17 97,17 98,17 99,17 100,17 101,17 102,17 103,17 104,17 105,16 106,16 107,16 108,16 109,16 110,16 111,16 112,16 113,16" fill="none" stroke="#7c3cff" stroke-width="3" stroke-linecap="round" stroke-linejoin="round" opacity="0.95">
    <title>2311 g:1</title>
  </polyline>
</svg>
