<?xml version="1.0" encoding="UTF-8"?>
<svg xmlns="http://www.w3.org/2000/svg" width="122" height="36" viewBox="0 0 122 36">
  <title>atom 2422 g:1</title>
  <metadata>{&quot;entityType&quot;:&quot;atom&quot;,&quot;entityId&quot;:&quot;2422&quot;,&quot;token&quot;:&quot;g:1&quot;,&quot;signature&quot;:&quot;g:1&quot;,&quot;imageName&quot;:&quot;page-003.jpg&quot;,&quot;imageId&quot;:3,&quot;bounds&quot;:{&quot;x&quot;:1751,&quot;y&quot;:1693,&quot;w&quot;:122,&quot;h&quot;:36},&quot;atoms&quot;:[{&quot;id&quot;:2422,&quot;token&quot;:&quot;g:1&quot;,&quot;particle_id&quot;:&quot;img3-m85-p1&quot;,&quot;molecule_id&quot;:&quot;img3-m85&quot;,&quot;atom_order&quot;:8}]}</metadata>
  <rect x="0" y="0" width="122" height="36" fill="#f8f0d8"/>
  <image href="file:///C:/Users/HHHES/AppData/Roaming/com.voynichlab.datasetcreator/images/1/35a70f63-88ab-4986-b441-b78046a10087.jpg" x="-1751" y="-1693" width="2972" height="3766" opacity="0.92"/>
  <rect x="0.5" y="0.5" width="121" height="35" fill="none" stroke="#111827" stroke-width="1" opacity="0.35"/>
  <polyline points="16,16 17,16 17,17 18,17 19,17 20,17 21,17 22,17 23,17 24,17 25,17 26,17 27,17 27,18 28,18 29,18 30,18 31,18 32,18 33,18 34,18 35,18 36,18 37,18 38,18 39,18 40,18 41,18 42,18 43,18 44,18 44,17 45,17 46,17 47,17 48,17 49,18 50,18 51,18 52,18 53,18 54,18 55,18 56,18 57,18 58,18 59,18 60,18 61,18 62,18 63,18 64,18 65,18 66,18 67,18 68,18 69,18 70,18 71,18 72,18 73,18 73,19 74,19 75,19 76,19 77,19 78,19 79,19 80,19 81,19 82,19 83,19 84,19 85,19 86,19 87,19 88,19 89,19 90,19 91,19 92,19 93,19 94,19 94,20 95,20 96,20 97,20 98,20 99,20 100,20 101,20 102,20 103,20 104,20 104,19 105,19 106,19" fill="none" stroke="#7c3cff" stroke-width="3" stroke-linecap="round" stroke-linejoin="round" opacity="0.95">
    <title>2422 g:1</title>
  </polyline>
</svg>
