<?xml version="1.0" encoding="UTF-8"?>
<svg xmlns="http://www.w3.org/2000/svg" width="77" height="35" viewBox="0 0 77 35">
  <title>atom 2603 g:1</title>
  <metadata>{&quot;entityType&quot;:&quot;atom&quot;,&quot;entityId&quot;:&quot;2603&quot;,&quot;token&quot;:&quot;g:1&quot;,&quot;signature&quot;:&quot;g:1&quot;,&quot;imageName&quot;:&quot;page-003.jpg&quot;,&quot;imageId&quot;:3,&quot;bounds&quot;:{&quot;x&quot;:875,&quot;y&quot;:1762,&quot;w&quot;:77,&quot;h&quot;:35},&quot;atoms&quot;:[{&quot;id&quot;:2603,&quot;token&quot;:&quot;g:1&quot;,&quot;particle_id&quot;:&quot;img3-m94-p1&quot;,&quot;molecule_id&quot;:&quot;img3-m94&quot;,&quot;atom_order&quot;:2}]}</metadata>
  <rect x="0" y="0" width="77" height="35" fill="#f8f0d8"/>
  <image href="file:///C:/Users/HHHES/AppData/Roaming/com.voynichlab.datasetcreator/images/1/35a70f63-88ab-4986-b441-b78046a10087.jpg" x="-875" y="-1762" width="2972" height="3766" opacity="0.92"/>
  <rect x="0.5" y="0.5" width="76" height="34" fill="none" stroke="#111827" stroke-width="1" opacity="0.35"/>
  <polyline points="16,19 17,19 18,19 19,19 20,19 21,19 22,19 23,19 24,19 25,19 26,19 27,19 28,19 28,18 29,18 30,18 31,18 32,18 33,18 34,18 35,18 36,18 37,17 38,17 39,17 40,17 41,17 42,17 43,17 44,17 45,17 46,17 47,17 47,16 48,16 49,16 50,16 51,16 52,16 53,16 54,16 55,16 56,16 57,16 58,16 59,16 60,16 61,16" fill="none" stroke="#7c3cff" stroke-width="3" stroke-linecap="round" stroke-linejoin="round" opacity="0.95">
    <title>2603 g:1</title>
  </polyline>
</svg>
