<?xml version="1.0" encoding="UTF-8"?>
<svg xmlns="http://www.w3.org/2000/svg" width="94" height="36" viewBox="0 0 94 36">
  <title>atom 3065 g:1</title>
  <metadata>{&quot;entityType&quot;:&quot;atom&quot;,&quot;entityId&quot;:&quot;3065&quot;,&quot;token&quot;:&quot;g:1&quot;,&quot;signature&quot;:&quot;g:1&quot;,&quot;imageName&quot;:&quot;page-003.jpg&quot;,&quot;imageId&quot;:3,&quot;bounds&quot;:{&quot;x&quot;:2175,&quot;y&quot;:519,&quot;w&quot;:94,&quot;h&quot;:36},&quot;atoms&quot;:[{&quot;id&quot;:3065,&quot;token&quot;:&quot;g:1&quot;,&quot;particle_id&quot;:&quot;img3-m8-p2&quot;,&quot;molecule_id&quot;:&quot;img3-m8&quot;,&quot;atom_order&quot;:2}]}</metadata>
  <rect x="0" y="0" width="94" height="36" fill="#f8f0d8"/>
  <image href="file:///C:/Users/HHHES/AppData/Roaming/com.voynichlab.datasetcreator/images/1/35a70f63-88ab-4986-b441-b78046a10087.jpg" x="-2175" y="-519" width="2972" height="3766" opacity="0.92"/>
  <rect x="0.5" y="0.5" width="93" height="35" fill="none" stroke="#111827" stroke-width="1" opacity="0.35"/>
  <polyline points="16,16 17,16 18,16 19,17 20,17 21,17 22,17 22,18 23,18 24,18 25,18 26,18 27,18 28,18 29,18 30,18 31,19 32,19 33,19 34,19 35,19 36,19 37,19 38,19 39,19 40,19 41,19 42,19 43,19 44,19 45,19 46,19 47,19 48,19 49,20 50,20 51,20 52,20 53,20 54,20 55,20 56,20 57,20 58,20 59,20 60,20 61,20 61,19 62,19 63,19 64,19 65,19 66,19 67,19 68,19 69,19 70,19 71,19 72,19 73,19 74,19 75,19 76,19 77,19 78,19" fill="none" stroke="#7c3cff" stroke-width="3" stroke-linecap="round" stroke-linejoin="round" opacity="0.95">
    <title>3065 g:1</title>
  </polyline>
</svg>
