<?xml version="1.0" encoding="UTF-8"?>
<svg xmlns="http://www.w3.org/2000/svg" width="78" height="36" viewBox="0 0 78 36">
  <title>atom 3251 g:1</title>
  <metadata>{&quot;entityType&quot;:&quot;atom&quot;,&quot;entityId&quot;:&quot;3251&quot;,&quot;token&quot;:&quot;g:1&quot;,&quot;signature&quot;:&quot;g:1&quot;,&quot;imageName&quot;:&quot;page-003.jpg&quot;,&quot;imageId&quot;:3,&quot;bounds&quot;:{&quot;x&quot;:560,&quot;y&quot;:1918,&quot;w&quot;:78,&quot;h&quot;:36},&quot;atoms&quot;:[{&quot;id&quot;:3251,&quot;token&quot;:&quot;g:1&quot;,&quot;particle_id&quot;:&quot;img3-m115-p2&quot;,&quot;molecule_id&quot;:&quot;img3-m115&quot;,&quot;atom_order&quot;:2}]}</metadata>
  <rect x="0" y="0" width="78" height="36" fill="#f8f0d8"/>
  <image href="file:///C:/Users/HHHES/AppData/Roaming/com.voynichlab.datasetcreator/images/1/35a70f63-88ab-4986-b441-b78046a10087.jpg" x="-560" y="-1918" width="2972" height="3766" opacity="0.92"/>
  <rect x="0.5" y="0.5" width="77" height="35" fill="none" stroke="#111827" stroke-width="1" opacity="0.35"/>
  <polyline points="16,20 16,19 17,19 18,19 19,19 20,19 21,19 22,19 23,19 24,19 25,19 26,19 27,19 27,18 28,18 29,18 30,18 31,18 32,18 33,18 34,18 35,18 36,18 37,18 38,18 39,18 40,18 41,18 42,18 43,18 44,18 45,18 46,17 47,17 48,17 49,17 50,17 51,17 52,17 53,17 54,16 55,16 56,16 57,16 58,16 59,16 60,16 61,16 62,16" fill="none" stroke="#7c3cff" stroke-width="3" stroke-linecap="round" stroke-linejoin="round" opacity="0.95">
    <title>3251 g:1</title>
  </polyline>
</svg>
