<?xml version="1.0" encoding="UTF-8"?>
<svg xmlns="http://www.w3.org/2000/svg" width="87" height="33" viewBox="0 0 87 33">
  <title>atom 3345 g:1</title>
  <metadata>{&quot;entityType&quot;:&quot;atom&quot;,&quot;entityId&quot;:&quot;3345&quot;,&quot;token&quot;:&quot;g:1&quot;,&quot;signature&quot;:&quot;g:1&quot;,&quot;imageName&quot;:&quot;page-003.jpg&quot;,&quot;imageId&quot;:3,&quot;bounds&quot;:{&quot;x&quot;:1264,&quot;y&quot;:1994,&quot;w&quot;:87,&quot;h&quot;:33},&quot;atoms&quot;:[{&quot;id&quot;:3345,&quot;token&quot;:&quot;g:1&quot;,&quot;particle_id&quot;:&quot;img3-m125-p2&quot;,&quot;molecule_id&quot;:&quot;img3-m125&quot;,&quot;atom_order&quot;:2}]}</metadata>
  <rect x="0" y="0" width="87" height="33" fill="#f8f0d8"/>
  <image href="file:///C:/Users/HHHES/AppData/Roaming/com.voynichlab.datasetcreator/images/1/35a70f63-88ab-4986-b441-b78046a10087.jpg" x="-1264" y="-1994" width="2972" height="3766" opacity="0.92"/>
  <rect x="0.5" y="0.5" width="86" height="32" fill="none" stroke="#111827" stroke-width="1" opacity="0.35"/>
  <polyline points="16,17 17,17 18,17 19,17 20,16 21,16 22,16 23,16 24,16 25,16 26,16 27,16 28,16 29,16 30,16 31,16 32,16 33,16 34,16 35,16 36,16 37,16 38,16 39,16 40,16 41,16 42,16 43,16 44,16 45,16 46,16 47,16 48,16 49,16 50,16 51,16 52,16 53,16 54,16 55,16 56,16 57,16 58,16 59,16 60,16 61,16 62,16 63,16 64,16 65,16 66,16 67,16 68,16 69,16 70,16 71,16 71,17" fill="none" stroke="#7c3cff" stroke-width="3" stroke-linecap="round" stroke-linejoin="round" opacity="0.95">
    <title>3345 g:1</title>
  </polyline>
</svg>
