<?xml version="1.0" encoding="UTF-8"?>
<svg xmlns="http://www.w3.org/2000/svg" width="115" height="36" viewBox="0 0 115 36">
  <title>atom 3347 g:1</title>
  <metadata>{&quot;entityType&quot;:&quot;atom&quot;,&quot;entityId&quot;:&quot;3347&quot;,&quot;token&quot;:&quot;g:1&quot;,&quot;signature&quot;:&quot;g:1&quot;,&quot;imageName&quot;:&quot;page-003.jpg&quot;,&quot;imageId&quot;:3,&quot;bounds&quot;:{&quot;x&quot;:1910,&quot;y&quot;:1996,&quot;w&quot;:115,&quot;h&quot;:36},&quot;atoms&quot;:[{&quot;id&quot;:3347,&quot;token&quot;:&quot;g:1&quot;,&quot;particle_id&quot;:&quot;img3-m120-p1&quot;,&quot;molecule_id&quot;:&quot;img3-m120&quot;,&quot;atom_order&quot;:7}]}</metadata>
  <rect x="0" y="0" width="115" height="36" fill="#f8f0d8"/>
  <image href="file:///C:/Users/HHHES/AppData/Roaming/com.voynichlab.datasetcreator/images/1/35a70f63-88ab-4986-b441-b78046a10087.jpg" x="-1910" y="-1996" width="2972" height="3766" opacity="0.92"/>
  <rect x="0.5" y="0.5" width="114" height="35" fill="none" stroke="#111827" stroke-width="1" opacity="0.35"/>
  <polyline points="16,16 17,16 18,16 19,16 20,16 21,16 21,17 22,17 23,17 24,17 25,17 26,17 27,17 29,17 30,17 31,18 32,18 33,18 34,18 35,18 36,18 37,18 39,18 40,18 41,18 42,18 43,18 44,18 45,18 46,18 47,18 48,18 49,18 50,18 51,18 52,18 53,19 54,19 55,19 56,19 57,19 58,19 59,19 60,19 61,19 62,19 63,19 64,19 65,19 66,19 67,19 68,19 69,19 70,19 71,19 72,19 73,19 74,19 75,19 76,19 77,19 78,19 79,19 80,19 81,19 82,19 83,20 84,20 85,20 86,20 87,20 88,20 89,20 90,20 91,20 92,20 93,20 94,20 95,20 96,20 97,20 98,20 99,20" fill="none" stroke="#7c3cff" stroke-width="3" stroke-linecap="round" stroke-linejoin="round" opacity="0.95">
    <title>3347 g:1</title>
  </polyline>
</svg>
