<?xml version="1.0" encoding="UTF-8"?>
<svg xmlns="http://www.w3.org/2000/svg" width="156" height="36" viewBox="0 0 156 36">
  <title>atom 3348 g:1</title>
  <metadata>{&quot;entityType&quot;:&quot;atom&quot;,&quot;entityId&quot;:&quot;3348&quot;,&quot;token&quot;:&quot;g:1&quot;,&quot;signature&quot;:&quot;g:1&quot;,&quot;imageName&quot;:&quot;page-003.jpg&quot;,&quot;imageId&quot;:3,&quot;bounds&quot;:{&quot;x&quot;:2162,&quot;y&quot;:2010,&quot;w&quot;:156,&quot;h&quot;:36},&quot;atoms&quot;:[{&quot;id&quot;:3348,&quot;token&quot;:&quot;g:1&quot;,&quot;particle_id&quot;:&quot;img3-m121-p3&quot;,&quot;molecule_id&quot;:&quot;img3-m121&quot;,&quot;atom_order&quot;:8}]}</metadata>
  <rect x="0" y="0" width="156" height="36" fill="#f8f0d8"/>
  <image href="file:///C:/Users/HHHES/AppData/Roaming/com.voynichlab.datasetcreator/images/1/35a70f63-88ab-4986-b441-b78046a10087.jpg" x="-2162" y="-2010" width="2972" height="3766" opacity="0.92"/>
  <rect x="0.5" y="0.5" width="155" height="35" fill="none" stroke="#111827" stroke-width="1" opacity="0.35"/>
  <polyline points="16,16 17,16 18,16 19,16 20,16 21,16 22,16 24,16 25,16 26,16 27,17 29,17 30,17 31,17 33,17 34,18 35,18 37,18 39,18 40,18 41,18 42,18 44,18 45,18 46,18 47,18 48,18 50,18 51,18 53,18 54,18 55,18 56,18 57,18 58,18 59,18 60,18 61,18 62,18 63,18 64,18 65,19 67,19 69,19 70,19 71,19 72,19 74,19 75,19 76,19 78,19 79,19 80,19 81,19 82,19 83,19 84,19 85,19 87,19 88,20 89,20 90,20 91,20 92,20 93,20 95,20 96,20 97,20 98,20 99,20 100,20 101,20 102,20 103,20 104,20 105,20 106,20 107,20 108,20 109,20 110,20 111,20 112,19 113,19 114,19 115,19 116,19 117,19 118,19 119,19 121,19 122,19 123,18 124,18 125,18 126,18 127,18 128,18 130,18 131,18 132,18 133,18 134,18 135,18 136,18 137,18 138,18 138,17 139,17 140,17" fill="none" stroke="#7c3cff" stroke-width="3" stroke-linecap="round" stroke-linejoin="round" opacity="0.95">
    <title>3348 g:1</title>
  </polyline>
</svg>
