<?xml version="1.0" encoding="UTF-8"?>
<svg xmlns="http://www.w3.org/2000/svg" width="75" height="37" viewBox="0 0 75 37">
  <title>atom 3454 g:1</title>
  <metadata>{&quot;entityType&quot;:&quot;atom&quot;,&quot;entityId&quot;:&quot;3454&quot;,&quot;token&quot;:&quot;g:1&quot;,&quot;signature&quot;:&quot;g:1&quot;,&quot;imageName&quot;:&quot;page-003.jpg&quot;,&quot;imageId&quot;:3,&quot;bounds&quot;:{&quot;x&quot;:897,&quot;y&quot;:2069,&quot;w&quot;:75,&quot;h&quot;:37},&quot;atoms&quot;:[{&quot;id&quot;:3454,&quot;token&quot;:&quot;g:1&quot;,&quot;particle_id&quot;:&quot;img3-m130-p2&quot;,&quot;molecule_id&quot;:&quot;img3-m130&quot;,&quot;atom_order&quot;:2}]}</metadata>
  <rect x="0" y="0" width="75" height="37" fill="#f8f0d8"/>
  <image href="file:///C:/Users/HHHES/AppData/Roaming/com.voynichlab.datasetcreator/images/1/35a70f63-88ab-4986-b441-b78046a10087.jpg" x="-897" y="-2069" width="2972" height="3766" opacity="0.92"/>
  <rect x="0.5" y="0.5" width="74" height="36" fill="none" stroke="#111827" stroke-width="1" opacity="0.35"/>
  <polyline points="16,16 17,17 18,17 20,18 21,18 22,18 23,18 24,18 25,19 26,19 27,19 28,19 29,19 31,19 32,19 34,19 35,19 37,19 39,19 40,19 41,19 42,20 43,20 44,20 45,20 46,20 47,20 48,20 50,20 51,20 52,20 53,20 54,21 55,21 56,21 57,21 58,21 59,21" fill="none" stroke="#7c3cff" stroke-width="3" stroke-linecap="round" stroke-linejoin="round" opacity="0.95">
    <title>3454 g:1</title>
  </polyline>
</svg>
