<?xml version="1.0" encoding="UTF-8"?>
<svg xmlns="http://www.w3.org/2000/svg" width="107" height="35" viewBox="0 0 107 35">
  <title>atom 3456 g:1</title>
  <metadata>{&quot;entityType&quot;:&quot;atom&quot;,&quot;entityId&quot;:&quot;3456&quot;,&quot;token&quot;:&quot;g:1&quot;,&quot;signature&quot;:&quot;g:1&quot;,&quot;imageName&quot;:&quot;page-003.jpg&quot;,&quot;imageId&quot;:3,&quot;bounds&quot;:{&quot;x&quot;:1354,&quot;y&quot;:2081,&quot;w&quot;:107,&quot;h&quot;:35},&quot;atoms&quot;:[{&quot;id&quot;:3456,&quot;token&quot;:&quot;g:1&quot;,&quot;particle_id&quot;:&quot;img3-m126-p1&quot;,&quot;molecule_id&quot;:&quot;img3-m126&quot;,&quot;atom_order&quot;:8}]}</metadata>
  <rect x="0" y="0" width="107" height="35" fill="#f8f0d8"/>
  <image href="file:///C:/Users/HHHES/AppData/Roaming/com.voynichlab.datasetcreator/images/1/35a70f63-88ab-4986-b441-b78046a10087.jpg" x="-1354" y="-2081" width="2972" height="3766" opacity="0.92"/>
  <rect x="0.5" y="0.5" width="106" height="34" fill="none" stroke="#111827" stroke-width="1" opacity="0.35"/>
  <polyline points="16,18 17,18 18,18 19,18 20,18 21,18 22,18 23,18 24,18 25,18 27,18 28,18 29,17 30,17 31,17 32,17 33,17 35,17 36,16 38,16 39,16 40,16 41,16 42,16 44,16 45,16 46,16 47,16 48,16 49,16 50,16 51,16 53,16 54,16 55,16 56,16 57,16 58,16 59,16 60,16 61,16 62,16 63,16 64,16 65,16 67,16 69,17 71,17 73,17 74,18 75,18 76,18 78,18 79,18 80,18 81,18 82,18 83,18 84,18 85,18 86,19 87,19 88,19 89,19 90,19 91,19" fill="none" stroke="#7c3cff" stroke-width="3" stroke-linecap="round" stroke-linejoin="round" opacity="0.95">
    <title>3456 g:1</title>
  </polyline>
</svg>
