<?xml version="1.0" encoding="UTF-8"?>
<svg xmlns="http://www.w3.org/2000/svg" width="109" height="33" viewBox="0 0 109 33">
  <title>atom 3569 g:1</title>
  <metadata>{&quot;entityType&quot;:&quot;atom&quot;,&quot;entityId&quot;:&quot;3569&quot;,&quot;token&quot;:&quot;g:1&quot;,&quot;signature&quot;:&quot;g:1&quot;,&quot;imageName&quot;:&quot;page-003.jpg&quot;,&quot;imageId&quot;:3,&quot;bounds&quot;:{&quot;x&quot;:1890,&quot;y&quot;:2196,&quot;w&quot;:109,&quot;h&quot;:33},&quot;atoms&quot;:[{&quot;id&quot;:3569,&quot;token&quot;:&quot;g:1&quot;,&quot;particle_id&quot;:&quot;img3-m134-p1&quot;,&quot;molecule_id&quot;:&quot;img3-m134&quot;,&quot;atom_order&quot;:7}]}</metadata>
  <rect x="0" y="0" width="109" height="33" fill="#f8f0d8"/>
  <image href="file:///C:/Users/HHHES/AppData/Roaming/com.voynichlab.datasetcreator/images/1/35a70f63-88ab-4986-b441-b78046a10087.jpg" x="-1890" y="-2196" width="2972" height="3766" opacity="0.92"/>
  <rect x="0.5" y="0.5" width="108" height="32" fill="none" stroke="#111827" stroke-width="1" opacity="0.35"/>
  <polyline points="16,17 16,16 17,16 18,16 19,16 20,16 21,16 22,16 23,16 24,16 25,16 26,16 27,16 28,16 30,16 32,17 34,17 35,17 37,17 38,17 39,17 40,17 41,17 42,17 43,17 44,17 45,17 46,17 47,17 48,17 49,17 49,16 50,16 51,16 52,16 53,16 55,17 56,17 57,17 59,17 60,17 62,17 63,17 65,17 66,17 67,17 69,17 70,17 71,17 72,17 74,17 76,17 77,17 79,17 80,17 81,17 82,17 83,17 84,17 85,17 86,17 88,17 89,17 90,17 91,17 92,17 93,17" fill="none" stroke="#7c3cff" stroke-width="3" stroke-linecap="round" stroke-linejoin="round" opacity="0.95">
    <title>3569 g:1</title>
  </polyline>
</svg>
