<?xml version="1.0" encoding="UTF-8"?>
<svg xmlns="http://www.w3.org/2000/svg" width="85" height="36" viewBox="0 0 85 36">
  <title>atom 3570 g:1</title>
  <metadata>{&quot;entityType&quot;:&quot;atom&quot;,&quot;entityId&quot;:&quot;3570&quot;,&quot;token&quot;:&quot;g:1&quot;,&quot;signature&quot;:&quot;g:1&quot;,&quot;imageName&quot;:&quot;page-003.jpg&quot;,&quot;imageId&quot;:3,&quot;bounds&quot;:{&quot;x&quot;:565,&quot;y&quot;:2239,&quot;w&quot;:85,&quot;h&quot;:36},&quot;atoms&quot;:[{&quot;id&quot;:3570,&quot;token&quot;:&quot;g:1&quot;,&quot;particle_id&quot;:&quot;img3-m142-p2&quot;,&quot;molecule_id&quot;:&quot;img3-m142&quot;,&quot;atom_order&quot;:2}]}</metadata>
  <rect x="0" y="0" width="85" height="36" fill="#f8f0d8"/>
  <image href="file:///C:/Users/HHHES/AppData/Roaming/com.voynichlab.datasetcreator/images/1/35a70f63-88ab-4986-b441-b78046a10087.jpg" x="-565" y="-2239" width="2972" height="3766" opacity="0.92"/>
  <rect x="0.5" y="0.5" width="84" height="35" fill="none" stroke="#111827" stroke-width="1" opacity="0.35"/>
  <polyline points="16,19 17,19 18,19 20,19 21,19 22,19 23,19 25,19 26,19 27,19 28,19 29,19 30,20 31,20 32,20 33,20 34,20 35,20 36,20 37,20 38,20 39,20 41,20 42,19 43,19 44,19 45,19 46,19 47,19 48,19 49,19 50,19 51,19 52,19 53,19 54,18 55,18 56,18 57,18 57,17 58,17 59,17 60,16 61,16 62,16 63,16 64,16 65,16 66,16 67,16 68,16 69,16 68,16" fill="none" stroke="#7c3cff" stroke-width="3" stroke-linecap="round" stroke-linejoin="round" opacity="0.95">
    <title>3570 g:1</title>
  </polyline>
</svg>
