<?xml version="1.0" encoding="UTF-8"?>
<svg xmlns="http://www.w3.org/2000/svg" width="325" height="65" viewBox="0 0 325 65">
  <title>atom 3777 g:1</title>
  <metadata>{&quot;entityType&quot;:&quot;atom&quot;,&quot;entityId&quot;:&quot;3777&quot;,&quot;token&quot;:&quot;g:1&quot;,&quot;signature&quot;:&quot;g:1&quot;,&quot;imageName&quot;:&quot;page-003.jpg&quot;,&quot;imageId&quot;:3,&quot;bounds&quot;:{&quot;x&quot;:556,&quot;y&quot;:2353,&quot;w&quot;:325,&quot;h&quot;:65},&quot;atoms&quot;:[{&quot;id&quot;:3777,&quot;token&quot;:&quot;g:1&quot;,&quot;particle_id&quot;:&quot;img3-m147-p1&quot;,&quot;molecule_id&quot;:&quot;img3-m147&quot;,&quot;atom_order&quot;:7}]}</metadata>
  <rect x="0" y="0" width="325" height="65" fill="#f8f0d8"/>
  <image href="file:///C:/Users/HHHES/AppData/Roaming/com.voynichlab.datasetcreator/images/1/35a70f63-88ab-4986-b441-b78046a10087.jpg" x="-556" y="-2353" width="2972" height="3766" opacity="0.92"/>
  <rect x="0.5" y="0.5" width="324" height="64" fill="none" stroke="#111827" stroke-width="1" opacity="0.35"/>
  <polyline points="16,16 17,16 18,16 18,17 19,17 20,17 21,18 22,18 23,18 24,18 24,19 25,19 26,19 27,19 28,20 29,20 30,20 30,21 31,21 33,21 35,22 37,22 37,23 40,23 41,23 43,24 44,24 45,24 46,24 47,25 48,25 49,25 50,25 51,25 52,25 53,25 54,26 55,26 56,26 57,26 58,26 59,27 61,27 62,27 63,27 65,27 66,27 67,27 68,27 70,27 71,27 72,28 73,28 75,28 76,28 77,28 79,29 80,29 81,29 83,29 84,29 85,29 86,29 87,30 89,30 90,30 91,30 92,30 93,30 94,30 95,30 96,30 98,30 100,31 102,31 103,31 104,31 105,31 106,31 108,31 110,31 111,32 112,32 113,32 114,32 115,32 116,32 117,32 118,32 119,33 120,33 122,33 124,33 126,33 128,33 130,33 132,34 133,34 134,35 135,35 137,35 138,35 140,36 143,36 144,36 145,36 146,36 147,36 148,36 150,37 152,37 153,37 155,37 156,38 157,38 158,38 160,38 162,38 164,38 165,38 166,38 167,38 168,38 169,38 170,39 171,39 172,39 173,39 175,39 177,40 179,40 181,40 183,40 185,41 187,41 188,41 190,42 191,42 192,42 193,42 194,42 195,42 196,42 197,43 198,43 200,43 201,43 202,43 203,43 204,43 205,43 206,43 207,43 208,43 209,43 210,43 211,43 212,43 213,43 214,43 215,43 216,43 217,43 218,43 219,43 220,43 221,44 222,44 223,44 224,44 225,44 226,44 227,44 228,45 229,45 231,45 232,45 233,45 235,45 236,45 237,45 238,45 239,45 240,45 241,45 242,45 243,45 244,45 245,45 246,45 247,45 248,45 250,45 252,45 253,45 255,45 256,45 257,46 258,46 259,46 260,46 261,46 262,46 263,46 264,46 266,47 267,47 268,47 269,47 270,47 271,47 271,48 272,48 273,48 274,48 275,48 276,48 277,48 278,48 279,48 280,48 281,48 281,49 282,49 283,49 284,49 285,49 286,49 287,49 288,49 289,49 290,49 291,49 292,49 293,49 294,49 295,49 296,49 297,49 297,48 298,48 299,48 300,47 301,47 302,47 303,46 304,46 304,45 305,45 306,45 307,45 308,45 309,45" fill="none" stroke="#7c3cff" stroke-width="3" stroke-linecap="round" stroke-linejoin="round" opacity="0.95">
    <title>3777 g:1</title>
  </polyline>
</svg>
