<?xml version="1.0" encoding="UTF-8"?>
<svg xmlns="http://www.w3.org/2000/svg" width="310" height="65" viewBox="0 0 310 65">
  <title>atom 3778 g:1</title>
  <metadata>{&quot;entityType&quot;:&quot;atom&quot;,&quot;entityId&quot;:&quot;3778&quot;,&quot;token&quot;:&quot;g:1&quot;,&quot;signature&quot;:&quot;g:1&quot;,&quot;imageName&quot;:&quot;page-003.jpg&quot;,&quot;imageId&quot;:3,&quot;bounds&quot;:{&quot;x&quot;:561,&quot;y&quot;:2382,&quot;w&quot;:310,&quot;h&quot;:65},&quot;atoms&quot;:[{&quot;id&quot;:3778,&quot;token&quot;:&quot;g:1&quot;,&quot;particle_id&quot;:&quot;img3-m147-p1&quot;,&quot;molecule_id&quot;:&quot;img3-m147&quot;,&quot;atom_order&quot;:9}]}</metadata>
  <rect x="0" y="0" width="310" height="65" fill="#f8f0d8"/>
  <image href="file:///C:/Users/HHHES/AppData/Roaming/com.voynichlab.datasetcreator/images/1/35a70f63-88ab-4986-b441-b78046a10087.jpg" x="-561" y="-2382" width="2972" height="3766" opacity="0.92"/>
  <rect x="0.5" y="0.5" width="309" height="64" fill="none" stroke="#111827" stroke-width="1" opacity="0.35"/>
  <polyline points="16,16 18,16 19,16 21,17 23,18 24,18 26,18 27,18 28,19 30,19 33,19 36,20 39,20 41,21 42,21 43,21 44,21 45,21 46,21 47,22 48,22 49,22 51,23 52,23 54,23 55,23 56,23 58,24 59,24 60,24 61,24 62,24 63,24 66,25 67,25 68,25 71,26 73,26 74,26 76,26 77,26 78,27 80,27 81,27 82,28 84,28 86,28 87,28 89,29 90,29 91,29 93,29 94,29 95,29 98,29 100,29 102,30 104,30 105,30 106,30 108,30 108,31 109,31 111,31 112,31 113,31 115,31 116,31 118,31 119,31 120,31 121,31 122,31 123,31 124,32 125,32 126,32 128,32 131,33 132,33 134,33 136,33 137,33 138,33 140,33 141,34 143,34 145,34 147,34 149,34 151,34 152,34 153,35 155,35 156,35 158,35 160,36 163,36 165,36 166,36 167,36 169,36 169,37 171,37 173,38 174,38 176,38 178,38 179,38 180,39 181,39 182,39 183,39 185,40 187,40 190,40 191,40 192,40 193,41 194,41 196,41 198,41 201,41 202,41 203,42 204,42 205,42 207,42 208,42 210,43 212,43 212,44 213,44 215,44 217,45 218,45 219,45 220,45 221,45 222,45 222,46 223,46 225,46 226,46 227,47 230,47 232,47 233,47 235,47 236,48 237,48 238,48 239,48 240,48 241,48 242,48 243,48 244,48 245,49 246,49 247,49 248,49 249,49 250,49 251,49 252,49 253,49 254,49 255,49 257,49 258,49 260,49 261,49 262,49 263,49 264,49 265,49 266,49 267,49 267,48 268,48 269,48 270,47 272,47 273,46 274,46 275,46 275,45 277,45 277,44 278,44 279,44 280,43 282,43 282,42 283,41 284,41 285,41 286,41 287,41 288,41 289,40 290,40 291,40 292,40 293,40 294,40" fill="none" stroke="#7c3cff" stroke-width="3" stroke-linecap="round" stroke-linejoin="round" opacity="0.95">
    <title>3778 g:1</title>
  </polyline>
</svg>
