<?xml version="1.0" encoding="UTF-8"?>
<svg xmlns="http://www.w3.org/2000/svg" width="103" height="33" viewBox="0 0 103 33">
  <title>atom 3892 g:1</title>
  <metadata>{&quot;entityType&quot;:&quot;atom&quot;,&quot;entityId&quot;:&quot;3892&quot;,&quot;token&quot;:&quot;g:1&quot;,&quot;signature&quot;:&quot;g:1&quot;,&quot;imageName&quot;:&quot;page-003.jpg&quot;,&quot;imageId&quot;:3,&quot;bounds&quot;:{&quot;x&quot;:2087,&quot;y&quot;:2638,&quot;w&quot;:103,&quot;h&quot;:33},&quot;atoms&quot;:[{&quot;id&quot;:3892,&quot;token&quot;:&quot;g:1&quot;,&quot;particle_id&quot;:&quot;img3-m161-p1&quot;,&quot;molecule_id&quot;:&quot;img3-m161&quot;,&quot;atom_order&quot;:6}]}</metadata>
  <rect x="0" y="0" width="103" height="33" fill="#f8f0d8"/>
  <image href="file:///C:/Users/HHHES/AppData/Roaming/com.voynichlab.datasetcreator/images/1/35a70f63-88ab-4986-b441-b78046a10087.jpg" x="-2087" y="-2638" width="2972" height="3766" opacity="0.92"/>
  <rect x="0.5" y="0.5" width="102" height="32" fill="none" stroke="#111827" stroke-width="1" opacity="0.35"/>
  <polyline points="16,17 17,17 18,17 19,17 20,17 21,17 22,17 23,17 25,17 26,17 27,17 28,17 29,17 31,16 32,16 33,16 34,16 35,16 36,16 37,16 39,16 40,16 41,16 42,16 43,16 45,16 46,16 47,16 48,16 49,16 50,16 52,16 53,16 54,16 55,16 56,16 57,16 58,16 60,16 61,16 62,16 63,16 64,16 65,16 66,16 67,16 68,16 69,16 70,16 71,16 72,16 73,16 74,16 75,16 76,16 77,16 78,16 79,16 80,16 81,16 82,16 83,16 84,16 85,16 86,16 87,16" fill="none" stroke="#7c3cff" stroke-width="3" stroke-linecap="round" stroke-linejoin="round" opacity="0.95">
    <title>3892 g:1</title>
  </polyline>
</svg>
