<?xml version="1.0" encoding="UTF-8"?>
<svg xmlns="http://www.w3.org/2000/svg" width="118" height="37" viewBox="0 0 118 37">
  <title>atom 3926 g:1</title>
  <metadata>{&quot;entityType&quot;:&quot;atom&quot;,&quot;entityId&quot;:&quot;3926&quot;,&quot;token&quot;:&quot;g:1&quot;,&quot;signature&quot;:&quot;g:1&quot;,&quot;imageName&quot;:&quot;page-003.jpg&quot;,&quot;imageId&quot;:3,&quot;bounds&quot;:{&quot;x&quot;:1664,&quot;y&quot;:2720,&quot;w&quot;:118,&quot;h&quot;:37},&quot;atoms&quot;:[{&quot;id&quot;:3926,&quot;token&quot;:&quot;g:1&quot;,&quot;particle_id&quot;:&quot;img3-m167-p1&quot;,&quot;molecule_id&quot;:&quot;img3-m167&quot;,&quot;atom_order&quot;:7}]}</metadata>
  <rect x="0" y="0" width="118" height="37" fill="#f8f0d8"/>
  <image href="file:///C:/Users/HHHES/AppData/Roaming/com.voynichlab.datasetcreator/images/1/35a70f63-88ab-4986-b441-b78046a10087.jpg" x="-1664" y="-2720" width="2972" height="3766" opacity="0.92"/>
  <rect x="0.5" y="0.5" width="117" height="36" fill="none" stroke="#111827" stroke-width="1" opacity="0.35"/>
  <polyline points="16,16 17,16 18,16 19,16 20,16 21,16 22,16 23,16 24,16 26,17 27,17 28,17 29,17 30,17 31,17 32,17 34,18 35,18 37,18 39,18 40,18 42,18 45,18 46,18 48,19 50,19 52,19 53,19 56,19 58,19 60,19 61,19 63,19 65,19 66,19 68,19 71,20 72,20 73,20 75,20 76,20 77,20 78,20 80,20 81,20 82,20 83,20 84,20 85,20 86,20 87,21 88,21 89,21 90,21 91,21 92,21 93,21 94,21 95,21 96,21 97,21 98,21 99,21 100,21 101,21 102,21" fill="none" stroke="#7c3cff" stroke-width="3" stroke-linecap="round" stroke-linejoin="round" opacity="0.95">
    <title>3926 g:1</title>
  </polyline>
</svg>
