<?xml version="1.0" encoding="UTF-8"?>
<svg xmlns="http://www.w3.org/2000/svg" width="69" height="33" viewBox="0 0 69 33">
  <title>atom 4034 g:1</title>
  <metadata>{&quot;entityType&quot;:&quot;atom&quot;,&quot;entityId&quot;:&quot;4034&quot;,&quot;token&quot;:&quot;g:1&quot;,&quot;signature&quot;:&quot;g:1&quot;,&quot;imageName&quot;:&quot;page-003.jpg&quot;,&quot;imageId&quot;:3,&quot;bounds&quot;:{&quot;x&quot;:2088,&quot;y&quot;:2819,&quot;w&quot;:69,&quot;h&quot;:33},&quot;atoms&quot;:[{&quot;id&quot;:4034,&quot;token&quot;:&quot;g:1&quot;,&quot;particle_id&quot;:&quot;img3-m178-p4&quot;,&quot;molecule_id&quot;:&quot;img3-m178&quot;,&quot;atom_order&quot;:2}]}</metadata>
  <rect x="0" y="0" width="69" height="33" fill="#f8f0d8"/>
  <image href="file:///C:/Users/HHHES/AppData/Roaming/com.voynichlab.datasetcreator/images/1/35a70f63-88ab-4986-b441-b78046a10087.jpg" x="-2088" y="-2819" width="2972" height="3766" opacity="0.92"/>
  <rect x="0.5" y="0.5" width="68" height="32" fill="none" stroke="#111827" stroke-width="1" opacity="0.35"/>
  <polyline points="16,16 17,16 18,16 19,16 20,16 21,16 22,16 23,16 24,16 25,16 26,16 27,16 28,16 30,16 31,16 32,16 33,16 35,16 36,16 37,17 38,17 39,17 40,17 42,17 43,17 44,17 45,17 46,17 47,17 48,16 49,16 50,16 51,16 52,16 53,16" fill="none" stroke="#7c3cff" stroke-width="3" stroke-linecap="round" stroke-linejoin="round" opacity="0.95">
    <title>4034 g:1</title>
  </polyline>
</svg>
