<?xml version="1.0" encoding="UTF-8"?>
<svg xmlns="http://www.w3.org/2000/svg" width="64" height="36" viewBox="0 0 64 36">
  <title>atom 4143 g:1</title>
  <metadata>{&quot;entityType&quot;:&quot;atom&quot;,&quot;entityId&quot;:&quot;4143&quot;,&quot;token&quot;:&quot;g:1&quot;,&quot;signature&quot;:&quot;g:1&quot;,&quot;imageName&quot;:&quot;page-003.jpg&quot;,&quot;imageId&quot;:3,&quot;bounds&quot;:{&quot;x&quot;:564,&quot;y&quot;:2849,&quot;w&quot;:64,&quot;h&quot;:36},&quot;atoms&quot;:[{&quot;id&quot;:4143,&quot;token&quot;:&quot;g:1&quot;,&quot;particle_id&quot;:&quot;img3-m185-p2&quot;,&quot;molecule_id&quot;:&quot;img3-m185&quot;,&quot;atom_order&quot;:2}]}</metadata>
  <rect x="0" y="0" width="64" height="36" fill="#f8f0d8"/>
  <image href="file:///C:/Users/HHHES/AppData/Roaming/com.voynichlab.datasetcreator/images/1/35a70f63-88ab-4986-b441-b78046a10087.jpg" x="-564" y="-2849" width="2972" height="3766" opacity="0.92"/>
  <rect x="0.5" y="0.5" width="63" height="35" fill="none" stroke="#111827" stroke-width="1" opacity="0.35"/>
  <polyline points="16,16 17,16 18,16 20,16 23,17 27,18 29,18 31,18 32,18 32,19 33,19 34,19 35,19 36,19 37,19 38,19 39,19 40,19 42,19 43,19 45,20 46,20 47,20 48,20" fill="none" stroke="#7c3cff" stroke-width="3" stroke-linecap="round" stroke-linejoin="round" opacity="0.95">
    <title>4143 g:1</title>
  </polyline>
</svg>
