<?xml version="1.0" encoding="UTF-8"?>
<svg xmlns="http://www.w3.org/2000/svg" width="113" height="38" viewBox="0 0 113 38">
  <title>atom 4145 g:1</title>
  <metadata>{&quot;entityType&quot;:&quot;atom&quot;,&quot;entityId&quot;:&quot;4145&quot;,&quot;token&quot;:&quot;g:1&quot;,&quot;signature&quot;:&quot;g:1&quot;,&quot;imageName&quot;:&quot;page-003.jpg&quot;,&quot;imageId&quot;:3,&quot;bounds&quot;:{&quot;x&quot;:938,&quot;y&quot;:2865,&quot;w&quot;:113,&quot;h&quot;:38},&quot;atoms&quot;:[{&quot;id&quot;:4145,&quot;token&quot;:&quot;g:1&quot;,&quot;particle_id&quot;:&quot;img3-m181-p1&quot;,&quot;molecule_id&quot;:&quot;img3-m181&quot;,&quot;atom_order&quot;:6}]}</metadata>
  <rect x="0" y="0" width="113" height="38" fill="#f8f0d8"/>
  <image href="file:///C:/Users/HHHES/AppData/Roaming/com.voynichlab.datasetcreator/images/1/35a70f63-88ab-4986-b441-b78046a10087.jpg" x="-938" y="-2865" width="2972" height="3766" opacity="0.92"/>
  <rect x="0.5" y="0.5" width="112" height="37" fill="none" stroke="#111827" stroke-width="1" opacity="0.35"/>
  <polyline points="16,22 17,22 18,22 19,22 20,22 21,22 22,22 23,22 24,22 26,22 27,22 28,22 29,22 30,22 31,22 32,22 33,22 35,22 36,22 37,22 38,22 39,22 40,22 41,22 42,22 43,22 45,22 46,22 46,21 47,21 48,21 49,21 50,21 51,20 52,20 53,20 54,20 55,20 56,20 57,20 58,20 60,20 61,20 62,20 63,20 65,19 66,19 68,19 69,19 71,19 72,19 73,19 74,19 75,19 76,19 77,19 78,18 79,18 80,18 81,18 82,18 83,18 84,18 85,18 86,18 87,18 88,18 89,18 90,18 91,17 92,17 93,17 94,17 94,16 95,16 96,16 97,16" fill="none" stroke="#7c3cff" stroke-width="3" stroke-linecap="round" stroke-linejoin="round" opacity="0.95">
    <title>4145 g:1</title>
  </polyline>
</svg>
