<?xml version="1.0" encoding="UTF-8"?>
<svg xmlns="http://www.w3.org/2000/svg" width="57" height="33" viewBox="0 0 57 33">
  <title>atom 4146 g:1</title>
  <metadata>{&quot;entityType&quot;:&quot;atom&quot;,&quot;entityId&quot;:&quot;4146&quot;,&quot;token&quot;:&quot;g:1&quot;,&quot;signature&quot;:&quot;g:1&quot;,&quot;imageName&quot;:&quot;page-003.jpg&quot;,&quot;imageId&quot;:3,&quot;bounds&quot;:{&quot;x&quot;:1044,&quot;y&quot;:2863,&quot;w&quot;:57,&quot;h&quot;:33},&quot;atoms&quot;:[{&quot;id&quot;:4146,&quot;token&quot;:&quot;g:1&quot;,&quot;particle_id&quot;:&quot;img3-m182-p3&quot;,&quot;molecule_id&quot;:&quot;img3-m182&quot;,&quot;atom_order&quot;:2}]}</metadata>
  <rect x="0" y="0" width="57" height="33" fill="#f8f0d8"/>
  <image href="file:///C:/Users/HHHES/AppData/Roaming/com.voynichlab.datasetcreator/images/1/35a70f63-88ab-4986-b441-b78046a10087.jpg" x="-1044" y="-2863" width="2972" height="3766" opacity="0.92"/>
  <rect x="0.5" y="0.5" width="56" height="32" fill="none" stroke="#111827" stroke-width="1" opacity="0.35"/>
  <polyline points="16,17 17,17 18,17 19,17 20,17 21,17 22,17 23,17 24,17 25,17 26,17 27,17 28,17 29,17 30,17 31,17 32,17 33,17 35,17 37,17 38,16 39,16 40,16 41,16" fill="none" stroke="#7c3cff" stroke-width="3" stroke-linecap="round" stroke-linejoin="round" opacity="0.95">
    <title>4146 g:1</title>
  </polyline>
</svg>
