<?xml version="1.0" encoding="UTF-8"?>
<svg xmlns="http://www.w3.org/2000/svg" width="74" height="35" viewBox="0 0 74 35">
  <title>atom 4181 g:1</title>
  <metadata>{&quot;entityType&quot;:&quot;atom&quot;,&quot;entityId&quot;:&quot;4181&quot;,&quot;token&quot;:&quot;g:1&quot;,&quot;signature&quot;:&quot;g:1&quot;,&quot;imageName&quot;:&quot;page-003.jpg&quot;,&quot;imageId&quot;:3,&quot;bounds&quot;:{&quot;x&quot;:1302,&quot;y&quot;:2958,&quot;w&quot;:74,&quot;h&quot;:35},&quot;atoms&quot;:[{&quot;id&quot;:4181,&quot;token&quot;:&quot;g:1&quot;,&quot;particle_id&quot;:&quot;img3-m195-p1&quot;,&quot;molecule_id&quot;:&quot;img3-m195&quot;,&quot;atom_order&quot;:2}]}</metadata>
  <rect x="0" y="0" width="74" height="35" fill="#f8f0d8"/>
  <image href="file:///C:/Users/HHHES/AppData/Roaming/com.voynichlab.datasetcreator/images/1/35a70f63-88ab-4986-b441-b78046a10087.jpg" x="-1302" y="-2958" width="2972" height="3766" opacity="0.92"/>
  <rect x="0.5" y="0.5" width="73" height="34" fill="none" stroke="#111827" stroke-width="1" opacity="0.35"/>
  <polyline points="16,16 17,16 18,16 19,16 20,16 21,16 22,16 23,16 24,16 25,17 26,17 27,17 28,17 30,17 31,17 32,17 33,18 34,18 35,18 36,18 37,18 38,18 39,18 40,18 41,18 42,18 43,18 45,18 46,18 47,18 48,18 50,18 51,18 52,18 53,18 54,18 54,19 55,19 56,19 57,19 58,19" fill="none" stroke="#7c3cff" stroke-width="3" stroke-linecap="round" stroke-linejoin="round" opacity="0.95">
    <title>4181 g:1</title>
  </polyline>
</svg>
