<?xml version="1.0" encoding="UTF-8"?>
<svg xmlns="http://www.w3.org/2000/svg" width="47" height="72" viewBox="0 0 47 72">
  <title>atom 2810 h:2</title>
  <metadata>{&quot;entityType&quot;:&quot;atom&quot;,&quot;entityId&quot;:&quot;2810&quot;,&quot;token&quot;:&quot;h:2&quot;,&quot;signature&quot;:&quot;h:2&quot;,&quot;imageName&quot;:&quot;page-094.jpg&quot;,&quot;imageId&quot;:94,&quot;bounds&quot;:{&quot;x&quot;:2058,&quot;y&quot;:711,&quot;w&quot;:47,&quot;h&quot;:72},&quot;atoms&quot;:[{&quot;id&quot;:2810,&quot;token&quot;:&quot;h:2&quot;,&quot;particle_id&quot;:&quot;img94-m15-p1&quot;,&quot;molecule_id&quot;:&quot;img94-m15&quot;,&quot;atom_order&quot;:3}]}</metadata>
  <rect x="0" y="0" width="47" height="72" fill="#f8f0d8"/>
  
  <rect x="0.5" y="0.5" width="46" height="71" fill="none" stroke="#111827" stroke-width="1" opacity="0.35"/>
  <polyline points="26,56 26,55 27,55 27,54 28,54 28,53 28,52 29,52 29,51 29,50 30,50 30,49 30,48 29,48 29,47 29,46 29,45 28,44 28,43 28,42 27,42 27,41 26,41 26,40 25,39 24,39 24,38 23,38 23,37 22,37 22,36 21,35 21,34 20,34 20,33 19,33 19,32 18,32 18,31 18,30 17,30 17,29 17,28 16,28 16,27 16,26 16,25 16,24 16,23 17,23 17,22 17,21 18,21 18,20 19,20 19,19 20,18 21,18 22,17 23,17 24,17 25,17 26,17 27,16 28,16 29,16 30,16 31,16" fill="none" stroke="#ff8c00" stroke-width="3" stroke-linecap="round" stroke-linejoin="round" opacity="0.95">
    <title>2810 h:2</title>
  </polyline>
</svg>
