<?xml version="1.0" encoding="UTF-8"?>
<svg xmlns="http://www.w3.org/2000/svg" width="45" height="65" viewBox="0 0 45 65">
  <title>atom 3180 h:2</title>
  <metadata>{&quot;entityType&quot;:&quot;atom&quot;,&quot;entityId&quot;:&quot;3180&quot;,&quot;token&quot;:&quot;h:2&quot;,&quot;signature&quot;:&quot;h:2&quot;,&quot;imageName&quot;:&quot;page-003.jpg&quot;,&quot;imageId&quot;:3,&quot;bounds&quot;:{&quot;x&quot;:548,&quot;y&quot;:1834,&quot;w&quot;:45,&quot;h&quot;:65},&quot;atoms&quot;:[{&quot;id&quot;:3180,&quot;token&quot;:&quot;h:2&quot;,&quot;particle_id&quot;:&quot;img3-m102-p1&quot;,&quot;molecule_id&quot;:&quot;img3-m102&quot;,&quot;atom_order&quot;:3}]}</metadata>
  <rect x="0" y="0" width="45" height="65" fill="#f8f0d8"/>
  
  <rect x="0.5" y="0.5" width="44" height="64" fill="none" stroke="#111827" stroke-width="1" opacity="0.35"/>
  <polyline points="28,49 29,49 29,48 29,47 29,46 29,45 29,44 29,43 29,42 29,41 28,41 28,40 28,39 27,39 27,38 27,37 27,36 26,36 26,35 25,34 25,33 24,33 24,32 23,32 23,31 22,31 22,30 21,30 21,29 20,28 20,27 19,27 19,26 18,26 18,25 18,24 17,24 17,23 16,22 16,21 16,20 16,19 17,18 17,17 17,16 18,16" fill="none" stroke="#ff8c00" stroke-width="3" stroke-linecap="round" stroke-linejoin="round" opacity="0.95">
    <title>3180 h:2</title>
  </polyline>
</svg>
