<?xml version="1.0" encoding="UTF-8"?>
<svg xmlns="http://www.w3.org/2000/svg" width="48" height="60" viewBox="0 0 48 60">
  <title>atom 3683 n:1</title>
  <metadata>{&quot;entityType&quot;:&quot;atom&quot;,&quot;entityId&quot;:&quot;3683&quot;,&quot;token&quot;:&quot;n:1&quot;,&quot;signature&quot;:&quot;n:1&quot;,&quot;imageName&quot;:&quot;page-003.jpg&quot;,&quot;imageId&quot;:3,&quot;bounds&quot;:{&quot;x&quot;:737,&quot;y&quot;:1809,&quot;w&quot;:48,&quot;h&quot;:60},&quot;atoms&quot;:[{&quot;id&quot;:3683,&quot;token&quot;:&quot;n:1&quot;,&quot;particle_id&quot;:&quot;img3-m104-p1&quot;,&quot;molecule_id&quot;:&quot;img3-m104&quot;,&quot;atom_order&quot;:1}]}</metadata>
  <rect x="0" y="0" width="48" height="60" fill="#f8f0d8"/>

  <rect x="0.5" y="0.5" width="47" height="59" fill="none" stroke="#111827" stroke-width="1" opacity="0.35"/>
  <polyline points="23,31 22,31 21,31 21,32 20,32 19,32 18,32 17,32 17,31 17,30 16,30 16,29 16,28 16,27 16,26 17,26 17,25 17,24 17,23 17,22 18,22 18,21 19,20 20,19 21,19 22,18 23,17 24,17 24,16 25,16 26,16 27,16 28,16 29,17 30,17 30,18 31,18 31,19 31,20 32,20 32,21 32,22 32,23 32,24 32,25 32,26 32,27 32,28 32,29 32,30 32,31 32,32 32,33 32,34 32,35 32,36 32,37 32,38 32,39 32,40 32,41 31,42 31,43 30,43 30,44" fill="none" stroke="#f92f59" stroke-width="3" stroke-linecap="round" stroke-linejoin="round" opacity="0.95">
    <title>3683 n:1</title>
  </polyline>
</svg>
