<?xml version="1.0" encoding="UTF-8"?>
<svg xmlns="http://www.w3.org/2000/svg" width="44" height="57" viewBox="0 0 44 57">
  <title>atom 3689 n:1</title>
  <metadata>{&quot;entityType&quot;:&quot;atom&quot;,&quot;entityId&quot;:&quot;3689&quot;,&quot;token&quot;:&quot;n:1&quot;,&quot;signature&quot;:&quot;n:1&quot;,&quot;imageName&quot;:&quot;page-003.jpg&quot;,&quot;imageId&quot;:3,&quot;bounds&quot;:{&quot;x&quot;:1494,&quot;y&quot;:1967,&quot;w&quot;:44,&quot;h&quot;:57},&quot;atoms&quot;:[{&quot;id&quot;:3689,&quot;token&quot;:&quot;n:1&quot;,&quot;particle_id&quot;:&quot;img3-m119-p2&quot;,&quot;molecule_id&quot;:&quot;img3-m119&quot;,&quot;atom_order&quot;:1}]}</metadata>
  <rect x="0" y="0" width="44" height="57" fill="#f8f0d8"/>

  <rect x="0.5" y="0.5" width="43" height="56" fill="none" stroke="#111827" stroke-width="1" opacity="0.35"/>
  <polyline points="19,29 19,30 18,30 17,29 17,28 17,27 16,26 16,25 17,24 17,23 17,22 17,21 18,21 18,20 19,19 19,18 20,18 21,18 21,17 22,17 23,17 24,16 25,17 26,17 26,18 26,19 27,19 27,20 27,21 27,22 27,23 28,23 28,24 28,25 27,26 27,27 27,28 27,29 27,30 27,31 26,31 26,32 26,33 25,34 25,35 24,36 23,37 23,38 23,39 22,39 22,40 21,40 21,41" fill="none" stroke="#f92f59" stroke-width="3" stroke-linecap="round" stroke-linejoin="round" opacity="0.95">
    <title>3689 n:1</title>
  </polyline>
</svg>
