<?xml version="1.0" encoding="UTF-8"?>
<svg xmlns="http://www.w3.org/2000/svg" width="63" height="59" viewBox="0 0 63 59">
  <title>atom 3697 n:1</title>
  <metadata>{&quot;entityType&quot;:&quot;atom&quot;,&quot;entityId&quot;:&quot;3697&quot;,&quot;token&quot;:&quot;n:1&quot;,&quot;signature&quot;:&quot;n:1&quot;,&quot;imageName&quot;:&quot;page-094.jpg&quot;,&quot;imageId&quot;:94,&quot;bounds&quot;:{&quot;x&quot;:866,&quot;y&quot;:522,&quot;w&quot;:63,&quot;h&quot;:59},&quot;atoms&quot;:[{&quot;id&quot;:3697,&quot;token&quot;:&quot;n:1&quot;,&quot;particle_id&quot;:&quot;img94-m1-p2&quot;,&quot;molecule_id&quot;:&quot;img94-m1&quot;,&quot;atom_order&quot;:1}]}</metadata>
  <rect x="0" y="0" width="63" height="59" fill="#f8f0d8"/>

  <rect x="0.5" y="0.5" width="62" height="58" fill="none" stroke="#111827" stroke-width="1" opacity="0.35"/>
  <polyline points="16,40 16,39 16,38 16,37 17,36 17,35 17,34 18,33 18,32 19,32 19,31 19,30 20,29 20,28 20,27 21,27 21,26 21,25 22,25 23,24 23,23 24,23 25,22 25,21 26,21 27,20 28,20 29,19 30,18 31,18 32,17 33,17 34,16 35,16 36,17 37,17 38,18 39,19 40,20 41,20 41,21 42,21 43,22 45,23 46,23 46,24 47,24 47,25 47,26 47,27 47,28 47,29 47,30 47,31 47,32 47,33 47,34 47,35 46,36 46,37 46,38 45,38 45,39 44,39 44,40 43,40 43,41 42,42 41,42 41,43" fill="none" stroke="#f92f59" stroke-width="3" stroke-linecap="round" stroke-linejoin="round" opacity="0.95">
    <title>3697 n:1</title>
  </polyline>
</svg>
