<?xml version="1.0" encoding="UTF-8"?>
<svg xmlns="http://www.w3.org/2000/svg" width="45" height="54" viewBox="0 0 45 54">
  <title>atom 3703 n:1</title>
  <metadata>{&quot;entityType&quot;:&quot;atom&quot;,&quot;entityId&quot;:&quot;3703&quot;,&quot;token&quot;:&quot;n:1&quot;,&quot;signature&quot;:&quot;n:1&quot;,&quot;imageName&quot;:&quot;page-094.jpg&quot;,&quot;imageId&quot;:94,&quot;bounds&quot;:{&quot;x&quot;:1082,&quot;y&quot;:787,&quot;w&quot;:45,&quot;h&quot;:54},&quot;atoms&quot;:[{&quot;id&quot;:3703,&quot;token&quot;:&quot;n:1&quot;,&quot;particle_id&quot;:&quot;img94-m27-p1&quot;,&quot;molecule_id&quot;:&quot;img94-m27&quot;,&quot;atom_order&quot;:1}]}</metadata>
  <rect x="0" y="0" width="45" height="54" fill="#f8f0d8"/>

  <rect x="0.5" y="0.5" width="44" height="53" fill="none" stroke="#111827" stroke-width="1" opacity="0.35"/>
  <polyline points="17,29 17,28 17,27 17,26 18,25 18,24 18,23 18,22 18,21 19,21 19,20 20,19 20,18 21,18 21,17 22,17 23,16 24,16 25,16 26,16 27,16 28,16 28,17 28,18 28,19 29,19 29,20 29,21 28,21 28,22 28,23 28,24 28,25 28,26 28,27 28,28 27,28 27,29 27,30 26,31 25,32 24,32 24,33 23,33 22,34 21,34 21,35 20,35 19,36 18,36 17,36 17,37 17,38 16,38" fill="none" stroke="#f92f59" stroke-width="3" stroke-linecap="round" stroke-linejoin="round" opacity="0.95">
    <title>3703 n:1</title>
  </polyline>
</svg>
