<?xml version="1.0" encoding="UTF-8"?>
<svg xmlns="http://www.w3.org/2000/svg" width="59" height="50" viewBox="0 0 59 50">
  <title>atom 3704 n:1</title>
  <metadata>{&quot;entityType&quot;:&quot;atom&quot;,&quot;entityId&quot;:&quot;3704&quot;,&quot;token&quot;:&quot;n:1&quot;,&quot;signature&quot;:&quot;n:1&quot;,&quot;imageName&quot;:&quot;page-094.jpg&quot;,&quot;imageId&quot;:94,&quot;bounds&quot;:{&quot;x&quot;:884,&quot;y&quot;:853,&quot;w&quot;:59,&quot;h&quot;:50},&quot;atoms&quot;:[{&quot;id&quot;:3704,&quot;token&quot;:&quot;n:1&quot;,&quot;particle_id&quot;:&quot;img94-m29-p2&quot;,&quot;molecule_id&quot;:&quot;img94-m29&quot;,&quot;atom_order&quot;:1}]}</metadata>
  <rect x="0" y="0" width="59" height="50" fill="#f8f0d8"/>

  <rect x="0.5" y="0.5" width="58" height="49" fill="none" stroke="#111827" stroke-width="1" opacity="0.35"/>
  <polyline points="23,33 22,33 22,34 21,34 20,34 19,34 19,33 18,33 17,33 17,32 16,32 16,31 16,30 16,29 16,28 16,27 16,26 16,25 17,24 18,23 19,22 20,22 21,21 22,21 23,20 24,20 25,19 26,19 27,18 28,18 29,17 30,17 31,17 32,17 33,17 33,16 34,16 35,16 36,16 37,16 38,16 39,16 39,17 40,17 41,18 42,18 42,19 43,19 43,20 43,21 43,22 43,23 43,24 42,24 42,25 42,26 42,27 41,28 41,29" fill="none" stroke="#f92f59" stroke-width="3" stroke-linecap="round" stroke-linejoin="round" opacity="0.95">
    <title>3704 n:1</title>
  </polyline>
</svg>
