<?xml version="1.0" encoding="UTF-8"?>
<svg xmlns="http://www.w3.org/2000/svg" width="52" height="64" viewBox="0 0 52 64">
  <title>atom 5454 n:1</title>
  <metadata>{&quot;entityType&quot;:&quot;atom&quot;,&quot;entityId&quot;:&quot;5454&quot;,&quot;token&quot;:&quot;n:1&quot;,&quot;signature&quot;:&quot;n:1&quot;,&quot;imageName&quot;:&quot;page-004.jpg&quot;,&quot;imageId&quot;:4,&quot;bounds&quot;:{&quot;x&quot;:2270,&quot;y&quot;:2376,&quot;w&quot;:52,&quot;h&quot;:64},&quot;atoms&quot;:[{&quot;id&quot;:5454,&quot;token&quot;:&quot;n:1&quot;,&quot;particle_id&quot;:&quot;img4-m42-p1&quot;,&quot;molecule_id&quot;:&quot;img4-m42&quot;,&quot;atom_order&quot;:1}]}</metadata>
  <rect x="0" y="0" width="52" height="64" fill="#f8f0d8"/>

  <rect x="0.5" y="0.5" width="51" height="63" fill="none" stroke="#111827" stroke-width="1" opacity="0.35"/>
  <polyline points="18,35 18,34 17,34 17,33 17,32 17,31 16,30 16,29 17,28 17,27 17,26 18,25 18,24 18,23 19,22 20,21 21,21 21,20 22,19 23,18 24,18 25,17 26,17 27,16 28,16 29,16 30,16 31,16 32,16 32,17 33,17 33,18 34,18 34,19 35,20 35,21 35,22 35,23 36,24 36,25 36,26 36,27 36,28 35,28 35,29 35,30 34,31 34,32 34,33 33,35 32,35 32,36 32,37 31,38 31,39 30,40 29,41 28,42 28,43 27,43 27,44 26,44 26,45 25,45 25,46 24,46 24,47 23,47 23,48" fill="none" stroke="#f92f59" stroke-width="3" stroke-linecap="round" stroke-linejoin="round" opacity="0.95">
    <title>5454 n:1</title>
  </polyline>
</svg>
