<?xml version="1.0" encoding="UTF-8"?>
<svg xmlns="http://www.w3.org/2000/svg" width="49" height="62" viewBox="0 0 49 62">
  <title>atom 5455 n:1</title>
  <metadata>{&quot;entityType&quot;:&quot;atom&quot;,&quot;entityId&quot;:&quot;5455&quot;,&quot;token&quot;:&quot;n:1&quot;,&quot;signature&quot;:&quot;n:1&quot;,&quot;imageName&quot;:&quot;page-004.jpg&quot;,&quot;imageId&quot;:4,&quot;bounds&quot;:{&quot;x&quot;:2361,&quot;y&quot;:2379,&quot;w&quot;:49,&quot;h&quot;:62},&quot;atoms&quot;:[{&quot;id&quot;:5455,&quot;token&quot;:&quot;n:1&quot;,&quot;particle_id&quot;:&quot;img4-m42-p4&quot;,&quot;molecule_id&quot;:&quot;img4-m42&quot;,&quot;atom_order&quot;:1}]}</metadata>
  <rect x="0" y="0" width="49" height="62" fill="#f8f0d8"/>

  <rect x="0.5" y="0.5" width="48" height="61" fill="none" stroke="#111827" stroke-width="1" opacity="0.35"/>
  <polyline points="20,32 20,31 20,30 20,29 20,28 20,27 20,26 20,25 21,24 21,23 21,22 22,21 22,20 22,19 23,18 24,17 25,17 25,16 26,16 27,16 28,16 29,16 29,17 30,17 31,18 32,18 32,19 32,20 33,20 33,21 33,22 33,23 33,24 33,25 33,26 33,27 32,27 32,28 32,29 31,29 31,30 31,31 30,32 30,33 29,34 29,36 28,36 28,37 27,38 26,39 26,40 24,41 23,41 22,42 21,43 20,43 19,44 18,44 18,45 17,45 16,46" fill="none" stroke="#f92f59" stroke-width="3" stroke-linecap="round" stroke-linejoin="round" opacity="0.95">
    <title>5455 n:1</title>
  </polyline>
</svg>
