<?xml version="1.0" encoding="UTF-8"?>
<svg xmlns="http://www.w3.org/2000/svg" width="45" height="58" viewBox="0 0 45 58">
  <title>atom 6487 n:1</title>
  <metadata>{&quot;entityType&quot;:&quot;atom&quot;,&quot;entityId&quot;:&quot;6487&quot;,&quot;token&quot;:&quot;n:1&quot;,&quot;signature&quot;:&quot;n:1&quot;,&quot;imageName&quot;:&quot;page-005.jpg&quot;,&quot;imageId&quot;:5,&quot;bounds&quot;:{&quot;x&quot;:968,&quot;y&quot;:804,&quot;w&quot;:45,&quot;h&quot;:58},&quot;atoms&quot;:[{&quot;id&quot;:6487,&quot;token&quot;:&quot;n:1&quot;,&quot;particle_id&quot;:&quot;img5-m34-p1&quot;,&quot;molecule_id&quot;:&quot;img5-m34&quot;,&quot;atom_order&quot;:1}]}</metadata>
  <rect x="0" y="0" width="45" height="58" fill="#f8f0d8"/>

  <rect x="0.5" y="0.5" width="44" height="57" fill="none" stroke="#111827" stroke-width="1" opacity="0.35"/>
  <polyline points="16,26 16,25 16,24 17,23 17,22 18,21 19,20 20,19 21,18 22,18 24,17 24,16 25,16 26,16 27,16 28,16 29,16 29,17 29,18 29,19 29,20 29,21 29,22 29,24 29,25 29,26 29,27 29,28 29,29 28,30 28,31 28,32 27,33 27,34 26,34 25,35 24,36 24,37 23,37 22,38 21,38 21,39 20,40 19,41 18,41 18,42" fill="none" stroke="#f92f59" stroke-width="3" stroke-linecap="round" stroke-linejoin="round" opacity="0.95">
    <title>6487 n:1</title>
  </polyline>
</svg>
