<?xml version="1.0" encoding="UTF-8"?>
<svg xmlns="http://www.w3.org/2000/svg" width="50" height="56" viewBox="0 0 50 56">
  <title>atom 6493 n:1</title>
  <metadata>{&quot;entityType&quot;:&quot;atom&quot;,&quot;entityId&quot;:&quot;6493&quot;,&quot;token&quot;:&quot;n:1&quot;,&quot;signature&quot;:&quot;n:1&quot;,&quot;imageName&quot;:&quot;page-005.jpg&quot;,&quot;imageId&quot;:5,&quot;bounds&quot;:{&quot;x&quot;:1938,&quot;y&quot;:2423,&quot;w&quot;:50,&quot;h&quot;:56},&quot;atoms&quot;:[{&quot;id&quot;:6493,&quot;token&quot;:&quot;n:1&quot;,&quot;particle_id&quot;:&quot;img5-m51-p1&quot;,&quot;molecule_id&quot;:&quot;img5-m51&quot;,&quot;atom_order&quot;:1}]}</metadata>
  <rect x="0" y="0" width="50" height="56" fill="#f8f0d8"/>

  <rect x="0.5" y="0.5" width="49" height="55" fill="none" stroke="#111827" stroke-width="1" opacity="0.35"/>
  <polyline points="16,36 16,35 16,34 16,32 17,30 17,27 18,25 20,23 20,21 21,21 22,21 22,20 24,18 25,18 26,17 27,17 28,16 29,16 30,16 31,16 31,18 32,19 33,21 34,22 34,23 34,24 34,26 34,27 34,29 33,29 33,30 32,32 31,33 30,35 29,36 29,37 28,38 27,38 26,38 25,39 25,40" fill="none" stroke="#f92f59" stroke-width="3" stroke-linecap="round" stroke-linejoin="round" opacity="0.95">
    <title>6493 n:1</title>
  </polyline>
</svg>
