<?xml version="1.0" encoding="UTF-8"?>
<svg xmlns="http://www.w3.org/2000/svg" width="50" height="65" viewBox="0 0 50 65">
  <title>atom 6501 n:1</title>
  <metadata>{&quot;entityType&quot;:&quot;atom&quot;,&quot;entityId&quot;:&quot;6501&quot;,&quot;token&quot;:&quot;n:1&quot;,&quot;signature&quot;:&quot;n:1&quot;,&quot;imageName&quot;:&quot;page-005.jpg&quot;,&quot;imageId&quot;:5,&quot;bounds&quot;:{&quot;x&quot;:506,&quot;y&quot;:2848,&quot;w&quot;:50,&quot;h&quot;:65},&quot;atoms&quot;:[{&quot;id&quot;:6501,&quot;token&quot;:&quot;n:1&quot;,&quot;particle_id&quot;:&quot;img5-m101-p1&quot;,&quot;molecule_id&quot;:&quot;img5-m101&quot;,&quot;atom_order&quot;:1}]}</metadata>
  <rect x="0" y="0" width="50" height="65" fill="#f8f0d8"/>

  <rect x="0.5" y="0.5" width="49" height="64" fill="none" stroke="#111827" stroke-width="1" opacity="0.35"/>
  <polyline points="17,34 17,33 16,31 16,30 16,29 16,28 16,27 16,26 17,25 17,24 18,23 19,22 19,21 20,20 21,19 22,18 23,17 24,17 25,17 25,16 26,16 27,16 28,16 29,17 30,17 30,18 31,18 31,19 32,20 32,21 33,22 33,23 33,24 33,25 33,26 34,26 34,27 34,28 34,29 33,30 33,31 33,32 32,33 32,35 31,36 31,37 30,39 30,40 29,40 29,41 29,42 28,42 28,43 27,44 27,45 26,45 26,46 26,47 25,47 25,48 25,49" fill="none" stroke="#f92f59" stroke-width="3" stroke-linecap="round" stroke-linejoin="round" opacity="0.95">
    <title>6501 n:1</title>
  </polyline>
</svg>
