<?xml version="1.0" encoding="UTF-8"?>
<svg xmlns="http://www.w3.org/2000/svg" width="58" height="54" viewBox="0 0 58 54">
  <title>atom 7030 n:1</title>
  <metadata>{&quot;entityType&quot;:&quot;atom&quot;,&quot;entityId&quot;:&quot;7030&quot;,&quot;token&quot;:&quot;n:1&quot;,&quot;signature&quot;:&quot;n:1&quot;,&quot;imageName&quot;:&quot;page-006.jpg&quot;,&quot;imageId&quot;:6,&quot;bounds&quot;:{&quot;x&quot;:1217,&quot;y&quot;:831,&quot;w&quot;:58,&quot;h&quot;:54},&quot;atoms&quot;:[{&quot;id&quot;:7030,&quot;token&quot;:&quot;n:1&quot;,&quot;particle_id&quot;:&quot;img6-m16-p1&quot;,&quot;molecule_id&quot;:&quot;img6-m16&quot;,&quot;atom_order&quot;:1}]}</metadata>
  <rect x="0" y="0" width="58" height="54" fill="#f8f0d8"/>

  <rect x="0.5" y="0.5" width="57" height="53" fill="none" stroke="#111827" stroke-width="1" opacity="0.35"/>
  <polyline points="24,33 23,33 22,32 21,32 20,31 19,31 18,30 18,29 17,29 17,28 16,27 16,26 16,25 16,24 16,23 17,23 17,22 18,22 19,21 19,20 20,20 21,20 22,19 23,19 24,18 25,18 25,17 26,17 27,17 28,17 30,16 31,16 32,16 33,16 34,16 36,16 38,17 39,17 40,18 41,18 41,19 42,19 42,20 42,21 42,22 42,23 42,24 42,25 42,26 41,26 41,27 41,28 41,29 40,29 40,30 39,31 38,32 37,33 36,33 35,34 35,35 34,35 33,36 32,37 31,37 31,38" fill="none" stroke="#f92f59" stroke-width="3" stroke-linecap="round" stroke-linejoin="round" opacity="0.95">
    <title>7030 n:1</title>
  </polyline>
</svg>
