<?xml version="1.0" encoding="UTF-8"?>
<svg xmlns="http://www.w3.org/2000/svg" width="46" height="53" viewBox="0 0 46 53">
  <title>atom 7031 n:1</title>
  <metadata>{&quot;entityType&quot;:&quot;atom&quot;,&quot;entityId&quot;:&quot;7031&quot;,&quot;token&quot;:&quot;n:1&quot;,&quot;signature&quot;:&quot;n:1&quot;,&quot;imageName&quot;:&quot;page-006.jpg&quot;,&quot;imageId&quot;:6,&quot;bounds&quot;:{&quot;x&quot;:767,&quot;y&quot;:880,&quot;w&quot;:46,&quot;h&quot;:53},&quot;atoms&quot;:[{&quot;id&quot;:7031,&quot;token&quot;:&quot;n:1&quot;,&quot;particle_id&quot;:&quot;img6-m23-p1&quot;,&quot;molecule_id&quot;:&quot;img6-m23&quot;,&quot;atom_order&quot;:1}]}</metadata>
  <rect x="0" y="0" width="46" height="53" fill="#f8f0d8"/>

  <rect x="0.5" y="0.5" width="45" height="52" fill="none" stroke="#111827" stroke-width="1" opacity="0.35"/>
  <polyline points="19,28 18,28 18,27 17,27 17,26 17,25 16,25 16,24 16,23 16,22 16,21 17,21 17,20 18,20 18,19 19,19 20,18 21,17 22,17 23,17 24,17 25,17 26,16 27,16 28,16 28,17 29,17 29,18 29,19 29,20 30,21 30,22 30,23 30,24 30,25 30,26 30,27 30,28 29,29 29,30 29,31 28,32 28,33 27,34 26,35 26,36 25,37" fill="none" stroke="#f92f59" stroke-width="3" stroke-linecap="round" stroke-linejoin="round" opacity="0.95">
    <title>7031 n:1</title>
  </polyline>
</svg>
