<?xml version="1.0" encoding="UTF-8"?>
<svg xmlns="http://www.w3.org/2000/svg" width="47" height="56" viewBox="0 0 47 56">
  <title>atom 7034 n:1</title>
  <metadata>{&quot;entityType&quot;:&quot;atom&quot;,&quot;entityId&quot;:&quot;7034&quot;,&quot;token&quot;:&quot;n:1&quot;,&quot;signature&quot;:&quot;n:1&quot;,&quot;imageName&quot;:&quot;page-006.jpg&quot;,&quot;imageId&quot;:6,&quot;bounds&quot;:{&quot;x&quot;:839,&quot;y&quot;:2429,&quot;w&quot;:47,&quot;h&quot;:56},&quot;atoms&quot;:[{&quot;id&quot;:7034,&quot;token&quot;:&quot;n:1&quot;,&quot;particle_id&quot;:&quot;img6-m53-p6&quot;,&quot;molecule_id&quot;:&quot;img6-m53&quot;,&quot;atom_order&quot;:1}]}</metadata>
  <rect x="0" y="0" width="47" height="56" fill="#f8f0d8"/>

  <rect x="0.5" y="0.5" width="46" height="55" fill="none" stroke="#111827" stroke-width="1" opacity="0.35"/>
  <polyline points="19,27 18,26 18,25 17,25 17,24 17,23 16,22 16,21 16,20 17,19 17,18 18,18 18,17 19,17 20,17 20,16 21,16 22,16 23,16 24,16 25,16 26,16 27,16 27,17 28,17 28,18 29,18 29,19 29,20 30,21 30,22 30,23 31,23 31,24 31,26 31,27 30,28 30,29 30,30 29,31 29,32 29,33 28,33 28,34 27,36 27,37 27,38 26,38 26,39 25,39 25,40 24,40" fill="none" stroke="#f92f59" stroke-width="3" stroke-linecap="round" stroke-linejoin="round" opacity="0.95">
    <title>7034 n:1</title>
  </polyline>
</svg>
