<?xml version="1.0" encoding="UTF-8"?>
<svg xmlns="http://www.w3.org/2000/svg" width="123" height="33" viewBox="0 0 123 33">
  <title>atom 1222 g:1</title>
  <metadata>{&quot;entityType&quot;:&quot;atom&quot;,&quot;entityId&quot;:&quot;1222&quot;,&quot;token&quot;:&quot;g:1&quot;,&quot;signature&quot;:&quot;g:1&quot;,&quot;imageName&quot;:&quot;page-003.jpg&quot;,&quot;imageId&quot;:3,&quot;bounds&quot;:{&quot;x&quot;:1846,&quot;y&quot;:604,&quot;w&quot;:123,&quot;h&quot;:33},&quot;atoms&quot;:[{&quot;id&quot;:1222,&quot;token&quot;:&quot;g:1&quot;,&quot;particle_id&quot;:&quot;img3-m10-p1&quot;,&quot;molecule_id&quot;:&quot;img3-m10&quot;,&quot;atom_order&quot;:6}]}</metadata>
  <rect x="0" y="0" width="123" height="33" fill="#f8f0d8"/>
  
  <rect x="0.5" y="0.5" width="122" height="32" fill="none" stroke="#111827" stroke-width="1" opacity="0.35"/>
  <polyline points="16,16 17,16 18,16 19,16 20,16 21,16 22,16 23,16 24,16 25,16 26,16 27,16 28,16 29,16 30,16 31,16 32,16 33,16 34,16 35,16 36,16 37,16 38,16 39,16 40,16 41,16 42,16 43,16 44,16 45,16 46,16 47,16 48,16 49,16 50,16 51,16 52,16 53,16 54,16 55,16 56,16 57,16 58,16 59,16 60,16 61,16 62,16 63,16 64,16 65,16 66,16 67,16 68,16 69,16 70,16 71,16 72,16 73,16 74,16 75,16 76,16 77,16 78,16 79,16 80,16 81,16 82,16 83,16 84,16 85,16 86,16 87,16 88,16 89,16 90,16 91,16 92,16 93,16 94,16 95,16 96,16 97,16 98,16 99,16 100,16 101,16 102,16 103,16 104,16 105,16 106,16 107,16" fill="none" stroke="#7c3cff" stroke-width="3" stroke-linecap="round" stroke-linejoin="round" opacity="0.95">
    <title>1222 g:1</title>
  </polyline>
</svg>
