<?xml version="1.0" encoding="UTF-8"?>
<svg xmlns="http://www.w3.org/2000/svg" width="50" height="75" viewBox="0 0 50 75">
  <title>j:1 distant-variant atom 4616</title>
  <rect x="0" y="0" width="50" height="75" fill="#17181b"/>
  <rect x="0.5" y="0.5" width="49" height="74" fill="none" stroke="#111827" stroke-width="1" opacity="0.35"/>
<polyline points="16,59 17,59 18,59 19,59 19,58 20,58 21,58 21,57 22,57 23,57 24,56 25,56 26,55 27,55 28,54 29,54 29,53 30,53 30,52 31,51 31,50 32,49 32,48 32,47 33,46 33,45 33,44 34,43 34,42 34,41 34,39 34,38 34,37 33,35 33,34 33,33 33,32 32,32 32,30 32,29 31,28 30,27 30,26 29,25 29,24 28,23 27,23 27,22 26,21 24,20 23,19 22,18 21,17 20,17 19,16" fill="none" stroke="#4a9e6a" stroke-width="3" stroke-linecap="round" stroke-linejoin="round" opacity="0.95">
    <title>4616 j:1</title>
  </polyline>
</svg>
