<?xml version="1.0" encoding="UTF-8"?>
<svg xmlns="http://www.w3.org/2000/svg" width="61" height="71" viewBox="0 0 61 71">
  <title>j:1 distant-variant atom 4615</title>
  <rect x="0" y="0" width="61" height="71" fill="#17181b"/>
  <rect x="0.5" y="0.5" width="60" height="70" fill="none" stroke="#111827" stroke-width="1" opacity="0.35"/>
<polyline points="16,55 17,55 18,55 19,55 20,55 21,54 22,54 23,54 24,54 25,53 26,53 27,53 28,52 29,52 30,52 31,52 31,51 32,51 33,50 34,50 35,49 36,48 37,48 37,47 38,47 38,46 39,45 39,44 40,44 40,43 41,42 41,41 42,41 42,40 43,39 43,38 44,37 44,36 44,35 44,33 44,32 45,31 45,30 45,29 45,28 45,27 45,26 45,25 44,24 44,23 44,22 43,21 43,20 42,19 41,19 41,18 40,18 39,17 38,16 37,16" fill="none" stroke="#4a9e6a" stroke-width="3" stroke-linecap="round" stroke-linejoin="round" opacity="0.95">
    <title>4615 j:1</title>
  </polyline>
</svg>
