<?xml version="1.0" encoding="UTF-8"?>
<svg xmlns="http://www.w3.org/2000/svg" width="59" height="66" viewBox="0 0 59 66">
  <title>j:1 near-average-variant atom 2599</title>
  <rect x="0" y="0" width="59" height="66" fill="#17181b"/>
  <rect x="0.5" y="0.5" width="58" height="65" fill="none" stroke="#111827" stroke-width="1" opacity="0.35"/>
<polyline points="26,25 26,24 27,24 27,23 28,23 29,22 30,21 31,21 31,20 32,20 32,19 33,19 33,18 34,18 35,17 36,17 36,16 37,16 38,16 39,16 40,16 41,16 42,16 42,17 43,18 43,19 43,20 43,21 43,22 43,23 42,23 42,24 41,25 41,26 40,26 40,27 40,28 39,28 39,29 38,29 38,30 37,30 37,31 36,31 36,32 35,32 35,33 34,33 34,34 33,34 33,35 32,35 32,36 31,36 31,37 30,37 30,38 29,38 28,39 27,39 27,40 26,41 25,41 25,42 24,43 23,43 23,44 22,44 22,45 21,45 21,46 20,47 19,47 19,48 18,48 18,49 17,49 17,50 16,50" fill="none" stroke="#4a9e6a" stroke-width="3" stroke-linecap="round" stroke-linejoin="round" opacity="0.95">
    <title>2599 j:1</title>
  </polyline>
</svg>
