<?xml version="1.0" encoding="UTF-8"?>
<svg xmlns="http://www.w3.org/2000/svg" width="54" height="68" viewBox="0 0 54 68">
  <title>j:1 distant-variant atom 4258</title>
  <rect x="0" y="0" width="54" height="68" fill="#17181b"/>
  <rect x="0.5" y="0.5" width="53" height="67" fill="none" stroke="#111827" stroke-width="1" opacity="0.35"/>
<polyline points="16,51 17,51 17,52 18,52 19,52 20,52 21,52 22,52 23,51 24,51 25,50 26,50 27,50 27,49 28,49 29,48 30,48 30,47 31,47 31,46 32,46 32,45 33,45 33,44 34,44 34,43 35,43 35,42 36,42 36,41 36,40 36,39 37,39 37,38 37,37 37,36 37,35 37,34 37,33 37,32 38,31 38,30 38,29 38,28 38,27 37,27 37,26 37,25 36,25 36,24 36,23 35,23 34,22 34,21 33,21 32,21 31,20 30,19 29,19 29,18 28,18 27,17 26,17 25,17 25,16 24,16" fill="none" stroke="#4a9e6a" stroke-width="3" stroke-linecap="round" stroke-linejoin="round" opacity="0.95">
    <title>4258 j:1</title>
  </polyline>
</svg>
