<?xml version="1.0" encoding="UTF-8"?>
<svg xmlns="http://www.w3.org/2000/svg" width="55" height="53" viewBox="0 0 55 53">
  <title>atom 3178 c:1</title>
  <metadata>{&quot;entityType&quot;:&quot;atom&quot;,&quot;entityId&quot;:&quot;3178&quot;,&quot;token&quot;:&quot;c:1&quot;,&quot;signature&quot;:&quot;c:1&quot;,&quot;imageName&quot;:&quot;page-003.jpg&quot;,&quot;imageId&quot;:3,&quot;bounds&quot;:{&quot;x&quot;:2051,&quot;y&quot;:1794,&quot;w&quot;:55,&quot;h&quot;:53},&quot;atoms&quot;:[{&quot;id&quot;:3178,&quot;token&quot;:&quot;c:1&quot;,&quot;particle_id&quot;:&quot;img3-m101-p1&quot;,&quot;molecule_id&quot;:&quot;img3-m101&quot;,&quot;atom_order&quot;:3}]}</metadata>
  <rect x="0" y="0" width="55" height="53" fill="#f8f0d8"/>
  
  <rect x="0.5" y="0.5" width="54" height="52" fill="none" stroke="#111827" stroke-width="1" opacity="0.35"/>
  <polyline points="36,34 37,34 38,34 38,33 38,32 39,32 39,31 39,30 39,29 39,28 39,27 39,26 39,25 39,24 39,23 39,22 39,21 38,21 38,20 38,19 37,19 37,18 36,18 36,17 35,17 34,17 33,16 32,16 31,16 30,16 29,16 28,16 27,16 26,17 25,17 24,17 24,18 23,18 22,18 21,19 20,19 20,20 19,20 19,21 18,21 18,22 17,22 17,23 16,23 16,24 16,25 16,26 16,27 16,28 16,29 16,30 16,31 16,32 16,33 16,34 17,34 17,35 18,35 19,35 19,36 20,36 21,37 22,37 23,37 24,37 25,37 26,37 27,37 28,37 29,37 29,36 30,36 31,36 32,36 32,35 33,35 34,35 35,34 36,34" fill="none" stroke="#8aff00" stroke-width="3" stroke-linecap="round" stroke-linejoin="round" opacity="0.95">
    <title>3178 c:1</title>
  </polyline>
</svg>
