<?xml version="1.0" encoding="UTF-8"?>
<svg xmlns="http://www.w3.org/2000/svg" width="54" height="53" viewBox="0 0 54 53">
  <title>atom 4762 c:1</title>
  <metadata>{&quot;entityType&quot;:&quot;atom&quot;,&quot;entityId&quot;:&quot;4762&quot;,&quot;token&quot;:&quot;c:1&quot;,&quot;signature&quot;:&quot;c:1&quot;,&quot;imageName&quot;:&quot;page-004.jpg&quot;,&quot;imageId&quot;:4,&quot;bounds&quot;:{&quot;x&quot;:598,&quot;y&quot;:1792,&quot;w&quot;:54,&quot;h&quot;:53},&quot;atoms&quot;:[{&quot;id&quot;:4762,&quot;token&quot;:&quot;c:1&quot;,&quot;particle_id&quot;:&quot;img4-m1-p1&quot;,&quot;molecule_id&quot;:&quot;img4-m1&quot;,&quot;atom_order&quot;:3}]}</metadata>
  <rect x="0" y="0" width="54" height="53" fill="#f8f0d8"/>

  <rect x="0.5" y="0.5" width="53" height="52" fill="none" stroke="#111827" stroke-width="1" opacity="0.35"/>
  <polyline points="34,33 35,33 35,32 36,32 36,31 37,31 37,30 37,29 38,28 38,27 38,26 38,25 38,24 38,23 38,22 38,21 37,21 37,20 37,19 36,19 35,18 34,18 33,17 32,17 31,16 30,16 29,16 28,16 27,16 26,16 25,16 25,17 24,17 23,18 23,19 22,19 21,20 20,21 20,22 19,22 19,23 19,24 18,24 18,25 18,26 17,27 17,28 17,29 16,29 16,30 16,31 16,32 16,33 16,34 16,35 17,36 18,36 18,37 19,37 20,37 21,37 22,37 23,37 24,37 25,37 26,37 27,37 27,36 28,36 29,36 29,35 30,35 31,35 31,34 32,34 33,33 34,33" fill="none" stroke="#8aff00" stroke-width="3" stroke-linecap="round" stroke-linejoin="round" opacity="0.95">
    <title>4762 c:1</title>
  </polyline>
</svg>
