<?xml version="1.0" encoding="UTF-8"?>
<svg xmlns="http://www.w3.org/2000/svg" width="50" height="47" viewBox="0 0 50 47">
  <title>atom 4800 c:1</title>
  <metadata>{&quot;entityType&quot;:&quot;atom&quot;,&quot;entityId&quot;:&quot;4800&quot;,&quot;token&quot;:&quot;c:1&quot;,&quot;signature&quot;:&quot;c:1&quot;,&quot;imageName&quot;:&quot;page-004.jpg&quot;,&quot;imageId&quot;:4,&quot;bounds&quot;:{&quot;x&quot;:830,&quot;y&quot;:2008,&quot;w&quot;:50,&quot;h&quot;:47},&quot;atoms&quot;:[{&quot;id&quot;:4800,&quot;token&quot;:&quot;c:1&quot;,&quot;particle_id&quot;:&quot;img4-m13-p1&quot;,&quot;molecule_id&quot;:&quot;img4-m13&quot;,&quot;atom_order&quot;:3}]}</metadata>
  <rect x="0" y="0" width="50" height="47" fill="#f8f0d8"/>

  <rect x="0.5" y="0.5" width="49" height="46" fill="none" stroke="#111827" stroke-width="1" opacity="0.35"/>
  <polyline points="34,24 34,23 34,22 34,21 34,20 34,19 34,18 33,18 32,18 32,17 31,17 30,17 29,16 28,16 27,16 26,16 25,16 24,16 23,16 22,16 21,16 20,17 19,18 18,19 17,20 17,21 17,22 16,22 16,23 16,24 16,25 16,26 16,27 16,28 16,29 17,29 18,29 18,30 19,30 20,31 21,31 22,31 23,31 24,31 25,31 26,31 27,31 28,31 29,30 30,30 30,29 31,29 32,28 33,28 33,27 33,26 33,25 33,24 34,24 34,23" fill="none" stroke="#8aff00" stroke-width="3" stroke-linecap="round" stroke-linejoin="round" opacity="0.95">
    <title>4800 c:1</title>
  </polyline>
</svg>
