<?xml version="1.0" encoding="UTF-8"?>
<svg xmlns="http://www.w3.org/2000/svg" width="35" height="104" viewBox="0 0 35 104">
  <title>a:1 closest-to-family-average atom 7809</title>
  <rect x="0" y="0" width="35" height="104" fill="#17181b"/>
  <rect x="0.5" y="0.5" width="34" height="103" fill="none" stroke="#111827" stroke-width="1" opacity="0.35"/>
<polyline points="19,16 19,17 19,18 19,19 19,20 19,22 19,24 19,25 19,27 19,28 19,29 19,30 19,32 19,33 19,34 19,35 19,36 19,37 19,38 19,39 19,40 19,41 19,42 19,44 19,45 19,46 19,47 18,49 18,50 18,52 18,54 18,56 18,57 18,59 18,60 17,62 17,64 17,66 17,68 17,69 17,70 17,72 17,73 17,74 16,75 16,76 16,77 16,79 16,80 16,81 16,82 16,83 16,84 16,85 16,86 16,87 16,88" fill="none" stroke="#00f0b5" stroke-width="3" stroke-linecap="round" stroke-linejoin="round" opacity="0.95">
    <title>7809 a:1</title>
  </polyline>
</svg>
