<?xml version="1.0" encoding="UTF-8"?>
<svg xmlns="http://www.w3.org/2000/svg" width="35" height="100" viewBox="0 0 35 100">
  <title>a:1 near-average-variant atom 4709</title>
  <rect x="0" y="0" width="35" height="100" fill="#17181b"/>
  <rect x="0.5" y="0.5" width="34" height="99" fill="none" stroke="#111827" stroke-width="1" opacity="0.35"/>
<polyline points="19,16 19,17 19,18 19,20 19,22 19,24 19,26 19,29 19,31 19,32 19,34 19,36 19,38 19,40 19,42 19,43 19,45 19,46 19,47 18,48 18,49 18,50 18,52 18,53 18,55 18,56 17,57 17,59 17,60 17,62 17,63 17,65 17,66 17,67 16,68 16,69 16,70 16,71 16,72 16,73 16,74 16,75 16,76 16,77 16,78 16,80 16,81 16,82 16,83 16,84" fill="none" stroke="#00f0b5" stroke-width="3" stroke-linecap="round" stroke-linejoin="round" opacity="0.95">
    <title>4709 a:1</title>
  </polyline>
</svg>
