<?xml version="1.0" encoding="UTF-8"?>
<svg xmlns="http://www.w3.org/2000/svg" width="54" height="48" viewBox="0 0 54 48">
  <title>atom 5214 i:1</title>
  <metadata>{&quot;entityType&quot;:&quot;atom&quot;,&quot;entityId&quot;:&quot;5214&quot;,&quot;token&quot;:&quot;i:1&quot;,&quot;signature&quot;:&quot;i:1&quot;,&quot;imageName&quot;:&quot;page-004.jpg&quot;,&quot;imageId&quot;:4,&quot;bounds&quot;:{&quot;x&quot;:946,&quot;y&quot;:1971,&quot;w&quot;:54,&quot;h&quot;:48},&quot;atoms&quot;:[{&quot;id&quot;:5214,&quot;token&quot;:&quot;i:1&quot;,&quot;particle_id&quot;:&quot;img4-m8-p2&quot;,&quot;molecule_id&quot;:&quot;img4-m8&quot;,&quot;atom_order&quot;:2}]}</metadata>
  <rect x="0" y="0" width="54" height="48" fill="#f8f0d8"/>
  <image href="file:///C:/Users/HHHES/AppData/Roaming/com.voynichlab.datasetcreator/images/1/aff30327-ced8-4ab4-8c9b-190205ebe022.jpg" x="-946" y="-1971" width="2804" height="3797" opacity="0.92"/>
  <rect x="0.5" y="0.5" width="53" height="47" fill="none" stroke="#111827" stroke-width="1" opacity="0.35"/>
  <polyline points="16,32 17,32 18,32 19,32 20,32 21,32 22,32 23,32 24,32 24,31 25,31 26,31 27,31 27,30 28,30 29,30 30,29 30,28 31,28 32,27 33,26 34,25 35,24 35,23 36,23 36,22 37,22 37,21 37,20 37,19 38,19 38,18 38,17 38,16" fill="none" stroke="#00ff7f" stroke-width="3" stroke-linecap="round" stroke-linejoin="round" opacity="0.95">
    <title>5214 i:1</title>
  </polyline>
</svg>
