<?xml version="1.0" encoding="UTF-8"?>
<svg xmlns="http://www.w3.org/2000/svg" width="57" height="70" viewBox="0 0 57 70">
  <title>atom 5219 i:1</title>
  <metadata>{&quot;entityType&quot;:&quot;atom&quot;,&quot;entityId&quot;:&quot;5219&quot;,&quot;token&quot;:&quot;i:1&quot;,&quot;signature&quot;:&quot;i:1&quot;,&quot;imageName&quot;:&quot;page-004.jpg&quot;,&quot;imageId&quot;:4,&quot;bounds&quot;:{&quot;x&quot;:1039,&quot;y&quot;:2313,&quot;w&quot;:57,&quot;h&quot;:70},&quot;atoms&quot;:[{&quot;id&quot;:5219,&quot;token&quot;:&quot;i:1&quot;,&quot;particle_id&quot;:&quot;img4-m34-p3&quot;,&quot;molecule_id&quot;:&quot;img4-m34&quot;,&quot;atom_order&quot;:3}]}</metadata>
  <rect x="0" y="0" width="57" height="70" fill="#f8f0d8"/>
  <image href="file:///C:/Users/HHHES/AppData/Roaming/com.voynichlab.datasetcreator/images/1/aff30327-ced8-4ab4-8c9b-190205ebe022.jpg" x="-1039" y="-2313" width="2804" height="3797" opacity="0.92"/>
  <rect x="0.5" y="0.5" width="56" height="69" fill="none" stroke="#111827" stroke-width="1" opacity="0.35"/>
  <polyline points="16,53 17,53 18,53 18,54 19,54 20,54 21,54 22,54 23,54 24,54 25,53 26,53 27,53 27,52 28,52 29,52 30,52 30,51 31,51 31,50 32,50 32,49 33,49 34,48 35,47 35,46 36,46 36,45 37,44 37,43 38,42 38,41 38,40 38,39 39,39 39,38 39,37 39,36 40,36 40,35 40,34 41,33 41,32 41,31 41,30 41,29 41,28 41,27 41,26 41,25 41,24 40,24 40,23 39,22 38,22 38,21 37,20 36,19 35,19 35,18 34,18 34,17 33,17 32,16" fill="none" stroke="#00ff7f" stroke-width="3" stroke-linecap="round" stroke-linejoin="round" opacity="0.95">
    <title>5219 i:1</title>
  </polyline>
</svg>
