<?xml version="1.0" encoding="UTF-8"?>
<svg xmlns="http://www.w3.org/2000/svg" width="53" height="64" viewBox="0 0 53 64">
  <title>atom 5220 i:1</title>
  <metadata>{&quot;entityType&quot;:&quot;atom&quot;,&quot;entityId&quot;:&quot;5220&quot;,&quot;token&quot;:&quot;i:1&quot;,&quot;signature&quot;:&quot;i:1&quot;,&quot;imageName&quot;:&quot;page-004.jpg&quot;,&quot;imageId&quot;:4,&quot;bounds&quot;:{&quot;x&quot;:1601,&quot;y&quot;:2345,&quot;w&quot;:53,&quot;h&quot;:64},&quot;atoms&quot;:[{&quot;id&quot;:5220,&quot;token&quot;:&quot;i:1&quot;,&quot;particle_id&quot;:&quot;img4-m36-p3&quot;,&quot;molecule_id&quot;:&quot;img4-m36&quot;,&quot;atom_order&quot;:2}]}</metadata>
  <rect x="0" y="0" width="53" height="64" fill="#f8f0d8"/>
  <image href="file:///C:/Users/HHHES/AppData/Roaming/com.voynichlab.datasetcreator/images/1/aff30327-ced8-4ab4-8c9b-190205ebe022.jpg" x="-1601" y="-2345" width="2804" height="3797" opacity="0.92"/>
  <rect x="0.5" y="0.5" width="52" height="63" fill="none" stroke="#111827" stroke-width="1" opacity="0.35"/>
  <polyline points="16,48 17,48 18,48 19,48 21,48 22,48 23,48 24,48 25,48 25,47 26,46 27,46 28,45 28,44 29,44 29,43 30,43 30,42 31,42 31,41 32,40 32,39 32,38 33,38 33,37 34,37 34,36 35,35 35,34 35,33 35,32 36,32 36,31 36,30 36,29 37,28 37,27 37,26 37,25 37,24 37,23 37,22 37,21 37,20 37,19 37,18 37,17 37,16" fill="none" stroke="#00ff7f" stroke-width="3" stroke-linecap="round" stroke-linejoin="round" opacity="0.95">
    <title>5220 i:1</title>
  </polyline>
</svg>
