<?xml version="1.0" encoding="UTF-8"?>
<svg xmlns="http://www.w3.org/2000/svg" width="45" height="74" viewBox="0 0 45 74">
  <title>atom 5221 i:1</title>
  <metadata>{&quot;entityType&quot;:&quot;atom&quot;,&quot;entityId&quot;:&quot;5221&quot;,&quot;token&quot;:&quot;i:1&quot;,&quot;signature&quot;:&quot;i:1&quot;,&quot;imageName&quot;:&quot;page-004.jpg&quot;,&quot;imageId&quot;:4,&quot;bounds&quot;:{&quot;x&quot;:2191,&quot;y&quot;:2393,&quot;w&quot;:45,&quot;h&quot;:74},&quot;atoms&quot;:[{&quot;id&quot;:5221,&quot;token&quot;:&quot;i:1&quot;,&quot;particle_id&quot;:&quot;img4-m40-p5&quot;,&quot;molecule_id&quot;:&quot;img4-m40&quot;,&quot;atom_order&quot;:3}]}</metadata>
  <rect x="0" y="0" width="45" height="74" fill="#f8f0d8"/>
  <image href="file:///C:/Users/HHHES/AppData/Roaming/com.voynichlab.datasetcreator/images/1/aff30327-ced8-4ab4-8c9b-190205ebe022.jpg" x="-2191" y="-2393" width="2804" height="3797" opacity="0.92"/>
  <rect x="0.5" y="0.5" width="44" height="73" fill="none" stroke="#111827" stroke-width="1" opacity="0.35"/>
  <polyline points="17,58 17,57 18,57 19,57 20,57 21,57 21,56 22,56 22,55 23,55 24,54 24,53 25,53 25,52 26,52 26,51 26,50 27,50 27,49 27,48 28,47 28,46 28,45 29,44 29,43 29,42 29,41 29,40 29,39 29,38 29,37 29,36 28,35 28,34 28,33 27,32 27,31 27,30 26,30 26,29 26,28 25,28 25,27 24,27 24,26 23,25 23,24 22,24 22,23 21,22 20,21 19,20 18,19 18,18 17,18 17,17 16,17 16,16" fill="none" stroke="#00ff7f" stroke-width="3" stroke-linecap="round" stroke-linejoin="round" opacity="0.95">
    <title>5221 i:1</title>
  </polyline>
</svg>
