<?xml version="1.0" encoding="UTF-8"?>
<svg xmlns="http://www.w3.org/2000/svg" width="47" height="59" viewBox="0 0 47 59">
  <title>atom 5222 i:1</title>
  <metadata>{&quot;entityType&quot;:&quot;atom&quot;,&quot;entityId&quot;:&quot;5222&quot;,&quot;token&quot;:&quot;i:1&quot;,&quot;signature&quot;:&quot;i:1&quot;,&quot;imageName&quot;:&quot;page-004.jpg&quot;,&quot;imageId&quot;:4,&quot;bounds&quot;:{&quot;x&quot;:858,&quot;y&quot;:2466,&quot;w&quot;:47,&quot;h&quot;:59},&quot;atoms&quot;:[{&quot;id&quot;:5222,&quot;token&quot;:&quot;i:1&quot;,&quot;particle_id&quot;:&quot;img4-m54-p5&quot;,&quot;molecule_id&quot;:&quot;img4-m54&quot;,&quot;atom_order&quot;:2}]}</metadata>
  <rect x="0" y="0" width="47" height="59" fill="#f8f0d8"/>
  <image href="file:///C:/Users/HHHES/AppData/Roaming/com.voynichlab.datasetcreator/images/1/aff30327-ced8-4ab4-8c9b-190205ebe022.jpg" x="-858" y="-2466" width="2804" height="3797" opacity="0.92"/>
  <rect x="0.5" y="0.5" width="46" height="58" fill="none" stroke="#111827" stroke-width="1" opacity="0.35"/>
  <polyline points="16,43 17,43 17,42 18,42 19,42 20,41 21,40 22,40 22,39 23,39 24,38 25,37 26,36 27,36 27,35 28,35 28,34 28,33 29,33 29,32 29,31 30,31 30,30 30,29 30,28 30,27 31,26 31,25 30,24 30,23 30,22 30,21 29,20 29,19 29,18 28,17 28,16 27,16 26,16" fill="none" stroke="#00ff7f" stroke-width="3" stroke-linecap="round" stroke-linejoin="round" opacity="0.95">
    <title>5222 i:1</title>
  </polyline>
</svg>
