<?xml version="1.0" encoding="UTF-8"?>
<svg xmlns="http://www.w3.org/2000/svg" width="49" height="61" viewBox="0 0 49 61">
  <title>atom 5225 i:1</title>
  <metadata>{&quot;entityType&quot;:&quot;atom&quot;,&quot;entityId&quot;:&quot;5225&quot;,&quot;token&quot;:&quot;i:1&quot;,&quot;signature&quot;:&quot;i:1&quot;,&quot;imageName&quot;:&quot;page-004.jpg&quot;,&quot;imageId&quot;:4,&quot;bounds&quot;:{&quot;x&quot;:1406,&quot;y&quot;:2652,&quot;w&quot;:49,&quot;h&quot;:61},&quot;atoms&quot;:[{&quot;id&quot;:5225,&quot;token&quot;:&quot;i:1&quot;,&quot;particle_id&quot;:&quot;img4-m78-p3&quot;,&quot;molecule_id&quot;:&quot;img4-m78&quot;,&quot;atom_order&quot;:2}]}</metadata>
  <rect x="0" y="0" width="49" height="61" fill="#f8f0d8"/>
  <image href="file:///C:/Users/HHHES/AppData/Roaming/com.voynichlab.datasetcreator/images/1/aff30327-ced8-4ab4-8c9b-190205ebe022.jpg" x="-1406" y="-2652" width="2804" height="3797" opacity="0.92"/>
  <rect x="0.5" y="0.5" width="48" height="60" fill="none" stroke="#111827" stroke-width="1" opacity="0.35"/>
  <polyline points="16,45 17,45 18,45 19,44 20,44 21,44 22,43 23,43 24,42 25,42 26,41 27,41 27,40 28,40 28,39 29,39 29,38 29,37 30,37 30,36 31,36 31,35 31,34 32,34 32,33 32,32 33,31 33,30 33,29 33,28 33,27 33,26 33,25 33,24 33,23 33,22 33,21 32,21 32,20 32,19 32,18 31,17 31,16" fill="none" stroke="#00ff7f" stroke-width="3" stroke-linecap="round" stroke-linejoin="round" opacity="0.95">
    <title>5225 i:1</title>
  </polyline>
</svg>
