<?xml version="1.0" encoding="UTF-8"?>
<svg xmlns="http://www.w3.org/2000/svg" width="49" height="53" viewBox="0 0 49 53">
  <title>atom 5231 i:1</title>
  <metadata>{&quot;entityType&quot;:&quot;atom&quot;,&quot;entityId&quot;:&quot;5231&quot;,&quot;token&quot;:&quot;i:1&quot;,&quot;signature&quot;:&quot;i:1&quot;,&quot;imageName&quot;:&quot;page-004.jpg&quot;,&quot;imageId&quot;:4,&quot;bounds&quot;:{&quot;x&quot;:1540,&quot;y&quot;:2736,&quot;w&quot;:49,&quot;h&quot;:53},&quot;atoms&quot;:[{&quot;id&quot;:5231,&quot;token&quot;:&quot;i:1&quot;,&quot;particle_id&quot;:&quot;img4-m88-p1&quot;,&quot;molecule_id&quot;:&quot;img4-m88&quot;,&quot;atom_order&quot;:2}]}</metadata>
  <rect x="0" y="0" width="49" height="53" fill="#f8f0d8"/>
  <image href="file:///C:/Users/HHHES/AppData/Roaming/com.voynichlab.datasetcreator/images/1/aff30327-ced8-4ab4-8c9b-190205ebe022.jpg" x="-1540" y="-2736" width="2804" height="3797" opacity="0.92"/>
  <rect x="0.5" y="0.5" width="48" height="52" fill="none" stroke="#111827" stroke-width="1" opacity="0.35"/>
  <polyline points="16,37 17,37 18,37 19,37 19,36 20,36 21,36 22,36 22,35 23,35 24,34 25,33 26,33 27,32 28,32 28,31 29,31 30,31 30,30 30,29 31,29 32,28 32,27 32,26 33,25 33,24 33,23 33,22 33,21 33,20 33,19 32,19 32,18 31,17 30,17 30,16 29,16" fill="none" stroke="#00ff7f" stroke-width="3" stroke-linecap="round" stroke-linejoin="round" opacity="0.95">
    <title>5231 i:1</title>
  </polyline>
</svg>
