<?xml version="1.0" encoding="UTF-8"?>
<svg xmlns="http://www.w3.org/2000/svg" width="56" height="66" viewBox="0 0 56 66">
  <title>atom 5233 i:1</title>
  <metadata>{&quot;entityType&quot;:&quot;atom&quot;,&quot;entityId&quot;:&quot;5233&quot;,&quot;token&quot;:&quot;i:1&quot;,&quot;signature&quot;:&quot;i:1&quot;,&quot;imageName&quot;:&quot;page-004.jpg&quot;,&quot;imageId&quot;:4,&quot;bounds&quot;:{&quot;x&quot;:669,&quot;y&quot;:2686,&quot;w&quot;:56,&quot;h&quot;:66},&quot;atoms&quot;:[{&quot;id&quot;:5233,&quot;token&quot;:&quot;i:1&quot;,&quot;particle_id&quot;:&quot;img4-m80-p4&quot;,&quot;molecule_id&quot;:&quot;img4-m80&quot;,&quot;atom_order&quot;:2}]}</metadata>
  <rect x="0" y="0" width="56" height="66" fill="#f8f0d8"/>
  <image href="file:///C:/Users/HHHES/AppData/Roaming/com.voynichlab.datasetcreator/images/1/aff30327-ced8-4ab4-8c9b-190205ebe022.jpg" x="-669" y="-2686" width="2804" height="3797" opacity="0.92"/>
  <rect x="0.5" y="0.5" width="55" height="65" fill="none" stroke="#111827" stroke-width="1" opacity="0.35"/>
  <polyline points="16,50 17,50 18,50 19,50 19,49 20,49 21,49 21,48 22,48 22,47 23,47 24,46 25,45 26,44 27,43 28,43 28,42 29,42 30,41 31,40 31,39 32,39 32,38 33,38 33,37 33,36 34,36 34,35 35,34 36,33 36,32 36,31 37,31 37,30 37,29 38,29 38,28 38,27 38,26 39,26 39,25 39,24 39,23 40,22 40,21 40,20 40,19 40,18 40,17 40,16" fill="none" stroke="#00ff7f" stroke-width="3" stroke-linecap="round" stroke-linejoin="round" opacity="0.95">
    <title>5233 i:1</title>
  </polyline>
</svg>
