<?xml version="1.0" encoding="UTF-8"?>
<svg xmlns="http://www.w3.org/2000/svg" width="54" height="52" viewBox="0 0 54 52">
  <title>atom 5306 i:1</title>
  <metadata>{&quot;entityType&quot;:&quot;atom&quot;,&quot;entityId&quot;:&quot;5306&quot;,&quot;token&quot;:&quot;i:1&quot;,&quot;signature&quot;:&quot;i:1&quot;,&quot;imageName&quot;:&quot;page-004.jpg&quot;,&quot;imageId&quot;:4,&quot;bounds&quot;:{&quot;x&quot;:1111,&quot;y&quot;:2123,&quot;w&quot;:54,&quot;h&quot;:52},&quot;atoms&quot;:[{&quot;id&quot;:5306,&quot;token&quot;:&quot;i:1&quot;,&quot;particle_id&quot;:&quot;img4-m24-p2&quot;,&quot;molecule_id&quot;:&quot;img4-m24&quot;,&quot;atom_order&quot;:2}]}</metadata>
  <rect x="0" y="0" width="54" height="52" fill="#f8f0d8"/>
  <image href="file:///C:/Users/HHHES/AppData/Roaming/com.voynichlab.datasetcreator/images/1/aff30327-ced8-4ab4-8c9b-190205ebe022.jpg" x="-1111" y="-2123" width="2804" height="3797" opacity="0.92"/>
  <rect x="0.5" y="0.5" width="53" height="51" fill="none" stroke="#111827" stroke-width="1" opacity="0.35"/>
  <polyline points="16,36 17,36 18,36 19,36 20,36 21,36 22,36 22,35 23,35 24,34 25,34 26,34 26,33 27,33 28,32 29,31 30,31 30,30 31,30 31,29 32,29 32,28 33,28 33,27 34,27 34,26 34,25 35,24 35,23 36,22 36,21 36,20 37,19 37,18 38,18 38,17 38,16" fill="none" stroke="#00ff7f" stroke-width="3" stroke-linecap="round" stroke-linejoin="round" opacity="0.95">
    <title>5306 i:1</title>
  </polyline>
</svg>
