<?xml version="1.0" encoding="UTF-8"?>
<svg xmlns="http://www.w3.org/2000/svg" width="59" height="57" viewBox="0 0 59 57">
  <title>atom 2630 c:1</title>
  <metadata>{&quot;entityType&quot;:&quot;atom&quot;,&quot;entityId&quot;:&quot;2630&quot;,&quot;token&quot;:&quot;c:1&quot;,&quot;signature&quot;:&quot;c:1&quot;,&quot;imageName&quot;:&quot;page-094.jpg&quot;,&quot;imageId&quot;:94,&quot;bounds&quot;:{&quot;x&quot;:1020,&quot;y&quot;:476,&quot;w&quot;:59,&quot;h&quot;:57},&quot;atoms&quot;:[{&quot;id&quot;:2630,&quot;token&quot;:&quot;c:1&quot;,&quot;particle_id&quot;:&quot;img94-m1-p6&quot;,&quot;molecule_id&quot;:&quot;img94-m1&quot;,&quot;atom_order&quot;:3}]}</metadata>
  <rect x="0" y="0" width="59" height="57" fill="#f8f0d8"/>
  <image href="file:///C:/Users/HHHES/AppData/Roaming/com.voynichlab.datasetcreator/images/1/33b1988f-7aaa-4207-bfa8-f26b742ac4b1.jpg" x="-1020" y="-476" width="2932" height="3769" opacity="0.92"/>
  <rect x="0.5" y="0.5" width="58" height="56" fill="none" stroke="#111827" stroke-width="1" opacity="0.35"/>
  <polyline points="18,41 19,41 20,41 21,41 22,41 23,41 24,41 25,41 26,41 27,41 28,41 29,40 30,40 31,40 32,39 33,39 34,39 34,38 35,38 36,37 37,37 37,36 38,36 39,36 39,35 40,35 40,34 41,34 41,33 42,32 42,31 43,30 43,29 43,28 43,27 43,26 43,25 43,24 43,23 42,23 42,22 42,21 41,21 41,20 40,20 40,19 40,18 39,18 38,18 38,17 37,17 36,17 36,16 35,16 34,16 33,16 32,16 31,16 30,16 29,16 28,16 27,16 26,17 25,17 24,18 23,18 23,19 22,19 22,20 21,20 21,21 20,22 20,23 19,23 19,24 19,25 18,25 18,26 18,27 17,28 17,29 17,30 16,30 16,31 16,32 16,33 16,34 16,35 16,36 16,37 16,38 16,39 17,39 17,40 18,40 18,41" fill="none" stroke="#8aff00" stroke-width="3" stroke-linecap="round" stroke-linejoin="round" opacity="0.95">
    <title>2630 c:1</title>
  </polyline>
</svg>
