<?xml version="1.0" encoding="UTF-8"?>
<svg xmlns="http://www.w3.org/2000/svg" width="50" height="57" viewBox="0 0 50 57">
  <title>atom 2692 c:1</title>
  <metadata>{&quot;entityType&quot;:&quot;atom&quot;,&quot;entityId&quot;:&quot;2692&quot;,&quot;token&quot;:&quot;c:1&quot;,&quot;signature&quot;:&quot;c:1&quot;,&quot;imageName&quot;:&quot;page-094.jpg&quot;,&quot;imageId&quot;:94,&quot;bounds&quot;:{&quot;x&quot;:829,&quot;y&quot;:614,&quot;w&quot;:50,&quot;h&quot;:57},&quot;atoms&quot;:[{&quot;id&quot;:2692,&quot;token&quot;:&quot;c:1&quot;,&quot;particle_id&quot;:&quot;img94-m9-p1&quot;,&quot;molecule_id&quot;:&quot;img94-m9&quot;,&quot;atom_order&quot;:2}]}</metadata>
  <rect x="0" y="0" width="50" height="57" fill="#f8f0d8"/>
  <image href="file:///C:/Users/HHHES/AppData/Roaming/com.voynichlab.datasetcreator/images/1/33b1988f-7aaa-4207-bfa8-f26b742ac4b1.jpg" x="-829" y="-614" width="2932" height="3769" opacity="0.92"/>
  <rect x="0.5" y="0.5" width="49" height="56" fill="none" stroke="#111827" stroke-width="1" opacity="0.35"/>
  <polyline points="23,41 23,40 24,40 25,40 26,40 26,39 27,39 27,38 28,38 29,37 30,36 31,35 32,34 32,33 33,32 33,31 33,30 33,29 34,28 34,27 34,26 34,25 34,24 34,23 34,22 34,21 34,20 33,19 33,18 32,18 32,17 31,17 31,16 30,16 29,16 28,16 27,16 26,16 26,17 25,17 24,17 24,18 23,18 23,19 22,19 21,20 21,21 20,21 20,22 19,22 19,23 18,24 18,25 17,25 17,26 17,27 17,28 16,28 16,29 16,30 16,31 16,32 16,33 17,33 17,34 17,35 18,35 18,36 19,36 19,37 20,37 20,38 21,38 21,39 22,39 22,40 23,40" fill="none" stroke="#8aff00" stroke-width="3" stroke-linecap="round" stroke-linejoin="round" opacity="0.95">
    <title>2692 c:1</title>
  </polyline>
</svg>
