<?xml version="1.0" encoding="UTF-8"?>
<svg xmlns="http://www.w3.org/2000/svg" width="52" height="49" viewBox="0 0 52 49">
  <title>atom 2750 c:1</title>
  <metadata>{&quot;entityType&quot;:&quot;atom&quot;,&quot;entityId&quot;:&quot;2750&quot;,&quot;token&quot;:&quot;c:1&quot;,&quot;signature&quot;:&quot;c:1&quot;,&quot;imageName&quot;:&quot;page-094.jpg&quot;,&quot;imageId&quot;:94,&quot;bounds&quot;:{&quot;x&quot;:1580,&quot;y&quot;:604,&quot;w&quot;:52,&quot;h&quot;:49},&quot;atoms&quot;:[{&quot;id&quot;:2750,&quot;token&quot;:&quot;c:1&quot;,&quot;particle_id&quot;:&quot;img94-m8-p1&quot;,&quot;molecule_id&quot;:&quot;img94-m8&quot;,&quot;atom_order&quot;:2}]}</metadata>
  <rect x="0" y="0" width="52" height="49" fill="#f8f0d8"/>
  <image href="file:///C:/Users/HHHES/AppData/Roaming/com.voynichlab.datasetcreator/images/1/33b1988f-7aaa-4207-bfa8-f26b742ac4b1.jpg" x="-1580" y="-604" width="2932" height="3769" opacity="0.92"/>
  <rect x="0.5" y="0.5" width="51" height="48" fill="none" stroke="#111827" stroke-width="1" opacity="0.35"/>
  <polyline points="25,33 26,33 27,33 28,33 29,33 29,32 30,32 31,31 32,31 32,30 33,30 33,29 34,29 34,28 35,28 35,27 35,26 36,26 36,25 36,24 36,23 36,22 36,21 35,21 35,20 34,19 33,19 33,18 32,18 32,17 31,17 30,17 30,16 29,16 28,16 27,16 26,16 25,16 24,16 23,16 22,16 21,16 20,16 20,17 19,17 18,17 18,18 17,18 17,19 17,20 16,20 16,21 16,22 16,23 16,24 16,25 17,25 17,26 17,27 18,27 18,28 19,28 19,29 20,29 20,30 21,30 21,31 22,31 23,32 24,32 25,32" fill="none" stroke="#8aff00" stroke-width="3" stroke-linecap="round" stroke-linejoin="round" opacity="0.95">
    <title>2750 c:1</title>
  </polyline>
</svg>
