<?xml version="1.0" encoding="UTF-8"?>
<svg xmlns="http://www.w3.org/2000/svg" width="56" height="53" viewBox="0 0 56 53">
  <title>atom 2855 c:1</title>
  <metadata>{&quot;entityType&quot;:&quot;atom&quot;,&quot;entityId&quot;:&quot;2855&quot;,&quot;token&quot;:&quot;c:1&quot;,&quot;signature&quot;:&quot;c:1&quot;,&quot;imageName&quot;:&quot;page-094.jpg&quot;,&quot;imageId&quot;:94,&quot;bounds&quot;:{&quot;x&quot;:930,&quot;y&quot;:760,&quot;w&quot;:56,&quot;h&quot;:53},&quot;atoms&quot;:[{&quot;id&quot;:2855,&quot;token&quot;:&quot;c:1&quot;,&quot;particle_id&quot;:&quot;img94-m25-p2&quot;,&quot;molecule_id&quot;:&quot;img94-m25&quot;,&quot;atom_order&quot;:4}]}</metadata>
  <rect x="0" y="0" width="56" height="53" fill="#f8f0d8"/>
  <image href="file:///C:/Users/HHHES/AppData/Roaming/com.voynichlab.datasetcreator/images/1/33b1988f-7aaa-4207-bfa8-f26b742ac4b1.jpg" x="-930" y="-760" width="2932" height="3769" opacity="0.92"/>
  <rect x="0.5" y="0.5" width="55" height="52" fill="none" stroke="#111827" stroke-width="1" opacity="0.35"/>
  <polyline points="37,34 38,34 38,33 39,33 39,32 39,31 40,31 40,30 40,29 40,28 40,27 40,26 40,25 40,24 40,23 39,23 39,22 39,21 38,20 38,19 37,19 36,18 35,18 34,18 34,17 33,17 32,17 32,16 31,16 30,16 29,16 28,16 27,16 26,16 25,16 24,16 24,17 23,17 22,17 22,18 21,18 20,19 19,20 19,21 18,21 18,22 17,22 17,23 17,24 17,25 16,25 16,26 16,27 16,28 16,29 16,30 16,31 17,31 17,32 17,33 18,33 19,34 20,34 20,35 21,35 22,35 22,36 23,36 24,36 25,36 26,36 26,37 27,37 28,37 29,37 30,37 31,37 32,37 33,37 34,37 35,37 35,36 36,36 36,35 37,35 37,34 38,34 39,33 39,32" fill="none" stroke="#8aff00" stroke-width="3" stroke-linecap="round" stroke-linejoin="round" opacity="0.95">
    <title>2855 c:1</title>
  </polyline>
</svg>
