<?xml version="1.0" encoding="UTF-8"?>
<svg xmlns="http://www.w3.org/2000/svg" width="58" height="60" viewBox="0 0 58 60">
  <title>atom 2897 c:1</title>
  <metadata>{&quot;entityType&quot;:&quot;atom&quot;,&quot;entityId&quot;:&quot;2897&quot;,&quot;token&quot;:&quot;c:1&quot;,&quot;signature&quot;:&quot;c:1&quot;,&quot;imageName&quot;:&quot;page-094.jpg&quot;,&quot;imageId&quot;:94,&quot;bounds&quot;:{&quot;x&quot;:1280,&quot;y&quot;:756,&quot;w&quot;:58,&quot;h&quot;:60},&quot;atoms&quot;:[{&quot;id&quot;:2897,&quot;token&quot;:&quot;c:1&quot;,&quot;particle_id&quot;:&quot;img94-m22-p1&quot;,&quot;molecule_id&quot;:&quot;img94-m22&quot;,&quot;atom_order&quot;:3}]}</metadata>
  <rect x="0" y="0" width="58" height="60" fill="#f8f0d8"/>
  <image href="file:///C:/Users/HHHES/AppData/Roaming/com.voynichlab.datasetcreator/images/1/33b1988f-7aaa-4207-bfa8-f26b742ac4b1.jpg" x="-1280" y="-756" width="2932" height="3769" opacity="0.92"/>
  <rect x="0.5" y="0.5" width="57" height="59" fill="none" stroke="#111827" stroke-width="1" opacity="0.35"/>
  <polyline points="37,42 38,42 38,41 39,41 39,40 40,40 40,39 40,38 41,38 41,37 41,36 41,35 41,34 42,34 42,33 42,32 42,31 42,30 42,29 41,29 41,28 41,27 41,26 40,25 40,24 39,24 39,23 39,22 38,22 38,21 37,21 37,20 36,20 36,19 35,19 35,18 34,18 33,18 32,17 31,17 30,17 30,16 29,16 28,16 27,16 26,17 25,17 24,17 23,18 22,18 22,19 21,19 21,20 20,20 20,21 19,21 18,22 18,23 17,23 17,24 16,24 16,25 16,26 16,27 16,28 16,29 16,30 16,31 16,32 16,33 16,34 16,35 16,36 16,37 17,37 17,38 17,39 18,39 18,40 19,41 20,42 21,42 21,43 22,43 23,43 24,43 25,44 26,44 27,44 28,44 29,44 30,44 31,44 32,44 33,44 33,43 34,43 35,43 36,43 37,42 38,42 38,41 39,41" fill="none" stroke="#8aff00" stroke-width="3" stroke-linecap="round" stroke-linejoin="round" opacity="0.95">
    <title>2897 c:1</title>
  </polyline>
</svg>
