<?xml version="1.0" encoding="UTF-8"?>
<svg xmlns="http://www.w3.org/2000/svg" width="53" height="58" viewBox="0 0 53 58">
  <title>atom 2921 c:1</title>
  <metadata>{&quot;entityType&quot;:&quot;atom&quot;,&quot;entityId&quot;:&quot;2921&quot;,&quot;token&quot;:&quot;c:1&quot;,&quot;signature&quot;:&quot;c:1&quot;,&quot;imageName&quot;:&quot;page-094.jpg&quot;,&quot;imageId&quot;:94,&quot;bounds&quot;:{&quot;x&quot;:2113,&quot;y&quot;:777,&quot;w&quot;:53,&quot;h&quot;:58},&quot;atoms&quot;:[{&quot;id&quot;:2921,&quot;token&quot;:&quot;c:1&quot;,&quot;particle_id&quot;:&quot;img94-m23-p1&quot;,&quot;molecule_id&quot;:&quot;img94-m23&quot;,&quot;atom_order&quot;:5}]}</metadata>
  <rect x="0" y="0" width="53" height="58" fill="#f8f0d8"/>
  <image href="file:///C:/Users/HHHES/AppData/Roaming/com.voynichlab.datasetcreator/images/1/33b1988f-7aaa-4207-bfa8-f26b742ac4b1.jpg" x="-2113" y="-777" width="2932" height="3769" opacity="0.92"/>
  <rect x="0.5" y="0.5" width="52" height="57" fill="none" stroke="#111827" stroke-width="1" opacity="0.35"/>
  <polyline points="16,23 17,22 18,22 18,21 19,21 19,20 20,20 20,19 21,19 22,19 23,18 24,18 25,18 26,18 27,18 27,19 28,19 29,19 30,19 30,20 31,20 32,20 33,21 34,21 34,22 35,22 35,23 36,23 36,24 36,25 37,25 37,26 37,27 37,28 37,29 37,30 37,31 37,32 37,33 37,34 37,35 36,35 36,36 35,36 35,37 34,37 34,38 33,38 32,39 31,39 30,39 29,40 28,40 27,41 26,41 25,41 24,42 23,42 22,42 21,42 20,42 19,42 19,41 18,41 18,40 17,39 17,38 17,37 16,37 16,36 16,35 16,34 16,33 16,32 16,31 16,30 16,29 16,28 16,27 16,26 16,25 17,24 17,23 18,23 18,22 19,21 19,20 20,19 21,18 22,17 23,16" fill="none" stroke="#8aff00" stroke-width="3" stroke-linecap="round" stroke-linejoin="round" opacity="0.95">
    <title>2921 c:1</title>
  </polyline>
</svg>
