<?xml version="1.0" encoding="UTF-8"?>
<svg xmlns="http://www.w3.org/2000/svg" width="54" height="55" viewBox="0 0 54 55">
  <title>atom 4237 c:1</title>
  <metadata>{&quot;entityType&quot;:&quot;atom&quot;,&quot;entityId&quot;:&quot;4237&quot;,&quot;token&quot;:&quot;c:1&quot;,&quot;signature&quot;:&quot;c:1&quot;,&quot;imageName&quot;:&quot;page-094.jpg&quot;,&quot;imageId&quot;:94,&quot;bounds&quot;:{&quot;x&quot;:788,&quot;y&quot;:2367,&quot;w&quot;:54,&quot;h&quot;:55},&quot;atoms&quot;:[{&quot;id&quot;:4237,&quot;token&quot;:&quot;c:1&quot;,&quot;particle_id&quot;:&quot;img94-m40-p1&quot;,&quot;molecule_id&quot;:&quot;img94-m40&quot;,&quot;atom_order&quot;:5}]}</metadata>
  <rect x="0" y="0" width="54" height="55" fill="#f8f0d8"/>
  <image href="file:///C:/Users/HHHES/AppData/Roaming/com.voynichlab.datasetcreator/images/1/33b1988f-7aaa-4207-bfa8-f26b742ac4b1.jpg" x="-788" y="-2367" width="2932" height="3769" opacity="0.92"/>
  <rect x="0.5" y="0.5" width="53" height="54" fill="none" stroke="#111827" stroke-width="1" opacity="0.35"/>
  <polyline points="18,25 17,25 17,26 17,27 17,28 17,29 17,30 17,31 17,32 17,33 17,34 17,35 17,36 18,37 18,38 19,38 20,39 21,39 22,39 23,39 24,39 25,39 26,39 27,39 28,39 29,38 30,38 31,38 31,37 32,37 33,36 34,36 35,35 35,34 36,33 36,32 36,31 37,31 37,30 37,29 38,28 38,27 37,26 37,25 36,24 35,23 35,22 35,21 34,20 34,19 33,19 33,18 32,18 31,17 30,17 29,17 29,16 28,16 27,16 26,16 25,17 24,17 22,18 20,18 19,18 18,18 18,19 17,19 17,20 16,21 16,22 16,23 16,24 16,25 16,26 16,27 17,28 17,29" fill="none" stroke="#8aff00" stroke-width="3" stroke-linecap="round" stroke-linejoin="round" opacity="0.95">
    <title>4237 c:1</title>
  </polyline>
</svg>
