<?xml version="1.0" encoding="UTF-8"?>
<svg xmlns="http://www.w3.org/2000/svg" width="49" height="55" viewBox="0 0 49 55">
  <title>atom 4243 c:1</title>
  <metadata>{&quot;entityType&quot;:&quot;atom&quot;,&quot;entityId&quot;:&quot;4243&quot;,&quot;token&quot;:&quot;c:1&quot;,&quot;signature&quot;:&quot;c:1&quot;,&quot;imageName&quot;:&quot;page-094.jpg&quot;,&quot;imageId&quot;:94,&quot;bounds&quot;:{&quot;x&quot;:899,&quot;y&quot;:2440,&quot;w&quot;:49,&quot;h&quot;:55},&quot;atoms&quot;:[{&quot;id&quot;:4243,&quot;token&quot;:&quot;c:1&quot;,&quot;particle_id&quot;:&quot;img94-m40-p3&quot;,&quot;molecule_id&quot;:&quot;img94-m40&quot;,&quot;atom_order&quot;:2}]}</metadata>
  <rect x="0" y="0" width="49" height="55" fill="#f8f0d8"/>
  <image href="file:///C:/Users/HHHES/AppData/Roaming/com.voynichlab.datasetcreator/images/1/33b1988f-7aaa-4207-bfa8-f26b742ac4b1.jpg" x="-899" y="-2440" width="2932" height="3769" opacity="0.92"/>
  <rect x="0.5" y="0.5" width="48" height="54" fill="none" stroke="#111827" stroke-width="1" opacity="0.35"/>
  <polyline points="16,19 16,18 17,18 17,17 18,17 19,17 20,17 20,16 21,16 22,16 23,16 24,16 25,16 26,16 26,17 27,17 28,18 29,18 29,19 30,19 30,20 31,20 31,21 31,22 32,22 32,23 32,24 32,25 32,26 32,27 32,28 33,28 33,29 33,30 33,31 33,32 32,33 32,34 32,35 31,36 31,37 30,37 30,38 29,38 28,39 27,39 26,38 25,38 25,37 24,37 24,36 23,36 22,35 22,34 21,34 21,33 20,33 20,32 20,31 19,30 19,29 18,29 18,28 17,27 17,26 17,25 16,25 16,24 16,23 16,22 16,21 16,20 16,19 16,18 16,17 17,17 17,16 18,16 19,16" fill="none" stroke="#8aff00" stroke-width="3" stroke-linecap="round" stroke-linejoin="round" opacity="0.95">
    <title>4243 c:1</title>
  </polyline>
</svg>
