<?xml version="1.0" encoding="UTF-8"?>
<svg xmlns="http://www.w3.org/2000/svg" width="52" height="50" viewBox="0 0 52 50">
  <title>atom 4245 c:1</title>
  <metadata>{&quot;entityType&quot;:&quot;atom&quot;,&quot;entityId&quot;:&quot;4245&quot;,&quot;token&quot;:&quot;c:1&quot;,&quot;signature&quot;:&quot;c:1&quot;,&quot;imageName&quot;:&quot;page-094.jpg&quot;,&quot;imageId&quot;:94,&quot;bounds&quot;:{&quot;x&quot;:1232,&quot;y&quot;:2427,&quot;w&quot;:52,&quot;h&quot;:50},&quot;atoms&quot;:[{&quot;id&quot;:4245,&quot;token&quot;:&quot;c:1&quot;,&quot;particle_id&quot;:&quot;img94-m41-p2&quot;,&quot;molecule_id&quot;:&quot;img94-m41&quot;,&quot;atom_order&quot;:2}]}</metadata>
  <rect x="0" y="0" width="52" height="50" fill="#f8f0d8"/>
  <image href="file:///C:/Users/HHHES/AppData/Roaming/com.voynichlab.datasetcreator/images/1/33b1988f-7aaa-4207-bfa8-f26b742ac4b1.jpg" x="-1232" y="-2427" width="2932" height="3769" opacity="0.92"/>
  <rect x="0.5" y="0.5" width="51" height="49" fill="none" stroke="#111827" stroke-width="1" opacity="0.35"/>
  <polyline points="24,34 25,34 26,33 27,33 28,33 29,32 30,32 30,31 31,31 32,30 33,30 34,29 34,28 35,28 35,27 36,27 36,26 36,25 36,24 35,23 35,22 34,21 33,20 33,19 32,19 32,18 31,18 30,17 29,17 28,17 27,16 26,16 25,16 24,16 23,16 23,17 22,17 21,17 21,18 20,18 20,19 19,19 19,20 18,20 18,21 17,21 17,22 17,23 16,24 16,25 16,26 16,27 16,28 16,29 17,29 17,30 18,30 18,31 19,31 19,32 20,32 21,32 22,32 22,33 23,33 24,33 25,33 26,33" fill="none" stroke="#8aff00" stroke-width="3" stroke-linecap="round" stroke-linejoin="round" opacity="0.95">
    <title>4245 c:1</title>
  </polyline>
</svg>
