<?xml version="1.0" encoding="UTF-8"?>
<svg xmlns="http://www.w3.org/2000/svg" width="51" height="53" viewBox="0 0 51 53">
  <title>atom 4303 c:1</title>
  <metadata>{&quot;entityType&quot;:&quot;atom&quot;,&quot;entityId&quot;:&quot;4303&quot;,&quot;token&quot;:&quot;c:1&quot;,&quot;signature&quot;:&quot;c:1&quot;,&quot;imageName&quot;:&quot;page-094.jpg&quot;,&quot;imageId&quot;:94,&quot;bounds&quot;:{&quot;x&quot;:754,&quot;y&quot;:2524,&quot;w&quot;:51,&quot;h&quot;:53},&quot;atoms&quot;:[{&quot;id&quot;:4303,&quot;token&quot;:&quot;c:1&quot;,&quot;particle_id&quot;:&quot;img94-m45-p1&quot;,&quot;molecule_id&quot;:&quot;img94-m45&quot;,&quot;atom_order&quot;:2}]}</metadata>
  <rect x="0" y="0" width="51" height="53" fill="#f8f0d8"/>
  <image href="file:///C:/Users/HHHES/AppData/Roaming/com.voynichlab.datasetcreator/images/1/33b1988f-7aaa-4207-bfa8-f26b742ac4b1.jpg" x="-754" y="-2524" width="2932" height="3769" opacity="0.92"/>
  <rect x="0.5" y="0.5" width="50" height="52" fill="none" stroke="#111827" stroke-width="1" opacity="0.35"/>
  <polyline points="27,37 28,37 29,36 30,36 30,35 31,35 31,34 32,34 32,33 32,32 33,32 33,31 34,30 34,29 34,28 34,27 35,27 35,26 35,25 35,24 35,23 35,22 34,22 34,21 34,20 33,19 33,18 32,18 32,17 31,17 30,17 29,16 28,16 27,16 26,16 25,16 24,16 23,16 22,16 21,16 21,17 20,17 20,18 19,18 19,19 18,19 18,20 17,20 17,21 16,22 16,23 16,24 16,25 16,26 16,27 16,28 17,29 17,30 18,31 19,32 19,33 20,33 20,34 21,34 21,35 22,35 22,36 23,36 24,36 25,36 25,37 26,37 27,37 28,37 29,37 29,36" fill="none" stroke="#8aff00" stroke-width="3" stroke-linecap="round" stroke-linejoin="round" opacity="0.95">
    <title>4303 c:1</title>
  </polyline>
</svg>
