<?xml version="1.0" encoding="UTF-8"?>
<svg xmlns="http://www.w3.org/2000/svg" width="60" height="60" viewBox="0 0 60 60">
  <title>atom 4343 c:1</title>
  <metadata>{&quot;entityType&quot;:&quot;atom&quot;,&quot;entityId&quot;:&quot;4343&quot;,&quot;token&quot;:&quot;c:1&quot;,&quot;signature&quot;:&quot;c:1&quot;,&quot;imageName&quot;:&quot;page-094.jpg&quot;,&quot;imageId&quot;:94,&quot;bounds&quot;:{&quot;x&quot;:843,&quot;y&quot;:2571,&quot;w&quot;:60,&quot;h&quot;:60},&quot;atoms&quot;:[{&quot;id&quot;:4343,&quot;token&quot;:&quot;c:1&quot;,&quot;particle_id&quot;:&quot;img94-m53-p2&quot;,&quot;molecule_id&quot;:&quot;img94-m53&quot;,&quot;atom_order&quot;:3}]}</metadata>
  <rect x="0" y="0" width="60" height="60" fill="#f8f0d8"/>
  <image href="file:///C:/Users/HHHES/AppData/Roaming/com.voynichlab.datasetcreator/images/1/33b1988f-7aaa-4207-bfa8-f26b742ac4b1.jpg" x="-843" y="-2571" width="2932" height="3769" opacity="0.92"/>
  <rect x="0.5" y="0.5" width="59" height="59" fill="none" stroke="#111827" stroke-width="1" opacity="0.35"/>
  <polyline points="27,44 28,44 29,44 30,44 31,44 32,44 33,43 34,43 35,43 36,43 36,42 37,42 38,42 38,41 39,41 39,40 40,40 41,40 41,39 42,38 43,37 43,36 44,35 44,34 44,33 44,32 44,31 44,30 44,29 44,28 44,27 44,26 44,25 44,24 43,24 43,23 43,22 42,22 42,21 41,21 41,20 40,20 39,20 38,19 37,19 36,18 35,18 34,17 33,17 32,16 31,16 30,16 29,16 28,16 27,16 26,16 25,16 24,16 23,17 22,17 21,18 20,18 20,19 19,19 19,20 18,20 18,21 17,22 17,23 16,23 16,24 16,25 16,26 16,27 16,28 16,29 16,30 16,31 16,32 16,33 16,34 16,35 17,36 17,37 18,38 18,39 19,40 20,40 20,41 21,41 22,42 23,42 24,42 24,43 25,43 26,43 27,44 28,44 29,44" fill="none" stroke="#8aff00" stroke-width="3" stroke-linecap="round" stroke-linejoin="round" opacity="0.95">
    <title>4343 c:1</title>
  </polyline>
</svg>
