<?xml version="1.0" encoding="UTF-8"?>
<svg xmlns="http://www.w3.org/2000/svg" width="61" height="58" viewBox="0 0 61 58">
  <title>atom 4357 c:1</title>
  <metadata>{&quot;entityType&quot;:&quot;atom&quot;,&quot;entityId&quot;:&quot;4357&quot;,&quot;token&quot;:&quot;c:1&quot;,&quot;signature&quot;:&quot;c:1&quot;,&quot;imageName&quot;:&quot;page-094.jpg&quot;,&quot;imageId&quot;:94,&quot;bounds&quot;:{&quot;x&quot;:1177,&quot;y&quot;:2560,&quot;w&quot;:61,&quot;h&quot;:58},&quot;atoms&quot;:[{&quot;id&quot;:4357,&quot;token&quot;:&quot;c:1&quot;,&quot;particle_id&quot;:&quot;img94-m51-p3&quot;,&quot;molecule_id&quot;:&quot;img94-m51&quot;,&quot;atom_order&quot;:4}]}</metadata>
  <rect x="0" y="0" width="61" height="58" fill="#f8f0d8"/>
  <image href="file:///C:/Users/HHHES/AppData/Roaming/com.voynichlab.datasetcreator/images/1/33b1988f-7aaa-4207-bfa8-f26b742ac4b1.jpg" x="-1177" y="-2560" width="2932" height="3769" opacity="0.92"/>
  <rect x="0.5" y="0.5" width="60" height="57" fill="none" stroke="#111827" stroke-width="1" opacity="0.35"/>
  <polyline points="38,39 39,39 40,38 41,37 42,36 42,35 43,35 43,34 43,33 43,32 44,31 44,30 44,29 44,28 44,27 45,27 45,26 45,25 45,24 45,23 45,22 45,21 45,20 44,20 44,19 43,19 43,18 42,17 41,17 40,17 40,16 39,16 38,16 37,16 36,16 35,16 34,16 32,16 31,17 29,17 28,18 27,18 27,19 26,20 25,20 24,20 23,21 22,21 21,21 21,22 20,22 19,23 18,23 18,24 17,25 17,26 17,27 17,28 16,28 16,29 16,30 16,31 16,32 16,33 16,34 16,35 16,36 16,37 17,38 17,39 18,40 19,40 20,40 20,41 21,41 22,41 23,41 24,41 26,41 26,42 27,42 28,42 29,42 30,42 31,42 32,42 33,42 34,42 34,41 35,41 36,41 37,41 37,40 38,40 39,40 39,39 40,39 40,38 41,38 42,37 42,36 43,36" fill="none" stroke="#8aff00" stroke-width="3" stroke-linecap="round" stroke-linejoin="round" opacity="0.95">
    <title>4357 c:1</title>
  </polyline>
</svg>
