<?xml version="1.0" encoding="UTF-8"?>
<svg xmlns="http://www.w3.org/2000/svg" width="65" height="53" viewBox="0 0 65 53">
  <title>atom 4489 c:1</title>
  <metadata>{&quot;entityType&quot;:&quot;atom&quot;,&quot;entityId&quot;:&quot;4489&quot;,&quot;token&quot;:&quot;c:1&quot;,&quot;signature&quot;:&quot;c:1&quot;,&quot;imageName&quot;:&quot;page-094.jpg&quot;,&quot;imageId&quot;:94,&quot;bounds&quot;:{&quot;x&quot;:1102,&quot;y&quot;:2650,&quot;w&quot;:65,&quot;h&quot;:53},&quot;atoms&quot;:[{&quot;id&quot;:4489,&quot;token&quot;:&quot;c:1&quot;,&quot;particle_id&quot;:&quot;img94-m59-p7&quot;,&quot;molecule_id&quot;:&quot;img94-m59&quot;,&quot;atom_order&quot;:3}]}</metadata>
  <rect x="0" y="0" width="65" height="53" fill="#f8f0d8"/>
  <image href="file:///C:/Users/HHHES/AppData/Roaming/com.voynichlab.datasetcreator/images/1/33b1988f-7aaa-4207-bfa8-f26b742ac4b1.jpg" x="-1102" y="-2650" width="2932" height="3769" opacity="0.92"/>
  <rect x="0.5" y="0.5" width="64" height="52" fill="none" stroke="#111827" stroke-width="1" opacity="0.35"/>
  <polyline points="17,19 17,20 16,20 16,21 16,22 16,23 16,24 16,25 16,26 16,27 16,28 16,29 17,30 17,31 18,32 19,32 19,33 20,34 21,34 21,35 22,35 23,35 24,36 26,36 27,36 28,36 29,36 30,37 32,37 34,37 35,37 36,37 37,37 39,37 40,37 41,37 41,36 42,36 43,36 44,35 45,35 46,34 47,33 47,32 48,32 48,31 49,30 49,29 49,28 49,27 49,26 49,25 48,24 48,23 48,22 47,22 47,21 46,20 45,20 45,19 44,19 44,18 43,18 42,17 41,17 40,17 39,16 38,16 37,16 36,16 35,16 34,16 32,16 31,16 30,16 29,16 28,16 27,16 26,16 25,16 24,17 23,17 22,17 21,18 20,18 19,18 19,19 18,19 17,20 16,21" fill="none" stroke="#8aff00" stroke-width="3" stroke-linecap="round" stroke-linejoin="round" opacity="0.95">
    <title>4489 c:1</title>
  </polyline>
</svg>
