<?xml version="1.0" encoding="UTF-8"?>
<svg xmlns="http://www.w3.org/2000/svg" width="53" height="51" viewBox="0 0 53 51">
  <title>atom 4496 c:1</title>
  <metadata>{&quot;entityType&quot;:&quot;atom&quot;,&quot;entityId&quot;:&quot;4496&quot;,&quot;token&quot;:&quot;c:1&quot;,&quot;signature&quot;:&quot;c:1&quot;,&quot;imageName&quot;:&quot;page-094.jpg&quot;,&quot;imageId&quot;:94,&quot;bounds&quot;:{&quot;x&quot;:2205,&quot;y&quot;:2631,&quot;w&quot;:53,&quot;h&quot;:51},&quot;atoms&quot;:[{&quot;id&quot;:4496,&quot;token&quot;:&quot;c:1&quot;,&quot;particle_id&quot;:&quot;img94-m55-p3&quot;,&quot;molecule_id&quot;:&quot;img94-m55&quot;,&quot;atom_order&quot;:2}]}</metadata>
  <rect x="0" y="0" width="53" height="51" fill="#f8f0d8"/>
  <image href="file:///C:/Users/HHHES/AppData/Roaming/com.voynichlab.datasetcreator/images/1/33b1988f-7aaa-4207-bfa8-f26b742ac4b1.jpg" x="-2205" y="-2631" width="2932" height="3769" opacity="0.92"/>
  <rect x="0.5" y="0.5" width="52" height="50" fill="none" stroke="#111827" stroke-width="1" opacity="0.35"/>
  <polyline points="28,35 29,35 30,35 30,34 31,34 32,34 33,33 34,33 34,32 35,31 36,31 36,30 37,29 37,28 37,27 37,26 37,25 37,24 37,23 37,22 37,21 36,21 35,20 34,19 33,19 33,18 32,18 31,18 31,17 30,17 29,17 28,16 27,16 26,16 25,16 24,16 23,16 22,16 22,17 21,17 20,17 19,18 18,18 18,19 17,19 16,20 16,21 16,22 16,23 16,24 16,25 16,26 16,27 17,28 17,29 18,30 18,31 19,31 19,32 20,32 21,33 22,33 23,34 24,34 25,34 25,35 26,35 27,35 28,35 29,35" fill="none" stroke="#8aff00" stroke-width="3" stroke-linecap="round" stroke-linejoin="round" opacity="0.95">
    <title>4496 c:1</title>
  </polyline>
</svg>
