<?xml version="1.0" encoding="UTF-8"?>
<svg xmlns="http://www.w3.org/2000/svg" width="60" height="52" viewBox="0 0 60 52">
  <title>atom 4499 c:1</title>
  <metadata>{&quot;entityType&quot;:&quot;atom&quot;,&quot;entityId&quot;:&quot;4499&quot;,&quot;token&quot;:&quot;c:1&quot;,&quot;signature&quot;:&quot;c:1&quot;,&quot;imageName&quot;:&quot;page-094.jpg&quot;,&quot;imageId&quot;:94,&quot;bounds&quot;:{&quot;x&quot;:1918,&quot;y&quot;:2721,&quot;w&quot;:60,&quot;h&quot;:52},&quot;atoms&quot;:[{&quot;id&quot;:4499,&quot;token&quot;:&quot;c:1&quot;,&quot;particle_id&quot;:&quot;img94-m60-p1&quot;,&quot;molecule_id&quot;:&quot;img94-m60&quot;,&quot;atom_order&quot;:2}]}</metadata>
  <rect x="0" y="0" width="60" height="52" fill="#f8f0d8"/>
  <image href="file:///C:/Users/HHHES/AppData/Roaming/com.voynichlab.datasetcreator/images/1/33b1988f-7aaa-4207-bfa8-f26b742ac4b1.jpg" x="-1918" y="-2721" width="2932" height="3769" opacity="0.92"/>
  <rect x="0.5" y="0.5" width="59" height="51" fill="none" stroke="#111827" stroke-width="1" opacity="0.35"/>
  <polyline points="33,35 34,35 35,35 36,35 36,34 37,34 38,33 39,32 40,31 41,30 41,29 42,29 43,28 43,27 43,26 44,26 44,25 44,24 44,23 43,22 43,21 42,21 42,20 41,19 40,18 39,17 38,17 37,17 37,16 36,16 35,16 34,16 33,16 32,16 30,16 29,16 27,16 26,16 25,16 24,16 23,16 22,17 21,17 20,17 20,18 19,18 18,19 17,19 17,20 16,21 16,22 16,23 16,24 16,25 16,26 16,27 16,28 16,29 17,30 18,30 18,31 19,32 20,32 21,33 22,34 23,34 24,35 25,35 26,35 27,35 28,36 29,36 31,36 32,36 33,36 34,36 35,36 36,35 36,34 37,34" fill="none" stroke="#8aff00" stroke-width="3" stroke-linecap="round" stroke-linejoin="round" opacity="0.95">
    <title>4499 c:1</title>
  </polyline>
</svg>
