<?xml version="1.0" encoding="UTF-8"?>
<svg xmlns="http://www.w3.org/2000/svg" width="55" height="53" viewBox="0 0 55 53">
  <title>atom 4500 c:1</title>
  <metadata>{&quot;entityType&quot;:&quot;atom&quot;,&quot;entityId&quot;:&quot;4500&quot;,&quot;token&quot;:&quot;c:1&quot;,&quot;signature&quot;:&quot;c:1&quot;,&quot;imageName&quot;:&quot;page-094.jpg&quot;,&quot;imageId&quot;:94,&quot;bounds&quot;:{&quot;x&quot;:1700,&quot;y&quot;:2712,&quot;w&quot;:55,&quot;h&quot;:53},&quot;atoms&quot;:[{&quot;id&quot;:4500,&quot;token&quot;:&quot;c:1&quot;,&quot;particle_id&quot;:&quot;img94-m63-p3&quot;,&quot;molecule_id&quot;:&quot;img94-m63&quot;,&quot;atom_order&quot;:3}]}</metadata>
  <rect x="0" y="0" width="55" height="53" fill="#f8f0d8"/>
  <image href="file:///C:/Users/HHHES/AppData/Roaming/com.voynichlab.datasetcreator/images/1/33b1988f-7aaa-4207-bfa8-f26b742ac4b1.jpg" x="-1700" y="-2712" width="2932" height="3769" opacity="0.92"/>
  <rect x="0.5" y="0.5" width="54" height="52" fill="none" stroke="#111827" stroke-width="1" opacity="0.35"/>
  <polyline points="18,37 19,37 20,37 21,37 22,37 23,37 24,37 25,36 26,36 27,36 28,36 29,36 30,35 31,35 32,35 33,34 34,34 34,33 35,33 35,32 36,32 37,32 37,31 38,31 38,30 39,29 39,28 39,27 39,26 39,25 38,24 38,23 38,22 38,21 37,21 37,20 36,20 36,19 35,19 35,18 34,18 34,17 33,17 32,16 31,16 30,16 29,16 28,16 27,17 26,17 25,18 24,18 23,19 22,19 22,20 21,20 20,21 19,22 18,23 18,24 17,25 17,26 17,27 16,28 16,29 16,30 16,31 16,32 17,33 17,34 18,35 18,36 19,36 20,36 20,37 21,37" fill="none" stroke="#8aff00" stroke-width="3" stroke-linecap="round" stroke-linejoin="round" opacity="0.95">
    <title>4500 c:1</title>
  </polyline>
</svg>
