<?xml version="1.0" encoding="UTF-8"?>
<svg xmlns="http://www.w3.org/2000/svg" width="55" height="50" viewBox="0 0 55 50">
  <title>atom 4501 c:1</title>
  <metadata>{&quot;entityType&quot;:&quot;atom&quot;,&quot;entityId&quot;:&quot;4501&quot;,&quot;token&quot;:&quot;c:1&quot;,&quot;signature&quot;:&quot;c:1&quot;,&quot;imageName&quot;:&quot;page-094.jpg&quot;,&quot;imageId&quot;:94,&quot;bounds&quot;:{&quot;x&quot;:1421,&quot;y&quot;:2735,&quot;w&quot;:55,&quot;h&quot;:50},&quot;atoms&quot;:[{&quot;id&quot;:4501,&quot;token&quot;:&quot;c:1&quot;,&quot;particle_id&quot;:&quot;img94-m62-p1&quot;,&quot;molecule_id&quot;:&quot;img94-m62&quot;,&quot;atom_order&quot;:3}]}</metadata>
  <rect x="0" y="0" width="55" height="50" fill="#f8f0d8"/>
  <image href="file:///C:/Users/HHHES/AppData/Roaming/com.voynichlab.datasetcreator/images/1/33b1988f-7aaa-4207-bfa8-f26b742ac4b1.jpg" x="-1421" y="-2735" width="2932" height="3769" opacity="0.92"/>
  <rect x="0.5" y="0.5" width="54" height="49" fill="none" stroke="#111827" stroke-width="1" opacity="0.35"/>
  <polyline points="17,26 16,26 16,27 17,28 17,29 18,30 18,31 19,31 20,31 20,32 21,32 21,33 23,33 24,33 26,34 27,34 28,34 29,34 30,34 31,34 32,34 33,33 34,33 36,33 36,32 37,32 37,31 38,31 38,30 39,30 39,29 39,28 39,27 39,26 39,25 39,24 39,23 39,22 38,21 37,20 36,19 36,18 35,18 34,17 33,17 32,17 31,16 30,16 29,16 28,16 27,16 25,16 24,16 23,16 22,17 21,18 20,19 19,20 19,21 19,22 18,22 18,23 18,24 18,25 17,25 17,26 17,27 17,28" fill="none" stroke="#8aff00" stroke-width="3" stroke-linecap="round" stroke-linejoin="round" opacity="0.95">
    <title>4501 c:1</title>
  </polyline>
</svg>
