<?xml version="1.0" encoding="UTF-8"?>
<svg xmlns="http://www.w3.org/2000/svg" width="52" height="50" viewBox="0 0 52 50">
  <title>atom 4503 c:1</title>
  <metadata>{&quot;entityType&quot;:&quot;atom&quot;,&quot;entityId&quot;:&quot;4503&quot;,&quot;token&quot;:&quot;c:1&quot;,&quot;signature&quot;:&quot;c:1&quot;,&quot;imageName&quot;:&quot;page-094.jpg&quot;,&quot;imageId&quot;:94,&quot;bounds&quot;:{&quot;x&quot;:1156,&quot;y&quot;:2774,&quot;w&quot;:52,&quot;h&quot;:50},&quot;atoms&quot;:[{&quot;id&quot;:4503,&quot;token&quot;:&quot;c:1&quot;,&quot;particle_id&quot;:&quot;img94-m66-p1&quot;,&quot;molecule_id&quot;:&quot;img94-m66&quot;,&quot;atom_order&quot;:2}]}</metadata>
  <rect x="0" y="0" width="52" height="50" fill="#f8f0d8"/>
  <image href="file:///C:/Users/HHHES/AppData/Roaming/com.voynichlab.datasetcreator/images/1/33b1988f-7aaa-4207-bfa8-f26b742ac4b1.jpg" x="-1156" y="-2774" width="2932" height="3769" opacity="0.92"/>
  <rect x="0.5" y="0.5" width="51" height="49" fill="none" stroke="#111827" stroke-width="1" opacity="0.35"/>
  <polyline points="30,34 31,34 31,33 32,33 32,32 33,32 33,31 34,30 34,29 34,28 34,27 35,27 35,26 35,25 35,24 35,23 36,22 36,21 36,20 35,19 34,19 34,18 33,18 32,18 31,17 30,17 29,16 28,16 27,16 26,16 25,16 24,16 23,17 22,17 21,17 20,18 19,18 18,18 18,19 17,19 17,20 16,20 16,21 16,22 16,23 16,24 17,25 17,26 18,26 18,27 19,28 19,29 20,29 20,30 21,30 22,31 23,31 24,31 24,32 25,32 26,33 27,33 28,33 29,33 30,33 31,33" fill="none" stroke="#8aff00" stroke-width="3" stroke-linecap="round" stroke-linejoin="round" opacity="0.95">
    <title>4503 c:1</title>
  </polyline>
</svg>
