<?xml version="1.0" encoding="UTF-8"?>
<svg xmlns="http://www.w3.org/2000/svg" width="51" height="55" viewBox="0 0 51 55">
  <title>atom 4508 c:1</title>
  <metadata>{&quot;entityType&quot;:&quot;atom&quot;,&quot;entityId&quot;:&quot;4508&quot;,&quot;token&quot;:&quot;c:1&quot;,&quot;signature&quot;:&quot;c:1&quot;,&quot;imageName&quot;:&quot;page-094.jpg&quot;,&quot;imageId&quot;:94,&quot;bounds&quot;:{&quot;x&quot;:1051,&quot;y&quot;:2832,&quot;w&quot;:51,&quot;h&quot;:55},&quot;atoms&quot;:[{&quot;id&quot;:4508,&quot;token&quot;:&quot;c:1&quot;,&quot;particle_id&quot;:&quot;img94-m70-p1&quot;,&quot;molecule_id&quot;:&quot;img94-m70&quot;,&quot;atom_order&quot;:3}]}</metadata>
  <rect x="0" y="0" width="51" height="55" fill="#f8f0d8"/>
  <image href="file:///C:/Users/HHHES/AppData/Roaming/com.voynichlab.datasetcreator/images/1/33b1988f-7aaa-4207-bfa8-f26b742ac4b1.jpg" x="-1051" y="-2832" width="2932" height="3769" opacity="0.92"/>
  <rect x="0.5" y="0.5" width="50" height="54" fill="none" stroke="#111827" stroke-width="1" opacity="0.35"/>
  <polyline points="18,38 18,39 19,39 20,39 21,39 22,39 23,39 24,38 25,38 26,38 27,37 28,37 29,37 30,36 31,36 32,35 32,34 33,34 33,33 34,33 34,32 34,31 35,30 35,29 35,28 35,27 34,26 34,25 33,24 33,23 32,23 32,22 32,21 32,20 31,19 31,18 30,18 30,17 29,17 29,16 28,16 27,16 26,16 25,16 24,16 23,16 22,16 21,16 20,16 20,17 19,17 18,17 18,18 17,19 17,20 16,20 16,21 16,22 16,23 16,24 16,25 16,26 16,27 16,28 16,29 16,30 16,31 16,32 17,33 17,34 17,35 18,35 18,36 19,36 19,37 19,38 20,38 21,38 21,39" fill="none" stroke="#8aff00" stroke-width="3" stroke-linecap="round" stroke-linejoin="round" opacity="0.95">
    <title>4508 c:1</title>
  </polyline>
</svg>
