<?xml version="1.0" encoding="UTF-8"?>
<svg xmlns="http://www.w3.org/2000/svg" width="56" height="53" viewBox="0 0 56 53">
  <title>atom 4512 c:1</title>
  <metadata>{&quot;entityType&quot;:&quot;atom&quot;,&quot;entityId&quot;:&quot;4512&quot;,&quot;token&quot;:&quot;c:1&quot;,&quot;signature&quot;:&quot;c:1&quot;,&quot;imageName&quot;:&quot;page-094.jpg&quot;,&quot;imageId&quot;:94,&quot;bounds&quot;:{&quot;x&quot;:2246,&quot;y&quot;:2840,&quot;w&quot;:56,&quot;h&quot;:53},&quot;atoms&quot;:[{&quot;id&quot;:4512,&quot;token&quot;:&quot;c:1&quot;,&quot;particle_id&quot;:&quot;img94-m77-p2&quot;,&quot;molecule_id&quot;:&quot;img94-m77&quot;,&quot;atom_order&quot;:3}]}</metadata>
  <rect x="0" y="0" width="56" height="53" fill="#f8f0d8"/>
  <image href="file:///C:/Users/HHHES/AppData/Roaming/com.voynichlab.datasetcreator/images/1/33b1988f-7aaa-4207-bfa8-f26b742ac4b1.jpg" x="-2246" y="-2840" width="2932" height="3769" opacity="0.92"/>
  <rect x="0.5" y="0.5" width="55" height="52" fill="none" stroke="#111827" stroke-width="1" opacity="0.35"/>
  <polyline points="18,37 19,37 20,37 21,36 22,36 23,36 24,36 25,36 25,35 26,35 27,35 28,35 29,35 30,34 31,34 32,34 32,33 33,33 34,33 34,32 35,32 35,31 36,30 37,29 38,28 38,27 39,27 39,26 39,25 39,24 40,24 40,23 40,22 40,21 39,20 38,19 37,18 36,18 36,17 35,17 34,17 33,16 32,16 31,16 30,16 29,16 28,16 27,16 26,17 25,17 24,18 23,18 22,19 21,19 20,20 19,20 19,21 19,22 18,22 18,23 17,24 17,25 16,26 16,27 16,29 16,30 16,31 16,32 16,33 16,34 16,35 16,36 17,36 18,37 19,37 20,37 21,37 22,37" fill="none" stroke="#8aff00" stroke-width="3" stroke-linecap="round" stroke-linejoin="round" opacity="0.95">
    <title>4512 c:1</title>
  </polyline>
</svg>
