<?xml version="1.0" encoding="UTF-8"?>
<svg xmlns="http://www.w3.org/2000/svg" width="52" height="56" viewBox="0 0 52 56">
  <title>atom 4514 c:1</title>
  <metadata>{&quot;entityType&quot;:&quot;atom&quot;,&quot;entityId&quot;:&quot;4514&quot;,&quot;token&quot;:&quot;c:1&quot;,&quot;signature&quot;:&quot;c:1&quot;,&quot;imageName&quot;:&quot;page-094.jpg&quot;,&quot;imageId&quot;:94,&quot;bounds&quot;:{&quot;x&quot;:1926,&quot;y&quot;:2874,&quot;w&quot;:52,&quot;h&quot;:56},&quot;atoms&quot;:[{&quot;id&quot;:4514,&quot;token&quot;:&quot;c:1&quot;,&quot;particle_id&quot;:&quot;img94-m74-p1&quot;,&quot;molecule_id&quot;:&quot;img94-m74&quot;,&quot;atom_order&quot;:2}]}</metadata>
  <rect x="0" y="0" width="52" height="56" fill="#f8f0d8"/>
  <image href="file:///C:/Users/HHHES/AppData/Roaming/com.voynichlab.datasetcreator/images/1/33b1988f-7aaa-4207-bfa8-f26b742ac4b1.jpg" x="-1926" y="-2874" width="2932" height="3769" opacity="0.92"/>
  <rect x="0.5" y="0.5" width="51" height="55" fill="none" stroke="#111827" stroke-width="1" opacity="0.35"/>
  <polyline points="26,40 27,40 28,39 29,39 29,38 30,37 30,36 31,36 31,35 32,34 33,33 34,32 34,31 34,30 35,30 35,29 35,28 35,27 35,26 36,26 36,25 36,24 36,23 36,22 35,22 35,21 34,20 34,19 33,19 33,18 32,18 32,17 31,17 30,17 30,16 29,16 28,16 27,16 26,16 25,16 24,16 22,17 21,18 19,18 18,19 18,20 17,20 17,21 17,22 16,23 16,24 16,25 16,26 16,27 16,28 16,30 16,31 16,32 17,32 17,33 17,34 18,34 18,35 19,35 19,36 20,36 21,36 21,37 22,37 23,37 24,37 25,38 26,38 27,38" fill="none" stroke="#8aff00" stroke-width="3" stroke-linecap="round" stroke-linejoin="round" opacity="0.95">
    <title>4514 c:1</title>
  </polyline>
</svg>
