<?xml version="1.0" encoding="UTF-8"?>
<svg xmlns="http://www.w3.org/2000/svg" width="55" height="51" viewBox="0 0 55 51">
  <title>atom 4516 c:1</title>
  <metadata>{&quot;entityType&quot;:&quot;atom&quot;,&quot;entityId&quot;:&quot;4516&quot;,&quot;token&quot;:&quot;c:1&quot;,&quot;signature&quot;:&quot;c:1&quot;,&quot;imageName&quot;:&quot;page-094.jpg&quot;,&quot;imageId&quot;:94,&quot;bounds&quot;:{&quot;x&quot;:1298,&quot;y&quot;:2934,&quot;w&quot;:55,&quot;h&quot;:51},&quot;atoms&quot;:[{&quot;id&quot;:4516,&quot;token&quot;:&quot;c:1&quot;,&quot;particle_id&quot;:&quot;img94-m80-p2&quot;,&quot;molecule_id&quot;:&quot;img94-m80&quot;,&quot;atom_order&quot;:2}]}</metadata>
  <rect x="0" y="0" width="55" height="51" fill="#f8f0d8"/>
  <image href="file:///C:/Users/HHHES/AppData/Roaming/com.voynichlab.datasetcreator/images/1/33b1988f-7aaa-4207-bfa8-f26b742ac4b1.jpg" x="-1298" y="-2934" width="2932" height="3769" opacity="0.92"/>
  <rect x="0.5" y="0.5" width="54" height="50" fill="none" stroke="#111827" stroke-width="1" opacity="0.35"/>
  <polyline points="25,33 26,33 27,33 28,32 29,32 30,31 31,31 32,31 33,30 34,29 35,29 36,28 37,28 37,27 38,27 38,26 39,25 39,24 39,23 39,22 38,21 38,20 37,20 36,19 36,18 35,18 35,17 34,17 33,17 32,16 31,16 30,16 29,16 28,16 27,16 26,16 25,16 24,16 23,17 22,17 21,18 20,18 19,18 18,19 17,20 17,21 16,21 16,22 16,23 16,24 16,25 16,26 16,27 16,28 16,29 17,30 18,31 19,32 20,33 21,33 22,34 23,34 23,35 24,35 25,35 26,35 27,35 27,34 28,34" fill="none" stroke="#8aff00" stroke-width="3" stroke-linecap="round" stroke-linejoin="round" opacity="0.95">
    <title>4516 c:1</title>
  </polyline>
</svg>
