<?xml version="1.0" encoding="UTF-8"?>
<svg xmlns="http://www.w3.org/2000/svg" width="55" height="55" viewBox="0 0 55 55">
  <title>atom 4517 c:1</title>
  <metadata>{&quot;entityType&quot;:&quot;atom&quot;,&quot;entityId&quot;:&quot;4517&quot;,&quot;token&quot;:&quot;c:1&quot;,&quot;signature&quot;:&quot;c:1&quot;,&quot;imageName&quot;:&quot;page-094.jpg&quot;,&quot;imageId&quot;:94,&quot;bounds&quot;:{&quot;x&quot;:992,&quot;y&quot;:2959,&quot;w&quot;:55,&quot;h&quot;:55},&quot;atoms&quot;:[{&quot;id&quot;:4517,&quot;token&quot;:&quot;c:1&quot;,&quot;particle_id&quot;:&quot;img94-m79-p1&quot;,&quot;molecule_id&quot;:&quot;img94-m79&quot;,&quot;atom_order&quot;:2}]}</metadata>
  <rect x="0" y="0" width="55" height="55" fill="#f8f0d8"/>
  <image href="file:///C:/Users/HHHES/AppData/Roaming/com.voynichlab.datasetcreator/images/1/33b1988f-7aaa-4207-bfa8-f26b742ac4b1.jpg" x="-992" y="-2959" width="2932" height="3769" opacity="0.92"/>
  <rect x="0.5" y="0.5" width="54" height="54" fill="none" stroke="#111827" stroke-width="1" opacity="0.35"/>
  <polyline points="25,39 26,39 27,38 29,38 30,38 31,37 32,36 33,36 34,35 35,34 36,33 36,32 37,31 37,30 38,29 38,28 38,27 39,26 39,25 39,24 39,23 38,22 38,21 38,20 37,20 37,19 36,19 36,18 35,18 34,18 33,17 31,17 30,17 30,16 28,16 27,16 26,16 25,16 24,16 23,17 22,17 21,18 20,19 19,20 18,20 18,21 17,22 17,23 16,24 16,25 16,26 16,27 16,28 16,29 16,30 16,31 17,31 17,32 17,33 18,33 18,34 19,35 20,36 21,36 22,37 23,37 24,38 25,38 26,38 27,38 28,39" fill="none" stroke="#8aff00" stroke-width="3" stroke-linecap="round" stroke-linejoin="round" opacity="0.95">
    <title>4517 c:1</title>
  </polyline>
</svg>
