<?xml version="1.0" encoding="UTF-8"?>
<svg xmlns="http://www.w3.org/2000/svg" width="58" height="58" viewBox="0 0 58 58">
  <title>atom 4520 c:1</title>
  <metadata>{&quot;entityType&quot;:&quot;atom&quot;,&quot;entityId&quot;:&quot;4520&quot;,&quot;token&quot;:&quot;c:1&quot;,&quot;signature&quot;:&quot;c:1&quot;,&quot;imageName&quot;:&quot;page-094.jpg&quot;,&quot;imageId&quot;:94,&quot;bounds&quot;:{&quot;x&quot;:1063,&quot;y&quot;:3008,&quot;w&quot;:58,&quot;h&quot;:58},&quot;atoms&quot;:[{&quot;id&quot;:4520,&quot;token&quot;:&quot;c:1&quot;,&quot;particle_id&quot;:&quot;img94-m82-p1&quot;,&quot;molecule_id&quot;:&quot;img94-m82&quot;,&quot;atom_order&quot;:4}]}</metadata>
  <rect x="0" y="0" width="58" height="58" fill="#f8f0d8"/>
  <image href="file:///C:/Users/HHHES/AppData/Roaming/com.voynichlab.datasetcreator/images/1/33b1988f-7aaa-4207-bfa8-f26b742ac4b1.jpg" x="-1063" y="-3008" width="2932" height="3769" opacity="0.92"/>
  <rect x="0.5" y="0.5" width="57" height="57" fill="none" stroke="#111827" stroke-width="1" opacity="0.35"/>
  <polyline points="19,41 20,41 21,41 22,41 23,41 24,41 25,41 26,41 27,41 28,41 29,41 29,40 30,40 31,40 32,40 32,39 33,39 34,38 35,38 35,37 36,37 37,36 38,36 38,35 39,34 39,33 40,33 40,32 41,31 41,30 41,29 41,28 42,27 42,26 42,25 41,24 41,23 41,22 40,22 40,21 40,20 39,20 38,19 37,19 36,18 35,17 34,17 33,17 33,16 32,16 31,16 30,16 29,16 28,16 27,16 26,16 25,16 24,17 23,17 22,18 21,19 21,20 20,20 19,21 19,22 18,22 18,23 18,24 17,25 17,26 17,27 17,28 17,29 16,30 16,31 16,32 16,33 16,34 16,35 16,36 16,37 16,38 17,38 17,39 18,39 18,40 19,40 20,41 21,41 21,42 22,42" fill="none" stroke="#8aff00" stroke-width="3" stroke-linecap="round" stroke-linejoin="round" opacity="0.95">
    <title>4520 c:1</title>
  </polyline>
</svg>
