<?xml version="1.0" encoding="UTF-8"?>
<svg xmlns="http://www.w3.org/2000/svg" width="37" height="79" viewBox="0 0 37 79">
  <title>atom 2740 a:1</title>
  <metadata>{&quot;entityType&quot;:&quot;atom&quot;,&quot;entityId&quot;:&quot;2740&quot;,&quot;token&quot;:&quot;a:1&quot;,&quot;signature&quot;:&quot;a:1&quot;,&quot;imageName&quot;:&quot;page-094.jpg&quot;,&quot;imageId&quot;:94,&quot;bounds&quot;:{&quot;x&quot;:1208,&quot;y&quot;:611,&quot;w&quot;:37,&quot;h&quot;:79},&quot;atoms&quot;:[{&quot;id&quot;:2740,&quot;token&quot;:&quot;a:1&quot;,&quot;particle_id&quot;:&quot;img94-m7-p1&quot;,&quot;molecule_id&quot;:&quot;img94-m7&quot;,&quot;atom_order&quot;:2}]}</metadata>
  <rect x="0" y="0" width="37" height="79" fill="#f8f0d8"/>
  <image href="file:///C:/Users/HHHES/AppData/Roaming/com.voynichlab.datasetcreator/images/1/33b1988f-7aaa-4207-bfa8-f26b742ac4b1.jpg" x="-1208" y="-611" width="2932" height="3769" opacity="0.92"/>
  <rect x="0.5" y="0.5" width="36" height="78" fill="none" stroke="#111827" stroke-width="1" opacity="0.35"/>
  <polyline points="16,63 16,62 16,61 16,60 16,59 17,58 17,57 17,56 17,55 18,55 18,54 18,53 18,52 18,51 18,50 18,49 18,48 18,47 18,46 19,45 19,44 19,43 19,42 19,41 19,40 19,39 19,38 19,37 20,36 20,35 20,34 20,33 20,32 20,31 20,30 20,29 21,28 21,27 21,26 21,25 21,24 21,23 21,22 21,21 21,20 21,19 21,18 21,17 21,16" fill="none" stroke="#00f0b5" stroke-width="3" stroke-linecap="round" stroke-linejoin="round" opacity="0.95">
    <title>2740 a:1</title>
  </polyline>
</svg>
