<?xml version="1.0" encoding="UTF-8"?>
<svg xmlns="http://www.w3.org/2000/svg" width="34" height="85" viewBox="0 0 34 85">
  <title>atom 2748 a:1</title>
  <metadata>{&quot;entityType&quot;:&quot;atom&quot;,&quot;entityId&quot;:&quot;2748&quot;,&quot;token&quot;:&quot;a:1&quot;,&quot;signature&quot;:&quot;a:1&quot;,&quot;imageName&quot;:&quot;page-094.jpg&quot;,&quot;imageId&quot;:94,&quot;bounds&quot;:{&quot;x&quot;:1392,&quot;y&quot;:594,&quot;w&quot;:34,&quot;h&quot;:85},&quot;atoms&quot;:[{&quot;id&quot;:2748,&quot;token&quot;:&quot;a:1&quot;,&quot;particle_id&quot;:&quot;img94-m10-p2&quot;,&quot;molecule_id&quot;:&quot;img94-m10&quot;,&quot;atom_order&quot;:4}]}</metadata>
  <rect x="0" y="0" width="34" height="85" fill="#f8f0d8"/>
  <image href="file:///C:/Users/HHHES/AppData/Roaming/com.voynichlab.datasetcreator/images/1/33b1988f-7aaa-4207-bfa8-f26b742ac4b1.jpg" x="-1392" y="-594" width="2932" height="3769" opacity="0.92"/>
  <rect x="0.5" y="0.5" width="33" height="84" fill="none" stroke="#111827" stroke-width="1" opacity="0.35"/>
  <polyline points="18,16 18,17 18,18 18,19 18,20 18,21 18,22 18,23 18,24 18,25 18,26 18,27 18,28 18,29 18,30 18,31 18,32 18,33 18,34 18,35 18,36 18,37 18,38 18,39 17,40 17,41 17,42 17,43 17,44 17,45 17,46 17,47 17,48 17,49 16,50 16,51 16,52 16,53 16,54 16,55 16,56 16,57 16,58 16,59 16,60 16,61 16,62 16,63 16,64 16,65 16,66 16,67 16,68 16,69" fill="none" stroke="#00f0b5" stroke-width="3" stroke-linecap="round" stroke-linejoin="round" opacity="0.95">
    <title>2748 a:1</title>
  </polyline>
</svg>
