<?xml version="1.0" encoding="UTF-8"?>
<svg xmlns="http://www.w3.org/2000/svg" width="34" height="86" viewBox="0 0 34 86">
  <title>atom 2828 a:1</title>
  <metadata>{&quot;entityType&quot;:&quot;atom&quot;,&quot;entityId&quot;:&quot;2828&quot;,&quot;token&quot;:&quot;a:1&quot;,&quot;signature&quot;:&quot;a:1&quot;,&quot;imageName&quot;:&quot;page-094.jpg&quot;,&quot;imageId&quot;:94,&quot;bounds&quot;:{&quot;x&quot;:1619,&quot;y&quot;:674,&quot;w&quot;:34,&quot;h&quot;:86},&quot;atoms&quot;:[{&quot;id&quot;:2828,&quot;token&quot;:&quot;a:1&quot;,&quot;particle_id&quot;:&quot;img94-m16-p2&quot;,&quot;molecule_id&quot;:&quot;img94-m16&quot;,&quot;atom_order&quot;:4}]}</metadata>
  <rect x="0" y="0" width="34" height="86" fill="#f8f0d8"/>
  <image href="file:///C:/Users/HHHES/AppData/Roaming/com.voynichlab.datasetcreator/images/1/33b1988f-7aaa-4207-bfa8-f26b742ac4b1.jpg" x="-1619" y="-674" width="2932" height="3769" opacity="0.92"/>
  <rect x="0.5" y="0.5" width="33" height="85" fill="none" stroke="#111827" stroke-width="1" opacity="0.35"/>
  <polyline points="18,16 18,17 18,18 18,19 18,20 18,21 18,22 18,23 18,24 18,25 18,26 18,27 18,28 18,29 18,30 18,31 18,32 18,33 18,34 18,35 18,36 18,37 18,38 18,39 18,40 18,41 18,42 18,43 18,44 18,45 18,46 18,47 18,48 18,49 18,50 17,50 17,51 17,52 17,53 17,54 17,55 17,56 17,57 16,57 16,58 16,59 16,60 16,61 16,62 16,63 16,64 16,65 16,66 16,67 16,68 16,69 16,70" fill="none" stroke="#00f0b5" stroke-width="3" stroke-linecap="round" stroke-linejoin="round" opacity="0.95">
    <title>2828 a:1</title>
  </polyline>
</svg>
