<?xml version="1.0" encoding="UTF-8"?>
<svg xmlns="http://www.w3.org/2000/svg" width="36" height="99" viewBox="0 0 36 99">
  <title>atom 2831 a:1</title>
  <metadata>{&quot;entityType&quot;:&quot;atom&quot;,&quot;entityId&quot;:&quot;2831&quot;,&quot;token&quot;:&quot;a:1&quot;,&quot;signature&quot;:&quot;a:1&quot;,&quot;imageName&quot;:&quot;page-094.jpg&quot;,&quot;imageId&quot;:94,&quot;bounds&quot;:{&quot;x&quot;:1598,&quot;y&quot;:664,&quot;w&quot;:36,&quot;h&quot;:99},&quot;atoms&quot;:[{&quot;id&quot;:2831,&quot;token&quot;:&quot;a:1&quot;,&quot;particle_id&quot;:&quot;img94-m16-p2&quot;,&quot;molecule_id&quot;:&quot;img94-m16&quot;,&quot;atom_order&quot;:2}]}</metadata>
  <rect x="0" y="0" width="36" height="99" fill="#f8f0d8"/>
  <image href="file:///C:/Users/HHHES/AppData/Roaming/com.voynichlab.datasetcreator/images/1/33b1988f-7aaa-4207-bfa8-f26b742ac4b1.jpg" x="-1598" y="-664" width="2932" height="3769" opacity="0.92"/>
  <rect x="0.5" y="0.5" width="35" height="98" fill="none" stroke="#111827" stroke-width="1" opacity="0.35"/>
  <polyline points="16,16 17,17 17,18 17,19 17,20 18,20 18,21 18,22 18,23 18,24 18,25 18,26 19,26 19,27 19,28 19,29 19,30 19,31 19,32 19,33 19,34 19,35 19,36 19,37 19,38 20,39 20,40 20,41 20,42 20,43 20,44 20,45 20,46 20,47 20,48 20,49 20,50 20,51 20,52 20,53 20,54 20,55 20,56 20,57 20,58 20,59 20,60 20,61 20,62 20,63 20,64 20,65 20,66 20,67 20,68 20,69 20,70 20,71 20,72 20,73 20,74 20,75 20,76 20,77 20,78 20,79 20,80 20,81 20,82 20,83 20,82" fill="none" stroke="#00f0b5" stroke-width="3" stroke-linecap="round" stroke-linejoin="round" opacity="0.95">
    <title>2831 a:1</title>
  </polyline>
</svg>
