<?xml version="1.0" encoding="UTF-8"?>
<svg xmlns="http://www.w3.org/2000/svg" width="35" height="89" viewBox="0 0 35 89">
  <title>atom 2840 a:1</title>
  <metadata>{&quot;entityType&quot;:&quot;atom&quot;,&quot;entityId&quot;:&quot;2840&quot;,&quot;token&quot;:&quot;a:1&quot;,&quot;signature&quot;:&quot;a:1&quot;,&quot;imageName&quot;:&quot;page-094.jpg&quot;,&quot;imageId&quot;:94,&quot;bounds&quot;:{&quot;x&quot;:1247,&quot;y&quot;:682,&quot;w&quot;:35,&quot;h&quot;:89},&quot;atoms&quot;:[{&quot;id&quot;:2840,&quot;token&quot;:&quot;a:1&quot;,&quot;particle_id&quot;:&quot;img94-m20-p2&quot;,&quot;molecule_id&quot;:&quot;img94-m20&quot;,&quot;atom_order&quot;:4}]}</metadata>
  <rect x="0" y="0" width="35" height="89" fill="#f8f0d8"/>
  <image href="file:///C:/Users/HHHES/AppData/Roaming/com.voynichlab.datasetcreator/images/1/33b1988f-7aaa-4207-bfa8-f26b742ac4b1.jpg" x="-1247" y="-682" width="2932" height="3769" opacity="0.92"/>
  <rect x="0.5" y="0.5" width="34" height="88" fill="none" stroke="#111827" stroke-width="1" opacity="0.35"/>
  <polyline points="19,16 19,17 19,18 19,19 19,20 19,21 19,22 18,22 18,23 18,24 18,25 18,26 18,27 18,28 18,29 18,30 18,31 17,32 17,33 17,34 17,35 17,36 17,37 17,38 17,39 17,40 16,40 16,41 16,42 16,43 16,44 16,45 16,46 16,47 16,48 16,49 16,50 16,51 16,52 16,53 16,54 16,55 16,56 16,57 16,58 16,59 16,60 16,61 16,62 16,63 16,64 16,65 16,66 16,67 16,68 16,69 16,70 17,70 17,71 17,72 17,73" fill="none" stroke="#00f0b5" stroke-width="3" stroke-linecap="round" stroke-linejoin="round" opacity="0.95">
    <title>2840 a:1</title>
  </polyline>
</svg>
