<?xml version="1.0" encoding="UTF-8"?>
<svg xmlns="http://www.w3.org/2000/svg" width="36" height="95" viewBox="0 0 36 95">
  <title>atom 2852 a:1</title>
  <metadata>{&quot;entityType&quot;:&quot;atom&quot;,&quot;entityId&quot;:&quot;2852&quot;,&quot;token&quot;:&quot;a:1&quot;,&quot;signature&quot;:&quot;a:1&quot;,&quot;imageName&quot;:&quot;page-094.jpg&quot;,&quot;imageId&quot;:94,&quot;bounds&quot;:{&quot;x&quot;:907,&quot;y&quot;:763,&quot;w&quot;:36,&quot;h&quot;:95},&quot;atoms&quot;:[{&quot;id&quot;:2852,&quot;token&quot;:&quot;a:1&quot;,&quot;particle_id&quot;:&quot;img94-m25-p2&quot;,&quot;molecule_id&quot;:&quot;img94-m25&quot;,&quot;atom_order&quot;:1}]}</metadata>
  <rect x="0" y="0" width="36" height="95" fill="#f8f0d8"/>
  <image href="file:///C:/Users/HHHES/AppData/Roaming/com.voynichlab.datasetcreator/images/1/33b1988f-7aaa-4207-bfa8-f26b742ac4b1.jpg" x="-907" y="-763" width="2932" height="3769" opacity="0.92"/>
  <rect x="0.5" y="0.5" width="35" height="94" fill="none" stroke="#111827" stroke-width="1" opacity="0.35"/>
  <polyline points="20,79 20,78 20,77 20,76 20,75 20,74 20,73 20,72 20,71 20,70 20,69 20,68 20,67 20,66 20,65 20,64 20,63 20,62 20,61 20,60 20,59 20,58 20,57 20,56 20,55 20,54 20,53 20,52 20,51 19,50 19,49 19,48 19,47 19,46 19,45 19,44 19,43 19,42 19,41 19,40 19,39 19,38 19,37 19,36 19,35 19,34 19,33 19,32 19,31 19,30 19,29 18,29 18,28 18,27 18,26 18,25 18,24 18,23 17,23 17,22 17,21 17,20 17,19 16,18 16,17 16,16" fill="none" stroke="#00f0b5" stroke-width="3" stroke-linecap="round" stroke-linejoin="round" opacity="0.95">
    <title>2852 a:1</title>
  </polyline>
</svg>
