<?xml version="1.0" encoding="UTF-8"?>
<svg xmlns="http://www.w3.org/2000/svg" width="36" height="98" viewBox="0 0 36 98">
  <title>atom 2894 a:1</title>
  <metadata>{&quot;entityType&quot;:&quot;atom&quot;,&quot;entityId&quot;:&quot;2894&quot;,&quot;token&quot;:&quot;a:1&quot;,&quot;signature&quot;:&quot;a:1&quot;,&quot;imageName&quot;:&quot;page-094.jpg&quot;,&quot;imageId&quot;:94,&quot;bounds&quot;:{&quot;x&quot;:1259,&quot;y&quot;:769,&quot;w&quot;:36,&quot;h&quot;:98},&quot;atoms&quot;:[{&quot;id&quot;:2894,&quot;token&quot;:&quot;a:1&quot;,&quot;particle_id&quot;:&quot;img94-m22-p1&quot;,&quot;molecule_id&quot;:&quot;img94-m22&quot;,&quot;atom_order&quot;:1}]}</metadata>
  <rect x="0" y="0" width="36" height="98" fill="#f8f0d8"/>
  <image href="file:///C:/Users/HHHES/AppData/Roaming/com.voynichlab.datasetcreator/images/1/33b1988f-7aaa-4207-bfa8-f26b742ac4b1.jpg" x="-1259" y="-769" width="2932" height="3769" opacity="0.92"/>
  <rect x="0.5" y="0.5" width="35" height="97" fill="none" stroke="#111827" stroke-width="1" opacity="0.35"/>
  <polyline points="19,16 19,17 19,18 19,19 19,20 19,21 19,22 19,23 19,24 19,25 19,26 19,27 19,28 19,29 20,29 20,30 20,31 20,32 20,33 20,34 20,35 20,36 20,37 20,38 20,39 19,39 19,40 19,41 19,42 19,43 19,44 19,45 19,46 19,47 19,48 19,49 19,50 19,51 18,52 18,53 18,54 18,55 18,56 18,57 17,57 17,58 17,59 17,60 17,61 17,62 17,63 17,64 17,65 17,66 17,67 17,68 17,69 17,70 17,71 17,72 17,73 17,74 17,75 17,76 17,77 17,78 17,79 17,80 17,81 17,82 16,82" fill="none" stroke="#00f0b5" stroke-width="3" stroke-linecap="round" stroke-linejoin="round" opacity="0.95">
    <title>2894 a:1</title>
  </polyline>
</svg>
