<?xml version="1.0" encoding="UTF-8"?>
<svg xmlns="http://www.w3.org/2000/svg" width="36" height="101" viewBox="0 0 36 101">
  <title>atom 2895 a:1</title>
  <metadata>{&quot;entityType&quot;:&quot;atom&quot;,&quot;entityId&quot;:&quot;2895&quot;,&quot;token&quot;:&quot;a:1&quot;,&quot;signature&quot;:&quot;a:1&quot;,&quot;imageName&quot;:&quot;page-094.jpg&quot;,&quot;imageId&quot;:94,&quot;bounds&quot;:{&quot;x&quot;:1276,&quot;y&quot;:765,&quot;w&quot;:36,&quot;h&quot;:101},&quot;atoms&quot;:[{&quot;id&quot;:2895,&quot;token&quot;:&quot;a:1&quot;,&quot;particle_id&quot;:&quot;img94-m22-p1&quot;,&quot;molecule_id&quot;:&quot;img94-m22&quot;,&quot;atom_order&quot;:4}]}</metadata>
  <rect x="0" y="0" width="36" height="101" fill="#f8f0d8"/>
  <image href="file:///C:/Users/HHHES/AppData/Roaming/com.voynichlab.datasetcreator/images/1/33b1988f-7aaa-4207-bfa8-f26b742ac4b1.jpg" x="-1276" y="-765" width="2932" height="3769" opacity="0.92"/>
  <rect x="0.5" y="0.5" width="35" height="100" fill="none" stroke="#111827" stroke-width="1" opacity="0.35"/>
  <polyline points="20,16 20,17 20,18 20,19 20,21 20,22 20,23 20,24 20,25 20,26 20,27 20,28 20,29 20,30 20,31 20,32 20,33 19,34 19,35 19,36 19,37 19,38 19,39 19,40 19,41 19,42 19,43 18,44 18,45 18,46 18,47 18,48 18,49 18,50 18,51 18,52 18,53 18,54 18,55 18,56 18,57 17,57 17,58 17,59 17,61 17,62 17,63 17,64 17,65 17,66 17,67 17,68 16,69 16,70 16,71 16,72 16,73 16,74 17,75 17,76 17,77 17,78 17,79 17,80 17,81 17,82 17,83 17,84 17,85" fill="none" stroke="#00f0b5" stroke-width="3" stroke-linecap="round" stroke-linejoin="round" opacity="0.95">
    <title>2895 a:1</title>
  </polyline>
</svg>
