<?xml version="1.0" encoding="UTF-8"?>
<svg xmlns="http://www.w3.org/2000/svg" width="36" height="99" viewBox="0 0 36 99">
  <title>atom 2905 a:1</title>
  <metadata>{&quot;entityType&quot;:&quot;atom&quot;,&quot;entityId&quot;:&quot;2905&quot;,&quot;token&quot;:&quot;a:1&quot;,&quot;signature&quot;:&quot;a:1&quot;,&quot;imageName&quot;:&quot;page-094.jpg&quot;,&quot;imageId&quot;:94,&quot;bounds&quot;:{&quot;x&quot;:1527,&quot;y&quot;:758,&quot;w&quot;:36,&quot;h&quot;:99},&quot;atoms&quot;:[{&quot;id&quot;:2905,&quot;token&quot;:&quot;a:1&quot;,&quot;particle_id&quot;:&quot;img94-m21-p1&quot;,&quot;molecule_id&quot;:&quot;img94-m21&quot;,&quot;atom_order&quot;:1}]}</metadata>
  <rect x="0" y="0" width="36" height="99" fill="#f8f0d8"/>
  <image href="file:///C:/Users/HHHES/AppData/Roaming/com.voynichlab.datasetcreator/images/1/33b1988f-7aaa-4207-bfa8-f26b742ac4b1.jpg" x="-1527" y="-758" width="2932" height="3769" opacity="0.92"/>
  <rect x="0.5" y="0.5" width="35" height="98" fill="none" stroke="#111827" stroke-width="1" opacity="0.35"/>
  <polyline points="20,16 20,17 20,18 20,19 20,20 20,21 20,22 20,23 20,24 20,25 20,26 20,27 20,28 20,29 20,30 20,31 20,32 20,33 20,34 20,35 20,36 20,37 20,38 20,39 20,40 20,41 20,42 19,42 19,43 19,44 19,45 19,46 19,47 19,48 19,49 19,50 19,51 19,52 19,53 19,54 19,55 18,56 18,57 18,58 18,59 18,60 18,61 18,62 18,63 18,64 18,65 18,66 18,67 17,68 17,69 17,70 17,71 17,72 17,73 17,74 17,75 16,76 16,77 16,78 16,79 16,80 16,81 16,82 16,83 16,82" fill="none" stroke="#00f0b5" stroke-width="3" stroke-linecap="round" stroke-linejoin="round" opacity="0.95">
    <title>2905 a:1</title>
  </polyline>
</svg>
