<?xml version="1.0" encoding="UTF-8"?>
<svg xmlns="http://www.w3.org/2000/svg" width="37" height="103" viewBox="0 0 37 103">
  <title>atom 2916 a:1</title>
  <metadata>{&quot;entityType&quot;:&quot;atom&quot;,&quot;entityId&quot;:&quot;2916&quot;,&quot;token&quot;:&quot;a:1&quot;,&quot;signature&quot;:&quot;a:1&quot;,&quot;imageName&quot;:&quot;page-094.jpg&quot;,&quot;imageId&quot;:94,&quot;bounds&quot;:{&quot;x&quot;:1884,&quot;y&quot;:766,&quot;w&quot;:37,&quot;h&quot;:103},&quot;atoms&quot;:[{&quot;id&quot;:2916,&quot;token&quot;:&quot;a:1&quot;,&quot;particle_id&quot;:&quot;img94-m24-p2&quot;,&quot;molecule_id&quot;:&quot;img94-m24&quot;,&quot;atom_order&quot;:5}]}</metadata>
  <rect x="0" y="0" width="37" height="103" fill="#f8f0d8"/>
  <image href="file:///C:/Users/HHHES/AppData/Roaming/com.voynichlab.datasetcreator/images/1/33b1988f-7aaa-4207-bfa8-f26b742ac4b1.jpg" x="-1884" y="-766" width="2932" height="3769" opacity="0.92"/>
  <rect x="0.5" y="0.5" width="36" height="102" fill="none" stroke="#111827" stroke-width="1" opacity="0.35"/>
  <polyline points="21,16 21,17 21,18 21,19 21,20 21,21 20,22 20,23 20,24 20,25 20,26 20,27 20,28 20,29 20,30 20,31 20,32 20,33 20,34 20,35 19,36 19,37 19,38 19,39 19,40 19,41 19,42 19,43 18,44 18,45 18,46 18,47 18,48 17,49 17,50 17,51 17,52 17,53 17,54 17,55 17,56 17,57 17,58 17,59 17,60 16,60 16,61 16,62 16,63 16,64 16,65 16,66 16,67 16,68 16,69 16,70 16,71 16,72 16,73 16,74 16,75 16,76 16,77 16,78 16,79 16,80 16,81 16,82 16,83 16,84 16,85 16,86 16,87" fill="none" stroke="#00f0b5" stroke-width="3" stroke-linecap="round" stroke-linejoin="round" opacity="0.95">
    <title>2916 a:1</title>
  </polyline>
</svg>
