<?xml version="1.0" encoding="UTF-8"?>
<svg xmlns="http://www.w3.org/2000/svg" width="39" height="100" viewBox="0 0 39 100">
  <title>atom 2919 a:1</title>
  <metadata>{&quot;entityType&quot;:&quot;atom&quot;,&quot;entityId&quot;:&quot;2919&quot;,&quot;token&quot;:&quot;a:1&quot;,&quot;signature&quot;:&quot;a:1&quot;,&quot;imageName&quot;:&quot;page-094.jpg&quot;,&quot;imageId&quot;:94,&quot;bounds&quot;:{&quot;x&quot;:2084,&quot;y&quot;:782,&quot;w&quot;:39,&quot;h&quot;:100},&quot;atoms&quot;:[{&quot;id&quot;:2919,&quot;token&quot;:&quot;a:1&quot;,&quot;particle_id&quot;:&quot;img94-m23-p1&quot;,&quot;molecule_id&quot;:&quot;img94-m23&quot;,&quot;atom_order&quot;:2}]}</metadata>
  <rect x="0" y="0" width="39" height="100" fill="#f8f0d8"/>
  <image href="file:///C:/Users/HHHES/AppData/Roaming/com.voynichlab.datasetcreator/images/1/33b1988f-7aaa-4207-bfa8-f26b742ac4b1.jpg" x="-2084" y="-782" width="2932" height="3769" opacity="0.92"/>
  <rect x="0.5" y="0.5" width="38" height="99" fill="none" stroke="#111827" stroke-width="1" opacity="0.35"/>
  <polyline points="16,84 16,83 16,82 16,81 16,80 16,79 16,78 16,77 16,76 16,75 17,74 17,73 17,72 17,71 17,70 17,69 17,68 17,67 17,66 18,65 18,64 18,63 18,62 19,62 19,61 19,60 19,59 19,58 19,57 19,56 20,56 20,55 20,54 20,53 20,52 20,51 20,50 20,49 20,48 20,47 20,46 20,45 20,44 21,44 21,43 21,42 21,41 21,40 21,39 21,38 21,37 21,36 21,35 21,34 21,33 22,32 22,31 22,30 22,29 22,28 22,27 22,26 22,25 22,24 22,23 22,22 22,21 22,20 23,20 23,19 23,18 23,17 23,16" fill="none" stroke="#00f0b5" stroke-width="3" stroke-linecap="round" stroke-linejoin="round" opacity="0.95">
    <title>2919 a:1</title>
  </polyline>
</svg>
