<?xml version="1.0" encoding="UTF-8"?>
<svg xmlns="http://www.w3.org/2000/svg" width="35" height="145" viewBox="0 0 35 145">
  <title>atom 4223 a:1</title>
  <metadata>{&quot;entityType&quot;:&quot;atom&quot;,&quot;entityId&quot;:&quot;4223&quot;,&quot;token&quot;:&quot;a:1&quot;,&quot;signature&quot;:&quot;a:1&quot;,&quot;imageName&quot;:&quot;page-094.jpg&quot;,&quot;imageId&quot;:94,&quot;bounds&quot;:{&quot;x&quot;:760,&quot;y&quot;:2373,&quot;w&quot;:35,&quot;h&quot;:145},&quot;atoms&quot;:[{&quot;id&quot;:4223,&quot;token&quot;:&quot;a:1&quot;,&quot;particle_id&quot;:&quot;img94-m40-p1&quot;,&quot;molecule_id&quot;:&quot;img94-m40&quot;,&quot;atom_order&quot;:2}]}</metadata>
  <rect x="0" y="0" width="35" height="145" fill="#f8f0d8"/>
  <image href="file:///C:/Users/HHHES/AppData/Roaming/com.voynichlab.datasetcreator/images/1/33b1988f-7aaa-4207-bfa8-f26b742ac4b1.jpg" x="-760" y="-2373" width="2932" height="3769" opacity="0.92"/>
  <rect x="0.5" y="0.5" width="34" height="144" fill="none" stroke="#111827" stroke-width="1" opacity="0.35"/>
  <polyline points="16,16 16,17 16,18 17,19 17,20 17,21 18,22 18,23 18,24 18,25 18,26 18,27 18,28 18,29 18,30 18,31 18,32 18,33 18,34 18,35 18,36 18,37 18,38 18,39 18,40 18,41 18,42 18,43 18,44 18,45 18,46 18,48 19,49 19,50 19,51 19,52 19,53 19,54 19,55 19,57 19,58 19,59 19,60 19,61 19,62 19,64 19,65 19,66 19,67 19,68 19,69 18,70 18,71 18,72 18,73 18,74 18,75 18,76 18,77 18,78 18,79 18,80 18,81 18,82 18,83 17,84 17,85 17,86 17,87 17,88 17,89 17,90 17,91 17,92 17,94 17,95 17,96 17,97 17,98 17,100 17,101 17,102 17,103 17,104 17,105 17,106 17,107 17,108 17,109 17,110 17,111 17,112 17,113 17,114 17,115 17,116 17,117 17,118 17,119 17,120 18,121 18,122 18,123 18,124 18,125 18,126 18,127 18,128 18,129" fill="none" stroke="#00f0b5" stroke-width="3" stroke-linecap="round" stroke-linejoin="round" opacity="0.95">
    <title>4223 a:1</title>
  </polyline>
</svg>
