<?xml version="1.0" encoding="UTF-8"?>
<svg xmlns="http://www.w3.org/2000/svg" width="35" height="98" viewBox="0 0 35 98">
  <title>atom 4330 a:1</title>
  <metadata>{&quot;entityType&quot;:&quot;atom&quot;,&quot;entityId&quot;:&quot;4330&quot;,&quot;token&quot;:&quot;a:1&quot;,&quot;signature&quot;:&quot;a:1&quot;,&quot;imageName&quot;:&quot;page-094.jpg&quot;,&quot;imageId&quot;:94,&quot;bounds&quot;:{&quot;x&quot;:1105,&quot;y&quot;:2495,&quot;w&quot;:35,&quot;h&quot;:98},&quot;atoms&quot;:[{&quot;id&quot;:4330,&quot;token&quot;:&quot;a:1&quot;,&quot;particle_id&quot;:&quot;img94-m47-p1&quot;,&quot;molecule_id&quot;:&quot;img94-m47&quot;,&quot;atom_order&quot;:1}]}</metadata>
  <rect x="0" y="0" width="35" height="98" fill="#f8f0d8"/>
  <image href="file:///C:/Users/HHHES/AppData/Roaming/com.voynichlab.datasetcreator/images/1/33b1988f-7aaa-4207-bfa8-f26b742ac4b1.jpg" x="-1105" y="-2495" width="2932" height="3769" opacity="0.92"/>
  <rect x="0.5" y="0.5" width="34" height="97" fill="none" stroke="#111827" stroke-width="1" opacity="0.35"/>
  <polyline points="17,16 17,17 17,18 17,19 18,19 18,20 18,21 18,22 18,23 18,24 18,25 18,26 17,26 17,27 17,28 17,29 17,30 17,31 17,32 17,33 17,34 17,35 17,36 17,37 17,38 17,39 17,40 17,41 17,42 17,44 17,45 17,46 17,47 18,48 18,49 18,50 18,51 18,53 18,54 18,55 18,56 18,57 18,58 18,59 19,60 19,61 19,62 19,63 19,64 19,65 19,66 19,67 19,68 19,69 19,70 19,71 19,72 18,72 18,73 18,74 18,75 18,76 17,76 17,77 17,78 17,79 17,80 16,81 16,82 16,81" fill="none" stroke="#00f0b5" stroke-width="3" stroke-linecap="round" stroke-linejoin="round" opacity="0.95">
    <title>4330 a:1</title>
  </polyline>
</svg>
