<?xml version="1.0" encoding="UTF-8"?>
<svg xmlns="http://www.w3.org/2000/svg" width="34" height="90" viewBox="0 0 34 90">
  <title>atom 4331 a:1</title>
  <metadata>{&quot;entityType&quot;:&quot;atom&quot;,&quot;entityId&quot;:&quot;4331&quot;,&quot;token&quot;:&quot;a:1&quot;,&quot;signature&quot;:&quot;a:1&quot;,&quot;imageName&quot;:&quot;page-094.jpg&quot;,&quot;imageId&quot;:94,&quot;bounds&quot;:{&quot;x&quot;:1134,&quot;y&quot;:2501,&quot;w&quot;:34,&quot;h&quot;:90},&quot;atoms&quot;:[{&quot;id&quot;:4331,&quot;token&quot;:&quot;a:1&quot;,&quot;particle_id&quot;:&quot;img94-m47-p1&quot;,&quot;molecule_id&quot;:&quot;img94-m47&quot;,&quot;atom_order&quot;:5}]}</metadata>
  <rect x="0" y="0" width="34" height="90" fill="#f8f0d8"/>
  <image href="file:///C:/Users/HHHES/AppData/Roaming/com.voynichlab.datasetcreator/images/1/33b1988f-7aaa-4207-bfa8-f26b742ac4b1.jpg" x="-1134" y="-2501" width="2932" height="3769" opacity="0.92"/>
  <rect x="0.5" y="0.5" width="33" height="89" fill="none" stroke="#111827" stroke-width="1" opacity="0.35"/>
  <polyline points="18,16 18,17 18,18 18,19 17,19 17,20 17,21 17,22 17,23 17,24 17,25 17,26 17,27 17,28 16,29 16,30 16,31 16,32 16,33 16,34 16,35 16,36 16,37 16,38 16,39 16,40 16,41 16,43 16,44 16,45 16,46 16,47 16,48 16,49 16,50 16,51 16,52 16,53 16,54 17,56 17,57 17,58 17,59 17,60 17,61 17,62 17,63 17,64 17,65 17,66 17,67 17,68 17,69 17,70 17,71 17,72 16,72 16,73 16,74 16,73" fill="none" stroke="#00f0b5" stroke-width="3" stroke-linecap="round" stroke-linejoin="round" opacity="0.95">
    <title>4331 a:1</title>
  </polyline>
</svg>
