<?xml version="1.0" encoding="UTF-8"?>
<svg xmlns="http://www.w3.org/2000/svg" width="39" height="110" viewBox="0 0 39 110">
  <title>atom 4536 a:1</title>
  <metadata>{&quot;entityType&quot;:&quot;atom&quot;,&quot;entityId&quot;:&quot;4536&quot;,&quot;token&quot;:&quot;a:1&quot;,&quot;signature&quot;:&quot;a:1&quot;,&quot;imageName&quot;:&quot;page-094.jpg&quot;,&quot;imageId&quot;:94,&quot;bounds&quot;:{&quot;x&quot;:1534,&quot;y&quot;:2639,&quot;w&quot;:39,&quot;h&quot;:110},&quot;atoms&quot;:[{&quot;id&quot;:4536,&quot;token&quot;:&quot;a:1&quot;,&quot;particle_id&quot;:&quot;img94-m57-p5&quot;,&quot;molecule_id&quot;:&quot;img94-m57&quot;,&quot;atom_order&quot;:4}]}</metadata>
  <rect x="0" y="0" width="39" height="110" fill="#f8f0d8"/>
  <image href="file:///C:/Users/HHHES/AppData/Roaming/com.voynichlab.datasetcreator/images/1/33b1988f-7aaa-4207-bfa8-f26b742ac4b1.jpg" x="-1534" y="-2639" width="2932" height="3769" opacity="0.92"/>
  <rect x="0.5" y="0.5" width="38" height="109" fill="none" stroke="#111827" stroke-width="1" opacity="0.35"/>
  <polyline points="23,16 23,17 23,18 23,19 23,20 23,22 23,24 23,26 23,28 22,30 22,32 22,34 22,36 21,38 21,40 21,43 21,45 21,47 20,48 20,50 20,52 20,54 20,56 19,58 19,60 19,61 19,62 19,63 18,65 18,66 18,68 18,69 18,70 18,72 17,73 17,74 17,76 17,77 17,78 17,79 17,80 17,81 17,83 17,84 17,85 17,87 16,87 16,88 16,89 16,90 16,91 16,92 16,93 16,94" fill="none" stroke="#00f0b5" stroke-width="3" stroke-linecap="round" stroke-linejoin="round" opacity="0.95">
    <title>4536 a:1</title>
  </polyline>
</svg>
