<?xml version="1.0" encoding="UTF-8"?>
<svg xmlns="http://www.w3.org/2000/svg" width="34" height="104" viewBox="0 0 34 104">
  <title>atom 4538 a:1</title>
  <metadata>{&quot;entityType&quot;:&quot;atom&quot;,&quot;entityId&quot;:&quot;4538&quot;,&quot;token&quot;:&quot;a:1&quot;,&quot;signature&quot;:&quot;a:1&quot;,&quot;imageName&quot;:&quot;page-094.jpg&quot;,&quot;imageId&quot;:94,&quot;bounds&quot;:{&quot;x&quot;:1678,&quot;y&quot;:2716,&quot;w&quot;:34,&quot;h&quot;:104},&quot;atoms&quot;:[{&quot;id&quot;:4538,&quot;token&quot;:&quot;a:1&quot;,&quot;particle_id&quot;:&quot;img94-m63-p3&quot;,&quot;molecule_id&quot;:&quot;img94-m63&quot;,&quot;atom_order&quot;:1}]}</metadata>
  <rect x="0" y="0" width="34" height="104" fill="#f8f0d8"/>
  <image href="file:///C:/Users/HHHES/AppData/Roaming/com.voynichlab.datasetcreator/images/1/33b1988f-7aaa-4207-bfa8-f26b742ac4b1.jpg" x="-1678" y="-2716" width="2932" height="3769" opacity="0.92"/>
  <rect x="0.5" y="0.5" width="33" height="103" fill="none" stroke="#111827" stroke-width="1" opacity="0.35"/>
  <polyline points="18,16 18,17 18,18 18,20 18,22 18,24 17,27 17,30 17,33 17,35 17,38 17,40 17,42 17,44 17,46 17,47 17,49 17,50 17,52 17,54 18,55 18,57 18,58 18,59 18,61 18,62 18,63 18,64 18,65 18,67 18,68 17,69 17,70 17,72 17,73 17,74 17,75 17,76 17,77 17,78 17,79 17,80 16,81 16,82 16,83 16,84 16,85 16,86 16,87 16,88" fill="none" stroke="#00f0b5" stroke-width="3" stroke-linecap="round" stroke-linejoin="round" opacity="0.95">
    <title>4538 a:1</title>
  </polyline>
</svg>
