<?xml version="1.0" encoding="UTF-8"?>
<svg xmlns="http://www.w3.org/2000/svg" width="35" height="96" viewBox="0 0 35 96">
  <title>atom 4540 a:1</title>
  <metadata>{&quot;entityType&quot;:&quot;atom&quot;,&quot;entityId&quot;:&quot;4540&quot;,&quot;token&quot;:&quot;a:1&quot;,&quot;signature&quot;:&quot;a:1&quot;,&quot;imageName&quot;:&quot;page-094.jpg&quot;,&quot;imageId&quot;:94,&quot;bounds&quot;:{&quot;x&quot;:1401,&quot;y&quot;:2739,&quot;w&quot;:35,&quot;h&quot;:96},&quot;atoms&quot;:[{&quot;id&quot;:4540,&quot;token&quot;:&quot;a:1&quot;,&quot;particle_id&quot;:&quot;img94-m62-p2&quot;,&quot;molecule_id&quot;:&quot;img94-m62&quot;,&quot;atom_order&quot;:1}]}</metadata>
  <rect x="0" y="0" width="35" height="96" fill="#f8f0d8"/>
  <image href="file:///C:/Users/HHHES/AppData/Roaming/com.voynichlab.datasetcreator/images/1/33b1988f-7aaa-4207-bfa8-f26b742ac4b1.jpg" x="-1401" y="-2739" width="2932" height="3769" opacity="0.92"/>
  <rect x="0.5" y="0.5" width="34" height="95" fill="none" stroke="#111827" stroke-width="1" opacity="0.35"/>
  <polyline points="16,16 16,18 16,19 16,20 17,21 17,23 17,25 17,28 17,32 18,35 18,38 18,41 18,43 19,45 19,47 19,49 19,51 19,53 19,55 19,56 19,58 19,59 19,60 19,61 19,62 19,64 19,65 19,66 19,67 19,69 19,70 19,72 19,73 19,74 19,75 19,76 19,77 19,78 19,79 19,80" fill="none" stroke="#00f0b5" stroke-width="3" stroke-linecap="round" stroke-linejoin="round" opacity="0.95">
    <title>4540 a:1</title>
  </polyline>
</svg>
