<?xml version="1.0" encoding="UTF-8"?>
<svg xmlns="http://www.w3.org/2000/svg" width="39" height="75" viewBox="0 0 39 75">
  <title>atom 4541 a:1</title>
  <metadata>{&quot;entityType&quot;:&quot;atom&quot;,&quot;entityId&quot;:&quot;4541&quot;,&quot;token&quot;:&quot;a:1&quot;,&quot;signature&quot;:&quot;a:1&quot;,&quot;imageName&quot;:&quot;page-094.jpg&quot;,&quot;imageId&quot;:94,&quot;bounds&quot;:{&quot;x&quot;:812,&quot;y&quot;:2774,&quot;w&quot;:39,&quot;h&quot;:75},&quot;atoms&quot;:[{&quot;id&quot;:4541,&quot;token&quot;:&quot;a:1&quot;,&quot;particle_id&quot;:&quot;img94-m68-p2&quot;,&quot;molecule_id&quot;:&quot;img94-m68&quot;,&quot;atom_order&quot;:5}]}</metadata>
  <rect x="0" y="0" width="39" height="75" fill="#f8f0d8"/>
  <image href="file:///C:/Users/HHHES/AppData/Roaming/com.voynichlab.datasetcreator/images/1/33b1988f-7aaa-4207-bfa8-f26b742ac4b1.jpg" x="-812" y="-2774" width="2932" height="3769" opacity="0.92"/>
  <rect x="0.5" y="0.5" width="38" height="74" fill="none" stroke="#111827" stroke-width="1" opacity="0.35"/>
  <polyline points="23,16 23,17 22,18 22,19 22,20 22,21 21,21 21,22 21,23 21,24 20,25 20,26 20,27 20,28 20,29 20,30 20,31 19,32 19,33 19,34 19,35 19,36 19,37 19,38 19,39 19,40 19,41 18,42 18,43 18,44 18,45 18,46 18,47 18,49 17,50 17,51 17,52 17,53 17,54 16,55 16,56 16,57 16,58 16,59" fill="none" stroke="#00f0b5" stroke-width="3" stroke-linecap="round" stroke-linejoin="round" opacity="0.95">
    <title>4541 a:1</title>
  </polyline>
</svg>
