<?xml version="1.0" encoding="UTF-8"?>
<svg xmlns="http://www.w3.org/2000/svg" width="36" height="103" viewBox="0 0 36 103">
  <title>atom 4542 a:1</title>
  <metadata>{&quot;entityType&quot;:&quot;atom&quot;,&quot;entityId&quot;:&quot;4542&quot;,&quot;token&quot;:&quot;a:1&quot;,&quot;signature&quot;:&quot;a:1&quot;,&quot;imageName&quot;:&quot;page-094.jpg&quot;,&quot;imageId&quot;:94,&quot;bounds&quot;:{&quot;x&quot;:796,&quot;y&quot;:2751,&quot;w&quot;:36,&quot;h&quot;:103},&quot;atoms&quot;:[{&quot;id&quot;:4542,&quot;token&quot;:&quot;a:1&quot;,&quot;particle_id&quot;:&quot;img94-m68-p2&quot;,&quot;molecule_id&quot;:&quot;img94-m68&quot;,&quot;atom_order&quot;:1}]}</metadata>
  <rect x="0" y="0" width="36" height="103" fill="#f8f0d8"/>
  <image href="file:///C:/Users/HHHES/AppData/Roaming/com.voynichlab.datasetcreator/images/1/33b1988f-7aaa-4207-bfa8-f26b742ac4b1.jpg" x="-796" y="-2751" width="2932" height="3769" opacity="0.92"/>
  <rect x="0.5" y="0.5" width="35" height="102" fill="none" stroke="#111827" stroke-width="1" opacity="0.35"/>
  <polyline points="20,16 20,17 20,18 19,19 19,20 19,21 19,22 18,23 18,25 18,26 18,27 18,30 18,31 18,33 17,35 17,36 17,37 17,39 17,40 17,41 16,43 16,44 16,45 16,47 16,48 17,49 17,52 17,54 17,56 17,57 17,59 18,60 18,61 18,62 18,64 19,65 19,67 19,68 19,70 19,71 19,72 19,74 19,75 20,77 20,78 20,80 20,81 20,82 20,83 20,84 20,85 20,86 20,87" fill="none" stroke="#00f0b5" stroke-width="3" stroke-linecap="round" stroke-linejoin="round" opacity="0.95">
    <title>4542 a:1</title>
  </polyline>
</svg>
