<?xml version="1.0" encoding="UTF-8"?>
<svg xmlns="http://www.w3.org/2000/svg" width="35" height="87" viewBox="0 0 35 87">
  <title>atom 4554 a:1</title>
  <metadata>{&quot;entityType&quot;:&quot;atom&quot;,&quot;entityId&quot;:&quot;4554&quot;,&quot;token&quot;:&quot;a:1&quot;,&quot;signature&quot;:&quot;a:1&quot;,&quot;imageName&quot;:&quot;page-094.jpg&quot;,&quot;imageId&quot;:94,&quot;bounds&quot;:{&quot;x&quot;:1042,&quot;y&quot;:3040,&quot;w&quot;:35,&quot;h&quot;:87},&quot;atoms&quot;:[{&quot;id&quot;:4554,&quot;token&quot;:&quot;a:1&quot;,&quot;particle_id&quot;:&quot;img94-m82-p1&quot;,&quot;molecule_id&quot;:&quot;img94-m82&quot;,&quot;atom_order&quot;:2}]}</metadata>
  <rect x="0" y="0" width="35" height="87" fill="#f8f0d8"/>
  <image href="file:///C:/Users/HHHES/AppData/Roaming/com.voynichlab.datasetcreator/images/1/33b1988f-7aaa-4207-bfa8-f26b742ac4b1.jpg" x="-1042" y="-3040" width="2932" height="3769" opacity="0.92"/>
  <rect x="0.5" y="0.5" width="34" height="86" fill="none" stroke="#111827" stroke-width="1" opacity="0.35"/>
  <polyline points="16,71 16,70 16,69 16,68 16,67 16,66 16,65 16,64 16,63 16,62 16,61 16,60 16,59 16,58 16,56 16,55 16,54 16,53 16,52 16,51 16,50 16,49 16,48 16,47 16,46 16,45 16,44 17,43 17,42 17,41 17,39 17,38 17,37 17,36 17,35 17,34 17,33 18,33 18,32 18,31 18,30 18,29 18,28 18,27 18,26 18,25 18,24 18,23 18,22 18,21 19,20 19,19 19,18 19,17 19,16" fill="none" stroke="#00f0b5" stroke-width="3" stroke-linecap="round" stroke-linejoin="round" opacity="0.95">
    <title>4554 a:1</title>
  </polyline>
</svg>
