<?xml version="1.0" encoding="UTF-8"?>
<svg xmlns="http://www.w3.org/2000/svg" width="206" height="135" viewBox="0 0 206 135">
  <title>molecule img3-m194 e:1 g:1 e:1 c:1 a:1 m:1 c:1 a:1 e:1 h:1</title>
  <metadata>{&quot;entityType&quot;:&quot;molecule&quot;,&quot;entityId&quot;:&quot;img3-m194&quot;,&quot;token&quot;:&quot;e:1 g:1 e:1 c:1 a:1 m:1 c:1 a:1 e:1 h:1&quot;,&quot;signature&quot;:&quot;e:1 g:1 e:1 c:1 a:1 m:1 c:1 a:1 e:1 h:1&quot;,&quot;imageName&quot;:&quot;page-003.jpg&quot;,&quot;imageId&quot;:3,&quot;bounds&quot;:{&quot;x&quot;:1064,&quot;y&quot;:2900,&quot;w&quot;:206,&quot;h&quot;:135},&quot;atoms&quot;:[{&quot;id&quot;:4136,&quot;token&quot;:&quot;e:1&quot;,&quot;particle_id&quot;:&quot;img3-m194-p1&quot;,&quot;molecule_id&quot;:&quot;img3-m194&quot;,&quot;atom_order&quot;:1},{&quot;id&quot;:4180,&quot;token&quot;:&quot;g:1&quot;,&quot;particle_id&quot;:&quot;img3-m194-p1&quot;,&quot;molecule_id&quot;:&quot;img3-m194&quot;,&quot;atom_order&quot;:2},{&quot;id&quot;:4135,&quot;token&quot;:&quot;e:1&quot;,&quot;particle_id&quot;:&quot;img3-m194-p1&quot;,&quot;molecule_id&quot;:&quot;img3-m194&quot;,&quot;atom_order&quot;:3},{&quot;id&quot;:4172,&quot;token&quot;:&quot;c:1&quot;,&quot;particle_id&quot;:&quot;img3-m194-p2&quot;,&quot;molecule_id&quot;:&quot;img3-m194&quot;,&quot;atom_order&quot;:1},{&quot;id&quot;:4205,&quot;token&quot;:&quot;a:1&quot;,&quot;particle_id&quot;:&quot;img3-m194-p3&quot;,&quot;molecule_id&quot;:&quot;img3-m194&quot;,&quot;atom_order&quot;:1},{&quot;id&quot;:4211,&quot;token&quot;:&quot;m:1&quot;,&quot;particle_id&quot;:&quot;img3-m194-p3&quot;,&quot;molecule_id&quot;:&quot;img3-m194&quot;,&quot;atom_order&quot;:2},{&quot;id&quot;:4171,&quot;token&quot;:&quot;c:1&quot;,&quot;particle_id&quot;:&quot;img3-m194-p3&quot;,&quot;molecule_id&quot;:&quot;img3-m194&quot;,&quot;atom_order&quot;:3},{&quot;id&quot;:4204,&quot;token&quot;:&quot;a:1&quot;,&quot;particle_id&quot;:&quot;img3-m194-p3&quot;,&quot;molecule_id&quot;:&quot;img3-m194&quot;,&quot;atom_order&quot;:4},{&quot;id&quot;:4134,&quot;token&quot;:&quot;e:1&quot;,&quot;particle_id&quot;:&quot;img3-m194-p4&quot;,&quot;molecule_id&quot;:&quot;img3-m194&quot;,&quot;atom_order&quot;:1},{&quot;id&quot;:4192,&quot;token&quot;:&quot;h:1&quot;,&quot;particle_id&quot;:&quot;img3-m194-p4&quot;,&quot;molecule_id&quot;:&quot;img3-m194&quot;,&quot;atom_order&quot;:2}]}</metadata>
  <rect x="0" y="0" width="206" height="135" fill="#f8f0d8"/>
  <image href="file:///C:/Users/HHHES/AppData/Roaming/com.voynichlab.datasetcreator/images/1/35a70f63-88ab-4986-b441-b78046a10087.jpg" x="-1064" y="-2900" width="2972" height="3766" opacity="0.92"/>
  <rect x="0.5" y="0.5" width="205" height="134" fill="none" stroke="#111827" stroke-width="1" opacity="0.35"/>
  <polyline points="31,84 31,85 30,85 30,86 29,86 28,86 28,87 27,87 26,87 25,87 24,87 23,87 22,87 21,87 21,86 20,86 19,86 18,86 18,85 17,85 16,85 16,84 16,83 16,82 16,81 16,80 16,79 16,78 17,78 17,77 17,76 17,75 18,75 18,74 18,73 19,73 19,72 19,71 20,71 21,71 21,70 22,70 22,69 23,69 24,69 24,68 25,68 26,68 27,68 27,67" fill="none" stroke="#f2e45c" stroke-width="3" stroke-linecap="round" stroke-linejoin="round" opacity="0.95">
    <title>4136 e:1</title>
  </polyline>
  <polyline points="22,67 23,67 24,67 25,67 26,67 27,67 28,67 29,67 30,67 31,67 32,67 33,67 34,67 35,67 36,67 38,67 40,67 41,67 42,67 44,67 46,68 49,68 50,68 52,68 53,68 54,68 55,68 56,68 57,68 58,68 59,68 60,68 61,68 62,68 63,68 64,68 64,67 65,67 66,67 65,67 64,67" fill="none" stroke="#7c3cff" stroke-width="3" stroke-linecap="round" stroke-linejoin="round" opacity="0.95">
    <title>4180 g:1</title>
  </polyline>
  <polyline points="69,83 69,84 68,84 68,85 67,85 66,85 66,86 65,86 64,86 63,86 62,86 61,86 60,86 59,86 59,85 58,85 57,85 56,85 56,84 55,84 54,84 54,83 54,82 54,81 54,80 54,79 54,78 54,77 55,77 55,76 55,75 55,74 56,74 56,73 56,72 57,72 57,71 57,70 58,70 59,70 59,69 60,69 60,68 61,68 62,68 62,67 63,67 64,67 65,67 65,66" fill="none" stroke="#f2e45c" stroke-width="3" stroke-linecap="round" stroke-linejoin="round" opacity="0.95">
    <title>4135 e:1</title>
  </polyline>
  <polyline points="82,75 82,76 81,76 81,77 81,78 80,78 80,79 80,80 80,81 80,82 80,83 80,84 80,85 81,85 81,86 82,86 82,87 83,88 84,88 85,88 86,88 86,89 87,89 88,89 89,89 90,89 91,89 92,89 93,89 94,89 94,88 95,88 96,88 96,87 96,86 97,86 97,85 98,85 98,84 98,83 99,83 99,82 99,81 100,81 100,80 100,79 100,78 100,77 100,76 100,75 99,75 99,74 99,73 98,73 98,72 97,72 97,71 96,71 96,70 95,70 94,70 94,69 93,69 92,69 91,69 90,69 89,69 88,69 87,69 86,70 85,70 85,71 84,71 84,72 83,72 82,72 82,73 81,73 81,74 81,75" fill="none" stroke="#8aff00" stroke-width="3" stroke-linecap="round" stroke-linejoin="round" opacity="0.95">
    <title>4172 c:1</title>
  </polyline>
  <polyline points="123,46 123,47 123,48 123,49 122,50 122,51 122,52 122,53 122,54 122,55 122,56 122,57 122,58 122,59 121,60 121,61 121,62 121,63 121,64 121,65 121,66 121,67 121,68 121,69 121,70 121,71 121,72 121,73 120,74 120,75 120,76 120,77 120,78 120,79 120,80 120,81 120,82 120,83 120,84 120,85 121,85 121,86 121,87 121,86" fill="none" stroke="#00f0b5" stroke-width="3" stroke-linecap="round" stroke-linejoin="round" opacity="0.95">
    <title>4205 a:1</title>
  </polyline>
  <polyline points="123,48 123,47 123,46 124,46 124,45 124,44 124,43 124,42 124,41 124,40 124,39 124,38 124,37 124,36 124,35 124,34 124,33 125,32 125,31 125,30 125,29 125,28 125,27 125,26 126,25 126,24 126,23 126,22 126,21 126,20 126,19 126,18 126,17 126,16 125,16 125,17 124,17 123,17 122,18 121,18 120,18 120,19 119,19 118,19 118,20 117,20 116,20 115,21 114,21 113,21 112,21 112,22 111,22 110,23 109,23 108,24 107,24 107,25 106,25 106,26 105,26 105,27 104,27 104,28 103,28 102,28 102,29 102,30 101,30 100,30 100,31 99,31 98,32 97,33 98,33 99,34 100,34 101,34 102,34 103,34 104,34 105,34 106,34 106,35 107,35 108,35 109,35 110,35 111,35 112,35 112,36 113,36 115,36 116,36 117,36 118,36 119,36 120,36 121,36 122,36 124,36 126,36 128,36 129,36 130,37 131,37 132,37 133,37 134,37 135,37 136,37 137,37 138,37 139,37 140,37 141,38 142,38 144,38 146,38 147,38 148,38 149,38 150,38 151,38 152,38 153,38 154,38 155,38 156,39 157,39 158,39" fill="none" stroke="#ff00ff" stroke-width="3" stroke-linecap="round" stroke-linejoin="round" opacity="0.95">
    <title>4211 m:1</title>
  </polyline>
  <polyline points="149,22 149,23 149,24 148,24 148,25 148,26 148,27 148,28 147,29 147,30 147,31 147,32 147,33 147,34 148,34 148,35 149,36 149,37 150,37 150,38 151,38 152,39 153,39 154,39 155,39 156,39 157,39 158,39 160,39 161,39 163,38 164,38 165,37 166,37 166,36 167,36 168,35 169,35 169,34 170,34 171,33 171,32 172,32 172,31 173,31 173,30 173,29 173,28 174,27 174,26 174,25 173,25 172,25 172,24 171,23 170,22 169,21 168,21 167,21 167,20 166,20 165,19 164,19 163,19 162,19 161,19 160,19 159,19 158,19 157,19 156,19 155,19 154,19 153,19 153,20 152,20 151,21 150,22 150,23 149,23 149,24 149,25 148,25" fill="none" stroke="#8aff00" stroke-width="3" stroke-linecap="round" stroke-linejoin="round" opacity="0.95">
    <title>4171 c:1</title>
  </polyline>
  <polyline points="148,24 148,25 148,26 148,27 147,28 147,29 147,31 146,32 146,33 145,35 145,36 145,37 144,38 144,39 144,40 144,42 143,43 143,44 142,46 142,47 142,48 141,50 141,51 141,52 141,53 141,54 140,55 140,56 140,57 140,58 140,59 140,60 140,61 139,63 139,64 139,65 139,66 139,68 139,70 139,71 139,73 139,74 139,76 138,77 138,78 138,79 138,80 138,81 138,82 138,83 138,84 138,85 137,86 137,85" fill="none" stroke="#00f0b5" stroke-width="3" stroke-linecap="round" stroke-linejoin="round" opacity="0.95">
    <title>4204 a:1</title>
  </polyline>
  <polyline points="184,86 184,87 183,87 183,88 182,88 181,88 181,89 180,89 179,89 178,89 177,89 176,89 175,89 174,89 174,88 173,88 172,88 171,88 171,87 170,87 169,87 169,86 169,85 169,84 169,83 169,82 169,81 169,80 170,80 170,79 170,78 170,77 171,77 171,76 171,75 172,75 172,74 172,73 173,73 174,73 174,72 175,72 175,71 176,71 177,71 177,70 178,70 179,70 180,70 180,69" fill="none" stroke="#f2e45c" stroke-width="3" stroke-linecap="round" stroke-linejoin="round" opacity="0.95">
    <title>4134 e:1</title>
  </polyline>
  <polyline points="178,69 179,69 179,70 180,70 181,70 181,71 181,72 182,72 183,73 184,74 185,75 186,76 186,77 187,77 187,78 188,78 188,79 188,80 189,81 189,82 189,83 189,84 190,84 190,85 190,86 190,87 190,88 190,89 190,90 189,90 189,91 189,92 189,93 189,94 188,95 188,96 188,97 187,98 187,99 186,99 186,100 185,101 185,102 184,102 184,103 183,103 183,104 182,104 182,105 181,105 181,106 180,107 180,108 179,108 179,109 178,109 178,110 177,110 177,111 176,111 176,112 175,112 175,113 174,114 174,115 173,115 173,116 172,117 172,118 171,119" fill="none" stroke="#ff8c00" stroke-width="3" stroke-linecap="round" stroke-linejoin="round" opacity="0.95">
    <title>4192 h:1</title>
  </polyline>
</svg>
