<?xml version="1.0" encoding="UTF-8"?>
<svg xmlns="http://www.w3.org/2000/svg" width="69" height="46" viewBox="0 0 69 46">
  <title>atom 4727 b:1</title>
  <metadata>{&quot;entityType&quot;:&quot;atom&quot;,&quot;entityId&quot;:&quot;4727&quot;,&quot;token&quot;:&quot;b:1&quot;,&quot;signature&quot;:&quot;b:1&quot;,&quot;imageName&quot;:&quot;page-004.jpg&quot;,&quot;imageId&quot;:4,&quot;bounds&quot;:{&quot;x&quot;:579,&quot;y&quot;:1804,&quot;w&quot;:69,&quot;h&quot;:46},&quot;atoms&quot;:[{&quot;id&quot;:4727,&quot;token&quot;:&quot;b:1&quot;,&quot;particle_id&quot;:&quot;img4-m1-p1&quot;,&quot;molecule_id&quot;:&quot;img4-m1&quot;,&quot;atom_order&quot;:2}]}</metadata>
  <rect x="0" y="0" width="69" height="46" fill="#f8f0d8"/>
  <image href="file:///C:/Users/HHHES/AppData/Roaming/com.voynichlab.datasetcreator/images/1/aff30327-ced8-4ab4-8c9b-190205ebe022.jpg" x="-579" y="-1804" width="2804" height="3797" opacity="0.92"/>
  <rect x="0.5" y="0.5" width="68" height="45" fill="none" stroke="#111827" stroke-width="1" opacity="0.35"/>
  <polyline points="16,16 16,17 16,18 16,19 17,19 17,20 18,21 18,22 18,23 19,23 19,24 19,25 20,25 20,26 21,26 21,27 22,27 22,28 23,28 24,28 24,29 25,29 26,29 27,30 28,30 29,30 30,30 31,30 32,30 33,29 34,29 35,29 36,29 37,28 38,28 39,28 40,28 40,27 41,27 42,27 42,26 43,26 44,26 45,26 46,26 46,25 47,25 47,24 48,24 49,23 50,23 51,23 51,22 52,22 52,21 53,21" fill="none" stroke="#2f7df6" stroke-width="3" stroke-linecap="round" stroke-linejoin="round" opacity="0.95">
    <title>4727 b:1</title>
  </polyline>
</svg>
