<?xml version="1.0" encoding="UTF-8"?>
<svg xmlns="http://www.w3.org/2000/svg" width="82" height="39" viewBox="0 0 82 39">
  <title>atom 4728 b:1</title>
  <metadata>{&quot;entityType&quot;:&quot;atom&quot;,&quot;entityId&quot;:&quot;4728&quot;,&quot;token&quot;:&quot;b:1&quot;,&quot;signature&quot;:&quot;b:1&quot;,&quot;imageName&quot;:&quot;page-004.jpg&quot;,&quot;imageId&quot;:4,&quot;bounds&quot;:{&quot;x&quot;:1857,&quot;y&quot;:1898,&quot;w&quot;:82,&quot;h&quot;:39},&quot;atoms&quot;:[{&quot;id&quot;:4728,&quot;token&quot;:&quot;b:1&quot;,&quot;particle_id&quot;:&quot;img4-m5-p3&quot;,&quot;molecule_id&quot;:&quot;img4-m5&quot;,&quot;atom_order&quot;:3}]}</metadata>
  <rect x="0" y="0" width="82" height="39" fill="#f8f0d8"/>
  <image href="file:///C:/Users/HHHES/AppData/Roaming/com.voynichlab.datasetcreator/images/1/aff30327-ced8-4ab4-8c9b-190205ebe022.jpg" x="-1857" y="-1898" width="2804" height="3797" opacity="0.92"/>
  <rect x="0.5" y="0.5" width="81" height="38" fill="none" stroke="#111827" stroke-width="1" opacity="0.35"/>
  <polyline points="16,16 17,17 18,17 18,18 19,18 19,19 20,19 21,19 22,20 23,20 24,20 25,21 26,21 27,21 28,21 29,21 30,22 31,22 32,22 33,22 34,22 35,22 36,22 37,22 38,22 39,22 40,23 41,23 42,23 43,23 44,23 45,23 46,23 47,23 48,23 49,23 50,23 51,22 52,22 53,22 54,22 55,22 55,21 56,21 57,21 58,21 59,21 59,20 60,20 61,20 61,19 62,19 63,18 64,18 65,17 66,17 66,16" fill="none" stroke="#2f7df6" stroke-width="3" stroke-linecap="round" stroke-linejoin="round" opacity="0.95">
    <title>4728 b:1</title>
  </polyline>
</svg>
