<?xml version="1.0" encoding="UTF-8"?>
<svg xmlns="http://www.w3.org/2000/svg" width="66" height="49" viewBox="0 0 66 49">
  <title>atom 4733 b:1</title>
  <metadata>{&quot;entityType&quot;:&quot;atom&quot;,&quot;entityId&quot;:&quot;4733&quot;,&quot;token&quot;:&quot;b:1&quot;,&quot;signature&quot;:&quot;b:1&quot;,&quot;imageName&quot;:&quot;page-004.jpg&quot;,&quot;imageId&quot;:4,&quot;bounds&quot;:{&quot;x&quot;:2044,&quot;y&quot;:2088,&quot;w&quot;:66,&quot;h&quot;:49},&quot;atoms&quot;:[{&quot;id&quot;:4733,&quot;token&quot;:&quot;b:1&quot;,&quot;particle_id&quot;:&quot;img4-m20-p1&quot;,&quot;molecule_id&quot;:&quot;img4-m20&quot;,&quot;atom_order&quot;:2}]}</metadata>
  <rect x="0" y="0" width="66" height="49" fill="#f8f0d8"/>
  <image href="file:///C:/Users/HHHES/AppData/Roaming/com.voynichlab.datasetcreator/images/1/aff30327-ced8-4ab4-8c9b-190205ebe022.jpg" x="-2044" y="-2088" width="2804" height="3797" opacity="0.92"/>
  <rect x="0.5" y="0.5" width="65" height="48" fill="none" stroke="#111827" stroke-width="1" opacity="0.35"/>
  <polyline points="16,16 16,17 16,18 16,19 16,20 16,21 16,22 17,23 17,24 17,25 18,25 18,26 19,26 19,27 20,28 21,28 21,29 22,29 22,30 23,30 24,31 25,31 25,32 26,32 27,33 28,33 29,33 30,33 31,33 32,33 33,33 34,33 35,33 36,33 37,33 38,33 39,33 40,33 41,32 42,32 43,32 43,31 44,31 45,31 46,30 47,30 47,29 48,28 49,27 49,26 50,26 50,25" fill="none" stroke="#2f7df6" stroke-width="3" stroke-linecap="round" stroke-linejoin="round" opacity="0.95">
    <title>4733 b:1</title>
  </polyline>
</svg>
