<?xml version="1.0" encoding="UTF-8"?>
<svg xmlns="http://www.w3.org/2000/svg" width="67" height="48" viewBox="0 0 67 48">
  <title>atom 4734 b:1</title>
  <metadata>{&quot;entityType&quot;:&quot;atom&quot;,&quot;entityId&quot;:&quot;4734&quot;,&quot;token&quot;:&quot;b:1&quot;,&quot;signature&quot;:&quot;b:1&quot;,&quot;imageName&quot;:&quot;page-004.jpg&quot;,&quot;imageId&quot;:4,&quot;bounds&quot;:{&quot;x&quot;:1659,&quot;y&quot;:2063,&quot;w&quot;:67,&quot;h&quot;:48},&quot;atoms&quot;:[{&quot;id&quot;:4734,&quot;token&quot;:&quot;b:1&quot;,&quot;particle_id&quot;:&quot;img4-m21-p2&quot;,&quot;molecule_id&quot;:&quot;img4-m21&quot;,&quot;atom_order&quot;:2}]}</metadata>
  <rect x="0" y="0" width="67" height="48" fill="#f8f0d8"/>
  <image href="file:///C:/Users/HHHES/AppData/Roaming/com.voynichlab.datasetcreator/images/1/aff30327-ced8-4ab4-8c9b-190205ebe022.jpg" x="-1659" y="-2063" width="2804" height="3797" opacity="0.92"/>
  <rect x="0.5" y="0.5" width="66" height="47" fill="none" stroke="#111827" stroke-width="1" opacity="0.35"/>
  <polyline points="16,16 16,17 16,18 16,19 16,20 17,21 17,22 17,23 17,24 18,25 18,26 18,27 19,28 19,29 20,29 20,30 21,30 21,31 22,31 22,32 23,32 24,32 25,32 26,32 27,32 28,32 29,32 30,32 32,32 33,32 34,32 35,32 36,32 36,31 37,31 38,31 39,31 40,31 41,31 42,31 42,30 43,30 44,30 45,30 46,29 47,29 48,28 49,27 50,27 50,26 51,26 51,25" fill="none" stroke="#2f7df6" stroke-width="3" stroke-linecap="round" stroke-linejoin="round" opacity="0.95">
    <title>4734 b:1</title>
  </polyline>
</svg>
