<?xml version="1.0" encoding="UTF-8"?>
<svg xmlns="http://www.w3.org/2000/svg" width="70" height="42" viewBox="0 0 70 42">
  <title>atom 4736 b:1</title>
  <metadata>{&quot;entityType&quot;:&quot;atom&quot;,&quot;entityId&quot;:&quot;4736&quot;,&quot;token&quot;:&quot;b:1&quot;,&quot;signature&quot;:&quot;b:1&quot;,&quot;imageName&quot;:&quot;page-004.jpg&quot;,&quot;imageId&quot;:4,&quot;bounds&quot;:{&quot;x&quot;:811,&quot;y&quot;:2015,&quot;w&quot;:70,&quot;h&quot;:42},&quot;atoms&quot;:[{&quot;id&quot;:4736,&quot;token&quot;:&quot;b:1&quot;,&quot;particle_id&quot;:&quot;img4-m13-p1&quot;,&quot;molecule_id&quot;:&quot;img4-m13&quot;,&quot;atom_order&quot;:2}]}</metadata>
  <rect x="0" y="0" width="70" height="42" fill="#f8f0d8"/>
  <image href="file:///C:/Users/HHHES/AppData/Roaming/com.voynichlab.datasetcreator/images/1/aff30327-ced8-4ab4-8c9b-190205ebe022.jpg" x="-811" y="-2015" width="2804" height="3797" opacity="0.92"/>
  <rect x="0.5" y="0.5" width="69" height="41" fill="none" stroke="#111827" stroke-width="1" opacity="0.35"/>
  <polyline points="16,17 16,18 16,19 16,20 16,21 17,21 17,22 18,23 19,23 19,24 20,24 21,24 22,24 23,25 24,25 25,25 26,25 27,25 28,25 28,26 29,26 30,26 31,26 32,26 33,26 34,26 35,26 36,26 37,26 38,26 39,25 40,25 41,25 42,25 43,25 44,25 44,24 45,24 45,23 46,23 47,23 48,22 48,21 49,21 50,20 50,19 51,19 51,18 52,17 53,16 54,16" fill="none" stroke="#2f7df6" stroke-width="3" stroke-linecap="round" stroke-linejoin="round" opacity="0.95">
    <title>4736 b:1</title>
  </polyline>
</svg>
