<?xml version="1.0" encoding="UTF-8"?>
<svg xmlns="http://www.w3.org/2000/svg" width="72" height="55" viewBox="0 0 72 55">
  <title>atom 4738 b:1</title>
  <metadata>{&quot;entityType&quot;:&quot;atom&quot;,&quot;entityId&quot;:&quot;4738&quot;,&quot;token&quot;:&quot;b:1&quot;,&quot;signature&quot;:&quot;b:1&quot;,&quot;imageName&quot;:&quot;page-004.jpg&quot;,&quot;imageId&quot;:4,&quot;bounds&quot;:{&quot;x&quot;:753,&quot;y&quot;:2071,&quot;w&quot;:72,&quot;h&quot;:55},&quot;atoms&quot;:[{&quot;id&quot;:4738,&quot;token&quot;:&quot;b:1&quot;,&quot;particle_id&quot;:&quot;img4-m25-p3&quot;,&quot;molecule_id&quot;:&quot;img4-m25&quot;,&quot;atom_order&quot;:2}]}</metadata>
  <rect x="0" y="0" width="72" height="55" fill="#f8f0d8"/>
  <image href="file:///C:/Users/HHHES/AppData/Roaming/com.voynichlab.datasetcreator/images/1/aff30327-ced8-4ab4-8c9b-190205ebe022.jpg" x="-753" y="-2071" width="2804" height="3797" opacity="0.92"/>
  <rect x="0.5" y="0.5" width="71" height="54" fill="none" stroke="#111827" stroke-width="1" opacity="0.35"/>
  <polyline points="16,16 16,17 16,18 16,19 16,20 16,21 16,22 16,23 16,24 16,25 17,25 17,26 17,27 17,28 17,29 18,29 19,29 19,30 20,31 21,31 22,32 23,33 25,34 26,35 27,35 28,36 30,36 31,37 32,37 33,38 34,38 35,38 36,38 37,38 38,38 39,39 40,39 41,39 42,39 43,39 45,38 46,38 47,38 48,37 50,37 50,36 51,36 51,35 52,34 53,33 53,32 54,31 54,29 55,29 55,28 56,28 56,27 56,26 56,25 56,24 56,23" fill="none" stroke="#2f7df6" stroke-width="3" stroke-linecap="round" stroke-linejoin="round" opacity="0.95">
    <title>4738 b:1</title>
  </polyline>
</svg>
