<?xml version="1.0" encoding="UTF-8"?>
<svg xmlns="http://www.w3.org/2000/svg" width="68" height="48" viewBox="0 0 68 48">
  <title>atom 4739 b:1</title>
  <metadata>{&quot;entityType&quot;:&quot;atom&quot;,&quot;entityId&quot;:&quot;4739&quot;,&quot;token&quot;:&quot;b:1&quot;,&quot;signature&quot;:&quot;b:1&quot;,&quot;imageName&quot;:&quot;page-004.jpg&quot;,&quot;imageId&quot;:4,&quot;bounds&quot;:{&quot;x&quot;:1874,&quot;y&quot;:2153,&quot;w&quot;:68,&quot;h&quot;:48},&quot;atoms&quot;:[{&quot;id&quot;:4739,&quot;token&quot;:&quot;b:1&quot;,&quot;particle_id&quot;:&quot;img4-m29-p1&quot;,&quot;molecule_id&quot;:&quot;img4-m29&quot;,&quot;atom_order&quot;:2}]}</metadata>
  <rect x="0" y="0" width="68" height="48" fill="#f8f0d8"/>
  <image href="file:///C:/Users/HHHES/AppData/Roaming/com.voynichlab.datasetcreator/images/1/aff30327-ced8-4ab4-8c9b-190205ebe022.jpg" x="-1874" y="-2153" width="2804" height="3797" opacity="0.92"/>
  <rect x="0.5" y="0.5" width="67" height="47" fill="none" stroke="#111827" stroke-width="1" opacity="0.35"/>
  <polyline points="16,16 16,17 16,18 16,19 17,20 17,21 18,22 18,23 19,24 20,25 21,26 22,26 23,27 24,27 25,28 26,28 26,29 27,29 28,29 28,30 29,30 30,30 31,31 32,31 33,31 33,32 34,32 35,32 36,32 37,32 38,32 39,32 40,31 41,31 42,31 43,30 44,30 45,29 46,28 47,27 48,27 48,26 49,26 49,25 50,25 50,24 51,24 51,23 52,23 52,22" fill="none" stroke="#2f7df6" stroke-width="3" stroke-linecap="round" stroke-linejoin="round" opacity="0.95">
    <title>4739 b:1</title>
  </polyline>
</svg>
