<?xml version="1.0" encoding="UTF-8"?>
<svg xmlns="http://www.w3.org/2000/svg" width="136" height="45" viewBox="0 0 136 45">
  <title>atom 4740 b:1</title>
  <metadata>{&quot;entityType&quot;:&quot;atom&quot;,&quot;entityId&quot;:&quot;4740&quot;,&quot;token&quot;:&quot;b:1&quot;,&quot;signature&quot;:&quot;b:1&quot;,&quot;imageName&quot;:&quot;page-004.jpg&quot;,&quot;imageId&quot;:4,&quot;bounds&quot;:{&quot;x&quot;:549,&quot;y&quot;:2187,&quot;w&quot;:136,&quot;h&quot;:45},&quot;atoms&quot;:[{&quot;id&quot;:4740,&quot;token&quot;:&quot;b:1&quot;,&quot;particle_id&quot;:&quot;img4-m30-p1&quot;,&quot;molecule_id&quot;:&quot;img4-m30&quot;,&quot;atom_order&quot;:6}]}</metadata>
  <rect x="0" y="0" width="136" height="45" fill="#f8f0d8"/>
  <image href="file:///C:/Users/HHHES/AppData/Roaming/com.voynichlab.datasetcreator/images/1/aff30327-ced8-4ab4-8c9b-190205ebe022.jpg" x="-549" y="-2187" width="2804" height="3797" opacity="0.92"/>
  <rect x="0.5" y="0.5" width="135" height="44" fill="none" stroke="#111827" stroke-width="1" opacity="0.35"/>
  <polyline points="16,21 17,21 17,22 18,22 19,22 19,23 20,23 21,23 22,23 24,24 25,25 26,25 27,25 28,25 29,26 31,26 32,26 34,26 35,27 36,27 37,27 38,28 39,28 40,28 41,28 42,28 44,28 45,29 46,29 47,29 48,29 49,29 50,29 52,29 53,29 54,29 55,29 56,29 57,29 59,29 61,29 62,29 63,29 64,29 65,29 67,29 68,29 69,29 70,29 71,29 72,29 73,29 74,29 74,28 75,28 76,28 77,28 78,28 79,28 80,28 81,28 83,28 84,28 85,28 86,28 87,28 88,27 89,27 90,27 92,27 93,27 94,27 95,27 95,26 96,26 97,26 98,26 99,26 100,26 101,26 101,25 102,25 103,25 104,25 105,25 105,24 106,24 107,24 107,23 108,23 109,23 110,22 111,22 112,22 112,21 113,21 114,20 115,20 115,19 116,19 117,19 117,18 118,18 118,17 119,17 119,16 120,16" fill="none" stroke="#2f7df6" stroke-width="3" stroke-linecap="round" stroke-linejoin="round" opacity="0.95">
    <title>4740 b:1</title>
  </polyline>
</svg>
