<?xml version="1.0" encoding="UTF-8"?>
<svg xmlns="http://www.w3.org/2000/svg" width="112" height="48" viewBox="0 0 112 48">
  <title>atom 4741 b:1</title>
  <metadata>{&quot;entityType&quot;:&quot;atom&quot;,&quot;entityId&quot;:&quot;4741&quot;,&quot;token&quot;:&quot;b:1&quot;,&quot;signature&quot;:&quot;b:1&quot;,&quot;imageName&quot;:&quot;page-004.jpg&quot;,&quot;imageId&quot;:4,&quot;bounds&quot;:{&quot;x&quot;:550,&quot;y&quot;:2224,&quot;w&quot;:112,&quot;h&quot;:48},&quot;atoms&quot;:[{&quot;id&quot;:4741,&quot;token&quot;:&quot;b:1&quot;,&quot;particle_id&quot;:&quot;img4-m30-p1&quot;,&quot;molecule_id&quot;:&quot;img4-m30&quot;,&quot;atom_order&quot;:3}]}</metadata>
  <rect x="0" y="0" width="112" height="48" fill="#f8f0d8"/>
  <image href="file:///C:/Users/HHHES/AppData/Roaming/com.voynichlab.datasetcreator/images/1/aff30327-ced8-4ab4-8c9b-190205ebe022.jpg" x="-550" y="-2224" width="2804" height="3797" opacity="0.92"/>
  <rect x="0.5" y="0.5" width="111" height="47" fill="none" stroke="#111827" stroke-width="1" opacity="0.35"/>
  <polyline points="16,18 17,18 17,19 18,19 18,20 19,20 20,21 21,21 21,22 22,22 23,22 24,22 25,23 26,23 27,23 27,24 28,24 29,24 30,25 31,25 32,26 33,26 35,26 36,26 37,27 38,27 39,27 41,28 42,28 43,28 44,28 45,29 46,29 47,29 48,29 49,30 50,30 51,30 52,30 53,30 54,31 55,31 56,31 57,31 58,31 58,32 59,32 60,32 61,32 62,32 63,32 64,32 64,31 65,31 66,31 67,31 67,30 68,30 69,30 70,30 71,30 71,29 72,29 73,29 74,28 75,28 76,28 76,27 77,27 78,26 79,26 80,26 80,25 81,25 82,24 83,24 84,24 84,23 85,23 86,22 87,22 88,22 88,21 89,21 90,20 91,19 92,19 93,18 94,18 94,17 95,17 96,17 96,16" fill="none" stroke="#2f7df6" stroke-width="3" stroke-linecap="round" stroke-linejoin="round" opacity="0.95">
    <title>4741 b:1</title>
  </polyline>
</svg>
