<?xml version="1.0" encoding="UTF-8"?>
<svg xmlns="http://www.w3.org/2000/svg" width="75" height="43" viewBox="0 0 75 43">
  <title>atom 4745 b:1</title>
  <metadata>{&quot;entityType&quot;:&quot;atom&quot;,&quot;entityId&quot;:&quot;4745&quot;,&quot;token&quot;:&quot;b:1&quot;,&quot;signature&quot;:&quot;b:1&quot;,&quot;imageName&quot;:&quot;page-004.jpg&quot;,&quot;imageId&quot;:4,&quot;bounds&quot;:{&quot;x&quot;:1274,&quot;y&quot;:2394,&quot;w&quot;:75,&quot;h&quot;:43},&quot;atoms&quot;:[{&quot;id&quot;:4745,&quot;token&quot;:&quot;b:1&quot;,&quot;particle_id&quot;:&quot;img4-m44-p2&quot;,&quot;molecule_id&quot;:&quot;img4-m44&quot;,&quot;atom_order&quot;:2}]}</metadata>
  <rect x="0" y="0" width="75" height="43" fill="#f8f0d8"/>
  <image href="file:///C:/Users/HHHES/AppData/Roaming/com.voynichlab.datasetcreator/images/1/aff30327-ced8-4ab4-8c9b-190205ebe022.jpg" x="-1274" y="-2394" width="2804" height="3797" opacity="0.92"/>
  <rect x="0.5" y="0.5" width="74" height="42" fill="none" stroke="#111827" stroke-width="1" opacity="0.35"/>
  <polyline points="16,16 16,17 16,18 17,18 17,19 17,20 18,20 18,21 19,21 19,22 20,22 20,23 21,23 22,24 23,24 24,24 24,25 25,25 26,25 27,26 29,26 30,26 31,26 32,26 33,26 33,27 34,27 35,27 36,27 37,27 38,27 39,27 40,27 41,27 42,27 43,27 44,27 45,27 46,27 47,27 48,27 49,26 50,26 51,26 52,26 52,25 53,25 54,24 55,23 56,23 56,22 57,21 57,20 58,20 58,19 59,19 59,18" fill="none" stroke="#2f7df6" stroke-width="3" stroke-linecap="round" stroke-linejoin="round" opacity="0.95">
    <title>4745 b:1</title>
  </polyline>
</svg>
