<?xml version="1.0" encoding="UTF-8"?>
<svg xmlns="http://www.w3.org/2000/svg" width="67" height="45" viewBox="0 0 67 45">
  <title>atom 4746 b:1</title>
  <metadata>{&quot;entityType&quot;:&quot;atom&quot;,&quot;entityId&quot;:&quot;4746&quot;,&quot;token&quot;:&quot;b:1&quot;,&quot;signature&quot;:&quot;b:1&quot;,&quot;imageName&quot;:&quot;page-004.jpg&quot;,&quot;imageId&quot;:4,&quot;bounds&quot;:{&quot;x&quot;:627,&quot;y&quot;:2360,&quot;w&quot;:67,&quot;h&quot;:45},&quot;atoms&quot;:[{&quot;id&quot;:4746,&quot;token&quot;:&quot;b:1&quot;,&quot;particle_id&quot;:&quot;img4-m39-p3&quot;,&quot;molecule_id&quot;:&quot;img4-m39&quot;,&quot;atom_order&quot;:2}]}</metadata>
  <rect x="0" y="0" width="67" height="45" fill="#f8f0d8"/>
  <image href="file:///C:/Users/HHHES/AppData/Roaming/com.voynichlab.datasetcreator/images/1/aff30327-ced8-4ab4-8c9b-190205ebe022.jpg" x="-627" y="-2360" width="2804" height="3797" opacity="0.92"/>
  <rect x="0.5" y="0.5" width="66" height="44" fill="none" stroke="#111827" stroke-width="1" opacity="0.35"/>
  <polyline points="16,17 16,18 17,18 17,19 17,20 17,21 18,21 18,22 18,23 19,23 19,24 19,25 20,25 20,26 21,26 21,27 22,27 22,28 23,28 24,28 25,28 26,29 27,29 28,29 29,29 30,29 31,29 32,29 33,29 34,29 35,29 36,29 37,29 38,29 39,29 40,29 41,29 42,29 42,28 43,28 44,28 44,27 45,27 45,26 46,26 46,25 47,25 47,24 47,23 48,23 48,22 49,22 49,21 50,20 50,19 50,18 51,18 51,17 51,16" fill="none" stroke="#2f7df6" stroke-width="3" stroke-linecap="round" stroke-linejoin="round" opacity="0.95">
    <title>4746 b:1</title>
  </polyline>
</svg>
