<?xml version="1.0" encoding="UTF-8"?>
<svg xmlns="http://www.w3.org/2000/svg" width="68" height="45" viewBox="0 0 68 45">
  <title>atom 4752 b:1</title>
  <metadata>{&quot;entityType&quot;:&quot;atom&quot;,&quot;entityId&quot;:&quot;4752&quot;,&quot;token&quot;:&quot;b:1&quot;,&quot;signature&quot;:&quot;b:1&quot;,&quot;imageName&quot;:&quot;page-004.jpg&quot;,&quot;imageId&quot;:4,&quot;bounds&quot;:{&quot;x&quot;:1565,&quot;y&quot;:2482,&quot;w&quot;:68,&quot;h&quot;:45},&quot;atoms&quot;:[{&quot;id&quot;:4752,&quot;token&quot;:&quot;b:1&quot;,&quot;particle_id&quot;:&quot;img4-m59-p2&quot;,&quot;molecule_id&quot;:&quot;img4-m59&quot;,&quot;atom_order&quot;:2}]}</metadata>
  <rect x="0" y="0" width="68" height="45" fill="#f8f0d8"/>
  <image href="file:///C:/Users/HHHES/AppData/Roaming/com.voynichlab.datasetcreator/images/1/aff30327-ced8-4ab4-8c9b-190205ebe022.jpg" x="-1565" y="-2482" width="2804" height="3797" opacity="0.92"/>
  <rect x="0.5" y="0.5" width="67" height="44" fill="none" stroke="#111827" stroke-width="1" opacity="0.35"/>
  <polyline points="16,16 16,17 16,18 16,19 17,20 17,21 18,21 18,22 18,23 19,23 20,24 21,24 21,25 22,26 23,26 24,27 25,27 25,28 26,28 27,28 28,28 29,28 30,28 31,28 32,29 34,29 36,29 37,29 38,29 39,29 40,29 41,28 43,28 44,28 45,27 46,26 47,26 47,25 47,24 48,24 48,23 49,23 49,22 50,22 50,21 51,20 51,19 52,19 52,18 52,17" fill="none" stroke="#2f7df6" stroke-width="3" stroke-linecap="round" stroke-linejoin="round" opacity="0.95">
    <title>4752 b:1</title>
  </polyline>
</svg>
