<?xml version="1.0" encoding="UTF-8"?>
<svg xmlns="http://www.w3.org/2000/svg" width="99" height="41" viewBox="0 0 99 41">
  <title>atom 4754 b:1</title>
  <metadata>{&quot;entityType&quot;:&quot;atom&quot;,&quot;entityId&quot;:&quot;4754&quot;,&quot;token&quot;:&quot;b:1&quot;,&quot;signature&quot;:&quot;b:1&quot;,&quot;imageName&quot;:&quot;page-004.jpg&quot;,&quot;imageId&quot;:4,&quot;bounds&quot;:{&quot;x&quot;:1770,&quot;y&quot;:2728,&quot;w&quot;:99,&quot;h&quot;:41},&quot;atoms&quot;:[{&quot;id&quot;:4754,&quot;token&quot;:&quot;b:1&quot;,&quot;particle_id&quot;:&quot;img4-m87-p1&quot;,&quot;molecule_id&quot;:&quot;img4-m87&quot;,&quot;atom_order&quot;:7}]}</metadata>
  <rect x="0" y="0" width="99" height="41" fill="#f8f0d8"/>
  <image href="file:///C:/Users/HHHES/AppData/Roaming/com.voynichlab.datasetcreator/images/1/aff30327-ced8-4ab4-8c9b-190205ebe022.jpg" x="-1770" y="-2728" width="2804" height="3797" opacity="0.92"/>
  <rect x="0.5" y="0.5" width="98" height="40" fill="none" stroke="#111827" stroke-width="1" opacity="0.35"/>
  <polyline points="16,16 17,17 18,17 18,18 19,18 21,19 22,20 24,20 25,21 26,21 27,22 28,22 30,22 31,22 32,23 33,23 34,23 35,23 36,23 37,23 38,23 39,24 40,24 41,24 42,24 43,24 44,24 45,24 46,24 47,24 48,24 49,24 50,24 51,24 52,24 53,24 54,24 55,25 56,25 57,25 59,25 60,25 61,25 62,25 63,25 64,25 66,25 67,25 67,24 68,24 69,24 70,24 71,24 72,23 73,23 74,23 75,23 76,22 77,22 77,21 78,21 79,20 80,20 81,19 81,18 82,17 83,17" fill="none" stroke="#2f7df6" stroke-width="3" stroke-linecap="round" stroke-linejoin="round" opacity="0.95">
    <title>4754 b:1</title>
  </polyline>
</svg>
