<?xml version="1.0" encoding="UTF-8"?>
<svg xmlns="http://www.w3.org/2000/svg" width="75" height="51" viewBox="0 0 75 51">
  <title>atom 4757 b:1</title>
  <metadata>{&quot;entityType&quot;:&quot;atom&quot;,&quot;entityId&quot;:&quot;4757&quot;,&quot;token&quot;:&quot;b:1&quot;,&quot;signature&quot;:&quot;b:1&quot;,&quot;imageName&quot;:&quot;page-004.jpg&quot;,&quot;imageId&quot;:4,&quot;bounds&quot;:{&quot;x&quot;:988,&quot;y&quot;:2535,&quot;w&quot;:75,&quot;h&quot;:51},&quot;atoms&quot;:[{&quot;id&quot;:4757,&quot;token&quot;:&quot;b:1&quot;,&quot;particle_id&quot;:&quot;img4-m61-p1&quot;,&quot;molecule_id&quot;:&quot;img4-m61&quot;,&quot;atom_order&quot;:2}]}</metadata>
  <rect x="0" y="0" width="75" height="51" fill="#f8f0d8"/>
  <image href="file:///C:/Users/HHHES/AppData/Roaming/com.voynichlab.datasetcreator/images/1/aff30327-ced8-4ab4-8c9b-190205ebe022.jpg" x="-988" y="-2535" width="2804" height="3797" opacity="0.92"/>
  <rect x="0.5" y="0.5" width="74" height="50" fill="none" stroke="#111827" stroke-width="1" opacity="0.35"/>
  <polyline points="16,23 16,24 16,25 17,25 17,26 17,27 18,28 18,29 19,29 20,30 21,30 22,31 23,31 24,32 25,32 26,33 27,33 28,33 29,33 29,34 30,34 31,34 32,35 33,35 34,35 35,35 36,35 37,35 38,35 39,35 40,35 41,35 42,35 42,34 43,34 43,33 44,33 45,33 45,32 46,32 47,31 47,30 48,30 49,29 50,28 51,27 52,27 52,26 53,25 54,25 54,24 55,24 55,23 55,22 56,22 56,21 56,20 57,20 57,19 57,18 58,18 58,17 58,16 59,16" fill="none" stroke="#2f7df6" stroke-width="3" stroke-linecap="round" stroke-linejoin="round" opacity="0.95">
    <title>4757 b:1</title>
  </polyline>
</svg>
