<?xml version="1.0" encoding="UTF-8"?>
<svg xmlns="http://www.w3.org/2000/svg" width="76" height="44" viewBox="0 0 76 44">
  <title>atom 4758 b:1</title>
  <metadata>{&quot;entityType&quot;:&quot;atom&quot;,&quot;entityId&quot;:&quot;4758&quot;,&quot;token&quot;:&quot;b:1&quot;,&quot;signature&quot;:&quot;b:1&quot;,&quot;imageName&quot;:&quot;page-004.jpg&quot;,&quot;imageId&quot;:4,&quot;bounds&quot;:{&quot;x&quot;:863,&quot;y&quot;:2530,&quot;w&quot;:76,&quot;h&quot;:44},&quot;atoms&quot;:[{&quot;id&quot;:4758,&quot;token&quot;:&quot;b:1&quot;,&quot;particle_id&quot;:&quot;img4-m60-p1&quot;,&quot;molecule_id&quot;:&quot;img4-m60&quot;,&quot;atom_order&quot;:2}]}</metadata>
  <rect x="0" y="0" width="76" height="44" fill="#f8f0d8"/>
  <image href="file:///C:/Users/HHHES/AppData/Roaming/com.voynichlab.datasetcreator/images/1/aff30327-ced8-4ab4-8c9b-190205ebe022.jpg" x="-863" y="-2530" width="2804" height="3797" opacity="0.92"/>
  <rect x="0.5" y="0.5" width="75" height="43" fill="none" stroke="#111827" stroke-width="1" opacity="0.35"/>
  <polyline points="16,18 16,19 17,20 17,21 18,22 19,22 19,23 20,23 20,24 21,24 22,25 23,25 24,25 25,26 26,26 28,26 29,27 30,27 31,27 32,27 33,27 34,27 35,27 36,27 37,27 37,28 38,28 39,28 40,28 41,28 42,28 43,28 45,28 45,27 46,27 47,27 48,26 49,26 50,25 51,25 52,25 52,24 53,24 54,23 54,22 55,22 55,21 56,21 56,20 57,20 57,19 58,19 58,18 59,18 59,17 59,16 60,16" fill="none" stroke="#2f7df6" stroke-width="3" stroke-linecap="round" stroke-linejoin="round" opacity="0.95">
    <title>4758 b:1</title>
  </polyline>
</svg>
