<?xml version="1.0" encoding="UTF-8"?>
<svg xmlns="http://www.w3.org/2000/svg" width="69" height="49" viewBox="0 0 69 49">
  <title>atom 4759 b:1</title>
  <metadata>{&quot;entityType&quot;:&quot;atom&quot;,&quot;entityId&quot;:&quot;4759&quot;,&quot;token&quot;:&quot;b:1&quot;,&quot;signature&quot;:&quot;b:1&quot;,&quot;imageName&quot;:&quot;page-004.jpg&quot;,&quot;imageId&quot;:4,&quot;bounds&quot;:{&quot;x&quot;:802,&quot;y&quot;:2601,&quot;w&quot;:69,&quot;h&quot;:49},&quot;atoms&quot;:[{&quot;id&quot;:4759,&quot;token&quot;:&quot;b:1&quot;,&quot;particle_id&quot;:&quot;img4-m76-p2&quot;,&quot;molecule_id&quot;:&quot;img4-m76&quot;,&quot;atom_order&quot;:2}]}</metadata>
  <rect x="0" y="0" width="69" height="49" fill="#f8f0d8"/>
  <image href="file:///C:/Users/HHHES/AppData/Roaming/com.voynichlab.datasetcreator/images/1/aff30327-ced8-4ab4-8c9b-190205ebe022.jpg" x="-802" y="-2601" width="2804" height="3797" opacity="0.92"/>
  <rect x="0.5" y="0.5" width="68" height="48" fill="none" stroke="#111827" stroke-width="1" opacity="0.35"/>
  <polyline points="16,23 16,24 17,24 17,25 18,25 18,26 18,27 19,27 19,28 20,29 21,30 22,30 22,31 23,32 24,32 25,33 26,33 27,33 28,33 29,33 30,33 31,33 32,33 33,33 34,33 35,33 36,33 38,33 39,33 40,33 41,33 42,33 43,33 44,32 45,32 46,32 47,32 47,31 48,31 48,30 49,30 49,29 49,28 49,27 50,26 50,25 50,24 51,24 51,23 52,23 52,22 52,21 53,21 53,20 53,19 53,18 53,17 53,16" fill="none" stroke="#2f7df6" stroke-width="3" stroke-linecap="round" stroke-linejoin="round" opacity="0.95">
    <title>4759 b:1</title>
  </polyline>
</svg>
