<?xml version="1.0" encoding="UTF-8"?>
<svg xmlns="http://www.w3.org/2000/svg" width="76" height="46" viewBox="0 0 76 46">
  <title>atom 4761 b:1</title>
  <metadata>{&quot;entityType&quot;:&quot;atom&quot;,&quot;entityId&quot;:&quot;4761&quot;,&quot;token&quot;:&quot;b:1&quot;,&quot;signature&quot;:&quot;b:1&quot;,&quot;imageName&quot;:&quot;page-004.jpg&quot;,&quot;imageId&quot;:4,&quot;bounds&quot;:{&quot;x&quot;:1335,&quot;y&quot;:2535,&quot;w&quot;:76,&quot;h&quot;:46},&quot;atoms&quot;:[{&quot;id&quot;:4761,&quot;token&quot;:&quot;b:1&quot;,&quot;particle_id&quot;:&quot;img4-m62-p1&quot;,&quot;molecule_id&quot;:&quot;img4-m62&quot;,&quot;atom_order&quot;:2}]}</metadata>
  <rect x="0" y="0" width="76" height="46" fill="#f8f0d8"/>
  <image href="file:///C:/Users/HHHES/AppData/Roaming/com.voynichlab.datasetcreator/images/1/aff30327-ced8-4ab4-8c9b-190205ebe022.jpg" x="-1335" y="-2535" width="2804" height="3797" opacity="0.92"/>
  <rect x="0.5" y="0.5" width="75" height="45" fill="none" stroke="#111827" stroke-width="1" opacity="0.35"/>
  <polyline points="16,16 16,17 16,18 17,19 17,20 17,21 18,21 18,22 19,22 20,23 21,23 21,24 22,24 23,25 24,25 25,26 26,26 27,27 28,27 29,27 29,28 30,28 31,28 32,28 33,29 34,29 35,29 36,29 37,29 38,29 39,29 40,29 41,30 42,30 43,30 44,30 45,30 46,30 47,29 48,29 49,29 50,29 50,28 51,28 52,27 53,26 54,26 54,25 55,25 55,24 56,24 56,23 57,23 57,22 58,22 58,21 59,20 59,19 60,19 60,18 60,17" fill="none" stroke="#2f7df6" stroke-width="3" stroke-linecap="round" stroke-linejoin="round" opacity="0.95">
    <title>4761 b:1</title>
  </polyline>
</svg>
