<?xml version="1.0" encoding="UTF-8"?>
<svg xmlns="http://www.w3.org/2000/svg" width="64" height="43" viewBox="0 0 64 43">
  <title>atom 5405 b:1</title>
  <metadata>{&quot;entityType&quot;:&quot;atom&quot;,&quot;entityId&quot;:&quot;5405&quot;,&quot;token&quot;:&quot;b:1&quot;,&quot;signature&quot;:&quot;b:1&quot;,&quot;imageName&quot;:&quot;page-004.jpg&quot;,&quot;imageId&quot;:4,&quot;bounds&quot;:{&quot;x&quot;:1780,&quot;y&quot;:2753,&quot;w&quot;:64,&quot;h&quot;:43},&quot;atoms&quot;:[{&quot;id&quot;:5405,&quot;token&quot;:&quot;b:1&quot;,&quot;particle_id&quot;:&quot;img4-m87-p1&quot;,&quot;molecule_id&quot;:&quot;img4-m87&quot;,&quot;atom_order&quot;:4}]}</metadata>
  <rect x="0" y="0" width="64" height="43" fill="#f8f0d8"/>
  <image href="file:///C:/Users/HHHES/AppData/Roaming/com.voynichlab.datasetcreator/images/1/aff30327-ced8-4ab4-8c9b-190205ebe022.jpg" x="-1780" y="-2753" width="2804" height="3797" opacity="0.92"/>
  <rect x="0.5" y="0.5" width="63" height="42" fill="none" stroke="#111827" stroke-width="1" opacity="0.35"/>
  <polyline points="16,25 17,25 18,26 19,26 20,26 21,27 22,27 23,27 24,27 25,27 26,27 28,27 30,26 31,26 32,26 33,26 34,26 35,26 36,25 37,25 38,24 39,23 40,23 41,22 42,22 43,21 44,20 45,20 45,19 46,18 47,17 48,17 48,16" fill="none" stroke="#2f7df6" stroke-width="3" stroke-linecap="round" stroke-linejoin="round" opacity="0.95">
    <title>5405 b:1</title>
  </polyline>
</svg>
