<?xml version="1.0" encoding="UTF-8"?>
<svg xmlns="http://www.w3.org/2000/svg" width="67" height="42" viewBox="0 0 67 42">
  <title>atom 5425 b:1</title>
  <metadata>{&quot;entityType&quot;:&quot;atom&quot;,&quot;entityId&quot;:&quot;5425&quot;,&quot;token&quot;:&quot;b:1&quot;,&quot;signature&quot;:&quot;b:1&quot;,&quot;imageName&quot;:&quot;page-004.jpg&quot;,&quot;imageId&quot;:4,&quot;bounds&quot;:{&quot;x&quot;:2030,&quot;y&quot;:2515,&quot;w&quot;:67,&quot;h&quot;:42},&quot;atoms&quot;:[{&quot;id&quot;:5425,&quot;token&quot;:&quot;b:1&quot;,&quot;particle_id&quot;:&quot;img4-m64-p2&quot;,&quot;molecule_id&quot;:&quot;img4-m64&quot;,&quot;atom_order&quot;:2}]}</metadata>
  <rect x="0" y="0" width="67" height="42" fill="#f8f0d8"/>
  <image href="file:///C:/Users/HHHES/AppData/Roaming/com.voynichlab.datasetcreator/images/1/aff30327-ced8-4ab4-8c9b-190205ebe022.jpg" x="-2030" y="-2515" width="2804" height="3797" opacity="0.92"/>
  <rect x="0.5" y="0.5" width="66" height="41" fill="none" stroke="#111827" stroke-width="1" opacity="0.35"/>
  <polyline points="17,16 16,16 16,17 17,17 17,18 17,19 17,20 18,20 18,21 19,21 20,22 21,22 21,23 22,23 23,23 25,24 26,24 27,25 28,25 29,25 30,26 31,26 32,26 33,26 34,26 35,26 37,26 38,26 39,26 40,26 41,26 42,26 43,26 44,26 44,25 45,25 46,25 47,24 48,24 48,23 49,23 50,22 51,22" fill="none" stroke="#2f7df6" stroke-width="3" stroke-linecap="round" stroke-linejoin="round" opacity="0.95">
    <title>5425 b:1</title>
  </polyline>
</svg>
