<?xml version="1.0" encoding="UTF-8"?>
<svg xmlns="http://www.w3.org/2000/svg" width="48" height="50" viewBox="0 0 48 50">
  <title>atom 1216 e:1</title>
  <metadata>{&quot;entityType&quot;:&quot;atom&quot;,&quot;entityId&quot;:&quot;1216&quot;,&quot;token&quot;:&quot;e:1&quot;,&quot;signature&quot;:&quot;e:1&quot;,&quot;imageName&quot;:&quot;page-003.jpg&quot;,&quot;imageId&quot;:3,&quot;bounds&quot;:{&quot;x&quot;:1837,&quot;y&quot;:604,&quot;w&quot;:48,&quot;h&quot;:50},&quot;atoms&quot;:[{&quot;id&quot;:1216,&quot;token&quot;:&quot;e:1&quot;,&quot;particle_id&quot;:&quot;img3-m10-p1&quot;,&quot;molecule_id&quot;:&quot;img3-m10&quot;,&quot;atom_order&quot;:1}]}</metadata>
  <rect x="0" y="0" width="48" height="50" fill="#f8f0d8"/>
  
  <rect x="0.5" y="0.5" width="47" height="49" fill="none" stroke="#111827" stroke-width="1" opacity="0.35"/>
  <polyline points="32,32 31,32 31,33 30,33 29,33 29,34 28,34 27,34 26,34 25,34 24,34 23,34 23,33 22,33 21,33 20,33 20,32 19,32 19,31 18,31 18,30 17,30 17,29 17,28 16,28 16,27 16,26 16,25 16,24 16,23 16,22 16,21 17,21 17,20 18,20 18,19 19,19 19,18 20,18 21,18 21,17 22,17 23,17 23,16 24,16 25,16 26,16 26,17" fill="none" stroke="#f2e45c" stroke-width="3" stroke-linecap="round" stroke-linejoin="round" opacity="0.95">
    <title>1216 e:1</title>
  </polyline>
</svg>
