<?xml version="1.0" encoding="UTF-8"?>
<svg xmlns="http://www.w3.org/2000/svg" width="49" height="60" viewBox="0 0 49 60">
  <title>atom 2617 e:1</title>
  <metadata>{&quot;entityType&quot;:&quot;atom&quot;,&quot;entityId&quot;:&quot;2617&quot;,&quot;token&quot;:&quot;e:1&quot;,&quot;signature&quot;:&quot;e:1&quot;,&quot;imageName&quot;:&quot;page-094.jpg&quot;,&quot;imageId&quot;:94,&quot;bounds&quot;:{&quot;x&quot;:807,&quot;y&quot;:389,&quot;w&quot;:49,&quot;h&quot;:60},&quot;atoms&quot;:[{&quot;id&quot;:2617,&quot;token&quot;:&quot;e:1&quot;,&quot;particle_id&quot;:&quot;img94-m1-p1&quot;,&quot;molecule_id&quot;:&quot;img94-m1&quot;,&quot;atom_order&quot;:3}]}</metadata>
  <rect x="0" y="0" width="49" height="60" fill="#f8f0d8"/>
  
  <rect x="0.5" y="0.5" width="48" height="59" fill="none" stroke="#111827" stroke-width="1" opacity="0.35"/>
  <polyline points="27,44 26,43 25,43 24,43 23,43 23,42 22,42 21,42 20,41 19,41 19,40 18,40 18,39 17,39 17,38 16,38 16,37 16,36 16,35 16,34 16,33 16,32 16,31 16,30 16,29 16,28 17,28 17,27 17,26 18,26 18,25 19,25 19,24 20,24 20,23 21,23 22,23 22,22 23,22 23,21 24,21 24,20 25,20 26,20 26,19 27,19 27,18 28,18 29,18 29,17 30,17 31,17 32,17 32,16 33,16" fill="none" stroke="#f2e45c" stroke-width="3" stroke-linecap="round" stroke-linejoin="round" opacity="0.95">
    <title>2617 e:1</title>
  </polyline>
</svg>
