<?xml version="1.0" encoding="UTF-8"?>
<svg xmlns="http://www.w3.org/2000/svg" width="42" height="49" viewBox="0 0 42 49">
  <title>atom 994 e:1</title>
  <metadata>{&quot;entityType&quot;:&quot;atom&quot;,&quot;entityId&quot;:&quot;994&quot;,&quot;token&quot;:&quot;e:1&quot;,&quot;signature&quot;:&quot;e:1&quot;,&quot;imageName&quot;:&quot;page-003.jpg&quot;,&quot;imageId&quot;:3,&quot;bounds&quot;:{&quot;x&quot;:690,&quot;y&quot;:531,&quot;w&quot;:42,&quot;h&quot;:49},&quot;atoms&quot;:[{&quot;id&quot;:994,&quot;token&quot;:&quot;e:1&quot;,&quot;particle_id&quot;:&quot;img3-m1-p5&quot;,&quot;molecule_id&quot;:&quot;img3-m1&quot;,&quot;atom_order&quot;:3}]}</metadata>
  <rect x="0" y="0" width="42" height="49" fill="#f8f0d8"/>
  
  <rect x="0.5" y="0.5" width="41" height="48" fill="none" stroke="#111827" stroke-width="1" opacity="0.35"/>
  <polyline points="26,30 25,30 25,31 24,31 24,32 23,32 23,33 22,33 21,33 20,33 19,33 18,33 18,32 17,32 17,31 16,31 16,30 16,29 16,28 16,27 16,26 16,25 16,24 17,23 17,22 18,22 18,21 18,20 19,20 19,19 20,19 21,18 22,18 22,17 23,17 23,16 24,16 25,16 26,16" fill="none" stroke="#f2e45c" stroke-width="3" stroke-linecap="round" stroke-linejoin="round" opacity="0.95">
    <title>994 e:1</title>
  </polyline>
</svg>
