<?xml version="1.0" encoding="UTF-8"?>
<svg xmlns="http://www.w3.org/2000/svg" width="95" height="45" viewBox="0 0 95 45">
  <title>atom 2615 b:1</title>
  <metadata>{&quot;entityType&quot;:&quot;atom&quot;,&quot;entityId&quot;:&quot;2615&quot;,&quot;token&quot;:&quot;b:1&quot;,&quot;signature&quot;:&quot;b:1&quot;,&quot;imageName&quot;:&quot;page-094.jpg&quot;,&quot;imageId&quot;:94,&quot;bounds&quot;:{&quot;x&quot;:834,&quot;y&quot;:457,&quot;w&quot;:95,&quot;h&quot;:45},&quot;atoms&quot;:[{&quot;id&quot;:2615,&quot;token&quot;:&quot;b:1&quot;,&quot;particle_id&quot;:&quot;img94-m1-p1&quot;,&quot;molecule_id&quot;:&quot;img94-m1&quot;,&quot;atom_order&quot;:4}]}</metadata>
  <rect x="0" y="0" width="95" height="45" fill="#f8f0d8"/>

  <rect x="0.5" y="0.5" width="94" height="44" fill="none" stroke="#111827" stroke-width="1" opacity="0.35"/>
  <polyline points="79,16 79,17 78,17 78,18 78,19 77,19 77,20 76,21 75,21 75,22 74,22 74,23 73,23 72,23 71,24 70,25 69,25 68,26 67,26 66,26 66,27 65,27 64,27 63,27 62,27 61,28 60,28 59,28 58,28 57,28 56,28 55,28 54,28 53,28 52,28 51,29 50,29 49,29 48,29 47,29 46,29 45,29 44,29 43,29 42,28 41,28 40,28 39,28 38,28 38,27 37,27 36,27 35,27 34,27 34,26 33,26 32,26 31,26 30,25 29,25 28,25 27,25 27,24 26,24 25,24 24,24 23,24 23,23 22,23 21,23 20,23 20,22 19,22 18,22 18,21 17,21 16,21" fill="none" stroke="#2f7df6" stroke-width="3" stroke-linecap="round" stroke-linejoin="round" opacity="0.95">
    <title>2615 b:1</title>
  </polyline>
</svg>
