<?xml version="1.0" encoding="UTF-8"?>
<svg xmlns="http://www.w3.org/2000/svg" width="63" height="39" viewBox="0 0 63 39">
  <title>atom 3215 b:1</title>
  <metadata>{&quot;entityType&quot;:&quot;atom&quot;,&quot;entityId&quot;:&quot;3215&quot;,&quot;token&quot;:&quot;b:1&quot;,&quot;signature&quot;:&quot;b:1&quot;,&quot;imageName&quot;:&quot;page-003.jpg&quot;,&quot;imageId&quot;:3,&quot;bounds&quot;:{&quot;x&quot;:1586,&quot;y&quot;:1806,&quot;w&quot;:63,&quot;h&quot;:39},&quot;atoms&quot;:[{&quot;id&quot;:3215,&quot;token&quot;:&quot;b:1&quot;,&quot;particle_id&quot;:&quot;img3-m100-p1&quot;,&quot;molecule_id&quot;:&quot;img3-m100&quot;,&quot;atom_order&quot;:2}]}</metadata>
  <rect x="0" y="0" width="63" height="39" fill="#f8f0d8"/>

  <rect x="0.5" y="0.5" width="62" height="38" fill="none" stroke="#111827" stroke-width="1" opacity="0.35"/>
  <polyline points="16,16 17,17 17,18 17,19 18,19 18,20 19,20 19,21 20,21 21,21 21,22 22,22 23,22 24,22 25,22 25,23 26,23 27,23 28,23 29,23 30,23 31,23 32,23 33,23 34,23 35,23 36,23 37,22 38,22 39,22 40,22 40,21 41,21 42,21 43,20 44,20 44,19 45,19 46,19 46,18 47,18 47,17" fill="none" stroke="#2f7df6" stroke-width="3" stroke-linecap="round" stroke-linejoin="round" opacity="0.95">
    <title>3215 b:1</title>
  </polyline>
</svg>
