<?xml version="1.0" encoding="UTF-8"?>
<svg xmlns="http://www.w3.org/2000/svg" width="71" height="44" viewBox="0 0 71 44">
  <title>atom 4735 b:1</title>
  <metadata>{&quot;entityType&quot;:&quot;atom&quot;,&quot;entityId&quot;:&quot;4735&quot;,&quot;token&quot;:&quot;b:1&quot;,&quot;signature&quot;:&quot;b:1&quot;,&quot;imageName&quot;:&quot;page-004.jpg&quot;,&quot;imageId&quot;:4,&quot;bounds&quot;:{&quot;x&quot;:927,&quot;y&quot;:2012,&quot;w&quot;:71,&quot;h&quot;:44},&quot;atoms&quot;:[{&quot;id&quot;:4735,&quot;token&quot;:&quot;b:1&quot;,&quot;particle_id&quot;:&quot;img4-m13-p3&quot;,&quot;molecule_id&quot;:&quot;img4-m13&quot;,&quot;atom_order&quot;:2}]}</metadata>
  <rect x="0" y="0" width="71" height="44" fill="#f8f0d8"/>

  <rect x="0.5" y="0.5" width="70" height="43" fill="none" stroke="#111827" stroke-width="1" opacity="0.35"/>
  <polyline points="16,16 17,17 17,18 18,18 19,19 19,20 20,20 20,21 21,21 22,22 23,22 24,23 25,23 26,24 27,24 29,25 30,25 31,25 31,26 32,26 33,26 33,27 34,27 35,27 36,27 37,27 37,28 38,28 39,28 40,28 41,28 42,28 43,28 44,28 45,28 46,28 47,28 48,28 49,28 50,28 50,27 51,27 52,27 52,26 53,26 53,25 54,25 54,24 55,24 55,23" fill="none" stroke="#2f7df6" stroke-width="3" stroke-linecap="round" stroke-linejoin="round" opacity="0.95">
    <title>4735 b:1</title>
  </polyline>
</svg>
