<?xml version="1.0" encoding="UTF-8"?>
<svg xmlns="http://www.w3.org/2000/svg" width="58" height="45" viewBox="0 0 58 45">
  <title>atom 5564 b:1</title>
  <metadata>{&quot;entityType&quot;:&quot;atom&quot;,&quot;entityId&quot;:&quot;5564&quot;,&quot;token&quot;:&quot;b:1&quot;,&quot;signature&quot;:&quot;b:1&quot;,&quot;imageName&quot;:&quot;page-005.jpg&quot;,&quot;imageId&quot;:5,&quot;bounds&quot;:{&quot;x&quot;:1075,&quot;y&quot;:553,&quot;w&quot;:58,&quot;h&quot;:45},&quot;atoms&quot;:[{&quot;id&quot;:5564,&quot;token&quot;:&quot;b:1&quot;,&quot;particle_id&quot;:&quot;img5-m11-p2&quot;,&quot;molecule_id&quot;:&quot;img5-m11&quot;,&quot;atom_order&quot;:2}]}</metadata>
  <rect x="0" y="0" width="58" height="45" fill="#f8f0d8"/>

  <rect x="0.5" y="0.5" width="57" height="44" fill="none" stroke="#111827" stroke-width="1" opacity="0.35"/>
  <polyline points="16,16 16,17 16,18 16,19 16,20 16,21 16,22 17,23 17,24 17,25 18,25 18,26 19,26 19,27 20,27 20,28 21,28 22,28 23,29 24,29 25,29 26,29 27,29 28,29 29,29 30,29 31,29 32,29 33,29 33,28 34,28 35,28 35,27 36,27 37,27 37,26 38,26 39,26 39,25 40,25 40,24 41,24 41,23 41,22 42,22" fill="none" stroke="#2f7df6" stroke-width="3" stroke-linecap="round" stroke-linejoin="round" opacity="0.95">
    <title>5564 b:1</title>
  </polyline>
</svg>
