<?xml version="1.0" encoding="UTF-8"?>
<svg xmlns="http://www.w3.org/2000/svg" width="59" height="46" viewBox="0 0 59 46">
  <title>atom 6010 b:1</title>
  <metadata>{&quot;entityType&quot;:&quot;atom&quot;,&quot;entityId&quot;:&quot;6010&quot;,&quot;token&quot;:&quot;b:1&quot;,&quot;signature&quot;:&quot;b:1&quot;,&quot;imageName&quot;:&quot;page-005.jpg&quot;,&quot;imageId&quot;:5,&quot;bounds&quot;:{&quot;x&quot;:648,&quot;y&quot;:2848,&quot;w&quot;:59,&quot;h&quot;:46},&quot;atoms&quot;:[{&quot;id&quot;:6010,&quot;token&quot;:&quot;b:1&quot;,&quot;particle_id&quot;:&quot;img5-m102-p3&quot;,&quot;molecule_id&quot;:&quot;img5-m102&quot;,&quot;atom_order&quot;:2}]}</metadata>
  <rect x="0" y="0" width="59" height="46" fill="#f8f0d8"/>
  
  <rect x="0.5" y="0.5" width="58" height="45" fill="none" stroke="#111827" stroke-width="1" opacity="0.35"/>
  <polyline points="16,16 16,17 16,18 16,19 16,20 16,21 16,22 16,23 16,24 16,25 16,26 16,27 17,27 17,28 18,28 19,28 19,29 20,29 21,29 21,30 22,30 23,30 24,30 25,30 26,30 27,30 28,30 29,30 30,30 31,30 33,30 34,30 34,29 35,29 36,29 37,28 38,28 38,27 39,27 39,26 40,25 41,25 41,24 41,23 42,23 42,22 43,21 43,20 43,19" fill="none" stroke="#2f7df6" stroke-width="3" stroke-linecap="round" stroke-linejoin="round" opacity="0.95">
    <title>6010 b:1</title>
  </polyline>
</svg>
