<?xml version="1.0" encoding="UTF-8"?>
<svg xmlns="http://www.w3.org/2000/svg" width="62" height="45" viewBox="0 0 62 45">
  <title>atom 6557 b:1</title>
  <metadata>{&quot;entityType&quot;:&quot;atom&quot;,&quot;entityId&quot;:&quot;6557&quot;,&quot;token&quot;:&quot;b:1&quot;,&quot;signature&quot;:&quot;b:1&quot;,&quot;imageName&quot;:&quot;page-006.jpg&quot;,&quot;imageId&quot;:6,&quot;bounds&quot;:{&quot;x&quot;:737,&quot;y&quot;:597,&quot;w&quot;:62,&quot;h&quot;:45},&quot;atoms&quot;:[{&quot;id&quot;:6557,&quot;token&quot;:&quot;b:1&quot;,&quot;particle_id&quot;:&quot;img6-m1-p1&quot;,&quot;molecule_id&quot;:&quot;img6-m1&quot;,&quot;atom_order&quot;:2}]}</metadata>
  <rect x="0" y="0" width="62" height="45" fill="#f8f0d8"/>

  <rect x="0.5" y="0.5" width="61" height="44" fill="none" stroke="#111827" stroke-width="1" opacity="0.35"/>
  <polyline points="16,16 16,17 16,18 16,19 17,20 17,21 17,22 17,23 18,23 18,24 18,25 19,25 19,26 20,26 20,27 21,27 22,27 23,27 23,28 24,28 25,28 26,28 26,29 27,29 28,29 29,29 30,29 31,29 32,29 33,29 34,29 35,29 36,29 37,29 37,28 38,28 39,28 40,27 41,27 41,26 42,26 42,25 43,25 43,24 44,24 44,23 45,23 45,22 45,21 45,20 46,20 46,19" fill="none" stroke="#2f7df6" stroke-width="3" stroke-linecap="round" stroke-linejoin="round" opacity="0.95">
    <title>6557 b:1</title>
  </polyline>
</svg>
