<?xml version="1.0" encoding="UTF-8"?>
<svg xmlns="http://www.w3.org/2000/svg" width="113" height="41" viewBox="0 0 113 41">
  <title>atom 6558 b:1</title>
  <metadata>{&quot;entityType&quot;:&quot;atom&quot;,&quot;entityId&quot;:&quot;6558&quot;,&quot;token&quot;:&quot;b:1&quot;,&quot;signature&quot;:&quot;b:1&quot;,&quot;imageName&quot;:&quot;page-006.jpg&quot;,&quot;imageId&quot;:6,&quot;bounds&quot;:{&quot;x&quot;:1067,&quot;y&quot;:606,&quot;w&quot;:113,&quot;h&quot;:41},&quot;atoms&quot;:[{&quot;id&quot;:6558,&quot;token&quot;:&quot;b:1&quot;,&quot;particle_id&quot;:&quot;img6-m3-p4&quot;,&quot;molecule_id&quot;:&quot;img6-m3&quot;,&quot;atom_order&quot;:3}]}</metadata>
  <rect x="0" y="0" width="113" height="41" fill="#f8f0d8"/>

  <rect x="0.5" y="0.5" width="112" height="40" fill="none" stroke="#111827" stroke-width="1" opacity="0.35"/>
  <polyline points="16,16 16,17 17,17 17,18 18,18 19,19 20,19 21,20 22,20 23,20 24,21 25,21 26,21 27,21 28,22 29,22 31,22 33,22 35,22 37,23 39,23 40,23 42,23 43,23 44,23 45,23 46,23 47,23 48,24 49,24 50,24 51,24 52,24 53,24 54,24 55,24 56,24 58,24 59,24 60,24 61,24 62,24 62,25 63,25 65,25 66,25 67,25 68,25 69,25 70,25 71,25 72,25 73,25 74,25 75,25 76,25 77,25 78,25 79,25 80,25 81,25 81,24 82,24 83,24 84,24 85,23 86,23 87,23 88,23 89,23 89,22 90,22 91,22 92,22 92,21 93,21 94,21 95,20 96,20 97,20 97,19" fill="none" stroke="#2f7df6" stroke-width="3" stroke-linecap="round" stroke-linejoin="round" opacity="0.95">
    <title>6558 b:1</title>
  </polyline>
</svg>
