<?xml version="1.0" encoding="UTF-8"?>
<svg xmlns="http://www.w3.org/2000/svg" width="75" height="39" viewBox="0 0 75 39">
  <title>atom 6561 b:1</title>
  <metadata>{&quot;entityType&quot;:&quot;atom&quot;,&quot;entityId&quot;:&quot;6561&quot;,&quot;token&quot;:&quot;b:1&quot;,&quot;signature&quot;:&quot;b:1&quot;,&quot;imageName&quot;:&quot;page-006.jpg&quot;,&quot;imageId&quot;:6,&quot;bounds&quot;:{&quot;x&quot;:1826,&quot;y&quot;:761,&quot;w&quot;:75,&quot;h&quot;:39},&quot;atoms&quot;:[{&quot;id&quot;:6561,&quot;token&quot;:&quot;b:1&quot;,&quot;particle_id&quot;:&quot;img6-m11-p2&quot;,&quot;molecule_id&quot;:&quot;img6-m11&quot;,&quot;atom_order&quot;:3}]}</metadata>
  <rect x="0" y="0" width="75" height="39" fill="#f8f0d8"/>

  <rect x="0.5" y="0.5" width="74" height="38" fill="none" stroke="#111827" stroke-width="1" opacity="0.35"/>
  <polyline points="16,16 17,17 18,17 18,18 19,18 19,19 20,20 21,20 21,21 22,21 23,21 24,21 25,22 26,22 27,22 28,22 29,22 30,22 31,22 31,23 32,23 33,23 34,23 35,23 36,23 37,23 38,23 39,23 39,22 40,22 41,22 42,22 43,22 44,22 45,22 45,21 46,21 47,21 48,21 49,21 50,20 51,20 52,20 53,20 53,19 54,19 55,19 55,18 56,18 57,18 58,17 59,16" fill="none" stroke="#2f7df6" stroke-width="3" stroke-linecap="round" stroke-linejoin="round" opacity="0.95">
    <title>6561 b:1</title>
  </polyline>
</svg>
