<?xml version="1.0" encoding="UTF-8"?>
<svg xmlns="http://www.w3.org/2000/svg" width="80" height="41" viewBox="0 0 80 41">
  <title>atom 6565 b:1</title>
  <metadata>{&quot;entityType&quot;:&quot;atom&quot;,&quot;entityId&quot;:&quot;6565&quot;,&quot;token&quot;:&quot;b:1&quot;,&quot;signature&quot;:&quot;b:1&quot;,&quot;imageName&quot;:&quot;page-006.jpg&quot;,&quot;imageId&quot;:6,&quot;bounds&quot;:{&quot;x&quot;:2128,&quot;y&quot;:851,&quot;w&quot;:80,&quot;h&quot;:41},&quot;atoms&quot;:[{&quot;id&quot;:6565,&quot;token&quot;:&quot;b:1&quot;,&quot;particle_id&quot;:&quot;img6-m22-p1&quot;,&quot;molecule_id&quot;:&quot;img6-m22&quot;,&quot;atom_order&quot;:4}]}</metadata>
  <rect x="0" y="0" width="80" height="41" fill="#f8f0d8"/>

  <rect x="0.5" y="0.5" width="79" height="40" fill="none" stroke="#111827" stroke-width="1" opacity="0.35"/>
  <polyline points="16,16 16,17 16,18 16,19 17,19 18,19 18,20 19,20 20,21 21,21 22,22 23,22 24,22 25,23 26,23 27,23 28,23 29,23 29,24 30,24 31,24 32,24 33,24 34,24 35,24 36,24 36,25 37,25 38,25 39,25 40,25 41,25 42,25 43,25 44,25 45,25 46,25 47,25 48,25 49,25 50,25 50,24 51,24 52,24 53,24 54,24 55,23 56,23 57,23 58,22 59,22 60,22 61,21 62,21 63,20 64,20" fill="none" stroke="#2f7df6" stroke-width="3" stroke-linecap="round" stroke-linejoin="round" opacity="0.95">
    <title>6565 b:1</title>
  </polyline>
</svg>
