<?xml version="1.0" encoding="UTF-8"?>
<svg xmlns="http://www.w3.org/2000/svg" width="69" height="43" viewBox="0 0 69 43">
  <title>atom 6566 b:1</title>
  <metadata>{&quot;entityType&quot;:&quot;atom&quot;,&quot;entityId&quot;:&quot;6566&quot;,&quot;token&quot;:&quot;b:1&quot;,&quot;signature&quot;:&quot;b:1&quot;,&quot;imageName&quot;:&quot;page-006.jpg&quot;,&quot;imageId&quot;:6,&quot;bounds&quot;:{&quot;x&quot;:635,&quot;y&quot;:2125,&quot;w&quot;:69,&quot;h&quot;:43},&quot;atoms&quot;:[{&quot;id&quot;:6566,&quot;token&quot;:&quot;b:1&quot;,&quot;particle_id&quot;:&quot;img6-m27-p1&quot;,&quot;molecule_id&quot;:&quot;img6-m27&quot;,&quot;atom_order&quot;:2}]}</metadata>
  <rect x="0" y="0" width="69" height="43" fill="#f8f0d8"/>

  <rect x="0.5" y="0.5" width="68" height="42" fill="none" stroke="#111827" stroke-width="1" opacity="0.35"/>
  <polyline points="16,17 16,18 17,18 18,19 19,20 20,21 21,21 21,22 21,23 22,23 23,24 24,24 24,25 25,25 26,25 27,25 27,26 28,26 30,26 31,26 32,26 33,27 34,27 35,27 36,27 37,27 38,27 39,27 40,27 41,26 42,26 43,26 43,25 44,25 45,25 46,24 47,23 48,22 49,22 49,21 49,20 50,20 50,19 51,19 51,18 52,18 52,17 53,17 53,16" fill="none" stroke="#2f7df6" stroke-width="3" stroke-linecap="round" stroke-linejoin="round" opacity="0.95">
    <title>6566 b:1</title>
  </polyline>
</svg>
