<?xml version="1.0" encoding="UTF-8"?>
<svg xmlns="http://www.w3.org/2000/svg" width="33" height="84" viewBox="0 0 33 84">
  <title>atom 2618 a:1</title>
  <metadata>{&quot;entityType&quot;:&quot;atom&quot;,&quot;entityId&quot;:&quot;2618&quot;,&quot;token&quot;:&quot;a:1&quot;,&quot;signature&quot;:&quot;a:1&quot;,&quot;imageName&quot;:&quot;page-094.jpg&quot;,&quot;imageId&quot;:94,&quot;bounds&quot;:{&quot;x&quot;:897,&quot;y&quot;:405,&quot;w&quot;:33,&quot;h&quot;:84},&quot;atoms&quot;:[{&quot;id&quot;:2618,&quot;token&quot;:&quot;a:1&quot;,&quot;particle_id&quot;:&quot;img94-m1-p1&quot;,&quot;molecule_id&quot;:&quot;img94-m1&quot;,&quot;atom_order&quot;:6}]}</metadata>
  <rect x="0" y="0" width="33" height="84" fill="#f8f0d8"/>
  
  <rect x="0.5" y="0.5" width="32" height="83" fill="none" stroke="#111827" stroke-width="1" opacity="0.35"/>
  <polyline points="16,68 16,67 16,66 16,65 16,64 16,63 16,62 16,61 16,60 16,59 16,58 16,57 16,56 17,56 17,55 17,54 17,53 17,52 17,51 17,50 17,49 17,48 17,47 17,46 17,45 17,44 17,43 17,42 17,41 17,40 17,39 17,38 17,37 17,36 17,35 17,34 17,33 17,32 17,31 17,30 17,29 17,28 17,27 17,26 17,25 17,24 17,23 17,22 17,21 17,20 17,19 17,18 17,17 17,16" fill="none" stroke="#00f0b5" stroke-width="3" stroke-linecap="round" stroke-linejoin="round" opacity="0.95">
    <title>2618 a:1</title>
  </polyline>
</svg>
