<?xml version="1.0" encoding="UTF-8"?>
<svg xmlns="http://www.w3.org/2000/svg" width="48" height="50" viewBox="0 0 48 50">
  <title>atom 6488 c:2</title>
  <metadata>{&quot;entityType&quot;:&quot;atom&quot;,&quot;entityId&quot;:&quot;6488&quot;,&quot;token&quot;:&quot;c:2&quot;,&quot;signature&quot;:&quot;c:2&quot;,&quot;imageName&quot;:&quot;page-005.jpg&quot;,&quot;imageId&quot;:5,&quot;bounds&quot;:{&quot;x&quot;:1948,&quot;y&quot;:908,&quot;w&quot;:48,&quot;h&quot;:50},&quot;atoms&quot;:[{&quot;id&quot;:6488,&quot;token&quot;:&quot;c:2&quot;,&quot;particle_id&quot;:&quot;img5-m35-p1&quot;,&quot;molecule_id&quot;:&quot;img5-m35&quot;,&quot;atom_order&quot;:1}]}</metadata>
  <rect x="0" y="0" width="48" height="50" fill="#f8f0d8"/>
  
  <rect x="0.5" y="0.5" width="47" height="49" fill="none" stroke="#111827" stroke-width="1" opacity="0.35"/>
  <polyline points="19,17 19,18 18,18 18,19 17,19 17,20 17,21 16,21 16,22 16,23 16,24 16,25 16,26 17,27 17,28 17,29 18,29 18,30 19,31 20,31 20,32 21,32 22,33 23,33 24,33 24,34 25,34 26,34 27,34 28,34 29,33 30,32 30,31 31,31 31,30 31,29 32,28 32,27 32,26 32,25 32,24 32,23 32,22 31,22 31,21 31,20 30,20 30,19 30,18 29,18 29,17 28,17 27,17 27,16 26,16 25,16 24,16 23,16 22,16 22,17 21,17 21,18 20,18 19,18 19,19 19,20 19,21 18,21 18,22 18,23 18,24 18,25 18,26 18,27 19,27 19,28 19,29 20,29 20,30 21,30 21,31 22,31 23,31 24,31 25,31 26,31 27,31 28,31 29,31 30,30 30,29 30,28 30,27 30,26 30,25 30,24 29,23 29,22 29,21 28,20 28,19 27,19 27,18 27,17 26,17 25,17 24,17 23,17 22,17 22,18 21,19 20,20 20,21 19,21 19,22 19,23 19,24 19,25 20,26 20,27 21,27 21,28 22,28 22,29 23,29 23,30 24,30 25,31 26,32 27,33 28,33 29,33 29,34 28,34 27,34 26,34 26,33 25,32 25,31 25,30 25,29 24,27 24,26 25,25 26,25 27,25 28,25 29,25 30,26 30,27 30,28 30,29 29,29 28,30 27,30 26,30 25,30 24,29 23,29 23,28 23,27 24,26 26,25 27,25 28,25 28,26 28,28 27,28 27,29 25,29 24,29 23,29 22,29 21,29 21,28 20,27 20,26 20,25 21,24 22,24 23,23 24,22 25,22 26,22 26,23 26,24 25,25 24,26 23,26 21,27 20,26 20,25 20,24 20,23 20,22 21,22 22,21 23,21 24,21 25,21 25,22 25,23 25,25 24,25 23,25 22,24 21,23 21,22 21,20 22,19 23,19 24,18 25,18 26,18 27,19 27,20 27,21 27,22 27,23 26,24 25,24 24,24 24,23 24,22 25,21 26,20 27,20 28,20 29,21 29,22 30,24 30,25 30,26 29,27 29,28 27,28 26,27 24,26 24,25 24,24 24,23 25,22 27,22 28,22 29,23 29,24 29,25 29,26 29,27 29,28 28,28 27,28 26,28 25,27 25,26 25,24 26,23 26,22 27,21 28,20 29,20 29,21 29,22 29,23 28,24 27,24 26,24 25,24 24,23 22,22 22,21 21,20 21,19 21,18 22,18 23,18 24,18 25,18 26,19 26,20 26,21 26,22 25,23 25,24 24,25 23,26 23,27 24,27 24,26 25,25 25,24 25,23 24,22 23,21 22,21 21,22 21,23 21,24 21,25 21,26 22,26 23,26 25,25 26,24 26,22 26,21 25,20 24,20 23,20 21,22 20,24 20,27 20,28 21,28 22,28 23,28 25,27 25,26 27,25 27,23 27,22 27,21 27,20 26,20 25,21 24,23 24,24 24,25 24,26 24,28 24,29 24,30" fill="none" stroke="#8aff00" stroke-width="3" stroke-linecap="round" stroke-linejoin="round" opacity="0.95">
    <title>6488 c:2</title>
  </polyline>
</svg>
