<?xml version="1.0" encoding="UTF-8"?>
<svg xmlns="http://www.w3.org/2000/svg" width="85" height="72" viewBox="0 0 85 72">
  <title>molecule img4-m66 c:1 f:1 j:1</title>
  <metadata>{&quot;entityType&quot;:&quot;molecule&quot;,&quot;entityId&quot;:&quot;img4-m66&quot;,&quot;token&quot;:&quot;c:1 f:1 j:1&quot;,&quot;signature&quot;:&quot;c:1 f:1 j:1&quot;,&quot;imageName&quot;:&quot;page-004.jpg&quot;,&quot;imageId&quot;:4,&quot;bounds&quot;:{&quot;x&quot;:749,&quot;y&quot;:2559,&quot;w&quot;:85,&quot;h&quot;:72},&quot;atoms&quot;:[{&quot;id&quot;:4893,&quot;token&quot;:&quot;c:1&quot;,&quot;particle_id&quot;:&quot;img4-m66-p1&quot;,&quot;molecule_id&quot;:&quot;img4-m66&quot;,&quot;atom_order&quot;:1},{&quot;id&quot;:5390,&quot;token&quot;:&quot;f:1&quot;,&quot;particle_id&quot;:&quot;img4-m66-p2&quot;,&quot;molecule_id&quot;:&quot;img4-m66&quot;,&quot;atom_order&quot;:1},{&quot;id&quot;:5433,&quot;token&quot;:&quot;j:1&quot;,&quot;particle_id&quot;:&quot;img4-m66-p2&quot;,&quot;molecule_id&quot;:&quot;img4-m66&quot;,&quot;atom_order&quot;:2}]}</metadata>
  <rect x="0" y="0" width="85" height="72" fill="#f8f0d8"/>
  <image href="file:///C:/Users/HHHES/AppData/Roaming/com.voynichlab.datasetcreator/images/1/aff30327-ced8-4ab4-8c9b-190205ebe022.jpg" x="-749" y="-2559" width="2804" height="3797" opacity="0.92"/>
  <rect x="0.5" y="0.5" width="84" height="71" fill="none" stroke="#111827" stroke-width="1" opacity="0.35"/>
  <polyline points="18,30 18,31 17,31 17,32 17,33 16,33 16,34 16,35 16,36 16,37 16,38 16,39 16,40 17,40 17,41 18,41 18,42 19,43 20,43 21,43 22,43 22,44 23,44 24,44 25,44 26,44 27,44 28,44 29,44 30,44 30,43 31,43 32,43 32,42 32,41 33,41 33,40 34,40 34,39 34,38 35,38 35,37 35,36 36,36 36,35 36,34 36,33 36,32 36,31 36,30 35,30 35,29 35,28 34,28 34,27 33,27 33,26 32,26 32,25 31,25 30,25 30,24 29,24 28,24 27,24 26,24 25,24 24,24 23,24 22,25 21,25 21,26 20,26 20,27 19,27 18,27 18,28 17,28 17,29 17,30" fill="none" stroke="#8aff00" stroke-width="3" stroke-linecap="round" stroke-linejoin="round" opacity="0.95">
    <title>4893 c:1</title>
  </polyline>
  <polyline points="52,26 52,27 52,28 53,28 53,29 53,30 54,30 54,31 55,32 55,33 56,33 56,34 57,35 57,36 58,36 58,37 59,37 59,38 60,38 60,39 60,40 61,40 61,41 61,42 62,42 62,43 63,43 63,44 64,45 64,46 65,46 65,47" fill="none" stroke="#00a2ff" stroke-width="3" stroke-linecap="round" stroke-linejoin="round" opacity="0.95">
    <title>5390 f:1</title>
  </polyline>
  <polyline points="52,27 52,26 53,26 53,25 54,25 54,24 55,24 55,23 56,23 57,22 58,21 59,20 60,20 60,19 61,19 62,18 63,18 63,17 64,17 65,17 66,16 67,16 68,16 69,16 69,17 69,18 69,19 68,19 68,20 68,21 67,23 67,24 66,25 66,26 66,27 65,28 65,29 64,30 63,31 63,32 63,33 62,34 62,35 61,35 61,36 60,37 60,38 59,39 58,40 58,41 57,41 56,42 56,43 55,44 54,44 54,45 53,46 52,47 51,48 50,49 49,50 48,51 48,52 47,52 46,53 45,53 45,54 44,54 44,55 43,55 42,56 41,56" fill="none" stroke="#4a9e6a" stroke-width="3" stroke-linecap="round" stroke-linejoin="round" opacity="0.95">
    <title>5433 j:1</title>
  </polyline>
</svg>
