<?xml version="1.0" encoding="UTF-8"?>
<svg xmlns="http://www.w3.org/2000/svg" width="82" height="62" viewBox="0 0 82 62">
  <title>atom 6384 m:1</title>
  <metadata>{&quot;entityType&quot;:&quot;atom&quot;,&quot;entityId&quot;:&quot;6384&quot;,&quot;token&quot;:&quot;m:1&quot;,&quot;signature&quot;:&quot;m:1&quot;,&quot;imageName&quot;:&quot;page-005.jpg&quot;,&quot;imageId&quot;:5,&quot;bounds&quot;:{&quot;x&quot;:1362,&quot;y&quot;:693,&quot;w&quot;:82,&quot;h&quot;:62},&quot;atoms&quot;:[{&quot;id&quot;:6384,&quot;token&quot;:&quot;m:1&quot;,&quot;particle_id&quot;:&quot;img5-m21-p1&quot;,&quot;molecule_id&quot;:&quot;img5-m21&quot;,&quot;atom_order&quot;:3}]}</metadata>
  <rect x="0" y="0" width="82" height="62" fill="#f8f0d8"/>
  <image href="file:///C:/Users/HHHES/AppData/Roaming/com.voynichlab.datasetcreator/images/1/a6cd3b6e-2a78-4b30-a4be-5d186aea258e.jpg" x="-1362" y="-693" width="2691" height="3770" opacity="0.92"/>
  <rect x="0.5" y="0.5" width="81" height="61" fill="none" stroke="#111827" stroke-width="1" opacity="0.35"/>
  <polyline points="30,46 30,45 30,44 30,43 30,42 30,41 30,40 30,39 30,38 30,37 30,36 30,35 30,34 30,33 30,32 30,31 30,30 30,29 30,28 31,28 31,27 31,26 31,25 31,24 31,23 31,22 30,21 30,20 30,19 30,18 30,17 30,16 29,16 28,16 28,17 27,17 27,18 26,18 26,19 25,20 25,21 24,21 24,22 23,23 23,24 22,24 22,25 21,26 20,27 20,28 19,29 19,30 18,31 18,32 17,32 17,33 17,34 17,35 16,35 16,36 16,37 17,37 18,37 19,37 20,37 21,37 22,37 24,37 25,37 26,37 27,37 28,37 29,37 29,36 30,36 31,36 32,36 33,36 34,36 35,36 36,36 37,36 38,36 39,36 40,36 41,36 42,36 43,36 44,36 45,36 46,36 47,36 48,36 49,36 50,36 51,36 52,36 53,36 54,36 55,36 56,36 57,36 58,36 60,36 61,36 62,36 63,36 64,36 65,36 66,36" fill="none" stroke="#ff00ff" stroke-width="3" stroke-linecap="round" stroke-linejoin="round" opacity="0.95">
    <title>6384 m:1</title>
  </polyline>
</svg>
