<?xml version="1.0" encoding="UTF-8"?>
<svg xmlns="http://www.w3.org/2000/svg" width="65" height="61" viewBox="0 0 65 61">
  <title>atom 6388 m:1</title>
  <metadata>{&quot;entityType&quot;:&quot;atom&quot;,&quot;entityId&quot;:&quot;6388&quot;,&quot;token&quot;:&quot;m:1&quot;,&quot;signature&quot;:&quot;m:1&quot;,&quot;imageName&quot;:&quot;page-005.jpg&quot;,&quot;imageId&quot;:5,&quot;bounds&quot;:{&quot;x&quot;:1342,&quot;y&quot;:855,&quot;w&quot;:65,&quot;h&quot;:61},&quot;atoms&quot;:[{&quot;id&quot;:6388,&quot;token&quot;:&quot;m:1&quot;,&quot;particle_id&quot;:&quot;img5-m42-p2&quot;,&quot;molecule_id&quot;:&quot;img5-m42&quot;,&quot;atom_order&quot;:2}]}</metadata>
  <rect x="0" y="0" width="65" height="61" fill="#f8f0d8"/>
  <image href="file:///C:/Users/HHHES/AppData/Roaming/com.voynichlab.datasetcreator/images/1/a6cd3b6e-2a78-4b30-a4be-5d186aea258e.jpg" x="-1342" y="-855" width="2691" height="3770" opacity="0.92"/>
  <rect x="0.5" y="0.5" width="64" height="60" fill="none" stroke="#111827" stroke-width="1" opacity="0.35"/>
  <polyline points="34,45 34,44 34,43 34,42 34,41 34,40 34,39 34,38 34,37 34,36 34,35 34,34 34,33 34,32 34,31 34,30 34,29 34,27 34,26 35,25 35,24 35,23 35,22 35,21 35,20 35,19 35,18 35,17 35,16 34,16 33,16 32,17 31,18 30,18 29,19 28,20 27,20 27,21 26,21 26,22 25,23 24,23 23,23 23,24 22,24 22,25 21,25 20,25 20,26 19,27 18,27 18,28 18,29 17,29 17,30 16,30 16,31 16,32 17,32 18,32 19,32 20,33 21,33 22,33 23,33 24,33 25,33 26,32 27,32 28,32 29,32 31,32 33,32 36,32 37,32 38,32 39,32 40,32 42,33 45,33 47,33 48,33 49,33" fill="none" stroke="#ff00ff" stroke-width="3" stroke-linecap="round" stroke-linejoin="round" opacity="0.95">
    <title>6388 m:1</title>
  </polyline>
</svg>
