<?xml version="1.0" encoding="UTF-8"?>
<svg xmlns="http://www.w3.org/2000/svg" width="96" height="67" viewBox="0 0 96 67">
  <title>atom 6389 m:1</title>
  <metadata>{&quot;entityType&quot;:&quot;atom&quot;,&quot;entityId&quot;:&quot;6389&quot;,&quot;token&quot;:&quot;m:1&quot;,&quot;signature&quot;:&quot;m:1&quot;,&quot;imageName&quot;:&quot;page-005.jpg&quot;,&quot;imageId&quot;:5,&quot;bounds&quot;:{&quot;x&quot;:925,&quot;y&quot;:2469,&quot;w&quot;:96,&quot;h&quot;:67},&quot;atoms&quot;:[{&quot;id&quot;:6389,&quot;token&quot;:&quot;m:1&quot;,&quot;particle_id&quot;:&quot;img5-m54-p1&quot;,&quot;molecule_id&quot;:&quot;img5-m54&quot;,&quot;atom_order&quot;:2}]}</metadata>
  <rect x="0" y="0" width="96" height="67" fill="#f8f0d8"/>
  <image href="file:///C:/Users/HHHES/AppData/Roaming/com.voynichlab.datasetcreator/images/1/a6cd3b6e-2a78-4b30-a4be-5d186aea258e.jpg" x="-925" y="-2469" width="2691" height="3770" opacity="0.92"/>
  <rect x="0.5" y="0.5" width="95" height="66" fill="none" stroke="#111827" stroke-width="1" opacity="0.35"/>
  <polyline points="45,51 45,50 45,49 45,48 45,47 45,46 45,45 45,44 45,43 45,42 45,41 45,40 45,39 46,39 46,38 46,37 46,36 46,35 46,34 46,33 46,32 46,31 46,30 46,29 46,28 46,27 46,26 46,25 47,24 47,23 47,21 47,20 47,19 47,18 47,17 47,16 46,16 45,16 44,16 43,17 42,17 41,18 40,18 40,19 39,19 38,20 37,20 37,21 35,21 34,22 32,23 31,23 28,24 27,24 26,25 25,25 24,25 24,26 23,27 22,27 21,27 20,27 20,28 19,28 18,28 18,29 17,29 17,30 16,30 16,31 17,31 18,31 19,31 20,31 21,31 23,31 24,31 25,31 26,31 28,31 30,31 32,30 33,30 35,30 37,30 40,30 43,29 44,29 45,29 47,29 49,29 52,29 53,29 54,29 55,29 56,28 57,28 59,28 61,28 63,28 64,28 65,28 66,28 67,28 68,28 69,27 71,27 74,27 75,27 76,27 77,27 78,26 79,26 80,26" fill="none" stroke="#ff00ff" stroke-width="3" stroke-linecap="round" stroke-linejoin="round" opacity="0.95">
    <title>6389 m:1</title>
  </polyline>
</svg>
