<?xml version="1.0" encoding="UTF-8"?>
<svg xmlns="http://www.w3.org/2000/svg" width="85" height="71" viewBox="0 0 85 71">
  <title>atom 6392 m:1</title>
  <metadata>{&quot;entityType&quot;:&quot;atom&quot;,&quot;entityId&quot;:&quot;6392&quot;,&quot;token&quot;:&quot;m:1&quot;,&quot;signature&quot;:&quot;m:1&quot;,&quot;imageName&quot;:&quot;page-005.jpg&quot;,&quot;imageId&quot;:5,&quot;bounds&quot;:{&quot;x&quot;:447,&quot;y&quot;:2621,&quot;w&quot;:85,&quot;h&quot;:71},&quot;atoms&quot;:[{&quot;id&quot;:6392,&quot;token&quot;:&quot;m:1&quot;,&quot;particle_id&quot;:&quot;img5-m72-p1&quot;,&quot;molecule_id&quot;:&quot;img5-m72&quot;,&quot;atom_order&quot;:1}]}</metadata>
  <rect x="0" y="0" width="85" height="71" fill="#f8f0d8"/>
  <image href="file:///C:/Users/HHHES/AppData/Roaming/com.voynichlab.datasetcreator/images/1/a6cd3b6e-2a78-4b30-a4be-5d186aea258e.jpg" x="-447" y="-2621" width="2691" height="3770" opacity="0.92"/>
  <rect x="0.5" y="0.5" width="84" height="70" fill="none" stroke="#111827" stroke-width="1" opacity="0.35"/>
  <polyline points="40,55 40,54 40,53 40,52 40,51 40,50 40,49 40,48 40,47 40,46 40,45 40,44 40,43 40,42 40,41 40,40 40,39 40,38 40,37 40,36 40,35 40,34 40,33 40,32 40,31 40,30 41,30 41,29 41,28 41,27 41,26 41,25 41,24 41,23 41,22 41,21 41,20 41,19 41,18 41,17 40,17 40,16 39,16 38,16 37,16 36,16 36,17 35,17 34,18 33,18 31,19 30,20 30,21 29,21 28,22 27,23 26,24 25,25 24,26 23,27 22,28 21,29 21,30 20,30 20,31 19,31 19,32 19,33 18,33 18,34 17,35 17,36 17,37 16,38 16,39 17,39 17,38 18,38 19,38 21,38 22,38 23,38 24,38 25,38 26,38 28,37 29,37 30,37 31,37 32,37 33,37 34,37 35,37 36,38 37,38 38,38 39,38 40,38 41,38 42,38 43,38 44,38 45,38 46,38 47,38 48,38 48,37 49,37 50,37 51,37 52,37 53,36 54,36 55,36 56,36 57,36 57,35 58,35 58,34 59,34 60,34 61,34 61,33 62,33 63,32 64,32 65,32 65,31 66,31 67,31 67,30 68,30 68,29 69,29" fill="none" stroke="#ff00ff" stroke-width="3" stroke-linecap="round" stroke-linejoin="round" opacity="0.95">
    <title>6392 m:1</title>
  </polyline>
</svg>
