<?xml version="1.0" encoding="UTF-8"?>
<svg xmlns="http://www.w3.org/2000/svg" width="49" height="49" viewBox="0 0 49 49">
  <title>c:2 distant-variant atom 4162</title>
  <rect x="0" y="0" width="49" height="49" fill="#17181b"/>
  <rect x="0.5" y="0.5" width="48" height="48" fill="none" stroke="#111827" stroke-width="1" opacity="0.35"/>
<polyline points="23,18 22,18 21,18 21,19 20,19 20,20 19,20 19,21 18,21 18,22 18,23 17,23 17,24 16,25 16,26 16,27 16,28 16,29 16,30 17,30 17,31 18,31 18,32 19,32 20,32 21,32 22,33 23,33 24,33 25,33 26,33 27,33 28,33 28,32 29,32 29,31 30,31 30,30 31,30 31,29 32,29 32,28 32,27 33,26 33,25 33,24 33,23 33,22 33,21 33,20 33,19 32,18 31,18 31,17 30,17 30,16 29,16 28,16 27,16 26,16 25,16 24,16 24,17 23,17 23,18 22,18 22,19 21,19 21,20 20,20 20,21 19,22 19,23 19,24 19,25 19,26 19,27 19,28 19,29 20,29 20,30 21,30 22,30 23,30 24,30 25,31 26,31 27,31 28,31 29,30 29,29 30,29 30,28 30,27 30,26 30,25 31,24 31,23 31,22 31,21 31,20 30,19 29,18 28,18 28,17 27,17 26,17 25,17 24,17 24,18 23,18 23,19 22,20 21,21 21,22 20,22 20,23 19,23 19,24 18,25 18,26 17,27 17,28 18,28 18,29 19,29 19,30 20,30 20,31 21,31 22,31 23,31 24,31 25,31 26,30 27,30 28,29 29,29 29,28 29,27 30,26 30,25 30,24 30,23 29,22 29,21 29,20 28,20 28,19 27,19 27,18 26,18 25,18 24,18 24,19 23,19 23,20 22,21 21,22 20,23 20,24 20,25 19,25 19,26 20,27 21,27 22,28 23,28 24,28 25,28 26,28 27,28 28,27 28,26 28,25 28,24 28,23 27,22 26,21 26,20 25,20 24,20 23,20 23,21 22,21 21,22 21,23 21,24 20,24 20,25 21,26 21,27 22,28 23,28 24,28 25,27 26,26 27,25 27,24 27,23 28,23 28,22 27,22 26,22 25,22 24,22 23,22 23,23 22,23 21,25 21,26 21,27 22,27 24,27 25,26 26,26 26,25 27,24 27,23 26,23 25,23 23,23 22,24 21,25 21,26 21,27 22,28 23,28 24,28 26,27 26,26 26,25 27,25 26,24 25,24 24,25 23,26 23,27 23,28 24,28 25,27 25,26 24,26 24,27 24,28 24,27 23,27 22,27 22,28 22,29 23,29 24,29 25,29 26,29 27,29 29,28 30,27 31,25 31,24 31,23 31,22 30,22 30,21 29,21 28,21 27,21 26,21 25,22 24,23 24,24 24,25 24,27 24,28 25,28 27,28 29,27 30,26 31,25 31,23 31,22 31,21 31,20 30,19 29,19 28,18 27,18 25,18 24,18 23,18 22,18 21,19 20,20 20,22 20,23 20,24 21,25 22,25 24,25 26,25 26,24 27,24 27,23 28,22 28,21 29,20 29,19 28,18 27,18 26,18 26,19 26,20 26,21 27,21 28,21 29,21 30,20 31,20 31,19 31,18 30,18 29,18 28,19 27,19 27,21 26,21 26,22 26,23 25,23 25,24 25,25 24,26 24,27 23,27 23,28 22,28 22,29 22,30 21,30 21,31 22,31 23,31 24,31 25,31" fill="none" stroke="#8aff00" stroke-width="3" stroke-linecap="round" stroke-linejoin="round" opacity="0.95">
    <title>4162 c:2</title>
  </polyline>
</svg>
