<?xml version="1.0" encoding="UTF-8"?>
<svg xmlns="http://www.w3.org/2000/svg" width="75" height="34" viewBox="0 0 75 34">
  <title>atom 2636 g:1</title>
  <metadata>{&quot;entityType&quot;:&quot;atom&quot;,&quot;entityId&quot;:&quot;2636&quot;,&quot;token&quot;:&quot;g:1&quot;,&quot;signature&quot;:&quot;g:1&quot;,&quot;imageName&quot;:&quot;page-094.jpg&quot;,&quot;imageId&quot;:94,&quot;bounds&quot;:{&quot;x&quot;:1071,&quot;y&quot;:551,&quot;w&quot;:75,&quot;h&quot;:34},&quot;atoms&quot;:[{&quot;id&quot;:2636,&quot;token&quot;:&quot;g:1&quot;,&quot;particle_id&quot;:&quot;img94-m6-p1&quot;,&quot;molecule_id&quot;:&quot;img94-m6&quot;,&quot;atom_order&quot;:2}]}</metadata>
  <rect x="0" y="0" width="75" height="34" fill="#f8f0d8"/>
  <image href="file:///C:/Users/HHHES/AppData/Roaming/com.voynichlab.datasetcreator/images/1/33b1988f-7aaa-4207-bfa8-f26b742ac4b1.jpg" x="-1071" y="-551" width="2932" height="3769" opacity="0.92"/>
  <rect x="0.5" y="0.5" width="74" height="33" fill="none" stroke="#111827" stroke-width="1" opacity="0.35"/>
  <polyline points="16,18 17,18 18,18 19,18 20,18 21,18 22,18 23,18 24,18 25,18 26,18 27,18 28,18 29,18 30,18 31,18 32,18 33,18 34,18 35,18 36,18 37,18 38,18 39,18 40,18 41,18 42,18 43,18 44,18 44,17 45,17 46,17 47,17 48,17 49,17 50,17 51,17 52,17 53,17 54,17 55,17 56,17 57,17 58,17 59,17 59,16" fill="none" stroke="#7c3cff" stroke-width="3" stroke-linecap="round" stroke-linejoin="round" opacity="0.95">
    <title>2636 g:1</title>
  </polyline>
</svg>
