<?xml version="1.0" encoding="UTF-8"?>
<svg xmlns="http://www.w3.org/2000/svg" width="67" height="33" viewBox="0 0 67 33">
  <title>atom 2731 g:1</title>
  <metadata>{&quot;entityType&quot;:&quot;atom&quot;,&quot;entityId&quot;:&quot;2731&quot;,&quot;token&quot;:&quot;g:1&quot;,&quot;signature&quot;:&quot;g:1&quot;,&quot;imageName&quot;:&quot;page-094.jpg&quot;,&quot;imageId&quot;:94,&quot;bounds&quot;:{&quot;x&quot;:1429,&quot;y&quot;:626,&quot;w&quot;:67,&quot;h&quot;:33},&quot;atoms&quot;:[{&quot;id&quot;:2731,&quot;token&quot;:&quot;g:1&quot;,&quot;particle_id&quot;:&quot;img94-m10-p3&quot;,&quot;molecule_id&quot;:&quot;img94-m10&quot;,&quot;atom_order&quot;:2}]}</metadata>
  <rect x="0" y="0" width="67" height="33" fill="#f8f0d8"/>
  <image href="file:///C:/Users/HHHES/AppData/Roaming/com.voynichlab.datasetcreator/images/1/33b1988f-7aaa-4207-bfa8-f26b742ac4b1.jpg" x="-1429" y="-626" width="2932" height="3769" opacity="0.92"/>
  <rect x="0.5" y="0.5" width="66" height="32" fill="none" stroke="#111827" stroke-width="1" opacity="0.35"/>
  <polyline points="16,17 17,17 18,17 19,17 20,17 21,17 22,17 23,17 24,17 25,17 26,17 27,17 28,17 29,17 30,17 31,17 32,17 33,17 34,17 35,17 36,17 37,17 38,17 39,17 40,17 41,17 42,17 43,17 43,16 44,16 45,16 46,16 47,16 48,16 49,16 50,16 51,16" fill="none" stroke="#7c3cff" stroke-width="3" stroke-linecap="round" stroke-linejoin="round" opacity="0.95">
    <title>2731 g:1</title>
  </polyline>
</svg>
