<?xml version="1.0" encoding="UTF-8"?>
<svg xmlns="http://www.w3.org/2000/svg" width="69" height="34" viewBox="0 0 69 34">
  <title>atom 2780 g:1</title>
  <metadata>{&quot;entityType&quot;:&quot;atom&quot;,&quot;entityId&quot;:&quot;2780&quot;,&quot;token&quot;:&quot;g:1&quot;,&quot;signature&quot;:&quot;g:1&quot;,&quot;imageName&quot;:&quot;page-094.jpg&quot;,&quot;imageId&quot;:94,&quot;bounds&quot;:{&quot;x&quot;:1935,&quot;y&quot;:729,&quot;w&quot;:69,&quot;h&quot;:34},&quot;atoms&quot;:[{&quot;id&quot;:2780,&quot;token&quot;:&quot;g:1&quot;,&quot;particle_id&quot;:&quot;img94-m17-p3&quot;,&quot;molecule_id&quot;:&quot;img94-m17&quot;,&quot;atom_order&quot;:2}]}</metadata>
  <rect x="0" y="0" width="69" height="34" fill="#f8f0d8"/>
  <image href="file:///C:/Users/HHHES/AppData/Roaming/com.voynichlab.datasetcreator/images/1/33b1988f-7aaa-4207-bfa8-f26b742ac4b1.jpg" x="-1935" y="-729" width="2932" height="3769" opacity="0.92"/>
  <rect x="0.5" y="0.5" width="68" height="33" fill="none" stroke="#111827" stroke-width="1" opacity="0.35"/>
  <polyline points="16,16 17,16 17,17 18,17 19,17 20,17 21,17 22,17 23,17 24,17 25,17 26,17 27,17 28,17 29,17 31,17 33,17 34,17 35,17 35,18 36,18 37,18 38,18 39,18 40,18 41,18 42,18 43,18 44,18 45,18 46,18 47,18 48,18 49,18 50,18 51,18 52,18 53,18" fill="none" stroke="#7c3cff" stroke-width="3" stroke-linecap="round" stroke-linejoin="round" opacity="0.95">
    <title>2780 g:1</title>
  </polyline>
</svg>
