<?xml version="1.0" encoding="UTF-8"?>
<svg xmlns="http://www.w3.org/2000/svg" width="79" height="33" viewBox="0 0 79 33">
  <title>atom 2782 g:1</title>
  <metadata>{&quot;entityType&quot;:&quot;atom&quot;,&quot;entityId&quot;:&quot;2782&quot;,&quot;token&quot;:&quot;g:1&quot;,&quot;signature&quot;:&quot;g:1&quot;,&quot;imageName&quot;:&quot;page-094.jpg&quot;,&quot;imageId&quot;:94,&quot;bounds&quot;:{&quot;x&quot;:1656,&quot;y&quot;:712,&quot;w&quot;:79,&quot;h&quot;:33},&quot;atoms&quot;:[{&quot;id&quot;:2782,&quot;token&quot;:&quot;g:1&quot;,&quot;particle_id&quot;:&quot;img94-m16-p3&quot;,&quot;molecule_id&quot;:&quot;img94-m16&quot;,&quot;atom_order&quot;:2}]}</metadata>
  <rect x="0" y="0" width="79" height="33" fill="#f8f0d8"/>
  <image href="file:///C:/Users/HHHES/AppData/Roaming/com.voynichlab.datasetcreator/images/1/33b1988f-7aaa-4207-bfa8-f26b742ac4b1.jpg" x="-1656" y="-712" width="2932" height="3769" opacity="0.92"/>
  <rect x="0.5" y="0.5" width="78" height="32" fill="none" stroke="#111827" stroke-width="1" opacity="0.35"/>
  <polyline points="16,16 17,16 18,16 19,16 20,16 21,16 22,16 23,16 24,16 25,16 26,16 27,16 28,16 29,16 30,16 31,16 32,16 33,16 34,16 35,16 36,16 37,16 38,16 39,16 40,16 41,16 42,16 43,16 44,16 45,16 46,16 47,16 48,16 49,16 50,16 51,16 52,16 53,16 54,16 55,16 56,16 57,16 58,16 59,16 60,16 61,16 62,16 63,16" fill="none" stroke="#7c3cff" stroke-width="3" stroke-linecap="round" stroke-linejoin="round" opacity="0.95">
    <title>2782 g:1</title>
  </polyline>
</svg>
