<?xml version="1.0" encoding="UTF-8"?>
<svg xmlns="http://www.w3.org/2000/svg" width="82" height="35" viewBox="0 0 82 35">
  <title>atom 2888 g:1</title>
  <metadata>{&quot;entityType&quot;:&quot;atom&quot;,&quot;entityId&quot;:&quot;2888&quot;,&quot;token&quot;:&quot;g:1&quot;,&quot;signature&quot;:&quot;g:1&quot;,&quot;imageName&quot;:&quot;page-094.jpg&quot;,&quot;imageId&quot;:94,&quot;bounds&quot;:{&quot;x&quot;:1064,&quot;y&quot;:814,&quot;w&quot;:82,&quot;h&quot;:35},&quot;atoms&quot;:[{&quot;id&quot;:2888,&quot;token&quot;:&quot;g:1&quot;,&quot;particle_id&quot;:&quot;img94-m27-p2&quot;,&quot;molecule_id&quot;:&quot;img94-m27&quot;,&quot;atom_order&quot;:2}]}</metadata>
  <rect x="0" y="0" width="82" height="35" fill="#f8f0d8"/>
  <image href="file:///C:/Users/HHHES/AppData/Roaming/com.voynichlab.datasetcreator/images/1/33b1988f-7aaa-4207-bfa8-f26b742ac4b1.jpg" x="-1064" y="-814" width="2932" height="3769" opacity="0.92"/>
  <rect x="0.5" y="0.5" width="81" height="34" fill="none" stroke="#111827" stroke-width="1" opacity="0.35"/>
  <polyline points="16,19 17,19 18,19 19,19 20,19 21,19 22,19 23,19 24,19 25,19 26,19 27,19 28,19 29,19 30,19 31,19 32,19 33,19 34,19 35,19 36,19 37,19 38,19 39,19 40,19 41,18 42,18 43,18 44,18 45,18 46,18 47,18 48,18 49,18 50,18 51,18 52,18 53,18 54,17 55,17 56,17 57,17 58,17 59,17 60,17 61,17 61,16 62,16 63,16 64,16 65,16 66,16" fill="none" stroke="#7c3cff" stroke-width="3" stroke-linecap="round" stroke-linejoin="round" opacity="0.95">
    <title>2888 g:1</title>
  </polyline>
</svg>
