<?xml version="1.0" encoding="UTF-8"?>
<svg xmlns="http://www.w3.org/2000/svg" width="118" height="36" viewBox="0 0 118 36">
  <title>atom 2892 g:1</title>
  <metadata>{&quot;entityType&quot;:&quot;atom&quot;,&quot;entityId&quot;:&quot;2892&quot;,&quot;token&quot;:&quot;g:1&quot;,&quot;signature&quot;:&quot;g:1&quot;,&quot;imageName&quot;:&quot;page-094.jpg&quot;,&quot;imageId&quot;:94,&quot;bounds&quot;:{&quot;x&quot;:2058,&quot;y&quot;:828,&quot;w&quot;:118,&quot;h&quot;:36},&quot;atoms&quot;:[{&quot;id&quot;:2892,&quot;token&quot;:&quot;g:1&quot;,&quot;particle_id&quot;:&quot;img94-m23-p1&quot;,&quot;molecule_id&quot;:&quot;img94-m23&quot;,&quot;atom_order&quot;:7}]}</metadata>
  <rect x="0" y="0" width="118" height="36" fill="#f8f0d8"/>
  <image href="file:///C:/Users/HHHES/AppData/Roaming/com.voynichlab.datasetcreator/images/1/33b1988f-7aaa-4207-bfa8-f26b742ac4b1.jpg" x="-2058" y="-828" width="2932" height="3769" opacity="0.92"/>
  <rect x="0.5" y="0.5" width="117" height="35" fill="none" stroke="#111827" stroke-width="1" opacity="0.35"/>
  <polyline points="16,16 17,16 18,16 19,16 20,16 21,17 22,17 23,17 24,17 25,17 26,17 27,17 28,18 29,18 30,18 31,18 32,18 33,18 34,18 35,18 36,18 37,18 38,19 39,19 40,19 41,19 42,19 43,19 44,19 45,19 46,19 47,19 48,19 49,19 49,20 50,20 51,20 52,20 53,20 54,20 55,20 56,20 57,20 58,20 59,20 60,20 61,20 62,20 63,20 64,20 65,20 66,20 67,20 68,20 69,20 70,20 71,20 72,20 73,20 74,20 75,20 76,20 77,20 78,20 79,20 80,20 81,20 82,20 83,20 84,20 85,20 86,20 87,20 88,20 89,20 90,20 91,20 92,20 93,20 94,20 95,20 96,20 97,20 98,20 99,20 100,20 101,20 102,20" fill="none" stroke="#7c3cff" stroke-width="3" stroke-linecap="round" stroke-linejoin="round" opacity="0.95">
    <title>2892 g:1</title>
  </polyline>
</svg>
