<?xml version="1.0" encoding="UTF-8"?>
<svg xmlns="http://www.w3.org/2000/svg" width="74" height="38" viewBox="0 0 74 38">
  <title>atom 3002 g:1</title>
  <metadata>{&quot;entityType&quot;:&quot;atom&quot;,&quot;entityId&quot;:&quot;3002&quot;,&quot;token&quot;:&quot;g:1&quot;,&quot;signature&quot;:&quot;g:1&quot;,&quot;imageName&quot;:&quot;page-094.jpg&quot;,&quot;imageId&quot;:94,&quot;bounds&quot;:{&quot;x&quot;:1998,&quot;y&quot;:972,&quot;w&quot;:74,&quot;h&quot;:38},&quot;atoms&quot;:[{&quot;id&quot;:3002,&quot;token&quot;:&quot;g:1&quot;,&quot;particle_id&quot;:&quot;img94-m37-p1&quot;,&quot;molecule_id&quot;:&quot;img94-m37&quot;,&quot;atom_order&quot;:2}]}</metadata>
  <rect x="0" y="0" width="74" height="38" fill="#f8f0d8"/>
  <image href="file:///C:/Users/HHHES/AppData/Roaming/com.voynichlab.datasetcreator/images/1/33b1988f-7aaa-4207-bfa8-f26b742ac4b1.jpg" x="-1998" y="-972" width="2932" height="3769" opacity="0.92"/>
  <rect x="0.5" y="0.5" width="73" height="37" fill="none" stroke="#111827" stroke-width="1" opacity="0.35"/>
  <polyline points="16,16 17,16 18,16 18,17 19,17 20,17 21,17 22,17 23,17 23,18 24,18 25,18 26,18 27,18 28,18 29,18 29,19 30,19 31,19 32,19 33,19 34,19 35,19 36,20 37,20 38,20 39,20 40,20 41,20 42,20 43,20 44,20 44,21 45,21 46,21 47,21 48,21 49,21 50,21 51,21 52,21 53,21 54,21 55,21 56,21 56,22 57,22 58,22" fill="none" stroke="#7c3cff" stroke-width="3" stroke-linecap="round" stroke-linejoin="round" opacity="0.95">
    <title>3002 g:1</title>
  </polyline>
</svg>
