<?xml version="1.0" encoding="UTF-8"?>
<svg xmlns="http://www.w3.org/2000/svg" width="79" height="37" viewBox="0 0 79 37">
  <title>atom 4345 g:1</title>
  <metadata>{&quot;entityType&quot;:&quot;atom&quot;,&quot;entityId&quot;:&quot;4345&quot;,&quot;token&quot;:&quot;g:1&quot;,&quot;signature&quot;:&quot;g:1&quot;,&quot;imageName&quot;:&quot;page-094.jpg&quot;,&quot;imageId&quot;:94,&quot;bounds&quot;:{&quot;x&quot;:877,&quot;y&quot;:2629,&quot;w&quot;:79,&quot;h&quot;:37},&quot;atoms&quot;:[{&quot;id&quot;:4345,&quot;token&quot;:&quot;g:1&quot;,&quot;particle_id&quot;:&quot;img94-m53-p3&quot;,&quot;molecule_id&quot;:&quot;img94-m53&quot;,&quot;atom_order&quot;:2}]}</metadata>
  <rect x="0" y="0" width="79" height="37" fill="#f8f0d8"/>
  <image href="file:///C:/Users/HHHES/AppData/Roaming/com.voynichlab.datasetcreator/images/1/33b1988f-7aaa-4207-bfa8-f26b742ac4b1.jpg" x="-877" y="-2629" width="2932" height="3769" opacity="0.92"/>
  <rect x="0.5" y="0.5" width="78" height="36" fill="none" stroke="#111827" stroke-width="1" opacity="0.35"/>
  <polyline points="16,21 17,21 18,21 19,21 20,21 21,21 22,21 23,21 24,21 25,21 26,21 27,21 28,21 29,20 30,20 31,20 32,20 33,20 34,20 35,20 36,20 37,20 38,20 39,20 39,19 40,19 41,19 42,19 44,19 45,19 45,18 46,18 47,18 48,18 49,18 50,18 51,18 52,18 53,17 55,17 56,17 57,17 58,17 59,17 60,17 61,16 62,16 63,16" fill="none" stroke="#7c3cff" stroke-width="3" stroke-linecap="round" stroke-linejoin="round" opacity="0.95">
    <title>4345 g:1</title>
  </polyline>
</svg>
