<?xml version="1.0" encoding="UTF-8"?>
<svg xmlns="http://www.w3.org/2000/svg" width="81" height="34" viewBox="0 0 81 34">
  <title>atom 4370 g:1</title>
  <metadata>{&quot;entityType&quot;:&quot;atom&quot;,&quot;entityId&quot;:&quot;4370&quot;,&quot;token&quot;:&quot;g:1&quot;,&quot;signature&quot;:&quot;g:1&quot;,&quot;imageName&quot;:&quot;page-094.jpg&quot;,&quot;imageId&quot;:94,&quot;bounds&quot;:{&quot;x&quot;:1448,&quot;y&quot;:2595,&quot;w&quot;:81,&quot;h&quot;:34},&quot;atoms&quot;:[{&quot;id&quot;:4370,&quot;token&quot;:&quot;g:1&quot;,&quot;particle_id&quot;:&quot;img94-m49-p1&quot;,&quot;molecule_id&quot;:&quot;img94-m49&quot;,&quot;atom_order&quot;:2}]}</metadata>
  <rect x="0" y="0" width="81" height="34" fill="#f8f0d8"/>
  <image href="file:///C:/Users/HHHES/AppData/Roaming/com.voynichlab.datasetcreator/images/1/33b1988f-7aaa-4207-bfa8-f26b742ac4b1.jpg" x="-1448" y="-2595" width="2932" height="3769" opacity="0.92"/>
  <rect x="0.5" y="0.5" width="80" height="33" fill="none" stroke="#111827" stroke-width="1" opacity="0.35"/>
  <polyline points="16,17 17,17 18,17 19,17 20,17 21,17 23,17 25,17 28,17 31,17 33,17 34,17 35,17 36,16 38,16 40,16 41,16 42,16 43,16 45,16 46,16 47,16 48,16 49,16 50,16 51,16 52,16 53,16 55,16 57,17 58,17 59,17 60,17 61,17 62,17 63,17 64,17 65,17 64,18" fill="none" stroke="#7c3cff" stroke-width="3" stroke-linecap="round" stroke-linejoin="round" opacity="0.95">
    <title>4370 g:1</title>
  </polyline>
</svg>
