<?xml version="1.0" encoding="UTF-8"?>
<svg xmlns="http://www.w3.org/2000/svg" width="85" height="35" viewBox="0 0 85 35">
  <title>atom 4466 g:1</title>
  <metadata>{&quot;entityType&quot;:&quot;atom&quot;,&quot;entityId&quot;:&quot;4466&quot;,&quot;token&quot;:&quot;g:1&quot;,&quot;signature&quot;:&quot;g:1&quot;,&quot;imageName&quot;:&quot;page-094.jpg&quot;,&quot;imageId&quot;:94,&quot;bounds&quot;:{&quot;x&quot;:2086,&quot;y&quot;:2662,&quot;w&quot;:85,&quot;h&quot;:35},&quot;atoms&quot;:[{&quot;id&quot;:4466,&quot;token&quot;:&quot;g:1&quot;,&quot;particle_id&quot;:&quot;img94-m55-p1&quot;,&quot;molecule_id&quot;:&quot;img94-m55&quot;,&quot;atom_order&quot;:2}]}</metadata>
  <rect x="0" y="0" width="85" height="35" fill="#f8f0d8"/>
  <image href="file:///C:/Users/HHHES/AppData/Roaming/com.voynichlab.datasetcreator/images/1/33b1988f-7aaa-4207-bfa8-f26b742ac4b1.jpg" x="-2086" y="-2662" width="2932" height="3769" opacity="0.92"/>
  <rect x="0.5" y="0.5" width="84" height="34" fill="none" stroke="#111827" stroke-width="1" opacity="0.35"/>
  <polyline points="16,19 17,19 18,19 19,19 20,19 21,19 22,19 23,18 24,18 25,18 26,18 28,18 29,17 31,17 33,17 34,17 36,17 37,17 38,17 40,17 42,17 43,16 44,16 46,16 47,16 48,16 49,16 50,16 51,16 52,16 53,16 54,17 55,17 56,17 57,17 58,17 59,17 61,17 61,18 62,18 63,18 65,18 66,19 67,19 68,19 69,19" fill="none" stroke="#7c3cff" stroke-width="3" stroke-linecap="round" stroke-linejoin="round" opacity="0.95">
    <title>4466 g:1</title>
  </polyline>
</svg>
