<?xml version="1.0" encoding="UTF-8"?>
<svg xmlns="http://www.w3.org/2000/svg" width="78" height="39" viewBox="0 0 78 39">
  <title>atom 4469 g:1</title>
  <metadata>{&quot;entityType&quot;:&quot;atom&quot;,&quot;entityId&quot;:&quot;4469&quot;,&quot;token&quot;:&quot;g:1&quot;,&quot;signature&quot;:&quot;g:1&quot;,&quot;imageName&quot;:&quot;page-094.jpg&quot;,&quot;imageId&quot;:94,&quot;bounds&quot;:{&quot;x&quot;:1566,&quot;y&quot;:2766,&quot;w&quot;:78,&quot;h&quot;:39},&quot;atoms&quot;:[{&quot;id&quot;:4469,&quot;token&quot;:&quot;g:1&quot;,&quot;particle_id&quot;:&quot;img94-m63-p1&quot;,&quot;molecule_id&quot;:&quot;img94-m63&quot;,&quot;atom_order&quot;:2}]}</metadata>
  <rect x="0" y="0" width="78" height="39" fill="#f8f0d8"/>
  <image href="file:///C:/Users/HHHES/AppData/Roaming/com.voynichlab.datasetcreator/images/1/33b1988f-7aaa-4207-bfa8-f26b742ac4b1.jpg" x="-1566" y="-2766" width="2932" height="3769" opacity="0.92"/>
  <rect x="0.5" y="0.5" width="77" height="38" fill="none" stroke="#111827" stroke-width="1" opacity="0.35"/>
  <polyline points="16,23 17,23 18,23 19,22 20,22 21,22 22,22 23,21 24,21 26,21 28,21 31,21 33,20 35,20 36,20 37,19 39,19 42,19 44,19 46,18 47,18 48,18 49,18 51,18 53,17 54,17 55,17 56,17 58,17 59,17 60,17 60,16 61,16 62,16" fill="none" stroke="#7c3cff" stroke-width="3" stroke-linecap="round" stroke-linejoin="round" opacity="0.95">
    <title>4469 g:1</title>
  </polyline>
</svg>
