<?xml version="1.0" encoding="UTF-8"?>
<svg xmlns="http://www.w3.org/2000/svg" width="74" height="35" viewBox="0 0 74 35">
  <title>atom 4473 g:1</title>
  <metadata>{&quot;entityType&quot;:&quot;atom&quot;,&quot;entityId&quot;:&quot;4473&quot;,&quot;token&quot;:&quot;g:1&quot;,&quot;signature&quot;:&quot;g:1&quot;,&quot;imageName&quot;:&quot;page-094.jpg&quot;,&quot;imageId&quot;:94,&quot;bounds&quot;:{&quot;x&quot;:918,&quot;y&quot;:2883,&quot;w&quot;:74,&quot;h&quot;:35},&quot;atoms&quot;:[{&quot;id&quot;:4473,&quot;token&quot;:&quot;g:1&quot;,&quot;particle_id&quot;:&quot;img94-m75-p1&quot;,&quot;molecule_id&quot;:&quot;img94-m75&quot;,&quot;atom_order&quot;:2}]}</metadata>
  <rect x="0" y="0" width="74" height="35" fill="#f8f0d8"/>
  <image href="file:///C:/Users/HHHES/AppData/Roaming/com.voynichlab.datasetcreator/images/1/33b1988f-7aaa-4207-bfa8-f26b742ac4b1.jpg" x="-918" y="-2883" width="2932" height="3769" opacity="0.92"/>
  <rect x="0.5" y="0.5" width="73" height="34" fill="none" stroke="#111827" stroke-width="1" opacity="0.35"/>
  <polyline points="16,19 17,19 19,19 21,19 23,19 24,19 25,19 27,19 30,18 32,18 34,18 35,18 37,17 38,17 39,17 40,17 42,17 43,17 44,17 45,17 46,17 47,17 48,17 49,17 50,17 51,17 52,17 53,17 54,17 55,16 56,16 57,16 58,16" fill="none" stroke="#7c3cff" stroke-width="3" stroke-linecap="round" stroke-linejoin="round" opacity="0.95">
    <title>4473 g:1</title>
  </polyline>
</svg>
