<?xml version="1.0" encoding="UTF-8"?>
<svg xmlns="http://www.w3.org/2000/svg" width="74" height="34" viewBox="0 0 74 34">
  <title>atom 4476 g:1</title>
  <metadata>{&quot;entityType&quot;:&quot;atom&quot;,&quot;entityId&quot;:&quot;4476&quot;,&quot;token&quot;:&quot;g:1&quot;,&quot;signature&quot;:&quot;g:1&quot;,&quot;imageName&quot;:&quot;page-094.jpg&quot;,&quot;imageId&quot;:94,&quot;bounds&quot;:{&quot;x&quot;:1558,&quot;y&quot;:2847,&quot;w&quot;:74,&quot;h&quot;:34},&quot;atoms&quot;:[{&quot;id&quot;:4476,&quot;token&quot;:&quot;g:1&quot;,&quot;particle_id&quot;:&quot;img94-m71-p1&quot;,&quot;molecule_id&quot;:&quot;img94-m71&quot;,&quot;atom_order&quot;:2}]}</metadata>
  <rect x="0" y="0" width="74" height="34" fill="#f8f0d8"/>
  <image href="file:///C:/Users/HHHES/AppData/Roaming/com.voynichlab.datasetcreator/images/1/33b1988f-7aaa-4207-bfa8-f26b742ac4b1.jpg" x="-1558" y="-2847" width="2932" height="3769" opacity="0.92"/>
  <rect x="0.5" y="0.5" width="73" height="33" fill="none" stroke="#111827" stroke-width="1" opacity="0.35"/>
  <polyline points="16,18 17,18 18,18 19,18 20,17 21,17 23,17 24,17 25,17 26,17 27,16 29,16 31,16 33,16 34,16 35,16 36,16 38,16 41,16 43,16 45,16 46,16 47,16 48,16 50,16 51,16 52,16 55,16 56,16 57,16 58,16" fill="none" stroke="#7c3cff" stroke-width="3" stroke-linecap="round" stroke-linejoin="round" opacity="0.95">
    <title>4476 g:1</title>
  </polyline>
</svg>
