<?xml version="1.0" encoding="UTF-8"?>
<svg xmlns="http://www.w3.org/2000/svg" width="94" height="38" viewBox="0 0 94 38">
  <title>atom 4477 g:1</title>
  <metadata>{&quot;entityType&quot;:&quot;atom&quot;,&quot;entityId&quot;:&quot;4477&quot;,&quot;token&quot;:&quot;g:1&quot;,&quot;signature&quot;:&quot;g:1&quot;,&quot;imageName&quot;:&quot;page-094.jpg&quot;,&quot;imageId&quot;:94,&quot;bounds&quot;:{&quot;x&quot;:1925,&quot;y&quot;:2828,&quot;w&quot;:94,&quot;h&quot;:38},&quot;atoms&quot;:[{&quot;id&quot;:4477,&quot;token&quot;:&quot;g:1&quot;,&quot;particle_id&quot;:&quot;img94-m69-p1&quot;,&quot;molecule_id&quot;:&quot;img94-m69&quot;,&quot;atom_order&quot;:2}]}</metadata>
  <rect x="0" y="0" width="94" height="38" fill="#f8f0d8"/>
  <image href="file:///C:/Users/HHHES/AppData/Roaming/com.voynichlab.datasetcreator/images/1/33b1988f-7aaa-4207-bfa8-f26b742ac4b1.jpg" x="-1925" y="-2828" width="2932" height="3769" opacity="0.92"/>
  <rect x="0.5" y="0.5" width="93" height="37" fill="none" stroke="#111827" stroke-width="1" opacity="0.35"/>
  <polyline points="16,22 17,22 18,22 20,22 21,22 23,22 23,21 24,21 25,21 26,21 28,21 29,21 31,20 32,20 34,20 36,20 38,20 41,19 44,19 46,19 47,19 48,19 50,18 52,18 53,18 56,18 58,18 59,18 61,18 63,18 64,18 65,17 67,17 68,17 69,17 70,17 71,16 72,16 73,16 74,16 75,16 76,16 77,16 78,16" fill="none" stroke="#7c3cff" stroke-width="3" stroke-linecap="round" stroke-linejoin="round" opacity="0.95">
    <title>4477 g:1</title>
  </polyline>
</svg>
