<?xml version="1.0" encoding="UTF-8"?>
<svg xmlns="http://www.w3.org/2000/svg" width="93" height="38" viewBox="0 0 93 38">
  <title>atom 4478 g:1</title>
  <metadata>{&quot;entityType&quot;:&quot;atom&quot;,&quot;entityId&quot;:&quot;4478&quot;,&quot;token&quot;:&quot;g:1&quot;,&quot;signature&quot;:&quot;g:1&quot;,&quot;imageName&quot;:&quot;page-094.jpg&quot;,&quot;imageId&quot;:94,&quot;bounds&quot;:{&quot;x&quot;:2052,&quot;y&quot;:2817,&quot;w&quot;:93,&quot;h&quot;:38},&quot;atoms&quot;:[{&quot;id&quot;:4478,&quot;token&quot;:&quot;g:1&quot;,&quot;particle_id&quot;:&quot;img94-m69-p3&quot;,&quot;molecule_id&quot;:&quot;img94-m69&quot;,&quot;atom_order&quot;:2}]}</metadata>
  <rect x="0" y="0" width="93" height="38" fill="#f8f0d8"/>
  <image href="file:///C:/Users/HHHES/AppData/Roaming/com.voynichlab.datasetcreator/images/1/33b1988f-7aaa-4207-bfa8-f26b742ac4b1.jpg" x="-2052" y="-2817" width="2932" height="3769" opacity="0.92"/>
  <rect x="0.5" y="0.5" width="92" height="37" fill="none" stroke="#111827" stroke-width="1" opacity="0.35"/>
  <polyline points="16,22 17,22 19,22 21,22 22,22 23,22 25,21 26,21 28,21 30,21 31,21 32,21 33,21 35,20 37,20 39,20 40,20 43,20 45,19 48,19 50,19 51,19 52,19 53,19 54,19 55,19 57,19 59,19 61,19 62,18 63,18 64,18 66,18 67,18 69,18 70,18 71,18 72,18 73,17 74,17 75,17 76,17 77,16" fill="none" stroke="#7c3cff" stroke-width="3" stroke-linecap="round" stroke-linejoin="round" opacity="0.95">
    <title>4478 g:1</title>
  </polyline>
</svg>
