<?xml version="1.0" encoding="UTF-8"?>
<svg xmlns="http://www.w3.org/2000/svg" width="82" height="38" viewBox="0 0 82 38">
  <title>atom 4481 g:1</title>
  <metadata>{&quot;entityType&quot;:&quot;atom&quot;,&quot;entityId&quot;:&quot;4481&quot;,&quot;token&quot;:&quot;g:1&quot;,&quot;signature&quot;:&quot;g:1&quot;,&quot;imageName&quot;:&quot;page-094.jpg&quot;,&quot;imageId&quot;:94,&quot;bounds&quot;:{&quot;x&quot;:1222,&quot;y&quot;:2961,&quot;w&quot;:82,&quot;h&quot;:38},&quot;atoms&quot;:[{&quot;id&quot;:4481,&quot;token&quot;:&quot;g:1&quot;,&quot;particle_id&quot;:&quot;img94-m80-p1&quot;,&quot;molecule_id&quot;:&quot;img94-m80&quot;,&quot;atom_order&quot;:2}]}</metadata>
  <rect x="0" y="0" width="82" height="38" fill="#f8f0d8"/>
  <image href="file:///C:/Users/HHHES/AppData/Roaming/com.voynichlab.datasetcreator/images/1/33b1988f-7aaa-4207-bfa8-f26b742ac4b1.jpg" x="-1222" y="-2961" width="2932" height="3769" opacity="0.92"/>
  <rect x="0.5" y="0.5" width="81" height="37" fill="none" stroke="#111827" stroke-width="1" opacity="0.35"/>
  <polyline points="16,22 17,22 18,22 20,21 22,21 23,21 24,21 26,21 29,21 31,21 33,20 34,20 35,20 36,20 39,20 42,20 43,20 44,19 45,19 46,19 47,19 48,19 49,19 50,19 50,18 51,18 52,18 53,18 54,18 55,18 56,17 57,17 58,17 59,17 60,17 61,17 62,17 63,17 64,17 65,17 65,16 66,16" fill="none" stroke="#7c3cff" stroke-width="3" stroke-linecap="round" stroke-linejoin="round" opacity="0.95">
    <title>4481 g:1</title>
  </polyline>
</svg>
