<?xml version="1.0" encoding="UTF-8"?>
<svg xmlns="http://www.w3.org/2000/svg" width="161" height="44" viewBox="0 0 161 44">
  <title>atom 4484 g:1</title>
  <metadata>{&quot;entityType&quot;:&quot;atom&quot;,&quot;entityId&quot;:&quot;4484&quot;,&quot;token&quot;:&quot;g:1&quot;,&quot;signature&quot;:&quot;g:1&quot;,&quot;imageName&quot;:&quot;page-094.jpg&quot;,&quot;imageId&quot;:94,&quot;bounds&quot;:{&quot;x&quot;:1000,&quot;y&quot;:3074,&quot;w&quot;:161,&quot;h&quot;:44},&quot;atoms&quot;:[{&quot;id&quot;:4484,&quot;token&quot;:&quot;g:1&quot;,&quot;particle_id&quot;:&quot;img94-m82-p1&quot;,&quot;molecule_id&quot;:&quot;img94-m82&quot;,&quot;atom_order&quot;:7}]}</metadata>
  <rect x="0" y="0" width="161" height="44" fill="#f8f0d8"/>
  <image href="file:///C:/Users/HHHES/AppData/Roaming/com.voynichlab.datasetcreator/images/1/33b1988f-7aaa-4207-bfa8-f26b742ac4b1.jpg" x="-1000" y="-3074" width="2932" height="3769" opacity="0.92"/>
  <rect x="0.5" y="0.5" width="160" height="43" fill="none" stroke="#111827" stroke-width="1" opacity="0.35"/>
  <polyline points="16,28 17,28 18,28 18,27 19,27 20,27 21,27 22,27 23,27 24,27 24,26 25,26 27,26 28,26 29,26 30,26 31,26 33,26 36,26 38,26 39,26 40,26 41,26 43,25 45,25 46,25 47,25 49,25 50,25 51,25 53,25 54,25 55,24 58,24 59,24 60,24 61,24 63,24 67,23 70,23 73,23 74,23 75,23 76,22 77,22 78,22 81,21 84,21 85,21 87,21 89,21 90,20 94,20 96,20 98,20 100,19 102,19 105,19 108,19 109,19 110,19 112,18 114,18 117,18 119,18 120,18 121,18 122,18 124,17 127,17 128,17 130,17 131,17 132,17 133,16 134,16 136,16 138,16 140,16 141,16 142,16 143,16 144,16 145,16 144,16 143,16" fill="none" stroke="#7c3cff" stroke-width="3" stroke-linecap="round" stroke-linejoin="round" opacity="0.95">
    <title>4484 g:1</title>
  </polyline>
</svg>
