<?xml version="1.0" encoding="UTF-8"?>
<svg xmlns="http://www.w3.org/2000/svg" width="78" height="37" viewBox="0 0 78 37">
  <title>atom 4532 g:1</title>
  <metadata>{&quot;entityType&quot;:&quot;atom&quot;,&quot;entityId&quot;:&quot;4532&quot;,&quot;token&quot;:&quot;g:1&quot;,&quot;signature&quot;:&quot;g:1&quot;,&quot;imageName&quot;:&quot;page-094.jpg&quot;,&quot;imageId&quot;:94,&quot;bounds&quot;:{&quot;x&quot;:1132,&quot;y&quot;:2717,&quot;w&quot;:78,&quot;h&quot;:37},&quot;atoms&quot;:[{&quot;id&quot;:4532,&quot;token&quot;:&quot;g:1&quot;,&quot;particle_id&quot;:&quot;img94-m59-p8&quot;,&quot;molecule_id&quot;:&quot;img94-m59&quot;,&quot;atom_order&quot;:2}]}</metadata>
  <rect x="0" y="0" width="78" height="37" fill="#f8f0d8"/>
  <image href="file:///C:/Users/HHHES/AppData/Roaming/com.voynichlab.datasetcreator/images/1/33b1988f-7aaa-4207-bfa8-f26b742ac4b1.jpg" x="-1132" y="-2717" width="2932" height="3769" opacity="0.92"/>
  <rect x="0.5" y="0.5" width="77" height="36" fill="none" stroke="#111827" stroke-width="1" opacity="0.35"/>
  <polyline points="16,20 17,20 18,21 19,21 21,21 22,21 23,21 24,21 25,21 26,20 27,20 28,20 29,20 30,20 32,19 34,19 35,19 36,19 37,19 39,19 40,19 41,19 43,19 45,19 47,19 48,19 49,19 50,19 51,19 51,18 52,18 53,18 54,18 55,18 57,18 58,17 59,17 60,17 60,16 61,16 62,16" fill="none" stroke="#7c3cff" stroke-width="3" stroke-linecap="round" stroke-linejoin="round" opacity="0.95">
    <title>4532 g:1</title>
  </polyline>
</svg>
