<?xml version="1.0" encoding="UTF-8"?>
<svg xmlns="http://www.w3.org/2000/svg" width="84" height="58" viewBox="0 0 84 58">
  <title>atom 3058 m:1</title>
  <metadata>{&quot;entityType&quot;:&quot;atom&quot;,&quot;entityId&quot;:&quot;3058&quot;,&quot;token&quot;:&quot;m:1&quot;,&quot;signature&quot;:&quot;m:1&quot;,&quot;imageName&quot;:&quot;page-094.jpg&quot;,&quot;imageId&quot;:94,&quot;bounds&quot;:{&quot;x&quot;:1203,&quot;y&quot;:678,&quot;w&quot;:84,&quot;h&quot;:58},&quot;atoms&quot;:[{&quot;id&quot;:3058,&quot;token&quot;:&quot;m:1&quot;,&quot;particle_id&quot;:&quot;img94-m20-p2&quot;,&quot;molecule_id&quot;:&quot;img94-m20&quot;,&quot;atom_order&quot;:2}]}</metadata>
  <rect x="0" y="0" width="84" height="58" fill="#f8f0d8"/>
  
  <rect x="0.5" y="0.5" width="83" height="57" fill="none" stroke="#111827" stroke-width="1" opacity="0.35"/>
  <polyline points="41,42 41,41 41,40 41,39 41,38 41,37 41,36 41,35 41,34 40,34 40,33 40,32 40,31 40,30 40,29 40,28 40,27 40,26 40,25 40,24 40,23 40,22 40,21 39,21 39,20 39,19 39,18 39,17 39,16 38,16 37,16 37,17 36,17 35,17 34,17 34,18 33,18 32,18 31,18 31,19 30,19 29,19 29,20 28,20 27,21 26,21 26,22 25,22 24,22 24,23 23,23 23,24 22,24 22,25 21,25 21,26 20,26 20,27 19,27 19,28 18,29 18,30 17,30 17,31 17,32 17,33 16,33 16,34 16,35 16,36 17,36 18,36 19,36 20,36 21,36 22,36 23,36 24,35 25,35 26,35 27,35 28,35 29,35 30,35 31,35 32,35 33,35 34,35 35,35 36,35 37,35 38,35 39,35 40,35 41,35 42,35 43,35 44,35 45,35 45,34 46,34 47,34 48,34 49,34 50,34 50,33 51,33 52,33 53,33 54,33 55,33 56,33 57,33 57,32 58,32 59,32 60,32 61,32 62,32 63,32 63,31 64,31 65,31 66,31 67,31 68,31" fill="none" stroke="#ff00ff" stroke-width="3" stroke-linecap="round" stroke-linejoin="round" opacity="0.95">
    <title>3058 m:1</title>
  </polyline>
</svg>
