<?xml version="1.0" encoding="UTF-8"?>
<svg xmlns="http://www.w3.org/2000/svg" width="51" height="51" viewBox="0 0 51 51">
  <title>l:1 distant-variant atom 6225</title>
  <rect x="0" y="0" width="51" height="51" fill="#17181b"/>
  <rect x="0.5" y="0.5" width="50" height="50" fill="none" stroke="#111827" stroke-width="1" opacity="0.35"/>
<polyline points="16,16 16,17 16,18 17,19 17,20 18,21 19,22 19,23 20,25 21,26 22,27 23,28 23,29 24,30 24,31 24,32 25,32 25,33 25,34 26,34 26,35 27,34 27,33 28,32 28,31 29,30 29,29 30,28 30,27 31,26 31,25 32,24 32,23 32,22 33,22 33,21 33,20 34,19 34,18 34,17 35,17 35,16" fill="none" stroke="#ff5f1f" stroke-width="3" stroke-linecap="round" stroke-linejoin="round" opacity="0.95">
    <title>6225 l:1</title>
  </polyline>
</svg>
