<?xml version="1.0" encoding="UTF-8"?>
<svg xmlns="http://www.w3.org/2000/svg" width="65" height="55" viewBox="0 0 65 55">
  <title>l:1 near-average-variant atom 6303</title>
  <rect x="0" y="0" width="65" height="55" fill="#17181b"/>
  <rect x="0.5" y="0.5" width="64" height="54" fill="none" stroke="#111827" stroke-width="1" opacity="0.35"/>
<polyline points="16,16 16,17 16,18 17,19 17,20 18,21 18,22 18,23 19,24 19,25 20,26 21,27 21,28 22,29 22,30 23,31 24,31 24,32 25,33 26,34 26,35 27,35 27,36 28,37 28,38 29,38 29,39 30,39 30,38 31,38 32,37 33,37 33,36 34,35 35,35 35,34 36,34 36,33 37,33 37,32 38,32 38,31 39,31 39,30 40,30 40,29 41,29 41,28 42,28 43,27 43,26 44,26 44,25 45,25 45,24 46,23 47,22 48,21 49,21 49,20" fill="none" stroke="#ff5f1f" stroke-width="3" stroke-linecap="round" stroke-linejoin="round" opacity="0.95">
    <title>6303 l:1</title>
  </polyline>
</svg>
