<?xml version="1.0" encoding="UTF-8"?>
<svg xmlns="http://www.w3.org/2000/svg" width="71" height="69" viewBox="0 0 71 69">
  <title>atom 3033 m:1</title>
  <metadata>{&quot;entityType&quot;:&quot;atom&quot;,&quot;entityId&quot;:&quot;3033&quot;,&quot;token&quot;:&quot;m:1&quot;,&quot;signature&quot;:&quot;m:1&quot;,&quot;imageName&quot;:&quot;page-003.jpg&quot;,&quot;imageId&quot;:3,&quot;bounds&quot;:{&quot;x&quot;:980,&quot;y&quot;:810,&quot;w&quot;:71,&quot;h&quot;:69},&quot;atoms&quot;:[{&quot;id&quot;:3033,&quot;token&quot;:&quot;m:1&quot;,&quot;particle_id&quot;:&quot;img3-m38-p1&quot;,&quot;molecule_id&quot;:&quot;img3-m38&quot;,&quot;atom_order&quot;:3}]}</metadata>
  <rect x="0" y="0" width="71" height="69" fill="#f8f0d8"/>
  <image href="file:///C:/Users/HHHES/AppData/Roaming/com.voynichlab.datasetcreator/images/1/35a70f63-88ab-4986-b441-b78046a10087.jpg" x="-980" y="-810" width="2972" height="3766" opacity="0.92"/>
  <rect x="0.5" y="0.5" width="70" height="68" fill="none" stroke="#111827" stroke-width="1" opacity="0.35"/>
  <polyline points="40,53 40,52 40,51 40,50 40,49 40,48 40,47 40,46 40,45 40,44 40,43 40,42 40,41 40,40 41,40 41,39 41,38 41,37 41,36 41,35 41,34 41,33 41,32 41,31 41,30 41,29 41,28 41,27 41,26 41,25 41,24 41,23 41,22 41,21 41,20 41,19 41,18 41,17 41,16 40,16 40,17 39,17 39,18 38,18 37,18 37,19 36,19 35,19 35,20 34,20 33,20 33,21 32,21 32,22 31,22 30,22 30,23 29,23 28,24 27,24 27,25 26,25 26,26 25,26 25,27 24,27 24,28 23,28 23,29 22,29 22,30 21,30 21,31 20,31 20,32 19,32 19,33 18,33 18,34 17,34 17,35 17,36 16,36 16,37 17,37 18,37 19,37 20,37 21,37 22,37 23,37 24,37 25,37 26,37 27,37 28,37 29,37 30,37 31,37 32,37 33,37 34,37 35,37 36,37 37,37 38,37 39,37 40,37 41,37 42,37 43,37 44,37 45,37 46,37 47,37 48,37 49,37 50,37 50,36 51,36 52,36 53,36 54,36 55,36" fill="none" stroke="#ff00ff" stroke-width="3" stroke-linecap="round" stroke-linejoin="round" opacity="0.95">
    <title>3033 m:1</title>
  </polyline>
</svg>
