<?xml version="1.0" encoding="UTF-8"?>
<svg xmlns="http://www.w3.org/2000/svg" width="71" height="67" viewBox="0 0 71 67">
  <title>atom 3035 m:1</title>
  <metadata>{&quot;entityType&quot;:&quot;atom&quot;,&quot;entityId&quot;:&quot;3035&quot;,&quot;token&quot;:&quot;m:1&quot;,&quot;signature&quot;:&quot;m:1&quot;,&quot;imageName&quot;:&quot;page-003.jpg&quot;,&quot;imageId&quot;:3,&quot;bounds&quot;:{&quot;x&quot;:1264,&quot;y&quot;:814,&quot;w&quot;:71,&quot;h&quot;:67},&quot;atoms&quot;:[{&quot;id&quot;:3035,&quot;token&quot;:&quot;m:1&quot;,&quot;particle_id&quot;:&quot;img3-m39-p1&quot;,&quot;molecule_id&quot;:&quot;img3-m39&quot;,&quot;atom_order&quot;:3}]}</metadata>
  <rect x="0" y="0" width="71" height="67" fill="#f8f0d8"/>
  <image href="file:///C:/Users/HHHES/AppData/Roaming/com.voynichlab.datasetcreator/images/1/35a70f63-88ab-4986-b441-b78046a10087.jpg" x="-1264" y="-814" width="2972" height="3766" opacity="0.92"/>
  <rect x="0.5" y="0.5" width="70" height="66" fill="none" stroke="#111827" stroke-width="1" opacity="0.35"/>
  <polyline points="33,51 33,49 33,48 33,47 33,46 32,45 32,37 32,34 32,33 32,32 32,31 32,30 31,30 31,29 31,28 31,27 31,26 31,25 31,24 31,23 31,22 31,21 31,20 31,19 31,18 31,17 31,16 30,16 30,17 29,17 29,18 28,18 28,19 27,19 26,20 26,21 25,21 24,22 24,23 23,23 23,24 22,24 22,25 22,26 21,26 21,27 20,28 20,29 19,29 19,30 19,31 18,31 18,32 18,33 17,34 17,35 17,36 17,37 16,37 16,38 16,39 17,39 18,39 19,39 20,39 21,39 22,39 23,39 24,39 25,39 26,39 27,39 28,39 29,39 29,40 30,40 31,40 32,40 33,40 34,40 35,40 36,40 37,40 38,40 40,41 42,41 43,41 44,41 45,41 46,41 47,41 48,41 49,41 50,41 51,41 52,41 53,41 54,41 55,41" fill="none" stroke="#ff00ff" stroke-width="3" stroke-linecap="round" stroke-linejoin="round" opacity="0.95">
    <title>3035 m:1</title>
  </polyline>
</svg>
