<?xml version="1.0" encoding="UTF-8"?>
<svg xmlns="http://www.w3.org/2000/svg" width="81" height="60" viewBox="0 0 81 60">
  <title>atom 3042 m:1</title>
  <metadata>{&quot;entityType&quot;:&quot;atom&quot;,&quot;entityId&quot;:&quot;3042&quot;,&quot;token&quot;:&quot;m:1&quot;,&quot;signature&quot;:&quot;m:1&quot;,&quot;imageName&quot;:&quot;page-003.jpg&quot;,&quot;imageId&quot;:3,&quot;bounds&quot;:{&quot;x&quot;:879,&quot;y&quot;:1391,&quot;w&quot;:81,&quot;h&quot;:60},&quot;atoms&quot;:[{&quot;id&quot;:3042,&quot;token&quot;:&quot;m:1&quot;,&quot;particle_id&quot;:&quot;img3-m66-p1&quot;,&quot;molecule_id&quot;:&quot;img3-m66&quot;,&quot;atom_order&quot;:3}]}</metadata>
  <rect x="0" y="0" width="81" height="60" fill="#f8f0d8"/>
  <image href="file:///C:/Users/HHHES/AppData/Roaming/com.voynichlab.datasetcreator/images/1/35a70f63-88ab-4986-b441-b78046a10087.jpg" x="-879" y="-1391" width="2972" height="3766" opacity="0.92"/>
  <rect x="0.5" y="0.5" width="80" height="59" fill="none" stroke="#111827" stroke-width="1" opacity="0.35"/>
  <polyline points="35,44 35,43 35,42 35,41 35,40 36,39 36,38 36,37 36,36 36,35 36,34 36,33 36,32 37,32 37,31 37,30 37,29 37,28 37,27 37,26 37,25 37,24 37,23 37,22 37,21 37,20 37,19 37,18 37,17 37,16 36,16 35,17 34,18 33,19 32,19 32,20 31,20 31,21 30,21 30,22 29,22 28,23 27,23 27,24 26,24 26,25 25,25 25,26 24,26 23,27 23,28 22,28 21,29 20,29 20,30 19,30 19,31 18,31 18,32 17,32 17,33 17,34 16,34 16,35 17,35 18,35 19,35 20,35 21,35 22,35 23,35 24,35 25,35 26,35 27,35 28,35 29,35 30,35 31,35 31,34 32,34 33,34 34,34 35,34 36,34 37,34 38,34 39,34 40,34 41,34 42,34 43,34 44,34 45,34 46,34 47,34 48,34 49,34 50,34 51,34 52,34 52,33 53,33 54,33 55,33 56,33 57,33 58,33 58,32 59,32 60,32 61,32 62,32 63,32 64,32 64,31 65,31" fill="none" stroke="#ff00ff" stroke-width="3" stroke-linecap="round" stroke-linejoin="round" opacity="0.95">
    <title>3042 m:1</title>
  </polyline>
</svg>
