<?xml version="1.0" encoding="UTF-8"?>
<svg xmlns="http://www.w3.org/2000/svg" width="72" height="64" viewBox="0 0 72 64">
  <title>atom 3043 m:1</title>
  <metadata>{&quot;entityType&quot;:&quot;atom&quot;,&quot;entityId&quot;:&quot;3043&quot;,&quot;token&quot;:&quot;m:1&quot;,&quot;signature&quot;:&quot;m:1&quot;,&quot;imageName&quot;:&quot;page-003.jpg&quot;,&quot;imageId&quot;:3,&quot;bounds&quot;:{&quot;x&quot;:1561,&quot;y&quot;:1424,&quot;w&quot;:72,&quot;h&quot;:64},&quot;atoms&quot;:[{&quot;id&quot;:3043,&quot;token&quot;:&quot;m:1&quot;,&quot;particle_id&quot;:&quot;img3-m70-p2&quot;,&quot;molecule_id&quot;:&quot;img3-m70&quot;,&quot;atom_order&quot;:2}]}</metadata>
  <rect x="0" y="0" width="72" height="64" fill="#f8f0d8"/>
  <image href="file:///C:/Users/HHHES/AppData/Roaming/com.voynichlab.datasetcreator/images/1/35a70f63-88ab-4986-b441-b78046a10087.jpg" x="-1561" y="-1424" width="2972" height="3766" opacity="0.92"/>
  <rect x="0.5" y="0.5" width="71" height="63" fill="none" stroke="#111827" stroke-width="1" opacity="0.35"/>
  <polyline points="34,48 34,47 34,46 34,45 35,45 35,44 35,43 35,42 35,41 35,40 35,39 35,38 36,38 36,37 36,36 36,35 36,34 36,33 36,32 37,31 37,30 37,29 37,28 37,27 37,26 37,25 37,24 38,23 38,22 38,21 38,20 38,19 38,18 38,17 38,16 37,16 37,17 36,17 36,18 35,18 35,19 34,19 33,19 32,19 32,20 31,20 30,20 29,20 29,21 28,21 27,21 26,22 25,22 24,23 23,23 22,24 21,24 20,25 19,25 19,26 18,26 17,27 16,28 16,29 16,30 17,31 18,31 19,31 20,31 21,31 22,32 23,32 24,32 25,32 25,33 26,33 27,33 28,33 29,33 30,33 31,34 32,34 33,34 34,34 35,34 36,34 37,34 38,34 39,34 40,34 41,34 42,34 43,34 44,34 45,34 46,34 47,34 48,34 49,34 50,34 51,34 52,34 53,34 54,34 54,35 55,35 56,35" fill="none" stroke="#ff00ff" stroke-width="3" stroke-linecap="round" stroke-linejoin="round" opacity="0.95">
    <title>3043 m:1</title>
  </polyline>
</svg>
