<?xml version="1.0" encoding="UTF-8"?>
<svg xmlns="http://www.w3.org/2000/svg" width="76" height="55" viewBox="0 0 76 55">
  <title>atom 3475 m:1</title>
  <metadata>{&quot;entityType&quot;:&quot;atom&quot;,&quot;entityId&quot;:&quot;3475&quot;,&quot;token&quot;:&quot;m:1&quot;,&quot;signature&quot;:&quot;m:1&quot;,&quot;imageName&quot;:&quot;page-003.jpg&quot;,&quot;imageId&quot;:3,&quot;bounds&quot;:{&quot;x&quot;:1371,&quot;y&quot;:2022,&quot;w&quot;:76,&quot;h&quot;:55},&quot;atoms&quot;:[{&quot;id&quot;:3475,&quot;token&quot;:&quot;m:1&quot;,&quot;particle_id&quot;:&quot;img3-m126-p1&quot;,&quot;molecule_id&quot;:&quot;img3-m126&quot;,&quot;atom_order&quot;:3}]}</metadata>
  <rect x="0" y="0" width="76" height="55" fill="#f8f0d8"/>
  <image href="file:///C:/Users/HHHES/AppData/Roaming/com.voynichlab.datasetcreator/images/1/35a70f63-88ab-4986-b441-b78046a10087.jpg" x="-1371" y="-2022" width="2972" height="3766" opacity="0.92"/>
  <rect x="0.5" y="0.5" width="75" height="54" fill="none" stroke="#111827" stroke-width="1" opacity="0.35"/>
  <polyline points="35,39 35,38 35,37 36,37 36,36 36,35 36,34 36,33 37,33 37,32 37,31 37,30 38,29 38,28 38,27 38,26 39,26 39,25 39,24 39,23 40,23 40,22 40,21 40,20 41,20 41,19 41,18 41,17 41,16 40,16 40,17 39,17 38,17 37,17 37,18 36,18 35,18 35,19 34,19 33,19 32,20 31,20 30,20 30,21 29,21 28,21 27,21 27,22 26,22 25,22 25,23 24,23 23,23 23,24 22,24 21,25 20,25 20,26 19,26 19,27 18,27 17,28 17,29 16,29 17,29 18,29 19,29 20,29 21,29 22,29 23,29 24,29 25,29 26,29 27,29 28,29 29,29 30,29 31,29 32,29 33,29 34,29 35,29 36,28 37,28 38,28 39,28 40,28 41,28 42,28 43,28 44,28 45,28 46,28 47,28 48,28 49,28 50,28 51,28 52,28 53,28 54,28 55,28 57,28 58,28 59,28 60,28" fill="none" stroke="#ff00ff" stroke-width="3" stroke-linecap="round" stroke-linejoin="round" opacity="0.95">
    <title>3475 m:1</title>
  </polyline>
</svg>
