<?xml version="1.0" encoding="UTF-8"?>
<svg xmlns="http://www.w3.org/2000/svg" width="91" height="54" viewBox="0 0 91 54">
  <title>atom 4210 m:1</title>
  <metadata>{&quot;entityType&quot;:&quot;atom&quot;,&quot;entityId&quot;:&quot;4210&quot;,&quot;token&quot;:&quot;m:1&quot;,&quot;signature&quot;:&quot;m:1&quot;,&quot;imageName&quot;:&quot;page-003.jpg&quot;,&quot;imageId&quot;:3,&quot;bounds&quot;:{&quot;x&quot;:1172,&quot;y&quot;:2810,&quot;w&quot;:91,&quot;h&quot;:54},&quot;atoms&quot;:[{&quot;id&quot;:4210,&quot;token&quot;:&quot;m:1&quot;,&quot;particle_id&quot;:&quot;img3-m183-p1&quot;,&quot;molecule_id&quot;:&quot;img3-m183&quot;,&quot;atom_order&quot;:3}]}</metadata>
  <rect x="0" y="0" width="91" height="54" fill="#f8f0d8"/>
  <image href="file:///C:/Users/HHHES/AppData/Roaming/com.voynichlab.datasetcreator/images/1/35a70f63-88ab-4986-b441-b78046a10087.jpg" x="-1172" y="-2810" width="2972" height="3766" opacity="0.92"/>
  <rect x="0.5" y="0.5" width="90" height="53" fill="none" stroke="#111827" stroke-width="1" opacity="0.35"/>
  <polyline points="35,38 35,37 35,36 36,34 36,33 36,32 36,31 36,30 36,29 36,28 36,27 36,26 36,25 37,25 37,24 37,23 37,22 37,21 38,20 38,19 38,18 38,17 38,16 37,16 36,16 36,17 35,17 34,17 33,18 32,18 31,18 30,19 29,20 28,20 28,21 27,21 27,22 26,22 25,22 25,23 24,23 24,24 23,24 22,25 21,25 20,26 19,27 18,27 18,28 17,28 17,29 16,29 16,30 16,31 17,31 18,31 19,31 20,31 21,31 22,31 23,31 24,31 25,31 26,31 27,31 28,31 29,31 29,32 30,32 31,32 32,32 33,32 34,32 35,32 36,32 37,32 38,32 40,32 41,32 43,32 45,32 47,32 49,32 50,32 51,32 52,32 53,32 53,31 54,31 55,31 56,31 58,31 59,31 61,31 62,31 63,31 64,31 65,31 67,30 68,30 70,30 71,30 72,30 73,30 74,30 75,30" fill="none" stroke="#ff00ff" stroke-width="3" stroke-linecap="round" stroke-linejoin="round" opacity="0.95">
    <title>4210 m:1</title>
  </polyline>
</svg>
