<?xml version="1.0" encoding="UTF-8"?>
<svg xmlns="http://www.w3.org/2000/svg" width="93" height="64" viewBox="0 0 93 64">
  <title>atom 4211 m:1</title>
  <metadata>{&quot;entityType&quot;:&quot;atom&quot;,&quot;entityId&quot;:&quot;4211&quot;,&quot;token&quot;:&quot;m:1&quot;,&quot;signature&quot;:&quot;m:1&quot;,&quot;imageName&quot;:&quot;page-003.jpg&quot;,&quot;imageId&quot;:3,&quot;bounds&quot;:{&quot;x&quot;:1145,&quot;y&quot;:2900,&quot;w&quot;:93,&quot;h&quot;:64},&quot;atoms&quot;:[{&quot;id&quot;:4211,&quot;token&quot;:&quot;m:1&quot;,&quot;particle_id&quot;:&quot;img3-m194-p3&quot;,&quot;molecule_id&quot;:&quot;img3-m194&quot;,&quot;atom_order&quot;:2}]}</metadata>
  <rect x="0" y="0" width="93" height="64" fill="#f8f0d8"/>
  <image href="file:///C:/Users/HHHES/AppData/Roaming/com.voynichlab.datasetcreator/images/1/35a70f63-88ab-4986-b441-b78046a10087.jpg" x="-1145" y="-2900" width="2972" height="3766" opacity="0.92"/>
  <rect x="0.5" y="0.5" width="92" height="63" fill="none" stroke="#111827" stroke-width="1" opacity="0.35"/>
  <polyline points="42,48 42,47 42,46 43,46 43,45 43,44 43,43 43,42 43,41 43,40 43,39 43,38 43,37 43,36 43,35 43,34 43,33 44,32 44,31 44,30 44,29 44,28 44,27 44,26 45,25 45,24 45,23 45,22 45,21 45,20 45,19 45,18 45,17 45,16 44,16 44,17 43,17 42,17 41,18 40,18 39,18 39,19 38,19 37,19 37,20 36,20 35,20 34,21 33,21 32,21 31,21 31,22 30,22 29,23 28,23 27,24 26,24 26,25 25,25 25,26 24,26 24,27 23,27 23,28 22,28 21,28 21,29 21,30 20,30 19,30 19,31 18,31 17,32 16,33 17,33 18,34 19,34 20,34 21,34 22,34 23,34 24,34 25,34 25,35 26,35 27,35 28,35 29,35 30,35 31,35 31,36 32,36 34,36 35,36 36,36 37,36 38,36 39,36 40,36 41,36 43,36 45,36 47,36 48,36 49,37 50,37 51,37 52,37 53,37 54,37 55,37 56,37 57,37 58,37 59,37 60,38 61,38 63,38 65,38 66,38 67,38 68,38 69,38 70,38 71,38 72,38 73,38 74,38 75,39 76,39 77,39" fill="none" stroke="#ff00ff" stroke-width="3" stroke-linecap="round" stroke-linejoin="round" opacity="0.95">
    <title>4211 m:1</title>
  </polyline>
</svg>
