<?xml version="1.0" encoding="UTF-8"?>
<svg xmlns="http://www.w3.org/2000/svg" width="84" height="60" viewBox="0 0 84 60">
  <title>atom 4648 m:1</title>
  <metadata>{&quot;entityType&quot;:&quot;atom&quot;,&quot;entityId&quot;:&quot;4648&quot;,&quot;token&quot;:&quot;m:1&quot;,&quot;signature&quot;:&quot;m:1&quot;,&quot;imageName&quot;:&quot;page-003.jpg&quot;,&quot;imageId&quot;:3,&quot;bounds&quot;:{&quot;x&quot;:1295,&quot;y&quot;:730,&quot;w&quot;:84,&quot;h&quot;:60},&quot;atoms&quot;:[{&quot;id&quot;:4648,&quot;token&quot;:&quot;m:1&quot;,&quot;particle_id&quot;:&quot;img3-m35-p10&quot;,&quot;molecule_id&quot;:&quot;img3-m35&quot;,&quot;atom_order&quot;:2}]}</metadata>
  <rect x="0" y="0" width="84" height="60" fill="#f8f0d8"/>
  <image href="file:///C:/Users/HHHES/AppData/Roaming/com.voynichlab.datasetcreator/images/1/35a70f63-88ab-4986-b441-b78046a10087.jpg" x="-1295" y="-730" width="2972" height="3766" opacity="0.92"/>
  <rect x="0.5" y="0.5" width="83" height="59" fill="none" stroke="#111827" stroke-width="1" opacity="0.35"/>
  <polyline points="37,44 37,43 37,42 37,41 37,40 37,39 37,38 37,37 38,36 38,35 38,34 38,33 38,32 38,31 38,30 38,29 38,28 38,27 38,26 38,25 38,24 38,23 39,22 39,21 39,20 39,19 39,18 39,17 39,16 38,16 37,17 36,17 36,18 35,18 34,19 33,19 33,20 32,20 31,20 31,21 30,21 30,22 29,22 29,23 28,23 27,24 26,24 26,25 25,25 25,26 24,26 23,26 23,27 22,27 22,28 21,28 20,29 19,29 19,30 18,30 18,31 17,31 17,32 16,32 17,32 17,33 18,33 19,33 20,33 21,33 22,33 23,33 24,33 25,33 26,33 27,32 28,32 29,32 30,32 31,32 32,32 33,32 34,32 35,32 36,32 37,32 38,32 39,32 40,32 41,32 42,32 43,32 44,32 45,32 46,32 47,32 48,32 49,32 49,33 50,33 51,33 52,33 53,33 54,33 55,33 56,33 57,33 58,33 59,33 60,33 61,33 62,33 63,33 64,33 65,33 66,33 66,32 67,32 68,32" fill="none" stroke="#ff00ff" stroke-width="3" stroke-linecap="round" stroke-linejoin="round" opacity="0.95">
    <title>4648 m:1</title>
  </polyline>
</svg>
