<?xml version="1.0" encoding="UTF-8"?>
<svg xmlns="http://www.w3.org/2000/svg" width="35" height="92" viewBox="0 0 35 92">
  <title>atom 1040 a:1</title>
  <metadata>{&quot;entityType&quot;:&quot;atom&quot;,&quot;entityId&quot;:&quot;1040&quot;,&quot;token&quot;:&quot;a:1&quot;,&quot;signature&quot;:&quot;a:1&quot;,&quot;imageName&quot;:&quot;page-003.jpg&quot;,&quot;imageId&quot;:3,&quot;bounds&quot;:{&quot;x&quot;:786,&quot;y&quot;:580,&quot;w&quot;:35,&quot;h&quot;:92},&quot;atoms&quot;:[{&quot;id&quot;:1040,&quot;token&quot;:&quot;a:1&quot;,&quot;particle_id&quot;:&quot;img3-m13-p1&quot;,&quot;molecule_id&quot;:&quot;img3-m13&quot;,&quot;atom_order&quot;:2}]}</metadata>
  <rect x="0" y="0" width="35" height="92" fill="#f8f0d8"/>
  <image href="file:///C:/Users/HHHES/AppData/Roaming/com.voynichlab.datasetcreator/images/1/35a70f63-88ab-4986-b441-b78046a10087.jpg" x="-786" y="-580" width="2972" height="3766" opacity="0.92"/>
  <rect x="0.5" y="0.5" width="34" height="91" fill="none" stroke="#111827" stroke-width="1" opacity="0.35"/>
  <polyline points="17,76 17,75 17,74 18,74 18,73 18,72 18,71 18,70 18,69 18,68 18,67 18,66 18,65 18,64 18,63 18,62 18,61 18,60 18,59 18,58 18,57 18,56 18,55 18,54 18,53 19,53 19,52 19,51 19,50 19,49 19,48 19,47 19,46 19,45 19,44 19,43 19,42 19,41 19,40 19,39 19,38 18,37 18,36 18,35 18,34 18,33 18,32 18,31 18,30 18,29 18,28 17,27 17,26 17,25 17,24 17,23 17,22 17,21 17,20 16,19 16,18 16,17 16,16" fill="none" stroke="#00f0b5" stroke-width="3" stroke-linecap="round" stroke-linejoin="round" opacity="0.95">
    <title>1040 a:1</title>
  </polyline>
</svg>
