<?xml version="1.0" encoding="UTF-8"?>
<svg xmlns="http://www.w3.org/2000/svg" width="35" height="138" viewBox="0 0 35 138">
  <title>atom 1115 a:1</title>
  <metadata>{&quot;entityType&quot;:&quot;atom&quot;,&quot;entityId&quot;:&quot;1115&quot;,&quot;token&quot;:&quot;a:1&quot;,&quot;signature&quot;:&quot;a:1&quot;,&quot;imageName&quot;:&quot;page-003.jpg&quot;,&quot;imageId&quot;:3,&quot;bounds&quot;:{&quot;x&quot;:2042,&quot;y&quot;:420,&quot;w&quot;:35,&quot;h&quot;:138},&quot;atoms&quot;:[{&quot;id&quot;:1115,&quot;token&quot;:&quot;a:1&quot;,&quot;particle_id&quot;:&quot;img3-m7-p2&quot;,&quot;molecule_id&quot;:&quot;img3-m7&quot;,&quot;atom_order&quot;:1}]}</metadata>
  <rect x="0" y="0" width="35" height="138" fill="#f8f0d8"/>
  <image href="file:///C:/Users/HHHES/AppData/Roaming/com.voynichlab.datasetcreator/images/1/35a70f63-88ab-4986-b441-b78046a10087.jpg" x="-2042" y="-420" width="2972" height="3766" opacity="0.92"/>
  <rect x="0.5" y="0.5" width="34" height="137" fill="none" stroke="#111827" stroke-width="1" opacity="0.35"/>
  <polyline points="17,122 17,121 17,120 17,119 17,118 17,117 17,116 17,115 17,114 17,113 17,112 17,111 17,110 18,110 18,109 18,108 18,107 18,106 18,105 18,104 18,103 18,102 17,102 17,101 17,100 17,99 17,98 17,97 17,96 17,95 17,94 17,93 17,92 17,91 17,90 17,89 17,88 17,87 17,86 16,85 16,84 16,83 16,82 16,81 16,80 16,79 16,78 16,77 16,76 16,75 16,74 16,73 16,72 16,71 16,70 16,69 16,68 16,67 16,66 16,65 16,64 16,63 16,62 16,61 16,60 16,59 16,58 16,57 16,56 17,56 17,55 17,54 17,53 17,52 17,51 17,50 17,49 17,48 17,47 17,46 17,45 17,44 17,43 17,42 17,41 17,40 17,39 17,38 17,37 17,36 17,35 18,35 18,34 18,33 18,32 18,31 18,30 18,29 18,28 18,27 18,26 18,25 18,24 18,23 18,22 18,21 18,20 19,20 19,19 19,18 19,17 19,16" fill="none" stroke="#00f0b5" stroke-width="3" stroke-linecap="round" stroke-linejoin="round" opacity="0.95">
    <title>1115 a:1</title>
  </polyline>
</svg>
