<?xml version="1.0" encoding="UTF-8"?>
<svg xmlns="http://www.w3.org/2000/svg" width="39" height="131" viewBox="0 0 39 131">
  <title>atom 1118 a:1</title>
  <metadata>{&quot;entityType&quot;:&quot;atom&quot;,&quot;entityId&quot;:&quot;1118&quot;,&quot;token&quot;:&quot;a:1&quot;,&quot;signature&quot;:&quot;a:1&quot;,&quot;imageName&quot;:&quot;page-003.jpg&quot;,&quot;imageId&quot;:3,&quot;bounds&quot;:{&quot;x&quot;:2059,&quot;y&quot;:427,&quot;w&quot;:39,&quot;h&quot;:131},&quot;atoms&quot;:[{&quot;id&quot;:1118,&quot;token&quot;:&quot;a:1&quot;,&quot;particle_id&quot;:&quot;img3-m7-p2&quot;,&quot;molecule_id&quot;:&quot;img3-m7&quot;,&quot;atom_order&quot;:4}]}</metadata>
  <rect x="0" y="0" width="39" height="131" fill="#f8f0d8"/>
  <image href="file:///C:/Users/HHHES/AppData/Roaming/com.voynichlab.datasetcreator/images/1/35a70f63-88ab-4986-b441-b78046a10087.jpg" x="-2059" y="-427" width="2972" height="3766" opacity="0.92"/>
  <rect x="0.5" y="0.5" width="38" height="130" fill="none" stroke="#111827" stroke-width="1" opacity="0.35"/>
  <polyline points="23,16 23,17 22,17 22,18 22,19 22,20 22,21 22,22 22,23 22,24 22,25 22,26 22,27 22,28 22,29 22,30 22,31 21,32 21,33 21,34 21,35 21,36 21,37 21,38 21,39 21,40 21,41 21,42 21,43 21,44 21,45 20,45 20,46 20,47 20,48 20,49 20,50 20,51 20,52 20,53 20,54 20,55 20,56 19,57 19,58 19,59 19,60 19,61 19,62 19,63 19,64 19,65 19,66 19,67 19,68 19,69 19,70 18,70 18,71 18,72 18,73 18,74 18,75 18,76 18,77 18,78 18,79 18,80 18,81 18,82 18,83 17,83 17,84 17,85 17,86 17,87 17,88 17,89 17,90 17,91 17,92 17,93 17,94 17,95 16,95 16,96 16,97 16,98 16,99 16,100 16,101 16,102 16,103 16,104 16,105 16,106 16,107 16,108 16,109 16,110 16,111 16,112 16,113 16,114 16,115" fill="none" stroke="#00f0b5" stroke-width="3" stroke-linecap="round" stroke-linejoin="round" opacity="0.95">
    <title>1118 a:1</title>
  </polyline>
</svg>
