<?xml version="1.0" encoding="UTF-8"?>
<svg xmlns="http://www.w3.org/2000/svg" width="39" height="105" viewBox="0 0 39 105">
  <title>atom 1168 a:1</title>
  <metadata>{&quot;entityType&quot;:&quot;atom&quot;,&quot;entityId&quot;:&quot;1168&quot;,&quot;token&quot;:&quot;a:1&quot;,&quot;signature&quot;:&quot;a:1&quot;,&quot;imageName&quot;:&quot;page-003.jpg&quot;,&quot;imageId&quot;:3,&quot;bounds&quot;:{&quot;x&quot;:1113,&quot;y&quot;:556,&quot;w&quot;:39,&quot;h&quot;:105},&quot;atoms&quot;:[{&quot;id&quot;:1168,&quot;token&quot;:&quot;a:1&quot;,&quot;particle_id&quot;:&quot;img3-m12-p1&quot;,&quot;molecule_id&quot;:&quot;img3-m12&quot;,&quot;atom_order&quot;:1}]}</metadata>
  <rect x="0" y="0" width="39" height="105" fill="#f8f0d8"/>
  <image href="file:///C:/Users/HHHES/AppData/Roaming/com.voynichlab.datasetcreator/images/1/35a70f63-88ab-4986-b441-b78046a10087.jpg" x="-1113" y="-556" width="2972" height="3766" opacity="0.92"/>
  <rect x="0.5" y="0.5" width="38" height="104" fill="none" stroke="#111827" stroke-width="1" opacity="0.35"/>
  <polyline points="16,89 16,88 16,87 17,87 17,86 17,85 17,84 18,83 18,82 18,81 18,80 18,79 19,79 19,78 19,77 19,76 19,75 19,74 19,73 20,73 20,72 20,71 20,70 20,69 20,68 20,67 20,66 20,65 20,64 20,63 20,62 20,61 21,61 21,60 21,59 21,58 21,57 21,56 21,55 21,54 21,53 21,52 21,51 22,51 22,50 22,49 22,48 22,47 22,46 22,45 22,44 22,43 22,42 22,41 22,40 23,39 23,38 23,37 23,36 23,35 23,34 23,33 23,32 23,31 23,30 23,29 23,28 23,27 23,26 23,25 23,24 23,23 23,22 23,21 23,20 23,19 23,18 23,17 23,16" fill="none" stroke="#00f0b5" stroke-width="3" stroke-linecap="round" stroke-linejoin="round" opacity="0.95">
    <title>1168 a:1</title>
  </polyline>
</svg>
