<?xml version="1.0" encoding="UTF-8"?>
<svg xmlns="http://www.w3.org/2000/svg" width="39" height="86" viewBox="0 0 39 86">
  <title>atom 1171 a:1</title>
  <metadata>{&quot;entityType&quot;:&quot;atom&quot;,&quot;entityId&quot;:&quot;1171&quot;,&quot;token&quot;:&quot;a:1&quot;,&quot;signature&quot;:&quot;a:1&quot;,&quot;imageName&quot;:&quot;page-003.jpg&quot;,&quot;imageId&quot;:3,&quot;bounds&quot;:{&quot;x&quot;:1129,&quot;y&quot;:569,&quot;w&quot;:39,&quot;h&quot;:86},&quot;atoms&quot;:[{&quot;id&quot;:1171,&quot;token&quot;:&quot;a:1&quot;,&quot;particle_id&quot;:&quot;img3-m12-p1&quot;,&quot;molecule_id&quot;:&quot;img3-m12&quot;,&quot;atom_order&quot;:4}]}</metadata>
  <rect x="0" y="0" width="39" height="86" fill="#f8f0d8"/>
  <image href="file:///C:/Users/HHHES/AppData/Roaming/com.voynichlab.datasetcreator/images/1/35a70f63-88ab-4986-b441-b78046a10087.jpg" x="-1129" y="-569" width="2972" height="3766" opacity="0.92"/>
  <rect x="0.5" y="0.5" width="38" height="85" fill="none" stroke="#111827" stroke-width="1" opacity="0.35"/>
  <polyline points="23,16 23,17 23,18 23,19 23,20 23,21 23,22 22,22 22,23 22,24 22,25 22,26 22,27 22,28 22,29 22,30 22,31 22,32 22,33 22,34 21,34 21,35 21,36 21,37 21,38 21,39 21,40 21,41 20,41 20,42 20,43 20,44 20,45 19,45 19,46 19,47 19,48 19,49 19,50 19,51 19,52 19,53 19,54 18,54 18,55 18,56 18,57 18,58 18,59 18,60 18,61 17,62 17,63 17,64 17,65 17,66 17,67 17,68 17,69 16,69 16,70" fill="none" stroke="#00f0b5" stroke-width="3" stroke-linecap="round" stroke-linejoin="round" opacity="0.95">
    <title>1171 a:1</title>
  </polyline>
</svg>
