<?xml version="1.0" encoding="UTF-8"?>
<svg xmlns="http://www.w3.org/2000/svg" width="38" height="112" viewBox="0 0 38 112">
  <title>atom 1275 a:1</title>
  <metadata>{&quot;entityType&quot;:&quot;atom&quot;,&quot;entityId&quot;:&quot;1275&quot;,&quot;token&quot;:&quot;a:1&quot;,&quot;signature&quot;:&quot;a:1&quot;,&quot;imageName&quot;:&quot;page-003.jpg&quot;,&quot;imageId&quot;:3,&quot;bounds&quot;:{&quot;x&quot;:2103,&quot;y&quot;:549,&quot;w&quot;:38,&quot;h&quot;:112},&quot;atoms&quot;:[{&quot;id&quot;:1275,&quot;token&quot;:&quot;a:1&quot;,&quot;particle_id&quot;:&quot;img3-m11-p1&quot;,&quot;molecule_id&quot;:&quot;img3-m11&quot;,&quot;atom_order&quot;:2}]}</metadata>
  <rect x="0" y="0" width="38" height="112" fill="#f8f0d8"/>
  <image href="file:///C:/Users/HHHES/AppData/Roaming/com.voynichlab.datasetcreator/images/1/35a70f63-88ab-4986-b441-b78046a10087.jpg" x="-2103" y="-549" width="2972" height="3766" opacity="0.92"/>
  <rect x="0.5" y="0.5" width="37" height="111" fill="none" stroke="#111827" stroke-width="1" opacity="0.35"/>
  <polyline points="16,96 16,95 16,94 16,93 16,92 16,91 16,90 17,89 17,88 17,87 17,86 17,85 18,85 18,84 18,83 18,82 18,81 18,80 18,79 18,78 18,77 19,76 19,75 19,74 19,73 19,72 19,71 19,70 19,69 19,68 19,67 19,66 19,65 19,64 19,63 20,63 20,62 20,61 20,60 20,59 20,58 20,57 20,56 20,55 20,54 21,53 21,52 21,51 21,50 21,49 21,48 21,47 21,46 21,45 21,44 21,43 21,42 21,41 21,40 21,39 21,38 21,37 21,36 21,35 21,34 21,33 21,32 21,31 21,30 21,29 21,28 21,27 21,26 21,25 22,25 22,24 22,23 22,22 22,21 22,20 22,19 22,18 22,17 22,16" fill="none" stroke="#00f0b5" stroke-width="3" stroke-linecap="round" stroke-linejoin="round" opacity="0.95">
    <title>1275 a:1</title>
  </polyline>
</svg>
