<?xml version="1.0" encoding="UTF-8"?>
<svg xmlns="http://www.w3.org/2000/svg" width="39" height="89" viewBox="0 0 39 89">
  <title>atom 1279 a:1</title>
  <metadata>{&quot;entityType&quot;:&quot;atom&quot;,&quot;entityId&quot;:&quot;1279&quot;,&quot;token&quot;:&quot;a:1&quot;,&quot;signature&quot;:&quot;a:1&quot;,&quot;imageName&quot;:&quot;page-003.jpg&quot;,&quot;imageId&quot;:3,&quot;bounds&quot;:{&quot;x&quot;:2121,&quot;y&quot;:570,&quot;w&quot;:39,&quot;h&quot;:89},&quot;atoms&quot;:[{&quot;id&quot;:1279,&quot;token&quot;:&quot;a:1&quot;,&quot;particle_id&quot;:&quot;img3-m11-p1&quot;,&quot;molecule_id&quot;:&quot;img3-m11&quot;,&quot;atom_order&quot;:6}]}</metadata>
  <rect x="0" y="0" width="39" height="89" fill="#f8f0d8"/>
  <image href="file:///C:/Users/HHHES/AppData/Roaming/com.voynichlab.datasetcreator/images/1/35a70f63-88ab-4986-b441-b78046a10087.jpg" x="-2121" y="-570" width="2972" height="3766" opacity="0.92"/>
  <rect x="0.5" y="0.5" width="38" height="88" fill="none" stroke="#111827" stroke-width="1" opacity="0.35"/>
  <polyline points="23,16 23,17 23,18 23,19 23,20 22,21 22,22 22,23 22,24 22,25 22,26 22,27 21,28 21,29 21,30 21,31 21,32 21,33 21,34 21,35 20,35 20,36 20,37 20,38 20,39 20,40 20,41 19,41 19,42 19,43 19,44 19,45 19,46 19,47 19,48 19,49 19,50 18,51 18,52 18,53 18,54 17,54 17,55 17,56 17,57 17,58 17,59 17,60 17,61 17,62 17,63 16,63 16,64 16,65 16,66 16,67 16,68 16,69 16,70 16,71 16,72 16,73" fill="none" stroke="#00f0b5" stroke-width="3" stroke-linecap="round" stroke-linejoin="round" opacity="0.95">
    <title>1279 a:1</title>
  </polyline>
</svg>
