<?xml version="1.0" encoding="UTF-8"?>
<svg xmlns="http://www.w3.org/2000/svg" width="34" height="102" viewBox="0 0 34 102">
  <title>atom 1353 a:1</title>
  <metadata>{&quot;entityType&quot;:&quot;atom&quot;,&quot;entityId&quot;:&quot;1353&quot;,&quot;token&quot;:&quot;a:1&quot;,&quot;signature&quot;:&quot;a:1&quot;,&quot;imageName&quot;:&quot;page-003.jpg&quot;,&quot;imageId&quot;:3,&quot;bounds&quot;:{&quot;x&quot;:898,&quot;y&quot;:654,&quot;w&quot;:34,&quot;h&quot;:102},&quot;atoms&quot;:[{&quot;id&quot;:1353,&quot;token&quot;:&quot;a:1&quot;,&quot;particle_id&quot;:&quot;img3-m27-p4&quot;,&quot;molecule_id&quot;:&quot;img3-m27&quot;,&quot;atom_order&quot;:1}]}</metadata>
  <rect x="0" y="0" width="34" height="102" fill="#f8f0d8"/>
  <image href="file:///C:/Users/HHHES/AppData/Roaming/com.voynichlab.datasetcreator/images/1/35a70f63-88ab-4986-b441-b78046a10087.jpg" x="-898" y="-654" width="2972" height="3766" opacity="0.92"/>
  <rect x="0.5" y="0.5" width="33" height="101" fill="none" stroke="#111827" stroke-width="1" opacity="0.35"/>
  <polyline points="16,86 16,85 16,84 16,83 16,82 16,81 16,80 17,80 17,79 17,78 17,77 17,76 17,75 17,74 17,73 17,72 17,71 17,70 17,69 17,68 17,67 17,66 17,65 18,65 18,64 18,63 18,62 18,61 18,60 18,59 18,58 18,57 18,56 18,55 18,54 18,53 18,52 18,51 18,50 18,49 18,48 18,47 18,46 18,45 18,44 17,44 17,43 17,42 17,41 17,40 17,39 17,38 17,37 17,36 17,35 17,34 17,33 17,32 17,31 17,30 16,30 16,29 16,28 16,27 16,26 16,25 16,24 16,23 16,22 16,21 16,20 16,19 16,18 16,17 16,16" fill="none" stroke="#00f0b5" stroke-width="3" stroke-linecap="round" stroke-linejoin="round" opacity="0.95">
    <title>1353 a:1</title>
  </polyline>
</svg>
