<?xml version="1.0" encoding="UTF-8"?>
<svg xmlns="http://www.w3.org/2000/svg" width="35" height="112" viewBox="0 0 35 112">
  <title>atom 1369 a:1</title>
  <metadata>{&quot;entityType&quot;:&quot;atom&quot;,&quot;entityId&quot;:&quot;1369&quot;,&quot;token&quot;:&quot;a:1&quot;,&quot;signature&quot;:&quot;a:1&quot;,&quot;imageName&quot;:&quot;page-003.jpg&quot;,&quot;imageId&quot;:3,&quot;bounds&quot;:{&quot;x&quot;:1146,&quot;y&quot;:633,&quot;w&quot;:35,&quot;h&quot;:112},&quot;atoms&quot;:[{&quot;id&quot;:1369,&quot;token&quot;:&quot;a:1&quot;,&quot;particle_id&quot;:&quot;img3-m26-p2&quot;,&quot;molecule_id&quot;:&quot;img3-m26&quot;,&quot;atom_order&quot;:1}]}</metadata>
  <rect x="0" y="0" width="35" height="112" fill="#f8f0d8"/>
  <image href="file:///C:/Users/HHHES/AppData/Roaming/com.voynichlab.datasetcreator/images/1/35a70f63-88ab-4986-b441-b78046a10087.jpg" x="-1146" y="-633" width="2972" height="3766" opacity="0.92"/>
  <rect x="0.5" y="0.5" width="34" height="111" fill="none" stroke="#111827" stroke-width="1" opacity="0.35"/>
  <polyline points="18,96 18,95 18,94 18,93 18,92 18,91 17,91 17,90 17,89 17,88 17,87 17,86 17,85 17,84 17,83 17,82 17,81 17,80 17,79 17,78 17,77 17,76 17,75 17,74 17,73 17,72 17,71 17,70 17,69 17,68 17,67 17,66 17,65 17,64 17,63 16,63 16,62 16,61 16,60 16,59 16,58 16,57 17,57 17,56 17,55 17,54 17,53 17,52 17,51 17,50 17,49 17,48 17,47 17,46 17,45 17,44 17,43 17,42 17,41 17,40 17,39 17,38 17,37 17,36 17,35 17,34 17,33 18,32 18,31 18,30 18,29 18,28 18,27 18,26 18,25 18,24 18,23 18,22 18,21 18,20 18,19 18,18 19,18 19,17 19,16" fill="none" stroke="#00f0b5" stroke-width="3" stroke-linecap="round" stroke-linejoin="round" opacity="0.95">
    <title>1369 a:1</title>
  </polyline>
</svg>
