<?xml version="1.0" encoding="UTF-8"?>
<svg xmlns="http://www.w3.org/2000/svg" width="37" height="97" viewBox="0 0 37 97">
  <title>atom 1395 a:1</title>
  <metadata>{&quot;entityType&quot;:&quot;atom&quot;,&quot;entityId&quot;:&quot;1395&quot;,&quot;token&quot;:&quot;a:1&quot;,&quot;signature&quot;:&quot;a:1&quot;,&quot;imageName&quot;:&quot;page-003.jpg&quot;,&quot;imageId&quot;:3,&quot;bounds&quot;:{&quot;x&quot;:1565,&quot;y&quot;:634,&quot;w&quot;:37,&quot;h&quot;:97},&quot;atoms&quot;:[{&quot;id&quot;:1395,&quot;token&quot;:&quot;a:1&quot;,&quot;particle_id&quot;:&quot;img3-m19-p1&quot;,&quot;molecule_id&quot;:&quot;img3-m19&quot;,&quot;atom_order&quot;:2}]}</metadata>
  <rect x="0" y="0" width="37" height="97" fill="#f8f0d8"/>
  <image href="file:///C:/Users/HHHES/AppData/Roaming/com.voynichlab.datasetcreator/images/1/35a70f63-88ab-4986-b441-b78046a10087.jpg" x="-1565" y="-634" width="2972" height="3766" opacity="0.92"/>
  <rect x="0.5" y="0.5" width="36" height="96" fill="none" stroke="#111827" stroke-width="1" opacity="0.35"/>
  <polyline points="16,81 16,80 16,79 16,78 16,77 16,76 16,75 16,74 16,73 17,73 17,72 17,71 17,70 17,69 17,68 17,67 17,66 17,65 18,65 18,64 18,63 18,62 19,61 19,60 19,59 19,58 19,57 19,56 19,55 19,54 19,53 19,52 20,52 20,51 20,50 20,49 20,48 20,47 20,46 20,45 20,44 20,43 20,42 20,41 20,40 20,39 20,38 20,37 20,36 20,35 20,34 20,33 20,32 20,31 20,30 21,30 21,29 21,28 21,27 21,26 21,25 21,24 21,23 21,22 21,21 21,20 21,19 21,18 21,17 21,16" fill="none" stroke="#00f0b5" stroke-width="3" stroke-linecap="round" stroke-linejoin="round" opacity="0.95">
    <title>1395 a:1</title>
  </polyline>
</svg>
