<?xml version="1.0" encoding="UTF-8"?>
<svg xmlns="http://www.w3.org/2000/svg" width="36" height="108" viewBox="0 0 36 108">
  <title>atom 1496 a:1</title>
  <metadata>{&quot;entityType&quot;:&quot;atom&quot;,&quot;entityId&quot;:&quot;1496&quot;,&quot;token&quot;:&quot;a:1&quot;,&quot;signature&quot;:&quot;a:1&quot;,&quot;imageName&quot;:&quot;page-003.jpg&quot;,&quot;imageId&quot;:3,&quot;bounds&quot;:{&quot;x&quot;:786,&quot;y&quot;:733,&quot;w&quot;:36,&quot;h&quot;:108},&quot;atoms&quot;:[{&quot;id&quot;:1496,&quot;token&quot;:&quot;a:1&quot;,&quot;particle_id&quot;:&quot;img3-m36-p2&quot;,&quot;molecule_id&quot;:&quot;img3-m36&quot;,&quot;atom_order&quot;:1}]}</metadata>
  <rect x="0" y="0" width="36" height="108" fill="#f8f0d8"/>
  <image href="file:///C:/Users/HHHES/AppData/Roaming/com.voynichlab.datasetcreator/images/1/35a70f63-88ab-4986-b441-b78046a10087.jpg" x="-786" y="-733" width="2972" height="3766" opacity="0.92"/>
  <rect x="0.5" y="0.5" width="35" height="107" fill="none" stroke="#111827" stroke-width="1" opacity="0.35"/>
  <polyline points="16,92 16,91 16,90 16,89 16,88 16,87 16,86 16,85 17,85 17,84 17,83 17,82 17,81 17,80 17,79 17,78 17,77 17,76 17,75 17,74 18,73 18,72 18,71 18,70 18,69 18,68 18,67 18,66 18,65 18,64 18,63 18,62 18,61 18,60 18,59 18,58 18,57 19,56 19,55 19,54 19,53 19,52 19,51 19,50 19,49 19,48 19,47 19,46 19,45 19,44 19,43 19,42 19,41 19,40 19,39 19,38 19,37 20,36 20,35 20,34 20,33 20,32 20,31 20,30 20,29 20,28 20,27 19,27 19,26 19,25 19,24 19,23 19,22 19,21 19,20 18,20 18,19 18,18 18,17 17,16" fill="none" stroke="#00f0b5" stroke-width="3" stroke-linecap="round" stroke-linejoin="round" opacity="0.95">
    <title>1496 a:1</title>
  </polyline>
</svg>
