<?xml version="1.0" encoding="UTF-8"?>
<svg xmlns="http://www.w3.org/2000/svg" width="35" height="79" viewBox="0 0 35 79">
  <title>atom 1518 a:1</title>
  <metadata>{&quot;entityType&quot;:&quot;atom&quot;,&quot;entityId&quot;:&quot;1518&quot;,&quot;token&quot;:&quot;a:1&quot;,&quot;signature&quot;:&quot;a:1&quot;,&quot;imageName&quot;:&quot;page-003.jpg&quot;,&quot;imageId&quot;:3,&quot;bounds&quot;:{&quot;x&quot;:1017,&quot;y&quot;:751,&quot;w&quot;:35,&quot;h&quot;:79},&quot;atoms&quot;:[{&quot;id&quot;:1518,&quot;token&quot;:&quot;a:1&quot;,&quot;particle_id&quot;:&quot;img3-m35-p2&quot;,&quot;molecule_id&quot;:&quot;img3-m35&quot;,&quot;atom_order&quot;:5}]}</metadata>
  <rect x="0" y="0" width="35" height="79" fill="#f8f0d8"/>
  <image href="file:///C:/Users/HHHES/AppData/Roaming/com.voynichlab.datasetcreator/images/1/35a70f63-88ab-4986-b441-b78046a10087.jpg" x="-1017" y="-751" width="2972" height="3766" opacity="0.92"/>
  <rect x="0.5" y="0.5" width="34" height="78" fill="none" stroke="#111827" stroke-width="1" opacity="0.35"/>
  <polyline points="18,16 18,17 18,18 18,19 18,20 18,21 18,22 18,23 19,24 19,25 19,26 19,27 19,28 19,29 19,30 18,30 18,31 18,32 18,33 18,34 18,35 18,36 18,37 18,38 17,38 17,39 17,40 17,41 17,42 17,43 17,44 17,45 17,46 16,46 16,47 16,48 16,49 16,50 16,51 16,52 16,53 16,54 16,55 16,56 16,57 16,58 16,59 16,60 16,61 16,62 16,63" fill="none" stroke="#00f0b5" stroke-width="3" stroke-linecap="round" stroke-linejoin="round" opacity="0.95">
    <title>1518 a:1</title>
  </polyline>
</svg>
