<?xml version="1.0" encoding="UTF-8"?>
<svg xmlns="http://www.w3.org/2000/svg" width="33" height="99" viewBox="0 0 33 99">
  <title>atom 1533 a:1</title>
  <metadata>{&quot;entityType&quot;:&quot;atom&quot;,&quot;entityId&quot;:&quot;1533&quot;,&quot;token&quot;:&quot;a:1&quot;,&quot;signature&quot;:&quot;a:1&quot;,&quot;imageName&quot;:&quot;page-003.jpg&quot;,&quot;imageId&quot;:3,&quot;bounds&quot;:{&quot;x&quot;:1316,&quot;y&quot;:731,&quot;w&quot;:33,&quot;h&quot;:99},&quot;atoms&quot;:[{&quot;id&quot;:1533,&quot;token&quot;:&quot;a:1&quot;,&quot;particle_id&quot;:&quot;img3-m35-p10&quot;,&quot;molecule_id&quot;:&quot;img3-m35&quot;,&quot;atom_order&quot;:1}]}</metadata>
  <rect x="0" y="0" width="33" height="99" fill="#f8f0d8"/>
  <image href="file:///C:/Users/HHHES/AppData/Roaming/com.voynichlab.datasetcreator/images/1/35a70f63-88ab-4986-b441-b78046a10087.jpg" x="-1316" y="-731" width="2972" height="3766" opacity="0.92"/>
  <rect x="0.5" y="0.5" width="32" height="98" fill="none" stroke="#111827" stroke-width="1" opacity="0.35"/>
  <polyline points="17,83 17,82 17,81 17,80 17,79 17,78 17,77 17,76 17,75 17,74 17,73 17,72 17,71 17,70 17,69 17,68 17,67 17,66 17,65 17,64 17,63 17,62 17,61 17,60 17,59 17,58 17,57 17,56 16,56 16,55 16,54 16,53 16,52 16,51 16,50 16,49 16,48 16,47 16,46 16,45 16,44 16,43 16,42 16,41 16,40 16,39 16,38 16,37 16,36 17,35 17,34 17,33 17,32 17,31 17,30 17,29 17,28 17,27 17,26 17,25 17,24 17,23 17,22 17,21 17,20 17,19 17,18 17,17 17,16" fill="none" stroke="#00f0b5" stroke-width="3" stroke-linecap="round" stroke-linejoin="round" opacity="0.95">
    <title>1533 a:1</title>
  </polyline>
</svg>
