<?xml version="1.0" encoding="UTF-8"?>
<svg xmlns="http://www.w3.org/2000/svg" width="40" height="111" viewBox="0 0 40 111">
  <title>atom 1549 a:1</title>
  <metadata>{&quot;entityType&quot;:&quot;atom&quot;,&quot;entityId&quot;:&quot;1549&quot;,&quot;token&quot;:&quot;a:1&quot;,&quot;signature&quot;:&quot;a:1&quot;,&quot;imageName&quot;:&quot;page-003.jpg&quot;,&quot;imageId&quot;:3,&quot;bounds&quot;:{&quot;x&quot;:1475,&quot;y&quot;:719,&quot;w&quot;:40,&quot;h&quot;:111},&quot;atoms&quot;:[{&quot;id&quot;:1549,&quot;token&quot;:&quot;a:1&quot;,&quot;particle_id&quot;:&quot;img3-m29-p1&quot;,&quot;molecule_id&quot;:&quot;img3-m29&quot;,&quot;atom_order&quot;:2}]}</metadata>
  <rect x="0" y="0" width="40" height="111" fill="#f8f0d8"/>
  <image href="file:///C:/Users/HHHES/AppData/Roaming/com.voynichlab.datasetcreator/images/1/35a70f63-88ab-4986-b441-b78046a10087.jpg" x="-1475" y="-719" width="2972" height="3766" opacity="0.92"/>
  <rect x="0.5" y="0.5" width="39" height="110" fill="none" stroke="#111827" stroke-width="1" opacity="0.35"/>
  <polyline points="16,95 16,94 16,93 16,92 16,91 16,90 16,89 16,88 17,88 17,87 17,86 17,85 17,84 17,83 17,82 17,81 17,80 17,79 17,78 17,77 17,76 17,75 18,75 18,74 18,73 18,72 18,71 18,70 18,69 18,68 18,67 18,66 18,65 19,65 19,63 19,62 19,61 19,60 19,59 19,58 19,57 19,56 19,55 19,54 20,53 20,51 20,50 20,49 20,48 20,47 21,47 21,46 21,45 21,44 21,43 21,42 21,41 22,41 22,40 22,39 22,38 22,37 22,36 22,35 22,34 22,33 22,32 22,31 22,30 22,29 23,29 23,28 23,27 23,26 23,25 23,24 23,23 23,22 23,21 24,20 24,19 24,18 24,17 24,16" fill="none" stroke="#00f0b5" stroke-width="3" stroke-linecap="round" stroke-linejoin="round" opacity="0.95">
    <title>1549 a:1</title>
  </polyline>
</svg>
