<?xml version="1.0" encoding="UTF-8"?>
<svg xmlns="http://www.w3.org/2000/svg" width="34" height="107" viewBox="0 0 34 107">
  <title>atom 1575 a:1</title>
  <metadata>{&quot;entityType&quot;:&quot;atom&quot;,&quot;entityId&quot;:&quot;1575&quot;,&quot;token&quot;:&quot;a:1&quot;,&quot;signature&quot;:&quot;a:1&quot;,&quot;imageName&quot;:&quot;page-003.jpg&quot;,&quot;imageId&quot;:3,&quot;bounds&quot;:{&quot;x&quot;:1932,&quot;y&quot;:718,&quot;w&quot;:34,&quot;h&quot;:107},&quot;atoms&quot;:[{&quot;id&quot;:1575,&quot;token&quot;:&quot;a:1&quot;,&quot;particle_id&quot;:&quot;img3-m34-p2&quot;,&quot;molecule_id&quot;:&quot;img3-m34&quot;,&quot;atom_order&quot;:1}]}</metadata>
  <rect x="0" y="0" width="34" height="107" fill="#f8f0d8"/>
  <image href="file:///C:/Users/HHHES/AppData/Roaming/com.voynichlab.datasetcreator/images/1/35a70f63-88ab-4986-b441-b78046a10087.jpg" x="-1932" y="-718" width="2972" height="3766" opacity="0.92"/>
  <rect x="0.5" y="0.5" width="33" height="106" fill="none" stroke="#111827" stroke-width="1" opacity="0.35"/>
  <polyline points="16,91 16,90 16,89 16,88 16,87 16,86 16,85 17,85 17,84 17,83 17,82 17,81 17,80 17,79 17,78 17,77 17,76 17,75 17,74 18,73 18,72 18,71 18,70 18,69 18,68 18,67 18,66 18,65 18,64 18,63 18,62 18,61 18,60 18,59 18,58 18,57 18,56 18,55 18,54 18,53 18,52 18,51 18,50 18,49 18,48 17,47 17,46 17,45 17,44 17,43 17,42 17,41 17,40 17,39 17,38 17,37 17,36 17,35 17,34 17,33 17,32 17,31 17,30 17,29 17,28 17,27 17,26 17,25 17,24 16,23 16,22 16,21 16,20 16,19 16,18 16,17 16,16" fill="none" stroke="#00f0b5" stroke-width="3" stroke-linecap="round" stroke-linejoin="round" opacity="0.95">
    <title>1575 a:1</title>
  </polyline>
</svg>
