<?xml version="1.0" encoding="UTF-8"?>
<svg xmlns="http://www.w3.org/2000/svg" width="39" height="64" viewBox="0 0 39 64">
  <title>atom 1694 a:1</title>
  <metadata>{&quot;entityType&quot;:&quot;atom&quot;,&quot;entityId&quot;:&quot;1694&quot;,&quot;token&quot;:&quot;a:1&quot;,&quot;signature&quot;:&quot;a:1&quot;,&quot;imageName&quot;:&quot;page-003.jpg&quot;,&quot;imageId&quot;:3,&quot;bounds&quot;:{&quot;x&quot;:1302,&quot;y&quot;:828,&quot;w&quot;:39,&quot;h&quot;:64},&quot;atoms&quot;:[{&quot;id&quot;:1694,&quot;token&quot;:&quot;a:1&quot;,&quot;particle_id&quot;:&quot;img3-m39-p1&quot;,&quot;molecule_id&quot;:&quot;img3-m39&quot;,&quot;atom_order&quot;:5}]}</metadata>
  <rect x="0" y="0" width="39" height="64" fill="#f8f0d8"/>
  <image href="file:///C:/Users/HHHES/AppData/Roaming/com.voynichlab.datasetcreator/images/1/35a70f63-88ab-4986-b441-b78046a10087.jpg" x="-1302" y="-828" width="2972" height="3766" opacity="0.92"/>
  <rect x="0.5" y="0.5" width="38" height="63" fill="none" stroke="#111827" stroke-width="1" opacity="0.35"/>
  <polyline points="16,16 16,17 16,18 16,19 16,20 16,21 16,22 16,23 16,24 16,25 17,25 17,26 17,27 17,28 17,29 18,29 18,30 18,31 18,32 19,32 19,33 19,34 20,34 20,35 20,36 20,37 21,37 21,38 21,39 21,40 21,41 22,41 22,42 22,43 22,44 22,45 22,46 22,47 23,47 23,48" fill="none" stroke="#00f0b5" stroke-width="3" stroke-linecap="round" stroke-linejoin="round" opacity="0.95">
    <title>1694 a:1</title>
  </polyline>
</svg>
