<?xml version="1.0" encoding="UTF-8"?>
<svg xmlns="http://www.w3.org/2000/svg" width="34" height="61" viewBox="0 0 34 61">
  <title>atom 1710 a:1</title>
  <metadata>{&quot;entityType&quot;:&quot;atom&quot;,&quot;entityId&quot;:&quot;1710&quot;,&quot;token&quot;:&quot;a:1&quot;,&quot;signature&quot;:&quot;a:1&quot;,&quot;imageName&quot;:&quot;page-003.jpg&quot;,&quot;imageId&quot;:3,&quot;bounds&quot;:{&quot;x&quot;:1531,&quot;y&quot;:816,&quot;w&quot;:34,&quot;h&quot;:61},&quot;atoms&quot;:[{&quot;id&quot;:1710,&quot;token&quot;:&quot;a:1&quot;,&quot;particle_id&quot;:&quot;img3-m37-p1&quot;,&quot;molecule_id&quot;:&quot;img3-m37&quot;,&quot;atom_order&quot;:5}]}</metadata>
  <rect x="0" y="0" width="34" height="61" fill="#f8f0d8"/>
  <image href="file:///C:/Users/HHHES/AppData/Roaming/com.voynichlab.datasetcreator/images/1/35a70f63-88ab-4986-b441-b78046a10087.jpg" x="-1531" y="-816" width="2972" height="3766" opacity="0.92"/>
  <rect x="0.5" y="0.5" width="33" height="60" fill="none" stroke="#111827" stroke-width="1" opacity="0.35"/>
  <polyline points="18,16 18,17 18,18 18,19 18,20 18,21 18,22 18,23 18,24 18,25 18,26 18,27 18,28 18,29 18,30 18,31 18,32 18,33 18,34 18,35 18,36 18,37 18,38 18,39 17,39 17,40 17,41 17,42 16,43 16,44 16,45" fill="none" stroke="#00f0b5" stroke-width="3" stroke-linecap="round" stroke-linejoin="round" opacity="0.95">
    <title>1710 a:1</title>
  </polyline>
</svg>
