<?xml version="1.0" encoding="UTF-8"?>
<svg xmlns="http://www.w3.org/2000/svg" width="36" height="73" viewBox="0 0 36 73">
  <title>atom 1828 a:1</title>
  <metadata>{&quot;entityType&quot;:&quot;atom&quot;,&quot;entityId&quot;:&quot;1828&quot;,&quot;token&quot;:&quot;a:1&quot;,&quot;signature&quot;:&quot;a:1&quot;,&quot;imageName&quot;:&quot;page-003.jpg&quot;,&quot;imageId&quot;:3,&quot;bounds&quot;:{&quot;x&quot;:1287,&quot;y&quot;:972,&quot;w&quot;:36,&quot;h&quot;:73},&quot;atoms&quot;:[{&quot;id&quot;:1828,&quot;token&quot;:&quot;a:1&quot;,&quot;particle_id&quot;:&quot;img3-m44-p1&quot;,&quot;molecule_id&quot;:&quot;img3-m44&quot;,&quot;atom_order&quot;:5}]}</metadata>
  <rect x="0" y="0" width="36" height="73" fill="#f8f0d8"/>
  <image href="file:///C:/Users/HHHES/AppData/Roaming/com.voynichlab.datasetcreator/images/1/35a70f63-88ab-4986-b441-b78046a10087.jpg" x="-1287" y="-972" width="2972" height="3766" opacity="0.92"/>
  <rect x="0.5" y="0.5" width="35" height="72" fill="none" stroke="#111827" stroke-width="1" opacity="0.35"/>
  <polyline points="20,57 20,53 20,49 20,47 20,46 20,45 20,44 19,43 19,42 19,41 19,40 19,39 19,38 19,37 19,36 19,35 19,34 19,33 19,32 18,32 18,31 18,30 18,29 18,28 17,28 17,27 17,26 17,25 17,24 17,23 16,23 16,22 16,21 16,20 16,19 16,18 16,17 16,16" fill="none" stroke="#00f0b5" stroke-width="3" stroke-linecap="round" stroke-linejoin="round" opacity="0.95">
    <title>1828 a:1</title>
  </polyline>
</svg>
