<?xml version="1.0" encoding="UTF-8"?>
<svg xmlns="http://www.w3.org/2000/svg" width="33" height="85" viewBox="0 0 33 85">
  <title>atom 1956 a:1</title>
  <metadata>{&quot;entityType&quot;:&quot;atom&quot;,&quot;entityId&quot;:&quot;1956&quot;,&quot;token&quot;:&quot;a:1&quot;,&quot;signature&quot;:&quot;a:1&quot;,&quot;imageName&quot;:&quot;page-003.jpg&quot;,&quot;imageId&quot;:3,&quot;bounds&quot;:{&quot;x&quot;:1017,&quot;y&quot;:1109,&quot;w&quot;:33,&quot;h&quot;:85},&quot;atoms&quot;:[{&quot;id&quot;:1956,&quot;token&quot;:&quot;a:1&quot;,&quot;particle_id&quot;:&quot;img3-m55-p2&quot;,&quot;molecule_id&quot;:&quot;img3-m55&quot;,&quot;atom_order&quot;:4}]}</metadata>
  <rect x="0" y="0" width="33" height="85" fill="#f8f0d8"/>
  <image href="file:///C:/Users/HHHES/AppData/Roaming/com.voynichlab.datasetcreator/images/1/35a70f63-88ab-4986-b441-b78046a10087.jpg" x="-1017" y="-1109" width="2972" height="3766" opacity="0.92"/>
  <rect x="0.5" y="0.5" width="32" height="84" fill="none" stroke="#111827" stroke-width="1" opacity="0.35"/>
  <polyline points="17,16 17,29 17,32 17,33 17,34 17,38 17,39 17,40 17,41 17,42 17,43 17,44 17,45 17,46 17,47 17,48 17,49 17,50 16,51 16,55 16,56 16,57 16,58 16,59 16,60 16,61 16,62 16,63 16,64 16,65 16,66 16,67 16,68 16,69" fill="none" stroke="#00f0b5" stroke-width="3" stroke-linecap="round" stroke-linejoin="round" opacity="0.95">
    <title>1956 a:1</title>
  </polyline>
</svg>
