<?xml version="1.0" encoding="UTF-8"?>
<svg xmlns="http://www.w3.org/2000/svg" width="35" height="85" viewBox="0 0 35 85">
  <title>atom 1998 a:1</title>
  <metadata>{&quot;entityType&quot;:&quot;atom&quot;,&quot;entityId&quot;:&quot;1998&quot;,&quot;token&quot;:&quot;a:1&quot;,&quot;signature&quot;:&quot;a:1&quot;,&quot;imageName&quot;:&quot;page-003.jpg&quot;,&quot;imageId&quot;:3,&quot;bounds&quot;:{&quot;x&quot;:2263,&quot;y&quot;:1119,&quot;w&quot;:35,&quot;h&quot;:85},&quot;atoms&quot;:[{&quot;id&quot;:1998,&quot;token&quot;:&quot;a:1&quot;,&quot;particle_id&quot;:&quot;img3-m50-p1&quot;,&quot;molecule_id&quot;:&quot;img3-m50&quot;,&quot;atom_order&quot;:4}]}</metadata>
  <rect x="0" y="0" width="35" height="85" fill="#f8f0d8"/>
  <image href="file:///C:/Users/HHHES/AppData/Roaming/com.voynichlab.datasetcreator/images/1/35a70f63-88ab-4986-b441-b78046a10087.jpg" x="-2263" y="-1119" width="2972" height="3766" opacity="0.92"/>
  <rect x="0.5" y="0.5" width="34" height="84" fill="none" stroke="#111827" stroke-width="1" opacity="0.35"/>
  <polyline points="16,16 17,24 17,25 17,26 17,28 17,29 17,30 17,31 17,32 17,33 17,34 17,35 17,36 17,37 17,38 17,39 17,40 17,41 17,42 17,43 17,44 18,45 18,46 18,49 18,50 18,51 18,52 18,53 18,54 18,55 18,56 18,57 18,58 18,59 18,60 18,61 19,62 19,63 19,64 19,65 19,66 19,67 19,68 19,69" fill="none" stroke="#00f0b5" stroke-width="3" stroke-linecap="round" stroke-linejoin="round" opacity="0.95">
    <title>1998 a:1</title>
  </polyline>
</svg>
