<?xml version="1.0" encoding="UTF-8"?>
<svg xmlns="http://www.w3.org/2000/svg" width="38" height="87" viewBox="0 0 38 87">
  <title>atom 2177 a:1</title>
  <metadata>{&quot;entityType&quot;:&quot;atom&quot;,&quot;entityId&quot;:&quot;2177&quot;,&quot;token&quot;:&quot;a:1&quot;,&quot;signature&quot;:&quot;a:1&quot;,&quot;imageName&quot;:&quot;page-003.jpg&quot;,&quot;imageId&quot;:3,&quot;bounds&quot;:{&quot;x&quot;:1573,&quot;y&quot;:1456,&quot;w&quot;:38,&quot;h&quot;:87},&quot;atoms&quot;:[{&quot;id&quot;:2177,&quot;token&quot;:&quot;a:1&quot;,&quot;particle_id&quot;:&quot;img3-m70-p2&quot;,&quot;molecule_id&quot;:&quot;img3-m70&quot;,&quot;atom_order&quot;:1}]}</metadata>
  <rect x="0" y="0" width="38" height="87" fill="#f8f0d8"/>
  <image href="file:///C:/Users/HHHES/AppData/Roaming/com.voynichlab.datasetcreator/images/1/35a70f63-88ab-4986-b441-b78046a10087.jpg" x="-1573" y="-1456" width="2972" height="3766" opacity="0.92"/>
  <rect x="0.5" y="0.5" width="37" height="86" fill="none" stroke="#111827" stroke-width="1" opacity="0.35"/>
  <polyline points="16,71 17,54 19,48 19,47 19,46 19,45 19,44 19,43 19,42 19,40 20,35 20,34 20,33 20,32 20,31 20,30 21,29 21,28 21,27 21,26 21,25 21,24 21,23 21,22 21,21 21,20 21,19 21,18 22,16" fill="none" stroke="#00f0b5" stroke-width="3" stroke-linecap="round" stroke-linejoin="round" opacity="0.95">
    <title>2177 a:1</title>
  </polyline>
</svg>
