<?xml version="1.0" encoding="UTF-8"?>
<svg xmlns="http://www.w3.org/2000/svg" width="40" height="99" viewBox="0 0 40 99">
  <title>atom 2178 a:1</title>
  <metadata>{&quot;entityType&quot;:&quot;atom&quot;,&quot;entityId&quot;:&quot;2178&quot;,&quot;token&quot;:&quot;a:1&quot;,&quot;signature&quot;:&quot;a:1&quot;,&quot;imageName&quot;:&quot;page-003.jpg&quot;,&quot;imageId&quot;:3,&quot;bounds&quot;:{&quot;x&quot;:1593,&quot;y&quot;:1443,&quot;w&quot;:40,&quot;h&quot;:99},&quot;atoms&quot;:[{&quot;id&quot;:2178,&quot;token&quot;:&quot;a:1&quot;,&quot;particle_id&quot;:&quot;img3-m70-p2&quot;,&quot;molecule_id&quot;:&quot;img3-m70&quot;,&quot;atom_order&quot;:4}]}</metadata>
  <rect x="0" y="0" width="40" height="99" fill="#f8f0d8"/>
  <image href="file:///C:/Users/HHHES/AppData/Roaming/com.voynichlab.datasetcreator/images/1/35a70f63-88ab-4986-b441-b78046a10087.jpg" x="-1593" y="-1443" width="2972" height="3766" opacity="0.92"/>
  <rect x="0.5" y="0.5" width="39" height="98" fill="none" stroke="#111827" stroke-width="1" opacity="0.35"/>
  <polyline points="16,83 17,64 18,61 18,60 19,59 19,58 19,56 19,55 19,54 19,53 19,51 19,50 19,49 19,48 19,43 20,42 20,40 20,39 20,38 20,37 20,36 20,35 20,33 21,32 21,30 21,29 21,28 21,27 21,26 21,25 22,24 22,23 22,22 23,21 23,20 23,19 24,18 24,17 24,16" fill="none" stroke="#00f0b5" stroke-width="3" stroke-linecap="round" stroke-linejoin="round" opacity="0.95">
    <title>2178 a:1</title>
  </polyline>
</svg>
