<?xml version="1.0" encoding="UTF-8"?>
<svg xmlns="http://www.w3.org/2000/svg" width="35" height="125" viewBox="0 0 35 125">
  <title>atom 2205 a:1</title>
  <metadata>{&quot;entityType&quot;:&quot;atom&quot;,&quot;entityId&quot;:&quot;2205&quot;,&quot;token&quot;:&quot;a:1&quot;,&quot;signature&quot;:&quot;a:1&quot;,&quot;imageName&quot;:&quot;page-003.jpg&quot;,&quot;imageId&quot;:3,&quot;bounds&quot;:{&quot;x&quot;:2047,&quot;y&quot;:1441,&quot;w&quot;:35,&quot;h&quot;:125},&quot;atoms&quot;:[{&quot;id&quot;:2205,&quot;token&quot;:&quot;a:1&quot;,&quot;particle_id&quot;:&quot;img3-m68-p1&quot;,&quot;molecule_id&quot;:&quot;img3-m68&quot;,&quot;atom_order&quot;:2}]}</metadata>
  <rect x="0" y="0" width="35" height="125" fill="#f8f0d8"/>
  <image href="file:///C:/Users/HHHES/AppData/Roaming/com.voynichlab.datasetcreator/images/1/35a70f63-88ab-4986-b441-b78046a10087.jpg" x="-2047" y="-1441" width="2972" height="3766" opacity="0.92"/>
  <rect x="0.5" y="0.5" width="34" height="124" fill="none" stroke="#111827" stroke-width="1" opacity="0.35"/>
  <polyline points="16,109 16,108 17,108 17,107 17,106 17,105 17,104 17,103 17,102 17,101 17,100 17,99 17,98 17,97 17,96 17,95 18,94 18,93 18,92 18,91 18,90 18,89 18,88 18,87 18,86 18,85 18,84 18,83 18,82 19,82 19,81 19,80 19,79 19,78 19,77 19,76 19,75 19,74 19,73 19,72 19,71 19,70 19,69 19,68 19,67 19,66 19,65 19,64 19,63 19,62 19,61 19,60 19,59 19,58 19,57 19,56 19,55 19,54 19,53 19,52 19,51 19,50 19,49 19,48 19,47 19,46 19,45 19,44 19,43 19,42 19,41 19,40 19,39 19,38 19,37 19,36 19,35 19,34 19,33 19,32 19,31 19,30 19,29 19,28 18,27 18,26 18,25 18,24 18,23 18,22 18,21 18,20 17,20 17,19 17,18 17,17 17,16" fill="none" stroke="#00f0b5" stroke-width="3" stroke-linecap="round" stroke-linejoin="round" opacity="0.95">
    <title>2205 a:1</title>
  </polyline>
</svg>
