<?xml version="1.0" encoding="UTF-8"?>
<svg xmlns="http://www.w3.org/2000/svg" width="34" height="108" viewBox="0 0 34 108">
  <title>atom 2227 a:1</title>
  <metadata>{&quot;entityType&quot;:&quot;atom&quot;,&quot;entityId&quot;:&quot;2227&quot;,&quot;token&quot;:&quot;a:1&quot;,&quot;signature&quot;:&quot;a:1&quot;,&quot;imageName&quot;:&quot;page-003.jpg&quot;,&quot;imageId&quot;:3,&quot;bounds&quot;:{&quot;x&quot;:586,&quot;y&quot;:1556,&quot;w&quot;:34,&quot;h&quot;:108},&quot;atoms&quot;:[{&quot;id&quot;:2227,&quot;token&quot;:&quot;a:1&quot;,&quot;particle_id&quot;:&quot;img3-m84-p2&quot;,&quot;molecule_id&quot;:&quot;img3-m84&quot;,&quot;atom_order&quot;:1}]}</metadata>
  <rect x="0" y="0" width="34" height="108" fill="#f8f0d8"/>
  <image href="file:///C:/Users/HHHES/AppData/Roaming/com.voynichlab.datasetcreator/images/1/35a70f63-88ab-4986-b441-b78046a10087.jpg" x="-586" y="-1556" width="2972" height="3766" opacity="0.92"/>
  <rect x="0.5" y="0.5" width="33" height="107" fill="none" stroke="#111827" stroke-width="1" opacity="0.35"/>
  <polyline points="16,92 16,91 16,90 16,89 16,88 16,87 16,86 16,85 16,84 16,83 16,82 16,81 16,80 16,79 16,78 16,77 16,76 16,75 17,75 17,74 17,73 17,72 17,71 17,70 17,69 17,68 17,67 17,66 17,65 17,64 17,63 17,62 18,61 18,60 18,59 18,58 18,57 18,56 18,55 18,54 18,53 18,52 18,51 18,50 18,49 18,48 18,47 18,46 18,45 17,45 17,44 17,43 17,42 17,41 17,40 17,39 17,38 17,37 17,36 17,35 17,34 17,33 17,32 17,31 17,30 16,29 16,28 16,27 16,26 16,25 16,24 16,23 16,22 16,21 16,20 16,19 16,18 16,17 16,16" fill="none" stroke="#00f0b5" stroke-width="3" stroke-linecap="round" stroke-linejoin="round" opacity="0.95">
    <title>2227 a:1</title>
  </polyline>
</svg>
