<?xml version="1.0" encoding="UTF-8"?>
<svg xmlns="http://www.w3.org/2000/svg" width="38" height="98" viewBox="0 0 38 98">
  <title>atom 2239 a:1</title>
  <metadata>{&quot;entityType&quot;:&quot;atom&quot;,&quot;entityId&quot;:&quot;2239&quot;,&quot;token&quot;:&quot;a:1&quot;,&quot;signature&quot;:&quot;a:1&quot;,&quot;imageName&quot;:&quot;page-003.jpg&quot;,&quot;imageId&quot;:3,&quot;bounds&quot;:{&quot;x&quot;:793,&quot;y&quot;:1546,&quot;w&quot;:38,&quot;h&quot;:98},&quot;atoms&quot;:[{&quot;id&quot;:2239,&quot;token&quot;:&quot;a:1&quot;,&quot;particle_id&quot;:&quot;img3-m73-p1&quot;,&quot;molecule_id&quot;:&quot;img3-m73&quot;,&quot;atom_order&quot;:4}]}</metadata>
  <rect x="0" y="0" width="38" height="98" fill="#f8f0d8"/>
  <image href="file:///C:/Users/HHHES/AppData/Roaming/com.voynichlab.datasetcreator/images/1/35a70f63-88ab-4986-b441-b78046a10087.jpg" x="-793" y="-1546" width="2972" height="3766" opacity="0.92"/>
  <rect x="0.5" y="0.5" width="37" height="97" fill="none" stroke="#111827" stroke-width="1" opacity="0.35"/>
  <polyline points="22,16 22,17 22,18 22,19 22,20 22,21 21,22 21,23 21,24 21,25 21,26 21,27 21,28 21,29 21,30 21,31 21,32 20,33 20,34 20,35 20,36 20,37 20,38 20,39 20,40 20,41 20,42 20,43 20,44 20,45 19,45 19,46 19,47 19,48 19,49 19,50 19,51 19,52 19,53 19,54 19,55 19,56 19,57 19,58 18,59 18,60 18,61 18,62 18,63 18,64 18,65 18,66 17,67 17,68 17,69 17,70 17,71 17,72 17,73 17,74 17,75 17,76 16,76 16,77 16,78 16,79 16,80 16,81 16,82" fill="none" stroke="#00f0b5" stroke-width="3" stroke-linecap="round" stroke-linejoin="round" opacity="0.95">
    <title>2239 a:1</title>
  </polyline>
</svg>
