<?xml version="1.0" encoding="UTF-8"?>
<svg xmlns="http://www.w3.org/2000/svg" width="34" height="107" viewBox="0 0 34 107">
  <title>atom 2312 a:1</title>
  <metadata>{&quot;entityType&quot;:&quot;atom&quot;,&quot;entityId&quot;:&quot;2312&quot;,&quot;token&quot;:&quot;a:1&quot;,&quot;signature&quot;:&quot;a:1&quot;,&quot;imageName&quot;:&quot;page-003.jpg&quot;,&quot;imageId&quot;:3,&quot;bounds&quot;:{&quot;x&quot;:2045,&quot;y&quot;:1548,&quot;w&quot;:34,&quot;h&quot;:107},&quot;atoms&quot;:[{&quot;id&quot;:2312,&quot;token&quot;:&quot;a:1&quot;,&quot;particle_id&quot;:&quot;img3-m75-p2&quot;,&quot;molecule_id&quot;:&quot;img3-m75&quot;,&quot;atom_order&quot;:2}]}</metadata>
  <rect x="0" y="0" width="34" height="107" fill="#f8f0d8"/>
  <image href="file:///C:/Users/HHHES/AppData/Roaming/com.voynichlab.datasetcreator/images/1/35a70f63-88ab-4986-b441-b78046a10087.jpg" x="-2045" y="-1548" width="2972" height="3766" opacity="0.92"/>
  <rect x="0.5" y="0.5" width="33" height="106" fill="none" stroke="#111827" stroke-width="1" opacity="0.35"/>
  <polyline points="18,91 18,90 18,89 18,88 18,87 18,86 18,85 17,85 17,84 17,83 17,82 17,81 17,80 17,79 17,78 17,77 17,76 17,75 17,74 17,73 17,72 17,71 17,70 17,69 17,68 17,67 17,66 17,65 17,64 17,63 17,62 17,61 17,60 17,59 18,59 18,58 18,57 18,56 18,55 18,54 18,53 18,52 18,51 18,50 18,49 18,48 18,47 18,46 18,45 18,44 18,43 18,42 18,41 18,40 18,39 18,38 18,37 18,36 18,35 18,34 18,33 17,32 17,31 17,30 17,29 17,28 17,27 17,26 17,25 17,24 17,23 17,22 16,21 16,20 16,19 16,18 16,17 16,16" fill="none" stroke="#00f0b5" stroke-width="3" stroke-linecap="round" stroke-linejoin="round" opacity="0.95">
    <title>2312 a:1</title>
  </polyline>
</svg>
