<?xml version="1.0" encoding="UTF-8"?>
<svg xmlns="http://www.w3.org/2000/svg" width="38" height="105" viewBox="0 0 38 105">
  <title>atom 2398 a:1</title>
  <metadata>{&quot;entityType&quot;:&quot;atom&quot;,&quot;entityId&quot;:&quot;2398&quot;,&quot;token&quot;:&quot;a:1&quot;,&quot;signature&quot;:&quot;a:1&quot;,&quot;imageName&quot;:&quot;page-003.jpg&quot;,&quot;imageId&quot;:3,&quot;bounds&quot;:{&quot;x&quot;:1438,&quot;y&quot;:1625,&quot;w&quot;:38,&quot;h&quot;:105},&quot;atoms&quot;:[{&quot;id&quot;:2398,&quot;token&quot;:&quot;a:1&quot;,&quot;particle_id&quot;:&quot;img3-m82-p1&quot;,&quot;molecule_id&quot;:&quot;img3-m82&quot;,&quot;atom_order&quot;:2}]}</metadata>
  <rect x="0" y="0" width="38" height="105" fill="#f8f0d8"/>
  <image href="file:///C:/Users/HHHES/AppData/Roaming/com.voynichlab.datasetcreator/images/1/35a70f63-88ab-4986-b441-b78046a10087.jpg" x="-1438" y="-1625" width="2972" height="3766" opacity="0.92"/>
  <rect x="0.5" y="0.5" width="37" height="104" fill="none" stroke="#111827" stroke-width="1" opacity="0.35"/>
  <polyline points="16,89 16,88 16,87 16,86 16,85 16,84 16,83 16,82 16,81 16,80 16,79 16,78 16,77 16,76 16,75 16,74 16,73 16,72 17,71 17,70 17,69 17,68 17,67 17,66 18,65 18,64 18,63 18,62 18,61 18,60 18,59 18,58 18,57 18,56 18,55 19,55 19,54 19,53 19,52 19,51 19,50 19,49 19,48 19,47 20,47 20,46 20,45 20,44 20,43 20,42 20,41 20,40 20,39 20,38 20,37 21,36 21,35 21,34 21,33 21,32 21,31 21,30 21,29 21,28 21,27 21,26 21,25 21,24 22,24 22,23 22,22 22,21 22,20 22,19 22,18 22,17 22,16" fill="none" stroke="#00f0b5" stroke-width="3" stroke-linecap="round" stroke-linejoin="round" opacity="0.95">
    <title>2398 a:1</title>
  </polyline>
</svg>
