<?xml version="1.0" encoding="UTF-8"?>
<svg xmlns="http://www.w3.org/2000/svg" width="37" height="106" viewBox="0 0 37 106">
  <title>atom 2424 a:1</title>
  <metadata>{&quot;entityType&quot;:&quot;atom&quot;,&quot;entityId&quot;:&quot;2424&quot;,&quot;token&quot;:&quot;a:1&quot;,&quot;signature&quot;:&quot;a:1&quot;,&quot;imageName&quot;:&quot;page-003.jpg&quot;,&quot;imageId&quot;:3,&quot;bounds&quot;:{&quot;x&quot;:1765,&quot;y&quot;:1637,&quot;w&quot;:37,&quot;h&quot;:106},&quot;atoms&quot;:[{&quot;id&quot;:2424,&quot;token&quot;:&quot;a:1&quot;,&quot;particle_id&quot;:&quot;img3-m85-p1&quot;,&quot;molecule_id&quot;:&quot;img3-m85&quot;,&quot;atom_order&quot;:2}]}</metadata>
  <rect x="0" y="0" width="37" height="106" fill="#f8f0d8"/>
  <image href="file:///C:/Users/HHHES/AppData/Roaming/com.voynichlab.datasetcreator/images/1/35a70f63-88ab-4986-b441-b78046a10087.jpg" x="-1765" y="-1637" width="2972" height="3766" opacity="0.92"/>
  <rect x="0.5" y="0.5" width="36" height="105" fill="none" stroke="#111827" stroke-width="1" opacity="0.35"/>
  <polyline points="16,90 16,89 16,88 16,87 17,87 17,86 17,85 17,84 17,83 17,82 17,81 17,80 17,79 17,78 18,78 18,77 18,76 18,75 18,74 18,73 18,72 18,71 18,70 18,69 18,68 18,67 18,66 18,65 18,64 18,63 18,62 19,62 19,61 19,60 19,59 19,58 19,57 19,56 19,55 19,54 19,53 19,52 19,51 19,50 19,49 19,48 19,47 19,46 19,45 19,44 20,44 20,43 20,42 20,41 20,40 20,39 20,38 20,37 20,36 20,35 20,34 20,33 21,33 21,32 21,31 21,30 21,29 21,28 21,27 21,26 21,25 21,24 21,23 20,23 20,22 20,21 20,20 19,20 19,19 19,18 19,17 19,16 18,16" fill="none" stroke="#00f0b5" stroke-width="3" stroke-linecap="round" stroke-linejoin="round" opacity="0.95">
    <title>2424 a:1</title>
  </polyline>
</svg>
