<?xml version="1.0" encoding="UTF-8"?>
<svg xmlns="http://www.w3.org/2000/svg" width="36" height="98" viewBox="0 0 36 98">
  <title>atom 2430 a:1</title>
  <metadata>{&quot;entityType&quot;:&quot;atom&quot;,&quot;entityId&quot;:&quot;2430&quot;,&quot;token&quot;:&quot;a:1&quot;,&quot;signature&quot;:&quot;a:1&quot;,&quot;imageName&quot;:&quot;page-003.jpg&quot;,&quot;imageId&quot;:3,&quot;bounds&quot;:{&quot;x&quot;:1779,&quot;y&quot;:1645,&quot;w&quot;:36,&quot;h&quot;:98},&quot;atoms&quot;:[{&quot;id&quot;:2430,&quot;token&quot;:&quot;a:1&quot;,&quot;particle_id&quot;:&quot;img3-m85-p1&quot;,&quot;molecule_id&quot;:&quot;img3-m85&quot;,&quot;atom_order&quot;:6}]}</metadata>
  <rect x="0" y="0" width="36" height="98" fill="#f8f0d8"/>
  <image href="file:///C:/Users/HHHES/AppData/Roaming/com.voynichlab.datasetcreator/images/1/35a70f63-88ab-4986-b441-b78046a10087.jpg" x="-1779" y="-1645" width="2972" height="3766" opacity="0.92"/>
  <rect x="0.5" y="0.5" width="35" height="97" fill="none" stroke="#111827" stroke-width="1" opacity="0.35"/>
  <polyline points="17,16 17,17 17,18 17,19 17,20 17,21 17,22 17,23 17,24 17,25 17,26 17,27 17,28 17,29 17,30 17,31 17,32 17,33 17,34 17,35 17,36 17,37 17,38 17,39 17,40 17,41 17,42 17,43 17,44 17,45 17,46 17,47 17,48 17,49 17,50 17,51 16,51 16,52 16,53 16,54 16,55 16,56 16,57 16,58 17,58 17,59 17,60 17,61 17,62 17,63 17,64 17,65 17,66 17,67 17,68 18,68 18,69 18,70 18,71 18,72 18,73 18,74 19,74 19,75 19,76 19,77 19,78 19,79 19,80 20,80 20,81 20,82" fill="none" stroke="#00f0b5" stroke-width="3" stroke-linecap="round" stroke-linejoin="round" opacity="0.95">
    <title>2430 a:1</title>
  </polyline>
</svg>
