<?xml version="1.0" encoding="UTF-8"?>
<svg xmlns="http://www.w3.org/2000/svg" width="34" height="96" viewBox="0 0 34 96">
  <title>atom 2484 a:1</title>
  <metadata>{&quot;entityType&quot;:&quot;atom&quot;,&quot;entityId&quot;:&quot;2484&quot;,&quot;token&quot;:&quot;a:1&quot;,&quot;signature&quot;:&quot;a:1&quot;,&quot;imageName&quot;:&quot;page-003.jpg&quot;,&quot;imageId&quot;:3,&quot;bounds&quot;:{&quot;x&quot;:2291,&quot;y&quot;:1719,&quot;w&quot;:34,&quot;h&quot;:96},&quot;atoms&quot;:[{&quot;id&quot;:2484,&quot;token&quot;:&quot;a:1&quot;,&quot;particle_id&quot;:&quot;img3-m89-p1&quot;,&quot;molecule_id&quot;:&quot;img3-m89&quot;,&quot;atom_order&quot;:1}]}</metadata>
  <rect x="0" y="0" width="34" height="96" fill="#f8f0d8"/>
  <image href="file:///C:/Users/HHHES/AppData/Roaming/com.voynichlab.datasetcreator/images/1/35a70f63-88ab-4986-b441-b78046a10087.jpg" x="-2291" y="-1719" width="2972" height="3766" opacity="0.92"/>
  <rect x="0.5" y="0.5" width="33" height="95" fill="none" stroke="#111827" stroke-width="1" opacity="0.35"/>
  <polyline points="16,80 16,79 16,78 16,77 16,76 16,75 16,74 16,73 16,72 16,71 16,70 16,69 16,68 16,67 16,66 16,65 16,64 16,63 16,62 16,61 16,60 16,59 16,58 16,57 16,56 16,55 16,54 17,53 17,52 17,51 17,50 17,49 17,48 17,47 17,46 17,45 17,44 17,43 17,42 17,41 17,40 17,39 17,38 17,37 17,36 17,35 17,34 17,33 17,32 17,31 17,30 17,29 17,28 18,28 18,27 18,26 18,25 18,24 18,23 18,22 18,21 18,20 18,19 18,18 18,17 18,16" fill="none" stroke="#00f0b5" stroke-width="3" stroke-linecap="round" stroke-linejoin="round" opacity="0.95">
    <title>2484 a:1</title>
  </polyline>
</svg>
