<?xml version="1.0" encoding="UTF-8"?>
<svg xmlns="http://www.w3.org/2000/svg" width="35" height="94" viewBox="0 0 35 94">
  <title>atom 2500 a:1</title>
  <metadata>{&quot;entityType&quot;:&quot;atom&quot;,&quot;entityId&quot;:&quot;2500&quot;,&quot;token&quot;:&quot;a:1&quot;,&quot;signature&quot;:&quot;a:1&quot;,&quot;imageName&quot;:&quot;page-003.jpg&quot;,&quot;imageId&quot;:3,&quot;bounds&quot;:{&quot;x&quot;:2124,&quot;y&quot;:1720,&quot;w&quot;:35,&quot;h&quot;:94},&quot;atoms&quot;:[{&quot;id&quot;:2500,&quot;token&quot;:&quot;a:1&quot;,&quot;particle_id&quot;:&quot;img3-m90-p1&quot;,&quot;molecule_id&quot;:&quot;img3-m90&quot;,&quot;atom_order&quot;:2}]}</metadata>
  <rect x="0" y="0" width="35" height="94" fill="#f8f0d8"/>
  <image href="file:///C:/Users/HHHES/AppData/Roaming/com.voynichlab.datasetcreator/images/1/35a70f63-88ab-4986-b441-b78046a10087.jpg" x="-2124" y="-1720" width="2972" height="3766" opacity="0.92"/>
  <rect x="0.5" y="0.5" width="34" height="93" fill="none" stroke="#111827" stroke-width="1" opacity="0.35"/>
  <polyline points="17,78 17,77 17,76 17,75 17,74 17,73 17,72 17,71 18,71 18,70 18,69 18,68 18,67 18,66 18,65 18,64 18,63 18,62 18,61 18,60 18,59 18,58 18,57 18,56 18,55 18,54 18,53 18,52 18,51 18,50 18,49 18,48 18,47 18,46 18,45 18,44 18,43 18,42 18,41 18,40 18,39 18,38 19,38 19,37 19,36 19,35 19,34 19,33 19,32 19,31 19,30 18,30 18,29 18,28 18,27 18,26 18,25 18,24 18,23 18,22 18,21 17,21 17,20 17,19 17,18 17,17 17,16 16,16" fill="none" stroke="#00f0b5" stroke-width="3" stroke-linecap="round" stroke-linejoin="round" opacity="0.95">
    <title>2500 a:1</title>
  </polyline>
</svg>
