<?xml version="1.0" encoding="UTF-8"?>
<svg xmlns="http://www.w3.org/2000/svg" width="34" height="84" viewBox="0 0 34 84">
  <title>atom 2502 a:1</title>
  <metadata>{&quot;entityType&quot;:&quot;atom&quot;,&quot;entityId&quot;:&quot;2502&quot;,&quot;token&quot;:&quot;a:1&quot;,&quot;signature&quot;:&quot;a:1&quot;,&quot;imageName&quot;:&quot;page-003.jpg&quot;,&quot;imageId&quot;:3,&quot;bounds&quot;:{&quot;x&quot;:2145,&quot;y&quot;:1729,&quot;w&quot;:34,&quot;h&quot;:84},&quot;atoms&quot;:[{&quot;id&quot;:2502,&quot;token&quot;:&quot;a:1&quot;,&quot;particle_id&quot;:&quot;img3-m90-p1&quot;,&quot;molecule_id&quot;:&quot;img3-m90&quot;,&quot;atom_order&quot;:6}]}</metadata>
  <rect x="0" y="0" width="34" height="84" fill="#f8f0d8"/>
  <image href="file:///C:/Users/HHHES/AppData/Roaming/com.voynichlab.datasetcreator/images/1/35a70f63-88ab-4986-b441-b78046a10087.jpg" x="-2145" y="-1729" width="2972" height="3766" opacity="0.92"/>
  <rect x="0.5" y="0.5" width="33" height="83" fill="none" stroke="#111827" stroke-width="1" opacity="0.35"/>
  <polyline points="18,68 18,65 18,64 18,63 17,56 17,53 17,52 17,51 17,50 17,49 17,48 17,47 17,46 17,45 17,44 16,44 16,43 16,42 16,41 16,40 16,39 16,38 16,37 16,36 16,35 16,34 16,33 16,32 16,31 16,30 16,29 16,28 16,27 16,26 16,25 16,24 16,23 16,22 16,21 16,20 16,19 16,18 16,17 16,16 17,16" fill="none" stroke="#00f0b5" stroke-width="3" stroke-linecap="round" stroke-linejoin="round" opacity="0.95">
    <title>2502 a:1</title>
  </polyline>
</svg>
