<?xml version="1.0" encoding="UTF-8"?>
<svg xmlns="http://www.w3.org/2000/svg" width="38" height="97" viewBox="0 0 38 97">
  <title>atom 3225 a:1</title>
  <metadata>{&quot;entityType&quot;:&quot;atom&quot;,&quot;entityId&quot;:&quot;3225&quot;,&quot;token&quot;:&quot;a:1&quot;,&quot;signature&quot;:&quot;a:1&quot;,&quot;imageName&quot;:&quot;page-003.jpg&quot;,&quot;imageId&quot;:3,&quot;bounds&quot;:{&quot;x&quot;:2045,&quot;y&quot;:1802,&quot;w&quot;:38,&quot;h&quot;:97},&quot;atoms&quot;:[{&quot;id&quot;:3225,&quot;token&quot;:&quot;a:1&quot;,&quot;particle_id&quot;:&quot;img3-m101-p1&quot;,&quot;molecule_id&quot;:&quot;img3-m101&quot;,&quot;atom_order&quot;:4}]}</metadata>
  <rect x="0" y="0" width="38" height="97" fill="#f8f0d8"/>
  <image href="file:///C:/Users/HHHES/AppData/Roaming/com.voynichlab.datasetcreator/images/1/35a70f63-88ab-4986-b441-b78046a10087.jpg" x="-2045" y="-1802" width="2972" height="3766" opacity="0.92"/>
  <rect x="0.5" y="0.5" width="37" height="96" fill="none" stroke="#111827" stroke-width="1" opacity="0.35"/>
  <polyline points="22,16 22,17 22,18 22,19 21,19 21,20 21,21 21,22 21,23 21,24 21,25 21,26 21,27 21,28 21,29 21,30 21,31 20,32 20,33 20,34 20,35 20,36 20,37 20,38 20,39 20,40 20,41 20,43 19,44 19,45 19,46 19,47 19,48 19,49 19,50 19,52 19,53 19,54 18,55 18,56 18,57 18,58 18,59 18,61 17,62 17,63 17,64 17,65 17,66 17,67 17,68 17,69 17,70 17,72 17,73 17,74 16,76 16,77 16,78 16,79 16,80 16,81" fill="none" stroke="#00f0b5" stroke-width="3" stroke-linecap="round" stroke-linejoin="round" opacity="0.95">
    <title>3225 a:1</title>
  </polyline>
</svg>
