<?xml version="1.0" encoding="UTF-8"?>
<svg xmlns="http://www.w3.org/2000/svg" width="34" height="92" viewBox="0 0 34 92">
  <title>atom 3367 a:1</title>
  <metadata>{&quot;entityType&quot;:&quot;atom&quot;,&quot;entityId&quot;:&quot;3367&quot;,&quot;token&quot;:&quot;a:1&quot;,&quot;signature&quot;:&quot;a:1&quot;,&quot;imageName&quot;:&quot;page-003.jpg&quot;,&quot;imageId&quot;:3,&quot;bounds&quot;:{&quot;x&quot;:743,&quot;y&quot;:1945,&quot;w&quot;:34,&quot;h&quot;:92},&quot;atoms&quot;:[{&quot;id&quot;:3367,&quot;token&quot;:&quot;a:1&quot;,&quot;particle_id&quot;:&quot;img3-m119-p3&quot;,&quot;molecule_id&quot;:&quot;img3-m119&quot;,&quot;atom_order&quot;:1}]}</metadata>
  <rect x="0" y="0" width="34" height="92" fill="#f8f0d8"/>
  <image href="file:///C:/Users/HHHES/AppData/Roaming/com.voynichlab.datasetcreator/images/1/35a70f63-88ab-4986-b441-b78046a10087.jpg" x="-743" y="-1945" width="2972" height="3766" opacity="0.92"/>
  <rect x="0.5" y="0.5" width="33" height="91" fill="none" stroke="#111827" stroke-width="1" opacity="0.35"/>
  <polyline points="17,16 17,17 17,18 17,19 17,20 17,21 17,22 17,23 17,24 17,25 17,26 17,27 17,28 17,29 17,30 18,31 18,32 18,33 18,34 18,35 18,36 18,37 18,38 18,39 18,40 17,41 17,42 17,43 17,44 17,45 17,46 17,47 17,48 17,49 17,50 17,51 17,52 17,53 17,54 17,55 17,56 16,57 16,58 16,59 16,60 16,61 16,62 16,63 16,64 16,65 16,66 16,67 16,68 16,69 16,70 16,71 16,72 16,73 16,74 16,75 16,76" fill="none" stroke="#00f0b5" stroke-width="3" stroke-linecap="round" stroke-linejoin="round" opacity="0.95">
    <title>3367 a:1</title>
  </polyline>
</svg>
