<?xml version="1.0" encoding="UTF-8"?>
<svg xmlns="http://www.w3.org/2000/svg" width="36" height="99" viewBox="0 0 36 99">
  <title>atom 3374 a:1</title>
  <metadata>{&quot;entityType&quot;:&quot;atom&quot;,&quot;entityId&quot;:&quot;3374&quot;,&quot;token&quot;:&quot;a:1&quot;,&quot;signature&quot;:&quot;a:1&quot;,&quot;imageName&quot;:&quot;page-003.jpg&quot;,&quot;imageId&quot;:3,&quot;bounds&quot;:{&quot;x&quot;:1952,&quot;y&quot;:1956,&quot;w&quot;:36,&quot;h&quot;:99},&quot;atoms&quot;:[{&quot;id&quot;:3374,&quot;token&quot;:&quot;a:1&quot;,&quot;particle_id&quot;:&quot;img3-m120-p1&quot;,&quot;molecule_id&quot;:&quot;img3-m120&quot;,&quot;atom_order&quot;:6}]}</metadata>
  <rect x="0" y="0" width="36" height="99" fill="#f8f0d8"/>
  <image href="file:///C:/Users/HHHES/AppData/Roaming/com.voynichlab.datasetcreator/images/1/35a70f63-88ab-4986-b441-b78046a10087.jpg" x="-1952" y="-1956" width="2972" height="3766" opacity="0.92"/>
  <rect x="0.5" y="0.5" width="35" height="98" fill="none" stroke="#111827" stroke-width="1" opacity="0.35"/>
  <polyline points="19,16 20,16 20,17 19,18 19,19 19,20 19,21 19,22 19,23 19,24 19,25 19,26 19,27 19,29 19,30 19,31 19,32 19,33 19,34 19,35 19,36 19,37 19,38 19,40 19,41 19,42 19,43 19,44 19,45 19,46 19,47 19,48 19,49 19,50 19,51 19,52 19,53 19,54 18,55 18,56 18,57 18,58 18,59 18,60 18,61 18,62 18,63 18,64 17,65 17,66 17,67 17,68 17,69 17,70 17,71 17,72 17,73 17,74 17,75 17,76 17,77 17,78 17,79 17,80 17,81 16,81 16,82 16,83 16,82" fill="none" stroke="#00f0b5" stroke-width="3" stroke-linecap="round" stroke-linejoin="round" opacity="0.95">
    <title>3374 a:1</title>
  </polyline>
</svg>
