<?xml version="1.0" encoding="UTF-8"?>
<svg xmlns="http://www.w3.org/2000/svg" width="38" height="95" viewBox="0 0 38 95">
  <title>atom 3445 a:1</title>
  <metadata>{&quot;entityType&quot;:&quot;atom&quot;,&quot;entityId&quot;:&quot;3445&quot;,&quot;token&quot;:&quot;a:1&quot;,&quot;signature&quot;:&quot;a:1&quot;,&quot;imageName&quot;:&quot;page-003.jpg&quot;,&quot;imageId&quot;:3,&quot;bounds&quot;:{&quot;x&quot;:593,&quot;y&quot;:2030,&quot;w&quot;:38,&quot;h&quot;:95},&quot;atoms&quot;:[{&quot;id&quot;:3445,&quot;token&quot;:&quot;a:1&quot;,&quot;particle_id&quot;:&quot;img3-m133-p2&quot;,&quot;molecule_id&quot;:&quot;img3-m133&quot;,&quot;atom_order&quot;:1}]}</metadata>
  <rect x="0" y="0" width="38" height="95" fill="#f8f0d8"/>
  <image href="file:///C:/Users/HHHES/AppData/Roaming/com.voynichlab.datasetcreator/images/1/35a70f63-88ab-4986-b441-b78046a10087.jpg" x="-593" y="-2030" width="2972" height="3766" opacity="0.92"/>
  <rect x="0.5" y="0.5" width="37" height="94" fill="none" stroke="#111827" stroke-width="1" opacity="0.35"/>
  <polyline points="16,16 17,17 17,18 17,19 17,20 17,21 18,21 18,22 18,23 18,24 18,25 19,25 19,26 19,27 19,28 19,29 20,30 20,31 20,32 20,33 20,34 20,35 20,36 21,37 21,38 21,39 21,40 21,41 21,42 21,43 21,44 21,45 21,46 21,47 21,48 21,49 21,50 21,51 21,52 22,53 22,54 22,55 22,56 22,57 22,58 22,59 22,60 21,61 21,62 21,63 21,64 21,65 21,66 21,67 21,68 21,69 20,70 20,71 20,72 20,73 20,74 19,75 19,76 19,77 19,78 19,79" fill="none" stroke="#00f0b5" stroke-width="3" stroke-linecap="round" stroke-linejoin="round" opacity="0.95">
    <title>3445 a:1</title>
  </polyline>
</svg>
