<?xml version="1.0" encoding="UTF-8"?>
<svg xmlns="http://www.w3.org/2000/svg" width="36" height="82" viewBox="0 0 36 82">
  <title>atom 3449 a:1</title>
  <metadata>{&quot;entityType&quot;:&quot;atom&quot;,&quot;entityId&quot;:&quot;3449&quot;,&quot;token&quot;:&quot;a:1&quot;,&quot;signature&quot;:&quot;a:1&quot;,&quot;imageName&quot;:&quot;page-003.jpg&quot;,&quot;imageId&quot;:3,&quot;bounds&quot;:{&quot;x&quot;:1386,&quot;y&quot;:2045,&quot;w&quot;:36,&quot;h&quot;:82},&quot;atoms&quot;:[{&quot;id&quot;:3449,&quot;token&quot;:&quot;a:1&quot;,&quot;particle_id&quot;:&quot;img3-m126-p1&quot;,&quot;molecule_id&quot;:&quot;img3-m126&quot;,&quot;atom_order&quot;:2}]}</metadata>
  <rect x="0" y="0" width="36" height="82" fill="#f8f0d8"/>
  <image href="file:///C:/Users/HHHES/AppData/Roaming/com.voynichlab.datasetcreator/images/1/35a70f63-88ab-4986-b441-b78046a10087.jpg" x="-1386" y="-2045" width="2972" height="3766" opacity="0.92"/>
  <rect x="0.5" y="0.5" width="35" height="81" fill="none" stroke="#111827" stroke-width="1" opacity="0.35"/>
  <polyline points="20,16 20,17 19,18 19,19 19,20 19,21 19,23 19,24 19,25 19,26 19,27 19,28 19,29 19,31 19,32 19,33 19,34 19,35 19,36 19,37 19,38 19,39 19,40 19,41 18,41 18,42 18,43 18,44 18,45 18,47 18,48 18,49 18,50 18,51 18,52 17,53 17,55 17,56 17,57 17,58 16,58 16,59 16,60 16,61 16,62 16,63 16,64 16,65 16,66" fill="none" stroke="#00f0b5" stroke-width="3" stroke-linecap="round" stroke-linejoin="round" opacity="0.95">
    <title>3449 a:1</title>
  </polyline>
</svg>
