<?xml version="1.0" encoding="UTF-8"?>
<svg xmlns="http://www.w3.org/2000/svg" width="35" height="85" viewBox="0 0 35 85">
  <title>atom 3451 a:1</title>
  <metadata>{&quot;entityType&quot;:&quot;atom&quot;,&quot;entityId&quot;:&quot;3451&quot;,&quot;token&quot;:&quot;a:1&quot;,&quot;signature&quot;:&quot;a:1&quot;,&quot;imageName&quot;:&quot;page-003.jpg&quot;,&quot;imageId&quot;:3,&quot;bounds&quot;:{&quot;x&quot;:2152,&quot;y&quot;:2061,&quot;w&quot;:35,&quot;h&quot;:85},&quot;atoms&quot;:[{&quot;id&quot;:3451,&quot;token&quot;:&quot;a:1&quot;,&quot;particle_id&quot;:&quot;img3-m128-p1&quot;,&quot;molecule_id&quot;:&quot;img3-m128&quot;,&quot;atom_order&quot;:2}]}</metadata>
  <rect x="0" y="0" width="35" height="85" fill="#f8f0d8"/>
  <image href="file:///C:/Users/HHHES/AppData/Roaming/com.voynichlab.datasetcreator/images/1/35a70f63-88ab-4986-b441-b78046a10087.jpg" x="-2152" y="-2061" width="2972" height="3766" opacity="0.92"/>
  <rect x="0.5" y="0.5" width="34" height="84" fill="none" stroke="#111827" stroke-width="1" opacity="0.35"/>
  <polyline points="16,16 16,17 16,18 17,19 17,20 17,21 17,23 17,24 17,25 18,26 18,27 18,29 18,30 18,32 18,34 19,35 19,36 19,37 19,38 19,40 19,41 19,42 19,43 19,44 19,45 19,46 19,47 19,49 19,50 19,51 19,52 19,53 19,54 19,55 19,56 19,57 19,58 19,59 19,60 19,61 19,62 19,63 19,64 19,65 19,66 19,67 19,68 19,69" fill="none" stroke="#00f0b5" stroke-width="3" stroke-linecap="round" stroke-linejoin="round" opacity="0.95">
    <title>3451 a:1</title>
  </polyline>
</svg>
