<?xml version="1.0" encoding="UTF-8"?>
<svg xmlns="http://www.w3.org/2000/svg" width="35" height="82" viewBox="0 0 35 82">
  <title>atom 3452 a:1</title>
  <metadata>{&quot;entityType&quot;:&quot;atom&quot;,&quot;entityId&quot;:&quot;3452&quot;,&quot;token&quot;:&quot;a:1&quot;,&quot;signature&quot;:&quot;a:1&quot;,&quot;imageName&quot;:&quot;page-003.jpg&quot;,&quot;imageId&quot;:3,&quot;bounds&quot;:{&quot;x&quot;:2170,&quot;y&quot;:2063,&quot;w&quot;:35,&quot;h&quot;:82},&quot;atoms&quot;:[{&quot;id&quot;:3452,&quot;token&quot;:&quot;a:1&quot;,&quot;particle_id&quot;:&quot;img3-m128-p1&quot;,&quot;molecule_id&quot;:&quot;img3-m128&quot;,&quot;atom_order&quot;:5}]}</metadata>
  <rect x="0" y="0" width="35" height="82" fill="#f8f0d8"/>
  <image href="file:///C:/Users/HHHES/AppData/Roaming/com.voynichlab.datasetcreator/images/1/35a70f63-88ab-4986-b441-b78046a10087.jpg" x="-2170" y="-2063" width="2972" height="3766" opacity="0.92"/>
  <rect x="0.5" y="0.5" width="34" height="81" fill="none" stroke="#111827" stroke-width="1" opacity="0.35"/>
  <polyline points="16,16 16,17 16,18 16,19 16,21 16,22 17,24 17,25 17,27 17,28 17,29 17,31 17,32 17,33 17,35 17,36 17,37 17,38 17,39 17,40 17,41 17,42 17,43 17,44 17,45 17,46 17,47 17,48 18,49 18,50 18,52 18,54 18,55 18,56 18,57 18,58 18,59 18,60 18,61 19,62 19,63 19,64 19,65 19,66" fill="none" stroke="#00f0b5" stroke-width="3" stroke-linecap="round" stroke-linejoin="round" opacity="0.95">
    <title>3452 a:1</title>
  </polyline>
</svg>
