<?xml version="1.0" encoding="UTF-8"?>
<svg xmlns="http://www.w3.org/2000/svg" width="39" height="98" viewBox="0 0 39 98">
  <title>atom 3618 a:1</title>
  <metadata>{&quot;entityType&quot;:&quot;atom&quot;,&quot;entityId&quot;:&quot;3618&quot;,&quot;token&quot;:&quot;a:1&quot;,&quot;signature&quot;:&quot;a:1&quot;,&quot;imageName&quot;:&quot;page-003.jpg&quot;,&quot;imageId&quot;:3,&quot;bounds&quot;:{&quot;x&quot;:854,&quot;y&quot;:2106,&quot;w&quot;:39,&quot;h&quot;:98},&quot;atoms&quot;:[{&quot;id&quot;:3618,&quot;token&quot;:&quot;a:1&quot;,&quot;particle_id&quot;:&quot;img3-m137-p3&quot;,&quot;molecule_id&quot;:&quot;img3-m137&quot;,&quot;atom_order&quot;:2}]}</metadata>
  <rect x="0" y="0" width="39" height="98" fill="#f8f0d8"/>
  <image href="file:///C:/Users/HHHES/AppData/Roaming/com.voynichlab.datasetcreator/images/1/35a70f63-88ab-4986-b441-b78046a10087.jpg" x="-854" y="-2106" width="2972" height="3766" opacity="0.92"/>
  <rect x="0.5" y="0.5" width="38" height="97" fill="none" stroke="#111827" stroke-width="1" opacity="0.35"/>
  <polyline points="16,16 16,17 16,18 17,18 17,19 17,20 18,20 18,21 18,22 19,22 19,23 19,24 19,25 20,26 20,27 20,28 20,29 21,30 21,31 21,32 21,33 21,34 22,34 22,35 22,36 22,37 22,38 22,39 22,40 22,41 23,42 23,43 23,44 23,45 23,46 23,47 23,48 23,49 23,50 23,51 23,52 23,53 23,54 23,56 23,57 23,58 23,59 23,61 23,62 23,63 23,64 23,65 23,66 23,67 23,68 23,69 23,70 23,71 23,72 23,73 23,74 23,75 23,76 23,77 23,78 23,79 23,80 23,81 23,82 23,81" fill="none" stroke="#00f0b5" stroke-width="3" stroke-linecap="round" stroke-linejoin="round" opacity="0.95">
    <title>3618 a:1</title>
  </polyline>
</svg>
