<?xml version="1.0" encoding="UTF-8"?>
<svg xmlns="http://www.w3.org/2000/svg" width="35" height="97" viewBox="0 0 35 97">
  <title>atom 3619 a:1</title>
  <metadata>{&quot;entityType&quot;:&quot;atom&quot;,&quot;entityId&quot;:&quot;3619&quot;,&quot;token&quot;:&quot;a:1&quot;,&quot;signature&quot;:&quot;a:1&quot;,&quot;imageName&quot;:&quot;page-003.jpg&quot;,&quot;imageId&quot;:3,&quot;bounds&quot;:{&quot;x&quot;:881,&quot;y&quot;:2112,&quot;w&quot;:35,&quot;h&quot;:97},&quot;atoms&quot;:[{&quot;id&quot;:3619,&quot;token&quot;:&quot;a:1&quot;,&quot;particle_id&quot;:&quot;img3-m137-p3&quot;,&quot;molecule_id&quot;:&quot;img3-m137&quot;,&quot;atom_order&quot;:6}]}</metadata>
  <rect x="0" y="0" width="35" height="97" fill="#f8f0d8"/>
  <image href="file:///C:/Users/HHHES/AppData/Roaming/com.voynichlab.datasetcreator/images/1/35a70f63-88ab-4986-b441-b78046a10087.jpg" x="-881" y="-2112" width="2972" height="3766" opacity="0.92"/>
  <rect x="0.5" y="0.5" width="34" height="96" fill="none" stroke="#111827" stroke-width="1" opacity="0.35"/>
  <polyline points="18,16 18,17 18,18 18,19 18,20 18,21 18,22 18,23 18,24 18,25 18,26 18,27 18,28 18,29 18,31 18,32 18,33 19,34 19,36 19,38 19,39 19,41 19,42 19,43 19,44 19,45 19,46 18,48 18,49 18,50 18,52 18,53 18,54 18,55 18,56 18,57 17,58 17,59 17,60 17,61 17,62 17,63 17,64 17,65 17,66 17,67 17,68 17,69 17,70 17,71 17,72 17,73 17,74 16,74 16,75 16,76 16,77 16,78 16,79 16,80 16,81" fill="none" stroke="#00f0b5" stroke-width="3" stroke-linecap="round" stroke-linejoin="round" opacity="0.95">
    <title>3619 a:1</title>
  </polyline>
</svg>
