<?xml version="1.0" encoding="UTF-8"?>
<svg xmlns="http://www.w3.org/2000/svg" width="36" height="86" viewBox="0 0 36 86">
  <title>atom 3620 a:1</title>
  <metadata>{&quot;entityType&quot;:&quot;atom&quot;,&quot;entityId&quot;:&quot;3620&quot;,&quot;token&quot;:&quot;a:1&quot;,&quot;signature&quot;:&quot;a:1&quot;,&quot;imageName&quot;:&quot;page-003.jpg&quot;,&quot;imageId&quot;:3,&quot;bounds&quot;:{&quot;x&quot;:1128,&quot;y&quot;:2126,&quot;w&quot;:36,&quot;h&quot;:86},&quot;atoms&quot;:[{&quot;id&quot;:3620,&quot;token&quot;:&quot;a:1&quot;,&quot;particle_id&quot;:&quot;img3-m138-p2&quot;,&quot;molecule_id&quot;:&quot;img3-m138&quot;,&quot;atom_order&quot;:1}]}</metadata>
  <rect x="0" y="0" width="36" height="86" fill="#f8f0d8"/>
  <image href="file:///C:/Users/HHHES/AppData/Roaming/com.voynichlab.datasetcreator/images/1/35a70f63-88ab-4986-b441-b78046a10087.jpg" x="-1128" y="-2126" width="2972" height="3766" opacity="0.92"/>
  <rect x="0.5" y="0.5" width="35" height="85" fill="none" stroke="#111827" stroke-width="1" opacity="0.35"/>
  <polyline points="19,16 19,17 19,18 19,19 19,20 19,22 19,23 20,24 20,26 20,27 20,28 20,29 20,30 20,32 20,33 20,34 20,35 20,36 20,37 20,38 20,39 20,40 20,41 20,42 19,43 19,44 19,45 19,46 19,47 19,48 18,48 18,49 18,50 18,51 18,52 18,53 18,54 18,55 17,55 17,56 17,57 17,58 17,59 17,60 17,61 17,62 17,63 16,64 16,65 16,66 16,67 16,68 16,69 16,70 16,69 17,68" fill="none" stroke="#00f0b5" stroke-width="3" stroke-linecap="round" stroke-linejoin="round" opacity="0.95">
    <title>3620 a:1</title>
  </polyline>
</svg>
