<?xml version="1.0" encoding="UTF-8"?>
<svg xmlns="http://www.w3.org/2000/svg" width="36" height="91" viewBox="0 0 36 91">
  <title>atom 3621 a:1</title>
  <metadata>{&quot;entityType&quot;:&quot;atom&quot;,&quot;entityId&quot;:&quot;3621&quot;,&quot;token&quot;:&quot;a:1&quot;,&quot;signature&quot;:&quot;a:1&quot;,&quot;imageName&quot;:&quot;page-003.jpg&quot;,&quot;imageId&quot;:3,&quot;bounds&quot;:{&quot;x&quot;:1143,&quot;y&quot;:2122,&quot;w&quot;:36,&quot;h&quot;:91},&quot;atoms&quot;:[{&quot;id&quot;:3621,&quot;token&quot;:&quot;a:1&quot;,&quot;particle_id&quot;:&quot;img3-m138-p2&quot;,&quot;molecule_id&quot;:&quot;img3-m138&quot;,&quot;atom_order&quot;:4}]}</metadata>
  <rect x="0" y="0" width="36" height="91" fill="#f8f0d8"/>
  <image href="file:///C:/Users/HHHES/AppData/Roaming/com.voynichlab.datasetcreator/images/1/35a70f63-88ab-4986-b441-b78046a10087.jpg" x="-1143" y="-2122" width="2972" height="3766" opacity="0.92"/>
  <rect x="0.5" y="0.5" width="35" height="90" fill="none" stroke="#111827" stroke-width="1" opacity="0.35"/>
  <polyline points="20,16 20,17 20,18 20,19 20,21 20,22 20,23 20,24 20,25 20,26 20,27 20,28 20,29 20,30 20,31 20,32 20,33 20,34 20,35 20,36 20,37 20,38 20,40 20,41 20,42 20,43 19,45 19,46 19,47 19,48 19,49 19,50 19,51 19,52 19,53 18,54 18,55 18,56 18,57 18,58 18,59 18,60 18,61 18,62 18,63 18,64 18,65 17,65 17,66 17,68 16,68 16,69 16,70 16,71 16,72 16,73 16,74 16,75 16,74" fill="none" stroke="#00f0b5" stroke-width="3" stroke-linecap="round" stroke-linejoin="round" opacity="0.95">
    <title>3621 a:1</title>
  </polyline>
</svg>
