<?xml version="1.0" encoding="UTF-8"?>
<svg xmlns="http://www.w3.org/2000/svg" width="36" height="73" viewBox="0 0 36 73">
  <title>atom 3623 a:1</title>
  <metadata>{&quot;entityType&quot;:&quot;atom&quot;,&quot;entityId&quot;:&quot;3623&quot;,&quot;token&quot;:&quot;a:1&quot;,&quot;signature&quot;:&quot;a:1&quot;,&quot;imageName&quot;:&quot;page-003.jpg&quot;,&quot;imageId&quot;:3,&quot;bounds&quot;:{&quot;x&quot;:1666,&quot;y&quot;:2131,&quot;w&quot;:36,&quot;h&quot;:73},&quot;atoms&quot;:[{&quot;id&quot;:3623,&quot;token&quot;:&quot;a:1&quot;,&quot;particle_id&quot;:&quot;img3-m136-p4&quot;,&quot;molecule_id&quot;:&quot;img3-m136&quot;,&quot;atom_order&quot;:5}]}</metadata>
  <rect x="0" y="0" width="36" height="73" fill="#f8f0d8"/>
  <image href="file:///C:/Users/HHHES/AppData/Roaming/com.voynichlab.datasetcreator/images/1/35a70f63-88ab-4986-b441-b78046a10087.jpg" x="-1666" y="-2131" width="2972" height="3766" opacity="0.92"/>
  <rect x="0.5" y="0.5" width="35" height="72" fill="none" stroke="#111827" stroke-width="1" opacity="0.35"/>
  <polyline points="20,16 20,17 20,18 20,19 20,21 20,22 20,23 20,24 20,25 20,26 20,27 20,28 20,29 20,30 20,31 20,32 20,33 20,34 20,35 20,36 20,37 19,37 19,38 19,39 19,40 18,40 18,41 18,42 18,43 18,44 18,45 18,46 18,47 18,48 18,49 17,49 17,50 17,51 17,52 17,53 17,54 17,55 17,56 17,57 16,57" fill="none" stroke="#00f0b5" stroke-width="3" stroke-linecap="round" stroke-linejoin="round" opacity="0.95">
    <title>3623 a:1</title>
  </polyline>
</svg>
