<?xml version="1.0" encoding="UTF-8"?>
<svg xmlns="http://www.w3.org/2000/svg" width="41" height="109" viewBox="0 0 41 109">
  <title>atom 3628 a:1</title>
  <metadata>{&quot;entityType&quot;:&quot;atom&quot;,&quot;entityId&quot;:&quot;3628&quot;,&quot;token&quot;:&quot;a:1&quot;,&quot;signature&quot;:&quot;a:1&quot;,&quot;imageName&quot;:&quot;page-003.jpg&quot;,&quot;imageId&quot;:3,&quot;bounds&quot;:{&quot;x&quot;:1752,&quot;y&quot;:2136,&quot;w&quot;:41,&quot;h&quot;:109},&quot;atoms&quot;:[{&quot;id&quot;:3628,&quot;token&quot;:&quot;a:1&quot;,&quot;particle_id&quot;:&quot;img3-m134-p1&quot;,&quot;molecule_id&quot;:&quot;img3-m134&quot;,&quot;atom_order&quot;:15}]}</metadata>
  <rect x="0" y="0" width="41" height="109" fill="#f8f0d8"/>
  <image href="file:///C:/Users/HHHES/AppData/Roaming/com.voynichlab.datasetcreator/images/1/35a70f63-88ab-4986-b441-b78046a10087.jpg" x="-1752" y="-2136" width="2972" height="3766" opacity="0.92"/>
  <rect x="0.5" y="0.5" width="40" height="108" fill="none" stroke="#111827" stroke-width="1" opacity="0.35"/>
  <polyline points="25,16 24,17 24,18 24,19 24,21 24,23 23,25 23,27 23,28 23,30 23,32 23,34 23,36 23,38 23,40 23,42 23,44 23,45 23,47 22,48 22,50 22,51 22,53 22,54 22,55 22,56 22,57 21,58 21,59 21,60 21,61 20,62 20,63 20,65 19,66 19,68 19,69 19,70 18,72 18,73 18,74 18,75 17,76 17,77 17,78 17,79 17,80 17,81 17,82 17,83 17,84 17,85 17,86 17,87 17,88 17,89 17,90 17,91 17,92 16,93 16,92 16,91" fill="none" stroke="#00f0b5" stroke-width="3" stroke-linecap="round" stroke-linejoin="round" opacity="0.95">
    <title>3628 a:1</title>
  </polyline>
</svg>
