<?xml version="1.0" encoding="UTF-8"?>
<svg xmlns="http://www.w3.org/2000/svg" width="42" height="111" viewBox="0 0 42 111">
  <title>atom 3629 a:1</title>
  <metadata>{&quot;entityType&quot;:&quot;atom&quot;,&quot;entityId&quot;:&quot;3629&quot;,&quot;token&quot;:&quot;a:1&quot;,&quot;signature&quot;:&quot;a:1&quot;,&quot;imageName&quot;:&quot;page-003.jpg&quot;,&quot;imageId&quot;:3,&quot;bounds&quot;:{&quot;x&quot;:1911,&quot;y&quot;:2123,&quot;w&quot;:42,&quot;h&quot;:111},&quot;atoms&quot;:[{&quot;id&quot;:3629,&quot;token&quot;:&quot;a:1&quot;,&quot;particle_id&quot;:&quot;img3-m134-p1&quot;,&quot;molecule_id&quot;:&quot;img3-m134&quot;,&quot;atom_order&quot;:2}]}</metadata>
  <rect x="0" y="0" width="42" height="111" fill="#f8f0d8"/>
  <image href="file:///C:/Users/HHHES/AppData/Roaming/com.voynichlab.datasetcreator/images/1/35a70f63-88ab-4986-b441-b78046a10087.jpg" x="-1911" y="-2123" width="2972" height="3766" opacity="0.92"/>
  <rect x="0.5" y="0.5" width="41" height="110" fill="none" stroke="#111827" stroke-width="1" opacity="0.35"/>
  <polyline points="16,16 16,17 17,18 17,19 18,19 18,20 19,20 19,21 20,21 20,22 20,23 21,23 21,24 21,25 22,26 22,27 22,28 23,29 23,30 23,31 24,32 24,33 24,34 24,35 24,36 24,37 25,37 25,38 25,39 25,40 25,41 25,42 26,43 26,44 26,45 26,46 26,47 26,48 26,49 26,50 26,51 26,52 26,54 26,55 26,57 26,58 26,59 26,61 26,62 26,63 26,64 26,66 26,67 26,68 26,69 26,70 26,71 26,72 26,73 26,74 26,76 25,77 25,78 24,79 24,80 24,81 24,82 23,84 23,85 23,86 23,87 22,87 22,88 22,89 22,90 22,91 22,92 22,93 22,94 22,95 22,94 23,94 23,93" fill="none" stroke="#00f0b5" stroke-width="3" stroke-linecap="round" stroke-linejoin="round" opacity="0.95">
    <title>3629 a:1</title>
  </polyline>
</svg>
