<?xml version="1.0" encoding="UTF-8"?>
<svg xmlns="http://www.w3.org/2000/svg" width="44" height="109" viewBox="0 0 44 109">
  <title>atom 3630 a:1</title>
  <metadata>{&quot;entityType&quot;:&quot;atom&quot;,&quot;entityId&quot;:&quot;3630&quot;,&quot;token&quot;:&quot;a:1&quot;,&quot;signature&quot;:&quot;a:1&quot;,&quot;imageName&quot;:&quot;page-003.jpg&quot;,&quot;imageId&quot;:3,&quot;bounds&quot;:{&quot;x&quot;:1932,&quot;y&quot;:2131,&quot;w&quot;:44,&quot;h&quot;:109},&quot;atoms&quot;:[{&quot;id&quot;:3630,&quot;token&quot;:&quot;a:1&quot;,&quot;particle_id&quot;:&quot;img3-m134-p1&quot;,&quot;molecule_id&quot;:&quot;img3-m134&quot;,&quot;atom_order&quot;:6}]}</metadata>
  <rect x="0" y="0" width="44" height="109" fill="#f8f0d8"/>
  <image href="file:///C:/Users/HHHES/AppData/Roaming/com.voynichlab.datasetcreator/images/1/35a70f63-88ab-4986-b441-b78046a10087.jpg" x="-1932" y="-2131" width="2972" height="3766" opacity="0.92"/>
  <rect x="0.5" y="0.5" width="43" height="108" fill="none" stroke="#111827" stroke-width="1" opacity="0.35"/>
  <polyline points="28,16 28,17 28,18 28,20 27,22 27,24 27,25 27,28 27,30 27,33 26,35 26,37 26,39 26,40 25,42 25,44 24,47 24,49 24,51 23,53 23,55 22,57 22,59 21,61 21,62 21,64 21,66 20,67 20,68 20,69 20,70 20,71 19,73 19,74 19,75 19,77 19,78 18,80 18,81 18,82 18,83 18,84 18,85 17,86 17,87 17,88 17,89 17,90 17,91 17,92 17,93 16,93" fill="none" stroke="#00f0b5" stroke-width="3" stroke-linecap="round" stroke-linejoin="round" opacity="0.95">
    <title>3630 a:1</title>
  </polyline>
</svg>
