<?xml version="1.0" encoding="UTF-8"?>
<svg xmlns="http://www.w3.org/2000/svg" width="42" height="107" viewBox="0 0 42 107">
  <title>atom 3631 a:1</title>
  <metadata>{&quot;entityType&quot;:&quot;atom&quot;,&quot;entityId&quot;:&quot;3631&quot;,&quot;token&quot;:&quot;a:1&quot;,&quot;signature&quot;:&quot;a:1&quot;,&quot;imageName&quot;:&quot;page-003.jpg&quot;,&quot;imageId&quot;:3,&quot;bounds&quot;:{&quot;x&quot;:2274,&quot;y&quot;:2141,&quot;w&quot;:42,&quot;h&quot;:107},&quot;atoms&quot;:[{&quot;id&quot;:3631,&quot;token&quot;:&quot;a:1&quot;,&quot;particle_id&quot;:&quot;img3-m139-p4&quot;,&quot;molecule_id&quot;:&quot;img3-m139&quot;,&quot;atom_order&quot;:2}]}</metadata>
  <rect x="0" y="0" width="42" height="107" fill="#f8f0d8"/>
  <image href="file:///C:/Users/HHHES/AppData/Roaming/com.voynichlab.datasetcreator/images/1/35a70f63-88ab-4986-b441-b78046a10087.jpg" x="-2274" y="-2141" width="2972" height="3766" opacity="0.92"/>
  <rect x="0.5" y="0.5" width="41" height="106" fill="none" stroke="#111827" stroke-width="1" opacity="0.35"/>
  <polyline points="26,16 26,17 26,18 26,19 26,20 26,21 26,23 25,25 25,28 25,30 25,32 24,33 24,35 24,37 24,38 24,40 24,42 24,44 23,46 23,47 23,49 23,51 23,52 22,53 22,54 22,55 22,56 22,57 21,57 21,58 21,59 21,60 20,62 20,63 20,65 19,66 19,68 19,69 18,71 18,72 18,74 18,75 18,76 18,77 17,79 17,81 17,82 17,83 17,84 17,85 17,86 17,87 17,88 17,89 16,90 16,91 16,90 16,88" fill="none" stroke="#00f0b5" stroke-width="3" stroke-linecap="round" stroke-linejoin="round" opacity="0.95">
    <title>3631 a:1</title>
  </polyline>
</svg>
