<?xml version="1.0" encoding="UTF-8"?>
<svg xmlns="http://www.w3.org/2000/svg" width="34" height="95" viewBox="0 0 34 95">
  <title>atom 3637 a:1</title>
  <metadata>{&quot;entityType&quot;:&quot;atom&quot;,&quot;entityId&quot;:&quot;3637&quot;,&quot;token&quot;:&quot;a:1&quot;,&quot;signature&quot;:&quot;a:1&quot;,&quot;imageName&quot;:&quot;page-003.jpg&quot;,&quot;imageId&quot;:3,&quot;bounds&quot;:{&quot;x&quot;:1301,&quot;y&quot;:2208,&quot;w&quot;:34,&quot;h&quot;:95},&quot;atoms&quot;:[{&quot;id&quot;:3637,&quot;token&quot;:&quot;a:1&quot;,&quot;particle_id&quot;:&quot;img3-m140-p1&quot;,&quot;molecule_id&quot;:&quot;img3-m140&quot;,&quot;atom_order&quot;:5}]}</metadata>
  <rect x="0" y="0" width="34" height="95" fill="#f8f0d8"/>
  <image href="file:///C:/Users/HHHES/AppData/Roaming/com.voynichlab.datasetcreator/images/1/35a70f63-88ab-4986-b441-b78046a10087.jpg" x="-1301" y="-2208" width="2972" height="3766" opacity="0.92"/>
  <rect x="0.5" y="0.5" width="33" height="94" fill="none" stroke="#111827" stroke-width="1" opacity="0.35"/>
  <polyline points="17,16 17,17 17,18 17,19 17,20 17,21 17,22 16,23 16,24 16,25 16,26 16,27 16,28 16,29 17,30 17,31 17,32 17,34 17,35 17,37 17,38 17,39 17,40 17,41 18,42 18,43 18,44 18,45 18,46 18,47 18,48 18,49 18,50 17,51 17,52 17,53 17,54 17,55 17,56 17,57 17,58 17,59 17,60 17,61 16,62 16,63 16,64 16,65 16,66 16,67 16,68 16,69 16,70 16,71 16,72 16,73 16,74 16,75 16,76 16,77 16,78 16,79" fill="none" stroke="#00f0b5" stroke-width="3" stroke-linecap="round" stroke-linejoin="round" opacity="0.95">
    <title>3637 a:1</title>
  </polyline>
</svg>
