<?xml version="1.0" encoding="UTF-8"?>
<svg xmlns="http://www.w3.org/2000/svg" width="39" height="86" viewBox="0 0 39 86">
  <title>atom 3639 a:1</title>
  <metadata>{&quot;entityType&quot;:&quot;atom&quot;,&quot;entityId&quot;:&quot;3639&quot;,&quot;token&quot;:&quot;a:1&quot;,&quot;signature&quot;:&quot;a:1&quot;,&quot;imageName&quot;:&quot;page-003.jpg&quot;,&quot;imageId&quot;:3,&quot;bounds&quot;:{&quot;x&quot;:2001,&quot;y&quot;:2241,&quot;w&quot;:39,&quot;h&quot;:86},&quot;atoms&quot;:[{&quot;id&quot;:3639,&quot;token&quot;:&quot;a:1&quot;,&quot;particle_id&quot;:&quot;img3-m146-p2&quot;,&quot;molecule_id&quot;:&quot;img3-m146&quot;,&quot;atom_order&quot;:5}]}</metadata>
  <rect x="0" y="0" width="39" height="86" fill="#f8f0d8"/>
  <image href="file:///C:/Users/HHHES/AppData/Roaming/com.voynichlab.datasetcreator/images/1/35a70f63-88ab-4986-b441-b78046a10087.jpg" x="-2001" y="-2241" width="2972" height="3766" opacity="0.92"/>
  <rect x="0.5" y="0.5" width="38" height="85" fill="none" stroke="#111827" stroke-width="1" opacity="0.35"/>
  <polyline points="23,16 23,17 23,19 22,21 22,24 22,25 22,27 22,28 22,29 22,31 21,33 21,35 21,37 20,38 20,39 20,40 20,41 20,42 19,43 19,44 19,45 19,46 18,48 18,49 18,50 18,51 18,53 18,55 18,57 18,58 18,59 18,60 18,61 17,62 17,63 17,64 17,65 17,66 17,67 17,68 17,69 16,70" fill="none" stroke="#00f0b5" stroke-width="3" stroke-linecap="round" stroke-linejoin="round" opacity="0.95">
    <title>3639 a:1</title>
  </polyline>
</svg>
