<?xml version="1.0" encoding="UTF-8"?>
<svg xmlns="http://www.w3.org/2000/svg" width="41" height="211" viewBox="0 0 41 211">
  <title>atom 3757 a:1</title>
  <metadata>{&quot;entityType&quot;:&quot;atom&quot;,&quot;entityId&quot;:&quot;3757&quot;,&quot;token&quot;:&quot;a:1&quot;,&quot;signature&quot;:&quot;a:1&quot;,&quot;imageName&quot;:&quot;page-003.jpg&quot;,&quot;imageId&quot;:3,&quot;bounds&quot;:{&quot;x&quot;:556,&quot;y&quot;:2334,&quot;w&quot;:41,&quot;h&quot;:211},&quot;atoms&quot;:[{&quot;id&quot;:3757,&quot;token&quot;:&quot;a:1&quot;,&quot;particle_id&quot;:&quot;img3-m147-p1&quot;,&quot;molecule_id&quot;:&quot;img3-m147&quot;,&quot;atom_order&quot;:2}]}</metadata>
  <rect x="0" y="0" width="41" height="211" fill="#f8f0d8"/>
  <image href="file:///C:/Users/HHHES/AppData/Roaming/com.voynichlab.datasetcreator/images/1/35a70f63-88ab-4986-b441-b78046a10087.jpg" x="-556" y="-2334" width="2972" height="3766" opacity="0.92"/>
  <rect x="0.5" y="0.5" width="40" height="210" fill="none" stroke="#111827" stroke-width="1" opacity="0.35"/>
  <polyline points="20,195 20,194 20,193 20,192 20,191 20,190 20,189 20,188 20,187 20,186 21,186 21,185 21,184 21,183 21,182 22,181 22,180 22,179 22,178 22,177 22,176 22,175 22,174 22,173 22,172 22,171 22,170 22,169 22,168 22,167 22,166 22,165 22,164 22,163 22,162 23,162 23,161 23,160 23,159 23,158 23,157 23,156 23,155 23,154 23,153 23,152 23,151 23,150 23,149 23,148 23,147 23,146 23,145 23,144 23,143 23,142 23,141 23,140 23,139 23,138 23,137 23,136 24,135 24,134 24,133 24,132 24,131 24,130 24,129 24,128 24,127 25,127 25,126 25,125 25,124 25,123 25,122 25,121 25,120 25,119 25,118 25,117 25,116 25,115 25,114 25,113 25,112 25,111 25,110 25,109 25,108 25,107 25,106 25,105 25,104 25,103 25,102 25,101 25,100 25,99 25,98 25,97 25,96 25,95 25,94 25,93 25,92 25,91 24,90 24,89 24,88 24,87 24,86 24,85 24,84 24,83 24,82 24,81 24,80 24,79 24,78 24,77 24,76 24,75 24,74 24,73 24,72 24,71 24,70 24,69 24,68 24,67 24,66 23,66 23,65 23,64 23,63 23,62 23,61 23,60 23,59 23,58 23,57 23,56 23,55 23,54 23,53 23,52 23,51 23,50 23,49 23,48 23,47 23,46 23,45 23,44 23,43 23,42 23,41 22,41 22,40 22,39 22,38 22,37 22,36 22,35 22,34 22,33 22,32 22,31 22,30 21,29 21,28 21,27 21,26 21,25 20,25 20,24 20,23 20,22 20,21 20,20 20,19 19,19 19,18 18,18 18,17 17,17 17,16 16,16" fill="none" stroke="#00f0b5" stroke-width="3" stroke-linecap="round" stroke-linejoin="round" opacity="0.95">
    <title>3757 a:1</title>
  </polyline>
</svg>
