<?xml version="1.0" encoding="UTF-8"?>
<svg xmlns="http://www.w3.org/2000/svg" width="41" height="83" viewBox="0 0 41 83">
  <title>atom 3758 a:1</title>
  <metadata>{&quot;entityType&quot;:&quot;atom&quot;,&quot;entityId&quot;:&quot;3758&quot;,&quot;token&quot;:&quot;a:1&quot;,&quot;signature&quot;:&quot;a:1&quot;,&quot;imageName&quot;:&quot;page-003.jpg&quot;,&quot;imageId&quot;:3,&quot;bounds&quot;:{&quot;x&quot;:838,&quot;y&quot;:2358,&quot;w&quot;:41,&quot;h&quot;:83},&quot;atoms&quot;:[{&quot;id&quot;:3758,&quot;token&quot;:&quot;a:1&quot;,&quot;particle_id&quot;:&quot;img3-m147-p1&quot;,&quot;molecule_id&quot;:&quot;img3-m147&quot;,&quot;atom_order&quot;:6}]}</metadata>
  <rect x="0" y="0" width="41" height="83" fill="#f8f0d8"/>
  <image href="file:///C:/Users/HHHES/AppData/Roaming/com.voynichlab.datasetcreator/images/1/35a70f63-88ab-4986-b441-b78046a10087.jpg" x="-838" y="-2358" width="2972" height="3766" opacity="0.92"/>
  <rect x="0.5" y="0.5" width="40" height="82" fill="none" stroke="#111827" stroke-width="1" opacity="0.35"/>
  <polyline points="25,16 25,17 25,18 24,18 24,19 24,20 24,21 24,22 24,23 24,24 23,24 23,25 23,26 23,27 23,28 23,29 23,30 23,31 23,32 23,33 23,34 23,35 23,36 23,37 23,38 22,38 22,39 22,40 22,41 22,42 22,43 22,44 22,45 22,46 22,47 22,48 22,49 21,50 21,51 21,52 21,53 21,54 21,55 20,55 20,56 20,57 20,58 19,58 19,59 19,60 18,60 18,61 18,62 17,63 17,64 17,65 16,65 16,66 16,67" fill="none" stroke="#00f0b5" stroke-width="3" stroke-linecap="round" stroke-linejoin="round" opacity="0.95">
    <title>3758 a:1</title>
  </polyline>
</svg>
