<?xml version="1.0" encoding="UTF-8"?>
<svg xmlns="http://www.w3.org/2000/svg" width="37" height="140" viewBox="0 0 37 140">
  <title>atom 3761 a:1</title>
  <metadata>{&quot;entityType&quot;:&quot;atom&quot;,&quot;entityId&quot;:&quot;3761&quot;,&quot;token&quot;:&quot;a:1&quot;,&quot;signature&quot;:&quot;a:1&quot;,&quot;imageName&quot;:&quot;page-003.jpg&quot;,&quot;imageId&quot;:3,&quot;bounds&quot;:{&quot;x&quot;:1327,&quot;y&quot;:2419,&quot;w&quot;:37,&quot;h&quot;:140},&quot;atoms&quot;:[{&quot;id&quot;:3761,&quot;token&quot;:&quot;a:1&quot;,&quot;particle_id&quot;:&quot;img3-m148-p1&quot;,&quot;molecule_id&quot;:&quot;img3-m148&quot;,&quot;atom_order&quot;:1}]}</metadata>
  <rect x="0" y="0" width="37" height="140" fill="#f8f0d8"/>
  <image href="file:///C:/Users/HHHES/AppData/Roaming/com.voynichlab.datasetcreator/images/1/35a70f63-88ab-4986-b441-b78046a10087.jpg" x="-1327" y="-2419" width="2972" height="3766" opacity="0.92"/>
  <rect x="0.5" y="0.5" width="36" height="139" fill="none" stroke="#111827" stroke-width="1" opacity="0.35"/>
  <polyline points="17,124 17,123 17,122 17,121 17,120 17,119 17,118 17,117 17,116 17,115 17,114 17,113 17,112 17,111 17,110 17,109 17,108 17,107 17,106 18,106 18,105 18,104 18,103 18,102 18,101 18,100 18,99 18,98 18,97 18,96 18,95 18,94 17,93 17,92 17,91 17,90 17,89 17,88 17,87 17,86 17,85 17,84 17,82 17,81 17,79 17,78 17,77 16,76 16,75 16,74 16,73 17,72 17,71 17,70 17,69 17,68 17,67 17,66 17,65 17,64 18,63 18,62 18,61 19,60 19,59 19,58 20,58 20,57 20,56 20,55 20,54 20,53 20,52 20,51 20,50 20,49 20,48 20,47 20,46 21,45 21,44 21,43 21,42 21,41 21,40 21,39 21,38 21,37 21,36 21,35 21,34 21,33 21,32 21,31 21,30 21,29 21,28 21,27 21,26 20,26 20,25 20,24 20,23 20,22 20,21 20,20 20,19 20,18 20,17 20,16" fill="none" stroke="#00f0b5" stroke-width="3" stroke-linecap="round" stroke-linejoin="round" opacity="0.95">
    <title>3761 a:1</title>
  </polyline>
</svg>
