<?xml version="1.0" encoding="UTF-8"?>
<svg xmlns="http://www.w3.org/2000/svg" width="40" height="135" viewBox="0 0 40 135">
  <title>atom 3763 a:1</title>
  <metadata>{&quot;entityType&quot;:&quot;atom&quot;,&quot;entityId&quot;:&quot;3763&quot;,&quot;token&quot;:&quot;a:1&quot;,&quot;signature&quot;:&quot;a:1&quot;,&quot;imageName&quot;:&quot;page-003.jpg&quot;,&quot;imageId&quot;:3,&quot;bounds&quot;:{&quot;x&quot;:1811,&quot;y&quot;:2449,&quot;w&quot;:40,&quot;h&quot;:135},&quot;atoms&quot;:[{&quot;id&quot;:3763,&quot;token&quot;:&quot;a:1&quot;,&quot;particle_id&quot;:&quot;img3-m152-p1&quot;,&quot;molecule_id&quot;:&quot;img3-m152&quot;,&quot;atom_order&quot;:2}]}</metadata>
  <rect x="0" y="0" width="40" height="135" fill="#f8f0d8"/>
  <image href="file:///C:/Users/HHHES/AppData/Roaming/com.voynichlab.datasetcreator/images/1/35a70f63-88ab-4986-b441-b78046a10087.jpg" x="-1811" y="-2449" width="2972" height="3766" opacity="0.92"/>
  <rect x="0.5" y="0.5" width="39" height="134" fill="none" stroke="#111827" stroke-width="1" opacity="0.35"/>
  <polyline points="16,119 16,118 16,117 17,117 17,116 17,115 17,114 17,113 18,112 18,111 18,110 18,109 19,108 19,107 19,106 19,105 19,104 19,103 19,102 20,102 20,101 20,100 20,99 20,98 20,97 20,96 20,95 20,94 20,93 20,92 20,91 20,90 20,89 20,88 20,87 20,86 20,85 20,84 20,83 20,82 20,81 20,80 20,79 20,78 20,77 20,76 20,75 20,74 20,73 20,72 20,71 20,70 20,69 20,68 20,67 20,66 20,65 20,64 20,63 20,62 21,62 21,61 21,60 21,59 21,58 21,57 21,56 21,55 21,54 21,53 21,52 21,51 21,50 22,49 22,48 22,47 22,46 22,45 22,44 22,43 22,42 23,42 23,41 23,40 23,39 23,38 23,37 23,36 23,35 23,34 23,33 23,32 23,31 23,30 23,29 23,28 23,27 23,26 23,25 23,24 23,23 24,23 24,22 24,21 24,20 24,19 24,18 24,17 24,16 23,16 22,16 21,16 20,16" fill="none" stroke="#00f0b5" stroke-width="3" stroke-linecap="round" stroke-linejoin="round" opacity="0.95">
    <title>3763 a:1</title>
  </polyline>
</svg>
