<?xml version="1.0" encoding="UTF-8"?>
<svg xmlns="http://www.w3.org/2000/svg" width="37" height="94" viewBox="0 0 37 94">
  <title>atom 3944 a:1</title>
  <metadata>{&quot;entityType&quot;:&quot;atom&quot;,&quot;entityId&quot;:&quot;3944&quot;,&quot;token&quot;:&quot;a:1&quot;,&quot;signature&quot;:&quot;a:1&quot;,&quot;imageName&quot;:&quot;page-003.jpg&quot;,&quot;imageId&quot;:3,&quot;bounds&quot;:{&quot;x&quot;:726,&quot;y&quot;:2638,&quot;w&quot;:37,&quot;h&quot;:94},&quot;atoms&quot;:[{&quot;id&quot;:3944,&quot;token&quot;:&quot;a:1&quot;,&quot;particle_id&quot;:&quot;img3-m171-p2&quot;,&quot;molecule_id&quot;:&quot;img3-m171&quot;,&quot;atom_order&quot;:1}]}</metadata>
  <rect x="0" y="0" width="37" height="94" fill="#f8f0d8"/>
  <image href="file:///C:/Users/HHHES/AppData/Roaming/com.voynichlab.datasetcreator/images/1/35a70f63-88ab-4986-b441-b78046a10087.jpg" x="-726" y="-2638" width="2972" height="3766" opacity="0.92"/>
  <rect x="0.5" y="0.5" width="36" height="93" fill="none" stroke="#111827" stroke-width="1" opacity="0.35"/>
  <polyline points="16,78 16,77 16,76 16,75 16,74 17,73 17,72 17,71 17,70 17,69 17,68 17,67 17,66 16,65 16,64 16,63 16,62 16,61 16,60 16,59 16,58 16,57 16,56 16,55 16,54 16,53 17,53 17,52 17,51 17,50 17,49 17,48 17,47 17,46 17,45 17,44 17,43 17,42 18,42 18,41 18,40 18,39 18,38 18,37 18,36 18,35 18,34 18,33 19,32 19,31 19,30 19,29 19,28 19,27 19,26 19,25 19,24 19,23 20,23 20,22 20,21 20,20 20,19 21,18 21,17 21,16 21,17" fill="none" stroke="#00f0b5" stroke-width="3" stroke-linecap="round" stroke-linejoin="round" opacity="0.95">
    <title>3944 a:1</title>
  </polyline>
</svg>
