<?xml version="1.0" encoding="UTF-8"?>
<svg xmlns="http://www.w3.org/2000/svg" width="34" height="87" viewBox="0 0 34 87">
  <title>atom 3948 a:1</title>
  <metadata>{&quot;entityType&quot;:&quot;atom&quot;,&quot;entityId&quot;:&quot;3948&quot;,&quot;token&quot;:&quot;a:1&quot;,&quot;signature&quot;:&quot;a:1&quot;,&quot;imageName&quot;:&quot;page-003.jpg&quot;,&quot;imageId&quot;:3,&quot;bounds&quot;:{&quot;x&quot;:1536,&quot;y&quot;:2661,&quot;w&quot;:34,&quot;h&quot;:87},&quot;atoms&quot;:[{&quot;id&quot;:3948,&quot;token&quot;:&quot;a:1&quot;,&quot;particle_id&quot;:&quot;img3-m166-p1&quot;,&quot;molecule_id&quot;:&quot;img3-m166&quot;,&quot;atom_order&quot;:2}]}</metadata>
  <rect x="0" y="0" width="34" height="87" fill="#f8f0d8"/>
  <image href="file:///C:/Users/HHHES/AppData/Roaming/com.voynichlab.datasetcreator/images/1/35a70f63-88ab-4986-b441-b78046a10087.jpg" x="-1536" y="-2661" width="2972" height="3766" opacity="0.92"/>
  <rect x="0.5" y="0.5" width="33" height="86" fill="none" stroke="#111827" stroke-width="1" opacity="0.35"/>
  <polyline points="18,70 18,71 18,70 18,69 18,68 18,67 18,66 18,65 18,64 18,63 18,62 18,61 18,60 17,60 17,59 17,58 17,57 17,56 17,55 17,54 17,53 17,52 17,51 17,50 17,49 17,48 17,47 17,46 17,45 17,44 17,43 17,42 17,41 17,40 17,39 17,38 16,38 16,37 16,36 16,35 16,34 16,33 16,32 16,31 16,30 16,29 17,28 17,27 17,26 17,25 17,24 17,23 17,22 17,21 17,20 17,19 17,18 17,17 17,16" fill="none" stroke="#00f0b5" stroke-width="3" stroke-linecap="round" stroke-linejoin="round" opacity="0.95">
    <title>3948 a:1</title>
  </polyline>
</svg>
