<?xml version="1.0" encoding="UTF-8"?>
<svg xmlns="http://www.w3.org/2000/svg" width="34" height="107" viewBox="0 0 34 107">
  <title>atom 3949 a:1</title>
  <metadata>{&quot;entityType&quot;:&quot;atom&quot;,&quot;entityId&quot;:&quot;3949&quot;,&quot;token&quot;:&quot;a:1&quot;,&quot;signature&quot;:&quot;a:1&quot;,&quot;imageName&quot;:&quot;page-003.jpg&quot;,&quot;imageId&quot;:3,&quot;bounds&quot;:{&quot;x&quot;:1695,&quot;y&quot;:2666,&quot;w&quot;:34,&quot;h&quot;:107},&quot;atoms&quot;:[{&quot;id&quot;:3949,&quot;token&quot;:&quot;a:1&quot;,&quot;particle_id&quot;:&quot;img3-m166-p1&quot;,&quot;molecule_id&quot;:&quot;img3-m166&quot;,&quot;atom_order&quot;:2}]}</metadata>
  <rect x="0" y="0" width="34" height="107" fill="#f8f0d8"/>
  <image href="file:///C:/Users/HHHES/AppData/Roaming/com.voynichlab.datasetcreator/images/1/35a70f63-88ab-4986-b441-b78046a10087.jpg" x="-1695" y="-2666" width="2972" height="3766" opacity="0.92"/>
  <rect x="0.5" y="0.5" width="33" height="106" fill="none" stroke="#111827" stroke-width="1" opacity="0.35"/>
  <polyline points="17,16 17,17 18,17 18,18 18,19 18,20 18,21 18,22 18,23 18,24 18,25 18,26 18,27 18,28 18,29 18,30 18,31 18,32 18,33 18,34 18,35 18,36 18,37 18,38 18,39 18,40 18,41 18,42 17,43 17,44 17,46 17,47 17,48 17,49 17,50 17,51 17,53 17,55 17,56 17,57 16,57 16,58 16,59 16,60 16,61 16,62 16,63 16,64 16,65 16,66 16,67 16,68 16,69 16,71 16,72 17,72 17,73 17,74 17,75 17,76 17,77 17,78 17,79 17,80 17,81 17,82 17,83 17,84 17,85 17,86 17,87 17,88 17,89 17,90 17,91 17,90 17,89" fill="none" stroke="#00f0b5" stroke-width="3" stroke-linecap="round" stroke-linejoin="round" opacity="0.95">
    <title>3949 a:1</title>
  </polyline>
</svg>
