<?xml version="1.0" encoding="UTF-8"?>
<svg xmlns="http://www.w3.org/2000/svg" width="36" height="108" viewBox="0 0 36 108">
  <title>atom 3998 a:1</title>
  <metadata>{&quot;entityType&quot;:&quot;atom&quot;,&quot;entityId&quot;:&quot;3998&quot;,&quot;token&quot;:&quot;a:1&quot;,&quot;signature&quot;:&quot;a:1&quot;,&quot;imageName&quot;:&quot;page-003.jpg&quot;,&quot;imageId&quot;:3,&quot;bounds&quot;:{&quot;x&quot;:2065,&quot;y&quot;:2677,&quot;w&quot;:36,&quot;h&quot;:108},&quot;atoms&quot;:[{&quot;id&quot;:3998,&quot;token&quot;:&quot;a:1&quot;,&quot;particle_id&quot;:&quot;img3-m168-p1&quot;,&quot;molecule_id&quot;:&quot;img3-m168&quot;,&quot;atom_order&quot;:2}]}</metadata>
  <rect x="0" y="0" width="36" height="108" fill="#f8f0d8"/>
  <image href="file:///C:/Users/HHHES/AppData/Roaming/com.voynichlab.datasetcreator/images/1/35a70f63-88ab-4986-b441-b78046a10087.jpg" x="-2065" y="-2677" width="2972" height="3766" opacity="0.92"/>
  <rect x="0.5" y="0.5" width="35" height="107" fill="none" stroke="#111827" stroke-width="1" opacity="0.35"/>
  <polyline points="18,92 18,91 18,90 19,89 19,88 19,87 19,86 19,85 19,84 19,83 19,82 19,81 19,80 19,79 19,78 19,77 19,76 19,75 19,74 19,73 19,72 19,71 18,71 18,70 18,69 18,68 18,67 18,66 18,65 18,64 18,63 18,62 18,61 18,60 18,59 18,58 18,57 18,56 18,55 18,54 18,53 18,52 18,51 18,50 18,49 18,48 18,47 18,46 19,46 19,45 19,44 19,43 19,42 19,41 19,40 19,39 19,38 19,37 19,36 20,36 20,35 20,34 20,33 20,32 20,31 20,30 20,29 20,28 20,27 19,27 19,26 19,25 19,24 18,24 18,23 18,22 18,21 18,20 18,19 17,19 17,18 17,17 17,16 16,16" fill="none" stroke="#00f0b5" stroke-width="3" stroke-linecap="round" stroke-linejoin="round" opacity="0.95">
    <title>3998 a:1</title>
  </polyline>
</svg>
