<?xml version="1.0" encoding="UTF-8"?>
<svg xmlns="http://www.w3.org/2000/svg" width="34" height="92" viewBox="0 0 34 92">
  <title>atom 4051 a:1</title>
  <metadata>{&quot;entityType&quot;:&quot;atom&quot;,&quot;entityId&quot;:&quot;4051&quot;,&quot;token&quot;:&quot;a:1&quot;,&quot;signature&quot;:&quot;a:1&quot;,&quot;imageName&quot;:&quot;page-003.jpg&quot;,&quot;imageId&quot;:3,&quot;bounds&quot;:{&quot;x&quot;:754,&quot;y&quot;:2728,&quot;w&quot;:34,&quot;h&quot;:92},&quot;atoms&quot;:[{&quot;id&quot;:4051,&quot;token&quot;:&quot;a:1&quot;,&quot;particle_id&quot;:&quot;img3-m179-p2&quot;,&quot;molecule_id&quot;:&quot;img3-m179&quot;,&quot;atom_order&quot;:1}]}</metadata>
  <rect x="0" y="0" width="34" height="92" fill="#f8f0d8"/>
  <image href="file:///C:/Users/HHHES/AppData/Roaming/com.voynichlab.datasetcreator/images/1/35a70f63-88ab-4986-b441-b78046a10087.jpg" x="-754" y="-2728" width="2972" height="3766" opacity="0.92"/>
  <rect x="0.5" y="0.5" width="33" height="91" fill="none" stroke="#111827" stroke-width="1" opacity="0.35"/>
  <polyline points="18,16 18,17 18,18 18,19 18,20 18,21 18,22 18,23 18,24 18,25 18,26 18,27 18,28 18,29 18,30 18,31 18,32 18,33 18,35 18,36 18,37 18,38 18,39 18,40 18,41 18,42 18,43 18,44 18,45 18,46 18,47 18,48 18,49 18,50 18,51 18,52 18,53 18,54 18,55 18,56 18,57 18,58 18,59 18,60 17,61 17,62 17,63 17,64 17,65 17,66 17,67 17,68 17,69 17,70 16,70 16,71 16,72 16,73 16,74 16,75 17,75 17,76 17,75" fill="none" stroke="#00f0b5" stroke-width="3" stroke-linecap="round" stroke-linejoin="round" opacity="0.95">
    <title>4051 a:1</title>
  </polyline>
</svg>
