<?xml version="1.0" encoding="UTF-8"?>
<svg xmlns="http://www.w3.org/2000/svg" width="36" height="109" viewBox="0 0 36 109">
  <title>atom 4093 a:1</title>
  <metadata>{&quot;entityType&quot;:&quot;atom&quot;,&quot;entityId&quot;:&quot;4093&quot;,&quot;token&quot;:&quot;a:1&quot;,&quot;signature&quot;:&quot;a:1&quot;,&quot;imageName&quot;:&quot;page-003.jpg&quot;,&quot;imageId&quot;:3,&quot;bounds&quot;:{&quot;x&quot;:2133,&quot;y&quot;:2860,&quot;w&quot;:36,&quot;h&quot;:109},&quot;atoms&quot;:[{&quot;id&quot;:4093,&quot;token&quot;:&quot;a:1&quot;,&quot;particle_id&quot;:&quot;img3-m190-p3&quot;,&quot;molecule_id&quot;:&quot;img3-m190&quot;,&quot;atom_order&quot;:1}]}</metadata>
  <rect x="0" y="0" width="36" height="109" fill="#f8f0d8"/>
  <image href="file:///C:/Users/HHHES/AppData/Roaming/com.voynichlab.datasetcreator/images/1/35a70f63-88ab-4986-b441-b78046a10087.jpg" x="-2133" y="-2860" width="2972" height="3766" opacity="0.92"/>
  <rect x="0.5" y="0.5" width="35" height="108" fill="none" stroke="#111827" stroke-width="1" opacity="0.35"/>
  <polyline points="16,93 16,92 17,91 17,90 17,89 17,88 17,87 18,86 18,85 18,84 18,83 18,82 18,81 17,81 17,80 17,79 17,78 17,77 17,76 17,75 17,74 17,73 17,72 17,71 17,70 17,69 17,68 17,67 17,66 17,65 17,64 17,63 17,62 17,61 17,60 18,59 18,58 18,57 18,56 18,55 18,54 19,53 19,52 19,51 19,50 19,49 19,48 19,47 19,46 19,45 19,44 19,43 19,42 20,41 20,40 20,39 20,38 20,37 20,36 20,35 20,34 20,33 20,32 20,31 20,30 20,29 20,28 20,27 20,26 20,25 20,24 20,23 20,22 20,21 20,20 20,19 20,18 20,17 20,16" fill="none" stroke="#00f0b5" stroke-width="3" stroke-linecap="round" stroke-linejoin="round" opacity="0.95">
    <title>4093 a:1</title>
  </polyline>
</svg>
