<?xml version="1.0" encoding="UTF-8"?>
<svg xmlns="http://www.w3.org/2000/svg" width="38" height="69" viewBox="0 0 38 69">
  <title>atom 4203 a:1</title>
  <metadata>{&quot;entityType&quot;:&quot;atom&quot;,&quot;entityId&quot;:&quot;4203&quot;,&quot;token&quot;:&quot;a:1&quot;,&quot;signature&quot;:&quot;a:1&quot;,&quot;imageName&quot;:&quot;page-003.jpg&quot;,&quot;imageId&quot;:3,&quot;bounds&quot;:{&quot;x&quot;:1011,&quot;y&quot;:2920,&quot;w&quot;:38,&quot;h&quot;:69},&quot;atoms&quot;:[{&quot;id&quot;:4203,&quot;token&quot;:&quot;a:1&quot;,&quot;particle_id&quot;:&quot;img3-m194-p3&quot;,&quot;molecule_id&quot;:&quot;img3-m194&quot;,&quot;atom_order&quot;:1}]}</metadata>
  <rect x="0" y="0" width="38" height="69" fill="#f8f0d8"/>
  <image href="file:///C:/Users/HHHES/AppData/Roaming/com.voynichlab.datasetcreator/images/1/35a70f63-88ab-4986-b441-b78046a10087.jpg" x="-1011" y="-2920" width="2972" height="3766" opacity="0.92"/>
  <rect x="0.5" y="0.5" width="37" height="68" fill="none" stroke="#111827" stroke-width="1" opacity="0.35"/>
  <polyline points="22,16 22,17 21,17 21,18 20,18 20,19 20,20 19,21 19,22 19,23 18,23 18,24 18,25 18,26 18,27 17,28 17,29 17,30 17,31 17,32 16,32 16,33 16,34 16,35 16,36 16,37 16,38 16,39 16,40 16,41 16,42 16,43 17,44 17,45 17,46 17,47 17,48 17,49 17,50 17,51 18,52 18,53" fill="none" stroke="#00f0b5" stroke-width="3" stroke-linecap="round" stroke-linejoin="round" opacity="0.95">
    <title>4203 a:1</title>
  </polyline>
</svg>
