<?xml version="1.0" encoding="UTF-8"?>
<svg xmlns="http://www.w3.org/2000/svg" width="35" height="73" viewBox="0 0 35 73">
  <title>atom 4205 a:1</title>
  <metadata>{&quot;entityType&quot;:&quot;atom&quot;,&quot;entityId&quot;:&quot;4205&quot;,&quot;token&quot;:&quot;a:1&quot;,&quot;signature&quot;:&quot;a:1&quot;,&quot;imageName&quot;:&quot;page-003.jpg&quot;,&quot;imageId&quot;:3,&quot;bounds&quot;:{&quot;x&quot;:1168,&quot;y&quot;:2930,&quot;w&quot;:35,&quot;h&quot;:73},&quot;atoms&quot;:[{&quot;id&quot;:4205,&quot;token&quot;:&quot;a:1&quot;,&quot;particle_id&quot;:&quot;img3-m194-p3&quot;,&quot;molecule_id&quot;:&quot;img3-m194&quot;,&quot;atom_order&quot;:1}]}</metadata>
  <rect x="0" y="0" width="35" height="73" fill="#f8f0d8"/>
  <image href="file:///C:/Users/HHHES/AppData/Roaming/com.voynichlab.datasetcreator/images/1/35a70f63-88ab-4986-b441-b78046a10087.jpg" x="-1168" y="-2930" width="2972" height="3766" opacity="0.92"/>
  <rect x="0.5" y="0.5" width="34" height="72" fill="none" stroke="#111827" stroke-width="1" opacity="0.35"/>
  <polyline points="19,16 19,17 19,18 19,19 18,20 18,21 18,22 18,23 18,24 18,25 18,26 18,27 18,28 18,29 17,30 17,31 17,32 17,33 17,34 17,35 17,36 17,37 17,38 17,39 17,40 17,41 17,42 17,43 16,44 16,45 16,46 16,47 16,48 16,49 16,50 16,51 16,52 16,53 16,54 16,55 17,55 17,56 17,57 17,56" fill="none" stroke="#00f0b5" stroke-width="3" stroke-linecap="round" stroke-linejoin="round" opacity="0.95">
    <title>4205 a:1</title>
  </polyline>
</svg>
