<?xml version="1.0" encoding="UTF-8"?>
<svg xmlns="http://www.w3.org/2000/svg" width="40" height="123" viewBox="0 0 40 123">
  <title>atom 5510 a:1</title>
  <metadata>{&quot;entityType&quot;:&quot;atom&quot;,&quot;entityId&quot;:&quot;5510&quot;,&quot;token&quot;:&quot;a:1&quot;,&quot;signature&quot;:&quot;a:1&quot;,&quot;imageName&quot;:&quot;page-003.jpg&quot;,&quot;imageId&quot;:3,&quot;bounds&quot;:{&quot;x&quot;:1728,&quot;y&quot;:2124,&quot;w&quot;:40,&quot;h&quot;:123},&quot;atoms&quot;:[{&quot;id&quot;:5510,&quot;token&quot;:&quot;a:1&quot;,&quot;particle_id&quot;:&quot;img3-m136-p5&quot;,&quot;molecule_id&quot;:&quot;img3-m136&quot;,&quot;atom_order&quot;:1}]}</metadata>
  <rect x="0" y="0" width="40" height="123" fill="#f8f0d8"/>
  <image href="file:///C:/Users/HHHES/AppData/Roaming/com.voynichlab.datasetcreator/images/1/35a70f63-88ab-4986-b441-b78046a10087.jpg" x="-1728" y="-2124" width="2972" height="3766" opacity="0.92"/>
  <rect x="0.5" y="0.5" width="39" height="122" fill="none" stroke="#111827" stroke-width="1" opacity="0.35"/>
  <polyline points="16,107 16,106 16,105 16,104 16,103 16,102 16,101 16,100 16,99 16,98 16,97 16,96 16,95 16,94 16,93 16,92 16,91 16,90 16,89 16,88 16,87 17,86 17,85 17,84 17,83 17,82 17,81 17,80 18,79 18,78 18,77 18,76 18,75 18,74 19,74 19,73 19,72 19,71 19,70 19,69 19,68 19,67 19,66 19,65 20,65 20,64 20,63 20,62 20,61 20,60 20,59 20,58 20,57 20,56 20,55 20,54 21,53 21,52 21,51 21,50 21,49 21,48 21,47 21,46 21,45 21,44 21,43 21,42 21,41 21,40 22,39 22,38 22,37 22,36 22,35 22,34 22,33 22,32 22,31 22,30 22,29 23,28 23,27 23,26 23,25 23,24 23,23 23,22 23,21 23,20 23,19 23,18 23,17 24,17 24,16" fill="none" stroke="#00f0b5" stroke-width="3" stroke-linecap="round" stroke-linejoin="round" opacity="0.95">
    <title>5510 a:1</title>
  </polyline>
</svg>
