<?xml version="1.0" encoding="UTF-8"?>
<svg xmlns="http://www.w3.org/2000/svg" width="60" height="35" viewBox="0 0 60 35">
  <title>atom 6315 d:1</title>
  <metadata>{&quot;entityType&quot;:&quot;atom&quot;,&quot;entityId&quot;:&quot;6315&quot;,&quot;token&quot;:&quot;d:1&quot;,&quot;signature&quot;:&quot;d:1&quot;,&quot;imageName&quot;:&quot;page-005.jpg&quot;,&quot;imageId&quot;:5,&quot;bounds&quot;:{&quot;x&quot;:579,&quot;y&quot;:503,&quot;w&quot;:60,&quot;h&quot;:35},&quot;atoms&quot;:[{&quot;id&quot;:6315,&quot;token&quot;:&quot;d:1&quot;,&quot;particle_id&quot;:&quot;img5-m1-p5&quot;,&quot;molecule_id&quot;:&quot;img5-m1&quot;,&quot;atom_order&quot;:4}]}</metadata>
  <rect x="0" y="0" width="60" height="35" fill="#f8f0d8"/>
  <image href="file:///C:/Users/HHHES/AppData/Roaming/com.voynichlab.datasetcreator/images/1/a6cd3b6e-2a78-4b30-a4be-5d186aea258e.jpg" x="-579" y="-503" width="2691" height="3770" opacity="0.92"/>
  <rect x="0.5" y="0.5" width="59" height="34" fill="none" stroke="#111827" stroke-width="1" opacity="0.35"/>
  <polyline points="16,19 17,19 17,18 18,18 19,18 19,17 20,17 21,17 22,16 23,16 24,16 25,16 26,16 27,16 28,16 29,16 30,16 31,16 32,16 33,16 34,16 35,16 36,16 36,17 37,17 38,17 39,17 40,17 41,17 42,17 43,18 44,18 44,19" fill="none" stroke="#ff2d55" stroke-width="3" stroke-linecap="round" stroke-linejoin="round" opacity="0.95">
    <title>6315 d:1</title>
  </polyline>
</svg>
