<?xml version="1.0" encoding="UTF-8"?>
<svg xmlns="http://www.w3.org/2000/svg" width="80" height="34" viewBox="0 0 80 34">
  <title>atom 6318 d:1</title>
  <metadata>{&quot;entityType&quot;:&quot;atom&quot;,&quot;entityId&quot;:&quot;6318&quot;,&quot;token&quot;:&quot;d:1&quot;,&quot;signature&quot;:&quot;d:1&quot;,&quot;imageName&quot;:&quot;page-005.jpg&quot;,&quot;imageId&quot;:5,&quot;bounds&quot;:{&quot;x&quot;:1523,&quot;y&quot;:512,&quot;w&quot;:80,&quot;h&quot;:34},&quot;atoms&quot;:[{&quot;id&quot;:6318,&quot;token&quot;:&quot;d:1&quot;,&quot;particle_id&quot;:&quot;img5-m8-p3&quot;,&quot;molecule_id&quot;:&quot;img5-m8&quot;,&quot;atom_order&quot;:4}]}</metadata>
  <rect x="0" y="0" width="80" height="34" fill="#f8f0d8"/>
  <image href="file:///C:/Users/HHHES/AppData/Roaming/com.voynichlab.datasetcreator/images/1/a6cd3b6e-2a78-4b30-a4be-5d186aea258e.jpg" x="-1523" y="-512" width="2691" height="3770" opacity="0.92"/>
  <rect x="0.5" y="0.5" width="79" height="33" fill="none" stroke="#111827" stroke-width="1" opacity="0.35"/>
  <polyline points="16,18 17,18 18,18 19,18 20,18 21,18 22,18 23,18 24,18 25,18 27,18 28,18 29,18 30,17 31,17 32,17 33,17 34,17 35,17 36,17 37,17 39,17 40,17 41,17 42,17 43,16 44,16 45,16 46,16 47,16 49,17 50,17 51,17 52,17 53,17 54,17 56,17 57,17 58,17 59,17 60,17 61,18 62,18 63,18 64,18" fill="none" stroke="#ff2d55" stroke-width="3" stroke-linecap="round" stroke-linejoin="round" opacity="0.95">
    <title>6318 d:1</title>
  </polyline>
</svg>
