<?xml version="1.0" encoding="UTF-8"?>
<svg xmlns="http://www.w3.org/2000/svg" width="54" height="47" viewBox="0 0 54 47">
  <title>atom 6319 d:1</title>
  <metadata>{&quot;entityType&quot;:&quot;atom&quot;,&quot;entityId&quot;:&quot;6319&quot;,&quot;token&quot;:&quot;d:1&quot;,&quot;signature&quot;:&quot;d:1&quot;,&quot;imageName&quot;:&quot;page-005.jpg&quot;,&quot;imageId&quot;:5,&quot;bounds&quot;:{&quot;x&quot;:1749,&quot;y&quot;:487,&quot;w&quot;:54,&quot;h&quot;:47},&quot;atoms&quot;:[{&quot;id&quot;:6319,&quot;token&quot;:&quot;d:1&quot;,&quot;particle_id&quot;:&quot;img5-m2-p4&quot;,&quot;molecule_id&quot;:&quot;img5-m2&quot;,&quot;atom_order&quot;:3}]}</metadata>
  <rect x="0" y="0" width="54" height="47" fill="#f8f0d8"/>
  <image href="file:///C:/Users/HHHES/AppData/Roaming/com.voynichlab.datasetcreator/images/1/a6cd3b6e-2a78-4b30-a4be-5d186aea258e.jpg" x="-1749" y="-487" width="2691" height="3770" opacity="0.92"/>
  <rect x="0.5" y="0.5" width="53" height="46" fill="none" stroke="#111827" stroke-width="1" opacity="0.35"/>
  <polyline points="16,28 16,27 16,26 16,25 16,24 16,23 16,22 17,21 17,20 18,20 19,19 20,18 21,17 22,17 23,17 23,16 24,16 25,16 26,16 27,16 27,17 28,17 29,17 31,18 32,19 33,19 34,20 34,21 35,21 35,22 36,22 36,23 36,24 36,25 37,25 37,26 37,27 37,28 38,29 38,30 38,31" fill="none" stroke="#ff2d55" stroke-width="3" stroke-linecap="round" stroke-linejoin="round" opacity="0.95">
    <title>6319 d:1</title>
  </polyline>
</svg>
