<?xml version="1.0" encoding="UTF-8"?>
<svg xmlns="http://www.w3.org/2000/svg" width="67" height="41" viewBox="0 0 67 41">
  <title>atom 6326 d:1</title>
  <metadata>{&quot;entityType&quot;:&quot;atom&quot;,&quot;entityId&quot;:&quot;6326&quot;,&quot;token&quot;:&quot;d:1&quot;,&quot;signature&quot;:&quot;d:1&quot;,&quot;imageName&quot;:&quot;page-005.jpg&quot;,&quot;imageId&quot;:5,&quot;bounds&quot;:{&quot;x&quot;:577,&quot;y&quot;:640,&quot;w&quot;:67,&quot;h&quot;:41},&quot;atoms&quot;:[{&quot;id&quot;:6326,&quot;token&quot;:&quot;d:1&quot;,&quot;particle_id&quot;:&quot;img5-m19-p4&quot;,&quot;molecule_id&quot;:&quot;img5-m19&quot;,&quot;atom_order&quot;:4}]}</metadata>
  <rect x="0" y="0" width="67" height="41" fill="#f8f0d8"/>
  <image href="file:///C:/Users/HHHES/AppData/Roaming/com.voynichlab.datasetcreator/images/1/a6cd3b6e-2a78-4b30-a4be-5d186aea258e.jpg" x="-577" y="-640" width="2691" height="3770" opacity="0.92"/>
  <rect x="0.5" y="0.5" width="66" height="40" fill="none" stroke="#111827" stroke-width="1" opacity="0.35"/>
  <polyline points="16,25 17,25 18,24 19,23 20,22 21,21 22,21 23,20 24,20 25,20 26,19 27,19 28,18 30,17 31,16 32,16 33,16 34,16 35,16 36,16 37,16 39,16 40,17 41,17 42,17 43,17 44,18 45,18 46,18 46,19 47,19 48,19 48,20 49,21 50,22 50,23 51,23" fill="none" stroke="#ff2d55" stroke-width="3" stroke-linecap="round" stroke-linejoin="round" opacity="0.95">
    <title>6326 d:1</title>
  </polyline>
</svg>
