<?xml version="1.0" encoding="UTF-8"?>
<svg xmlns="http://www.w3.org/2000/svg" width="51" height="40" viewBox="0 0 51 40">
  <title>atom 6327 d:1</title>
  <metadata>{&quot;entityType&quot;:&quot;atom&quot;,&quot;entityId&quot;:&quot;6327&quot;,&quot;token&quot;:&quot;d:1&quot;,&quot;signature&quot;:&quot;d:1&quot;,&quot;imageName&quot;:&quot;page-005.jpg&quot;,&quot;imageId&quot;:5,&quot;bounds&quot;:{&quot;x&quot;:1437,&quot;y&quot;:648,&quot;w&quot;:51,&quot;h&quot;:40},&quot;atoms&quot;:[{&quot;id&quot;:6327,&quot;token&quot;:&quot;d:1&quot;,&quot;particle_id&quot;:&quot;img5-m16-p3&quot;,&quot;molecule_id&quot;:&quot;img5-m16&quot;,&quot;atom_order&quot;:3}]}</metadata>
  <rect x="0" y="0" width="51" height="40" fill="#f8f0d8"/>
  <image href="file:///C:/Users/HHHES/AppData/Roaming/com.voynichlab.datasetcreator/images/1/a6cd3b6e-2a78-4b30-a4be-5d186aea258e.jpg" x="-1437" y="-648" width="2691" height="3770" opacity="0.92"/>
  <rect x="0.5" y="0.5" width="50" height="39" fill="none" stroke="#111827" stroke-width="1" opacity="0.35"/>
  <polyline points="16,21 17,21 17,20 18,20 18,19 19,19 19,18 20,18 20,17 21,17 22,17 22,16 23,16 24,16 25,16 26,16 27,16 28,16 29,16 30,16 30,17 31,17 32,17 32,18 33,18 33,19 34,20 34,21 35,21 35,22 35,23 35,24" fill="none" stroke="#ff2d55" stroke-width="3" stroke-linecap="round" stroke-linejoin="round" opacity="0.95">
    <title>6327 d:1</title>
  </polyline>
</svg>
