<?xml version="1.0" encoding="UTF-8"?>
<svg xmlns="http://www.w3.org/2000/svg" width="74" height="39" viewBox="0 0 74 39">
  <title>atom 6329 d:1</title>
  <metadata>{&quot;entityType&quot;:&quot;atom&quot;,&quot;entityId&quot;:&quot;6329&quot;,&quot;token&quot;:&quot;d:1&quot;,&quot;signature&quot;:&quot;d:1&quot;,&quot;imageName&quot;:&quot;page-005.jpg&quot;,&quot;imageId&quot;:5,&quot;bounds&quot;:{&quot;x&quot;:1952,&quot;y&quot;:740,&quot;w&quot;:74,&quot;h&quot;:39},&quot;atoms&quot;:[{&quot;id&quot;:6329,&quot;token&quot;:&quot;d:1&quot;,&quot;particle_id&quot;:&quot;img5-m26-p5&quot;,&quot;molecule_id&quot;:&quot;img5-m26&quot;,&quot;atom_order&quot;:4}]}</metadata>
  <rect x="0" y="0" width="74" height="39" fill="#f8f0d8"/>
  <image href="file:///C:/Users/HHHES/AppData/Roaming/com.voynichlab.datasetcreator/images/1/a6cd3b6e-2a78-4b30-a4be-5d186aea258e.jpg" x="-1952" y="-740" width="2691" height="3770" opacity="0.92"/>
  <rect x="0.5" y="0.5" width="73" height="38" fill="none" stroke="#111827" stroke-width="1" opacity="0.35"/>
  <polyline points="16,23 17,23 17,22 18,22 19,21 20,21 21,20 22,20 23,19 24,19 25,19 26,18 27,18 28,17 29,17 30,17 31,17 33,17 34,16 35,16 36,16 37,16 38,16 39,16 40,16 41,16 42,16 43,16 44,16 45,16 46,16 47,16 48,16 49,17 50,17 51,17 52,17 53,17 54,17 54,18 55,18 56,18 57,19 58,20" fill="none" stroke="#ff2d55" stroke-width="3" stroke-linecap="round" stroke-linejoin="round" opacity="0.95">
    <title>6329 d:1</title>
  </polyline>
</svg>
