<?xml version="1.0" encoding="UTF-8"?>
<svg xmlns="http://www.w3.org/2000/svg" width="64" height="38" viewBox="0 0 64 38">
  <title>atom 6333 d:1</title>
  <metadata>{&quot;entityType&quot;:&quot;atom&quot;,&quot;entityId&quot;:&quot;6333&quot;,&quot;token&quot;:&quot;d:1&quot;,&quot;signature&quot;:&quot;d:1&quot;,&quot;imageName&quot;:&quot;page-005.jpg&quot;,&quot;imageId&quot;:5,&quot;bounds&quot;:{&quot;x&quot;:1528,&quot;y&quot;:815,&quot;w&quot;:64,&quot;h&quot;:38},&quot;atoms&quot;:[{&quot;id&quot;:6333,&quot;token&quot;:&quot;d:1&quot;,&quot;particle_id&quot;:&quot;img5-m29-p3&quot;,&quot;molecule_id&quot;:&quot;img5-m29&quot;,&quot;atom_order&quot;:3}]}</metadata>
  <rect x="0" y="0" width="64" height="38" fill="#f8f0d8"/>
  <image href="file:///C:/Users/HHHES/AppData/Roaming/com.voynichlab.datasetcreator/images/1/a6cd3b6e-2a78-4b30-a4be-5d186aea258e.jpg" x="-1528" y="-815" width="2691" height="3770" opacity="0.92"/>
  <rect x="0.5" y="0.5" width="63" height="37" fill="none" stroke="#111827" stroke-width="1" opacity="0.35"/>
  <polyline points="16,22 17,21 18,20 18,19 19,19 20,18 21,18 21,17 22,17 23,17 24,16 25,16 26,16 27,16 29,16 30,16 31,16 32,16 33,16 34,16 35,16 36,16 37,16 38,16 39,16 39,17 40,17 41,17 42,17 43,18 44,18 45,18 46,19 47,20 47,21 48,21 48,22" fill="none" stroke="#ff2d55" stroke-width="3" stroke-linecap="round" stroke-linejoin="round" opacity="0.95">
    <title>6333 d:1</title>
  </polyline>
</svg>
