<?xml version="1.0" encoding="UTF-8"?>
<svg xmlns="http://www.w3.org/2000/svg" width="64" height="37" viewBox="0 0 64 37">
  <title>atom 6334 d:1</title>
  <metadata>{&quot;entityType&quot;:&quot;atom&quot;,&quot;entityId&quot;:&quot;6334&quot;,&quot;token&quot;:&quot;d:1&quot;,&quot;signature&quot;:&quot;d:1&quot;,&quot;imageName&quot;:&quot;page-005.jpg&quot;,&quot;imageId&quot;:5,&quot;bounds&quot;:{&quot;x&quot;:1909,&quot;y&quot;:820,&quot;w&quot;:64,&quot;h&quot;:37},&quot;atoms&quot;:[{&quot;id&quot;:6334,&quot;token&quot;:&quot;d:1&quot;,&quot;particle_id&quot;:&quot;img5-m32-p5&quot;,&quot;molecule_id&quot;:&quot;img5-m32&quot;,&quot;atom_order&quot;:4}]}</metadata>
  <rect x="0" y="0" width="64" height="37" fill="#f8f0d8"/>
  <image href="file:///C:/Users/HHHES/AppData/Roaming/com.voynichlab.datasetcreator/images/1/a6cd3b6e-2a78-4b30-a4be-5d186aea258e.jpg" x="-1909" y="-820" width="2691" height="3770" opacity="0.92"/>
  <rect x="0.5" y="0.5" width="63" height="36" fill="none" stroke="#111827" stroke-width="1" opacity="0.35"/>
  <polyline points="16,20 17,20 17,19 18,19 19,19 19,18 20,18 21,18 22,18 23,17 24,17 25,17 26,17 27,17 29,17 29,16 30,16 31,16 32,16 33,16 34,16 35,16 35,17 36,17 37,17 38,17 39,17 40,17 40,18 41,18 42,18 43,18 44,19 45,20 46,20 47,20 47,21 48,21" fill="none" stroke="#ff2d55" stroke-width="3" stroke-linecap="round" stroke-linejoin="round" opacity="0.95">
    <title>6334 d:1</title>
  </polyline>
</svg>
