<?xml version="1.0" encoding="UTF-8"?>
<svg xmlns="http://www.w3.org/2000/svg" width="71" height="42" viewBox="0 0 71 42">
  <title>atom 6335 d:1</title>
  <metadata>{&quot;entityType&quot;:&quot;atom&quot;,&quot;entityId&quot;:&quot;6335&quot;,&quot;token&quot;:&quot;d:1&quot;,&quot;signature&quot;:&quot;d:1&quot;,&quot;imageName&quot;:&quot;page-005.jpg&quot;,&quot;imageId&quot;:5,&quot;bounds&quot;:{&quot;x&quot;:2032,&quot;y&quot;:809,&quot;w&quot;:71,&quot;h&quot;:42},&quot;atoms&quot;:[{&quot;id&quot;:6335,&quot;token&quot;:&quot;d:1&quot;,&quot;particle_id&quot;:&quot;img5-m27-p3&quot;,&quot;molecule_id&quot;:&quot;img5-m27&quot;,&quot;atom_order&quot;:3}]}</metadata>
  <rect x="0" y="0" width="71" height="42" fill="#f8f0d8"/>
  <image href="file:///C:/Users/HHHES/AppData/Roaming/com.voynichlab.datasetcreator/images/1/a6cd3b6e-2a78-4b30-a4be-5d186aea258e.jpg" x="-2032" y="-809" width="2691" height="3770" opacity="0.92"/>
  <rect x="0.5" y="0.5" width="70" height="41" fill="none" stroke="#111827" stroke-width="1" opacity="0.35"/>
  <polyline points="16,22 16,21 17,21 18,20 19,19 20,19 20,18 21,18 22,18 23,17 24,17 24,16 25,16 26,16 27,16 29,16 31,16 33,16 34,17 35,17 36,17 37,18 38,18 39,18 40,19 41,19 43,19 44,20 45,20 46,21 47,22 48,22 49,22 49,23 50,23 51,23 52,24 53,24 53,25 54,25 55,25 55,26" fill="none" stroke="#ff2d55" stroke-width="3" stroke-linecap="round" stroke-linejoin="round" opacity="0.95">
    <title>6335 d:1</title>
  </polyline>
</svg>
