<?xml version="1.0" encoding="UTF-8"?>
<svg xmlns="http://www.w3.org/2000/svg" width="68" height="40" viewBox="0 0 68 40">
  <title>atom 6336 d:1</title>
  <metadata>{&quot;entityType&quot;:&quot;atom&quot;,&quot;entityId&quot;:&quot;6336&quot;,&quot;token&quot;:&quot;d:1&quot;,&quot;signature&quot;:&quot;d:1&quot;,&quot;imageName&quot;:&quot;page-005.jpg&quot;,&quot;imageId&quot;:5,&quot;bounds&quot;:{&quot;x&quot;:1173,&quot;y&quot;:973,&quot;w&quot;:68,&quot;h&quot;:40},&quot;atoms&quot;:[{&quot;id&quot;:6336,&quot;token&quot;:&quot;d:1&quot;,&quot;particle_id&quot;:&quot;img5-m46-p6&quot;,&quot;molecule_id&quot;:&quot;img5-m46&quot;,&quot;atom_order&quot;:3}]}</metadata>
  <rect x="0" y="0" width="68" height="40" fill="#f8f0d8"/>
  <image href="file:///C:/Users/HHHES/AppData/Roaming/com.voynichlab.datasetcreator/images/1/a6cd3b6e-2a78-4b30-a4be-5d186aea258e.jpg" x="-1173" y="-973" width="2691" height="3770" opacity="0.92"/>
  <rect x="0.5" y="0.5" width="67" height="39" fill="none" stroke="#111827" stroke-width="1" opacity="0.35"/>
  <polyline points="16,24 17,24 18,23 18,22 19,21 20,20 22,19 24,18 25,17 26,17 28,17 29,17 30,16 31,16 32,16 33,16 35,16 36,16 37,16 39,16 40,16 42,16 43,16 44,16 45,16 46,17 47,17 48,17 49,17 49,18 50,18 50,19 50,20 51,20 52,20" fill="none" stroke="#ff2d55" stroke-width="3" stroke-linecap="round" stroke-linejoin="round" opacity="0.95">
    <title>6336 d:1</title>
  </polyline>
</svg>
