<?xml version="1.0" encoding="UTF-8"?>
<svg xmlns="http://www.w3.org/2000/svg" width="64" height="41" viewBox="0 0 64 41">
  <title>atom 6341 d:1</title>
  <metadata>{&quot;entityType&quot;:&quot;atom&quot;,&quot;entityId&quot;:&quot;6341&quot;,&quot;token&quot;:&quot;d:1&quot;,&quot;signature&quot;:&quot;d:1&quot;,&quot;imageName&quot;:&quot;page-005.jpg&quot;,&quot;imageId&quot;:5,&quot;bounds&quot;:{&quot;x&quot;:706,&quot;y&quot;:878,&quot;w&quot;:64,&quot;h&quot;:41},&quot;atoms&quot;:[{&quot;id&quot;:6341,&quot;token&quot;:&quot;d:1&quot;,&quot;particle_id&quot;:&quot;img5-m36-p3&quot;,&quot;molecule_id&quot;:&quot;img5-m36&quot;,&quot;atom_order&quot;:4}]}</metadata>
  <rect x="0" y="0" width="64" height="41" fill="#f8f0d8"/>
  <image href="file:///C:/Users/HHHES/AppData/Roaming/com.voynichlab.datasetcreator/images/1/a6cd3b6e-2a78-4b30-a4be-5d186aea258e.jpg" x="-706" y="-878" width="2691" height="3770" opacity="0.92"/>
  <rect x="0.5" y="0.5" width="63" height="40" fill="none" stroke="#111827" stroke-width="1" opacity="0.35"/>
  <polyline points="16,22 17,21 18,21 19,20 20,19 21,19 21,18 22,18 23,18 24,17 25,17 26,17 27,16 28,16 29,16 30,16 31,16 32,16 34,16 35,16 36,16 36,17 37,17 38,17 39,18 40,18 41,18 41,19 42,19 43,19 43,20 44,20 44,21 45,21 45,22 46,23 47,23 47,24 48,24 48,25" fill="none" stroke="#ff2d55" stroke-width="3" stroke-linecap="round" stroke-linejoin="round" opacity="0.95">
    <title>6341 d:1</title>
  </polyline>
</svg>
