<?xml version="1.0" encoding="UTF-8"?>
<svg xmlns="http://www.w3.org/2000/svg" width="55" height="42" viewBox="0 0 55 42">
  <title>atom 6342 d:1</title>
  <metadata>{&quot;entityType&quot;:&quot;atom&quot;,&quot;entityId&quot;:&quot;6342&quot;,&quot;token&quot;:&quot;d:1&quot;,&quot;signature&quot;:&quot;d:1&quot;,&quot;imageName&quot;:&quot;page-005.jpg&quot;,&quot;imageId&quot;:5,&quot;bounds&quot;:{&quot;x&quot;:1143,&quot;y&quot;:877,&quot;w&quot;:55,&quot;h&quot;:42},&quot;atoms&quot;:[{&quot;id&quot;:6342,&quot;token&quot;:&quot;d:1&quot;,&quot;particle_id&quot;:&quot;img5-m38-p1&quot;,&quot;molecule_id&quot;:&quot;img5-m38&quot;,&quot;atom_order&quot;:3}]}</metadata>
  <rect x="0" y="0" width="55" height="42" fill="#f8f0d8"/>
  <image href="file:///C:/Users/HHHES/AppData/Roaming/com.voynichlab.datasetcreator/images/1/a6cd3b6e-2a78-4b30-a4be-5d186aea258e.jpg" x="-1143" y="-877" width="2691" height="3770" opacity="0.92"/>
  <rect x="0.5" y="0.5" width="54" height="41" fill="none" stroke="#111827" stroke-width="1" opacity="0.35"/>
  <polyline points="16,25 16,24 16,23 17,22 17,21 18,20 18,19 19,18 20,18 21,17 22,17 23,16 24,16 25,16 26,16 27,16 28,16 29,16 30,16 31,17 32,17 33,18 34,18 35,18 36,19 36,20 37,20 37,21 38,21 38,22 38,23 39,23 39,24 39,25 39,26" fill="none" stroke="#ff2d55" stroke-width="3" stroke-linecap="round" stroke-linejoin="round" opacity="0.95">
    <title>6342 d:1</title>
  </polyline>
</svg>
