<?xml version="1.0" encoding="UTF-8"?>
<svg xmlns="http://www.w3.org/2000/svg" width="82" height="47" viewBox="0 0 82 47">
  <title>atom 6345 d:1</title>
  <metadata>{&quot;entityType&quot;:&quot;atom&quot;,&quot;entityId&quot;:&quot;6345&quot;,&quot;token&quot;:&quot;d:1&quot;,&quot;signature&quot;:&quot;d:1&quot;,&quot;imageName&quot;:&quot;page-005.jpg&quot;,&quot;imageId&quot;:5,&quot;bounds&quot;:{&quot;x&quot;:685,&quot;y&quot;:475,&quot;w&quot;:82,&quot;h&quot;:47},&quot;atoms&quot;:[{&quot;id&quot;:6345,&quot;token&quot;:&quot;d:1&quot;,&quot;particle_id&quot;:&quot;img5-m3-p2&quot;,&quot;molecule_id&quot;:&quot;img5-m3&quot;,&quot;atom_order&quot;:6}]}</metadata>
  <rect x="0" y="0" width="82" height="47" fill="#f8f0d8"/>
  <image href="file:///C:/Users/HHHES/AppData/Roaming/com.voynichlab.datasetcreator/images/1/a6cd3b6e-2a78-4b30-a4be-5d186aea258e.jpg" x="-685" y="-475" width="2691" height="3770" opacity="0.92"/>
  <rect x="0.5" y="0.5" width="81" height="46" fill="none" stroke="#111827" stroke-width="1" opacity="0.35"/>
  <polyline points="27,31 26,31 26,30 25,30 24,30 23,30 22,29 21,29 20,29 19,29 18,28 17,28 17,27 17,25 17,24 16,23 16,22 16,21 16,20 17,20 17,19 18,19 19,19 19,18 20,18 21,18 22,18 22,17 23,17 25,17 27,16 28,16 29,16 30,16 31,16 33,16 36,16 37,16 38,16 39,16 40,16 41,16 42,16 44,17 45,17 46,17 47,18 48,18 49,19 50,19 51,19 52,19 53,19 55,19 56,19 57,19 58,19 59,19 60,19 61,19 62,19 63,19 64,19 64,18 65,18 66,18" fill="none" stroke="#ff2d55" stroke-width="3" stroke-linecap="round" stroke-linejoin="round" opacity="0.95">
    <title>6345 d:1</title>
  </polyline>
</svg>
