<?xml version="1.0" encoding="UTF-8"?>
<svg xmlns="http://www.w3.org/2000/svg" width="70" height="41" viewBox="0 0 70 41">
  <title>atom 6347 d:1</title>
  <metadata>{&quot;entityType&quot;:&quot;atom&quot;,&quot;entityId&quot;:&quot;6347&quot;,&quot;token&quot;:&quot;d:1&quot;,&quot;signature&quot;:&quot;d:1&quot;,&quot;imageName&quot;:&quot;page-005.jpg&quot;,&quot;imageId&quot;:5,&quot;bounds&quot;:{&quot;x&quot;:1363,&quot;y&quot;:494,&quot;w&quot;:70,&quot;h&quot;:41},&quot;atoms&quot;:[{&quot;id&quot;:6347,&quot;token&quot;:&quot;d:1&quot;,&quot;particle_id&quot;:&quot;img5-m4-p1&quot;,&quot;molecule_id&quot;:&quot;img5-m4&quot;,&quot;atom_order&quot;:7}]}</metadata>
  <rect x="0" y="0" width="70" height="41" fill="#f8f0d8"/>
  <image href="file:///C:/Users/HHHES/AppData/Roaming/com.voynichlab.datasetcreator/images/1/a6cd3b6e-2a78-4b30-a4be-5d186aea258e.jpg" x="-1363" y="-494" width="2691" height="3770" opacity="0.92"/>
  <rect x="0.5" y="0.5" width="69" height="40" fill="none" stroke="#111827" stroke-width="1" opacity="0.35"/>
  <polyline points="16,24 17,25 18,25 18,24 18,23 19,23 19,22 20,22 21,21 22,20 23,19 24,19 25,19 26,18 27,17 28,17 29,16 30,16 31,16 32,16 33,16 34,16 35,16 36,16 37,16 38,16 39,16 40,16 41,16 42,17 43,17 44,17 44,18 45,18 46,18 47,18 48,18 48,19 49,19 50,19 51,19 52,20 53,20 54,20 54,21" fill="none" stroke="#ff2d55" stroke-width="3" stroke-linecap="round" stroke-linejoin="round" opacity="0.95">
    <title>6347 d:1</title>
  </polyline>
</svg>
