<?xml version="1.0" encoding="UTF-8"?>
<svg xmlns="http://www.w3.org/2000/svg" width="58" height="42" viewBox="0 0 58 42">
  <title>atom 6348 d:1</title>
  <metadata>{&quot;entityType&quot;:&quot;atom&quot;,&quot;entityId&quot;:&quot;6348&quot;,&quot;token&quot;:&quot;d:1&quot;,&quot;signature&quot;:&quot;d:1&quot;,&quot;imageName&quot;:&quot;page-005.jpg&quot;,&quot;imageId&quot;:5,&quot;bounds&quot;:{&quot;x&quot;:631,&quot;y&quot;:2458,&quot;w&quot;:58,&quot;h&quot;:42},&quot;atoms&quot;:[{&quot;id&quot;:6348,&quot;token&quot;:&quot;d:1&quot;,&quot;particle_id&quot;:&quot;img5-m48-p5&quot;,&quot;molecule_id&quot;:&quot;img5-m48&quot;,&quot;atom_order&quot;:4}]}</metadata>
  <rect x="0" y="0" width="58" height="42" fill="#f8f0d8"/>
  <image href="file:///C:/Users/HHHES/AppData/Roaming/com.voynichlab.datasetcreator/images/1/a6cd3b6e-2a78-4b30-a4be-5d186aea258e.jpg" x="-631" y="-2458" width="2691" height="3770" opacity="0.92"/>
  <rect x="0.5" y="0.5" width="57" height="41" fill="none" stroke="#111827" stroke-width="1" opacity="0.35"/>
  <polyline points="16,19 17,18 18,18 18,17 19,17 20,16 21,16 22,16 23,16 24,16 25,16 26,16 27,16 28,16 29,16 29,17 30,17 31,17 32,17 32,18 33,18 34,18 35,18 35,19 36,19 36,20 37,20 38,20 38,21 39,21 39,22 40,22 40,23 41,23 41,24 42,24 42,25 42,26" fill="none" stroke="#ff2d55" stroke-width="3" stroke-linecap="round" stroke-linejoin="round" opacity="0.95">
    <title>6348 d:1</title>
  </polyline>
</svg>
