<?xml version="1.0" encoding="UTF-8"?>
<svg xmlns="http://www.w3.org/2000/svg" width="77" height="39" viewBox="0 0 77 39">
  <title>atom 6351 d:1</title>
  <metadata>{&quot;entityType&quot;:&quot;atom&quot;,&quot;entityId&quot;:&quot;6351&quot;,&quot;token&quot;:&quot;d:1&quot;,&quot;signature&quot;:&quot;d:1&quot;,&quot;imageName&quot;:&quot;page-005.jpg&quot;,&quot;imageId&quot;:5,&quot;bounds&quot;:{&quot;x&quot;:1398,&quot;y&quot;:2458,&quot;w&quot;:77,&quot;h&quot;:39},&quot;atoms&quot;:[{&quot;id&quot;:6351,&quot;token&quot;:&quot;d:1&quot;,&quot;particle_id&quot;:&quot;img5-m57-p7&quot;,&quot;molecule_id&quot;:&quot;img5-m57&quot;,&quot;atom_order&quot;:3}]}</metadata>
  <rect x="0" y="0" width="77" height="39" fill="#f8f0d8"/>
  <image href="file:///C:/Users/HHHES/AppData/Roaming/com.voynichlab.datasetcreator/images/1/a6cd3b6e-2a78-4b30-a4be-5d186aea258e.jpg" x="-1398" y="-2458" width="2691" height="3770" opacity="0.92"/>
  <rect x="0.5" y="0.5" width="76" height="38" fill="none" stroke="#111827" stroke-width="1" opacity="0.35"/>
  <polyline points="16,20 17,20 18,19 19,19 20,18 21,18 22,18 23,17 24,17 25,17 26,17 27,17 28,17 29,17 30,16 31,16 32,16 33,16 34,16 35,16 36,16 37,16 38,16 39,16 40,16 41,17 42,17 43,17 44,17 45,17 46,17 47,18 48,18 49,18 50,18 51,19 52,19 53,19 54,20 55,20 56,21 57,21 58,21 59,21 59,22 60,22 61,23" fill="none" stroke="#ff2d55" stroke-width="3" stroke-linecap="round" stroke-linejoin="round" opacity="0.95">
    <title>6351 d:1</title>
  </polyline>
</svg>
