<?xml version="1.0" encoding="UTF-8"?>
<svg xmlns="http://www.w3.org/2000/svg" width="61" height="45" viewBox="0 0 61 45">
  <title>atom 6356 d:1</title>
  <metadata>{&quot;entityType&quot;:&quot;atom&quot;,&quot;entityId&quot;:&quot;6356&quot;,&quot;token&quot;:&quot;d:1&quot;,&quot;signature&quot;:&quot;d:1&quot;,&quot;imageName&quot;:&quot;page-005.jpg&quot;,&quot;imageId&quot;:5,&quot;bounds&quot;:{&quot;x&quot;:827,&quot;y&quot;:2610,&quot;w&quot;:61,&quot;h&quot;:45},&quot;atoms&quot;:[{&quot;id&quot;:6356,&quot;token&quot;:&quot;d:1&quot;,&quot;particle_id&quot;:&quot;img5-m73-p5&quot;,&quot;molecule_id&quot;:&quot;img5-m73&quot;,&quot;atom_order&quot;:4}]}</metadata>
  <rect x="0" y="0" width="61" height="45" fill="#f8f0d8"/>
  <image href="file:///C:/Users/HHHES/AppData/Roaming/com.voynichlab.datasetcreator/images/1/a6cd3b6e-2a78-4b30-a4be-5d186aea258e.jpg" x="-827" y="-2610" width="2691" height="3770" opacity="0.92"/>
  <rect x="0.5" y="0.5" width="60" height="44" fill="none" stroke="#111827" stroke-width="1" opacity="0.35"/>
  <polyline points="16,29 17,29 17,28 18,27 19,25 20,24 22,23 23,23 23,22 24,21 25,21 26,20 27,19 28,19 29,18 30,18 30,17 31,17 32,17 33,16 34,16 36,16 37,16 38,16 38,17 39,17 40,17 42,18 43,19 43,20 44,21 44,22 45,22 45,23 45,24" fill="none" stroke="#ff2d55" stroke-width="3" stroke-linecap="round" stroke-linejoin="round" opacity="0.95">
    <title>6356 d:1</title>
  </polyline>
</svg>
