<?xml version="1.0" encoding="UTF-8"?>
<svg xmlns="http://www.w3.org/2000/svg" width="61" height="42" viewBox="0 0 61 42">
  <title>atom 6357 d:1</title>
  <metadata>{&quot;entityType&quot;:&quot;atom&quot;,&quot;entityId&quot;:&quot;6357&quot;,&quot;token&quot;:&quot;d:1&quot;,&quot;signature&quot;:&quot;d:1&quot;,&quot;imageName&quot;:&quot;page-005.jpg&quot;,&quot;imageId&quot;:5,&quot;bounds&quot;:{&quot;x&quot;:1407,&quot;y&quot;:2630,&quot;w&quot;:61,&quot;h&quot;:42},&quot;atoms&quot;:[{&quot;id&quot;:6357,&quot;token&quot;:&quot;d:1&quot;,&quot;particle_id&quot;:&quot;img5-m74-p3&quot;,&quot;molecule_id&quot;:&quot;img5-m74&quot;,&quot;atom_order&quot;:4}]}</metadata>
  <rect x="0" y="0" width="61" height="42" fill="#f8f0d8"/>
  <image href="file:///C:/Users/HHHES/AppData/Roaming/com.voynichlab.datasetcreator/images/1/a6cd3b6e-2a78-4b30-a4be-5d186aea258e.jpg" x="-1407" y="-2630" width="2691" height="3770" opacity="0.92"/>
  <rect x="0.5" y="0.5" width="60" height="41" fill="none" stroke="#111827" stroke-width="1" opacity="0.35"/>
  <polyline points="16,26 16,25 17,25 17,24 18,23 19,22 20,22 20,21 21,21 22,20 23,20 23,19 25,18 26,18 27,17 28,16 29,16 30,16 31,16 32,16 33,16 35,16 36,16 37,16 38,16 39,16 40,16 41,16 42,16 43,17 44,17 45,18" fill="none" stroke="#ff2d55" stroke-width="3" stroke-linecap="round" stroke-linejoin="round" opacity="0.95">
    <title>6357 d:1</title>
  </polyline>
</svg>
