<?xml version="1.0" encoding="UTF-8"?>
<svg xmlns="http://www.w3.org/2000/svg" width="72" height="43" viewBox="0 0 72 43">
  <title>atom 6360 d:1</title>
  <metadata>{&quot;entityType&quot;:&quot;atom&quot;,&quot;entityId&quot;:&quot;6360&quot;,&quot;token&quot;:&quot;d:1&quot;,&quot;signature&quot;:&quot;d:1&quot;,&quot;imageName&quot;:&quot;page-005.jpg&quot;,&quot;imageId&quot;:5,&quot;bounds&quot;:{&quot;x&quot;:2138,&quot;y&quot;:2591,&quot;w&quot;:72,&quot;h&quot;:43},&quot;atoms&quot;:[{&quot;id&quot;:6360,&quot;token&quot;:&quot;d:1&quot;,&quot;particle_id&quot;:&quot;img5-m71-p3&quot;,&quot;molecule_id&quot;:&quot;img5-m71&quot;,&quot;atom_order&quot;:4}]}</metadata>
  <rect x="0" y="0" width="72" height="43" fill="#f8f0d8"/>
  <image href="file:///C:/Users/HHHES/AppData/Roaming/com.voynichlab.datasetcreator/images/1/a6cd3b6e-2a78-4b30-a4be-5d186aea258e.jpg" x="-2138" y="-2591" width="2691" height="3770" opacity="0.92"/>
  <rect x="0.5" y="0.5" width="71" height="42" fill="none" stroke="#111827" stroke-width="1" opacity="0.35"/>
  <polyline points="16,17 17,17 18,16 19,16 21,16 22,16 23,16 24,16 26,16 27,16 29,16 30,16 30,17 32,17 34,17 36,18 37,18 38,19 39,19 41,20 42,20 43,20 43,21 44,21 45,21 47,22 48,22 49,23 50,23 51,24 52,24 53,25 54,25 55,26 56,27" fill="none" stroke="#ff2d55" stroke-width="3" stroke-linecap="round" stroke-linejoin="round" opacity="0.95">
    <title>6360 d:1</title>
  </polyline>
</svg>
