<?xml version="1.0" encoding="UTF-8"?>
<svg xmlns="http://www.w3.org/2000/svg" width="86" height="42" viewBox="0 0 86 42">
  <title>atom 6361 d:1</title>
  <metadata>{&quot;entityType&quot;:&quot;atom&quot;,&quot;entityId&quot;:&quot;6361&quot;,&quot;token&quot;:&quot;d:1&quot;,&quot;signature&quot;:&quot;d:1&quot;,&quot;imageName&quot;:&quot;page-005.jpg&quot;,&quot;imageId&quot;:5,&quot;bounds&quot;:{&quot;x&quot;:2286,&quot;y&quot;:2570,&quot;w&quot;:86,&quot;h&quot;:42},&quot;atoms&quot;:[{&quot;id&quot;:6361,&quot;token&quot;:&quot;d:1&quot;,&quot;particle_id&quot;:&quot;img5-m68-p4&quot;,&quot;molecule_id&quot;:&quot;img5-m68&quot;,&quot;atom_order&quot;:4}]}</metadata>
  <rect x="0" y="0" width="86" height="42" fill="#f8f0d8"/>
  <image href="file:///C:/Users/HHHES/AppData/Roaming/com.voynichlab.datasetcreator/images/1/a6cd3b6e-2a78-4b30-a4be-5d186aea258e.jpg" x="-2286" y="-2570" width="2691" height="3770" opacity="0.92"/>
  <rect x="0.5" y="0.5" width="85" height="41" fill="none" stroke="#111827" stroke-width="1" opacity="0.35"/>
  <polyline points="16,23 17,22 18,22 19,22 20,21 21,21 22,21 23,20 24,20 25,19 27,19 28,18 29,18 30,17 31,17 32,17 34,16 36,16 37,16 39,16 41,16 43,16 46,16 48,16 50,17 52,17 53,17 56,17 56,18 58,18 59,18 59,19 60,19 61,19 62,20 64,21 66,21 67,22 68,22 68,23 69,23 69,25 70,25 70,26" fill="none" stroke="#ff2d55" stroke-width="3" stroke-linecap="round" stroke-linejoin="round" opacity="0.95">
    <title>6361 d:1</title>
  </polyline>
</svg>
