<?xml version="1.0" encoding="UTF-8"?>
<svg xmlns="http://www.w3.org/2000/svg" width="66" height="45" viewBox="0 0 66 45">
  <title>atom 6365 d:1</title>
  <metadata>{&quot;entityType&quot;:&quot;atom&quot;,&quot;entityId&quot;:&quot;6365&quot;,&quot;token&quot;:&quot;d:1&quot;,&quot;signature&quot;:&quot;d:1&quot;,&quot;imageName&quot;:&quot;page-005.jpg&quot;,&quot;imageId&quot;:5,&quot;bounds&quot;:{&quot;x&quot;:1849,&quot;y&quot;:2681,&quot;w&quot;:66,&quot;h&quot;:45},&quot;atoms&quot;:[{&quot;id&quot;:6365,&quot;token&quot;:&quot;d:1&quot;,&quot;particle_id&quot;:&quot;img5-m86-p5&quot;,&quot;molecule_id&quot;:&quot;img5-m86&quot;,&quot;atom_order&quot;:4}]}</metadata>
  <rect x="0" y="0" width="66" height="45" fill="#f8f0d8"/>
  <image href="file:///C:/Users/HHHES/AppData/Roaming/com.voynichlab.datasetcreator/images/1/a6cd3b6e-2a78-4b30-a4be-5d186aea258e.jpg" x="-1849" y="-2681" width="2691" height="3770" opacity="0.92"/>
  <rect x="0.5" y="0.5" width="65" height="44" fill="none" stroke="#111827" stroke-width="1" opacity="0.35"/>
  <polyline points="16,25 16,24 17,24 17,23 18,22 18,21 19,21 19,20 20,20 21,19 22,18 23,18 23,17 24,17 25,17 26,16 27,16 28,16 29,16 30,16 31,16 32,16 33,16 34,16 35,16 36,16 37,17 38,17 39,17 39,18 40,18 41,19 42,19 42,20 43,20 44,20 44,21 45,21 45,22 46,22 46,23 47,23 47,24 47,25 48,25 48,26 49,26 49,27 49,28 49,29 50,29" fill="none" stroke="#ff2d55" stroke-width="3" stroke-linecap="round" stroke-linejoin="round" opacity="0.95">
    <title>6365 d:1</title>
  </polyline>
</svg>
