<?xml version="1.0" encoding="UTF-8"?>
<svg xmlns="http://www.w3.org/2000/svg" width="49" height="39" viewBox="0 0 49 39">
  <title>atom 6367 d:1</title>
  <metadata>{&quot;entityType&quot;:&quot;atom&quot;,&quot;entityId&quot;:&quot;6367&quot;,&quot;token&quot;:&quot;d:1&quot;,&quot;signature&quot;:&quot;d:1&quot;,&quot;imageName&quot;:&quot;page-005.jpg&quot;,&quot;imageId&quot;:5,&quot;bounds&quot;:{&quot;x&quot;:1291,&quot;y&quot;:2704,&quot;w&quot;:49,&quot;h&quot;:39},&quot;atoms&quot;:[{&quot;id&quot;:6367,&quot;token&quot;:&quot;d:1&quot;,&quot;particle_id&quot;:&quot;img5-m88-p2&quot;,&quot;molecule_id&quot;:&quot;img5-m88&quot;,&quot;atom_order&quot;:3}]}</metadata>
  <rect x="0" y="0" width="49" height="39" fill="#f8f0d8"/>
  <image href="file:///C:/Users/HHHES/AppData/Roaming/com.voynichlab.datasetcreator/images/1/a6cd3b6e-2a78-4b30-a4be-5d186aea258e.jpg" x="-1291" y="-2704" width="2691" height="3770" opacity="0.92"/>
  <rect x="0.5" y="0.5" width="48" height="38" fill="none" stroke="#111827" stroke-width="1" opacity="0.35"/>
  <polyline points="16,23 16,22 17,22 17,21 17,20 18,20 18,19 19,19 19,18 20,17 21,17 21,16 22,16 23,16 24,16 25,16 26,17 27,17 27,18 28,18 28,19 29,19 29,20 30,20 30,21 31,21 31,22 32,22 32,23 33,23" fill="none" stroke="#ff2d55" stroke-width="3" stroke-linecap="round" stroke-linejoin="round" opacity="0.95">
    <title>6367 d:1</title>
  </polyline>
</svg>
