<?xml version="1.0" encoding="UTF-8"?>
<svg xmlns="http://www.w3.org/2000/svg" width="50" height="43" viewBox="0 0 50 43">
  <title>atom 6374 d:1</title>
  <metadata>{&quot;entityType&quot;:&quot;atom&quot;,&quot;entityId&quot;:&quot;6374&quot;,&quot;token&quot;:&quot;d:1&quot;,&quot;signature&quot;:&quot;d:1&quot;,&quot;imageName&quot;:&quot;page-005.jpg&quot;,&quot;imageId&quot;:5,&quot;bounds&quot;:{&quot;x&quot;:1215,&quot;y&quot;:2791,&quot;w&quot;:50,&quot;h&quot;:43},&quot;atoms&quot;:[{&quot;id&quot;:6374,&quot;token&quot;:&quot;d:1&quot;,&quot;particle_id&quot;:&quot;img5-m99-p3&quot;,&quot;molecule_id&quot;:&quot;img5-m99&quot;,&quot;atom_order&quot;:3}]}</metadata>
  <rect x="0" y="0" width="50" height="43" fill="#f8f0d8"/>
  <image href="file:///C:/Users/HHHES/AppData/Roaming/com.voynichlab.datasetcreator/images/1/a6cd3b6e-2a78-4b30-a4be-5d186aea258e.jpg" x="-1215" y="-2791" width="2691" height="3770" opacity="0.92"/>
  <rect x="0.5" y="0.5" width="49" height="42" fill="none" stroke="#111827" stroke-width="1" opacity="0.35"/>
  <polyline points="16,27 16,26 16,25 16,24 17,23 17,22 18,21 18,20 19,19 20,18 21,18 21,17 22,17 23,17 24,16 25,16 26,16 27,16 28,16 29,16 31,16 31,17 32,17 33,18 33,19 33,20 34,20 34,21 34,22 34,23 34,24 34,25" fill="none" stroke="#ff2d55" stroke-width="3" stroke-linecap="round" stroke-linejoin="round" opacity="0.95">
    <title>6374 d:1</title>
  </polyline>
</svg>
