<?xml version="1.0" encoding="UTF-8"?>
<svg xmlns="http://www.w3.org/2000/svg" width="59" height="43" viewBox="0 0 59 43">
  <title>atom 6377 d:1</title>
  <metadata>{&quot;entityType&quot;:&quot;atom&quot;,&quot;entityId&quot;:&quot;6377&quot;,&quot;token&quot;:&quot;d:1&quot;,&quot;signature&quot;:&quot;d:1&quot;,&quot;imageName&quot;:&quot;page-005.jpg&quot;,&quot;imageId&quot;:5,&quot;bounds&quot;:{&quot;x&quot;:1625,&quot;y&quot;:2769,&quot;w&quot;:59,&quot;h&quot;:43},&quot;atoms&quot;:[{&quot;id&quot;:6377,&quot;token&quot;:&quot;d:1&quot;,&quot;particle_id&quot;:&quot;img5-m91-p1&quot;,&quot;molecule_id&quot;:&quot;img5-m91&quot;,&quot;atom_order&quot;:3}]}</metadata>
  <rect x="0" y="0" width="59" height="43" fill="#f8f0d8"/>
  <image href="file:///C:/Users/HHHES/AppData/Roaming/com.voynichlab.datasetcreator/images/1/a6cd3b6e-2a78-4b30-a4be-5d186aea258e.jpg" x="-1625" y="-2769" width="2691" height="3770" opacity="0.92"/>
  <rect x="0.5" y="0.5" width="58" height="42" fill="none" stroke="#111827" stroke-width="1" opacity="0.35"/>
  <polyline points="16,20 16,19 17,19 18,18 18,17 19,17 20,17 21,17 21,16 22,16 23,16 24,16 25,16 26,16 27,16 28,16 29,16 30,16 32,17 33,17 34,17 35,18 36,18 36,19 37,19 37,20 38,20 38,21 39,21 40,21 40,22 41,22 41,23 42,24 43,25 43,26 43,27" fill="none" stroke="#ff2d55" stroke-width="3" stroke-linecap="round" stroke-linejoin="round" opacity="0.95">
    <title>6377 d:1</title>
  </polyline>
</svg>
