<?xml version="1.0" encoding="UTF-8"?>
<svg xmlns="http://www.w3.org/2000/svg" width="53" height="39" viewBox="0 0 53 39">
  <title>atom 6442 d:1</title>
  <metadata>{&quot;entityType&quot;:&quot;atom&quot;,&quot;entityId&quot;:&quot;6442&quot;,&quot;token&quot;:&quot;d:1&quot;,&quot;signature&quot;:&quot;d:1&quot;,&quot;imageName&quot;:&quot;page-005.jpg&quot;,&quot;imageId&quot;:5,&quot;bounds&quot;:{&quot;x&quot;:2020,&quot;y&quot;:2594,&quot;w&quot;:53,&quot;h&quot;:39},&quot;atoms&quot;:[{&quot;id&quot;:6442,&quot;token&quot;:&quot;d:1&quot;,&quot;particle_id&quot;:&quot;img5-m71-p1&quot;,&quot;molecule_id&quot;:&quot;img5-m71&quot;,&quot;atom_order&quot;:3}]}</metadata>
  <rect x="0" y="0" width="53" height="39" fill="#f8f0d8"/>
  <image href="file:///C:/Users/HHHES/AppData/Roaming/com.voynichlab.datasetcreator/images/1/a6cd3b6e-2a78-4b30-a4be-5d186aea258e.jpg" x="-2020" y="-2594" width="2691" height="3770" opacity="0.92"/>
  <rect x="0.5" y="0.5" width="52" height="38" fill="none" stroke="#111827" stroke-width="1" opacity="0.35"/>
  <polyline points="16,21 16,20 17,20 17,19 18,19 18,18 19,18 20,17 21,17 22,17 22,16 23,16 24,16 25,16 26,16 27,16 28,16 29,16 30,16 31,16 32,16 32,17 33,17 34,17 34,18 34,19 35,19 35,20 36,20 36,21 36,22 37,22 37,23" fill="none" stroke="#ff2d55" stroke-width="3" stroke-linecap="round" stroke-linejoin="round" opacity="0.95">
    <title>6442 d:1</title>
  </polyline>
</svg>
