<?xml version="1.0" encoding="UTF-8"?>
<svg xmlns="http://www.w3.org/2000/svg" width="46" height="78" viewBox="0 0 46 78">
  <title>atom 2739 h:1</title>
  <metadata>{&quot;entityType&quot;:&quot;atom&quot;,&quot;entityId&quot;:&quot;2739&quot;,&quot;token&quot;:&quot;h:1&quot;,&quot;signature&quot;:&quot;h:1&quot;,&quot;imageName&quot;:&quot;page-094.jpg&quot;,&quot;imageId&quot;:94,&quot;bounds&quot;:{&quot;x&quot;:2194,&quot;y&quot;:665,&quot;w&quot;:46,&quot;h&quot;:78},&quot;atoms&quot;:[{&quot;id&quot;:2739,&quot;token&quot;:&quot;h:1&quot;,&quot;particle_id&quot;:&quot;img94-m11-p3&quot;,&quot;molecule_id&quot;:&quot;img94-m11&quot;,&quot;atom_order&quot;:3}]}</metadata>
  <rect x="0" y="0" width="46" height="78" fill="#f8f0d8"/>

  <rect x="0.5" y="0.5" width="45" height="77" fill="none" stroke="#111827" stroke-width="1" opacity="0.35"/>
  <polyline points="16,16 17,16 17,17 18,17 19,17 19,18 20,18 20,19 21,19 22,20 23,21 24,21 24,22 25,22 25,23 26,24 26,25 27,25 27,26 27,27 28,27 28,28 28,29 28,30 29,30 29,31 29,32 29,33 30,33 30,34 30,35 30,36 30,37 30,38 30,39 30,40 30,41 30,42 30,43 30,44 30,45 30,46 30,47 30,48 30,49 30,50 30,51 29,51 29,52 29,53 29,54 28,55 28,56 28,57 27,57 27,58 27,59 27,60 26,60 26,61 26,62 25,62" fill="none" stroke="#ff8c00" stroke-width="3" stroke-linecap="round" stroke-linejoin="round" opacity="0.95">
    <title>2739 h:1</title>
  </polyline>
</svg>
