<?xml version="1.0" encoding="UTF-8"?>
<svg xmlns="http://www.w3.org/2000/svg" width="48" height="89" viewBox="0 0 48 89">
  <title>atom 2779 h:1</title>
  <metadata>{&quot;entityType&quot;:&quot;atom&quot;,&quot;entityId&quot;:&quot;2779&quot;,&quot;token&quot;:&quot;h:1&quot;,&quot;signature&quot;:&quot;h:1&quot;,&quot;imageName&quot;:&quot;page-094.jpg&quot;,&quot;imageId&quot;:94,&quot;bounds&quot;:{&quot;x&quot;:1983,&quot;y&quot;:733,&quot;w&quot;:48,&quot;h&quot;:89},&quot;atoms&quot;:[{&quot;id&quot;:2779,&quot;token&quot;:&quot;h:1&quot;,&quot;particle_id&quot;:&quot;img94-m17-p4&quot;,&quot;molecule_id&quot;:&quot;img94-m17&quot;,&quot;atom_order&quot;:2}]}</metadata>
  <rect x="0" y="0" width="48" height="89" fill="#f8f0d8"/>

  <rect x="0.5" y="0.5" width="47" height="88" fill="none" stroke="#111827" stroke-width="1" opacity="0.35"/>
  <polyline points="29,16 29,17 30,17 30,18 31,18 31,19 31,20 31,21 31,22 32,22 32,23 32,24 32,25 32,26 32,27 32,28 32,29 32,30 32,31 32,32 32,33 32,34 32,35 32,36 32,37 32,38 32,39 32,40 32,41 32,42 32,43 31,44 31,45 31,46 31,47 30,47 30,48 30,49 29,50 28,51 28,52 27,52 27,53 27,54 26,54 26,55 26,56 25,56 25,57 25,58 24,58 24,59 23,60 23,61 22,62 22,63 21,63 21,64 21,65 20,65 20,66 19,66 19,67 19,68 19,69 18,69 18,70 17,70 17,71 17,72 17,73 16,73" fill="none" stroke="#ff8c00" stroke-width="3" stroke-linecap="round" stroke-linejoin="round" opacity="0.95">
    <title>2779 h:1</title>
  </polyline>
</svg>
