<?xml version="1.0" encoding="UTF-8"?>
<svg xmlns="http://www.w3.org/2000/svg" width="42" height="72" viewBox="0 0 42 72">
  <title>atom 2909 h:1</title>
  <metadata>{&quot;entityType&quot;:&quot;atom&quot;,&quot;entityId&quot;:&quot;2909&quot;,&quot;token&quot;:&quot;h:1&quot;,&quot;signature&quot;:&quot;h:1&quot;,&quot;imageName&quot;:&quot;page-094.jpg&quot;,&quot;imageId&quot;:94,&quot;bounds&quot;:{&quot;x&quot;:1724,&quot;y&quot;:794,&quot;w&quot;:42,&quot;h&quot;:72},&quot;atoms&quot;:[{&quot;id&quot;:2909,&quot;token&quot;:&quot;h:1&quot;,&quot;particle_id&quot;:&quot;img94-m21-p5&quot;,&quot;molecule_id&quot;:&quot;img94-m21&quot;,&quot;atom_order&quot;:2}]}</metadata>
  <rect x="0" y="0" width="42" height="72" fill="#f8f0d8"/>
  
  <rect x="0.5" y="0.5" width="41" height="71" fill="none" stroke="#111827" stroke-width="1" opacity="0.35"/>
  <polyline points="16,16 17,16 17,17 18,17 19,18 20,18 20,19 21,19 21,20 22,20 22,21 23,21 23,22 24,23 24,24 25,24 25,25 25,26 26,26 26,27 26,28 26,29 26,30 26,31 26,32 26,33 26,34 26,35 26,36 26,37 26,38 26,39 26,40 25,41 25,42 25,43 24,44 24,45 24,46 23,46 23,47 23,48 22,49 21,49 21,50 20,51 20,52 19,52 19,53 18,53 18,54 17,54 17,55 16,55 16,56" fill="none" stroke="#ff8c00" stroke-width="3" stroke-linecap="round" stroke-linejoin="round" opacity="0.95">
    <title>2909 h:1</title>
  </polyline>
</svg>
