<?xml version="1.0" encoding="UTF-8"?>
<svg xmlns="http://www.w3.org/2000/svg" width="42" height="70" viewBox="0 0 42 70">
  <title>atom 3227 h:1</title>
  <metadata>{&quot;entityType&quot;:&quot;atom&quot;,&quot;entityId&quot;:&quot;3227&quot;,&quot;token&quot;:&quot;h:1&quot;,&quot;signature&quot;:&quot;h:1&quot;,&quot;imageName&quot;:&quot;page-003.jpg&quot;,&quot;imageId&quot;:3,&quot;bounds&quot;:{&quot;x&quot;:1511,&quot;y&quot;:1851,&quot;w&quot;:42,&quot;h&quot;:70},&quot;atoms&quot;:[{&quot;id&quot;:3227,&quot;token&quot;:&quot;h:1&quot;,&quot;particle_id&quot;:&quot;img3-m107-p4&quot;,&quot;molecule_id&quot;:&quot;img3-m107&quot;,&quot;atom_order&quot;:2}]}</metadata>
  <rect x="0" y="0" width="42" height="70" fill="#f8f0d8"/>

  <rect x="0.5" y="0.5" width="41" height="69" fill="none" stroke="#111827" stroke-width="1" opacity="0.35"/>
  <polyline points="18,16 18,17 19,17 20,18 21,18 21,19 22,19 22,20 22,21 23,21 23,22 23,23 24,23 24,24 24,25 25,25 25,26 25,27 25,28 25,29 26,29 26,30 26,31 26,32 26,33 26,34 26,35 26,36 26,37 25,37 25,38 25,39 25,40 24,41 24,42 24,43 23,43 23,44 22,45 22,46 21,46 21,47 21,48 20,48 20,49 19,49 19,50 19,51 18,51 18,52 17,52 17,53 17,54 16,54" fill="none" stroke="#ff8c00" stroke-width="3" stroke-linecap="round" stroke-linejoin="round" opacity="0.95">
    <title>3227 h:1</title>
  </polyline>
</svg>
