<?xml version="1.0" encoding="UTF-8"?>
<svg xmlns="http://www.w3.org/2000/svg" width="44" height="73" viewBox="0 0 44 73">
  <title>atom 5269 h:1</title>
  <metadata>{&quot;entityType&quot;:&quot;atom&quot;,&quot;entityId&quot;:&quot;5269&quot;,&quot;token&quot;:&quot;h:1&quot;,&quot;signature&quot;:&quot;h:1&quot;,&quot;imageName&quot;:&quot;page-004.jpg&quot;,&quot;imageId&quot;:4,&quot;bounds&quot;:{&quot;x&quot;:1141,&quot;y&quot;:2062,&quot;w&quot;:44,&quot;h&quot;:73},&quot;atoms&quot;:[{&quot;id&quot;:5269,&quot;token&quot;:&quot;h:1&quot;,&quot;particle_id&quot;:&quot;img4-m17-p3&quot;,&quot;molecule_id&quot;:&quot;img4-m17&quot;,&quot;atom_order&quot;:2}]}</metadata>
  <rect x="0" y="0" width="44" height="73" fill="#f8f0d8"/>

  <rect x="0.5" y="0.5" width="43" height="72" fill="none" stroke="#111827" stroke-width="1" opacity="0.35"/>
  <polyline points="16,16 17,16 17,17 18,17 18,18 19,18 19,19 20,19 20,20 20,21 21,21 21,22 22,22 22,23 23,23 23,24 24,25 24,26 25,26 25,27 25,28 25,29 26,29 26,30 26,31 26,32 26,33 27,34 27,35 27,36 27,37 27,38 28,38 28,39 28,40 28,41 28,42 28,43 28,44 28,45 27,46 27,47 27,48 27,49 27,50 26,50 26,51 26,52 26,53 26,54 25,55 25,56 25,57" fill="none" stroke="#ff8c00" stroke-width="3" stroke-linecap="round" stroke-linejoin="round" opacity="0.95">
    <title>5269 h:1</title>
  </polyline>
</svg>
