<?xml version="1.0" encoding="UTF-8"?>
<svg xmlns="http://www.w3.org/2000/svg" width="45" height="69" viewBox="0 0 45 69">
  <title>atom 7043 h:1</title>
  <metadata>{&quot;entityType&quot;:&quot;atom&quot;,&quot;entityId&quot;:&quot;7043&quot;,&quot;token&quot;:&quot;h:1&quot;,&quot;signature&quot;:&quot;h:1&quot;,&quot;imageName&quot;:&quot;page-006.jpg&quot;,&quot;imageId&quot;:6,&quot;bounds&quot;:{&quot;x&quot;:2365,&quot;y&quot;:744,&quot;w&quot;:45,&quot;h&quot;:69},&quot;atoms&quot;:[{&quot;id&quot;:7043,&quot;token&quot;:&quot;h:1&quot;,&quot;particle_id&quot;:&quot;img6-m2-p2&quot;,&quot;molecule_id&quot;:&quot;img6-m2&quot;,&quot;atom_order&quot;:2}]}</metadata>
  <rect x="0" y="0" width="45" height="69" fill="#f8f0d8"/>

  <rect x="0.5" y="0.5" width="44" height="68" fill="none" stroke="#111827" stroke-width="1" opacity="0.35"/>
  <polyline points="16,16 16,17 17,17 18,17 19,17 19,18 20,18 20,19 21,19 22,20 23,21 24,22 25,23 25,24 26,24 26,25 27,25 27,26 27,27 28,27 28,28 28,29 29,29 29,30 29,31 29,32 29,33 29,34 29,35 29,36 29,37 29,38 29,39 29,40 29,41 28,41 28,42 28,43 28,44 28,45 28,46 27,46 27,47 27,48 27,49 26,50 26,51 26,52 25,52 25,53" fill="none" stroke="#ff8c00" stroke-width="3" stroke-linecap="round" stroke-linejoin="round" opacity="0.95">
    <title>7043 h:1</title>
  </polyline>
</svg>
