<?xml version="1.0" encoding="UTF-8"?>
<svg xmlns="http://www.w3.org/2000/svg" width="46" height="71" viewBox="0 0 46 71">
  <title>atom 7044 h:1</title>
  <metadata>{&quot;entityType&quot;:&quot;atom&quot;,&quot;entityId&quot;:&quot;7044&quot;,&quot;token&quot;:&quot;h:1&quot;,&quot;signature&quot;:&quot;h:1&quot;,&quot;imageName&quot;:&quot;page-006.jpg&quot;,&quot;imageId&quot;:6,&quot;bounds&quot;:{&quot;x&quot;:1877,&quot;y&quot;:787,&quot;w&quot;:46,&quot;h&quot;:71},&quot;atoms&quot;:[{&quot;id&quot;:7044,&quot;token&quot;:&quot;h:1&quot;,&quot;particle_id&quot;:&quot;img6-m11-p3&quot;,&quot;molecule_id&quot;:&quot;img6-m11&quot;,&quot;atom_order&quot;:2}]}</metadata>
  <rect x="0" y="0" width="46" height="71" fill="#f8f0d8"/>

  <rect x="0.5" y="0.5" width="45" height="70" fill="none" stroke="#111827" stroke-width="1" opacity="0.35"/>
  <polyline points="17,16 18,16 18,17 19,17 20,17 21,17 21,18 22,18 23,19 24,19 25,20 26,21 27,21 28,22 28,23 28,24 29,24 29,25 29,26 29,27 29,28 29,29 29,30 30,31 30,32 30,33 30,34 29,35 29,36 29,37 29,38 28,39 28,40 27,41 27,42 26,44 26,45 25,46 25,47 24,48 24,49 23,49 23,50 22,50 22,51 20,52 20,53 19,53 18,54 17,55 16,55" fill="none" stroke="#ff8c00" stroke-width="3" stroke-linecap="round" stroke-linejoin="round" opacity="0.95">
    <title>7044 h:1</title>
  </polyline>
</svg>
