<?xml version="1.0" encoding="UTF-8"?>
<svg xmlns="http://www.w3.org/2000/svg" width="67" height="33" viewBox="0 0 67 33">
  <title>atom 6395 g:1</title>
  <metadata>{&quot;entityType&quot;:&quot;atom&quot;,&quot;entityId&quot;:&quot;6395&quot;,&quot;token&quot;:&quot;g:1&quot;,&quot;signature&quot;:&quot;g:1&quot;,&quot;imageName&quot;:&quot;page-005.jpg&quot;,&quot;imageId&quot;:5,&quot;bounds&quot;:{&quot;x&quot;:1114,&quot;y&quot;:503,&quot;w&quot;:67,&quot;h&quot;:33},&quot;atoms&quot;:[{&quot;id&quot;:6395,&quot;token&quot;:&quot;g:1&quot;,&quot;particle_id&quot;:&quot;img5-m6-p3&quot;,&quot;molecule_id&quot;:&quot;img5-m6&quot;,&quot;atom_order&quot;:2}]}</metadata>
  <rect x="0" y="0" width="67" height="33" fill="#f8f0d8"/>
  <image href="file:///C:/Users/HHHES/AppData/Roaming/com.voynichlab.datasetcreator/images/1/a6cd3b6e-2a78-4b30-a4be-5d186aea258e.jpg" x="-1114" y="-503" width="2691" height="3770" opacity="0.92"/>
  <rect x="0.5" y="0.5" width="66" height="32" fill="none" stroke="#111827" stroke-width="1" opacity="0.35"/>
  <polyline points="16,17 17,17 18,17 19,17 20,17 22,16 23,16 25,16 26,16 27,16 28,16 29,16 32,16 33,16 35,16 36,16 37,16 39,16 40,16 41,16 42,16 43,16 44,16 45,16 46,16 47,16 48,16 49,16 50,16 51,16" fill="none" stroke="#7c3cff" stroke-width="3" stroke-linecap="round" stroke-linejoin="round" opacity="0.95">
    <title>6395 g:1</title>
  </polyline>
</svg>
