<?xml version="1.0" encoding="UTF-8"?>
<svg xmlns="http://www.w3.org/2000/svg" width="70" height="34" viewBox="0 0 70 34">
  <title>atom 6396 g:1</title>
  <metadata>{&quot;entityType&quot;:&quot;atom&quot;,&quot;entityId&quot;:&quot;6396&quot;,&quot;token&quot;:&quot;g:1&quot;,&quot;signature&quot;:&quot;g:1&quot;,&quot;imageName&quot;:&quot;page-005.jpg&quot;,&quot;imageId&quot;:5,&quot;bounds&quot;:{&quot;x&quot;:1426,&quot;y&quot;:522,&quot;w&quot;:70,&quot;h&quot;:34},&quot;atoms&quot;:[{&quot;id&quot;:6396,&quot;token&quot;:&quot;g:1&quot;,&quot;particle_id&quot;:&quot;img5-m8-p1&quot;,&quot;molecule_id&quot;:&quot;img5-m8&quot;,&quot;atom_order&quot;:2}]}</metadata>
  <rect x="0" y="0" width="70" height="34" fill="#f8f0d8"/>
  <image href="file:///C:/Users/HHHES/AppData/Roaming/com.voynichlab.datasetcreator/images/1/a6cd3b6e-2a78-4b30-a4be-5d186aea258e.jpg" x="-1426" y="-522" width="2691" height="3770" opacity="0.92"/>
  <rect x="0.5" y="0.5" width="69" height="33" fill="none" stroke="#111827" stroke-width="1" opacity="0.35"/>
  <polyline points="16,16 17,16 18,16 19,16 20,16 21,16 22,16 23,16 24,16 25,16 26,16 27,16 28,16 30,16 32,17 33,17 35,17 37,17 38,17 39,17 41,17 42,17 43,17 44,17 45,17 46,17 47,17 48,18 49,18 50,18 51,18 52,18 53,18 54,18" fill="none" stroke="#7c3cff" stroke-width="3" stroke-linecap="round" stroke-linejoin="round" opacity="0.95">
    <title>6396 g:1</title>
  </polyline>
</svg>
