<?xml version="1.0" encoding="UTF-8"?>
<svg xmlns="http://www.w3.org/2000/svg" width="96" height="33" viewBox="0 0 96 33">
  <title>atom 6399 g:1</title>
  <metadata>{&quot;entityType&quot;:&quot;atom&quot;,&quot;entityId&quot;:&quot;6399&quot;,&quot;token&quot;:&quot;g:1&quot;,&quot;signature&quot;:&quot;g:1&quot;,&quot;imageName&quot;:&quot;page-005.jpg&quot;,&quot;imageId&quot;:5,&quot;bounds&quot;:{&quot;x&quot;:1625,&quot;y&quot;:520,&quot;w&quot;:96,&quot;h&quot;:33},&quot;atoms&quot;:[{&quot;id&quot;:6399,&quot;token&quot;:&quot;g:1&quot;,&quot;particle_id&quot;:&quot;img5-m2-p1&quot;,&quot;molecule_id&quot;:&quot;img5-m2&quot;,&quot;atom_order&quot;:6}]}</metadata>
  <rect x="0" y="0" width="96" height="33" fill="#f8f0d8"/>
  <image href="file:///C:/Users/HHHES/AppData/Roaming/com.voynichlab.datasetcreator/images/1/a6cd3b6e-2a78-4b30-a4be-5d186aea258e.jpg" x="-1625" y="-520" width="2691" height="3770" opacity="0.92"/>
  <rect x="0.5" y="0.5" width="95" height="32" fill="none" stroke="#111827" stroke-width="1" opacity="0.35"/>
  <polyline points="16,16 16,17 17,17 18,17 19,17 20,17 21,17 22,17 23,17 24,17 25,17 26,17 27,17 28,17 29,17 30,17 31,17 32,17 33,17 34,17 35,17 36,17 38,17 39,17 40,17 41,17 42,17 43,17 44,17 45,17 46,17 47,17 48,17 49,17 50,17 51,17 52,17 53,17 54,17 55,17 56,17 57,17 58,17 59,17 60,17 61,17 62,17 63,17 64,17 65,17 66,17 67,16 68,16 69,16 70,16 71,16 73,16 74,16 75,16 76,16 77,16 78,16 79,16 80,16" fill="none" stroke="#7c3cff" stroke-width="3" stroke-linecap="round" stroke-linejoin="round" opacity="0.95">
    <title>6399 g:1</title>
  </polyline>
</svg>
