<?xml version="1.0" encoding="UTF-8"?>
<svg xmlns="http://www.w3.org/2000/svg" width="94" height="34" viewBox="0 0 94 34">
  <title>atom 6400 g:1</title>
  <metadata>{&quot;entityType&quot;:&quot;atom&quot;,&quot;entityId&quot;:&quot;6400&quot;,&quot;token&quot;:&quot;g:1&quot;,&quot;signature&quot;:&quot;g:1&quot;,&quot;imageName&quot;:&quot;page-005.jpg&quot;,&quot;imageId&quot;:5,&quot;bounds&quot;:{&quot;x&quot;:1670,&quot;y&quot;:602,&quot;w&quot;:94,&quot;h&quot;:34},&quot;atoms&quot;:[{&quot;id&quot;:6400,&quot;token&quot;:&quot;g:1&quot;,&quot;particle_id&quot;:&quot;img5-m9-p1&quot;,&quot;molecule_id&quot;:&quot;img5-m9&quot;,&quot;atom_order&quot;:7}]}</metadata>
  <rect x="0" y="0" width="94" height="34" fill="#f8f0d8"/>
  <image href="file:///C:/Users/HHHES/AppData/Roaming/com.voynichlab.datasetcreator/images/1/a6cd3b6e-2a78-4b30-a4be-5d186aea258e.jpg" x="-1670" y="-602" width="2691" height="3770" opacity="0.92"/>
  <rect x="0.5" y="0.5" width="93" height="33" fill="none" stroke="#111827" stroke-width="1" opacity="0.35"/>
  <polyline points="16,18 17,18 18,18 19,18 20,18 21,18 22,18 23,18 24,18 25,18 26,18 27,18 28,18 29,17 30,17 31,17 33,17 34,17 35,17 36,17 37,17 38,17 39,17 40,17 41,17 42,17 43,17 44,17 45,17 46,17 47,17 48,17 49,17 50,17 52,17 53,17 54,17 55,17 56,17 57,17 58,16 59,16 60,16 61,16 62,16 63,16 64,16 65,16 67,16 68,16 69,16 70,16 71,16 72,16 73,16 74,16 76,16 77,16 78,16" fill="none" stroke="#7c3cff" stroke-width="3" stroke-linecap="round" stroke-linejoin="round" opacity="0.95">
    <title>6400 g:1</title>
  </polyline>
</svg>
