<?xml version="1.0" encoding="UTF-8"?>
<svg xmlns="http://www.w3.org/2000/svg" width="73" height="35" viewBox="0 0 73 35">
  <title>atom 6402 g:1</title>
  <metadata>{&quot;entityType&quot;:&quot;atom&quot;,&quot;entityId&quot;:&quot;6402&quot;,&quot;token&quot;:&quot;g:1&quot;,&quot;signature&quot;:&quot;g:1&quot;,&quot;imageName&quot;:&quot;page-005.jpg&quot;,&quot;imageId&quot;:5,&quot;bounds&quot;:{&quot;x&quot;:1362,&quot;y&quot;:602,&quot;w&quot;:73,&quot;h&quot;:35},&quot;atoms&quot;:[{&quot;id&quot;:6402,&quot;token&quot;:&quot;g:1&quot;,&quot;particle_id&quot;:&quot;img5-m13-p2&quot;,&quot;molecule_id&quot;:&quot;img5-m13&quot;,&quot;atom_order&quot;:2}]}</metadata>
  <rect x="0" y="0" width="73" height="35" fill="#f8f0d8"/>
  <image href="file:///C:/Users/HHHES/AppData/Roaming/com.voynichlab.datasetcreator/images/1/a6cd3b6e-2a78-4b30-a4be-5d186aea258e.jpg" x="-1362" y="-602" width="2691" height="3770" opacity="0.92"/>
  <rect x="0.5" y="0.5" width="72" height="34" fill="none" stroke="#111827" stroke-width="1" opacity="0.35"/>
  <polyline points="16,16 17,16 18,17 19,17 20,17 21,17 22,17 23,17 25,18 27,18 28,18 29,18 30,18 31,18 33,18 34,18 35,18 36,19 37,19 38,19 39,19 40,19 41,19 43,19 44,19 45,19 46,19 47,19 48,19 49,19 50,19 51,19 52,19 53,19 53,18 54,18 55,18 56,18 57,18" fill="none" stroke="#7c3cff" stroke-width="3" stroke-linecap="round" stroke-linejoin="round" opacity="0.95">
    <title>6402 g:1</title>
  </polyline>
</svg>
