<?xml version="1.0" encoding="UTF-8"?>
<svg xmlns="http://www.w3.org/2000/svg" width="61" height="34" viewBox="0 0 61 34">
  <title>atom 6404 g:1</title>
  <metadata>{&quot;entityType&quot;:&quot;atom&quot;,&quot;entityId&quot;:&quot;6404&quot;,&quot;token&quot;:&quot;g:1&quot;,&quot;signature&quot;:&quot;g:1&quot;,&quot;imageName&quot;:&quot;page-005.jpg&quot;,&quot;imageId&quot;:5,&quot;bounds&quot;:{&quot;x&quot;:520,&quot;y&quot;:594,&quot;w&quot;:61,&quot;h&quot;:34},&quot;atoms&quot;:[{&quot;id&quot;:6404,&quot;token&quot;:&quot;g:1&quot;,&quot;particle_id&quot;:&quot;img5-m12-p4&quot;,&quot;molecule_id&quot;:&quot;img5-m12&quot;,&quot;atom_order&quot;:2}]}</metadata>
  <rect x="0" y="0" width="61" height="34" fill="#f8f0d8"/>
  <image href="file:///C:/Users/HHHES/AppData/Roaming/com.voynichlab.datasetcreator/images/1/a6cd3b6e-2a78-4b30-a4be-5d186aea258e.jpg" x="-520" y="-594" width="2691" height="3770" opacity="0.92"/>
  <rect x="0.5" y="0.5" width="60" height="33" fill="none" stroke="#111827" stroke-width="1" opacity="0.35"/>
  <polyline points="16,18 17,18 18,18 19,18 20,18 22,18 23,18 24,18 25,17 26,17 27,17 28,17 29,17 31,17 32,17 33,17 35,17 36,17 37,17 38,16 40,16 42,16 43,16 44,16 45,16" fill="none" stroke="#7c3cff" stroke-width="3" stroke-linecap="round" stroke-linejoin="round" opacity="0.95">
    <title>6404 g:1</title>
  </polyline>
</svg>
