<?xml version="1.0" encoding="UTF-8"?>
<svg xmlns="http://www.w3.org/2000/svg" width="90" height="36" viewBox="0 0 90 36">
  <title>atom 6410 g:1</title>
  <metadata>{&quot;entityType&quot;:&quot;atom&quot;,&quot;entityId&quot;:&quot;6410&quot;,&quot;token&quot;:&quot;g:1&quot;,&quot;signature&quot;:&quot;g:1&quot;,&quot;imageName&quot;:&quot;page-005.jpg&quot;,&quot;imageId&quot;:5,&quot;bounds&quot;:{&quot;x&quot;:1351,&quot;y&quot;:751,&quot;w&quot;:90,&quot;h&quot;:36},&quot;atoms&quot;:[{&quot;id&quot;:6410,&quot;token&quot;:&quot;g:1&quot;,&quot;particle_id&quot;:&quot;img5-m21-p1&quot;,&quot;molecule_id&quot;:&quot;img5-m21&quot;,&quot;atom_order&quot;:8}]}</metadata>
  <rect x="0" y="0" width="90" height="36" fill="#f8f0d8"/>
  <image href="file:///C:/Users/HHHES/AppData/Roaming/com.voynichlab.datasetcreator/images/1/a6cd3b6e-2a78-4b30-a4be-5d186aea258e.jpg" x="-1351" y="-751" width="2691" height="3770" opacity="0.92"/>
  <rect x="0.5" y="0.5" width="89" height="35" fill="none" stroke="#111827" stroke-width="1" opacity="0.35"/>
  <polyline points="16,16 17,16 18,16 19,16 20,16 21,16 22,16 23,16 24,16 25,16 26,16 28,16 29,16 30,17 31,17 32,17 33,17 35,17 36,17 37,17 38,18 39,18 40,18 41,18 42,18 43,18 44,18 45,19 46,19 48,19 49,19 50,19 51,19 52,19 53,19 54,19 55,19 56,19 57,19 58,19 60,19 61,20 62,20 63,20 65,20 66,20 67,20 68,20 69,20 71,20 72,20 73,20 74,20" fill="none" stroke="#7c3cff" stroke-width="3" stroke-linecap="round" stroke-linejoin="round" opacity="0.95">
    <title>6410 g:1</title>
  </polyline>
</svg>
