<?xml version="1.0" encoding="UTF-8"?>
<svg xmlns="http://www.w3.org/2000/svg" width="69" height="33" viewBox="0 0 69 33">
  <title>atom 6412 g:1</title>
  <metadata>{&quot;entityType&quot;:&quot;atom&quot;,&quot;entityId&quot;:&quot;6412&quot;,&quot;token&quot;:&quot;g:1&quot;,&quot;signature&quot;:&quot;g:1&quot;,&quot;imageName&quot;:&quot;page-005.jpg&quot;,&quot;imageId&quot;:5,&quot;bounds&quot;:{&quot;x&quot;:428,&quot;y&quot;:758,&quot;w&quot;:69,&quot;h&quot;:33},&quot;atoms&quot;:[{&quot;id&quot;:6412,&quot;token&quot;:&quot;g:1&quot;,&quot;particle_id&quot;:&quot;img5-m25-p2&quot;,&quot;molecule_id&quot;:&quot;img5-m25&quot;,&quot;atom_order&quot;:2}]}</metadata>
  <rect x="0" y="0" width="69" height="33" fill="#f8f0d8"/>
  <image href="file:///C:/Users/HHHES/AppData/Roaming/com.voynichlab.datasetcreator/images/1/a6cd3b6e-2a78-4b30-a4be-5d186aea258e.jpg" x="-428" y="-758" width="2691" height="3770" opacity="0.92"/>
  <rect x="0.5" y="0.5" width="68" height="32" fill="none" stroke="#111827" stroke-width="1" opacity="0.35"/>
  <polyline points="16,17 17,17 18,17 19,17 20,17 21,17 22,17 23,17 24,17 25,17 26,17 27,17 28,17 29,17 30,17 32,17 33,17 34,17 36,17 37,17 38,17 39,17 40,17 41,17 42,16 43,16 44,16 46,16 47,16 48,16 49,16 50,16 51,16 52,16 53,16" fill="none" stroke="#7c3cff" stroke-width="3" stroke-linecap="round" stroke-linejoin="round" opacity="0.95">
    <title>6412 g:1</title>
  </polyline>
</svg>
