<?xml version="1.0" encoding="UTF-8"?>
<svg xmlns="http://www.w3.org/2000/svg" width="80" height="36" viewBox="0 0 80 36">
  <title>atom 6413 g:1</title>
  <metadata>{&quot;entityType&quot;:&quot;atom&quot;,&quot;entityId&quot;:&quot;6413&quot;,&quot;token&quot;:&quot;g:1&quot;,&quot;signature&quot;:&quot;g:1&quot;,&quot;imageName&quot;:&quot;page-005.jpg&quot;,&quot;imageId&quot;:5,&quot;bounds&quot;:{&quot;x&quot;:542,&quot;y&quot;:820,&quot;w&quot;:80,&quot;h&quot;:36},&quot;atoms&quot;:[{&quot;id&quot;:6413,&quot;token&quot;:&quot;g:1&quot;,&quot;particle_id&quot;:&quot;img5-m31-p4&quot;,&quot;molecule_id&quot;:&quot;img5-m31&quot;,&quot;atom_order&quot;:2}]}</metadata>
  <rect x="0" y="0" width="80" height="36" fill="#f8f0d8"/>
  <image href="file:///C:/Users/HHHES/AppData/Roaming/com.voynichlab.datasetcreator/images/1/a6cd3b6e-2a78-4b30-a4be-5d186aea258e.jpg" x="-542" y="-820" width="2691" height="3770" opacity="0.92"/>
  <rect x="0.5" y="0.5" width="79" height="35" fill="none" stroke="#111827" stroke-width="1" opacity="0.35"/>
  <polyline points="16,20 17,20 18,20 19,20 20,20 21,20 22,20 23,20 25,20 26,20 27,19 29,19 30,19 31,19 32,19 33,19 35,19 37,19 39,19 40,18 42,18 43,18 44,18 45,18 46,18 48,18 49,18 50,18 51,17 52,17 53,17 54,17 55,17 56,17 57,17 58,16 59,16 60,16 61,16 62,16 63,16 64,16" fill="none" stroke="#7c3cff" stroke-width="3" stroke-linecap="round" stroke-linejoin="round" opacity="0.95">
    <title>6413 g:1</title>
  </polyline>
</svg>
