<?xml version="1.0" encoding="UTF-8"?>
<svg xmlns="http://www.w3.org/2000/svg" width="113" height="40" viewBox="0 0 113 40">
  <title>atom 6422 g:1</title>
  <metadata>{&quot;entityType&quot;:&quot;atom&quot;,&quot;entityId&quot;:&quot;6422&quot;,&quot;token&quot;:&quot;g:1&quot;,&quot;signature&quot;:&quot;g:1&quot;,&quot;imageName&quot;:&quot;page-005.jpg&quot;,&quot;imageId&quot;:5,&quot;bounds&quot;:{&quot;x&quot;:578,&quot;y&quot;:971,&quot;w&quot;:113,&quot;h&quot;:40},&quot;atoms&quot;:[{&quot;id&quot;:6422,&quot;token&quot;:&quot;g:1&quot;,&quot;particle_id&quot;:&quot;img5-m43-p1&quot;,&quot;molecule_id&quot;:&quot;img5-m43&quot;,&quot;atom_order&quot;:6}]}</metadata>
  <rect x="0" y="0" width="113" height="40" fill="#f8f0d8"/>
  <image href="file:///C:/Users/HHHES/AppData/Roaming/com.voynichlab.datasetcreator/images/1/a6cd3b6e-2a78-4b30-a4be-5d186aea258e.jpg" x="-578" y="-971" width="2691" height="3770" opacity="0.92"/>
  <rect x="0.5" y="0.5" width="112" height="39" fill="none" stroke="#111827" stroke-width="1" opacity="0.35"/>
  <polyline points="16,24 17,24 18,24 18,23 19,23 20,23 21,22 22,22 23,22 24,22 25,22 26,22 27,21 28,21 29,21 30,21 31,21 32,21 33,21 34,21 36,21 37,21 39,21 40,21 41,20 42,20 43,20 44,20 46,20 47,19 48,19 49,19 50,19 51,19 52,19 53,19 54,19 55,18 57,18 59,18 61,18 63,18 64,18 65,18 67,18 68,18 69,18 70,18 71,17 73,17 75,17 76,17 77,17 78,17 79,17 80,17 81,16 82,16 84,16 85,16 86,16 87,16 89,16 90,16 91,16 92,16 93,16 94,16 95,16 96,16 97,16" fill="none" stroke="#7c3cff" stroke-width="3" stroke-linecap="round" stroke-linejoin="round" opacity="0.95">
    <title>6422 g:1</title>
  </polyline>
</svg>
