<?xml version="1.0" encoding="UTF-8"?>
<svg xmlns="http://www.w3.org/2000/svg" width="72" height="33" viewBox="0 0 72 33">
  <title>atom 6431 g:1</title>
  <metadata>{&quot;entityType&quot;:&quot;atom&quot;,&quot;entityId&quot;:&quot;6431&quot;,&quot;token&quot;:&quot;g:1&quot;,&quot;signature&quot;:&quot;g:1&quot;,&quot;imageName&quot;:&quot;page-005.jpg&quot;,&quot;imageId&quot;:5,&quot;bounds&quot;:{&quot;x&quot;:1139,&quot;y&quot;:2491,&quot;w&quot;:72,&quot;h&quot;:33},&quot;atoms&quot;:[{&quot;id&quot;:6431,&quot;token&quot;:&quot;g:1&quot;,&quot;particle_id&quot;:&quot;img5-m52-p3&quot;,&quot;molecule_id&quot;:&quot;img5-m52&quot;,&quot;atom_order&quot;:2}]}</metadata>
  <rect x="0" y="0" width="72" height="33" fill="#f8f0d8"/>
  <image href="file:///C:/Users/HHHES/AppData/Roaming/com.voynichlab.datasetcreator/images/1/a6cd3b6e-2a78-4b30-a4be-5d186aea258e.jpg" x="-1139" y="-2491" width="2691" height="3770" opacity="0.92"/>
  <rect x="0.5" y="0.5" width="71" height="32" fill="none" stroke="#111827" stroke-width="1" opacity="0.35"/>
  <polyline points="16,16 17,16 18,16 19,16 20,16 21,16 22,16 23,16 24,16 25,16 26,16 27,16 28,16 30,16 31,16 32,17 33,17 34,17 35,17 37,17 38,17 39,17 40,17 41,17 44,17 46,17 48,17 49,17 50,17 51,17 52,17 53,17 54,17 55,17 56,17" fill="none" stroke="#7c3cff" stroke-width="3" stroke-linecap="round" stroke-linejoin="round" opacity="0.95">
    <title>6431 g:1</title>
  </polyline>
</svg>
