<?xml version="1.0" encoding="UTF-8"?>
<svg xmlns="http://www.w3.org/2000/svg" width="68" height="35" viewBox="0 0 68 35">
  <title>atom 6433 g:1</title>
  <metadata>{&quot;entityType&quot;:&quot;atom&quot;,&quot;entityId&quot;:&quot;6433&quot;,&quot;token&quot;:&quot;g:1&quot;,&quot;signature&quot;:&quot;g:1&quot;,&quot;imageName&quot;:&quot;page-005.jpg&quot;,&quot;imageId&quot;:5,&quot;bounds&quot;:{&quot;x&quot;:1932,&quot;y&quot;:2456,&quot;w&quot;:68,&quot;h&quot;:35},&quot;atoms&quot;:[{&quot;id&quot;:6433,&quot;token&quot;:&quot;g:1&quot;,&quot;particle_id&quot;:&quot;img5-m51-p4&quot;,&quot;molecule_id&quot;:&quot;img5-m51&quot;,&quot;atom_order&quot;:2}]}</metadata>
  <rect x="0" y="0" width="68" height="35" fill="#f8f0d8"/>
  <image href="file:///C:/Users/HHHES/AppData/Roaming/com.voynichlab.datasetcreator/images/1/a6cd3b6e-2a78-4b30-a4be-5d186aea258e.jpg" x="-1932" y="-2456" width="2691" height="3770" opacity="0.92"/>
  <rect x="0.5" y="0.5" width="67" height="34" fill="none" stroke="#111827" stroke-width="1" opacity="0.35"/>
  <polyline points="16,19 17,19 18,19 19,19 20,19 21,19 22,19 23,19 24,19 25,18 26,18 27,18 28,18 29,18 31,18 32,18 33,18 34,18 35,18 36,17 37,17 38,17 39,17 41,17 42,17 43,17 44,17 45,17 46,17 47,17 48,16 49,16 50,16 51,16 52,16" fill="none" stroke="#7c3cff" stroke-width="3" stroke-linecap="round" stroke-linejoin="round" opacity="0.95">
    <title>6433 g:1</title>
  </polyline>
</svg>
