<?xml version="1.0" encoding="UTF-8"?>
<svg xmlns="http://www.w3.org/2000/svg" width="78" height="35" viewBox="0 0 78 35">
  <title>atom 6436 g:1</title>
  <metadata>{&quot;entityType&quot;:&quot;atom&quot;,&quot;entityId&quot;:&quot;6436&quot;,&quot;token&quot;:&quot;g:1&quot;,&quot;signature&quot;:&quot;g:1&quot;,&quot;imageName&quot;:&quot;page-005.jpg&quot;,&quot;imageId&quot;:5,&quot;bounds&quot;:{&quot;x&quot;:552,&quot;y&quot;:2566,&quot;w&quot;:78,&quot;h&quot;:35},&quot;atoms&quot;:[{&quot;id&quot;:6436,&quot;token&quot;:&quot;g:1&quot;,&quot;particle_id&quot;:&quot;img5-m61-p5&quot;,&quot;molecule_id&quot;:&quot;img5-m61&quot;,&quot;atom_order&quot;:2}]}</metadata>
  <rect x="0" y="0" width="78" height="35" fill="#f8f0d8"/>
  <image href="file:///C:/Users/HHHES/AppData/Roaming/com.voynichlab.datasetcreator/images/1/a6cd3b6e-2a78-4b30-a4be-5d186aea258e.jpg" x="-552" y="-2566" width="2691" height="3770" opacity="0.92"/>
  <rect x="0.5" y="0.5" width="77" height="34" fill="none" stroke="#111827" stroke-width="1" opacity="0.35"/>
  <polyline points="16,18 17,18 18,18 19,18 20,18 21,18 22,18 23,18 24,18 25,18 27,18 28,18 29,18 30,18 31,18 32,18 34,18 35,19 36,19 37,19 38,19 39,19 40,19 41,19 42,18 43,18 44,18 45,18 46,18 47,18 48,18 49,18 49,17 50,17 51,17 52,17 53,17 54,17 55,17 56,17 57,16 58,16 59,16 60,16 61,16 62,16" fill="none" stroke="#7c3cff" stroke-width="3" stroke-linecap="round" stroke-linejoin="round" opacity="0.95">
    <title>6436 g:1</title>
  </polyline>
</svg>
