<?xml version="1.0" encoding="UTF-8"?>
<svg xmlns="http://www.w3.org/2000/svg" width="75" height="33" viewBox="0 0 75 33">
  <title>atom 6439 g:1</title>
  <metadata>{&quot;entityType&quot;:&quot;atom&quot;,&quot;entityId&quot;:&quot;6439&quot;,&quot;token&quot;:&quot;g:1&quot;,&quot;signature&quot;:&quot;g:1&quot;,&quot;imageName&quot;:&quot;page-005.jpg&quot;,&quot;imageId&quot;:5,&quot;bounds&quot;:{&quot;x&quot;:1122,&quot;y&quot;:2646,&quot;w&quot;:75,&quot;h&quot;:33},&quot;atoms&quot;:[{&quot;id&quot;:6439,&quot;token&quot;:&quot;g:1&quot;,&quot;particle_id&quot;:&quot;img5-m78-p2&quot;,&quot;molecule_id&quot;:&quot;img5-m78&quot;,&quot;atom_order&quot;:2}]}</metadata>
  <rect x="0" y="0" width="75" height="33" fill="#f8f0d8"/>
  <image href="file:///C:/Users/HHHES/AppData/Roaming/com.voynichlab.datasetcreator/images/1/a6cd3b6e-2a78-4b30-a4be-5d186aea258e.jpg" x="-1122" y="-2646" width="2691" height="3770" opacity="0.92"/>
  <rect x="0.5" y="0.5" width="74" height="32" fill="none" stroke="#111827" stroke-width="1" opacity="0.35"/>
  <polyline points="16,16 17,16 18,16 19,16 20,16 21,16 22,16 24,16 25,17 26,17 27,17 28,17 30,17 31,17 32,16 33,16 34,16 36,16 37,16 38,16 39,17 40,17 41,17 42,17 43,17 44,17 45,17 46,17 47,17 48,17 49,17 50,17 51,17 52,17 53,17 54,17 55,16 56,16 57,16 58,16 59,16" fill="none" stroke="#7c3cff" stroke-width="3" stroke-linecap="round" stroke-linejoin="round" opacity="0.95">
    <title>6439 g:1</title>
  </polyline>
</svg>
