<?xml version="1.0" encoding="UTF-8"?>
<svg xmlns="http://www.w3.org/2000/svg" width="117" height="37" viewBox="0 0 117 37">
  <title>atom 6440 g:1</title>
  <metadata>{&quot;entityType&quot;:&quot;atom&quot;,&quot;entityId&quot;:&quot;6440&quot;,&quot;token&quot;:&quot;g:1&quot;,&quot;signature&quot;:&quot;g:1&quot;,&quot;imageName&quot;:&quot;page-005.jpg&quot;,&quot;imageId&quot;:5,&quot;bounds&quot;:{&quot;x&quot;:1659,&quot;y&quot;:2635,&quot;w&quot;:117,&quot;h&quot;:37},&quot;atoms&quot;:[{&quot;id&quot;:6440,&quot;token&quot;:&quot;g:1&quot;,&quot;particle_id&quot;:&quot;img5-m70-p1&quot;,&quot;molecule_id&quot;:&quot;img5-m70&quot;,&quot;atom_order&quot;:7}]}</metadata>
  <rect x="0" y="0" width="117" height="37" fill="#f8f0d8"/>
  <image href="file:///C:/Users/HHHES/AppData/Roaming/com.voynichlab.datasetcreator/images/1/a6cd3b6e-2a78-4b30-a4be-5d186aea258e.jpg" x="-1659" y="-2635" width="2691" height="3770" opacity="0.92"/>
  <rect x="0.5" y="0.5" width="116" height="36" fill="none" stroke="#111827" stroke-width="1" opacity="0.35"/>
  <polyline points="16,21 17,21 18,21 19,21 19,20 20,20 22,20 23,20 25,20 26,20 27,20 28,20 29,20 30,20 31,20 33,20 35,20 36,20 37,20 39,20 41,20 44,20 46,20 47,20 49,20 51,20 53,20 55,20 57,19 59,19 60,19 62,19 63,19 64,19 66,19 67,19 68,19 70,19 71,19 72,19 73,19 74,18 75,18 76,18 77,18 78,18 79,18 80,18 81,18 82,17 83,17 84,17 85,17 86,17 87,17 88,17 89,17 90,17 91,17 92,17 93,17 95,17 96,16 97,16 98,16 99,16 100,16 101,16" fill="none" stroke="#7c3cff" stroke-width="3" stroke-linecap="round" stroke-linejoin="round" opacity="0.95">
    <title>6440 g:1</title>
  </polyline>
</svg>
