<?xml version="1.0" encoding="UTF-8"?>
<svg xmlns="http://www.w3.org/2000/svg" width="77" height="33" viewBox="0 0 77 33">
  <title>atom 6443 g:1</title>
  <metadata>{&quot;entityType&quot;:&quot;atom&quot;,&quot;entityId&quot;:&quot;6443&quot;,&quot;token&quot;:&quot;g:1&quot;,&quot;signature&quot;:&quot;g:1&quot;,&quot;imageName&quot;:&quot;page-005.jpg&quot;,&quot;imageId&quot;:5,&quot;bounds&quot;:{&quot;x&quot;:1940,&quot;y&quot;:2694,&quot;w&quot;:77,&quot;h&quot;:33},&quot;atoms&quot;:[{&quot;id&quot;:6443,&quot;token&quot;:&quot;g:1&quot;,&quot;particle_id&quot;:&quot;img5-m82-p2&quot;,&quot;molecule_id&quot;:&quot;img5-m82&quot;,&quot;atom_order&quot;:2}]}</metadata>
  <rect x="0" y="0" width="77" height="33" fill="#f8f0d8"/>
  <image href="file:///C:/Users/HHHES/AppData/Roaming/com.voynichlab.datasetcreator/images/1/a6cd3b6e-2a78-4b30-a4be-5d186aea258e.jpg" x="-1940" y="-2694" width="2691" height="3770" opacity="0.92"/>
  <rect x="0.5" y="0.5" width="76" height="32" fill="none" stroke="#111827" stroke-width="1" opacity="0.35"/>
  <polyline points="16,17 17,17 18,17 19,17 21,17 22,16 24,16 25,16 26,16 27,16 28,16 29,16 30,16 32,16 33,16 34,16 35,16 36,16 38,16 40,16 42,16 43,16 44,16 45,16 46,16 47,16 49,16 50,16 52,16 53,16 54,16 55,16 56,16 57,16 58,16 59,16 60,16 61,16" fill="none" stroke="#7c3cff" stroke-width="3" stroke-linecap="round" stroke-linejoin="round" opacity="0.95">
    <title>6443 g:1</title>
  </polyline>
</svg>
