<?xml version="1.0" encoding="UTF-8"?>
<svg xmlns="http://www.w3.org/2000/svg" width="112" height="41" viewBox="0 0 112 41">
  <title>atom 6444 g:1</title>
  <metadata>{&quot;entityType&quot;:&quot;atom&quot;,&quot;entityId&quot;:&quot;6444&quot;,&quot;token&quot;:&quot;g:1&quot;,&quot;signature&quot;:&quot;g:1&quot;,&quot;imageName&quot;:&quot;page-005.jpg&quot;,&quot;imageId&quot;:5,&quot;bounds&quot;:{&quot;x&quot;:2137,&quot;y&quot;:2671,&quot;w&quot;:112,&quot;h&quot;:41},&quot;atoms&quot;:[{&quot;id&quot;:6444,&quot;token&quot;:&quot;g:1&quot;,&quot;particle_id&quot;:&quot;img5-m77-p1&quot;,&quot;molecule_id&quot;:&quot;img5-m77&quot;,&quot;atom_order&quot;:6}]}</metadata>
  <rect x="0" y="0" width="112" height="41" fill="#f8f0d8"/>
  <image href="file:///C:/Users/HHHES/AppData/Roaming/com.voynichlab.datasetcreator/images/1/a6cd3b6e-2a78-4b30-a4be-5d186aea258e.jpg" x="-2137" y="-2671" width="2691" height="3770" opacity="0.92"/>
  <rect x="0.5" y="0.5" width="111" height="40" fill="none" stroke="#111827" stroke-width="1" opacity="0.35"/>
  <polyline points="16,25 17,25 18,25 19,25 20,25 20,24 21,24 22,24 23,24 24,24 25,24 26,24 27,24 28,24 29,24 30,23 31,23 32,23 33,23 35,23 36,23 37,23 39,23 40,23 41,23 42,23 43,23 44,22 45,22 46,22 47,22 48,22 50,22 51,21 53,21 54,21 55,21 56,21 57,21 58,21 60,20 61,20 62,20 64,20 65,19 66,19 67,19 68,19 69,19 70,19 71,19 72,18 73,18 74,18 75,18 76,18 77,18 79,18 80,18 81,18 82,18 83,18 84,18 85,17 86,17 87,17 88,17 89,17 90,17 91,17 92,17 93,17 94,17 95,17 96,17 96,16" fill="none" stroke="#7c3cff" stroke-width="3" stroke-linecap="round" stroke-linejoin="round" opacity="0.95">
    <title>6444 g:1</title>
  </polyline>
</svg>
