<?xml version="1.0" encoding="UTF-8"?>
<svg xmlns="http://www.w3.org/2000/svg" width="71" height="36" viewBox="0 0 71 36">
  <title>atom 6447 g:1</title>
  <metadata>{&quot;entityType&quot;:&quot;atom&quot;,&quot;entityId&quot;:&quot;6447&quot;,&quot;token&quot;:&quot;g:1&quot;,&quot;signature&quot;:&quot;g:1&quot;,&quot;imageName&quot;:&quot;page-005.jpg&quot;,&quot;imageId&quot;:5,&quot;bounds&quot;:{&quot;x&quot;:1841,&quot;y&quot;:2778,&quot;w&quot;:71,&quot;h&quot;:36},&quot;atoms&quot;:[{&quot;id&quot;:6447,&quot;token&quot;:&quot;g:1&quot;,&quot;particle_id&quot;:&quot;img5-m93-p1&quot;,&quot;molecule_id&quot;:&quot;img5-m93&quot;,&quot;atom_order&quot;:2}]}</metadata>
  <rect x="0" y="0" width="71" height="36" fill="#f8f0d8"/>
  <image href="file:///C:/Users/HHHES/AppData/Roaming/com.voynichlab.datasetcreator/images/1/a6cd3b6e-2a78-4b30-a4be-5d186aea258e.jpg" x="-1841" y="-2778" width="2691" height="3770" opacity="0.92"/>
  <rect x="0.5" y="0.5" width="70" height="35" fill="none" stroke="#111827" stroke-width="1" opacity="0.35"/>
  <polyline points="16,20 17,20 18,19 19,19 20,18 21,18 22,18 23,18 25,18 26,18 27,18 28,18 29,18 30,18 31,18 32,18 33,18 34,18 35,18 36,18 37,18 38,18 39,18 40,18 41,18 42,18 43,18 43,17 44,17 45,17 46,17 47,17 48,17 49,17 50,17 51,17 52,17 52,16 53,16 54,16 55,16" fill="none" stroke="#7c3cff" stroke-width="3" stroke-linecap="round" stroke-linejoin="round" opacity="0.95">
    <title>6447 g:1</title>
  </polyline>
</svg>
