<?xml version="1.0" encoding="UTF-8"?>
<svg xmlns="http://www.w3.org/2000/svg" width="72" height="36" viewBox="0 0 72 36">
  <title>atom 6448 g:1</title>
  <metadata>{&quot;entityType&quot;:&quot;atom&quot;,&quot;entityId&quot;:&quot;6448&quot;,&quot;token&quot;:&quot;g:1&quot;,&quot;signature&quot;:&quot;g:1&quot;,&quot;imageName&quot;:&quot;page-005.jpg&quot;,&quot;imageId&quot;:5,&quot;bounds&quot;:{&quot;x&quot;:1381,&quot;y&quot;:2810,&quot;w&quot;:72,&quot;h&quot;:36},&quot;atoms&quot;:[{&quot;id&quot;:6448,&quot;token&quot;:&quot;g:1&quot;,&quot;particle_id&quot;:&quot;img5-m96-p1&quot;,&quot;molecule_id&quot;:&quot;img5-m96&quot;,&quot;atom_order&quot;:2}]}</metadata>
  <rect x="0" y="0" width="72" height="36" fill="#f8f0d8"/>
  <image href="file:///C:/Users/HHHES/AppData/Roaming/com.voynichlab.datasetcreator/images/1/a6cd3b6e-2a78-4b30-a4be-5d186aea258e.jpg" x="-1381" y="-2810" width="2691" height="3770" opacity="0.92"/>
  <rect x="0.5" y="0.5" width="71" height="35" fill="none" stroke="#111827" stroke-width="1" opacity="0.35"/>
  <polyline points="16,17 17,17 18,17 20,16 21,16 22,16 23,16 24,16 25,16 26,16 27,16 28,16 29,16 30,16 31,16 32,16 33,16 34,16 35,16 36,16 38,17 40,17 41,17 42,17 43,17 43,18 44,18 45,18 46,18 48,19 49,19 50,19 51,19 52,19 54,19 55,19 55,20 56,20" fill="none" stroke="#7c3cff" stroke-width="3" stroke-linecap="round" stroke-linejoin="round" opacity="0.95">
    <title>6448 g:1</title>
  </polyline>
</svg>
