<?xml version="1.0" encoding="UTF-8"?>
<svg xmlns="http://www.w3.org/2000/svg" width="82" height="34" viewBox="0 0 82 34">
  <title>atom 6477 g:1</title>
  <metadata>{&quot;entityType&quot;:&quot;atom&quot;,&quot;entityId&quot;:&quot;6477&quot;,&quot;token&quot;:&quot;g:1&quot;,&quot;signature&quot;:&quot;g:1&quot;,&quot;imageName&quot;:&quot;page-005.jpg&quot;,&quot;imageId&quot;:5,&quot;bounds&quot;:{&quot;x&quot;:1176,&quot;y&quot;:2729,&quot;w&quot;:82,&quot;h&quot;:34},&quot;atoms&quot;:[{&quot;id&quot;:6477,&quot;token&quot;:&quot;g:1&quot;,&quot;particle_id&quot;:&quot;img5-m89-p2&quot;,&quot;molecule_id&quot;:&quot;img5-m89&quot;,&quot;atom_order&quot;:2}]}</metadata>
  <rect x="0" y="0" width="82" height="34" fill="#f8f0d8"/>
  <image href="file:///C:/Users/HHHES/AppData/Roaming/com.voynichlab.datasetcreator/images/1/a6cd3b6e-2a78-4b30-a4be-5d186aea258e.jpg" x="-1176" y="-2729" width="2691" height="3770" opacity="0.92"/>
  <rect x="0.5" y="0.5" width="81" height="33" fill="none" stroke="#111827" stroke-width="1" opacity="0.35"/>
  <polyline points="16,17 18,17 19,17 21,17 22,17 23,16 24,16 25,16 27,16 29,17 30,17 32,17 33,17 34,17 36,17 39,17 41,17 44,17 45,18 46,18 47,18 49,18 51,18 54,18 56,18 58,18 59,18 61,18 62,18 64,18 65,18 66,18" fill="none" stroke="#7c3cff" stroke-width="3" stroke-linecap="round" stroke-linejoin="round" opacity="0.95">
    <title>6477 g:1</title>
  </polyline>
</svg>
