<?xml version="1.0" encoding="UTF-8"?>
<svg xmlns="http://www.w3.org/2000/svg" width="49" height="68" viewBox="0 0 49 68">
  <title>atom 3022 h:2</title>
  <metadata>{&quot;entityType&quot;:&quot;atom&quot;,&quot;entityId&quot;:&quot;3022&quot;,&quot;token&quot;:&quot;h:2&quot;,&quot;signature&quot;:&quot;h:2&quot;,&quot;imageName&quot;:&quot;page-094.jpg&quot;,&quot;imageId&quot;:94,&quot;bounds&quot;:{&quot;x&quot;:1709,&quot;y&quot;:939,&quot;w&quot;:49,&quot;h&quot;:68},&quot;atoms&quot;:[{&quot;id&quot;:3022,&quot;token&quot;:&quot;h:2&quot;,&quot;particle_id&quot;:&quot;img94-m35-p1&quot;,&quot;molecule_id&quot;:&quot;img94-m35&quot;,&quot;atom_order&quot;:3}]}</metadata>
  <rect x="0" y="0" width="49" height="68" fill="#f8f0d8"/>
  
  <rect x="0.5" y="0.5" width="48" height="67" fill="none" stroke="#111827" stroke-width="1" opacity="0.35"/>
  <polyline points="28,52 28,51 29,51 30,50 31,50 31,49 32,49 32,48 32,47 33,47 33,46 33,45 33,44 33,43 32,43 32,42 32,41 31,41 31,40 30,40 30,39 30,38 29,38 28,37 27,36 26,36 26,35 25,35 25,34 24,34 24,33 23,33 22,32 21,32 21,31 20,31 20,30 19,30 19,29 18,29 18,28 17,28 17,27 17,26 16,25 16,24 16,23 16,22 16,21 16,20 16,19 16,18 16,17 17,17 17,16 18,16" fill="none" stroke="#ff8c00" stroke-width="3" stroke-linecap="round" stroke-linejoin="round" opacity="0.95">
    <title>3022 h:2</title>
  </polyline>
</svg>
