<?xml version="1.0" encoding="UTF-8"?>
<svg xmlns="http://www.w3.org/2000/svg" width="47" height="68" viewBox="0 0 47 68">
  <title>atom 3288 h:2</title>
  <metadata>{&quot;entityType&quot;:&quot;atom&quot;,&quot;entityId&quot;:&quot;3288&quot;,&quot;token&quot;:&quot;h:2&quot;,&quot;signature&quot;:&quot;h:2&quot;,&quot;imageName&quot;:&quot;page-003.jpg&quot;,&quot;imageId&quot;:3,&quot;bounds&quot;:{&quot;x&quot;:1502,&quot;y&quot;:1900,&quot;w&quot;:47,&quot;h&quot;:68},&quot;atoms&quot;:[{&quot;id&quot;:3288,&quot;token&quot;:&quot;h:2&quot;,&quot;particle_id&quot;:&quot;img3-m112-p1&quot;,&quot;molecule_id&quot;:&quot;img3-m112&quot;,&quot;atom_order&quot;:3}]}</metadata>
  <rect x="0" y="0" width="47" height="68" fill="#f8f0d8"/>
  
  <rect x="0.5" y="0.5" width="46" height="67" fill="none" stroke="#111827" stroke-width="1" opacity="0.35"/>
  <polyline points="25,52 25,51 26,51 26,50 26,49 26,48 26,47 26,46 26,45 27,45 27,44 26,44 26,43 26,42 26,41 25,40 25,39 24,38 24,37 23,37 23,36 22,36 21,35 20,35 20,34 19,33 19,32 18,32 18,31 17,31 17,30 17,29 17,28 16,28 16,27 16,26 16,25 16,24 16,23 16,22 16,21 17,21 17,20 17,19 18,19 19,19 19,18 20,18 20,17 21,17 22,17 22,16 23,16 24,16 25,16 26,16 27,16 28,16 29,16 30,16 31,16" fill="none" stroke="#ff8c00" stroke-width="3" stroke-linecap="round" stroke-linejoin="round" opacity="0.95">
    <title>3288 h:2</title>
  </polyline>
</svg>
