<?xml version="1.0" encoding="UTF-8"?>
<svg xmlns="http://www.w3.org/2000/svg" width="42" height="71" viewBox="0 0 42 71">
  <title>atom 3383 h:2</title>
  <metadata>{&quot;entityType&quot;:&quot;atom&quot;,&quot;entityId&quot;:&quot;3383&quot;,&quot;token&quot;:&quot;h:2&quot;,&quot;signature&quot;:&quot;h:2&quot;,&quot;imageName&quot;:&quot;page-003.jpg&quot;,&quot;imageId&quot;:3,&quot;bounds&quot;:{&quot;x&quot;:2076,&quot;y&quot;:1980,&quot;w&quot;:42,&quot;h&quot;:71},&quot;atoms&quot;:[{&quot;id&quot;:3383,&quot;token&quot;:&quot;h:2&quot;,&quot;particle_id&quot;:&quot;img3-m122-p1&quot;,&quot;molecule_id&quot;:&quot;img3-m122&quot;,&quot;atom_order&quot;:3}]}</metadata>
  <rect x="0" y="0" width="42" height="71" fill="#f8f0d8"/>

  <rect x="0.5" y="0.5" width="41" height="70" fill="none" stroke="#111827" stroke-width="1" opacity="0.35"/>
  <polyline points="24,55 24,54 25,54 25,53 25,52 26,52 26,51 26,50 26,49 26,48 26,47 26,46 26,45 26,44 26,43 26,42 25,42 25,41 25,40 25,39 24,39 24,38 24,37 23,37 23,36 22,35 22,34 21,34 20,33 19,33 19,32 19,31 18,31 18,30 17,30 17,29 17,28 16,27 16,26 16,25 16,24 16,23 16,22 17,22 17,21 18,21 18,20 19,20 19,19 20,19 21,18 22,18 22,17 23,17 24,17 25,17 26,16" fill="none" stroke="#ff8c00" stroke-width="3" stroke-linecap="round" stroke-linejoin="round" opacity="0.95">
    <title>3383 h:2</title>
  </polyline>
</svg>
