<?xml version="1.0" encoding="UTF-8"?>
<svg xmlns="http://www.w3.org/2000/svg" width="42" height="68" viewBox="0 0 42 68">
  <title>atom 5297 h:2</title>
  <metadata>{&quot;entityType&quot;:&quot;atom&quot;,&quot;entityId&quot;:&quot;5297&quot;,&quot;token&quot;:&quot;h:2&quot;,&quot;signature&quot;:&quot;h:2&quot;,&quot;imageName&quot;:&quot;page-004.jpg&quot;,&quot;imageId&quot;:4,&quot;bounds&quot;:{&quot;x&quot;:863,&quot;y&quot;:1892,&quot;w&quot;:42,&quot;h&quot;:68},&quot;atoms&quot;:[{&quot;id&quot;:5297,&quot;token&quot;:&quot;h:2&quot;,&quot;particle_id&quot;:&quot;img4-m2-p3&quot;,&quot;molecule_id&quot;:&quot;img4-m2&quot;,&quot;atom_order&quot;:3}]}</metadata>
  <rect x="0" y="0" width="42" height="68" fill="#f8f0d8"/>
  
  <rect x="0.5" y="0.5" width="41" height="67" fill="none" stroke="#111827" stroke-width="1" opacity="0.35"/>
  <polyline points="16,52 17,52 18,52 18,51 19,51 20,51 21,51 22,50 23,50 24,49 25,48 25,47 26,47 26,46 26,45 26,44 26,43 26,42 26,41 25,41 25,40 25,39 24,39 24,38 24,37 23,37 22,36 22,35 21,35 21,34 20,34 20,33 19,33 19,32 18,32 18,31 18,30 18,29 18,28 18,27 18,26 18,25 18,24 18,23 18,22 18,21 19,20 20,19 21,18 22,17 22,16 23,16" fill="none" stroke="#ff8c00" stroke-width="3" stroke-linecap="round" stroke-linejoin="round" opacity="0.95">
    <title>5297 h:2</title>
  </polyline>
</svg>
