<?xml version="1.0" encoding="UTF-8"?>
<svg xmlns="http://www.w3.org/2000/svg" width="40" height="68" viewBox="0 0 40 68">
  <title>atom 5298 h:2</title>
  <metadata>{&quot;entityType&quot;:&quot;atom&quot;,&quot;entityId&quot;:&quot;5298&quot;,&quot;token&quot;:&quot;h:2&quot;,&quot;signature&quot;:&quot;h:2&quot;,&quot;imageName&quot;:&quot;page-004.jpg&quot;,&quot;imageId&quot;:4,&quot;bounds&quot;:{&quot;x&quot;:2385,&quot;y&quot;:2063,&quot;w&quot;:40,&quot;h&quot;:68},&quot;atoms&quot;:[{&quot;id&quot;:5298,&quot;token&quot;:&quot;h:2&quot;,&quot;particle_id&quot;:&quot;img4-m18-p3&quot;,&quot;molecule_id&quot;:&quot;img4-m18&quot;,&quot;atom_order&quot;:3}]}</metadata>
  <rect x="0" y="0" width="40" height="68" fill="#f8f0d8"/>

  <rect x="0.5" y="0.5" width="39" height="67" fill="none" stroke="#111827" stroke-width="1" opacity="0.35"/>
  <polyline points="18,52 19,52 20,51 21,51 21,50 22,50 22,49 22,48 22,47 22,46 22,45 22,44 22,43 22,42 22,41 22,40 21,39 21,38 21,37 20,37 20,36 19,35 18,34 18,33 17,32 17,31 16,31 16,30 16,29 16,28 16,27 17,26 17,25 17,24 18,23 18,22 18,21 19,21 19,20 19,19 20,19 20,18 21,18 21,17 22,17 23,16 24,16" fill="none" stroke="#ff8c00" stroke-width="3" stroke-linecap="round" stroke-linejoin="round" opacity="0.95">
    <title>5298 h:2</title>
  </polyline>
</svg>
