<?xml version="1.0" encoding="UTF-8"?>
<svg xmlns="http://www.w3.org/2000/svg" width="47" height="74" viewBox="0 0 47 74">
  <title>atom 5500 h:2</title>
  <metadata>{&quot;entityType&quot;:&quot;atom&quot;,&quot;entityId&quot;:&quot;5500&quot;,&quot;token&quot;:&quot;h:2&quot;,&quot;signature&quot;:&quot;h:2&quot;,&quot;imageName&quot;:&quot;page-094.jpg&quot;,&quot;imageId&quot;:94,&quot;bounds&quot;:{&quot;x&quot;:1417,&quot;y&quot;:696,&quot;w&quot;:47,&quot;h&quot;:74},&quot;atoms&quot;:[{&quot;id&quot;:5500,&quot;token&quot;:&quot;h:2&quot;,&quot;particle_id&quot;:&quot;img94-m14-p1&quot;,&quot;molecule_id&quot;:&quot;img94-m14&quot;,&quot;atom_order&quot;:3}]}</metadata>
  <rect x="0" y="0" width="47" height="74" fill="#f8f0d8"/>

  <rect x="0.5" y="0.5" width="46" height="73" fill="none" stroke="#111827" stroke-width="1" opacity="0.35"/>
  <polyline points="24,58 25,58 26,58 26,57 27,57 28,57 28,56 29,56 30,56 30,55 30,54 30,53 31,53 31,52 31,51 30,50 30,49 30,48 30,47 29,47 29,46 29,45 28,45 28,44 28,43 27,43 27,42 26,42 26,41 26,40 25,40 25,39 24,39 24,38 23,37 23,36 22,36 22,35 21,34 20,33 19,32 19,31 18,30 18,29 17,28 17,27 16,26 16,25 16,24 16,23 16,22 16,21 16,20 16,19 17,18 18,17 19,16 20,16 21,16 22,16 23,16 24,16 25,16 26,17 27,17 28,17" fill="none" stroke="#ff8c00" stroke-width="3" stroke-linecap="round" stroke-linejoin="round" opacity="0.95">
    <title>5500 h:2</title>
  </polyline>
</svg>
