<?xml version="1.0" encoding="UTF-8"?>
<svg xmlns="http://www.w3.org/2000/svg" width="42" height="71" viewBox="0 0 42 71">
  <title>atom 6073 h:2</title>
  <metadata>{&quot;entityType&quot;:&quot;atom&quot;,&quot;entityId&quot;:&quot;6073&quot;,&quot;token&quot;:&quot;h:2&quot;,&quot;signature&quot;:&quot;h:2&quot;,&quot;imageName&quot;:&quot;page-005.jpg&quot;,&quot;imageId&quot;:5,&quot;bounds&quot;:{&quot;x&quot;:1493,&quot;y&quot;:731,&quot;w&quot;:42,&quot;h&quot;:71},&quot;atoms&quot;:[{&quot;id&quot;:6073,&quot;token&quot;:&quot;h:2&quot;,&quot;particle_id&quot;:&quot;img5-m22-p1&quot;,&quot;molecule_id&quot;:&quot;img5-m22&quot;,&quot;atom_order&quot;:3}]}</metadata>
  <rect x="0" y="0" width="42" height="71" fill="#f8f0d8"/>
  
  <rect x="0.5" y="0.5" width="41" height="70" fill="none" stroke="#111827" stroke-width="1" opacity="0.35"/>
  <polyline points="20,55 21,54 22,54 22,53 23,53 24,53 24,52 25,52 25,51 26,51 26,50 26,49 26,48 26,47 26,46 26,45 25,44 24,43 23,42 22,41 21,40 21,39 20,39 20,38 20,37 19,36 19,35 19,34 18,34 18,33 17,32 17,31 17,30 16,29 16,28 16,27 16,26 16,25 16,24 16,23 16,22 16,21 17,21 17,20 17,19 18,18 19,17 20,16 21,16" fill="none" stroke="#ff8c00" stroke-width="3" stroke-linecap="round" stroke-linejoin="round" opacity="0.95">
    <title>6073 h:2</title>
  </polyline>
</svg>
