<?xml version="1.0" encoding="UTF-8"?>
<svg xmlns="http://www.w3.org/2000/svg" width="45" height="67" viewBox="0 0 45 67">
  <title>atom 7017 h:2</title>
  <metadata>{&quot;entityType&quot;:&quot;atom&quot;,&quot;entityId&quot;:&quot;7017&quot;,&quot;token&quot;:&quot;h:2&quot;,&quot;signature&quot;:&quot;h:2&quot;,&quot;imageName&quot;:&quot;page-006.jpg&quot;,&quot;imageId&quot;:6,&quot;bounds&quot;:{&quot;x&quot;:1791,&quot;y&quot;:844,&quot;w&quot;:45,&quot;h&quot;:67},&quot;atoms&quot;:[{&quot;id&quot;:7017,&quot;token&quot;:&quot;h:2&quot;,&quot;particle_id&quot;:&quot;img6-m18-p3&quot;,&quot;molecule_id&quot;:&quot;img6-m18&quot;,&quot;atom_order&quot;:3}]}</metadata>
  <rect x="0" y="0" width="45" height="67" fill="#f8f0d8"/>

  <rect x="0.5" y="0.5" width="44" height="66" fill="none" stroke="#111827" stroke-width="1" opacity="0.35"/>
  <polyline points="22,51 22,50 23,50 24,50 24,49 25,49 25,48 26,48 27,47 28,46 28,45 29,44 29,43 29,42 29,41 29,40 28,39 27,38 26,37 26,36 25,36 25,35 24,34 23,34 23,33 22,33 21,32 21,31 20,31 20,30 19,30 19,29 18,28 18,27 17,26 17,25 16,25 16,24 16,23 16,22 16,21 16,20 16,19 16,18 17,17 18,16 19,16 20,16" fill="none" stroke="#ff8c00" stroke-width="3" stroke-linecap="round" stroke-linejoin="round" opacity="0.95">
    <title>7017 h:2</title>
  </polyline>
</svg>
