<?xml version="1.0" encoding="UTF-8"?>
<svg xmlns="http://www.w3.org/2000/svg" width="69" height="44" viewBox="0 0 69 44">
  <title>atom 1002 d:1</title>
  <metadata>{&quot;entityType&quot;:&quot;atom&quot;,&quot;entityId&quot;:&quot;1002&quot;,&quot;token&quot;:&quot;d:1&quot;,&quot;signature&quot;:&quot;d:1&quot;,&quot;imageName&quot;:&quot;page-003.jpg&quot;,&quot;imageId&quot;:3,&quot;bounds&quot;:{&quot;x&quot;:734,&quot;y&quot;:479,&quot;w&quot;:69,&quot;h&quot;:44},&quot;atoms&quot;:[{&quot;id&quot;:1002,&quot;token&quot;:&quot;d:1&quot;,&quot;particle_id&quot;:&quot;img3-m1-p2&quot;,&quot;molecule_id&quot;:&quot;img3-m1&quot;,&quot;atom_order&quot;:3}]}</metadata>
  <rect x="0" y="0" width="69" height="44" fill="#f8f0d8"/>
  
  <rect x="0.5" y="0.5" width="68" height="43" fill="none" stroke="#111827" stroke-width="1" opacity="0.35"/>
  <polyline points="16,28 16,27 16,26 16,25 17,25 17,24 18,24 18,23 19,23 19,22 20,22 20,21 21,20 22,20 22,19 23,19 24,19 24,18 25,18 26,18 27,18 27,17 28,17 29,17 30,17 31,17 32,17 33,16 34,16 35,16 36,16 37,16 38,16 38,17 39,17 40,17 41,17 41,18 42,18 43,18 43,19 44,19 45,19 45,20 46,20 47,20 47,21 48,21 48,22 49,22 50,23 51,23 51,24 52,25 52,26 53,26" fill="none" stroke="#ff2d55" stroke-width="3" stroke-linecap="round" stroke-linejoin="round" opacity="0.95">
    <title>1002 d:1</title>
  </polyline>
</svg>
