<?xml version="1.0" encoding="UTF-8"?>
<svg xmlns="http://www.w3.org/2000/svg" width="89" height="52" viewBox="0 0 89 52">
  <title>atom 2619 d:1</title>
  <metadata>{&quot;entityType&quot;:&quot;atom&quot;,&quot;entityId&quot;:&quot;2619&quot;,&quot;token&quot;:&quot;d:1&quot;,&quot;signature&quot;:&quot;d:1&quot;,&quot;imageName&quot;:&quot;page-094.jpg&quot;,&quot;imageId&quot;:94,&quot;bounds&quot;:{&quot;x&quot;:777,&quot;y&quot;:461,&quot;w&quot;:89,&quot;h&quot;:52},&quot;atoms&quot;:[{&quot;id&quot;:2619,&quot;token&quot;:&quot;d:1&quot;,&quot;particle_id&quot;:&quot;img94-m1-p1&quot;,&quot;molecule_id&quot;:&quot;img94-m1&quot;,&quot;atom_order&quot;:8}]}</metadata>
  <rect x="0" y="0" width="89" height="52" fill="#f8f0d8"/>

  <rect x="0.5" y="0.5" width="88" height="51" fill="none" stroke="#111827" stroke-width="1" opacity="0.35"/>
  <polyline points="16,36 16,35 16,34 17,34 17,33 17,32 18,31 18,30 19,30 19,29 19,28 20,28 20,27 21,27 21,26 22,25 23,25 23,24 24,24 24,23 25,23 25,22 26,22 27,21 28,21 29,20 30,20 31,20 32,20 33,20 33,19 34,19 35,19 36,19 37,19 38,19 38,18 39,18 40,18 41,18 42,18 43,18 43,17 44,17 45,17 46,17 47,17 47,16 48,16 49,16 50,16 51,16 52,16 53,16 54,16 55,16 56,16 57,16 58,16 59,16 60,16 61,16 62,16 63,16 64,16 65,16 66,16 67,16 68,16 69,16 70,16 71,16 71,17 72,17 73,17" fill="none" stroke="#ff2d55" stroke-width="3" stroke-linecap="round" stroke-linejoin="round" opacity="0.95">
    <title>2619 d:1</title>
  </polyline>
</svg>
