<?xml version="1.0" encoding="UTF-8"?>
<svg xmlns="http://www.w3.org/2000/svg" width="58" height="42" viewBox="0 0 58 42">
  <title>atom 2763 d:1</title>
  <metadata>{&quot;entityType&quot;:&quot;atom&quot;,&quot;entityId&quot;:&quot;2763&quot;,&quot;token&quot;:&quot;d:1&quot;,&quot;signature&quot;:&quot;d:1&quot;,&quot;imageName&quot;:&quot;page-094.jpg&quot;,&quot;imageId&quot;:94,&quot;bounds&quot;:{&quot;x&quot;:1916,&quot;y&quot;:621,&quot;w&quot;:58,&quot;h&quot;:42},&quot;atoms&quot;:[{&quot;id&quot;:2763,&quot;token&quot;:&quot;d:1&quot;,&quot;particle_id&quot;:&quot;img94-m12-p3&quot;,&quot;molecule_id&quot;:&quot;img94-m12&quot;,&quot;atom_order&quot;:3}]}</metadata>
  <rect x="0" y="0" width="58" height="42" fill="#f8f0d8"/>
  
  <rect x="0.5" y="0.5" width="57" height="41" fill="none" stroke="#111827" stroke-width="1" opacity="0.35"/>
  <polyline points="16,24 16,23 16,22 17,22 17,21 17,20 18,19 18,18 19,18 20,17 21,17 21,16 22,16 23,16 24,16 25,16 26,16 27,16 28,16 29,16 30,16 31,16 31,17 32,17 33,17 33,18 34,18 35,18 35,19 36,19 37,19 37,20 38,20 38,21 39,21 39,22 40,22 40,23 40,24 41,24 41,25 41,26 42,26" fill="none" stroke="#ff2d55" stroke-width="3" stroke-linecap="round" stroke-linejoin="round" opacity="0.95">
    <title>2763 d:1</title>
  </polyline>
</svg>
