<?xml version="1.0" encoding="UTF-8"?>
<svg xmlns="http://www.w3.org/2000/svg" width="61" height="43" viewBox="0 0 61 43">
  <title>atom 2844 d:1</title>
  <metadata>{&quot;entityType&quot;:&quot;atom&quot;,&quot;entityId&quot;:&quot;2844&quot;,&quot;token&quot;:&quot;d:1&quot;,&quot;signature&quot;:&quot;d:1&quot;,&quot;imageName&quot;:&quot;page-094.jpg&quot;,&quot;imageId&quot;:94,&quot;bounds&quot;:{&quot;x&quot;:1078,&quot;y&quot;:703,&quot;w&quot;:61,&quot;h&quot;:43},&quot;atoms&quot;:[{&quot;id&quot;:2844,&quot;token&quot;:&quot;d:1&quot;,&quot;particle_id&quot;:&quot;img94-m19-p3&quot;,&quot;molecule_id&quot;:&quot;img94-m19&quot;,&quot;atom_order&quot;:3}]}</metadata>
  <rect x="0" y="0" width="61" height="43" fill="#f8f0d8"/>
  
  <rect x="0.5" y="0.5" width="60" height="42" fill="none" stroke="#111827" stroke-width="1" opacity="0.35"/>
  <polyline points="16,27 16,26 16,25 17,25 17,24 18,24 18,23 19,23 19,22 20,22 20,21 21,21 21,20 22,20 22,19 23,19 24,18 25,18 26,17 27,17 28,17 28,16 29,16 30,16 31,16 32,16 33,16 34,16 35,16 36,16 37,16 38,16 38,17 39,17 40,17 40,18 41,18 42,18 42,19 43,19 43,20 44,20 44,21 44,22 45,22" fill="none" stroke="#ff2d55" stroke-width="3" stroke-linecap="round" stroke-linejoin="round" opacity="0.95">
    <title>2844 d:1</title>
  </polyline>
</svg>
