<?xml version="1.0" encoding="UTF-8"?>
<svg xmlns="http://www.w3.org/2000/svg" width="66" height="53" viewBox="0 0 66 53">
  <title>atom 5235 d:1</title>
  <metadata>{&quot;entityType&quot;:&quot;atom&quot;,&quot;entityId&quot;:&quot;5235&quot;,&quot;token&quot;:&quot;d:1&quot;,&quot;signature&quot;:&quot;d:1&quot;,&quot;imageName&quot;:&quot;page-004.jpg&quot;,&quot;imageId&quot;:4,&quot;bounds&quot;:{&quot;x&quot;:956,&quot;y&quot;:1888,&quot;w&quot;:66,&quot;h&quot;:53},&quot;atoms&quot;:[{&quot;id&quot;:5235,&quot;token&quot;:&quot;d:1&quot;,&quot;particle_id&quot;:&quot;img4-m2-p5&quot;,&quot;molecule_id&quot;:&quot;img4-m2&quot;,&quot;atom_order&quot;:4}]}</metadata>
  <rect x="0" y="0" width="66" height="53" fill="#f8f0d8"/>

  <rect x="0.5" y="0.5" width="65" height="52" fill="none" stroke="#111827" stroke-width="1" opacity="0.35"/>
  <polyline points="16,37 16,36 17,35 17,34 18,34 18,33 19,32 19,31 20,30 20,29 21,28 21,27 22,27 22,26 23,25 24,25 24,24 25,23 26,23 26,22 27,21 28,20 29,19 30,19 31,18 32,18 33,17 34,17 35,17 36,17 36,16 37,16 38,16 39,16 40,16 42,16 44,16 44,17 45,17 46,17 47,17 48,17 49,17 49,18 50,18" fill="none" stroke="#ff2d55" stroke-width="3" stroke-linecap="round" stroke-linejoin="round" opacity="0.95">
    <title>5235 d:1</title>
  </polyline>
</svg>
