<?xml version="1.0" encoding="UTF-8"?>
<svg xmlns="http://www.w3.org/2000/svg" width="67" height="43" viewBox="0 0 67 43">
  <title>atom 6381 d:1</title>
  <metadata>{&quot;entityType&quot;:&quot;atom&quot;,&quot;entityId&quot;:&quot;6381&quot;,&quot;token&quot;:&quot;d:1&quot;,&quot;signature&quot;:&quot;d:1&quot;,&quot;imageName&quot;:&quot;page-005.jpg&quot;,&quot;imageId&quot;:5,&quot;bounds&quot;:{&quot;x&quot;:1076,&quot;y&quot;:2874,&quot;w&quot;:67,&quot;h&quot;:43},&quot;atoms&quot;:[{&quot;id&quot;:6381,&quot;token&quot;:&quot;d:1&quot;,&quot;particle_id&quot;:&quot;img5-m100-p3&quot;,&quot;molecule_id&quot;:&quot;img5-m100&quot;,&quot;atom_order&quot;:4}]}</metadata>
  <rect x="0" y="0" width="67" height="43" fill="#f8f0d8"/>

  <rect x="0.5" y="0.5" width="66" height="42" fill="none" stroke="#111827" stroke-width="1" opacity="0.35"/>
  <polyline points="16,21 16,22 16,21 17,21 18,20 19,20 20,19 21,18 22,18 23,17 24,17 25,16 26,16 27,16 28,16 30,16 31,16 33,16 35,16 36,17 37,17 38,17 39,18 40,18 40,19 42,19 42,20 43,20 44,20 45,21 46,21 47,22 48,22 49,23 50,23 50,24 50,25 51,25 51,26 51,27" fill="none" stroke="#ff2d55" stroke-width="3" stroke-linecap="round" stroke-linejoin="round" opacity="0.95">
    <title>6381 d:1</title>
  </polyline>
</svg>
