<?xml version="1.0" encoding="UTF-8"?>
<svg xmlns="http://www.w3.org/2000/svg" width="49" height="39" viewBox="0 0 49 39">
  <title>atom 6760 d:1</title>
  <metadata>{&quot;entityType&quot;:&quot;atom&quot;,&quot;entityId&quot;:&quot;6760&quot;,&quot;token&quot;:&quot;d:1&quot;,&quot;signature&quot;:&quot;d:1&quot;,&quot;imageName&quot;:&quot;page-006.jpg&quot;,&quot;imageId&quot;:6,&quot;bounds&quot;:{&quot;x&quot;:2183,&quot;y&quot;:789,&quot;w&quot;:49,&quot;h&quot;:39},&quot;atoms&quot;:[{&quot;id&quot;:6760,&quot;token&quot;:&quot;d:1&quot;,&quot;particle_id&quot;:&quot;img6-m14-p3&quot;,&quot;molecule_id&quot;:&quot;img6-m14&quot;,&quot;atom_order&quot;:3}]}</metadata>
  <rect x="0" y="0" width="49" height="39" fill="#f8f0d8"/>

  <rect x="0.5" y="0.5" width="48" height="38" fill="none" stroke="#111827" stroke-width="1" opacity="0.35"/>
  <polyline points="16,22 17,21 17,20 18,19 18,18 19,18 19,17 20,17 21,16 22,16 23,16 24,16 25,16 26,16 27,16 28,17 29,17 30,18 31,18 31,19 32,19 32,20 32,21 33,21 33,22 33,23" fill="none" stroke="#ff2d55" stroke-width="3" stroke-linecap="round" stroke-linejoin="round" opacity="0.95">
    <title>6760 d:1</title>
  </polyline>
</svg>
