<?xml version="1.0" encoding="UTF-8"?>
<svg xmlns="http://www.w3.org/2000/svg" width="62" height="50" viewBox="0 0 62 50">
  <title>atom 6761 d:1</title>
  <metadata>{&quot;entityType&quot;:&quot;atom&quot;,&quot;entityId&quot;:&quot;6761&quot;,&quot;token&quot;:&quot;d:1&quot;,&quot;signature&quot;:&quot;d:1&quot;,&quot;imageName&quot;:&quot;page-006.jpg&quot;,&quot;imageId&quot;:6,&quot;bounds&quot;:{&quot;x&quot;:1687,&quot;y&quot;:758,&quot;w&quot;:62,&quot;h&quot;:50},&quot;atoms&quot;:[{&quot;id&quot;:6761,&quot;token&quot;:&quot;d:1&quot;,&quot;particle_id&quot;:&quot;img6-m10-p10&quot;,&quot;molecule_id&quot;:&quot;img6-m10&quot;,&quot;atom_order&quot;:3}]}</metadata>
  <rect x="0" y="0" width="62" height="50" fill="#f8f0d8"/>

  <rect x="0.5" y="0.5" width="61" height="49" fill="none" stroke="#111827" stroke-width="1" opacity="0.35"/>
  <polyline points="22,34 21,34 20,34 19,33 18,32 17,31 17,30 16,30 16,29 16,28 16,27 16,26 16,25 16,24 16,23 17,22 17,21 17,20 18,20 19,19 20,18 21,18 22,17 24,17 26,16 27,16 28,16 29,16 31,16 33,16 35,16 36,16 37,16 38,17 39,18 40,18 40,19 41,19 42,20 42,21 43,22 44,23 44,24 45,24 45,25 46,25" fill="none" stroke="#ff2d55" stroke-width="3" stroke-linecap="round" stroke-linejoin="round" opacity="0.95">
    <title>6761 d:1</title>
  </polyline>
</svg>
