<?xml version="1.0" encoding="UTF-8"?>
<svg xmlns="http://www.w3.org/2000/svg" width="50" height="44" viewBox="0 0 50 44">
  <title>atom 6762 d:1</title>
  <metadata>{&quot;entityType&quot;:&quot;atom&quot;,&quot;entityId&quot;:&quot;6762&quot;,&quot;token&quot;:&quot;d:1&quot;,&quot;signature&quot;:&quot;d:1&quot;,&quot;imageName&quot;:&quot;page-006.jpg&quot;,&quot;imageId&quot;:6,&quot;bounds&quot;:{&quot;x&quot;:1084,&quot;y&quot;:825,&quot;w&quot;:50,&quot;h&quot;:44},&quot;atoms&quot;:[{&quot;id&quot;:6762,&quot;token&quot;:&quot;d:1&quot;,&quot;particle_id&quot;:&quot;img6-m17-p3&quot;,&quot;molecule_id&quot;:&quot;img6-m17&quot;,&quot;atom_order&quot;:3}]}</metadata>
  <rect x="0" y="0" width="50" height="44" fill="#f8f0d8"/>

  <rect x="0.5" y="0.5" width="49" height="43" fill="none" stroke="#111827" stroke-width="1" opacity="0.35"/>
  <polyline points="16,28 16,27 17,26 18,24 19,23 19,22 20,22 20,21 21,21 21,20 22,20 22,19 23,19 23,18 24,18 25,18 25,17 26,17 27,17 28,17 29,17 30,17 30,16 31,16 32,16 32,17 33,17 33,18 34,18 34,19 34,20 34,21 34,22 34,23 34,24 34,25 33,25 33,26" fill="none" stroke="#ff2d55" stroke-width="3" stroke-linecap="round" stroke-linejoin="round" opacity="0.95">
    <title>6762 d:1</title>
  </polyline>
</svg>
