<?xml version="1.0" encoding="UTF-8"?>
<svg xmlns="http://www.w3.org/2000/svg" width="78" height="51" viewBox="0 0 78 51">
  <title>atom 6763 d:1</title>
  <metadata>{&quot;entityType&quot;:&quot;atom&quot;,&quot;entityId&quot;:&quot;6763&quot;,&quot;token&quot;:&quot;d:1&quot;,&quot;signature&quot;:&quot;d:1&quot;,&quot;imageName&quot;:&quot;page-006.jpg&quot;,&quot;imageId&quot;:6,&quot;bounds&quot;:{&quot;x&quot;:1858,&quot;y&quot;:838,&quot;w&quot;:78,&quot;h&quot;:51},&quot;atoms&quot;:[{&quot;id&quot;:6763,&quot;token&quot;:&quot;d:1&quot;,&quot;particle_id&quot;:&quot;img6-m18-p5&quot;,&quot;molecule_id&quot;:&quot;img6-m18&quot;,&quot;atom_order&quot;:4}]}</metadata>
  <rect x="0" y="0" width="78" height="51" fill="#f8f0d8"/>

  <rect x="0.5" y="0.5" width="77" height="50" fill="none" stroke="#111827" stroke-width="1" opacity="0.35"/>
  <polyline points="16,22 16,21 17,21 18,20 19,19 20,19 20,18 21,18 22,17 23,17 24,17 25,17 26,17 27,17 28,17 29,16 30,16 32,16 33,16 34,16 35,16 36,16 37,16 39,17 41,17 43,18 45,18 46,18 46,19 47,19 48,19 49,20 50,21 51,22 52,23 53,24 54,24 54,25 55,25 56,26 57,26 58,27 58,28 59,28 59,29 59,30 60,31 60,32 61,33 61,34 62,34 62,35" fill="none" stroke="#ff2d55" stroke-width="3" stroke-linecap="round" stroke-linejoin="round" opacity="0.95">
    <title>6763 d:1</title>
  </polyline>
</svg>
