<?xml version="1.0" encoding="UTF-8"?>
<svg xmlns="http://www.w3.org/2000/svg" width="80" height="54" viewBox="0 0 80 54">
  <title>atom 3029 k:1</title>
  <metadata>{&quot;entityType&quot;:&quot;atom&quot;,&quot;entityId&quot;:&quot;3029&quot;,&quot;token&quot;:&quot;k:1&quot;,&quot;signature&quot;:&quot;k:1&quot;,&quot;imageName&quot;:&quot;page-094.jpg&quot;,&quot;imageId&quot;:94,&quot;bounds&quot;:{&quot;x&quot;:1387,&quot;y&quot;:962,&quot;w&quot;:80,&quot;h&quot;:54},&quot;atoms&quot;:[{&quot;id&quot;:3029,&quot;token&quot;:&quot;k:1&quot;,&quot;particle_id&quot;:&quot;img94-m36-p3&quot;,&quot;molecule_id&quot;:&quot;img94-m36&quot;,&quot;atom_order&quot;:1}]}</metadata>
  <rect x="0" y="0" width="80" height="54" fill="#f8f0d8"/>
  
  <rect x="0.5" y="0.5" width="79" height="53" fill="none" stroke="#111827" stroke-width="1" opacity="0.35"/>
  <polyline points="16,20 16,21 17,21 17,22 18,22 18,23 19,23 19,24 19,25 20,25 20,26 21,26 21,27 21,28 22,28 22,29 23,29 23,30 24,31 24,32 25,32 25,33 26,34 26,35 27,36 27,37 28,37 28,38 29,38 29,37 30,37 30,36 31,35 31,34 32,34 32,33 33,33 33,32 33,31 34,31 34,30 34,29 35,29 35,28 35,27 36,27 36,26 37,25 37,24 37,23 38,23 38,22 38,21 39,21 39,20 39,19 40,19 40,20 41,21 41,22 42,22 42,23 43,24 43,25 44,25 44,26 44,27 45,27 45,28 46,29 46,30 47,30 47,31 47,32 48,32 48,33 49,33 49,34 50,34 50,35 51,35 52,35 52,34 53,34 53,33 53,32 54,32 54,31 55,30 55,29 56,29 56,28 56,27 57,27 57,26 58,26 58,25 59,25 59,24 60,23 60,22 61,22 61,21 61,20 62,20 62,19 62,18 63,18 63,17 63,16 64,16" fill="none" stroke="#ffffff" stroke-width="3" stroke-linecap="round" stroke-linejoin="round" opacity="0.95">
    <title>3029 k:1</title>
  </polyline>
</svg>
