<?xml version="1.0" encoding="UTF-8"?>
<svg xmlns="http://www.w3.org/2000/svg" width="80" height="52" viewBox="0 0 80 52">
  <title>atom 4377 k:1</title>
  <metadata>{&quot;entityType&quot;:&quot;atom&quot;,&quot;entityId&quot;:&quot;4377&quot;,&quot;token&quot;:&quot;k:1&quot;,&quot;signature&quot;:&quot;k:1&quot;,&quot;imageName&quot;:&quot;page-094.jpg&quot;,&quot;imageId&quot;:94,&quot;bounds&quot;:{&quot;x&quot;:1665,&quot;y&quot;:2589,&quot;w&quot;:80,&quot;h&quot;:52},&quot;atoms&quot;:[{&quot;id&quot;:4377,&quot;token&quot;:&quot;k:1&quot;,&quot;particle_id&quot;:&quot;img94-m48-p2&quot;,&quot;molecule_id&quot;:&quot;img94-m48&quot;,&quot;atom_order&quot;:2}]}</metadata>
  <rect x="0" y="0" width="80" height="52" fill="#f8f0d8"/>
  
  <rect x="0.5" y="0.5" width="79" height="51" fill="none" stroke="#111827" stroke-width="1" opacity="0.35"/>
  <polyline points="16,18 16,19 17,19 17,20 18,20 19,21 19,22 20,22 21,23 21,24 22,24 22,25 22,26 23,26 23,27 23,28 24,28 24,29 24,30 24,31 25,31 25,32 26,32 26,33 26,34 27,34 28,35 28,36 29,36 30,36 30,35 30,34 31,34 31,33 32,32 32,31 33,31 33,30 33,29 34,28 34,27 35,26 36,25 36,24 37,24 37,23 37,22 38,22 38,21 39,20 39,19 39,18 40,18 40,17 40,16 41,16 41,17 41,18 42,20 42,21 42,22 42,23 43,24 43,25 43,26 43,27 44,27 44,28 44,29 45,29 45,30 46,30 46,31 47,31 47,32 48,32 48,33 49,33 49,34 50,34 50,35 51,35 51,34 52,34 52,33 52,32 53,32 53,31 54,30 55,29 55,28 56,28 56,27 57,26 58,25 58,24 59,23 59,22 60,22 61,21 62,21 62,20 63,20 64,19" fill="none" stroke="#ffffff" stroke-width="3" stroke-linecap="round" stroke-linejoin="round" opacity="0.95">
    <title>4377 k:1</title>
  </polyline>
</svg>
