<?xml version="1.0" encoding="UTF-8"?>
<svg xmlns="http://www.w3.org/2000/svg" width="55" height="64" viewBox="0 0 55 64">
  <title>atom 5451 n:1</title>
  <metadata>{&quot;entityType&quot;:&quot;atom&quot;,&quot;entityId&quot;:&quot;5451&quot;,&quot;token&quot;:&quot;n:1&quot;,&quot;signature&quot;:&quot;n:1&quot;,&quot;imageName&quot;:&quot;page-004.jpg&quot;,&quot;imageId&quot;:4,&quot;bounds&quot;:{&quot;x&quot;:787,&quot;y&quot;:2295,&quot;w&quot;:55,&quot;h&quot;:64},&quot;atoms&quot;:[{&quot;id&quot;:5451,&quot;token&quot;:&quot;n:1&quot;,&quot;particle_id&quot;:&quot;img4-m35-p3&quot;,&quot;molecule_id&quot;:&quot;img4-m35&quot;,&quot;atom_order&quot;:1}]}</metadata>
  <rect x="0" y="0" width="55" height="64" fill="#f8f0d8"/>
  <image href="file:///C:/Users/HHHES/AppData/Roaming/com.voynichlab.datasetcreator/images/1/aff30327-ced8-4ab4-8c9b-190205ebe022.jpg" x="-787" y="-2295" width="2804" height="3797" opacity="0.92"/>
  <rect x="0.5" y="0.5" width="54" height="63" fill="none" stroke="#111827" stroke-width="1" opacity="0.35"/>
  <polyline points="19,41 19,40 18,40 18,39 17,38 17,37 17,36 16,36 16,34 16,33 16,32 16,31 16,30 16,29 16,28 16,27 16,26 17,25 17,24 17,23 18,23 18,22 18,21 19,20 19,19 20,19 20,18 21,18 22,17 23,17 24,17 25,16 26,16 27,16 28,16 29,16 31,16 32,17 33,17 34,18 35,19 36,20 37,22 37,23 38,23 38,24 39,25 39,26 39,27 39,28 39,29 39,30 39,31 39,32 39,33 39,34 39,36 39,37 39,38 39,39 39,40 39,41 39,42 39,43 39,44 38,45 38,46 38,47 38,48 37,48" fill="none" stroke="#f92f59" stroke-width="3" stroke-linecap="round" stroke-linejoin="round" opacity="0.95">
    <title>5451 n:1</title>
  </polyline>
</svg>
