<?xml version="1.0" encoding="UTF-8"?>
<svg xmlns="http://www.w3.org/2000/svg" width="84" height="39" viewBox="0 0 84 39">
  <title>atom 1322 b:1</title>
  <metadata>{&quot;entityType&quot;:&quot;atom&quot;,&quot;entityId&quot;:&quot;1322&quot;,&quot;token&quot;:&quot;b:1&quot;,&quot;signature&quot;:&quot;b:1&quot;,&quot;imageName&quot;:&quot;page-003.jpg&quot;,&quot;imageId&quot;:3,&quot;bounds&quot;:{&quot;x&quot;:581,&quot;y&quot;:436,&quot;w&quot;:84,&quot;h&quot;:39},&quot;atoms&quot;:[{&quot;id&quot;:1322,&quot;token&quot;:&quot;b:1&quot;,&quot;particle_id&quot;:&quot;img3-m1-p1&quot;,&quot;molecule_id&quot;:&quot;img3-m1&quot;,&quot;atom_order&quot;:2}]}</metadata>
  <rect x="0" y="0" width="84" height="39" fill="#f8f0d8"/>
  
  <rect x="0.5" y="0.5" width="83" height="38" fill="none" stroke="#111827" stroke-width="1" opacity="0.35"/>
  <polyline points="68,16 68,17 68,18 67,18 67,19 66,19 66,20 65,20 64,20 64,21 63,21 62,21 61,21 61,22 60,22 59,22 58,22 57,22 56,22 55,22 54,22 53,22 52,22 51,22 50,22 50,23 49,23 48,23 47,23 46,23 45,23 44,23 43,23 42,23 41,23 40,23 39,23 38,23 37,23 36,23 35,23 34,23 33,23 32,23 31,23 30,23 29,22 28,22 27,22 26,22 25,21 24,21 23,21 22,21 22,20 21,20 20,20 19,20 18,20 18,19 17,19 16,19" fill="none" stroke="#2f7df6" stroke-width="3" stroke-linecap="round" stroke-linejoin="round" opacity="0.95">
    <title>1322 b:1</title>
  </polyline>
</svg>
