<?xml version="1.0" encoding="UTF-8"?>
<svg xmlns="http://www.w3.org/2000/svg" width="69" height="38" viewBox="0 0 69 38">
  <title>atom 3214 b:1</title>
  <metadata>{&quot;entityType&quot;:&quot;atom&quot;,&quot;entityId&quot;:&quot;3214&quot;,&quot;token&quot;:&quot;b:1&quot;,&quot;signature&quot;:&quot;b:1&quot;,&quot;imageName&quot;:&quot;page-003.jpg&quot;,&quot;imageId&quot;:3,&quot;bounds&quot;:{&quot;x&quot;:2031,&quot;y&quot;:1812,&quot;w&quot;:69,&quot;h&quot;:38},&quot;atoms&quot;:[{&quot;id&quot;:3214,&quot;token&quot;:&quot;b:1&quot;,&quot;particle_id&quot;:&quot;img3-m101-p1&quot;,&quot;molecule_id&quot;:&quot;img3-m101&quot;,&quot;atom_order&quot;:2}]}</metadata>
  <rect x="0" y="0" width="69" height="38" fill="#f8f0d8"/>
  
  <rect x="0.5" y="0.5" width="68" height="37" fill="none" stroke="#111827" stroke-width="1" opacity="0.35"/>
  <polyline points="16,16 16,17 17,17 17,18 18,18 19,18 19,19 20,19 21,19 22,20 23,20 24,20 25,21 26,21 27,21 28,21 29,21 30,21 31,21 32,22 33,22 34,22 35,22 36,22 37,22 38,22 39,22 40,22 41,22 42,21 43,21 44,21 45,21 46,20 47,20 48,20 49,19 50,19 51,19 51,18 52,18 52,17 53,17" fill="none" stroke="#2f7df6" stroke-width="3" stroke-linecap="round" stroke-linejoin="round" opacity="0.95">
    <title>3214 b:1</title>
  </polyline>
</svg>
