<?xml version="1.0" encoding="UTF-8"?>
<svg xmlns="http://www.w3.org/2000/svg" width="105" height="45" viewBox="0 0 105 45">
  <title>atom 981 b:1</title>
  <metadata>{&quot;entityType&quot;:&quot;atom&quot;,&quot;entityId&quot;:&quot;981&quot;,&quot;token&quot;:&quot;b:1&quot;,&quot;signature&quot;:&quot;b:1&quot;,&quot;imageName&quot;:&quot;page-003.jpg&quot;,&quot;imageId&quot;:3,&quot;bounds&quot;:{&quot;x&quot;:591,&quot;y&quot;:373,&quot;w&quot;:105,&quot;h&quot;:45},&quot;atoms&quot;:[{&quot;id&quot;:981,&quot;token&quot;:&quot;b:1&quot;,&quot;particle_id&quot;:&quot;img3-m1-p1&quot;,&quot;molecule_id&quot;:&quot;img3-m1&quot;,&quot;atom_order&quot;:5}]}</metadata>
  <rect x="0" y="0" width="105" height="45" fill="#f8f0d8"/>
  
  <rect x="0.5" y="0.5" width="104" height="44" fill="none" stroke="#111827" stroke-width="1" opacity="0.35"/>
  <polyline points="16,16 16,17 17,17 17,18 17,19 18,19 18,20 19,20 20,20 20,21 21,21 21,22 22,22 23,22 23,23 24,23 25,23 25,24 26,24 27,24 27,25 28,25 29,25 30,25 31,25 31,26 32,26 33,26 34,26 34,27 35,27 36,27 37,27 38,27 39,28 40,28 41,28 42,28 43,28 44,28 45,28 46,28 47,28 47,29 48,29 49,29 50,29 51,29 52,29 53,29 54,29 55,29 56,29 57,29 58,29 59,29 59,28 60,28 61,28 62,28 63,28 64,28 65,28 65,27 66,27 67,27 68,27 69,27 70,26 71,26 72,26 73,26 73,25 74,25 75,25 76,25 77,25 77,24 78,24 79,24 80,24 81,23 82,23 83,23 84,23 84,22 85,22 86,22 86,21 87,21 88,21 88,20 89,20" fill="none" stroke="#2f7df6" stroke-width="3" stroke-linecap="round" stroke-linejoin="round" opacity="0.95">
    <title>981 b:1</title>
  </polyline>
</svg>
