<?xml version="1.0" encoding="UTF-8"?>
<svg xmlns="http://www.w3.org/2000/svg" width="43" height="56" viewBox="0 0 43 56">
  <title>atom 3699 n:1</title>
  <metadata>{&quot;entityType&quot;:&quot;atom&quot;,&quot;entityId&quot;:&quot;3699&quot;,&quot;token&quot;:&quot;n:1&quot;,&quot;signature&quot;:&quot;n:1&quot;,&quot;imageName&quot;:&quot;page-094.jpg&quot;,&quot;imageId&quot;:94,&quot;bounds&quot;:{&quot;x&quot;:1071,&quot;y&quot;:613,&quot;w&quot;:43,&quot;h&quot;:56},&quot;atoms&quot;:[{&quot;id&quot;:3699,&quot;token&quot;:&quot;n:1&quot;,&quot;particle_id&quot;:&quot;img94-m13-p1&quot;,&quot;molecule_id&quot;:&quot;img94-m13&quot;,&quot;atom_order&quot;:1}]}</metadata>
  <rect x="0" y="0" width="43" height="56" fill="#f8f0d8"/>
  <image href="file:///C:/Users/HHHES/AppData/Roaming/com.voynichlab.datasetcreator/images/1/33b1988f-7aaa-4207-bfa8-f26b742ac4b1.jpg" x="-1071" y="-613" width="2932" height="3769" opacity="0.92"/>
  <rect x="0.5" y="0.5" width="42" height="55" fill="none" stroke="#111827" stroke-width="1" opacity="0.35"/>
  <polyline points="16,27 16,26 16,25 16,24 16,23 16,21 16,20 16,19 17,18 18,17 19,17 20,17 20,16 21,16 22,16 23,16 24,16 24,17 25,17 25,18 26,19 26,20 26,21 26,22 26,23 27,23 27,24 27,25 26,26 26,27 26,28 26,29 26,30 26,31 25,32 25,33 25,34 25,35 24,36 23,37 23,38 22,39 21,40 20,40" fill="none" stroke="#f92f59" stroke-width="3" stroke-linecap="round" stroke-linejoin="round" opacity="0.95">
    <title>3699 n:1</title>
  </polyline>
</svg>
