<?xml version="1.0" encoding="UTF-8"?>
<svg xmlns="http://www.w3.org/2000/svg" width="46" height="57" viewBox="0 0 46 57">
  <title>atom 3706 n:1</title>
  <metadata>{&quot;entityType&quot;:&quot;atom&quot;,&quot;entityId&quot;:&quot;3706&quot;,&quot;token&quot;:&quot;n:1&quot;,&quot;signature&quot;:&quot;n:1&quot;,&quot;imageName&quot;:&quot;page-094.jpg&quot;,&quot;imageId&quot;:94,&quot;bounds&quot;:{&quot;x&quot;:1699,&quot;y&quot;:842,&quot;w&quot;:46,&quot;h&quot;:57},&quot;atoms&quot;:[{&quot;id&quot;:3706,&quot;token&quot;:&quot;n:1&quot;,&quot;particle_id&quot;:&quot;img94-m30-p1&quot;,&quot;molecule_id&quot;:&quot;img94-m30&quot;,&quot;atom_order&quot;:1}]}</metadata>
  <rect x="0" y="0" width="46" height="57" fill="#f8f0d8"/>
  <image href="file:///C:/Users/HHHES/AppData/Roaming/com.voynichlab.datasetcreator/images/1/33b1988f-7aaa-4207-bfa8-f26b742ac4b1.jpg" x="-1699" y="-842" width="2932" height="3769" opacity="0.92"/>
  <rect x="0.5" y="0.5" width="45" height="56" fill="none" stroke="#111827" stroke-width="1" opacity="0.35"/>
  <polyline points="16,22 17,21 17,20 18,19 18,18 19,18 20,17 21,16 22,16 23,16 24,16 25,16 26,16 27,16 28,16 29,16 29,17 30,18 30,19 30,20 30,21 30,22 30,23 30,24 30,25 30,26 30,27 30,28 29,29 29,30 29,31 28,31 28,32 28,33 27,35 26,35 26,36 25,37 24,38 24,39 23,39 23,40 22,40 22,41" fill="none" stroke="#f92f59" stroke-width="3" stroke-linecap="round" stroke-linejoin="round" opacity="0.95">
    <title>3706 n:1</title>
  </polyline>
</svg>
