<?xml version="1.0" encoding="UTF-8"?>
<svg xmlns="http://www.w3.org/2000/svg" width="64" height="55" viewBox="0 0 64 55">
  <title>atom 1011 c:1</title>
  <metadata>{&quot;entityType&quot;:&quot;atom&quot;,&quot;entityId&quot;:&quot;1011&quot;,&quot;token&quot;:&quot;c:1&quot;,&quot;signature&quot;:&quot;c:1&quot;,&quot;imageName&quot;:&quot;page-003.jpg&quot;,&quot;imageId&quot;:3,&quot;bounds&quot;:{&quot;x&quot;:903,&quot;y&quot;:438,&quot;w&quot;:64,&quot;h&quot;:55},&quot;atoms&quot;:[{&quot;id&quot;:1011,&quot;token&quot;:&quot;c:1&quot;,&quot;particle_id&quot;:&quot;img3-m9-p2&quot;,&quot;molecule_id&quot;:&quot;img3-m9&quot;,&quot;atom_order&quot;:3}]}</metadata>
  <rect x="0" y="0" width="64" height="55" fill="#f8f0d8"/>
  <image href="file:///C:/Users/HHHES/AppData/Roaming/com.voynichlab.datasetcreator/images/1/35a70f63-88ab-4986-b441-b78046a10087.jpg" x="-903" y="-438" width="2972" height="3766" opacity="0.92"/>
  <rect x="0.5" y="0.5" width="63" height="54" fill="none" stroke="#111827" stroke-width="1" opacity="0.35"/>
  <polyline points="45,31 46,31 46,30 47,29 47,28 47,27 48,27 48,26 48,25 48,24 48,23 48,22 48,21 48,20 47,20 47,19 46,19 45,19 45,18 44,18 43,18 43,17 42,17 41,17 40,17 40,16 39,16 38,16 37,16 36,16 35,16 34,16 34,17 33,17 32,17 31,17 30,17 30,18 29,18 28,18 28,19 27,19 26,19 26,20 25,20 24,20 23,20 23,21 22,21 21,21 21,22 20,22 20,23 19,23 18,24 17,24 17,25 17,26 17,27 17,28 16,28 16,29 16,30 16,31 16,32 16,33 16,34 16,35 16,36 17,36 17,37 18,37 19,37 19,38 20,38 21,38 21,39 22,39 23,39 24,39 25,39 26,39 27,39 28,39 29,39 30,39 31,39 32,39 32,38 33,38 34,38 35,38 35,37 36,37 37,37 37,36 38,36 39,36 40,36 40,35 41,35 42,34 43,34 43,33 44,33 45,32 45,31 46,31" fill="none" stroke="#8aff00" stroke-width="3" stroke-linecap="round" stroke-linejoin="round" opacity="0.95">
    <title>1011 c:1</title>
  </polyline>
</svg>
