<?xml version="1.0" encoding="UTF-8"?>
<svg xmlns="http://www.w3.org/2000/svg" width="59" height="56" viewBox="0 0 59 56">
  <title>atom 1170 c:1</title>
  <metadata>{&quot;entityType&quot;:&quot;atom&quot;,&quot;entityId&quot;:&quot;1170&quot;,&quot;token&quot;:&quot;c:1&quot;,&quot;signature&quot;:&quot;c:1&quot;,&quot;imageName&quot;:&quot;page-003.jpg&quot;,&quot;imageId&quot;:3,&quot;bounds&quot;:{&quot;x&quot;:1136,&quot;y&quot;:552,&quot;w&quot;:59,&quot;h&quot;:56},&quot;atoms&quot;:[{&quot;id&quot;:1170,&quot;token&quot;:&quot;c:1&quot;,&quot;particle_id&quot;:&quot;img3-m12-p1&quot;,&quot;molecule_id&quot;:&quot;img3-m12&quot;,&quot;atom_order&quot;:3}]}</metadata>
  <rect x="0" y="0" width="59" height="56" fill="#f8f0d8"/>
  <image href="file:///C:/Users/HHHES/AppData/Roaming/com.voynichlab.datasetcreator/images/1/35a70f63-88ab-4986-b441-b78046a10087.jpg" x="-1136" y="-552" width="2972" height="3766" opacity="0.92"/>
  <rect x="0.5" y="0.5" width="58" height="55" fill="none" stroke="#111827" stroke-width="1" opacity="0.35"/>
  <polyline points="35,36 36,36 36,35 37,35 38,34 39,34 39,33 39,32 40,32 40,31 41,31 41,30 42,29 42,28 42,27 43,27 43,26 43,25 43,24 43,23 43,22 43,21 43,20 42,19 42,18 41,18 41,17 40,17 39,17 38,17 37,17 36,16 35,16 34,17 33,17 32,17 31,17 31,18 30,18 29,18 29,19 28,19 27,19 26,20 25,20 24,20 24,21 23,21 22,21 22,22 21,22 21,23 20,23 19,23 19,24 18,24 18,25 17,25 17,26 17,27 17,28 17,29 16,29 16,30 16,31 16,32 16,33 16,34 16,35 16,36 17,36 17,37 18,38 19,38 19,39 20,39 20,40 21,40 22,40 23,40 24,40 25,40 26,40 27,39 28,39 29,39 29,38 30,38 31,38 32,38 32,37 33,37 34,37 34,36" fill="none" stroke="#8aff00" stroke-width="3" stroke-linecap="round" stroke-linejoin="round" opacity="0.95">
    <title>1170 c:1</title>
  </polyline>
</svg>
