<?xml version="1.0" encoding="UTF-8"?>
<svg xmlns="http://www.w3.org/2000/svg" width="68" height="57" viewBox="0 0 68 57">
  <title>atom 1189 c:1</title>
  <metadata>{&quot;entityType&quot;:&quot;atom&quot;,&quot;entityId&quot;:&quot;1189&quot;,&quot;token&quot;:&quot;c:1&quot;,&quot;signature&quot;:&quot;c:1&quot;,&quot;imageName&quot;:&quot;page-003.jpg&quot;,&quot;imageId&quot;:3,&quot;bounds&quot;:{&quot;x&quot;:1360,&quot;y&quot;:544,&quot;w&quot;:68,&quot;h&quot;:57},&quot;atoms&quot;:[{&quot;id&quot;:1189,&quot;token&quot;:&quot;c:1&quot;,&quot;particle_id&quot;:&quot;img3-m17-p2&quot;,&quot;molecule_id&quot;:&quot;img3-m17&quot;,&quot;atom_order&quot;:3}]}</metadata>
  <rect x="0" y="0" width="68" height="57" fill="#f8f0d8"/>
  <image href="file:///C:/Users/HHHES/AppData/Roaming/com.voynichlab.datasetcreator/images/1/35a70f63-88ab-4986-b441-b78046a10087.jpg" x="-1360" y="-544" width="2972" height="3766" opacity="0.92"/>
  <rect x="0.5" y="0.5" width="67" height="56" fill="none" stroke="#111827" stroke-width="1" opacity="0.35"/>
  <polyline points="20,40 21,40 22,40 23,41 24,41 25,41 26,41 27,41 28,41 29,41 30,41 31,41 32,41 33,41 34,41 35,41 36,41 37,41 38,41 39,41 40,41 41,41 41,40 42,40 43,40 44,39 45,39 46,38 47,38 47,37 48,37 48,36 49,36 50,36 50,35 50,34 51,34 51,33 51,32 52,32 52,31 52,30 52,29 52,28 52,27 52,26 52,25 52,24 52,23 51,23 51,22 51,21 50,21 50,20 50,19 49,19 48,18 47,18 46,17 45,17 44,17 43,17 42,17 41,17 41,16 40,16 39,16 38,16 37,16 36,16 35,16 34,16 33,16 32,16 31,16 30,16 29,16 28,16 27,16 26,16 26,17 25,17 24,17 23,18 22,18 22,19 21,19 20,20 20,21 19,21 19,22 18,22 18,23 18,24 17,24 17,25 16,25 16,26 16,27 16,28 16,29 16,30 16,31 16,32 16,33 16,34 16,35 17,35 17,36 18,36 18,37 19,37 19,38 20,38 20,39 21,39 22,39 22,40 23,40" fill="none" stroke="#8aff00" stroke-width="3" stroke-linecap="round" stroke-linejoin="round" opacity="0.95">
    <title>1189 c:1</title>
  </polyline>
</svg>
