<?xml version="1.0" encoding="UTF-8"?>
<svg xmlns="http://www.w3.org/2000/svg" width="54" height="54" viewBox="0 0 54 54">
  <title>atom 1372 c:1</title>
  <metadata>{&quot;entityType&quot;:&quot;atom&quot;,&quot;entityId&quot;:&quot;1372&quot;,&quot;token&quot;:&quot;c:1&quot;,&quot;signature&quot;:&quot;c:1&quot;,&quot;imageName&quot;:&quot;page-003.jpg&quot;,&quot;imageId&quot;:3,&quot;bounds&quot;:{&quot;x&quot;:1167,&quot;y&quot;:631,&quot;w&quot;:54,&quot;h&quot;:54},&quot;atoms&quot;:[{&quot;id&quot;:1372,&quot;token&quot;:&quot;c:1&quot;,&quot;particle_id&quot;:&quot;img3-m26-p2&quot;,&quot;molecule_id&quot;:&quot;img3-m26&quot;,&quot;atom_order&quot;:3}]}</metadata>
  <rect x="0" y="0" width="54" height="54" fill="#f8f0d8"/>
  <image href="file:///C:/Users/HHHES/AppData/Roaming/com.voynichlab.datasetcreator/images/1/35a70f63-88ab-4986-b441-b78046a10087.jpg" x="-1167" y="-631" width="2972" height="3766" opacity="0.92"/>
  <rect x="0.5" y="0.5" width="53" height="53" fill="none" stroke="#111827" stroke-width="1" opacity="0.35"/>
  <polyline points="31,33 32,33 32,32 33,32 34,32 34,31 35,31 35,30 36,30 36,29 37,29 37,28 37,27 38,27 38,26 38,25 38,24 38,23 38,22 38,21 38,20 38,19 37,19 37,18 36,18 35,18 35,17 34,17 33,17 32,16 31,16 30,16 29,16 28,16 27,17 26,17 25,17 25,18 24,18 23,18 23,19 22,19 22,20 22,21 21,21 21,22 20,22 20,23 19,24 19,25 18,26 18,27 18,28 17,28 17,29 17,30 16,30 16,31 16,32 16,33 16,34 17,34 17,35 17,36 18,36 18,37 19,37 19,38 20,38 21,38 22,38 23,38 24,38 24,37 25,37 26,37 27,37 27,36 28,36 29,35 30,35 31,34" fill="none" stroke="#8aff00" stroke-width="3" stroke-linecap="round" stroke-linejoin="round" opacity="0.95">
    <title>1372 c:1</title>
  </polyline>
</svg>
