<?xml version="1.0" encoding="UTF-8"?>
<svg xmlns="http://www.w3.org/2000/svg" width="58" height="51" viewBox="0 0 58 51">
  <title>atom 1399 c:1</title>
  <metadata>{&quot;entityType&quot;:&quot;atom&quot;,&quot;entityId&quot;:&quot;1399&quot;,&quot;token&quot;:&quot;c:1&quot;,&quot;signature&quot;:&quot;c:1&quot;,&quot;imageName&quot;:&quot;page-003.jpg&quot;,&quot;imageId&quot;:3,&quot;bounds&quot;:{&quot;x&quot;:1594,&quot;y&quot;:634,&quot;w&quot;:58,&quot;h&quot;:51},&quot;atoms&quot;:[{&quot;id&quot;:1399,&quot;token&quot;:&quot;c:1&quot;,&quot;particle_id&quot;:&quot;img3-m19-p1&quot;,&quot;molecule_id&quot;:&quot;img3-m19&quot;,&quot;atom_order&quot;:5}]}</metadata>
  <rect x="0" y="0" width="58" height="51" fill="#f8f0d8"/>
  <image href="file:///C:/Users/HHHES/AppData/Roaming/com.voynichlab.datasetcreator/images/1/35a70f63-88ab-4986-b441-b78046a10087.jpg" x="-1594" y="-634" width="2972" height="3766" opacity="0.92"/>
  <rect x="0.5" y="0.5" width="57" height="50" fill="none" stroke="#111827" stroke-width="1" opacity="0.35"/>
  <polyline points="32,33 32,32 33,32 34,32 34,31 35,31 36,31 36,30 37,30 38,30 38,29 39,29 40,29 40,28 41,28 41,27 42,27 42,26 42,25 42,24 42,23 42,22 42,21 42,20 41,20 41,19 40,18 39,18 39,17 38,17 38,16 37,16 36,16 35,16 34,16 33,16 32,16 31,16 30,16 29,16 29,17 28,17 27,17 27,18 26,18 25,19 24,19 24,20 23,20 23,21 22,21 22,22 21,22 21,23 20,23 20,24 20,25 19,25 19,26 18,26 18,27 18,28 17,28 17,29 17,30 16,30 16,31 16,32 16,33 16,34 17,34 17,35 18,35 19,35 20,35 21,35 22,35 23,35 24,35 25,35 26,35 27,35 27,34 28,34 29,34 30,34 30,33 31,33 32,33" fill="none" stroke="#8aff00" stroke-width="3" stroke-linecap="round" stroke-linejoin="round" opacity="0.95">
    <title>1399 c:1</title>
  </polyline>
</svg>
