<?xml version="1.0" encoding="UTF-8"?>
<svg xmlns="http://www.w3.org/2000/svg" width="61" height="53" viewBox="0 0 61 53">
  <title>atom 1417 c:1</title>
  <metadata>{&quot;entityType&quot;:&quot;atom&quot;,&quot;entityId&quot;:&quot;1417&quot;,&quot;token&quot;:&quot;c:1&quot;,&quot;signature&quot;:&quot;c:1&quot;,&quot;imageName&quot;:&quot;page-003.jpg&quot;,&quot;imageId&quot;:3,&quot;bounds&quot;:{&quot;x&quot;:1903,&quot;y&quot;:636,&quot;w&quot;:61,&quot;h&quot;:53},&quot;atoms&quot;:[{&quot;id&quot;:1417,&quot;token&quot;:&quot;c:1&quot;,&quot;particle_id&quot;:&quot;img3-m20-p1&quot;,&quot;molecule_id&quot;:&quot;img3-m20&quot;,&quot;atom_order&quot;:5}]}</metadata>
  <rect x="0" y="0" width="61" height="53" fill="#f8f0d8"/>
  <image href="file:///C:/Users/HHHES/AppData/Roaming/com.voynichlab.datasetcreator/images/1/35a70f63-88ab-4986-b441-b78046a10087.jpg" x="-1903" y="-636" width="2972" height="3766" opacity="0.92"/>
  <rect x="0.5" y="0.5" width="60" height="52" fill="none" stroke="#111827" stroke-width="1" opacity="0.35"/>
  <polyline points="33,35 34,35 34,34 35,34 36,34 37,34 37,33 38,33 38,32 39,32 40,32 40,31 41,31 41,30 42,30 43,29 43,28 44,28 44,27 44,26 44,25 45,25 45,24 45,23 45,22 45,21 45,20 44,20 44,19 43,19 43,18 42,18 42,17 41,17 40,17 39,17 39,16 38,16 37,16 36,16 35,16 34,16 33,16 32,16 31,16 30,16 29,16 28,16 28,17 27,17 26,17 26,18 25,19 24,19 23,20 23,21 22,21 22,22 21,22 21,23 20,23 20,24 19,24 19,25 18,25 18,26 18,27 17,27 17,28 17,29 17,30 17,31 16,31 16,32 16,33 17,34 17,35 18,35 18,36 19,36 19,37 20,37 21,37 22,37 23,37 24,37 25,37 26,37 26,36 27,36 28,36 29,36 30,36 31,35 32,35 33,35" fill="none" stroke="#8aff00" stroke-width="3" stroke-linecap="round" stroke-linejoin="round" opacity="0.95">
    <title>1417 c:1</title>
  </polyline>
</svg>
