<?xml version="1.0" encoding="UTF-8"?>
<svg xmlns="http://www.w3.org/2000/svg" width="55" height="55" viewBox="0 0 55 55">
  <title>atom 1487 c:1</title>
  <metadata>{&quot;entityType&quot;:&quot;atom&quot;,&quot;entityId&quot;:&quot;1487&quot;,&quot;token&quot;:&quot;c:1&quot;,&quot;signature&quot;:&quot;c:1&quot;,&quot;imageName&quot;:&quot;page-003.jpg&quot;,&quot;imageId&quot;:3,&quot;bounds&quot;:{&quot;x&quot;:568,&quot;y&quot;:774,&quot;w&quot;:55,&quot;h&quot;:55},&quot;atoms&quot;:[{&quot;id&quot;:1487,&quot;token&quot;:&quot;c:1&quot;,&quot;particle_id&quot;:&quot;img3-m33-p1&quot;,&quot;molecule_id&quot;:&quot;img3-m33&quot;,&quot;atom_order&quot;:2}]}</metadata>
  <rect x="0" y="0" width="55" height="55" fill="#f8f0d8"/>
  <image href="file:///C:/Users/HHHES/AppData/Roaming/com.voynichlab.datasetcreator/images/1/35a70f63-88ab-4986-b441-b78046a10087.jpg" x="-568" y="-774" width="2972" height="3766" opacity="0.92"/>
  <rect x="0.5" y="0.5" width="54" height="54" fill="none" stroke="#111827" stroke-width="1" opacity="0.35"/>
  <polyline points="25,39 26,39 27,38 28,38 28,37 29,37 30,37 30,36 31,36 31,35 32,35 32,34 33,34 33,33 34,33 34,32 35,31 36,31 36,30 37,30 37,29 38,28 38,27 39,27 39,26 39,25 39,24 39,23 39,22 39,21 39,20 39,19 39,18 38,18 38,17 37,17 36,17 35,17 34,16 33,16 32,16 31,16 30,16 29,16 28,16 27,16 26,16 25,17 24,17 23,18 22,18 22,19 21,19 21,20 20,20 20,21 19,21 19,22 18,22 18,23 17,24 17,25 17,26 16,26 16,27 16,28 16,29 16,30 16,31 16,32 16,33 16,34 17,35 17,36 17,37 18,37 18,38 19,38 20,38 21,38 21,39 22,39 23,39 24,39 25,39" fill="none" stroke="#8aff00" stroke-width="3" stroke-linecap="round" stroke-linejoin="round" opacity="0.95">
    <title>1487 c:1</title>
  </polyline>
</svg>
