<?xml version="1.0" encoding="UTF-8"?>
<svg xmlns="http://www.w3.org/2000/svg" width="55" height="52" viewBox="0 0 55 52">
  <title>atom 1494 c:1</title>
  <metadata>{&quot;entityType&quot;:&quot;atom&quot;,&quot;entityId&quot;:&quot;1494&quot;,&quot;token&quot;:&quot;c:1&quot;,&quot;signature&quot;:&quot;c:1&quot;,&quot;imageName&quot;:&quot;page-003.jpg&quot;,&quot;imageId&quot;:3,&quot;bounds&quot;:{&quot;x&quot;:742,&quot;y&quot;:799,&quot;w&quot;:55,&quot;h&quot;:52},&quot;atoms&quot;:[{&quot;id&quot;:1494,&quot;token&quot;:&quot;c:1&quot;,&quot;particle_id&quot;:&quot;img3-m36-p1&quot;,&quot;molecule_id&quot;:&quot;img3-m36&quot;,&quot;atom_order&quot;:1}]}</metadata>
  <rect x="0" y="0" width="55" height="52" fill="#f8f0d8"/>
  <image href="file:///C:/Users/HHHES/AppData/Roaming/com.voynichlab.datasetcreator/images/1/35a70f63-88ab-4986-b441-b78046a10087.jpg" x="-742" y="-799" width="2972" height="3766" opacity="0.92"/>
  <rect x="0.5" y="0.5" width="54" height="51" fill="none" stroke="#111827" stroke-width="1" opacity="0.35"/>
  <polyline points="23,36 22,36 21,36 21,35 20,35 19,34 19,33 18,33 18,32 17,32 17,31 16,31 16,30 16,29 16,28 16,27 16,26 16,25 16,24 16,23 17,23 17,22 18,22 18,21 19,20 20,19 21,19 21,18 22,18 23,17 24,17 25,17 26,17 27,17 28,16 29,16 30,16 31,16 32,16 33,16 33,17 34,17 35,17 35,18 36,18 36,19 37,19 37,20 38,20 38,21 38,22 38,23 38,24 39,24 39,25 39,26 39,27 38,27 38,28 38,29 37,29 37,30 37,31 36,31 36,32 35,32 34,33 33,33 33,34 32,34 31,34 30,34 30,35 29,35 28,36 27,36 26,36 25,36 24,36 23,36 22,36 21,36" fill="none" stroke="#8aff00" stroke-width="3" stroke-linecap="round" stroke-linejoin="round" opacity="0.95">
    <title>1494 c:1</title>
  </polyline>
</svg>
