<?xml version="1.0" encoding="UTF-8"?>
<svg xmlns="http://www.w3.org/2000/svg" width="67" height="55" viewBox="0 0 67 55">
  <title>atom 1517 c:1</title>
  <metadata>{&quot;entityType&quot;:&quot;atom&quot;,&quot;entityId&quot;:&quot;1517&quot;,&quot;token&quot;:&quot;c:1&quot;,&quot;signature&quot;:&quot;c:1&quot;,&quot;imageName&quot;:&quot;page-003.jpg&quot;,&quot;imageId&quot;:3,&quot;bounds&quot;:{&quot;x&quot;:1019,&quot;y&quot;:735,&quot;w&quot;:67,&quot;h&quot;:55},&quot;atoms&quot;:[{&quot;id&quot;:1517,&quot;token&quot;:&quot;c:1&quot;,&quot;particle_id&quot;:&quot;img3-m35-p2&quot;,&quot;molecule_id&quot;:&quot;img3-m35&quot;,&quot;atom_order&quot;:4}]}</metadata>
  <rect x="0" y="0" width="67" height="55" fill="#f8f0d8"/>
  <image href="file:///C:/Users/HHHES/AppData/Roaming/com.voynichlab.datasetcreator/images/1/35a70f63-88ab-4986-b441-b78046a10087.jpg" x="-1019" y="-735" width="2972" height="3766" opacity="0.92"/>
  <rect x="0.5" y="0.5" width="66" height="54" fill="none" stroke="#111827" stroke-width="1" opacity="0.35"/>
  <polyline points="45,34 46,34 46,33 47,33 47,32 48,32 48,31 49,31 49,30 50,30 50,29 50,28 51,28 51,27 51,26 50,26 50,25 50,24 50,23 49,23 49,22 48,22 48,21 48,20 47,20 47,19 46,19 45,19 45,18 44,18 43,18 42,17 41,17 40,17 39,17 38,16 37,16 36,16 35,16 34,16 33,16 32,16 31,16 30,17 29,17 28,17 27,17 27,18 26,18 25,18 25,19 24,19 24,20 23,20 23,21 22,21 22,22 21,22 21,23 20,23 20,24 19,24 19,25 18,25 18,26 18,27 17,27 17,28 17,29 17,30 17,31 16,31 16,32 16,33 16,34 16,35 17,36 17,37 18,37 19,37 20,38 21,38 22,38 23,38 24,38 25,38 25,39 26,39 27,39 28,39 29,39 29,38 30,38 31,38 32,38 33,37 34,37 35,37 36,36 37,36 38,36 39,36 39,35 40,35 41,35 42,35 43,34 44,34 45,34 45,33" fill="none" stroke="#8aff00" stroke-width="3" stroke-linecap="round" stroke-linejoin="round" opacity="0.95">
    <title>1517 c:1</title>
  </polyline>
</svg>
