<?xml version="1.0" encoding="UTF-8"?>
<svg xmlns="http://www.w3.org/2000/svg" width="61" height="56" viewBox="0 0 61 56">
  <title>atom 1535 c:1</title>
  <metadata>{&quot;entityType&quot;:&quot;atom&quot;,&quot;entityId&quot;:&quot;1535&quot;,&quot;token&quot;:&quot;c:1&quot;,&quot;signature&quot;:&quot;c:1&quot;,&quot;imageName&quot;:&quot;page-003.jpg&quot;,&quot;imageId&quot;:3,&quot;bounds&quot;:{&quot;x&quot;:1337,&quot;y&quot;:723,&quot;w&quot;:61,&quot;h&quot;:56},&quot;atoms&quot;:[{&quot;id&quot;:1535,&quot;token&quot;:&quot;c:1&quot;,&quot;particle_id&quot;:&quot;img3-m35-p10&quot;,&quot;molecule_id&quot;:&quot;img3-m35&quot;,&quot;atom_order&quot;:3}]}</metadata>
  <rect x="0" y="0" width="61" height="56" fill="#f8f0d8"/>
  <image href="file:///C:/Users/HHHES/AppData/Roaming/com.voynichlab.datasetcreator/images/1/35a70f63-88ab-4986-b441-b78046a10087.jpg" x="-1337" y="-723" width="2972" height="3766" opacity="0.92"/>
  <rect x="0.5" y="0.5" width="60" height="55" fill="none" stroke="#111827" stroke-width="1" opacity="0.35"/>
  <polyline points="37,36 37,35 38,35 39,34 40,34 40,33 41,33 41,32 42,32 42,31 42,30 43,30 43,29 44,29 44,28 44,27 44,26 45,26 45,25 45,24 45,23 45,22 45,21 45,20 44,20 44,19 43,19 43,18 42,18 42,17 41,17 41,16 40,16 39,16 38,16 37,16 36,16 35,16 34,16 33,16 32,16 31,16 30,16 29,17 28,17 27,18 26,18 25,18 25,19 24,19 23,19 23,20 22,20 21,21 20,22 19,23 19,24 18,25 18,26 17,26 17,27 17,28 16,28 16,29 16,30 16,31 16,32 16,33 16,34 16,35 16,36 16,37 17,37 17,38 18,38 18,39 19,39 20,39 21,39 21,40 22,40 23,40 24,40 25,40 26,40 27,40 28,40 28,39 29,39 30,39 31,39 32,38 33,38 34,38 34,37 35,37 36,37 36,36 37,36 38,36 38,35 39,34 39,33" fill="none" stroke="#8aff00" stroke-width="3" stroke-linecap="round" stroke-linejoin="round" opacity="0.95">
    <title>1535 c:1</title>
  </polyline>
</svg>
