<?xml version="1.0" encoding="UTF-8"?>
<svg xmlns="http://www.w3.org/2000/svg" width="63" height="57" viewBox="0 0 63 57">
  <title>atom 1559 c:1</title>
  <metadata>{&quot;entityType&quot;:&quot;atom&quot;,&quot;entityId&quot;:&quot;1559&quot;,&quot;token&quot;:&quot;c:1&quot;,&quot;signature&quot;:&quot;c:1&quot;,&quot;imageName&quot;:&quot;page-003.jpg&quot;,&quot;imageId&quot;:3,&quot;bounds&quot;:{&quot;x&quot;:1501,&quot;y&quot;:714,&quot;w&quot;:63,&quot;h&quot;:57},&quot;atoms&quot;:[{&quot;id&quot;:1559,&quot;token&quot;:&quot;c:1&quot;,&quot;particle_id&quot;:&quot;img3-m29-p1&quot;,&quot;molecule_id&quot;:&quot;img3-m29&quot;,&quot;atom_order&quot;:5}]}</metadata>
  <rect x="0" y="0" width="63" height="57" fill="#f8f0d8"/>
  <image href="file:///C:/Users/HHHES/AppData/Roaming/com.voynichlab.datasetcreator/images/1/35a70f63-88ab-4986-b441-b78046a10087.jpg" x="-1501" y="-714" width="2972" height="3766" opacity="0.92"/>
  <rect x="0.5" y="0.5" width="62" height="56" fill="none" stroke="#111827" stroke-width="1" opacity="0.35"/>
  <polyline points="46,34 47,31 47,30 47,29 47,28 47,27 47,26 46,25 46,24 46,23 45,23 45,22 44,22 44,21 43,20 42,20 42,19 41,19 40,18 39,18 38,18 38,17 37,17 36,17 35,17 34,17 34,16 33,16 32,16 31,16 30,16 29,16 28,16 27,16 26,16 25,16 25,17 24,17 23,17 22,17 22,18 21,18 20,19 19,19 19,20 18,20 18,21 18,22 17,22 17,23 17,24 16,25 16,26 16,27 16,28 16,29 16,30 16,31 16,32 16,33 16,34 17,34 17,35 17,36 18,36 18,37 19,37 19,38 20,38 20,39 21,39 22,39 22,40 23,40 24,40 25,40 26,40 27,40 28,40 28,41 29,41 30,41 31,41 32,41 33,41 34,41 35,40 36,40 37,40 38,39 39,39 40,39 40,38 41,38 42,37 43,37 43,36 44,36 44,35 45,35 45,34" fill="none" stroke="#8aff00" stroke-width="3" stroke-linecap="round" stroke-linejoin="round" opacity="0.95">
    <title>1559 c:1</title>
  </polyline>
</svg>
