<?xml version="1.0" encoding="UTF-8"?>
<svg xmlns="http://www.w3.org/2000/svg" width="56" height="64" viewBox="0 0 56 64">
  <title>atom 1565 c:1</title>
  <metadata>{&quot;entityType&quot;:&quot;atom&quot;,&quot;entityId&quot;:&quot;1565&quot;,&quot;token&quot;:&quot;c:1&quot;,&quot;signature&quot;:&quot;c:1&quot;,&quot;imageName&quot;:&quot;page-003.jpg&quot;,&quot;imageId&quot;:3,&quot;bounds&quot;:{&quot;x&quot;:1693,&quot;y&quot;:743,&quot;w&quot;:56,&quot;h&quot;:64},&quot;atoms&quot;:[{&quot;id&quot;:1565,&quot;token&quot;:&quot;c:1&quot;,&quot;particle_id&quot;:&quot;img3-m30-p1&quot;,&quot;molecule_id&quot;:&quot;img3-m30&quot;,&quot;atom_order&quot;:2}]}</metadata>
  <rect x="0" y="0" width="56" height="64" fill="#f8f0d8"/>
  <image href="file:///C:/Users/HHHES/AppData/Roaming/com.voynichlab.datasetcreator/images/1/35a70f63-88ab-4986-b441-b78046a10087.jpg" x="-1693" y="-743" width="2972" height="3766" opacity="0.92"/>
  <rect x="0.5" y="0.5" width="55" height="63" fill="none" stroke="#111827" stroke-width="1" opacity="0.35"/>
  <polyline points="24,48 25,48 25,47 26,47 27,47 28,46 29,46 29,45 30,45 31,45 31,44 32,44 32,43 33,43 34,42 34,41 35,41 35,40 36,40 36,39 37,39 37,38 37,37 38,37 38,36 39,36 39,35 39,34 40,34 40,33 40,32 40,31 40,30 40,29 40,28 40,27 40,26 40,25 39,25 39,24 39,23 39,22 38,21 38,20 38,19 37,19 37,18 36,18 35,18 35,17 34,17 33,17 32,17 31,17 31,16 30,16 29,16 29,17 28,17 27,17 26,17 25,17 25,18 24,18 23,18 22,19 21,19 21,20 20,20 20,21 19,21 19,22 19,23 18,23 18,24 18,25 17,25 17,26 17,27 16,27 16,28 16,29 16,30 16,31 16,32 16,33 16,34 16,35 16,36 16,37 16,38 17,38 17,39 17,40 17,41 18,41 18,42 19,42 19,43 19,44 20,44 20,45 21,45 21,46 22,46 22,47 23,47 24,47" fill="none" stroke="#8aff00" stroke-width="3" stroke-linecap="round" stroke-linejoin="round" opacity="0.95">
    <title>1565 c:1</title>
  </polyline>
</svg>
