<?xml version="1.0" encoding="UTF-8"?>
<svg xmlns="http://www.w3.org/2000/svg" width="59" height="57" viewBox="0 0 59 57">
  <title>atom 1574 c:1</title>
  <metadata>{&quot;entityType&quot;:&quot;atom&quot;,&quot;entityId&quot;:&quot;1574&quot;,&quot;token&quot;:&quot;c:1&quot;,&quot;signature&quot;:&quot;c:1&quot;,&quot;imageName&quot;:&quot;page-003.jpg&quot;,&quot;imageId&quot;:3,&quot;bounds&quot;:{&quot;x&quot;:1888,&quot;y&quot;:774,&quot;w&quot;:59,&quot;h&quot;:57},&quot;atoms&quot;:[{&quot;id&quot;:1574,&quot;token&quot;:&quot;c:1&quot;,&quot;particle_id&quot;:&quot;img3-m34-p1&quot;,&quot;molecule_id&quot;:&quot;img3-m34&quot;,&quot;atom_order&quot;:1}]}</metadata>
  <rect x="0" y="0" width="59" height="57" fill="#f8f0d8"/>
  <image href="file:///C:/Users/HHHES/AppData/Roaming/com.voynichlab.datasetcreator/images/1/35a70f63-88ab-4986-b441-b78046a10087.jpg" x="-1888" y="-774" width="2972" height="3766" opacity="0.92"/>
  <rect x="0.5" y="0.5" width="58" height="56" fill="none" stroke="#111827" stroke-width="1" opacity="0.35"/>
  <polyline points="25,40 26,40 27,40 28,40 29,40 30,40 30,39 31,39 32,39 33,39 34,38 35,38 36,38 37,38 37,37 38,37 39,36 40,36 40,35 41,35 41,34 42,33 42,32 43,31 43,30 43,29 43,28 43,27 43,26 43,25 43,24 42,23 42,22 42,21 41,21 41,20 40,20 40,19 39,19 38,19 38,18 37,18 36,17 35,17 34,16 33,16 32,16 31,16 30,16 29,16 28,16 27,16 26,16 25,16 24,17 23,17 22,18 21,18 21,19 20,19 20,20 20,21 19,21 19,22 18,22 18,23 17,24 17,25 16,25 16,26 16,27 16,28 16,29 16,30 16,31 16,32 16,33 17,33 17,34 17,35 18,35 18,36 19,36 19,37 20,37 20,38 21,38 21,39 22,39 23,39 23,40 24,40 25,40 25,41 26,41 27,41" fill="none" stroke="#8aff00" stroke-width="3" stroke-linecap="round" stroke-linejoin="round" opacity="0.95">
    <title>1574 c:1</title>
  </polyline>
</svg>
