<?xml version="1.0" encoding="UTF-8"?>
<svg xmlns="http://www.w3.org/2000/svg" width="67" height="60" viewBox="0 0 67 60">
  <title>atom 1689 c:1</title>
  <metadata>{&quot;entityType&quot;:&quot;atom&quot;,&quot;entityId&quot;:&quot;1689&quot;,&quot;token&quot;:&quot;c:1&quot;,&quot;signature&quot;:&quot;c:1&quot;,&quot;imageName&quot;:&quot;page-003.jpg&quot;,&quot;imageId&quot;:3,&quot;bounds&quot;:{&quot;x&quot;:1302,&quot;y&quot;:811,&quot;w&quot;:67,&quot;h&quot;:60},&quot;atoms&quot;:[{&quot;id&quot;:1689,&quot;token&quot;:&quot;c:1&quot;,&quot;particle_id&quot;:&quot;img3-m39-p1&quot;,&quot;molecule_id&quot;:&quot;img3-m39&quot;,&quot;atom_order&quot;:4}]}</metadata>
  <rect x="0" y="0" width="67" height="60" fill="#f8f0d8"/>
  <image href="file:///C:/Users/HHHES/AppData/Roaming/com.voynichlab.datasetcreator/images/1/35a70f63-88ab-4986-b441-b78046a10087.jpg" x="-1302" y="-811" width="2972" height="3766" opacity="0.92"/>
  <rect x="0.5" y="0.5" width="66" height="59" fill="none" stroke="#111827" stroke-width="1" opacity="0.35"/>
  <polyline points="16,44 17,44 18,44 19,44 20,44 21,44 22,44 23,44 24,44 25,44 26,44 27,44 28,44 29,44 30,44 30,43 31,43 32,43 33,43 33,42 34,42 35,42 36,41 37,41 37,40 38,40 39,40 39,39 40,39 41,39 41,38 42,38 43,38 43,37 44,37 45,36 46,36 46,35 47,35 47,34 48,34 48,33 49,33 49,32 50,32 50,31 51,30 51,29 51,28 51,27 51,26 51,25 51,24 51,23 51,22 51,21 50,21 50,20 50,19 49,19 48,18 47,17 46,17 45,17 45,16 44,16 43,16 42,16 41,16 40,16 39,16 38,16 37,16 36,16 35,16 34,16 33,16 32,16 31,16 30,17 29,17 28,17 27,17 26,17 25,17 25,18 24,18 24,19 23,19 22,19 22,20 21,20 21,21 20,21 20,22 19,22 19,23 19,24 18,24 18,25 17,25 17,26 17,27 17,28 16,28 16,29 16,30 16,31 16,32 16,33 16,34 16,35 16,36 16,37 16,38 16,39 16,40 16,41 16,42 16,43" fill="none" stroke="#8aff00" stroke-width="3" stroke-linecap="round" stroke-linejoin="round" opacity="0.95">
    <title>1689 c:1</title>
  </polyline>
</svg>
