<?xml version="1.0" encoding="UTF-8"?>
<svg xmlns="http://www.w3.org/2000/svg" width="56" height="52" viewBox="0 0 56 52">
  <title>atom 1736 c:1</title>
  <metadata>{&quot;entityType&quot;:&quot;atom&quot;,&quot;entityId&quot;:&quot;1736&quot;,&quot;token&quot;:&quot;c:1&quot;,&quot;signature&quot;:&quot;c:1&quot;,&quot;imageName&quot;:&quot;page-003.jpg&quot;,&quot;imageId&quot;:3,&quot;bounds&quot;:{&quot;x&quot;:2086,&quot;y&quot;:831,&quot;w&quot;:56,&quot;h&quot;:52},&quot;atoms&quot;:[{&quot;id&quot;:1736,&quot;token&quot;:&quot;c:1&quot;,&quot;particle_id&quot;:&quot;img3-m40-p2&quot;,&quot;molecule_id&quot;:&quot;img3-m40&quot;,&quot;atom_order&quot;:2}]}</metadata>
  <rect x="0" y="0" width="56" height="52" fill="#f8f0d8"/>
  <image href="file:///C:/Users/HHHES/AppData/Roaming/com.voynichlab.datasetcreator/images/1/35a70f63-88ab-4986-b441-b78046a10087.jpg" x="-2086" y="-831" width="2972" height="3766" opacity="0.92"/>
  <rect x="0.5" y="0.5" width="55" height="51" fill="none" stroke="#111827" stroke-width="1" opacity="0.35"/>
  <polyline points="17,22 17,21 18,20 19,20 19,18 21,18 21,17 22,17 23,17 23,16 24,16 25,16 26,16 27,16 29,16 30,16 31,16 32,16 33,16 34,16 34,17 35,17 35,18 37,18 38,18 38,20 39,21 39,22 39,23 40,23 40,24 40,25 40,27 40,28 40,29 39,29 39,30 38,30 38,31 37,32 35,34 34,34 34,35 33,35 32,35 32,36 31,36 30,36 29,36 27,36 26,36 25,36 24,36 23,35 22,35 22,34 21,34 21,32 19,32 18,31 18,30 17,30 17,29 17,28 16,28 16,27 16,25 16,24 16,23 16,22 17,22 17,21 18,21" fill="none" stroke="#8aff00" stroke-width="3" stroke-linecap="round" stroke-linejoin="round" opacity="0.95">
    <title>1736 c:1</title>
  </polyline>
</svg>
