<?xml version="1.0" encoding="UTF-8"?>
<svg xmlns="http://www.w3.org/2000/svg" width="50" height="49" viewBox="0 0 50 49">
  <title>atom 1759 c:1</title>
  <metadata>{&quot;entityType&quot;:&quot;atom&quot;,&quot;entityId&quot;:&quot;1759&quot;,&quot;token&quot;:&quot;c:1&quot;,&quot;signature&quot;:&quot;c:1&quot;,&quot;imageName&quot;:&quot;page-003.jpg&quot;,&quot;imageId&quot;:3,&quot;bounds&quot;:{&quot;x&quot;:764,&quot;y&quot;:1064,&quot;w&quot;:50,&quot;h&quot;:49},&quot;atoms&quot;:[{&quot;id&quot;:1759,&quot;token&quot;:&quot;c:1&quot;,&quot;particle_id&quot;:&quot;img3-m46-p1&quot;,&quot;molecule_id&quot;:&quot;img3-m46&quot;,&quot;atom_order&quot;:1}]}</metadata>
  <rect x="0" y="0" width="50" height="49" fill="#f8f0d8"/>
  <image href="file:///C:/Users/HHHES/AppData/Roaming/com.voynichlab.datasetcreator/images/1/35a70f63-88ab-4986-b441-b78046a10087.jpg" x="-764" y="-1064" width="2972" height="3766" opacity="0.92"/>
  <rect x="0.5" y="0.5" width="49" height="48" fill="none" stroke="#111827" stroke-width="1" opacity="0.35"/>
  <polyline points="18,21 18,22 17,22 17,23 17,24 16,24 16,25 16,26 16,26 16,27 16,28 16,29 16,30 17,30 17,31 18,31 18,32 19,32 20,32 20,32 21,32 21,33 22,33 23,33 24,33 25,33 26,33 27,33 27,33 28,33 28,32 29,32 30,32 30,32 30,31 31,31 31,30 32,30 32,29 32,28 33,28 33,27 33,26 34,26 34,26 34,25 34,24 34,23 34,22 34,21 33,21 33,20 33,19 32,19 32,19 31,19 31,18 30,18 30,17 29,17 28,17 28,16 27,16 27,16 26,16 25,16 24,16 23,16 22,16 21,17 20,17 20,18 20,18 20,19 19,19 18,19 18,19 17,19 17,20 17,21" fill="none" stroke="#8aff00" stroke-width="3" stroke-linecap="round" stroke-linejoin="round" opacity="0.95">
    <title>1759 c:1</title>
  </polyline>
</svg>
