<?xml version="1.0" encoding="UTF-8"?>
<svg xmlns="http://www.w3.org/2000/svg" width="60" height="56" viewBox="0 0 60 56">
  <title>atom 1821 c:1</title>
  <metadata>{&quot;entityType&quot;:&quot;atom&quot;,&quot;entityId&quot;:&quot;1821&quot;,&quot;token&quot;:&quot;c:1&quot;,&quot;signature&quot;:&quot;c:1&quot;,&quot;imageName&quot;:&quot;page-003.jpg&quot;,&quot;imageId&quot;:3,&quot;bounds&quot;:{&quot;x&quot;:1287,&quot;y&quot;:958,&quot;w&quot;:60,&quot;h&quot;:56},&quot;atoms&quot;:[{&quot;id&quot;:1821,&quot;token&quot;:&quot;c:1&quot;,&quot;particle_id&quot;:&quot;img3-m44-p1&quot;,&quot;molecule_id&quot;:&quot;img3-m44&quot;,&quot;atom_order&quot;:4}]}</metadata>
  <rect x="0" y="0" width="60" height="56" fill="#f8f0d8"/>
  <image href="file:///C:/Users/HHHES/AppData/Roaming/com.voynichlab.datasetcreator/images/1/35a70f63-88ab-4986-b441-b78046a10087.jpg" x="-1287" y="-958" width="2972" height="3766" opacity="0.92"/>
  <rect x="0.5" y="0.5" width="59" height="55" fill="none" stroke="#111827" stroke-width="1" opacity="0.35"/>
  <polyline points="19,40 20,40 20,40 20,39 21,39 22,39 23,39 24,39 25,39 26,39 27,39 27,39 28,38 29,38 30,38 31,38 31,37 32,37 33,37 34,37 34,36 34,36 35,36 36,35 37,35 38,35 38,34 39,34 40,34 40,33 41,33 41,32 41,32 41,31 42,31 42,30 43,30 43,30 43,29 44,28 44,27 44,26 44,25 44,24 44,23 44,22 44,21 43,21 43,21 42,20 42,19 41,19 41,18 41,18 40,18 40,17 39,17 38,17 37,17 36,16 35,16 34,16 34,16 33,16 32,16 31,16 30,16 29,16 28,16 27,16 27,17 27,17 26,17 25,17 25,18 24,18 23,18 23,19 22,19 21,19 21,20 20,20 20,21 20,21 20,21 19,21 19,22 18,22 18,23 18,24 18,25 17,25 17,26 17,27 17,28 17,29 16,29 16,30 16,30 16,31 16,32 16,33 16,34 17,34 17,35 17,36 18,36 18,37 18,38 19,38 19,39 20,39 20,40 20,40" fill="none" stroke="#8aff00" stroke-width="3" stroke-linecap="round" stroke-linejoin="round" opacity="0.95">
    <title>1821 c:1</title>
  </polyline>
</svg>
