<?xml version="1.0" encoding="UTF-8"?>
<svg xmlns="http://www.w3.org/2000/svg" width="53" height="52" viewBox="0 0 53 52">
  <title>atom 1840 c:1</title>
  <metadata>{&quot;entityType&quot;:&quot;atom&quot;,&quot;entityId&quot;:&quot;1840&quot;,&quot;token&quot;:&quot;c:1&quot;,&quot;signature&quot;:&quot;c:1&quot;,&quot;imageName&quot;:&quot;page-003.jpg&quot;,&quot;imageId&quot;:3,&quot;bounds&quot;:{&quot;x&quot;:1511,&quot;y&quot;:1040,&quot;w&quot;:53,&quot;h&quot;:52},&quot;atoms&quot;:[{&quot;id&quot;:1840,&quot;token&quot;:&quot;c:1&quot;,&quot;particle_id&quot;:&quot;img3-m45-p2&quot;,&quot;molecule_id&quot;:&quot;img3-m45&quot;,&quot;atom_order&quot;:4}]}</metadata>
  <rect x="0" y="0" width="53" height="52" fill="#f8f0d8"/>
  <image href="file:///C:/Users/HHHES/AppData/Roaming/com.voynichlab.datasetcreator/images/1/35a70f63-88ab-4986-b441-b78046a10087.jpg" x="-1511" y="-1040" width="2972" height="3766" opacity="0.92"/>
  <rect x="0.5" y="0.5" width="52" height="51" fill="none" stroke="#111827" stroke-width="1" opacity="0.35"/>
  <polyline points="22,34 23,34 23,35 24,35 25,35 25,36 26,36 27,36 28,36 29,36 29,35 30,35 31,35 31,34 32,34 32,33 33,33 33,32 34,32 34,31 34,30 35,30 35,29 36,29 36,28 36,27 36,26 36,25 37,25 37,24 37,23 36,22 36,21 36,20 35,20 35,19 34,19 34,18 33,18 32,18 32,17 31,17 30,17 29,17 28,17 28,16 27,16 26,16 25,16 24,16 24,17 23,17 22,17 22,18 21,18 20,19 19,19 19,20 18,20 18,21 18,22 17,22 17,23 17,24 17,25 16,25 16,26 16,27 16,28 17,28 17,29 17,30 18,30 18,31 18,32 19,32 19,33 20,33 20,34 21,34 22,34 22,35 23,35" fill="none" stroke="#8aff00" stroke-width="3" stroke-linecap="round" stroke-linejoin="round" opacity="0.95">
    <title>1840 c:1</title>
  </polyline>
</svg>
