<?xml version="1.0" encoding="UTF-8"?>
<svg xmlns="http://www.w3.org/2000/svg" width="53" height="53" viewBox="0 0 53 53">
  <title>atom 1881 c:1</title>
  <metadata>{&quot;entityType&quot;:&quot;atom&quot;,&quot;entityId&quot;:&quot;1881&quot;,&quot;token&quot;:&quot;c:1&quot;,&quot;signature&quot;:&quot;c:1&quot;,&quot;imageName&quot;:&quot;page-003.jpg&quot;,&quot;imageId&quot;:3,&quot;bounds&quot;:{&quot;x&quot;:2177,&quot;y&quot;:1072,&quot;w&quot;:53,&quot;h&quot;:53},&quot;atoms&quot;:[{&quot;id&quot;:1881,&quot;token&quot;:&quot;c:1&quot;,&quot;particle_id&quot;:&quot;img3-m49-p3&quot;,&quot;molecule_id&quot;:&quot;img3-m49&quot;,&quot;atom_order&quot;:1}]}</metadata>
  <rect x="0" y="0" width="53" height="53" fill="#f8f0d8"/>
  <image href="file:///C:/Users/HHHES/AppData/Roaming/com.voynichlab.datasetcreator/images/1/35a70f63-88ab-4986-b441-b78046a10087.jpg" x="-2177" y="-1072" width="2972" height="3766" opacity="0.92"/>
  <rect x="0.5" y="0.5" width="52" height="52" fill="none" stroke="#111827" stroke-width="1" opacity="0.35"/>
  <polyline points="27,36 27,37 26,37 25,37 24,37 23,37 22,37 22,36 21,36 20,36 20,35 19,35 18,34 17,33 17,32 16,32 16,31 16,30 16,29 16,28 16,27 16,26 16,25 16,24 17,24 17,23 18,23 18,22 19,22 19,21 20,21 20,20 21,20 21,19 22,19 22,18 23,18 24,18 24,17 25,17 26,17 26,16 27,16 28,16 29,16 30,16 31,16 32,16 33,16 34,16 34,17 35,17 35,18 36,18 36,19 37,19 37,20 37,21 37,22 37,23 37,24 37,25 37,26 37,27 37,28 36,29 36,30 35,30 35,31 34,31 34,32 33,32 33,33 32,33 31,33 31,34 30,34 30,35 29,35 28,35 28,36 27,36 26,36" fill="none" stroke="#8aff00" stroke-width="3" stroke-linecap="round" stroke-linejoin="round" opacity="0.95">
    <title>1881 c:1</title>
  </polyline>
</svg>
