<?xml version="1.0" encoding="UTF-8"?>
<svg xmlns="http://www.w3.org/2000/svg" width="52" height="51" viewBox="0 0 52 51">
  <title>atom 1905 c:1</title>
  <metadata>{&quot;entityType&quot;:&quot;atom&quot;,&quot;entityId&quot;:&quot;1905&quot;,&quot;token&quot;:&quot;c:1&quot;,&quot;signature&quot;:&quot;c:1&quot;,&quot;imageName&quot;:&quot;page-003.jpg&quot;,&quot;imageId&quot;:3,&quot;bounds&quot;:{&quot;x&quot;:826,&quot;y&quot;:1154,&quot;w&quot;:52,&quot;h&quot;:51},&quot;atoms&quot;:[{&quot;id&quot;:1905,&quot;token&quot;:&quot;c:1&quot;,&quot;particle_id&quot;:&quot;img3-m56-p3&quot;,&quot;molecule_id&quot;:&quot;img3-m56&quot;,&quot;atom_order&quot;:1}]}</metadata>
  <rect x="0" y="0" width="52" height="51" fill="#f8f0d8"/>
  <image href="file:///C:/Users/HHHES/AppData/Roaming/com.voynichlab.datasetcreator/images/1/35a70f63-88ab-4986-b441-b78046a10087.jpg" x="-826" y="-1154" width="2972" height="3766" opacity="0.92"/>
  <rect x="0.5" y="0.5" width="51" height="50" fill="none" stroke="#111827" stroke-width="1" opacity="0.35"/>
  <polyline points="22,35 21,35 20,35 19,34 18,34 18,33 17,33 17,32 17,31 16,31 16,30 16,29 16,28 16,27 16,26 16,25 16,24 16,23 17,23 17,22 17,21 18,21 18,20 19,20 19,19 20,19 21,19 21,18 22,18 23,18 23,17 24,17 25,17 25,16 26,16 27,16 28,16 29,16 30,16 31,16 32,16 32,17 33,17 34,17 34,18 35,19 35,20 35,21 36,22 36,23 36,24 36,25 35,26 35,27 35,28 34,28 33,29 32,29 32,30 31,30 31,31 30,31 30,32 29,32 28,32 28,33 27,33 26,33 26,34 25,34 24,34 24,35 23,35 22,35 21,35 20,35" fill="none" stroke="#8aff00" stroke-width="3" stroke-linecap="round" stroke-linejoin="round" opacity="0.95">
    <title>1905 c:1</title>
  </polyline>
</svg>
