<?xml version="1.0" encoding="UTF-8"?>
<svg xmlns="http://www.w3.org/2000/svg" width="55" height="51" viewBox="0 0 55 51">
  <title>atom 1914 c:1</title>
  <metadata>{&quot;entityType&quot;:&quot;atom&quot;,&quot;entityId&quot;:&quot;1914&quot;,&quot;token&quot;:&quot;c:1&quot;,&quot;signature&quot;:&quot;c:1&quot;,&quot;imageName&quot;:&quot;page-003.jpg&quot;,&quot;imageId&quot;:3,&quot;bounds&quot;:{&quot;x&quot;:1562,&quot;y&quot;:1098,&quot;w&quot;:55,&quot;h&quot;:51},&quot;atoms&quot;:[{&quot;id&quot;:1914,&quot;token&quot;:&quot;c:1&quot;,&quot;particle_id&quot;:&quot;img3-m54-p3&quot;,&quot;molecule_id&quot;:&quot;img3-m54&quot;,&quot;atom_order&quot;:5}]}</metadata>
  <rect x="0" y="0" width="55" height="51" fill="#f8f0d8"/>
  <image href="file:///C:/Users/HHHES/AppData/Roaming/com.voynichlab.datasetcreator/images/1/35a70f63-88ab-4986-b441-b78046a10087.jpg" x="-1562" y="-1098" width="2972" height="3766" opacity="0.92"/>
  <rect x="0.5" y="0.5" width="54" height="50" fill="none" stroke="#111827" stroke-width="1" opacity="0.35"/>
  <polyline points="19,35 20,35 21,35 22,35 23,34 24,34 25,34 26,34 27,34 28,34 29,34 29,33 30,33 31,33 32,33 32,32 33,32 34,32 34,31 35,31 35,30 36,30 37,29 37,28 38,28 38,27 38,26 39,26 39,25 39,24 39,23 39,22 39,21 38,21 38,20 38,19 37,19 37,18 37,17 36,17 35,17 35,16 34,16 33,16 32,16 31,16 30,16 29,16 28,16 27,16 26,16 25,17 24,17 23,17 22,17 21,17 21,18 20,18 20,19 19,19 19,20 18,21 18,22 17,22 17,23 17,24 16,24 16,25 16,26 16,27 16,28 16,29 16,30 16,31 16,32 16,33 17,34 17,35 18,35 19,35" fill="none" stroke="#8aff00" stroke-width="3" stroke-linecap="round" stroke-linejoin="round" opacity="0.95">
    <title>1914 c:1</title>
  </polyline>
</svg>
