<?xml version="1.0" encoding="UTF-8"?>
<svg xmlns="http://www.w3.org/2000/svg" width="52" height="49" viewBox="0 0 52 49">
  <title>atom 1917 c:1</title>
  <metadata>{&quot;entityType&quot;:&quot;atom&quot;,&quot;entityId&quot;:&quot;1917&quot;,&quot;token&quot;:&quot;c:1&quot;,&quot;signature&quot;:&quot;c:1&quot;,&quot;imageName&quot;:&quot;page-003.jpg&quot;,&quot;imageId&quot;:3,&quot;bounds&quot;:{&quot;x&quot;:1882,&quot;y&quot;:1135,&quot;w&quot;:52,&quot;h&quot;:49},&quot;atoms&quot;:[{&quot;id&quot;:1917,&quot;token&quot;:&quot;c:1&quot;,&quot;particle_id&quot;:&quot;img3-m51-p1&quot;,&quot;molecule_id&quot;:&quot;img3-m51&quot;,&quot;atom_order&quot;:2}]}</metadata>
  <rect x="0" y="0" width="52" height="49" fill="#f8f0d8"/>
  <image href="file:///C:/Users/HHHES/AppData/Roaming/com.voynichlab.datasetcreator/images/1/35a70f63-88ab-4986-b441-b78046a10087.jpg" x="-1882" y="-1135" width="2972" height="3766" opacity="0.92"/>
  <rect x="0.5" y="0.5" width="51" height="48" fill="none" stroke="#111827" stroke-width="1" opacity="0.35"/>
  <polyline points="18,21 18,22 17,22 17,22 17,23 16,23 16,24 16,25 16,26 16,26 16,27 16,28 16,29 17,29 17,30 18,30 18,31 19,32 20,32 21,32 22,32 22,33 23,33 24,33 25,33 26,33 27,33 28,33 29,33 30,33 30,32 31,32 32,32 32,31 32,30 33,30 33,29 34,29 34,28 34,27 35,27 35,26 35,26 36,26 36,25 36,24 36,23 36,22 36,22 36,21 35,21 35,20 35,19 34,19 34,19 33,19 33,18 32,18 32,17 31,17 30,17 30,16 29,16 28,16 27,16 26,16 25,16 24,16 23,16 22,17 21,17 21,18 20,18 20,19 19,19 18,19 18,19 17,19 17,20 17,21" fill="none" stroke="#8aff00" stroke-width="3" stroke-linecap="round" stroke-linejoin="round" opacity="0.95">
    <title>1917 c:1</title>
  </polyline>
</svg>
