<?xml version="1.0" encoding="UTF-8"?>
<svg xmlns="http://www.w3.org/2000/svg" width="52" height="56" viewBox="0 0 52 56">
  <title>atom 1922 c:1</title>
  <metadata>{&quot;entityType&quot;:&quot;atom&quot;,&quot;entityId&quot;:&quot;1922&quot;,&quot;token&quot;:&quot;c:1&quot;,&quot;signature&quot;:&quot;c:1&quot;,&quot;imageName&quot;:&quot;page-003.jpg&quot;,&quot;imageId&quot;:3,&quot;bounds&quot;:{&quot;x&quot;:2262,&quot;y&quot;:1102,&quot;w&quot;:52,&quot;h&quot;:56},&quot;atoms&quot;:[{&quot;id&quot;:1922,&quot;token&quot;:&quot;c:1&quot;,&quot;particle_id&quot;:&quot;img3-m50-p1&quot;,&quot;molecule_id&quot;:&quot;img3-m50&quot;,&quot;atom_order&quot;:3}]}</metadata>
  <rect x="0" y="0" width="52" height="56" fill="#f8f0d8"/>
  <image href="file:///C:/Users/HHHES/AppData/Roaming/com.voynichlab.datasetcreator/images/1/35a70f63-88ab-4986-b441-b78046a10087.jpg" x="-2262" y="-1102" width="2972" height="3766" opacity="0.92"/>
  <rect x="0.5" y="0.5" width="51" height="55" fill="none" stroke="#111827" stroke-width="1" opacity="0.35"/>
  <polyline points="24,40 21,39 20,38 19,38 19,37 18,37 18,36 18,35 17,34 17,33 16,33 16,32 16,31 16,30 16,29 16,28 16,27 16,26 16,25 16,24 16,23 16,22 17,22 17,21 17,20 18,20 18,19 19,19 19,18 20,18 20,17 21,17 22,17 22,16 23,16 24,16 25,16 26,16 27,16 28,16 29,16 30,16 31,16 32,17 33,17 34,18 34,19 35,19 35,20 36,21 36,22 36,23 36,24 36,25 36,26 36,27 36,28 36,29 36,30 36,31 36,32 36,33 35,33 35,34 34,34 33,35 32,35 32,36 31,36 31,37 30,37 29,37 29,38 28,38 27,38 26,38 26,39 25,39 24,39 23,39 22,39" fill="none" stroke="#8aff00" stroke-width="3" stroke-linecap="round" stroke-linejoin="round" opacity="0.95">
    <title>1922 c:1</title>
  </polyline>
</svg>
