<?xml version="1.0" encoding="UTF-8"?>
<svg xmlns="http://www.w3.org/2000/svg" width="58" height="54" viewBox="0 0 58 54">
  <title>atom 2072 c:1</title>
  <metadata>{&quot;entityType&quot;:&quot;atom&quot;,&quot;entityId&quot;:&quot;2072&quot;,&quot;token&quot;:&quot;c:1&quot;,&quot;signature&quot;:&quot;c:1&quot;,&quot;imageName&quot;:&quot;page-003.jpg&quot;,&quot;imageId&quot;:3,&quot;bounds&quot;:{&quot;x&quot;:2118,&quot;y&quot;:1192,&quot;w&quot;:58,&quot;h&quot;:54},&quot;atoms&quot;:[{&quot;id&quot;:2072,&quot;token&quot;:&quot;c:1&quot;,&quot;particle_id&quot;:&quot;img3-m60-p1&quot;,&quot;molecule_id&quot;:&quot;img3-m60&quot;,&quot;atom_order&quot;:4}]}</metadata>
  <rect x="0" y="0" width="58" height="54" fill="#f8f0d8"/>
  <image href="file:///C:/Users/HHHES/AppData/Roaming/com.voynichlab.datasetcreator/images/1/35a70f63-88ab-4986-b441-b78046a10087.jpg" x="-2118" y="-1192" width="2972" height="3766" opacity="0.92"/>
  <rect x="0.5" y="0.5" width="57" height="53" fill="none" stroke="#111827" stroke-width="1" opacity="0.35"/>
  <polyline points="39,34 39,33 40,33 40,32 41,32 41,31 41,30 42,30 42,29 42,28 42,27 42,26 42,25 42,24 42,23 42,22 41,22 41,21 41,20 40,20 40,19 39,19 39,18 38,18 37,18 36,18 36,17 35,17 34,17 33,17 33,16 32,16 31,16 30,16 29,16 28,16 27,16 27,17 26,17 25,17 24,18 23,18 23,19 22,19 22,20 21,20 21,21 20,21 20,22 19,22 19,23 18,23 18,24 17,24 17,25 17,26 17,27 16,27 16,28 16,29 16,30 16,31 16,32 16,33 16,34 16,35 17,36 18,36 18,37 19,37 20,37 20,38 21,38 22,38 23,38 24,38 25,38 26,38 27,38 28,38 29,38 30,38 31,38 31,37 32,37 33,37 34,37 34,36 35,36 36,36 37,35 38,35 38,34 39,34" fill="none" stroke="#8aff00" stroke-width="3" stroke-linecap="round" stroke-linejoin="round" opacity="0.95">
    <title>2072 c:1</title>
  </polyline>
</svg>
