<?xml version="1.0" encoding="UTF-8"?>
<svg xmlns="http://www.w3.org/2000/svg" width="52" height="50" viewBox="0 0 52 50">
  <title>atom 2087 c:1</title>
  <metadata>{&quot;entityType&quot;:&quot;atom&quot;,&quot;entityId&quot;:&quot;2087&quot;,&quot;token&quot;:&quot;c:1&quot;,&quot;signature&quot;:&quot;c:1&quot;,&quot;imageName&quot;:&quot;page-003.jpg&quot;,&quot;imageId&quot;:3,&quot;bounds&quot;:{&quot;x&quot;:1843,&quot;y&quot;:1221,&quot;w&quot;:52,&quot;h&quot;:50},&quot;atoms&quot;:[{&quot;id&quot;:2087,&quot;token&quot;:&quot;c:1&quot;,&quot;particle_id&quot;:&quot;img3-m61-p1&quot;,&quot;molecule_id&quot;:&quot;img3-m61&quot;,&quot;atom_order&quot;:2}]}</metadata>
  <rect x="0" y="0" width="52" height="50" fill="#f8f0d8"/>
  <image href="file:///C:/Users/HHHES/AppData/Roaming/com.voynichlab.datasetcreator/images/1/35a70f63-88ab-4986-b441-b78046a10087.jpg" x="-1843" y="-1221" width="2972" height="3766" opacity="0.92"/>
  <rect x="0.5" y="0.5" width="51" height="49" fill="none" stroke="#111827" stroke-width="1" opacity="0.35"/>
  <polyline points="23,34 24,34 26,34 26,33 28,33 29,33 30,32 31,32 31,31 31,31 31,31 32,31 32,30 33,30 33,29 35,29 35,27 35,26 36,26 36,25 36,24 36,23 36,23 36,22 36,21 36,20 35,20 35,19 35,18 33,18 32,18 32,16 31,16 31,16 30,16 29,16 28,16 26,16 24,16 23,16 22,16 21,16 21,18 21,18 19,18 19,19 18,19 18,20 17,20 17,21 16,21 16,22 16,23 16,23 16,24 16,25 16,26 16,27 16,29 17,29 17,30 18,30 18,31 18,31 19,31 19,32 21,32 21,33 21,33 22,33 22,34 23,34" fill="none" stroke="#8aff00" stroke-width="3" stroke-linecap="round" stroke-linejoin="round" opacity="0.95">
    <title>2087 c:1</title>
  </polyline>
</svg>
