<?xml version="1.0" encoding="UTF-8"?>
<svg xmlns="http://www.w3.org/2000/svg" width="59" height="52" viewBox="0 0 59 52">
  <title>atom 2164 c:1</title>
  <metadata>{&quot;entityType&quot;:&quot;atom&quot;,&quot;entityId&quot;:&quot;2164&quot;,&quot;token&quot;:&quot;c:1&quot;,&quot;signature&quot;:&quot;c:1&quot;,&quot;imageName&quot;:&quot;page-003.jpg&quot;,&quot;imageId&quot;:3,&quot;bounds&quot;:{&quot;x&quot;:1373,&quot;y&quot;:1416,&quot;w&quot;:59,&quot;h&quot;:52},&quot;atoms&quot;:[{&quot;id&quot;:2164,&quot;token&quot;:&quot;c:1&quot;,&quot;particle_id&quot;:&quot;img3-m67-p1&quot;,&quot;molecule_id&quot;:&quot;img3-m67&quot;,&quot;atom_order&quot;:5}]}</metadata>
  <rect x="0" y="0" width="59" height="52" fill="#f8f0d8"/>
  <image href="file:///C:/Users/HHHES/AppData/Roaming/com.voynichlab.datasetcreator/images/1/35a70f63-88ab-4986-b441-b78046a10087.jpg" x="-1373" y="-1416" width="2972" height="3766" opacity="0.92"/>
  <rect x="0.5" y="0.5" width="58" height="51" fill="none" stroke="#111827" stroke-width="1" opacity="0.35"/>
  <polyline points="40,30 40,29 41,29 41,28 41,27 42,27 42,26 42,25 43,25 43,24 43,23 43,22 43,21 43,20 42,20 42,19 41,19 41,18 40,18 40,17 39,17 38,17 38,16 37,16 36,16 35,16 34,16 33,16 32,16 31,16 31,17 30,17 29,17 28,17 27,17 27,18 26,18 25,18 24,19 23,19 23,20 22,20 21,21 20,21 20,22 19,22 19,23 19,24 18,24 18,25 18,26 17,26 17,27 16,27 16,28 16,29 16,30 16,31 16,32 16,33 17,33 17,34 18,34 18,35 19,35 20,35 21,36 22,36 23,36 24,36 25,36 26,36 26,35 27,35 28,35 29,34 30,34 31,34 31,33 32,33 33,33 34,33 34,32 35,32 36,32 36,31 37,31 38,31 39,31 39,30 40,30" fill="none" stroke="#8aff00" stroke-width="3" stroke-linecap="round" stroke-linejoin="round" opacity="0.95">
    <title>2164 c:1</title>
  </polyline>
</svg>
