<?xml version="1.0" encoding="UTF-8"?>
<svg xmlns="http://www.w3.org/2000/svg" width="59" height="55" viewBox="0 0 59 55">
  <title>atom 2229 c:1</title>
  <metadata>{&quot;entityType&quot;:&quot;atom&quot;,&quot;entityId&quot;:&quot;2229&quot;,&quot;token&quot;:&quot;c:1&quot;,&quot;signature&quot;:&quot;c:1&quot;,&quot;imageName&quot;:&quot;page-003.jpg&quot;,&quot;imageId&quot;:3,&quot;bounds&quot;:{&quot;x&quot;:604,&quot;y&quot;:1543,&quot;w&quot;:59,&quot;h&quot;:55},&quot;atoms&quot;:[{&quot;id&quot;:2229,&quot;token&quot;:&quot;c:1&quot;,&quot;particle_id&quot;:&quot;img3-m84-p2&quot;,&quot;molecule_id&quot;:&quot;img3-m84&quot;,&quot;atom_order&quot;:3}]}</metadata>
  <rect x="0" y="0" width="59" height="55" fill="#f8f0d8"/>
  <image href="file:///C:/Users/HHHES/AppData/Roaming/com.voynichlab.datasetcreator/images/1/35a70f63-88ab-4986-b441-b78046a10087.jpg" x="-604" y="-1543" width="2972" height="3766" opacity="0.92"/>
  <rect x="0.5" y="0.5" width="58" height="54" fill="none" stroke="#111827" stroke-width="1" opacity="0.35"/>
  <polyline points="42,30 42,29 43,29 43,28 43,27 43,26 43,25 43,24 43,23 42,22 42,21 41,21 41,20 40,20 40,19 39,19 39,18 38,18 37,18 37,17 36,17 35,17 34,16 33,16 32,16 31,16 30,16 29,16 29,17 28,17 27,17 26,17 25,18 24,18 24,19 23,19 22,19 22,20 21,20 21,21 20,21 20,22 19,22 19,23 18,23 18,24 18,25 17,26 17,27 17,28 16,28 16,29 16,30 16,31 16,32 16,33 16,34 16,35 16,36 16,37 17,37 17,38 18,38 19,38 20,38 21,38 21,39 22,39 23,39 24,39 25,39 26,39 27,39 27,38 28,38 29,38 30,37 31,37 32,37 32,36 33,36 33,35 34,35 35,35 35,34 36,34 37,34 37,33 38,33 39,33 39,32 40,32 40,31 41,31 41,30 42,30 42,29 43,29" fill="none" stroke="#8aff00" stroke-width="3" stroke-linecap="round" stroke-linejoin="round" opacity="0.95">
    <title>2229 c:1</title>
  </polyline>
</svg>
