<?xml version="1.0" encoding="UTF-8"?>
<svg xmlns="http://www.w3.org/2000/svg" width="59" height="56" viewBox="0 0 59 56">
  <title>atom 2238 c:1</title>
  <metadata>{&quot;entityType&quot;:&quot;atom&quot;,&quot;entityId&quot;:&quot;2238&quot;,&quot;token&quot;:&quot;c:1&quot;,&quot;signature&quot;:&quot;c:1&quot;,&quot;imageName&quot;:&quot;page-003.jpg&quot;,&quot;imageId&quot;:3,&quot;bounds&quot;:{&quot;x&quot;:799,&quot;y&quot;:1529,&quot;w&quot;:59,&quot;h&quot;:56},&quot;atoms&quot;:[{&quot;id&quot;:2238,&quot;token&quot;:&quot;c:1&quot;,&quot;particle_id&quot;:&quot;img3-m73-p1&quot;,&quot;molecule_id&quot;:&quot;img3-m73&quot;,&quot;atom_order&quot;:3}]}</metadata>
  <rect x="0" y="0" width="59" height="56" fill="#f8f0d8"/>
  <image href="file:///C:/Users/HHHES/AppData/Roaming/com.voynichlab.datasetcreator/images/1/35a70f63-88ab-4986-b441-b78046a10087.jpg" x="-799" y="-1529" width="2972" height="3766" opacity="0.92"/>
  <rect x="0.5" y="0.5" width="58" height="55" fill="none" stroke="#111827" stroke-width="1" opacity="0.35"/>
  <polyline points="35,37 36,37 36,36 37,36 38,36 38,35 39,35 39,34 40,34 41,33 41,32 42,32 42,31 42,30 43,30 43,29 43,28 43,27 43,26 43,25 43,24 43,23 43,22 42,22 42,21 42,20 41,20 41,19 40,19 39,18 38,18 37,17 36,17 35,17 34,17 33,17 32,16 31,16 30,16 30,17 29,17 28,17 27,18 26,18 25,18 25,19 24,19 23,20 22,20 22,21 21,21 20,21 20,22 19,22 19,23 18,23 18,24 18,25 17,26 17,27 17,28 16,28 16,29 16,30 16,31 16,32 16,33 16,34 16,35 16,36 16,37 17,37 18,37 18,38 19,38 19,39 20,39 21,39 22,40 23,40 24,40 25,40 26,40 27,40 27,39 28,39 29,39 30,39 31,39 32,39 32,38 33,38 34,38 35,38 35,37 36,37" fill="none" stroke="#8aff00" stroke-width="3" stroke-linecap="round" stroke-linejoin="round" opacity="0.95">
    <title>2238 c:1</title>
  </polyline>
</svg>
