<?xml version="1.0" encoding="UTF-8"?>
<svg xmlns="http://www.w3.org/2000/svg" width="61" height="55" viewBox="0 0 61 55">
  <title>atom 2270 c:1</title>
  <metadata>{&quot;entityType&quot;:&quot;atom&quot;,&quot;entityId&quot;:&quot;2270&quot;,&quot;token&quot;:&quot;c:1&quot;,&quot;signature&quot;:&quot;c:1&quot;,&quot;imageName&quot;:&quot;page-003.jpg&quot;,&quot;imageId&quot;:3,&quot;bounds&quot;:{&quot;x&quot;:1322,&quot;y&quot;:1530,&quot;w&quot;:61,&quot;h&quot;:55},&quot;atoms&quot;:[{&quot;id&quot;:2270,&quot;token&quot;:&quot;c:1&quot;,&quot;particle_id&quot;:&quot;img3-m77-p2&quot;,&quot;molecule_id&quot;:&quot;img3-m77&quot;,&quot;atom_order&quot;:4}]}</metadata>
  <rect x="0" y="0" width="61" height="55" fill="#f8f0d8"/>
  <image href="file:///C:/Users/HHHES/AppData/Roaming/com.voynichlab.datasetcreator/images/1/35a70f63-88ab-4986-b441-b78046a10087.jpg" x="-1322" y="-1530" width="2972" height="3766" opacity="0.92"/>
  <rect x="0.5" y="0.5" width="60" height="54" fill="none" stroke="#111827" stroke-width="1" opacity="0.35"/>
  <polyline points="38,35 41,33 42,32 42,31 43,31 43,30 44,30 44,29 44,28 44,27 44,26 44,25 44,24 45,23 45,22 45,21 44,21 44,20 43,19 42,19 42,18 41,18 40,18 40,17 39,17 38,16 37,16 36,16 35,16 34,16 33,16 32,16 31,16 30,16 29,16 29,17 28,17 27,17 26,18 25,18 24,18 24,19 23,19 23,20 22,20 22,21 21,21 20,22 20,23 19,23 19,24 18,24 18,25 18,26 17,26 17,27 17,28 16,28 16,29 16,30 16,31 16,32 16,33 16,34 16,35 16,36 17,36 17,37 18,37 18,38 19,38 20,38 21,38 22,38 23,38 24,39 25,39 26,39 27,39 28,39 28,38 29,38 30,38 31,38 32,38 32,37 33,37 34,37 34,36 35,36 36,36 37,36 37,35 38,35" fill="none" stroke="#8aff00" stroke-width="3" stroke-linecap="round" stroke-linejoin="round" opacity="0.95">
    <title>2270 c:1</title>
  </polyline>
</svg>
