<?xml version="1.0" encoding="UTF-8"?>
<svg xmlns="http://www.w3.org/2000/svg" width="57" height="55" viewBox="0 0 57 55">
  <title>atom 2282 c:1</title>
  <metadata>{&quot;entityType&quot;:&quot;atom&quot;,&quot;entityId&quot;:&quot;2282&quot;,&quot;token&quot;:&quot;c:1&quot;,&quot;signature&quot;:&quot;c:1&quot;,&quot;imageName&quot;:&quot;page-003.jpg&quot;,&quot;imageId&quot;:3,&quot;bounds&quot;:{&quot;x&quot;:1564,&quot;y&quot;:1524,&quot;w&quot;:57,&quot;h&quot;:55},&quot;atoms&quot;:[{&quot;id&quot;:2282,&quot;token&quot;:&quot;c:1&quot;,&quot;particle_id&quot;:&quot;img3-m76-p2&quot;,&quot;molecule_id&quot;:&quot;img3-m76&quot;,&quot;atom_order&quot;:3}]}</metadata>
  <rect x="0" y="0" width="57" height="55" fill="#f8f0d8"/>
  <image href="file:///C:/Users/HHHES/AppData/Roaming/com.voynichlab.datasetcreator/images/1/35a70f63-88ab-4986-b441-b78046a10087.jpg" x="-1564" y="-1524" width="2972" height="3766" opacity="0.92"/>
  <rect x="0.5" y="0.5" width="56" height="54" fill="none" stroke="#111827" stroke-width="1" opacity="0.35"/>
  <polyline points="39,30 40,30 40,29 40,28 40,27 40,26 40,25 40,24 39,24 39,23 39,22 38,22 38,21 38,20 37,20 37,19 36,19 36,18 35,18 35,17 34,17 33,17 32,17 31,17 31,16 30,16 29,16 28,16 27,16 26,17 25,17 24,17 24,18 23,18 22,19 21,19 21,20 20,20 20,21 19,21 19,22 19,23 18,23 18,24 18,25 17,25 17,26 17,27 17,28 16,28 16,29 16,30 16,31 16,32 16,33 16,34 16,35 16,36 16,37 17,37 17,38 18,38 19,38 20,39 21,39 22,39 23,39 24,39 25,39 26,39 27,39 28,39 28,38 29,38 30,38 31,38 31,37 32,37 32,36 33,36 33,35 34,35 35,35 35,34 36,34 37,34 38,34 38,33 39,33 39,32 39,31 40,31 40,30 40,29 40,28 41,28" fill="none" stroke="#8aff00" stroke-width="3" stroke-linecap="round" stroke-linejoin="round" opacity="0.95">
    <title>2282 c:1</title>
  </polyline>
</svg>
