<?xml version="1.0" encoding="UTF-8"?>
<svg xmlns="http://www.w3.org/2000/svg" width="62" height="57" viewBox="0 0 62 57">
  <title>atom 2315 c:1</title>
  <metadata>{&quot;entityType&quot;:&quot;atom&quot;,&quot;entityId&quot;:&quot;2315&quot;,&quot;token&quot;:&quot;c:1&quot;,&quot;signature&quot;:&quot;c:1&quot;,&quot;imageName&quot;:&quot;page-003.jpg&quot;,&quot;imageId&quot;:3,&quot;bounds&quot;:{&quot;x&quot;:2064,&quot;y&quot;:1537,&quot;w&quot;:62,&quot;h&quot;:57},&quot;atoms&quot;:[{&quot;id&quot;:2315,&quot;token&quot;:&quot;c:1&quot;,&quot;particle_id&quot;:&quot;img3-m75-p2&quot;,&quot;molecule_id&quot;:&quot;img3-m75&quot;,&quot;atom_order&quot;:5}]}</metadata>
  <rect x="0" y="0" width="62" height="57" fill="#f8f0d8"/>
  <image href="file:///C:/Users/HHHES/AppData/Roaming/com.voynichlab.datasetcreator/images/1/35a70f63-88ab-4986-b441-b78046a10087.jpg" x="-2064" y="-1537" width="2972" height="3766" opacity="0.92"/>
  <rect x="0.5" y="0.5" width="61" height="56" fill="none" stroke="#111827" stroke-width="1" opacity="0.35"/>
  <polyline points="45,32 45,31 45,30 45,29 45,28 45,27 45,26 45,25 44,25 44,24 44,23 43,22 43,21 42,21 42,20 41,20 41,19 40,18 39,18 39,17 38,17 37,17 36,16 35,16 34,16 33,16 32,16 31,16 30,16 29,16 28,16 27,16 26,17 25,17 25,18 24,18 24,19 23,20 22,21 21,21 21,22 20,22 20,23 19,24 19,25 18,25 18,26 17,26 17,27 17,28 16,28 16,29 16,30 16,31 16,32 16,33 16,34 16,35 17,35 17,36 17,37 18,37 18,38 19,38 19,39 20,39 20,40 21,40 22,40 22,41 23,41 24,41 25,41 26,41 27,41 28,41 29,40 30,40 31,40 32,40 32,39 33,39 34,39 35,38 36,38 37,37 38,37 39,36 40,36 40,35 41,35 42,34 43,33 44,33 44,32 45,31 45,30 46,30" fill="none" stroke="#8aff00" stroke-width="3" stroke-linecap="round" stroke-linejoin="round" opacity="0.95">
    <title>2315 c:1</title>
  </polyline>
</svg>
