<?xml version="1.0" encoding="UTF-8"?>
<svg xmlns="http://www.w3.org/2000/svg" width="48" height="50" viewBox="0 0 48 50">
  <title>atom 2322 c:1</title>
  <metadata>{&quot;entityType&quot;:&quot;atom&quot;,&quot;entityId&quot;:&quot;2322&quot;,&quot;token&quot;:&quot;c:1&quot;,&quot;signature&quot;:&quot;c:1&quot;,&quot;imageName&quot;:&quot;page-003.jpg&quot;,&quot;imageId&quot;:3,&quot;bounds&quot;:{&quot;x&quot;:2204,&quot;y&quot;:1571,&quot;w&quot;:48,&quot;h&quot;:50},&quot;atoms&quot;:[{&quot;id&quot;:2322,&quot;token&quot;:&quot;c:1&quot;,&quot;particle_id&quot;:&quot;img3-m74-p1&quot;,&quot;molecule_id&quot;:&quot;img3-m74&quot;,&quot;atom_order&quot;:2}]}</metadata>
  <rect x="0" y="0" width="48" height="50" fill="#f8f0d8"/>
  <image href="file:///C:/Users/HHHES/AppData/Roaming/com.voynichlab.datasetcreator/images/1/35a70f63-88ab-4986-b441-b78046a10087.jpg" x="-2204" y="-1571" width="2972" height="3766" opacity="0.92"/>
  <rect x="0.5" y="0.5" width="47" height="49" fill="none" stroke="#111827" stroke-width="1" opacity="0.35"/>
  <polyline points="23,34 23,33 24,33 25,33 25,32 26,32 26,31 27,31 27,30 28,30 28,29 29,29 29,28 30,27 30,26 31,26 31,25 31,24 32,24 32,23 32,22 32,21 32,20 32,19 31,18 31,17 30,17 29,17 29,16 28,16 27,16 26,16 25,16 24,16 24,17 23,17 22,17 22,18 21,18 21,19 20,19 20,20 19,20 18,21 18,22 17,22 17,23 16,24 16,25 16,26 16,27 16,28 17,28 17,29 18,29 18,30 19,30 19,31 20,31 21,31 22,32 23,32 24,32 25,32 26,32 26,31" fill="none" stroke="#8aff00" stroke-width="3" stroke-linecap="round" stroke-linejoin="round" opacity="0.95">
    <title>2322 c:1</title>
  </polyline>
</svg>
