<?xml version="1.0" encoding="UTF-8"?>
<svg xmlns="http://www.w3.org/2000/svg" width="60" height="56" viewBox="0 0 60 56">
  <title>atom 2359 c:1</title>
  <metadata>{&quot;entityType&quot;:&quot;atom&quot;,&quot;entityId&quot;:&quot;2359&quot;,&quot;token&quot;:&quot;c:1&quot;,&quot;signature&quot;:&quot;c:1&quot;,&quot;imageName&quot;:&quot;page-003.jpg&quot;,&quot;imageId&quot;:3,&quot;bounds&quot;:{&quot;x&quot;:1001,&quot;y&quot;:1622,&quot;w&quot;:60,&quot;h&quot;:56},&quot;atoms&quot;:[{&quot;id&quot;:2359,&quot;token&quot;:&quot;c:1&quot;,&quot;particle_id&quot;:&quot;img3-m81-p1&quot;,&quot;molecule_id&quot;:&quot;img3-m81&quot;,&quot;atom_order&quot;:3}]}</metadata>
  <rect x="0" y="0" width="60" height="56" fill="#f8f0d8"/>
  <image href="file:///C:/Users/HHHES/AppData/Roaming/com.voynichlab.datasetcreator/images/1/35a70f63-88ab-4986-b441-b78046a10087.jpg" x="-1001" y="-1622" width="2972" height="3766" opacity="0.92"/>
  <rect x="0.5" y="0.5" width="59" height="55" fill="none" stroke="#111827" stroke-width="1" opacity="0.35"/>
  <polyline points="42,33 42,32 43,32 43,31 44,31 44,30 44,29 44,28 44,27 44,26 44,25 44,24 44,23 44,22 44,21 44,20 43,20 43,19 42,19 42,18 41,18 40,17 39,17 38,17 37,17 37,16 36,16 35,16 34,16 33,16 32,16 31,16 30,17 29,17 28,17 27,17 26,17 26,18 25,18 24,18 24,19 23,19 22,19 22,20 21,20 20,20 20,21 19,22 19,23 18,23 18,24 17,25 17,26 17,27 16,27 16,28 16,29 16,30 16,31 16,32 16,33 16,34 16,35 17,36 17,37 18,37 18,38 19,38 19,39 20,39 21,39 22,39 22,40 23,40 24,40 25,40 26,40 27,40 28,40 29,40 29,39 30,39 31,39 31,38 32,38 33,38 33,37 34,37 35,37 35,36 36,36 37,36 38,35 39,35 39,34 40,34 41,34 41,33 42,33 43,33 43,32" fill="none" stroke="#8aff00" stroke-width="3" stroke-linecap="round" stroke-linejoin="round" opacity="0.95">
    <title>2359 c:1</title>
  </polyline>
</svg>
