<?xml version="1.0" encoding="UTF-8"?>
<svg xmlns="http://www.w3.org/2000/svg" width="56" height="51" viewBox="0 0 56 51">
  <title>atom 2400 c:1</title>
  <metadata>{&quot;entityType&quot;:&quot;atom&quot;,&quot;entityId&quot;:&quot;2400&quot;,&quot;token&quot;:&quot;c:1&quot;,&quot;signature&quot;:&quot;c:1&quot;,&quot;imageName&quot;:&quot;page-003.jpg&quot;,&quot;imageId&quot;:3,&quot;bounds&quot;:{&quot;x&quot;:1466,&quot;y&quot;:1622,&quot;w&quot;:56,&quot;h&quot;:51},&quot;atoms&quot;:[{&quot;id&quot;:2400,&quot;token&quot;:&quot;c:1&quot;,&quot;particle_id&quot;:&quot;img3-m82-p1&quot;,&quot;molecule_id&quot;:&quot;img3-m82&quot;,&quot;atom_order&quot;:5}]}</metadata>
  <rect x="0" y="0" width="56" height="51" fill="#f8f0d8"/>
  <image href="file:///C:/Users/HHHES/AppData/Roaming/com.voynichlab.datasetcreator/images/1/35a70f63-88ab-4986-b441-b78046a10087.jpg" x="-1466" y="-1622" width="2972" height="3766" opacity="0.92"/>
  <rect x="0.5" y="0.5" width="55" height="50" fill="none" stroke="#111827" stroke-width="1" opacity="0.35"/>
  <polyline points="36,32 37,32 37,31 38,31 38,30 39,30 39,29 40,29 40,28 40,27 40,26 40,25 40,24 39,23 39,22 38,22 38,21 37,21 37,20 36,20 36,19 35,19 35,18 34,18 33,18 33,17 32,17 31,17 30,17 30,16 29,16 28,16 27,16 26,16 26,17 25,17 24,17 24,18 23,18 22,18 22,19 21,19 21,20 20,20 19,20 19,21 19,22 18,22 18,23 17,23 17,24 17,25 17,26 16,26 16,27 16,28 16,29 16,30 16,31 17,31 17,32 17,33 18,33 18,34 19,34 19,35 20,35 21,35 22,35 23,35 24,35 25,35 26,35 27,35 28,35 29,35 30,34 31,34 32,34 32,33 33,33 34,33 35,33 35,32 36,32 36,31 37,31" fill="none" stroke="#8aff00" stroke-width="3" stroke-linecap="round" stroke-linejoin="round" opacity="0.95">
    <title>2400 c:1</title>
  </polyline>
</svg>
