<?xml version="1.0" encoding="UTF-8"?>
<svg xmlns="http://www.w3.org/2000/svg" width="39" height="42" viewBox="0 0 39 42">
  <title>atom 2469 c:1</title>
  <metadata>{&quot;entityType&quot;:&quot;atom&quot;,&quot;entityId&quot;:&quot;2469&quot;,&quot;token&quot;:&quot;c:1&quot;,&quot;signature&quot;:&quot;c:1&quot;,&quot;imageName&quot;:&quot;page-003.jpg&quot;,&quot;imageId&quot;:3,&quot;bounds&quot;:{&quot;x&quot;:2366,&quot;y&quot;:1745,&quot;w&quot;:39,&quot;h&quot;:42},&quot;atoms&quot;:[{&quot;id&quot;:2469,&quot;token&quot;:&quot;c:1&quot;,&quot;particle_id&quot;:&quot;img3-m89-p3&quot;,&quot;molecule_id&quot;:&quot;img3-m89&quot;,&quot;atom_order&quot;:2}]}</metadata>
  <rect x="0" y="0" width="39" height="42" fill="#f8f0d8"/>
  <image href="file:///C:/Users/HHHES/AppData/Roaming/com.voynichlab.datasetcreator/images/1/35a70f63-88ab-4986-b441-b78046a10087.jpg" x="-2366" y="-1745" width="2972" height="3766" opacity="0.92"/>
  <rect x="0.5" y="0.5" width="38" height="41" fill="none" stroke="#111827" stroke-width="1" opacity="0.35"/>
  <polyline points="16,21 16,20 16,19 16,18 17,18 17,17 18,17 19,16 20,16 21,16 21,17 22,17 22,18 23,18 23,19 23,20 23,21 23,22 23,23 23,24 22,24 22,25 21,26 20,26 19,26 18,26 17,26 17,25 16,25 16,24 16,23 16,22 16,21 16,20 16,19" fill="none" stroke="#8aff00" stroke-width="3" stroke-linecap="round" stroke-linejoin="round" opacity="0.95">
    <title>2469 c:1</title>
  </polyline>
</svg>
