<?xml version="1.0" encoding="UTF-8"?>
<svg xmlns="http://www.w3.org/2000/svg" width="57" height="52" viewBox="0 0 57 52">
  <title>atom 2486 c:1</title>
  <metadata>{&quot;entityType&quot;:&quot;atom&quot;,&quot;entityId&quot;:&quot;2486&quot;,&quot;token&quot;:&quot;c:1&quot;,&quot;signature&quot;:&quot;c:1&quot;,&quot;imageName&quot;:&quot;page-003.jpg&quot;,&quot;imageId&quot;:3,&quot;bounds&quot;:{&quot;x&quot;:2310,&quot;y&quot;:1705,&quot;w&quot;:57,&quot;h&quot;:52},&quot;atoms&quot;:[{&quot;id&quot;:2486,&quot;token&quot;:&quot;c:1&quot;,&quot;particle_id&quot;:&quot;img3-m89-p1&quot;,&quot;molecule_id&quot;:&quot;img3-m89&quot;,&quot;atom_order&quot;:3}]}</metadata>
  <rect x="0" y="0" width="57" height="52" fill="#f8f0d8"/>
  <image href="file:///C:/Users/HHHES/AppData/Roaming/com.voynichlab.datasetcreator/images/1/35a70f63-88ab-4986-b441-b78046a10087.jpg" x="-2310" y="-1705" width="2972" height="3766" opacity="0.92"/>
  <rect x="0.5" y="0.5" width="56" height="51" fill="none" stroke="#111827" stroke-width="1" opacity="0.35"/>
  <polyline points="39,28 40,28 40,27 40,26 41,26 41,25 41,24 41,23 40,23 40,22 40,21 39,21 39,20 38,19 38,18 37,18 37,17 36,17 35,17 34,17 33,17 32,16 31,16 30,16 29,16 28,16 27,16 26,16 26,17 25,17 24,17 23,17 23,18 22,18 21,19 20,19 20,20 19,20 19,21 18,21 18,22 17,22 17,23 17,24 16,24 16,25 16,26 16,27 16,28 16,29 16,30 16,31 16,32 17,32 17,33 17,34 18,34 19,34 19,35 20,35 20,36 21,36 22,36 23,36 24,36 25,36 26,36 27,36 28,36 29,36 30,36 31,36 31,35 32,35 32,34 33,34 34,33 35,33 35,32 36,32 36,31 37,31 37,30 37,29 38,29 38,28 39,28 39,27" fill="none" stroke="#8aff00" stroke-width="3" stroke-linecap="round" stroke-linejoin="round" opacity="0.95">
    <title>2486 c:1</title>
  </polyline>
</svg>
