<?xml version="1.0" encoding="UTF-8"?>
<svg xmlns="http://www.w3.org/2000/svg" width="58" height="57" viewBox="0 0 58 57">
  <title>atom 2503 c:1</title>
  <metadata>{&quot;entityType&quot;:&quot;atom&quot;,&quot;entityId&quot;:&quot;2503&quot;,&quot;token&quot;:&quot;c:1&quot;,&quot;signature&quot;:&quot;c:1&quot;,&quot;imageName&quot;:&quot;page-003.jpg&quot;,&quot;imageId&quot;:3,&quot;bounds&quot;:{&quot;x&quot;:2145,&quot;y&quot;:1718,&quot;w&quot;:58,&quot;h&quot;:57},&quot;atoms&quot;:[{&quot;id&quot;:2503,&quot;token&quot;:&quot;c:1&quot;,&quot;particle_id&quot;:&quot;img3-m90-p1&quot;,&quot;molecule_id&quot;:&quot;img3-m90&quot;,&quot;atom_order&quot;:5}]}</metadata>
  <rect x="0" y="0" width="58" height="57" fill="#f8f0d8"/>
  <image href="file:///C:/Users/HHHES/AppData/Roaming/com.voynichlab.datasetcreator/images/1/35a70f63-88ab-4986-b441-b78046a10087.jpg" x="-2145" y="-1718" width="2972" height="3766" opacity="0.92"/>
  <rect x="0.5" y="0.5" width="57" height="56" fill="none" stroke="#111827" stroke-width="1" opacity="0.35"/>
  <polyline points="17,27 17,26 18,25 18,24 19,24 19,23 20,23 20,22 21,22 21,21 22,21 22,20 23,20 24,20 24,19 25,19 25,18 26,18 27,17 28,17 29,17 29,16 30,16 31,16 32,16 33,16 34,16 35,16 36,16 37,16 38,16 38,17 39,17 39,18 40,18 40,19 41,19 41,20 42,20 42,21 42,22 42,23 42,24 42,25 42,26 42,27 42,28 42,29 41,29 41,30 41,31 41,32 40,32 40,33 39,34 38,34 38,35 37,35 37,36 36,36 35,36 35,37 34,37 34,38 33,38 32,38 32,39 31,39 30,39 29,39 29,40 28,40 27,40 26,40 25,41 24,41 23,41 22,41 21,41 20,41 20,40 19,40 18,40 17,40 17,39 16,39 16,38 16,37 16,36 16,35 16,34 16,33 16,32 16,31 16,30 16,29 16,28 16,27 17,27 17,26 18,25 18,24 19,24 19,23" fill="none" stroke="#8aff00" stroke-width="3" stroke-linecap="round" stroke-linejoin="round" opacity="0.95">
    <title>2503 c:1</title>
  </polyline>
</svg>
