<?xml version="1.0" encoding="UTF-8"?>
<svg xmlns="http://www.w3.org/2000/svg" width="56" height="51" viewBox="0 0 56 51">
  <title>atom 2526 c:1</title>
  <metadata>{&quot;entityType&quot;:&quot;atom&quot;,&quot;entityId&quot;:&quot;2526&quot;,&quot;token&quot;:&quot;c:1&quot;,&quot;signature&quot;:&quot;c:1&quot;,&quot;imageName&quot;:&quot;page-003.jpg&quot;,&quot;imageId&quot;:3,&quot;bounds&quot;:{&quot;x&quot;:1724,&quot;y&quot;:1771,&quot;w&quot;:56,&quot;h&quot;:51},&quot;atoms&quot;:[{&quot;id&quot;:2526,&quot;token&quot;:&quot;c:1&quot;,&quot;particle_id&quot;:&quot;img3-m98-p1&quot;,&quot;molecule_id&quot;:&quot;img3-m98&quot;,&quot;atom_order&quot;:1}]}</metadata>
  <rect x="0" y="0" width="56" height="51" fill="#f8f0d8"/>
  <image href="file:///C:/Users/HHHES/AppData/Roaming/com.voynichlab.datasetcreator/images/1/35a70f63-88ab-4986-b441-b78046a10087.jpg" x="-1724" y="-1771" width="2972" height="3766" opacity="0.92"/>
  <rect x="0.5" y="0.5" width="55" height="50" fill="none" stroke="#111827" stroke-width="1" opacity="0.35"/>
  <polyline points="23,35 22,35 21,35 21,34 20,34 19,34 19,33 18,33 18,32 17,32 17,31 17,30 16,30 16,29 16,28 16,27 16,26 16,25 16,24 16,23 17,23 17,22 18,22 18,21 19,21 19,20 20,20 21,20 21,19 22,19 23,18 24,18 25,17 26,17 27,17 28,16 29,16 30,16 31,16 32,16 33,16 34,16 35,16 36,16 36,17 37,17 38,17 38,18 39,18 39,19 40,19 40,20 40,21 40,22 40,23 40,24 40,25 40,26 40,27 40,28 39,28 39,29 39,30 38,30 38,31 37,31 37,32 36,32 36,33 35,33 34,33 34,34 33,34 32,34 32,35 31,35 30,35 29,35 28,35 27,35 26,35 25,35 24,35 23,35 22,35 21,35" fill="none" stroke="#8aff00" stroke-width="3" stroke-linecap="round" stroke-linejoin="round" opacity="0.95">
    <title>2526 c:1</title>
  </polyline>
</svg>
