<?xml version="1.0" encoding="UTF-8"?>
<svg xmlns="http://www.w3.org/2000/svg" width="52" height="49" viewBox="0 0 52 49">
  <title>atom 2528 c:1</title>
  <metadata>{&quot;entityType&quot;:&quot;atom&quot;,&quot;entityId&quot;:&quot;2528&quot;,&quot;token&quot;:&quot;c:1&quot;,&quot;signature&quot;:&quot;c:1&quot;,&quot;imageName&quot;:&quot;page-003.jpg&quot;,&quot;imageId&quot;:3,&quot;bounds&quot;:{&quot;x&quot;:1787,&quot;y&quot;:1728,&quot;w&quot;:52,&quot;h&quot;:49},&quot;atoms&quot;:[{&quot;id&quot;:2528,&quot;token&quot;:&quot;c:1&quot;,&quot;particle_id&quot;:&quot;img3-m98-p2&quot;,&quot;molecule_id&quot;:&quot;img3-m98&quot;,&quot;atom_order&quot;:3}]}</metadata>
  <rect x="0" y="0" width="52" height="49" fill="#f8f0d8"/>
  <image href="file:///C:/Users/HHHES/AppData/Roaming/com.voynichlab.datasetcreator/images/1/35a70f63-88ab-4986-b441-b78046a10087.jpg" x="-1787" y="-1728" width="2972" height="3766" opacity="0.92"/>
  <rect x="0.5" y="0.5" width="51" height="48" fill="none" stroke="#111827" stroke-width="1" opacity="0.35"/>
  <polyline points="27,33 23,33 22,33 22,32 21,32 20,32 19,32 19,31 18,31 18,30 17,30 17,29 17,28 17,27 16,27 16,26 16,25 16,24 16,23 17,23 17,22 17,21 18,21 18,20 19,20 19,19 20,18 20,17 21,17 22,17 23,17 23,16 24,16 25,16 26,16 27,16 28,16 29,16 30,17 31,17 32,17 32,18 33,18 33,19 34,19 34,20 35,20 35,21 35,22 36,22 36,23 36,24 36,25 35,25 35,26 35,27 35,28 34,28 34,29 34,30 33,30 33,31 32,31 32,32 31,32 30,32 30,33 29,33 28,33 27,33 26,33" fill="none" stroke="#8aff00" stroke-width="3" stroke-linecap="round" stroke-linejoin="round" opacity="0.95">
    <title>2528 c:1</title>
  </polyline>
</svg>
