<?xml version="1.0" encoding="UTF-8"?>
<svg xmlns="http://www.w3.org/2000/svg" width="52" height="51" viewBox="0 0 52 51">
  <title>atom 2580 c:1</title>
  <metadata>{&quot;entityType&quot;:&quot;atom&quot;,&quot;entityId&quot;:&quot;2580&quot;,&quot;token&quot;:&quot;c:1&quot;,&quot;signature&quot;:&quot;c:1&quot;,&quot;imageName&quot;:&quot;page-003.jpg&quot;,&quot;imageId&quot;:3,&quot;bounds&quot;:{&quot;x&quot;:1082,&quot;y&quot;:1741,&quot;w&quot;:52,&quot;h&quot;:51},&quot;atoms&quot;:[{&quot;id&quot;:2580,&quot;token&quot;:&quot;c:1&quot;,&quot;particle_id&quot;:&quot;img3-m95-p2&quot;,&quot;molecule_id&quot;:&quot;img3-m95&quot;,&quot;atom_order&quot;:2}]}</metadata>
  <rect x="0" y="0" width="52" height="51" fill="#f8f0d8"/>
  <image href="file:///C:/Users/HHHES/AppData/Roaming/com.voynichlab.datasetcreator/images/1/35a70f63-88ab-4986-b441-b78046a10087.jpg" x="-1082" y="-1741" width="2972" height="3766" opacity="0.92"/>
  <rect x="0.5" y="0.5" width="51" height="50" fill="none" stroke="#111827" stroke-width="1" opacity="0.35"/>
  <polyline points="25,16 26,16 27,16 27,17 28,17 29,17 30,17 30,18 31,18 32,18 32,19 33,19 33,20 34,20 34,21 35,21 35,22 35,23 35,24 36,25 36,26 35,26 35,27 35,28 35,29 34,29 34,30 33,31 32,32 31,32 31,33 30,33 29,33 29,34 28,34 27,34 26,34 26,35 25,35 24,35 23,35 22,35 22,34 21,34 20,34 20,33 19,33 18,33 18,32 18,31 17,31 17,30 17,29 16,29 16,28 16,27 16,26 16,25 16,24 16,23 16,22 17,22 17,21 17,20 18,20 18,19 19,19 20,19 20,18 21,18 22,18 22,17 23,17 24,17 25,17 26,17" fill="none" stroke="#8aff00" stroke-width="3" stroke-linecap="round" stroke-linejoin="round" opacity="0.95">
    <title>2580 c:1</title>
  </polyline>
</svg>
