<?xml version="1.0" encoding="UTF-8"?>
<svg xmlns="http://www.w3.org/2000/svg" width="49" height="45" viewBox="0 0 49 45">
  <title>atom 3170 c:1</title>
  <metadata>{&quot;entityType&quot;:&quot;atom&quot;,&quot;entityId&quot;:&quot;3170&quot;,&quot;token&quot;:&quot;c:1&quot;,&quot;signature&quot;:&quot;c:1&quot;,&quot;imageName&quot;:&quot;page-003.jpg&quot;,&quot;imageId&quot;:3,&quot;bounds&quot;:{&quot;x&quot;:547,&quot;y&quot;:1830,&quot;w&quot;:49,&quot;h&quot;:45},&quot;atoms&quot;:[{&quot;id&quot;:3170,&quot;token&quot;:&quot;c:1&quot;,&quot;particle_id&quot;:&quot;img3-m102-p1&quot;,&quot;molecule_id&quot;:&quot;img3-m102&quot;,&quot;atom_order&quot;:2}]}</metadata>
  <rect x="0" y="0" width="49" height="45" fill="#f8f0d8"/>
  <image href="file:///C:/Users/HHHES/AppData/Roaming/com.voynichlab.datasetcreator/images/1/35a70f63-88ab-4986-b441-b78046a10087.jpg" x="-547" y="-1830" width="2972" height="3766" opacity="0.92"/>
  <rect x="0.5" y="0.5" width="48" height="44" fill="none" stroke="#111827" stroke-width="1" opacity="0.35"/>
  <polyline points="27,29 28,28 29,28 29,27 30,27 30,26 31,26 31,25 32,25 32,24 33,24 33,23 33,22 33,21 33,20 32,20 32,19 31,19 31,18 30,18 30,17 29,17 28,17 27,17 27,16 26,16 25,16 24,16 24,17 23,17 22,17 21,17 21,18 20,18 19,18 19,19 18,19 18,20 17,20 17,21 16,21 16,22 16,23 16,24 16,25 17,25 17,26 18,26 18,27 19,27 19,28 20,28 21,28 21,29 22,29 23,29 24,29 25,29 26,29 27,29 27,28 28,28" fill="none" stroke="#8aff00" stroke-width="3" stroke-linecap="round" stroke-linejoin="round" opacity="0.95">
    <title>3170 c:1</title>
  </polyline>
</svg>
