<?xml version="1.0" encoding="UTF-8"?>
<svg xmlns="http://www.w3.org/2000/svg" width="57" height="53" viewBox="0 0 57 53">
  <title>atom 3171 c:1</title>
  <metadata>{&quot;entityType&quot;:&quot;atom&quot;,&quot;entityId&quot;:&quot;3171&quot;,&quot;token&quot;:&quot;c:1&quot;,&quot;signature&quot;:&quot;c:1&quot;,&quot;imageName&quot;:&quot;page-003.jpg&quot;,&quot;imageId&quot;:3,&quot;bounds&quot;:{&quot;x&quot;:845,&quot;y&quot;:1788,&quot;w&quot;:57,&quot;h&quot;:53},&quot;atoms&quot;:[{&quot;id&quot;:3171,&quot;token&quot;:&quot;c:1&quot;,&quot;particle_id&quot;:&quot;img3-m103-p3&quot;,&quot;molecule_id&quot;:&quot;img3-m103&quot;,&quot;atom_order&quot;:4}]}</metadata>
  <rect x="0" y="0" width="57" height="53" fill="#f8f0d8"/>
  <image href="file:///C:/Users/HHHES/AppData/Roaming/com.voynichlab.datasetcreator/images/1/35a70f63-88ab-4986-b441-b78046a10087.jpg" x="-845" y="-1788" width="2972" height="3766" opacity="0.92"/>
  <rect x="0.5" y="0.5" width="56" height="52" fill="none" stroke="#111827" stroke-width="1" opacity="0.35"/>
  <polyline points="35,35 36,35 36,34 37,34 37,33 38,33 38,32 39,32 39,31 40,31 40,30 41,30 41,29 41,28 41,27 41,26 41,25 41,24 41,23 41,22 41,21 40,21 40,20 40,19 39,19 39,18 38,18 38,17 37,17 37,16 36,16 35,16 34,16 33,16 32,16 31,16 30,16 29,16 28,16 27,16 26,16 25,17 24,17 23,17 22,17 22,18 21,18 21,19 20,19 19,20 18,21 18,22 17,22 17,23 16,23 16,24 16,25 16,26 16,27 16,28 16,29 16,30 16,31 16,32 17,32 17,33 18,34 19,35 20,35 21,36 22,36 23,36 24,36 25,36 25,37 26,37 27,37 28,37 28,36 29,36 30,36 31,36 32,36 33,36 34,36 34,35 35,35 36,35" fill="none" stroke="#8aff00" stroke-width="3" stroke-linecap="round" stroke-linejoin="round" opacity="0.95">
    <title>3171 c:1</title>
  </polyline>
</svg>
