<?xml version="1.0" encoding="UTF-8"?>
<svg xmlns="http://www.w3.org/2000/svg" width="53" height="51" viewBox="0 0 53 51">
  <title>atom 3172 c:1</title>
  <metadata>{&quot;entityType&quot;:&quot;atom&quot;,&quot;entityId&quot;:&quot;3172&quot;,&quot;token&quot;:&quot;c:1&quot;,&quot;signature&quot;:&quot;c:1&quot;,&quot;imageName&quot;:&quot;page-003.jpg&quot;,&quot;imageId&quot;:3,&quot;bounds&quot;:{&quot;x&quot;:1052,&quot;y&quot;:1794,&quot;w&quot;:53,&quot;h&quot;:51},&quot;atoms&quot;:[{&quot;id&quot;:3172,&quot;token&quot;:&quot;c:1&quot;,&quot;particle_id&quot;:&quot;img3-m100-p1&quot;,&quot;molecule_id&quot;:&quot;img3-m100&quot;,&quot;atom_order&quot;:4}]}</metadata>
  <rect x="0" y="0" width="53" height="51" fill="#f8f0d8"/>
  <image href="file:///C:/Users/HHHES/AppData/Roaming/com.voynichlab.datasetcreator/images/1/35a70f63-88ab-4986-b441-b78046a10087.jpg" x="-1052" y="-1794" width="2972" height="3766" opacity="0.92"/>
  <rect x="0.5" y="0.5" width="52" height="50" fill="none" stroke="#111827" stroke-width="1" opacity="0.35"/>
  <polyline points="30,33 30,32 31,32 32,32 32,31 33,31 33,30 34,30 34,29 35,29 35,28 36,28 36,27 36,26 37,25 37,24 37,23 37,22 37,21 37,20 36,20 36,19 36,18 36,17 35,17 34,17 34,16 33,16 32,16 31,16 30,16 29,16 28,16 27,16 26,16 25,16 24,16 23,16 23,17 22,17 21,18 20,19 19,19 19,20 18,20 18,21 18,22 17,22 17,23 16,24 16,25 16,26 16,27 16,28 16,29 16,30 17,30 17,31 18,31 18,32 18,33 19,33 19,34 20,34 21,34 21,35 22,35 23,35 24,35 25,35 26,35 26,34 27,34 28,34 29,34 29,33 30,33 30,32 31,32" fill="none" stroke="#8aff00" stroke-width="3" stroke-linecap="round" stroke-linejoin="round" opacity="0.95">
    <title>3172 c:1</title>
  </polyline>
</svg>
