<?xml version="1.0" encoding="UTF-8"?>
<svg xmlns="http://www.w3.org/2000/svg" width="55" height="48" viewBox="0 0 55 48">
  <title>atom 3267 c:1</title>
  <metadata>{&quot;entityType&quot;:&quot;atom&quot;,&quot;entityId&quot;:&quot;3267&quot;,&quot;token&quot;:&quot;c:1&quot;,&quot;signature&quot;:&quot;c:1&quot;,&quot;imageName&quot;:&quot;page-003.jpg&quot;,&quot;imageId&quot;:3,&quot;bounds&quot;:{&quot;x&quot;:1323,&quot;y&quot;:1875,&quot;w&quot;:55,&quot;h&quot;:48},&quot;atoms&quot;:[{&quot;id&quot;:3267,&quot;token&quot;:&quot;c:1&quot;,&quot;particle_id&quot;:&quot;img3-m110-p1&quot;,&quot;molecule_id&quot;:&quot;img3-m110&quot;,&quot;atom_order&quot;:3}]}</metadata>
  <rect x="0" y="0" width="55" height="48" fill="#f8f0d8"/>
  <image href="file:///C:/Users/HHHES/AppData/Roaming/com.voynichlab.datasetcreator/images/1/35a70f63-88ab-4986-b441-b78046a10087.jpg" x="-1323" y="-1875" width="2972" height="3766" opacity="0.92"/>
  <rect x="0.5" y="0.5" width="54" height="47" fill="none" stroke="#111827" stroke-width="1" opacity="0.35"/>
  <polyline points="32,31 33,31 34,30 35,30 35,29 36,29 36,28 37,28 37,27 38,27 38,26 39,25 39,24 39,23 39,22 39,21 39,20 38,19 38,18 37,18 36,18 36,17 35,17 34,17 33,17 32,17 32,16 31,16 30,16 29,16 28,16 27,16 26,16 25,16 25,17 24,17 23,17 23,18 22,18 21,18 21,19 20,19 20,20 19,20 18,21 17,22 17,23 17,24 16,24 16,25 16,26 16,27 17,27 17,28 18,29 18,30 19,30 20,31 21,31 22,31 22,32 23,32 24,32 25,32 26,32 27,32 28,32 29,32 30,32 31,32 32,32 32,31 33,31 34,31" fill="none" stroke="#8aff00" stroke-width="3" stroke-linecap="round" stroke-linejoin="round" opacity="0.95">
    <title>3267 c:1</title>
  </polyline>
</svg>
