<?xml version="1.0" encoding="UTF-8"?>
<svg xmlns="http://www.w3.org/2000/svg" width="57" height="53" viewBox="0 0 57 53">
  <title>atom 3273 c:1</title>
  <metadata>{&quot;entityType&quot;:&quot;atom&quot;,&quot;entityId&quot;:&quot;3273&quot;,&quot;token&quot;:&quot;c:1&quot;,&quot;signature&quot;:&quot;c:1&quot;,&quot;imageName&quot;:&quot;page-003.jpg&quot;,&quot;imageId&quot;:3,&quot;bounds&quot;:{&quot;x&quot;:2134,&quot;y&quot;:1876,&quot;w&quot;:57,&quot;h&quot;:53},&quot;atoms&quot;:[{&quot;id&quot;:3273,&quot;token&quot;:&quot;c:1&quot;,&quot;particle_id&quot;:&quot;img3-m111-p1&quot;,&quot;molecule_id&quot;:&quot;img3-m111&quot;,&quot;atom_order&quot;:3}]}</metadata>
  <rect x="0" y="0" width="57" height="53" fill="#f8f0d8"/>
  <image href="file:///C:/Users/HHHES/AppData/Roaming/com.voynichlab.datasetcreator/images/1/35a70f63-88ab-4986-b441-b78046a10087.jpg" x="-2134" y="-1876" width="2972" height="3766" opacity="0.92"/>
  <rect x="0.5" y="0.5" width="56" height="52" fill="none" stroke="#111827" stroke-width="1" opacity="0.35"/>
  <polyline points="39,32 40,31 40,30 40,29 40,28 41,28 41,27 41,26 41,25 41,24 41,23 41,22 40,22 40,21 40,20 39,20 39,19 38,19 37,18 36,18 36,17 35,17 34,17 33,17 32,17 31,16 30,16 29,16 28,16 27,16 26,16 25,17 24,17 23,17 23,18 22,18 21,18 21,19 20,20 19,21 19,22 18,23 18,24 17,25 17,26 16,26 16,27 16,28 16,29 16,30 16,31 16,32 16,33 17,34 18,35 19,35 20,36 21,36 22,36 22,37 23,37 24,37 25,37 26,37 27,37 28,37 29,37 30,37 30,36 31,36 32,36 33,36 33,35 34,35 35,35 35,34 36,34 36,33 37,33 38,32 39,32 39,31 40,31 40,30 41,30" fill="none" stroke="#8aff00" stroke-width="3" stroke-linecap="round" stroke-linejoin="round" opacity="0.95">
    <title>3273 c:1</title>
  </polyline>
</svg>
