<?xml version="1.0" encoding="UTF-8"?>
<svg xmlns="http://www.w3.org/2000/svg" width="58" height="52" viewBox="0 0 58 52">
  <title>atom 3350 c:1</title>
  <metadata>{&quot;entityType&quot;:&quot;atom&quot;,&quot;entityId&quot;:&quot;3350&quot;,&quot;token&quot;:&quot;c:1&quot;,&quot;signature&quot;:&quot;c:1&quot;,&quot;imageName&quot;:&quot;page-003.jpg&quot;,&quot;imageId&quot;:3,&quot;bounds&quot;:{&quot;x&quot;:767,&quot;y&quot;:1941,&quot;w&quot;:58,&quot;h&quot;:52},&quot;atoms&quot;:[{&quot;id&quot;:3350,&quot;token&quot;:&quot;c:1&quot;,&quot;particle_id&quot;:&quot;img3-m119-p3&quot;,&quot;molecule_id&quot;:&quot;img3-m119&quot;,&quot;atom_order&quot;:4}]}</metadata>
  <rect x="0" y="0" width="58" height="52" fill="#f8f0d8"/>
  <image href="file:///C:/Users/HHHES/AppData/Roaming/com.voynichlab.datasetcreator/images/1/35a70f63-88ab-4986-b441-b78046a10087.jpg" x="-767" y="-1941" width="2972" height="3766" opacity="0.92"/>
  <rect x="0.5" y="0.5" width="57" height="51" fill="none" stroke="#111827" stroke-width="1" opacity="0.35"/>
  <polyline points="33,35 34,34 35,34 36,34 36,33 37,33 38,33 38,32 39,32 40,31 40,30 41,30 41,29 42,28 42,27 42,26 42,25 42,24 42,23 41,23 41,22 40,21 40,20 40,19 39,19 39,18 38,18 38,17 37,17 36,17 35,17 35,16 34,16 33,16 32,16 31,16 30,16 29,16 28,16 27,16 26,16 25,16 24,16 23,16 22,16 21,16 21,17 20,17 19,18 18,19 17,20 17,21 16,21 16,22 16,23 16,24 16,25 16,26 16,27 16,28 16,29 17,29 17,30 17,31 18,31 18,32 19,32 20,33 21,33 22,34 23,34 24,35 25,35 26,35 27,35 28,36 29,36 30,36 31,36 32,35 33,35 34,35 35,35 35,34 36,34" fill="none" stroke="#8aff00" stroke-width="3" stroke-linecap="round" stroke-linejoin="round" opacity="0.95">
    <title>3350 c:1</title>
  </polyline>
</svg>
