<?xml version="1.0" encoding="UTF-8"?>
<svg xmlns="http://www.w3.org/2000/svg" width="50" height="47" viewBox="0 0 50 47">
  <title>atom 3356 c:1</title>
  <metadata>{&quot;entityType&quot;:&quot;atom&quot;,&quot;entityId&quot;:&quot;3356&quot;,&quot;token&quot;:&quot;c:1&quot;,&quot;signature&quot;:&quot;c:1&quot;,&quot;imageName&quot;:&quot;page-003.jpg&quot;,&quot;imageId&quot;:3,&quot;bounds&quot;:{&quot;x&quot;:1740,&quot;y&quot;:1984,&quot;w&quot;:50,&quot;h&quot;:47},&quot;atoms&quot;:[{&quot;id&quot;:3356,&quot;token&quot;:&quot;c:1&quot;,&quot;particle_id&quot;:&quot;img3-m122-p3&quot;,&quot;molecule_id&quot;:&quot;img3-m122&quot;,&quot;atom_order&quot;:2}]}</metadata>
  <rect x="0" y="0" width="50" height="47" fill="#f8f0d8"/>
  <image href="file:///C:/Users/HHHES/AppData/Roaming/com.voynichlab.datasetcreator/images/1/35a70f63-88ab-4986-b441-b78046a10087.jpg" x="-1740" y="-1984" width="2972" height="3766" opacity="0.92"/>
  <rect x="0.5" y="0.5" width="49" height="46" fill="none" stroke="#111827" stroke-width="1" opacity="0.35"/>
  <polyline points="29,31 30,31 30,30 31,30 32,30 32,29 33,29 33,28 34,27 34,26 34,25 34,24 34,23 34,22 34,21 34,20 33,20 33,19 32,19 32,18 31,18 30,18 29,17 28,17 27,17 27,16 26,16 25,16 24,16 23,16 22,16 21,16 20,16 19,16 18,16 18,17 17,17 17,18 16,18 16,19 16,20 16,21 16,22 17,22 17,23 18,23 18,24 19,25 19,26 20,26 20,27 21,28 22,28 22,29 23,29 23,30 24,30 25,30 26,30 26,31 27,31 28,31 29,31 29,30" fill="none" stroke="#8aff00" stroke-width="3" stroke-linecap="round" stroke-linejoin="round" opacity="0.95">
    <title>3356 c:1</title>
  </polyline>
</svg>
