<?xml version="1.0" encoding="UTF-8"?>
<svg xmlns="http://www.w3.org/2000/svg" width="58" height="54" viewBox="0 0 58 54">
  <title>atom 3360 c:1</title>
  <metadata>{&quot;entityType&quot;:&quot;atom&quot;,&quot;entityId&quot;:&quot;3360&quot;,&quot;token&quot;:&quot;c:1&quot;,&quot;signature&quot;:&quot;c:1&quot;,&quot;imageName&quot;:&quot;page-003.jpg&quot;,&quot;imageId&quot;:3,&quot;bounds&quot;:{&quot;x&quot;:2224,&quot;y&quot;:1954,&quot;w&quot;:58,&quot;h&quot;:54},&quot;atoms&quot;:[{&quot;id&quot;:3360,&quot;token&quot;:&quot;c:1&quot;,&quot;particle_id&quot;:&quot;img3-m121-p3&quot;,&quot;molecule_id&quot;:&quot;img3-m121&quot;,&quot;atom_order&quot;:5}]}</metadata>
  <rect x="0" y="0" width="58" height="54" fill="#f8f0d8"/>
  <image href="file:///C:/Users/HHHES/AppData/Roaming/com.voynichlab.datasetcreator/images/1/35a70f63-88ab-4986-b441-b78046a10087.jpg" x="-2224" y="-1954" width="2972" height="3766" opacity="0.92"/>
  <rect x="0.5" y="0.5" width="57" height="53" fill="none" stroke="#111827" stroke-width="1" opacity="0.35"/>
  <polyline points="42,30 42,29 42,28 42,27 42,26 42,25 42,24 42,23 41,23 41,22 40,22 40,21 40,20 39,20 39,19 38,19 37,18 36,18 36,17 35,17 34,17 33,16 32,16 31,16 30,16 29,16 28,16 27,16 26,16 25,17 24,17 23,17 23,18 22,18 21,19 20,19 20,20 19,20 19,21 18,21 18,22 17,23 17,24 17,25 17,26 17,27 17,28 17,29 16,29 16,30 16,31 16,32 17,33 17,34 17,35 18,35 18,36 19,36 19,37 20,37 21,37 22,37 23,37 24,37 25,38 26,38 27,38 28,38 29,38 30,37 31,37 32,37 33,37 33,36 34,36 35,36 36,35 37,35 37,34 38,34 39,34 39,33 40,32 41,31 41,30 42,30 42,29 42,28" fill="none" stroke="#8aff00" stroke-width="3" stroke-linecap="round" stroke-linejoin="round" opacity="0.95">
    <title>3360 c:1</title>
  </polyline>
</svg>
