<?xml version="1.0" encoding="UTF-8"?>
<svg xmlns="http://www.w3.org/2000/svg" width="61" height="51" viewBox="0 0 61 51">
  <title>atom 3438 c:1</title>
  <metadata>{&quot;entityType&quot;:&quot;atom&quot;,&quot;entityId&quot;:&quot;3438&quot;,&quot;token&quot;:&quot;c:1&quot;,&quot;signature&quot;:&quot;c:1&quot;,&quot;imageName&quot;:&quot;page-003.jpg&quot;,&quot;imageId&quot;:3,&quot;bounds&quot;:{&quot;x&quot;:1050,&quot;y&quot;:2026,&quot;w&quot;:61,&quot;h&quot;:51},&quot;atoms&quot;:[{&quot;id&quot;:3438,&quot;token&quot;:&quot;c:1&quot;,&quot;particle_id&quot;:&quot;img3-m127-p1&quot;,&quot;molecule_id&quot;:&quot;img3-m127&quot;,&quot;atom_order&quot;:3}]}</metadata>
  <rect x="0" y="0" width="61" height="51" fill="#f8f0d8"/>
  <image href="file:///C:/Users/HHHES/AppData/Roaming/com.voynichlab.datasetcreator/images/1/35a70f63-88ab-4986-b441-b78046a10087.jpg" x="-1050" y="-2026" width="2972" height="3766" opacity="0.92"/>
  <rect x="0.5" y="0.5" width="60" height="50" fill="none" stroke="#111827" stroke-width="1" opacity="0.35"/>
  <polyline points="42,27 43,27 44,27 44,26 45,25 45,24 45,23 45,22 45,21 44,20 44,19 43,19 43,18 42,18 41,18 40,17 39,17 38,17 37,17 35,16 34,16 33,16 32,16 31,16 30,16 29,16 28,16 28,17 27,17 26,17 25,18 24,18 23,19 22,19 21,20 20,20 20,21 19,22 18,23 17,23 17,24 17,25 16,26 16,27 16,28 16,29 16,30 16,31 17,32 18,33 19,33 19,34 20,34 21,34 22,34 23,34 23,35 24,35 25,35 26,35 27,35 27,34 28,34 29,34 30,34 31,34 32,33 33,33 34,33 34,32 35,32 36,32 36,31 37,30 38,29 39,29 40,29 40,28 41,28 41,27 42,27 42,26 43,26" fill="none" stroke="#8aff00" stroke-width="3" stroke-linecap="round" stroke-linejoin="round" opacity="0.95">
    <title>3438 c:1</title>
  </polyline>
</svg>
