<?xml version="1.0" encoding="UTF-8"?>
<svg xmlns="http://www.w3.org/2000/svg" width="48" height="50" viewBox="0 0 48 50">
  <title>atom 3441 c:1</title>
  <metadata>{&quot;entityType&quot;:&quot;atom&quot;,&quot;entityId&quot;:&quot;3441&quot;,&quot;token&quot;:&quot;c:1&quot;,&quot;signature&quot;:&quot;c:1&quot;,&quot;imageName&quot;:&quot;page-003.jpg&quot;,&quot;imageId&quot;:3,&quot;bounds&quot;:{&quot;x&quot;:1683,&quot;y&quot;:2057,&quot;w&quot;:48,&quot;h&quot;:50},&quot;atoms&quot;:[{&quot;id&quot;:3441,&quot;token&quot;:&quot;c:1&quot;,&quot;particle_id&quot;:&quot;img3-m129-p1&quot;,&quot;molecule_id&quot;:&quot;img3-m129&quot;,&quot;atom_order&quot;:2}]}</metadata>
  <rect x="0" y="0" width="48" height="50" fill="#f8f0d8"/>
  <image href="file:///C:/Users/HHHES/AppData/Roaming/com.voynichlab.datasetcreator/images/1/35a70f63-88ab-4986-b441-b78046a10087.jpg" x="-1683" y="-2057" width="2972" height="3766" opacity="0.92"/>
  <rect x="0.5" y="0.5" width="47" height="49" fill="none" stroke="#111827" stroke-width="1" opacity="0.35"/>
  <polyline points="25,34 26,34 27,33 28,33 29,33 29,32 30,32 30,31 30,30 31,29 32,28 32,27 32,26 32,25 32,24 32,23 32,22 32,21 32,20 31,20 31,19 30,18 29,17 29,16 28,16 27,16 26,16 25,16 24,16 23,16 22,16 21,16 20,17 19,17 18,17 18,18 17,18 17,19 17,20 16,21 16,22 16,23 16,24 16,25 16,26 16,27 17,27 17,28 17,29 18,30 18,31 19,31 19,32 20,32 20,33 21,33 21,34 22,34 23,34 24,34" fill="none" stroke="#8aff00" stroke-width="3" stroke-linecap="round" stroke-linejoin="round" opacity="0.95">
    <title>3441 c:1</title>
  </polyline>
</svg>
