<?xml version="1.0" encoding="UTF-8"?>
<svg xmlns="http://www.w3.org/2000/svg" width="56" height="52" viewBox="0 0 56 52">
  <title>atom 3444 c:1</title>
  <metadata>{&quot;entityType&quot;:&quot;atom&quot;,&quot;entityId&quot;:&quot;3444&quot;,&quot;token&quot;:&quot;c:1&quot;,&quot;signature&quot;:&quot;c:1&quot;,&quot;imageName&quot;:&quot;page-003.jpg&quot;,&quot;imageId&quot;:3,&quot;bounds&quot;:{&quot;x&quot;:2272,&quot;y&quot;:2080,&quot;w&quot;:56,&quot;h&quot;:52},&quot;atoms&quot;:[{&quot;id&quot;:3444,&quot;token&quot;:&quot;c:1&quot;,&quot;particle_id&quot;:&quot;img3-m128-p3&quot;,&quot;molecule_id&quot;:&quot;img3-m128&quot;,&quot;atom_order&quot;:2}]}</metadata>
  <rect x="0" y="0" width="56" height="52" fill="#f8f0d8"/>
  <image href="file:///C:/Users/HHHES/AppData/Roaming/com.voynichlab.datasetcreator/images/1/35a70f63-88ab-4986-b441-b78046a10087.jpg" x="-2272" y="-2080" width="2972" height="3766" opacity="0.92"/>
  <rect x="0.5" y="0.5" width="55" height="51" fill="none" stroke="#111827" stroke-width="1" opacity="0.35"/>
  <polyline points="34,35 35,35 36,35 36,34 37,34 37,33 38,32 38,31 39,30 39,29 39,28 40,27 40,26 40,25 39,24 39,23 38,22 38,21 37,21 37,20 36,20 36,19 35,19 35,18 34,18 33,18 33,17 32,17 31,17 30,17 29,17 29,16 28,16 27,16 26,16 25,16 24,16 23,16 22,16 22,17 21,17 20,17 20,18 19,18 19,19 18,19 18,20 17,21 17,22 16,23 16,24 16,25 16,26 16,27 16,28 16,29 16,30 17,30 17,31 18,32 19,33 20,34 21,35 22,35 23,36 24,36 25,36 26,36 27,36 28,36 29,36 30,36 31,36 32,36 33,36 33,35 34,35 35,35 36,34 37,33 37,32" fill="none" stroke="#8aff00" stroke-width="3" stroke-linecap="round" stroke-linejoin="round" opacity="0.95">
    <title>3444 c:1</title>
  </polyline>
</svg>
