<?xml version="1.0" encoding="UTF-8"?>
<svg xmlns="http://www.w3.org/2000/svg" width="57" height="52" viewBox="0 0 57 52">
  <title>atom 3540 c:1</title>
  <metadata>{&quot;entityType&quot;:&quot;atom&quot;,&quot;entityId&quot;:&quot;3540&quot;,&quot;token&quot;:&quot;c:1&quot;,&quot;signature&quot;:&quot;c:1&quot;,&quot;imageName&quot;:&quot;page-003.jpg&quot;,&quot;imageId&quot;:3,&quot;bounds&quot;:{&quot;x&quot;:882,&quot;y&quot;:2101,&quot;w&quot;:57,&quot;h&quot;:52},&quot;atoms&quot;:[{&quot;id&quot;:3540,&quot;token&quot;:&quot;c:1&quot;,&quot;particle_id&quot;:&quot;img3-m137-p3&quot;,&quot;molecule_id&quot;:&quot;img3-m137&quot;,&quot;atom_order&quot;:5}]}</metadata>
  <rect x="0" y="0" width="57" height="52" fill="#f8f0d8"/>
  <image href="file:///C:/Users/HHHES/AppData/Roaming/com.voynichlab.datasetcreator/images/1/35a70f63-88ab-4986-b441-b78046a10087.jpg" x="-882" y="-2101" width="2972" height="3766" opacity="0.92"/>
  <rect x="0.5" y="0.5" width="56" height="51" fill="none" stroke="#111827" stroke-width="1" opacity="0.35"/>
  <polyline points="28,36 29,36 29,35 30,35 31,35 32,35 33,34 34,34 35,34 35,33 36,33 36,32 37,32 37,31 38,31 38,30 39,30 40,29 40,28 41,27 41,26 41,25 41,24 41,23 40,22 40,21 39,21 39,20 38,19 38,18 37,18 37,17 36,17 35,17 34,16 33,16 32,16 31,16 30,16 29,16 28,16 27,16 26,16 25,16 24,16 23,17 22,17 21,18 20,18 20,19 19,19 19,20 18,21 17,22 17,23 17,24 16,25 16,26 16,27 16,28 16,29 16,30 16,31 16,32 16,33 17,33 17,34 18,35 19,35 19,36 20,36 21,36 22,36 23,36 24,36 25,36 26,36 27,36 28,36 29,36 29,35" fill="none" stroke="#8aff00" stroke-width="3" stroke-linecap="round" stroke-linejoin="round" opacity="0.95">
    <title>3540 c:1</title>
  </polyline>
</svg>
