<?xml version="1.0" encoding="UTF-8"?>
<svg xmlns="http://www.w3.org/2000/svg" width="65" height="54" viewBox="0 0 65 54">
  <title>atom 3545 c:1</title>
  <metadata>{&quot;entityType&quot;:&quot;atom&quot;,&quot;entityId&quot;:&quot;3545&quot;,&quot;token&quot;:&quot;c:1&quot;,&quot;signature&quot;:&quot;c:1&quot;,&quot;imageName&quot;:&quot;page-003.jpg&quot;,&quot;imageId&quot;:3,&quot;bounds&quot;:{&quot;x&quot;:1670,&quot;y&quot;:2118,&quot;w&quot;:65,&quot;h&quot;:54},&quot;atoms&quot;:[{&quot;id&quot;:3545,&quot;token&quot;:&quot;c:1&quot;,&quot;particle_id&quot;:&quot;img3-m136-p4&quot;,&quot;molecule_id&quot;:&quot;img3-m136&quot;,&quot;atom_order&quot;:4}]}</metadata>
  <rect x="0" y="0" width="65" height="54" fill="#f8f0d8"/>
  <image href="file:///C:/Users/HHHES/AppData/Roaming/com.voynichlab.datasetcreator/images/1/35a70f63-88ab-4986-b441-b78046a10087.jpg" x="-1670" y="-2118" width="2972" height="3766" opacity="0.92"/>
  <rect x="0.5" y="0.5" width="64" height="53" fill="none" stroke="#111827" stroke-width="1" opacity="0.35"/>
  <polyline points="38,37 38,36 39,36 40,36 40,35 41,35 42,35 43,34 44,33 45,33 46,32 46,31 47,31 48,30 48,29 49,29 49,28 49,27 49,26 49,25 49,24 49,23 48,22 47,21 46,21 46,20 45,20 45,19 44,19 44,18 43,18 42,18 41,18 40,17 39,17 38,17 37,17 36,17 35,16 34,16 33,16 32,17 31,17 30,17 29,17 29,18 28,18 27,18 26,18 25,19 24,19 23,19 22,20 21,20 21,21 20,21 19,22 18,23 18,24 17,24 17,25 17,26 17,27 16,27 16,28 16,29 16,30 16,31 17,32 17,33 18,33 18,34 19,35 19,36 20,36 21,37 22,37 23,37 24,37 25,37 26,37 27,37 28,37 29,37 30,37 31,37 32,37 32,38 33,38 34,38 35,38 36,38 37,37 38,37 39,37 39,36" fill="none" stroke="#8aff00" stroke-width="3" stroke-linecap="round" stroke-linejoin="round" opacity="0.95">
    <title>3545 c:1</title>
  </polyline>
</svg>
