<?xml version="1.0" encoding="UTF-8"?>
<svg xmlns="http://www.w3.org/2000/svg" width="58" height="53" viewBox="0 0 58 53">
  <title>atom 3546 c:1</title>
  <metadata>{&quot;entityType&quot;:&quot;atom&quot;,&quot;entityId&quot;:&quot;3546&quot;,&quot;token&quot;:&quot;c:1&quot;,&quot;signature&quot;:&quot;c:1&quot;,&quot;imageName&quot;:&quot;page-003.jpg&quot;,&quot;imageId&quot;:3,&quot;bounds&quot;:{&quot;x&quot;:1759,&quot;y&quot;:2125,&quot;w&quot;:58,&quot;h&quot;:53},&quot;atoms&quot;:[{&quot;id&quot;:3546,&quot;token&quot;:&quot;c:1&quot;,&quot;particle_id&quot;:&quot;img3-m134-p1&quot;,&quot;molecule_id&quot;:&quot;img3-m134&quot;,&quot;atom_order&quot;:14}]}</metadata>
  <rect x="0" y="0" width="58" height="53" fill="#f8f0d8"/>
  <image href="file:///C:/Users/HHHES/AppData/Roaming/com.voynichlab.datasetcreator/images/1/35a70f63-88ab-4986-b441-b78046a10087.jpg" x="-1759" y="-2125" width="2972" height="3766" opacity="0.92"/>
  <rect x="0.5" y="0.5" width="57" height="52" fill="none" stroke="#111827" stroke-width="1" opacity="0.35"/>
  <polyline points="35,36 35,35 36,35 37,35 37,34 38,34 39,33 40,32 40,31 41,31 41,30 41,29 42,28 42,27 42,26 42,25 42,24 42,23 41,22 41,21 40,21 40,20 40,19 39,18 38,18 38,17 37,16 36,16 35,16 34,16 32,16 31,16 30,16 29,16 28,16 27,16 26,16 25,16 25,17 24,17 23,18 22,18 22,19 21,19 21,20 20,20 20,21 19,21 19,22 18,23 17,23 17,24 17,25 16,25 16,26 16,27 16,28 16,29 16,30 16,31 17,32 18,33 19,33 19,34 20,34 21,35 22,35 22,36 23,36 24,36 25,36 26,36 27,36 27,37 28,37 29,37 30,37 31,37 32,37 33,37 34,36 35,36 36,35" fill="none" stroke="#8aff00" stroke-width="3" stroke-linecap="round" stroke-linejoin="round" opacity="0.95">
    <title>3546 c:1</title>
  </polyline>
</svg>
