<?xml version="1.0" encoding="UTF-8"?>
<svg xmlns="http://www.w3.org/2000/svg" width="52" height="55" viewBox="0 0 52 55">
  <title>atom 3548 c:1</title>
  <metadata>{&quot;entityType&quot;:&quot;atom&quot;,&quot;entityId&quot;:&quot;3548&quot;,&quot;token&quot;:&quot;c:1&quot;,&quot;signature&quot;:&quot;c:1&quot;,&quot;imageName&quot;:&quot;page-003.jpg&quot;,&quot;imageId&quot;:3,&quot;bounds&quot;:{&quot;x&quot;:2145,&quot;y&quot;:2169,&quot;w&quot;:52,&quot;h&quot;:55},&quot;atoms&quot;:[{&quot;id&quot;:3548,&quot;token&quot;:&quot;c:1&quot;,&quot;particle_id&quot;:&quot;img3-m139-p1&quot;,&quot;molecule_id&quot;:&quot;img3-m139&quot;,&quot;atom_order&quot;:2}]}</metadata>
  <rect x="0" y="0" width="52" height="55" fill="#f8f0d8"/>
  <image href="file:///C:/Users/HHHES/AppData/Roaming/com.voynichlab.datasetcreator/images/1/35a70f63-88ab-4986-b441-b78046a10087.jpg" x="-2145" y="-2169" width="2972" height="3766" opacity="0.92"/>
  <rect x="0.5" y="0.5" width="51" height="54" fill="none" stroke="#111827" stroke-width="1" opacity="0.35"/>
  <polyline points="27,39 28,39 29,39 29,38 30,38 31,37 32,36 33,36 33,35 33,34 34,34 34,33 35,32 35,31 35,30 35,29 35,28 36,28 36,27 36,26 36,25 36,24 35,23 35,22 35,21 35,20 34,20 34,19 33,19 33,18 32,18 31,18 30,18 30,17 29,17 28,17 27,17 26,17 26,16 26,17 25,17 24,17 23,17 23,18 22,18 21,18 20,19 19,19 19,20 18,20 18,21 17,22 17,23 16,23 16,24 16,25 16,26 16,27 16,28 16,29 16,30 16,31 16,32 17,32 17,33 17,34 18,34 18,35 18,36 19,36 19,37 20,37 20,38 21,38 22,38 22,39 23,39 24,39 25,39 26,39 27,39" fill="none" stroke="#8aff00" stroke-width="3" stroke-linecap="round" stroke-linejoin="round" opacity="0.95">
    <title>3548 c:1</title>
  </polyline>
</svg>
