<?xml version="1.0" encoding="UTF-8"?>
<svg xmlns="http://www.w3.org/2000/svg" width="55" height="50" viewBox="0 0 55 50">
  <title>atom 3551 c:1</title>
  <metadata>{&quot;entityType&quot;:&quot;atom&quot;,&quot;entityId&quot;:&quot;3551&quot;,&quot;token&quot;:&quot;c:1&quot;,&quot;signature&quot;:&quot;c:1&quot;,&quot;imageName&quot;:&quot;page-003.jpg&quot;,&quot;imageId&quot;:3,&quot;bounds&quot;:{&quot;x&quot;:2306,&quot;y&quot;:2141,&quot;w&quot;:55,&quot;h&quot;:50},&quot;atoms&quot;:[{&quot;id&quot;:3551,&quot;token&quot;:&quot;c:1&quot;,&quot;particle_id&quot;:&quot;img3-m139-p4&quot;,&quot;molecule_id&quot;:&quot;img3-m139&quot;,&quot;atom_order&quot;:4}]}</metadata>
  <rect x="0" y="0" width="55" height="50" fill="#f8f0d8"/>
  <image href="file:///C:/Users/HHHES/AppData/Roaming/com.voynichlab.datasetcreator/images/1/35a70f63-88ab-4986-b441-b78046a10087.jpg" x="-2306" y="-2141" width="2972" height="3766" opacity="0.92"/>
  <rect x="0.5" y="0.5" width="54" height="49" fill="none" stroke="#111827" stroke-width="1" opacity="0.35"/>
  <polyline points="35,33 35,32 36,32 36,31 37,31 37,30 38,30 38,29 38,28 39,28 39,27 39,26 39,25 39,24 38,23 38,22 38,21 37,21 37,20 36,20 36,19 35,19 35,18 34,18 33,17 32,17 31,17 30,17 29,17 28,17 28,16 27,16 26,16 26,17 25,17 24,17 23,17 23,18 22,18 21,18 20,19 19,20 18,20 18,21 17,21 17,22 16,22 16,23 16,24 16,25 16,26 16,27 16,28 16,29 16,30 17,30 17,31 18,31 18,32 19,32 20,32 21,33 22,33 23,34 24,34 25,34 26,34 27,34 28,34 29,34 30,34 31,34 32,34 33,34 33,33 34,33 35,32" fill="none" stroke="#8aff00" stroke-width="3" stroke-linecap="round" stroke-linejoin="round" opacity="0.95">
    <title>3551 c:1</title>
  </polyline>
</svg>
