<?xml version="1.0" encoding="UTF-8"?>
<svg xmlns="http://www.w3.org/2000/svg" width="56" height="51" viewBox="0 0 56 51">
  <title>atom 3556 c:1</title>
  <metadata>{&quot;entityType&quot;:&quot;atom&quot;,&quot;entityId&quot;:&quot;3556&quot;,&quot;token&quot;:&quot;c:1&quot;,&quot;signature&quot;:&quot;c:1&quot;,&quot;imageName&quot;:&quot;page-003.jpg&quot;,&quot;imageId&quot;:3,&quot;bounds&quot;:{&quot;x&quot;:1301,&quot;y&quot;:2199,&quot;w&quot;:56,&quot;h&quot;:51},&quot;atoms&quot;:[{&quot;id&quot;:3556,&quot;token&quot;:&quot;c:1&quot;,&quot;particle_id&quot;:&quot;img3-m140-p1&quot;,&quot;molecule_id&quot;:&quot;img3-m140&quot;,&quot;atom_order&quot;:4}]}</metadata>
  <rect x="0" y="0" width="56" height="51" fill="#f8f0d8"/>
  <image href="file:///C:/Users/HHHES/AppData/Roaming/com.voynichlab.datasetcreator/images/1/35a70f63-88ab-4986-b441-b78046a10087.jpg" x="-1301" y="-2199" width="2972" height="3766" opacity="0.92"/>
  <rect x="0.5" y="0.5" width="55" height="50" fill="none" stroke="#111827" stroke-width="1" opacity="0.35"/>
  <polyline points="39,34 39,33 39,32 39,31 40,31 40,30 40,29 40,28 40,27 40,26 39,26 39,25 39,24 38,24 38,23 38,22 37,21 37,20 36,20 36,19 35,19 35,18 34,18 33,18 32,17 31,17 30,17 29,17 28,17 27,17 27,16 26,16 25,17 24,17 23,17 22,17 21,17 21,18 20,18 20,19 19,19 19,20 18,21 18,22 17,22 17,23 17,24 16,25 16,26 16,27 16,28 16,29 17,29 17,30 18,31 18,32 19,32 20,33 21,33 22,34 23,34 24,35 25,35 26,35 27,35 28,35 29,35 30,35 31,35 32,35 33,35 34,35 35,35 36,34 37,34 38,34 38,33 37,33" fill="none" stroke="#8aff00" stroke-width="3" stroke-linecap="round" stroke-linejoin="round" opacity="0.95">
    <title>3556 c:1</title>
  </polyline>
</svg>
