<?xml version="1.0" encoding="UTF-8"?>
<svg xmlns="http://www.w3.org/2000/svg" width="58" height="53" viewBox="0 0 58 53">
  <title>atom 3559 c:1</title>
  <metadata>{&quot;entityType&quot;:&quot;atom&quot;,&quot;entityId&quot;:&quot;3559&quot;,&quot;token&quot;:&quot;c:1&quot;,&quot;signature&quot;:&quot;c:1&quot;,&quot;imageName&quot;:&quot;page-003.jpg&quot;,&quot;imageId&quot;:3,&quot;bounds&quot;:{&quot;x&quot;:2009,&quot;y&quot;:2230,&quot;w&quot;:58,&quot;h&quot;:53},&quot;atoms&quot;:[{&quot;id&quot;:3559,&quot;token&quot;:&quot;c:1&quot;,&quot;particle_id&quot;:&quot;img3-m146-p2&quot;,&quot;molecule_id&quot;:&quot;img3-m146&quot;,&quot;atom_order&quot;:4}]}</metadata>
  <rect x="0" y="0" width="58" height="53" fill="#f8f0d8"/>
  <image href="file:///C:/Users/HHHES/AppData/Roaming/com.voynichlab.datasetcreator/images/1/35a70f63-88ab-4986-b441-b78046a10087.jpg" x="-2009" y="-2230" width="2972" height="3766" opacity="0.92"/>
  <rect x="0.5" y="0.5" width="57" height="52" fill="none" stroke="#111827" stroke-width="1" opacity="0.35"/>
  <polyline points="28,37 29,37 30,37 31,36 32,36 33,36 33,35 34,35 35,35 35,34 36,34 37,33 38,33 38,32 39,32 39,31 40,31 40,30 41,30 41,29 41,28 41,27 42,27 42,26 42,25 42,24 41,24 41,23 41,22 41,21 41,20 40,20 40,19 39,19 39,18 38,18 38,17 37,17 36,17 35,16 34,16 33,16 32,16 31,16 30,16 29,16 28,16 27,16 26,16 25,16 24,16 23,16 23,17 22,17 22,18 21,18 21,19 20,19 19,20 19,21 18,21 18,22 17,22 17,23 17,24 17,25 16,25 16,26 16,27 16,28 16,29 16,30 17,30 17,31 17,32 18,32 18,33 19,33 20,34 21,34 21,35 22,35 23,36 24,36 25,36 26,36 27,36 28,36 28,37 29,37" fill="none" stroke="#8aff00" stroke-width="3" stroke-linecap="round" stroke-linejoin="round" opacity="0.95">
    <title>3559 c:1</title>
  </polyline>
</svg>
