<?xml version="1.0" encoding="UTF-8"?>
<svg xmlns="http://www.w3.org/2000/svg" width="53" height="58" viewBox="0 0 53 58">
  <title>atom 3768 c:1</title>
  <metadata>{&quot;entityType&quot;:&quot;atom&quot;,&quot;entityId&quot;:&quot;3768&quot;,&quot;token&quot;:&quot;c:1&quot;,&quot;signature&quot;:&quot;c:1&quot;,&quot;imageName&quot;:&quot;page-003.jpg&quot;,&quot;imageId&quot;:3,&quot;bounds&quot;:{&quot;x&quot;:1005,&quot;y&quot;:2439,&quot;w&quot;:53,&quot;h&quot;:58},&quot;atoms&quot;:[{&quot;id&quot;:3768,&quot;token&quot;:&quot;c:1&quot;,&quot;particle_id&quot;:&quot;img3-m150-p4&quot;,&quot;molecule_id&quot;:&quot;img3-m150&quot;,&quot;atom_order&quot;:3}]}</metadata>
  <rect x="0" y="0" width="53" height="58" fill="#f8f0d8"/>
  <image href="file:///C:/Users/HHHES/AppData/Roaming/com.voynichlab.datasetcreator/images/1/35a70f63-88ab-4986-b441-b78046a10087.jpg" x="-1005" y="-2439" width="2972" height="3766" opacity="0.92"/>
  <rect x="0.5" y="0.5" width="52" height="57" fill="none" stroke="#111827" stroke-width="1" opacity="0.35"/>
  <polyline points="18,42 19,42 20,42 21,42 21,41 22,41 23,41 23,40 24,40 25,40 26,39 27,39 27,38 28,38 29,37 30,37 31,36 32,36 32,35 33,34 33,33 34,33 34,32 35,32 35,31 35,30 35,29 36,29 36,28 36,27 37,27 37,26 37,25 37,24 37,23 37,22 37,21 37,20 37,19 36,18 36,17 35,17 35,16 34,16 33,16 32,16 31,16 30,16 29,16 28,16 27,16 27,17 26,17 25,17 25,18 24,18 24,19 23,19 22,20 21,20 21,21 20,21 20,22 19,22 19,23 18,23 18,24 18,25 17,25 17,26 17,27 17,28 17,29 17,30 17,31 16,31 16,32 16,33 16,34 16,35 16,36 17,36 17,37 17,38 17,39 17,40 17,41 18,41 18,42" fill="none" stroke="#8aff00" stroke-width="3" stroke-linecap="round" stroke-linejoin="round" opacity="0.95">
    <title>3768 c:1</title>
  </polyline>
</svg>
