<?xml version="1.0" encoding="UTF-8"?>
<svg xmlns="http://www.w3.org/2000/svg" width="52" height="58" viewBox="0 0 52 58">
  <title>atom 3770 c:1</title>
  <metadata>{&quot;entityType&quot;:&quot;atom&quot;,&quot;entityId&quot;:&quot;3770&quot;,&quot;token&quot;:&quot;c:1&quot;,&quot;signature&quot;:&quot;c:1&quot;,&quot;imageName&quot;:&quot;page-003.jpg&quot;,&quot;imageId&quot;:3,&quot;bounds&quot;:{&quot;x&quot;:1358,&quot;y&quot;:2418,&quot;w&quot;:52,&quot;h&quot;:58},&quot;atoms&quot;:[{&quot;id&quot;:3770,&quot;token&quot;:&quot;c:1&quot;,&quot;particle_id&quot;:&quot;img3-m148-p1&quot;,&quot;molecule_id&quot;:&quot;img3-m148&quot;,&quot;atom_order&quot;:4}]}</metadata>
  <rect x="0" y="0" width="52" height="58" fill="#f8f0d8"/>
  <image href="file:///C:/Users/HHHES/AppData/Roaming/com.voynichlab.datasetcreator/images/1/35a70f63-88ab-4986-b441-b78046a10087.jpg" x="-1358" y="-2418" width="2972" height="3766" opacity="0.92"/>
  <rect x="0.5" y="0.5" width="51" height="57" fill="none" stroke="#111827" stroke-width="1" opacity="0.35"/>
  <polyline points="16,27 16,26 16,25 16,24 17,23 17,22 17,21 18,21 18,20 19,20 19,19 19,18 20,18 20,17 21,17 22,17 22,16 23,16 24,16 25,16 26,16 27,16 28,16 29,16 30,16 31,16 32,16 32,17 33,17 34,18 34,19 35,19 35,20 35,21 36,22 36,23 36,24 36,25 36,26 36,27 36,28 36,29 35,30 35,31 35,32 35,33 34,34 34,35 34,36 34,37 33,37 33,38 33,39 32,39 32,40 31,40 30,40 29,41 28,41 27,41 26,42 25,42 24,41 23,41 22,41 22,40 21,40 21,39 20,39 20,38 19,38 19,37 18,37 18,36 18,35 17,35 17,34 17,33 17,32 17,31 17,30 17,29 17,28 17,27 17,26 17,25 16,25" fill="none" stroke="#8aff00" stroke-width="3" stroke-linecap="round" stroke-linejoin="round" opacity="0.95">
    <title>3770 c:1</title>
  </polyline>
</svg>
