<?xml version="1.0" encoding="UTF-8"?>
<svg xmlns="http://www.w3.org/2000/svg" width="47" height="51" viewBox="0 0 47 51">
  <title>atom 3773 c:1</title>
  <metadata>{&quot;entityType&quot;:&quot;atom&quot;,&quot;entityId&quot;:&quot;3773&quot;,&quot;token&quot;:&quot;c:1&quot;,&quot;signature&quot;:&quot;c:1&quot;,&quot;imageName&quot;:&quot;page-003.jpg&quot;,&quot;imageId&quot;:3,&quot;bounds&quot;:{&quot;x&quot;:1839,&quot;y&quot;:2451,&quot;w&quot;:47,&quot;h&quot;:51},&quot;atoms&quot;:[{&quot;id&quot;:3773,&quot;token&quot;:&quot;c:1&quot;,&quot;particle_id&quot;:&quot;img3-m149-p1&quot;,&quot;molecule_id&quot;:&quot;img3-m149&quot;,&quot;atom_order&quot;:5}]}</metadata>
  <rect x="0" y="0" width="47" height="51" fill="#f8f0d8"/>
  <image href="file:///C:/Users/HHHES/AppData/Roaming/com.voynichlab.datasetcreator/images/1/35a70f63-88ab-4986-b441-b78046a10087.jpg" x="-1839" y="-2451" width="2972" height="3766" opacity="0.92"/>
  <rect x="0.5" y="0.5" width="46" height="50" fill="none" stroke="#111827" stroke-width="1" opacity="0.35"/>
  <polyline points="16,22 16,21 16,20 17,20 17,19 18,19 18,18 19,18 19,17 20,17 21,16 22,16 23,16 24,16 25,16 26,16 27,16 28,16 28,17 29,17 30,18 30,19 31,19 31,20 31,21 31,22 31,23 31,24 31,25 31,26 31,27 31,28 30,28 30,29 29,30 29,31 28,31 28,32 27,32 27,33 26,33 26,34 25,34 24,34 24,35 23,35 22,35 21,35 20,35 20,34 19,34 18,34 17,33 16,32 16,31 16,30 17,29 17,28 17,27 17,26 16,25 16,24 16,23 16,22 16,21" fill="none" stroke="#8aff00" stroke-width="3" stroke-linecap="round" stroke-linejoin="round" opacity="0.95">
    <title>3773 c:1</title>
  </polyline>
</svg>
