<?xml version="1.0" encoding="UTF-8"?>
<svg xmlns="http://www.w3.org/2000/svg" width="47" height="46" viewBox="0 0 47 46">
  <title>atom 3845 c:1</title>
  <metadata>{&quot;entityType&quot;:&quot;atom&quot;,&quot;entityId&quot;:&quot;3845&quot;,&quot;token&quot;:&quot;c:1&quot;,&quot;signature&quot;:&quot;c:1&quot;,&quot;imageName&quot;:&quot;page-003.jpg&quot;,&quot;imageId&quot;:3,&quot;bounds&quot;:{&quot;x&quot;:580,&quot;y&quot;:2572,&quot;w&quot;:47,&quot;h&quot;:46},&quot;atoms&quot;:[{&quot;id&quot;:3845,&quot;token&quot;:&quot;c:1&quot;,&quot;particle_id&quot;:&quot;img3-m158-p2&quot;,&quot;molecule_id&quot;:&quot;img3-m158&quot;,&quot;atom_order&quot;:2}]}</metadata>
  <rect x="0" y="0" width="47" height="46" fill="#f8f0d8"/>
  <image href="file:///C:/Users/HHHES/AppData/Roaming/com.voynichlab.datasetcreator/images/1/35a70f63-88ab-4986-b441-b78046a10087.jpg" x="-580" y="-2572" width="2972" height="3766" opacity="0.92"/>
  <rect x="0.5" y="0.5" width="46" height="45" fill="none" stroke="#111827" stroke-width="1" opacity="0.35"/>
  <polyline points="20,16 21,16 22,16 23,16 24,16 25,16 26,16 27,16 27,17 28,17 29,17 30,17 30,18 31,18 31,19 31,20 31,21 31,22 31,23 30,23 30,24 30,25 30,26 29,26 29,27 28,27 28,28 28,29 27,29 26,29 26,30 25,30 24,30 23,30 22,30 21,30 20,29 19,29 19,28 18,28 18,27 17,27 17,26 17,25 16,25 16,24 16,23 16,22 16,21 17,21 17,20 17,19 18,19 18,18 19,18 20,17 21,17 21,16 22,16 23,16 24,16" fill="none" stroke="#8aff00" stroke-width="3" stroke-linecap="round" stroke-linejoin="round" opacity="0.95">
    <title>3845 c:1</title>
  </polyline>
</svg>
