<?xml version="1.0" encoding="UTF-8"?>
<svg xmlns="http://www.w3.org/2000/svg" width="58" height="52" viewBox="0 0 58 52">
  <title>atom 3850 c:1</title>
  <metadata>{&quot;entityType&quot;:&quot;atom&quot;,&quot;entityId&quot;:&quot;3850&quot;,&quot;token&quot;:&quot;c:1&quot;,&quot;signature&quot;:&quot;c:1&quot;,&quot;imageName&quot;:&quot;page-003.jpg&quot;,&quot;imageId&quot;:3,&quot;bounds&quot;:{&quot;x&quot;:2129,&quot;y&quot;:2589,&quot;w&quot;:58,&quot;h&quot;:52},&quot;atoms&quot;:[{&quot;id&quot;:3850,&quot;token&quot;:&quot;c:1&quot;,&quot;particle_id&quot;:&quot;img3-m160-p1&quot;,&quot;molecule_id&quot;:&quot;img3-m160&quot;,&quot;atom_order&quot;:4}]}</metadata>
  <rect x="0" y="0" width="58" height="52" fill="#f8f0d8"/>
  <image href="file:///C:/Users/HHHES/AppData/Roaming/com.voynichlab.datasetcreator/images/1/35a70f63-88ab-4986-b441-b78046a10087.jpg" x="-2129" y="-2589" width="2972" height="3766" opacity="0.92"/>
  <rect x="0.5" y="0.5" width="57" height="51" fill="none" stroke="#111827" stroke-width="1" opacity="0.35"/>
  <polyline points="19,23 19,22 20,22 20,21 21,21 21,20 22,20 22,19 23,19 23,18 24,18 25,18 25,17 26,17 27,17 28,17 29,16 30,16 31,16 32,16 33,16 34,16 35,16 36,16 36,17 37,17 38,17 39,17 40,18 41,18 41,19 42,19 42,20 42,21 42,22 42,23 42,24 42,25 42,26 42,27 42,28 42,29 42,30 41,30 41,31 41,32 40,32 40,33 39,33 38,34 37,34 36,34 36,35 35,35 34,35 33,35 33,36 32,36 31,36 30,36 29,36 28,36 27,36 26,36 25,36 24,36 24,35 23,35 22,35 21,35 21,34 20,34 19,34 19,33 18,33 18,32 18,31 17,31 17,30 17,29 17,28 16,28 16,27 16,26 16,25 17,25 17,24 17,23 18,23 18,22 19,22 19,21 20,21 21,21 21,20 22,20" fill="none" stroke="#8aff00" stroke-width="3" stroke-linecap="round" stroke-linejoin="round" opacity="0.95">
    <title>3850 c:1</title>
  </polyline>
</svg>
