<?xml version="1.0" encoding="UTF-8"?>
<svg xmlns="http://www.w3.org/2000/svg" width="57" height="56" viewBox="0 0 57 56">
  <title>atom 3851 c:1</title>
  <metadata>{&quot;entityType&quot;:&quot;atom&quot;,&quot;entityId&quot;:&quot;3851&quot;,&quot;token&quot;:&quot;c:1&quot;,&quot;signature&quot;:&quot;c:1&quot;,&quot;imageName&quot;:&quot;page-003.jpg&quot;,&quot;imageId&quot;:3,&quot;bounds&quot;:{&quot;x&quot;:1626,&quot;y&quot;:2566,&quot;w&quot;:57,&quot;h&quot;:56},&quot;atoms&quot;:[{&quot;id&quot;:3851,&quot;token&quot;:&quot;c:1&quot;,&quot;particle_id&quot;:&quot;img3-m156-p1&quot;,&quot;molecule_id&quot;:&quot;img3-m156&quot;,&quot;atom_order&quot;:3}]}</metadata>
  <rect x="0" y="0" width="57" height="56" fill="#f8f0d8"/>
  <image href="file:///C:/Users/HHHES/AppData/Roaming/com.voynichlab.datasetcreator/images/1/35a70f63-88ab-4986-b441-b78046a10087.jpg" x="-1626" y="-2566" width="2972" height="3766" opacity="0.92"/>
  <rect x="0.5" y="0.5" width="56" height="55" fill="none" stroke="#111827" stroke-width="1" opacity="0.35"/>
  <polyline points="17,22 17,21 18,21 18,20 19,20 19,19 20,19 20,18 21,18 22,18 22,17 23,17 24,17 25,17 25,16 26,16 27,16 28,16 29,16 30,16 31,16 32,16 33,16 34,16 35,16 35,17 36,17 37,17 37,18 38,18 38,19 39,19 39,20 40,21 40,22 40,23 40,24 40,25 40,26 40,27 41,27 41,28 41,29 40,29 40,30 40,31 40,32 39,32 39,33 38,34 38,35 37,35 37,36 36,36 36,37 35,37 35,38 34,38 33,38 33,39 32,39 31,39 31,40 30,40 29,40 28,40 27,40 26,40 25,40 24,40 23,40 22,40 21,39 20,39 20,38 19,38 18,37 17,37 17,36 17,35 17,34 16,33 16,32 16,31 16,30 16,29 16,28 16,27 16,26 16,25 16,24 17,23 17,22 17,21 18,21 18,20 19,20" fill="none" stroke="#8aff00" stroke-width="3" stroke-linecap="round" stroke-linejoin="round" opacity="0.95">
    <title>3851 c:1</title>
  </polyline>
</svg>
