<?xml version="1.0" encoding="UTF-8"?>
<svg xmlns="http://www.w3.org/2000/svg" width="60" height="52" viewBox="0 0 60 52">
  <title>atom 3937 c:1</title>
  <metadata>{&quot;entityType&quot;:&quot;atom&quot;,&quot;entityId&quot;:&quot;3937&quot;,&quot;token&quot;:&quot;c:1&quot;,&quot;signature&quot;:&quot;c:1&quot;,&quot;imageName&quot;:&quot;page-003.jpg&quot;,&quot;imageId&quot;:3,&quot;bounds&quot;:{&quot;x&quot;:1558,&quot;y&quot;:2653,&quot;w&quot;:60,&quot;h&quot;:52},&quot;atoms&quot;:[{&quot;id&quot;:3937,&quot;token&quot;:&quot;c:1&quot;,&quot;particle_id&quot;:&quot;img3-m166-p1&quot;,&quot;molecule_id&quot;:&quot;img3-m166&quot;,&quot;atom_order&quot;:4}]}</metadata>
  <rect x="0" y="0" width="60" height="52" fill="#f8f0d8"/>
  <image href="file:///C:/Users/HHHES/AppData/Roaming/com.voynichlab.datasetcreator/images/1/35a70f63-88ab-4986-b441-b78046a10087.jpg" x="-1558" y="-2653" width="2972" height="3766" opacity="0.92"/>
  <rect x="0.5" y="0.5" width="59" height="51" fill="none" stroke="#111827" stroke-width="1" opacity="0.35"/>
  <polyline points="18,23 19,22 19,21 20,21 20,20 21,20 21,19 22,19 22,18 23,18 23,17 24,17 25,17 25,16 26,16 27,16 28,16 29,16 30,16 31,16 32,16 33,16 34,16 35,16 36,16 37,16 38,17 39,17 39,18 40,18 40,19 41,19 41,20 42,20 42,21 43,21 43,22 43,23 44,23 44,24 44,25 44,26 44,27 43,28 43,29 42,30 41,31 40,31 40,32 39,32 39,33 38,33 37,34 36,34 35,34 35,35 34,35 33,35 32,35 31,35 30,35 29,36 28,36 27,36 26,36 25,36 24,36 24,35 23,35 22,34 21,34 21,33 20,33 19,32 18,32 18,31 18,30 17,30 17,29 17,28 17,27 16,26 16,25 16,24 16,23 17,23 17,22 18,22 19,22" fill="none" stroke="#8aff00" stroke-width="3" stroke-linecap="round" stroke-linejoin="round" opacity="0.95">
    <title>3937 c:1</title>
  </polyline>
</svg>
