<?xml version="1.0" encoding="UTF-8"?>
<svg xmlns="http://www.w3.org/2000/svg" width="61" height="55" viewBox="0 0 61 55">
  <title>atom 3941 c:1</title>
  <metadata>{&quot;entityType&quot;:&quot;atom&quot;,&quot;entityId&quot;:&quot;3941&quot;,&quot;token&quot;:&quot;c:1&quot;,&quot;signature&quot;:&quot;c:1&quot;,&quot;imageName&quot;:&quot;page-003.jpg&quot;,&quot;imageId&quot;:3,&quot;bounds&quot;:{&quot;x&quot;:2092,&quot;y&quot;:2675,&quot;w&quot;:61,&quot;h&quot;:55},&quot;atoms&quot;:[{&quot;id&quot;:3941,&quot;token&quot;:&quot;c:1&quot;,&quot;particle_id&quot;:&quot;img3-m168-p1&quot;,&quot;molecule_id&quot;:&quot;img3-m168&quot;,&quot;atom_order&quot;:5}]}</metadata>
  <rect x="0" y="0" width="61" height="55" fill="#f8f0d8"/>
  <image href="file:///C:/Users/HHHES/AppData/Roaming/com.voynichlab.datasetcreator/images/1/35a70f63-88ab-4986-b441-b78046a10087.jpg" x="-2092" y="-2675" width="2972" height="3766" opacity="0.92"/>
  <rect x="0.5" y="0.5" width="60" height="54" fill="none" stroke="#111827" stroke-width="1" opacity="0.35"/>
  <polyline points="17,22 17,21 18,21 18,20 19,20 19,19 20,19 21,18 22,17 23,17 24,17 25,16 26,16 27,16 28,16 29,16 30,16 31,16 32,16 33,17 34,17 35,17 37,18 38,18 39,19 40,20 41,20 42,20 42,21 43,22 44,23 45,24 45,25 45,26 45,27 45,28 45,29 45,30 45,31 45,32 44,32 44,33 44,34 43,34 43,35 42,35 42,36 41,36 40,37 39,37 38,38 37,38 36,38 35,39 33,39 32,39 31,39 30,39 29,39 28,39 27,39 26,39 25,39 25,38 24,38 23,38 22,37 21,37 20,37 19,36 18,36 17,35 17,34 16,34 16,33 16,32 16,31 16,30 16,29 16,28 16,27 16,26 16,25 17,25 17,24 17,23 18,23 18,22 18,21 19,21" fill="none" stroke="#8aff00" stroke-width="3" stroke-linecap="round" stroke-linejoin="round" opacity="0.95">
    <title>3941 c:1</title>
  </polyline>
</svg>
