<?xml version="1.0" encoding="UTF-8"?>
<svg xmlns="http://www.w3.org/2000/svg" width="58" height="55" viewBox="0 0 58 55">
  <title>atom 4037 c:1</title>
  <metadata>{&quot;entityType&quot;:&quot;atom&quot;,&quot;entityId&quot;:&quot;4037&quot;,&quot;token&quot;:&quot;c:1&quot;,&quot;signature&quot;:&quot;c:1&quot;,&quot;imageName&quot;:&quot;page-003.jpg&quot;,&quot;imageId&quot;:3,&quot;bounds&quot;:{&quot;x&quot;:978,&quot;y&quot;:2714,&quot;w&quot;:58,&quot;h&quot;:55},&quot;atoms&quot;:[{&quot;id&quot;:4037,&quot;token&quot;:&quot;c:1&quot;,&quot;particle_id&quot;:&quot;img3-m180-p2&quot;,&quot;molecule_id&quot;:&quot;img3-m180&quot;,&quot;atom_order&quot;:3}]}</metadata>
  <rect x="0" y="0" width="58" height="55" fill="#f8f0d8"/>
  <image href="file:///C:/Users/HHHES/AppData/Roaming/com.voynichlab.datasetcreator/images/1/35a70f63-88ab-4986-b441-b78046a10087.jpg" x="-978" y="-2714" width="2972" height="3766" opacity="0.92"/>
  <rect x="0.5" y="0.5" width="57" height="54" fill="none" stroke="#111827" stroke-width="1" opacity="0.35"/>
  <polyline points="17,26 16,25 16,24 16,23 17,23 17,22 18,21 19,20 20,19 21,19 21,18 22,18 23,18 23,17 24,17 25,17 26,17 26,16 27,16 28,16 29,16 30,16 31,16 32,16 34,16 35,16 36,17 37,17 38,17 39,17 39,18 40,18 40,19 41,19 41,20 41,21 42,21 42,22 42,23 42,24 42,25 42,26 42,27 41,27 41,28 41,29 40,30 39,31 39,32 38,32 38,33 37,34 36,34 36,35 35,35 35,36 34,36 34,37 33,37 32,37 32,38 31,38 30,38 29,38 29,39 28,39 27,39 26,39 25,39 24,39 23,39 22,39 21,39 21,38 20,38 19,37 19,36 18,36 18,35 17,35 17,34 17,33 16,32 16,31 16,30 16,29 16,28 16,27 16,26 16,25 16,24 17,24 17,23 17,22 18,22 18,21" fill="none" stroke="#8aff00" stroke-width="3" stroke-linecap="round" stroke-linejoin="round" opacity="0.95">
    <title>4037 c:1</title>
  </polyline>
</svg>
