<?xml version="1.0" encoding="UTF-8"?>
<svg xmlns="http://www.w3.org/2000/svg" width="56" height="52" viewBox="0 0 56 52">
  <title>atom 4042 c:1</title>
  <metadata>{&quot;entityType&quot;:&quot;atom&quot;,&quot;entityId&quot;:&quot;4042&quot;,&quot;token&quot;:&quot;c:1&quot;,&quot;signature&quot;:&quot;c:1&quot;,&quot;imageName&quot;:&quot;page-003.jpg&quot;,&quot;imageId&quot;:3,&quot;bounds&quot;:{&quot;x&quot;:1491,&quot;y&quot;:2737,&quot;w&quot;:56,&quot;h&quot;:52},&quot;atoms&quot;:[{&quot;id&quot;:4042,&quot;token&quot;:&quot;c:1&quot;,&quot;particle_id&quot;:&quot;img3-m175-p1&quot;,&quot;molecule_id&quot;:&quot;img3-m175&quot;,&quot;atom_order&quot;:3}]}</metadata>
  <rect x="0" y="0" width="56" height="52" fill="#f8f0d8"/>
  <image href="file:///C:/Users/HHHES/AppData/Roaming/com.voynichlab.datasetcreator/images/1/35a70f63-88ab-4986-b441-b78046a10087.jpg" x="-1491" y="-2737" width="2972" height="3766" opacity="0.92"/>
  <rect x="0.5" y="0.5" width="55" height="51" fill="none" stroke="#111827" stroke-width="1" opacity="0.35"/>
  <polyline points="17,24 17,25 17,26 17,27 16,28 16,29 16,30 16,31 17,31 18,32 18,33 19,33 19,34 20,34 20,35 21,35 22,35 23,36 24,36 25,36 26,36 27,36 28,36 29,36 30,35 31,35 32,34 33,34 33,33 34,33 35,33 35,32 36,32 36,31 37,31 37,30 38,30 38,29 38,28 39,28 39,27 39,26 39,25 39,24 39,23 39,22 39,21 40,20 40,19 40,18 40,17 40,16 39,16 38,16 37,16 36,16 35,16 34,16 33,16 32,16 31,16 30,16 29,17 28,17 27,18 26,19 25,19 24,19 24,20 23,20 22,21 21,22 20,22 20,23 19,23 19,24 18,25 17,26 17,27 16,27 16,28 16,29" fill="none" stroke="#8aff00" stroke-width="3" stroke-linecap="round" stroke-linejoin="round" opacity="0.95">
    <title>4042 c:1</title>
  </polyline>
</svg>
