<?xml version="1.0" encoding="UTF-8"?>
<svg xmlns="http://www.w3.org/2000/svg" width="58" height="56" viewBox="0 0 58 56">
  <title>atom 4044 c:1</title>
  <metadata>{&quot;entityType&quot;:&quot;atom&quot;,&quot;entityId&quot;:&quot;4044&quot;,&quot;token&quot;:&quot;c:1&quot;,&quot;signature&quot;:&quot;c:1&quot;,&quot;imageName&quot;:&quot;page-003.jpg&quot;,&quot;imageId&quot;:3,&quot;bounds&quot;:{&quot;x&quot;:1579,&quot;y&quot;:2745,&quot;w&quot;:58,&quot;h&quot;:56},&quot;atoms&quot;:[{&quot;id&quot;:4044,&quot;token&quot;:&quot;c:1&quot;,&quot;particle_id&quot;:&quot;img3-m175-p3&quot;,&quot;molecule_id&quot;:&quot;img3-m175&quot;,&quot;atom_order&quot;:3}]}</metadata>
  <rect x="0" y="0" width="58" height="56" fill="#f8f0d8"/>
  <image href="file:///C:/Users/HHHES/AppData/Roaming/com.voynichlab.datasetcreator/images/1/35a70f63-88ab-4986-b441-b78046a10087.jpg" x="-1579" y="-2745" width="2972" height="3766" opacity="0.92"/>
  <rect x="0.5" y="0.5" width="57" height="55" fill="none" stroke="#111827" stroke-width="1" opacity="0.35"/>
  <polyline points="18,25 18,26 18,27 17,28 17,29 17,30 17,31 16,31 16,32 16,33 16,34 16,35 16,36 17,37 17,38 18,38 18,39 19,39 20,39 20,40 21,40 22,40 23,40 24,40 25,40 26,40 27,40 28,40 29,40 30,40 30,39 31,39 32,39 33,39 33,38 34,38 35,37 36,36 37,35 38,34 38,33 38,32 39,32 39,31 39,30 40,30 40,29 40,28 40,27 41,27 41,26 41,25 41,24 42,22 42,21 42,20 42,19 42,18 42,17 41,17 41,16 40,16 39,16 38,16 37,16 36,16 35,16 34,16 33,16 32,16 31,16 30,17 29,17 27,17 26,18 25,19 24,19 24,20 23,20 23,21 22,21 21,22 20,23 19,24 19,25 18,25 18,26 17,27 17,28 16,28" fill="none" stroke="#8aff00" stroke-width="3" stroke-linecap="round" stroke-linejoin="round" opacity="0.95">
    <title>4044 c:1</title>
  </polyline>
</svg>
