<?xml version="1.0" encoding="UTF-8"?>
<svg xmlns="http://www.w3.org/2000/svg" width="53" height="48" viewBox="0 0 53 48">
  <title>atom 4050 c:1</title>
  <metadata>{&quot;entityType&quot;:&quot;atom&quot;,&quot;entityId&quot;:&quot;4050&quot;,&quot;token&quot;:&quot;c:1&quot;,&quot;signature&quot;:&quot;c:1&quot;,&quot;imageName&quot;:&quot;page-003.jpg&quot;,&quot;imageId&quot;:3,&quot;bounds&quot;:{&quot;x&quot;:2199,&quot;y&quot;:2807,&quot;w&quot;:53,&quot;h&quot;:48},&quot;atoms&quot;:[{&quot;id&quot;:4050,&quot;token&quot;:&quot;c:1&quot;,&quot;particle_id&quot;:&quot;img3-m178-p6&quot;,&quot;molecule_id&quot;:&quot;img3-m178&quot;,&quot;atom_order&quot;:2}]}</metadata>
  <rect x="0" y="0" width="53" height="48" fill="#f8f0d8"/>
  <image href="file:///C:/Users/HHHES/AppData/Roaming/com.voynichlab.datasetcreator/images/1/35a70f63-88ab-4986-b441-b78046a10087.jpg" x="-2199" y="-2807" width="2972" height="3766" opacity="0.92"/>
  <rect x="0.5" y="0.5" width="52" height="47" fill="none" stroke="#111827" stroke-width="1" opacity="0.35"/>
  <polyline points="28,29 29,29 30,28 31,28 32,28 32,27 33,27 34,26 34,25 35,25 35,24 36,24 36,23 37,22 37,21 37,20 37,19 37,18 36,18 36,17 35,17 34,17 33,16 32,16 31,16 30,16 29,16 28,16 27,16 25,16 24,16 23,16 23,17 22,17 21,18 20,19 19,19 19,20 18,20 18,21 18,22 17,22 17,23 17,24 16,24 16,25 16,26 16,27 16,28 16,29 17,30 18,30 19,31 20,31 21,32 22,32 23,32 24,32 25,32 26,32 27,31 28,31 29,31 30,30 30,29 31,29 31,28 32,28 32,27 33,26" fill="none" stroke="#8aff00" stroke-width="3" stroke-linecap="round" stroke-linejoin="round" opacity="0.95">
    <title>4050 c:1</title>
  </polyline>
</svg>
