<?xml version="1.0" encoding="UTF-8"?>
<svg xmlns="http://www.w3.org/2000/svg" width="58" height="52" viewBox="0 0 58 52">
  <title>atom 4096 c:1</title>
  <metadata>{&quot;entityType&quot;:&quot;atom&quot;,&quot;entityId&quot;:&quot;4096&quot;,&quot;token&quot;:&quot;c:1&quot;,&quot;signature&quot;:&quot;c:1&quot;,&quot;imageName&quot;:&quot;page-003.jpg&quot;,&quot;imageId&quot;:3,&quot;bounds&quot;:{&quot;x&quot;:2164,&quot;y&quot;:2859,&quot;w&quot;:58,&quot;h&quot;:52},&quot;atoms&quot;:[{&quot;id&quot;:4096,&quot;token&quot;:&quot;c:1&quot;,&quot;particle_id&quot;:&quot;img3-m191-p3&quot;,&quot;molecule_id&quot;:&quot;img3-m191&quot;,&quot;atom_order&quot;:4}]}</metadata>
  <rect x="0" y="0" width="58" height="52" fill="#f8f0d8"/>
  <image href="file:///C:/Users/HHHES/AppData/Roaming/com.voynichlab.datasetcreator/images/1/35a70f63-88ab-4986-b441-b78046a10087.jpg" x="-2164" y="-2859" width="2972" height="3766" opacity="0.92"/>
  <rect x="0.5" y="0.5" width="57" height="51" fill="none" stroke="#111827" stroke-width="1" opacity="0.35"/>
  <polyline points="18,20 17,21 17,22 17,23 17,24 17,25 17,26 17,27 17,28 17,29 17,30 17,31 18,31 18,32 18,33 18,34 19,34 20,35 21,35 22,35 23,36 24,36 26,36 27,36 28,36 29,36 30,36 31,36 32,36 33,36 34,35 35,35 35,34 36,34 37,34 37,33 38,33 38,32 39,32 39,31 40,31 40,30 41,29 41,28 41,27 42,27 42,26 42,25 42,24 42,23 42,22 42,21 41,21 41,20 40,20 40,19 39,19 39,18 38,18 38,17 37,17 37,16 36,16 35,16 34,16 33,16 32,16 31,16 30,16 29,16 28,16 27,17 26,17 25,17 24,17 23,18 22,18 21,18 20,19 19,19 19,20 18,20 18,21 17,21 17,22 17,23 16,24" fill="none" stroke="#8aff00" stroke-width="3" stroke-linecap="round" stroke-linejoin="round" opacity="0.95">
    <title>4096 c:1</title>
  </polyline>
</svg>
