<?xml version="1.0" encoding="UTF-8"?>
<svg xmlns="http://www.w3.org/2000/svg" width="47" height="56" viewBox="0 0 47 56">
  <title>atom 4098 c:1</title>
  <metadata>{&quot;entityType&quot;:&quot;atom&quot;,&quot;entityId&quot;:&quot;4098&quot;,&quot;token&quot;:&quot;c:1&quot;,&quot;signature&quot;:&quot;c:1&quot;,&quot;imageName&quot;:&quot;page-003.jpg&quot;,&quot;imageId&quot;:3,&quot;bounds&quot;:{&quot;x&quot;:1994,&quot;y&quot;:2972,&quot;w&quot;:47,&quot;h&quot;:56},&quot;atoms&quot;:[{&quot;id&quot;:4098,&quot;token&quot;:&quot;c:1&quot;,&quot;particle_id&quot;:&quot;img3-m196-p1&quot;,&quot;molecule_id&quot;:&quot;img3-m196&quot;,&quot;atom_order&quot;:2}]}</metadata>
  <rect x="0" y="0" width="47" height="56" fill="#f8f0d8"/>
  <image href="file:///C:/Users/HHHES/AppData/Roaming/com.voynichlab.datasetcreator/images/1/35a70f63-88ab-4986-b441-b78046a10087.jpg" x="-1994" y="-2972" width="2972" height="3766" opacity="0.92"/>
  <rect x="0.5" y="0.5" width="46" height="55" fill="none" stroke="#111827" stroke-width="1" opacity="0.35"/>
  <polyline points="24,40 25,40 25,39 26,39 27,38 28,38 28,37 29,37 29,36 30,35 30,34 30,33 30,32 30,31 30,30 30,29 30,28 30,27 30,26 31,25 31,24 31,23 30,22 30,21 30,20 29,19 29,18 28,18 28,17 27,16 26,16 25,16 24,16 23,16 22,16 21,16 20,16 20,17 19,17 18,18 18,19 17,20 17,21 17,22 16,23 16,24 16,25 16,26 16,27 16,28 16,29 16,30 16,31 16,32 17,33 17,34 18,35 18,36 19,37 20,38 20,39 21,39 21,40 22,40 23,40 24,40 25,40" fill="none" stroke="#8aff00" stroke-width="3" stroke-linecap="round" stroke-linejoin="round" opacity="0.95">
    <title>4098 c:1</title>
  </polyline>
</svg>
