<?xml version="1.0" encoding="UTF-8"?>
<svg xmlns="http://www.w3.org/2000/svg" width="50" height="48" viewBox="0 0 50 48">
  <title>atom 4160 c:1</title>
  <metadata>{&quot;entityType&quot;:&quot;atom&quot;,&quot;entityId&quot;:&quot;4160&quot;,&quot;token&quot;:&quot;c:1&quot;,&quot;signature&quot;:&quot;c:1&quot;,&quot;imageName&quot;:&quot;page-003.jpg&quot;,&quot;imageId&quot;:3,&quot;bounds&quot;:{&quot;x&quot;:835,&quot;y&quot;:2841,&quot;w&quot;:50,&quot;h&quot;:48},&quot;atoms&quot;:[{&quot;id&quot;:4160,&quot;token&quot;:&quot;c:1&quot;,&quot;particle_id&quot;:&quot;img3-m188-p4&quot;,&quot;molecule_id&quot;:&quot;img3-m188&quot;,&quot;atom_order&quot;:2}]}</metadata>
  <rect x="0" y="0" width="50" height="48" fill="#f8f0d8"/>
  <image href="file:///C:/Users/HHHES/AppData/Roaming/com.voynichlab.datasetcreator/images/1/35a70f63-88ab-4986-b441-b78046a10087.jpg" x="-835" y="-2841" width="2972" height="3766" opacity="0.92"/>
  <rect x="0.5" y="0.5" width="49" height="47" fill="none" stroke="#111827" stroke-width="1" opacity="0.35"/>
  <polyline points="25,32 26,32 27,32 28,32 28,31 29,31 29,30 30,30 31,30 31,29 32,29 32,28 33,28 33,27 33,26 33,25 34,25 34,24 34,23 34,22 34,21 33,20 33,19 32,19 32,18 31,18 30,18 30,17 29,17 28,17 28,16 27,16 26,16 25,16 24,16 23,16 23,17 22,17 21,18 20,18 20,19 19,19 18,20 17,20 17,21 16,22 16,23 16,24 16,25 16,26 16,27 17,28 17,29 18,29 18,30 19,30 19,31 20,31 21,31 22,32 23,32 24,32 25,32 26,32" fill="none" stroke="#8aff00" stroke-width="3" stroke-linecap="round" stroke-linejoin="round" opacity="0.95">
    <title>4160 c:1</title>
  </polyline>
</svg>
