<?xml version="1.0" encoding="UTF-8"?>
<svg xmlns="http://www.w3.org/2000/svg" width="50" height="50" viewBox="0 0 50 50">
  <title>atom 4167 c:1</title>
  <metadata>{&quot;entityType&quot;:&quot;atom&quot;,&quot;entityId&quot;:&quot;4167&quot;,&quot;token&quot;:&quot;c:1&quot;,&quot;signature&quot;:&quot;c:1&quot;,&quot;imageName&quot;:&quot;page-003.jpg&quot;,&quot;imageId&quot;:3,&quot;bounds&quot;:{&quot;x&quot;:1800,&quot;y&quot;:2857,&quot;w&quot;:50,&quot;h&quot;:50},&quot;atoms&quot;:[{&quot;id&quot;:4167,&quot;token&quot;:&quot;c:1&quot;,&quot;particle_id&quot;:&quot;img3-m186-p1&quot;,&quot;molecule_id&quot;:&quot;img3-m186&quot;,&quot;atom_order&quot;:3}]}</metadata>
  <rect x="0" y="0" width="50" height="50" fill="#f8f0d8"/>
  <image href="file:///C:/Users/HHHES/AppData/Roaming/com.voynichlab.datasetcreator/images/1/35a70f63-88ab-4986-b441-b78046a10087.jpg" x="-1800" y="-2857" width="2972" height="3766" opacity="0.92"/>
  <rect x="0.5" y="0.5" width="49" height="49" fill="none" stroke="#111827" stroke-width="1" opacity="0.35"/>
  <polyline points="17,23 17,24 17,25 16,25 16,26 16,27 16,28 16,29 16,30 16,31 16,32 17,33 17,34 18,34 19,34 20,34 21,34 22,34 23,34 24,34 25,33 26,33 26,32 27,32 28,32 28,31 29,31 29,30 29,29 30,29 30,28 31,27 31,26 32,26 32,25 33,25 33,24 33,23 33,22 33,21 34,21 34,20 34,19 33,19 33,18 32,18 32,17 31,17 31,16 30,16 29,16 28,16 27,16 26,16 25,16 24,16 23,16 22,16 21,17 20,17 20,18 19,19 18,20 18,21 17,21 17,22 17,23 17,24 17,25 16,26 16,27 16,28" fill="none" stroke="#8aff00" stroke-width="3" stroke-linecap="round" stroke-linejoin="round" opacity="0.95">
    <title>4167 c:1</title>
  </polyline>
</svg>
