<?xml version="1.0" encoding="UTF-8"?>
<svg xmlns="http://www.w3.org/2000/svg" width="54" height="48" viewBox="0 0 54 48">
  <title>atom 4168 c:1</title>
  <metadata>{&quot;entityType&quot;:&quot;atom&quot;,&quot;entityId&quot;:&quot;4168&quot;,&quot;token&quot;:&quot;c:1&quot;,&quot;signature&quot;:&quot;c:1&quot;,&quot;imageName&quot;:&quot;page-003.jpg&quot;,&quot;imageId&quot;:3,&quot;bounds&quot;:{&quot;x&quot;:1938,&quot;y&quot;:2892,&quot;w&quot;:54,&quot;h&quot;:48},&quot;atoms&quot;:[{&quot;id&quot;:4168,&quot;token&quot;:&quot;c:1&quot;,&quot;particle_id&quot;:&quot;img3-m189-p1&quot;,&quot;molecule_id&quot;:&quot;img3-m189&quot;,&quot;atom_order&quot;:2}]}</metadata>
  <rect x="0" y="0" width="54" height="48" fill="#f8f0d8"/>
  <image href="file:///C:/Users/HHHES/AppData/Roaming/com.voynichlab.datasetcreator/images/1/35a70f63-88ab-4986-b441-b78046a10087.jpg" x="-1938" y="-2892" width="2972" height="3766" opacity="0.92"/>
  <rect x="0.5" y="0.5" width="53" height="47" fill="none" stroke="#111827" stroke-width="1" opacity="0.35"/>
  <polyline points="23,32 24,32 25,32 26,32 27,31 28,31 29,31 29,30 30,30 31,30 31,29 32,29 32,28 33,28 33,27 34,27 35,27 35,26 35,25 36,25 36,24 37,24 37,23 37,22 38,22 38,21 38,20 38,19 37,18 37,17 36,17 35,17 34,17 34,16 33,16 32,16 31,16 30,16 29,16 27,16 26,16 24,17 23,17 22,17 21,18 21,19 20,19 20,20 19,20 19,21 18,21 18,22 17,22 17,23 16,23 16,24 16,25 16,26 16,27 16,28 17,28 17,29 18,29 18,30 18,31 19,31 20,31 21,31 22,32 23,32 24,32" fill="none" stroke="#8aff00" stroke-width="3" stroke-linecap="round" stroke-linejoin="round" opacity="0.95">
    <title>4168 c:1</title>
  </polyline>
</svg>
