<?xml version="1.0" encoding="UTF-8"?>
<svg xmlns="http://www.w3.org/2000/svg" width="56" height="57" viewBox="0 0 56 57">
  <title>atom 4173 c:1</title>
  <metadata>{&quot;entityType&quot;:&quot;atom&quot;,&quot;entityId&quot;:&quot;4173&quot;,&quot;token&quot;:&quot;c:1&quot;,&quot;signature&quot;:&quot;c:1&quot;,&quot;imageName&quot;:&quot;page-003.jpg&quot;,&quot;imageId&quot;:3,&quot;bounds&quot;:{&quot;x&quot;:1013,&quot;y&quot;:2897,&quot;w&quot;:56,&quot;h&quot;:57},&quot;atoms&quot;:[{&quot;id&quot;:4173,&quot;token&quot;:&quot;c:1&quot;,&quot;particle_id&quot;:&quot;img3-m194-p3&quot;,&quot;molecule_id&quot;:&quot;img3-m194&quot;,&quot;atom_order&quot;:2}]}</metadata>
  <rect x="0" y="0" width="56" height="57" fill="#f8f0d8"/>
  <image href="file:///C:/Users/HHHES/AppData/Roaming/com.voynichlab.datasetcreator/images/1/35a70f63-88ab-4986-b441-b78046a10087.jpg" x="-1013" y="-2897" width="2972" height="3766" opacity="0.92"/>
  <rect x="0.5" y="0.5" width="55" height="56" fill="none" stroke="#111827" stroke-width="1" opacity="0.35"/>
  <polyline points="19,24 19,25 18,25 18,26 17,27 17,28 17,29 16,30 16,31 16,32 16,33 16,34 17,35 17,36 18,37 18,38 19,38 19,39 20,39 20,40 21,40 22,40 23,40 24,40 25,41 26,41 27,41 28,40 29,40 30,40 31,40 32,39 33,39 33,38 34,38 35,37 36,37 36,36 37,36 37,35 38,35 38,34 39,33 39,32 39,31 40,31 40,30 40,29 40,28 40,27 40,26 40,25 40,24 40,23 40,22 40,21 40,20 39,20 38,19 37,18 36,17 35,17 35,16 34,16 33,16 32,16 31,16 30,16 29,16 28,16 28,17 27,17 26,18 25,18 25,19 24,19 23,19 23,20 22,20 22,21 21,22 21,23 20,23 20,24 19,25 19,26 19,27" fill="none" stroke="#8aff00" stroke-width="3" stroke-linecap="round" stroke-linejoin="round" opacity="0.95">
    <title>4173 c:1</title>
  </polyline>
</svg>
