<?xml version="1.0" encoding="UTF-8"?>
<svg xmlns="http://www.w3.org/2000/svg" width="54" height="54" viewBox="0 0 54 54">
  <title>atom 5514 c:1</title>
  <metadata>{&quot;entityType&quot;:&quot;atom&quot;,&quot;entityId&quot;:&quot;5514&quot;,&quot;token&quot;:&quot;c:1&quot;,&quot;signature&quot;:&quot;c:1&quot;,&quot;imageName&quot;:&quot;page-003.jpg&quot;,&quot;imageId&quot;:3,&quot;bounds&quot;:{&quot;x&quot;:1761,&quot;y&quot;:2126,&quot;w&quot;:54,&quot;h&quot;:54},&quot;atoms&quot;:[{&quot;id&quot;:5514,&quot;token&quot;:&quot;c:1&quot;,&quot;particle_id&quot;:&quot;img3-m136-p5&quot;,&quot;molecule_id&quot;:&quot;img3-m136&quot;,&quot;atom_order&quot;:4}]}</metadata>
  <rect x="0" y="0" width="54" height="54" fill="#f8f0d8"/>
  <image href="file:///C:/Users/HHHES/AppData/Roaming/com.voynichlab.datasetcreator/images/1/35a70f63-88ab-4986-b441-b78046a10087.jpg" x="-1761" y="-2126" width="2972" height="3766" opacity="0.92"/>
  <rect x="0.5" y="0.5" width="53" height="53" fill="none" stroke="#111827" stroke-width="1" opacity="0.35"/>
  <polyline points="24,36 25,36 26,36 27,36 28,36 29,36 30,35 31,35 31,34 32,34 33,34 33,33 34,33 34,32 35,32 35,31 36,30 36,29 37,28 37,27 38,26 38,25 38,24 38,23 38,22 38,21 37,20 37,19 36,18 35,18 35,17 34,17 34,16 33,16 32,16 31,16 30,16 29,16 28,16 27,16 26,16 26,17 25,17 25,18 24,18 23,18 22,18 22,19 21,19 20,19 20,20 19,20 19,21 18,22 17,23 17,24 17,25 17,26 16,26 16,27 16,28 16,29 16,30 16,31 16,32 16,33 16,34 17,34 17,35 17,36 18,36 18,37 19,37 19,38 20,38 21,38 22,38 23,38 24,38 25,38 25,37 26,37 27,37 27,36" fill="none" stroke="#8aff00" stroke-width="3" stroke-linecap="round" stroke-linejoin="round" opacity="0.95">
    <title>5514 c:1</title>
  </polyline>
</svg>
