<?xml version="1.0" encoding="UTF-8"?>
<svg xmlns="http://www.w3.org/2000/svg" width="60" height="41" viewBox="0 0 60 41">
  <title>d:1 distant-variant atom 5242</title>
  <rect x="0" y="0" width="60" height="41" fill="#17181b"/>
  <rect x="0.5" y="0.5" width="59" height="40" fill="none" stroke="#111827" stroke-width="1" opacity="0.35"/>
<polyline points="44,20 44,19 44,18 43,18 43,17 42,17 41,17 40,17 40,16 39,16 38,16 37,16 36,16 35,16 34,16 33,16 32,16 31,16 30,16 29,16 28,16 27,16 26,16 25,16 24,16 23,17 22,17 21,17 21,18 20,18 19,19 18,20 18,21 17,21 17,22 17,23 16,23 16,24 16,25 17,25 18,25 19,25" fill="none" stroke="#ff2d55" stroke-width="3" stroke-linecap="round" stroke-linejoin="round" opacity="0.95">
    <title>5242 d:1</title>
  </polyline>
</svg>
