<?xml version="1.0" encoding="UTF-8"?>
<svg xmlns="http://www.w3.org/2000/svg" width="67" height="41" viewBox="0 0 67 41">
  <title>d:1 near-average-variant atom 2187</title>
  <rect x="0" y="0" width="67" height="41" fill="#17181b"/>
  <rect x="0.5" y="0.5" width="66" height="40" fill="none" stroke="#111827" stroke-width="1" opacity="0.35"/>
<polyline points="16,25 16,24 17,24 17,23 18,23 19,23 19,22 20,22 20,21 21,21 22,20 23,20 23,19 24,19 25,19 25,18 26,18 27,18 27,17 28,17 29,17 30,17 31,17 32,17 33,17 33,16 34,16 35,16 36,16 37,16 38,16 39,17 40,17 41,17 42,17 43,17 43,18 44,18 45,18 45,19 46,19 47,19 47,20 48,20 49,20 49,21 50,21 50,22 50,23 50,24 51,24" fill="none" stroke="#ff2d55" stroke-width="3" stroke-linecap="round" stroke-linejoin="round" opacity="0.95">
    <title>2187 d:1</title>
  </polyline>
</svg>
