<?xml version="1.0" encoding="UTF-8"?>
<svg xmlns="http://www.w3.org/2000/svg" width="45" height="55" viewBox="0 0 45 55">
  <title>atom 1016 f:1</title>
  <metadata>{&quot;entityType&quot;:&quot;atom&quot;,&quot;entityId&quot;:&quot;1016&quot;,&quot;token&quot;:&quot;f:1&quot;,&quot;signature&quot;:&quot;f:1&quot;,&quot;imageName&quot;:&quot;page-003.jpg&quot;,&quot;imageId&quot;:3,&quot;bounds&quot;:{&quot;x&quot;:930,&quot;y&quot;:521,&quot;w&quot;:45,&quot;h&quot;:55},&quot;atoms&quot;:[{&quot;id&quot;:1016,&quot;token&quot;:&quot;f:1&quot;,&quot;particle_id&quot;:&quot;img3-m9-p3&quot;,&quot;molecule_id&quot;:&quot;img3-m9&quot;,&quot;atom_order&quot;:2}]}</metadata>
  <rect x="0" y="0" width="45" height="55" fill="#f8f0d8"/>
  <image href="file:///C:/Users/HHHES/AppData/Roaming/com.voynichlab.datasetcreator/images/1/35a70f63-88ab-4986-b441-b78046a10087.jpg" x="-930" y="-521" width="2972" height="3766" opacity="0.92"/>
  <rect x="0.5" y="0.5" width="44" height="54" fill="none" stroke="#111827" stroke-width="1" opacity="0.35"/>
  <polyline points="16,16 16,17 17,17 17,18 17,19 18,19 18,20 19,20 19,21 19,22 20,22 20,23 20,24 21,24 21,25 21,26 22,26 22,27 23,28 23,29 24,29 24,30 24,31 25,31 25,32 26,32 26,33 26,34 27,35 27,36 28,36 28,37 28,38 29,38 29,39" fill="none" stroke="#00a2ff" stroke-width="3" stroke-linecap="round" stroke-linejoin="round" opacity="0.95">
    <title>1016 f:1</title>
  </polyline>
</svg>
