<?xml version="1.0" encoding="UTF-8"?>
<svg xmlns="http://www.w3.org/2000/svg" width="39" height="48" viewBox="0 0 39 48">
  <title>atom 1202 f:1</title>
  <metadata>{&quot;entityType&quot;:&quot;atom&quot;,&quot;entityId&quot;:&quot;1202&quot;,&quot;token&quot;:&quot;f:1&quot;,&quot;signature&quot;:&quot;f:1&quot;,&quot;imageName&quot;:&quot;page-003.jpg&quot;,&quot;imageId&quot;:3,&quot;bounds&quot;:{&quot;x&quot;:1628,&quot;y&quot;:590,&quot;w&quot;:39,&quot;h&quot;:48},&quot;atoms&quot;:[{&quot;id&quot;:1202,&quot;token&quot;:&quot;f:1&quot;,&quot;particle_id&quot;:&quot;img3-m14-p3&quot;,&quot;molecule_id&quot;:&quot;img3-m14&quot;,&quot;atom_order&quot;:2}]}</metadata>
  <rect x="0" y="0" width="39" height="48" fill="#f8f0d8"/>
  <image href="file:///C:/Users/HHHES/AppData/Roaming/com.voynichlab.datasetcreator/images/1/35a70f63-88ab-4986-b441-b78046a10087.jpg" x="-1628" y="-590" width="2972" height="3766" opacity="0.92"/>
  <rect x="0.5" y="0.5" width="38" height="47" fill="none" stroke="#111827" stroke-width="1" opacity="0.35"/>
  <polyline points="16,16 16,17 17,17 17,18 17,19 18,19 18,20 18,21 19,21 19,22 19,23 20,23 20,24 20,25 20,26 21,26 21,27 21,28 22,28 22,29 22,30 23,30 23,31 23,32" fill="none" stroke="#00a2ff" stroke-width="3" stroke-linecap="round" stroke-linejoin="round" opacity="0.95">
    <title>1202 f:1</title>
  </polyline>
</svg>
