<?xml version="1.0" encoding="UTF-8"?>
<svg xmlns="http://www.w3.org/2000/svg" width="41" height="46" viewBox="0 0 41 46">
  <title>atom 1590 f:1</title>
  <metadata>{&quot;entityType&quot;:&quot;atom&quot;,&quot;entityId&quot;:&quot;1590&quot;,&quot;token&quot;:&quot;f:1&quot;,&quot;signature&quot;:&quot;f:1&quot;,&quot;imageName&quot;:&quot;page-003.jpg&quot;,&quot;imageId&quot;:3,&quot;bounds&quot;:{&quot;x&quot;:2165,&quot;y&quot;:775,&quot;w&quot;:41,&quot;h&quot;:46},&quot;atoms&quot;:[{&quot;id&quot;:1590,&quot;token&quot;:&quot;f:1&quot;,&quot;particle_id&quot;:&quot;img3-m31-p2&quot;,&quot;molecule_id&quot;:&quot;img3-m31&quot;,&quot;atom_order&quot;:1}]}</metadata>
  <rect x="0" y="0" width="41" height="46" fill="#f8f0d8"/>
  <image href="file:///C:/Users/HHHES/AppData/Roaming/com.voynichlab.datasetcreator/images/1/35a70f63-88ab-4986-b441-b78046a10087.jpg" x="-2165" y="-775" width="2972" height="3766" opacity="0.92"/>
  <rect x="0.5" y="0.5" width="40" height="45" fill="none" stroke="#111827" stroke-width="1" opacity="0.35"/>
  <polyline points="16,16 16,17 17,17 17,18 17,19 18,19 18,20 19,20 19,21 19,22 20,22 20,23 21,23 21,24 21,25 22,25 22,26 23,26 23,27 23,28 24,28 24,29 24,30 25,30" fill="none" stroke="#00a2ff" stroke-width="3" stroke-linecap="round" stroke-linejoin="round" opacity="0.95">
    <title>1590 f:1</title>
  </polyline>
</svg>
