<?xml version="1.0" encoding="UTF-8"?>
<svg xmlns="http://www.w3.org/2000/svg" width="41" height="51" viewBox="0 0 41 51">
  <title>atom 1645 f:1</title>
  <metadata>{&quot;entityType&quot;:&quot;atom&quot;,&quot;entityId&quot;:&quot;1645&quot;,&quot;token&quot;:&quot;f:1&quot;,&quot;signature&quot;:&quot;f:1&quot;,&quot;imageName&quot;:&quot;page-003.jpg&quot;,&quot;imageId&quot;:3,&quot;bounds&quot;:{&quot;x&quot;:901,&quot;y&quot;:884,&quot;w&quot;:41,&quot;h&quot;:51},&quot;atoms&quot;:[{&quot;id&quot;:1645,&quot;token&quot;:&quot;f:1&quot;,&quot;particle_id&quot;:&quot;img3-m42-p4&quot;,&quot;molecule_id&quot;:&quot;img3-m42&quot;,&quot;atom_order&quot;:1}]}</metadata>
  <rect x="0" y="0" width="41" height="51" fill="#f8f0d8"/>
  <image href="file:///C:/Users/HHHES/AppData/Roaming/com.voynichlab.datasetcreator/images/1/35a70f63-88ab-4986-b441-b78046a10087.jpg" x="-901" y="-884" width="2972" height="3766" opacity="0.92"/>
  <rect x="0.5" y="0.5" width="40" height="50" fill="none" stroke="#111827" stroke-width="1" opacity="0.35"/>
  <polyline points="25,35 25,34 24,34 24,33 24,32 23,32 23,31 22,31 22,30 22,29 21,29 21,28 21,27 21,26 20,26 20,25 19,25 19,24 19,23 18,23 18,22 18,21 17,21 17,20 17,19 17,18 17,17 16,16" fill="none" stroke="#00a2ff" stroke-width="3" stroke-linecap="round" stroke-linejoin="round" opacity="0.95">
    <title>1645 f:1</title>
  </polyline>
</svg>
