<?xml version="1.0" encoding="UTF-8"?>
<svg xmlns="http://www.w3.org/2000/svg" width="43" height="55" viewBox="0 0 43 55">
  <title>atom 1874 f:1</title>
  <metadata>{&quot;entityType&quot;:&quot;atom&quot;,&quot;entityId&quot;:&quot;1874&quot;,&quot;token&quot;:&quot;f:1&quot;,&quot;signature&quot;:&quot;f:1&quot;,&quot;imageName&quot;:&quot;page-003.jpg&quot;,&quot;imageId&quot;:3,&quot;bounds&quot;:{&quot;x&quot;:2041,&quot;y&quot;:1078,&quot;w&quot;:43,&quot;h&quot;:55},&quot;atoms&quot;:[{&quot;id&quot;:1874,&quot;token&quot;:&quot;f:1&quot;,&quot;particle_id&quot;:&quot;img3-m43-p4&quot;,&quot;molecule_id&quot;:&quot;img3-m43&quot;,&quot;atom_order&quot;:2}]}</metadata>
  <rect x="0" y="0" width="43" height="55" fill="#f8f0d8"/>
  <image href="file:///C:/Users/HHHES/AppData/Roaming/com.voynichlab.datasetcreator/images/1/35a70f63-88ab-4986-b441-b78046a10087.jpg" x="-2041" y="-1078" width="2972" height="3766" opacity="0.92"/>
  <rect x="0.5" y="0.5" width="42" height="54" fill="none" stroke="#111827" stroke-width="1" opacity="0.35"/>
  <polyline points="16,16 16,17 16,18 17,18 17,19 17,20 18,21 18,22 18,23 19,23 19,24 19,25 20,25 20,26 20,27 21,27 21,28 21,29 22,29 22,30 22,31 23,31 23,32 23,33 24,33 24,34 24,35 25,35 25,36 25,37 26,37 26,38 26,39 27,39" fill="none" stroke="#00a2ff" stroke-width="3" stroke-linecap="round" stroke-linejoin="round" opacity="0.95">
    <title>1874 f:1</title>
  </polyline>
</svg>
