<?xml version="1.0" encoding="UTF-8"?>
<svg xmlns="http://www.w3.org/2000/svg" width="45" height="61" viewBox="0 0 45 61">
  <title>atom 2673 i:1</title>
  <metadata>{&quot;entityType&quot;:&quot;atom&quot;,&quot;entityId&quot;:&quot;2673&quot;,&quot;token&quot;:&quot;i:1&quot;,&quot;signature&quot;:&quot;i:1&quot;,&quot;imageName&quot;:&quot;page-094.jpg&quot;,&quot;imageId&quot;:94,&quot;bounds&quot;:{&quot;x&quot;:1813,&quot;y&quot;:522,&quot;w&quot;:45,&quot;h&quot;:61},&quot;atoms&quot;:[{&quot;id&quot;:2673,&quot;token&quot;:&quot;i:1&quot;,&quot;particle_id&quot;:&quot;img94-m2-p1&quot;,&quot;molecule_id&quot;:&quot;img94-m2&quot;,&quot;atom_order&quot;:2}]}</metadata>
  <rect x="0" y="0" width="45" height="61" fill="#f8f0d8"/>
  
  <rect x="0.5" y="0.5" width="44" height="60" fill="none" stroke="#111827" stroke-width="1" opacity="0.35"/>
  <polyline points="16,45 17,45 18,44 19,44 19,43 20,43 20,42 21,42 21,41 22,41 22,40 23,40 23,39 24,39 24,38 25,38 25,37 26,36 26,35 27,34 27,33 28,32 28,31 28,30 28,29 28,28 28,27 29,27 29,26 29,25 29,24 28,24 28,23 28,22 28,21 27,21 27,20 27,19 26,19 26,18 26,17 25,17 25,16 24,16" fill="none" stroke="#00ff7f" stroke-width="3" stroke-linecap="round" stroke-linejoin="round" opacity="0.95">
    <title>2673 i:1</title>
  </polyline>
</svg>
