<?xml version="1.0" encoding="UTF-8"?>
<svg xmlns="http://www.w3.org/2000/svg" width="50" height="83" viewBox="0 0 50 83">
  <title>atom 2806 i:1</title>
  <metadata>{&quot;entityType&quot;:&quot;atom&quot;,&quot;entityId&quot;:&quot;2806&quot;,&quot;token&quot;:&quot;i:1&quot;,&quot;signature&quot;:&quot;i:1&quot;,&quot;imageName&quot;:&quot;page-094.jpg&quot;,&quot;imageId&quot;:94,&quot;bounds&quot;:{&quot;x&quot;:2196,&quot;y&quot;:719,&quot;w&quot;:50,&quot;h&quot;:83},&quot;atoms&quot;:[{&quot;id&quot;:2806,&quot;token&quot;:&quot;i:1&quot;,&quot;particle_id&quot;:&quot;img94-m15-p3&quot;,&quot;molecule_id&quot;:&quot;img94-m15&quot;,&quot;atom_order&quot;:3}]}</metadata>
  <rect x="0" y="0" width="50" height="83" fill="#f8f0d8"/>

  <rect x="0.5" y="0.5" width="49" height="82" fill="none" stroke="#111827" stroke-width="1" opacity="0.35"/>
  <polyline points="16,67 17,67 18,67 19,67 20,67 21,67 21,66 22,66 23,66 23,65 24,65 25,65 25,64 26,64 27,64 27,63 28,63 28,62 29,61 30,61 30,60 31,59 31,58 32,58 32,57 32,56 33,56 33,55 33,54 33,53 33,52 34,52 34,51 34,50 34,49 34,48 34,47 34,46 34,45 34,44 34,43 34,42 34,41 34,40 33,40 33,39 33,38 33,37 32,37 32,36 32,35 31,34 31,33 31,32 30,31 30,30 30,29 29,29 29,28 28,27 28,26 27,26 27,25 26,24 26,23 25,23 25,22 25,21 24,21 24,20 23,20 23,19 22,19 22,18 21,18 20,18 19,17 18,17 18,16 17,16" fill="none" stroke="#00ff7f" stroke-width="3" stroke-linecap="round" stroke-linejoin="round" opacity="0.95">
    <title>2806 i:1</title>
  </polyline>
</svg>
