<?xml version="1.0" encoding="UTF-8"?>
<svg xmlns="http://www.w3.org/2000/svg" width="55" height="59" viewBox="0 0 55 59">
  <title>atom 3193 i:1</title>
  <metadata>{&quot;entityType&quot;:&quot;atom&quot;,&quot;entityId&quot;:&quot;3193&quot;,&quot;token&quot;:&quot;i:1&quot;,&quot;signature&quot;:&quot;i:1&quot;,&quot;imageName&quot;:&quot;page-003.jpg&quot;,&quot;imageId&quot;:3,&quot;bounds&quot;:{&quot;x&quot;:1150,&quot;y&quot;:1829,&quot;w&quot;:55,&quot;h&quot;:59},&quot;atoms&quot;:[{&quot;id&quot;:3193,&quot;token&quot;:&quot;i:1&quot;,&quot;particle_id&quot;:&quot;img3-m100-p3&quot;,&quot;molecule_id&quot;:&quot;img3-m100&quot;,&quot;atom_order&quot;:2}]}</metadata>
  <rect x="0" y="0" width="55" height="59" fill="#f8f0d8"/>
  
  <rect x="0.5" y="0.5" width="54" height="58" fill="none" stroke="#111827" stroke-width="1" opacity="0.35"/>
  <polyline points="16,43 17,43 18,43 18,42 19,42 20,42 21,41 22,41 23,41 23,40 24,40 25,40 26,40 26,39 27,39 28,39 28,38 29,38 29,37 30,37 30,36 31,36 31,35 32,35 32,34 33,34 33,33 34,33 34,32 35,32 35,31 36,31 36,30 36,29 37,29 37,28 37,27 38,27 38,26 38,25 39,25 39,24 39,23 39,22 39,21 39,20 39,19 39,18 39,17 39,16" fill="none" stroke="#00ff7f" stroke-width="3" stroke-linecap="round" stroke-linejoin="round" opacity="0.95">
    <title>3193 i:1</title>
  </polyline>
</svg>
