<?xml version="1.0" encoding="UTF-8"?>
<svg xmlns="http://www.w3.org/2000/svg" width="59" height="54" viewBox="0 0 59 54">
  <title>atom 5213 i:1</title>
  <metadata>{&quot;entityType&quot;:&quot;atom&quot;,&quot;entityId&quot;:&quot;5213&quot;,&quot;token&quot;:&quot;i:1&quot;,&quot;signature&quot;:&quot;i:1&quot;,&quot;imageName&quot;:&quot;page-004.jpg&quot;,&quot;imageId&quot;:4,&quot;bounds&quot;:{&quot;x&quot;:2221,&quot;y&quot;:2053,&quot;w&quot;:59,&quot;h&quot;:54},&quot;atoms&quot;:[{&quot;id&quot;:5213,&quot;token&quot;:&quot;i:1&quot;,&quot;particle_id&quot;:&quot;img4-m16-p6&quot;,&quot;molecule_id&quot;:&quot;img4-m16&quot;,&quot;atom_order&quot;:2}]}</metadata>
  <rect x="0" y="0" width="59" height="54" fill="#f8f0d8"/>

  <rect x="0.5" y="0.5" width="58" height="53" fill="none" stroke="#111827" stroke-width="1" opacity="0.35"/>
  <polyline points="16,38 17,38 17,37 18,37 19,37 20,37 21,37 22,37 24,37 25,37 27,37 28,37 29,37 29,36 30,36 31,36 32,35 33,35 34,34 35,34 36,33 36,32 37,32 38,31 39,30 40,30 40,29 41,28 42,27 42,26 42,25 43,24 43,23 43,22 43,21 43,20 43,19 43,18 43,17 42,17 41,17 41,16" fill="none" stroke="#00ff7f" stroke-width="3" stroke-linecap="round" stroke-linejoin="round" opacity="0.95">
    <title>5213 i:1</title>
  </polyline>
</svg>
