<?xml version="1.0" encoding="UTF-8"?>
<svg xmlns="http://www.w3.org/2000/svg" width="42" height="64" viewBox="0 0 42 64">
  <title>atom 6242 i:1</title>
  <metadata>{&quot;entityType&quot;:&quot;atom&quot;,&quot;entityId&quot;:&quot;6242&quot;,&quot;token&quot;:&quot;i:1&quot;,&quot;signature&quot;:&quot;i:1&quot;,&quot;imageName&quot;:&quot;page-005.jpg&quot;,&quot;imageId&quot;:5,&quot;bounds&quot;:{&quot;x&quot;:601,&quot;y&quot;:504,&quot;w&quot;:42,&quot;h&quot;:64},&quot;atoms&quot;:[{&quot;id&quot;:6242,&quot;token&quot;:&quot;i:1&quot;,&quot;particle_id&quot;:&quot;img5-m1-p5&quot;,&quot;molecule_id&quot;:&quot;img5-m1&quot;,&quot;atom_order&quot;:3}]}</metadata>
  <rect x="0" y="0" width="42" height="64" fill="#f8f0d8"/>

  <rect x="0.5" y="0.5" width="41" height="63" fill="none" stroke="#111827" stroke-width="1" opacity="0.35"/>
  <polyline points="16,48 17,48 17,47 18,47 19,46 20,46 20,45 21,45 21,44 22,43 22,42 23,42 23,41 24,40 24,39 24,38 25,38 25,37 25,36 25,35 25,34 25,33 25,32 26,32 26,31 26,30 26,29 26,28 26,27 26,26 26,25 26,24 25,24 25,23 25,22 25,21 25,20 24,20 24,19 23,19 22,18 21,18 20,17 19,16 18,16" fill="none" stroke="#00ff7f" stroke-width="3" stroke-linecap="round" stroke-linejoin="round" opacity="0.95">
    <title>6242 i:1</title>
  </polyline>
</svg>
