<?xml version="1.0" encoding="UTF-8"?>
<svg xmlns="http://www.w3.org/2000/svg" width="52" height="51" viewBox="0 0 52 51">
  <title>atom 6249 i:1</title>
  <metadata>{&quot;entityType&quot;:&quot;atom&quot;,&quot;entityId&quot;:&quot;6249&quot;,&quot;token&quot;:&quot;i:1&quot;,&quot;signature&quot;:&quot;i:1&quot;,&quot;imageName&quot;:&quot;page-005.jpg&quot;,&quot;imageId&quot;:5,&quot;bounds&quot;:{&quot;x&quot;:1137,&quot;y&quot;:567,&quot;w&quot;:52,&quot;h&quot;:51},&quot;atoms&quot;:[{&quot;id&quot;:6249,&quot;token&quot;:&quot;i:1&quot;,&quot;particle_id&quot;:&quot;img5-m11-p4&quot;,&quot;molecule_id&quot;:&quot;img5-m11&quot;,&quot;atom_order&quot;:2}]}</metadata>
  <rect x="0" y="0" width="52" height="51" fill="#f8f0d8"/>

  <rect x="0.5" y="0.5" width="51" height="50" fill="none" stroke="#111827" stroke-width="1" opacity="0.35"/>
  <polyline points="16,35 17,35 17,34 18,34 19,34 20,33 21,33 22,33 22,32 23,32 24,32 25,31 26,31 27,30 28,30 28,29 29,29 30,28 31,28 31,27 32,27 32,26 33,26 33,25 34,24 34,23 35,23 35,22 35,21 35,20 36,20 36,19 36,18 36,17 36,16" fill="none" stroke="#00ff7f" stroke-width="3" stroke-linecap="round" stroke-linejoin="round" opacity="0.95">
    <title>6249 i:1</title>
  </polyline>
</svg>
