<?xml version="1.0" encoding="UTF-8"?>
<svg xmlns="http://www.w3.org/2000/svg" width="47" height="55" viewBox="0 0 47 55">
  <title>atom 6250 i:1</title>
  <metadata>{&quot;entityType&quot;:&quot;atom&quot;,&quot;entityId&quot;:&quot;6250&quot;,&quot;token&quot;:&quot;i:1&quot;,&quot;signature&quot;:&quot;i:1&quot;,&quot;imageName&quot;:&quot;page-005.jpg&quot;,&quot;imageId&quot;:5,&quot;bounds&quot;:{&quot;x&quot;:591,&quot;y&quot;:573,&quot;w&quot;:47,&quot;h&quot;:55},&quot;atoms&quot;:[{&quot;id&quot;:6250,&quot;token&quot;:&quot;i:1&quot;,&quot;particle_id&quot;:&quot;img5-m12-p6&quot;,&quot;molecule_id&quot;:&quot;img5-m12&quot;,&quot;atom_order&quot;:2}]}</metadata>
  <rect x="0" y="0" width="47" height="55" fill="#f8f0d8"/>

  <rect x="0.5" y="0.5" width="46" height="54" fill="none" stroke="#111827" stroke-width="1" opacity="0.35"/>
  <polyline points="16,39 17,39 18,39 19,39 19,38 20,38 21,37 22,36 23,36 24,35 25,34 26,33 27,32 28,31 28,30 29,30 29,29 29,28 30,27 30,26 30,25 30,24 31,24 31,23 31,22 31,21 31,20 31,19 30,19 30,18 30,17 30,16" fill="none" stroke="#00ff7f" stroke-width="3" stroke-linecap="round" stroke-linejoin="round" opacity="0.95">
    <title>6250 i:1</title>
  </polyline>
</svg>
