<?xml version="1.0" encoding="UTF-8"?>
<svg xmlns="http://www.w3.org/2000/svg" width="44" height="70" viewBox="0 0 44 70">
  <title>atom 6721 i:1</title>
  <metadata>{&quot;entityType&quot;:&quot;atom&quot;,&quot;entityId&quot;:&quot;6721&quot;,&quot;token&quot;:&quot;i:1&quot;,&quot;signature&quot;:&quot;i:1&quot;,&quot;imageName&quot;:&quot;page-006.jpg&quot;,&quot;imageId&quot;:6,&quot;bounds&quot;:{&quot;x&quot;:873,&quot;y&quot;:659,&quot;w&quot;:44,&quot;h&quot;:70},&quot;atoms&quot;:[{&quot;id&quot;:6721,&quot;token&quot;:&quot;i:1&quot;,&quot;particle_id&quot;:&quot;img6-m1-p4&quot;,&quot;molecule_id&quot;:&quot;img6-m1&quot;,&quot;atom_order&quot;:3}]}</metadata>
  <rect x="0" y="0" width="44" height="70" fill="#f8f0d8"/>

  <rect x="0.5" y="0.5" width="43" height="69" fill="none" stroke="#111827" stroke-width="1" opacity="0.35"/>
  <polyline points="16,54 17,54 17,53 18,53 18,52 19,52 19,51 20,51 20,50 20,49 21,49 21,48 21,47 22,47 22,46 23,45 23,44 24,44 24,43 24,42 25,42 25,41 25,40 26,40 26,39 26,38 26,37 27,36 27,35 27,34 27,33 27,32 27,31 27,30 27,29 28,29 28,27 28,26 28,25 27,25 27,24 27,23 26,23 26,22 26,21 26,20 25,20 25,19 25,18 24,17 24,16" fill="none" stroke="#00ff7f" stroke-width="3" stroke-linecap="round" stroke-linejoin="round" opacity="0.95">
    <title>6721 i:1</title>
  </polyline>
</svg>
