<?xml version="1.0" encoding="UTF-8"?>
<svg xmlns="http://www.w3.org/2000/svg" width="52" height="54" viewBox="0 0 52 54">
  <title>atom 6728 i:1</title>
  <metadata>{&quot;entityType&quot;:&quot;atom&quot;,&quot;entityId&quot;:&quot;6728&quot;,&quot;token&quot;:&quot;i:1&quot;,&quot;signature&quot;:&quot;i:1&quot;,&quot;imageName&quot;:&quot;page-006.jpg&quot;,&quot;imageId&quot;:6,&quot;bounds&quot;:{&quot;x&quot;:2181,&quot;y&quot;:793,&quot;w&quot;:52,&quot;h&quot;:54},&quot;atoms&quot;:[{&quot;id&quot;:6728,&quot;token&quot;:&quot;i:1&quot;,&quot;particle_id&quot;:&quot;img6-m14-p3&quot;,&quot;molecule_id&quot;:&quot;img6-m14&quot;,&quot;atom_order&quot;:2}]}</metadata>
  <rect x="0" y="0" width="52" height="54" fill="#f8f0d8"/>

  <rect x="0.5" y="0.5" width="51" height="53" fill="none" stroke="#111827" stroke-width="1" opacity="0.35"/>
  <polyline points="16,38 16,37 17,37 17,36 18,36 19,35 20,35 20,34 21,34 22,34 22,33 23,33 24,33 24,32 25,32 26,32 26,31 27,31 28,31 29,30 30,30 30,29 31,29 32,29 32,28 33,28 34,27 34,26 35,26 35,25 35,24 36,23 36,22 36,21 36,20 36,19 36,18 35,18 35,17 35,16" fill="none" stroke="#00ff7f" stroke-width="3" stroke-linecap="round" stroke-linejoin="round" opacity="0.95">
    <title>6728 i:1</title>
  </polyline>
</svg>
