<?xml version="1.0" encoding="UTF-8"?>
<svg xmlns="http://www.w3.org/2000/svg" width="51" height="63" viewBox="0 0 51 63">
  <title>atom 6729 i:1</title>
  <metadata>{&quot;entityType&quot;:&quot;atom&quot;,&quot;entityId&quot;:&quot;6729&quot;,&quot;token&quot;:&quot;i:1&quot;,&quot;signature&quot;:&quot;i:1&quot;,&quot;imageName&quot;:&quot;page-006.jpg&quot;,&quot;imageId&quot;:6,&quot;bounds&quot;:{&quot;x&quot;:1702,&quot;y&quot;:760,&quot;w&quot;:51,&quot;h&quot;:63},&quot;atoms&quot;:[{&quot;id&quot;:6729,&quot;token&quot;:&quot;i:1&quot;,&quot;particle_id&quot;:&quot;img6-m10-p10&quot;,&quot;molecule_id&quot;:&quot;img6-m10&quot;,&quot;atom_order&quot;:2}]}</metadata>
  <rect x="0" y="0" width="51" height="63" fill="#f8f0d8"/>

  <rect x="0.5" y="0.5" width="50" height="62" fill="none" stroke="#111827" stroke-width="1" opacity="0.35"/>
  <polyline points="16,47 17,47 18,47 19,47 20,47 21,47 22,47 23,47 23,46 24,46 25,45 26,45 27,44 28,44 28,43 29,43 30,42 31,41 32,40 32,39 33,39 33,38 34,37 34,36 35,36 35,35 35,34 35,33 35,32 35,31 34,30 34,29 34,28 34,27 33,26 33,25 33,24 32,23 31,22 31,21 30,21 29,20 28,19 27,19 27,18 26,18 25,17 24,17 24,16" fill="none" stroke="#00ff7f" stroke-width="3" stroke-linecap="round" stroke-linejoin="round" opacity="0.95">
    <title>6729 i:1</title>
  </polyline>
</svg>
