<?xml version="1.0" encoding="UTF-8"?>
<svg xmlns="http://www.w3.org/2000/svg" width="45" height="50" viewBox="0 0 45 50">
  <title>atom 6730 i:1</title>
  <metadata>{&quot;entityType&quot;:&quot;atom&quot;,&quot;entityId&quot;:&quot;6730&quot;,&quot;token&quot;:&quot;i:1&quot;,&quot;signature&quot;:&quot;i:1&quot;,&quot;imageName&quot;:&quot;page-006.jpg&quot;,&quot;imageId&quot;:6,&quot;bounds&quot;:{&quot;x&quot;:1089,&quot;y&quot;:831,&quot;w&quot;:45,&quot;h&quot;:50},&quot;atoms&quot;:[{&quot;id&quot;:6730,&quot;token&quot;:&quot;i:1&quot;,&quot;particle_id&quot;:&quot;img6-m17-p3&quot;,&quot;molecule_id&quot;:&quot;img6-m17&quot;,&quot;atom_order&quot;:2}]}</metadata>
  <rect x="0" y="0" width="45" height="50" fill="#f8f0d8"/>

  <rect x="0.5" y="0.5" width="44" height="49" fill="none" stroke="#111827" stroke-width="1" opacity="0.35"/>
  <polyline points="16,34 17,34 18,34 18,33 19,33 20,33 20,32 21,32 21,31 22,31 22,30 23,30 23,29 23,28 24,28 24,27 25,26 25,25 26,25 26,24 27,24 27,23 27,22 28,21 28,20 28,19 28,18 28,17 29,17 29,16" fill="none" stroke="#00ff7f" stroke-width="3" stroke-linecap="round" stroke-linejoin="round" opacity="0.95">
    <title>6730 i:1</title>
  </polyline>
</svg>
