<?xml version="1.0" encoding="UTF-8"?>
<svg xmlns="http://www.w3.org/2000/svg" width="43" height="65" viewBox="0 0 43 65">
  <title>atom 6731 i:1</title>
  <metadata>{&quot;entityType&quot;:&quot;atom&quot;,&quot;entityId&quot;:&quot;6731&quot;,&quot;token&quot;:&quot;i:1&quot;,&quot;signature&quot;:&quot;i:1&quot;,&quot;imageName&quot;:&quot;page-006.jpg&quot;,&quot;imageId&quot;:6,&quot;bounds&quot;:{&quot;x&quot;:1890,&quot;y&quot;:851,&quot;w&quot;:43,&quot;h&quot;:65},&quot;atoms&quot;:[{&quot;id&quot;:6731,&quot;token&quot;:&quot;i:1&quot;,&quot;particle_id&quot;:&quot;img6-m18-p5&quot;,&quot;molecule_id&quot;:&quot;img6-m18&quot;,&quot;atom_order&quot;:3}]}</metadata>
  <rect x="0" y="0" width="43" height="65" fill="#f8f0d8"/>

  <rect x="0.5" y="0.5" width="42" height="64" fill="none" stroke="#111827" stroke-width="1" opacity="0.35"/>
  <polyline points="16,49 17,49 18,49 19,49 19,48 20,48 21,47 21,46 22,46 22,45 23,44 24,43 24,42 25,42 25,41 25,40 25,39 25,38 25,37 26,37 26,36 26,35 26,34 26,33 26,32 26,31 26,30 26,29 26,28 26,27 26,26 26,25 27,24 27,23 27,22 27,21 27,20 27,19 27,18 27,17 27,16" fill="none" stroke="#00ff7f" stroke-width="3" stroke-linecap="round" stroke-linejoin="round" opacity="0.95">
    <title>6731 i:1</title>
  </polyline>
</svg>
