<?xml version="1.0" encoding="UTF-8"?>
<svg xmlns="http://www.w3.org/2000/svg" width="50" height="59" viewBox="0 0 50 59">
  <title>atom 2637 f:1</title>
  <metadata>{&quot;entityType&quot;:&quot;atom&quot;,&quot;entityId&quot;:&quot;2637&quot;,&quot;token&quot;:&quot;f:1&quot;,&quot;signature&quot;:&quot;f:1&quot;,&quot;imageName&quot;:&quot;page-094.jpg&quot;,&quot;imageId&quot;:94,&quot;bounds&quot;:{&quot;x&quot;:1186,&quot;y&quot;:545,&quot;w&quot;:50,&quot;h&quot;:59},&quot;atoms&quot;:[{&quot;id&quot;:2637,&quot;token&quot;:&quot;f:1&quot;,&quot;particle_id&quot;:&quot;img94-m6-p4&quot;,&quot;molecule_id&quot;:&quot;img94-m6&quot;,&quot;atom_order&quot;:1}]}</metadata>
  <rect x="0" y="0" width="50" height="59" fill="#f8f0d8"/>
  <image href="file:///C:/Users/HHHES/AppData/Roaming/com.voynichlab.datasetcreator/images/1/33b1988f-7aaa-4207-bfa8-f26b742ac4b1.jpg" x="-1186" y="-545" width="2932" height="3769" opacity="0.92"/>
  <rect x="0.5" y="0.5" width="49" height="58" fill="none" stroke="#111827" stroke-width="1" opacity="0.35"/>
  <polyline points="16,17 16,16 16,17 17,17 17,18 18,19 18,20 19,20 19,21 20,21 20,22 20,23 21,23 21,24 22,24 22,25 22,26 23,26 23,27 24,28 24,29 25,29 25,30 26,31 26,32 27,32 27,33 27,34 28,34 28,35 29,35 29,36 30,37 30,38 31,38 31,39 32,39 32,40 33,41 33,42 34,42 34,43" fill="none" stroke="#00a2ff" stroke-width="3" stroke-linecap="round" stroke-linejoin="round" opacity="0.95">
    <title>2637 f:1</title>
  </polyline>
</svg>
