<?xml version="1.0" encoding="UTF-8"?>
<svg xmlns="http://www.w3.org/2000/svg" width="50" height="56" viewBox="0 0 50 56">
  <title>atom 2659 f:1</title>
  <metadata>{&quot;entityType&quot;:&quot;atom&quot;,&quot;entityId&quot;:&quot;2659&quot;,&quot;token&quot;:&quot;f:1&quot;,&quot;signature&quot;:&quot;f:1&quot;,&quot;imageName&quot;:&quot;page-094.jpg&quot;,&quot;imageId&quot;:94,&quot;bounds&quot;:{&quot;x&quot;:1355,&quot;y&quot;:531,&quot;w&quot;:50,&quot;h&quot;:56},&quot;atoms&quot;:[{&quot;id&quot;:2659,&quot;token&quot;:&quot;f:1&quot;,&quot;particle_id&quot;:&quot;img94-m3-p3&quot;,&quot;molecule_id&quot;:&quot;img94-m3&quot;,&quot;atom_order&quot;:1}]}</metadata>
  <rect x="0" y="0" width="50" height="56" fill="#f8f0d8"/>
  <image href="file:///C:/Users/HHHES/AppData/Roaming/com.voynichlab.datasetcreator/images/1/33b1988f-7aaa-4207-bfa8-f26b742ac4b1.jpg" x="-1355" y="-531" width="2932" height="3769" opacity="0.92"/>
  <rect x="0.5" y="0.5" width="49" height="55" fill="none" stroke="#111827" stroke-width="1" opacity="0.35"/>
  <polyline points="16,16 17,17 17,18 18,18 18,19 19,19 19,20 20,21 20,22 21,22 21,23 22,24 22,25 23,25 23,26 24,26 24,27 25,27 25,28 26,28 26,29 26,30 27,30 27,31 28,31 28,32 29,32 29,33 29,34 30,34 30,35 31,35 31,36 31,37 32,37 32,38 33,39 33,40 34,40" fill="none" stroke="#00a2ff" stroke-width="3" stroke-linecap="round" stroke-linejoin="round" opacity="0.95">
    <title>2659 f:1</title>
  </polyline>
</svg>
