<?xml version="1.0" encoding="UTF-8"?>
<svg xmlns="http://www.w3.org/2000/svg" width="49" height="59" viewBox="0 0 49 59">
  <title>atom 2671 f:1</title>
  <metadata>{&quot;entityType&quot;:&quot;atom&quot;,&quot;entityId&quot;:&quot;2671&quot;,&quot;token&quot;:&quot;f:1&quot;,&quot;signature&quot;:&quot;f:1&quot;,&quot;imageName&quot;:&quot;page-094.jpg&quot;,&quot;imageId&quot;:94,&quot;bounds&quot;:{&quot;x&quot;:1872,&quot;y&quot;:558,&quot;w&quot;:49,&quot;h&quot;:59},&quot;atoms&quot;:[{&quot;id&quot;:2671,&quot;token&quot;:&quot;f:1&quot;,&quot;particle_id&quot;:&quot;img94-m2-p3&quot;,&quot;molecule_id&quot;:&quot;img94-m2&quot;,&quot;atom_order&quot;:1}]}</metadata>
  <rect x="0" y="0" width="49" height="59" fill="#f8f0d8"/>
  <image href="file:///C:/Users/HHHES/AppData/Roaming/com.voynichlab.datasetcreator/images/1/33b1988f-7aaa-4207-bfa8-f26b742ac4b1.jpg" x="-1872" y="-558" width="2932" height="3769" opacity="0.92"/>
  <rect x="0.5" y="0.5" width="48" height="58" fill="none" stroke="#111827" stroke-width="1" opacity="0.35"/>
  <polyline points="16,16 16,17 16,18 17,18 17,19 17,20 18,20 18,21 19,22 19,23 20,24 20,25 21,25 21,26 21,27 22,27 22,28 23,29 23,30 24,30 24,31 25,31 25,32 26,33 26,34 27,34 27,35 28,35 28,36 28,37 29,37 29,38 29,39 30,39 30,40 31,40 31,41 32,41 32,42 32,43 33,43" fill="none" stroke="#00a2ff" stroke-width="3" stroke-linecap="round" stroke-linejoin="round" opacity="0.95">
    <title>2671 f:1</title>
  </polyline>
</svg>
