<?xml version="1.0" encoding="UTF-8"?>
<svg xmlns="http://www.w3.org/2000/svg" width="47" height="54" viewBox="0 0 47 54">
  <title>atom 2672 f:1</title>
  <metadata>{&quot;entityType&quot;:&quot;atom&quot;,&quot;entityId&quot;:&quot;2672&quot;,&quot;token&quot;:&quot;f:1&quot;,&quot;signature&quot;:&quot;f:1&quot;,&quot;imageName&quot;:&quot;page-094.jpg&quot;,&quot;imageId&quot;:94,&quot;bounds&quot;:{&quot;x&quot;:1848,&quot;y&quot;:554,&quot;w&quot;:47,&quot;h&quot;:54},&quot;atoms&quot;:[{&quot;id&quot;:2672,&quot;token&quot;:&quot;f:1&quot;,&quot;particle_id&quot;:&quot;img94-m2-p2&quot;,&quot;molecule_id&quot;:&quot;img94-m2&quot;,&quot;atom_order&quot;:2}]}</metadata>
  <rect x="0" y="0" width="47" height="54" fill="#f8f0d8"/>
  <image href="file:///C:/Users/HHHES/AppData/Roaming/com.voynichlab.datasetcreator/images/1/33b1988f-7aaa-4207-bfa8-f26b742ac4b1.jpg" x="-1848" y="-554" width="2932" height="3769" opacity="0.92"/>
  <rect x="0.5" y="0.5" width="46" height="53" fill="none" stroke="#111827" stroke-width="1" opacity="0.35"/>
  <polyline points="16,16 16,17 17,18 17,19 17,20 18,20 18,21 19,21 19,22 20,22 20,23 20,24 21,24 21,25 22,25 22,26 23,27 23,28 24,28 24,29 25,29 25,30 26,30 26,31 27,31 27,32 28,33 28,34 29,34 29,35 30,35 30,36 30,37 31,37 31,38" fill="none" stroke="#00a2ff" stroke-width="3" stroke-linecap="round" stroke-linejoin="round" opacity="0.95">
    <title>2672 f:1</title>
  </polyline>
</svg>
