<?xml version="1.0" encoding="UTF-8"?>
<svg xmlns="http://www.w3.org/2000/svg" width="54" height="37" viewBox="0 0 54 37">
  <title>atom 5239 d:1</title>
  <metadata>{&quot;entityType&quot;:&quot;atom&quot;,&quot;entityId&quot;:&quot;5239&quot;,&quot;token&quot;:&quot;d:1&quot;,&quot;signature&quot;:&quot;d:1&quot;,&quot;imageName&quot;:&quot;page-004.jpg&quot;,&quot;imageId&quot;:4,&quot;bounds&quot;:{&quot;x&quot;:2225,&quot;y&quot;:2049,&quot;w&quot;:54,&quot;h&quot;:37},&quot;atoms&quot;:[{&quot;id&quot;:5239,&quot;token&quot;:&quot;d:1&quot;,&quot;particle_id&quot;:&quot;img4-m16-p6&quot;,&quot;molecule_id&quot;:&quot;img4-m16&quot;,&quot;atom_order&quot;:3}]}</metadata>
  <rect x="0" y="0" width="54" height="37" fill="#f8f0d8"/>
  <image href="file:///C:/Users/HHHES/AppData/Roaming/com.voynichlab.datasetcreator/images/1/aff30327-ced8-4ab4-8c9b-190205ebe022.jpg" x="-2225" y="-2049" width="2804" height="3797" opacity="0.92"/>
  <rect x="0.5" y="0.5" width="53" height="36" fill="none" stroke="#111827" stroke-width="1" opacity="0.35"/>
  <polyline points="38,21 37,21 37,20 37,19 36,19 36,18 35,18 34,17 33,17 32,17 31,16 30,16 29,16 28,16 27,16 26,16 25,16 24,16 22,16 21,16 20,16 19,16 19,17 18,17 17,17 16,17 16,18" fill="none" stroke="#ff2d55" stroke-width="3" stroke-linecap="round" stroke-linejoin="round" opacity="0.95">
    <title>5239 d:1</title>
  </polyline>
</svg>
