<?xml version="1.0" encoding="UTF-8"?>
<svg xmlns="http://www.w3.org/2000/svg" width="51" height="43" viewBox="0 0 51 43">
  <title>atom 5241 d:1</title>
  <metadata>{&quot;entityType&quot;:&quot;atom&quot;,&quot;entityId&quot;:&quot;5241&quot;,&quot;token&quot;:&quot;d:1&quot;,&quot;signature&quot;:&quot;d:1&quot;,&quot;imageName&quot;:&quot;page-004.jpg&quot;,&quot;imageId&quot;:4,&quot;bounds&quot;:{&quot;x&quot;:864,&quot;y&quot;:1953,&quot;w&quot;:51,&quot;h&quot;:43},&quot;atoms&quot;:[{&quot;id&quot;:5241,&quot;token&quot;:&quot;d:1&quot;,&quot;particle_id&quot;:&quot;img4-m7-p3&quot;,&quot;molecule_id&quot;:&quot;img4-m7&quot;,&quot;atom_order&quot;:3}]}</metadata>
  <rect x="0" y="0" width="51" height="43" fill="#f8f0d8"/>
  <image href="file:///C:/Users/HHHES/AppData/Roaming/com.voynichlab.datasetcreator/images/1/aff30327-ced8-4ab4-8c9b-190205ebe022.jpg" x="-864" y="-1953" width="2804" height="3797" opacity="0.92"/>
  <rect x="0.5" y="0.5" width="50" height="42" fill="none" stroke="#111827" stroke-width="1" opacity="0.35"/>
  <polyline points="16,27 16,26 16,25 16,24 16,23 17,23 17,22 17,21 17,20 18,19 18,18 19,17 20,17 21,17 21,16 22,16 23,16 24,16 25,16 26,16 27,16 28,16 29,16 30,16 31,17 32,17 33,17 33,18 34,18 34,19 35,19 35,20 35,21 35,23 35,24 35,25 34,26" fill="none" stroke="#ff2d55" stroke-width="3" stroke-linecap="round" stroke-linejoin="round" opacity="0.95">
    <title>5241 d:1</title>
  </polyline>
</svg>
