<?xml version="1.0" encoding="UTF-8"?>
<svg xmlns="http://www.w3.org/2000/svg" width="64" height="44" viewBox="0 0 64 44">
  <title>atom 5244 d:1</title>
  <metadata>{&quot;entityType&quot;:&quot;atom&quot;,&quot;entityId&quot;:&quot;5244&quot;,&quot;token&quot;:&quot;d:1&quot;,&quot;signature&quot;:&quot;d:1&quot;,&quot;imageName&quot;:&quot;page-004.jpg&quot;,&quot;imageId&quot;:4,&quot;bounds&quot;:{&quot;x&quot;:1025,&quot;y&quot;:2303,&quot;w&quot;:64,&quot;h&quot;:44},&quot;atoms&quot;:[{&quot;id&quot;:5244,&quot;token&quot;:&quot;d:1&quot;,&quot;particle_id&quot;:&quot;img4-m34-p3&quot;,&quot;molecule_id&quot;:&quot;img4-m34&quot;,&quot;atom_order&quot;:4}]}</metadata>
  <rect x="0" y="0" width="64" height="44" fill="#f8f0d8"/>
  <image href="file:///C:/Users/HHHES/AppData/Roaming/com.voynichlab.datasetcreator/images/1/aff30327-ced8-4ab4-8c9b-190205ebe022.jpg" x="-1025" y="-2303" width="2804" height="3797" opacity="0.92"/>
  <rect x="0.5" y="0.5" width="63" height="43" fill="none" stroke="#111827" stroke-width="1" opacity="0.35"/>
  <polyline points="48,28 48,27 47,27 47,26 46,25 45,25 45,24 44,24 44,23 43,22 42,21 41,21 41,20 40,20 39,19 38,18 37,18 36,18 35,17 34,17 33,16 32,16 31,16 30,16 29,17 28,17 27,17 26,17 26,18 25,18 24,18 23,19 22,19 21,20 20,21 19,21 18,21 18,22 17,23 17,24 17,25 16,25 16,26" fill="none" stroke="#ff2d55" stroke-width="3" stroke-linecap="round" stroke-linejoin="round" opacity="0.95">
    <title>5244 d:1</title>
  </polyline>
</svg>
