<?xml version="1.0" encoding="UTF-8"?>
<svg xmlns="http://www.w3.org/2000/svg" width="72" height="48" viewBox="0 0 72 48">
  <title>atom 5246 d:1</title>
  <metadata>{&quot;entityType&quot;:&quot;atom&quot;,&quot;entityId&quot;:&quot;5246&quot;,&quot;token&quot;:&quot;d:1&quot;,&quot;signature&quot;:&quot;d:1&quot;,&quot;imageName&quot;:&quot;page-004.jpg&quot;,&quot;imageId&quot;:4,&quot;bounds&quot;:{&quot;x&quot;:2155,&quot;y&quot;:2383,&quot;w&quot;:72,&quot;h&quot;:48},&quot;atoms&quot;:[{&quot;id&quot;:5246,&quot;token&quot;:&quot;d:1&quot;,&quot;particle_id&quot;:&quot;img4-m40-p5&quot;,&quot;molecule_id&quot;:&quot;img4-m40&quot;,&quot;atom_order&quot;:4}]}</metadata>
  <rect x="0" y="0" width="72" height="48" fill="#f8f0d8"/>
  <image href="file:///C:/Users/HHHES/AppData/Roaming/com.voynichlab.datasetcreator/images/1/aff30327-ced8-4ab4-8c9b-190205ebe022.jpg" x="-2155" y="-2383" width="2804" height="3797" opacity="0.92"/>
  <rect x="0.5" y="0.5" width="71" height="47" fill="none" stroke="#111827" stroke-width="1" opacity="0.35"/>
  <polyline points="16,18 17,17 18,17 19,17 19,16 20,16 21,16 22,16 23,16 24,16 25,16 26,16 28,16 29,17 30,17 31,17 32,18 34,18 35,18 36,18 37,19 38,19 38,20 39,20 40,20 41,21 42,21 43,22 44,23 45,23 45,24 46,24 47,24 48,25 49,26 50,27 51,27 51,28 52,28 53,28 53,29 54,29 54,30 55,31 56,31 56,32" fill="none" stroke="#ff2d55" stroke-width="3" stroke-linecap="round" stroke-linejoin="round" opacity="0.95">
    <title>5246 d:1</title>
  </polyline>
</svg>
