<?xml version="1.0" encoding="UTF-8"?>
<svg xmlns="http://www.w3.org/2000/svg" width="65" height="47" viewBox="0 0 65 47">
  <title>atom 5247 d:1</title>
  <metadata>{&quot;entityType&quot;:&quot;atom&quot;,&quot;entityId&quot;:&quot;5247&quot;,&quot;token&quot;:&quot;d:1&quot;,&quot;signature&quot;:&quot;d:1&quot;,&quot;imageName&quot;:&quot;page-004.jpg&quot;,&quot;imageId&quot;:4,&quot;bounds&quot;:{&quot;x&quot;:839,&quot;y&quot;:2461,&quot;w&quot;:65,&quot;h&quot;:47},&quot;atoms&quot;:[{&quot;id&quot;:5247,&quot;token&quot;:&quot;d:1&quot;,&quot;particle_id&quot;:&quot;img4-m54-p5&quot;,&quot;molecule_id&quot;:&quot;img4-m54&quot;,&quot;atom_order&quot;:3}]}</metadata>
  <rect x="0" y="0" width="65" height="47" fill="#f8f0d8"/>
  <image href="file:///C:/Users/HHHES/AppData/Roaming/com.voynichlab.datasetcreator/images/1/aff30327-ced8-4ab4-8c9b-190205ebe022.jpg" x="-839" y="-2461" width="2804" height="3797" opacity="0.92"/>
  <rect x="0.5" y="0.5" width="64" height="46" fill="none" stroke="#111827" stroke-width="1" opacity="0.35"/>
  <polyline points="16,31 16,30 17,29 17,28 17,27 18,26 18,25 19,24 19,23 20,23 21,22 22,21 23,21 24,20 25,20 25,19 26,19 27,19 28,18 29,18 30,18 31,17 32,17 33,16 34,16 35,16 36,16 38,16 39,17 42,18 44,19 46,19 46,20 47,20 48,20 48,21 49,21 49,22" fill="none" stroke="#ff2d55" stroke-width="3" stroke-linecap="round" stroke-linejoin="round" opacity="0.95">
    <title>5247 d:1</title>
  </polyline>
</svg>
