<?xml version="1.0" encoding="UTF-8"?>
<svg xmlns="http://www.w3.org/2000/svg" width="73" height="43" viewBox="0 0 73 43">
  <title>atom 5250 d:1</title>
  <metadata>{&quot;entityType&quot;:&quot;atom&quot;,&quot;entityId&quot;:&quot;5250&quot;,&quot;token&quot;:&quot;d:1&quot;,&quot;signature&quot;:&quot;d:1&quot;,&quot;imageName&quot;:&quot;page-004.jpg&quot;,&quot;imageId&quot;:4,&quot;bounds&quot;:{&quot;x&quot;:1382,&quot;y&quot;:2646,&quot;w&quot;:73,&quot;h&quot;:43},&quot;atoms&quot;:[{&quot;id&quot;:5250,&quot;token&quot;:&quot;d:1&quot;,&quot;particle_id&quot;:&quot;img4-m78-p3&quot;,&quot;molecule_id&quot;:&quot;img4-m78&quot;,&quot;atom_order&quot;:3}]}</metadata>
  <rect x="0" y="0" width="73" height="43" fill="#f8f0d8"/>
  <image href="file:///C:/Users/HHHES/AppData/Roaming/com.voynichlab.datasetcreator/images/1/aff30327-ced8-4ab4-8c9b-190205ebe022.jpg" x="-1382" y="-2646" width="2804" height="3797" opacity="0.92"/>
  <rect x="0.5" y="0.5" width="72" height="42" fill="none" stroke="#111827" stroke-width="1" opacity="0.35"/>
  <polyline points="16,27 17,27 17,26 18,26 19,26 19,25 20,24 21,24 22,23 23,22 24,22 24,21 25,21 26,20 27,20 27,19 28,19 29,18 30,18 31,18 32,17 33,17 34,16 35,16 36,16 37,16 38,16 40,16 41,16 43,16 44,16 45,16 46,17 47,17 48,17 50,18 51,18 51,19 52,19 53,20 54,20 54,21 54,22 55,22 55,23 56,23 56,24 57,24 57,25 57,26" fill="none" stroke="#ff2d55" stroke-width="3" stroke-linecap="round" stroke-linejoin="round" opacity="0.95">
    <title>5250 d:1</title>
  </polyline>
</svg>
