<?xml version="1.0" encoding="UTF-8"?>
<svg xmlns="http://www.w3.org/2000/svg" width="65" height="41" viewBox="0 0 65 41">
  <title>atom 5251 d:1</title>
  <metadata>{&quot;entityType&quot;:&quot;atom&quot;,&quot;entityId&quot;:&quot;5251&quot;,&quot;token&quot;:&quot;d:1&quot;,&quot;signature&quot;:&quot;d:1&quot;,&quot;imageName&quot;:&quot;page-004.jpg&quot;,&quot;imageId&quot;:4,&quot;bounds&quot;:{&quot;x&quot;:1836,&quot;y&quot;:2655,&quot;w&quot;:65,&quot;h&quot;:41},&quot;atoms&quot;:[{&quot;id&quot;:5251,&quot;token&quot;:&quot;d:1&quot;,&quot;particle_id&quot;:&quot;img4-m79-p4&quot;,&quot;molecule_id&quot;:&quot;img4-m79&quot;,&quot;atom_order&quot;:3}]}</metadata>
  <rect x="0" y="0" width="65" height="41" fill="#f8f0d8"/>
  <image href="file:///C:/Users/HHHES/AppData/Roaming/com.voynichlab.datasetcreator/images/1/aff30327-ced8-4ab4-8c9b-190205ebe022.jpg" x="-1836" y="-2655" width="2804" height="3797" opacity="0.92"/>
  <rect x="0.5" y="0.5" width="64" height="40" fill="none" stroke="#111827" stroke-width="1" opacity="0.35"/>
  <polyline points="16,25 17,25 17,24 18,24 19,23 20,22 20,21 21,20 22,20 23,19 24,19 25,18 26,18 27,18 28,17 29,17 30,17 31,17 31,16 32,16 33,16 34,16 35,16 36,16 37,17 38,17 39,17 40,17 41,18 42,18 43,18 43,19 44,19 45,19 46,19 46,20 47,20 48,21 49,22" fill="none" stroke="#ff2d55" stroke-width="3" stroke-linecap="round" stroke-linejoin="round" opacity="0.95">
    <title>5251 d:1</title>
  </polyline>
</svg>
