<?xml version="1.0" encoding="UTF-8"?>
<svg xmlns="http://www.w3.org/2000/svg" width="60" height="50" viewBox="0 0 60 50">
  <title>atom 5253 d:1</title>
  <metadata>{&quot;entityType&quot;:&quot;atom&quot;,&quot;entityId&quot;:&quot;5253&quot;,&quot;token&quot;:&quot;d:1&quot;,&quot;signature&quot;:&quot;d:1&quot;,&quot;imageName&quot;:&quot;page-004.jpg&quot;,&quot;imageId&quot;:4,&quot;bounds&quot;:{&quot;x&quot;:2044,&quot;y&quot;:2754,&quot;w&quot;:60,&quot;h&quot;:50},&quot;atoms&quot;:[{&quot;id&quot;:5253,&quot;token&quot;:&quot;d:1&quot;,&quot;particle_id&quot;:&quot;img4-m90-p5&quot;,&quot;molecule_id&quot;:&quot;img4-m90&quot;,&quot;atom_order&quot;:3}]}</metadata>
  <rect x="0" y="0" width="60" height="50" fill="#f8f0d8"/>
  <image href="file:///C:/Users/HHHES/AppData/Roaming/com.voynichlab.datasetcreator/images/1/aff30327-ced8-4ab4-8c9b-190205ebe022.jpg" x="-2044" y="-2754" width="2804" height="3797" opacity="0.92"/>
  <rect x="0.5" y="0.5" width="59" height="49" fill="none" stroke="#111827" stroke-width="1" opacity="0.35"/>
  <polyline points="16,16 17,16 18,16 19,16 20,16 21,16 23,17 24,17 24,18 25,18 26,18 28,19 29,19 30,20 30,21 31,22 32,23 33,23 34,23 35,24 35,25 36,25 37,26 38,26 38,27 39,27 39,28 40,29 41,30 42,31 43,32 43,33 44,33 44,34" fill="none" stroke="#ff2d55" stroke-width="3" stroke-linecap="round" stroke-linejoin="round" opacity="0.95">
    <title>5253 d:1</title>
  </polyline>
</svg>
