<?xml version="1.0" encoding="UTF-8"?>
<svg xmlns="http://www.w3.org/2000/svg" width="81" height="44" viewBox="0 0 81 44">
  <title>atom 5254 d:1</title>
  <metadata>{&quot;entityType&quot;:&quot;atom&quot;,&quot;entityId&quot;:&quot;5254&quot;,&quot;token&quot;:&quot;d:1&quot;,&quot;signature&quot;:&quot;d:1&quot;,&quot;imageName&quot;:&quot;page-004.jpg&quot;,&quot;imageId&quot;:4,&quot;bounds&quot;:{&quot;x&quot;:1738,&quot;y&quot;:2755,&quot;w&quot;:81,&quot;h&quot;:44},&quot;atoms&quot;:[{&quot;id&quot;:5254,&quot;token&quot;:&quot;d:1&quot;,&quot;particle_id&quot;:&quot;img4-m87-p1&quot;,&quot;molecule_id&quot;:&quot;img4-m87&quot;,&quot;atom_order&quot;:8}]}</metadata>
  <rect x="0" y="0" width="81" height="44" fill="#f8f0d8"/>
  <image href="file:///C:/Users/HHHES/AppData/Roaming/com.voynichlab.datasetcreator/images/1/aff30327-ced8-4ab4-8c9b-190205ebe022.jpg" x="-1738" y="-2755" width="2804" height="3797" opacity="0.92"/>
  <rect x="0.5" y="0.5" width="80" height="43" fill="none" stroke="#111827" stroke-width="1" opacity="0.35"/>
  <polyline points="16,28 17,27 17,26 18,26 18,25 18,24 19,24 20,23 21,22 21,21 22,21 23,21 23,20 24,19 25,19 26,18 27,18 28,18 29,17 30,17 31,17 32,16 33,16 34,16 35,16 36,16 37,16 38,16 39,17 40,17 41,17 42,17 43,18 45,18 46,19 47,19 48,19 49,19 50,20 51,20 52,21 53,21 54,21 55,21 55,22 56,22 57,22 57,23 58,23 60,24 61,24 62,24 63,24 64,24 65,24" fill="none" stroke="#ff2d55" stroke-width="3" stroke-linecap="round" stroke-linejoin="round" opacity="0.95">
    <title>5254 d:1</title>
  </polyline>
</svg>
