<?xml version="1.0" encoding="UTF-8"?>
<svg xmlns="http://www.w3.org/2000/svg" width="76" height="62" viewBox="0 0 76 62">
  <title>atom 5256 d:1</title>
  <metadata>{&quot;entityType&quot;:&quot;atom&quot;,&quot;entityId&quot;:&quot;5256&quot;,&quot;token&quot;:&quot;d:1&quot;,&quot;signature&quot;:&quot;d:1&quot;,&quot;imageName&quot;:&quot;page-004.jpg&quot;,&quot;imageId&quot;:4,&quot;bounds&quot;:{&quot;x&quot;:514,&quot;y&quot;:2224,&quot;w&quot;:76,&quot;h&quot;:62},&quot;atoms&quot;:[{&quot;id&quot;:5256,&quot;token&quot;:&quot;d:1&quot;,&quot;particle_id&quot;:&quot;img4-m30-p1&quot;,&quot;molecule_id&quot;:&quot;img4-m30&quot;,&quot;atom_order&quot;:6}]}</metadata>
  <rect x="0" y="0" width="76" height="62" fill="#f8f0d8"/>
  <image href="file:///C:/Users/HHHES/AppData/Roaming/com.voynichlab.datasetcreator/images/1/aff30327-ced8-4ab4-8c9b-190205ebe022.jpg" x="-514" y="-2224" width="2804" height="3797" opacity="0.92"/>
  <rect x="0.5" y="0.5" width="75" height="61" fill="none" stroke="#111827" stroke-width="1" opacity="0.35"/>
  <polyline points="28,45 27,45 26,45 25,46 24,46 23,46 22,46 21,46 19,46 19,45 18,45 18,44 18,43 17,42 17,41 17,39 16,38 16,36 16,35 16,34 16,33 16,32 16,31 16,30 16,29 16,28 17,26 17,25 18,25 18,24 19,23 21,22 23,21 24,21 25,20 26,20 27,20 29,19 30,18 31,18 32,18 34,18 35,17 36,17 37,17 38,17 39,16 40,16 41,16 42,16 43,16 44,16 45,16 46,16 47,16 49,16 51,16 53,17 54,17 55,17 56,17 57,18 58,19 58,20 59,20 59,21 59,22 60,22 60,23" fill="none" stroke="#ff2d55" stroke-width="3" stroke-linecap="round" stroke-linejoin="round" opacity="0.95">
    <title>5256 d:1</title>
  </polyline>
</svg>
