<?xml version="1.0" encoding="UTF-8"?>
<svg xmlns="http://www.w3.org/2000/svg" width="50" height="43" viewBox="0 0 50 43">
  <title>atom 5257 d:1</title>
  <metadata>{&quot;entityType&quot;:&quot;atom&quot;,&quot;entityId&quot;:&quot;5257&quot;,&quot;token&quot;:&quot;d:1&quot;,&quot;signature&quot;:&quot;d:1&quot;,&quot;imageName&quot;:&quot;page-004.jpg&quot;,&quot;imageId&quot;:4,&quot;bounds&quot;:{&quot;x&quot;:676,&quot;y&quot;:2684,&quot;w&quot;:50,&quot;h&quot;:43},&quot;atoms&quot;:[{&quot;id&quot;:5257,&quot;token&quot;:&quot;d:1&quot;,&quot;particle_id&quot;:&quot;img4-m80-p4&quot;,&quot;molecule_id&quot;:&quot;img4-m80&quot;,&quot;atom_order&quot;:3}]}</metadata>
  <rect x="0" y="0" width="50" height="43" fill="#f8f0d8"/>
  <image href="file:///C:/Users/HHHES/AppData/Roaming/com.voynichlab.datasetcreator/images/1/aff30327-ced8-4ab4-8c9b-190205ebe022.jpg" x="-676" y="-2684" width="2804" height="3797" opacity="0.92"/>
  <rect x="0.5" y="0.5" width="49" height="42" fill="none" stroke="#111827" stroke-width="1" opacity="0.35"/>
  <polyline points="22,26 21,26 21,27 20,27 19,27 18,27 18,26 17,26 17,25 16,25 16,24 16,23 16,22 16,21 16,20 16,19 16,18 17,18 17,17 18,17 19,16 20,16 21,16 22,16 23,16 24,16 25,16 25,17 26,17 27,17 28,18 29,18 30,19 31,19 31,20 32,20 32,21 33,21 34,21 34,22 34,23" fill="none" stroke="#ff2d55" stroke-width="3" stroke-linecap="round" stroke-linejoin="round" opacity="0.95">
    <title>5257 d:1</title>
  </polyline>
</svg>
