<?xml version="1.0" encoding="UTF-8"?>
<svg xmlns="http://www.w3.org/2000/svg" width="82" height="54" viewBox="0 0 82 54">
  <title>atom 5337 d:1</title>
  <metadata>{&quot;entityType&quot;:&quot;atom&quot;,&quot;entityId&quot;:&quot;5337&quot;,&quot;token&quot;:&quot;d:1&quot;,&quot;signature&quot;:&quot;d:1&quot;,&quot;imageName&quot;:&quot;page-004.jpg&quot;,&quot;imageId&quot;:4,&quot;bounds&quot;:{&quot;x&quot;:2186,&quot;y&quot;:1965,&quot;w&quot;:82,&quot;h&quot;:54},&quot;atoms&quot;:[{&quot;id&quot;:5337,&quot;token&quot;:&quot;d:1&quot;,&quot;particle_id&quot;:&quot;img4-m4-p1&quot;,&quot;molecule_id&quot;:&quot;img4-m4&quot;,&quot;atom_order&quot;:7}]}</metadata>
  <rect x="0" y="0" width="82" height="54" fill="#f8f0d8"/>
  <image href="file:///C:/Users/HHHES/AppData/Roaming/com.voynichlab.datasetcreator/images/1/aff30327-ced8-4ab4-8c9b-190205ebe022.jpg" x="-2186" y="-1965" width="2804" height="3797" opacity="0.92"/>
  <rect x="0.5" y="0.5" width="81" height="53" fill="none" stroke="#111827" stroke-width="1" opacity="0.35"/>
  <polyline points="29,37 28,37 27,38 27,37 26,37 25,37 24,37 24,36 23,36 22,36 22,35 21,35 21,34 20,34 20,33 19,33 19,32 18,31 18,30 17,30 17,29 17,28 17,27 16,27 16,26 16,25 16,24 16,23 16,22 16,21 17,21 17,20 18,19 19,19 19,18 20,18 21,18 21,17 22,17 23,17 24,17 24,16 25,16 26,16 27,16 28,16 29,16 30,16 31,16 32,16 33,16 35,16 36,17 37,17 38,17 39,17 40,17 41,17 42,18 43,18 44,19 45,19 46,19 47,19 47,20 48,20 49,21 50,21 50,22 52,22 52,23 53,23 54,24 55,24 56,24 57,25 58,25 59,25 60,25 61,25 62,25 63,25 64,25 64,26 65,26 66,26" fill="none" stroke="#ff2d55" stroke-width="3" stroke-linecap="round" stroke-linejoin="round" opacity="0.95">
    <title>5337 d:1</title>
  </polyline>
</svg>
