<?xml version="1.0" encoding="UTF-8"?>
<svg xmlns="http://www.w3.org/2000/svg" width="88" height="62" viewBox="0 0 88 62">
  <title>atom 5492 d:1</title>
  <metadata>{&quot;entityType&quot;:&quot;atom&quot;,&quot;entityId&quot;:&quot;5492&quot;,&quot;token&quot;:&quot;d:1&quot;,&quot;signature&quot;:&quot;d:1&quot;,&quot;imageName&quot;:&quot;page-004.jpg&quot;,&quot;imageId&quot;:4,&quot;bounds&quot;:{&quot;x&quot;:513,&quot;y&quot;:2226,&quot;w&quot;:88,&quot;h&quot;:62},&quot;atoms&quot;:[{&quot;id&quot;:5492,&quot;token&quot;:&quot;d:1&quot;,&quot;particle_id&quot;:&quot;img4-m30-p1&quot;,&quot;molecule_id&quot;:&quot;img4-m30&quot;,&quot;atom_order&quot;:7}]}</metadata>
  <rect x="0" y="0" width="88" height="62" fill="#f8f0d8"/>
  <image href="file:///C:/Users/HHHES/AppData/Roaming/com.voynichlab.datasetcreator/images/1/aff30327-ced8-4ab4-8c9b-190205ebe022.jpg" x="-513" y="-2226" width="2804" height="3797" opacity="0.92"/>
  <rect x="0.5" y="0.5" width="87" height="61" fill="none" stroke="#111827" stroke-width="1" opacity="0.35"/>
  <polyline points="25,46 24,46 23,46 22,46 22,45 21,45 21,44 20,44 20,43 19,43 18,42 18,41 17,41 17,40 17,39 16,38 16,37 16,36 16,35 16,34 16,33 16,32 16,31 17,31 17,30 17,29 17,28 18,27 18,26 19,26 19,25 20,25 20,24 21,23 22,22 23,21 24,21 25,21 25,20 26,20 27,20 27,19 28,19 28,18 29,18 30,18 31,18 32,17 33,17 33,16 34,16 35,16 36,16 37,16 38,16 39,16 40,16 41,16 42,16 43,16 44,16 45,16 46,16 47,16 48,16 49,16 50,16 51,16 52,16 53,16 54,16 55,17 56,18 57,18 58,19 59,19 60,19 60,20 61,20 62,20 63,20 63,21 64,21 65,21 66,22 67,22 68,23 69,23 70,23 70,24 71,24 72,24" fill="none" stroke="#ff2d55" stroke-width="3" stroke-linecap="round" stroke-linejoin="round" opacity="0.95">
    <title>5492 d:1</title>
  </polyline>
</svg>
