<?xml version="1.0" encoding="UTF-8"?>
<svg xmlns="http://www.w3.org/2000/svg" width="82" height="34" viewBox="0 0 82 34">
  <title>atom 2625 g:1</title>
  <metadata>{&quot;entityType&quot;:&quot;atom&quot;,&quot;entityId&quot;:&quot;2625&quot;,&quot;token&quot;:&quot;g:1&quot;,&quot;signature&quot;:&quot;g:1&quot;,&quot;imageName&quot;:&quot;page-094.jpg&quot;,&quot;imageId&quot;:94,&quot;bounds&quot;:{&quot;x&quot;:863,&quot;y&quot;:555,&quot;w&quot;:82,&quot;h&quot;:34},&quot;atoms&quot;:[{&quot;id&quot;:2625,&quot;token&quot;:&quot;g:1&quot;,&quot;particle_id&quot;:&quot;img94-m1-p3&quot;,&quot;molecule_id&quot;:&quot;img94-m1&quot;,&quot;atom_order&quot;:2}]}</metadata>
  <rect x="0" y="0" width="82" height="34" fill="#f8f0d8"/>
  
  <rect x="0.5" y="0.5" width="81" height="33" fill="none" stroke="#111827" stroke-width="1" opacity="0.35"/>
  <polyline points="16,17 17,17 18,17 18,18 19,18 20,18 21,18 22,18 23,18 24,18 24,17 25,17 26,17 27,17 28,17 29,17 30,17 31,17 32,17 33,17 34,17 35,17 36,17 37,17 38,17 39,17 39,16 40,16 41,16 42,16 43,16 44,16 45,16 46,16 47,16 48,16 49,16 50,16 50,17 51,17 52,17 53,17 54,17 55,17 56,17 57,16 58,16 59,16 60,16 61,16 62,16 63,16 64,16 65,16 66,16" fill="none" stroke="#7c3cff" stroke-width="3" stroke-linecap="round" stroke-linejoin="round" opacity="0.95">
    <title>2625 g:1</title>
  </polyline>
</svg>
