<?xml version="1.0" encoding="UTF-8"?>
<svg xmlns="http://www.w3.org/2000/svg" width="66" height="33" viewBox="0 0 66 33">
  <title>atom 3205 g:1</title>
  <metadata>{&quot;entityType&quot;:&quot;atom&quot;,&quot;entityId&quot;:&quot;3205&quot;,&quot;token&quot;:&quot;g:1&quot;,&quot;signature&quot;:&quot;g:1&quot;,&quot;imageName&quot;:&quot;page-003.jpg&quot;,&quot;imageId&quot;:3,&quot;bounds&quot;:{&quot;x&quot;:1724,&quot;y&quot;:1848,&quot;w&quot;:66,&quot;h&quot;:33},&quot;atoms&quot;:[{&quot;id&quot;:3205,&quot;token&quot;:&quot;g:1&quot;,&quot;particle_id&quot;:&quot;img3-m105-p1&quot;,&quot;molecule_id&quot;:&quot;img3-m105&quot;,&quot;atom_order&quot;:2}]}</metadata>
  <rect x="0" y="0" width="66" height="33" fill="#f8f0d8"/>

  <rect x="0.5" y="0.5" width="65" height="32" fill="none" stroke="#111827" stroke-width="1" opacity="0.35"/>
  <polyline points="16,16 17,16 18,16 19,16 20,16 21,16 22,16 23,16 24,16 25,16 26,16 27,16 28,16 29,16 30,16 31,16 32,17 33,17 34,17 36,17 37,17 38,17 39,17 40,17 41,17 42,17 43,17 44,17 45,17 46,17 47,17 48,17 49,17 50,17" fill="none" stroke="#7c3cff" stroke-width="3" stroke-linecap="round" stroke-linejoin="round" opacity="0.95">
    <title>3205 g:1</title>
  </polyline>
</svg>
