<?xml version="1.0" encoding="UTF-8"?>
<svg xmlns="http://www.w3.org/2000/svg" width="70" height="37" viewBox="0 0 70 37">
  <title>atom 5144 g:1</title>
  <metadata>{&quot;entityType&quot;:&quot;atom&quot;,&quot;entityId&quot;:&quot;5144&quot;,&quot;token&quot;:&quot;g:1&quot;,&quot;signature&quot;:&quot;g:1&quot;,&quot;imageName&quot;:&quot;page-004.jpg&quot;,&quot;imageId&quot;:4,&quot;bounds&quot;:{&quot;x&quot;:1748,&quot;y&quot;:2038,&quot;w&quot;:70,&quot;h&quot;:37},&quot;atoms&quot;:[{&quot;id&quot;:5144,&quot;token&quot;:&quot;g:1&quot;,&quot;particle_id&quot;:&quot;img4-m14-p2&quot;,&quot;molecule_id&quot;:&quot;img4-m14&quot;,&quot;atom_order&quot;:2}]}</metadata>
  <rect x="0" y="0" width="70" height="37" fill="#f8f0d8"/>

  <rect x="0.5" y="0.5" width="69" height="36" fill="none" stroke="#111827" stroke-width="1" opacity="0.35"/>
  <polyline points="16,16 17,17 18,17 19,17 20,17 21,17 22,18 23,18 24,18 25,18 26,18 27,19 28,19 29,19 30,19 31,19 32,19 33,19 34,19 35,19 36,19 37,20 38,20 39,20 40,20 41,20 42,20 43,20 44,20 45,21 46,21 47,21 48,21 49,21 50,21 51,21 52,21 53,21 54,21" fill="none" stroke="#7c3cff" stroke-width="3" stroke-linecap="round" stroke-linejoin="round" opacity="0.95">
    <title>5144 g:1</title>
  </polyline>
</svg>
