<?xml version="1.0" encoding="UTF-8"?>
<svg xmlns="http://www.w3.org/2000/svg" width="97" height="35" viewBox="0 0 97 35">
  <title>atom 5147 g:1</title>
  <metadata>{&quot;entityType&quot;:&quot;atom&quot;,&quot;entityId&quot;:&quot;5147&quot;,&quot;token&quot;:&quot;g:1&quot;,&quot;signature&quot;:&quot;g:1&quot;,&quot;imageName&quot;:&quot;page-004.jpg&quot;,&quot;imageId&quot;:4,&quot;bounds&quot;:{&quot;x&quot;:630,&quot;y&quot;:2038,&quot;w&quot;:97,&quot;h&quot;:35},&quot;atoms&quot;:[{&quot;id&quot;:5147,&quot;token&quot;:&quot;g:1&quot;,&quot;particle_id&quot;:&quot;img4-m15-p1&quot;,&quot;molecule_id&quot;:&quot;img4-m15&quot;,&quot;atom_order&quot;:6}]}</metadata>
  <rect x="0" y="0" width="97" height="35" fill="#f8f0d8"/>

  <rect x="0.5" y="0.5" width="96" height="34" fill="none" stroke="#111827" stroke-width="1" opacity="0.35"/>
  <polyline points="16,16 17,16 18,16 19,16 20,17 21,17 23,17 24,17 25,17 27,17 28,17 29,17 30,17 31,17 32,17 34,17 35,17 36,17 37,17 38,17 39,17 40,17 41,17 43,17 44,17 46,17 47,17 49,17 50,17 52,17 54,17 55,18 56,18 57,18 58,18 59,18 60,18 61,18 62,18 63,18 65,18 67,18 68,18 69,18 70,18 71,18 72,18 73,18 74,18 75,18 76,18 77,18 78,18 79,18 79,19 80,19 81,19 80,19" fill="none" stroke="#7c3cff" stroke-width="3" stroke-linecap="round" stroke-linejoin="round" opacity="0.95">
    <title>5147 g:1</title>
  </polyline>
</svg>
