<?xml version="1.0" encoding="UTF-8"?>
<svg xmlns="http://www.w3.org/2000/svg" width="103" height="34" viewBox="0 0 103 34">
  <title>atom 5150 g:1</title>
  <metadata>{&quot;entityType&quot;:&quot;atom&quot;,&quot;entityId&quot;:&quot;5150&quot;,&quot;token&quot;:&quot;g:1&quot;,&quot;signature&quot;:&quot;g:1&quot;,&quot;imageName&quot;:&quot;page-004.jpg&quot;,&quot;imageId&quot;:4,&quot;bounds&quot;:{&quot;x&quot;:908,&quot;y&quot;:2054,&quot;w&quot;:103,&quot;h&quot;:34},&quot;atoms&quot;:[{&quot;id&quot;:5150,&quot;token&quot;:&quot;g:1&quot;,&quot;particle_id&quot;:&quot;img4-m13-p3&quot;,&quot;molecule_id&quot;:&quot;img4-m13&quot;,&quot;atom_order&quot;:6}]}</metadata>
  <rect x="0" y="0" width="103" height="34" fill="#f8f0d8"/>

  <rect x="0.5" y="0.5" width="102" height="33" fill="none" stroke="#111827" stroke-width="1" opacity="0.35"/>
  <polyline points="16,16 17,16 18,16 19,16 20,16 21,16 22,16 23,16 24,16 25,16 26,17 27,17 28,17 29,17 30,17 31,17 32,17 33,17 35,17 36,17 37,17 38,17 39,17 40,17 41,17 42,17 43,17 44,17 45,17 46,17 47,17 48,17 49,17 50,17 51,17 53,17 54,17 56,17 57,18 58,18 59,18 60,18 61,18 62,18 63,18 65,18 66,18 67,18 68,18 69,18 70,18 71,18 72,18 73,18 74,18 75,18 76,18 77,18 78,18 79,18 80,18 81,18 82,18 83,18 84,18 85,18 86,18 86,17 87,17" fill="none" stroke="#7c3cff" stroke-width="3" stroke-linecap="round" stroke-linejoin="round" opacity="0.95">
    <title>5150 g:1</title>
  </polyline>
</svg>
