<?xml version="1.0" encoding="UTF-8"?>
<svg xmlns="http://www.w3.org/2000/svg" width="100" height="36" viewBox="0 0 100 36">
  <title>atom 6455 g:1</title>
  <metadata>{&quot;entityType&quot;:&quot;atom&quot;,&quot;entityId&quot;:&quot;6455&quot;,&quot;token&quot;:&quot;g:1&quot;,&quot;signature&quot;:&quot;g:1&quot;,&quot;imageName&quot;:&quot;page-005.jpg&quot;,&quot;imageId&quot;:5,&quot;bounds&quot;:{&quot;x&quot;:1242,&quot;y&quot;:2896,&quot;w&quot;:100,&quot;h&quot;:36},&quot;atoms&quot;:[{&quot;id&quot;:6455,&quot;token&quot;:&quot;g:1&quot;,&quot;particle_id&quot;:&quot;img5-m104-p2&quot;,&quot;molecule_id&quot;:&quot;img5-m104&quot;,&quot;atom_order&quot;:7}]}</metadata>
  <rect x="0" y="0" width="100" height="36" fill="#f8f0d8"/>

  <rect x="0.5" y="0.5" width="99" height="35" fill="none" stroke="#111827" stroke-width="1" opacity="0.35"/>
  <polyline points="16,16 17,16 18,16 19,16 20,16 22,16 23,16 24,16 26,16 27,17 28,17 29,17 30,17 31,17 32,17 34,17 36,17 37,17 37,18 38,18 39,18 40,18 42,18 43,18 44,18 45,18 46,18 47,18 48,18 49,18 50,18 51,18 52,18 53,18 53,19 54,19 55,19 56,19 57,19 58,19 59,19 60,19 61,19 62,19 63,19 64,19 65,19 65,20 66,20 67,20 68,20 69,20 70,20 71,20 72,20 73,20 74,20 75,20 76,20 77,20 78,20 79,20 80,20 81,20 82,20 83,20 84,20" fill="none" stroke="#7c3cff" stroke-width="3" stroke-linecap="round" stroke-linejoin="round" opacity="0.95">
    <title>6455 g:1</title>
  </polyline>
</svg>
