<?xml version="1.0" encoding="UTF-8"?>
<svg xmlns="http://www.w3.org/2000/svg" width="58" height="64" viewBox="0 0 58 64">
  <title>atom 3670 n:1</title>
  <metadata>{&quot;entityType&quot;:&quot;atom&quot;,&quot;entityId&quot;:&quot;3670&quot;,&quot;token&quot;:&quot;n:1&quot;,&quot;signature&quot;:&quot;n:1&quot;,&quot;imageName&quot;:&quot;page-003.jpg&quot;,&quot;imageId&quot;:3,&quot;bounds&quot;:{&quot;x&quot;:1659,&quot;y&quot;:1023,&quot;w&quot;:58,&quot;h&quot;:64},&quot;atoms&quot;:[{&quot;id&quot;:3670,&quot;token&quot;:&quot;n:1&quot;,&quot;particle_id&quot;:&quot;img3-m47-p2&quot;,&quot;molecule_id&quot;:&quot;img3-m47&quot;,&quot;atom_order&quot;:1}]}</metadata>
  <rect x="0" y="0" width="58" height="64" fill="#f8f0d8"/>
  <image href="file:///C:/Users/HHHES/AppData/Roaming/com.voynichlab.datasetcreator/images/1/35a70f63-88ab-4986-b441-b78046a10087.jpg" x="-1659" y="-1023" width="2972" height="3766" opacity="0.92"/>
  <rect x="0.5" y="0.5" width="57" height="63" fill="none" stroke="#111827" stroke-width="1" opacity="0.35"/>
  <polyline points="16,44 16,43 16,42 17,42 17,41 17,40 17,39 17,38 17,37 17,36 18,36 18,35 18,34 18,33 18,32 19,32 19,31 19,30 20,29 20,28 21,28 21,27 21,26 22,26 22,25 23,24 24,23 25,22 25,21 26,21 26,20 26,19 27,19 27,18 28,18 28,17 29,17 30,17 30,16 31,16 32,16 33,16 34,16 35,16 35,17 36,17 37,18 37,19 38,19 38,20 39,20 39,21 40,22 40,23 41,23 41,24 41,25 42,25 42,26 42,27 42,28 42,29 42,30 42,31 42,32 42,33 42,34 41,34 41,35 41,36 41,37 41,38 41,39 40,40 40,41 40,42 39,42 39,43 39,44 38,44 38,45 37,45 37,46 36,46 35,46 35,47 34,47 34,48 33,48" fill="none" stroke="#f92f59" stroke-width="3" stroke-linecap="round" stroke-linejoin="round" opacity="0.95">
    <title>3670 n:1</title>
  </polyline>
</svg>
