<?xml version="1.0" encoding="UTF-8"?>
<svg xmlns="http://www.w3.org/2000/svg" width="61" height="65" viewBox="0 0 61 65">
  <title>atom 3671 n:1</title>
  <metadata>{&quot;entityType&quot;:&quot;atom&quot;,&quot;entityId&quot;:&quot;3671&quot;,&quot;token&quot;:&quot;n:1&quot;,&quot;signature&quot;:&quot;n:1&quot;,&quot;imageName&quot;:&quot;page-003.jpg&quot;,&quot;imageId&quot;:3,&quot;bounds&quot;:{&quot;x&quot;:2120,&quot;y&quot;:1031,&quot;w&quot;:61,&quot;h&quot;:65},&quot;atoms&quot;:[{&quot;id&quot;:3671,&quot;token&quot;:&quot;n:1&quot;,&quot;particle_id&quot;:&quot;img3-m49-p1&quot;,&quot;molecule_id&quot;:&quot;img3-m49&quot;,&quot;atom_order&quot;:1}]}</metadata>
  <rect x="0" y="0" width="61" height="65" fill="#f8f0d8"/>
  <image href="file:///C:/Users/HHHES/AppData/Roaming/com.voynichlab.datasetcreator/images/1/35a70f63-88ab-4986-b441-b78046a10087.jpg" x="-2120" y="-1031" width="2972" height="3766" opacity="0.92"/>
  <rect x="0.5" y="0.5" width="60" height="64" fill="none" stroke="#111827" stroke-width="1" opacity="0.35"/>
  <polyline points="16,40 16,39 16,38 16,37 16,36 16,35 16,34 16,33 16,32 16,31 16,30 16,29 16,28 17,27 17,26 18,26 18,25 19,24 19,23 20,23 20,22 21,22 21,21 22,21 23,20 24,20 24,19 24,18 25,18 26,17 27,17 28,16 29,16 30,16 31,16 32,16 33,16 34,16 35,16 36,17 37,17 38,17 38,18 39,18 40,18 41,19 41,20 42,20 43,20 43,21 43,22 44,22 44,23 44,24 45,25 45,26 45,27 45,28 45,29 45,30 45,31 44,32 44,33 44,34 44,35 43,35 43,36 43,37 42,38 42,39 42,40 41,41 40,42 40,43 39,43 39,44 38,45 37,46 37,47 36,48 35,49" fill="none" stroke="#f92f59" stroke-width="3" stroke-linecap="round" stroke-linejoin="round" opacity="0.95">
    <title>3671 n:1</title>
  </polyline>
</svg>
