<?xml version="1.0" encoding="UTF-8"?>
<svg xmlns="http://www.w3.org/2000/svg" width="55" height="55" viewBox="0 0 55 55">
  <title>atom 3672 n:1</title>
  <metadata>{&quot;entityType&quot;:&quot;atom&quot;,&quot;entityId&quot;:&quot;3672&quot;,&quot;token&quot;:&quot;n:1&quot;,&quot;signature&quot;:&quot;n:1&quot;,&quot;imageName&quot;:&quot;page-003.jpg&quot;,&quot;imageId&quot;:3,&quot;bounds&quot;:{&quot;x&quot;:1158,&quot;y&quot;:1203,&quot;w&quot;:55,&quot;h&quot;:55},&quot;atoms&quot;:[{&quot;id&quot;:3672,&quot;token&quot;:&quot;n:1&quot;,&quot;particle_id&quot;:&quot;img3-m62-p1&quot;,&quot;molecule_id&quot;:&quot;img3-m62&quot;,&quot;atom_order&quot;:1}]}</metadata>
  <rect x="0" y="0" width="55" height="55" fill="#f8f0d8"/>
  <image href="file:///C:/Users/HHHES/AppData/Roaming/com.voynichlab.datasetcreator/images/1/35a70f63-88ab-4986-b441-b78046a10087.jpg" x="-1158" y="-1203" width="2972" height="3766" opacity="0.92"/>
  <rect x="0.5" y="0.5" width="54" height="54" fill="none" stroke="#111827" stroke-width="1" opacity="0.35"/>
  <polyline points="19,28 18,28 17,28 17,27 17,26 16,25 16,24 16,23 16,22 16,21 16,20 17,20 17,19 18,19 19,18 20,18 20,17 21,17 22,17 23,17 23,16 24,16 25,16 26,16 28,16 30,16 31,16 32,16 33,17 34,17 35,18 36,18 37,18 37,19 38,19 38,20 39,20 39,21 39,22 38,23 38,24 38,25 37,25 37,26 36,26 36,27 35,27 35,28 35,29 34,29 33,30 32,31 31,31 30,32 29,32 28,32 28,33 27,33 26,34 25,34 24,35 23,35 22,35 21,36 20,36 19,36 19,37 18,37 17,38 16,38 16,39" fill="none" stroke="#f92f59" stroke-width="3" stroke-linecap="round" stroke-linejoin="round" opacity="0.95">
    <title>3672 n:1</title>
  </polyline>
</svg>
