<?xml version="1.0" encoding="UTF-8"?>
<svg xmlns="http://www.w3.org/2000/svg" width="47" height="58" viewBox="0 0 47 58">
  <title>atom 3675 n:1</title>
  <metadata>{&quot;entityType&quot;:&quot;atom&quot;,&quot;entityId&quot;:&quot;3675&quot;,&quot;token&quot;:&quot;n:1&quot;,&quot;signature&quot;:&quot;n:1&quot;,&quot;imageName&quot;:&quot;page-003.jpg&quot;,&quot;imageId&quot;:3,&quot;bounds&quot;:{&quot;x&quot;:776,&quot;y&quot;:1120,&quot;w&quot;:47,&quot;h&quot;:58},&quot;atoms&quot;:[{&quot;id&quot;:3675,&quot;token&quot;:&quot;n:1&quot;,&quot;particle_id&quot;:&quot;img3-m56-p1&quot;,&quot;molecule_id&quot;:&quot;img3-m56&quot;,&quot;atom_order&quot;:1}]}</metadata>
  <rect x="0" y="0" width="47" height="58" fill="#f8f0d8"/>
  <image href="file:///C:/Users/HHHES/AppData/Roaming/com.voynichlab.datasetcreator/images/1/35a70f63-88ab-4986-b441-b78046a10087.jpg" x="-776" y="-1120" width="2972" height="3766" opacity="0.92"/>
  <rect x="0.5" y="0.5" width="46" height="57" fill="none" stroke="#111827" stroke-width="1" opacity="0.35"/>
  <polyline points="17,28 17,27 17,26 17,25 17,24 17,23 17,22 18,22 18,21 18,20 19,20 19,19 20,19 20,18 21,18 22,17 23,17 24,17 24,16 25,16 26,16 27,16 28,16 29,16 30,16 31,17 31,18 31,19 31,20 31,21 30,21 30,22 30,23 29,24 28,25 28,26 27,26 27,27 26,28 25,29 25,30 24,30 24,31 23,32 22,33 21,34 21,35 20,35 20,36 19,37 19,38 18,39 17,40 16,41 16,42" fill="none" stroke="#f92f59" stroke-width="3" stroke-linecap="round" stroke-linejoin="round" opacity="0.95">
    <title>3675 n:1</title>
  </polyline>
</svg>
