<?xml version="1.0" encoding="UTF-8"?>
<svg xmlns="http://www.w3.org/2000/svg" width="51" height="58" viewBox="0 0 51 58">
  <title>atom 3676 n:1</title>
  <metadata>{&quot;entityType&quot;:&quot;atom&quot;,&quot;entityId&quot;:&quot;3676&quot;,&quot;token&quot;:&quot;n:1&quot;,&quot;signature&quot;:&quot;n:1&quot;,&quot;imageName&quot;:&quot;page-003.jpg&quot;,&quot;imageId&quot;:3,&quot;bounds&quot;:{&quot;x&quot;:1783,&quot;y&quot;:1460,&quot;w&quot;:51,&quot;h&quot;:58},&quot;atoms&quot;:[{&quot;id&quot;:3676,&quot;token&quot;:&quot;n:1&quot;,&quot;particle_id&quot;:&quot;img3-m71-p1&quot;,&quot;molecule_id&quot;:&quot;img3-m71&quot;,&quot;atom_order&quot;:1}]}</metadata>
  <rect x="0" y="0" width="51" height="58" fill="#f8f0d8"/>
  <image href="file:///C:/Users/HHHES/AppData/Roaming/com.voynichlab.datasetcreator/images/1/35a70f63-88ab-4986-b441-b78046a10087.jpg" x="-1783" y="-1460" width="2972" height="3766" opacity="0.92"/>
  <rect x="0.5" y="0.5" width="50" height="57" fill="none" stroke="#111827" stroke-width="1" opacity="0.35"/>
  <polyline points="17,40 17,39 16,38 16,37 16,36 16,35 16,34 16,33 16,32 16,31 16,30 16,29 16,28 17,28 17,27 17,26 17,25 18,24 18,23 18,22 19,21 19,20 20,20 20,19 21,19 22,18 23,18 23,17 24,17 25,17 26,17 26,16 27,16 28,16 28,17 29,17 30,17 31,17 32,18 33,19 34,19 34,20 34,21 35,21 35,22 35,23 35,24 35,25 35,26 35,27 35,28 34,28 34,29 34,30 33,30 33,31 32,31 32,32 32,33 31,33 31,34 30,34 30,35 29,35 29,36 28,36 28,37 27,37 27,38 26,38 25,38 24,39 24,40 23,40 22,41 21,41 21,42 20,42" fill="none" stroke="#f92f59" stroke-width="3" stroke-linecap="round" stroke-linejoin="round" opacity="0.95">
    <title>3676 n:1</title>
  </polyline>
</svg>
