<?xml version="1.0" encoding="UTF-8"?>
<svg xmlns="http://www.w3.org/2000/svg" width="48" height="54" viewBox="0 0 48 54">
  <title>atom 3681 n:1</title>
  <metadata>{&quot;entityType&quot;:&quot;atom&quot;,&quot;entityId&quot;:&quot;3681&quot;,&quot;token&quot;:&quot;n:1&quot;,&quot;signature&quot;:&quot;n:1&quot;,&quot;imageName&quot;:&quot;page-003.jpg&quot;,&quot;imageId&quot;:3,&quot;bounds&quot;:{&quot;x&quot;:570,&quot;y&quot;:1661,&quot;w&quot;:48,&quot;h&quot;:54},&quot;atoms&quot;:[{&quot;id&quot;:3681,&quot;token&quot;:&quot;n:1&quot;,&quot;particle_id&quot;:&quot;img3-m88-p1&quot;,&quot;molecule_id&quot;:&quot;img3-m88&quot;,&quot;atom_order&quot;:1}]}</metadata>
  <rect x="0" y="0" width="48" height="54" fill="#f8f0d8"/>
  <image href="file:///C:/Users/HHHES/AppData/Roaming/com.voynichlab.datasetcreator/images/1/35a70f63-88ab-4986-b441-b78046a10087.jpg" x="-570" y="-1661" width="2972" height="3766" opacity="0.92"/>
  <rect x="0.5" y="0.5" width="47" height="53" fill="none" stroke="#111827" stroke-width="1" opacity="0.35"/>
  <polyline points="16,27 16,26 16,25 16,24 16,23 17,22 17,21 18,21 18,20 19,20 19,19 20,18 20,17 21,17 22,17 23,17 24,16 25,16 26,16 27,16 28,16 29,16 29,17 30,17 31,18 32,19 32,20 32,21 32,22 32,23 32,24 32,25 32,26 32,27 31,28 31,29 30,30 30,31 29,32 28,33 28,34 27,34 27,35 26,35 26,36 25,36 24,36 24,37 23,37 23,38 22,38" fill="none" stroke="#f92f59" stroke-width="3" stroke-linecap="round" stroke-linejoin="round" opacity="0.95">
    <title>3681 n:1</title>
  </polyline>
</svg>
