<?xml version="1.0" encoding="UTF-8"?>
<svg xmlns="http://www.w3.org/2000/svg" width="48" height="59" viewBox="0 0 48 59">
  <title>atom 3783 n:1</title>
  <metadata>{&quot;entityType&quot;:&quot;atom&quot;,&quot;entityId&quot;:&quot;3783&quot;,&quot;token&quot;:&quot;n:1&quot;,&quot;signature&quot;:&quot;n:1&quot;,&quot;imageName&quot;:&quot;page-003.jpg&quot;,&quot;imageId&quot;:3,&quot;bounds&quot;:{&quot;x&quot;:1684,&quot;y&quot;:2493,&quot;w&quot;:48,&quot;h&quot;:59},&quot;atoms&quot;:[{&quot;id&quot;:3783,&quot;token&quot;:&quot;n:1&quot;,&quot;particle_id&quot;:&quot;img3-m152-p2&quot;,&quot;molecule_id&quot;:&quot;img3-m152&quot;,&quot;atom_order&quot;:1}]}</metadata>
  <rect x="0" y="0" width="48" height="59" fill="#f8f0d8"/>
  <image href="file:///C:/Users/HHHES/AppData/Roaming/com.voynichlab.datasetcreator/images/1/35a70f63-88ab-4986-b441-b78046a10087.jpg" x="-1684" y="-2493" width="2972" height="3766" opacity="0.92"/>
  <rect x="0.5" y="0.5" width="47" height="58" fill="none" stroke="#111827" stroke-width="1" opacity="0.35"/>
  <polyline points="17,31 17,32 17,31 16,31 16,30 16,29 16,28 16,27 16,26 16,25 16,24 17,23 17,22 18,21 18,20 19,19 20,18 21,17 22,17 23,17 23,16 24,16 25,16 26,16 27,16 28,16 29,16 30,17 31,17 31,18 32,19 32,20 32,21 32,22 32,23 32,24 32,25 32,26 31,27 31,28 31,29 31,30 30,30 30,31 30,32 29,33 29,34 29,35 28,35 28,36 28,37 27,37 27,38 27,39 26,39 26,40 26,41 25,41 25,42 24,42 24,43 23,43 22,43" fill="none" stroke="#f92f59" stroke-width="3" stroke-linecap="round" stroke-linejoin="round" opacity="0.95">
    <title>3783 n:1</title>
  </polyline>
</svg>
