<?xml version="1.0" encoding="UTF-8"?>
<svg xmlns="http://www.w3.org/2000/svg" width="50" height="66" viewBox="0 0 50 66">
  <title>atom 2638 i:1</title>
  <metadata>{&quot;entityType&quot;:&quot;atom&quot;,&quot;entityId&quot;:&quot;2638&quot;,&quot;token&quot;:&quot;i:1&quot;,&quot;signature&quot;:&quot;i:1&quot;,&quot;imageName&quot;:&quot;page-094.jpg&quot;,&quot;imageId&quot;:94,&quot;bounds&quot;:{&quot;x&quot;:1190,&quot;y&quot;:516,&quot;w&quot;:50,&quot;h&quot;:66},&quot;atoms&quot;:[{&quot;id&quot;:2638,&quot;token&quot;:&quot;i:1&quot;,&quot;particle_id&quot;:&quot;img94-m6-p4&quot;,&quot;molecule_id&quot;:&quot;img94-m6&quot;,&quot;atom_order&quot;:2}]}</metadata>
  <rect x="0" y="0" width="50" height="66" fill="#f8f0d8"/>
  <image href="file:///C:/Users/HHHES/AppData/Roaming/com.voynichlab.datasetcreator/images/1/33b1988f-7aaa-4207-bfa8-f26b742ac4b1.jpg" x="-1190" y="-516" width="2932" height="3769" opacity="0.92"/>
  <rect x="0.5" y="0.5" width="49" height="65" fill="none" stroke="#111827" stroke-width="1" opacity="0.35"/>
  <polyline points="16,50 17,50 18,50 19,50 20,50 21,50 22,50 22,49 23,49 24,49 24,48 25,48 25,47 26,47 27,47 27,46 28,46 28,45 29,45 29,44 30,44 30,43 31,43 31,42 31,41 32,41 32,40 33,40 33,39 33,38 34,38 34,37 34,36 34,35 34,34 34,33 34,32 34,31 34,30 34,29 34,28 33,28 33,27 33,26 33,25 33,24 32,24 32,23 32,22 32,21 31,21 31,20 31,19 30,19 30,18 29,18 29,17 28,17 28,16" fill="none" stroke="#00ff7f" stroke-width="3" stroke-linecap="round" stroke-linejoin="round" opacity="0.95">
    <title>2638 i:1</title>
  </polyline>
</svg>
