<?xml version="1.0" encoding="UTF-8"?>
<svg xmlns="http://www.w3.org/2000/svg" width="61" height="69" viewBox="0 0 61 69">
  <title>atom 2683 i:1</title>
  <metadata>{&quot;entityType&quot;:&quot;atom&quot;,&quot;entityId&quot;:&quot;2683&quot;,&quot;token&quot;:&quot;i:1&quot;,&quot;signature&quot;:&quot;i:1&quot;,&quot;imageName&quot;:&quot;page-094.jpg&quot;,&quot;imageId&quot;:94,&quot;bounds&quot;:{&quot;x&quot;:2120,&quot;y&quot;:555,&quot;w&quot;:61,&quot;h&quot;:69},&quot;atoms&quot;:[{&quot;id&quot;:2683,&quot;token&quot;:&quot;i:1&quot;,&quot;particle_id&quot;:&quot;img94-m5-p3&quot;,&quot;molecule_id&quot;:&quot;img94-m5&quot;,&quot;atom_order&quot;:2}]}</metadata>
  <rect x="0" y="0" width="61" height="69" fill="#f8f0d8"/>
  <image href="file:///C:/Users/HHHES/AppData/Roaming/com.voynichlab.datasetcreator/images/1/33b1988f-7aaa-4207-bfa8-f26b742ac4b1.jpg" x="-2120" y="-555" width="2932" height="3769" opacity="0.92"/>
  <rect x="0.5" y="0.5" width="60" height="68" fill="none" stroke="#111827" stroke-width="1" opacity="0.35"/>
  <polyline points="16,52 17,52 18,52 19,52 20,52 21,52 21,53 22,53 23,53 24,53 25,53 26,53 27,53 28,53 28,52 29,52 30,52 31,52 31,51 32,51 33,51 34,51 34,50 35,50 36,50 36,49 37,49 37,48 38,48 39,48 39,47 40,47 40,46 41,46 41,45 41,44 42,44 42,43 43,43 43,42 43,41 44,40 45,39 45,38 45,37 45,36 45,35 45,34 45,33 45,32 45,31 45,30 45,29 45,28 45,27 45,26 45,25 45,24 45,23 45,22 45,21 45,20 44,20 44,19 44,18 43,18 43,17 42,17 42,16" fill="none" stroke="#00ff7f" stroke-width="3" stroke-linecap="round" stroke-linejoin="round" opacity="0.95">
    <title>2683 i:1</title>
  </polyline>
</svg>
