<?xml version="1.0" encoding="UTF-8"?>
<svg xmlns="http://www.w3.org/2000/svg" width="54" height="61" viewBox="0 0 54 61">
  <title>atom 2837 i:1</title>
  <metadata>{&quot;entityType&quot;:&quot;atom&quot;,&quot;entityId&quot;:&quot;2837&quot;,&quot;token&quot;:&quot;i:1&quot;,&quot;signature&quot;:&quot;i:1&quot;,&quot;imageName&quot;:&quot;page-094.jpg&quot;,&quot;imageId&quot;:94,&quot;bounds&quot;:{&quot;x&quot;:1491,&quot;y&quot;:695,&quot;w&quot;:54,&quot;h&quot;:61},&quot;atoms&quot;:[{&quot;id&quot;:2837,&quot;token&quot;:&quot;i:1&quot;,&quot;particle_id&quot;:&quot;img94-m14-p3&quot;,&quot;molecule_id&quot;:&quot;img94-m14&quot;,&quot;atom_order&quot;:2}]}</metadata>
  <rect x="0" y="0" width="54" height="61" fill="#f8f0d8"/>
  <image href="file:///C:/Users/HHHES/AppData/Roaming/com.voynichlab.datasetcreator/images/1/33b1988f-7aaa-4207-bfa8-f26b742ac4b1.jpg" x="-1491" y="-695" width="2932" height="3769" opacity="0.92"/>
  <rect x="0.5" y="0.5" width="53" height="60" fill="none" stroke="#111827" stroke-width="1" opacity="0.35"/>
  <polyline points="16,45 17,45 18,45 19,45 20,45 21,45 21,44 22,44 23,44 24,43 25,43 26,43 26,42 27,42 27,41 28,41 29,41 29,40 30,40 30,39 30,38 31,38 31,37 32,37 32,36 33,35 33,34 34,34 34,33 35,32 35,31 36,30 36,29 36,28 37,28 37,27 37,26 37,25 38,25 38,24 38,23 38,22 38,21 38,20 38,19 37,18 37,17 37,16 36,16" fill="none" stroke="#00ff7f" stroke-width="3" stroke-linecap="round" stroke-linejoin="round" opacity="0.95">
    <title>2837 i:1</title>
  </polyline>
</svg>
