<?xml version="1.0" encoding="UTF-8"?>
<svg xmlns="http://www.w3.org/2000/svg" width="56" height="61" viewBox="0 0 56 61">
  <title>atom 3023 i:1</title>
  <metadata>{&quot;entityType&quot;:&quot;atom&quot;,&quot;entityId&quot;:&quot;3023&quot;,&quot;token&quot;:&quot;i:1&quot;,&quot;signature&quot;:&quot;i:1&quot;,&quot;imageName&quot;:&quot;page-094.jpg&quot;,&quot;imageId&quot;:94,&quot;bounds&quot;:{&quot;x&quot;:1208,&quot;y&quot;:949,&quot;w&quot;:56,&quot;h&quot;:61},&quot;atoms&quot;:[{&quot;id&quot;:3023,&quot;token&quot;:&quot;i:1&quot;,&quot;particle_id&quot;:&quot;img94-m38-p4&quot;,&quot;molecule_id&quot;:&quot;img94-m38&quot;,&quot;atom_order&quot;:2}]}</metadata>
  <rect x="0" y="0" width="56" height="61" fill="#f8f0d8"/>
  <image href="file:///C:/Users/HHHES/AppData/Roaming/com.voynichlab.datasetcreator/images/1/33b1988f-7aaa-4207-bfa8-f26b742ac4b1.jpg" x="-1208" y="-949" width="2932" height="3769" opacity="0.92"/>
  <rect x="0.5" y="0.5" width="55" height="60" fill="none" stroke="#111827" stroke-width="1" opacity="0.35"/>
  <polyline points="16,45 17,45 18,45 19,45 20,45 21,45 22,45 23,45 24,45 25,44 26,44 27,44 28,44 28,43 29,43 30,43 31,42 32,42 32,41 33,41 34,41 34,40 35,40 35,39 36,39 36,38 37,37 38,36 38,35 38,34 39,34 39,33 39,32 40,31 40,30 40,29 40,28 40,27 40,26 40,25 40,24 40,23 40,22 40,21 40,20 39,20 39,19 39,18 38,18 37,17 36,16 35,16" fill="none" stroke="#00ff7f" stroke-width="3" stroke-linecap="round" stroke-linejoin="round" opacity="0.95">
    <title>3023 i:1</title>
  </polyline>
</svg>
