<?xml version="1.0" encoding="UTF-8"?>
<svg xmlns="http://www.w3.org/2000/svg" width="46" height="67" viewBox="0 0 46 67">
  <title>atom 3025 i:1</title>
  <metadata>{&quot;entityType&quot;:&quot;atom&quot;,&quot;entityId&quot;:&quot;3025&quot;,&quot;token&quot;:&quot;i:1&quot;,&quot;signature&quot;:&quot;i:1&quot;,&quot;imageName&quot;:&quot;page-094.jpg&quot;,&quot;imageId&quot;:94,&quot;bounds&quot;:{&quot;x&quot;:1447,&quot;y&quot;:948,&quot;w&quot;:46,&quot;h&quot;:67},&quot;atoms&quot;:[{&quot;id&quot;:3025,&quot;token&quot;:&quot;i:1&quot;,&quot;particle_id&quot;:&quot;img94-m36-p3&quot;,&quot;molecule_id&quot;:&quot;img94-m36&quot;,&quot;atom_order&quot;:3}]}</metadata>
  <rect x="0" y="0" width="46" height="67" fill="#f8f0d8"/>
  <image href="file:///C:/Users/HHHES/AppData/Roaming/com.voynichlab.datasetcreator/images/1/33b1988f-7aaa-4207-bfa8-f26b742ac4b1.jpg" x="-1447" y="-948" width="2932" height="3769" opacity="0.92"/>
  <rect x="0.5" y="0.5" width="45" height="66" fill="none" stroke="#111827" stroke-width="1" opacity="0.35"/>
  <polyline points="16,51 17,51 18,51 19,51 19,50 20,50 21,50 21,49 22,49 23,48 24,48 24,47 25,47 25,46 26,46 26,45 27,45 27,44 28,43 28,42 29,41 29,40 29,39 30,38 30,37 30,36 30,35 30,34 30,33 30,32 30,31 30,30 30,29 30,28 30,27 29,26 29,25 28,24 28,23 28,22 27,22 27,21 26,21 26,20 25,20 25,19 24,19 24,18 23,18 23,17 22,17 22,16" fill="none" stroke="#00ff7f" stroke-width="3" stroke-linecap="round" stroke-linejoin="round" opacity="0.95">
    <title>3025 i:1</title>
  </polyline>
</svg>
