<?xml version="1.0" encoding="UTF-8"?>
<svg xmlns="http://www.w3.org/2000/svg" width="57" height="82" viewBox="0 0 57 82">
  <title>atom 4255 i:1</title>
  <metadata>{&quot;entityType&quot;:&quot;atom&quot;,&quot;entityId&quot;:&quot;4255&quot;,&quot;token&quot;:&quot;i:1&quot;,&quot;signature&quot;:&quot;i:1&quot;,&quot;imageName&quot;:&quot;page-094.jpg&quot;,&quot;imageId&quot;:94,&quot;bounds&quot;:{&quot;x&quot;:991,&quot;y&quot;:2438,&quot;w&quot;:57,&quot;h&quot;:82},&quot;atoms&quot;:[{&quot;id&quot;:4255,&quot;token&quot;:&quot;i:1&quot;,&quot;particle_id&quot;:&quot;img94-m40-p2&quot;,&quot;molecule_id&quot;:&quot;img94-m40&quot;,&quot;atom_order&quot;:3}]}</metadata>
  <rect x="0" y="0" width="57" height="82" fill="#f8f0d8"/>
  <image href="file:///C:/Users/HHHES/AppData/Roaming/com.voynichlab.datasetcreator/images/1/33b1988f-7aaa-4207-bfa8-f26b742ac4b1.jpg" x="-991" y="-2438" width="2932" height="3769" opacity="0.92"/>
  <rect x="0.5" y="0.5" width="56" height="81" fill="none" stroke="#111827" stroke-width="1" opacity="0.35"/>
  <polyline points="38,66 38,65 39,65 39,64 40,63 40,62 40,61 40,60 41,59 41,58 41,57 41,56 41,55 41,54 41,53 41,52 41,51 41,50 41,49 41,48 40,48 40,47 40,46 40,45 40,44 39,44 39,43 39,42 38,41 38,40 37,40 37,39 37,38 36,37 36,36 35,36 35,35 35,34 34,34 34,33 33,32 33,31 32,31 32,30 31,29 31,28 30,27 29,26 28,25 27,24 27,23 26,22 25,22 25,21 24,21 24,20 23,20 22,19 21,18 20,18 19,17 18,17 17,16 16,16" fill="none" stroke="#00ff7f" stroke-width="3" stroke-linecap="round" stroke-linejoin="round" opacity="0.95">
    <title>4255 i:1</title>
  </polyline>
</svg>
