<?xml version="1.0" encoding="UTF-8"?>
<svg xmlns="http://www.w3.org/2000/svg" width="57" height="63" viewBox="0 0 57 63">
  <title>atom 4323 i:1</title>
  <metadata>{&quot;entityType&quot;:&quot;atom&quot;,&quot;entityId&quot;:&quot;4323&quot;,&quot;token&quot;:&quot;i:1&quot;,&quot;signature&quot;:&quot;i:1&quot;,&quot;imageName&quot;:&quot;page-094.jpg&quot;,&quot;imageId&quot;:94,&quot;bounds&quot;:{&quot;x&quot;:1203,&quot;y&quot;:2507,&quot;w&quot;:57,&quot;h&quot;:63},&quot;atoms&quot;:[{&quot;id&quot;:4323,&quot;token&quot;:&quot;i:1&quot;,&quot;particle_id&quot;:&quot;img94-m47-p2&quot;,&quot;molecule_id&quot;:&quot;img94-m47&quot;,&quot;atom_order&quot;:2}]}</metadata>
  <rect x="0" y="0" width="57" height="63" fill="#f8f0d8"/>
  <image href="file:///C:/Users/HHHES/AppData/Roaming/com.voynichlab.datasetcreator/images/1/33b1988f-7aaa-4207-bfa8-f26b742ac4b1.jpg" x="-1203" y="-2507" width="2932" height="3769" opacity="0.92"/>
  <rect x="0.5" y="0.5" width="56" height="62" fill="none" stroke="#111827" stroke-width="1" opacity="0.35"/>
  <polyline points="16,47 17,47 17,46 18,46 19,46 20,45 21,45 22,45 23,44 24,44 25,43 26,43 27,42 28,42 28,41 29,41 30,41 30,40 31,39 32,39 32,38 33,37 34,36 34,35 35,35 35,34 36,33 37,32 38,31 38,30 39,30 39,29 39,28 40,27 40,26 40,25 40,24 40,23 40,22 40,21 41,20 41,19 41,18 41,17 41,16" fill="none" stroke="#00ff7f" stroke-width="3" stroke-linecap="round" stroke-linejoin="round" opacity="0.95">
    <title>4323 i:1</title>
  </polyline>
</svg>
