<?xml version="1.0" encoding="UTF-8"?>
<svg xmlns="http://www.w3.org/2000/svg" width="49" height="60" viewBox="0 0 49 60">
  <title>atom 4324 i:1</title>
  <metadata>{&quot;entityType&quot;:&quot;atom&quot;,&quot;entityId&quot;:&quot;4324&quot;,&quot;token&quot;:&quot;i:1&quot;,&quot;signature&quot;:&quot;i:1&quot;,&quot;imageName&quot;:&quot;page-094.jpg&quot;,&quot;imageId&quot;:94,&quot;bounds&quot;:{&quot;x&quot;:1552,&quot;y&quot;:2501,&quot;w&quot;:49,&quot;h&quot;:60},&quot;atoms&quot;:[{&quot;id&quot;:4324,&quot;token&quot;:&quot;i:1&quot;,&quot;particle_id&quot;:&quot;img94-m43-p1&quot;,&quot;molecule_id&quot;:&quot;img94-m43&quot;,&quot;atom_order&quot;:2}]}</metadata>
  <rect x="0" y="0" width="49" height="60" fill="#f8f0d8"/>
  <image href="file:///C:/Users/HHHES/AppData/Roaming/com.voynichlab.datasetcreator/images/1/33b1988f-7aaa-4207-bfa8-f26b742ac4b1.jpg" x="-1552" y="-2501" width="2932" height="3769" opacity="0.92"/>
  <rect x="0.5" y="0.5" width="48" height="59" fill="none" stroke="#111827" stroke-width="1" opacity="0.35"/>
  <polyline points="16,44 17,44 17,43 18,43 19,43 20,43 21,43 22,42 23,42 24,41 25,41 25,40 26,40 27,39 28,39 28,38 29,38 29,37 30,37 30,36 31,35 31,34 31,33 32,33 32,32 32,31 33,31 33,30 33,29 33,28 33,27 33,26 33,25 32,24 32,23 32,22 31,22 31,21 31,20 30,20 30,19 29,19 29,18 28,18 28,17 27,17 26,16 25,16" fill="none" stroke="#00ff7f" stroke-width="3" stroke-linecap="round" stroke-linejoin="round" opacity="0.95">
    <title>4324 i:1</title>
  </polyline>
</svg>
