<?xml version="1.0" encoding="UTF-8"?>
<svg xmlns="http://www.w3.org/2000/svg" width="49" height="67" viewBox="0 0 49 67">
  <title>atom 4630 i:1</title>
  <metadata>{&quot;entityType&quot;:&quot;atom&quot;,&quot;entityId&quot;:&quot;4630&quot;,&quot;token&quot;:&quot;i:1&quot;,&quot;signature&quot;:&quot;i:1&quot;,&quot;imageName&quot;:&quot;page-094.jpg&quot;,&quot;imageId&quot;:94,&quot;bounds&quot;:{&quot;x&quot;:2368,&quot;y&quot;:2798,&quot;w&quot;:49,&quot;h&quot;:67},&quot;atoms&quot;:[{&quot;id&quot;:4630,&quot;token&quot;:&quot;i:1&quot;,&quot;particle_id&quot;:&quot;img94-m64-p3&quot;,&quot;molecule_id&quot;:&quot;img94-m64&quot;,&quot;atom_order&quot;:3}]}</metadata>
  <rect x="0" y="0" width="49" height="67" fill="#f8f0d8"/>
  <image href="file:///C:/Users/HHHES/AppData/Roaming/com.voynichlab.datasetcreator/images/1/33b1988f-7aaa-4207-bfa8-f26b742ac4b1.jpg" x="-2368" y="-2798" width="2932" height="3769" opacity="0.92"/>
  <rect x="0.5" y="0.5" width="48" height="66" fill="none" stroke="#111827" stroke-width="1" opacity="0.35"/>
  <polyline points="16,51 17,51 18,51 19,50 20,50 21,50 22,49 23,49 23,48 24,48 25,48 25,47 26,47 27,46 27,45 28,45 29,44 29,43 30,43 30,42 30,41 30,40 31,40 31,39 31,38 32,38 32,37 32,36 32,35 33,34 33,33 33,32 33,31 33,30 33,29 33,28 33,27 33,26 32,25 32,24 32,23 31,22 31,21 30,21 30,20 30,19 29,19 29,18 28,18 28,17 27,17 27,16" fill="none" stroke="#00ff7f" stroke-width="3" stroke-linecap="round" stroke-linejoin="round" opacity="0.95">
    <title>4630 i:1</title>
  </polyline>
</svg>
