<?xml version="1.0" encoding="UTF-8"?>
<svg xmlns="http://www.w3.org/2000/svg" width="77" height="49" viewBox="0 0 77 49">
  <title>atom 1010 b:1</title>
  <metadata>{&quot;entityType&quot;:&quot;atom&quot;,&quot;entityId&quot;:&quot;1010&quot;,&quot;token&quot;:&quot;b:1&quot;,&quot;signature&quot;:&quot;b:1&quot;,&quot;imageName&quot;:&quot;page-003.jpg&quot;,&quot;imageId&quot;:3,&quot;bounds&quot;:{&quot;x&quot;:886,&quot;y&quot;:446,&quot;w&quot;:77,&quot;h&quot;:49},&quot;atoms&quot;:[{&quot;id&quot;:1010,&quot;token&quot;:&quot;b:1&quot;,&quot;particle_id&quot;:&quot;img3-m9-p2&quot;,&quot;molecule_id&quot;:&quot;img3-m9&quot;,&quot;atom_order&quot;:2}]}</metadata>
  <rect x="0" y="0" width="77" height="49" fill="#f8f0d8"/>
  <image href="file:///C:/Users/HHHES/AppData/Roaming/com.voynichlab.datasetcreator/images/1/35a70f63-88ab-4986-b441-b78046a10087.jpg" x="-886" y="-446" width="2972" height="3766" opacity="0.92"/>
  <rect x="0.5" y="0.5" width="76" height="48" fill="none" stroke="#111827" stroke-width="1" opacity="0.35"/>
  <polyline points="16,16 16,17 17,17 17,18 17,19 17,20 18,20 18,21 18,22 19,22 19,23 19,24 20,24 20,25 20,26 21,26 21,27 22,28 23,29 24,30 25,30 25,31 26,31 26,32 27,32 28,32 29,32 30,32 31,32 32,32 32,33 33,33 34,33 35,33 36,33 37,33 38,33 39,33 40,33 41,33 42,33 43,33 44,33 45,33 46,33 46,32 47,32 48,32 49,32 50,32 51,32 52,31 53,31 53,30 54,30 55,30 55,29 56,29 56,28 57,28 57,27 58,27 59,26 60,26 60,25 61,24" fill="none" stroke="#2f7df6" stroke-width="3" stroke-linecap="round" stroke-linejoin="round" opacity="0.95">
    <title>1010 b:1</title>
  </polyline>
</svg>
