<?xml version="1.0" encoding="UTF-8"?>
<svg xmlns="http://www.w3.org/2000/svg" width="64" height="46" viewBox="0 0 64 46">
  <title>atom 1041 b:1</title>
  <metadata>{&quot;entityType&quot;:&quot;atom&quot;,&quot;entityId&quot;:&quot;1041&quot;,&quot;token&quot;:&quot;b:1&quot;,&quot;signature&quot;:&quot;b:1&quot;,&quot;imageName&quot;:&quot;page-003.jpg&quot;,&quot;imageId&quot;:3,&quot;bounds&quot;:{&quot;x&quot;:786,&quot;y&quot;:581,&quot;w&quot;:64,&quot;h&quot;:46},&quot;atoms&quot;:[{&quot;id&quot;:1041,&quot;token&quot;:&quot;b:1&quot;,&quot;particle_id&quot;:&quot;img3-m13-p1&quot;,&quot;molecule_id&quot;:&quot;img3-m13&quot;,&quot;atom_order&quot;:3}]}</metadata>
  <rect x="0" y="0" width="64" height="46" fill="#f8f0d8"/>
  <image href="file:///C:/Users/HHHES/AppData/Roaming/com.voynichlab.datasetcreator/images/1/35a70f63-88ab-4986-b441-b78046a10087.jpg" x="-786" y="-581" width="2972" height="3766" opacity="0.92"/>
  <rect x="0.5" y="0.5" width="63" height="45" fill="none" stroke="#111827" stroke-width="1" opacity="0.35"/>
  <polyline points="16,16 16,17 16,18 17,18 17,19 17,20 17,21 18,21 18,22 19,22 19,23 19,24 20,24 20,25 21,26 21,27 22,27 22,28 23,28 24,28 24,29 25,29 26,29 26,30 27,30 28,30 29,30 30,30 31,30 32,30 33,30 34,30 34,29 35,29 36,29 37,29 38,28 39,28 40,28 41,28 41,27 42,27 43,26 44,26 45,25 46,25 46,24 47,24 48,23" fill="none" stroke="#2f7df6" stroke-width="3" stroke-linecap="round" stroke-linejoin="round" opacity="0.95">
    <title>1041 b:1</title>
  </polyline>
</svg>
