<?xml version="1.0" encoding="UTF-8"?>
<svg xmlns="http://www.w3.org/2000/svg" width="109" height="47" viewBox="0 0 109 47">
  <title>atom 1053 b:1</title>
  <metadata>{&quot;entityType&quot;:&quot;atom&quot;,&quot;entityId&quot;:&quot;1053&quot;,&quot;token&quot;:&quot;b:1&quot;,&quot;signature&quot;:&quot;b:1&quot;,&quot;imageName&quot;:&quot;page-003.jpg&quot;,&quot;imageId&quot;:3,&quot;bounds&quot;:{&quot;x&quot;:1128,&quot;y&quot;:447,&quot;w&quot;:109,&quot;h&quot;:47},&quot;atoms&quot;:[{&quot;id&quot;:1053,&quot;token&quot;:&quot;b:1&quot;,&quot;particle_id&quot;:&quot;img3-m6-p2&quot;,&quot;molecule_id&quot;:&quot;img3-m6&quot;,&quot;atom_order&quot;:3}]}</metadata>
  <rect x="0" y="0" width="109" height="47" fill="#f8f0d8"/>
  <image href="file:///C:/Users/HHHES/AppData/Roaming/com.voynichlab.datasetcreator/images/1/35a70f63-88ab-4986-b441-b78046a10087.jpg" x="-1128" y="-447" width="2972" height="3766" opacity="0.92"/>
  <rect x="0.5" y="0.5" width="108" height="46" fill="none" stroke="#111827" stroke-width="1" opacity="0.35"/>
  <polyline points="16,16 16,16 16,17 17,17 18,18 18,19 19,19 19,20 19,21 20,21 20,22 21,22 21,23 22,23 22,24 23,24 24,24 24,25 26,25 26,26 27,26 28,26 28,26 29,26 30,26 30,27 31,27 32,27 32,28 33,28 34,28 34,29 35,29 36,29 37,29 38,29 39,30 40,30 41,30 42,30 43,30 44,30 45,30 46,30 46,31 47,31 48,31 49,31 50,31 51,31 53,31 54,31 55,31 56,30 57,30 58,30 59,30 60,30 61,30 62,30 63,30 64,30 64,29 65,29 66,29 67,29 68,28 69,28 70,28 71,28 71,27 72,27 73,27 74,27 75,27 75,26 76,26 77,26 78,26 80,26 80,26 81,26 82,26 83,25 84,25 85,25 86,24 87,24 88,23 89,23 90,23 90,22 91,22 92,22 92,21 93,21 93,20" fill="none" stroke="#2f7df6" stroke-width="3" stroke-linecap="round" stroke-linejoin="round" opacity="0.95">
    <title>1053 b:1</title>
  </polyline>
</svg>
