<?xml version="1.0" encoding="UTF-8"?>
<svg xmlns="http://www.w3.org/2000/svg" width="77" height="42" viewBox="0 0 77 42">
  <title>atom 1099 b:1</title>
  <metadata>{&quot;entityType&quot;:&quot;atom&quot;,&quot;entityId&quot;:&quot;1099&quot;,&quot;token&quot;:&quot;b:1&quot;,&quot;signature&quot;:&quot;b:1&quot;,&quot;imageName&quot;:&quot;page-003.jpg&quot;,&quot;imageId&quot;:3,&quot;bounds&quot;:{&quot;x&quot;:1771,&quot;y&quot;:445,&quot;w&quot;:77,&quot;h&quot;:42},&quot;atoms&quot;:[{&quot;id&quot;:1099,&quot;token&quot;:&quot;b:1&quot;,&quot;particle_id&quot;:&quot;img3-m2-p1&quot;,&quot;molecule_id&quot;:&quot;img3-m2&quot;,&quot;atom_order&quot;:4}]}</metadata>
  <rect x="0" y="0" width="77" height="42" fill="#f8f0d8"/>
  <image href="file:///C:/Users/HHHES/AppData/Roaming/com.voynichlab.datasetcreator/images/1/35a70f63-88ab-4986-b441-b78046a10087.jpg" x="-1771" y="-445" width="2972" height="3766" opacity="0.92"/>
  <rect x="0.5" y="0.5" width="76" height="41" fill="none" stroke="#111827" stroke-width="1" opacity="0.35"/>
  <polyline points="16,23 17,23 17,24 18,24 19,24 20,24 21,24 22,24 22,25 23,25 24,25 25,25 26,25 27,25 28,25 29,25 30,25 30,26 31,26 32,26 33,26 34,26 35,26 36,26 36,25 37,25 38,25 39,25 40,25 41,25 42,25 43,25 44,24 45,24 46,24 47,24 48,23 49,23 50,23 51,23 51,22 52,22 53,22 53,21 54,21 55,21 55,20 56,20 56,19 57,19 58,19 58,18 59,18 60,18 60,17 61,17 61,16" fill="none" stroke="#2f7df6" stroke-width="3" stroke-linecap="round" stroke-linejoin="round" opacity="0.95">
    <title>1099 b:1</title>
  </polyline>
</svg>
