<?xml version="1.0" encoding="UTF-8"?>
<svg xmlns="http://www.w3.org/2000/svg" width="67" height="48" viewBox="0 0 67 48">
  <title>atom 1169 b:1</title>
  <metadata>{&quot;entityType&quot;:&quot;atom&quot;,&quot;entityId&quot;:&quot;1169&quot;,&quot;token&quot;:&quot;b:1&quot;,&quot;signature&quot;:&quot;b:1&quot;,&quot;imageName&quot;:&quot;page-003.jpg&quot;,&quot;imageId&quot;:3,&quot;bounds&quot;:{&quot;x&quot;:1120,&quot;y&quot;:563,&quot;w&quot;:67,&quot;h&quot;:48},&quot;atoms&quot;:[{&quot;id&quot;:1169,&quot;token&quot;:&quot;b:1&quot;,&quot;particle_id&quot;:&quot;img3-m12-p1&quot;,&quot;molecule_id&quot;:&quot;img3-m12&quot;,&quot;atom_order&quot;:2}]}</metadata>
  <rect x="0" y="0" width="67" height="48" fill="#f8f0d8"/>
  <image href="file:///C:/Users/HHHES/AppData/Roaming/com.voynichlab.datasetcreator/images/1/35a70f63-88ab-4986-b441-b78046a10087.jpg" x="-1120" y="-563" width="2972" height="3766" opacity="0.92"/>
  <rect x="0.5" y="0.5" width="66" height="47" fill="none" stroke="#111827" stroke-width="1" opacity="0.35"/>
  <polyline points="16,16 16,17 16,18 16,19 16,20 16,21 17,21 17,22 17,23 18,24 18,25 18,26 19,26 19,27 19,28 20,28 20,29 21,29 21,30 22,30 22,31 23,31 24,31 25,31 26,31 26,32 27,32 28,32 29,32 30,32 31,32 32,32 33,32 34,32 35,32 36,32 37,32 37,31 38,31 39,31 40,31 41,31 42,31 42,30 43,30 44,30 44,29 45,29 46,29 46,28 47,28 48,28 48,27 49,27 50,26 51,25" fill="none" stroke="#2f7df6" stroke-width="3" stroke-linecap="round" stroke-linejoin="round" opacity="0.95">
    <title>1169 b:1</title>
  </polyline>
</svg>
