<?xml version="1.0" encoding="UTF-8"?>
<svg xmlns="http://www.w3.org/2000/svg" width="73" height="50" viewBox="0 0 73 50">
  <title>atom 1354 b:1</title>
  <metadata>{&quot;entityType&quot;:&quot;atom&quot;,&quot;entityId&quot;:&quot;1354&quot;,&quot;token&quot;:&quot;b:1&quot;,&quot;signature&quot;:&quot;b:1&quot;,&quot;imageName&quot;:&quot;page-003.jpg&quot;,&quot;imageId&quot;:3,&quot;bounds&quot;:{&quot;x&quot;:898,&quot;y&quot;:655,&quot;w&quot;:73,&quot;h&quot;:50},&quot;atoms&quot;:[{&quot;id&quot;:1354,&quot;token&quot;:&quot;b:1&quot;,&quot;particle_id&quot;:&quot;img3-m27-p4&quot;,&quot;molecule_id&quot;:&quot;img3-m27&quot;,&quot;atom_order&quot;:2}]}</metadata>
  <rect x="0" y="0" width="73" height="50" fill="#f8f0d8"/>
  <image href="file:///C:/Users/HHHES/AppData/Roaming/com.voynichlab.datasetcreator/images/1/35a70f63-88ab-4986-b441-b78046a10087.jpg" x="-898" y="-655" width="2972" height="3766" opacity="0.92"/>
  <rect x="0.5" y="0.5" width="72" height="49" fill="none" stroke="#111827" stroke-width="1" opacity="0.35"/>
  <polyline points="16,16 16,17 16,18 16,19 17,20 17,21 18,21 18,22 18,23 19,23 19,24 20,24 20,25 21,25 21,26 22,26 22,27 23,27 23,28 24,28 25,29 26,29 26,30 27,30 28,30 28,31 29,31 30,31 30,32 31,32 32,32 33,32 34,33 35,33 36,33 37,33 38,33 39,33 40,33 41,33 42,33 42,34 43,34 44,34 45,34 46,34 47,34 48,34 49,34 50,33 51,33 52,33 52,32 53,32 54,31 55,31 55,30 56,30 57,29" fill="none" stroke="#2f7df6" stroke-width="3" stroke-linecap="round" stroke-linejoin="round" opacity="0.95">
    <title>1354 b:1</title>
  </polyline>
</svg>
