<?xml version="1.0" encoding="UTF-8"?>
<svg xmlns="http://www.w3.org/2000/svg" width="85" height="37" viewBox="0 0 85 37">
  <title>atom 1415 b:1</title>
  <metadata>{&quot;entityType&quot;:&quot;atom&quot;,&quot;entityId&quot;:&quot;1415&quot;,&quot;token&quot;:&quot;b:1&quot;,&quot;signature&quot;:&quot;b:1&quot;,&quot;imageName&quot;:&quot;page-003.jpg&quot;,&quot;imageId&quot;:3,&quot;bounds&quot;:{&quot;x&quot;:1869,&quot;y&quot;:655,&quot;w&quot;:85,&quot;h&quot;:37},&quot;atoms&quot;:[{&quot;id&quot;:1415,&quot;token&quot;:&quot;b:1&quot;,&quot;particle_id&quot;:&quot;img3-m20-p1&quot;,&quot;molecule_id&quot;:&quot;img3-m20&quot;,&quot;atom_order&quot;:4}]}</metadata>
  <rect x="0" y="0" width="85" height="37" fill="#f8f0d8"/>
  <image href="file:///C:/Users/HHHES/AppData/Roaming/com.voynichlab.datasetcreator/images/1/35a70f63-88ab-4986-b441-b78046a10087.jpg" x="-1869" y="-655" width="2972" height="3766" opacity="0.92"/>
  <rect x="0.5" y="0.5" width="84" height="36" fill="none" stroke="#111827" stroke-width="1" opacity="0.35"/>
  <polyline points="16,16 17,16 18,16 18,17 19,17 20,17 20,18 21,18 21,19 22,19 23,19 24,19 25,19 25,20 26,20 27,20 28,20 29,20 30,20 31,20 32,20 32,21 33,21 34,21 35,21 36,21 37,21 38,21 39,21 40,21 41,21 42,21 43,21 44,21 45,21 46,21 47,21 48,21 49,21 50,21 51,21 52,21 53,21 54,21 55,21 56,21 57,21 57,20 58,20 59,20 60,20 61,19 62,19 63,18 64,18 64,17 65,17 66,17 66,16 67,16 68,16 69,16" fill="none" stroke="#2f7df6" stroke-width="3" stroke-linecap="round" stroke-linejoin="round" opacity="0.95">
    <title>1415 b:1</title>
  </polyline>
</svg>
