<?xml version="1.0" encoding="UTF-8"?>
<svg xmlns="http://www.w3.org/2000/svg" width="92" height="38" viewBox="0 0 92 38">
  <title>atom 1516 b:1</title>
  <metadata>{&quot;entityType&quot;:&quot;atom&quot;,&quot;entityId&quot;:&quot;1516&quot;,&quot;token&quot;:&quot;b:1&quot;,&quot;signature&quot;:&quot;b:1&quot;,&quot;imageName&quot;:&quot;page-003.jpg&quot;,&quot;imageId&quot;:3,&quot;bounds&quot;:{&quot;x&quot;:988,&quot;y&quot;:752,&quot;w&quot;:92,&quot;h&quot;:38},&quot;atoms&quot;:[{&quot;id&quot;:1516,&quot;token&quot;:&quot;b:1&quot;,&quot;particle_id&quot;:&quot;img3-m35-p2&quot;,&quot;molecule_id&quot;:&quot;img3-m35&quot;,&quot;atom_order&quot;:3}]}</metadata>
  <rect x="0" y="0" width="92" height="38" fill="#f8f0d8"/>
  <image href="file:///C:/Users/HHHES/AppData/Roaming/com.voynichlab.datasetcreator/images/1/35a70f63-88ab-4986-b441-b78046a10087.jpg" x="-988" y="-752" width="2972" height="3766" opacity="0.92"/>
  <rect x="0.5" y="0.5" width="91" height="37" fill="none" stroke="#111827" stroke-width="1" opacity="0.35"/>
  <polyline points="16,19 17,19 18,19 19,19 20,19 21,19 22,20 23,20 24,20 25,20 26,20 27,20 28,20 29,21 30,21 31,21 32,21 33,21 34,21 35,21 36,21 37,21 38,21 39,21 40,21 41,21 42,21 43,21 44,21 45,21 46,21 47,21 48,22 49,22 50,22 51,22 52,22 53,22 54,22 55,22 56,22 57,22 58,22 59,22 60,22 60,21 61,21 62,21 63,21 64,21 65,21 65,20 66,20 67,20 68,20 69,20 69,19 70,19 71,19 72,19 72,18 73,18 74,18 74,17 75,17 76,17 76,16" fill="none" stroke="#2f7df6" stroke-width="3" stroke-linecap="round" stroke-linejoin="round" opacity="0.95">
    <title>1516 b:1</title>
  </polyline>
</svg>
