<?xml version="1.0" encoding="UTF-8"?>
<svg xmlns="http://www.w3.org/2000/svg" width="100" height="43" viewBox="0 0 100 43">
  <title>atom 1551 b:1</title>
  <metadata>{&quot;entityType&quot;:&quot;atom&quot;,&quot;entityId&quot;:&quot;1551&quot;,&quot;token&quot;:&quot;b:1&quot;,&quot;signature&quot;:&quot;b:1&quot;,&quot;imageName&quot;:&quot;page-003.jpg&quot;,&quot;imageId&quot;:3,&quot;bounds&quot;:{&quot;x&quot;:1463,&quot;y&quot;:732,&quot;w&quot;:100,&quot;h&quot;:43},&quot;atoms&quot;:[{&quot;id&quot;:1551,&quot;token&quot;:&quot;b:1&quot;,&quot;particle_id&quot;:&quot;img3-m29-p1&quot;,&quot;molecule_id&quot;:&quot;img3-m29&quot;,&quot;atom_order&quot;:4}]}</metadata>
  <rect x="0" y="0" width="100" height="43" fill="#f8f0d8"/>
  <image href="file:///C:/Users/HHHES/AppData/Roaming/com.voynichlab.datasetcreator/images/1/35a70f63-88ab-4986-b441-b78046a10087.jpg" x="-1463" y="-732" width="2972" height="3766" opacity="0.92"/>
  <rect x="0.5" y="0.5" width="99" height="42" fill="none" stroke="#111827" stroke-width="1" opacity="0.35"/>
  <polyline points="16,21 30,25 31,25 32,26 33,26 34,26 35,26 36,26 37,26 38,26 39,26 39,27 40,27 41,27 42,27 43,27 44,27 45,27 46,27 47,27 48,27 49,26 50,26 51,26 52,26 53,26 54,26 55,26 56,26 57,26 57,25 59,25 60,25 61,25 63,25 64,25 65,25 66,25 67,24 68,24 69,24 70,23 71,23 72,23 73,22 74,22 75,22 75,21 76,21 77,21 78,20 79,20 79,19 80,19 81,18 82,18 82,17 83,17 83,16 84,16" fill="none" stroke="#2f7df6" stroke-width="3" stroke-linecap="round" stroke-linejoin="round" opacity="0.95">
    <title>1551 b:1</title>
  </polyline>
</svg>
