<?xml version="1.0" encoding="UTF-8"?>
<svg xmlns="http://www.w3.org/2000/svg" width="90" height="41" viewBox="0 0 90 41">
  <title>atom 1578 b:1</title>
  <metadata>{&quot;entityType&quot;:&quot;atom&quot;,&quot;entityId&quot;:&quot;1578&quot;,&quot;token&quot;:&quot;b:1&quot;,&quot;signature&quot;:&quot;b:1&quot;,&quot;imageName&quot;:&quot;page-003.jpg&quot;,&quot;imageId&quot;:3,&quot;bounds&quot;:{&quot;x&quot;:1932,&quot;y&quot;:726,&quot;w&quot;:90,&quot;h&quot;:41},&quot;atoms&quot;:[{&quot;id&quot;:1578,&quot;token&quot;:&quot;b:1&quot;,&quot;particle_id&quot;:&quot;img3-m34-p2&quot;,&quot;molecule_id&quot;:&quot;img3-m34&quot;,&quot;atom_order&quot;:2}]}</metadata>
  <rect x="0" y="0" width="90" height="41" fill="#f8f0d8"/>
  <image href="file:///C:/Users/HHHES/AppData/Roaming/com.voynichlab.datasetcreator/images/1/35a70f63-88ab-4986-b441-b78046a10087.jpg" x="-1932" y="-726" width="2972" height="3766" opacity="0.92"/>
  <rect x="0.5" y="0.5" width="89" height="40" fill="none" stroke="#111827" stroke-width="1" opacity="0.35"/>
  <polyline points="16,18 16,19 17,19 17,20 18,20 18,21 19,21 19,22 20,22 21,22 21,23 22,23 23,23 23,24 24,24 25,24 26,24 27,24 28,24 29,25 30,25 31,25 32,25 33,25 34,25 35,25 36,25 37,25 38,25 39,25 40,25 41,25 42,25 43,25 44,25 44,24 45,24 46,24 47,24 48,24 49,24 50,24 51,24 52,24 53,24 54,24 54,23 55,23 56,23 57,23 58,23 58,22 59,22 60,22 61,22 62,21 63,21 64,21 64,20 65,20 66,20 67,19 68,19 69,19 69,18 70,18 71,18 71,17 72,17 73,17 73,16 74,16" fill="none" stroke="#2f7df6" stroke-width="3" stroke-linecap="round" stroke-linejoin="round" opacity="0.95">
    <title>1578 b:1</title>
  </polyline>
</svg>
