<?xml version="1.0" encoding="UTF-8"?>
<svg xmlns="http://www.w3.org/2000/svg" width="66" height="40" viewBox="0 0 66 40">
  <title>atom 1691 b:1</title>
  <metadata>{&quot;entityType&quot;:&quot;atom&quot;,&quot;entityId&quot;:&quot;1691&quot;,&quot;token&quot;:&quot;b:1&quot;,&quot;signature&quot;:&quot;b:1&quot;,&quot;imageName&quot;:&quot;page-003.jpg&quot;,&quot;imageId&quot;:3,&quot;bounds&quot;:{&quot;x&quot;:1275,&quot;y&quot;:857,&quot;w&quot;:66,&quot;h&quot;:40},&quot;atoms&quot;:[{&quot;id&quot;:1691,&quot;token&quot;:&quot;b:1&quot;,&quot;particle_id&quot;:&quot;img3-m39-p1&quot;,&quot;molecule_id&quot;:&quot;img3-m39&quot;,&quot;atom_order&quot;:6}]}</metadata>
  <rect x="0" y="0" width="66" height="40" fill="#f8f0d8"/>
  <image href="file:///C:/Users/HHHES/AppData/Roaming/com.voynichlab.datasetcreator/images/1/35a70f63-88ab-4986-b441-b78046a10087.jpg" x="-1275" y="-857" width="2972" height="3766" opacity="0.92"/>
  <rect x="0.5" y="0.5" width="65" height="39" fill="none" stroke="#111827" stroke-width="1" opacity="0.35"/>
  <polyline points="16,19 17,19 17,20 18,20 19,20 19,21 20,21 21,22 22,22 23,22 24,22 24,23 25,23 26,23 27,23 28,23 29,23 29,24 30,24 31,24 32,24 33,24 33,23 34,23 35,23 36,23 37,23 38,23 39,23 40,23 41,23 41,22 42,22 43,22 44,22 44,21 45,21 46,21 46,20 47,20 48,19 49,19 49,18 50,18 50,17 50,16" fill="none" stroke="#2f7df6" stroke-width="3" stroke-linecap="round" stroke-linejoin="round" opacity="0.95">
    <title>1691 b:1</title>
  </polyline>
</svg>
