<?xml version="1.0" encoding="UTF-8"?>
<svg xmlns="http://www.w3.org/2000/svg" width="80" height="44" viewBox="0 0 80 44">
  <title>atom 1708 b:1</title>
  <metadata>{&quot;entityType&quot;:&quot;atom&quot;,&quot;entityId&quot;:&quot;1708&quot;,&quot;token&quot;:&quot;b:1&quot;,&quot;signature&quot;:&quot;b:1&quot;,&quot;imageName&quot;:&quot;page-003.jpg&quot;,&quot;imageId&quot;:3,&quot;bounds&quot;:{&quot;x&quot;:1501,&quot;y&quot;:812,&quot;w&quot;:80,&quot;h&quot;:44},&quot;atoms&quot;:[{&quot;id&quot;:1708,&quot;token&quot;:&quot;b:1&quot;,&quot;particle_id&quot;:&quot;img3-m37-p1&quot;,&quot;molecule_id&quot;:&quot;img3-m37&quot;,&quot;atom_order&quot;:6}]}</metadata>
  <rect x="0" y="0" width="80" height="44" fill="#f8f0d8"/>
  <image href="file:///C:/Users/HHHES/AppData/Roaming/com.voynichlab.datasetcreator/images/1/35a70f63-88ab-4986-b441-b78046a10087.jpg" x="-1501" y="-812" width="2972" height="3766" opacity="0.92"/>
  <rect x="0.5" y="0.5" width="79" height="43" fill="none" stroke="#111827" stroke-width="1" opacity="0.35"/>
  <polyline points="16,16 16,17 16,18 17,18 17,19 18,19 18,20 19,20 19,21 19,22 20,22 21,23 22,23 22,24 23,24 24,24 24,25 25,25 26,25 27,26 28,26 29,26 30,26 31,26 32,26 33,26 34,27 35,27 36,27 37,27 38,27 39,27 40,27 41,27 42,27 43,27 44,27 45,28 46,28 47,28 48,28 49,28 50,28 51,28 52,28 53,28 54,28 55,28 56,28 57,28 58,28 59,28 60,28 61,28 61,27 62,27 63,27 63,26 64,26 64,25" fill="none" stroke="#2f7df6" stroke-width="3" stroke-linecap="round" stroke-linejoin="round" opacity="0.95">
    <title>1708 b:1</title>
  </polyline>
</svg>
