<?xml version="1.0" encoding="UTF-8"?>
<svg xmlns="http://www.w3.org/2000/svg" width="67" height="40" viewBox="0 0 67 40">
  <title>atom 1826 b:1</title>
  <metadata>{&quot;entityType&quot;:&quot;atom&quot;,&quot;entityId&quot;:&quot;1826&quot;,&quot;token&quot;:&quot;b:1&quot;,&quot;signature&quot;:&quot;b:1&quot;,&quot;imageName&quot;:&quot;page-003.jpg&quot;,&quot;imageId&quot;:3,&quot;bounds&quot;:{&quot;x&quot;:1256,&quot;y&quot;:1013,&quot;w&quot;:67,&quot;h&quot;:40},&quot;atoms&quot;:[{&quot;id&quot;:1826,&quot;token&quot;:&quot;b:1&quot;,&quot;particle_id&quot;:&quot;img3-m44-p1&quot;,&quot;molecule_id&quot;:&quot;img3-m44&quot;,&quot;atom_order&quot;:6}]}</metadata>
  <rect x="0" y="0" width="67" height="40" fill="#f8f0d8"/>
  <image href="file:///C:/Users/HHHES/AppData/Roaming/com.voynichlab.datasetcreator/images/1/35a70f63-88ab-4986-b441-b78046a10087.jpg" x="-1256" y="-1013" width="2972" height="3766" opacity="0.92"/>
  <rect x="0.5" y="0.5" width="66" height="39" fill="none" stroke="#111827" stroke-width="1" opacity="0.35"/>
  <polyline points="16,18 16,19 17,19 18,19 18,20 19,20 19,21 20,21 21,21 21,22 22,22 23,23 24,23 25,23 26,23 27,23 27,24 28,24 29,24 30,24 31,24 32,24 33,24 34,24 35,24 36,24 37,24 38,24 39,24 40,24 41,24 42,24 43,24 43,23 44,23 45,23 45,22 46,22 47,22 47,21 48,21 49,21 49,20 50,20 50,19 51,19 51,18 51,17 51,16" fill="none" stroke="#2f7df6" stroke-width="3" stroke-linecap="round" stroke-linejoin="round" opacity="0.95">
    <title>1826 b:1</title>
  </polyline>
</svg>
