<?xml version="1.0" encoding="UTF-8"?>
<svg xmlns="http://www.w3.org/2000/svg" width="118" height="45" viewBox="0 0 118 45">
  <title>atom 1863 b:1</title>
  <metadata>{&quot;entityType&quot;:&quot;atom&quot;,&quot;entityId&quot;:&quot;1863&quot;,&quot;token&quot;:&quot;b:1&quot;,&quot;signature&quot;:&quot;b:1&quot;,&quot;imageName&quot;:&quot;page-003.jpg&quot;,&quot;imageId&quot;:3,&quot;bounds&quot;:{&quot;x&quot;:1860,&quot;y&quot;:971,&quot;w&quot;:118,&quot;h&quot;:45},&quot;atoms&quot;:[{&quot;id&quot;:1863,&quot;token&quot;:&quot;b:1&quot;,&quot;particle_id&quot;:&quot;img3-m43-p1&quot;,&quot;molecule_id&quot;:&quot;img3-m43&quot;,&quot;atom_order&quot;:7}]}</metadata>
  <rect x="0" y="0" width="118" height="45" fill="#f8f0d8"/>
  <image href="file:///C:/Users/HHHES/AppData/Roaming/com.voynichlab.datasetcreator/images/1/35a70f63-88ab-4986-b441-b78046a10087.jpg" x="-1860" y="-971" width="2972" height="3766" opacity="0.92"/>
  <rect x="0.5" y="0.5" width="117" height="44" fill="none" stroke="#111827" stroke-width="1" opacity="0.35"/>
  <polyline points="16,16 17,16 17,17 18,17 19,17 19,18 20,18 21,19 22,20 23,20 24,20 25,21 26,21 27,21 28,22 29,22 30,22 31,23 32,23 33,23 34,23 35,24 36,24 37,24 38,24 39,25 40,25 41,25 42,25 43,25 44,25 45,25 46,25 47,25 48,25 49,26 50,26 51,26 52,26 53,26 54,26 55,26 56,26 57,26 58,27 59,27 60,27 61,27 62,27 63,27 64,27 64,28 65,28 66,28 67,28 68,28 69,28 70,28 71,28 72,28 73,28 74,28 75,28 76,28 77,28 78,29 79,29 80,29 81,29 82,29 83,29 84,29 85,29 86,29 87,29 88,29 89,29 90,29 91,29 92,29 93,29 94,29 95,29 96,29 97,28 98,28 99,28 100,28 101,27 102,27" fill="none" stroke="#2f7df6" stroke-width="3" stroke-linecap="round" stroke-linejoin="round" opacity="0.95">
    <title>1863 b:1</title>
  </polyline>
</svg>
