<?xml version="1.0" encoding="UTF-8"?>
<svg xmlns="http://www.w3.org/2000/svg" width="86" height="40" viewBox="0 0 86 40">
  <title>atom 1868 b:1</title>
  <metadata>{&quot;entityType&quot;:&quot;atom&quot;,&quot;entityId&quot;:&quot;1868&quot;,&quot;token&quot;:&quot;b:1&quot;,&quot;signature&quot;:&quot;b:1&quot;,&quot;imageName&quot;:&quot;page-003.jpg&quot;,&quot;imageId&quot;:3,&quot;bounds&quot;:{&quot;x&quot;:1870,&quot;y&quot;:1004,&quot;w&quot;:86,&quot;h&quot;:40},&quot;atoms&quot;:[{&quot;id&quot;:1868,&quot;token&quot;:&quot;b:1&quot;,&quot;particle_id&quot;:&quot;img3-m43-p1&quot;,&quot;molecule_id&quot;:&quot;img3-m43&quot;,&quot;atom_order&quot;:4}]}</metadata>
  <rect x="0" y="0" width="86" height="40" fill="#f8f0d8"/>
  <image href="file:///C:/Users/HHHES/AppData/Roaming/com.voynichlab.datasetcreator/images/1/35a70f63-88ab-4986-b441-b78046a10087.jpg" x="-1870" y="-1004" width="2972" height="3766" opacity="0.92"/>
  <rect x="0.5" y="0.5" width="85" height="39" fill="none" stroke="#111827" stroke-width="1" opacity="0.35"/>
  <polyline points="16,16 17,16 17,17 18,17 19,17 19,18 20,18 21,18 22,19 23,19 24,19 25,19 26,19 26,20 27,20 28,20 29,20 30,20 31,21 32,21 33,21 34,21 34,22 35,22 36,22 37,22 38,22 38,23 39,23 40,23 41,23 42,23 43,23 44,24 45,24 46,24 47,24 48,24 49,24 50,24 51,24 52,24 53,24 54,24 55,24 56,24 57,24 58,24 59,24 60,24 61,24 62,24 63,24 63,23 64,23 65,23 66,23 67,22 68,22 69,21 70,21 70,20" fill="none" stroke="#2f7df6" stroke-width="3" stroke-linecap="round" stroke-linejoin="round" opacity="0.95">
    <title>1868 b:1</title>
  </polyline>
</svg>
