<?xml version="1.0" encoding="UTF-8"?>
<svg xmlns="http://www.w3.org/2000/svg" width="72" height="39" viewBox="0 0 72 39">
  <title>atom 1978 b:1</title>
  <metadata>{&quot;entityType&quot;:&quot;atom&quot;,&quot;entityId&quot;:&quot;1978&quot;,&quot;token&quot;:&quot;b:1&quot;,&quot;signature&quot;:&quot;b:1&quot;,&quot;imageName&quot;:&quot;page-003.jpg&quot;,&quot;imageId&quot;:3,&quot;bounds&quot;:{&quot;x&quot;:1531,&quot;y&quot;:1116,&quot;w&quot;:72,&quot;h&quot;:39},&quot;atoms&quot;:[{&quot;id&quot;:1978,&quot;token&quot;:&quot;b:1&quot;,&quot;particle_id&quot;:&quot;img3-m54-p3&quot;,&quot;molecule_id&quot;:&quot;img3-m54&quot;,&quot;atom_order&quot;:4}]}</metadata>
  <rect x="0" y="0" width="72" height="39" fill="#f8f0d8"/>
  <image href="file:///C:/Users/HHHES/AppData/Roaming/com.voynichlab.datasetcreator/images/1/35a70f63-88ab-4986-b441-b78046a10087.jpg" x="-1531" y="-1116" width="2972" height="3766" opacity="0.92"/>
  <rect x="0.5" y="0.5" width="71" height="38" fill="none" stroke="#111827" stroke-width="1" opacity="0.35"/>
  <polyline points="16,21 17,21 18,21 19,21 20,21 20,22 21,22 22,22 23,22 24,22 25,22 26,22 27,22 27,23 28,23 29,23 30,23 31,23 31,22 32,22 33,22 34,22 35,22 36,22 37,22 38,22 39,22 40,22 40,21 41,21 42,21 43,21 44,21 45,20 46,20 47,20 47,19 48,19 49,19 49,18 50,18 51,18 52,17 53,17 54,17 54,16 55,16 56,16" fill="none" stroke="#2f7df6" stroke-width="3" stroke-linecap="round" stroke-linejoin="round" opacity="0.95">
    <title>1978 b:1</title>
  </polyline>
</svg>
