<?xml version="1.0" encoding="UTF-8"?>
<svg xmlns="http://www.w3.org/2000/svg" width="82" height="43" viewBox="0 0 82 43">
  <title>atom 2032 b:1</title>
  <metadata>{&quot;entityType&quot;:&quot;atom&quot;,&quot;entityId&quot;:&quot;2032&quot;,&quot;token&quot;:&quot;b:1&quot;,&quot;signature&quot;:&quot;b:1&quot;,&quot;imageName&quot;:&quot;page-003.jpg&quot;,&quot;imageId&quot;:3,&quot;bounds&quot;:{&quot;x&quot;:963,&quot;y&quot;:1191,&quot;w&quot;:82,&quot;h&quot;:43},&quot;atoms&quot;:[{&quot;id&quot;:2032,&quot;token&quot;:&quot;b:1&quot;,&quot;particle_id&quot;:&quot;img3-m59-p1&quot;,&quot;molecule_id&quot;:&quot;img3-m59&quot;,&quot;atom_order&quot;:3}]}</metadata>
  <rect x="0" y="0" width="82" height="43" fill="#f8f0d8"/>
  <image href="file:///C:/Users/HHHES/AppData/Roaming/com.voynichlab.datasetcreator/images/1/35a70f63-88ab-4986-b441-b78046a10087.jpg" x="-963" y="-1191" width="2972" height="3766" opacity="0.92"/>
  <rect x="0.5" y="0.5" width="81" height="42" fill="none" stroke="#111827" stroke-width="1" opacity="0.35"/>
  <polyline points="16,16 16,17 17,18 17,19 18,19 18,20 19,20 20,20 20,21 21,21 22,22 23,22 23,23 24,23 25,23 26,23 26,24 27,24 28,24 29,24 29,25 30,25 31,25 32,25 33,26 34,26 35,26 36,26 37,26 37,27 38,27 39,27 40,27 41,27 42,27 43,27 44,27 45,27 46,27 47,27 48,27 49,27 50,27 50,26 51,26 52,26 53,26 54,25 55,25 56,25 56,24 57,24 58,24 58,23 59,23 60,23 60,22 61,22 61,21 62,21 63,21 63,20 64,20 64,19 65,19 65,18 66,18 66,17 66,16" fill="none" stroke="#2f7df6" stroke-width="3" stroke-linecap="round" stroke-linejoin="round" opacity="0.95">
    <title>2032 b:1</title>
  </polyline>
</svg>
