<?xml version="1.0" encoding="UTF-8"?>
<svg xmlns="http://www.w3.org/2000/svg" width="58" height="36" viewBox="0 0 58 36">
  <title>atom 2038 b:1</title>
  <metadata>{&quot;entityType&quot;:&quot;atom&quot;,&quot;entityId&quot;:&quot;2038&quot;,&quot;token&quot;:&quot;b:1&quot;,&quot;signature&quot;:&quot;b:1&quot;,&quot;imageName&quot;:&quot;page-003.jpg&quot;,&quot;imageId&quot;:3,&quot;bounds&quot;:{&quot;x&quot;:947,&quot;y&quot;:1213,&quot;w&quot;:58,&quot;h&quot;:36},&quot;atoms&quot;:[{&quot;id&quot;:2038,&quot;token&quot;:&quot;b:1&quot;,&quot;particle_id&quot;:&quot;img3-m59-p1&quot;,&quot;molecule_id&quot;:&quot;img3-m59&quot;,&quot;atom_order&quot;:3}]}</metadata>
  <rect x="0" y="0" width="58" height="36" fill="#f8f0d8"/>
  <image href="file:///C:/Users/HHHES/AppData/Roaming/com.voynichlab.datasetcreator/images/1/35a70f63-88ab-4986-b441-b78046a10087.jpg" x="-947" y="-1213" width="2972" height="3766" opacity="0.92"/>
  <rect x="0.5" y="0.5" width="57" height="35" fill="none" stroke="#111827" stroke-width="1" opacity="0.35"/>
  <polyline points="16,17 17,17 17,18 18,18 19,18 20,18 20,19 21,19 22,19 23,19 24,19 24,20 25,20 26,20 27,20 28,20 29,20 30,20 31,20 31,19 32,19 33,19 34,19 35,19 35,18 36,18 37,18 38,18 39,17 40,17 41,17 41,16 42,16" fill="none" stroke="#2f7df6" stroke-width="3" stroke-linecap="round" stroke-linejoin="round" opacity="0.95">
    <title>2038 b:1</title>
  </polyline>
</svg>
