<?xml version="1.0" encoding="UTF-8"?>
<svg xmlns="http://www.w3.org/2000/svg" width="71" height="41" viewBox="0 0 71 41">
  <title>atom 2132 b:1</title>
  <metadata>{&quot;entityType&quot;:&quot;atom&quot;,&quot;entityId&quot;:&quot;2132&quot;,&quot;token&quot;:&quot;b:1&quot;,&quot;signature&quot;:&quot;b:1&quot;,&quot;imageName&quot;:&quot;page-003.jpg&quot;,&quot;imageId&quot;:3,&quot;bounds&quot;:{&quot;x&quot;:888,&quot;y&quot;:1437,&quot;w&quot;:71,&quot;h&quot;:41},&quot;atoms&quot;:[{&quot;id&quot;:2132,&quot;token&quot;:&quot;b:1&quot;,&quot;particle_id&quot;:&quot;img3-m66-p1&quot;,&quot;molecule_id&quot;:&quot;img3-m66&quot;,&quot;atom_order&quot;:6}]}</metadata>
  <rect x="0" y="0" width="71" height="41" fill="#f8f0d8"/>
  <image href="file:///C:/Users/HHHES/AppData/Roaming/com.voynichlab.datasetcreator/images/1/35a70f63-88ab-4986-b441-b78046a10087.jpg" x="-888" y="-1437" width="2972" height="3766" opacity="0.92"/>
  <rect x="0.5" y="0.5" width="70" height="40" fill="none" stroke="#111827" stroke-width="1" opacity="0.35"/>
  <polyline points="16,21 17,21 17,22 18,22 19,22 19,23 20,23 21,23 22,24 23,24 24,24 25,24 26,24 26,25 27,25 28,25 29,25 30,25 31,25 32,25 33,25 34,25 35,25 36,25 37,25 38,25 39,25 39,24 40,24 41,24 42,24 43,24 44,23 45,23 46,23 46,22 47,22 47,21 48,21 49,21 49,20 50,20 51,20 51,19 52,19 52,18 53,18 54,17 55,17 55,16" fill="none" stroke="#2f7df6" stroke-width="3" stroke-linecap="round" stroke-linejoin="round" opacity="0.95">
    <title>2132 b:1</title>
  </polyline>
</svg>
