<?xml version="1.0" encoding="UTF-8"?>
<svg xmlns="http://www.w3.org/2000/svg" width="55" height="39" viewBox="0 0 55 39">
  <title>atom 2166 b:1</title>
  <metadata>{&quot;entityType&quot;:&quot;atom&quot;,&quot;entityId&quot;:&quot;2166&quot;,&quot;token&quot;:&quot;b:1&quot;,&quot;signature&quot;:&quot;b:1&quot;,&quot;imageName&quot;:&quot;page-003.jpg&quot;,&quot;imageId&quot;:3,&quot;bounds&quot;:{&quot;x&quot;:1349,&quot;y&quot;:1464,&quot;w&quot;:55,&quot;h&quot;:39},&quot;atoms&quot;:[{&quot;id&quot;:2166,&quot;token&quot;:&quot;b:1&quot;,&quot;particle_id&quot;:&quot;img3-m67-p1&quot;,&quot;molecule_id&quot;:&quot;img3-m67&quot;,&quot;atom_order&quot;:4}]}</metadata>
  <rect x="0" y="0" width="55" height="39" fill="#f8f0d8"/>
  <image href="file:///C:/Users/HHHES/AppData/Roaming/com.voynichlab.datasetcreator/images/1/35a70f63-88ab-4986-b441-b78046a10087.jpg" x="-1349" y="-1464" width="2972" height="3766" opacity="0.92"/>
  <rect x="0.5" y="0.5" width="54" height="38" fill="none" stroke="#111827" stroke-width="1" opacity="0.35"/>
  <polyline points="39,18 39,19 38,19 38,20 37,20 37,21 36,21 35,22 34,22 33,22 32,22 32,23 31,23 30,23 29,23 28,23 27,23 26,23 25,23 25,22 24,22 23,22 22,22 22,21 21,21 21,20 20,20 19,19 19,18 18,18 17,17 17,16 16,16" fill="none" stroke="#2f7df6" stroke-width="3" stroke-linecap="round" stroke-linejoin="round" opacity="0.95">
    <title>2166 b:1</title>
  </polyline>
</svg>
