<?xml version="1.0" encoding="UTF-8"?>
<svg xmlns="http://www.w3.org/2000/svg" width="95" height="40" viewBox="0 0 95 40">
  <title>atom 2210 b:1</title>
  <metadata>{&quot;entityType&quot;:&quot;atom&quot;,&quot;entityId&quot;:&quot;2210&quot;,&quot;token&quot;:&quot;b:1&quot;,&quot;signature&quot;:&quot;b:1&quot;,&quot;imageName&quot;:&quot;page-003.jpg&quot;,&quot;imageId&quot;:3,&quot;bounds&quot;:{&quot;x&quot;:2039,&quot;y&quot;:1484,&quot;w&quot;:95,&quot;h&quot;:40},&quot;atoms&quot;:[{&quot;id&quot;:2210,&quot;token&quot;:&quot;b:1&quot;,&quot;particle_id&quot;:&quot;img3-m68-p1&quot;,&quot;molecule_id&quot;:&quot;img3-m68&quot;,&quot;atom_order&quot;:4}]}</metadata>
  <rect x="0" y="0" width="95" height="40" fill="#f8f0d8"/>
  <image href="file:///C:/Users/HHHES/AppData/Roaming/com.voynichlab.datasetcreator/images/1/35a70f63-88ab-4986-b441-b78046a10087.jpg" x="-2039" y="-1484" width="2972" height="3766" opacity="0.92"/>
  <rect x="0.5" y="0.5" width="94" height="39" fill="none" stroke="#111827" stroke-width="1" opacity="0.35"/>
  <polyline points="79,20 78,20 78,21 77,21 76,21 76,22 75,22 74,22 74,23 73,23 72,23 71,23 70,23 69,23 69,24 68,24 67,24 66,24 65,24 64,24 63,24 62,24 61,24 60,24 59,24 58,24 57,24 56,24 55,24 55,23 54,23 53,23 52,23 51,23 50,23 49,23 48,22 47,22 46,22 45,22 44,22 43,21 42,21 41,21 40,21 39,21 39,20 38,20 37,20 36,20 35,20 34,20 34,19 33,19 32,19 31,19 30,19 29,18 28,18 27,18 26,18 25,17 24,17 23,17 22,17 21,16 20,16 19,16 18,16 17,16 16,16" fill="none" stroke="#2f7df6" stroke-width="3" stroke-linecap="round" stroke-linejoin="round" opacity="0.95">
    <title>2210 b:1</title>
  </polyline>
</svg>
