<?xml version="1.0" encoding="UTF-8"?>
<svg xmlns="http://www.w3.org/2000/svg" width="73" height="45" viewBox="0 0 73 45">
  <title>atom 2237 b:1</title>
  <metadata>{&quot;entityType&quot;:&quot;atom&quot;,&quot;entityId&quot;:&quot;2237&quot;,&quot;token&quot;:&quot;b:1&quot;,&quot;signature&quot;:&quot;b:1&quot;,&quot;imageName&quot;:&quot;page-003.jpg&quot;,&quot;imageId&quot;:3,&quot;bounds&quot;:{&quot;x&quot;:777,&quot;y&quot;:1544,&quot;w&quot;:73,&quot;h&quot;:45},&quot;atoms&quot;:[{&quot;id&quot;:2237,&quot;token&quot;:&quot;b:1&quot;,&quot;particle_id&quot;:&quot;img3-m73-p1&quot;,&quot;molecule_id&quot;:&quot;img3-m73&quot;,&quot;atom_order&quot;:2}]}</metadata>
  <rect x="0" y="0" width="73" height="45" fill="#f8f0d8"/>
  <image href="file:///C:/Users/HHHES/AppData/Roaming/com.voynichlab.datasetcreator/images/1/35a70f63-88ab-4986-b441-b78046a10087.jpg" x="-777" y="-1544" width="2972" height="3766" opacity="0.92"/>
  <rect x="0.5" y="0.5" width="72" height="44" fill="none" stroke="#111827" stroke-width="1" opacity="0.35"/>
  <polyline points="16,16 16,17 16,18 16,19 17,19 17,20 17,21 18,21 18,22 18,23 19,23 19,24 20,24 20,25 21,25 21,26 22,26 22,27 23,27 23,28 24,28 25,28 26,28 27,28 27,29 28,29 29,29 30,29 31,29 32,29 33,29 34,29 35,29 36,29 37,29 38,29 39,29 40,29 41,28 42,28 43,28 44,28 45,27 46,27 46,26 47,26 48,26 48,25 49,25 50,25 50,24 51,24 52,24 53,23 54,23 55,22 56,22 56,21 57,21" fill="none" stroke="#2f7df6" stroke-width="3" stroke-linecap="round" stroke-linejoin="round" opacity="0.95">
    <title>2237 b:1</title>
  </polyline>
</svg>
