<?xml version="1.0" encoding="UTF-8"?>
<svg xmlns="http://www.w3.org/2000/svg" width="70" height="44" viewBox="0 0 70 44">
  <title>atom 2281 b:1</title>
  <metadata>{&quot;entityType&quot;:&quot;atom&quot;,&quot;entityId&quot;:&quot;2281&quot;,&quot;token&quot;:&quot;b:1&quot;,&quot;signature&quot;:&quot;b:1&quot;,&quot;imageName&quot;:&quot;page-003.jpg&quot;,&quot;imageId&quot;:3,&quot;bounds&quot;:{&quot;x&quot;:1549,&quot;y&quot;:1538,&quot;w&quot;:70,&quot;h&quot;:44},&quot;atoms&quot;:[{&quot;id&quot;:2281,&quot;token&quot;:&quot;b:1&quot;,&quot;particle_id&quot;:&quot;img3-m76-p2&quot;,&quot;molecule_id&quot;:&quot;img3-m76&quot;,&quot;atom_order&quot;:2}]}</metadata>
  <rect x="0" y="0" width="70" height="44" fill="#f8f0d8"/>
  <image href="file:///C:/Users/HHHES/AppData/Roaming/com.voynichlab.datasetcreator/images/1/35a70f63-88ab-4986-b441-b78046a10087.jpg" x="-1549" y="-1538" width="2972" height="3766" opacity="0.92"/>
  <rect x="0.5" y="0.5" width="69" height="43" fill="none" stroke="#111827" stroke-width="1" opacity="0.35"/>
  <polyline points="16,16 16,17 16,18 16,19 16,20 17,20 17,21 17,22 18,22 18,23 19,24 20,25 20,26 21,26 22,26 23,26 23,27 24,27 25,27 26,27 27,27 28,27 29,27 30,27 31,27 31,28 32,28 33,28 34,28 35,28 36,28 37,28 38,28 39,27 40,27 41,27 42,27 43,27 43,26 44,26 45,26 45,25 46,25 46,24 47,24 48,24 48,23 49,23 49,22 50,21 51,21 51,20 52,20 52,19 53,19 53,18 54,18" fill="none" stroke="#2f7df6" stroke-width="3" stroke-linecap="round" stroke-linejoin="round" opacity="0.95">
    <title>2281 b:1</title>
  </polyline>
</svg>
