<?xml version="1.0" encoding="UTF-8"?>
<svg xmlns="http://www.w3.org/2000/svg" width="70" height="39" viewBox="0 0 70 39">
  <title>atom 2349 b:1</title>
  <metadata>{&quot;entityType&quot;:&quot;atom&quot;,&quot;entityId&quot;:&quot;2349&quot;,&quot;token&quot;:&quot;b:1&quot;,&quot;signature&quot;:&quot;b:1&quot;,&quot;imageName&quot;:&quot;page-003.jpg&quot;,&quot;imageId&quot;:3,&quot;bounds&quot;:{&quot;x&quot;:787,&quot;y&quot;:1637,&quot;w&quot;:70,&quot;h&quot;:39},&quot;atoms&quot;:[{&quot;id&quot;:2349,&quot;token&quot;:&quot;b:1&quot;,&quot;particle_id&quot;:&quot;img3-m83-p1&quot;,&quot;molecule_id&quot;:&quot;img3-m83&quot;,&quot;atom_order&quot;:3}]}</metadata>
  <rect x="0" y="0" width="70" height="39" fill="#f8f0d8"/>
  <image href="file:///C:/Users/HHHES/AppData/Roaming/com.voynichlab.datasetcreator/images/1/35a70f63-88ab-4986-b441-b78046a10087.jpg" x="-787" y="-1637" width="2972" height="3766" opacity="0.92"/>
  <rect x="0.5" y="0.5" width="69" height="38" fill="none" stroke="#111827" stroke-width="1" opacity="0.35"/>
  <polyline points="16,17 18,19 19,19 20,20 22,21 23,21 24,21 25,21 25,22 26,22 27,22 28,22 29,22 30,22 31,23 32,23 33,23 34,23 35,23 36,23 37,23 38,23 39,23 40,23 41,23 42,23 43,23 43,22 44,22 45,22 46,21 47,21 48,21 48,20 49,20 50,19 51,19 52,18 52,17 53,17 53,16 54,16" fill="none" stroke="#2f7df6" stroke-width="3" stroke-linecap="round" stroke-linejoin="round" opacity="0.95">
    <title>2349 b:1</title>
  </polyline>
</svg>
