<?xml version="1.0" encoding="UTF-8"?>
<svg xmlns="http://www.w3.org/2000/svg" width="88" height="40" viewBox="0 0 88 40">
  <title>atom 2384 b:1</title>
  <metadata>{&quot;entityType&quot;:&quot;atom&quot;,&quot;entityId&quot;:&quot;2384&quot;,&quot;token&quot;:&quot;b:1&quot;,&quot;signature&quot;:&quot;b:1&quot;,&quot;imageName&quot;:&quot;page-003.jpg&quot;,&quot;imageId&quot;:3,&quot;bounds&quot;:{&quot;x&quot;:1275,&quot;y&quot;:1640,&quot;w&quot;:88,&quot;h&quot;:40},&quot;atoms&quot;:[{&quot;id&quot;:2384,&quot;token&quot;:&quot;b:1&quot;,&quot;particle_id&quot;:&quot;img3-m80-p1&quot;,&quot;molecule_id&quot;:&quot;img3-m80&quot;,&quot;atom_order&quot;:7}]}</metadata>
  <rect x="0" y="0" width="88" height="40" fill="#f8f0d8"/>
  <image href="file:///C:/Users/HHHES/AppData/Roaming/com.voynichlab.datasetcreator/images/1/35a70f63-88ab-4986-b441-b78046a10087.jpg" x="-1275" y="-1640" width="2972" height="3766" opacity="0.92"/>
  <rect x="0.5" y="0.5" width="87" height="39" fill="none" stroke="#111827" stroke-width="1" opacity="0.35"/>
  <polyline points="16,21 17,21 17,22 18,22 19,22 19,23 20,23 21,23 22,23 23,23 23,24 24,24 25,24 26,24 27,24 28,24 29,24 30,24 31,24 32,24 33,24 34,24 35,24 36,24 37,24 38,24 39,24 40,24 41,24 42,24 43,24 44,24 45,24 46,24 47,24 48,24 49,24 50,24 51,24 52,24 53,24 54,24 55,24 56,23 57,23 58,23 59,23 60,22 61,22 62,22 63,21 64,21 65,20 66,20 67,19 68,19 68,18 69,18 70,18 70,17 71,17 71,16 72,16" fill="none" stroke="#2f7df6" stroke-width="3" stroke-linecap="round" stroke-linejoin="round" opacity="0.95">
    <title>2384 b:1</title>
  </polyline>
</svg>
