<?xml version="1.0" encoding="UTF-8"?>
<svg xmlns="http://www.w3.org/2000/svg" width="57" height="38" viewBox="0 0 57 38">
  <title>atom 2390 b:1</title>
  <metadata>{&quot;entityType&quot;:&quot;atom&quot;,&quot;entityId&quot;:&quot;2390&quot;,&quot;token&quot;:&quot;b:1&quot;,&quot;signature&quot;:&quot;b:1&quot;,&quot;imageName&quot;:&quot;page-003.jpg&quot;,&quot;imageId&quot;:3,&quot;bounds&quot;:{&quot;x&quot;:1287,&quot;y&quot;:1662,&quot;w&quot;:57,&quot;h&quot;:38},&quot;atoms&quot;:[{&quot;id&quot;:2390,&quot;token&quot;:&quot;b:1&quot;,&quot;particle_id&quot;:&quot;img3-m80-p1&quot;,&quot;molecule_id&quot;:&quot;img3-m80&quot;,&quot;atom_order&quot;:4}]}</metadata>
  <rect x="0" y="0" width="57" height="38" fill="#f8f0d8"/>
  <image href="file:///C:/Users/HHHES/AppData/Roaming/com.voynichlab.datasetcreator/images/1/35a70f63-88ab-4986-b441-b78046a10087.jpg" x="-1287" y="-1662" width="2972" height="3766" opacity="0.92"/>
  <rect x="0.5" y="0.5" width="56" height="37" fill="none" stroke="#111827" stroke-width="1" opacity="0.35"/>
  <polyline points="16,16 17,16 17,17 18,17 19,17 19,18 20,18 21,18 22,19 23,19 24,19 24,20 25,20 26,20 27,20 27,21 28,21 29,21 30,21 31,21 32,21 33,21 34,21 35,21 36,22 37,22 38,22 39,22 40,22 40,21 41,21" fill="none" stroke="#2f7df6" stroke-width="3" stroke-linecap="round" stroke-linejoin="round" opacity="0.95">
    <title>2390 b:1</title>
  </polyline>
</svg>
