<?xml version="1.0" encoding="UTF-8"?>
<svg xmlns="http://www.w3.org/2000/svg" width="66" height="37" viewBox="0 0 66 37">
  <title>atom 2402 b:1</title>
  <metadata>{&quot;entityType&quot;:&quot;atom&quot;,&quot;entityId&quot;:&quot;2402&quot;,&quot;token&quot;:&quot;b:1&quot;,&quot;signature&quot;:&quot;b:1&quot;,&quot;imageName&quot;:&quot;page-003.jpg&quot;,&quot;imageId&quot;:3,&quot;bounds&quot;:{&quot;x&quot;:1436,&quot;y&quot;:1660,&quot;w&quot;:66,&quot;h&quot;:37},&quot;atoms&quot;:[{&quot;id&quot;:2402,&quot;token&quot;:&quot;b:1&quot;,&quot;particle_id&quot;:&quot;img3-m82-p1&quot;,&quot;molecule_id&quot;:&quot;img3-m82&quot;,&quot;atom_order&quot;:4}]}</metadata>
  <rect x="0" y="0" width="66" height="37" fill="#f8f0d8"/>
  <image href="file:///C:/Users/HHHES/AppData/Roaming/com.voynichlab.datasetcreator/images/1/35a70f63-88ab-4986-b441-b78046a10087.jpg" x="-1436" y="-1660" width="2972" height="3766" opacity="0.92"/>
  <rect x="0.5" y="0.5" width="65" height="36" fill="none" stroke="#111827" stroke-width="1" opacity="0.35"/>
  <polyline points="16,17 16,18 17,18 18,18 18,19 19,19 20,19 21,19 21,20 22,20 23,20 24,20 24,21 25,21 26,21 27,21 28,21 29,21 30,21 31,21 32,21 33,21 34,21 35,21 36,21 37,21 38,21 39,21 40,21 41,21 42,21 43,20 44,20 45,20 45,19 46,19 47,19 47,18 48,18 48,17 49,17 49,16 50,16" fill="none" stroke="#2f7df6" stroke-width="3" stroke-linecap="round" stroke-linejoin="round" opacity="0.95">
    <title>2402 b:1</title>
  </polyline>
</svg>
