<?xml version="1.0" encoding="UTF-8"?>
<svg xmlns="http://www.w3.org/2000/svg" width="75" height="39" viewBox="0 0 75 39">
  <title>atom 2423 b:1</title>
  <metadata>{&quot;entityType&quot;:&quot;atom&quot;,&quot;entityId&quot;:&quot;2423&quot;,&quot;token&quot;:&quot;b:1&quot;,&quot;signature&quot;:&quot;b:1&quot;,&quot;imageName&quot;:&quot;page-003.jpg&quot;,&quot;imageId&quot;:3,&quot;bounds&quot;:{&quot;x&quot;:1759,&quot;y&quot;:1651,&quot;w&quot;:75,&quot;h&quot;:39},&quot;atoms&quot;:[{&quot;id&quot;:2423,&quot;token&quot;:&quot;b:1&quot;,&quot;particle_id&quot;:&quot;img3-m85-p1&quot;,&quot;molecule_id&quot;:&quot;img3-m85&quot;,&quot;atom_order&quot;:4}]}</metadata>
  <rect x="0" y="0" width="75" height="39" fill="#f8f0d8"/>
  <image href="file:///C:/Users/HHHES/AppData/Roaming/com.voynichlab.datasetcreator/images/1/35a70f63-88ab-4986-b441-b78046a10087.jpg" x="-1759" y="-1651" width="2972" height="3766" opacity="0.92"/>
  <rect x="0.5" y="0.5" width="74" height="38" fill="none" stroke="#111827" stroke-width="1" opacity="0.35"/>
  <polyline points="16,19 17,20 18,20 18,21 19,21 20,21 21,21 22,21 22,22 23,22 24,22 25,22 26,22 26,23 27,23 28,23 29,23 30,23 31,23 32,23 33,23 34,23 35,23 36,23 37,23 38,23 39,23 40,23 41,23 42,23 43,23 44,23 45,23 45,22 46,22 47,22 48,22 49,21 50,21 51,21 52,20 53,20 53,19 54,19 55,19 55,18 56,18 57,18 57,17 58,17 58,16 59,16" fill="none" stroke="#2f7df6" stroke-width="3" stroke-linecap="round" stroke-linejoin="round" opacity="0.95">
    <title>2423 b:1</title>
  </polyline>
</svg>
