<?xml version="1.0" encoding="UTF-8"?>
<svg xmlns="http://www.w3.org/2000/svg" width="94" height="43" viewBox="0 0 94 43">
  <title>atom 2495 b:1</title>
  <metadata>{&quot;entityType&quot;:&quot;atom&quot;,&quot;entityId&quot;:&quot;2495&quot;,&quot;token&quot;:&quot;b:1&quot;,&quot;signature&quot;:&quot;b:1&quot;,&quot;imageName&quot;:&quot;page-003.jpg&quot;,&quot;imageId&quot;:3,&quot;bounds&quot;:{&quot;x&quot;:2108,&quot;y&quot;:1734,&quot;w&quot;:94,&quot;h&quot;:43},&quot;atoms&quot;:[{&quot;id&quot;:2495,&quot;token&quot;:&quot;b:1&quot;,&quot;particle_id&quot;:&quot;img3-m90-p1&quot;,&quot;molecule_id&quot;:&quot;img3-m90&quot;,&quot;atom_order&quot;:4}]}</metadata>
  <rect x="0" y="0" width="94" height="43" fill="#f8f0d8"/>
  <image href="file:///C:/Users/HHHES/AppData/Roaming/com.voynichlab.datasetcreator/images/1/35a70f63-88ab-4986-b441-b78046a10087.jpg" x="-2108" y="-1734" width="2972" height="3766" opacity="0.92"/>
  <rect x="0.5" y="0.5" width="93" height="42" fill="none" stroke="#111827" stroke-width="1" opacity="0.35"/>
  <polyline points="16,22 17,22 18,22 18,23 19,23 20,23 21,23 21,24 22,24 23,24 24,24 25,24 25,25 26,25 27,25 28,25 29,25 30,25 30,26 31,26 32,26 33,26 36,26 37,26 38,26 39,26 40,26 41,26 42,26 43,26 44,26 45,26 47,27 48,27 49,27 50,27 51,27 52,27 53,27 54,26 55,26 56,26 57,26 58,26 59,26 60,26 60,25 61,25 62,25 63,25 63,24 64,24 65,24 66,24 66,23 67,23 68,23 68,22 69,22 70,22 70,21 71,21 72,20 73,20 74,20 74,19 75,19 75,18 76,18 76,17 77,17 78,17 78,16" fill="none" stroke="#2f7df6" stroke-width="3" stroke-linecap="round" stroke-linejoin="round" opacity="0.95">
    <title>2495 b:1</title>
  </polyline>
</svg>
