<?xml version="1.0" encoding="UTF-8"?>
<svg xmlns="http://www.w3.org/2000/svg" width="73" height="43" viewBox="0 0 73 43">
  <title>atom 3297 b:1</title>
  <metadata>{&quot;entityType&quot;:&quot;atom&quot;,&quot;entityId&quot;:&quot;3297&quot;,&quot;token&quot;:&quot;b:1&quot;,&quot;signature&quot;:&quot;b:1&quot;,&quot;imageName&quot;:&quot;page-003.jpg&quot;,&quot;imageId&quot;:3,&quot;bounds&quot;:{&quot;x&quot;:2112,&quot;y&quot;:1891,&quot;w&quot;:73,&quot;h&quot;:43},&quot;atoms&quot;:[{&quot;id&quot;:3297,&quot;token&quot;:&quot;b:1&quot;,&quot;particle_id&quot;:&quot;img3-m111-p1&quot;,&quot;molecule_id&quot;:&quot;img3-m111&quot;,&quot;atom_order&quot;:2}]}</metadata>
  <rect x="0" y="0" width="73" height="43" fill="#f8f0d8"/>
  <image href="file:///C:/Users/HHHES/AppData/Roaming/com.voynichlab.datasetcreator/images/1/35a70f63-88ab-4986-b441-b78046a10087.jpg" x="-2112" y="-1891" width="2972" height="3766" opacity="0.92"/>
  <rect x="0.5" y="0.5" width="72" height="42" fill="none" stroke="#111827" stroke-width="1" opacity="0.35"/>
  <polyline points="16,16 16,17 17,18 17,19 18,19 18,20 19,21 20,21 20,22 21,23 22,23 22,24 23,24 24,25 25,25 26,25 26,26 27,26 28,26 29,26 30,26 31,27 32,27 33,27 34,27 35,27 36,27 37,27 38,27 39,27 40,27 41,27 42,27 43,27 44,27 45,27 45,26 46,26 47,26 48,26 49,25 50,25 50,24 51,24 52,23 53,23 54,23 54,22 55,22 56,21 57,21 57,20" fill="none" stroke="#2f7df6" stroke-width="3" stroke-linecap="round" stroke-linejoin="round" opacity="0.95">
    <title>3297 b:1</title>
  </polyline>
</svg>
