<?xml version="1.0" encoding="UTF-8"?>
<svg xmlns="http://www.w3.org/2000/svg" width="90" height="36" viewBox="0 0 90 36">
  <title>atom 3361 b:1</title>
  <metadata>{&quot;entityType&quot;:&quot;atom&quot;,&quot;entityId&quot;:&quot;3361&quot;,&quot;token&quot;:&quot;b:1&quot;,&quot;signature&quot;:&quot;b:1&quot;,&quot;imageName&quot;:&quot;page-003.jpg&quot;,&quot;imageId&quot;:3,&quot;bounds&quot;:{&quot;x&quot;:726,&quot;y&quot;:1960,&quot;w&quot;:90,&quot;h&quot;:36},&quot;atoms&quot;:[{&quot;id&quot;:3361,&quot;token&quot;:&quot;b:1&quot;,&quot;particle_id&quot;:&quot;img3-m119-p3&quot;,&quot;molecule_id&quot;:&quot;img3-m119&quot;,&quot;atom_order&quot;:3}]}</metadata>
  <rect x="0" y="0" width="90" height="36" fill="#f8f0d8"/>
  <image href="file:///C:/Users/HHHES/AppData/Roaming/com.voynichlab.datasetcreator/images/1/35a70f63-88ab-4986-b441-b78046a10087.jpg" x="-726" y="-1960" width="2972" height="3766" opacity="0.92"/>
  <rect x="0.5" y="0.5" width="89" height="35" fill="none" stroke="#111827" stroke-width="1" opacity="0.35"/>
  <polyline points="16,17 17,17 18,17 18,18 19,18 20,18 21,18 22,18 22,19 23,19 24,19 25,19 26,19 27,19 28,19 29,19 30,19 31,19 32,19 33,20 34,20 35,20 36,20 37,20 38,20 39,20 40,20 41,20 42,20 43,20 44,20 45,20 46,20 47,20 48,20 49,20 50,20 51,20 52,20 52,19 53,19 54,19 55,19 56,19 57,19 58,19 59,19 60,19 61,19 62,19 63,19 64,19 65,19 66,19 66,18 67,18 68,18 69,18 70,18 71,18 72,17 73,17 73,16 74,16" fill="none" stroke="#2f7df6" stroke-width="3" stroke-linecap="round" stroke-linejoin="round" opacity="0.95">
    <title>3361 b:1</title>
  </polyline>
</svg>
