<?xml version="1.0" encoding="UTF-8"?>
<svg xmlns="http://www.w3.org/2000/svg" width="79" height="42" viewBox="0 0 79 42">
  <title>atom 3363 b:1</title>
  <metadata>{&quot;entityType&quot;:&quot;atom&quot;,&quot;entityId&quot;:&quot;3363&quot;,&quot;token&quot;:&quot;b:1&quot;,&quot;signature&quot;:&quot;b:1&quot;,&quot;imageName&quot;:&quot;page-003.jpg&quot;,&quot;imageId&quot;:3,&quot;bounds&quot;:{&quot;x&quot;:1431,&quot;y&quot;:1955,&quot;w&quot;:79,&quot;h&quot;:42},&quot;atoms&quot;:[{&quot;id&quot;:3363,&quot;token&quot;:&quot;b:1&quot;,&quot;particle_id&quot;:&quot;img3-m118-p1&quot;,&quot;molecule_id&quot;:&quot;img3-m118&quot;,&quot;atom_order&quot;:7}]}</metadata>
  <rect x="0" y="0" width="79" height="42" fill="#f8f0d8"/>
  <image href="file:///C:/Users/HHHES/AppData/Roaming/com.voynichlab.datasetcreator/images/1/35a70f63-88ab-4986-b441-b78046a10087.jpg" x="-1431" y="-1955" width="2972" height="3766" opacity="0.92"/>
  <rect x="0.5" y="0.5" width="78" height="41" fill="none" stroke="#111827" stroke-width="1" opacity="0.35"/>
  <polyline points="16,23 17,23 18,23 18,24 19,24 20,24 20,25 21,25 22,25 23,25 23,26 24,26 25,26 26,26 27,26 28,26 29,26 30,26 31,26 32,26 33,26 34,26 35,26 36,26 37,26 38,26 39,26 40,26 40,25 41,25 42,25 43,25 44,25 45,25 46,25 47,24 48,24 49,24 50,24 50,23 51,23 52,23 53,22 54,22 55,22 55,21 56,21 57,21 58,20 59,20 59,19 60,19 61,18 62,17 63,16" fill="none" stroke="#2f7df6" stroke-width="3" stroke-linecap="round" stroke-linejoin="round" opacity="0.95">
    <title>3363 b:1</title>
  </polyline>
</svg>
