<?xml version="1.0" encoding="UTF-8"?>
<svg xmlns="http://www.w3.org/2000/svg" width="91" height="39" viewBox="0 0 91 39">
  <title>atom 3364 b:1</title>
  <metadata>{&quot;entityType&quot;:&quot;atom&quot;,&quot;entityId&quot;:&quot;3364&quot;,&quot;token&quot;:&quot;b:1&quot;,&quot;signature&quot;:&quot;b:1&quot;,&quot;imageName&quot;:&quot;page-003.jpg&quot;,&quot;imageId&quot;:3,&quot;bounds&quot;:{&quot;x&quot;:1919,&quot;y&quot;:1964,&quot;w&quot;:91,&quot;h&quot;:39},&quot;atoms&quot;:[{&quot;id&quot;:3364,&quot;token&quot;:&quot;b:1&quot;,&quot;particle_id&quot;:&quot;img3-m120-p1&quot;,&quot;molecule_id&quot;:&quot;img3-m120&quot;,&quot;atom_order&quot;:4}]}</metadata>
  <rect x="0" y="0" width="91" height="39" fill="#f8f0d8"/>
  <image href="file:///C:/Users/HHHES/AppData/Roaming/com.voynichlab.datasetcreator/images/1/35a70f63-88ab-4986-b441-b78046a10087.jpg" x="-1919" y="-1964" width="2972" height="3766" opacity="0.92"/>
  <rect x="0.5" y="0.5" width="90" height="38" fill="none" stroke="#111827" stroke-width="1" opacity="0.35"/>
  <polyline points="16,18 16,19 17,19 17,20 18,20 19,20 19,21 20,21 21,21 22,21 23,22 24,22 25,22 26,22 27,23 28,23 29,23 30,23 31,23 32,23 33,23 34,23 35,23 36,23 37,23 38,23 39,23 40,23 41,23 42,23 43,23 44,23 45,23 46,23 47,23 48,23 49,23 50,23 51,23 52,23 53,23 54,23 55,23 55,22 56,22 57,22 58,22 59,22 60,22 61,22 61,21 62,21 63,21 63,20 64,20 65,20 65,19 66,19 67,19 68,19 68,18 69,18 70,18 71,18 71,17 72,17 73,17 73,16 74,16 75,16" fill="none" stroke="#2f7df6" stroke-width="3" stroke-linecap="round" stroke-linejoin="round" opacity="0.95">
    <title>3364 b:1</title>
  </polyline>
</svg>
