<?xml version="1.0" encoding="UTF-8"?>
<svg xmlns="http://www.w3.org/2000/svg" width="84" height="36" viewBox="0 0 84 36">
  <title>atom 3365 b:1</title>
  <metadata>{&quot;entityType&quot;:&quot;atom&quot;,&quot;entityId&quot;:&quot;3365&quot;,&quot;token&quot;:&quot;b:1&quot;,&quot;signature&quot;:&quot;b:1&quot;,&quot;imageName&quot;:&quot;page-003.jpg&quot;,&quot;imageId&quot;:3,&quot;bounds&quot;:{&quot;x&quot;:2192,&quot;y&quot;:1973,&quot;w&quot;:84,&quot;h&quot;:36},&quot;atoms&quot;:[{&quot;id&quot;:3365,&quot;token&quot;:&quot;b:1&quot;,&quot;particle_id&quot;:&quot;img3-m121-p3&quot;,&quot;molecule_id&quot;:&quot;img3-m121&quot;,&quot;atom_order&quot;:4}]}</metadata>
  <rect x="0" y="0" width="84" height="36" fill="#f8f0d8"/>
  <image href="file:///C:/Users/HHHES/AppData/Roaming/com.voynichlab.datasetcreator/images/1/35a70f63-88ab-4986-b441-b78046a10087.jpg" x="-2192" y="-1973" width="2972" height="3766" opacity="0.92"/>
  <rect x="0.5" y="0.5" width="83" height="35" fill="none" stroke="#111827" stroke-width="1" opacity="0.35"/>
  <polyline points="16,16 16,17 17,17 18,17 19,17 20,17 21,17 22,18 23,18 24,18 25,18 26,18 27,18 28,18 29,18 30,18 30,19 31,19 32,19 33,19 34,19 35,19 36,19 37,19 38,19 39,19 40,19 41,19 42,20 43,20 44,20 45,20 46,20 47,20 48,20 49,20 50,20 51,20 52,20 53,20 54,20 55,20 56,20 57,20 58,20 59,20 60,20 61,19 62,19 63,19 64,19 65,18 66,18 67,17 68,17" fill="none" stroke="#2f7df6" stroke-width="3" stroke-linecap="round" stroke-linejoin="round" opacity="0.95">
    <title>3365 b:1</title>
  </polyline>
</svg>
