<?xml version="1.0" encoding="UTF-8"?>
<svg xmlns="http://www.w3.org/2000/svg" width="96" height="42" viewBox="0 0 96 42">
  <title>atom 3430 b:1</title>
  <metadata>{&quot;entityType&quot;:&quot;atom&quot;,&quot;entityId&quot;:&quot;3430&quot;,&quot;token&quot;:&quot;b:1&quot;,&quot;signature&quot;:&quot;b:1&quot;,&quot;imageName&quot;:&quot;page-003.jpg&quot;,&quot;imageId&quot;:3,&quot;bounds&quot;:{&quot;x&quot;:591,&quot;y&quot;:2040,&quot;w&quot;:96,&quot;h&quot;:42},&quot;atoms&quot;:[{&quot;id&quot;:3430,&quot;token&quot;:&quot;b:1&quot;,&quot;particle_id&quot;:&quot;img3-m133-p2&quot;,&quot;molecule_id&quot;:&quot;img3-m133&quot;,&quot;atom_order&quot;:3}]}</metadata>
  <rect x="0" y="0" width="96" height="42" fill="#f8f0d8"/>
  <image href="file:///C:/Users/HHHES/AppData/Roaming/com.voynichlab.datasetcreator/images/1/35a70f63-88ab-4986-b441-b78046a10087.jpg" x="-591" y="-2040" width="2972" height="3766" opacity="0.92"/>
  <rect x="0.5" y="0.5" width="95" height="41" fill="none" stroke="#111827" stroke-width="1" opacity="0.35"/>
  <polyline points="16,25 17,25 18,25 19,26 20,26 21,26 22,26 23,26 24,26 25,26 26,26 27,26 28,26 29,26 30,26 31,26 32,26 33,26 34,26 35,26 36,26 37,26 38,26 39,26 40,25 41,25 42,25 43,25 44,25 45,25 46,25 47,25 48,25 49,25 50,25 50,24 51,24 52,24 53,24 54,24 55,24 56,24 57,23 58,23 59,23 60,23 61,22 62,22 63,22 64,22 65,22 66,22 66,21 67,21 68,21 69,21 70,20 71,20 72,20 73,19 74,19 74,18 75,18 76,18 77,18 78,17 79,17 79,16 80,16" fill="none" stroke="#2f7df6" stroke-width="3" stroke-linecap="round" stroke-linejoin="round" opacity="0.95">
    <title>3430 b:1</title>
  </polyline>
</svg>
