<?xml version="1.0" encoding="UTF-8"?>
<svg xmlns="http://www.w3.org/2000/svg" width="89" height="41" viewBox="0 0 89 41">
  <title>atom 3431 b:1</title>
  <metadata>{&quot;entityType&quot;:&quot;atom&quot;,&quot;entityId&quot;:&quot;3431&quot;,&quot;token&quot;:&quot;b:1&quot;,&quot;signature&quot;:&quot;b:1&quot;,&quot;imageName&quot;:&quot;page-003.jpg&quot;,&quot;imageId&quot;:3,&quot;bounds&quot;:{&quot;x&quot;:1019,&quot;y&quot;:2037,&quot;w&quot;:89,&quot;h&quot;:41},&quot;atoms&quot;:[{&quot;id&quot;:3431,&quot;token&quot;:&quot;b:1&quot;,&quot;particle_id&quot;:&quot;img3-m127-p1&quot;,&quot;molecule_id&quot;:&quot;img3-m127&quot;,&quot;atom_order&quot;:2}]}</metadata>
  <rect x="0" y="0" width="89" height="41" fill="#f8f0d8"/>
  <image href="file:///C:/Users/HHHES/AppData/Roaming/com.voynichlab.datasetcreator/images/1/35a70f63-88ab-4986-b441-b78046a10087.jpg" x="-1019" y="-2037" width="2972" height="3766" opacity="0.92"/>
  <rect x="0.5" y="0.5" width="88" height="40" fill="none" stroke="#111827" stroke-width="1" opacity="0.35"/>
  <polyline points="16,16 17,17 18,17 18,18 19,19 20,19 21,20 22,21 23,21 24,21 25,22 26,22 27,22 28,22 29,22 29,23 30,23 31,23 32,23 34,23 34,24 35,24 36,24 37,24 38,24 38,25 39,25 40,25 41,25 42,25 43,25 44,25 45,25 46,25 47,25 48,25 49,25 50,25 51,25 52,25 53,25 54,25 55,25 56,25 56,24 57,24 58,24 59,24 59,23 60,23 61,23 62,22 63,22 64,22 64,21 65,21 65,20 66,20 67,20 67,19 68,19 69,18 70,18 70,17 71,17 72,17 72,16 73,16" fill="none" stroke="#2f7df6" stroke-width="3" stroke-linecap="round" stroke-linejoin="round" opacity="0.95">
    <title>3431 b:1</title>
  </polyline>
</svg>
