<?xml version="1.0" encoding="UTF-8"?>
<svg xmlns="http://www.w3.org/2000/svg" width="66" height="37" viewBox="0 0 66 37">
  <title>atom 3432 b:1</title>
  <metadata>{&quot;entityType&quot;:&quot;atom&quot;,&quot;entityId&quot;:&quot;3432&quot;,&quot;token&quot;:&quot;b:1&quot;,&quot;signature&quot;:&quot;b:1&quot;,&quot;imageName&quot;:&quot;page-003.jpg&quot;,&quot;imageId&quot;:3,&quot;bounds&quot;:{&quot;x&quot;:1382,&quot;y&quot;:2059,&quot;w&quot;:66,&quot;h&quot;:37},&quot;atoms&quot;:[{&quot;id&quot;:3432,&quot;token&quot;:&quot;b:1&quot;,&quot;particle_id&quot;:&quot;img3-m126-p1&quot;,&quot;molecule_id&quot;:&quot;img3-m126&quot;,&quot;atom_order&quot;:6}]}</metadata>
  <rect x="0" y="0" width="66" height="37" fill="#f8f0d8"/>
  <image href="file:///C:/Users/HHHES/AppData/Roaming/com.voynichlab.datasetcreator/images/1/35a70f63-88ab-4986-b441-b78046a10087.jpg" x="-1382" y="-2059" width="2972" height="3766" opacity="0.92"/>
  <rect x="0.5" y="0.5" width="65" height="36" fill="none" stroke="#111827" stroke-width="1" opacity="0.35"/>
  <polyline points="50,16 49,17 49,18 48,18 48,19 47,19 46,19 45,19 45,20 44,20 43,20 42,20 41,20 41,21 40,21 39,21 38,21 37,21 36,21 35,21 34,21 33,21 32,21 31,20 30,20 29,20 28,20 27,20 26,19 25,19 24,19 24,18 23,18 22,18 21,18 21,17 20,17 19,17 18,17 17,17 17,16 16,16" fill="none" stroke="#2f7df6" stroke-width="3" stroke-linecap="round" stroke-linejoin="round" opacity="0.95">
    <title>3432 b:1</title>
  </polyline>
</svg>
