<?xml version="1.0" encoding="UTF-8"?>
<svg xmlns="http://www.w3.org/2000/svg" width="77" height="37" viewBox="0 0 77 37">
  <title>atom 3609 b:1</title>
  <metadata>{&quot;entityType&quot;:&quot;atom&quot;,&quot;entityId&quot;:&quot;3609&quot;,&quot;token&quot;:&quot;b:1&quot;,&quot;signature&quot;:&quot;b:1&quot;,&quot;imageName&quot;:&quot;page-003.jpg&quot;,&quot;imageId&quot;:3,&quot;bounds&quot;:{&quot;x&quot;:849,&quot;y&quot;:2120,&quot;w&quot;:77,&quot;h&quot;:37},&quot;atoms&quot;:[{&quot;id&quot;:3609,&quot;token&quot;:&quot;b:1&quot;,&quot;particle_id&quot;:&quot;img3-m137-p3&quot;,&quot;molecule_id&quot;:&quot;img3-m137&quot;,&quot;atom_order&quot;:4}]}</metadata>
  <rect x="0" y="0" width="77" height="37" fill="#f8f0d8"/>
  <image href="file:///C:/Users/HHHES/AppData/Roaming/com.voynichlab.datasetcreator/images/1/35a70f63-88ab-4986-b441-b78046a10087.jpg" x="-849" y="-2120" width="2972" height="3766" opacity="0.92"/>
  <rect x="0.5" y="0.5" width="76" height="36" fill="none" stroke="#111827" stroke-width="1" opacity="0.35"/>
  <polyline points="16,19 17,20 18,20 19,20 19,21 20,21 21,21 22,21 23,21 24,21 25,21 26,21 27,21 28,21 29,21 30,21 31,21 32,21 33,21 34,21 35,21 36,21 37,21 38,21 39,21 40,21 41,21 42,21 43,21 44,21 45,21 46,21 47,20 48,20 49,20 50,20 51,20 52,20 52,19 53,19 54,19 55,19 56,18 57,18 58,18 59,18 59,17 60,17 61,17 61,16" fill="none" stroke="#2f7df6" stroke-width="3" stroke-linecap="round" stroke-linejoin="round" opacity="0.95">
    <title>3609 b:1</title>
  </polyline>
</svg>
