<?xml version="1.0" encoding="UTF-8"?>
<svg xmlns="http://www.w3.org/2000/svg" width="73" height="42" viewBox="0 0 73 42">
  <title>atom 3610 b:1</title>
  <metadata>{&quot;entityType&quot;:&quot;atom&quot;,&quot;entityId&quot;:&quot;3610&quot;,&quot;token&quot;:&quot;b:1&quot;,&quot;signature&quot;:&quot;b:1&quot;,&quot;imageName&quot;:&quot;page-003.jpg&quot;,&quot;imageId&quot;:3,&quot;bounds&quot;:{&quot;x&quot;:1131,&quot;y&quot;:2125,&quot;w&quot;:73,&quot;h&quot;:42},&quot;atoms&quot;:[{&quot;id&quot;:3610,&quot;token&quot;:&quot;b:1&quot;,&quot;particle_id&quot;:&quot;img3-m138-p2&quot;,&quot;molecule_id&quot;:&quot;img3-m138&quot;,&quot;atom_order&quot;:2}]}</metadata>
  <rect x="0" y="0" width="73" height="42" fill="#f8f0d8"/>
  <image href="file:///C:/Users/HHHES/AppData/Roaming/com.voynichlab.datasetcreator/images/1/35a70f63-88ab-4986-b441-b78046a10087.jpg" x="-1131" y="-2125" width="2972" height="3766" opacity="0.92"/>
  <rect x="0.5" y="0.5" width="72" height="41" fill="none" stroke="#111827" stroke-width="1" opacity="0.35"/>
  <polyline points="16,16 16,17 16,18 17,18 17,19 18,20 19,20 20,21 21,21 22,22 23,22 24,22 25,23 26,23 27,23 28,23 29,24 30,24 31,24 32,24 32,25 33,25 34,25 35,25 36,25 37,26 38,26 39,26 40,26 41,26 42,26 44,26 45,26 46,26 47,26 48,26 49,26 50,26 50,25 51,25 52,25 53,25 54,25 55,25 56,24 57,24" fill="none" stroke="#2f7df6" stroke-width="3" stroke-linecap="round" stroke-linejoin="round" opacity="0.95">
    <title>3610 b:1</title>
  </polyline>
</svg>
