<?xml version="1.0" encoding="UTF-8"?>
<svg xmlns="http://www.w3.org/2000/svg" width="94" height="38" viewBox="0 0 94 38">
  <title>atom 3611 b:1</title>
  <metadata>{&quot;entityType&quot;:&quot;atom&quot;,&quot;entityId&quot;:&quot;3611&quot;,&quot;token&quot;:&quot;b:1&quot;,&quot;signature&quot;:&quot;b:1&quot;,&quot;imageName&quot;:&quot;page-003.jpg&quot;,&quot;imageId&quot;:3,&quot;bounds&quot;:{&quot;x&quot;:1634,&quot;y&quot;:2136,&quot;w&quot;:94,&quot;h&quot;:38},&quot;atoms&quot;:[{&quot;id&quot;:3611,&quot;token&quot;:&quot;b:1&quot;,&quot;particle_id&quot;:&quot;img3-m136-p4&quot;,&quot;molecule_id&quot;:&quot;img3-m136&quot;,&quot;atom_order&quot;:6}]}</metadata>
  <rect x="0" y="0" width="94" height="38" fill="#f8f0d8"/>
  <image href="file:///C:/Users/HHHES/AppData/Roaming/com.voynichlab.datasetcreator/images/1/35a70f63-88ab-4986-b441-b78046a10087.jpg" x="-1634" y="-2136" width="2972" height="3766" opacity="0.92"/>
  <rect x="0.5" y="0.5" width="93" height="37" fill="none" stroke="#111827" stroke-width="1" opacity="0.35"/>
  <polyline points="16,16 16,17 17,17 18,17 18,18 19,18 20,18 21,19 22,19 23,19 24,20 25,20 26,20 27,20 28,20 29,20 30,20 31,21 32,21 33,21 34,21 35,21 36,21 37,21 39,21 41,21 43,22 44,22 45,22 46,22 47,22 48,22 49,22 51,22 53,22 55,22 57,22 59,22 61,22 62,22 63,22 64,22 65,22 66,22 67,22 68,22 69,22 70,21 71,21 72,21 73,20 74,20 75,20 76,20 76,19 77,19 78,18" fill="none" stroke="#2f7df6" stroke-width="3" stroke-linecap="round" stroke-linejoin="round" opacity="0.95">
    <title>3611 b:1</title>
  </polyline>
</svg>
