<?xml version="1.0" encoding="UTF-8"?>
<svg xmlns="http://www.w3.org/2000/svg" width="83" height="36" viewBox="0 0 83 36">
  <title>atom 3612 b:1</title>
  <metadata>{&quot;entityType&quot;:&quot;atom&quot;,&quot;entityId&quot;:&quot;3612&quot;,&quot;token&quot;:&quot;b:1&quot;,&quot;signature&quot;:&quot;b:1&quot;,&quot;imageName&quot;:&quot;page-003.jpg&quot;,&quot;imageId&quot;:3,&quot;bounds&quot;:{&quot;x&quot;:1722,&quot;y&quot;:2144,&quot;w&quot;:83,&quot;h&quot;:36},&quot;atoms&quot;:[{&quot;id&quot;:3612,&quot;token&quot;:&quot;b:1&quot;,&quot;particle_id&quot;:&quot;img3-m134-p1&quot;,&quot;molecule_id&quot;:&quot;img3-m134&quot;,&quot;atom_order&quot;:13}]}</metadata>
  <rect x="0" y="0" width="83" height="36" fill="#f8f0d8"/>
  <image href="file:///C:/Users/HHHES/AppData/Roaming/com.voynichlab.datasetcreator/images/1/35a70f63-88ab-4986-b441-b78046a10087.jpg" x="-1722" y="-2144" width="2972" height="3766" opacity="0.92"/>
  <rect x="0.5" y="0.5" width="82" height="35" fill="none" stroke="#111827" stroke-width="1" opacity="0.35"/>
  <polyline points="16,16 17,16 18,17 19,17 20,18 21,18 22,18 23,18 24,19 25,19 26,19 27,19 28,19 29,19 30,19 31,19 32,19 33,19 34,19 35,19 36,19 37,19 38,19 39,19 41,19 42,19 43,19 44,20 45,20 46,20 47,20 48,20 49,20 50,20 51,20 52,20 53,20 54,20 55,20 56,20 57,20 58,20 59,20 60,20 61,20 62,19 63,19 64,18 65,18 66,18 66,17 67,17" fill="none" stroke="#2f7df6" stroke-width="3" stroke-linecap="round" stroke-linejoin="round" opacity="0.95">
    <title>3612 b:1</title>
  </polyline>
</svg>
