<?xml version="1.0" encoding="UTF-8"?>
<svg xmlns="http://www.w3.org/2000/svg" width="88" height="36" viewBox="0 0 88 36">
  <title>atom 3613 b:1</title>
  <metadata>{&quot;entityType&quot;:&quot;atom&quot;,&quot;entityId&quot;:&quot;3613&quot;,&quot;token&quot;:&quot;b:1&quot;,&quot;signature&quot;:&quot;b:1&quot;,&quot;imageName&quot;:&quot;page-003.jpg&quot;,&quot;imageId&quot;:3,&quot;bounds&quot;:{&quot;x&quot;:1903,&quot;y&quot;:2142,&quot;w&quot;:88,&quot;h&quot;:36},&quot;atoms&quot;:[{&quot;id&quot;:3613,&quot;token&quot;:&quot;b:1&quot;,&quot;particle_id&quot;:&quot;img3-m134-p1&quot;,&quot;molecule_id&quot;:&quot;img3-m134&quot;,&quot;atom_order&quot;:4}]}</metadata>
  <rect x="0" y="0" width="88" height="36" fill="#f8f0d8"/>
  <image href="file:///C:/Users/HHHES/AppData/Roaming/com.voynichlab.datasetcreator/images/1/35a70f63-88ab-4986-b441-b78046a10087.jpg" x="-1903" y="-2142" width="2972" height="3766" opacity="0.92"/>
  <rect x="0.5" y="0.5" width="87" height="35" fill="none" stroke="#111827" stroke-width="1" opacity="0.35"/>
  <polyline points="16,17 17,17 19,17 21,18 22,18 23,18 24,18 25,18 26,19 28,19 29,19 30,19 32,19 35,19 38,20 40,20 41,20 42,20 43,20 44,20 45,20 46,20 47,20 48,20 49,20 50,20 51,20 53,20 54,20 55,20 56,20 57,20 58,20 59,20 61,20 62,20 63,19 64,19 65,19 65,18 66,18 67,18 68,17 69,17 70,16 71,16 72,16" fill="none" stroke="#2f7df6" stroke-width="3" stroke-linecap="round" stroke-linejoin="round" opacity="0.95">
    <title>3613 b:1</title>
  </polyline>
</svg>
