<?xml version="1.0" encoding="UTF-8"?>
<svg xmlns="http://www.w3.org/2000/svg" width="72" height="42" viewBox="0 0 72 42">
  <title>atom 3616 b:1</title>
  <metadata>{&quot;entityType&quot;:&quot;atom&quot;,&quot;entityId&quot;:&quot;3616&quot;,&quot;token&quot;:&quot;b:1&quot;,&quot;signature&quot;:&quot;b:1&quot;,&quot;imageName&quot;:&quot;page-003.jpg&quot;,&quot;imageId&quot;:3,&quot;bounds&quot;:{&quot;x&quot;:1283,&quot;y&quot;:2213,&quot;w&quot;:72,&quot;h&quot;:42},&quot;atoms&quot;:[{&quot;id&quot;:3616,&quot;token&quot;:&quot;b:1&quot;,&quot;particle_id&quot;:&quot;img3-m140-p1&quot;,&quot;molecule_id&quot;:&quot;img3-m140&quot;,&quot;atom_order&quot;:3}]}</metadata>
  <rect x="0" y="0" width="72" height="42" fill="#f8f0d8"/>
  <image href="file:///C:/Users/HHHES/AppData/Roaming/com.voynichlab.datasetcreator/images/1/35a70f63-88ab-4986-b441-b78046a10087.jpg" x="-1283" y="-2213" width="2972" height="3766" opacity="0.92"/>
  <rect x="0.5" y="0.5" width="71" height="41" fill="none" stroke="#111827" stroke-width="1" opacity="0.35"/>
  <polyline points="16,16 16,17 16,18 17,19 17,20 18,21 18,22 19,22 20,23 21,23 22,23 22,24 23,24 24,24 25,24 26,25 27,25 28,25 29,25 30,25 32,25 33,26 34,26 35,26 36,26 37,26 38,26 39,26 40,25 41,25 42,25 43,25 44,25 44,24 45,24 46,24 47,24 48,24 49,23 50,23 51,23 51,22 52,22 53,22 53,21 54,21 55,20 56,20 56,19" fill="none" stroke="#2f7df6" stroke-width="3" stroke-linecap="round" stroke-linejoin="round" opacity="0.95">
    <title>3616 b:1</title>
  </polyline>
</svg>
