<?xml version="1.0" encoding="UTF-8"?>
<svg xmlns="http://www.w3.org/2000/svg" width="82" height="43" viewBox="0 0 82 43">
  <title>atom 3617 b:1</title>
  <metadata>{&quot;entityType&quot;:&quot;atom&quot;,&quot;entityId&quot;:&quot;3617&quot;,&quot;token&quot;:&quot;b:1&quot;,&quot;signature&quot;:&quot;b:1&quot;,&quot;imageName&quot;:&quot;page-003.jpg&quot;,&quot;imageId&quot;:3,&quot;bounds&quot;:{&quot;x&quot;:1976,&quot;y&quot;:2244,&quot;w&quot;:82,&quot;h&quot;:43},&quot;atoms&quot;:[{&quot;id&quot;:3617,&quot;token&quot;:&quot;b:1&quot;,&quot;particle_id&quot;:&quot;img3-m146-p2&quot;,&quot;molecule_id&quot;:&quot;img3-m146&quot;,&quot;atom_order&quot;:3}]}</metadata>
  <rect x="0" y="0" width="82" height="43" fill="#f8f0d8"/>
  <image href="file:///C:/Users/HHHES/AppData/Roaming/com.voynichlab.datasetcreator/images/1/35a70f63-88ab-4986-b441-b78046a10087.jpg" x="-1976" y="-2244" width="2972" height="3766" opacity="0.92"/>
  <rect x="0.5" y="0.5" width="81" height="42" fill="none" stroke="#111827" stroke-width="1" opacity="0.35"/>
  <polyline points="16,16 16,17 17,18 18,19 18,20 19,20 19,21 20,21 20,22 21,22 22,22 23,23 24,23 24,24 25,24 26,24 27,25 29,25 30,25 31,26 32,26 33,26 34,26 35,26 36,26 37,26 38,26 39,26 40,26 41,26 42,27 43,27 44,27 45,27 46,27 47,27 48,27 50,27 51,27 52,27 53,27 54,26 55,26 56,26 57,25 58,25 59,25 60,25 60,24 61,24 62,23 63,23 63,22 64,22 65,21 66,21 66,20" fill="none" stroke="#2f7df6" stroke-width="3" stroke-linecap="round" stroke-linejoin="round" opacity="0.95">
    <title>3617 b:1</title>
  </polyline>
</svg>
