<?xml version="1.0" encoding="UTF-8"?>
<svg xmlns="http://www.w3.org/2000/svg" width="63" height="48" viewBox="0 0 63 48">
  <title>atom 3788 b:1</title>
  <metadata>{&quot;entityType&quot;:&quot;atom&quot;,&quot;entityId&quot;:&quot;3788&quot;,&quot;token&quot;:&quot;b:1&quot;,&quot;signature&quot;:&quot;b:1&quot;,&quot;imageName&quot;:&quot;page-003.jpg&quot;,&quot;imageId&quot;:3,&quot;bounds&quot;:{&quot;x&quot;:990,&quot;y&quot;:2448,&quot;w&quot;:63,&quot;h&quot;:48},&quot;atoms&quot;:[{&quot;id&quot;:3788,&quot;token&quot;:&quot;b:1&quot;,&quot;particle_id&quot;:&quot;img3-m150-p4&quot;,&quot;molecule_id&quot;:&quot;img3-m150&quot;,&quot;atom_order&quot;:2}]}</metadata>
  <rect x="0" y="0" width="63" height="48" fill="#f8f0d8"/>
  <image href="file:///C:/Users/HHHES/AppData/Roaming/com.voynichlab.datasetcreator/images/1/35a70f63-88ab-4986-b441-b78046a10087.jpg" x="-990" y="-2448" width="2972" height="3766" opacity="0.92"/>
  <rect x="0.5" y="0.5" width="62" height="47" fill="none" stroke="#111827" stroke-width="1" opacity="0.35"/>
  <polyline points="16,16 16,17 16,18 16,19 16,20 16,21 16,22 16,23 17,23 17,24 17,25 18,26 18,27 19,27 19,28 20,28 21,29 22,30 23,30 23,31 24,31 25,32 26,32 27,32 28,32 29,32 30,32 31,32 32,32 33,32 34,32 35,32 36,32 36,31 37,31 38,31 39,30 40,30 41,29 42,29 42,28 43,28 44,27 44,26 45,26 45,25 46,25 46,24 47,23 47,22" fill="none" stroke="#2f7df6" stroke-width="3" stroke-linecap="round" stroke-linejoin="round" opacity="0.95">
    <title>3788 b:1</title>
  </polyline>
</svg>
