<?xml version="1.0" encoding="UTF-8"?>
<svg xmlns="http://www.w3.org/2000/svg" width="67" height="36" viewBox="0 0 67 36">
  <title>atom 3803 b:1</title>
  <metadata>{&quot;entityType&quot;:&quot;atom&quot;,&quot;entityId&quot;:&quot;3803&quot;,&quot;token&quot;:&quot;b:1&quot;,&quot;signature&quot;:&quot;b:1&quot;,&quot;imageName&quot;:&quot;page-003.jpg&quot;,&quot;imageId&quot;:3,&quot;bounds&quot;:{&quot;x&quot;:1811,&quot;y&quot;:2469,&quot;w&quot;:67,&quot;h&quot;:36},&quot;atoms&quot;:[{&quot;id&quot;:3803,&quot;token&quot;:&quot;b:1&quot;,&quot;particle_id&quot;:&quot;img3-m152-p1&quot;,&quot;molecule_id&quot;:&quot;img3-m152&quot;,&quot;atom_order&quot;:7}]}</metadata>
  <rect x="0" y="0" width="67" height="36" fill="#f8f0d8"/>
  <image href="file:///C:/Users/HHHES/AppData/Roaming/com.voynichlab.datasetcreator/images/1/35a70f63-88ab-4986-b441-b78046a10087.jpg" x="-1811" y="-2469" width="2972" height="3766" opacity="0.92"/>
  <rect x="0.5" y="0.5" width="66" height="35" fill="none" stroke="#111827" stroke-width="1" opacity="0.35"/>
  <polyline points="16,16 17,17 18,17 18,18 19,18 20,19 22,19 23,19 24,20 25,20 26,20 27,20 29,20 30,20 32,20 33,20 34,20 35,20 36,20 37,20 38,20 39,20 40,20 41,20 42,20 43,20 44,20 45,19 46,19 47,19 47,18 48,18 49,18 49,17 50,17 51,17 51,16" fill="none" stroke="#2f7df6" stroke-width="3" stroke-linecap="round" stroke-linejoin="round" opacity="0.95">
    <title>3803 b:1</title>
  </polyline>
</svg>
