<?xml version="1.0" encoding="UTF-8"?>
<svg xmlns="http://www.w3.org/2000/svg" width="64" height="43" viewBox="0 0 64 43">
  <title>atom 3903 b:1</title>
  <metadata>{&quot;entityType&quot;:&quot;atom&quot;,&quot;entityId&quot;:&quot;3903&quot;,&quot;token&quot;:&quot;b:1&quot;,&quot;signature&quot;:&quot;b:1&quot;,&quot;imageName&quot;:&quot;page-003.jpg&quot;,&quot;imageId&quot;:3,&quot;bounds&quot;:{&quot;x&quot;:1605,&quot;y&quot;:2580,&quot;w&quot;:64,&quot;h&quot;:43},&quot;atoms&quot;:[{&quot;id&quot;:3903,&quot;token&quot;:&quot;b:1&quot;,&quot;particle_id&quot;:&quot;img3-m156-p1&quot;,&quot;molecule_id&quot;:&quot;img3-m156&quot;,&quot;atom_order&quot;:2}]}</metadata>
  <rect x="0" y="0" width="64" height="43" fill="#f8f0d8"/>
  <image href="file:///C:/Users/HHHES/AppData/Roaming/com.voynichlab.datasetcreator/images/1/35a70f63-88ab-4986-b441-b78046a10087.jpg" x="-1605" y="-2580" width="2972" height="3766" opacity="0.92"/>
  <rect x="0.5" y="0.5" width="63" height="42" fill="none" stroke="#111827" stroke-width="1" opacity="0.35"/>
  <polyline points="16,16 16,17 17,17 17,18 17,19 18,20 18,21 18,22 19,22 19,23 20,23 20,24 21,24 21,25 22,25 23,25 23,26 24,26 25,26 26,26 27,27 28,27 29,27 30,27 31,27 32,27 33,27 34,27 35,27 36,27 37,27 38,27 39,27 40,27 41,27 42,27 43,27 43,26 44,26 45,26 46,26 47,26 47,25 48,25 47,25" fill="none" stroke="#2f7df6" stroke-width="3" stroke-linecap="round" stroke-linejoin="round" opacity="0.95">
    <title>3903 b:1</title>
  </polyline>
</svg>
