<?xml version="1.0" encoding="UTF-8"?>
<svg xmlns="http://www.w3.org/2000/svg" width="59" height="42" viewBox="0 0 59 42">
  <title>atom 3953 b:1</title>
  <metadata>{&quot;entityType&quot;:&quot;atom&quot;,&quot;entityId&quot;:&quot;3953&quot;,&quot;token&quot;:&quot;b:1&quot;,&quot;signature&quot;:&quot;b:1&quot;,&quot;imageName&quot;:&quot;page-003.jpg&quot;,&quot;imageId&quot;:3,&quot;bounds&quot;:{&quot;x&quot;:730,&quot;y&quot;:2643,&quot;w&quot;:59,&quot;h&quot;:42},&quot;atoms&quot;:[{&quot;id&quot;:3953,&quot;token&quot;:&quot;b:1&quot;,&quot;particle_id&quot;:&quot;img3-m171-p2&quot;,&quot;molecule_id&quot;:&quot;img3-m171&quot;,&quot;atom_order&quot;:2}]}</metadata>
  <rect x="0" y="0" width="59" height="42" fill="#f8f0d8"/>
  <image href="file:///C:/Users/HHHES/AppData/Roaming/com.voynichlab.datasetcreator/images/1/35a70f63-88ab-4986-b441-b78046a10087.jpg" x="-730" y="-2643" width="2972" height="3766" opacity="0.92"/>
  <rect x="0.5" y="0.5" width="58" height="41" fill="none" stroke="#111827" stroke-width="1" opacity="0.35"/>
  <polyline points="16,16 16,17 17,18 17,19 17,20 18,20 18,21 18,22 19,22 19,23 20,23 20,24 21,24 22,24 22,25 23,25 24,25 25,25 26,25 27,26 28,26 29,26 30,26 31,26 32,26 33,26 34,26 35,26 36,26 37,26 38,26 38,25 39,25 40,25 41,25 42,25 42,24 43,24" fill="none" stroke="#2f7df6" stroke-width="3" stroke-linecap="round" stroke-linejoin="round" opacity="0.95">
    <title>3953 b:1</title>
  </polyline>
</svg>
