<?xml version="1.0" encoding="UTF-8"?>
<svg xmlns="http://www.w3.org/2000/svg" width="63" height="39" viewBox="0 0 63 39">
  <title>atom 3954 b:1</title>
  <metadata>{&quot;entityType&quot;:&quot;atom&quot;,&quot;entityId&quot;:&quot;3954&quot;,&quot;token&quot;:&quot;b:1&quot;,&quot;signature&quot;:&quot;b:1&quot;,&quot;imageName&quot;:&quot;page-003.jpg&quot;,&quot;imageId&quot;:3,&quot;bounds&quot;:{&quot;x&quot;:1196,&quot;y&quot;:2656,&quot;w&quot;:63,&quot;h&quot;:39},&quot;atoms&quot;:[{&quot;id&quot;:3954,&quot;token&quot;:&quot;b:1&quot;,&quot;particle_id&quot;:&quot;img3-m173-p2&quot;,&quot;molecule_id&quot;:&quot;img3-m173&quot;,&quot;atom_order&quot;:2}]}</metadata>
  <rect x="0" y="0" width="63" height="39" fill="#f8f0d8"/>
  <image href="file:///C:/Users/HHHES/AppData/Roaming/com.voynichlab.datasetcreator/images/1/35a70f63-88ab-4986-b441-b78046a10087.jpg" x="-1196" y="-2656" width="2972" height="3766" opacity="0.92"/>
  <rect x="0.5" y="0.5" width="62" height="38" fill="none" stroke="#111827" stroke-width="1" opacity="0.35"/>
  <polyline points="16,16 17,17 17,18 17,19 18,19 18,20 19,20 19,21 20,21 21,21 22,22 23,22 24,22 25,22 26,22 27,22 28,22 29,22 30,23 31,23 32,23 33,23 34,23 35,23 36,23 37,23 38,23 39,23 40,23 41,23 42,23 43,22 44,22 45,22 45,21 46,21 47,21 46,21" fill="none" stroke="#2f7df6" stroke-width="3" stroke-linecap="round" stroke-linejoin="round" opacity="0.95">
    <title>3954 b:1</title>
  </polyline>
</svg>
