<?xml version="1.0" encoding="UTF-8"?>
<svg xmlns="http://www.w3.org/2000/svg" width="58" height="33" viewBox="0 0 58 33">
  <title>atom 3995 b:1</title>
  <metadata>{&quot;entityType&quot;:&quot;atom&quot;,&quot;entityId&quot;:&quot;3995&quot;,&quot;token&quot;:&quot;b:1&quot;,&quot;signature&quot;:&quot;b:1&quot;,&quot;imageName&quot;:&quot;page-003.jpg&quot;,&quot;imageId&quot;:3,&quot;bounds&quot;:{&quot;x&quot;:1527,&quot;y&quot;:2694,&quot;w&quot;:58,&quot;h&quot;:33},&quot;atoms&quot;:[{&quot;id&quot;:3995,&quot;token&quot;:&quot;b:1&quot;,&quot;particle_id&quot;:&quot;img3-m165-p1&quot;,&quot;molecule_id&quot;:&quot;img3-m165&quot;,&quot;atom_order&quot;:3}]}</metadata>
  <rect x="0" y="0" width="58" height="33" fill="#f8f0d8"/>
  <image href="file:///C:/Users/HHHES/AppData/Roaming/com.voynichlab.datasetcreator/images/1/35a70f63-88ab-4986-b441-b78046a10087.jpg" x="-1527" y="-2694" width="2972" height="3766" opacity="0.92"/>
  <rect x="0.5" y="0.5" width="57" height="32" fill="none" stroke="#111827" stroke-width="1" opacity="0.35"/>
  <polyline points="42,17 41,17 40,17 39,17 38,17 37,17 36,17 35,17 34,17 33,17 32,17 31,17 30,17 29,17 28,17 27,17 26,17 25,17 24,17 23,17 22,17 21,17 20,17 19,17 19,16 18,16 17,16 16,16" fill="none" stroke="#2f7df6" stroke-width="3" stroke-linecap="round" stroke-linejoin="round" opacity="0.95">
    <title>3995 b:1</title>
  </polyline>
</svg>
