<?xml version="1.0" encoding="UTF-8"?>
<svg xmlns="http://www.w3.org/2000/svg" width="87" height="37" viewBox="0 0 87 37">
  <title>atom 4000 b:1</title>
  <metadata>{&quot;entityType&quot;:&quot;atom&quot;,&quot;entityId&quot;:&quot;4000&quot;,&quot;token&quot;:&quot;b:1&quot;,&quot;signature&quot;:&quot;b:1&quot;,&quot;imageName&quot;:&quot;page-003.jpg&quot;,&quot;imageId&quot;:3,&quot;bounds&quot;:{&quot;x&quot;:2055,&quot;y&quot;:2696,&quot;w&quot;:87,&quot;h&quot;:37},&quot;atoms&quot;:[{&quot;id&quot;:4000,&quot;token&quot;:&quot;b:1&quot;,&quot;particle_id&quot;:&quot;img3-m169-p1&quot;,&quot;molecule_id&quot;:&quot;img3-m169&quot;,&quot;atom_order&quot;:4}]}</metadata>
  <rect x="0" y="0" width="87" height="37" fill="#f8f0d8"/>
  <image href="file:///C:/Users/HHHES/AppData/Roaming/com.voynichlab.datasetcreator/images/1/35a70f63-88ab-4986-b441-b78046a10087.jpg" x="-2055" y="-2696" width="2972" height="3766" opacity="0.92"/>
  <rect x="0.5" y="0.5" width="86" height="36" fill="none" stroke="#111827" stroke-width="1" opacity="0.35"/>
  <polyline points="16,18 17,18 17,19 18,19 18,20 19,20 20,20 21,20 22,21 23,21 24,21 25,21 26,21 27,21 28,21 29,21 30,21 31,21 32,21 33,21 34,21 35,21 36,21 37,21 38,21 40,21 41,21 42,21 43,21 45,21 46,21 47,21 49,21 50,21 51,21 52,21 53,20 54,20 55,20 56,20 57,20 58,20 59,20 60,20 61,20 62,20 62,19 63,19 64,19 65,19 65,18 66,18 67,18 68,17 69,17 70,17 70,16 71,16 70,16" fill="none" stroke="#2f7df6" stroke-width="3" stroke-linecap="round" stroke-linejoin="round" opacity="0.95">
    <title>4000 b:1</title>
  </polyline>
</svg>
