<?xml version="1.0" encoding="UTF-8"?>
<svg xmlns="http://www.w3.org/2000/svg" width="64" height="48" viewBox="0 0 64 48">
  <title>atom 4064 b:1</title>
  <metadata>{&quot;entityType&quot;:&quot;atom&quot;,&quot;entityId&quot;:&quot;4064&quot;,&quot;token&quot;:&quot;b:1&quot;,&quot;signature&quot;:&quot;b:1&quot;,&quot;imageName&quot;:&quot;page-003.jpg&quot;,&quot;imageId&quot;:3,&quot;bounds&quot;:{&quot;x&quot;:956,&quot;y&quot;:2722,&quot;w&quot;:64,&quot;h&quot;:48},&quot;atoms&quot;:[{&quot;id&quot;:4064,&quot;token&quot;:&quot;b:1&quot;,&quot;particle_id&quot;:&quot;img3-m180-p2&quot;,&quot;molecule_id&quot;:&quot;img3-m180&quot;,&quot;atom_order&quot;:2}]}</metadata>
  <rect x="0" y="0" width="64" height="48" fill="#f8f0d8"/>
  <image href="file:///C:/Users/HHHES/AppData/Roaming/com.voynichlab.datasetcreator/images/1/35a70f63-88ab-4986-b441-b78046a10087.jpg" x="-956" y="-2722" width="2972" height="3766" opacity="0.92"/>
  <rect x="0.5" y="0.5" width="63" height="47" fill="none" stroke="#111827" stroke-width="1" opacity="0.35"/>
  <polyline points="16,16 16,17 16,18 16,19 16,20 16,21 17,21 17,22 18,23 18,24 18,25 19,25 20,26 21,27 22,28 23,28 24,29 25,29 26,29 27,30 28,30 29,30 30,31 31,31 32,31 33,31 34,32 35,32 37,32 38,32 39,32 40,32 41,32 42,32 43,32 44,32 45,32 46,32 47,32 48,32 48,31" fill="none" stroke="#2f7df6" stroke-width="3" stroke-linecap="round" stroke-linejoin="round" opacity="0.95">
    <title>4064 b:1</title>
  </polyline>
</svg>
