<?xml version="1.0" encoding="UTF-8"?>
<svg xmlns="http://www.w3.org/2000/svg" width="78" height="43" viewBox="0 0 78 43">
  <title>atom 4066 b:1</title>
  <metadata>{&quot;entityType&quot;:&quot;atom&quot;,&quot;entityId&quot;:&quot;4066&quot;,&quot;token&quot;:&quot;b:1&quot;,&quot;signature&quot;:&quot;b:1&quot;,&quot;imageName&quot;:&quot;page-003.jpg&quot;,&quot;imageId&quot;:3,&quot;bounds&quot;:{&quot;x&quot;:1466,&quot;y&quot;:2749,&quot;w&quot;:78,&quot;h&quot;:43},&quot;atoms&quot;:[{&quot;id&quot;:4066,&quot;token&quot;:&quot;b:1&quot;,&quot;particle_id&quot;:&quot;img3-m175-p1&quot;,&quot;molecule_id&quot;:&quot;img3-m175&quot;,&quot;atom_order&quot;:2}]}</metadata>
  <rect x="0" y="0" width="78" height="43" fill="#f8f0d8"/>
  <image href="file:///C:/Users/HHHES/AppData/Roaming/com.voynichlab.datasetcreator/images/1/35a70f63-88ab-4986-b441-b78046a10087.jpg" x="-1466" y="-2749" width="2972" height="3766" opacity="0.92"/>
  <rect x="0.5" y="0.5" width="77" height="42" fill="none" stroke="#111827" stroke-width="1" opacity="0.35"/>
  <polyline points="17,16 16,16 16,17 17,17 17,18 17,19 18,20 19,21 20,22 21,22 21,23 22,24 24,24 25,25 26,25 27,25 28,26 30,26 31,26 32,26 33,26 34,26 35,26 36,26 38,26 39,27 40,27 42,27 43,27 45,27 46,27 47,27 48,27 49,27 50,27 51,26 52,26 53,26 54,26 54,25 55,25 56,24 57,24 57,23 58,22 59,22 60,21 60,20 61,20 61,19 62,19" fill="none" stroke="#2f7df6" stroke-width="3" stroke-linecap="round" stroke-linejoin="round" opacity="0.95">
    <title>4066 b:1</title>
  </polyline>
</svg>
