<?xml version="1.0" encoding="UTF-8"?>
<svg xmlns="http://www.w3.org/2000/svg" width="72" height="45" viewBox="0 0 72 45">
  <title>atom 4067 b:1</title>
  <metadata>{&quot;entityType&quot;:&quot;atom&quot;,&quot;entityId&quot;:&quot;4067&quot;,&quot;token&quot;:&quot;b:1&quot;,&quot;signature&quot;:&quot;b:1&quot;,&quot;imageName&quot;:&quot;page-003.jpg&quot;,&quot;imageId&quot;:3,&quot;bounds&quot;:{&quot;x&quot;:1556,&quot;y&quot;:2756,&quot;w&quot;:72,&quot;h&quot;:45},&quot;atoms&quot;:[{&quot;id&quot;:4067,&quot;token&quot;:&quot;b:1&quot;,&quot;particle_id&quot;:&quot;img3-m174-p3&quot;,&quot;molecule_id&quot;:&quot;img3-m174&quot;,&quot;atom_order&quot;:2}]}</metadata>
  <rect x="0" y="0" width="72" height="45" fill="#f8f0d8"/>
  <image href="file:///C:/Users/HHHES/AppData/Roaming/com.voynichlab.datasetcreator/images/1/35a70f63-88ab-4986-b441-b78046a10087.jpg" x="-1556" y="-2756" width="2972" height="3766" opacity="0.92"/>
  <rect x="0.5" y="0.5" width="71" height="44" fill="none" stroke="#111827" stroke-width="1" opacity="0.35"/>
  <polyline points="16,16 16,17 17,17 17,18 17,19 18,19 18,20 19,20 20,21 21,22 22,22 23,23 24,23 25,24 26,24 27,25 29,26 30,26 31,26 32,27 33,27 34,28 35,28 36,28 37,28 39,29 40,29 41,29 42,29 44,29 45,29 47,29 49,29 50,29 51,29 52,29 53,28 54,28 55,27 56,26" fill="none" stroke="#2f7df6" stroke-width="3" stroke-linecap="round" stroke-linejoin="round" opacity="0.95">
    <title>4067 b:1</title>
  </polyline>
</svg>
