<?xml version="1.0" encoding="UTF-8"?>
<svg xmlns="http://www.w3.org/2000/svg" width="65" height="41" viewBox="0 0 65 41">
  <title>atom 4068 b:1</title>
  <metadata>{&quot;entityType&quot;:&quot;atom&quot;,&quot;entityId&quot;:&quot;4068&quot;,&quot;token&quot;:&quot;b:1&quot;,&quot;signature&quot;:&quot;b:1&quot;,&quot;imageName&quot;:&quot;page-003.jpg&quot;,&quot;imageId&quot;:3,&quot;bounds&quot;:{&quot;x&quot;:1983,&quot;y&quot;:2774,&quot;w&quot;:65,&quot;h&quot;:41},&quot;atoms&quot;:[{&quot;id&quot;:4068,&quot;token&quot;:&quot;b:1&quot;,&quot;particle_id&quot;:&quot;img3-m178-p1&quot;,&quot;molecule_id&quot;:&quot;img3-m178&quot;,&quot;atom_order&quot;:2}]}</metadata>
  <rect x="0" y="0" width="65" height="41" fill="#f8f0d8"/>
  <image href="file:///C:/Users/HHHES/AppData/Roaming/com.voynichlab.datasetcreator/images/1/35a70f63-88ab-4986-b441-b78046a10087.jpg" x="-1983" y="-2774" width="2972" height="3766" opacity="0.92"/>
  <rect x="0.5" y="0.5" width="64" height="40" fill="none" stroke="#111827" stroke-width="1" opacity="0.35"/>
  <polyline points="16,16 16,17 16,18 16,19 17,20 18,21 19,21 20,21 21,22 22,22 23,22 23,23 24,23 25,23 26,23 27,24 28,24 29,24 30,24 31,24 32,25 33,25 34,25 35,25 36,25 37,25 38,25 39,25 40,24 41,24 42,24 43,23 44,23 45,23 46,23 47,22 48,22 49,22 49,21" fill="none" stroke="#2f7df6" stroke-width="3" stroke-linecap="round" stroke-linejoin="round" opacity="0.95">
    <title>4068 b:1</title>
  </polyline>
</svg>
