<?xml version="1.0" encoding="UTF-8"?>
<svg xmlns="http://www.w3.org/2000/svg" width="79" height="38" viewBox="0 0 79 38">
  <title>atom 4095 b:1</title>
  <metadata>{&quot;entityType&quot;:&quot;atom&quot;,&quot;entityId&quot;:&quot;4095&quot;,&quot;token&quot;:&quot;b:1&quot;,&quot;signature&quot;:&quot;b:1&quot;,&quot;imageName&quot;:&quot;page-003.jpg&quot;,&quot;imageId&quot;:3,&quot;bounds&quot;:{&quot;x&quot;:2133,&quot;y&quot;:2877,&quot;w&quot;:79,&quot;h&quot;:38},&quot;atoms&quot;:[{&quot;id&quot;:4095,&quot;token&quot;:&quot;b:1&quot;,&quot;particle_id&quot;:&quot;img3-m191-p3&quot;,&quot;molecule_id&quot;:&quot;img3-m191&quot;,&quot;atom_order&quot;:3}]}</metadata>
  <rect x="0" y="0" width="79" height="38" fill="#f8f0d8"/>
  <image href="file:///C:/Users/HHHES/AppData/Roaming/com.voynichlab.datasetcreator/images/1/35a70f63-88ab-4986-b441-b78046a10087.jpg" x="-2133" y="-2877" width="2972" height="3766" opacity="0.92"/>
  <rect x="0.5" y="0.5" width="78" height="37" fill="none" stroke="#111827" stroke-width="1" opacity="0.35"/>
  <polyline points="16,18 17,18 17,19 18,19 19,19 19,20 20,20 21,20 22,20 23,21 24,21 25,21 26,21 27,21 28,21 29,21 30,21 31,21 32,21 33,21 34,21 34,22 35,22 36,22 37,22 38,22 39,22 40,22 41,22 42,22 43,22 44,22 45,22 46,21 47,21 48,21 49,21 50,21 50,20 51,20 52,20 53,20 54,20 54,19 55,19 56,19 57,18 58,18 59,18 59,17 60,17 61,17 61,16 62,16 63,16" fill="none" stroke="#2f7df6" stroke-width="3" stroke-linecap="round" stroke-linejoin="round" opacity="0.95">
    <title>4095 b:1</title>
  </polyline>
</svg>
