<?xml version="1.0" encoding="UTF-8"?>
<svg xmlns="http://www.w3.org/2000/svg" width="62" height="44" viewBox="0 0 62 44">
  <title>atom 4212 b:1</title>
  <metadata>{&quot;entityType&quot;:&quot;atom&quot;,&quot;entityId&quot;:&quot;4212&quot;,&quot;token&quot;:&quot;b:1&quot;,&quot;signature&quot;:&quot;b:1&quot;,&quot;imageName&quot;:&quot;page-003.jpg&quot;,&quot;imageId&quot;:3,&quot;bounds&quot;:{&quot;x&quot;:943,&quot;y&quot;:2811,&quot;w&quot;:62,&quot;h&quot;:44},&quot;atoms&quot;:[{&quot;id&quot;:4212,&quot;token&quot;:&quot;b:1&quot;,&quot;particle_id&quot;:&quot;img3-m181-p1&quot;,&quot;molecule_id&quot;:&quot;img3-m181&quot;,&quot;atom_order&quot;:2}]}</metadata>
  <rect x="0" y="0" width="62" height="44" fill="#f8f0d8"/>
  <image href="file:///C:/Users/HHHES/AppData/Roaming/com.voynichlab.datasetcreator/images/1/35a70f63-88ab-4986-b441-b78046a10087.jpg" x="-943" y="-2811" width="2972" height="3766" opacity="0.92"/>
  <rect x="0.5" y="0.5" width="61" height="43" fill="none" stroke="#111827" stroke-width="1" opacity="0.35"/>
  <polyline points="16,16 16,17 16,18 16,19 17,19 17,20 17,21 18,22 18,23 19,23 19,24 20,25 21,25 21,26 22,26 23,26 23,27 24,27 25,27 26,27 27,28 28,28 29,28 30,28 31,28 32,28 33,28 34,28 35,28 36,28 37,28 38,28 39,28 40,28 41,28 42,28 43,27 44,27 44,26 45,26 46,26" fill="none" stroke="#2f7df6" stroke-width="3" stroke-linecap="round" stroke-linejoin="round" opacity="0.95">
    <title>4212 b:1</title>
  </polyline>
</svg>
