<?xml version="1.0" encoding="UTF-8"?>
<svg xmlns="http://www.w3.org/2000/svg" width="73" height="45" viewBox="0 0 73 45">
  <title>atom 4214 b:1</title>
  <metadata>{&quot;entityType&quot;:&quot;atom&quot;,&quot;entityId&quot;:&quot;4214&quot;,&quot;token&quot;:&quot;b:1&quot;,&quot;signature&quot;:&quot;b:1&quot;,&quot;imageName&quot;:&quot;page-003.jpg&quot;,&quot;imageId&quot;:3,&quot;bounds&quot;:{&quot;x&quot;:1614,&quot;y&quot;:2847,&quot;w&quot;:73,&quot;h&quot;:45},&quot;atoms&quot;:[{&quot;id&quot;:4214,&quot;token&quot;:&quot;b:1&quot;,&quot;particle_id&quot;:&quot;img3-m186-p1&quot;,&quot;molecule_id&quot;:&quot;img3-m186&quot;,&quot;atom_order&quot;:2}]}</metadata>
  <rect x="0" y="0" width="73" height="45" fill="#f8f0d8"/>
  <image href="file:///C:/Users/HHHES/AppData/Roaming/com.voynichlab.datasetcreator/images/1/35a70f63-88ab-4986-b441-b78046a10087.jpg" x="-1614" y="-2847" width="2972" height="3766" opacity="0.92"/>
  <rect x="0.5" y="0.5" width="72" height="44" fill="none" stroke="#111827" stroke-width="1" opacity="0.35"/>
  <polyline points="16,16 16,17 17,17 17,18 18,18 18,19 19,19 19,20 20,20 20,21 20,22 21,23 21,24 22,24 22,25 23,25 24,26 26,27 27,27 29,28 30,28 32,29 33,29 34,29 36,29 37,29 39,29 40,29 41,29 43,29 44,29 45,29 46,29 48,29 50,29 51,29 52,29 52,28 53,28 54,28 55,28 56,28 56,27 57,27" fill="none" stroke="#2f7df6" stroke-width="3" stroke-linecap="round" stroke-linejoin="round" opacity="0.95">
    <title>4214 b:1</title>
  </polyline>
</svg>
