<?xml version="1.0" encoding="UTF-8"?>
<svg xmlns="http://www.w3.org/2000/svg" width="62" height="47" viewBox="0 0 62 47">
  <title>atom 4215 b:1</title>
  <metadata>{&quot;entityType&quot;:&quot;atom&quot;,&quot;entityId&quot;:&quot;4215&quot;,&quot;token&quot;:&quot;b:1&quot;,&quot;signature&quot;:&quot;b:1&quot;,&quot;imageName&quot;:&quot;page-003.jpg&quot;,&quot;imageId&quot;:3,&quot;bounds&quot;:{&quot;x&quot;:1777,&quot;y&quot;:2862,&quot;w&quot;:62,&quot;h&quot;:47},&quot;atoms&quot;:[{&quot;id&quot;:4215,&quot;token&quot;:&quot;b:1&quot;,&quot;particle_id&quot;:&quot;img3-m187-p1&quot;,&quot;molecule_id&quot;:&quot;img3-m187&quot;,&quot;atom_order&quot;:2}]}</metadata>
  <rect x="0" y="0" width="62" height="47" fill="#f8f0d8"/>
  <image href="file:///C:/Users/HHHES/AppData/Roaming/com.voynichlab.datasetcreator/images/1/35a70f63-88ab-4986-b441-b78046a10087.jpg" x="-1777" y="-2862" width="2972" height="3766" opacity="0.92"/>
  <rect x="0.5" y="0.5" width="61" height="46" fill="none" stroke="#111827" stroke-width="1" opacity="0.35"/>
  <polyline points="16,16 16,17 17,17 17,18 17,19 18,19 18,20 19,21 19,22 20,23 21,23 21,24 22,25 23,25 24,26 25,26 26,27 27,27 28,27 30,28 31,28 32,28 33,29 34,29 35,30 36,30 37,30 38,30 38,31 39,31 40,31 41,31 42,31 43,31 44,31 45,30 46,30" fill="none" stroke="#2f7df6" stroke-width="3" stroke-linecap="round" stroke-linejoin="round" opacity="0.95">
    <title>4215 b:1</title>
  </polyline>
</svg>
