<?xml version="1.0" encoding="UTF-8"?>
<svg xmlns="http://www.w3.org/2000/svg" width="48" height="39" viewBox="0 0 48 39">
  <title>atom 5495 b:1</title>
  <metadata>{&quot;entityType&quot;:&quot;atom&quot;,&quot;entityId&quot;:&quot;5495&quot;,&quot;token&quot;:&quot;b:1&quot;,&quot;signature&quot;:&quot;b:1&quot;,&quot;imageName&quot;:&quot;page-003.jpg&quot;,&quot;imageId&quot;:3,&quot;bounds&quot;:{&quot;x&quot;:982,&quot;y&quot;:1212,&quot;w&quot;:48,&quot;h&quot;:39},&quot;atoms&quot;:[{&quot;id&quot;:5495,&quot;token&quot;:&quot;b:1&quot;,&quot;particle_id&quot;:&quot;img3-m59-p1&quot;,&quot;molecule_id&quot;:&quot;img3-m59&quot;,&quot;atom_order&quot;:6}]}</metadata>
  <rect x="0" y="0" width="48" height="39" fill="#f8f0d8"/>
  <image href="file:///C:/Users/HHHES/AppData/Roaming/com.voynichlab.datasetcreator/images/1/35a70f63-88ab-4986-b441-b78046a10087.jpg" x="-982" y="-1212" width="2972" height="3766" opacity="0.92"/>
  <rect x="0.5" y="0.5" width="47" height="38" fill="none" stroke="#111827" stroke-width="1" opacity="0.35"/>
  <polyline points="16,16 17,17 17,18 18,18 19,18 19,19 20,19 21,20 22,20 22,21 23,21 24,21 25,21 25,22 26,22 27,22 27,23 28,23 29,23 30,23 31,22 32,21 32,20 32,19 32,18" fill="none" stroke="#2f7df6" stroke-width="3" stroke-linecap="round" stroke-linejoin="round" opacity="0.95">
    <title>5495 b:1</title>
  </polyline>
</svg>
