<?xml version="1.0" encoding="UTF-8"?>
<svg xmlns="http://www.w3.org/2000/svg" width="74" height="36" viewBox="0 0 74 36">
  <title>atom 5513 b:1</title>
  <metadata>{&quot;entityType&quot;:&quot;atom&quot;,&quot;entityId&quot;:&quot;5513&quot;,&quot;token&quot;:&quot;b:1&quot;,&quot;signature&quot;:&quot;b:1&quot;,&quot;imageName&quot;:&quot;page-003.jpg&quot;,&quot;imageId&quot;:3,&quot;bounds&quot;:{&quot;x&quot;:1729,&quot;y&quot;:2145,&quot;w&quot;:74,&quot;h&quot;:36},&quot;atoms&quot;:[{&quot;id&quot;:5513,&quot;token&quot;:&quot;b:1&quot;,&quot;particle_id&quot;:&quot;img3-m136-p5&quot;,&quot;molecule_id&quot;:&quot;img3-m136&quot;,&quot;atom_order&quot;:3}]}</metadata>
  <rect x="0" y="0" width="74" height="36" fill="#f8f0d8"/>
  <image href="file:///C:/Users/HHHES/AppData/Roaming/com.voynichlab.datasetcreator/images/1/35a70f63-88ab-4986-b441-b78046a10087.jpg" x="-1729" y="-2145" width="2972" height="3766" opacity="0.92"/>
  <rect x="0.5" y="0.5" width="73" height="35" fill="none" stroke="#111827" stroke-width="1" opacity="0.35"/>
  <polyline points="16,16 17,16 17,17 18,17 19,17 19,18 20,18 21,18 22,18 23,18 24,19 25,19 26,19 27,19 28,19 29,19 30,19 31,19 32,19 33,19 34,19 35,19 36,20 37,20 38,20 39,20 40,20 41,20 42,20 43,20 44,20 45,20 46,20 47,20 48,20 49,20 50,20 51,20 52,19 53,19 54,19 55,19 55,18 56,18 57,18 57,17 58,17" fill="none" stroke="#2f7df6" stroke-width="3" stroke-linecap="round" stroke-linejoin="round" opacity="0.95">
    <title>5513 b:1</title>
  </polyline>
</svg>
