<?xml version="1.0" encoding="UTF-8"?>
<svg xmlns="http://www.w3.org/2000/svg" width="331" height="67" viewBox="0 0 331 67">
  <title>atom 5517 b:1</title>
  <metadata>{&quot;entityType&quot;:&quot;atom&quot;,&quot;entityId&quot;:&quot;5517&quot;,&quot;token&quot;:&quot;b:1&quot;,&quot;signature&quot;:&quot;b:1&quot;,&quot;imageName&quot;:&quot;page-003.jpg&quot;,&quot;imageId&quot;:3,&quot;bounds&quot;:{&quot;x&quot;:555,&quot;y&quot;:2350,&quot;w&quot;:331,&quot;h&quot;:67},&quot;atoms&quot;:[{&quot;id&quot;:5517,&quot;token&quot;:&quot;b:1&quot;,&quot;particle_id&quot;:&quot;img3-m147-p1&quot;,&quot;molecule_id&quot;:&quot;img3-m147&quot;,&quot;atom_order&quot;:7}]}</metadata>
  <rect x="0" y="0" width="331" height="67" fill="#f8f0d8"/>
  <image href="file:///C:/Users/HHHES/AppData/Roaming/com.voynichlab.datasetcreator/images/1/35a70f63-88ab-4986-b441-b78046a10087.jpg" x="-555" y="-2350" width="2972" height="3766" opacity="0.92"/>
  <rect x="0.5" y="0.5" width="330" height="66" fill="none" stroke="#111827" stroke-width="1" opacity="0.35"/>
  <polyline points="16,16 16,17 17,17 18,17 19,17 20,18 21,18 22,19 23,19 24,19 25,20 27,20 28,20 29,20 31,21 32,21 33,21 34,22 35,22 36,22 38,23 39,23 40,23 41,23 42,23 43,23 44,24 45,24 46,25 47,25 48,25 49,25 50,26 51,26 52,26 53,26 54,27 55,27 56,27 57,27 58,27 59,27 60,27 61,28 62,28 64,28 65,28 66,28 68,29 69,29 70,30 71,30 72,30 73,30 74,30 75,30 77,30 78,30 80,31 81,31 84,31 85,31 86,32 88,32 89,32 90,32 91,32 93,32 95,33 96,33 98,33 102,33 104,34 106,34 107,34 108,34 109,34 110,34 112,35 113,35 114,35 117,36 118,36 119,36 120,36 122,36 124,36 126,36 127,36 128,36 129,36 130,37 131,37 133,37 134,37 135,37 137,37 140,38 142,38 144,38 145,38 146,39 147,39 148,39 150,39 153,39 155,39 157,40 160,40 162,40 163,40 164,40 165,40 166,40 167,40 168,41 170,41 173,41 175,41 177,42 179,42 181,42 183,42 185,42 187,42 189,43 191,43 192,43 193,43 195,43 196,43 197,43 198,43 199,44 200,44 201,44 202,44 203,44 204,44 204,45 206,45 207,45 208,45 210,46 212,46 213,46 214,46 215,46 217,46 218,46 220,46 221,46 223,46 224,46 224,47 226,47 228,47 230,47 232,48 233,48 235,48 236,48 237,48 238,48 239,48 240,48 241,48 242,48 244,48 245,48 246,48 247,48 247,49 248,49 249,49 250,49 251,49 252,49 253,49 254,49 256,50 257,50 258,50 260,50 261,50 262,50 263,50 264,50 265,50 266,50 267,50 269,50 271,50 274,51 277,51 280,51 282,51 283,51 284,51 285,51 286,51 288,51 290,51 292,51 293,51 295,51 296,51 297,51 298,51 299,51 300,51 301,51 302,51 303,51 303,50 304,50 305,50 306,50 307,50 308,49 309,49 310,49 311,48 312,48 313,48 314,48 315,47" fill="none" stroke="#2f7df6" stroke-width="3" stroke-linecap="round" stroke-linejoin="round" opacity="0.95">
    <title>5517 b:1</title>
  </polyline>
</svg>
