<?xml version="1.0" encoding="UTF-8"?>
<svg xmlns="http://www.w3.org/2000/svg" width="313" height="66" viewBox="0 0 313 66">
  <title>atom 5518 b:1</title>
  <metadata>{&quot;entityType&quot;:&quot;atom&quot;,&quot;entityId&quot;:&quot;5518&quot;,&quot;token&quot;:&quot;b:1&quot;,&quot;signature&quot;:&quot;b:1&quot;,&quot;imageName&quot;:&quot;page-003.jpg&quot;,&quot;imageId&quot;:3,&quot;bounds&quot;:{&quot;x&quot;:560,&quot;y&quot;:2381,&quot;w&quot;:313,&quot;h&quot;:66},&quot;atoms&quot;:[{&quot;id&quot;:5518,&quot;token&quot;:&quot;b:1&quot;,&quot;particle_id&quot;:&quot;img3-m147-p1&quot;,&quot;molecule_id&quot;:&quot;img3-m147&quot;,&quot;atom_order&quot;:4}]}</metadata>
  <rect x="0" y="0" width="313" height="66" fill="#f8f0d8"/>
  <image href="file:///C:/Users/HHHES/AppData/Roaming/com.voynichlab.datasetcreator/images/1/35a70f63-88ab-4986-b441-b78046a10087.jpg" x="-560" y="-2381" width="2972" height="3766" opacity="0.92"/>
  <rect x="0.5" y="0.5" width="312" height="65" fill="none" stroke="#111827" stroke-width="1" opacity="0.35"/>
  <polyline points="16,16 17,16 18,17 19,17 20,17 21,17 22,17 23,17 24,17 25,18 26,18 27,18 29,18 30,18 32,18 33,18 34,18 35,18 36,18 37,19 38,19 39,19 41,19 42,19 43,19 45,19 46,19 47,19 48,19 49,19 50,19 51,20 52,20 53,20 54,20 55,20 57,20 58,20 58,21 59,21 60,21 61,21 62,21 63,21 63,22 64,22 65,22 66,22 67,22 68,22 69,23 70,23 71,23 72,23 73,23 75,23 76,24 77,24 78,24 79,24 80,24 81,24 82,25 83,25 84,25 85,25 86,25 88,25 89,26 90,26 91,26 92,26 93,27 94,27 95,27 96,27 97,27 99,28 100,28 102,28 103,29 104,29 105,29 106,29 107,30 108,30 109,30 111,30 112,31 113,31 116,31 117,31 119,31 119,32 120,32 122,32 123,32 125,32 126,32 127,32 129,33 130,33 131,33 132,33 133,33 134,33 136,33 137,34 139,34 140,34 141,34 143,34 144,34 145,34 146,34 147,34 148,35 149,35 150,35 152,35 153,35 155,36 156,36 157,36 159,36 160,36 161,36 162,37 164,37 165,37 166,37 167,37 168,38 169,38 170,38 171,38 172,38 173,38 175,39 176,39 178,39 179,40 180,41 182,41 184,41 186,41 187,42 188,42 189,42 190,42 192,42 194,43 196,43 198,44 200,44 201,44 203,44 204,45 205,45 207,45 208,45 209,45 210,46 211,46 213,47 214,47 215,47 217,48 219,48 221,48 223,48 224,48 225,48 226,49 227,49 229,49 231,49 232,49 235,50 238,50 241,50 243,50 245,50 246,50 247,50 249,50 251,50 253,50 254,50 256,50 257,50 258,50 260,50 261,50 262,50 263,50 264,50 265,50 266,50 267,50 268,50 269,50 270,50 271,49 272,49 273,49 274,49 274,48 275,48 276,48 277,48 278,47 279,47 280,47 280,46 281,46 282,46 283,45 284,45 285,44 286,44 286,43 287,43 288,43 288,42 289,42 290,42 291,42 291,41 292,41 293,41 293,40 294,40 294,39 295,39 295,38 296,38 297,38 297,37" fill="none" stroke="#2f7df6" stroke-width="3" stroke-linecap="round" stroke-linejoin="round" opacity="0.95">
    <title>5518 b:1</title>
  </polyline>
</svg>
