<?xml version="1.0" encoding="UTF-8"?>
<svg xmlns="http://www.w3.org/2000/svg" width="50" height="56" viewBox="0 0 50 56">
  <title>atom 3687 n:1</title>
  <metadata>{&quot;entityType&quot;:&quot;atom&quot;,&quot;entityId&quot;:&quot;3687&quot;,&quot;token&quot;:&quot;n:1&quot;,&quot;signature&quot;:&quot;n:1&quot;,&quot;imageName&quot;:&quot;page-003.jpg&quot;,&quot;imageId&quot;:3,&quot;bounds&quot;:{&quot;x&quot;:577,&quot;y&quot;:1888,&quot;w&quot;:50,&quot;h&quot;:56},&quot;atoms&quot;:[{&quot;id&quot;:3687,&quot;token&quot;:&quot;n:1&quot;,&quot;particle_id&quot;:&quot;img3-m115-p1&quot;,&quot;molecule_id&quot;:&quot;img3-m115&quot;,&quot;atom_order&quot;:1}]}</metadata>
  <rect x="0" y="0" width="50" height="56" fill="#f8f0d8"/>
  
  <rect x="0.5" y="0.5" width="49" height="55" fill="none" stroke="#111827" stroke-width="1" opacity="0.35"/>
  <polyline points="16,35 16,34 16,33 16,32 16,31 16,30 17,29 17,28 17,27 17,26 18,25 19,24 20,23 21,22 22,21 23,20 24,19 25,19 26,18 27,18 27,17 28,17 29,16 30,16 31,16 32,16 33,16 33,17 33,18 34,19 34,20 34,21 34,22 34,23 34,24 34,25 34,26 33,26 33,27 33,28 32,29 32,30 32,31 31,32 31,33 30,33 30,34 30,35 29,35 29,36 29,37 28,37 27,38 27,39 26,39 26,40 25,40" fill="none" stroke="#f92f59" stroke-width="3" stroke-linecap="round" stroke-linejoin="round" opacity="0.95">
    <title>3687 n:1</title>
  </polyline>
</svg>
