<?xml version="1.0" encoding="UTF-8"?>
<svg xmlns="http://www.w3.org/2000/svg" width="50" height="53" viewBox="0 0 50 53">
  <title>atom 3701 n:1</title>
  <metadata>{&quot;entityType&quot;:&quot;atom&quot;,&quot;entityId&quot;:&quot;3701&quot;,&quot;token&quot;:&quot;n:1&quot;,&quot;signature&quot;:&quot;n:1&quot;,&quot;imageName&quot;:&quot;page-094.jpg&quot;,&quot;imageId&quot;:94,&quot;bounds&quot;:{&quot;x&quot;:862,&quot;y&quot;:696,&quot;w&quot;:50,&quot;h&quot;:53},&quot;atoms&quot;:[{&quot;id&quot;:3701,&quot;token&quot;:&quot;n:1&quot;,&quot;particle_id&quot;:&quot;img94-m18-p3&quot;,&quot;molecule_id&quot;:&quot;img94-m18&quot;,&quot;atom_order&quot;:1}]}</metadata>
  <rect x="0" y="0" width="50" height="53" fill="#f8f0d8"/>
  
  <rect x="0.5" y="0.5" width="49" height="52" fill="none" stroke="#111827" stroke-width="1" opacity="0.35"/>
  <polyline points="16,28 16,27 16,26 16,25 16,24 16,23 16,22 16,21 17,20 18,19 19,19 20,19 20,18 21,18 21,17 22,17 23,17 24,17 25,17 25,16 26,16 27,16 28,16 29,16 30,16 31,16 31,17 31,18 31,19 32,19 32,20 33,20 33,21 33,22 34,22 34,23 34,24 34,25 34,26 34,27 33,28 33,29 33,30 32,31 31,32 31,33 30,34 29,35 29,36 29,37 28,37" fill="none" stroke="#f92f59" stroke-width="3" stroke-linecap="round" stroke-linejoin="round" opacity="0.95">
    <title>3701 n:1</title>
  </polyline>
</svg>
