<?xml version="1.0" encoding="UTF-8"?>
<svg xmlns="http://www.w3.org/2000/svg" width="51" height="55" viewBox="0 0 51 55">
  <title>atom 5449 n:1</title>
  <metadata>{&quot;entityType&quot;:&quot;atom&quot;,&quot;entityId&quot;:&quot;5449&quot;,&quot;token&quot;:&quot;n:1&quot;,&quot;signature&quot;:&quot;n:1&quot;,&quot;imageName&quot;:&quot;page-004.jpg&quot;,&quot;imageId&quot;:4,&quot;bounds&quot;:{&quot;x&quot;:1099,&quot;y&quot;:2030,&quot;w&quot;:51,&quot;h&quot;:55},&quot;atoms&quot;:[{&quot;id&quot;:5449,&quot;token&quot;:&quot;n:1&quot;,&quot;particle_id&quot;:&quot;img4-m17-p1&quot;,&quot;molecule_id&quot;:&quot;img4-m17&quot;,&quot;atom_order&quot;:1}]}</metadata>
  <rect x="0" y="0" width="51" height="55" fill="#f8f0d8"/>
  
  <rect x="0.5" y="0.5" width="50" height="54" fill="none" stroke="#111827" stroke-width="1" opacity="0.35"/>
  <polyline points="16,29 17,28 18,28 18,27 19,27 19,26 20,26 20,25 21,25 21,24 22,23 23,23 23,22 24,21 25,20 26,19 27,18 28,17 29,16 30,16 31,16 32,16 33,16 33,17 34,18 34,19 34,20 35,22 35,23 35,24 35,25 35,26 35,27 34,28 34,29 33,30 32,31 31,32 30,33 29,33 28,34 27,35 25,36 24,37 23,38 22,38 22,39 21,39" fill="none" stroke="#f92f59" stroke-width="3" stroke-linecap="round" stroke-linejoin="round" opacity="0.95">
    <title>5449 n:1</title>
  </polyline>
</svg>
