<?xml version="1.0" encoding="UTF-8"?>
<svg xmlns="http://www.w3.org/2000/svg" width="35" height="133" viewBox="0 0 35 133">
  <title>atom 4654 a:1</title>
  <metadata>{&quot;entityType&quot;:&quot;atom&quot;,&quot;entityId&quot;:&quot;4654&quot;,&quot;token&quot;:&quot;a:1&quot;,&quot;signature&quot;:&quot;a:1&quot;,&quot;imageName&quot;:&quot;page-004.jpg&quot;,&quot;imageId&quot;:4,&quot;bounds&quot;:{&quot;x&quot;:579,&quot;y&quot;:1803,&quot;w&quot;:35,&quot;h&quot;:133},&quot;atoms&quot;:[{&quot;id&quot;:4654,&quot;token&quot;:&quot;a:1&quot;,&quot;particle_id&quot;:&quot;img4-m1-p1&quot;,&quot;molecule_id&quot;:&quot;img4-m1&quot;,&quot;atom_order&quot;:1}]}</metadata>
  <rect x="0" y="0" width="35" height="133" fill="#f8f0d8"/>
  <image href="file:///C:/Users/HHHES/AppData/Roaming/com.voynichlab.datasetcreator/images/1/aff30327-ced8-4ab4-8c9b-190205ebe022.jpg" x="-579" y="-1803" width="2804" height="3797" opacity="0.92"/>
  <rect x="0.5" y="0.5" width="34" height="132" fill="none" stroke="#111827" stroke-width="1" opacity="0.35"/>
  <polyline points="18,117 18,116 18,115 18,114 18,113 18,112 18,111 18,110 18,109 18,108 18,107 18,106 18,105 18,104 18,103 18,102 18,101 18,100 18,99 18,98 18,97 18,96 18,95 19,94 19,93 19,92 19,91 19,90 19,89 19,88 19,87 19,86 19,85 19,84 19,83 19,82 19,81 18,80 18,79 18,78 18,77 18,76 18,75 18,74 18,73 18,72 18,71 18,70 18,69 18,68 18,67 18,66 18,65 18,64 18,63 18,62 18,61 18,60 18,59 18,58 18,57 18,56 18,55 18,54 18,53 18,52 18,51 18,50 18,49 18,48 18,47 18,46 18,45 18,44 18,43 18,42 18,41 18,40 18,39 18,38 18,37 18,36 18,35 18,34 18,33 18,32 18,31 18,30 17,29 17,28 17,27 17,26 17,25 17,24 17,23 17,22 17,21 17,20 17,19 17,18 17,17 16,16" fill="none" stroke="#00f0b5" stroke-width="3" stroke-linecap="round" stroke-linejoin="round" opacity="0.95">
    <title>4654 a:1</title>
  </polyline>
</svg>
