<?xml version="1.0" encoding="UTF-8"?>
<svg xmlns="http://www.w3.org/2000/svg" width="47" height="139" viewBox="0 0 47 139">
  <title>atom 4656 a:1</title>
  <metadata>{&quot;entityType&quot;:&quot;atom&quot;,&quot;entityId&quot;:&quot;4656&quot;,&quot;token&quot;:&quot;a:1&quot;,&quot;signature&quot;:&quot;a:1&quot;,&quot;imageName&quot;:&quot;page-004.jpg&quot;,&quot;imageId&quot;:4,&quot;bounds&quot;:{&quot;x&quot;:1852,&quot;y&quot;:1876,&quot;w&quot;:47,&quot;h&quot;:139},&quot;atoms&quot;:[{&quot;id&quot;:4656,&quot;token&quot;:&quot;a:1&quot;,&quot;particle_id&quot;:&quot;img4-m5-p3&quot;,&quot;molecule_id&quot;:&quot;img4-m5&quot;,&quot;atom_order&quot;:1}]}</metadata>
  <rect x="0" y="0" width="47" height="139" fill="#f8f0d8"/>
  <image href="file:///C:/Users/HHHES/AppData/Roaming/com.voynichlab.datasetcreator/images/1/aff30327-ced8-4ab4-8c9b-190205ebe022.jpg" x="-1852" y="-1876" width="2804" height="3797" opacity="0.92"/>
  <rect x="0.5" y="0.5" width="46" height="138" fill="none" stroke="#111827" stroke-width="1" opacity="0.35"/>
  <polyline points="31,16 31,17 31,18 31,19 31,20 30,20 30,21 30,22 30,23 30,24 29,24 29,25 29,26 29,27 29,28 29,29 29,30 29,31 29,32 29,33 29,34 29,35 28,36 28,37 28,38 28,39 27,40 27,41 27,42 27,43 27,44 26,45 26,46 26,47 26,48 26,49 26,50 26,51 26,52 26,53 26,54 26,55 26,56 25,57 25,58 25,59 25,60 25,61 25,62 25,63 25,65 25,66 24,67 24,68 24,69 24,70 24,72 23,73 23,75 23,76 23,77 22,78 22,79 22,80 22,81 22,82 21,83 21,84 21,85 21,86 21,87 21,89 20,90 20,91 20,92 20,93 20,94 20,95 19,96 19,97 19,98 19,99 19,100 19,101 19,102 19,103 19,104 19,105 19,106 19,107 19,108 19,109 19,110 19,111 19,112 19,113 19,114 19,115 19,116 19,117 18,118 18,119 18,120 17,121 17,122 16,122 16,123" fill="none" stroke="#00f0b5" stroke-width="3" stroke-linecap="round" stroke-linejoin="round" opacity="0.95">
    <title>4656 a:1</title>
  </polyline>
</svg>
