<?xml version="1.0" encoding="UTF-8"?>
<svg xmlns="http://www.w3.org/2000/svg" width="53" height="128" viewBox="0 0 53 128">
  <title>atom 4657 a:1</title>
  <metadata>{&quot;entityType&quot;:&quot;atom&quot;,&quot;entityId&quot;:&quot;4657&quot;,&quot;token&quot;:&quot;a:1&quot;,&quot;signature&quot;:&quot;a:1&quot;,&quot;imageName&quot;:&quot;page-004.jpg&quot;,&quot;imageId&quot;:4,&quot;bounds&quot;:{&quot;x&quot;:1870,&quot;y&quot;:1885,&quot;w&quot;:53,&quot;h&quot;:128},&quot;atoms&quot;:[{&quot;id&quot;:4657,&quot;token&quot;:&quot;a:1&quot;,&quot;particle_id&quot;:&quot;img4-m5-p3&quot;,&quot;molecule_id&quot;:&quot;img4-m5&quot;,&quot;atom_order&quot;:5}]}</metadata>
  <rect x="0" y="0" width="53" height="128" fill="#f8f0d8"/>
  <image href="file:///C:/Users/HHHES/AppData/Roaming/com.voynichlab.datasetcreator/images/1/aff30327-ced8-4ab4-8c9b-190205ebe022.jpg" x="-1870" y="-1885" width="2804" height="3797" opacity="0.92"/>
  <rect x="0.5" y="0.5" width="52" height="127" fill="none" stroke="#111827" stroke-width="1" opacity="0.35"/>
  <polyline points="37,16 37,17 37,18 36,18 36,19 36,20 36,21 36,22 35,23 35,24 35,25 34,25 34,26 34,27 33,27 33,28 33,29 33,30 32,30 32,31 32,32 32,33 31,33 31,34 31,35 30,36 30,37 30,38 30,39 29,40 29,41 29,42 28,43 28,44 27,44 27,45 27,46 27,47 27,48 26,49 26,50 26,51 26,52 26,54 26,55 25,56 25,57 25,58 25,59 25,60 25,61 25,62 25,63 24,64 24,65 24,66 24,68 24,69 24,70 24,71 23,72 23,73 23,74 23,75 23,76 22,76 22,77 22,78 21,79 21,80 21,81 20,81 20,82 20,83 20,84 20,85 19,86 19,87 19,88 19,89 18,90 18,91 18,92 18,93 17,94 17,95 17,96 17,97 17,98 16,98 16,100 16,101 16,102 16,103 16,104 16,105 16,106 16,107 16,108 16,109 16,110 16,111 16,112" fill="none" stroke="#00f0b5" stroke-width="3" stroke-linecap="round" stroke-linejoin="round" opacity="0.95">
    <title>4657 a:1</title>
  </polyline>
</svg>
