<?xml version="1.0" encoding="UTF-8"?>
<svg xmlns="http://www.w3.org/2000/svg" width="40" height="82" viewBox="0 0 40 82">
  <title>atom 4664 a:1</title>
  <metadata>{&quot;entityType&quot;:&quot;atom&quot;,&quot;entityId&quot;:&quot;4664&quot;,&quot;token&quot;:&quot;a:1&quot;,&quot;signature&quot;:&quot;a:1&quot;,&quot;imageName&quot;:&quot;page-004.jpg&quot;,&quot;imageId&quot;:4,&quot;bounds&quot;:{&quot;x&quot;:2095,&quot;y&quot;:2020,&quot;w&quot;:40,&quot;h&quot;:82},&quot;atoms&quot;:[{&quot;id&quot;:4664,&quot;token&quot;:&quot;a:1&quot;,&quot;particle_id&quot;:&quot;img4-m16-p2&quot;,&quot;molecule_id&quot;:&quot;img4-m16&quot;,&quot;atom_order&quot;:1}]}</metadata>
  <rect x="0" y="0" width="40" height="82" fill="#f8f0d8"/>
  <image href="file:///C:/Users/HHHES/AppData/Roaming/com.voynichlab.datasetcreator/images/1/aff30327-ced8-4ab4-8c9b-190205ebe022.jpg" x="-2095" y="-2020" width="2804" height="3797" opacity="0.92"/>
  <rect x="0.5" y="0.5" width="39" height="81" fill="none" stroke="#111827" stroke-width="1" opacity="0.35"/>
  <polyline points="24,16 24,17 24,18 24,19 23,20 23,21 23,23 23,24 23,25 23,26 23,28 23,29 22,30 22,31 22,32 22,33 22,34 22,35 22,37 22,38 22,39 22,40 22,42 21,43 21,44 21,45 21,46 21,47 20,49 20,50 20,51 19,52 19,53 19,55 19,56 18,57 18,58 18,59 18,60 17,60 17,61 17,62 17,63 17,64 16,65 16,66" fill="none" stroke="#00f0b5" stroke-width="3" stroke-linecap="round" stroke-linejoin="round" opacity="0.95">
    <title>4664 a:1</title>
  </polyline>
</svg>
