<?xml version="1.0" encoding="UTF-8"?>
<svg xmlns="http://www.w3.org/2000/svg" width="43" height="79" viewBox="0 0 43 79">
  <title>atom 4665 a:1</title>
  <metadata>{&quot;entityType&quot;:&quot;atom&quot;,&quot;entityId&quot;:&quot;4665&quot;,&quot;token&quot;:&quot;a:1&quot;,&quot;signature&quot;:&quot;a:1&quot;,&quot;imageName&quot;:&quot;page-004.jpg&quot;,&quot;imageId&quot;:4,&quot;bounds&quot;:{&quot;x&quot;:2110,&quot;y&quot;:2023,&quot;w&quot;:43,&quot;h&quot;:79},&quot;atoms&quot;:[{&quot;id&quot;:4665,&quot;token&quot;:&quot;a:1&quot;,&quot;particle_id&quot;:&quot;img4-m16-p2&quot;,&quot;molecule_id&quot;:&quot;img4-m16&quot;,&quot;atom_order&quot;:4}]}</metadata>
  <rect x="0" y="0" width="43" height="79" fill="#f8f0d8"/>
  <image href="file:///C:/Users/HHHES/AppData/Roaming/com.voynichlab.datasetcreator/images/1/aff30327-ced8-4ab4-8c9b-190205ebe022.jpg" x="-2110" y="-2023" width="2804" height="3797" opacity="0.92"/>
  <rect x="0.5" y="0.5" width="42" height="78" fill="none" stroke="#111827" stroke-width="1" opacity="0.35"/>
  <polyline points="27,16 27,17 27,18 26,19 26,20 25,22 25,23 24,24 24,25 24,26 24,27 23,28 23,29 23,30 23,31 23,32 23,33 22,35 22,36 22,37 22,38 22,39 22,40 22,41 21,41 21,43 21,44 21,45 20,46 20,47 20,48 20,49 19,50 19,51 19,52 19,53 18,54 18,55 18,56 18,57 17,57 17,58 17,59 17,60 16,61 16,62 16,63" fill="none" stroke="#00f0b5" stroke-width="3" stroke-linecap="round" stroke-linejoin="round" opacity="0.95">
    <title>4665 a:1</title>
  </polyline>
</svg>
