<?xml version="1.0" encoding="UTF-8"?>
<svg xmlns="http://www.w3.org/2000/svg" width="35" height="81" viewBox="0 0 35 81">
  <title>atom 4668 a:1</title>
  <metadata>{&quot;entityType&quot;:&quot;atom&quot;,&quot;entityId&quot;:&quot;4668&quot;,&quot;token&quot;:&quot;a:1&quot;,&quot;signature&quot;:&quot;a:1&quot;,&quot;imageName&quot;:&quot;page-004.jpg&quot;,&quot;imageId&quot;:4,&quot;bounds&quot;:{&quot;x&quot;:808,&quot;y&quot;:2015,&quot;w&quot;:35,&quot;h&quot;:81},&quot;atoms&quot;:[{&quot;id&quot;:4668,&quot;token&quot;:&quot;a:1&quot;,&quot;particle_id&quot;:&quot;img4-m13-p1&quot;,&quot;molecule_id&quot;:&quot;img4-m13&quot;,&quot;atom_order&quot;:1}]}</metadata>
  <rect x="0" y="0" width="35" height="81" fill="#f8f0d8"/>
  <image href="file:///C:/Users/HHHES/AppData/Roaming/com.voynichlab.datasetcreator/images/1/aff30327-ced8-4ab4-8c9b-190205ebe022.jpg" x="-808" y="-2015" width="2804" height="3797" opacity="0.92"/>
  <rect x="0.5" y="0.5" width="34" height="80" fill="none" stroke="#111827" stroke-width="1" opacity="0.35"/>
  <polyline points="19,16 19,17 19,18 19,19 19,20 19,21 19,23 19,24 19,26 19,27 19,28 19,30 19,31 19,32 19,33 19,34 19,35 19,36 19,37 19,38 19,39 19,40 18,41 18,42 18,43 18,44 18,45 18,46 17,48 17,49 17,51 17,52 17,54 16,55 16,57 16,58 16,59 16,60 16,61 16,62 16,63 16,64 16,65 16,64 16,63" fill="none" stroke="#00f0b5" stroke-width="3" stroke-linecap="round" stroke-linejoin="round" opacity="0.95">
    <title>4668 a:1</title>
  </polyline>
</svg>
