<?xml version="1.0" encoding="UTF-8"?>
<svg xmlns="http://www.w3.org/2000/svg" width="38" height="86" viewBox="0 0 38 86">
  <title>atom 4671 a:1</title>
  <metadata>{&quot;entityType&quot;:&quot;atom&quot;,&quot;entityId&quot;:&quot;4671&quot;,&quot;token&quot;:&quot;a:1&quot;,&quot;signature&quot;:&quot;a:1&quot;,&quot;imageName&quot;:&quot;page-004.jpg&quot;,&quot;imageId&quot;:4,&quot;bounds&quot;:{&quot;x&quot;:945,&quot;y&quot;:2015,&quot;w&quot;:38,&quot;h&quot;:86},&quot;atoms&quot;:[{&quot;id&quot;:4671,&quot;token&quot;:&quot;a:1&quot;,&quot;particle_id&quot;:&quot;img4-m13-p3&quot;,&quot;molecule_id&quot;:&quot;img4-m13&quot;,&quot;atom_order&quot;:4}]}</metadata>
  <rect x="0" y="0" width="38" height="86" fill="#f8f0d8"/>
  <image href="file:///C:/Users/HHHES/AppData/Roaming/com.voynichlab.datasetcreator/images/1/aff30327-ced8-4ab4-8c9b-190205ebe022.jpg" x="-945" y="-2015" width="2804" height="3797" opacity="0.92"/>
  <rect x="0.5" y="0.5" width="37" height="85" fill="none" stroke="#111827" stroke-width="1" opacity="0.35"/>
  <polyline points="22,16 22,17 21,18 21,19 21,21 20,23 20,25 19,26 19,27 19,28 19,29 19,31 19,32 19,33 19,34 19,35 19,36 19,37 18,38 18,39 18,40 18,41 18,43 18,45 18,46 18,48 17,49 17,50 17,51 17,53 17,54 17,55 17,56 17,57 17,58 17,60 17,61 17,62 17,63 16,63 16,64 16,65 16,66 16,67 16,68 16,69 16,70" fill="none" stroke="#00f0b5" stroke-width="3" stroke-linecap="round" stroke-linejoin="round" opacity="0.95">
    <title>4671 a:1</title>
  </polyline>
</svg>
