<?xml version="1.0" encoding="UTF-8"?>
<svg xmlns="http://www.w3.org/2000/svg" width="44" height="104" viewBox="0 0 44 104">
  <title>atom 4672 a:1</title>
  <metadata>{&quot;entityType&quot;:&quot;atom&quot;,&quot;entityId&quot;:&quot;4672&quot;,&quot;token&quot;:&quot;a:1&quot;,&quot;signature&quot;:&quot;a:1&quot;,&quot;imageName&quot;:&quot;page-004.jpg&quot;,&quot;imageId&quot;:4,&quot;bounds&quot;:{&quot;x&quot;:1650,&quot;y&quot;:2054,&quot;w&quot;:44,&quot;h&quot;:104},&quot;atoms&quot;:[{&quot;id&quot;:4672,&quot;token&quot;:&quot;a:1&quot;,&quot;particle_id&quot;:&quot;img4-m21-p2&quot;,&quot;molecule_id&quot;:&quot;img4-m21&quot;,&quot;atom_order&quot;:1}]}</metadata>
  <rect x="0" y="0" width="44" height="104" fill="#f8f0d8"/>
  <image href="file:///C:/Users/HHHES/AppData/Roaming/com.voynichlab.datasetcreator/images/1/aff30327-ced8-4ab4-8c9b-190205ebe022.jpg" x="-1650" y="-2054" width="2804" height="3797" opacity="0.92"/>
  <rect x="0.5" y="0.5" width="43" height="103" fill="none" stroke="#111827" stroke-width="1" opacity="0.35"/>
  <polyline points="28,17 28,16 28,17 28,19 28,20 27,22 26,24 26,26 26,27 26,28 25,30 25,31 25,32 25,33 25,34 24,35 24,37 24,38 24,40 24,41 24,42 24,43 24,44 24,45 24,47 24,48 24,49 24,50 24,51 24,52 23,53 23,55 22,56 22,57 22,58 21,60 21,62 20,63 19,64 19,65 19,66 19,67 18,68 18,69 18,70 18,72 17,74 17,75 17,76 17,77 16,79 16,80 16,81 16,82 16,83 16,84 16,85 16,86 16,87 16,88" fill="none" stroke="#00f0b5" stroke-width="3" stroke-linecap="round" stroke-linejoin="round" opacity="0.95">
    <title>4672 a:1</title>
  </polyline>
</svg>
