<?xml version="1.0" encoding="UTF-8"?>
<svg xmlns="http://www.w3.org/2000/svg" width="43" height="97" viewBox="0 0 43 97">
  <title>atom 4673 a:1</title>
  <metadata>{&quot;entityType&quot;:&quot;atom&quot;,&quot;entityId&quot;:&quot;4673&quot;,&quot;token&quot;:&quot;a:1&quot;,&quot;signature&quot;:&quot;a:1&quot;,&quot;imageName&quot;:&quot;page-004.jpg&quot;,&quot;imageId&quot;:4,&quot;bounds&quot;:{&quot;x&quot;:1667,&quot;y&quot;:2065,&quot;w&quot;:43,&quot;h&quot;:97},&quot;atoms&quot;:[{&quot;id&quot;:4673,&quot;token&quot;:&quot;a:1&quot;,&quot;particle_id&quot;:&quot;img4-m21-p2&quot;,&quot;molecule_id&quot;:&quot;img4-m21&quot;,&quot;atom_order&quot;:4}]}</metadata>
  <rect x="0" y="0" width="43" height="97" fill="#f8f0d8"/>
  <image href="file:///C:/Users/HHHES/AppData/Roaming/com.voynichlab.datasetcreator/images/1/aff30327-ced8-4ab4-8c9b-190205ebe022.jpg" x="-1667" y="-2065" width="2804" height="3797" opacity="0.92"/>
  <rect x="0.5" y="0.5" width="42" height="96" fill="none" stroke="#111827" stroke-width="1" opacity="0.35"/>
  <polyline points="27,16 26,17 26,18 26,19 26,20 25,21 25,23 25,24 24,25 24,26 24,27 24,28 23,29 23,31 23,32 23,33 23,34 23,35 23,36 23,37 23,38 22,39 22,40 22,41 22,43 22,44 22,46 22,48 22,49 22,50 21,51 21,52 21,53 21,55 21,56 20,57 20,59 19,61 19,63 19,64 19,65 19,66 19,67 19,68 19,69 18,69 18,70 18,71 18,72 18,73 18,74 17,74 17,75 17,76 17,77 17,78 17,79 16,79 16,80 16,81" fill="none" stroke="#00f0b5" stroke-width="3" stroke-linecap="round" stroke-linejoin="round" opacity="0.95">
    <title>4673 a:1</title>
  </polyline>
</svg>
