<?xml version="1.0" encoding="UTF-8"?>
<svg xmlns="http://www.w3.org/2000/svg" width="38" height="83" viewBox="0 0 38 83">
  <title>atom 4675 a:1</title>
  <metadata>{&quot;entityType&quot;:&quot;atom&quot;,&quot;entityId&quot;:&quot;4675&quot;,&quot;token&quot;:&quot;a:1&quot;,&quot;signature&quot;:&quot;a:1&quot;,&quot;imageName&quot;:&quot;page-004.jpg&quot;,&quot;imageId&quot;:4,&quot;bounds&quot;:{&quot;x&quot;:1917,&quot;y&quot;:2086,&quot;w&quot;:38,&quot;h&quot;:83},&quot;atoms&quot;:[{&quot;id&quot;:4675,&quot;token&quot;:&quot;a:1&quot;,&quot;particle_id&quot;:&quot;img4-m19-p1&quot;,&quot;molecule_id&quot;:&quot;img4-m19&quot;,&quot;atom_order&quot;:5}]}</metadata>
  <rect x="0" y="0" width="38" height="83" fill="#f8f0d8"/>
  <image href="file:///C:/Users/HHHES/AppData/Roaming/com.voynichlab.datasetcreator/images/1/aff30327-ced8-4ab4-8c9b-190205ebe022.jpg" x="-1917" y="-2086" width="2804" height="3797" opacity="0.92"/>
  <rect x="0.5" y="0.5" width="37" height="82" fill="none" stroke="#111827" stroke-width="1" opacity="0.35"/>
  <polyline points="22,16 21,17 21,18 21,19 20,20 20,22 20,23 19,24 19,25 19,26 19,27 18,28 18,29 18,30 18,31 18,32 18,33 18,34 18,35 17,36 17,37 17,38 17,39 17,40 17,41 17,42 17,43 17,44 17,45 17,47 17,48 17,49 16,50 16,51 16,52 16,53 16,54 16,56 16,57 16,58 16,59 16,60 16,61 16,62 16,63 16,64 16,65 16,66 16,67" fill="none" stroke="#00f0b5" stroke-width="3" stroke-linecap="round" stroke-linejoin="round" opacity="0.95">
    <title>4675 a:1</title>
  </polyline>
</svg>
