<?xml version="1.0" encoding="UTF-8"?>
<svg xmlns="http://www.w3.org/2000/svg" width="45" height="94" viewBox="0 0 45 94">
  <title>atom 4676 a:1</title>
  <metadata>{&quot;entityType&quot;:&quot;atom&quot;,&quot;entityId&quot;:&quot;4676&quot;,&quot;token&quot;:&quot;a:1&quot;,&quot;signature&quot;:&quot;a:1&quot;,&quot;imageName&quot;:&quot;page-004.jpg&quot;,&quot;imageId&quot;:4,&quot;bounds&quot;:{&quot;x&quot;:2032,&quot;y&quot;:2087,&quot;w&quot;:45,&quot;h&quot;:94},&quot;atoms&quot;:[{&quot;id&quot;:4676,&quot;token&quot;:&quot;a:1&quot;,&quot;particle_id&quot;:&quot;img4-m20-p1&quot;,&quot;molecule_id&quot;:&quot;img4-m20&quot;,&quot;atom_order&quot;:1}]}</metadata>
  <rect x="0" y="0" width="45" height="94" fill="#f8f0d8"/>
  <image href="file:///C:/Users/HHHES/AppData/Roaming/com.voynichlab.datasetcreator/images/1/aff30327-ced8-4ab4-8c9b-190205ebe022.jpg" x="-2032" y="-2087" width="2804" height="3797" opacity="0.92"/>
  <rect x="0.5" y="0.5" width="44" height="93" fill="none" stroke="#111827" stroke-width="1" opacity="0.35"/>
  <polyline points="29,16 29,17 29,18 28,19 28,21 28,23 28,25 28,27 28,29 28,31 27,33 27,36 27,37 27,39 27,41 27,42 26,45 25,46 25,48 25,50 24,52 23,53 23,55 22,56 22,57 21,59 20,60 20,62 19,63 19,65 18,66 18,68 17,69 17,70 17,71 17,72 17,73 17,74 16,75 16,76 16,77 16,78 16,77" fill="none" stroke="#00f0b5" stroke-width="3" stroke-linecap="round" stroke-linejoin="round" opacity="0.95">
    <title>4676 a:1</title>
  </polyline>
</svg>
