<?xml version="1.0" encoding="UTF-8"?>
<svg xmlns="http://www.w3.org/2000/svg" width="36" height="61" viewBox="0 0 36 61">
  <title>atom 4678 a:1</title>
  <metadata>{&quot;entityType&quot;:&quot;atom&quot;,&quot;entityId&quot;:&quot;4678&quot;,&quot;token&quot;:&quot;a:1&quot;,&quot;signature&quot;:&quot;a:1&quot;,&quot;imageName&quot;:&quot;page-004.jpg&quot;,&quot;imageId&quot;:4,&quot;bounds&quot;:{&quot;x&quot;:2121,&quot;y&quot;:2127,&quot;w&quot;:36,&quot;h&quot;:61},&quot;atoms&quot;:[{&quot;id&quot;:4678,&quot;token&quot;:&quot;a:1&quot;,&quot;particle_id&quot;:&quot;img4-m20-p3&quot;,&quot;molecule_id&quot;:&quot;img4-m20&quot;,&quot;atom_order&quot;:1}]}</metadata>
  <rect x="0" y="0" width="36" height="61" fill="#f8f0d8"/>
  <image href="file:///C:/Users/HHHES/AppData/Roaming/com.voynichlab.datasetcreator/images/1/aff30327-ced8-4ab4-8c9b-190205ebe022.jpg" x="-2121" y="-2127" width="2804" height="3797" opacity="0.92"/>
  <rect x="0.5" y="0.5" width="35" height="60" fill="none" stroke="#111827" stroke-width="1" opacity="0.35"/>
  <polyline points="20,16 20,17 20,18 20,19 20,20 20,21 20,22 20,23 20,24 20,25 20,26 20,27 20,28 20,29 20,30 20,31 20,32 20,33 20,34 20,35 20,36 19,37 19,38 19,39 19,40 18,41 17,42 17,43 17,44 16,44 16,45" fill="none" stroke="#00f0b5" stroke-width="3" stroke-linecap="round" stroke-linejoin="round" opacity="0.95">
    <title>4678 a:1</title>
  </polyline>
</svg>
