<?xml version="1.0" encoding="UTF-8"?>
<svg xmlns="http://www.w3.org/2000/svg" width="49" height="89" viewBox="0 0 49 89">
  <title>atom 4679 a:1</title>
  <metadata>{&quot;entityType&quot;:&quot;atom&quot;,&quot;entityId&quot;:&quot;4679&quot;,&quot;token&quot;:&quot;a:1&quot;,&quot;signature&quot;:&quot;a:1&quot;,&quot;imageName&quot;:&quot;page-004.jpg&quot;,&quot;imageId&quot;:4,&quot;bounds&quot;:{&quot;x&quot;:2141,&quot;y&quot;:2103,&quot;w&quot;:49,&quot;h&quot;:89},&quot;atoms&quot;:[{&quot;id&quot;:4679,&quot;token&quot;:&quot;a:1&quot;,&quot;particle_id&quot;:&quot;img4-m20-p3&quot;,&quot;molecule_id&quot;:&quot;img4-m20&quot;,&quot;atom_order&quot;:4}]}</metadata>
  <rect x="0" y="0" width="49" height="89" fill="#f8f0d8"/>
  <image href="file:///C:/Users/HHHES/AppData/Roaming/com.voynichlab.datasetcreator/images/1/aff30327-ced8-4ab4-8c9b-190205ebe022.jpg" x="-2141" y="-2103" width="2804" height="3797" opacity="0.92"/>
  <rect x="0.5" y="0.5" width="48" height="88" fill="none" stroke="#111827" stroke-width="1" opacity="0.35"/>
  <polyline points="33,16 33,17 32,17 31,19 31,20 30,22 30,23 29,24 29,25 28,26 28,27 28,28 27,29 27,31 27,33 26,35 26,36 26,37 26,39 25,41 25,42 25,43 24,45 24,46 24,47 24,48 23,48 23,50 23,51 22,52 22,53 22,55 21,55 21,56 21,57 21,58 20,59 20,60 20,61 20,62 19,63 19,65 19,66 18,66 18,67 18,68 17,70 17,71 16,71 16,72 16,73" fill="none" stroke="#00f0b5" stroke-width="3" stroke-linecap="round" stroke-linejoin="round" opacity="0.95">
    <title>4679 a:1</title>
  </polyline>
</svg>
