<?xml version="1.0" encoding="UTF-8"?>
<svg xmlns="http://www.w3.org/2000/svg" width="37" height="81" viewBox="0 0 37 81">
  <title>atom 4682 a:1</title>
  <metadata>{&quot;entityType&quot;:&quot;atom&quot;,&quot;entityId&quot;:&quot;4682&quot;,&quot;token&quot;:&quot;a:1&quot;,&quot;signature&quot;:&quot;a:1&quot;,&quot;imageName&quot;:&quot;page-004.jpg&quot;,&quot;imageId&quot;:4,&quot;bounds&quot;:{&quot;x&quot;:1870,&quot;y&quot;:2153,&quot;w&quot;:37,&quot;h&quot;:81},&quot;atoms&quot;:[{&quot;id&quot;:4682,&quot;token&quot;:&quot;a:1&quot;,&quot;particle_id&quot;:&quot;img4-m29-p1&quot;,&quot;molecule_id&quot;:&quot;img4-m29&quot;,&quot;atom_order&quot;:1}]}</metadata>
  <rect x="0" y="0" width="37" height="81" fill="#f8f0d8"/>
  <image href="file:///C:/Users/HHHES/AppData/Roaming/com.voynichlab.datasetcreator/images/1/aff30327-ced8-4ab4-8c9b-190205ebe022.jpg" x="-1870" y="-2153" width="2804" height="3797" opacity="0.92"/>
  <rect x="0.5" y="0.5" width="36" height="80" fill="none" stroke="#111827" stroke-width="1" opacity="0.35"/>
  <polyline points="21,16 21,17 21,18 20,18 20,19 20,20 20,21 20,22 20,23 20,24 20,25 20,26 20,27 20,29 20,30 20,31 19,32 19,33 19,34 19,35 19,36 19,37 19,38 19,39 18,39 18,40 18,41 18,42 18,43 17,44 17,45 17,46 17,47 16,48 16,49 16,50 16,51 16,52 16,53 16,54 16,55 16,56 16,57 16,58 16,59 16,60 16,61 16,62 16,63 16,64 16,65" fill="none" stroke="#00f0b5" stroke-width="3" stroke-linecap="round" stroke-linejoin="round" opacity="0.95">
    <title>4682 a:1</title>
  </polyline>
</svg>
