<?xml version="1.0" encoding="UTF-8"?>
<svg xmlns="http://www.w3.org/2000/svg" width="36" height="183" viewBox="0 0 36 183">
  <title>atom 4684 a:1</title>
  <metadata>{&quot;entityType&quot;:&quot;atom&quot;,&quot;entityId&quot;:&quot;4684&quot;,&quot;token&quot;:&quot;a:1&quot;,&quot;signature&quot;:&quot;a:1&quot;,&quot;imageName&quot;:&quot;page-004.jpg&quot;,&quot;imageId&quot;:4,&quot;bounds&quot;:{&quot;x&quot;:554,&quot;y&quot;:2180,&quot;w&quot;:36,&quot;h&quot;:183},&quot;atoms&quot;:[{&quot;id&quot;:4684,&quot;token&quot;:&quot;a:1&quot;,&quot;particle_id&quot;:&quot;img4-m30-p1&quot;,&quot;molecule_id&quot;:&quot;img4-m30&quot;,&quot;atom_order&quot;:2}]}</metadata>
  <rect x="0" y="0" width="36" height="183" fill="#f8f0d8"/>
  <image href="file:///C:/Users/HHHES/AppData/Roaming/com.voynichlab.datasetcreator/images/1/aff30327-ced8-4ab4-8c9b-190205ebe022.jpg" x="-554" y="-2180" width="2804" height="3797" opacity="0.92"/>
  <rect x="0.5" y="0.5" width="35" height="182" fill="none" stroke="#111827" stroke-width="1" opacity="0.35"/>
  <polyline points="19,16 19,17 19,18 19,19 19,20 19,21 19,22 19,23 19,24 19,25 19,26 19,27 20,28 20,29 20,30 20,31 20,32 20,33 20,34 20,35 20,36 20,37 20,38 20,39 20,40 20,41 20,42 20,43 20,44 20,45 20,46 20,47 20,48 20,49 20,50 20,51 19,52 19,53 19,54 19,55 19,56 19,57 19,58 19,59 19,60 19,61 19,62 19,63 19,64 19,65 19,66 19,67 19,68 19,69 19,70 19,71 19,72 18,72 18,73 18,74 18,75 18,76 18,77 18,78 18,79 18,80 18,81 18,82 18,83 18,84 18,85 18,86 18,87 18,88 18,89 18,90 18,91 18,92 18,93 18,94 18,95 18,96 18,97 18,99 18,100 18,101 18,102 18,103 18,104 18,105 18,106 18,107 18,108 18,109 17,110 17,111 17,112 17,113 17,114 17,115 17,116 17,117 17,118 17,119 17,120 17,121 17,122 17,123 17,124 17,125 17,126 17,127 17,128 17,129 17,130 17,131 17,132 17,133 17,134 17,135 17,136 17,137 17,138 17,139 16,139 16,140 16,141 16,142 16,143 16,144 16,145 16,146 16,147 16,148 16,149 16,150 16,151 16,152 16,153 16,154 16,155 16,156 16,157 16,158 16,159 16,160 16,161 16,162 17,162 17,163 17,164 17,165 17,166 17,167" fill="none" stroke="#00f0b5" stroke-width="3" stroke-linecap="round" stroke-linejoin="round" opacity="0.95">
    <title>4684 a:1</title>
  </polyline>
</svg>
