<?xml version="1.0" encoding="UTF-8"?>
<svg xmlns="http://www.w3.org/2000/svg" width="33" height="78" viewBox="0 0 33 78">
  <title>atom 4685 a:1</title>
  <metadata>{&quot;entityType&quot;:&quot;atom&quot;,&quot;entityId&quot;:&quot;4685&quot;,&quot;token&quot;:&quot;a:1&quot;,&quot;signature&quot;:&quot;a:1&quot;,&quot;imageName&quot;:&quot;page-004.jpg&quot;,&quot;imageId&quot;:4,&quot;bounds&quot;:{&quot;x&quot;:629,&quot;y&quot;:2181,&quot;w&quot;:33,&quot;h&quot;:78},&quot;atoms&quot;:[{&quot;id&quot;:4685,&quot;token&quot;:&quot;a:1&quot;,&quot;particle_id&quot;:&quot;img4-m30-p1&quot;,&quot;molecule_id&quot;:&quot;img4-m30&quot;,&quot;atom_order&quot;:5}]}</metadata>
  <rect x="0" y="0" width="33" height="78" fill="#f8f0d8"/>
  <image href="file:///C:/Users/HHHES/AppData/Roaming/com.voynichlab.datasetcreator/images/1/aff30327-ced8-4ab4-8c9b-190205ebe022.jpg" x="-629" y="-2181" width="2804" height="3797" opacity="0.92"/>
  <rect x="0.5" y="0.5" width="32" height="77" fill="none" stroke="#111827" stroke-width="1" opacity="0.35"/>
  <polyline points="17,16 16,16 16,17 16,18 16,19 17,19 17,20 17,21 17,22 17,23 17,24 17,25 17,26 17,27 17,28 17,29 17,30 17,31 17,32 17,33 17,34 17,35 17,36 17,37 17,38 17,39 17,40 17,41 17,42 17,43 17,44 17,45 17,46 17,47 17,48 17,49 17,50 17,51 17,52 16,53 16,54 16,55 16,56 16,57 16,58 16,59 16,60 16,61 16,62" fill="none" stroke="#00f0b5" stroke-width="3" stroke-linecap="round" stroke-linejoin="round" opacity="0.95">
    <title>4685 a:1</title>
  </polyline>
</svg>
