<?xml version="1.0" encoding="UTF-8"?>
<svg xmlns="http://www.w3.org/2000/svg" width="36" height="80" viewBox="0 0 36 80">
  <title>atom 4689 a:1</title>
  <metadata>{&quot;entityType&quot;:&quot;atom&quot;,&quot;entityId&quot;:&quot;4689&quot;,&quot;token&quot;:&quot;a:1&quot;,&quot;signature&quot;:&quot;a:1&quot;,&quot;imageName&quot;:&quot;page-004.jpg&quot;,&quot;imageId&quot;:4,&quot;bounds&quot;:{&quot;x&quot;:1162,&quot;y&quot;:2268,&quot;w&quot;:36,&quot;h&quot;:80},&quot;atoms&quot;:[{&quot;id&quot;:4689,&quot;token&quot;:&quot;a:1&quot;,&quot;particle_id&quot;:&quot;img4-m32-p1&quot;,&quot;molecule_id&quot;:&quot;img4-m32&quot;,&quot;atom_order&quot;:6}]}</metadata>
  <rect x="0" y="0" width="36" height="80" fill="#f8f0d8"/>
  <image href="file:///C:/Users/HHHES/AppData/Roaming/com.voynichlab.datasetcreator/images/1/aff30327-ced8-4ab4-8c9b-190205ebe022.jpg" x="-1162" y="-2268" width="2804" height="3797" opacity="0.92"/>
  <rect x="0.5" y="0.5" width="35" height="79" fill="none" stroke="#111827" stroke-width="1" opacity="0.35"/>
  <polyline points="20,17 20,16 20,17 19,18 19,20 19,22 19,24 19,26 19,28 19,30 20,31 20,33 20,34 20,36 20,37 20,38 20,39 20,41 20,42 20,43 20,45 20,46 20,47 20,49 20,50 20,51 19,53 19,54 19,56 18,57 18,59 18,60 18,61 17,62 17,63 17,64 16,64" fill="none" stroke="#00f0b5" stroke-width="3" stroke-linecap="round" stroke-linejoin="round" opacity="0.95">
    <title>4689 a:1</title>
  </polyline>
</svg>
