<?xml version="1.0" encoding="UTF-8"?>
<svg xmlns="http://www.w3.org/2000/svg" width="38" height="88" viewBox="0 0 38 88">
  <title>atom 4692 a:1</title>
  <metadata>{&quot;entityType&quot;:&quot;atom&quot;,&quot;entityId&quot;:&quot;4692&quot;,&quot;token&quot;:&quot;a:1&quot;,&quot;signature&quot;:&quot;a:1&quot;,&quot;imageName&quot;:&quot;page-004.jpg&quot;,&quot;imageId&quot;:4,&quot;bounds&quot;:{&quot;x&quot;:2037,&quot;y&quot;:2354,&quot;w&quot;:38,&quot;h&quot;:88},&quot;atoms&quot;:[{&quot;id&quot;:4692,&quot;token&quot;:&quot;a:1&quot;,&quot;particle_id&quot;:&quot;img4-m40-p2&quot;,&quot;molecule_id&quot;:&quot;img4-m40&quot;,&quot;atom_order&quot;:1}]}</metadata>
  <rect x="0" y="0" width="38" height="88" fill="#f8f0d8"/>
  <image href="file:///C:/Users/HHHES/AppData/Roaming/com.voynichlab.datasetcreator/images/1/aff30327-ced8-4ab4-8c9b-190205ebe022.jpg" x="-2037" y="-2354" width="2804" height="3797" opacity="0.92"/>
  <rect x="0.5" y="0.5" width="37" height="87" fill="none" stroke="#111827" stroke-width="1" opacity="0.35"/>
  <polyline points="22,16 22,17 22,18 22,19 22,20 22,21 22,22 22,23 22,24 21,24 21,25 21,26 21,27 21,28 21,29 20,30 20,31 20,32 20,33 19,34 19,35 19,36 18,37 18,38 18,39 18,40 18,41 18,42 18,43 18,44 18,45 18,46 17,47 17,48 17,49 17,50 17,51 17,52 17,53 17,54 17,55 17,56 17,57 17,58 17,59 17,60 17,61 17,62 17,63 16,63 16,64 16,65 16,66 16,67 16,68 16,69 16,70 16,71 16,72" fill="none" stroke="#00f0b5" stroke-width="3" stroke-linecap="round" stroke-linejoin="round" opacity="0.95">
    <title>4692 a:1</title>
  </polyline>
</svg>
