<?xml version="1.0" encoding="UTF-8"?>
<svg xmlns="http://www.w3.org/2000/svg" width="42" height="127" viewBox="0 0 42 127">
  <title>atom 4693 a:1</title>
  <metadata>{&quot;entityType&quot;:&quot;atom&quot;,&quot;entityId&quot;:&quot;4693&quot;,&quot;token&quot;:&quot;a:1&quot;,&quot;signature&quot;:&quot;a:1&quot;,&quot;imageName&quot;:&quot;page-004.jpg&quot;,&quot;imageId&quot;:4,&quot;bounds&quot;:{&quot;x&quot;:2053,&quot;y&quot;:2318,&quot;w&quot;:42,&quot;h&quot;:127},&quot;atoms&quot;:[{&quot;id&quot;:4693,&quot;token&quot;:&quot;a:1&quot;,&quot;particle_id&quot;:&quot;img4-m40-p2&quot;,&quot;molecule_id&quot;:&quot;img4-m40&quot;,&quot;atom_order&quot;:4}]}</metadata>
  <rect x="0" y="0" width="42" height="127" fill="#f8f0d8"/>
  <image href="file:///C:/Users/HHHES/AppData/Roaming/com.voynichlab.datasetcreator/images/1/aff30327-ced8-4ab4-8c9b-190205ebe022.jpg" x="-2053" y="-2318" width="2804" height="3797" opacity="0.92"/>
  <rect x="0.5" y="0.5" width="41" height="126" fill="none" stroke="#111827" stroke-width="1" opacity="0.35"/>
  <polyline points="26,16 26,17 25,17 25,18 25,19 25,21 24,22 24,24 23,26 23,27 23,28 23,29 23,30 23,31 22,31 22,32 22,33 22,34 22,35 22,36 22,37 22,38 22,39 22,40 22,41 21,42 21,43 21,44 21,45 21,46 21,47 21,48 21,49 21,50 21,51 21,52 21,53 21,55 20,56 20,58 20,59 20,60 20,61 20,62 20,63 20,64 19,66 19,67 19,69 19,70 18,72 18,73 18,74 18,75 18,76 18,77 18,78 18,80 17,81 17,83 17,84 17,85 17,86 17,87 17,88 17,89 17,90 17,91 17,92 16,93 16,94 16,95 16,96 16,97 16,98 16,99 16,101 16,102 16,103 16,104 16,105 16,106 16,107 16,108 16,109 16,110 16,111" fill="none" stroke="#00f0b5" stroke-width="3" stroke-linecap="round" stroke-linejoin="round" opacity="0.95">
    <title>4693 a:1</title>
  </polyline>
</svg>
