<?xml version="1.0" encoding="UTF-8"?>
<svg xmlns="http://www.w3.org/2000/svg" width="39" height="93" viewBox="0 0 39 93">
  <title>atom 4694 a:1</title>
  <metadata>{&quot;entityType&quot;:&quot;atom&quot;,&quot;entityId&quot;:&quot;4694&quot;,&quot;token&quot;:&quot;a:1&quot;,&quot;signature&quot;:&quot;a:1&quot;,&quot;imageName&quot;:&quot;page-004.jpg&quot;,&quot;imageId&quot;:4,&quot;bounds&quot;:{&quot;x&quot;:2356,&quot;y&quot;:2444,&quot;w&quot;:39,&quot;h&quot;:93},&quot;atoms&quot;:[{&quot;id&quot;:4694,&quot;token&quot;:&quot;a:1&quot;,&quot;particle_id&quot;:&quot;img4-m46-p1&quot;,&quot;molecule_id&quot;:&quot;img4-m46&quot;,&quot;atom_order&quot;:6}]}</metadata>
  <rect x="0" y="0" width="39" height="93" fill="#f8f0d8"/>
  <image href="file:///C:/Users/HHHES/AppData/Roaming/com.voynichlab.datasetcreator/images/1/aff30327-ced8-4ab4-8c9b-190205ebe022.jpg" x="-2356" y="-2444" width="2804" height="3797" opacity="0.92"/>
  <rect x="0.5" y="0.5" width="38" height="92" fill="none" stroke="#111827" stroke-width="1" opacity="0.35"/>
  <polyline points="23,16 23,17 22,18 22,19 22,20 22,21 22,22 22,23 22,24 22,25 22,26 22,27 22,28 21,29 21,30 21,31 21,32 21,33 20,33 20,34 20,35 20,36 20,37 20,38 19,38 19,39 19,40 19,41 19,42 19,43 19,44 19,45 18,45 18,46 18,47 18,48 18,49 18,50 18,51 18,52 18,53 18,54 18,55 17,55 17,56 17,57 17,58 17,59 17,60 17,61 17,62 16,62 16,63 16,64 16,65 16,66 16,67 16,68 16,69 16,70 16,71 16,72 16,73 16,74 16,75 16,76 16,77" fill="none" stroke="#00f0b5" stroke-width="3" stroke-linecap="round" stroke-linejoin="round" opacity="0.95">
    <title>4694 a:1</title>
  </polyline>
</svg>
