<?xml version="1.0" encoding="UTF-8"?>
<svg xmlns="http://www.w3.org/2000/svg" width="36" height="96" viewBox="0 0 36 96">
  <title>atom 4695 a:1</title>
  <metadata>{&quot;entityType&quot;:&quot;atom&quot;,&quot;entityId&quot;:&quot;4695&quot;,&quot;token&quot;:&quot;a:1&quot;,&quot;signature&quot;:&quot;a:1&quot;,&quot;imageName&quot;:&quot;page-004.jpg&quot;,&quot;imageId&quot;:4,&quot;bounds&quot;:{&quot;x&quot;:2334,&quot;y&quot;:2441,&quot;w&quot;:36,&quot;h&quot;:96},&quot;atoms&quot;:[{&quot;id&quot;:4695,&quot;token&quot;:&quot;a:1&quot;,&quot;particle_id&quot;:&quot;img4-m46-p1&quot;,&quot;molecule_id&quot;:&quot;img4-m46&quot;,&quot;atom_order&quot;:2}]}</metadata>
  <rect x="0" y="0" width="36" height="96" fill="#f8f0d8"/>
  <image href="file:///C:/Users/HHHES/AppData/Roaming/com.voynichlab.datasetcreator/images/1/aff30327-ced8-4ab4-8c9b-190205ebe022.jpg" x="-2334" y="-2441" width="2804" height="3797" opacity="0.92"/>
  <rect x="0.5" y="0.5" width="35" height="95" fill="none" stroke="#111827" stroke-width="1" opacity="0.35"/>
  <polyline points="20,16 20,17 20,18 20,19 20,20 20,21 20,22 20,23 20,24 20,25 20,26 20,27 20,28 20,29 20,30 20,31 20,32 20,33 20,34 19,35 19,36 19,37 19,38 19,39 19,40 19,41 19,42 19,43 19,45 19,46 19,47 19,48 19,49 19,50 19,51 18,52 18,53 18,54 18,55 18,56 18,57 18,58 18,59 18,60 18,61 18,62 18,63 18,64 18,65 17,66 17,67 17,68 17,69 17,70 17,71 17,72 17,73 17,74 17,75 17,76 16,76 16,77 16,78 16,79 16,80" fill="none" stroke="#00f0b5" stroke-width="3" stroke-linecap="round" stroke-linejoin="round" opacity="0.95">
    <title>4695 a:1</title>
  </polyline>
</svg>
