<?xml version="1.0" encoding="UTF-8"?>
<svg xmlns="http://www.w3.org/2000/svg" width="41" height="90" viewBox="0 0 41 90">
  <title>atom 4697 a:1</title>
  <metadata>{&quot;entityType&quot;:&quot;atom&quot;,&quot;entityId&quot;:&quot;4697&quot;,&quot;token&quot;:&quot;a:1&quot;,&quot;signature&quot;:&quot;a:1&quot;,&quot;imageName&quot;:&quot;page-004.jpg&quot;,&quot;imageId&quot;:4,&quot;bounds&quot;:{&quot;x&quot;:1287,&quot;y&quot;:2393,&quot;w&quot;:41,&quot;h&quot;:90},&quot;atoms&quot;:[{&quot;id&quot;:4697,&quot;token&quot;:&quot;a:1&quot;,&quot;particle_id&quot;:&quot;img4-m44-p2&quot;,&quot;molecule_id&quot;:&quot;img4-m44&quot;,&quot;atom_order&quot;:4}]}</metadata>
  <rect x="0" y="0" width="41" height="90" fill="#f8f0d8"/>
  <image href="file:///C:/Users/HHHES/AppData/Roaming/com.voynichlab.datasetcreator/images/1/aff30327-ced8-4ab4-8c9b-190205ebe022.jpg" x="-1287" y="-2393" width="2804" height="3797" opacity="0.92"/>
  <rect x="0.5" y="0.5" width="40" height="89" fill="none" stroke="#111827" stroke-width="1" opacity="0.35"/>
  <polyline points="25,16 25,17 24,17 24,18 24,19 24,20 24,22 24,23 24,24 24,26 24,27 24,28 23,30 23,31 23,33 23,34 23,35 23,36 23,37 22,38 22,39 22,40 22,41 22,42 21,43 21,44 21,45 21,46 20,48 20,49 20,50 20,51 19,52 19,53 19,54 19,55 19,56 19,57 18,58 18,59 18,60 18,61 18,62 17,63 17,64 17,65 17,66 17,67 17,68 17,69 17,70 17,71 17,72 17,73 16,73 16,74" fill="none" stroke="#00f0b5" stroke-width="3" stroke-linecap="round" stroke-linejoin="round" opacity="0.95">
    <title>4697 a:1</title>
  </polyline>
</svg>
