<?xml version="1.0" encoding="UTF-8"?>
<svg xmlns="http://www.w3.org/2000/svg" width="33" height="85" viewBox="0 0 33 85">
  <title>atom 4700 a:1</title>
  <metadata>{&quot;entityType&quot;:&quot;atom&quot;,&quot;entityId&quot;:&quot;4700&quot;,&quot;token&quot;:&quot;a:1&quot;,&quot;signature&quot;:&quot;a:1&quot;,&quot;imageName&quot;:&quot;page-004.jpg&quot;,&quot;imageId&quot;:4,&quot;bounds&quot;:{&quot;x&quot;:629,&quot;y&quot;:2354,&quot;w&quot;:33,&quot;h&quot;:85},&quot;atoms&quot;:[{&quot;id&quot;:4700,&quot;token&quot;:&quot;a:1&quot;,&quot;particle_id&quot;:&quot;img4-m39-p3&quot;,&quot;molecule_id&quot;:&quot;img4-m39&quot;,&quot;atom_order&quot;:1}]}</metadata>
  <rect x="0" y="0" width="33" height="85" fill="#f8f0d8"/>
  <image href="file:///C:/Users/HHHES/AppData/Roaming/com.voynichlab.datasetcreator/images/1/aff30327-ced8-4ab4-8c9b-190205ebe022.jpg" x="-629" y="-2354" width="2804" height="3797" opacity="0.92"/>
  <rect x="0.5" y="0.5" width="32" height="84" fill="none" stroke="#111827" stroke-width="1" opacity="0.35"/>
  <polyline points="16,16 16,17 16,18 16,19 16,20 16,22 16,23 16,25 16,27 16,28 16,30 17,31 17,32 17,33 17,34 17,35 17,36 17,37 17,39 17,40 17,41 17,42 17,43 17,44 17,46 17,47 17,48 17,50 17,51 17,52 17,53 17,54 17,56 17,57 16,58 16,59 16,60 16,61 16,62 16,63 16,64 16,65 16,66 16,67 16,68 16,69" fill="none" stroke="#00f0b5" stroke-width="3" stroke-linecap="round" stroke-linejoin="round" opacity="0.95">
    <title>4700 a:1</title>
  </polyline>
</svg>
