<?xml version="1.0" encoding="UTF-8"?>
<svg xmlns="http://www.w3.org/2000/svg" width="38" height="90" viewBox="0 0 38 90">
  <title>atom 4701 a:1</title>
  <metadata>{&quot;entityType&quot;:&quot;atom&quot;,&quot;entityId&quot;:&quot;4701&quot;,&quot;token&quot;:&quot;a:1&quot;,&quot;signature&quot;:&quot;a:1&quot;,&quot;imageName&quot;:&quot;page-004.jpg&quot;,&quot;imageId&quot;:4,&quot;bounds&quot;:{&quot;x&quot;:641,&quot;y&quot;:2357,&quot;w&quot;:38,&quot;h&quot;:90},&quot;atoms&quot;:[{&quot;id&quot;:4701,&quot;token&quot;:&quot;a:1&quot;,&quot;particle_id&quot;:&quot;img4-m39-p3&quot;,&quot;molecule_id&quot;:&quot;img4-m39&quot;,&quot;atom_order&quot;:4}]}</metadata>
  <rect x="0" y="0" width="38" height="90" fill="#f8f0d8"/>
  <image href="file:///C:/Users/HHHES/AppData/Roaming/com.voynichlab.datasetcreator/images/1/aff30327-ced8-4ab4-8c9b-190205ebe022.jpg" x="-641" y="-2357" width="2804" height="3797" opacity="0.92"/>
  <rect x="0.5" y="0.5" width="37" height="89" fill="none" stroke="#111827" stroke-width="1" opacity="0.35"/>
  <polyline points="22,16 22,17 21,18 21,19 21,20 21,21 21,22 21,24 21,25 21,26 21,27 20,28 20,29 20,30 20,31 20,32 20,33 20,34 20,36 19,36 19,38 19,39 19,40 19,41 19,42 19,43 19,44 19,45 19,46 18,46 18,47 18,48 18,49 18,50 18,51 18,52 18,53 18,54 17,55 17,57 17,58 17,59 17,60 17,62 17,63 17,64 16,65 16,67 16,69 16,70 16,71 16,72 16,73 16,74" fill="none" stroke="#00f0b5" stroke-width="3" stroke-linecap="round" stroke-linejoin="round" opacity="0.95">
    <title>4701 a:1</title>
  </polyline>
</svg>
