<?xml version="1.0" encoding="UTF-8"?>
<svg xmlns="http://www.w3.org/2000/svg" width="33" height="57" viewBox="0 0 33 57">
  <title>atom 4702 a:1</title>
  <metadata>{&quot;entityType&quot;:&quot;atom&quot;,&quot;entityId&quot;:&quot;4702&quot;,&quot;token&quot;:&quot;a:1&quot;,&quot;signature&quot;:&quot;a:1&quot;,&quot;imageName&quot;:&quot;page-004.jpg&quot;,&quot;imageId&quot;:4,&quot;bounds&quot;:{&quot;x&quot;:559,&quot;y&quot;:2486,&quot;w&quot;:33,&quot;h&quot;:57},&quot;atoms&quot;:[{&quot;id&quot;:4702,&quot;token&quot;:&quot;a:1&quot;,&quot;particle_id&quot;:&quot;img4-m49-p1&quot;,&quot;molecule_id&quot;:&quot;img4-m49&quot;,&quot;atom_order&quot;:1}]}</metadata>
  <rect x="0" y="0" width="33" height="57" fill="#f8f0d8"/>
  <image href="file:///C:/Users/HHHES/AppData/Roaming/com.voynichlab.datasetcreator/images/1/aff30327-ced8-4ab4-8c9b-190205ebe022.jpg" x="-559" y="-2486" width="2804" height="3797" opacity="0.92"/>
  <rect x="0.5" y="0.5" width="32" height="56" fill="none" stroke="#111827" stroke-width="1" opacity="0.35"/>
  <polyline points="17,41 17,40 17,39 17,38 16,38 16,37 16,36 16,35 16,34 16,33 16,32 17,32 17,31 17,30 17,29 17,28 17,27 17,26 17,25 17,24 17,23 17,22 17,21 17,20 17,19 17,18 17,17 17,16" fill="none" stroke="#00f0b5" stroke-width="3" stroke-linecap="round" stroke-linejoin="round" opacity="0.95">
    <title>4702 a:1</title>
  </polyline>
</svg>
