<?xml version="1.0" encoding="UTF-8"?>
<svg xmlns="http://www.w3.org/2000/svg" width="36" height="90" viewBox="0 0 36 90">
  <title>atom 4704 a:1</title>
  <metadata>{&quot;entityType&quot;:&quot;atom&quot;,&quot;entityId&quot;:&quot;4704&quot;,&quot;token&quot;:&quot;a:1&quot;,&quot;signature&quot;:&quot;a:1&quot;,&quot;imageName&quot;:&quot;page-004.jpg&quot;,&quot;imageId&quot;:4,&quot;bounds&quot;:{&quot;x&quot;:600,&quot;y&quot;:2508,&quot;w&quot;:36,&quot;h&quot;:90},&quot;atoms&quot;:[{&quot;id&quot;:4704,&quot;token&quot;:&quot;a:1&quot;,&quot;particle_id&quot;:&quot;img4-m65-p2&quot;,&quot;molecule_id&quot;:&quot;img4-m65&quot;,&quot;atom_order&quot;:4}]}</metadata>
  <rect x="0" y="0" width="36" height="90" fill="#f8f0d8"/>
  <image href="file:///C:/Users/HHHES/AppData/Roaming/com.voynichlab.datasetcreator/images/1/aff30327-ced8-4ab4-8c9b-190205ebe022.jpg" x="-600" y="-2508" width="2804" height="3797" opacity="0.92"/>
  <rect x="0.5" y="0.5" width="35" height="89" fill="none" stroke="#111827" stroke-width="1" opacity="0.35"/>
  <polyline points="20,16 20,17 20,18 20,19 20,20 20,21 20,23 19,23 19,24 19,25 19,26 19,27 19,28 19,29 19,30 19,31 18,32 18,33 18,34 18,35 18,36 18,37 18,38 18,39 18,40 18,41 18,42 18,43 18,44 17,44 17,45 17,46 17,47 17,48 17,49 17,50 17,51 17,52 17,53 17,54 17,55 17,57 17,58 16,59 16,60 16,62 16,64 16,65 16,66 16,67 16,68 16,69 16,70 16,71 16,72 16,73 16,74" fill="none" stroke="#00f0b5" stroke-width="3" stroke-linecap="round" stroke-linejoin="round" opacity="0.95">
    <title>4704 a:1</title>
  </polyline>
</svg>
