<?xml version="1.0" encoding="UTF-8"?>
<svg xmlns="http://www.w3.org/2000/svg" width="35" height="91" viewBox="0 0 35 91">
  <title>atom 4705 a:1</title>
  <metadata>{&quot;entityType&quot;:&quot;atom&quot;,&quot;entityId&quot;:&quot;4705&quot;,&quot;token&quot;:&quot;a:1&quot;,&quot;signature&quot;:&quot;a:1&quot;,&quot;imageName&quot;:&quot;page-004.jpg&quot;,&quot;imageId&quot;:4,&quot;bounds&quot;:{&quot;x&quot;:860,&quot;y&quot;:2530,&quot;w&quot;:35,&quot;h&quot;:91},&quot;atoms&quot;:[{&quot;id&quot;:4705,&quot;token&quot;:&quot;a:1&quot;,&quot;particle_id&quot;:&quot;img4-m60-p1&quot;,&quot;molecule_id&quot;:&quot;img4-m60&quot;,&quot;atom_order&quot;:1}]}</metadata>
  <rect x="0" y="0" width="35" height="91" fill="#f8f0d8"/>
  <image href="file:///C:/Users/HHHES/AppData/Roaming/com.voynichlab.datasetcreator/images/1/aff30327-ced8-4ab4-8c9b-190205ebe022.jpg" x="-860" y="-2530" width="2804" height="3797" opacity="0.92"/>
  <rect x="0.5" y="0.5" width="34" height="90" fill="none" stroke="#111827" stroke-width="1" opacity="0.35"/>
  <polyline points="19,16 19,17 19,18 19,20 19,22 19,23 19,24 19,25 19,26 19,27 19,29 19,30 19,31 19,33 19,34 19,35 19,36 19,37 19,38 19,39 19,40 19,41 19,42 19,43 19,44 18,45 18,47 18,48 18,49 18,51 18,52 18,53 18,55 18,56 17,58 17,59 17,61 17,62 17,63 17,64 17,65 17,66 17,67 17,68 17,69 16,69 16,70 16,71 16,72 16,73 16,74 16,75" fill="none" stroke="#00f0b5" stroke-width="3" stroke-linecap="round" stroke-linejoin="round" opacity="0.95">
    <title>4705 a:1</title>
  </polyline>
</svg>
