<?xml version="1.0" encoding="UTF-8"?>
<svg xmlns="http://www.w3.org/2000/svg" width="37" height="94" viewBox="0 0 37 94">
  <title>atom 4706 a:1</title>
  <metadata>{&quot;entityType&quot;:&quot;atom&quot;,&quot;entityId&quot;:&quot;4706&quot;,&quot;token&quot;:&quot;a:1&quot;,&quot;signature&quot;:&quot;a:1&quot;,&quot;imageName&quot;:&quot;page-004.jpg&quot;,&quot;imageId&quot;:4,&quot;bounds&quot;:{&quot;x&quot;:880,&quot;y&quot;:2530,&quot;w&quot;:37,&quot;h&quot;:94},&quot;atoms&quot;:[{&quot;id&quot;:4706,&quot;token&quot;:&quot;a:1&quot;,&quot;particle_id&quot;:&quot;img4-m60-p1&quot;,&quot;molecule_id&quot;:&quot;img4-m60&quot;,&quot;atom_order&quot;:4}]}</metadata>
  <rect x="0" y="0" width="37" height="94" fill="#f8f0d8"/>
  <image href="file:///C:/Users/HHHES/AppData/Roaming/com.voynichlab.datasetcreator/images/1/aff30327-ced8-4ab4-8c9b-190205ebe022.jpg" x="-880" y="-2530" width="2804" height="3797" opacity="0.92"/>
  <rect x="0.5" y="0.5" width="36" height="93" fill="none" stroke="#111827" stroke-width="1" opacity="0.35"/>
  <polyline points="21,16 21,17 20,18 20,19 20,21 20,22 20,24 20,25 20,27 20,28 20,30 20,32 20,33 20,35 20,36 20,37 20,39 19,40 19,42 19,43 19,45 19,46 19,47 19,48 18,49 18,51 18,52 17,54 17,56 17,57 17,58 17,59 17,60 17,61 17,62 16,63 16,65 16,66 16,67 16,68 16,69 16,70 16,71 16,72 16,73 16,74 16,75 16,76 16,77 16,78" fill="none" stroke="#00f0b5" stroke-width="3" stroke-linecap="round" stroke-linejoin="round" opacity="0.95">
    <title>4706 a:1</title>
  </polyline>
</svg>
