<?xml version="1.0" encoding="UTF-8"?>
<svg xmlns="http://www.w3.org/2000/svg" width="34" height="95" viewBox="0 0 34 95">
  <title>atom 4708 a:1</title>
  <metadata>{&quot;entityType&quot;:&quot;atom&quot;,&quot;entityId&quot;:&quot;4708&quot;,&quot;token&quot;:&quot;a:1&quot;,&quot;signature&quot;:&quot;a:1&quot;,&quot;imageName&quot;:&quot;page-004.jpg&quot;,&quot;imageId&quot;:4,&quot;bounds&quot;:{&quot;x&quot;:1009,&quot;y&quot;:2538,&quot;w&quot;:34,&quot;h&quot;:95},&quot;atoms&quot;:[{&quot;id&quot;:4708,&quot;token&quot;:&quot;a:1&quot;,&quot;particle_id&quot;:&quot;img4-m61-p1&quot;,&quot;molecule_id&quot;:&quot;img4-m61&quot;,&quot;atom_order&quot;:4}]}</metadata>
  <rect x="0" y="0" width="34" height="95" fill="#f8f0d8"/>
  <image href="file:///C:/Users/HHHES/AppData/Roaming/com.voynichlab.datasetcreator/images/1/aff30327-ced8-4ab4-8c9b-190205ebe022.jpg" x="-1009" y="-2538" width="2804" height="3797" opacity="0.92"/>
  <rect x="0.5" y="0.5" width="33" height="94" fill="none" stroke="#111827" stroke-width="1" opacity="0.35"/>
  <polyline points="18,16 18,17 18,18 17,19 17,21 17,23 17,25 17,27 17,29 16,30 16,32 16,34 16,35 16,37 16,38 16,40 16,42 17,43 17,45 17,46 17,47 17,48 17,50 17,51 17,53 17,54 17,55 18,57 18,58 18,59 18,60 18,62 18,63 18,65 18,66 18,67 18,68 18,69 17,70 17,71 17,72 17,73 17,74 17,75 17,76 17,77 17,78 17,79" fill="none" stroke="#00f0b5" stroke-width="3" stroke-linecap="round" stroke-linejoin="round" opacity="0.95">
    <title>4708 a:1</title>
  </polyline>
</svg>
