<?xml version="1.0" encoding="UTF-8"?>
<svg xmlns="http://www.w3.org/2000/svg" width="40" height="100" viewBox="0 0 40 100">
  <title>atom 4710 a:1</title>
  <metadata>{&quot;entityType&quot;:&quot;atom&quot;,&quot;entityId&quot;:&quot;4710&quot;,&quot;token&quot;:&quot;a:1&quot;,&quot;signature&quot;:&quot;a:1&quot;,&quot;imageName&quot;:&quot;page-004.jpg&quot;,&quot;imageId&quot;:4,&quot;bounds&quot;:{&quot;x&quot;:1350,&quot;y&quot;:2537,&quot;w&quot;:40,&quot;h&quot;:100},&quot;atoms&quot;:[{&quot;id&quot;:4710,&quot;token&quot;:&quot;a:1&quot;,&quot;particle_id&quot;:&quot;img4-m62-p1&quot;,&quot;molecule_id&quot;:&quot;img4-m62&quot;,&quot;atom_order&quot;:4}]}</metadata>
  <rect x="0" y="0" width="40" height="100" fill="#f8f0d8"/>
  <image href="file:///C:/Users/HHHES/AppData/Roaming/com.voynichlab.datasetcreator/images/1/aff30327-ced8-4ab4-8c9b-190205ebe022.jpg" x="-1350" y="-2537" width="2804" height="3797" opacity="0.92"/>
  <rect x="0.5" y="0.5" width="39" height="99" fill="none" stroke="#111827" stroke-width="1" opacity="0.35"/>
  <polyline points="24,16 23,16 22,17 22,19 22,20 22,23 22,25 21,27 21,29 21,31 21,32 21,34 21,36 21,37 21,39 21,41 21,43 20,45 20,47 20,49 20,50 20,51 20,52 20,53 20,54 20,55 20,56 20,57 19,58 19,59 19,60 19,61 19,62 19,63 19,64 19,65 19,66 19,67 18,68 18,69 18,70 18,71 18,72 18,73 18,74 17,74 17,75 17,76 17,77 17,78 17,79 17,80 17,81 17,82 16,82 16,83 16,84 16,83" fill="none" stroke="#00f0b5" stroke-width="3" stroke-linecap="round" stroke-linejoin="round" opacity="0.95">
    <title>4710 a:1</title>
  </polyline>
</svg>
