<?xml version="1.0" encoding="UTF-8"?>
<svg xmlns="http://www.w3.org/2000/svg" width="34" height="60" viewBox="0 0 34 60">
  <title>atom 4711 a:1</title>
  <metadata>{&quot;entityType&quot;:&quot;atom&quot;,&quot;entityId&quot;:&quot;4711&quot;,&quot;token&quot;:&quot;a:1&quot;,&quot;signature&quot;:&quot;a:1&quot;,&quot;imageName&quot;:&quot;page-004.jpg&quot;,&quot;imageId&quot;:4,&quot;bounds&quot;:{&quot;x&quot;:1729,&quot;y&quot;:2594,&quot;w&quot;:34,&quot;h&quot;:60},&quot;atoms&quot;:[{&quot;id&quot;:4711,&quot;token&quot;:&quot;a:1&quot;,&quot;particle_id&quot;:&quot;img4-m67-p1&quot;,&quot;molecule_id&quot;:&quot;img4-m67&quot;,&quot;atom_order&quot;:2}]}</metadata>
  <rect x="0" y="0" width="34" height="60" fill="#f8f0d8"/>
  <image href="file:///C:/Users/HHHES/AppData/Roaming/com.voynichlab.datasetcreator/images/1/aff30327-ced8-4ab4-8c9b-190205ebe022.jpg" x="-1729" y="-2594" width="2804" height="3797" opacity="0.92"/>
  <rect x="0.5" y="0.5" width="33" height="59" fill="none" stroke="#111827" stroke-width="1" opacity="0.35"/>
  <polyline points="17,16 17,17 17,18 17,19 17,20 18,20 18,22 18,23 18,24 18,25 18,26 18,27 18,28 18,29 18,30 18,31 17,32 17,33 17,34 17,35 17,36 17,37 17,38 17,39 17,40 16,41 16,42 16,43 16,44" fill="none" stroke="#00f0b5" stroke-width="3" stroke-linecap="round" stroke-linejoin="round" opacity="0.95">
    <title>4711 a:1</title>
  </polyline>
</svg>
