<?xml version="1.0" encoding="UTF-8"?>
<svg xmlns="http://www.w3.org/2000/svg" width="38" height="83" viewBox="0 0 38 83">
  <title>atom 4720 a:1</title>
  <metadata>{&quot;entityType&quot;:&quot;atom&quot;,&quot;entityId&quot;:&quot;4720&quot;,&quot;token&quot;:&quot;a:1&quot;,&quot;signature&quot;:&quot;a:1&quot;,&quot;imageName&quot;:&quot;page-004.jpg&quot;,&quot;imageId&quot;:4,&quot;bounds&quot;:{&quot;x&quot;:587,&quot;y&quot;:2674,&quot;w&quot;:38,&quot;h&quot;:83},&quot;atoms&quot;:[{&quot;id&quot;:4720,&quot;token&quot;:&quot;a:1&quot;,&quot;particle_id&quot;:&quot;img4-m80-p1&quot;,&quot;molecule_id&quot;:&quot;img4-m80&quot;,&quot;atom_order&quot;:4}]}</metadata>
  <rect x="0" y="0" width="38" height="83" fill="#f8f0d8"/>
  <image href="file:///C:/Users/HHHES/AppData/Roaming/com.voynichlab.datasetcreator/images/1/aff30327-ced8-4ab4-8c9b-190205ebe022.jpg" x="-587" y="-2674" width="2804" height="3797" opacity="0.92"/>
  <rect x="0.5" y="0.5" width="37" height="82" fill="none" stroke="#111827" stroke-width="1" opacity="0.35"/>
  <polyline points="22,16 22,17 21,17 21,18 21,19 20,20 20,21 20,22 19,24 19,26 18,26 18,28 18,29 18,30 18,31 18,33 18,34 18,35 18,36 18,37 18,38 18,39 18,40 18,41 18,42 18,43 18,44 18,45 18,46 18,47 18,49 18,50 18,51 18,52 18,53 17,54 17,55 17,56 17,57 17,58 17,59 17,60 16,61 16,62 16,63 16,64 16,65 16,66 16,67" fill="none" stroke="#00f0b5" stroke-width="3" stroke-linecap="round" stroke-linejoin="round" opacity="0.95">
    <title>4720 a:1</title>
  </polyline>
</svg>
