<?xml version="1.0" encoding="UTF-8"?>
<svg xmlns="http://www.w3.org/2000/svg" width="37" height="91" viewBox="0 0 37 91">
  <title>atom 4722 a:1</title>
  <metadata>{&quot;entityType&quot;:&quot;atom&quot;,&quot;entityId&quot;:&quot;4722&quot;,&quot;token&quot;:&quot;a:1&quot;,&quot;signature&quot;:&quot;a:1&quot;,&quot;imageName&quot;:&quot;page-004.jpg&quot;,&quot;imageId&quot;:4,&quot;bounds&quot;:{&quot;x&quot;:888,&quot;y&quot;:2685,&quot;w&quot;:37,&quot;h&quot;:91},&quot;atoms&quot;:[{&quot;id&quot;:4722,&quot;token&quot;:&quot;a:1&quot;,&quot;particle_id&quot;:&quot;img4-m86-p3&quot;,&quot;molecule_id&quot;:&quot;img4-m86&quot;,&quot;atom_order&quot;:4}]}</metadata>
  <rect x="0" y="0" width="37" height="91" fill="#f8f0d8"/>
  <image href="file:///C:/Users/HHHES/AppData/Roaming/com.voynichlab.datasetcreator/images/1/aff30327-ced8-4ab4-8c9b-190205ebe022.jpg" x="-888" y="-2685" width="2804" height="3797" opacity="0.92"/>
  <rect x="0.5" y="0.5" width="36" height="90" fill="none" stroke="#111827" stroke-width="1" opacity="0.35"/>
  <polyline points="21,16 20,16 20,17 20,18 20,19 20,21 20,23 20,26 19,28 19,29 19,30 19,32 19,33 19,35 19,37 18,38 18,40 18,41 18,43 18,44 18,45 18,47 18,48 18,50 18,51 18,53 18,54 18,55 18,56 18,57 17,59 17,60 17,61 17,62 17,63 17,64 17,65 17,66 17,67 17,68 17,69 16,70 16,71 16,72 16,73 16,74 16,75" fill="none" stroke="#00f0b5" stroke-width="3" stroke-linecap="round" stroke-linejoin="round" opacity="0.95">
    <title>4722 a:1</title>
  </polyline>
</svg>
