<?xml version="1.0" encoding="UTF-8"?>
<svg xmlns="http://www.w3.org/2000/svg" width="35" height="70" viewBox="0 0 35 70">
  <title>atom 4724 a:1</title>
  <metadata>{&quot;entityType&quot;:&quot;atom&quot;,&quot;entityId&quot;:&quot;4724&quot;,&quot;token&quot;:&quot;a:1&quot;,&quot;signature&quot;:&quot;a:1&quot;,&quot;imageName&quot;:&quot;page-004.jpg&quot;,&quot;imageId&quot;:4,&quot;bounds&quot;:{&quot;x&quot;:1811,&quot;y&quot;:2718,&quot;w&quot;:35,&quot;h&quot;:70},&quot;atoms&quot;:[{&quot;id&quot;:4724,&quot;token&quot;:&quot;a:1&quot;,&quot;particle_id&quot;:&quot;img4-m87-p1&quot;,&quot;molecule_id&quot;:&quot;img4-m87&quot;,&quot;atom_order&quot;:6}]}</metadata>
  <rect x="0" y="0" width="35" height="70" fill="#f8f0d8"/>
  <image href="file:///C:/Users/HHHES/AppData/Roaming/com.voynichlab.datasetcreator/images/1/aff30327-ced8-4ab4-8c9b-190205ebe022.jpg" x="-1811" y="-2718" width="2804" height="3797" opacity="0.92"/>
  <rect x="0.5" y="0.5" width="34" height="69" fill="none" stroke="#111827" stroke-width="1" opacity="0.35"/>
  <polyline points="19,16 19,17 18,18 18,19 18,20 18,21 18,22 18,23 18,24 18,25 18,26 18,27 18,28 18,29 18,30 18,31 17,32 17,33 17,34 17,35 17,36 17,37 17,38 17,39 17,40 17,41 17,42 17,43 17,44 17,45 17,46 17,47 16,48 16,49 16,50 16,51 16,52 16,53 16,54" fill="none" stroke="#00f0b5" stroke-width="3" stroke-linecap="round" stroke-linejoin="round" opacity="0.95">
    <title>4724 a:1</title>
  </polyline>
</svg>
