<?xml version="1.0" encoding="UTF-8"?>
<svg xmlns="http://www.w3.org/2000/svg" width="40" height="87" viewBox="0 0 40 87">
  <title>atom 4750 a:1</title>
  <metadata>{&quot;entityType&quot;:&quot;atom&quot;,&quot;entityId&quot;:&quot;4750&quot;,&quot;token&quot;:&quot;a:1&quot;,&quot;signature&quot;:&quot;a:1&quot;,&quot;imageName&quot;:&quot;page-004.jpg&quot;,&quot;imageId&quot;:4,&quot;bounds&quot;:{&quot;x&quot;:2043,&quot;y&quot;:2512,&quot;w&quot;:40,&quot;h&quot;:87},&quot;atoms&quot;:[{&quot;id&quot;:4750,&quot;token&quot;:&quot;a:1&quot;,&quot;particle_id&quot;:&quot;img4-m64-p2&quot;,&quot;molecule_id&quot;:&quot;img4-m64&quot;,&quot;atom_order&quot;:4}]}</metadata>
  <rect x="0" y="0" width="40" height="87" fill="#f8f0d8"/>
  <image href="file:///C:/Users/HHHES/AppData/Roaming/com.voynichlab.datasetcreator/images/1/aff30327-ced8-4ab4-8c9b-190205ebe022.jpg" x="-2043" y="-2512" width="2804" height="3797" opacity="0.92"/>
  <rect x="0.5" y="0.5" width="39" height="86" fill="none" stroke="#111827" stroke-width="1" opacity="0.35"/>
  <polyline points="24,16 24,17 24,18 23,18 23,20 23,22 23,24 23,26 23,27 22,28 22,29 22,31 22,32 22,33 22,34 21,35 21,37 21,38 20,40 20,41 19,43 19,45 19,46 18,48 18,49 18,51 18,52 18,53 17,54 17,55 17,56 17,57 17,58 17,59 17,60 17,62 17,63 17,64 17,65 17,66 17,67 17,68 17,69 17,70 16,71" fill="none" stroke="#00f0b5" stroke-width="3" stroke-linecap="round" stroke-linejoin="round" opacity="0.95">
    <title>4750 a:1</title>
  </polyline>
</svg>
