<?xml version="1.0" encoding="UTF-8"?>
<svg xmlns="http://www.w3.org/2000/svg" width="47" height="78" viewBox="0 0 47 78">
  <title>atom 2669 h:1</title>
  <metadata>{&quot;entityType&quot;:&quot;atom&quot;,&quot;entityId&quot;:&quot;2669&quot;,&quot;token&quot;:&quot;h:1&quot;,&quot;signature&quot;:&quot;h:1&quot;,&quot;imageName&quot;:&quot;page-094.jpg&quot;,&quot;imageId&quot;:94,&quot;bounds&quot;:{&quot;x&quot;:1748,&quot;y&quot;:547,&quot;w&quot;:47,&quot;h&quot;:78},&quot;atoms&quot;:[{&quot;id&quot;:2669,&quot;token&quot;:&quot;h:1&quot;,&quot;particle_id&quot;:&quot;img94-m4-p5&quot;,&quot;molecule_id&quot;:&quot;img94-m4&quot;,&quot;atom_order&quot;:2}]}</metadata>
  <rect x="0" y="0" width="47" height="78" fill="#f8f0d8"/>
  <image href="file:///C:/Users/HHHES/AppData/Roaming/com.voynichlab.datasetcreator/images/1/33b1988f-7aaa-4207-bfa8-f26b742ac4b1.jpg" x="-1748" y="-547" width="2932" height="3769" opacity="0.92"/>
  <rect x="0.5" y="0.5" width="46" height="77" fill="none" stroke="#111827" stroke-width="1" opacity="0.35"/>
  <polyline points="16,16 17,17 18,17 18,18 19,18 20,18 20,19 21,19 21,20 22,20 22,21 23,21 23,22 23,23 24,23 24,24 24,25 25,25 25,26 26,26 26,27 26,28 27,29 27,30 28,30 28,31 28,32 29,32 29,33 29,34 30,34 30,35 30,36 31,36 31,37 31,38 31,39 31,40 31,41 31,42 31,43 31,44 31,45 31,46 31,47 31,48 31,49 31,50 31,51 31,52 31,53 31,54 31,55 30,56 30,57 29,58 28,59 28,60 27,61 26,62" fill="none" stroke="#ff8c00" stroke-width="3" stroke-linecap="round" stroke-linejoin="round" opacity="0.95">
    <title>2669 h:1</title>
  </polyline>
</svg>
