<?xml version="1.0" encoding="UTF-8"?>
<svg xmlns="http://www.w3.org/2000/svg" width="49" height="86" viewBox="0 0 49 86">
  <title>atom 2969 h:1</title>
  <metadata>{&quot;entityType&quot;:&quot;atom&quot;,&quot;entityId&quot;:&quot;2969&quot;,&quot;token&quot;:&quot;h:1&quot;,&quot;signature&quot;:&quot;h:1&quot;,&quot;imageName&quot;:&quot;page-094.jpg&quot;,&quot;imageId&quot;:94,&quot;bounds&quot;:{&quot;x&quot;:1601,&quot;y&quot;:873,&quot;w&quot;:49,&quot;h&quot;:86},&quot;atoms&quot;:[{&quot;id&quot;:2969,&quot;token&quot;:&quot;h:1&quot;,&quot;particle_id&quot;:&quot;img94-m31-p3&quot;,&quot;molecule_id&quot;:&quot;img94-m31&quot;,&quot;atom_order&quot;:2}]}</metadata>
  <rect x="0" y="0" width="49" height="86" fill="#f8f0d8"/>
  <image href="file:///C:/Users/HHHES/AppData/Roaming/com.voynichlab.datasetcreator/images/1/33b1988f-7aaa-4207-bfa8-f26b742ac4b1.jpg" x="-1601" y="-873" width="2932" height="3769" opacity="0.92"/>
  <rect x="0.5" y="0.5" width="48" height="85" fill="none" stroke="#111827" stroke-width="1" opacity="0.35"/>
  <polyline points="16,16 17,16 17,17 18,17 18,18 19,18 19,19 20,19 20,20 21,21 21,22 22,22 23,23 24,24 24,25 25,25 25,26 26,27 27,28 27,29 28,29 28,30 28,31 29,32 29,33 30,34 30,35 30,36 30,37 31,38 31,39 31,40 31,41 32,42 32,43 32,44 32,45 32,46 32,47 32,48 32,49 32,50 33,52 33,53 33,54 33,55 33,56 33,57 33,58 33,60 33,61 33,62 32,63 32,64 32,65 32,66 31,66 31,67 31,68 30,69 30,70" fill="none" stroke="#ff8c00" stroke-width="3" stroke-linecap="round" stroke-linejoin="round" opacity="0.95">
    <title>2969 h:1</title>
  </polyline>
</svg>
