<?xml version="1.0" encoding="UTF-8"?>
<svg xmlns="http://www.w3.org/2000/svg" width="45" height="81" viewBox="0 0 45 81">
  <title>atom 2972 h:1</title>
  <metadata>{&quot;entityType&quot;:&quot;atom&quot;,&quot;entityId&quot;:&quot;2972&quot;,&quot;token&quot;:&quot;h:1&quot;,&quot;signature&quot;:&quot;h:1&quot;,&quot;imageName&quot;:&quot;page-094.jpg&quot;,&quot;imageId&quot;:94,&quot;bounds&quot;:{&quot;x&quot;:1874,&quot;y&quot;:889,&quot;w&quot;:45,&quot;h&quot;:81},&quot;atoms&quot;:[{&quot;id&quot;:2972,&quot;token&quot;:&quot;h:1&quot;,&quot;particle_id&quot;:&quot;img94-m28-p2&quot;,&quot;molecule_id&quot;:&quot;img94-m28&quot;,&quot;atom_order&quot;:2}]}</metadata>
  <rect x="0" y="0" width="45" height="81" fill="#f8f0d8"/>
  <image href="file:///C:/Users/HHHES/AppData/Roaming/com.voynichlab.datasetcreator/images/1/33b1988f-7aaa-4207-bfa8-f26b742ac4b1.jpg" x="-1874" y="-889" width="2932" height="3769" opacity="0.92"/>
  <rect x="0.5" y="0.5" width="44" height="80" fill="none" stroke="#111827" stroke-width="1" opacity="0.35"/>
  <polyline points="16,16 17,16 17,17 18,17 19,17 19,18 20,18 21,18 21,19 22,19 22,20 23,20 23,21 24,21 24,22 25,22 25,23 25,24 26,24 26,25 26,26 27,26 27,27 27,28 28,29 28,30 28,31 28,32 29,32 29,33 29,34 29,35 29,36 29,37 29,38 29,39 28,39 28,40 28,41 28,42 28,43 28,45 28,46 27,47 27,48 27,49 26,50 26,51 26,52 25,53 25,54 24,55 24,56 24,57 23,58 23,59 22,59 22,60 22,61 21,62 20,63 20,64 19,65" fill="none" stroke="#ff8c00" stroke-width="3" stroke-linecap="round" stroke-linejoin="round" opacity="0.95">
    <title>2972 h:1</title>
  </polyline>
</svg>
