<?xml version="1.0" encoding="UTF-8"?>
<svg xmlns="http://www.w3.org/2000/svg" width="51" height="90" viewBox="0 0 51 90">
  <title>atom 2973 h:1</title>
  <metadata>{&quot;entityType&quot;:&quot;atom&quot;,&quot;entityId&quot;:&quot;2973&quot;,&quot;token&quot;:&quot;h:1&quot;,&quot;signature&quot;:&quot;h:1&quot;,&quot;imageName&quot;:&quot;page-094.jpg&quot;,&quot;imageId&quot;:94,&quot;bounds&quot;:{&quot;x&quot;:2139,&quot;y&quot;:919,&quot;w&quot;:51,&quot;h&quot;:90},&quot;atoms&quot;:[{&quot;id&quot;:2973,&quot;token&quot;:&quot;h:1&quot;,&quot;particle_id&quot;:&quot;img94-m32-p4&quot;,&quot;molecule_id&quot;:&quot;img94-m32&quot;,&quot;atom_order&quot;:2}]}</metadata>
  <rect x="0" y="0" width="51" height="90" fill="#f8f0d8"/>
  <image href="file:///C:/Users/HHHES/AppData/Roaming/com.voynichlab.datasetcreator/images/1/33b1988f-7aaa-4207-bfa8-f26b742ac4b1.jpg" x="-2139" y="-919" width="2932" height="3769" opacity="0.92"/>
  <rect x="0.5" y="0.5" width="50" height="89" fill="none" stroke="#111827" stroke-width="1" opacity="0.35"/>
  <polyline points="16,16 17,16 18,16 19,17 20,17 21,17 21,18 22,18 23,19 24,19 24,20 25,20 26,20 26,21 27,21 27,22 28,22 28,23 29,23 29,24 30,25 31,26 31,27 32,28 32,29 33,29 33,30 33,31 33,32 34,32 34,33 34,34 34,35 34,36 34,37 34,38 35,39 35,40 35,41 35,42 35,43 35,44 35,45 35,46 35,47 34,47 34,48 34,49 34,50 34,51 34,52 33,53 33,54 33,55 33,56 32,57 32,58 32,59 31,60 31,61 31,62 30,62 30,63 30,64 30,65 29,66 28,67 28,68 27,69 27,70 26,71 26,72 25,72 25,73 25,74 24,74" fill="none" stroke="#ff8c00" stroke-width="3" stroke-linecap="round" stroke-linejoin="round" opacity="0.95">
    <title>2973 h:1</title>
  </polyline>
</svg>
