<?xml version="1.0" encoding="UTF-8"?>
<svg xmlns="http://www.w3.org/2000/svg" width="48" height="46" viewBox="0 0 48 46">
  <title>atom 4801 c:2</title>
  <metadata>{&quot;entityType&quot;:&quot;atom&quot;,&quot;entityId&quot;:&quot;4801&quot;,&quot;token&quot;:&quot;c:2&quot;,&quot;signature&quot;:&quot;c:2&quot;,&quot;imageName&quot;:&quot;page-004.jpg&quot;,&quot;imageId&quot;:4,&quot;bounds&quot;:{&quot;x&quot;:781,&quot;y&quot;:2049,&quot;w&quot;:48,&quot;h&quot;:46},&quot;atoms&quot;:[{&quot;id&quot;:4801,&quot;token&quot;:&quot;c:2&quot;,&quot;particle_id&quot;:&quot;img4-m13-p1&quot;,&quot;molecule_id&quot;:&quot;img4-m13&quot;,&quot;atom_order&quot;:5}]}</metadata>
  <rect x="0" y="0" width="48" height="46" fill="#f8f0d8"/>

  <rect x="0.5" y="0.5" width="47" height="45" fill="none" stroke="#111827" stroke-width="1" opacity="0.35"/>
  <polyline points="19,18 19,19 18,19 18,20 18,21 17,21 17,22 17,23 17,24 17,25 17,26 17,27 18,27 18,28 19,28 20,29 21,29 22,29 22,30 23,30 24,30 25,30 26,30 27,30 28,29 29,29 29,28 30,28 30,27 31,26 31,25 31,24 32,24 32,23 32,22 32,21 32,20 32,19 31,19 31,18 30,18 29,17 28,17 27,17 26,17 26,16 25,16 24,16 23,16 22,16 21,16 20,17 19,17 18,18 17,19 17,20 17,21 16,21 16,22 16,23 16,24 17,24 17,25 17,26 18,26 18,27 19,27 20,28 21,28 22,29 23,29 24,29 25,29 26,29 27,28 28,27 28,26 29,26 29,25 29,24 29,23 30,23 30,22 30,21 30,20 29,20 28,19 27,19 27,18 26,18 25,18 24,18 23,18 22,18 21,18 20,19 19,19 19,20 18,20 18,21 18,22 18,23 18,24 19,24 19,25 20,25 20,26 21,26 22,27 23,27 23,28 24,28 25,28 26,28 27,28 28,27 29,26 29,25 30,24 30,23 30,22 30,21 29,20 28,19 27,19 26,19 25,18 24,18 23,18 22,19 21,20 20,21 19,22 19,24 19,25 20,27 21,27 23,28 24,28 25,27 26,27 27,26 27,25 28,24 28,23 28,22 27,21 26,21 25,20 24,20 22,21 20,22 18,24 17,25 18,27 20,29 23,29 27,29 29,28 30,27 30,26 30,25 29,24 28,23 26,22 22,21 20,22 18,23 18,25 18,27 19,28 20,28 22,28 23,28 24,28 25,27 26,27 27,26 27,25 27,24 26,24 26,23 25,23 25,24 24,24 23,25 23,26 23,27 23,28 24,28 25,28 26,27 27,27 28,26 28,25 28,24 27,23 27,22 26,22 24,21 23,21 22,21 21,22 21,23 21,24 21,25 23,25 24,25 25,25 26,25 27,24 27,23 27,22 26,20 25,20 24,19 23,19 22,19 21,19 20,19 19,20 19,22 19,23 20,24 22,25 24,24 25,24 26,24 28,23 28,22 28,21 28,20 27,19 27,18 25,18 25,17 24,17 24,18 23,20 22,22 21,23 21,24 22,24 23,24 24,23 25,22 26,21 26,20 25,18 24,18 24,17 22,17 21,17 20,17 19,17 18,18 18,19 18,20 18,21 18,22 19,23 20,23 21,23 22,23 23,23 24,22 24,21 25,19 24,18 23,18 21,18 20,18 18,20 17,21 17,23 17,24 18,24 19,24 20,24 21,23 22,23 23,21 23,20 23,19 22,18 20,17 19,17 18,17 17,18 17,20 16,20 17,23 18,26 21,28 23,28 24,28 26,28 26,27 27,27 27,26 27,25 26,24 26,23 25,23 25,22 24,22 23,22 23,23 22,23 21,24 21,25 21,26 22,26 23,26 24,26 26,26 27,26 27,25 27,24 26,24 25,23 24,24 24,25 23,25 23,27 23,28 24,28 25,27 26,27 26,26 26,25 25,26 25,27 25,26 26,26 26,25 26,26 25,26 24,27 23,27 24,27 25,27 26,27 27,28 27,29 27,28 28,27 29,27 29,26 30,26 30,27 29,27 29,26 29,25 30,24 30,23 31,23 31,24 31,23 31,22 31,21 30,21 30,22 30,23 31,23 31,22 32,22 31,21 30,21 29,21 28,21 27,21 27,22 28,22 29,22 30,22 31,21 31,20 30,20 30,19 29,19 29,18 28,18 28,19 28,20 28,21 29,21 29,20 29,19 29,18 28,18 27,18 26,18 26,19 26,20 27,20 28,20 29,20 29,19 29,18 28,17 27,17 26,17 25,17 23,17 22,17 22,18 22,19 22,20 23,20 24,20 25,20 25,19 25,18 24,18 23,18 22,18 21,18 21,19 20,20 20,21 20,22 21,23 22,23 22,22 23,22 23,21 23,20 23,19 22,19 21,20 20,21 20,22 21,21 22,21 21,21 20,21 19,22 18,23 19,22 20,21 21,21 21,20 20,20 19,21 19,22 20,22 21,21 22,20 22,19 21,20 20,21 20,22 21,22 22,22 24,23 24,24 25,25 25,26 24,26 24,27 23,27 23,26 22,26 21,26 20,26 21,25 22,25 23,24 24,24 25,25 25,26 25,27 24,27 24,28 23,28 22,27 22,26 21,25 21,24 22,23 23,22 25,22 26,22 28,23 28,24 28,25 27,25 27,26 26,26 25,26 24,26 23,26 23,25 23,24 24,23 25,23 26,23 27,23 27,24 27,25 27,27 26,28 24,28 23,28 21,28 19,27 18,26 17,25 17,24 18,23 20,23 24,23 27,23 28,23 28,24 27,24 26,24 25,24 24,25 23,25 23,24" fill="none" stroke="#8aff00" stroke-width="3" stroke-linecap="round" stroke-linejoin="round" opacity="0.95">
    <title>4801 c:2</title>
  </polyline>
</svg>
