<?xml version="1.0" encoding="UTF-8"?>
<svg xmlns="http://www.w3.org/2000/svg" width="59" height="40" viewBox="0 0 59 40">
  <title>atom 1024 d:1</title>
  <metadata>{&quot;entityType&quot;:&quot;atom&quot;,&quot;entityId&quot;:&quot;1024&quot;,&quot;token&quot;:&quot;d:1&quot;,&quot;signature&quot;:&quot;d:1&quot;,&quot;imageName&quot;:&quot;page-003.jpg&quot;,&quot;imageId&quot;:3,&quot;bounds&quot;:{&quot;x&quot;:1044,&quot;y&quot;:484,&quot;w&quot;:59,&quot;h&quot;:40},&quot;atoms&quot;:[{&quot;id&quot;:1024,&quot;token&quot;:&quot;d:1&quot;,&quot;particle_id&quot;:&quot;img3-m5-p2&quot;,&quot;molecule_id&quot;:&quot;img3-m5&quot;,&quot;atom_order&quot;:3}]}</metadata>
  <rect x="0" y="0" width="59" height="40" fill="#f8f0d8"/>
  <image href="file:///C:/Users/HHHES/AppData/Roaming/com.voynichlab.datasetcreator/images/1/35a70f63-88ab-4986-b441-b78046a10087.jpg" x="-1044" y="-484" width="2972" height="3766" opacity="0.92"/>
  <rect x="0.5" y="0.5" width="58" height="39" fill="none" stroke="#111827" stroke-width="1" opacity="0.35"/>
  <polyline points="43,24 43,23 42,23 42,22 42,21 41,21 41,20 40,20 40,19 39,19 38,19 38,18 37,18 36,18 35,18 35,17 34,17 33,17 32,17 31,17 31,16 30,16 29,16 28,16 27,16 26,16 25,17 24,17 23,17 22,17 22,18 21,18 20,18 20,19 19,19 18,19 18,20 17,20 17,21 16,21 16,22" fill="none" stroke="#ff2d55" stroke-width="3" stroke-linecap="round" stroke-linejoin="round" opacity="0.95">
    <title>1024 d:1</title>
  </polyline>
</svg>
