<?xml version="1.0" encoding="UTF-8"?>
<svg xmlns="http://www.w3.org/2000/svg" width="54" height="42" viewBox="0 0 54 42">
  <title>atom 1033 d:1</title>
  <metadata>{&quot;entityType&quot;:&quot;atom&quot;,&quot;entityId&quot;:&quot;1033&quot;,&quot;token&quot;:&quot;d:1&quot;,&quot;signature&quot;:&quot;d:1&quot;,&quot;imageName&quot;:&quot;page-003.jpg&quot;,&quot;imageId&quot;:3,&quot;bounds&quot;:{&quot;x&quot;:644,&quot;y&quot;:592,&quot;w&quot;:54,&quot;h&quot;:42},&quot;atoms&quot;:[{&quot;id&quot;:1033,&quot;token&quot;:&quot;d:1&quot;,&quot;particle_id&quot;:&quot;img3-m15-p3&quot;,&quot;molecule_id&quot;:&quot;img3-m15&quot;,&quot;atom_order&quot;:3}]}</metadata>
  <rect x="0" y="0" width="54" height="42" fill="#f8f0d8"/>
  <image href="file:///C:/Users/HHHES/AppData/Roaming/com.voynichlab.datasetcreator/images/1/35a70f63-88ab-4986-b441-b78046a10087.jpg" x="-644" y="-592" width="2972" height="3766" opacity="0.92"/>
  <rect x="0.5" y="0.5" width="53" height="41" fill="none" stroke="#111827" stroke-width="1" opacity="0.35"/>
  <polyline points="16,25 17,25 17,24 18,23 18,22 19,22 20,22 20,21 21,21 21,20 22,20 22,19 23,19 24,19 24,18 25,18 26,18 26,17 27,17 28,17 29,17 29,16 30,16 31,16 32,16 33,16 34,16 34,17 35,17 35,18 36,18 36,19 36,20 37,20 37,21 37,22 38,22 38,23 38,24 38,25 38,26" fill="none" stroke="#ff2d55" stroke-width="3" stroke-linecap="round" stroke-linejoin="round" opacity="0.95">
    <title>1033 d:1</title>
  </polyline>
</svg>
