<?xml version="1.0" encoding="UTF-8"?>
<svg xmlns="http://www.w3.org/2000/svg" width="75" height="41" viewBox="0 0 75 41">
  <title>atom 1083 d:1</title>
  <metadata>{&quot;entityType&quot;:&quot;atom&quot;,&quot;entityId&quot;:&quot;1083&quot;,&quot;token&quot;:&quot;d:1&quot;,&quot;signature&quot;:&quot;d:1&quot;,&quot;imageName&quot;:&quot;page-003.jpg&quot;,&quot;imageId&quot;:3,&quot;bounds&quot;:{&quot;x&quot;:1620,&quot;y&quot;:468,&quot;w&quot;:75,&quot;h&quot;:41},&quot;atoms&quot;:[{&quot;id&quot;:1083,&quot;token&quot;:&quot;d:1&quot;,&quot;particle_id&quot;:&quot;img3-m3-p3&quot;,&quot;molecule_id&quot;:&quot;img3-m3&quot;,&quot;atom_order&quot;:3}]}</metadata>
  <rect x="0" y="0" width="75" height="41" fill="#f8f0d8"/>
  <image href="file:///C:/Users/HHHES/AppData/Roaming/com.voynichlab.datasetcreator/images/1/35a70f63-88ab-4986-b441-b78046a10087.jpg" x="-1620" y="-468" width="2972" height="3766" opacity="0.92"/>
  <rect x="0.5" y="0.5" width="74" height="40" fill="none" stroke="#111827" stroke-width="1" opacity="0.35"/>
  <polyline points="59,25 59,24 58,24 58,23 57,23 57,22 56,22 56,21 55,20 54,20 54,19 53,19 52,19 51,18 50,18 49,18 49,17 48,17 47,17 46,17 45,17 44,17 43,17 42,16 41,16 40,16 39,16 38,16 37,16 36,16 35,16 34,16 33,16 32,16 31,16 31,17 30,17 29,17 28,17 27,17 27,18 26,18 25,18 24,18 24,19 23,19 22,19 22,20 21,20 20,21 19,21 19,22 18,22 18,23 17,23 17,24 16,24 16,25" fill="none" stroke="#ff2d55" stroke-width="3" stroke-linecap="round" stroke-linejoin="round" opacity="0.95">
    <title>1083 d:1</title>
  </polyline>
</svg>
