<?xml version="1.0" encoding="UTF-8"?>
<svg xmlns="http://www.w3.org/2000/svg" width="77" height="42" viewBox="0 0 77 42">
  <title>atom 1111 d:1</title>
  <metadata>{&quot;entityType&quot;:&quot;atom&quot;,&quot;entityId&quot;:&quot;1111&quot;,&quot;token&quot;:&quot;d:1&quot;,&quot;signature&quot;:&quot;d:1&quot;,&quot;imageName&quot;:&quot;page-003.jpg&quot;,&quot;imageId&quot;:3,&quot;bounds&quot;:{&quot;x&quot;:1901,&quot;y&quot;:471,&quot;w&quot;:77,&quot;h&quot;:42},&quot;atoms&quot;:[{&quot;id&quot;:1111,&quot;token&quot;:&quot;d:1&quot;,&quot;particle_id&quot;:&quot;img3-m2-p4&quot;,&quot;molecule_id&quot;:&quot;img3-m2&quot;,&quot;atom_order&quot;:3}]}</metadata>
  <rect x="0" y="0" width="77" height="42" fill="#f8f0d8"/>
  <image href="file:///C:/Users/HHHES/AppData/Roaming/com.voynichlab.datasetcreator/images/1/35a70f63-88ab-4986-b441-b78046a10087.jpg" x="-1901" y="-471" width="2972" height="3766" opacity="0.92"/>
  <rect x="0.5" y="0.5" width="76" height="41" fill="none" stroke="#111827" stroke-width="1" opacity="0.35"/>
  <polyline points="16,22 16,21 17,21 18,21 18,20 19,20 19,19 20,19 21,19 21,18 22,18 23,18 24,18 24,17 25,17 26,17 27,17 28,17 29,16 30,16 31,16 32,16 33,16 34,16 35,16 36,16 37,16 38,16 39,16 40,16 41,16 42,16 42,17 43,17 44,17 45,17 46,17 47,17 48,17 48,18 49,18 50,18 50,19 51,19 52,19 52,20 53,20 53,21 54,21 55,21 55,22 56,22 57,23 58,23 58,24 59,24 59,25 60,25 60,26 61,26" fill="none" stroke="#ff2d55" stroke-width="3" stroke-linecap="round" stroke-linejoin="round" opacity="0.95">
    <title>1111 d:1</title>
  </polyline>
</svg>
