<?xml version="1.0" encoding="UTF-8"?>
<svg xmlns="http://www.w3.org/2000/svg" width="63" height="39" viewBox="0 0 63 39">
  <title>atom 1160 d:1</title>
  <metadata>{&quot;entityType&quot;:&quot;atom&quot;,&quot;entityId&quot;:&quot;1160&quot;,&quot;token&quot;:&quot;d:1&quot;,&quot;signature&quot;:&quot;d:1&quot;,&quot;imageName&quot;:&quot;page-003.jpg&quot;,&quot;imageId&quot;:3,&quot;bounds&quot;:{&quot;x&quot;:990,&quot;y&quot;:593,&quot;w&quot;:63,&quot;h&quot;:39},&quot;atoms&quot;:[{&quot;id&quot;:1160,&quot;token&quot;:&quot;d:1&quot;,&quot;particle_id&quot;:&quot;img3-m18-p3&quot;,&quot;molecule_id&quot;:&quot;img3-m18&quot;,&quot;atom_order&quot;:3}]}</metadata>
  <rect x="0" y="0" width="63" height="39" fill="#f8f0d8"/>
  <image href="file:///C:/Users/HHHES/AppData/Roaming/com.voynichlab.datasetcreator/images/1/35a70f63-88ab-4986-b441-b78046a10087.jpg" x="-990" y="-593" width="2972" height="3766" opacity="0.92"/>
  <rect x="0.5" y="0.5" width="62" height="38" fill="none" stroke="#111827" stroke-width="1" opacity="0.35"/>
  <polyline points="47,22 46,22 45,21 44,21 44,20 43,20 43,19 42,19 41,19 40,18 39,18 38,18 38,17 37,17 36,17 35,17 35,16 34,16 33,16 32,16 31,16 30,16 29,16 28,16 27,16 26,16 26,17 25,17 24,17 23,17 23,18 22,18 21,19 20,19 20,20 19,20 19,21 18,21 18,22 17,22 16,23" fill="none" stroke="#ff2d55" stroke-width="3" stroke-linecap="round" stroke-linejoin="round" opacity="0.95">
    <title>1160 d:1</title>
  </polyline>
</svg>
