<?xml version="1.0" encoding="UTF-8"?>
<svg xmlns="http://www.w3.org/2000/svg" width="71" height="37" viewBox="0 0 71 37">
  <title>atom 1177 d:1</title>
  <metadata>{&quot;entityType&quot;:&quot;atom&quot;,&quot;entityId&quot;:&quot;1177&quot;,&quot;token&quot;:&quot;d:1&quot;,&quot;signature&quot;:&quot;d:1&quot;,&quot;imageName&quot;:&quot;page-003.jpg&quot;,&quot;imageId&quot;:3,&quot;bounds&quot;:{&quot;x&quot;:1181,&quot;y&quot;:578,&quot;w&quot;:71,&quot;h&quot;:37},&quot;atoms&quot;:[{&quot;id&quot;:1177,&quot;token&quot;:&quot;d:1&quot;,&quot;particle_id&quot;:&quot;img3-m12-p2&quot;,&quot;molecule_id&quot;:&quot;img3-m12&quot;,&quot;atom_order&quot;:5}]}</metadata>
  <rect x="0" y="0" width="71" height="37" fill="#f8f0d8"/>
  <image href="file:///C:/Users/HHHES/AppData/Roaming/com.voynichlab.datasetcreator/images/1/35a70f63-88ab-4986-b441-b78046a10087.jpg" x="-1181" y="-578" width="2972" height="3766" opacity="0.92"/>
  <rect x="0.5" y="0.5" width="70" height="36" fill="none" stroke="#111827" stroke-width="1" opacity="0.35"/>
  <polyline points="55,21 54,20 53,20 53,19 52,19 51,18 50,18 49,18 49,17 48,17 47,17 46,17 45,17 44,17 43,17 42,17 41,16 40,16 39,16 38,16 37,16 36,16 35,16 34,16 33,16 32,16 31,17 30,17 29,17 28,17 27,17 26,17 26,18 25,18 24,18 23,18 22,18 21,18 21,19 20,19 19,19 18,19 17,20 16,20 16,21" fill="none" stroke="#ff2d55" stroke-width="3" stroke-linecap="round" stroke-linejoin="round" opacity="0.95">
    <title>1177 d:1</title>
  </polyline>
</svg>
