<?xml version="1.0" encoding="UTF-8"?>
<svg xmlns="http://www.w3.org/2000/svg" width="125" height="56" viewBox="0 0 125 56">
  <title>atom 1196 d:1</title>
  <metadata>{&quot;entityType&quot;:&quot;atom&quot;,&quot;entityId&quot;:&quot;1196&quot;,&quot;token&quot;:&quot;d:1&quot;,&quot;signature&quot;:&quot;d:1&quot;,&quot;imageName&quot;:&quot;page-003.jpg&quot;,&quot;imageId&quot;:3,&quot;bounds&quot;:{&quot;x&quot;:1409,&quot;y&quot;:571,&quot;w&quot;:125,&quot;h&quot;:56},&quot;atoms&quot;:[{&quot;id&quot;:1196,&quot;token&quot;:&quot;d:1&quot;,&quot;particle_id&quot;:&quot;img3-m17-p4&quot;,&quot;molecule_id&quot;:&quot;img3-m17&quot;,&quot;atom_order&quot;:4}]}</metadata>
  <rect x="0" y="0" width="125" height="56" fill="#f8f0d8"/>
  <image href="file:///C:/Users/HHHES/AppData/Roaming/com.voynichlab.datasetcreator/images/1/35a70f63-88ab-4986-b441-b78046a10087.jpg" x="-1409" y="-571" width="2972" height="3766" opacity="0.92"/>
  <rect x="0.5" y="0.5" width="124" height="55" fill="none" stroke="#111827" stroke-width="1" opacity="0.35"/>
  <polyline points="16,40 17,39 18,39 18,38 19,38 20,38 20,37 21,37 22,37 22,36 23,36 24,35 25,35 26,35 26,34 27,34 27,33 28,33 29,33 29,32 30,32 31,31 32,31 33,30 34,30 34,29 35,29 36,28 37,28 38,27 39,27 39,26 40,26 41,26 41,25 42,25 43,24 44,24 44,23 45,23 46,23 46,22 47,22 48,22 49,21 50,21 51,21 51,20 52,20 53,20 54,19 55,19 56,19 57,19 57,18 58,18 59,18 60,18 61,18 61,17 62,17 63,17 64,17 65,17 66,17 67,17 67,16 68,16 69,16 70,16 71,16 72,16 73,16 74,16 75,16 76,16 77,16 78,16 79,16 80,16 81,16 82,16 83,16 84,16 85,16 86,16 87,16 88,16 89,16 90,16 91,16 92,16 93,16 94,16 95,16 96,16 97,16 98,16 99,17 100,17 101,17 102,18 103,18 104,18 104,19 105,19 106,19 106,20 107,20 107,21 108,21 109,21" fill="none" stroke="#ff2d55" stroke-width="3" stroke-linecap="round" stroke-linejoin="round" opacity="0.95">
    <title>1196 d:1</title>
  </polyline>
</svg>
