<?xml version="1.0" encoding="UTF-8"?>
<svg xmlns="http://www.w3.org/2000/svg" width="78" height="41" viewBox="0 0 78 41">
  <title>atom 1285 d:1</title>
  <metadata>{&quot;entityType&quot;:&quot;atom&quot;,&quot;entityId&quot;:&quot;1285&quot;,&quot;token&quot;:&quot;d:1&quot;,&quot;signature&quot;:&quot;d:1&quot;,&quot;imageName&quot;:&quot;page-003.jpg&quot;,&quot;imageId&quot;:3,&quot;bounds&quot;:{&quot;x&quot;:2210,&quot;y&quot;:578,&quot;w&quot;:78,&quot;h&quot;:41},&quot;atoms&quot;:[{&quot;id&quot;:1285,&quot;token&quot;:&quot;d:1&quot;,&quot;particle_id&quot;:&quot;img3-m11-p3&quot;,&quot;molecule_id&quot;:&quot;img3-m11&quot;,&quot;atom_order&quot;:3}]}</metadata>
  <rect x="0" y="0" width="78" height="41" fill="#f8f0d8"/>
  <image href="file:///C:/Users/HHHES/AppData/Roaming/com.voynichlab.datasetcreator/images/1/35a70f63-88ab-4986-b441-b78046a10087.jpg" x="-2210" y="-578" width="2972" height="3766" opacity="0.92"/>
  <rect x="0.5" y="0.5" width="77" height="40" fill="none" stroke="#111827" stroke-width="1" opacity="0.35"/>
  <polyline points="16,25 17,25 17,24 18,24 18,23 19,23 20,23 21,22 22,22 23,22 23,21 24,21 25,21 25,20 26,20 27,20 27,19 28,19 29,19 29,18 30,18 31,18 32,18 32,17 33,17 34,17 35,17 36,17 37,17 38,17 38,16 39,16 40,16 41,16 42,16 43,16 44,16 45,16 46,16 47,16 47,17 48,17 49,17 50,17 51,17 52,17 52,18 53,18 54,18 55,18 55,19 56,19 57,19 57,20 58,20 59,20 59,21 60,21 60,22 61,22 61,23 62,23 62,24" fill="none" stroke="#ff2d55" stroke-width="3" stroke-linecap="round" stroke-linejoin="round" opacity="0.95">
    <title>1285 d:1</title>
  </polyline>
</svg>
