<?xml version="1.0" encoding="UTF-8"?>
<svg xmlns="http://www.w3.org/2000/svg" width="83" height="53" viewBox="0 0 83 53">
  <title>atom 1333 d:1</title>
  <metadata>{&quot;entityType&quot;:&quot;atom&quot;,&quot;entityId&quot;:&quot;1333&quot;,&quot;token&quot;:&quot;d:1&quot;,&quot;signature&quot;:&quot;d:1&quot;,&quot;imageName&quot;:&quot;page-003.jpg&quot;,&quot;imageId&quot;:3,&quot;bounds&quot;:{&quot;x&quot;:531,&quot;y&quot;:439,&quot;w&quot;:83,&quot;h&quot;:53},&quot;atoms&quot;:[{&quot;id&quot;:1333,&quot;token&quot;:&quot;d:1&quot;,&quot;particle_id&quot;:&quot;img3-m1-p1&quot;,&quot;molecule_id&quot;:&quot;img3-m1&quot;,&quot;atom_order&quot;:6}]}</metadata>
  <rect x="0" y="0" width="83" height="53" fill="#f8f0d8"/>
  <image href="file:///C:/Users/HHHES/AppData/Roaming/com.voynichlab.datasetcreator/images/1/35a70f63-88ab-4986-b441-b78046a10087.jpg" x="-531" y="-439" width="2972" height="3766" opacity="0.92"/>
  <rect x="0.5" y="0.5" width="82" height="52" fill="none" stroke="#111827" stroke-width="1" opacity="0.35"/>
  <polyline points="16,37 16,36 17,36 17,35 18,35 18,34 19,34 19,33 19,32 20,32 21,31 22,31 22,30 23,29 24,29 24,28 25,28 25,27 26,27 26,26 27,26 27,25 28,25 29,24 30,24 30,23 31,23 31,22 32,22 33,22 33,21 34,21 35,21 35,20 36,20 37,20 38,20 38,19 39,19 40,19 41,19 41,18 42,18 43,18 44,18 45,18 45,17 46,17 47,17 48,17 49,17 50,17 51,16 52,16 53,16 54,16 55,16 56,16 57,16 58,16 59,16 60,16 61,16 62,16 63,16 64,16 65,16 66,16 67,16" fill="none" stroke="#ff2d55" stroke-width="3" stroke-linecap="round" stroke-linejoin="round" opacity="0.95">
    <title>1333 d:1</title>
  </polyline>
</svg>
