<?xml version="1.0" encoding="UTF-8"?>
<svg xmlns="http://www.w3.org/2000/svg" width="113" height="56" viewBox="0 0 113 56">
  <title>atom 1336 d:1</title>
  <metadata>{&quot;entityType&quot;:&quot;atom&quot;,&quot;entityId&quot;:&quot;1336&quot;,&quot;token&quot;:&quot;d:1&quot;,&quot;signature&quot;:&quot;d:1&quot;,&quot;imageName&quot;:&quot;page-003.jpg&quot;,&quot;imageId&quot;:3,&quot;bounds&quot;:{&quot;x&quot;:497,&quot;y&quot;:674,&quot;w&quot;:113,&quot;h&quot;:56},&quot;atoms&quot;:[{&quot;id&quot;:1336,&quot;token&quot;:&quot;d:1&quot;,&quot;particle_id&quot;:&quot;img3-m23-p1&quot;,&quot;molecule_id&quot;:&quot;img3-m23&quot;,&quot;atom_order&quot;:3}]}</metadata>
  <rect x="0" y="0" width="113" height="56" fill="#f8f0d8"/>
  <image href="file:///C:/Users/HHHES/AppData/Roaming/com.voynichlab.datasetcreator/images/1/35a70f63-88ab-4986-b441-b78046a10087.jpg" x="-497" y="-674" width="2972" height="3766" opacity="0.92"/>
  <rect x="0.5" y="0.5" width="112" height="55" fill="none" stroke="#111827" stroke-width="1" opacity="0.35"/>
  <polyline points="16,40 17,40 17,39 18,39 19,38 19,37 20,37 21,36 22,36 22,35 23,35 23,34 24,34 25,34 25,33 26,33 26,32 27,32 28,32 29,31 30,31 30,30 31,30 32,30 32,29 33,29 34,29 34,28 35,28 36,28 37,27 38,27 39,26 40,26 41,25 42,25 43,25 43,24 44,24 45,24 46,23 47,23 48,23 48,22 49,22 50,22 51,22 51,21 52,21 53,21 54,21 55,21 56,20 57,20 58,20 59,20 60,20 61,20 61,19 62,19 63,19 64,19 65,19 65,18 66,18 67,18 68,18 69,18 70,17 71,17 72,17 73,17 74,17 75,17 76,17 76,16 77,16 78,16 79,16 80,16 81,16 83,16 84,16 85,16 86,16 87,16 88,16 89,16 90,16 91,16 92,16 93,16 94,16 95,16 96,17 97,17" fill="none" stroke="#ff2d55" stroke-width="3" stroke-linecap="round" stroke-linejoin="round" opacity="0.95">
    <title>1336 d:1</title>
  </polyline>
</svg>
