<?xml version="1.0" encoding="UTF-8"?>
<svg xmlns="http://www.w3.org/2000/svg" width="76" height="44" viewBox="0 0 76 44">
  <title>atom 1346 d:1</title>
  <metadata>{&quot;entityType&quot;:&quot;atom&quot;,&quot;entityId&quot;:&quot;1346&quot;,&quot;token&quot;:&quot;d:1&quot;,&quot;signature&quot;:&quot;d:1&quot;,&quot;imageName&quot;:&quot;page-003.jpg&quot;,&quot;imageId&quot;:3,&quot;bounds&quot;:{&quot;x&quot;:721,&quot;y&quot;:677,&quot;w&quot;:76,&quot;h&quot;:44},&quot;atoms&quot;:[{&quot;id&quot;:1346,&quot;token&quot;:&quot;d:1&quot;,&quot;particle_id&quot;:&quot;img3-m28-p2&quot;,&quot;molecule_id&quot;:&quot;img3-m28&quot;,&quot;atom_order&quot;:4}]}</metadata>
  <rect x="0" y="0" width="76" height="44" fill="#f8f0d8"/>
  <image href="file:///C:/Users/HHHES/AppData/Roaming/com.voynichlab.datasetcreator/images/1/35a70f63-88ab-4986-b441-b78046a10087.jpg" x="-721" y="-677" width="2972" height="3766" opacity="0.92"/>
  <rect x="0.5" y="0.5" width="75" height="43" fill="none" stroke="#111827" stroke-width="1" opacity="0.35"/>
  <polyline points="16,27 17,27 17,26 18,26 18,25 19,25 19,24 20,24 20,23 21,23 22,22 23,22 23,21 24,21 24,20 25,20 25,19 26,19 27,19 27,18 28,18 29,18 29,17 30,17 31,17 32,17 32,16 33,16 34,16 35,16 36,16 37,16 38,16 39,16 39,17 40,17 41,17 42,17 43,18 44,18 45,18 45,19 46,19 47,19 47,20 48,20 49,20 49,21 50,21 51,22 52,22 53,22 53,23 54,23 55,23 55,24 56,24 57,24 57,25 58,25 58,26 59,26 60,27 60,28" fill="none" stroke="#ff2d55" stroke-width="3" stroke-linecap="round" stroke-linejoin="round" opacity="0.95">
    <title>1346 d:1</title>
  </polyline>
</svg>
