<?xml version="1.0" encoding="UTF-8"?>
<svg xmlns="http://www.w3.org/2000/svg" width="63" height="42" viewBox="0 0 63 42">
  <title>atom 1408 d:1</title>
  <metadata>{&quot;entityType&quot;:&quot;atom&quot;,&quot;entityId&quot;:&quot;1408&quot;,&quot;token&quot;:&quot;d:1&quot;,&quot;signature&quot;:&quot;d:1&quot;,&quot;imageName&quot;:&quot;page-003.jpg&quot;,&quot;imageId&quot;:3,&quot;bounds&quot;:{&quot;x&quot;:1725,&quot;y&quot;:652,&quot;w&quot;:63,&quot;h&quot;:42},&quot;atoms&quot;:[{&quot;id&quot;:1408,&quot;token&quot;:&quot;d:1&quot;,&quot;particle_id&quot;:&quot;img3-m19-p4&quot;,&quot;molecule_id&quot;:&quot;img3-m19&quot;,&quot;atom_order&quot;:3}]}</metadata>
  <rect x="0" y="0" width="63" height="42" fill="#f8f0d8"/>
  <image href="file:///C:/Users/HHHES/AppData/Roaming/com.voynichlab.datasetcreator/images/1/35a70f63-88ab-4986-b441-b78046a10087.jpg" x="-1725" y="-652" width="2972" height="3766" opacity="0.92"/>
  <rect x="0.5" y="0.5" width="62" height="41" fill="none" stroke="#111827" stroke-width="1" opacity="0.35"/>
  <polyline points="16,26 16,25 17,25 17,24 17,23 18,23 18,22 18,21 19,21 20,21 20,20 21,20 21,19 22,19 23,18 24,18 24,17 25,17 26,17 26,16 27,16 28,16 29,16 30,16 31,16 32,16 33,16 34,16 35,16 36,16 37,16 38,16 39,16 40,16 40,17 41,17 41,18 42,18 43,19 44,19 44,20 45,20 45,21 45,22 46,22 46,23 46,24 47,24 47,25 47,26" fill="none" stroke="#ff2d55" stroke-width="3" stroke-linecap="round" stroke-linejoin="round" opacity="0.95">
    <title>1408 d:1</title>
  </polyline>
</svg>
