<?xml version="1.0" encoding="UTF-8"?>
<svg xmlns="http://www.w3.org/2000/svg" width="75" height="48" viewBox="0 0 75 48">
  <title>atom 1437 d:1</title>
  <metadata>{&quot;entityType&quot;:&quot;atom&quot;,&quot;entityId&quot;:&quot;1437&quot;,&quot;token&quot;:&quot;d:1&quot;,&quot;signature&quot;:&quot;d:1&quot;,&quot;imageName&quot;:&quot;page-003.jpg&quot;,&quot;imageId&quot;:3,&quot;bounds&quot;:{&quot;x&quot;:1950,&quot;y&quot;:657,&quot;w&quot;:75,&quot;h&quot;:48},&quot;atoms&quot;:[{&quot;id&quot;:1437,&quot;token&quot;:&quot;d:1&quot;,&quot;particle_id&quot;:&quot;img3-m20-p3&quot;,&quot;molecule_id&quot;:&quot;img3-m20&quot;,&quot;atom_order&quot;:3}]}</metadata>
  <rect x="0" y="0" width="75" height="48" fill="#f8f0d8"/>
  <image href="file:///C:/Users/HHHES/AppData/Roaming/com.voynichlab.datasetcreator/images/1/35a70f63-88ab-4986-b441-b78046a10087.jpg" x="-1950" y="-657" width="2972" height="3766" opacity="0.92"/>
  <rect x="0.5" y="0.5" width="74" height="47" fill="none" stroke="#111827" stroke-width="1" opacity="0.35"/>
  <polyline points="16,32 16,31 17,31 18,31 18,30 19,30 19,29 20,29 20,28 21,28 22,27 23,26 24,26 24,25 25,25 25,24 26,24 27,24 27,23 28,23 29,22 30,22 30,21 31,21 32,21 32,20 33,20 34,20 34,19 35,19 36,19 36,18 37,18 38,18 39,18 39,17 40,17 41,17 42,16 43,16 44,16 45,16 46,16 47,16 48,16 49,16 50,16 51,16 52,16 53,16 54,16 55,16 56,16 57,16 58,16 58,17 59,18" fill="none" stroke="#ff2d55" stroke-width="3" stroke-linecap="round" stroke-linejoin="round" opacity="0.95">
    <title>1437 d:1</title>
  </polyline>
</svg>
