<?xml version="1.0" encoding="UTF-8"?>
<svg xmlns="http://www.w3.org/2000/svg" width="61" height="41" viewBox="0 0 61 41">
  <title>atom 1471 d:1</title>
  <metadata>{&quot;entityType&quot;:&quot;atom&quot;,&quot;entityId&quot;:&quot;1471&quot;,&quot;token&quot;:&quot;d:1&quot;,&quot;signature&quot;:&quot;d:1&quot;,&quot;imageName&quot;:&quot;page-003.jpg&quot;,&quot;imageId&quot;:3,&quot;bounds&quot;:{&quot;x&quot;:2236,&quot;y&quot;:661,&quot;w&quot;:61,&quot;h&quot;:41},&quot;atoms&quot;:[{&quot;id&quot;:1471,&quot;token&quot;:&quot;d:1&quot;,&quot;particle_id&quot;:&quot;img3-m22-p5&quot;,&quot;molecule_id&quot;:&quot;img3-m22&quot;,&quot;atom_order&quot;:4}]}</metadata>
  <rect x="0" y="0" width="61" height="41" fill="#f8f0d8"/>
  <image href="file:///C:/Users/HHHES/AppData/Roaming/com.voynichlab.datasetcreator/images/1/35a70f63-88ab-4986-b441-b78046a10087.jpg" x="-2236" y="-661" width="2972" height="3766" opacity="0.92"/>
  <rect x="0.5" y="0.5" width="60" height="40" fill="none" stroke="#111827" stroke-width="1" opacity="0.35"/>
  <polyline points="16,19 17,19 17,18 18,18 19,18 19,17 20,17 21,17 22,17 23,17 23,16 24,16 25,16 26,16 27,16 28,16 28,17 29,17 30,17 31,17 31,18 32,18 33,18 33,19 34,19 35,19 35,20 36,20 37,20 37,21 38,21 39,21 39,22 40,22 41,22 41,23 42,23 43,23 43,24 44,24 44,25 45,25" fill="none" stroke="#ff2d55" stroke-width="3" stroke-linecap="round" stroke-linejoin="round" opacity="0.95">
    <title>1471 d:1</title>
  </polyline>
</svg>
