<?xml version="1.0" encoding="UTF-8"?>
<svg xmlns="http://www.w3.org/2000/svg" width="68" height="40" viewBox="0 0 68 40">
  <title>atom 1493 d:1</title>
  <metadata>{&quot;entityType&quot;:&quot;atom&quot;,&quot;entityId&quot;:&quot;1493&quot;,&quot;token&quot;:&quot;d:1&quot;,&quot;signature&quot;:&quot;d:1&quot;,&quot;imageName&quot;:&quot;page-003.jpg&quot;,&quot;imageId&quot;:3,&quot;bounds&quot;:{&quot;x&quot;:660,&quot;y&quot;:769,&quot;w&quot;:68,&quot;h&quot;:40},&quot;atoms&quot;:[{&quot;id&quot;:1493,&quot;token&quot;:&quot;d:1&quot;,&quot;particle_id&quot;:&quot;img3-m33-p3&quot;,&quot;molecule_id&quot;:&quot;img3-m33&quot;,&quot;atom_order&quot;:4}]}</metadata>
  <rect x="0" y="0" width="68" height="40" fill="#f8f0d8"/>
  <image href="file:///C:/Users/HHHES/AppData/Roaming/com.voynichlab.datasetcreator/images/1/35a70f63-88ab-4986-b441-b78046a10087.jpg" x="-660" y="-769" width="2972" height="3766" opacity="0.92"/>
  <rect x="0.5" y="0.5" width="67" height="39" fill="none" stroke="#111827" stroke-width="1" opacity="0.35"/>
  <polyline points="16,18 17,18 18,18 18,17 19,17 20,17 20,16 21,16 22,16 23,16 24,16 25,16 26,16 27,16 28,16 29,16 30,16 31,16 32,16 33,16 34,17 35,17 36,17 37,17 37,18 38,18 39,18 40,18 40,19 41,19 42,19 43,19 43,20 44,20 45,20 46,20 46,21 47,21 48,21 48,22 49,22 50,22 50,23 51,23 51,24 52,24" fill="none" stroke="#ff2d55" stroke-width="3" stroke-linecap="round" stroke-linejoin="round" opacity="0.95">
    <title>1493 d:1</title>
  </polyline>
</svg>
