<?xml version="1.0" encoding="UTF-8"?>
<svg xmlns="http://www.w3.org/2000/svg" width="87" height="37" viewBox="0 0 87 37">
  <title>atom 1587 d:1</title>
  <metadata>{&quot;entityType&quot;:&quot;atom&quot;,&quot;entityId&quot;:&quot;1587&quot;,&quot;token&quot;:&quot;d:1&quot;,&quot;signature&quot;:&quot;d:1&quot;,&quot;imageName&quot;:&quot;page-003.jpg&quot;,&quot;imageId&quot;:3,&quot;bounds&quot;:{&quot;x&quot;:2017,&quot;y&quot;:751,&quot;w&quot;:87,&quot;h&quot;:37},&quot;atoms&quot;:[{&quot;id&quot;:1587,&quot;token&quot;:&quot;d:1&quot;,&quot;particle_id&quot;:&quot;img3-m34-p4&quot;,&quot;molecule_id&quot;:&quot;img3-m34&quot;,&quot;atom_order&quot;:4}]}</metadata>
  <rect x="0" y="0" width="87" height="37" fill="#f8f0d8"/>
  <image href="file:///C:/Users/HHHES/AppData/Roaming/com.voynichlab.datasetcreator/images/1/35a70f63-88ab-4986-b441-b78046a10087.jpg" x="-2017" y="-751" width="2972" height="3766" opacity="0.92"/>
  <rect x="0.5" y="0.5" width="86" height="36" fill="none" stroke="#111827" stroke-width="1" opacity="0.35"/>
  <polyline points="16,16 17,16 18,16 19,16 20,16 21,16 22,16 23,16 24,16 25,16 26,16 27,16 28,16 29,16 30,16 31,16 32,16 33,16 33,17 34,17 35,17 36,17 37,17 38,17 39,17 40,17 41,17 42,17 43,17 44,18 45,18 46,18 47,18 48,18 49,18 50,18 51,18 52,18 53,18 54,18 55,18 56,19 57,19 58,19 59,19 60,19 61,19 62,19 63,19 64,19 65,19 66,19 67,19 68,19 69,20 70,20 71,20 71,21" fill="none" stroke="#ff2d55" stroke-width="3" stroke-linecap="round" stroke-linejoin="round" opacity="0.95">
    <title>1587 d:1</title>
  </polyline>
</svg>
