<?xml version="1.0" encoding="UTF-8"?>
<svg xmlns="http://www.w3.org/2000/svg" width="52" height="38" viewBox="0 0 52 38">
  <title>atom 1630 d:1</title>
  <metadata>{&quot;entityType&quot;:&quot;atom&quot;,&quot;entityId&quot;:&quot;1630&quot;,&quot;token&quot;:&quot;d:1&quot;,&quot;signature&quot;:&quot;d:1&quot;,&quot;imageName&quot;:&quot;page-003.jpg&quot;,&quot;imageId&quot;:3,&quot;bounds&quot;:{&quot;x&quot;:572,&quot;y&quot;:853,&quot;w&quot;:52,&quot;h&quot;:38},&quot;atoms&quot;:[{&quot;id&quot;:1630,&quot;token&quot;:&quot;d:1&quot;,&quot;particle_id&quot;:&quot;img3-m41-p1&quot;,&quot;molecule_id&quot;:&quot;img3-m41&quot;,&quot;atom_order&quot;:3}]}</metadata>
  <rect x="0" y="0" width="52" height="38" fill="#f8f0d8"/>
  <image href="file:///C:/Users/HHHES/AppData/Roaming/com.voynichlab.datasetcreator/images/1/35a70f63-88ab-4986-b441-b78046a10087.jpg" x="-572" y="-853" width="2972" height="3766" opacity="0.92"/>
  <rect x="0.5" y="0.5" width="51" height="37" fill="none" stroke="#111827" stroke-width="1" opacity="0.35"/>
  <polyline points="16,20 16,19 17,19 18,18 19,18 20,18 20,17 21,17 22,17 22,16 23,16 24,16 25,16 26,16 27,16 28,16 29,16 30,16 30,17 31,17 32,17 32,18 33,19 34,19 34,20 35,20 35,21 35,22 36,22" fill="none" stroke="#ff2d55" stroke-width="3" stroke-linecap="round" stroke-linejoin="round" opacity="0.95">
    <title>1630 d:1</title>
  </polyline>
</svg>
