<?xml version="1.0" encoding="UTF-8"?>
<svg xmlns="http://www.w3.org/2000/svg" width="100" height="49" viewBox="0 0 100 49">
  <title>atom 1658 d:1</title>
  <metadata>{&quot;entityType&quot;:&quot;atom&quot;,&quot;entityId&quot;:&quot;1658&quot;,&quot;token&quot;:&quot;d:1&quot;,&quot;signature&quot;:&quot;d:1&quot;,&quot;imageName&quot;:&quot;page-003.jpg&quot;,&quot;imageId&quot;:3,&quot;bounds&quot;:{&quot;x&quot;:1103,&quot;y&quot;:837,&quot;w&quot;:100,&quot;h&quot;:49},&quot;atoms&quot;:[{&quot;id&quot;:1658,&quot;token&quot;:&quot;d:1&quot;,&quot;particle_id&quot;:&quot;img3-m38-p3&quot;,&quot;molecule_id&quot;:&quot;img3-m38&quot;,&quot;atom_order&quot;:4}]}</metadata>
  <rect x="0" y="0" width="100" height="49" fill="#f8f0d8"/>
  <image href="file:///C:/Users/HHHES/AppData/Roaming/com.voynichlab.datasetcreator/images/1/35a70f63-88ab-4986-b441-b78046a10087.jpg" x="-1103" y="-837" width="2972" height="3766" opacity="0.92"/>
  <rect x="0.5" y="0.5" width="99" height="48" fill="none" stroke="#111827" stroke-width="1" opacity="0.35"/>
  <polyline points="16,19 17,19 17,18 18,18 19,18 20,18 20,17 21,17 22,17 23,17 24,17 25,16 26,16 27,16 28,16 29,16 30,16 31,16 32,16 33,16 33,17 34,17 35,17 36,17 37,17 37,18 38,18 39,18 40,18 41,18 42,18 42,19 43,19 44,19 45,19 45,20 46,20 47,20 48,20 49,21 50,21 51,21 51,22 52,22 53,22 54,22 55,22 55,23 56,23 57,23 58,23 59,23 59,24 60,24 61,24 61,25 62,25 63,25 63,26 64,26 65,26 66,27 67,27 68,27 68,28 69,28 70,28 70,29 71,29 72,29 73,29 74,30 75,30 76,30 77,30 77,31 78,31 79,31 80,31 80,32 81,32 82,32 82,33 83,33 84,33" fill="none" stroke="#ff2d55" stroke-width="3" stroke-linecap="round" stroke-linejoin="round" opacity="0.95">
    <title>1658 d:1</title>
  </polyline>
</svg>
