<?xml version="1.0" encoding="UTF-8"?>
<svg xmlns="http://www.w3.org/2000/svg" width="93" height="37" viewBox="0 0 93 37">
  <title>atom 1699 d:1</title>
  <metadata>{&quot;entityType&quot;:&quot;atom&quot;,&quot;entityId&quot;:&quot;1699&quot;,&quot;token&quot;:&quot;d:1&quot;,&quot;signature&quot;:&quot;d:1&quot;,&quot;imageName&quot;:&quot;page-003.jpg&quot;,&quot;imageId&quot;:3,&quot;bounds&quot;:{&quot;x&quot;:1216,&quot;y&quot;:857,&quot;w&quot;:93,&quot;h&quot;:37},&quot;atoms&quot;:[{&quot;id&quot;:1699,&quot;token&quot;:&quot;d:1&quot;,&quot;particle_id&quot;:&quot;img3-m39-p1&quot;,&quot;molecule_id&quot;:&quot;img3-m39&quot;,&quot;atom_order&quot;:7}]}</metadata>
  <rect x="0" y="0" width="93" height="37" fill="#f8f0d8"/>
  <image href="file:///C:/Users/HHHES/AppData/Roaming/com.voynichlab.datasetcreator/images/1/35a70f63-88ab-4986-b441-b78046a10087.jpg" x="-1216" y="-857" width="2972" height="3766" opacity="0.92"/>
  <rect x="0.5" y="0.5" width="92" height="36" fill="none" stroke="#111827" stroke-width="1" opacity="0.35"/>
  <polyline points="16,21 17,21 18,21 19,20 20,20 21,20 22,20 22,19 23,19 24,19 25,19 26,19 27,19 28,19 29,19 30,18 31,18 32,18 33,18 34,18 35,17 36,17 37,17 38,17 39,17 40,17 41,17 41,16 42,16 43,16 44,16 45,16 46,16 47,16 48,16 49,16 50,16 51,16 52,16 53,16 54,16 55,16 56,16 57,16 58,16 59,16 60,16 61,16 62,16 63,16 64,16 65,16 65,17 66,17 67,17 68,17 69,17 70,17 70,18 71,18 72,18 73,18 73,19 74,19 75,19 76,20 77,20" fill="none" stroke="#ff2d55" stroke-width="3" stroke-linecap="round" stroke-linejoin="round" opacity="0.95">
    <title>1699 d:1</title>
  </polyline>
</svg>
