<?xml version="1.0" encoding="UTF-8"?>
<svg xmlns="http://www.w3.org/2000/svg" width="79" height="38" viewBox="0 0 79 38">
  <title>atom 1713 d:1</title>
  <metadata>{&quot;entityType&quot;:&quot;atom&quot;,&quot;entityId&quot;:&quot;1713&quot;,&quot;token&quot;:&quot;d:1&quot;,&quot;signature&quot;:&quot;d:1&quot;,&quot;imageName&quot;:&quot;page-003.jpg&quot;,&quot;imageId&quot;:3,&quot;bounds&quot;:{&quot;x&quot;:1451,&quot;y&quot;:833,&quot;w&quot;:79,&quot;h&quot;:38},&quot;atoms&quot;:[{&quot;id&quot;:1713,&quot;token&quot;:&quot;d:1&quot;,&quot;particle_id&quot;:&quot;img3-m37-p1&quot;,&quot;molecule_id&quot;:&quot;img3-m37&quot;,&quot;atom_order&quot;:7}]}</metadata>
  <rect x="0" y="0" width="79" height="38" fill="#f8f0d8"/>
  <image href="file:///C:/Users/HHHES/AppData/Roaming/com.voynichlab.datasetcreator/images/1/35a70f63-88ab-4986-b441-b78046a10087.jpg" x="-1451" y="-833" width="2972" height="3766" opacity="0.92"/>
  <rect x="0.5" y="0.5" width="78" height="37" fill="none" stroke="#111827" stroke-width="1" opacity="0.35"/>
  <polyline points="16,21 17,21 17,20 18,20 19,20 19,19 20,19 21,19 21,18 22,18 23,18 24,18 25,18 25,17 26,17 27,17 28,17 29,17 30,17 30,16 31,16 32,16 33,16 34,16 35,16 36,16 37,16 38,16 39,16 40,16 41,16 42,16 43,16 44,16 45,16 46,16 47,16 48,16 49,16 50,16 51,17 52,17 53,17 54,17 55,17 56,18 57,18 58,18 58,19 59,19 59,20 60,20 61,21 62,21 62,22 63,22" fill="none" stroke="#ff2d55" stroke-width="3" stroke-linecap="round" stroke-linejoin="round" opacity="0.95">
    <title>1713 d:1</title>
  </polyline>
</svg>
