<?xml version="1.0" encoding="UTF-8"?>
<svg xmlns="http://www.w3.org/2000/svg" width="69" height="36" viewBox="0 0 69 36">
  <title>atom 1748 d:1</title>
  <metadata>{&quot;entityType&quot;:&quot;atom&quot;,&quot;entityId&quot;:&quot;1748&quot;,&quot;token&quot;:&quot;d:1&quot;,&quot;signature&quot;:&quot;d:1&quot;,&quot;imageName&quot;:&quot;page-003.jpg&quot;,&quot;imageId&quot;:3,&quot;bounds&quot;:{&quot;x&quot;:2148,&quot;y&quot;:835,&quot;w&quot;:69,&quot;h&quot;:36},&quot;atoms&quot;:[{&quot;id&quot;:1748,&quot;token&quot;:&quot;d:1&quot;,&quot;particle_id&quot;:&quot;img3-m40-p4&quot;,&quot;molecule_id&quot;:&quot;img3-m40&quot;,&quot;atom_order&quot;:3}]}</metadata>
  <rect x="0" y="0" width="69" height="36" fill="#f8f0d8"/>
  <image href="file:///C:/Users/HHHES/AppData/Roaming/com.voynichlab.datasetcreator/images/1/35a70f63-88ab-4986-b441-b78046a10087.jpg" x="-2148" y="-835" width="2972" height="3766" opacity="0.92"/>
  <rect x="0.5" y="0.5" width="68" height="35" fill="none" stroke="#111827" stroke-width="1" opacity="0.35"/>
  <polyline points="16,19 17,19 17,18 18,18 19,18 20,18 21,18 22,18 22,17 23,17 24,17 25,17 26,17 27,17 28,17 28,16 29,16 30,16 31,16 32,16 33,16 34,16 35,16 36,16 37,16 38,16 39,16 40,16 41,16 42,16 43,16 44,17 45,17 46,17 47,17 48,17 48,18 49,18 50,18 51,19 52,19 52,20 53,20" fill="none" stroke="#ff2d55" stroke-width="3" stroke-linecap="round" stroke-linejoin="round" opacity="0.95">
    <title>1748 d:1</title>
  </polyline>
</svg>
