<?xml version="1.0" encoding="UTF-8"?>
<svg xmlns="http://www.w3.org/2000/svg" width="92" height="46" viewBox="0 0 92 46">
  <title>atom 1771 d:1</title>
  <metadata>{&quot;entityType&quot;:&quot;atom&quot;,&quot;entityId&quot;:&quot;1771&quot;,&quot;token&quot;:&quot;d:1&quot;,&quot;signature&quot;:&quot;d:1&quot;,&quot;imageName&quot;:&quot;page-003.jpg&quot;,&quot;imageId&quot;:3,&quot;bounds&quot;:{&quot;x&quot;:808,&quot;y&quot;:1007,&quot;w&quot;:92,&quot;h&quot;:46},&quot;atoms&quot;:[{&quot;id&quot;:1771,&quot;token&quot;:&quot;d:1&quot;,&quot;particle_id&quot;:&quot;img3-m46-p4&quot;,&quot;molecule_id&quot;:&quot;img3-m46&quot;,&quot;atom_order&quot;:3}]}</metadata>
  <rect x="0" y="0" width="92" height="46" fill="#f8f0d8"/>
  <image href="file:///C:/Users/HHHES/AppData/Roaming/com.voynichlab.datasetcreator/images/1/35a70f63-88ab-4986-b441-b78046a10087.jpg" x="-808" y="-1007" width="2972" height="3766" opacity="0.92"/>
  <rect x="0.5" y="0.5" width="91" height="45" fill="none" stroke="#111827" stroke-width="1" opacity="0.35"/>
  <polyline points="16,30 21,26 26,24 26,23 27,23 28,23 28,22 29,22 29,21 30,21 31,21 31,20 32,20 33,20 34,20 34,19 35,19 36,19 36,18 37,18 38,18 39,18 39,17 40,17 41,17 42,17 43,17 44,17 45,16 46,16 47,16 48,16 49,16 50,16 51,16 52,16 53,16 54,16 54,17 55,17 56,17 57,17 58,17 59,17 60,18 61,18 62,18 63,18 63,19 64,19 65,19 65,20 66,20 67,20 68,21 69,21 69,22 70,22 70,23 71,23 72,24 73,24 73,25 74,25 75,25 75,26 76,26" fill="none" stroke="#ff2d55" stroke-width="3" stroke-linecap="round" stroke-linejoin="round" opacity="0.95">
    <title>1771 d:1</title>
  </polyline>
</svg>
