<?xml version="1.0" encoding="UTF-8"?>
<svg xmlns="http://www.w3.org/2000/svg" width="76" height="44" viewBox="0 0 76 44">
  <title>atom 1855 d:1</title>
  <metadata>{&quot;entityType&quot;:&quot;atom&quot;,&quot;entityId&quot;:&quot;1855&quot;,&quot;token&quot;:&quot;d:1&quot;,&quot;signature&quot;:&quot;d:1&quot;,&quot;imageName&quot;:&quot;page-003.jpg&quot;,&quot;imageId&quot;:3,&quot;bounds&quot;:{&quot;x&quot;:1748,&quot;y&quot;:1022,&quot;w&quot;:76,&quot;h&quot;:44},&quot;atoms&quot;:[{&quot;id&quot;:1855,&quot;token&quot;:&quot;d:1&quot;,&quot;particle_id&quot;:&quot;img3-m47-p3&quot;,&quot;molecule_id&quot;:&quot;img3-m47&quot;,&quot;atom_order&quot;:3}]}</metadata>
  <rect x="0" y="0" width="76" height="44" fill="#f8f0d8"/>
  <image href="file:///C:/Users/HHHES/AppData/Roaming/com.voynichlab.datasetcreator/images/1/35a70f63-88ab-4986-b441-b78046a10087.jpg" x="-1748" y="-1022" width="2972" height="3766" opacity="0.92"/>
  <rect x="0.5" y="0.5" width="75" height="43" fill="none" stroke="#111827" stroke-width="1" opacity="0.35"/>
  <polyline points="16,28 17,28 17,27 18,27 18,26 19,26 19,25 20,25 20,24 21,24 21,23 22,23 22,22 23,22 24,21 25,21 25,20 26,20 27,20 27,19 28,19 29,19 29,18 30,18 31,18 32,18 32,17 33,17 34,17 35,17 36,16 37,16 38,16 39,16 40,16 41,16 42,16 43,16 44,16 45,16 46,16 47,16 47,17 48,17 49,17 50,17 50,18 51,18 52,18 53,18 53,19 54,19 55,19 56,19 57,20 58,20 58,21 59,21 59,22 60,22" fill="none" stroke="#ff2d55" stroke-width="3" stroke-linecap="round" stroke-linejoin="round" opacity="0.95">
    <title>1855 d:1</title>
  </polyline>
</svg>
