<?xml version="1.0" encoding="UTF-8"?>
<svg xmlns="http://www.w3.org/2000/svg" width="84" height="40" viewBox="0 0 84 40">
  <title>atom 1876 d:1</title>
  <metadata>{&quot;entityType&quot;:&quot;atom&quot;,&quot;entityId&quot;:&quot;1876&quot;,&quot;token&quot;:&quot;d:1&quot;,&quot;signature&quot;:&quot;d:1&quot;,&quot;imageName&quot;:&quot;page-003.jpg&quot;,&quot;imageId&quot;:3,&quot;bounds&quot;:{&quot;x&quot;:1994,&quot;y&quot;:1032,&quot;w&quot;:84,&quot;h&quot;:40},&quot;atoms&quot;:[{&quot;id&quot;:1876,&quot;token&quot;:&quot;d:1&quot;,&quot;particle_id&quot;:&quot;img3-m43-p4&quot;,&quot;molecule_id&quot;:&quot;img3-m43&quot;,&quot;atom_order&quot;:4}]}</metadata>
  <rect x="0" y="0" width="84" height="40" fill="#f8f0d8"/>
  <image href="file:///C:/Users/HHHES/AppData/Roaming/com.voynichlab.datasetcreator/images/1/35a70f63-88ab-4986-b441-b78046a10087.jpg" x="-1994" y="-1032" width="2972" height="3766" opacity="0.92"/>
  <rect x="0.5" y="0.5" width="83" height="39" fill="none" stroke="#111827" stroke-width="1" opacity="0.35"/>
  <polyline points="16,23 17,23 17,22 18,22 19,22 20,22 20,21 21,21 22,21 22,20 23,20 24,20 25,20 25,19 26,19 27,19 27,18 28,18 29,18 30,18 30,17 31,17 32,17 33,17 34,17 35,16 36,16 37,16 38,16 39,16 40,16 41,16 42,16 43,16 44,16 45,16 46,16 47,17 48,17 49,17 50,17 51,17 52,17 53,18 54,18 55,18 56,18 57,19 58,19 59,19 60,19 60,20 61,20 62,21 63,21 64,21 64,22 65,22 66,22 66,23 67,23 67,24 68,24" fill="none" stroke="#ff2d55" stroke-width="3" stroke-linecap="round" stroke-linejoin="round" opacity="0.95">
    <title>1876 d:1</title>
  </polyline>
</svg>
