<?xml version="1.0" encoding="UTF-8"?>
<svg xmlns="http://www.w3.org/2000/svg" width="77" height="42" viewBox="0 0 77 42">
  <title>atom 1889 d:1</title>
  <metadata>{&quot;entityType&quot;:&quot;atom&quot;,&quot;entityId&quot;:&quot;1889&quot;,&quot;token&quot;:&quot;d:1&quot;,&quot;signature&quot;:&quot;d:1&quot;,&quot;imageName&quot;:&quot;page-003.jpg&quot;,&quot;imageId&quot;:3,&quot;bounds&quot;:{&quot;x&quot;:2249,&quot;y&quot;:1026,&quot;w&quot;:77,&quot;h&quot;:42},&quot;atoms&quot;:[{&quot;id&quot;:1889,&quot;token&quot;:&quot;d:1&quot;,&quot;particle_id&quot;:&quot;img3-m49-p6&quot;,&quot;molecule_id&quot;:&quot;img3-m49&quot;,&quot;atom_order&quot;:3}]}</metadata>
  <rect x="0" y="0" width="77" height="42" fill="#f8f0d8"/>
  <image href="file:///C:/Users/HHHES/AppData/Roaming/com.voynichlab.datasetcreator/images/1/35a70f63-88ab-4986-b441-b78046a10087.jpg" x="-2249" y="-1026" width="2972" height="3766" opacity="0.92"/>
  <rect x="0.5" y="0.5" width="76" height="41" fill="none" stroke="#111827" stroke-width="1" opacity="0.35"/>
  <polyline points="16,26 17,26 17,25 18,25 19,25 19,24 20,24 21,23 22,23 23,22 24,22 25,22 25,21 26,21 26,20 27,20 28,20 29,19 30,19 30,18 31,18 32,18 33,18 33,17 34,17 35,17 35,16 36,16 37,16 38,16 39,16 40,16 41,16 42,16 43,16 44,16 45,16 46,16 47,16 48,17 49,17 50,17 50,18 51,18 52,18 52,19 53,19 54,19 54,20 55,20 56,20 56,21 57,21 57,22 58,22 58,23 59,23 59,24 60,24 60,25 61,25" fill="none" stroke="#ff2d55" stroke-width="3" stroke-linecap="round" stroke-linejoin="round" opacity="0.95">
    <title>1889 d:1</title>
  </polyline>
</svg>
