<?xml version="1.0" encoding="UTF-8"?>
<svg xmlns="http://www.w3.org/2000/svg" width="67" height="43" viewBox="0 0 67 43">
  <title>atom 1983 d:1</title>
  <metadata>{&quot;entityType&quot;:&quot;atom&quot;,&quot;entityId&quot;:&quot;1983&quot;,&quot;token&quot;:&quot;d:1&quot;,&quot;signature&quot;:&quot;d:1&quot;,&quot;imageName&quot;:&quot;page-003.jpg&quot;,&quot;imageId&quot;:3,&quot;bounds&quot;:{&quot;x&quot;:1694,&quot;y&quot;:1122,&quot;w&quot;:67,&quot;h&quot;:43},&quot;atoms&quot;:[{&quot;id&quot;:1983,&quot;token&quot;:&quot;d:1&quot;,&quot;particle_id&quot;:&quot;img3-m52-p2&quot;,&quot;molecule_id&quot;:&quot;img3-m52&quot;,&quot;atom_order&quot;:3}]}</metadata>
  <rect x="0" y="0" width="67" height="43" fill="#f8f0d8"/>
  <image href="file:///C:/Users/HHHES/AppData/Roaming/com.voynichlab.datasetcreator/images/1/35a70f63-88ab-4986-b441-b78046a10087.jpg" x="-1694" y="-1122" width="2972" height="3766" opacity="0.92"/>
  <rect x="0.5" y="0.5" width="66" height="42" fill="none" stroke="#111827" stroke-width="1" opacity="0.35"/>
  <polyline points="16,27 16,26 16,25 16,24 17,24 17,23 18,23 18,22 19,22 19,21 20,21 20,20 21,20 21,19 22,19 23,19 23,18 24,18 25,18 26,18 27,17 28,17 29,17 30,17 31,16 32,16 33,16 34,16 35,16 36,16 37,16 38,16 39,16 39,17 40,17 41,17 42,17 43,17 43,18 44,18 45,18 45,19 46,19 47,19 48,20 49,20 49,21 50,22 51,22 51,23" fill="none" stroke="#ff2d55" stroke-width="3" stroke-linecap="round" stroke-linejoin="round" opacity="0.95">
    <title>1983 d:1</title>
  </polyline>
</svg>
