<?xml version="1.0" encoding="UTF-8"?>
<svg xmlns="http://www.w3.org/2000/svg" width="90" height="46" viewBox="0 0 90 46">
  <title>atom 1990 d:1</title>
  <metadata>{&quot;entityType&quot;:&quot;atom&quot;,&quot;entityId&quot;:&quot;1990&quot;,&quot;token&quot;:&quot;d:1&quot;,&quot;signature&quot;:&quot;d:1&quot;,&quot;imageName&quot;:&quot;page-003.jpg&quot;,&quot;imageId&quot;:3,&quot;bounds&quot;:{&quot;x&quot;:1960,&quot;y&quot;:1136,&quot;w&quot;:90,&quot;h&quot;:46},&quot;atoms&quot;:[{&quot;id&quot;:1990,&quot;token&quot;:&quot;d:1&quot;,&quot;particle_id&quot;:&quot;img3-m51-p3&quot;,&quot;molecule_id&quot;:&quot;img3-m51&quot;,&quot;atom_order&quot;:4}]}</metadata>
  <rect x="0" y="0" width="90" height="46" fill="#f8f0d8"/>
  <image href="file:///C:/Users/HHHES/AppData/Roaming/com.voynichlab.datasetcreator/images/1/35a70f63-88ab-4986-b441-b78046a10087.jpg" x="-1960" y="-1136" width="2972" height="3766" opacity="0.92"/>
  <rect x="0.5" y="0.5" width="89" height="45" fill="none" stroke="#111827" stroke-width="1" opacity="0.35"/>
  <polyline points="16,30 16,29 17,29 17,28 18,28 19,28 19,27 20,27 20,26 21,26 22,25 23,25 23,24 24,24 24,23 25,23 26,22 27,22 27,21 28,21 29,21 29,20 30,20 30,19 31,19 32,19 33,19 33,18 34,18 35,18 35,17 36,17 37,17 38,17 39,17 40,17 41,17 42,17 42,16 43,16 44,16 45,16 46,16 47,16 48,16 49,16 50,16 51,16 52,16 53,16 54,16 55,16 56,16 57,16 58,16 59,16 60,17 61,17 62,17 63,17 64,17 65,18 66,18 67,18 68,18 69,18 69,19 70,19 71,19 72,19 72,20 72,21 73,21 74,21 74,22" fill="none" stroke="#ff2d55" stroke-width="3" stroke-linecap="round" stroke-linejoin="round" opacity="0.95">
    <title>1990 d:1</title>
  </polyline>
</svg>
