<?xml version="1.0" encoding="UTF-8"?>
<svg xmlns="http://www.w3.org/2000/svg" width="73" height="40" viewBox="0 0 73 40">
  <title>atom 1996 d:1</title>
  <metadata>{&quot;entityType&quot;:&quot;atom&quot;,&quot;entityId&quot;:&quot;1996&quot;,&quot;token&quot;:&quot;d:1&quot;,&quot;signature&quot;:&quot;d:1&quot;,&quot;imageName&quot;:&quot;page-003.jpg&quot;,&quot;imageId&quot;:3,&quot;bounds&quot;:{&quot;x&quot;:2151,&quot;y&quot;:1126,&quot;w&quot;:73,&quot;h&quot;:40},&quot;atoms&quot;:[{&quot;id&quot;:1996,&quot;token&quot;:&quot;d:1&quot;,&quot;particle_id&quot;:&quot;img3-m57-p3&quot;,&quot;molecule_id&quot;:&quot;img3-m57&quot;,&quot;atom_order&quot;:3}]}</metadata>
  <rect x="0" y="0" width="73" height="40" fill="#f8f0d8"/>
  <image href="file:///C:/Users/HHHES/AppData/Roaming/com.voynichlab.datasetcreator/images/1/35a70f63-88ab-4986-b441-b78046a10087.jpg" x="-2151" y="-1126" width="2972" height="3766" opacity="0.92"/>
  <rect x="0.5" y="0.5" width="72" height="39" fill="none" stroke="#111827" stroke-width="1" opacity="0.35"/>
  <polyline points="16,24 19,22 23,19 25,18 26,18 27,18 27,17 28,17 29,17 30,17 31,17 32,17 33,17 34,16 35,16 36,16 37,16 38,16 39,16 40,16 41,16 42,16 42,17 43,17 44,17 45,17 46,17 46,18 47,18 48,18 49,18 49,19 50,19 51,19 52,20 53,20 54,21 55,21 56,22 57,22 57,23" fill="none" stroke="#ff2d55" stroke-width="3" stroke-linecap="round" stroke-linejoin="round" opacity="0.95">
    <title>1996 d:1</title>
  </polyline>
</svg>
