<?xml version="1.0" encoding="UTF-8"?>
<svg xmlns="http://www.w3.org/2000/svg" width="57" height="41" viewBox="0 0 57 41">
  <title>atom 2040 d:1</title>
  <metadata>{&quot;entityType&quot;:&quot;atom&quot;,&quot;entityId&quot;:&quot;2040&quot;,&quot;token&quot;:&quot;d:1&quot;,&quot;signature&quot;:&quot;d:1&quot;,&quot;imageName&quot;:&quot;page-003.jpg&quot;,&quot;imageId&quot;:3,&quot;bounds&quot;:{&quot;x&quot;:972,&quot;y&quot;:1211,&quot;w&quot;:57,&quot;h&quot;:41},&quot;atoms&quot;:[{&quot;id&quot;:2040,&quot;token&quot;:&quot;d:1&quot;,&quot;particle_id&quot;:&quot;img3-m59-p1&quot;,&quot;molecule_id&quot;:&quot;img3-m59&quot;,&quot;atom_order&quot;:8}]}</metadata>
  <rect x="0" y="0" width="57" height="41" fill="#f8f0d8"/>
  <image href="file:///C:/Users/HHHES/AppData/Roaming/com.voynichlab.datasetcreator/images/1/35a70f63-88ab-4986-b441-b78046a10087.jpg" x="-972" y="-1211" width="2972" height="3766" opacity="0.92"/>
  <rect x="0.5" y="0.5" width="56" height="40" fill="none" stroke="#111827" stroke-width="1" opacity="0.35"/>
  <polyline points="16,18 18,17 19,17 19,16 20,16 21,16 22,16 23,16 25,16 26,16 27,16 28,16 29,16 30,17 31,17 32,17 33,17 33,18 34,18 35,18 35,19 36,19 36,20 37,20 38,20 40,22 40,23 41,23 41,24 41,25" fill="none" stroke="#ff2d55" stroke-width="3" stroke-linecap="round" stroke-linejoin="round" opacity="0.95">
    <title>2040 d:1</title>
  </polyline>
</svg>
