<?xml version="1.0" encoding="UTF-8"?>
<svg xmlns="http://www.w3.org/2000/svg" width="88" height="38" viewBox="0 0 88 38">
  <title>atom 2095 d:1</title>
  <metadata>{&quot;entityType&quot;:&quot;atom&quot;,&quot;entityId&quot;:&quot;2095&quot;,&quot;token&quot;:&quot;d:1&quot;,&quot;signature&quot;:&quot;d:1&quot;,&quot;imageName&quot;:&quot;page-003.jpg&quot;,&quot;imageId&quot;:3,&quot;bounds&quot;:{&quot;x&quot;:2286,&quot;y&quot;:1114,&quot;w&quot;:88,&quot;h&quot;:38},&quot;atoms&quot;:[{&quot;id&quot;:2095,&quot;token&quot;:&quot;d:1&quot;,&quot;particle_id&quot;:&quot;img3-m50-p3&quot;,&quot;molecule_id&quot;:&quot;img3-m50&quot;,&quot;atom_order&quot;:3}]}</metadata>
  <rect x="0" y="0" width="88" height="38" fill="#f8f0d8"/>
  <image href="file:///C:/Users/HHHES/AppData/Roaming/com.voynichlab.datasetcreator/images/1/35a70f63-88ab-4986-b441-b78046a10087.jpg" x="-2286" y="-1114" width="2972" height="3766" opacity="0.92"/>
  <rect x="0.5" y="0.5" width="87" height="37" fill="none" stroke="#111827" stroke-width="1" opacity="0.35"/>
  <polyline points="16,18 16,17 17,17 18,17 19,17 19,16 20,16 21,16 22,16 23,16 24,16 25,16 26,16 27,16 28,16 29,16 30,16 31,16 32,16 33,16 34,16 35,16 36,16 37,16 38,16 39,16 40,16 41,16 42,16 43,16 44,16 45,16 46,16 47,16 48,16 49,16 50,16 50,17 51,17 52,17 53,17 54,17 55,17 56,17 57,17 57,18 58,18 59,18 60,18 61,18 61,19 62,19 63,19 64,19 64,20 65,20 66,20 67,20 68,20 68,21 69,21 70,21 71,22 72,22" fill="none" stroke="#ff2d55" stroke-width="3" stroke-linecap="round" stroke-linejoin="round" opacity="0.95">
    <title>2095 d:1</title>
  </polyline>
</svg>
