<?xml version="1.0" encoding="UTF-8"?>
<svg xmlns="http://www.w3.org/2000/svg" width="84" height="51" viewBox="0 0 84 51">
  <title>atom 2138 d:1</title>
  <metadata>{&quot;entityType&quot;:&quot;atom&quot;,&quot;entityId&quot;:&quot;2138&quot;,&quot;token&quot;:&quot;d:1&quot;,&quot;signature&quot;:&quot;d:1&quot;,&quot;imageName&quot;:&quot;page-003.jpg&quot;,&quot;imageId&quot;:3,&quot;bounds&quot;:{&quot;x&quot;:967,&quot;y&quot;:1447,&quot;w&quot;:84,&quot;h&quot;:51},&quot;atoms&quot;:[{&quot;id&quot;:2138,&quot;token&quot;:&quot;d:1&quot;,&quot;particle_id&quot;:&quot;img3-m66-p3&quot;,&quot;molecule_id&quot;:&quot;img3-m66&quot;,&quot;atom_order&quot;:3}]}</metadata>
  <rect x="0" y="0" width="84" height="51" fill="#f8f0d8"/>
  <image href="file:///C:/Users/HHHES/AppData/Roaming/com.voynichlab.datasetcreator/images/1/35a70f63-88ab-4986-b441-b78046a10087.jpg" x="-967" y="-1447" width="2972" height="3766" opacity="0.92"/>
  <rect x="0.5" y="0.5" width="83" height="50" fill="none" stroke="#111827" stroke-width="1" opacity="0.35"/>
  <polyline points="16,35 16,34 16,33 17,33 17,32 17,31 17,30 18,30 18,29 18,28 19,28 19,27 19,26 20,26 20,25 21,24 22,24 22,23 23,23 23,22 24,22 25,22 26,21 27,21 27,20 28,20 29,20 30,19 31,19 32,19 33,19 33,18 34,18 35,18 36,17 37,17 38,17 39,17 40,17 41,17 42,17 43,17 44,17 45,17 46,17 47,17 47,16 48,16 49,16 50,16 51,16 52,16 52,17 53,17 54,17 55,17 56,17 56,18 57,18 58,18 58,19 59,19 60,19 61,19 61,20 62,20 63,21 64,21 64,22 65,22 65,23 66,23 66,24 67,24 67,25 68,25 68,26 68,27" fill="none" stroke="#ff2d55" stroke-width="3" stroke-linecap="round" stroke-linejoin="round" opacity="0.95">
    <title>2138 d:1</title>
  </polyline>
</svg>
