<?xml version="1.0" encoding="UTF-8"?>
<svg xmlns="http://www.w3.org/2000/svg" width="106" height="58" viewBox="0 0 106 58">
  <title>atom 2145 d:1</title>
  <metadata>{&quot;entityType&quot;:&quot;atom&quot;,&quot;entityId&quot;:&quot;2145&quot;,&quot;token&quot;:&quot;d:1&quot;,&quot;signature&quot;:&quot;d:1&quot;,&quot;imageName&quot;:&quot;page-003.jpg&quot;,&quot;imageId&quot;:3,&quot;bounds&quot;:{&quot;x&quot;:1049,&quot;y&quot;:1455,&quot;w&quot;:106,&quot;h&quot;:58},&quot;atoms&quot;:[{&quot;id&quot;:2145,&quot;token&quot;:&quot;d:1&quot;,&quot;particle_id&quot;:&quot;img3-m66-p5&quot;,&quot;molecule_id&quot;:&quot;img3-m66&quot;,&quot;atom_order&quot;:4}]}</metadata>
  <rect x="0" y="0" width="106" height="58" fill="#f8f0d8"/>
  <image href="file:///C:/Users/HHHES/AppData/Roaming/com.voynichlab.datasetcreator/images/1/35a70f63-88ab-4986-b441-b78046a10087.jpg" x="-1049" y="-1455" width="2972" height="3766" opacity="0.92"/>
  <rect x="0.5" y="0.5" width="105" height="57" fill="none" stroke="#111827" stroke-width="1" opacity="0.35"/>
  <polyline points="16,42 16,41 16,40 16,39 17,39 17,38 18,37 18,36 19,36 19,35 19,34 20,34 20,33 21,32 22,31 22,30 23,30 23,29 24,29 25,28 26,27 27,27 27,26 28,26 28,25 29,25 29,24 30,24 31,24 32,23 33,23 33,22 34,22 35,22 36,21 37,21 37,20 38,20 39,20 40,19 41,19 42,19 42,18 43,18 44,18 45,18 46,18 47,18 47,17 48,17 49,17 50,17 51,17 52,17 53,17 54,17 55,17 56,17 56,16 57,16 58,16 59,16 60,16 61,16 62,16 62,17 63,17 64,17 65,17 66,17 67,17 68,17 68,18 69,18 70,18 71,18 71,19 72,19 73,19 74,19 74,20 75,20 76,20 77,20 77,21 78,21 79,21 79,22 80,22 81,23 82,23 82,24 83,24 83,25 84,25 85,26 86,26 86,27 87,27 87,28 88,28 88,29 89,29 89,30 89,31 90,31" fill="none" stroke="#ff2d55" stroke-width="3" stroke-linecap="round" stroke-linejoin="round" opacity="0.95">
    <title>2145 d:1</title>
  </polyline>
</svg>
