<?xml version="1.0" encoding="UTF-8"?>
<svg xmlns="http://www.w3.org/2000/svg" width="65" height="39" viewBox="0 0 65 39">
  <title>atom 2154 d:1</title>
  <metadata>{&quot;entityType&quot;:&quot;atom&quot;,&quot;entityId&quot;:&quot;2154&quot;,&quot;token&quot;:&quot;d:1&quot;,&quot;signature&quot;:&quot;d:1&quot;,&quot;imageName&quot;:&quot;page-003.jpg&quot;,&quot;imageId&quot;:3,&quot;bounds&quot;:{&quot;x&quot;:1249,&quot;y&quot;:1472,&quot;w&quot;:65,&quot;h&quot;:39},&quot;atoms&quot;:[{&quot;id&quot;:2154,&quot;token&quot;:&quot;d:1&quot;,&quot;particle_id&quot;:&quot;img3-m69-p3&quot;,&quot;molecule_id&quot;:&quot;img3-m69&quot;,&quot;atom_order&quot;:3}]}</metadata>
  <rect x="0" y="0" width="65" height="39" fill="#f8f0d8"/>
  <image href="file:///C:/Users/HHHES/AppData/Roaming/com.voynichlab.datasetcreator/images/1/35a70f63-88ab-4986-b441-b78046a10087.jpg" x="-1249" y="-1472" width="2972" height="3766" opacity="0.92"/>
  <rect x="0.5" y="0.5" width="64" height="38" fill="none" stroke="#111827" stroke-width="1" opacity="0.35"/>
  <polyline points="16,23 17,23 17,22 18,22 18,21 19,21 19,20 20,20 21,20 21,19 22,19 23,19 23,18 24,18 25,18 26,18 26,17 27,17 28,17 29,17 30,17 30,16 31,16 32,16 33,16 34,16 35,16 36,16 37,16 38,16 39,16 40,16 41,16 42,16 42,17 43,17 44,17 44,18 45,18 46,18 46,19 47,19 47,20 48,20 48,21 49,21 49,22" fill="none" stroke="#ff2d55" stroke-width="3" stroke-linecap="round" stroke-linejoin="round" opacity="0.95">
    <title>2154 d:1</title>
  </polyline>
</svg>
