<?xml version="1.0" encoding="UTF-8"?>
<svg xmlns="http://www.w3.org/2000/svg" width="78" height="50" viewBox="0 0 78 50">
  <title>atom 2225 d:1</title>
  <metadata>{&quot;entityType&quot;:&quot;atom&quot;,&quot;entityId&quot;:&quot;2225&quot;,&quot;token&quot;:&quot;d:1&quot;,&quot;signature&quot;:&quot;d:1&quot;,&quot;imageName&quot;:&quot;page-003.jpg&quot;,&quot;imageId&quot;:3,&quot;bounds&quot;:{&quot;x&quot;:2309,&quot;y&quot;:1462,&quot;w&quot;:78,&quot;h&quot;:50},&quot;atoms&quot;:[{&quot;id&quot;:2225,&quot;token&quot;:&quot;d:1&quot;,&quot;particle_id&quot;:&quot;img3-m68-p7&quot;,&quot;molecule_id&quot;:&quot;img3-m68&quot;,&quot;atom_order&quot;:3}]}</metadata>
  <rect x="0" y="0" width="78" height="50" fill="#f8f0d8"/>
  <image href="file:///C:/Users/HHHES/AppData/Roaming/com.voynichlab.datasetcreator/images/1/35a70f63-88ab-4986-b441-b78046a10087.jpg" x="-2309" y="-1462" width="2972" height="3766" opacity="0.92"/>
  <rect x="0.5" y="0.5" width="77" height="49" fill="none" stroke="#111827" stroke-width="1" opacity="0.35"/>
  <polyline points="16,34 17,33 18,33 18,32 18,31 19,31 19,30 20,30 21,29 21,28 22,28 23,28 23,27 24,27 24,26 25,26 25,25 26,25 26,24 27,24 27,23 28,23 29,23 29,22 30,22 30,21 31,21 31,20 32,20 33,20 33,19 34,19 35,19 35,18 36,18 37,18 37,17 38,17 39,17 40,17 41,17 41,16 42,16 43,16 44,16 47,16 48,16 48,17 49,17 50,17 51,17 51,18 52,18 53,19 54,19 55,19 55,20 56,20 57,20 57,21 58,21 58,22 59,22 60,22 60,23 61,23 62,23" fill="none" stroke="#ff2d55" stroke-width="3" stroke-linecap="round" stroke-linejoin="round" opacity="0.95">
    <title>2225 d:1</title>
  </polyline>
</svg>
