<?xml version="1.0" encoding="UTF-8"?>
<svg xmlns="http://www.w3.org/2000/svg" width="50" height="43" viewBox="0 0 50 43">
  <title>atom 2259 d:1</title>
  <metadata>{&quot;entityType&quot;:&quot;atom&quot;,&quot;entityId&quot;:&quot;2259&quot;,&quot;token&quot;:&quot;d:1&quot;,&quot;signature&quot;:&quot;d:1&quot;,&quot;imageName&quot;:&quot;page-003.jpg&quot;,&quot;imageId&quot;:3,&quot;bounds&quot;:{&quot;x&quot;:1136,&quot;y&quot;:1563,&quot;w&quot;:50,&quot;h&quot;:43},&quot;atoms&quot;:[{&quot;id&quot;:2259,&quot;token&quot;:&quot;d:1&quot;,&quot;particle_id&quot;:&quot;img3-m79-p4&quot;,&quot;molecule_id&quot;:&quot;img3-m79&quot;,&quot;atom_order&quot;:4}]}</metadata>
  <rect x="0" y="0" width="50" height="43" fill="#f8f0d8"/>
  <image href="file:///C:/Users/HHHES/AppData/Roaming/com.voynichlab.datasetcreator/images/1/35a70f63-88ab-4986-b441-b78046a10087.jpg" x="-1136" y="-1563" width="2972" height="3766" opacity="0.92"/>
  <rect x="0.5" y="0.5" width="49" height="42" fill="none" stroke="#111827" stroke-width="1" opacity="0.35"/>
  <polyline points="16,27 16,24 17,22 17,21 18,21 18,20 19,19 19,18 20,18 20,17 21,17 21,16 22,16 23,16 24,16 25,16 26,16 27,16 28,16 29,17 30,17 30,18 31,18 31,19 32,19 32,20 33,20 33,21 33,22 34,22 34,23 34,24 34,25" fill="none" stroke="#ff2d55" stroke-width="3" stroke-linecap="round" stroke-linejoin="round" opacity="0.95">
    <title>2259 d:1</title>
  </polyline>
</svg>
