<?xml version="1.0" encoding="UTF-8"?>
<svg xmlns="http://www.w3.org/2000/svg" width="101" height="48" viewBox="0 0 101 48">
  <title>atom 2263 d:1</title>
  <metadata>{&quot;entityType&quot;:&quot;atom&quot;,&quot;entityId&quot;:&quot;2263&quot;,&quot;token&quot;:&quot;d:1&quot;,&quot;signature&quot;:&quot;d:1&quot;,&quot;imageName&quot;:&quot;page-003.jpg&quot;,&quot;imageId&quot;:3,&quot;bounds&quot;:{&quot;x&quot;:1126,&quot;y&quot;:1545,&quot;w&quot;:101,&quot;h&quot;:48},&quot;atoms&quot;:[{&quot;id&quot;:2263,&quot;token&quot;:&quot;d:1&quot;,&quot;particle_id&quot;:&quot;img3-m79-p5&quot;,&quot;molecule_id&quot;:&quot;img3-m79&quot;,&quot;atom_order&quot;:4}]}</metadata>
  <rect x="0" y="0" width="101" height="48" fill="#f8f0d8"/>
  <image href="file:///C:/Users/HHHES/AppData/Roaming/com.voynichlab.datasetcreator/images/1/35a70f63-88ab-4986-b441-b78046a10087.jpg" x="-1126" y="-1545" width="2972" height="3766" opacity="0.92"/>
  <rect x="0.5" y="0.5" width="100" height="47" fill="none" stroke="#111827" stroke-width="1" opacity="0.35"/>
  <polyline points="16,32 19,26 19,25 20,24 20,23 21,23 22,22 23,21 24,21 24,20 25,20 26,19 27,19 28,19 28,18 29,18 30,18 31,18 32,17 33,17 34,17 35,17 36,17 37,17 38,17 39,16 40,16 41,16 42,16 44,16 45,16 46,16 47,16 48,16 49,16 50,16 51,16 52,16 53,16 54,16 55,16 56,16 57,16 58,16 59,16 60,16 60,17 61,17 62,17 63,17 64,17 65,17 66,17 67,18 68,18 69,18 70,18 70,19 71,19 72,19 73,19 74,20 75,20 76,20 76,21 77,21 78,21 79,21 80,22 81,22 82,22 82,23 83,23 84,24 85,24 85,25" fill="none" stroke="#ff2d55" stroke-width="3" stroke-linecap="round" stroke-linejoin="round" opacity="0.95">
    <title>2263 d:1</title>
  </polyline>
</svg>
