<?xml version="1.0" encoding="UTF-8"?>
<svg xmlns="http://www.w3.org/2000/svg" width="74" height="40" viewBox="0 0 74 40">
  <title>atom 2279 d:1</title>
  <metadata>{&quot;entityType&quot;:&quot;atom&quot;,&quot;entityId&quot;:&quot;2279&quot;,&quot;token&quot;:&quot;d:1&quot;,&quot;signature&quot;:&quot;d:1&quot;,&quot;imageName&quot;:&quot;page-003.jpg&quot;,&quot;imageId&quot;:3,&quot;bounds&quot;:{&quot;x&quot;:1603,&quot;y&quot;:1566,&quot;w&quot;:74,&quot;h&quot;:40},&quot;atoms&quot;:[{&quot;id&quot;:2279,&quot;token&quot;:&quot;d:1&quot;,&quot;particle_id&quot;:&quot;img3-m76-p3&quot;,&quot;molecule_id&quot;:&quot;img3-m76&quot;,&quot;atom_order&quot;:5}]}</metadata>
  <rect x="0" y="0" width="74" height="40" fill="#f8f0d8"/>
  <image href="file:///C:/Users/HHHES/AppData/Roaming/com.voynichlab.datasetcreator/images/1/35a70f63-88ab-4986-b441-b78046a10087.jpg" x="-1603" y="-1566" width="2972" height="3766" opacity="0.92"/>
  <rect x="0.5" y="0.5" width="73" height="39" fill="none" stroke="#111827" stroke-width="1" opacity="0.35"/>
  <polyline points="16,24 17,23 18,23 19,23 19,22 20,22 20,21 21,21 22,20 23,20 24,19 25,19 26,18 27,18 28,18 28,17 29,17 30,17 31,17 32,17 33,17 34,17 34,16 35,16 36,16 37,16 38,16 39,16 40,16 41,16 42,16 43,16 44,16 45,16 46,17 47,17 48,17 49,17 49,18 50,18 51,19 52,19 53,19 53,20 54,20 55,20 55,21 56,21 57,21 57,22 58,22" fill="none" stroke="#ff2d55" stroke-width="3" stroke-linecap="round" stroke-linejoin="round" opacity="0.95">
    <title>2279 d:1</title>
  </polyline>
</svg>
