<?xml version="1.0" encoding="UTF-8"?>
<svg xmlns="http://www.w3.org/2000/svg" width="77" height="42" viewBox="0 0 77 42">
  <title>atom 2324 d:1</title>
  <metadata>{&quot;entityType&quot;:&quot;atom&quot;,&quot;entityId&quot;:&quot;2324&quot;,&quot;token&quot;:&quot;d:1&quot;,&quot;signature&quot;:&quot;d:1&quot;,&quot;imageName&quot;:&quot;page-003.jpg&quot;,&quot;imageId&quot;:3,&quot;bounds&quot;:{&quot;x&quot;:2292,&quot;y&quot;:1565,&quot;w&quot;:77,&quot;h&quot;:42},&quot;atoms&quot;:[{&quot;id&quot;:2324,&quot;token&quot;:&quot;d:1&quot;,&quot;particle_id&quot;:&quot;img3-m74-p3&quot;,&quot;molecule_id&quot;:&quot;img3-m74&quot;,&quot;atom_order&quot;:4}]}</metadata>
  <rect x="0" y="0" width="77" height="42" fill="#f8f0d8"/>
  <image href="file:///C:/Users/HHHES/AppData/Roaming/com.voynichlab.datasetcreator/images/1/35a70f63-88ab-4986-b441-b78046a10087.jpg" x="-2292" y="-1565" width="2972" height="3766" opacity="0.92"/>
  <rect x="0.5" y="0.5" width="76" height="41" fill="none" stroke="#111827" stroke-width="1" opacity="0.35"/>
  <polyline points="16,24 17,24 17,23 18,22 19,22 19,21 20,21 20,20 21,20 22,19 23,19 24,19 24,18 25,18 26,18 27,18 28,18 29,17 30,17 31,17 32,17 33,17 34,17 35,17 36,17 37,17 38,17 39,17 39,16 40,16 41,16 42,16 43,16 44,16 45,17 46,17 47,17 48,17 49,17 49,18 50,18 51,18 51,19 52,19 53,19 54,20 55,20 56,20 56,21 57,21 57,22 58,22 59,23 59,24 60,24 60,25 61,25 61,26" fill="none" stroke="#ff2d55" stroke-width="3" stroke-linecap="round" stroke-linejoin="round" opacity="0.95">
    <title>2324 d:1</title>
  </polyline>
</svg>
