<?xml version="1.0" encoding="UTF-8"?>
<svg xmlns="http://www.w3.org/2000/svg" width="80" height="39" viewBox="0 0 80 39">
  <title>atom 2404 d:1</title>
  <metadata>{&quot;entityType&quot;:&quot;atom&quot;,&quot;entityId&quot;:&quot;2404&quot;,&quot;token&quot;:&quot;d:1&quot;,&quot;signature&quot;:&quot;d:1&quot;,&quot;imageName&quot;:&quot;page-003.jpg&quot;,&quot;imageId&quot;:3,&quot;bounds&quot;:{&quot;x&quot;:1388,&quot;y&quot;:1655,&quot;w&quot;:80,&quot;h&quot;:39},&quot;atoms&quot;:[{&quot;id&quot;:2404,&quot;token&quot;:&quot;d:1&quot;,&quot;particle_id&quot;:&quot;img3-m82-p1&quot;,&quot;molecule_id&quot;:&quot;img3-m82&quot;,&quot;atom_order&quot;:8}]}</metadata>
  <rect x="0" y="0" width="80" height="39" fill="#f8f0d8"/>
  <image href="file:///C:/Users/HHHES/AppData/Roaming/com.voynichlab.datasetcreator/images/1/35a70f63-88ab-4986-b441-b78046a10087.jpg" x="-1388" y="-1655" width="2972" height="3766" opacity="0.92"/>
  <rect x="0.5" y="0.5" width="79" height="38" fill="none" stroke="#111827" stroke-width="1" opacity="0.35"/>
  <polyline points="16,23 16,22 17,22 18,21 19,21 20,21 20,20 21,20 22,20 23,19 24,19 25,19 25,18 26,18 27,18 28,18 29,18 30,18 30,17 31,17 32,17 33,17 34,17 35,17 36,17 37,17 38,17 39,17 40,17 41,17 42,17 42,16 43,16 44,16 45,16 46,16 46,17 47,17 48,17 49,17 50,17 51,17 51,18 52,18 53,18 54,18 55,19 56,19 57,19 57,20 58,20 59,20 60,20 60,21 61,21 62,21 63,21 63,22 64,22" fill="none" stroke="#ff2d55" stroke-width="3" stroke-linecap="round" stroke-linejoin="round" opacity="0.95">
    <title>2404 d:1</title>
  </polyline>
</svg>
