<?xml version="1.0" encoding="UTF-8"?>
<svg xmlns="http://www.w3.org/2000/svg" width="67" height="41" viewBox="0 0 67 41">
  <title>atom 2457 d:1</title>
  <metadata>{&quot;entityType&quot;:&quot;atom&quot;,&quot;entityId&quot;:&quot;2457&quot;,&quot;token&quot;:&quot;d:1&quot;,&quot;signature&quot;:&quot;d:1&quot;,&quot;imageName&quot;:&quot;page-003.jpg&quot;,&quot;imageId&quot;:3,&quot;bounds&quot;:{&quot;x&quot;:2262,&quot;y&quot;:1653,&quot;w&quot;:67,&quot;h&quot;:41},&quot;atoms&quot;:[{&quot;id&quot;:2457,&quot;token&quot;:&quot;d:1&quot;,&quot;particle_id&quot;:&quot;img3-m87-p5&quot;,&quot;molecule_id&quot;:&quot;img3-m87&quot;,&quot;atom_order&quot;:4}]}</metadata>
  <rect x="0" y="0" width="67" height="41" fill="#f8f0d8"/>
  <image href="file:///C:/Users/HHHES/AppData/Roaming/com.voynichlab.datasetcreator/images/1/35a70f63-88ab-4986-b441-b78046a10087.jpg" x="-2262" y="-1653" width="2972" height="3766" opacity="0.92"/>
  <rect x="0.5" y="0.5" width="66" height="40" fill="none" stroke="#111827" stroke-width="1" opacity="0.35"/>
  <polyline points="16,21 16,20 17,20 17,19 18,19 19,19 19,18 20,18 21,18 21,17 22,17 23,17 24,17 25,17 26,16 27,16 28,16 29,16 30,16 31,16 32,16 33,16 34,16 34,17 35,17 36,17 37,17 38,17 38,18 39,18 40,18 40,19 41,19 42,19 42,20 43,20 44,20 44,21 45,21 46,21 46,22 47,22 47,23 48,23 49,23 49,24 50,24 51,24 51,25" fill="none" stroke="#ff2d55" stroke-width="3" stroke-linecap="round" stroke-linejoin="round" opacity="0.95">
    <title>2457 d:1</title>
  </polyline>
</svg>
