<?xml version="1.0" encoding="UTF-8"?>
<svg xmlns="http://www.w3.org/2000/svg" width="60" height="39" viewBox="0 0 60 39">
  <title>atom 2517 d:1</title>
  <metadata>{&quot;entityType&quot;:&quot;atom&quot;,&quot;entityId&quot;:&quot;2517&quot;,&quot;token&quot;:&quot;d:1&quot;,&quot;signature&quot;:&quot;d:1&quot;,&quot;imageName&quot;:&quot;page-003.jpg&quot;,&quot;imageId&quot;:3,&quot;bounds&quot;:{&quot;x&quot;:1863,&quot;y&quot;:1753,&quot;w&quot;:60,&quot;h&quot;:39},&quot;atoms&quot;:[{&quot;id&quot;:2517,&quot;token&quot;:&quot;d:1&quot;,&quot;particle_id&quot;:&quot;img3-m98-p4&quot;,&quot;molecule_id&quot;:&quot;img3-m98&quot;,&quot;atom_order&quot;:4}]}</metadata>
  <rect x="0" y="0" width="60" height="39" fill="#f8f0d8"/>
  <image href="file:///C:/Users/HHHES/AppData/Roaming/com.voynichlab.datasetcreator/images/1/35a70f63-88ab-4986-b441-b78046a10087.jpg" x="-1863" y="-1753" width="2972" height="3766" opacity="0.92"/>
  <rect x="0.5" y="0.5" width="59" height="38" fill="none" stroke="#111827" stroke-width="1" opacity="0.35"/>
  <polyline points="16,23 19,21 20,21 20,20 21,20 21,19 22,19 23,19 23,18 24,18 29,16 32,16 33,16 34,16 35,16 36,17 37,17 38,17 39,18 40,18 41,19 42,19 43,19 44,20" fill="none" stroke="#ff2d55" stroke-width="3" stroke-linecap="round" stroke-linejoin="round" opacity="0.95">
    <title>2517 d:1</title>
  </polyline>
</svg>
