<?xml version="1.0" encoding="UTF-8"?>
<svg xmlns="http://www.w3.org/2000/svg" width="84" height="44" viewBox="0 0 84 44">
  <title>atom 2567 d:1</title>
  <metadata>{&quot;entityType&quot;:&quot;atom&quot;,&quot;entityId&quot;:&quot;2567&quot;,&quot;token&quot;:&quot;d:1&quot;,&quot;signature&quot;:&quot;d:1&quot;,&quot;imageName&quot;:&quot;page-003.jpg&quot;,&quot;imageId&quot;:3,&quot;bounds&quot;:{&quot;x&quot;:1170,&quot;y&quot;:1739,&quot;w&quot;:84,&quot;h&quot;:44},&quot;atoms&quot;:[{&quot;id&quot;:2567,&quot;token&quot;:&quot;d:1&quot;,&quot;particle_id&quot;:&quot;img3-m95-p4&quot;,&quot;molecule_id&quot;:&quot;img3-m95&quot;,&quot;atom_order&quot;:4}]}</metadata>
  <rect x="0" y="0" width="84" height="44" fill="#f8f0d8"/>
  <image href="file:///C:/Users/HHHES/AppData/Roaming/com.voynichlab.datasetcreator/images/1/35a70f63-88ab-4986-b441-b78046a10087.jpg" x="-1170" y="-1739" width="2972" height="3766" opacity="0.92"/>
  <rect x="0.5" y="0.5" width="83" height="43" fill="none" stroke="#111827" stroke-width="1" opacity="0.35"/>
  <polyline points="16,18 17,18 17,17 18,17 19,16 20,16 21,16 22,16 23,16 24,16 25,16 26,16 27,16 28,16 29,16 30,16 31,16 32,16 33,16 34,16 35,16 36,16 37,16 38,16 39,16 40,16 41,16 42,16 43,16 44,16 45,16 45,17 46,17 47,17 48,17 49,17 50,18 51,18 52,18 53,18 53,19 54,19 54,20 55,20 56,20 57,20 58,21 59,21 59,22 60,22 61,22 62,23 63,23 63,24 64,24 64,25 65,25 65,26 66,26 66,27 67,27 67,28 68,28" fill="none" stroke="#ff2d55" stroke-width="3" stroke-linecap="round" stroke-linejoin="round" opacity="0.95">
    <title>2567 d:1</title>
  </polyline>
</svg>
