<?xml version="1.0" encoding="UTF-8"?>
<svg xmlns="http://www.w3.org/2000/svg" width="79" height="41" viewBox="0 0 79 41">
  <title>atom 3196 d:1</title>
  <metadata>{&quot;entityType&quot;:&quot;atom&quot;,&quot;entityId&quot;:&quot;3196&quot;,&quot;token&quot;:&quot;d:1&quot;,&quot;signature&quot;:&quot;d:1&quot;,&quot;imageName&quot;:&quot;page-003.jpg&quot;,&quot;imageId&quot;:3,&quot;bounds&quot;:{&quot;x&quot;:619,&quot;y&quot;:1821,&quot;w&quot;:79,&quot;h&quot;:41},&quot;atoms&quot;:[{&quot;id&quot;:3196,&quot;token&quot;:&quot;d:1&quot;,&quot;particle_id&quot;:&quot;img3-m102-p3&quot;,&quot;molecule_id&quot;:&quot;img3-m102&quot;,&quot;atom_order&quot;:4}]}</metadata>
  <rect x="0" y="0" width="79" height="41" fill="#f8f0d8"/>
  <image href="file:///C:/Users/HHHES/AppData/Roaming/com.voynichlab.datasetcreator/images/1/35a70f63-88ab-4986-b441-b78046a10087.jpg" x="-619" y="-1821" width="2972" height="3766" opacity="0.92"/>
  <rect x="0.5" y="0.5" width="78" height="40" fill="none" stroke="#111827" stroke-width="1" opacity="0.35"/>
  <polyline points="16,25 17,24 18,24 18,23 19,23 19,22 20,22 21,21 22,21 22,20 23,20 24,19 25,19 26,19 26,18 27,18 28,18 29,17 30,17 31,17 32,17 32,16 33,16 34,16 35,16 36,16 37,16 38,16 39,16 40,16 41,16 42,16 43,17 44,17 45,17 46,17 47,18 48,18 49,18 50,18 51,18 52,19 53,19 54,19 54,20 55,20 56,20 57,20 57,21 58,21 59,21 59,22 60,22 61,23 62,23 63,24" fill="none" stroke="#ff2d55" stroke-width="3" stroke-linecap="round" stroke-linejoin="round" opacity="0.95">
    <title>3196 d:1</title>
  </polyline>
</svg>
