<?xml version="1.0" encoding="UTF-8"?>
<svg xmlns="http://www.w3.org/2000/svg" width="67" height="39" viewBox="0 0 67 39">
  <title>atom 3197 d:1</title>
  <metadata>{&quot;entityType&quot;:&quot;atom&quot;,&quot;entityId&quot;:&quot;3197&quot;,&quot;token&quot;:&quot;d:1&quot;,&quot;signature&quot;:&quot;d:1&quot;,&quot;imageName&quot;:&quot;page-003.jpg&quot;,&quot;imageId&quot;:3,&quot;bounds&quot;:{&quot;x&quot;:1138,&quot;y&quot;:1823,&quot;w&quot;:67,&quot;h&quot;:39},&quot;atoms&quot;:[{&quot;id&quot;:3197,&quot;token&quot;:&quot;d:1&quot;,&quot;particle_id&quot;:&quot;img3-m100-p3&quot;,&quot;molecule_id&quot;:&quot;img3-m100&quot;,&quot;atom_order&quot;:3}]}</metadata>
  <rect x="0" y="0" width="67" height="39" fill="#f8f0d8"/>
  <image href="file:///C:/Users/HHHES/AppData/Roaming/com.voynichlab.datasetcreator/images/1/35a70f63-88ab-4986-b441-b78046a10087.jpg" x="-1138" y="-1823" width="2972" height="3766" opacity="0.92"/>
  <rect x="0.5" y="0.5" width="66" height="38" fill="none" stroke="#111827" stroke-width="1" opacity="0.35"/>
  <polyline points="16,21 17,21 17,20 18,20 19,20 19,19 20,19 21,19 22,19 22,18 23,18 24,18 25,18 25,17 26,17 27,17 28,17 29,17 30,16 31,16 32,16 33,16 34,16 35,16 36,16 37,16 38,16 39,16 40,16 41,16 42,16 43,16 44,16 45,16 45,17 46,17 46,18 47,18 48,18 48,19 49,19 49,20 50,21 50,22 51,22 51,23" fill="none" stroke="#ff2d55" stroke-width="3" stroke-linecap="round" stroke-linejoin="round" opacity="0.95">
    <title>3197 d:1</title>
  </polyline>
</svg>
