<?xml version="1.0" encoding="UTF-8"?>
<svg xmlns="http://www.w3.org/2000/svg" width="94" height="43" viewBox="0 0 94 43">
  <title>atom 3198 d:1</title>
  <metadata>{&quot;entityType&quot;:&quot;atom&quot;,&quot;entityId&quot;:&quot;3198&quot;,&quot;token&quot;:&quot;d:1&quot;,&quot;signature&quot;:&quot;d:1&quot;,&quot;imageName&quot;:&quot;page-003.jpg&quot;,&quot;imageId&quot;:3,&quot;bounds&quot;:{&quot;x&quot;:1281,&quot;y&quot;:1809,&quot;w&quot;:94,&quot;h&quot;:43},&quot;atoms&quot;:[{&quot;id&quot;:3198,&quot;token&quot;:&quot;d:1&quot;,&quot;particle_id&quot;:&quot;img3-m105-p3&quot;,&quot;molecule_id&quot;:&quot;img3-m105&quot;,&quot;atom_order&quot;:3}]}</metadata>
  <rect x="0" y="0" width="94" height="43" fill="#f8f0d8"/>
  <image href="file:///C:/Users/HHHES/AppData/Roaming/com.voynichlab.datasetcreator/images/1/35a70f63-88ab-4986-b441-b78046a10087.jpg" x="-1281" y="-1809" width="2972" height="3766" opacity="0.92"/>
  <rect x="0.5" y="0.5" width="93" height="42" fill="none" stroke="#111827" stroke-width="1" opacity="0.35"/>
  <polyline points="16,27 17,27 17,26 18,26 19,26 19,25 20,25 21,24 22,24 22,23 23,23 24,23 24,22 26,22 27,22 28,21 29,21 30,21 31,21 31,20 32,20 33,20 34,20 35,19 36,19 37,19 38,19 39,18 40,18 41,18 42,17 43,17 44,17 46,16 47,16 48,16 49,16 50,16 51,16 52,16 53,16 54,16 55,16 56,16 57,16 58,16 59,16 60,16 61,16 62,16 63,16 64,16 65,16 66,16 67,16 68,16 68,17 69,17 70,17 71,18 72,18 73,18 74,18 74,19 75,19 76,19 76,20 77,20 77,21 78,21 78,22" fill="none" stroke="#ff2d55" stroke-width="3" stroke-linecap="round" stroke-linejoin="round" opacity="0.95">
    <title>3198 d:1</title>
  </polyline>
</svg>
