<?xml version="1.0" encoding="UTF-8"?>
<svg xmlns="http://www.w3.org/2000/svg" width="66" height="38" viewBox="0 0 66 38">
  <title>atom 3292 d:1</title>
  <metadata>{&quot;entityType&quot;:&quot;atom&quot;,&quot;entityId&quot;:&quot;3292&quot;,&quot;token&quot;:&quot;d:1&quot;,&quot;signature&quot;:&quot;d:1&quot;,&quot;imageName&quot;:&quot;page-003.jpg&quot;,&quot;imageId&quot;:3,&quot;bounds&quot;:{&quot;x&quot;:1024,&quot;y&quot;:1891,&quot;w&quot;:66,&quot;h&quot;:38},&quot;atoms&quot;:[{&quot;id&quot;:3292,&quot;token&quot;:&quot;d:1&quot;,&quot;particle_id&quot;:&quot;img3-m114-p5&quot;,&quot;molecule_id&quot;:&quot;img3-m114&quot;,&quot;atom_order&quot;:3}]}</metadata>
  <rect x="0" y="0" width="66" height="38" fill="#f8f0d8"/>
  <image href="file:///C:/Users/HHHES/AppData/Roaming/com.voynichlab.datasetcreator/images/1/35a70f63-88ab-4986-b441-b78046a10087.jpg" x="-1024" y="-1891" width="2972" height="3766" opacity="0.92"/>
  <rect x="0.5" y="0.5" width="65" height="37" fill="none" stroke="#111827" stroke-width="1" opacity="0.35"/>
  <polyline points="16,20 16,19 17,19 18,19 19,19 19,18 20,18 21,18 22,18 22,17 23,17 24,17 25,17 26,17 27,17 28,17 29,17 30,17 30,16 31,16 32,16 33,16 34,16 35,16 36,16 37,16 38,16 38,17 39,17 40,17 41,17 41,18 42,18 43,18 44,18 45,18 45,19 46,19 46,20 47,20 47,21 48,21 49,21 49,22 50,22" fill="none" stroke="#ff2d55" stroke-width="3" stroke-linecap="round" stroke-linejoin="round" opacity="0.95">
    <title>3292 d:1</title>
  </polyline>
</svg>
