<?xml version="1.0" encoding="UTF-8"?>
<svg xmlns="http://www.w3.org/2000/svg" width="66" height="39" viewBox="0 0 66 39">
  <title>atom 3293 d:1</title>
  <metadata>{&quot;entityType&quot;:&quot;atom&quot;,&quot;entityId&quot;:&quot;3293&quot;,&quot;token&quot;:&quot;d:1&quot;,&quot;signature&quot;:&quot;d:1&quot;,&quot;imageName&quot;:&quot;page-003.jpg&quot;,&quot;imageId&quot;:3,&quot;bounds&quot;:{&quot;x&quot;:1568,&quot;y&quot;:1893,&quot;w&quot;:66,&quot;h&quot;:39},&quot;atoms&quot;:[{&quot;id&quot;:3293,&quot;token&quot;:&quot;d:1&quot;,&quot;particle_id&quot;:&quot;img3-m112-p3&quot;,&quot;molecule_id&quot;:&quot;img3-m112&quot;,&quot;atom_order&quot;:3}]}</metadata>
  <rect x="0" y="0" width="66" height="39" fill="#f8f0d8"/>
  <image href="file:///C:/Users/HHHES/AppData/Roaming/com.voynichlab.datasetcreator/images/1/35a70f63-88ab-4986-b441-b78046a10087.jpg" x="-1568" y="-1893" width="2972" height="3766" opacity="0.92"/>
  <rect x="0.5" y="0.5" width="65" height="38" fill="none" stroke="#111827" stroke-width="1" opacity="0.35"/>
  <polyline points="16,20 16,19 17,19 17,18 18,18 19,18 20,18 21,17 22,17 23,17 24,17 25,16 26,16 27,16 28,16 29,16 30,16 31,16 32,16 33,16 34,16 35,16 36,16 37,16 37,17 38,17 39,17 40,18 41,18 42,18 43,19 44,19 45,19 45,20 46,20 47,20 47,21 48,21 48,22 49,22 49,23 50,23" fill="none" stroke="#ff2d55" stroke-width="3" stroke-linecap="round" stroke-linejoin="round" opacity="0.95">
    <title>3293 d:1</title>
  </polyline>
</svg>
