<?xml version="1.0" encoding="UTF-8"?>
<svg xmlns="http://www.w3.org/2000/svg" width="63" height="36" viewBox="0 0 63 36">
  <title>atom 3294 d:1</title>
  <metadata>{&quot;entityType&quot;:&quot;atom&quot;,&quot;entityId&quot;:&quot;3294&quot;,&quot;token&quot;:&quot;d:1&quot;,&quot;signature&quot;:&quot;d:1&quot;,&quot;imageName&quot;:&quot;page-003.jpg&quot;,&quot;imageId&quot;:3,&quot;bounds&quot;:{&quot;x&quot;:1877,&quot;y&quot;:1892,&quot;w&quot;:63,&quot;h&quot;:36},&quot;atoms&quot;:[{&quot;id&quot;:3294,&quot;token&quot;:&quot;d:1&quot;,&quot;particle_id&quot;:&quot;img3-m117-p5&quot;,&quot;molecule_id&quot;:&quot;img3-m117&quot;,&quot;atom_order&quot;:4}]}</metadata>
  <rect x="0" y="0" width="63" height="36" fill="#f8f0d8"/>
  <image href="file:///C:/Users/HHHES/AppData/Roaming/com.voynichlab.datasetcreator/images/1/35a70f63-88ab-4986-b441-b78046a10087.jpg" x="-1877" y="-1892" width="2972" height="3766" opacity="0.92"/>
  <rect x="0.5" y="0.5" width="62" height="35" fill="none" stroke="#111827" stroke-width="1" opacity="0.35"/>
  <polyline points="16,18 17,18 18,18 19,17 20,17 21,17 22,17 22,16 23,16 24,16 25,16 26,16 27,16 28,16 29,16 30,16 31,16 32,16 33,16 34,16 35,16 36,16 37,16 38,16 38,17 39,17 40,17 41,18 42,18 43,18 44,18 45,18 45,19 46,19 47,19 47,20" fill="none" stroke="#ff2d55" stroke-width="3" stroke-linecap="round" stroke-linejoin="round" opacity="0.95">
    <title>3294 d:1</title>
  </polyline>
</svg>
