<?xml version="1.0" encoding="UTF-8"?>
<svg xmlns="http://www.w3.org/2000/svg" width="79" height="51" viewBox="0 0 79 51">
  <title>atom 3476 d:1</title>
  <metadata>{&quot;entityType&quot;:&quot;atom&quot;,&quot;entityId&quot;:&quot;3476&quot;,&quot;token&quot;:&quot;d:1&quot;,&quot;signature&quot;:&quot;d:1&quot;,&quot;imageName&quot;:&quot;page-003.jpg&quot;,&quot;imageId&quot;:3,&quot;bounds&quot;:{&quot;x&quot;:1340,&quot;y&quot;:2059,&quot;w&quot;:79,&quot;h&quot;:51},&quot;atoms&quot;:[{&quot;id&quot;:3476,&quot;token&quot;:&quot;d:1&quot;,&quot;particle_id&quot;:&quot;img3-m126-p1&quot;,&quot;molecule_id&quot;:&quot;img3-m126&quot;,&quot;atom_order&quot;:7}]}</metadata>
  <rect x="0" y="0" width="79" height="51" fill="#f8f0d8"/>
  <image href="file:///C:/Users/HHHES/AppData/Roaming/com.voynichlab.datasetcreator/images/1/35a70f63-88ab-4986-b441-b78046a10087.jpg" x="-1340" y="-2059" width="2972" height="3766" opacity="0.92"/>
  <rect x="0.5" y="0.5" width="78" height="50" fill="none" stroke="#111827" stroke-width="1" opacity="0.35"/>
  <polyline points="17,35 16,35 16,34 16,33 16,32 17,31 17,30 18,30 18,29 19,29 19,28 20,28 20,27 21,27 21,26 22,26 22,25 23,25 23,24 24,24 25,23 26,23 27,22 28,22 29,21 30,21 31,20 32,20 33,20 34,19 35,19 36,19 37,18 38,18 39,18 40,18 41,18 42,18 43,18 43,17 44,17 45,17 46,17 47,17 48,17 49,17 50,17 51,17 52,17 53,17 54,17 55,17 56,17 57,17 58,17 59,17 59,16 60,16 61,16 61,17 62,17 63,17" fill="none" stroke="#ff2d55" stroke-width="3" stroke-linecap="round" stroke-linejoin="round" opacity="0.95">
    <title>3476 d:1</title>
  </polyline>
</svg>
