<?xml version="1.0" encoding="UTF-8"?>
<svg xmlns="http://www.w3.org/2000/svg" width="79" height="46" viewBox="0 0 79 46">
  <title>atom 3477 d:1</title>
  <metadata>{&quot;entityType&quot;:&quot;atom&quot;,&quot;entityId&quot;:&quot;3477&quot;,&quot;token&quot;:&quot;d:1&quot;,&quot;signature&quot;:&quot;d:1&quot;,&quot;imageName&quot;:&quot;page-003.jpg&quot;,&quot;imageId&quot;:3,&quot;bounds&quot;:{&quot;x&quot;:1827,&quot;y&quot;:2065,&quot;w&quot;:79,&quot;h&quot;:46},&quot;atoms&quot;:[{&quot;id&quot;:3477,&quot;token&quot;:&quot;d:1&quot;,&quot;particle_id&quot;:&quot;img3-m129-p5&quot;,&quot;molecule_id&quot;:&quot;img3-m129&quot;,&quot;atom_order&quot;:4}]}</metadata>
  <rect x="0" y="0" width="79" height="46" fill="#f8f0d8"/>
  <image href="file:///C:/Users/HHHES/AppData/Roaming/com.voynichlab.datasetcreator/images/1/35a70f63-88ab-4986-b441-b78046a10087.jpg" x="-1827" y="-2065" width="2972" height="3766" opacity="0.92"/>
  <rect x="0.5" y="0.5" width="78" height="45" fill="none" stroke="#111827" stroke-width="1" opacity="0.35"/>
  <polyline points="16,24 17,24 18,23 19,23 20,23 20,22 21,22 22,22 22,21 23,21 24,21 24,20 25,20 25,19 26,19 27,18 28,18 29,18 30,17 31,17 32,16 33,16 34,16 35,16 37,16 38,16 39,16 40,16 41,16 42,16 43,16 44,17 45,17 46,17 47,17 47,18 48,18 49,18 50,18 50,19 51,19 51,20 52,20 52,21 53,21 54,21 54,22 55,22 55,23 56,23 57,24 58,24 58,25 59,25 60,26 60,27 61,27 61,28 61,29 62,29 62,30 63,30" fill="none" stroke="#ff2d55" stroke-width="3" stroke-linecap="round" stroke-linejoin="round" opacity="0.95">
    <title>3477 d:1</title>
  </polyline>
</svg>
