<?xml version="1.0" encoding="UTF-8"?>
<svg xmlns="http://www.w3.org/2000/svg" width="109" height="43" viewBox="0 0 109 43">
  <title>atom 3600 d:1</title>
  <metadata>{&quot;entityType&quot;:&quot;atom&quot;,&quot;entityId&quot;:&quot;3600&quot;,&quot;token&quot;:&quot;d:1&quot;,&quot;signature&quot;:&quot;d:1&quot;,&quot;imageName&quot;:&quot;page-003.jpg&quot;,&quot;imageId&quot;:3,&quot;bounds&quot;:{&quot;x&quot;:944,&quot;y&quot;:2126,&quot;w&quot;:109,&quot;h&quot;:43},&quot;atoms&quot;:[{&quot;id&quot;:3600,&quot;token&quot;:&quot;d:1&quot;,&quot;particle_id&quot;:&quot;img3-m137-p5&quot;,&quot;molecule_id&quot;:&quot;img3-m137&quot;,&quot;atom_order&quot;:4}]}</metadata>
  <rect x="0" y="0" width="109" height="43" fill="#f8f0d8"/>
  <image href="file:///C:/Users/HHHES/AppData/Roaming/com.voynichlab.datasetcreator/images/1/35a70f63-88ab-4986-b441-b78046a10087.jpg" x="-944" y="-2126" width="2972" height="3766" opacity="0.92"/>
  <rect x="0.5" y="0.5" width="108" height="42" fill="none" stroke="#111827" stroke-width="1" opacity="0.35"/>
  <polyline points="16,17 17,17 18,17 19,17 20,16 21,16 22,16 23,16 24,16 25,16 26,16 27,17 28,17 29,17 30,17 31,17 32,17 33,17 33,16 34,16 35,16 36,16 37,16 38,16 39,16 40,16 41,16 42,16 43,16 44,16 45,16 46,16 47,17 48,17 49,17 50,17 51,17 52,17 53,17 54,17 55,18 56,18 58,18 59,18 60,18 61,19 62,19 63,19 64,19 65,19 66,19 67,20 68,20 69,20 70,20 71,20 71,21 72,21 73,21 74,21 75,21 76,22 77,22 78,22 79,22 79,23 80,23 81,23 82,23 83,23 85,23 87,24 88,24 89,24 90,24 90,25 91,25 92,25 92,26 93,27" fill="none" stroke="#ff2d55" stroke-width="3" stroke-linecap="round" stroke-linejoin="round" opacity="0.95">
    <title>3600 d:1</title>
  </polyline>
</svg>
