<?xml version="1.0" encoding="UTF-8"?>
<svg xmlns="http://www.w3.org/2000/svg" width="69" height="43" viewBox="0 0 69 43">
  <title>atom 3603 d:1</title>
  <metadata>{&quot;entityType&quot;:&quot;atom&quot;,&quot;entityId&quot;:&quot;3603&quot;,&quot;token&quot;:&quot;d:1&quot;,&quot;signature&quot;:&quot;d:1&quot;,&quot;imageName&quot;:&quot;page-003.jpg&quot;,&quot;imageId&quot;:3,&quot;bounds&quot;:{&quot;x&quot;:2058,&quot;y&quot;:2165,&quot;w&quot;:69,&quot;h&quot;:43},&quot;atoms&quot;:[{&quot;id&quot;:3603,&quot;token&quot;:&quot;d:1&quot;,&quot;particle_id&quot;:&quot;img3-m134-p4&quot;,&quot;molecule_id&quot;:&quot;img3-m134&quot;,&quot;atom_order&quot;:3}]}</metadata>
  <rect x="0" y="0" width="69" height="43" fill="#f8f0d8"/>
  <image href="file:///C:/Users/HHHES/AppData/Roaming/com.voynichlab.datasetcreator/images/1/35a70f63-88ab-4986-b441-b78046a10087.jpg" x="-2058" y="-2165" width="2972" height="3766" opacity="0.92"/>
  <rect x="0.5" y="0.5" width="68" height="42" fill="none" stroke="#111827" stroke-width="1" opacity="0.35"/>
  <polyline points="16,27 17,27 17,26 18,26 18,25 19,25 19,24 20,24 21,23 22,23 22,22 23,22 23,21 24,21 25,20 26,20 26,19 27,19 28,19 29,18 30,18 30,17 31,17 32,17 33,17 33,16 34,16 35,16 36,16 36,17 37,17 38,17 39,17 40,17 41,18 42,18 43,18 43,19 44,19 45,19 45,20 46,20 47,21 48,21 49,21 49,22 50,22 51,23 51,24 52,24 52,25 53,25" fill="none" stroke="#ff2d55" stroke-width="3" stroke-linecap="round" stroke-linejoin="round" opacity="0.95">
    <title>3603 d:1</title>
  </polyline>
</svg>
