<?xml version="1.0" encoding="UTF-8"?>
<svg xmlns="http://www.w3.org/2000/svg" width="65" height="38" viewBox="0 0 65 38">
  <title>atom 3604 d:1</title>
  <metadata>{&quot;entityType&quot;:&quot;atom&quot;,&quot;entityId&quot;:&quot;3604&quot;,&quot;token&quot;:&quot;d:1&quot;,&quot;signature&quot;:&quot;d:1&quot;,&quot;imageName&quot;:&quot;page-003.jpg&quot;,&quot;imageId&quot;:3,&quot;bounds&quot;:{&quot;x&quot;:819,&quot;y&quot;:2202,&quot;w&quot;:65,&quot;h&quot;:38},&quot;atoms&quot;:[{&quot;id&quot;:3604,&quot;token&quot;:&quot;d:1&quot;,&quot;particle_id&quot;:&quot;img3-m144-p3&quot;,&quot;molecule_id&quot;:&quot;img3-m144&quot;,&quot;atom_order&quot;:3}]}</metadata>
  <rect x="0" y="0" width="65" height="38" fill="#f8f0d8"/>
  <image href="file:///C:/Users/HHHES/AppData/Roaming/com.voynichlab.datasetcreator/images/1/35a70f63-88ab-4986-b441-b78046a10087.jpg" x="-819" y="-2202" width="2972" height="3766" opacity="0.92"/>
  <rect x="0.5" y="0.5" width="64" height="37" fill="none" stroke="#111827" stroke-width="1" opacity="0.35"/>
  <polyline points="16,21 16,20 17,20 18,20 18,19 19,19 20,19 21,19 21,18 22,18 23,18 23,17 24,17 25,17 26,17 26,16 27,16 28,16 29,16 29,17 30,17 31,17 32,17 33,17 34,17 35,17 35,18 36,18 37,18 38,18 39,18 40,18 41,18 42,19 43,19 44,19 45,20 46,20 47,21 48,21 49,21 49,22" fill="none" stroke="#ff2d55" stroke-width="3" stroke-linecap="round" stroke-linejoin="round" opacity="0.95">
    <title>3604 d:1</title>
  </polyline>
</svg>
