<?xml version="1.0" encoding="UTF-8"?>
<svg xmlns="http://www.w3.org/2000/svg" width="72" height="42" viewBox="0 0 72 42">
  <title>atom 3605 d:1</title>
  <metadata>{&quot;entityType&quot;:&quot;atom&quot;,&quot;entityId&quot;:&quot;3605&quot;,&quot;token&quot;:&quot;d:1&quot;,&quot;signature&quot;:&quot;d:1&quot;,&quot;imageName&quot;:&quot;page-003.jpg&quot;,&quot;imageId&quot;:3,&quot;bounds&quot;:{&quot;x&quot;:1151,&quot;y&quot;:2219,&quot;w&quot;:72,&quot;h&quot;:42},&quot;atoms&quot;:[{&quot;id&quot;:3605,&quot;token&quot;:&quot;d:1&quot;,&quot;particle_id&quot;:&quot;img3-m141-p3&quot;,&quot;molecule_id&quot;:&quot;img3-m141&quot;,&quot;atom_order&quot;:4}]}</metadata>
  <rect x="0" y="0" width="72" height="42" fill="#f8f0d8"/>
  <image href="file:///C:/Users/HHHES/AppData/Roaming/com.voynichlab.datasetcreator/images/1/35a70f63-88ab-4986-b441-b78046a10087.jpg" x="-1151" y="-2219" width="2972" height="3766" opacity="0.92"/>
  <rect x="0.5" y="0.5" width="71" height="41" fill="none" stroke="#111827" stroke-width="1" opacity="0.35"/>
  <polyline points="16,18 17,18 18,18 18,17 19,17 20,17 21,17 22,17 23,17 24,16 25,16 26,16 27,16 28,16 29,16 30,16 31,16 32,16 33,16 33,17 34,17 35,17 36,17 37,17 38,17 39,17 39,18 40,18 41,18 42,18 44,18 45,18 46,18 47,19 48,19 49,19 49,20 50,20 51,20 52,21 53,21 53,22 54,22 54,23 55,23 55,24 56,24 56,25 56,26" fill="none" stroke="#ff2d55" stroke-width="3" stroke-linecap="round" stroke-linejoin="round" opacity="0.95">
    <title>3605 d:1</title>
  </polyline>
</svg>
