<?xml version="1.0" encoding="UTF-8"?>
<svg xmlns="http://www.w3.org/2000/svg" width="59" height="39" viewBox="0 0 59 39">
  <title>atom 3655 d:1</title>
  <metadata>{&quot;entityType&quot;:&quot;atom&quot;,&quot;entityId&quot;:&quot;3655&quot;,&quot;token&quot;:&quot;d:1&quot;,&quot;signature&quot;:&quot;d:1&quot;,&quot;imageName&quot;:&quot;page-003.jpg&quot;,&quot;imageId&quot;:3,&quot;bounds&quot;:{&quot;x&quot;:1735,&quot;y&quot;:2062,&quot;w&quot;:59,&quot;h&quot;:39},&quot;atoms&quot;:[{&quot;id&quot;:3655,&quot;token&quot;:&quot;d:1&quot;,&quot;particle_id&quot;:&quot;img3-m129-p3&quot;,&quot;molecule_id&quot;:&quot;img3-m129&quot;,&quot;atom_order&quot;:3}]}</metadata>
  <rect x="0" y="0" width="59" height="39" fill="#f8f0d8"/>
  <image href="file:///C:/Users/HHHES/AppData/Roaming/com.voynichlab.datasetcreator/images/1/35a70f63-88ab-4986-b441-b78046a10087.jpg" x="-1735" y="-2062" width="2972" height="3766" opacity="0.92"/>
  <rect x="0.5" y="0.5" width="58" height="38" fill="none" stroke="#111827" stroke-width="1" opacity="0.35"/>
  <polyline points="16,23 16,22 17,22 18,21 19,21 19,20 20,20 21,20 21,19 22,19 23,19 23,18 24,18 25,18 25,17 26,17 27,17 28,17 29,17 30,17 30,16 31,16 32,16 33,16 34,16 35,16 36,16 37,17 38,17 39,17 40,17 40,18 41,18 41,19 42,19 42,20 43,20" fill="none" stroke="#ff2d55" stroke-width="3" stroke-linecap="round" stroke-linejoin="round" opacity="0.95">
    <title>3655 d:1</title>
  </polyline>
</svg>
