<?xml version="1.0" encoding="UTF-8"?>
<svg xmlns="http://www.w3.org/2000/svg" width="80" height="56" viewBox="0 0 80 56">
  <title>atom 3779 d:1</title>
  <metadata>{&quot;entityType&quot;:&quot;atom&quot;,&quot;entityId&quot;:&quot;3779&quot;,&quot;token&quot;:&quot;d:1&quot;,&quot;signature&quot;:&quot;d:1&quot;,&quot;imageName&quot;:&quot;page-003.jpg&quot;,&quot;imageId&quot;:3,&quot;bounds&quot;:{&quot;x&quot;:518,&quot;y&quot;:2381,&quot;w&quot;:80,&quot;h&quot;:56},&quot;atoms&quot;:[{&quot;id&quot;:3779,&quot;token&quot;:&quot;d:1&quot;,&quot;particle_id&quot;:&quot;img3-m147-p1&quot;,&quot;molecule_id&quot;:&quot;img3-m147&quot;,&quot;atom_order&quot;:8}]}</metadata>
  <rect x="0" y="0" width="80" height="56" fill="#f8f0d8"/>
  <image href="file:///C:/Users/HHHES/AppData/Roaming/com.voynichlab.datasetcreator/images/1/35a70f63-88ab-4986-b441-b78046a10087.jpg" x="-518" y="-2381" width="2972" height="3766" opacity="0.92"/>
  <rect x="0.5" y="0.5" width="79" height="55" fill="none" stroke="#111827" stroke-width="1" opacity="0.35"/>
  <polyline points="16,40 16,39 17,39 17,38 17,37 17,36 17,35 18,34 18,33 18,32 19,31 19,30 19,29 20,29 20,28 21,27 21,26 21,25 22,25 22,24 23,24 23,23 24,23 25,23 25,22 26,22 27,21 27,20 28,20 29,20 30,19 31,19 32,18 33,18 34,18 34,17 35,17 36,17 36,16 37,16 38,16 39,16 40,16 42,16 43,16 44,16 45,16 47,16 48,16 49,16 50,16 51,16 52,16 53,16 55,16 55,17 56,17 57,17 58,17 58,18 59,18 60,18 61,19 62,19 63,19 64,19" fill="none" stroke="#ff2d55" stroke-width="3" stroke-linecap="round" stroke-linejoin="round" opacity="0.95">
    <title>3779 d:1</title>
  </polyline>
</svg>
