<?xml version="1.0" encoding="UTF-8"?>
<svg xmlns="http://www.w3.org/2000/svg" width="59" height="51" viewBox="0 0 59 51">
  <title>atom 3797 d:1</title>
  <metadata>{&quot;entityType&quot;:&quot;atom&quot;,&quot;entityId&quot;:&quot;3797&quot;,&quot;token&quot;:&quot;d:1&quot;,&quot;signature&quot;:&quot;d:1&quot;,&quot;imageName&quot;:&quot;page-003.jpg&quot;,&quot;imageId&quot;:3,&quot;bounds&quot;:{&quot;x&quot;:1551,&quot;y&quot;:2485,&quot;w&quot;:59,&quot;h&quot;:51},&quot;atoms&quot;:[{&quot;id&quot;:3797,&quot;token&quot;:&quot;d:1&quot;,&quot;particle_id&quot;:&quot;img3-m148-p8&quot;,&quot;molecule_id&quot;:&quot;img3-m148&quot;,&quot;atom_order&quot;:3}]}</metadata>
  <rect x="0" y="0" width="59" height="51" fill="#f8f0d8"/>
  <image href="file:///C:/Users/HHHES/AppData/Roaming/com.voynichlab.datasetcreator/images/1/35a70f63-88ab-4986-b441-b78046a10087.jpg" x="-1551" y="-2485" width="2972" height="3766" opacity="0.92"/>
  <rect x="0.5" y="0.5" width="58" height="50" fill="none" stroke="#111827" stroke-width="1" opacity="0.35"/>
  <polyline points="17,35 17,34 17,33 16,33 16,32 16,31 16,30 16,29 16,28 16,27 16,26 17,25 17,24 18,24 19,23 19,22 20,22 20,21 21,21 22,20 23,20 23,19 24,19 24,18 25,18 26,18 26,17 27,17 28,17 28,16 29,16 30,16 31,16 32,16 33,16 34,16 35,16 36,16 37,16 37,17 38,17 39,17 39,18 40,18 41,19 42,20 42,21 42,22 43,22" fill="none" stroke="#ff2d55" stroke-width="3" stroke-linecap="round" stroke-linejoin="round" opacity="0.95">
    <title>3797 d:1</title>
  </polyline>
</svg>
