<?xml version="1.0" encoding="UTF-8"?>
<svg xmlns="http://www.w3.org/2000/svg" width="64" height="51" viewBox="0 0 64 51">
  <title>atom 3805 d:1</title>
  <metadata>{&quot;entityType&quot;:&quot;atom&quot;,&quot;entityId&quot;:&quot;3805&quot;,&quot;token&quot;:&quot;d:1&quot;,&quot;signature&quot;:&quot;d:1&quot;,&quot;imageName&quot;:&quot;page-003.jpg&quot;,&quot;imageId&quot;:3,&quot;bounds&quot;:{&quot;x&quot;:1772,&quot;y&quot;:2496,&quot;w&quot;:64,&quot;h&quot;:51},&quot;atoms&quot;:[{&quot;id&quot;:3805,&quot;token&quot;:&quot;d:1&quot;,&quot;particle_id&quot;:&quot;img3-m152-p1&quot;,&quot;molecule_id&quot;:&quot;img3-m152&quot;,&quot;atom_order&quot;:8}]}</metadata>
  <rect x="0" y="0" width="64" height="51" fill="#f8f0d8"/>
  <image href="file:///C:/Users/HHHES/AppData/Roaming/com.voynichlab.datasetcreator/images/1/35a70f63-88ab-4986-b441-b78046a10087.jpg" x="-1772" y="-2496" width="2972" height="3766" opacity="0.92"/>
  <rect x="0.5" y="0.5" width="63" height="50" fill="none" stroke="#111827" stroke-width="1" opacity="0.35"/>
  <polyline points="19,35 19,34 18,33 18,32 17,31 16,30 16,29 16,28 16,27 16,26 16,25 17,24 17,23 18,23 18,22 19,21 20,20 21,20 22,19 23,19 24,19 25,18 26,18 27,18 28,17 29,17 30,17 31,17 32,17 33,17 34,16 35,16 36,16 37,16 38,16 39,16 40,16 41,17 42,17 43,17 44,17 45,17 45,18 46,18 47,18 47,19 48,19" fill="none" stroke="#ff2d55" stroke-width="3" stroke-linecap="round" stroke-linejoin="round" opacity="0.95">
    <title>3805 d:1</title>
  </polyline>
</svg>
