<?xml version="1.0" encoding="UTF-8"?>
<svg xmlns="http://www.w3.org/2000/svg" width="61" height="41" viewBox="0 0 61 41">
  <title>atom 3808 d:1</title>
  <metadata>{&quot;entityType&quot;:&quot;atom&quot;,&quot;entityId&quot;:&quot;3808&quot;,&quot;token&quot;:&quot;d:1&quot;,&quot;signature&quot;:&quot;d:1&quot;,&quot;imageName&quot;:&quot;page-003.jpg&quot;,&quot;imageId&quot;:3,&quot;bounds&quot;:{&quot;x&quot;:2121,&quot;y&quot;:2527,&quot;w&quot;:61,&quot;h&quot;:41},&quot;atoms&quot;:[{&quot;id&quot;:3808,&quot;token&quot;:&quot;d:1&quot;,&quot;particle_id&quot;:&quot;img3-m155-p3&quot;,&quot;molecule_id&quot;:&quot;img3-m155&quot;,&quot;atom_order&quot;:3}]}</metadata>
  <rect x="0" y="0" width="61" height="41" fill="#f8f0d8"/>
  <image href="file:///C:/Users/HHHES/AppData/Roaming/com.voynichlab.datasetcreator/images/1/35a70f63-88ab-4986-b441-b78046a10087.jpg" x="-2121" y="-2527" width="2972" height="3766" opacity="0.92"/>
  <rect x="0.5" y="0.5" width="60" height="40" fill="none" stroke="#111827" stroke-width="1" opacity="0.35"/>
  <polyline points="16,25 17,25 17,24 18,24 19,24 19,23 20,23 21,22 22,22 23,21 24,21 24,20 25,20 26,20 26,19 27,19 28,19 28,18 29,18 30,18 31,17 32,17 33,17 33,16 34,16 35,16 36,16 37,16 38,16 39,16 40,16 41,16 42,16 43,16 44,16 45,16" fill="none" stroke="#ff2d55" stroke-width="3" stroke-linecap="round" stroke-linejoin="round" opacity="0.95">
    <title>3808 d:1</title>
  </polyline>
</svg>
