<?xml version="1.0" encoding="UTF-8"?>
<svg xmlns="http://www.w3.org/2000/svg" width="59" height="45" viewBox="0 0 59 45">
  <title>atom 3882 d:1</title>
  <metadata>{&quot;entityType&quot;:&quot;atom&quot;,&quot;entityId&quot;:&quot;3882&quot;,&quot;token&quot;:&quot;d:1&quot;,&quot;signature&quot;:&quot;d:1&quot;,&quot;imageName&quot;:&quot;page-003.jpg&quot;,&quot;imageId&quot;:3,&quot;bounds&quot;:{&quot;x&quot;:645,&quot;y&quot;:2563,&quot;w&quot;:59,&quot;h&quot;:45},&quot;atoms&quot;:[{&quot;id&quot;:3882,&quot;token&quot;:&quot;d:1&quot;,&quot;particle_id&quot;:&quot;img3-m158-p4&quot;,&quot;molecule_id&quot;:&quot;img3-m158&quot;,&quot;atom_order&quot;:4}]}</metadata>
  <rect x="0" y="0" width="59" height="45" fill="#f8f0d8"/>
  <image href="file:///C:/Users/HHHES/AppData/Roaming/com.voynichlab.datasetcreator/images/1/35a70f63-88ab-4986-b441-b78046a10087.jpg" x="-645" y="-2563" width="2972" height="3766" opacity="0.92"/>
  <rect x="0.5" y="0.5" width="58" height="44" fill="none" stroke="#111827" stroke-width="1" opacity="0.35"/>
  <polyline points="16,17 17,17 18,17 18,16 19,16 20,16 21,16 22,16 23,16 24,16 25,17 26,17 27,17 28,17 28,18 29,18 30,18 30,19 31,19 32,19 32,20 33,20 34,21 35,21 35,22 36,22 37,23 37,24 38,24 39,25 40,25 40,26 41,26 41,27 42,27 42,28 43,28 43,29" fill="none" stroke="#ff2d55" stroke-width="3" stroke-linecap="round" stroke-linejoin="round" opacity="0.95">
    <title>3882 d:1</title>
  </polyline>
</svg>
