<?xml version="1.0" encoding="UTF-8"?>
<svg xmlns="http://www.w3.org/2000/svg" width="71" height="40" viewBox="0 0 71 40">
  <title>atom 3883 d:1</title>
  <metadata>{&quot;entityType&quot;:&quot;atom&quot;,&quot;entityId&quot;:&quot;3883&quot;,&quot;token&quot;:&quot;d:1&quot;,&quot;signature&quot;:&quot;d:1&quot;,&quot;imageName&quot;:&quot;page-003.jpg&quot;,&quot;imageId&quot;:3,&quot;bounds&quot;:{&quot;x&quot;:954,&quot;y&quot;:2589,&quot;w&quot;:71,&quot;h&quot;:40},&quot;atoms&quot;:[{&quot;id&quot;:3883,&quot;token&quot;:&quot;d:1&quot;,&quot;particle_id&quot;:&quot;img3-m158-p3&quot;,&quot;molecule_id&quot;:&quot;img3-m158&quot;,&quot;atom_order&quot;:4}]}</metadata>
  <rect x="0" y="0" width="71" height="40" fill="#f8f0d8"/>
  <image href="file:///C:/Users/HHHES/AppData/Roaming/com.voynichlab.datasetcreator/images/1/35a70f63-88ab-4986-b441-b78046a10087.jpg" x="-954" y="-2589" width="2972" height="3766" opacity="0.92"/>
  <rect x="0.5" y="0.5" width="70" height="39" fill="none" stroke="#111827" stroke-width="1" opacity="0.35"/>
  <polyline points="16,16 17,16 18,16 19,16 20,16 21,16 22,16 23,16 24,16 25,16 26,16 27,16 28,16 29,16 30,16 31,17 32,17 33,17 34,17 35,17 36,17 36,18 37,18 38,18 39,18 40,18 40,19 41,19 42,19 43,19 44,20 45,20 46,20 47,20 48,21 49,21 50,21 51,21 51,22 52,22 53,22 53,23 54,23 54,24 55,24" fill="none" stroke="#ff2d55" stroke-width="3" stroke-linecap="round" stroke-linejoin="round" opacity="0.95">
    <title>3883 d:1</title>
  </polyline>
</svg>
