<?xml version="1.0" encoding="UTF-8"?>
<svg xmlns="http://www.w3.org/2000/svg" width="68" height="48" viewBox="0 0 68 48">
  <title>atom 3884 d:1</title>
  <metadata>{&quot;entityType&quot;:&quot;atom&quot;,&quot;entityId&quot;:&quot;3884&quot;,&quot;token&quot;:&quot;d:1&quot;,&quot;signature&quot;:&quot;d:1&quot;,&quot;imageName&quot;:&quot;page-003.jpg&quot;,&quot;imageId&quot;:3,&quot;bounds&quot;:{&quot;x&quot;:1310,&quot;y&quot;:2588,&quot;w&quot;:68,&quot;h&quot;:48},&quot;atoms&quot;:[{&quot;id&quot;:3884,&quot;token&quot;:&quot;d:1&quot;,&quot;particle_id&quot;:&quot;img3-m159-p3&quot;,&quot;molecule_id&quot;:&quot;img3-m159&quot;,&quot;atom_order&quot;:3}]}</metadata>
  <rect x="0" y="0" width="68" height="48" fill="#f8f0d8"/>
  <image href="file:///C:/Users/HHHES/AppData/Roaming/com.voynichlab.datasetcreator/images/1/35a70f63-88ab-4986-b441-b78046a10087.jpg" x="-1310" y="-2588" width="2972" height="3766" opacity="0.92"/>
  <rect x="0.5" y="0.5" width="67" height="47" fill="none" stroke="#111827" stroke-width="1" opacity="0.35"/>
  <polyline points="16,32 17,32 17,31 18,31 18,30 19,29 19,28 20,27 21,27 21,26 22,26 23,25 24,24 25,24 25,23 26,23 27,22 28,22 28,21 29,21 29,20 30,20 31,20 31,19 32,19 33,19 33,18 34,18 35,18 36,17 37,17 38,16 39,16 40,16 41,16 42,16 43,16 44,16 45,16 46,16 47,16 48,16 49,17 50,17 50,18 51,18 52,18 52,19 52,20 52,21 52,22 52,23 52,24" fill="none" stroke="#ff2d55" stroke-width="3" stroke-linecap="round" stroke-linejoin="round" opacity="0.95">
    <title>3884 d:1</title>
  </polyline>
</svg>
