<?xml version="1.0" encoding="UTF-8"?>
<svg xmlns="http://www.w3.org/2000/svg" width="67" height="38" viewBox="0 0 67 38">
  <title>atom 3885 d:1</title>
  <metadata>{&quot;entityType&quot;:&quot;atom&quot;,&quot;entityId&quot;:&quot;3885&quot;,&quot;token&quot;:&quot;d:1&quot;,&quot;signature&quot;:&quot;d:1&quot;,&quot;imageName&quot;:&quot;page-003.jpg&quot;,&quot;imageId&quot;:3,&quot;bounds&quot;:{&quot;x&quot;:1515,&quot;y&quot;:2590,&quot;w&quot;:67,&quot;h&quot;:38},&quot;atoms&quot;:[{&quot;id&quot;:3885,&quot;token&quot;:&quot;d:1&quot;,&quot;particle_id&quot;:&quot;img3-m163-p5&quot;,&quot;molecule_id&quot;:&quot;img3-m163&quot;,&quot;atom_order&quot;:3}]}</metadata>
  <rect x="0" y="0" width="67" height="38" fill="#f8f0d8"/>
  <image href="file:///C:/Users/HHHES/AppData/Roaming/com.voynichlab.datasetcreator/images/1/35a70f63-88ab-4986-b441-b78046a10087.jpg" x="-1515" y="-2590" width="2972" height="3766" opacity="0.92"/>
  <rect x="0.5" y="0.5" width="66" height="37" fill="none" stroke="#111827" stroke-width="1" opacity="0.35"/>
  <polyline points="16,21 17,21 18,21 18,20 19,20 20,20 21,20 22,19 23,19 24,19 25,18 26,18 27,18 27,17 28,17 29,17 30,17 31,16 32,16 33,16 34,16 35,16 36,16 37,16 38,16 39,16 40,16 41,16 42,17 43,17 44,17 44,18 45,18 46,19 47,19 48,20 49,21 50,21 50,22 51,22" fill="none" stroke="#ff2d55" stroke-width="3" stroke-linecap="round" stroke-linejoin="round" opacity="0.95">
    <title>3885 d:1</title>
  </polyline>
</svg>
