<?xml version="1.0" encoding="UTF-8"?>
<svg xmlns="http://www.w3.org/2000/svg" width="80" height="41" viewBox="0 0 80 41">
  <title>atom 3982 d:1</title>
  <metadata>{&quot;entityType&quot;:&quot;atom&quot;,&quot;entityId&quot;:&quot;3982&quot;,&quot;token&quot;:&quot;d:1&quot;,&quot;signature&quot;:&quot;d:1&quot;,&quot;imageName&quot;:&quot;page-003.jpg&quot;,&quot;imageId&quot;:3,&quot;bounds&quot;:{&quot;x&quot;:791,&quot;y&quot;:2665,&quot;w&quot;:80,&quot;h&quot;:41},&quot;atoms&quot;:[{&quot;id&quot;:3982,&quot;token&quot;:&quot;d:1&quot;,&quot;particle_id&quot;:&quot;img3-m170-p4&quot;,&quot;molecule_id&quot;:&quot;img3-m170&quot;,&quot;atom_order&quot;:4}]}</metadata>
  <rect x="0" y="0" width="80" height="41" fill="#f8f0d8"/>
  <image href="file:///C:/Users/HHHES/AppData/Roaming/com.voynichlab.datasetcreator/images/1/35a70f63-88ab-4986-b441-b78046a10087.jpg" x="-791" y="-2665" width="2972" height="3766" opacity="0.92"/>
  <rect x="0.5" y="0.5" width="79" height="40" fill="none" stroke="#111827" stroke-width="1" opacity="0.35"/>
  <polyline points="16,20 17,19 18,19 19,19 20,19 21,18 22,18 24,18 25,18 26,18 27,18 28,17 29,17 30,17 31,17 32,17 33,17 34,16 35,16 36,16 37,16 38,16 39,16 40,16 41,16 42,16 43,16 44,16 45,16 46,16 47,16 48,17 49,17 50,17 51,17 52,17 53,17 54,17 54,18 55,18 56,18 57,18 58,19 59,19 59,20 60,20 61,20 61,21 62,21 63,22 63,23 64,23 64,24 64,25" fill="none" stroke="#ff2d55" stroke-width="3" stroke-linecap="round" stroke-linejoin="round" opacity="0.95">
    <title>3982 d:1</title>
  </polyline>
</svg>
