<?xml version="1.0" encoding="UTF-8"?>
<svg xmlns="http://www.w3.org/2000/svg" width="58" height="52" viewBox="0 0 58 52">
  <title>atom 3985 d:1</title>
  <metadata>{&quot;entityType&quot;:&quot;atom&quot;,&quot;entityId&quot;:&quot;3985&quot;,&quot;token&quot;:&quot;d:1&quot;,&quot;signature&quot;:&quot;d:1&quot;,&quot;imageName&quot;:&quot;page-003.jpg&quot;,&quot;imageId&quot;:3,&quot;bounds&quot;:{&quot;x&quot;:1587,&quot;y&quot;:2688,&quot;w&quot;:58,&quot;h&quot;:52},&quot;atoms&quot;:[{&quot;id&quot;:3985,&quot;token&quot;:&quot;d:1&quot;,&quot;particle_id&quot;:&quot;img3-m165-p3&quot;,&quot;molecule_id&quot;:&quot;img3-m165&quot;,&quot;atom_order&quot;:3}]}</metadata>
  <rect x="0" y="0" width="58" height="52" fill="#f8f0d8"/>
  <image href="file:///C:/Users/HHHES/AppData/Roaming/com.voynichlab.datasetcreator/images/1/35a70f63-88ab-4986-b441-b78046a10087.jpg" x="-1587" y="-2688" width="2972" height="3766" opacity="0.92"/>
  <rect x="0.5" y="0.5" width="57" height="51" fill="none" stroke="#111827" stroke-width="1" opacity="0.35"/>
  <polyline points="16,23 16,22 17,21 17,20 18,20 18,19 19,19 20,18 21,18 22,17 23,17 24,17 25,17 25,16 26,16 27,16 28,16 29,16 30,16 31,16 32,16 33,17 34,17 35,17 35,18 36,18 37,19 38,20 39,20 39,21 39,22 40,22 40,23 41,23 41,24 41,25 41,26 41,27 41,28 41,29 42,30 42,31 42,32 42,33 42,34 42,35 42,36" fill="none" stroke="#ff2d55" stroke-width="3" stroke-linecap="round" stroke-linejoin="round" opacity="0.95">
    <title>3985 d:1</title>
  </polyline>
</svg>
