<?xml version="1.0" encoding="UTF-8"?>
<svg xmlns="http://www.w3.org/2000/svg" width="96" height="44" viewBox="0 0 96 44">
  <title>atom 4081 d:1</title>
  <metadata>{&quot;entityType&quot;:&quot;atom&quot;,&quot;entityId&quot;:&quot;4081&quot;,&quot;token&quot;:&quot;d:1&quot;,&quot;signature&quot;:&quot;d:1&quot;,&quot;imageName&quot;:&quot;page-003.jpg&quot;,&quot;imageId&quot;:3,&quot;bounds&quot;:{&quot;x&quot;:1111,&quot;y&quot;:2740,&quot;w&quot;:96,&quot;h&quot;:44},&quot;atoms&quot;:[{&quot;id&quot;:4081,&quot;token&quot;:&quot;d:1&quot;,&quot;particle_id&quot;:&quot;img3-m175-p3&quot;,&quot;molecule_id&quot;:&quot;img3-m175&quot;,&quot;atom_order&quot;:4}]}</metadata>
  <rect x="0" y="0" width="96" height="44" fill="#f8f0d8"/>
  <image href="file:///C:/Users/HHHES/AppData/Roaming/com.voynichlab.datasetcreator/images/1/35a70f63-88ab-4986-b441-b78046a10087.jpg" x="-1111" y="-2740" width="2972" height="3766" opacity="0.92"/>
  <rect x="0.5" y="0.5" width="95" height="43" fill="none" stroke="#111827" stroke-width="1" opacity="0.35"/>
  <polyline points="16,28 16,27 17,27 18,27 19,26 20,25 21,25 22,24 23,23 25,23 26,22 27,21 28,21 29,20 30,20 31,20 32,19 34,19 35,19 36,18 37,18 38,18 39,17 40,17 42,17 43,17 44,16 45,16 47,16 48,16 49,16 50,16 51,16 52,16 54,16 55,16 56,16 57,16 57,17 58,17 59,17 60,17 61,17 62,18 63,18 64,19 65,19 66,20 67,20 68,20 69,21 70,21 71,21 72,21 72,22 73,22 74,22 75,23 76,23 77,23 77,24 78,24 79,24 79,25 80,25" fill="none" stroke="#ff2d55" stroke-width="3" stroke-linecap="round" stroke-linejoin="round" opacity="0.95">
    <title>4081 d:1</title>
  </polyline>
</svg>
