<?xml version="1.0" encoding="UTF-8"?>
<svg xmlns="http://www.w3.org/2000/svg" width="82" height="44" viewBox="0 0 82 44">
  <title>atom 4105 d:1</title>
  <metadata>{&quot;entityType&quot;:&quot;atom&quot;,&quot;entityId&quot;:&quot;4105&quot;,&quot;token&quot;:&quot;d:1&quot;,&quot;signature&quot;:&quot;d:1&quot;,&quot;imageName&quot;:&quot;page-003.jpg&quot;,&quot;imageId&quot;:3,&quot;bounds&quot;:{&quot;x&quot;:2213,&quot;y&quot;:2882,&quot;w&quot;:82,&quot;h&quot;:44},&quot;atoms&quot;:[{&quot;id&quot;:4105,&quot;token&quot;:&quot;d:1&quot;,&quot;particle_id&quot;:&quot;img3-m191-p5&quot;,&quot;molecule_id&quot;:&quot;img3-m191&quot;,&quot;atom_order&quot;:3}]}</metadata>
  <rect x="0" y="0" width="82" height="44" fill="#f8f0d8"/>
  <image href="file:///C:/Users/HHHES/AppData/Roaming/com.voynichlab.datasetcreator/images/1/35a70f63-88ab-4986-b441-b78046a10087.jpg" x="-2213" y="-2882" width="2972" height="3766" opacity="0.92"/>
  <rect x="0.5" y="0.5" width="81" height="43" fill="none" stroke="#111827" stroke-width="1" opacity="0.35"/>
  <polyline points="16,21 17,20 18,20 18,19 19,19 20,18 21,18 22,18 22,17 23,17 24,17 25,17 26,17 27,17 29,16 31,16 32,16 34,16 36,16 37,16 39,16 41,16 43,17 46,17 48,18 49,18 50,18 51,18 52,19 53,19 54,19 55,19 55,20 56,20 57,20 58,21 59,21 59,22 60,22 61,22 62,23 63,23 63,24 64,24 64,25 65,25 65,26 65,27 66,27 66,28" fill="none" stroke="#ff2d55" stroke-width="3" stroke-linecap="round" stroke-linejoin="round" opacity="0.95">
    <title>4105 d:1</title>
  </polyline>
</svg>
