<?xml version="1.0" encoding="UTF-8"?>
<svg xmlns="http://www.w3.org/2000/svg" width="98" height="42" viewBox="0 0 98 42">
  <title>atom 4106 d:1</title>
  <metadata>{&quot;entityType&quot;:&quot;atom&quot;,&quot;entityId&quot;:&quot;4106&quot;,&quot;token&quot;:&quot;d:1&quot;,&quot;signature&quot;:&quot;d:1&quot;,&quot;imageName&quot;:&quot;page-003.jpg&quot;,&quot;imageId&quot;:3,&quot;bounds&quot;:{&quot;x&quot;:2109,&quot;y&quot;:2977,&quot;w&quot;:98,&quot;h&quot;:42},&quot;atoms&quot;:[{&quot;id&quot;:4106,&quot;token&quot;:&quot;d:1&quot;,&quot;particle_id&quot;:&quot;img3-m197-p4&quot;,&quot;molecule_id&quot;:&quot;img3-m197&quot;,&quot;atom_order&quot;:4}]}</metadata>
  <rect x="0" y="0" width="98" height="42" fill="#f8f0d8"/>
  <image href="file:///C:/Users/HHHES/AppData/Roaming/com.voynichlab.datasetcreator/images/1/35a70f63-88ab-4986-b441-b78046a10087.jpg" x="-2109" y="-2977" width="2972" height="3766" opacity="0.92"/>
  <rect x="0.5" y="0.5" width="97" height="41" fill="none" stroke="#111827" stroke-width="1" opacity="0.35"/>
  <polyline points="16,21 17,21 18,20 19,20 20,20 21,19 22,19 23,18 24,18 25,17 26,17 27,17 28,17 29,17 30,16 31,16 33,16 34,16 36,17 37,17 39,17 40,17 41,17 42,18 44,18 46,18 47,18 49,18 50,18 51,18 52,18 52,19 53,19 54,19 55,19 56,19 57,20 58,20 59,20 60,20 61,21 62,21 63,21 64,21 65,21 65,22 66,22 67,22 69,22 69,23 70,23 71,23 72,23 72,24 73,24 74,24 75,24 76,25 77,25 78,25 79,25 80,25 81,26 82,26" fill="none" stroke="#ff2d55" stroke-width="3" stroke-linecap="round" stroke-linejoin="round" opacity="0.95">
    <title>4106 d:1</title>
  </polyline>
</svg>
