<?xml version="1.0" encoding="UTF-8"?>
<svg xmlns="http://www.w3.org/2000/svg" width="97" height="45" viewBox="0 0 97 45">
  <title>atom 5496 d:1</title>
  <metadata>{&quot;entityType&quot;:&quot;atom&quot;,&quot;entityId&quot;:&quot;5496&quot;,&quot;token&quot;:&quot;d:1&quot;,&quot;signature&quot;:&quot;d:1&quot;,&quot;imageName&quot;:&quot;page-003.jpg&quot;,&quot;imageId&quot;:3,&quot;bounds&quot;:{&quot;x&quot;:921,&quot;y&quot;:1211,&quot;w&quot;:97,&quot;h&quot;:45},&quot;atoms&quot;:[{&quot;id&quot;:5496,&quot;token&quot;:&quot;d:1&quot;,&quot;particle_id&quot;:&quot;img3-m59-p1&quot;,&quot;molecule_id&quot;:&quot;img3-m59&quot;,&quot;atom_order&quot;:7}]}</metadata>
  <rect x="0" y="0" width="97" height="45" fill="#f8f0d8"/>
  <image href="file:///C:/Users/HHHES/AppData/Roaming/com.voynichlab.datasetcreator/images/1/35a70f63-88ab-4986-b441-b78046a10087.jpg" x="-921" y="-1211" width="2972" height="3766" opacity="0.92"/>
  <rect x="0.5" y="0.5" width="96" height="44" fill="none" stroke="#111827" stroke-width="1" opacity="0.35"/>
  <polyline points="17,29 17,28 17,27 16,26 16,25 16,24 17,24 17,23 17,22 18,22 18,21 19,21 19,20 20,20 20,19 21,19 22,19 22,18 23,18 24,17 25,17 26,17 27,16 28,16 29,16 30,16 31,16 32,16 34,16 35,16 36,16 37,16 38,17 39,17 40,17 41,17 42,18 43,18 44,18 45,18 46,19 47,19 48,19 49,19 50,19 51,19 52,19 53,19 54,19 55,19 56,19 57,19 58,19 59,19 60,19 61,19 62,19 63,19 64,19 65,19 66,19 67,18 68,18 69,18 70,18 71,18 72,18 73,18 74,18 75,18 76,18 77,18 78,18 79,18 80,18 81,18" fill="none" stroke="#ff2d55" stroke-width="3" stroke-linecap="round" stroke-linejoin="round" opacity="0.95">
    <title>5496 d:1</title>
  </polyline>
</svg>
