<?xml version="1.0" encoding="UTF-8"?>
<svg xmlns="http://www.w3.org/2000/svg" width="81" height="54" viewBox="0 0 81 54">
  <title>atom 5497 d:1</title>
  <metadata>{&quot;entityType&quot;:&quot;atom&quot;,&quot;entityId&quot;:&quot;5497&quot;,&quot;token&quot;:&quot;d:1&quot;,&quot;signature&quot;:&quot;d:1&quot;,&quot;imageName&quot;:&quot;page-003.jpg&quot;,&quot;imageId&quot;:3,&quot;bounds&quot;:{&quot;x&quot;:846,&quot;y&quot;:1440,&quot;w&quot;:81,&quot;h&quot;:54},&quot;atoms&quot;:[{&quot;id&quot;:5497,&quot;token&quot;:&quot;d:1&quot;,&quot;particle_id&quot;:&quot;img3-m66-p1&quot;,&quot;molecule_id&quot;:&quot;img3-m66&quot;,&quot;atom_order&quot;:7}]}</metadata>
  <rect x="0" y="0" width="81" height="54" fill="#f8f0d8"/>
  <image href="file:///C:/Users/HHHES/AppData/Roaming/com.voynichlab.datasetcreator/images/1/35a70f63-88ab-4986-b441-b78046a10087.jpg" x="-846" y="-1440" width="2972" height="3766" opacity="0.92"/>
  <rect x="0.5" y="0.5" width="80" height="53" fill="none" stroke="#111827" stroke-width="1" opacity="0.35"/>
  <polyline points="27,38 26,38 25,38 24,38 23,38 22,37 21,37 20,36 19,36 19,35 18,35 18,34 17,33 17,32 16,32 16,31 16,30 16,29 16,28 17,27 17,26 18,26 18,25 19,24 20,23 21,22 22,21 23,20 24,20 25,19 26,19 27,19 28,19 29,18 30,18 31,18 32,18 33,18 34,18 36,17 38,17 39,17 40,17 41,17 42,17 43,17 44,17 45,17 46,16 47,16 48,16 49,16 50,16 51,16 52,16 52,17 54,17 55,17 56,18 57,18 58,18 60,19 61,19 62,20 63,20 64,20 64,21 65,21" fill="none" stroke="#ff2d55" stroke-width="3" stroke-linecap="round" stroke-linejoin="round" opacity="0.95">
    <title>5497 d:1</title>
  </polyline>
</svg>
