<?xml version="1.0" encoding="UTF-8"?>
<svg xmlns="http://www.w3.org/2000/svg" width="72" height="50" viewBox="0 0 72 50">
  <title>atom 5498 d:1</title>
  <metadata>{&quot;entityType&quot;:&quot;atom&quot;,&quot;entityId&quot;:&quot;5498&quot;,&quot;token&quot;:&quot;d:1&quot;,&quot;signature&quot;:&quot;d:1&quot;,&quot;imageName&quot;:&quot;page-003.jpg&quot;,&quot;imageId&quot;:3,&quot;bounds&quot;:{&quot;x&quot;:1252,&quot;y&quot;:1658,&quot;w&quot;:72,&quot;h&quot;:50},&quot;atoms&quot;:[{&quot;id&quot;:5498,&quot;token&quot;:&quot;d:1&quot;,&quot;particle_id&quot;:&quot;img3-m80-p1&quot;,&quot;molecule_id&quot;:&quot;img3-m80&quot;,&quot;atom_order&quot;:8}]}</metadata>
  <rect x="0" y="0" width="72" height="50" fill="#f8f0d8"/>
  <image href="file:///C:/Users/HHHES/AppData/Roaming/com.voynichlab.datasetcreator/images/1/35a70f63-88ab-4986-b441-b78046a10087.jpg" x="-1252" y="-1658" width="2972" height="3766" opacity="0.92"/>
  <rect x="0.5" y="0.5" width="71" height="49" fill="none" stroke="#111827" stroke-width="1" opacity="0.35"/>
  <polyline points="24,34 23,34 22,34 21,34 21,33 20,33 19,33 19,32 18,32 17,32 17,31 16,30 16,29 16,28 16,27 16,26 17,25 18,24 19,24 19,23 20,22 21,21 21,20 22,20 22,19 23,19 24,18 24,17 25,17 26,17 26,16 27,16 28,16 29,16 30,16 31,16 32,16 33,16 34,16 35,16 36,16 37,16 38,16 39,16 40,16 41,16 42,17 44,17 45,17 46,17 47,17 47,18 48,18 49,19 50,19 51,19 52,20 53,20 53,21 54,21 55,21 56,22" fill="none" stroke="#ff2d55" stroke-width="3" stroke-linecap="round" stroke-linejoin="round" opacity="0.95">
    <title>5498 d:1</title>
  </polyline>
</svg>
