<?xml version="1.0" encoding="UTF-8"?>
<svg xmlns="http://www.w3.org/2000/svg" width="146" height="123" viewBox="0 0 146 123">
  <title>molecule img5-m10 e:1 a:1 e:1 b:1 c:1 a:1 g:1 e:1 e:1 h:1</title>
  <metadata>{&quot;entityType&quot;:&quot;molecule&quot;,&quot;entityId&quot;:&quot;img5-m10&quot;,&quot;token&quot;:&quot;e:1 a:1 e:1 b:1 c:1 a:1 g:1 e:1 e:1 h:1&quot;,&quot;signature&quot;:&quot;e:1 a:1 e:1 b:1 c:1 a:1 g:1 e:1 e:1 h:1&quot;,&quot;imageName&quot;:&quot;page-005.jpg&quot;,&quot;imageId&quot;:5,&quot;bounds&quot;:{&quot;x&quot;:1508,&quot;y&quot;:562,&quot;w&quot;:146,&quot;h&quot;:123},&quot;atoms&quot;:[{&quot;id&quot;:5649,&quot;token&quot;:&quot;e:1&quot;,&quot;particle_id&quot;:&quot;img5-m10-p1&quot;,&quot;molecule_id&quot;:&quot;img5-m10&quot;,&quot;atom_order&quot;:1},{&quot;id&quot;:5531,&quot;token&quot;:&quot;a:1&quot;,&quot;particle_id&quot;:&quot;img5-m10-p1&quot;,&quot;molecule_id&quot;:&quot;img5-m10&quot;,&quot;atom_order&quot;:2},{&quot;id&quot;:5653,&quot;token&quot;:&quot;e:1&quot;,&quot;particle_id&quot;:&quot;img5-m10-p1&quot;,&quot;molecule_id&quot;:&quot;img5-m10&quot;,&quot;atom_order&quot;:3},{&quot;id&quot;:5563,&quot;token&quot;:&quot;b:1&quot;,&quot;particle_id&quot;:&quot;img5-m10-p1&quot;,&quot;molecule_id&quot;:&quot;img5-m10&quot;,&quot;atom_order&quot;:4},{&quot;id&quot;:5583,&quot;token&quot;:&quot;c:1&quot;,&quot;particle_id&quot;:&quot;img5-m10-p1&quot;,&quot;molecule_id&quot;:&quot;img5-m10&quot;,&quot;atom_order&quot;:5},{&quot;id&quot;:5532,&quot;token&quot;:&quot;a:1&quot;,&quot;particle_id&quot;:&quot;img5-m10-p1&quot;,&quot;molecule_id&quot;:&quot;img5-m10&quot;,&quot;atom_order&quot;:6},{&quot;id&quot;:6401,&quot;token&quot;:&quot;g:1&quot;,&quot;particle_id&quot;:&quot;img5-m10-p1&quot;,&quot;molecule_id&quot;:&quot;img5-m10&quot;,&quot;atom_order&quot;:7},{&quot;id&quot;:5648,&quot;token&quot;:&quot;e:1&quot;,&quot;particle_id&quot;:&quot;img5-m10-p1&quot;,&quot;molecule_id&quot;:&quot;img5-m10&quot;,&quot;atom_order&quot;:8},{&quot;id&quot;:5647,&quot;token&quot;:&quot;e:1&quot;,&quot;particle_id&quot;:&quot;img5-m10-p2&quot;,&quot;molecule_id&quot;:&quot;img5-m10&quot;,&quot;atom_order&quot;:1},{&quot;id&quot;:5903,&quot;token&quot;:&quot;h:1&quot;,&quot;particle_id&quot;:&quot;img5-m10-p2&quot;,&quot;molecule_id&quot;:&quot;img5-m10&quot;,&quot;atom_order&quot;:2}]}</metadata>
  <rect x="0" y="0" width="146" height="123" fill="#f8f0d8"/>
  <image href="file:///C:/Users/HHHES/AppData/Roaming/com.voynichlab.datasetcreator/images/1/a6cd3b6e-2a78-4b30-a4be-5d186aea258e.jpg" x="-1508" y="-562" width="2691" height="3770" opacity="0.92"/>
  <rect x="0.5" y="0.5" width="145" height="122" fill="none" stroke="#111827" stroke-width="1" opacity="0.35"/>
  <polyline points="31,74 31,75 30,75 30,76 29,76 28,76 28,77 27,77 26,77 25,77 24,77 23,77 22,77 21,77 21,76 20,76 19,76 18,76 18,75 17,75 16,75 16,74 16,73 16,72 16,71 16,70 16,69 16,68 17,68 17,67 17,66 17,65 18,65 18,64 18,63 19,63 19,62 19,61 20,61 21,61 21,60 22,60 22,59 23,59 24,59 24,58 25,58 26,58 27,58 27,57" fill="none" stroke="#f2e45c" stroke-width="3" stroke-linecap="round" stroke-linejoin="round" opacity="0.95">
    <title>5649 e:1</title>
  </polyline>
  <polyline points="43,17 43,18 43,19 43,20 43,21 43,22 43,23 43,24 44,25 44,26 44,27 44,28 44,29 44,30 44,31 44,32 44,33 44,34 44,35 44,36 44,37 44,38 43,38 43,39 43,40 43,41 43,42 43,43 43,44 43,45 43,46 43,47 43,48 43,49 43,50 43,51 43,52 43,53 43,54 43,55 43,56 43,57 43,58 43,59 43,60 43,61 43,62 43,63 43,64 43,65 43,66 43,67 43,68 42,68 42,69 42,70 42,71 43,72 43,73 43,74 44,74 44,75 44,76 44,75" fill="none" stroke="#00f0b5" stroke-width="3" stroke-linecap="round" stroke-linejoin="round" opacity="0.95">
    <title>5531 a:1</title>
  </polyline>
  <polyline points="44,17 43,17 42,17 42,18 41,18 40,18 40,19 39,19 38,20 37,20 36,20 36,21 35,21 34,21 34,22 33,22 32,22 32,23 31,23 31,24 31,25 31,26 31,27 31,28 31,29 32,29 32,30 33,30 34,31 35,31 35,32 36,32 37,32" fill="none" stroke="#f2e45c" stroke-width="3" stroke-linecap="round" stroke-linejoin="round" opacity="0.95">
    <title>5653 e:1</title>
  </polyline>
  <polyline points="33,30 34,30 34,31 35,31 36,31 36,32 37,32 38,32 38,33 39,33 40,33 41,33 41,34 42,34 43,34 43,35 44,35 45,35 46,35 47,35 48,36 49,36 50,36 51,36 52,36 52,37 53,37 54,37 55,37 56,37 57,37 58,37 59,37 60,37 61,37 62,37 64,37 65,37 66,37 67,37 68,37 68,36 69,36 70,36 71,36 72,36 73,36 74,35 75,35 76,35 77,35 78,35 79,35 79,34 80,34 80,33 81,33 81,32 82,32 83,31" fill="none" stroke="#2f7df6" stroke-width="3" stroke-linecap="round" stroke-linejoin="round" opacity="0.95">
    <title>5563 b:1</title>
  </polyline>
  <polyline points="63,22 63,23 62,23 62,24 62,25 61,25 61,26 61,27 61,28 61,29 61,30 61,31 61,32 62,32 62,33 63,33 63,34 64,35 65,35 66,35 67,35 67,36 68,36 69,36 70,36 71,36 72,36 73,36 74,36 75,36 75,35 76,35 77,35 77,34 77,33 78,33 78,32 79,32 79,31 79,30 80,30 80,29 80,28 81,28 81,27 81,26 81,25 81,24 81,23 81,22 80,22 80,21 80,20 79,20 79,19 78,19 78,18 77,18 77,17 76,17 75,17 75,16 74,16 73,16 72,16 71,16 70,16 69,16 68,16 67,17 66,17 66,18 65,18 65,19 64,19 63,19 63,20 62,20 62,21 62,22" fill="none" stroke="#8aff00" stroke-width="3" stroke-linecap="round" stroke-linejoin="round" opacity="0.95">
    <title>5583 c:1</title>
  </polyline>
  <polyline points="64,19 65,19 64,19 63,20 63,21 62,22 62,23 62,24 61,25 61,26 61,27 61,28 61,30 61,31 61,32 61,34 61,35 60,37 60,38 60,39 60,40 60,41 60,42 60,43 60,44 60,45 60,46 60,47 60,48 60,49 60,50 60,51 60,53 60,54 60,55 60,56 60,57 60,58 60,59 60,61 61,61 61,63 61,64 61,65 61,66 61,67 61,68 61,69 61,70 61,71 61,72 62,72 62,73 62,74 62,75 62,74" fill="none" stroke="#00f0b5" stroke-width="3" stroke-linecap="round" stroke-linejoin="round" opacity="0.95">
    <title>5532 a:1</title>
  </polyline>
  <polyline points="23,57 24,58 25,58 26,58 27,58 28,58 28,59 29,59 31,59 32,59 33,59 34,59 35,59 37,60 39,60 40,60 41,60 43,60 44,60 46,60 47,60 48,60 50,61 51,61 53,61 54,61 55,61 56,61 57,61 58,61 59,60 60,60 61,60 62,60 63,60 64,60 65,60 66,60 67,60 68,60 69,60 70,60 71,60 72,60 73,59 74,59 75,59 76,59 77,59 78,59 79,59 80,59 81,59 82,59 83,59 84,59 85,59 86,59 87,59 88,59 89,59 90,59 91,59 92,59 93,59 94,59 95,59 96,59" fill="none" stroke="#7c3cff" stroke-width="3" stroke-linecap="round" stroke-linejoin="round" opacity="0.95">
    <title>6401 g:1</title>
  </polyline>
  <polyline points="100,74 100,75 99,75 99,76 98,76 97,76 97,77 96,77 95,77 94,77 93,77 92,77 91,77 90,77 90,76 89,76 88,76 87,76 87,75 86,75 85,75 85,74 85,73 85,72 85,71 85,70 85,69 85,68 86,68 86,67 86,66 86,65 87,65 87,64 87,63 88,63 88,62 88,61 89,61 90,61 90,60 91,60 91,59 92,59 93,59 93,58 94,58 95,58 96,58 96,57" fill="none" stroke="#f2e45c" stroke-width="3" stroke-linecap="round" stroke-linejoin="round" opacity="0.95">
    <title>5648 e:1</title>
  </polyline>
  <polyline points="123,74 123,75 122,75 122,76 121,76 120,76 120,77 119,77 118,77 117,77 116,77 115,77 114,77 113,77 113,76 112,76 111,76 110,76 110,75 109,75 108,75 108,74 108,73 108,72 108,71 108,70 108,69 108,68 109,68 109,67 109,66 109,65 110,65 110,64 110,63 111,63 111,62 111,61 112,61 113,61 113,60 114,60 114,59 115,59 116,59 116,58 117,58 118,58 119,58 119,57" fill="none" stroke="#f2e45c" stroke-width="3" stroke-linecap="round" stroke-linejoin="round" opacity="0.95">
    <title>5647 e:1</title>
  </polyline>
  <polyline points="118,57 119,57 119,58 120,58 121,58 121,59 121,60 122,60 123,61 124,62 125,63 126,64 126,65 127,65 127,66 128,66 128,67 128,68 129,69 129,70 129,71 129,72 130,72 130,73 130,74 130,75 130,76 130,77 130,78 129,78 129,79 129,80 129,81 129,82 128,83 128,84 128,85 127,86 127,87 126,87 126,88 125,89 125,90 124,90 124,91 123,91 123,92 122,92 122,93 121,93 121,94 120,95 120,96 119,96 119,97 118,97 118,98 117,98 117,99 116,99 116,100 115,100 115,101 114,102 114,103 113,103 113,104 112,105 112,106 111,107" fill="none" stroke="#ff8c00" stroke-width="3" stroke-linecap="round" stroke-linejoin="round" opacity="0.95">
    <title>5903 h:1</title>
  </polyline>
</svg>
