<?xml version="1.0" encoding="UTF-8"?>
<svg xmlns="http://www.w3.org/2000/svg" width="65" height="53" viewBox="0 0 65 53">
  <title>atom 1249 c:1</title>
  <metadata>{&quot;entityType&quot;:&quot;atom&quot;,&quot;entityId&quot;:&quot;1249&quot;,&quot;token&quot;:&quot;c:1&quot;,&quot;signature&quot;:&quot;c:1&quot;,&quot;imageName&quot;:&quot;page-003.jpg&quot;,&quot;imageId&quot;:3,&quot;bounds&quot;:{&quot;x&quot;:1885,&quot;y&quot;:546,&quot;w&quot;:65,&quot;h&quot;:53},&quot;atoms&quot;:[{&quot;id&quot;:1249,&quot;token&quot;:&quot;c:1&quot;,&quot;particle_id&quot;:&quot;img3-m10-p1&quot;,&quot;molecule_id&quot;:&quot;img3-m10&quot;,&quot;atom_order&quot;:4}]}</metadata>
  <rect x="0" y="0" width="65" height="53" fill="#f8f0d8"/>
  
  <rect x="0.5" y="0.5" width="64" height="52" fill="none" stroke="#111827" stroke-width="1" opacity="0.35"/>
  <polyline points="17,36 18,36 19,36 20,36 21,36 22,36 23,36 24,36 25,36 26,36 27,36 28,36 29,37 30,37 31,37 32,37 33,37 34,37 34,36 35,36 36,36 37,36 38,36 39,36 40,36 41,36 41,35 42,35 43,35 43,34 44,34 45,34 46,33 47,33 47,32 48,32 48,31 49,31 49,30 49,29 49,28 49,27 49,26 49,25 49,24 49,23 49,22 48,21 48,20 47,20 47,19 46,18 45,17 44,17 43,17 42,17 41,17 40,17 39,17 38,17 37,16 36,16 35,16 34,16 33,16 33,17 32,17 31,17 30,17 29,17 29,18 28,18 27,18 26,18 26,19 25,19 25,20 24,20 23,20 23,21 22,21 22,22 21,23 21,24 20,24 20,25 19,25 19,26 18,26 18,27 17,27 17,28 16,28 16,29 16,30 16,31 16,32 16,33 16,34 16,35 17,36 18,36" fill="none" stroke="#8aff00" stroke-width="3" stroke-linecap="round" stroke-linejoin="round" opacity="0.95">
    <title>1249 c:1</title>
  </polyline>
</svg>
