<svg xmlns="http://www.w3.org/2000/svg" viewBox="145 192 46 35"><rect x="145" y="192" width="46" height="35" fill="#17181b"/><polyline points="166,218 166,219 165,219 165,220 164,220 163,220 163,221 162,221 161,221 160,221 159,221 158,221 157,221 156,221 156,220 155,220 154,220 153,220 153,219 152,219 151,219 151,218 151,217 151,216 151,215 151,214 151,213 151,212 152,212 152,211 152,210 152,209 153,209 153,208 153,207 154,207 154,206 154,205 155,205 156,205 156,204 157,204 157,203 158,203 159,203 159,202 160,202 161,202 162,202 162,201" fill="none" stroke="#f2e45c" stroke-width="3" stroke-linecap="round" stroke-linejoin="round" opacity="0.95">
    <title>993 e:1</title>
  </polyline><polyline points="162,201 163,201 164,201 165,201 165,200 166,200 167,200 168,200 169,200 170,200 171,200 172,200 173,200 174,200 175,200 176,200 177,200 177,199 178,199 179,199 180,199 181,199 182,199 183,199 184,199" fill="none" stroke="#7c3cff" stroke-width="3" stroke-linecap="round" stroke-linejoin="round" opacity="0.95">
    <title>995 g:1</title>
  </polyline><polyline points="185,213 184,213 184,214 183,214 183,215 182,215 182,216 181,216 180,216 179,216 178,216 177,216 177,215 176,215 176,214 175,214 175,213 175,212 175,211 175,210 175,209 175,208 175,207 176,206 176,205 177,205 177,204 177,203 178,203 178,202 179,202 180,201 181,201 181,200 182,200 182,199 183,199 184,199 185,199" fill="none" stroke="#f2e45c" stroke-width="3" stroke-linecap="round" stroke-linejoin="round" opacity="0.95">
    <title>994 e:1</title>
  </polyline></svg>
