<svg xmlns="http://www.w3.org/2000/svg" viewBox="94 192 44 37"><rect x="94" y="192" width="44" height="37" fill="#17181b"/><polyline points="118,219 117,219 116,220 115,220 115,221 114,221 114,222 113,222 112,222 112,223 111,223 110,223 109,223 108,223 107,223 106,222 105,222 105,221 104,221 103,221 103,220 102,220 102,219 101,219 101,218 101,217 100,217 100,216 100,215 100,214 100,213 100,212 100,211 100,210 100,209 101,209 101,208 101,207 102,207 102,206 103,206 104,205 105,205 105,204 106,203 107,203 107,202 108,202 108,201 109,201 110,201 111,200 112,200 113,199 114,199 115,199 116,199 117,199 117,198 118,198 119,198" fill="none" stroke="#f2e45c" stroke-width="3" stroke-linecap="round" stroke-linejoin="round" opacity="0.95">
    <title>991 e:1</title>
  </polyline><polyline points="120,198 120,199 121,199 121,200 122,200 122,201 122,202 122,203 123,203 123,204 123,205 124,205 124,206 124,207 125,207 125,208 125,209 126,210 126,211 127,212 127,213 128,213 128,214 128,215 129,215 129,216 130,217 130,218 131,218 131,219 131,220 132,220 132,221 132,222" fill="none" stroke="#00a2ff" stroke-width="3" stroke-linecap="round" stroke-linejoin="round" opacity="0.95">
    <title>992 f:1</title>
  </polyline></svg>
