<?xml version="1.0" encoding="UTF-8"?>
<svg xmlns="http://www.w3.org/2000/svg" width="53" height="56" viewBox="0 0 53 56">
  <title>atom 1107 e:1</title>
  <metadata>{&quot;entityType&quot;:&quot;atom&quot;,&quot;entityId&quot;:&quot;1107&quot;,&quot;token&quot;:&quot;e:1&quot;,&quot;signature&quot;:&quot;e:1&quot;,&quot;imageName&quot;:&quot;page-003.jpg&quot;,&quot;imageId&quot;:3,&quot;bounds&quot;:{&quot;x&quot;:1859,&quot;y&quot;:512,&quot;w&quot;:53,&quot;h&quot;:56},&quot;atoms&quot;:[{&quot;id&quot;:1107,&quot;token&quot;:&quot;e:1&quot;,&quot;particle_id&quot;:&quot;img3-m2-p2&quot;,&quot;molecule_id&quot;:&quot;img3-m2&quot;,&quot;atom_order&quot;:1}]}</metadata>
  <rect x="0" y="0" width="53" height="56" fill="#f8f0d8"/>
  <image href="file:///C:/Users/HHHES/AppData/Roaming/com.voynichlab.datasetcreator/images/1/35a70f63-88ab-4986-b441-b78046a10087.jpg" x="-1859" y="-512" width="2972" height="3766" opacity="0.92"/>
  <rect x="0.5" y="0.5" width="52" height="55" fill="none" stroke="#111827" stroke-width="1" opacity="0.35"/>
  <polyline points="37,36 36,36 36,37 36,38 35,38 35,39 34,39 34,40 33,40 32,40 31,40 30,40 29,40 28,40 27,40 26,40 25,40 25,39 24,39 23,38 22,38 22,37 21,37 20,36 19,35 19,34 18,34 18,33 17,33 17,32 17,31 17,30 16,29 16,28 16,27 16,26 16,25 16,24 16,23 16,22 16,21 17,21 17,20 17,19 18,19 18,18 19,18 19,17 20,17 21,17 22,17 22,16 23,16 23,17 24,17 25,18 26,18" fill="none" stroke="#f2e45c" stroke-width="3" stroke-linecap="round" stroke-linejoin="round" opacity="0.95">
    <title>1107 e:1</title>
  </polyline>
</svg>
