<?xml version="1.0" encoding="UTF-8"?>
<svg xmlns="http://www.w3.org/2000/svg" width="49" height="50" viewBox="0 0 49 50">
  <title>atom 1199 e:1</title>
  <metadata>{&quot;entityType&quot;:&quot;atom&quot;,&quot;entityId&quot;:&quot;1199&quot;,&quot;token&quot;:&quot;e:1&quot;,&quot;signature&quot;:&quot;e:1&quot;,&quot;imageName&quot;:&quot;page-003.jpg&quot;,&quot;imageId&quot;:3,&quot;bounds&quot;:{&quot;x&quot;:1582,&quot;y&quot;:594,&quot;w&quot;:49,&quot;h&quot;:50},&quot;atoms&quot;:[{&quot;id&quot;:1199,&quot;token&quot;:&quot;e:1&quot;,&quot;particle_id&quot;:&quot;img3-m14-p2&quot;,&quot;molecule_id&quot;:&quot;img3-m14&quot;,&quot;atom_order&quot;:3}]}</metadata>
  <rect x="0" y="0" width="49" height="50" fill="#f8f0d8"/>
  <image href="file:///C:/Users/HHHES/AppData/Roaming/com.voynichlab.datasetcreator/images/1/35a70f63-88ab-4986-b441-b78046a10087.jpg" x="-1582" y="-594" width="2972" height="3766" opacity="0.92"/>
  <rect x="0.5" y="0.5" width="48" height="49" fill="none" stroke="#111827" stroke-width="1" opacity="0.35"/>
  <polyline points="33,31 32,31 31,31 31,32 30,32 29,32 28,33 27,33 26,33 25,33 24,33 23,33 23,34 22,34 21,34 21,33 20,33 20,32 19,32 19,31 18,31 17,31 17,30 17,29 16,29 16,28 16,27 16,26 16,25 17,25 17,24 18,23 19,23 19,22 20,22 20,21 21,21 21,20 22,20 23,20 23,19 24,19 24,18 25,18 26,18 27,18 27,17 28,17 29,17 29,16 30,16 31,16 32,16 33,16" fill="none" stroke="#f2e45c" stroke-width="3" stroke-linecap="round" stroke-linejoin="round" opacity="0.95">
    <title>1199 e:1</title>
  </polyline>
</svg>
