<?xml version="1.0" encoding="UTF-8"?>
<svg xmlns="http://www.w3.org/2000/svg" width="50" height="46" viewBox="0 0 50 46">
  <title>atom 1366 e:1</title>
  <metadata>{&quot;entityType&quot;:&quot;atom&quot;,&quot;entityId&quot;:&quot;1366&quot;,&quot;token&quot;:&quot;e:1&quot;,&quot;signature&quot;:&quot;e:1&quot;,&quot;imageName&quot;:&quot;page-003.jpg&quot;,&quot;imageId&quot;:3,&quot;bounds&quot;:{&quot;x&quot;:1111,&quot;y&quot;:705,&quot;w&quot;:50,&quot;h&quot;:46},&quot;atoms&quot;:[{&quot;id&quot;:1366,&quot;token&quot;:&quot;e:1&quot;,&quot;particle_id&quot;:&quot;img3-m26-p1&quot;,&quot;molecule_id&quot;:&quot;img3-m26&quot;,&quot;atom_order&quot;:1}]}</metadata>
  <rect x="0" y="0" width="50" height="46" fill="#f8f0d8"/>
  <image href="file:///C:/Users/HHHES/AppData/Roaming/com.voynichlab.datasetcreator/images/1/35a70f63-88ab-4986-b441-b78046a10087.jpg" x="-1111" y="-705" width="2972" height="3766" opacity="0.92"/>
  <rect x="0.5" y="0.5" width="49" height="45" fill="none" stroke="#111827" stroke-width="1" opacity="0.35"/>
  <polyline points="27,30 26,30 25,30 24,30 23,30 22,30 21,30 20,30 19,30 19,29 18,29 17,28 17,27 16,27 16,26 16,25 16,24 16,23 16,22 17,22 17,21 18,20 19,20 19,19 20,19 20,18 21,18 22,18 23,18 23,17 24,17 25,17 26,17 27,17 28,17 29,17 29,16 30,16 31,16 32,16 33,16 34,16" fill="none" stroke="#f2e45c" stroke-width="3" stroke-linecap="round" stroke-linejoin="round" opacity="0.95">
    <title>1366 e:1</title>
  </polyline>
</svg>
