<?xml version="1.0" encoding="UTF-8"?>
<svg xmlns="http://www.w3.org/2000/svg" width="43" height="54" viewBox="0 0 43 54">
  <title>atom 1380 e:1</title>
  <metadata>{&quot;entityType&quot;:&quot;atom&quot;,&quot;entityId&quot;:&quot;1380&quot;,&quot;token&quot;:&quot;e:1&quot;,&quot;signature&quot;:&quot;e:1&quot;,&quot;imageName&quot;:&quot;page-003.jpg&quot;,&quot;imageId&quot;:3,&quot;bounds&quot;:{&quot;x&quot;:1349,&quot;y&quot;:694,&quot;w&quot;:43,&quot;h&quot;:54},&quot;atoms&quot;:[{&quot;id&quot;:1380,&quot;token&quot;:&quot;e:1&quot;,&quot;particle_id&quot;:&quot;img3-m24-p2&quot;,&quot;molecule_id&quot;:&quot;img3-m24&quot;,&quot;atom_order&quot;:1}]}</metadata>
  <rect x="0" y="0" width="43" height="54" fill="#f8f0d8"/>
  <image href="file:///C:/Users/HHHES/AppData/Roaming/com.voynichlab.datasetcreator/images/1/35a70f63-88ab-4986-b441-b78046a10087.jpg" x="-1349" y="-694" width="2972" height="3766" opacity="0.92"/>
  <rect x="0.5" y="0.5" width="42" height="53" fill="none" stroke="#111827" stroke-width="1" opacity="0.35"/>
  <polyline points="27,35 27,36 26,36 25,37 24,37 24,38 23,38 22,38 21,38 20,38 20,37 19,37 18,37 18,36 18,35 17,35 17,34 17,33 17,32 16,32 16,31 16,30 16,29 16,28 16,27 16,26 17,25 17,24 17,23 18,22 18,21 19,21 19,20 20,20 21,19 22,19 23,18 24,18 24,17 25,17 26,17 27,17 27,16" fill="none" stroke="#f2e45c" stroke-width="3" stroke-linecap="round" stroke-linejoin="round" opacity="0.95">
    <title>1380 e:1</title>
  </polyline>
</svg>
