<?xml version="1.0" encoding="UTF-8"?>
<svg xmlns="http://www.w3.org/2000/svg" width="51" height="53" viewBox="0 0 51 53">
  <title>atom 1401 e:1</title>
  <metadata>{&quot;entityType&quot;:&quot;atom&quot;,&quot;entityId&quot;:&quot;1401&quot;,&quot;token&quot;:&quot;e:1&quot;,&quot;signature&quot;:&quot;e:1&quot;,&quot;imageName&quot;:&quot;page-003.jpg&quot;,&quot;imageId&quot;:3,&quot;bounds&quot;:{&quot;x&quot;:1551,&quot;y&quot;:634,&quot;w&quot;:51,&quot;h&quot;:53},&quot;atoms&quot;:[{&quot;id&quot;:1401,&quot;token&quot;:&quot;e:1&quot;,&quot;particle_id&quot;:&quot;img3-m19-p1&quot;,&quot;molecule_id&quot;:&quot;img3-m19&quot;,&quot;atom_order&quot;:3}]}</metadata>
  <rect x="0" y="0" width="51" height="53" fill="#f8f0d8"/>
  <image href="file:///C:/Users/HHHES/AppData/Roaming/com.voynichlab.datasetcreator/images/1/35a70f63-88ab-4986-b441-b78046a10087.jpg" x="-1551" y="-634" width="2972" height="3766" opacity="0.92"/>
  <rect x="0.5" y="0.5" width="50" height="52" fill="none" stroke="#111827" stroke-width="1" opacity="0.35"/>
  <polyline points="35,16 34,16 33,16 32,16 32,17 31,17 30,17 30,18 29,18 28,18 28,19 27,19 26,19 26,20 25,20 25,21 24,21 23,21 23,22 22,22 22,23 21,23 21,24 20,24 19,24 19,25 18,25 18,26 17,26 17,27 17,28 16,28 16,29 16,30 16,31 17,31 17,32 18,32 18,33 18,34 19,34 19,35 20,35 20,36 21,36 22,36 22,37 23,37" fill="none" stroke="#f2e45c" stroke-width="3" stroke-linecap="round" stroke-linejoin="round" opacity="0.95">
    <title>1401 e:1</title>
  </polyline>
</svg>
