<?xml version="1.0" encoding="UTF-8"?>
<svg xmlns="http://www.w3.org/2000/svg" width="50" height="50" viewBox="0 0 50 50">
  <title>atom 1486 e:1</title>
  <metadata>{&quot;entityType&quot;:&quot;atom&quot;,&quot;entityId&quot;:&quot;1486&quot;,&quot;token&quot;:&quot;e:1&quot;,&quot;signature&quot;:&quot;e:1&quot;,&quot;imageName&quot;:&quot;page-003.jpg&quot;,&quot;imageId&quot;:3,&quot;bounds&quot;:{&quot;x&quot;:561,&quot;y&quot;:798,&quot;w&quot;:50,&quot;h&quot;:50},&quot;atoms&quot;:[{&quot;id&quot;:1486,&quot;token&quot;:&quot;e:1&quot;,&quot;particle_id&quot;:&quot;img3-m33-p1&quot;,&quot;molecule_id&quot;:&quot;img3-m33&quot;,&quot;atom_order&quot;:1}]}</metadata>
  <rect x="0" y="0" width="50" height="50" fill="#f8f0d8"/>
  <image href="file:///C:/Users/HHHES/AppData/Roaming/com.voynichlab.datasetcreator/images/1/35a70f63-88ab-4986-b441-b78046a10087.jpg" x="-561" y="-798" width="2972" height="3766" opacity="0.92"/>
  <rect x="0.5" y="0.5" width="49" height="49" fill="none" stroke="#111827" stroke-width="1" opacity="0.35"/>
  <polyline points="34,31 33,31 33,32 32,32 31,33 30,33 29,33 29,34 28,34 27,34 26,34 25,34 24,34 23,34 22,34 21,34 20,34 19,34 18,34 17,34 17,33 16,33 16,32 16,31 16,30 16,29 16,28 17,28 17,27 18,27 18,26 18,25 19,24 19,23 20,23 20,22 21,22 21,21 22,21 22,20 23,20 24,19 25,19 26,18 27,18 27,17 28,17 29,17 29,16 30,16 31,16" fill="none" stroke="#f2e45c" stroke-width="3" stroke-linecap="round" stroke-linejoin="round" opacity="0.95">
    <title>1486 e:1</title>
  </polyline>
</svg>
