<?xml version="1.0" encoding="UTF-8"?>
<svg xmlns="http://www.w3.org/2000/svg" width="56" height="55" viewBox="0 0 56 55">
  <title>atom 1499 e:1</title>
  <metadata>{&quot;entityType&quot;:&quot;atom&quot;,&quot;entityId&quot;:&quot;1499&quot;,&quot;token&quot;:&quot;e:1&quot;,&quot;signature&quot;:&quot;e:1&quot;,&quot;imageName&quot;:&quot;page-003.jpg&quot;,&quot;imageId&quot;:3,&quot;bounds&quot;:{&quot;x&quot;:764,&quot;y&quot;:734,&quot;w&quot;:56,&quot;h&quot;:55},&quot;atoms&quot;:[{&quot;id&quot;:1499,&quot;token&quot;:&quot;e:1&quot;,&quot;particle_id&quot;:&quot;img3-m36-p2&quot;,&quot;molecule_id&quot;:&quot;img3-m36&quot;,&quot;atom_order&quot;:2}]}</metadata>
  <rect x="0" y="0" width="56" height="55" fill="#f8f0d8"/>
  <image href="file:///C:/Users/HHHES/AppData/Roaming/com.voynichlab.datasetcreator/images/1/35a70f63-88ab-4986-b441-b78046a10087.jpg" x="-764" y="-734" width="2972" height="3766" opacity="0.92"/>
  <rect x="0.5" y="0.5" width="55" height="54" fill="none" stroke="#111827" stroke-width="1" opacity="0.35"/>
  <polyline points="28,39 27,39 26,39 25,39 24,39 23,39 22,39 21,39 21,38 20,38 19,38 19,37 18,36 18,35 17,35 17,34 17,33 16,33 16,32 16,31 16,30 16,29 16,28 17,28 17,27 17,26 18,26 18,25 19,24 20,23 21,23 21,22 22,22 23,21 24,21 25,20 26,20 26,19 27,19 28,19 28,18 29,18 30,18 30,17 31,17 32,17 33,17 34,17 35,17 36,17 37,17 37,16 38,16 39,16 40,16 40,17" fill="none" stroke="#f2e45c" stroke-width="3" stroke-linecap="round" stroke-linejoin="round" opacity="0.95">
    <title>1499 e:1</title>
  </polyline>
</svg>
