<?xml version="1.0" encoding="UTF-8"?>
<svg xmlns="http://www.w3.org/2000/svg" width="57" height="53" viewBox="0 0 57 53">
  <title>atom 1544 e:1</title>
  <metadata>{&quot;entityType&quot;:&quot;atom&quot;,&quot;entityId&quot;:&quot;1544&quot;,&quot;token&quot;:&quot;e:1&quot;,&quot;signature&quot;:&quot;e:1&quot;,&quot;imageName&quot;:&quot;page-003.jpg&quot;,&quot;imageId&quot;:3,&quot;bounds&quot;:{&quot;x&quot;:1540,&quot;y&quot;:780,&quot;w&quot;:57,&quot;h&quot;:53},&quot;atoms&quot;:[{&quot;id&quot;:1544,&quot;token&quot;:&quot;e:1&quot;,&quot;particle_id&quot;:&quot;img3-m29-p1&quot;,&quot;molecule_id&quot;:&quot;img3-m29&quot;,&quot;atom_order&quot;:8}]}</metadata>
  <rect x="0" y="0" width="57" height="53" fill="#f8f0d8"/>
  <image href="file:///C:/Users/HHHES/AppData/Roaming/com.voynichlab.datasetcreator/images/1/35a70f63-88ab-4986-b441-b78046a10087.jpg" x="-1540" y="-780" width="2972" height="3766" opacity="0.92"/>
  <rect x="0.5" y="0.5" width="56" height="52" fill="none" stroke="#111827" stroke-width="1" opacity="0.35"/>
  <polyline points="28,37 27,37 26,37 25,37 24,37 23,37 22,37 21,37 20,37 20,36 19,36 19,35 19,34 18,34 18,33 18,32 17,32 17,31 17,30 16,30 16,29 16,28 16,27 16,26 16,25 17,24 18,24 18,23 19,23 19,22 20,22 20,21 21,21 21,20 22,20 23,19 24,19 25,18 26,18 26,17 27,17 28,17 28,16 29,16 30,16 31,16 32,16 33,16 34,16 35,16 36,16 37,16 38,16 39,16 40,16 41,16" fill="none" stroke="#f2e45c" stroke-width="3" stroke-linecap="round" stroke-linejoin="round" opacity="0.95">
    <title>1544 e:1</title>
  </polyline>
</svg>
