<?xml version="1.0" encoding="UTF-8"?>
<svg xmlns="http://www.w3.org/2000/svg" width="50" height="51" viewBox="0 0 50 51">
  <title>atom 1568 e:1</title>
  <metadata>{&quot;entityType&quot;:&quot;atom&quot;,&quot;entityId&quot;:&quot;1568&quot;,&quot;token&quot;:&quot;e:1&quot;,&quot;signature&quot;:&quot;e:1&quot;,&quot;imageName&quot;:&quot;page-003.jpg&quot;,&quot;imageId&quot;:3,&quot;bounds&quot;:{&quot;x&quot;:1727,&quot;y&quot;:782,&quot;w&quot;:50,&quot;h&quot;:51},&quot;atoms&quot;:[{&quot;id&quot;:1568,&quot;token&quot;:&quot;e:1&quot;,&quot;particle_id&quot;:&quot;img3-m30-p2&quot;,&quot;molecule_id&quot;:&quot;img3-m30&quot;,&quot;atom_order&quot;:1}]}</metadata>
  <rect x="0" y="0" width="50" height="51" fill="#f8f0d8"/>
  <image href="file:///C:/Users/HHHES/AppData/Roaming/com.voynichlab.datasetcreator/images/1/35a70f63-88ab-4986-b441-b78046a10087.jpg" x="-1727" y="-782" width="2972" height="3766" opacity="0.92"/>
  <rect x="0.5" y="0.5" width="49" height="50" fill="none" stroke="#111827" stroke-width="1" opacity="0.35"/>
  <polyline points="30,34 29,34 29,35 28,35 27,35 26,35 25,35 24,35 23,35 22,34 21,34 21,33 20,33 19,32 18,32 18,31 18,30 17,30 17,29 17,28 17,27 17,26 16,26 16,25 16,24 16,23 17,23 17,22 17,21 18,21 18,20 19,20 20,19 21,19 21,18 22,18 23,18 24,18 24,17 25,17 26,17 27,17 28,16 29,16 30,16 31,16 32,16 32,17 33,17 34,17" fill="none" stroke="#f2e45c" stroke-width="3" stroke-linecap="round" stroke-linejoin="round" opacity="0.95">
    <title>1568 e:1</title>
  </polyline>
</svg>
