<?xml version="1.0" encoding="UTF-8"?>
<svg xmlns="http://www.w3.org/2000/svg" width="47" height="47" viewBox="0 0 47 47">
  <title>atom 1676 e:1</title>
  <metadata>{&quot;entityType&quot;:&quot;atom&quot;,&quot;entityId&quot;:&quot;1676&quot;,&quot;token&quot;:&quot;e:1&quot;,&quot;signature&quot;:&quot;e:1&quot;,&quot;imageName&quot;:&quot;page-003.jpg&quot;,&quot;imageId&quot;:3,&quot;bounds&quot;:{&quot;x&quot;:1247,&quot;y&quot;:876,&quot;w&quot;:47,&quot;h&quot;:47},&quot;atoms&quot;:[{&quot;id&quot;:1676,&quot;token&quot;:&quot;e:1&quot;,&quot;particle_id&quot;:&quot;img3-m39-p1&quot;,&quot;molecule_id&quot;:&quot;img3-m39&quot;,&quot;atom_order&quot;:1}]}</metadata>
  <rect x="0" y="0" width="47" height="47" fill="#f8f0d8"/>
  <image href="file:///C:/Users/HHHES/AppData/Roaming/com.voynichlab.datasetcreator/images/1/35a70f63-88ab-4986-b441-b78046a10087.jpg" x="-1247" y="-876" width="2972" height="3766" opacity="0.92"/>
  <rect x="0.5" y="0.5" width="46" height="46" fill="none" stroke="#111827" stroke-width="1" opacity="0.35"/>
  <polyline points="31,29 30,29 30,30 29,31 28,31 27,31 26,31 25,31 24,31 23,31 23,30 22,30 21,30 20,30 20,29 19,29 19,28 18,28 17,27 17,26 16,26 16,25 16,24 16,23 16,22 17,22 17,21 17,20 18,20 18,19 19,19 19,18 20,18 20,17 21,17 22,17 22,16 23,16 24,16 25,16 26,16 27,16 28,16" fill="none" stroke="#f2e45c" stroke-width="3" stroke-linecap="round" stroke-linejoin="round" opacity="0.95">
    <title>1676 e:1</title>
  </polyline>
</svg>
