<?xml version="1.0" encoding="UTF-8"?>
<svg xmlns="http://www.w3.org/2000/svg" width="49" height="54" viewBox="0 0 49 54">
  <title>atom 1762 e:1</title>
  <metadata>{&quot;entityType&quot;:&quot;atom&quot;,&quot;entityId&quot;:&quot;1762&quot;,&quot;token&quot;:&quot;e:1&quot;,&quot;signature&quot;:&quot;e:1&quot;,&quot;imageName&quot;:&quot;page-003.jpg&quot;,&quot;imageId&quot;:3,&quot;bounds&quot;:{&quot;x&quot;:794,&quot;y&quot;:1059,&quot;w&quot;:49,&quot;h&quot;:54},&quot;atoms&quot;:[{&quot;id&quot;:1762,&quot;token&quot;:&quot;e:1&quot;,&quot;particle_id&quot;:&quot;img3-m46-p2&quot;,&quot;molecule_id&quot;:&quot;img3-m46&quot;,&quot;atom_order&quot;:1}]}</metadata>
  <rect x="0" y="0" width="49" height="54" fill="#f8f0d8"/>
  <image href="file:///C:/Users/HHHES/AppData/Roaming/com.voynichlab.datasetcreator/images/1/35a70f63-88ab-4986-b441-b78046a10087.jpg" x="-794" y="-1059" width="2972" height="3766" opacity="0.92"/>
  <rect x="0.5" y="0.5" width="48" height="53" fill="none" stroke="#111827" stroke-width="1" opacity="0.35"/>
  <polyline points="33,35 33,36 32,36 31,36 31,37 30,37 29,37 28,37 28,38 27,38 26,38 25,38 24,38 24,37 23,37 22,37 21,37 20,37 20,36 19,36 18,36 17,36 17,35 16,34 16,33 16,32 16,31 16,30 16,29 16,28 16,27 17,27 17,26 17,25 17,24 18,24 18,23 19,23 19,22 19,21 20,21 21,20 22,19 23,19 23,18 24,18 24,17 25,17 26,17 27,17 27,16 28,16 29,16" fill="none" stroke="#f2e45c" stroke-width="3" stroke-linecap="round" stroke-linejoin="round" opacity="0.95">
    <title>1762 e:1</title>
  </polyline>
</svg>
