<?xml version="1.0" encoding="UTF-8"?>
<svg xmlns="http://www.w3.org/2000/svg" width="52" height="50" viewBox="0 0 52 50">
  <title>atom 1831 e:1</title>
  <metadata>{&quot;entityType&quot;:&quot;atom&quot;,&quot;entityId&quot;:&quot;1831&quot;,&quot;token&quot;:&quot;e:1&quot;,&quot;signature&quot;:&quot;e:1&quot;,&quot;imageName&quot;:&quot;page-003.jpg&quot;,&quot;imageId&quot;:3,&quot;bounds&quot;:{&quot;x&quot;:1194,&quot;y&quot;:1022,&quot;w&quot;:52,&quot;h&quot;:50},&quot;atoms&quot;:[{&quot;id&quot;:1831,&quot;token&quot;:&quot;e:1&quot;,&quot;particle_id&quot;:&quot;img3-m44-p1&quot;,&quot;molecule_id&quot;:&quot;img3-m44&quot;,&quot;atom_order&quot;:1}]}</metadata>
  <rect x="0" y="0" width="52" height="50" fill="#f8f0d8"/>
  <image href="file:///C:/Users/HHHES/AppData/Roaming/com.voynichlab.datasetcreator/images/1/35a70f63-88ab-4986-b441-b78046a10087.jpg" x="-1194" y="-1022" width="2972" height="3766" opacity="0.92"/>
  <rect x="0.5" y="0.5" width="51" height="49" fill="none" stroke="#111827" stroke-width="1" opacity="0.35"/>
  <polyline points="36,32 35,32 34,32 33,32 33,33 32,33 31,33 31,34 30,34 29,34 28,34 27,34 26,34 25,34 24,34 23,34 22,34 22,33 21,33 20,33 19,32 18,32 18,31 17,31 17,30 16,30 16,29 16,28 16,27 16,26 16,25 16,24 16,23 16,22 17,22 17,21 17,20 18,20 18,19 19,19 19,18 20,18 20,17 21,17 21,16 22,16 23,16" fill="none" stroke="#f2e45c" stroke-width="3" stroke-linecap="round" stroke-linejoin="round" opacity="0.95">
    <title>1831 e:1</title>
  </polyline>
</svg>
