<?xml version="1.0" encoding="UTF-8"?>
<svg xmlns="http://www.w3.org/2000/svg" width="49" height="52" viewBox="0 0 49 52">
  <title>atom 1870 e:1</title>
  <metadata>{&quot;entityType&quot;:&quot;atom&quot;,&quot;entityId&quot;:&quot;1870&quot;,&quot;token&quot;:&quot;e:1&quot;,&quot;signature&quot;:&quot;e:1&quot;,&quot;imageName&quot;:&quot;page-003.jpg&quot;,&quot;imageId&quot;:3,&quot;bounds&quot;:{&quot;x&quot;:1807,&quot;y&quot;:1010,&quot;w&quot;:49,&quot;h&quot;:52},&quot;atoms&quot;:[{&quot;id&quot;:1870,&quot;token&quot;:&quot;e:1&quot;,&quot;particle_id&quot;:&quot;img3-m43-p1&quot;,&quot;molecule_id&quot;:&quot;img3-m43&quot;,&quot;atom_order&quot;:1}]}</metadata>
  <rect x="0" y="0" width="49" height="52" fill="#f8f0d8"/>
  <image href="file:///C:/Users/HHHES/AppData/Roaming/com.voynichlab.datasetcreator/images/1/35a70f63-88ab-4986-b441-b78046a10087.jpg" x="-1807" y="-1010" width="2972" height="3766" opacity="0.92"/>
  <rect x="0.5" y="0.5" width="48" height="51" fill="none" stroke="#111827" stroke-width="1" opacity="0.35"/>
  <polyline points="33,33 33,34 32,34 32,35 31,35 30,35 29,35 29,36 28,36 27,36 26,36 25,36 24,36 23,36 22,36 22,35 21,35 20,35 20,34 19,34 19,33 18,33 18,32 17,32 17,31 17,30 17,29 16,29 16,28 16,27 16,26 16,25 16,24 16,23 16,22 16,21 17,21 17,20 17,19 18,19 18,18 18,17 19,17 19,16" fill="none" stroke="#f2e45c" stroke-width="3" stroke-linecap="round" stroke-linejoin="round" opacity="0.95">
    <title>1870 e:1</title>
  </polyline>
</svg>
