<?xml version="1.0" encoding="UTF-8"?>
<svg xmlns="http://www.w3.org/2000/svg" width="51" height="55" viewBox="0 0 51 55">
  <title>atom 1891 e:1</title>
  <metadata>{&quot;entityType&quot;:&quot;atom&quot;,&quot;entityId&quot;:&quot;1891&quot;,&quot;token&quot;:&quot;e:1&quot;,&quot;signature&quot;:&quot;e:1&quot;,&quot;imageName&quot;:&quot;page-003.jpg&quot;,&quot;imageId&quot;:3,&quot;bounds&quot;:{&quot;x&quot;:556,&quot;y&quot;:1167,&quot;w&quot;:51,&quot;h&quot;:55},&quot;atoms&quot;:[{&quot;id&quot;:1891,&quot;token&quot;:&quot;e:1&quot;,&quot;particle_id&quot;:&quot;img3-m58-p3&quot;,&quot;molecule_id&quot;:&quot;img3-m58&quot;,&quot;atom_order&quot;:1}]}</metadata>
  <rect x="0" y="0" width="51" height="55" fill="#f8f0d8"/>
  <image href="file:///C:/Users/HHHES/AppData/Roaming/com.voynichlab.datasetcreator/images/1/35a70f63-88ab-4986-b441-b78046a10087.jpg" x="-556" y="-1167" width="2972" height="3766" opacity="0.92"/>
  <rect x="0.5" y="0.5" width="50" height="54" fill="none" stroke="#111827" stroke-width="1" opacity="0.35"/>
  <polyline points="35,37 34,37 34,38 33,38 32,38 31,39 30,39 29,39 28,39 27,39 26,39 25,39 24,39 23,39 23,38 22,38 22,37 21,37 21,36 20,36 20,35 19,35 19,34 18,34 18,33 17,33 17,32 17,31 17,30 16,30 16,29 16,28 16,27 16,26 16,25 16,24 16,23 17,23 17,22 17,21 18,21 18,20 19,20 19,19 20,19 20,18 20,17 21,17 22,17 22,16 23,16 24,16 25,16 26,16 27,16 28,16 29,16 30,16 31,16 31,17 32,17" fill="none" stroke="#f2e45c" stroke-width="3" stroke-linecap="round" stroke-linejoin="round" opacity="0.95">
    <title>1891 e:1</title>
  </polyline>
</svg>
