<?xml version="1.0" encoding="UTF-8"?>
<svg xmlns="http://www.w3.org/2000/svg" width="46" height="50" viewBox="0 0 46 50">
  <title>atom 1938 e:1</title>
  <metadata>{&quot;entityType&quot;:&quot;atom&quot;,&quot;entityId&quot;:&quot;1938&quot;,&quot;token&quot;:&quot;e:1&quot;,&quot;signature&quot;:&quot;e:1&quot;,&quot;imageName&quot;:&quot;page-003.jpg&quot;,&quot;imageId&quot;:3,&quot;bounds&quot;:{&quot;x&quot;:1785,&quot;y&quot;:1156,&quot;w&quot;:46,&quot;h&quot;:50},&quot;atoms&quot;:[{&quot;id&quot;:1938,&quot;token&quot;:&quot;e:1&quot;,&quot;particle_id&quot;:&quot;img3-m52-p3&quot;,&quot;molecule_id&quot;:&quot;img3-m52&quot;,&quot;atom_order&quot;:3}]}</metadata>
  <rect x="0" y="0" width="46" height="50" fill="#f8f0d8"/>
  <image href="file:///C:/Users/HHHES/AppData/Roaming/com.voynichlab.datasetcreator/images/1/35a70f63-88ab-4986-b441-b78046a10087.jpg" x="-1785" y="-1156" width="2972" height="3766" opacity="0.92"/>
  <rect x="0.5" y="0.5" width="45" height="49" fill="none" stroke="#111827" stroke-width="1" opacity="0.35"/>
  <polyline points="30,31 28,32 27,33 26,33 25,33 25,34 24,34 23,34 22,34 21,33 19,33 19,32 18,32 17,32 17,31 17,30 16,30 16,29 16,28 16,27 16,26 16,25 16,24 16,23 17,23 17,22 18,22 18,21 19,20 20,20 20,19 21,19 21,18 22,18 23,18 23,17 24,17 25,17 26,17 26,16 27,16 28,16" fill="none" stroke="#f2e45c" stroke-width="3" stroke-linecap="round" stroke-linejoin="round" opacity="0.95">
    <title>1938 e:1</title>
  </polyline>
</svg>
