<?xml version="1.0" encoding="UTF-8"?>
<svg xmlns="http://www.w3.org/2000/svg" width="46" height="55" viewBox="0 0 46 55">
  <title>atom 1993 e:1</title>
  <metadata>{&quot;entityType&quot;:&quot;atom&quot;,&quot;entityId&quot;:&quot;1993&quot;,&quot;token&quot;:&quot;e:1&quot;,&quot;signature&quot;:&quot;e:1&quot;,&quot;imageName&quot;:&quot;page-003.jpg&quot;,&quot;imageId&quot;:3,&quot;bounds&quot;:{&quot;x&quot;:2100,&quot;y&quot;:1162,&quot;w&quot;:46,&quot;h&quot;:55},&quot;atoms&quot;:[{&quot;id&quot;:1993,&quot;token&quot;:&quot;e:1&quot;,&quot;particle_id&quot;:&quot;img3-m57-p1&quot;,&quot;molecule_id&quot;:&quot;img3-m57&quot;,&quot;atom_order&quot;:3}]}</metadata>
  <rect x="0" y="0" width="46" height="55" fill="#f8f0d8"/>
  <image href="file:///C:/Users/HHHES/AppData/Roaming/com.voynichlab.datasetcreator/images/1/35a70f63-88ab-4986-b441-b78046a10087.jpg" x="-2100" y="-1162" width="2972" height="3766" opacity="0.92"/>
  <rect x="0.5" y="0.5" width="45" height="54" fill="none" stroke="#111827" stroke-width="1" opacity="0.35"/>
  <polyline points="27,37 27,38 26,38 25,38 25,39 24,39 23,39 22,39 21,39 21,38 20,38 19,37 18,37 17,37 17,36 17,35 16,35 16,34 16,33 16,32 16,31 16,30 16,29 16,28 17,28 17,27 17,26 18,26 18,25 19,24 19,23 20,23 20,22 21,22 21,21 22,21 22,20 23,20 24,20 24,19 25,19 26,19 26,18 27,18 27,17 28,17 29,17 29,16 30,16" fill="none" stroke="#f2e45c" stroke-width="3" stroke-linecap="round" stroke-linejoin="round" opacity="0.95">
    <title>1993 e:1</title>
  </polyline>
</svg>
