<?xml version="1.0" encoding="UTF-8"?>
<svg xmlns="http://www.w3.org/2000/svg" width="43" height="48" viewBox="0 0 43 48">
  <title>atom 2047 e:1</title>
  <metadata>{&quot;entityType&quot;:&quot;atom&quot;,&quot;entityId&quot;:&quot;2047&quot;,&quot;token&quot;:&quot;e:1&quot;,&quot;signature&quot;:&quot;e:1&quot;,&quot;imageName&quot;:&quot;page-003.jpg&quot;,&quot;imageId&quot;:3,&quot;bounds&quot;:{&quot;x&quot;:1130,&quot;y&quot;:1240,&quot;w&quot;:43,&quot;h&quot;:48},&quot;atoms&quot;:[{&quot;id&quot;:2047,&quot;token&quot;:&quot;e:1&quot;,&quot;particle_id&quot;:&quot;img3-m62-p2&quot;,&quot;molecule_id&quot;:&quot;img3-m62&quot;,&quot;atom_order&quot;:1}]}</metadata>
  <rect x="0" y="0" width="43" height="48" fill="#f8f0d8"/>
  <image href="file:///C:/Users/HHHES/AppData/Roaming/com.voynichlab.datasetcreator/images/1/35a70f63-88ab-4986-b441-b78046a10087.jpg" x="-1130" y="-1240" width="2972" height="3766" opacity="0.92"/>
  <rect x="0.5" y="0.5" width="42" height="47" fill="none" stroke="#111827" stroke-width="1" opacity="0.35"/>
  <polyline points="27,30 27,31 26,31 26,32 25,32 24,32 23,32 22,32 21,32 20,32 20,31 19,31 19,30 18,30 18,29 17,29 17,28 17,27 16,27 16,26 16,25 16,24 16,23 16,22 17,22 17,21 17,20 18,20 18,19 18,18 19,18 19,17 20,17 20,16 21,16 22,16" fill="none" stroke="#f2e45c" stroke-width="3" stroke-linecap="round" stroke-linejoin="round" opacity="0.95">
    <title>2047 e:1</title>
  </polyline>
</svg>
