<?xml version="1.0" encoding="UTF-8"?>
<svg xmlns="http://www.w3.org/2000/svg" width="50" height="51" viewBox="0 0 50 51">
  <title>atom 2048 e:1</title>
  <metadata>{&quot;entityType&quot;:&quot;atom&quot;,&quot;entityId&quot;:&quot;2048&quot;,&quot;token&quot;:&quot;e:1&quot;,&quot;signature&quot;:&quot;e:1&quot;,&quot;imageName&quot;:&quot;page-003.jpg&quot;,&quot;imageId&quot;:3,&quot;bounds&quot;:{&quot;x&quot;:1164,&quot;y&quot;:1238,&quot;w&quot;:50,&quot;h&quot;:51},&quot;atoms&quot;:[{&quot;id&quot;:2048,&quot;token&quot;:&quot;e:1&quot;,&quot;particle_id&quot;:&quot;img3-m62-p2&quot;,&quot;molecule_id&quot;:&quot;img3-m62&quot;,&quot;atom_order&quot;:3}]}</metadata>
  <rect x="0" y="0" width="50" height="51" fill="#f8f0d8"/>
  <image href="file:///C:/Users/HHHES/AppData/Roaming/com.voynichlab.datasetcreator/images/1/35a70f63-88ab-4986-b441-b78046a10087.jpg" x="-1164" y="-1238" width="2972" height="3766" opacity="0.92"/>
  <rect x="0.5" y="0.5" width="49" height="50" fill="none" stroke="#111827" stroke-width="1" opacity="0.35"/>
  <polyline points="34,31 31,32 30,33 29,33 28,33 28,34 27,34 26,34 25,34 24,34 23,34 23,35 22,35 21,35 19,34 18,34 17,33 17,32 16,32 16,31 16,30 16,29 16,28 16,27 16,26 16,25 18,23 18,22 19,22 20,21 20,20 21,20 22,19 23,19 23,18 24,18 25,18 25,17 28,16 29,16 30,16 31,16" fill="none" stroke="#f2e45c" stroke-width="3" stroke-linecap="round" stroke-linejoin="round" opacity="0.95">
    <title>2048 e:1</title>
  </polyline>
</svg>
