<?xml version="1.0" encoding="UTF-8"?>
<svg xmlns="http://www.w3.org/2000/svg" width="47" height="53" viewBox="0 0 47 53">
  <title>atom 2060 e:1</title>
  <metadata>{&quot;entityType&quot;:&quot;atom&quot;,&quot;entityId&quot;:&quot;2060&quot;,&quot;token&quot;:&quot;e:1&quot;,&quot;signature&quot;:&quot;e:1&quot;,&quot;imageName&quot;:&quot;page-003.jpg&quot;,&quot;imageId&quot;:3,&quot;bounds&quot;:{&quot;x&quot;:2246,&quot;y&quot;:1235,&quot;w&quot;:47,&quot;h&quot;:53},&quot;atoms&quot;:[{&quot;id&quot;:2060,&quot;token&quot;:&quot;e:1&quot;,&quot;particle_id&quot;:&quot;img3-m60-p5&quot;,&quot;molecule_id&quot;:&quot;img3-m60&quot;,&quot;atom_order&quot;:1}]}</metadata>
  <rect x="0" y="0" width="47" height="53" fill="#f8f0d8"/>
  <image href="file:///C:/Users/HHHES/AppData/Roaming/com.voynichlab.datasetcreator/images/1/35a70f63-88ab-4986-b441-b78046a10087.jpg" x="-2246" y="-1235" width="2972" height="3766" opacity="0.92"/>
  <rect x="0.5" y="0.5" width="46" height="52" fill="none" stroke="#111827" stroke-width="1" opacity="0.35"/>
  <polyline points="27,35 25,37 20,37 19,37 19,36 18,36 17,36 17,35 16,35 16,34 16,33 16,32 16,31 16,30 16,29 16,28 16,27 16,26 16,25 16,24 17,24 17,23 17,22 18,22 18,21 19,21 19,20 20,20 21,19 22,19 23,19 23,18 24,18 25,18 25,17 26,17 27,17 28,17 29,17 29,16 30,16 31,16" fill="none" stroke="#f2e45c" stroke-width="3" stroke-linecap="round" stroke-linejoin="round" opacity="0.95">
    <title>2060 e:1</title>
  </polyline>
</svg>
