<?xml version="1.0" encoding="UTF-8"?>
<svg xmlns="http://www.w3.org/2000/svg" width="46" height="50" viewBox="0 0 46 50">
  <title>atom 2061 e:1</title>
  <metadata>{&quot;entityType&quot;:&quot;atom&quot;,&quot;entityId&quot;:&quot;2061&quot;,&quot;token&quot;:&quot;e:1&quot;,&quot;signature&quot;:&quot;e:1&quot;,&quot;imageName&quot;:&quot;page-003.jpg&quot;,&quot;imageId&quot;:3,&quot;bounds&quot;:{&quot;x&quot;:2211,&quot;y&quot;:1242,&quot;w&quot;:46,&quot;h&quot;:50},&quot;atoms&quot;:[{&quot;id&quot;:2061,&quot;token&quot;:&quot;e:1&quot;,&quot;particle_id&quot;:&quot;img3-m60-p4&quot;,&quot;molecule_id&quot;:&quot;img3-m60&quot;,&quot;atom_order&quot;:1}]}</metadata>
  <rect x="0" y="0" width="46" height="50" fill="#f8f0d8"/>
  <image href="file:///C:/Users/HHHES/AppData/Roaming/com.voynichlab.datasetcreator/images/1/35a70f63-88ab-4986-b441-b78046a10087.jpg" x="-2211" y="-1242" width="2972" height="3766" opacity="0.92"/>
  <rect x="0.5" y="0.5" width="45" height="49" fill="none" stroke="#111827" stroke-width="1" opacity="0.35"/>
  <polyline points="30,31 29,32 27,33 25,34 24,34 23,34 22,34 21,34 21,33 20,33 19,33 19,32 18,32 18,31 17,31 17,30 17,29 16,29 16,28 16,27 16,26 17,26 17,25 17,24 17,23 18,23 18,22 18,21 19,21 20,20 21,20 21,19 22,19 22,18 23,18 24,18 25,18 25,17 26,17 27,17 28,17 29,17 29,16 30,16" fill="none" stroke="#f2e45c" stroke-width="3" stroke-linecap="round" stroke-linejoin="round" opacity="0.95">
    <title>2061 e:1</title>
  </polyline>
</svg>
