<?xml version="1.0" encoding="UTF-8"?>
<svg xmlns="http://www.w3.org/2000/svg" width="49" height="48" viewBox="0 0 49 48">
  <title>atom 2077 e:1</title>
  <metadata>{&quot;entityType&quot;:&quot;atom&quot;,&quot;entityId&quot;:&quot;2077&quot;,&quot;token&quot;:&quot;e:1&quot;,&quot;signature&quot;:&quot;e:1&quot;,&quot;imageName&quot;:&quot;page-003.jpg&quot;,&quot;imageId&quot;:3,&quot;bounds&quot;:{&quot;x&quot;:1872,&quot;y&quot;:1244,&quot;w&quot;:49,&quot;h&quot;:48},&quot;atoms&quot;:[{&quot;id&quot;:2077,&quot;token&quot;:&quot;e:1&quot;,&quot;particle_id&quot;:&quot;img3-m61-p2&quot;,&quot;molecule_id&quot;:&quot;img3-m61&quot;,&quot;atom_order&quot;:1}]}</metadata>
  <rect x="0" y="0" width="49" height="48" fill="#f8f0d8"/>
  <image href="file:///C:/Users/HHHES/AppData/Roaming/com.voynichlab.datasetcreator/images/1/35a70f63-88ab-4986-b441-b78046a10087.jpg" x="-1872" y="-1244" width="2972" height="3766" opacity="0.92"/>
  <rect x="0.5" y="0.5" width="48" height="47" fill="none" stroke="#111827" stroke-width="1" opacity="0.35"/>
  <polyline points="30,31 24,32 22,32 21,32 20,31 19,30 18,30 18,29 17,29 17,28 16,28 16,27 16,26 16,24 16,23 17,22 17,21 18,21 18,20 19,20 20,20 20,19 21,19 23,18 24,17 25,17 26,17 26,16 27,16 28,16 29,16 30,16 31,16 32,16 33,16" fill="none" stroke="#f2e45c" stroke-width="3" stroke-linecap="round" stroke-linejoin="round" opacity="0.95">
    <title>2077 e:1</title>
  </polyline>
</svg>
