<?xml version="1.0" encoding="UTF-8"?>
<svg xmlns="http://www.w3.org/2000/svg" width="51" height="48" viewBox="0 0 51 48">
  <title>atom 2097 e:1</title>
  <metadata>{&quot;entityType&quot;:&quot;atom&quot;,&quot;entityId&quot;:&quot;2097&quot;,&quot;token&quot;:&quot;e:1&quot;,&quot;signature&quot;:&quot;e:1&quot;,&quot;imageName&quot;:&quot;page-003.jpg&quot;,&quot;imageId&quot;:3,&quot;bounds&quot;:{&quot;x&quot;:648,&quot;y&quot;:1504,&quot;w&quot;:51,&quot;h&quot;:48},&quot;atoms&quot;:[{&quot;id&quot;:2097,&quot;token&quot;:&quot;e:1&quot;,&quot;particle_id&quot;:&quot;img3-m72-p1&quot;,&quot;molecule_id&quot;:&quot;img3-m72&quot;,&quot;atom_order&quot;:1}]}</metadata>
  <rect x="0" y="0" width="51" height="48" fill="#f8f0d8"/>
  <image href="file:///C:/Users/HHHES/AppData/Roaming/com.voynichlab.datasetcreator/images/1/35a70f63-88ab-4986-b441-b78046a10087.jpg" x="-648" y="-1504" width="2972" height="3766" opacity="0.92"/>
  <rect x="0.5" y="0.5" width="50" height="47" fill="none" stroke="#111827" stroke-width="1" opacity="0.35"/>
  <polyline points="29,32 28,32 27,32 26,32 25,32 24,32 23,32 22,32 21,32 21,31 20,31 19,31 18,31 18,30 17,30 17,29 16,29 16,28 16,27 16,26 16,25 16,24 17,24 17,23 18,23 18,22 19,22 19,21 20,21 21,21 21,20 22,20 23,19 24,19 25,19 25,18 26,18 27,18 27,17 28,17 29,17 30,17 30,16 31,16 32,16 33,16 34,16 35,16" fill="none" stroke="#f2e45c" stroke-width="3" stroke-linecap="round" stroke-linejoin="round" opacity="0.95">
    <title>2097 e:1</title>
  </polyline>
</svg>
