<?xml version="1.0" encoding="UTF-8"?>
<svg xmlns="http://www.w3.org/2000/svg" width="49" height="50" viewBox="0 0 49 50">
  <title>atom 2126 e:1</title>
  <metadata>{&quot;entityType&quot;:&quot;atom&quot;,&quot;entityId&quot;:&quot;2126&quot;,&quot;token&quot;:&quot;e:1&quot;,&quot;signature&quot;:&quot;e:1&quot;,&quot;imageName&quot;:&quot;page-003.jpg&quot;,&quot;imageId&quot;:3,&quot;bounds&quot;:{&quot;x&quot;:927,&quot;y&quot;:1496,&quot;w&quot;:49,&quot;h&quot;:50},&quot;atoms&quot;:[{&quot;id&quot;:2126,&quot;token&quot;:&quot;e:1&quot;,&quot;particle_id&quot;:&quot;img3-m66-p1&quot;,&quot;molecule_id&quot;:&quot;img3-m66&quot;,&quot;atom_order&quot;:9}]}</metadata>
  <rect x="0" y="0" width="49" height="50" fill="#f8f0d8"/>
  <image href="file:///C:/Users/HHHES/AppData/Roaming/com.voynichlab.datasetcreator/images/1/35a70f63-88ab-4986-b441-b78046a10087.jpg" x="-927" y="-1496" width="2972" height="3766" opacity="0.92"/>
  <rect x="0.5" y="0.5" width="48" height="49" fill="none" stroke="#111827" stroke-width="1" opacity="0.35"/>
  <polyline points="33,30 29,33 27,34 26,34 25,34 24,34 23,34 22,34 19,33 18,33 18,32 17,32 17,31 16,30 16,29 16,28 16,27 16,26 16,25 16,24 17,24 17,23 18,22 19,21 20,21 21,19 22,19 22,18 23,18 24,17 25,17 26,17 26,16 27,16 28,16 29,16 33,16" fill="none" stroke="#f2e45c" stroke-width="3" stroke-linecap="round" stroke-linejoin="round" opacity="0.95">
    <title>2126 e:1</title>
  </polyline>
</svg>
