<?xml version="1.0" encoding="UTF-8"?>
<svg xmlns="http://www.w3.org/2000/svg" width="56" height="56" viewBox="0 0 56 56">
  <title>atom 2202 e:1</title>
  <metadata>{&quot;entityType&quot;:&quot;atom&quot;,&quot;entityId&quot;:&quot;2202&quot;,&quot;token&quot;:&quot;e:1&quot;,&quot;signature&quot;:&quot;e:1&quot;,&quot;imageName&quot;:&quot;page-003.jpg&quot;,&quot;imageId&quot;:3,&quot;bounds&quot;:{&quot;x&quot;:2090,&quot;y&quot;:1508,&quot;w&quot;:56,&quot;h&quot;:56},&quot;atoms&quot;:[{&quot;id&quot;:2202,&quot;token&quot;:&quot;e:1&quot;,&quot;particle_id&quot;:&quot;img3-m68-p1&quot;,&quot;molecule_id&quot;:&quot;img3-m68&quot;,&quot;atom_order&quot;:10}]}</metadata>
  <rect x="0" y="0" width="56" height="56" fill="#f8f0d8"/>
  <image href="file:///C:/Users/HHHES/AppData/Roaming/com.voynichlab.datasetcreator/images/1/35a70f63-88ab-4986-b441-b78046a10087.jpg" x="-2090" y="-1508" width="2972" height="3766" opacity="0.92"/>
  <rect x="0.5" y="0.5" width="55" height="55" fill="none" stroke="#111827" stroke-width="1" opacity="0.35"/>
  <polyline points="30,38 25,40 24,40 23,40 22,40 21,40 21,39 20,39 20,38 19,38 18,38 18,37 17,37 17,36 17,35 16,35 16,33 16,32 16,31 16,30 16,29 17,28 17,27 18,27 18,26 19,26 20,24 21,24 21,23 22,23 23,22 24,22 24,21 25,21 27,20 28,20 29,19 30,19 31,19 32,18 35,18 36,18 36,17 37,17 38,17 39,17 39,16 40,16" fill="none" stroke="#f2e45c" stroke-width="3" stroke-linecap="round" stroke-linejoin="round" opacity="0.95">
    <title>2202 e:1</title>
  </polyline>
</svg>
