<?xml version="1.0" encoding="UTF-8"?>
<svg xmlns="http://www.w3.org/2000/svg" width="49" height="49" viewBox="0 0 49 49">
  <title>atom 2217 e:1</title>
  <metadata>{&quot;entityType&quot;:&quot;atom&quot;,&quot;entityId&quot;:&quot;2217&quot;,&quot;token&quot;:&quot;e:1&quot;,&quot;signature&quot;:&quot;e:1&quot;,&quot;imageName&quot;:&quot;page-003.jpg&quot;,&quot;imageId&quot;:3,&quot;bounds&quot;:{&quot;x&quot;:2201,&quot;y&quot;:1502,&quot;w&quot;:49,&quot;h&quot;:49},&quot;atoms&quot;:[{&quot;id&quot;:2217,&quot;token&quot;:&quot;e:1&quot;,&quot;particle_id&quot;:&quot;img3-m68-p4&quot;,&quot;molecule_id&quot;:&quot;img3-m68&quot;,&quot;atom_order&quot;:1}]}</metadata>
  <rect x="0" y="0" width="49" height="49" fill="#f8f0d8"/>
  <image href="file:///C:/Users/HHHES/AppData/Roaming/com.voynichlab.datasetcreator/images/1/35a70f63-88ab-4986-b441-b78046a10087.jpg" x="-2201" y="-1502" width="2972" height="3766" opacity="0.92"/>
  <rect x="0.5" y="0.5" width="48" height="48" fill="none" stroke="#111827" stroke-width="1" opacity="0.35"/>
  <polyline points="29,31 29,32 28,32 27,32 27,33 26,33 25,33 24,33 23,33 22,33 21,33 20,33 19,33 18,33 18,32 17,31 17,30 16,30 16,29 16,28 16,27 17,26 17,25 18,25 18,24 18,23 19,23 19,22 20,22 20,21 21,21 21,20 22,19 23,19 23,18 24,18 25,18 25,17 26,17 27,17 28,17 29,17 29,16 30,16 31,16 32,16 33,16" fill="none" stroke="#f2e45c" stroke-width="3" stroke-linecap="round" stroke-linejoin="round" opacity="0.95">
    <title>2217 e:1</title>
  </polyline>
</svg>
