<?xml version="1.0" encoding="UTF-8"?>
<svg xmlns="http://www.w3.org/2000/svg" width="57" height="53" viewBox="0 0 57 53">
  <title>atom 2271 e:1</title>
  <metadata>{&quot;entityType&quot;:&quot;atom&quot;,&quot;entityId&quot;:&quot;2271&quot;,&quot;token&quot;:&quot;e:1&quot;,&quot;signature&quot;:&quot;e:1&quot;,&quot;imageName&quot;:&quot;page-003.jpg&quot;,&quot;imageId&quot;:3,&quot;bounds&quot;:{&quot;x&quot;:1277,&quot;y&quot;:1533,&quot;w&quot;:57,&quot;h&quot;:53},&quot;atoms&quot;:[{&quot;id&quot;:2271,&quot;token&quot;:&quot;e:1&quot;,&quot;particle_id&quot;:&quot;img3-m77-p2&quot;,&quot;molecule_id&quot;:&quot;img3-m77&quot;,&quot;atom_order&quot;:2}]}</metadata>
  <rect x="0" y="0" width="57" height="53" fill="#f8f0d8"/>
  <image href="file:///C:/Users/HHHES/AppData/Roaming/com.voynichlab.datasetcreator/images/1/35a70f63-88ab-4986-b441-b78046a10087.jpg" x="-1277" y="-1533" width="2972" height="3766" opacity="0.92"/>
  <rect x="0.5" y="0.5" width="56" height="52" fill="none" stroke="#111827" stroke-width="1" opacity="0.35"/>
  <polyline points="25,37 24,37 23,37 23,36 22,36 21,36 20,36 20,35 19,35 18,35 18,34 17,34 17,33 16,33 16,32 16,31 16,30 16,29 17,29 17,28 18,28 18,27 19,27 19,26 20,26 20,25 21,25 22,25 22,24 23,24 23,23 24,23 25,22 26,22 27,22 27,21 28,21 29,21 29,20 30,20 31,20 31,19 32,19 33,19 34,19 34,18 35,18 36,18 37,18 38,17 39,17 40,17 40,16 41,16" fill="none" stroke="#f2e45c" stroke-width="3" stroke-linecap="round" stroke-linejoin="round" opacity="0.95">
    <title>2271 e:1</title>
  </polyline>
</svg>
