<?xml version="1.0" encoding="UTF-8"?>
<svg xmlns="http://www.w3.org/2000/svg" width="47" height="52" viewBox="0 0 47 52">
  <title>atom 2275 e:1</title>
  <metadata>{&quot;entityType&quot;:&quot;atom&quot;,&quot;entityId&quot;:&quot;2275&quot;,&quot;token&quot;:&quot;e:1&quot;,&quot;signature&quot;:&quot;e:1&quot;,&quot;imageName&quot;:&quot;page-003.jpg&quot;,&quot;imageId&quot;:3,&quot;bounds&quot;:{&quot;x&quot;:1584,&quot;y&quot;:1584,&quot;w&quot;:47,&quot;h&quot;:52},&quot;atoms&quot;:[{&quot;id&quot;:2275,&quot;token&quot;:&quot;e:1&quot;,&quot;particle_id&quot;:&quot;img3-m76-p3&quot;,&quot;molecule_id&quot;:&quot;img3-m76&quot;,&quot;atom_order&quot;:1}]}</metadata>
  <rect x="0" y="0" width="47" height="52" fill="#f8f0d8"/>
  <image href="file:///C:/Users/HHHES/AppData/Roaming/com.voynichlab.datasetcreator/images/1/35a70f63-88ab-4986-b441-b78046a10087.jpg" x="-1584" y="-1584" width="2972" height="3766" opacity="0.92"/>
  <rect x="0.5" y="0.5" width="46" height="51" fill="none" stroke="#111827" stroke-width="1" opacity="0.35"/>
  <polyline points="31,30 26,36 24,36 23,36 22,36 21,35 20,35 19,34 19,33 18,33 18,32 17,32 16,31 16,30 16,29 16,28 16,27 16,26 16,25 16,24 17,24 17,23 17,22 17,21 18,21 19,20 19,19 20,18 21,17 22,17 23,17 24,17 24,16 25,16 26,16 27,16 28,16 29,16" fill="none" stroke="#f2e45c" stroke-width="3" stroke-linecap="round" stroke-linejoin="round" opacity="0.95">
    <title>2275 e:1</title>
  </polyline>
</svg>
