<?xml version="1.0" encoding="UTF-8"?>
<svg xmlns="http://www.w3.org/2000/svg" width="48" height="56" viewBox="0 0 48 56">
  <title>atom 2334 e:1</title>
  <metadata>{&quot;entityType&quot;:&quot;atom&quot;,&quot;entityId&quot;:&quot;2334&quot;,&quot;token&quot;:&quot;e:1&quot;,&quot;signature&quot;:&quot;e:1&quot;,&quot;imageName&quot;:&quot;page-003.jpg&quot;,&quot;imageId&quot;:3,&quot;bounds&quot;:{&quot;x&quot;:670,&quot;y&quot;:1682,&quot;w&quot;:48,&quot;h&quot;:56},&quot;atoms&quot;:[{&quot;id&quot;:2334,&quot;token&quot;:&quot;e:1&quot;,&quot;particle_id&quot;:&quot;img3-m88-p4&quot;,&quot;molecule_id&quot;:&quot;img3-m88&quot;,&quot;atom_order&quot;:1}]}</metadata>
  <rect x="0" y="0" width="48" height="56" fill="#f8f0d8"/>
  <image href="file:///C:/Users/HHHES/AppData/Roaming/com.voynichlab.datasetcreator/images/1/35a70f63-88ab-4986-b441-b78046a10087.jpg" x="-670" y="-1682" width="2972" height="3766" opacity="0.92"/>
  <rect x="0.5" y="0.5" width="47" height="55" fill="none" stroke="#111827" stroke-width="1" opacity="0.35"/>
  <polyline points="32,36 30,38 30,39 29,39 28,39 27,39 27,40 26,40 25,40 24,40 22,40 21,40 21,39 20,39 19,38 18,38 17,38 17,37 16,37 16,36 16,35 16,34 16,33 16,32 16,31 16,30 16,29 17,29 17,28 17,27 17,26 18,26 18,25 18,24 19,24 19,23 19,22 20,22 21,21 22,21 22,20 23,20 23,19 24,19 25,19 25,18 26,18 26,17 27,17 28,17 29,17 30,17 30,16 31,16" fill="none" stroke="#f2e45c" stroke-width="3" stroke-linecap="round" stroke-linejoin="round" opacity="0.95">
    <title>2334 e:1</title>
  </polyline>
</svg>
