<?xml version="1.0" encoding="UTF-8"?>
<svg xmlns="http://www.w3.org/2000/svg" width="55" height="52" viewBox="0 0 55 52">
  <title>atom 2379 e:1</title>
  <metadata>{&quot;entityType&quot;:&quot;atom&quot;,&quot;entityId&quot;:&quot;2379&quot;,&quot;token&quot;:&quot;e:1&quot;,&quot;signature&quot;:&quot;e:1&quot;,&quot;imageName&quot;:&quot;page-003.jpg&quot;,&quot;imageId&quot;:3,&quot;bounds&quot;:{&quot;x&quot;:1317,&quot;y&quot;:1681,&quot;w&quot;:55,&quot;h&quot;:52},&quot;atoms&quot;:[{&quot;id&quot;:2379,&quot;token&quot;:&quot;e:1&quot;,&quot;particle_id&quot;:&quot;img3-m80-p1&quot;,&quot;molecule_id&quot;:&quot;img3-m80&quot;,&quot;atom_order&quot;:10}]}</metadata>
  <rect x="0" y="0" width="55" height="52" fill="#f8f0d8"/>
  <image href="file:///C:/Users/HHHES/AppData/Roaming/com.voynichlab.datasetcreator/images/1/35a70f63-88ab-4986-b441-b78046a10087.jpg" x="-1317" y="-1681" width="2972" height="3766" opacity="0.92"/>
  <rect x="0.5" y="0.5" width="54" height="51" fill="none" stroke="#111827" stroke-width="1" opacity="0.35"/>
  <polyline points="34,32 33,32 32,33 32,34 31,34 31,35 30,35 29,36 28,36 27,36 26,36 25,36 24,36 23,36 22,36 21,36 21,35 20,35 19,35 19,34 18,34 18,33 17,33 17,32 17,31 16,31 16,30 16,29 16,28 16,27 16,26 16,25 16,24 16,23 17,23 17,22 18,22 18,21 19,21 20,21 20,20 21,20 22,19 23,19 24,19 25,18 26,18 27,18 27,17 28,17 29,17 30,17 30,16 31,16 32,16 33,16 34,16 35,16 36,16 37,16 38,16 39,16 39,17" fill="none" stroke="#f2e45c" stroke-width="3" stroke-linecap="round" stroke-linejoin="round" opacity="0.95">
    <title>2379 e:1</title>
  </polyline>
</svg>
