<?xml version="1.0" encoding="UTF-8"?>
<svg xmlns="http://www.w3.org/2000/svg" width="49" height="47" viewBox="0 0 49 47">
  <title>atom 2401 e:1</title>
  <metadata>{&quot;entityType&quot;:&quot;atom&quot;,&quot;entityId&quot;:&quot;2401&quot;,&quot;token&quot;:&quot;e:1&quot;,&quot;signature&quot;:&quot;e:1&quot;,&quot;imageName&quot;:&quot;page-003.jpg&quot;,&quot;imageId&quot;:3,&quot;bounds&quot;:{&quot;x&quot;:1428,&quot;y&quot;:1625,&quot;w&quot;:49,&quot;h&quot;:47},&quot;atoms&quot;:[{&quot;id&quot;:2401,&quot;token&quot;:&quot;e:1&quot;,&quot;particle_id&quot;:&quot;img3-m82-p1&quot;,&quot;molecule_id&quot;:&quot;img3-m82&quot;,&quot;atom_order&quot;:3}]}</metadata>
  <rect x="0" y="0" width="49" height="47" fill="#f8f0d8"/>
  <image href="file:///C:/Users/HHHES/AppData/Roaming/com.voynichlab.datasetcreator/images/1/35a70f63-88ab-4986-b441-b78046a10087.jpg" x="-1428" y="-1625" width="2972" height="3766" opacity="0.92"/>
  <rect x="0.5" y="0.5" width="48" height="46" fill="none" stroke="#111827" stroke-width="1" opacity="0.35"/>
  <polyline points="22,31 21,31 20,31 19,30 18,30 18,29 17,29 17,28 16,27 16,26 16,25 17,25 17,24 18,24 18,23 19,23 19,22 20,21 21,21 21,20 22,20 22,19 23,19 24,19 25,19 25,18 26,18 27,18 27,17 28,17 29,17 30,17 31,17 32,17 32,16 33,16" fill="none" stroke="#f2e45c" stroke-width="3" stroke-linecap="round" stroke-linejoin="round" opacity="0.95">
    <title>2401 e:1</title>
  </polyline>
</svg>
