<?xml version="1.0" encoding="UTF-8"?>
<svg xmlns="http://www.w3.org/2000/svg" width="51" height="51" viewBox="0 0 51 51">
  <title>atom 2416 e:1</title>
  <metadata>{&quot;entityType&quot;:&quot;atom&quot;,&quot;entityId&quot;:&quot;2416&quot;,&quot;token&quot;:&quot;e:1&quot;,&quot;signature&quot;:&quot;e:1&quot;,&quot;imageName&quot;:&quot;page-003.jpg&quot;,&quot;imageId&quot;:3,&quot;bounds&quot;:{&quot;x&quot;:1683,&quot;y&quot;:1699,&quot;w&quot;:51,&quot;h&quot;:51},&quot;atoms&quot;:[{&quot;id&quot;:2416,&quot;token&quot;:&quot;e:1&quot;,&quot;particle_id&quot;:&quot;img3-m82-p6&quot;,&quot;molecule_id&quot;:&quot;img3-m82&quot;,&quot;atom_order&quot;:1}]}</metadata>
  <rect x="0" y="0" width="51" height="51" fill="#f8f0d8"/>
  <image href="file:///C:/Users/HHHES/AppData/Roaming/com.voynichlab.datasetcreator/images/1/35a70f63-88ab-4986-b441-b78046a10087.jpg" x="-1683" y="-1699" width="2972" height="3766" opacity="0.92"/>
  <rect x="0.5" y="0.5" width="50" height="50" fill="none" stroke="#111827" stroke-width="1" opacity="0.35"/>
  <polyline points="35,33 35,34 34,34 34,35 33,35 32,35 31,35 30,35 29,35 28,35 27,35 26,35 25,35 24,35 23,35 23,34 22,34 21,34 21,33 20,33 19,33 19,32 18,32 18,31 17,31 17,30 17,29 17,28 17,27 17,26 16,26 16,25 16,24 16,23 17,23 17,22 17,21 17,20 18,20 18,19 19,19 19,18 20,18 21,17 22,17 23,17 23,16 24,16 25,16 26,16 27,16 28,16 29,16" fill="none" stroke="#f2e45c" stroke-width="3" stroke-linecap="round" stroke-linejoin="round" opacity="0.95">
    <title>2416 e:1</title>
  </polyline>
</svg>
