<?xml version="1.0" encoding="UTF-8"?>
<svg xmlns="http://www.w3.org/2000/svg" width="55" height="54" viewBox="0 0 55 54">
  <title>atom 2431 e:1</title>
  <metadata>{&quot;entityType&quot;:&quot;atom&quot;,&quot;entityId&quot;:&quot;2431&quot;,&quot;token&quot;:&quot;e:1&quot;,&quot;signature&quot;:&quot;e:1&quot;,&quot;imageName&quot;:&quot;page-003.jpg&quot;,&quot;imageId&quot;:3,&quot;bounds&quot;:{&quot;x&quot;:1859,&quot;y&quot;:1697,&quot;w&quot;:55,&quot;h&quot;:54},&quot;atoms&quot;:[{&quot;id&quot;:2431,&quot;token&quot;:&quot;e:1&quot;,&quot;particle_id&quot;:&quot;img3-m85-p2&quot;,&quot;molecule_id&quot;:&quot;img3-m85&quot;,&quot;atom_order&quot;:1}]}</metadata>
  <rect x="0" y="0" width="55" height="54" fill="#f8f0d8"/>
  <image href="file:///C:/Users/HHHES/AppData/Roaming/com.voynichlab.datasetcreator/images/1/35a70f63-88ab-4986-b441-b78046a10087.jpg" x="-1859" y="-1697" width="2972" height="3766" opacity="0.92"/>
  <rect x="0.5" y="0.5" width="54" height="53" fill="none" stroke="#111827" stroke-width="1" opacity="0.35"/>
  <polyline points="31,34 31,35 30,35 30,36 29,36 28,36 28,37 27,37 26,37 26,38 25,38 24,38 23,38 22,38 21,38 20,38 20,37 19,37 18,37 18,36 17,36 17,35 16,34 16,33 16,32 16,31 16,30 16,29 16,28 16,27 17,27 17,26 17,25 18,25 18,24 18,23 19,23 19,22 20,22 20,21 21,21 21,20 22,20 22,19 23,19 24,19 24,18 25,18 26,18 26,17 27,17 28,17 29,17 30,17 31,16 32,16 33,16 34,16 35,16 36,16 37,16 38,16 38,17 39,17" fill="none" stroke="#f2e45c" stroke-width="3" stroke-linecap="round" stroke-linejoin="round" opacity="0.95">
    <title>2431 e:1</title>
  </polyline>
</svg>
