<?xml version="1.0" encoding="UTF-8"?>
<svg xmlns="http://www.w3.org/2000/svg" width="50" height="49" viewBox="0 0 50 49">
  <title>atom 2489 e:1</title>
  <metadata>{&quot;entityType&quot;:&quot;atom&quot;,&quot;entityId&quot;:&quot;2489&quot;,&quot;token&quot;:&quot;e:1&quot;,&quot;signature&quot;:&quot;e:1&quot;,&quot;imageName&quot;:&quot;page-003.jpg&quot;,&quot;imageId&quot;:3,&quot;bounds&quot;:{&quot;x&quot;:2213,&quot;y&quot;:1763,&quot;w&quot;:50,&quot;h&quot;:49},&quot;atoms&quot;:[{&quot;id&quot;:2489,&quot;token&quot;:&quot;e:1&quot;,&quot;particle_id&quot;:&quot;img3-m90-p2&quot;,&quot;molecule_id&quot;:&quot;img3-m90&quot;,&quot;atom_order&quot;:1}]}</metadata>
  <rect x="0" y="0" width="50" height="49" fill="#f8f0d8"/>
  <image href="file:///C:/Users/HHHES/AppData/Roaming/com.voynichlab.datasetcreator/images/1/35a70f63-88ab-4986-b441-b78046a10087.jpg" x="-2213" y="-1763" width="2972" height="3766" opacity="0.92"/>
  <rect x="0.5" y="0.5" width="49" height="48" fill="none" stroke="#111827" stroke-width="1" opacity="0.35"/>
  <polyline points="33,32 32,32 32,33 31,33 30,33 29,33 28,33 27,33 26,33 25,33 24,33 23,33 22,33 22,32 21,32 20,32 19,32 19,31 18,31 18,30 17,30 17,29 16,29 16,28 16,27 16,26 16,25 16,24 16,23 16,22 17,22 17,21 18,20 18,19 19,19 20,19 20,18 21,18 22,18 23,18 24,17 25,17 26,17 27,17 28,17 28,16 29,16 30,16 31,16 32,16 33,16 34,16" fill="none" stroke="#f2e45c" stroke-width="3" stroke-linecap="round" stroke-linejoin="round" opacity="0.95">
    <title>2489 e:1</title>
  </polyline>
</svg>
