<?xml version="1.0" encoding="UTF-8"?>
<svg xmlns="http://www.w3.org/2000/svg" width="52" height="52" viewBox="0 0 52 52">
  <title>atom 2545 e:1</title>
  <metadata>{&quot;entityType&quot;:&quot;atom&quot;,&quot;entityId&quot;:&quot;2545&quot;,&quot;token&quot;:&quot;e:1&quot;,&quot;signature&quot;:&quot;e:1&quot;,&quot;imageName&quot;:&quot;page-003.jpg&quot;,&quot;imageId&quot;:3,&quot;bounds&quot;:{&quot;x&quot;:1405,&quot;y&quot;:1757,&quot;w&quot;:52,&quot;h&quot;:52},&quot;atoms&quot;:[{&quot;id&quot;:2545,&quot;token&quot;:&quot;e:1&quot;,&quot;particle_id&quot;:&quot;img3-m96-p4&quot;,&quot;molecule_id&quot;:&quot;img3-m96&quot;,&quot;atom_order&quot;:1}]}</metadata>
  <rect x="0" y="0" width="52" height="52" fill="#f8f0d8"/>
  <image href="file:///C:/Users/HHHES/AppData/Roaming/com.voynichlab.datasetcreator/images/1/35a70f63-88ab-4986-b441-b78046a10087.jpg" x="-1405" y="-1757" width="2972" height="3766" opacity="0.92"/>
  <rect x="0.5" y="0.5" width="51" height="51" fill="none" stroke="#111827" stroke-width="1" opacity="0.35"/>
  <polyline points="30,33 30,34 29,34 28,34 28,35 27,35 26,35 25,35 25,36 24,36 23,36 22,36 21,36 20,36 20,35 19,35 18,35 18,34 17,34 17,33 16,33 16,32 16,31 16,30 16,29 16,28 16,27 16,26 16,25 17,25 17,24 18,23 19,22 20,22 20,21 21,21 22,20 23,19 24,19 24,18 25,18 26,17 27,17 28,17 28,16 29,16 30,16 31,16 32,16 33,16 34,16 35,16 36,16" fill="none" stroke="#f2e45c" stroke-width="3" stroke-linecap="round" stroke-linejoin="round" opacity="0.95">
    <title>2545 e:1</title>
  </polyline>
</svg>
