<?xml version="1.0" encoding="UTF-8"?>
<svg xmlns="http://www.w3.org/2000/svg" width="54" height="54" viewBox="0 0 54 54">
  <title>atom 3375 e:1</title>
  <metadata>{&quot;entityType&quot;:&quot;atom&quot;,&quot;entityId&quot;:&quot;3375&quot;,&quot;token&quot;:&quot;e:1&quot;,&quot;signature&quot;:&quot;e:1&quot;,&quot;imageName&quot;:&quot;page-003.jpg&quot;,&quot;imageId&quot;:3,&quot;bounds&quot;:{&quot;x&quot;:1917,&quot;y&quot;:1947,&quot;w&quot;:54,&quot;h&quot;:54},&quot;atoms&quot;:[{&quot;id&quot;:3375,&quot;token&quot;:&quot;e:1&quot;,&quot;particle_id&quot;:&quot;img3-m120-p1&quot;,&quot;molecule_id&quot;:&quot;img3-m120&quot;,&quot;atom_order&quot;:3}]}</metadata>
  <rect x="0" y="0" width="54" height="54" fill="#f8f0d8"/>
  <image href="file:///C:/Users/HHHES/AppData/Roaming/com.voynichlab.datasetcreator/images/1/35a70f63-88ab-4986-b441-b78046a10087.jpg" x="-1917" y="-1947" width="2972" height="3766" opacity="0.92"/>
  <rect x="0.5" y="0.5" width="53" height="53" fill="none" stroke="#111827" stroke-width="1" opacity="0.35"/>
  <polyline points="38,16 37,16 37,17 36,17 35,17 34,17 33,18 32,18 31,18 30,18 30,19 29,19 28,19 27,20 26,20 25,21 24,21 23,21 23,22 22,22 21,23 20,23 20,24 19,24 18,24 18,25 17,26 17,27 17,28 16,28 16,29 16,30 16,31 16,32 16,33 16,34 16,35 16,36 16,37 17,37 18,37 19,37 19,38 20,38" fill="none" stroke="#f2e45c" stroke-width="3" stroke-linecap="round" stroke-linejoin="round" opacity="0.95">
    <title>3375 e:1</title>
  </polyline>
</svg>
