<?xml version="1.0" encoding="UTF-8"?>
<svg xmlns="http://www.w3.org/2000/svg" width="46" height="58" viewBox="0 0 46 58">
  <title>atom 3791 e:1</title>
  <metadata>{&quot;entityType&quot;:&quot;atom&quot;,&quot;entityId&quot;:&quot;3791&quot;,&quot;token&quot;:&quot;e:1&quot;,&quot;signature&quot;:&quot;e:1&quot;,&quot;imageName&quot;:&quot;page-003.jpg&quot;,&quot;imageId&quot;:3,&quot;bounds&quot;:{&quot;x&quot;:1317,&quot;y&quot;:2419,&quot;w&quot;:46,&quot;h&quot;:58},&quot;atoms&quot;:[{&quot;id&quot;:3791,&quot;token&quot;:&quot;e:1&quot;,&quot;particle_id&quot;:&quot;img3-m148-p1&quot;,&quot;molecule_id&quot;:&quot;img3-m148&quot;,&quot;atom_order&quot;:2}]}</metadata>
  <rect x="0" y="0" width="46" height="58" fill="#f8f0d8"/>
  <image href="file:///C:/Users/HHHES/AppData/Roaming/com.voynichlab.datasetcreator/images/1/35a70f63-88ab-4986-b441-b78046a10087.jpg" x="-1317" y="-2419" width="2972" height="3766" opacity="0.92"/>
  <rect x="0.5" y="0.5" width="45" height="57" fill="none" stroke="#111827" stroke-width="1" opacity="0.35"/>
  <polyline points="30,16 29,16 29,17 28,17 27,17 27,18 26,18 26,19 25,19 24,19 24,20 23,20 23,21 22,21 21,22 21,23 20,23 20,24 19,24 19,25 18,26 18,27 17,27 17,28 17,29 17,30 16,31 16,32 16,33 16,34 16,35 16,36 16,37 16,38 17,38 17,39 17,40 18,40 19,41 20,41 20,42 21,42 22,42 23,42 24,42" fill="none" stroke="#f2e45c" stroke-width="3" stroke-linecap="round" stroke-linejoin="round" opacity="0.95">
    <title>3791 e:1</title>
  </polyline>
</svg>
