<?xml version="1.0" encoding="UTF-8"?>
<svg xmlns="http://www.w3.org/2000/svg" width="57" height="60" viewBox="0 0 57 60">
  <title>atom 990 e:1</title>
  <metadata>{&quot;entityType&quot;:&quot;atom&quot;,&quot;entityId&quot;:&quot;990&quot;,&quot;token&quot;:&quot;e:1&quot;,&quot;signature&quot;:&quot;e:1&quot;,&quot;imageName&quot;:&quot;page-003.jpg&quot;,&quot;imageId&quot;:3,&quot;bounds&quot;:{&quot;x&quot;:526,&quot;y&quot;:460,&quot;w&quot;:57,&quot;h&quot;:60},&quot;atoms&quot;:[{&quot;id&quot;:990,&quot;token&quot;:&quot;e:1&quot;,&quot;particle_id&quot;:&quot;img3-m1-p1&quot;,&quot;molecule_id&quot;:&quot;img3-m1&quot;,&quot;atom_order&quot;:7}]}</metadata>
  <rect x="0" y="0" width="57" height="60" fill="#f8f0d8"/>
  <image href="file:///C:/Users/HHHES/AppData/Roaming/com.voynichlab.datasetcreator/images/1/35a70f63-88ab-4986-b441-b78046a10087.jpg" x="-526" y="-460" width="2972" height="3766" opacity="0.92"/>
  <rect x="0.5" y="0.5" width="56" height="59" fill="none" stroke="#111827" stroke-width="1" opacity="0.35"/>
  <polyline points="21,16 20,16 20,17 20,18 19,18 19,19 19,20 18,20 18,21 18,22 18,23 17,23 17,24 17,25 17,26 17,27 16,27 16,28 16,29 16,30 16,31 16,32 16,33 16,34 16,35 16,36 17,36 17,37 17,38 17,39 18,39 19,40 19,41 20,41 20,42 21,42 22,42 22,43 23,43 24,43 24,44 25,44 26,44 27,44 28,44 29,44 29,43 30,43 31,43 32,43 32,42 33,42 34,42 34,41 35,41 35,40 36,40 36,39 37,39 37,38 38,37 38,36 39,36 39,35 39,34 40,34 40,33 41,33 41,32" fill="none" stroke="#f2e45c" stroke-width="3" stroke-linecap="round" stroke-linejoin="round" opacity="0.95">
    <title>990 e:1</title>
  </polyline>
</svg>
