<?xml version="1.0" encoding="UTF-8"?>
<svg xmlns="http://www.w3.org/2000/svg" width="48" height="64" viewBox="0 0 48 64">
  <title>atom 1022 i:1</title>
  <metadata>{&quot;entityType&quot;:&quot;atom&quot;,&quot;entityId&quot;:&quot;1022&quot;,&quot;token&quot;:&quot;i:1&quot;,&quot;signature&quot;:&quot;i:1&quot;,&quot;imageName&quot;:&quot;page-003.jpg&quot;,&quot;imageId&quot;:3,&quot;bounds&quot;:{&quot;x&quot;:1056,&quot;y&quot;:492,&quot;w&quot;:48,&quot;h&quot;:64},&quot;atoms&quot;:[{&quot;id&quot;:1022,&quot;token&quot;:&quot;i:1&quot;,&quot;particle_id&quot;:&quot;img3-m5-p2&quot;,&quot;molecule_id&quot;:&quot;img3-m5&quot;,&quot;atom_order&quot;:2}]}</metadata>
  <rect x="0" y="0" width="48" height="64" fill="#f8f0d8"/>
  <image href="file:///C:/Users/HHHES/AppData/Roaming/com.voynichlab.datasetcreator/images/1/35a70f63-88ab-4986-b441-b78046a10087.jpg" x="-1056" y="-492" width="2972" height="3766" opacity="0.92"/>
  <rect x="0.5" y="0.5" width="47" height="63" fill="none" stroke="#111827" stroke-width="1" opacity="0.35"/>
  <polyline points="16,48 17,48 17,47 18,47 19,47 19,46 20,46 20,45 21,45 22,45 22,44 23,44 24,43 25,42 25,41 26,41 26,40 27,40 27,39 28,39 28,38 29,38 29,37 29,36 30,36 30,35 30,34 31,33 31,32 31,31 31,30 31,29 31,28 31,27 31,26 32,26 32,25 32,24 32,23 32,22 32,21 32,20 32,19 32,18 31,17 31,16" fill="none" stroke="#00ff7f" stroke-width="3" stroke-linecap="round" stroke-linejoin="round" opacity="0.95">
    <title>1022 i:1</title>
  </polyline>
</svg>
