<?xml version="1.0" encoding="UTF-8"?>
<svg xmlns="http://www.w3.org/2000/svg" width="48" height="63" viewBox="0 0 48 63">
  <title>atom 1032 i:1</title>
  <metadata>{&quot;entityType&quot;:&quot;atom&quot;,&quot;entityId&quot;:&quot;1032&quot;,&quot;token&quot;:&quot;i:1&quot;,&quot;signature&quot;:&quot;i:1&quot;,&quot;imageName&quot;:&quot;page-003.jpg&quot;,&quot;imageId&quot;:3,&quot;bounds&quot;:{&quot;x&quot;:650,&quot;y&quot;:602,&quot;w&quot;:48,&quot;h&quot;:63},&quot;atoms&quot;:[{&quot;id&quot;:1032,&quot;token&quot;:&quot;i:1&quot;,&quot;particle_id&quot;:&quot;img3-m15-p3&quot;,&quot;molecule_id&quot;:&quot;img3-m15&quot;,&quot;atom_order&quot;:2}]}</metadata>
  <rect x="0" y="0" width="48" height="63" fill="#f8f0d8"/>
  <image href="file:///C:/Users/HHHES/AppData/Roaming/com.voynichlab.datasetcreator/images/1/35a70f63-88ab-4986-b441-b78046a10087.jpg" x="-650" y="-602" width="2972" height="3766" opacity="0.92"/>
  <rect x="0.5" y="0.5" width="47" height="62" fill="none" stroke="#111827" stroke-width="1" opacity="0.35"/>
  <polyline points="16,47 17,47 17,46 18,46 19,45 20,45 20,44 21,44 22,43 23,43 23,42 24,42 24,41 25,41 25,40 26,40 26,39 27,39 27,38 28,38 28,37 28,36 29,36 29,35 29,34 30,34 30,33 30,32 30,31 31,31 31,30 31,29 31,28 31,27 31,26 32,26 32,25 32,24 32,23 32,22 32,21 32,20 32,19 32,18 32,17 32,16" fill="none" stroke="#00ff7f" stroke-width="3" stroke-linecap="round" stroke-linejoin="round" opacity="0.95">
    <title>1032 i:1</title>
  </polyline>
</svg>
