<?xml version="1.0" encoding="UTF-8"?>
<svg xmlns="http://www.w3.org/2000/svg" width="47" height="58" viewBox="0 0 47 58">
  <title>atom 1108 i:1</title>
  <metadata>{&quot;entityType&quot;:&quot;atom&quot;,&quot;entityId&quot;:&quot;1108&quot;,&quot;token&quot;:&quot;i:1&quot;,&quot;signature&quot;:&quot;i:1&quot;,&quot;imageName&quot;:&quot;page-003.jpg&quot;,&quot;imageId&quot;:3,&quot;bounds&quot;:{&quot;x&quot;:1869,&quot;y&quot;:488,&quot;w&quot;:47,&quot;h&quot;:58},&quot;atoms&quot;:[{&quot;id&quot;:1108,&quot;token&quot;:&quot;i:1&quot;,&quot;particle_id&quot;:&quot;img3-m2-p2&quot;,&quot;molecule_id&quot;:&quot;img3-m2&quot;,&quot;atom_order&quot;:2}]}</metadata>
  <rect x="0" y="0" width="47" height="58" fill="#f8f0d8"/>
  <image href="file:///C:/Users/HHHES/AppData/Roaming/com.voynichlab.datasetcreator/images/1/35a70f63-88ab-4986-b441-b78046a10087.jpg" x="-1869" y="-488" width="2972" height="3766" opacity="0.92"/>
  <rect x="0.5" y="0.5" width="46" height="57" fill="none" stroke="#111827" stroke-width="1" opacity="0.35"/>
  <polyline points="16,42 17,42 18,42 19,42 20,42 21,42 22,42 23,42 24,42 24,41 25,41 26,40 26,39 27,39 28,39 28,38 29,37 29,36 30,36 30,35 30,34 31,34 31,33 31,32 31,31 31,30 31,29 31,28 31,27 31,26 31,25 31,24 31,23 30,23 30,22 30,21 29,20 29,19 28,19 28,18 27,17 27,16 26,16" fill="none" stroke="#00ff7f" stroke-width="3" stroke-linecap="round" stroke-linejoin="round" opacity="0.95">
    <title>1108 i:1</title>
  </polyline>
</svg>
