<?xml version="1.0" encoding="UTF-8"?>
<svg xmlns="http://www.w3.org/2000/svg" width="51" height="73" viewBox="0 0 51 73">
  <title>atom 1110 i:1</title>
  <metadata>{&quot;entityType&quot;:&quot;atom&quot;,&quot;entityId&quot;:&quot;1110&quot;,&quot;token&quot;:&quot;i:1&quot;,&quot;signature&quot;:&quot;i:1&quot;,&quot;imageName&quot;:&quot;page-003.jpg&quot;,&quot;imageId&quot;:3,&quot;bounds&quot;:{&quot;x&quot;:1933,&quot;y&quot;:481,&quot;w&quot;:51,&quot;h&quot;:73},&quot;atoms&quot;:[{&quot;id&quot;:1110,&quot;token&quot;:&quot;i:1&quot;,&quot;particle_id&quot;:&quot;img3-m2-p4&quot;,&quot;molecule_id&quot;:&quot;img3-m2&quot;,&quot;atom_order&quot;:2}]}</metadata>
  <rect x="0" y="0" width="51" height="73" fill="#f8f0d8"/>
  <image href="file:///C:/Users/HHHES/AppData/Roaming/com.voynichlab.datasetcreator/images/1/35a70f63-88ab-4986-b441-b78046a10087.jpg" x="-1933" y="-481" width="2972" height="3766" opacity="0.92"/>
  <rect x="0.5" y="0.5" width="50" height="72" fill="none" stroke="#111827" stroke-width="1" opacity="0.35"/>
  <polyline points="16,57 17,57 17,56 18,56 19,56 19,55 20,55 21,55 21,54 22,54 23,54 23,53 24,53 24,52 25,52 26,51 27,51 27,50 28,50 28,49 29,49 29,48 30,48 30,47 31,47 31,46 32,46 32,45 32,44 33,44 33,43 33,42 34,41 34,40 34,39 34,38 35,37 35,36 35,35 35,34 35,33 35,32 35,31 35,30 35,29 35,28 34,28 34,27 34,26 34,25 34,24 33,24 33,23 33,22 32,21 32,20 32,19 31,19 31,18 30,18 30,17 30,16 29,16" fill="none" stroke="#00ff7f" stroke-width="3" stroke-linecap="round" stroke-linejoin="round" opacity="0.95">
    <title>1110 i:1</title>
  </polyline>
</svg>
