<?xml version="1.0" encoding="UTF-8"?>
<svg xmlns="http://www.w3.org/2000/svg" width="56" height="66" viewBox="0 0 56 66">
  <title>atom 1126 i:1</title>
  <metadata>{&quot;entityType&quot;:&quot;atom&quot;,&quot;entityId&quot;:&quot;1126&quot;,&quot;token&quot;:&quot;i:1&quot;,&quot;signature&quot;:&quot;i:1&quot;,&quot;imageName&quot;:&quot;page-003.jpg&quot;,&quot;imageId&quot;:3,&quot;bounds&quot;:{&quot;x&quot;:2106,&quot;y&quot;:490,&quot;w&quot;:56,&quot;h&quot;:66},&quot;atoms&quot;:[{&quot;id&quot;:1126,&quot;token&quot;:&quot;i:1&quot;,&quot;particle_id&quot;:&quot;img3-m7-p4&quot;,&quot;molecule_id&quot;:&quot;img3-m7&quot;,&quot;atom_order&quot;:2}]}</metadata>
  <rect x="0" y="0" width="56" height="66" fill="#f8f0d8"/>
  <image href="file:///C:/Users/HHHES/AppData/Roaming/com.voynichlab.datasetcreator/images/1/35a70f63-88ab-4986-b441-b78046a10087.jpg" x="-2106" y="-490" width="2972" height="3766" opacity="0.92"/>
  <rect x="0.5" y="0.5" width="55" height="65" fill="none" stroke="#111827" stroke-width="1" opacity="0.35"/>
  <polyline points="16,50 17,50 18,49 19,49 19,48 20,48 20,47 21,47 21,46 22,46 23,46 23,45 24,45 24,44 25,44 26,43 27,43 27,42 28,42 28,41 29,41 29,40 29,39 30,39 31,39 31,38 32,37 33,36 33,35 34,35 34,34 35,33 35,32 36,32 36,31 37,30 37,29 38,29 38,28 38,27 39,27 39,26 39,25 39,24 40,24 40,23 40,22 40,21 40,20 40,19 40,18 40,17 39,16" fill="none" stroke="#00ff7f" stroke-width="3" stroke-linecap="round" stroke-linejoin="round" opacity="0.95">
    <title>1126 i:1</title>
  </polyline>
</svg>
