<?xml version="1.0" encoding="UTF-8"?>
<svg xmlns="http://www.w3.org/2000/svg" width="51" height="58" viewBox="0 0 51 58">
  <title>atom 1159 i:1</title>
  <metadata>{&quot;entityType&quot;:&quot;atom&quot;,&quot;entityId&quot;:&quot;1159&quot;,&quot;token&quot;:&quot;i:1&quot;,&quot;signature&quot;:&quot;i:1&quot;,&quot;imageName&quot;:&quot;page-003.jpg&quot;,&quot;imageId&quot;:3,&quot;bounds&quot;:{&quot;x&quot;:1002,&quot;y&quot;:600,&quot;w&quot;:51,&quot;h&quot;:58},&quot;atoms&quot;:[{&quot;id&quot;:1159,&quot;token&quot;:&quot;i:1&quot;,&quot;particle_id&quot;:&quot;img3-m18-p3&quot;,&quot;molecule_id&quot;:&quot;img3-m18&quot;,&quot;atom_order&quot;:2}]}</metadata>
  <rect x="0" y="0" width="51" height="58" fill="#f8f0d8"/>
  <image href="file:///C:/Users/HHHES/AppData/Roaming/com.voynichlab.datasetcreator/images/1/35a70f63-88ab-4986-b441-b78046a10087.jpg" x="-1002" y="-600" width="2972" height="3766" opacity="0.92"/>
  <rect x="0.5" y="0.5" width="50" height="57" fill="none" stroke="#111827" stroke-width="1" opacity="0.35"/>
  <polyline points="16,42 17,41 18,41 18,40 19,40 20,40 20,39 21,39 22,39 22,38 23,38 24,38 24,37 25,37 25,36 26,36 27,36 27,35 28,35 28,34 29,34 30,34 30,33 31,33 31,32 31,31 32,31 32,30 33,30 33,29 33,28 34,28 34,27 34,26 35,26 35,25 35,24 35,23 35,22 35,21 35,20 35,19 35,18 34,18 34,17 34,16" fill="none" stroke="#00ff7f" stroke-width="3" stroke-linecap="round" stroke-linejoin="round" opacity="0.95">
    <title>1159 i:1</title>
  </polyline>
</svg>
