<?xml version="1.0" encoding="UTF-8"?>
<svg xmlns="http://www.w3.org/2000/svg" width="52" height="67" viewBox="0 0 52 67">
  <title>atom 1214 i:1</title>
  <metadata>{&quot;entityType&quot;:&quot;atom&quot;,&quot;entityId&quot;:&quot;1214&quot;,&quot;token&quot;:&quot;i:1&quot;,&quot;signature&quot;:&quot;i:1&quot;,&quot;imageName&quot;:&quot;page-003.jpg&quot;,&quot;imageId&quot;:3,&quot;bounds&quot;:{&quot;x&quot;:1779,&quot;y&quot;:570,&quot;w&quot;:52,&quot;h&quot;:67},&quot;atoms&quot;:[{&quot;id&quot;:1214,&quot;token&quot;:&quot;i:1&quot;,&quot;particle_id&quot;:&quot;img3-m16-p2&quot;,&quot;molecule_id&quot;:&quot;img3-m16&quot;,&quot;atom_order&quot;:3}]}</metadata>
  <rect x="0" y="0" width="52" height="67" fill="#f8f0d8"/>
  <image href="file:///C:/Users/HHHES/AppData/Roaming/com.voynichlab.datasetcreator/images/1/35a70f63-88ab-4986-b441-b78046a10087.jpg" x="-1779" y="-570" width="2972" height="3766" opacity="0.92"/>
  <rect x="0.5" y="0.5" width="51" height="66" fill="none" stroke="#111827" stroke-width="1" opacity="0.35"/>
  <polyline points="16,51 17,51 17,50 18,50 19,50 19,49 20,49 21,49 22,49 22,48 23,48 24,48 24,47 25,47 26,47 27,47 27,46 28,46 28,45 29,45 30,44 31,44 31,43 32,43 32,42 32,41 33,41 33,40 33,39 34,39 34,38 35,37 35,36 35,35 36,34 36,33 36,32 36,31 36,30 36,29 36,28 36,27 36,26 36,25 36,24 36,23 36,22 35,22 35,21 35,20 34,20 34,19 33,19 33,18 33,17 32,17 32,16" fill="none" stroke="#00ff7f" stroke-width="3" stroke-linecap="round" stroke-linejoin="round" opacity="0.95">
    <title>1214 i:1</title>
  </polyline>
</svg>
