<?xml version="1.0" encoding="UTF-8"?>
<svg xmlns="http://www.w3.org/2000/svg" width="62" height="64" viewBox="0 0 62 64">
  <title>atom 1284 i:1</title>
  <metadata>{&quot;entityType&quot;:&quot;atom&quot;,&quot;entityId&quot;:&quot;1284&quot;,&quot;token&quot;:&quot;i:1&quot;,&quot;signature&quot;:&quot;i:1&quot;,&quot;imageName&quot;:&quot;page-003.jpg&quot;,&quot;imageId&quot;:3,&quot;bounds&quot;:{&quot;x&quot;:2228,&quot;y&quot;:584,&quot;w&quot;:62,&quot;h&quot;:64},&quot;atoms&quot;:[{&quot;id&quot;:1284,&quot;token&quot;:&quot;i:1&quot;,&quot;particle_id&quot;:&quot;img3-m11-p3&quot;,&quot;molecule_id&quot;:&quot;img3-m11&quot;,&quot;atom_order&quot;:2}]}</metadata>
  <rect x="0" y="0" width="62" height="64" fill="#f8f0d8"/>
  <image href="file:///C:/Users/HHHES/AppData/Roaming/com.voynichlab.datasetcreator/images/1/35a70f63-88ab-4986-b441-b78046a10087.jpg" x="-2228" y="-584" width="2972" height="3766" opacity="0.92"/>
  <rect x="0.5" y="0.5" width="61" height="63" fill="none" stroke="#111827" stroke-width="1" opacity="0.35"/>
  <polyline points="16,48 17,48 18,48 19,48 20,48 21,48 22,48 23,48 23,47 24,47 25,47 26,47 26,46 27,46 28,46 28,45 29,45 30,45 30,44 31,44 31,43 32,43 33,43 33,42 34,42 34,41 35,41 36,40 37,39 38,39 38,38 39,37 39,36 40,36 40,35 41,35 41,34 41,33 42,33 42,32 43,32 43,31 43,30 44,30 44,29 45,28 45,27 45,26 45,25 46,24 46,23 46,22 45,22 45,21 45,20 44,20 44,19 44,18 43,18 43,17 42,17 42,16 43,16" fill="none" stroke="#00ff7f" stroke-width="3" stroke-linecap="round" stroke-linejoin="round" opacity="0.95">
    <title>1284 i:1</title>
  </polyline>
</svg>
