<?xml version="1.0" encoding="UTF-8"?>
<svg xmlns="http://www.w3.org/2000/svg" width="44" height="62" viewBox="0 0 44 62">
  <title>atom 1335 i:1</title>
  <metadata>{&quot;entityType&quot;:&quot;atom&quot;,&quot;entityId&quot;:&quot;1335&quot;,&quot;token&quot;:&quot;i:1&quot;,&quot;signature&quot;:&quot;i:1&quot;,&quot;imageName&quot;:&quot;page-003.jpg&quot;,&quot;imageId&quot;:3,&quot;bounds&quot;:{&quot;x&quot;:577,&quot;y&quot;:675,&quot;w&quot;:44,&quot;h&quot;:62},&quot;atoms&quot;:[{&quot;id&quot;:1335,&quot;token&quot;:&quot;i:1&quot;,&quot;particle_id&quot;:&quot;img3-m23-p1&quot;,&quot;molecule_id&quot;:&quot;img3-m23&quot;,&quot;atom_order&quot;:2}]}</metadata>
  <rect x="0" y="0" width="44" height="62" fill="#f8f0d8"/>
  <image href="file:///C:/Users/HHHES/AppData/Roaming/com.voynichlab.datasetcreator/images/1/35a70f63-88ab-4986-b441-b78046a10087.jpg" x="-577" y="-675" width="2972" height="3766" opacity="0.92"/>
  <rect x="0.5" y="0.5" width="43" height="61" fill="none" stroke="#111827" stroke-width="1" opacity="0.35"/>
  <polyline points="21,46 22,46 22,45 23,45 23,44 24,44 24,43 24,42 25,42 25,41 25,40 26,40 26,39 27,39 27,38 27,37 27,36 28,36 28,35 28,34 28,33 28,32 28,31 28,30 28,29 28,28 28,27 27,27 27,26 27,25 27,24 26,24 26,23 25,22 25,21 24,21 24,20 23,20 23,19 22,19 22,18 21,18 20,18 20,17 19,17 18,17 18,16 17,16 16,16" fill="none" stroke="#00ff7f" stroke-width="3" stroke-linecap="round" stroke-linejoin="round" opacity="0.95">
    <title>1335 i:1</title>
  </polyline>
</svg>
