<?xml version="1.0" encoding="UTF-8"?>
<svg xmlns="http://www.w3.org/2000/svg" width="70" height="59" viewBox="0 0 70 59">
  <title>atom 1345 i:1</title>
  <metadata>{&quot;entityType&quot;:&quot;atom&quot;,&quot;entityId&quot;:&quot;1345&quot;,&quot;token&quot;:&quot;i:1&quot;,&quot;signature&quot;:&quot;i:1&quot;,&quot;imageName&quot;:&quot;page-003.jpg&quot;,&quot;imageId&quot;:3,&quot;bounds&quot;:{&quot;x&quot;:727,&quot;y&quot;:689,&quot;w&quot;:70,&quot;h&quot;:59},&quot;atoms&quot;:[{&quot;id&quot;:1345,&quot;token&quot;:&quot;i:1&quot;,&quot;particle_id&quot;:&quot;img3-m28-p2&quot;,&quot;molecule_id&quot;:&quot;img3-m28&quot;,&quot;atom_order&quot;:3}]}</metadata>
  <rect x="0" y="0" width="70" height="59" fill="#f8f0d8"/>
  <image href="file:///C:/Users/HHHES/AppData/Roaming/com.voynichlab.datasetcreator/images/1/35a70f63-88ab-4986-b441-b78046a10087.jpg" x="-727" y="-689" width="2972" height="3766" opacity="0.92"/>
  <rect x="0.5" y="0.5" width="69" height="58" fill="none" stroke="#111827" stroke-width="1" opacity="0.35"/>
  <polyline points="16,43 17,43 18,43 19,43 20,43 21,43 22,43 23,43 24,43 24,42 25,42 26,42 27,42 28,42 29,41 30,41 31,41 32,41 32,40 33,40 34,40 35,40 36,40 36,39 37,39 38,38 39,38 40,38 40,37 41,37 42,36 43,35 44,35 44,34 45,34 45,33 46,33 46,32 47,32 47,31 48,31 48,30 49,30 49,29 50,29 50,28 50,27 51,27 51,26 51,25 52,25 52,24 52,23 53,22 53,21 53,20 53,19 54,18 54,17 54,16" fill="none" stroke="#00ff7f" stroke-width="3" stroke-linecap="round" stroke-linejoin="round" opacity="0.95">
    <title>1345 i:1</title>
  </polyline>
</svg>
