<?xml version="1.0" encoding="UTF-8"?>
<svg xmlns="http://www.w3.org/2000/svg" width="56" height="78" viewBox="0 0 56 78">
  <title>atom 1378 i:1</title>
  <metadata>{&quot;entityType&quot;:&quot;atom&quot;,&quot;entityId&quot;:&quot;1378&quot;,&quot;token&quot;:&quot;i:1&quot;,&quot;signature&quot;:&quot;i:1&quot;,&quot;imageName&quot;:&quot;page-003.jpg&quot;,&quot;imageId&quot;:3,&quot;bounds&quot;:{&quot;x&quot;:1281,&quot;y&quot;:675,&quot;w&quot;:56,&quot;h&quot;:78},&quot;atoms&quot;:[{&quot;id&quot;:1378,&quot;token&quot;:&quot;i:1&quot;,&quot;particle_id&quot;:&quot;img3-m26-p4&quot;,&quot;molecule_id&quot;:&quot;img3-m26&quot;,&quot;atom_order&quot;:3}]}</metadata>
  <rect x="0" y="0" width="56" height="78" fill="#f8f0d8"/>
  <image href="file:///C:/Users/HHHES/AppData/Roaming/com.voynichlab.datasetcreator/images/1/35a70f63-88ab-4986-b441-b78046a10087.jpg" x="-1281" y="-675" width="2972" height="3766" opacity="0.92"/>
  <rect x="0.5" y="0.5" width="55" height="77" fill="none" stroke="#111827" stroke-width="1" opacity="0.35"/>
  <polyline points="16,62 17,62 17,61 18,61 19,61 19,60 20,60 21,60 21,59 22,59 23,59 23,58 24,58 24,57 25,56 26,56 26,55 27,54 27,53 28,53 29,53 29,52 30,51 31,50 32,50 32,49 32,48 33,48 33,47 34,47 34,46 35,45 36,44 36,43 37,43 37,42 37,41 38,41 38,40 38,39 39,38 39,37 39,36 39,35 39,34 39,33 39,32 39,31 39,30 40,29 40,28 40,27 39,27 39,26 39,25 38,25 38,24 38,23 37,23 37,22 37,21 37,20 36,20 36,19 36,18 35,18 35,17 34,17 34,16 33,16 34,16" fill="none" stroke="#00ff7f" stroke-width="3" stroke-linecap="round" stroke-linejoin="round" opacity="0.95">
    <title>1378 i:1</title>
  </polyline>
</svg>
