<?xml version="1.0" encoding="UTF-8"?>
<svg xmlns="http://www.w3.org/2000/svg" width="44" height="63" viewBox="0 0 44 63">
  <title>atom 1436 i:1</title>
  <metadata>{&quot;entityType&quot;:&quot;atom&quot;,&quot;entityId&quot;:&quot;1436&quot;,&quot;token&quot;:&quot;i:1&quot;,&quot;signature&quot;:&quot;i:1&quot;,&quot;imageName&quot;:&quot;page-003.jpg&quot;,&quot;imageId&quot;:3,&quot;bounds&quot;:{&quot;x&quot;:1984,&quot;y&quot;:659,&quot;w&quot;:44,&quot;h&quot;:63},&quot;atoms&quot;:[{&quot;id&quot;:1436,&quot;token&quot;:&quot;i:1&quot;,&quot;particle_id&quot;:&quot;img3-m20-p3&quot;,&quot;molecule_id&quot;:&quot;img3-m20&quot;,&quot;atom_order&quot;:2}]}</metadata>
  <rect x="0" y="0" width="44" height="63" fill="#f8f0d8"/>
  <image href="file:///C:/Users/HHHES/AppData/Roaming/com.voynichlab.datasetcreator/images/1/35a70f63-88ab-4986-b441-b78046a10087.jpg" x="-1984" y="-659" width="2972" height="3766" opacity="0.92"/>
  <rect x="0.5" y="0.5" width="43" height="62" fill="none" stroke="#111827" stroke-width="1" opacity="0.35"/>
  <polyline points="16,47 17,47 17,46 18,46 19,45 20,45 20,44 21,44 21,43 22,43 22,42 23,42 23,41 24,41 24,40 25,39 25,38 26,38 26,37 27,37 27,36 27,35 27,34 28,33 28,32 28,31 28,30 28,29 28,28 28,27 28,26 28,25 28,24 28,23 28,22 28,21 28,20 27,20 27,19 27,18 26,18 26,17 25,17 25,16" fill="none" stroke="#00ff7f" stroke-width="3" stroke-linecap="round" stroke-linejoin="round" opacity="0.95">
    <title>1436 i:1</title>
  </polyline>
</svg>
