<?xml version="1.0" encoding="UTF-8"?>
<svg xmlns="http://www.w3.org/2000/svg" width="59" height="58" viewBox="0 0 59 58">
  <title>atom 1460 i:1</title>
  <metadata>{&quot;entityType&quot;:&quot;atom&quot;,&quot;entityId&quot;:&quot;1460&quot;,&quot;token&quot;:&quot;i:1&quot;,&quot;signature&quot;:&quot;i:1&quot;,&quot;imageName&quot;:&quot;page-003.jpg&quot;,&quot;imageId&quot;:3,&quot;bounds&quot;:{&quot;x&quot;:2125,&quot;y&quot;:670,&quot;w&quot;:59,&quot;h&quot;:58},&quot;atoms&quot;:[{&quot;id&quot;:1460,&quot;token&quot;:&quot;i:1&quot;,&quot;particle_id&quot;:&quot;img3-m22-p3&quot;,&quot;molecule_id&quot;:&quot;img3-m22&quot;,&quot;atom_order&quot;:2}]}</metadata>
  <rect x="0" y="0" width="59" height="58" fill="#f8f0d8"/>
  <image href="file:///C:/Users/HHHES/AppData/Roaming/com.voynichlab.datasetcreator/images/1/35a70f63-88ab-4986-b441-b78046a10087.jpg" x="-2125" y="-670" width="2972" height="3766" opacity="0.92"/>
  <rect x="0.5" y="0.5" width="58" height="57" fill="none" stroke="#111827" stroke-width="1" opacity="0.35"/>
  <polyline points="16,39 17,39 18,39 18,40 19,40 20,40 21,40 22,41 23,41 24,41 24,42 25,42 26,42 27,42 28,42 29,42 30,42 31,42 31,41 32,41 33,41 34,41 34,40 35,40 35,39 36,39 36,38 37,38 38,37 39,36 40,35 41,34 41,33 42,33 42,32 42,31 42,30 42,29 42,28 43,28 43,27 43,26 43,25 43,24 43,23 42,22 42,21 42,20 42,19 42,18 41,18 41,17 41,16 40,16" fill="none" stroke="#00ff7f" stroke-width="3" stroke-linecap="round" stroke-linejoin="round" opacity="0.95">
    <title>1460 i:1</title>
  </polyline>
</svg>
