<?xml version="1.0" encoding="UTF-8"?>
<svg xmlns="http://www.w3.org/2000/svg" width="49" height="81" viewBox="0 0 49 81">
  <title>atom 1467 i:1</title>
  <metadata>{&quot;entityType&quot;:&quot;atom&quot;,&quot;entityId&quot;:&quot;1467&quot;,&quot;token&quot;:&quot;i:1&quot;,&quot;signature&quot;:&quot;i:1&quot;,&quot;imageName&quot;:&quot;page-003.jpg&quot;,&quot;imageId&quot;:3,&quot;bounds&quot;:{&quot;x&quot;:2263,&quot;y&quot;:670,&quot;w&quot;:49,&quot;h&quot;:81},&quot;atoms&quot;:[{&quot;id&quot;:1467,&quot;token&quot;:&quot;i:1&quot;,&quot;particle_id&quot;:&quot;img3-m22-p5&quot;,&quot;molecule_id&quot;:&quot;img3-m22&quot;,&quot;atom_order&quot;:3}]}</metadata>
  <rect x="0" y="0" width="49" height="81" fill="#f8f0d8"/>
  <image href="file:///C:/Users/HHHES/AppData/Roaming/com.voynichlab.datasetcreator/images/1/35a70f63-88ab-4986-b441-b78046a10087.jpg" x="-2263" y="-670" width="2972" height="3766" opacity="0.92"/>
  <rect x="0.5" y="0.5" width="48" height="80" fill="none" stroke="#111827" stroke-width="1" opacity="0.35"/>
  <polyline points="16,65 17,65 17,64 18,64 18,63 19,63 19,62 20,62 20,61 21,61 22,60 22,59 23,59 23,58 24,58 24,57 25,57 25,56 26,56 26,55 27,55 27,54 27,53 28,53 28,52 29,51 29,50 30,50 30,49 30,48 31,47 31,46 31,45 32,45 32,44 32,43 32,42 32,41 32,40 33,40 33,39 33,38 33,37 32,37 32,36 32,35 32,34 31,33 31,32 31,31 30,31 30,30 30,29 29,29 29,28 29,27 28,27 28,26 28,25 27,25 27,24 26,23 26,22 25,22 25,21 24,21 24,20 23,20 23,19 22,19 22,18 21,18 20,17 19,17 19,16 18,16" fill="none" stroke="#00ff7f" stroke-width="3" stroke-linecap="round" stroke-linejoin="round" opacity="0.95">
    <title>1467 i:1</title>
  </polyline>
</svg>
