<?xml version="1.0" encoding="UTF-8"?>
<svg xmlns="http://www.w3.org/2000/svg" width="55" height="77" viewBox="0 0 55 77">
  <title>atom 1492 i:1</title>
  <metadata>{&quot;entityType&quot;:&quot;atom&quot;,&quot;entityId&quot;:&quot;1492&quot;,&quot;token&quot;:&quot;i:1&quot;,&quot;signature&quot;:&quot;i:1&quot;,&quot;imageName&quot;:&quot;page-003.jpg&quot;,&quot;imageId&quot;:3,&quot;bounds&quot;:{&quot;x&quot;:681,&quot;y&quot;:776,&quot;w&quot;:55,&quot;h&quot;:77},&quot;atoms&quot;:[{&quot;id&quot;:1492,&quot;token&quot;:&quot;i:1&quot;,&quot;particle_id&quot;:&quot;img3-m33-p3&quot;,&quot;molecule_id&quot;:&quot;img3-m33&quot;,&quot;atom_order&quot;:3}]}</metadata>
  <rect x="0" y="0" width="55" height="77" fill="#f8f0d8"/>
  <image href="file:///C:/Users/HHHES/AppData/Roaming/com.voynichlab.datasetcreator/images/1/35a70f63-88ab-4986-b441-b78046a10087.jpg" x="-681" y="-776" width="2972" height="3766" opacity="0.92"/>
  <rect x="0.5" y="0.5" width="54" height="76" fill="none" stroke="#111827" stroke-width="1" opacity="0.35"/>
  <polyline points="16,61 17,61 18,61 18,60 19,60 20,59 21,59 21,58 22,58 22,57 23,57 23,56 24,56 25,56 25,55 26,55 26,54 27,54 28,54 28,53 29,53 29,52 30,52 30,51 31,51 31,50 32,50 32,49 33,49 33,48 34,48 34,47 35,47 35,46 36,45 36,44 37,44 37,43 37,42 38,42 38,41 38,40 38,39 38,38 39,38 39,37 39,36 39,35 39,34 39,33 38,33 38,32 38,31 38,30 38,29 38,28 37,28 37,27 37,26 37,25 36,25 36,24 36,23 35,23 35,22 35,21 34,21 34,20 34,19 33,19 33,18 32,18 32,17 31,17 30,17 30,16" fill="none" stroke="#00ff7f" stroke-width="3" stroke-linecap="round" stroke-linejoin="round" opacity="0.95">
    <title>1492 i:1</title>
  </polyline>
</svg>
