<?xml version="1.0" encoding="UTF-8"?>
<svg xmlns="http://www.w3.org/2000/svg" width="48" height="58" viewBox="0 0 48 58">
  <title>atom 1527 i:1</title>
  <metadata>{&quot;entityType&quot;:&quot;atom&quot;,&quot;entityId&quot;:&quot;1527&quot;,&quot;token&quot;:&quot;i:1&quot;,&quot;signature&quot;:&quot;i:1&quot;,&quot;imageName&quot;:&quot;page-003.jpg&quot;,&quot;imageId&quot;:3,&quot;bounds&quot;:{&quot;x&quot;:1158,&quot;y&quot;:769,&quot;w&quot;:48,&quot;h&quot;:58},&quot;atoms&quot;:[{&quot;id&quot;:1527,&quot;token&quot;:&quot;i:1&quot;,&quot;particle_id&quot;:&quot;img3-m35-p6&quot;,&quot;molecule_id&quot;:&quot;img3-m35&quot;,&quot;atom_order&quot;:2}]}</metadata>
  <rect x="0" y="0" width="48" height="58" fill="#f8f0d8"/>
  <image href="file:///C:/Users/HHHES/AppData/Roaming/com.voynichlab.datasetcreator/images/1/35a70f63-88ab-4986-b441-b78046a10087.jpg" x="-1158" y="-769" width="2972" height="3766" opacity="0.92"/>
  <rect x="0.5" y="0.5" width="47" height="57" fill="none" stroke="#111827" stroke-width="1" opacity="0.35"/>
  <polyline points="16,42 17,42 18,42 18,41 19,41 20,41 20,40 21,40 22,39 23,39 23,38 24,38 25,38 25,37 26,37 26,36 27,36 28,35 29,35 29,34 30,33 30,32 31,32 31,31 31,30 31,29 32,29 32,28 32,27 32,26 32,25 32,24 32,23 32,22 31,22 31,21 31,20 30,20 30,19 30,18 29,18 29,17 28,17 27,16" fill="none" stroke="#00ff7f" stroke-width="3" stroke-linecap="round" stroke-linejoin="round" opacity="0.95">
    <title>1527 i:1</title>
  </polyline>
</svg>
