<?xml version="1.0" encoding="UTF-8"?>
<svg xmlns="http://www.w3.org/2000/svg" width="55" height="72" viewBox="0 0 55 72">
  <title>atom 1562 i:1</title>
  <metadata>{&quot;entityType&quot;:&quot;atom&quot;,&quot;entityId&quot;:&quot;1562&quot;,&quot;token&quot;:&quot;i:1&quot;,&quot;signature&quot;:&quot;i:1&quot;,&quot;imageName&quot;:&quot;page-003.jpg&quot;,&quot;imageId&quot;:3,&quot;bounds&quot;:{&quot;x&quot;:1631,&quot;y&quot;:751,&quot;w&quot;:55,&quot;h&quot;:72},&quot;atoms&quot;:[{&quot;id&quot;:1562,&quot;token&quot;:&quot;i:1&quot;,&quot;particle_id&quot;:&quot;img3-m29-p3&quot;,&quot;molecule_id&quot;:&quot;img3-m29&quot;,&quot;atom_order&quot;:2}]}</metadata>
  <rect x="0" y="0" width="55" height="72" fill="#f8f0d8"/>
  <image href="file:///C:/Users/HHHES/AppData/Roaming/com.voynichlab.datasetcreator/images/1/35a70f63-88ab-4986-b441-b78046a10087.jpg" x="-1631" y="-751" width="2972" height="3766" opacity="0.92"/>
  <rect x="0.5" y="0.5" width="54" height="71" fill="none" stroke="#111827" stroke-width="1" opacity="0.35"/>
  <polyline points="16,56 17,56 18,56 18,55 19,55 20,55 20,54 21,54 22,54 22,53 23,53 24,53 24,52 25,52 26,52 27,51 28,51 29,50 30,50 30,49 31,49 31,48 32,48 33,47 33,46 34,46 34,45 35,45 35,44 36,44 36,43 36,42 37,42 37,41 38,40 38,39 39,38 39,37 39,36 39,35 39,34 39,33 39,32 39,31 39,30 39,29 39,28 38,28 38,27 38,26 37,25 37,24 37,23 36,23 36,22 35,21 35,20 34,20 34,19 33,19 33,18 32,18 32,17 31,17 31,16 30,16" fill="none" stroke="#00ff7f" stroke-width="3" stroke-linecap="round" stroke-linejoin="round" opacity="0.95">
    <title>1562 i:1</title>
  </polyline>
</svg>
