<?xml version="1.0" encoding="UTF-8"?>
<svg xmlns="http://www.w3.org/2000/svg" width="53" height="76" viewBox="0 0 53 76">
  <title>atom 1572 i:1</title>
  <metadata>{&quot;entityType&quot;:&quot;atom&quot;,&quot;entityId&quot;:&quot;1572&quot;,&quot;token&quot;:&quot;i:1&quot;,&quot;signature&quot;:&quot;i:1&quot;,&quot;imageName&quot;:&quot;page-003.jpg&quot;,&quot;imageId&quot;:3,&quot;bounds&quot;:{&quot;x&quot;:1829,&quot;y&quot;:764,&quot;w&quot;:53,&quot;h&quot;:76},&quot;atoms&quot;:[{&quot;id&quot;:1572,&quot;token&quot;:&quot;i:1&quot;,&quot;particle_id&quot;:&quot;img3-m30-p3&quot;,&quot;molecule_id&quot;:&quot;img3-m30&quot;,&quot;atom_order&quot;:3}]}</metadata>
  <rect x="0" y="0" width="53" height="76" fill="#f8f0d8"/>
  <image href="file:///C:/Users/HHHES/AppData/Roaming/com.voynichlab.datasetcreator/images/1/35a70f63-88ab-4986-b441-b78046a10087.jpg" x="-1829" y="-764" width="2972" height="3766" opacity="0.92"/>
  <rect x="0.5" y="0.5" width="52" height="75" fill="none" stroke="#111827" stroke-width="1" opacity="0.35"/>
  <polyline points="21,60 21,59 22,59 23,59 23,58 24,58 25,58 25,57 26,57 27,57 27,56 28,56 28,55 29,55 30,54 31,53 32,52 32,51 33,51 33,50 34,50 34,49 35,49 35,48 35,47 36,47 36,46 36,45 36,44 37,44 37,43 37,42 37,41 37,40 37,39 37,38 37,37 37,36 37,35 37,34 37,33 37,32 37,31 37,30 37,29 37,28 36,28 36,27 36,26 35,26 35,25 35,24 34,24 34,23 33,23 33,22 32,22 32,21 31,21 31,20 30,20 29,20 29,19 28,19 27,19 27,18 26,18 25,18 24,18 23,18 23,17 22,17 21,17 20,17 19,17 18,16 17,16 16,16" fill="none" stroke="#00ff7f" stroke-width="3" stroke-linecap="round" stroke-linejoin="round" opacity="0.95">
    <title>1572 i:1</title>
  </polyline>
</svg>
