<?xml version="1.0" encoding="UTF-8"?>
<svg xmlns="http://www.w3.org/2000/svg" width="49" height="75" viewBox="0 0 49 75">
  <title>atom 1586 i:1</title>
  <metadata>{&quot;entityType&quot;:&quot;atom&quot;,&quot;entityId&quot;:&quot;1586&quot;,&quot;token&quot;:&quot;i:1&quot;,&quot;signature&quot;:&quot;i:1&quot;,&quot;imageName&quot;:&quot;page-003.jpg&quot;,&quot;imageId&quot;:3,&quot;bounds&quot;:{&quot;x&quot;:2070,&quot;y&quot;:755,&quot;w&quot;:49,&quot;h&quot;:75},&quot;atoms&quot;:[{&quot;id&quot;:1586,&quot;token&quot;:&quot;i:1&quot;,&quot;particle_id&quot;:&quot;img3-m34-p4&quot;,&quot;molecule_id&quot;:&quot;img3-m34&quot;,&quot;atom_order&quot;:3}]}</metadata>
  <rect x="0" y="0" width="49" height="75" fill="#f8f0d8"/>
  <image href="file:///C:/Users/HHHES/AppData/Roaming/com.voynichlab.datasetcreator/images/1/35a70f63-88ab-4986-b441-b78046a10087.jpg" x="-2070" y="-755" width="2972" height="3766" opacity="0.92"/>
  <rect x="0.5" y="0.5" width="48" height="74" fill="none" stroke="#111827" stroke-width="1" opacity="0.35"/>
  <polyline points="16,59 17,59 17,58 18,58 19,58 19,57 20,57 20,56 21,56 21,55 22,55 22,54 23,54 24,54 24,53 25,53 25,52 26,52 26,51 27,50 27,49 28,49 28,48 29,47 29,46 30,46 30,45 30,44 31,44 31,43 31,42 32,42 32,41 32,40 33,39 33,38 33,37 33,36 33,35 33,34 33,33 33,32 32,31 32,30 32,29 32,28 31,28 31,27 30,27 30,26 30,25 29,25 29,24 29,23 28,23 28,22 28,21 27,21 27,20 26,20 25,19 24,18 23,18 22,18 22,17 21,17 20,17 19,17 19,16" fill="none" stroke="#00ff7f" stroke-width="3" stroke-linecap="round" stroke-linejoin="round" opacity="0.95">
    <title>1586 i:1</title>
  </polyline>
</svg>
