<?xml version="1.0" encoding="UTF-8"?>
<svg xmlns="http://www.w3.org/2000/svg" width="57" height="57" viewBox="0 0 57 57">
  <title>atom 1591 i:1</title>
  <metadata>{&quot;entityType&quot;:&quot;atom&quot;,&quot;entityId&quot;:&quot;1591&quot;,&quot;token&quot;:&quot;i:1&quot;,&quot;signature&quot;:&quot;i:1&quot;,&quot;imageName&quot;:&quot;page-003.jpg&quot;,&quot;imageId&quot;:3,&quot;bounds&quot;:{&quot;x&quot;:2165,&quot;y&quot;:751,&quot;w&quot;:57,&quot;h&quot;:57},&quot;atoms&quot;:[{&quot;id&quot;:1591,&quot;token&quot;:&quot;i:1&quot;,&quot;particle_id&quot;:&quot;img3-m31-p2&quot;,&quot;molecule_id&quot;:&quot;img3-m31&quot;,&quot;atom_order&quot;:2}]}</metadata>
  <rect x="0" y="0" width="57" height="57" fill="#f8f0d8"/>
  <image href="file:///C:/Users/HHHES/AppData/Roaming/com.voynichlab.datasetcreator/images/1/35a70f63-88ab-4986-b441-b78046a10087.jpg" x="-2165" y="-751" width="2972" height="3766" opacity="0.92"/>
  <rect x="0.5" y="0.5" width="56" height="56" fill="none" stroke="#111827" stroke-width="1" opacity="0.35"/>
  <polyline points="16,41 17,41 18,41 19,41 20,41 20,40 21,40 22,40 23,40 23,39 24,39 25,39 26,38 27,38 28,38 28,37 29,37 30,36 31,36 31,35 32,35 33,35 33,34 34,34 34,33 35,33 35,32 36,32 36,31 37,31 37,30 38,30 38,29 39,28 39,27 39,26 40,26 40,25 40,24 40,23 40,22 41,22 41,21 41,20 40,19 40,18 39,18 39,17 39,16 38,16" fill="none" stroke="#00ff7f" stroke-width="3" stroke-linecap="round" stroke-linejoin="round" opacity="0.95">
    <title>1591 i:1</title>
  </polyline>
</svg>
