<?xml version="1.0" encoding="UTF-8"?>
<svg xmlns="http://www.w3.org/2000/svg" width="53" height="81" viewBox="0 0 53 81">
  <title>atom 1655 i:1</title>
  <metadata>{&quot;entityType&quot;:&quot;atom&quot;,&quot;entityId&quot;:&quot;1655&quot;,&quot;token&quot;:&quot;i:1&quot;,&quot;signature&quot;:&quot;i:1&quot;,&quot;imageName&quot;:&quot;page-003.jpg&quot;,&quot;imageId&quot;:3,&quot;bounds&quot;:{&quot;x&quot;:1171,&quot;y&quot;:854,&quot;w&quot;:53,&quot;h&quot;:81},&quot;atoms&quot;:[{&quot;id&quot;:1655,&quot;token&quot;:&quot;i:1&quot;,&quot;particle_id&quot;:&quot;img3-m38-p3&quot;,&quot;molecule_id&quot;:&quot;img3-m38&quot;,&quot;atom_order&quot;:3}]}</metadata>
  <rect x="0" y="0" width="53" height="81" fill="#f8f0d8"/>
  <image href="file:///C:/Users/HHHES/AppData/Roaming/com.voynichlab.datasetcreator/images/1/35a70f63-88ab-4986-b441-b78046a10087.jpg" x="-1171" y="-854" width="2972" height="3766" opacity="0.92"/>
  <rect x="0.5" y="0.5" width="52" height="80" fill="none" stroke="#111827" stroke-width="1" opacity="0.35"/>
  <polyline points="20,65 21,65 22,65 22,64 23,64 24,64 25,64 25,63 26,63 27,62 28,62 28,61 29,61 29,60 30,60 30,59 31,59 31,58 31,57 32,57 32,56 33,56 33,55 34,55 34,54 34,53 35,53 35,52 35,51 36,50 36,49 36,48 36,47 37,47 37,46 37,45 37,44 37,43 37,42 37,41 37,40 37,39 37,38 36,38 36,37 35,36 35,35 34,35 34,34 34,33 34,32 33,32 33,31 33,30 32,30 32,29 31,28 31,27 30,27 30,26 29,26 29,25 28,24 27,23 26,22 25,22 25,21 24,21 24,20 23,20 22,19 21,19 20,18 19,18 18,18 18,17 17,17 16,16" fill="none" stroke="#00ff7f" stroke-width="3" stroke-linecap="round" stroke-linejoin="round" opacity="0.95">
    <title>1655 i:1</title>
  </polyline>
</svg>
