<?xml version="1.0" encoding="UTF-8"?>
<svg xmlns="http://www.w3.org/2000/svg" width="52" height="67" viewBox="0 0 52 67">
  <title>atom 1703 i:1</title>
  <metadata>{&quot;entityType&quot;:&quot;atom&quot;,&quot;entityId&quot;:&quot;1703&quot;,&quot;token&quot;:&quot;i:1&quot;,&quot;signature&quot;:&quot;i:1&quot;,&quot;imageName&quot;:&quot;page-003.jpg&quot;,&quot;imageId&quot;:3,&quot;bounds&quot;:{&quot;x&quot;:1393,&quot;y&quot;:843,&quot;w&quot;:52,&quot;h&quot;:67},&quot;atoms&quot;:[{&quot;id&quot;:1703,&quot;token&quot;:&quot;i:1&quot;,&quot;particle_id&quot;:&quot;img3-m39-p3&quot;,&quot;molecule_id&quot;:&quot;img3-m39&quot;,&quot;atom_order&quot;:2}]}</metadata>
  <rect x="0" y="0" width="52" height="67" fill="#f8f0d8"/>
  <image href="file:///C:/Users/HHHES/AppData/Roaming/com.voynichlab.datasetcreator/images/1/35a70f63-88ab-4986-b441-b78046a10087.jpg" x="-1393" y="-843" width="2972" height="3766" opacity="0.92"/>
  <rect x="0.5" y="0.5" width="51" height="66" fill="none" stroke="#111827" stroke-width="1" opacity="0.35"/>
  <polyline points="16,51 17,51 18,51 18,50 19,50 20,50 20,49 21,49 22,49 22,48 23,48 24,47 25,47 25,46 26,46 26,45 27,45 28,44 29,44 29,43 30,43 30,42 31,42 31,41 32,41 32,40 33,40 33,39 33,38 34,38 34,37 34,36 35,36 35,35 35,34 36,34 36,33 36,32 36,31 36,30 36,29 36,28 36,27 36,26 36,25 36,24 35,24 35,23 35,22 34,22 34,21 34,20 33,20 33,19 32,19 32,18 31,18 31,17 31,16 30,16" fill="none" stroke="#00ff7f" stroke-width="3" stroke-linecap="round" stroke-linejoin="round" opacity="0.95">
    <title>1703 i:1</title>
  </polyline>
</svg>
