<?xml version="1.0" encoding="UTF-8"?>
<svg xmlns="http://www.w3.org/2000/svg" width="57" height="82" viewBox="0 0 57 82">
  <title>atom 1721 i:1</title>
  <metadata>{&quot;entityType&quot;:&quot;atom&quot;,&quot;entityId&quot;:&quot;1721&quot;,&quot;token&quot;:&quot;i:1&quot;,&quot;signature&quot;:&quot;i:1&quot;,&quot;imageName&quot;:&quot;page-003.jpg&quot;,&quot;imageId&quot;:3,&quot;bounds&quot;:{&quot;x&quot;:1652,&quot;y&quot;:836,&quot;w&quot;:57,&quot;h&quot;:82},&quot;atoms&quot;:[{&quot;id&quot;:1721,&quot;token&quot;:&quot;i:1&quot;,&quot;particle_id&quot;:&quot;img3-m37-p3&quot;,&quot;molecule_id&quot;:&quot;img3-m37&quot;,&quot;atom_order&quot;:3}]}</metadata>
  <rect x="0" y="0" width="57" height="82" fill="#f8f0d8"/>
  <image href="file:///C:/Users/HHHES/AppData/Roaming/com.voynichlab.datasetcreator/images/1/35a70f63-88ab-4986-b441-b78046a10087.jpg" x="-1652" y="-836" width="2972" height="3766" opacity="0.92"/>
  <rect x="0.5" y="0.5" width="56" height="81" fill="none" stroke="#111827" stroke-width="1" opacity="0.35"/>
  <polyline points="16,66 17,66 17,65 18,65 19,65 19,64 20,64 21,64 21,63 22,63 23,63 23,62 24,62 25,62 25,61 26,61 27,61 27,60 28,60 29,59 30,59 30,58 31,58 32,57 33,57 33,56 34,56 34,55 35,55 35,54 36,54 36,53 37,52 37,51 38,51 38,50 38,49 39,49 39,48 39,47 40,47 40,46 40,45 40,44 41,44 41,43 41,42 41,41 41,40 41,39 41,38 41,37 41,36 41,35 41,34 41,33 40,33 40,32 40,31 39,31 39,30 39,29 38,28 38,27 37,26 37,25 36,25 36,24 35,24 35,23 34,23 34,22 33,22 33,21 32,21 32,20 31,20 31,19 30,19 29,19 29,18 28,18 27,17 26,17 25,16" fill="none" stroke="#00ff7f" stroke-width="3" stroke-linecap="round" stroke-linejoin="round" opacity="0.95">
    <title>1721 i:1</title>
  </polyline>
</svg>
