<?xml version="1.0" encoding="UTF-8"?>
<svg xmlns="http://www.w3.org/2000/svg" width="55" height="55" viewBox="0 0 55 55">
  <title>atom 1747 i:1</title>
  <metadata>{&quot;entityType&quot;:&quot;atom&quot;,&quot;entityId&quot;:&quot;1747&quot;,&quot;token&quot;:&quot;i:1&quot;,&quot;signature&quot;:&quot;i:1&quot;,&quot;imageName&quot;:&quot;page-003.jpg&quot;,&quot;imageId&quot;:3,&quot;bounds&quot;:{&quot;x&quot;:2165,&quot;y&quot;:839,&quot;w&quot;:55,&quot;h&quot;:55},&quot;atoms&quot;:[{&quot;id&quot;:1747,&quot;token&quot;:&quot;i:1&quot;,&quot;particle_id&quot;:&quot;img3-m40-p4&quot;,&quot;molecule_id&quot;:&quot;img3-m40&quot;,&quot;atom_order&quot;:2}]}</metadata>
  <rect x="0" y="0" width="55" height="55" fill="#f8f0d8"/>
  <image href="file:///C:/Users/HHHES/AppData/Roaming/com.voynichlab.datasetcreator/images/1/35a70f63-88ab-4986-b441-b78046a10087.jpg" x="-2165" y="-839" width="2972" height="3766" opacity="0.92"/>
  <rect x="0.5" y="0.5" width="54" height="54" fill="none" stroke="#111827" stroke-width="1" opacity="0.35"/>
  <polyline points="16,39 17,39 18,39 19,39 19,38 20,38 21,38 21,37 22,37 23,37 23,36 24,36 25,35 26,35 26,34 27,34 27,33 28,33 29,32 30,32 31,31 32,31 32,30 33,30 34,29 35,28 36,28 37,27 37,26 38,26 38,25 39,25 39,24 39,23 39,22 39,21 39,20 39,19 39,18 39,17 38,17 37,17 37,16 36,16 35,16" fill="none" stroke="#00ff7f" stroke-width="3" stroke-linecap="round" stroke-linejoin="round" opacity="0.95">
    <title>1747 i:1</title>
  </polyline>
</svg>
