<?xml version="1.0" encoding="UTF-8"?>
<svg xmlns="http://www.w3.org/2000/svg" width="50" height="79" viewBox="0 0 50 79">
  <title>atom 1769 i:1</title>
  <metadata>{&quot;entityType&quot;:&quot;atom&quot;,&quot;entityId&quot;:&quot;1769&quot;,&quot;token&quot;:&quot;i:1&quot;,&quot;signature&quot;:&quot;i:1&quot;,&quot;imageName&quot;:&quot;page-003.jpg&quot;,&quot;imageId&quot;:3,&quot;bounds&quot;:{&quot;x&quot;:863,&quot;y&quot;:1017,&quot;w&quot;:50,&quot;h&quot;:79},&quot;atoms&quot;:[{&quot;id&quot;:1769,&quot;token&quot;:&quot;i:1&quot;,&quot;particle_id&quot;:&quot;img3-m46-p4&quot;,&quot;molecule_id&quot;:&quot;img3-m46&quot;,&quot;atom_order&quot;:2}]}</metadata>
  <rect x="0" y="0" width="50" height="79" fill="#f8f0d8"/>
  <image href="file:///C:/Users/HHHES/AppData/Roaming/com.voynichlab.datasetcreator/images/1/35a70f63-88ab-4986-b441-b78046a10087.jpg" x="-863" y="-1017" width="2972" height="3766" opacity="0.92"/>
  <rect x="0.5" y="0.5" width="49" height="78" fill="none" stroke="#111827" stroke-width="1" opacity="0.35"/>
  <polyline points="16,63 23,62 26,61 26,60 27,60 27,59 28,59 28,58 29,58 29,57 29,56 30,56 30,55 30,54 31,54 31,53 31,52 31,51 31,50 32,50 32,49 32,48 32,47 32,46 33,46 33,45 33,44 33,43 33,42 34,42 34,41 34,40 34,39 34,38 34,37 34,36 34,35 34,34 34,33 34,32 34,31 34,30 33,30 33,29 33,28 32,28 32,27 31,26 31,25 30,24 30,23 29,23 29,22 28,22 28,21 27,21 27,20 26,20 26,19 25,19 24,18 23,18 23,17 22,17 22,16 21,16 20,16" fill="none" stroke="#00ff7f" stroke-width="3" stroke-linecap="round" stroke-linejoin="round" opacity="0.95">
    <title>1769 i:1</title>
  </polyline>
</svg>
