<?xml version="1.0" encoding="UTF-8"?>
<svg xmlns="http://www.w3.org/2000/svg" width="49" height="94" viewBox="0 0 49 94">
  <title>atom 1875 i:1</title>
  <metadata>{&quot;entityType&quot;:&quot;atom&quot;,&quot;entityId&quot;:&quot;1875&quot;,&quot;token&quot;:&quot;i:1&quot;,&quot;signature&quot;:&quot;i:1&quot;,&quot;imageName&quot;:&quot;page-003.jpg&quot;,&quot;imageId&quot;:3,&quot;bounds&quot;:{&quot;x&quot;:2044,&quot;y&quot;:1039,&quot;w&quot;:49,&quot;h&quot;:94},&quot;atoms&quot;:[{&quot;id&quot;:1875,&quot;token&quot;:&quot;i:1&quot;,&quot;particle_id&quot;:&quot;img3-m43-p4&quot;,&quot;molecule_id&quot;:&quot;img3-m43&quot;,&quot;atom_order&quot;:3}]}</metadata>
  <rect x="0" y="0" width="49" height="94" fill="#f8f0d8"/>
  <image href="file:///C:/Users/HHHES/AppData/Roaming/com.voynichlab.datasetcreator/images/1/35a70f63-88ab-4986-b441-b78046a10087.jpg" x="-2044" y="-1039" width="2972" height="3766" opacity="0.92"/>
  <rect x="0.5" y="0.5" width="48" height="93" fill="none" stroke="#111827" stroke-width="1" opacity="0.35"/>
  <polyline points="24,78 24,77 25,77 25,76 26,76 26,75 27,74 27,73 28,73 28,72 29,72 29,71 29,70 30,70 30,69 30,68 30,67 31,67 31,66 31,65 31,64 32,64 32,63 32,62 32,61 32,60 32,59 32,58 32,57 33,57 33,56 33,55 33,54 33,53 33,52 33,51 33,50 32,50 32,49 32,48 32,47 32,46 32,45 32,44 31,44 31,43 31,42 31,41 31,40 31,39 30,38 30,37 30,36 30,35 30,34 29,34 29,33 29,32 29,31 28,30 28,29 27,29 27,28 27,27 26,27 26,26 25,25 24,24 24,23 23,23 23,22 22,22 22,21 21,21 21,20 20,19 19,19 19,18 18,18 18,17 17,17 17,16 16,16" fill="none" stroke="#00ff7f" stroke-width="3" stroke-linecap="round" stroke-linejoin="round" opacity="0.95">
    <title>1875 i:1</title>
  </polyline>
</svg>
