<?xml version="1.0" encoding="UTF-8"?>
<svg xmlns="http://www.w3.org/2000/svg" width="52" height="70" viewBox="0 0 52 70">
  <title>atom 1995 i:1</title>
  <metadata>{&quot;entityType&quot;:&quot;atom&quot;,&quot;entityId&quot;:&quot;1995&quot;,&quot;token&quot;:&quot;i:1&quot;,&quot;signature&quot;:&quot;i:1&quot;,&quot;imageName&quot;:&quot;page-003.jpg&quot;,&quot;imageId&quot;:3,&quot;bounds&quot;:{&quot;x&quot;:2185,&quot;y&quot;:1133,&quot;w&quot;:52,&quot;h&quot;:70},&quot;atoms&quot;:[{&quot;id&quot;:1995,&quot;token&quot;:&quot;i:1&quot;,&quot;particle_id&quot;:&quot;img3-m57-p3&quot;,&quot;molecule_id&quot;:&quot;img3-m57&quot;,&quot;atom_order&quot;:2}]}</metadata>
  <rect x="0" y="0" width="52" height="70" fill="#f8f0d8"/>
  <image href="file:///C:/Users/HHHES/AppData/Roaming/com.voynichlab.datasetcreator/images/1/35a70f63-88ab-4986-b441-b78046a10087.jpg" x="-2185" y="-1133" width="2972" height="3766" opacity="0.92"/>
  <rect x="0.5" y="0.5" width="51" height="69" fill="none" stroke="#111827" stroke-width="1" opacity="0.35"/>
  <polyline points="16,54 17,54 18,54 19,54 20,54 21,54 21,53 22,53 23,53 24,52 25,52 25,51 26,51 27,51 27,50 28,50 29,50 29,49 30,49 30,48 31,48 31,47 32,47 32,46 33,46 33,45 33,44 34,44 34,43 35,42 35,41 36,41 36,40 36,39 36,38 36,37 36,36 36,35 36,34 36,33 36,32 36,31 36,30 35,30 35,29 35,28 34,27 34,26 33,25 33,24 32,24 32,23 31,23 31,22 30,22 30,21 29,21 29,20 28,20 28,19 27,19 27,18 26,18 25,17 24,17 24,16 23,16 22,16" fill="none" stroke="#00ff7f" stroke-width="3" stroke-linecap="round" stroke-linejoin="round" opacity="0.95">
    <title>1995 i:1</title>
  </polyline>
</svg>
