<?xml version="1.0" encoding="UTF-8"?>
<svg xmlns="http://www.w3.org/2000/svg" width="51" height="71" viewBox="0 0 51 71">
  <title>atom 2082 i:1</title>
  <metadata>{&quot;entityType&quot;:&quot;atom&quot;,&quot;entityId&quot;:&quot;2082&quot;,&quot;token&quot;:&quot;i:1&quot;,&quot;signature&quot;:&quot;i:1&quot;,&quot;imageName&quot;:&quot;page-003.jpg&quot;,&quot;imageId&quot;:3,&quot;bounds&quot;:{&quot;x&quot;:1942,&quot;y&quot;:1224,&quot;w&quot;:51,&quot;h&quot;:71},&quot;atoms&quot;:[{&quot;id&quot;:2082,&quot;token&quot;:&quot;i:1&quot;,&quot;particle_id&quot;:&quot;img3-m61-p3&quot;,&quot;molecule_id&quot;:&quot;img3-m61&quot;,&quot;atom_order&quot;:3}]}</metadata>
  <rect x="0" y="0" width="51" height="71" fill="#f8f0d8"/>
  <image href="file:///C:/Users/HHHES/AppData/Roaming/com.voynichlab.datasetcreator/images/1/35a70f63-88ab-4986-b441-b78046a10087.jpg" x="-1942" y="-1224" width="2972" height="3766" opacity="0.92"/>
  <rect x="0.5" y="0.5" width="50" height="70" fill="none" stroke="#111827" stroke-width="1" opacity="0.35"/>
  <polyline points="16,55 17,55 18,55 18,54 19,54 20,53 21,53 22,52 23,52 23,51 24,51 24,50 25,50 26,49 27,49 27,48 28,48 28,47 30,46 30,45 31,45 31,44 32,44 32,43 32,42 33,42 33,41 34,41 34,40 34,39 35,38 35,37 35,36 35,35 35,34 35,33 35,32 34,32 34,31 34,30 33,28 32,28 32,27 31,26 31,25 30,25 30,24 29,24 29,23 28,23 28,22 27,22 27,21 26,21 25,21 25,20 24,20 24,19 23,19 22,19 22,18 21,18 20,17 19,17 19,16 18,16" fill="none" stroke="#00ff7f" stroke-width="3" stroke-linecap="round" stroke-linejoin="round" opacity="0.95">
    <title>2082 i:1</title>
  </polyline>
</svg>
