<?xml version="1.0" encoding="UTF-8"?>
<svg xmlns="http://www.w3.org/2000/svg" width="65" height="87" viewBox="0 0 65 87">
  <title>atom 2122 i:1</title>
  <metadata>{&quot;entityType&quot;:&quot;atom&quot;,&quot;entityId&quot;:&quot;2122&quot;,&quot;token&quot;:&quot;i:1&quot;,&quot;signature&quot;:&quot;i:1&quot;,&quot;imageName&quot;:&quot;page-003.jpg&quot;,&quot;imageId&quot;:3,&quot;bounds&quot;:{&quot;x&quot;:777,&quot;y&quot;:1468,&quot;w&quot;:65,&quot;h&quot;:87},&quot;atoms&quot;:[{&quot;id&quot;:2122,&quot;token&quot;:&quot;i:1&quot;,&quot;particle_id&quot;:&quot;img3-m72-p4&quot;,&quot;molecule_id&quot;:&quot;img3-m72&quot;,&quot;atom_order&quot;:3}]}</metadata>
  <rect x="0" y="0" width="65" height="87" fill="#f8f0d8"/>
  <image href="file:///C:/Users/HHHES/AppData/Roaming/com.voynichlab.datasetcreator/images/1/35a70f63-88ab-4986-b441-b78046a10087.jpg" x="-777" y="-1468" width="2972" height="3766" opacity="0.92"/>
  <rect x="0.5" y="0.5" width="64" height="86" fill="none" stroke="#111827" stroke-width="1" opacity="0.35"/>
  <polyline points="35,71 36,71 36,70 37,70 38,70 39,70 39,69 40,69 40,68 41,68 41,67 42,67 43,66 44,66 44,65 45,64 45,63 46,63 46,62 47,62 47,61 47,60 48,60 48,59 48,58 49,57 49,56 49,55 49,54 49,53 49,52 49,51 49,50 48,50 48,49 48,48 48,47 47,47 47,46 47,45 47,44 46,44 46,43 45,42 45,41 44,40 44,39 43,39 43,38 43,37 42,37 42,36 41,35 40,34 39,33 38,32 38,31 37,31 37,30 36,30 36,29 35,29 35,28 34,27 34,26 33,26 33,25 32,25 31,24 30,24 30,23 29,23 28,22 27,22 27,21 26,21 26,20 25,20 25,19 24,19 23,19 23,18 22,18 21,18 20,17 19,17 18,16 17,16 16,16" fill="none" stroke="#00ff7f" stroke-width="3" stroke-linecap="round" stroke-linejoin="round" opacity="0.95">
    <title>2122 i:1</title>
  </polyline>
</svg>
