<?xml version="1.0" encoding="UTF-8"?>
<svg xmlns="http://www.w3.org/2000/svg" width="57" height="63" viewBox="0 0 57 63">
  <title>atom 2224 i:1</title>
  <metadata>{&quot;entityType&quot;:&quot;atom&quot;,&quot;entityId&quot;:&quot;2224&quot;,&quot;token&quot;:&quot;i:1&quot;,&quot;signature&quot;:&quot;i:1&quot;,&quot;imageName&quot;:&quot;page-003.jpg&quot;,&quot;imageId&quot;:3,&quot;bounds&quot;:{&quot;x&quot;:2331,&quot;y&quot;:1469,&quot;w&quot;:57,&quot;h&quot;:63},&quot;atoms&quot;:[{&quot;id&quot;:2224,&quot;token&quot;:&quot;i:1&quot;,&quot;particle_id&quot;:&quot;img3-m68-p7&quot;,&quot;molecule_id&quot;:&quot;img3-m68&quot;,&quot;atom_order&quot;:2}]}</metadata>
  <rect x="0" y="0" width="57" height="63" fill="#f8f0d8"/>
  <image href="file:///C:/Users/HHHES/AppData/Roaming/com.voynichlab.datasetcreator/images/1/35a70f63-88ab-4986-b441-b78046a10087.jpg" x="-2331" y="-1469" width="2972" height="3766" opacity="0.92"/>
  <rect x="0.5" y="0.5" width="56" height="62" fill="none" stroke="#111827" stroke-width="1" opacity="0.35"/>
  <polyline points="16,47 18,46 19,46 20,45 21,45 22,44 23,43 24,43 24,42 25,42 26,41 27,41 28,40 29,39 30,39 30,38 31,38 32,37 33,36 34,35 35,34 36,33 36,32 37,32 37,30 38,29 39,29 39,28 39,27 39,26 40,26 40,25 41,24 41,23 41,21 41,20 41,19 40,18 40,17 40,16 39,16" fill="none" stroke="#00ff7f" stroke-width="3" stroke-linecap="round" stroke-linejoin="round" opacity="0.95">
    <title>2224 i:1</title>
  </polyline>
</svg>
