<?xml version="1.0" encoding="UTF-8"?>
<svg xmlns="http://www.w3.org/2000/svg" width="51" height="82" viewBox="0 0 51 82">
  <title>atom 2262 i:1</title>
  <metadata>{&quot;entityType&quot;:&quot;atom&quot;,&quot;entityId&quot;:&quot;2262&quot;,&quot;token&quot;:&quot;i:1&quot;,&quot;signature&quot;:&quot;i:1&quot;,&quot;imageName&quot;:&quot;page-003.jpg&quot;,&quot;imageId&quot;:3,&quot;bounds&quot;:{&quot;x&quot;:1195,&quot;y&quot;:1554,&quot;w&quot;:51,&quot;h&quot;:82},&quot;atoms&quot;:[{&quot;id&quot;:2262,&quot;token&quot;:&quot;i:1&quot;,&quot;particle_id&quot;:&quot;img3-m79-p5&quot;,&quot;molecule_id&quot;:&quot;img3-m79&quot;,&quot;atom_order&quot;:3}]}</metadata>
  <rect x="0" y="0" width="51" height="82" fill="#f8f0d8"/>
  <image href="file:///C:/Users/HHHES/AppData/Roaming/com.voynichlab.datasetcreator/images/1/35a70f63-88ab-4986-b441-b78046a10087.jpg" x="-1195" y="-1554" width="2972" height="3766" opacity="0.92"/>
  <rect x="0.5" y="0.5" width="50" height="81" fill="none" stroke="#111827" stroke-width="1" opacity="0.35"/>
  <polyline points="16,66 17,66 17,65 18,65 19,65 19,64 20,64 20,63 21,63 22,62 23,62 23,61 24,61 24,60 25,60 25,59 26,59 27,58 27,57 28,57 28,56 29,56 29,55 30,55 30,54 31,54 31,53 32,52 32,51 33,51 33,50 33,49 34,48 34,47 34,46 35,46 35,45 35,44 35,43 35,42 35,41 35,40 35,39 35,38 35,37 34,36 34,35 34,34 33,34 33,33 33,32 32,31 32,30 31,30 31,29 31,28 30,28 30,27 29,26 29,25 28,25 28,24 27,24 27,23 26,23 26,22 25,22 25,21 24,21 24,20 23,20 22,19 21,19 21,18 20,18 20,17 19,17 18,17 18,16 17,16" fill="none" stroke="#00ff7f" stroke-width="3" stroke-linecap="round" stroke-linejoin="round" opacity="0.95">
    <title>2262 i:1</title>
  </polyline>
</svg>
