<?xml version="1.0" encoding="UTF-8"?>
<svg xmlns="http://www.w3.org/2000/svg" width="47" height="69" viewBox="0 0 47 69">
  <title>atom 2278 i:1</title>
  <metadata>{&quot;entityType&quot;:&quot;atom&quot;,&quot;entityId&quot;:&quot;2278&quot;,&quot;token&quot;:&quot;i:1&quot;,&quot;signature&quot;:&quot;i:1&quot;,&quot;imageName&quot;:&quot;page-003.jpg&quot;,&quot;imageId&quot;:3,&quot;bounds&quot;:{&quot;x&quot;:1637,&quot;y&quot;:1571,&quot;w&quot;:47,&quot;h&quot;:69},&quot;atoms&quot;:[{&quot;id&quot;:2278,&quot;token&quot;:&quot;i:1&quot;,&quot;particle_id&quot;:&quot;img3-m76-p3&quot;,&quot;molecule_id&quot;:&quot;img3-m76&quot;,&quot;atom_order&quot;:4}]}</metadata>
  <rect x="0" y="0" width="47" height="69" fill="#f8f0d8"/>
  <image href="file:///C:/Users/HHHES/AppData/Roaming/com.voynichlab.datasetcreator/images/1/35a70f63-88ab-4986-b441-b78046a10087.jpg" x="-1637" y="-1571" width="2972" height="3766" opacity="0.92"/>
  <rect x="0.5" y="0.5" width="46" height="68" fill="none" stroke="#111827" stroke-width="1" opacity="0.35"/>
  <polyline points="16,53 17,52 18,52 19,52 19,51 20,51 20,50 21,50 21,49 22,49 23,49 23,48 24,48 24,47 25,46 25,45 26,45 26,44 27,44 27,43 27,42 28,42 28,41 29,40 29,39 29,38 30,38 30,37 30,36 30,35 30,34 31,34 31,33 31,32 31,31 31,30 31,29 31,28 30,27 30,26 30,25 29,24 29,23 28,23 28,22 27,21 27,20 26,20 26,19 25,19 25,18 24,18 24,17 23,17 23,16" fill="none" stroke="#00ff7f" stroke-width="3" stroke-linecap="round" stroke-linejoin="round" opacity="0.95">
    <title>2278 i:1</title>
  </polyline>
</svg>
