<?xml version="1.0" encoding="UTF-8"?>
<svg xmlns="http://www.w3.org/2000/svg" width="53" height="75" viewBox="0 0 53 75">
  <title>atom 2305 i:1</title>
  <metadata>{&quot;entityType&quot;:&quot;atom&quot;,&quot;entityId&quot;:&quot;2305&quot;,&quot;token&quot;:&quot;i:1&quot;,&quot;signature&quot;:&quot;i:1&quot;,&quot;imageName&quot;:&quot;page-003.jpg&quot;,&quot;imageId&quot;:3,&quot;bounds&quot;:{&quot;x&quot;:1917,&quot;y&quot;:1567,&quot;w&quot;:53,&quot;h&quot;:75},&quot;atoms&quot;:[{&quot;id&quot;:2305,&quot;token&quot;:&quot;i:1&quot;,&quot;particle_id&quot;:&quot;img3-m78-p6&quot;,&quot;molecule_id&quot;:&quot;img3-m78&quot;,&quot;atom_order&quot;:3}]}</metadata>
  <rect x="0" y="0" width="53" height="75" fill="#f8f0d8"/>
  <image href="file:///C:/Users/HHHES/AppData/Roaming/com.voynichlab.datasetcreator/images/1/35a70f63-88ab-4986-b441-b78046a10087.jpg" x="-1917" y="-1567" width="2972" height="3766" opacity="0.92"/>
  <rect x="0.5" y="0.5" width="52" height="74" fill="none" stroke="#111827" stroke-width="1" opacity="0.35"/>
  <polyline points="20,59 21,59 22,59 23,59 23,58 24,58 24,57 25,57 26,57 27,57 27,56 28,56 29,56 29,55 30,55 30,54 31,54 31,53 32,53 32,52 33,51 33,50 34,50 34,49 34,48 35,48 35,47 35,46 36,46 36,45 36,44 36,43 37,43 37,42 37,41 37,40 37,39 37,38 37,37 37,36 37,35 37,34 37,33 37,32 36,31 36,30 35,30 35,29 35,28 34,28 34,27 33,26 33,25 32,25 32,24 31,24 31,23 30,23 29,23 29,22 28,22 28,21 27,21 26,20 25,20 24,19 23,19 22,19 22,18 21,18 20,18 20,17 19,17 18,17 17,16 16,16" fill="none" stroke="#00ff7f" stroke-width="3" stroke-linecap="round" stroke-linejoin="round" opacity="0.95">
    <title>2305 i:1</title>
  </polyline>
</svg>
