<?xml version="1.0" encoding="UTF-8"?>
<svg xmlns="http://www.w3.org/2000/svg" width="46" height="62" viewBox="0 0 46 62">
  <title>atom 2326 i:1</title>
  <metadata>{&quot;entityType&quot;:&quot;atom&quot;,&quot;entityId&quot;:&quot;2326&quot;,&quot;token&quot;:&quot;i:1&quot;,&quot;signature&quot;:&quot;i:1&quot;,&quot;imageName&quot;:&quot;page-003.jpg&quot;,&quot;imageId&quot;:3,&quot;bounds&quot;:{&quot;x&quot;:2325,&quot;y&quot;:1575,&quot;w&quot;:46,&quot;h&quot;:62},&quot;atoms&quot;:[{&quot;id&quot;:2326,&quot;token&quot;:&quot;i:1&quot;,&quot;particle_id&quot;:&quot;img3-m74-p3&quot;,&quot;molecule_id&quot;:&quot;img3-m74&quot;,&quot;atom_order&quot;:3}]}</metadata>
  <rect x="0" y="0" width="46" height="62" fill="#f8f0d8"/>
  <image href="file:///C:/Users/HHHES/AppData/Roaming/com.voynichlab.datasetcreator/images/1/35a70f63-88ab-4986-b441-b78046a10087.jpg" x="-2325" y="-1575" width="2972" height="3766" opacity="0.92"/>
  <rect x="0.5" y="0.5" width="45" height="61" fill="none" stroke="#111827" stroke-width="1" opacity="0.35"/>
  <polyline points="16,46 18,45 19,44 20,44 21,43 22,42 23,42 23,41 24,39 27,34 28,31 28,30 28,29 29,29 29,28 29,27 29,26 30,26 30,25 30,24 30,23 30,22 30,21 30,20 29,19 29,18 28,18 28,17 28,16 27,16" fill="none" stroke="#00ff7f" stroke-width="3" stroke-linecap="round" stroke-linejoin="round" opacity="0.95">
    <title>2326 i:1</title>
  </polyline>
</svg>
