<?xml version="1.0" encoding="UTF-8"?>
<svg xmlns="http://www.w3.org/2000/svg" width="50" height="79" viewBox="0 0 50 79">
  <title>atom 2376 i:1</title>
  <metadata>{&quot;entityType&quot;:&quot;atom&quot;,&quot;entityId&quot;:&quot;2376&quot;,&quot;token&quot;:&quot;i:1&quot;,&quot;signature&quot;:&quot;i:1&quot;,&quot;imageName&quot;:&quot;page-003.jpg&quot;,&quot;imageId&quot;:3,&quot;bounds&quot;:{&quot;x&quot;:1185,&quot;y&quot;:1655,&quot;w&quot;:50,&quot;h&quot;:79},&quot;atoms&quot;:[{&quot;id&quot;:2376,&quot;token&quot;:&quot;i:1&quot;,&quot;particle_id&quot;:&quot;img3-m81-p5&quot;,&quot;molecule_id&quot;:&quot;img3-m81&quot;,&quot;atom_order&quot;:3}]}</metadata>
  <rect x="0" y="0" width="50" height="79" fill="#f8f0d8"/>
  <image href="file:///C:/Users/HHHES/AppData/Roaming/com.voynichlab.datasetcreator/images/1/35a70f63-88ab-4986-b441-b78046a10087.jpg" x="-1185" y="-1655" width="2972" height="3766" opacity="0.92"/>
  <rect x="0.5" y="0.5" width="49" height="78" fill="none" stroke="#111827" stroke-width="1" opacity="0.35"/>
  <polyline points="21,63 22,63 22,62 23,62 23,61 24,61 25,61 25,60 26,60 26,59 27,59 27,58 28,58 28,57 29,57 29,56 30,56 30,55 31,55 31,54 32,53 32,52 33,52 33,51 33,50 34,50 34,49 34,48 34,47 34,46 34,45 34,44 34,43 34,42 34,41 34,40 34,39 34,38 34,37 34,36 34,35 34,34 33,34 33,33 33,32 32,32 32,31 31,31 31,30 31,29 30,29 30,28 29,28 29,27 29,26 28,26 28,25 27,25 27,24 26,24 26,23 25,23 25,22 24,22 23,21 22,20 21,20 21,19 20,19 20,18 19,18 18,17 17,17 16,16" fill="none" stroke="#00ff7f" stroke-width="3" stroke-linecap="round" stroke-linejoin="round" opacity="0.95">
    <title>2376 i:1</title>
  </polyline>
</svg>
