<?xml version="1.0" encoding="UTF-8"?>
<svg xmlns="http://www.w3.org/2000/svg" width="49" height="47" viewBox="0 0 49 47">
  <title>atom 2417 i:1</title>
  <metadata>{&quot;entityType&quot;:&quot;atom&quot;,&quot;entityId&quot;:&quot;2417&quot;,&quot;token&quot;:&quot;i:1&quot;,&quot;signature&quot;:&quot;i:1&quot;,&quot;imageName&quot;:&quot;page-003.jpg&quot;,&quot;imageId&quot;:3,&quot;bounds&quot;:{&quot;x&quot;:1696,&quot;y&quot;:1684,&quot;w&quot;:49,&quot;h&quot;:47},&quot;atoms&quot;:[{&quot;id&quot;:2417,&quot;token&quot;:&quot;i:1&quot;,&quot;particle_id&quot;:&quot;img3-m82-p6&quot;,&quot;molecule_id&quot;:&quot;img3-m82&quot;,&quot;atom_order&quot;:2}]}</metadata>
  <rect x="0" y="0" width="49" height="47" fill="#f8f0d8"/>
  <image href="file:///C:/Users/HHHES/AppData/Roaming/com.voynichlab.datasetcreator/images/1/35a70f63-88ab-4986-b441-b78046a10087.jpg" x="-1696" y="-1684" width="2972" height="3766" opacity="0.92"/>
  <rect x="0.5" y="0.5" width="48" height="46" fill="none" stroke="#111827" stroke-width="1" opacity="0.35"/>
  <polyline points="16,31 17,31 18,31 19,31 19,30 20,30 20,29 21,29 22,29 23,29 23,28 24,28 25,28 25,27 26,27 26,26 27,26 28,25 29,25 29,24 29,23 30,23 30,22 31,22 31,21 31,20 31,19 32,19 32,18 32,17 33,17 33,16" fill="none" stroke="#00ff7f" stroke-width="3" stroke-linecap="round" stroke-linejoin="round" opacity="0.95">
    <title>2417 i:1</title>
  </polyline>
</svg>
