<?xml version="1.0" encoding="UTF-8"?>
<svg xmlns="http://www.w3.org/2000/svg" width="49" height="73" viewBox="0 0 49 73">
  <title>atom 2456 i:1</title>
  <metadata>{&quot;entityType&quot;:&quot;atom&quot;,&quot;entityId&quot;:&quot;2456&quot;,&quot;token&quot;:&quot;i:1&quot;,&quot;signature&quot;:&quot;i:1&quot;,&quot;imageName&quot;:&quot;page-003.jpg&quot;,&quot;imageId&quot;:3,&quot;bounds&quot;:{&quot;x&quot;:2291,&quot;y&quot;:1660,&quot;w&quot;:49,&quot;h&quot;:73},&quot;atoms&quot;:[{&quot;id&quot;:2456,&quot;token&quot;:&quot;i:1&quot;,&quot;particle_id&quot;:&quot;img3-m87-p5&quot;,&quot;molecule_id&quot;:&quot;img3-m87&quot;,&quot;atom_order&quot;:3}]}</metadata>
  <rect x="0" y="0" width="49" height="73" fill="#f8f0d8"/>
  <image href="file:///C:/Users/HHHES/AppData/Roaming/com.voynichlab.datasetcreator/images/1/35a70f63-88ab-4986-b441-b78046a10087.jpg" x="-2291" y="-1660" width="2972" height="3766" opacity="0.92"/>
  <rect x="0.5" y="0.5" width="48" height="72" fill="none" stroke="#111827" stroke-width="1" opacity="0.35"/>
  <polyline points="16,57 17,57 18,57 18,56 19,55 25,51 27,49 28,49 28,48 29,48 29,47 30,47 30,46 30,45 31,45 31,44 32,43 32,42 32,41 33,41 33,40 33,39 33,38 33,37 33,36 33,35 33,34 33,33 33,32 32,32 32,31 32,30 31,29 31,28 30,27 30,26 29,26 29,25 29,24 28,24 28,23 27,23 27,22 26,22 26,21 25,20 25,19 24,19 24,18 23,18 22,17 21,16" fill="none" stroke="#00ff7f" stroke-width="3" stroke-linecap="round" stroke-linejoin="round" opacity="0.95">
    <title>2456 i:1</title>
  </polyline>
</svg>
