<?xml version="1.0" encoding="UTF-8"?>
<svg xmlns="http://www.w3.org/2000/svg" width="45" height="64" viewBox="0 0 45 64">
  <title>atom 2506 i:1</title>
  <metadata>{&quot;entityType&quot;:&quot;atom&quot;,&quot;entityId&quot;:&quot;2506&quot;,&quot;token&quot;:&quot;i:1&quot;,&quot;signature&quot;:&quot;i:1&quot;,&quot;imageName&quot;:&quot;page-003.jpg&quot;,&quot;imageId&quot;:3,&quot;bounds&quot;:{&quot;x&quot;:2035,&quot;y&quot;:1756,&quot;w&quot;:45,&quot;h&quot;:64},&quot;atoms&quot;:[{&quot;id&quot;:2506,&quot;token&quot;:&quot;i:1&quot;,&quot;particle_id&quot;:&quot;img3-m92-p3&quot;,&quot;molecule_id&quot;:&quot;img3-m92&quot;,&quot;atom_order&quot;:2}]}</metadata>
  <rect x="0" y="0" width="45" height="64" fill="#f8f0d8"/>
  <image href="file:///C:/Users/HHHES/AppData/Roaming/com.voynichlab.datasetcreator/images/1/35a70f63-88ab-4986-b441-b78046a10087.jpg" x="-2035" y="-1756" width="2972" height="3766" opacity="0.92"/>
  <rect x="0.5" y="0.5" width="44" height="63" fill="none" stroke="#111827" stroke-width="1" opacity="0.35"/>
  <polyline points="16,48 17,48 17,47 18,47 19,47 20,46 21,46 22,45 22,44 23,44 23,43 24,43 24,42 24,41 25,41 25,40 25,39 26,39 26,38 27,38 27,37 27,36 28,36 28,35 29,35 29,34 29,33 29,32 29,31 29,30 29,29 29,28 29,27 29,26 29,25 29,24 29,23 28,22 28,21 27,21 27,20 26,20 25,19 24,19 24,18 23,18 23,17 22,17 21,17 21,16 20,16" fill="none" stroke="#00ff7f" stroke-width="3" stroke-linecap="round" stroke-linejoin="round" opacity="0.95">
    <title>2506 i:1</title>
  </polyline>
</svg>
