<?xml version="1.0" encoding="UTF-8"?>
<svg xmlns="http://www.w3.org/2000/svg" width="48" height="60" viewBox="0 0 48 60">
  <title>atom 2515 i:1</title>
  <metadata>{&quot;entityType&quot;:&quot;atom&quot;,&quot;entityId&quot;:&quot;2515&quot;,&quot;token&quot;:&quot;i:1&quot;,&quot;signature&quot;:&quot;i:1&quot;,&quot;imageName&quot;:&quot;page-003.jpg&quot;,&quot;imageId&quot;:3,&quot;bounds&quot;:{&quot;x&quot;:1881,&quot;y&quot;:1757,&quot;w&quot;:48,&quot;h&quot;:60},&quot;atoms&quot;:[{&quot;id&quot;:2515,&quot;token&quot;:&quot;i:1&quot;,&quot;particle_id&quot;:&quot;img3-m98-p4&quot;,&quot;molecule_id&quot;:&quot;img3-m98&quot;,&quot;atom_order&quot;:3}]}</metadata>
  <rect x="0" y="0" width="48" height="60" fill="#f8f0d8"/>
  <image href="file:///C:/Users/HHHES/AppData/Roaming/com.voynichlab.datasetcreator/images/1/35a70f63-88ab-4986-b441-b78046a10087.jpg" x="-1881" y="-1757" width="2972" height="3766" opacity="0.92"/>
  <rect x="0.5" y="0.5" width="47" height="59" fill="none" stroke="#111827" stroke-width="1" opacity="0.35"/>
  <polyline points="16,44 17,44 18,44 18,43 19,43 20,43 20,42 21,42 22,42 22,41 23,41 24,41 24,40 25,39 26,39 26,38 27,38 27,37 28,37 28,36 29,36 29,35 30,35 30,34 31,34 31,33 31,32 32,32 32,31 32,30 32,29 32,28 32,27 32,26 32,25 32,24 32,23 32,22 31,22 31,21 30,20 29,19 29,18 28,18 27,17 26,17 26,16 25,16" fill="none" stroke="#00ff7f" stroke-width="3" stroke-linecap="round" stroke-linejoin="round" opacity="0.95">
    <title>2515 i:1</title>
  </polyline>
</svg>
