<?xml version="1.0" encoding="UTF-8"?>
<svg xmlns="http://www.w3.org/2000/svg" width="43" height="71" viewBox="0 0 43 71">
  <title>atom 2591 i:1</title>
  <metadata>{&quot;entityType&quot;:&quot;atom&quot;,&quot;entityId&quot;:&quot;2591&quot;,&quot;token&quot;:&quot;i:1&quot;,&quot;signature&quot;:&quot;i:1&quot;,&quot;imageName&quot;:&quot;page-003.jpg&quot;,&quot;imageId&quot;:3,&quot;bounds&quot;:{&quot;x&quot;:801,&quot;y&quot;:1744,&quot;w&quot;:43,&quot;h&quot;:71},&quot;atoms&quot;:[{&quot;id&quot;:2591,&quot;token&quot;:&quot;i:1&quot;,&quot;particle_id&quot;:&quot;img3-m93-p2&quot;,&quot;molecule_id&quot;:&quot;img3-m93&quot;,&quot;atom_order&quot;:3}]}</metadata>
  <rect x="0" y="0" width="43" height="71" fill="#f8f0d8"/>
  <image href="file:///C:/Users/HHHES/AppData/Roaming/com.voynichlab.datasetcreator/images/1/35a70f63-88ab-4986-b441-b78046a10087.jpg" x="-801" y="-1744" width="2972" height="3766" opacity="0.92"/>
  <rect x="0.5" y="0.5" width="42" height="70" fill="none" stroke="#111827" stroke-width="1" opacity="0.35"/>
  <polyline points="18,55 19,55 19,54 20,53 21,53 21,52 22,52 22,51 23,51 23,50 24,49 24,48 25,48 25,47 25,46 26,46 26,45 26,44 27,44 27,43 27,42 27,41 27,40 27,39 27,38 27,37 27,36 27,35 27,34 27,33 27,32 27,31 27,30 27,29 26,29 26,28 26,27 25,26 25,25 25,24 24,24 24,23 24,22 23,22 23,21 22,21 22,20 21,20 20,19 19,19 19,18 18,18 18,17 17,17 16,17 16,16" fill="none" stroke="#00ff7f" stroke-width="3" stroke-linecap="round" stroke-linejoin="round" opacity="0.95">
    <title>2591 i:1</title>
  </polyline>
</svg>
