<?xml version="1.0" encoding="UTF-8"?>
<svg xmlns="http://www.w3.org/2000/svg" width="47" height="75" viewBox="0 0 47 75">
  <title>atom 2592 i:1</title>
  <metadata>{&quot;entityType&quot;:&quot;atom&quot;,&quot;entityId&quot;:&quot;2592&quot;,&quot;token&quot;:&quot;i:1&quot;,&quot;signature&quot;:&quot;i:1&quot;,&quot;imageName&quot;:&quot;page-003.jpg&quot;,&quot;imageId&quot;:3,&quot;bounds&quot;:{&quot;x&quot;:650,&quot;y&quot;:1748,&quot;w&quot;:47,&quot;h&quot;:75},&quot;atoms&quot;:[{&quot;id&quot;:2592,&quot;token&quot;:&quot;i:1&quot;,&quot;particle_id&quot;:&quot;img3-m91-p3&quot;,&quot;molecule_id&quot;:&quot;img3-m91&quot;,&quot;atom_order&quot;:3}]}</metadata>
  <rect x="0" y="0" width="47" height="75" fill="#f8f0d8"/>
  <image href="file:///C:/Users/HHHES/AppData/Roaming/com.voynichlab.datasetcreator/images/1/35a70f63-88ab-4986-b441-b78046a10087.jpg" x="-650" y="-1748" width="2972" height="3766" opacity="0.92"/>
  <rect x="0.5" y="0.5" width="46" height="74" fill="none" stroke="#111827" stroke-width="1" opacity="0.35"/>
  <polyline points="16,59 17,59 17,58 18,58 18,57 19,57 19,56 20,56 21,56 21,55 22,55 22,54 23,54 23,53 24,53 24,52 24,51 25,51 25,50 26,49 26,48 27,48 27,47 27,46 28,46 28,45 28,44 29,44 29,43 29,42 29,41 29,40 29,39 30,38 30,37 30,36 30,35 30,34 30,33 31,33 31,32 31,31 31,30 31,29 31,28 31,27 31,26 31,25 31,24 30,24 30,23 30,22 30,21 29,21 29,20 28,19 28,18 27,18 27,17 26,17 26,16" fill="none" stroke="#00ff7f" stroke-width="3" stroke-linecap="round" stroke-linejoin="round" opacity="0.95">
    <title>2592 i:1</title>
  </polyline>
</svg>
