<?xml version="1.0" encoding="UTF-8"?>
<svg xmlns="http://www.w3.org/2000/svg" width="58" height="61" viewBox="0 0 58 61">
  <title>atom 3195 i:1</title>
  <metadata>{&quot;entityType&quot;:&quot;atom&quot;,&quot;entityId&quot;:&quot;3195&quot;,&quot;token&quot;:&quot;i:1&quot;,&quot;signature&quot;:&quot;i:1&quot;,&quot;imageName&quot;:&quot;page-003.jpg&quot;,&quot;imageId&quot;:3,&quot;bounds&quot;:{&quot;x&quot;:2102,&quot;y&quot;:1829,&quot;w&quot;:58,&quot;h&quot;:61},&quot;atoms&quot;:[{&quot;id&quot;:3195,&quot;token&quot;:&quot;i:1&quot;,&quot;particle_id&quot;:&quot;img3-m101-p3&quot;,&quot;molecule_id&quot;:&quot;img3-m101&quot;,&quot;atom_order&quot;:2}]}</metadata>
  <rect x="0" y="0" width="58" height="61" fill="#f8f0d8"/>
  <image href="file:///C:/Users/HHHES/AppData/Roaming/com.voynichlab.datasetcreator/images/1/35a70f63-88ab-4986-b441-b78046a10087.jpg" x="-2102" y="-1829" width="2972" height="3766" opacity="0.92"/>
  <rect x="0.5" y="0.5" width="57" height="60" fill="none" stroke="#111827" stroke-width="1" opacity="0.35"/>
  <polyline points="16,45 17,45 18,45 19,45 20,45 21,45 22,45 23,45 23,44 24,44 25,44 26,44 26,43 27,43 28,43 29,43 29,42 30,42 31,42 31,41 32,41 33,41 33,40 34,40 34,39 35,39 36,39 36,38 37,38 37,37 38,36 39,35 39,34 40,34 40,33 41,33 41,32 41,31 42,31 42,30 42,29 42,28 42,27 42,26 42,25 42,24 42,23 42,22 42,21 42,20 42,19 42,18 42,17 41,17 40,16 39,16" fill="none" stroke="#00ff7f" stroke-width="3" stroke-linecap="round" stroke-linejoin="round" opacity="0.95">
    <title>3195 i:1</title>
  </polyline>
</svg>
