<?xml version="1.0" encoding="UTF-8"?>
<svg xmlns="http://www.w3.org/2000/svg" width="46" height="73" viewBox="0 0 46 73">
  <title>atom 3286 i:1</title>
  <metadata>{&quot;entityType&quot;:&quot;atom&quot;,&quot;entityId&quot;:&quot;3286&quot;,&quot;token&quot;:&quot;i:1&quot;,&quot;signature&quot;:&quot;i:1&quot;,&quot;imageName&quot;:&quot;page-003.jpg&quot;,&quot;imageId&quot;:3,&quot;bounds&quot;:{&quot;x&quot;:1052,&quot;y&quot;:1896,&quot;w&quot;:46,&quot;h&quot;:73},&quot;atoms&quot;:[{&quot;id&quot;:3286,&quot;token&quot;:&quot;i:1&quot;,&quot;particle_id&quot;:&quot;img3-m114-p5&quot;,&quot;molecule_id&quot;:&quot;img3-m114&quot;,&quot;atom_order&quot;:2}]}</metadata>
  <rect x="0" y="0" width="46" height="73" fill="#f8f0d8"/>
  <image href="file:///C:/Users/HHHES/AppData/Roaming/com.voynichlab.datasetcreator/images/1/35a70f63-88ab-4986-b441-b78046a10087.jpg" x="-1052" y="-1896" width="2972" height="3766" opacity="0.92"/>
  <rect x="0.5" y="0.5" width="45" height="72" fill="none" stroke="#111827" stroke-width="1" opacity="0.35"/>
  <polyline points="16,57 16,56 17,56 18,56 18,55 19,55 19,54 20,54 21,54 21,53 21,52 22,52 22,51 23,51 23,50 24,50 24,49 25,48 26,47 26,46 27,46 27,45 27,44 28,44 28,43 28,42 29,42 29,41 29,40 29,39 30,39 30,38 30,37 30,36 30,35 30,34 30,33 30,32 30,31 30,30 30,29 30,28 30,27 30,26 30,25 29,25 29,24 29,23 29,22 28,22 27,21 26,20 25,19 24,19 24,18 23,18 22,18 22,17 21,17 20,17 20,16" fill="none" stroke="#00ff7f" stroke-width="3" stroke-linecap="round" stroke-linejoin="round" opacity="0.95">
    <title>3286 i:1</title>
  </polyline>
</svg>
