<?xml version="1.0" encoding="UTF-8"?>
<svg xmlns="http://www.w3.org/2000/svg" width="53" height="60" viewBox="0 0 53 60">
  <title>atom 3287 i:1</title>
  <metadata>{&quot;entityType&quot;:&quot;atom&quot;,&quot;entityId&quot;:&quot;3287&quot;,&quot;token&quot;:&quot;i:1&quot;,&quot;signature&quot;:&quot;i:1&quot;,&quot;imageName&quot;:&quot;page-003.jpg&quot;,&quot;imageId&quot;:3,&quot;bounds&quot;:{&quot;x&quot;:1584,&quot;y&quot;:1899,&quot;w&quot;:53,&quot;h&quot;:60},&quot;atoms&quot;:[{&quot;id&quot;:3287,&quot;token&quot;:&quot;i:1&quot;,&quot;particle_id&quot;:&quot;img3-m112-p3&quot;,&quot;molecule_id&quot;:&quot;img3-m112&quot;,&quot;atom_order&quot;:2}]}</metadata>
  <rect x="0" y="0" width="53" height="60" fill="#f8f0d8"/>
  <image href="file:///C:/Users/HHHES/AppData/Roaming/com.voynichlab.datasetcreator/images/1/35a70f63-88ab-4986-b441-b78046a10087.jpg" x="-1584" y="-1899" width="2972" height="3766" opacity="0.92"/>
  <rect x="0.5" y="0.5" width="52" height="59" fill="none" stroke="#111827" stroke-width="1" opacity="0.35"/>
  <polyline points="16,44 17,44 18,44 19,44 20,44 21,44 21,43 22,43 23,43 24,43 24,42 25,42 26,42 26,41 27,41 28,41 28,40 29,40 30,39 31,39 31,38 32,38 33,37 33,36 34,36 34,35 35,35 35,34 36,34 36,33 36,32 37,31 37,30 37,29 37,28 37,27 37,26 37,25 37,24 37,23 37,22 37,21 37,20 36,20 36,19 35,19 34,19 34,18 33,18 33,17 32,17 31,17 31,16" fill="none" stroke="#00ff7f" stroke-width="3" stroke-linecap="round" stroke-linejoin="round" opacity="0.95">
    <title>3287 i:1</title>
  </polyline>
</svg>
