<?xml version="1.0" encoding="UTF-8"?>
<svg xmlns="http://www.w3.org/2000/svg" width="61" height="74" viewBox="0 0 61 74">
  <title>atom 3290 i:1</title>
  <metadata>{&quot;entityType&quot;:&quot;atom&quot;,&quot;entityId&quot;:&quot;3290&quot;,&quot;token&quot;:&quot;i:1&quot;,&quot;signature&quot;:&quot;i:1&quot;,&quot;imageName&quot;:&quot;page-003.jpg&quot;,&quot;imageId&quot;:3,&quot;bounds&quot;:{&quot;x&quot;:1895,&quot;y&quot;:1893,&quot;w&quot;:61,&quot;h&quot;:74},&quot;atoms&quot;:[{&quot;id&quot;:3290,&quot;token&quot;:&quot;i:1&quot;,&quot;particle_id&quot;:&quot;img3-m117-p5&quot;,&quot;molecule_id&quot;:&quot;img3-m117&quot;,&quot;atom_order&quot;:3}]}</metadata>
  <rect x="0" y="0" width="61" height="74" fill="#f8f0d8"/>
  <image href="file:///C:/Users/HHHES/AppData/Roaming/com.voynichlab.datasetcreator/images/1/35a70f63-88ab-4986-b441-b78046a10087.jpg" x="-1895" y="-1893" width="2972" height="3766" opacity="0.92"/>
  <rect x="0.5" y="0.5" width="60" height="73" fill="none" stroke="#111827" stroke-width="1" opacity="0.35"/>
  <polyline points="23,58 24,58 25,58 26,58 27,58 28,58 29,58 30,58 31,58 31,57 32,57 33,57 34,57 34,56 35,56 36,56 36,55 37,55 38,54 39,54 39,53 40,53 40,52 41,52 42,51 43,50 43,49 43,48 44,48 44,47 44,46 44,45 44,44 44,43 44,42 44,41 45,40 45,39 45,38 45,37 45,36 45,35 44,34 44,33 44,32 44,31 43,31 43,30 43,29 42,28 42,27 41,27 41,26 40,25 39,25 39,24 38,24 38,23 37,23 36,22 35,22 34,21 33,20 32,20 32,19 31,19 30,19 30,18 29,18 28,18 27,17 26,17 25,17 24,16 23,16 22,16 21,16 20,16 19,16 18,16 17,16 16,16" fill="none" stroke="#00ff7f" stroke-width="3" stroke-linecap="round" stroke-linejoin="round" opacity="0.95">
    <title>3290 i:1</title>
  </polyline>
</svg>
