<?xml version="1.0" encoding="UTF-8"?>
<svg xmlns="http://www.w3.org/2000/svg" width="50" height="75" viewBox="0 0 50 75">
  <title>atom 3393 i:1</title>
  <metadata>{&quot;entityType&quot;:&quot;atom&quot;,&quot;entityId&quot;:&quot;3393&quot;,&quot;token&quot;:&quot;i:1&quot;,&quot;signature&quot;:&quot;i:1&quot;,&quot;imageName&quot;:&quot;page-003.jpg&quot;,&quot;imageId&quot;:3,&quot;bounds&quot;:{&quot;x&quot;:1192,&quot;y&quot;:1976,&quot;w&quot;:50,&quot;h&quot;:75},&quot;atoms&quot;:[{&quot;id&quot;:3393,&quot;token&quot;:&quot;i:1&quot;,&quot;particle_id&quot;:&quot;img3-m124-p5&quot;,&quot;molecule_id&quot;:&quot;img3-m124&quot;,&quot;atom_order&quot;:3}]}</metadata>
  <rect x="0" y="0" width="50" height="75" fill="#f8f0d8"/>
  <image href="file:///C:/Users/HHHES/AppData/Roaming/com.voynichlab.datasetcreator/images/1/35a70f63-88ab-4986-b441-b78046a10087.jpg" x="-1192" y="-1976" width="2972" height="3766" opacity="0.92"/>
  <rect x="0.5" y="0.5" width="49" height="74" fill="none" stroke="#111827" stroke-width="1" opacity="0.35"/>
  <polyline points="16,59 17,59 17,58 18,58 19,58 20,58 20,57 21,57 22,56 23,56 24,55 25,54 26,54 26,53 27,53 27,52 28,52 28,51 29,51 29,50 30,50 30,49 31,48 31,47 32,46 32,45 33,44 33,43 34,42 34,41 34,40 34,39 34,38 34,37 34,36 34,35 34,34 34,33 34,32 34,31 34,30 34,29 33,29 33,28 33,27 33,26 32,25 32,24 31,23 31,22 30,22 30,21 29,21 28,21 27,20 26,20 26,19 25,19 24,18 23,18 23,17 22,17 21,17 20,16 19,16 20,16" fill="none" stroke="#00ff7f" stroke-width="3" stroke-linecap="round" stroke-linejoin="round" opacity="0.95">
    <title>3393 i:1</title>
  </polyline>
</svg>
