<?xml version="1.0" encoding="UTF-8"?>
<svg xmlns="http://www.w3.org/2000/svg" width="44" height="72" viewBox="0 0 44 72">
  <title>atom 3481 i:1</title>
  <metadata>{&quot;entityType&quot;:&quot;atom&quot;,&quot;entityId&quot;:&quot;3481&quot;,&quot;token&quot;:&quot;i:1&quot;,&quot;signature&quot;:&quot;i:1&quot;,&quot;imageName&quot;:&quot;page-003.jpg&quot;,&quot;imageId&quot;:3,&quot;bounds&quot;:{&quot;x&quot;:1867,&quot;y&quot;:2077,&quot;w&quot;:44,&quot;h&quot;:72},&quot;atoms&quot;:[{&quot;id&quot;:3481,&quot;token&quot;:&quot;i:1&quot;,&quot;particle_id&quot;:&quot;img3-m129-p5&quot;,&quot;molecule_id&quot;:&quot;img3-m129&quot;,&quot;atom_order&quot;:3}]}</metadata>
  <rect x="0" y="0" width="44" height="72" fill="#f8f0d8"/>
  <image href="file:///C:/Users/HHHES/AppData/Roaming/com.voynichlab.datasetcreator/images/1/35a70f63-88ab-4986-b441-b78046a10087.jpg" x="-1867" y="-2077" width="2972" height="3766" opacity="0.92"/>
  <rect x="0.5" y="0.5" width="43" height="71" fill="none" stroke="#111827" stroke-width="1" opacity="0.35"/>
  <polyline points="16,56 17,56 17,55 18,55 19,55 19,54 20,54 20,53 21,53 22,52 22,51 23,51 23,50 24,49 24,48 25,48 25,47 25,46 26,46 26,45 27,44 27,43 27,42 27,41 28,41 28,40 28,39 28,38 28,37 28,36 28,35 28,34 28,33 27,33 27,32 27,31 27,30 27,29 27,28 27,27 27,26 27,25 26,24 26,23 26,22 25,22 25,21 25,20 24,20 24,19 23,18 23,17 22,17 21,17 21,16" fill="none" stroke="#00ff7f" stroke-width="3" stroke-linecap="round" stroke-linejoin="round" opacity="0.95">
    <title>3481 i:1</title>
  </polyline>
</svg>
