<?xml version="1.0" encoding="UTF-8"?>
<svg xmlns="http://www.w3.org/2000/svg" width="53" height="67" viewBox="0 0 53 67">
  <title>atom 3590 i:1</title>
  <metadata>{&quot;entityType&quot;:&quot;atom&quot;,&quot;entityId&quot;:&quot;3590&quot;,&quot;token&quot;:&quot;i:1&quot;,&quot;signature&quot;:&quot;i:1&quot;,&quot;imageName&quot;:&quot;page-003.jpg&quot;,&quot;imageId&quot;:3,&quot;bounds&quot;:{&quot;x&quot;:692,&quot;y&quot;:2132,&quot;w&quot;:53,&quot;h&quot;:67},&quot;atoms&quot;:[{&quot;id&quot;:3590,&quot;token&quot;:&quot;i:1&quot;,&quot;particle_id&quot;:&quot;img3-m135-p4&quot;,&quot;molecule_id&quot;:&quot;img3-m135&quot;,&quot;atom_order&quot;:2}]}</metadata>
  <rect x="0" y="0" width="53" height="67" fill="#f8f0d8"/>
  <image href="file:///C:/Users/HHHES/AppData/Roaming/com.voynichlab.datasetcreator/images/1/35a70f63-88ab-4986-b441-b78046a10087.jpg" x="-692" y="-2132" width="2972" height="3766" opacity="0.92"/>
  <rect x="0.5" y="0.5" width="52" height="66" fill="none" stroke="#111827" stroke-width="1" opacity="0.35"/>
  <polyline points="16,51 17,51 18,51 18,50 19,50 20,50 20,49 21,49 22,49 22,48 23,48 24,48 24,47 25,47 26,47 26,46 27,46 28,46 28,45 29,45 30,44 30,43 31,43 31,42 32,42 32,41 33,41 33,40 33,39 34,39 34,38 35,37 35,36 35,35 36,35 36,34 36,33 36,32 37,31 37,30 37,29 37,28 37,27 37,26 37,25 37,24 36,24 36,23 35,22 35,21 35,20 34,20 34,19 33,19 33,18 32,18 32,17 31,17 30,16" fill="none" stroke="#00ff7f" stroke-width="3" stroke-linecap="round" stroke-linejoin="round" opacity="0.95">
    <title>3590 i:1</title>
  </polyline>
</svg>
