<?xml version="1.0" encoding="UTF-8"?>
<svg xmlns="http://www.w3.org/2000/svg" width="58" height="60" viewBox="0 0 58 60">
  <title>atom 3592 i:1</title>
  <metadata>{&quot;entityType&quot;:&quot;atom&quot;,&quot;entityId&quot;:&quot;3592&quot;,&quot;token&quot;:&quot;i:1&quot;,&quot;signature&quot;:&quot;i:1&quot;,&quot;imageName&quot;:&quot;page-003.jpg&quot;,&quot;imageId&quot;:3,&quot;bounds&quot;:{&quot;x&quot;:1249,&quot;y&quot;:2135,&quot;w&quot;:58,&quot;h&quot;:60},&quot;atoms&quot;:[{&quot;id&quot;:3592,&quot;token&quot;:&quot;i:1&quot;,&quot;particle_id&quot;:&quot;img3-m138-p4&quot;,&quot;molecule_id&quot;:&quot;img3-m138&quot;,&quot;atom_order&quot;:3}]}</metadata>
  <rect x="0" y="0" width="58" height="60" fill="#f8f0d8"/>
  <image href="file:///C:/Users/HHHES/AppData/Roaming/com.voynichlab.datasetcreator/images/1/35a70f63-88ab-4986-b441-b78046a10087.jpg" x="-1249" y="-2135" width="2972" height="3766" opacity="0.92"/>
  <rect x="0.5" y="0.5" width="57" height="59" fill="none" stroke="#111827" stroke-width="1" opacity="0.35"/>
  <polyline points="16,44 17,44 18,44 19,43 20,43 20,42 21,42 22,42 23,41 24,41 25,40 26,40 27,39 28,39 28,38 29,38 30,38 30,37 31,37 31,36 32,36 33,35 34,35 34,34 35,34 35,33 36,33 36,32 37,32 38,31 38,30 39,30 39,29 40,28 40,27 41,26 41,25 41,24 42,23 42,22 42,21 42,20 42,19 42,18 42,17 42,16" fill="none" stroke="#00ff7f" stroke-width="3" stroke-linecap="round" stroke-linejoin="round" opacity="0.95">
    <title>3592 i:1</title>
  </polyline>
</svg>
