<?xml version="1.0" encoding="UTF-8"?>
<svg xmlns="http://www.w3.org/2000/svg" width="51" height="60" viewBox="0 0 51 60">
  <title>atom 3594 i:1</title>
  <metadata>{&quot;entityType&quot;:&quot;atom&quot;,&quot;entityId&quot;:&quot;3594&quot;,&quot;token&quot;:&quot;i:1&quot;,&quot;signature&quot;:&quot;i:1&quot;,&quot;imageName&quot;:&quot;page-003.jpg&quot;,&quot;imageId&quot;:3,&quot;bounds&quot;:{&quot;x&quot;:2076,&quot;y&quot;:2172,&quot;w&quot;:51,&quot;h&quot;:60},&quot;atoms&quot;:[{&quot;id&quot;:3594,&quot;token&quot;:&quot;i:1&quot;,&quot;particle_id&quot;:&quot;img3-m134-p4&quot;,&quot;molecule_id&quot;:&quot;img3-m134&quot;,&quot;atom_order&quot;:2}]}</metadata>
  <rect x="0" y="0" width="51" height="60" fill="#f8f0d8"/>
  <image href="file:///C:/Users/HHHES/AppData/Roaming/com.voynichlab.datasetcreator/images/1/35a70f63-88ab-4986-b441-b78046a10087.jpg" x="-2076" y="-2172" width="2972" height="3766" opacity="0.92"/>
  <rect x="0.5" y="0.5" width="50" height="59" fill="none" stroke="#111827" stroke-width="1" opacity="0.35"/>
  <polyline points="16,44 17,44 18,44 19,44 20,44 21,44 21,43 22,43 23,43 24,43 25,42 26,42 26,41 27,40 28,40 29,40 29,39 30,39 30,38 31,38 31,37 31,36 32,36 32,35 33,35 33,34 34,34 34,33 34,32 35,32 35,31 35,30 35,29 35,28 35,27 35,26 35,25 35,24 35,23 35,22 35,21 35,20 34,19 34,18 34,17 34,16 33,16" fill="none" stroke="#00ff7f" stroke-width="3" stroke-linecap="round" stroke-linejoin="round" opacity="0.95">
    <title>3594 i:1</title>
  </polyline>
</svg>
