<?xml version="1.0" encoding="UTF-8"?>
<svg xmlns="http://www.w3.org/2000/svg" width="54" height="68" viewBox="0 0 54 68">
  <title>atom 3595 i:1</title>
  <metadata>{&quot;entityType&quot;:&quot;atom&quot;,&quot;entityId&quot;:&quot;3595&quot;,&quot;token&quot;:&quot;i:1&quot;,&quot;signature&quot;:&quot;i:1&quot;,&quot;imageName&quot;:&quot;page-003.jpg&quot;,&quot;imageId&quot;:3,&quot;bounds&quot;:{&quot;x&quot;:832,&quot;y&quot;:2206,&quot;w&quot;:54,&quot;h&quot;:68},&quot;atoms&quot;:[{&quot;id&quot;:3595,&quot;token&quot;:&quot;i:1&quot;,&quot;particle_id&quot;:&quot;img3-m144-p3&quot;,&quot;molecule_id&quot;:&quot;img3-m144&quot;,&quot;atom_order&quot;:2}]}</metadata>
  <rect x="0" y="0" width="54" height="68" fill="#f8f0d8"/>
  <image href="file:///C:/Users/HHHES/AppData/Roaming/com.voynichlab.datasetcreator/images/1/35a70f63-88ab-4986-b441-b78046a10087.jpg" x="-832" y="-2206" width="2972" height="3766" opacity="0.92"/>
  <rect x="0.5" y="0.5" width="53" height="67" fill="none" stroke="#111827" stroke-width="1" opacity="0.35"/>
  <polyline points="16,52 17,52 18,52 19,51 20,51 21,51 22,51 23,51 24,51 24,50 25,50 25,49 26,49 26,48 27,48 28,47 28,46 29,46 29,45 30,45 30,44 31,44 31,43 32,43 32,42 33,42 33,41 33,40 34,39 34,38 34,37 35,36 35,35 35,34 36,34 36,33 36,32 36,31 37,30 37,29 37,28 37,27 37,26 38,25 38,24 38,23 38,22 38,21 37,21 37,20 36,19 36,18 35,18 35,17 34,16" fill="none" stroke="#00ff7f" stroke-width="3" stroke-linecap="round" stroke-linejoin="round" opacity="0.95">
    <title>3595 i:1</title>
  </polyline>
</svg>
