<?xml version="1.0" encoding="UTF-8"?>
<svg xmlns="http://www.w3.org/2000/svg" width="51" height="85" viewBox="0 0 51 85">
  <title>atom 3597 i:1</title>
  <metadata>{&quot;entityType&quot;:&quot;atom&quot;,&quot;entityId&quot;:&quot;3597&quot;,&quot;token&quot;:&quot;i:1&quot;,&quot;signature&quot;:&quot;i:1&quot;,&quot;imageName&quot;:&quot;page-003.jpg&quot;,&quot;imageId&quot;:3,&quot;bounds&quot;:{&quot;x&quot;:2289,&quot;y&quot;:2267,&quot;w&quot;:51,&quot;h&quot;:85},&quot;atoms&quot;:[{&quot;id&quot;:3597,&quot;token&quot;:&quot;i:1&quot;,&quot;particle_id&quot;:&quot;img3-m145-p4&quot;,&quot;molecule_id&quot;:&quot;img3-m145&quot;,&quot;atom_order&quot;:3}]}</metadata>
  <rect x="0" y="0" width="51" height="85" fill="#f8f0d8"/>
  <image href="file:///C:/Users/HHHES/AppData/Roaming/com.voynichlab.datasetcreator/images/1/35a70f63-88ab-4986-b441-b78046a10087.jpg" x="-2289" y="-2267" width="2972" height="3766" opacity="0.92"/>
  <rect x="0.5" y="0.5" width="50" height="84" fill="none" stroke="#111827" stroke-width="1" opacity="0.35"/>
  <polyline points="25,69 26,69 26,68 27,68 28,68 28,67 29,67 29,66 30,66 30,65 31,64 31,63 32,62 32,61 33,60 33,59 33,58 34,57 34,56 34,55 34,54 35,53 35,52 35,51 35,50 35,49 35,48 35,47 35,46 35,45 35,44 35,43 35,42 35,41 35,40 35,39 34,39 34,38 34,37 34,36 34,35 34,34 33,34 33,33 33,32 32,31 32,30 31,29 31,28 30,27 29,26 29,25 28,25 28,24 27,24 26,23 25,22 24,22 24,21 23,20 22,20 21,19 20,18 19,17 18,17 17,16 16,16" fill="none" stroke="#00ff7f" stroke-width="3" stroke-linecap="round" stroke-linejoin="round" opacity="0.95">
    <title>3597 i:1</title>
  </polyline>
</svg>
