<?xml version="1.0" encoding="UTF-8"?>
<svg xmlns="http://www.w3.org/2000/svg" width="50" height="59" viewBox="0 0 50 59">
  <title>atom 3654 i:1</title>
  <metadata>{&quot;entityType&quot;:&quot;atom&quot;,&quot;entityId&quot;:&quot;3654&quot;,&quot;token&quot;:&quot;i:1&quot;,&quot;signature&quot;:&quot;i:1&quot;,&quot;imageName&quot;:&quot;page-003.jpg&quot;,&quot;imageId&quot;:3,&quot;bounds&quot;:{&quot;x&quot;:1745,&quot;y&quot;:2066,&quot;w&quot;:50,&quot;h&quot;:59},&quot;atoms&quot;:[{&quot;id&quot;:3654,&quot;token&quot;:&quot;i:1&quot;,&quot;particle_id&quot;:&quot;img3-m129-p3&quot;,&quot;molecule_id&quot;:&quot;img3-m129&quot;,&quot;atom_order&quot;:2}]}</metadata>
  <rect x="0" y="0" width="50" height="59" fill="#f8f0d8"/>
  <image href="file:///C:/Users/HHHES/AppData/Roaming/com.voynichlab.datasetcreator/images/1/35a70f63-88ab-4986-b441-b78046a10087.jpg" x="-1745" y="-2066" width="2972" height="3766" opacity="0.92"/>
  <rect x="0.5" y="0.5" width="49" height="58" fill="none" stroke="#111827" stroke-width="1" opacity="0.35"/>
  <polyline points="16,43 17,43 17,42 18,42 19,42 19,41 20,41 21,41 21,40 22,40 23,40 23,39 24,39 24,38 25,38 26,37 27,37 27,36 28,35 28,34 29,34 30,33 30,32 31,32 31,31 31,30 32,30 32,29 32,28 33,27 33,26 33,25 34,25 34,24 34,23 34,22 34,21 34,20 34,19 34,18 34,17 33,17 33,16" fill="none" stroke="#00ff7f" stroke-width="3" stroke-linecap="round" stroke-linejoin="round" opacity="0.95">
    <title>3654 i:1</title>
  </polyline>
</svg>
