<?xml version="1.0" encoding="UTF-8"?>
<svg xmlns="http://www.w3.org/2000/svg" width="46" height="65" viewBox="0 0 46 65">
  <title>atom 3796 i:1</title>
  <metadata>{&quot;entityType&quot;:&quot;atom&quot;,&quot;entityId&quot;:&quot;3796&quot;,&quot;token&quot;:&quot;i:1&quot;,&quot;signature&quot;:&quot;i:1&quot;,&quot;imageName&quot;:&quot;page-003.jpg&quot;,&quot;imageId&quot;:3,&quot;bounds&quot;:{&quot;x&quot;:1567,&quot;y&quot;:2490,&quot;w&quot;:46,&quot;h&quot;:65},&quot;atoms&quot;:[{&quot;id&quot;:3796,&quot;token&quot;:&quot;i:1&quot;,&quot;particle_id&quot;:&quot;img3-m148-p8&quot;,&quot;molecule_id&quot;:&quot;img3-m148&quot;,&quot;atom_order&quot;:2}]}</metadata>
  <rect x="0" y="0" width="46" height="65" fill="#f8f0d8"/>
  <image href="file:///C:/Users/HHHES/AppData/Roaming/com.voynichlab.datasetcreator/images/1/35a70f63-88ab-4986-b441-b78046a10087.jpg" x="-1567" y="-2490" width="2972" height="3766" opacity="0.92"/>
  <rect x="0.5" y="0.5" width="45" height="64" fill="none" stroke="#111827" stroke-width="1" opacity="0.35"/>
  <polyline points="16,49 16,48 17,48 18,48 18,47 19,47 19,46 20,46 21,45 22,45 22,44 23,44 23,43 24,43 24,42 25,42 25,41 26,40 26,39 27,39 27,38 27,37 28,36 28,35 29,35 29,34 29,33 29,32 29,31 29,30 30,30 30,29 30,28 30,27 30,26 30,25 30,24 30,23 29,23 29,22 29,21 28,21 28,20 28,19 27,19 27,18 26,17 25,16" fill="none" stroke="#00ff7f" stroke-width="3" stroke-linecap="round" stroke-linejoin="round" opacity="0.95">
    <title>3796 i:1</title>
  </polyline>
</svg>
