<?xml version="1.0" encoding="UTF-8"?>
<svg xmlns="http://www.w3.org/2000/svg" width="63" height="68" viewBox="0 0 63 68">
  <title>atom 3811 i:1</title>
  <metadata>{&quot;entityType&quot;:&quot;atom&quot;,&quot;entityId&quot;:&quot;3811&quot;,&quot;token&quot;:&quot;i:1&quot;,&quot;signature&quot;:&quot;i:1&quot;,&quot;imageName&quot;:&quot;page-003.jpg&quot;,&quot;imageId&quot;:3,&quot;bounds&quot;:{&quot;x&quot;:2279,&quot;y&quot;:2532,&quot;w&quot;:63,&quot;h&quot;:68},&quot;atoms&quot;:[{&quot;id&quot;:3811,&quot;token&quot;:&quot;i:1&quot;,&quot;particle_id&quot;:&quot;img3-m153-p3&quot;,&quot;molecule_id&quot;:&quot;img3-m153&quot;,&quot;atom_order&quot;:2}]}</metadata>
  <rect x="0" y="0" width="63" height="68" fill="#f8f0d8"/>
  <image href="file:///C:/Users/HHHES/AppData/Roaming/com.voynichlab.datasetcreator/images/1/35a70f63-88ab-4986-b441-b78046a10087.jpg" x="-2279" y="-2532" width="2972" height="3766" opacity="0.92"/>
  <rect x="0.5" y="0.5" width="62" height="67" fill="none" stroke="#111827" stroke-width="1" opacity="0.35"/>
  <polyline points="16,52 17,52 18,52 19,52 20,52 21,52 22,52 23,52 24,51 25,51 26,51 27,51 27,50 28,50 29,50 29,49 30,49 31,49 31,48 32,47 33,47 33,46 34,46 35,45 36,44 37,44 37,43 38,43 38,42 39,42 39,41 40,41 40,40 41,40 41,39 42,39 43,38 43,37 44,37 44,36 44,35 45,35 45,34 45,33 46,33 46,32 46,31 46,30 46,29 47,28 47,27 47,26 47,25 47,24 47,23 47,22 47,21 46,21 46,20 45,20 45,19 44,19 44,18 43,17 43,16 42,16" fill="none" stroke="#00ff7f" stroke-width="3" stroke-linecap="round" stroke-linejoin="round" opacity="0.95">
    <title>3811 i:1</title>
  </polyline>
</svg>
