<?xml version="1.0" encoding="UTF-8"?>
<svg xmlns="http://www.w3.org/2000/svg" width="47" height="79" viewBox="0 0 47 79">
  <title>atom 3872 i:1</title>
  <metadata>{&quot;entityType&quot;:&quot;atom&quot;,&quot;entityId&quot;:&quot;3872&quot;,&quot;token&quot;:&quot;i:1&quot;,&quot;signature&quot;:&quot;i:1&quot;,&quot;imageName&quot;:&quot;page-003.jpg&quot;,&quot;imageId&quot;:3,&quot;bounds&quot;:{&quot;x&quot;:667,&quot;y&quot;:2572,&quot;w&quot;:47,&quot;h&quot;:79},&quot;atoms&quot;:[{&quot;id&quot;:3872,&quot;token&quot;:&quot;i:1&quot;,&quot;particle_id&quot;:&quot;img3-m157-p4&quot;,&quot;molecule_id&quot;:&quot;img3-m157&quot;,&quot;atom_order&quot;:3}]}</metadata>
  <rect x="0" y="0" width="47" height="79" fill="#f8f0d8"/>
  <image href="file:///C:/Users/HHHES/AppData/Roaming/com.voynichlab.datasetcreator/images/1/35a70f63-88ab-4986-b441-b78046a10087.jpg" x="-667" y="-2572" width="2972" height="3766" opacity="0.92"/>
  <rect x="0.5" y="0.5" width="46" height="78" fill="none" stroke="#111827" stroke-width="1" opacity="0.35"/>
  <polyline points="22,63 22,62 23,62 24,61 24,60 25,60 25,59 26,59 26,58 27,58 27,57 27,56 28,55 28,54 28,53 29,53 29,52 30,51 30,50 30,49 31,49 31,48 31,47 31,46 31,45 31,44 31,43 31,42 31,41 31,40 31,39 31,38 31,37 31,36 31,35 31,34 31,33 30,33 30,32 30,31 30,30 29,30 29,29 29,28 29,27 28,27 28,26 28,25 27,25 27,24 26,24 26,23 25,23 25,22 24,22 24,21 23,21 23,20 22,20 22,19 21,19 20,18 19,18 19,17 18,17 17,17 17,16 16,16" fill="none" stroke="#00ff7f" stroke-width="3" stroke-linecap="round" stroke-linejoin="round" opacity="0.95">
    <title>3872 i:1</title>
  </polyline>
</svg>
