<?xml version="1.0" encoding="UTF-8"?>
<svg xmlns="http://www.w3.org/2000/svg" width="56" height="59" viewBox="0 0 56 59">
  <title>atom 3875 i:1</title>
  <metadata>{&quot;entityType&quot;:&quot;atom&quot;,&quot;entityId&quot;:&quot;3875&quot;,&quot;token&quot;:&quot;i:1&quot;,&quot;signature&quot;:&quot;i:1&quot;,&quot;imageName&quot;:&quot;page-003.jpg&quot;,&quot;imageId&quot;:3,&quot;bounds&quot;:{&quot;x&quot;:1322,&quot;y&quot;:2591,&quot;w&quot;:56,&quot;h&quot;:59},&quot;atoms&quot;:[{&quot;id&quot;:3875,&quot;token&quot;:&quot;i:1&quot;,&quot;particle_id&quot;:&quot;img3-m159-p3&quot;,&quot;molecule_id&quot;:&quot;img3-m159&quot;,&quot;atom_order&quot;:2}]}</metadata>
  <rect x="0" y="0" width="56" height="59" fill="#f8f0d8"/>
  <image href="file:///C:/Users/HHHES/AppData/Roaming/com.voynichlab.datasetcreator/images/1/35a70f63-88ab-4986-b441-b78046a10087.jpg" x="-1322" y="-2591" width="2972" height="3766" opacity="0.92"/>
  <rect x="0.5" y="0.5" width="55" height="58" fill="none" stroke="#111827" stroke-width="1" opacity="0.35"/>
  <polyline points="16,43 17,43 18,43 19,43 20,43 21,42 22,42 23,42 23,41 24,41 25,41 25,40 26,40 27,40 27,39 28,39 29,38 30,37 31,37 31,36 32,36 32,35 33,35 33,34 34,34 34,33 35,33 35,32 36,32 36,31 37,31 37,30 38,29 38,28 39,28 39,27 39,26 40,25 40,24 40,23 40,22 40,21 40,20 40,19 39,18 39,17 39,16" fill="none" stroke="#00ff7f" stroke-width="3" stroke-linecap="round" stroke-linejoin="round" opacity="0.95">
    <title>3875 i:1</title>
  </polyline>
</svg>
