<?xml version="1.0" encoding="UTF-8"?>
<svg xmlns="http://www.w3.org/2000/svg" width="46" height="72" viewBox="0 0 46 72">
  <title>atom 3877 i:1</title>
  <metadata>{&quot;entityType&quot;:&quot;atom&quot;,&quot;entityId&quot;:&quot;3877&quot;,&quot;token&quot;:&quot;i:1&quot;,&quot;signature&quot;:&quot;i:1&quot;,&quot;imageName&quot;:&quot;page-003.jpg&quot;,&quot;imageId&quot;:3,&quot;bounds&quot;:{&quot;x&quot;:1732,&quot;y&quot;:2621,&quot;w&quot;:46,&quot;h&quot;:72},&quot;atoms&quot;:[{&quot;id&quot;:3877,&quot;token&quot;:&quot;i:1&quot;,&quot;particle_id&quot;:&quot;img3-m157-p3&quot;,&quot;molecule_id&quot;:&quot;img3-m157&quot;,&quot;atom_order&quot;:3}]}</metadata>
  <rect x="0" y="0" width="46" height="72" fill="#f8f0d8"/>
  <image href="file:///C:/Users/HHHES/AppData/Roaming/com.voynichlab.datasetcreator/images/1/35a70f63-88ab-4986-b441-b78046a10087.jpg" x="-1732" y="-2621" width="2972" height="3766" opacity="0.92"/>
  <rect x="0.5" y="0.5" width="45" height="71" fill="none" stroke="#111827" stroke-width="1" opacity="0.35"/>
  <polyline points="23,56 23,55 24,55 24,54 25,54 25,53 26,52 26,51 27,51 27,50 28,49 28,48 28,47 29,47 29,46 29,45 29,44 29,43 30,42 30,41 30,40 30,39 30,38 30,37 30,36 30,35 30,34 30,33 30,32 30,31 30,30 30,29 30,28 30,27 29,27 29,26 28,25 27,25 27,24 26,24 26,23 25,23 25,22 24,22 24,21 23,21 23,20 22,20 22,19 21,19 20,19 20,18 19,18 18,18 18,17 17,17 16,16" fill="none" stroke="#00ff7f" stroke-width="3" stroke-linecap="round" stroke-linejoin="round" opacity="0.95">
    <title>3877 i:1</title>
  </polyline>
</svg>
