<?xml version="1.0" encoding="UTF-8"?>
<svg xmlns="http://www.w3.org/2000/svg" width="53" height="65" viewBox="0 0 53 65">
  <title>atom 3878 i:1</title>
  <metadata>{&quot;entityType&quot;:&quot;atom&quot;,&quot;entityId&quot;:&quot;3878&quot;,&quot;token&quot;:&quot;i:1&quot;,&quot;signature&quot;:&quot;i:1&quot;,&quot;imageName&quot;:&quot;page-003.jpg&quot;,&quot;imageId&quot;:3,&quot;bounds&quot;:{&quot;x&quot;:1865,&quot;y&quot;:2617,&quot;w&quot;:53,&quot;h&quot;:65},&quot;atoms&quot;:[{&quot;id&quot;:3878,&quot;token&quot;:&quot;i:1&quot;,&quot;particle_id&quot;:&quot;img3-m163-p3&quot;,&quot;molecule_id&quot;:&quot;img3-m163&quot;,&quot;atom_order&quot;:2}]}</metadata>
  <rect x="0" y="0" width="53" height="65" fill="#f8f0d8"/>
  <image href="file:///C:/Users/HHHES/AppData/Roaming/com.voynichlab.datasetcreator/images/1/35a70f63-88ab-4986-b441-b78046a10087.jpg" x="-1865" y="-2617" width="2972" height="3766" opacity="0.92"/>
  <rect x="0.5" y="0.5" width="52" height="64" fill="none" stroke="#111827" stroke-width="1" opacity="0.35"/>
  <polyline points="16,49 17,49 18,48 19,47 20,46 21,45 22,44 23,44 23,43 24,43 25,42 26,41 26,40 27,40 28,39 29,38 30,37 31,36 32,35 33,34 33,33 34,33 34,32 34,31 34,30 35,29 35,28 35,27 35,26 35,25 36,24 36,23 36,21 37,21 37,20 37,19 37,18 37,17 37,16 36,16" fill="none" stroke="#00ff7f" stroke-width="3" stroke-linecap="round" stroke-linejoin="round" opacity="0.95">
    <title>3878 i:1</title>
  </polyline>
</svg>
