<?xml version="1.0" encoding="UTF-8"?>
<svg xmlns="http://www.w3.org/2000/svg" width="44" height="75" viewBox="0 0 44 75">
  <title>atom 3976 i:1</title>
  <metadata>{&quot;entityType&quot;:&quot;atom&quot;,&quot;entityId&quot;:&quot;3976&quot;,&quot;token&quot;:&quot;i:1&quot;,&quot;signature&quot;:&quot;i:1&quot;,&quot;imageName&quot;:&quot;page-003.jpg&quot;,&quot;imageId&quot;:3,&quot;bounds&quot;:{&quot;x&quot;:835,&quot;y&quot;:2670,&quot;w&quot;:44,&quot;h&quot;:75},&quot;atoms&quot;:[{&quot;id&quot;:3976,&quot;token&quot;:&quot;i:1&quot;,&quot;particle_id&quot;:&quot;img3-m170-p4&quot;,&quot;molecule_id&quot;:&quot;img3-m170&quot;,&quot;atom_order&quot;:3}]}</metadata>
  <rect x="0" y="0" width="44" height="75" fill="#f8f0d8"/>
  <image href="file:///C:/Users/HHHES/AppData/Roaming/com.voynichlab.datasetcreator/images/1/35a70f63-88ab-4986-b441-b78046a10087.jpg" x="-835" y="-2670" width="2972" height="3766" opacity="0.92"/>
  <rect x="0.5" y="0.5" width="43" height="74" fill="none" stroke="#111827" stroke-width="1" opacity="0.35"/>
  <polyline points="16,59 17,59 18,58 19,58 19,57 20,57 21,56 22,55 23,54 23,53 24,53 24,52 24,51 25,50 25,49 25,48 26,48 26,47 26,46 26,45 27,44 27,43 27,42 27,41 27,40 28,40 28,39 28,38 28,37 28,36 28,35 28,34 27,33 27,32 27,31 27,30 26,29 26,28 26,27 25,27 25,26 24,26 24,25 24,24 23,23 23,22 22,21 21,20 21,19 20,19 20,18 19,18 19,17 18,17 17,16 16,16" fill="none" stroke="#00ff7f" stroke-width="3" stroke-linecap="round" stroke-linejoin="round" opacity="0.95">
    <title>3976 i:1</title>
  </polyline>
</svg>
