<?xml version="1.0" encoding="UTF-8"?>
<svg xmlns="http://www.w3.org/2000/svg" width="46" height="74" viewBox="0 0 46 74">
  <title>atom 3978 i:1</title>
  <metadata>{&quot;entityType&quot;:&quot;atom&quot;,&quot;entityId&quot;:&quot;3978&quot;,&quot;token&quot;:&quot;i:1&quot;,&quot;signature&quot;:&quot;i:1&quot;,&quot;imageName&quot;:&quot;page-003.jpg&quot;,&quot;imageId&quot;:3,&quot;bounds&quot;:{&quot;x&quot;:1463,&quot;y&quot;:2687,&quot;w&quot;:46,&quot;h&quot;:74},&quot;atoms&quot;:[{&quot;id&quot;:3978,&quot;token&quot;:&quot;i:1&quot;,&quot;particle_id&quot;:&quot;img3-m170-p3&quot;,&quot;molecule_id&quot;:&quot;img3-m170&quot;,&quot;atom_order&quot;:3}]}</metadata>
  <rect x="0" y="0" width="46" height="74" fill="#f8f0d8"/>
  <image href="file:///C:/Users/HHHES/AppData/Roaming/com.voynichlab.datasetcreator/images/1/35a70f63-88ab-4986-b441-b78046a10087.jpg" x="-1463" y="-2687" width="2972" height="3766" opacity="0.92"/>
  <rect x="0.5" y="0.5" width="45" height="73" fill="none" stroke="#111827" stroke-width="1" opacity="0.35"/>
  <polyline points="16,58 17,58 17,57 18,57 18,56 19,55 19,54 20,54 20,53 21,53 21,52 22,52 23,51 24,50 24,49 25,49 25,48 26,48 26,47 27,47 27,46 28,46 28,45 28,44 29,44 29,43 29,42 30,42 30,41 30,40 30,39 30,38 30,37 30,36 30,35 30,34 30,33 30,32 30,31 29,31 29,30 29,29 29,28 28,28 28,27 28,26 27,26 27,25 27,24 26,24 26,23 25,23 25,22 24,21 24,20 23,20 23,19 22,18 22,17 21,17 21,16 20,16" fill="none" stroke="#00ff7f" stroke-width="3" stroke-linecap="round" stroke-linejoin="round" opacity="0.95">
    <title>3978 i:1</title>
  </polyline>
</svg>
