<?xml version="1.0" encoding="UTF-8"?>
<svg xmlns="http://www.w3.org/2000/svg" width="60" height="54" viewBox="0 0 60 54">
  <title>atom 3979 i:1</title>
  <metadata>{&quot;entityType&quot;:&quot;atom&quot;,&quot;entityId&quot;:&quot;3979&quot;,&quot;token&quot;:&quot;i:1&quot;,&quot;signature&quot;:&quot;i:1&quot;,&quot;imageName&quot;:&quot;page-003.jpg&quot;,&quot;imageId&quot;:3,&quot;bounds&quot;:{&quot;x&quot;:1587,&quot;y&quot;:2700,&quot;w&quot;:60,&quot;h&quot;:54},&quot;atoms&quot;:[{&quot;id&quot;:3979,&quot;token&quot;:&quot;i:1&quot;,&quot;particle_id&quot;:&quot;img3-m166-p3&quot;,&quot;molecule_id&quot;:&quot;img3-m166&quot;,&quot;atom_order&quot;:2}]}</metadata>
  <rect x="0" y="0" width="60" height="54" fill="#f8f0d8"/>
  <image href="file:///C:/Users/HHHES/AppData/Roaming/com.voynichlab.datasetcreator/images/1/35a70f63-88ab-4986-b441-b78046a10087.jpg" x="-1587" y="-2700" width="2972" height="3766" opacity="0.92"/>
  <rect x="0.5" y="0.5" width="59" height="53" fill="none" stroke="#111827" stroke-width="1" opacity="0.35"/>
  <polyline points="16,38 17,38 18,38 19,38 20,38 20,37 21,37 22,36 23,36 24,36 25,35 26,35 27,35 27,34 28,34 29,34 30,33 31,32 32,32 33,31 34,31 34,30 35,30 36,29 37,29 38,28 38,27 39,27 40,26 40,25 40,24 41,24 41,23 42,22 42,21 43,21 43,20 43,19 43,18 44,18 44,17 44,16" fill="none" stroke="#00ff7f" stroke-width="3" stroke-linecap="round" stroke-linejoin="round" opacity="0.95">
    <title>3979 i:1</title>
  </polyline>
</svg>
