<?xml version="1.0" encoding="UTF-8"?>
<svg xmlns="http://www.w3.org/2000/svg" width="42" height="68" viewBox="0 0 42 68">
  <title>atom 3980 i:1</title>
  <metadata>{&quot;entityType&quot;:&quot;atom&quot;,&quot;entityId&quot;:&quot;3980&quot;,&quot;token&quot;:&quot;i:1&quot;,&quot;signature&quot;:&quot;i:1&quot;,&quot;imageName&quot;:&quot;page-003.jpg&quot;,&quot;imageId&quot;:3,&quot;bounds&quot;:{&quot;x&quot;:1985,&quot;y&quot;:2715,&quot;w&quot;:42,&quot;h&quot;:68},&quot;atoms&quot;:[{&quot;id&quot;:3980,&quot;token&quot;:&quot;i:1&quot;,&quot;particle_id&quot;:&quot;img3-m173-p3&quot;,&quot;molecule_id&quot;:&quot;img3-m173&quot;,&quot;atom_order&quot;:3}]}</metadata>
  <rect x="0" y="0" width="42" height="68" fill="#f8f0d8"/>
  <image href="file:///C:/Users/HHHES/AppData/Roaming/com.voynichlab.datasetcreator/images/1/35a70f63-88ab-4986-b441-b78046a10087.jpg" x="-1985" y="-2715" width="2972" height="3766" opacity="0.92"/>
  <rect x="0.5" y="0.5" width="41" height="67" fill="none" stroke="#111827" stroke-width="1" opacity="0.35"/>
  <polyline points="17,52 18,52 19,52 19,51 20,51 21,50 22,49 22,48 23,47 23,46 23,45 24,45 24,44 24,43 25,43 25,42 25,41 26,41 26,40 26,39 26,38 26,37 26,36 26,35 26,34 26,33 26,32 26,31 26,30 26,29 25,29 25,28 25,27 24,26 24,25 24,24 23,24 22,23 22,22 21,22 21,21 21,20 20,20 20,19 19,18 19,17 18,17 17,17 17,16 16,16" fill="none" stroke="#00ff7f" stroke-width="3" stroke-linecap="round" stroke-linejoin="round" opacity="0.95">
    <title>3980 i:1</title>
  </polyline>
</svg>
