<?xml version="1.0" encoding="UTF-8"?>
<svg xmlns="http://www.w3.org/2000/svg" width="61" height="64" viewBox="0 0 61 64">
  <title>atom 3981 i:1</title>
  <metadata>{&quot;entityType&quot;:&quot;atom&quot;,&quot;entityId&quot;:&quot;3981&quot;,&quot;token&quot;:&quot;i:1&quot;,&quot;signature&quot;:&quot;i:1&quot;,&quot;imageName&quot;:&quot;page-003.jpg&quot;,&quot;imageId&quot;:3,&quot;bounds&quot;:{&quot;x&quot;:2265,&quot;y&quot;:2710,&quot;w&quot;:61,&quot;h&quot;:64},&quot;atoms&quot;:[{&quot;id&quot;:3981,&quot;token&quot;:&quot;i:1&quot;,&quot;particle_id&quot;:&quot;img3-m168-p6&quot;,&quot;molecule_id&quot;:&quot;img3-m168&quot;,&quot;atom_order&quot;:2}]}</metadata>
  <rect x="0" y="0" width="61" height="64" fill="#f8f0d8"/>
  <image href="file:///C:/Users/HHHES/AppData/Roaming/com.voynichlab.datasetcreator/images/1/35a70f63-88ab-4986-b441-b78046a10087.jpg" x="-2265" y="-2710" width="2972" height="3766" opacity="0.92"/>
  <rect x="0.5" y="0.5" width="60" height="63" fill="none" stroke="#111827" stroke-width="1" opacity="0.35"/>
  <polyline points="16,48 17,48 18,48 19,48 20,48 21,47 22,47 24,47 24,46 25,46 27,46 28,46 29,46 30,46 31,45 32,45 33,45 34,45 35,44 36,44 37,43 38,43 38,42 39,42 39,41 40,41 41,40 42,39 42,38 43,38 43,37 43,36 44,36 44,35 44,34 44,33 45,33 45,32 45,31 45,30 45,29 45,28 45,27 45,26 45,25 45,24 45,23 45,22 45,21 45,20 45,19 44,19 44,18 44,17 44,16" fill="none" stroke="#00ff7f" stroke-width="3" stroke-linecap="round" stroke-linejoin="round" opacity="0.95">
    <title>3981 i:1</title>
  </polyline>
</svg>
