<?xml version="1.0" encoding="UTF-8"?>
<svg xmlns="http://www.w3.org/2000/svg" width="51" height="83" viewBox="0 0 51 83">
  <title>atom 4080 i:1</title>
  <metadata>{&quot;entityType&quot;:&quot;atom&quot;,&quot;entityId&quot;:&quot;4080&quot;,&quot;token&quot;:&quot;i:1&quot;,&quot;signature&quot;:&quot;i:1&quot;,&quot;imageName&quot;:&quot;page-003.jpg&quot;,&quot;imageId&quot;:3,&quot;bounds&quot;:{&quot;x&quot;:1680,&quot;y&quot;:2782,&quot;w&quot;:51,&quot;h&quot;:83},&quot;atoms&quot;:[{&quot;id&quot;:4080,&quot;token&quot;:&quot;i:1&quot;,&quot;particle_id&quot;:&quot;img3-m174-p5&quot;,&quot;molecule_id&quot;:&quot;img3-m174&quot;,&quot;atom_order&quot;:3}]}</metadata>
  <rect x="0" y="0" width="51" height="83" fill="#f8f0d8"/>
  <image href="file:///C:/Users/HHHES/AppData/Roaming/com.voynichlab.datasetcreator/images/1/35a70f63-88ab-4986-b441-b78046a10087.jpg" x="-1680" y="-2782" width="2972" height="3766" opacity="0.92"/>
  <rect x="0.5" y="0.5" width="50" height="82" fill="none" stroke="#111827" stroke-width="1" opacity="0.35"/>
  <polyline points="16,67 17,67 18,67 19,67 19,66 20,66 21,65 22,64 23,63 24,62 25,61 26,60 27,59 28,58 29,57 30,56 31,55 31,54 32,53 33,52 33,51 34,50 34,49 34,48 35,47 35,46 35,45 35,44 35,43 35,42 35,41 35,40 35,39 35,38 35,37 34,36 34,35 34,34 33,33 33,32 33,31 32,30 31,28 30,27 29,25 29,24 28,23 28,22 27,21 27,20 26,19 26,18 25,18 25,17 24,17 24,16" fill="none" stroke="#00ff7f" stroke-width="3" stroke-linecap="round" stroke-linejoin="round" opacity="0.95">
    <title>4080 i:1</title>
  </polyline>
</svg>
