<?xml version="1.0" encoding="UTF-8"?>
<svg xmlns="http://www.w3.org/2000/svg" width="74" height="64" viewBox="0 0 74 64">
  <title>atom 4103 i:1</title>
  <metadata>{&quot;entityType&quot;:&quot;atom&quot;,&quot;entityId&quot;:&quot;4103&quot;,&quot;token&quot;:&quot;i:1&quot;,&quot;signature&quot;:&quot;i:1&quot;,&quot;imageName&quot;:&quot;page-003.jpg&quot;,&quot;imageId&quot;:3,&quot;bounds&quot;:{&quot;x&quot;:2220,&quot;y&quot;:2891,&quot;w&quot;:74,&quot;h&quot;:64},&quot;atoms&quot;:[{&quot;id&quot;:4103,&quot;token&quot;:&quot;i:1&quot;,&quot;particle_id&quot;:&quot;img3-m191-p5&quot;,&quot;molecule_id&quot;:&quot;img3-m191&quot;,&quot;atom_order&quot;:2}]}</metadata>
  <rect x="0" y="0" width="74" height="64" fill="#f8f0d8"/>
  <image href="file:///C:/Users/HHHES/AppData/Roaming/com.voynichlab.datasetcreator/images/1/35a70f63-88ab-4986-b441-b78046a10087.jpg" x="-2220" y="-2891" width="2972" height="3766" opacity="0.92"/>
  <rect x="0.5" y="0.5" width="73" height="63" fill="none" stroke="#111827" stroke-width="1" opacity="0.35"/>
  <polyline points="16,48 17,48 18,48 19,48 20,48 21,48 22,48 23,48 24,48 25,47 26,47 27,47 28,47 29,46 30,46 31,46 32,46 32,45 33,45 34,45 35,45 36,44 37,44 38,43 40,43 41,42 42,42 42,41 43,41 44,41 44,40 45,39 46,39 47,38 48,37 49,36 50,36 50,35 51,34 52,34 53,33 53,32 54,32 54,31 55,30 55,29 55,28 56,28 56,27 56,26 57,26 57,25 57,24 57,23 57,22 58,22 58,21 58,20 58,19 58,18 58,17 57,16" fill="none" stroke="#00ff7f" stroke-width="3" stroke-linecap="round" stroke-linejoin="round" opacity="0.95">
    <title>4103 i:1</title>
  </polyline>
</svg>
