<?xml version="1.0" encoding="UTF-8"?>
<svg xmlns="http://www.w3.org/2000/svg" width="50" height="78" viewBox="0 0 50 78">
  <title>atom 4104 i:1</title>
  <metadata>{&quot;entityType&quot;:&quot;atom&quot;,&quot;entityId&quot;:&quot;4104&quot;,&quot;token&quot;:&quot;i:1&quot;,&quot;signature&quot;:&quot;i:1&quot;,&quot;imageName&quot;:&quot;page-003.jpg&quot;,&quot;imageId&quot;:3,&quot;bounds&quot;:{&quot;x&quot;:2166,&quot;y&quot;:2986,&quot;w&quot;:50,&quot;h&quot;:78},&quot;atoms&quot;:[{&quot;id&quot;:4104,&quot;token&quot;:&quot;i:1&quot;,&quot;particle_id&quot;:&quot;img3-m196-p4&quot;,&quot;molecule_id&quot;:&quot;img3-m196&quot;,&quot;atom_order&quot;:3}]}</metadata>
  <rect x="0" y="0" width="50" height="78" fill="#f8f0d8"/>
  <image href="file:///C:/Users/HHHES/AppData/Roaming/com.voynichlab.datasetcreator/images/1/35a70f63-88ab-4986-b441-b78046a10087.jpg" x="-2166" y="-2986" width="2972" height="3766" opacity="0.92"/>
  <rect x="0.5" y="0.5" width="49" height="77" fill="none" stroke="#111827" stroke-width="1" opacity="0.35"/>
  <polyline points="16,62 17,62 18,61 19,60 20,60 21,59 22,59 23,58 24,57 25,57 26,56 26,55 27,55 28,54 29,53 29,52 30,52 30,51 31,51 31,50 31,49 32,48 32,47 33,46 33,45 33,44 33,43 34,42 34,40 34,39 34,38 34,37 34,36 34,35 34,34 34,33 34,32 34,31 34,30 34,29 33,28 32,27 32,26 31,26 31,25 30,24 29,24 29,23 28,22 28,21 27,20 26,19 26,18 25,18 24,17 23,17 22,17 22,16" fill="none" stroke="#00ff7f" stroke-width="3" stroke-linecap="round" stroke-linejoin="round" opacity="0.95">
    <title>4104 i:1</title>
  </polyline>
</svg>
