<?xml version="1.0" encoding="UTF-8"?>
<svg xmlns="http://www.w3.org/2000/svg" width="43" height="46" viewBox="0 0 43 46">
  <title>e:1 distant-variant atom 7292</title>
  <rect x="0" y="0" width="43" height="46" fill="#17181b"/>
  <rect x="0.5" y="0.5" width="42" height="45" fill="none" stroke="#111827" stroke-width="1" opacity="0.35"/>
<polyline points="27,16 26,16 25,16 24,16 23,16 22,17 21,17 20,17 19,17 19,18 18,18 18,19 17,19 17,20 16,20 16,21 16,22 16,23 16,24 16,25 16,26 16,27 17,27 17,28 18,28 18,29 19,29 20,30 21,30 22,30 23,30 24,30 25,30 26,30" fill="none" stroke="#f2e45c" stroke-width="3" stroke-linecap="round" stroke-linejoin="round" opacity="0.95">
    <title>7292 e:1</title>
  </polyline>
</svg>
