<?xml version="1.0" encoding="UTF-8"?>
<svg xmlns="http://www.w3.org/2000/svg" width="50" height="67" viewBox="0 0 50 67">
  <title>atom 5300 h:2</title>
  <metadata>{&quot;entityType&quot;:&quot;atom&quot;,&quot;entityId&quot;:&quot;5300&quot;,&quot;token&quot;:&quot;h:2&quot;,&quot;signature&quot;:&quot;h:2&quot;,&quot;imageName&quot;:&quot;page-004.jpg&quot;,&quot;imageId&quot;:4,&quot;bounds&quot;:{&quot;x&quot;:1977,&quot;y&quot;:2032,&quot;w&quot;:50,&quot;h&quot;:67},&quot;atoms&quot;:[{&quot;id&quot;:5300,&quot;token&quot;:&quot;h:2&quot;,&quot;particle_id&quot;:&quot;img4-m12-p3&quot;,&quot;molecule_id&quot;:&quot;img4-m12&quot;,&quot;atom_order&quot;:3}]}</metadata>
  <rect x="0" y="0" width="50" height="67" fill="#f8f0d8"/>
  <image href="file:///C:/Users/HHHES/AppData/Roaming/com.voynichlab.datasetcreator/images/1/aff30327-ced8-4ab4-8c9b-190205ebe022.jpg" x="-1977" y="-2032" width="2804" height="3797" opacity="0.92"/>
  <rect x="0.5" y="0.5" width="49" height="66" fill="none" stroke="#111827" stroke-width="1" opacity="0.35"/>
  <polyline points="16,51 17,51 18,51 19,51 20,51 21,51 21,50 22,50 23,50 24,50 24,49 25,49 25,48 26,47 26,46 27,45 27,44 27,43 27,42 27,41 27,40 27,39 27,38 26,37 25,36 25,35 25,34 24,34 24,33 24,32 23,32 23,31 23,30 23,29 23,28 23,27 23,26 23,25 23,24 24,23 25,22 25,21 26,21 26,20 27,19 28,18 29,18 30,17 31,17 32,17 33,16 34,16" fill="none" stroke="#ff8c00" stroke-width="3" stroke-linecap="round" stroke-linejoin="round" opacity="0.95">
    <title>5300 h:2</title>
  </polyline>
</svg>
