<?xml version="1.0" encoding="UTF-8"?>
<svg xmlns="http://www.w3.org/2000/svg" width="40" height="71" viewBox="0 0 40 71">
  <title>atom 5301 h:2</title>
  <metadata>{&quot;entityType&quot;:&quot;atom&quot;,&quot;entityId&quot;:&quot;5301&quot;,&quot;token&quot;:&quot;h:2&quot;,&quot;signature&quot;:&quot;h:2&quot;,&quot;imageName&quot;:&quot;page-004.jpg&quot;,&quot;imageId&quot;:4,&quot;bounds&quot;:{&quot;x&quot;:1718,&quot;y&quot;:2014,&quot;w&quot;:40,&quot;h&quot;:71},&quot;atoms&quot;:[{&quot;id&quot;:5301,&quot;token&quot;:&quot;h:2&quot;,&quot;particle_id&quot;:&quot;img4-m14-p1&quot;,&quot;molecule_id&quot;:&quot;img4-m14&quot;,&quot;atom_order&quot;:3}]}</metadata>
  <rect x="0" y="0" width="40" height="71" fill="#f8f0d8"/>
  <image href="file:///C:/Users/HHHES/AppData/Roaming/com.voynichlab.datasetcreator/images/1/aff30327-ced8-4ab4-8c9b-190205ebe022.jpg" x="-1718" y="-2014" width="2804" height="3797" opacity="0.92"/>
  <rect x="0.5" y="0.5" width="39" height="70" fill="none" stroke="#111827" stroke-width="1" opacity="0.35"/>
  <polyline points="17,55 17,54 18,54 19,53 19,52 19,51 20,50 20,49 20,48 20,47 20,46 20,45 20,44 20,43 20,42 19,42 19,41 19,40 19,39 18,39 18,38 17,37 16,36 16,35 16,34 16,33 16,31 16,30 16,29 16,28 17,26 17,24 18,23 18,22 18,21 19,20 19,19 19,18 20,18 21,17 22,17 23,16 24,16" fill="none" stroke="#ff8c00" stroke-width="3" stroke-linecap="round" stroke-linejoin="round" opacity="0.95">
    <title>5301 h:2</title>
  </polyline>
</svg>
