<?xml version="1.0" encoding="UTF-8"?>
<svg xmlns="http://www.w3.org/2000/svg" width="39" height="70" viewBox="0 0 39 70">
  <title>atom 5302 h:2</title>
  <metadata>{&quot;entityType&quot;:&quot;atom&quot;,&quot;entityId&quot;:&quot;5302&quot;,&quot;token&quot;:&quot;h:2&quot;,&quot;signature&quot;:&quot;h:2&quot;,&quot;imageName&quot;:&quot;page-004.jpg&quot;,&quot;imageId&quot;:4,&quot;bounds&quot;:{&quot;x&quot;:559,&quot;y&quot;:2021,&quot;w&quot;:39,&quot;h&quot;:70},&quot;atoms&quot;:[{&quot;id&quot;:5302,&quot;token&quot;:&quot;h:2&quot;,&quot;particle_id&quot;:&quot;img4-m15-p2&quot;,&quot;molecule_id&quot;:&quot;img4-m15&quot;,&quot;atom_order&quot;:3}]}</metadata>
  <rect x="0" y="0" width="39" height="70" fill="#f8f0d8"/>
  <image href="file:///C:/Users/HHHES/AppData/Roaming/com.voynichlab.datasetcreator/images/1/aff30327-ced8-4ab4-8c9b-190205ebe022.jpg" x="-559" y="-2021" width="2804" height="3797" opacity="0.92"/>
  <rect x="0.5" y="0.5" width="38" height="69" fill="none" stroke="#111827" stroke-width="1" opacity="0.35"/>
  <polyline points="18,54 19,54 20,54 20,53 21,53 21,52 22,52 22,51 23,50 23,49 23,48 23,47 23,46 23,45 23,44 23,43 22,43 22,42 22,41 22,40 21,39 21,38 20,37 20,36 19,35 18,34 18,33 17,33 17,32 17,31 16,30 16,29 16,28 16,27 16,26 16,25 16,24 16,23 16,22 16,21 16,20 16,19 17,19 18,18 19,17 20,17 21,16" fill="none" stroke="#ff8c00" stroke-width="3" stroke-linecap="round" stroke-linejoin="round" opacity="0.95">
    <title>5302 h:2</title>
  </polyline>
</svg>
