<?xml version="1.0" encoding="UTF-8"?>
<svg xmlns="http://www.w3.org/2000/svg" width="40" height="65" viewBox="0 0 40 65">
  <title>atom 5303 h:2</title>
  <metadata>{&quot;entityType&quot;:&quot;atom&quot;,&quot;entityId&quot;:&quot;5303&quot;,&quot;token&quot;:&quot;h:2&quot;,&quot;signature&quot;:&quot;h:2&quot;,&quot;imageName&quot;:&quot;page-004.jpg&quot;,&quot;imageId&quot;:4,&quot;bounds&quot;:{&quot;x&quot;:555,&quot;y&quot;:2098,&quot;w&quot;:40,&quot;h&quot;:65},&quot;atoms&quot;:[{&quot;id&quot;:5303,&quot;token&quot;:&quot;h:2&quot;,&quot;particle_id&quot;:&quot;img4-m22-p1&quot;,&quot;molecule_id&quot;:&quot;img4-m22&quot;,&quot;atom_order&quot;:3}]}</metadata>
  <rect x="0" y="0" width="40" height="65" fill="#f8f0d8"/>
  <image href="file:///C:/Users/HHHES/AppData/Roaming/com.voynichlab.datasetcreator/images/1/aff30327-ced8-4ab4-8c9b-190205ebe022.jpg" x="-555" y="-2098" width="2804" height="3797" opacity="0.92"/>
  <rect x="0.5" y="0.5" width="39" height="64" fill="none" stroke="#111827" stroke-width="1" opacity="0.35"/>
  <polyline points="17,16 17,17 16,17 16,18 16,19 16,20 16,21 17,21 17,22 17,23 18,23 18,24 19,25 19,26 20,27 20,28 21,28 21,29 21,30 22,30 22,31 22,32 23,32 23,33 23,34 23,35 24,35 24,36 24,37 24,38 24,39 24,40 24,41 24,42 24,43 24,44 23,44 23,45 22,46 22,47 21,47 21,48 20,49 19,49" fill="none" stroke="#ff8c00" stroke-width="3" stroke-linecap="round" stroke-linejoin="round" opacity="0.95">
    <title>5303 h:2</title>
  </polyline>
</svg>
