<?xml version="1.0" encoding="UTF-8"?>
<svg xmlns="http://www.w3.org/2000/svg" width="42" height="71" viewBox="0 0 42 71">
  <title>atom 5309 h:2</title>
  <metadata>{&quot;entityType&quot;:&quot;atom&quot;,&quot;entityId&quot;:&quot;5309&quot;,&quot;token&quot;:&quot;h:2&quot;,&quot;signature&quot;:&quot;h:2&quot;,&quot;imageName&quot;:&quot;page-004.jpg&quot;,&quot;imageId&quot;:4,&quot;bounds&quot;:{&quot;x&quot;:947,&quot;y&quot;:2318,&quot;w&quot;:42,&quot;h&quot;:71},&quot;atoms&quot;:[{&quot;id&quot;:5309,&quot;token&quot;:&quot;h:2&quot;,&quot;particle_id&quot;:&quot;img4-m34-p1&quot;,&quot;molecule_id&quot;:&quot;img4-m34&quot;,&quot;atom_order&quot;:3}]}</metadata>
  <rect x="0" y="0" width="42" height="71" fill="#f8f0d8"/>
  <image href="file:///C:/Users/HHHES/AppData/Roaming/com.voynichlab.datasetcreator/images/1/aff30327-ced8-4ab4-8c9b-190205ebe022.jpg" x="-947" y="-2318" width="2804" height="3797" opacity="0.92"/>
  <rect x="0.5" y="0.5" width="41" height="70" fill="none" stroke="#111827" stroke-width="1" opacity="0.35"/>
  <polyline points="18,16 18,17 18,18 18,19 18,20 18,21 18,22 18,23 19,24 19,25 19,26 20,26 20,27 21,28 21,29 22,29 22,30 23,31 23,32 24,33 24,34 25,35 25,36 25,37 26,38 26,39 26,40 26,41 26,42 26,43 26,44 25,45 25,46 25,47 24,48 24,49 24,50 23,50 23,51 22,51 22,52 21,52 21,53 19,53 19,54 18,55 17,55 16,55" fill="none" stroke="#ff8c00" stroke-width="3" stroke-linecap="round" stroke-linejoin="round" opacity="0.95">
    <title>5309 h:2</title>
  </polyline>
</svg>
