<?xml version="1.0" encoding="UTF-8"?>
<svg xmlns="http://www.w3.org/2000/svg" width="40" height="68" viewBox="0 0 40 68">
  <title>atom 5311 h:2</title>
  <metadata>{&quot;entityType&quot;:&quot;atom&quot;,&quot;entityId&quot;:&quot;5311&quot;,&quot;token&quot;:&quot;h:2&quot;,&quot;signature&quot;:&quot;h:2&quot;,&quot;imageName&quot;:&quot;page-004.jpg&quot;,&quot;imageId&quot;:4,&quot;bounds&quot;:{&quot;x&quot;:1904,&quot;y&quot;:2371,&quot;w&quot;:40,&quot;h&quot;:68},&quot;atoms&quot;:[{&quot;id&quot;:5311,&quot;token&quot;:&quot;h:2&quot;,&quot;particle_id&quot;:&quot;img4-m33-p3&quot;,&quot;molecule_id&quot;:&quot;img4-m33&quot;,&quot;atom_order&quot;:3}]}</metadata>
  <rect x="0" y="0" width="40" height="68" fill="#f8f0d8"/>
  <image href="file:///C:/Users/HHHES/AppData/Roaming/com.voynichlab.datasetcreator/images/1/aff30327-ced8-4ab4-8c9b-190205ebe022.jpg" x="-1904" y="-2371" width="2804" height="3797" opacity="0.92"/>
  <rect x="0.5" y="0.5" width="39" height="67" fill="none" stroke="#111827" stroke-width="1" opacity="0.35"/>
  <polyline points="19,16 19,17 18,17 18,18 17,19 17,20 17,21 17,22 16,22 16,23 16,24 16,25 16,26 16,27 16,28 16,29 16,30 17,31 18,32 18,33 19,33 19,34 20,35 21,36 22,37 22,38 23,38 23,39 24,40 24,41 24,42 24,43 24,44 24,45 24,46 24,47 24,48 24,49 23,49 23,50 22,51 21,52 20,52 19,52" fill="none" stroke="#ff8c00" stroke-width="3" stroke-linecap="round" stroke-linejoin="round" opacity="0.95">
    <title>5311 h:2</title>
  </polyline>
</svg>
