<?xml version="1.0" encoding="UTF-8"?>
<svg xmlns="http://www.w3.org/2000/svg" width="40" height="75" viewBox="0 0 40 75">
  <title>atom 5312 h:2</title>
  <metadata>{&quot;entityType&quot;:&quot;atom&quot;,&quot;entityId&quot;:&quot;5312&quot;,&quot;token&quot;:&quot;h:2&quot;,&quot;signature&quot;:&quot;h:2&quot;,&quot;imageName&quot;:&quot;page-004.jpg&quot;,&quot;imageId&quot;:4,&quot;bounds&quot;:{&quot;x&quot;:1930,&quot;y&quot;:2448,&quot;w&quot;:40,&quot;h&quot;:75},&quot;atoms&quot;:[{&quot;id&quot;:5312,&quot;token&quot;:&quot;h:2&quot;,&quot;particle_id&quot;:&quot;img4-m51-p3&quot;,&quot;molecule_id&quot;:&quot;img4-m51&quot;,&quot;atom_order&quot;:3}]}</metadata>
  <rect x="0" y="0" width="40" height="75" fill="#f8f0d8"/>
  <image href="file:///C:/Users/HHHES/AppData/Roaming/com.voynichlab.datasetcreator/images/1/aff30327-ced8-4ab4-8c9b-190205ebe022.jpg" x="-1930" y="-2448" width="2804" height="3797" opacity="0.92"/>
  <rect x="0.5" y="0.5" width="39" height="74" fill="none" stroke="#111827" stroke-width="1" opacity="0.35"/>
  <polyline points="19,16 19,17 18,17 17,18 17,19 17,20 17,21 17,22 16,22 16,23 16,24 16,25 16,26 17,26 17,27 17,28 17,29 17,30 18,30 18,31 19,31 19,32 19,33 20,33 20,34 20,35 21,35 21,36 22,36 22,38 22,39 22,40 23,41 23,42 23,43 23,44 23,45 23,46 23,47 23,48 24,48 24,49 24,50 24,51 23,52 23,53 22,54 22,55 21,56 20,57 19,58 19,59" fill="none" stroke="#ff8c00" stroke-width="3" stroke-linecap="round" stroke-linejoin="round" opacity="0.95">
    <title>5312 h:2</title>
  </polyline>
</svg>
