<?xml version="1.0" encoding="UTF-8"?>
<svg xmlns="http://www.w3.org/2000/svg" width="43" height="64" viewBox="0 0 43 64">
  <title>atom 5313 h:2</title>
  <metadata>{&quot;entityType&quot;:&quot;atom&quot;,&quot;entityId&quot;:&quot;5313&quot;,&quot;token&quot;:&quot;h:2&quot;,&quot;signature&quot;:&quot;h:2&quot;,&quot;imageName&quot;:&quot;page-004.jpg&quot;,&quot;imageId&quot;:4,&quot;bounds&quot;:{&quot;x&quot;:1535,&quot;y&quot;:2433,&quot;w&quot;:43,&quot;h&quot;:64},&quot;atoms&quot;:[{&quot;id&quot;:5313,&quot;token&quot;:&quot;h:2&quot;,&quot;particle_id&quot;:&quot;img4-m45-p1&quot;,&quot;molecule_id&quot;:&quot;img4-m45&quot;,&quot;atom_order&quot;:3}]}</metadata>
  <rect x="0" y="0" width="43" height="64" fill="#f8f0d8"/>
  <image href="file:///C:/Users/HHHES/AppData/Roaming/com.voynichlab.datasetcreator/images/1/aff30327-ced8-4ab4-8c9b-190205ebe022.jpg" x="-1535" y="-2433" width="2804" height="3797" opacity="0.92"/>
  <rect x="0.5" y="0.5" width="42" height="63" fill="none" stroke="#111827" stroke-width="1" opacity="0.35"/>
  <polyline points="18,16 17,16 17,17 16,18 16,19 16,20 16,21 16,22 16,23 16,24 16,25 17,26 17,27 18,28 19,28 19,29 20,29 20,30 21,30 21,31 22,31 23,32 24,33 25,33 25,34 26,35 26,36 27,36 27,37 27,38 27,39 27,40 27,41 27,42 27,43 27,44 27,45 26,45 26,46 25,46 24,47 23,47 23,48 22,48" fill="none" stroke="#ff8c00" stroke-width="3" stroke-linecap="round" stroke-linejoin="round" opacity="0.95">
    <title>5313 h:2</title>
  </polyline>
</svg>
