<?xml version="1.0" encoding="UTF-8"?>
<svg xmlns="http://www.w3.org/2000/svg" width="42" height="72" viewBox="0 0 42 72">
  <title>atom 5314 h:2</title>
  <metadata>{&quot;entityType&quot;:&quot;atom&quot;,&quot;entityId&quot;:&quot;5314&quot;,&quot;token&quot;:&quot;h:2&quot;,&quot;signature&quot;:&quot;h:2&quot;,&quot;imageName&quot;:&quot;page-004.jpg&quot;,&quot;imageId&quot;:4,&quot;bounds&quot;:{&quot;x&quot;:1121,&quot;y&quot;:2475,&quot;w&quot;:42,&quot;h&quot;:72},&quot;atoms&quot;:[{&quot;id&quot;:5314,&quot;token&quot;:&quot;h:2&quot;,&quot;particle_id&quot;:&quot;img4-m52-p1&quot;,&quot;molecule_id&quot;:&quot;img4-m52&quot;,&quot;atom_order&quot;:3}]}</metadata>
  <rect x="0" y="0" width="42" height="72" fill="#f8f0d8"/>
  <image href="file:///C:/Users/HHHES/AppData/Roaming/com.voynichlab.datasetcreator/images/1/aff30327-ced8-4ab4-8c9b-190205ebe022.jpg" x="-1121" y="-2475" width="2804" height="3797" opacity="0.92"/>
  <rect x="0.5" y="0.5" width="41" height="71" fill="none" stroke="#111827" stroke-width="1" opacity="0.35"/>
  <polyline points="19,16 18,16 18,17 18,18 17,18 17,19 17,20 17,21 16,21 16,22 16,23 16,24 16,25 16,26 17,27 18,28 18,29 19,30 20,31 21,32 21,33 22,34 22,35 23,35 23,36 24,37 24,38 25,39 25,40 25,41 25,42 26,42 26,43 26,44 26,45 26,46 26,47 26,48 25,49 25,50 24,50 24,51 23,51 23,52 22,52 21,53 20,54 19,55 17,55 17,56" fill="none" stroke="#ff8c00" stroke-width="3" stroke-linecap="round" stroke-linejoin="round" opacity="0.95">
    <title>5314 h:2</title>
  </polyline>
</svg>
