<?xml version="1.0" encoding="UTF-8"?>
<svg xmlns="http://www.w3.org/2000/svg" width="41" height="70" viewBox="0 0 41 70">
  <title>atom 5316 h:2</title>
  <metadata>{&quot;entityType&quot;:&quot;atom&quot;,&quot;entityId&quot;:&quot;5316&quot;,&quot;token&quot;:&quot;h:2&quot;,&quot;signature&quot;:&quot;h:2&quot;,&quot;imageName&quot;:&quot;page-004.jpg&quot;,&quot;imageId&quot;:4,&quot;bounds&quot;:{&quot;x&quot;:1834,&quot;y&quot;:2517,&quot;w&quot;:41,&quot;h&quot;:70},&quot;atoms&quot;:[{&quot;id&quot;:5316,&quot;token&quot;:&quot;h:2&quot;,&quot;particle_id&quot;:&quot;img4-m58-p1&quot;,&quot;molecule_id&quot;:&quot;img4-m58&quot;,&quot;atom_order&quot;:3}]}</metadata>
  <rect x="0" y="0" width="41" height="70" fill="#f8f0d8"/>
  <image href="file:///C:/Users/HHHES/AppData/Roaming/com.voynichlab.datasetcreator/images/1/aff30327-ced8-4ab4-8c9b-190205ebe022.jpg" x="-1834" y="-2517" width="2804" height="3797" opacity="0.92"/>
  <rect x="0.5" y="0.5" width="40" height="69" fill="none" stroke="#111827" stroke-width="1" opacity="0.35"/>
  <polyline points="20,16 19,16 19,17 18,17 18,18 18,19 17,19 17,20 17,21 17,22 16,22 16,23 16,24 16,25 16,26 16,27 16,28 17,29 17,30 18,30 18,31 19,32 19,33 20,33 20,34 21,34 22,35 22,36 23,36 23,37 23,38 24,38 24,39 25,39 25,40 25,41 25,42 25,43 25,44 25,45 25,46 24,47 24,48 24,49 24,50 24,51 24,52 23,52 23,53 22,53 22,54" fill="none" stroke="#ff8c00" stroke-width="3" stroke-linecap="round" stroke-linejoin="round" opacity="0.95">
    <title>5316 h:2</title>
  </polyline>
</svg>
