<?xml version="1.0" encoding="UTF-8"?>
<svg xmlns="http://www.w3.org/2000/svg" width="43" height="68" viewBox="0 0 43 68">
  <title>atom 5317 h:2</title>
  <metadata>{&quot;entityType&quot;:&quot;atom&quot;,&quot;entityId&quot;:&quot;5317&quot;,&quot;token&quot;:&quot;h:2&quot;,&quot;signature&quot;:&quot;h:2&quot;,&quot;imageName&quot;:&quot;page-004.jpg&quot;,&quot;imageId&quot;:4,&quot;bounds&quot;:{&quot;x&quot;:2167,&quot;y&quot;:2539,&quot;w&quot;:43,&quot;h&quot;:68},&quot;atoms&quot;:[{&quot;id&quot;:5317,&quot;token&quot;:&quot;h:2&quot;,&quot;particle_id&quot;:&quot;img4-m63-p1&quot;,&quot;molecule_id&quot;:&quot;img4-m63&quot;,&quot;atom_order&quot;:3}]}</metadata>
  <rect x="0" y="0" width="43" height="68" fill="#f8f0d8"/>
  <image href="file:///C:/Users/HHHES/AppData/Roaming/com.voynichlab.datasetcreator/images/1/aff30327-ced8-4ab4-8c9b-190205ebe022.jpg" x="-2167" y="-2539" width="2804" height="3797" opacity="0.92"/>
  <rect x="0.5" y="0.5" width="42" height="67" fill="none" stroke="#111827" stroke-width="1" opacity="0.35"/>
  <polyline points="21,16 20,16 19,16 19,17 18,17 18,18 18,19 17,19 17,20 16,20 16,21 16,22 16,23 16,24 16,25 16,26 17,26 17,27 18,28 19,29 19,30 20,31 21,32 22,32 23,33 23,34 24,35 25,36 25,37 26,37 26,38 26,39 26,40 26,41 27,42 27,43 27,44 26,45 26,46 25,47 25,48 24,49 24,50 23,50 23,51 22,51 21,52 20,52 19,52 18,52" fill="none" stroke="#ff8c00" stroke-width="3" stroke-linecap="round" stroke-linejoin="round" opacity="0.95">
    <title>5317 h:2</title>
  </polyline>
</svg>
