<?xml version="1.0" encoding="UTF-8"?>
<svg xmlns="http://www.w3.org/2000/svg" width="44" height="72" viewBox="0 0 44 72">
  <title>atom 5318 h:2</title>
  <metadata>{&quot;entityType&quot;:&quot;atom&quot;,&quot;entityId&quot;:&quot;5318&quot;,&quot;token&quot;:&quot;h:2&quot;,&quot;signature&quot;:&quot;h:2&quot;,&quot;imageName&quot;:&quot;page-004.jpg&quot;,&quot;imageId&quot;:4,&quot;bounds&quot;:{&quot;x&quot;:2399,&quot;y&quot;:2540,&quot;w&quot;:44,&quot;h&quot;:72},&quot;atoms&quot;:[{&quot;id&quot;:5318,&quot;token&quot;:&quot;h:2&quot;,&quot;particle_id&quot;:&quot;img4-m63-p6&quot;,&quot;molecule_id&quot;:&quot;img4-m63&quot;,&quot;atom_order&quot;:3}]}</metadata>
  <rect x="0" y="0" width="44" height="72" fill="#f8f0d8"/>
  <image href="file:///C:/Users/HHHES/AppData/Roaming/com.voynichlab.datasetcreator/images/1/aff30327-ced8-4ab4-8c9b-190205ebe022.jpg" x="-2399" y="-2540" width="2804" height="3797" opacity="0.92"/>
  <rect x="0.5" y="0.5" width="43" height="71" fill="none" stroke="#111827" stroke-width="1" opacity="0.35"/>
  <polyline points="25,16 24,16 23,17 22,17 22,18 21,18 20,19 20,20 19,21 19,22 19,23 19,24 19,25 19,26 20,27 20,28 20,29 21,30 22,30 23,31 24,32 24,33 25,34 25,35 26,36 26,37 27,38 27,39 27,40 28,41 28,43 28,44 28,45 28,46 28,47 28,48 27,48 27,49 27,50 26,50 26,51 25,51 25,52 24,52 24,53 23,54 22,54 21,55 19,55 18,55 17,55 16,55 16,56" fill="none" stroke="#ff8c00" stroke-width="3" stroke-linecap="round" stroke-linejoin="round" opacity="0.95">
    <title>5318 h:2</title>
  </polyline>
</svg>
