<?xml version="1.0" encoding="UTF-8"?>
<svg xmlns="http://www.w3.org/2000/svg" width="40" height="67" viewBox="0 0 40 67">
  <title>atom 5319 h:2</title>
  <metadata>{&quot;entityType&quot;:&quot;atom&quot;,&quot;entityId&quot;:&quot;5319&quot;,&quot;token&quot;:&quot;h:2&quot;,&quot;signature&quot;:&quot;h:2&quot;,&quot;imageName&quot;:&quot;page-004.jpg&quot;,&quot;imageId&quot;:4,&quot;bounds&quot;:{&quot;x&quot;:2253,&quot;y&quot;:2611,&quot;w&quot;:40,&quot;h&quot;:67},&quot;atoms&quot;:[{&quot;id&quot;:5319,&quot;token&quot;:&quot;h:2&quot;,&quot;particle_id&quot;:&quot;img4-m70-p1&quot;,&quot;molecule_id&quot;:&quot;img4-m70&quot;,&quot;atom_order&quot;:3}]}</metadata>
  <rect x="0" y="0" width="40" height="67" fill="#f8f0d8"/>
  <image href="file:///C:/Users/HHHES/AppData/Roaming/com.voynichlab.datasetcreator/images/1/aff30327-ced8-4ab4-8c9b-190205ebe022.jpg" x="-2253" y="-2611" width="2804" height="3797" opacity="0.92"/>
  <rect x="0.5" y="0.5" width="39" height="66" fill="none" stroke="#111827" stroke-width="1" opacity="0.35"/>
  <polyline points="19,16 19,17 20,17 19,17 18,18 17,19 17,20 17,21 17,22 17,23 16,24 16,25 16,26 16,27 16,28 16,29 17,30 18,31 18,32 19,32 19,33 19,34 20,34 21,35 22,36 22,37 23,37 23,38 23,39 23,40 24,40 24,41 24,42 24,43 24,44 23,44 23,45 23,46 23,47 22,47 22,48 22,49 22,50 21,50 21,51 20,51" fill="none" stroke="#ff8c00" stroke-width="3" stroke-linecap="round" stroke-linejoin="round" opacity="0.95">
    <title>5319 h:2</title>
  </polyline>
</svg>
