<?xml version="1.0" encoding="UTF-8"?>
<svg xmlns="http://www.w3.org/2000/svg" width="40" height="69" viewBox="0 0 40 69">
  <title>atom 5320 h:2</title>
  <metadata>{&quot;entityType&quot;:&quot;atom&quot;,&quot;entityId&quot;:&quot;5320&quot;,&quot;token&quot;:&quot;h:2&quot;,&quot;signature&quot;:&quot;h:2&quot;,&quot;imageName&quot;:&quot;page-004.jpg&quot;,&quot;imageId&quot;:4,&quot;bounds&quot;:{&quot;x&quot;:2000,&quot;y&quot;:2596,&quot;w&quot;:40,&quot;h&quot;:69},&quot;atoms&quot;:[{&quot;id&quot;:5320,&quot;token&quot;:&quot;h:2&quot;,&quot;particle_id&quot;:&quot;img4-m71-p3&quot;,&quot;molecule_id&quot;:&quot;img4-m71&quot;,&quot;atom_order&quot;:3}]}</metadata>
  <rect x="0" y="0" width="40" height="69" fill="#f8f0d8"/>
  <image href="file:///C:/Users/HHHES/AppData/Roaming/com.voynichlab.datasetcreator/images/1/aff30327-ced8-4ab4-8c9b-190205ebe022.jpg" x="-2000" y="-2596" width="2804" height="3797" opacity="0.92"/>
  <rect x="0.5" y="0.5" width="39" height="68" fill="none" stroke="#111827" stroke-width="1" opacity="0.35"/>
  <polyline points="17,16 16,16 16,17 16,18 16,19 16,20 16,21 16,22 16,23 17,24 17,25 18,27 19,28 19,29 19,30 19,31 20,32 21,32 21,33 21,34 22,34 22,36 23,38 24,40 24,41 24,43 24,45 24,46 24,47 23,48 23,49 22,49 21,49 21,50 20,51 19,51 19,52 18,52 18,53 17,53" fill="none" stroke="#ff8c00" stroke-width="3" stroke-linecap="round" stroke-linejoin="round" opacity="0.95">
    <title>5320 h:2</title>
  </polyline>
</svg>
