<?xml version="1.0" encoding="UTF-8"?>
<svg xmlns="http://www.w3.org/2000/svg" width="43" height="74" viewBox="0 0 43 74">
  <title>atom 5322 h:2</title>
  <metadata>{&quot;entityType&quot;:&quot;atom&quot;,&quot;entityId&quot;:&quot;5322&quot;,&quot;token&quot;:&quot;h:2&quot;,&quot;signature&quot;:&quot;h:2&quot;,&quot;imageName&quot;:&quot;page-004.jpg&quot;,&quot;imageId&quot;:4,&quot;bounds&quot;:{&quot;x&quot;:1332,&quot;y&quot;:2653,&quot;w&quot;:43,&quot;h&quot;:74},&quot;atoms&quot;:[{&quot;id&quot;:5322,&quot;token&quot;:&quot;h:2&quot;,&quot;particle_id&quot;:&quot;img4-m78-p1&quot;,&quot;molecule_id&quot;:&quot;img4-m78&quot;,&quot;atom_order&quot;:3}]}</metadata>
  <rect x="0" y="0" width="43" height="74" fill="#f8f0d8"/>
  <image href="file:///C:/Users/HHHES/AppData/Roaming/com.voynichlab.datasetcreator/images/1/aff30327-ced8-4ab4-8c9b-190205ebe022.jpg" x="-1332" y="-2653" width="2804" height="3797" opacity="0.92"/>
  <rect x="0.5" y="0.5" width="42" height="73" fill="none" stroke="#111827" stroke-width="1" opacity="0.35"/>
  <polyline points="21,16 20,16 19,16 19,17 18,17 18,18 18,19 17,20 17,21 16,21 16,22 16,23 16,24 16,25 16,26 17,27 17,28 18,29 19,30 20,31 21,32 21,33 22,34 23,35 24,36 25,37 26,38 26,39 27,40 27,41 27,42 27,43 27,44 27,46 27,47 27,48 26,49 26,50 25,50 25,51 24,52 24,53 24,54 23,55 22,56 21,56 20,57 19,57 18,58 16,58" fill="none" stroke="#ff8c00" stroke-width="3" stroke-linecap="round" stroke-linejoin="round" opacity="0.95">
    <title>5322 h:2</title>
  </polyline>
</svg>
