<?xml version="1.0" encoding="UTF-8"?>
<svg xmlns="http://www.w3.org/2000/svg" width="43" height="68" viewBox="0 0 43 68">
  <title>atom 5323 h:2</title>
  <metadata>{&quot;entityType&quot;:&quot;atom&quot;,&quot;entityId&quot;:&quot;5323&quot;,&quot;token&quot;:&quot;h:2&quot;,&quot;signature&quot;:&quot;h:2&quot;,&quot;imageName&quot;:&quot;page-004.jpg&quot;,&quot;imageId&quot;:4,&quot;bounds&quot;:{&quot;x&quot;:1719,&quot;y&quot;:2661,&quot;w&quot;:43,&quot;h&quot;:68},&quot;atoms&quot;:[{&quot;id&quot;:5323,&quot;token&quot;:&quot;h:2&quot;,&quot;particle_id&quot;:&quot;img4-m79-p1&quot;,&quot;molecule_id&quot;:&quot;img4-m79&quot;,&quot;atom_order&quot;:3}]}</metadata>
  <rect x="0" y="0" width="43" height="68" fill="#f8f0d8"/>
  <image href="file:///C:/Users/HHHES/AppData/Roaming/com.voynichlab.datasetcreator/images/1/aff30327-ced8-4ab4-8c9b-190205ebe022.jpg" x="-1719" y="-2661" width="2804" height="3797" opacity="0.92"/>
  <rect x="0.5" y="0.5" width="42" height="67" fill="none" stroke="#111827" stroke-width="1" opacity="0.35"/>
  <polyline points="19,16 18,16 18,17 18,18 17,19 17,20 16,20 16,21 16,22 16,23 16,24 16,25 16,26 16,27 17,28 18,29 19,31 20,32 21,33 22,35 22,36 23,37 24,39 25,40 26,41 26,42 26,43 26,44 26,45 27,47 27,48 27,49 26,50 26,51 25,51 24,51 23,52 22,52" fill="none" stroke="#ff8c00" stroke-width="3" stroke-linecap="round" stroke-linejoin="round" opacity="0.95">
    <title>5323 h:2</title>
  </polyline>
</svg>
