<?xml version="1.0" encoding="UTF-8"?>
<svg xmlns="http://www.w3.org/2000/svg" width="40" height="71" viewBox="0 0 40 71">
  <title>atom 5324 h:2</title>
  <metadata>{&quot;entityType&quot;:&quot;atom&quot;,&quot;entityId&quot;:&quot;5324&quot;,&quot;token&quot;:&quot;h:2&quot;,&quot;signature&quot;:&quot;h:2&quot;,&quot;imageName&quot;:&quot;page-004.jpg&quot;,&quot;imageId&quot;:4,&quot;bounds&quot;:{&quot;x&quot;:2143,&quot;y&quot;:2680,&quot;w&quot;:40,&quot;h&quot;:71},&quot;atoms&quot;:[{&quot;id&quot;:5324,&quot;token&quot;:&quot;h:2&quot;,&quot;particle_id&quot;:&quot;img4-m82-p1&quot;,&quot;molecule_id&quot;:&quot;img4-m82&quot;,&quot;atom_order&quot;:3}]}</metadata>
  <rect x="0" y="0" width="40" height="71" fill="#f8f0d8"/>
  <image href="file:///C:/Users/HHHES/AppData/Roaming/com.voynichlab.datasetcreator/images/1/aff30327-ced8-4ab4-8c9b-190205ebe022.jpg" x="-2143" y="-2680" width="2804" height="3797" opacity="0.92"/>
  <rect x="0.5" y="0.5" width="39" height="70" fill="none" stroke="#111827" stroke-width="1" opacity="0.35"/>
  <polyline points="24,16 23,16 22,16 22,17 20,17 19,18 18,18 18,19 17,19 17,20 16,21 16,22 16,23 16,24 16,25 16,26 16,27 16,28 16,29 17,30 18,32 18,33 19,33 19,34 19,35 19,36 19,37 20,37 20,38 21,39 21,40 22,41 22,42 22,43 22,44 23,45 23,46 23,47 23,48 23,49 23,50 23,51 23,52 23,53 22,54 21,55" fill="none" stroke="#ff8c00" stroke-width="3" stroke-linecap="round" stroke-linejoin="round" opacity="0.95">
    <title>5324 h:2</title>
  </polyline>
</svg>
