<?xml version="1.0" encoding="UTF-8"?>
<svg xmlns="http://www.w3.org/2000/svg" width="44" height="75" viewBox="0 0 44 75">
  <title>atom 5325 h:2</title>
  <metadata>{&quot;entityType&quot;:&quot;atom&quot;,&quot;entityId&quot;:&quot;5325&quot;,&quot;token&quot;:&quot;h:2&quot;,&quot;signature&quot;:&quot;h:2&quot;,&quot;imageName&quot;:&quot;page-004.jpg&quot;,&quot;imageId&quot;:4,&quot;bounds&quot;:{&quot;x&quot;:2385,&quot;y&quot;:2683,&quot;w&quot;:44,&quot;h&quot;:75},&quot;atoms&quot;:[{&quot;id&quot;:5325,&quot;token&quot;:&quot;h:2&quot;,&quot;particle_id&quot;:&quot;img4-m84-p4&quot;,&quot;molecule_id&quot;:&quot;img4-m84&quot;,&quot;atom_order&quot;:3}]}</metadata>
  <rect x="0" y="0" width="44" height="75" fill="#f8f0d8"/>
  <image href="file:///C:/Users/HHHES/AppData/Roaming/com.voynichlab.datasetcreator/images/1/aff30327-ced8-4ab4-8c9b-190205ebe022.jpg" x="-2385" y="-2683" width="2804" height="3797" opacity="0.92"/>
  <rect x="0.5" y="0.5" width="43" height="74" fill="none" stroke="#111827" stroke-width="1" opacity="0.35"/>
  <polyline points="28,16 27,16 26,17 25,17 24,18 24,19 24,20 23,20 23,21 23,22 23,23 23,24 23,25 23,26 23,27 23,28 23,29 23,30 24,31 24,32 24,33 25,33 25,34 25,35 25,36 26,37 26,38 26,39 27,40 27,41 27,42 27,43 27,44 27,45 27,46 27,47 27,48 26,49 26,50 26,51 25,51 25,52 24,53 24,54 23,54 23,55 22,56 22,57 21,57 21,58 20,58 19,59 18,59 17,59 16,59" fill="none" stroke="#ff8c00" stroke-width="3" stroke-linecap="round" stroke-linejoin="round" opacity="0.95">
    <title>5325 h:2</title>
  </polyline>
</svg>
