<?xml version="1.0" encoding="UTF-8"?>
<svg xmlns="http://www.w3.org/2000/svg" width="40" height="65" viewBox="0 0 40 65">
  <title>atom 5326 h:2</title>
  <metadata>{&quot;entityType&quot;:&quot;atom&quot;,&quot;entityId&quot;:&quot;5326&quot;,&quot;token&quot;:&quot;h:2&quot;,&quot;signature&quot;:&quot;h:2&quot;,&quot;imageName&quot;:&quot;page-004.jpg&quot;,&quot;imageId&quot;:4,&quot;bounds&quot;:{&quot;x&quot;:1993,&quot;y&quot;:2771,&quot;w&quot;:40,&quot;h&quot;:65},&quot;atoms&quot;:[{&quot;id&quot;:5326,&quot;token&quot;:&quot;h:2&quot;,&quot;particle_id&quot;:&quot;img4-m90-p3&quot;,&quot;molecule_id&quot;:&quot;img4-m90&quot;,&quot;atom_order&quot;:3}]}</metadata>
  <rect x="0" y="0" width="40" height="65" fill="#f8f0d8"/>
  <image href="file:///C:/Users/HHHES/AppData/Roaming/com.voynichlab.datasetcreator/images/1/aff30327-ced8-4ab4-8c9b-190205ebe022.jpg" x="-1993" y="-2771" width="2804" height="3797" opacity="0.92"/>
  <rect x="0.5" y="0.5" width="39" height="64" fill="none" stroke="#111827" stroke-width="1" opacity="0.35"/>
  <polyline points="19,16 18,16 18,17 18,18 17,18 17,19 17,20 17,21 16,21 16,22 16,23 16,24 16,25 17,26 17,27 18,28 19,28 19,29 20,30 21,30 21,31 22,32 23,33 23,34 23,35 24,36 24,37 24,38 24,39 24,40 24,41 23,42 23,43 23,44 22,45 22,46 21,46 21,47 20,48 19,48 18,48 18,49 17,49 16,49" fill="none" stroke="#ff8c00" stroke-width="3" stroke-linecap="round" stroke-linejoin="round" opacity="0.95">
    <title>5326 h:2</title>
  </polyline>
</svg>
