<?xml version="1.0" encoding="UTF-8"?>
<svg xmlns="http://www.w3.org/2000/svg" width="41" height="68" viewBox="0 0 41 68">
  <title>atom 5328 h:2</title>
  <metadata>{&quot;entityType&quot;:&quot;atom&quot;,&quot;entityId&quot;:&quot;5328&quot;,&quot;token&quot;:&quot;h:2&quot;,&quot;signature&quot;:&quot;h:2&quot;,&quot;imageName&quot;:&quot;page-004.jpg&quot;,&quot;imageId&quot;:4,&quot;bounds&quot;:{&quot;x&quot;:1335,&quot;y&quot;:2728,&quot;w&quot;:41,&quot;h&quot;:68},&quot;atoms&quot;:[{&quot;id&quot;:5328,&quot;token&quot;:&quot;h:2&quot;,&quot;particle_id&quot;:&quot;img4-m89-p3&quot;,&quot;molecule_id&quot;:&quot;img4-m89&quot;,&quot;atom_order&quot;:3}]}</metadata>
  <rect x="0" y="0" width="41" height="68" fill="#f8f0d8"/>
  <image href="file:///C:/Users/HHHES/AppData/Roaming/com.voynichlab.datasetcreator/images/1/aff30327-ced8-4ab4-8c9b-190205ebe022.jpg" x="-1335" y="-2728" width="2804" height="3797" opacity="0.92"/>
  <rect x="0.5" y="0.5" width="40" height="67" fill="none" stroke="#111827" stroke-width="1" opacity="0.35"/>
  <polyline points="18,16 17,16 17,17 16,17 16,18 16,19 16,20 16,21 17,22 17,23 17,24 18,25 18,26 19,28 19,29 20,29 20,30 21,31 21,32 22,33 23,35 23,36 24,36 24,37 25,38 25,39 25,41 25,42 25,43 25,44 25,45 25,46 25,47 24,48 23,49 23,50 22,50 22,51 21,51 20,51 19,52 18,52 17,52 16,52" fill="none" stroke="#ff8c00" stroke-width="3" stroke-linecap="round" stroke-linejoin="round" opacity="0.95">
    <title>5328 h:2</title>
  </polyline>
</svg>
