<?xml version="1.0" encoding="UTF-8"?>
<svg xmlns="http://www.w3.org/2000/svg" width="39" height="68" viewBox="0 0 39 68">
  <title>atom 5349 h:2</title>
  <metadata>{&quot;entityType&quot;:&quot;atom&quot;,&quot;entityId&quot;:&quot;5349&quot;,&quot;token&quot;:&quot;h:2&quot;,&quot;signature&quot;:&quot;h:2&quot;,&quot;imageName&quot;:&quot;page-004.jpg&quot;,&quot;imageId&quot;:4,&quot;bounds&quot;:{&quot;x&quot;:2269,&quot;y&quot;:2135,&quot;w&quot;:39,&quot;h&quot;:68},&quot;atoms&quot;:[{&quot;id&quot;:5349,&quot;token&quot;:&quot;h:2&quot;,&quot;particle_id&quot;:&quot;img4-m28-p3&quot;,&quot;molecule_id&quot;:&quot;img4-m28&quot;,&quot;atom_order&quot;:3}]}</metadata>
  <rect x="0" y="0" width="39" height="68" fill="#f8f0d8"/>
  <image href="file:///C:/Users/HHHES/AppData/Roaming/com.voynichlab.datasetcreator/images/1/aff30327-ced8-4ab4-8c9b-190205ebe022.jpg" x="-2269" y="-2135" width="2804" height="3797" opacity="0.92"/>
  <rect x="0.5" y="0.5" width="38" height="67" fill="none" stroke="#111827" stroke-width="1" opacity="0.35"/>
  <polyline points="20,52 20,51 21,51 21,50 22,50 22,49 23,49 23,48 23,47 23,46 23,45 23,44 23,43 23,42 23,41 23,40 23,39 22,39 22,38 22,37 21,36 21,35 20,34 20,33 19,33 19,32 18,31 18,30 18,29 17,29 17,28 17,27 16,27 16,26 16,25 16,24 16,23 16,22 16,21 16,20 16,19 17,19 17,18 18,18 18,17 20,16 21,16" fill="none" stroke="#ff8c00" stroke-width="3" stroke-linecap="round" stroke-linejoin="round" opacity="0.95">
    <title>5349 h:2</title>
  </polyline>
</svg>
