<?xml version="1.0" encoding="UTF-8"?>
<svg xmlns="http://www.w3.org/2000/svg" width="38" height="67" viewBox="0 0 38 67">
  <title>atom 5352 h:2</title>
  <metadata>{&quot;entityType&quot;:&quot;atom&quot;,&quot;entityId&quot;:&quot;5352&quot;,&quot;token&quot;:&quot;h:2&quot;,&quot;signature&quot;:&quot;h:2&quot;,&quot;imageName&quot;:&quot;page-004.jpg&quot;,&quot;imageId&quot;:4,&quot;bounds&quot;:{&quot;x&quot;:1955,&quot;y&quot;:2169,&quot;w&quot;:38,&quot;h&quot;:67},&quot;atoms&quot;:[{&quot;id&quot;:5352,&quot;token&quot;:&quot;h:2&quot;,&quot;particle_id&quot;:&quot;img4-m29-p3&quot;,&quot;molecule_id&quot;:&quot;img4-m29&quot;,&quot;atom_order&quot;:3}]}</metadata>
  <rect x="0" y="0" width="38" height="67" fill="#f8f0d8"/>
  <image href="file:///C:/Users/HHHES/AppData/Roaming/com.voynichlab.datasetcreator/images/1/aff30327-ced8-4ab4-8c9b-190205ebe022.jpg" x="-1955" y="-2169" width="2804" height="3797" opacity="0.92"/>
  <rect x="0.5" y="0.5" width="37" height="66" fill="none" stroke="#111827" stroke-width="1" opacity="0.35"/>
  <polyline points="21,16 20,16 19,17 18,17 18,18 18,19 17,19 17,20 17,21 17,22 17,23 16,24 16,25 16,26 16,27 16,28 16,29 17,30 17,31 18,32 18,33 18,34 19,34 19,35 19,36 19,37 20,38 20,39 20,40 21,41 21,42 21,43 21,44 21,45 22,45 22,46 22,47 22,48 22,49 22,50 21,51 20,51" fill="none" stroke="#ff8c00" stroke-width="3" stroke-linecap="round" stroke-linejoin="round" opacity="0.95">
    <title>5352 h:2</title>
  </polyline>
</svg>
