<?xml version="1.0" encoding="UTF-8"?>
<svg xmlns="http://www.w3.org/2000/svg" width="70" height="70" viewBox="0 0 70 70">
  <title>particle img5-m29-p3 f:1 i:1 d:1</title>
  <metadata>{&quot;entityType&quot;:&quot;particle&quot;,&quot;entityId&quot;:&quot;img5-m29-p3&quot;,&quot;token&quot;:&quot;f:1 i:1 d:1&quot;,&quot;signature&quot;:&quot;f:1 i:1 d:1&quot;,&quot;imageName&quot;:&quot;page-005.jpg&quot;,&quot;imageId&quot;:5,&quot;bounds&quot;:{&quot;x&quot;:1528,&quot;y&quot;:815,&quot;w&quot;:70,&quot;h&quot;:70},&quot;atoms&quot;:[{&quot;id&quot;:6135,&quot;token&quot;:&quot;f:1&quot;,&quot;particle_id&quot;:&quot;img5-m29-p3&quot;,&quot;molecule_id&quot;:&quot;img5-m29&quot;,&quot;atom_order&quot;:1},{&quot;id&quot;:6273,&quot;token&quot;:&quot;i:1&quot;,&quot;particle_id&quot;:&quot;img5-m29-p3&quot;,&quot;molecule_id&quot;:&quot;img5-m29&quot;,&quot;atom_order&quot;:2},{&quot;id&quot;:6333,&quot;token&quot;:&quot;d:1&quot;,&quot;particle_id&quot;:&quot;img5-m29-p3&quot;,&quot;molecule_id&quot;:&quot;img5-m29&quot;,&quot;atom_order&quot;:3}]}</metadata>
  <rect x="0" y="0" width="70" height="70" fill="#f8f0d8"/>
  <image href="file:///C:/Users/HHHES/AppData/Roaming/com.voynichlab.datasetcreator/images/1/a6cd3b6e-2a78-4b30-a4be-5d186aea258e.jpg" x="-1528" y="-815" width="2691" height="3770" opacity="0.92"/>
  <rect x="0.5" y="0.5" width="69" height="69" fill="none" stroke="#111827" stroke-width="1" opacity="0.35"/>
  <polyline points="27,33 27,34 27,35 28,35 28,36 28,37 29,37 29,38 30,39 30,40 31,40 31,41 32,42 32,43 33,43 33,44 34,44 34,45 35,45 35,46 35,47 36,47 36,48 36,49 37,49 37,50 38,50 38,51 39,52 39,53 40,53 40,54" fill="none" stroke="#00a2ff" stroke-width="3" stroke-linecap="round" stroke-linejoin="round" opacity="0.95">
    <title>6135 f:1</title>
  </polyline>
  <polyline points="40,54 41,54 41,53 42,53 43,53 44,53 44,52 45,52 45,51 46,51 47,51 47,50 48,50 49,50 49,49 50,48 50,47 51,47 51,46 52,45 52,44 53,44 53,43 53,42 54,41 54,40 54,39 54,38 54,37 54,36 54,35 54,34 54,33 54,32 54,31 54,30 54,29 53,29 53,28 53,27 52,27 52,26 51,25 51,24 50,24 50,23 49,23 48,22 47,22 47,21 47,20 46,20 45,20 45,19 44,19" fill="none" stroke="#00ff7f" stroke-width="3" stroke-linecap="round" stroke-linejoin="round" opacity="0.95">
    <title>6273 i:1</title>
  </polyline>
  <polyline points="16,22 17,21 18,20 18,19 19,19 20,18 21,18 21,17 22,17 23,17 24,16 25,16 26,16 27,16 29,16 30,16 31,16 32,16 33,16 34,16 35,16 36,16 37,16 38,16 39,16 39,17 40,17 41,17 42,17 43,18 44,18 45,18 46,19 47,20 47,21 48,21 48,22" fill="none" stroke="#ff2d55" stroke-width="3" stroke-linecap="round" stroke-linejoin="round" opacity="0.95">
    <title>6333 d:1</title>
  </polyline>
</svg>
