<?xml version="1.0" encoding="UTF-8"?>
<svg xmlns="http://www.w3.org/2000/svg" width="67" height="85" viewBox="0 0 67 85">
  <title>particle img5-m79-p2 a:1 b:1 c:1 a:1</title>
  <metadata>{&quot;entityType&quot;:&quot;particle&quot;,&quot;entityId&quot;:&quot;img5-m79-p2&quot;,&quot;token&quot;:&quot;a:1 b:1 c:1 a:1&quot;,&quot;signature&quot;:&quot;a:1 b:1 c:1 a:1&quot;,&quot;imageName&quot;:&quot;page-005.jpg&quot;,&quot;imageId&quot;:5,&quot;bounds&quot;:{&quot;x&quot;:1206,&quot;y&quot;:2614,&quot;w&quot;:67,&quot;h&quot;:85},&quot;atoms&quot;:[{&quot;id&quot;:5967,&quot;token&quot;:&quot;a:1&quot;,&quot;particle_id&quot;:&quot;img5-m79-p2&quot;,&quot;molecule_id&quot;:&quot;img5-m79&quot;,&quot;atom_order&quot;:1},{&quot;id&quot;:5997,&quot;token&quot;:&quot;b:1&quot;,&quot;particle_id&quot;:&quot;img5-m79-p2&quot;,&quot;molecule_id&quot;:&quot;img5-m79&quot;,&quot;atom_order&quot;:2},{&quot;id&quot;:6042,&quot;token&quot;:&quot;c:1&quot;,&quot;particle_id&quot;:&quot;img5-m79-p2&quot;,&quot;molecule_id&quot;:&quot;img5-m79&quot;,&quot;atom_order&quot;:3},{&quot;id&quot;:5968,&quot;token&quot;:&quot;a:1&quot;,&quot;particle_id&quot;:&quot;img5-m79-p2&quot;,&quot;molecule_id&quot;:&quot;img5-m79&quot;,&quot;atom_order&quot;:4}]}</metadata>
  <rect x="0" y="0" width="67" height="85" fill="#f8f0d8"/>
  <image href="file:///C:/Users/HHHES/AppData/Roaming/com.voynichlab.datasetcreator/images/1/a6cd3b6e-2a78-4b30-a4be-5d186aea258e.jpg" x="-1206" y="-2614" width="2691" height="3770" opacity="0.92"/>
  <rect x="0.5" y="0.5" width="66" height="84" fill="none" stroke="#111827" stroke-width="1" opacity="0.35"/>
  <polyline points="18,16 18,17 18,18 18,19 18,20 18,21 18,22 18,23 18,24 18,25 18,26 18,27 18,28 18,29 18,30 18,31 18,32 18,34 18,35 18,36 18,37 18,38 18,39 18,40 18,41 18,43 18,44 18,45 18,46 18,47 18,48 18,49 18,50 18,51 18,52 18,54 18,55 18,57 17,58 17,59 17,60 17,61 17,62 17,63 17,64 17,65 17,66 17,67 17,68 17,69 16,69" fill="none" stroke="#00f0b5" stroke-width="3" stroke-linecap="round" stroke-linejoin="round" opacity="0.95">
    <title>5967 a:1</title>
  </polyline>
  <polyline points="17,25 17,26 17,27 17,28 17,29 18,30 18,31 18,32 19,32 20,33 20,34 21,34 22,35 23,36 24,36 25,36 26,37 27,37 28,37 29,37 31,37 32,38 33,38 34,38 34,37 35,37 36,37 37,37 38,37 38,36 39,36 40,36 41,36 42,35 43,35 43,34 44,34 45,34 46,34 46,33 47,33 48,32 49,32 49,31 50,31" fill="none" stroke="#2f7df6" stroke-width="3" stroke-linecap="round" stroke-linejoin="round" opacity="0.95">
    <title>5997 b:1</title>
  </polyline>
  <polyline points="33,24 33,25 32,25 32,26 32,27 31,27 31,28 31,29 31,30 31,31 31,32 31,33 31,34 32,34 32,35 33,35 33,36 34,37 35,37 36,37 37,37 37,38 38,38 39,38 40,38 41,38 42,38 43,38 44,38 45,38 45,37 46,37 47,37 47,36 47,35 48,35 48,34 49,34 49,33 49,32 50,32 50,31 50,30 51,30 51,29 51,28 51,27 51,26 51,25 51,24 50,24 50,23 50,22 49,22 49,21 48,21 48,20 47,20 47,19 46,19 45,19 45,18 44,18 43,18 42,18 41,18 40,18 39,18 38,18 37,19 36,19 36,20 35,20 35,21 34,21 33,21 33,22 32,22 32,23 32,24" fill="none" stroke="#8aff00" stroke-width="3" stroke-linecap="round" stroke-linejoin="round" opacity="0.95">
    <title>6042 c:1</title>
  </polyline>
  <polyline points="34,22 34,23 34,24 33,26 33,27 33,29 33,31 33,32 33,34 33,35 33,36 33,38 33,39 33,40 33,41 33,43 33,44 33,45 33,46 32,47 32,49 32,50 32,51 32,53 32,54 32,55 31,57 31,58 31,59 31,60 31,61 31,62 31,63 31,64 31,65 31,66 31,67 31,68" fill="none" stroke="#00f0b5" stroke-width="3" stroke-linecap="round" stroke-linejoin="round" opacity="0.95">
    <title>5968 a:1</title>
  </polyline>
</svg>
