<?xml version="1.0" encoding="UTF-8"?>
<svg xmlns="http://www.w3.org/2000/svg" width="82" height="98" viewBox="0 0 82 98">
  <title>particle img5-m42-p2 a:1 m:1 c:1 a:1</title>
  <metadata>{&quot;entityType&quot;:&quot;particle&quot;,&quot;entityId&quot;:&quot;img5-m42-p2&quot;,&quot;token&quot;:&quot;a:1 m:1 c:1 a:1&quot;,&quot;signature&quot;:&quot;a:1 m:1 c:1 a:1&quot;,&quot;imageName&quot;:&quot;page-005.jpg&quot;,&quot;imageId&quot;:5,&quot;bounds&quot;:{&quot;x&quot;:1342,&quot;y&quot;:855,&quot;w&quot;:82,&quot;h&quot;:98},&quot;atoms&quot;:[{&quot;id&quot;:5552,&quot;token&quot;:&quot;a:1&quot;,&quot;particle_id&quot;:&quot;img5-m42-p2&quot;,&quot;molecule_id&quot;:&quot;img5-m42&quot;,&quot;atom_order&quot;:1},{&quot;id&quot;:6388,&quot;token&quot;:&quot;m:1&quot;,&quot;particle_id&quot;:&quot;img5-m42-p2&quot;,&quot;molecule_id&quot;:&quot;img5-m42&quot;,&quot;atom_order&quot;:2},{&quot;id&quot;:6279,&quot;token&quot;:&quot;c:1&quot;,&quot;particle_id&quot;:&quot;img5-m42-p2&quot;,&quot;molecule_id&quot;:&quot;img5-m42&quot;,&quot;atom_order&quot;:3},{&quot;id&quot;:5553,&quot;token&quot;:&quot;a:1&quot;,&quot;particle_id&quot;:&quot;img5-m42-p2&quot;,&quot;molecule_id&quot;:&quot;img5-m42&quot;,&quot;atom_order&quot;:4}]}</metadata>
  <rect x="0" y="0" width="82" height="98" fill="#f8f0d8"/>
  <image href="file:///C:/Users/HHHES/AppData/Roaming/com.voynichlab.datasetcreator/images/1/a6cd3b6e-2a78-4b30-a4be-5d186aea258e.jpg" x="-1342" y="-855" width="2691" height="3770" opacity="0.92"/>
  <rect x="0.5" y="0.5" width="81" height="97" fill="none" stroke="#111827" stroke-width="1" opacity="0.35"/>
  <polyline points="34,42 34,43 33,44 33,45 33,46 33,47 33,48 33,49 33,50 33,51 33,52 33,53 33,54 33,55 33,56 33,57 33,58 33,59 33,60 33,61 33,62 33,63 33,64 33,65 33,66 33,67 33,68 33,69 32,69 32,70 32,71 32,72 32,73 31,74 31,75 31,76 31,77 30,77 30,78 30,79 30,80" fill="none" stroke="#00f0b5" stroke-width="3" stroke-linecap="round" stroke-linejoin="round" opacity="0.95">
    <title>5552 a:1</title>
  </polyline>
  <polyline points="34,45 34,44 34,43 34,42 34,41 34,40 34,39 34,38 34,37 34,36 34,35 34,34 34,33 34,32 34,31 34,30 34,29 34,27 34,26 35,25 35,24 35,23 35,22 35,21 35,20 35,19 35,18 35,17 35,16 34,16 33,16 32,17 31,18 30,18 29,19 28,20 27,20 27,21 26,21 26,22 25,23 24,23 23,23 23,24 22,24 22,25 21,25 20,25 20,26 19,27 18,27 18,28 18,29 17,29 17,30 16,30 16,31 16,32 17,32 18,32 19,32 20,33 21,33 22,33 23,33 24,33 25,33 26,32 27,32 28,32 29,32 31,32 33,32 36,32 37,32 38,32 39,32 40,32 42,33 45,33 47,33 48,33 49,33" fill="none" stroke="#ff00ff" stroke-width="3" stroke-linecap="round" stroke-linejoin="round" opacity="0.95">
    <title>6388 m:1</title>
  </polyline>
  <polyline points="48,24 48,25 47,25 47,26 47,27 46,27 46,28 46,29 46,30 46,31 46,32 46,33 46,34 47,34 47,35 48,35 48,36 49,37 50,37 51,37 52,37 52,38 53,38 54,38 55,38 56,38 57,38 58,38 59,38 60,38 60,37 61,37 62,37 62,36 62,35 63,35 63,34 64,34 64,33 64,32 65,32 65,31 65,30 66,30 66,29 66,28 66,27 66,26 66,25 66,24 65,24 65,23 65,22 64,22 64,21 63,21 63,20 62,20 62,19 61,19 60,19 60,18 59,18 58,18 57,18 56,18 55,18 54,18 53,18 52,19 51,19 51,20 50,20 50,21 49,21 48,21 48,22 47,22 47,23 47,24" fill="none" stroke="#8aff00" stroke-width="3" stroke-linecap="round" stroke-linejoin="round" opacity="0.95">
    <title>6279 c:1</title>
  </polyline>
  <polyline points="49,19 49,20 49,21 48,22 48,23 48,25 48,26 48,28 48,29 48,31 48,32 48,33 48,34 48,35 48,36 48,37 47,38 47,39 47,40 47,41 47,42 47,43 47,44 47,45 47,46 46,47 46,49 46,50 46,51 46,52 45,53 45,54 45,56 45,57 45,58 45,59 45,60 45,61 45,62 45,63 45,64 45,65 44,66 44,67 44,68 44,69 44,70 44,71 44,72 44,73 43,74 43,75 43,76 43,77 43,78 43,79 43,80 43,81 43,82" fill="none" stroke="#00f0b5" stroke-width="3" stroke-linecap="round" stroke-linejoin="round" opacity="0.95">
    <title>5553 a:1</title>
  </polyline>
</svg>
