<?xml version="1.0" encoding="UTF-8"?>
<svg xmlns="http://www.w3.org/2000/svg" width="99" height="118" viewBox="0 0 99 118">
  <title>particle img5-m57-p3 a:1 b:1 c:1 a:1 b:1 d:1</title>
  <metadata>{&quot;entityType&quot;:&quot;particle&quot;,&quot;entityId&quot;:&quot;img5-m57-p3&quot;,&quot;token&quot;:&quot;a:1 b:1 c:1 a:1 b:1 d:1&quot;,&quot;signature&quot;:&quot;a:1 b:1 c:1 a:1 b:1 d:1&quot;,&quot;imageName&quot;:&quot;page-005.jpg&quot;,&quot;imageId&quot;:5,&quot;bounds&quot;:{&quot;x&quot;:1271,&quot;y&quot;:2420,&quot;w&quot;:99,&quot;h&quot;:118},&quot;atoms&quot;:[{&quot;id&quot;:5950,&quot;token&quot;:&quot;a:1&quot;,&quot;particle_id&quot;:&quot;img5-m57-p3&quot;,&quot;molecule_id&quot;:&quot;img5-m57&quot;,&quot;atom_order&quot;:1},{&quot;id&quot;:6390,&quot;token&quot;:&quot;b:1&quot;,&quot;particle_id&quot;:&quot;img5-m57-p3&quot;,&quot;molecule_id&quot;:&quot;img5-m57&quot;,&quot;atom_order&quot;:2},{&quot;id&quot;:6015,&quot;token&quot;:&quot;c:1&quot;,&quot;particle_id&quot;:&quot;img5-m57-p3&quot;,&quot;molecule_id&quot;:&quot;img5-m57&quot;,&quot;atom_order&quot;:3},{&quot;id&quot;:5951,&quot;token&quot;:&quot;a:1&quot;,&quot;particle_id&quot;:&quot;img5-m57-p3&quot;,&quot;molecule_id&quot;:&quot;img5-m57&quot;,&quot;atom_order&quot;:4},{&quot;id&quot;:5990,&quot;token&quot;:&quot;b:1&quot;,&quot;particle_id&quot;:&quot;img5-m57-p3&quot;,&quot;molecule_id&quot;:&quot;img5-m57&quot;,&quot;atom_order&quot;:5},{&quot;id&quot;:6391,&quot;token&quot;:&quot;d:1&quot;,&quot;particle_id&quot;:&quot;img5-m57-p3&quot;,&quot;molecule_id&quot;:&quot;img5-m57&quot;,&quot;atom_order&quot;:6}]}</metadata>
  <rect x="0" y="0" width="99" height="118" fill="#f8f0d8"/>
  <image href="file:///C:/Users/HHHES/AppData/Roaming/com.voynichlab.datasetcreator/images/1/a6cd3b6e-2a78-4b30-a4be-5d186aea258e.jpg" x="-1271" y="-2420" width="2691" height="3770" opacity="0.92"/>
  <rect x="0.5" y="0.5" width="98" height="117" fill="none" stroke="#111827" stroke-width="1" opacity="0.35"/>
  <polyline points="47,16 47,17 47,18 47,19 47,20 47,21 47,23 47,25 47,26 47,27 47,28 47,29 47,30 47,32 47,33 47,34 47,35 47,36 47,37 47,38 47,40 47,42 47,43 47,44 47,45 47,46 47,48 47,50 47,51 47,52 47,53 47,55 47,56 47,58 47,60 47,61 47,62 47,64 47,65 47,67 47,68 47,70 47,71 47,72 47,74 47,75 47,76 47,77 47,78 47,79 47,80 47,81 47,82 47,84 47,85 47,86 47,88 47,89 47,90 47,91 47,92 47,93 47,94 47,95 47,97 47,98 47,99 47,100 47,101 47,102" fill="none" stroke="#00f0b5" stroke-width="3" stroke-linecap="round" stroke-linejoin="round" opacity="0.95">
    <title>5950 a:1</title>
  </polyline>
  <polyline points="66,59 65,59 65,60 64,61 63,62 63,63 61,63 60,63 58,63 56,63 54,63 52,63 50,62 48,61 47,61 46,61 45,61 44,61 43,61 42,61 41,61 40,61 39,60 38,60 38,59" fill="none" stroke="#2f7df6" stroke-width="3" stroke-linecap="round" stroke-linejoin="round" opacity="0.95">
    <title>6390 b:1</title>
  </polyline>
  <polyline points="65,25 65,26 64,26 64,27 64,28 63,28 63,29 63,30 63,31 63,32 63,33 63,34 63,35 64,35 64,36 65,36 65,37 66,38 67,38 68,38 69,38 69,39 70,39 71,39 72,39 73,39 74,39 75,39 76,39 77,39 77,38 78,38 79,38 79,37 79,36 80,36 80,35 81,35 81,34 81,33 82,33 82,32 82,31 83,31 83,30 83,29 83,28 83,27 83,26 83,25 82,25 82,24 82,23 81,23 81,22 80,22 80,21 79,21 79,20 78,20 77,20 77,19 76,19 75,19 74,19 73,19 72,19 71,19 70,19 69,20 68,20 68,21 67,21 67,22 66,22 65,22 65,23 64,23 64,24 64,25" fill="none" stroke="#8aff00" stroke-width="3" stroke-linecap="round" stroke-linejoin="round" opacity="0.95">
    <title>6015 c:1</title>
  </polyline>
  <polyline points="67,21 66,22 66,23 66,24 65,24 65,25 65,26 65,27 65,28 65,29 65,30 65,32 65,33 65,34 64,35 64,36 64,37 64,38 64,39 64,41 64,42 64,43 64,44 64,45 64,46 64,47 64,48 65,49 65,50 65,51 65,52 65,53 65,55 65,56 65,57 65,58 65,59 65,60 65,61" fill="none" stroke="#00f0b5" stroke-width="3" stroke-linecap="round" stroke-linejoin="round" opacity="0.95">
    <title>5951 a:1</title>
  </polyline>
  <polyline points="46,26 47,26 47,27 47,28 47,29 47,30 47,31 47,32 48,33 48,34 49,34 49,35 50,35 50,36 51,36 51,37 52,37 53,38 54,39 56,40 57,41 58,41 59,41 60,41 61,41 62,41 63,41 64,41 65,41 66,41 67,40 68,40 69,40 70,40 71,40 71,39 72,39 73,39 74,38 75,38 76,37 77,37 77,36 78,35 79,34 80,34 81,33 82,33 82,32 83,32 83,31" fill="none" stroke="#2f7df6" stroke-width="3" stroke-linecap="round" stroke-linejoin="round" opacity="0.95">
    <title>5990 b:1</title>
  </polyline>
  <polyline points="29,78 28,78 27,77 26,77 25,76 24,76 23,76 23,75 22,74 21,73 20,72 18,72 17,70 16,69 16,68 16,67 17,66 18,65 18,64 20,63 22,62 22,61 23,61 24,60 25,60 25,59 27,59 28,59 29,58 30,58 31,57 32,57 33,57 34,57 35,57 36,57 37,57 38,57 39,57 40,58 41,59 42,59 43,60 43,61 44,61" fill="none" stroke="#ff2d55" stroke-width="3" stroke-linecap="round" stroke-linejoin="round" opacity="0.95">
    <title>6391 d:1</title>
  </polyline>
</svg>
