<?xml version="1.0" encoding="UTF-8"?>
<svg xmlns="http://www.w3.org/2000/svg" width="95" height="103" viewBox="0 0 95 103">
  <title>particle img5-m19-p1 a:1 m:1 c:1</title>
  <metadata>{&quot;entityType&quot;:&quot;particle&quot;,&quot;entityId&quot;:&quot;img5-m19-p1&quot;,&quot;token&quot;:&quot;a:1 m:1 c:1&quot;,&quot;signature&quot;:&quot;a:1 m:1 c:1&quot;,&quot;imageName&quot;:&quot;page-005.jpg&quot;,&quot;imageId&quot;:5,&quot;bounds&quot;:{&quot;x&quot;:414,&quot;y&quot;:670,&quot;w&quot;:95,&quot;h&quot;:103},&quot;atoms&quot;:[{&quot;id&quot;:5535,&quot;token&quot;:&quot;a:1&quot;,&quot;particle_id&quot;:&quot;img5-m19-p1&quot;,&quot;molecule_id&quot;:&quot;img5-m19&quot;,&quot;atom_order&quot;:1},{&quot;id&quot;:6383,&quot;token&quot;:&quot;m:1&quot;,&quot;particle_id&quot;:&quot;img5-m19-p1&quot;,&quot;molecule_id&quot;:&quot;img5-m19&quot;,&quot;atom_order&quot;:2},{&quot;id&quot;:5586,&quot;token&quot;:&quot;c:1&quot;,&quot;particle_id&quot;:&quot;img5-m19-p1&quot;,&quot;molecule_id&quot;:&quot;img5-m19&quot;,&quot;atom_order&quot;:3}]}</metadata>
  <rect x="0" y="0" width="95" height="103" fill="#f8f0d8"/>
  <image href="file:///C:/Users/HHHES/AppData/Roaming/com.voynichlab.datasetcreator/images/1/a6cd3b6e-2a78-4b30-a4be-5d186aea258e.jpg" x="-414" y="-670" width="2691" height="3770" opacity="0.92"/>
  <rect x="0.5" y="0.5" width="94" height="102" fill="none" stroke="#111827" stroke-width="1" opacity="0.35"/>
  <polyline points="33,87 33,86 33,85 33,84 33,83 33,82 33,81 34,81 34,80 34,79 34,78 34,77 34,76 34,75 34,74 34,73 34,72 34,71 34,70 34,69 34,68 34,67 34,66 34,65 34,64 34,63 34,62 34,61 34,60 34,59 34,58 34,57 34,56 34,55 34,54 34,53 34,52 34,51 34,50" fill="none" stroke="#00f0b5" stroke-width="3" stroke-linecap="round" stroke-linejoin="round" opacity="0.95">
    <title>5535 a:1</title>
  </polyline>
  <polyline points="34,50 34,49 34,48 34,47 35,47 35,46 35,45 35,44 35,43 36,43 36,42 36,41 36,40 36,39 36,38 36,37 36,36 36,35 36,34 37,34 37,33 37,32 37,31 37,30 37,29 37,28 37,27 37,26 37,25 37,24 37,23 38,23 38,22 38,21 38,20 38,19 38,18 38,17 38,16 37,16 36,16 35,16 34,16 34,17 33,17 32,17 32,18 31,18 31,19 30,19 29,20 28,21 27,22 26,23 25,23 25,24 24,24 24,25 23,25 23,26 22,26 21,27 20,28 19,29 18,30 18,31 17,31 17,32 16,32 16,33 17,33 18,33 19,33 20,33 21,33 22,33 22,34 23,34 24,34 25,34 26,34 27,34 28,34 29,34 30,34 31,34 32,34 32,35 33,35 34,35 35,35 36,35 37,35 38,35 39,35 40,35 41,35 42,35 42,34 43,34 44,34 45,34 46,34 47,34 48,34 49,34 50,34 51,34 52,34 53,34 54,34 55,34 57,33 58,33 59,33 60,33 61,33 62,33 63,33 64,33 65,33 66,33" fill="none" stroke="#ff00ff" stroke-width="3" stroke-linecap="round" stroke-linejoin="round" opacity="0.95">
    <title>6383 m:1</title>
  </polyline>
  <polyline points="61,33 61,34 60,34 60,35 60,36 59,36 59,37 59,38 59,39 59,40 59,41 59,42 59,43 60,43 60,44 61,44 61,45 62,46 63,46 64,46 65,46 65,47 66,47 67,47 68,47 69,47 70,47 71,47 72,47 73,47 73,46 74,46 75,46 75,45 75,44 76,44 76,43 77,43 77,42 77,41 78,41 78,40 78,39 79,39 79,38 79,37 79,36 79,35 79,34 79,33 78,33 78,32 78,31 77,31 77,30 76,30 76,29 75,29 75,28 74,28 73,28 73,27 72,27 71,27 70,27 69,27 68,27 67,27 66,27 65,28 64,28 64,29 63,29 63,30 62,30 61,30 61,31 60,31 60,32 60,33" fill="none" stroke="#8aff00" stroke-width="3" stroke-linecap="round" stroke-linejoin="round" opacity="0.95">
    <title>5586 c:1</title>
  </polyline>
</svg>
