<?xml version="1.0" encoding="UTF-8"?>
<svg xmlns="http://www.w3.org/2000/svg" width="60" height="83" viewBox="0 0 60 83">
  <title>particle img5-m96-p3 f:1 i:1 d:1</title>
  <metadata>{&quot;entityType&quot;:&quot;particle&quot;,&quot;entityId&quot;:&quot;img5-m96-p3&quot;,&quot;token&quot;:&quot;f:1 i:1 d:1&quot;,&quot;signature&quot;:&quot;f:1 i:1 d:1&quot;,&quot;imageName&quot;:&quot;page-005.jpg&quot;,&quot;imageId&quot;:5,&quot;bounds&quot;:{&quot;x&quot;:1463,&quot;y&quot;:2781,&quot;w&quot;:60,&quot;h&quot;:83},&quot;atoms&quot;:[{&quot;id&quot;:6209,&quot;token&quot;:&quot;f:1&quot;,&quot;particle_id&quot;:&quot;img5-m96-p3&quot;,&quot;molecule_id&quot;:&quot;img5-m96&quot;,&quot;atom_order&quot;:1},{&quot;id&quot;:6308,&quot;token&quot;:&quot;i:1&quot;,&quot;particle_id&quot;:&quot;img5-m96-p3&quot;,&quot;molecule_id&quot;:&quot;img5-m96&quot;,&quot;atom_order&quot;:2},{&quot;id&quot;:6376,&quot;token&quot;:&quot;d:1&quot;,&quot;particle_id&quot;:&quot;img5-m96-p3&quot;,&quot;molecule_id&quot;:&quot;img5-m96&quot;,&quot;atom_order&quot;:3}]}</metadata>
  <rect x="0" y="0" width="60" height="83" fill="#f8f0d8"/>
  <image href="file:///C:/Users/HHHES/AppData/Roaming/com.voynichlab.datasetcreator/images/1/a6cd3b6e-2a78-4b30-a4be-5d186aea258e.jpg" x="-1463" y="-2781" width="2691" height="3770" opacity="0.92"/>
  <rect x="0.5" y="0.5" width="59" height="82" fill="none" stroke="#111827" stroke-width="1" opacity="0.35"/>
  <polyline points="23,46 23,47 23,48 24,48 24,49 24,50 25,50 25,51 26,52 26,53 27,53 27,54 28,55 28,56 29,56 29,57 30,57 30,58 31,58 31,59 31,60 32,60 32,61 32,62 33,62 33,63 34,63 34,64 35,65 35,66 36,66 36,67" fill="none" stroke="#00a2ff" stroke-width="3" stroke-linecap="round" stroke-linejoin="round" opacity="0.95">
    <title>6209 f:1</title>
  </polyline>
  <polyline points="35,66 35,65 36,65 36,64 37,64 37,63 38,63 38,62 39,62 40,61 40,60 41,60 41,59 42,58 42,57 43,57 43,56 43,55 43,54 43,53 44,53 44,52 44,51 44,50 44,49 44,48 44,47 44,46 44,45 44,44 44,42 44,41 44,40 44,39 43,38 43,37 43,36 43,35 42,35 42,34 42,33 42,32 41,32 41,31 41,30 40,30 40,29 39,28 39,27 38,27 38,25 37,25 36,24 35,23 34,22" fill="none" stroke="#00ff7f" stroke-width="3" stroke-linecap="round" stroke-linejoin="round" opacity="0.95">
    <title>6308 i:1</title>
  </polyline>
  <polyline points="16,25 16,24 16,23 16,22 17,21 17,20 18,19 18,18 19,18 19,17 20,17 21,17 22,16 23,16 24,16 25,16 26,16 27,17 28,17 29,17 30,18 31,18 32,19 33,19 33,20 34,20 35,20 35,21 35,22 36,22 36,23 37,24 37,25 38,26 38,27 39,28 39,29 39,30 40,30" fill="none" stroke="#ff2d55" stroke-width="3" stroke-linecap="round" stroke-linejoin="round" opacity="0.95">
    <title>6376 d:1</title>
  </polyline>
</svg>
