<?xml version="1.0" encoding="UTF-8"?>
<svg xmlns="http://www.w3.org/2000/svg" width="108" height="70" viewBox="0 0 108 70">
  <title>particle img5-m8-p3 k:1 f:1 i:1 d:1</title>
  <metadata>{&quot;entityType&quot;:&quot;particle&quot;,&quot;entityId&quot;:&quot;img5-m8-p3&quot;,&quot;token&quot;:&quot;k:1 f:1 i:1 d:1&quot;,&quot;signature&quot;:&quot;k:1 f:1 i:1 d:1&quot;,&quot;imageName&quot;:&quot;page-005.jpg&quot;,&quot;imageId&quot;:5,&quot;bounds&quot;:{&quot;x&quot;:1501,&quot;y&quot;:512,&quot;w&quot;:108,&quot;h&quot;:70},&quot;atoms&quot;:[{&quot;id&quot;:6218,&quot;token&quot;:&quot;k:1&quot;,&quot;particle_id&quot;:&quot;img5-m8-p3&quot;,&quot;molecule_id&quot;:&quot;img5-m8&quot;,&quot;atom_order&quot;:1},{&quot;id&quot;:6111,&quot;token&quot;:&quot;f:1&quot;,&quot;particle_id&quot;:&quot;img5-m8-p3&quot;,&quot;molecule_id&quot;:&quot;img5-m8&quot;,&quot;atom_order&quot;:2},{&quot;id&quot;:6244,&quot;token&quot;:&quot;i:1&quot;,&quot;particle_id&quot;:&quot;img5-m8-p3&quot;,&quot;molecule_id&quot;:&quot;img5-m8&quot;,&quot;atom_order&quot;:3},{&quot;id&quot;:6318,&quot;token&quot;:&quot;d:1&quot;,&quot;particle_id&quot;:&quot;img5-m8-p3&quot;,&quot;molecule_id&quot;:&quot;img5-m8&quot;,&quot;atom_order&quot;:4}]}</metadata>
  <rect x="0" y="0" width="108" height="70" fill="#f8f0d8"/>
  <image href="file:///C:/Users/HHHES/AppData/Roaming/com.voynichlab.datasetcreator/images/1/a6cd3b6e-2a78-4b30-a4be-5d186aea258e.jpg" x="-1501" y="-512" width="2691" height="3770" opacity="0.92"/>
  <rect x="0.5" y="0.5" width="107" height="69" fill="none" stroke="#111827" stroke-width="1" opacity="0.35"/>
  <polyline points="16,30 17,30 17,31 18,32 19,32 19,33 20,34 21,35 21,36 22,37 23,37 23,38 24,39 24,40 25,40 25,41 26,42 27,43 27,44 28,44 28,45 29,45 29,46 29,47 30,47 30,46 30,45 31,44 31,43 32,43 32,42 32,41 33,40 33,39 34,38 34,37 35,36 35,35 36,34 36,33 37,33 37,34 37,35 38,36 38,37 39,38 39,39 40,39 40,40 41,41 42,42 43,43 44,44 44,45 45,46 46,46 46,47 47,47 47,48 48,49 49,49 50,49 51,48 52,47 53,47 53,46 54,46 54,45 55,45 55,44 56,43 57,43 57,42 58,42 58,41 58,40 59,40 59,39 60,39 60,38 61,37 62,37 62,36 63,36 63,35 64,35 64,34 65,34" fill="none" stroke="#ffffff" stroke-width="3" stroke-linecap="round" stroke-linejoin="round" opacity="0.95">
    <title>6218 k:1</title>
  </polyline>
  <polyline points="65,33 65,34 65,35 66,35 66,36 66,37 67,37 67,38 68,39 68,40 69,40 69,41 70,42 70,43 71,43 71,44 72,44 72,45 73,45 73,46 73,47 74,47 74,48 74,49 75,49 75,50 76,50 76,51 77,52 77,53 78,53 78,54" fill="none" stroke="#00a2ff" stroke-width="3" stroke-linecap="round" stroke-linejoin="round" opacity="0.95">
    <title>6111 f:1</title>
  </polyline>
  <polyline points="77,54 78,54 79,54 79,53 80,53 81,53 82,52 83,51 84,51 84,50 85,50 85,49 86,49 87,48 88,47 89,47 89,46 89,45 90,44 90,43 90,42 90,41 91,40 92,39 92,38 92,37 92,36 92,35 92,34 92,32 92,31 92,30 92,29 92,27 91,26 91,25 90,24 90,23 89,22 89,21 88,20 87,20 87,19 86,19 85,18 84,18 83,18 82,18 81,18 80,18 79,18 78,17 77,17" fill="none" stroke="#00ff7f" stroke-width="3" stroke-linecap="round" stroke-linejoin="round" opacity="0.95">
    <title>6244 i:1</title>
  </polyline>
  <polyline points="38,18 39,18 40,18 41,18 42,18 43,18 44,18 45,18 46,18 47,18 49,18 50,18 51,18 52,17 53,17 54,17 55,17 56,17 57,17 58,17 59,17 61,17 62,17 63,17 64,17 65,16 66,16 67,16 68,16 69,16 71,17 72,17 73,17 74,17 75,17 76,17 78,17 79,17 80,17 81,17 82,17 83,18 84,18 85,18 86,18" fill="none" stroke="#ff2d55" stroke-width="3" stroke-linecap="round" stroke-linejoin="round" opacity="0.95">
    <title>6318 d:1</title>
  </polyline>
</svg>
