<?xml version="1.0" encoding="UTF-8"?>
<svg xmlns="http://www.w3.org/2000/svg" width="89" height="56" viewBox="0 0 89 56">
  <title>particle img5-m31-p4 e:1 g:1 e:1</title>
  <metadata>{&quot;entityType&quot;:&quot;particle&quot;,&quot;entityId&quot;:&quot;img5-m31-p4&quot;,&quot;token&quot;:&quot;e:1 g:1 e:1&quot;,&quot;signature&quot;:&quot;e:1 g:1 e:1&quot;,&quot;imageName&quot;:&quot;page-005.jpg&quot;,&quot;imageId&quot;:5,&quot;bounds&quot;:{&quot;x&quot;:536,&quot;y&quot;:819,&quot;w&quot;:89,&quot;h&quot;:56},&quot;atoms&quot;:[{&quot;id&quot;:5706,&quot;token&quot;:&quot;e:1&quot;,&quot;particle_id&quot;:&quot;img5-m31-p4&quot;,&quot;molecule_id&quot;:&quot;img5-m31&quot;,&quot;atom_order&quot;:1},{&quot;id&quot;:6413,&quot;token&quot;:&quot;g:1&quot;,&quot;particle_id&quot;:&quot;img5-m31-p4&quot;,&quot;molecule_id&quot;:&quot;img5-m31&quot;,&quot;atom_order&quot;:2},{&quot;id&quot;:5707,&quot;token&quot;:&quot;e:1&quot;,&quot;particle_id&quot;:&quot;img5-m31-p4&quot;,&quot;molecule_id&quot;:&quot;img5-m31&quot;,&quot;atom_order&quot;:3}]}</metadata>
  <rect x="0" y="0" width="89" height="56" fill="#f8f0d8"/>
  <image href="file:///C:/Users/HHHES/AppData/Roaming/com.voynichlab.datasetcreator/images/1/a6cd3b6e-2a78-4b30-a4be-5d186aea258e.jpg" x="-536" y="-819" width="2691" height="3770" opacity="0.92"/>
  <rect x="0.5" y="0.5" width="88" height="55" fill="none" stroke="#111827" stroke-width="1" opacity="0.35"/>
  <polyline points="31,37 31,38 30,38 30,39 29,39 28,39 28,40 27,40 26,40 25,40 24,40 23,40 22,40 21,40 21,39 20,39 19,39 18,39 18,38 17,38 16,38 16,37 16,36 16,35 16,34 16,33 16,32 16,31 17,31 17,30 17,29 17,28 18,28 18,27 18,26 19,26 19,25 19,24 20,24 21,24 21,23 22,23 22,22 23,22 24,22 24,21 25,21 26,21 27,21 27,20" fill="none" stroke="#f2e45c" stroke-width="3" stroke-linecap="round" stroke-linejoin="round" opacity="0.95">
    <title>5706 e:1</title>
  </polyline>
  <polyline points="22,21 23,21 24,21 25,21 26,21 27,21 28,21 29,21 31,21 32,21 33,20 35,20 36,20 37,20 38,20 39,20 41,20 43,20 45,20 46,19 48,19 49,19 50,19 51,19 52,19 54,19 55,19 56,19 57,18 58,18 59,18 60,18 61,18 62,18 63,18 64,17 65,17 66,17 67,17 68,17 69,17 70,17" fill="none" stroke="#7c3cff" stroke-width="3" stroke-linecap="round" stroke-linejoin="round" opacity="0.95">
    <title>6413 g:1</title>
  </polyline>
  <polyline points="73,33 73,34 72,34 72,35 71,35 70,35 70,36 69,36 68,36 67,36 66,36 65,36 64,36 63,36 63,35 62,35 61,35 60,35 60,34 59,34 58,34 58,33 58,32 58,31 58,30 58,29 58,28 58,27 59,27 59,26 59,25 59,24 60,24 60,23 60,22 61,22 61,21 61,20 62,20 63,20 63,19 64,19 64,18 65,18 66,18 66,17 67,17 68,17 69,17 69,16" fill="none" stroke="#f2e45c" stroke-width="3" stroke-linecap="round" stroke-linejoin="round" opacity="0.95">
    <title>5707 e:1</title>
  </polyline>
</svg>
