<?xml version="1.0" encoding="UTF-8"?>
<svg xmlns="http://www.w3.org/2000/svg" width="84" height="69" viewBox="0 0 84 69">
  <title>particle img5-m60-p3 l:1 f:1 i:1 d:1</title>
  <metadata>{&quot;entityType&quot;:&quot;particle&quot;,&quot;entityId&quot;:&quot;img5-m60-p3&quot;,&quot;token&quot;:&quot;l:1 f:1 i:1 d:1&quot;,&quot;signature&quot;:&quot;l:1 f:1 i:1 d:1&quot;,&quot;imageName&quot;:&quot;page-005.jpg&quot;,&quot;imageId&quot;:5,&quot;bounds&quot;:{&quot;x&quot;:2036,&quot;y&quot;:2515,&quot;w&quot;:84,&quot;h&quot;:69},&quot;atoms&quot;:[{&quot;id&quot;:6294,&quot;token&quot;:&quot;l:1&quot;,&quot;particle_id&quot;:&quot;img5-m60-p3&quot;,&quot;molecule_id&quot;:&quot;img5-m60&quot;,&quot;atom_order&quot;:1},{&quot;id&quot;:6167,&quot;token&quot;:&quot;f:1&quot;,&quot;particle_id&quot;:&quot;img5-m60-p3&quot;,&quot;molecule_id&quot;:&quot;img5-m60&quot;,&quot;atom_order&quot;:2},{&quot;id&quot;:6293,&quot;token&quot;:&quot;i:1&quot;,&quot;particle_id&quot;:&quot;img5-m60-p3&quot;,&quot;molecule_id&quot;:&quot;img5-m60&quot;,&quot;atom_order&quot;:3},{&quot;id&quot;:6353,&quot;token&quot;:&quot;d:1&quot;,&quot;particle_id&quot;:&quot;img5-m60-p3&quot;,&quot;molecule_id&quot;:&quot;img5-m60&quot;,&quot;atom_order&quot;:4}]}</metadata>
  <rect x="0" y="0" width="84" height="69" fill="#f8f0d8"/>
  <image href="file:///C:/Users/HHHES/AppData/Roaming/com.voynichlab.datasetcreator/images/1/a6cd3b6e-2a78-4b30-a4be-5d186aea258e.jpg" x="-2036" y="-2515" width="2691" height="3770" opacity="0.92"/>
  <rect x="0.5" y="0.5" width="83" height="68" fill="none" stroke="#111827" stroke-width="1" opacity="0.35"/>
  <polyline points="16,33 16,34 17,35 17,36 18,36 18,37 19,38 20,39 20,40 21,40 21,41 22,42 23,43 23,44 24,45 25,45 25,46 26,47 27,48 28,49 28,50 29,50 29,51 29,52 30,52 30,51 31,50 31,49 32,48 32,47 32,46 33,46 34,45 34,44 35,43 35,42 36,42 36,41 36,40 37,40 37,39 37,38 38,38 38,37 39,36 39,35 40,34 40,33 41,33 41,32" fill="none" stroke="#ff5f1f" stroke-width="3" stroke-linecap="round" stroke-linejoin="round" opacity="0.95">
    <title>6294 l:1</title>
  </polyline>
  <polyline points="40,32 40,33 40,34 41,34 41,35 41,36 42,36 42,37 43,38 43,39 44,39 44,40 45,41 45,42 46,42 46,43 47,43 47,44 48,44 48,45 48,46 49,46 49,47 49,48 50,48 50,49 51,49 51,50 52,51 52,52 53,52 53,53" fill="none" stroke="#00a2ff" stroke-width="3" stroke-linecap="round" stroke-linejoin="round" opacity="0.95">
    <title>6167 f:1</title>
  </polyline>
  <polyline points="53,53 53,52 54,52 55,51 56,51 57,50 58,49 59,48 60,48 60,47 61,46 62,45 63,44 63,43 64,43 64,42 65,42 65,41 65,40 66,40 66,39 67,38 67,37 68,37 68,36 68,35 68,34 68,33 68,32 68,31 68,30 68,29 68,28 68,27 68,26 67,25 67,24 66,23 65,22 64,21 63,20 62,20 61,19 60,18 59,17" fill="none" stroke="#00ff7f" stroke-width="3" stroke-linecap="round" stroke-linejoin="round" opacity="0.95">
    <title>6293 i:1</title>
  </polyline>
  <polyline points="31,20 32,19 33,18 34,18 35,17 36,17 37,17 38,16 40,16 41,16 42,16 43,16 44,16 45,16 46,16 47,16 48,16 49,16 50,16 52,16 54,17 55,17 56,17 57,17 57,18 58,18 59,19 60,19 61,19 62,20 63,20 64,21 65,22" fill="none" stroke="#ff2d55" stroke-width="3" stroke-linecap="round" stroke-linejoin="round" opacity="0.95">
    <title>6353 d:1</title>
  </polyline>
</svg>
