<?xml version="1.0" encoding="UTF-8"?>
<svg xmlns="http://www.w3.org/2000/svg" width="53" height="73" viewBox="0 0 53 73">
  <title>particle img5-m47-p2 f:1 i:1 d:1</title>
  <metadata>{&quot;entityType&quot;:&quot;particle&quot;,&quot;entityId&quot;:&quot;img5-m47-p2&quot;,&quot;token&quot;:&quot;f:1 i:1 d:1&quot;,&quot;signature&quot;:&quot;f:1 i:1 d:1&quot;,&quot;imageName&quot;:&quot;page-005.jpg&quot;,&quot;imageId&quot;:5,&quot;bounds&quot;:{&quot;x&quot;:505,&quot;y&quot;:962,&quot;w&quot;:53,&quot;h&quot;:73},&quot;atoms&quot;:[{&quot;id&quot;:6148,&quot;token&quot;:&quot;f:1&quot;,&quot;particle_id&quot;:&quot;img5-m47-p2&quot;,&quot;molecule_id&quot;:&quot;img5-m47&quot;,&quot;atom_order&quot;:1},{&quot;id&quot;:6285,&quot;token&quot;:&quot;i:1&quot;,&quot;particle_id&quot;:&quot;img5-m47-p2&quot;,&quot;molecule_id&quot;:&quot;img5-m47&quot;,&quot;atom_order&quot;:2},{&quot;id&quot;:6338,&quot;token&quot;:&quot;d:1&quot;,&quot;particle_id&quot;:&quot;img5-m47-p2&quot;,&quot;molecule_id&quot;:&quot;img5-m47&quot;,&quot;atom_order&quot;:3}]}</metadata>
  <rect x="0" y="0" width="53" height="73" fill="#f8f0d8"/>
  <image href="file:///C:/Users/HHHES/AppData/Roaming/com.voynichlab.datasetcreator/images/1/a6cd3b6e-2a78-4b30-a4be-5d186aea258e.jpg" x="-505" y="-962" width="2691" height="3770" opacity="0.92"/>
  <rect x="0.5" y="0.5" width="52" height="72" fill="none" stroke="#111827" stroke-width="1" opacity="0.35"/>
  <polyline points="16,36 16,37 16,38 17,38 17,39 17,40 18,40 18,41 19,42 19,43 20,43 20,44 21,45 21,46 22,46 22,47 23,47 23,48 24,48 24,49 24,50 25,50 25,51 25,52 26,52 26,53 27,53 27,54 28,55 28,56 29,56 29,57" fill="none" stroke="#00a2ff" stroke-width="3" stroke-linecap="round" stroke-linejoin="round" opacity="0.95">
    <title>6148 f:1</title>
  </polyline>
  <polyline points="20,44 21,44 22,44 23,44 23,43 24,43 24,42 25,42 25,41 26,41 26,40 27,40 28,40 28,39 29,38 30,38 30,37 30,36 31,36 31,35 32,34 32,33 33,33 33,32 33,31 34,30 35,29 35,28 35,27 36,26 36,25 36,24 36,23 36,22 36,21 36,20" fill="none" stroke="#00ff7f" stroke-width="3" stroke-linecap="round" stroke-linejoin="round" opacity="0.95">
    <title>6285 i:1</title>
  </polyline>
  <polyline points="21,21 21,20 21,19 22,19 23,19 24,18 25,18 25,17 26,17 27,17 28,16 29,16 30,16 31,16 32,16 33,16 34,16 34,17 35,17 35,18 36,18 36,19 36,20 37,20 37,21 37,22 37,23 37,24" fill="none" stroke="#ff2d55" stroke-width="3" stroke-linecap="round" stroke-linejoin="round" opacity="0.95">
    <title>6338 d:1</title>
  </polyline>
</svg>
