<?xml version="1.0" encoding="UTF-8"?>
<svg xmlns="http://www.w3.org/2000/svg" width="82" height="53" viewBox="0 0 82 53">
  <title>particle img5-m87-p2 e:1 g:1 e:1</title>
  <metadata>{&quot;entityType&quot;:&quot;particle&quot;,&quot;entityId&quot;:&quot;img5-m87-p2&quot;,&quot;token&quot;:&quot;e:1 g:1 e:1&quot;,&quot;signature&quot;:&quot;e:1 g:1 e:1&quot;,&quot;imageName&quot;:&quot;page-005.jpg&quot;,&quot;imageId&quot;:5,&quot;bounds&quot;:{&quot;x&quot;:507,&quot;y&quot;:2719,&quot;w&quot;:82,&quot;h&quot;:53},&quot;atoms&quot;:[{&quot;id&quot;:5802,&quot;token&quot;:&quot;e:1&quot;,&quot;particle_id&quot;:&quot;img5-m87-p2&quot;,&quot;molecule_id&quot;:&quot;img5-m87&quot;,&quot;atom_order&quot;:1},{&quot;id&quot;:6481,&quot;token&quot;:&quot;g:1&quot;,&quot;particle_id&quot;:&quot;img5-m87-p2&quot;,&quot;molecule_id&quot;:&quot;img5-m87&quot;,&quot;atom_order&quot;:2},{&quot;id&quot;:5803,&quot;token&quot;:&quot;e:1&quot;,&quot;particle_id&quot;:&quot;img5-m87-p2&quot;,&quot;molecule_id&quot;:&quot;img5-m87&quot;,&quot;atom_order&quot;:3}]}</metadata>
  <rect x="0" y="0" width="82" height="53" fill="#f8f0d8"/>
  <image href="file:///C:/Users/HHHES/AppData/Roaming/com.voynichlab.datasetcreator/images/1/a6cd3b6e-2a78-4b30-a4be-5d186aea258e.jpg" x="-507" y="-2719" width="2691" height="3770" opacity="0.92"/>
  <rect x="0.5" y="0.5" width="81" height="52" fill="none" stroke="#111827" stroke-width="1" opacity="0.35"/>
  <polyline points="31,33 31,34 30,34 30,35 29,35 28,35 28,36 27,36 26,36 25,36 24,36 23,36 22,36 21,36 21,35 20,35 19,35 18,35 18,34 17,34 16,34 16,33 16,32 16,31 16,30 16,29 16,28 16,27 17,27 17,26 17,25 17,24 18,24 18,23 18,22 19,22 19,21 19,20 20,20 21,20 21,19 22,19 22,18 23,18 24,18 24,17 25,17 26,17 27,17 27,16" fill="none" stroke="#f2e45c" stroke-width="3" stroke-linecap="round" stroke-linejoin="round" opacity="0.95">
    <title>5802 e:1</title>
  </polyline>
  <polyline points="22,18 23,18 24,18 25,18 26,18 27,18 28,18 29,18 30,18 31,18 32,18 33,18 34,19 36,19 37,19 38,19 39,19 40,19 42,19 43,19 45,19 46,19 47,19 48,19 49,19 50,19 51,19 52,19 53,19 54,19 55,19 56,19 57,19 58,19 59,19 60,19" fill="none" stroke="#7c3cff" stroke-width="3" stroke-linecap="round" stroke-linejoin="round" opacity="0.95">
    <title>6481 g:1</title>
  </polyline>
  <polyline points="66,34 66,35 65,35 65,36 64,36 63,36 63,37 62,37 61,37 60,37 59,37 58,37 57,37 56,37 56,36 55,36 54,36 53,36 53,35 52,35 51,35 51,34 51,33 51,32 51,31 51,30 51,29 51,28 52,28 52,27 52,26 52,25 53,25 53,24 53,23 54,23 54,22 54,21 55,21 56,21 56,20 57,20 57,19 58,19 59,19 59,18 60,18 61,18 62,18 62,17" fill="none" stroke="#f2e45c" stroke-width="3" stroke-linecap="round" stroke-linejoin="round" opacity="0.95">
    <title>5803 e:1</title>
  </polyline>
</svg>
