<?xml version="1.0" encoding="UTF-8"?>
<svg xmlns="http://www.w3.org/2000/svg" width="68" height="89" viewBox="0 0 68 89">
  <title>particle img5-m65-p2 a:1 b:1 c:1 a:1</title>
  <metadata>{&quot;entityType&quot;:&quot;particle&quot;,&quot;entityId&quot;:&quot;img5-m65-p2&quot;,&quot;token&quot;:&quot;a:1 b:1 c:1 a:1&quot;,&quot;signature&quot;:&quot;a:1 b:1 c:1 a:1&quot;,&quot;imageName&quot;:&quot;page-005.jpg&quot;,&quot;imageId&quot;:5,&quot;bounds&quot;:{&quot;x&quot;:1052,&quot;y&quot;:2532,&quot;w&quot;:68,&quot;h&quot;:89},&quot;atoms&quot;:[{&quot;id&quot;:5958,&quot;token&quot;:&quot;a:1&quot;,&quot;particle_id&quot;:&quot;img5-m65-p2&quot;,&quot;molecule_id&quot;:&quot;img5-m65&quot;,&quot;atom_order&quot;:1},{&quot;id&quot;:5994,&quot;token&quot;:&quot;b:1&quot;,&quot;particle_id&quot;:&quot;img5-m65-p2&quot;,&quot;molecule_id&quot;:&quot;img5-m65&quot;,&quot;atom_order&quot;:2},{&quot;id&quot;:6031,&quot;token&quot;:&quot;c:1&quot;,&quot;particle_id&quot;:&quot;img5-m65-p2&quot;,&quot;molecule_id&quot;:&quot;img5-m65&quot;,&quot;atom_order&quot;:3},{&quot;id&quot;:5959,&quot;token&quot;:&quot;a:1&quot;,&quot;particle_id&quot;:&quot;img5-m65-p2&quot;,&quot;molecule_id&quot;:&quot;img5-m65&quot;,&quot;atom_order&quot;:4}]}</metadata>
  <rect x="0" y="0" width="68" height="89" fill="#f8f0d8"/>
  <image href="file:///C:/Users/HHHES/AppData/Roaming/com.voynichlab.datasetcreator/images/1/a6cd3b6e-2a78-4b30-a4be-5d186aea258e.jpg" x="-1052" y="-2532" width="2691" height="3770" opacity="0.92"/>
  <rect x="0.5" y="0.5" width="67" height="88" fill="none" stroke="#111827" stroke-width="1" opacity="0.35"/>
  <polyline points="18,23 18,24 18,25 18,26 18,27 18,28 18,29 18,30 18,31 18,32 18,33 18,34 18,35 18,36 18,37 18,38 18,39 18,40 18,41 18,42 18,43 18,44 18,45 18,46 18,47 18,48 18,49 18,50 18,51 19,52 19,53 19,54 19,55 19,56 19,57 19,58 19,59 18,59 18,60 18,61 18,62 18,63 18,64 18,65 18,66 18,67 18,68 18,69 18,70 18,71 18,72 18,73" fill="none" stroke="#00f0b5" stroke-width="3" stroke-linecap="round" stroke-linejoin="round" opacity="0.95">
    <title>5958 a:1</title>
  </polyline>
  <polyline points="16,24 16,25 17,26 17,27 18,28 19,29 20,30 21,31 21,32 22,33 23,34 25,34 26,35 27,36 28,36 29,36 30,37 31,37 32,37 33,37 34,37 36,37 37,37 38,37 39,37 40,37 41,36 42,36 43,35 44,35 45,34 46,34 47,33 48,32 49,32 50,31 51,30 51,29 52,28 52,27" fill="none" stroke="#2f7df6" stroke-width="3" stroke-linecap="round" stroke-linejoin="round" opacity="0.95">
    <title>5994 b:1</title>
  </polyline>
  <polyline points="34,22 34,23 33,23 33,24 33,25 32,25 32,26 32,27 32,28 32,29 32,30 32,31 32,32 33,32 33,33 34,33 34,34 35,35 36,35 37,35 38,35 38,36 39,36 40,36 41,36 42,36 43,36 44,36 45,36 46,36 46,35 47,35 48,35 48,34 48,33 49,33 49,32 50,32 50,31 50,30 51,30 51,29 51,28 52,28 52,27 52,26 52,25 52,24 52,23 52,22 51,22 51,21 51,20 50,20 50,19 49,19 49,18 48,18 48,17 47,17 46,17 46,16 45,16 44,16 43,16 42,16 41,16 40,16 39,16 38,17 37,17 37,18 36,18 36,19 35,19 34,19 34,20 33,20 33,21 33,22" fill="none" stroke="#8aff00" stroke-width="3" stroke-linecap="round" stroke-linejoin="round" opacity="0.95">
    <title>6031 c:1</title>
  </polyline>
  <polyline points="33,18 33,19 33,20 33,21 33,22 33,24 33,26 33,28 33,29 33,31 32,33 32,34 32,36 32,38 32,39 32,40 32,42 32,43 32,44 32,45 32,46 32,48 32,50 32,52 32,53 32,54 32,56 32,57 32,58 32,59 32,60 32,61 32,63 32,64 32,65 32,66 32,67 32,68 32,69 32,70 32,71 32,72" fill="none" stroke="#00f0b5" stroke-width="3" stroke-linecap="round" stroke-linejoin="round" opacity="0.95">
    <title>5959 a:1</title>
  </polyline>
</svg>
