<?xml version="1.0" encoding="UTF-8"?>
<svg xmlns="http://www.w3.org/2000/svg" width="64" height="53" viewBox="0 0 64 53">
  <title>particle img5-m24-p2 l:1 f:1</title>
  <metadata>{&quot;entityType&quot;:&quot;particle&quot;,&quot;entityId&quot;:&quot;img5-m24-p2&quot;,&quot;token&quot;:&quot;l:1 f:1&quot;,&quot;signature&quot;:&quot;l:1 f:1&quot;,&quot;imageName&quot;:&quot;page-005.jpg&quot;,&quot;imageId&quot;:5,&quot;bounds&quot;:{&quot;x&quot;:514,&quot;y&quot;:757,&quot;w&quot;:64,&quot;h&quot;:53},&quot;atoms&quot;:[{&quot;id&quot;:6225,&quot;token&quot;:&quot;l:1&quot;,&quot;particle_id&quot;:&quot;img5-m24-p2&quot;,&quot;molecule_id&quot;:&quot;img5-m24&quot;,&quot;atom_order&quot;:1},{&quot;id&quot;:6224,&quot;token&quot;:&quot;f:1&quot;,&quot;particle_id&quot;:&quot;img5-m24-p2&quot;,&quot;molecule_id&quot;:&quot;img5-m24&quot;,&quot;atom_order&quot;:2}]}</metadata>
  <rect x="0" y="0" width="64" height="53" fill="#f8f0d8"/>
  <image href="file:///C:/Users/HHHES/AppData/Roaming/com.voynichlab.datasetcreator/images/1/a6cd3b6e-2a78-4b30-a4be-5d186aea258e.jpg" x="-514" y="-757" width="2691" height="3770" opacity="0.92"/>
  <rect x="0.5" y="0.5" width="63" height="52" fill="none" stroke="#111827" stroke-width="1" opacity="0.35"/>
  <polyline points="16,17 16,18 16,19 17,20 17,21 18,22 19,23 19,24 20,26 21,27 22,28 23,29 23,30 24,31 24,32 24,33 25,33 25,34 25,35 26,35 26,36 27,35 27,34 28,33 28,32 29,31 29,30 30,29 30,28 31,27 31,26 32,25 32,24 32,23 33,23 33,22 33,21 34,20 34,19 34,18 35,18 35,17" fill="none" stroke="#ff5f1f" stroke-width="3" stroke-linecap="round" stroke-linejoin="round" opacity="0.95">
    <title>6225 l:1</title>
  </polyline>
  <polyline points="35,16 35,17 35,18 36,18 36,19 36,20 37,20 37,21 38,22 38,23 39,23 39,24 40,25 40,26 41,26 41,27 42,27 42,28 43,28 43,29 43,30 44,30 44,31 44,32 45,32 45,33 46,33 46,34 47,35 47,36 48,36 48,37" fill="none" stroke="#00a2ff" stroke-width="3" stroke-linecap="round" stroke-linejoin="round" opacity="0.95">
    <title>6224 f:1</title>
  </polyline>
</svg>
