<?xml version="1.0" encoding="UTF-8"?>
<svg xmlns="http://www.w3.org/2000/svg" width="56" height="74" viewBox="0 0 56 74">
  <title>particle img5-m1-p3 e:1 c:1 h:2</title>
  <metadata>{&quot;entityType&quot;:&quot;particle&quot;,&quot;entityId&quot;:&quot;img5-m1-p3&quot;,&quot;token&quot;:&quot;e:1 c:1 h:2&quot;,&quot;signature&quot;:&quot;e:1 c:1 h:2&quot;,&quot;imageName&quot;:&quot;page-005.jpg&quot;,&quot;imageId&quot;:5,&quot;bounds&quot;:{&quot;x&quot;:504,&quot;y&quot;:500,&quot;w&quot;:56,&quot;h&quot;:74},&quot;atoms&quot;:[{&quot;id&quot;:5627,&quot;token&quot;:&quot;e:1&quot;,&quot;particle_id&quot;:&quot;img5-m1-p3&quot;,&quot;molecule_id&quot;:&quot;img5-m1&quot;,&quot;atom_order&quot;:1},{&quot;id&quot;:5591,&quot;token&quot;:&quot;c:1&quot;,&quot;particle_id&quot;:&quot;img5-m1-p3&quot;,&quot;molecule_id&quot;:&quot;img5-m1&quot;,&quot;atom_order&quot;:2},{&quot;id&quot;:6068,&quot;token&quot;:&quot;h:2&quot;,&quot;particle_id&quot;:&quot;img5-m1-p3&quot;,&quot;molecule_id&quot;:&quot;img5-m1&quot;,&quot;atom_order&quot;:3}]}</metadata>
  <rect x="0" y="0" width="56" height="74" fill="#f8f0d8"/>
  <image href="file:///C:/Users/HHHES/AppData/Roaming/com.voynichlab.datasetcreator/images/1/a6cd3b6e-2a78-4b30-a4be-5d186aea258e.jpg" x="-504" y="-500" width="2691" height="3770" opacity="0.92"/>
  <rect x="0.5" y="0.5" width="55" height="73" fill="none" stroke="#111827" stroke-width="1" opacity="0.35"/>
  <polyline points="31,53 31,54 30,54 30,55 29,55 28,55 28,56 27,56 26,56 25,56 24,56 23,56 22,56 21,56 21,55 20,55 19,55 18,55 18,54 17,54 16,54 16,53 16,52 16,51 16,50 16,49 16,48 16,47 17,47 17,46 17,45 17,44 18,44 18,43 18,42 19,42 19,41 19,40 20,40 21,40 21,39 22,39 22,38 23,38 24,38 24,37 25,37 26,37 27,37 27,36" fill="none" stroke="#f2e45c" stroke-width="3" stroke-linecap="round" stroke-linejoin="round" opacity="0.95">
    <title>5627 e:1</title>
  </polyline>
  <polyline points="22,22 22,23 21,23 21,24 21,25 20,25 20,26 20,27 20,28 20,29 20,30 20,31 20,32 21,32 21,33 22,33 22,34 23,35 24,35 25,35 26,35 26,36 27,36 28,36 29,36 30,36 31,36 32,36 33,36 34,36 34,35 35,35 36,35 36,34 36,33 37,33 37,32 38,32 38,31 38,30 39,30 39,29 39,28 40,28 40,27 40,26 40,25 40,24 40,23 40,22 39,22 39,21 39,20 38,20 38,19 37,19 37,18 36,18 36,17 35,17 34,17 34,16 33,16 32,16 31,16 30,16 29,16 28,16 27,16 26,17 25,17 25,18 24,18 24,19 23,19 22,19 22,20 21,20 21,21 21,22" fill="none" stroke="#8aff00" stroke-width="3" stroke-linecap="round" stroke-linejoin="round" opacity="0.95">
    <title>5591 c:1</title>
  </polyline>
  <polyline points="29,58 29,57 30,57 31,57 32,56 33,56 33,55 34,55 34,54 34,53 35,53 35,52 35,51 35,50 35,49 35,48 35,47 35,46 34,46 34,45 33,44 33,43 32,43 32,42 31,42 31,41 30,41 30,40 29,40 29,39 28,39 27,38 26,38 26,37 25,37 25,36 24,36 23,36 23,35 22,35 22,34 21,34 21,33 21,32 20,32 20,31 19,30 19,29 19,28 19,27 19,26 20,25 20,24 20,23 21,23 21,22 21,21 22,21" fill="none" stroke="#ff8c00" stroke-width="3" stroke-linecap="round" stroke-linejoin="round" opacity="0.95">
    <title>6068 h:2</title>
  </polyline>
</svg>
