<?xml version="1.0" encoding="UTF-8"?>
<svg xmlns="http://www.w3.org/2000/svg" width="56" height="70" viewBox="0 0 56 70">
  <title>particle img5-m42-p5 e:1 c:1 h:2</title>
  <metadata>{&quot;entityType&quot;:&quot;particle&quot;,&quot;entityId&quot;:&quot;img5-m42-p5&quot;,&quot;token&quot;:&quot;e:1 c:1 h:2&quot;,&quot;signature&quot;:&quot;e:1 c:1 h:2&quot;,&quot;imageName&quot;:&quot;page-005.jpg&quot;,&quot;imageId&quot;:5,&quot;bounds&quot;:{&quot;x&quot;:1446,&quot;y&quot;:892,&quot;w&quot;:56,&quot;h&quot;:70},&quot;atoms&quot;:[{&quot;id&quot;:5738,&quot;token&quot;:&quot;e:1&quot;,&quot;particle_id&quot;:&quot;img5-m42-p5&quot;,&quot;molecule_id&quot;:&quot;img5-m42&quot;,&quot;atom_order&quot;:1},{&quot;id&quot;:5617,&quot;token&quot;:&quot;c:1&quot;,&quot;particle_id&quot;:&quot;img5-m42-p5&quot;,&quot;molecule_id&quot;:&quot;img5-m42&quot;,&quot;atom_order&quot;:2},{&quot;id&quot;:6082,&quot;token&quot;:&quot;h:2&quot;,&quot;particle_id&quot;:&quot;img5-m42-p5&quot;,&quot;molecule_id&quot;:&quot;img5-m42&quot;,&quot;atom_order&quot;:3}]}</metadata>
  <rect x="0" y="0" width="56" height="70" fill="#f8f0d8"/>
  <image href="file:///C:/Users/HHHES/AppData/Roaming/com.voynichlab.datasetcreator/images/1/a6cd3b6e-2a78-4b30-a4be-5d186aea258e.jpg" x="-1446" y="-892" width="2691" height="3770" opacity="0.92"/>
  <rect x="0.5" y="0.5" width="55" height="69" fill="none" stroke="#111827" stroke-width="1" opacity="0.35"/>
  <polyline points="31,51 31,52 30,52 30,53 29,53 28,53 28,54 27,54 26,54 25,54 24,54 23,54 22,54 21,54 21,53 20,53 19,53 18,53 18,52 17,52 16,52 16,51 16,50 16,49 16,48 16,47 16,46 16,45 17,45 17,44 17,43 17,42 18,42 18,41 18,40 19,40 19,39 19,38 20,38 21,38 21,37 22,37 22,36 23,36 24,36 24,35 25,35 26,35 27,35 27,34" fill="none" stroke="#f2e45c" stroke-width="3" stroke-linecap="round" stroke-linejoin="round" opacity="0.95">
    <title>5738 e:1</title>
  </polyline>
  <polyline points="27,32 28,32 29,32 30,32 31,32 32,32 33,32 34,31 35,31 36,30 37,29 37,28 38,27 38,26 39,25 39,24 40,23 40,22 40,21 40,20 40,19 39,18 38,18 38,17 37,17 36,17 36,16 35,16 34,16 33,16 32,17 31,17 30,18 30,19 29,20 28,21 28,22 27,22 27,23 27,24 27,25 27,26 27,27 27,28 27,29 27,30 27,31 28,31 29,31" fill="none" stroke="#8aff00" stroke-width="3" stroke-linecap="round" stroke-linejoin="round" opacity="0.95">
    <title>5617 c:1</title>
  </polyline>
  <polyline points="27,53 28,53 29,52 30,51 30,50 30,49 30,48 30,47 30,46 30,45 30,44 30,43 30,42 29,42 29,41 29,40 29,39 28,39 28,38 28,37 28,36 27,35 27,34 26,34 26,32 26,31 25,30 25,29 25,28 25,27 26,26 26,25 27,24 27,23 28,23 28,22 29,22 30,21 31,20 32,20 33,20" fill="none" stroke="#ff8c00" stroke-width="3" stroke-linecap="round" stroke-linejoin="round" opacity="0.95">
    <title>6082 h:2</title>
  </polyline>
</svg>
