<?xml version="1.0" encoding="UTF-8"?>
<svg xmlns="http://www.w3.org/2000/svg" width="44" height="55" viewBox="0 0 44 55">
  <title>particle img5-m82-p1 n:1</title>
  <metadata>{&quot;entityType&quot;:&quot;particle&quot;,&quot;entityId&quot;:&quot;img5-m82-p1&quot;,&quot;token&quot;:&quot;n:1&quot;,&quot;signature&quot;:&quot;n:1&quot;,&quot;imageName&quot;:&quot;page-005.jpg&quot;,&quot;imageId&quot;:5,&quot;bounds&quot;:{&quot;x&quot;:1953,&quot;y&quot;:2666,&quot;w&quot;:44,&quot;h&quot;:55},&quot;atoms&quot;:[{&quot;id&quot;:6499,&quot;token&quot;:&quot;n:1&quot;,&quot;particle_id&quot;:&quot;img5-m82-p1&quot;,&quot;molecule_id&quot;:&quot;img5-m82&quot;,&quot;atom_order&quot;:1}]}</metadata>
  <rect x="0" y="0" width="44" height="55" fill="#f8f0d8"/>
  <image href="file:///C:/Users/HHHES/AppData/Roaming/com.voynichlab.datasetcreator/images/1/a6cd3b6e-2a78-4b30-a4be-5d186aea258e.jpg" x="-1953" y="-2666" width="2691" height="3770" opacity="0.92"/>
  <rect x="0.5" y="0.5" width="43" height="54" fill="none" stroke="#111827" stroke-width="1" opacity="0.35"/>
  <polyline points="16,30 16,29 17,29 17,28 17,26 17,25 18,25 18,24 18,23 18,22 19,22 19,21 20,20 20,19 21,19 21,18 22,18 23,18 23,17 24,17 25,17 25,16 26,16 26,17 26,18 27,19 27,20 28,21 28,22 28,23 28,24 28,25 28,26 28,27 28,28 28,29 27,30 27,32 26,33 26,34 25,35 25,36 24,37 23,38 22,38 22,39 21,39" fill="none" stroke="#f92f59" stroke-width="3" stroke-linecap="round" stroke-linejoin="round" opacity="0.95">
    <title>6499 n:1</title>
  </polyline>
</svg>
