<?xml version="1.0" encoding="UTF-8"?>
<svg xmlns="http://www.w3.org/2000/svg" width="51" height="76" viewBox="0 0 51 76">
  <title>particle img5-m14-p2 f:1 i:1 d:1</title>
  <metadata>{&quot;entityType&quot;:&quot;particle&quot;,&quot;entityId&quot;:&quot;img5-m14-p2&quot;,&quot;token&quot;:&quot;f:1 i:1 d:1&quot;,&quot;signature&quot;:&quot;f:1 i:1 d:1&quot;,&quot;imageName&quot;:&quot;page-005.jpg&quot;,&quot;imageId&quot;:5,&quot;bounds&quot;:{&quot;x&quot;:1450,&quot;y&quot;:584,&quot;w&quot;:51,&quot;h&quot;:76},&quot;atoms&quot;:[{&quot;id&quot;:6113,&quot;token&quot;:&quot;f:1&quot;,&quot;particle_id&quot;:&quot;img5-m14-p2&quot;,&quot;molecule_id&quot;:&quot;img5-m14&quot;,&quot;atom_order&quot;:1},{&quot;id&quot;:6247,&quot;token&quot;:&quot;i:1&quot;,&quot;particle_id&quot;:&quot;img5-m14-p2&quot;,&quot;molecule_id&quot;:&quot;img5-m14&quot;,&quot;atom_order&quot;:2},{&quot;id&quot;:6320,&quot;token&quot;:&quot;d:1&quot;,&quot;particle_id&quot;:&quot;img5-m14-p2&quot;,&quot;molecule_id&quot;:&quot;img5-m14&quot;,&quot;atom_order&quot;:3}]}</metadata>
  <rect x="0" y="0" width="51" height="76" fill="#f8f0d8"/>
  <image href="file:///C:/Users/HHHES/AppData/Roaming/com.voynichlab.datasetcreator/images/1/a6cd3b6e-2a78-4b30-a4be-5d186aea258e.jpg" x="-1450" y="-584" width="2691" height="3770" opacity="0.92"/>
  <rect x="0.5" y="0.5" width="50" height="75" fill="none" stroke="#111827" stroke-width="1" opacity="0.35"/>
  <polyline points="19,39 19,40 19,41 20,41 20,42 20,43 21,43 21,44 22,45 22,46 23,46 23,47 24,48 24,49 25,49 25,50 26,50 26,51 27,51 27,52 27,53 28,53 28,54 28,55 29,55 29,56 30,56 30,57 31,58 31,59 32,59 32,60" fill="none" stroke="#00a2ff" stroke-width="3" stroke-linecap="round" stroke-linejoin="round" opacity="0.95">
    <title>6113 f:1</title>
  </polyline>
  <polyline points="22,44 23,44 24,44 25,43 26,43 26,42 27,42 27,41 28,41 28,40 29,40 29,39 30,39 30,38 31,37 32,37 32,36 32,35 33,35 33,34 33,33 33,32 34,32 34,31 34,30 34,29 35,29 35,28 35,27 35,26 35,25 35,24 35,23 35,22 34,21" fill="none" stroke="#00ff7f" stroke-width="3" stroke-linecap="round" stroke-linejoin="round" opacity="0.95">
    <title>6247 i:1</title>
  </polyline>
  <polyline points="16,21 16,20 17,19 18,18 18,17 19,17 20,17 21,16 22,16 23,16 24,16 25,16 26,16 27,17 28,17 29,17 30,17 30,18 31,18 32,19 33,20 33,21 34,22 34,23 35,24 35,25" fill="none" stroke="#ff2d55" stroke-width="3" stroke-linecap="round" stroke-linejoin="round" opacity="0.95">
    <title>6320 d:1</title>
  </polyline>
</svg>
