<?xml version="1.0" encoding="UTF-8"?>
<svg xmlns="http://www.w3.org/2000/svg" width="56" height="77" viewBox="0 0 56 77">
  <title>particle img5-m63-p1 e:1 i:1 d:1</title>
  <metadata>{&quot;entityType&quot;:&quot;particle&quot;,&quot;entityId&quot;:&quot;img5-m63-p1&quot;,&quot;token&quot;:&quot;e:1 i:1 d:1&quot;,&quot;signature&quot;:&quot;e:1 i:1 d:1&quot;,&quot;imageName&quot;:&quot;page-005.jpg&quot;,&quot;imageId&quot;:5,&quot;bounds&quot;:{&quot;x&quot;:1398,&quot;y&quot;:2549,&quot;w&quot;:56,&quot;h&quot;:77},&quot;atoms&quot;:[{&quot;id&quot;:5777,&quot;token&quot;:&quot;e:1&quot;,&quot;particle_id&quot;:&quot;img5-m63-p1&quot;,&quot;molecule_id&quot;:&quot;img5-m63&quot;,&quot;atom_order&quot;:1},{&quot;id&quot;:6295,&quot;token&quot;:&quot;i:1&quot;,&quot;particle_id&quot;:&quot;img5-m63-p1&quot;,&quot;molecule_id&quot;:&quot;img5-m63&quot;,&quot;atom_order&quot;:2},{&quot;id&quot;:6354,&quot;token&quot;:&quot;d:1&quot;,&quot;particle_id&quot;:&quot;img5-m63-p1&quot;,&quot;molecule_id&quot;:&quot;img5-m63&quot;,&quot;atom_order&quot;:3}]}</metadata>
  <rect x="0" y="0" width="56" height="77" fill="#f8f0d8"/>
  <image href="file:///C:/Users/HHHES/AppData/Roaming/com.voynichlab.datasetcreator/images/1/a6cd3b6e-2a78-4b30-a4be-5d186aea258e.jpg" x="-1398" y="-2549" width="2691" height="3770" opacity="0.92"/>
  <rect x="0.5" y="0.5" width="55" height="76" fill="none" stroke="#111827" stroke-width="1" opacity="0.35"/>
  <polyline points="35,58 35,59 34,59 34,60 33,60 32,60 32,61 31,61 30,61 29,61 28,61 27,61 26,61 25,61 25,60 24,60 23,60 22,60 22,59 21,59 20,59 20,58 20,57 20,56 20,55 20,54 20,53 20,52 21,52 21,51 21,50 21,49 22,49 22,48 22,47 23,47 23,46 23,45 24,45 25,45 25,44 26,44 26,43 27,43 28,43 28,42 29,42 30,42 31,42 31,41" fill="none" stroke="#f2e45c" stroke-width="3" stroke-linecap="round" stroke-linejoin="round" opacity="0.95">
    <title>5777 e:1</title>
  </polyline>
  <polyline points="28,42 29,42 30,42 30,41 31,41 32,40 33,39 34,38 34,37 35,37 35,36 36,36 36,35 37,34 38,33 38,32 39,32 39,31 39,30 40,29 40,28 40,27 40,26 40,25 40,24 40,23 40,22 39,21 38,20 38,19 37,18 36,18 35,17 34,16 33,16" fill="none" stroke="#00ff7f" stroke-width="3" stroke-linecap="round" stroke-linejoin="round" opacity="0.95">
    <title>6295 i:1</title>
  </polyline>
  <polyline points="17,27 17,26 16,26 16,25 16,24 16,23 17,22 17,21 18,21 19,21 19,20 20,20 21,19 22,19 23,19 24,18 26,18 27,18 28,18 29,17 30,17 31,17 32,17 33,17 34,17 35,17 36,17 37,18 38,18 39,19" fill="none" stroke="#ff2d55" stroke-width="3" stroke-linecap="round" stroke-linejoin="round" opacity="0.95">
    <title>6354 d:1</title>
  </polyline>
</svg>
