<?xml version="1.0" encoding="UTF-8"?>
<svg xmlns="http://www.w3.org/2000/svg" width="120" height="68" viewBox="0 0 120 68">
  <title>particle img5-m55-p2 k:1 f:1 i:1 d:1</title>
  <metadata>{&quot;entityType&quot;:&quot;particle&quot;,&quot;entityId&quot;:&quot;img5-m55-p2&quot;,&quot;token&quot;:&quot;k:1 f:1 i:1 d:1&quot;,&quot;signature&quot;:&quot;k:1 f:1 i:1 d:1&quot;,&quot;imageName&quot;:&quot;page-005.jpg&quot;,&quot;imageId&quot;:5,&quot;bounds&quot;:{&quot;x&quot;:802,&quot;y&quot;:2460,&quot;w&quot;:120,&quot;h&quot;:68},&quot;atoms&quot;:[{&quot;id&quot;:6231,&quot;token&quot;:&quot;k:1&quot;,&quot;particle_id&quot;:&quot;img5-m55-p2&quot;,&quot;molecule_id&quot;:&quot;img5-m55&quot;,&quot;atom_order&quot;:1},{&quot;id&quot;:6157,&quot;token&quot;:&quot;f:1&quot;,&quot;particle_id&quot;:&quot;img5-m55-p2&quot;,&quot;molecule_id&quot;:&quot;img5-m55&quot;,&quot;atom_order&quot;:2},{&quot;id&quot;:6289,&quot;token&quot;:&quot;i:1&quot;,&quot;particle_id&quot;:&quot;img5-m55-p2&quot;,&quot;molecule_id&quot;:&quot;img5-m55&quot;,&quot;atom_order&quot;:3},{&quot;id&quot;:6349,&quot;token&quot;:&quot;d:1&quot;,&quot;particle_id&quot;:&quot;img5-m55-p2&quot;,&quot;molecule_id&quot;:&quot;img5-m55&quot;,&quot;atom_order&quot;:4}]}</metadata>
  <rect x="0" y="0" width="120" height="68" fill="#f8f0d8"/>
  <image href="file:///C:/Users/HHHES/AppData/Roaming/com.voynichlab.datasetcreator/images/1/a6cd3b6e-2a78-4b30-a4be-5d186aea258e.jpg" x="-802" y="-2460" width="2691" height="3770" opacity="0.92"/>
  <rect x="0.5" y="0.5" width="119" height="67" fill="none" stroke="#111827" stroke-width="1" opacity="0.35"/>
  <polyline points="16,32 17,32 17,33 18,33 18,35 19,36 20,37 21,38 22,39 23,40 24,41 25,42 26,42 27,43 28,44 28,45 29,45 29,46 30,46 30,47 30,48 30,49 31,49 32,48 32,47 33,47 34,46 34,45 35,44 36,43 37,42 37,41 38,41 38,40 39,40 39,39 39,38 40,38 40,37 41,37 41,36 42,35 43,35 43,34 43,33 44,33 44,34 45,34 45,35 46,36 47,37 47,38 48,39 49,40 50,40 50,41 51,42 52,42 52,43 53,43 53,44 54,44 55,45 55,46 56,46 56,47 57,48 58,49 58,50 59,50 59,49 60,49 60,48 61,48 61,47 62,46 63,46 63,45 64,45 64,44 65,44 65,43 65,42 66,42 66,41 67,40 67,39 68,39 68,38 68,37 69,37 69,36" fill="none" stroke="#ffffff" stroke-width="3" stroke-linecap="round" stroke-linejoin="round" opacity="0.95">
    <title>6231 k:1</title>
  </polyline>
  <polyline points="67,31 67,32 67,33 68,33 68,34 68,35 69,35 69,36 70,37 70,38 71,38 71,39 72,40 72,41 73,41 73,42 74,42 74,43 75,43 75,44 75,45 76,45 76,46 76,47 77,47 77,48 78,48 78,49 79,50 79,51 80,51 80,52" fill="none" stroke="#00a2ff" stroke-width="3" stroke-linecap="round" stroke-linejoin="round" opacity="0.95">
    <title>6157 f:1</title>
  </polyline>
  <polyline points="79,51 80,51 81,51 82,51 82,50 83,50 84,50 85,50 86,49 87,49 88,49 89,48 90,48 91,48 92,47 93,47 94,46 95,46 95,45 96,45 96,44 97,44 98,43 99,42 99,41 100,41 100,40 101,39 101,38 102,38 102,37 103,36 103,35 103,34 103,33 104,32 104,31 104,30 104,29 104,28 104,27 104,26 104,25 103,24 102,23 102,22 101,22 101,21" fill="none" stroke="#00ff7f" stroke-width="3" stroke-linecap="round" stroke-linejoin="round" opacity="0.95">
    <title>6289 i:1</title>
  </polyline>
  <polyline points="70,20 70,19 71,19 72,19 73,18 74,18 75,17 76,17 77,17 78,17 79,17 80,16 81,16 82,16 83,16 84,16 85,16 86,16 87,17 88,17 89,17 90,18 91,18 92,18 92,19 93,19 94,20 95,20 96,20 96,21 97,21 98,21 99,21 99,22 100,22 101,22 101,23 102,23 102,24 103,24 103,25 104,25 104,26 104,27" fill="none" stroke="#ff2d55" stroke-width="3" stroke-linecap="round" stroke-linejoin="round" opacity="0.95">
    <title>6349 d:1</title>
  </polyline>
</svg>
