<?xml version="1.0" encoding="UTF-8"?>
<svg xmlns="http://www.w3.org/2000/svg" width="56" height="78" viewBox="0 0 56 78">
  <title>particle img5-m22-p4 e:1 i:1 d:1</title>
  <metadata>{&quot;entityType&quot;:&quot;particle&quot;,&quot;entityId&quot;:&quot;img5-m22-p4&quot;,&quot;token&quot;:&quot;e:1 i:1 d:1&quot;,&quot;signature&quot;:&quot;e:1 i:1 d:1&quot;,&quot;imageName&quot;:&quot;page-005.jpg&quot;,&quot;imageId&quot;:5,&quot;bounds&quot;:{&quot;x&quot;:1589,&quot;y&quot;:732,&quot;w&quot;:56,&quot;h&quot;:78},&quot;atoms&quot;:[{&quot;id&quot;:5691,&quot;token&quot;:&quot;e:1&quot;,&quot;particle_id&quot;:&quot;img5-m22-p4&quot;,&quot;molecule_id&quot;:&quot;img5-m22&quot;,&quot;atom_order&quot;:1},{&quot;id&quot;:6270,&quot;token&quot;:&quot;i:1&quot;,&quot;particle_id&quot;:&quot;img5-m22-p4&quot;,&quot;molecule_id&quot;:&quot;img5-m22&quot;,&quot;atom_order&quot;:2},{&quot;id&quot;:6330,&quot;token&quot;:&quot;d:1&quot;,&quot;particle_id&quot;:&quot;img5-m22-p4&quot;,&quot;molecule_id&quot;:&quot;img5-m22&quot;,&quot;atom_order&quot;:3}]}</metadata>
  <rect x="0" y="0" width="56" height="78" fill="#f8f0d8"/>
  <image href="file:///C:/Users/HHHES/AppData/Roaming/com.voynichlab.datasetcreator/images/1/a6cd3b6e-2a78-4b30-a4be-5d186aea258e.jpg" x="-1589" y="-732" width="2691" height="3770" opacity="0.92"/>
  <rect x="0.5" y="0.5" width="55" height="77" fill="none" stroke="#111827" stroke-width="1" opacity="0.35"/>
  <polyline points="31,59 31,60 30,60 30,61 29,61 28,61 28,62 27,62 26,62 25,62 24,62 23,62 22,62 21,62 21,61 20,61 19,61 18,61 18,60 17,60 16,60 16,59 16,58 16,57 16,56 16,55 16,54 16,53 17,53 17,52 17,51 17,50 18,50 18,49 18,48 19,48 19,47 19,46 20,46 21,46 21,45 22,45 22,44 23,44 24,44 24,43 25,43 26,43 27,43 27,42" fill="none" stroke="#f2e45c" stroke-width="3" stroke-linecap="round" stroke-linejoin="round" opacity="0.95">
    <title>5691 e:1</title>
  </polyline>
  <polyline points="26,43 27,43 27,42 28,42 28,41 29,41 30,41 30,40 31,40 31,39 32,38 33,37 34,36 34,35 35,35 35,34 36,33 36,32 37,32 37,31 37,30 38,30 38,29 38,28 38,27 37,26 37,25 36,24 36,23 35,23 35,22 34,21 34,20" fill="none" stroke="#00ff7f" stroke-width="3" stroke-linecap="round" stroke-linejoin="round" opacity="0.95">
    <title>6270 i:1</title>
  </polyline>
  <polyline points="21,25 21,24 20,24 19,24 19,23 19,22 18,22 18,21 19,21 19,20 19,19 19,18 20,18 21,17 22,17 23,17 23,16 24,16 25,16 26,16 27,16 28,16 29,16 30,16 32,17 33,17 34,18 35,18 36,19 37,19 38,19 39,20 39,21 40,22 40,23 40,24 40,25 40,26 40,27 39,27 39,28 39,29 38,30 38,31 37,31 37,32 36,32" fill="none" stroke="#ff2d55" stroke-width="3" stroke-linecap="round" stroke-linejoin="round" opacity="0.95">
    <title>6330 d:1</title>
  </polyline>
</svg>
