<?xml version="1.0" encoding="UTF-8"?>
<svg xmlns="http://www.w3.org/2000/svg" width="113" height="87" viewBox="0 0 113 87">
  <title>particle img5-m104-p2 e:1 a:1 e:1 b:1 c:1 a:1 g:1 e:1</title>
  <metadata>{&quot;entityType&quot;:&quot;particle&quot;,&quot;entityId&quot;:&quot;img5-m104-p2&quot;,&quot;token&quot;:&quot;e:1 a:1 e:1 b:1 c:1 a:1 g:1 e:1&quot;,&quot;signature&quot;:&quot;e:1 a:1 e:1 b:1 c:1 a:1 g:1 e:1&quot;,&quot;imageName&quot;:&quot;page-005.jpg&quot;,&quot;imageId&quot;:5,&quot;bounds&quot;:{&quot;x&quot;:1236,&quot;y&quot;:2862,&quot;w&quot;:113,&quot;h&quot;:87},&quot;atoms&quot;:[{&quot;id&quot;:5842,&quot;token&quot;:&quot;e:1&quot;,&quot;particle_id&quot;:&quot;img5-m104-p2&quot;,&quot;molecule_id&quot;:&quot;img5-m104&quot;,&quot;atom_order&quot;:1},{&quot;id&quot;:5981,&quot;token&quot;:&quot;a:1&quot;,&quot;particle_id&quot;:&quot;img5-m104-p2&quot;,&quot;molecule_id&quot;:&quot;img5-m104&quot;,&quot;atom_order&quot;:2},{&quot;id&quot;:5897,&quot;token&quot;:&quot;e:1&quot;,&quot;particle_id&quot;:&quot;img5-m104-p2&quot;,&quot;molecule_id&quot;:&quot;img5-m104&quot;,&quot;atom_order&quot;:3},{&quot;id&quot;:6007,&quot;token&quot;:&quot;b:1&quot;,&quot;particle_id&quot;:&quot;img5-m104-p2&quot;,&quot;molecule_id&quot;:&quot;img5-m104&quot;,&quot;atom_order&quot;:4},{&quot;id&quot;:6065,&quot;token&quot;:&quot;c:1&quot;,&quot;particle_id&quot;:&quot;img5-m104-p2&quot;,&quot;molecule_id&quot;:&quot;img5-m104&quot;,&quot;atom_order&quot;:5},{&quot;id&quot;:5982,&quot;token&quot;:&quot;a:1&quot;,&quot;particle_id&quot;:&quot;img5-m104-p2&quot;,&quot;molecule_id&quot;:&quot;img5-m104&quot;,&quot;atom_order&quot;:6},{&quot;id&quot;:6455,&quot;token&quot;:&quot;g:1&quot;,&quot;particle_id&quot;:&quot;img5-m104-p2&quot;,&quot;molecule_id&quot;:&quot;img5-m104&quot;,&quot;atom_order&quot;:7},{&quot;id&quot;:5843,&quot;token&quot;:&quot;e:1&quot;,&quot;particle_id&quot;:&quot;img5-m104-p2&quot;,&quot;molecule_id&quot;:&quot;img5-m104&quot;,&quot;atom_order&quot;:8}]}</metadata>
  <rect x="0" y="0" width="113" height="87" fill="#f8f0d8"/>
  <image href="file:///C:/Users/HHHES/AppData/Roaming/com.voynichlab.datasetcreator/images/1/a6cd3b6e-2a78-4b30-a4be-5d186aea258e.jpg" x="-1236" y="-2862" width="2691" height="3770" opacity="0.92"/>
  <rect x="0.5" y="0.5" width="112" height="86" fill="none" stroke="#111827" stroke-width="1" opacity="0.35"/>
  <polyline points="31,66 31,67 30,67 30,68 29,68 28,68 28,69 27,69 26,69 25,69 24,69 23,69 22,69 21,69 21,68 20,68 19,68 18,68 18,67 17,67 16,67 16,66 16,65 16,64 16,63 16,62 16,61 16,60 17,60 17,59 17,58 17,57 18,57 18,56 18,55 19,55 19,54 19,53 20,53 21,53 21,52 22,52 22,51 23,51 24,51 24,50 25,50 26,50 27,50 27,49" fill="none" stroke="#f2e45c" stroke-width="3" stroke-linecap="round" stroke-linejoin="round" opacity="0.95">
    <title>5842 e:1</title>
  </polyline>
  <polyline points="46,16 46,18 46,20 46,22 46,23 46,25 46,26 46,28 46,29 46,30 46,32 46,33 46,34 46,35 46,36 46,37 46,39 46,40 46,42 46,43 46,44 46,46 46,47 46,49 45,50 45,52 45,54 45,55 45,56 45,57 45,59 45,61 45,62 45,63 45,64 45,65 44,65 44,66 44,67 44,68 44,69" fill="none" stroke="#00f0b5" stroke-width="3" stroke-linecap="round" stroke-linejoin="round" opacity="0.95">
    <title>5981 a:1</title>
  </polyline>
  <polyline points="50,33 50,34 49,34 49,35 48,35 47,35 47,36 46,36 45,36 44,36 43,36 42,36 41,36 40,36 40,35 39,35 38,35 37,35 37,34 36,34 35,34 35,33 35,32 35,31 35,30 35,29 35,28 35,27 36,27 36,26 36,25 36,24 37,24 37,23 37,22 38,22 38,21 38,20 39,20 40,20 40,19 41,19 41,18 42,18 43,18 43,17 44,17 45,17 46,17 46,16" fill="none" stroke="#f2e45c" stroke-width="3" stroke-linecap="round" stroke-linejoin="round" opacity="0.95">
    <title>5897 e:1</title>
  </polyline>
  <polyline points="37,31 38,32 39,32 40,32 41,33 42,33 43,34 44,34 46,35 47,35 48,35 49,35 51,35 53,36 55,36 56,36 57,36 58,36 60,36 61,36 63,37 64,37 65,37 66,37 68,36 69,36 70,36 71,36 72,36 73,35 74,35 75,35 76,35 77,35 77,34 78,34 78,33 79,33 80,33 80,32" fill="none" stroke="#2f7df6" stroke-width="3" stroke-linecap="round" stroke-linejoin="round" opacity="0.95">
    <title>6007 b:1</title>
  </polyline>
  <polyline points="64,22 64,23 63,23 63,24 63,25 62,25 62,26 62,27 62,28 62,29 62,30 62,31 62,32 63,32 63,33 64,33 64,34 65,35 66,35 67,35 68,35 68,36 69,36 70,36 71,36 72,36 73,36 74,36 75,36 76,36 76,35 77,35 78,35 78,34 78,33 79,33 79,32 80,32 80,31 80,30 81,30 81,29 81,28 82,28 82,27 82,26 82,25 82,24 82,23 82,22 81,22 81,21 81,20 80,20 80,19 79,19 79,18 78,18 78,17 77,17 76,17 76,16 75,16 74,16 73,16 72,16 71,16 70,16 69,16 68,17 67,17 67,18 66,18 66,19 65,19 64,19 64,20 63,20 63,21 63,22" fill="none" stroke="#8aff00" stroke-width="3" stroke-linecap="round" stroke-linejoin="round" opacity="0.95">
    <title>6065 c:1</title>
  </polyline>
  <polyline points="65,18 65,19 65,20 64,21 64,23 63,25 63,28 62,31 62,33 62,36 61,37 61,39 61,42 61,44 61,46 61,48 61,50 61,51 61,53 61,54 61,56 61,57 61,59 61,60 61,61 61,63 61,64 61,65 61,66 61,67 61,68 61,69 61,70 61,71" fill="none" stroke="#00f0b5" stroke-width="3" stroke-linecap="round" stroke-linejoin="round" opacity="0.95">
    <title>5982 a:1</title>
  </polyline>
  <polyline points="22,50 23,50 24,50 25,50 26,50 28,50 29,50 30,50 32,50 33,51 34,51 35,51 36,51 37,51 38,51 40,51 42,51 43,51 43,52 44,52 45,52 46,52 48,52 49,52 50,52 51,52 52,52 53,52 54,52 55,52 56,52 57,52 58,52 59,52 59,53 60,53 61,53 62,53 63,53 64,53 65,53 66,53 67,53 68,53 69,53 70,53 71,53 71,54 72,54 73,54 74,54 75,54 76,54 77,54 78,54 79,54 80,54 81,54 82,54 83,54 84,54 85,54 86,54 87,54 88,54 89,54 90,54" fill="none" stroke="#7c3cff" stroke-width="3" stroke-linecap="round" stroke-linejoin="round" opacity="0.95">
    <title>6455 g:1</title>
  </polyline>
  <polyline points="97,68 97,69 96,69 96,70 95,70 94,70 94,71 93,71 92,71 91,71 90,71 89,71 88,71 87,71 87,70 86,70 85,70 84,70 84,69 83,69 82,69 82,68 82,67 82,66 82,65 82,64 82,63 82,62 83,62 83,61 83,60 83,59 84,59 84,58 84,57 85,57 85,56 85,55 86,55 87,55 87,54 88,54 88,53 89,53 90,53 90,52 91,52 92,52 93,52 93,51" fill="none" stroke="#f2e45c" stroke-width="3" stroke-linecap="round" stroke-linejoin="round" opacity="0.95">
    <title>5843 e:1</title>
  </polyline>
</svg>
