<?xml version="1.0" encoding="UTF-8"?>
<svg xmlns="http://www.w3.org/2000/svg" width="80" height="53" viewBox="0 0 80 53">
  <title>particle img5-m30-p1 e:1 g:1 e:1</title>
  <metadata>{&quot;entityType&quot;:&quot;particle&quot;,&quot;entityId&quot;:&quot;img5-m30-p1&quot;,&quot;token&quot;:&quot;e:1 g:1 e:1&quot;,&quot;signature&quot;:&quot;e:1 g:1 e:1&quot;,&quot;imageName&quot;:&quot;page-005.jpg&quot;,&quot;imageId&quot;:5,&quot;bounds&quot;:{&quot;x&quot;:1334,&quot;y&quot;:823,&quot;w&quot;:80,&quot;h&quot;:53},&quot;atoms&quot;:[{&quot;id&quot;:5715,&quot;token&quot;:&quot;e:1&quot;,&quot;particle_id&quot;:&quot;img5-m30-p1&quot;,&quot;molecule_id&quot;:&quot;img5-m30&quot;,&quot;atom_order&quot;:1},{&quot;id&quot;:6415,&quot;token&quot;:&quot;g:1&quot;,&quot;particle_id&quot;:&quot;img5-m30-p1&quot;,&quot;molecule_id&quot;:&quot;img5-m30&quot;,&quot;atom_order&quot;:2},{&quot;id&quot;:5717,&quot;token&quot;:&quot;e:1&quot;,&quot;particle_id&quot;:&quot;img5-m30-p1&quot;,&quot;molecule_id&quot;:&quot;img5-m30&quot;,&quot;atom_order&quot;:3}]}</metadata>
  <rect x="0" y="0" width="80" height="53" fill="#f8f0d8"/>
  <image href="file:///C:/Users/HHHES/AppData/Roaming/com.voynichlab.datasetcreator/images/1/a6cd3b6e-2a78-4b30-a4be-5d186aea258e.jpg" x="-1334" y="-823" width="2691" height="3770" opacity="0.92"/>
  <rect x="0.5" y="0.5" width="79" height="52" fill="none" stroke="#111827" stroke-width="1" opacity="0.35"/>
  <polyline points="31,33 31,34 30,34 30,35 29,35 28,35 28,36 27,36 26,36 25,36 24,36 23,36 22,36 21,36 21,35 20,35 19,35 18,35 18,34 17,34 16,34 16,33 16,32 16,31 16,30 16,29 16,28 16,27 17,27 17,26 17,25 17,24 18,24 18,23 18,22 19,22 19,21 19,20 20,20 21,20 21,19 22,19 22,18 23,18 24,18 24,17 25,17 26,17 27,17 27,16" fill="none" stroke="#f2e45c" stroke-width="3" stroke-linecap="round" stroke-linejoin="round" opacity="0.95">
    <title>5715 e:1</title>
  </polyline>
  <polyline points="23,18 23,17 24,17 25,17 26,17 27,17 28,17 29,17 30,17 31,17 32,18 33,18 35,18 36,18 38,18 39,18 40,18 41,18 42,18 43,18 44,18 45,18 46,18 47,18 48,18 48,19 49,19 50,19 51,19 52,19 53,19 54,19 55,19 56,19 57,19 58,19 59,19 60,19 61,19" fill="none" stroke="#7c3cff" stroke-width="3" stroke-linecap="round" stroke-linejoin="round" opacity="0.95">
    <title>6415 g:1</title>
  </polyline>
  <polyline points="64,34 64,35 63,35 63,36 62,36 61,36 61,37 60,37 59,37 58,37 57,37 56,37 55,37 54,37 54,36 53,36 52,36 51,36 51,35 50,35 49,35 49,34 49,33 49,32 49,31 49,30 49,29 49,28 50,28 50,27 50,26 50,25 51,25 51,24 51,23 52,23 52,22 52,21 53,21 54,21 54,20 55,20 55,19 56,19 57,19 57,18 58,18 59,18 60,18 60,17" fill="none" stroke="#f2e45c" stroke-width="3" stroke-linecap="round" stroke-linejoin="round" opacity="0.95">
    <title>5717 e:1</title>
  </polyline>
</svg>
