<?xml version="1.0" encoding="UTF-8"?>
<svg xmlns="http://www.w3.org/2000/svg" width="49" height="76" viewBox="0 0 49 76">
  <title>particle img5-m12-p3 f:1 i:1 d:1</title>
  <metadata>{&quot;entityType&quot;:&quot;particle&quot;,&quot;entityId&quot;:&quot;img5-m12-p3&quot;,&quot;token&quot;:&quot;f:1 i:1 d:1&quot;,&quot;signature&quot;:&quot;f:1 i:1 d:1&quot;,&quot;imageName&quot;:&quot;page-005.jpg&quot;,&quot;imageId&quot;:5,&quot;bounds&quot;:{&quot;x&quot;:478,&quot;y&quot;:577,&quot;w&quot;:49,&quot;h&quot;:76},&quot;atoms&quot;:[{&quot;id&quot;:6117,&quot;token&quot;:&quot;f:1&quot;,&quot;particle_id&quot;:&quot;img5-m12-p3&quot;,&quot;molecule_id&quot;:&quot;img5-m12&quot;,&quot;atom_order&quot;:1},{&quot;id&quot;:6251,&quot;token&quot;:&quot;i:1&quot;,&quot;particle_id&quot;:&quot;img5-m12-p3&quot;,&quot;molecule_id&quot;:&quot;img5-m12&quot;,&quot;atom_order&quot;:2},{&quot;id&quot;:6325,&quot;token&quot;:&quot;d:1&quot;,&quot;particle_id&quot;:&quot;img5-m12-p3&quot;,&quot;molecule_id&quot;:&quot;img5-m12&quot;,&quot;atom_order&quot;:3}]}</metadata>
  <rect x="0" y="0" width="49" height="76" fill="#f8f0d8"/>
  <image href="file:///C:/Users/HHHES/AppData/Roaming/com.voynichlab.datasetcreator/images/1/a6cd3b6e-2a78-4b30-a4be-5d186aea258e.jpg" x="-478" y="-577" width="2691" height="3770" opacity="0.92"/>
  <rect x="0.5" y="0.5" width="48" height="75" fill="none" stroke="#111827" stroke-width="1" opacity="0.35"/>
  <polyline points="16,39 16,40 16,41 17,41 17,42 17,43 18,43 18,44 19,45 19,46 20,46 20,47 21,48 21,49 22,49 22,50 23,50 23,51 24,51 24,52 24,53 25,53 25,54 25,55 26,55 26,56 27,56 27,57 28,58 28,59 29,59 29,60" fill="none" stroke="#00a2ff" stroke-width="3" stroke-linecap="round" stroke-linejoin="round" opacity="0.95">
    <title>6117 f:1</title>
  </polyline>
  <polyline points="19,45 20,45 21,45 21,44 22,44 23,44 24,43 25,42 26,41 27,41 27,40 28,39 29,38 29,37 30,37 31,36 31,35 32,34 32,33 33,33 33,32 33,31 33,30 33,29 33,28 33,27 33,26 33,25 33,24 33,23" fill="none" stroke="#00ff7f" stroke-width="3" stroke-linecap="round" stroke-linejoin="round" opacity="0.95">
    <title>6251 i:1</title>
  </polyline>
  <polyline points="17,27 17,26 17,25 17,24 17,23 18,23 18,22 18,21 18,20 19,20 19,19 20,18 21,17 22,17 23,16 24,16 25,16 26,16 27,17 28,17 29,17 29,18 30,18 30,19 30,20 30,21 31,21 31,22 31,23 32,23 32,24 32,25 33,25 33,26 33,27 33,28" fill="none" stroke="#ff2d55" stroke-width="3" stroke-linecap="round" stroke-linejoin="round" opacity="0.95">
    <title>6325 d:1</title>
  </polyline>
</svg>
