<?xml version="1.0" encoding="UTF-8"?>
<svg xmlns="http://www.w3.org/2000/svg" width="60" height="77" viewBox="0 0 60 77">
  <title>particle img5-m37-p1 e:1 i:1 d:1</title>
  <metadata>{&quot;entityType&quot;:&quot;particle&quot;,&quot;entityId&quot;:&quot;img5-m37-p1&quot;,&quot;token&quot;:&quot;e:1 i:1 d:1&quot;,&quot;signature&quot;:&quot;e:1 i:1 d:1&quot;,&quot;imageName&quot;:&quot;page-005.jpg&quot;,&quot;imageId&quot;:5,&quot;bounds&quot;:{&quot;x&quot;:418,&quot;y&quot;:877,&quot;w&quot;:60,&quot;h&quot;:77},&quot;atoms&quot;:[{&quot;id&quot;:5745,&quot;token&quot;:&quot;e:1&quot;,&quot;particle_id&quot;:&quot;img5-m37-p1&quot;,&quot;molecule_id&quot;:&quot;img5-m37&quot;,&quot;atom_order&quot;:1},{&quot;id&quot;:6284,&quot;token&quot;:&quot;i:1&quot;,&quot;particle_id&quot;:&quot;img5-m37-p1&quot;,&quot;molecule_id&quot;:&quot;img5-m37&quot;,&quot;atom_order&quot;:2},{&quot;id&quot;:6339,&quot;token&quot;:&quot;d:1&quot;,&quot;particle_id&quot;:&quot;img5-m37-p1&quot;,&quot;molecule_id&quot;:&quot;img5-m37&quot;,&quot;atom_order&quot;:3}]}</metadata>
  <rect x="0" y="0" width="60" height="77" fill="#f8f0d8"/>
  <image href="file:///C:/Users/HHHES/AppData/Roaming/com.voynichlab.datasetcreator/images/1/a6cd3b6e-2a78-4b30-a4be-5d186aea258e.jpg" x="-418" y="-877" width="2691" height="3770" opacity="0.92"/>
  <rect x="0.5" y="0.5" width="59" height="76" fill="none" stroke="#111827" stroke-width="1" opacity="0.35"/>
  <polyline points="44,58 44,59 43,59 43,60 42,60 41,60 41,61 40,61 39,61 38,61 37,61 36,61 35,61 34,61 34,60 33,60 32,60 31,60 31,59 30,59 29,59 29,58 29,57 29,56 29,55 29,54 29,53 29,52 30,52 30,51 30,50 30,49 31,49 31,48 31,47 32,47 32,46 32,45 33,45 34,45 34,44 35,44 35,43 36,43 37,43 37,42 38,42 39,42 40,42 40,41" fill="none" stroke="#f2e45c" stroke-width="3" stroke-linecap="round" stroke-linejoin="round" opacity="0.95">
    <title>5745 e:1</title>
  </polyline>
  <polyline points="35,43 36,42 37,42 38,41 39,40 39,39 40,39 40,38 40,37 40,36 41,36 41,35 41,34 41,33 41,32 41,31 41,30 41,29 41,28 41,27 41,26 41,25 41,24 41,23 41,22 40,21 39,20 38,20 38,19 38,18 37,18 36,17 35,17 35,16 34,16" fill="none" stroke="#00ff7f" stroke-width="3" stroke-linecap="round" stroke-linejoin="round" opacity="0.95">
    <title>6284 i:1</title>
  </polyline>
  <polyline points="19,33 18,32 17,31 16,30 16,29 16,28 16,27 16,26 16,25 16,24 16,23 17,23 17,22 18,22 19,21 20,21 20,20 21,20 22,19 23,19 24,18 25,18 26,18 27,17 28,17 29,17 31,17 32,17 33,17 34,17 35,17 36,17 37,17 37,18 38,18 39,18 39,19" fill="none" stroke="#ff2d55" stroke-width="3" stroke-linecap="round" stroke-linejoin="round" opacity="0.95">
    <title>6339 d:1</title>
  </polyline>
</svg>
