<?xml version="1.0" encoding="UTF-8"?>
<svg xmlns="http://www.w3.org/2000/svg" width="55" height="73" viewBox="0 0 55 73">
  <title>particle img5-m23-p5 e:1 c:1 h:2</title>
  <metadata>{&quot;entityType&quot;:&quot;particle&quot;,&quot;entityId&quot;:&quot;img5-m23-p5&quot;,&quot;token&quot;:&quot;e:1 c:1 h:2&quot;,&quot;signature&quot;:&quot;e:1 c:1 h:2&quot;,&quot;imageName&quot;:&quot;page-005.jpg&quot;,&quot;imageId&quot;:5,&quot;bounds&quot;:{&quot;x&quot;:1174,&quot;y&quot;:729,&quot;w&quot;:55,&quot;h&quot;:73},&quot;atoms&quot;:[{&quot;id&quot;:5698,&quot;token&quot;:&quot;e:1&quot;,&quot;particle_id&quot;:&quot;img5-m23-p5&quot;,&quot;molecule_id&quot;:&quot;img5-m23&quot;,&quot;atom_order&quot;:1},{&quot;id&quot;:5595,&quot;token&quot;:&quot;c:1&quot;,&quot;particle_id&quot;:&quot;img5-m23-p5&quot;,&quot;molecule_id&quot;:&quot;img5-m23&quot;,&quot;atom_order&quot;:2},{&quot;id&quot;:6074,&quot;token&quot;:&quot;h:2&quot;,&quot;particle_id&quot;:&quot;img5-m23-p5&quot;,&quot;molecule_id&quot;:&quot;img5-m23&quot;,&quot;atom_order&quot;:3}]}</metadata>
  <rect x="0" y="0" width="55" height="73" fill="#f8f0d8"/>
  <image href="file:///C:/Users/HHHES/AppData/Roaming/com.voynichlab.datasetcreator/images/1/a6cd3b6e-2a78-4b30-a4be-5d186aea258e.jpg" x="-1174" y="-729" width="2691" height="3770" opacity="0.92"/>
  <rect x="0.5" y="0.5" width="54" height="72" fill="none" stroke="#111827" stroke-width="1" opacity="0.35"/>
  <polyline points="31,54 31,55 30,55 30,56 29,56 28,56 28,57 27,57 26,57 25,57 24,57 23,57 22,57 21,57 21,56 20,56 19,56 18,56 18,55 17,55 16,55 16,54 16,53 16,52 16,51 16,50 16,49 16,48 17,48 17,47 17,46 17,45 18,45 18,44 18,43 19,43 19,42 19,41 20,41 21,41 21,40 22,40 22,39 23,39 24,39 24,38 25,38 26,38 27,38 27,37" fill="none" stroke="#f2e45c" stroke-width="3" stroke-linecap="round" stroke-linejoin="round" opacity="0.95">
    <title>5698 e:1</title>
  </polyline>
  <polyline points="25,31 26,31 27,31 28,31 29,31 31,31 32,31 33,31 34,31 34,30 35,30 35,29 36,29 37,28 38,27 38,26 39,25 39,24 39,23 39,22 39,21 38,21 38,20 38,19 37,19 36,18 35,18 34,17 33,17 31,16 30,16 29,16 28,16 27,16 25,16 24,17 23,17 22,17 21,17 21,18 20,18 19,19 19,20 19,21 19,22 19,23 19,24 20,25 20,26 21,27 21,28 22,28 22,29 23,29 23,30 24,30 25,30 25,31 26,31 27,31 28,31" fill="none" stroke="#8aff00" stroke-width="3" stroke-linecap="round" stroke-linejoin="round" opacity="0.95">
    <title>5595 c:1</title>
  </polyline>
  <polyline points="29,57 29,56 30,56 30,55 31,55 31,54 32,54 32,53 33,53 33,52 33,51 34,50 34,49 34,48 34,47 34,46 34,45 34,44 33,44 33,43 32,42 31,42 31,41 30,41 29,40 28,39 27,39 27,38 26,38 25,37 24,36 24,35 23,35 23,34 23,33 22,32 22,31 22,29 21,28 21,27 21,26 21,25 21,24 21,23 21,22 21,21 21,20 21,19 21,18 22,17 23,17 23,16 24,16 25,16" fill="none" stroke="#ff8c00" stroke-width="3" stroke-linecap="round" stroke-linejoin="round" opacity="0.95">
    <title>6074 h:2</title>
  </polyline>
</svg>
