<?xml version="1.0" encoding="UTF-8"?>
<svg xmlns="http://www.w3.org/2000/svg" width="104" height="76" viewBox="0 0 104 76">
  <title>particle img5-m100-p3 k:1 f:1 i:1 d:1</title>
  <metadata>{&quot;entityType&quot;:&quot;particle&quot;,&quot;entityId&quot;:&quot;img5-m100-p3&quot;,&quot;token&quot;:&quot;k:1 f:1 i:1 d:1&quot;,&quot;signature&quot;:&quot;k:1 f:1 i:1 d:1&quot;,&quot;imageName&quot;:&quot;page-005.jpg&quot;,&quot;imageId&quot;:5,&quot;bounds&quot;:{&quot;x&quot;:1041,&quot;y&quot;:2874,&quot;w&quot;:104,&quot;h&quot;:76},&quot;atoms&quot;:[{&quot;id&quot;:6241,&quot;token&quot;:&quot;k:1&quot;,&quot;particle_id&quot;:&quot;img5-m100-p3&quot;,&quot;molecule_id&quot;:&quot;img5-m100&quot;,&quot;atom_order&quot;:1},{&quot;id&quot;:6215,&quot;token&quot;:&quot;f:1&quot;,&quot;particle_id&quot;:&quot;img5-m100-p3&quot;,&quot;molecule_id&quot;:&quot;img5-m100&quot;,&quot;atom_order&quot;:2},{&quot;id&quot;:6314,&quot;token&quot;:&quot;i:1&quot;,&quot;particle_id&quot;:&quot;img5-m100-p3&quot;,&quot;molecule_id&quot;:&quot;img5-m100&quot;,&quot;atom_order&quot;:3},{&quot;id&quot;:6381,&quot;token&quot;:&quot;d:1&quot;,&quot;particle_id&quot;:&quot;img5-m100-p3&quot;,&quot;molecule_id&quot;:&quot;img5-m100&quot;,&quot;atom_order&quot;:4}]}</metadata>
  <rect x="0" y="0" width="104" height="76" fill="#f8f0d8"/>
  <image href="file:///C:/Users/HHHES/AppData/Roaming/com.voynichlab.datasetcreator/images/1/a6cd3b6e-2a78-4b30-a4be-5d186aea258e.jpg" x="-1041" y="-2874" width="2691" height="3770" opacity="0.92"/>
  <rect x="0.5" y="0.5" width="103" height="75" fill="none" stroke="#111827" stroke-width="1" opacity="0.35"/>
  <polyline points="16,38 16,39 16,40 17,41 17,43 18,44 19,45 19,46 20,46 21,48 22,49 23,50 23,51 24,52 25,53 25,54 26,54 26,55 27,56 27,57 28,57 28,58 29,58 29,57 29,56 30,55 31,54 31,53 32,52 33,51 33,50 34,49 35,48 36,47 36,46 37,45 38,44 38,43 39,43 40,42 40,43 40,44 40,45 40,46 41,47 41,48 42,48 42,49 43,50 43,51 44,52 45,53 45,54 46,55 46,56 47,57 48,58 48,59 48,60 49,60 49,59 50,58 51,57 51,56 52,55 53,54 53,53 54,52 55,51 55,50 56,49 56,48 57,48 57,47 58,46 58,45 59,45 59,44 59,43 60,42 61,41 61,40" fill="none" stroke="#ffffff" stroke-width="3" stroke-linecap="round" stroke-linejoin="round" opacity="0.95">
    <title>6241 k:1</title>
  </polyline>
  <polyline points="60,39 60,40 60,41 61,41 61,42 61,43 62,43 62,44 63,45 63,46 64,46 64,47 65,48 65,49 66,49 66,50 67,50 67,51 68,51 68,52 68,53 69,53 69,54 69,55 70,55 70,56 71,56 71,57 72,58 72,59 73,59 73,60" fill="none" stroke="#00a2ff" stroke-width="3" stroke-linecap="round" stroke-linejoin="round" opacity="0.95">
    <title>6215 f:1</title>
  </polyline>
  <polyline points="72,60 73,60 74,60 75,59 76,59 77,59 77,58 78,58 79,57 80,57 80,56 81,56 81,55 82,55 82,54 83,54 84,53 84,52 85,52 85,51 86,51 86,50 86,49 86,48 86,47 87,46 87,45 87,44 88,43 88,42 88,41 88,40 88,39 88,38 88,37 88,36 88,35 88,34 87,33 87,32 87,31 86,30 86,29 85,28 85,27 84,26 84,25 83,24 82,23 82,22" fill="none" stroke="#00ff7f" stroke-width="3" stroke-linecap="round" stroke-linejoin="round" opacity="0.95">
    <title>6314 i:1</title>
  </polyline>
  <polyline points="51,21 51,22 51,21 52,21 53,20 54,20 55,19 56,18 57,18 58,17 59,17 60,16 61,16 62,16 63,16 65,16 66,16 68,16 70,16 71,17 72,17 73,17 74,18 75,18 75,19 77,19 77,20 78,20 79,20 80,21 81,21 82,22 83,22 84,23 85,23 85,24 85,25 86,25 86,26 86,27" fill="none" stroke="#ff2d55" stroke-width="3" stroke-linecap="round" stroke-linejoin="round" opacity="0.95">
    <title>6381 d:1</title>
  </polyline>
</svg>
