<?xml version="1.0" encoding="UTF-8"?>
<svg xmlns="http://www.w3.org/2000/svg" width="92" height="53" viewBox="0 0 92 53">
  <title>particle img5-m20-p1 e:1 g:1 e:1</title>
  <metadata>{&quot;entityType&quot;:&quot;particle&quot;,&quot;entityId&quot;:&quot;img5-m20-p1&quot;,&quot;token&quot;:&quot;e:1 g:1 e:1&quot;,&quot;signature&quot;:&quot;e:1 g:1 e:1&quot;,&quot;imageName&quot;:&quot;page-005.jpg&quot;,&quot;imageId&quot;:5,&quot;bounds&quot;:{&quot;x&quot;:1862,&quot;y&quot;:676,&quot;w&quot;:92,&quot;h&quot;:53},&quot;atoms&quot;:[{&quot;id&quot;:5683,&quot;token&quot;:&quot;e:1&quot;,&quot;particle_id&quot;:&quot;img5-m20-p1&quot;,&quot;molecule_id&quot;:&quot;img5-m20&quot;,&quot;atom_order&quot;:1},{&quot;id&quot;:6408,&quot;token&quot;:&quot;g:1&quot;,&quot;particle_id&quot;:&quot;img5-m20-p1&quot;,&quot;molecule_id&quot;:&quot;img5-m20&quot;,&quot;atom_order&quot;:2},{&quot;id&quot;:5684,&quot;token&quot;:&quot;e:1&quot;,&quot;particle_id&quot;:&quot;img5-m20-p1&quot;,&quot;molecule_id&quot;:&quot;img5-m20&quot;,&quot;atom_order&quot;:3}]}</metadata>
  <rect x="0" y="0" width="92" height="53" fill="#f8f0d8"/>
  <image href="file:///C:/Users/HHHES/AppData/Roaming/com.voynichlab.datasetcreator/images/1/a6cd3b6e-2a78-4b30-a4be-5d186aea258e.jpg" x="-1862" y="-676" width="2691" height="3770" opacity="0.92"/>
  <rect x="0.5" y="0.5" width="91" height="52" fill="none" stroke="#111827" stroke-width="1" opacity="0.35"/>
  <polyline points="31,34 31,35 30,35 30,36 29,36 28,36 28,37 27,37 26,37 25,37 24,37 23,37 22,37 21,37 21,36 20,36 19,36 18,36 18,35 17,35 16,35 16,34 16,33 16,32 16,31 16,30 16,29 16,28 17,28 17,27 17,26 17,25 18,25 18,24 18,23 19,23 19,22 19,21 20,21 21,21 21,20 22,20 22,19 23,19 24,19 24,18 25,18 26,18 27,18 27,17" fill="none" stroke="#f2e45c" stroke-width="3" stroke-linecap="round" stroke-linejoin="round" opacity="0.95">
    <title>5683 e:1</title>
  </polyline>
  <polyline points="23,18 24,18 25,18 26,18 26,17 27,17 28,17 29,17 30,17 31,17 32,17 33,17 34,17 36,17 37,16 38,16 39,16 41,16 42,16 43,16 44,16 45,16 46,16 49,16 51,17 53,17 54,17 55,17 56,17 57,17 58,17 60,17 62,17 63,17 64,17 65,17 66,17 67,17 68,17 69,17 70,17 71,17 72,17" fill="none" stroke="#7c3cff" stroke-width="3" stroke-linecap="round" stroke-linejoin="round" opacity="0.95">
    <title>6408 g:1</title>
  </polyline>
  <polyline points="76,34 76,35 75,35 75,36 74,36 73,36 73,37 72,37 71,37 70,37 69,37 68,37 67,37 66,37 66,36 65,36 64,36 63,36 63,35 62,35 61,35 61,34 61,33 61,32 61,31 61,30 61,29 61,28 62,28 62,27 62,26 62,25 63,25 63,24 63,23 64,23 64,22 64,21 65,21 66,21 66,20 67,20 67,19 68,19 69,19 69,18 70,18 71,18 72,18 72,17" fill="none" stroke="#f2e45c" stroke-width="3" stroke-linecap="round" stroke-linejoin="round" opacity="0.95">
    <title>5684 e:1</title>
  </polyline>
</svg>
