<?xml version="1.0" encoding="UTF-8"?>
<svg xmlns="http://www.w3.org/2000/svg" width="52" height="83" viewBox="0 0 52 83">
  <title>particle img5-m87-p1 e:1 h:1</title>
  <metadata>{&quot;entityType&quot;:&quot;particle&quot;,&quot;entityId&quot;:&quot;img5-m87-p1&quot;,&quot;token&quot;:&quot;e:1 h:1&quot;,&quot;signature&quot;:&quot;e:1 h:1&quot;,&quot;imageName&quot;:&quot;page-005.jpg&quot;,&quot;imageId&quot;:5,&quot;bounds&quot;:{&quot;x&quot;:470,&quot;y&quot;:2716,&quot;w&quot;:52,&quot;h&quot;:83},&quot;atoms&quot;:[{&quot;id&quot;:5761,&quot;token&quot;:&quot;e:1&quot;,&quot;particle_id&quot;:&quot;img5-m87-p1&quot;,&quot;molecule_id&quot;:&quot;img5-m87&quot;,&quot;atom_order&quot;:1},{&quot;id&quot;:5936,&quot;token&quot;:&quot;h:1&quot;,&quot;particle_id&quot;:&quot;img5-m87-p1&quot;,&quot;molecule_id&quot;:&quot;img5-m87&quot;,&quot;atom_order&quot;:2}]}</metadata>
  <rect x="0" y="0" width="52" height="83" fill="#f8f0d8"/>
  <image href="file:///C:/Users/HHHES/AppData/Roaming/com.voynichlab.datasetcreator/images/1/a6cd3b6e-2a78-4b30-a4be-5d186aea258e.jpg" x="-470" y="-2716" width="2691" height="3770" opacity="0.92"/>
  <rect x="0.5" y="0.5" width="51" height="82" fill="none" stroke="#111827" stroke-width="1" opacity="0.35"/>
  <polyline points="31,33 31,34 30,34 30,35 29,35 28,35 28,36 27,36 26,36 25,36 24,36 23,36 22,36 21,36 21,35 20,35 19,35 18,35 18,34 17,34 16,34 16,33 16,32 16,31 16,30 16,29 16,28 16,27 17,27 17,26 17,25 17,24 18,24 18,23 18,22 19,22 19,21 19,20 20,20 21,20 21,19 22,19 22,18 23,18 24,18 24,17 25,17 26,17 27,17 27,16" fill="none" stroke="#f2e45c" stroke-width="3" stroke-linecap="round" stroke-linejoin="round" opacity="0.95">
    <title>5761 e:1</title>
  </polyline>
  <polyline points="24,17 25,17 25,18 26,18 27,18 27,19 27,20 28,20 29,21 30,22 31,23 32,24 32,25 33,25 33,26 34,26 34,27 34,28 35,29 35,30 35,31 35,32 36,32 36,33 36,34 36,35 36,36 36,37 36,38 35,38 35,39 35,40 35,41 35,42 34,43 34,44 34,45 33,46 33,47 32,47 32,48 31,49 31,50 30,50 30,51 29,51 29,52 28,52 28,53 27,53 27,54 26,55 26,56 25,56 25,57 24,57 24,58 23,58 23,59 22,59 22,60 21,60 21,61 20,62 20,63 19,63 19,64 18,65 18,66 17,67" fill="none" stroke="#ff8c00" stroke-width="3" stroke-linecap="round" stroke-linejoin="round" opacity="0.95">
    <title>5936 h:1</title>
  </polyline>
</svg>
