<?xml version="1.0" encoding="UTF-8"?>
<svg xmlns="http://www.w3.org/2000/svg" width="53" height="71" viewBox="0 0 53 71">
  <title>particle img5-m16-p3 f:1 i:1 d:1</title>
  <metadata>{&quot;entityType&quot;:&quot;particle&quot;,&quot;entityId&quot;:&quot;img5-m16-p3&quot;,&quot;token&quot;:&quot;f:1 i:1 d:1&quot;,&quot;signature&quot;:&quot;f:1 i:1 d:1&quot;,&quot;imageName&quot;:&quot;page-005.jpg&quot;,&quot;imageId&quot;:5,&quot;bounds&quot;:{&quot;x&quot;:1435,&quot;y&quot;:648,&quot;w&quot;:53,&quot;h&quot;:71},&quot;atoms&quot;:[{&quot;id&quot;:6120,&quot;token&quot;:&quot;f:1&quot;,&quot;particle_id&quot;:&quot;img5-m16-p3&quot;,&quot;molecule_id&quot;:&quot;img5-m16&quot;,&quot;atom_order&quot;:1},{&quot;id&quot;:6267,&quot;token&quot;:&quot;i:1&quot;,&quot;particle_id&quot;:&quot;img5-m16-p3&quot;,&quot;molecule_id&quot;:&quot;img5-m16&quot;,&quot;atom_order&quot;:2},{&quot;id&quot;:6327,&quot;token&quot;:&quot;d:1&quot;,&quot;particle_id&quot;:&quot;img5-m16-p3&quot;,&quot;molecule_id&quot;:&quot;img5-m16&quot;,&quot;atom_order&quot;:3}]}</metadata>
  <rect x="0" y="0" width="53" height="71" fill="#f8f0d8"/>
  <image href="file:///C:/Users/HHHES/AppData/Roaming/com.voynichlab.datasetcreator/images/1/a6cd3b6e-2a78-4b30-a4be-5d186aea258e.jpg" x="-1435" y="-648" width="2691" height="3770" opacity="0.92"/>
  <rect x="0.5" y="0.5" width="52" height="70" fill="none" stroke="#111827" stroke-width="1" opacity="0.35"/>
  <polyline points="16,34 16,35 16,36 17,36 17,37 17,38 18,38 18,39 19,40 19,41 20,41 20,42 21,43 21,44 22,44 22,45 23,45 23,46 24,46 24,47 24,48 25,48 25,49 25,50 26,50 26,51 27,51 27,52 28,53 28,54 29,54 29,55" fill="none" stroke="#00a2ff" stroke-width="3" stroke-linecap="round" stroke-linejoin="round" opacity="0.95">
    <title>6120 f:1</title>
  </polyline>
  <polyline points="20,42 21,42 22,41 23,41 24,41 24,40 25,40 26,40 27,39 28,39 29,38 30,38 31,37 32,37 32,36 33,36 34,35 35,34 35,33 36,33 36,32 36,31 36,30 37,29 37,28 37,27 37,26 37,25 37,24 37,23 37,22 37,21" fill="none" stroke="#00ff7f" stroke-width="3" stroke-linecap="round" stroke-linejoin="round" opacity="0.95">
    <title>6267 i:1</title>
  </polyline>
  <polyline points="18,21 19,21 19,20 20,20 20,19 21,19 21,18 22,18 22,17 23,17 24,17 24,16 25,16 26,16 27,16 28,16 29,16 30,16 31,16 32,16 32,17 33,17 34,17 34,18 35,18 35,19 36,20 36,21 37,21 37,22 37,23 37,24" fill="none" stroke="#ff2d55" stroke-width="3" stroke-linecap="round" stroke-linejoin="round" opacity="0.95">
    <title>6327 d:1</title>
  </polyline>
</svg>
