<?xml version="1.0" encoding="UTF-8"?>
<svg xmlns="http://www.w3.org/2000/svg" width="119" height="132" viewBox="0 0 119 132">
  <title>particle img5-m3-p2 a:1 m:1 c:1 a:1 b:1 d:1</title>
  <metadata>{&quot;entityType&quot;:&quot;particle&quot;,&quot;entityId&quot;:&quot;img5-m3-p2&quot;,&quot;token&quot;:&quot;a:1 m:1 c:1 a:1 b:1 d:1&quot;,&quot;signature&quot;:&quot;a:1 m:1 c:1 a:1 b:1 d:1&quot;,&quot;imageName&quot;:&quot;page-005.jpg&quot;,&quot;imageId&quot;:5,&quot;bounds&quot;:{&quot;x&quot;:685,&quot;y&quot;:430,&quot;w&quot;:119,&quot;h&quot;:132},&quot;atoms&quot;:[{&quot;id&quot;:5521,&quot;token&quot;:&quot;a:1&quot;,&quot;particle_id&quot;:&quot;img5-m3-p2&quot;,&quot;molecule_id&quot;:&quot;img5-m3&quot;,&quot;atom_order&quot;:1},{&quot;id&quot;:6382,&quot;token&quot;:&quot;m:1&quot;,&quot;particle_id&quot;:&quot;img5-m3-p2&quot;,&quot;molecule_id&quot;:&quot;img5-m3&quot;,&quot;atom_order&quot;:2},{&quot;id&quot;:5573,&quot;token&quot;:&quot;c:1&quot;,&quot;particle_id&quot;:&quot;img5-m3-p2&quot;,&quot;molecule_id&quot;:&quot;img5-m3&quot;,&quot;atom_order&quot;:3},{&quot;id&quot;:5522,&quot;token&quot;:&quot;a:1&quot;,&quot;particle_id&quot;:&quot;img5-m3-p2&quot;,&quot;molecule_id&quot;:&quot;img5-m3&quot;,&quot;atom_order&quot;:4},{&quot;id&quot;:5570,&quot;token&quot;:&quot;b:1&quot;,&quot;particle_id&quot;:&quot;img5-m3-p2&quot;,&quot;molecule_id&quot;:&quot;img5-m3&quot;,&quot;atom_order&quot;:5},{&quot;id&quot;:6345,&quot;token&quot;:&quot;d:1&quot;,&quot;particle_id&quot;:&quot;img5-m3-p2&quot;,&quot;molecule_id&quot;:&quot;img5-m3&quot;,&quot;atom_order&quot;:6}]}</metadata>
  <rect x="0" y="0" width="119" height="132" fill="#f8f0d8"/>
  <image href="file:///C:/Users/HHHES/AppData/Roaming/com.voynichlab.datasetcreator/images/1/a6cd3b6e-2a78-4b30-a4be-5d186aea258e.jpg" x="-685" y="-430" width="2691" height="3770" opacity="0.92"/>
  <rect x="0.5" y="0.5" width="118" height="131" fill="none" stroke="#111827" stroke-width="1" opacity="0.35"/>
  <polyline points="63,46 63,47 63,48 63,49 63,50 63,51 63,52 63,53 63,54 62,54 62,55 62,56 62,57 62,58 62,59 62,60 62,61 62,62 62,63 62,64 62,65 62,66 63,66 63,67 63,68 63,69 63,70 63,71 63,72 63,73 63,74 63,75 63,76 63,77 63,78 63,79 63,80 63,81 63,82 63,83 63,84 63,85 63,86 63,87 63,88 62,89 62,90 62,91 62,92 62,93 62,94 62,95 62,96 62,97 62,98 62,99 62,100 62,101 62,102 61,102 61,103 61,104 61,105 61,106 61,107 61,108 61,109 61,110 61,111 61,112 61,113 61,114 61,115 61,116 61,115" fill="none" stroke="#00f0b5" stroke-width="3" stroke-linecap="round" stroke-linejoin="round" opacity="0.95">
    <title>5521 a:1</title>
  </polyline>
  <polyline points="63,50 63,49 63,48 63,47 63,46 63,45 63,44 63,43 63,42 64,42 64,41 64,40 64,39 64,38 64,37 64,36 64,35 64,34 64,33 64,32 64,31 64,30 65,30 65,29 65,28 65,27 65,26 65,25 65,24 65,23 65,22 65,21 65,20 66,20 66,19 65,19 64,19 64,20 63,20 63,21 62,21 61,21 60,22 59,22 58,22 58,23 57,23 56,23 56,24 55,24 54,24 54,25 53,25 52,25 52,26 51,26 51,27 50,27 49,28 48,28 48,29 47,29 47,30 46,30 46,31 46,32 45,32 45,33 44,33 44,34 44,35 43,35 43,36 42,36 43,36 44,36 45,36 46,36 47,36 48,36 49,36 50,36 51,36 52,36 53,36 54,36 55,36 56,36 57,36 58,36 59,36 60,36 61,36 62,36 63,36 64,36 65,36 66,36 67,36 68,36 69,36 70,36 71,36 72,36 73,36 74,36 75,36 75,35 76,35 77,35 78,35 79,35 80,35 81,35 82,35 83,35 84,35 85,35 86,35" fill="none" stroke="#ff00ff" stroke-width="3" stroke-linecap="round" stroke-linejoin="round" opacity="0.95">
    <title>6382 m:1</title>
  </polyline>
  <polyline points="85,22 85,23 84,23 84,24 84,25 83,25 83,26 83,27 83,28 83,29 83,30 83,31 83,32 84,32 84,33 85,33 85,34 86,35 87,35 88,35 89,35 89,36 90,36 91,36 92,36 93,36 94,36 95,36 96,36 97,36 97,35 98,35 99,35 99,34 99,33 100,33 100,32 101,32 101,31 101,30 102,30 102,29 102,28 103,28 103,27 103,26 103,25 103,24 103,23 103,22 102,22 102,21 102,20 101,20 101,19 100,19 100,18 99,18 99,17 98,17 97,17 97,16 96,16 95,16 94,16 93,16 92,16 91,16 90,16 89,17 88,17 88,18 87,18 87,19 86,19 85,19 85,20 84,20 84,21 84,22" fill="none" stroke="#8aff00" stroke-width="3" stroke-linecap="round" stroke-linejoin="round" opacity="0.95">
    <title>5573 c:1</title>
  </polyline>
  <polyline points="84,20 84,21 84,22 84,23 84,24 84,25 84,26 84,27 84,28 84,29 84,30 84,31 84,32 84,33 84,34 84,35 84,36 84,37 84,38 84,39 84,40 84,41 84,42 84,43 84,44 84,45 84,46 84,47 84,48 84,49 84,50 84,51 84,52 84,53 84,54 84,55 84,56" fill="none" stroke="#00f0b5" stroke-width="3" stroke-linecap="round" stroke-linejoin="round" opacity="0.95">
    <title>5522 a:1</title>
  </polyline>
  <polyline points="85,52 84,53 84,54 83,54 83,55 82,55 82,56 81,56 81,57 80,57 79,58 78,58 78,59 77,59 76,60 75,60 74,60 73,60 72,61 71,61 70,61 69,61 68,61 67,62 66,62 65,62 64,62 63,62 62,62 61,62 60,62 59,62 58,62 57,62 56,62 55,61" fill="none" stroke="#2f7df6" stroke-width="3" stroke-linecap="round" stroke-linejoin="round" opacity="0.95">
    <title>5570 b:1</title>
  </polyline>
  <polyline points="27,76 26,76 26,75 25,75 24,75 23,75 22,74 21,74 20,74 19,74 18,73 17,73 17,72 17,70 17,69 16,68 16,67 16,66 16,65 17,65 17,64 18,64 19,64 19,63 20,63 21,63 22,63 22,62 23,62 25,62 27,61 28,61 29,61 30,61 31,61 33,61 36,61 37,61 38,61 39,61 40,61 41,61 42,61 44,62 45,62 46,62 47,63 48,63 49,64 50,64 51,64 52,64 53,64 55,64 56,64 57,64 58,64 59,64 60,64 61,64 62,64 63,64 64,64 64,63 65,63 66,63" fill="none" stroke="#ff2d55" stroke-width="3" stroke-linecap="round" stroke-linejoin="round" opacity="0.95">
    <title>6345 d:1</title>
  </polyline>
</svg>
