<?xml version="1.0" encoding="UTF-8"?>
<svg xmlns="http://www.w3.org/2000/svg" width="110" height="93" viewBox="0 0 110 93">
  <title>particle img5-m15-p1 e:1 a:1 e:1 b:1 c:1 a:1 g:1 e:1</title>
  <metadata>{&quot;entityType&quot;:&quot;particle&quot;,&quot;entityId&quot;:&quot;img5-m15-p1&quot;,&quot;token&quot;:&quot;e:1 a:1 e:1 b:1 c:1 a:1 g:1 e:1&quot;,&quot;signature&quot;:&quot;e:1 a:1 e:1 b:1 c:1 a:1 g:1 e:1&quot;,&quot;imageName&quot;:&quot;page-005.jpg&quot;,&quot;imageId&quot;:5,&quot;bounds&quot;:{&quot;x&quot;:1043,&quot;y&quot;:624,&quot;w&quot;:110,&quot;h&quot;:93},&quot;atoms&quot;:[{&quot;id&quot;:5669,&quot;token&quot;:&quot;e:1&quot;,&quot;particle_id&quot;:&quot;img5-m15-p1&quot;,&quot;molecule_id&quot;:&quot;img5-m15&quot;,&quot;atom_order&quot;:1},{&quot;id&quot;:5538,&quot;token&quot;:&quot;a:1&quot;,&quot;particle_id&quot;:&quot;img5-m15-p1&quot;,&quot;molecule_id&quot;:&quot;img5-m15&quot;,&quot;atom_order&quot;:2},{&quot;id&quot;:5670,&quot;token&quot;:&quot;e:1&quot;,&quot;particle_id&quot;:&quot;img5-m15-p1&quot;,&quot;molecule_id&quot;:&quot;img5-m15&quot;,&quot;atom_order&quot;:3},{&quot;id&quot;:5566,&quot;token&quot;:&quot;b:1&quot;,&quot;particle_id&quot;:&quot;img5-m15-p1&quot;,&quot;molecule_id&quot;:&quot;img5-m15&quot;,&quot;atom_order&quot;:4},{&quot;id&quot;:5587,&quot;token&quot;:&quot;c:1&quot;,&quot;particle_id&quot;:&quot;img5-m15-p1&quot;,&quot;molecule_id&quot;:&quot;img5-m15&quot;,&quot;atom_order&quot;:5},{&quot;id&quot;:5539,&quot;token&quot;:&quot;a:1&quot;,&quot;particle_id&quot;:&quot;img5-m15-p1&quot;,&quot;molecule_id&quot;:&quot;img5-m15&quot;,&quot;atom_order&quot;:6},{&quot;id&quot;:6405,&quot;token&quot;:&quot;g:1&quot;,&quot;particle_id&quot;:&quot;img5-m15-p1&quot;,&quot;molecule_id&quot;:&quot;img5-m15&quot;,&quot;atom_order&quot;:7},{&quot;id&quot;:5671,&quot;token&quot;:&quot;e:1&quot;,&quot;particle_id&quot;:&quot;img5-m15-p1&quot;,&quot;molecule_id&quot;:&quot;img5-m15&quot;,&quot;atom_order&quot;:8}]}</metadata>
  <rect x="0" y="0" width="110" height="93" fill="#f8f0d8"/>
  <image href="file:///C:/Users/HHHES/AppData/Roaming/com.voynichlab.datasetcreator/images/1/a6cd3b6e-2a78-4b30-a4be-5d186aea258e.jpg" x="-1043" y="-624" width="2691" height="3770" opacity="0.92"/>
  <rect x="0.5" y="0.5" width="109" height="92" fill="none" stroke="#111827" stroke-width="1" opacity="0.35"/>
  <polyline points="31,74 31,75 30,75 30,76 29,76 28,76 28,77 27,77 26,77 25,77 24,77 23,77 22,77 21,77 21,76 20,76 19,76 18,76 18,75 17,75 16,75 16,74 16,73 16,72 16,71 16,70 16,69 16,68 17,68 17,67 17,66 17,65 18,65 18,64 18,63 19,63 19,62 19,61 20,61 21,61 21,60 22,60 22,59 23,59 24,59 24,58 25,58 26,58 27,58 27,57" fill="none" stroke="#f2e45c" stroke-width="3" stroke-linecap="round" stroke-linejoin="round" opacity="0.95">
    <title>5669 e:1</title>
  </polyline>
  <polyline points="36,23 36,24 37,25 37,26 38,26 38,27 39,27 39,28 39,29 40,29 40,30 40,31 40,32 40,33 40,34 40,35 40,36 40,37 41,38 41,39 41,40 41,41 41,42 41,43 41,44 41,45 41,47 41,48 41,49 41,50 41,51 41,52 41,53 41,54 41,55 41,56 41,57 41,58 41,59 41,60 41,61 41,62 41,63 41,64 42,65 42,66 42,67 42,68 42,69 42,70 42,71 42,72 43,72" fill="none" stroke="#00f0b5" stroke-width="3" stroke-linecap="round" stroke-linejoin="round" opacity="0.95">
    <title>5538 a:1</title>
  </polyline>
  <polyline points="38,24 37,24 36,24 36,23 35,23 34,23 33,23 32,23 31,23 30,23 30,24 29,24 29,25 29,26 28,26 28,27 28,28 27,28 27,29 27,30 26,30 26,31 26,32 26,33 27,33 27,34 28,34 29,34 29,35 30,35 31,35" fill="none" stroke="#f2e45c" stroke-width="3" stroke-linecap="round" stroke-linejoin="round" opacity="0.95">
    <title>5670 e:1</title>
  </polyline>
  <polyline points="28,33 29,34 30,34 31,34 32,34 33,35 34,35 35,35 36,35 37,35 37,36 38,36 39,36 40,36 41,36 42,36 43,36 44,36 45,36 46,36 47,36 48,36 49,37 50,37 52,37 53,37 54,37 55,37 56,37 57,37 58,37 59,37 60,37 61,37 62,37 62,36 63,36 64,36 65,36 66,35 67,35 68,35 68,34 69,34 70,34 70,33" fill="none" stroke="#2f7df6" stroke-width="3" stroke-linecap="round" stroke-linejoin="round" opacity="0.95">
    <title>5566 b:1</title>
  </polyline>
  <polyline points="56,22 56,23 55,23 55,24 55,25 54,25 54,26 54,27 54,28 54,29 54,30 54,31 54,32 55,32 55,33 56,33 56,34 57,35 58,35 59,35 60,35 60,36 61,36 62,36 63,36 64,36 65,36 66,36 67,36 68,36 68,35 69,35 70,35 70,34 70,33 71,33 71,32 72,32 72,31 72,30 73,30 73,29 73,28 74,28 74,27 74,26 74,25 74,24 74,23 74,22 73,22 73,21 73,20 72,20 72,19 71,19 71,18 70,18 70,17 69,17 68,17 68,16 67,16 66,16 65,16 64,16 63,16 62,16 61,16 60,17 59,17 59,18 58,18 58,19 57,19 56,19 56,20 55,20 55,21 55,22" fill="none" stroke="#8aff00" stroke-width="3" stroke-linecap="round" stroke-linejoin="round" opacity="0.95">
    <title>5587 c:1</title>
  </polyline>
  <polyline points="58,17 58,18 58,20 57,21 57,22 57,23 57,24 57,25 57,26 57,27 57,28 57,29 56,30 56,31 56,32 56,33 56,34 56,35 56,36 56,37 56,38 56,39 56,40 56,41 55,43 55,45 55,46 55,48 55,49 55,50 55,51 55,53 55,54 55,55 55,56 55,57 55,58 55,59 55,60 55,61 55,62 56,63 56,64 56,65 56,66 56,67 56,68 56,69 56,70 57,70 57,71" fill="none" stroke="#00f0b5" stroke-width="3" stroke-linecap="round" stroke-linejoin="round" opacity="0.95">
    <title>5539 a:1</title>
  </polyline>
  <polyline points="23,58 24,58 25,57 26,57 27,57 28,57 29,57 30,57 31,57 32,57 33,57 34,57 35,57 36,57 38,57 40,57 42,57 43,57 44,57 44,56 46,56 47,56 49,56 50,56 51,56 52,56 53,56 54,56 55,56 56,56 57,55 58,55 59,55 60,55 61,55 62,55 63,55 64,55 65,55 66,55 67,55 69,55 70,55 72,55 73,54 74,54 75,54 77,54 79,54 81,54 82,54 84,54 85,54 86,54 87,54 88,54 89,54" fill="none" stroke="#7c3cff" stroke-width="3" stroke-linecap="round" stroke-linejoin="round" opacity="0.95">
    <title>6405 g:1</title>
  </polyline>
  <polyline points="94,70 94,71 93,71 93,72 92,72 91,72 91,73 90,73 89,73 88,73 87,73 86,73 85,73 84,73 84,72 83,72 82,72 81,72 81,71 80,71 79,71 79,70 79,69 79,68 79,67 79,66 79,65 79,64 80,64 80,63 80,62 80,61 81,61 81,60 81,59 82,59 82,58 82,57 83,57 84,57 84,56 85,56 85,55 86,55 87,55 87,54 88,54 89,54 90,54 90,53" fill="none" stroke="#f2e45c" stroke-width="3" stroke-linecap="round" stroke-linejoin="round" opacity="0.95">
    <title>5671 e:1</title>
  </polyline>
</svg>
