<?xml version="1.0" encoding="UTF-8"?>
<svg xmlns="http://www.w3.org/2000/svg" width="64" height="109" viewBox="0 0 64 109">
  <title>particle img5-m102-p3 a:1 b:1 c:1 a:1</title>
  <metadata>{&quot;entityType&quot;:&quot;particle&quot;,&quot;entityId&quot;:&quot;img5-m102-p3&quot;,&quot;token&quot;:&quot;a:1 b:1 c:1 a:1&quot;,&quot;signature&quot;:&quot;a:1 b:1 c:1 a:1&quot;,&quot;imageName&quot;:&quot;page-005.jpg&quot;,&quot;imageId&quot;:5,&quot;bounds&quot;:{&quot;x&quot;:645,&quot;y&quot;:2840,&quot;w&quot;:64,&quot;h&quot;:109},&quot;atoms&quot;:[{&quot;id&quot;:6009,&quot;token&quot;:&quot;a:1&quot;,&quot;particle_id&quot;:&quot;img5-m102-p3&quot;,&quot;molecule_id&quot;:&quot;img5-m102&quot;,&quot;atom_order&quot;:1},{&quot;id&quot;:6010,&quot;token&quot;:&quot;b:1&quot;,&quot;particle_id&quot;:&quot;img5-m102-p3&quot;,&quot;molecule_id&quot;:&quot;img5-m102&quot;,&quot;atom_order&quot;:2},{&quot;id&quot;:6059,&quot;token&quot;:&quot;c:1&quot;,&quot;particle_id&quot;:&quot;img5-m102-p3&quot;,&quot;molecule_id&quot;:&quot;img5-m102&quot;,&quot;atom_order&quot;:3},{&quot;id&quot;:5984,&quot;token&quot;:&quot;a:1&quot;,&quot;particle_id&quot;:&quot;img5-m102-p3&quot;,&quot;molecule_id&quot;:&quot;img5-m102&quot;,&quot;atom_order&quot;:4}]}</metadata>
  <rect x="0" y="0" width="64" height="109" fill="#f8f0d8"/>
  <image href="file:///C:/Users/HHHES/AppData/Roaming/com.voynichlab.datasetcreator/images/1/a6cd3b6e-2a78-4b30-a4be-5d186aea258e.jpg" x="-645" y="-2840" width="2691" height="3770" opacity="0.92"/>
  <rect x="0.5" y="0.5" width="63" height="108" fill="none" stroke="#111827" stroke-width="1" opacity="0.35"/>
  <polyline points="20,23 20,24 20,25 19,26 19,27 19,28 19,29 19,30 19,31 19,32 19,33 19,34 19,35 18,36 18,38 18,39 18,40 18,41 18,43 18,44 18,45 18,46 18,47 18,48 17,49 17,50 17,52 17,53 17,54 17,55 17,56 17,57 17,58 16,58 16,60 16,61 16,62 16,63 16,64 16,65 16,66 16,67 16,68 16,69 16,70 16,71 16,72 16,73 16,74 16,75 16,76 16,77 16,78 16,79 16,80 16,81 16,82 16,83" fill="none" stroke="#00f0b5" stroke-width="3" stroke-linecap="round" stroke-linejoin="round" opacity="0.95">
    <title>6009 a:1</title>
  </polyline>
  <polyline points="19,24 19,25 19,26 19,27 19,28 19,29 19,30 19,31 19,32 19,33 19,34 19,35 20,35 20,36 21,36 22,36 22,37 23,37 24,37 24,38 25,38 26,38 27,38 28,38 29,38 30,38 31,38 32,38 33,38 34,38 36,38 37,38 37,37 38,37 39,37 40,36 41,36 41,35 42,35 42,34 43,33 44,33 44,32 44,31 45,31 45,30 46,29 46,28 46,27" fill="none" stroke="#2f7df6" stroke-width="3" stroke-linecap="round" stroke-linejoin="round" opacity="0.95">
    <title>6010 b:1</title>
  </polyline>
  <polyline points="30,22 30,23 29,23 29,24 29,25 28,25 28,26 28,27 28,28 28,29 28,30 28,31 28,32 29,32 29,33 30,33 30,34 31,35 32,35 33,35 34,35 34,36 35,36 36,36 37,36 38,36 39,36 40,36 41,36 42,36 42,35 43,35 44,35 44,34 44,33 45,33 45,32 46,32 46,31 46,30 47,30 47,29 47,28 48,28 48,27 48,26 48,25 48,24 48,23 48,22 47,22 47,21 47,20 46,20 46,19 45,19 45,18 44,18 44,17 43,17 42,17 42,16 41,16 40,16 39,16 38,16 37,16 36,16 35,16 34,17 33,17 33,18 32,18 32,19 31,19 30,19 30,20 29,20 29,21 29,22" fill="none" stroke="#8aff00" stroke-width="3" stroke-linecap="round" stroke-linejoin="round" opacity="0.95">
    <title>6059 c:1</title>
  </polyline>
  <polyline points="27,93 27,92 28,91 28,90 28,89 28,88 28,87 29,86 29,85 29,84 29,83 29,82 29,81 28,81 28,80 28,79 28,78 28,77 28,76 28,75 28,74 28,73 28,72 28,71 28,70 28,69 28,68 28,67 28,66 28,65 28,64 28,63 28,62 28,61 28,60 29,59 29,58 29,57 29,56 29,55 29,54 30,53 30,52 30,51 30,50 30,49 30,48 30,47 30,46 30,45 30,44 30,43 30,42 31,41 31,40 31,39 31,38 31,37 31,36 31,35 31,34 31,33 31,32 31,31 31,30 31,29 31,28 31,27 31,26 31,25 31,24 31,23 31,22 31,21 31,20 31,19 31,18 31,17 31,16" fill="none" stroke="#00f0b5" stroke-width="3" stroke-linecap="round" stroke-linejoin="round" opacity="0.95">
    <title>5984 a:1</title>
  </polyline>
</svg>
