<?xml version="1.0" encoding="UTF-8"?>
<svg xmlns="http://www.w3.org/2000/svg" width="60" height="73" viewBox="0 0 60 73">
  <title>particle img5-m100-p1 e:1 c:1 h:2</title>
  <metadata>{&quot;entityType&quot;:&quot;particle&quot;,&quot;entityId&quot;:&quot;img5-m100-p1&quot;,&quot;token&quot;:&quot;e:1 c:1 h:2&quot;,&quot;signature&quot;:&quot;e:1 c:1 h:2&quot;,&quot;imageName&quot;:&quot;page-005.jpg&quot;,&quot;imageId&quot;:5,&quot;bounds&quot;:{&quot;x&quot;:970,&quot;y&quot;:2869,&quot;w&quot;:60,&quot;h&quot;:73},&quot;atoms&quot;:[{&quot;id&quot;:5838,&quot;token&quot;:&quot;e:1&quot;,&quot;particle_id&quot;:&quot;img5-m100-p1&quot;,&quot;molecule_id&quot;:&quot;img5-m100&quot;,&quot;atom_order&quot;:1},{&quot;id&quot;:6061,&quot;token&quot;:&quot;c:1&quot;,&quot;particle_id&quot;:&quot;img5-m100-p1&quot;,&quot;molecule_id&quot;:&quot;img5-m100&quot;,&quot;atom_order&quot;:2},{&quot;id&quot;:6102,&quot;token&quot;:&quot;h:2&quot;,&quot;particle_id&quot;:&quot;img5-m100-p1&quot;,&quot;molecule_id&quot;:&quot;img5-m100&quot;,&quot;atom_order&quot;:3}]}</metadata>
  <rect x="0" y="0" width="60" height="73" fill="#f8f0d8"/>
  <image href="file:///C:/Users/HHHES/AppData/Roaming/com.voynichlab.datasetcreator/images/1/a6cd3b6e-2a78-4b30-a4be-5d186aea258e.jpg" x="-970" y="-2869" width="2691" height="3770" opacity="0.92"/>
  <rect x="0.5" y="0.5" width="59" height="72" fill="none" stroke="#111827" stroke-width="1" opacity="0.35"/>
  <polyline points="31,54 31,55 30,55 30,56 29,56 28,56 28,57 27,57 26,57 25,57 24,57 23,57 22,57 21,57 21,56 20,56 19,56 18,56 18,55 17,55 16,55 16,54 16,53 16,52 16,51 16,50 16,49 16,48 17,48 17,47 17,46 17,45 18,45 18,44 18,43 19,43 19,42 19,41 20,41 21,41 21,40 22,40 22,39 23,39 24,39 24,38 25,38 26,38 27,38 27,37" fill="none" stroke="#f2e45c" stroke-width="3" stroke-linecap="round" stroke-linejoin="round" opacity="0.95">
    <title>5838 e:1</title>
  </polyline>
  <polyline points="26,22 26,23 25,23 25,24 25,25 24,25 24,26 24,27 24,28 24,29 24,30 24,31 24,32 25,32 25,33 26,33 26,34 27,35 28,35 29,35 30,35 30,36 31,36 32,36 33,36 34,36 35,36 36,36 37,36 38,36 38,35 39,35 40,35 40,34 40,33 41,33 41,32 42,32 42,31 42,30 43,30 43,29 43,28 44,28 44,27 44,26 44,25 44,24 44,23 44,22 43,22 43,21 43,20 42,20 42,19 41,19 41,18 40,18 40,17 39,17 38,17 38,16 37,16 36,16 35,16 34,16 33,16 32,16 31,16 30,17 29,17 29,18 28,18 28,19 27,19 26,19 26,20 25,20 25,21 25,22" fill="none" stroke="#8aff00" stroke-width="3" stroke-linecap="round" stroke-linejoin="round" opacity="0.95">
    <title>6061 c:1</title>
  </polyline>
  <polyline points="28,57 28,56 29,56 30,56 30,55 31,55 31,54 32,54 33,53 34,52 34,51 35,50 35,49 35,48 35,47 35,46 34,45 33,44 32,43 32,42 31,42 31,41 30,40 29,40 29,39 28,39 27,38 27,37 26,37 26,36 25,36 25,35 24,34 24,33 23,32 23,31 22,31 22,30 22,29 22,28 22,27 22,26 22,25 22,24 23,23 24,22 25,22 26,22" fill="none" stroke="#ff8c00" stroke-width="3" stroke-linecap="round" stroke-linejoin="round" opacity="0.95">
    <title>6102 h:2</title>
  </polyline>
</svg>
