<?xml version="1.0" encoding="UTF-8"?>
<svg xmlns="http://www.w3.org/2000/svg" width="67" height="89" viewBox="0 0 67 89">
  <title>particle img5-m26-p3 a:1 b:1 c:1 a:1</title>
  <metadata>{&quot;entityType&quot;:&quot;particle&quot;,&quot;entityId&quot;:&quot;img5-m26-p3&quot;,&quot;token&quot;:&quot;a:1 b:1 c:1 a:1&quot;,&quot;signature&quot;:&quot;a:1 b:1 c:1 a:1&quot;,&quot;imageName&quot;:&quot;page-005.jpg&quot;,&quot;imageId&quot;:5,&quot;bounds&quot;:{&quot;x&quot;:1865,&quot;y&quot;:725,&quot;w&quot;:67,&quot;h&quot;:89},&quot;atoms&quot;:[{&quot;id&quot;:5541,&quot;token&quot;:&quot;a:1&quot;,&quot;particle_id&quot;:&quot;img5-m26-p3&quot;,&quot;molecule_id&quot;:&quot;img5-m26&quot;,&quot;atom_order&quot;:1},{&quot;id&quot;:5567,&quot;token&quot;:&quot;b:1&quot;,&quot;particle_id&quot;:&quot;img5-m26-p3&quot;,&quot;molecule_id&quot;:&quot;img5-m26&quot;,&quot;atom_order&quot;:2},{&quot;id&quot;:5688,&quot;token&quot;:&quot;c:1&quot;,&quot;particle_id&quot;:&quot;img5-m26-p3&quot;,&quot;molecule_id&quot;:&quot;img5-m26&quot;,&quot;atom_order&quot;:3},{&quot;id&quot;:5540,&quot;token&quot;:&quot;a:1&quot;,&quot;particle_id&quot;:&quot;img5-m26-p3&quot;,&quot;molecule_id&quot;:&quot;img5-m26&quot;,&quot;atom_order&quot;:4}]}</metadata>
  <rect x="0" y="0" width="67" height="89" fill="#f8f0d8"/>
  <image href="file:///C:/Users/HHHES/AppData/Roaming/com.voynichlab.datasetcreator/images/1/a6cd3b6e-2a78-4b30-a4be-5d186aea258e.jpg" x="-1865" y="-725" width="2691" height="3770" opacity="0.92"/>
  <rect x="0.5" y="0.5" width="66" height="88" fill="none" stroke="#111827" stroke-width="1" opacity="0.35"/>
  <polyline points="19,22 19,23 19,24 19,25 19,27 19,28 19,29 19,30 19,32 19,33 19,34 20,36 20,37 20,38 20,39 20,40 20,41 20,42 20,43 20,44 20,45 20,47 20,48 20,50 20,51 20,52 20,53 20,54 21,55 21,57 21,58 21,60 21,61 21,62 20,63 20,64 20,65 20,66 20,67 20,68 20,69 20,70 20,71 20,72 20,73" fill="none" stroke="#00f0b5" stroke-width="3" stroke-linecap="round" stroke-linejoin="round" opacity="0.95">
    <title>5541 a:1</title>
  </polyline>
  <polyline points="16,31 16,32 16,33 16,34 17,34 17,35 18,35 18,36 19,36 19,37 20,37 21,38 22,38 22,39 23,39 24,39 25,39 26,39 27,40 28,40 29,40 30,40 31,40 32,40 33,39 34,39 35,39 36,39 37,38 38,38 39,38 39,37 40,37 41,37 41,36 42,36 42,35 43,35 44,34 44,33 45,33 46,32 46,31 47,31 47,30 48,30 48,29 48,28" fill="none" stroke="#2f7df6" stroke-width="3" stroke-linecap="round" stroke-linejoin="round" opacity="0.95">
    <title>5567 b:1</title>
  </polyline>
  <polyline points="33,22 33,23 32,23 32,24 32,25 31,25 31,26 31,27 31,28 31,29 31,30 31,31 31,32 32,32 32,33 33,33 33,34 34,35 35,35 36,35 37,35 37,36 38,36 39,36 40,36 41,36 42,36 43,36 44,36 45,36 45,35 46,35 47,35 47,34 47,33 48,33 48,32 49,32 49,31 49,30 50,30 50,29 50,28 51,28 51,27 51,26 51,25 51,24 51,23 51,22 50,22 50,21 50,20 49,20 49,19 48,19 48,18 47,18 47,17 46,17 45,17 45,16 44,16 43,16 42,16 41,16 40,16 39,16 38,16 37,17 36,17 36,18 35,18 35,19 34,19 33,19 33,20 32,20 32,21 32,22" fill="none" stroke="#8aff00" stroke-width="3" stroke-linecap="round" stroke-linejoin="round" opacity="0.95">
    <title>5688 c:1</title>
  </polyline>
  <polyline points="34,18 34,19 34,20 34,21 34,22 34,23 34,24 34,25 34,26 34,27 34,28 34,29 34,30 34,31 34,32 34,33 34,34 34,35 34,36 34,37 34,38 34,39 34,40 34,41 34,42 34,43 34,44 34,45 34,46 34,47 34,48 34,49 34,50 33,51 33,52 33,53 33,54 33,55 33,56 33,57 33,58 33,59 32,60 32,61 32,62 32,63 32,64 32,65 32,66 32,67" fill="none" stroke="#00f0b5" stroke-width="3" stroke-linecap="round" stroke-linejoin="round" opacity="0.95">
    <title>5540 a:1</title>
  </polyline>
</svg>
