<?xml version="1.0" encoding="UTF-8"?>
<svg xmlns="http://www.w3.org/2000/svg" width="88" height="77" viewBox="0 0 88 77">
  <title>particle img5-m57-p7 f:1 i:1 d:1</title>
  <metadata>{&quot;entityType&quot;:&quot;particle&quot;,&quot;entityId&quot;:&quot;img5-m57-p7&quot;,&quot;token&quot;:&quot;f:1 i:1 d:1&quot;,&quot;signature&quot;:&quot;f:1 i:1 d:1&quot;,&quot;imageName&quot;:&quot;page-005.jpg&quot;,&quot;imageId&quot;:5,&quot;bounds&quot;:{&quot;x&quot;:1398,&quot;y&quot;:2458,&quot;w&quot;:88,&quot;h&quot;:77},&quot;atoms&quot;:[{&quot;id&quot;:6160,&quot;token&quot;:&quot;f:1&quot;,&quot;particle_id&quot;:&quot;img5-m57-p7&quot;,&quot;molecule_id&quot;:&quot;img5-m57&quot;,&quot;atom_order&quot;:1},{&quot;id&quot;:6291,&quot;token&quot;:&quot;i:1&quot;,&quot;particle_id&quot;:&quot;img5-m57-p7&quot;,&quot;molecule_id&quot;:&quot;img5-m57&quot;,&quot;atom_order&quot;:2},{&quot;id&quot;:6351,&quot;token&quot;:&quot;d:1&quot;,&quot;particle_id&quot;:&quot;img5-m57-p7&quot;,&quot;molecule_id&quot;:&quot;img5-m57&quot;,&quot;atom_order&quot;:3}]}</metadata>
  <rect x="0" y="0" width="88" height="77" fill="#f8f0d8"/>
  <image href="file:///C:/Users/HHHES/AppData/Roaming/com.voynichlab.datasetcreator/images/1/a6cd3b6e-2a78-4b30-a4be-5d186aea258e.jpg" x="-1398" y="-2458" width="2691" height="3770" opacity="0.92"/>
  <rect x="0.5" y="0.5" width="87" height="76" fill="none" stroke="#111827" stroke-width="1" opacity="0.35"/>
  <polyline points="46,40 46,41 46,42 47,42 47,43 47,44 48,44 48,45 49,46 49,47 50,47 50,48 51,49 51,50 52,50 52,51 53,51 53,52 54,52 54,53 54,54 55,54 55,55 55,56 56,56 56,57 57,57 57,58 58,59 58,60 59,60 59,61" fill="none" stroke="#00a2ff" stroke-width="3" stroke-linecap="round" stroke-linejoin="round" opacity="0.95">
    <title>6160 f:1</title>
  </polyline>
  <polyline points="58,61 59,61 59,60 60,60 61,60 61,59 62,59 63,59 63,58 64,58 64,57 65,57 66,57 66,56 67,56 68,55 68,54 69,54 69,53 70,52 70,51 71,50 71,49 71,48 72,47 72,46 72,45 72,44 72,43 72,42 72,41 72,40 72,39 72,38 72,37 72,36 71,36 71,35 71,34 70,33 70,32 70,31 69,31 69,30 68,30 68,29 67,29 66,28 65,27 65,26 64,26 63,25 61,24 60,23 59,22 58,22 57,21 56,21" fill="none" stroke="#00ff7f" stroke-width="3" stroke-linecap="round" stroke-linejoin="round" opacity="0.95">
    <title>6291 i:1</title>
  </polyline>
  <polyline points="16,20 17,20 18,19 19,19 20,18 21,18 22,18 23,17 24,17 25,17 26,17 27,17 28,17 29,17 30,16 31,16 32,16 33,16 34,16 35,16 36,16 37,16 38,16 39,16 40,16 41,17 42,17 43,17 44,17 45,17 46,17 47,18 48,18 49,18 50,18 51,19 52,19 53,19 54,20 55,20 56,21 57,21 58,21 59,21 59,22 60,22 61,23" fill="none" stroke="#ff2d55" stroke-width="3" stroke-linecap="round" stroke-linejoin="round" opacity="0.95">
    <title>6351 d:1</title>
  </polyline>
</svg>
