<?xml version="1.0" encoding="UTF-8"?>
<svg xmlns="http://www.w3.org/2000/svg" width="75" height="55" viewBox="0 0 75 55">
  <title>particle img5-m73-p1 e:1 g:1 e:1</title>
  <metadata>{&quot;entityType&quot;:&quot;particle&quot;,&quot;entityId&quot;:&quot;img5-m73-p1&quot;,&quot;token&quot;:&quot;e:1 g:1 e:1&quot;,&quot;signature&quot;:&quot;e:1 g:1 e:1&quot;,&quot;imageName&quot;:&quot;page-005.jpg&quot;,&quot;imageId&quot;:5,&quot;bounds&quot;:{&quot;x&quot;:638,&quot;y&quot;:2632,&quot;w&quot;:75,&quot;h&quot;:55},&quot;atoms&quot;:[{&quot;id&quot;:5791,&quot;token&quot;:&quot;e:1&quot;,&quot;particle_id&quot;:&quot;img5-m73-p1&quot;,&quot;molecule_id&quot;:&quot;img5-m73&quot;,&quot;atom_order&quot;:1},{&quot;id&quot;:6437,&quot;token&quot;:&quot;g:1&quot;,&quot;particle_id&quot;:&quot;img5-m73-p1&quot;,&quot;molecule_id&quot;:&quot;img5-m73&quot;,&quot;atom_order&quot;:2},{&quot;id&quot;:5792,&quot;token&quot;:&quot;e:1&quot;,&quot;particle_id&quot;:&quot;img5-m73-p1&quot;,&quot;molecule_id&quot;:&quot;img5-m73&quot;,&quot;atom_order&quot;:3}]}</metadata>
  <rect x="0" y="0" width="75" height="55" fill="#f8f0d8"/>
  <image href="file:///C:/Users/HHHES/AppData/Roaming/com.voynichlab.datasetcreator/images/1/a6cd3b6e-2a78-4b30-a4be-5d186aea258e.jpg" x="-638" y="-2632" width="2691" height="3770" opacity="0.92"/>
  <rect x="0.5" y="0.5" width="74" height="54" fill="none" stroke="#111827" stroke-width="1" opacity="0.35"/>
  <polyline points="31,36 31,37 30,37 30,38 29,38 28,38 28,39 27,39 26,39 25,39 24,39 23,39 22,39 21,39 21,38 20,38 19,38 18,38 18,37 17,37 16,37 16,36 16,35 16,34 16,33 16,32 16,31 16,30 17,30 17,29 17,28 17,27 18,27 18,26 18,25 19,25 19,24 19,23 20,23 21,23 21,22 22,22 22,21 23,21 24,21 24,20 25,20 26,20 27,20 27,19" fill="none" stroke="#f2e45c" stroke-width="3" stroke-linecap="round" stroke-linejoin="round" opacity="0.95">
    <title>5791 e:1</title>
  </polyline>
  <polyline points="24,20 25,19 26,19 27,19 28,19 29,19 29,18 30,18 31,18 32,18 33,18 34,18 35,18 36,18 37,18 38,18 39,18 40,18 41,18 42,18 43,18 44,18 45,18 46,18 47,18 48,17 49,17 50,17 51,17 52,17 53,17 54,17" fill="none" stroke="#7c3cff" stroke-width="3" stroke-linecap="round" stroke-linejoin="round" opacity="0.95">
    <title>6437 g:1</title>
  </polyline>
  <polyline points="59,33 59,34 58,34 58,35 57,35 56,35 56,36 55,36 54,36 53,36 52,36 51,36 50,36 49,36 49,35 48,35 47,35 46,35 46,34 45,34 44,34 44,33 44,32 44,31 44,30 44,29 44,28 44,27 45,27 45,26 45,25 45,24 46,24 46,23 46,22 47,22 47,21 47,20 48,20 49,20 49,19 50,19 50,18 51,18 52,18 52,17 53,17 54,17 55,17 55,16" fill="none" stroke="#f2e45c" stroke-width="3" stroke-linecap="round" stroke-linejoin="round" opacity="0.95">
    <title>5792 e:1</title>
  </polyline>
</svg>
