<?xml version="1.0" encoding="UTF-8"?>
<svg xmlns="http://www.w3.org/2000/svg" width="47" height="52" viewBox="0 0 47 52">
  <title>particle img5-m75-p1 n:1</title>
  <metadata>{&quot;entityType&quot;:&quot;particle&quot;,&quot;entityId&quot;:&quot;img5-m75-p1&quot;,&quot;token&quot;:&quot;n:1&quot;,&quot;signature&quot;:&quot;n:1&quot;,&quot;imageName&quot;:&quot;page-005.jpg&quot;,&quot;imageId&quot;:5,&quot;bounds&quot;:{&quot;x&quot;:961,&quot;y&quot;:2611,&quot;w&quot;:47,&quot;h&quot;:52},&quot;atoms&quot;:[{&quot;id&quot;:6497,&quot;token&quot;:&quot;n:1&quot;,&quot;particle_id&quot;:&quot;img5-m75-p1&quot;,&quot;molecule_id&quot;:&quot;img5-m75&quot;,&quot;atom_order&quot;:1}]}</metadata>
  <rect x="0" y="0" width="47" height="52" fill="#f8f0d8"/>
  <image href="file:///C:/Users/HHHES/AppData/Roaming/com.voynichlab.datasetcreator/images/1/a6cd3b6e-2a78-4b30-a4be-5d186aea258e.jpg" x="-961" y="-2611" width="2691" height="3770" opacity="0.92"/>
  <rect x="0.5" y="0.5" width="46" height="51" fill="none" stroke="#111827" stroke-width="1" opacity="0.35"/>
  <polyline points="16,25 16,24 16,23 16,22 16,21 16,20 16,19 17,18 18,17 19,17 20,16 21,16 22,16 23,16 24,16 25,17 26,17 26,18 27,19 28,20 28,21 29,21 29,22 29,23 30,24 30,25 31,25 31,26 31,27 31,28 31,29 31,30 31,31 31,32 30,32 30,33 29,34 28,34 27,35 26,36 25,36" fill="none" stroke="#f92f59" stroke-width="3" stroke-linecap="round" stroke-linejoin="round" opacity="0.95">
    <title>6497 n:1</title>
  </polyline>
</svg>
