<?xml version="1.0" encoding="UTF-8"?>
<svg xmlns="http://www.w3.org/2000/svg" width="56" height="82" viewBox="0 0 56 82">
  <title>particle img5-m62-p1 e:1 h:1</title>
  <metadata>{&quot;entityType&quot;:&quot;particle&quot;,&quot;entityId&quot;:&quot;img5-m62-p1&quot;,&quot;token&quot;:&quot;e:1 h:1&quot;,&quot;signature&quot;:&quot;e:1 h:1&quot;,&quot;imageName&quot;:&quot;page-005.jpg&quot;,&quot;imageId&quot;:5,&quot;bounds&quot;:{&quot;x&quot;:1810,&quot;y&quot;:2547,&quot;w&quot;:56,&quot;h&quot;:82},&quot;atoms&quot;:[{&quot;id&quot;:5862,&quot;token&quot;:&quot;e:1&quot;,&quot;particle_id&quot;:&quot;img5-m62-p1&quot;,&quot;molecule_id&quot;:&quot;img5-m62&quot;,&quot;atom_order&quot;:1},{&quot;id&quot;:5926,&quot;token&quot;:&quot;h:1&quot;,&quot;particle_id&quot;:&quot;img5-m62-p1&quot;,&quot;molecule_id&quot;:&quot;img5-m62&quot;,&quot;atom_order&quot;:2}]}</metadata>
  <rect x="0" y="0" width="56" height="82" fill="#f8f0d8"/>
  <image href="file:///C:/Users/HHHES/AppData/Roaming/com.voynichlab.datasetcreator/images/1/a6cd3b6e-2a78-4b30-a4be-5d186aea258e.jpg" x="-1810" y="-2547" width="2691" height="3770" opacity="0.92"/>
  <rect x="0.5" y="0.5" width="55" height="81" fill="none" stroke="#111827" stroke-width="1" opacity="0.35"/>
  <polyline points="31,33 31,34 30,34 30,35 29,35 28,35 28,36 27,36 26,36 25,36 24,36 23,36 22,36 21,36 21,35 20,35 19,35 18,35 18,34 17,34 16,34 16,33 16,32 16,31 16,30 16,29 16,28 16,27 17,27 17,26 17,25 17,24 18,24 18,23 18,22 19,22 19,21 19,20 20,20 21,20 21,19 22,19 22,18 23,18 24,18 24,17 25,17 26,17 27,17 27,16" fill="none" stroke="#f2e45c" stroke-width="3" stroke-linecap="round" stroke-linejoin="round" opacity="0.95">
    <title>5862 e:1</title>
  </polyline>
  <polyline points="26,16 27,17 28,17 28,18 29,18 30,18 30,19 31,19 32,20 32,21 33,21 33,22 34,22 34,23 35,23 35,24 36,24 36,25 37,25 37,26 37,27 38,27 38,28 39,28 39,29 39,30 39,31 40,31 40,32 40,34 40,35 40,36 40,37 40,38 40,39 40,40 39,41 39,42 39,43 39,44 39,45 38,45 38,46 38,47 38,48 37,49 37,50 37,51 37,52 36,52 36,53 35,54 34,55 34,56 33,56 33,57 32,58 32,59 31,60 31,61 30,62 30,63 29,64 28,65 27,66" fill="none" stroke="#ff8c00" stroke-width="3" stroke-linecap="round" stroke-linejoin="round" opacity="0.95">
    <title>5926 h:1</title>
  </polyline>
</svg>
