<?xml version="1.0" encoding="UTF-8"?>
<svg xmlns="http://www.w3.org/2000/svg" width="89" height="91" viewBox="0 0 89 91">
  <title>particle img5-m93-p3 a:1 e:1 b:1 c:1 a:1</title>
  <metadata>{&quot;entityType&quot;:&quot;particle&quot;,&quot;entityId&quot;:&quot;img5-m93-p3&quot;,&quot;token&quot;:&quot;a:1 e:1 b:1 c:1 a:1&quot;,&quot;signature&quot;:&quot;a:1 e:1 b:1 c:1 a:1&quot;,&quot;imageName&quot;:&quot;page-005.jpg&quot;,&quot;imageId&quot;:5,&quot;bounds&quot;:{&quot;x&quot;:1906,&quot;y&quot;:2725,&quot;w&quot;:89,&quot;h&quot;:91},&quot;atoms&quot;:[{&quot;id&quot;:5979,&quot;token&quot;:&quot;a:1&quot;,&quot;particle_id&quot;:&quot;img5-m93-p3&quot;,&quot;molecule_id&quot;:&quot;img5-m93&quot;,&quot;atom_order&quot;:1},{&quot;id&quot;:5890,&quot;token&quot;:&quot;e:1&quot;,&quot;particle_id&quot;:&quot;img5-m93-p3&quot;,&quot;molecule_id&quot;:&quot;img5-m93&quot;,&quot;atom_order&quot;:2},{&quot;id&quot;:6003,&quot;token&quot;:&quot;b:1&quot;,&quot;particle_id&quot;:&quot;img5-m93-p3&quot;,&quot;molecule_id&quot;:&quot;img5-m93&quot;,&quot;atom_order&quot;:3},{&quot;id&quot;:6066,&quot;token&quot;:&quot;c:1&quot;,&quot;particle_id&quot;:&quot;img5-m93-p3&quot;,&quot;molecule_id&quot;:&quot;img5-m93&quot;,&quot;atom_order&quot;:4},{&quot;id&quot;:5980,&quot;token&quot;:&quot;a:1&quot;,&quot;particle_id&quot;:&quot;img5-m93-p3&quot;,&quot;molecule_id&quot;:&quot;img5-m93&quot;,&quot;atom_order&quot;:5}]}</metadata>
  <rect x="0" y="0" width="89" height="91" fill="#f8f0d8"/>
  <image href="file:///C:/Users/HHHES/AppData/Roaming/com.voynichlab.datasetcreator/images/1/a6cd3b6e-2a78-4b30-a4be-5d186aea258e.jpg" x="-1906" y="-2725" width="2691" height="3770" opacity="0.92"/>
  <rect x="0.5" y="0.5" width="88" height="90" fill="none" stroke="#111827" stroke-width="1" opacity="0.35"/>
  <polyline points="27,24 28,24 29,25 30,25 30,26 31,27 31,28 32,29 33,29 33,30 33,31 34,32 34,33 35,35 35,36 36,37 36,38 36,40 37,42 37,44 38,44 38,45 38,47 39,48 39,49 39,50 39,51 39,52 40,53 40,54 40,56 40,57 41,58 41,60 41,61 41,63 41,64 41,65 40,66 40,67 40,68 40,69 40,70 40,71 40,72 40,73 40,74 40,75" fill="none" stroke="#00f0b5" stroke-width="3" stroke-linecap="round" stroke-linejoin="round" opacity="0.95">
    <title>5979 a:1</title>
  </polyline>
  <polyline points="31,41 31,42 30,42 30,43 29,43 28,43 28,44 27,44 26,44 25,44 24,44 23,44 22,44 21,44 21,43 20,43 19,43 18,43 18,42 17,42 16,42 16,41 16,40 16,39 16,38 16,37 16,36 16,35 17,35 17,34 17,33 17,32 18,32 18,31 18,30 19,30 19,29 19,28 20,28 21,28 21,27 22,27 22,26 23,26 24,26 24,25 25,25 26,25 27,25 27,24" fill="none" stroke="#f2e45c" stroke-width="3" stroke-linecap="round" stroke-linejoin="round" opacity="0.95">
    <title>5890 e:1</title>
  </polyline>
  <polyline points="23,40 24,41 25,41 26,42 27,42 28,42 29,42 30,42 31,43 32,43 33,43 34,43 35,43 36,43 37,43 39,43 40,43 42,43 43,43 44,43 45,43 46,42 47,42 48,42 49,42 51,42 53,42 54,42 55,42 56,42 57,42 58,42 59,42 60,41 61,40 62,40 63,40 64,39 65,39 66,39 67,38 68,38 69,38 70,37 70,36" fill="none" stroke="#2f7df6" stroke-width="3" stroke-linecap="round" stroke-linejoin="round" opacity="0.95">
    <title>6003 b:1</title>
  </polyline>
  <polyline points="55,25 55,26 54,26 54,27 54,28 53,28 53,29 53,30 53,31 53,32 53,33 53,34 53,35 54,35 54,36 55,36 55,37 56,38 57,38 58,38 59,38 59,39 60,39 61,39 62,39 63,39 64,39 65,39 66,39 67,39 67,38 68,38 69,38 69,37 69,36 70,36 70,35 71,35 71,34 71,33 72,33 72,32 72,31 73,31 73,30 73,29 73,28 73,27 73,26 73,25 72,25 72,24 72,23 71,23 71,22 70,22 70,21 69,21 69,20 68,20 67,20 67,19 66,19 65,19 64,19 63,19 62,19 61,19 60,19 59,20 58,20 58,21 57,21 57,22 56,22 55,22 55,23 54,23 54,24 54,25" fill="none" stroke="#8aff00" stroke-width="3" stroke-linecap="round" stroke-linejoin="round" opacity="0.95">
    <title>6066 c:1</title>
  </polyline>
  <polyline points="54,16 54,17 54,18 54,20 54,21 54,23 54,26 54,28 54,31 54,34 54,36 54,38 54,41 55,43 55,45 55,47 55,48 55,50 55,53 55,55 55,58 55,60 55,61 55,63 55,64 55,65 55,67 55,69 55,70 55,71 55,72 55,73 54,74" fill="none" stroke="#00f0b5" stroke-width="3" stroke-linecap="round" stroke-linejoin="round" opacity="0.95">
    <title>5980 a:1</title>
  </polyline>
</svg>
