<?xml version="1.0" encoding="UTF-8"?>
<svg xmlns="http://www.w3.org/2000/svg" width="56" height="70" viewBox="0 0 56 70">
  <title>particle img5-m38-p3 f:1 i:1 d:1</title>
  <metadata>{&quot;entityType&quot;:&quot;particle&quot;,&quot;entityId&quot;:&quot;img5-m38-p3&quot;,&quot;token&quot;:&quot;f:1 i:1 d:1&quot;,&quot;signature&quot;:&quot;f:1 i:1 d:1&quot;,&quot;imageName&quot;:&quot;page-005.jpg&quot;,&quot;imageId&quot;:5,&quot;bounds&quot;:{&quot;x&quot;:1196,&quot;y&quot;:894,&quot;w&quot;:56,&quot;h&quot;:70},&quot;atoms&quot;:[{&quot;id&quot;:6142,&quot;token&quot;:&quot;f:1&quot;,&quot;particle_id&quot;:&quot;img5-m38-p3&quot;,&quot;molecule_id&quot;:&quot;img5-m38&quot;,&quot;atom_order&quot;:1},{&quot;id&quot;:6276,&quot;token&quot;:&quot;i:1&quot;,&quot;particle_id&quot;:&quot;img5-m38-p3&quot;,&quot;molecule_id&quot;:&quot;img5-m38&quot;,&quot;atom_order&quot;:2},{&quot;id&quot;:6343,&quot;token&quot;:&quot;d:1&quot;,&quot;particle_id&quot;:&quot;img5-m38-p3&quot;,&quot;molecule_id&quot;:&quot;img5-m38&quot;,&quot;atom_order&quot;:3}]}</metadata>
  <rect x="0" y="0" width="56" height="70" fill="#f8f0d8"/>
  <image href="file:///C:/Users/HHHES/AppData/Roaming/com.voynichlab.datasetcreator/images/1/a6cd3b6e-2a78-4b30-a4be-5d186aea258e.jpg" x="-1196" y="-894" width="2691" height="3770" opacity="0.92"/>
  <rect x="0.5" y="0.5" width="55" height="69" fill="none" stroke="#111827" stroke-width="1" opacity="0.35"/>
  <polyline points="16,33 16,34 16,35 17,35 17,36 17,37 18,37 18,38 19,39 19,40 20,40 20,41 21,42 21,43 22,43 22,44 23,44 23,45 24,45 24,46 24,47 25,47 25,48 25,49 26,49 26,50 27,50 27,51 28,52 28,53 29,53 29,54" fill="none" stroke="#00a2ff" stroke-width="3" stroke-linecap="round" stroke-linejoin="round" opacity="0.95">
    <title>6142 f:1</title>
  </polyline>
  <polyline points="16,36 17,36 18,36 19,36 20,36 21,36 22,35 23,35 24,35 25,34 26,34 27,33 28,33 29,32 30,32 31,31 32,31 33,30 34,30 35,30 35,29 36,29 37,28 38,27 39,26 40,25" fill="none" stroke="#00ff7f" stroke-width="3" stroke-linecap="round" stroke-linejoin="round" opacity="0.95">
    <title>6276 i:1</title>
  </polyline>
  <polyline points="23,23 23,22 23,21 24,21 24,20 24,19 25,19 26,18 27,17 28,17 29,17 30,16 31,16 32,16 33,16 34,16 35,17 36,17 37,18 37,19 38,19 38,20 39,21 39,22 39,23 39,24 39,25 39,26" fill="none" stroke="#ff2d55" stroke-width="3" stroke-linecap="round" stroke-linejoin="round" opacity="0.95">
    <title>6343 d:1</title>
  </polyline>
</svg>
