<?xml version="1.0" encoding="UTF-8"?>
<svg xmlns="http://www.w3.org/2000/svg" width="55" height="72" viewBox="0 0 55 72">
  <title>particle img5-m18-p2 e:1 c:1 h:2</title>
  <metadata>{&quot;entityType&quot;:&quot;particle&quot;,&quot;entityId&quot;:&quot;img5-m18-p2&quot;,&quot;token&quot;:&quot;e:1 c:1 h:2&quot;,&quot;signature&quot;:&quot;e:1 c:1 h:2&quot;,&quot;imageName&quot;:&quot;page-005.jpg&quot;,&quot;imageId&quot;:5,&quot;bounds&quot;:{&quot;x&quot;:1654,&quot;y&quot;:649,&quot;w&quot;:55,&quot;h&quot;:72},&quot;atoms&quot;:[{&quot;id&quot;:5681,&quot;token&quot;:&quot;e:1&quot;,&quot;particle_id&quot;:&quot;img5-m18-p2&quot;,&quot;molecule_id&quot;:&quot;img5-m18&quot;,&quot;atom_order&quot;:1},{&quot;id&quot;:5589,&quot;token&quot;:&quot;c:1&quot;,&quot;particle_id&quot;:&quot;img5-m18-p2&quot;,&quot;molecule_id&quot;:&quot;img5-m18&quot;,&quot;atom_order&quot;:2},{&quot;id&quot;:6071,&quot;token&quot;:&quot;h:2&quot;,&quot;particle_id&quot;:&quot;img5-m18-p2&quot;,&quot;molecule_id&quot;:&quot;img5-m18&quot;,&quot;atom_order&quot;:3}]}</metadata>
  <rect x="0" y="0" width="55" height="72" fill="#f8f0d8"/>
  <image href="file:///C:/Users/HHHES/AppData/Roaming/com.voynichlab.datasetcreator/images/1/a6cd3b6e-2a78-4b30-a4be-5d186aea258e.jpg" x="-1654" y="-649" width="2691" height="3770" opacity="0.92"/>
  <rect x="0.5" y="0.5" width="54" height="71" fill="none" stroke="#111827" stroke-width="1" opacity="0.35"/>
  <polyline points="31,52 31,53 30,53 30,54 29,54 28,54 28,55 27,55 26,55 25,55 24,55 23,55 22,55 21,55 21,54 20,54 19,54 18,54 18,53 17,53 16,53 16,52 16,51 16,50 16,49 16,48 16,47 16,46 17,46 17,45 17,44 17,43 18,43 18,42 18,41 19,41 19,40 19,39 20,39 21,39 21,38 22,38 22,37 23,37 24,37 24,36 25,36 26,36 27,36 27,35" fill="none" stroke="#f2e45c" stroke-width="3" stroke-linecap="round" stroke-linejoin="round" opacity="0.95">
    <title>5681 e:1</title>
  </polyline>
  <polyline points="21,22 21,23 20,23 20,24 20,25 19,25 19,26 19,27 19,28 19,29 19,30 19,31 19,32 20,32 20,33 21,33 21,34 22,35 23,35 24,35 25,35 25,36 26,36 27,36 28,36 29,36 30,36 31,36 32,36 33,36 33,35 34,35 35,35 35,34 35,33 36,33 36,32 37,32 37,31 37,30 38,30 38,29 38,28 39,28 39,27 39,26 39,25 39,24 39,23 39,22 38,22 38,21 38,20 37,20 37,19 36,19 36,18 35,18 35,17 34,17 33,17 33,16 32,16 31,16 30,16 29,16 28,16 27,16 26,16 25,17 24,17 24,18 23,18 23,19 22,19 21,19 21,20 20,20 20,21 20,22" fill="none" stroke="#8aff00" stroke-width="3" stroke-linecap="round" stroke-linejoin="round" opacity="0.95">
    <title>5589 c:1</title>
  </polyline>
  <polyline points="28,56 28,55 29,55 30,55 31,54 32,54 32,53 33,53 33,52 33,51 34,51 34,50 34,49 34,48 34,47 34,46 34,45 34,44 33,44 33,43 32,42 32,41 31,41 31,40 30,40 30,39 29,39 29,38 28,38 28,37 27,37 26,36 25,36 25,35 24,35 24,34 23,34 22,34 22,33 21,33 21,32 20,32 20,31 20,30 19,30 19,29 18,28 18,27 18,26 18,25 18,24 19,23 19,22 19,21 20,21 20,20 20,19 21,19" fill="none" stroke="#ff8c00" stroke-width="3" stroke-linecap="round" stroke-linejoin="round" opacity="0.95">
    <title>6071 h:2</title>
  </polyline>
</svg>
