<?xml version="1.0" encoding="UTF-8"?>
<svg xmlns="http://www.w3.org/2000/svg" width="81" height="54" viewBox="0 0 81 54">
  <title>particle img5-m16-p1 e:1 g:1 e:1</title>
  <metadata>{&quot;entityType&quot;:&quot;particle&quot;,&quot;entityId&quot;:&quot;img5-m16-p1&quot;,&quot;token&quot;:&quot;e:1 g:1 e:1&quot;,&quot;signature&quot;:&quot;e:1 g:1 e:1&quot;,&quot;imageName&quot;:&quot;page-005.jpg&quot;,&quot;imageId&quot;:5,&quot;bounds&quot;:{&quot;x&quot;:1346,&quot;y&quot;:658,&quot;w&quot;:81,&quot;h&quot;:54},&quot;atoms&quot;:[{&quot;id&quot;:5675,&quot;token&quot;:&quot;e:1&quot;,&quot;particle_id&quot;:&quot;img5-m16-p1&quot;,&quot;molecule_id&quot;:&quot;img5-m16&quot;,&quot;atom_order&quot;:1},{&quot;id&quot;:6406,&quot;token&quot;:&quot;g:1&quot;,&quot;particle_id&quot;:&quot;img5-m16-p1&quot;,&quot;molecule_id&quot;:&quot;img5-m16&quot;,&quot;atom_order&quot;:2},{&quot;id&quot;:5676,&quot;token&quot;:&quot;e:1&quot;,&quot;particle_id&quot;:&quot;img5-m16-p1&quot;,&quot;molecule_id&quot;:&quot;img5-m16&quot;,&quot;atom_order&quot;:3}]}</metadata>
  <rect x="0" y="0" width="81" height="54" fill="#f8f0d8"/>
  <image href="file:///C:/Users/HHHES/AppData/Roaming/com.voynichlab.datasetcreator/images/1/a6cd3b6e-2a78-4b30-a4be-5d186aea258e.jpg" x="-1346" y="-658" width="2691" height="3770" opacity="0.92"/>
  <rect x="0.5" y="0.5" width="80" height="53" fill="none" stroke="#111827" stroke-width="1" opacity="0.35"/>
  <polyline points="31,33 31,34 30,34 30,35 29,35 28,35 28,36 27,36 26,36 25,36 24,36 23,36 22,36 21,36 21,35 20,35 19,35 18,35 18,34 17,34 16,34 16,33 16,32 16,31 16,30 16,29 16,28 16,27 17,27 17,26 17,25 17,24 18,24 18,23 18,22 19,22 19,21 19,20 20,20 21,20 21,19 22,19 22,18 23,18 24,18 24,17 25,17 26,17 27,17 27,16" fill="none" stroke="#f2e45c" stroke-width="3" stroke-linecap="round" stroke-linejoin="round" opacity="0.95">
    <title>5675 e:1</title>
  </polyline>
  <polyline points="20,18 21,18 22,18 23,18 24,18 26,18 27,18 28,18 29,18 30,18 31,18 32,18 33,19 34,19 35,19 36,19 37,19 39,19 40,19 42,19 43,19 44,19 45,20 46,20 47,20 48,20 49,20 50,20 51,20 52,20 53,20 55,20 56,20 57,20 58,20" fill="none" stroke="#7c3cff" stroke-width="3" stroke-linecap="round" stroke-linejoin="round" opacity="0.95">
    <title>6406 g:1</title>
  </polyline>
  <polyline points="65,35 65,36 64,36 64,37 63,37 62,37 62,38 61,38 60,38 59,38 58,38 57,38 56,38 55,38 55,37 54,37 53,37 52,37 52,36 51,36 50,36 50,35 50,34 50,33 50,32 50,31 50,30 50,29 51,29 51,28 51,27 51,26 52,26 52,25 52,24 53,24 53,23 53,22 54,22 55,22 55,21 56,21 56,20 57,20 58,20 58,19 59,19 60,19 61,19 61,18" fill="none" stroke="#f2e45c" stroke-width="3" stroke-linecap="round" stroke-linejoin="round" opacity="0.95">
    <title>5676 e:1</title>
  </polyline>
</svg>
