<?xml version="1.0" encoding="UTF-8"?>
<svg xmlns="http://www.w3.org/2000/svg" width="55" height="73" viewBox="0 0 55 73">
  <title>particle img5-m62-p3 e:1 h:1</title>
  <metadata>{&quot;entityType&quot;:&quot;particle&quot;,&quot;entityId&quot;:&quot;img5-m62-p3&quot;,&quot;token&quot;:&quot;e:1 h:1&quot;,&quot;signature&quot;:&quot;e:1 h:1&quot;,&quot;imageName&quot;:&quot;page-005.jpg&quot;,&quot;imageId&quot;:5,&quot;bounds&quot;:{&quot;x&quot;:1893,&quot;y&quot;:2542,&quot;w&quot;:55,&quot;h&quot;:73},&quot;atoms&quot;:[{&quot;id&quot;:5861,&quot;token&quot;:&quot;e:1&quot;,&quot;particle_id&quot;:&quot;img5-m62-p3&quot;,&quot;molecule_id&quot;:&quot;img5-m62&quot;,&quot;atom_order&quot;:1},{&quot;id&quot;:5925,&quot;token&quot;:&quot;h:1&quot;,&quot;particle_id&quot;:&quot;img5-m62-p3&quot;,&quot;molecule_id&quot;:&quot;img5-m62&quot;,&quot;atom_order&quot;:2}]}</metadata>
  <rect x="0" y="0" width="55" height="73" fill="#f8f0d8"/>
  <image href="file:///C:/Users/HHHES/AppData/Roaming/com.voynichlab.datasetcreator/images/1/a6cd3b6e-2a78-4b30-a4be-5d186aea258e.jpg" x="-1893" y="-2542" width="2691" height="3770" opacity="0.92"/>
  <rect x="0.5" y="0.5" width="54" height="72" fill="none" stroke="#111827" stroke-width="1" opacity="0.35"/>
  <polyline points="31,33 31,34 30,34 30,35 29,35 28,35 28,36 27,36 26,36 25,36 24,36 23,36 22,36 21,36 21,35 20,35 19,35 18,35 18,34 17,34 16,34 16,33 16,32 16,31 16,30 16,29 16,28 16,27 17,27 17,26 17,25 17,24 18,24 18,23 18,22 19,22 19,21 19,20 20,20 21,20 21,19 22,19 22,18 23,18 24,18 24,17 25,17 26,17 27,17 27,16" fill="none" stroke="#f2e45c" stroke-width="3" stroke-linecap="round" stroke-linejoin="round" opacity="0.95">
    <title>5861 e:1</title>
  </polyline>
  <polyline points="26,17 27,17 27,18 28,18 28,19 29,19 29,20 30,20 30,21 31,21 31,22 32,22 32,23 33,24 33,25 34,25 34,26 35,27 35,28 36,28 36,29 36,30 37,30 37,31 37,32 38,32 38,33 38,34 38,35 38,36 39,36 39,37 39,38 39,39 39,40 39,41 39,42 39,43 39,44 39,45 39,46 39,47 39,48 38,49 38,50 38,51 38,52 37,53 37,54 37,55 36,55 36,56 35,56 35,57" fill="none" stroke="#ff8c00" stroke-width="3" stroke-linecap="round" stroke-linejoin="round" opacity="0.95">
    <title>5925 h:1</title>
  </polyline>
</svg>
