<?xml version="1.0" encoding="UTF-8"?>
<svg xmlns="http://www.w3.org/2000/svg" width="87" height="56" viewBox="0 0 87 56">
  <title>particle img5-m34-p2 e:1 g:1 e:1</title>
  <metadata>{&quot;entityType&quot;:&quot;particle&quot;,&quot;entityId&quot;:&quot;img5-m34-p2&quot;,&quot;token&quot;:&quot;e:1 g:1 e:1&quot;,&quot;signature&quot;:&quot;e:1 g:1 e:1&quot;,&quot;imageName&quot;:&quot;page-005.jpg&quot;,&quot;imageId&quot;:5,&quot;bounds&quot;:{&quot;x&quot;:948,&quot;y&quot;:837,&quot;w&quot;:87,&quot;h&quot;:56},&quot;atoms&quot;:[{&quot;id&quot;:5709,&quot;token&quot;:&quot;e:1&quot;,&quot;particle_id&quot;:&quot;img5-m34-p2&quot;,&quot;molecule_id&quot;:&quot;img5-m34&quot;,&quot;atom_order&quot;:1},{&quot;id&quot;:6414,&quot;token&quot;:&quot;g:1&quot;,&quot;particle_id&quot;:&quot;img5-m34-p2&quot;,&quot;molecule_id&quot;:&quot;img5-m34&quot;,&quot;atom_order&quot;:2},{&quot;id&quot;:5710,&quot;token&quot;:&quot;e:1&quot;,&quot;particle_id&quot;:&quot;img5-m34-p2&quot;,&quot;molecule_id&quot;:&quot;img5-m34&quot;,&quot;atom_order&quot;:3}]}</metadata>
  <rect x="0" y="0" width="87" height="56" fill="#f8f0d8"/>
  <image href="file:///C:/Users/HHHES/AppData/Roaming/com.voynichlab.datasetcreator/images/1/a6cd3b6e-2a78-4b30-a4be-5d186aea258e.jpg" x="-948" y="-837" width="2691" height="3770" opacity="0.92"/>
  <rect x="0.5" y="0.5" width="86" height="55" fill="none" stroke="#111827" stroke-width="1" opacity="0.35"/>
  <polyline points="31,37 31,38 30,38 30,39 29,39 28,39 28,40 27,40 26,40 25,40 24,40 23,40 22,40 21,40 21,39 20,39 19,39 18,39 18,38 17,38 16,38 16,37 16,36 16,35 16,34 16,33 16,32 16,31 17,31 17,30 17,29 17,28 18,28 18,27 18,26 19,26 19,25 19,24 20,24 21,24 21,23 22,23 22,22 23,22 24,22 24,21 25,21 26,21 27,21 27,20" fill="none" stroke="#f2e45c" stroke-width="3" stroke-linecap="round" stroke-linejoin="round" opacity="0.95">
    <title>5709 e:1</title>
  </polyline>
  <polyline points="25,20 26,20 27,20 28,20 29,19 30,19 31,19 32,19 34,19 36,19 37,19 38,19 39,19 41,19 43,19 44,20 45,20 46,20 48,20 49,20 51,19 53,19 54,19 55,19 56,19 57,19 58,19 59,19 60,19 61,19 62,19 63,19 64,19 65,19 66,19 67,19" fill="none" stroke="#7c3cff" stroke-width="3" stroke-linecap="round" stroke-linejoin="round" opacity="0.95">
    <title>6414 g:1</title>
  </polyline>
  <polyline points="71,33 71,34 70,34 70,35 69,35 68,35 68,36 67,36 66,36 65,36 64,36 63,36 62,36 61,36 61,35 60,35 59,35 58,35 58,34 57,34 56,34 56,33 56,32 56,31 56,30 56,29 56,28 56,27 57,27 57,26 57,25 57,24 58,24 58,23 58,22 59,22 59,21 59,20 60,20 61,20 61,19 62,19 62,18 63,18 64,18 64,17 65,17 66,17 67,17 67,16" fill="none" stroke="#f2e45c" stroke-width="3" stroke-linecap="round" stroke-linejoin="round" opacity="0.95">
    <title>5710 e:1</title>
  </polyline>
</svg>
