<?xml version="1.0" encoding="UTF-8"?>
<svg xmlns="http://www.w3.org/2000/svg" width="54" height="77" viewBox="0 0 54 77">
  <title>particle img5-m24-p3 e:1 c:1 h:2</title>
  <metadata>{&quot;entityType&quot;:&quot;particle&quot;,&quot;entityId&quot;:&quot;img5-m24-p3&quot;,&quot;token&quot;:&quot;e:1 c:1 h:2&quot;,&quot;signature&quot;:&quot;e:1 c:1 h:2&quot;,&quot;imageName&quot;:&quot;page-005.jpg&quot;,&quot;imageId&quot;:5,&quot;bounds&quot;:{&quot;x&quot;:556,&quot;y&quot;:731,&quot;w&quot;:54,&quot;h&quot;:77},&quot;atoms&quot;:[{&quot;id&quot;:5703,&quot;token&quot;:&quot;e:1&quot;,&quot;particle_id&quot;:&quot;img5-m24-p3&quot;,&quot;molecule_id&quot;:&quot;img5-m24&quot;,&quot;atom_order&quot;:1},{&quot;id&quot;:5600,&quot;token&quot;:&quot;c:1&quot;,&quot;particle_id&quot;:&quot;img5-m24-p3&quot;,&quot;molecule_id&quot;:&quot;img5-m24&quot;,&quot;atom_order&quot;:2},{&quot;id&quot;:6076,&quot;token&quot;:&quot;h:2&quot;,&quot;particle_id&quot;:&quot;img5-m24-p3&quot;,&quot;molecule_id&quot;:&quot;img5-m24&quot;,&quot;atom_order&quot;:3}]}</metadata>
  <rect x="0" y="0" width="54" height="77" fill="#f8f0d8"/>
  <image href="file:///C:/Users/HHHES/AppData/Roaming/com.voynichlab.datasetcreator/images/1/a6cd3b6e-2a78-4b30-a4be-5d186aea258e.jpg" x="-556" y="-731" width="2691" height="3770" opacity="0.92"/>
  <rect x="0.5" y="0.5" width="53" height="76" fill="none" stroke="#111827" stroke-width="1" opacity="0.35"/>
  <polyline points="31,56 31,57 30,57 30,58 29,58 28,58 28,59 27,59 26,59 25,59 24,59 23,59 22,59 21,59 21,58 20,58 19,58 18,58 18,57 17,57 16,57 16,56 16,55 16,54 16,53 16,52 16,51 16,50 17,50 17,49 17,48 17,47 18,47 18,46 18,45 19,45 19,44 19,43 20,43 21,43 21,42 22,42 22,41 23,41 24,41 24,40 25,40 26,40 27,40 27,39" fill="none" stroke="#f2e45c" stroke-width="3" stroke-linecap="round" stroke-linejoin="round" opacity="0.95">
    <title>5703 e:1</title>
  </polyline>
  <polyline points="20,22 20,23 19,23 19,24 19,25 18,25 18,26 18,27 18,28 18,29 18,30 18,31 18,32 19,32 19,33 20,33 20,34 21,35 22,35 23,35 24,35 24,36 25,36 26,36 27,36 28,36 29,36 30,36 31,36 32,36 32,35 33,35 34,35 34,34 34,33 35,33 35,32 36,32 36,31 36,30 37,30 37,29 37,28 38,28 38,27 38,26 38,25 38,24 38,23 38,22 37,22 37,21 37,20 36,20 36,19 35,19 35,18 34,18 34,17 33,17 32,17 32,16 31,16 30,16 29,16 28,16 27,16 26,16 25,16 24,17 23,17 23,18 22,18 22,19 21,19 20,19 20,20 19,20 19,21 19,22" fill="none" stroke="#8aff00" stroke-width="3" stroke-linecap="round" stroke-linejoin="round" opacity="0.95">
    <title>5600 c:1</title>
  </polyline>
  <polyline points="29,61 29,60 30,60 31,60 32,59 33,59 33,58 34,58 34,57 34,56 35,56 35,55 35,54 35,53 35,52 35,51 35,50 35,49 34,49 34,48 33,47 33,46 32,46 32,45 31,45 31,44 30,44 30,43 29,43 29,42 28,42 27,41 26,41 26,40 25,40 25,39 24,39 23,39 23,38 22,38 22,37 21,37 21,36 21,35 20,35 20,34 19,33 19,32 19,31 19,30 19,29 20,28 20,27 20,26 21,26 21,25 21,24 22,24" fill="none" stroke="#ff8c00" stroke-width="3" stroke-linecap="round" stroke-linejoin="round" opacity="0.95">
    <title>6076 h:2</title>
  </polyline>
</svg>
