<?xml version="1.0" encoding="UTF-8"?>
<svg xmlns="http://www.w3.org/2000/svg" width="59" height="68" viewBox="0 0 59 68">
  <title>particle img5-m60-p1 e:1 c:1 h:2</title>
  <metadata>{&quot;entityType&quot;:&quot;particle&quot;,&quot;entityId&quot;:&quot;img5-m60-p1&quot;,&quot;token&quot;:&quot;e:1 c:1 h:2&quot;,&quot;signature&quot;:&quot;e:1 c:1 h:2&quot;,&quot;imageName&quot;:&quot;page-005.jpg&quot;,&quot;imageId&quot;:5,&quot;bounds&quot;:{&quot;x&quot;:1966,&quot;y&quot;:2520,&quot;w&quot;:59,&quot;h&quot;:68},&quot;atoms&quot;:[{&quot;id&quot;:5860,&quot;token&quot;:&quot;e:1&quot;,&quot;particle_id&quot;:&quot;img5-m60-p1&quot;,&quot;molecule_id&quot;:&quot;img5-m60&quot;,&quot;atom_order&quot;:1},{&quot;id&quot;:6024,&quot;token&quot;:&quot;c:1&quot;,&quot;particle_id&quot;:&quot;img5-m60-p1&quot;,&quot;molecule_id&quot;:&quot;img5-m60&quot;,&quot;atom_order&quot;:2},{&quot;id&quot;:6094,&quot;token&quot;:&quot;h:2&quot;,&quot;particle_id&quot;:&quot;img5-m60-p1&quot;,&quot;molecule_id&quot;:&quot;img5-m60&quot;,&quot;atom_order&quot;:3}]}</metadata>
  <rect x="0" y="0" width="59" height="68" fill="#f8f0d8"/>
  <image href="file:///C:/Users/HHHES/AppData/Roaming/com.voynichlab.datasetcreator/images/1/a6cd3b6e-2a78-4b30-a4be-5d186aea258e.jpg" x="-1966" y="-2520" width="2691" height="3770" opacity="0.92"/>
  <rect x="0.5" y="0.5" width="58" height="67" fill="none" stroke="#111827" stroke-width="1" opacity="0.35"/>
  <polyline points="31,49 31,50 30,50 30,51 29,51 28,51 28,52 27,52 26,52 25,52 24,52 23,52 22,52 21,52 21,51 20,51 19,51 18,51 18,50 17,50 16,50 16,49 16,48 16,47 16,46 16,45 16,44 16,43 17,43 17,42 17,41 17,40 18,40 18,39 18,38 19,38 19,37 19,36 20,36 21,36 21,35 22,35 22,34 23,34 24,34 24,33 25,33 26,33 27,33 27,32" fill="none" stroke="#f2e45c" stroke-width="3" stroke-linecap="round" stroke-linejoin="round" opacity="0.95">
    <title>5860 e:1</title>
  </polyline>
  <polyline points="34,31 35,31 36,31 37,31 37,30 38,30 39,30 39,29 40,29 40,28 41,28 41,27 42,26 42,25 43,25 43,24 43,23 43,22 43,21 43,20 42,19 42,18 41,18 40,17 39,17 39,16 38,16 37,16 36,16 35,16 34,16 33,16 33,17 32,17 32,18 31,18 31,19 30,19 30,20 29,21 29,22 29,23 29,24 29,25 29,26 29,27 29,28 29,29 30,29 30,30 31,30 32,30 33,30 34,30 35,30 36,30" fill="none" stroke="#8aff00" stroke-width="3" stroke-linecap="round" stroke-linejoin="round" opacity="0.95">
    <title>6024 c:1</title>
  </polyline>
  <polyline points="34,16 33,16 32,16 32,17 31,17 30,17 30,18 29,18 28,18 28,19 27,19 27,20 26,21 26,22 26,23 26,24 26,25 26,26 26,27 27,27 27,28 27,29 27,30 28,31 28,32 29,33 29,34 29,35 30,35 30,36 30,37 30,38 31,39 31,40 31,41 31,42 31,43 31,44 31,45 31,46 31,47 31,48 31,49 31,50 30,50 30,51" fill="none" stroke="#ff8c00" stroke-width="3" stroke-linecap="round" stroke-linejoin="round" opacity="0.95">
    <title>6094 h:2</title>
  </polyline>
</svg>
