<?xml version="1.0" encoding="UTF-8"?>
<svg xmlns="http://www.w3.org/2000/svg" width="112" height="69" viewBox="0 0 112 69">
  <title>particle img5-m33-p4 k:1 f:1 i:1 d:1</title>
  <metadata>{&quot;entityType&quot;:&quot;particle&quot;,&quot;entityId&quot;:&quot;img5-m33-p4&quot;,&quot;token&quot;:&quot;k:1 f:1 i:1 d:1&quot;,&quot;signature&quot;:&quot;k:1 f:1 i:1 d:1&quot;,&quot;imageName&quot;:&quot;page-005.jpg&quot;,&quot;imageId&quot;:5,&quot;bounds&quot;:{&quot;x&quot;:1123,&quot;y&quot;:814,&quot;w&quot;:112,&quot;h&quot;:69},&quot;atoms&quot;:[{&quot;id&quot;:6226,&quot;token&quot;:&quot;k:1&quot;,&quot;particle_id&quot;:&quot;img5-m33-p4&quot;,&quot;molecule_id&quot;:&quot;img5-m33&quot;,&quot;atom_order&quot;:1},{&quot;id&quot;:6132,&quot;token&quot;:&quot;f:1&quot;,&quot;particle_id&quot;:&quot;img5-m33-p4&quot;,&quot;molecule_id&quot;:&quot;img5-m33&quot;,&quot;atom_order&quot;:2},{&quot;id&quot;:6272,&quot;token&quot;:&quot;i:1&quot;,&quot;particle_id&quot;:&quot;img5-m33-p4&quot;,&quot;molecule_id&quot;:&quot;img5-m33&quot;,&quot;atom_order&quot;:3},{&quot;id&quot;:6344,&quot;token&quot;:&quot;d:1&quot;,&quot;particle_id&quot;:&quot;img5-m33-p4&quot;,&quot;molecule_id&quot;:&quot;img5-m33&quot;,&quot;atom_order&quot;:4}]}</metadata>
  <rect x="0" y="0" width="112" height="69" fill="#f8f0d8"/>
  <image href="file:///C:/Users/HHHES/AppData/Roaming/com.voynichlab.datasetcreator/images/1/a6cd3b6e-2a78-4b30-a4be-5d186aea258e.jpg" x="-1123" y="-814" width="2691" height="3770" opacity="0.92"/>
  <rect x="0.5" y="0.5" width="111" height="68" fill="none" stroke="#111827" stroke-width="1" opacity="0.35"/>
  <polyline points="16,31 16,32 16,33 17,34 17,35 18,35 20,36 20,37 21,38 21,39 22,40 23,40 23,41 24,42 25,43 25,44 26,44 26,45 27,46 28,46 28,47 28,48 29,48 29,49 30,49 30,48 31,47 32,46 33,45 34,44 35,43 36,42 36,41 36,40 37,39 37,38 38,38 38,37 39,36 40,35 41,34 42,33 42,32 43,32 43,33 44,34 44,35 45,35 46,36 47,38 47,39 48,40 49,41 50,42 50,43 51,43 51,44 52,44 52,45 53,46 54,47 55,48 55,49 56,50 57,51 58,51 58,52 59,51 60,50 61,48 61,47 62,46 62,45 63,45 63,44 64,43 64,42 64,41 65,41 65,40 66,39 66,38 66,37 67,37 67,36 67,35 67,34 68,34" fill="none" stroke="#ffffff" stroke-width="3" stroke-linecap="round" stroke-linejoin="round" opacity="0.95">
    <title>6226 k:1</title>
  </polyline>
  <polyline points="67,32 67,33 67,34 68,34 68,35 68,36 69,36 69,37 70,38 70,39 71,39 71,40 72,41 72,42 73,42 73,43 74,43 74,44 75,44 75,45 75,46 76,46 76,47 76,48 77,48 77,49 78,49 78,50 79,51 79,52 80,52 80,53" fill="none" stroke="#00a2ff" stroke-width="3" stroke-linecap="round" stroke-linejoin="round" opacity="0.95">
    <title>6132 f:1</title>
  </polyline>
  <polyline points="80,53 81,53 81,52 82,52 83,52 84,52 85,52 86,51 87,51 87,50 88,50 89,49 90,48 91,47 91,46 92,46 92,45 93,45 93,44 94,43 94,42 95,41 95,40 95,39 95,38 96,37 96,36 96,35 96,34 96,33 96,32 96,31 96,30 96,29 95,29 95,28 94,27 94,26 93,26 92,25 91,24 90,23 89,23 89,22 88,22 88,21 87,21 86,21 85,21" fill="none" stroke="#00ff7f" stroke-width="3" stroke-linecap="round" stroke-linejoin="round" opacity="0.95">
    <title>6272 i:1</title>
  </polyline>
  <polyline points="52,17 53,17 54,16 55,16 56,16 58,16 59,17 60,17 62,17 63,17 65,17 66,18 68,18 69,18 70,18 72,18 73,18 75,19 76,19 77,20 78,20 79,20 80,21 81,21 82,21 83,21 85,22 87,22 88,23 90,23 91,23 92,23 92,24 93,24 94,24 95,24" fill="none" stroke="#ff2d55" stroke-width="3" stroke-linecap="round" stroke-linejoin="round" opacity="0.95">
    <title>6344 d:1</title>
  </polyline>
</svg>
