<?xml version="1.0" encoding="UTF-8"?>
<svg xmlns="http://www.w3.org/2000/svg" width="106" height="74" viewBox="0 0 106 74">
  <title>particle img5-m91-p3 k:1 f:1 i:1 d:1</title>
  <metadata>{&quot;entityType&quot;:&quot;particle&quot;,&quot;entityId&quot;:&quot;img5-m91-p3&quot;,&quot;token&quot;:&quot;k:1 f:1 i:1 d:1&quot;,&quot;signature&quot;:&quot;k:1 f:1 i:1 d:1&quot;,&quot;imageName&quot;:&quot;page-005.jpg&quot;,&quot;imageId&quot;:5,&quot;bounds&quot;:{&quot;x&quot;:1706,&quot;y&quot;:2769,&quot;w&quot;:106,&quot;h&quot;:74},&quot;atoms&quot;:[{&quot;id&quot;:6240,&quot;token&quot;:&quot;k:1&quot;,&quot;particle_id&quot;:&quot;img5-m91-p3&quot;,&quot;molecule_id&quot;:&quot;img5-m91&quot;,&quot;atom_order&quot;:1},{&quot;id&quot;:6211,&quot;token&quot;:&quot;f:1&quot;,&quot;particle_id&quot;:&quot;img5-m91-p3&quot;,&quot;molecule_id&quot;:&quot;img5-m91&quot;,&quot;atom_order&quot;:2},{&quot;id&quot;:6310,&quot;token&quot;:&quot;i:1&quot;,&quot;particle_id&quot;:&quot;img5-m91-p3&quot;,&quot;molecule_id&quot;:&quot;img5-m91&quot;,&quot;atom_order&quot;:3},{&quot;id&quot;:6378,&quot;token&quot;:&quot;d:1&quot;,&quot;particle_id&quot;:&quot;img5-m91-p3&quot;,&quot;molecule_id&quot;:&quot;img5-m91&quot;,&quot;atom_order&quot;:4}]}</metadata>
  <rect x="0" y="0" width="106" height="74" fill="#f8f0d8"/>
  <image href="file:///C:/Users/HHHES/AppData/Roaming/com.voynichlab.datasetcreator/images/1/a6cd3b6e-2a78-4b30-a4be-5d186aea258e.jpg" x="-1706" y="-2769" width="2691" height="3770" opacity="0.92"/>
  <rect x="0.5" y="0.5" width="105" height="73" fill="none" stroke="#111827" stroke-width="1" opacity="0.35"/>
  <polyline points="16,37 17,38 17,39 18,39 19,40 20,41 20,42 21,43 22,44 23,46 24,47 24,48 25,48 25,49 25,50 26,50 27,51 28,52 28,53 29,54 29,55 30,55 30,56 30,57 31,57 31,58 31,57 31,56 31,55 32,54 32,53 32,52 32,51 33,51 33,50 33,49 34,49 34,48 35,47 36,46 36,45 37,45 37,44 38,44 38,43 38,42 39,42 40,41 40,40 41,39 41,38 42,37 42,38 42,39 42,40 42,41 42,42 43,43 43,44 43,45 44,45 44,46 45,47 45,48 46,49 46,50 47,51 48,52 49,53 50,54 51,54 51,55 52,56 53,55 53,54 53,53 54,52 54,51 54,50 54,49 55,49 55,48 55,47 56,46 56,45 57,45 57,44 58,43 58,42 59,42 59,41 59,40 59,39 60,39 60,38" fill="none" stroke="#ffffff" stroke-width="3" stroke-linecap="round" stroke-linejoin="round" opacity="0.95">
    <title>6240 k:1</title>
  </polyline>
  <polyline points="60,37 60,38 60,39 61,39 61,40 61,41 62,41 62,42 63,43 63,44 64,44 64,45 65,46 65,47 66,47 66,48 67,48 67,49 68,49 68,50 68,51 69,51 69,52 69,53 70,53 70,54 71,54 71,55 72,56 72,57 73,57 73,58" fill="none" stroke="#00a2ff" stroke-width="3" stroke-linecap="round" stroke-linejoin="round" opacity="0.95">
    <title>6211 f:1</title>
  </polyline>
  <polyline points="71,58 72,58 73,57 74,57 75,57 77,56 79,55 80,55 80,54 81,54 82,53 83,53 84,52 85,51 85,50 86,50 86,49 87,49 88,48 88,47 89,46 89,45 90,44 90,43 90,42 90,41 90,40 90,39 90,37 90,36 90,35 90,34 90,33 90,32 90,31 89,31 89,30 89,29 88,29 88,28 87,27 87,26 86,26 86,25 85,25 85,24 85,23 84,22 83,22 83,21 82,20 81,20" fill="none" stroke="#00ff7f" stroke-width="3" stroke-linecap="round" stroke-linejoin="round" opacity="0.95">
    <title>6310 i:1</title>
  </polyline>
  <polyline points="56,17 57,17 58,17 59,17 60,17 61,17 62,16 63,16 64,16 65,16 66,16 67,16 67,17 68,17 69,17 70,17 71,17 72,18 74,18 75,18 75,19 76,19 77,19 78,20 79,20 80,21 81,21 82,22 83,22 84,23 85,23 85,24 86,25 86,26 87,26 87,27 88,28 88,29 89,29" fill="none" stroke="#ff2d55" stroke-width="3" stroke-linecap="round" stroke-linejoin="round" opacity="0.95">
    <title>6378 d:1</title>
  </polyline>
</svg>
