<?xml version="1.0" encoding="UTF-8"?>
<svg xmlns="http://www.w3.org/2000/svg" width="113" height="68" viewBox="0 0 113 68">
  <title>particle img5-m32-p5 k:1 f:1 i:1 d:1</title>
  <metadata>{&quot;entityType&quot;:&quot;particle&quot;,&quot;entityId&quot;:&quot;img5-m32-p5&quot;,&quot;token&quot;:&quot;k:1 f:1 i:1 d:1&quot;,&quot;signature&quot;:&quot;k:1 f:1 i:1 d:1&quot;,&quot;imageName&quot;:&quot;page-005.jpg&quot;,&quot;imageId&quot;:5,&quot;bounds&quot;:{&quot;x&quot;:1872,&quot;y&quot;:820,&quot;w&quot;:113,&quot;h&quot;:68},&quot;atoms&quot;:[{&quot;id&quot;:6227,&quot;token&quot;:&quot;k:1&quot;,&quot;particle_id&quot;:&quot;img5-m32-p5&quot;,&quot;molecule_id&quot;:&quot;img5-m32&quot;,&quot;atom_order&quot;:1},{&quot;id&quot;:6137,&quot;token&quot;:&quot;f:1&quot;,&quot;particle_id&quot;:&quot;img5-m32-p5&quot;,&quot;molecule_id&quot;:&quot;img5-m32&quot;,&quot;atom_order&quot;:2},{&quot;id&quot;:6274,&quot;token&quot;:&quot;i:1&quot;,&quot;particle_id&quot;:&quot;img5-m32-p5&quot;,&quot;molecule_id&quot;:&quot;img5-m32&quot;,&quot;atom_order&quot;:3},{&quot;id&quot;:6334,&quot;token&quot;:&quot;d:1&quot;,&quot;particle_id&quot;:&quot;img5-m32-p5&quot;,&quot;molecule_id&quot;:&quot;img5-m32&quot;,&quot;atom_order&quot;:4}]}</metadata>
  <rect x="0" y="0" width="113" height="68" fill="#f8f0d8"/>
  <image href="file:///C:/Users/HHHES/AppData/Roaming/com.voynichlab.datasetcreator/images/1/a6cd3b6e-2a78-4b30-a4be-5d186aea258e.jpg" x="-1872" y="-820" width="2691" height="3770" opacity="0.92"/>
  <rect x="0.5" y="0.5" width="112" height="67" fill="none" stroke="#111827" stroke-width="1" opacity="0.35"/>
  <polyline points="16,31 17,31 17,32 18,33 19,33 20,35 21,36 22,37 23,38 24,39 25,40 25,41 26,41 26,42 26,43 27,44 27,45 28,45 28,46 29,46 29,47 29,48 29,49 30,50 30,51 31,51 31,50 32,49 32,48 32,47 33,47 33,46 33,45 34,45 34,44 34,43 35,42 35,41 36,40 36,39 37,38 38,38 38,37 39,37 39,36 40,35 40,34 41,33 42,34 42,35 43,36 44,37 45,38 45,39 46,39 47,40 48,41 49,42 50,43 51,44 52,44 52,45 52,46 53,46 54,47 54,48 55,49 55,50 56,50 57,50 58,49 59,48 59,47 60,47 60,46 61,46 62,45 62,44 63,44 64,43 64,42 64,41 65,41 66,40 67,39 67,38 68,37 69,36 69,35 70,35 70,34 71,33" fill="none" stroke="#ffffff" stroke-width="3" stroke-linecap="round" stroke-linejoin="round" opacity="0.95">
    <title>6227 k:1</title>
  </polyline>
  <polyline points="70,31 70,32 70,33 71,33 71,34 71,35 72,35 72,36 73,37 73,38 74,38 74,39 75,40 75,41 76,41 76,42 77,42 77,43 78,43 78,44 78,45 79,45 79,46 79,47 80,47 80,48 81,48 81,49 82,50 82,51 83,51 83,52" fill="none" stroke="#00a2ff" stroke-width="3" stroke-linecap="round" stroke-linejoin="round" opacity="0.95">
    <title>6137 f:1</title>
  </polyline>
  <polyline points="83,51 84,51 85,51 86,50 87,50 88,50 89,50 90,49 91,48 92,48 92,47 93,47 94,46 95,46 95,45 96,44 96,43 96,42 97,41 97,40 97,39 97,38 97,37 97,36 97,34 96,33 96,32 96,31 96,30 95,29 95,28 94,28 93,27 92,26 92,25 91,25 91,24 90,23 88,23 87,22 86,21 85,21 85,20 83,20 83,19 81,19 80,19 80,18 79,18" fill="none" stroke="#00ff7f" stroke-width="3" stroke-linecap="round" stroke-linejoin="round" opacity="0.95">
    <title>6274 i:1</title>
  </polyline>
  <polyline points="53,20 54,20 54,19 55,19 56,19 56,18 57,18 58,18 59,18 60,17 61,17 62,17 63,17 64,17 66,17 66,16 67,16 68,16 69,16 70,16 71,16 72,16 72,17 73,17 74,17 75,17 76,17 77,17 77,18 78,18 79,18 80,18 81,19 82,20 83,20 84,20 84,21 85,21" fill="none" stroke="#ff2d55" stroke-width="3" stroke-linecap="round" stroke-linejoin="round" opacity="0.95">
    <title>6334 d:1</title>
  </polyline>
</svg>
