<?xml version="1.0" encoding="UTF-8"?>
<svg xmlns="http://www.w3.org/2000/svg" width="83" height="56" viewBox="0 0 83 56">
  <title>particle img5-m93-p1 e:1 g:1 e:1</title>
  <metadata>{&quot;entityType&quot;:&quot;particle&quot;,&quot;entityId&quot;:&quot;img5-m93-p1&quot;,&quot;token&quot;:&quot;e:1 g:1 e:1&quot;,&quot;signature&quot;:&quot;e:1 g:1 e:1&quot;,&quot;imageName&quot;:&quot;page-005.jpg&quot;,&quot;imageId&quot;:5,&quot;bounds&quot;:{&quot;x&quot;:1834,&quot;y&quot;:2777,&quot;w&quot;:83,&quot;h&quot;:56},&quot;atoms&quot;:[{&quot;id&quot;:5887,&quot;token&quot;:&quot;e:1&quot;,&quot;particle_id&quot;:&quot;img5-m93-p1&quot;,&quot;molecule_id&quot;:&quot;img5-m93&quot;,&quot;atom_order&quot;:1},{&quot;id&quot;:6447,&quot;token&quot;:&quot;g:1&quot;,&quot;particle_id&quot;:&quot;img5-m93-p1&quot;,&quot;molecule_id&quot;:&quot;img5-m93&quot;,&quot;atom_order&quot;:2},{&quot;id&quot;:5888,&quot;token&quot;:&quot;e:1&quot;,&quot;particle_id&quot;:&quot;img5-m93-p1&quot;,&quot;molecule_id&quot;:&quot;img5-m93&quot;,&quot;atom_order&quot;:3}]}</metadata>
  <rect x="0" y="0" width="83" height="56" fill="#f8f0d8"/>
  <image href="file:///C:/Users/HHHES/AppData/Roaming/com.voynichlab.datasetcreator/images/1/a6cd3b6e-2a78-4b30-a4be-5d186aea258e.jpg" x="-1834" y="-2777" width="2691" height="3770" opacity="0.92"/>
  <rect x="0.5" y="0.5" width="82" height="55" fill="none" stroke="#111827" stroke-width="1" opacity="0.35"/>
  <polyline points="31,37 31,38 30,38 30,39 29,39 28,39 28,40 27,40 26,40 25,40 24,40 23,40 22,40 21,40 21,39 20,39 19,39 18,39 18,38 17,38 16,38 16,37 16,36 16,35 16,34 16,33 16,32 16,31 17,31 17,30 17,29 17,28 18,28 18,27 18,26 19,26 19,25 19,24 20,24 21,24 21,23 22,23 22,22 23,22 24,22 24,21 25,21 26,21 27,21 27,20" fill="none" stroke="#f2e45c" stroke-width="3" stroke-linecap="round" stroke-linejoin="round" opacity="0.95">
    <title>5887 e:1</title>
  </polyline>
  <polyline points="23,21 24,21 25,20 26,20 27,19 28,19 29,19 30,19 32,19 33,19 34,19 35,19 36,19 37,19 38,19 39,19 40,19 41,19 42,19 43,19 44,19 45,19 46,19 47,19 48,19 49,19 50,19 50,18 51,18 52,18 53,18 54,18 55,18 56,18 57,18 58,18 59,18 59,17 60,17 61,17 62,17" fill="none" stroke="#7c3cff" stroke-width="3" stroke-linecap="round" stroke-linejoin="round" opacity="0.95">
    <title>6447 g:1</title>
  </polyline>
  <polyline points="67,33 67,34 66,34 66,35 65,35 64,35 64,36 63,36 62,36 61,36 60,36 59,36 58,36 57,36 57,35 56,35 55,35 54,35 54,34 53,34 52,34 52,33 52,32 52,31 52,30 52,29 52,28 52,27 53,27 53,26 53,25 53,24 54,24 54,23 54,22 55,22 55,21 55,20 56,20 57,20 57,19 58,19 58,18 59,18 60,18 60,17 61,17 62,17 63,17 63,16" fill="none" stroke="#f2e45c" stroke-width="3" stroke-linecap="round" stroke-linejoin="round" opacity="0.95">
    <title>5888 e:1</title>
  </polyline>
</svg>
