<?xml version="1.0" encoding="UTF-8"?>
<svg xmlns="http://www.w3.org/2000/svg" width="54" height="64" viewBox="0 0 54 64">
  <title>particle img5-m29-p1 e:1 c:1 h:2</title>
  <metadata>{&quot;entityType&quot;:&quot;particle&quot;,&quot;entityId&quot;:&quot;img5-m29-p1&quot;,&quot;token&quot;:&quot;e:1 c:1 h:2&quot;,&quot;signature&quot;:&quot;e:1 c:1 h:2&quot;,&quot;imageName&quot;:&quot;page-005.jpg&quot;,&quot;imageId&quot;:5,&quot;bounds&quot;:{&quot;x&quot;:1473,&quot;y&quot;:822,&quot;w&quot;:54,&quot;h&quot;:64},&quot;atoms&quot;:[{&quot;id&quot;:5718,&quot;token&quot;:&quot;e:1&quot;,&quot;particle_id&quot;:&quot;img5-m29-p1&quot;,&quot;molecule_id&quot;:&quot;img5-m29&quot;,&quot;atom_order&quot;:1},{&quot;id&quot;:5618,&quot;token&quot;:&quot;c:1&quot;,&quot;particle_id&quot;:&quot;img5-m29-p1&quot;,&quot;molecule_id&quot;:&quot;img5-m29&quot;,&quot;atom_order&quot;:2},{&quot;id&quot;:6078,&quot;token&quot;:&quot;h:2&quot;,&quot;particle_id&quot;:&quot;img5-m29-p1&quot;,&quot;molecule_id&quot;:&quot;img5-m29&quot;,&quot;atom_order&quot;:3}]}</metadata>
  <rect x="0" y="0" width="54" height="64" fill="#f8f0d8"/>
  <image href="file:///C:/Users/HHHES/AppData/Roaming/com.voynichlab.datasetcreator/images/1/a6cd3b6e-2a78-4b30-a4be-5d186aea258e.jpg" x="-1473" y="-822" width="2691" height="3770" opacity="0.92"/>
  <rect x="0.5" y="0.5" width="53" height="63" fill="none" stroke="#111827" stroke-width="1" opacity="0.35"/>
  <polyline points="31,45 31,46 30,46 30,47 29,47 28,47 28,48 27,48 26,48 25,48 24,48 23,48 22,48 21,48 21,47 20,47 19,47 18,47 18,46 17,46 16,46 16,45 16,44 16,43 16,42 16,41 16,40 16,39 17,39 17,38 17,37 17,36 18,36 18,35 18,34 19,34 19,33 19,32 20,32 21,32 21,31 22,31 22,30 23,30 24,30 24,29 25,29 26,29 27,29 27,28" fill="none" stroke="#f2e45c" stroke-width="3" stroke-linecap="round" stroke-linejoin="round" opacity="0.95">
    <title>5718 e:1</title>
  </polyline>
  <polyline points="31,29 32,29 33,29 34,29 35,29 36,28 37,28 37,27 38,26 38,25 38,24 38,23 38,22 38,21 38,20 38,19 38,18 38,17 37,17 36,17 36,16 35,16 34,16 33,16 32,16 31,16 30,16 29,16 29,17 28,17 28,18 27,18 27,19 26,19 26,20 26,21 26,22 26,23 26,24 26,25 27,26 28,26 28,27 29,27 30,27 30,28 31,28 32,28" fill="none" stroke="#8aff00" stroke-width="3" stroke-linecap="round" stroke-linejoin="round" opacity="0.95">
    <title>5618 c:1</title>
  </polyline>
  <polyline points="28,47 29,47 30,46 31,45 32,44 32,43 32,42 32,41 32,40 32,39 32,38 32,37 32,36 31,36 31,35 30,35 29,34 29,33 28,33 27,32 26,32 26,31 25,30 25,29 25,27 24,27 24,25 25,24 25,23 26,21 26,20 27,19 27,18 28,17 29,17 30,17 30,16" fill="none" stroke="#ff8c00" stroke-width="3" stroke-linecap="round" stroke-linejoin="round" opacity="0.95">
    <title>6078 h:2</title>
  </polyline>
</svg>
