<?xml version="1.0" encoding="UTF-8"?>
<svg xmlns="http://www.w3.org/2000/svg" width="67" height="93" viewBox="0 0 67 93">
  <title>particle img5-m92-p3 a:1 b:1 c:1 a:1</title>
  <metadata>{&quot;entityType&quot;:&quot;particle&quot;,&quot;entityId&quot;:&quot;img5-m92-p3&quot;,&quot;token&quot;:&quot;a:1 b:1 c:1 a:1&quot;,&quot;signature&quot;:&quot;a:1 b:1 c:1 a:1&quot;,&quot;imageName&quot;:&quot;page-005.jpg&quot;,&quot;imageId&quot;:5,&quot;bounds&quot;:{&quot;x&quot;:2126,&quot;y&quot;:2723,&quot;w&quot;:67,&quot;h&quot;:93},&quot;atoms&quot;:[{&quot;id&quot;:5977,&quot;token&quot;:&quot;a:1&quot;,&quot;particle_id&quot;:&quot;img5-m92-p3&quot;,&quot;molecule_id&quot;:&quot;img5-m92&quot;,&quot;atom_order&quot;:1},{&quot;id&quot;:6004,&quot;token&quot;:&quot;b:1&quot;,&quot;particle_id&quot;:&quot;img5-m92-p3&quot;,&quot;molecule_id&quot;:&quot;img5-m92&quot;,&quot;atom_order&quot;:2},{&quot;id&quot;:6067,&quot;token&quot;:&quot;c:1&quot;,&quot;particle_id&quot;:&quot;img5-m92-p3&quot;,&quot;molecule_id&quot;:&quot;img5-m92&quot;,&quot;atom_order&quot;:3},{&quot;id&quot;:5978,&quot;token&quot;:&quot;a:1&quot;,&quot;particle_id&quot;:&quot;img5-m92-p3&quot;,&quot;molecule_id&quot;:&quot;img5-m92&quot;,&quot;atom_order&quot;:4}]}</metadata>
  <rect x="0" y="0" width="67" height="93" fill="#f8f0d8"/>
  <image href="file:///C:/Users/HHHES/AppData/Roaming/com.voynichlab.datasetcreator/images/1/a6cd3b6e-2a78-4b30-a4be-5d186aea258e.jpg" x="-2126" y="-2723" width="2691" height="3770" opacity="0.92"/>
  <rect x="0.5" y="0.5" width="66" height="92" fill="none" stroke="#111827" stroke-width="1" opacity="0.35"/>
  <polyline points="16,18 16,19 16,20 16,22 16,24 16,26 16,28 16,30 16,32 16,34 17,36 17,37 17,39 17,42 17,44 17,47 17,49 17,51 17,52 17,54 17,56 17,57 18,58 18,59 18,60 18,61 18,63 18,65 18,66 18,68 18,69 18,71 18,73 18,74 17,75 17,76 17,77 18,77" fill="none" stroke="#00f0b5" stroke-width="3" stroke-linecap="round" stroke-linejoin="round" opacity="0.95">
    <title>5977 a:1</title>
  </polyline>
  <polyline points="17,31 16,31 16,32 17,33 17,34 18,35 18,36 19,36 19,37 20,37 21,37 22,38 23,38 24,38 25,39 26,39 27,39 28,39 29,40 30,40 31,40 32,40 33,40 34,41 35,41 36,41 37,41 38,41 39,41 39,40 40,40 41,40 41,39 42,39 43,39 43,38 44,38 44,37 45,37 45,36 46,36 46,35 46,34 47,34 47,33 47,32" fill="none" stroke="#2f7df6" stroke-width="3" stroke-linecap="round" stroke-linejoin="round" opacity="0.95">
    <title>6004 b:1</title>
  </polyline>
  <polyline points="33,25 33,26 32,26 32,27 32,28 31,28 31,29 31,30 31,31 31,32 31,33 31,34 31,35 32,35 32,36 33,36 33,37 34,38 35,38 36,38 37,38 37,39 38,39 39,39 40,39 41,39 42,39 43,39 44,39 45,39 45,38 46,38 47,38 47,37 47,36 48,36 48,35 49,35 49,34 49,33 50,33 50,32 50,31 51,31 51,30 51,29 51,28 51,27 51,26 51,25 50,25 50,24 50,23 49,23 49,22 48,22 48,21 47,21 47,20 46,20 45,20 45,19 44,19 43,19 42,19 41,19 40,19 39,19 38,19 37,20 36,20 36,21 35,21 35,22 34,22 33,22 33,23 32,23 32,24 32,25" fill="none" stroke="#8aff00" stroke-width="3" stroke-linecap="round" stroke-linejoin="round" opacity="0.95">
    <title>6067 c:1</title>
  </polyline>
  <polyline points="36,16 36,17 36,18 36,20 36,22 36,24 36,27 36,29 36,31 36,33 36,36 35,40 35,43 35,45 35,47 35,48 35,50 35,52 35,54 35,55 35,57 35,59 35,60 35,61 35,62 35,64 35,65 35,67 35,68 35,69 35,70 35,71 35,72 35,73 35,74 35,75 36,75" fill="none" stroke="#00f0b5" stroke-width="3" stroke-linecap="round" stroke-linejoin="round" opacity="0.95">
    <title>5978 a:1</title>
  </polyline>
</svg>
