<?xml version="1.0" encoding="UTF-8"?>
<svg xmlns="http://www.w3.org/2000/svg" width="96" height="65" viewBox="0 0 96 65">
  <title>particle img5-m44-p3 k:1 f:1 i:1 d:1</title>
  <metadata>{&quot;entityType&quot;:&quot;particle&quot;,&quot;entityId&quot;:&quot;img5-m44-p3&quot;,&quot;token&quot;:&quot;k:1 f:1 i:1 d:1&quot;,&quot;signature&quot;:&quot;k:1 f:1 i:1 d:1&quot;,&quot;imageName&quot;:&quot;page-005.jpg&quot;,&quot;imageId&quot;:5,&quot;bounds&quot;:{&quot;x&quot;:800,&quot;y&quot;:977,&quot;w&quot;:96,&quot;h&quot;:65},&quot;atoms&quot;:[{&quot;id&quot;:6229,&quot;token&quot;:&quot;k:1&quot;,&quot;particle_id&quot;:&quot;img5-m44-p3&quot;,&quot;molecule_id&quot;:&quot;img5-m44&quot;,&quot;atom_order&quot;:1},{&quot;id&quot;:6150,&quot;token&quot;:&quot;f:1&quot;,&quot;particle_id&quot;:&quot;img5-m44-p3&quot;,&quot;molecule_id&quot;:&quot;img5-m44&quot;,&quot;atom_order&quot;:2},{&quot;id&quot;:6286,&quot;token&quot;:&quot;i:1&quot;,&quot;particle_id&quot;:&quot;img5-m44-p3&quot;,&quot;molecule_id&quot;:&quot;img5-m44&quot;,&quot;atom_order&quot;:3},{&quot;id&quot;:6337,&quot;token&quot;:&quot;d:1&quot;,&quot;particle_id&quot;:&quot;img5-m44-p3&quot;,&quot;molecule_id&quot;:&quot;img5-m44&quot;,&quot;atom_order&quot;:4}]}</metadata>
  <rect x="0" y="0" width="96" height="65" fill="#f8f0d8"/>
  <image href="file:///C:/Users/HHHES/AppData/Roaming/com.voynichlab.datasetcreator/images/1/a6cd3b6e-2a78-4b30-a4be-5d186aea258e.jpg" x="-800" y="-977" width="2691" height="3770" opacity="0.92"/>
  <rect x="0.5" y="0.5" width="95" height="64" fill="none" stroke="#111827" stroke-width="1" opacity="0.35"/>
  <polyline points="16,24 16,25 16,26 17,28 17,29 18,30 18,31 19,32 20,33 21,34 21,35 21,36 22,37 22,38 23,39 23,40 24,41 24,42 25,42 25,43 25,44 26,44 26,43 27,42 28,41 28,40 28,39 29,38 29,37 29,36 30,36 30,35 31,34 31,33 32,33 32,32 33,32 33,31 34,30 34,29 35,29 35,28 36,29 36,30 36,31 36,32 37,33 37,34 38,35 38,36 38,37 38,38 39,38 39,39 40,39 40,40 40,41 41,42 42,43 42,44 43,44 43,45 44,45 44,46 45,45 46,44 47,43 47,42 48,41 49,41 49,40 50,40 50,39 51,39 51,38 52,38 52,37 53,36 53,35 54,35 54,34 55,33 56,33 56,32 56,31 57,31" fill="none" stroke="#ffffff" stroke-width="3" stroke-linecap="round" stroke-linejoin="round" opacity="0.95">
    <title>6229 k:1</title>
  </polyline>
  <polyline points="56,28 56,29 56,30 57,30 57,31 57,32 58,32 58,33 59,34 59,35 60,35 60,36 61,37 61,38 62,38 62,39 63,39 63,40 64,40 64,41 64,42 65,42 65,43 65,44 66,44 66,45 67,45 67,46 68,47 68,48 69,48 69,49" fill="none" stroke="#00a2ff" stroke-width="3" stroke-linecap="round" stroke-linejoin="round" opacity="0.95">
    <title>6150 f:1</title>
  </polyline>
  <polyline points="67,47 68,47 69,47 70,46 71,46 72,45 73,44 74,43 75,43 75,42 76,41 76,40 77,40 77,39 78,38 78,37 79,37 79,36 79,35 80,35 80,34 80,33 80,32 80,31 80,30 80,29 79,28 79,27 79,26 78,26 78,25 77,25 77,24 76,23 75,22 74,22 73,21 72,21 72,20" fill="none" stroke="#00ff7f" stroke-width="3" stroke-linecap="round" stroke-linejoin="round" opacity="0.95">
    <title>6286 i:1</title>
  </polyline>
  <polyline points="48,20 49,20 50,19 52,18 54,17 55,17 55,16 56,16 57,16 58,16 59,16 60,16 61,16 62,16 63,16 64,16 65,16 66,17 68,18 69,18 70,18 70,19 72,19 72,20 73,20 74,20 74,21 75,21 76,22" fill="none" stroke="#ff2d55" stroke-width="3" stroke-linecap="round" stroke-linejoin="round" opacity="0.95">
    <title>6337 d:1</title>
  </polyline>
</svg>
