<?xml version="1.0" encoding="UTF-8"?>
<svg xmlns="http://www.w3.org/2000/svg" width="79" height="54" viewBox="0 0 79 54">
  <title>particle img5-m6-p3 e:1 g:1 e:1</title>
  <metadata>{&quot;entityType&quot;:&quot;particle&quot;,&quot;entityId&quot;:&quot;img5-m6-p3&quot;,&quot;token&quot;:&quot;e:1 g:1 e:1&quot;,&quot;signature&quot;:&quot;e:1 g:1 e:1&quot;,&quot;imageName&quot;:&quot;page-005.jpg&quot;,&quot;imageId&quot;:5,&quot;bounds&quot;:{&quot;x&quot;:1108,&quot;y&quot;:501,&quot;w&quot;:79,&quot;h&quot;:54},&quot;atoms&quot;:[{&quot;id&quot;:5635,&quot;token&quot;:&quot;e:1&quot;,&quot;particle_id&quot;:&quot;img5-m6-p3&quot;,&quot;molecule_id&quot;:&quot;img5-m6&quot;,&quot;atom_order&quot;:1},{&quot;id&quot;:6395,&quot;token&quot;:&quot;g:1&quot;,&quot;particle_id&quot;:&quot;img5-m6-p3&quot;,&quot;molecule_id&quot;:&quot;img5-m6&quot;,&quot;atom_order&quot;:2},{&quot;id&quot;:5636,&quot;token&quot;:&quot;e:1&quot;,&quot;particle_id&quot;:&quot;img5-m6-p3&quot;,&quot;molecule_id&quot;:&quot;img5-m6&quot;,&quot;atom_order&quot;:3}]}</metadata>
  <rect x="0" y="0" width="79" height="54" fill="#f8f0d8"/>
  <image href="file:///C:/Users/HHHES/AppData/Roaming/com.voynichlab.datasetcreator/images/1/a6cd3b6e-2a78-4b30-a4be-5d186aea258e.jpg" x="-1108" y="-501" width="2691" height="3770" opacity="0.92"/>
  <rect x="0.5" y="0.5" width="78" height="53" fill="none" stroke="#111827" stroke-width="1" opacity="0.35"/>
  <polyline points="31,35 31,36 30,36 30,37 29,37 28,37 28,38 27,38 26,38 25,38 24,38 23,38 22,38 21,38 21,37 20,37 19,37 18,37 18,36 17,36 16,36 16,35 16,34 16,33 16,32 16,31 16,30 16,29 17,29 17,28 17,27 17,26 18,26 18,25 18,24 19,24 19,23 19,22 20,22 21,22 21,21 22,21 22,20 23,20 24,20 24,19 25,19 26,19 27,19 27,18" fill="none" stroke="#f2e45c" stroke-width="3" stroke-linecap="round" stroke-linejoin="round" opacity="0.95">
    <title>5635 e:1</title>
  </polyline>
  <polyline points="22,19 23,19 24,19 25,19 26,19 28,18 29,18 31,18 32,18 33,18 34,18 35,18 38,18 39,18 41,18 42,18 43,18 45,18 46,18 47,18 48,18 49,18 50,18 51,18 52,18 53,18 54,18 55,18 56,18 57,18" fill="none" stroke="#7c3cff" stroke-width="3" stroke-linecap="round" stroke-linejoin="round" opacity="0.95">
    <title>6395 g:1</title>
  </polyline>
  <polyline points="63,33 63,34 62,34 62,35 61,35 60,35 60,36 59,36 58,36 57,36 56,36 55,36 54,36 53,36 53,35 52,35 51,35 50,35 50,34 49,34 48,34 48,33 48,32 48,31 48,30 48,29 48,28 48,27 49,27 49,26 49,25 49,24 50,24 50,23 50,22 51,22 51,21 51,20 52,20 53,20 53,19 54,19 54,18 55,18 56,18 56,17 57,17 58,17 59,17 59,16" fill="none" stroke="#f2e45c" stroke-width="3" stroke-linecap="round" stroke-linejoin="round" opacity="0.95">
    <title>5636 e:1</title>
  </polyline>
</svg>
