<?xml version="1.0" encoding="UTF-8"?>
<svg xmlns="http://www.w3.org/2000/svg" width="83" height="52" viewBox="0 0 83 52">
  <title>particle img5-m17-p1 e:1 g:1 e:1</title>
  <metadata>{&quot;entityType&quot;:&quot;particle&quot;,&quot;entityId&quot;:&quot;img5-m17-p1&quot;,&quot;token&quot;:&quot;e:1 g:1 e:1&quot;,&quot;signature&quot;:&quot;e:1 g:1 e:1&quot;,&quot;imageName&quot;:&quot;page-005.jpg&quot;,&quot;imageId&quot;:5,&quot;bounds&quot;:{&quot;x&quot;:1486,&quot;y&quot;:666,&quot;w&quot;:83,&quot;h&quot;:52},&quot;atoms&quot;:[{&quot;id&quot;:5677,&quot;token&quot;:&quot;e:1&quot;,&quot;particle_id&quot;:&quot;img5-m17-p1&quot;,&quot;molecule_id&quot;:&quot;img5-m17&quot;,&quot;atom_order&quot;:1},{&quot;id&quot;:6407,&quot;token&quot;:&quot;g:1&quot;,&quot;particle_id&quot;:&quot;img5-m17-p1&quot;,&quot;molecule_id&quot;:&quot;img5-m17&quot;,&quot;atom_order&quot;:2},{&quot;id&quot;:5678,&quot;token&quot;:&quot;e:1&quot;,&quot;particle_id&quot;:&quot;img5-m17-p1&quot;,&quot;molecule_id&quot;:&quot;img5-m17&quot;,&quot;atom_order&quot;:3}]}</metadata>
  <rect x="0" y="0" width="83" height="52" fill="#f8f0d8"/>
  <image href="file:///C:/Users/HHHES/AppData/Roaming/com.voynichlab.datasetcreator/images/1/a6cd3b6e-2a78-4b30-a4be-5d186aea258e.jpg" x="-1486" y="-666" width="2691" height="3770" opacity="0.92"/>
  <rect x="0.5" y="0.5" width="82" height="51" fill="none" stroke="#111827" stroke-width="1" opacity="0.35"/>
  <polyline points="31,33 31,34 30,34 30,35 29,35 28,35 28,36 27,36 26,36 25,36 24,36 23,36 22,36 21,36 21,35 20,35 19,35 18,35 18,34 17,34 16,34 16,33 16,32 16,31 16,30 16,29 16,28 16,27 17,27 17,26 17,25 17,24 18,24 18,23 18,22 19,22 19,21 19,20 20,20 21,20 21,19 22,19 22,18 23,18 24,18 24,17 25,17 26,17 27,17 27,16" fill="none" stroke="#f2e45c" stroke-width="3" stroke-linecap="round" stroke-linejoin="round" opacity="0.95">
    <title>5677 e:1</title>
  </polyline>
  <polyline points="22,17 23,17 24,17 25,17 26,17 27,17 28,17 29,17 31,17 32,17 33,17 35,17 36,17 37,17 38,17 40,17 42,17 44,17 45,17 46,17 47,17 48,17 49,17 50,17 52,17 53,17 54,17 55,17 56,17 57,17 58,17 59,17 60,17 61,17 62,17" fill="none" stroke="#7c3cff" stroke-width="3" stroke-linecap="round" stroke-linejoin="round" opacity="0.95">
    <title>6407 g:1</title>
  </polyline>
  <polyline points="67,33 67,34 66,34 66,35 65,35 64,35 64,36 63,36 62,36 61,36 60,36 59,36 58,36 57,36 57,35 56,35 55,35 54,35 54,34 53,34 52,34 52,33 52,32 52,31 52,30 52,29 52,28 52,27 53,27 53,26 53,25 53,24 54,24 54,23 54,22 55,22 55,21 55,20 56,20 57,20 57,19 58,19 58,18 59,18 60,18 60,17 61,17 62,17 63,17 63,16" fill="none" stroke="#f2e45c" stroke-width="3" stroke-linecap="round" stroke-linejoin="round" opacity="0.95">
    <title>5678 e:1</title>
  </polyline>
</svg>
