<?xml version="1.0" encoding="UTF-8"?>
<svg xmlns="http://www.w3.org/2000/svg" width="56" height="80" viewBox="0 0 56 80">
  <title>particle img5-m99-p3 f:1 i:1 d:1</title>
  <metadata>{&quot;entityType&quot;:&quot;particle&quot;,&quot;entityId&quot;:&quot;img5-m99-p3&quot;,&quot;token&quot;:&quot;f:1 i:1 d:1&quot;,&quot;signature&quot;:&quot;f:1 i:1 d:1&quot;,&quot;imageName&quot;:&quot;page-005.jpg&quot;,&quot;imageId&quot;:5,&quot;bounds&quot;:{&quot;x&quot;:1210,&quot;y&quot;:2791,&quot;w&quot;:56,&quot;h&quot;:80},&quot;atoms&quot;:[{&quot;id&quot;:6205,&quot;token&quot;:&quot;f:1&quot;,&quot;particle_id&quot;:&quot;img5-m99-p3&quot;,&quot;molecule_id&quot;:&quot;img5-m99&quot;,&quot;atom_order&quot;:1},{&quot;id&quot;:6306,&quot;token&quot;:&quot;i:1&quot;,&quot;particle_id&quot;:&quot;img5-m99-p3&quot;,&quot;molecule_id&quot;:&quot;img5-m99&quot;,&quot;atom_order&quot;:2},{&quot;id&quot;:6374,&quot;token&quot;:&quot;d:1&quot;,&quot;particle_id&quot;:&quot;img5-m99-p3&quot;,&quot;molecule_id&quot;:&quot;img5-m99&quot;,&quot;atom_order&quot;:3}]}</metadata>
  <rect x="0" y="0" width="56" height="80" fill="#f8f0d8"/>
  <image href="file:///C:/Users/HHHES/AppData/Roaming/com.voynichlab.datasetcreator/images/1/a6cd3b6e-2a78-4b30-a4be-5d186aea258e.jpg" x="-1210" y="-2791" width="2691" height="3770" opacity="0.92"/>
  <rect x="0.5" y="0.5" width="55" height="79" fill="none" stroke="#111827" stroke-width="1" opacity="0.35"/>
  <polyline points="16,43 16,44 16,45 17,45 17,46 17,47 18,47 18,48 19,49 19,50 20,50 20,51 21,52 21,53 22,53 22,54 23,54 23,55 24,55 24,56 24,57 25,57 25,58 25,59 26,59 26,60 27,60 27,61 28,62 28,63 29,63 29,64" fill="none" stroke="#00a2ff" stroke-width="3" stroke-linecap="round" stroke-linejoin="round" opacity="0.95">
    <title>6205 f:1</title>
  </polyline>
  <polyline points="18,48 19,48 20,48 21,47 22,46 23,46 24,45 25,45 26,44 27,43 28,42 30,41 31,41 31,40 32,39 33,38 34,37 35,36 36,35 36,34 37,33 38,32 38,31 38,30 39,29 39,28 39,27 40,27 40,26 40,25 40,24 40,23 40,22 40,21" fill="none" stroke="#00ff7f" stroke-width="3" stroke-linecap="round" stroke-linejoin="round" opacity="0.95">
    <title>6306 i:1</title>
  </polyline>
  <polyline points="21,27 21,26 21,25 21,24 22,23 22,22 23,21 23,20 24,19 25,18 26,18 26,17 27,17 28,17 29,16 30,16 31,16 32,16 33,16 34,16 36,16 36,17 37,17 38,18 38,19 38,20 39,20 39,21 39,22 39,23 39,24 39,25" fill="none" stroke="#ff2d55" stroke-width="3" stroke-linecap="round" stroke-linejoin="round" opacity="0.95">
    <title>6374 d:1</title>
  </polyline>
</svg>
