<?xml version="1.0" encoding="UTF-8"?>
<svg xmlns="http://www.w3.org/2000/svg" width="63" height="85" viewBox="0 0 63 85">
  <title>particle img5-m92-p7 f:1 j:1</title>
  <metadata>{&quot;entityType&quot;:&quot;particle&quot;,&quot;entityId&quot;:&quot;img5-m92-p7&quot;,&quot;token&quot;:&quot;f:1 j:1&quot;,&quot;signature&quot;:&quot;f:1 j:1&quot;,&quot;imageName&quot;:&quot;page-005.jpg&quot;,&quot;imageId&quot;:5,&quot;bounds&quot;:{&quot;x&quot;:2281,&quot;y&quot;:2726,&quot;w&quot;:63,&quot;h&quot;:85},&quot;atoms&quot;:[{&quot;id&quot;:6213,&quot;token&quot;:&quot;f:1&quot;,&quot;particle_id&quot;:&quot;img5-m92-p7&quot;,&quot;molecule_id&quot;:&quot;img5-m92&quot;,&quot;atom_order&quot;:1},{&quot;id&quot;:6484,&quot;token&quot;:&quot;j:1&quot;,&quot;particle_id&quot;:&quot;img5-m92-p7&quot;,&quot;molecule_id&quot;:&quot;img5-m92&quot;,&quot;atom_order&quot;:2}]}</metadata>
  <rect x="0" y="0" width="63" height="85" fill="#f8f0d8"/>
  <image href="file:///C:/Users/HHHES/AppData/Roaming/com.voynichlab.datasetcreator/images/1/a6cd3b6e-2a78-4b30-a4be-5d186aea258e.jpg" x="-2281" y="-2726" width="2691" height="3770" opacity="0.92"/>
  <rect x="0.5" y="0.5" width="62" height="84" fill="none" stroke="#111827" stroke-width="1" opacity="0.35"/>
  <polyline points="27,25 27,26 27,27 28,27 28,28 28,29 29,29 29,30 30,31 30,32 31,32 31,33 32,34 32,35 33,35 33,36 34,36 34,37 35,37 35,38 35,39 36,39 36,40 36,41 37,41 37,42 38,42 38,43 39,44 39,45 40,45 40,46" fill="none" stroke="#00a2ff" stroke-width="3" stroke-linecap="round" stroke-linejoin="round" opacity="0.95">
    <title>6213 f:1</title>
  </polyline>
  <polyline points="27,26 27,25 27,24 28,23 29,23 29,22 30,21 31,20 32,20 32,19 33,19 33,18 34,18 34,17 35,17 36,17 37,16 38,16 39,16 40,16 41,16 42,16 43,16 44,16 45,16 46,16 47,17 47,18 47,19 47,20 47,21 46,21 46,22 46,23 45,24 45,25 44,25 44,27 43,28 43,29 42,29 42,30 42,31 41,31 41,32 40,33 39,34 39,35 38,36 38,37 37,38 36,39 36,40 35,41 34,42 34,43 33,43 33,44 32,45 32,46 31,47 31,48 31,49 30,50 29,51 28,53 27,54 27,55 26,56 25,57 24,58 24,59 23,60 22,61 21,62 21,63 20,65 19,66 18,67 18,68 17,69 16,69" fill="none" stroke="#4a9e6a" stroke-width="3" stroke-linecap="round" stroke-linejoin="round" opacity="0.95">
    <title>6484 j:1</title>
  </polyline>
</svg>
