<?xml version="1.0" encoding="UTF-8"?>
<svg xmlns="http://www.w3.org/2000/svg" width="68" height="87" viewBox="0 0 68 87">
  <title>particle img5-m98-p2 f:1 i:1 d:1</title>
  <metadata>{&quot;entityType&quot;:&quot;particle&quot;,&quot;entityId&quot;:&quot;img5-m98-p2&quot;,&quot;token&quot;:&quot;f:1 i:1 d:1&quot;,&quot;signature&quot;:&quot;f:1 i:1 d:1&quot;,&quot;imageName&quot;:&quot;page-005.jpg&quot;,&quot;imageId&quot;:5,&quot;bounds&quot;:{&quot;x&quot;:1310,&quot;y&quot;:2784,&quot;w&quot;:68,&quot;h&quot;:87},&quot;atoms&quot;:[{&quot;id&quot;:6207,&quot;token&quot;:&quot;f:1&quot;,&quot;particle_id&quot;:&quot;img5-m98-p2&quot;,&quot;molecule_id&quot;:&quot;img5-m98&quot;,&quot;atom_order&quot;:1},{&quot;id&quot;:6307,&quot;token&quot;:&quot;i:1&quot;,&quot;particle_id&quot;:&quot;img5-m98-p2&quot;,&quot;molecule_id&quot;:&quot;img5-m98&quot;,&quot;atom_order&quot;:2},{&quot;id&quot;:6375,&quot;token&quot;:&quot;d:1&quot;,&quot;particle_id&quot;:&quot;img5-m98-p2&quot;,&quot;molecule_id&quot;:&quot;img5-m98&quot;,&quot;atom_order&quot;:3}]}</metadata>
  <rect x="0" y="0" width="68" height="87" fill="#f8f0d8"/>
  <image href="file:///C:/Users/HHHES/AppData/Roaming/com.voynichlab.datasetcreator/images/1/a6cd3b6e-2a78-4b30-a4be-5d186aea258e.jpg" x="-1310" y="-2784" width="2691" height="3770" opacity="0.92"/>
  <rect x="0.5" y="0.5" width="67" height="86" fill="none" stroke="#111827" stroke-width="1" opacity="0.35"/>
  <polyline points="25,50 25,51 25,52 26,52 26,53 26,54 27,54 27,55 28,56 28,57 29,57 29,58 30,59 30,60 31,60 31,61 32,61 32,62 33,62 33,63 33,64 34,64 34,65 34,66 35,66 35,67 36,67 36,68 37,69 37,70 38,70 38,71" fill="none" stroke="#00a2ff" stroke-width="3" stroke-linecap="round" stroke-linejoin="round" opacity="0.95">
    <title>6207 f:1</title>
  </polyline>
  <polyline points="37,70 38,70 38,69 39,69 40,69 41,69 42,69 42,68 43,68 44,68 44,67 45,67 46,66 47,65 47,64 48,64 48,63 49,62 49,61 49,60 50,59 50,58 50,57 50,56 51,55 51,54 51,53 52,52 52,51 52,50 52,49 52,48 52,47 52,46 52,45 51,44 51,43 51,42 50,42 50,41 50,40 50,39 49,39 49,38 49,37 48,36 48,35 47,34 47,33 46,33 46,32 45,31 45,30 44,29 43,28 42,27 42,26 41,25 40,25 40,24" fill="none" stroke="#00ff7f" stroke-width="3" stroke-linecap="round" stroke-linejoin="round" opacity="0.95">
    <title>6307 i:1</title>
  </polyline>
  <polyline points="16,23 16,22 17,22 17,21 18,20 18,19 19,19 20,18 21,17 22,17 23,16 24,16 25,16 26,16 27,16 28,16 29,17 30,17 31,17 32,18 33,18 34,18 35,18 35,19 36,19 36,20 37,20 37,21 38,21 38,22 39,22 39,23 40,23 40,24 41,24 41,25 42,26 43,27 43,28 44,29 44,30 45,30 45,31 45,32" fill="none" stroke="#ff2d55" stroke-width="3" stroke-linecap="round" stroke-linejoin="round" opacity="0.95">
    <title>6375 d:1</title>
  </polyline>
</svg>
