<?xml version="1.0" encoding="UTF-8"?>
<svg xmlns="http://www.w3.org/2000/svg" width="63" height="88" viewBox="0 0 63 88">
  <title>particle img5-m72-p2 a:1 b:1 c:1 a:1</title>
  <metadata>{&quot;entityType&quot;:&quot;particle&quot;,&quot;entityId&quot;:&quot;img5-m72-p2&quot;,&quot;token&quot;:&quot;a:1 b:1 c:1 a:1&quot;,&quot;signature&quot;:&quot;a:1 b:1 c:1 a:1&quot;,&quot;imageName&quot;:&quot;page-005.jpg&quot;,&quot;imageId&quot;:5,&quot;bounds&quot;:{&quot;x&quot;:521,&quot;y&quot;:2602,&quot;w&quot;:63,&quot;h&quot;:88},&quot;atoms&quot;:[{&quot;id&quot;:5966,&quot;token&quot;:&quot;a:1&quot;,&quot;particle_id&quot;:&quot;img5-m72-p2&quot;,&quot;molecule_id&quot;:&quot;img5-m72&quot;,&quot;atom_order&quot;:1},{&quot;id&quot;:5996,&quot;token&quot;:&quot;b:1&quot;,&quot;particle_id&quot;:&quot;img5-m72-p2&quot;,&quot;molecule_id&quot;:&quot;img5-m72&quot;,&quot;atom_order&quot;:2},{&quot;id&quot;:6039,&quot;token&quot;:&quot;c:1&quot;,&quot;particle_id&quot;:&quot;img5-m72-p2&quot;,&quot;molecule_id&quot;:&quot;img5-m72&quot;,&quot;atom_order&quot;:3},{&quot;id&quot;:5964,&quot;token&quot;:&quot;a:1&quot;,&quot;particle_id&quot;:&quot;img5-m72-p2&quot;,&quot;molecule_id&quot;:&quot;img5-m72&quot;,&quot;atom_order&quot;:4}]}</metadata>
  <rect x="0" y="0" width="63" height="88" fill="#f8f0d8"/>
  <image href="file:///C:/Users/HHHES/AppData/Roaming/com.voynichlab.datasetcreator/images/1/a6cd3b6e-2a78-4b30-a4be-5d186aea258e.jpg" x="-521" y="-2602" width="2691" height="3770" opacity="0.92"/>
  <rect x="0.5" y="0.5" width="62" height="87" fill="none" stroke="#111827" stroke-width="1" opacity="0.35"/>
  <polyline points="18,19 18,20 18,21 18,22 18,24 18,26 18,28 17,30 17,31 17,32 17,33 17,34 17,35 17,37 17,38 17,40 17,42 17,43 17,45 17,46 17,47 17,48 17,50 18,51 18,52 18,53 18,54 18,55 18,56 18,57 18,58 18,60 18,61 18,62 18,63 18,64 18,65 18,66 18,67 18,68 18,69 18,70 18,71 18,72" fill="none" stroke="#00f0b5" stroke-width="3" stroke-linecap="round" stroke-linejoin="round" opacity="0.95">
    <title>5966 a:1</title>
  </polyline>
  <polyline points="16,22 16,23 17,23 17,24 18,25 18,26 18,27 19,27 19,28 20,29 20,30 21,30 21,31 22,31 22,32 23,32 24,32 25,33 26,33 27,33 28,33 29,34 30,34 31,34 32,34 33,34 33,33 34,33 35,33 36,33 37,33 38,33 39,33 40,32 41,32 42,32 42,31 43,31 43,30 44,30 44,29 45,29" fill="none" stroke="#2f7df6" stroke-width="3" stroke-linecap="round" stroke-linejoin="round" opacity="0.95">
    <title>5996 b:1</title>
  </polyline>
  <polyline points="29,22 29,23 28,23 28,24 28,25 27,25 27,26 27,27 27,28 27,29 27,30 27,31 27,32 28,32 28,33 29,33 29,34 30,35 31,35 32,35 33,35 33,36 34,36 35,36 36,36 37,36 38,36 39,36 40,36 41,36 41,35 42,35 43,35 43,34 43,33 44,33 44,32 45,32 45,31 45,30 46,30 46,29 46,28 47,28 47,27 47,26 47,25 47,24 47,23 47,22 46,22 46,21 46,20 45,20 45,19 44,19 44,18 43,18 43,17 42,17 41,17 41,16 40,16 39,16 38,16 37,16 36,16 35,16 34,16 33,17 32,17 32,18 31,18 31,19 30,19 29,19 29,20 28,20 28,21 28,22" fill="none" stroke="#8aff00" stroke-width="3" stroke-linecap="round" stroke-linejoin="round" opacity="0.95">
    <title>6039 c:1</title>
  </polyline>
  <polyline points="29,18 29,19 29,20 29,21 29,22 29,23 29,25 29,27 29,28 29,30 29,31 29,32 29,34 29,35 29,36 29,37 29,38 29,39 28,40 28,41 28,42 28,43 28,44 28,45 28,47 28,48 28,49 28,50 28,52 28,53 28,54 28,55 28,56 28,57 28,58 29,58 29,59 29,60 29,61 29,62 29,63 29,64 29,65 29,66 29,67 29,68" fill="none" stroke="#00f0b5" stroke-width="3" stroke-linecap="round" stroke-linejoin="round" opacity="0.95">
    <title>5964 a:1</title>
  </polyline>
</svg>
