<?xml version="1.0" encoding="UTF-8"?>
<svg xmlns="http://www.w3.org/2000/svg" width="52" height="67" viewBox="0 0 52 67">
  <title>particle img5-m46-p4 e:1 c:1 h:2</title>
  <metadata>{&quot;entityType&quot;:&quot;particle&quot;,&quot;entityId&quot;:&quot;img5-m46-p4&quot;,&quot;token&quot;:&quot;e:1 c:1 h:2&quot;,&quot;signature&quot;:&quot;e:1 c:1 h:2&quot;,&quot;imageName&quot;:&quot;page-005.jpg&quot;,&quot;imageId&quot;:5,&quot;bounds&quot;:{&quot;x&quot;:1124,&quot;y&quot;:977,&quot;w&quot;:52,&quot;h&quot;:67},&quot;atoms&quot;:[{&quot;id&quot;:5756,&quot;token&quot;:&quot;e:1&quot;,&quot;particle_id&quot;:&quot;img5-m46-p4&quot;,&quot;molecule_id&quot;:&quot;img5-m46&quot;,&quot;atom_order&quot;:1},{&quot;id&quot;:5611,&quot;token&quot;:&quot;c:1&quot;,&quot;particle_id&quot;:&quot;img5-m46-p4&quot;,&quot;molecule_id&quot;:&quot;img5-m46&quot;,&quot;atom_order&quot;:2},{&quot;id&quot;:6088,&quot;token&quot;:&quot;h:2&quot;,&quot;particle_id&quot;:&quot;img5-m46-p4&quot;,&quot;molecule_id&quot;:&quot;img5-m46&quot;,&quot;atom_order&quot;:3}]}</metadata>
  <rect x="0" y="0" width="52" height="67" fill="#f8f0d8"/>
  <image href="file:///C:/Users/HHHES/AppData/Roaming/com.voynichlab.datasetcreator/images/1/a6cd3b6e-2a78-4b30-a4be-5d186aea258e.jpg" x="-1124" y="-977" width="2691" height="3770" opacity="0.92"/>
  <rect x="0.5" y="0.5" width="51" height="66" fill="none" stroke="#111827" stroke-width="1" opacity="0.35"/>
  <polyline points="31,47 31,48 30,48 30,49 29,49 28,49 28,50 27,50 26,50 25,50 24,50 23,50 22,50 21,50 21,49 20,49 19,49 18,49 18,48 17,48 16,48 16,47 16,46 16,45 16,44 16,43 16,42 16,41 17,41 17,40 17,39 17,38 18,38 18,37 18,36 19,36 19,35 19,34 20,34 21,34 21,33 22,33 22,32 23,32 24,32 24,31 25,31 26,31 27,31 27,30" fill="none" stroke="#f2e45c" stroke-width="3" stroke-linecap="round" stroke-linejoin="round" opacity="0.95">
    <title>5756 e:1</title>
  </polyline>
  <polyline points="30,27 31,27 32,26 33,26 33,25 34,25 34,24 35,24 35,23 35,22 35,21 36,21 36,20 36,19 36,18 35,17 34,16 33,16 32,16 31,16 30,16 29,16 28,16 27,16 26,16 25,16 25,17 24,17 24,18 24,19 24,20 23,21 23,22 23,23 23,24 23,25 23,26 24,26 24,27 25,27 26,27 27,27 28,27 29,27 30,27 31,27 32,27 32,26" fill="none" stroke="#8aff00" stroke-width="3" stroke-linecap="round" stroke-linejoin="round" opacity="0.95">
    <title>5611 c:1</title>
  </polyline>
  <polyline points="29,51 29,50 30,50 31,50 31,49 32,49 32,48 33,48 34,47 35,46 35,45 36,44 36,43 36,42 36,41 36,40 35,39 34,38 33,37 33,36 32,36 32,35 31,34 30,34 30,33 29,33 28,32 28,31 27,31 27,30 26,30 26,29 25,28 25,27 24,26 24,25 23,25 23,24 23,23 23,22 23,21 23,20 23,19 23,18 24,17 25,16 26,16 27,16" fill="none" stroke="#ff8c00" stroke-width="3" stroke-linecap="round" stroke-linejoin="round" opacity="0.95">
    <title>6088 h:2</title>
  </polyline>
</svg>
