<?xml version="1.0" encoding="UTF-8"?>
<svg xmlns="http://www.w3.org/2000/svg" width="92" height="54" viewBox="0 0 92 54">
  <title>particle img5-m32-p3 e:1 g:1 e:1</title>
  <metadata>{&quot;entityType&quot;:&quot;particle&quot;,&quot;entityId&quot;:&quot;img5-m32-p3&quot;,&quot;token&quot;:&quot;e:1 g:1 e:1&quot;,&quot;signature&quot;:&quot;e:1 g:1 e:1&quot;,&quot;imageName&quot;:&quot;page-005.jpg&quot;,&quot;imageId&quot;:5,&quot;bounds&quot;:{&quot;x&quot;:1773,&quot;y&quot;:830,&quot;w&quot;:92,&quot;h&quot;:54},&quot;atoms&quot;:[{&quot;id&quot;:5723,&quot;token&quot;:&quot;e:1&quot;,&quot;particle_id&quot;:&quot;img5-m32-p3&quot;,&quot;molecule_id&quot;:&quot;img5-m32&quot;,&quot;atom_order&quot;:1},{&quot;id&quot;:6416,&quot;token&quot;:&quot;g:1&quot;,&quot;particle_id&quot;:&quot;img5-m32-p3&quot;,&quot;molecule_id&quot;:&quot;img5-m32&quot;,&quot;atom_order&quot;:2},{&quot;id&quot;:5724,&quot;token&quot;:&quot;e:1&quot;,&quot;particle_id&quot;:&quot;img5-m32-p3&quot;,&quot;molecule_id&quot;:&quot;img5-m32&quot;,&quot;atom_order&quot;:3}]}</metadata>
  <rect x="0" y="0" width="92" height="54" fill="#f8f0d8"/>
  <image href="file:///C:/Users/HHHES/AppData/Roaming/com.voynichlab.datasetcreator/images/1/a6cd3b6e-2a78-4b30-a4be-5d186aea258e.jpg" x="-1773" y="-830" width="2691" height="3770" opacity="0.92"/>
  <rect x="0.5" y="0.5" width="91" height="53" fill="none" stroke="#111827" stroke-width="1" opacity="0.35"/>
  <polyline points="31,33 31,34 30,34 30,35 29,35 28,35 28,36 27,36 26,36 25,36 24,36 23,36 22,36 21,36 21,35 20,35 19,35 18,35 18,34 17,34 16,34 16,33 16,32 16,31 16,30 16,29 16,28 16,27 17,27 17,26 17,25 17,24 18,24 18,23 18,22 19,22 19,21 19,20 20,20 21,20 21,19 22,19 22,18 23,18 24,18 24,17 25,17 26,17 27,17 27,16" fill="none" stroke="#f2e45c" stroke-width="3" stroke-linecap="round" stroke-linejoin="round" opacity="0.95">
    <title>5723 e:1</title>
  </polyline>
  <polyline points="25,17 26,17 27,17 28,17 29,17 30,17 30,18 31,18 32,18 33,18 34,19 35,19 36,19 37,19 38,19 39,19 40,19 42,19 45,20 46,20 47,20 48,20 49,20 50,20 51,20 52,20 53,20 54,20 55,20 56,20 57,20 58,20 59,20 61,20 62,20 63,20 64,20 65,20 66,20 67,20 68,20 69,20" fill="none" stroke="#7c3cff" stroke-width="3" stroke-linecap="round" stroke-linejoin="round" opacity="0.95">
    <title>6416 g:1</title>
  </polyline>
  <polyline points="76,35 76,36 75,36 75,37 74,37 73,37 73,38 72,38 71,38 70,38 69,38 68,38 67,38 66,38 66,37 65,37 64,37 63,37 63,36 62,36 61,36 61,35 61,34 61,33 61,32 61,31 61,30 61,29 62,29 62,28 62,27 62,26 63,26 63,25 63,24 64,24 64,23 64,22 65,22 66,22 66,21 67,21 67,20 68,20 69,20 69,19 70,19 71,19 72,19 72,18" fill="none" stroke="#f2e45c" stroke-width="3" stroke-linecap="round" stroke-linejoin="round" opacity="0.95">
    <title>5724 e:1</title>
  </polyline>
</svg>
