<?xml version="1.0" encoding="UTF-8"?>
<svg xmlns="http://www.w3.org/2000/svg" width="45" height="57" viewBox="0 0 45 57">
  <title>particle img5-m61-p4 n:1</title>
  <metadata>{&quot;entityType&quot;:&quot;particle&quot;,&quot;entityId&quot;:&quot;img5-m61-p4&quot;,&quot;token&quot;:&quot;n:1&quot;,&quot;signature&quot;:&quot;n:1&quot;,&quot;imageName&quot;:&quot;page-005.jpg&quot;,&quot;imageId&quot;:5,&quot;bounds&quot;:{&quot;x&quot;:565,&quot;y&quot;:2530,&quot;w&quot;:45,&quot;h&quot;:57},&quot;atoms&quot;:[{&quot;id&quot;:6495,&quot;token&quot;:&quot;n:1&quot;,&quot;particle_id&quot;:&quot;img5-m61-p4&quot;,&quot;molecule_id&quot;:&quot;img5-m61&quot;,&quot;atom_order&quot;:1}]}</metadata>
  <rect x="0" y="0" width="45" height="57" fill="#f8f0d8"/>
  <image href="file:///C:/Users/HHHES/AppData/Roaming/com.voynichlab.datasetcreator/images/1/a6cd3b6e-2a78-4b30-a4be-5d186aea258e.jpg" x="-565" y="-2530" width="2691" height="3770" opacity="0.92"/>
  <rect x="0.5" y="0.5" width="44" height="56" fill="none" stroke="#111827" stroke-width="1" opacity="0.35"/>
  <polyline points="16,35 16,34 16,33 16,31 16,30 16,29 16,28 16,27 17,26 17,25 18,24 18,23 19,22 19,21 20,20 20,19 21,18 22,18 22,17 23,17 24,16 25,16 26,16 27,17 27,18 28,18 28,19 29,20 29,21 29,22 29,23 29,24 29,25 29,26 29,27 29,28 29,29 29,30 28,31 28,33 28,34 27,35 27,36 26,37 26,38 25,39 25,40 25,41" fill="none" stroke="#f92f59" stroke-width="3" stroke-linecap="round" stroke-linejoin="round" opacity="0.95">
    <title>6495 n:1</title>
  </polyline>
</svg>
