<?xml version="1.0" encoding="UTF-8"?>
<svg xmlns="http://www.w3.org/2000/svg" width="54" height="67" viewBox="0 0 54 67">
  <title>particle img5-m33-p2 e:1 c:1 h:2</title>
  <metadata>{&quot;entityType&quot;:&quot;particle&quot;,&quot;entityId&quot;:&quot;img5-m33-p2&quot;,&quot;token&quot;:&quot;e:1 c:1 h:2&quot;,&quot;signature&quot;:&quot;e:1 c:1 h:2&quot;,&quot;imageName&quot;:&quot;page-005.jpg&quot;,&quot;imageId&quot;:5,&quot;bounds&quot;:{&quot;x&quot;:1050,&quot;y&quot;:820,&quot;w&quot;:54,&quot;h&quot;:67},&quot;atoms&quot;:[{&quot;id&quot;:5711,&quot;token&quot;:&quot;e:1&quot;,&quot;particle_id&quot;:&quot;img5-m33-p2&quot;,&quot;molecule_id&quot;:&quot;img5-m33&quot;,&quot;atom_order&quot;:1},{&quot;id&quot;:5714,&quot;token&quot;:&quot;c:1&quot;,&quot;particle_id&quot;:&quot;img5-m33-p2&quot;,&quot;molecule_id&quot;:&quot;img5-m33&quot;,&quot;atom_order&quot;:2},{&quot;id&quot;:6077,&quot;token&quot;:&quot;h:2&quot;,&quot;particle_id&quot;:&quot;img5-m33-p2&quot;,&quot;molecule_id&quot;:&quot;img5-m33&quot;,&quot;atom_order&quot;:3}]}</metadata>
  <rect x="0" y="0" width="54" height="67" fill="#f8f0d8"/>
  <image href="file:///C:/Users/HHHES/AppData/Roaming/com.voynichlab.datasetcreator/images/1/a6cd3b6e-2a78-4b30-a4be-5d186aea258e.jpg" x="-1050" y="-820" width="2691" height="3770" opacity="0.92"/>
  <rect x="0.5" y="0.5" width="53" height="66" fill="none" stroke="#111827" stroke-width="1" opacity="0.35"/>
  <polyline points="31,48 31,49 30,49 30,50 29,50 28,50 28,51 27,51 26,51 25,51 24,51 23,51 22,51 21,51 21,50 20,50 19,50 18,50 18,49 17,49 16,49 16,48 16,47 16,46 16,45 16,44 16,43 16,42 17,42 17,41 17,40 17,39 18,39 18,38 18,37 19,37 19,36 19,35 20,35 21,35 21,34 22,34 22,33 23,33 24,33 24,32 25,32 26,32 27,32 27,31" fill="none" stroke="#f2e45c" stroke-width="3" stroke-linecap="round" stroke-linejoin="round" opacity="0.95">
    <title>5711 e:1</title>
  </polyline>
  <polyline points="31,29 32,29 33,29 33,28 34,28 34,27 35,27 35,26 36,26 37,25 37,24 38,24 38,23 38,22 38,21 38,20 38,19 37,19 37,18 36,18 35,18 34,18 34,17 33,17 32,17 31,17 30,17 29,16 28,16 27,16 26,16 25,16 24,16 23,16 22,16 22,17 21,17 21,18 21,19 21,20 21,21 21,22 21,23 22,23 22,24 23,24 23,25 24,25 25,25 26,26 27,26 27,27 28,27 29,27 30,28 31,28 32,28 33,28 34,28" fill="none" stroke="#8aff00" stroke-width="3" stroke-linecap="round" stroke-linejoin="round" opacity="0.95">
    <title>5714 c:1</title>
  </polyline>
  <polyline points="28,51 28,50 29,50 30,50 30,49 31,49 31,48 32,48 33,47 34,46 34,45 35,44 35,43 35,42 35,41 35,40 34,39 33,38 32,37 32,36 31,36 31,35 30,34 29,34 29,33 28,33 27,32 27,31 26,31 26,30 25,30 25,29 24,28 24,27 23,26 23,25 22,25 22,24 22,23 22,22 22,21 22,20 22,19 22,18 23,17 24,16 25,16 26,16" fill="none" stroke="#ff8c00" stroke-width="3" stroke-linecap="round" stroke-linejoin="round" opacity="0.95">
    <title>6077 h:2</title>
  </polyline>
</svg>
