<?xml version="1.0" encoding="UTF-8"?>
<svg xmlns="http://www.w3.org/2000/svg" width="54" height="73" viewBox="0 0 54 73">
  <title>particle img5-m11-p4 f:1 i:1 d:1</title>
  <metadata>{&quot;entityType&quot;:&quot;particle&quot;,&quot;entityId&quot;:&quot;img5-m11-p4&quot;,&quot;token&quot;:&quot;f:1 i:1 d:1&quot;,&quot;signature&quot;:&quot;f:1 i:1 d:1&quot;,&quot;imageName&quot;:&quot;page-005.jpg&quot;,&quot;imageId&quot;:5,&quot;bounds&quot;:{&quot;x&quot;:1136,&quot;y&quot;:562,&quot;w&quot;:54,&quot;h&quot;:73},&quot;atoms&quot;:[{&quot;id&quot;:6114,&quot;token&quot;:&quot;f:1&quot;,&quot;particle_id&quot;:&quot;img5-m11-p4&quot;,&quot;molecule_id&quot;:&quot;img5-m11&quot;,&quot;atom_order&quot;:1},{&quot;id&quot;:6249,&quot;token&quot;:&quot;i:1&quot;,&quot;particle_id&quot;:&quot;img5-m11-p4&quot;,&quot;molecule_id&quot;:&quot;img5-m11&quot;,&quot;atom_order&quot;:2},{&quot;id&quot;:6322,&quot;token&quot;:&quot;d:1&quot;,&quot;particle_id&quot;:&quot;img5-m11-p4&quot;,&quot;molecule_id&quot;:&quot;img5-m11&quot;,&quot;atom_order&quot;:3}]}</metadata>
  <rect x="0" y="0" width="54" height="73" fill="#f8f0d8"/>
  <image href="file:///C:/Users/HHHES/AppData/Roaming/com.voynichlab.datasetcreator/images/1/a6cd3b6e-2a78-4b30-a4be-5d186aea258e.jpg" x="-1136" y="-562" width="2691" height="3770" opacity="0.92"/>
  <rect x="0.5" y="0.5" width="53" height="72" fill="none" stroke="#111827" stroke-width="1" opacity="0.35"/>
  <polyline points="16,36 16,37 16,38 17,38 17,39 17,40 18,40 18,41 19,42 19,43 20,43 20,44 21,45 21,46 22,46 22,47 23,47 23,48 24,48 24,49 24,50 25,50 25,51 25,52 26,52 26,53 27,53 27,54 28,55 28,56 29,56 29,57" fill="none" stroke="#00a2ff" stroke-width="3" stroke-linecap="round" stroke-linejoin="round" opacity="0.95">
    <title>6114 f:1</title>
  </polyline>
  <polyline points="17,40 18,40 18,39 19,39 20,39 21,38 22,38 23,38 23,37 24,37 25,37 26,36 27,36 28,35 29,35 29,34 30,34 31,33 32,33 32,32 33,32 33,31 34,31 34,30 35,29 35,28 36,28 36,27 36,26 36,25 37,25 37,24 37,23 37,22 37,21" fill="none" stroke="#00ff7f" stroke-width="3" stroke-linecap="round" stroke-linejoin="round" opacity="0.95">
    <title>6249 i:1</title>
  </polyline>
  <polyline points="16,20 16,19 17,19 18,18 19,18 20,17 21,17 22,16 23,16 24,16 25,16 26,16 27,16 28,16 29,16 30,16 31,17 32,17 32,18 33,18 35,19 36,20 37,20 37,21 38,22 38,23 38,24 38,25" fill="none" stroke="#ff2d55" stroke-width="3" stroke-linecap="round" stroke-linejoin="round" opacity="0.95">
    <title>6322 d:1</title>
  </polyline>
</svg>
