<?xml version="1.0" encoding="UTF-8"?>
<svg xmlns="http://www.w3.org/2000/svg" width="55" height="84" viewBox="0 0 55 84">
  <title>particle img5-m95-p3 f:1 i:1 d:1</title>
  <metadata>{&quot;entityType&quot;:&quot;particle&quot;,&quot;entityId&quot;:&quot;img5-m95-p3&quot;,&quot;token&quot;:&quot;f:1 i:1 d:1&quot;,&quot;signature&quot;:&quot;f:1 i:1 d:1&quot;,&quot;imageName&quot;:&quot;page-005.jpg&quot;,&quot;imageId&quot;:5,&quot;bounds&quot;:{&quot;x&quot;:842,&quot;y&quot;:2774,&quot;w&quot;:55,&quot;h&quot;:84},&quot;atoms&quot;:[{&quot;id&quot;:6203,&quot;token&quot;:&quot;f:1&quot;,&quot;particle_id&quot;:&quot;img5-m95-p3&quot;,&quot;molecule_id&quot;:&quot;img5-m95&quot;,&quot;atom_order&quot;:1},{&quot;id&quot;:6304,&quot;token&quot;:&quot;i:1&quot;,&quot;particle_id&quot;:&quot;img5-m95-p3&quot;,&quot;molecule_id&quot;:&quot;img5-m95&quot;,&quot;atom_order&quot;:2},{&quot;id&quot;:6372,&quot;token&quot;:&quot;d:1&quot;,&quot;particle_id&quot;:&quot;img5-m95-p3&quot;,&quot;molecule_id&quot;:&quot;img5-m95&quot;,&quot;atom_order&quot;:3}]}</metadata>
  <rect x="0" y="0" width="55" height="84" fill="#f8f0d8"/>
  <image href="file:///C:/Users/HHHES/AppData/Roaming/com.voynichlab.datasetcreator/images/1/a6cd3b6e-2a78-4b30-a4be-5d186aea258e.jpg" x="-842" y="-2774" width="2691" height="3770" opacity="0.92"/>
  <rect x="0.5" y="0.5" width="54" height="83" fill="none" stroke="#111827" stroke-width="1" opacity="0.35"/>
  <polyline points="20,47 20,48 20,49 21,49 21,50 21,51 22,51 22,52 23,53 23,54 24,54 24,55 25,56 25,57 26,57 26,58 27,58 27,59 28,59 28,60 28,61 29,61 29,62 29,63 30,63 30,64 31,64 31,65 32,66 32,67 33,67 33,68" fill="none" stroke="#00a2ff" stroke-width="3" stroke-linecap="round" stroke-linejoin="round" opacity="0.95">
    <title>6203 f:1</title>
  </polyline>
  <polyline points="22,53 23,52 24,51 25,51 26,50 27,50 27,49 28,48 29,48 29,47 30,47 31,46 32,46 32,45 33,45 33,44 34,43 34,42 35,42 35,41 36,40 36,39 37,38 37,37 38,36 38,35 38,34 38,33 38,32 38,31 38,30 38,29 38,28 38,27 38,25 37,24 37,23 37,22" fill="none" stroke="#00ff7f" stroke-width="3" stroke-linecap="round" stroke-linejoin="round" opacity="0.95">
    <title>6304 i:1</title>
  </polyline>
  <polyline points="16,20 17,19 18,18 19,18 19,17 20,17 21,16 22,16 23,16 24,16 25,16 26,16 27,16 28,16 29,17 30,17 31,17 31,18 32,18 33,19 34,19 34,20 35,20 35,21 36,21 36,22 37,22 37,23 38,23 38,24 38,25 38,26 39,26 39,27" fill="none" stroke="#ff2d55" stroke-width="3" stroke-linecap="round" stroke-linejoin="round" opacity="0.95">
    <title>6372 d:1</title>
  </polyline>
</svg>
