<?xml version="1.0" encoding="UTF-8"?>
<svg xmlns="http://www.w3.org/2000/svg" width="78" height="53" viewBox="0 0 78 53">
  <title>particle img5-m23-p1 e:1 g:1 e:1</title>
  <metadata>{&quot;entityType&quot;:&quot;particle&quot;,&quot;entityId&quot;:&quot;img5-m23-p1&quot;,&quot;token&quot;:&quot;e:1 g:1 e:1&quot;,&quot;signature&quot;:&quot;e:1 g:1 e:1&quot;,&quot;imageName&quot;:&quot;page-005.jpg&quot;,&quot;imageId&quot;:5,&quot;bounds&quot;:{&quot;x&quot;:1004,&quot;y&quot;:756,&quot;w&quot;:78,&quot;h&quot;:53},&quot;atoms&quot;:[{&quot;id&quot;:5701,&quot;token&quot;:&quot;e:1&quot;,&quot;particle_id&quot;:&quot;img5-m23-p1&quot;,&quot;molecule_id&quot;:&quot;img5-m23&quot;,&quot;atom_order&quot;:1},{&quot;id&quot;:6411,&quot;token&quot;:&quot;g:1&quot;,&quot;particle_id&quot;:&quot;img5-m23-p1&quot;,&quot;molecule_id&quot;:&quot;img5-m23&quot;,&quot;atom_order&quot;:2},{&quot;id&quot;:5700,&quot;token&quot;:&quot;e:1&quot;,&quot;particle_id&quot;:&quot;img5-m23-p1&quot;,&quot;molecule_id&quot;:&quot;img5-m23&quot;,&quot;atom_order&quot;:3}]}</metadata>
  <rect x="0" y="0" width="78" height="53" fill="#f8f0d8"/>
  <image href="file:///C:/Users/HHHES/AppData/Roaming/com.voynichlab.datasetcreator/images/1/a6cd3b6e-2a78-4b30-a4be-5d186aea258e.jpg" x="-1004" y="-756" width="2691" height="3770" opacity="0.92"/>
  <rect x="0.5" y="0.5" width="77" height="52" fill="none" stroke="#111827" stroke-width="1" opacity="0.35"/>
  <polyline points="31,33 31,34 30,34 30,35 29,35 28,35 28,36 27,36 26,36 25,36 24,36 23,36 22,36 21,36 21,35 20,35 19,35 18,35 18,34 17,34 16,34 16,33 16,32 16,31 16,30 16,29 16,28 16,27 17,27 17,26 17,25 17,24 18,24 18,23 18,22 19,22 19,21 19,20 20,20 21,20 21,19 22,19 22,18 23,18 24,18 24,17 25,17 26,17 27,17 27,16" fill="none" stroke="#f2e45c" stroke-width="3" stroke-linecap="round" stroke-linejoin="round" opacity="0.95">
    <title>5701 e:1</title>
  </polyline>
  <polyline points="24,17 25,17 26,17 27,17 28,17 29,17 30,17 31,17 32,17 33,17 34,17 35,17 36,17 37,17 38,17 39,17 40,17 41,17 42,17 43,18 44,18 45,18 46,18 47,18 48,18 49,18 50,18 51,18 52,18 53,18 54,18 55,18 56,18 57,18" fill="none" stroke="#7c3cff" stroke-width="3" stroke-linecap="round" stroke-linejoin="round" opacity="0.95">
    <title>6411 g:1</title>
  </polyline>
  <polyline points="62,34 62,35 61,35 61,36 60,36 59,36 59,37 58,37 57,37 56,37 55,37 54,37 53,37 52,37 52,36 51,36 50,36 49,36 49,35 48,35 47,35 47,34 47,33 47,32 47,31 47,30 47,29 47,28 48,28 48,27 48,26 48,25 49,25 49,24 49,23 50,23 50,22 50,21 51,21 52,21 52,20 53,20 53,19 54,19 55,19 55,18 56,18 57,18 58,18 58,17" fill="none" stroke="#f2e45c" stroke-width="3" stroke-linecap="round" stroke-linejoin="round" opacity="0.95">
    <title>5700 e:1</title>
  </polyline>
</svg>
