<?xml version="1.0" encoding="UTF-8"?>
<svg xmlns="http://www.w3.org/2000/svg" width="53" height="69" viewBox="0 0 53 69">
  <title>particle img5-m57-p5 e:1 c:1 h:2</title>
  <metadata>{&quot;entityType&quot;:&quot;particle&quot;,&quot;entityId&quot;:&quot;img5-m57-p5&quot;,&quot;token&quot;:&quot;e:1 c:1 h:2&quot;,&quot;signature&quot;:&quot;e:1 c:1 h:2&quot;,&quot;imageName&quot;:&quot;page-005.jpg&quot;,&quot;imageId&quot;:5,&quot;bounds&quot;:{&quot;x&quot;:1354,&quot;y&quot;:2473,&quot;w&quot;:53,&quot;h&quot;:69},&quot;atoms&quot;:[{&quot;id&quot;:5775,&quot;token&quot;:&quot;e:1&quot;,&quot;particle_id&quot;:&quot;img5-m57-p5&quot;,&quot;molecule_id&quot;:&quot;img5-m57&quot;,&quot;atom_order&quot;:1},{&quot;id&quot;:6017,&quot;token&quot;:&quot;c:1&quot;,&quot;particle_id&quot;:&quot;img5-m57-p5&quot;,&quot;molecule_id&quot;:&quot;img5-m57&quot;,&quot;atom_order&quot;:2},{&quot;id&quot;:6090,&quot;token&quot;:&quot;h:2&quot;,&quot;particle_id&quot;:&quot;img5-m57-p5&quot;,&quot;molecule_id&quot;:&quot;img5-m57&quot;,&quot;atom_order&quot;:3}]}</metadata>
  <rect x="0" y="0" width="53" height="69" fill="#f8f0d8"/>
  <image href="file:///C:/Users/HHHES/AppData/Roaming/com.voynichlab.datasetcreator/images/1/a6cd3b6e-2a78-4b30-a4be-5d186aea258e.jpg" x="-1354" y="-2473" width="2691" height="3770" opacity="0.92"/>
  <rect x="0.5" y="0.5" width="52" height="68" fill="none" stroke="#111827" stroke-width="1" opacity="0.35"/>
  <polyline points="31,50 31,51 30,51 30,52 29,52 28,52 28,53 27,53 26,53 25,53 24,53 23,53 22,53 21,53 21,52 20,52 19,52 18,52 18,51 17,51 16,51 16,50 16,49 16,48 16,47 16,46 16,45 16,44 17,44 17,43 17,42 17,41 18,41 18,40 18,39 19,39 19,38 19,37 20,37 21,37 21,36 22,36 22,35 23,35 24,35 24,34 25,34 26,34 27,34 27,33" fill="none" stroke="#f2e45c" stroke-width="3" stroke-linecap="round" stroke-linejoin="round" opacity="0.95">
    <title>5775 e:1</title>
  </polyline>
  <polyline points="31,29 32,29 33,29 33,28 34,28 35,28 35,27 35,26 36,26 36,25 37,24 37,23 37,22 37,21 37,20 37,19 36,18 35,17 34,17 34,16 33,16 32,16 31,16 30,16 29,16 28,16 28,17 27,17 26,17 25,18 24,18 24,19 23,20 23,21 23,22 23,23 23,24 23,25 23,26 24,27 25,27 25,28 26,28 27,28 28,29 29,29 30,29 31,29 32,29 33,29 34,29" fill="none" stroke="#8aff00" stroke-width="3" stroke-linecap="round" stroke-linejoin="round" opacity="0.95">
    <title>6017 c:1</title>
  </polyline>
  <polyline points="29,53 29,52 30,52 31,52 31,51 32,51 32,50 33,50 34,49 35,48 35,47 36,46 36,45 36,44 36,43 36,42 35,41 34,40 33,39 33,38 32,38 32,37 31,36 30,36 30,35 29,35 28,34 28,33 27,33 27,32 26,32 26,31 25,30 25,29 24,28 24,27 23,27 23,26 23,25 23,24 23,23 23,22 23,21 23,20 24,19 25,18 26,18 27,18" fill="none" stroke="#ff8c00" stroke-width="3" stroke-linecap="round" stroke-linejoin="round" opacity="0.95">
    <title>6090 h:2</title>
  </polyline>
</svg>
