<?xml version="1.0" encoding="UTF-8"?>
<svg xmlns="http://www.w3.org/2000/svg" width="46" height="54" viewBox="0 0 46 54">
  <title>particle img5-m13-p1 n:1</title>
  <metadata>{&quot;entityType&quot;:&quot;particle&quot;,&quot;entityId&quot;:&quot;img5-m13-p1&quot;,&quot;token&quot;:&quot;n:1&quot;,&quot;signature&quot;:&quot;n:1&quot;,&quot;imageName&quot;:&quot;page-005.jpg&quot;,&quot;imageId&quot;:5,&quot;bounds&quot;:{&quot;x&quot;:1371,&quot;y&quot;:573,&quot;w&quot;:46,&quot;h&quot;:54},&quot;atoms&quot;:[{&quot;id&quot;:6485,&quot;token&quot;:&quot;n:1&quot;,&quot;particle_id&quot;:&quot;img5-m13-p1&quot;,&quot;molecule_id&quot;:&quot;img5-m13&quot;,&quot;atom_order&quot;:1}]}</metadata>
  <rect x="0" y="0" width="46" height="54" fill="#f8f0d8"/>
  <image href="file:///C:/Users/HHHES/AppData/Roaming/com.voynichlab.datasetcreator/images/1/a6cd3b6e-2a78-4b30-a4be-5d186aea258e.jpg" x="-1371" y="-573" width="2691" height="3770" opacity="0.92"/>
  <rect x="0.5" y="0.5" width="45" height="53" fill="none" stroke="#111827" stroke-width="1" opacity="0.35"/>
  <polyline points="16,32 16,31 17,30 17,29 18,28 18,27 18,26 19,25 19,24 20,23 20,22 21,21 21,20 21,19 22,19 22,18 22,17 23,17 24,16 25,16 26,16 27,16 28,16 28,17 29,17 29,18 29,19 29,20 30,21 30,22 30,23 30,24 30,25 30,26 30,27 30,28 30,30 29,30 29,32 28,33 28,34 28,35 28,36 27,36 27,37 26,37 26,38" fill="none" stroke="#f92f59" stroke-width="3" stroke-linecap="round" stroke-linejoin="round" opacity="0.95">
    <title>6485 n:1</title>
  </polyline>
</svg>
