<?xml version="1.0" encoding="UTF-8"?>
<svg xmlns="http://www.w3.org/2000/svg" width="56" height="81" viewBox="0 0 56 81">
  <title>particle img5-m67-p5 e:1 h:1</title>
  <metadata>{&quot;entityType&quot;:&quot;particle&quot;,&quot;entityId&quot;:&quot;img5-m67-p5&quot;,&quot;token&quot;:&quot;e:1 h:1&quot;,&quot;signature&quot;:&quot;e:1 h:1&quot;,&quot;imageName&quot;:&quot;page-005.jpg&quot;,&quot;imageId&quot;:5,&quot;bounds&quot;:{&quot;x&quot;:1340,&quot;y&quot;:2571,&quot;w&quot;:56,&quot;h&quot;:81},&quot;atoms&quot;:[{&quot;id&quot;:5778,&quot;token&quot;:&quot;e:1&quot;,&quot;particle_id&quot;:&quot;img5-m67-p5&quot;,&quot;molecule_id&quot;:&quot;img5-m67&quot;,&quot;atom_order&quot;:1},{&quot;id&quot;:5927,&quot;token&quot;:&quot;h:1&quot;,&quot;particle_id&quot;:&quot;img5-m67-p5&quot;,&quot;molecule_id&quot;:&quot;img5-m67&quot;,&quot;atom_order&quot;:2}]}</metadata>
  <rect x="0" y="0" width="56" height="81" fill="#f8f0d8"/>
  <image href="file:///C:/Users/HHHES/AppData/Roaming/com.voynichlab.datasetcreator/images/1/a6cd3b6e-2a78-4b30-a4be-5d186aea258e.jpg" x="-1340" y="-2571" width="2691" height="3770" opacity="0.92"/>
  <rect x="0.5" y="0.5" width="55" height="80" fill="none" stroke="#111827" stroke-width="1" opacity="0.35"/>
  <polyline points="31,33 31,34 30,34 30,35 29,35 28,35 28,36 27,36 26,36 25,36 24,36 23,36 22,36 21,36 21,35 20,35 19,35 18,35 18,34 17,34 16,34 16,33 16,32 16,31 16,30 16,29 16,28 16,27 17,27 17,26 17,25 17,24 18,24 18,23 18,22 19,22 19,21 19,20 20,20 21,20 21,19 22,19 22,18 23,18 24,18 24,17 25,17 26,17 27,17 27,16" fill="none" stroke="#f2e45c" stroke-width="3" stroke-linecap="round" stroke-linejoin="round" opacity="0.95">
    <title>5778 e:1</title>
  </polyline>
  <polyline points="26,17 27,17 28,17 28,18 29,18 30,18 30,19 31,19 31,20 32,20 32,21 33,22 34,23 34,24 35,24 35,25 35,26 36,27 36,28 36,29 37,29 37,30 38,31 38,32 38,33 39,35 39,36 39,37 39,38 39,39 40,41 40,42 40,43 40,44 40,46 40,47 39,48 39,50 39,51 39,52 39,53 39,55 38,57 38,58 38,59 37,60 37,61 36,61 36,62 35,63 35,64 35,65" fill="none" stroke="#ff8c00" stroke-width="3" stroke-linecap="round" stroke-linejoin="round" opacity="0.95">
    <title>5927 h:1</title>
  </polyline>
</svg>
