<?xml version="1.0" encoding="UTF-8"?>
<svg xmlns="http://www.w3.org/2000/svg" width="65" height="96" viewBox="0 0 65 96">
  <title>particle img5-m40-p2 a:1 b:1 c:1 a:1</title>
  <metadata>{&quot;entityType&quot;:&quot;particle&quot;,&quot;entityId&quot;:&quot;img5-m40-p2&quot;,&quot;token&quot;:&quot;a:1 b:1 c:1 a:1&quot;,&quot;signature&quot;:&quot;a:1 b:1 c:1 a:1&quot;,&quot;imageName&quot;:&quot;page-005.jpg&quot;,&quot;imageId&quot;:5,&quot;bounds&quot;:{&quot;x&quot;:1033,&quot;y&quot;:866,&quot;w&quot;:65,&quot;h&quot;:96},&quot;atoms&quot;:[{&quot;id&quot;:5554,&quot;token&quot;:&quot;a:1&quot;,&quot;particle_id&quot;:&quot;img5-m40-p2&quot;,&quot;molecule_id&quot;:&quot;img5-m40&quot;,&quot;atom_order&quot;:1},{&quot;id&quot;:5571,&quot;token&quot;:&quot;b:1&quot;,&quot;particle_id&quot;:&quot;img5-m40-p2&quot;,&quot;molecule_id&quot;:&quot;img5-m40&quot;,&quot;atom_order&quot;:2},{&quot;id&quot;:6278,&quot;token&quot;:&quot;c:1&quot;,&quot;particle_id&quot;:&quot;img5-m40-p2&quot;,&quot;molecule_id&quot;:&quot;img5-m40&quot;,&quot;atom_order&quot;:3},{&quot;id&quot;:5555,&quot;token&quot;:&quot;a:1&quot;,&quot;particle_id&quot;:&quot;img5-m40-p2&quot;,&quot;molecule_id&quot;:&quot;img5-m40&quot;,&quot;atom_order&quot;:4}]}</metadata>
  <rect x="0" y="0" width="65" height="96" fill="#f8f0d8"/>
  <image href="file:///C:/Users/HHHES/AppData/Roaming/com.voynichlab.datasetcreator/images/1/a6cd3b6e-2a78-4b30-a4be-5d186aea258e.jpg" x="-1033" y="-866" width="2691" height="3770" opacity="0.92"/>
  <rect x="0.5" y="0.5" width="64" height="95" fill="none" stroke="#111827" stroke-width="1" opacity="0.35"/>
  <polyline points="19,21 19,22 19,23 19,24 18,26 18,27 18,28 18,30 18,31 18,32 18,33 18,34 17,35 17,36 17,37 17,39 17,40 17,41 17,42 17,44 17,46 17,47 17,48 17,49 17,50 17,51 18,52 18,53 18,54 18,55 18,56 18,57 18,58 18,59 18,60 17,61 17,62 17,63 17,64 17,65 17,67 17,68 17,69 17,70 17,71 17,72 17,73 16,74 16,75 16,76 16,77 16,78 16,79 16,80" fill="none" stroke="#00f0b5" stroke-width="3" stroke-linecap="round" stroke-linejoin="round" opacity="0.95">
    <title>5554 a:1</title>
  </polyline>
  <polyline points="17,33 17,34 18,34 19,35 20,35 21,36 22,36 23,37 25,37 26,37 27,37 28,37 29,37 30,37 31,37 32,37 33,37 34,37 35,37 36,37 37,37 38,36 39,36 40,36 41,35 42,35 43,35 43,34 44,34 45,33 45,32 46,32 46,31 47,31 47,30 48,30 49,30 49,29" fill="none" stroke="#2f7df6" stroke-width="3" stroke-linecap="round" stroke-linejoin="round" opacity="0.95">
    <title>5571 b:1</title>
  </polyline>
  <polyline points="31,22 31,23 30,23 30,24 30,25 29,25 29,26 29,27 29,28 29,29 29,30 29,31 29,32 30,32 30,33 31,33 31,34 32,35 33,35 34,35 35,35 35,36 36,36 37,36 38,36 39,36 40,36 41,36 42,36 43,36 43,35 44,35 45,35 45,34 45,33 46,33 46,32 47,32 47,31 47,30 48,30 48,29 48,28 49,28 49,27 49,26 49,25 49,24 49,23 49,22 48,22 48,21 48,20 47,20 47,19 46,19 46,18 45,18 45,17 44,17 43,17 43,16 42,16 41,16 40,16 39,16 38,16 37,16 36,16 35,17 34,17 34,18 33,18 33,19 32,19 31,19 31,20 30,20 30,21 30,22" fill="none" stroke="#8aff00" stroke-width="3" stroke-linecap="round" stroke-linejoin="round" opacity="0.95">
    <title>6278 c:1</title>
  </polyline>
  <polyline points="33,19 33,20 32,21 32,22 32,23 32,25 31,27 31,28 31,30 31,31 31,32 31,33 31,34 31,35 31,36 31,37 31,38 31,39 31,40 31,41 31,42 30,43 30,44 30,46 30,47 30,48 30,49 30,51 30,52 29,53 29,54 29,55 29,56 29,57 29,58 29,59 29,60 29,61 28,62 28,63 28,64 28,65 28,66 28,67 28,68 28,69 28,70 28,71 28,72 28,73 28,74 28,75 28,76 28,77 28,78 28,79" fill="none" stroke="#00f0b5" stroke-width="3" stroke-linecap="round" stroke-linejoin="round" opacity="0.95">
    <title>5555 a:1</title>
  </polyline>
</svg>
