<?xml version="1.0" encoding="UTF-8"?>
<svg xmlns="http://www.w3.org/2000/svg" width="79" height="55" viewBox="0 0 79 55">
  <title>particle img5-m51-p4 e:1 g:1 e:1</title>
  <metadata>{&quot;entityType&quot;:&quot;particle&quot;,&quot;entityId&quot;:&quot;img5-m51-p4&quot;,&quot;token&quot;:&quot;e:1 g:1 e:1&quot;,&quot;signature&quot;:&quot;e:1 g:1 e:1&quot;,&quot;imageName&quot;:&quot;page-005.jpg&quot;,&quot;imageId&quot;:5,&quot;bounds&quot;:{&quot;x&quot;:1925,&quot;y&quot;:2455,&quot;w&quot;:79,&quot;h&quot;:55},&quot;atoms&quot;:[{&quot;id&quot;:5848,&quot;token&quot;:&quot;e:1&quot;,&quot;particle_id&quot;:&quot;img5-m51-p4&quot;,&quot;molecule_id&quot;:&quot;img5-m51&quot;,&quot;atom_order&quot;:1},{&quot;id&quot;:6433,&quot;token&quot;:&quot;g:1&quot;,&quot;particle_id&quot;:&quot;img5-m51-p4&quot;,&quot;molecule_id&quot;:&quot;img5-m51&quot;,&quot;atom_order&quot;:2},{&quot;id&quot;:5849,&quot;token&quot;:&quot;e:1&quot;,&quot;particle_id&quot;:&quot;img5-m51-p4&quot;,&quot;molecule_id&quot;:&quot;img5-m51&quot;,&quot;atom_order&quot;:3}]}</metadata>
  <rect x="0" y="0" width="79" height="55" fill="#f8f0d8"/>
  <image href="file:///C:/Users/HHHES/AppData/Roaming/com.voynichlab.datasetcreator/images/1/a6cd3b6e-2a78-4b30-a4be-5d186aea258e.jpg" x="-1925" y="-2455" width="2691" height="3770" opacity="0.92"/>
  <rect x="0.5" y="0.5" width="78" height="54" fill="none" stroke="#111827" stroke-width="1" opacity="0.35"/>
  <polyline points="31,36 31,37 30,37 30,38 29,38 28,38 28,39 27,39 26,39 25,39 24,39 23,39 22,39 21,39 21,38 20,38 19,38 18,38 18,37 17,37 16,37 16,36 16,35 16,34 16,33 16,32 16,31 16,30 17,30 17,29 17,28 17,27 18,27 18,26 18,25 19,25 19,24 19,23 20,23 21,23 21,22 22,22 22,21 23,21 24,21 24,20 25,20 26,20 27,20 27,19" fill="none" stroke="#f2e45c" stroke-width="3" stroke-linecap="round" stroke-linejoin="round" opacity="0.95">
    <title>5848 e:1</title>
  </polyline>
  <polyline points="23,20 24,20 25,20 26,20 27,20 28,20 29,20 30,20 31,20 32,19 33,19 34,19 35,19 36,19 38,19 39,19 40,19 41,19 42,19 43,18 44,18 45,18 46,18 48,18 49,18 50,18 51,18 52,18 53,18 54,18 55,17 56,17 57,17 58,17 59,17" fill="none" stroke="#7c3cff" stroke-width="3" stroke-linecap="round" stroke-linejoin="round" opacity="0.95">
    <title>6433 g:1</title>
  </polyline>
  <polyline points="63,33 63,34 62,34 62,35 61,35 60,35 60,36 59,36 58,36 57,36 56,36 55,36 54,36 53,36 53,35 52,35 51,35 50,35 50,34 49,34 48,34 48,33 48,32 48,31 48,30 48,29 48,28 48,27 49,27 49,26 49,25 49,24 50,24 50,23 50,22 51,22 51,21 51,20 52,20 53,20 53,19 54,19 54,18 55,18 56,18 56,17 57,17 58,17 59,17 59,16" fill="none" stroke="#f2e45c" stroke-width="3" stroke-linecap="round" stroke-linejoin="round" opacity="0.95">
    <title>5849 e:1</title>
  </polyline>
</svg>
