<?xml version="1.0" encoding="UTF-8"?>
<svg xmlns="http://www.w3.org/2000/svg" width="56" height="82" viewBox="0 0 56 82">
  <title>particle img5-m80-p1 e:1 c:1 h:2</title>
  <metadata>{&quot;entityType&quot;:&quot;particle&quot;,&quot;entityId&quot;:&quot;img5-m80-p1&quot;,&quot;token&quot;:&quot;e:1 c:1 h:2&quot;,&quot;signature&quot;:&quot;e:1 c:1 h:2&quot;,&quot;imageName&quot;:&quot;page-005.jpg&quot;,&quot;imageId&quot;:5,&quot;bounds&quot;:{&quot;x&quot;:711,&quot;y&quot;:2680,&quot;w&quot;:56,&quot;h&quot;:82},&quot;atoms&quot;:[{&quot;id&quot;:5805,&quot;token&quot;:&quot;e:1&quot;,&quot;particle_id&quot;:&quot;img5-m80-p1&quot;,&quot;molecule_id&quot;:&quot;img5-m80&quot;,&quot;atom_order&quot;:1},{&quot;id&quot;:6054,&quot;token&quot;:&quot;c:1&quot;,&quot;particle_id&quot;:&quot;img5-m80-p1&quot;,&quot;molecule_id&quot;:&quot;img5-m80&quot;,&quot;atom_order&quot;:2},{&quot;id&quot;:6101,&quot;token&quot;:&quot;h:2&quot;,&quot;particle_id&quot;:&quot;img5-m80-p1&quot;,&quot;molecule_id&quot;:&quot;img5-m80&quot;,&quot;atom_order&quot;:3}]}</metadata>
  <rect x="0" y="0" width="56" height="82" fill="#f8f0d8"/>
  <image href="file:///C:/Users/HHHES/AppData/Roaming/com.voynichlab.datasetcreator/images/1/a6cd3b6e-2a78-4b30-a4be-5d186aea258e.jpg" x="-711" y="-2680" width="2691" height="3770" opacity="0.92"/>
  <rect x="0.5" y="0.5" width="55" height="81" fill="none" stroke="#111827" stroke-width="1" opacity="0.35"/>
  <polyline points="31,61 31,62 30,62 30,63 29,63 28,63 28,64 27,64 26,64 25,64 24,64 23,64 22,64 21,64 21,63 20,63 19,63 18,63 18,62 17,62 16,62 16,61 16,60 16,59 16,58 16,57 16,56 16,55 17,55 17,54 17,53 17,52 18,52 18,51 18,50 19,50 19,49 19,48 20,48 21,48 21,47 22,47 22,46 23,46 24,46 24,45 25,45 26,45 27,45 27,44" fill="none" stroke="#f2e45c" stroke-width="3" stroke-linecap="round" stroke-linejoin="round" opacity="0.95">
    <title>5805 e:1</title>
  </polyline>
  <polyline points="22,22 22,23 21,23 21,24 21,25 20,25 20,26 20,27 20,28 20,29 20,30 20,31 20,32 21,32 21,33 22,33 22,34 23,35 24,35 25,35 26,35 26,36 27,36 28,36 29,36 30,36 31,36 32,36 33,36 34,36 34,35 35,35 36,35 36,34 36,33 37,33 37,32 38,32 38,31 38,30 39,30 39,29 39,28 40,28 40,27 40,26 40,25 40,24 40,23 40,22 39,22 39,21 39,20 38,20 38,19 37,19 37,18 36,18 36,17 35,17 34,17 34,16 33,16 32,16 31,16 30,16 29,16 28,16 27,16 26,17 25,17 25,18 24,18 24,19 23,19 22,19 22,20 21,20 21,21 21,22" fill="none" stroke="#8aff00" stroke-width="3" stroke-linecap="round" stroke-linejoin="round" opacity="0.95">
    <title>6054 c:1</title>
  </polyline>
  <polyline points="27,66 27,65 28,65 29,65 29,64 30,64 30,63 31,63 32,62 33,61 33,60 34,59 34,58 34,57 34,56 34,55 33,54 32,53 31,52 31,51 30,51 30,50 29,49 28,49 28,48 27,48 26,47 26,46 25,46 25,45 24,45 24,44 23,43 23,42 22,41 22,40 21,40 21,39 21,38 21,37 21,36 21,35 21,34 21,33 22,32 23,31 24,31 25,31" fill="none" stroke="#ff8c00" stroke-width="3" stroke-linecap="round" stroke-linejoin="round" opacity="0.95">
    <title>6101 h:2</title>
  </polyline>
</svg>
