<?xml version="1.0" encoding="UTF-8"?>
<svg xmlns="http://www.w3.org/2000/svg" width="96" height="73" viewBox="0 0 96 73">
  <title>particle img5-m5-p3 k:1 f:1 i:1 d:1</title>
  <metadata>{&quot;entityType&quot;:&quot;particle&quot;,&quot;entityId&quot;:&quot;img5-m5-p3&quot;,&quot;token&quot;:&quot;k:1 f:1 i:1 d:1&quot;,&quot;signature&quot;:&quot;k:1 f:1 i:1 d:1&quot;,&quot;imageName&quot;:&quot;page-005.jpg&quot;,&quot;imageId&quot;:5,&quot;bounds&quot;:{&quot;x&quot;:932,&quot;y&quot;:487,&quot;w&quot;:96,&quot;h&quot;:73},&quot;atoms&quot;:[{&quot;id&quot;:6217,&quot;token&quot;:&quot;k:1&quot;,&quot;particle_id&quot;:&quot;img5-m5-p3&quot;,&quot;molecule_id&quot;:&quot;img5-m5&quot;,&quot;atom_order&quot;:1},{&quot;id&quot;:6107,&quot;token&quot;:&quot;f:1&quot;,&quot;particle_id&quot;:&quot;img5-m5-p3&quot;,&quot;molecule_id&quot;:&quot;img5-m5&quot;,&quot;atom_order&quot;:2},{&quot;id&quot;:6243,&quot;token&quot;:&quot;i:1&quot;,&quot;particle_id&quot;:&quot;img5-m5-p3&quot;,&quot;molecule_id&quot;:&quot;img5-m5&quot;,&quot;atom_order&quot;:3},{&quot;id&quot;:6317,&quot;token&quot;:&quot;d:1&quot;,&quot;particle_id&quot;:&quot;img5-m5-p3&quot;,&quot;molecule_id&quot;:&quot;img5-m5&quot;,&quot;atom_order&quot;:4}]}</metadata>
  <rect x="0" y="0" width="96" height="73" fill="#f8f0d8"/>
  <image href="file:///C:/Users/HHHES/AppData/Roaming/com.voynichlab.datasetcreator/images/1/a6cd3b6e-2a78-4b30-a4be-5d186aea258e.jpg" x="-932" y="-487" width="2691" height="3770" opacity="0.92"/>
  <rect x="0.5" y="0.5" width="95" height="72" fill="none" stroke="#111827" stroke-width="1" opacity="0.35"/>
  <polyline points="16,39 16,40 17,41 17,42 17,43 17,44 18,45 18,46 19,47 19,48 20,49 21,50 21,51 22,51 23,52 23,53 24,53 25,54 25,55 26,55 27,55 27,56 27,57 28,57 28,56 29,55 30,54 30,53 31,52 31,51 31,50 32,50 33,49 33,48 34,47 35,46 35,45 36,44 37,43 37,42 37,41 37,42 38,43 38,44 38,45 39,45 39,46 39,47 40,48 40,49 41,49 41,50 41,51 42,51 42,52 43,53 43,54 43,55 44,55 45,55 45,54 45,53 46,52 46,51 47,51 47,50 47,49 48,49 48,48 49,47 49,46 50,46 50,45 51,44 52,43 53,42 53,41 54,41 54,40 54,39 55,39 55,38" fill="none" stroke="#ffffff" stroke-width="3" stroke-linecap="round" stroke-linejoin="round" opacity="0.95">
    <title>6217 k:1</title>
  </polyline>
  <polyline points="53,35 53,36 53,37 54,37 54,38 54,39 55,39 55,40 56,41 56,42 57,42 57,43 58,44 58,45 59,45 59,46 60,46 60,47 61,47 61,48 61,49 62,49 62,50 62,51 63,51 63,52 64,52 64,53 65,54 65,55 66,55 66,56" fill="none" stroke="#00a2ff" stroke-width="3" stroke-linecap="round" stroke-linejoin="round" opacity="0.95">
    <title>6107 f:1</title>
  </polyline>
  <polyline points="65,55 66,55 67,55 68,55 69,55 70,55 70,54 71,54 72,54 73,53 74,53 74,52 75,52 75,51 76,51 76,50 77,49 78,48 78,47 79,46 79,45 80,44 80,43 80,42 80,41 80,40 80,39 80,38 80,37 80,36 80,35 80,34 80,33 80,32 79,31 79,30 79,29 78,28 78,27 77,26 76,25 75,25 74,24 73,23 72,22 70,22 69,21 68,20 67,20 67,19 66,19 65,19 64,19 64,18 63,18 62,18 61,18 60,18 59,18 59,17 58,17" fill="none" stroke="#00ff7f" stroke-width="3" stroke-linecap="round" stroke-linejoin="round" opacity="0.95">
    <title>6243 i:1</title>
  </polyline>
  <polyline points="23,19 23,18 24,18 25,18 26,18 27,18 28,17 29,17 30,17 31,17 32,17 33,17 34,17 35,17 36,16 38,16 39,16 40,16 41,16 42,16 43,16 44,16 45,16 46,16 47,16 48,16 49,16 50,16 51,16 52,16 53,17 54,17 55,17 56,17 57,17 58,17 59,17 60,17 61,17 62,17 62,18 63,18 64,18 64,19 65,20" fill="none" stroke="#ff2d55" stroke-width="3" stroke-linecap="round" stroke-linejoin="round" opacity="0.95">
    <title>6317 d:1</title>
  </polyline>
</svg>
