<?xml version="1.0" encoding="UTF-8"?>
<svg xmlns="http://www.w3.org/2000/svg" width="50" height="69" viewBox="0 0 50 69">
  <title>particle img5-m12-p1 e:1 c:1 h:2</title>
  <metadata>{&quot;entityType&quot;:&quot;particle&quot;,&quot;entityId&quot;:&quot;img5-m12-p1&quot;,&quot;token&quot;:&quot;e:1 c:1 h:2&quot;,&quot;signature&quot;:&quot;e:1 c:1 h:2&quot;,&quot;imageName&quot;:&quot;page-005.jpg&quot;,&quot;imageId&quot;:5,&quot;bounds&quot;:{&quot;x&quot;:421,&quot;y&quot;:589,&quot;w&quot;:50,&quot;h&quot;:69},&quot;atoms&quot;:[{&quot;id&quot;:5663,&quot;token&quot;:&quot;e:1&quot;,&quot;particle_id&quot;:&quot;img5-m12-p1&quot;,&quot;molecule_id&quot;:&quot;img5-m12&quot;,&quot;atom_order&quot;:1},{&quot;id&quot;:5666,&quot;token&quot;:&quot;c:1&quot;,&quot;particle_id&quot;:&quot;img5-m12-p1&quot;,&quot;molecule_id&quot;:&quot;img5-m12&quot;,&quot;atom_order&quot;:2},{&quot;id&quot;:6070,&quot;token&quot;:&quot;h:2&quot;,&quot;particle_id&quot;:&quot;img5-m12-p1&quot;,&quot;molecule_id&quot;:&quot;img5-m12&quot;,&quot;atom_order&quot;:3}]}</metadata>
  <rect x="0" y="0" width="50" height="69" fill="#f8f0d8"/>
  <image href="file:///C:/Users/HHHES/AppData/Roaming/com.voynichlab.datasetcreator/images/1/a6cd3b6e-2a78-4b30-a4be-5d186aea258e.jpg" x="-421" y="-589" width="2691" height="3770" opacity="0.92"/>
  <rect x="0.5" y="0.5" width="49" height="68" fill="none" stroke="#111827" stroke-width="1" opacity="0.35"/>
  <polyline points="31,49 31,50 30,50 30,51 29,51 28,51 28,52 27,52 26,52 25,52 24,52 23,52 22,52 21,52 21,51 20,51 19,51 18,51 18,50 17,50 16,50 16,49 16,48 16,47 16,46 16,45 16,44 16,43 17,43 17,42 17,41 17,40 18,40 18,39 18,38 19,38 19,37 19,36 20,36 21,36 21,35 22,35 22,34 23,34 24,34 24,33 25,33 26,33 27,33 27,32" fill="none" stroke="#f2e45c" stroke-width="3" stroke-linecap="round" stroke-linejoin="round" opacity="0.95">
    <title>5663 e:1</title>
  </polyline>
  <polyline points="28,30 29,30 29,29 30,29 31,28 32,27 33,27 33,26 33,25 33,24 34,23 34,22 34,21 34,20 34,19 33,19 33,18 33,17 32,17 31,17 31,16 30,16 29,16 28,16 27,16 26,16 25,16 24,16 23,16 22,16 22,17 21,17 20,17 20,18 20,19 19,19 19,20 19,21 18,21 18,22 18,23 18,24 18,25 19,26 19,27 20,27 20,28 21,28 21,29 22,29 23,30 24,30 25,30 26,30 27,30 27,29 28,29 29,29" fill="none" stroke="#8aff00" stroke-width="3" stroke-linecap="round" stroke-linejoin="round" opacity="0.95">
    <title>5666 c:1</title>
  </polyline>
  <polyline points="27,53 27,52 28,52 29,52 30,51 31,51 31,50 32,50 32,49 32,48 33,48 33,47 33,46 33,45 33,44 33,43 33,42 33,41 32,41 32,40 31,39 31,38 30,38 30,37 29,37 29,36 28,36 28,35 27,35 27,34 26,34 25,33 24,33 24,32 23,32 23,31 22,31 21,31 21,30 20,30 20,29 19,29 19,28 19,27 18,27 18,26 17,25 17,24 17,23 17,22 17,21 18,20 18,19 18,18 19,18 19,17 19,16 20,16" fill="none" stroke="#ff8c00" stroke-width="3" stroke-linecap="round" stroke-linejoin="round" opacity="0.95">
    <title>6070 h:2</title>
  </polyline>
</svg>
