<?xml version="1.0" encoding="UTF-8"?>
<svg xmlns="http://www.w3.org/2000/svg" width="59" height="75" viewBox="0 0 59 75">
  <title>particle img5-m31-p6 f:1 i:1 d:1</title>
  <metadata>{&quot;entityType&quot;:&quot;particle&quot;,&quot;entityId&quot;:&quot;img5-m31-p6&quot;,&quot;token&quot;:&quot;f:1 i:1 d:1&quot;,&quot;signature&quot;:&quot;f:1 i:1 d:1&quot;,&quot;imageName&quot;:&quot;page-005.jpg&quot;,&quot;imageId&quot;:5,&quot;bounds&quot;:{&quot;x&quot;:640,&quot;y&quot;:801,&quot;w&quot;:59,&quot;h&quot;:75},&quot;atoms&quot;:[{&quot;id&quot;:6128,&quot;token&quot;:&quot;f:1&quot;,&quot;particle_id&quot;:&quot;img5-m31-p6&quot;,&quot;molecule_id&quot;:&quot;img5-m31&quot;,&quot;atom_order&quot;:1},{&quot;id&quot;:6271,&quot;token&quot;:&quot;i:1&quot;,&quot;particle_id&quot;:&quot;img5-m31-p6&quot;,&quot;molecule_id&quot;:&quot;img5-m31&quot;,&quot;atom_order&quot;:2},{&quot;id&quot;:6332,&quot;token&quot;:&quot;d:1&quot;,&quot;particle_id&quot;:&quot;img5-m31-p6&quot;,&quot;molecule_id&quot;:&quot;img5-m31&quot;,&quot;atom_order&quot;:3}]}</metadata>
  <rect x="0" y="0" width="59" height="75" fill="#f8f0d8"/>
  <image href="file:///C:/Users/HHHES/AppData/Roaming/com.voynichlab.datasetcreator/images/1/a6cd3b6e-2a78-4b30-a4be-5d186aea258e.jpg" x="-640" y="-801" width="2691" height="3770" opacity="0.92"/>
  <rect x="0.5" y="0.5" width="58" height="74" fill="none" stroke="#111827" stroke-width="1" opacity="0.35"/>
  <polyline points="16,38 16,39 16,40 17,40 17,41 17,42 18,42 18,43 19,44 19,45 20,45 20,46 21,47 21,48 22,48 22,49 23,49 23,50 24,50 24,51 24,52 25,52 25,53 25,54 26,54 26,55 27,55 27,56 28,57 28,58 29,58 29,59" fill="none" stroke="#00a2ff" stroke-width="3" stroke-linecap="round" stroke-linejoin="round" opacity="0.95">
    <title>6128 f:1</title>
  </polyline>
  <polyline points="20,45 21,45 22,45 22,44 23,44 24,44 25,43 26,43 27,43 28,43 28,42 29,42 30,42 30,41 31,41 32,41 32,40 33,40 34,39 35,39 36,38 37,37 38,36 38,35 39,35 40,34 41,33 41,32 42,32 42,31 42,30 43,30 43,29 43,28 43,27 43,26 43,25 43,24 43,23 43,22 43,21 42,21" fill="none" stroke="#00ff7f" stroke-width="3" stroke-linecap="round" stroke-linejoin="round" opacity="0.95">
    <title>6271 i:1</title>
  </polyline>
  <polyline points="20,19 21,19 21,18 22,18 22,17 23,17 23,16 24,16 25,16 26,16 27,16 28,16 29,16 30,16 31,16 32,16 33,16 34,16 35,16 35,17 36,17 37,17 37,18 38,18 39,19 40,20 40,21 41,21 42,22 42,23 43,24 43,25 43,26" fill="none" stroke="#ff2d55" stroke-width="3" stroke-linecap="round" stroke-linejoin="round" opacity="0.95">
    <title>6332 d:1</title>
  </polyline>
</svg>
