<?xml version="1.0" encoding="UTF-8"?>
<svg xmlns="http://www.w3.org/2000/svg" width="60" height="78" viewBox="0 0 60 78">
  <title>particle img5-m91-p1 e:1 i:1 d:1</title>
  <metadata>{&quot;entityType&quot;:&quot;particle&quot;,&quot;entityId&quot;:&quot;img5-m91-p1&quot;,&quot;token&quot;:&quot;e:1 i:1 d:1&quot;,&quot;signature&quot;:&quot;e:1 i:1 d:1&quot;,&quot;imageName&quot;:&quot;page-005.jpg&quot;,&quot;imageId&quot;:5,&quot;bounds&quot;:{&quot;x&quot;:1625,&quot;y&quot;:2769,&quot;w&quot;:60,&quot;h&quot;:78},&quot;atoms&quot;:[{&quot;id&quot;:5885,&quot;token&quot;:&quot;e:1&quot;,&quot;particle_id&quot;:&quot;img5-m91-p1&quot;,&quot;molecule_id&quot;:&quot;img5-m91&quot;,&quot;atom_order&quot;:1},{&quot;id&quot;:6309,&quot;token&quot;:&quot;i:1&quot;,&quot;particle_id&quot;:&quot;img5-m91-p1&quot;,&quot;molecule_id&quot;:&quot;img5-m91&quot;,&quot;atom_order&quot;:2},{&quot;id&quot;:6377,&quot;token&quot;:&quot;d:1&quot;,&quot;particle_id&quot;:&quot;img5-m91-p1&quot;,&quot;molecule_id&quot;:&quot;img5-m91&quot;,&quot;atom_order&quot;:3}]}</metadata>
  <rect x="0" y="0" width="60" height="78" fill="#f8f0d8"/>
  <image href="file:///C:/Users/HHHES/AppData/Roaming/com.voynichlab.datasetcreator/images/1/a6cd3b6e-2a78-4b30-a4be-5d186aea258e.jpg" x="-1625" y="-2769" width="2691" height="3770" opacity="0.92"/>
  <rect x="0.5" y="0.5" width="59" height="77" fill="none" stroke="#111827" stroke-width="1" opacity="0.35"/>
  <polyline points="44,59 44,60 43,60 43,61 42,61 41,61 41,62 40,62 39,62 38,62 37,62 36,62 35,62 34,62 34,61 33,61 32,61 31,61 31,60 30,60 29,60 29,59 29,58 29,57 29,56 29,55 29,54 29,53 30,53 30,52 30,51 30,50 31,50 31,49 31,48 32,48 32,47 32,46 33,46 34,46 34,45 35,45 35,44 36,44 37,44 37,43 38,43 39,43 40,43 40,42" fill="none" stroke="#f2e45c" stroke-width="3" stroke-linecap="round" stroke-linejoin="round" opacity="0.95">
    <title>5885 e:1</title>
  </polyline>
  <polyline points="39,44 40,43 40,42 41,41 41,40 42,40 42,39 42,38 43,37 43,36 44,35 44,34 44,33 44,32 44,31 44,30 44,29 44,28 44,27 44,26 44,25 43,25 43,24 43,23 42,23 42,22 41,22 41,21" fill="none" stroke="#00ff7f" stroke-width="3" stroke-linecap="round" stroke-linejoin="round" opacity="0.95">
    <title>6309 i:1</title>
  </polyline>
  <polyline points="16,20 16,19 17,19 18,18 18,17 19,17 20,17 21,17 21,16 22,16 23,16 24,16 25,16 26,16 27,16 28,16 29,16 30,16 32,17 33,17 34,17 35,18 36,18 36,19 37,19 37,20 38,20 38,21 39,21 40,21 40,22 41,22 41,23 42,24 43,25 43,26 43,27" fill="none" stroke="#ff2d55" stroke-width="3" stroke-linecap="round" stroke-linejoin="round" opacity="0.95">
    <title>6377 d:1</title>
  </polyline>
</svg>
