<?xml version="1.0" encoding="UTF-8"?>
<svg xmlns="http://www.w3.org/2000/svg" width="127" height="104" viewBox="0 0 127 104">
  <title>particle img5-m43-p1 e:1 a:1 b:1 c:1 a:1 g:1 e:1</title>
  <metadata>{&quot;entityType&quot;:&quot;particle&quot;,&quot;entityId&quot;:&quot;img5-m43-p1&quot;,&quot;token&quot;:&quot;e:1 a:1 b:1 c:1 a:1 g:1 e:1&quot;,&quot;signature&quot;:&quot;e:1 a:1 b:1 c:1 a:1 g:1 e:1&quot;,&quot;imageName&quot;:&quot;page-005.jpg&quot;,&quot;imageId&quot;:5,&quot;bounds&quot;:{&quot;x&quot;:570,&quot;y&quot;:926,&quot;w&quot;:127,&quot;h&quot;:104},&quot;atoms&quot;:[{&quot;id&quot;:5748,&quot;token&quot;:&quot;e:1&quot;,&quot;particle_id&quot;:&quot;img5-m43-p1&quot;,&quot;molecule_id&quot;:&quot;img5-m43&quot;,&quot;atom_order&quot;:1},{&quot;id&quot;:5556,&quot;token&quot;:&quot;a:1&quot;,&quot;particle_id&quot;:&quot;img5-m43-p1&quot;,&quot;molecule_id&quot;:&quot;img5-m43&quot;,&quot;atom_order&quot;:2},{&quot;id&quot;:5569,&quot;token&quot;:&quot;b:1&quot;,&quot;particle_id&quot;:&quot;img5-m43-p1&quot;,&quot;molecule_id&quot;:&quot;img5-m43&quot;,&quot;atom_order&quot;:3},{&quot;id&quot;:5607,&quot;token&quot;:&quot;c:1&quot;,&quot;particle_id&quot;:&quot;img5-m43-p1&quot;,&quot;molecule_id&quot;:&quot;img5-m43&quot;,&quot;atom_order&quot;:4},{&quot;id&quot;:5557,&quot;token&quot;:&quot;a:1&quot;,&quot;particle_id&quot;:&quot;img5-m43-p1&quot;,&quot;molecule_id&quot;:&quot;img5-m43&quot;,&quot;atom_order&quot;:5},{&quot;id&quot;:6422,&quot;token&quot;:&quot;g:1&quot;,&quot;particle_id&quot;:&quot;img5-m43-p1&quot;,&quot;molecule_id&quot;:&quot;img5-m43&quot;,&quot;atom_order&quot;:6},{&quot;id&quot;:5749,&quot;token&quot;:&quot;e:1&quot;,&quot;particle_id&quot;:&quot;img5-m43-p1&quot;,&quot;molecule_id&quot;:&quot;img5-m43&quot;,&quot;atom_order&quot;:7}]}</metadata>
  <rect x="0" y="0" width="127" height="104" fill="#f8f0d8"/>
  <image href="file:///C:/Users/HHHES/AppData/Roaming/com.voynichlab.datasetcreator/images/1/a6cd3b6e-2a78-4b30-a4be-5d186aea258e.jpg" x="-570" y="-926" width="2691" height="3770" opacity="0.92"/>
  <rect x="0.5" y="0.5" width="126" height="103" fill="none" stroke="#111827" stroke-width="1" opacity="0.35"/>
  <polyline points="31,85 31,86 30,86 30,87 29,87 28,87 28,88 27,88 26,88 25,88 24,88 23,88 22,88 21,88 21,87 20,87 19,87 18,87 18,86 17,86 16,86 16,85 16,84 16,83 16,82 16,81 16,80 16,79 17,79 17,78 17,77 17,76 18,76 18,75 18,74 19,74 19,73 19,72 20,72 21,72 21,71 22,71 22,70 23,70 24,70 24,69 25,69 26,69 27,69 27,68" fill="none" stroke="#f2e45c" stroke-width="3" stroke-linecap="round" stroke-linejoin="round" opacity="0.95">
    <title>5748 e:1</title>
  </polyline>
  <polyline points="56,25 56,26 56,27 56,29 56,31 56,32 56,34 55,35 55,37 55,38 55,39 55,40 55,41 55,42 55,43 55,45 55,46 55,47 55,48 55,49 54,50 54,51 54,53 54,54 54,56 54,57 54,59 54,60 54,61 54,62 54,63 54,64 54,65 53,66 53,67 53,68 53,69 53,70 53,71 53,72 53,73 53,74 52,75 52,76 52,77 52,79 52,80 52,81" fill="none" stroke="#00f0b5" stroke-width="3" stroke-linecap="round" stroke-linejoin="round" opacity="0.95">
    <title>5556 a:1</title>
  </polyline>
  <polyline points="55,29 55,30 56,30 56,31 57,31 57,32 58,32 59,33 60,33 61,34 62,34 63,34 64,34 65,34 66,34 67,34 68,34 69,34 69,35 70,35 71,35 72,35 73,35 74,35 75,35 76,35 77,35 78,35 79,34 80,34 81,34 82,34 82,33 83,33 84,32 85,32 85,31 86,31 87,31 87,30 88,30 88,29 89,29 89,28 89,27 90,27" fill="none" stroke="#2f7df6" stroke-width="3" stroke-linecap="round" stroke-linejoin="round" opacity="0.95">
    <title>5569 b:1</title>
  </polyline>
  <polyline points="75,22 75,23 74,23 74,24 74,25 73,25 73,26 73,27 73,28 73,29 73,30 73,31 73,32 74,32 74,33 75,33 75,34 76,35 77,35 78,35 79,35 79,36 80,36 81,36 82,36 83,36 84,36 85,36 86,36 87,36 87,35 88,35 89,35 89,34 89,33 90,33 90,32 91,32 91,31 91,30 92,30 92,29 92,28 93,28 93,27 93,26 93,25 93,24 93,23 93,22 92,22 92,21 92,20 91,20 91,19 90,19 90,18 89,18 89,17 88,17 87,17 87,16 86,16 85,16 84,16 83,16 82,16 81,16 80,16 79,17 78,17 78,18 77,18 77,19 76,19 75,19 75,20 74,20 74,21 74,22" fill="none" stroke="#8aff00" stroke-width="3" stroke-linecap="round" stroke-linejoin="round" opacity="0.95">
    <title>5607 c:1</title>
  </polyline>
  <polyline points="77,23 76,24 76,25 75,26 75,27 75,28 75,29 75,30 74,31 74,32 74,33 74,34 74,35 74,36 74,37 74,38 74,39 74,40 74,41 74,42 74,43 73,44 73,45 73,46 73,47 73,48 73,49 73,50 73,51 73,52 73,53 73,54 73,55 73,56 73,57 72,58 72,59 72,60 72,61 72,62 72,63 72,64 72,65 72,66 72,67 72,68 72,69 72,70 72,71 72,72 72,73 72,74 72,75 72,76 72,77 72,78 72,79 72,80 72,81 72,82 72,83" fill="none" stroke="#00f0b5" stroke-width="3" stroke-linecap="round" stroke-linejoin="round" opacity="0.95">
    <title>5557 a:1</title>
  </polyline>
  <polyline points="24,69 25,69 26,69 26,68 27,68 28,68 29,67 30,67 31,67 32,67 33,67 34,67 35,66 36,66 37,66 38,66 39,66 40,66 41,66 42,66 44,66 45,66 47,66 48,66 49,65 50,65 51,65 52,65 54,65 55,64 56,64 57,64 58,64 59,64 60,64 61,64 62,64 63,63 65,63 67,63 69,63 71,63 72,63 73,63 75,63 76,63 77,63 78,63 79,62 81,62 83,62 84,62 85,62 86,62 87,62 88,62 89,61 90,61 92,61 93,61 94,61 95,61 97,61 98,61 99,61 100,61 101,61 102,61 103,61 104,61 105,61" fill="none" stroke="#7c3cff" stroke-width="3" stroke-linecap="round" stroke-linejoin="round" opacity="0.95">
    <title>6422 g:1</title>
  </polyline>
  <polyline points="111,77 111,78 110,78 110,79 109,79 108,79 108,80 107,80 106,80 105,80 104,80 103,80 102,80 101,80 101,79 100,79 99,79 98,79 98,78 97,78 96,78 96,77 96,76 96,75 96,74 96,73 96,72 96,71 97,71 97,70 97,69 97,68 98,68 98,67 98,66 99,66 99,65 99,64 100,64 101,64 101,63 102,63 102,62 103,62 104,62 104,61 105,61 106,61 107,61 107,60" fill="none" stroke="#f2e45c" stroke-width="3" stroke-linecap="round" stroke-linejoin="round" opacity="0.95">
    <title>5749 e:1</title>
  </polyline>
</svg>
