<?xml version="1.0" encoding="UTF-8"?>
<svg xmlns="http://www.w3.org/2000/svg" width="90" height="53" viewBox="0 0 90 53">
  <title>particle img5-m82-p2 e:1 g:1 e:1</title>
  <metadata>{&quot;entityType&quot;:&quot;particle&quot;,&quot;entityId&quot;:&quot;img5-m82-p2&quot;,&quot;token&quot;:&quot;e:1 g:1 e:1&quot;,&quot;signature&quot;:&quot;e:1 g:1 e:1&quot;,&quot;imageName&quot;:&quot;page-005.jpg&quot;,&quot;imageId&quot;:5,&quot;bounds&quot;:{&quot;x&quot;:1932,&quot;y&quot;:2693,&quot;w&quot;:90,&quot;h&quot;:53},&quot;atoms&quot;:[{&quot;id&quot;:5882,&quot;token&quot;:&quot;e:1&quot;,&quot;particle_id&quot;:&quot;img5-m82-p2&quot;,&quot;molecule_id&quot;:&quot;img5-m82&quot;,&quot;atom_order&quot;:1},{&quot;id&quot;:6443,&quot;token&quot;:&quot;g:1&quot;,&quot;particle_id&quot;:&quot;img5-m82-p2&quot;,&quot;molecule_id&quot;:&quot;img5-m82&quot;,&quot;atom_order&quot;:2},{&quot;id&quot;:5881,&quot;token&quot;:&quot;e:1&quot;,&quot;particle_id&quot;:&quot;img5-m82-p2&quot;,&quot;molecule_id&quot;:&quot;img5-m82&quot;,&quot;atom_order&quot;:3}]}</metadata>
  <rect x="0" y="0" width="90" height="53" fill="#f8f0d8"/>
  <image href="file:///C:/Users/HHHES/AppData/Roaming/com.voynichlab.datasetcreator/images/1/a6cd3b6e-2a78-4b30-a4be-5d186aea258e.jpg" x="-1932" y="-2693" width="2691" height="3770" opacity="0.92"/>
  <rect x="0.5" y="0.5" width="89" height="52" fill="none" stroke="#111827" stroke-width="1" opacity="0.35"/>
  <polyline points="31,34 31,35 30,35 30,36 29,36 28,36 28,37 27,37 26,37 25,37 24,37 23,37 22,37 21,37 21,36 20,36 19,36 18,36 18,35 17,35 16,35 16,34 16,33 16,32 16,31 16,30 16,29 16,28 17,28 17,27 17,26 17,25 18,25 18,24 18,23 19,23 19,22 19,21 20,21 21,21 21,20 22,20 22,19 23,19 24,19 24,18 25,18 26,18 27,18 27,17" fill="none" stroke="#f2e45c" stroke-width="3" stroke-linecap="round" stroke-linejoin="round" opacity="0.95">
    <title>5882 e:1</title>
  </polyline>
  <polyline points="24,18 25,18 26,18 27,18 29,18 30,17 32,17 33,17 34,17 35,17 36,17 37,17 38,17 40,17 41,17 42,17 43,17 44,17 46,17 48,17 50,17 51,17 52,17 53,17 54,17 55,17 57,17 58,17 60,17 61,17 62,17 63,17 64,17 65,17 66,17 67,17 68,17 69,17" fill="none" stroke="#7c3cff" stroke-width="3" stroke-linecap="round" stroke-linejoin="round" opacity="0.95">
    <title>6443 g:1</title>
  </polyline>
  <polyline points="74,33 74,34 73,34 73,35 72,35 71,35 71,36 70,36 69,36 68,36 67,36 66,36 65,36 64,36 64,35 63,35 62,35 61,35 61,34 60,34 59,34 59,33 59,32 59,31 59,30 59,29 59,28 59,27 60,27 60,26 60,25 60,24 61,24 61,23 61,22 62,22 62,21 62,20 63,20 64,20 64,19 65,19 65,18 66,18 67,18 67,17 68,17 69,17 70,17 70,16" fill="none" stroke="#f2e45c" stroke-width="3" stroke-linecap="round" stroke-linejoin="round" opacity="0.95">
    <title>5881 e:1</title>
  </polyline>
</svg>
