<?xml version="1.0" encoding="UTF-8"?>
<svg xmlns="http://www.w3.org/2000/svg" width="112" height="69" viewBox="0 0 112 69">
  <title>particle img5-m71-p3 k:1 f:1 i:1 d:1</title>
  <metadata>{&quot;entityType&quot;:&quot;particle&quot;,&quot;entityId&quot;:&quot;img5-m71-p3&quot;,&quot;token&quot;:&quot;k:1 f:1 i:1 d:1&quot;,&quot;signature&quot;:&quot;k:1 f:1 i:1 d:1&quot;,&quot;imageName&quot;:&quot;page-005.jpg&quot;,&quot;imageId&quot;:5,&quot;bounds&quot;:{&quot;x&quot;:2098,&quot;y&quot;:2591,&quot;w&quot;:112,&quot;h&quot;:69},&quot;atoms&quot;:[{&quot;id&quot;:6237,&quot;token&quot;:&quot;k:1&quot;,&quot;particle_id&quot;:&quot;img5-m71-p3&quot;,&quot;molecule_id&quot;:&quot;img5-m71&quot;,&quot;atom_order&quot;:1},{&quot;id&quot;:6180,&quot;token&quot;:&quot;f:1&quot;,&quot;particle_id&quot;:&quot;img5-m71-p3&quot;,&quot;molecule_id&quot;:&quot;img5-m71&quot;,&quot;atom_order&quot;:2},{&quot;id&quot;:6358,&quot;token&quot;:&quot;i:1&quot;,&quot;particle_id&quot;:&quot;img5-m71-p3&quot;,&quot;molecule_id&quot;:&quot;img5-m71&quot;,&quot;atom_order&quot;:3},{&quot;id&quot;:6360,&quot;token&quot;:&quot;d:1&quot;,&quot;particle_id&quot;:&quot;img5-m71-p3&quot;,&quot;molecule_id&quot;:&quot;img5-m71&quot;,&quot;atom_order&quot;:4}]}</metadata>
  <rect x="0" y="0" width="112" height="69" fill="#f8f0d8"/>
  <image href="file:///C:/Users/HHHES/AppData/Roaming/com.voynichlab.datasetcreator/images/1/a6cd3b6e-2a78-4b30-a4be-5d186aea258e.jpg" x="-2098" y="-2591" width="2691" height="3770" opacity="0.92"/>
  <rect x="0.5" y="0.5" width="111" height="68" fill="none" stroke="#111827" stroke-width="1" opacity="0.35"/>
  <polyline points="16,33 17,33 17,34 18,35 18,36 19,37 19,39 19,40 20,40 20,41 21,42 22,43 23,44 23,45 24,45 24,46 24,47 25,47 25,48 26,49 26,50 27,50 27,49 28,48 28,47 29,46 29,45 30,43 30,42 31,42 31,41 31,40 32,39 33,38 33,37 33,36 34,36 34,35 34,34 35,34 36,33 37,33 37,34 37,35 38,36 39,37 39,39 40,40 41,40 42,42 43,43 44,44 45,45 45,46 46,47 47,48 48,49 49,50 50,51 51,52 52,52 52,53 53,52 54,52 54,51 55,50 55,49 56,48 56,47 57,46 57,45 58,44 58,43 59,43 59,42 60,41 60,40 61,39 62,38 62,37 62,36 63,36 63,35 64,35 64,34 65,34 65,33 66,33 66,32 66,31 65,32 64,32 62,33" fill="none" stroke="#ffffff" stroke-width="3" stroke-linecap="round" stroke-linejoin="round" opacity="0.95">
    <title>6237 k:1</title>
  </polyline>
  <polyline points="64,29 64,30 64,31 65,31 65,32 65,33 66,33 66,34 67,35 67,36 68,36 68,37 69,38 69,39 70,39 70,40 71,40 71,41 72,41 72,42 72,43 73,43 73,44 73,45 74,45 74,46 75,46 75,47 76,48 76,49 77,49 77,50" fill="none" stroke="#00a2ff" stroke-width="3" stroke-linecap="round" stroke-linejoin="round" opacity="0.95">
    <title>6180 f:1</title>
  </polyline>
  <polyline points="75,48 76,48 77,48 78,48 79,48 79,47 80,47 81,47 82,46 83,46 84,45 85,44 86,44 87,43 88,42 89,41 90,41 90,40 91,40 91,39 92,38 93,38 93,36 94,36 94,35 95,34 95,33 95,32 95,31 95,30 96,29 96,28 96,27 95,26 94,26 93,25 92,25 90,24 89,24 88,24 87,24" fill="none" stroke="#00ff7f" stroke-width="3" stroke-linecap="round" stroke-linejoin="round" opacity="0.95">
    <title>6358 i:1</title>
  </polyline>
  <polyline points="56,17 57,17 58,16 59,16 61,16 62,16 63,16 64,16 66,16 67,16 69,16 70,16 70,17 72,17 74,17 76,18 77,18 78,19 79,19 81,20 82,20 83,20 83,21 84,21 85,21 87,22 88,22 89,23 90,23 91,24 92,24 93,25 94,25 95,26 96,27" fill="none" stroke="#ff2d55" stroke-width="3" stroke-linecap="round" stroke-linejoin="round" opacity="0.95">
    <title>6360 d:1</title>
  </polyline>
</svg>
