<?xml version="1.0" encoding="UTF-8"?>
<svg xmlns="http://www.w3.org/2000/svg" width="51" height="79" viewBox="0 0 51 79">
  <title>particle img5-m12-p6 f:1 i:1 d:1</title>
  <metadata>{&quot;entityType&quot;:&quot;particle&quot;,&quot;entityId&quot;:&quot;img5-m12-p6&quot;,&quot;token&quot;:&quot;f:1 i:1 d:1&quot;,&quot;signature&quot;:&quot;f:1 i:1 d:1&quot;,&quot;imageName&quot;:&quot;page-005.jpg&quot;,&quot;imageId&quot;:5,&quot;bounds&quot;:{&quot;x&quot;:587,&quot;y&quot;:564,&quot;w&quot;:51,&quot;h&quot;:79},&quot;atoms&quot;:[{&quot;id&quot;:6116,&quot;token&quot;:&quot;f:1&quot;,&quot;particle_id&quot;:&quot;img5-m12-p6&quot;,&quot;molecule_id&quot;:&quot;img5-m12&quot;,&quot;atom_order&quot;:1},{&quot;id&quot;:6250,&quot;token&quot;:&quot;i:1&quot;,&quot;particle_id&quot;:&quot;img5-m12-p6&quot;,&quot;molecule_id&quot;:&quot;img5-m12&quot;,&quot;atom_order&quot;:2},{&quot;id&quot;:6323,&quot;token&quot;:&quot;d:1&quot;,&quot;particle_id&quot;:&quot;img5-m12-p6&quot;,&quot;molecule_id&quot;:&quot;img5-m12&quot;,&quot;atom_order&quot;:3}]}</metadata>
  <rect x="0" y="0" width="51" height="79" fill="#f8f0d8"/>
  <image href="file:///C:/Users/HHHES/AppData/Roaming/com.voynichlab.datasetcreator/images/1/a6cd3b6e-2a78-4b30-a4be-5d186aea258e.jpg" x="-587" y="-564" width="2691" height="3770" opacity="0.92"/>
  <rect x="0.5" y="0.5" width="50" height="78" fill="none" stroke="#111827" stroke-width="1" opacity="0.35"/>
  <polyline points="17,42 17,43 17,44 18,44 18,45 18,46 19,46 19,47 20,48 20,49 21,49 21,50 22,51 22,52 23,52 23,53 24,53 24,54 25,54 25,55 25,56 26,56 26,57 26,58 27,58 27,59 28,59 28,60 29,61 29,62 30,62 30,63" fill="none" stroke="#00a2ff" stroke-width="3" stroke-linecap="round" stroke-linejoin="round" opacity="0.95">
    <title>6116 f:1</title>
  </polyline>
  <polyline points="20,48 21,48 22,48 23,48 23,47 24,47 25,46 26,45 27,45 28,44 29,43 30,42 31,41 32,40 32,39 33,39 33,38 33,37 34,36 34,35 34,34 34,33 35,33 35,32 35,31 35,30 35,29 35,28 34,28 34,27 34,26 34,25" fill="none" stroke="#00ff7f" stroke-width="3" stroke-linecap="round" stroke-linejoin="round" opacity="0.95">
    <title>6250 i:1</title>
  </polyline>
  <polyline points="17,26 16,26 16,25 16,24 16,23 16,22 17,22 17,21 18,20 19,20 19,19 20,18 21,18 22,17 23,17 23,16 24,16 25,16 26,16 26,17 27,17 28,18 29,19 30,19 30,20 31,20 31,21 32,21 32,22 33,23 33,24 34,24 34,25 34,26 34,27" fill="none" stroke="#ff2d55" stroke-width="3" stroke-linecap="round" stroke-linejoin="round" opacity="0.95">
    <title>6323 d:1</title>
  </polyline>
</svg>
