<?xml version="1.0" encoding="UTF-8"?>
<svg xmlns="http://www.w3.org/2000/svg" width="54" height="75" viewBox="0 0 54 75">
  <title>particle img5-m61-p1 e:1 c:1 h:2</title>
  <metadata>{&quot;entityType&quot;:&quot;particle&quot;,&quot;entityId&quot;:&quot;img5-m61-p1&quot;,&quot;token&quot;:&quot;e:1 c:1 h:2&quot;,&quot;signature&quot;:&quot;e:1 c:1 h:2&quot;,&quot;imageName&quot;:&quot;page-005.jpg&quot;,&quot;imageId&quot;:5,&quot;bounds&quot;:{&quot;x&quot;:456,&quot;y&quot;:2536,&quot;w&quot;:54,&quot;h&quot;:75},&quot;atoms&quot;:[{&quot;id&quot;:5759,&quot;token&quot;:&quot;e:1&quot;,&quot;particle_id&quot;:&quot;img5-m61-p1&quot;,&quot;molecule_id&quot;:&quot;img5-m61&quot;,&quot;atom_order&quot;:1},{&quot;id&quot;:6037,&quot;token&quot;:&quot;c:1&quot;,&quot;particle_id&quot;:&quot;img5-m61-p1&quot;,&quot;molecule_id&quot;:&quot;img5-m61&quot;,&quot;atom_order&quot;:2},{&quot;id&quot;:6096,&quot;token&quot;:&quot;h:2&quot;,&quot;particle_id&quot;:&quot;img5-m61-p1&quot;,&quot;molecule_id&quot;:&quot;img5-m61&quot;,&quot;atom_order&quot;:3}]}</metadata>
  <rect x="0" y="0" width="54" height="75" fill="#f8f0d8"/>
  <image href="file:///C:/Users/HHHES/AppData/Roaming/com.voynichlab.datasetcreator/images/1/a6cd3b6e-2a78-4b30-a4be-5d186aea258e.jpg" x="-456" y="-2536" width="2691" height="3770" opacity="0.92"/>
  <rect x="0.5" y="0.5" width="53" height="74" fill="none" stroke="#111827" stroke-width="1" opacity="0.35"/>
  <polyline points="31,54 31,55 30,55 30,56 29,56 28,56 28,57 27,57 26,57 25,57 24,57 23,57 22,57 21,57 21,56 20,56 19,56 18,56 18,55 17,55 16,55 16,54 16,53 16,52 16,51 16,50 16,49 16,48 17,48 17,47 17,46 17,45 18,45 18,44 18,43 19,43 19,42 19,41 20,41 21,41 21,40 22,40 22,39 23,39 24,39 24,38 25,38 26,38 27,38 27,37" fill="none" stroke="#f2e45c" stroke-width="3" stroke-linecap="round" stroke-linejoin="round" opacity="0.95">
    <title>5759 e:1</title>
  </polyline>
  <polyline points="20,22 20,23 19,23 19,24 19,25 18,25 18,26 18,27 18,28 18,29 18,30 18,31 18,32 19,32 19,33 20,33 20,34 21,35 22,35 23,35 24,35 24,36 25,36 26,36 27,36 28,36 29,36 30,36 31,36 32,36 32,35 33,35 34,35 34,34 34,33 35,33 35,32 36,32 36,31 36,30 37,30 37,29 37,28 38,28 38,27 38,26 38,25 38,24 38,23 38,22 37,22 37,21 37,20 36,20 36,19 35,19 35,18 34,18 34,17 33,17 32,17 32,16 31,16 30,16 29,16 28,16 27,16 26,16 25,16 24,17 23,17 23,18 22,18 22,19 21,19 20,19 20,20 19,20 19,21 19,22" fill="none" stroke="#8aff00" stroke-width="3" stroke-linecap="round" stroke-linejoin="round" opacity="0.95">
    <title>6037 c:1</title>
  </polyline>
  <polyline points="25,59 25,58 26,58 27,58 27,57 28,57 28,56 29,56 30,55 31,54 31,53 32,52 32,51 32,50 32,49 32,48 31,47 30,46 29,45 29,44 28,44 28,43 27,42 26,42 26,41 25,41 24,40 24,39 23,39 23,38 22,38 22,37 21,36 21,35 20,34 20,33 19,33 19,32 19,31 19,30 19,29 19,28 19,27 19,26 20,25 21,24 22,24 23,24" fill="none" stroke="#ff8c00" stroke-width="3" stroke-linecap="round" stroke-linejoin="round" opacity="0.95">
    <title>6096 h:2</title>
  </polyline>
</svg>
