<?xml version="1.0" encoding="UTF-8"?>
<svg xmlns="http://www.w3.org/2000/svg" width="84" height="54" viewBox="0 0 84 54">
  <title>particle img5-m39-p2 e:1 g:1 e:1</title>
  <metadata>{&quot;entityType&quot;:&quot;particle&quot;,&quot;entityId&quot;:&quot;img5-m39-p2&quot;,&quot;token&quot;:&quot;e:1 g:1 e:1&quot;,&quot;signature&quot;:&quot;e:1 g:1 e:1&quot;,&quot;imageName&quot;:&quot;page-005.jpg&quot;,&quot;imageId&quot;:5,&quot;bounds&quot;:{&quot;x&quot;:1653,&quot;y&quot;:903,&quot;w&quot;:84,&quot;h&quot;:54},&quot;atoms&quot;:[{&quot;id&quot;:5735,&quot;token&quot;:&quot;e:1&quot;,&quot;particle_id&quot;:&quot;img5-m39-p2&quot;,&quot;molecule_id&quot;:&quot;img5-m39&quot;,&quot;atom_order&quot;:1},{&quot;id&quot;:6419,&quot;token&quot;:&quot;g:1&quot;,&quot;particle_id&quot;:&quot;img5-m39-p2&quot;,&quot;molecule_id&quot;:&quot;img5-m39&quot;,&quot;atom_order&quot;:2},{&quot;id&quot;:5734,&quot;token&quot;:&quot;e:1&quot;,&quot;particle_id&quot;:&quot;img5-m39-p2&quot;,&quot;molecule_id&quot;:&quot;img5-m39&quot;,&quot;atom_order&quot;:3}]}</metadata>
  <rect x="0" y="0" width="84" height="54" fill="#f8f0d8"/>
  <image href="file:///C:/Users/HHHES/AppData/Roaming/com.voynichlab.datasetcreator/images/1/a6cd3b6e-2a78-4b30-a4be-5d186aea258e.jpg" x="-1653" y="-903" width="2691" height="3770" opacity="0.92"/>
  <rect x="0.5" y="0.5" width="83" height="53" fill="none" stroke="#111827" stroke-width="1" opacity="0.35"/>
  <polyline points="31,35 31,36 30,36 30,37 29,37 28,37 28,38 27,38 26,38 25,38 24,38 23,38 22,38 21,38 21,37 20,37 19,37 18,37 18,36 17,36 16,36 16,35 16,34 16,33 16,32 16,31 16,30 16,29 17,29 17,28 17,27 17,26 18,26 18,25 18,24 19,24 19,23 19,22 20,22 21,22 21,21 22,21 22,20 23,20 24,20 24,19 25,19 26,19 27,19 27,18" fill="none" stroke="#f2e45c" stroke-width="3" stroke-linecap="round" stroke-linejoin="round" opacity="0.95">
    <title>5735 e:1</title>
  </polyline>
  <polyline points="22,19 23,19 24,19 25,19 26,19 27,19 28,19 29,19 30,19 32,19 33,19 34,19 35,19 36,19 38,19 40,19 42,19 43,19 44,19 46,19 47,19 48,19 49,19 51,19 52,19 53,19 54,19 56,19 57,19 58,19" fill="none" stroke="#7c3cff" stroke-width="3" stroke-linecap="round" stroke-linejoin="round" opacity="0.95">
    <title>6419 g:1</title>
  </polyline>
  <polyline points="68,33 68,34 67,34 67,35 66,35 65,35 65,36 64,36 63,36 62,36 61,36 60,36 59,36 58,36 58,35 57,35 56,35 55,35 55,34 54,34 53,34 53,33 53,32 53,31 53,30 53,29 53,28 53,27 54,27 54,26 54,25 54,24 55,24 55,23 55,22 56,22 56,21 56,20 57,20 58,20 58,19 59,19 59,18 60,18 61,18 61,17 62,17 63,17 64,17 64,16" fill="none" stroke="#f2e45c" stroke-width="3" stroke-linecap="round" stroke-linejoin="round" opacity="0.95">
    <title>5734 e:1</title>
  </polyline>
</svg>
