<?xml version="1.0" encoding="UTF-8"?>
<svg xmlns="http://www.w3.org/2000/svg" width="82" height="77" viewBox="0 0 82 77">
  <title>particle img5-m27-p3 f:1 i:1 d:1</title>
  <metadata>{&quot;entityType&quot;:&quot;particle&quot;,&quot;entityId&quot;:&quot;img5-m27-p3&quot;,&quot;token&quot;:&quot;f:1 i:1 d:1&quot;,&quot;signature&quot;:&quot;f:1 i:1 d:1&quot;,&quot;imageName&quot;:&quot;page-005.jpg&quot;,&quot;imageId&quot;:5,&quot;bounds&quot;:{&quot;x&quot;:2032,&quot;y&quot;:809,&quot;w&quot;:82,&quot;h&quot;:77},&quot;atoms&quot;:[{&quot;id&quot;:6138,&quot;token&quot;:&quot;f:1&quot;,&quot;particle_id&quot;:&quot;img5-m27-p3&quot;,&quot;molecule_id&quot;:&quot;img5-m27&quot;,&quot;atom_order&quot;:1},{&quot;id&quot;:6275,&quot;token&quot;:&quot;i:1&quot;,&quot;particle_id&quot;:&quot;img5-m27-p3&quot;,&quot;molecule_id&quot;:&quot;img5-m27&quot;,&quot;atom_order&quot;:2},{&quot;id&quot;:6335,&quot;token&quot;:&quot;d:1&quot;,&quot;particle_id&quot;:&quot;img5-m27-p3&quot;,&quot;molecule_id&quot;:&quot;img5-m27&quot;,&quot;atom_order&quot;:3}]}</metadata>
  <rect x="0" y="0" width="82" height="77" fill="#f8f0d8"/>
  <image href="file:///C:/Users/HHHES/AppData/Roaming/com.voynichlab.datasetcreator/images/1/a6cd3b6e-2a78-4b30-a4be-5d186aea258e.jpg" x="-2032" y="-809" width="2691" height="3770" opacity="0.92"/>
  <rect x="0.5" y="0.5" width="81" height="76" fill="none" stroke="#111827" stroke-width="1" opacity="0.35"/>
  <polyline points="35,40 35,41 35,42 36,42 36,43 36,44 37,44 37,45 38,46 38,47 39,47 39,48 40,49 40,50 41,50 41,51 42,51 42,52 43,52 43,53 43,54 44,54 44,55 44,56 45,56 45,57 46,57 46,58 47,59 47,60 48,60 48,61" fill="none" stroke="#00a2ff" stroke-width="3" stroke-linecap="round" stroke-linejoin="round" opacity="0.95">
    <title>6138 f:1</title>
  </polyline>
  <polyline points="46,60 47,60 48,60 50,60 52,60 53,59 54,59 55,59 56,58 57,58 58,57 59,57 59,56 60,56 61,55 62,54 63,53 63,52 64,52 65,51 65,50 66,49 66,47 66,46 66,45 66,44 66,43 66,42 66,41 65,40 65,38 65,37 64,36 63,34 62,33 62,32 61,32 60,31 60,30 59,29 59,28 58,28 57,27 57,26 56,26 55,25 54,25 53,24 53,23 52,23 51,23 50,23 50,22 49,22 48,22" fill="none" stroke="#00ff7f" stroke-width="3" stroke-linecap="round" stroke-linejoin="round" opacity="0.95">
    <title>6275 i:1</title>
  </polyline>
  <polyline points="16,22 16,21 17,21 18,20 19,19 20,19 20,18 21,18 22,18 23,17 24,17 24,16 25,16 26,16 27,16 29,16 31,16 33,16 34,17 35,17 36,17 37,18 38,18 39,18 40,19 41,19 43,19 44,20 45,20 46,21 47,22 48,22 49,22 49,23 50,23 51,23 52,24 53,24 53,25 54,25 55,25 55,26" fill="none" stroke="#ff2d55" stroke-width="3" stroke-linecap="round" stroke-linejoin="round" opacity="0.95">
    <title>6335 d:1</title>
  </polyline>
</svg>
