<?xml version="1.0" encoding="UTF-8"?>
<svg xmlns="http://www.w3.org/2000/svg" width="89" height="54" viewBox="0 0 89 54">
  <title>particle img5-m61-p5 e:1 g:1 e:1</title>
  <metadata>{&quot;entityType&quot;:&quot;particle&quot;,&quot;entityId&quot;:&quot;img5-m61-p5&quot;,&quot;token&quot;:&quot;e:1 g:1 e:1&quot;,&quot;signature&quot;:&quot;e:1 g:1 e:1&quot;,&quot;imageName&quot;:&quot;page-005.jpg&quot;,&quot;imageId&quot;:5,&quot;bounds&quot;:{&quot;x&quot;:547,&quot;y&quot;:2564,&quot;w&quot;:89,&quot;h&quot;:54},&quot;atoms&quot;:[{&quot;id&quot;:5789,&quot;token&quot;:&quot;e:1&quot;,&quot;particle_id&quot;:&quot;img5-m61-p5&quot;,&quot;molecule_id&quot;:&quot;img5-m61&quot;,&quot;atom_order&quot;:1},{&quot;id&quot;:6436,&quot;token&quot;:&quot;g:1&quot;,&quot;particle_id&quot;:&quot;img5-m61-p5&quot;,&quot;molecule_id&quot;:&quot;img5-m61&quot;,&quot;atom_order&quot;:2},{&quot;id&quot;:5788,&quot;token&quot;:&quot;e:1&quot;,&quot;particle_id&quot;:&quot;img5-m61-p5&quot;,&quot;molecule_id&quot;:&quot;img5-m61&quot;,&quot;atom_order&quot;:3}]}</metadata>
  <rect x="0" y="0" width="89" height="54" fill="#f8f0d8"/>
  <image href="file:///C:/Users/HHHES/AppData/Roaming/com.voynichlab.datasetcreator/images/1/a6cd3b6e-2a78-4b30-a4be-5d186aea258e.jpg" x="-547" y="-2564" width="2691" height="3770" opacity="0.92"/>
  <rect x="0.5" y="0.5" width="88" height="53" fill="none" stroke="#111827" stroke-width="1" opacity="0.35"/>
  <polyline points="31,35 31,36 30,36 30,37 29,37 28,37 28,38 27,38 26,38 25,38 24,38 23,38 22,38 21,38 21,37 20,37 19,37 18,37 18,36 17,36 16,36 16,35 16,34 16,33 16,32 16,31 16,30 16,29 17,29 17,28 17,27 17,26 18,26 18,25 18,24 19,24 19,23 19,22 20,22 21,22 21,21 22,21 22,20 23,20 24,20 24,19 25,19 26,19 27,19 27,18" fill="none" stroke="#f2e45c" stroke-width="3" stroke-linecap="round" stroke-linejoin="round" opacity="0.95">
    <title>5789 e:1</title>
  </polyline>
  <polyline points="21,20 22,20 23,20 24,20 25,20 26,20 27,20 28,20 29,20 30,20 32,20 33,20 34,20 35,20 36,20 37,20 39,20 40,21 41,21 42,21 43,21 44,21 45,21 46,21 47,20 48,20 49,20 50,20 51,20 52,20 53,20 54,20 54,19 55,19 56,19 57,19 58,19 59,19 60,19 61,19 62,18 63,18 64,18 65,18 66,18 67,18" fill="none" stroke="#7c3cff" stroke-width="3" stroke-linecap="round" stroke-linejoin="round" opacity="0.95">
    <title>6436 g:1</title>
  </polyline>
  <polyline points="73,33 73,34 72,34 72,35 71,35 70,35 70,36 69,36 68,36 67,36 66,36 65,36 64,36 63,36 63,35 62,35 61,35 60,35 60,34 59,34 58,34 58,33 58,32 58,31 58,30 58,29 58,28 58,27 59,27 59,26 59,25 59,24 60,24 60,23 60,22 61,22 61,21 61,20 62,20 63,20 63,19 64,19 64,18 65,18 66,18 66,17 67,17 68,17 69,17 69,16" fill="none" stroke="#f2e45c" stroke-width="3" stroke-linecap="round" stroke-linejoin="round" opacity="0.95">
    <title>5788 e:1</title>
  </polyline>
</svg>
