<?xml version="1.0" encoding="UTF-8"?>
<svg xmlns="http://www.w3.org/2000/svg" width="96" height="96" viewBox="0 0 96 96">
  <title>particle img5-m65-p1 a:1 m:1 c:1</title>
  <metadata>{&quot;entityType&quot;:&quot;particle&quot;,&quot;entityId&quot;:&quot;img5-m65-p1&quot;,&quot;token&quot;:&quot;a:1 m:1 c:1&quot;,&quot;signature&quot;:&quot;a:1 m:1 c:1&quot;,&quot;imageName&quot;:&quot;page-005.jpg&quot;,&quot;imageId&quot;:5,&quot;bounds&quot;:{&quot;x&quot;:978,&quot;y&quot;:2563,&quot;w&quot;:96,&quot;h&quot;:96},&quot;atoms&quot;:[{&quot;id&quot;:5960,&quot;token&quot;:&quot;a:1&quot;,&quot;particle_id&quot;:&quot;img5-m65-p1&quot;,&quot;molecule_id&quot;:&quot;img5-m65&quot;,&quot;atom_order&quot;:1},{&quot;id&quot;:6393,&quot;token&quot;:&quot;m:1&quot;,&quot;particle_id&quot;:&quot;img5-m65-p1&quot;,&quot;molecule_id&quot;:&quot;img5-m65&quot;,&quot;atom_order&quot;:2},{&quot;id&quot;:6033,&quot;token&quot;:&quot;c:1&quot;,&quot;particle_id&quot;:&quot;img5-m65-p1&quot;,&quot;molecule_id&quot;:&quot;img5-m65&quot;,&quot;atom_order&quot;:3}]}</metadata>
  <rect x="0" y="0" width="96" height="96" fill="#f8f0d8"/>
  <image href="file:///C:/Users/HHHES/AppData/Roaming/com.voynichlab.datasetcreator/images/1/a6cd3b6e-2a78-4b30-a4be-5d186aea258e.jpg" x="-978" y="-2563" width="2691" height="3770" opacity="0.92"/>
  <rect x="0.5" y="0.5" width="95" height="95" fill="none" stroke="#111827" stroke-width="1" opacity="0.35"/>
  <polyline points="39,47 39,48 39,49 39,50 39,51 39,52 39,54 39,55 39,56 39,57 39,58 39,59 39,60 39,61 39,62 39,63 39,64 39,65 39,66 39,67 38,68 38,69 38,70 38,71 38,73 38,74 38,75 38,76 39,77 39,78 39,79 39,80" fill="none" stroke="#00f0b5" stroke-width="3" stroke-linecap="round" stroke-linejoin="round" opacity="0.95">
    <title>5960 a:1</title>
  </polyline>
  <polyline points="39,50 39,49 39,48 39,47 39,46 39,45 39,44 39,43 39,42 39,41 39,40 39,39 39,38 39,37 39,36 39,35 39,34 39,33 39,32 39,31 39,30 39,29 40,28 40,27 40,26 40,25 40,24 40,23 40,22 40,21 40,20 40,19 40,18 40,17 39,17 39,16 38,16 37,16 36,16 35,17 34,17 33,18 32,19 32,20 31,20 29,21 28,22 27,23 26,23 26,24 25,24 24,24 23,25 22,26 21,26 21,27 20,27 20,28 19,28 18,29 17,30 17,31 16,32 17,32 18,32 19,32 20,32 21,32 22,32 23,32 24,32 25,32 26,32 27,32 28,32 29,32 30,32 31,32 33,32 35,32 36,32 36,31 37,31 38,31 39,31 40,31 41,30 42,30 44,30 45,29 46,29 47,29 49,29 50,29 51,29 52,29 54,29 55,29 56,29 57,29 58,28 60,28 61,27 62,27 63,27 64,27 65,26 66,26 67,26 68,26 69,26 70,26 71,26 72,26 73,26" fill="none" stroke="#ff00ff" stroke-width="3" stroke-linecap="round" stroke-linejoin="round" opacity="0.95">
    <title>6393 m:1</title>
  </polyline>
  <polyline points="62,32 62,33 61,33 61,34 61,35 60,35 60,36 60,37 60,38 60,39 60,40 60,41 60,42 61,42 61,43 62,43 62,44 63,45 64,45 65,45 66,45 66,46 67,46 68,46 69,46 70,46 71,46 72,46 73,46 74,46 74,45 75,45 76,45 76,44 76,43 77,43 77,42 78,42 78,41 78,40 79,40 79,39 79,38 80,38 80,37 80,36 80,35 80,34 80,33 80,32 79,32 79,31 79,30 78,30 78,29 77,29 77,28 76,28 76,27 75,27 74,27 74,26 73,26 72,26 71,26 70,26 69,26 68,26 67,26 66,27 65,27 65,28 64,28 64,29 63,29 62,29 62,30 61,30 61,31 61,32" fill="none" stroke="#8aff00" stroke-width="3" stroke-linecap="round" stroke-linejoin="round" opacity="0.95">
    <title>6033 c:1</title>
  </polyline>
</svg>
