<?xml version="1.0" encoding="UTF-8"?>
<svg xmlns="http://www.w3.org/2000/svg" width="81" height="112" viewBox="0 0 81 112">
  <title>particle img5-m6-p2 a:1 e:1 b:1 c:1 a:1</title>
  <metadata>{&quot;entityType&quot;:&quot;particle&quot;,&quot;entityId&quot;:&quot;img5-m6-p2&quot;,&quot;token&quot;:&quot;a:1 e:1 b:1 c:1 a:1&quot;,&quot;signature&quot;:&quot;a:1 e:1 b:1 c:1 a:1&quot;,&quot;imageName&quot;:&quot;page-005.jpg&quot;,&quot;imageId&quot;:5,&quot;bounds&quot;:{&quot;x&quot;:1059,&quot;y&quot;:447,&quot;w&quot;:81,&quot;h&quot;:112},&quot;atoms&quot;:[{&quot;id&quot;:5523,&quot;token&quot;:&quot;a:1&quot;,&quot;particle_id&quot;:&quot;img5-m6-p2&quot;,&quot;molecule_id&quot;:&quot;img5-m6&quot;,&quot;atom_order&quot;:1},{&quot;id&quot;:5650,&quot;token&quot;:&quot;e:1&quot;,&quot;particle_id&quot;:&quot;img5-m6-p2&quot;,&quot;molecule_id&quot;:&quot;img5-m6&quot;,&quot;atom_order&quot;:2},{&quot;id&quot;:5559,&quot;token&quot;:&quot;b:1&quot;,&quot;particle_id&quot;:&quot;img5-m6-p2&quot;,&quot;molecule_id&quot;:&quot;img5-m6&quot;,&quot;atom_order&quot;:3},{&quot;id&quot;:5576,&quot;token&quot;:&quot;c:1&quot;,&quot;particle_id&quot;:&quot;img5-m6-p2&quot;,&quot;molecule_id&quot;:&quot;img5-m6&quot;,&quot;atom_order&quot;:4},{&quot;id&quot;:5524,&quot;token&quot;:&quot;a:1&quot;,&quot;particle_id&quot;:&quot;img5-m6-p2&quot;,&quot;molecule_id&quot;:&quot;img5-m6&quot;,&quot;atom_order&quot;:5}]}</metadata>
  <rect x="0" y="0" width="81" height="112" fill="#f8f0d8"/>
  <image href="file:///C:/Users/HHHES/AppData/Roaming/com.voynichlab.datasetcreator/images/1/a6cd3b6e-2a78-4b30-a4be-5d186aea258e.jpg" x="-1059" y="-447" width="2691" height="3770" opacity="0.92"/>
  <rect x="0.5" y="0.5" width="80" height="111" fill="none" stroke="#111827" stroke-width="1" opacity="0.35"/>
  <polyline points="26,93 26,92 27,91 27,90 27,89 27,88 27,87 28,86 28,85 28,84 28,83 28,82 28,81 27,81 27,80 27,79 27,78 27,77 27,76 27,75 27,74 27,73 27,72 27,71 27,70 27,69 27,68 27,67 27,66 27,65 27,64 27,63 27,62 27,61 27,60 28,59 28,58 28,57 28,56 28,55 28,54 29,53 29,52 29,51 29,50 29,49 29,48 29,47 29,46 29,45 29,44 29,43 29,42 30,41 30,40 30,39 30,38 30,37 30,36 30,35 30,34 30,33 30,32 30,31 30,30 30,29 30,28 30,27 30,26 30,25 30,24 30,23 30,22 30,21 30,20 30,19 30,18 30,17 30,16" fill="none" stroke="#00f0b5" stroke-width="3" stroke-linecap="round" stroke-linejoin="round" opacity="0.95">
    <title>5523 a:1</title>
  </polyline>
  <polyline points="30,16 29,16 28,16 28,17 27,17 26,17 25,18 24,18 23,18 23,19 22,19 21,20 20,20 19,21 18,22 17,23 17,24 16,24 16,25 16,26 17,26 17,27 17,28 18,28 18,29 18,30 19,30 19,31 20,31 21,31 22,31 22,32 23,32" fill="none" stroke="#f2e45c" stroke-width="3" stroke-linecap="round" stroke-linejoin="round" opacity="0.95">
    <title>5650 e:1</title>
  </polyline>
  <polyline points="20,30 21,30 21,31 22,31 22,32 23,32 24,33 25,33 26,33 26,34 27,34 28,34 29,34 30,34 31,35 33,35 34,35 35,35 36,35 37,35 38,35 39,35 40,35 41,35 42,35 43,35 44,35 45,35 46,35 47,35 48,35 49,35 50,35 51,35 52,35 53,35 54,35 54,34 55,34 56,34 57,34 58,34 58,33 59,33 60,33 61,32 62,32 62,31 63,31 63,30 64,30 64,29 65,29" fill="none" stroke="#2f7df6" stroke-width="3" stroke-linecap="round" stroke-linejoin="round" opacity="0.95">
    <title>5559 b:1</title>
  </polyline>
  <polyline points="45,22 45,23 44,23 44,24 44,25 43,25 43,26 43,27 43,28 43,29 43,30 43,31 43,32 44,32 44,33 45,33 45,34 46,35 47,35 48,35 49,35 49,36 50,36 51,36 52,36 53,36 54,36 55,36 56,36 57,36 57,35 58,35 59,35 59,34 59,33 60,33 60,32 61,32 61,31 61,30 62,30 62,29 62,28 63,28 63,27 63,26 63,25 63,24 63,23 63,22 62,22 62,21 62,20 61,20 61,19 60,19 60,18 59,18 59,17 58,17 57,17 57,16 56,16 55,16 54,16 53,16 52,16 51,16 50,16 49,17 48,17 48,18 47,18 47,19 46,19 45,19 45,20 44,20 44,21 44,22" fill="none" stroke="#8aff00" stroke-width="3" stroke-linecap="round" stroke-linejoin="round" opacity="0.95">
    <title>5576 c:1</title>
  </polyline>
  <polyline points="39,96 39,95 40,94 40,93 40,92 40,91 40,90 41,89 41,88 41,87 41,86 41,85 41,84 40,84 40,83 40,82 40,81 40,80 40,79 40,78 40,77 40,76 40,75 40,74 40,73 40,72 40,71 40,70 40,69 40,68 40,67 40,66 40,65 40,64 40,63 41,62 41,61 41,60 41,59 41,58 41,57 42,56 42,55 42,54 42,53 42,52 42,51 42,50 42,49 42,48 42,47 42,46 42,45 43,44 43,43 43,42 43,41 43,40 43,39 43,38 43,37 43,36 43,35 43,34 43,33 43,32 43,31 43,30 43,29 43,28 43,27 43,26 43,25 43,24 43,23 43,22 43,21 43,20 43,19" fill="none" stroke="#00f0b5" stroke-width="3" stroke-linecap="round" stroke-linejoin="round" opacity="0.95">
    <title>5524 a:1</title>
  </polyline>
</svg>
