<?xml version="1.0" encoding="UTF-8"?>
<svg xmlns="http://www.w3.org/2000/svg" width="70" height="78" viewBox="0 0 70 78">
  <title>particle img5-m58-p5 f:1 j:1</title>
  <metadata>{&quot;entityType&quot;:&quot;particle&quot;,&quot;entityId&quot;:&quot;img5-m58-p5&quot;,&quot;token&quot;:&quot;f:1 j:1&quot;,&quot;signature&quot;:&quot;f:1 j:1&quot;,&quot;imageName&quot;:&quot;page-005.jpg&quot;,&quot;imageId&quot;:5,&quot;bounds&quot;:{&quot;x&quot;:2279,&quot;y&quot;:2489,&quot;w&quot;:70,&quot;h&quot;:78},&quot;atoms&quot;:[{&quot;id&quot;:6164,&quot;token&quot;:&quot;f:1&quot;,&quot;particle_id&quot;:&quot;img5-m58-p5&quot;,&quot;molecule_id&quot;:&quot;img5-m58&quot;,&quot;atom_order&quot;:1},{&quot;id&quot;:6469,&quot;token&quot;:&quot;j:1&quot;,&quot;particle_id&quot;:&quot;img5-m58-p5&quot;,&quot;molecule_id&quot;:&quot;img5-m58&quot;,&quot;atom_order&quot;:2}]}</metadata>
  <rect x="0" y="0" width="70" height="78" fill="#f8f0d8"/>
  <image href="file:///C:/Users/HHHES/AppData/Roaming/com.voynichlab.datasetcreator/images/1/a6cd3b6e-2a78-4b30-a4be-5d186aea258e.jpg" x="-2279" y="-2489" width="2691" height="3770" opacity="0.92"/>
  <rect x="0.5" y="0.5" width="69" height="77" fill="none" stroke="#111827" stroke-width="1" opacity="0.35"/>
  <polyline points="32,28 32,29 32,30 33,30 33,31 33,32 34,32 34,33 35,34 35,35 36,35 36,36 37,37 37,38 38,38 38,39 39,39 39,40 40,40 40,41 40,42 41,42 41,43 41,44 42,44 42,45 43,45 43,46 44,47 44,48 45,48 45,49" fill="none" stroke="#00a2ff" stroke-width="3" stroke-linecap="round" stroke-linejoin="round" opacity="0.95">
    <title>6164 f:1</title>
  </polyline>
  <polyline points="32,29 33,28 34,27 35,27 35,26 36,25 37,25 37,24 38,24 39,23 40,23 40,22 41,22 42,21 43,20 44,20 45,19 46,19 46,18 47,18 48,17 49,17 50,17 51,17 51,16 52,16 53,16 53,17 54,17 54,18 54,19 54,20 54,21 54,22 53,22 53,23 52,24 51,24 51,25 50,25 50,26 49,27 48,28 47,29 47,30 46,30 46,31 45,31 45,32 44,33 44,34 43,34 42,35 42,36 41,37 40,38 40,39 39,39 38,40 38,41 37,41 37,42 36,43 35,44 34,44 34,45 33,46 32,47 30,48 29,50 28,50 26,51 26,52 25,53 24,54 23,55 22,56 22,57 21,57 21,58 20,58 19,59 19,60 18,60 17,61 16,62" fill="none" stroke="#4a9e6a" stroke-width="3" stroke-linecap="round" stroke-linejoin="round" opacity="0.95">
    <title>6469 j:1</title>
  </polyline>
</svg>
