<?xml version="1.0" encoding="UTF-8"?>
<svg xmlns="http://www.w3.org/2000/svg" width="51" height="83" viewBox="0 0 51 83">
  <title>particle img5-m103-p3 e:1 h:1</title>
  <metadata>{&quot;entityType&quot;:&quot;particle&quot;,&quot;entityId&quot;:&quot;img5-m103-p3&quot;,&quot;token&quot;:&quot;e:1 h:1&quot;,&quot;signature&quot;:&quot;e:1 h:1&quot;,&quot;imageName&quot;:&quot;page-005.jpg&quot;,&quot;imageId&quot;:5,&quot;bounds&quot;:{&quot;x&quot;:905,&quot;y&quot;:2890,&quot;w&quot;:51,&quot;h&quot;:83},&quot;atoms&quot;:[{&quot;id&quot;:5837,&quot;token&quot;:&quot;e:1&quot;,&quot;particle_id&quot;:&quot;img5-m103-p3&quot;,&quot;molecule_id&quot;:&quot;img5-m103&quot;,&quot;atom_order&quot;:1},{&quot;id&quot;:5944,&quot;token&quot;:&quot;h:1&quot;,&quot;particle_id&quot;:&quot;img5-m103-p3&quot;,&quot;molecule_id&quot;:&quot;img5-m103&quot;,&quot;atom_order&quot;:2}]}</metadata>
  <rect x="0" y="0" width="51" height="83" fill="#f8f0d8"/>
  <image href="file:///C:/Users/HHHES/AppData/Roaming/com.voynichlab.datasetcreator/images/1/a6cd3b6e-2a78-4b30-a4be-5d186aea258e.jpg" x="-905" y="-2890" width="2691" height="3770" opacity="0.92"/>
  <rect x="0.5" y="0.5" width="50" height="82" fill="none" stroke="#111827" stroke-width="1" opacity="0.35"/>
  <polyline points="31,33 31,34 30,34 30,35 29,35 28,35 28,36 27,36 26,36 25,36 24,36 23,36 22,36 21,36 21,35 20,35 19,35 18,35 18,34 17,34 16,34 16,33 16,32 16,31 16,30 16,29 16,28 16,27 17,27 17,26 17,25 17,24 18,24 18,23 18,22 19,22 19,21 19,20 20,20 21,20 21,19 22,19 22,18 23,18 24,18 24,17 25,17 26,17 27,17 27,16" fill="none" stroke="#f2e45c" stroke-width="3" stroke-linecap="round" stroke-linejoin="round" opacity="0.95">
    <title>5837 e:1</title>
  </polyline>
  <polyline points="23,17 24,17 24,18 25,18 26,18 26,19 26,20 27,20 28,21 29,22 30,23 31,24 31,25 32,25 32,26 33,26 33,27 33,28 34,29 34,30 34,31 34,32 35,32 35,33 35,34 35,35 35,36 35,37 35,38 34,38 34,39 34,40 34,41 34,42 33,43 33,44 33,45 32,46 32,47 31,47 31,48 30,49 30,50 29,50 29,51 28,51 28,52 27,52 27,53 26,53 26,54 25,55 25,56 24,56 24,57 23,57 23,58 22,58 22,59 21,59 21,60 20,60 20,61 19,62 19,63 18,63 18,64 17,65 17,66 16,67" fill="none" stroke="#ff8c00" stroke-width="3" stroke-linecap="round" stroke-linejoin="round" opacity="0.95">
    <title>5944 h:1</title>
  </polyline>
</svg>
