<?xml version="1.0" encoding="UTF-8"?>
<svg xmlns="http://www.w3.org/2000/svg" width="64" height="84" viewBox="0 0 64 84">
  <title>particle img5-m11-p2 a:1 b:1 c:1 a:1</title>
  <metadata>{&quot;entityType&quot;:&quot;particle&quot;,&quot;entityId&quot;:&quot;img5-m11-p2&quot;,&quot;token&quot;:&quot;a:1 b:1 c:1 a:1&quot;,&quot;signature&quot;:&quot;a:1 b:1 c:1 a:1&quot;,&quot;imageName&quot;:&quot;page-005.jpg&quot;,&quot;imageId&quot;:5,&quot;bounds&quot;:{&quot;x&quot;:1073,&quot;y&quot;:547,&quot;w&quot;:64,&quot;h&quot;:84},&quot;atoms&quot;:[{&quot;id&quot;:5529,&quot;token&quot;:&quot;a:1&quot;,&quot;particle_id&quot;:&quot;img5-m11-p2&quot;,&quot;molecule_id&quot;:&quot;img5-m11&quot;,&quot;atom_order&quot;:1},{&quot;id&quot;:5564,&quot;token&quot;:&quot;b:1&quot;,&quot;particle_id&quot;:&quot;img5-m11-p2&quot;,&quot;molecule_id&quot;:&quot;img5-m11&quot;,&quot;atom_order&quot;:2},{&quot;id&quot;:5584,&quot;token&quot;:&quot;c:1&quot;,&quot;particle_id&quot;:&quot;img5-m11-p2&quot;,&quot;molecule_id&quot;:&quot;img5-m11&quot;,&quot;atom_order&quot;:3},{&quot;id&quot;:5530,&quot;token&quot;:&quot;a:1&quot;,&quot;particle_id&quot;:&quot;img5-m11-p2&quot;,&quot;molecule_id&quot;:&quot;img5-m11&quot;,&quot;atom_order&quot;:4}]}</metadata>
  <rect x="0" y="0" width="64" height="84" fill="#f8f0d8"/>
  <image href="file:///C:/Users/HHHES/AppData/Roaming/com.voynichlab.datasetcreator/images/1/a6cd3b6e-2a78-4b30-a4be-5d186aea258e.jpg" x="-1073" y="-547" width="2691" height="3770" opacity="0.92"/>
  <rect x="0.5" y="0.5" width="63" height="83" fill="none" stroke="#111827" stroke-width="1" opacity="0.35"/>
  <polyline points="17,67 17,66 17,65 17,64 17,63 17,62 17,61 17,60 16,59 16,58 16,57 16,56 16,55 16,54 16,53 16,52 16,51 16,50 16,49 16,47 16,46 17,46 17,45 17,44 17,43 17,42 17,41 18,40 18,39 18,38 18,37 18,36 19,35 19,34 19,33 19,32 19,31 19,30 19,29 19,28 19,27 19,26 19,25 19,24 19,23 19,22 19,21 19,20" fill="none" stroke="#00f0b5" stroke-width="3" stroke-linecap="round" stroke-linejoin="round" opacity="0.95">
    <title>5529 a:1</title>
  </polyline>
  <polyline points="18,22 18,23 18,24 18,25 18,26 18,27 18,28 19,29 19,30 19,31 20,31 20,32 21,32 21,33 22,33 22,34 23,34 24,34 25,35 26,35 27,35 28,35 29,35 30,35 31,35 32,35 33,35 34,35 35,35 35,34 36,34 37,34 37,33 38,33 39,33 39,32 40,32 41,32 41,31 42,31 42,30 43,30 43,29 43,28 44,28" fill="none" stroke="#2f7df6" stroke-width="3" stroke-linecap="round" stroke-linejoin="round" opacity="0.95">
    <title>5564 b:1</title>
  </polyline>
  <polyline points="30,22 30,23 29,23 29,24 29,25 28,25 28,26 28,27 28,28 28,29 28,30 28,31 28,32 29,32 29,33 30,33 30,34 31,35 32,35 33,35 34,35 34,36 35,36 36,36 37,36 38,36 39,36 40,36 41,36 42,36 42,35 43,35 44,35 44,34 44,33 45,33 45,32 46,32 46,31 46,30 47,30 47,29 47,28 48,28 48,27 48,26 48,25 48,24 48,23 48,22 47,22 47,21 47,20 46,20 46,19 45,19 45,18 44,18 44,17 43,17 42,17 42,16 41,16 40,16 39,16 38,16 37,16 36,16 35,16 34,17 33,17 33,18 32,18 32,19 31,19 30,19 30,20 29,20 29,21 29,22" fill="none" stroke="#8aff00" stroke-width="3" stroke-linecap="round" stroke-linejoin="round" opacity="0.95">
    <title>5584 c:1</title>
  </polyline>
  <polyline points="31,22 31,23 31,24 30,25 30,26 30,27 30,28 29,29 29,30 29,31 29,32 29,33 29,34 29,35 29,36 29,37 28,38 28,39 28,40 28,41 28,42 28,43 28,44 28,45 28,46 28,47 28,49 28,50 28,51 28,52 28,53 28,54 28,55 28,56 28,57 28,58 28,59 28,60 28,61 28,62 28,63 28,64 28,65 28,66 28,67 28,68" fill="none" stroke="#00f0b5" stroke-width="3" stroke-linecap="round" stroke-linejoin="round" opacity="0.95">
    <title>5530 a:1</title>
  </polyline>
</svg>
