<?xml version="1.0" encoding="UTF-8"?>
<svg xmlns="http://www.w3.org/2000/svg" width="56" height="85" viewBox="0 0 56 85">
  <title>particle img5-m90-p3 f:1 i:1 d:1</title>
  <metadata>{&quot;entityType&quot;:&quot;particle&quot;,&quot;entityId&quot;:&quot;img5-m90-p3&quot;,&quot;token&quot;:&quot;f:1 i:1 d:1&quot;,&quot;signature&quot;:&quot;f:1 i:1 d:1&quot;,&quot;imageName&quot;:&quot;page-005.jpg&quot;,&quot;imageId&quot;:5,&quot;bounds&quot;:{&quot;x&quot;:1067,&quot;y&quot;:2781,&quot;w&quot;:56,&quot;h&quot;:85},&quot;atoms&quot;:[{&quot;id&quot;:6204,&quot;token&quot;:&quot;f:1&quot;,&quot;particle_id&quot;:&quot;img5-m90-p3&quot;,&quot;molecule_id&quot;:&quot;img5-m90&quot;,&quot;atom_order&quot;:1},{&quot;id&quot;:6305,&quot;token&quot;:&quot;i:1&quot;,&quot;particle_id&quot;:&quot;img5-m90-p3&quot;,&quot;molecule_id&quot;:&quot;img5-m90&quot;,&quot;atom_order&quot;:2},{&quot;id&quot;:6373,&quot;token&quot;:&quot;d:1&quot;,&quot;particle_id&quot;:&quot;img5-m90-p3&quot;,&quot;molecule_id&quot;:&quot;img5-m90&quot;,&quot;atom_order&quot;:3}]}</metadata>
  <rect x="0" y="0" width="56" height="85" fill="#f8f0d8"/>
  <image href="file:///C:/Users/HHHES/AppData/Roaming/com.voynichlab.datasetcreator/images/1/a6cd3b6e-2a78-4b30-a4be-5d186aea258e.jpg" x="-1067" y="-2781" width="2691" height="3770" opacity="0.92"/>
  <rect x="0.5" y="0.5" width="55" height="84" fill="none" stroke="#111827" stroke-width="1" opacity="0.35"/>
  <polyline points="16,48 16,49 16,50 17,50 17,51 17,52 18,52 18,53 19,54 19,55 20,55 20,56 21,57 21,58 22,58 22,59 23,59 23,60 24,60 24,61 24,62 25,62 25,63 25,64 26,64 26,65 27,65 27,66 28,67 28,68 29,68 29,69" fill="none" stroke="#00a2ff" stroke-width="3" stroke-linecap="round" stroke-linejoin="round" opacity="0.95">
    <title>6204 f:1</title>
  </polyline>
  <polyline points="21,58 22,58 23,57 24,56 25,56 27,55 28,55 28,54 29,54 29,53 30,53 31,52 32,51 32,50 33,49 33,48 34,47 35,46 35,45 36,44 36,43 36,42 37,42 37,41 37,40 38,39 38,38 38,37 39,37 39,36 39,35 39,34 40,33 40,32 40,31 40,30 40,29 39,29 39,28 39,27 39,26 39,25 38,24 38,23" fill="none" stroke="#00ff7f" stroke-width="3" stroke-linecap="round" stroke-linejoin="round" opacity="0.95">
    <title>6305 i:1</title>
  </polyline>
  <polyline points="17,22 17,21 18,20 19,19 20,18 21,18 21,17 22,17 23,16 24,16 25,16 26,16 27,16 28,16 29,16 30,17 31,17 32,18 33,18 34,19 35,19 35,20 36,20 36,21 37,21 37,22 38,23 38,24 38,25 38,26 39,26 39,27" fill="none" stroke="#ff2d55" stroke-width="3" stroke-linecap="round" stroke-linejoin="round" opacity="0.95">
    <title>6373 d:1</title>
  </polyline>
</svg>
