<?xml version="1.0" encoding="UTF-8"?>
<svg xmlns="http://www.w3.org/2000/svg" width="53" height="82" viewBox="0 0 53 82">
  <title>particle img5-m17-p2 e:1 h:1</title>
  <metadata>{&quot;entityType&quot;:&quot;particle&quot;,&quot;entityId&quot;:&quot;img5-m17-p2&quot;,&quot;token&quot;:&quot;e:1 h:1&quot;,&quot;signature&quot;:&quot;e:1 h:1&quot;,&quot;imageName&quot;:&quot;page-005.jpg&quot;,&quot;imageId&quot;:5,&quot;bounds&quot;:{&quot;x&quot;:1544,&quot;y&quot;:666,&quot;w&quot;:53,&quot;h&quot;:82},&quot;atoms&quot;:[{&quot;id&quot;:5679,&quot;token&quot;:&quot;e:1&quot;,&quot;particle_id&quot;:&quot;img5-m17-p2&quot;,&quot;molecule_id&quot;:&quot;img5-m17&quot;,&quot;atom_order&quot;:1},{&quot;id&quot;:5907,&quot;token&quot;:&quot;h:1&quot;,&quot;particle_id&quot;:&quot;img5-m17-p2&quot;,&quot;molecule_id&quot;:&quot;img5-m17&quot;,&quot;atom_order&quot;:2}]}</metadata>
  <rect x="0" y="0" width="53" height="82" fill="#f8f0d8"/>
  <image href="file:///C:/Users/HHHES/AppData/Roaming/com.voynichlab.datasetcreator/images/1/a6cd3b6e-2a78-4b30-a4be-5d186aea258e.jpg" x="-1544" y="-666" width="2691" height="3770" opacity="0.92"/>
  <rect x="0.5" y="0.5" width="52" height="81" fill="none" stroke="#111827" stroke-width="1" opacity="0.35"/>
  <polyline points="31,33 31,34 30,34 30,35 29,35 28,35 28,36 27,36 26,36 25,36 24,36 23,36 22,36 21,36 21,35 20,35 19,35 18,35 18,34 17,34 16,34 16,33 16,32 16,31 16,30 16,29 16,28 16,27 17,27 17,26 17,25 17,24 18,24 18,23 18,22 19,22 19,21 19,20 20,20 21,20 21,19 22,19 22,18 23,18 24,18 24,17 25,17 26,17 27,17 27,16" fill="none" stroke="#f2e45c" stroke-width="3" stroke-linecap="round" stroke-linejoin="round" opacity="0.95">
    <title>5679 e:1</title>
  </polyline>
  <polyline points="25,16 26,16 26,17 27,17 28,17 28,18 28,19 29,19 30,20 31,21 32,22 33,23 33,24 34,24 34,25 35,25 35,26 35,27 36,28 36,29 36,30 36,31 37,31 37,32 37,33 37,34 37,35 37,36 37,37 36,37 36,38 36,39 36,40 36,41 35,42 35,43 35,44 34,45 34,46 33,46 33,47 32,48 32,49 31,49 31,50 30,50 30,51 29,51 29,52 28,52 28,53 27,54 27,55 26,55 26,56 25,56 25,57 24,57 24,58 23,58 23,59 22,59 22,60 21,61 21,62 20,62 20,63 19,64 19,65 18,66" fill="none" stroke="#ff8c00" stroke-width="3" stroke-linecap="round" stroke-linejoin="round" opacity="0.95">
    <title>5907 h:1</title>
  </polyline>
</svg>
