<?xml version="1.0" encoding="UTF-8"?>
<svg xmlns="http://www.w3.org/2000/svg" width="53" height="71" viewBox="0 0 53 71">
  <title>particle img5-m48-p3 e:1 c:1 h:2</title>
  <metadata>{&quot;entityType&quot;:&quot;particle&quot;,&quot;entityId&quot;:&quot;img5-m48-p3&quot;,&quot;token&quot;:&quot;e:1 c:1 h:2&quot;,&quot;signature&quot;:&quot;e:1 c:1 h:2&quot;,&quot;imageName&quot;:&quot;page-005.jpg&quot;,&quot;imageId&quot;:5,&quot;bounds&quot;:{&quot;x&quot;:527,&quot;y&quot;:2455,&quot;w&quot;:53,&quot;h&quot;:71},&quot;atoms&quot;:[{&quot;id&quot;:5765,&quot;token&quot;:&quot;e:1&quot;,&quot;particle_id&quot;:&quot;img5-m48-p3&quot;,&quot;molecule_id&quot;:&quot;img5-m48&quot;,&quot;atom_order&quot;:1},{&quot;id&quot;:6012,&quot;token&quot;:&quot;c:1&quot;,&quot;particle_id&quot;:&quot;img5-m48-p3&quot;,&quot;molecule_id&quot;:&quot;img5-m48&quot;,&quot;atom_order&quot;:2},{&quot;id&quot;:6089,&quot;token&quot;:&quot;h:2&quot;,&quot;particle_id&quot;:&quot;img5-m48-p3&quot;,&quot;molecule_id&quot;:&quot;img5-m48&quot;,&quot;atom_order&quot;:3}]}</metadata>
  <rect x="0" y="0" width="53" height="71" fill="#f8f0d8"/>
  <image href="file:///C:/Users/HHHES/AppData/Roaming/com.voynichlab.datasetcreator/images/1/a6cd3b6e-2a78-4b30-a4be-5d186aea258e.jpg" x="-527" y="-2455" width="2691" height="3770" opacity="0.92"/>
  <rect x="0.5" y="0.5" width="52" height="70" fill="none" stroke="#111827" stroke-width="1" opacity="0.35"/>
  <polyline points="31,51 31,52 30,52 30,53 29,53 28,53 28,54 27,54 26,54 25,54 24,54 23,54 22,54 21,54 21,53 20,53 19,53 18,53 18,52 17,52 16,52 16,51 16,50 16,49 16,48 16,47 16,46 16,45 17,45 17,44 17,43 17,42 18,42 18,41 18,40 19,40 19,39 19,38 20,38 21,38 21,37 22,37 22,36 23,36 24,36 24,35 25,35 26,35 27,35 27,34" fill="none" stroke="#f2e45c" stroke-width="3" stroke-linecap="round" stroke-linejoin="round" opacity="0.95">
    <title>5765 e:1</title>
  </polyline>
  <polyline points="32,31 32,30 33,30 34,30 35,29 36,29 36,28 37,27 37,26 37,25 37,24 37,23 37,22 37,21 37,20 36,20 36,19 35,19 35,18 34,18 33,17 32,17 31,16 30,16 29,16 28,16 26,16 25,17 24,17 23,18 22,19 22,20 22,21 22,22 22,23 22,24 22,25 23,25 23,26 24,27 25,27 26,28 27,28 28,28 29,28 30,28 30,29 31,29 32,29 33,29" fill="none" stroke="#8aff00" stroke-width="3" stroke-linecap="round" stroke-linejoin="round" opacity="0.95">
    <title>6012 c:1</title>
  </polyline>
  <polyline points="28,55 28,54 29,54 30,54 30,53 31,53 31,52 32,52 33,51 34,50 34,49 35,48 35,47 35,46 35,45 35,44 34,43 33,42 32,41 32,40 31,40 31,39 30,38 29,38 29,37 28,37 27,36 27,35 26,35 26,34 25,34 25,33 24,32 24,31 23,30 23,29 22,29 22,28 22,27 22,26 22,25 22,24 22,23 22,22 23,21 24,20 25,20 26,20" fill="none" stroke="#ff8c00" stroke-width="3" stroke-linecap="round" stroke-linejoin="round" opacity="0.95">
    <title>6089 h:2</title>
  </polyline>
</svg>
