<?xml version="1.0" encoding="UTF-8"?>
<svg xmlns="http://www.w3.org/2000/svg" width="62" height="74" viewBox="0 0 62 74">
  <title>particle img5-m52-p1 e:1 i:1 d:1</title>
  <metadata>{&quot;entityType&quot;:&quot;particle&quot;,&quot;entityId&quot;:&quot;img5-m52-p1&quot;,&quot;token&quot;:&quot;e:1 i:1 d:1&quot;,&quot;signature&quot;:&quot;e:1 i:1 d:1&quot;,&quot;imageName&quot;:&quot;page-005.jpg&quot;,&quot;imageId&quot;:5,&quot;bounds&quot;:{&quot;x&quot;:1077,&quot;y&quot;:2462,&quot;w&quot;:62,&quot;h&quot;:74},&quot;atoms&quot;:[{&quot;id&quot;:5771,&quot;token&quot;:&quot;e:1&quot;,&quot;particle_id&quot;:&quot;img5-m52-p1&quot;,&quot;molecule_id&quot;:&quot;img5-m52&quot;,&quot;atom_order&quot;:1},{&quot;id&quot;:6290,&quot;token&quot;:&quot;i:1&quot;,&quot;particle_id&quot;:&quot;img5-m52-p1&quot;,&quot;molecule_id&quot;:&quot;img5-m52&quot;,&quot;atom_order&quot;:2},{&quot;id&quot;:6350,&quot;token&quot;:&quot;d:1&quot;,&quot;particle_id&quot;:&quot;img5-m52-p1&quot;,&quot;molecule_id&quot;:&quot;img5-m52&quot;,&quot;atom_order&quot;:3}]}</metadata>
  <rect x="0" y="0" width="62" height="74" fill="#f8f0d8"/>
  <image href="file:///C:/Users/HHHES/AppData/Roaming/com.voynichlab.datasetcreator/images/1/a6cd3b6e-2a78-4b30-a4be-5d186aea258e.jpg" x="-1077" y="-2462" width="2691" height="3770" opacity="0.92"/>
  <rect x="0.5" y="0.5" width="61" height="73" fill="none" stroke="#111827" stroke-width="1" opacity="0.35"/>
  <polyline points="31,55 31,56 30,56 30,57 29,57 28,57 28,58 27,58 26,58 25,58 24,58 23,58 22,58 21,58 21,57 20,57 19,57 18,57 18,56 17,56 16,56 16,55 16,54 16,53 16,52 16,51 16,50 16,49 17,49 17,48 17,47 17,46 18,46 18,45 18,44 19,44 19,43 19,42 20,42 21,42 21,41 22,41 22,40 23,40 24,40 24,39 25,39 26,39 27,39 27,38" fill="none" stroke="#f2e45c" stroke-width="3" stroke-linecap="round" stroke-linejoin="round" opacity="0.95">
    <title>5771 e:1</title>
  </polyline>
  <polyline points="23,39 24,38 25,38 26,38 27,38 28,38 29,38 30,38 31,38 32,38 33,38 34,38 35,38 36,38 37,38 39,38 40,37 41,37 42,36 43,35 44,34 45,33 45,32 46,32 46,31 46,30 46,29 46,28 46,27 46,26 46,25 46,24 46,23 45,23 45,22 44,22 44,21 43,20 42,20 42,19" fill="none" stroke="#00ff7f" stroke-width="3" stroke-linecap="round" stroke-linejoin="round" opacity="0.95">
    <title>6290 i:1</title>
  </polyline>
  <polyline points="20,19 21,19 22,19 23,18 24,17 25,17 26,17 27,16 28,16 29,16 30,16 32,16 33,16 34,16 35,16 36,16 37,17 38,17 38,18 39,18 40,19 41,19 42,20 43,20 43,21 43,22 44,22" fill="none" stroke="#ff2d55" stroke-width="3" stroke-linecap="round" stroke-linejoin="round" opacity="0.95">
    <title>6350 d:1</title>
  </polyline>
</svg>
