<?xml version="1.0" encoding="UTF-8"?>
<svg xmlns="http://www.w3.org/2000/svg" width="59" height="73" viewBox="0 0 59 73">
  <title>particle img5-m67-p4 e:1 c:1 h:2</title>
  <metadata>{&quot;entityType&quot;:&quot;particle&quot;,&quot;entityId&quot;:&quot;img5-m67-p4&quot;,&quot;token&quot;:&quot;e:1 c:1 h:2&quot;,&quot;signature&quot;:&quot;e:1 c:1 h:2&quot;,&quot;imageName&quot;:&quot;page-005.jpg&quot;,&quot;imageId&quot;:5,&quot;bounds&quot;:{&quot;x&quot;:1307,&quot;y&quot;:2550,&quot;w&quot;:59,&quot;h&quot;:73},&quot;atoms&quot;:[{&quot;id&quot;:5779,&quot;token&quot;:&quot;e:1&quot;,&quot;particle_id&quot;:&quot;img5-m67-p4&quot;,&quot;molecule_id&quot;:&quot;img5-m67&quot;,&quot;atom_order&quot;:1},{&quot;id&quot;:6028,&quot;token&quot;:&quot;c:1&quot;,&quot;particle_id&quot;:&quot;img5-m67-p4&quot;,&quot;molecule_id&quot;:&quot;img5-m67&quot;,&quot;atom_order&quot;:2},{&quot;id&quot;:6095,&quot;token&quot;:&quot;h:2&quot;,&quot;particle_id&quot;:&quot;img5-m67-p4&quot;,&quot;molecule_id&quot;:&quot;img5-m67&quot;,&quot;atom_order&quot;:3}]}</metadata>
  <rect x="0" y="0" width="59" height="73" fill="#f8f0d8"/>
  <image href="file:///C:/Users/HHHES/AppData/Roaming/com.voynichlab.datasetcreator/images/1/a6cd3b6e-2a78-4b30-a4be-5d186aea258e.jpg" x="-1307" y="-2550" width="2691" height="3770" opacity="0.92"/>
  <rect x="0.5" y="0.5" width="58" height="72" fill="none" stroke="#111827" stroke-width="1" opacity="0.35"/>
  <polyline points="31,54 31,55 30,55 30,56 29,56 28,56 28,57 27,57 26,57 25,57 24,57 23,57 22,57 21,57 21,56 20,56 19,56 18,56 18,55 17,55 16,55 16,54 16,53 16,52 16,51 16,50 16,49 16,48 17,48 17,47 17,46 17,45 18,45 18,44 18,43 19,43 19,42 19,41 20,41 21,41 21,40 22,40 22,39 23,39 24,39 24,38 25,38 26,38 27,38 27,37" fill="none" stroke="#f2e45c" stroke-width="3" stroke-linecap="round" stroke-linejoin="round" opacity="0.95">
    <title>5779 e:1</title>
  </polyline>
  <polyline points="25,22 25,23 24,23 24,24 24,25 23,25 23,26 23,27 23,28 23,29 23,30 23,31 23,32 24,32 24,33 25,33 25,34 26,35 27,35 28,35 29,35 29,36 30,36 31,36 32,36 33,36 34,36 35,36 36,36 37,36 37,35 38,35 39,35 39,34 39,33 40,33 40,32 41,32 41,31 41,30 42,30 42,29 42,28 43,28 43,27 43,26 43,25 43,24 43,23 43,22 42,22 42,21 42,20 41,20 41,19 40,19 40,18 39,18 39,17 38,17 37,17 37,16 36,16 35,16 34,16 33,16 32,16 31,16 30,16 29,17 28,17 28,18 27,18 27,19 26,19 25,19 25,20 24,20 24,21 24,22" fill="none" stroke="#8aff00" stroke-width="3" stroke-linecap="round" stroke-linejoin="round" opacity="0.95">
    <title>6028 c:1</title>
  </polyline>
  <polyline points="29,57 29,56 30,56 31,56 31,55 32,55 32,54 33,54 34,53 35,52 35,51 36,50 36,49 36,48 36,47 36,46 35,45 34,44 33,43 33,42 32,42 32,41 31,40 30,40 30,39 29,39 28,38 28,37 27,37 27,36 26,36 26,35 25,34 25,33 24,32 24,31 23,31 23,30 23,29 23,28 23,27 23,26 23,25 23,24 24,23 25,22 26,22 27,22" fill="none" stroke="#ff8c00" stroke-width="3" stroke-linecap="round" stroke-linejoin="round" opacity="0.95">
    <title>6095 h:2</title>
  </polyline>
</svg>
