<?xml version="1.0" encoding="UTF-8"?>
<svg xmlns="http://www.w3.org/2000/svg" width="56" height="78" viewBox="0 0 56 78">
  <title>particle img5-m11-p5 e:1 i:1 d:1</title>
  <metadata>{&quot;entityType&quot;:&quot;particle&quot;,&quot;entityId&quot;:&quot;img5-m11-p5&quot;,&quot;token&quot;:&quot;e:1 i:1 d:1&quot;,&quot;signature&quot;:&quot;e:1 i:1 d:1&quot;,&quot;imageName&quot;:&quot;page-005.jpg&quot;,&quot;imageId&quot;:5,&quot;bounds&quot;:{&quot;x&quot;:1180,&quot;y&quot;:559,&quot;w&quot;:56,&quot;h&quot;:78},&quot;atoms&quot;:[{&quot;id&quot;:5656,&quot;token&quot;:&quot;e:1&quot;,&quot;particle_id&quot;:&quot;img5-m11-p5&quot;,&quot;molecule_id&quot;:&quot;img5-m11&quot;,&quot;atom_order&quot;:1},{&quot;id&quot;:6248,&quot;token&quot;:&quot;i:1&quot;,&quot;particle_id&quot;:&quot;img5-m11-p5&quot;,&quot;molecule_id&quot;:&quot;img5-m11&quot;,&quot;atom_order&quot;:2},{&quot;id&quot;:6321,&quot;token&quot;:&quot;d:1&quot;,&quot;particle_id&quot;:&quot;img5-m11-p5&quot;,&quot;molecule_id&quot;:&quot;img5-m11&quot;,&quot;atom_order&quot;:3}]}</metadata>
  <rect x="0" y="0" width="56" height="78" fill="#f8f0d8"/>
  <image href="file:///C:/Users/HHHES/AppData/Roaming/com.voynichlab.datasetcreator/images/1/a6cd3b6e-2a78-4b30-a4be-5d186aea258e.jpg" x="-1180" y="-559" width="2691" height="3770" opacity="0.92"/>
  <rect x="0.5" y="0.5" width="55" height="77" fill="none" stroke="#111827" stroke-width="1" opacity="0.35"/>
  <polyline points="31,59 31,60 30,60 30,61 29,61 28,61 28,62 27,62 26,62 25,62 24,62 23,62 22,62 21,62 21,61 20,61 19,61 18,61 18,60 17,60 16,60 16,59 16,58 16,57 16,56 16,55 16,54 16,53 17,53 17,52 17,51 17,50 18,50 18,49 18,48 19,48 19,47 19,46 20,46 21,46 21,45 22,45 22,44 23,44 24,44 24,43 25,43 26,43 27,43 27,42" fill="none" stroke="#f2e45c" stroke-width="3" stroke-linecap="round" stroke-linejoin="round" opacity="0.95">
    <title>5656 e:1</title>
  </polyline>
  <polyline points="26,42 27,42 27,41 28,41 28,40 29,40 30,40 30,39 31,39 31,38 32,38 32,37 33,37 33,36 34,36 34,35 34,34 35,33 36,32 36,31 37,30 37,29 38,29 38,28 38,27 38,26 38,25 38,24 38,23" fill="none" stroke="#00ff7f" stroke-width="3" stroke-linecap="round" stroke-linejoin="round" opacity="0.95">
    <title>6248 i:1</title>
  </polyline>
  <polyline points="22,31 22,30 22,29 22,28 22,27 22,26 22,25 22,24 22,23 22,22 23,21 23,20 24,20 25,19 25,18 26,18 26,17 27,17 27,16 28,16 29,16 30,16 32,16 33,17 34,17 35,18 36,19 36,20 37,20 38,21 38,22 39,22 39,23 39,24 40,24 40,25 40,26 40,27 40,28 39,29 39,30 38,30 38,31" fill="none" stroke="#ff2d55" stroke-width="3" stroke-linecap="round" stroke-linejoin="round" opacity="0.95">
    <title>6321 d:1</title>
  </polyline>
</svg>
