<?xml version="1.0" encoding="UTF-8"?>
<svg xmlns="http://www.w3.org/2000/svg" width="95" height="110" viewBox="0 0 95 110">
  <title>particle img5-m72-p1 m:1 a:1 n:1 c:1 i:1</title>
  <metadata>{&quot;entityType&quot;:&quot;particle&quot;,&quot;entityId&quot;:&quot;img5-m72-p1&quot;,&quot;token&quot;:&quot;m:1 a:1 n:1 c:1 i:1&quot;,&quot;signature&quot;:&quot;m:1 a:1 n:1 c:1 i:1&quot;,&quot;imageName&quot;:&quot;page-005.jpg&quot;,&quot;imageId&quot;:5,&quot;bounds&quot;:{&quot;x&quot;:447,&quot;y&quot;:2605,&quot;w&quot;:95,&quot;h&quot;:110},&quot;atoms&quot;:[{&quot;id&quot;:6392,&quot;token&quot;:&quot;m:1&quot;,&quot;particle_id&quot;:&quot;img5-m72-p1&quot;,&quot;molecule_id&quot;:&quot;img5-m72&quot;,&quot;atom_order&quot;:1},{&quot;id&quot;:5965,&quot;token&quot;:&quot;a:1&quot;,&quot;particle_id&quot;:&quot;img5-m72-p1&quot;,&quot;molecule_id&quot;:&quot;img5-m72&quot;,&quot;atom_order&quot;:2},{&quot;id&quot;:6496,&quot;token&quot;:&quot;n:1&quot;,&quot;particle_id&quot;:&quot;img5-m72-p1&quot;,&quot;molecule_id&quot;:&quot;img5-m72&quot;,&quot;atom_order&quot;:3},{&quot;id&quot;:6038,&quot;token&quot;:&quot;c:1&quot;,&quot;particle_id&quot;:&quot;img5-m72-p1&quot;,&quot;molecule_id&quot;:&quot;img5-m72&quot;,&quot;atom_order&quot;:4},{&quot;id&quot;:6508,&quot;token&quot;:&quot;i:1&quot;,&quot;particle_id&quot;:&quot;img5-m72-p1&quot;,&quot;molecule_id&quot;:&quot;img5-m72&quot;,&quot;atom_order&quot;:5}]}</metadata>
  <rect x="0" y="0" width="95" height="110" fill="#f8f0d8"/>
  <image href="file:///C:/Users/HHHES/AppData/Roaming/com.voynichlab.datasetcreator/images/1/a6cd3b6e-2a78-4b30-a4be-5d186aea258e.jpg" x="-447" y="-2605" width="2691" height="3770" opacity="0.92"/>
  <rect x="0.5" y="0.5" width="94" height="109" fill="none" stroke="#111827" stroke-width="1" opacity="0.35"/>
  <polyline points="40,71 40,70 40,69 40,68 40,67 40,66 40,65 40,64 40,63 40,62 40,61 40,60 40,59 40,58 40,57 40,56 40,55 40,54 40,53 40,52 40,51 40,50 40,49 40,48 40,47 40,46 41,46 41,45 41,44 41,43 41,42 41,41 41,40 41,39 41,38 41,37 41,36 41,35 41,34 41,33 40,33 40,32 39,32 38,32 37,32 36,32 36,33 35,33 34,34 33,34 31,35 30,36 30,37 29,37 28,38 27,39 26,40 25,41 24,42 23,43 22,44 21,45 21,46 20,46 20,47 19,47 19,48 19,49 18,49 18,50 17,51 17,52 17,53 16,54 16,55 17,55 17,54 18,54 19,54 21,54 22,54 23,54 24,54 25,54 26,54 28,53 29,53 30,53 31,53 32,53 33,53 34,53 35,53 36,54 37,54 38,54 39,54 40,54 41,54 42,54 43,54 44,54 45,54 46,54 47,54 48,54 48,53 49,53 50,53 51,53 52,53 53,52 54,52 55,52 56,52 57,52 57,51 58,51 58,50 59,50 60,50 61,50 61,49 62,49 63,48 64,48 65,48 65,47 66,47 67,47 67,46 68,46 68,45 69,45" fill="none" stroke="#ff00ff" stroke-width="3" stroke-linecap="round" stroke-linejoin="round" opacity="0.95">
    <title>6392 m:1</title>
  </polyline>
  <polyline points="40,69 40,70 40,71 40,72 40,73 40,74 40,76 40,77 40,78 40,79 40,80 40,81 41,82 41,83 41,84 41,85 41,86 41,87 41,88 41,89 41,90 41,91 41,92 41,93 41,94" fill="none" stroke="#00f0b5" stroke-width="3" stroke-linecap="round" stroke-linejoin="round" opacity="0.95">
    <title>5965 a:1</title>
  </polyline>
  <polyline points="59,26 58,26 58,25 59,24 59,23 60,22 60,21 60,20 61,20 62,19 63,18 64,17 65,17 65,16 66,16 67,16 68,16 69,16 69,17 70,18 70,19 71,20 71,21 71,22 72,23 72,24 72,25 72,26 72,27 72,28 72,29 72,30 72,31 72,32 72,33 71,33 71,34 71,35 71,36" fill="none" stroke="#f92f59" stroke-width="3" stroke-linecap="round" stroke-linejoin="round" opacity="0.95">
    <title>6496 n:1</title>
  </polyline>
  <polyline points="61,51 61,52 60,52 60,53 60,54 59,54 59,55 59,56 59,57 59,58 59,59 59,60 59,61 60,61 60,62 61,62 61,63 62,64 63,64 64,64 65,64 65,65 66,65 67,65 68,65 69,65 70,65 71,65 72,65 73,65 73,64 74,64 75,64 75,63 75,62 76,62 76,61 77,61 77,60 77,59 78,59 78,58 78,57 79,57 79,56 79,55 79,54 79,53 79,52 79,51 78,51 78,50 78,49 77,49 77,48 76,48 76,47 75,47 75,46 74,46 73,46 73,45 72,45 71,45 70,45 69,45 68,45 67,45 66,45 65,46 64,46 64,47 63,47 63,48 62,48 61,48 61,49 60,49 60,50 60,51" fill="none" stroke="#8aff00" stroke-width="3" stroke-linecap="round" stroke-linejoin="round" opacity="0.95">
    <title>6038 c:1</title>
  </polyline>
  <polyline points="62,49 62,48 63,48 64,48 64,47 65,47 66,47 66,46 67,46 67,45 68,45 69,44 70,44 70,43 71,42 71,41 72,41 72,40 72,39 73,38 73,37 73,36 73,35 73,34 73,33 73,32 73,31 73,30 73,29 73,28 73,27 72,26 72,25" fill="none" stroke="#00ff7f" stroke-width="3" stroke-linecap="round" stroke-linejoin="round" opacity="0.95">
    <title>6508 i:1</title>
  </polyline>
</svg>
