<?xml version="1.0" encoding="UTF-8"?>
<svg xmlns="http://www.w3.org/2000/svg" width="54" height="72" viewBox="0 0 54 72">
  <title>particle img5-m67-p1 e:1 h:1</title>
  <metadata>{&quot;entityType&quot;:&quot;particle&quot;,&quot;entityId&quot;:&quot;img5-m67-p1&quot;,&quot;token&quot;:&quot;e:1 h:1&quot;,&quot;signature&quot;:&quot;e:1 h:1&quot;,&quot;imageName&quot;:&quot;page-005.jpg&quot;,&quot;imageId&quot;:5,&quot;bounds&quot;:{&quot;x&quot;:1205,&quot;y&quot;:2569,&quot;w&quot;:54,&quot;h&quot;:72},&quot;atoms&quot;:[{&quot;id&quot;:5780,&quot;token&quot;:&quot;e:1&quot;,&quot;particle_id&quot;:&quot;img5-m67-p1&quot;,&quot;molecule_id&quot;:&quot;img5-m67&quot;,&quot;atom_order&quot;:1},{&quot;id&quot;:5928,&quot;token&quot;:&quot;h:1&quot;,&quot;particle_id&quot;:&quot;img5-m67-p1&quot;,&quot;molecule_id&quot;:&quot;img5-m67&quot;,&quot;atom_order&quot;:2}]}</metadata>
  <rect x="0" y="0" width="54" height="72" fill="#f8f0d8"/>
  <image href="file:///C:/Users/HHHES/AppData/Roaming/com.voynichlab.datasetcreator/images/1/a6cd3b6e-2a78-4b30-a4be-5d186aea258e.jpg" x="-1205" y="-2569" width="2691" height="3770" opacity="0.92"/>
  <rect x="0.5" y="0.5" width="53" height="71" fill="none" stroke="#111827" stroke-width="1" opacity="0.35"/>
  <polyline points="31,33 31,34 30,34 30,35 29,35 28,35 28,36 27,36 26,36 25,36 24,36 23,36 22,36 21,36 21,35 20,35 19,35 18,35 18,34 17,34 16,34 16,33 16,32 16,31 16,30 16,29 16,28 16,27 17,27 17,26 17,25 17,24 18,24 18,23 18,22 19,22 19,21 19,20 20,20 21,20 21,19 22,19 22,18 23,18 24,18 24,17 25,17 26,17 27,17 27,16" fill="none" stroke="#f2e45c" stroke-width="3" stroke-linecap="round" stroke-linejoin="round" opacity="0.95">
    <title>5780 e:1</title>
  </polyline>
  <polyline points="26,16 27,16 27,17 28,17 29,17 29,18 30,18 30,19 31,20 32,20 33,21 34,22 35,23 35,24 36,25 36,26 36,27 36,28 37,28 37,29 37,30 37,31 37,32 38,32 38,33 38,34 38,35 38,36 38,37 38,38 38,39 38,40 38,41 38,42 38,43 37,43 37,44 37,45 37,46 36,47 36,48 36,49 35,50 35,51 34,52 34,53 33,54 33,55 32,55 31,56" fill="none" stroke="#ff8c00" stroke-width="3" stroke-linecap="round" stroke-linejoin="round" opacity="0.95">
    <title>5928 h:1</title>
  </polyline>
</svg>
