<?xml version="1.0" encoding="UTF-8"?>
<svg xmlns="http://www.w3.org/2000/svg" width="53" height="67" viewBox="0 0 53 67">
  <title>particle img5-m68-p1 e:1 c:1 h:2</title>
  <metadata>{&quot;entityType&quot;:&quot;particle&quot;,&quot;entityId&quot;:&quot;img5-m68-p1&quot;,&quot;token&quot;:&quot;e:1 c:1 h:2&quot;,&quot;signature&quot;:&quot;e:1 c:1 h:2&quot;,&quot;imageName&quot;:&quot;page-005.jpg&quot;,&quot;imageId&quot;:5,&quot;bounds&quot;:{&quot;x&quot;:2205,&quot;y&quot;:2580,&quot;w&quot;:53,&quot;h&quot;:67},&quot;atoms&quot;:[{&quot;id&quot;:5874,&quot;token&quot;:&quot;e:1&quot;,&quot;particle_id&quot;:&quot;img5-m68-p1&quot;,&quot;molecule_id&quot;:&quot;img5-m68&quot;,&quot;atom_order&quot;:1},{&quot;id&quot;:6047,&quot;token&quot;:&quot;c:1&quot;,&quot;particle_id&quot;:&quot;img5-m68-p1&quot;,&quot;molecule_id&quot;:&quot;img5-m68&quot;,&quot;atom_order&quot;:2},{&quot;id&quot;:6098,&quot;token&quot;:&quot;h:2&quot;,&quot;particle_id&quot;:&quot;img5-m68-p1&quot;,&quot;molecule_id&quot;:&quot;img5-m68&quot;,&quot;atom_order&quot;:3}]}</metadata>
  <rect x="0" y="0" width="53" height="67" fill="#f8f0d8"/>
  <image href="file:///C:/Users/HHHES/AppData/Roaming/com.voynichlab.datasetcreator/images/1/a6cd3b6e-2a78-4b30-a4be-5d186aea258e.jpg" x="-2205" y="-2580" width="2691" height="3770" opacity="0.92"/>
  <rect x="0.5" y="0.5" width="52" height="66" fill="none" stroke="#111827" stroke-width="1" opacity="0.35"/>
  <polyline points="31,48 31,49 30,49 30,50 29,50 28,50 28,51 27,51 26,51 25,51 24,51 23,51 22,51 21,51 21,50 20,50 19,50 18,50 18,49 17,49 16,49 16,48 16,47 16,46 16,45 16,44 16,43 16,42 17,42 17,41 17,40 17,39 18,39 18,38 18,37 19,37 19,36 19,35 20,35 21,35 21,34 22,34 22,33 23,33 24,33 24,32 25,32 26,32 27,32 27,31" fill="none" stroke="#f2e45c" stroke-width="3" stroke-linecap="round" stroke-linejoin="round" opacity="0.95">
    <title>5874 e:1</title>
  </polyline>
  <polyline points="27,31 28,31 29,31 30,31 31,31 32,31 33,30 34,30 34,29 35,29 36,28 36,27 36,26 37,25 37,24 37,23 37,22 37,21 37,20 37,19 36,18 35,18 35,17 34,17 33,16 32,16 31,16 29,16 28,16 27,16 26,16 26,17 25,17 25,18 25,19 25,20 25,21 25,22 25,23 25,24 25,25 26,25 26,26 27,27 28,28 29,28 29,29 30,29" fill="none" stroke="#8aff00" stroke-width="3" stroke-linecap="round" stroke-linejoin="round" opacity="0.95">
    <title>6047 c:1</title>
  </polyline>
  <polyline points="29,51 29,50 30,50 31,50 31,49 32,49 32,48 33,48 34,47 35,46 35,45 36,44 36,43 36,42 36,41 36,40 35,39 34,38 33,37 33,36 32,36 32,35 31,34 30,34 30,33 29,33 28,32 28,31 27,31 27,30 26,30 26,29 25,28 25,27 24,26 24,25 23,25 23,24 23,23 23,22 23,21 23,20 23,19 23,18 24,17 25,16 26,16 27,16" fill="none" stroke="#ff8c00" stroke-width="3" stroke-linecap="round" stroke-linejoin="round" opacity="0.95">
    <title>6098 h:2</title>
  </polyline>
</svg>
