<?xml version="1.0" encoding="UTF-8"?>
<svg xmlns="http://www.w3.org/2000/svg" width="59" height="66" viewBox="0 0 59 66">
  <title>particle img5-m51-p2 f:1 j:1</title>
  <metadata>{&quot;entityType&quot;:&quot;particle&quot;,&quot;entityId&quot;:&quot;img5-m51-p2&quot;,&quot;token&quot;:&quot;f:1 j:1&quot;,&quot;signature&quot;:&quot;f:1 j:1&quot;,&quot;imageName&quot;:&quot;page-005.jpg&quot;,&quot;imageId&quot;:5,&quot;bounds&quot;:{&quot;x&quot;:1879,&quot;y&quot;:2451,&quot;w&quot;:59,&quot;h&quot;:66},&quot;atoms&quot;:[{&quot;id&quot;:6161,&quot;token&quot;:&quot;f:1&quot;,&quot;particle_id&quot;:&quot;img5-m51-p2&quot;,&quot;molecule_id&quot;:&quot;img5-m51&quot;,&quot;atom_order&quot;:1},{&quot;id&quot;:6467,&quot;token&quot;:&quot;j:1&quot;,&quot;particle_id&quot;:&quot;img5-m51-p2&quot;,&quot;molecule_id&quot;:&quot;img5-m51&quot;,&quot;atom_order&quot;:2}]}</metadata>
  <rect x="0" y="0" width="59" height="66" fill="#f8f0d8"/>
  <image href="file:///C:/Users/HHHES/AppData/Roaming/com.voynichlab.datasetcreator/images/1/a6cd3b6e-2a78-4b30-a4be-5d186aea258e.jpg" x="-1879" y="-2451" width="2691" height="3770" opacity="0.92"/>
  <rect x="0.5" y="0.5" width="58" height="65" fill="none" stroke="#111827" stroke-width="1" opacity="0.35"/>
  <polyline points="26,21 26,22 26,23 27,23 27,24 27,25 28,25 28,26 29,27 29,28 30,28 30,29 31,30 31,31 32,31 32,32 33,32 33,33 34,33 34,34 34,35 35,35 35,36 35,37 36,37 36,38 37,38 37,39 38,40 38,41 39,41 39,42" fill="none" stroke="#00a2ff" stroke-width="3" stroke-linecap="round" stroke-linejoin="round" opacity="0.95">
    <title>6161 f:1</title>
  </polyline>
  <polyline points="26,25 26,24 27,24 27,23 28,23 29,22 30,21 31,21 31,20 32,20 32,19 33,19 33,18 34,18 35,17 36,17 36,16 37,16 38,16 39,16 40,16 41,16 42,16 42,17 43,18 43,19 43,20 43,21 43,22 43,23 42,23 42,24 41,25 41,26 40,26 40,27 40,28 39,28 39,29 38,29 38,30 37,30 37,31 36,31 36,32 35,32 35,33 34,33 34,34 33,34 33,35 32,35 32,36 31,36 31,37 30,37 30,38 29,38 28,39 27,39 27,40 26,41 25,41 25,42 24,43 23,43 23,44 22,44 22,45 21,45 21,46 20,47 19,47 19,48 18,48 18,49 17,49 17,50 16,50" fill="none" stroke="#4a9e6a" stroke-width="3" stroke-linecap="round" stroke-linejoin="round" opacity="0.95">
    <title>6467 j:1</title>
  </polyline>
</svg>
