<?xml version="1.0" encoding="UTF-8"?>
<svg xmlns="http://www.w3.org/2000/svg" width="71" height="109" viewBox="0 0 71 109">
  <title>particle img5-m67-p2 a:1 b:1 c:1 a:1</title>
  <metadata>{&quot;entityType&quot;:&quot;particle&quot;,&quot;entityId&quot;:&quot;img5-m67-p2&quot;,&quot;token&quot;:&quot;a:1 b:1 c:1 a:1&quot;,&quot;signature&quot;:&quot;a:1 b:1 c:1 a:1&quot;,&quot;imageName&quot;:&quot;page-005.jpg&quot;,&quot;imageId&quot;:5,&quot;bounds&quot;:{&quot;x&quot;:1236,&quot;y&quot;:2527,&quot;w&quot;:71,&quot;h&quot;:109},&quot;atoms&quot;:[{&quot;id&quot;:5956,&quot;token&quot;:&quot;a:1&quot;,&quot;particle_id&quot;:&quot;img5-m67-p2&quot;,&quot;molecule_id&quot;:&quot;img5-m67&quot;,&quot;atom_order&quot;:1},{&quot;id&quot;:5993,&quot;token&quot;:&quot;b:1&quot;,&quot;particle_id&quot;:&quot;img5-m67-p2&quot;,&quot;molecule_id&quot;:&quot;img5-m67&quot;,&quot;atom_order&quot;:2},{&quot;id&quot;:6030,&quot;token&quot;:&quot;c:1&quot;,&quot;particle_id&quot;:&quot;img5-m67-p2&quot;,&quot;molecule_id&quot;:&quot;img5-m67&quot;,&quot;atom_order&quot;:3},{&quot;id&quot;:5957,&quot;token&quot;:&quot;a:1&quot;,&quot;particle_id&quot;:&quot;img5-m67-p2&quot;,&quot;molecule_id&quot;:&quot;img5-m67&quot;,&quot;atom_order&quot;:4}]}</metadata>
  <rect x="0" y="0" width="71" height="109" fill="#f8f0d8"/>
  <image href="file:///C:/Users/HHHES/AppData/Roaming/com.voynichlab.datasetcreator/images/1/a6cd3b6e-2a78-4b30-a4be-5d186aea258e.jpg" x="-1236" y="-2527" width="2691" height="3770" opacity="0.92"/>
  <rect x="0.5" y="0.5" width="70" height="108" fill="none" stroke="#111827" stroke-width="1" opacity="0.35"/>
  <polyline points="16,93 16,92 17,91 17,90 17,89 17,88 17,87 18,86 18,85 18,84 18,83 18,82 18,81 17,81 17,80 17,79 17,78 17,77 17,76 17,75 17,74 17,73 17,72 17,71 17,70 17,69 17,68 17,67 17,66 17,65 17,64 17,63 17,62 17,61 17,60 18,59 18,58 18,57 18,56 18,55 18,54 19,53 19,52 19,51 19,50 19,49 19,48 19,47 19,46 19,45 19,44 19,43 19,42 20,41 20,40 20,39 20,38 20,37 20,36 20,35 20,34 20,33 20,32 20,31 20,30 20,29 20,28 20,27 20,26 20,25 20,24 20,23 20,22 20,21 20,20 20,19 20,18 20,17 20,16" fill="none" stroke="#00f0b5" stroke-width="3" stroke-linecap="round" stroke-linejoin="round" opacity="0.95">
    <title>5956 a:1</title>
  </polyline>
  <polyline points="18,21 18,22 18,23 18,24 19,25 19,26 19,27 20,28 20,29 21,30 21,31 22,32 22,33 23,33 23,34 24,35 25,35 26,35 27,35 28,35 29,35 30,35 31,35 31,36 32,36 33,36 34,36 35,36 36,36 37,36 38,36 39,36 40,36 41,36 42,36 43,35 44,35 45,35 46,35 47,35 48,35 48,34 49,34 50,33 51,33 52,32 52,31 53,31 53,30 54,30 54,29 55,29" fill="none" stroke="#2f7df6" stroke-width="3" stroke-linecap="round" stroke-linejoin="round" opacity="0.95">
    <title>5993 b:1</title>
  </polyline>
  <polyline points="37,22 37,23 36,23 36,24 36,25 35,25 35,26 35,27 35,28 35,29 35,30 35,31 35,32 36,32 36,33 37,33 37,34 38,35 39,35 40,35 41,35 41,36 42,36 43,36 44,36 45,36 46,36 47,36 48,36 49,36 49,35 50,35 51,35 51,34 51,33 52,33 52,32 53,32 53,31 53,30 54,30 54,29 54,28 55,28 55,27 55,26 55,25 55,24 55,23 55,22 54,22 54,21 54,20 53,20 53,19 52,19 52,18 51,18 51,17 50,17 49,17 49,16 48,16 47,16 46,16 45,16 44,16 43,16 42,16 41,17 40,17 40,18 39,18 39,19 38,19 37,19 37,20 36,20 36,21 36,22" fill="none" stroke="#8aff00" stroke-width="3" stroke-linecap="round" stroke-linejoin="round" opacity="0.95">
    <title>6030 c:1</title>
  </polyline>
  <polyline points="32,93 32,92 33,91 33,90 33,89 33,88 33,87 34,86 34,85 34,84 34,83 34,82 34,81 33,81 33,80 33,79 33,78 33,77 33,76 33,75 33,74 33,73 33,72 33,71 33,70 33,69 33,68 33,67 33,66 33,65 33,64 33,63 33,62 33,61 33,60 34,59 34,58 34,57 34,56 34,55 34,54 35,53 35,52 35,51 35,50 35,49 35,48 35,47 35,46 35,45 35,44 35,43 35,42 36,41 36,40 36,39 36,38 36,37 36,36 36,35 36,34 36,33 36,32 36,31 36,30 36,29 36,28 36,27 36,26 36,25 36,24 36,23 36,22 36,21 36,20 36,19 36,18 36,17 36,16" fill="none" stroke="#00f0b5" stroke-width="3" stroke-linecap="round" stroke-linejoin="round" opacity="0.95">
    <title>5957 a:1</title>
  </polyline>
</svg>
