<?xml version="1.0" encoding="UTF-8"?>
<svg xmlns="http://www.w3.org/2000/svg" width="80" height="52" viewBox="0 0 80 52">
  <title>particle img5-m46-p1 e:1 g:1 e:1</title>
  <metadata>{&quot;entityType&quot;:&quot;particle&quot;,&quot;entityId&quot;:&quot;img5-m46-p1&quot;,&quot;token&quot;:&quot;e:1 g:1 e:1&quot;,&quot;signature&quot;:&quot;e:1 g:1 e:1&quot;,&quot;imageName&quot;:&quot;page-005.jpg&quot;,&quot;imageId&quot;:5,&quot;bounds&quot;:{&quot;x&quot;:1003,&quot;y&quot;:983,&quot;w&quot;:80,&quot;h&quot;:52},&quot;atoms&quot;:[{&quot;id&quot;:5754,&quot;token&quot;:&quot;e:1&quot;,&quot;particle_id&quot;:&quot;img5-m46-p1&quot;,&quot;molecule_id&quot;:&quot;img5-m46&quot;,&quot;atom_order&quot;:1},{&quot;id&quot;:6421,&quot;token&quot;:&quot;g:1&quot;,&quot;particle_id&quot;:&quot;img5-m46-p1&quot;,&quot;molecule_id&quot;:&quot;img5-m46&quot;,&quot;atom_order&quot;:2},{&quot;id&quot;:5755,&quot;token&quot;:&quot;e:1&quot;,&quot;particle_id&quot;:&quot;img5-m46-p1&quot;,&quot;molecule_id&quot;:&quot;img5-m46&quot;,&quot;atom_order&quot;:3}]}</metadata>
  <rect x="0" y="0" width="80" height="52" fill="#f8f0d8"/>
  <image href="file:///C:/Users/HHHES/AppData/Roaming/com.voynichlab.datasetcreator/images/1/a6cd3b6e-2a78-4b30-a4be-5d186aea258e.jpg" x="-1003" y="-983" width="2691" height="3770" opacity="0.92"/>
  <rect x="0.5" y="0.5" width="79" height="51" fill="none" stroke="#111827" stroke-width="1" opacity="0.35"/>
  <polyline points="31,33 31,34 30,34 30,35 29,35 28,35 28,36 27,36 26,36 25,36 24,36 23,36 22,36 21,36 21,35 20,35 19,35 18,35 18,34 17,34 16,34 16,33 16,32 16,31 16,30 16,29 16,28 16,27 17,27 17,26 17,25 17,24 18,24 18,23 18,22 19,22 19,21 19,20 20,20 21,20 21,19 22,19 22,18 23,18 24,18 24,17 25,17 26,17 27,17 27,16" fill="none" stroke="#f2e45c" stroke-width="3" stroke-linecap="round" stroke-linejoin="round" opacity="0.95">
    <title>5754 e:1</title>
  </polyline>
  <polyline points="25,16 26,16 27,16 28,16 29,16 30,16 31,16 32,16 33,16 34,16 35,16 36,16 37,16 38,16 39,16 40,16 41,16 43,16 44,16 45,16 46,16 47,16 48,16 49,16 50,16 51,16 52,16 53,16 54,16 55,16 56,16 57,16 58,16 58,17" fill="none" stroke="#7c3cff" stroke-width="3" stroke-linecap="round" stroke-linejoin="round" opacity="0.95">
    <title>6421 g:1</title>
  </polyline>
  <polyline points="64,33 64,34 63,34 63,35 62,35 61,35 61,36 60,36 59,36 58,36 57,36 56,36 55,36 54,36 54,35 53,35 52,35 51,35 51,34 50,34 49,34 49,33 49,32 49,31 49,30 49,29 49,28 49,27 50,27 50,26 50,25 50,24 51,24 51,23 51,22 52,22 52,21 52,20 53,20 54,20 54,19 55,19 55,18 56,18 57,18 57,17 58,17 59,17 60,17 60,16" fill="none" stroke="#f2e45c" stroke-width="3" stroke-linecap="round" stroke-linejoin="round" opacity="0.95">
    <title>5755 e:1</title>
  </polyline>
</svg>
