<?xml version="1.0" encoding="UTF-8"?>
<svg xmlns="http://www.w3.org/2000/svg" width="49" height="67" viewBox="0 0 49 67">
  <title>particle img5-m49-p4 e:1 c:1 h:2</title>
  <metadata>{&quot;entityType&quot;:&quot;particle&quot;,&quot;entityId&quot;:&quot;img5-m49-p4&quot;,&quot;token&quot;:&quot;e:1 c:1 h:2&quot;,&quot;signature&quot;:&quot;e:1 c:1 h:2&quot;,&quot;imageName&quot;:&quot;page-005.jpg&quot;,&quot;imageId&quot;:5,&quot;bounds&quot;:{&quot;x&quot;:2246,&quot;y&quot;:2417,&quot;w&quot;:49,&quot;h&quot;:67},&quot;atoms&quot;:[{&quot;id&quot;:5855,&quot;token&quot;:&quot;e:1&quot;,&quot;particle_id&quot;:&quot;img5-m49-p4&quot;,&quot;molecule_id&quot;:&quot;img5-m49&quot;,&quot;atom_order&quot;:1},{&quot;id&quot;:6021,&quot;token&quot;:&quot;c:1&quot;,&quot;particle_id&quot;:&quot;img5-m49-p4&quot;,&quot;molecule_id&quot;:&quot;img5-m49&quot;,&quot;atom_order&quot;:2},{&quot;id&quot;:6092,&quot;token&quot;:&quot;h:2&quot;,&quot;particle_id&quot;:&quot;img5-m49-p4&quot;,&quot;molecule_id&quot;:&quot;img5-m49&quot;,&quot;atom_order&quot;:3}]}</metadata>
  <rect x="0" y="0" width="49" height="67" fill="#f8f0d8"/>
  <image href="file:///C:/Users/HHHES/AppData/Roaming/com.voynichlab.datasetcreator/images/1/a6cd3b6e-2a78-4b30-a4be-5d186aea258e.jpg" x="-2246" y="-2417" width="2691" height="3770" opacity="0.92"/>
  <rect x="0.5" y="0.5" width="48" height="66" fill="none" stroke="#111827" stroke-width="1" opacity="0.35"/>
  <polyline points="31,45 31,46 30,46 30,47 29,47 28,47 28,48 27,48 26,48 25,48 24,48 23,48 22,48 21,48 21,47 20,47 19,47 18,47 18,46 17,46 16,46 16,45 16,44 16,43 16,42 16,41 16,40 16,39 17,39 17,38 17,37 17,36 18,36 18,35 18,34 19,34 19,33 19,32 20,32 21,32 21,31 22,31 22,30 23,30 24,30 24,29 25,29 26,29 27,29 27,28" fill="none" stroke="#f2e45c" stroke-width="3" stroke-linecap="round" stroke-linejoin="round" opacity="0.95">
    <title>5855 e:1</title>
  </polyline>
  <polyline points="27,27 28,27 29,27 30,27 31,27 31,26 32,26 32,25 33,25 33,24 33,23 33,22 33,21 33,20 33,19 33,18 32,17 31,17 30,16 29,16 28,16 27,16 26,16 25,16 24,16 23,16 22,16 22,17 21,18 20,18 20,19 20,20 20,21 20,22 20,23 20,24 20,25 21,26 22,27 23,27 24,27 24,28 25,28 26,28 27,28 28,27 29,27 30,27" fill="none" stroke="#8aff00" stroke-width="3" stroke-linecap="round" stroke-linejoin="round" opacity="0.95">
    <title>6021 c:1</title>
  </polyline>
  <polyline points="26,51 26,50 27,50 28,50 28,49 29,49 29,48 30,48 31,47 32,46 32,45 33,44 33,43 33,42 33,41 33,40 32,39 31,38 30,37 30,36 29,36 29,35 28,34 27,34 27,33 26,33 25,32 25,31 24,31 24,30 23,30 23,29 22,28 22,27 21,26 21,25 20,25 20,24 20,23 20,22 20,21 20,20 20,19 20,18 21,17 22,16 23,16 24,16" fill="none" stroke="#ff8c00" stroke-width="3" stroke-linecap="round" stroke-linejoin="round" opacity="0.95">
    <title>6092 h:2</title>
  </polyline>
</svg>
