<?xml version="1.0" encoding="UTF-8"?>
<svg xmlns="http://www.w3.org/2000/svg" width="66" height="109" viewBox="0 0 66 109">
  <title>particle img5-m97-p2 a:1 b:1 c:1 a:1</title>
  <metadata>{&quot;entityType&quot;:&quot;particle&quot;,&quot;entityId&quot;:&quot;img5-m97-p2&quot;,&quot;token&quot;:&quot;a:1 b:1 c:1 a:1&quot;,&quot;signature&quot;:&quot;a:1 b:1 c:1 a:1&quot;,&quot;imageName&quot;:&quot;page-005.jpg&quot;,&quot;imageId&quot;:5,&quot;bounds&quot;:{&quot;x&quot;:508,&quot;y&quot;:2755,&quot;w&quot;:66,&quot;h&quot;:109},&quot;atoms&quot;:[{&quot;id&quot;:5985,&quot;token&quot;:&quot;a:1&quot;,&quot;particle_id&quot;:&quot;img5-m97-p2&quot;,&quot;molecule_id&quot;:&quot;img5-m97&quot;,&quot;atom_order&quot;:1},{&quot;id&quot;:6001,&quot;token&quot;:&quot;b:1&quot;,&quot;particle_id&quot;:&quot;img5-m97-p2&quot;,&quot;molecule_id&quot;:&quot;img5-m97&quot;,&quot;atom_order&quot;:2},{&quot;id&quot;:6056,&quot;token&quot;:&quot;c:1&quot;,&quot;particle_id&quot;:&quot;img5-m97-p2&quot;,&quot;molecule_id&quot;:&quot;img5-m97&quot;,&quot;atom_order&quot;:3},{&quot;id&quot;:5986,&quot;token&quot;:&quot;a:1&quot;,&quot;particle_id&quot;:&quot;img5-m97-p2&quot;,&quot;molecule_id&quot;:&quot;img5-m97&quot;,&quot;atom_order&quot;:4}]}</metadata>
  <rect x="0" y="0" width="66" height="109" fill="#f8f0d8"/>
  <image href="file:///C:/Users/HHHES/AppData/Roaming/com.voynichlab.datasetcreator/images/1/a6cd3b6e-2a78-4b30-a4be-5d186aea258e.jpg" x="-508" y="-2755" width="2691" height="3770" opacity="0.92"/>
  <rect x="0.5" y="0.5" width="65" height="108" fill="none" stroke="#111827" stroke-width="1" opacity="0.35"/>
  <polyline points="16,93 16,92 17,91 17,90 17,89 17,88 17,87 18,86 18,85 18,84 18,83 18,82 18,81 17,81 17,80 17,79 17,78 17,77 17,76 17,75 17,74 17,73 17,72 17,71 17,70 17,69 17,68 17,67 17,66 17,65 17,64 17,63 17,62 17,61 17,60 18,59 18,58 18,57 18,56 18,55 18,54 19,53 19,52 19,51 19,50 19,49 19,48 19,47 19,46 19,45 19,44 19,43 19,42 20,41 20,40 20,39 20,38 20,37 20,36 20,35 20,34 20,33 20,32 20,31 20,30 20,29 20,28 20,27 20,26 20,25 20,24 20,23 20,22 20,21 20,20 20,19 20,18 20,17 20,16" fill="none" stroke="#00f0b5" stroke-width="3" stroke-linecap="round" stroke-linejoin="round" opacity="0.95">
    <title>5985 a:1</title>
  </polyline>
  <polyline points="19,28 19,29 19,31 19,32 19,34 19,35 20,35 20,36 21,37 22,38 22,39 23,39 24,40 25,41 26,42 27,42 28,42 29,42 30,42 31,43 32,43 33,43 35,43 36,43 37,43 38,43 39,42 40,42 41,41 42,41 42,40 43,40 43,39 44,39 45,38 45,37 46,36 47,35" fill="none" stroke="#2f7df6" stroke-width="3" stroke-linecap="round" stroke-linejoin="round" opacity="0.95">
    <title>6001 b:1</title>
  </polyline>
  <polyline points="32,28 32,29 31,29 31,30 31,31 30,31 30,32 30,33 30,34 30,35 30,36 30,37 30,38 31,38 31,39 32,39 32,40 33,41 34,41 35,41 36,41 36,42 37,42 38,42 39,42 40,42 41,42 42,42 43,42 44,42 44,41 45,41 46,41 46,40 46,39 47,39 47,38 48,38 48,37 48,36 49,36 49,35 49,34 50,34 50,33 50,32 50,31 50,30 50,29 50,28 49,28 49,27 49,26 48,26 48,25 47,25 47,24 46,24 46,23 45,23 44,23 44,22 43,22 42,22 41,22 40,22 39,22 38,22 37,22 36,23 35,23 35,24 34,24 34,25 33,25 32,25 32,26 31,26 31,27 31,28" fill="none" stroke="#8aff00" stroke-width="3" stroke-linecap="round" stroke-linejoin="round" opacity="0.95">
    <title>6056 c:1</title>
  </polyline>
  <polyline points="32,25 32,26 32,27 32,28 32,29 32,30 32,31 32,33 32,34 32,36 32,38 32,39 32,40 32,41 32,42 32,43 32,44 32,45 32,46 31,47 31,48 31,49 31,50 31,51 31,52 31,53 31,54 31,55 31,56 31,58 31,59 31,60 31,61 31,63 31,64 31,65 31,66 31,68 31,69 31,70 31,71 31,72 31,73 31,74 31,75 31,76 31,77 31,78 31,79 31,80" fill="none" stroke="#00f0b5" stroke-width="3" stroke-linecap="round" stroke-linejoin="round" opacity="0.95">
    <title>5986 a:1</title>
  </polyline>
</svg>
