<?xml version="1.0" encoding="UTF-8"?>
<svg xmlns="http://www.w3.org/2000/svg" width="128" height="100" viewBox="0 0 128 100">
  <title>particle img5-m70-p1 e:1 a:1 e:1 b:1 c:1 a:1 g:1 e:1</title>
  <metadata>{&quot;entityType&quot;:&quot;particle&quot;,&quot;entityId&quot;:&quot;img5-m70-p1&quot;,&quot;token&quot;:&quot;e:1 a:1 e:1 b:1 c:1 a:1 g:1 e:1&quot;,&quot;signature&quot;:&quot;e:1 a:1 e:1 b:1 c:1 a:1 g:1 e:1&quot;,&quot;imageName&quot;:&quot;page-005.jpg&quot;,&quot;imageId&quot;:5,&quot;bounds&quot;:{&quot;x&quot;:1654,&quot;y&quot;:2591,&quot;w&quot;:128,&quot;h&quot;:100},&quot;atoms&quot;:[{&quot;id&quot;:5865,&quot;token&quot;:&quot;e:1&quot;,&quot;particle_id&quot;:&quot;img5-m70-p1&quot;,&quot;molecule_id&quot;:&quot;img5-m70&quot;,&quot;atom_order&quot;:1},{&quot;id&quot;:5969,&quot;token&quot;:&quot;a:1&quot;,&quot;particle_id&quot;:&quot;img5-m70-p1&quot;,&quot;molecule_id&quot;:&quot;img5-m70&quot;,&quot;atom_order&quot;:2},{&quot;id&quot;:5867,&quot;token&quot;:&quot;e:1&quot;,&quot;particle_id&quot;:&quot;img5-m70-p1&quot;,&quot;molecule_id&quot;:&quot;img5-m70&quot;,&quot;atom_order&quot;:3},{&quot;id&quot;:5998,&quot;token&quot;:&quot;b:1&quot;,&quot;particle_id&quot;:&quot;img5-m70-p1&quot;,&quot;molecule_id&quot;:&quot;img5-m70&quot;,&quot;atom_order&quot;:4},{&quot;id&quot;:6044,&quot;token&quot;:&quot;c:1&quot;,&quot;particle_id&quot;:&quot;img5-m70-p1&quot;,&quot;molecule_id&quot;:&quot;img5-m70&quot;,&quot;atom_order&quot;:5},{&quot;id&quot;:5972,&quot;token&quot;:&quot;a:1&quot;,&quot;particle_id&quot;:&quot;img5-m70-p1&quot;,&quot;molecule_id&quot;:&quot;img5-m70&quot;,&quot;atom_order&quot;:6},{&quot;id&quot;:6440,&quot;token&quot;:&quot;g:1&quot;,&quot;particle_id&quot;:&quot;img5-m70-p1&quot;,&quot;molecule_id&quot;:&quot;img5-m70&quot;,&quot;atom_order&quot;:7},{&quot;id&quot;:5866,&quot;token&quot;:&quot;e:1&quot;,&quot;particle_id&quot;:&quot;img5-m70-p1&quot;,&quot;molecule_id&quot;:&quot;img5-m70&quot;,&quot;atom_order&quot;:8}]}</metadata>
  <rect x="0" y="0" width="128" height="100" fill="#f8f0d8"/>
  <image href="file:///C:/Users/HHHES/AppData/Roaming/com.voynichlab.datasetcreator/images/1/a6cd3b6e-2a78-4b30-a4be-5d186aea258e.jpg" x="-1654" y="-2591" width="2691" height="3770" opacity="0.92"/>
  <rect x="0.5" y="0.5" width="127" height="99" fill="none" stroke="#111827" stroke-width="1" opacity="0.35"/>
  <polyline points="31,81 31,82 30,82 30,83 29,83 28,83 28,84 27,84 26,84 25,84 24,84 23,84 22,84 21,84 21,83 20,83 19,83 18,83 18,82 17,82 16,82 16,81 16,80 16,79 16,78 16,77 16,76 16,75 17,75 17,74 17,73 17,72 18,72 18,71 18,70 19,70 19,69 19,68 20,68 21,68 21,67 22,67 22,66 23,66 24,66 24,65 25,65 26,65 27,65 27,64" fill="none" stroke="#f2e45c" stroke-width="3" stroke-linecap="round" stroke-linejoin="round" opacity="0.95">
    <title>5865 e:1</title>
  </polyline>
  <polyline points="38,22 38,23 38,24 39,24 39,25 39,26 40,27 40,28 41,28 41,29 41,30 42,31 42,32 43,33 43,34 44,35 44,36 44,37 44,38 44,39 44,40 45,41 45,43 45,44 45,45 45,46 45,47 45,48 45,50 45,51 46,52 46,54 46,55 46,57 46,58 46,59 46,60 46,61 46,62 47,63 47,64 47,65 47,67 47,69 47,71 47,73 46,74 46,76 46,77 46,79 46,80 46,81 46,82 46,83 46,84" fill="none" stroke="#00f0b5" stroke-width="3" stroke-linecap="round" stroke-linejoin="round" opacity="0.95">
    <title>5969 a:1</title>
  </polyline>
  <polyline points="42,38 42,39 41,39 41,40 40,40 39,40 39,41 38,41 37,41 36,41 35,41 34,41 33,41 32,41 32,40 31,40 30,40 29,40 29,39 28,39 27,39 27,38 27,37 27,36 27,35 27,34 27,33 27,32 28,32 28,31 28,30 28,29 29,29 29,28 29,27 30,27 30,26 30,25 31,25 32,25 32,24 33,24 33,23 34,23 35,23 35,22 36,22 37,22 38,22 38,21" fill="none" stroke="#f2e45c" stroke-width="3" stroke-linecap="round" stroke-linejoin="round" opacity="0.95">
    <title>5867 e:1</title>
  </polyline>
  <polyline points="33,33 33,34 34,34 34,35 34,36 35,36 35,37 36,37 37,37 38,37 38,38 39,38 40,38 41,38 42,38 43,38 44,38 45,38 46,38 47,38 48,38 49,38 50,38 51,39 52,39 53,39 54,38 55,38 56,38 57,38 58,38 59,38 60,38 61,37 62,37 63,37 64,37 66,37 67,37 68,36 69,36 70,36 71,36 72,35 73,35 74,35 75,35 76,35 76,34 78,34 79,34 80,33 81,33 82,33 83,32 84,32" fill="none" stroke="#2f7df6" stroke-width="3" stroke-linecap="round" stroke-linejoin="round" opacity="0.95">
    <title>5998 b:1</title>
  </polyline>
  <polyline points="68,22 68,23 67,23 67,24 67,25 66,25 66,26 66,27 66,28 66,29 66,30 66,31 66,32 67,32 67,33 68,33 68,34 69,35 70,35 71,35 72,35 72,36 73,36 74,36 75,36 76,36 77,36 78,36 79,36 80,36 80,35 81,35 82,35 82,34 82,33 83,33 83,32 84,32 84,31 84,30 85,30 85,29 85,28 86,28 86,27 86,26 86,25 86,24 86,23 86,22 85,22 85,21 85,20 84,20 84,19 83,19 83,18 82,18 82,17 81,17 80,17 80,16 79,16 78,16 77,16 76,16 75,16 74,16 73,16 72,17 71,17 71,18 70,18 70,19 69,19 68,19 68,20 67,20 67,21 67,22" fill="none" stroke="#8aff00" stroke-width="3" stroke-linecap="round" stroke-linejoin="round" opacity="0.95">
    <title>6044 c:1</title>
  </polyline>
  <polyline points="66,21 66,22 66,24 66,26 66,28 66,30 66,31 66,33 66,35 66,37 66,39 66,40 66,42 66,43 67,44 67,45 67,46 67,48 67,49 67,50 67,51 67,52 67,53 67,55 67,56 67,58 67,59 67,60 67,62 67,63 67,65 67,66 67,67 67,68 67,69 67,70 67,71 67,72 66,73 66,74 66,75" fill="none" stroke="#00f0b5" stroke-width="3" stroke-linecap="round" stroke-linejoin="round" opacity="0.95">
    <title>5972 a:1</title>
  </polyline>
  <polyline points="21,65 22,65 23,65 24,65 24,64 25,64 27,64 28,64 30,64 31,64 32,64 33,64 34,64 35,64 36,64 38,64 40,64 41,64 42,64 44,64 46,64 49,64 51,64 52,64 54,64 56,64 58,64 60,64 62,63 64,63 65,63 67,63 68,63 69,63 71,63 72,63 73,63 75,63 76,63 77,63 78,63 79,62 80,62 81,62 82,62 83,62 84,62 85,62 86,62 87,61 88,61 89,61 90,61 91,61 92,61 93,61 94,61 95,61 96,61 97,61 98,61 100,61 101,60 102,60 103,60 104,60 105,60 106,60" fill="none" stroke="#7c3cff" stroke-width="3" stroke-linecap="round" stroke-linejoin="round" opacity="0.95">
    <title>6440 g:1</title>
  </polyline>
  <polyline points="112,76 112,77 111,77 111,78 110,78 109,78 109,79 108,79 107,79 106,79 105,79 104,79 103,79 102,79 102,78 101,78 100,78 99,78 99,77 98,77 97,77 97,76 97,75 97,74 97,73 97,72 97,71 97,70 98,70 98,69 98,68 98,67 99,67 99,66 99,65 100,65 100,64 100,63 101,63 102,63 102,62 103,62 103,61 104,61 105,61 105,60 106,60 107,60 108,60 108,59" fill="none" stroke="#f2e45c" stroke-width="3" stroke-linecap="round" stroke-linejoin="round" opacity="0.95">
    <title>5866 e:1</title>
  </polyline>
</svg>
