<?xml version="1.0" encoding="UTF-8"?>
<svg xmlns="http://www.w3.org/2000/svg" width="72" height="45" viewBox="0 0 72 45">
  <title>atom 5558 b:1</title>
  <metadata>{&quot;entityType&quot;:&quot;atom&quot;,&quot;entityId&quot;:&quot;5558&quot;,&quot;token&quot;:&quot;b:1&quot;,&quot;signature&quot;:&quot;b:1&quot;,&quot;imageName&quot;:&quot;page-005.jpg&quot;,&quot;imageId&quot;:5,&quot;bounds&quot;:{&quot;x&quot;:430,&quot;y&quot;:437,&quot;w&quot;:72,&quot;h&quot;:45},&quot;atoms&quot;:[{&quot;id&quot;:5558,&quot;token&quot;:&quot;b:1&quot;,&quot;particle_id&quot;:&quot;img5-m1-p1&quot;,&quot;molecule_id&quot;:&quot;img5-m1&quot;,&quot;atom_order&quot;:2}]}</metadata>
  <rect x="0" y="0" width="72" height="45" fill="#f8f0d8"/>
  <image href="file:///C:/Users/HHHES/AppData/Roaming/com.voynichlab.datasetcreator/images/1/a6cd3b6e-2a78-4b30-a4be-5d186aea258e.jpg" x="-430" y="-437" width="2691" height="3770" opacity="0.92"/>
  <rect x="0.5" y="0.5" width="71" height="44" fill="none" stroke="#111827" stroke-width="1" opacity="0.35"/>
  <polyline points="16,20 16,21 16,22 17,23 17,24 18,24 18,25 19,25 20,25 20,26 21,26 21,27 22,27 23,28 24,28 25,28 26,28 27,28 27,29 28,29 29,29 30,29 31,29 32,29 33,29 34,29 35,29 36,29 36,28 37,28 38,28 39,28 39,27 40,27 41,27 41,26 42,26 43,26 43,25 44,25 45,25 46,24 47,24 48,23 49,23 49,22 50,22 50,21 51,21 52,20 52,19 53,19 54,19 54,18 55,18 55,17 56,17 56,16" fill="none" stroke="#2f7df6" stroke-width="3" stroke-linecap="round" stroke-linejoin="round" opacity="0.95">
    <title>5558 b:1</title>
  </polyline>
</svg>
