<?xml version="1.0" encoding="UTF-8"?>
<svg xmlns="http://www.w3.org/2000/svg" width="77" height="38" viewBox="0 0 77 38">
  <title>atom 5559 b:1</title>
  <metadata>{&quot;entityType&quot;:&quot;atom&quot;,&quot;entityId&quot;:&quot;5559&quot;,&quot;token&quot;:&quot;b:1&quot;,&quot;signature&quot;:&quot;b:1&quot;,&quot;imageName&quot;:&quot;page-005.jpg&quot;,&quot;imageId&quot;:5,&quot;bounds&quot;:{&quot;x&quot;:1063,&quot;y&quot;:460,&quot;w&quot;:77,&quot;h&quot;:38},&quot;atoms&quot;:[{&quot;id&quot;:5559,&quot;token&quot;:&quot;b:1&quot;,&quot;particle_id&quot;:&quot;img5-m6-p2&quot;,&quot;molecule_id&quot;:&quot;img5-m6&quot;,&quot;atom_order&quot;:3}]}</metadata>
  <rect x="0" y="0" width="77" height="38" fill="#f8f0d8"/>
  <image href="file:///C:/Users/HHHES/AppData/Roaming/com.voynichlab.datasetcreator/images/1/a6cd3b6e-2a78-4b30-a4be-5d186aea258e.jpg" x="-1063" y="-460" width="2691" height="3770" opacity="0.92"/>
  <rect x="0.5" y="0.5" width="76" height="37" fill="none" stroke="#111827" stroke-width="1" opacity="0.35"/>
  <polyline points="16,17 17,17 17,18 18,18 18,19 19,19 20,20 21,20 22,20 22,21 23,21 24,21 25,21 26,21 27,22 29,22 30,22 31,22 32,22 33,22 34,22 35,22 36,22 37,22 38,22 39,22 40,22 41,22 42,22 43,22 44,22 45,22 46,22 47,22 48,22 49,22 50,22 50,21 51,21 52,21 53,21 54,21 54,20 55,20 56,20 57,19 58,19 58,18 59,18 59,17 60,17 60,16 61,16" fill="none" stroke="#2f7df6" stroke-width="3" stroke-linecap="round" stroke-linejoin="round" opacity="0.95">
    <title>5559 b:1</title>
  </polyline>
</svg>
