<?xml version="1.0" encoding="UTF-8"?>
<svg xmlns="http://www.w3.org/2000/svg" width="78" height="39" viewBox="0 0 78 39">
  <title>atom 5560 b:1</title>
  <metadata>{&quot;entityType&quot;:&quot;atom&quot;,&quot;entityId&quot;:&quot;5560&quot;,&quot;token&quot;:&quot;b:1&quot;,&quot;signature&quot;:&quot;b:1&quot;,&quot;imageName&quot;:&quot;page-005.jpg&quot;,&quot;imageId&quot;:5,&quot;bounds&quot;:{&quot;x&quot;:1398,&quot;y&quot;:466,&quot;w&quot;:78,&quot;h&quot;:39},&quot;atoms&quot;:[{&quot;id&quot;:5560,&quot;token&quot;:&quot;b:1&quot;,&quot;particle_id&quot;:&quot;img5-m4-p1&quot;,&quot;molecule_id&quot;:&quot;img5-m4&quot;,&quot;atom_order&quot;:6}]}</metadata>
  <rect x="0" y="0" width="78" height="39" fill="#f8f0d8"/>
  <image href="file:///C:/Users/HHHES/AppData/Roaming/com.voynichlab.datasetcreator/images/1/a6cd3b6e-2a78-4b30-a4be-5d186aea258e.jpg" x="-1398" y="-466" width="2691" height="3770" opacity="0.92"/>
  <rect x="0.5" y="0.5" width="77" height="38" fill="none" stroke="#111827" stroke-width="1" opacity="0.35"/>
  <polyline points="16,18 16,19 17,20 18,21 19,21 19,22 20,22 21,22 22,22 23,22 24,22 25,23 26,23 27,23 28,23 29,23 30,23 31,23 32,23 34,23 35,23 36,23 37,23 38,23 39,23 40,23 41,23 42,23 43,23 44,23 45,23 46,23 47,23 48,23 49,23 50,23 50,22 51,22 52,22 53,21 54,21 55,21 55,20 56,20 57,20 57,19 58,19 58,18 59,18 59,17 60,17 61,17 61,16 62,16" fill="none" stroke="#2f7df6" stroke-width="3" stroke-linecap="round" stroke-linejoin="round" opacity="0.95">
    <title>5560 b:1</title>
  </polyline>
</svg>
