<?xml version="1.0" encoding="UTF-8"?>
<svg xmlns="http://www.w3.org/2000/svg" width="80" height="37" viewBox="0 0 80 37">
  <title>atom 5561 b:1</title>
  <metadata>{&quot;entityType&quot;:&quot;atom&quot;,&quot;entityId&quot;:&quot;5561&quot;,&quot;token&quot;:&quot;b:1&quot;,&quot;signature&quot;:&quot;b:1&quot;,&quot;imageName&quot;:&quot;page-005.jpg&quot;,&quot;imageId&quot;:5,&quot;bounds&quot;:{&quot;x&quot;:1644,&quot;y&quot;:441,&quot;w&quot;:80,&quot;h&quot;:37},&quot;atoms&quot;:[{&quot;id&quot;:5561,&quot;token&quot;:&quot;b:1&quot;,&quot;particle_id&quot;:&quot;img5-m2-p1&quot;,&quot;molecule_id&quot;:&quot;img5-m2&quot;,&quot;atom_order&quot;:3}]}</metadata>
  <rect x="0" y="0" width="80" height="37" fill="#f8f0d8"/>
  <image href="file:///C:/Users/HHHES/AppData/Roaming/com.voynichlab.datasetcreator/images/1/a6cd3b6e-2a78-4b30-a4be-5d186aea258e.jpg" x="-1644" y="-441" width="2691" height="3770" opacity="0.92"/>
  <rect x="0.5" y="0.5" width="79" height="36" fill="none" stroke="#111827" stroke-width="1" opacity="0.35"/>
  <polyline points="16,16 17,17 18,17 19,17 19,18 20,18 21,18 21,19 22,19 23,19 24,19 25,19 26,20 27,20 28,20 29,20 30,20 31,20 32,20 33,20 34,20 35,20 35,21 36,21 37,21 38,21 39,21 40,21 41,21 42,21 43,21 45,21 46,21 47,21 48,21 49,21 50,21 52,21 54,21 55,21 56,21 57,21 58,21 58,20 59,20 60,20 60,19 61,19 62,19 63,19 64,18" fill="none" stroke="#2f7df6" stroke-width="3" stroke-linecap="round" stroke-linejoin="round" opacity="0.95">
    <title>5561 b:1</title>
  </polyline>
</svg>
