<?xml version="1.0" encoding="UTF-8"?>
<svg xmlns="http://www.w3.org/2000/svg" width="82" height="39" viewBox="0 0 82 39">
  <title>atom 5563 b:1</title>
  <metadata>{&quot;entityType&quot;:&quot;atom&quot;,&quot;entityId&quot;:&quot;5563&quot;,&quot;token&quot;:&quot;b:1&quot;,&quot;signature&quot;:&quot;b:1&quot;,&quot;imageName&quot;:&quot;page-005.jpg&quot;,&quot;imageId&quot;:5,&quot;bounds&quot;:{&quot;x&quot;:1525,&quot;y&quot;:576,&quot;w&quot;:82,&quot;h&quot;:39},&quot;atoms&quot;:[{&quot;id&quot;:5563,&quot;token&quot;:&quot;b:1&quot;,&quot;particle_id&quot;:&quot;img5-m10-p1&quot;,&quot;molecule_id&quot;:&quot;img5-m10&quot;,&quot;atom_order&quot;:4}]}</metadata>
  <rect x="0" y="0" width="82" height="39" fill="#f8f0d8"/>
  <image href="file:///C:/Users/HHHES/AppData/Roaming/com.voynichlab.datasetcreator/images/1/a6cd3b6e-2a78-4b30-a4be-5d186aea258e.jpg" x="-1525" y="-576" width="2691" height="3770" opacity="0.92"/>
  <rect x="0.5" y="0.5" width="81" height="38" fill="none" stroke="#111827" stroke-width="1" opacity="0.35"/>
  <polyline points="16,16 17,16 17,17 18,17 19,17 19,18 20,18 21,18 21,19 22,19 23,19 24,19 24,20 25,20 26,20 26,21 27,21 28,21 29,21 30,21 31,22 32,22 33,22 34,22 35,22 35,23 36,23 37,23 38,23 39,23 40,23 41,23 42,23 43,23 44,23 45,23 47,23 48,23 49,23 50,23 51,23 51,22 52,22 53,22 54,22 55,22 56,22 57,21 58,21 59,21 60,21 61,21 62,21 62,20 63,20 63,19 64,19 64,18 65,18 66,17" fill="none" stroke="#2f7df6" stroke-width="3" stroke-linecap="round" stroke-linejoin="round" opacity="0.95">
    <title>5563 b:1</title>
  </polyline>
</svg>
