<?xml version="1.0" encoding="UTF-8"?>
<svg xmlns="http://www.w3.org/2000/svg" width="66" height="38" viewBox="0 0 66 38">
  <title>atom 5568 b:1</title>
  <metadata>{&quot;entityType&quot;:&quot;atom&quot;,&quot;entityId&quot;:&quot;5568&quot;,&quot;token&quot;:&quot;b:1&quot;,&quot;signature&quot;:&quot;b:1&quot;,&quot;imageName&quot;:&quot;page-005.jpg&quot;,&quot;imageId&quot;:5,&quot;bounds&quot;:{&quot;x&quot;:1376,&quot;y&quot;:726,&quot;w&quot;:66,&quot;h&quot;:38},&quot;atoms&quot;:[{&quot;id&quot;:5568,&quot;token&quot;:&quot;b:1&quot;,&quot;particle_id&quot;:&quot;img5-m21-p1&quot;,&quot;molecule_id&quot;:&quot;img5-m21&quot;,&quot;atom_order&quot;:6}]}</metadata>
  <rect x="0" y="0" width="66" height="38" fill="#f8f0d8"/>
  <image href="file:///C:/Users/HHHES/AppData/Roaming/com.voynichlab.datasetcreator/images/1/a6cd3b6e-2a78-4b30-a4be-5d186aea258e.jpg" x="-1376" y="-726" width="2691" height="3770" opacity="0.92"/>
  <rect x="0.5" y="0.5" width="65" height="37" fill="none" stroke="#111827" stroke-width="1" opacity="0.35"/>
  <polyline points="16,18 16,19 17,19 18,19 18,20 19,20 20,20 21,21 22,21 24,21 25,22 26,22 27,22 28,22 29,22 30,22 31,22 32,22 33,22 34,22 35,22 36,22 37,21 38,21 39,21 40,21 41,21 42,20 43,20 44,20 45,20 45,19 46,19 47,19 48,18 48,17 49,17 50,17 50,16" fill="none" stroke="#2f7df6" stroke-width="3" stroke-linecap="round" stroke-linejoin="round" opacity="0.95">
    <title>5568 b:1</title>
  </polyline>
</svg>
