<?xml version="1.0" encoding="UTF-8"?>
<svg xmlns="http://www.w3.org/2000/svg" width="64" height="40" viewBox="0 0 64 40">
  <title>atom 5571 b:1</title>
  <metadata>{&quot;entityType&quot;:&quot;atom&quot;,&quot;entityId&quot;:&quot;5571&quot;,&quot;token&quot;:&quot;b:1&quot;,&quot;signature&quot;:&quot;b:1&quot;,&quot;imageName&quot;:&quot;page-005.jpg&quot;,&quot;imageId&quot;:5,&quot;bounds&quot;:{&quot;x&quot;:1034,&quot;y&quot;:879,&quot;w&quot;:64,&quot;h&quot;:40},&quot;atoms&quot;:[{&quot;id&quot;:5571,&quot;token&quot;:&quot;b:1&quot;,&quot;particle_id&quot;:&quot;img5-m40-p2&quot;,&quot;molecule_id&quot;:&quot;img5-m40&quot;,&quot;atom_order&quot;:2}]}</metadata>
  <rect x="0" y="0" width="64" height="40" fill="#f8f0d8"/>
  <image href="file:///C:/Users/HHHES/AppData/Roaming/com.voynichlab.datasetcreator/images/1/a6cd3b6e-2a78-4b30-a4be-5d186aea258e.jpg" x="-1034" y="-879" width="2691" height="3770" opacity="0.92"/>
  <rect x="0.5" y="0.5" width="63" height="39" fill="none" stroke="#111827" stroke-width="1" opacity="0.35"/>
  <polyline points="16,20 16,21 17,21 18,22 19,22 20,23 21,23 22,24 24,24 25,24 26,24 27,24 28,24 29,24 30,24 31,24 32,24 33,24 34,24 35,24 36,24 37,23 38,23 39,23 40,22 41,22 42,22 42,21 43,21 44,20 44,19 45,19 45,18 46,18 46,17 47,17 48,17 48,16" fill="none" stroke="#2f7df6" stroke-width="3" stroke-linecap="round" stroke-linejoin="round" opacity="0.95">
    <title>5571 b:1</title>
  </polyline>
</svg>
