<?xml version="1.0" encoding="UTF-8"?>
<svg xmlns="http://www.w3.org/2000/svg" width="69" height="48" viewBox="0 0 69 48">
  <title>atom 5989 b:1</title>
  <metadata>{&quot;entityType&quot;:&quot;atom&quot;,&quot;entityId&quot;:&quot;5989&quot;,&quot;token&quot;:&quot;b:1&quot;,&quot;signature&quot;:&quot;b:1&quot;,&quot;imageName&quot;:&quot;page-005.jpg&quot;,&quot;imageId&quot;:5,&quot;bounds&quot;:{&quot;x&quot;:465,&quot;y&quot;:2386,&quot;w&quot;:69,&quot;h&quot;:48},&quot;atoms&quot;:[{&quot;id&quot;:5989,&quot;token&quot;:&quot;b:1&quot;,&quot;particle_id&quot;:&quot;img5-m48-p1&quot;,&quot;molecule_id&quot;:&quot;img5-m48&quot;,&quot;atom_order&quot;:2}]}</metadata>
  <rect x="0" y="0" width="69" height="48" fill="#f8f0d8"/>
  <image href="file:///C:/Users/HHHES/AppData/Roaming/com.voynichlab.datasetcreator/images/1/a6cd3b6e-2a78-4b30-a4be-5d186aea258e.jpg" x="-465" y="-2386" width="2691" height="3770" opacity="0.92"/>
  <rect x="0.5" y="0.5" width="68" height="47" fill="none" stroke="#111827" stroke-width="1" opacity="0.35"/>
  <polyline points="16,16 16,17 16,18 17,19 17,20 17,21 17,22 18,22 18,23 18,24 18,25 19,25 19,26 20,27 21,27 21,28 22,28 23,29 24,29 24,30 25,30 26,31 27,31 28,31 29,31 29,32 31,32 32,32 33,32 34,32 35,32 36,31 37,31 38,31 39,31 40,31 41,31 42,30 43,30 44,30 45,30 45,29 46,29 47,28 48,27 49,26 49,25 50,25 51,24 51,23 52,22 53,21" fill="none" stroke="#2f7df6" stroke-width="3" stroke-linecap="round" stroke-linejoin="round" opacity="0.95">
    <title>5989 b:1</title>
  </polyline>
</svg>
