<?xml version="1.0" encoding="UTF-8"?>
<svg xmlns="http://www.w3.org/2000/svg" width="69" height="47" viewBox="0 0 69 47">
  <title>atom 5990 b:1</title>
  <metadata>{&quot;entityType&quot;:&quot;atom&quot;,&quot;entityId&quot;:&quot;5990&quot;,&quot;token&quot;:&quot;b:1&quot;,&quot;signature&quot;:&quot;b:1&quot;,&quot;imageName&quot;:&quot;page-005.jpg&quot;,&quot;imageId&quot;:5,&quot;bounds&quot;:{&quot;x&quot;:1301,&quot;y&quot;:2430,&quot;w&quot;:69,&quot;h&quot;:47},&quot;atoms&quot;:[{&quot;id&quot;:5990,&quot;token&quot;:&quot;b:1&quot;,&quot;particle_id&quot;:&quot;img5-m57-p3&quot;,&quot;molecule_id&quot;:&quot;img5-m57&quot;,&quot;atom_order&quot;:5}]}</metadata>
  <rect x="0" y="0" width="69" height="47" fill="#f8f0d8"/>
  <image href="file:///C:/Users/HHHES/AppData/Roaming/com.voynichlab.datasetcreator/images/1/a6cd3b6e-2a78-4b30-a4be-5d186aea258e.jpg" x="-1301" y="-2430" width="2691" height="3770" opacity="0.92"/>
  <rect x="0.5" y="0.5" width="68" height="46" fill="none" stroke="#111827" stroke-width="1" opacity="0.35"/>
  <polyline points="16,16 17,16 17,17 17,18 17,19 17,20 17,21 17,22 18,23 18,24 19,24 19,25 20,25 20,26 21,26 21,27 22,27 23,28 24,29 26,30 27,31 28,31 29,31 30,31 31,31 32,31 33,31 34,31 35,31 36,31 37,30 38,30 39,30 40,30 41,30 41,29 42,29 43,29 44,28 45,28 46,27 47,27 47,26 48,25 49,24 50,24 51,23 52,23 52,22 53,22 53,21" fill="none" stroke="#2f7df6" stroke-width="3" stroke-linecap="round" stroke-linejoin="round" opacity="0.95">
    <title>5990 b:1</title>
  </polyline>
</svg>
