<?xml version="1.0" encoding="UTF-8"?>
<svg xmlns="http://www.w3.org/2000/svg" width="68" height="45" viewBox="0 0 68 45">
  <title>atom 5994 b:1</title>
  <metadata>{&quot;entityType&quot;:&quot;atom&quot;,&quot;entityId&quot;:&quot;5994&quot;,&quot;token&quot;:&quot;b:1&quot;,&quot;signature&quot;:&quot;b:1&quot;,&quot;imageName&quot;:&quot;page-005.jpg&quot;,&quot;imageId&quot;:5,&quot;bounds&quot;:{&quot;x&quot;:1052,&quot;y&quot;:2540,&quot;w&quot;:68,&quot;h&quot;:45},&quot;atoms&quot;:[{&quot;id&quot;:5994,&quot;token&quot;:&quot;b:1&quot;,&quot;particle_id&quot;:&quot;img5-m65-p2&quot;,&quot;molecule_id&quot;:&quot;img5-m65&quot;,&quot;atom_order&quot;:2}]}</metadata>
  <rect x="0" y="0" width="68" height="45" fill="#f8f0d8"/>
  <image href="file:///C:/Users/HHHES/AppData/Roaming/com.voynichlab.datasetcreator/images/1/a6cd3b6e-2a78-4b30-a4be-5d186aea258e.jpg" x="-1052" y="-2540" width="2691" height="3770" opacity="0.92"/>
  <rect x="0.5" y="0.5" width="67" height="44" fill="none" stroke="#111827" stroke-width="1" opacity="0.35"/>
  <polyline points="16,16 16,17 17,18 17,19 18,20 19,21 20,22 21,23 21,24 22,25 23,26 25,26 26,27 27,28 28,28 29,28 30,29 31,29 32,29 33,29 34,29 36,29 37,29 38,29 39,29 40,29 41,28 42,28 43,27 44,27 45,26 46,26 47,25 48,24 49,24 50,23 51,22 51,21 52,20 52,19" fill="none" stroke="#2f7df6" stroke-width="3" stroke-linecap="round" stroke-linejoin="round" opacity="0.95">
    <title>5994 b:1</title>
  </polyline>
</svg>
