<?xml version="1.0" encoding="UTF-8"?>
<svg xmlns="http://www.w3.org/2000/svg" width="62" height="42" viewBox="0 0 62 42">
  <title>atom 5995 b:1</title>
  <metadata>{&quot;entityType&quot;:&quot;atom&quot;,&quot;entityId&quot;:&quot;5995&quot;,&quot;token&quot;:&quot;b:1&quot;,&quot;signature&quot;:&quot;b:1&quot;,&quot;imageName&quot;:&quot;page-005.jpg&quot;,&quot;imageId&quot;:5,&quot;bounds&quot;:{&quot;x&quot;:672,&quot;y&quot;:2527,&quot;w&quot;:62,&quot;h&quot;:42},&quot;atoms&quot;:[{&quot;id&quot;:5995,&quot;token&quot;:&quot;b:1&quot;,&quot;particle_id&quot;:&quot;img5-m59-p1&quot;,&quot;molecule_id&quot;:&quot;img5-m59&quot;,&quot;atom_order&quot;:2}]}</metadata>
  <rect x="0" y="0" width="62" height="42" fill="#f8f0d8"/>
  <image href="file:///C:/Users/HHHES/AppData/Roaming/com.voynichlab.datasetcreator/images/1/a6cd3b6e-2a78-4b30-a4be-5d186aea258e.jpg" x="-672" y="-2527" width="2691" height="3770" opacity="0.92"/>
  <rect x="0.5" y="0.5" width="61" height="41" fill="none" stroke="#111827" stroke-width="1" opacity="0.35"/>
  <polyline points="16,16 16,17 16,18 16,19 16,20 17,20 17,21 17,22 18,22 18,23 19,23 19,24 20,24 21,24 22,25 23,25 24,25 25,25 26,25 26,26 27,26 28,26 29,26 30,26 31,26 32,26 33,26 34,26 35,26 36,26 37,25 38,25 39,25 40,25 41,24 42,24 42,23 43,23 43,22 44,22 44,21 45,21 45,20 45,19 46,18 46,17" fill="none" stroke="#2f7df6" stroke-width="3" stroke-linecap="round" stroke-linejoin="round" opacity="0.95">
    <title>5995 b:1</title>
  </polyline>
</svg>
