<?xml version="1.0" encoding="UTF-8"?>
<svg xmlns="http://www.w3.org/2000/svg" width="61" height="44" viewBox="0 0 61 44">
  <title>atom 5996 b:1</title>
  <metadata>{&quot;entityType&quot;:&quot;atom&quot;,&quot;entityId&quot;:&quot;5996&quot;,&quot;token&quot;:&quot;b:1&quot;,&quot;signature&quot;:&quot;b:1&quot;,&quot;imageName&quot;:&quot;page-005.jpg&quot;,&quot;imageId&quot;:5,&quot;bounds&quot;:{&quot;x&quot;:521,&quot;y&quot;:2608,&quot;w&quot;:61,&quot;h&quot;:44},&quot;atoms&quot;:[{&quot;id&quot;:5996,&quot;token&quot;:&quot;b:1&quot;,&quot;particle_id&quot;:&quot;img5-m72-p2&quot;,&quot;molecule_id&quot;:&quot;img5-m72&quot;,&quot;atom_order&quot;:2}]}</metadata>
  <rect x="0" y="0" width="61" height="44" fill="#f8f0d8"/>
  <image href="file:///C:/Users/HHHES/AppData/Roaming/com.voynichlab.datasetcreator/images/1/a6cd3b6e-2a78-4b30-a4be-5d186aea258e.jpg" x="-521" y="-2608" width="2691" height="3770" opacity="0.92"/>
  <rect x="0.5" y="0.5" width="60" height="43" fill="none" stroke="#111827" stroke-width="1" opacity="0.35"/>
  <polyline points="16,16 16,17 17,17 17,18 18,19 18,20 18,21 19,21 19,22 20,23 20,24 21,24 21,25 22,25 22,26 23,26 24,26 25,27 26,27 27,27 28,27 29,28 30,28 31,28 32,28 33,28 33,27 34,27 35,27 36,27 37,27 38,27 39,27 40,26 41,26 42,26 42,25 43,25 43,24 44,24 44,23 45,23" fill="none" stroke="#2f7df6" stroke-width="3" stroke-linecap="round" stroke-linejoin="round" opacity="0.95">
    <title>5996 b:1</title>
  </polyline>
</svg>
