<?xml version="1.0" encoding="UTF-8"?>
<svg xmlns="http://www.w3.org/2000/svg" width="65" height="45" viewBox="0 0 65 45">
  <title>atom 5997 b:1</title>
  <metadata>{&quot;entityType&quot;:&quot;atom&quot;,&quot;entityId&quot;:&quot;5997&quot;,&quot;token&quot;:&quot;b:1&quot;,&quot;signature&quot;:&quot;b:1&quot;,&quot;imageName&quot;:&quot;page-005.jpg&quot;,&quot;imageId&quot;:5,&quot;bounds&quot;:{&quot;x&quot;:1207,&quot;y&quot;:2623,&quot;w&quot;:65,&quot;h&quot;:45},&quot;atoms&quot;:[{&quot;id&quot;:5997,&quot;token&quot;:&quot;b:1&quot;,&quot;particle_id&quot;:&quot;img5-m79-p2&quot;,&quot;molecule_id&quot;:&quot;img5-m79&quot;,&quot;atom_order&quot;:2}]}</metadata>
  <rect x="0" y="0" width="65" height="45" fill="#f8f0d8"/>
  <image href="file:///C:/Users/HHHES/AppData/Roaming/com.voynichlab.datasetcreator/images/1/a6cd3b6e-2a78-4b30-a4be-5d186aea258e.jpg" x="-1207" y="-2623" width="2691" height="3770" opacity="0.92"/>
  <rect x="0.5" y="0.5" width="64" height="44" fill="none" stroke="#111827" stroke-width="1" opacity="0.35"/>
  <polyline points="16,16 16,17 16,18 16,19 16,20 17,21 17,22 17,23 18,23 19,24 19,25 20,25 21,26 22,27 23,27 24,27 25,28 26,28 27,28 28,28 30,28 31,29 32,29 33,29 33,28 34,28 35,28 36,28 37,28 37,27 38,27 39,27 40,27 41,26 42,26 42,25 43,25 44,25 45,25 45,24 46,24 47,23 48,23 48,22 49,22" fill="none" stroke="#2f7df6" stroke-width="3" stroke-linecap="round" stroke-linejoin="round" opacity="0.95">
    <title>5997 b:1</title>
  </polyline>
</svg>
