<?xml version="1.0" encoding="UTF-8"?>
<svg xmlns="http://www.w3.org/2000/svg" width="68" height="41" viewBox="0 0 68 41">
  <title>atom 6000 b:1</title>
  <metadata>{&quot;entityType&quot;:&quot;atom&quot;,&quot;entityId&quot;:&quot;6000&quot;,&quot;token&quot;:&quot;b:1&quot;,&quot;signature&quot;:&quot;b:1&quot;,&quot;imageName&quot;:&quot;page-005.jpg&quot;,&quot;imageId&quot;:5,&quot;bounds&quot;:{&quot;x&quot;:2154,&quot;y&quot;:2651,&quot;w&quot;:68,&quot;h&quot;:41},&quot;atoms&quot;:[{&quot;id&quot;:6000,&quot;token&quot;:&quot;b:1&quot;,&quot;particle_id&quot;:&quot;img5-m77-p1&quot;,&quot;molecule_id&quot;:&quot;img5-m77&quot;,&quot;atom_order&quot;:3}]}</metadata>
  <rect x="0" y="0" width="68" height="41" fill="#f8f0d8"/>
  <image href="file:///C:/Users/HHHES/AppData/Roaming/com.voynichlab.datasetcreator/images/1/a6cd3b6e-2a78-4b30-a4be-5d186aea258e.jpg" x="-2154" y="-2651" width="2691" height="3770" opacity="0.92"/>
  <rect x="0.5" y="0.5" width="67" height="40" fill="none" stroke="#111827" stroke-width="1" opacity="0.35"/>
  <polyline points="16,17 16,18 16,19 17,20 18,21 19,22 19,23 20,23 21,23 22,24 23,24 25,25 27,25 28,25 29,25 30,25 31,25 33,25 34,25 36,25 37,25 38,24 40,24 41,23 43,23 44,22 45,21 46,21 47,20 48,20 48,19 49,19 50,18 51,17 52,17 52,16" fill="none" stroke="#2f7df6" stroke-width="3" stroke-linecap="round" stroke-linejoin="round" opacity="0.95">
    <title>6000 b:1</title>
  </polyline>
</svg>
