<?xml version="1.0" encoding="UTF-8"?>
<svg xmlns="http://www.w3.org/2000/svg" width="60" height="47" viewBox="0 0 60 47">
  <title>atom 6001 b:1</title>
  <metadata>{&quot;entityType&quot;:&quot;atom&quot;,&quot;entityId&quot;:&quot;6001&quot;,&quot;token&quot;:&quot;b:1&quot;,&quot;signature&quot;:&quot;b:1&quot;,&quot;imageName&quot;:&quot;page-005.jpg&quot;,&quot;imageId&quot;:5,&quot;bounds&quot;:{&quot;x&quot;:511,&quot;y&quot;:2767,&quot;w&quot;:60,&quot;h&quot;:47},&quot;atoms&quot;:[{&quot;id&quot;:6001,&quot;token&quot;:&quot;b:1&quot;,&quot;particle_id&quot;:&quot;img5-m97-p2&quot;,&quot;molecule_id&quot;:&quot;img5-m97&quot;,&quot;atom_order&quot;:2}]}</metadata>
  <rect x="0" y="0" width="60" height="47" fill="#f8f0d8"/>
  <image href="file:///C:/Users/HHHES/AppData/Roaming/com.voynichlab.datasetcreator/images/1/a6cd3b6e-2a78-4b30-a4be-5d186aea258e.jpg" x="-511" y="-2767" width="2691" height="3770" opacity="0.92"/>
  <rect x="0.5" y="0.5" width="59" height="46" fill="none" stroke="#111827" stroke-width="1" opacity="0.35"/>
  <polyline points="16,16 16,17 16,19 16,20 16,22 16,23 17,23 17,24 18,25 19,26 19,27 20,27 21,28 22,29 23,30 24,30 25,30 26,30 27,30 28,31 29,31 30,31 32,31 33,31 34,31 35,31 36,30 37,30 38,29 39,29 39,28 40,28 40,27 41,27 42,26 42,25 43,24 44,23" fill="none" stroke="#2f7df6" stroke-width="3" stroke-linecap="round" stroke-linejoin="round" opacity="0.95">
    <title>6001 b:1</title>
  </polyline>
</svg>
