<?xml version="1.0" encoding="UTF-8"?>
<svg xmlns="http://www.w3.org/2000/svg" width="76" height="39" viewBox="0 0 76 39">
  <title>atom 6002 b:1</title>
  <metadata>{&quot;entityType&quot;:&quot;atom&quot;,&quot;entityId&quot;:&quot;6002&quot;,&quot;token&quot;:&quot;b:1&quot;,&quot;signature&quot;:&quot;b:1&quot;,&quot;imageName&quot;:&quot;page-005.jpg&quot;,&quot;imageId&quot;:5,&quot;bounds&quot;:{&quot;x&quot;:941,&quot;y&quot;:2778,&quot;w&quot;:76,&quot;h&quot;:39},&quot;atoms&quot;:[{&quot;id&quot;:6002,&quot;token&quot;:&quot;b:1&quot;,&quot;particle_id&quot;:&quot;img5-m90-p1&quot;,&quot;molecule_id&quot;:&quot;img5-m90&quot;,&quot;atom_order&quot;:4}]}</metadata>
  <rect x="0" y="0" width="76" height="39" fill="#f8f0d8"/>
  <image href="file:///C:/Users/HHHES/AppData/Roaming/com.voynichlab.datasetcreator/images/1/a6cd3b6e-2a78-4b30-a4be-5d186aea258e.jpg" x="-941" y="-2778" width="2691" height="3770" opacity="0.92"/>
  <rect x="0.5" y="0.5" width="75" height="38" fill="none" stroke="#111827" stroke-width="1" opacity="0.35"/>
  <polyline points="18,18 17,18 16,18 16,19 17,19 18,19 18,20 19,20 20,20 20,21 21,21 22,21 23,21 23,22 24,22 25,22 26,22 27,22 28,23 29,23 30,23 31,23 32,23 33,23 34,23 35,23 36,23 37,23 38,23 39,23 40,23 41,23 42,23 43,23 44,22 45,22 46,22 47,22 48,22 49,22 49,21 50,21 51,21 51,20 52,20 53,20 54,20 54,19 55,18 56,18 58,17 59,16 60,16" fill="none" stroke="#2f7df6" stroke-width="3" stroke-linecap="round" stroke-linejoin="round" opacity="0.95">
    <title>6002 b:1</title>
  </polyline>
</svg>
