<?xml version="1.0" encoding="UTF-8"?>
<svg xmlns="http://www.w3.org/2000/svg" width="79" height="39" viewBox="0 0 79 39">
  <title>atom 6003 b:1</title>
  <metadata>{&quot;entityType&quot;:&quot;atom&quot;,&quot;entityId&quot;:&quot;6003&quot;,&quot;token&quot;:&quot;b:1&quot;,&quot;signature&quot;:&quot;b:1&quot;,&quot;imageName&quot;:&quot;page-005.jpg&quot;,&quot;imageId&quot;:5,&quot;bounds&quot;:{&quot;x&quot;:1913,&quot;y&quot;:2745,&quot;w&quot;:79,&quot;h&quot;:39},&quot;atoms&quot;:[{&quot;id&quot;:6003,&quot;token&quot;:&quot;b:1&quot;,&quot;particle_id&quot;:&quot;img5-m93-p3&quot;,&quot;molecule_id&quot;:&quot;img5-m93&quot;,&quot;atom_order&quot;:3}]}</metadata>
  <rect x="0" y="0" width="79" height="39" fill="#f8f0d8"/>
  <image href="file:///C:/Users/HHHES/AppData/Roaming/com.voynichlab.datasetcreator/images/1/a6cd3b6e-2a78-4b30-a4be-5d186aea258e.jpg" x="-1913" y="-2745" width="2691" height="3770" opacity="0.92"/>
  <rect x="0.5" y="0.5" width="78" height="38" fill="none" stroke="#111827" stroke-width="1" opacity="0.35"/>
  <polyline points="16,20 17,21 18,21 19,22 20,22 21,22 22,22 23,22 24,23 25,23 26,23 27,23 28,23 29,23 30,23 32,23 33,23 35,23 36,23 37,23 38,23 39,22 40,22 41,22 42,22 44,22 46,22 47,22 48,22 49,22 50,22 51,22 52,22 53,21 54,20 55,20 56,20 57,19 58,19 59,19 60,18 61,18 62,18 63,17 63,16" fill="none" stroke="#2f7df6" stroke-width="3" stroke-linecap="round" stroke-linejoin="round" opacity="0.95">
    <title>6003 b:1</title>
  </polyline>
</svg>
