<?xml version="1.0" encoding="UTF-8"?>
<svg xmlns="http://www.w3.org/2000/svg" width="47" height="72" viewBox="0 0 47 72">
  <title>atom 1488 h:2</title>
  <metadata>{&quot;entityType&quot;:&quot;atom&quot;,&quot;entityId&quot;:&quot;1488&quot;,&quot;token&quot;:&quot;h:2&quot;,&quot;signature&quot;:&quot;h:2&quot;,&quot;imageName&quot;:&quot;page-003.jpg&quot;,&quot;imageId&quot;:3,&quot;bounds&quot;:{&quot;x&quot;:567,&quot;y&quot;:774,&quot;w&quot;:47,&quot;h&quot;:72},&quot;atoms&quot;:[{&quot;id&quot;:1488,&quot;token&quot;:&quot;h:2&quot;,&quot;particle_id&quot;:&quot;img3-m33-p1&quot;,&quot;molecule_id&quot;:&quot;img3-m33&quot;,&quot;atom_order&quot;:3}]}</metadata>
  <rect x="0" y="0" width="47" height="72" fill="#f8f0d8"/>
  <image href="file:///C:/Users/HHHES/AppData/Roaming/com.voynichlab.datasetcreator/images/1/35a70f63-88ab-4986-b441-b78046a10087.jpg" x="-567" y="-774" width="2972" height="3766" opacity="0.92"/>
  <rect x="0.5" y="0.5" width="46" height="71" fill="none" stroke="#111827" stroke-width="1" opacity="0.35"/>
  <polyline points="25,56 26,56 27,56 27,55 28,55 28,54 29,54 29,53 30,53 30,52 31,52 31,51 31,50 31,49 31,48 31,47 31,46 31,45 30,44 30,43 29,43 29,42 28,42 28,41 27,41 27,40 26,40 25,39 24,39 24,38 23,38 22,38 22,37 21,37 20,37 20,36 19,36 18,35 18,34 17,34 17,33 17,32 16,32 16,31 16,30 16,29 16,28 16,27 16,26 17,26 17,25 18,24 18,23 19,23 19,22 20,21 20,20 21,20 21,19 22,19 22,18 23,18 24,18 25,17 26,17 27,17 27,16 28,16 29,16 30,16" fill="none" stroke="#ff8c00" stroke-width="3" stroke-linecap="round" stroke-linejoin="round" opacity="0.95">
    <title>1488 h:2</title>
  </polyline>
</svg>
