<?xml version="1.0" encoding="UTF-8"?>
<svg xmlns="http://www.w3.org/2000/svg" width="47" height="84" viewBox="0 0 47 84">
  <title>atom 1567 h:2</title>
  <metadata>{&quot;entityType&quot;:&quot;atom&quot;,&quot;entityId&quot;:&quot;1567&quot;,&quot;token&quot;:&quot;h:2&quot;,&quot;signature&quot;:&quot;h:2&quot;,&quot;imageName&quot;:&quot;page-003.jpg&quot;,&quot;imageId&quot;:3,&quot;bounds&quot;:{&quot;x&quot;:1693,&quot;y&quot;:745,&quot;w&quot;:47,&quot;h&quot;:84},&quot;atoms&quot;:[{&quot;id&quot;:1567,&quot;token&quot;:&quot;h:2&quot;,&quot;particle_id&quot;:&quot;img3-m30-p1&quot;,&quot;molecule_id&quot;:&quot;img3-m30&quot;,&quot;atom_order&quot;:3}]}</metadata>
  <rect x="0" y="0" width="47" height="84" fill="#f8f0d8"/>
  <image href="file:///C:/Users/HHHES/AppData/Roaming/com.voynichlab.datasetcreator/images/1/35a70f63-88ab-4986-b441-b78046a10087.jpg" x="-1693" y="-745" width="2972" height="3766" opacity="0.92"/>
  <rect x="0.5" y="0.5" width="46" height="83" fill="none" stroke="#111827" stroke-width="1" opacity="0.35"/>
  <polyline points="27,68 28,68 28,67 28,66 29,66 29,65 30,64 30,63 30,62 31,62 31,61 31,60 31,59 31,58 31,57 30,57 30,56 30,55 29,55 29,54 29,53 28,53 28,52 28,51 27,51 27,50 26,49 26,48 25,48 25,47 25,46 24,46 24,45 23,45 23,44 22,44 22,43 21,43 21,42 20,42 20,41 19,41 19,40 18,39 18,38 18,37 17,37 17,36 17,35 17,34 16,34 16,33 16,32 16,31 16,30 16,29 16,28 16,27 16,26 17,26 17,25 17,24 17,23 18,22 18,21 19,21 19,20 20,20 20,19 21,19 21,18 22,18 22,17 23,17 23,16" fill="none" stroke="#ff8c00" stroke-width="3" stroke-linecap="round" stroke-linejoin="round" opacity="0.95">
    <title>1567 h:2</title>
  </polyline>
</svg>
