<?xml version="1.0" encoding="UTF-8"?>
<svg xmlns="http://www.w3.org/2000/svg" width="44" height="72" viewBox="0 0 44 72">
  <title>atom 1735 h:2</title>
  <metadata>{&quot;entityType&quot;:&quot;atom&quot;,&quot;entityId&quot;:&quot;1735&quot;,&quot;token&quot;:&quot;h:2&quot;,&quot;signature&quot;:&quot;h:2&quot;,&quot;imageName&quot;:&quot;page-003.jpg&quot;,&quot;imageId&quot;:3,&quot;bounds&quot;:{&quot;x&quot;:2087,&quot;y&quot;:834,&quot;w&quot;:44,&quot;h&quot;:72},&quot;atoms&quot;:[{&quot;id&quot;:1735,&quot;token&quot;:&quot;h:2&quot;,&quot;particle_id&quot;:&quot;img3-m40-p2&quot;,&quot;molecule_id&quot;:&quot;img3-m40&quot;,&quot;atom_order&quot;:3}]}</metadata>
  <rect x="0" y="0" width="44" height="72" fill="#f8f0d8"/>
  <image href="file:///C:/Users/HHHES/AppData/Roaming/com.voynichlab.datasetcreator/images/1/35a70f63-88ab-4986-b441-b78046a10087.jpg" x="-2087" y="-834" width="2972" height="3766" opacity="0.92"/>
  <rect x="0.5" y="0.5" width="43" height="71" fill="none" stroke="#111827" stroke-width="1" opacity="0.35"/>
  <polyline points="19,16 18,16 18,17 17,17 17,18 17,19 16,20 16,21 16,22 16,23 16,24 16,25 16,26 17,26 17,27 17,28 18,29 18,30 19,30 19,31 20,31 20,32 20,33 21,33 21,34 22,34 22,35 23,35 23,36 24,36 24,37 25,38 25,39 26,39 26,40 27,41 27,42 28,43 28,44 28,45 28,46 28,47 28,48 28,49 28,50 27,50 27,51 26,51 26,52 25,52 25,53 24,53 24,54 23,54 22,54 22,55 21,55 20,55 20,56 19,56 18,56 17,56" fill="none" stroke="#ff8c00" stroke-width="3" stroke-linecap="round" stroke-linejoin="round" opacity="0.95">
    <title>1735 h:2</title>
  </polyline>
</svg>
