<?xml version="1.0" encoding="UTF-8"?>
<svg xmlns="http://www.w3.org/2000/svg" width="46" height="66" viewBox="0 0 46 66">
  <title>atom 1764 h:2</title>
  <metadata>{&quot;entityType&quot;:&quot;atom&quot;,&quot;entityId&quot;:&quot;1764&quot;,&quot;token&quot;:&quot;h:2&quot;,&quot;signature&quot;:&quot;h:2&quot;,&quot;imageName&quot;:&quot;page-003.jpg&quot;,&quot;imageId&quot;:3,&quot;bounds&quot;:{&quot;x&quot;:798,&quot;y&quot;:1047,&quot;w&quot;:46,&quot;h&quot;:66},&quot;atoms&quot;:[{&quot;id&quot;:1764,&quot;token&quot;:&quot;h:2&quot;,&quot;particle_id&quot;:&quot;img3-m46-p2&quot;,&quot;molecule_id&quot;:&quot;img3-m46&quot;,&quot;atom_order&quot;:3}]}</metadata>
  <rect x="0" y="0" width="46" height="66" fill="#f8f0d8"/>
  <image href="file:///C:/Users/HHHES/AppData/Roaming/com.voynichlab.datasetcreator/images/1/35a70f63-88ab-4986-b441-b78046a10087.jpg" x="-798" y="-1047" width="2972" height="3766" opacity="0.92"/>
  <rect x="0.5" y="0.5" width="45" height="65" fill="none" stroke="#111827" stroke-width="1" opacity="0.35"/>
  <polyline points="16,16 16,17 16,18 16,19 16,20 17,20 17,21 17,22 18,22 18,23 19,23 19,24 20,25 21,25 21,26 22,26 22,27 23,27 24,27 24,28 25,28 25,29 26,29 26,30 26,31 27,31 27,32 27,33 28,33 28,34 29,34 29,35 29,36 30,36 30,37 30,38 30,39 30,40 30,41 30,42 30,43 30,44 30,45 30,46 29,46 29,47 29,48 28,48 27,48 27,49 26,49 25,49 25,50 24,50 23,50 22,50 21,50 20,50" fill="none" stroke="#ff8c00" stroke-width="3" stroke-linecap="round" stroke-linejoin="round" opacity="0.95">
    <title>1764 h:2</title>
  </polyline>
</svg>
