<?xml version="1.0" encoding="UTF-8"?>
<svg xmlns="http://www.w3.org/2000/svg" width="48" height="70" viewBox="0 0 48 70">
  <title>atom 1950 h:2</title>
  <metadata>{&quot;entityType&quot;:&quot;atom&quot;,&quot;entityId&quot;:&quot;1950&quot;,&quot;token&quot;:&quot;h:2&quot;,&quot;signature&quot;:&quot;h:2&quot;,&quot;imageName&quot;:&quot;page-003.jpg&quot;,&quot;imageId&quot;:3,&quot;bounds&quot;:{&quot;x&quot;:1881,&quot;y&quot;:1136,&quot;w&quot;:48,&quot;h&quot;:70},&quot;atoms&quot;:[{&quot;id&quot;:1950,&quot;token&quot;:&quot;h:2&quot;,&quot;particle_id&quot;:&quot;img3-m51-p1&quot;,&quot;molecule_id&quot;:&quot;img3-m51&quot;,&quot;atom_order&quot;:3}]}</metadata>
  <rect x="0" y="0" width="48" height="70" fill="#f8f0d8"/>
  <image href="file:///C:/Users/HHHES/AppData/Roaming/com.voynichlab.datasetcreator/images/1/35a70f63-88ab-4986-b441-b78046a10087.jpg" x="-1881" y="-1136" width="2972" height="3766" opacity="0.92"/>
  <rect x="0.5" y="0.5" width="47" height="69" fill="none" stroke="#111827" stroke-width="1" opacity="0.35"/>
  <polyline points="27,54 27,53 28,53 28,52 29,52 29,51 30,51 30,50 31,50 31,49 31,48 31,47 32,47 32,46 32,45 32,44 32,43 31,43 31,42 31,41 30,41 30,40 29,40 29,39 28,39 28,38 27,38 27,37 26,37 26,36 25,36 25,35 24,35 23,35 23,34 22,34 22,33 21,33 21,32 20,32 20,31 19,31 19,30 18,30 18,29 17,29 17,28 16,27 16,26 16,25 16,24 16,23 16,22 16,21 16,20 17,20 17,19 18,19 18,18 19,18 20,17 21,17 22,17 23,16 24,16 25,16 26,16" fill="none" stroke="#ff8c00" stroke-width="3" stroke-linecap="round" stroke-linejoin="round" opacity="0.95">
    <title>1950 h:2</title>
  </polyline>
</svg>
