<?xml version="1.0" encoding="UTF-8"?>
<svg xmlns="http://www.w3.org/2000/svg" width="45" height="68" viewBox="0 0 45 68">
  <title>atom 2096 h:2</title>
  <metadata>{&quot;entityType&quot;:&quot;atom&quot;,&quot;entityId&quot;:&quot;2096&quot;,&quot;token&quot;:&quot;h:2&quot;,&quot;signature&quot;:&quot;h:2&quot;,&quot;imageName&quot;:&quot;page-003.jpg&quot;,&quot;imageId&quot;:3,&quot;bounds&quot;:{&quot;x&quot;:2219,&quot;y&quot;:1050,&quot;w&quot;:45,&quot;h&quot;:68},&quot;atoms&quot;:[{&quot;id&quot;:2096,&quot;token&quot;:&quot;h:2&quot;,&quot;particle_id&quot;:&quot;img3-m49-p4&quot;,&quot;molecule_id&quot;:&quot;img3-m49&quot;,&quot;atom_order&quot;:3}]}</metadata>
  <rect x="0" y="0" width="45" height="68" fill="#f8f0d8"/>
  <image href="file:///C:/Users/HHHES/AppData/Roaming/com.voynichlab.datasetcreator/images/1/35a70f63-88ab-4986-b441-b78046a10087.jpg" x="-2219" y="-1050" width="2972" height="3766" opacity="0.92"/>
  <rect x="0.5" y="0.5" width="44" height="67" fill="none" stroke="#111827" stroke-width="1" opacity="0.35"/>
  <polyline points="26,52 26,51 27,51 27,50 28,50 28,49 28,48 29,48 29,47 29,46 29,45 29,44 29,43 29,42 28,42 28,41 27,41 27,40 26,40 26,39 25,38 24,38 24,37 23,37 23,36 22,36 22,35 21,35 21,34 20,34 20,33 19,33 19,32 18,32 18,31 18,30 17,30 17,29 16,29 16,28 16,27 16,26 16,25 16,24 16,23 16,22 16,21 16,20 16,19 17,19 17,18 18,18 18,17 19,17 19,16" fill="none" stroke="#ff8c00" stroke-width="3" stroke-linecap="round" stroke-linejoin="round" opacity="0.95">
    <title>2096 h:2</title>
  </polyline>
</svg>
