<?xml version="1.0" encoding="UTF-8"?>
<svg xmlns="http://www.w3.org/2000/svg" width="52" height="70" viewBox="0 0 52 70">
  <title>atom 2215 h:2</title>
  <metadata>{&quot;entityType&quot;:&quot;atom&quot;,&quot;entityId&quot;:&quot;2215&quot;,&quot;token&quot;:&quot;h:2&quot;,&quot;signature&quot;:&quot;h:2&quot;,&quot;imageName&quot;:&quot;page-003.jpg&quot;,&quot;imageId&quot;:3,&quot;bounds&quot;:{&quot;x&quot;:2167,&quot;y&quot;:1489,&quot;w&quot;:52,&quot;h&quot;:70},&quot;atoms&quot;:[{&quot;id&quot;:2215,&quot;token&quot;:&quot;h:2&quot;,&quot;particle_id&quot;:&quot;img3-m68-p3&quot;,&quot;molecule_id&quot;:&quot;img3-m68&quot;,&quot;atom_order&quot;:3}]}</metadata>
  <rect x="0" y="0" width="52" height="70" fill="#f8f0d8"/>
  <image href="file:///C:/Users/HHHES/AppData/Roaming/com.voynichlab.datasetcreator/images/1/35a70f63-88ab-4986-b441-b78046a10087.jpg" x="-2167" y="-1489" width="2972" height="3766" opacity="0.92"/>
  <rect x="0.5" y="0.5" width="51" height="69" fill="none" stroke="#111827" stroke-width="1" opacity="0.35"/>
  <polyline points="24,54 25,54 25,53 26,53 27,53 27,52 28,52 28,51 29,51 30,51 30,50 31,50 31,49 32,49 33,49 33,48 34,48 34,47 35,46 35,45 36,45 36,44 36,43 36,42 36,41 36,40 35,40 35,39 34,39 34,38 33,38 33,37 33,36 32,36 32,35 31,35 31,34 30,34 29,33 28,32 27,32 27,31 26,31 26,30 25,30 24,30 24,29 23,29 22,28 21,28 21,27 20,27 20,26 19,26 19,25 18,25 18,24 17,23 17,22 16,22 16,21 16,20 16,19 16,18 17,17 17,16 18,16" fill="none" stroke="#ff8c00" stroke-width="3" stroke-linecap="round" stroke-linejoin="round" opacity="0.95">
    <title>2215 h:2</title>
  </polyline>
</svg>
