<?xml version="1.0" encoding="UTF-8"?>
<svg xmlns="http://www.w3.org/2000/svg" width="43" height="65" viewBox="0 0 43 65">
  <title>atom 2320 h:2</title>
  <metadata>{&quot;entityType&quot;:&quot;atom&quot;,&quot;entityId&quot;:&quot;2320&quot;,&quot;token&quot;:&quot;h:2&quot;,&quot;signature&quot;:&quot;h:2&quot;,&quot;imageName&quot;:&quot;page-003.jpg&quot;,&quot;imageId&quot;:3,&quot;bounds&quot;:{&quot;x&quot;:2203,&quot;y&quot;:1573,&quot;w&quot;:43,&quot;h&quot;:65},&quot;atoms&quot;:[{&quot;id&quot;:2320,&quot;token&quot;:&quot;h:2&quot;,&quot;particle_id&quot;:&quot;img3-m74-p1&quot;,&quot;molecule_id&quot;:&quot;img3-m74&quot;,&quot;atom_order&quot;:3}]}</metadata>
  <rect x="0" y="0" width="43" height="65" fill="#f8f0d8"/>
  <image href="file:///C:/Users/HHHES/AppData/Roaming/com.voynichlab.datasetcreator/images/1/35a70f63-88ab-4986-b441-b78046a10087.jpg" x="-2203" y="-1573" width="2972" height="3766" opacity="0.92"/>
  <rect x="0.5" y="0.5" width="42" height="64" fill="none" stroke="#111827" stroke-width="1" opacity="0.35"/>
  <polyline points="16,49 17,49 18,49 19,49 20,49 21,49 22,49 23,49 23,48 24,48 25,48 25,47 26,47 26,46 27,46 27,45 27,44 27,43 27,42 27,41 27,40 27,39 27,38 27,37 26,37 26,36 26,35 25,34 25,33 24,33 24,32 23,32 23,31 22,31 22,30 21,30 21,29 20,29 20,28 19,28 18,28 18,27 17,27 17,26 17,25 17,24 17,23 17,22 17,21 18,21 18,20 18,19 19,19 19,18 20,18 20,17 21,17 22,17 22,16 23,16 24,16" fill="none" stroke="#ff8c00" stroke-width="3" stroke-linecap="round" stroke-linejoin="round" opacity="0.95">
    <title>2320 h:2</title>
  </polyline>
</svg>
