<?xml version="1.0" encoding="UTF-8"?>
<svg xmlns="http://www.w3.org/2000/svg" width="49" height="71" viewBox="0 0 49 71">
  <title>atom 2364 h:2</title>
  <metadata>{&quot;entityType&quot;:&quot;atom&quot;,&quot;entityId&quot;:&quot;2364&quot;,&quot;token&quot;:&quot;h:2&quot;,&quot;signature&quot;:&quot;h:2&quot;,&quot;imageName&quot;:&quot;page-003.jpg&quot;,&quot;imageId&quot;:3,&quot;bounds&quot;:{&quot;x&quot;:1061,&quot;y&quot;:1659,&quot;w&quot;:49,&quot;h&quot;:71},&quot;atoms&quot;:[{&quot;id&quot;:2364,&quot;token&quot;:&quot;h:2&quot;,&quot;particle_id&quot;:&quot;img3-m81-p3&quot;,&quot;molecule_id&quot;:&quot;img3-m81&quot;,&quot;atom_order&quot;:3}]}</metadata>
  <rect x="0" y="0" width="49" height="71" fill="#f8f0d8"/>
  <image href="file:///C:/Users/HHHES/AppData/Roaming/com.voynichlab.datasetcreator/images/1/35a70f63-88ab-4986-b441-b78046a10087.jpg" x="-1061" y="-1659" width="2972" height="3766" opacity="0.92"/>
  <rect x="0.5" y="0.5" width="48" height="70" fill="none" stroke="#111827" stroke-width="1" opacity="0.35"/>
  <polyline points="28,55 29,55 29,54 30,54 30,53 31,53 31,52 31,51 32,51 32,50 32,49 32,48 33,48 33,47 33,46 33,45 33,44 32,44 32,43 32,42 31,42 31,41 31,40 30,40 30,39 29,39 29,38 28,38 27,38 27,37 26,37 25,37 25,36 24,36 23,36 23,35 22,35 21,35 21,34 20,34 20,33 19,33 19,32 18,32 18,31 17,31 17,30 17,29 16,29 16,28 16,27 16,26 16,25 16,24 16,23 17,22 17,21 18,20 19,19 20,18 21,18 21,17 22,17 23,17 23,16 24,16" fill="none" stroke="#ff8c00" stroke-width="3" stroke-linecap="round" stroke-linejoin="round" opacity="0.95">
    <title>2364 h:2</title>
  </polyline>
</svg>
