<?xml version="1.0" encoding="UTF-8"?>
<svg xmlns="http://www.w3.org/2000/svg" width="48" height="72" viewBox="0 0 48 72">
  <title>atom 2409 h:2</title>
  <metadata>{&quot;entityType&quot;:&quot;atom&quot;,&quot;entityId&quot;:&quot;2409&quot;,&quot;token&quot;:&quot;h:2&quot;,&quot;signature&quot;:&quot;h:2&quot;,&quot;imageName&quot;:&quot;page-003.jpg&quot;,&quot;imageId&quot;:3,&quot;bounds&quot;:{&quot;x&quot;:1543,&quot;y&quot;:1664,&quot;w&quot;:48,&quot;h&quot;:72},&quot;atoms&quot;:[{&quot;id&quot;:2409,&quot;token&quot;:&quot;h:2&quot;,&quot;particle_id&quot;:&quot;img3-m82-p3&quot;,&quot;molecule_id&quot;:&quot;img3-m82&quot;,&quot;atom_order&quot;:3}]}</metadata>
  <rect x="0" y="0" width="48" height="72" fill="#f8f0d8"/>
  <image href="file:///C:/Users/HHHES/AppData/Roaming/com.voynichlab.datasetcreator/images/1/35a70f63-88ab-4986-b441-b78046a10087.jpg" x="-1543" y="-1664" width="2972" height="3766" opacity="0.92"/>
  <rect x="0.5" y="0.5" width="47" height="71" fill="none" stroke="#111827" stroke-width="1" opacity="0.35"/>
  <polyline points="24,56 25,56 25,55 26,55 27,55 27,54 28,54 28,53 29,53 29,52 30,52 30,51 31,50 31,49 32,49 32,48 32,47 32,46 32,45 32,44 32,43 32,42 32,41 32,40 31,40 31,39 30,39 30,38 29,38 29,37 28,37 28,36 27,36 27,35 26,35 25,34 24,33 23,33 23,32 22,32 21,31 20,31 20,30 19,30 19,29 18,28 18,27 17,27 17,26 17,25 16,25 16,24 16,23 16,22 16,21 16,20 17,19 17,18 18,18 18,17 19,17 20,16" fill="none" stroke="#ff8c00" stroke-width="3" stroke-linecap="round" stroke-linejoin="round" opacity="0.95">
    <title>2409 h:2</title>
  </polyline>
</svg>
