<?xml version="1.0" encoding="UTF-8"?>
<svg xmlns="http://www.w3.org/2000/svg" width="43" height="65" viewBox="0 0 43 65">
  <title>atom 2463 h:2</title>
  <metadata>{&quot;entityType&quot;:&quot;atom&quot;,&quot;entityId&quot;:&quot;2463&quot;,&quot;token&quot;:&quot;h:2&quot;,&quot;signature&quot;:&quot;h:2&quot;,&quot;imageName&quot;:&quot;page-003.jpg&quot;,&quot;imageId&quot;:3,&quot;bounds&quot;:{&quot;x&quot;:2345,&quot;y&quot;:1654,&quot;w&quot;:43,&quot;h&quot;:65},&quot;atoms&quot;:[{&quot;id&quot;:2463,&quot;token&quot;:&quot;h:2&quot;,&quot;particle_id&quot;:&quot;img3-m87-p6&quot;,&quot;molecule_id&quot;:&quot;img3-m87&quot;,&quot;atom_order&quot;:3}]}</metadata>
  <rect x="0" y="0" width="43" height="65" fill="#f8f0d8"/>
  <image href="file:///C:/Users/HHHES/AppData/Roaming/com.voynichlab.datasetcreator/images/1/35a70f63-88ab-4986-b441-b78046a10087.jpg" x="-2345" y="-1654" width="2972" height="3766" opacity="0.92"/>
  <rect x="0.5" y="0.5" width="42" height="64" fill="none" stroke="#111827" stroke-width="1" opacity="0.35"/>
  <polyline points="23,49 24,49 24,48 25,48 25,47 26,47 26,46 27,46 27,45 27,44 27,43 27,42 27,41 27,40 26,40 26,39 26,38 25,38 25,37 24,37 24,36 23,36 23,35 22,35 22,34 21,34 21,33 21,32 20,32 20,31 19,31 19,30 18,30 18,29 18,28 17,27 17,26 17,25 16,25 16,24 16,23 16,22 16,21 16,20 17,19 17,18 17,17 18,16" fill="none" stroke="#ff8c00" stroke-width="3" stroke-linecap="round" stroke-linejoin="round" opacity="0.95">
    <title>2463 h:2</title>
  </polyline>
</svg>
