<?xml version="1.0" encoding="UTF-8"?>
<svg xmlns="http://www.w3.org/2000/svg" width="42" height="64" viewBox="0 0 42 64">
  <title>atom 2468 h:2</title>
  <metadata>{&quot;entityType&quot;:&quot;atom&quot;,&quot;entityId&quot;:&quot;2468&quot;,&quot;token&quot;:&quot;h:2&quot;,&quot;signature&quot;:&quot;h:2&quot;,&quot;imageName&quot;:&quot;page-003.jpg&quot;,&quot;imageId&quot;:3,&quot;bounds&quot;:{&quot;x&quot;:2365,&quot;y&quot;:1746,&quot;w&quot;:42,&quot;h&quot;:64},&quot;atoms&quot;:[{&quot;id&quot;:2468,&quot;token&quot;:&quot;h:2&quot;,&quot;particle_id&quot;:&quot;img3-m89-p3&quot;,&quot;molecule_id&quot;:&quot;img3-m89&quot;,&quot;atom_order&quot;:3}]}</metadata>
  <rect x="0" y="0" width="42" height="64" fill="#f8f0d8"/>
  <image href="file:///C:/Users/HHHES/AppData/Roaming/com.voynichlab.datasetcreator/images/1/35a70f63-88ab-4986-b441-b78046a10087.jpg" x="-2365" y="-1746" width="2972" height="3766" opacity="0.92"/>
  <rect x="0.5" y="0.5" width="41" height="63" fill="none" stroke="#111827" stroke-width="1" opacity="0.35"/>
  <polyline points="21,48 21,47 22,47 23,47 23,46 24,46 24,45 25,45 25,44 26,43 26,42 26,41 26,40 26,39 26,38 26,37 26,36 26,35 25,35 25,34 25,32 25,31 24,31 24,30 24,29 23,29 23,28 22,28 22,27 21,27 21,26 20,26 19,26 19,25 18,25 18,24 17,24 17,23 16,23 16,22 16,21 16,20 16,19 17,18 17,17 18,17 18,16 19,16" fill="none" stroke="#ff8c00" stroke-width="3" stroke-linecap="round" stroke-linejoin="round" opacity="0.95">
    <title>2468 h:2</title>
  </polyline>
</svg>
