<?xml version="1.0" encoding="UTF-8"?>
<svg xmlns="http://www.w3.org/2000/svg" width="44" height="66" viewBox="0 0 44 66">
  <title>atom 2541 h:2</title>
  <metadata>{&quot;entityType&quot;:&quot;atom&quot;,&quot;entityId&quot;:&quot;2541&quot;,&quot;token&quot;:&quot;h:2&quot;,&quot;signature&quot;:&quot;h:2&quot;,&quot;imageName&quot;:&quot;page-003.jpg&quot;,&quot;imageId&quot;:3,&quot;bounds&quot;:{&quot;x&quot;:1623,&quot;y&quot;:1747,&quot;w&quot;:44,&quot;h&quot;:66},&quot;atoms&quot;:[{&quot;id&quot;:2541,&quot;token&quot;:&quot;h:2&quot;,&quot;particle_id&quot;:&quot;img3-m97-p1&quot;,&quot;molecule_id&quot;:&quot;img3-m97&quot;,&quot;atom_order&quot;:3}]}</metadata>
  <rect x="0" y="0" width="44" height="66" fill="#f8f0d8"/>
  <image href="file:///C:/Users/HHHES/AppData/Roaming/com.voynichlab.datasetcreator/images/1/35a70f63-88ab-4986-b441-b78046a10087.jpg" x="-1623" y="-1747" width="2972" height="3766" opacity="0.92"/>
  <rect x="0.5" y="0.5" width="43" height="65" fill="none" stroke="#111827" stroke-width="1" opacity="0.35"/>
  <polyline points="20,50 21,50 22,50 23,50 23,49 24,49 24,48 25,48 25,47 26,47 26,46 27,46 27,45 27,44 28,44 28,43 28,42 28,41 28,40 28,39 28,38 28,37 27,37 27,36 26,36 26,35 25,35 25,34 24,34 24,33 23,33 23,32 22,32 22,31 21,31 21,30 20,30 20,29 19,29 19,28 18,28 18,27 17,27 17,26 16,26 16,25 16,24 16,23 16,22 16,21 16,20 16,19 17,19 18,18 19,18 19,17 20,17 21,17 21,16 22,16" fill="none" stroke="#ff8c00" stroke-width="3" stroke-linecap="round" stroke-linejoin="round" opacity="0.95">
    <title>2541 h:2</title>
  </polyline>
</svg>
