<?xml version="1.0" encoding="UTF-8"?>
<svg xmlns="http://www.w3.org/2000/svg" width="50" height="68" viewBox="0 0 50 68">
  <title>atom 2554 h:2</title>
  <metadata>{&quot;entityType&quot;:&quot;atom&quot;,&quot;entityId&quot;:&quot;2554&quot;,&quot;token&quot;:&quot;h:2&quot;,&quot;signature&quot;:&quot;h:2&quot;,&quot;imageName&quot;:&quot;page-003.jpg&quot;,&quot;imageId&quot;:3,&quot;bounds&quot;:{&quot;x&quot;:1378,&quot;y&quot;:1743,&quot;w&quot;:50,&quot;h&quot;:68},&quot;atoms&quot;:[{&quot;id&quot;:2554,&quot;token&quot;:&quot;h:2&quot;,&quot;particle_id&quot;:&quot;img3-m96-p3&quot;,&quot;molecule_id&quot;:&quot;img3-m96&quot;,&quot;atom_order&quot;:3}]}</metadata>
  <rect x="0" y="0" width="50" height="68" fill="#f8f0d8"/>
  <image href="file:///C:/Users/HHHES/AppData/Roaming/com.voynichlab.datasetcreator/images/1/35a70f63-88ab-4986-b441-b78046a10087.jpg" x="-1378" y="-1743" width="2972" height="3766" opacity="0.92"/>
  <rect x="0.5" y="0.5" width="49" height="67" fill="none" stroke="#111827" stroke-width="1" opacity="0.35"/>
  <polyline points="24,52 25,52 25,51 26,51 27,51 27,50 28,50 29,50 29,49 30,49 30,48 31,48 31,47 32,47 32,46 33,45 33,44 33,43 34,43 34,42 34,41 34,40 34,39 33,39 33,38 32,38 32,37 31,37 31,36 30,36 29,36 29,35 28,35 27,35 27,34 26,34 25,34 24,34 24,33 23,33 22,33 22,32 21,32 21,31 20,31 20,30 19,30 19,29 18,28 18,27 17,27 17,26 17,25 17,24 16,24 16,23 16,22 16,21 16,20 16,19 17,19 17,18 18,18 18,17 19,17 20,17 20,16 21,16 22,16" fill="none" stroke="#ff8c00" stroke-width="3" stroke-linecap="round" stroke-linejoin="round" opacity="0.95">
    <title>2554 h:2</title>
  </polyline>
</svg>
