<?xml version="1.0" encoding="UTF-8"?>
<svg xmlns="http://www.w3.org/2000/svg" width="47" height="70" viewBox="0 0 47 70">
  <title>atom 2579 h:2</title>
  <metadata>{&quot;entityType&quot;:&quot;atom&quot;,&quot;entityId&quot;:&quot;2579&quot;,&quot;token&quot;:&quot;h:2&quot;,&quot;signature&quot;:&quot;h:2&quot;,&quot;imageName&quot;:&quot;page-003.jpg&quot;,&quot;imageId&quot;:3,&quot;bounds&quot;:{&quot;x&quot;:1081,&quot;y&quot;:1741,&quot;w&quot;:47,&quot;h&quot;:70},&quot;atoms&quot;:[{&quot;id&quot;:2579,&quot;token&quot;:&quot;h:2&quot;,&quot;particle_id&quot;:&quot;img3-m95-p2&quot;,&quot;molecule_id&quot;:&quot;img3-m95&quot;,&quot;atom_order&quot;:3}]}</metadata>
  <rect x="0" y="0" width="47" height="70" fill="#f8f0d8"/>
  <image href="file:///C:/Users/HHHES/AppData/Roaming/com.voynichlab.datasetcreator/images/1/35a70f63-88ab-4986-b441-b78046a10087.jpg" x="-1081" y="-1741" width="2972" height="3766" opacity="0.92"/>
  <rect x="0.5" y="0.5" width="46" height="69" fill="none" stroke="#111827" stroke-width="1" opacity="0.35"/>
  <polyline points="25,54 26,54 26,53 27,53 27,52 28,52 28,51 29,51 29,50 30,50 30,49 30,48 30,47 31,47 31,46 31,45 31,44 31,43 30,43 30,42 30,41 29,41 29,40 29,39 28,39 27,38 26,38 26,37 25,37 24,36 23,36 23,35 22,35 22,34 21,34 20,34 20,33 19,33 19,32 18,31 18,30 17,30 17,29 17,28 17,27 17,26 16,26 16,25 16,24 17,24 17,23 17,22 18,22 18,21 19,21 19,20 20,19 21,19 21,18 22,18 23,18 23,17 24,17 25,17 26,17 26,16" fill="none" stroke="#ff8c00" stroke-width="3" stroke-linecap="round" stroke-linejoin="round" opacity="0.95">
    <title>2579 h:2</title>
  </polyline>
</svg>
