<?xml version="1.0" encoding="UTF-8"?>
<svg xmlns="http://www.w3.org/2000/svg" width="44" height="74" viewBox="0 0 44 74">
  <title>atom 3284 h:2</title>
  <metadata>{&quot;entityType&quot;:&quot;atom&quot;,&quot;entityId&quot;:&quot;3284&quot;,&quot;token&quot;:&quot;h:2&quot;,&quot;signature&quot;:&quot;h:2&quot;,&quot;imageName&quot;:&quot;page-003.jpg&quot;,&quot;imageId&quot;:3,&quot;bounds&quot;:{&quot;x&quot;:966,&quot;y&quot;:1888,&quot;w&quot;:44,&quot;h&quot;:74},&quot;atoms&quot;:[{&quot;id&quot;:3284,&quot;token&quot;:&quot;h:2&quot;,&quot;particle_id&quot;:&quot;img3-m114-p3&quot;,&quot;molecule_id&quot;:&quot;img3-m114&quot;,&quot;atom_order&quot;:3}]}</metadata>
  <rect x="0" y="0" width="44" height="74" fill="#f8f0d8"/>
  <image href="file:///C:/Users/HHHES/AppData/Roaming/com.voynichlab.datasetcreator/images/1/35a70f63-88ab-4986-b441-b78046a10087.jpg" x="-966" y="-1888" width="2972" height="3766" opacity="0.92"/>
  <rect x="0.5" y="0.5" width="43" height="73" fill="none" stroke="#111827" stroke-width="1" opacity="0.35"/>
  <polyline points="25,58 26,57 26,56 27,56 27,55 28,55 28,54 28,53 28,52 28,51 28,50 28,49 28,48 28,47 28,46 28,45 28,44 28,43 28,42 27,42 27,41 27,40 26,40 26,39 25,39 25,38 24,37 23,36 22,36 22,35 21,35 21,34 20,34 20,33 19,33 19,32 18,32 18,31 18,30 17,30 17,29 17,28 17,27 16,27 16,26 16,25 16,24 17,23 17,22 18,22 18,21 18,20 19,20 19,19 20,19 20,18 21,18 21,17 22,17 22,16 23,16 24,16" fill="none" stroke="#ff8c00" stroke-width="3" stroke-linecap="round" stroke-linejoin="round" opacity="0.95">
    <title>3284 h:2</title>
  </polyline>
</svg>
