<?xml version="1.0" encoding="UTF-8"?>
<svg xmlns="http://www.w3.org/2000/svg" width="45" height="68" viewBox="0 0 45 68">
  <title>atom 3385 h:2</title>
  <metadata>{&quot;entityType&quot;:&quot;atom&quot;,&quot;entityId&quot;:&quot;3385&quot;,&quot;token&quot;:&quot;h:2&quot;,&quot;signature&quot;:&quot;h:2&quot;,&quot;imageName&quot;:&quot;page-003.jpg&quot;,&quot;imageId&quot;:3,&quot;bounds&quot;:{&quot;x&quot;:1740,&quot;y&quot;:1986,&quot;w&quot;:45,&quot;h&quot;:68},&quot;atoms&quot;:[{&quot;id&quot;:3385,&quot;token&quot;:&quot;h:2&quot;,&quot;particle_id&quot;:&quot;img3-m122-p3&quot;,&quot;molecule_id&quot;:&quot;img3-m122&quot;,&quot;atom_order&quot;:3}]}</metadata>
  <rect x="0" y="0" width="45" height="68" fill="#f8f0d8"/>
  <image href="file:///C:/Users/HHHES/AppData/Roaming/com.voynichlab.datasetcreator/images/1/35a70f63-88ab-4986-b441-b78046a10087.jpg" x="-1740" y="-1986" width="2972" height="3766" opacity="0.92"/>
  <rect x="0.5" y="0.5" width="44" height="67" fill="none" stroke="#111827" stroke-width="1" opacity="0.35"/>
  <polyline points="23,52 24,52 25,51 26,51 26,50 27,50 27,49 28,49 28,48 29,48 29,47 29,46 29,45 29,44 29,43 29,42 28,41 28,40 28,39 27,39 27,38 27,37 26,36 25,35 25,34 24,34 23,33 22,33 22,32 21,31 20,30 20,29 19,28 19,27 18,27 18,26 17,25 17,24 17,23 16,23 16,22 16,21 16,20 16,19 16,18 17,17 18,16 19,16 20,16 21,16" fill="none" stroke="#ff8c00" stroke-width="3" stroke-linecap="round" stroke-linejoin="round" opacity="0.95">
    <title>3385 h:2</title>
  </polyline>
</svg>
