<?xml version="1.0" encoding="UTF-8"?>
<svg xmlns="http://www.w3.org/2000/svg" width="42" height="75" viewBox="0 0 42 75">
  <title>atom 3471 h:2</title>
  <metadata>{&quot;entityType&quot;:&quot;atom&quot;,&quot;entityId&quot;:&quot;3471&quot;,&quot;token&quot;:&quot;h:2&quot;,&quot;signature&quot;:&quot;h:2&quot;,&quot;imageName&quot;:&quot;page-003.jpg&quot;,&quot;imageId&quot;:3,&quot;bounds&quot;:{&quot;x&quot;:1136,&quot;y&quot;:2065,&quot;w&quot;:42,&quot;h&quot;:75},&quot;atoms&quot;:[{&quot;id&quot;:3471,&quot;token&quot;:&quot;h:2&quot;,&quot;particle_id&quot;:&quot;img3-m127-p3&quot;,&quot;molecule_id&quot;:&quot;img3-m127&quot;,&quot;atom_order&quot;:3}]}</metadata>
  <rect x="0" y="0" width="42" height="75" fill="#f8f0d8"/>
  <image href="file:///C:/Users/HHHES/AppData/Roaming/com.voynichlab.datasetcreator/images/1/35a70f63-88ab-4986-b441-b78046a10087.jpg" x="-1136" y="-2065" width="2972" height="3766" opacity="0.92"/>
  <rect x="0.5" y="0.5" width="41" height="74" fill="none" stroke="#111827" stroke-width="1" opacity="0.35"/>
  <polyline points="16,59 17,59 17,58 18,58 19,58 19,57 20,57 20,56 21,56 22,55 22,54 23,54 24,53 24,52 25,51 25,50 25,49 26,49 26,48 26,47 26,46 26,45 26,44 25,44 25,43 25,42 25,41 24,41 24,40 24,39 23,38 23,37 23,36 22,36 22,35 22,34 21,34 21,33 21,32 21,31 20,30 20,29 20,28 20,27 20,26 20,25 20,24 21,24 21,23 21,22 21,21 21,20 22,19 22,18 23,18 23,17 23,16 24,16" fill="none" stroke="#ff8c00" stroke-width="3" stroke-linecap="round" stroke-linejoin="round" opacity="0.95">
    <title>3471 h:2</title>
  </polyline>
</svg>
