<?xml version="1.0" encoding="UTF-8"?>
<svg xmlns="http://www.w3.org/2000/svg" width="42" height="70" viewBox="0 0 42 70">
  <title>atom 3561 h:2</title>
  <metadata>{&quot;entityType&quot;:&quot;atom&quot;,&quot;entityId&quot;:&quot;3561&quot;,&quot;token&quot;:&quot;h:2&quot;,&quot;signature&quot;:&quot;h:2&quot;,&quot;imageName&quot;:&quot;page-003.jpg&quot;,&quot;imageId&quot;:3,&quot;bounds&quot;:{&quot;x&quot;:561,&quot;y&quot;:2142,&quot;w&quot;:42,&quot;h&quot;:70},&quot;atoms&quot;:[{&quot;id&quot;:3561,&quot;token&quot;:&quot;h:2&quot;,&quot;particle_id&quot;:&quot;img3-m135-p1&quot;,&quot;molecule_id&quot;:&quot;img3-m135&quot;,&quot;atom_order&quot;:3}]}</metadata>
  <rect x="0" y="0" width="42" height="70" fill="#f8f0d8"/>
  <image href="file:///C:/Users/HHHES/AppData/Roaming/com.voynichlab.datasetcreator/images/1/35a70f63-88ab-4986-b441-b78046a10087.jpg" x="-561" y="-2142" width="2972" height="3766" opacity="0.92"/>
  <rect x="0.5" y="0.5" width="41" height="69" fill="none" stroke="#111827" stroke-width="1" opacity="0.35"/>
  <polyline points="20,54 21,54 22,54 22,53 23,53 24,52 24,51 25,51 25,50 26,49 26,48 26,47 26,46 26,45 26,44 26,43 26,42 26,41 25,41 25,40 24,40 24,39 23,38 22,37 22,36 21,36 20,35 19,34 18,33 17,32 17,31 17,30 16,30 16,29 16,28 16,27 16,26 16,25 16,24 16,23 16,22 16,21 17,21 17,20 17,19 18,19 18,18 19,18 19,17 20,17 21,17 21,16 22,16 23,16" fill="none" stroke="#ff8c00" stroke-width="3" stroke-linecap="round" stroke-linejoin="round" opacity="0.95">
    <title>3561 h:2</title>
  </polyline>
</svg>
