<?xml version="1.0" encoding="UTF-8"?>
<svg xmlns="http://www.w3.org/2000/svg" width="41" height="65" viewBox="0 0 41 65">
  <title>atom 3563 h:2</title>
  <metadata>{&quot;entityType&quot;:&quot;atom&quot;,&quot;entityId&quot;:&quot;3563&quot;,&quot;token&quot;:&quot;h:2&quot;,&quot;signature&quot;:&quot;h:2&quot;,&quot;imageName&quot;:&quot;page-003.jpg&quot;,&quot;imageId&quot;:3,&quot;bounds&quot;:{&quot;x&quot;:2135,&quot;y&quot;:2272,&quot;w&quot;:41,&quot;h&quot;:65},&quot;atoms&quot;:[{&quot;id&quot;:3563,&quot;token&quot;:&quot;h:2&quot;,&quot;particle_id&quot;:&quot;img3-m145-p1&quot;,&quot;molecule_id&quot;:&quot;img3-m145&quot;,&quot;atom_order&quot;:3}]}</metadata>
  <rect x="0" y="0" width="41" height="65" fill="#f8f0d8"/>
  <image href="file:///C:/Users/HHHES/AppData/Roaming/com.voynichlab.datasetcreator/images/1/35a70f63-88ab-4986-b441-b78046a10087.jpg" x="-2135" y="-2272" width="2972" height="3766" opacity="0.92"/>
  <rect x="0.5" y="0.5" width="40" height="64" fill="none" stroke="#111827" stroke-width="1" opacity="0.35"/>
  <polyline points="20,49 21,49 22,49 22,48 23,48 24,48 24,47 25,47 25,46 25,45 25,44 25,43 25,42 25,41 24,41 24,40 24,39 24,38 23,38 23,37 23,36 22,36 22,35 22,34 21,33 21,32 20,32 20,31 19,31 19,30 18,30 17,30 17,29 17,28 17,27 16,26 16,25 16,24 16,23 16,22 16,21 16,20 17,19 17,18 17,17 17,16" fill="none" stroke="#ff8c00" stroke-width="3" stroke-linecap="round" stroke-linejoin="round" opacity="0.95">
    <title>3563 h:2</title>
  </polyline>
</svg>
