<?xml version="1.0" encoding="UTF-8"?>
<svg xmlns="http://www.w3.org/2000/svg" width="41" height="68" viewBox="0 0 41 68">
  <title>atom 3794 h:2</title>
  <metadata>{&quot;entityType&quot;:&quot;atom&quot;,&quot;entityId&quot;:&quot;3794&quot;,&quot;token&quot;:&quot;h:2&quot;,&quot;signature&quot;:&quot;h:2&quot;,&quot;imageName&quot;:&quot;page-003.jpg&quot;,&quot;imageId&quot;:3,&quot;bounds&quot;:{&quot;x&quot;:1887,&quot;y&quot;:2521,&quot;w&quot;:41,&quot;h&quot;:68},&quot;atoms&quot;:[{&quot;id&quot;:3794,&quot;token&quot;:&quot;h:2&quot;,&quot;particle_id&quot;:&quot;img3-m149-p2&quot;,&quot;molecule_id&quot;:&quot;img3-m149&quot;,&quot;atom_order&quot;:3}]}</metadata>
  <rect x="0" y="0" width="41" height="68" fill="#f8f0d8"/>
  <image href="file:///C:/Users/HHHES/AppData/Roaming/com.voynichlab.datasetcreator/images/1/35a70f63-88ab-4986-b441-b78046a10087.jpg" x="-1887" y="-2521" width="2972" height="3766" opacity="0.92"/>
  <rect x="0.5" y="0.5" width="40" height="67" fill="none" stroke="#111827" stroke-width="1" opacity="0.35"/>
  <polyline points="20,52 21,52 22,52 22,51 23,51 23,50 24,49 24,48 24,47 25,46 25,45 25,44 24,43 24,42 24,41 24,40 23,39 23,38 22,38 22,37 21,37 20,36 19,35 19,34 18,34 18,33 18,32 17,31 17,30 17,29 16,29 16,28 16,27 16,26 16,25 16,24 16,23 16,22 17,22 17,21 18,20 18,19 19,19 20,18 21,18 21,17 22,17 22,16 23,16" fill="none" stroke="#ff8c00" stroke-width="3" stroke-linecap="round" stroke-linejoin="round" opacity="0.95">
    <title>3794 h:2</title>
  </polyline>
</svg>
