<?xml version="1.0" encoding="UTF-8"?>
<svg xmlns="http://www.w3.org/2000/svg" width="46" height="68" viewBox="0 0 46 68">
  <title>atom 3841 h:2</title>
  <metadata>{&quot;entityType&quot;:&quot;atom&quot;,&quot;entityId&quot;:&quot;3841&quot;,&quot;token&quot;:&quot;h:2&quot;,&quot;signature&quot;:&quot;h:2&quot;,&quot;imageName&quot;:&quot;page-003.jpg&quot;,&quot;imageId&quot;:3,&quot;bounds&quot;:{&quot;x&quot;:576,&quot;y&quot;:2572,&quot;w&quot;:46,&quot;h&quot;:68},&quot;atoms&quot;:[{&quot;id&quot;:3841,&quot;token&quot;:&quot;h:2&quot;,&quot;particle_id&quot;:&quot;img3-m157-p2&quot;,&quot;molecule_id&quot;:&quot;img3-m157&quot;,&quot;atom_order&quot;:3}]}</metadata>
  <rect x="0" y="0" width="46" height="68" fill="#f8f0d8"/>
  <image href="file:///C:/Users/HHHES/AppData/Roaming/com.voynichlab.datasetcreator/images/1/35a70f63-88ab-4986-b441-b78046a10087.jpg" x="-576" y="-2572" width="2972" height="3766" opacity="0.92"/>
  <rect x="0.5" y="0.5" width="45" height="67" fill="none" stroke="#111827" stroke-width="1" opacity="0.35"/>
  <polyline points="25,52 26,51 27,51 27,50 28,50 28,49 28,48 29,48 29,47 29,46 29,45 30,45 30,44 30,43 30,42 30,41 29,40 29,39 29,38 28,38 28,37 27,37 27,36 26,36 26,35 25,35 25,34 24,34 24,33 23,33 23,32 22,32 22,31 21,31 21,30 20,30 20,29 19,29 19,28 18,28 18,27 17,27 17,26 16,25 16,24 16,23 16,22 16,21 16,20 16,19 17,19 17,18 18,18 19,18 19,17 20,17 21,17 22,17 22,16 23,16 24,16 25,16 26,16 26,17" fill="none" stroke="#ff8c00" stroke-width="3" stroke-linecap="round" stroke-linejoin="round" opacity="0.95">
    <title>3841 h:2</title>
  </polyline>
</svg>
