<?xml version="1.0" encoding="UTF-8"?>
<svg xmlns="http://www.w3.org/2000/svg" width="45" height="70" viewBox="0 0 45 70">
  <title>atom 3842 h:2</title>
  <metadata>{&quot;entityType&quot;:&quot;atom&quot;,&quot;entityId&quot;:&quot;3842&quot;,&quot;token&quot;:&quot;h:2&quot;,&quot;signature&quot;:&quot;h:2&quot;,&quot;imageName&quot;:&quot;page-003.jpg&quot;,&quot;imageId&quot;:3,&quot;bounds&quot;:{&quot;x&quot;:890,&quot;y&quot;:2586,&quot;w&quot;:45,&quot;h&quot;:70},&quot;atoms&quot;:[{&quot;id&quot;:3842,&quot;token&quot;:&quot;h:2&quot;,&quot;particle_id&quot;:&quot;img3-m159-p1&quot;,&quot;molecule_id&quot;:&quot;img3-m159&quot;,&quot;atom_order&quot;:3}]}</metadata>
  <rect x="0" y="0" width="45" height="70" fill="#f8f0d8"/>
  <image href="file:///C:/Users/HHHES/AppData/Roaming/com.voynichlab.datasetcreator/images/1/35a70f63-88ab-4986-b441-b78046a10087.jpg" x="-890" y="-2586" width="2972" height="3766" opacity="0.92"/>
  <rect x="0.5" y="0.5" width="44" height="69" fill="none" stroke="#111827" stroke-width="1" opacity="0.35"/>
  <polyline points="23,54 24,54 24,53 25,53 25,52 26,52 26,51 27,51 27,50 28,50 28,49 28,48 29,48 29,47 29,46 29,45 29,44 28,44 28,43 28,42 28,41 27,41 27,40 27,39 26,39 26,38 25,38 25,37 24,37 24,36 23,36 23,35 22,35 21,34 21,33 20,33 20,32 19,32 19,31 18,31 18,30 17,30 17,29 16,29 16,28 16,27 16,26 16,25 16,24 16,23 16,22 17,22 17,21 18,20 19,19 20,19 20,18 21,18 22,17 23,17 24,16 25,16 26,16" fill="none" stroke="#ff8c00" stroke-width="3" stroke-linecap="round" stroke-linejoin="round" opacity="0.95">
    <title>3842 h:2</title>
  </polyline>
</svg>
