<?xml version="1.0" encoding="UTF-8"?>
<svg xmlns="http://www.w3.org/2000/svg" width="44" height="70" viewBox="0 0 44 70">
  <title>atom 3991 h:2</title>
  <metadata>{&quot;entityType&quot;:&quot;atom&quot;,&quot;entityId&quot;:&quot;3991&quot;,&quot;token&quot;:&quot;h:2&quot;,&quot;signature&quot;:&quot;h:2&quot;,&quot;imageName&quot;:&quot;page-003.jpg&quot;,&quot;imageId&quot;:3,&quot;bounds&quot;:{&quot;x&quot;:1330,&quot;y&quot;:2678,&quot;w&quot;:44,&quot;h&quot;:70},&quot;atoms&quot;:[{&quot;id&quot;:3991,&quot;token&quot;:&quot;h:2&quot;,&quot;particle_id&quot;:&quot;img3-m169-p1&quot;,&quot;molecule_id&quot;:&quot;img3-m169&quot;,&quot;atom_order&quot;:3}]}</metadata>
  <rect x="0" y="0" width="44" height="70" fill="#f8f0d8"/>
  <image href="file:///C:/Users/HHHES/AppData/Roaming/com.voynichlab.datasetcreator/images/1/35a70f63-88ab-4986-b441-b78046a10087.jpg" x="-1330" y="-2678" width="2972" height="3766" opacity="0.92"/>
  <rect x="0.5" y="0.5" width="43" height="69" fill="none" stroke="#111827" stroke-width="1" opacity="0.35"/>
  <polyline points="21,54 22,54 22,53 23,53 24,53 24,52 25,52 25,51 26,51 26,50 27,50 27,49 27,48 27,47 27,46 27,45 27,44 28,44 28,43 28,42 28,41 28,40 28,39 27,39 27,38 27,37 26,36 25,35 24,34 23,33 22,32 21,31 20,30 19,29 19,28 18,28 17,27 16,26 16,25 16,24 16,23 16,22 16,21 17,20 18,20 18,19 19,19 20,18 21,18 22,18 22,17 23,17 24,17 25,17 25,16 26,16" fill="none" stroke="#ff8c00" stroke-width="3" stroke-linecap="round" stroke-linejoin="round" opacity="0.95">
    <title>3991 h:2</title>
  </polyline>
</svg>
