<?xml version="1.0" encoding="UTF-8"?>
<svg xmlns="http://www.w3.org/2000/svg" width="49" height="72" viewBox="0 0 49 72">
  <title>atom 3992 h:2</title>
  <metadata>{&quot;entityType&quot;:&quot;atom&quot;,&quot;entityId&quot;:&quot;3992&quot;,&quot;token&quot;:&quot;h:2&quot;,&quot;signature&quot;:&quot;h:2&quot;,&quot;imageName&quot;:&quot;page-003.jpg&quot;,&quot;imageId&quot;:3,&quot;bounds&quot;:{&quot;x&quot;:1869,&quot;y&quot;:2704,&quot;w&quot;:49,&quot;h&quot;:72},&quot;atoms&quot;:[{&quot;id&quot;:3992,&quot;token&quot;:&quot;h:2&quot;,&quot;particle_id&quot;:&quot;img3-m174-p1&quot;,&quot;molecule_id&quot;:&quot;img3-m174&quot;,&quot;atom_order&quot;:3}]}</metadata>
  <rect x="0" y="0" width="49" height="72" fill="#f8f0d8"/>
  <image href="file:///C:/Users/HHHES/AppData/Roaming/com.voynichlab.datasetcreator/images/1/35a70f63-88ab-4986-b441-b78046a10087.jpg" x="-1869" y="-2704" width="2972" height="3766" opacity="0.92"/>
  <rect x="0.5" y="0.5" width="48" height="71" fill="none" stroke="#111827" stroke-width="1" opacity="0.35"/>
  <polyline points="28,56 29,56 29,55 30,55 30,54 31,54 32,53 32,52 32,51 33,50 33,49 32,49 32,48 32,47 32,46 32,45 31,45 31,44 31,43 30,43 30,42 29,41 29,40 28,40 28,39 27,39 27,38 26,38 26,37 25,37 24,36 23,36 22,35 22,34 21,34 20,33 19,32 18,31 18,30 17,30 17,29 16,29 16,28 16,27 16,26 16,25 16,24 16,23 16,22 17,22 18,21 19,20 20,20 20,19 22,19 23,18 25,18 26,17 27,17 28,17 29,17 30,16 31,16" fill="none" stroke="#ff8c00" stroke-width="3" stroke-linecap="round" stroke-linejoin="round" opacity="0.95">
    <title>3992 h:2</title>
  </polyline>
</svg>
