<?xml version="1.0" encoding="UTF-8"?>
<svg xmlns="http://www.w3.org/2000/svg" width="44" height="71" viewBox="0 0 44 71">
  <title>atom 3993 h:2</title>
  <metadata>{&quot;entityType&quot;:&quot;atom&quot;,&quot;entityId&quot;:&quot;3993&quot;,&quot;token&quot;:&quot;h:2&quot;,&quot;signature&quot;:&quot;h:2&quot;,&quot;imageName&quot;:&quot;page-003.jpg&quot;,&quot;imageId&quot;:3,&quot;bounds&quot;:{&quot;x&quot;:2199,&quot;y&quot;:2720,&quot;w&quot;:44,&quot;h&quot;:71},&quot;atoms&quot;:[{&quot;id&quot;:3993,&quot;token&quot;:&quot;h:2&quot;,&quot;particle_id&quot;:&quot;img3-m169-p4&quot;,&quot;molecule_id&quot;:&quot;img3-m169&quot;,&quot;atom_order&quot;:3}]}</metadata>
  <rect x="0" y="0" width="44" height="71" fill="#f8f0d8"/>
  <image href="file:///C:/Users/HHHES/AppData/Roaming/com.voynichlab.datasetcreator/images/1/35a70f63-88ab-4986-b441-b78046a10087.jpg" x="-2199" y="-2720" width="2972" height="3766" opacity="0.92"/>
  <rect x="0.5" y="0.5" width="43" height="70" fill="none" stroke="#111827" stroke-width="1" opacity="0.35"/>
  <polyline points="21,55 22,55 22,54 23,54 23,53 24,53 25,53 25,52 26,52 26,51 26,50 27,50 27,49 27,48 28,47 28,46 28,45 28,44 28,43 28,42 27,41 27,40 26,40 26,39 25,38 24,37 24,36 23,36 23,35 22,34 21,33 21,32 20,32 19,31 19,30 18,30 18,29 17,28 17,27 16,27 16,26 16,25 16,24 16,23 16,22 17,21 17,20 18,20 18,19 19,19 19,18 20,18 21,17 22,17 22,16 23,16 24,16" fill="none" stroke="#ff8c00" stroke-width="3" stroke-linecap="round" stroke-linejoin="round" opacity="0.95">
    <title>3993 h:2</title>
  </polyline>
</svg>
