<?xml version="1.0" encoding="UTF-8"?>
<svg xmlns="http://www.w3.org/2000/svg" width="45" height="74" viewBox="0 0 45 74">
  <title>atom 4069 h:2</title>
  <metadata>{&quot;entityType&quot;:&quot;atom&quot;,&quot;entityId&quot;:&quot;4069&quot;,&quot;token&quot;:&quot;h:2&quot;,&quot;signature&quot;:&quot;h:2&quot;,&quot;imageName&quot;:&quot;page-003.jpg&quot;,&quot;imageId&quot;:3,&quot;bounds&quot;:{&quot;x&quot;:1053,&quot;y&quot;:2749,&quot;w&quot;:45,&quot;h&quot;:74},&quot;atoms&quot;:[{&quot;id&quot;:4069,&quot;token&quot;:&quot;h:2&quot;,&quot;particle_id&quot;:&quot;img3-m175-p1&quot;,&quot;molecule_id&quot;:&quot;img3-m175&quot;,&quot;atom_order&quot;:3}]}</metadata>
  <rect x="0" y="0" width="45" height="74" fill="#f8f0d8"/>
  <image href="file:///C:/Users/HHHES/AppData/Roaming/com.voynichlab.datasetcreator/images/1/35a70f63-88ab-4986-b441-b78046a10087.jpg" x="-1053" y="-2749" width="2972" height="3766" opacity="0.92"/>
  <rect x="0.5" y="0.5" width="44" height="73" fill="none" stroke="#111827" stroke-width="1" opacity="0.35"/>
  <polyline points="18,58 19,58 20,58 21,58 22,57 23,57 24,57 25,56 26,56 26,55 27,55 27,54 28,54 28,53 28,52 29,52 29,51 29,50 29,49 29,48 29,47 29,46 28,46 28,45 28,44 27,43 27,42 27,41 26,41 26,40 25,39 24,38 23,38 23,37 22,37 21,36 20,35 19,34 18,33 17,32 17,31 16,30 16,29 16,28 16,27 16,26 16,25 16,24 16,23 16,22 16,21 17,21 17,20 18,20 18,19 19,19 20,18 21,18 21,17 22,17 23,17 23,16" fill="none" stroke="#ff8c00" stroke-width="3" stroke-linecap="round" stroke-linejoin="round" opacity="0.95">
    <title>4069 h:2</title>
  </polyline>
</svg>
