<?xml version="1.0" encoding="UTF-8"?>
<svg xmlns="http://www.w3.org/2000/svg" width="42" height="72" viewBox="0 0 42 72">
  <title>atom 4071 h:2</title>
  <metadata>{&quot;entityType&quot;:&quot;atom&quot;,&quot;entityId&quot;:&quot;4071&quot;,&quot;token&quot;:&quot;h:2&quot;,&quot;signature&quot;:&quot;h:2&quot;,&quot;imageName&quot;:&quot;page-003.jpg&quot;,&quot;imageId&quot;:3,&quot;bounds&quot;:{&quot;x&quot;:2200,&quot;y&quot;:2806,&quot;w&quot;:42,&quot;h&quot;:72},&quot;atoms&quot;:[{&quot;id&quot;:4071,&quot;token&quot;:&quot;h:2&quot;,&quot;particle_id&quot;:&quot;img3-m177-p6&quot;,&quot;molecule_id&quot;:&quot;img3-m177&quot;,&quot;atom_order&quot;:3}]}</metadata>
  <rect x="0" y="0" width="42" height="72" fill="#f8f0d8"/>
  <image href="file:///C:/Users/HHHES/AppData/Roaming/com.voynichlab.datasetcreator/images/1/35a70f63-88ab-4986-b441-b78046a10087.jpg" x="-2200" y="-2806" width="2972" height="3766" opacity="0.92"/>
  <rect x="0.5" y="0.5" width="41" height="71" fill="none" stroke="#111827" stroke-width="1" opacity="0.35"/>
  <polyline points="16,56 16,55 17,55 18,55 19,55 19,54 20,54 21,54 21,53 22,53 23,52 24,52 24,51 25,51 25,50 26,50 26,49 26,48 26,47 26,46 26,45 26,44 25,43 25,42 24,42 24,41 23,40 23,39 22,39 21,38 20,37 19,36 18,35 18,34 17,33 17,32 16,31 16,30 16,29 16,28 16,27 16,26 16,25 16,24 16,23 17,23 17,22 17,21 18,21 18,20 19,19 20,19 20,18 21,18 21,17 22,17 23,17 24,16 25,16 26,16" fill="none" stroke="#ff8c00" stroke-width="3" stroke-linecap="round" stroke-linejoin="round" opacity="0.95">
    <title>4071 h:2</title>
  </polyline>
</svg>
