<?xml version="1.0" encoding="UTF-8"?>
<svg xmlns="http://www.w3.org/2000/svg" width="42" height="87" viewBox="0 0 42 87">
  <title>atom 4107 h:2</title>
  <metadata>{&quot;entityType&quot;:&quot;atom&quot;,&quot;entityId&quot;:&quot;4107&quot;,&quot;token&quot;:&quot;h:2&quot;,&quot;signature&quot;:&quot;h:2&quot;,&quot;imageName&quot;:&quot;page-003.jpg&quot;,&quot;imageId&quot;:3,&quot;bounds&quot;:{&quot;x&quot;:1992,&quot;y&quot;:2970,&quot;w&quot;:42,&quot;h&quot;:87},&quot;atoms&quot;:[{&quot;id&quot;:4107,&quot;token&quot;:&quot;h:2&quot;,&quot;particle_id&quot;:&quot;img3-m197-p1&quot;,&quot;molecule_id&quot;:&quot;img3-m197&quot;,&quot;atom_order&quot;:3}]}</metadata>
  <rect x="0" y="0" width="42" height="87" fill="#f8f0d8"/>
  <image href="file:///C:/Users/HHHES/AppData/Roaming/com.voynichlab.datasetcreator/images/1/35a70f63-88ab-4986-b441-b78046a10087.jpg" x="-1992" y="-2970" width="2972" height="3766" opacity="0.92"/>
  <rect x="0.5" y="0.5" width="41" height="86" fill="none" stroke="#111827" stroke-width="1" opacity="0.35"/>
  <polyline points="22,71 22,70 23,70 24,70 24,69 24,68 25,68 25,67 25,66 25,65 26,65 26,64 26,63 26,62 26,61 26,60 26,59 26,58 25,57 25,56 25,55 24,54 24,53 23,52 23,51 22,51 22,50 21,50 21,49 20,48 20,47 19,46 19,45 18,44 18,43 18,42 17,42 17,41 17,40 17,39 17,38 16,37 16,36 17,35 17,34 17,33 17,32 17,31 17,30 17,29 17,28 17,27 18,27 18,26 18,25 18,24 19,24 19,23 19,22 20,22 21,21 21,20 22,20 22,19 23,19 24,18 24,17 25,17 25,16 26,16" fill="none" stroke="#ff8c00" stroke-width="3" stroke-linecap="round" stroke-linejoin="round" opacity="0.95">
    <title>4107 h:2</title>
  </polyline>
</svg>
