<?xml version="1.0" encoding="UTF-8"?>
<svg xmlns="http://www.w3.org/2000/svg" width="44" height="73" viewBox="0 0 44 73">
  <title>atom 4182 h:2</title>
  <metadata>{&quot;entityType&quot;:&quot;atom&quot;,&quot;entityId&quot;:&quot;4182&quot;,&quot;token&quot;:&quot;h:2&quot;,&quot;signature&quot;:&quot;h:2&quot;,&quot;imageName&quot;:&quot;page-003.jpg&quot;,&quot;imageId&quot;:3,&quot;bounds&quot;:{&quot;x&quot;:527,&quot;y&quot;:2823,&quot;w&quot;:44,&quot;h&quot;:73},&quot;atoms&quot;:[{&quot;id&quot;:4182,&quot;token&quot;:&quot;h:2&quot;,&quot;particle_id&quot;:&quot;img3-m184-p1&quot;,&quot;molecule_id&quot;:&quot;img3-m184&quot;,&quot;atom_order&quot;:3}]}</metadata>
  <rect x="0" y="0" width="44" height="73" fill="#f8f0d8"/>
  <image href="file:///C:/Users/HHHES/AppData/Roaming/com.voynichlab.datasetcreator/images/1/35a70f63-88ab-4986-b441-b78046a10087.jpg" x="-527" y="-2823" width="2972" height="3766" opacity="0.92"/>
  <rect x="0.5" y="0.5" width="43" height="72" fill="none" stroke="#111827" stroke-width="1" opacity="0.35"/>
  <polyline points="22,57 22,56 23,56 24,56 24,55 25,55 26,55 26,54 27,54 27,53 28,53 28,52 28,51 28,50 28,49 28,48 27,48 27,47 27,46 27,45 26,45 26,44 26,43 25,43 25,42 24,41 24,40 23,40 23,39 22,39 22,38 21,37 21,36 20,36 20,35 19,35 19,34 18,33 18,32 17,32 17,31 17,30 16,30 16,29 16,28 16,27 16,26 16,25 16,24 16,23 17,22 17,21 18,21 18,20 19,19 19,18 20,18 20,17 20,16 21,16" fill="none" stroke="#ff8c00" stroke-width="3" stroke-linecap="round" stroke-linejoin="round" opacity="0.95">
    <title>4182 h:2</title>
  </polyline>
</svg>
