<?xml version="1.0" encoding="UTF-8"?>
<svg xmlns="http://www.w3.org/2000/svg" width="44" height="69" viewBox="0 0 44 69">
  <title>atom 4183 h:2</title>
  <metadata>{&quot;entityType&quot;:&quot;atom&quot;,&quot;entityId&quot;:&quot;4183&quot;,&quot;token&quot;:&quot;h:2&quot;,&quot;signature&quot;:&quot;h:2&quot;,&quot;imageName&quot;:&quot;page-003.jpg&quot;,&quot;imageId&quot;:3,&quot;bounds&quot;:{&quot;x&quot;:835,&quot;y&quot;:2844,&quot;w&quot;:44,&quot;h&quot;:69},&quot;atoms&quot;:[{&quot;id&quot;:4183,&quot;token&quot;:&quot;h:2&quot;,&quot;particle_id&quot;:&quot;img3-m187-p4&quot;,&quot;molecule_id&quot;:&quot;img3-m187&quot;,&quot;atom_order&quot;:3}]}</metadata>
  <rect x="0" y="0" width="44" height="69" fill="#f8f0d8"/>
  <image href="file:///C:/Users/HHHES/AppData/Roaming/com.voynichlab.datasetcreator/images/1/35a70f63-88ab-4986-b441-b78046a10087.jpg" x="-835" y="-2844" width="2972" height="3766" opacity="0.92"/>
  <rect x="0.5" y="0.5" width="43" height="68" fill="none" stroke="#111827" stroke-width="1" opacity="0.35"/>
  <polyline points="22,53 23,53 23,52 24,51 25,50 25,49 26,49 26,48 27,47 27,46 27,45 27,44 28,43 28,42 28,41 27,41 27,40 27,39 27,38 26,38 26,37 25,37 24,36 23,36 23,35 22,35 22,34 21,34 21,33 20,33 20,32 19,32 19,31 19,30 18,30 18,29 17,28 17,27 17,26 16,25 16,24 16,23 16,22 16,21 16,20 16,19 17,19 17,18 18,18 18,17 19,17 20,16 21,16" fill="none" stroke="#ff8c00" stroke-width="3" stroke-linecap="round" stroke-linejoin="round" opacity="0.95">
    <title>4183 h:2</title>
  </polyline>
</svg>
