<?xml version="1.0" encoding="UTF-8"?>
<svg xmlns="http://www.w3.org/2000/svg" width="41" height="68" viewBox="0 0 41 68">
  <title>atom 4184 h:2</title>
  <metadata>{&quot;entityType&quot;:&quot;atom&quot;,&quot;entityId&quot;:&quot;4184&quot;,&quot;token&quot;:&quot;h:2&quot;,&quot;signature&quot;:&quot;h:2&quot;,&quot;imageName&quot;:&quot;page-003.jpg&quot;,&quot;imageId&quot;:3,&quot;bounds&quot;:{&quot;x&quot;:1938,&quot;y&quot;:2894,&quot;w&quot;:41,&quot;h&quot;:68},&quot;atoms&quot;:[{&quot;id&quot;:4184,&quot;token&quot;:&quot;h:2&quot;,&quot;particle_id&quot;:&quot;img3-m189-p1&quot;,&quot;molecule_id&quot;:&quot;img3-m189&quot;,&quot;atom_order&quot;:3}]}</metadata>
  <rect x="0" y="0" width="41" height="68" fill="#f8f0d8"/>
  <image href="file:///C:/Users/HHHES/AppData/Roaming/com.voynichlab.datasetcreator/images/1/35a70f63-88ab-4986-b441-b78046a10087.jpg" x="-1938" y="-2894" width="2972" height="3766" opacity="0.92"/>
  <rect x="0.5" y="0.5" width="40" height="67" fill="none" stroke="#111827" stroke-width="1" opacity="0.35"/>
  <polyline points="19,52 20,52 21,52 21,51 22,51 22,50 23,50 24,50 24,49 24,48 25,48 25,47 25,46 25,45 25,44 25,43 25,42 24,41 23,41 23,40 22,40 22,39 22,38 21,38 21,37 20,36 20,35 19,35 19,34 18,34 18,33 18,32 17,32 17,31 16,30 16,29 16,28 16,27 16,26 16,25 16,24 16,23 16,22 16,21 16,20 17,19 18,18 19,18 20,17 21,17 21,16" fill="none" stroke="#ff8c00" stroke-width="3" stroke-linecap="round" stroke-linejoin="round" opacity="0.95">
    <title>4184 h:2</title>
  </polyline>
</svg>
