<?xml version="1.0" encoding="UTF-8"?>
<svg xmlns="http://www.w3.org/2000/svg" width="61" height="66" viewBox="0 0 61 66">
  <title>atom 1018 j:1</title>
  <metadata>{&quot;entityType&quot;:&quot;atom&quot;,&quot;entityId&quot;:&quot;1018&quot;,&quot;token&quot;:&quot;j:1&quot;,&quot;signature&quot;:&quot;j:1&quot;,&quot;imageName&quot;:&quot;page-003.jpg&quot;,&quot;imageId&quot;:3,&quot;bounds&quot;:{&quot;x&quot;:941,&quot;y&quot;:515,&quot;w&quot;:61,&quot;h&quot;:66},&quot;atoms&quot;:[{&quot;id&quot;:1018,&quot;token&quot;:&quot;j:1&quot;,&quot;particle_id&quot;:&quot;img3-m9-p4&quot;,&quot;molecule_id&quot;:&quot;img3-m9&quot;,&quot;atom_order&quot;:2}]}</metadata>
  <rect x="0" y="0" width="61" height="66" fill="#f8f0d8"/>
  <image href="file:///C:/Users/HHHES/AppData/Roaming/com.voynichlab.datasetcreator/images/1/35a70f63-88ab-4986-b441-b78046a10087.jpg" x="-941" y="-515" width="2972" height="3766" opacity="0.92"/>
  <rect x="0.5" y="0.5" width="60" height="65" fill="none" stroke="#111827" stroke-width="1" opacity="0.35"/>
  <polyline points="27,26 27,25 28,25 28,24 28,23 29,23 29,22 30,22 30,21 31,21 31,20 32,20 33,19 34,19 34,18 35,18 35,17 36,17 37,17 38,16 39,16 40,16 41,16 42,16 43,16 44,16 44,17 45,17 45,18 45,19 45,20 45,21 44,21 44,22 43,23 43,24 42,24 42,25 41,25 41,26 40,26 40,27 39,27 39,28 38,28 38,29 38,30 37,30 37,31 36,31 36,32 35,32 35,33 34,33 33,33 33,34 32,34 32,35 31,35 30,35 30,36 29,36 29,37 28,38 28,39 27,39 27,40 26,40 26,41 25,41 25,42 24,42 24,43 23,43 23,44 22,44 22,45 21,45 21,46 20,46 20,47 19,47 19,48 18,48 18,49 17,49 17,50 16,50" fill="none" stroke="#4a9e6a" stroke-width="3" stroke-linecap="round" stroke-linejoin="round" opacity="0.95">
    <title>1018 j:1</title>
  </polyline>
</svg>
