<?xml version="1.0" encoding="UTF-8"?>
<svg xmlns="http://www.w3.org/2000/svg" width="69" height="71" viewBox="0 0 69 71">
  <title>atom 1140 j:1</title>
  <metadata>{&quot;entityType&quot;:&quot;atom&quot;,&quot;entityId&quot;:&quot;1140&quot;,&quot;token&quot;:&quot;j:1&quot;,&quot;signature&quot;:&quot;j:1&quot;,&quot;imageName&quot;:&quot;page-003.jpg&quot;,&quot;imageId&quot;:3,&quot;bounds&quot;:{&quot;x&quot;:2259,&quot;y&quot;:516,&quot;w&quot;:69,&quot;h&quot;:71},&quot;atoms&quot;:[{&quot;id&quot;:1140,&quot;token&quot;:&quot;j:1&quot;,&quot;particle_id&quot;:&quot;img3-m8-p4&quot;,&quot;molecule_id&quot;:&quot;img3-m8&quot;,&quot;atom_order&quot;:2}]}</metadata>
  <rect x="0" y="0" width="69" height="71" fill="#f8f0d8"/>
  <image href="file:///C:/Users/HHHES/AppData/Roaming/com.voynichlab.datasetcreator/images/1/35a70f63-88ab-4986-b441-b78046a10087.jpg" x="-2259" y="-516" width="2972" height="3766" opacity="0.92"/>
  <rect x="0.5" y="0.5" width="68" height="70" fill="none" stroke="#111827" stroke-width="1" opacity="0.35"/>
  <polyline points="37,25 37,24 37,23 38,23 38,22 39,22 39,21 40,21 40,20 41,20 42,19 43,19 43,18 44,18 44,17 45,17 46,17 46,16 47,16 48,16 49,16 50,16 51,16 52,16 53,16 53,17 53,18 53,19 53,20 52,20 52,21 52,22 51,22 50,23 50,24 49,24 48,24 48,25 47,26 46,27 45,27 45,28 44,28 44,29 43,29 43,30 42,30 42,31 41,31 41,32 40,32 40,33 39,34 39,35 38,35 37,36 37,37 36,37 36,38 35,38 35,39 34,39 34,40 33,40 33,41 32,41 32,42 31,42 31,43 30,43 29,43 29,44 28,44 28,45 27,45 27,46 26,46 25,47 24,47 24,48 23,48 23,49 22,49 22,50 21,50 21,51 20,51 20,52 19,52 19,53 18,53 18,54 17,54 16,55" fill="none" stroke="#4a9e6a" stroke-width="3" stroke-linecap="round" stroke-linejoin="round" opacity="0.95">
    <title>1140 j:1</title>
  </polyline>
</svg>
