<?xml version="1.0" encoding="UTF-8"?>
<svg xmlns="http://www.w3.org/2000/svg" width="74" height="76" viewBox="0 0 74 76">
  <title>atom 1966 j:1</title>
  <metadata>{&quot;entityType&quot;:&quot;atom&quot;,&quot;entityId&quot;:&quot;1966&quot;,&quot;token&quot;:&quot;j:1&quot;,&quot;signature&quot;:&quot;j:1&quot;,&quot;imageName&quot;:&quot;page-003.jpg&quot;,&quot;imageId&quot;:3,&quot;bounds&quot;:{&quot;x&quot;:1326,&quot;y&quot;:1150,&quot;w&quot;:74,&quot;h&quot;:76},&quot;atoms&quot;:[{&quot;id&quot;:1966,&quot;token&quot;:&quot;j:1&quot;,&quot;particle_id&quot;:&quot;img3-m53-p5&quot;,&quot;molecule_id&quot;:&quot;img3-m53&quot;,&quot;atom_order&quot;:2}]}</metadata>
  <rect x="0" y="0" width="74" height="76" fill="#f8f0d8"/>
  <image href="file:///C:/Users/HHHES/AppData/Roaming/com.voynichlab.datasetcreator/images/1/35a70f63-88ab-4986-b441-b78046a10087.jpg" x="-1326" y="-1150" width="2972" height="3766" opacity="0.92"/>
  <rect x="0.5" y="0.5" width="73" height="75" fill="none" stroke="#111827" stroke-width="1" opacity="0.35"/>
  <polyline points="39,25 39,24 40,23 40,22 41,22 42,21 43,21 43,20 44,20 44,19 45,19 45,18 46,18 47,18 47,17 48,17 49,17 50,17 50,16 51,16 52,16 53,16 54,16 55,16 56,17 57,17 58,18 58,19 58,20 58,21 58,22 58,23 57,24 57,25 56,25 56,26 55,26 55,27 54,28 53,28 53,29 52,29 52,30 51,30 50,31 49,31 49,32 48,32 48,33 47,33 46,34 45,34 45,35 44,35 44,36 43,36 42,36 42,37 41,37 41,38 40,38 39,38 39,39 38,40 37,40 37,41 36,41 36,42 35,42 34,43 33,43 33,44 32,44 32,45 31,45 31,46 30,46 29,47 28,47 28,48 27,49 26,50 25,50 25,51 24,51 24,52 23,52 23,53 22,53 21,54 20,55 19,56 19,57 18,57 18,58 17,58 17,59 16,60" fill="none" stroke="#4a9e6a" stroke-width="3" stroke-linecap="round" stroke-linejoin="round" opacity="0.95">
    <title>1966 j:1</title>
  </polyline>
</svg>
