<?xml version="1.0" encoding="UTF-8"?>
<svg xmlns="http://www.w3.org/2000/svg" width="68" height="73" viewBox="0 0 68 73">
  <title>atom 2151 j:1</title>
  <metadata>{&quot;entityType&quot;:&quot;atom&quot;,&quot;entityId&quot;:&quot;2151&quot;,&quot;token&quot;:&quot;j:1&quot;,&quot;signature&quot;:&quot;j:1&quot;,&quot;imageName&quot;:&quot;page-003.jpg&quot;,&quot;imageId&quot;:3,&quot;bounds&quot;:{&quot;x&quot;:1207,&quot;y&quot;:1485,&quot;w&quot;:68,&quot;h&quot;:73},&quot;atoms&quot;:[{&quot;id&quot;:2151,&quot;token&quot;:&quot;j:1&quot;,&quot;particle_id&quot;:&quot;img3-m69-p2&quot;,&quot;molecule_id&quot;:&quot;img3-m69&quot;,&quot;atom_order&quot;:2}]}</metadata>
  <rect x="0" y="0" width="68" height="73" fill="#f8f0d8"/>
  <image href="file:///C:/Users/HHHES/AppData/Roaming/com.voynichlab.datasetcreator/images/1/35a70f63-88ab-4986-b441-b78046a10087.jpg" x="-1207" y="-1485" width="2972" height="3766" opacity="0.92"/>
  <rect x="0.5" y="0.5" width="67" height="72" fill="none" stroke="#111827" stroke-width="1" opacity="0.35"/>
  <polyline points="33,25 33,24 33,23 34,23 35,22 36,22 36,21 37,21 37,20 38,20 39,19 40,19 41,18 42,18 42,17 43,17 44,17 45,17 45,16 46,16 47,16 48,16 49,16 50,16 50,17 51,17 51,18 52,18 52,19 52,20 52,21 51,22 51,23 50,24 50,25 49,25 49,26 48,27 48,28 47,28 47,29 47,30 46,30 46,31 45,32 44,33 43,34 43,35 42,35 42,36 41,36 41,37 40,38 39,38 39,39 38,40 38,41 37,41 37,42 36,42 35,42 35,43 34,43 34,44 33,44 33,45 32,45 32,46 31,46 31,47 30,47 30,48 29,48 28,49 27,50 26,50 26,51 25,51 24,52 23,53 22,53 22,54 21,54 21,55 20,55 19,55 19,56 18,56 17,56 17,57 16,57" fill="none" stroke="#4a9e6a" stroke-width="3" stroke-linecap="round" stroke-linejoin="round" opacity="0.95">
    <title>2151 j:1</title>
  </polyline>
</svg>
