<?xml version="1.0" encoding="UTF-8"?>
<svg xmlns="http://www.w3.org/2000/svg" width="72" height="73" viewBox="0 0 72 73">
  <title>atom 2220 j:1</title>
  <metadata>{&quot;entityType&quot;:&quot;atom&quot;,&quot;entityId&quot;:&quot;2220&quot;,&quot;token&quot;:&quot;j:1&quot;,&quot;signature&quot;:&quot;j:1&quot;,&quot;imageName&quot;:&quot;page-003.jpg&quot;,&quot;imageId&quot;:3,&quot;bounds&quot;:{&quot;x&quot;:2230,&quot;y&quot;:1494,&quot;w&quot;:72,&quot;h&quot;:73},&quot;atoms&quot;:[{&quot;id&quot;:2220,&quot;token&quot;:&quot;j:1&quot;,&quot;particle_id&quot;:&quot;img3-m68-p5&quot;,&quot;molecule_id&quot;:&quot;img3-m68&quot;,&quot;atom_order&quot;:2}]}</metadata>
  <rect x="0" y="0" width="72" height="73" fill="#f8f0d8"/>
  <image href="file:///C:/Users/HHHES/AppData/Roaming/com.voynichlab.datasetcreator/images/1/35a70f63-88ab-4986-b441-b78046a10087.jpg" x="-2230" y="-1494" width="2972" height="3766" opacity="0.92"/>
  <rect x="0.5" y="0.5" width="71" height="72" fill="none" stroke="#111827" stroke-width="1" opacity="0.35"/>
  <polyline points="32,28 32,27 32,26 33,26 33,25 34,25 34,24 35,24 35,23 36,23 36,22 37,22 37,21 38,21 39,21 39,20 40,20 41,20 41,19 42,19 43,18 44,18 45,18 46,17 47,17 48,17 49,16 50,16 51,16 52,16 53,16 54,16 55,16 56,16 56,17 56,18 56,19 56,20 56,21 55,21 55,22 54,22 54,23 53,24 52,24 52,25 51,25 50,26 49,27 48,27 48,28 47,28 46,29 45,30 44,30 44,31 43,31 43,32 42,32 42,33 41,33 40,34 39,35 38,36 37,37 36,38 35,38 35,39 34,39 33,40 32,40 32,41 31,41 30,42 29,43 28,43 28,44 27,44 27,45 26,45 26,46 25,46 24,47 23,48 22,49 22,50 21,50 21,51 20,52 20,53 19,53 19,54 18,54 18,55 17,56 17,57 16,57" fill="none" stroke="#4a9e6a" stroke-width="3" stroke-linecap="round" stroke-linejoin="round" opacity="0.95">
    <title>2220 j:1</title>
  </polyline>
</svg>
