<?xml version="1.0" encoding="UTF-8"?>
<svg xmlns="http://www.w3.org/2000/svg" width="63" height="73" viewBox="0 0 63 73">
  <title>atom 2414 j:1</title>
  <metadata>{&quot;entityType&quot;:&quot;atom&quot;,&quot;entityId&quot;:&quot;2414&quot;,&quot;token&quot;:&quot;j:1&quot;,&quot;signature&quot;:&quot;j:1&quot;,&quot;imageName&quot;:&quot;page-003.jpg&quot;,&quot;imageId&quot;:3,&quot;bounds&quot;:{&quot;x&quot;:1642,&quot;y&quot;:1682,&quot;w&quot;:63,&quot;h&quot;:73},&quot;atoms&quot;:[{&quot;id&quot;:2414,&quot;token&quot;:&quot;j:1&quot;,&quot;particle_id&quot;:&quot;img3-m82-p5&quot;,&quot;molecule_id&quot;:&quot;img3-m82&quot;,&quot;atom_order&quot;:3}]}</metadata>
  <rect x="0" y="0" width="63" height="73" fill="#f8f0d8"/>
  <image href="file:///C:/Users/HHHES/AppData/Roaming/com.voynichlab.datasetcreator/images/1/35a70f63-88ab-4986-b441-b78046a10087.jpg" x="-1642" y="-1682" width="2972" height="3766" opacity="0.92"/>
  <rect x="0.5" y="0.5" width="62" height="72" fill="none" stroke="#111827" stroke-width="1" opacity="0.35"/>
  <polyline points="26,30 26,29 26,28 27,28 27,27 28,27 28,26 28,25 29,25 29,24 30,24 30,23 31,23 31,22 32,21 32,20 33,20 34,20 34,19 35,19 35,18 36,18 37,18 38,17 39,17 40,17 41,17 41,16 42,16 43,16 44,16 44,17 45,17 45,18 45,19 46,19 46,20 46,21 46,22 46,23 47,23 47,24 47,25 47,26 47,27 46,27 46,28 46,29 45,29 45,30 44,31 43,31 43,32 42,32 42,33 41,33 41,34 40,34 40,35 39,35 39,36 38,36 38,37 37,37 37,38 36,38 36,39 35,39 35,40 34,40 34,41 33,41 32,42 31,43 30,44 29,44 29,45 28,45 28,46 27,46 27,47 26,47 26,48 25,48 25,49 24,49 24,50 23,50 23,51 22,51 22,52 21,52 21,53 20,53 20,54 19,54 19,55 18,55 18,56 17,56 17,57 16,57" fill="none" stroke="#4a9e6a" stroke-width="3" stroke-linecap="round" stroke-linejoin="round" opacity="0.95">
    <title>2414 j:1</title>
  </polyline>
</svg>
