<?xml version="1.0" encoding="UTF-8"?>
<svg xmlns="http://www.w3.org/2000/svg" width="60" height="73" viewBox="0 0 60 73">
  <title>atom 2965 j:1</title>
  <metadata>{&quot;entityType&quot;:&quot;atom&quot;,&quot;entityId&quot;:&quot;2965&quot;,&quot;token&quot;:&quot;j:1&quot;,&quot;signature&quot;:&quot;j:1&quot;,&quot;imageName&quot;:&quot;page-094.jpg&quot;,&quot;imageId&quot;:94,&quot;bounds&quot;:{&quot;x&quot;:978,&quot;y&quot;:886,&quot;w&quot;:60,&quot;h&quot;:73},&quot;atoms&quot;:[{&quot;id&quot;:2965,&quot;token&quot;:&quot;j:1&quot;,&quot;particle_id&quot;:&quot;img94-m29-p5&quot;,&quot;molecule_id&quot;:&quot;img94-m29&quot;,&quot;atom_order&quot;:2}]}</metadata>
  <rect x="0" y="0" width="60" height="73" fill="#f8f0d8"/>
  <image href="file:///C:/Users/HHHES/AppData/Roaming/com.voynichlab.datasetcreator/images/1/33b1988f-7aaa-4207-bfa8-f26b742ac4b1.jpg" x="-978" y="-886" width="2932" height="3769" opacity="0.92"/>
  <rect x="0.5" y="0.5" width="59" height="72" fill="none" stroke="#111827" stroke-width="1" opacity="0.35"/>
  <polyline points="27,28 27,27 28,27 28,26 28,25 29,25 29,24 29,23 30,23 30,22 31,22 31,21 32,21 32,20 33,20 33,19 34,19 34,18 35,18 36,18 36,17 37,17 38,17 38,16 39,16 40,16 41,16 42,16 43,16 43,17 43,18 44,18 44,19 44,20 44,21 44,22 44,23 43,23 43,24 43,25 42,25 42,26 42,27 41,27 41,28 41,29 40,29 40,30 39,31 38,31 38,32 38,33 37,33 37,34 36,34 36,35 35,35 35,36 34,37 34,38 33,38 33,39 32,39 32,40 31,41 31,42 30,42 30,43 29,43 29,44 28,44 28,45 27,45 26,46 26,47 25,47 25,48 24,48 24,49 23,49 23,50 22,50 22,51 21,52 20,53 19,54 18,55 17,55 17,56 16,56 16,57" fill="none" stroke="#4a9e6a" stroke-width="3" stroke-linecap="round" stroke-linejoin="round" opacity="0.95">
    <title>2965 j:1</title>
  </polyline>
</svg>
