<?xml version="1.0" encoding="UTF-8"?>
<svg xmlns="http://www.w3.org/2000/svg" width="61" height="71" viewBox="0 0 61 71">
  <title>atom 4615 j:1</title>
  <metadata>{&quot;entityType&quot;:&quot;atom&quot;,&quot;entityId&quot;:&quot;4615&quot;,&quot;token&quot;:&quot;j:1&quot;,&quot;signature&quot;:&quot;j:1&quot;,&quot;imageName&quot;:&quot;page-094.jpg&quot;,&quot;imageId&quot;:94,&quot;bounds&quot;:{&quot;x&quot;:2386,&quot;y&quot;:2607,&quot;w&quot;:61,&quot;h&quot;:71},&quot;atoms&quot;:[{&quot;id&quot;:4615,&quot;token&quot;:&quot;j:1&quot;,&quot;particle_id&quot;:&quot;img94-m52-p3&quot;,&quot;molecule_id&quot;:&quot;img94-m52&quot;,&quot;atom_order&quot;:2}]}</metadata>
  <rect x="0" y="0" width="61" height="71" fill="#f8f0d8"/>
  <image href="file:///C:/Users/HHHES/AppData/Roaming/com.voynichlab.datasetcreator/images/1/33b1988f-7aaa-4207-bfa8-f26b742ac4b1.jpg" x="-2386" y="-2607" width="2932" height="3769" opacity="0.92"/>
  <rect x="0.5" y="0.5" width="60" height="70" fill="none" stroke="#111827" stroke-width="1" opacity="0.35"/>
  <polyline points="16,55 17,55 18,55 19,55 20,55 21,54 22,54 23,54 24,54 25,53 26,53 27,53 28,52 29,52 30,52 31,52 31,51 32,51 33,50 34,50 35,49 36,48 37,48 37,47 38,47 38,46 39,45 39,44 40,44 40,43 41,42 41,41 42,41 42,40 43,39 43,38 44,37 44,36 44,35 44,33 44,32 45,31 45,30 45,29 45,28 45,27 45,26 45,25 44,24 44,23 44,22 43,21 43,20 42,19 41,19 41,18 40,18 39,17 38,16 37,16" fill="none" stroke="#4a9e6a" stroke-width="3" stroke-linecap="round" stroke-linejoin="round" opacity="0.95">
    <title>4615 j:1</title>
  </polyline>
</svg>
