<?xml version="1.0" encoding="UTF-8"?>
<svg xmlns="http://www.w3.org/2000/svg" width="50" height="75" viewBox="0 0 50 75">
  <title>atom 4616 j:1</title>
  <metadata>{&quot;entityType&quot;:&quot;atom&quot;,&quot;entityId&quot;:&quot;4616&quot;,&quot;token&quot;:&quot;j:1&quot;,&quot;signature&quot;:&quot;j:1&quot;,&quot;imageName&quot;:&quot;page-094.jpg&quot;,&quot;imageId&quot;:94,&quot;bounds&quot;:{&quot;x&quot;:2250,&quot;y&quot;:2716,&quot;w&quot;:50,&quot;h&quot;:75},&quot;atoms&quot;:[{&quot;id&quot;:4616,&quot;token&quot;:&quot;j:1&quot;,&quot;particle_id&quot;:&quot;img94-m58-p3&quot;,&quot;molecule_id&quot;:&quot;img94-m58&quot;,&quot;atom_order&quot;:3}]}</metadata>
  <rect x="0" y="0" width="50" height="75" fill="#f8f0d8"/>
  <image href="file:///C:/Users/HHHES/AppData/Roaming/com.voynichlab.datasetcreator/images/1/33b1988f-7aaa-4207-bfa8-f26b742ac4b1.jpg" x="-2250" y="-2716" width="2932" height="3769" opacity="0.92"/>
  <rect x="0.5" y="0.5" width="49" height="74" fill="none" stroke="#111827" stroke-width="1" opacity="0.35"/>
  <polyline points="16,59 17,59 18,59 19,59 19,58 20,58 21,58 21,57 22,57 23,57 24,56 25,56 26,55 27,55 28,54 29,54 29,53 30,53 30,52 31,51 31,50 32,49 32,48 32,47 33,46 33,45 33,44 34,43 34,42 34,41 34,39 34,38 34,37 33,35 33,34 33,33 33,32 32,32 32,30 32,29 31,28 30,27 30,26 29,25 29,24 28,23 27,23 27,22 26,21 24,20 23,19 22,18 21,17 20,17 19,16" fill="none" stroke="#4a9e6a" stroke-width="3" stroke-linecap="round" stroke-linejoin="round" opacity="0.95">
    <title>4616 j:1</title>
  </polyline>
</svg>
