<?xml version="1.0" encoding="UTF-8"?>
<svg xmlns="http://www.w3.org/2000/svg" width="90" height="43" viewBox="0 0 90 43">
  <title>atom 2663 b:1</title>
  <metadata>{&quot;entityType&quot;:&quot;atom&quot;,&quot;entityId&quot;:&quot;2663&quot;,&quot;token&quot;:&quot;b:1&quot;,&quot;signature&quot;:&quot;b:1&quot;,&quot;imageName&quot;:&quot;page-094.jpg&quot;,&quot;imageId&quot;:94,&quot;bounds&quot;:{&quot;x&quot;:1635,&quot;y&quot;:483,&quot;w&quot;:90,&quot;h&quot;:43},&quot;atoms&quot;:[{&quot;id&quot;:2663,&quot;token&quot;:&quot;b:1&quot;,&quot;particle_id&quot;:&quot;img94-m4-p3&quot;,&quot;molecule_id&quot;:&quot;img94-m4&quot;,&quot;atom_order&quot;:6}]}</metadata>
  <rect x="0" y="0" width="90" height="43" fill="#f8f0d8"/>
  <image href="file:///C:/Users/HHHES/AppData/Roaming/com.voynichlab.datasetcreator/images/1/33b1988f-7aaa-4207-bfa8-f26b742ac4b1.jpg" x="-1635" y="-483" width="2932" height="3769" opacity="0.92"/>
  <rect x="0.5" y="0.5" width="89" height="42" fill="none" stroke="#111827" stroke-width="1" opacity="0.35"/>
  <polyline points="16,22 17,22 17,23 18,23 19,24 20,24 21,24 22,24 22,25 23,25 24,25 25,25 25,26 26,26 27,26 28,26 29,26 30,26 30,27 31,27 32,27 33,27 34,27 35,27 36,27 37,27 38,27 39,27 40,27 41,27 42,27 43,27 44,27 45,27 46,27 47,27 48,27 49,26 50,26 51,26 52,26 53,26 53,25 54,25 55,25 56,25 57,25 58,25 58,24 59,24 60,24 61,24 62,24 62,23 63,23 64,23 65,23 65,22 66,22 67,22 67,21 68,21 68,20 69,20 70,20 70,19 71,19 72,18 72,17 73,17 74,17 74,16" fill="none" stroke="#2f7df6" stroke-width="3" stroke-linecap="round" stroke-linejoin="round" opacity="0.95">
    <title>2663 b:1</title>
  </polyline>
</svg>
