<?xml version="1.0" encoding="UTF-8"?>
<svg xmlns="http://www.w3.org/2000/svg" width="62" height="40" viewBox="0 0 62 40">
  <title>atom 2665 b:1</title>
  <metadata>{&quot;entityType&quot;:&quot;atom&quot;,&quot;entityId&quot;:&quot;2665&quot;,&quot;token&quot;:&quot;b:1&quot;,&quot;signature&quot;:&quot;b:1&quot;,&quot;imageName&quot;:&quot;page-094.jpg&quot;,&quot;imageId&quot;:94,&quot;bounds&quot;:{&quot;x&quot;:1643,&quot;y&quot;:510,&quot;w&quot;:62,&quot;h&quot;:40},&quot;atoms&quot;:[{&quot;id&quot;:2665,&quot;token&quot;:&quot;b:1&quot;,&quot;particle_id&quot;:&quot;img94-m4-p3&quot;,&quot;molecule_id&quot;:&quot;img94-m4&quot;,&quot;atom_order&quot;:3}]}</metadata>
  <rect x="0" y="0" width="62" height="40" fill="#f8f0d8"/>
  <image href="file:///C:/Users/HHHES/AppData/Roaming/com.voynichlab.datasetcreator/images/1/33b1988f-7aaa-4207-bfa8-f26b742ac4b1.jpg" x="-1643" y="-510" width="2932" height="3769" opacity="0.92"/>
  <rect x="0.5" y="0.5" width="61" height="39" fill="none" stroke="#111827" stroke-width="1" opacity="0.35"/>
  <polyline points="46,21 46,22 45,22 45,23 44,23 43,24 42,24 41,24 40,24 39,24 38,24 37,24 36,24 35,24 34,24 33,24 33,23 32,23 31,23 31,22 30,22 29,22 28,22 27,21 26,21 25,21 24,21 24,20 23,20 23,19 22,19 21,19 21,18 20,18 19,18 19,17 18,17 17,17 17,16 16,16" fill="none" stroke="#2f7df6" stroke-width="3" stroke-linecap="round" stroke-linejoin="round" opacity="0.95">
    <title>2665 b:1</title>
  </polyline>
</svg>
