<?xml version="1.0" encoding="UTF-8"?>
<svg xmlns="http://www.w3.org/2000/svg" width="66" height="44" viewBox="0 0 66 44">
  <title>atom 2816 b:1</title>
  <metadata>{&quot;entityType&quot;:&quot;atom&quot;,&quot;entityId&quot;:&quot;2816&quot;,&quot;token&quot;:&quot;b:1&quot;,&quot;signature&quot;:&quot;b:1&quot;,&quot;imageName&quot;:&quot;page-094.jpg&quot;,&quot;imageId&quot;:94,&quot;bounds&quot;:{&quot;x&quot;:1889,&quot;y&quot;:695,&quot;w&quot;:66,&quot;h&quot;:44},&quot;atoms&quot;:[{&quot;id&quot;:2816,&quot;token&quot;:&quot;b:1&quot;,&quot;particle_id&quot;:&quot;img94-m17-p2&quot;,&quot;molecule_id&quot;:&quot;img94-m17&quot;,&quot;atom_order&quot;:2}]}</metadata>
  <rect x="0" y="0" width="66" height="44" fill="#f8f0d8"/>
  <image href="file:///C:/Users/HHHES/AppData/Roaming/com.voynichlab.datasetcreator/images/1/33b1988f-7aaa-4207-bfa8-f26b742ac4b1.jpg" x="-1889" y="-695" width="2932" height="3769" opacity="0.92"/>
  <rect x="0.5" y="0.5" width="65" height="43" fill="none" stroke="#111827" stroke-width="1" opacity="0.35"/>
  <polyline points="16,16 16,17 16,18 16,19 16,20 17,20 17,21 17,22 18,22 19,23 20,23 20,24 21,24 22,25 23,25 24,25 24,26 25,26 26,26 27,26 27,27 28,27 29,27 30,27 31,27 32,27 32,28 33,28 34,28 35,28 36,28 37,28 38,28 39,28 40,28 40,27 41,27 42,27 43,27 44,27 44,26 45,26 46,26 46,25 47,25 48,24 49,24 49,23 50,23" fill="none" stroke="#2f7df6" stroke-width="3" stroke-linecap="round" stroke-linejoin="round" opacity="0.95">
    <title>2816 b:1</title>
  </polyline>
</svg>
