<?xml version="1.0" encoding="UTF-8"?>
<svg xmlns="http://www.w3.org/2000/svg" width="84" height="38" viewBox="0 0 84 38">
  <title>atom 2833 b:1</title>
  <metadata>{&quot;entityType&quot;:&quot;atom&quot;,&quot;entityId&quot;:&quot;2833&quot;,&quot;token&quot;:&quot;b:1&quot;,&quot;signature&quot;:&quot;b:1&quot;,&quot;imageName&quot;:&quot;page-094.jpg&quot;,&quot;imageId&quot;:94,&quot;bounds&quot;:{&quot;x&quot;:1585,&quot;y&quot;:683,&quot;w&quot;:84,&quot;h&quot;:38},&quot;atoms&quot;:[{&quot;id&quot;:2833,&quot;token&quot;:&quot;b:1&quot;,&quot;particle_id&quot;:&quot;img94-m16-p2&quot;,&quot;molecule_id&quot;:&quot;img94-m16&quot;,&quot;atom_order&quot;:3}]}</metadata>
  <rect x="0" y="0" width="84" height="38" fill="#f8f0d8"/>
  <image href="file:///C:/Users/HHHES/AppData/Roaming/com.voynichlab.datasetcreator/images/1/33b1988f-7aaa-4207-bfa8-f26b742ac4b1.jpg" x="-1585" y="-683" width="2932" height="3769" opacity="0.92"/>
  <rect x="0.5" y="0.5" width="83" height="37" fill="none" stroke="#111827" stroke-width="1" opacity="0.35"/>
  <polyline points="16,17 16,18 17,18 18,18 18,19 19,19 20,19 21,19 21,20 22,20 23,20 24,20 25,20 25,21 26,21 27,21 28,21 29,21 30,21 31,21 32,22 33,22 34,22 35,22 36,22 37,22 38,22 39,22 40,22 41,22 42,22 42,21 43,21 44,21 45,21 46,21 47,21 48,21 49,21 50,21 51,21 51,20 52,20 53,20 54,20 55,20 56,20 57,20 58,19 59,19 60,19 61,19 62,19 62,18 63,18 64,18 65,18 66,17 67,17 68,17 68,16" fill="none" stroke="#2f7df6" stroke-width="3" stroke-linecap="round" stroke-linejoin="round" opacity="0.95">
    <title>2833 b:1</title>
  </polyline>
</svg>
