<?xml version="1.0" encoding="UTF-8"?>
<svg xmlns="http://www.w3.org/2000/svg" width="89" height="41" viewBox="0 0 89 41">
  <title>atom 2922 b:1</title>
  <metadata>{&quot;entityType&quot;:&quot;atom&quot;,&quot;entityId&quot;:&quot;2922&quot;,&quot;token&quot;:&quot;b:1&quot;,&quot;signature&quot;:&quot;b:1&quot;,&quot;imageName&quot;:&quot;page-094.jpg&quot;,&quot;imageId&quot;:94,&quot;bounds&quot;:{&quot;x&quot;:2072,&quot;y&quot;:799,&quot;w&quot;:89,&quot;h&quot;:41},&quot;atoms&quot;:[{&quot;id&quot;:2922,&quot;token&quot;:&quot;b:1&quot;,&quot;particle_id&quot;:&quot;img94-m23-p1&quot;,&quot;molecule_id&quot;:&quot;img94-m23&quot;,&quot;atom_order&quot;:4}]}</metadata>
  <rect x="0" y="0" width="89" height="41" fill="#f8f0d8"/>
  <image href="file:///C:/Users/HHHES/AppData/Roaming/com.voynichlab.datasetcreator/images/1/33b1988f-7aaa-4207-bfa8-f26b742ac4b1.jpg" x="-2072" y="-799" width="2932" height="3769" opacity="0.92"/>
  <rect x="0.5" y="0.5" width="88" height="40" fill="none" stroke="#111827" stroke-width="1" opacity="0.35"/>
  <polyline points="16,19 17,19 17,20 18,20 19,20 20,21 21,21 22,21 23,21 23,22 24,22 25,22 26,22 27,22 29,23 30,23 31,23 32,23 33,23 34,24 35,24 36,24 37,24 38,24 39,24 40,24 41,24 42,24 43,24 44,24 46,25 47,25 48,25 49,25 50,25 51,25 52,25 53,24 54,24 55,24 56,24 57,24 58,24 59,24 60,24 61,23 62,23 63,22 64,22 65,21 66,21 67,20 68,20 68,19 69,18 70,18 70,17 71,17 72,17 72,16 73,16" fill="none" stroke="#2f7df6" stroke-width="3" stroke-linecap="round" stroke-linejoin="round" opacity="0.95">
    <title>2922 b:1</title>
  </polyline>
</svg>
