<?xml version="1.0" encoding="UTF-8"?>
<svg xmlns="http://www.w3.org/2000/svg" width="78" height="38" viewBox="0 0 78 38">
  <title>atom 4236 b:1</title>
  <metadata>{&quot;entityType&quot;:&quot;atom&quot;,&quot;entityId&quot;:&quot;4236&quot;,&quot;token&quot;:&quot;b:1&quot;,&quot;signature&quot;:&quot;b:1&quot;,&quot;imageName&quot;:&quot;page-094.jpg&quot;,&quot;imageId&quot;:94,&quot;bounds&quot;:{&quot;x&quot;:756,&quot;y&quot;:2387,&quot;w&quot;:78,&quot;h&quot;:38},&quot;atoms&quot;:[{&quot;id&quot;:4236,&quot;token&quot;:&quot;b:1&quot;,&quot;particle_id&quot;:&quot;img94-m40-p1&quot;,&quot;molecule_id&quot;:&quot;img94-m40&quot;,&quot;atom_order&quot;:7}]}</metadata>
  <rect x="0" y="0" width="78" height="38" fill="#f8f0d8"/>
  <image href="file:///C:/Users/HHHES/AppData/Roaming/com.voynichlab.datasetcreator/images/1/33b1988f-7aaa-4207-bfa8-f26b742ac4b1.jpg" x="-756" y="-2387" width="2932" height="3769" opacity="0.92"/>
  <rect x="0.5" y="0.5" width="77" height="37" fill="none" stroke="#111827" stroke-width="1" opacity="0.35"/>
  <polyline points="16,20 17,20 18,20 19,20 20,20 20,21 21,21 22,21 23,21 24,22 25,22 26,22 27,22 28,22 29,22 30,22 31,22 32,22 33,22 35,22 36,22 37,22 38,22 39,22 40,22 41,22 42,22 43,22 44,22 45,22 46,22 47,22 49,21 50,21 51,21 52,21 53,20 54,20 55,20 56,20 56,19 57,19 58,19 58,18 59,18 60,17 61,17 61,16 62,16" fill="none" stroke="#2f7df6" stroke-width="3" stroke-linecap="round" stroke-linejoin="round" opacity="0.95">
    <title>4236 b:1</title>
  </polyline>
</svg>
