<?xml version="1.0" encoding="UTF-8"?>
<svg xmlns="http://www.w3.org/2000/svg" width="65" height="45" viewBox="0 0 65 45">
  <title>atom 4621 b:1</title>
  <metadata>{&quot;entityType&quot;:&quot;atom&quot;,&quot;entityId&quot;:&quot;4621&quot;,&quot;token&quot;:&quot;b:1&quot;,&quot;signature&quot;:&quot;b:1&quot;,&quot;imageName&quot;:&quot;page-094.jpg&quot;,&quot;imageId&quot;:94,&quot;bounds&quot;:{&quot;x&quot;:1401,&quot;y&quot;:2740,&quot;w&quot;:65,&quot;h&quot;:45},&quot;atoms&quot;:[{&quot;id&quot;:4621,&quot;token&quot;:&quot;b:1&quot;,&quot;particle_id&quot;:&quot;img94-m62-p1&quot;,&quot;molecule_id&quot;:&quot;img94-m62&quot;,&quot;atom_order&quot;:2}]}</metadata>
  <rect x="0" y="0" width="65" height="45" fill="#f8f0d8"/>
  <image href="file:///C:/Users/HHHES/AppData/Roaming/com.voynichlab.datasetcreator/images/1/33b1988f-7aaa-4207-bfa8-f26b742ac4b1.jpg" x="-1401" y="-2740" width="2932" height="3769" opacity="0.92"/>
  <rect x="0.5" y="0.5" width="64" height="44" fill="none" stroke="#111827" stroke-width="1" opacity="0.35"/>
  <polyline points="16,16 16,17 16,18 16,19 17,20 18,21 18,22 19,22 20,23 21,24 22,24 23,25 24,26 25,26 26,27 28,27 29,28 30,28 31,28 32,28 33,28 35,28 36,28 37,28 38,29 39,29 40,29 41,29 42,29 43,29 44,29 46,29 47,29 48,29 49,28" fill="none" stroke="#2f7df6" stroke-width="3" stroke-linecap="round" stroke-linejoin="round" opacity="0.95">
    <title>4621 b:1</title>
  </polyline>
</svg>
