<?xml version="1.0" encoding="UTF-8"?>
<svg xmlns="http://www.w3.org/2000/svg" width="72" height="42" viewBox="0 0 72 42">
  <title>atom 4622 b:1</title>
  <metadata>{&quot;entityType&quot;:&quot;atom&quot;,&quot;entityId&quot;:&quot;4622&quot;,&quot;token&quot;:&quot;b:1&quot;,&quot;signature&quot;:&quot;b:1&quot;,&quot;imageName&quot;:&quot;page-094.jpg&quot;,&quot;imageId&quot;:94,&quot;bounds&quot;:{&quot;x&quot;:1655,&quot;y&quot;:2808,&quot;w&quot;:72,&quot;h&quot;:42},&quot;atoms&quot;:[{&quot;id&quot;:4622,&quot;token&quot;:&quot;b:1&quot;,&quot;particle_id&quot;:&quot;img94-m71-p3&quot;,&quot;molecule_id&quot;:&quot;img94-m71&quot;,&quot;atom_order&quot;:2}]}</metadata>
  <rect x="0" y="0" width="72" height="42" fill="#f8f0d8"/>
  <image href="file:///C:/Users/HHHES/AppData/Roaming/com.voynichlab.datasetcreator/images/1/33b1988f-7aaa-4207-bfa8-f26b742ac4b1.jpg" x="-1655" y="-2808" width="2932" height="3769" opacity="0.92"/>
  <rect x="0.5" y="0.5" width="71" height="41" fill="none" stroke="#111827" stroke-width="1" opacity="0.35"/>
  <polyline points="16,16 16,17 17,18 18,19 18,20 19,20 19,21 21,22 22,23 23,23 24,24 25,24 25,25 26,25 27,25 29,25 31,26 33,26 34,26 35,26 36,26 37,26 38,26 40,26 41,26 42,26 43,25 44,25 45,25 46,25 47,25 47,24 48,24 49,24 50,23 51,23 52,22 52,21 53,21 54,21 55,20 56,19" fill="none" stroke="#2f7df6" stroke-width="3" stroke-linecap="round" stroke-linejoin="round" opacity="0.95">
    <title>4622 b:1</title>
  </polyline>
</svg>
