<?xml version="1.0" encoding="UTF-8"?>
<svg xmlns="http://www.w3.org/2000/svg" width="68" height="45" viewBox="0 0 68 45">
  <title>atom 4623 b:1</title>
  <metadata>{&quot;entityType&quot;:&quot;atom&quot;,&quot;entityId&quot;:&quot;4623&quot;,&quot;token&quot;:&quot;b:1&quot;,&quot;signature&quot;:&quot;b:1&quot;,&quot;imageName&quot;:&quot;page-094.jpg&quot;,&quot;imageId&quot;:94,&quot;bounds&quot;:{&quot;x&quot;:1679,&quot;y&quot;:2721,&quot;w&quot;:68,&quot;h&quot;:45},&quot;atoms&quot;:[{&quot;id&quot;:4623,&quot;token&quot;:&quot;b:1&quot;,&quot;particle_id&quot;:&quot;img94-m63-p3&quot;,&quot;molecule_id&quot;:&quot;img94-m63&quot;,&quot;atom_order&quot;:2}]}</metadata>
  <rect x="0" y="0" width="68" height="45" fill="#f8f0d8"/>
  <image href="file:///C:/Users/HHHES/AppData/Roaming/com.voynichlab.datasetcreator/images/1/33b1988f-7aaa-4207-bfa8-f26b742ac4b1.jpg" x="-1679" y="-2721" width="2932" height="3769" opacity="0.92"/>
  <rect x="0.5" y="0.5" width="67" height="44" fill="none" stroke="#111827" stroke-width="1" opacity="0.35"/>
  <polyline points="16,16 16,17 16,18 16,19 17,20 18,20 18,21 19,22 20,23 22,24 24,25 26,25 29,26 31,27 32,27 33,27 34,27 36,28 38,28 40,28 42,28 43,29 44,29 45,29 46,29 47,28 48,28 49,28 50,27 51,27 52,27 52,26" fill="none" stroke="#2f7df6" stroke-width="3" stroke-linecap="round" stroke-linejoin="round" opacity="0.95">
    <title>4623 b:1</title>
  </polyline>
</svg>
