<?xml version="1.0" encoding="UTF-8"?>
<svg xmlns="http://www.w3.org/2000/svg" width="58" height="45" viewBox="0 0 58 45">
  <title>atom 4628 b:1</title>
  <metadata>{&quot;entityType&quot;:&quot;atom&quot;,&quot;entityId&quot;:&quot;4628&quot;,&quot;token&quot;:&quot;b:1&quot;,&quot;signature&quot;:&quot;b:1&quot;,&quot;imageName&quot;:&quot;page-094.jpg&quot;,&quot;imageId&quot;:94,&quot;bounds&quot;:{&quot;x&quot;:1031,&quot;y&quot;:2843,&quot;w&quot;:58,&quot;h&quot;:45},&quot;atoms&quot;:[{&quot;id&quot;:4628,&quot;token&quot;:&quot;b:1&quot;,&quot;particle_id&quot;:&quot;img94-m70-p1&quot;,&quot;molecule_id&quot;:&quot;img94-m70&quot;,&quot;atom_order&quot;:2}]}</metadata>
  <rect x="0" y="0" width="58" height="45" fill="#f8f0d8"/>
  <image href="file:///C:/Users/HHHES/AppData/Roaming/com.voynichlab.datasetcreator/images/1/33b1988f-7aaa-4207-bfa8-f26b742ac4b1.jpg" x="-1031" y="-2843" width="2932" height="3769" opacity="0.92"/>
  <rect x="0.5" y="0.5" width="57" height="44" fill="none" stroke="#111827" stroke-width="1" opacity="0.35"/>
  <polyline points="16,16 16,17 16,18 16,19 16,21 16,22 17,22 18,24 19,25 19,26 20,26 21,27 23,27 24,27 25,27 26,28 27,28 28,28 29,28 30,28 32,28 33,28 33,29 34,29 35,29 36,29 37,29 38,29 38,28 39,28 40,27 41,27 41,26 41,25 42,25" fill="none" stroke="#2f7df6" stroke-width="3" stroke-linecap="round" stroke-linejoin="round" opacity="0.95">
    <title>4628 b:1</title>
  </polyline>
</svg>
